<?xml version="1.0" encoding="UTF-8" standalone="no"?>
<svg
   viewBox="0 0 513.92651 99.620003"
   version="1.1"
   id="svg50"
   sodipodi:docname="dreamcast.svg"
   width="513.92651"
   height="99.620003"
   inkscape:version="1.1 (c68e22c387, 2021-05-23)"
   xmlns:inkscape="http://www.inkscape.org/namespaces/inkscape"
   xmlns:sodipodi="http://sodipodi.sourceforge.net/DTD/sodipodi-0.dtd"
   xmlns="http://www.w3.org/2000/svg"
   xmlns:svg="http://www.w3.org/2000/svg"
   xmlns:rdf="http://www.w3.org/1999/02/22-rdf-syntax-ns#"
   xmlns:cc="http://creativecommons.org/ns#"
   xmlns:dc="http://purl.org/dc/elements/1.1/">
  <defs
     id="defs54" />
  <sodipodi:namedview
     id="namedview52"
     pagecolor="#ffffff"
     bordercolor="#666666"
     borderopacity="1.0"
     inkscape:pageshadow="2"
     inkscape:pageopacity="0.0"
     inkscape:pagecheckerboard="0"
     showgrid="false"
     fit-margin-top="0"
     fit-margin-left="0"
     fit-margin-right="0"
     fit-margin-bottom="0"
     inkscape:zoom="1.113"
     inkscape:cx="256.51393"
     inkscape:cy="49.415993"
     inkscape:window-width="1920"
     inkscape:window-height="1138"
     inkscape:window-x="-8"
     inkscape:window-y="-8"
     inkscape:window-maximized="1"
     inkscape:current-layer="svg50" />
  <title
     id="title2">logo</title>
  <g
     id="Layer_2"
     data-name="Layer 2"
     transform="translate(-243.0735,-7.12)">
    <rect
       x="372.16"
       y="31.08"
       width="39.560001"
       height="55.110001"
       fill="#ffffff"
       id="rect4" />
    <rect
       x="464.82999"
       y="64.860001"
       width="64.220001"
       height="20.16"
       fill="#ffffff"
       id="rect6" />
    <rect
       x="621.5"
       y="48.84"
       width="107.78"
       height="37.349998"
       fill="#ffffff"
       id="rect8" />
  </g>
  <g
     id="Layer_1"
     data-name="Layer 1"
     transform="translate(-243.0735,-7.12)">
    <path
       d="m 385.67,25.38 c 13.45,0 33.75,7.47 33.75,32.62 0,18.69 -14.33,32.62 -33.75,32.62 -4.29,0 -20.53,-0.06 -26.3,-0.06 a 17.1,17.1 0 0 0 1.87,-7.48 v -51.5 c 0,-2.18 -0.41,-5 -1.38,-6.2 h 25.81 m -5,59.65 a 63.88,63.88 0 0 0 7.44,-0.44 c 5,-0.71 21.89,-4.35 21.77,-26.74 -0.12,-21.21 -13.23,-26.06 -23.32,-26.62 -1.48,-0.1 -3,-0.15 -4.43,-0.15 a 66.64,66.64 0 0 0 -11.19,1 v 52.2 a 63.38,63.38 0 0 0 9.73,0.75 m 5,-66.65 h -25.81 a 7,7 0 0 0 -5.86,10.81 10.72,10.72 0 0 1 0.26,2.39 V 83 a 10.16,10.16 0 0 1 -1.1,4.36 7,7 0 0 0 6.23,10.19 h 14.86 11.44 c 23.23,0 40.75,-17 40.75,-39.62 0,-27.22 -21.12,-39.62 -40.75,-39.62 z m -7.76,19.85 c 1.4,-0.1 2.79,-0.15 4.19,-0.15 1.4,0 2.65,0.05 4,0.13 h 0.08 c 11.33,0.62 16.64,6.88 16.71,19.68 0.08,14.42 -8.46,18.7 -15.67,19.75 a 57.36,57.36 0 0 1 -6.54,0.38 c -0.91,0 -1.82,0 -2.73,-0.07 V 38.23 Z"
       fill="#ffffff"
       id="path11" />
    <path
       d="m 434.63,43.92 v 8.52 c 1.84,-4.53 6.52,-8.4 13.26,-8.4 a 21.77,21.77 0 0 1 7.9,1.61 l -2.57,6.73 a 18.33,18.33 0 0 0 -7.79,-1.94 c -6.3,0 -10.8,4.41 -10.8,12.49 v 23 a 13.37,13.37 0 0 0 0.86,4.72 h -10 a 9,9 0 0 0 1.49,-4.72 V 52.76 c 0,-2.4 -0.5,-6.12 -2,-7.33 v 0 l 9.67,-1.51 m 0,-7 a 6.65,6.65 0 0 0 -1.08,0.09 l -9.6,1.5 a 7,7 0 0 0 -4.34,11.49 12.06,12.06 0 0 1 0.31,2.75 v 33.06 a 2.1,2.1 0 0 1 -0.34,1 7,7 0 0 0 5.85,10.85 h 10 a 7,7 0 0 0 6.55,-9.47 6.4,6.4 0 0 1 -0.41,-2.25 v -23 c 0,-5.49 2.67,-5.49 3.8,-5.49 a 11.47,11.47 0 0 1 4.78,1.26 7,7 0 0 0 9.54,-3.82 l 2.58,-6.73 a 7,7 0 0 0 -4,-9 28.83,28.83 0 0 0 -10.4,-2.16 22.34,22.34 0 0 0 -8.57,1.68 l -0.13,-0.12 a 7,7 0 0 0 -4.56,-1.68 z"
       fill="#ffffff"
       id="path13" />
    <path
       d="m 738,31.73 v 13.73 h 12 v 5.38 a 14.17,14.17 0 0 0 -4.52,-0.73 H 738 v 30.56 a 5.42,5.42 0 0 0 0,0.57 4.8,4.8 0 0 0 4.79,4.46 h 0.45 a 19.81,19.81 0 0 0 6.43,-1.08 l -1.21,5.69 a 29.16,29.16 0 0 1 -6.78,0.8 c -4.71,0 -11.07,-2.47 -11.07,-11.69 V 50 h -5.54 v -4.48 h 5.68 v -4.6 c 0,-2.22 -0.4,-5.59 -1.62,-6.73 l 8.9,-2.46 m 0,-7 a 7,7 0 0 0 -1.86,0.25 l -8.91,2.46 a 7,7 0 0 0 -3.76,10.91 l 0.06,0.33 a 7,7 0 0 0 -5.49,6.84 v 4.53 a 7,7 0 0 0 5.54,6.85 v 22.51 c 0,12.92 9.08,18.69 18.07,18.69 a 36.49,36.49 0 0 0 8.41,-1 7,7 0 0 0 5.22,-5.36 l 1.21,-5.69 A 7,7 0 0 0 747.38,78 13.22,13.22 0 0 1 744.99,78.58 V 57.11 h 0.49 a 7.15,7.15 0 0 1 2.3,0.37 7.11,7.11 0 0 0 2.22,0.36 7,7 0 0 0 7,-7 v -5.38 a 7,7 0 0 0 -7,-7 h -5 v -6.71 a 7,7 0 0 0 -7,-7 z"
       fill="#ffffff"
       id="path15" />
    <path
       d="m 708.73,43.73 a 38.81,38.81 0 0 1 11.5,1.89 v 6.05 c -3.13,-2.65 -7.9,-3.28 -11.05,-3.28 -5,0 -8.76,2.49 -8.76,7.35 0,7.14 23.55,6.73 23.55,21.39 C 724,86.62 715.75,91 706.71,91 a 48.36,48.36 0 0 1 -12.82,-1.88 l -1.78,-8 v 0 c 3.82,2.73 9.83,5.15 14.24,5.15 6.12,0 10.49,-3 10.49,-8.59 0,-10.3 -23.56,-8.58 -23.56,-21.74 0,-8.87 7.93,-12.2 15.45,-12.2 m 0,-7 c -13.43,0 -22.45,7.71 -22.45,19.2 0,11.49 10.32,16 17.14,18.85 2.05,0.86 5.39,2.27 6.41,3.23 0,0.38 -0.16,0.47 -0.24,0.53 a 5.65,5.65 0 0 1 -3.24,0.72 c -2.6,0 -7.26,-1.76 -10.17,-3.85 a 7,7 0 0 0 -11.07,5.7 7.16,7.16 0 0 0 0.16,1.53 l 1.79,8 a 7,7 0 0 0 4.89,5.2 55,55 0 0 0 14.69,2.15 h 0.07 C 721,98 731,89.44 731,77.13 731,63.83 719,58.82 711.81,55.83 l -0.83,-0.35 a 9.39,9.39 0 0 1 4.73,1.52 7,7 0 0 0 11.52,-5.35 v -6.03 a 7,7 0 0 0 -4.47,-6.53 c -5,-1.94 -11.83,-2.36 -14,-2.36 z"
       fill="#ffffff"
       id="path17" />
    <path
       d="m 561.91,44.06 c 6.61,0 10.69,2.77 13.27,5.73 3,-2.61 6.89,-5.62 13.67,-5.62 11.66,0 16.65,7.84 16.65,12.73 v 28.71 a 9.81,9.81 0 0 0 1.49,5 H 597 a 9.91,9.91 0 0 0 1.49,-5 V 61.48 c 0,-8.83 -5.09,-11.92 -10.06,-11.92 -4.97,0 -11,2.14 -11,11.92 v 24.13 a 10,10 0 0 0 1.47,5 h -10.3 a 9.89,9.89 0 0 0 1.48,-5 V 61.48 c 0,-9.78 -4.45,-11.92 -9.36,-11.92 -5.44,0 -10.9,3.1 -10.9,11.92 v 24.13 a 10,10 0 0 0 1.48,5 h -10.63 a 10,10 0 0 0 1.49,-5 V 53.52 c 0,-2.76 -0.91,-6.61 -2.09,-7.85 l 9.79,-1.52 v 6 a 15.26,15.26 0 0 1 12,-6 m 0,-7 h -0.06 a 22.19,22.19 0 0 0 -7.8,1.49 7,7 0 0 0 -4.19,-1.4 6.56,6.56 0 0 0 -1.08,0.09 L 539,38.76 a 7,7 0 0 0 -4.48,11.18 11.8,11.8 0 0 1 0.64,3.58 v 32 a 6.82,6.82 0 0 1 -0.23,1.07 7,7 0 0 0 5.74,11 h 10.67 a 7,7 0 0 0 5.74,-11 5.81,5.81 0 0 1 -0.22,-1.07 V 61.48 c 0,-4.11 1.43,-4.92 3.9,-4.92 a 3.7,3.7 0 0 1 1.55,0.21 c 0.19,0.2 0.81,1.54 0.81,4.71 v 24.06 a 5.92,5.92 0 0 1 -0.22,1.08 7,7 0 0 0 5.74,11 h 10.3 a 7,7 0 0 0 5.75,-11 5.92,5.92 0 0 1 -0.22,-1.08 V 61.48 c 0,-4.68 1.51,-4.92 4,-4.92 1.14,0 3.06,0 3.06,4.92 v 24.06 a 5.74,5.74 0 0 1 -0.23,1.06 7,7 0 0 0 5.74,11 h 10 a 7,7 0 0 0 5.73,-11 5.71,5.71 0 0 1 -0.22,-1.06 V 56.9 a 18.93,18.93 0 0 0 -6.13,-13.27 c -3.1,-3 -8.66,-6.46 -17.52,-6.46 a 24.86,24.86 0 0 0 -13.39,3.68 24.64,24.64 0 0 0 -13.55,-3.79 z"
       fill="#ffffff"
       id="path19" />
    <path
       d="m 516.52,44 c 10.3,0 17.16,5.15 17.16,17.16 V 81 c 0,3.69 0.07,7.18 1.38,9.63 h -8.31 l -0.31,-5.23 c -3.14,4.06 -6.87,5.88 -13.29,5.88 -12.59,0 -15.34,-8.59 -15.34,-12.74 0,-14.76 14.05,-14.93 20.15,-15.8 3.37,-0.48 7.73,-1.43 8.37,-4.6 C 527.4,52.92 523.66,49 516,49 a 26.82,26.82 0 0 0 -14,4 v -6.7 0 c 4,-1.6 10.46,-2.34 14.51,-2.34 m -2.93,42.24 c 10.49,0 13.2,-7.58 13.2,-13.53 v -7.49 0 c -1.4,1.32 -4.3,2.34 -7.34,2.73 -7.93,1 -14.81,2.36 -14.81,10.09 0,4.58 5,8.2 9,8.2 M 516.52,37 c -3.67,0 -11.3,0.58 -16.88,2.75 A 7,7 0 0 0 495,46.3 V 53 a 7,7 0 0 0 6,6.93 v 0 c -4.64,2.63 -10.17,8 -10.17,18.6 A 19.59,19.59 0 0 0 495.42,91 c 2.82,3.33 8.19,7.29 17.73,7.29 a 26.56,26.56 0 0 0 9.93,-1.68 7.06,7.06 0 0 0 3.67,1 h 8.31 a 7,7 0 0 0 6.17,-10.3 c -0.55,-1 -0.55,-4.61 -0.55,-6.33 V 61.12 c 0,-15.13 -9,-24.16 -24.16,-24.16 z m -5.09,19.59 a 20.35,20.35 0 0 1 4.05,-0.55 h -0.21 c -1.13,0.13 -2.44,0.29 -3.84,0.52 z m 0.2,21.34 a 2.11,2.11 0 0 1 0.13,-0.86 c 0.34,-0.51 2,-1.27 7.82,-2.07 -0.84,4.23 -4.11,4.24 -6,4.24 a 3.25,3.25 0 0 1 -2,-1.31 z"
       fill="#ffffff"
       id="path21" />
    <path
       d="m 670.42,44 c 10.34,0 17.21,5.15 17.21,17.16 V 81 c 0,3.69 -0.8,7.11 1.36,9.63 h -8.31 l -0.3,-5.23 c -3.15,4.06 -6.87,5.88 -13.29,5.88 -12.59,0 -15.34,-8.59 -15.34,-12.74 0,-14.76 14,-14.93 20.14,-15.8 3.38,-0.48 7.73,-1.43 8.37,-4.6 C 681.34,52.92 677.6,49 670,49 a 26.79,26.79 0 0 0 -14,4 v -6.7 0 c 4,-1.6 10.46,-2.34 14.51,-2.34 m -3.03,42.24 c 10.49,0 13.19,-7.58 13.19,-13.53 v -7.49 c -1.39,1.32 -4.29,2.34 -7.34,2.73 -7.93,1 -14.8,2.36 -14.8,10.09 0,4.58 5,8.2 9,8.2 M 670.42,37 c -3.72,0 -11.52,0.6 -17.12,2.84 a 7,7 0 0 0 -4.38,6.86 V 53 a 7,7 0 0 0 6,6.93 v 0 c -4.64,2.63 -10.17,8 -10.17,18.6 A 19.59,19.59 0 0 0 649.36,91 c 2.82,3.33 8.19,7.29 17.73,7.29 a 26.59,26.59 0 0 0 9.91,-1.68 7,7 0 0 0 3.66,1 H 689 a 7,7 0 0 0 5.53,-11.29 19.61,19.61 0 0 1 0,-2.64 c 0,-0.81 0.09,-1.73 0.09,-2.7 V 61.12 c 0,-15.13 -9,-24.16 -24.21,-24.16 z m -5,19.59 a 20.35,20.35 0 0 1 4,-0.55 h -0.22 c -1.13,0.13 -2.43,0.29 -3.83,0.52 z m 0.16,21.34 a 2.11,2.11 0 0 1 0.13,-0.86 c 0.34,-0.51 2,-1.27 7.81,-2.07 -0.84,4.23 -4.1,4.24 -6,4.24 a 3.25,3.25 0 0 1 -2,-1.31 z"
       fill="#ffffff"
       id="path23" />
    <path
       d="m 634.6,44.1 a 41.64,41.64 0 0 1 12.48,2 v 6.21 0 a 26.11,26.11 0 0 0 -11.47,-3.26 c -12,0 -17.58,7.41 -17.58,18.09 0,10.68 5.4,18.67 17.16,18.67 4.05,0 9.55,-1.81 13.81,-4.44 l -1.71,7.79 a 41.94,41.94 0 0 1 -12.49,1.9 h -0.39 c -16.56,0 -24.29,-11.75 -24.29,-24 0,-13.51 10.4,-23.05 24.5,-23.05 m 0,-7 a 32.4,32.4 0 0 0 -22.31,8.34 29.27,29.27 0 0 0 -9.19,21.71 c 0,14.92 9.79,31 31.29,31 h 0.39 a 49,49 0 0 0 14.58,-2.22 7,7 0 0 0 4.74,-5.18 l 1.72,-7.78 a 7,7 0 0 0 -10.51,-7.47 22.4,22.4 0 0 1 -10.14,3.4 c -2.51,0 -10.16,0 -10.16,-11.67 0,-9.72 5.52,-11.06 10.41,-11.09 a 19.23,19.23 0 0 1 8.24,2.38 7,7 0 0 0 9.23,-2.24 7.16,7.16 0 0 0 1.19,-3.91 v -6.15 a 7,7 0 0 0 -4.85,-6.66 48.67,48.67 0 0 0 -14.57,-2.37 z"
       fill="#ffffff"
       id="path25" />
    <path
       d="m 475.34,44.1 c 13.09,0 18.6,9.44 18.6,20.45 h -32.05 a 28.56,28.56 0 0 0 -0.28,3.21 v 0 c -0.05,10.83 6.21,17.94 16,17.94 5.47,0 11.52,-1.82 15.26,-4.9 l -1.54,7.81 c -4.38,1.54 -8.43,2.73 -13.28,2.73 -15.35,0 -24.3,-11 -24.3,-23.18 0,-13.51 8,-24.11 21.59,-24.11 m -12.43,15.61 h 23.59 c 0,-3.75 -2.57,-10.82 -11.65,-10.82 -5.93,0 -10.9,5.46 -11.94,10.82 M 475.34,37.1 a 27.34,27.34 0 0 0 -21.2,9.45 c -4.77,5.58 -7.39,13.27 -7.39,21.66 a 30,30 0 0 0 8.38,21.06 c 5.73,5.88 13.87,9.12 22.92,9.12 a 45.42,45.42 0 0 0 15.59,-3.13 7,7 0 0 0 4.55,-5.26 l 1.55,-7.81 a 7,7 0 0 0 -3.28,-7.37 6.92,6.92 0 0 0 -3.59,-1 7,7 0 0 0 -4.45,1.59 c -2.36,2 -6.81,3.31 -10.81,3.31 a 8.39,8.39 0 0 1 -6.2,-2.26 9.8,9.8 0 0 1 -2.47,-4.94 h 25 a 7,7 0 0 0 7,-7 c 0,-16.67 -10.06,-27.44 -25.6,-27.44 z"
       fill="#ffffff"
       id="path27" />
    <path
       d="m 294.72,14.1 h 0.57 a 70.38,70.38 0 0 1 7.11,0.36 38.58,38.58 0 0 1 6.52,0.79 v 0 a 63.28,63.28 0 0 1 9.19,2.38 51.3,51.3 0 0 1 12.33,6.6 34,34 0 0 1 4.12,4.11 c 0.86,1.06 2.42,3.38 3.43,4.81 a 81.07,81.07 0 0 1 5.15,9.07 21.34,21.34 0 0 1 2.47,7.65 l 1.19,5.32 c 0.11,0.92 0.21,4.29 -1.78,4.75 a 4.27,4.27 0 0 1 -1.06,0.13 4.36,4.36 0 0 1 -3.6,-1.9 c -1.19,-1.84 -1,-4.46 -2.38,-7.46 -1,-2.42 -1.51,-5.93 -3.18,-8.47 L 333.5,40 c -2.33,-3.59 -4.76,-6.44 -6.2,-8.29 a 30.2,30.2 0 0 0 -5.91,-5.15 40.7,40.7 0 0 0 -7.9,-3.43 48.54,48.54 0 0 0 -6.16,-1.51 c -2.8,-0.31 -4.65,-0.75 -7.3,-0.94 a 37.27,37.27 0 0 0 -9.12,0 c -1.62,0.44 -4.17,0.61 -6.47,1.49 a 55.8,55.8 0 0 0 -7,3.44 54.14,54.14 0 0 0 -9.61,7.15 30.92,30.92 0 0 0 -6.06,8.3 c -0.85,1.85 -2.47,4.72 -3.13,6.73 -0.45,2.06 -1.3,5.89 -1.17,7.73 0.07,3.33 -0.22,4 0,6.75 0,2.45 0.82,4.15 1.15,6.16 0.29,1.38 1.63,6.18 2.44,7.29 a 26.41,26.41 0 0 0 14.38,14.08 64.71,64.71 0 0 0 7.94,2.5 57.92,57.92 0 0 0 8.72,0.79 h 0.67 a 31.84,31.84 0 0 0 9.76,-1.38 c 2.94,-1.08 6.34,-2.57 6.3,-2.57 a 40.81,40.81 0 0 0 4.09,-2.52 14.31,14.31 0 0 0 2.74,-1.88 12.66,12.66 0 0 0 2.53,-2.64 c 0.46,-0.65 1.18,-1.66 1.87,-2.57 a 43.06,43.06 0 0 0 1.94,-4.14 11.3,11.3 0 0 0 0.91,-4.77 14.54,14.54 0 0 0 -0.16,-3.61 c -0.39,-2.26 -0.25,-4.29 -0.77,-6.46 -0.69,-3 -1.29,-5.21 -2.18,-8.06 -0.86,-3.22 -3.3,-6.2 -5.15,-8.33 A 27.5,27.5 0 0 0 305,37.79 47.66,47.66 0 0 0 299.89,36.52 c -1.15,-0.11 -1.94,-0.16 -2.63,-0.16 -1.17,0 -2.06,0.13 -3.92,0.27 a 38.93,38.93 0 0 0 -4.25,1 25.47,25.47 0 0 0 -6.09,3.04 15.88,15.88 0 0 0 -3.35,2.4 33.18,33.18 0 0 0 -2.49,3.38 24.11,24.11 0 0 0 -3.16,5.61 17.48,17.48 0 0 0 -1,7.06 30.47,30.47 0 0 0 0.56,4.75 c 0.16,0.58 0.56,2.41 0.64,2.78 0.08,0.37 1,2.3 1.17,2.58 a 16,16 0 0 0 3.29,4.45 13.79,13.79 0 0 0 5.6,3.3 c 1.65,0.91 4.44,1 6,1.06 a 27.31,27.31 0 0 0 3.72,-0.41 19.8,19.8 0 0 0 4.56,-1.43 23.46,23.46 0 0 0 4.46,-2.2 19.75,19.75 0 0 0 2.63,-2.46 10.31,10.31 0 0 0 1.05,-4.79 c -0.06,-2.22 0.26,-3.48 -0.2,-5.31 a 19.07,19.07 0 0 0 -2.06,-5.26 12.67,12.67 0 0 0 -4.76,-3.63 21.29,21.29 0 0 0 -5.09,-1.25 h -0.66 a 6.28,6.28 0 0 0 -4.55,1.94 c -1,1.11 -2.91,3.43 -2.15,5.84 0.68,2.09 1.48,4.3 4.43,4.3 H 292 a 9.52,9.52 0 0 0 1.92,0.17 c 1.07,0 2.08,-0.11 2.83,-0.11 a 2.41,2.41 0 0 1 0.94,0.13 A 2.88,2.88 0 0 1 299,67 c -0.32,2.16 -2.39,2.42 -4.6,2.58 a 6.75,6.75 0 0 1 -1,0.06 c -2.31,0 -6.17,-0.81 -7.12,-1.53 a 21.68,21.68 0 0 1 -2.67,-2.2 11,11 0 0 1 -1.61,-2.49 9.06,9.06 0 0 1 -1,-2.4 12.86,12.86 0 0 1 -0.38,-3.76 c 0.09,-1 0.36,-1.43 0.63,-2.9 a 14.23,14.23 0 0 1 2.28,-4.36 18.62,18.62 0 0 1 4.88,-3.86 12.58,12.58 0 0 1 5.43,-1 c 0.39,0 0.77,0 1.15,0 a 29.75,29.75 0 0 1 5.79,0.93 21.53,21.53 0 0 1 5.47,2.51 15.87,15.87 0 0 1 4.66,4.89 26.39,26.39 0 0 1 2.49,16 9.94,9.94 0 0 1 -1.11,3.69 11.57,11.57 0 0 1 -3.48,4.3 13.19,13.19 0 0 1 -2.62,1.82 c -1.24,0.76 -2.07,1.15 -3.38,1.81 a 25.18,25.18 0 0 1 -4.2,1.63 24,24 0 0 1 -5.69,1.13 12.41,12.41 0 0 1 -2.76,0.25 27,27 0 0 1 -9.73,-1.76 23.78,23.78 0 0 1 -7.73,-5.34 29.15,29.15 0 0 1 -2.78,-4.09 35,35 0 0 1 -2.38,-7.22 29.86,29.86 0 0 1 -0.85,-4.29 32.38,32.38 0 0 1 1.46,-12.29 41.86,41.86 0 0 1 2,-4 c 1.08,-1.53 1.6,-2.49 2.52,-3.58 a 21.55,21.55 0 0 1 3.74,-4 45,45 0 0 1 10.18,-6.11 16.62,16.62 0 0 1 7.11,-1.57 c 1.05,0 2.22,0.06 3.72,0.08 a 44.9,44.9 0 0 1 6.52,0.93 36.8,36.8 0 0 1 6.12,1.54 17.41,17.41 0 0 1 4.77,2.41 31.64,31.64 0 0 1 3.93,3 c 2.65,1.94 3.92,4 5.55,6.48 a 45.71,45.71 0 0 1 2.54,5.71 c 0.14,0.57 0.58,2.22 0.86,3.18 0.35,1.52 0.53,2.88 0.94,4.59 a 76.69,76.69 0 0 1 1.23,8.23 c 0.45,2.69 -0.26,8.17 -0.68,9.85 a 28.09,28.09 0 0 1 -5.78,10.65 32.82,32.82 0 0 1 -4.53,4.29 30.33,30.33 0 0 1 -4.4,2.89 50.73,50.73 0 0 1 -8.59,4.15 54.86,54.86 0 0 1 -5.6,1.59 59.65,59.65 0 0 1 -7.31,0.45 c -1.86,0 -3.72,-0.09 -5.57,-0.26 A 73.83,73.83 0 0 1 275.57,97 c -1.49,-0.57 -4.38,-1.78 -5.59,-2.43 a 32.12,32.12 0 0 1 -3.89,-2.65 40.8,40.8 0 0 1 -8.48,-8.49 53.77,53.77 0 0 1 -3.09,-5.83 c -0.94,-2.18 -1.78,-4.4 -2.5,-6.66 -0.51,-3 -1.38,-4.84 -1.72,-7.81 A 19.5,19.5 0 0 0 250,59.9 c 0.23,-2 -0.08,-3.93 0.33,-6.14 a 32.92,32.92 0 0 0 0.92,-4.29 c 0.11,-0.71 1,-2.87 1.28,-3.84 0.76,-1.58 0.94,-2.89 1.92,-4.66 a 44.94,44.94 0 0 1 5.15,-8.71 c 0.64,-0.86 2.47,-2.93 3.09,-3.64 1.47,-1.47 2.33,-1.71 4,-3.17 a 9.12,9.12 0 0 1 2.43,-1.81 c 1.92,-1.47 3.57,-2 5.39,-3.35 3.65,-1.82 5,-2.44 8.59,-3.95 2.09,-0.75 5,-1.16 6.06,-1.56 1.82,-0.11 3.66,-0.66 5.56,-0.66 m 0,-7 v 0 a 25.11,25.11 0 0 0 -4.29,0.44 c -0.64,0.1 -1.25,0.2 -1.69,0.23 a 7.27,7.27 0 0 0 -2,0.4 c -0.25,0.07 -0.87,0.21 -1.34,0.31 a 38.42,38.42 0 0 0 -4.69,1.25 l -0.36,0.13 c -3.69,1.55 -5.12,2.21 -9,4.14 a 7.28,7.28 0 0 0 -1,0.63 15,15 0 0 1 -1.74,1 29.21,29.21 0 0 0 -3.27,2 15.76,15.76 0 0 0 -3.44,2.59 11.68,11.68 0 0 1 -1.12,0.84 21.28,21.28 0 0 0 -3,2.5 c -0.12,0.12 -0.24,0.24 -0.35,0.37 l -0.39,0.45 c -1.16,1.33 -2.25,2.59 -2.91,3.44 a 46.9,46.9 0 0 0 -5.41,8.92 l -0.44,0.87 a 22.94,22.94 0 0 0 -1.57,3.69 12,12 0 0 1 -0.47,1.23 7.56,7.56 0 0 0 -0.46,1.26 c -0.06,0.22 -0.28,0.82 -0.42,1.18 a 17.53,17.53 0 0 0 -1,3.32 6,6 0 0 0 -0.07,0.61 4.52,4.52 0 0 1 -0.23,1 c -0.16,0.59 -0.39,1.4 -0.59,2.46 a 25.74,25.74 0 0 0 -0.35,4.86 c 0,0.7 0,1.31 0,1.78 a 6.85,6.85 0 0 0 0.06,2 13.2,13.2 0 0 1 0.19,2.09 c 0,0.24 0,0.47 0,0.71 a 35.17,35.17 0 0 0 1.11,5.38 c 0.27,1 0.5,1.85 0.67,2.82 a 6.26,6.26 0 0 0 0.23,1 c 0.76,2.38 1.65,4.75 2.64,7 a 35.64,35.64 0 0 0 2.78,5.44 c 0.25,0.42 0.55,0.94 0.64,1.12 a 7.72,7.72 0 0 0 0.57,0.91 49.07,49.07 0 0 0 10,10 40.89,40.89 0 0 0 4.46,3 l 0.18,0.1 c 1.76,0.94 5.15,2.33 6.43,2.81 l 0.38,0.13 a 79.09,79.09 0 0 0 13,2.92 h 0.3 c 2.06,0.19 4.15,0.29 6.22,0.29 a 67.57,67.57 0 0 0 8.16,-0.5 q 0.35,0 0.69,-0.12 a 60.79,60.79 0 0 0 6.33,-1.8 l 0.17,-0.06 a 58,58 0 0 0 9.67,-4.47 38.29,38.29 0 0 0 5.24,-3.46 39.68,39.68 0 0 0 5.49,-5.2 35.46,35.46 0 0 0 7.22,-13.32 2,2 0 0 0 0.07,-0.23 c 0.5,-2 1.43,-8.34 0.84,-12.41 0,-0.24 0,-0.47 -0.07,-0.71 a 11.36,11.36 0 0 0 9.94,2.26 c 4.91,-1.18 7.81,-6.27 7.07,-12.4 q 0,-0.34 -0.12,-0.69 l -1.12,-5 A 28.08,28.08 0 0 0 349.38,39 91,91 0 0 0 343.87,29.3 l -0.15,-0.22 -1,-1.4 c -1,-1.38 -1.95,-2.81 -2.71,-3.75 l -0.1,-0.12 a 42.16,42.16 0 0 0 -5,-4.95 l -0.17,-0.13 A 58.1,58.1 0 0 0 320.29,11 72,72 0 0 0 310.19,8.39 c -0.22,0 -0.45,-0.07 -0.67,-0.09 A 45,45 0 0 0 302.88,7.55 C 300.43,7.3 297.94,7.18 295.47,7.17 h -0.75 z"
       fill="#ffffff"
       id="path29" />
    <path
       d="m 361.24,31.58 c 0,-2.18 -0.41,-5 -1.38,-6.2 h 25.81 c 13.45,0 33.75,7.47 33.75,32.62 0,18.69 -14.33,32.62 -33.75,32.62 -4.29,0 -20.53,-0.06 -26.3,-0.06 a 17,17 0 0 0 1.87,-7.48 z m 9.67,52.7 a 63.7,63.7 0 0 0 17.17,0.31 c 5,-0.71 21.89,-4.35 21.77,-26.74 -0.12,-21.21 -13.23,-26.06 -23.32,-26.62 a 66.45,66.45 0 0 0 -15.62,0.8 z"
       id="path31" />
    <path
       d="m 425,45.43 9.67,-1.51 v 8.52 c 2.48,-6.13 10.2,-11.06 21.16,-6.79 l -2.57,6.73 c -10,-4.77 -18.59,-0.59 -18.59,10.55 v 23 a 13.37,13.37 0 0 0 0.86,4.72 h -10 a 9,9 0 0 0 1.49,-4.72 V 52.76 c 0,-2.4 -0.5,-6.12 -2,-7.33 z"
       id="path33" />
    <path
       d="m 730.61,50 v 29.41 c 0,9.22 6.36,11.69 11.07,11.69 a 29.16,29.16 0 0 0 6.78,-0.8 l 1.21,-5.69 a 19.88,19.88 0 0 1 -6.53,1.08 4.81,4.81 0 0 1 -5.14,-4.45 5.42,5.42 0 0 1 0,-0.57 V 50.11 h 7.13 a 14.42,14.42 0 0 1 4.88,0.73 V 45.46 H 738 V 31.73 l -8.9,2.46 c 1.22,1.14 1.62,4.51 1.62,6.73 v 4.6 h -5.68 v 4.53 z"
       id="path35" />
    <path
       d="m 692.11,81.11 c 3.82,2.73 9.83,5.15 14.24,5.15 6.12,0 10.49,-3 10.49,-8.59 0,-10.3 -23.56,-8.58 -23.56,-21.74 0,-8.87 7.93,-12.2 15.45,-12.2 a 38.81,38.81 0 0 1 11.5,1.89 v 6.05 c -3.13,-2.65 -7.9,-3.28 -11.05,-3.28 -5,0 -8.76,2.49 -8.76,7.35 0,7.14 23.55,6.73 23.55,21.39 C 724,86.62 715.75,91 706.71,91 a 48.36,48.36 0 0 1 -12.82,-1.88 l -1.78,-8 z"
       id="path37" />
    <path
       d="m 549.86,50.11 v -6 l -9.79,1.52 c 1.18,1.24 2.09,5.09 2.09,7.85 v 32.13 a 10,10 0 0 1 -1.49,5 h 10.67 a 10,10 0 0 1 -1.48,-5 V 61.48 c 0,-8.82 5.46,-11.92 10.9,-11.92 4.91,0 9.36,2.14 9.36,11.92 v 24.13 a 9.89,9.89 0 0 1 -1.48,5 h 10.3 a 10,10 0 0 1 -1.47,-5 V 61.48 c 0,-9.78 6,-11.92 11,-11.92 5,0 10.06,3.09 10.06,11.92 v 24.13 a 9.91,9.91 0 0 1 -1.49,5 h 10 a 9.81,9.81 0 0 1 -1.49,-5 V 56.9 c 0,-4.89 -5,-12.73 -16.65,-12.73 -6.78,0 -10.7,3 -13.67,5.62 -2.58,-3 -6.66,-5.73 -13.27,-5.73 a 15.26,15.26 0 0 0 -12.1,6.05 z"
       id="path39" />
    <path
       d="m 526.78,65.18 c -1.4,1.32 -4.3,2.34 -7.34,2.73 -7.93,1 -14.81,2.36 -14.81,10.09 0,4.58 5,8.2 9,8.2 10.49,0 13.2,-7.58 13.2,-13.53 V 65.18 Z M 502,46.3 c 4,-1.6 10.46,-2.34 14.51,-2.34 10.3,0 17.17,5.15 17.17,17.16 V 81 c 0,3.69 0.06,7.18 1.37,9.63 h -8.31 l -0.31,-5.23 c -3.14,4.06 -6.87,5.88 -13.29,5.88 -12.59,0 -15.34,-8.59 -15.34,-12.74 0,-14.76 14.05,-14.93 20.15,-15.8 3.37,-0.48 7.73,-1.43 8.37,-4.6 C 527.4,52.92 523.66,49 516,49 a 26.82,26.82 0 0 0 -14,4 z m 178.67,18.88 c -1.39,1.32 -4.29,2.34 -7.34,2.73 -7.93,1 -14.8,2.36 -14.8,10.09 0,4.58 5,8.2 9,8.2 10.49,0 13.19,-7.58 13.19,-13.53 z M 655.91,46.3 c 4,-1.6 10.46,-2.34 14.51,-2.34 10.34,0 17.21,5.15 17.21,17.16 V 81 c 0,3.69 -0.8,7.11 1.36,9.63 h -8.31 l -0.3,-5.23 c -3.15,4.06 -6.87,5.88 -13.29,5.88 -12.59,0 -15.34,-8.59 -15.34,-12.74 0,-14.76 14,-14.93 20.14,-15.8 3.38,-0.48 7.73,-1.43 8.37,-4.6 C 681.34,52.92 677.6,49 670,49 a 26.79,26.79 0 0 0 -14,4 v -6.7 z"
       id="path41" />
    <path
       d="m 647.06,52.37 a 26.11,26.11 0 0 0 -11.47,-3.26 c -12,0 -17.58,7.41 -17.58,18.09 0,10.68 5.4,18.67 17.16,18.67 4.05,0 9.55,-1.81 13.81,-4.44 l -1.71,7.79 a 42,42 0 0 1 -12.88,1.9 c -16.56,0 -24.29,-11.75 -24.29,-24 0,-13.51 10.4,-23.05 24.5,-23.05 a 41.64,41.64 0 0 1 12.48,2 v 6.21 z"
       id="path43" />
    <path
       d="m 461.61,67.76 a 28.56,28.56 0 0 1 0.28,-3.21 h 32.05 c 0,-11 -5.51,-20.45 -18.6,-20.45 -13.55,0 -21.59,10.6 -21.59,24.11 0,12.23 8.95,23.18 24.3,23.18 4.85,0 8.9,-1.19 13.28,-2.73 l 1.54,-7.81 c -3.74,3.08 -9.79,4.9 -15.26,4.9 -9.82,0 -16.08,-7.11 -16,-17.94 z m 1.3,-8.1 c 1,-5.36 6,-10.82 11.94,-10.82 9.08,0 11.65,7.07 11.65,10.82 z"
       id="path45" />
    <path
       d="m 308.94,15.23 a 63.28,63.28 0 0 1 9.19,2.38 51.3,51.3 0 0 1 12.33,6.6 34,34 0 0 1 4.12,4.11 c 0.86,1.06 2.42,3.38 3.43,4.81 a 81.07,81.07 0 0 1 5.15,9.07 21.34,21.34 0 0 1 2.47,7.65 l 1.19,5.32 c 0.11,0.92 0.21,4.29 -1.78,4.75 a 4.35,4.35 0 0 1 -4.66,-1.77 c -1.19,-1.84 -1,-4.46 -2.38,-7.46 -1,-2.42 -1.51,-5.93 -3.18,-8.47 L 333.5,40 c -2.33,-3.59 -4.76,-6.44 -6.2,-8.29 a 30.2,30.2 0 0 0 -5.91,-5.15 40.7,40.7 0 0 0 -7.9,-3.43 48.54,48.54 0 0 0 -6.16,-1.51 c -2.8,-0.31 -4.65,-0.75 -7.3,-0.94 a 37.6,37.6 0 0 0 -9.12,0 c -1.62,0.44 -4.17,0.61 -6.47,1.49 a 55.8,55.8 0 0 0 -7,3.44 54.14,54.14 0 0 0 -9.61,7.15 30.92,30.92 0 0 0 -6.06,8.3 c -0.85,1.85 -2.47,4.72 -3.13,6.73 -0.45,2.06 -1.3,5.89 -1.17,7.73 0.07,3.33 -0.22,4 0,6.75 0,2.45 0.82,4.15 1.15,6.16 0.29,1.38 1.63,6.18 2.44,7.29 a 26.41,26.41 0 0 0 14.38,14.08 64.71,64.71 0 0 0 7.94,2.5 57.92,57.92 0 0 0 8.72,0.79 32.47,32.47 0 0 0 10.43,-1.38 c 2.94,-1.08 6.34,-2.57 6.3,-2.57 a 40.81,40.81 0 0 0 4.09,-2.52 14.31,14.31 0 0 0 2.74,-1.88 12.66,12.66 0 0 0 2.53,-2.64 c 0.46,-0.65 1.18,-1.66 1.87,-2.57 a 43.06,43.06 0 0 0 1.94,-4.14 11.3,11.3 0 0 0 0.91,-4.77 14.54,14.54 0 0 0 -0.16,-3.61 c -0.39,-2.26 -0.25,-4.29 -0.77,-6.46 -0.69,-3 -1.29,-5.21 -2.18,-8.06 -0.86,-3.22 -3.3,-6.2 -5.15,-8.33 a 27.5,27.5 0 0 0 -9.65,-6.37 47.66,47.66 0 0 0 -5.11,-1.27 27,27 0 0 0 -6.55,0.11 38.93,38.93 0 0 0 -4.25,1 25.47,25.47 0 0 0 -6.09,3.04 15.88,15.88 0 0 0 -3.35,2.4 33.18,33.18 0 0 0 -2.49,3.38 24.11,24.11 0 0 0 -3.16,5.61 17.48,17.48 0 0 0 -1,7.06 30.47,30.47 0 0 0 0.56,4.75 c 0.16,0.58 0.56,2.41 0.64,2.78 0.08,0.37 1,2.3 1.17,2.58 a 16,16 0 0 0 3.29,4.45 13.79,13.79 0 0 0 5.6,3.3 c 1.65,0.91 4.44,1 6,1.06 a 27.31,27.31 0 0 0 3.72,-0.41 19.8,19.8 0 0 0 4.56,-1.43 23.46,23.46 0 0 0 4.46,-2.2 19.75,19.75 0 0 0 2.63,-2.46 10.31,10.31 0 0 0 1.05,-4.79 c -0.06,-2.22 0.26,-3.48 -0.2,-5.31 a 19.07,19.07 0 0 0 -2.06,-5.26 12.67,12.67 0 0 0 -4.76,-3.63 21.29,21.29 0 0 0 -5.09,-1.25 6.3,6.3 0 0 0 -5.21,1.91 c -1,1.11 -2.91,3.43 -2.15,5.84 0.7,2.17 1.54,4.49 4.81,4.29 2.24,0.47 4.82,-0.2 5.69,0.19 A 2.88,2.88 0 0 1 299,67 c -0.32,2.16 -2.39,2.42 -4.6,2.58 -2,0.33 -7,-0.64 -8.08,-1.47 a 21.68,21.68 0 0 1 -2.67,-2.2 11,11 0 0 1 -1.65,-2.49 9.06,9.06 0 0 1 -1,-2.4 12.86,12.86 0 0 1 -0.38,-3.76 c 0.09,-1 0.36,-1.43 0.63,-2.9 a 14.23,14.23 0 0 1 2.28,-4.36 18.62,18.62 0 0 1 4.88,-3.86 13.9,13.9 0 0 1 6.58,-1 29.75,29.75 0 0 1 5.79,0.93 21.53,21.53 0 0 1 5.47,2.51 15.87,15.87 0 0 1 4.66,4.89 26.39,26.39 0 0 1 2.49,16 9.94,9.94 0 0 1 -1.11,3.69 11.57,11.57 0 0 1 -3.48,4.3 13.19,13.19 0 0 1 -2.62,1.82 c -1.24,0.76 -2.07,1.15 -3.38,1.81 a 25.18,25.18 0 0 1 -4.2,1.63 24,24 0 0 1 -5.69,1.13 c -2.32,0.58 -8.69,0.16 -12.49,-1.51 A 23.78,23.78 0 0 1 272.7,77 a 29.15,29.15 0 0 1 -2.78,-4.09 35,35 0 0 1 -2.38,-7.22 29.86,29.86 0 0 1 -0.85,-4.29 32.38,32.38 0 0 1 1.46,-12.29 41.86,41.86 0 0 1 2,-4 c 1.08,-1.53 1.6,-2.49 2.52,-3.58 a 21.55,21.55 0 0 1 3.74,-4 45,45 0 0 1 10.18,-6.11 c 4.82,-2 6.26,-1.56 10.83,-1.48 a 43.55,43.55 0 0 1 6.52,0.92 36.8,36.8 0 0 1 6.12,1.54 17.41,17.41 0 0 1 4.77,2.41 31.64,31.64 0 0 1 3.93,3 c 2.65,1.94 3.92,4 5.55,6.48 a 45.71,45.71 0 0 1 2.54,5.71 c 0.14,0.57 0.58,2.22 0.86,3.18 0.35,1.52 0.53,2.88 0.94,4.59 a 76.69,76.69 0 0 1 1.23,8.23 c 0.45,2.69 -0.26,8.17 -0.68,9.85 a 28.09,28.09 0 0 1 -5.78,10.65 32.82,32.82 0 0 1 -4.53,4.29 30.33,30.33 0 0 1 -4.4,2.89 50.73,50.73 0 0 1 -8.59,4.15 54.86,54.86 0 0 1 -5.6,1.59 60.28,60.28 0 0 1 -12.88,0.19 A 73.83,73.83 0 0 1 275.57,97 c -1.49,-0.57 -4.38,-1.78 -5.59,-2.43 a 32.12,32.12 0 0 1 -3.89,-2.65 40.8,40.8 0 0 1 -8.48,-8.49 53.77,53.77 0 0 1 -3.09,-5.83 c -0.94,-2.18 -1.78,-4.4 -2.5,-6.66 -0.51,-3 -1.38,-4.84 -1.72,-7.81 A 19.5,19.5 0 0 0 250,59.9 c 0.23,-2 -0.08,-3.93 0.33,-6.14 a 32.92,32.92 0 0 0 0.92,-4.29 c 0.11,-0.71 1,-2.87 1.28,-3.84 0.76,-1.58 0.94,-2.89 1.92,-4.66 a 44.94,44.94 0 0 1 5.15,-8.71 c 0.64,-0.86 2.47,-2.93 3.09,-3.64 1.47,-1.47 2.33,-1.71 4,-3.17 a 9.12,9.12 0 0 1 2.43,-1.81 c 1.92,-1.47 3.57,-2 5.39,-3.35 3.65,-1.82 5,-2.44 8.59,-3.95 2.09,-0.75 5,-1.16 6.06,-1.56 2,-0.12 4,-0.77 6.13,-0.64 a 70.38,70.38 0 0 1 7.11,0.36 38.58,38.58 0 0 1 6.52,0.79 z"
       fill="#ee5507"
       id="path47" />
  </g>
  <metadata
     id="metadata871">
    <rdf:RDF>
      <cc:Work
         rdf:about="">
        <dc:title>logo</dc:title>
      </cc:Work>
    </rdf:RDF>
  </metadata>
</svg>
