<?xml version="1.0" encoding="UTF-8" standalone="no"?>
<svg
   viewBox="0 0 390.89359 114"
   version="1.1"
   id="svg104"
   sodipodi:docname="mastersystem.svg"
   width="390.89359"
   height="114"
   inkscape:version="1.1 (c68e22c387, 2021-05-23)"
   xmlns:inkscape="http://www.inkscape.org/namespaces/inkscape"
   xmlns:sodipodi="http://sodipodi.sourceforge.net/DTD/sodipodi-0.dtd"
   xmlns="http://www.w3.org/2000/svg"
   xmlns:svg="http://www.w3.org/2000/svg"
   xmlns:rdf="http://www.w3.org/1999/02/22-rdf-syntax-ns#"
   xmlns:cc="http://creativecommons.org/ns#"
   xmlns:dc="http://purl.org/dc/elements/1.1/">
  <defs
     id="defs108" />
  <sodipodi:namedview
     id="namedview106"
     pagecolor="#ffffff"
     bordercolor="#666666"
     borderopacity="1.0"
     inkscape:pageshadow="2"
     inkscape:pageopacity="0.0"
     inkscape:pagecheckerboard="0"
     showgrid="false"
     fit-margin-top="0"
     fit-margin-left="0"
     fit-margin-right="0"
     fit-margin-bottom="0"
     inkscape:zoom="1.113"
     inkscape:cx="195.41779"
     inkscape:cy="56.603774"
     inkscape:window-width="1920"
     inkscape:window-height="1138"
     inkscape:window-x="-8"
     inkscape:window-y="-8"
     inkscape:window-maximized="1"
     inkscape:current-layer="svg104" />
  <title
     id="title2">logo</title>
  <g
     id="Layer_2"
     data-name="Layer 2"
     transform="translate(-304.55324)">
    <rect
       x="478.08606"
       y="12.83164"
       width="38.333328"
       height="19.66667"
       fill="#ffffff"
       id="rect4" />
    <rect
       x="566.08606"
       y="81.831642"
       width="25.66667"
       height="19.66667"
       fill="#ffffff"
       id="rect6" />
    <rect
       x="580.17981"
       y="79.00515"
       width="13.20362"
       height="7.0585599"
       fill="#ffffff"
       id="rect8" />
    <rect
       x="605.25745"
       y="53.831638"
       width="60.4953"
       height="49.333328"
       fill="#ffffff"
       id="rect10" />
  </g>
  <g
     id="Capa_1"
     data-name="Capa 1"
     transform="translate(-304.55324)">
    <path
       d="m 580.17947,110.49993 a 3.50068,3.50068 0 0 1 -3.35449,-4.499 l 0.45508,-1.52734 a 3.50017,3.50017 0 0 1 3.35449,-2.501 c 2.63477,0 3.59961,-0.55762 3.8916,-0.79688 0.11426,-0.0937 1.13965,-1.02539 2.36914,-5.23242 l 10.31934,-35.82715 a 20.51116,20.51116 0 0 0 0.79395,-3.64648 19.99906,19.99906 0 0 0 -3.40039,-0.43945 3.49988,3.49988 0 0 1 -3.125,-4.48731 l 0.45312,-1.52783 a 3.49956,3.49956 0 0 1 3.35547,-2.50488 h 27.335 a 3.5001,3.5001 0 0 1 3.30273,4.65869 l -0.53613,1.52783 a 3.49985,3.49985 0 0 1 -3.30273,2.34131 5.49625,5.49625 0 0 0 -3.42285,0.82861 c -0.19141,0.16113 -1.19922,1.16455 -2.33594,5.17334 l -10.24223,35.84766 a 32.95112,32.95112 0 0 0 -0.93066,3.71582 13.05428,13.05428 0 0 0 3.292,0.37012 3.50071,3.50071 0 0 1 3.30957,4.41308 l -0.41309,1.52734 a 3.50022,3.50022 0 0 1 -3.3789,2.58594 z"
       fill="#23568f"
       id="path13" />
    <path
       d="m 622.62656,51.01032 h 0.005 m -0.005,0 -0.5362,1.52758 a 8.59261,8.59261 0 0 0 -5.67743,1.65185 q -1.96188,1.6518 -3.44824,6.895 l -10.23993,35.84079 a 23.02319,23.02319 0 0 0 -1.11493,5.07843 2.67824,2.67824 0 0 0 1.15613,2.31231 q 1.48719,1.0741 5.6153,1.15614 L 607.96866,107 h -27.78888 l 0.45447,-1.52757 q 4.17087,0 6.111,-1.58974 1.94019,-1.589 3.50964,-6.95714 L 600.578,61.08478 a 19.92415,19.92415 0 0 0 0.94947,-4.996 2.82673,2.82673 0 0 0 -1.15613,-2.39471 q -1.15659,-0.86711 -5.533,-1.15614 l 0.4538,-1.52758 h 27.33441 m 0.005,-7 h -27.3394 a 7.00006,7.00006 0 0 0 -6.71021,5.00665 l -0.45377,1.52757 a 7,7 0 0 0 5.63471,8.91027 l -10.23453,35.5333 a 18.00145,18.00145 0 0 1 -1.26321,3.36079 8.88523,8.88523 0 0 1 -1.63089,0.12352 7,7 0 0 0 -6.70938,5.004 l -0.45447,1.52757 A 7,7 0 0 0 580.17978,114 h 27.78888 a 7,7 0 0 0 6.75784,-5.17471 l 0.4126,-1.52758 a 7.00007,7.00007 0 0 0 -5.60355,-8.72951 l 10.15982,-35.56042 a 16.38205,16.38205 0 0 1 1.26191,-3.38035 5.96541,5.96541 0 0 1 1.13308,-0.08952 7,7 0 0 0 6.60492,-4.68162 l 0.45883,-1.30719 a 7.00359,7.00359 0 0 0 -6.52255,-9.53877 z m -0.005,14 z"
       fill="#ffffff"
       id="path15" />
    <path
       d="m 613.08865,110.49993 a 3.49911,3.49911 0 0 1 -3.35449,-4.49707 l 0.4541,-1.52734 a 3.499,3.499 0 0 1 3.3545,-2.50293 c 2.63476,0 3.60058,-0.55762 3.89355,-0.79785 0.11328,-0.0928 1.13867,-1.02442 2.36816,-5.23145 l 10.31836,-35.82715 a 20.54012,20.54012 0 0 0 0.79493,-3.64648 20.088,20.088 0 0 0 -3.40137,-0.43945 3.499,3.499 0 0 1 -3.124,-4.48926 l 0.45411,-1.52783 a 3.49868,3.49868 0 0 1 3.35449,-2.50293 h 27.335 a 3.50017,3.50017 0 0 1 3.30176,4.66064 l -0.53711,1.52783 a 3.49976,3.49976 0 0 1 -3.30176,2.33936 5.49627,5.49627 0 0 0 -3.42285,0.82861 c -0.19043,0.16065 -1.19824,1.16358 -2.33594,5.17334 l -10.24128,35.84766 a 33.1692,33.1692 0 0 0 -0.93164,3.71582 13.05,13.05 0 0 0 3.293,0.37012 3.50071,3.50071 0 0 1 3.30957,4.41308 l -0.41309,1.52734 a 3.50022,3.50022 0 0 1 -3.3789,2.58594 z"
       fill="#23568f"
       id="path17" />
    <path
       d="m 655.5358,51.01032 h 0.005 m -0.005,0 -0.53693,1.52758 a 8.59272,8.59272 0 0 0 -5.67743,1.65185 q -1.96179,1.6518 -3.44824,6.895 l -10.23987,35.84079 a 23.06576,23.06576 0 0 0 -1.115,5.07843 2.67989,2.67989 0 0 0 1.15619,2.31231 q 1.48708,1.0741 5.616,1.15614 L 640.87723,107 H 613.089 l 0.4538,-1.52757 q 4.17077,0 6.111,-1.58974 1.9412,-1.589 3.50964,-6.95714 l 10.323,-35.84076 a 19.92476,19.92476 0 0 0 0.94952,-4.996 2.82662,2.82662 0 0 0 -1.15618,-2.39471 q -1.1565,-0.86711 -5.533,-1.15614 l 0.45453,-1.52758 h 27.33449 m 0.005,-7 H 628.20139 A 7,7 0 0 0 621.4921,49.014 l -0.45453,1.52757 a 7,7 0 0 0 5.63382,8.91325 l -10.23447,35.53331 a 17.9819,17.9819 0 0 1 -1.26266,3.36066 8.88244,8.88244 0 0 1 -1.63144,0.12363 7.00007,7.00007 0 0 0 -6.71021,5.00664 l -0.45376,1.52757 A 7,7 0 0 0 613.089,114 h 27.78821 a 7,7 0 0 0 6.757,-5.17188 l 0.4133,-1.52757 a 7.00007,7.00007 0 0 0 -5.60361,-8.73249 l 10.15991,-35.5603 a 16.384,16.384 0 0 1 1.26193,-3.38033 5.966,5.966 0 0 1 1.13306,-0.08952 7,7 0 0 0 6.60391,-4.67877 l 0.45954,-1.3074 a 7.00358,7.00358 0 0 0 -6.52152,-9.54141 z m -0.005,14 z"
       fill="#ffffff"
       id="path19" />
    <path
       d="m 645.99783,110.49993 a 3.49989,3.49989 0 0 1 -3.35547,-4.49511 l 0.45313,-1.52735 a 3.499,3.499 0 0 1 3.35547,-2.50488 c 2.63476,0 3.60058,-0.55762 3.89355,-0.79785 0.11328,-0.0928 1.13868,-1.02442 2.36914,-5.23145 L 663.032,60.11614 a 20.50217,20.50217 0 0 0 0.79395,-3.64648 20.08778,20.08778 0 0 0 -3.40137,-0.43945 3.50064,3.50064 0 0 1 -3.124,-4.49122 l 0.45508,-1.52783 a 3.50077,3.50077 0 0 1 3.35449,-2.501 h 27.334 a 3.50017,3.50017 0 0 1 3.30176,4.66064 l -0.53711,1.52783 a 3.49976,3.49976 0 0 1 -3.3018,2.33937 5.49491,5.49491 0 0 0 -3.42187,0.82861 c -0.19141,0.16113 -1.19922,1.16455 -2.33594,5.17334 L 671.907,97.88763 a 32.95112,32.95112 0 0 0 -0.93066,3.71582 13.05435,13.05435 0 0 0 3.292,0.37012 3.50071,3.50071 0 0 1 3.30957,4.41308 l -0.41308,1.52734 a 3.50024,3.50024 0 0 1 -3.37891,2.58594 z"
       fill="#23568f"
       id="path21" />
    <path
       d="m 688.44431,51.01032 h 0.005 m -0.005,0 -0.53693,1.52758 A 8.59528,8.59528 0 0 0 682.23,54.18975 q -1.96078,1.6518 -3.44751,6.895 l -10.24071,35.84079 a 23.05123,23.05123 0 0 0 -1.1142,5.07843 2.67824,2.67824 0 0 0 1.15613,2.31231 q 1.48608,1.0741 5.6153,1.15614 L 673.78568,107 h -27.78815 l 0.45379,-1.52757 q 4.17078,0 6.111,-1.58974 1.94129,-1.589 3.51037,-6.95714 L 666.395,61.08478 a 19.9245,19.9245 0 0 0 0.94946,-4.996 2.82671,2.82671 0 0 0 -1.15613,-2.39471 q -1.15548,-0.86711 -5.533,-1.15614 l 0.45452,-1.52758 h 27.33442 m 0.005,-7 H 661.10989 A 7,7 0 0 0 654.4006,49.014 l -0.45452,1.52757 a 7,7 0 0 0 5.63382,8.91325 l -10.23383,35.53343 a 17.988,17.988 0 0 1 -1.26321,3.36052 8.88237,8.88237 0 0 1 -1.63154,0.12365 7.00006,7.00006 0 0 0 -6.7102,5.00664 l -0.45377,1.52757 A 7,7 0 0 0 645.99753,114 h 27.78815 a 7,7 0 0 0 6.757,-5.17167 l 0.41333,-1.52757 a 7.00008,7.00008 0 0 0 -5.6036,-8.73271 L 685.51309,63.0079 a 16.36679,16.36679 0 0 1 1.26154,-3.38045 5.95941,5.95941 0 0 1 1.13275,-0.08955 7,7 0 0 0 6.60391,-4.67877 l 0.45954,-1.3074 a 7.00358,7.00358 0 0 0 -6.52152,-9.54141 z m -0.005,14 z"
       fill="#ffffff"
       id="path23" />
    <path
       d="m 368.29617,110.49993 a 3.5,3.5 0 0 1 -3.36523,-4.46191 l 1.22363,-4.28223 -7.71875,7.71875 a 3.502,3.502 0 0 1 -2.4751,1.02539 h -17.26953 a 3.49992,3.49992 0 0 1 -3.13037,-1.93457 L 329.92361,97.291 327.284,107.84857 a 3.49984,3.49984 0 0 1 -3.39551,2.65136 h -12.335 a 3.4995,3.4995 0 0 1 -3.38184,-4.40136 l 9.86817,-37.00586 a 3.50062,3.50062 0 0 1 3.38183,-2.59864 h 12.33545 a 3.49992,3.49992 0 0 1 3.13037,1.93457 l 12.63086,25.2627 26.1709,-26.17188 a 3.502,3.502 0 0 1 2.4751,-1.02539 h 12.335 a 3.49949,3.49949 0 0 1 3.38183,4.40137 l -9.86767,37.00586 a 3.50019,3.50019 0 0 1 -3.38184,2.59863 z"
       fill="#23568f"
       id="path25" />
    <path
       d="m 390.49942,69.99415 h 0.005 m -0.005,0 L 380.63136,107 h -12.33525 l 4.934,-17.26934 L 355.96083,107 H 338.69106 L 328.82306,87.26344 323.88853,107 h -12.33528 l 9.86847,-37.00584 h 12.33534 l 14.80246,29.605 29.60462,-29.605 h 12.33528 m 0.005,-7 h -12.34028 a 7,7 0 0 0 -4.94977,2.05027 l -22.7372,22.73751 -10.45911,-20.91828 a 7,7 0 0 0 -6.261,-3.8695 h -12.33534 a 7,7 0 0 0 -6.76363,5.1963 l -9.86848,37.00583 A 7,7 0 0 0 311.55325,114 h 12.33528 a 7,7 0 0 0 6.791,-5.30214 l 0.34478,-1.379 1.40575,2.81158 a 7.00008,7.00008 0 0 0 6.261,3.86956 h 17.26977 a 7,7 0 0 0 4.94975,-2.05025 l 1.37,-1.37 A 7.00061,7.00061 0 0 0 368.29611,114 h 12.33525 a 7,7 0 0 0 6.76364,-5.19639 l 9.80674,-36.7759 a 7.0049,7.0049 0 0 0 -6.69731,-9.03354 z m -0.005,14 z"
       fill="#ffffff"
       id="path27" />
    <path
       d="m 434.907,110.49993 a 3.49959,3.49959 0 0 1 -2.91211,-1.55859 l -3.895,-5.8418 H 405.302 a 3.49059,3.49059 0 0 1 -1.76416,-0.47754 l -5.395,6.59473 a 3.50323,3.50323 0 0 1 -2.709,1.2832 h -12.33542 a 3.49966,3.49966 0 0 1 -2.73291,-5.68652 l 29.605,-37.00586 a 3.49963,3.49963 0 0 1 2.73291,-1.31348 h 14.80225 a 3.5003,3.5003 0 0 1 3.001,1.69922 l 22.2041,37.00586 a 3.49956,3.49956 0 0 1 -3.001,5.30078 z m -16.0498,-21.80176 -1.66162,-2.76855 -2.26514,2.76855 z"
       fill="#23568f"
       id="path29" />
    <path
       d="M 427.50571,69.99414 449.7095,107 H 434.907 l -4.934,-7.40083 h -24.671 l 4.93447,-7.40123 h 14.802 L 417.63764,79.86217 395.43393,107 H 383.0986 l 29.60463,-37.00586 h 14.80248 m 0,-7 h -14.80248 a 6.99992,6.99992 0 0 0 -5.46608,2.62714 l -29.60463,37.00586 A 7,7 0 0 0 383.0986,114 h 12.33533 a 7,7 0 0 0 5.41769,-2.56733 l 3.96825,-4.85006 q 0.23969,0.0165 0.4821,0.0166 h 20.92481 l 2.85592,4.2838 A 7,7 0 0 0 434.907,114 h 14.8025 a 7,7 0 0 0 6.00243,-10.60151 l -22.2038,-37.00584 a 7,7 0 0 0 -6.00242,-3.3985 z"
       fill="#ffffff"
       id="path31" />
    <path
       d="m 501.51834,110.49993 a 3.50484,3.50484 0 0 1 -2.3418,-0.89844 L 474.50613,87.39837 a 3.49367,3.49367 0 0 1 -0.83056,-1.12207 l -5.78223,21.62793 a 3.49983,3.49983 0 0 1 -3.38135,2.5957 h -12.33545 a 3.49949,3.49949 0 0 1 -3.38183,-4.40136 l 9.86816,-37.00586 a 3.50063,3.50063 0 0 1 3.38184,-2.59864 h 59.21 c 2.76465,0 4.84668,0.84375 6.18848,2.50879 1.3291,1.64942 1.71191,3.82422 1.13769,6.46387 l -3.10547,12.63281 c -0.0225,0.09082 -0.0479,0.18164 -0.0781,0.27051 -2.125,6.376 -6.59961,7.32812 -9.07715,7.32812 h -7.80762 l 10.085,8.64454 a 3.49995,3.49995 0 0 1 -2.27734,6.15722 z M 474.83719,81.93157 a 3.49611,3.49611 0 0 1 2.01025,-0.63476 h 30.37012 l 0.10938,-0.40137 H 475.114 Z"
       fill="#23568f"
       id="path33" />
    <path
       d="m 521.25443,69.99415 q 4.93477,0 3.90637,4.7285 l -3.0838,12.54079 q -1.64466,4.93469 -5.7566,4.9345 H 499.05112 L 516.3204,107 H 501.51791 L 476.84732,84.79662 H 509.896 l 2.00439,-7.40123 H 472.42693 L 464.51205,107 h -12.33576 l 9.86856,-37.00584 h 59.20958 m 0,-7 h -59.20958 a 7,7 0 0 0 -6.76365,5.19632 l -9.86854,37.00584 A 7,7 0 0 0 452.17629,114 h 12.33576 a 7,7 0 0 0 6.7625,-5.192 l 4.2258,-15.80609 21.33482,19.2012 A 7.00006,7.00006 0 0 0 501.51791,114 h 14.80249 a 7,7 0 0 0 4.55549,-12.31482 L 517.87262,99.111 c 5.06766,-0.57833 8.97324,-4.01736 10.84525,-9.63423 q 0.0892,-0.26763 0.15664,-0.54181 l 3.08377,-12.54079 q 0.0226,-0.09174 0.0427,-0.18411 c 1.00888,-4.63966 -0.44013,-7.67428 -1.83338,-9.40305 -1.40182,-1.73939 -4.08606,-3.81284 -8.91314,-3.81284 z"
       fill="#ffffff"
       id="path35" />
    <line
       x1="521.25446"
       y1="107"
       x2="521.25433"
       y2="107"
       fill="none"
       stroke="#ffffff"
       stroke-linecap="round"
       stroke-linejoin="round"
       stroke-width="7"
       id="line37" />
    <path
       d="m 558.26053,110.49993 a 3.50193,3.50193 0 0 1 -2.11231,-0.709 l -16.36132,-12.38377 -2.81543,10.499 a 3.4999,3.4999 0 0 1 -3.38086,2.59375 h -12.33594 a 3.4995,3.4995 0 0 1 -3.38184,-4.40136 L 527.741,69.09271 a 3.49977,3.49977 0 0 1 3.38183,-2.59864 h 12.335 a 3.50074,3.50074 0 0 1 3.38184,4.40235 L 543.6844,82.71673 568.739,67.02728 a 3.49854,3.49854 0 0 1 1.85743,-0.53321 h 19.73632 a 3.4998,3.4998 0 0 1 1.7627,6.52344 l -31.17578,18.1709 19.042,12.915 a 3.50007,3.50007 0 0 1 -1.96484,6.39648 z"
       fill="#23568f"
       id="path39" />
    <path
       d="m 590.33255,69.99415 h 0.005 m -0.005,0 L 554.35434,90.96431 577.99722,107 H 558.26071 L 537.75333,91.47833 533.59012,107 h -12.33569 l 9.86846,-37.00584 h 12.33533 L 538.0101,90.399 570.596,69.99415 h 19.73657 m 0.005,-7 H 570.596 a 7,7 0 0 0 -3.71506,1.06718 l -17.52318,10.97277 0.86355,-3.23419 a 7,7 0 0 0 -6.76309,-8.80576 h -12.33533 a 7,7 0 0 0 -6.76364,5.19632 l -9.86844,37.00584 A 7,7 0 0 0 521.25443,114 h 12.33569 a 7,7 0 0 0 6.761,-5.18655 l 1.46926,-5.47783 12.21576,9.24588 A 7.00012,7.00012 0 0 0 558.26071,114 h 19.73651 a 7,7 0 0 0 3.9292,-12.79321 L 567.486,91.41265 593.72963,76.11638 a 7.00026,7.00026 0 0 0 -3.39209,-13.12223 z m -0.005,14 z"
       fill="#ffffff"
       id="path41" />
    <path
       d="m 322.00418,48.77728 a 3.49956,3.49956 0 0 1 -3.42627,-4.21387 l 1.59522,-7.65527 A 3.4997,3.4997 0 0 1 323.5994,34.122 h 51.335 l 0.17773,-0.65527 H 332.2117 c -3.231,0 -5.60059,-0.937 -7.04346,-2.78516 -0.93213,-1.19384 -1.86767,-3.31982 -1.03027,-6.668 l 3.416,-12.812 a 9.52376,9.52376 0 0 1 9.76122,-7.70166 h 61.24366 a 3.50007,3.50007 0 0 1 3.42627,4.21338 l -1.59424,7.65576 a 3.49924,3.49924 0 0 1 -3.42627,2.78662 h -51.33592 l -0.17773,0.65528 h 42.90088 c 3.45361,0 5.96093,0.96875 7.45263,2.87939 0.92969,1.19092 1.86573,3.29785 1.04639,6.57324 l -3.416,12.812 c -0.0186,0.06884 -0.0386,0.1372 -0.0615,0.20459 -1.61084,4.83447 -5.20654,7.49707 -10.125,7.49707 z"
       fill="#23568f"
       id="path43" />
    <path
       d="m 398.559,7 -1.59461,7.65553 h -54.01385 l -2.07331,7.6555 H 388.352 q 6.37975,0 5.10352,5.10352 l -3.40235,12.75908 q -1.70113,5.10356 -6.80467,5.10353 h -61.24425 l 1.59513,-7.655 h 54.01337 l 2.07379,-7.65558 h -47.47479 q -5.954,0 -4.67834,-5.10394 h 8e-5 l 3.40234,-12.75908 Q 332.212,7 337.31533,7 H 398.559 m 0,-7 h -61.24367 c -6.59749,0 -11.51117,3.8663 -13.15544,10.346 l -3.39006,12.713 q -0.014,0.05262 -0.0272,0.10547 a 11.38452,11.38452 0 0 0 0.54222,7.85056 7.00159,7.00159 0 0 0 -4.53824,5.17913 l -1.59513,7.655 a 7,7 0 0 0 6.85281,8.428 h 61.24427 c 6.44975,0 11.35045,-3.60477 13.44547,-9.89 q 0.0677,-0.203 0.12287,-0.40994 l 3.40233,-12.75908 q 0.014,-0.05262 0.0272,-0.10542 a 11.14778,11.14778 0 0 0 -0.6597,-7.96619 7.00038,7.00038 0 0 0 4.23062,-5.0636 L 405.412,8.42742 A 7,7 0 0 0 398.559,0 Z m 0,14 z"
       fill="#ffffff"
       id="path45" />
    <path
       d="m 398.55887,48.77728 c -2.81983,0 -4.91162,-0.88282 -6.21777,-2.624 -1.33106,-1.77539 -1.58594,-4.1167 -0.75684,-6.95947 l 7.41943,-27.9873 c 1.21973,-4.87989 4.78272,-7.70655 9.7627,-7.70655 h 61.24414 a 3.5002,3.5002 0 0 1 3.42627,4.21384 l -1.59473,7.65576 a 3.49969,3.49969 0 0 1 -3.42627,2.78613 h -51.33594 l -0.17773,0.65528 h 40.34912 a 3.5002,3.5002 0 0 1 3.42627,4.21386 l -1.59473,7.65577 a 3.4997,3.4997 0 0 1 -3.42627,2.78613 H 412.9866 l -0.17773,0.65527 h 49.5459 a 3.50006,3.50006 0 0 1 3.43554,4.168 l -1.48877,7.65527 a 3.50016,3.50016 0 0 1 -3.43554,2.832 z"
       fill="#23568f"
       id="path47" />
    <path
       d="m 470.01035,7 h 0.005 m -0.005,0 -1.59461,7.65553 h -54.01391 l -2.07329,7.6555 h 44.92279 l -1.59468,7.65552 h -45.34841 l -2.07333,7.65558 h 54.11992 l -1.48859,7.655 h -62.30717 q -5.10352,0 -3.615,-5.10353 h 9e-5 l 7.44292,-28.0701 Q 403.66263,7 408.76665,7 h 61.2437 m 0.005,-7 h -61.2487 c -6.59993,0 -11.51439,3.86812 -13.15679,10.35117 l -7.41255,27.95559 c -1.39366,4.87729 -0.0416,8.0988 1.344,9.94622 1.37686,1.83581 4.059,4.02418 9.01772,4.02418 h 62.30717 a 7,7 0 0 0 6.87129,-5.66382 l 1.48859,-7.655 a 7,7 0 0 0 -6.55725,-8.32915 l 1.43535,-6.89064 a 6.99619,6.99619 0 0 0 0.11638,-2.083 h 4.19514 a 7,7 0 0 0 6.85292,-5.57258 l 1.54695,-7.42669 A 7.0056,7.0056 0 0 0 470.01535,0 Z m -0.005,14 z"
       fill="#ffffff"
       id="path49" />
    <path
       d="m 470.01053,48.77728 c -2.81983,0 -4.91211,-0.88282 -6.21777,-2.62452 -1.33155,-1.7749 -1.58643,-4.11621 -0.75733,-6.959 l 7.41943,-27.9873 c 1.21973,-4.87989 4.78272,-7.70655 9.76319,-7.70655 h 63.79541 a 3.50019,3.50019 0 0 1 3.42675,4.21387 l -1.59472,7.65576 a 3.50062,3.50062 0 0 1 -3.42676,2.78613 H 488.53738 L 484.25027,34.122 H 521.076 l 0.21875,-0.65527 h -6.94629 a 3.5002,3.5002 0 0 1 -3.42676,-4.21387 l 1.59473,-7.65576 a 3.50062,3.50062 0 0 1 3.42676,-2.78613 h 22.96679 a 3.50035,3.50035 0 0 1 3.37891,4.41406 l -4.8916,18.0752 c -0.0215,0.07959 -0.0459,0.15771 -0.0732,0.23535 -2.19043,6.30078 -6.3418,7.2417 -8.6211,7.2417 z"
       fill="#23568f"
       id="path51" />
    <path
       d="m 544.01364,7 h 0.005 m -0.005,0 -1.59509,7.65553 h -56.56543 l -6.16693,22.96661 H 523.599 l 2.55157,-7.65559 h -11.80215 l 1.59515,-7.65552 h 22.96656 l -4.89142,18.07519 q -1.70115,4.89141 -5.3161,4.89094 h -58.69226 q -5.10354,0 -3.615,-5.10352 L 473.8383,12.10352 Q 475.11394,7 480.21793,7 h 63.79571 m 0.005,-7 h -63.80071 c -6.59946,0 -11.51371,3.86755 -13.15648,10.34985 l -7.41291,27.95682 c -1.39353,4.87731 -0.0414,8.099 1.34415,9.94641 1.37691,1.83578 4.05908,4.02408 9.01766,4.02408 h 58.69226 c 2.58334,0 8.9169,-0.93461 11.92767,-9.59152 q 0.0809,-0.23284 0.14539,-0.4709 l 4.89141,-18.07519 a 6.99831,6.99831 0 0 0 0.081,-3.32614 6.99637,6.99637 0 0 0 3.52334,-4.73005 l 1.5474,-7.42664 A 7.00561,7.00561 0 0 0 544.01862,0 Z m -0.005,14 z m -52.79214,7.65553 h 17.70831 l -1.4342,6.88311 a 6.99586,6.99586 0 0 0 -0.11646,2.0835 h -18.56537 z"
       fill="#ffffff"
       id="path53" />
    <path
       d="m 589.94608,48.77728 a 3.50084,3.50084 0 0 1 -2.91211,-1.5586 L 582.96951,41.122 H 559.325 a 3.5005,3.5005 0 0 1 -1.85254,-0.53027 l -5.64646,6.90185 a 3.5006,3.5006 0 0 1 -2.709,1.2837 h -12.75881 a 3.5005,3.5005 0 0 1 -2.7334,-5.68653 L 564.24686,4.81341 a 3.50205,3.50205 0 0 1 2.7334,-1.31348 h 15.31054 a 3.49865,3.49865 0 0 1 3.001,1.69922 l 22.9668,38.27734 a 3.49957,3.49957 0 0 1 -3.001,5.30079 z m -16.38868,-22.31055 -1.915,-3.19287 -2.6123,3.19287 z"
       fill="#23568f"
       id="path55" />
    <path
       d="m 582.29086,7 22.96656,38.27716 h -15.311 l -5.10358,-7.655 h -25.51816 l 5.10357,-7.65558 h 15.311 L 572.08377,17.207 549.11716,45.27716 h -12.759 L 566.98026,7 h 15.3106 m 0,-7 h -15.3106 a 7,7 0 0 0 -5.46607,2.62711 l -30.62213,38.27716 a 7,7 0 0 0 5.46606,11.37289 h 12.759 a 7,7 0 0 0 5.41769,-2.56731 L 558.719,44.596 q 0.30052,0.02607 0.60572,0.02618 h 21.77194 l 3.02548,4.53806 a 7,7 0 0 0 5.82428,3.117 h 15.311 a 7,7 0 0 0 6.00244,-10.6015 L 588.2933,3.3985 A 7,7 0 0 0 582.29086,0 Z"
       fill="#ffffff"
       id="path57" />
    <path
       d="m 594.83837,52.53787 0.45378,-1.52756 h 27.3344 l -0.53617,1.52756 a 8.59271,8.59271 0 0 0 -5.67744,1.65186 q -1.96185,1.65186 -3.44824,6.895 l -10.23991,35.8408 a 23.023,23.023 0 0 0 -1.115,5.07841 2.67818,2.67818 0 0 0 1.15616,2.31231 q 1.48712,1.07413 5.6153,1.15615 L 607.96867,107 h -27.78891 l 0.45451,-1.52757 q 4.17082,0 6.111,-1.58971 1.94019,-1.589 3.50965,-6.95716 l 10.323,-35.8408 a 19.9237,19.9237 0 0 0 0.94949,-4.996 2.82675,2.82675 0 0 0 -1.15616,-2.39469 q -1.1565,-0.86712 -5.53293,-1.15615 z"
       fill="#23568f"
       stroke="#ffffff"
       stroke-miterlimit="10"
       stroke-width="1.5"
       id="path59" />
    <path
       d="m 627.74689,52.53787 0.45451,-1.52756 h 27.33439 l -0.5369,1.52756 a 8.5927,8.5927 0 0 0 -5.67743,1.65186 q -1.96185,1.65186 -3.44824,6.895 l -10.23991,35.8408 a 23.06667,23.06667 0 0 0 -1.115,5.07841 2.6799,2.6799 0 0 0 1.15616,2.31231 q 1.48712,1.07413 5.616,1.15615 L 640.87721,107 H 613.089 l 0.45378,-1.52757 q 4.17082,0 6.111,-1.58971 1.94124,-1.589 3.50964,-6.95716 l 10.323,-35.8408 a 19.9237,19.9237 0 0 0 0.94949,-4.996 2.82675,2.82675 0 0 0 -1.15616,-2.39469 q -1.15643,-0.86716 -5.53286,-1.1562 z"
       fill="#23568f"
       stroke="#ffffff"
       stroke-miterlimit="10"
       stroke-width="1.5"
       id="path61" />
    <path
       d="m 660.65538,52.53787 0.45452,-1.52756 h 27.33439 l -0.5369,1.52756 A 8.59534,8.59534 0 0 0 682.23,54.18973 q -1.96076,1.65186 -3.4475,6.895 l -10.24064,35.8408 a 23.04983,23.04983 0 0 0 -1.11424,5.07841 2.67816,2.67816 0 0 0 1.15616,2.31231 q 1.486,1.07413 5.61529,1.15615 L 673.78571,107 h -27.78818 l 0.45378,-1.52757 q 4.17082,0 6.111,-1.58971 1.94124,-1.589 3.51038,-6.95716 l 10.3223,-35.8408 a 19.9237,19.9237 0 0 0 0.94949,-4.996 2.82675,2.82675 0 0 0 -1.15616,-2.39469 q -1.15545,-0.86716 -5.53294,-1.1562 z"
       fill="#23568f"
       stroke="#ffffff"
       stroke-miterlimit="10"
       stroke-width="1.5"
       id="path63" />
    <path
       d="m 594.83837,52.53787 0.45378,-1.52756 h 27.3344 l -0.53617,1.52756 a 8.59271,8.59271 0 0 0 -5.67744,1.65186 q -1.96185,1.65186 -3.44824,6.895 l -10.23991,35.8408 a 23.023,23.023 0 0 0 -1.115,5.07841 2.67818,2.67818 0 0 0 1.15616,2.31231 q 1.48712,1.07413 5.6153,1.15615 L 607.96867,107 h -27.78891 l 0.45451,-1.52757 q 4.17082,0 6.111,-1.58971 1.94019,-1.589 3.50965,-6.95716 l 10.323,-35.8408 a 19.9237,19.9237 0 0 0 0.94949,-4.996 2.82675,2.82675 0 0 0 -1.15616,-2.39469 q -1.1565,-0.86712 -5.53293,-1.15615 z"
       fill="#23568f"
       stroke="#ffffff"
       stroke-miterlimit="10"
       stroke-width="1.5"
       id="path65" />
    <path
       d="m 627.74689,52.53787 0.45451,-1.52756 h 27.33439 l -0.5369,1.52756 a 8.5927,8.5927 0 0 0 -5.67743,1.65186 q -1.96185,1.65186 -3.44824,6.895 l -10.23991,35.8408 a 23.06667,23.06667 0 0 0 -1.115,5.07841 2.6799,2.6799 0 0 0 1.15616,2.31231 q 1.48712,1.07413 5.616,1.15615 L 640.87721,107 H 613.089 l 0.45378,-1.52757 q 4.17082,0 6.111,-1.58971 1.94124,-1.589 3.50964,-6.95716 l 10.323,-35.8408 a 19.9237,19.9237 0 0 0 0.94949,-4.996 2.82675,2.82675 0 0 0 -1.15616,-2.39469 q -1.15643,-0.86716 -5.53286,-1.1562 z"
       fill="#23568f"
       stroke="#ffffff"
       stroke-miterlimit="10"
       stroke-width="1.5"
       id="path67" />
    <path
       d="m 660.65538,52.53787 0.45452,-1.52756 h 27.33439 l -0.5369,1.52756 A 8.59534,8.59534 0 0 0 682.23,54.18973 q -1.96076,1.65186 -3.4475,6.895 l -10.24064,35.8408 a 23.04983,23.04983 0 0 0 -1.11424,5.07841 2.67816,2.67816 0 0 0 1.15616,2.31231 q 1.486,1.07413 5.61529,1.15615 L 673.78571,107 h -27.78818 l 0.45378,-1.52757 q 4.17082,0 6.111,-1.58971 1.94124,-1.589 3.51038,-6.95716 l 10.3223,-35.8408 a 19.9237,19.9237 0 0 0 0.94949,-4.996 2.82675,2.82675 0 0 0 -1.15616,-2.39469 q -1.15545,-0.86716 -5.53294,-1.1562 z"
       fill="#23568f"
       stroke="#ffffff"
       stroke-miterlimit="10"
       stroke-width="1.5"
       id="path69" />
    <path
       d="m 311.55324,107 9.8685,-37.00586 H 333.757 l 14.80252,29.60505 29.6046,-29.60505 h 12.33529 L 380.6314,107 h -12.33529 l 4.934,-17.26931 L 355.96082,107 H 338.69106 L 328.82306,87.26345 323.88854,107 Z"
       fill="#23568f"
       stroke="#ffffff"
       stroke-miterlimit="10"
       stroke-width="1.5"
       id="path71" />
    <path
       d="m 383.09862,107 29.60459,-37.00586 h 14.80252 L 449.70951,107 H 434.907 l -4.934,-7.40081 h -24.671 l 4.93448,-7.40127 H 425.0385 L 417.63769,79.86219 395.4339,107 Z"
       fill="#23568f"
       stroke="#ffffff"
       stroke-miterlimit="10"
       stroke-width="1.5"
       id="path73" />
    <path
       d="m 462.0448,69.99413 h 59.20965 q 4.9347,0 3.90638,4.7285 L 522.077,87.26344 q -1.64468,4.9347 -5.75658,4.93447 h -17.2693 L 516.32043,107 H 501.5179 L 476.84734,84.79666 H 509.896 l 2.00445,-7.40127 H 472.42691 L 464.51205,107 h -12.33574 z"
       fill="#23568f"
       stroke="#ffffff"
       stroke-miterlimit="10"
       stroke-width="1.5"
       id="path75" />
    <path
       d="m 521.25443,107 9.86849,-37.00586 H 543.4582 L 538.01012,90.399 570.596,69.99414 h 19.73655 L 554.35432,90.9643 577.99724,107 H 558.26069 L 537.7533,91.47834 533.59011,107 Z"
       fill="#23568f"
       stroke="#ffffff"
       stroke-miterlimit="10"
       stroke-width="1.5"
       id="path77" />
    <path
       d="m 311.55324,107 9.8685,-37.00586 H 333.757 l 14.80252,29.60505 29.6046,-29.60505 h 12.33529 L 380.6314,107 h -12.33529 l 4.934,-17.26931 L 355.96082,107 H 338.69106 L 328.82306,87.26345 323.88854,107 Z"
       fill="#23568f"
       stroke="#ffffff"
       stroke-miterlimit="10"
       stroke-width="1.5"
       id="path79" />
    <path
       d="m 383.09862,107 29.60459,-37.00586 h 14.80252 L 449.70951,107 H 434.907 l -4.934,-7.40081 h -24.671 l 4.93448,-7.40127 H 425.0385 L 417.63769,79.86219 395.4339,107 Z"
       fill="#23568f"
       stroke="#ffffff"
       stroke-miterlimit="10"
       stroke-width="1.5"
       id="path81" />
    <path
       d="m 462.0448,69.99413 h 59.20965 q 4.9347,0 3.90638,4.7285 L 522.077,87.26344 q -1.64468,4.9347 -5.75658,4.93447 h -17.2693 L 516.32043,107 H 501.5179 L 476.84734,84.79666 H 509.896 l 2.00445,-7.40127 H 472.42691 L 464.51205,107 h -12.33574 z"
       fill="#23568f"
       stroke="#ffffff"
       stroke-miterlimit="10"
       stroke-width="1.5"
       id="path83" />
    <path
       d="m 521.25443,107 9.86849,-37.00586 H 543.4582 L 538.01012,90.399 570.596,69.99414 h 19.73655 L 554.35432,90.9643 577.99724,107 H 558.26069 L 537.7533,91.47834 533.59011,107 Z"
       fill="#23568f"
       stroke="#ffffff"
       stroke-miterlimit="10"
       stroke-width="1.5"
       id="path85" />
    <path
       d="M 327.53345,24.86258 330.9358,12.10352 Q 332.212,7 337.31533,7 h 61.24375 l -1.59465,7.65553 h -54.01388 l -2.07332,7.65553 H 388.352 q 6.37977,0 5.10354,5.10353 l -3.40234,12.75905 q -1.70118,5.10352 -6.80471,5.10353 h -61.24423 l 1.59512,-7.65507 h 54.0134 l 2.0738,-7.65552 h -47.47479 q -5.95411,0 -4.67835,-5.104 z"
       fill="#23568f"
       stroke="#ffffff"
       stroke-miterlimit="10"
       stroke-width="1.5"
       id="path87" />
    <path
       d="m 394.94416,40.17364 7.44293,-28.07012 Q 403.66263,7 408.76662,7 h 61.24376 l -1.59466,7.65553 h -54.01387 l -2.07333,7.65553 h 44.92279 l -1.59465,7.65553 h -45.34842 l -2.07333,7.65553 h 54.11994 l -1.4886,7.65506 h -62.30717 q -5.10352,0 -3.61494,-5.10353 z"
       fill="#23568f"
       stroke="#ffffff"
       stroke-miterlimit="10"
       stroke-width="1.5"
       id="path89" />
    <path
       d="m 466.39544,40.17364 7.44293,-28.07012 Q 475.11391,7 480.2179,7 h 63.79575 l -1.59512,7.65553 h -56.5654 l -6.16694,22.96657 h 43.91287 l 2.55152,-7.65552 h -11.80216 l 1.59513,-7.65553 h 22.96657 l -4.89142,18.07517 q -1.70116,4.89141 -5.31611,4.89094 h -58.69221 q -5.10354,0 -3.61494,-5.10352 z"
       fill="#23568f"
       stroke="#ffffff"
       stroke-miterlimit="10"
       stroke-width="1.5"
       id="path91" />
    <path
       d="M 536.35814,45.27717 566.98025,7 h 15.3106 l 22.96657,38.27718 h -15.31106 l -5.10353,-7.65507 h -25.51812 l 5.10353,-7.65552 h 15.31106 l -7.65555,-12.75953 -22.96657,28.07011 z"
       fill="#23568f"
       stroke="#ffffff"
       stroke-miterlimit="10"
       stroke-width="1.5"
       id="path93" />
    <path
       d="M 327.53345,24.86258 330.9358,12.10352 Q 332.212,7 337.31533,7 h 61.24375 l -1.59465,7.65553 h -54.01388 l -2.07332,7.65553 H 388.352 q 6.37977,0 5.10354,5.10353 l -3.40234,12.75905 q -1.70118,5.10352 -6.80471,5.10353 h -61.24423 l 1.59512,-7.65507 h 54.0134 l 2.0738,-7.65552 h -47.47479 q -5.95411,0 -4.67835,-5.104 z"
       fill="#23568f"
       stroke="#ffffff"
       stroke-miterlimit="10"
       stroke-width="1.5"
       id="path95" />
    <path
       d="m 394.94416,40.17364 7.44293,-28.07012 Q 403.66263,7 408.76662,7 h 61.24376 l -1.59466,7.65553 h -54.01387 l -2.07333,7.65553 h 44.92279 l -1.59465,7.65553 h -45.34842 l -2.07333,7.65553 h 54.11994 l -1.4886,7.65506 h -62.30717 q -5.10352,0 -3.61494,-5.10353 z"
       fill="#23568f"
       stroke="#ffffff"
       stroke-miterlimit="10"
       stroke-width="1.5"
       id="path97" />
    <path
       d="m 466.39544,40.17364 7.44293,-28.07012 Q 475.11391,7 480.2179,7 h 63.79575 l -1.59512,7.65553 h -56.5654 l -6.16694,22.96657 h 43.91287 l 2.55152,-7.65552 h -11.80216 l 1.59513,-7.65553 h 22.96657 l -4.89142,18.07517 q -1.70116,4.89141 -5.31611,4.89094 h -58.69221 q -5.10354,0 -3.61494,-5.10352 z"
       fill="#23568f"
       stroke="#ffffff"
       stroke-miterlimit="10"
       stroke-width="1.5"
       id="path99" />
    <path
       d="M 536.35814,45.27717 566.98025,7 h 15.3106 l 22.96657,38.27718 h -15.31106 l -5.10353,-7.65507 h -25.51812 l 5.10353,-7.65552 h 15.31106 l -7.65555,-12.75953 -22.96657,28.07011 z"
       fill="#23568f"
       stroke="#ffffff"
       stroke-miterlimit="10"
       stroke-width="1.5"
       id="path101" />
  </g>
  <metadata
     id="metadata925">
    <rdf:RDF>
      <cc:Work
         rdf:about="">
        <dc:title>logo</dc:title>
      </cc:Work>
    </rdf:RDF>
  </metadata>
</svg>
