<?xml version="1.0" encoding="UTF-8" standalone="no"?>
<svg
   id="svg2"
   viewBox="0 0 199.60001 114"
   version="1.1"
   sodipodi:docname="megadrive.svg"
   width="199.60001"
   height="114"
   inkscape:version="1.1 (c68e22c387, 2021-05-23)"
   xmlns:inkscape="http://www.inkscape.org/namespaces/inkscape"
   xmlns:sodipodi="http://sodipodi.sourceforge.net/DTD/sodipodi-0.dtd"
   xmlns="http://www.w3.org/2000/svg"
   xmlns:svg="http://www.w3.org/2000/svg">
  <defs
     id="defs131" />
  <sodipodi:namedview
     id="namedview129"
     pagecolor="#ffffff"
     bordercolor="#666666"
     borderopacity="1.0"
     inkscape:pageshadow="2"
     inkscape:pageopacity="0.0"
     inkscape:pagecheckerboard="0"
     showgrid="false"
     fit-margin-top="0"
     fit-margin-left="0"
     fit-margin-right="0"
     fit-margin-bottom="0"
     inkscape:zoom="1.113"
     inkscape:cx="100.17969"
     inkscape:cy="56.603774"
     inkscape:window-width="1920"
     inkscape:window-height="1138"
     inkscape:window-x="-8"
     inkscape:window-y="-8"
     inkscape:window-maximized="1"
     inkscape:current-layer="svg2" />
  <path
     d="M 83.2,96.8 A 3.54,3.54 0 0 1 79.7,93.3 V 88 a 3.54,3.54 0 0 1 3.5,-3.5 H 84 a 4.63,4.63 0 0 1 3.2,1.3 1,1 0 0 1 0.4,0.5 l 3.5,4.9 a 3.51,3.51 0 0 1 -0.8,4.9 3.77,3.77 0 0 1 -2.1,0.7 z"
     id="path2" />
  <path
     d="m 84,88.1 a 1.23,1.23 0 0 1 0.8,0.4 l 3.5,4.9 H 83.2 V 88.1 H 84 m 0,-7 h -0.8 a 7,7 0 0 0 -7,7 v 5.3 a 7,7 0 0 0 7,7 h 5.1 a 7,7 0 0 0 7,-7 A 7.39,7.39 0 0 0 94,89.3 L 90.5,84.4 C 90.2,84.1 90,83.7 89.7,83.4 A 8.27,8.27 0 0 0 84,81.1 Z"
     fill="#ffffff"
     id="path4" />
  <path
     d="m 106.8,99.7 a 3.54,3.54 0 0 1 -3.5,-3.5 v -8.6 a 3.54,3.54 0 0 1 3.5,-3.5 h 5.8 a 4.11,4.11 0 0 1 3.7,2.3 l 1.8,3.6 a 1.45,1.45 0 0 1 0.2,0.7 l 0.1,0.4 a 2.77,2.77 0 0 1 0,1.8 l -0.1,0.4 a 6.37,6.37 0 0 0 -0.2,0.7 l -1.7,3.6 c 0,0.1 -0.1,0.1 -0.1,0.2 a 4.08,4.08 0 0 1 -3.6,2.1 z"
     id="path6" />
  <path
     d="m 112.5,87.6 a 0.55,0.55 0 0 1 0.6,0.4 l 1.7,3.5 0.1,0.4 -0.1,0.4 -1.7,3.6 a 0.82,0.82 0 0 1 -0.6,0.4 h -5.7 v -8.6 h 5.7 m 0,-7.1 h -5.7 a 7,7 0 0 0 -7,7 v 8.6 a 7,7 0 0 0 7,7 h 5.8 a 7.64,7.64 0 0 0 6.7,-3.8 0.76,0.76 0 0 0 0.2,-0.4 l 1.7,-3.6 a 6.94,6.94 0 0 0 0.5,-1.3 l 0.1,-0.4 a 6.92,6.92 0 0 0 0,-3.5 l -0.1,-0.4 a 5,5 0 0 0 -0.5,-1.3 L 119.5,85 a 0.1,0.1 0 0 0 -0.1,-0.1 7.72,7.72 0 0 0 -6.9,-4.3 z"
     fill="#ffffff"
     id="path8" />
  <path
     d="M 7,110.5 A 3.54,3.54 0 0 1 3.5,107 V 7 A 3.54,3.54 0 0 1 7,3.5 h 185.6 a 3.54,3.54 0 0 1 3.5,3.5 v 0 100 a 3.54,3.54 0 0 1 -3.5,3.5 z m 107.1,-14.6 2,-4 -2,-4 h -8.7 v 7.9 h 8.7 z m -24.9,-3 -3.1,-4.3 h -4.2 v 1.8 c 0.1,0 0.2,-0.1 0.3,-0.1 a 3.57,3.57 0 0 1 3.9,1.6 l 0.6,1 z m 50.1,-18.3 a 27.47,27.47 0 0 0 23.5,-22.9 h -14.4 a 13.44,13.44 0 0 1 -9.1,8.7 z M 128.8,74.5 V 19.8 H 115.5 V 74.5 Z M 99.2,74 V 26.6 L 70.5,69.3 a 3.65,3.65 0 0 1 -4.9,1 3.39,3.39 0 0 1 -1.5,-2.9 V 26.6 L 32.2,74 Z"
     id="path10" />
  <path
     d="M 192.6,7 V 107 H 7 V 7 H 192.6 M 25.7,77.4 h 77 V 15.1 L 67.6,67.3 V 15.1 L 25.7,77.4 M 112,78 h 20.3 V 16.3 H 112 V 78 M 136.8,37.8 141,17.2 v 0 a 30.37,30.37 0 0 0 -5.2,-0.4 v 21 h 1 m 1.3,0.2 v 0 a 7.49,7.49 0 0 1 1.6,0.5 v 0 l 9.2,-18.9 v 0 a 38,38 0 0 0 -4.7,-1.8 v 0 L 138.1,38 m 3.6,1.8 14.1,-15.6 v 0 a 27.58,27.58 0 0 0 -3.9,-2.8 v 0 l -11.1,17.8 v 0 a 4.7,4.7 0 0 1 0.9,0.6 v 0 m 0.9,0.8 v 0 c 0.3,0.3 0.6,0.7 0.9,1 v 0 l 18.2,-10.7 v 0 a 28.72,28.72 0 0 0 -3.4,-4.4 v 0 l -15.7,14.1 m 1.5,1.9 v 0 a 3,3 0 0 1 0.4,0.8 v 0 l 20.6,-4.9 v 0 a 30.06,30.06 0 0 0 -2.2,-5.2 v 0 l -18.8,9.3 m 0.9,1.8 v 0 a 11.7,11.7 0 0 1 0.5,2 h 21.1 A 44.29,44.29 0 0 0 166,41.2 v 0 l -21,3.1 m 0.5,3.9 v 0 a 9.73,9.73 0 0 1 -9.7,9.1 v 21 A 30.8,30.8 0 0 0 166.6,48.2 H 145.5 M 177.1,75 v -0.1 l -1.5,-6.2 h -2.4 v 7.9 h 1.5 V 70 l 1.4,6.6 h 1.6 l 1.5,-6.6 v 6.6 h 1.5 v -7.9 h -2.4 l -1.2,6.3 m -11.2,-5 h 2.4 v 6.5 H 170 V 70 h 2.4 V 68.6 H 166 V 70 m 1.6,29.4 H 184 v -3.1 h -11.5 v -2.8 h 9.9 l 1.6,-3.1 h -11.5 l 1,-2.4 a 0.82,0.82 0 0 1 0.6,-0.4 h 9.9 v -3.1 h -13.2 a 0.91,0.91 0 0 0 -0.8,0.4 l -2.3,3.9 a 1.88,1.88 0 0 0 -0.2,0.8 l 0.1,9.8 m -11.5,-3.2 -4.9,-6.9 v -4.9 h -4.9 v 5.5 a 2.54,2.54 0 0 0 0.2,1.2 l 5.5,8.3 h 8.2 l 5.5,-8.3 a 2.54,2.54 0 0 0 0.2,-1.2 V 84.4 H 161 v 4.9 l -4.9,6.9 m -16.4,3.2 h 4.9 v -15 h -4.9 v 15 m -18.1,0 h 4.9 V 87.6 h 5.1 a 0.55,0.55 0 0 1 0.6,0.4 l 0.8,2 -1.6,1.8 a 1.42,1.42 0 0 1 -0.6,0.2 h -2.5 l 4.7,7.5 h 4.9 l -3.3,-5.5 3.2,-3.5 0.1,-0.4 -0.1,-0.4 -2.2,-4.3 a 1.59,1.59 0 0 0 -1,-0.8 h -13.2 v 14.8 m -19.5,0 h 13.8 a 1,1 0 0 0 1,-0.8 l 3.2,-6.3 0.1,-0.4 -0.1,-0.4 -3.2,-6.3 a 1.59,1.59 0 0 0 -1,-0.8 h -13.8 v 15 m -23.5,0 h 4.8 v -5.7 l 1.6,2.7 h 5.7 l 2.2,3 h 5.5 L 88.7,86.2 c -0.4,-0.8 -0.8,-1.1 -1.2,-1.1 h -9.1 v 14.3 m -18.2,0 h 15.9 a 0.74,0.74 0 0 0 0.8,-0.8 v -7.9 h -6.3 l -1.6,3 h 3.2 v 2.6 h -7.9 v -5.6 l 1,-2.3 A 0.68,0.68 0 0 1 65.9,88 H 76.2 V 85 H 62.7 a 0.91,0.91 0 0 0 -0.8,0.4 l -2.2,3.8 A 1.88,1.88 0 0 0 59.5,90 v 8.7 c -0.1,0.4 0.2,0.7 0.7,0.7 m -18.2,0 h 15.8 v -3 H 46.7 v -2.6 h 9.5 l 1.6,-3 H 46.7 l 1,-2.3 a 0.68,0.68 0 0 1 0.6,-0.4 h 9.5 v -3 H 45.1 a 0.91,0.91 0 0 0 -0.8,0.4 l -2.2,3.8 a 1.88,1.88 0 0 0 -0.2,0.8 v 9.3 M 31.6,86.8 V 85 h -5.9 c -0.4,0 -0.8,0.4 -1.2,1.1 L 16.2,99.3 H 21 L 27.7,88.4 A 1.23,1.23 0 0 1 28.5,88 h 2.4 l -7.1,11.3 h 4.8 L 35.7,88 v 11.3 h 4.8 V 85.1 h -7.1 c -0.4,0 -0.8,0.4 -1.2,1.1 l -0.6,0.6 M 145.5,48.2 v 0 M 192.6,0 H 7 A 7,7 0 0 0 0,7 v 100 a 7,7 0 0 0 7,7 h 185.6 a 7,7 0 0 0 7,-7 V 7 a 7,7 0 0 0 -7,-7 z M 119,23.3 h 6.3 V 71 H 119 Z M 38.8,70.4 60.6,38 v 29.3 a 7.22,7.22 0 0 0 0.8,3.2 h -0.6 z m 35.1,0.1 21.8,-32.4 v 32.4 z m 76.8,-15.3 h 7.6 a 24,24 0 0 1 -15.5,15.1 v -7.5 a 17.12,17.12 0 0 0 7.9,-7.6 z m -41.8,36.2 h 3.1 l 0.2,0.5 -0.2,0.5 h -3.1 z"
     fill="#ffffff"
     id="path12" />
  <path
     d="M 60.2,102.9 A 4.22,4.22 0 0 1 55.9,98.8 V 90 a 5.33,5.33 0 0 1 0.6,-2.4 l 2.2,-3.9 a 4.41,4.41 0 0 1 3.8,-2.2 H 76 a 3.54,3.54 0 0 1 3.5,3.5 v 0 3.4 a 3.49,3.49 0 0 1 0.8,2.2 v 7.9 a 4.29,4.29 0 0 1 -4.1,4.3 H 76 Z"
     fill="#ffffff"
     id="path14" />
  <path
     d="m 76,85.1 v 3 H 65.7 a 0.55,0.55 0 0 0 -0.6,0.4 l -1,2.3 v 5.6 H 72 v -2.6 h -3.2 l 1.6,-3 h 6.3 v 7.9 a 0.74,0.74 0 0 1 -0.8,0.8 H 60 A 0.74,0.74 0 0 1 59.2,98.7 V 90 a 2.35,2.35 0 0 1 0.2,-0.8 l 2.2,-3.8 A 0.91,0.91 0 0 1 62.4,85 H 76 m 0,-6.9 H 62.5 A 7.85,7.85 0 0 0 55.6,82 l -2.1,3.7 a 0.35,0.35 0 0 1 -0.1,0.2 7.92,7.92 0 0 0 -1,4 v 8.7 a 7.84,7.84 0 0 0 7.6,7.8 h 16.1 a 7.7,7.7 0 0 0 7.8,-7.6 v -8.1 a 7.22,7.22 0 0 0 -0.8,-3.2 v -2.4 a 7.11,7.11 0 0 0 -7.1,-7 z"
     fill="#ffffff"
     id="path16" />
  <path
     d="M 42,102.9 A 3.54,3.54 0 0 1 38.5,99.4 V 90 a 5,5 0 0 1 0.6,-2.4 l 2.2,-3.8 a 4.41,4.41 0 0 1 3.8,-2.2 h 12.7 a 3.54,3.54 0 0 1 3.5,3.5 v 0 3 a 2.77,2.77 0 0 1 -0.3,1.3 3.64,3.64 0 0 1 -0.1,2.9 l -0.7,1.4 a 3.73,3.73 0 0 1 1.2,2.6 v 3 a 3.54,3.54 0 0 1 -3.5,3.5 H 42 Z"
     fill="#ffffff"
     id="path18" />
  <path
     d="m 57.8,85.1 v 3 h -9.5 a 0.55,0.55 0 0 0 -0.6,0.4 l -1,2.3 h 11.1 l -1.6,3 h -9.5 v 2.6 h 11.1 v 3 H 41.9 V 90 a 2.35,2.35 0 0 1 0.2,-0.8 l 2.2,-3.8 A 0.91,0.91 0 0 1 45.1,85 h 12.7 m 0,-6.9 H 45.1 A 7.85,7.85 0 0 0 38.2,82 l -2.1,3.7 a 0.35,0.35 0 0 1 -0.1,0.2 7.92,7.92 0 0 0 -1,4 v 9.4 a 7,7 0 0 0 7,7 h 15.8 a 7,7 0 0 0 7,-7 v -3 a 6.71,6.71 0 0 0 -0.6,-2.8 7.2,7.2 0 0 0 0.5,-4.1 5.7,5.7 0 0 0 0.1,-1.3 v -3 a 7,7 0 0 0 -7,-7 z"
     fill="#ffffff"
     id="path20" />
  <path
     d="m 92.7,102.9 a 3.37,3.37 0 0 1 -2.8,-1.4 l -1.1,-1.6 h -2.1 a 3.47,3.47 0 0 1 -3.5,3 H 78.4 A 3.54,3.54 0 0 1 74.9,99.4 V 85.1 a 3.54,3.54 0 0 1 3.5,-3.5 h 9.1 a 4.68,4.68 0 0 1 4.2,2.8 l 9.4,13 a 3.51,3.51 0 0 1 -0.8,4.9 3.72,3.72 0 0 1 -2,0.7 h -5.6 z"
     fill="#ffffff"
     id="path22" />
  <path
     d="m 87.5,85.1 c 0.4,0 0.8,0.4 1.2,1.1 l 9.5,13.2 h -5.5 l -2.2,-3 h -5.7 l -1.6,-2.7 v 5.7 H 78.4 V 85.1 h 9.1 m -4.3,8.2 h 5.1 L 84.8,88.4 A 1.23,1.23 0 0 0 84,88 h -0.8 v 5.3 m 4.3,-15.2 h -9.1 a 7,7 0 0 0 -7,7 v 14.3 a 7,7 0 0 0 7,7 h 4.8 a 7.08,7.08 0 0 0 4.8,-1.9 7.08,7.08 0 0 0 4.8,1.9 h 5.5 a 7,7 0 0 0 7,-7 7.39,7.39 0 0 0 -1.3,-4.1 L 94.7,82.4 a 8.37,8.37 0 0 0 -7.2,-4.3 z"
     fill="#ffffff"
     id="path24" />
  <path
     d="m 35.6,102.9 a 3.44,3.44 0 0 1 -3.4,-2.8 l -0.7,1.2 a 3.53,3.53 0 0 1 -3,1.6 h -4.8 a 3.42,3.42 0 0 0 -2.8,0 h -4.8 a 3.54,3.54 0 0 1 -3.5,-3.5 4.14,4.14 0 0 1 0.5,-1.9 l 8.3,-13.1 c 1.3,-2.4 3,-2.9 4.2,-2.9 h 5.9 a 2.2,2.2 0 0 1 0.8,0.1 2.49,2.49 0 0 1 0.8,-0.1 h 7.1 a 3.54,3.54 0 0 1 3.5,3.5 v 0 14.3 a 3.54,3.54 0 0 1 -3.5,3.5 h -4.6 z"
     fill="#ffffff"
     id="path26" />
  <path
     d="M 40.4,85.1 V 99.4 H 35.6 V 88.1 l -7.1,11.3 h -4.8 l 7.1,-11.3 h -2.4 a 1.23,1.23 0 0 0 -0.8,0.4 l -6.7,10.9 h -4.8 l 8.3,-13.2 c 0.4,-0.8 0.8,-1.1 1.2,-1.1 h 5.9 v 1.8 l 0.4,-0.6 c 0.4,-0.8 0.8,-1.1 1.2,-1.1 l 7.3,-0.1 m 0,-7 H 25.8 a 8.11,8.11 0 0 0 -7.2,4.6 l -8.2,13 a 7.06,7.06 0 0 0 5.9,10.8 h 4.8 a 6.61,6.61 0 0 1 2.8,0 h 4.8 a 6.53,6.53 0 0 0 3.6,-1 7.49,7.49 0 0 0 3.6,1 h 4.8 a 7,7 0 0 0 7,-7 V 85.1 a 7.49,7.49 0 0 0 -7.3,-7 z"
     fill="#ffffff"
     id="path28" />
  <path
     d="m 133.1,102.9 a 3.66,3.66 0 0 1 -3,-1.6 l -0.4,-0.6 a 3.51,3.51 0 0 1 -3.3,2.2 h -4.9 A 3.54,3.54 0 0 1 118,99.4 v -15 a 3.54,3.54 0 0 1 3.5,-3.5 h 13.2 a 4.5,4.5 0 0 1 4.1,2.7 L 141,88 a 4.88,4.88 0 0 1 0.3,0.7 l 0.1,0.4 a 2.77,2.77 0 0 1 0,1.8 l -0.1,0.4 a 3.68,3.68 0 0 1 -0.8,1.5 l -1.5,1.6 2,3.3 a 3.45,3.45 0 0 1 -1.2,4.8 3.74,3.74 0 0 1 -1.8,0.5 z"
     fill="#ffffff"
     id="path30" />
  <path
     d="m 134.7,84.4 a 1,1 0 0 1 1,0.8 l 2.2,4.3 0.1,0.4 -0.1,0.4 -3.2,3.5 3.3,5.5 h -4.9 l -4.7,-7.5 h 2.5 a 1.42,1.42 0 0 0 0.6,-0.2 l 1.6,-1.8 -0.8,-2 a 0.82,0.82 0 0 0 -0.6,-0.4 h -5.1 v 11.8 h -4.9 V 84.4 h 13 m 0,-7 h -13.2 a 7,7 0 0 0 -7,7 v 14.9 a 7,7 0 0 0 7,7 h 4.9 a 7.64,7.64 0 0 0 3.3,-0.8 7.31,7.31 0 0 0 3.3,0.8 h 4.9 a 7,7 0 0 0 7,-7 6.53,6.53 0 0 0 -1,-3.6 l -0.6,-1.1 a 7.07,7.07 0 0 0 1.3,-2.6 l 0.1,-0.4 a 6.92,6.92 0 0 0 0,-3.5 l -0.1,-0.4 a 7.84,7.84 0 0 0 -0.5,-1.4 L 141.9,82 a 0.1,0.1 0 0 0 -0.1,-0.1 7.93,7.93 0 0 0 -7.1,-4.5 z"
     fill="#ffffff"
     id="path32" />
  <path
     d="m 101.9,102.9 a 3.54,3.54 0 0 1 -3.5,-3.5 v -15 a 3.54,3.54 0 0 1 3.5,-3.5 h 13.8 a 4.5,4.5 0 0 1 4.1,2.7 l 3.2,6.3 c 0.1,0.2 0.2,0.5 0.3,0.7 l 0.1,0.4 a 2.77,2.77 0 0 1 0,1.8 l -0.1,0.4 c -0.1,0.2 -0.2,0.5 -0.3,0.7 l -3.2,6.3 a 4.61,4.61 0 0 1 -4.1,2.7 z m 8.9,-10.2 0.4,-0.8 -0.4,-0.8 h -0.5 v 1.6 z"
     fill="#ffffff"
     id="path34" />
  <path
     d="m 115.6,84.4 a 1,1 0 0 1 1,0.8 l 3.2,6.3 0.1,0.4 -0.1,0.4 -3.2,6.3 a 1.59,1.59 0 0 1 -1,0.8 h -13.8 v -15 h 13.8 m -8.8,11.8 h 5.8 a 0.55,0.55 0 0 0 0.6,-0.4 l 1.7,-3.6 0.1,-0.4 -0.1,-0.4 -1.7,-3.5 a 0.82,0.82 0 0 0 -0.6,-0.4 h -5.8 v 8.7 m 8.8,-18.8 h -13.8 a 7,7 0 0 0 -7,7 v 14.9 a 7,7 0 0 0 7,7 h 13.8 a 8,8 0 0 0 7.2,-4.5 v -0.1 l 3.2,-6.3 a 5.78,5.78 0 0 0 0.5,-1.4 l 0.1,-0.4 a 6.92,6.92 0 0 0 0,-3.5 l -0.1,-0.4 A 7.84,7.84 0 0 0 126,88.3 L 122.8,82 v -0.1 a 8.2,8.2 0 0 0 -7.2,-4.5 z"
     fill="#ffffff"
     id="path36" />
  <path
     d="m 139.7,80.9 h 4.9 a 3.54,3.54 0 0 1 3.5,3.5 v 14.9 a 3.54,3.54 0 0 1 -3.5,3.5 h -4.9 a 3.54,3.54 0 0 1 -3.5,-3.5 V 84.4 a 3.48,3.48 0 0 1 3.5,-3.5 z"
     fill="#ffffff"
     id="path38" />
  <path
     d="m 144.6,84.4 v 14.9 h -4.9 V 84.4 h 4.9 m 0,-7 h -4.9 a 7,7 0 0 0 -7,7 v 14.9 a 7,7 0 0 0 7,7 h 4.9 a 7,7 0 0 0 7,-7 V 84.4 a 7,7 0 0 0 -7,-7 z"
     fill="#ffffff"
     id="path40" />
  <path
     d="m 152,102.9 a 3.5,3.5 0 0 1 -2.9,-1.5 l -5.5,-8.3 c -0.1,-0.1 -0.1,-0.2 -0.2,-0.3 A 6.71,6.71 0 0 1 142.8,90 v -5.5 a 3.54,3.54 0 0 1 3.5,-3.5 h 4.9 a 3.54,3.54 0 0 1 3.5,3.5 v 0 3.8 l 1.4,2 1.4,-2 V 84.5 A 3.54,3.54 0 0 1 161,81 h 4.9 a 3.54,3.54 0 0 1 3.5,3.5 v 0 5.5 a 6.71,6.71 0 0 1 -0.6,2.8 c -0.1,0.1 -0.1,0.2 -0.2,0.3 l -5.5,8.3 a 3.39,3.39 0 0 1 -2.9,1.5 z"
     fill="#ffffff"
     id="path42" />
  <path
     d="m 166,84.4 v 5.5 a 2.54,2.54 0 0 1 -0.2,1.2 l -5.5,8.3 h -8.2 l -5.5,-8.3 a 2.54,2.54 0 0 1 -0.2,-1.2 v -5.5 h 4.9 v 4.9 l 4.9,6.9 4.9,-6.9 v -4.9 h 4.9 m 0,-7 h -4.9 a 7,7 0 0 0 -4.9,2 7,7 0 0 0 -4.9,-2 h -4.9 a 7,7 0 0 0 -7,7 v 5.5 a 9.47,9.47 0 0 0 1,4.4 4.35,4.35 0 0 1 0.4,0.7 l 5.5,8.3 a 7.12,7.12 0 0 0 5.8,3.1 h 8.2 a 7.12,7.12 0 0 0 5.8,-3.1 l 5.5,-8.3 a 4.35,4.35 0 0 0 0.4,-0.7 9.76,9.76 0 0 0 1,-4.4 v -5.5 a 7.09,7.09 0 0 0 -7,-7 z"
     fill="#ffffff"
     id="path44" />
  <path
     d="m 167.6,102.9 a 3.54,3.54 0 0 1 -3.5,-3.5 v -9.8 a 5,5 0 0 1 0.6,-2.4 0.1,0.1 0 0 1 0.1,-0.1 l 2.2,-3.9 a 4.45,4.45 0 0 1 3.9,-2.2 h 13.2 a 3.54,3.54 0 0 1 3.5,3.5 v 0 3.1 a 3.53,3.53 0 0 1 -0.3,1.4 3.49,3.49 0 0 1 -0.1,3 l -0.8,1.6 a 3.42,3.42 0 0 1 1.2,2.7 v 3.1 a 3.54,3.54 0 0 1 -3.5,3.5 z"
     fill="#ffffff"
     id="path46" />
  <path
     d="m 184.1,84.4 v 3.1 h -9.9 a 0.55,0.55 0 0 0 -0.6,0.4 l -1,2.4 h 11.5 l -1.6,3.1 h -9.9 v 2.8 h 11.5 v 3.1 h -16.4 v -9.8 a 2.35,2.35 0 0 1 0.2,-0.8 l 2.3,-3.9 a 0.91,0.91 0 0 1 0.8,-0.4 h 13.1 m 0,-7 h -13.2 a 7.63,7.63 0 0 0 -6.9,4 l -2.2,3.9 a 0.35,0.35 0 0 1 -0.1,0.2 7.92,7.92 0 0 0 -1,4 v 9.8 a 7,7 0 0 0 7,7 h 16.4 a 7,7 0 0 0 7,-7 v -3.1 a 7.17,7.17 0 0 0 -0.6,-2.9 7.07,7.07 0 0 0 0.5,-4.3 6.6,6.6 0 0 0 0.1,-1.4 v -3.1 a 7.11,7.11 0 0 0 -7,-7.1 z"
     fill="#ffffff"
     id="path48" />
  <path
     d="M 60.7,81 H 25.6 a 3.54,3.54 0 0 1 -3.5,-3.5 3.61,3.61 0 0 1 0.6,-2 L 64.6,13.1 a 3.65,3.65 0 0 1 4.9,-1 A 3.39,3.39 0 0 1 71,15 V 55.8 L 99.8,13.2 a 3.65,3.65 0 0 1 4.9,-1 3.39,3.39 0 0 1 1.5,2.9 v 62.4 a 3.54,3.54 0 0 1 -3.5,3.5 z"
     fill="#ff0000"
     id="path50" />
  <path
     d="m 67.6,15.1 v 52.2 l 35.1,-52.2 v 62.4 h -77 L 67.6,15.1 m 0,-7 a 7.12,7.12 0 0 0 -5.8,3.1 l -42,62.3 a 7,7 0 0 0 5.8,10.9 h 77 a 7,7 0 0 0 7,-7 V 15.1 a 7,7 0 0 0 -7,-7 7.12,7.12 0 0 0 -5.8,3.1 L 74.5,44.3 V 15.1 a 6.81,6.81 0 0 0 -6.9,-7 z"
     fill="#ffffff"
     id="path52" />
  <path
     d="m 112,12.8 h 20.3 a 3.54,3.54 0 0 1 3.5,3.5 V 78 a 3.54,3.54 0 0 1 -3.5,3.5 H 112 A 3.54,3.54 0 0 1 108.5,78 V 16.3 a 3.54,3.54 0 0 1 3.5,-3.5 z"
     fill="#00aa00"
     id="path54" />
  <path
     d="M 132.3,16.3 V 78 H 112 V 16.3 h 20.3 m 0,-7 H 112 a 7,7 0 0 0 -7,7 V 78 a 7,7 0 0 0 7,7 h 20.3 a 7,7 0 0 0 7,-7 V 16.3 a 7.09,7.09 0 0 0 -7,-7 z"
     fill="#ffffff"
     id="path56" />
  <path
     d="m 136.9,41.3 h -1.1 a 3.54,3.54 0 0 1 -3.5,-3.5 v 0 -21 a 3.54,3.54 0 0 1 3.5,-3.5 v 0 a 36.79,36.79 0 0 1 5.8,0.5 3.5,3.5 0 0 1 2.9,4 v 0.1 l -4.2,20.6 a 3.61,3.61 0 0 1 -3.4,2.8 z"
     fill="#00aa00"
     id="path58" />
  <path
     d="m 135.8,16.7 a 29.61,29.61 0 0 1 5.2,0.4 v 0 l -4.2,20.7 v 0 c -0.4,0 -0.7,-0.1 -1.1,-0.1 l 0.1,-21 m 0,-7 a 7,7 0 0 0 -7,7 v 21 a 7,7 0 0 0 7,7 h 0.3 a 7,7 0 0 0 7.7,-5.6 L 148,18.5 v -0.1 a 7,7 0 0 0 -5.6,-8.2 h -0.1 a 48.65,48.65 0 0 0 -6.5,-0.5 z"
     fill="#ffffff"
     id="path60" />
  <path
     d="m 139.7,42.1 a 4,4 0 0 1 -1.5,-0.3 c -0.3,-0.1 -0.6,-0.2 -1,-0.3 a 3.53,3.53 0 0 1 -2.6,-4.2 V 37.1 L 140.7,17 a 3.55,3.55 0 0 1 4.3,-2.4 33.91,33.91 0 0 1 5.3,2 3.6,3.6 0 0 1 1.7,4.7 v 0 l -9.2,19 a 3.53,3.53 0 0 1 -3.1,1.8 z"
     fill="#00aa00"
     id="path62" />
  <path
     d="m 144.1,17.9 a 26.79,26.79 0 0 1 4.7,1.8 v 0 l -9.2,18.9 v 0 A 9.83,9.83 0 0 0 138,38.1 l 6.1,-20.2 v 0 m 0,-7 a 7,7 0 0 0 -6.7,5 l -6,20.1 a 7,7 0 0 0 4.7,8.7 c 0.1,0 0.2,0.1 0.4,0.1 0.2,0 0.3,0.1 0.4,0.1 a 7,7 0 0 0 9.2,-3.3 l 9.2,-18.9 a 7.09,7.09 0 0 0 -3.2,-9.4 H 152 a 40.65,40.65 0 0 0 -5.8,-2.2 16.46,16.46 0 0 0 -2.1,-0.2 z"
     fill="#ffffff"
     id="path64" />
  <path
     d="m 138.1,41.5 a 3.54,3.54 0 0 1 -3.5,-3.5 1.7,1.7 0 0 1 0.1,-0.7 v 0 a 3.52,3.52 0 0 1 3.4,-2.8 1.7,1.7 0 0 1 0.7,0.1 3.44,3.44 0 0 1 2.7,4.1 3.35,3.35 0 0 1 -3.4,2.8 z"
     fill="#00aa00"
     id="path66" />
  <path
     d="m 141.7,43.3 a 3.49,3.49 0 0 1 -2.2,-0.8 1.76,1.76 0 0 1 -0.5,-0.4 3.45,3.45 0 0 1 -1.2,-4.8 V 37.2 L 149,19.4 a 3.53,3.53 0 0 1 4.8,-1.1 31.93,31.93 0 0 1 4.3,3.2 3.49,3.49 0 0 1 0.4,4.9 l -0.1,0.1 -14.1,15.6 a 3.22,3.22 0 0 1 -2.6,1.2 z"
     fill="#00aa00"
     id="path68" />
  <path
     d="m 152,21.4 a 34.84,34.84 0 0 1 3.9,2.8 v 0 l -14.1,15.6 v 0 l -0.9,-0.6 v 0 L 152,21.4 v 0 m 0,-7 a 7.07,7.07 0 0 0 -4.6,1.7 v 0 a 6.1,6.1 0 0 0 -1.3,1.5 l -11.2,17.8 a 7,7 0 0 0 2.2,9.7 l 0.1,0.1 c 0.1,0 0.1,0.1 0.2,0.1 a 7,7 0 0 0 9.5,-0.8 L 161,28.9 A 7,7 0 0 0 160.5,19 l -0.1,-0.1 a 52,52 0 0 0 -4.7,-3.5 6.86,6.86 0 0 0 -3.7,-1 z"
     fill="#ffffff"
     id="path70" />
  <path
     d="m 143.5,45.1 a 3.5,3.5 0 0 1 -2.8,-1.4 l -0.6,-0.6 a 3.38,3.38 0 0 1 0,-4.9 c 0,-0.1 0.1,-0.1 0.2,-0.1 l 15.7,-14 a 3.47,3.47 0 0 1 4.9,0.2 30.53,30.53 0 0 1 3.8,4.9 3.44,3.44 0 0 1 -1.1,4.8 0.1,0.1 0 0 0 -0.1,0.1 l -18.2,10.7 a 8.42,8.42 0 0 1 -1.8,0.3 z"
     fill="#00aa00"
     id="path72" />
  <path
     d="m 158.3,26.5 a 28.72,28.72 0 0 1 3.4,4.4 v 0 l -18.2,10.7 v 0 a 9,9 0 0 0 -0.9,-1 l 15.7,-14.1 v 0 m 0,-7 a 6.92,6.92 0 0 0 -4.7,1.8 l -15.7,14 a 7,7 0 0 0 -0.5,9.9 l 0.3,0.3 0.2,0.2 a 7,7 0 0 0 9.1,1.8 L 165.2,37 a 7,7 0 0 0 2.5,-9.6 0.35,0.35 0 0 0 -0.1,-0.2 35.65,35.65 0 0 0 -4.2,-5.4 6.77,6.77 0 0 0 -5.1,-2.3 z"
     fill="#ffffff"
     id="path74" />
  <path
     d="m 144.6,46.8 a 3.68,3.68 0 0 1 -3.2,-2 c -0.1,-0.2 -0.2,-0.3 -0.3,-0.5 a 3.45,3.45 0 0 1 1.2,-4.8 c 0.1,0 0.2,-0.1 0.3,-0.1 l 18.9,-9.3 a 3.44,3.44 0 0 1 4.6,1.5 32.28,32.28 0 0 1 2.4,5.8 3.57,3.57 0 0 1 -2.3,4.4 c -0.1,0 -0.2,0 -0.2,0.1 l -20.6,4.9 z"
     fill="#00aa00"
     id="path76" />
  <path
     d="m 163,33.2 a 33.77,33.77 0 0 1 2.2,5.2 v 0 l -20.6,4.9 c -0.1,-0.3 -0.3,-0.5 -0.4,-0.8 L 163,33.2 v 0 m 0,-7 a 6.7,6.7 0 0 0 -3.1,0.7 L 141,36.2 a 7,7 0 0 0 -3.2,9.4 c 0.1,0.2 0.2,0.3 0.3,0.5 a 0.35,0.35 0 0 0 0.1,0.2 7,7 0 0 0 7.9,3.8 l 20.6,-4.9 a 7,7 0 0 0 5.2,-8.4 c 0,-0.2 -0.1,-0.3 -0.1,-0.5 a 36.12,36.12 0 0 0 -2.7,-6.4 6.7,6.7 0 0 0 -6.1,-3.7 z"
     fill="#ffffff"
     id="path78" />
  <path
     d="m 166.5,49.8 a 3.5014283,3.5014283 0 0 1 -0.2,-7 h 0.2 a 3.5003571,3.5003571 0 0 1 0.1,7 z"
     fill="#00aa00"
     id="path80" />
  <path
     d="m 166.6,46.3 v 0 m 0,0 v 0 m 0,-7 v 0 a 7,7 0 0 0 0,14 v 0 a 7,7 0 0 0 0,-14 z"
     fill="#ffffff"
     id="path82" />
  <path
     d="M 145.5,49.8 A 3.48,3.48 0 0 1 142,46.7 c -0.1,-0.4 -0.2,-0.9 -0.3,-1.3 v -0.1 0 a 3.52,3.52 0 0 1 2.3,-4.4 2.77,2.77 0 0 1 0.9,-0.1 l 20.5,-3 a 3.39,3.39 0 0 1 3.9,2.7 37,37 0 0 1 0.7,5.7 3.42,3.42 0 0 1 -3.4,3.6 z"
     fill="#00aa00"
     id="path84" />
  <path
     d="m 165.9,41.2 v 0 a 29.56,29.56 0 0 1 0.6,5.1 h -21.1 a 6.53,6.53 0 0 0 -0.5,-2 l 21,-3.1 M 145,44.3 v 0 m 20.9,-10.1 a 3.4,3.4 0 0 0 -1,0.1 l -20.5,3 a 7,7 0 0 0 -6.4,7.6 3.53,3.53 0 0 0 0.3,1.4 v 0 c 0,0.1 0.1,0.3 0.1,0.4 0,0.1 0.1,0.3 0.1,0.4 a 7,7 0 0 0 7,6.2 h 21.1 a 7,7 0 0 0 7,-7 V 46 a 31.89,31.89 0 0 0 -0.8,-6.2 7.05,7.05 0 0 0 -6.9,-5.6 z"
     fill="#ffffff"
     id="path86" />
  <line
     x1="145.50002"
     y1="48.200001"
     x2="145.50002"
     y2="48.200001"
     fill="none"
     stroke="#ffffff"
     stroke-linecap="round"
     stroke-linejoin="round"
     stroke-width="7"
     id="line88" />
  <path
     d="m 135.8,81.8 a 3.54,3.54 0 0 1 -3.5,-3.5 v 0 -21 a 3.54,3.54 0 0 1 3.5,-3.5 v 0 a 6.4,6.4 0 0 0 6.3,-5.9 3.51,3.51 0 0 1 3.5,-3.3 h 21 a 3.54,3.54 0 0 1 3.5,3.5 v 0.1 a 34.55,34.55 0 0 1 -34.3,33.6 z"
     fill="#00aa00"
     id="path90" />
  <path
     d="m 166.5,48.2 v 0 a 30.74,30.74 0 0 1 -30.8,30.1 v -21 a 9.73,9.73 0 0 0 9.7,-9.1 h 21.1 m 0,-7 h -21 a 7,7 0 0 0 -7,6.6 2.76,2.76 0 0 1 -2.8,2.6 7,7 0 0 0 -7,7 v 21 a 7,7 0 0 0 7,7 37.73,37.73 0 0 0 37.8,-37 6.9,6.9 0 0 0 -6.9,-7.1 c 0,-0.1 0,-0.1 -0.1,-0.1 z"
     fill="#ffffff"
     id="path92" />
  <path
     d="m 168.3,80 a 3.54,3.54 0 0 1 -3.5,-3.5 v 0 -3.2 A 3.55,3.55 0 0 1 162.4,70 v -1.4 a 3.54,3.54 0 0 1 3.5,-3.5 h 6.4 a 3.54,3.54 0 0 1 3.5,3.5 v 0 1.4 a 3.55,3.55 0 0 1 -2.4,3.3 v 3.2 a 3.54,3.54 0 0 1 -3.5,3.5 z"
     fill="#ffffff"
     id="path94" />
  <path
     d="M 172.3,68.6 V 70 h -2.4 v 6.5 h -1.7 V 70 h -2.4 v -1.4 h 6.5 m 0,-7 h -6.4 a 7,7 0 0 0 -7,7 V 70 a 7.29,7.29 0 0 0 2.4,5.3 v 1.2 a 7,7 0 0 0 7,7 h 1.7 a 7,7 0 0 0 7,-7 v -1.2 a 7,7 0 0 0 2.4,-5.3 v -1.4 a 7.11,7.11 0 0 0 -7.1,-7 z"
     fill="#ffffff"
     id="path96" />
  <path
     d="m 179.4,80 a 3.79,3.79 0 0 0 -1.5,0 h -1.6 a 3.79,3.79 0 0 0 -1.5,0 h -1.5 a 3.54,3.54 0 0 1 -3.5,-3.5 v 0 -7.9 a 3.54,3.54 0 0 1 3.5,-3.5 h 2.4 a 3.65,3.65 0 0 0 2.9,0 h 2.4 a 3.54,3.54 0 0 1 3.5,3.5 v 0 7.9 A 3.54,3.54 0 0 1 181,80 Z"
     fill="#ffffff"
     id="path98" />
  <path
     d="m 180.9,68.6 v 7.9 h -1.5 v -6.6 l -1.5,6.6 h -1.6 l -1.4,-6.6 v 6.6 h -1.5 v -7.9 h 2.4 l 1.5,6.2 V 75 l 1.4,-6.4 h 2.2 m 0,-7 h -2.4 a 7.08,7.08 0 0 1 -2.9,0 h -2.4 a 7,7 0 0 0 -7,7 v 7.9 a 7,7 0 0 0 7,7 h 1.5 a 3.79,3.79 0 0 1 1.5,0 h 1.6 a 3.79,3.79 0 0 1 1.5,0 h 1.5 a 7,7 0 0 0 7,-7 v -7.9 a 6.81,6.81 0 0 0 -6.9,-7 z"
     fill="#ffffff"
     id="path100" />
  <rect
     x="7.0000124"
     y="7"
     width="185.60001"
     height="100"
     id="rect102" />
  <path
     d="m 16.2,99.4 8.3,-13.2 c 0.4,-0.8 0.8,-1.1 1.2,-1.1 h 5.9 v 1.8 L 32,86.3 c 0.4,-0.8 0.8,-1.1 1.2,-1.1 h 7.1 V 99.5 H 35.5 V 88.1 l -7.1,11.3 h -4.8 l 7.1,-11.3 h -2.4 a 1.23,1.23 0 0 0 -0.8,0.4 l -6.7,10.9 z m 30.5,-5.7 v 2.6 h 11.1 v 3 H 41.9 V 90 a 2.35,2.35 0 0 1 0.2,-0.8 l 2.2,-3.8 A 0.91,0.91 0 0 1 45.1,85 h 12.7 v 3 h -9.5 a 0.55,0.55 0 0 0 -0.6,0.4 l -1,2.3 h 11.1 l -1.6,3 z m 17.5,2.7 h 7.9 v -2.6 h -3.2 l 1.6,-3 h 6.3 v 7.9 A 0.74,0.74 0 0 1 76,99.5 H 60.1 A 0.74,0.74 0 0 1 59.3,98.7 V 90 a 2.35,2.35 0 0 1 0.2,-0.8 l 2.2,-3.8 A 0.91,0.91 0 0 1 62.5,85 H 76 v 3 H 65.7 a 0.55,0.55 0 0 0 -0.6,0.4 l -1,2.3 z m 34,3 h -5.5 l -2.2,-3 h -5.7 l -1.6,-2.7 v 5.7 H 78.4 V 85.1 h 9.1 c 0.4,0 0.8,0.4 1.2,1.1 z M 88.3,93.3 84.8,88.4 A 1.23,1.23 0 0 0 84,88 h -0.8 v 5.3 z"
     fill="#ffffff"
     id="path104" />
  <path
     d="m 106.8,96.2 h 5.8 a 0.55,0.55 0 0 0 0.6,-0.4 l 1.7,-3.6 0.1,-0.4 -0.1,-0.4 -1.7,-3.5 a 0.82,0.82 0 0 0 -0.6,-0.4 h -5.8 z m -4.9,-11.8 h 13.8 a 1,1 0 0 1 1,0.8 l 3.2,6.3 0.1,0.4 -0.1,0.4 -3.2,6.3 a 1.59,1.59 0 0 1 -1,0.8 h -13.8 z m 19.7,0 h 13.2 a 1,1 0 0 1 1,0.8 l 2.2,4.3 0.1,0.4 -0.1,0.4 -3.2,3.5 3.3,5.5 h -4.9 l -4.7,-7.5 h 2.5 a 1.42,1.42 0 0 0 0.6,-0.2 l 1.6,-1.8 -0.8,-2 a 0.82,0.82 0 0 0 -0.6,-0.4 h -5.1 v 11.8 h -4.9 z m 23,15 h -4.9 v -15 h 4.9 z m 6.6,-10.1 4.9,6.9 4.9,-6.9 v -4.9 h 4.9 v 5.5 a 2.54,2.54 0 0 1 -0.2,1.2 l -5.5,8.3 H 152 l -5.5,-8.3 a 2.54,2.54 0 0 1 -0.2,-1.2 v -5.5 h 4.9 z m 21.3,4.2 v 2.8 H 184 v 3.1 h -16.4 v -9.8 a 2.35,2.35 0 0 1 0.2,-0.8 l 2.3,-3.9 a 0.91,0.91 0 0 1 0.8,-0.4 h 13.2 v 3.1 h -9.9 a 0.55,0.55 0 0 0 -0.6,0.4 l -1,2.4 h 11.5 l -1.6,3.1 z"
     fill="#ffffff"
     id="path106" />
  <polygon
     points="467.8,77.4 467.8,15.1 425.9,77.4 "
     fill="#ff0000"
     id="polygon108"
     transform="translate(-400.2)" />
  <polygon
     points="502.9,77.5 502.9,15.1 460.9,77.5 "
     fill="#ff0000"
     id="polygon110"
     transform="translate(-400.2)" />
  <rect
     x="112.00002"
     y="16.299999"
     width="20.299999"
     height="61.700001"
     fill="#00aa00"
     id="rect112" />
  <path
     d="m 141,17.2 -4.2,20.6 v 0 c -0.4,0 -0.7,-0.1 -1.1,-0.1 v -21 a 30.72,30.72 0 0 1 5.3,0.5"
     fill="#00aa00"
     id="path114" />
  <path
     d="m 138.1,38 6.1,-20.1 v 0 a 26.79,26.79 0 0 1 4.7,1.8 v 0 l -9.2,18.9 v 0 A 10.41,10.41 0 0 0 138.1,38"
     fill="#00aa00"
     id="path116" />
  <path
     d="m 141.7,39.8 14.1,-15.6 v 0 a 27.58,27.58 0 0 0 -3.9,-2.8 v 0 l -11.1,17.8 v 0 a 4.7,4.7 0 0 1 0.9,0.6"
     fill="#00aa00"
     id="path118" />
  <path
     d="m 143.5,41.6 18.2,-10.7 v 0 a 28.72,28.72 0 0 0 -3.4,-4.4 v 0 l -15.7,14 v 0 a 4.36,4.36 0 0 1 0.9,1.1"
     fill="#00aa00"
     id="path120" />
  <path
     d="m 144.6,43.3 20.6,-4.9 v 0 A 30.06,30.06 0 0 0 163,33.2 v 0 l -18.9,9.3 v 0 c 0.2,0.3 0.3,0.5 0.5,0.8"
     fill="#00aa00"
     id="path122" />
  <path
     d="m 166.6,46.3 h -21.1 a 6.53,6.53 0 0 0 -0.5,-2 v 0 l 20.9,-3.1 v 0 a 29.78,29.78 0 0 1 0.7,5.1"
     fill="#00aa00"
     id="path124" />
  <path
     d="m 145.5,48.2 a 9.73,9.73 0 0 1 -9.7,9.1 v 21 a 30.8,30.8 0 0 0 30.8,-30.1 h -21.1"
     fill="#00aa00"
     id="path126" />
</svg>
