<?xml version="1.0" encoding="UTF-8" standalone="no"?>
<svg
   viewBox="0 0 513.99207 107.41"
   version="1.1"
   id="svg134"
   sodipodi:docname="nes.svg"
   width="513.99207"
   height="107.41"
   inkscape:version="1.1 (c68e22c387, 2021-05-23)"
   xmlns:inkscape="http://www.inkscape.org/namespaces/inkscape"
   xmlns:sodipodi="http://sodipodi.sourceforge.net/DTD/sodipodi-0.dtd"
   xmlns="http://www.w3.org/2000/svg"
   xmlns:svg="http://www.w3.org/2000/svg">
  <defs
     id="defs138" />
  <sodipodi:namedview
     id="namedview136"
     pagecolor="#ffffff"
     bordercolor="#666666"
     borderopacity="1.0"
     inkscape:pageshadow="2"
     inkscape:pageopacity="0.0"
     inkscape:pagecheckerboard="0"
     showgrid="false"
     fit-margin-top="0"
     fit-margin-left="0"
     fit-margin-right="0"
     fit-margin-bottom="0"
     inkscape:zoom="1.113"
     inkscape:cx="257.4124"
     inkscape:cy="53.009883"
     inkscape:window-width="1920"
     inkscape:window-height="1138"
     inkscape:window-x="-8"
     inkscape:window-y="-8"
     inkscape:window-maximized="1"
     inkscape:current-layer="svg134" />
  <g
     id="Layer_2"
     data-name="Layer 2"
     transform="translate(-243,-3.2799997)">
    <polygon
       points="547.2,25.1 267.02,25.1 267.02,92.85 547.2,92.85 547.2,92.5 579.2,92.5 579.2,70.04 745.66,70.04 745.66,30.89 547.2,30.89 "
       fill="#ffffff"
       id="polygon2" />
  </g>
  <g
     id="Layer_1"
     data-name="Layer 1"
     transform="translate(-243,-3.2799997)">
    <path
       d="m 376.33,63.78 a 3.5,3.5 0 0 1 -3.5,-3.5 v -50 a 3.5,3.5 0 0 1 3.5,-3.5 H 386 a 3.5,3.5 0 0 1 3.5,3.5 v 37.36 h 9.07 a 3.5,3.5 0 0 1 3.5,3.5 v 9.14 a 3.5,3.5 0 0 1 -3.5,3.5 z"
       fill="#ea2c27"
       id="path5" />
    <path
       d="m 386,10.31 v 40.83 h 12.57 v 9.14 h -22.24 v -50 H 386 m 0,-7 h -9.68 a 7,7 0 0 0 -7,7 v 50 a 7,7 0 0 0 7,7 h 22.25 a 7,7 0 0 0 7,-7 v -9.14 a 7,7 0 0 0 -7,-7 H 393 V 10.31 a 7,7 0 0 0 -7,-7 z"
       fill="#ffffff"
       id="path7" />
    <path
       d="m 459.24,64.72 a 28.88,28.88 0 1 1 25.6,-42.2 3.5,3.5 0 0 1 -3.11,5.11 l -11.5,-0.08 A 3.48,3.48 0 0 1 467.92,26.66 12.43,12.43 0 1 0 468,45 3.54,3.54 0 0 1 470.34,44.08 L 481.84,44 a 3.51,3.51 0 0 1 3.1,5.12 28.84,28.84 0 0 1 -25.7,15.6 z"
       fill="#ea2c27"
       id="path9" />
    <path
       d="m 459.24,10.47 a 25.35,25.35 0 0 1 22.49,13.66 l -11.48,-0.08 a 15.93,15.93 0 1 0 0.08,23.5 l 11.48,-0.08 a 25.38,25.38 0 1 1 -22.57,-37 m 0,-7 A 32.38,32.38 0 1 0 488,50.7 7,7 0 0 0 481.79,40.47 h -0.05 l -11.48,0.08 a 7,7 0 0 0 -4.68,1.84 9.07,9.07 0 0 1 -6,2.38 8.93,8.93 0 0 1 0,-17.86 8.82,8.82 0 0 1 6,2.37 7,7 0 0 0 4.62,1.77 l 11.47,0.08 h 0.05 A 7,7 0 0 0 487.93,20.9 32.23,32.23 0 0 0 459.23,3.47 Z"
       fill="#ffffff"
       id="path11" />
    <path
       d="m 403.81,63.78 a 3.5,3.5 0 0 1 -3.5,-3.5 V 42.92 l -15.63,-31 a 3.49,3.49 0 0 1 3.12,-5.08 h 10.78 a 3.49,3.49 0 0 1 3.13,1.94 l 7,14 6.73,-14 a 3.51,3.51 0 0 1 3.16,-2 h 10.61 a 3.5,3.5 0 0 1 3.13,5.07 l -15.63,31 v 17.43 a 3.5,3.5 0 0 1 -3.5,3.5 z"
       fill="#ea2c27"
       id="path13" />
    <path
       d="m 429.18,10.31 -16,31.78 v 18.19 h -9.37 V 42.09 l -16,-31.78 h 10.78 l 10.15,20.46 9.84,-20.46 h 10.61 m 0,-7 h -10.62 a 7,7 0 0 0 -6.31,4 l -3.63,7.54 -3.78,-7.65 A 7,7 0 0 0 398.58,3.31 H 387.8 a 7,7 0 0 0 -6.25,10.15 l 15.26,30.29 v 16.53 a 7,7 0 0 0 7,7 h 9.37 a 7,7 0 0 0 7,-7 V 43.75 L 435.44,13.46 A 7,7 0 0 0 429.18,3.31 Z m 0,14 z"
       fill="#ffffff"
       id="path15" />
    <path
       d="m 297.7,63.78 a 3.5,3.5 0 0 1 -3.5,-3.5 V 56 h -12.12 l -4.19,6.26 A 3.5,3.5 0 0 1 275,63.78 h -10.63 a 3.5,3.5 0 0 1 -2.87,-5.51 l 35.06,-50 a 3.49,3.49 0 0 1 2.86,-1.49 h 7.34 a 3.5,3.5 0 0 1 3.5,3.5 v 50 a 3.5,3.5 0 0 1 -3.5,3.5 z M 294.2,39.6 v -0.4 l -0.29,0.4 z"
       fill="#ea2c27"
       id="path17" />
    <path
       d="m 306.76,10.31 v 50 H 297.7 V 52.47 H 280.22 L 275,60.28 h -10.63 l 35.05,-50 h 7.34 M 287,43.1 h 10.7 V 28.5 L 287,43.1 M 306.76,3.31 h -7.34 a 7,7 0 0 0 -5.73,3 l -35.05,50 a 7,7 0 0 0 5.73,11 H 275 a 7,7 0 0 0 5.82,-3.1 L 284,59.47 h 6.75 v 0.81 a 7,7 0 0 0 7,7 h 9.06 a 7,7 0 0 0 7,-7 v -50 a 7,7 0 0 0 -7,-7 z"
       fill="#ffffff"
       id="path19" />
    <path
       d="m 250,63.78 a 3.5,3.5 0 0 1 -3.5,-3.5 v -50 a 3.5,3.5 0 0 1 3.5,-3.5 h 26.55 a 3.5,3.5 0 0 1 3.5,3.5 v 9.32 a 3.5,3.5 0 0 1 -3.5,3.5 h -13.76 v 4.17 h 13.76 a 3.5,3.5 0 0 1 3.5,3.5 v 9.6 a 3.5,3.5 0 0 1 -3.5,3.5 h -13.76 v 16.41 a 3.5,3.5 0 0 1 -3.5,3.5 z"
       fill="#ea2c27"
       id="path21" />
    <path
       d="m 276.55,10.31 v 9.29 h -17.26 v 11.17 h 17.26 v 9.6 H 259.29 V 60.28 H 250 v -50 h 26.55 m 0,-7 H 250 a 7,7 0 0 0 -7,7 v 50 a 7,7 0 0 0 7,7 h 9.29 a 7,7 0 0 0 7,-7 V 47.37 h 10.26 a 7,7 0 0 0 7,-7 v -9.6 a 7,7 0 0 0 -2.78,-5.59 7,7 0 0 0 2.78,-5.58 v -9.29 a 7,7 0 0 0 -7,-7 z"
       fill="#ffffff"
       id="path23" />
    <path
       d="m 351.73,63.78 a 3.5,3.5 0 0 1 -3.5,-3.5 V 51.1 l -4.87,10.64 a 3.5,3.5 0 0 1 -3.18,2 h -9.45 a 3.49,3.49 0 0 1 -3.2,-2.09 l -4.39,-10 v 8.56 a 3.5,3.5 0 0 1 -3.5,3.5 h -9.37 a 3.5,3.5 0 0 1 -3.5,-3.5 v -50 a 3.5,3.5 0 0 1 3.5,-3.5 h 10.47 a 3.5,3.5 0 0 1 3.2,2.09 l 11.64,26.34 11.71,-26.25 a 3.5,3.5 0 0 1 3.19,-2.08 H 361 a 3.5,3.5 0 0 1 3.5,3.5 v 50 a 3.5,3.5 0 0 1 -3.5,3.5 z"
       fill="#ea2c27"
       id="path25" />
    <path
       d="m 361,10.31 v 50 h -9.29 V 35.06 l -11.53,25.22 h -9.45 L 319.64,35.06 v 25.22 h -9.37 v -50 h 10.47 l 14.83,33.57 14.91,-33.57 H 361 m 0,-7 h -10.52 a 7,7 0 0 0 -6.39,4.16 l -8.5,19.13 -8.45,-19.09 a 7,7 0 0 0 -6.4,-4.17 h -10.47 a 7,7 0 0 0 -7,7 v 50 a 7,7 0 0 0 7,7 h 9.37 a 7,7 0 0 0 5.55,-2.73 7,7 0 0 0 5.54,2.73 h 9.45 a 7,7 0 0 0 5.78,-3 7,7 0 0 0 5.77,3 H 361 a 7,7 0 0 0 7,-7 v -50 a 7,7 0 0 0 -7,-7 z"
       fill="#ffffff"
       id="path27" />
    <rect
       x="360.48999"
       y="6.8099999"
       width="16.68"
       height="56.970001"
       rx="3.5"
       fill="#ea2c27"
       id="rect29" />
    <path
       d="m 373.67,10.31 v 50 H 364 v -50 h 9.68 m 0,-7 H 364 a 7,7 0 0 0 -7,7 v 50 a 7,7 0 0 0 7,7 h 9.68 a 7,7 0 0 0 7,-7 v -50 a 7,7 0 0 0 -7,-7 z"
       fill="#ffffff"
       id="path31" />
    <path
       d="m 576.51,63.78 a 3.5,3.5 0 0 1 -3.5,-3.5 V 51.2 l -4.79,10.53 A 3.49,3.49 0 0 1 565,63.78 h -9.45 a 3.51,3.51 0 0 1 -3.2,-2.08 l -4.46,-10.09 v 8.67 a 3.5,3.5 0 0 1 -3.5,3.5 h -9.3 a 3.5,3.5 0 0 1 -3.5,-3.5 v -50 a 3.5,3.5 0 0 1 3.5,-3.5 h 10.51 a 3.5,3.5 0 0 1 3.2,2.09 l 11.57,26.32 11.7,-26.33 a 3.5,3.5 0 0 1 3.2,-2.08 h 10.61 a 3.5,3.5 0 0 1 3.5,3.5 v 50 a 3.5,3.5 0 0 1 -3.5,3.5 z"
       fill="#ea2c27"
       id="path33" />
    <path
       d="m 585.88,10.31 v 50 h -9.37 V 35.06 L 565,60.28 h -9.45 L 544.43,35.06 v 25.22 h -9.3 v -50 h 10.47 l 14.75,33.57 14.92,-33.57 h 10.61 m 0,-7 h -10.61 a 7,7 0 0 0 -6.4,4.16 L 560.39,26.53 552,7.49 a 7,7 0 0 0 -6.4,-4.18 h -10.47 a 7,7 0 0 0 -7,7 v 50 a 7,7 0 0 0 7,7 h 9.3 a 7,7 0 0 0 5.57,-2.81 7,7 0 0 0 5.58,2.78 H 565 a 7,7 0 0 0 5.74,-3 7,7 0 0 0 5.73,3 h 9.37 a 7,7 0 0 0 7,-7 v -50 a 7,7 0 0 0 -7,-7 z"
       fill="#ffffff"
       id="path35" />
    <path
       d="m 739.77,64.48 a 3.47,3.47 0 0 1 -3,-1.74 L 727.36,46.57 V 60.9 a 3.49,3.49 0 0 1 -3.5,3.5 h -9.29 a 3.5,3.5 0 0 1 -3.5,-3.5 V 10.78 a 3.5,3.5 0 0 1 3.5,-3.5 h 20.52 A 19.82,19.82 0 0 1 753.36,27.17 20,20 0 0 1 744.05,44 l 8.89,15.22 a 3.49,3.49 0 0 1 -3,5.26 z m -5.39,-34.09 a 3.41,3.41 0 0 0 0,-6.59 h -7 v 6.59 z"
       fill="#ea2c27"
       id="path37" />
    <path
       d="m 734.78,10.78 a 16.44,16.44 0 0 1 4.37,31.78 L 749.92,61 H 739.77 L 724.7,35.06 h -0.86 V 60.9 h -9.29 V 10.78 h 20.23 m -10.94,23.11 h 10.94 a 6.92,6.92 0 0 0 0,-13.59 H 723.84 V 33.89 M 734.78,3.78 h -20.23 a 7,7 0 0 0 -7,7 V 60.9 a 7,7 0 0 0 7,7 h 9.29 a 7,7 0 0 0 7,-7 v -1.35 l 2.88,5 a 7,7 0 0 0 6,3.48 h 10.15 a 7,7 0 0 0 6,-10.53 L 748.56,44.98 A 23.42,23.42 0 0 0 735.36,3.8 h -0.58 z"
       fill="#ffffff"
       id="path39" />
    <path
       d="m 686.13,64.4 a 3.5,3.5 0 0 1 -3.5,-3.5 V 10.78 a 3.5,3.5 0 0 1 3.5,-3.5 h 26 a 3.5,3.5 0 0 1 3.5,3.5 v 9.13 a 3.49,3.49 0 0 1 -3.5,3.5 h -13.21 v 4.95 h 13.21 a 3.5,3.5 0 0 1 3.5,3.5 v 9.37 a 3.5,3.5 0 0 1 -3.5,3.5 h -13.21 v 3.46 h 13.21 a 3.5,3.5 0 0 1 3.5,3.5 v 9.21 a 3.49,3.49 0 0 1 -3.5,3.5 z"
       fill="#ea2c27"
       id="path41" />
    <path
       d="m 712.13,10.78 v 9.13 h -16.71 v 12 h 16.71 v 9.37 h -16.71 v 10.41 h 16.71 v 9.21 h -26 V 10.78 h 26 m 0,-7 h -26 a 7,7 0 0 0 -7,7 V 60.9 a 7,7 0 0 0 7,7 h 26 a 7,7 0 0 0 7,-7 v -9.21 a 7,7 0 0 0 -2.35,-5.23 7,7 0 0 0 2.35,-5.23 v -9.37 a 7,7 0 0 0 -3.34,-6 7,7 0 0 0 3.34,-6 v -9.08 a 7,7 0 0 0 -7,-7 z"
       fill="#ffffff"
       id="path43" />
    <path
       d="M 639.91,65.11 A 19.82,19.82 0 0 1 620,46.83 2.81,2.81 0 0 1 620,46.54 V 10.78 a 3.5,3.5 0 0 1 3.5,-3.5 h 9.6 a 3.5,3.5 0 0 1 3.5,3.5 v 35.36 a 3.41,3.41 0 0 0 6.59,0 V 10.78 a 3.5,3.5 0 0 1 3.5,-3.5 h 9.6 a 3.5,3.5 0 0 1 3.5,3.5 v 35.76 c 0,0.1 0,0.19 0,0.29 a 19.83,19.83 0 0 1 -19.88,18.28 z"
       fill="#ea2c27"
       id="path45" />
    <path
       d="m 656.31,10.78 v 35.76 a 16.45,16.45 0 0 1 -32.79,0 V 10.78 h 9.6 v 28.42 0 7.34 a 6.92,6.92 0 0 0 13.59,0 V 10.78 h 9.6 m 0,-7 h -9.6 a 7,7 0 0 0 -6.8,5.3 6.88,6.88 0 0 0 -1.84,-3.25 7,7 0 0 0 -5,-2.05 h -9.6 a 7,7 0 0 0 -7,7 v 35.76 a 5.62,5.62 0 0 0 0,0.58 23.45,23.45 0 0 0 46.74,0 5.63,5.63 0 0 0 0,-0.58 V 10.78 a 7,7 0 0 0 -7,-7 z"
       fill="#ffffff"
       id="path47" />
    <path
       d="m 506.87,64.87 a 29,29 0 1 1 29,-29 29.06,29.06 0 0 1 -29,29 z m 0,-41.69 a 12.66,12.66 0 1 0 12.66,12.66 12.68,12.68 0 0 0 -12.66,-12.66 z"
       fill="#ea2c27"
       id="path49" />
    <path
       d="m 506.87,10.31 a 25.53,25.53 0 0 1 0,51.06 v 0 a 25.53,25.53 0 0 1 0,-51.06 m 0,41.69 A 16.16,16.16 0 1 0 490.71,35.84 16.14,16.14 0 0 0 506.87,52 m 0,-48.69 A 32.53,32.53 0 1 0 539.4,35.88 32.56,32.56 0 0 0 506.87,3.31 Z m 0,41.69 A 9.16,9.16 0 1 1 516,35.84 9.17,9.17 0 0 1 506.87,45 Z"
       fill="#ffffff"
       id="path51" />
    <path
       d="m 589.08,63.78 a 3.5,3.5 0 0 1 -3.5,-3.5 v -50 a 3.5,3.5 0 0 1 3.5,-3.5 h 17 a 20,20 0 0 1 0,39.77 H 602 v 13.73 a 3.5,3.5 0 0 1 -3.5,3.5 z M 605.4,30 a 3.42,3.42 0 0 0 0,-6.59 H 602 V 30 Z"
       fill="#ea2c27"
       id="path53" />
    <path
       d="m 605.79,10.31 a 16.45,16.45 0 0 1 0,32.79 h -7.34 v 17.18 h -9.37 v -50 h 16.71 m -7.34,23.22 h 7.34 a 6.92,6.92 0 0 0 0,-13.59 h -7.34 V 33.5 m 7.34,-30.19 h -16.71 a 7,7 0 0 0 -7,7 v 50 a 7,7 0 0 0 7,7 h 9.37 a 7,7 0 0 0 7,-7 V 50.1 h 0.34 0.58 A 23.3,23.3 0 0 0 627.86,26.73 23.31,23.31 0 0 0 606.37,3.33 h -0.58 z"
       fill="#ffffff"
       id="path55" />
    <path
       d="m 665.83,64.4 a 3.5,3.5 0 0 1 -3.5,-3.5 V 23.73 h -4.69 a 3.5,3.5 0 0 1 -3.5,-3.5 v -9.45 a 3.5,3.5 0 0 1 3.5,-3.5 h 26.15 a 3.5,3.5 0 0 1 3.5,3.5 v 9.45 a 3.5,3.5 0 0 1 -3.5,3.5 h -5 V 60.9 a 3.5,3.5 0 0 1 -3.5,3.5 z"
       fill="#ea2c27"
       id="path57" />
    <path
       d="m 683.79,10.78 v 9.45 h -8.51 V 60.9 h -9.45 V 20.23 h -8.19 v -9.45 h 26.15 m 0,-7 h -26.15 a 7,7 0 0 0 -7,7 v 9.45 a 7,7 0 0 0 7,7 h 1.19 V 60.9 a 7,7 0 0 0 7,7 h 9.45 a 7,7 0 0 0 7,-7 V 27.23 h 1.51 a 7,7 0 0 0 7,-7 v -9.45 a 7,7 0 0 0 -7,-7 z"
       fill="#ffffff"
       id="path59" />
    <path
       d="M 359.94,107.12 H 345 a 3.46,3.46 0 0 1 -2.49,-1 3.51,3.51 0 0 1 -1,-2.51 l 0.08,-5.7 a 3.5,3.5 0 0 1 3.41,-3.5 h 3 4 4 c 1,0 1.92,0 2.87,0 0.49,0 1.52,-0.72 2.58,-2.24 l 0.19,-0.26 c 0.54,-0.63 0.77,-1.45 0.9,-3.23 0,-1.46 0,-2.91 0,-4.35 0,-1.44 0,-3.07 0,-4.62 a 3.5,3.5 0 0 1 3.5,-3.41 h 4.37 a 3.5,3.5 0 0 1 3.5,3.5 V 92 a 16.08,16.08 0 0 1 -9.4,14.28 4.93,4.93 0 0 1 -0.54,0.19 16,16 0 0 1 -4.03,0.65 z"
       fill="#ea2c27"
       id="path61" />
    <path
       d="M 370.55,79.8 V 92 a 11.38,11.38 0 0 1 -3.2,8 10.79,10.79 0 0 1 -4.14,3 12.88,12.88 0 0 1 -3.27,0.56 H 345 l 0.08,-5.7 v 0 h 2.9 c 2.66,0 5.37,0 8.06,0 1,0 2,0 2.93,0 2.27,-0.08 4.14,-2 5.39,-3.75 1.25,-1.48 1.56,-3.2 1.72,-5.3 0.08,-3 0,-6 0.08,-9.06 h 4.37 m 0,-7 h -4.37 a 7,7 0 0 0 -7,6.82 c 0,1.61 0,3.18 0,4.71 0,1.53 0,2.8 0,4.17 a 11.16,11.16 0 0 1 -0.17,1.27 3.79,3.79 0 0 0 -0.3,0.4 6.81,6.81 0 0 1 -0.62,0.75 h -2 -4 -4.06 -3 a 7,7 0 0 0 -6.88,6.91 l -0.08,5.7 a 7,7 0 0 0 7,7.09 h 14.92 a 19.47,19.47 0 0 0 5.07,-0.79 7.53,7.53 0 0 0 1.07,-0.38 A 19.54,19.54 0 0 0 377.55,92 V 79.8 a 7,7 0 0 0 -7,-7 z"
       fill="#ffffff"
       id="path63" />
    <rect
       x="368.92001"
       y="85.43"
       width="36.200001"
       height="13.01"
       rx="3.5"
       fill="#ea2c27"
       id="rect65" />
    <path
       d="m 401.62,88.93 v 6 h -29.2 v -6 h 29.2 m 0,-7 h -29.2 a 7,7 0 0 0 -7,7 v 6 a 7,7 0 0 0 7,7 h 29.2 a 7,7 0 0 0 7,-7 v -6 a 7,7 0 0 0 -7,-7 z"
       fill="#ffffff"
       id="path67" />
    <path
       d="m 412.55,107.11 a 3.5,3.5 0 0 1 -3.5,-3.5 v -5.78 a 3.5,3.5 0 0 1 3.5,-3.5 h 21.88 v -4.16 h -21 a 3.5,3.5 0 0 1 -3.5,-3.5 V 79.8 a 3.5,3.5 0 0 1 3.5,-3.5 H 443 a 3.5,3.5 0 0 1 3.5,3.5 v 23.81 a 3.5,3.5 0 0 1 -3.5,3.5 z"
       fill="#ea2c27"
       id="path69" />
    <path
       d="m 443,79.8 v 23.81 h -30.45 v -5.78 h 25.38 V 86.67 H 413.41 V 79.8 H 443 m 0,-7 h -29.59 a 7,7 0 0 0 -7,7 v 6.87 a 7,7 0 0 0 2.38,5.26 7,7 0 0 0 -3.24,5.9 v 5.78 a 7,7 0 0 0 7,7 H 443 a 7,7 0 0 0 7,-7 V 79.8 a 7,7 0 0 0 -7,-7 z"
       fill="#ffffff"
       id="path71" />
    <path
       d="m 464.79,107.12 h -20 a 3.5,3.5 0 0 1 -3.5,-3.55 l 0.08,-5.7 a 3.5,3.5 0 0 1 3.44,-3.45 h 3.55 6 6 c 1.31,0 2.49,0 3.43,0 0.49,0 1.51,-0.72 2.57,-2.24 0.07,-0.09 0.13,-0.18 0.2,-0.26 0.53,-0.63 0.76,-1.45 0.9,-3.23 0,-1.46 0,-2.91 0,-4.35 0,-1.44 0,-3.07 0,-4.62 A 3.51,3.51 0 0 1 471,76.3 h 4.38 a 3.5,3.5 0 0 1 3.5,3.5 V 92 a 16.06,16.06 0 0 1 -9.41,14.28 4.76,4.76 0 0 1 -0.53,0.19 16,16 0 0 1 -4.15,0.65 z"
       fill="#ea2c27"
       id="path73" />
    <path
       d="M 475.41,79.8 V 92 a 11.39,11.39 0 0 1 -3.21,8 10.75,10.75 0 0 1 -4.13,3 12.88,12.88 0 0 1 -3.28,0.56 h -20 l 0.08,-5.7 h 3.49 c 3.65,0 8.34,0 12,0 1.34,0 2.53,0 3.49,0 2.26,-0.08 4.14,-2 5.39,-3.75 1.25,-1.48 1.56,-3.2 1.72,-5.3 0.07,-3 0,-6 0.07,-9.06 h 4.38 m 0,-7 H 471 a 7,7 0 0 0 -7,6.82 c -0.05,1.61 -0.05,3.18 -0.05,4.71 0,1.53 0,2.8 0,4.17 a 7.64,7.64 0 0 1 -0.17,1.27 l -0.3,0.4 a 5.93,5.93 0 0 1 -0.61,0.75 h -2.52 -6 -6 -3.61 a 7,7 0 0 0 -6.88,6.91 l -0.08,5.7 a 7,7 0 0 0 7,7.09 h 20 a 19.48,19.48 0 0 0 5.08,-0.79 8,8 0 0 0 1.07,-0.38 18.49,18.49 0 0 0 6.76,-5.07 A 18.31,18.31 0 0 0 482.41,92 V 79.8 a 7,7 0 0 0 -7,-7 z"
       fill="#ffffff"
       id="path75" />
    <path
       d="m 584.05,107.19 q -3.42,0 -6.85,0 h -6.91 -6.89 a 3.5,3.5 0 0 1 -3.5,-3.5 v -5.61 a 3.5,3.5 0 0 1 -2.11,-3.21 v -6.8 a 3.51,3.51 0 0 1 2,-3.17 8.7,8.7 0 0 0 1.67,-0.92 11.68,11.68 0 0 0 0.29,-4 3.5,3.5 0 0 1 3.47,-3.62 q 4.35,0 8.76,0 h 8.81 8.7 a 3.5,3.5 0 0 1 3.5,3.5 v 15.48 c 0,7.37 -7.59,11.85 -10.92,11.85 z"
       fill="#ea2c27"
       id="path77" />
    <path
       d="m 574,79.84 c 5.85,0 11.73,0 17.51,0 v 15.5 c 0,5.38 -6,8.35 -7.42,8.35 q -3.44,0 -6.89,0 c -4.61,0 -9.22,0 -13.8,0 v -5.78 c 1.64,0 3.52,0 5.48,0 3.93,0 8.18,0 11.46,0 2.26,0 4.68,-0.78 5.39,-1.87 L 570,96.12 V 89.4 h 16.4 c 0.16,-2.5 -1.56,-2.11 -3,-2.26 h -14.07 c -1,3.67 -3.82,7.73 -8,7.73 v -6.8 a 7.24,7.24 0 0 0 3.2,-2.26 c 0.86,-1.64 0.86,-3.75 0.78,-5.93 2.89,0 5.81,0 8.73,0 m 0,-7 c -3.3,0 -6.18,0 -8.79,0 a 7,7 0 0 0 -6.93,7.25 c 0,0.31 0,1 0,1.61 a 7,7 0 0 0 -4,6.33 v 6.8 a 7,7 0 0 0 2.11,5 v 3.82 a 7,7 0 0 0 7,7 h 6.91 6.89 c 2.55,0 4.78,0 6.81,0 h 0.08 c 5.08,0 14.42,-5.83 14.42,-15.35 V 79.88 a 7,7 0 0 0 -7,-7 h -8.68 -8.83 z"
       fill="#ffffff"
       id="path79" />
    <path
       d="m 250,76.58 a 3.5,3.5 0 0 1 -3.5,-3.5 v -4.84 a 3.5,3.5 0 0 1 3.5,-3.5 h 500 a 3.5,3.5 0 0 1 1.51,6.66 l -10.15,4.84 a 3.44,3.44 0 0 1 -1.51,0.34 z"
       fill="#ea2c27"
       id="path81" />
    <path
       d="m 750,68.24 v 0 m 0,0 -10.15,4.84 H 250 v -4.84 h 500 m 0,-7 H 250 a 7,7 0 0 0 -7,7 v 4.84 a 7,7 0 0 0 7,7 h 489.85 a 7,7 0 0 0 3,-0.68 l 10,-4.77 A 7,7 0 0 0 750,61.24 Z m 0,14 z"
       fill="#ffffff"
       id="path83" />
    <path
       d="m 253.36,107.11 a 3.5,3.5 0 0 1 -3.5,-3.5 v -5.78 a 3.5,3.5 0 0 1 3.5,-3.5 h 15.7 a 5,5 0 0 0 3.12,-3.13 q 0.12,-0.54 0.21,-1.11 h -22.16 a 3.5,3.5 0 0 1 -3.5,-3.5 V 79.8 a 3.5,3.5 0 0 1 3.5,-3.5 h 30.92 a 3.5,3.5 0 0 1 3.5,3.5 c 0,1 0,2 0.06,3.06 0.15,5.28 0.33,11.84 -2.87,17 -2,3.68 -5.53,5.52 -8.68,7 a 3.48,3.48 0 0 1 -1.45,0.32 z"
       fill="#ea2c27"
       id="path85" />
    <path
       d="m 281.15,79.8 c 0,5.7 0.94,13.12 -2.34,18.27 -1.48,2.81 -4.37,4.29 -7.1,5.54 h -18.35 v -5.78 h 16 c 2.81,-0.39 5.23,-2.89 6.17,-5.62 a 22.44,22.44 0 0 0 0.55,-5.62 H 250.23 V 79.8 h 30.92 m 0,-7 h -30.92 a 7,7 0 0 0 -7,7 v 6.79 a 7,7 0 0 0 4.84,6.66 7,7 0 0 0 -1.71,4.58 v 5.78 a 7,7 0 0 0 7,7 h 18.35 a 7,7 0 0 0 2.91,-0.63 c 2.63,-1.21 7.5,-3.43 10.24,-8.38 3.7,-6 3.51,-13.12 3.35,-18.84 0,-1.06 -0.06,-2.05 -0.06,-3 a 7,7 0 0 0 -7,-7 z"
       fill="#ffffff"
       id="path87" />
    <rect
       x="336.98999"
       y="76.300003"
       width="12.47"
       height="22.219999"
       rx="3.5"
       fill="#ea2c27"
       id="rect89" />
    <path
       d="M 346,79.8 V 95 h -5.47 V 79.8 H 346 m 0,-7 h -5.47 a 7,7 0 0 0 -7,7 V 95 a 7,7 0 0 0 7,7 H 346 a 7,7 0 0 0 7,-7 V 79.8 a 7,7 0 0 0 -7,-7 z"
       fill="#ffffff"
       id="path91" />
    <path
       d="m 282.48,107 a 3.5,3.5 0 0 1 -3.5,-3.5 v -5.59 a 3.5,3.5 0 0 1 2.24,-3.26 3.51,3.51 0 0 1 -2.32,-3.3 v -6.16 a 3.5,3.5 0 0 1 3.5,-3.5 h 25.06 a 3.44,3.44 0 0 1 2.5,1 3.49,3.49 0 0 1 1,2.52 c 0,0.7 0,1.45 0,2.22 0,3.59 0,7.66 -1.62,10.54 -0.06,0.09 -0.11,0.18 -0.17,0.26 -2.34,3.33 -6.58,3.64 -9.54,3.67 -1.05,2.79 -3.31,5.08 -6.21,5.08 z"
       fill="#ea2c27"
       id="path93" />
    <path
       d="m 307.46,85.19 v 0 m 0,0 c -0.07,3.67 0.32,8.51 -1.17,11.08 -2,2.89 -7.57,2 -9.52,2.27 0,2.34 -1.64,5 -3.36,5 h -10.93 v -5.63 l 8.9,-0.08 c 1.25,0 1.17,-3 1.17,-5 h 10.15 c 0,-0.94 -1.09,-1.49 -2.65,-1.49 H 282.4 v -6.15 h 25.06 m 0,-7 H 282.4 a 7,7 0 0 0 -7,7 v 6.16 a 6.93,6.93 0 0 0 0.86,3.36 6.91,6.91 0 0 0 -0.78,3.2 v 5.62 a 7,7 0 0 0 7,7 h 10.93 a 9.9,9.9 0 0 0 8.43,-5.16 c 3.34,-0.26 7.49,-1.25 10.18,-5.07 l 0.34,-0.53 c 2.13,-3.7 2.11,-8.27 2.09,-12.31 0,-0.67 0,-1.33 0,-1.95 0,-0.11 0,-0.22 0,-0.32 a 7,7 0 0 0 -7,-7 z m 0,14 z"
       fill="#ffffff"
       id="path95" />
    <path
       d="m 339.09,107.11 h -0.38 l -30.29,-3.28 a 3.5,3.5 0 0 1 -3.13,-3.48 v -6.26 a 3.5,3.5 0 0 1 1.17,-2.61 3.46,3.46 0 0 1 2.33,-0.89 2.55,2.55 0 0 1 0.39,0 L 339.47,94 a 3.51,3.51 0 0 1 3.12,3.48 v 6.17 a 3.5,3.5 0 0 1 -3.5,3.5 z"
       fill="#ea2c27"
       id="path97" />
    <path
       d="m 308.79,94.09 30.29,3.35 v 6.17 l -30.29,-3.28 v -6.24 m 0,-7 a 7,7 0 0 0 -7,7 v 6.24 a 7,7 0 0 0 6.25,7 l 30.29,3.28 a 6.34,6.34 0 0 0 0.76,0 7,7 0 0 0 7,-7 v -6.17 a 7,7 0 0 0 -6.22,-7 l -30.3,-3.36 a 6.51,6.51 0 0 0 -0.77,0 z"
       fill="#ffffff"
       id="path99" />
    <path
       d="m 339.09,93.14 a 2.56,2.56 0 0 1 -0.39,0 l -30.29,-3.35 a 3.51,3.51 0 0 1 -3.12,-3.48 v -6.2 a 3.51,3.51 0 0 1 3.5,-3.5 h 0.38 l 30.29,3.28 a 3.5,3.5 0 0 1 3.13,3.48 v 6.25 a 3.52,3.52 0 0 1 -3.5,3.5 z"
       fill="#ea2c27"
       id="path101" />
    <path
       d="m 308.79,80.11 30.29,3.28 v 6.25 l -30.29,-3.36 v -6.17 m 0,-7 a 7,7 0 0 0 -7,7 v 6.17 a 7,7 0 0 0 6.23,7 l 30.29,3.35 a 6.81,6.81 0 0 0 0.78,0 7,7 0 0 0 7,-7 v -6.24 a 7,7 0 0 0 -6.24,-7 l -30.3,-3.28 a 6.28,6.28 0 0 0 -0.75,0 z"
       fill="#ffffff"
       id="path103" />
    <path
       d="m 339.09,100 h -0.38 l -30.29,-3.28 a 3.51,3.51 0 0 1 -3.13,-3.48 V 87 a 3.51,3.51 0 0 1 3.5,-3.5 h 0.38 l 30.29,3.28 a 3.5,3.5 0 0 1 3.13,3.48 v 6.25 a 3.52,3.52 0 0 1 -3.5,3.5 z"
       fill="#ea2c27"
       id="path105" />
    <path
       d="m 308.79,87 30.29,3.28 v 6.25 L 308.79,93.25 V 87 m 0,-7 a 7,7 0 0 0 -7,7 v 6.25 a 7,7 0 0 0 6.25,7 l 30.29,3.28 c 0.25,0 0.5,0 0.76,0 a 7,7 0 0 0 7,-7 v -6.27 a 7,7 0 0 0 -6.24,-7 L 309.54,80 a 6.28,6.28 0 0 0 -0.75,0 z"
       fill="#ffffff"
       id="path107" />
    <path
       d="m 508.59,107.11 a 3.5,3.5 0 0 1 -3.5,-3.5 v -5.7 a 3.51,3.51 0 0 1 3,-3.46 3.49,3.49 0 0 1 -0.69,-2.08 v -6.25 a 3.5,3.5 0 0 1 3.5,-3.5 h 17.73 a 3.5,3.5 0 0 1 3.5,3.5 v 8.29 h 1.41 a 3.5,3.5 0 0 1 3.5,3.5 v 5.7 a 3.5,3.5 0 0 1 -3.5,3.5 z"
       fill="#ea2c27"
       id="path109" />
    <path
       d="m 528.58,86.12 v 11.79 h 4.91 v 5.7 h -24.9 v -5.7 h 15.54 v -5.54 h -13.28 v -6.25 h 17.73 m 0,-7 h -17.73 a 7,7 0 0 0 -7,7 v 6.25 c 0,0.13 0,0.25 0,0.38 a 7,7 0 0 0 -2.27,5.16 v 5.7 a 7,7 0 0 0 7,7 h 24.9 a 7,7 0 0 0 7,-7 v -5.7 a 7,7 0 0 0 -4.91,-6.68 v -5.11 a 7,7 0 0 0 -7,-7 z"
       fill="#ffffff"
       id="path111" />
    <path
       d="m 481.11,107.19 a 3.68,3.68 0 0 1 -0.58,0 c -4,-0.66 -7.06,-5.63 -7.06,-9.46 0,-3.83 0,-8 0,-12 0,-2 0,-3.93 0,-5.83 a 3.49,3.49 0 0 1 3.5,-3.5 h 4.45 a 3.5,3.5 0 0 1 3.5,3.5 v 2.74 h 10.21 a 7.48,7.48 0 0 1 14.77,1.71 6.37,6.37 0 0 1 -0.07,1 3.48,3.48 0 0 1 1.09,2.53 c 0,0.49 0,1 0,1.53 0,1.19 0,2.42 0,3.63 a 3.47,3.47 0 0 1 -1.12,2.41 3.49,3.49 0 0 1 1,2.5 v 5.78 a 3.5,3.5 0 0 1 -3.5,3.5 z"
       fill="#ea2c27"
       id="path113" />
    <path
       d="m 481.42,79.88 v 6.24 H 497 c 1.25,0 1.17,1.72 1.8,1.72 h 1.79 a 3.82,3.82 0 0 1 -2.18,-3.51 4,4 0 1 1 8,0 3.94,3.94 0 0 1 -2.18,3.51 h 3.2 c 0,1.56 0.08,3.36 0,5 H 481.5 c 0,2 0.62,4.53 2.65,5 l 23.19,0.08 v 5.78 h -26.23 c -1.88,-0.31 -4.14,-3.44 -4.14,-6 -0.08,-5.78 0,-12 0,-17.8 h 4.45 m 21.08,6.55 a 2.11,2.11 0 1 0 0,-4.21 2.16,2.16 0 0 0 -2.11,2.11 2.1,2.1 0 0 0 2.11,2.1 M 481.42,72.88 H 477 a 7,7 0 0 0 -7,7 c 0,1.9 0,3.84 0,5.81 0,4 0,8.13 0,12 0,5.31 4.12,11.88 10,12.85 a 6.49,6.49 0 0 0 1.16,0.1 h 26.23 a 7,7 0 0 0 7,-7 v -5.73 a 6.81,6.81 0 0 0 -0.44,-2.44 7,7 0 0 0 0.51,-2.3 c 0.06,-1.33 0,-2.67 0,-3.85 0,-0.51 0,-1 0,-1.48 a 6.91,6.91 0 0 0 -1,-3.63 11,11 0 0 0 -20.65,-5.09 h -4.37 a 7,7 0 0 0 -7,-6.24 z"
       fill="#ffffff"
       id="path115" />
    <rect
       x="441.45999"
       y="76.300003"
       width="24.799999"
       height="13.71"
       rx="3.5"
       fill="#ea2c27"
       id="rect117" />
    <path
       d="m 462.76,79.8 v 6.71 H 445 V 79.8 h 17.8 m 0,-7 H 445 a 7,7 0 0 0 -7,7 v 6.71 a 7,7 0 0 0 7,7 h 17.8 a 7,7 0 0 0 7,-7 V 79.8 a 7,7 0 0 0 -7,-7 z"
       fill="#ffffff"
       id="path119" />
    <rect
       x="526.95001"
       y="85.43"
       width="36.200001"
       height="13.01"
       rx="3.5"
       fill="#ea2c27"
       id="rect121" />
    <path
       d="m 559.65,88.93 v 6 h -29.2 v -6 h 29.2 m 0,-7 h -29.2 a 7,7 0 0 0 -7,7 v 6 a 7,7 0 0 0 7,7 h 29.2 a 7,7 0 0 0 7,-7 v -6 a 7,7 0 0 0 -7,-7 z"
       fill="#ffffff"
       id="path123" />
    <path
       d="m 250,10.31 h 26.55 v 9.29 h -17.26 v 11.17 h 17.26 v 9.6 H 259.29 V 60.28 H 250 m 56.76,0 H 297.7 V 52.47 H 280.22 L 275,60.28 h -10.63 l 35.05,-50 h 7.34 z M 297.7,43 V 28.5 L 287,43.1 h 10.7 z m 12.57,-32.71 h 10.47 l 14.83,33.57 14.91,-33.57 H 361 v 50 h -9.29 V 35.06 l -11.53,25.22 h -9.45 L 319.64,35.06 v 25.22 h -9.37 m 224.86,-50 h 10.47 l 14.75,33.57 14.92,-33.57 h 10.61 v 50 h -9.37 V 35.06 L 565,60.28 h -9.45 L 544.43,35.06 v 25.22 h -9.3 M 364,10.31 h 9.68 v 50 H 364 Z m 12.34,0 H 386 v 40.83 h 12.57 v 9.14 h -22.24 m 11.47,-50 h 10.78 l 10.15,20.46 9.84,-20.46 h 10.61 l -16,31.78 v 18.22 h -9.37 V 42.09 m 77.92,-18 a 25.34,25.34 0 1 0 0.08,23.34 l -11.48,0.08 a 15.93,15.93 0 1 1 -0.08,-23.5 z"
       fill="#ea2c27"
       id="path125" />
    <path
       d="M 506.87,61.37 A 25.53,25.53 0 1 1 532.4,35.84 25.54,25.54 0 0 1 506.87,61.37 Z M 523,35.84 A 16.16,16.16 0 1 0 506.87,52 16.19,16.19 0 0 0 523,35.84 Z m 82.76,-25.53 a 16.45,16.45 0 0 1 0,32.79 h -7.34 v 17.18 h -9.37 v -50 z m -7.34,9.6 V 33.5 h 7.34 a 6.92,6.92 0 0 0 0,-13.59 z m 125.39,41 h -9.29 V 10.78 h 20.23 a 16.44,16.44 0 0 1 4.37,31.78 L 749.92,61 H 739.77 L 724.7,35.06 h -0.86 V 60.9 Z m 10.94,-27 a 6.92,6.92 0 0 0 0,-13.59 H 723.84 V 33.89 Z M 633.12,39.2 v 7.34 a 6.92,6.92 0 0 0 13.59,0 V 10.78 h 9.6 v 35.76 a 16.45,16.45 0 0 1 -32.79,0 V 10.78 h 9.6 V 39.2 Z m 32.71,21.7 h 9.45 V 20.23 h 8.51 v -9.45 h -26.15 v 9.45 h 8.19 m 46.3,40.67 h -26 V 10.78 h 26 v 9.13 h -16.71 v 12 h 16.71 v 9.37 h -16.71 v 10.41 h 16.71 M 250,68.24 v 4.84 H 739.85 L 750,68.24 M 281.15,79.8 c 0,5.7 0.94,13.12 -2.34,18.27 -1.48,2.81 -4.37,4.29 -7.1,5.54 h -18.35 v -5.78 h 16 c 2.81,-0.39 5.23,-2.88 6.17,-5.62 a 22.44,22.44 0 0 0 0.55,-5.62 H 250.23 V 79.8 Z m 64,18.11 c 4.53,-0.08 9.29,0.08 13.89,0 2.27,-0.08 4.14,-2 5.39,-3.75 1.25,-1.48 1.56,-3.2 1.72,-5.3 0.08,-3 0,-6 0.08,-9.06 h 4.37 V 92 a 11.38,11.38 0 0 1 -3.2,8 10.79,10.79 0 0 1 -4.14,3 11.34,11.34 0 0 1 -3.67,0.55 H 345 l 0.08,-5.7 z M 569.33,87.14 c -1,3.67 -3.82,7.73 -8,7.73 v -6.8 a 7.24,7.24 0 0 0 3.2,-2.26 c 0.86,-1.64 0.86,-3.75 0.78,-5.93 8.67,-0.08 17.57,0 26.24,0 v 15.46 c 0,5.38 -6,8.35 -7.42,8.35 -6.87,-0.08 -13.82,0 -20.69,0 v -5.78 c 4.92,-0.08 12,0 16.94,0 2.26,0 4.68,-0.78 5.39,-1.87 L 570,96.12 V 89.4 h 16.4 c 0.16,-2.5 -1.56,-2.11 -3,-2.26 z m -286.85,16.47 v -5.7 l 8.9,-0.08 c 1.25,0 1.17,-3 1.17,-5 h 10.15 c 0,-0.94 -1.09,-1.49 -2.65,-1.49 H 282.4 v -6.15 h 25.06 c -0.07,3.67 0.32,8.51 -1.17,11.08 -2,2.89 -7.57,2 -9.52,2.27 0,2.34 -1.64,5 -3.36,5 h -10.93 z m 26.31,-17.33 30.29,3.36 v -6.25 l -30.29,-3.28 m 0,13.12 30.29,3.28 V 90.26 L 308.79,87 m 0,13.35 30.29,3.28 V 97.44 L 308.79,94.09 M 340.49,79.8 H 346 V 95 h -5.47 z m 31.93,9.13 h 29.2 v 6 h -29.2 z M 443,79.8 h -29.59 v 6.87 h 24.52 v 11.16 h -25.38 v 5.78 H 443 m 1.88,-5.7 c 4.53,-0.08 14.44,0.08 19,0 2.26,-0.08 4.14,-2 5.39,-3.75 1.25,-1.48 1.56,-3.2 1.72,-5.3 0.07,-3 0,-6 0.07,-9.06 h 4.38 V 92 a 11.39,11.39 0 0 1 -3.21,8 10.75,10.75 0 0 1 -4.13,3 11.34,11.34 0 0 1 -3.67,0.55 H 444.8 l 0.08,-5.7 z"
       fill="#ea2c27"
       id="path127" />
    <path
       d="m 445,79.8 h 17.8 v 6.71 H 445 Z m 36.54,13 h 25.92 c 0.08,-1.64 0,-3.44 0,-5 h -3.2 a 3.94,3.94 0 0 0 2.18,-3.51 4,4 0 1 0 -8,0 3.82,3.82 0 0 0 2.18,3.51 h -1.79 c -0.63,0 -0.55,-1.72 -1.8,-1.72 h -15.61 v -6.2 H 477 c 0,5.77 -0.08,12 0,17.8 0,2.57 2.26,5.7 4.14,6 h 26.23 v -5.77 l -23.19,-0.08 c -2,-0.46 -2.65,-3 -2.65,-5 z m 21,-10.62 a 2.11,2.11 0 1 1 -2.11,2.11 2.16,2.16 0 0 1 2.07,-2.07 z m 26.08,3.9 h -17.77 v 6.25 h 13.28 v 5.54 h -15.54 v 5.7 h 24.9 v -5.7 h -4.91"
       fill="#ea2c27"
       id="path129" />
    <path
       d="m 530.45,88.93 h 29.2 v 6 h -29.2 z"
       fill="#ea2c27"
       id="path131" />
  </g>
</svg>
