<?xml version="1.0" encoding="UTF-8" standalone="no"?>
<svg
   id="Capa_1"
   data-name="Capa 1"
   viewBox="0 0 417.60519 114.00332"
   version="1.1"
   sodipodi:docname="saturn.svg"
   width="417.60519"
   height="114.00332"
   inkscape:version="1.1 (c68e22c387, 2021-05-23)"
   xmlns:inkscape="http://www.inkscape.org/namespaces/inkscape"
   xmlns:sodipodi="http://sodipodi.sourceforge.net/DTD/sodipodi-0.dtd"
   xmlns="http://www.w3.org/2000/svg"
   xmlns:svg="http://www.w3.org/2000/svg"
   xmlns:rdf="http://www.w3.org/1999/02/22-rdf-syntax-ns#"
   xmlns:cc="http://creativecommons.org/ns#"
   xmlns:dc="http://purl.org/dc/elements/1.1/">
  <sodipodi:namedview
     id="namedview81"
     pagecolor="#ffffff"
     bordercolor="#666666"
     borderopacity="1.0"
     inkscape:pageshadow="2"
     inkscape:pageopacity="0.0"
     inkscape:pagecheckerboard="0"
     showgrid="false"
     fit-margin-top="0"
     fit-margin-left="0"
     fit-margin-right="0"
     fit-margin-bottom="0"
     inkscape:zoom="1.113"
     inkscape:cx="208.89488"
     inkscape:cy="56.603774"
     inkscape:window-width="1920"
     inkscape:window-height="1138"
     inkscape:window-x="-8"
     inkscape:window-y="-8"
     inkscape:window-maximized="1"
     inkscape:current-layer="Capa_1" />
  <defs
     id="defs27">
    <linearGradient
       id="Degradado_sin_nombre_2"
       x1="163.68988"
       y1="466.27118"
       x2="164.6754"
       y2="466.27118"
       gradientTransform="matrix(0,-101.46951,-101.46951,0,47780.851,16716.533)"
       gradientUnits="userSpaceOnUse">
      <stop
         offset="0"
         id="stop2" />
      <stop
         offset="0.31453"
         id="stop4" />
      <stop
         offset="0.40709"
         stop-color="#0e0301"
         id="stop6" />
      <stop
         offset="0.52222"
         stop-color="#1a0502"
         id="stop8" />
      <stop
         offset="0.56161"
         stop-color="#410c05"
         id="stop10" />
      <stop
         offset="0.61182"
         stop-color="#6b1408"
         id="stop12" />
      <stop
         offset="0.66474"
         stop-color="#901a0a"
         id="stop14" />
      <stop
         offset="0.7198"
         stop-color="#ae200c"
         id="stop16" />
      <stop
         offset="0.77778"
         stop-color="#c5240e"
         id="stop18" />
      <stop
         offset="0.83994"
         stop-color="#d5270f"
         id="stop20" />
      <stop
         offset="0.90922"
         stop-color="#df2810"
         id="stop22" />
      <stop
         offset="1"
         stop-color="#e22910"
         id="stop24" />
    </linearGradient>
  </defs>
  <title
     id="title29">logo</title>
  <g
     id="g925"
     transform="translate(-291.18535,0.0015577)">
    <g
       id="Layer_2"
       data-name="Layer 2">
      <rect
         x="393.68265"
         y="41.164619"
         width="30.66667"
         height="34.222221"
         fill="#ffffff"
         id="rect31" />
      <rect
         x="503.29337"
         y="49.609058"
         width="32.167042"
         height="7.3909302"
         fill="#ffffff"
         id="rect33" />
      <rect
         x="519.37689"
         y="42.053501"
         width="13.49634"
         height="23.33333"
         fill="#ffffff"
         id="rect35" />
      <rect
         x="543.01599"
         y="41.164619"
         width="18.888889"
         height="30.888889"
         fill="#ffffff"
         id="rect37" />
      <rect
         x="574.79376"
         y="37.181301"
         width="22.444441"
         height="31.761089"
         fill="#ffffff"
         id="rect39" />
      <rect
         x="424.3493"
         y="53.061852"
         width="28.222219"
         height="24.865231"
         fill="#ffffff"
         id="rect41" />
      <rect
         x="491.46042"
         y="51.609058"
         width="27.916479"
         height="26.31802"
         fill="#ffffff"
         id="rect43" />
      <rect
         x="353.46042"
         y="51.609058"
         width="25.20507"
         height="20.444441"
         fill="#ffffff"
         id="rect45" />
      <rect
         x="356.78403"
         y="38.720169"
         width="19.78751"
         height="15"
         fill="#ffffff"
         id="rect47" />
      <rect
         x="326.12708"
         y="42.053501"
         width="20.007641"
         height="17.33333"
         fill="#ffffff"
         id="rect49" />
    </g>
    <path
       d="m 406.9844,83.34213 q -0.6123,0 -1.24072,-0.02832 a 31.22318,31.22318 0 0 1 -19.13477,-6.0957 q -0.54271,0.9126 -1.13964,1.76855 a 5.41685,5.41685 0 0 1 -4.91748,2.44043 h -38.8584 a 3.48788,3.48788 0 0 1 -0.84717,-0.10449 5.4553,5.4553 0 0 1 -3.62549,-2.331 23.34895,23.34895 0 0 1 -8.76172,2.418 3.4316,3.4316 0 0 1 -0.34717,0.01757 c -7.53857,0 -9.60595,-0.2705 -10.63427,-0.53515 a 14.36676,14.36676 0 0 0 -3.11328,-0.207 q -0.865,0 -1.88868,0.0332 a 23.08011,23.08011 0 0 0 -4.40966,0.36328 5.13809,5.13809 0 0 1 -1.79346,0.32715 4.85451,4.85451 0 0 1 -4.12891,-2.36035 c -0.0395,-0.06348 -0.0776,-0.127 -0.11328,-0.19141 l -6.88525,-12.54394 a 3.501,3.501 0 0 1 -0.42676,-1.502 5.32862,5.32862 0 0 1 1.30225,-4.11621 4.39913,4.39913 0 0 1 3.23046,-1.3584 3.50394,3.50394 0 0 1 2.10059,0.7002 q 4.15283,3.11572 6.84473,5.14648 a 32.63592,32.63592 0 0 0 5.79052,3.39649 13.39645,13.39645 0 0 0 5.67627,1.36816 l 0.14942,-0.001 a 7.92113,7.92113 0 0 0 4.49511,-1.4746 2.44466,2.44466 0 0 0 0.36817,-0.5 1.7398,1.7398 0 0 0 -0.15527,-0.22559 19.54984,19.54984 0 0 0 -5.99122,-4.46875 103.76581,103.76581 0 0 1 -10.84033,-6.835 c -5.53271,-3.9375 -7.11572,-6 -7.82519,-7.208 a 12.93113,12.93113 0 0 1 -1.41016,-7.84814 c 0.32715,-3.56348 2.856,-6.75684 7.51563,-9.48829 q 0.10034,-0.05859 0.20459,-0.11083 a 24.44727,24.44727 0 0 1 7.92187,-2.32325 64.67344,64.67344 0 0 1 7.97949,-0.49853 c 2.61524,0 5.271,0.13281 7.89307,0.394 l 12.53711,1.22561 c 0.18408,0.01709 0.36914,0.04345 0.55273,0.07812 h 37.49366 a 5.40463,5.40463 0 0 1 4.94384,2.48389 25.56358,25.56358 0 0 1 1.43311,2.439 c 5.15918,-3.5205 11.49707,-5.30029 18.8999,-5.30029 a 3.52262,3.52262 0 0 1 0.4707,0.03174 c 5.7793,0.78467 6.3545,0.937 6.69776,1.02783 v 0 a 12.1712,12.1712 0 0 0 1.78271,0.12012 h 0.002 a 5.40946,5.40946 0 0 0 2.56054,-0.97315 3.49179,3.49179 0 0 1 0.89649,-0.375 7.36348,7.36348 0 0 1 1.88769,-0.26172 4.87718,4.87718 0 0 1 4.43067,2.53516 q 0.0256,0.04688 0.0498,0.09522 a 28.95827,28.95827 0 0 1 3.43311,13.2788 l 7.89843,-14.84863 a 3.49028,3.49028 0 0 1 0.61377,-0.83008 5.40921,5.40921 0 0 1 3.89063,-1.68652 6.06237,6.06237 0 0 1 3.75146,1.397 3.49647,3.49647 0 0 1 1.04541,1.33106 L 462.877,70.45932 a 6.13374,6.13374 0 0 0 2.53809,2.3877 4.44377,4.44377 0 0 1 3.04,3.19726 4.53253,4.53253 0 0 1 -1.751,4.51758 3.5039,3.5039 0 0 1 -2.30469,0.86523 h -14.9023 a 3.50384,3.50384 0 0 1 -1.67627,-0.42773 c -2.54981,-1.39063 -2.77735,-3.31934 -2.686,-4.3457 0.166,-1.8711 1.47217,-3.24317 3.8833,-4.07911 0.27588,-0.11523 0.49366,-0.21875 0.66309,-0.30664 l -6.53271,-14.71484 -8.209,15.14551 c 0.11621,0.081 0.25,0.17187 0.4043,0.27051 a 4.57128,4.57128 0 0 1 2.71972,3.44628 4.51548,4.51548 0 0 1 -1.75537,4.168 3.49643,3.49643 0 0 1 -2.27881,0.84375 h -17.89651 a 21.59264,21.59264 0 0 1 -9.14844,1.91501 z m -1.05127,-42.66064 c -4.08056,0.26416 -5.59082,2.06738 -6.37256,3.40527 -1.52929,2.61768 -2.30468,6.895 -2.30468,12.71338 A 28.317,28.317 0 0 0 399.689,69.14 a 6.0635,6.0635 0 0 0 5.81641,3.77344 c 3.09863,-0.64648 3.7749,-1.52441 3.84375,-1.625 a 7.83064,7.83064 0 0 0 1.25342,-3.64648 2.34881,2.34881 0 0 0 -0.71289,-2.16114 4.86894,4.86894 0 0 0 -2.84278,-1.4414 3.49709,3.49709 0 0 1 -1.92285,-0.92188 c -1.938,-1.8291 -2.0542,-3.5791 -1.81055,-4.72656 a 4.60035,4.60035 0 0 1 3.24268,-3.38476 3.49316,3.49316 0 0 1 1.15869,-0.19727 h 15.51465 l 2.41211,-4.53516 a 4.08859,4.08859 0 0 1 -1.73291,0.39063 4.47825,4.47825 0 0 1 -3.8833,-2.415 c -4.1958,-5.11572 -6.33838,-6.28662 -7.07031,-6.55274 a 21.10519,21.10519 0 0 0 -7.02199,-1.01519 z m -45.64648,29.78564 a 5.93939,5.93939 0 0 0 2.53369,0.376 h 2.88135 a 22.62279,22.62279 0 0 0 8.47656,-2.05957 26.37927,26.37927 0 0 0 3.51123,-2.11621 25.223,25.223 0 0 1 -1.1582,-2.78613 4.76479,4.76479 0 0 1 -4.65674,3.02148 3.5,3.5 0 0 1 -2.35986,-0.915 22.45146,22.45146 0 0 0 -7.04737,-4.67383 c -0.93261,-0.34082 -1.645,-0.57812 -2.1831,-0.74316 0,-6e-5 9.7e-4,9.87201 0.002,9.89642 z M 319.33938,40.0936 a 4.03462,4.03462 0 0 0 0.58008,0.78857 c 0.56006,0.626 2.10791,1.92822 6.1919,3.63233 a 46.659,46.659 0 0 1 10.75683,6.273 32.45242,32.45242 0 0 1 4.34326,4.01074 v -8.874 a 13.87581,13.87581 0 0 0 -5.15283,-3.15918 77.74363,77.74363 0 0 0 -8.66113,-2.34619 25.42168,25.42168 0 0 0 -5.166,-0.51562 c -0.92138,0 -1.87353,0.04638 -2.8374,0.13769 a 0.35128,0.35128 0 0 0 -0.0547,0.05266 z m 43.481,0.58789 c -1.97412,0 -2.45068,0.45019 -2.45459,0.45459 a 1.38781,1.38781 0 0 0 -0.0815,0.57226 v 8.30274 c 0.53613,-0.16406 1.24853,-0.40137 2.18213,-0.74317 a 22.48985,22.48985 0 0 0 7.04882,-4.67382 3.49792,3.49792 0 0 1 2.35938,-0.915 4.75248,4.75248 0 0 1 4.95752,4.21679 23.96607,23.96607 0 0 1 1.4199,-2.96588 19.43055,19.43055 0 0 0 -3.95019,-2.31689 25.47912,25.47912 0 0 0 -8.6001,-1.93164 z"
       id="path52" />
    <path
       d="m 440.4429,31.89957 a 2.66841,2.66841 0 0 1 1.60339,0.66021 l 17.63721,39.33106 a 9.93517,9.93517 0 0 0 4.24426,4.1499 q 1.98066,0.56584 0.47159,1.88635 h -14.902 q -2.07591,-1.13181 0.75458,-2.075 a 6.18519,6.18519 0 0 0 2.73514,-1.79205 2.88744,2.88744 0 0 0 0.18863,-2.54657 l -9.7147,-21.88234 -12.16678,22.44831 -0.0943,0.94314 q -0.56593,1.13182 2.45227,3.01816 1.69761,0.755 0.37723,1.88635 h -18.70783 a 17.77714,17.77714 0 0 1 -8.33348,1.91526 q -0.57159,0 -1.15936,-0.029 A 27.44747,27.44747 0 0 1 386.9418,72.97543 c -0.51173,-0.45373 -0.98169,-0.92212 -1.44623,-1.39242 a 26.90868,26.90868 0 0 1 -2.96309,5.49521 2.06766,2.06766 0 0 1 -1.98065,0.84887 h -38.85849 q -1.50853,-0.37683 -1.50905,-0.94317 0,-0.56584 0.94316,-1.03748 3.58448,-1.03656 3.58408,-2.54657 V 44.48514 a 18.07531,18.07531 0 0 0 -7.54535,-5.04022 80.8111,80.8111 0 0 0 -9.05438,-2.45221 28.77818,28.77818 0 0 0 -5.881,-0.58942 33.84982,33.84982 0 0 0 -3.73931,0.21216 3.95633,3.95633 0 0 0 -2.54657,2.49939 q -0.66122,1.83911 1.36754,4.10272 2.0269,2.26359 7.45108,4.52722 a 42.96449,42.96449 0 0 1 9.95038,5.80048 21.38909,21.38909 0 0 1 6.22488,6.98041 11.35064,11.35064 0 0 1 0.9432,7.35668 q -0.755,3.91508 -1.98066,5.09308 a 21.715,21.715 0 0 1 -4.14991,2.8295 19.49191,19.49191 0 0 1 -7.63962,2.12216 q -8.11177,0 -9.76181,-0.42447 a 17.72577,17.72577 0 0 0 -3.988,-0.31826 q -0.91655,0 -2.00107,0.03537 a 22.774,22.774 0 0 0 -5.47034,0.56585 1.763,1.763 0 0 1 -0.61774,0.12329 1.3688,1.3688 0 0 1 -1.1743,-0.73632 l -6.88516,-12.5441 q -0.0937,-1.7916 1.03754,-1.79205 4.14889,3.11252 6.838,5.14022 a 35.88611,35.88611 0 0 0 6.4135,3.77274 16.78464,16.78464 0 0 0 7.16379,1.699 c 0.0642,0 0.12877,-4.2e-4 0.1929,-0.0013 a 11.49515,11.49515 0 0 0 6.74367,-2.31079 q 2.82951,-2.82943 0.66022,-5.56464 A 22.73988,22.73988 0 0 0 320.18928,60.19556 99.6748,99.6748 0 0 1 309.72,53.59244 q -5.56509,-3.96131 -6.838,-6.13062 a 9.52151,9.52151 0 0 1 -0.94316,-5.75329 q 0.32913,-3.58311 5.80046,-6.79081 a 20.86372,20.86372 0 0 1 6.79085,-1.98065 60.88622,60.88622 0 0 1 7.54527,-0.47159 q 3.77228,0 7.54535,0.37726 l 12.54414,1.22614 a 2.51611,2.51611 0 0 1 0.49325,0.0943 h 37.89364 a 2.06766,2.06766 0 0 1 1.98065,0.84887 24.82734,24.82734 0 0 1 2.97293,6.26441 c 0.21624,-0.21054 0.43174,-0.42133 0.65827,-0.62854 q 7.49817,-6.863 19.665,-6.862 5.5636,0.755 6.272,0.94318 a 12.97763,12.97763 0 0 0 2.59369,0.23577 c 0.0385,0.001 0.077,0.0014 0.116,0.0014 a 8.787,8.787 0 0 0 4.31695,-1.46338 3.98186,3.98186 0 0 1 0.99944,-0.14691 1.41543,1.41543 0 0 1 1.35849,0.71286 24.69732,24.69732 0 0 1 3.01812,12.73273 0.79388,0.79388 0 0 1 -0.59466,0.36322 q -0.48651,0 -1.00873,-0.92908 -5.37606,-6.60168 -8.74785,-7.82831 a 24.54807,24.54807 0 0 0 -8.32342,-1.22614 q -6.50787,0.37834 -9.29022,5.14026 -2.78332,4.764 -2.78235,14.47858 a 31.59315,31.59315 0 0 0 2.78239,13.86456 9.56753,9.56753 0 0 0 9.29022,5.75327 q 4.90391,-0.94254 6.4135,-3.15958 a 11.334,11.334 0 0 0 1.83915,-5.23456 5.81632,5.81632 0 0 0 -1.74484,-5.046 8.39462,8.39462 0 0 0 -4.81012,-2.40506 q -1.69776,-1.60239 0.18858,-2.26354 h 17.617 l 13.6962,-25.74949 a 1.98283,1.98283 0 0 1 1.4147,-0.66021 m -81.61924,21.98188 a 18.298,18.298 0 0 0 4.84549,-1.32648 25.74459,25.74459 0 0 0 8.20551,-5.37607 1.33413,1.33413 0 0 1 1.50911,1.5091 v 13.20526 a 1.33373,1.33373 0 0 1 -1.50911,1.50909 25.74542,25.74542 0 0 0 -8.20551,-5.376 A 18.295,18.295 0 0 0 358.82185,56.7 c -0.054,0 -0.10455,0.002 -0.15147,0.0059 a 2.92522,2.92522 0 0 0 -1.88636,0.84885 v 12.827 q 0,3.96126 6.03627,3.96131 h 3.01812 a 26.04731,26.04731 0 0 0 9.95042,-2.45221 22.00823,22.00823 0 0 0 5.51755,-3.72553 c 0.2343,-0.24069 0.5021,-0.50576 0.79027,-0.78561 a 21.78342,21.78342 0 0 1 -3.43116,-10.57956 20.35422,20.35422 0 0 1 4.04688,-12.33093 c -0.51839,-0.55792 -1.00054,-1.07056 -1.406,-1.48743 a 19.22633,19.22633 0 0 0 -5.51755,-3.53686 28.90685,28.90685 0 0 0 -9.95042,-2.26362 h -3.01812 q -6.03722,0 -6.03627,4.52723 v 11.318 a 2.91575,2.91575 0 0 0 1.88636,0.84888 c 0.0475,0.004 0.0985,0.006 0.15327,0.006 M 440.4429,24.89957 a 8.98313,8.98313 0 0 0 -6.36444,2.71048 7.00117,7.00117 0 0 0 -1.23044,1.6625 l -3.20715,6.0296 a 39.34333,39.34333 0 0 0 -1.91224,-4.39874 q -0.0482,-0.095 -0.0992,-0.1886 a 8.39044,8.39044 0 0 0 -7.50223,-4.35879 10.96721,10.96721 0 0 0 -2.778,0.37652 7.00043,7.00043 0 0 0 -1.79227,0.74939 5.81462,5.81462 0 0 1 -0.95738,0.47739 c -0.518,-0.01721 -0.80355,-0.04117 -0.93081,-0.05438 -0.568,-0.13822 -1.72323,-0.35306 -6.89866,-1.05545 a 6.99731,6.99731 0 0 0 -0.94139,-0.06357 37.72553,37.72553 0 0 0 -17.69881,4.00146 9.029,9.029 0 0 0 -7.57808,-3.6242 h -37.20702 q -0.26871,-0.04011 -0.5399,-0.065 L 330.30176,25.876 c -2.72327,-0.27189 -5.49585,-0.41047 -8.22631,-0.41047 a 68.20091,68.20091 0 0 0 -8.41185,0.52543 27.93218,27.93218 0 0 0 -9.05461,2.66574 q -0.20867,0.10437 -0.41,0.22238 c -5.68846,3.335 -8.79412,7.43606 -9.23075,12.18918 a 16.31916,16.31916 0 0 0 1.87755,9.93811 20.81478,20.81478 0 0 0 4.847,5.2698 7.00028,7.00028 0 0 0 -2.44188,-0.43972 7.86737,7.86737 0 0 0 -5.76923,2.44924 8.72611,8.72611 0 0 0 -2.25873,6.70862 6.999,6.999 0 0 0 0.854,3.00229 l 6.88514,12.54413 q 0.10818,0.19712 0.22889,0.387 a 8.29169,8.29169 0 0 0 7.08184,3.9812 8.67406,8.67406 0 0 0 2.73055,-0.44723 31.91714,31.91714 0 0 1 3.58549,-0.24567 q 0.96117,-0.03131 1.77312,-0.03164 a 15.31444,15.31444 0 0 1 2.29617,0.1109 c 1.2173,0.30795 3.26542,0.63186 11.45368,0.63186 q 0.34829,0 0.69531,-0.0346 a 29.3091,29.3091 0 0 0 7.673,-1.71662 10.47047,10.47047 0 0 0 3.51668,1.54254 6.99969,6.99969 0 0 0 1.69655,0.20868 h 38.85849 a 9.19448,9.19448 0 0 0 6.98079,-2.88247 35.21094,35.21094 0 0 0 18.1272,4.76843 c 0.44562,0.01944 0.89161,0.02927 1.32824,0.02927 a 25.26021,25.26021 0 0 0 9.88308,-1.91523 h 17.15825 a 6.99988,6.99988 0 0 0 4.55746,-1.68683 8.0517,8.0517 0 0 0 2.93982,-7.3327 7.85828,7.85828 0 0 0 -2.06461,-4.20782 l 3.37391,-6.225 2.28335,5.14337 a 7.61306,7.61306 0 0 0 -3.471,5.72635 7.926,7.926 0 0 0 4.49808,7.72852 6.99978,6.99978 0 0 0 3.35086,0.85412 h 14.902 a 7,7 0 0 0 4.60846,-1.73105 7.99164,7.99164 0 0 0 2.86206,-7.91662 7.87849,7.87849 0 0 0 -4.85043,-5.563 5.547,5.547 0 0 1 -0.998,-0.79968 L 448.4335,29.69559 a 7.00023,7.00023 0 0 0 -2.09177,-2.663 9.54547,9.54547 0 0 0 -5.89883,-2.13305 z M 363.784,44.1813 h 0.71222 q -0.371,0.26487 -0.71222,0.4867 z m 36.98966,11.19407 c 0.14651,-5.8032 1.17639,-8.44007 1.80885,-9.52262 0.3038,-0.52008 0.86246,-1.4768 3.463,-1.67071 a 17.81556,17.81556 0 0 1 5.71557,0.80438 c 0.033,0.01624 1.66444,0.76294 5.42927,5.32581 a 9.89208,9.89208 0 0 0 0.74492,0.997 H 407.715 a 7.00094,7.00094 0 0 0 -2.31485,0.39379 8.50247,8.50247 0 0 0 -4.62646,3.67231 z m -87.848,8.722 q -0.92678,-0.52881 -1.73477,-1.07593 0.8751,0.55449 1.73477,1.07593 z m 92.28547,5.29614 a 2.52524,2.52524 0 0 1 -2.37054,-1.7756 18.20868,18.20868 0 0 1 -1.13493,-3.04211 11.46579,11.46579 0 0 0 1.016,1.08767 6.99967,6.99967 0 0 0 3.84551,1.84329 1.18938,1.18938 0 0 1 0.49551,0.17167 4.57749,4.57749 0 0 1 -0.38028,1.24908 8.45285,8.45285 0 0 1 -1.47127,0.466 z M 363.784,67.34305 v -1.42987 a 23.229,23.229 0 0 1 1.93061,1.41644 l -0.15619,0.01343 z"
       fill="#ffffff"
       id="path54" />
    <path
       d="m 457.21487,110.50034 a 4.55084,4.55084 0 0 1 -3.58789,-1.52247 4.47322,4.47322 0 0 1 -0.99219,-3.62695 3.49733,3.49733 0 0 1 0.98975,-1.98047 c 8.92822,-8.92968 11.14893,-14.50586 11.43994,-17.61133 0.44336,-4.74316 -1.49023,-11.9746 -5.74707,-21.49414 q -0.0666,-0.14941 -0.11914,-0.30468 l -7.168,-21.12744 a 3.547,3.547 0 0 1 -0.13818,-0.54932 c -1.07178,-6.436 -1.061,-11.957 0.0322,-16.41406 0.91651,-4.72852 3.83936,-9.38819 8.69,-13.852 a 34.386,34.386 0 0 1 18.123,-8.47168 3.46488,3.46488 0 0 1 0.56446,-0.0459 4.60389,4.60389 0 0 1 3.582,1.53271 4.62608,4.62608 0 0 1 1.01465,3.78028 3.49822,3.49822 0 0 1 -1.57618,2.45459 c -4.34472,2.78466 -7.418,5.937 -9.13281,9.36962 a 17.00134,17.00134 0 0 0 -1.22461,11.252 l 1.44043,5.75879 8.93164,23.81836 q 0.35742,0.75585 0.68164,1.51269 l 17.05469,-32.0625 a 3.48069,3.48069 0 0 1 0.61621,-0.83252 5.41353,5.41353 0 0 1 3.88867,-1.68408 6.05966,6.05966 0 0 1 3.75293,1.39795 3.4944,3.4944 0 0 1 1.04395,1.33008 l 2.498,5.57031 2.33008,-3.52246 a 5.90684,5.90684 0 0 1 5.08887,-2.51221 h 60.17383 a 3.49763,3.49763 0 0 1 2.14844,0.73731 4.87857,4.87857 0 0 1 2.1875,4.31591 4.6878,4.6878 0 0 1 -2.63672,3.77 3.50051,3.50051 0 0 1 -1.12305,0.39209 5.03164,5.03164 0 0 0 -1.60254,0.47364 l -0.001,23.91162 a 6.39329,6.39329 0 0 0 2.14258,4.66894 7.22464,7.22464 0 0 0 5.10938,1.91016 6.75907,6.75907 0 0 0 4.93066,-1.874 c 0.57227,-0.54 1.90918,-2.43555 1.94434,-8.32325 v -20.293 a 5.04079,5.04079 0 0 0 -1.60352,-0.47412 3.51062,3.51062 0 0 1 -1.27734,-0.48291 4.72391,4.72391 0 0 1 -2.3877,-3.65869 4.95075,4.95075 0 0 1 1.9375,-4.20849 3.49953,3.49953 0 0 1 2.30371,-0.86524 h 44.423 c 5.38085,0 9.5498,0.875 12.63281,2.66309 A 4.27753,4.27753 0 0 1 652.75,30.66342 c 4.52441,0.12793 13.06347,2.64111 36.30176,21.82813 V 40.76547 c 0,-0.29248 0,-0.624 -1.165,-1.07715 a 3.62131,3.62131 0 0 1 -0.376,-0.17236 4.37271,4.37271 0 0 1 -2.55664,-3.69141 4.47385,4.47385 0 0 1 2.25879,-4.00634 3.49935,3.49935 0 0 1 1.94336,-0.58936 h 11.88379 a 3.49907,3.49907 0 0 1 1.85742,0.53369 4.45769,4.45769 0 0 1 2.39258,4.0542 4.36212,4.36212 0 0 1 -2.68555,3.74072 c -0.0967,0.04834 -0.19531,0.0918 -0.29492,0.13086 -1.165,0.45313 -1.165,0.78467 -1.165,1.07715 v 37.6333 a 4.79727,4.79727 0 0 1 -0.8877,2.91309 4.20971,4.20971 0 0 1 -3.43457,1.7041 v 0 a 5.32609,5.32609 0 0 1 -1.46191,-0.21484 3.48556,3.48556 0 0 1 -1.248,-0.65332 L 668.13382,60.96225 v 13.94629 c -0.0108,0.04687 0.28515,0.42285 1.57031,0.77344 0.0625,0.01757 0.124,0.03613 0.18457,0.05664 a 4.37962,4.37962 0 0 1 3.18555,3.39746 c 0.20117,1.16894 -0.008,2.91113 -2.14161,4.57129 a 3.49833,3.49833 0 0 1 -2.14941,0.73828 h -13.58105 a 3.50111,3.50111 0 0 1 -2.15039,-0.73828 c -0.0488,-0.03809 -0.0977,-0.07715 -0.14551,-0.11524 a 43.37045,43.37045 0 0 1 -13.08106,-3.876 24.058,24.058 0 0 1 -5.63574,-4.04493 c 0.335,1.61719 -0.2666,3.208 -1.79,4.73047 a 3.49917,3.49917 0 0 1 -2.47461,1.02539 h -22.63578 a 3.50087,3.50087 0 0 1 -2.47461,-1.02539 c -1.56152,-1.56054 -2.1543,-3.19433 -1.76269,-4.85351 a 4.48743,4.48743 0 0 1 3.13183,-3.20508 c 0.084,-0.02832 0.16992,-0.05371 0.25586,-0.0752 a 4.5695,4.5695 0 0 0 1.876,-0.78515 l 10e-4,-29.77442 c 0,-0.77246 0,-1.22851 -1.31445,-1.4956 a 8.23615,8.23615 0 0 0 -2.15527,0.52832 V 65.6937 c 0.14258,4.09863 -1.916,8.01171 -6.12012,11.63183 -4.0332,3.47266 -9.43457,5.2334 -16.05371,5.2334 -7.21973,-0.1416 -12.9707,-1.85449 -17.16016,-5.0918 -4.459,-3.44726 -6.78027,-7.835 -6.90039,-13.042 l -10e-4,-21.79932 a 43.161,43.161 0 0 0 -8.65625,-1.86084 V 71.514 c 0.002,0.041 0.33105,0.60547 2.13281,1.20605 a 4.38191,4.38191 0 0 1 3.18652,3.40137 c 0.19922,1.16894 -0.01,2.91016 -2.14355,4.56934 a 3.49977,3.49977 0 0 1 -2.14844,0.73632 h -37.34963 a 3.49911,3.49911 0 0 1 -1.67578,-0.42773 c -2.54981,-1.39063 -2.77832,-3.31934 -2.68652,-4.3457 0.166,-1.8711 1.47168,-3.24219 3.88183,-4.07911 0.27637,-0.11523 0.49414,-0.21777 0.66406,-0.30664 l -6.53222,-14.71484 -8.209,15.14551 c 0.11621,0.082 0.25,0.17187 0.40332,0.27051 a 4.5691,4.5691 0 0 1 2.71973,3.44433 4.51485,4.51485 0 0 1 -1.75293,4.16895 3.50032,3.50032 0 0 1 -2.28027,0.84472 h -12.52538 a 35.8634,35.8634 0 0 1 -5.05176,13.41992 3.56312,3.56312 0 0 1 -0.24317,0.34668 c -5.21777,6.57324 -12.45117,11.63867 -21.49951,15.05761 a 3.50739,3.50739 0 0 1 -0.85254,0.2041 6.97217,6.97217 0 0 1 -0.77783,0.045 z M 628.89749,71.48178 a 4.56031,4.56031 0 0 0 1.877,0.78613 c 0.0859,0.02149 0.17188,0.04688 0.25684,0.0752 0.1084,0.03613 0.21385,0.07422 0.31543,0.11426 a 30.8845,30.8845 0 0 1 -2.1416,-3.25879 q -0.15528,-0.23732 -0.30762,-0.47949 z M 527.01175,70.45932 a 4.71376,4.71376 0 0 0 1.55273,1.706 2.11659,2.11659 0 0 0 0.80859,-0.61523 V 40.765 c -5.10058,0.64405 -8.92773,1.66944 -11.38378,3.05127 a 12.09066,12.09066 0 0 1 -2.459,1.03711 z m 120.01562,-9.12108 c 0.043,0.06639 0.083,0.13475 0.12012,0.20409 a 29.75172,29.75172 0 0 0 8.70019,9.8916 l 0.004,-23.26953 c -0.0205,-0.08008 -0.041,-0.16113 -0.0615,-0.24121 a 14.64074,14.64074 0 0 1 -4.51368,9.26269 14.074,14.074 0 0 1 -4.90136,3.13574 c 0.20508,0.31543 0.42187,0.65338 0.65234,1.01662 z m -14.99414,-10.251 a 2.08132,2.08132 0 0 0 0.41895,0.0498 3.6659,3.6659 0 0 0 2.15136,-1.15722 4.84232,4.84232 0 0 0 1.63086,-3.74414 c 0,-1.59033 -0.23437,-3.708 -1.35351,-4.76367 a 4.75172,4.75172 0 0 0 -3.44629,-1.35645 3.51549,3.51549 0 0 1 -0.39844,-0.023 5.862,5.862 0 0 0 -0.665,-0.03955 3.85689,3.85689 0 0 0 -1.47265,0.26416 V 50.347 a 4.78448,4.78448 0 0 1 1.54687,0.46386 z"
       id="path56" />
    <path
       d="m 479.30139,7 q 1.31937,0 1.1318,1.3204 -7.35667,4.71635 -10.37487,10.75214 a 20.56859,20.56859 0 0 0 -1.509,13.5816 l 1.509,6.03626 9.05447,24.146 a 34.36512,34.36512 0 0 1 2.994,9.31088 l 21.0567,-39.5875 a 1.9828,1.9828 0 0 1 1.41476,-0.66024 2.6682,2.6682 0 0 1 1.6034,0.66024 l 17.6372,39.33106 a 9.93509,9.93509 0 0 0 4.24424,4.1499 c 0.0575,0.01639 0.10046,0.036 0.15356,0.05341 0.045,-0.0174 0.0801,-0.037 0.1294,-0.05341 q 4.52722,-1.50861 4.52725,-4.52719 V 37.1813 h -3.01816 q -9.05444,1.03807 -13.5816,3.584 a 5.53516,5.53516 0 0 1 -2.2667,0.80521 0.66645,0.66645 0 0 1 -0.75146,-0.61658 l 3.867,-5.84763 a 2.46245,2.46245 0 0 1 2.16928,-0.94317 h 60.174 q 1.69772,1.32092 0,2.26361 -4.52718,0.755 -4.52722,3.77264 v 24.14611 a 9.916,9.916 0 0 0 3.27805,7.16806 10.66861,10.66861 0 0 0 7.47409,2.8295 10.28025,10.28025 0 0 0 7.33359,-2.8295 q 2.99409,-2.82948 3.0412,-10.84641 V 40.19943 q 0,-3.01707 -4.5272,-3.77264 -1.51,-0.94276 0,-2.26361 h 44.42316 q 9.00674,0 12.70966,3.561 a 11.73742,11.73742 0 0 1 0.16458,16.95288 11.03089,11.03089 0 0 1 -8.02042,3.10367 q -0.53064,0 -1.08111,-0.03741 a 3.22829,3.22829 0 0 0 1.1318,1.1318 q 0.75352,0.47214 3.20673,4.33856 a 33.78075,33.78075 0 0 0 13.86462,13.676 l 0.639,0.25 a 3.45768,3.45768 0 0 0 0.77572,-2.23071 V 47.74478 a 23.65805,23.65805 0 0 0 -2.31079,-6.17773 16.299,16.299 0 0 0 -3.2539,-4.19712 6.12692,6.12692 0 0 1 -1.98065,-2.45224 q 0,-0.75361 0.9432,-0.75451 9.90321,0.283 39.80164,25.84375 V 40.76535 q 0,-3.01716 -3.39539,-4.33856 -1.41476,-0.75361 0,-1.69769 h 11.88385 q 1.50861,0.94409 0,1.69769 -3.39532,1.32092 -3.39538,4.33856 v 37.6333 q 0,1.117 -0.82343,1.11679 a 1.83276,1.83276 0 0 1 -0.497,-0.07928 L 664.63363,53.59244 v 21.3165 q 0,3.01863 4.14991,4.15 1.69775,0.56589 0,1.88635 h -13.58161 a 3.25092,3.25092 0 0 1 -0.65515,-0.64487 42.17862,42.17862 0 0 1 -13.115,-3.69375 22.53329,22.53329 0 0 1 -9.243,-9.243 28.60927,28.60927 0 0 1 -4.15,-11.22364 q -0.47831,-2.32086 0.37741,-2.32058 a 1.70606,1.70606 0 0 1 0.84876,0.33892 l 2.16928,0.37729 a 5.17885,5.17885 0 0 0 1.01825,0.10215 6.68092,6.68092 0 0 0 4.54642,-2.1059 8.30954,8.30954 0 0 0 2.7352,-6.29608 q 0,-4.99786 -2.45227,-7.30957 a 8.2358,8.2358 0 0 0 -5.8476,-2.31073 9.33931,9.33931 0 0 0 -1.06247,-0.06226 7.12877,7.12877 0 0 0 -3.98352,1.14673 3.59815,3.59815 0 0 0 -0.99032,2.49939 v 31.31416 q 0,3.01868 4.52716,4.14993 1.69779,0.56589 0,2.26361 h -22.636 q -1.69765,-1.69779 0,-2.26361 4.5272,-1.13181 4.52725,-4.14993 v -29.805 c 0,-2.90558 -1.59012,-4.57437 -4.73688,-5.03238 -3.80709,0.42737 -5.73233,1.59677 -5.73233,3.52325 v 25.56083 q 0.18774,4.52715 -4.90451,8.91291 -5.093,4.38569 -13.7702,4.38574 -9.62031,-0.1891 -15.01944,-4.36166 a 13.03634,13.03634 0 0 1 -5.54156,-10.35175 v -24.061 Q 557.62771,38.1212 549.473,37.1813 h -3.0181 v 34.33225 q 0,3.01868 4.52713,4.52719 1.6978,0.56589 0,1.88635 h -37.34934 q -2.076,-1.13172 0.75448,-2.075 a 6.18476,6.18476 0 0 0 2.73517,-1.79205 2.88728,2.88728 0 0 0 0.18863,-2.54654 l -9.71463,-21.88242 -12.16681,22.44836 -0.0943,0.94314 q -0.56594,1.13182 2.45221,3.01816 1.69767,0.755 0.37723,1.88635 h -15.70029 a 31.11785,31.11785 0 0 1 -4.86071,15.09064 q -7.26292,9.14823 -19.99515,13.95886 A 3.59071,3.59071 0 0 1 457.215,107 q -1.28031,0 -1.1156,-1.15512 11.69628,-11.69628 12.44986,-19.75937 0.75362,-8.06406 -6.03625,-23.24908 l -7.16809,-21.12784 q -1.50865,-9.05439 0,-15.09073 1.13172,-6.03566 7.63965,-12.02533 A 30.81017,30.81017 0 0 1 479.30139,7 m 0,-7 a 7.00169,7.00169 0 0 0 -1.12952,0.09174 37.82072,37.82072 0 0 0 -19.92709,9.34961 c -5.38477,4.956 -8.66034,10.22857 -9.73926,15.67532 -1.205,4.96915 -1.22616,10.77585 -0.0654,17.74231 a 7.00115,7.00115 0 0 0 0.27591,1.09857 l 7.16809,21.12784 q 0.1051,0.30967 0.23877,0.60861 c 5.25479,11.75085 5.67435,17.41168 5.45673,19.7402 -0.194,2.07218 -1.80719,6.83814 -10.42993,15.46088 a 7.00009,7.00009 0 0 0 -1.98056,3.96426 7.9226,7.9226 0 0 0 1.8153,6.41269 8.08906,8.08906 0 0 0 6.23059,2.72791 10.63146,10.63146 0 0 0 1.16327,-0.0658 7.001,7.001 0 0 0 1.704,-0.40924 c 9.64716,-3.64447 17.38669,-9.07965 23.00364,-16.15466 a 6.99658,6.99658 0 0 0 0.48611,-0.69489 40.44028,40.44028 0 0 0 4.95056,-11.74826 h 9.642 a 6.99992,6.99992 0 0 0 4.55737,-1.68673 8.05188,8.05188 0 0 0 2.94,-7.33271 7.8584,7.8584 0 0 0 -2.06464,-4.20791 l 3.3739,-6.225 2.28339,5.14337 a 7.61308,7.61308 0 0 0 -3.471,5.7266 7.92607,7.92607 0 0 0 4.49844,7.72845 7.00012,7.00012 0 0 0 3.35056,0.85394 H 550.982 a 6.99957,6.99957 0 0 0 4.2955,-1.473 8.13063,8.13063 0 0 0 3.446,-7.9241 q -0.009,-0.04975 -0.0177,-0.09927 a 22.67972,22.67972 0 0 0 4.6658,4.80459 c 4.79871,3.708 11.24576,5.6666 19.16321,5.82221 q 0.0688,0.0013 0.13754,0.0013 c 7.19888,0 13.1828,-1.894 17.79941,-5.63175 a 10.81425,10.81425 0 0 0 1.86731,2.4495 7.00016,7.00016 0 0 0 4.94995,2.05044 h 22.636 a 7,7 0 0 0 4.94976,-2.05026 11.74669,11.74669 0 0 0 1.14356,-1.32059 q 1.06869,0.68474 2.20062,1.2696 a 45.595,45.595 0 0 0 13.3284,4.08972 6.99981,6.99981 0 0 0 3.65451,1.02969 h 13.58161 a 7.00011,7.00011 0 0 0 4.29855,-1.47531 8.13142,8.13142 0 0 0 3.4426,-7.9241 7.83177,7.83177 0 0 0 -4.89106,-5.89014 v -4.32211 l 20.26642,16.52737 a 6.99948,6.99948 0 0 0 2.50208,1.30621 8.819,8.819 0 0 0 2.41888,0.3483 7.79907,7.79907 0 0 0 7.82343,-8.11679 V 42.43546 a 7.77347,7.77347 0 0 0 4.14111,-6.45151 7.92477,7.92477 0 0 0 -4.03235,-7.18872 6.99977,6.99977 0 0 0 -3.71338,-1.06613 H 689.156 a 7.00014,7.00014 0 0 0 -3.88543,1.17733 7.95871,7.95871 0 0 0 -3.81275,7.09067 7.82138,7.82138 0 0 0 4.09357,6.43372 v 2.733 C 665.95681,29.69113 657.84301,27.30582 652.9497,27.16605 q -0.1,-0.0028 -0.19995,-0.0029 a 8.061,8.061 0 0 0 -5.16641,1.81952 32.49334,32.49334 0 0 0 -11.622,-1.81952 h -44.42317 a 6.99987,6.99987 0 0 0 -4.60888,1.73141 10.28727,10.28727 0 0 0 -1.39673,1.47934 10.30054,10.30054 0 0 0 -1.76834,-1.7355 7.0003,7.0003 0 0 0 -4.29856,-1.47525 h -60.174 a 9.669,9.669 0 0 0 -6.7142,2.55157 l -0.009,-0.01916 a 7.00069,7.00069 0 0 0 -2.0914,-2.66266 9.5452,9.5452 0 0 0 -5.8992,-2.13339 8.983,8.983 0 0 0 -6.3648,2.71081 7.0004,7.0004 0 0 0 -1.23011,1.6622 l -13.47842,25.34 -6.75232,-18.00678 -1.36908,-5.47647 a 13.59392,13.59392 0 0 1 0.93582,-8.92624 c 1.43039,-2.86154 4.08551,-5.54944 7.89185,-7.98968 A 6.9998,6.9998 0 0 0 487.36343,9.306 8.10865,8.10865 0 0 0 485.52768,2.73865 8.08772,8.08772 0 0 0 479.30139,0 Z m 102.637,42.97549 a 7.00023,7.00023 0 0 0 0.9256,-0.429 9.15364,9.15364 0 0 0 2.67334,-2.21124 9.04549,9.04549 0 0 0 2.29361,2.02923 6.99956,6.99956 0 0 0 1.23438,0.611 v 17.69166 c -0.0251,4.21689 -0.7811,5.60975 -0.90769,5.81327 a 3.29356,3.29356 0 0 1 -2.4671,0.86264 3.72855,3.72855 0 0 1 -2.7449,-0.99042 2.90269,2.90269 0 0 1 -1.00724,-2.18826 z m 50.45948,4.2584 v -3.28855 l 0.019,0.0166 a 5.894,5.894 0 0 1 0.31714,2.27381 1.30439,1.30439 0 0 1 -0.33612,0.99814 z M 520.16102,46.62631 a 23.39912,23.39912 0 0 1 5.71222,-1.759 v 14.49728 z m 33.29382,22.86417 V 44.87167 q 0.8985,0.18114 1.65653,0.37061 v 19.10321 q 0,0.08011 0.002,0.16022 a 19.63676,19.63676 0 0 0 1.36664,6.83941 8.67008,8.67008 0 0 0 -3.025,-1.85464 z m 97.83936,-7.816 q 0.54112,-0.368 1.05761,-0.77826 v 2.2901 q -0.55366,-0.7342 -1.05761,-1.51184 z"
       fill="#ffffff"
       id="path58" />
    <path
       d="m 305.09849,77.17255 -6.88512,-12.54412 q -0.0938,-1.79154 1.03749,-1.792 4.149,3.11245 6.838,5.14026 a 35.89243,35.89243 0 0 0 6.41354,3.77267 16.709,16.709 0 0 0 7.3567,1.6977 11.49489,11.49489 0 0 0 6.74364,-2.31076 q 2.8295,-2.8295 0.66022,-5.56468 A 22.73825,22.73825 0 0 0 320.18921,60.19557 99.67093,99.67093 0 0 1 309.72,53.59242 q -5.56516,-3.96131 -6.838,-6.13058 a 9.52142,9.52142 0 0 1 -0.94317,-5.75332 q 0.32914,-3.58307 5.80048,-6.7908 a 20.86193,20.86193 0 0 1 6.7908,-1.98065 60.88716,60.88716 0 0 1 7.54533,-0.47158 q 3.77218,0 7.54533,0.37726 l 12.54412,1.22612 a 2.34732,2.34732 0 0 1 1.6977,0.94317 l 2.2636,10.09188 q 0.0938,1.13179 -0.84885,0 a 18.4035,18.4035 0 0 0 -8.11123,-5.659 80.82,80.82 0 0 0 -9.0544,-2.45223 30.46988,30.46988 0 0 0 -9.6203,-0.37727 3.95647,3.95647 0 0 0 -2.54655,2.49939 q -0.66118,1.83918 1.36759,4.10278 2.02684,2.26359 7.451,4.5272 a 42.9629,42.9629 0 0 1 9.95041,5.80047 21.39055,21.39055 0 0 1 6.2249,6.9804 11.35117,11.35117 0 0 1 0.94317,7.3567 q -0.755,3.9151 -1.98065,5.0931 a 21.72,21.72 0 0 1 -4.14993,2.8295 19.49274,19.49274 0 0 1 -7.63965,2.12212 q -8.11172,0 -9.76178,-0.42442 a 24.79327,24.79327 0 0 0 -5.98911,-0.28295 22.776,22.776 0 0 0 -5.47036,0.5659 1.35937,1.35937 0 0 1 -1.79196,-0.61306 z"
       id="path60" />
    <path
       d="m 344.71149,43.21759 q 0,-6.03579 -3.584,-7.07375 -0.94269,-0.47062 -0.94317,-1.03749 0,-0.56589 1.50907,-0.94316 h 38.85846 a 2.06762,2.06762 0 0 1 1.98065,0.84885 29.42937,29.42937 0 0 1 4.43289,13.11 q 0,1.13181 -0.94317,0 -3.01862,-3.3954 -4.71583,-5.14026 a 19.22594,19.22594 0 0 0 -5.51753,-3.53687 28.90509,28.90509 0 0 0 -9.95041,-2.2636 h -3.01813 q -6.03723,0 -6.03627,4.5272 v 11.318 a 2.91581,2.91581 0 0 0 1.88634,0.84885 q 1.13179,0.09528 4.99878,-1.32043 a 25.74592,25.74592 0 0 0 8.20555,-5.376 1.33409,1.33409 0 0 1 1.50907,1.50906 v 13.2053 a 1.33371,1.33371 0 0 1 -1.50907,1.50906 25.74592,25.74592 0 0 0 -8.20555,-5.376 q -3.86747,-1.41474 -4.99878,-1.32043 a 2.92526,2.92526 0 0 0 -1.88634,0.84885 v 12.82698 q 0,3.96129 6.03627,3.9613 h 3.01813 a 26.048,26.048 0 0 0 9.95041,-2.45224 22.00746,22.00746 0 0 0 5.51753,-3.7255 q 1.6977,-1.7439 5.28173,-4.85731 0.94269,-1.03653 0.94317,0.18863 a 29.22649,29.22649 0 0 1 -4.99879,13.5816 2.06762,2.06762 0 0 1 -1.98065,0.84885 h -38.85849 q -1.50859,-0.37679 -1.50907,-0.94317 0,-0.56589 0.94317,-1.03748 3.58451,-1.03652 3.584,-2.54655 z"
       id="path62" />
    <path
       d="m 378.66549,56.80015 q 0,-9.29115 7.49817,-16.15221 7.49818,-6.863 19.665,-6.862 5.56373,0.755 6.27206,0.94317 a 12.97206,12.97206 0 0 0 2.5937,0.23579 8.604,8.604 0 0 0 4.43289,-1.46191 q 1.79154,-0.47062 2.35791,0.5659 a 24.698,24.698 0 0 1 3.01814,12.73275 q -0.755,0.94413 -1.60339,-0.5659 -5.376,-6.60168 -8.74787,-7.82828 a 24.54806,24.54806 0 0 0 -8.32344,-1.22612 q -6.50786,0.37823 -9.29019,5.14026 -2.78331,4.764 -2.78235,14.47857 a 31.59334,31.59334 0 0 0 2.78238,13.86453 9.56745,9.56745 0 0 0 9.29019,5.75331 q 4.904,-0.94267 6.41353,-3.1596 a 11.33433,11.33433 0 0 0 1.83918,-5.23458 5.81627,5.81627 0 0 0 -1.74486,-5.04594 8.39452,8.39452 0 0 0 -4.81015,-2.40508 q -1.6977,-1.60242 0.18863,-2.2636 h 17.73153 q 1.50859,0 1.50907,0.75454 0,0.755 -1.32043,1.50906 -2.07593,10.75211 -7.12091,15.185 a 17.165,17.165 0 0 1 -12.68559,4.05561 27.44754,27.44754 0 0 1 -18.88691,-6.838 q -7.71039,-6.83696 -8.27629,-16.17527 z"
       id="path64" />
    <path
       d="m 414.03424,77.92708 q -1.31948,-1.13179 -0.37727,-1.792 a 9.33222,9.33222 0 0 0 4.14993,-3.67835 L 439.02815,32.5598 a 1.98289,1.98289 0 0 1 1.41475,-0.66021 2.66819,2.66819 0 0 1 1.60339,0.66021 l 17.63721,39.331 a 9.935,9.935 0 0 0 4.24425,4.14994 q 1.98066,0.56589 0.47159,1.88633 h -14.902 q -2.07592,-1.13179 0.75454,-2.075 a 6.185,6.185 0 0 0 2.73518,-1.792 2.88743,2.88743 0 0 0 0.18863,-2.54655 l -9.71469,-21.8824 -12.16681,22.44833 -0.0943,0.94316 q -0.5659,1.13181 2.45223,3.01814 1.6977,0.755 0.37727,1.88633 z"
       id="path66" />
    <path
       d="m 455.34494,41.70852 q -1.5086,-9.05441 0,-15.09067 1.13179,-6.03576 7.63965,-12.02537 A 30.81041,30.81041 0 0 1 479.30137,7 q 1.31947,0 1.1318,1.32043 -7.35671,4.71632 -10.37483,10.7521 a 20.56874,20.56874 0 0 0 -1.50907,13.5816 l 1.50907,6.03627 9.0544,24.146 q 7.45053,15.56226 -1.50907,30.18134 -7.26287,9.14823 -19.99513,13.95886 -1.6977,0.1877 -1.50907,-1.1318 11.69624,-11.69622 12.4498,-19.75934 0.75357,-8.06408 -6.03627,-23.24906 z"
       fill="url(#Degradado_sin_nombre_2)"
       id="path68"
       style="fill:url(#Degradado_sin_nombre_2)" />
    <path
       d="m 478.16957,77.92708 q -1.31948,-1.13179 -0.37727,-1.792 a 9.33224,9.33224 0 0 0 4.14994,-3.67835 L 503.16349,32.5598 a 1.98286,1.98286 0 0 1 1.41475,-0.66021 2.66816,2.66816 0 0 1 1.60338,0.66021 l 17.63722,39.331 a 9.93485,9.93485 0 0 0 4.24425,4.14994 q 1.98064,0.56589 0.47158,1.88633 h -14.902 q -2.07594,-1.13179 0.75453,-2.075 a 6.185,6.185 0 0 0 2.73518,-1.792 2.88742,2.88742 0 0 0 0.18864,-2.54655 l -9.71462,-21.88243 -12.16688,22.44836 -0.0943,0.94316 q -0.56589,1.13181 2.45224,3.01814 1.6977,0.755 0.37726,1.88633 z"
       id="path70" />
    <path
       d="m 528.346,76.04075 q 4.52719,-1.50859 4.5272,-4.5272 V 37.18132 h -3.0181 q -9.05439,1.038 -13.5816,3.584 -2.8295,1.51 -3.01813,0.18864 l 3.867,-5.84764 a 2.46239,2.46239 0 0 1 2.16929,-0.94316 h 40.7448 a 2.46235,2.46235 0 0 1 2.16927,0.94316 l 3.867,5.84764 q -0.18911,1.32092 -3.01813,-0.18864 -4.5272,-2.54655 -13.5816,-3.584 h -3.01813 v 34.33223 q 0,3.01861 4.5272,4.5272 1.6977,0.56589 0,1.88633 H 528.346 q -1.69766,-1.31947 0,-1.88633 z"
       id="path72" />
    <path
       d="m 562.1114,64.34548 v -24.146 q 0,-3.01716 -4.5272,-3.77266 -1.6977,-0.94269 0,-2.2636 h 21.88147 q 1.6977,1.32091 0,2.2636 -4.5272,0.755 -4.5272,3.77266 v 24.146 a 9.916,9.916 0 0 0 3.278,7.16807 10.66893,10.66893 0 0 0 7.47411,2.8295 10.28041,10.28041 0 0 0 7.3336,-2.8295 q 2.99407,-2.82951 3.04123,-10.84642 V 40.19945 q 0,-3.01716 -4.5272,-3.77266 -1.51,-0.94269 0,-2.2636 h 15.65657 q 1.31948,0.84885 0.37727,2.45223 -6.22491,0.56591 -6.2249,3.584 v 25.56081 q 0.18767,4.5272 -4.90447,8.91293 -5.0931,4.38572 -13.77023,4.38572 -9.62031,-0.1891 -15.01945,-4.36166 a 13.03631,13.03631 0 0 1 -5.5416,-10.35174 z"
       id="path74" />
    <path
       d="m 607.28909,75.66348 q 4.5272,-1.13179 4.5272,-4.14993 v -29.805 q 0,-4.52719 -5.0931,-5.0931 -1.60242,-1.1318 -0.18864,-2.45223 h 29.4268 q 9.00676,0 12.70966,3.56093 a 11.52991,11.52991 0 0 1 -8.937,20.01919 3.22987,3.22987 0 0 0 1.1318,1.1318 q 0.75357,0.47206 3.20677,4.33857 a 33.78009,33.78009 0 0 0 13.86456,13.67589 l 2.16928,0.84885 a 2.17472,2.17472 0 0 1 0.75453,1.50906 q 0,0.75358 -1.50906,1.41475 h -1.98065 q -10.28148,-1.1318 -15.93952,-4.05561 a 22.53351,22.53351 0 0 1 -9.243,-9.243 28.60957,28.60957 0 0 1 -4.14994,-11.22368 q -0.66117,-3.20772 1.22612,-1.98161 l 2.16928,0.37727 q 2.82951,0.56589 5.56469,-2.00375 a 8.30946,8.30946 0 0 0 2.73518,-6.29612 q 0,-4.99782 -2.45223,-7.30954 a 8.23579,8.23579 0 0 0 -5.84764,-2.31076 7.40925,7.40925 0 0 0 -5.04594,1.08464 3.59831,3.59831 0 0 0 -0.99032,2.49939 v 31.3141 q 0,3.01861 4.5272,4.14993 1.6977,0.56591 0,2.2636 h -22.636 q -1.69773,-1.69774 -3e-5,-2.26364 z"
       id="path76" />
    <path
       d="M 696.324,79.43615 664.6336,53.59242 V 74.909 q 0,3.01862 4.14993,4.14993 1.6977,0.56591 0,1.88633 H 655.202 q -1.6977,-1.3209 0,-1.88633 4.15042,-1.13179 4.14994,-4.14993 V 47.74479 A 23.66338,23.66338 0 0 0 657.04118,41.56704 16.302,16.302 0 0 0 653.7872,37.37 6.12575,6.12575 0 0 1 651.80655,34.91777 q 0,-0.75357 0.94316,-0.75453 9.90327,0.28294 39.80164,25.84372 V 40.76535 q 0,-3.01716 -3.3954,-4.33856 -1.41474,-0.75357 0,-1.6977 h 11.88389 q 1.50861,0.94413 0,1.6977 -3.39539,1.32092 -3.39539,4.33856 v 37.63332 q 0,1.41474 -1.32045,1.03748 z"
       id="path78" />
  </g>
  <metadata
     id="metadata898">
    <rdf:RDF>
      <cc:Work
         rdf:about="">
        <dc:title>logo</dc:title>
      </cc:Work>
    </rdf:RDF>
  </metadata>
</svg>
