<?xml version="1.0" encoding="UTF-8" standalone="no"?>
<svg
   viewBox="0 0 395.52682 114.01387"
   version="1.1"
   id="svg94"
   sodipodi:docname="sega32x.svg"
   width="395.52682"
   height="114.01387"
   inkscape:version="1.1 (c68e22c387, 2021-05-23)"
   xmlns:inkscape="http://www.inkscape.org/namespaces/inkscape"
   xmlns:sodipodi="http://sodipodi.sourceforge.net/DTD/sodipodi-0.dtd"
   xmlns="http://www.w3.org/2000/svg"
   xmlns:svg="http://www.w3.org/2000/svg"
   xmlns:rdf="http://www.w3.org/1999/02/22-rdf-syntax-ns#"
   xmlns:cc="http://creativecommons.org/ns#"
   xmlns:dc="http://purl.org/dc/elements/1.1/">
  <defs
     id="defs98" />
  <sodipodi:namedview
     id="namedview96"
     pagecolor="#ffffff"
     bordercolor="#666666"
     borderopacity="1.0"
     inkscape:pageshadow="2"
     inkscape:pageopacity="0.0"
     inkscape:pagecheckerboard="0"
     showgrid="false"
     fit-margin-top="0"
     fit-margin-left="0"
     fit-margin-right="0"
     fit-margin-bottom="0"
     inkscape:zoom="1.113"
     inkscape:cx="198.11321"
     inkscape:cy="56.603774"
     inkscape:window-width="1920"
     inkscape:window-height="1138"
     inkscape:window-x="-8"
     inkscape:window-y="-8"
     inkscape:window-maximized="1"
     inkscape:current-layer="svg94" />
  <title
     id="title2">logo</title>
  <g
     id="g963"
     transform="translate(-302.2366,0.01387354)">
    <g
       id="Layer_2"
       data-name="Layer 2">
      <rect
         x="393.375"
         y="21.12425"
         width="35.333328"
         height="24.66667"
         stroke-width="7"
         stroke="#ffffff"
         stroke-linecap="round"
         stroke-linejoin="round"
         fill="#ffffff"
         id="rect4" />
      <rect
         x="469.375"
         y="44.124249"
         width="20.33333"
         height="15.33333"
         stroke-width="7"
         stroke="#ffffff"
         stroke-linecap="round"
         stroke-linejoin="round"
         fill="#ffffff"
         id="rect6" />
      <rect
         x="515.6593"
         y="50.3204"
         width="9.5427399"
         height="8.1510897"
         fill="#ffffff"
         id="rect8" />
    </g>
    <g
       id="Layer_1"
       data-name="Layer 1">
      <path
         d="m 402.41725,10.99347 q 4.36761,0 4.36694,1.63733 0,1.7416 -4.72357,1.7409 h -3.576 v -3.37823 h 3.93262 m 0,-7 h -3.93262 a 7,7 0 0 0 -7,7 v 3.37823 a 7,7 0 0 0 7,7 h 3.576 c 10.87814,0 11.72357,-6.69036 11.72357,-8.7409 0,-1.44232 -0.548,-8.63733 -11.36694,-8.63733 z"
         fill="#ffffff"
         id="path11" />
      <path
         d="m 463.68727,10.711 q 4.03069,0 4.032,1.67724 0,0.81867 -1.20062,1.241 a 9.814,9.814 0 0 1 -3.18262,0.423 h -4.48395 V 10.711 h 4.83515 m 0,-7 h -4.83515 a 7,7 0 0 0 -7,7 v 3.34119 a 7,7 0 0 0 7,7 h 4.48395 a 16.46171,16.46171 0 0 0 5.50525,-0.81955 8.27432,8.27432 0 0 0 5.878,-7.8444 c 0,-0.88815 -0.30957,-8.67724 -11.032,-8.67724 z"
         fill="#ffffff"
         id="path13" />
      <path
         d="m 367.7129,110.49957 a 3.49927,3.49927 0 0 1 -2.42578,-0.97754 l -3.25,-3.125 q -0.9126,0.0161 -1.835,0.0166 c -13.19238,0 -37.00195,-1.68458 -48.24023,-12.96973 A 20.22513,20.22513 0 0 1 305.7363,78.66949 v -2.74365 a 3.50008,3.50008 0 0 1 3.5,-3.5 l 17.4834,0.0024 -5.85543,-5.63228 a 3.49994,3.49994 0 0 1 2.42578,-6.02246 h 27.86524 v -4.44291 c -0.0586,0.0034 -0.11719,0.0049 -0.17579,0.0054 l -2.46972,0.01221 h -35.28906 a 3.50017,3.50017 0 0 1 -3.5,-3.5 v -2.7876 c 0,-7.20215 6.28125,-14.81543 16.00293,-19.395 8.5957,-4.04981 20.54394,-6.103 35.51269,-6.103 24.68457,0 49.58691,6.728 50.667,21.72559 7.18653,-13.6958 26.16309,-22.251 50.49512,-22.251 31.65723,0 52.92676,11.583 52.92676,28.82324 a 18.69718,18.69718 0 0 1 -1.748,7.91309 h 23.98926 a 3.502,3.502 0 0 1 2.4375,0.98779 l 3.98633,3.86768 8.66894,-8.13282 -42.42676,-38.874 a 3.50005,3.50005 0 0 1 2.36426,-6.08057 h 60.42383 a 3.49874,3.49874 0 0 1 2.34766,0.9043 l 12.38965,11.207 11.78021,-11.15285 a 3.49863,3.49863 0 0 1 2.40625,-0.9585 h 59.96875 a 3.49986,3.49986 0 0 1 2.3994,6.04834 l -40.98436,38.5811 43.709,40.00928 a 3.50136,3.50136 0 0 1 1.13672,2.59082 h 7.88184 l -34.002,-32.98535 a 3.49946,3.49946 0 0 1 2.43653,-6.01221 h 28.252 a 3.50054,3.50054 0 0 1 2.27539,0.84082 l 18.02149,15.42041 a 3.49965,3.49965 0 0 1 1.2246,2.65918 v 27.30566 a 3.50048,3.50048 0 0 1 -3.5,3.5 z m 231.25782,-10.72851 -10.752,-9.751 -9.68359,9.12011 0.64941,0.63086 z M 316.09279,82.21539 a 11.46836,11.46836 0 0 0 2.8125,4.3291 c 6.38964,6.40723 21.44238,10.08106 41.29687,10.08106 26.3291,0 44.67774,-9.4502 44.67774,-17.93164 0,-5.86914 -6.74415,-10.04492 -18.502,-11.45606 a 3.50033,3.50033 0 0 1 -3.083,-3.47509 v -2.94092 a 3.499,3.499 0 0 1 2.623,-3.38819 c 11.21289,-2.90283 16.23145,-7.17626 16.23145,-10.12451 0,-5.41113 -15.56446,-12.95849 -40.91309,-12.95849 -13.32812,0 -24.166,1.78759 -31.34082,5.16894 a 22.53879,22.53879 0 0 0 -8.97168,7.04053 h 25.54 c 2.24609,-3.76123 7.31934,-6.27246 13.24414,-6.27246 8.11816,0 14.47754,4.67529 14.47754,10.644 0,5.66211 -5.72363,10.16016 -13.24219,10.60694 v 4.95947 c 8.75684,0.41406 15.44922,5.21387 15.44922,11.26709 0,6.334 -7.32715,11.2959 -16.68164,11.2959 -6.43555,0 -11.92969,-2.749 -14.27148,-6.84571 z M 648.49318,93.47516 611.72365,59.81744 a 3.5,3.5 0 0 1 -0.0362,-5.12988 l 34.37208,-32.3584 H 604.44825 L 590.26173,35.7608 a 3.49956,3.49956 0 0 1 -4.7539,0.0542 L 570.59962,22.32916 h -41.833 l 35.50488,32.53125 a 3.49971,3.49971 0 0 1 0.0303,5.1333 l -35.68945,33.48145 h 41.66406 L 585.7393,78.90973 a 3.50029,3.50029 0 0 1 4.751,-0.04492 l 16.10742,14.61035 z m -145.11133,0 v -8.07422 h -32.97461 a 3.50048,3.50048 0 0 1 -3.5,-3.5 v -3.28516 a 3.49957,3.49957 0 0 1 2.58789,-3.3789 C 492.80372,68.9444 505.124,61.20709 505.124,52.86041 c 0,-10.67383 -18.94922,-19.03467 -43.13868,-19.03467 -19.83593,0 -35.63964,6.38477 -41.42187,16.29 h 28.15625 a 13.61126,13.61126 0 0 1 12.10742,-7.144 14.94937,14.94937 0 0 1 11.51172,5.38184 9.23055,9.23055 0 0 1 1.80566,8.083 c -2.74316,10.61133 -42.40918,29.12061 -55.29687,34.35694 v 2.68164 z M 456.48146,60.7735 c 5.79785,-3.80469 7.76562,-5.811 8.39258,-6.5874 a 5.476,5.476 0 0 0 -3.63282,-1.42579 3.64289,3.64289 0 0 0 -3.53906,2.14209 l -0.13379,1.75342 a 3.50054,3.50054 0 0 1 -3.4707,3.2334 l -2.55567,0.01465 h -39.3955 a 3.50013,3.50013 0 0 1 -3.5,-3.50293 24.68366,24.68366 0 0 1 -4.3086,4.37256 z M 359.0674,51.76862 c 0.21093,0.0122 0.4248,0.019 0.64062,0.019 a 8.70777,8.70777 0 0 0 3.94824,-0.856 8.70777,8.70777 0 0 0 -3.94824,-0.856 8.08468,8.08468 0 0 0 -4.44043,1.14893 z"
         id="path15" />
      <path
         d="m 661.913,16.04144 -34.075,32.07761 -9.65387,9.08807 46.48957,42.55545 h -60.50236 l -15.99744,-14.50818 -14.70416,13.84906 4.29608,4.16761 h 106.92426 l 0.14917,0.14474 v -0.14474 h -0.14917 L 644.49025,64.27338 h 28.25152 l 18.02167,15.42028 V 107 H 367.71333 l -4.30054,-4.13635 c -1.06189,0.03 -2.13028,0.0502 -3.21066,0.0502 -12.6488,0 -35.41309,-1.55039 -45.76,-11.93945 a 16.83923,16.83923 0 0 1 -5.20541,-12.29081 l -1.9e-4,-2.7576 2.788,0.0024 h 23.38354 l -12.11773,-11.655 H 354.655 v -9.60065 l 4.04974,0.57959 q 0.49412,0.03469 1.00327,0.0354 c 4.68674,0 8.18927,-2.29913 8.18927,-4.356 0,-2.05687 -3.50253,-4.35608 -8.18927,-4.35608 -4.43909,0 -7.80133,2.06922 -8.15668,4.00214 l -0.5896,2.25821 -2.46911,0.01239 h -35.27151 v -2.78786 c 0,-5.76352 5.62342,-12.28534 13.99375,-16.22885 8.12533,-3.82789 19.572,-5.769 34.02179,-5.769 23.45575,0 47.20279,6.61161 47.20279,19.2468 0,5.28848 -4.62418,10.60412 -11.94367,14.32446 a 29.37875,29.37875 0 0 1 5.58542,2.63947 h 55.43826 c 6.17655,-3.98246 10.44086,-7.44165 10.94992,-9.41031 a 3.01334,3.01334 0 0 0 -0.68878,-2.6586 8.69983,8.69983 0 0 0 -6.53949,-2.94434 7.00063,7.00063 0 0 0 -7.005,5.057 l -0.158,2.07187 -2.55646,0.015 h -39.37551 l 0.9148,-3.49435 c 4.04019,-15.41339 23.40539,-25.37232 49.33725,-25.37232 29.10086,0 49.42709,10.41352 49.42709,25.32334 a 16.64656,16.64656 0 0 1 -4.79035,11.41278 H 537.566 l 6.3833,6.19241 13.85773,-13 -45.2099,-41.42435 h 60.42334 l 14.79138,13.37973 10.50238,-9.943 3.63007,-3.43674 h 59.9687 m -7.02954,2.78781 H 603.05513 L 587.85536,33.21912 571.94777,18.82925 h -52.18225 l 42.14166,38.612 -42.14166,39.53348 h 51.8991 l 16.47388,-15.51687 17.10828,15.51687 h 52.25305 L 614.08674,57.23566 654.8835,18.82925 m -239.536,34.78641 h 35.7612 l -7.4e-4,0.08267 a 9.76231,9.76231 0 0 1 9.71961,-7.22653 c 5.48318,0 11.18472,4.22925 9.92831,9.08951 -2.09091,8.08881 -39.17651,26.8194 -55.40838,32.84433 v 8.56909 h 91.53417 V 81.90067 H 470.40739 V 78.61539 C 491.52824,72.914 508.624,64.86633 508.624,52.8606 c 0,-13.56842 -20.88065,-22.53507 -46.63831,-22.53507 -25.75766,0 -43.15347,9.98978 -46.63827,23.29013 m -99.33808,-3.55533 h 32.72186 l 0.0781,0.01453 c 0.65042,-3.5416 5.28207,-6.2872 10.89908,-6.2872 6.06247,0 10.97714,3.19839 10.97714,7.14386 0,3.94547 -4.91467,7.14386 -10.97714,7.14386 a 16.77649,16.77649 0 0 1 -2.21225,-0.14511 l -0.0529,-0.04981 v 12.16785 a 11.04924,11.04924 0 0 1 1.51083,-0.0817 c 0.24149,0 0.49073,0.0026 0.75712,0.0026 7.27993,0 13.18139,3.4902 13.18139,7.79574 0,4.30554 -5.90146,7.79575 -13.18139,7.79575 -6.12961,0 -11.18381,-2.99616 -11.89362,-6.86081 l -0.0853,0.01581 h -35.7068 l -9.5e-4,-0.02182 v 0.02182 h 9.5e-4 c -0.0388,14.91086 21.58212,21.40979 48.1766,21.40979 26.60773,0 48.17746,-9.59534 48.17746,-21.43161 0,-7.46134 -7.02774,-13.18421 -21.58481,-14.93106 v -2.9412 c 11.48966,-2.97366 18.85507,-7.91708 18.85507,-13.51266 0,-9.08966 -19.4356,-16.45834 -44.4136,-16.45834 -12.94647,0 -24.58859,1.618 -32.83307,5.5028 -7.66186,3.61032 -12.3938,9.32853 -12.3938,13.70694 M 661.913,9.04144 h -59.96871 a 7.00006,7.00006 0 0 0 -4.8125,1.91675 l -3.63007,3.43674 -5.79822,5.48935 -9.98724,-9.03409 a 7,7 0 0 0 -4.6958,-1.80875 h -60.42334 a 7,7 0 0 0 -4.72894,12.16114 l 39.64319,36.3237 -3.481,3.26553 -1.59027,-1.54276 a 7.00019,7.00019 0 0 0 -4.87409,-1.97567 H 518.3907 a 22.3416,22.3416 0 0 0 0.43457,-4.41278 c 0,-9.97028 -6.2536,-18.66513 -17.60889,-24.48282 -10.01172,-5.12934 -23.43487,-7.84052 -38.8182,-7.84052 -13.83207,0 -26.30814,2.65607 -36.07932,7.68106 A 43.40577,43.40577 0 0 0 412.98362,38.471 c -2.588,-4.31809 -7.62985,-8.70209 -16.95269,-12.09989 -9.39243,-3.42321 -21.74927,-5.30841 -34.79428,-5.30841 -15.48887,0 -27.93912,2.16553 -37.00507,6.43653 -10.941,5.15469 -18.01047,14.01046 -18.01047,22.56134 v 2.78787 a 7,7 0 0 0 7,7 h 4.64489 a 7.00147,7.00147 0 0 0 0.19638,9.08 h -6.03778 l -2.782,-0.0024 h -0.006 a 7,7 0 0 0 -7,7.00052 l 1.9e-4,2.7576 a 23.901,23.901 0 0 0 7.24594,17.23029 c 11.52362,11.57059 33.942,13.99945 50.71942,13.99945 q 0.21826,0 0.44177,-0.001 l 2.217,2.13233 A 7.00012,7.00012 0 0 0 367.71333,114 h 323.05011 a 7,7 0 0 0 7,-7 V 79.69366 a 7.00009,7.00009 0 0 0 -2.449,-5.31875 l -18.0217,-15.42026 a 7,7 0 0 0 -4.551,-1.68127 h -28.25149 a 7.00011,7.00011 0 0 0 -6.894,8.21322 l -9.12341,-8.35135 4.16333,-3.91934 34.07507,-32.07757 A 7,7 0 0 0 661.913,9.04144 Z m 0,14 z m -56.07,2.78781 h 31.39258 l -27.94708,26.3096 a 7.00005,7.00005 0 0 0 0.0718,10.2602 l 30.12519,27.57568 H 607.94838 L 592.84126,76.27286 a 7,7 0 0 0 -9.50226,0.08948 l -14.452,13.61239 h -31.42837 l 29.23779,-27.42828 a 7,7 0 0 0 -0.0604,-10.26639 L 537.76729,25.82925 h 31.48413 l 13.908,12.58106 a 7.00008,7.00008 0 0 0 9.50842,-0.10785 z M 428.27012,46.61566 a 30.88241,30.88241 0 0 1 5.27225,-3.42148 c 7.38727,-3.83932 17.22281,-5.86865 28.44336,-5.86865 23.71066,0 39.63831,8.03265 39.63831,15.53507 0,3.03 -3.21952,10.94665 -33.04093,18.99667 a 7,7 0 0 0 -5.17572,6.75812 v 3.28528 a 7,7 0 0 0 7,7 h 29.47424 v 1.07406 h -70.16049 c 7.1857,-3.26208 15.0925,-7.22821 22.04245,-11.10354 20.79459,-11.59513 24.6958,-17.40445 25.76947,-21.558 a 12.65851,12.65851 0 0 0 -2.42648,-11.10214 18.30914,18.30914 0 0 0 -14.279,-6.73926 17.28325,17.28325 0 0 0 -14.05927,7.14386 z M 367.02058,63.897 c 6.33759,-2.16449 10.665,-7.09405 10.665,-12.96545 0,-5.84235 -4.28516,-10.75232 -10.57156,-12.93329 a 83.88128,83.88128 0 0 1 21.70529,3.68661 c 7.00082,2.33643 9.37137,4.8426 9.78827,5.62595 -0.50345,0.97543 -3.71485,4.1843 -13.56668,6.73407 a 7.00008,7.00008 0 0 0 -5.24613,6.77673 v 2.9412 a 7,7 0 0 0 6.166,6.95013 c 7.45392,0.89447 15.41879,3.46082 15.41879,7.98093 0,4.89813 -14.53421,14.43161 -41.17746,14.43161 -16.77362,0 -30.19849,-2.73664 -36.8447,-7.40979 h 20.26535 c 3.35657,4.16879 9.30753,6.845 16.08848,6.845 11.50524,0 20.18139,-6.36081 20.18139,-14.79575 0,-6.52594 -5.19311,-11.8103 -12.87207,-13.86795 z M 330.62263,43.06033 q 0.3718,-0.1896 0.76435,-0.37475 c 4.97723,-2.34528 11.9389,-3.87079 20.42932,-4.50287 a 17.12672,17.12672 0 0 0 -7.12451,4.87762 z m 256.06409,53.21073 1.577,-1.48526 1.63776,1.48526 z"
         fill="#ffffff"
         id="path17" />
      <path
         d="m 366.84669,28.23834 a 44.46858,44.46858 0 0 1 -12.918,-1.53808 c -6.05566,-1.86328 -6.96,-5.71729 -6.96,-7.84864 V 7.00006 a 3.50018,3.50018 0 0 1 3.5,-3.5 h 12.21881 a 3.50017,3.50017 0 0 1 3.5,3.5 v 10.05859 a 13.30314,13.30314 0 0 0 1.47658,0.07081 11.93621,11.93621 0 0 0 1.99316,-0.13965 V 7.00006 a 3.50017,3.50017 0 0 1 3.5,-3.5 h 9.46484 a 3.50017,3.50017 0 0 1 3.5,3.5 V 18.5694 c 0,2.17383 -0.88086,6.11035 -6.77929,8.05273 a 40.26823,40.26823 0 0 1 -12.4961,1.61621 z"
         id="path19" />
      <path
         d="m 382.6219,7 v 11.56927 q 0,3.29023 -4.37366,4.72858 a 37.29815,37.29815 0 0 1 -11.40185,1.44061 41.56778,41.56778 0 0 1 -11.88788,-1.38293 q -4.49,-1.38218 -4.48938,-4.50372 V 7 h 12.21863 v 11.22467 a 1.91214,1.91214 0 0 0 1.187,1.82959 9.23588,9.23588 0 0 0 3.78973,0.57538 12.64077,12.64077 0 0 0 3.561,-0.41565 q 1.38849,-0.41483 1.65936,-0.94067 a 5.09219,5.09219 0 0 0 0.27222,-2.04706 V 7 h 9.46478 m 0,-7 h -9.46478 A 6.98311,6.98311 0 0 0 367.92239,2.35251 6.98314,6.98314 0 0 0 362.68776,0 h -12.21863 a 7,7 0 0 0 -7,7 v 11.85181 c 0,2.49292 0.91885,8.574 9.43,11.19394 a 47.81951,47.81951 0 0 0 13.9473,1.69271 43.63331,43.63331 0 0 0 13.58993,-1.79138 c 8.29071,-2.73059 9.18558,-8.86648 9.18558,-11.37781 V 7 a 7,7 0 0 0 -7,-7 z"
         fill="#ffffff"
         id="path21" />
      <path
         d="m 387.78419,27.9693 a 3.50018,3.50018 0 0 1 -3.5,-3.5 V 7.00006 a 3.50018,3.50018 0 0 1 3.5,-3.5 h 14.88867 a 44.72205,44.72205 0 0 1 9.22071,0.72266 14.92549,14.92549 0 0 1 5.9873,2.61084 7.09925,7.09925 0 0 1 3.05371,5.72021 c 0,1.78272 -0.72168,5.09278 -5.55664,7.23291 a 26.39839,26.39839 0 0 1 -10.6875,1.83447 h -2.55371 v 2.84815 a 3.50017,3.50017 0 0 1 -3.5,3.5 z"
         id="path23" />
      <path
         d="m 402.67317,7 a 41.93644,41.93644 0 0 1 8.46429,0.64044 11.46463,11.46463 0 0 1 4.59833,1.95825 3.74162,3.74162 0 0 1 1.69885,2.9552 q 0,2.49591 -3.47393,4.03193 a 23.28048,23.28048 0 0 1 -9.27015,1.53527 H 398.6371 V 24.4693 H 387.78383 V 7 h 14.88934 m -4.18854,7.3717 h 3.576 q 4.72284,0 4.72357,-1.7409 0,-1.63733 -4.36694,-1.63733 h -3.93262 V 14.3717 M 402.67317,0 h -14.88934 a 7,7 0 0 0 -7,7 v 17.4693 a 7,7 0 0 0 7,7 h 10.85327 a 7.00057,7.00057 0 0 0 6.97082,-6.3566 28.77941,28.77941 0 0 0 11.18158,-2.12393 c 6.90045,-3.05191 7.64514,-8.31406 7.64514,-10.43488 a 10.677,10.677 0 0 0 -4.4082,-8.486 A 18.37227,18.37227 0 0 0 412.64387,0.80447 47.91523,47.91523 0 0 0 402.67317,0 Z"
         fill="#ffffff"
         id="path25" />
      <path
         d="m 420.1924,27.9693 a 3.50017,3.50017 0 0 1 -3.5,-3.5 V 7.00006 a 3.50017,3.50017 0 0 1 3.5,-3.5 h 26.22851 a 3.50017,3.50017 0 0 1 3.5,3.5 v 4.03174 a 3.5003,3.5003 0 0 1 -3.01367,3.46631 v 2.33252 a 3.50029,3.50029 0 0 1 3.01367,3.46631 v 4.17236 a 3.50017,3.50017 0 0 1 -3.5,3.5 z"
         id="path27" />
      <path
         d="m 446.42116,7 v 4.03192 h -15.73334 v 2.53369 h 12.71954 v 3.87812 h -12.71954 v 2.85308 h 15.73334 V 24.4693 H 420.19252 V 7 h 26.22864 m 0,-7 h -26.22864 a 7,7 0 0 0 -7,7 v 17.4693 a 7,7 0 0 0 7,7 h 26.22864 a 7,7 0 0 0 7,-7 v -4.17249 a 6.97383,6.97383 0 0 0 -1.752,-4.63244 6.97385,6.97385 0 0 0 1.752,-4.63245 V 7 a 7,7 0 0 0 -7,-7 z"
         fill="#ffffff"
         id="path29" />
      <path
         d="m 467.15626,27.9693 a 3.50072,3.50072 0 0 1 -2.80371,-1.40479 l -2,-2.67627 v 0.58106 a 3.50017,3.50017 0 0 1 -3.5,3.5 h -10.49316 a 3.50017,3.50017 0 0 1 -3.5,-3.5 V 7.00006 a 3.50017,3.50017 0 0 1 3.5,-3.5 h 17.85742 c 4.46582,0 7.92285,0.55664 10.56934,1.70215 4.67968,2.02588 5.37793,5.21973 5.37793,6.94336 a 7.08522,7.08522 0 0 1 -2.27247,5.188 7.74973,7.74973 0 0 1 -1.49218,1.10547 l 3.10644,3.82324 a 3.50027,3.50027 0 0 1 -2.71679,5.707 z"
         id="path31" />
      <path
         d="m 466.2165,7 a 23.80273,23.80273 0 0 1 9.1803,1.414 q 3.267,1.4154 3.267,3.73169 a 3.60757,3.60757 0 0 1 -1.20062,2.66821 q -1.20474,1.15815 -4.85968,2.04114 l 6.1855,7.61426 h -11.63323 l -4.9931,-6.681 h -3.31055 v 6.681 H 448.35957 V 7 h 17.85693 m -7.36438,7.05219 h 4.48395 a 9.814,9.814 0 0 0 3.18262,-0.423 q 1.20061,-0.4216 1.20062,-1.241 0,-1.67722 -4.032,-1.67724 h -4.83515 v 3.34119 M 466.2165,0 h -17.85693 a 7,7 0 0 0 -7,7 v 17.4693 a 7,7 0 0 0 7,7 h 10.49255 a 6.96815,6.96815 0 0 0 4.15217,-1.36386 7.00034,7.00034 0 0 0 4.15148,1.36386 H 478.789 a 7,7 0 0 0 5.43317,-11.4137 l -0.97824,-1.20422 a 10.54906,10.54906 0 0 0 2.41989,-6.70569 c 0,-2.07831 -0.72928,-7.22821 -7.48425,-10.15478 C 475.08162,0.65073 471.1696,0 466.2165,0 Z"
         fill="#ffffff"
         id="path33" />
      <path
         d="m 331.334,28.26324 a 50.5368,50.5368 0 0 1 -7.72266,-0.52441 25.72342,25.72342 0 0 1 -5.94336,-1.57324 12.03406,12.03406 0 0 1 -4.39941,-2.9502 7.77287,7.77287 0 0 1 -2.0586,-4.71631 3.49884,3.49884 0 0 1 2.1045,-3.46044 5.94413,5.94413 0 0 1 -0.82618,-3.04688 6.08414,6.08414 0 0 1 2.165,-4.6001 11.80849,11.80849 0 0 1 4.03028,-2.27441 26.76863,26.76863 0 0 1 5.10351,-1.20606 43.71359,43.71359 0 0 1 6.23438,-0.41113 44.80772,44.80772 0 0 1 6.50683,0.44043 25.87318,25.87318 0 0 1 5.41992,1.35107 12.45767,12.45767 0 0 1 4.28223,2.60889 7.18935,7.18935 0 0 1 2.252,4.79444 3.50347,3.50347 0 0 1 -0.8125,2.44042 c 0.0518,0.05469 0.10157,0.11036 0.15137,0.166 a 6.07278,6.07278 0 0 1 1.54981,4.085 6.32316,6.32316 0 0 1 -2.23047,4.76709 12.4498,12.4498 0 0 1 -4.165,2.39258 26.9859,26.9859 0 0 1 -5.29981,1.28174 43.34962,43.34962 0 0 1 -6.34184,0.43552 z"
         id="path35" />
      <path
         d="m 330.02174,7 a 41.05289,41.05289 0 0 1 5.99359,0.40289 22.33728,22.33728 0 0 1 4.68134,1.15711 8.9896,8.9896 0 0 1 3.09277,1.84857 3.68,3.68 0 0 1 1.19794,2.47882 h -6.86481 q -0.75759,-2.9382 -7.89935,-2.93756 a 20.51,20.51 0 0 0 -5.32526,0.52679 q -1.84379,0.5268 -1.84314,1.447 a 0.79112,0.79112 0 0 0 0.4043,0.652 4.31368,4.31368 0 0 0 1.28778,0.5105 19.81359,19.81359 0 0 0 2.27057,0.42468 q 1.38849,0.194 3.35681,0.37433 1.71726,0.1593 3.52161,0.3512 1.80294,0.194 3.53241,0.46558 1.72947,0.27158 3.25616,0.6629 a 14.74819,14.74819 0 0 1 2.68848,0.94745 5.68619,5.68619 0 0 1 1.82947,1.31091 2.57543,2.57543 0 0 1 0.66839,1.76282 2.90947,2.90947 0 0 1 -1.0849,2.178 9.13814,9.13814 0 0 1 -3.01654,1.6961 23.41721,23.41721 0 0 1 -4.6051,1.10535 39.72831,39.72831 0 0 1 -5.83026,0.39752 46.84441,46.84441 0 0 1 -7.18061,-0.48187 22.57377,22.57377 0 0 1 -5.136,-1.345 8.58458,8.58458 0 0 1 -3.14313,-2.05817 4.33688,4.33688 0 0 1 -1.1734,-2.62585 h 6.941 a 2.7016,2.7016 0 0 0 0.99646,1.594 6.81052,6.81052 0 0 0 2.0827,1.11762 14.36436,14.36436 0 0 0 2.88995,0.652 27.11669,27.11669 0 0 0 3.46979,0.2096 29.03553,29.03553 0 0 0 3.17993,-0.15924 15.30948,15.30948 0 0 0 2.46112,-0.44788 4.79584,4.79584 0 0 0 1.5777,-0.70917 1.1838,1.1838 0 0 0 0.55542,-0.94067 1.08618,1.08618 0 0 0 -0.54315,-0.908 5.56749,5.56749 0 0 0 -1.7533,-0.66974 29.14986,29.14986 0 0 0 -3.17987,-0.53766 q -1.97049,-0.245 -4.84607,-0.505 -3.28134,-0.32877 -5.65332,-0.76642 a 21.70942,21.70942 0 0 1 -3.9,-1.0318 6.13561,6.13561 0 0 1 -2.2583,-1.37219 2.52777,2.52777 0 0 1 -0.73236,-1.78595 2.67234,2.67234 0 0 1 1.01,-2.00238 A 8.52831,8.52831 0 0 1 319.86268,8.413 23.21232,23.21232 0 0 1 324.29225,7.37437 40.08457,40.08457 0 0 1 330.02174,7 m 0,-7 a 47.26549,47.26549 0 0 0 -6.73474,0.4469 29.84846,29.84846 0 0 0 -5.78311,1.37546 15.215,15.215 0 0 0 -5.202,2.97647 9.64863,9.64863 0 0 0 -3.31332,7.19287 9.491,9.491 0 0 0 0.201,1.94464 6.9997,6.9997 0 0 0 -1.47095,4.81455 11.34755,11.34755 0 0 0 2.94189,6.798 15.49269,15.49269 0 0 0 5.66739,3.85 29.15294,29.15294 0 0 0 6.73886,1.79736 53.99626,53.99626 0 0 0 8.26725,0.56674 46.92044,46.92044 0 0 0 6.86007,-0.47369 30.01772,30.01772 0 0 0 5.98844,-1.45829 15.83534,15.83534 0 0 0 5.30874,-3.08438 9.90482,9.90482 0 0 0 3.37955,-7.36059 9.53027,9.53027 0 0 0 -1.14978,-4.586 6.99752,6.99752 0 0 0 0.25592,-2.2945 10.62611,10.62611 0 0 0 -3.29739,-7.10565 15.936,15.936 0 0 0 -5.48044,-3.37732 29.38089,29.38089 0 0 0 -6.15729,-1.544 A 48.22482,48.22482 0 0 0 330.02174,0 Z"
         fill="#ffffff"
         id="path37" />
      <path
         d="m 415.34767,100.47516 a 3.50048,3.50048 0 0 1 -3.5,-3.5 v -8.56934 a 3.49973,3.49973 0 0 1 2.28223,-3.28125 270.08746,270.08746 0 0 0 32.4248,-15.37109 c 15.54883,-8.66113 20.41309,-13.64453 20.8125,-15.06983 a 2.20729,2.20729 0 0 0 -0.5625,-2.04394 7.95013,7.95013 0 0 0 -5.97754,-2.668 6.28465,6.28465 0 0 0 -6.30664,4.50342 3.50525,3.50525 0 0 1 -4.16992,2.64062 h -35.00293 a 3.50061,3.50061 0 0 1 -3.38574,-4.3872 c 4.12207,-15.73535 23.75781,-25.90284 50.02343,-25.90284 29.52051,0 50.13868,10.70606 50.13868,26.03467 0,10.30567 -9.53907,18.71045 -29.07227,25.54053 h 23.83008 a 3.50048,3.50048 0 0 1 3.5,3.5 v 15.07425 a 3.50048,3.50048 0 0 1 -3.5,3.5 z"
         fill="#ffffff"
         id="path39" />
      <path
         d="m 461.98573,30.3255 c 25.75763,0 46.63831,8.96668 46.63831,22.5351 0,12.00573 -17.09577,20.0534 -38.21668,25.75476 v 3.28527 h 36.47431 v 15.0741 h -91.53425 v -8.56909 c 16.23188,-6.0249 53.31751,-24.75549 55.40845,-32.8443 1.25635,-4.86029 -4.44513,-9.08954 -9.92834,-9.08954 a 9.76224,9.76224 0 0 0 -9.71961,7.2265 l 7.4e-4,-0.08264 H 415.34742 C 418.83223,40.31531 436.2281,30.3255 461.98573,30.3255 m 0,-7 c -27.90643,0 -48.871,11.19321 -53.40973,28.516 a 7,7 0 0 0 6.77142,8.77417 h 34.68778 q 0.13,0.0201 0.26169,0.03549 a 6.99488,6.99488 0 0 0 7.63659,-5.39993 2.86288,2.86288 0 0 1 2.89405,-1.77942 5.09321,5.09321 0 0 1 2.558,0.76013 c -2.05658,2.13367 -7.84271,6.61252 -20.01254,13.28086 a 262.21927,262.21927 0 0 1 -30.46143,14.33035 7,7 0 0 0 -4.56415,6.5625 v 8.56909 a 7,7 0 0 0 7,7 h 91.53425 a 7,7 0 0 0 7,-7 V 81.90063 a 7,7 0 0 0 -7,-7 H 499.766 c 9.10474,-5.2423 15.85807,-12.30526 15.85807,-22.04 0,-17.38984 -22.05689,-29.5351 -53.63831,-29.5351 z"
         fill="#ffffff"
         id="path41" />
      <path
         d="m 312.02461,78.71564 h 9.2e-4 l -9.2e-4,-0.02179 z"
         fill="#ffffff"
         id="path43" />
      <path
         d="m 312.02461,78.69385 9.2e-4,0.02179 h -9.2e-4 v -0.02179 m 0,-7 a 7,7 0 0 0 -7,7 v 0.02179 a 7,7 0 0 0 6.57141,6.98687 c 0.14536,0.0089 0.29038,0.01331 0.43417,0.01331 a 7.00013,7.00013 0 0 0 6.94193,-6.14459 7.17962,7.17962 0 0 0 0.051,-1.0231 6.99981,6.99981 0 0 0 -6.9985,-6.85428 z"
         fill="#ffffff"
         id="path45" />
      <path
         d="m 360.20216,103.62555 c -12.75293,0 -35.71973,-1.57715 -46.25293,-12.1377 a 17.53553,17.53553 0 0 1 -5.42383,-12.78125 3.49989,3.49989 0 0 1 3.5,-3.49121 l 35.72364,-0.001 a 3.56849,3.56849 0 0 1 3.51074,2.85351 c 0.34668,1.88867 3.90332,3.99317 8.45117,3.99317 5.82031,0 9.68164,-2.58594 9.68164,-4.2959 0,-1.71045 -3.86133,-4.2959 -9.68164,-4.2959 l -0.76074,-0.0024 a 7.75954,7.75954 0 0 0 -1.044,0.05078 3.49988,3.49988 0 0 1 -3.96289,-3.46924 v -12.168 a 3.5008,3.5008 0 0 1 4.44727,-3.36963 c 0.43261,0.043 0.874,0.06446 1.31738,0.06446 4.49512,0 7.47754,-2.19287 7.47754,-3.64356 0,-1.45069 -2.98242,-3.644 -7.47754,-3.644 -4.39648,0 -7.19922,2.022 -7.45605,3.41943 a 3.50094,3.50094 0 0 1 -3.44239,2.86768 c -0.10644,0 -0.21289,-0.0049 -0.32031,-0.01465 h -32.47944 a 3.50017,3.50017 0 0 1 -3.5,-3.5 c 0,-6.0332 5.78808,-12.814 14.40137,-16.87256 8.21875,-3.873 19.7666,-5.83691 34.32519,-5.83691 23.80957,0 47.91309,6.85547 47.91309,19.95849 0,5.85938 -4.89551,10.877 -13.96387,14.48438 14.89453,4.043 16.69434,12.8833 16.69434,16.90039 0,13.98049 -22.69922,24.93166 -51.67774,24.93166 z"
         fill="#ffffff"
         id="path47" />
      <path
         d="m 361.23622,30.85059 c 24.978,0 44.41363,7.36865 44.41363,16.45831 0,5.59564 -7.36541,10.539 -18.855,13.51269 v 2.94117 c 14.55707,1.74688 21.58478,7.46978 21.58478,14.93109 0,11.8363 -21.56976,21.43158 -48.17749,21.43158 -26.59448,0 -48.21539,-6.4989 -48.17657,-21.40979 h 35.70684 l 0.0853,-0.01581 c 0.70978,3.86468 5.764,6.86084 11.89362,6.86084 7.2799,0 13.18139,-3.49024 13.18139,-7.79578 0,-4.30554 -5.90149,-7.79571 -13.18139,-7.79571 -0.26645,0 -0.51566,-0.0026 -0.75721,-0.0026 a 11.04285,11.04285 0 0 0 -1.51074,0.08173 V 57.88043 l 0.0529,0.04981 a 16.77211,16.77211 0 0 0 2.21228,0.14514 c 6.0625,0 10.97711,-3.19843 10.97711,-7.14386 0,-3.94543 -4.91461,-7.14386 -10.97711,-7.14386 -5.617,0 -10.24866,2.7456 -10.89905,6.28717 l -0.0781,-0.01453 h -32.7219 c 0,-4.37835 4.73194,-10.09655 12.3938,-13.70691 8.24445,-3.88482 19.8866,-5.5028 32.833,-5.5028 m 0,-7 c -15.07691,0 -27.12738,2.07611 -35.81677,6.17056 -9.96875,4.69739 -16.41,12.5632 -16.41,20.03915 a 7,7 0 0 0 7,7 h 32.34888 q 0.22563,0.01457 0.45108,0.01456 a 7.00079,7.00079 0 0 0 1.708,-0.21158 7.012,7.012 0 0 0 -0.0741,1.01715 v 12.16791 a 6.99691,6.99691 0 0 0 0.40289,2.34055 7.00156,7.00156 0 0 0 -3.02859,-0.68909 q -0.23493,0 -0.47034,0.01584 H 312.0256 a 7,7 0 0 0 -7,6.98175 21.19312,21.19312 0 0 0 6.44567,15.2622 c 10.8534,10.88169 32.49064,13.16584 48.73087,13.16584 13.82739,0 26.93625,-2.44388 36.91174,-6.88144 11.77887,-5.23978 18.26575,-12.8931 18.26575,-21.55014 0,-4.0257 -1.409,-12.073 -11.60947,-17.36972 7.44266,-4.90293 8.87973,-10.46082 8.87973,-14.01523 0,-16.11746 -26.6513,-23.45831 -51.41363,-23.45831 z m -3.1091,27.06329 a 9.94906,9.94906 0 0 1 3.26553,0.01764 9.63269,9.63269 0 0 1 -1.6842,0.14386 c -0.24958,0 -0.49808,-0.0092 -0.74323,-0.0275 a 7.0094,7.0094 0 0 0 -0.8381,-0.134 z m -3.49918,26.1673 a 7.002,7.002 0 0 0 -0.21313,-0.72187 6.99843,6.99843 0 0 0 3.95251,0.62775 4.94955,4.94955 0 0 1 0.5867,-0.02045 l 0.32447,0.0012 0.43277,0.0014 a 13.0357,13.0357 0 0 1 4.68219,0.79574 13.03479,13.03479 0 0 1 -4.68219,0.79575 7.774,7.774 0 0 1 -5.08332,-1.47949 z"
         fill="#ffffff"
         id="path49" />
      <path
         d="m 577.76564,106.77106 a 3.50038,3.50038 0 0 1 -2.4375,-0.98828 l -4.2959,-4.168 a 3.49951,3.49951 0 0 1 0.0381,-5.05957 l 14.7041,-13.84864 a 3.50031,3.50031 0 0 1 4.751,-0.04492 l 14.9961,13.60059 H 655.667 l -39.84667,-36.4736 a 3.5,3.5 0 0 1 -0.0361,-5.12989 l 9.6543,-9.08789 a 3.501,3.501 0 0 1 4.83691,0.03613 l 56.85254,55.15235 a 3.50037,3.50037 0 0 1 -2.4375,6.01172 z"
         fill="#1d46a5"
         id="path51" />
      <path
         d="m 627.838,48.11908 16.65229,16.1543 40.19983,38.99768 h -106.9243 l -4.29608,-4.16761 14.70416,-13.84906 15.99744,14.50818 h 60.50232 l -46.48957,-42.55548 9.65387,-9.088 m -3e-4,-7 a 6.97922,6.97922 0 0 0 -4.79779,1.90311 l -9.65387,9.088 a 7,7 0 0 0 0.0716,10.26028 l 33.20173,30.39206 H 606.87275 L 592.87642,80.06915 a 7,7 0 0 0 -9.5019,0.08954 l -14.70416,13.84906 a 6.99993,6.99993 0 0 0 -0.0746,10.12 l 4.296,4.16763 a 7.00008,7.00008 0 0 0 4.87408,1.97571 h 106.92428 a 7,7 0 0 0 4.874,-12.02429 L 649.36433,59.24905 632.71205,43.09476 a 6.98161,6.98161 0 0 0 -4.87439,-1.97568 z"
         fill="#ffffff"
         id="path53" />
      <path
         d="m 543.94923,73.96588 a 3.493,3.493 0 0 1 -2.4375,-0.98779 L 476.08986,9.51227 a 3.50054,3.50054 0 0 1 2.4375,-6.01221 H 585.6006 a 3.499,3.499 0 0 1 2.97363,1.65283 l 12.17676,11.813 a 3.49918,3.49918 0 0 1 -0.0303,5.05371 l -10.50293,9.9434 a 3.49958,3.49958 0 0 1 -4.75391,0.0542 l -13.792,-12.47559 h -50.07421 l 38.57324,35.34375 a 3.49972,3.49972 0 0 1 0.0303,5.13331 l -13.85742,13 a 3.49083,3.49083 0 0 1 -2.39453,0.94721 z"
         fill="#1d46a5"
         id="path55" />
      <path
         d="m 585.60048,7 v 0.14465 l 12.71374,12.33356 -10.50238,9.943 -14.79138,-13.37977 h -60.42334 l 45.21,41.42429 -13.85783,13.00009 -6.3833,-6.19244 L 478.52711,7 h 107.07337 m 0,-7 H 478.52711 A 7,7 0 0 0 473.653,12.02432 l 59.03888,57.27335 6.3833,6.19244 a 7,7 0 0 0 9.66333,0.0809 L 562.59633,62.571 a 7,7 0 0 0 -0.0603,-10.26629 l -31.9375,-29.26322 h 39.72565 l 12.79183,11.571 a 7.00008,7.00008 0 0 0 9.50836,-0.108 l 10.50244,-9.943 a 7,7 0 0 0 0.0615,-10.10754 L 591.26637,2.88852 A 6.99041,6.99041 0 0 0 585.60048,0 Z"
         fill="#ffffff"
         id="path57" />
      <path
         d="m 684.83986,106.91559 a 3.49994,3.49994 0 0 1 -2.44239,-0.99219 l -0.14843,-0.14453 a 3.50018,3.50018 0 0 1 2.4414,-6.00781 h 0.14844 a 3.50048,3.50048 0 0 1 3.5,3.5 v 0.14453 a 3.49939,3.49939 0 0 1 -3.499,3.5 z"
         fill="#1d46a5"
         id="path59" />
      <path
         d="m 684.83925,103.27106 v 0.14471 l -0.14917,-0.14471 h 0.14917 m 0,-7 h -0.14917 a 7,7 0 0 0 -4.87445,12.02389 l 0.14917,0.14472 a 7,7 0 0 0 11.87445,-5.0239 v -0.14471 a 7,7 0 0 0 -7,-7 z"
         fill="#ffffff"
         id="path61" />
      <path
         d="m 605.24708,100.47516 a 3.50177,3.50177 0 0 1 -2.35156,-0.90723 L 588.18361,86.22321 574.06447,99.523 a 3.50138,3.50138 0 0 1 -2.39942,0.95215 h -51.89941 a 3.49974,3.49974 0 0 1 -2.39453,-6.05274 l 39.38867,-36.95117 -39.3584,-36.06152 a 3.50005,3.50005 0 0 1 2.36426,-6.08057 h 52.18164 a 3.4987,3.4987 0 0 1 2.34765,0.9043 l 13.50586,12.21728 12.84766,-12.16308 a 3.49863,3.49863 0 0 1 2.40625,-0.9585 h 51.8291 a 3.49986,3.49986 0 0 1 2.39942,6.04834 l -38.05176,35.82228 40.63183,37.19336 a 3.50006,3.50006 0 0 1 -2.36328,6.082 z"
         fill="#ffffff"
         id="path63" />
      <path
         d="m 654.8835,18.82928 -40.79676,38.40638 43.41309,39.73907 H 605.24678 L 588.1385,81.45782 571.66462,96.97473 h -51.8991 L 561.90718,57.44122 519.76552,18.82928 h 52.18225 l 15.90759,14.38984 15.19977,-14.38984 h 51.82837 m 0,-7 h -51.82837 a 6.99988,6.99988 0 0 0 -4.81244,1.91669 l -10.49555,9.93625 -11.10345,-10.0441 a 7,7 0 0 0 -4.69592,-1.80884 h -52.18225 a 7,7 0 0 0 -4.72889,12.1612 l 36.57471,33.51129 -36.63507,34.36774 a 7,7 0 0 0 4.78925,12.10522 h 51.8991 a 7,7 0 0 0 4.79956,-1.90448 l 11.764,-11.08069 12.31586,11.1702 a 6.9999,6.9999 0 0 0 4.7027,1.815 h 52.25305 a 7,7 0 0 0 4.72644,-12.16345 L 624.37538,57.1637 659.68165,23.92612 A 7,7 0 0 0 654.8835,11.82928 Z m 0,14 z"
         fill="#ffffff"
         id="path65" />
      <polygon
         points="367.713,107 690.763,107 690.763,104.339 690.763,79.694 672.742,64.273 323.29,64.273 "
         id="polygon67" />
      <path
         d="m 382.62193,7 v 11.56928 q 0,3.29019 -4.37371,4.72859 a 37.29964,37.29964 0 0 1 -11.40186,1.44061 41.5692,41.5692 0 0 1 -11.88782,-1.38293 q -4.4901,-1.38219 -4.48942,-4.50377 V 7 h 12.21861 v 11.22466 a 1.91219,1.91219 0 0 0 1.187,1.82961 9.2356,9.2356 0 0 0 3.78973,0.57535 12.64143,12.64143 0 0 0 3.561,-0.41561 q 1.38847,-0.41488 1.65936,-0.94069 a 5.09155,5.09155 0 0 0 0.27225,-2.047 V 7 Z"
         id="path69" />
      <path
         d="m 398.63708,18.12112 v 6.34817 H 387.7838 V 7 h 14.88939 a 41.9397,41.9397 0 0 1 8.46428,0.64044 11.46412,11.46412 0 0 1 4.59831,1.95829 3.74155,3.74155 0 0 1 1.69884,2.95518 q 0,2.49592 -3.47391,4.032 a 23.28132,23.28132 0 0 1 -9.27014,1.53527 z m -0.15246,-3.74944 h 3.576 q 4.72287,0 4.72355,-1.74087 0,-1.63733 -4.3669,-1.63733 h -3.93266 z"
         id="path71" />
      <path
         d="m 446.42116,20.29683 v 4.17246 H 420.19252 V 7 h 26.22864 v 4.032 h -15.73337 v 2.53364 h 12.71955 v 3.87813 h -12.71955 v 2.85312 z"
         id="path73" />
      <path
         d="m 478.789,24.46929 h -11.63323 l -4.99308,-6.681 h -3.31057 v 6.681 H 448.35958 V 7 h 17.85692 a 23.80326,23.80326 0 0 1 9.1803,1.414 q 3.267,1.41547 3.267,3.7317 a 3.60768,3.60768 0 0 1 -1.20062,2.66824 Q 476.25847,15.972 472.6035,16.855 Z M 458.85212,14.0522 h 4.484 a 9.81291,9.81291 0 0 0 3.18261,-0.423 q 1.20063,-0.42153 1.20063,-1.24094 0,-1.67725 -4.032,-1.67726 h -4.83517 z"
         id="path75" />
      <path
         d="m 331.334,24.763 a 46.84084,46.84084 0 0 1 -7.18061,-0.48189 22.57417,22.57417 0 0 1 -5.136,-1.34492 8.58517,8.58517 0 0 1 -3.14313,-2.05821 4.33689,4.33689 0 0 1 -1.1734,-2.62586 h 6.941 a 2.70193,2.70193 0 0 0 0.99644,1.594 6.81053,6.81053 0 0 0 2.08272,1.11759 14.36418,14.36418 0 0 0 2.88994,0.652 27.11545,27.11545 0 0 0 3.46983,0.20963 29.0401,29.0401 0 0 0 3.17989,-0.15927 15.30707,15.30707 0 0 0 2.46115,-0.44785 4.79582,4.79582 0 0 0 1.57769,-0.70921 1.18373,1.18373 0 0 0 0.55539,-0.94063 1.086,1.086 0 0 0 -0.54314,-0.90795 5.56583,5.56583 0 0 0 -1.75329,-0.66974 29.13709,29.13709 0 0 0 -3.17989,-0.5377 q -1.97041,-0.245 -4.84606,-0.505 -3.28131,-0.32874 -5.65329,-0.76639 a 21.70944,21.70944 0 0 1 -3.9,-1.03183 6.13527,6.13527 0 0 1 -2.25832,-1.37214 2.52794,2.52794 0 0 1 -0.73235,-1.786 2.67251,2.67251 0 0 1 1.01,-2.00241 A 8.5278,8.5278 0 0 1 319.8627,8.413 23.20791,23.20791 0 0 1 324.29222,7.37436 40.08241,40.08241 0 0 1 330.02174,7 a 41.046,41.046 0 0 1 5.9936,0.40293 22.33642,22.33642 0 0 1 4.68135,1.15707 8.98894,8.98894 0 0 1 3.09276,1.84858 3.6797,3.6797 0 0 1 1.19791,2.47884 h -6.8648 Q 337.36501,9.94916 330.2232,9.94984 a 20.50924,20.50924 0 0 0 -5.32522,0.5268 q -1.84382,0.5268 -1.84314,1.447 a 0.79112,0.79112 0 0 0 0.40429,0.652 4.31246,4.31246 0 0 0 1.28775,0.51047 19.81093,19.81093 0 0 0 2.27057,0.42471 q 1.38848,0.194 3.35685,0.37435 1.71723,0.15927 3.52156,0.3512 1.803,0.194 3.53246,0.46555 1.72946,0.27155 3.25611,0.66293 a 14.7408,14.7408 0 0 1 2.68848,0.94743 5.687,5.687 0 0 1 1.82952,1.31089 2.57551,2.57551 0 0 1 0.66838,1.76282 2.90962,2.90962 0 0 1 -1.08492,2.178 9.13759,9.13759 0 0 1 -3.01654,1.69612 23.423,23.423 0 0 1 -4.60512,1.10534 39.72835,39.72835 0 0 1 -5.83023,0.39755 z"
         id="path77" />
      <path
         d="M 412.97107,99.7626 V 86.46724 l 1.81864,-0.67518 c 19.95053,-7.40658 52.2204,-25.28528 53.67967,-30.929 a 3.01315,3.01315 0 0 0 -0.6888,-2.65853 8.69976,8.69976 0 0 0 -6.53946,-2.94439 7.00067,7.00067 0 0 0 -7.005,5.05706 l -0.1579,2.07183 -2.55644,0.015 h -39.37562 l 0.91476,-3.49434 c 4.0402,-15.41347 23.40539,-25.3724 49.33727,-25.3724 29.10087,0 49.42711,10.41359 49.42711,25.3234 0,10.67359 -10.73485,19.2944 -32.7572,26.25177 h 31.01479 V 99.7626 Z"
         id="path79" />
      <path
         d="m 470.75586,55.56134 c 1.25636,-4.86029 -4.44509,-9.08951 -9.9283,-9.08951 A 9.76221,9.76221 0 0 0 451.108,53.6983 l 6.8e-4,-0.08261 H 415.3474 c 3.48481,-13.30038 20.88069,-23.2902 46.63833,-23.2902 25.75764,0 46.63833,8.96666 46.63833,22.53513 0,12.00574 -17.09582,20.05339 -38.21668,25.75474 v 3.2853 h 36.47427 v 15.0741 H 415.3474 v -8.56909 c 16.23192,-6.02491 53.31754,-24.75555 55.40846,-32.84433 z"
         fill="#ffffff"
         id="path81" />
      <path
         d="m 360.20209,102.91391 c -12.64877,0 -35.413,-1.55047 -45.7599,-11.93956 a 16.83893,16.83893 0 0 1 -5.20543,-12.29076 l -1.6e-4,-2.75759 2.788,0.0025 h 35.4416 l 2.4788,-0.0025 0.61394,2.27032 c 0.40565,2.20114 4.01842,4.57653 9.1517,4.57653 5.94868,0 10.39453,-2.64355 10.39453,-5.008 0,-2.36445 -4.44585,-5.00805 -10.39453,-5.00805 l -0.40973,-0.0014 a 10.52245,10.52245 0 0 0 -1.49194,0.05581 l -3.154,0.41926 V 54.67272 l 4.04973,0.57962 q 0.49413,0.03471 1.00324,0.03539 c 4.6868,0 8.1893,-2.29915 8.1893,-4.356 0,-2.05685 -3.5025,-4.356 -8.1893,-4.356 -4.43905,0 -7.80134,2.06911 -8.15663,4.00209 l -0.58955,2.25822 -2.46919,0.01235 h -35.27142 v -2.78787 c 0,-5.76355 5.62333,-12.28531 13.99368,-16.22886 8.12532,-3.82785 19.5721,-5.769 34.02181,-5.769 23.45576,0 47.20282,6.61161 47.20282,19.24677 0,5.28847 -4.62418,10.60416 -11.94364,14.32447 10.6559,3.77611 14.67159,11.06018 14.67159,17.06058 0,13.58123 -22.38717,24.21943 -50.96532,24.21943 z"
         id="path83" />
      <path
         d="m 312.02464,78.71563 h 35.70776 l 0.0853,-0.01579 c 0.70975,3.8647 5.764,6.86085 11.89362,6.86085 7.27986,0 13.18136,-3.49028 13.18136,-7.79577 0,-4.30549 -5.9015,-7.79577 -13.18136,-7.79577 a 16.29818,16.29818 0 0 0 -2.268,0.07919 V 57.88041 l 0.0528,0.04984 a 16.76945,16.76945 0 0 0 2.2123,0.14514 c 6.06251,0 10.97714,-3.19841 10.97714,-7.14386 0,-3.94545 -4.91463,-7.14385 -10.97714,-7.14385 -5.617,0 -10.24863,2.7456 -10.899,6.28712 l -0.0781,-0.01447 h -32.72183 c 0,-4.37841 4.7319,-10.09657 12.3938,-13.70691 8.2444,-3.88482 19.88657,-5.50286 32.833,-5.50286 24.978,0 44.41363,7.36865 44.41363,16.45835 0,5.59561 -7.36539,10.539 -18.855,13.51268 v 2.94118 c 14.5571,1.74688 21.5848,7.46979 21.5848,14.93107 0,11.83633 -21.56979,21.43158 -48.17748,21.43158 -26.60769,0 -48.23781,-6.505 -48.17748,-21.43158"
         fill="#ffffff"
         id="path85" />
      <polyline
         points="684.839 103.271 577.766 103.271 478.527 7 585.6 7 585.6 7.145 684.839 103.416"
         fill="#1d46a5"
         id="polyline87" />
      <polygon
         points="587.812,29.421 601.944,16.041 661.913,16.041 618.184,57.207 664.674,99.763 604.171,99.763 588.174,85.254 572.77,99.763 512.72,99.763 557.807,57.466 512.597,16.041 573.02,16.041 "
         id="polygon89" />
      <path
         d="M 561.90717,57.44123 519.76549,18.82928 h 52.18229 l 15.90761,14.38981 15.19975,-14.38981 h 51.82836 l -40.79676,38.40641 43.41309,39.73907 H 605.24676 L 588.13853,81.45783 571.66464,96.97476 h -51.89915 z"
         fill="#ffffff"
         id="path91" />
    </g>
  </g>
  <metadata
     id="metadata915">
    <rdf:RDF>
      <cc:Work
         rdf:about="">
        <dc:title>logo</dc:title>
      </cc:Work>
    </rdf:RDF>
  </metadata>
</svg>
