<?xml version="1.0" encoding="UTF-8" standalone="no"?>
<svg
   id="Ebene_2"
   data-name="Ebene 2"
   viewBox="0 0 196.39999 114"
   version="1.1"
   sodipodi:docname="segacd.svg"
   width="196.39999"
   height="114"
   inkscape:version="1.1 (c68e22c387, 2021-05-23)"
   xmlns:inkscape="http://www.inkscape.org/namespaces/inkscape"
   xmlns:sodipodi="http://sodipodi.sourceforge.net/DTD/sodipodi-0.dtd"
   xmlns="http://www.w3.org/2000/svg"
   xmlns:svg="http://www.w3.org/2000/svg">
  <defs
     id="defs27" />
  <sodipodi:namedview
     id="namedview25"
     pagecolor="#ffffff"
     bordercolor="#666666"
     borderopacity="1.0"
     inkscape:pageshadow="2"
     inkscape:pageopacity="0.0"
     inkscape:pagecheckerboard="0"
     showgrid="false"
     fit-margin-top="0"
     fit-margin-left="0"
     fit-margin-right="0"
     fit-margin-bottom="0"
     inkscape:zoom="1.113"
     inkscape:cx="98.382749"
     inkscape:cy="56.603774"
     inkscape:window-width="1920"
     inkscape:window-height="1138"
     inkscape:window-x="-8"
     inkscape:window-y="-8"
     inkscape:window-maximized="1"
     inkscape:current-layer="Ebene_2" />
  <g
     id="g855"
     transform="translate(-401.8)">
    <path
       d="m 408.8,3.5 h 182.4 a 3.54,3.54 0 0 1 3.5,3.5 v 100 a 3.54,3.54 0 0 1 -3.5,3.5 H 408.8 A 3.54,3.54 0 0 1 405.3,107 V 7 a 3.54,3.54 0 0 1 3.5,-3.5 z"
       fill="#ffffff"
       id="path2" />
    <path
       d="M 591.2,7 V 107 H 408.8 V 7 h 182.4 m 0,-7 H 408.8 a 7,7 0 0 0 -7,7 v 100 a 7,7 0 0 0 7,7 h 182.4 a 7,7 0 0 0 7,-7 V 7 a 7,7 0 0 0 -7,-7 z"
       fill="#ffffff"
       id="path4" />
    <rect
       x="408.79999"
       y="7"
       width="182.39999"
       height="100"
       id="rect6" />
    <path
       d="m 498.9,83.8 25,-24.7 a 1.42,1.42 0 0 0 0.2,-0.6 l -25.2,19.1 25.7,-26.7 -25.7,19.6 24.6,-26 -24.6,20.1 23.7,-26.7 c -8.6,-7.2 -28.8,-0.8 -46.4,14.9 -18.4,16.4 -26.9,36.9 -19.1,45.6 7.8,8.7 29.1,2.6 47.5,-13.8 a 87.46,87.46 0 0 0 12.6,-13.9 z"
       fill="#5a97d0"
       id="path8" />
    <path
       d="m 487.7,62.4 -8.6,-0.1 V 84 h 8.6 v -6 h 8.4 V 91.2 H 475 a 4.41,4.41 0 0 1 -4.1,-4.1 V 59.3 c 0,-3 1.4,-4.1 4,-4.1 h 21.2 v 14.4 h -8.4 z"
       fill="#010101"
       id="path10" />
    <path
       d="m 542.6,29.5 -25,24.7 a 1.42,1.42 0 0 0 -0.2,0.6 l 25.2,-19.1 -25.7,26.7 25.7,-19.6 -24.6,26 24.6,-20.1 -23.7,26.7 c 8.6,7.2 28.8,0.8 46.4,-14.9 18.4,-16.4 26.9,-36.9 19.1,-45.6 -7.8,-8.7 -29.1,-2.6 -47.5,13.8 a 87.46,87.46 0 0 0 -12.6,13.9 z"
       fill="#dead2c"
       id="path12" />
    <path
       d="m 571.2,54.4 a 4.49,4.49 0 0 1 -4.1,4.1 H 546 v -36 h 21.1 a 4.49,4.49 0 0 1 4.1,4.1 z M 554.4,51.2 H 563 V 29.5 l -8.6,0.1 z"
       fill="#010101"
       id="path14" />
    <path
       d="m 425.3,14.3 a 3.78,3.78 0 0 1 3,-2 c 2.5,-0.1 5,0 7.5,0 a 20.9,20.9 0 0 1 -0.1,2.5 c 1,-1.1 2.1,-2.6 3.8,-2.5 3.5,-0.1 6.9,0 10.4,0 v 20.3 h -7 V 18.1 c -1.3,-0.1 -1.9,1.1 -2.5,2.1 -2.5,4.2 -5.2,8.2 -7.7,12.4 h -7.4 c 3,-5 6.1,-9.8 9.2,-14.8 -1.5,0.1 -3.5,-0.4 -4.7,0.9 -2.9,4.6 -5.8,9.3 -8.7,13.9 h -7.4 c 3.9,-6.1 7.8,-12.2 11.6,-18.3 z"
       fill="#ffffff"
       id="path16" />
    <path
       d="m 453,14.7 c 0.9,-1.2 2.8,-2.7 4.6,-2.5 h 15.6 v 4.5 c -3.9,0.1 -7.7,-0.1 -11.6,0.1 -1.4,0.5 -1.7,2.3 -2.6,3.4 h 14.5 c -1,1.3 -1.9,2.7 -2.8,4 H 458.9 V 28 h 14.3 v 4.4 H 451.6 V 20 a 8.19,8.19 0 0 1 1.4,-5.3 z"
       fill="#ffffff"
       id="path18" />
    <path
       d="m 476.4,14.1 a 5.15,5.15 0 0 1 3.6,-1.9 h 16.7 c 0,1.5 0,3 -0.1,4.6 h -10.9 c -2.5,-0.1 -3.5,2.6 -4.2,4.5 -0.1,3 -0.6,3.1 -0.2,6.8 3.4,0.2 6.8,0.2 10.1,0.1 a 18.29,18.29 0 0 0 0.2,-3.3 38.66,38.66 0 0 0 -4.8,-0.3 c 0.8,-1.4 1.7,-2.9 2.5,-4.4 h 8.7 v 10.1 a 6.53,6.53 0 0 1 -0.5,2 c -6.7,0.3 -13.3,0.1 -20,0.1 -1.7,0.3 -2.9,-1.6 -2.8,-3.1 0,-3.7 -0.1,-7.4 0.1,-11.1 a 8,8 0 0 1 1.6,-4.1 z"
       fill="#ffffff"
       id="path20" />
    <path
       d="m 500,12.3 c 3.8,-0.1 7.5,0 11.3,0 2,-0.2 3.5,1.5 4.5,3 3.5,5.8 7.3,11.5 10.8,17.3 h -7.7 c -1,-1.3 -1.7,-2.9 -3.1,-3.8 -2.3,-0.1 -4.5,0 -6.8,0 a 36.16,36.16 0 0 1 -2,-3.3 c 0.1,2.4 0,4.7 0,7.1 h -7 z m 7.1,4.4 v 7.6 c 2.1,0 4.1,0 6.2,0.1 -1.3,-2.1 -2.4,-4.2 -3.8,-6.3 a 3.34,3.34 0 0 0 -2.4,-1.4 z"
       fill="#ffffff"
       id="path22" />
  </g>
</svg>
