<?xml version="1.0" encoding="UTF-8" standalone="no"?>
<svg
   viewBox="0 0 255.12038 114.00005"
   version="1.1"
   id="svg188"
   sodipodi:docname="snes.svg"
   width="255.12038"
   height="114.00005"
   inkscape:version="1.1 (c68e22c387, 2021-05-23)"
   xmlns:inkscape="http://www.inkscape.org/namespaces/inkscape"
   xmlns:sodipodi="http://sodipodi.sourceforge.net/DTD/sodipodi-0.dtd"
   xmlns="http://www.w3.org/2000/svg"
   xmlns:svg="http://www.w3.org/2000/svg"
   xmlns:rdf="http://www.w3.org/1999/02/22-rdf-syntax-ns#"
   xmlns:cc="http://creativecommons.org/ns#"
   xmlns:dc="http://purl.org/dc/elements/1.1/">
  <defs
     id="defs192" />
  <sodipodi:namedview
     id="namedview190"
     pagecolor="#ffffff"
     bordercolor="#666666"
     borderopacity="1.0"
     inkscape:pageshadow="2"
     inkscape:pageopacity="0.0"
     inkscape:pagecheckerboard="0"
     showgrid="false"
     fit-margin-top="0"
     fit-margin-left="0"
     fit-margin-right="0"
     fit-margin-bottom="0"
     inkscape:zoom="1.113"
     inkscape:cx="127.13387"
     inkscape:cy="56.603774"
     inkscape:window-width="1920"
     inkscape:window-height="1138"
     inkscape:window-x="-8"
     inkscape:window-y="-8"
     inkscape:window-maximized="1"
     inkscape:current-layer="svg188" />
  <title
     id="title2">logo</title>
  <g
     id="g1108"
     transform="translate(-372.44279)">
    <g
       id="Layer_2"
       data-name="Layer 2">
      <rect
         x="478.41751"
         y="73.12207"
         width="5.36728"
         height="4.3333302"
         fill="#ffffff"
         id="rect4" />
    </g>
    <g
       id="Ebene_1"
       data-name="Ebene 1">
      <path
         d="m 543.321,95.53092 a 3.49978,3.49978 0 0 0 -4.88281,0 h -4.72656 a 3.50149,3.50149 0 0 0 -4.208,-10e-4 h -4.7832 a 3.50017,3.50017 0 0 1 -3.5,-3.5 V 75.85514 a 3.50017,3.50017 0 0 1 3.5,-3.5 h 17.6123 a 8.78089,8.78089 0 0 1 9.00293,8.60889 l 0.001,11.06689 a 3.50017,3.50017 0 0 1 -3.5,3.5 z"
         fill="#030303"
         id="path7" />
      <path
         d="m 542.33283,75.85521 a 5.29873,5.29873 0 0 1 5.50394,5.20386 v 10.9721 h -4.51614 V 81.97641 a 2.48258,2.48258 0 0 0 -2.36319,-2.66816 c -0.30783,-0.02827 -0.61728,-0.03706 -0.93073,-0.03706 -0.51489,0 -1.04068,0.0237 -1.58859,0.0237 v 12.73628 h -4.72635 v -12.825 h -4.20816 V 92.03 h -4.78287 V 75.85521 h 17.61209 m 0,-7 h -17.61209 a 7,7 0 0 0 -7,7 V 92.03 a 7,7 0 0 0 7,7 h 4.78287 a 7.04089,7.04089 0 0 1 4.20816,0.0012 h 4.72635 a 7.03032,7.03032 0 0 1 4.88251,0 h 4.51614 a 7,7 0 0 0 7,-7 V 81.05907 q 0,-0.09558 -0.003,-0.19113 A 12.36578,12.36578 0 0 0 542.33283,68.85521 Z"
         fill="#ffffff"
         id="path9" />
      <path
         d="m 616.04661,95.53092 a 3.49983,3.49983 0 0 0 -4.88184,0 h -4.72656 a 3.50149,3.50149 0 0 0 -4.208,-10e-4 H 597.447 a 3.50017,3.50017 0 0 1 -3.5,-3.5 V 75.85514 a 3.50017,3.50017 0 0 1 3.5,-3.5 h 17.61133 a 8.78173,8.78173 0 0 1 9.0039,8.60889 l 10e-4,11.06689 a 3.50017,3.50017 0 0 1 -3.5,3.5 z"
         fill="#030303"
         id="path11" />
      <path
         d="m 615.05863,75.85521 a 5.29888,5.29888 0 0 1 5.50455,5.20386 v 10.9721 H 616.047 V 81.97641 a 2.48256,2.48256 0 0 0 -2.36319,-2.66816 c -0.30783,-0.02827 -0.61728,-0.03706 -0.93073,-0.03706 -0.51486,0 -1.04065,0.0237 -1.58856,0.0237 v 12.73628 h -4.72638 v -12.825 H 602.23 c 0,4.22214 0,12.82376 0,12.82376 h -4.78284 V 75.85521 h 17.61145 m 0,-7 h -17.61143 a 7,7 0 0 0 -7,7 V 92.03 a 7,7 0 0 0 7,7 H 602.23 a 7.02038,7.02038 0 0 1 4.20813,0.0012 h 4.72638 a 7.03038,7.03038 0 0 1 4.88248,0 h 4.51617 a 7,7 0 0 0 7,-7 V 81.05907 q 0,-0.09555 -0.003,-0.1911 a 12.222,12.222 0 0 0 -12.502,-12.01276 z"
         fill="#ffffff"
         id="path13" />
      <path
         d="m 470.91184,95.53 a 3.49881,3.49881 0 0 1 -2.88574,-1.52 l -2.30371,-3.357 v 1.377 a 3.50017,3.50017 0 0 1 -3.5,3.5 h -4.71094 a 3.50018,3.50018 0 0 1 -3.5,-3.5 V 75.85514 a 3.50018,3.50018 0 0 1 3.5,-3.5 h 13.041 a 8.67877,8.67877 0 0 1 8.51269,10.498 7.84748,7.84748 0 0 1 -2.22656,4.11767 l 2.23438,2.94532 a 3.5,3.5 0 0 1 -2.79,5.61377 z"
         fill="#030303"
         id="path15" />
      <path
         d="m 466.432,75.85413 q 2.0596,0 4.11846,0.0011 a 5.17792,5.17792 0 0 1 5.08661,6.28886 4.50055,4.50055 0 0 1 -3.23919,3.484 c -0.23694,0.08018 -0.4787,0.14154 -0.7952,0.23206 1.52725,2.01508 3.11526,4.10368 4.68079,6.16978 h -5.37156 l -4.1152,-5.99786 h -4.57446 v 5.99786 H 457.511 v -16.1747 h 0.68283 q 4.11918,0 8.2381,-0.0011 m -4.19822,7.27471 h 6.21476 a 2.70832,2.70832 0 0 0 0.97137,-0.2752 1.64427,1.64427 0 0 0 1.161,-1.5716 1.78241,1.78241 0 0 0 -1.1427,-1.86078 4.50854,4.50854 0 0 0 -1.47382,-0.29282 h -5.73114 c 5.8e-4,0 5.8e-4,2.6888 5.8e-4,4.0004 m 4.19822,-14.2747 -4.12,5.4e-4 -4.11807,5.4e-4 H 457.511 a 7,7 0 0 0 -7,7 v 16.17472 a 7,7 0 0 0 7,7 h 4.71118 a 6.97061,6.97061 0 0 0 4.345,-1.51138 7.00022,7.00022 0 0 0 4.34466,1.51138 h 5.37156 a 7,7 0 0 0 5.57925,-11.2275 l -0.63928,-0.84267 a 11.64537,11.64537 0 0 0 1.26922,-3.40107 12.17744,12.17744 0 0 0 -11.93841,-14.70348 l -4.12225,-0.0011 z"
         fill="#ffffff"
         id="path17" />
      <path
         d="m 510.03391,95.52457 a 13.04077,13.04077 0 0 1 -3.71679,-0.60351 7.8463,7.8463 0 0 1 -5.68555,-8.24268 8.48794,8.48794 0 0 1 2.21191,-5.35205 3.48517,3.48517 0 0 1 -0.92578,-2.37109 v -3.1001 a 3.50018,3.50018 0 0 1 3.5,-3.5 h 9.80274 a 10.1345,10.1345 0 0 1 10.32129,9.96386 c 10e-4,0.03564 0.002,9.706 0.002,9.706 a 3.50006,3.50006 0 0 1 -3.5,3.5 z"
         fill="#030303"
         id="path19" />
      <path
         d="m 515.22,75.85521 a 6.694,6.694 0 0 1 6.82407,6.57014 v 9.59914 h -12.0097 a 9.43561,9.43561 0 0 1 -2.66571,-0.44167 4.38806,4.38806 0 0 1 -3.24286,-4.70389 4.75519,4.75519 0 0 1 3.78717,-4.55624 7.81853,7.81853 0 0 1 1.568,-0.16768 h 7.663 a 3.29012,3.29012 0 0 0 -3.34735,-3.1997 H 505.418 v -3.1001 h 9.802 m 2.07584,9.344 h -5.87879 a 1.90809,1.90809 0 0 0 -2.11108,1.85654 c -0.017,1.07952 0.79764,1.79334 2.06491,1.79578 h 5.92435 c 6.1e-4,0 6.1e-4,-2.35227 6.1e-4,-3.65232 m 4.74823,6.8253 v 0 M 515.22,68.85521 h -9.802 a 7,7 0 0 0 -7,7 v 3.1001 a 6.99638,6.99638 0 0 0 0.32193,2.10466 12.18371,12.18371 0 0 0 -1.60254,5.41664 11.35235,11.35235 0 0 0 8.13568,11.78516 16.51123,16.51123 0 0 0 4.666,0.76208 q 0.0476,6.3e-4 0.0953,6.4e-4 h 12.00971 a 7,7 0 0 0 7,-7 v -9.59914 q 0,-0.107 -0.003,-0.21394 A 13.7398,13.7398 0 0 0 515.22,68.85521 Z"
         fill="#ffffff"
         id="path21" />
      <path
         d="m 380.44358,95.52311 a 3.499,3.499 0 0 1 -3.5,-3.499 v -3.17629 a 3.48736,3.48736 0 0 1 1.02051,-2.47022 8.7398,8.7398 0 0 1 -1.99951,-5.0918 8.5283,8.5283 0 0 1 6.4165,-8.8623 3.5234,3.5234 0 0 1 0.68653,-0.06787 h 13.91552 a 3.49985,3.49985 0 0 1 3.5,3.5 v 3.25879 a 3.48846,3.48846 0 0 1 -0.95215,2.3999 7.56008,7.56008 0 0 1 1.05079,1.54688 8.90473,8.90473 0 0 1 -0.14112,8.60205 8.16977,8.16977 0 0 1 -7.1123,3.85937 z"
         fill="#030303"
         id="path23" />
      <path
         d="m 396.98321,75.85583 v 3.25864 h -0.67069 q -1.99362,0 -3.98783,-3.3e-4 -2.66247,0 -5.32454,0.0034 a 4.94723,4.94723 0 0 0 -0.87906,0.07714 1.629,1.629 0 0 0 -1.40517,1.29034 1.78682,1.78682 0 0 0 0.75453,1.7733 1.26168,1.26168 0 0 0 0.7047,0.19986 h 7.03123 c 1.74292,0.04982 3.38074,0.49754 4.26648,2.2107 1.54549,2.99134 0.35416,7.2882 -4.19542,7.35442 h -12.83406 v -3.17542 l 10.579,-6e-4 a 1.65827,1.65827 0 0 0 1.7818,-1.44464 1.5647,1.5647 0 0 0 -1.14089,-1.74656 3.74076,3.74076 0 0 0 -1.23019,-0.229 h -6.52457 c -2.66208,-0.03948 -4.21666,-1.62324 -4.45663,-4.4384 a 5.00562,5.00562 0 0 1 3.61583,-5.13278 h 13.91545 m -16.5398,16.1674 v 0 m 16.53983,-23.16744 h -13.91545 a 7.0005,7.0005 0 0 0 -1.37282,0.13594 12.00242,12.00242 0 0 0 -9.21783,12.59014 12.958,12.958 0 0 0 1.37715,4.89738 6.98844,6.98844 0 0 0 -0.41088,2.36856 v 3.17542 a 7,7 0 0 0 7,7 h 12.83406 q 0.051,0 0.10189,-7.4e-4 a 11.599,11.599 0 0 0 10.06412,-5.56138 12.42559,12.42559 0 0 0 0.24844,-12.00536 q -0.0322,-0.06235 -0.0664,-0.12631 a 6.99154,6.99154 0 0 0 0.3577,-2.215 v -3.25865 a 7,7 0 0 0 -7,-7 z"
         fill="#ffffff"
         id="path25" />
      <path
         d="M 585.06809,95.97428 A 16.79522,16.79522 0 0 1 577.448,94.11 c -3.31641,-1.67041 -5.22266,-4.60693 -5.665,-8.72656 a 12.73968,12.73968 0 0 1 0.44433,-5.32568 c 0.88085,-2.73975 3.09961,-6.2666 8.66895,-7.51856 l 0.15723,-0.03564 a 17.426,17.426 0 0 1 4.0957,-0.51758 c 0.0264,-4.9e-4 0.15723,-4.9e-4 0.19531,0.001 a 16.78736,16.78736 0 0 1 6.55469,1.34179 10.59129,10.59129 0 0 1 6.45117,7.73682 c 1.14844,5.9668 -1.31934,9.6333 -3.59277,11.65869 a 13.48051,13.48051 0 0 1 -6.85352,3.00537 16.76216,16.76216 0 0 1 -2.836,0.24463 z M 583.446,85.44059 c 0.009,0 0.0625,0.02686 0.15821,0.05322 a 6.29666,6.29666 0 0 0 1.65527,0.20264 l 0.18848,-0.0024 c 1.21,-0.0293 1.582,-0.26367 1.54883,-1.66944 l -0.0381,-0.76025 c -0.0625,-1.02051 -0.63379,-1.17041 -0.84863,-1.227 a 3.46991,3.46991 0 0 0 -0.88477,-0.10791 5.30968,5.30968 0 0 0 -1.083,0.12207 c -0.42383,0.08838 -0.55761,0.17969 -0.69629,0.65234 a 5.54825,5.54825 0 0 0 -0.0684,2.50733 0.75022,0.75022 0 0 0 0.0674,0.23095 z"
         fill="#030303"
         id="path27" />
      <path
         d="m 585.22968,75.48525 a 13.23655,13.23655 0 0 1 5.20508,1.02243 7.24544,7.24544 0 0 1 4.4791,5.22208 c 0.60931,3.16508 0.051,6.1224 -2.48407,8.3817 a 9.994,9.994 0 0 1 -5.11942,2.16878 13.02,13.02 0 0 1 -8.2857,-1.29458 c -2.45432,-1.23688 -3.48282,-3.37954 -3.76105,-5.97541 a 9.33457,9.33457 0 0 1 0.29584,-3.88253 c 0.96109,-2.98768 3.19061,-4.51858 6.10418,-5.17408 a 14.55819,14.55819 0 0 1 3.566,-0.46839 m 0.0296,13.71086 q 0.13572,0 0.2705,-0.0032 c 3.2465,-0.079 5.04288,-2.01812 4.96573,-5.25186 -0.014,-0.294 -0.0249,-0.58989 -0.0425,-0.88453 a 4.61881,4.61881 0 0 0 -3.45544,-4.40438 6.964,6.964 0 0 0 -1.77249,-0.223 8.77345,8.77345 0 0 0 -1.80024,0.19624 4.16729,4.16729 0 0 0 -3.337,3.0934 9.01931,9.01931 0 0 0 -0.16159,4.0745 3.63262,3.63262 0 0 0 2.7435,3.07335 9.78231,9.78231 0 0 0 2.5896,0.32943 m -0.0297,-20.71085 q -0.0797,0 -0.15948,0.0018 A 20.9,20.9 0 0 0 580.285,69.0888 l -0.15338,0.03448 c -5.60727,1.26152 -9.596,4.76312 -11.23584,9.86074 a 16.1565,16.1565 0 0 0 -0.59277,6.76757 c 0.71829,6.70156 4.51379,9.94414 7.57141,11.48506 a 20.016,20.016 0 0 0 12.62268,1.9422 16.80713,16.80713 0 0 0 8.5932,-3.84444 c 4.16623,-3.713 5.8356,-9.01554 4.69736,-14.928 A 14.21309,14.21309 0 0 0 593.36359,70.14978 20.07145,20.07145 0 0 0 585.4602,68.489 q -0.11526,-0.0038 -0.23059,-0.0038 z m -1.73291,15.69958 z"
         fill="#ffffff"
         id="path29" />
      <path
         d="m 445.80882,95.5153 c -0.0537,0 -0.10743,-0.0015 -0.16065,-0.0039 a 10.5405,10.5405 0 0 1 -10.44531,-11.19092 15.03833,15.03833 0 0 1 0.895,-5.19092 10.48682,10.48682 0 0 1 9.92236,-6.77392 h 8.94727 a 3.50017,3.50017 0 0 1 3.5,3.5 v 3.272 a 3.49448,3.49448 0 0 1 -0.39258,1.60986 3.48162,3.48162 0 0 1 0.38965,1.60547 v 3.07276 a 3.48435,3.48435 0 0 1 -0.46192,1.73926 3.49618,3.49618 0 0 1 0.37891,1.584 v 3.27632 a 3.50017,3.50017 0 0 1 -3.5,3.5 z"
         fill="#030303"
         id="path31" />
      <path
         d="m 454.96742,75.85583 v 3.272 c 0,0 -4.54053,-0.014 -6.746,-0.014 -0.356,0 -0.65084,3.7e-4 -0.85626,0.0012 a 3.60049,3.60049 0 0 0 -3.53991,3.227 c 3.70758,6.3e-4 7.40725,6.3e-4 11.13974,6.3e-4 v 3.07273 h -11.2224 a 3.2074,3.2074 0 0 0 3.252,3.323 c 0.92868,0.0012 2.31488,0.0015 3.66684,0.0015 2.15289,0 4.21975,-9.2e-4 4.21975,-9.2e-4 v 3.27626 h -9.07241 a 7.02023,7.02023 0 0 1 -7.10837,-7.56826 11.92555,11.92555 0 0 1 0.65307,-4.0326 7.0483,7.0483 0 0 1 6.66672,-4.55868 h 8.94727 m 0,-7 h -8.94727 a 14.10044,14.10044 0 0 0 -13.17819,8.98943 18.375,18.375 0 0 0 -1.13718,6.35192 c -0.29571,8.19962 5.50034,14.42944 13.78186,14.81086 q 0.1609,0.0074 0.32206,0.0074 h 9.07241 a 7,7 0 0 0 7,-7 v -3.27626 a 6.99791,6.99791 0 0 0 -0.15966,-1.48669 7.00849,7.00849 0 0 0 0.2435,-1.837 v -3.07268 a 7.01728,7.01728 0 0 0 -0.185,-1.60566 6.99664,6.99664 0 0 0 0.18747,-1.60925 v -3.272 a 7,7 0 0 0 -7,-7 z"
         fill="#ffffff"
         id="path33" />
      <path
         d="m 404.74436,95.53043 a 7.97068,7.97068 0 0 1 -6.3247,-2.98339 8.845,8.845 0 0 1 -2.20118,-6.06641 c 0.0845,-3.13037 0.0249,-10.522 0.0244,-10.59619 a 3.50021,3.50021 0 0 1 3.5,-3.52881 h 4.62646 a 3.50007,3.50007 0 0 1 3.5,3.50683 l -0.0181,9.36036 h 0.94043 v -9.36719 a 3.49985,3.49985 0 0 1 3.5,-3.5 h 4.61133 a 3.49986,3.49986 0 0 1 3.5,3.5 v 16.16992 a 3.49986,3.49986 0 0 1 -3.49854,3.5 z"
         fill="#030303"
         id="path35" />
      <path
         d="M 416.90319,75.85582 V 92.0257 l -12.13847,0.0049 h -0.021 a 4.48732,4.48732 0 0 1 -3.6259,-1.71319 5.41945,5.41945 0 0 1 -1.4009,-3.74283 c 0.0875,-3.22885 0.0261,-10.71876 0.0261,-10.71876 h 4.62611 l -0.0201,10.33664 a 2.259,2.259 0 0 0 2.21255,2.53024 h 5.73 V 75.85582 h 4.61154 m -12.534,0 h 0.005 m 12.529,-7 h -4.61154 a 6.96843,6.96843 0 0 0 -3.95912,1.22639 6.96477,6.96477 0 0 0 -3.95831,-1.22639 h -4.63112 a 7,7 0 0 0 -6.99977,7.05732 c 6.1e-4,0.07368 0.0593,7.40382 -0.0238,10.47186 a 12.3644,12.3644 0 0 0 3.00224,8.39132 11.51527,11.51527 0 0 0 9.022,4.25428 l 12.16225,-0.0049 a 7,7 0 0 0 6.99719,-7 V 75.85582 a 7,7 0 0 0 -7,-7 z"
         fill="#ffffff"
         id="path37" />
      <path
         d="m 419.67014,95.52555 a 3.49986,3.49986 0 0 1 -3.5,-3.5 V 75.85563 a 3.49986,3.49986 0 0 1 3.5,-3.5 l 12.39063,-0.0015 a 8.85469,8.85469 0 0 1 -0.2627,17.707 c -0.89111,0.0039 -4.12939,0.0039 -4.12939,0.0039 v 1.96045 a 3.49985,3.49985 0 0 1 -3.5,3.5 z"
         fill="#030303"
         id="path39" />
      <path
         d="m 432.06117,75.8543 a 5.35738,5.35738 0 0 1 -0.27723,10.70693 q -1.31643,0.0058 -2.63333,0.0051 -2.1692,0 -4.33838,-0.0033 h -0.64334 v 5.46263 h -4.49853 V 75.85583 h 12.277 q 0.0568,-0.0015 0.1138,-0.0015 m -7.74039,7.56127 h 6.22446 a 1.52625,1.52625 0 0 0 0.74542,-0.3092 2.56907,2.56907 0 0 0 0.93435,-2.39837 2.05494,2.05494 0 0 0 -2.156,-1.59349 h -5.74817 v 4.30111 m 7.74039,-14.56126 q -0.0925,0 -0.18509,0.0015 h -12.20577 a 7,7 0 0 0 -7,7 v 16.1698 a 7,7 0 0 0 7,7 h 4.49853 a 7.00273,7.00273 0 0 0 6.83042,-5.46161 q 0.40791,-0.0011 0.81573,-0.0029 a 12.23916,12.23916 0 0 0 11.89282,-15.55686 12.19162,12.19162 0 0 0 -11.64669,-9.15 z"
         fill="#ffffff"
         id="path41" />
      <path
         d="m 486.5261,95.5319 a 3.50017,3.50017 0 0 1 -3.5,-3.5 v -9.56055 a 10.04236,10.04236 0 0 1 9.47363,-10.11181 c 0.0371,-0.0015 10.36231,-0.0029 10.36231,-0.0029 a 3.50006,3.50006 0 0 1 3.5,3.5 v 3.10058 a 3.4876,3.4876 0 0 1 -0.5127,1.82569 3.49221,3.49221 0 0 1 0.31348,1.45068 v 3.42285 a 3.50017,3.50017 0 0 1 -3.5,3.5 h -7.97559 v 2.87549 a 3.50017,3.50017 0 0 1 -3.5,3.5 z"
         fill="#030303"
         id="path43" />
      <path
         d="m 502.86222,75.85645 v 3.10068 h -7.89386 a 4.06843,4.06843 0 0 0 -3.27017,1.7745 2.77817,2.77817 0 0 0 -0.46838,1.50174 H 502.663 v 3.42328 h -11.4757 v 6.37512 h -4.66138 v -9.56024 a 6.496,6.496 0 0 1 6.08716,-6.61388 l 10.24914,-0.0012 m 0,-7 h -8.5e-4 l -10.24915,0.0012 q -0.11307,0 -0.22613,0.0037 a 13.569,13.569 0 0 0 -12.8602,13.6102 v 9.56024 a 7,7 0 0 0 7,7 h 4.66138 a 7.00037,7.00037 0 0 0 6.97247,-6.37512 h 4.5032 a 7,7 0 0 0 7,-7 v -3.42328 a 7.04027,7.04027 0 0 0 -0.10656,-1.22346 6.99922,6.99922 0 0 0 0.30581,-2.05278 v -3.10068 a 7,7 0 0 0 -7,-7 z"
         fill="#ffffff"
         id="path45" />
      <path
         d="m 565.30345,95.53043 a 10.52206,10.52206 0 0 1 -10.48045,-8.16992 13.17243,13.17243 0 0 1 1.61914,-10.49316 9.703,9.703 0 0 1 8.373,-4.51074 h 9.10938 a 3.50017,3.50017 0 0 1 3.5,3.5 v 3.19873 a 3.50017,3.50017 0 0 1 -3.5,3.5 h -7.48926 a 4.70344,4.70344 0 0 0 -0.041,2.80127 l 7.43847,0.0015 a 3.50017,3.50017 0 0 1 3.5,3.5 v 3.17236 a 3.50017,3.50017 0 0 1 -3.5,3.5 z"
         fill="#030303"
         id="path47" />
      <path
         d="m 573.92472,75.85644 v 3.19909 h -7.7286 a 2.89983,2.89983 0 0 0 -2.995,2.13295 8.27654,8.27654 0 0 0 -0.1391,5.23908 3.31628,3.31628 0 0 0 3.37528,2.43062 h 7.3957 v 3.17238 h -8.52994 a 6.98686,6.98686 0 0 1 -7.08466,-5.51916 9.61183,9.61183 0 0 1 1.15851,-7.73652 6.16252,6.16252 0 0 1 5.44565,-2.91844 h 9.10217 m -0.0917,13.00113 v 0 m 0.0917,-20.00113 h -9.10217 a 13.10937,13.10937 0 0 0 -11.31589,6.10524 16.63278,16.63278 0 0 0 -2.07944,13.24674 13.932,13.932 0 0 0 13.87583,10.82214 h 8.52994 a 7,7 0 0 0 7,-7 v -3.17238 a 6.97624,6.97624 0 0 0 -1.95685,-4.85457 6.97869,6.97869 0 0 0 2.04858,-4.94808 v -3.19909 a 7,7 0 0 0 -7,-7 z"
         fill="#ffffff"
         id="path49" />
      <path
         d="m 471.446,110.26432 a 3.50049,3.50049 0 0 1 -3.5,-3.5 v -2.91894 a 3.49074,3.49074 0 0 1 1.07129,-2.52 3.482,3.482 0 0 1 -0.86816,-2.30665 v -2.79445 a 3.50017,3.50017 0 0 1 3.5,-3.5 h 13.46877 a 3.50017,3.50017 0 0 1 3.5,3.5 v 10.54 a 3.50048,3.50048 0 0 1 -3.5,3.5 z"
         fill="#030303"
         id="path51" />
      <path
         d="m 485.11772,96.22414 v 10.54016 h -13.67185 v -2.91906 h 11.243 v -4.8266 h -11.03948 v -2.7945 h 13.46833 m 0,-7 h -13.46833 a 7,7 0 0 0 -7,7 v 2.7945 a 6.9946,6.9946 0 0 0 0.332,2.13651 6.97769,6.97769 0 0 0 -0.53555,2.69009 v 2.91906 a 7,7 0 0 0 7,7 h 13.67185 a 7,7 0 0 0 7,-7 V 96.22414 a 7,7 0 0 0 -7,-7 z"
         fill="#ffffff"
         id="path53" />
      <path
         d="m 383.60423,110.3112 h -4.15186 a 3.50018,3.50018 0 0 1 -3.5,-3.5 v -2.88526 a 3.49979,3.49979 0 0 1 1.03125,-2.481 c 0.0679,-0.0679 0.13867,-0.13232 0.21143,-0.19384 a 3.48612,3.48612 0 0 1 -0.86426,-2.30274 V 96.0983 a 3.49986,3.49986 0 0 1 3.5,-3.5 h 11.23535 a 3.4999,3.4999 0 0 1 3.46586,3.0127 16.17811,16.17811 0 0 1 -0.31006,6.32764 c 0.66309,0.93066 1.49756,2.10009 2.002,2.80029 a 3.49994,3.49994 0 0 1 -2.83985,5.5459 h -3.14355 a 3.49633,3.49633 0 0 1 -2.28711,-0.85059 9.57648,9.57648 0 0 1 -4.02,0.88281 q -0.16343,0 -0.3292,-0.006 z"
         fill="#030303"
         id="path55" />
      <path
         d="m 391.06616,96.09838 a 12.31,12.31 0 0 1 -0.53641,5.95352 c -0.0632,0.1774 -0.17314,0.49208 -0.17314,0.49208 0,0 2.08554,2.933 3.02716,4.241 h -3.14321 c 0,0 -1.07225,-1.44768 -1.49083,-2.04362 -0.21563,0.1713 -0.40943,0.3244 -0.60261,0.4781 a 6.60445,6.60445 0 0 1 -4.21547,1.59763 c -0.0872,0 -0.175,-0.002 -0.26364,-0.005 h -4.21546 V 103.926 c 0,0 0.77585,0.004 1.59656,0.004 0.48732,0 0.99031,-0.001 1.35651,-0.006 a 10.14929,10.14929 0 0 0 3.662,-0.57226 4.33685,4.33685 0 0 0 2.81883,-4.40378 H 379.831 v -2.8498 h 11.23514 m 0,-7 H 379.831 a 7,7 0 0 0 -7,7 v 2.8498 a 6.9987,6.9987 0 0 0 0.28859,1.99564 6.99922,6.99922 0 0 0 -0.66706,2.98222 v 2.88564 a 7,7 0 0 0 7,7 h 4.09873 q 0.19125,0.005 0.38039,0.005 a 13.02885,13.02885 0 0 0 3.7107,-0.53214 6.99548,6.99548 0 0 0 2.59819,0.5 h 3.14321 a 7,7 0 0 0 5.68094,-11.08986 c -0.29062,-0.40368 -0.69115,-0.9635 -1.105,-1.54309 a 20.05751,20.05751 0 0 0 0.0383,-6.028 7,7 0 0 0 -6.93187,-6.02564 z"
         fill="#ffffff"
         id="path57" />
      <rect
         x="547.21069"
         y="72.356613"
         width="11.98926"
         height="23.185061"
         rx="3.5"
         fill="#030303"
         id="rect59" />
      <path
         d="m 555.69966,75.85644 v 16.185 h -4.9888 v -16.185 h 4.9888 m 0,-7 h -4.9888 a 7,7 0 0 0 -7,7 v 16.185 a 7,7 0 0 0 7,7 h 4.9888 a 7,7 0 0 0 7,-7 v -16.185 a 7,7 0 0 0 -7,-7 z"
         fill="#ffffff"
         id="path61" />
      <path
         d="m 431.19407,110.27018 a 3.50006,3.50006 0 0 1 -3.49951,-3.5 v -2.90527 a 3.48486,3.48486 0 0 1 0.69922,-2.09912 3.49471,3.49471 0 0 1 -1.40137,-2.80127 v -2.752 a 3.49987,3.49987 0 0 1 3.5,-3.5 h 12.84717 a 3.49987,3.49987 0 0 1 3.5,3.5 v 5.19678 a 8.15476,8.15476 0 0 1 -0.5625,2.69727 9.14662,9.14662 0 0 1 -8.022,6.15185 c -0.0986,0.009 -0.19727,0.0127 -0.29639,0.0127 z"
         fill="#030303"
         id="path63" />
      <path
         d="m 443.33982,96.21259 v 5.19658 a 4.66508,4.66508 0 0 1 -0.342,1.4744 5.65425,5.65425 0 0 1 -5.03924,3.888 l -6.76392,-10e-4 v -2.90568 h 5.80652 q 0.13275,0.007 0.26327,0.007 c 2.23786,0 3.95411,-1.49315 3.89505,-4.30182 -0.004,-0.1865 -0.0273,-0.3718 -0.045,-0.60508 h -10.62212 v -2.752 h 12.84744 m 0,-7 h -12.84744 a 7,7 0 0 0 -7,7 v 2.752 a 6.96831,6.96831 0 0 0 0.868,3.37892 7.02532,7.02532 0 0 0 -0.16576,1.5212 v 2.90568 a 7,7 0 0 0 6.99875,7 l 6.76388,10e-4 h 0.001 q 0.29691,0 0.593,-0.0252 a 12.68664,12.68664 0 0 0 11.00134,-8.40742 11.46094,11.46094 0 0 0 0.78485,-3.766 q 0.002,-0.0819 0.002,-0.1638 v -5.19658 a 7,7 0 0 0 -7,-7 z"
         fill="#ffffff"
         id="path65" />
      <path
         d="m 445.04075,110.3151 a 3.50017,3.50017 0 0 1 -3.5,-3.5 v -2.57764 a 3.50238,3.50238 0 0 1 0.12793,-0.9414 3.48631,3.48631 0 0 1 -0.74561,-2.15967 V 98.631 a 3.49986,3.49986 0 0 1 3.5,-3.5 h 11.30909 a 3.50017,3.50017 0 0 1 3.5,3.5 v 3.68457 c 0,4.19092 -3.53907,5.24951 -6.32325,5.51709 a 6.00068,6.00068 0 0 1 -5.11523,2.48242 z"
         fill="#030303"
         id="path67" />
      <path
         d="m 455.73225,98.63105 v 3.6845 c 0,1.472 -1.0358,2.108 -5.22269,2.108 a 2.58778,2.58778 0 0 1 -0.16949,0.84382 2.43607,2.43607 0 0 1 -2.54663,1.5479 h -2.7526 v -2.57762 h 2.69974 c 0.89972,0 1.13116,-0.19744 1.2782,-1.1014 0.0437,-0.26974 0.0772,-0.5425 0.12332,-0.86508 0.7142,0 1.42682,0.002 2.139,0.002 q 0.66833,0 1.33648,-0.003 c 0.78367,-0.004 1.01938,-0.2509 1.05158,-1.13238 -3.07156,-10e-4 -6.14185,-10e-4 -9.24619,-10e-4 v -2.5053 h 11.30924 m 0,-7 H 444.423 a 7,7 0 0 0 -7,7 v 2.50534 a 6.97408,6.97408 0 0 0 0.62107,2.8867 c -0.002,0.0712 -0.003,0.14287 -0.003,0.2146 v 2.57762 a 7,7 0 0 0 7,7 h 2.7526 a 9.65449,9.65449 0 0 0 6.88644,-2.67372 11.66261,11.66261 0 0 0 2.822,-0.80918 8.53254,8.53254 0 0 0 5.23035,-8.01686 v -3.6845 a 7,7 0 0 0 -7,-7 z"
         fill="#ffffff"
         id="path69" />
      <path
         d="m 486.55833,110.26432 a 3.50048,3.50048 0 0 1 -3.5,-3.5 v -2.91894 a 3.50017,3.50017 0 0 1 3.5,-3.5 h 7.75879 c -0.009,-0.791 -0.006,-1.5835 -0.003,-2.37549 l 0.002,-1.65528 a 3.50017,3.50017 0 0 1 3.5,-3.5 h 2.16309 a 3.50018,3.50018 0 0 1 3.5,3.5 v 5.93946 a 3.46238,3.46238 0 0 1 -0.0361,0.50244 8.79987,8.79987 0 0 1 -8.96582,7.51074 z"
         fill="#030303"
         id="path71" />
      <path
         d="m 499.97962,96.31466 v 5.93954 a 5.36385,5.36385 0 0 1 -5.503,4.51254 c -0.0554,0 -0.11,-8.2e-4 -0.16437,-0.002 h -7.75415 v -2.919 h 7.97529 c 0.0426,0.002 0.0854,0.003 0.128,0.003 a 3.34816,3.34816 0 0 0 3.15741,-3.37365 c -0.0152,-1.20346 -0.002,-2.40752 -0.002,-3.6116 V 96.3147 h 2.16333 m 0,-7 h -2.16333 a 7,7 0 0 0 -7,7 v 0.53058 h -4.25821 a 7,7 0 0 0 -7,7 v 2.919 a 7,7 0 0 0 7,7 h 7.67054 q 0.12323,0.002 0.248,0.002 a 12.37651,12.37651 0 0 0 12.43051,-10.50766 6.999,6.999 0 0 0 0.0725,-1.00488 V 96.3142 a 7,7 0 0 0 -7,-7 z"
         fill="#ffffff"
         id="path73" />
      <path
         d="m 416.0427,110.23014 c -5.65429,0 -9.30322,-3.37012 -9.52343,-8.79492 -0.0459,-1.13281 -0.0342,-2.24121 -0.0229,-3.31348 0.005,-0.4624 0.01,-0.92529 0.01,-1.38769 l 10e-4,-0.64307 a 3.49986,3.49986 0 0 1 3.5,-3.5 h 2.45945 a 3.49986,3.49986 0 0 1 3.5,3.5 l 0.002,3.62988 c 0.003,0.19385 0.004,0.3877 -0.002,0.58106 h 0.74463 a 3.49985,3.49985 0 0 1 3.5,3.5 v 2.90869 a 3.5,3.5 0 0 1 -3.29736,3.49414 c -0.29642,0.0176 -0.58695,0.0254 -0.87113,0.0254 z"
         fill="#030303"
         id="path75" />
      <path
         d="m 412.46722,96.0911 v 3.47308 c 0,0.23208 0.0127,0.466 -0.002,0.69682 -0.178,2.73561 1.73732,3.54112 3.52152,3.54112 h 0.72491 v 2.9081 c -0.22743,0.0132 -0.45091,0.0198 -0.66905,0.0198 -3.57588,0 -5.87732,-1.77533 -6.02562,-5.43692 -0.062,-1.51694 -0.0103,-3.03994 -0.0103,-4.5593 10e-4,-0.206 10e-4,-0.4119 10e-4,-0.64274 h 2.45978 m 0,-7 h -2.45978 a 7,7 0 0 0 -7,7 l -10e-4,0.602 c -1.2e-4,0.4908 -0.005,0.94116 -0.01,1.39156 -0.0119,1.1167 -0.0241,2.2714 0.0259,3.4943 0.29433,7.267 5.5266,12.15114 13.01978,12.15114 0.35039,0 0.70937,-0.0104 1.07466,-0.0316 a 7,7 0 0 0 6.59439,-6.98824 v -2.9081 a 7.00178,7.00178 0 0 0 -4.244,-6.43658 V 96.0911 a 7,7 0 0 0 -7,-7 z"
         fill="#ffffff"
         id="path77" />
      <path
         d="m 470.17063,106.94108 a 3.48794,3.48794 0 0 1 -0.43847,-0.0273 L 456.4636,105.238 a 3.499,3.499 0 0 1 -3.06152,-3.47216 V 99.193 a 3.49838,3.49838 0 0 1 3.915,-3.4751 l 13.26855,1.58594 a 3.49979,3.49979 0 0 1 3.085,3.4751 v 2.66211 a 3.50092,3.50092 0 0 1 -3.5,3.5 z"
         fill="#030303"
         id="path79" />
      <path
         d="m 456.90171,99.193 13.269,1.5862 v 2.66208 l -13.269,-1.6755 V 99.193 m -2.7e-4,-7.00005 a 7,7 0 0 0 -6.99973,7.00005 v 2.57278 a 7,7 0 0 0 6.12305,6.94486 l 13.269,1.6755 a 7,7 0 0 0 7.87692,-6.94486 v -2.66208 a 7,7 0 0 0 -6.16909,-6.95052 l -13.269,-1.5862 a 7.001,7.001 0 0 0 -0.83114,-0.04953 z"
         fill="#ffffff"
         id="path81" />
      <path
         d="m 470.17063,103.4445 a 3.58265,3.58265 0 0 1 -0.43847,-0.0273 l -13.26856,-1.6748 a 3.50073,3.50073 0 0 1 -3.06152,-3.47266 v -2.57422 a 3.49922,3.49922 0 0 1 3.916,-3.47509 l 13.26856,1.5874 a 3.49965,3.49965 0 0 1 3.084,3.4751 v 2.66162 a 3.5,3.5 0 0 1 -3.5,3.5 z"
         fill="#030303"
         id="path83" />
      <path
         d="m 456.90171,95.6956 13.269,1.58742 v 2.66146 l -13.269,-1.67488 v -2.574 m -3e-4,-7 a 7.00007,7.00007 0 0 0 -6.9997,7 v 2.574 a 7,7 0 0 0 6.12338,6.9449 l 13.269,1.67488 a 7,7 0 0 0 7.87661,-6.9449 V 97.283 a 7,7 0 0 0 -6.16848,-6.95044 l -13.269,-1.58742 a 7.0043,7.0043 0 0 0 -0.83181,-0.0496 z"
         fill="#ffffff"
         id="path85" />
      <path
         d="m 470.18235,110.49967 a 3.46309,3.46309 0 0 1 -0.4375,-0.0273 l -13.28906,-1.67578 a 3.5004,3.5004 0 0 1 -3.0625,-3.47266 v -2.61084 a 3.49995,3.49995 0 0 1 3.5,-3.5 3.4636,3.4636 0 0 1 0.38184,0.021 c 2.23437,0.24511 4.47168,0.53515 6.71289,0.82568 2.18652,0.28369 4.37793,0.56787 6.57714,0.81006 a 3.5,3.5 0 0 1 3.11719,3.479 v 2.65088 a 3.49936,3.49936 0 0 1 -3.5,3.5 z"
         fill="#030303"
         id="path87" />
      <path
         d="m 456.8932,102.71287 c 4.41409,0.48478 8.83612,1.14574 13.28909,1.636 V 107 c -4.439,-0.5595 -8.8446,-1.11536 -13.28909,-1.6761 v -2.611 m -3.1e-4,-7 a 7.00008,7.00008 0 0 0 -6.99969,7 v 2.611 a 7,7 0 0 0 6.12378,6.94494 l 0.60913,0.0769 12.68081,1.59936 A 7,7 0 0 0 477.18229,107 v -2.65112 a 7,7 0 0 0 -6.23392,-6.958 c -2.15652,-0.23742 -4.373,-0.52488 -6.5166,-0.80288 -2.2106,-0.2867 -4.49646,-0.58314 -6.77438,-0.83332 a 7.00235,7.00235 0 0 0 -0.7645,-0.04187 z"
         fill="#ffffff"
         id="path89" />
      <path
         d="m 402.25852,110.18913 a 3.49932,3.49932 0 0 1 -3.5,-3.5 v -2.89356 a 3.49974,3.49974 0 0 1 3.23926,-3.49023 c 0.21094,-0.0156 0.89942,-0.0508 1.0332,-0.0601 0.004,-0.88867 0.003,-1.74268 0.003,-2.6084 l -10e-4,-1.40137 a 3.49986,3.49986 0 0 1 3.5,-3.5 h 2.4707 a 3.49986,3.49986 0 0 1 3.5,3.5 l 0.004,1.17237 c 0.004,0.82031 0.008,1.64208 -0.004,2.46386 l -0.002,0.44971 a 12.87811,12.87811 0 0 1 -0.19336,2.57568 c -0.85644,4.25977 -3.77929,6.81348 -8.231,7.19141 -0.37988,0.0332 -0.76806,0.0527 -1.167,0.0723 8e-5,0 -0.58632,0.0283 -0.6508,0.0283 z"
         fill="#030303"
         id="path91" />
      <path
         d="m 409.00384,96.23568 c 0,1.19009 0.0182,2.38565 0,3.58184 a 13.27408,13.27408 0 0 1 -0.12817,2.39232 c -0.551,2.74227 -2.22162,4.14742 -5.09572,4.39164 -0.49512,0.0431 -0.99448,0.0583 -1.5212,0.0881 v -2.89414 c 0.582,-0.0431 1.15,-0.0462 1.704,-0.13366 a 2.86014,2.86014 0 0 0 2.56913,-3.015 c 0.005,-1.45315 10e-4,-2.90751 10e-4,-4.41107 h 2.4707 m 0,-7 h -2.4707 a 7,7 0 0 0 -7,7 l 6.4e-4,1.11037 a 7.00273,7.00273 0 0 0 -4.275,6.44938 v 2.89414 a 7,7 0 0 0 6.99968,7 q 0.19737,0 0.39524,-0.0112 l 0.44191,-0.0225 c 0.43922,-0.0213 0.86668,-0.0438 1.29179,-0.0808 a 12.06029,12.06029 0 0 0 11.35112,-9.98629 16.03189,16.03189 0 0 0 0.26224,-3.25586 c 2.3e-4,-0.13671 2.4e-4,-0.2732 0.002,-0.409 0.0129,-0.84509 0.009,-1.69018 0.005,-2.53347 -0.002,-0.3854 -0.004,-0.77038 -0.004,-1.15478 a 7,7 0 0 0 -7,-7 z"
         fill="#ffffff"
         id="path93" />
      <path
         d="m 392.29466,96.58219 h 10.1626 a 3.5,3.5 0 0 1 3.5,3.5 v 2.70166 a 3.5,3.5 0 0 1 -3.5,3.5 h -10.16212 a 3.50049,3.50049 0 0 1 -3.50049,-3.50049 v -2.70117 a 3.5,3.5 0 0 1 3.50001,-3.5 z"
         fill="#030303"
         id="path95" />
      <path
         d="m 402.45741,100.08239 v 2.70094 h -10.16289 v -2.70094 h 10.16289 m 0,-7 h -10.16289 a 7,7 0 0 0 -7,7 v 2.70094 a 7,7 0 0 0 7,7 h 10.16289 a 7,7 0 0 0 7,-7 v -2.70094 a 7,7 0 0 0 -7,-7 z"
         fill="#ffffff"
         id="path97" />
      <path
         d="m 416.83518,96.484 h 10.17236 a 3.5,3.5 0 0 1 3.5,3.5 v 2.65234 a 3.5,3.5 0 0 1 -3.5,3.5 H 416.8347 a 3.49951,3.49951 0 0 1 -3.49951,-3.49951 V 99.984 a 3.5,3.5 0 0 1 3.49999,-3.5 z"
         fill="#030303"
         id="path99" />
      <path
         d="m 427.00776,99.984 v 2.65294 H 416.83515 V 99.984 h 10.17261 m 0,-7 h -10.17261 a 7,7 0 0 0 -7,7 v 2.65294 a 7,7 0 0 0 7,7 h 10.17261 a 7,7 0 0 0 7,-7 V 99.984 a 7,7 0 0 0 -7,-7 z"
         fill="#ffffff"
         id="path101" />
      <rect
         x="483.06808"
         y="92.724281"
         width="15.0293"
         height="9.7944298"
         rx="3.5"
         fill="#030303"
         id="rect103" />
      <path
         d="m 494.59776,96.22414 v 2.79451 h -8.02994 v -2.79451 h 8.02994 m 0,-7 h -8.02994 a 7,7 0 0 0 -7,7 v 2.79451 a 7,7 0 0 0 7,7 h 8.02994 a 7,7 0 0 0 7,-7 v -2.79451 a 7,7 0 0 0 -7,-7 z"
         fill="#ffffff"
         id="path105" />
      <path
         d="m 414.93772,103.38493 a 5.50912,5.50912 0 0 1 -5.40381,-5.37549 5.45745,5.45745 0 1 1 10.91407,-0.08106 5.46281,5.46281 0 0 1 -5.44825,5.45655 z"
         fill="#030303"
         id="path107" />
      <path
         d="m 414.98969,95.96776 a 1.95867,1.95867 0 0 1 0.01,3.91731 l -0.0222,-1.3e-4 a 1.982,1.982 0 0 1 -1.944,-1.93549 1.956,1.956 0 0 1 1.94825,-1.98167 h 0.008 m -0.0561,2.7468 0.0438,-8.7e-4 a 0.79885,0.79885 0 0 0 0.77942,-0.81528 0.87378,0.87378 0 0 0 -0.8235,-0.82986 h -0.004 a 0.84225,0.84225 0 0 0 -0.80068,0.88453 0.77564,0.77564 0 0 0 0.80484,0.76147 m 0.0561,-9.7468 -0.0557,1.8e-4 a 8.956,8.956 0 0 0 -8.89958,9.10317 9.03385,9.03385 0 0 0 8.85818,8.81332 l 0.107,6.4e-4 a 8.95866,8.95866 0 1 0 -0.01,-17.91731 z"
         fill="#ffffff"
         id="path109" />
      <g
         id="path2842">
        <path
           d="m 464.46067,59.03922 c -13.00683,0 -22.81592,-5.65722 -22.8164,-13.15869 -4.9e-4,-3.97558 2.69531,-7.51416 7.59179,-9.96289 a 34.80858,34.80858 0 0 1 15.22657,-3.19922 c 13.01074,0 22.82128,5.65723 22.82128,13.15869 0.001,3.9751 -2.69433,7.51368 -7.59082,9.96241 a 34.809,34.809 0 0 1 -15.22851,3.1997 z"
           fill="#01954b"
           id="path111" />
        <path
           d="m 464.46259,36.2184 c 10.66956,0 19.321,4.32478 19.3216,9.65865 l 6.1e-4,0.0012 c 6.1e-4,5.33509 -8.6478,9.66111 -19.31976,9.66111 h -0.002 c -10.66864,0 -19.31821,-4.32454 -19.31882,-9.65928 v -0.0012 c -6.1e-4,-5.33509 8.64841,-9.66048 19.31854,-9.66048 m 0,-7 a 38.34413,38.34413 0 0 0 -16.79165,3.56878 c -6.05509,3.028 -9.5275,7.8 -9.52689,13.0925 10e-4,9.65378 11.06977,16.6597 26.31882,16.6597 a 38.34875,38.34875 0 0 0 16.79532,-3.56918 c 6.0549,-3.02811 9.52722,-7.80024 9.52661,-13.09274 q 0,-0.06853 -10e-4,-0.137 c -0.1045,-9.582 -11.14185,-16.52209 -26.32084,-16.52209 z"
           fill="#ffffff"
           id="path113" />
      </g>
      <g
         id="path3624">
        <path
           d="m 497.74,74.30534 c -13.00781,0 -22.81934,-5.65674 -22.82227,-13.15772 -0.001,-3.97705 2.69532,-7.51514 7.5918,-9.96387 a 34.80408,34.80408 0 0 1 15.22656,-3.19921 c 13.00782,0 22.81836,5.65625 22.82129,13.15625 0.001,3.97753 -2.69433,7.51562 -7.59082,9.96435 A 34.79612,34.79612 0 0 1 497.74,74.30534 Z"
           fill="#f9ec2b"
           id="path116" />
        <path
           d="m 497.73606,51.4843 c 10.67078,0 19.31977,4.32236 19.321,9.658 v 0.0024 c 0.002,5.33325 -8.64658,9.66049 -19.31736,9.66049 -10.66952,0 -19.32034,-4.3248 -19.32217,-9.65927 v -0.0012 c -10e-4,-5.33568 8.64777,-9.66048 19.31854,-9.66048 m 0,-7 A 38.34711,38.34711 0 0 0 480.944,48.0528 c -6.05542,3.028 -9.52771,7.80048 -9.52649,13.09356 0.003,9.65367 11.07336,16.65891 26.32217,16.65891 A 38.33942,38.33942 0 0 0 514.532,74.23556 c 6.05512,-3.02864 9.52689,-7.80091 9.52509,-13.09317 -0.002,-9.653 -11.07178,-16.65809 -26.321,-16.65809 z"
           fill="#ffffff"
           id="path118" />
      </g>
      <g
         id="path3644">
        <path
           d="m 485.71458,46.27946 a 3.49978,3.49978 0 0 1 -3.499,-3.56983 l 0.01,-0.36767 A 14.42032,14.42032 0 0 0 467.82983,27.92985 c -0.3291,0 -0.65039,0.01416 -0.97461,0.03711 -0.082,0.0054 -0.16308,0.0083 -0.24414,0.0083 a 3.50116,3.50116 0 0 1 -3.499,-3.5835 21.392,21.392 0 1 1 22.83692,21.87988 c -0.0782,0.0054 -0.1563,0.0078 -0.23442,0.0078 z"
           fill="#323b98"
           id="path121" />
        <path
           d="m 484.49436,7 a 17.91107,17.91107 0 0 1 1.21985,35.77941 c 0.004,-0.14641 0.011,-0.29039 0.011,-0.43741 A 17.904,17.904 0 0 0 467.83,24.42982 c -0.41129,0 -0.81406,0.017 -1.21866,0.04557 A 17.89525,17.89525 0 0 1 484.49436,7 m 0,-7 a 24.89529,24.89529 0 0 0 -24.88107,24.30872 7.00005,7.00005 0 0 0 6.99768,7.16669 q 0.24586,0 0.493,-0.01737 c 0.26911,-0.019 0.50659,-0.02822 0.72608,-0.02822 A 10.916,10.916 0 0 1 478.72517,42.342 l -0.003,0.0565 -0.006,0.20634 a 7,7 0 0 0 6.99747,7.17458 q 0.234,0 0.46905,-0.01573 A 24.91106,24.91106 0 0 0 484.49436,0 Z"
           fill="#ffffff"
           id="path123" />
      </g>
      <g
         id="path3897">
        <path
           d="m 519.08567,61.96793 a 3.49963,3.49963 0 0 1 -3.498,-3.37207 14.34223,14.34223 0 0 0 -14.37989,-13.86718 c -0.13281,0 -0.26269,0.0059 -0.39355,0.01123 0,0 -0.28321,0.0098 -0.32422,0.0098 a 3.50079,3.50079 0 0 1 -3.49609,-3.374 c -0.009,-0.2583 -0.0127,-0.52393 -0.0127,-0.78613 a 21.38867,21.38867 0 1 1 22.24121,21.376 c -0.0459,0.0015 -0.0909,0.0024 -0.13676,0.0024 z"
           fill="#eb2d2f"
           id="path126" />
        <path
           d="m 518.36985,22.68993 a 17.89641,17.89641 0 0 1 0.71564,35.77819 17.89921,17.89921 0 0 0 -17.87817,-17.23967 c -0.24115,0 -0.47687,0.01276 -0.715,0.02127 -0.008,-0.21688 -0.0115,-0.43983 -0.0115,-0.66036 a 17.89413,17.89413 0 0 1 17.8891,-17.89943 m 0,-7 a 24.92249,24.92249 0 0 0 -24.8891,24.89943 c 0,0.31185 0.005,0.62712 0.0169,0.93381 a 7.00035,7.00035 0 0 0 6.9902,6.72662 c 0.0845,0 0.169,-0.0015 0.25412,-0.0045 l 0.21146,-0.0082 c 0.0843,-0.0034 0.16849,-0.0084 0.25409,-0.0086 a 10.85432,10.85432 0 0 1 10.88266,10.49522 7,7 0 0 0 6.99509,6.74446 c 0.0912,0 0.18237,-0.0018 0.27389,-0.0054 a 24.89638,24.89638 0 0 0 -0.98929,-49.77285 z"
           fill="#ffffff"
           id="path128" />
      </g>
      <path
         d="m 529.5036,92.03 h -4.78286 V 75.85522 h 17.61208 a 5.29874,5.29874 0 0 1 5.504,5.20386 v 10.97208 h -4.51616 V 81.97641 a 2.48256,2.48256 0 0 0 -2.36319,-2.66815 c -0.81344,-0.07472 -1.63783,-0.01336 -2.51931,-0.01336 V 92.03116 H 533.7118 V 79.2062 h -4.2082 z"
         fill="#030303"
         id="path131" />
      <path
         d="m 602.23,92.03 h -4.78285 V 75.85522 h 17.61146 a 5.29889,5.29889 0 0 1 5.50456,5.20386 V 92.03116 H 616.047 V 81.97641 a 2.48255,2.48255 0 0 0 -2.36319,-2.66815 C 612.87037,79.23354 612.046,79.2949 611.16452,79.2949 v 12.73626 h -4.72638 V 79.2062 H 602.23 c 0,4.22213 0,12.8238 0,12.8238 z"
         fill="#030303"
         id="path133" />
      <path
         d="m 471.60263,85.86016 c 1.52726,2.01508 3.11526,4.10367 4.68079,6.16979 h -5.37153 l -4.11521,-5.99787 h -4.57449 V 92.03 H 457.511 V 75.85522 h 0.68282 q 6.17922,0 12.35658,0 a 5.1779,5.1779 0 0 1 5.0866,6.28885 4.50054,4.50054 0 0 1 -3.23919,3.484 c -0.2369,0.08022 -0.47867,0.14157 -0.79518,0.23209 z m -9.36889,-2.73132 h 6.21475 a 2.70856,2.70856 0 0 0 0.97139,-0.2752 1.64429,1.64429 0 0 0 1.161,-1.57161 1.78244,1.78244 0 0 0 -1.14272,-1.86077 4.50843,4.50843 0 0 0 -1.4738,-0.29282 h -5.73116 c 5.4e-4,0 5.4e-4,2.6888 5.4e-4,4.0004 z"
         fill="#030303"
         id="path135" />
      <path
         d="m 522.04407,92.02448 h -12.0097 a 9.43532,9.43532 0 0 1 -2.66572,-0.44166 4.38806,4.38806 0 0 1 -3.24285,-4.70388 4.75521,4.75521 0 0 1 3.78717,-4.55626 7.81922,7.81922 0 0 1 1.568,-0.16767 h 7.663 A 3.29014,3.29014 0 0 0 513.79663,78.9553 H 505.418 v -3.10008 h 9.802 a 6.694,6.694 0 0 1 6.82406,6.57013 v 9.59973 0 z m -4.74822,-6.82528 h -5.87879 a 1.908,1.908 0 0 0 -2.11107,1.85652 c -0.017,1.07953 0.79764,1.79335 2.06489,1.79578 h 5.92436 c 6.1e-4,0 6.1e-4,-2.35225 6.1e-4,-3.6523 z"
         fill="#030303"
         id="path137" />
      <path
         d="m 380.44338,92.02387 v -3.176 l 10.579,-6e-4 a 1.6583,1.6583 0 0 0 1.7818,-1.44464 1.56474,1.56474 0 0 0 -1.14089,-1.74657 3.74136,3.74136 0 0 0 -1.23019,-0.229 h -6.52457 c -2.66207,-0.03948 -4.21666,-1.62324 -4.45663,-4.4384 a 5.00561,5.00561 0 0 1 3.61585,-5.13278 h 13.91543 v 3.25863 h -0.67068 q -4.65558,0 -9.31239,0.003 a 4.94732,4.94732 0 0 0 -0.87906,0.07715 1.629,1.629 0 0 0 -1.40515,1.29034 1.78677,1.78677 0 0 0 0.75452,1.77329 1.2615,1.2615 0 0 0 0.7047,0.19987 h 7.03123 c 1.74292,0.04982 3.38074,0.49755 4.26648,2.2107 1.54548,2.99134 0.35417,7.28819 -4.19541,7.35441 h -12.83404 z"
         fill="#030303"
         id="path139" />
      <path
         d="m 585.2297,75.48525 a 13.23677,13.23677 0 0 1 5.20506,1.02243 7.24551,7.24551 0 0 1 4.4791,5.22208 c 0.60932,3.16508 0.051,6.1224 -2.48406,8.3817 a 9.99394,9.99394 0 0 1 -5.11942,2.16878 13.07964,13.07964 0 0 1 -8.28572,-1.29459 c -2.45431,-1.23687 -3.4828,-3.37953 -3.761,-5.97538 a 9.33449,9.33449 0 0 1 0.29585,-3.88255 c 0.96107,-2.98769 3.19061,-4.51859 6.10418,-5.17409 a 14.55918,14.55918 0 0 1 3.56601,-0.46838 z m 5.26582,8.45581 c -0.014,-0.294 -0.0249,-0.58988 -0.0425,-0.88452 a 4.61883,4.61883 0 0 0 -3.45546,-4.40439 7.71817,7.71817 0 0 0 -3.57273,-0.02672 4.16728,4.16728 0 0 0 -3.337,3.09339 9.01926,9.01926 0 0 0 -0.16159,4.07452 3.63264,3.63264 0 0 0 2.74347,3.07334 9.95365,9.95365 0 0 0 2.86012,0.32623 c 3.2465,-0.07897 5.04288,-2.01811 4.96572,-5.25185 z"
         fill="#030303"
         id="path141" />
      <path
         d="m 454.965,82.34273 v 3.07274 h -11.2224 a 3.2074,3.2074 0 0 0 3.252,3.323 c 2.40753,0.003 7.88658,6.1e-4 7.88658,6.1e-4 v 3.27626 h -9.07242 a 7.02025,7.02025 0 0 1 -7.10837,-7.56826 11.92574,11.92574 0 0 1 0.65307,-4.03259 7.04833,7.04833 0 0 1 6.66672,-4.55869 h 8.94728 v 3.272 c 0,0 -6.12422,-0.01883 -7.60228,-0.01276 a 3.6005,3.6005 0 0 0 -3.53991,3.227 c 3.70754,6.9e-4 7.40722,6.9e-4 11.13973,6.9e-4 z"
         fill="#030303"
         id="path143" />
      <path
         d="M 412.29164,88.72271 V 75.85583 h 4.61155 v 16.16986 l -12.13849,0.0049 a 4.48951,4.48951 0 0 1 -3.64683,-1.71315 5.41948,5.41948 0 0 1 -1.4009,-3.74282 c 0.0875,-3.22887 0.0261,-10.71875 0.0261,-10.71875 h 4.62613 l -0.02,10.33664 a 2.259,2.259 0 0 0 2.21252,2.53024 z"
         fill="#030303"
         id="path145" />
      <path
         d="m 424.1689,86.563 v 5.46265 h -4.49854 V 75.85583 h 12.277 a 5.35407,5.35407 0 0 1 -0.16341,10.70539 c -2.32369,0.01033 -4.64739,0.0018 -6.97169,0.0018 z m 0.15188,-3.14746 h 6.22446 a 1.526,1.526 0 0 0 0.74541,-0.30922 2.569,2.569 0 0 0 0.93433,-2.39842 2.05491,2.05491 0 0 0 -2.156,-1.59347 h -5.74818 v 4.30111 z"
         fill="#030303"
         id="path147" />
      <path
         d="m 502.86222,75.85643 v 3.10069 h -7.89386 a 4.06851,4.06851 0 0 0 -3.27018,1.77451 2.77834,2.77834 0 0 0 -0.46838,1.50175 h 11.4332 v 3.42327 h -11.47571 v 6.37512 h -4.66137 v -9.56025 a 6.496,6.496 0 0 1 6.08716,-6.61387 z"
         fill="#030303"
         id="path149" />
      <path
         d="m 573.833,88.85757 v 3.173 h -8.52992 a 6.98686,6.98686 0 0 1 -7.08467,-5.51915 9.61187,9.61187 0 0 1 1.15851,-7.73653 6.16252,6.16252 0 0 1 5.44564,-2.91844 h 9.10219 v 3.19911 h -7.72862 a 2.8998,2.8998 0 0 0 -2.995,2.13294 8.27664,8.27664 0 0 0 -0.13912,5.23909 3.31629,3.31629 0 0 0 3.37528,2.43061 h 7.39571 z"
         fill="#030303"
         id="path151" />
      <path
         d="m 471.44588,106.76429 v -2.919 h 11.243 v -4.82664 h -11.03949 v -2.79451 h 13.46831 v 10.54015 z"
         fill="#030303"
         id="path153" />
      <path
         d="m 379.831,98.94817 v -2.84979 h 11.23513 a 12.30949,12.30949 0 0 1 -0.53642,5.95352 c -0.0632,0.17739 -0.17314,0.49207 -0.17314,0.49207 0,0 2.08555,2.933 3.02718,4.241 h -3.14321 c 0,0 -1.07224,-1.44768 -1.4908,-2.04363 -0.21566,0.17131 -0.40946,0.3244 -0.60265,0.4781 a 6.55272,6.55272 0 0 1 -4.47911,1.59227 h -4.21545 V 103.926 c 0,0 1.97013,0.01 2.95307,-0.002 a 10.14929,10.14929 0 0 0 3.662,-0.57226 4.33681,4.33681 0 0 0 2.81881,-4.40378 z"
         fill="#030303"
         id="path155" />
      <rect
         x="550.71088"
         y="75.85643"
         width="4.9888101"
         height="16.185061"
         fill="#030303"
         id="rect157" />
      <path
         d="m 431.19466,106.77036 v -2.90568 h 5.8065 c 2.365,0.12089 4.2197,-1.3772 4.15834,-4.295 -0.004,-0.1865 -0.0273,-0.37179 -0.045,-0.60507 h -10.62213 v -2.752 h 12.84744 v 5.19657 a 4.66426,4.66426 0 0 1 -0.342,1.47441 5.65423,5.65423 0 0 1 -5.03924,3.888 l -6.7639,-0.001 z"
         fill="#030303"
         id="path159" />
      <path
         d="m 444.423,101.1364 v -2.50534 h 11.30925 v 3.6845 c 0,1.472 -1.03579,2.108 -5.22268,2.108 a 2.58832,2.58832 0 0 1 -0.16949,0.84382 2.43611,2.43611 0 0 1 -2.54664,1.54791 h -2.75259 v -2.57763 h 2.69973 c 0.89971,0 1.13117,-0.19744 1.27819,-1.1014 0.0437,-0.26973 0.0772,-0.5425 0.12332,-0.86509 1.161,0 2.31762,0.005 3.47553,-0.001 0.78368,-0.004 1.01939,-0.2509 1.05157,-1.13238 -3.07154,-10e-4 -6.14185,-10e-4 -9.24619,-10e-4 z"
         fill="#030303"
         id="path161" />
      <path
         d="m 499.97963,96.31465 v 5.93955 a 5.38493,5.38493 0 0 1 -5.66739,4.51008 h -7.75415 v -2.919 h 7.97527 a 3.33218,3.33218 0 0 0 3.28537,-3.37042 c -0.0152,-1.20346 -0.002,-2.40752 -0.002,-3.61159 v -0.54858 z"
         fill="#030303"
         id="path163" />
      <path
         d="m 410.00744,96.0911 h 2.45977 v 3.47308 c 0,0.23207 0.0128,0.466 -0.002,0.69681 -0.178,2.73679 1.73867,3.54173 3.52352,3.54113 h 0.72292 v 2.90811 c -3.95544,0.22963 -6.53732,-1.53212 -6.69467,-5.41709 -0.062,-1.51693 -0.0103,-3.03994 -0.0103,-4.5593 10e-4,-0.20595 10e-4,-0.4119 10e-4,-0.64274 z"
         fill="#030303"
         id="path165" />
      <polygon
         points="470.171,100.779 470.171,103.441 456.902,101.766 456.902,99.193 "
         fill="#030303"
         id="polygon167" />
      <polygon
         points="470.171,97.283 470.171,99.944 456.902,98.27 456.902,95.696 "
         fill="#030303"
         id="polygon169" />
      <path
         d="M 470.18228,104.34886 V 107 c -4.439,-0.55951 -8.8446,-1.11538 -13.28909,-1.6761 v -2.611 c 4.4141,0.48475 8.83612,1.14571 13.28909,1.63596 z"
         fill="#030303"
         id="path171" />
      <path
         d="m 402.25876,106.68957 v -2.89414 c 0.582,-0.0431 1.15,-0.0462 1.704,-0.13365 a 2.86015,2.86015 0 0 0 2.56913,-3.015 c 0.005,-1.45314 0.001,-2.9075 0.001,-4.41107 h 2.4707 c 0,1.1901 0.0182,2.38566 0,3.58183 a 13.27339,13.27339 0 0 1 -0.12818,2.39234 c -0.551,2.74226 -2.22163,4.14741 -5.09572,4.39163 -0.49509,0.0431 -0.99445,0.0583 -1.52115,0.0881 z"
         fill="#030303"
         id="path173" />
      <path
         d="m 402.45741,100.08238 v 2.701 h -10.1629 v -2.701 z"
         fill="#030303"
         id="path175" />
      <path
         d="m 416.83515,99.984 h 10.17261 v 2.653 h -10.17261 z"
         fill="#030303"
         id="path177" />
      <path
         d="m 494.59777,96.22413 v 2.79451 h -8.03 v -2.79451 z"
         fill="#030303"
         id="path179" />
      <path
         d="m 416.94814,97.92332 a 1.95381,1.95381 0 0 1 -1.97074,1.96162 1.982,1.982 0 0 1 -1.944,-1.93549 1.95745,1.95745 0 1 1 3.91474,-0.02613 z m -1.19131,-0.02491 a 0.87323,0.87323 0 0 0 -0.82742,-0.82984 0.84224,0.84224 0 0 0 -0.80068,0.88452 0.77807,0.77807 0 0 0 0.84868,0.76059 0.79883,0.79883 0 0 0 0.77942,-0.81527 z"
         fill="#030303"
         id="path181" />
      <path
         id="path2842-2"
         data-name="path2842"
         d="m 483.78479,45.87827 c 6.1e-4,5.33508 -8.64778,9.6611 -19.31976,9.6611 -10.66955,6e-4 -19.32037,-4.3242 -19.321,-9.65928 v -0.0012 c -6.1e-4,-5.33508 8.64839,-9.66049 19.31854,-9.66049 10.66955,0 19.321,4.3248 19.32159,9.65867 z"
         fill="#01954b" />
      <path
         id="path3624-2"
         data-name="path3624"
         d="m 517.057,61.14478 c 0.002,5.33326 -8.64657,9.66049 -19.31733,9.66049 -10.66955,0 -19.32037,-4.32481 -19.3222,-9.65928 v -0.0012 c -10e-4,-5.33568 8.64779,-9.66049 19.31855,-9.66049 10.67076,0 19.31977,4.32237 19.321,9.65806 z"
         fill="#f9ec2b" />
      <path
         id="path3644-2"
         data-name="path3644"
         d="m 484.49436,7 a 17.89526,17.89526 0 0 0 -17.883,17.47538 c 0.40459,-0.02855 0.80737,-0.04556 1.21865,-0.04556 A 17.904,17.904 0 0 1 485.72515,42.342 c 0,0.147 -0.007,0.291 -0.0109,0.43741 A 17.91107,17.91107 0 0 0 484.49436,7 Z"
         fill="#323b98" />
      <path
         id="path3897-2"
         data-name="path3897"
         d="m 518.36985,22.68994 a 17.89412,17.89412 0 0 0 -17.88909,17.89942 c 0,0.22052 0.003,0.44348 0.0115,0.66036 0.23814,-0.0085 0.47385,-0.02127 0.715,-0.02127 a 17.89923,17.89923 0 0 1 17.87816,17.23968 17.89641,17.89641 0 0 0 -0.71564,-35.77819 z"
         fill="#eb2d2f" />
    </g>
  </g>
  <metadata
     id="metadata1009">
    <rdf:RDF>
      <cc:Work
         rdf:about="">
        <dc:title>logo</dc:title>
      </cc:Work>
    </rdf:RDF>
  </metadata>
</svg>
