<?xml version="1.0" encoding="UTF-8" standalone="no"?>
<svg
   id="Layer_1"
   data-name="Layer 1"
   viewBox="0 0 514.0014 63.68"
   version="1.1"
   sodipodi:docname="vic20.svg"
   width="514.0014"
   height="63.68"
   inkscape:version="1.1 (c68e22c387, 2021-05-23)"
   xmlns:inkscape="http://www.inkscape.org/namespaces/inkscape"
   xmlns:sodipodi="http://sodipodi.sourceforge.net/DTD/sodipodi-0.dtd"
   xmlns="http://www.w3.org/2000/svg"
   xmlns:svg="http://www.w3.org/2000/svg">
  <defs
     id="defs36" />
  <sodipodi:namedview
     id="namedview34"
     pagecolor="#ffffff"
     bordercolor="#666666"
     borderopacity="1.0"
     inkscape:pageshadow="2"
     inkscape:pageopacity="0.0"
     inkscape:pagecheckerboard="0"
     showgrid="false"
     fit-margin-top="0"
     fit-margin-left="0"
     fit-margin-right="0"
     fit-margin-bottom="0"
     inkscape:zoom="1.113"
     inkscape:cx="257.4124"
     inkscape:cy="31.446541"
     inkscape:window-width="1920"
     inkscape:window-height="1138"
     inkscape:window-x="-8"
     inkscape:window-y="-8"
     inkscape:window-maximized="1"
     inkscape:current-layer="Layer_1" />
  <g
     id="g873"
     transform="translate(-242.99859,-25.18)">
    <text
       transform="translate(565.16,61.3)"
       font-size="1.16px"
       fill="#ed1140"
       stroke="#ffffff"
       stroke-linecap="round"
       stroke-linejoin="round"
       stroke-width="7"
       font-family="ArialMT, Arial"
       id="text2">I don’t like bugs!</text>
    <path
       d="m 270.86,85.32 c -4.2,0 -9.16,-2.25 -13.63,-6.17 a 28.23,28.23 0 0 1 0,-44.3 c 4.47,-3.92 9.43,-6.17 13.63,-6.17 h 454.32 a 28.32,28.32 0 1 1 0,56.64 z"
       fill="#9c8661"
       id="path4" />
    <path
       d="m 725.18,32.18 a 24.82,24.82 0 1 1 0,49.64 H 270.86 c -3.34,0 -7.59,-2 -11.39,-5.36 a 24.73,24.73 0 0 1 0,-38.92 c 3.8,-3.35 8,-5.36 11.39,-5.36 h 454.32 m 0,-7 H 270.86 c -5,0 -10.79,2.54 -15.88,7 a 31.74,31.74 0 0 0 0,49.68 c 5.09,4.44 10.87,7 15.88,7 h 454.32 a 31.82,31.82 0 1 0 0,-63.64 z"
       fill="#ffffff"
       id="path6" />
    <path
       d="M 274.82,32.18 H 725.18 A 24.89,24.89 0 0 1 750,57 v 0 A 24.89,24.89 0 0 1 725.18,81.82 H 274.82 A 24.89,24.89 0 0 1 250,57 v 0 a 24.89,24.89 0 0 1 24.82,-24.82 z"
       fill="#9c8661"
       id="path8" />
    <text
       transform="translate(565.16,61.3)"
       font-size="1.16px"
       fill="#ed1140"
       font-family="ArialMT, Arial"
       id="text10">I don’t like bugs!</text>
    <path
       d="M 394.48,32.18 H 518.1 C 526,32.18 539,43.35 539,57 v 0 c 0,13.65 -13,24.82 -20.86,24.82 H 270.86 C 263,81.82 250,70.65 250,57 v 0 c 0,-13.65 13,-24.82 20.86,-24.82 z"
       fill="#100100"
       id="path12" />
    <path
       d="m 564.72,51.92 h 10.53 l -4.54,4.38 h -6 z m 0,5.82 h 6 l 4.54,4.39 h -10.55 z m -3.34,-12.38 a 14.77,14.77 0 0 1 3.08,0.35 v 5.23 a 7.21,7.21 0 0 0 -3.07,-0.65 7,7 0 0 0 -7.21,6.71 v 0 a 6.53,6.53 0 0 0 2.43,4.73 7.81,7.81 0 0 0 4.75,1.9 7.39,7.39 0 0 0 3.09,-0.62 v 5.28 a 13.86,13.86 0 0 1 -3.07,0.37 C 554.7,68.49 548.77,63.52 548.69,57 v 0 c 0.2,-6.92 6.31,-11.59 12.68,-11.64 z"
       fill="#100100"
       id="path14" />
    <path
       d="m 595.3,57.9 c 0,4.68 -4.9,4.51 -7.33,4.52 -5,0 -6.91,-1.78 -6.93,-5.63 -0.12,-5.53 3.58,-5.48 7.12,-5.49 4.22,-0.18 7.15,0.76 7.16,4.57 h -4 c -0.13,-1.2 -0.9,-1.61 -3.2,-1.61 -2.71,0 -3.22,0.43 -3.22,2.64 0,2.21 1.14,2.52 3.27,2.52 2.29,0 2.95,-0.31 3.13,-1.52 z m 95.8,4.25 h -3.56 v -1.39 h -0.19 c -0.73,1.28 -1.73,1.66 -4.47,1.66 -5.13,0 -6,-2.23 -6,-5.63 0,-5 2.49,-5.48 6,-5.49 2.65,0 3.52,0.35 4.25,1.69 h 0.15 v -5.74 h 3.78 z m -10.44,-5.41 c 0,2.32 0.42,2.68 3.27,2.68 a 5.67,5.67 0 0 0 2.85,-0.49 c 0.42,-0.29 0.57,-0.85 0.57,-2.08 0,-2.18 -0.5,-2.59 -3.2,-2.59 -3,0 -3.49,0.36 -3.49,2.48 m 31.81,-5.16 v 1.59 h 0.19 c 0.7,-1.34 1.79,-1.86 3.93,-1.86 3.08,0 4.11,1.08 4.11,4.25 v 0.71 h -3.59 c 0,-1.56 -0.44,-2 -2,-2 a 2.38,2.38 0 0 0 -2,0.75 c -0.36,0.52 -0.47,1.1 -0.47,2.73 v 4.38 h -3.82 V 51.59 Z m 23.38,7.2 c -0.29,2.92 -1.73,3.64 -7.32,3.64 -4.87,0 -6.72,-1.83 -6.74,-5.52 -0.11,-5.67 3.45,-5.59 7.14,-5.6 6,0 7.09,1.56 7,6.42 h -10.24 c 0,2.17 1.06,2.12 3.15,2.17 2.49,0 3,-0.18 3.12,-1.11 z M 732,55.56 c 0,-1.67 -0.93,-1.78 -3,-1.81 -2.07,-0.03 -3.38,0.06 -3.3,1.81 z"
       fill="#100100"
       stroke="#b6a385"
       stroke-miterlimit="2.92"
       stroke-width="0.22"
       id="path16" />
    <path
       id="a"
       d="m 616.27,51.58 v 1.59 h 0.18 c 0.56,-1.27 1.84,-1.86 4.1,-1.86 2.44,0 3.79,0.65 4.6,2.22 0.65,-1.59 1.89,-2.22 4.38,-2.22 2.1,0 3.34,0.41 4.21,1.37 0.87,0.96 1.07,1.81 1.07,4.53 v 4.94 H 631 v -4.94 c 0,-1.36 -0.09,-2.09 -0.42,-2.34 -1.12,-0.85 -3.4,-1 -4.39,0.09 -0.44,0.48 -0.56,1.31 -0.56,2.83 v 4.36 h -3.79 v -4.3 c -0.05,-1 0.1,-2.42 -0.41,-3 -0.76,-0.79 -3.52,-0.81 -4.41,0.06 -0.66,0.7 -0.56,1.32 -0.56,2.86 v 4.36 h -3.79 V 51.59 Z"
       fill="#100100"
       stroke="#b6a385"
       stroke-miterlimit="2.92"
       stroke-width="0.22" />
    <path
       id="a-2"
       data-name="a"
       d="m 640.54,51.58 v 1.59 h 0.19 c 0.55,-1.27 1.84,-1.86 4.09,-1.86 2.44,0 3.79,0.65 4.6,2.22 0.65,-1.59 1.89,-2.22 4.38,-2.22 2.1,0 3.34,0.41 4.22,1.37 0.88,0.96 1.07,1.81 1.07,4.53 v 4.94 h -3.79 v -4.94 c 0,-1.36 -0.09,-2.09 -0.43,-2.34 -1.11,-0.85 -3.4,-1 -4.39,0.09 -0.44,0.48 -0.56,1.31 -0.56,2.83 v 4.36 h -3.79 v -4.3 c 0,-1 0.11,-2.42 -0.41,-3 -0.76,-0.79 -3.52,-0.81 -4.41,0.06 -0.66,0.7 -0.55,1.32 -0.55,2.86 v 4.36 H 637 V 51.59 Z"
       fill="#100100"
       stroke="#b6a385"
       stroke-miterlimit="2.92"
       stroke-width="0.22" />
    <path
       id="b"
       d="m 610.84,56.67 c 0.06,5.26 -2.39,5.68 -7.2,5.75 -4.81,0.07 -7.19,-0.9 -7.24,-5.9 -0.05,-5 2.88,-5.16 7.22,-5.21 4.34,-0.05 7.16,0.11 7.22,5.36 z m -10.63,0.27 c 0.12,2.48 1.13,2.5 3.43,2.51 2.3,0.01 3.42,-0.31 3.39,-2.62 -0.03,-2.31 -0.73,-2.54 -3.39,-2.54 -2.66,0 -3.43,0.4 -3.43,2.65"
       fill="#100100"
       stroke="#b6a385"
       stroke-miterlimit="2.92"
       stroke-width="0.22" />
    <path
       id="b-2"
       data-name="b"
       d="m 675.38,56.67 c 0.06,5.26 -2.39,5.68 -7.21,5.75 -4.82,0.07 -7.18,-0.9 -7.23,-5.9 -0.05,-5 2.88,-5.16 7.22,-5.21 4.34,-0.05 7.16,0.11 7.22,5.36 z m -10.63,0.27 c 0.12,2.48 1.12,2.5 3.42,2.51 2.3,0.01 3.43,-0.31 3.4,-2.62 -0.03,-2.31 -0.73,-2.54 -3.4,-2.54 -2.67,0 -3.42,0.4 -3.42,2.65"
       fill="#100100"
       stroke="#b6a385"
       stroke-miterlimit="2.92"
       stroke-width="0.22" />
    <path
       id="b-3"
       data-name="b"
       d="m 707.31,56.67 c 0.06,5.26 -2.39,5.68 -7.21,5.75 -4.82,0.07 -7.18,-0.9 -7.23,-5.9 -0.05,-5 2.88,-5.16 7.22,-5.21 4.34,-0.05 7.16,0.11 7.22,5.36 z m -10.63,0.27 c 0.12,2.48 1.12,2.5 3.42,2.51 2.3,0.01 3.42,-0.31 3.39,-2.62 -0.03,-2.31 -0.72,-2.54 -3.39,-2.54 -2.67,0 -3.42,0.4 -3.42,2.65"
       fill="#100100"
       stroke="#b6a385"
       stroke-miterlimit="2.92"
       stroke-width="0.22" />
    <path
       d="m 391.3,51.94 v 6.63 h -7.36 v -6.63 z"
       fill="#9c8661"
       id="path23" />
    <path
       id="d"
       d="m 392.62,39.52 v 6.63 h 3.25 v 28.33 h 6.63 v -35 z"
       fill="#9c8661" />
    <path
       d="m 347.06,39.52 h 6.63 v 35 h -6.63 z m -27.24,0 7.23,35 h 9.12 l 7.23,-35 h -6.63 l -5.16,24.94 -5.16,-24.94 z"
       fill="#9c8661"
       id="path26" />
    <path
       id="c"
       d="m 411.62,39.52 -5.13,5.13 v 24.77 l 5.05,5.06 h 11.87 l 5,-5 V 44.61 l -5.09,-5.09 z m 1.5,6.63 h 8.68 v 21.7 h -8.68 z"
       fill="#9c8661" />
    <path
       d="m 363.1,39.52 -5.1,5.13 v 24.77 l 5,5.06 h 11.9 l 5,-5 v -9.36 h -6.63 v 7.73 h -8.67 v -21.7 h 8.68 v 6 h 6.63 v -7.54 l -5.09,-5.09 z"
       fill="#9c8661"
       id="path29" />
    <path
       id="c-2"
       data-name="c"
       d="m 437.58,39.52 -5.13,5.13 v 24.77 l 5.06,5.06 h 11.87 l 5,-5 V 44.61 l -5.08,-5.09 z m 1.5,6.63 h 8.68 v 21.7 h -8.68 z"
       fill="#9c8661" />
    <path
       id="d-2"
       data-name="d"
       d="m 457.61,39.52 v 6.63 h 3.26 v 28.33 h 6.62 v -35 z"
       fill="#9c8661" />
  </g>
</svg>
