<?xml version="1.0" encoding="UTF-8" standalone="no"?>
<svg
   id="Layer_1"
   data-name="Layer 1"
   viewBox="0 0 510.66663 114"
   version="1.1"
   sodipodi:docname="megadrive.svg"
   width="510.66663"
   height="114"
   inkscape:version="1.1 (c68e22c387, 2021-05-23)"
   xmlns:inkscape="http://www.inkscape.org/namespaces/inkscape"
   xmlns:sodipodi="http://sodipodi.sourceforge.net/DTD/sodipodi-0.dtd"
   xmlns:xlink="http://www.w3.org/1999/xlink"
   xmlns="http://www.w3.org/2000/svg"
   xmlns:svg="http://www.w3.org/2000/svg"
   xmlns:rdf="http://www.w3.org/1999/02/22-rdf-syntax-ns#"
   xmlns:cc="http://creativecommons.org/ns#"
   xmlns:dc="http://purl.org/dc/elements/1.1/">
  <sodipodi:namedview
     id="namedview145"
     pagecolor="#ffffff"
     bordercolor="#666666"
     borderopacity="1.0"
     inkscape:pageshadow="2"
     inkscape:pageopacity="0.0"
     inkscape:pagecheckerboard="0"
     showgrid="false"
     fit-margin-top="0"
     fit-margin-left="0"
     fit-margin-right="0"
     fit-margin-bottom="0"
     inkscape:zoom="1.113"
     inkscape:cx="255.61545"
     inkscape:cy="56.603774"
     inkscape:window-width="1920"
     inkscape:window-height="1138"
     inkscape:window-x="-8"
     inkscape:window-y="-8"
     inkscape:window-maximized="1"
     inkscape:current-layer="Layer_1" />
  <defs
     id="defs43">
    <linearGradient
       id="linear-gradient"
       x1="524.72339"
       y1="-123"
       x2="524.72339"
       y2="-222"
       gradientTransform="matrix(1,0,0,-1,-24.5,-115.5)"
       gradientUnits="userSpaceOnUse">
      <stop
         offset="0"
         stop-color="#d9dde9"
         id="stop2" />
      <stop
         offset="0.39"
         stop-color="#777489"
         id="stop4" />
      <stop
         offset="0.98"
         stop-color="#d9dde9"
         id="stop6" />
    </linearGradient>
    <linearGradient
       id="linear-gradient-2"
       x1="552.05017"
       y1="-87.698349"
       x2="552.05017"
       y2="-378.05536"
       xlink:href="#linear-gradient"
       gradientTransform="translate(-244.66669)" />
    <linearGradient
       id="linear-gradient-3"
       x1="446.03824"
       y1="-157.0379"
       x2="494.83408"
       y2="-205.83374"
       gradientTransform="matrix(1,0,0,-1,-24.5,-115.5)"
       gradientUnits="userSpaceOnUse">
      <stop
         offset="0"
         id="stop10" />
      <stop
         offset="0.11"
         stop-color="#181c4e"
         id="stop12" />
      <stop
         offset="0.22"
         stop-color="#181818"
         id="stop14" />
      <stop
         offset="0.34"
         stop-color="#181c4e"
         id="stop16" />
      <stop
         offset="0.47"
         id="stop18" />
      <stop
         offset="0.59"
         stop-color="#181c4e"
         id="stop20" />
      <stop
         offset="0.72"
         id="stop22" />
      <stop
         offset="0.84"
         stop-color="#181c4e"
         id="stop24" />
      <stop
         offset="0.98"
         id="stop26" />
    </linearGradient>
    <linearGradient
       id="linear-gradient-4"
       x1="643.12762"
       y1="-167.66515"
       x2="694.55353"
       y2="-222.37068"
       xlink:href="#linear-gradient-3"
       gradientTransform="translate(-244.66669)" />
    <linearGradient
       id="linear-gradient-5"
       x1="514.55103"
       y1="-157.21744"
       x2="563.91571"
       y2="-206.58215"
       xlink:href="#linear-gradient-3"
       gradientTransform="translate(-244.66669)" />
    <linearGradient
       id="linear-gradient-6"
       x1="373.21799"
       y1="-157.21771"
       x2="422.58255"
       y2="-206.58231"
       xlink:href="#linear-gradient-3"
       gradientTransform="translate(-244.66669)" />
    <linearGradient
       id="linear-gradient-7"
       x1="308.19186"
       y1="-161.52486"
       x2="356.80853"
       y2="-210.14153"
       xlink:href="#linear-gradient-3"
       gradientTransform="translate(-244.66669)" />
    <linearGradient
       id="linear-gradient-8"
       x1="580.51807"
       y1="-156.85149"
       x2="630.02356"
       y2="-206.35699"
       xlink:href="#linear-gradient-3"
       gradientTransform="translate(-244.66669)" />
    <linearGradient
       id="linear-gradient-9"
       x1="682.51843"
       y1="-156.85187"
       x2="732.02399"
       y2="-206.35738"
       xlink:href="#linear-gradient-3"
       gradientTransform="translate(-244.66669)" />
    <linearGradient
       id="linear-gradient-10"
       x1="524.72333"
       y1="-126.5"
       x2="524.72333"
       y2="-218.5"
       xlink:href="#linear-gradient" />
    <linearGradient
       id="linear-gradient-11"
       x1="448.48438"
       y1="-159.48441"
       x2="493.22879"
       y2="-204.22881"
       xlink:href="#linear-gradient-3" />
    <linearGradient
       id="linear-gradient-12"
       x1="645.51306"
       y1="-170.20271"
       x2="690.01129"
       y2="-217.53876"
       xlink:href="#linear-gradient-3"
       gradientTransform="translate(-244.66669)" />
    <linearGradient
       id="linear-gradient-13"
       x1="517.64258"
       y1="-160.30927"
       x2="561.91107"
       y2="-204.57774"
       xlink:href="#linear-gradient-3" />
    <linearGradient
       id="linear-gradient-14"
       x1="376.3096"
       y1="-160.30959"
       x2="420.57806"
       y2="-204.57806"
       xlink:href="#linear-gradient-3" />
    <linearGradient
       id="linear-gradient-15"
       x1="310.66666"
       y1="-164"
       x2="354.33334"
       y2="-207.66667"
       xlink:href="#linear-gradient-3" />
    <linearGradient
       id="linear-gradient-16"
       x1="583.47284"
       y1="-159.80617"
       x2="628.07257"
       y2="-204.4059"
       xlink:href="#linear-gradient-3" />
    <linearGradient
       id="linear-gradient-17"
       x1="685.47314"
       y1="-159.8065"
       x2="730.07288"
       y2="-204.40623"
       xlink:href="#linear-gradient-3" />
    <linearGradient
       inkscape:collect="always"
       xlink:href="#linear-gradient"
       id="linearGradient964"
       gradientUnits="userSpaceOnUse"
       gradientTransform="matrix(1,0,0,-1,-269.16669,-115.5)"
       x1="524.72339"
       y1="-123"
       x2="524.72339"
       y2="-222" />
    <linearGradient
       inkscape:collect="always"
       xlink:href="#linear-gradient-3"
       id="linearGradient966"
       gradientUnits="userSpaceOnUse"
       gradientTransform="matrix(1,0,0,-1,-269.16669,-115.5)"
       x1="446.03824"
       y1="-157.0379"
       x2="494.83408"
       y2="-205.83374" />
  </defs>
  <title
     id="title45">logo</title>
  <path
     d="m 190.99999,59.954 30.66663,17.13933 -30.66663,-17.13928 v -5e-5 m 0.006,-7.00126 a 7.00091,7.00091 0 0 0 -3.42145,13.11167 l 30.66663,17.13934 a 7,7 0 0 0 6.83014,-12.22084 L 194.41506,53.84357 a 6.96934,6.96934 0 0 0 -3.40869,-0.89084 z"
     fill="#ffffff"
     id="path47" />
  <path
     d="m 38.99981,110.5 a 3.50746,3.50746 0 0 1 -1.71582,-0.44922 l -32,-18 A 3.50057,3.50057 0 0 1 3.49981,89 V 53.6665 a 3.49921,3.49921 0 0 1 1.78418,-3.05029 l 32,-18 A 3.4975,3.4975 0 0 1 38.99981,32.1665 H 197.65313 L 213.30743,5.24072 A 3.50019,3.50019 0 0 1 216.33331,3.5 h 78.667 a 3.49823,3.49823 0 0 1 3.02539,1.74072 L 313.68,32.1665 h 157.98631 a 3.49744,3.49744 0 0 1 1.71582,0.44971 l 32,18 a 3.49821,3.49821 0 0 1 1.78418,3.05029 V 89 a 3.49956,3.49956 0 0 1 -1.78418,3.05078 l -32,18 A 3.50741,3.50741 0 0 1 471.66631,110.5 Z m 431.978,-11 25.63574,-14.38281 V 57.54932 L 470.97784,43.1665 H 309.00031 a 3.4982,3.4982 0 0 1 -3.02539,-1.74072 L 290.31963,14.5 h -69.52587 l -15.6543,26.92578 a 3.5002,3.5002 0 0 1 -3.02588,1.74072 H 40.13458 L 14.49981,57.54932 V 85.11719 L 40.13506,99.5 Z"
     fill="#c2c4d2"
     id="path49" />
  <path
     d="m 294.99999,7 16.66663,28.66669 h 160 l 32,18 V 89 l -32,18 H 38.99999 l -32,-18 V 53.66669 l 32,-18 H 199.66662 L 216.33331,7 h 78.66668 m -255.78,96 h 432.67332 l 28.22,-15.83331 V 55.5 l -28.22,-15.83331 H 308.99999 L 292.33331,11 H 218.77999 L 202.11331,39.66669 H 39.21999 L 10.99999,55.5 V 87.16669 L 39.21999,103 m 255.78,-103 h -78.66668 a 6.99986,6.99986 0 0 0 -6.05155,3.48169 l -14.64245,25.185 H 38.99999 a 7,7 0 0 0 -3.43184,0.899 l -32,18 A 6.99983,6.99983 0 0 0 0,53.66669 V 89 a 6.99983,6.99983 0 0 0 3.56815,6.101 l 32,18 A 7,7 0 0 0 38.99999,114 h 432.66663 a 6.99981,6.99981 0 0 0 3.43182,-0.899 l 32,-18 A 6.99982,6.99982 0 0 0 510.66662,89 V 53.66669 a 6.99982,6.99982 0 0 0 -3.56818,-6.101 l -32,-18 a 6.99981,6.99981 0 0 0 -3.43182,-0.899 H 315.69393 L 301.05154,3.48169 A 7,7 0 0 0 294.99999,0 Z m -72.19268,18 h 65.49871 l 14.64243,25.185 a 6.99982,6.99982 0 0 0 6.05154,3.48169 H 470.06371 L 493.11331,59.599 V 83.06765 L 470.06371,96 H 41.04957 L 17.99999,83.06765 V 59.599 L 41.04957,46.66665 h 161.06374 a 6.99979,6.99979 0 0 0 6.05155,-3.48169 z"
     fill="#ffffff"
     id="path51" />
  <path
     d="m 39.22002,106.5 a 3.50465,3.50465 0 0 1 -1.7124,-0.44727 L 9.28741,90.21973 A 3.5017,3.5017 0 0 1 7.49981,87.16699 V 55.5 a 3.49977,3.49977 0 0 1 1.7876,-3.05225 L 37.50762,36.61426 a 3.49983,3.49983 0 0 1 1.7124,-0.44776 H 200.09991 L 215.7542,9.24072 A 3.50022,3.50022 0 0 1 218.78008,7.5 h 73.55323 a 3.49823,3.49823 0 0 1 3.02539,1.74072 l 15.65527,26.92578 h 160.87891 a 3.503,3.503 0 0 1 1.71289,0.44776 l 28.2207,15.83349 A 3.50031,3.50031 0 0 1 503.61358,55.5 v 31.667 a 3.50224,3.50224 0 0 1 -1.78711,3.05274 l -28.2207,15.833 a 3.50786,3.50786 0 0 1 -1.71289,0.44727 z M 458.01885,90.833 470.83331,83.0332 V 69.833 h -42.5 a 3.50048,3.50048 0 0 1 -3.5,-3.5 v -8.6665 a 3.50017,3.50017 0 0 1 3.5,-3.5 h 30.35156 l 3.833,-2.333 h -34.53613 l -12.81543,7.80029 V 72.167 h 41.834 a 3.50049,3.50049 0 0 1 3.5,3.5 V 85 a 3.50048,3.50048 0 0 1 -3.5,3.5 h -29.01857 l -3.833,2.333 z m -61.85254,0 V 51.1665 h -9 V 90.833 Z m -40.14746,0 12.81446,-7.7998 V 69.833 h -42.5 a 3.50048,3.50048 0 0 1 -3.5,-3.5 v -8.6665 a 3.50017,3.50017 0 0 1 3.5,-3.5 h 30.35156 l 3.833,-2.333 h -34.53613 l -12.81543,7.80029 V 72.167 h 41.834 a 3.50049,3.50049 0 0 1 3.5,3.5 V 85 a 3.50048,3.50048 0 0 1 -3.5,3.5 h -29.01857 l -3.833,2.333 z m -67.334,0 3.833,-2.333 h -30.85154 a 3.50049,3.50049 0 0 1 -3.5,-3.5 v -9.333 a 3.5005,3.5005 0 0 1 3.5,-3.5 h 15.68555 l 3.834,-2.334 h -19.51955 a 3.50049,3.50049 0 0 1 -3.5,-3.5 V 57 a 3.50017,3.50017 0 0 1 3.5,-3.5 h 25.68555 l 3.833,-2.3335 h -28.459 l -13.55908,9.03955 V 90.833 Z m -54.51807,0 V 51.1665 h -9 v 13.26026 a 3.50023,3.50023 0 0 1 -5.207,3.05566 L 190.75567,51.1665 H 178.49981 V 90.833 h 9 V 59.9541 a 3.49993,3.49993 0 0 1 5.20752,-3.05517 l 30.667,17.13916 a 3.50143,3.50143 0 0 1 1.79248,3.05566 V 90.833 Z m -86.81494,0 3.833,-2.333 h -30.85153 a 3.50017,3.50017 0 0 1 -3.5,-3.5 v -9.333 a 3.50017,3.50017 0 0 1 3.5,-3.5 h 15.685 l 3.834,-2.334 h -19.519 a 3.50017,3.50017 0 0 1 -3.5,-3.5 V 57 a 3.49985,3.49985 0 0 1 3.5,-3.5 h 25.685 l 3.8335,-2.3335 h -28.459 l -13.5595,9.03955 V 90.833 Z m -70.74463,0 13.55959,-9.039 V 67.833 h -14.852 l -3.834,2.334 h 6.186 a 3.50017,3.50017 0 0 1 3.5,3.5 V 85 a 3.50017,3.50017 0 0 1 -3.5,3.5 h -30 a 3.50017,3.50017 0 0 1 -3.5,-3.5 V 57 a 3.49986,3.49986 0 0 1 3.5,-3.5 h 32.35156 l 3.8335,-2.3335 H 48.72637 L 35.1668,60.20605 V 90.833 Z M 282.84502,27.69385 q 0.11427,0.041 0.22266,0.09033 l -0.125,-0.377 z"
     fill="#c2c4d2"
     id="path53" />
  <path
     d="m 292.33331,11 16.66668,28.66669 H 471.89331 L 500.11331,55.5 V 87.16669 L 471.89331,103 H 39.21998 l -28.22,-15.83331 V 55.5 l 28.22,-15.83331 H 202.11337 L 218.77996,11 h 73.55335 M 272.37399,36.26723 V 23.40669 h -8.754 V 26.24 h 5.66 v 8.5 h -7.72 a 2.57005,2.57005 0 0 1 -2.57269,-2.57331 v -10.82 a 2.56967,2.56967 0 0 1 2.57269,-2.57338 h 10.814 V 15.68 h -11.07334 a 5.41153,5.41153 0 0 0 -5.40667,5.41331 v 11.33338 a 5.40582,5.40582 0 0 0 5.40667,5.40662 h 13.646 l 6.26068,-18.38 a 1.74839,1.74839 0 0 1 3.44662,0 L 289.94668,35 h -8.3067 v 2.83331 h 12.36 L 287.75331,18.8 a 5.01824,5.01824 0 0 0 -9.6467,0 l -5.7326,17.46723 m -28.8407,1.44608 h 11.07324 V 34.62 H 243.79331 A 2.57492,2.57492 0 0 1 241.22,32.04662 v -10.7 a 2.57485,2.57485 0 0 1 2.57331,-2.57331 h 10.81332 V 15.68 h -11.07332 a 5.41144,5.41144 0 0 0 -5.40668,5.41331 V 32.3 a 5.41145,5.41145 0 0 0 5.40668,5.41331 m -16.73337,-7.60662 v -0.0333 l 0.02,0.0333 h 2.3 a 0.51331,0.51331 0 1 1 0,1.02662 h -9.78663 v 2.83338 h 10.04 a 3.47793,3.47793 0 0 0 -0.12661,-6.95338 h -3.90671 a 4.45457,4.45457 0 0 1 -2.92,-3.99339 4.47462,4.47462 0 0 1 4.50668,-4.24661 h 9.66 V 15.68 h -10.0467 a 7.21252,7.21252 0 0 0 -7.20666,7.21331 7.43456,7.43456 0 0 0 7.4667,7.21338 m 48.92,7.72662 h 3.60669 L 281.63998,30.98 v 3.24 h 7.2666 l -4.3139,-12.92 c -0.2194,-0.72007 -0.87339,-2.78669 -1.64,-2.78669 -0.77267,0 -1.42609,2.06669 -1.63937,2.78669 l -5.59333,16.53331 M 241.99337,26.24 h 10.29321 v -2.83331 h -7.2066 a 0.77393,0.77393 0 0 1 0.77338,-0.77338 h 8.75323 v -3.08669 h -10.03992 a 2.57484,2.57484 0 0 0 -2.5733,2.57338 v 4.12 m -15.32,0.26 h 3.90662 a 4.45542,4.45542 0 0 1 2.9133,3.99331 4.47462,4.47462 0 0 1 -4.50663,4.24669 h -9.65335 v 3.09331 h 10.04 a 7.214,7.214 0 0 0 7.21335,-7.21331 7.439,7.439 0 0 0 -7.4667,-7.21338 v 0.04007 l -0.0267,-0.04007 h -2.29331 a 0.51335,0.51335 0 1 1 0,-1.0267 h 3.28662 l 6e-5,8e-5 h 6.5 V 19.54662 H 226.53997 A 3.47793,3.47793 0 0 0 226.67336,26.5 m 35.65995,7.46669 h 6.18 V 27.01331 H 263.62 v 3.09338 h 1.8 V 30.88 h -1.8 a 0.77394,0.77394 0 0 1 -0.77338,-0.77331 v -6.7 A 0.77432,0.77432 0 0 1 263.62,22.63338 h 8.754 v -3.08669 h -10.04069 a 2.57627,2.57627 0 0 0 -2.58,2.57331 v 9.27331 a 2.57633,2.57633 0 0 0 2.58,2.57338 m -17.76661,0 h 10.03992 V 30.88 h -8.75323 a 0.77393,0.77393 0 0 1 -0.77338,-0.77339 h 7.2066 v -2.8333 h -10.29324 v 4.12 a 2.57489,2.57489 0 0 0 2.5733,2.57338 m 139.09992,60.36662 h 16 V 47.66669 h -16 v 46.66662 m -80,-46.66662 h -42 l -16,10.66662 v 36 h 44 L 304.99996,85 h -43.33337 v -9.33331 h 16.66672 l 15.33331,-9.33338 h -32 V 57 h 26.66669 l 15.33331,-9.33331 m -82,16.76 -30,-16.76 h -16.66666 v 46.66662 h 16 V 59.95408 l 30.66663,17.13923 v 17.24 h 16 V 47.66669 h -16 v 16.76 m -59.33328,-16.76 h -42 l -16,10.66662 v 36 h 44 L 163.66659,85 h -43.33328 v -9.33331 h 16.6667 l 15.3333,-9.33338 h -32 V 57 h 26.66668 l 15.33332,-9.33331 m -66,0 H 47.66659 l -16,10.66662 v 36 h 46 l 16,-10.66662 V 64.33331 H 74.33331 l -15.3333,9.33338 H 77.66662 V 85 h -30 V 57 h 33.33339 l 15.3333,-9.33331 m 378.66671,0.66662 h -48 l -15.33343,9.33338 v 18 h 45.33343 V 85 h -30 l -15.33343,9.33331 h 47.33343 L 474.33331,85 V 66.33331 h -46 v -8.66662 h 31.33325 l 15.33343,-9.33338 m -102,0 h -48 l -15.33337,9.33338 v 18 h 45.33337 V 85 h -30 l -15.33337,9.33331 h 47.33337 L 372.33331,85 V 66.33331 h -46 v -8.66662 h 31.33331 l 15.33337,-9.33338 M 292.33331,4 h -73.55335 a 6.99994,6.99994 0 0 0 -6.05151,3.48169 l -14.6424,25.185 H 39.21998 a 7.00048,7.00048 0 0 0 -3.42516,0.89523 l -28.22,15.83331 A 7,7 0 0 0 3.99997,55.5 v 31.66669 a 7,7 0 0 0 3.57484,6.10477 l 28.22,15.83331 A 7.00048,7.00048 0 0 0 39.21998,110 h 432.67333 a 7.00029,7.00029 0 0 0 3.42511,-0.89523 l 28.2201,-15.83331 a 6.99991,6.99991 0 0 0 3.57479,-6.10477 V 55.5 a 6.99991,6.99991 0 0 0 -3.57483,-6.10477 L 475.31841,33.56192 A 7.00029,7.00029 0 0 0 471.8933,32.66669 H 313.02731 L 298.38485,7.48169 A 6.9998,6.9998 0 0 0 292.33331,4 Z m 98.33331,50.66669 h 2 v 32.66662 h -2 z m -162,0 h 2 v 32.66662 h -2 v -10.24 a 7.00012,7.00012 0 0 0 -3.58493,-6.11046 l -0.41464,-0.23175 q 0.27584,-0.1309 0.54226,-0.2871 a 6.99988,6.99988 0 0 0 3.45731,-6.03731 z m -46.66663,0 h 4.41245 a 7.00039,7.00039 0 0 0 -2.41245,5.28739 v 27.37923 h -2 z m 236.6666,6.93393 2.66672,-1.6232 v 6.35589 a 6.9896,6.9896 0 0 0 0.39831,2.33338 h -3.06506 v -7.06607 z m -102,0 2.66672,-1.6232 v 6.35589 a 6.99038,6.99038 0 0 0 0.39834,2.33338 h -3.065 v -7.06607 z m -64,0.479 2,-1.33333 v 5.587 A 6.974,6.974 0 0 0 256.44903,71 6.974,6.974 0 0 0 254.66659,75.66669 V 85 a 6.99,6.99 0 0 0 0.39831,2.33331 h -2.39831 V 62.07965 Z m -141.33328,3e-5 2,-1.33333 v 5.587 A 6.974,6.974 0 0 0 115.11573,71 6.974,6.974 0 0 0 113.33331,75.66669 V 85 a 6.99,6.99 0 0 0 0.39831,2.33331 h -2.39831 z m -72.66669,0 2,-1.33333 V 85 a 6.98949,6.98949 0 0 0 0.39831,2.33331 h -2.39831 z m 45.60169,9.25366 h 2.39833 v 8.587 l -2,1.33333 v -7.587 a 6.99037,6.99037 0 0 0 -0.39833,-2.33338 z m 379.33336,2 h 3.73164 v 7.73275 l -3.33332,2.029 v -7.42837 a 6.98964,6.98964 0 0 0 -0.39837,-2.33338 z m -102,0 h 3.73164 v 7.73275 l -3.33332,2.029 v -7.42837 a 6.99036,6.99036 0 0 0 -0.39831,-2.33338 z"
     fill="#ffffff"
     id="path55" />
  <path
     d="m 39.22002,106.5 a 3.50465,3.50465 0 0 1 -1.7124,-0.44727 L 9.28741,90.21973 A 3.5017,3.5017 0 0 1 7.49981,87.16699 V 55.5 a 3.49977,3.49977 0 0 1 1.7876,-3.05225 L 37.50762,36.61426 a 3.49983,3.49983 0 0 1 1.7124,-0.44776 H 200.09991 L 215.7542,9.24072 A 3.50022,3.50022 0 0 1 218.78008,7.5 h 73.55323 a 3.49823,3.49823 0 0 1 3.02539,1.74072 l 15.65527,26.92578 h 160.87891 a 3.503,3.503 0 0 1 1.71289,0.44776 l 28.2207,15.83349 A 3.50031,3.50031 0 0 1 503.61358,55.5 v 31.667 a 3.50224,3.50224 0 0 1 -1.78711,3.05274 l -28.2207,15.833 a 3.50786,3.50786 0 0 1 -1.71289,0.44727 z M 458.01885,90.833 470.83331,83.0332 V 69.833 h -42.5 a 3.50048,3.50048 0 0 1 -3.5,-3.5 v -8.6665 a 3.50017,3.50017 0 0 1 3.5,-3.5 h 30.35156 l 3.833,-2.333 h -34.53613 l -12.81543,7.80029 V 72.167 h 41.834 a 3.50049,3.50049 0 0 1 3.5,3.5 V 85 a 3.50048,3.50048 0 0 1 -3.5,3.5 h -29.01857 l -3.833,2.333 z m -61.85254,0 V 51.1665 h -9 V 90.833 Z m -40.14746,0 12.81446,-7.7998 V 69.833 h -42.5 a 3.50048,3.50048 0 0 1 -3.5,-3.5 v -8.6665 a 3.50017,3.50017 0 0 1 3.5,-3.5 h 30.35156 l 3.833,-2.333 h -34.53613 l -12.81543,7.80029 V 72.167 h 41.834 a 3.50049,3.50049 0 0 1 3.5,3.5 V 85 a 3.50048,3.50048 0 0 1 -3.5,3.5 h -29.01857 l -3.833,2.333 z m -67.334,0 3.833,-2.333 h -30.85154 a 3.50049,3.50049 0 0 1 -3.5,-3.5 v -9.333 a 3.5005,3.5005 0 0 1 3.5,-3.5 h 15.68555 l 3.834,-2.334 h -19.51955 a 3.50049,3.50049 0 0 1 -3.5,-3.5 V 57 a 3.50017,3.50017 0 0 1 3.5,-3.5 h 25.68555 l 3.833,-2.3335 h -28.459 l -13.55908,9.03955 V 90.833 Z m -54.51807,0 V 51.1665 h -9 v 13.26026 a 3.50023,3.50023 0 0 1 -5.207,3.05566 L 190.75567,51.1665 H 178.49981 V 90.833 h 9 V 59.9541 a 3.49993,3.49993 0 0 1 5.20752,-3.05517 l 30.667,17.13916 a 3.50143,3.50143 0 0 1 1.79248,3.05566 V 90.833 Z m -86.81494,0 3.833,-2.333 h -30.85153 a 3.50017,3.50017 0 0 1 -3.5,-3.5 v -9.333 a 3.50017,3.50017 0 0 1 3.5,-3.5 h 15.685 l 3.834,-2.334 h -19.519 a 3.50017,3.50017 0 0 1 -3.5,-3.5 V 57 a 3.49985,3.49985 0 0 1 3.5,-3.5 h 25.685 l 3.8335,-2.3335 h -28.459 l -13.5595,9.03955 V 90.833 Z m -70.74463,0 13.55959,-9.039 V 67.833 h -14.852 l -3.834,2.334 h 6.186 a 3.50017,3.50017 0 0 1 3.5,3.5 V 85 a 3.50017,3.50017 0 0 1 -3.5,3.5 h -30 a 3.50017,3.50017 0 0 1 -3.5,-3.5 V 57 a 3.49986,3.49986 0 0 1 3.5,-3.5 h 32.35156 l 3.8335,-2.3335 H 48.72637 L 35.1668,60.20605 V 90.833 Z M 282.84502,27.69385 q 0.11427,0.041 0.22266,0.09033 l -0.125,-0.377 z"
     fill="url(#linear-gradient)"
     id="path57"
     style="fill:url(#linearGradient964)" />
  <path
     d="m 292.33331,11 16.66668,28.66669 H 471.89331 L 500.11331,55.5 V 87.16669 L 471.89331,103 H 39.21998 l -28.22,-15.83331 V 55.5 l 28.22,-15.83331 H 202.11337 L 218.77996,11 h 73.55335 M 272.37399,36.26723 V 23.40669 h -8.754 V 26.24 h 5.66 v 8.5 h -7.72 a 2.57005,2.57005 0 0 1 -2.57269,-2.57331 v -10.82 a 2.56967,2.56967 0 0 1 2.57269,-2.57338 h 10.814 V 15.68 h -11.07334 a 5.41153,5.41153 0 0 0 -5.40667,5.41331 v 11.33338 a 5.40582,5.40582 0 0 0 5.40667,5.40662 h 13.646 l 6.26068,-18.38 a 1.74839,1.74839 0 0 1 3.44662,0 L 289.94668,35 h -8.3067 v 2.83331 h 12.36 L 287.75331,18.8 a 5.01824,5.01824 0 0 0 -9.6467,0 l -5.7326,17.46723 m -28.8407,1.44608 h 11.07324 V 34.62 H 243.79331 A 2.57492,2.57492 0 0 1 241.22,32.04662 v -10.7 a 2.57485,2.57485 0 0 1 2.57331,-2.57331 h 10.81332 V 15.68 h -11.07332 a 5.41144,5.41144 0 0 0 -5.40668,5.41331 V 32.3 a 5.41145,5.41145 0 0 0 5.40668,5.41331 m -16.73337,-7.60662 v -0.0333 l 0.02,0.0333 h 2.3 a 0.51331,0.51331 0 1 1 0,1.02662 h -9.78663 v 2.83338 h 10.04 a 3.47793,3.47793 0 0 0 -0.12661,-6.95338 h -3.90671 a 4.45457,4.45457 0 0 1 -2.92,-3.99339 4.47462,4.47462 0 0 1 4.50668,-4.24661 h 9.66 V 15.68 h -10.0467 a 7.21252,7.21252 0 0 0 -7.20666,7.21331 7.43456,7.43456 0 0 0 7.4667,7.21338 m 48.92,7.72662 h 3.60669 L 281.63998,30.98 v 3.24 h 7.2666 l -4.3139,-12.92 c -0.2194,-0.72007 -0.87339,-2.78669 -1.64,-2.78669 -0.77267,0 -1.42609,2.06669 -1.63937,2.78669 l -5.59333,16.53331 M 241.99337,26.24 h 10.29321 v -2.83331 h -7.2066 a 0.77393,0.77393 0 0 1 0.77338,-0.77338 h 8.75323 v -3.08669 h -10.03992 a 2.57484,2.57484 0 0 0 -2.5733,2.57338 v 4.12 m -15.32,0.26 h 3.90662 a 4.45542,4.45542 0 0 1 2.9133,3.99331 4.47462,4.47462 0 0 1 -4.50663,4.24669 h -9.65335 v 3.09331 h 10.04 a 7.214,7.214 0 0 0 7.21335,-7.21331 7.439,7.439 0 0 0 -7.4667,-7.21338 v 0.04007 l -0.0267,-0.04007 h -2.29331 a 0.51335,0.51335 0 1 1 0,-1.0267 h 3.28662 l 6e-5,8e-5 h 6.5 V 19.54662 H 226.53997 A 3.47793,3.47793 0 0 0 226.67336,26.5 m 35.65995,7.46669 h 6.18 V 27.01331 H 263.62 v 3.09338 h 1.8 V 30.88 h -1.8 a 0.77394,0.77394 0 0 1 -0.77338,-0.77331 v -6.7 A 0.77432,0.77432 0 0 1 263.62,22.63338 h 8.754 v -3.08669 h -10.04069 a 2.57627,2.57627 0 0 0 -2.58,2.57331 v 9.27331 a 2.57633,2.57633 0 0 0 2.58,2.57338 m -17.76661,0 h 10.03992 V 30.88 h -8.75323 a 0.77393,0.77393 0 0 1 -0.77338,-0.77339 h 7.2066 v -2.8333 h -10.29324 v 4.12 a 2.57489,2.57489 0 0 0 2.5733,2.57338 m 139.09992,60.36662 h 16 V 47.66669 h -16 v 46.66662 m -80,-46.66662 h -42 l -16,10.66662 v 36 h 44 L 304.99996,85 h -43.33337 v -9.33331 h 16.66672 l 15.33331,-9.33338 h -32 V 57 h 26.66669 l 15.33331,-9.33331 m -82,16.76 -30,-16.76 h -16.66666 v 46.66662 h 16 V 59.95408 l 30.66663,17.13923 v 17.24 h 16 V 47.66669 h -16 v 16.76 m -59.33328,-16.76 h -42 l -16,10.66662 v 36 h 44 L 163.66659,85 h -43.33328 v -9.33331 h 16.6667 l 15.3333,-9.33338 h -32 V 57 h 26.66668 l 15.33332,-9.33331 m -66,0 H 47.66659 l -16,10.66662 v 36 h 46 l 16,-10.66662 V 64.33331 H 74.33331 l -15.3333,9.33338 H 77.66662 V 85 h -30 V 57 h 33.33339 l 15.3333,-9.33331 m 378.66671,0.66662 h -48 l -15.33343,9.33338 v 18 h 45.33343 V 85 h -30 l -15.33343,9.33331 h 47.33343 L 474.33331,85 V 66.33331 h -46 v -8.66662 h 31.33325 l 15.33343,-9.33338 m -102,0 h -48 l -15.33337,9.33338 v 18 h 45.33337 V 85 h -30 l -15.33337,9.33331 h 47.33337 L 372.33331,85 V 66.33331 h -46 v -8.66662 h 31.33331 l 15.33337,-9.33338 M 292.33331,4 h -73.55335 a 6.99994,6.99994 0 0 0 -6.05151,3.48169 l -14.6424,25.185 H 39.21998 a 7.00048,7.00048 0 0 0 -3.42516,0.89523 l -28.22,15.83331 A 7,7 0 0 0 3.99997,55.5 v 31.66669 a 7,7 0 0 0 3.57484,6.10477 l 28.22,15.83331 A 7.00048,7.00048 0 0 0 39.21998,110 h 432.67333 a 7.00029,7.00029 0 0 0 3.42511,-0.89523 l 28.2201,-15.83331 a 6.99991,6.99991 0 0 0 3.57479,-6.10477 V 55.5 a 6.99991,6.99991 0 0 0 -3.57483,-6.10477 L 475.31841,33.56192 A 7.00029,7.00029 0 0 0 471.8933,32.66669 H 313.02731 L 298.38485,7.48169 A 6.9998,6.9998 0 0 0 292.33331,4 Z m 98.33331,50.66669 h 2 v 32.66662 h -2 z m -162,0 h 2 v 32.66662 h -2 v -10.24 a 7.00012,7.00012 0 0 0 -3.58493,-6.11046 l -0.41464,-0.23175 q 0.27584,-0.1309 0.54226,-0.2871 a 6.99988,6.99988 0 0 0 3.45731,-6.03731 z m -46.66663,0 h 4.41245 a 7.00039,7.00039 0 0 0 -2.41245,5.28739 v 27.37923 h -2 z m 236.6666,6.93393 2.66672,-1.6232 v 6.35589 a 6.9896,6.9896 0 0 0 0.39831,2.33338 h -3.06506 v -7.06607 z m -102,0 2.66672,-1.6232 v 6.35589 a 6.99038,6.99038 0 0 0 0.39834,2.33338 h -3.065 v -7.06607 z m -64,0.479 2,-1.33333 v 5.587 A 6.974,6.974 0 0 0 256.44903,71 6.974,6.974 0 0 0 254.66659,75.66669 V 85 a 6.99,6.99 0 0 0 0.39831,2.33331 h -2.39831 V 62.07965 Z m -141.33328,3e-5 2,-1.33333 v 5.587 A 6.974,6.974 0 0 0 115.11573,71 6.974,6.974 0 0 0 113.33331,75.66669 V 85 a 6.99,6.99 0 0 0 0.39831,2.33331 h -2.39831 z m -72.66669,0 2,-1.33333 V 85 a 6.98949,6.98949 0 0 0 0.39831,2.33331 h -2.39831 z m 45.60169,9.25366 h 2.39833 v 8.587 l -2,1.33333 v -7.587 a 6.99037,6.99037 0 0 0 -0.39833,-2.33338 z m 379.33336,2 h 3.73164 v 7.73275 l -3.33332,2.029 v -7.42837 a 6.98964,6.98964 0 0 0 -0.39837,-2.33338 z m -102,0 h 3.73164 v 7.73275 l -3.33332,2.029 v -7.42837 a 6.99036,6.99036 0 0 0 -0.39831,-2.33338 z"
     fill="#ffffff"
     id="path59" />
  <path
     d="m 281.7669,34.12012 a 3.49973,3.49973 0 0 1 -3.31738,-4.6167 l 1.09277,-3.24658 a 3.49982,3.49982 0 0 1 3.29395,-2.3833 h 0.0234 a 3.49888,3.49888 0 0 1 3.30176,2.33984 l 1.14063,3.24662 a 3.5,3.5 0 0 1 -3.30176,4.66016 z"
     fill="#c2c4d2"
     id="path61" />
  <path
     d="m 282.85998,27.37334 1.14,3.24666 h -2.23333 l 1.09332,-3.24666 m 4e-4,-7 -0.0454,1.5e-4 a 7,7 0 0 0 -6.58893,4.76584 l -1.09333,3.24667 a 7,7 0 0 0 6.634,9.234 h 2.23333 a 7,7 0 0 0 6.60468,-9.31914 l -1.14,-3.24666 a 7,7 0 0 0 -6.60427,-4.68086 z"
     fill="#ffffff"
     id="path63" />
  <path
     d="m 281.7669,34.12012 a 3.49973,3.49973 0 0 1 -3.31738,-4.6167 l 1.09277,-3.24658 a 3.49982,3.49982 0 0 1 3.29395,-2.3833 h 0.0234 a 3.49888,3.49888 0 0 1 3.30176,2.33984 l 1.14063,3.24662 a 3.5,3.5 0 0 1 -3.30176,4.66016 z"
     fill="url(#linear-gradient-2)"
     id="path65"
     style="fill:url(#linear-gradient-2)" />
  <path
     d="m 282.85998,27.37334 1.14,3.24666 h -2.23333 l 1.09332,-3.24666 m 4e-4,-7 -0.0454,1.5e-4 a 7,7 0 0 0 -6.58893,4.76584 l -1.09333,3.24667 a 7,7 0 0 0 6.634,9.234 h 2.23333 a 7,7 0 0 0 6.60468,-9.31914 l -1.14,-3.24666 a 7,7 0 0 0 -6.60427,-4.68086 z"
     fill="#ffffff"
     id="path67" />
  <line
     x1="252.28668"
     y1="27.273319"
     x2="252.28662"
     y2="27.273319"
     fill="none"
     stroke="#ffffff"
     stroke-linecap="round"
     stroke-linejoin="round"
     stroke-width="7"
     id="line69" />
  <line
     x1="252.28662"
     y1="26.23999"
     x2="252.28668"
     y2="26.23999"
     fill="none"
     stroke="#ffffff"
     stroke-linecap="round"
     stroke-linejoin="round"
     stroke-width="7"
     id="line71" />
  <path
     d="m 219.33331,37.4668 a 3.49986,3.49986 0 0 1 -3.5,-3.5 v -2.8335 a 3.4958,3.4958 0 0 1 1.51953,-2.88623 10.30361,10.30361 0 0 1 -1.51953,-5.35352 10.72205,10.72205 0 0 1 10.70654,-10.71337 h 10.04687 a 3.49985,3.49985 0 0 1 3.5,3.5 v 3.09326 a 3.49986,3.49986 0 0 1 -3.5,3.5 h -9.66015 c -0.499,0 -1.00635,0.43457 -1.00635,0.74658 a 0.81546,0.81546 0 0 0 0.30029,0.49316 h 3.02588 a 6.978,6.978 0 0 1 0.25293,13.95118 c -0.042,0.0015 -0.084,0.0024 -0.126,0.0024 z"
     fill="#181c4e"
     id="path73" />
  <path
     d="m 236.58666,15.68 v 3.09333 h -9.66 a 4.4746,4.4746 0 0 0 -4.50668,4.24667 4.45461,4.45461 0 0 0 2.92,3.99336 h 3.90668 a 3.47792,3.47792 0 0 1 0.12664,6.95336 h -10.03999 v -2.83343 h 9.78668 a 0.5133,0.5133 0 1 0 0,-1.02659 h -2.3 l -0.02,-0.03333 v 0.03333 a 7.43456,7.43456 0 0 1 -7.46668,-7.21339 7.21254,7.21254 0 0 1 7.20666,-7.21331 h 10.04669 m 0,-7 h -10.04669 a 14.22607,14.22607 0 0 0 -14.20666,14.21331 13.924,13.924 0 0 0 0.87008,4.85735 6.96918,6.96918 0 0 0 -0.87008,3.38263 v 2.83338 a 7,7 0 0 0 7,7 h 10.04 q 0.12548,0 0.25092,-0.0045 a 10.47514,10.47514 0 0 0 8.839,-15.44323 7.00326,7.00326 0 0 0 5.12347,-6.74562 V 15.68 a 7,7 0 0 0 -7,-7 z"
     fill="#ffffff"
     id="path75" />
  <path
     d="m 219.33331,41.3335 a 3.49986,3.49986 0 0 1 -3.5,-3.5 v -3.09327 a 3.49986,3.49986 0 0 1 3.5,-3.5 h 9.65332 c 0.49951,0 1.00683,-0.43457 1.00683,-0.74707 A 0.80507,0.80507 0 0 0 229.69561,30 h -3.02246 a 6.97769,6.97769 0 0 1 -0.2583,-13.95068 c 0.0415,-0.0015 10.17187,-0.0024 10.17187,-0.0024 a 3.49985,3.49985 0 0 1 3.5,3.5 v 2.833 a 3.49579,3.49579 0 0 1 -1.51953,2.88623 10.304,10.304 0 0 1 1.51953,5.354 10.72571,10.72571 0 0 1 -10.71341,10.71335 z"
     fill="#181c4e"
     id="path77" />
  <path
     d="M 236.58666,19.54663 V 22.38 h -6.5 l -6e-5,-6e-5 h -3.28662 a 0.51333,0.51333 0 1 0 0,1.02666 h 2.29333 l 0.0267,0.04005 V 23.4066 a 7.43906,7.43906 0 0 1 7.46665,7.2134 7.214,7.214 0 0 1 -7.21335,7.21331 h -10.04 V 34.74 h 9.65332 a 4.47462,4.47462 0 0 0 4.50665,-4.2467 4.45546,4.45546 0 0 0 -2.91333,-3.9933 h -3.90664 a 3.47792,3.47792 0 0 1 -0.13336,-6.95336 h 10.04669 m 0,-7 h -10.04667 q -0.12552,0 -0.25094,0.0045 a 10.474,10.474 0 0 0 -8.83741,15.44467 7.00335,7.00335 0 0 0 -5.11831,6.74419 v 3.09332 a 7,7 0 0 0 7,7 h 10.04 A 14.22944,14.22944 0 0 0 243.58666,30.62 13.92582,13.92582 0 0 0 242.716,25.76107 a 6.9996,6.9996 0 0 0 0.87066,-3.38106 v -2.83338 a 7,7 0 0 0 -7,-7 z"
     fill="#ffffff"
     id="path79" />
  <path
     d="M 243.5335,41.21338 A 8.92025,8.92025 0 0 1 234.62676,32.2998 V 21.09326 a 8.92013,8.92013 0 0 1 8.90674,-8.91308 h 11.07324 a 3.50017,3.50017 0 0 1 3.5,3.5 v 3.09326 a 3.50017,3.50017 0 0 1 -3.5,3.5 h -9.88672 v 8.84668 h 9.88672 a 3.50017,3.50017 0 0 1 3.5,3.5 v 3.09326 a 3.50017,3.50017 0 0 1 -3.5,3.5 z"
     fill="#181c4e"
     id="path81" />
  <path
     d="m 254.60662,15.68 v 3.09333 h -10.81331 a 2.57486,2.57486 0 0 0 -2.57331,2.5733 v 10.7 a 2.57492,2.57492 0 0 0 2.57331,2.57337 h 10.81335 v 3.09332 H 243.53331 A 5.41151,5.41151 0 0 1 238.12664,32.3 V 21.09332 A 5.41151,5.41151 0 0 1 243.53331,15.68 h 11.0733 m 0,-7 h -11.0733 A 12.42407,12.42407 0 0 0 231.12663,21.09333 V 32.3 a 12.42407,12.42407 0 0 0 12.40668,12.41332 h 11.0733 a 7,7 0 0 0 7,-7 V 34.62 a 7,7 0 0 0 -7,-7 h -6.38666 v -1.84668 h 6.38666 a 7,7 0 0 0 7,-7 V 15.68 a 7,7 0 0 0 -7,-7 z"
     fill="#ffffff"
     id="path83" />
  <path
     d="m 244.5667,37.4668 a 6.08033,6.08033 0 0 1 -6.07324,-6.07325 v -4.12011 a 3.49986,3.49986 0 0 1 3.5,-3.5 h 10.293 a 3.49985,3.49985 0 0 1 3.5,3.5 v 0.31006 a 3.502,3.502 0 0 1 2.32031,3.29638 v 3.08692 a 3.50017,3.50017 0 0 1 -3.5,3.5 z"
     fill="#181c4e"
     id="path85" />
  <path
     d="m 252.28661,27.27332 v 2.83332 h -7.20666 a 0.77392,0.77392 0 0 0 0.77336,0.77336 h 8.75329 v 3.08667 h -10.04 a 2.57491,2.57491 0 0 1 -2.5733,-2.57335 v -4.12 h 10.29331 m 0,-7 h -10.2933 a 7,7 0 0 0 -7,7 v 4.12 a 9.58417,9.58417 0 0 0 9.5733,9.57335 h 10.04 a 7,7 0 0 0 7,-7 V 30.88 a 6.98638,6.98638 0 0 0 -2.55359,-5.4067 7.00276,7.00276 0 0 0 -6.76642,-5.2 z"
     fill="#ffffff"
     id="path87" />
  <path
     d="m 241.99346,29.74023 a 3.49986,3.49986 0 0 1 -3.5,-3.5 v -4.12011 a 6.08033,6.08033 0 0 1 6.07324,-6.07324 h 10.04 a 3.50017,3.50017 0 0 1 3.5,3.5 v 3.08642 a 3.502,3.502 0 0 1 -2.32031,3.29639 v 0.31054 a 3.49985,3.49985 0 0 1 -3.5,3.5 z"
     fill="#181c4e"
     id="path89" />
  <path
     d="m 254.60662,19.54663 v 3.08668 h -8.75331 a 0.77391,0.77391 0 0 0 -0.77338,0.77336 h 7.20666 V 26.24 h -10.29328 v -4.12 a 2.57487,2.57487 0 0 1 2.5733,-2.57336 h 10.04 m 0,-7 h -10.04 a 9.58418,9.58418 0 0 0 -9.5733,9.57336 v 4.12 a 7,7 0 0 0 7,7 h 10.2933 a 7.00276,7.00276 0 0 0 6.76642,-5.2 6.98638,6.98638 0 0 0 2.55359,-5.4067 v -3.08667 a 7,7 0 0 0 -7,-7 z"
     fill="#ffffff"
     id="path91" />
  <path
     d="m 262.33331,37.4668 a 6.08367,6.08367 0 0 1 -6.08008,-6.07325 v -9.27343 a 6.08366,6.08366 0 0 1 6.08008,-6.07324 h 10.041 a 3.50017,3.50017 0 0 1 3.5,3.5 v 3.08642 a 3.50017,3.50017 0 0 1 -3.5,3.5 h -0.47265 a 3.53255,3.53255 0 0 1 0.11132,0.87988 v 6.95362 a 3.50017,3.50017 0 0 1 -3.5,3.5 z"
     fill="#181c4e"
     id="path93" />
  <path
     d="m 272.37396,19.54668 v 3.08668 h -8.754 a 0.77431,0.77431 0 0 0 -0.77338,0.77332 v 6.7 a 0.77391,0.77391 0 0 0 0.77338,0.77332 h 1.8 v -0.77332 h -1.8 v -3.09337 h 4.89335 v 6.95337 h -6.18 a 2.57635,2.57635 0 0 1 -2.58,-2.57338 V 22.12 a 2.5763,2.5763 0 0 1 2.58,-2.57332 h 10.04065 m 0,-7 h -10.04065 a 9.58752,9.58752 0 0 0 -9.58,9.57332 v 9.2733 a 9.58755,9.58755 0 0 0 9.58,9.57338 h 6.18 a 7,7 0 0 0 7,-7 v -5.075 a 7.00017,7.00017 0 0 0 3.86066,-6.25827 v -3.08673 a 7,7 0 0 0 -7,-7 z"
     fill="#ffffff"
     id="path95" />
  <path
     d="m 281.63995,41.3335 a 3.50149,3.50149 0 0 1 -3.34664,-2.4712 l -0.0332,0.09961 a 3.5011,3.5011 0 0 1 -3.31347,2.37159 h -13.64555 a 8.91733,8.91733 0 0 1 -8.90723,-8.90674 v -11.3335 a 8.92055,8.92055 0 0 1 8.90723,-8.91308 h 11.07322 a 3.50064,3.50064 0 0 1 3.49121,3.25048 8.51515,8.51515 0 0 1 15.23145,2.334 l 6.22851,18.97754 a 3.49908,3.49908 0 0 1 -3.32517,4.5913 z m -0.876,-9.72315 a 3.52356,3.52356 0 0 1 0.876,-0.11035 h 3.418 l -2.12793,-6.24951 z m -14.98437,-0.37012 v -1.5 h -2.15918 a 3.493,3.493 0 0 1 -1.13282,-0.1875 v 1.6875 z"
     fill="#181c4e"
     id="path97" />
  <path
     d="M 282.92663,15.16669 A 5.01678,5.01678 0 0 1 287.75331,18.8 l 6.2467,19.03333 h -12.36 V 35 h 8.30664 l -5.29267,-15.54669 a 1.74841,1.74841 0 0 0 -3.44665,0 l -6.26068,18.38 h -13.646 A 5.40581,5.40581 0 0 1 255.89398,32.4267 V 21.09332 A 5.41154,5.41154 0 0 1 261.30065,15.68 h 11.07331 v 3.09332 h -10.814 a 2.56961,2.56961 0 0 0 -2.57269,2.57335 v 10.82 a 2.57,2.57 0 0 0 2.57272,2.57333 h 7.72 v -8.5 h -5.66 v -2.83332 h 8.754 V 36.26722 L 278.10662,18.8 a 5.01609,5.01609 0 0 1 4.82,-3.63329 m 0,-7 A 11.97481,11.97481 0 0 0 276.51454,10.03536 6.96822,6.96822 0 0 0 272.37396,8.68 H 261.30065 A 12.42405,12.42405 0 0 0 248.89398,21.09332 V 32.4267 a 12.4207,12.4207 0 0 0 12.40667,12.40661 h 13.646 a 6.98722,6.98722 0 0 0 3.34543,-0.851 6.97,6.97 0 0 0 3.34793,0.851 h 12.36 a 7,7 0 0 0 6.65094,-9.18284 l -6.21338,-18.93183 a 12.06672,12.06672 0 0 0 -11.51092,-8.552 z"
     fill="#ffffff"
     id="path99" />
  <path
     d="m 275.72002,41.3335 a 3.50026,3.50026 0 0 1 -3.31542,-4.62159 l 5.57226,-16.46972 c 0.44238,-1.49463 1.59668,-5.229 4.97559,-5.229 3.38086,0 4.54882,3.82471 4.98828,5.26465 l 4.28613,12.8335 a 3.50044,3.50044 0 0 1 -3.32031,4.6084 h -5.84766 l -0.416,1.2334 a 3.50049,3.50049 0 0 1 -3.31641,2.38037 z"
     fill="#181c4e"
     id="path101" />
  <path
     d="m 282.95263,18.51331 c 0.76666,0 1.42065,2.06664 1.64,2.78668 l 4.314,12.92 h -7.26666 V 30.98 l -2.3133,6.85332 h -3.60669 L 281.31331,21.3 c 0.21331,-0.72 0.8667,-2.78668 1.63934,-2.78668 M 281.76666,30.62 h 2.23333 l -1.14,-3.24664 -1.09333,3.24664 m 1.186,-19.10668 c -2.73547,0 -6.38745,1.33343 -8.30878,7.65759 l -5.55471,16.41917 a 7,7 0 0 0 6.63082,9.24324 h 3.60669 A 7.0006,7.0006 0 0 0 285.45331,41.22 h 3.45331 a 7,7 0 0 0 6.63965,-9.217 l -4.28729,-12.84017 c -1.57169,-5.07574 -4.366,-7.64951 -8.30634,-7.64951 z"
     fill="#ffffff"
     id="path103" />
  <path
     d="m 221.6668,97.833 a 3.50017,3.50017 0 0 1 -3.5,-3.5 V 79.14746 L 194.4998,65.91992 V 94.333 a 3.50017,3.50017 0 0 1 -3.5,3.5 h -16 a 3.50017,3.50017 0 0 1 -3.5,-3.5 V 47.6665 a 3.49986,3.49986 0 0 1 3.5,-3.5 h 16.667 a 3.49879,3.49879 0 0 1 1.707,0.44434 l 24.793,13.85107 V 47.6665 a 3.49987,3.49987 0 0 1 3.5,-3.5 h 16 a 3.49986,3.49986 0 0 1 3.5,3.5 V 94.333 a 3.50017,3.50017 0 0 1 -3.5,3.5 z"
     fill="url(#linear-gradient-3)"
     id="path105"
     style="fill:url(#linearGradient966)" />
  <path
     d="m 237.66662,47.66667 v 46.66665 h -16 v -17.24 L 190.99999,59.954 v 34.37932 h -16 V 47.66667 h 16.66663 l 30,16.76 v -16.76 h 16 m 0,-7 h -16 a 7,7 0 0 0 -7,7 v 4.83106 l -19.586,-10.94206 a 6.99994,6.99994 0 0 0 -3.414,-0.889 h -16.66663 a 7,7 0 0 0 -7,7 v 46.66665 a 7,7 0 0 0 7,7 h 16 a 7,7 0 0 0 7,-7 v -22.448 l 16.66663,9.31482 v 13.13318 a 7,7 0 0 0 7,7 h 16 a 7,7 0 0 0 7,-7 V 47.66667 a 7,7 0 0 0 -7,-7 z"
     fill="#ffffff"
     id="path107" />
  <rect
     x="380.16632"
     y="44.1665"
     width="23"
     height="53.6665"
     rx="3.5"
     fill="url(#linear-gradient-4)"
     id="rect109"
     style="fill:url(#linear-gradient-4)" />
  <path
     d="m 399.66662,47.66668 v 46.66664 h -16 V 47.66668 h 16 m 0,-7 h -16 a 7,7 0 0 0 -7,7 v 46.66664 a 7,7 0 0 0 7,7 h 16 a 7,7 0 0 0 7,-7 V 47.66668 a 7,7 0 0 0 -7,-7 z"
     fill="#ffffff"
     id="path111" />
  <path
     d="m 245.6668,97.833 a 3.50017,3.50017 0 0 1 -3.5,-3.5 v -36 a 3.49956,3.49956 0 0 1 1.5586,-2.91211 l 15.99951,-10.6665 a 3.49944,3.49944 0 0 1 1.9414,-0.58789 h 42 a 3.50019,3.50019 0 0 1 1.82032,6.48975 l -15.333,9.333 A 3.50232,3.50232 0 0 1 288.33331,60.5 h -23.167 v 2.333 h 28.5 a 3.49986,3.49986 0 0 1 1.82032,6.48926 l -15.333,9.334 a 3.50232,3.50232 0 0 1 -1.82032,0.51074 h -13.167 V 81.5 h 39.834 a 3.50007,3.50007 0 0 1 1.81933,6.49023 l -15.334,9.333 A 3.50447,3.50447 0 0 1 289.6663,97.833 Z"
     fill="url(#linear-gradient-5)"
     id="path113"
     style="fill:url(#linear-gradient-5)" />
  <path
     d="M 303.66662,47.66667 288.33331,57 h -26.66669 v 9.33333 h 32 l -15.33331,9.33335 H 261.66662 V 85 h 43.33337 l -15.33337,9.33332 h -44 v -36 l 16,-10.66666 h 42 m -10,18.66666 h 0.005 m 9.995,-25.66666 h -42 a 7,7 0 0 0 -3.88287,1.17565 l -16,10.66665 a 7,7 0 0 0 -3.11713,5.82436 v 36 a 7,7 0 0 0 7,7 h 44 a 7.00008,7.00008 0 0 0 3.63965,-1.02059 L 308.63961,90.9794 A 7,7 0 0 0 304.99999,78 h -17.03714 l 9.22016,-5.61228 a 7.00249,7.00249 0 0 0 -0.40888,-12.33079 l 10.53218,-6.41086 a 7,7 0 0 0 -3.63965,-12.9794 z m 0,14 z"
     fill="#ffffff"
     id="path115" />
  <path
     d="m 104.33331,97.833 a 3.50017,3.50017 0 0 1 -3.5,-3.5 v -36 a 3.49958,3.49958 0 0 1 1.55859,-2.91211 l 16,-10.66651 a 3.49948,3.49948 0 0 1 1.94141,-0.58788 h 42 a 3.5,3.5 0 0 1 1.81982,6.48975 l -15.3335,9.333 A 3.498,3.498 0 0 1 146.99981,60.5 h -23.1665 v 2.333 h 28.5 a 3.49968,3.49968 0 0 1 1.81982,6.48926 l -15.3335,9.334 a 3.498,3.498 0 0 1 -1.81982,0.51074 h -13.1665 V 81.5 h 39.83349 a 3.49968,3.49968 0 0 1 1.81983,6.48926 l -15.3335,9.333 a 3.498,3.498 0 0 1 -1.81982,0.51074 z"
     fill="url(#linear-gradient-6)"
     id="path117"
     style="fill:url(#linear-gradient-6)" />
  <path
     d="M 162.33331,47.66667 146.99999,57 h -26.66668 v 9.33333 h 32 l -15.33332,9.33335 H 120.33331 V 85 h 43.33331 l -15.33331,9.33332 h -44 v -36 l 16,-10.66666 h 42 m -10,18.66667 h 0.005 m 9.995,-25.66666 h -42 a 7,7 0 0 0 -3.88289,1.17565 l -16,10.66665 a 7,7 0 0 0 -3.11711,5.82436 v 36 a 7,7 0 0 0 7,7 h 44 a 7,7 0 0 0 3.63961,-1.02059 l 15.33332,-9.33333 A 7,7 0 0 0 163.66662,78 h -17.03708 l 9.22015,-5.61228 a 7.00249,7.00249 0 0 0 -0.40887,-12.33079 l 10.5321,-6.41086 a 7,7 0 0 0 -3.63961,-12.9794 z m 0,14 z"
     fill="#ffffff"
     id="path119" />
  <path
     d="m 31.6668,97.833 a 3.50017,3.50017 0 0 1 -3.5,-3.5 v -36 a 3.49956,3.49956 0 0 1 1.5586,-2.91211 l 16,-10.66651 a 3.49942,3.49942 0 0 1 1.9414,-0.58789 h 48.66651 a 3.5,3.5 0 0 1 1.81982,6.48975 l -15.3335,9.333 A 3.498,3.498 0 0 1 80.99981,60.5 h -29.833 v 21 h 23 v -4.333 h -15.167 a 3.49968,3.49968 0 0 1 -1.81982,-6.48926 l 15.33349,-9.334 A 3.49807,3.49807 0 0 1 74.33331,60.833 H 93.6668 a 3.50017,3.50017 0 0 1 3.5,3.5 v 19.334 a 3.50087,3.50087 0 0 1 -1.55859,2.91211 l -16,10.666 A 3.49674,3.49674 0 0 1 77.6668,97.833 Z"
     fill="url(#linear-gradient-7)"
     id="path121"
     style="fill:url(#linear-gradient-7)" />
  <path
     d="m 96.33331,47.66667 h 0.005 m -0.005,0 L 80.99999,57 H 47.66662 v 28 h 30 V 73.66668 H 58.99999 l 15.33332,-9.33335 h 19.33331 v 19.33335 l -16,10.66664 h -46 v -36 l 16,-10.66666 h 48.66669 m 0.005,-7 H 47.66662 a 7,7 0 0 0 -3.8829,1.17565 l -16,10.66665 a 7,7 0 0 0 -3.1171,5.82436 v 36 a 7,7 0 0 0 7,7 h 46 a 7,7 0 0 0 3.88289,-1.17565 l 16,-10.66665 a 6.99994,6.99994 0 0 0 3.11711,-5.82434 V 64.33333 a 7,7 0 0 0 -6.75806,-6.9959 l 5.942,-3.61689 A 7.00016,7.00016 0 0 0 96.33831,40.66667 Z m -0.005,14 z M 54.66662,64 h 6.75143 l -6.05774,3.6873 a 7.0222,7.0222 0 0 0 -0.69374,0.48157 V 64 Z"
     fill="#ffffff"
     id="path123" />
  <path
     d="m 309.66631,97.833 a 3.50008,3.50008 0 0 1 -1.81933,-6.49024 l 15.334,-9.333 A 3.50449,3.50449 0 0 1 325.00031,81.5 h 26.5 v -2.333 h -41.834 a 3.50049,3.50049 0 0 1 -3.5,-3.5 V 57.6665 a 3.4992,3.4992 0 0 1 1.68067,-2.98974 l 15.334,-9.333 a 3.49588,3.49588 0 0 1 1.81934,-0.51025 h 48 a 3.49983,3.49983 0 0 1 1.81933,6.48974 l -15.334,9.333 a 3.49633,3.49633 0 0 1 -1.81934,0.51074 h -27.833 v 1.666 h 42.5 a 3.50049,3.50049 0 0 1 3.5,3.5 V 85 a 3.4978,3.4978 0 0 1 -1.68067,2.98926 l -15.333,9.333 a 3.49632,3.49632 0 0 1 -1.81933,0.51074 z"
     fill="url(#linear-gradient-8)"
     id="path125"
     style="fill:url(#linear-gradient-8)" />
  <path
     d="m 372.99999,48.33331 h 0.005 m -0.005,0 -15.33337,9.33338 h -31.33331 v 8.66662 h 46 V 85 l -15.33332,9.33332 H 309.66662 L 324.99999,85 h 30 v -9.3333 h -45.33337 v -18 l 15.33337,-9.33338 h 48 m 0.005,-7 h -48.005 a 6.99984,6.99984 0 0 0 -3.63965,1.02063 l -15.33337,9.33337 a 7,7 0 0 0 -3.36035,5.97938 v 18 a 7,7 0 0 0 7,7 h 5.7037 l -9.34332,5.68722 a 7,7 0 0 0 3.63962,12.9794 h 47.33337 a 7,7 0 0 0 3.63962,-1.0206 L 375.97292,90.9794 A 7,7 0 0 0 379.33331,85 V 66.33331 a 7,7 0 0 0 -7,-7 h -3.94181 l 8.1254,-4.94592 a 7.00015,7.00015 0 0 0 -3.51193,-13.05408 z m -0.005,14 z"
     fill="#ffffff"
     id="path127" />
  <path
     d="m 411.66631,97.833 a 3.50008,3.50008 0 0 1 -1.81933,-6.49024 l 15.334,-9.333 A 3.50449,3.50449 0 0 1 427.00031,81.5 h 26.5 v -2.333 h -41.834 a 3.50049,3.50049 0 0 1 -3.5,-3.5 V 57.6665 a 3.4992,3.4992 0 0 1 1.68067,-2.98974 l 15.334,-9.333 a 3.49588,3.49588 0 0 1 1.81934,-0.51025 h 48 a 3.49983,3.49983 0 0 1 1.81933,6.48974 l -15.334,9.333 a 3.49633,3.49633 0 0 1 -1.81934,0.51074 h -27.833 v 1.666 h 42.5 a 3.50049,3.50049 0 0 1 3.5,3.5 V 85 a 3.4978,3.4978 0 0 1 -1.68067,2.98926 l -15.333,9.333 a 3.49632,3.49632 0 0 1 -1.81933,0.51074 z"
     fill="url(#linear-gradient-9)"
     id="path129"
     style="fill:url(#linear-gradient-9)" />
  <path
     d="m 474.99999,48.33331 h 0.005 m -0.005,0 -15.33337,9.33338 h -31.33331 v 8.66662 h 46 V 85 l -15.33332,9.33332 H 411.66662 L 426.99999,85 h 30 v -9.3333 h -45.33337 v -18 l 15.33337,-9.33338 h 48 m 0.005,-7 h -48.005 a 6.99992,6.99992 0 0 0 -3.63965,1.02063 l -15.33337,9.33337 a 7,7 0 0 0 -3.36035,5.97938 v 18 a 7,7 0 0 0 7,7 h 5.70369 l -9.34326,5.68722 a 7,7 0 0 0 3.63959,12.9794 h 47.33337 a 6.99984,6.99984 0 0 0 3.63959,-1.0206 L 477.97297,90.9794 A 7.0001,7.0001 0 0 0 481.33331,85 V 66.33331 a 7,7 0 0 0 -7,-7 h -3.94184 l 8.12543,-4.94592 A 7.00015,7.00015 0 0 0 475.005,41.33331 Z m -0.005,14 z"
     fill="#ffffff"
     id="path131" />
  <g
     id="g3"
     transform="translate(-244.66669)">
    <path
       id="path5"
       d="M 251.66666,53.66667 V 89 l 32,18 h 432.66667 l 32,-18 V 53.66667 l -32,-18 h -160 L 539.66666,7 H 461 L 444.33333,35.66667 H 283.66666 Z m 168,-6 h 16.66667 l 30,16.76 v -16.76 h 16 v 46.66666 h -16 v -17.24 L 435.66666,59.954 v 34.37933 h -16 z M 628.33333,94.33333 V 47.66667 h 16 v 46.66666 z m -138,0 v -36 l 16,-10.66666 h 42 L 533,57 h -26.66667 v 9.33333 h 32 L 523,75.66667 H 506.33333 V 85 h 43.33333 l -15.33333,9.33333 z m -141.33333,0 v -36 l 16,-10.66666 h 42 L 391.66666,57 H 365 v 9.33333 h 32 l -15.33334,9.33334 H 365 V 85 h 43.33333 L 393,94.33333 Z m -10.66667,-30 v 19.33334 l -16,10.66666 h -46 v -36 l 16,-10.66666 H 341 L 325.66666,57 h -33.33333 v 28 h 30 V 73.66667 H 303.66666 L 319,64.33333 Z M 617,85 601.66666,94.33333 H 554.33333 L 569.66666,85 h 30 v -9.33333 h -45.33333 v -18 l 15.33333,-9.33334 h 48 l -15.33333,9.33334 H 571 v 8.66666 h 46 z m 102,0 -15.33334,9.33333 H 656.33333 L 671.66666,85 h 30 v -9.33333 h -45.33333 v -18 l 15.33333,-9.33334 h 48 l -15.33333,9.33334 H 673 v 8.66666 h 46 z"
       fill="#c2c4d2" />
    <path
       id="path14"
       d="M 553.66666,39.66667 537,11 H 463.44667 L 446.78,39.66667 H 283.88666 L 255.66666,55.5 V 87.16667 L 283.88666,103 H 716.56 L 744.78,87.16667 V 55.5 L 716.56,39.66667 Z m -134,8 h 16.66667 l 30,16.76 v -16.76 h 16 v 46.66666 h -16 v -17.24 L 435.66666,59.954 v 34.37933 h -16 z M 628.33333,94.33333 V 47.66667 h 16 v 46.66666 z m -138,0 v -36 l 16,-10.66666 h 42 L 533,57 h -26.66667 v 9.33333 h 32 L 523,75.66667 H 506.33333 V 85 h 43.33333 l -15.33333,9.33333 z m -141.33333,0 v -36 l 16,-10.66666 h 42 L 391.66666,57 H 365 v 9.33333 h 32 l -15.33334,9.33334 H 365 V 85 h 43.33333 L 393,94.33333 Z m -10.66667,-30 v 19.33334 l -16,10.66666 h -46 v -36 l 16,-10.66666 H 341 L 325.66666,57 h -33.33333 v 28 h 30 V 73.66667 H 303.66666 L 319,64.33333 Z M 617,85 601.66666,94.33333 H 554.33333 L 569.66666,85 h 30 v -9.33333 h -45.33333 v -18 l 15.33333,-9.33334 h 48 l -15.33333,9.33334 H 571 v 8.66666 h 46 z m 102,0 -15.33334,9.33333 H 656.33333 L 671.66666,85 h 30 v -9.33333 h -45.33333 v -18 l 15.33333,-9.33334 h 48 l -15.33333,9.33334 H 673 v 8.66666 h 46 z"
       fill="url(#linear-gradient-10)"
       style="fill:url(#linear-gradient-10)" />
    <path
       id="path16"
       d="m 522.77333,18.8 -6.24666,19.03333 h 3.08667 l 6.26066,-18.38 a 1.74842,1.74842 0 0 1 3.44667,0 L 534.61334,35 h -8.30666 v 2.83333 h 12.36 L 532.42,18.8 a 5.01821,5.01821 0 0 0 -9.64667,0 z m 3.66,11.82 1.09334,-3.24667 1.14,3.24667 z M 525.98,21.3 520.38665,37.83333 h 3.60667 L 526.30666,30.98 v 3.24 h 7.26666 l -4.314,-12.92 c -0.21934,-0.72 -0.87333,-2.78666 -1.64,-2.78666 -0.77266,0 -1.426,2.06667 -1.63934,2.78666 z m -19.75334,-2.52666 h 10.814 V 15.68 h -11.07334 a 5.41152,5.41152 0 0 0 -5.40665,5.41333 v 11.33335 a 5.40582,5.40582 0 0 0 5.40665,5.40665 h 11.07333 V 23.40666 h -8.754 V 26.24 h 5.66 v 8.5 h -7.72 a 2.57,2.57 0 0 1 -2.57267,-2.57332 v -10.82 a 2.56962,2.56962 0 0 1 2.57268,-2.57334 z m 2.06,8.24 v 3.09334 h 1.8 V 30.88 h -1.8 a 0.77387,0.77387 0 0 1 -0.77334,-0.77333 v -6.7 a 0.77432,0.77432 0 0 1 0.77334,-0.77334 h 8.754 V 19.54667 H 507 A 2.57631,2.57631 0 0 0 504.42,22.12 v 9.27332 a 2.57631,2.57631 0 0 0 2.58,2.57333 h 6.18 v -6.95332 z m -19.82666,-8.24 h 10.81333 V 15.68 H 488.2 a 5.41152,5.41152 0 0 0 -5.40666,5.41333 V 32.3 A 5.41153,5.41153 0 0 0 488.2,37.71332 h 11.07332 V 34.62 H 488.46 a 2.57488,2.57488 0 0 1 -2.57333,-2.57332 v -10.7 A 2.57489,2.57489 0 0 1 488.46,18.77332 Z m 8.49332,7.46666 v -2.83334 h -7.20666 A 0.77389,0.77389 0 0 1 490.52,22.63332 h 8.75333 v -3.08667 h -10.04 A 2.57487,2.57487 0 0 0 486.66,22.12 v 4.12 h 10.29331 z m 0,1.03333 v 2.83333 h -7.20666 A 0.77387,0.77387 0 0 0 490.52,30.88 h 8.75333 v 3.08667 h -10.04 A 2.57488,2.57488 0 0 1 486.66,31.39333 v -4.12 h 10.29333 z m -26.46,3.86 H 464 v 2.83333 h 10.04 a 3.4779,3.4779 0 0 0 -0.12666,-6.95332 h -3.90666 a 4.45462,4.45462 0 0 1 -2.92,-3.99334 4.47461,4.47461 0 0 1 4.50667,-4.24666 h 9.66 V 15.68 H 471.20666 A 7.21253,7.21253 0 0 0 464,22.89333 a 7.43452,7.43452 0 0 0 7.46667,7.21334 v -0.03333 l 0.02,0.03333 h 2.3 a 0.51333,0.51333 0 0 1 0,1.02665 h -3.29336 z m 4.26,-8.75334 h 6.5 V 19.54665 H 471.20666 A 3.4779,3.4779 0 0 0 471.34,26.5 h 3.90666 A 4.45556,4.45556 0 0 1 478.16,30.49331 4.47462,4.47462 0 0 1 473.65332,34.74 H 464 v 3.09334 h 10.04 a 7.21394,7.21394 0 0 0 7.21333,-7.21334 7.439,7.439 0 0 0 -7.46667,-7.21333 v 0.04 l -0.0267,-0.04 h -2.29334 a 0.51334,0.51334 0 0 1 0,-1.02668 h 3.28666 z"
       fill="#181c4e" />
  </g>
  <polygon
     id="polygon37"
     points="466.333,94.333 466.333,77.093 435.667,59.954 435.667,94.333 419.667,94.333 419.667,47.667 436.333,47.667 466.333,64.427 466.333,47.667 482.333,47.667 482.333,94.333 "
     fill="url(#linear-gradient-11)"
     style="fill:url(#linear-gradient-11)"
     transform="translate(-244.66669)" />
  <rect
     id="rect58"
     x="383.66663"
     y="47.666672"
     width="16"
     height="46.666672"
     fill="url(#linear-gradient-12)"
     style="fill:url(#linear-gradient-12)" />
  <polygon
     id="polygon79"
     points="506.333,66.333 538.333,66.333 523,75.667 506.333,75.667 506.333,85 549.667,85 534.333,94.333 490.333,94.333 490.333,58.333 506.333,47.667 548.333,47.667 533,57 506.333,57 "
     fill="url(#linear-gradient-13)"
     style="fill:url(#linear-gradient-13)"
     transform="translate(-244.66669)" />
  <polygon
     id="polygon100"
     points="365,66.333 397,66.333 381.667,75.667 365,75.667 365,85 408.333,85 393,94.333 349,94.333 349,58.333 365,47.667 407,47.667 391.667,57 365,57 "
     fill="url(#linear-gradient-14)"
     style="fill:url(#linear-gradient-14)"
     transform="translate(-244.66669)" />
  <polygon
     id="polygon121"
     points="341,47.667 325.667,57 292.333,57 292.333,85 322.333,85 322.333,73.667 303.667,73.667 319,64.333 338.333,64.333 338.333,83.667 322.333,94.333 276.333,94.333 276.333,58.333 292.333,47.667 "
     fill="url(#linear-gradient-15)"
     style="fill:url(#linear-gradient-15)"
     transform="translate(-244.66669)" />
  <polygon
     id="polygon142"
     points="554.333,75.667 554.333,57.667 569.667,48.333 617.667,48.333 602.333,57.667 571,57.667 571,66.333 617,66.333 617,85 601.667,94.333 554.333,94.333 569.667,85 599.667,85 599.667,75.667 "
     fill="url(#linear-gradient-16)"
     style="fill:url(#linear-gradient-16)"
     transform="translate(-244.66669)" />
  <polygon
     id="polygon163"
     points="656.333,75.667 656.333,57.667 671.667,48.333 719.667,48.333 704.333,57.667 673,57.667 673,66.333 719,66.333 719,85 703.667,94.333 656.333,94.333 671.667,85 701.667,85 701.667,75.667 "
     fill="url(#linear-gradient-17)"
     style="fill:url(#linear-gradient-17)"
     transform="translate(-244.66669)" />
  <metadata
     id="metadata962">
    <rdf:RDF>
      <cc:Work
         rdf:about="">
        <dc:title>logo</dc:title>
      </cc:Work>
    </rdf:RDF>
  </metadata>
</svg>
