<?xml version="1.0" encoding="UTF-8" standalone="no"?>
<svg
   id="Capa_1"
   data-name="Capa 1"
   viewBox="0 0 322.87152 114"
   version="1.1"
   sodipodi:docname="odyssey2.svg"
   width="322.87152"
   height="114"
   inkscape:version="1.1 (c68e22c387, 2021-05-23)"
   xmlns:inkscape="http://www.inkscape.org/namespaces/inkscape"
   xmlns:sodipodi="http://sodipodi.sourceforge.net/DTD/sodipodi-0.dtd"
   xmlns="http://www.w3.org/2000/svg"
   xmlns:svg="http://www.w3.org/2000/svg"
   xmlns:rdf="http://www.w3.org/1999/02/22-rdf-syntax-ns#"
   xmlns:cc="http://creativecommons.org/ns#"
   xmlns:dc="http://purl.org/dc/elements/1.1/">
  <sodipodi:namedview
     id="namedview50"
     pagecolor="#ffffff"
     bordercolor="#666666"
     borderopacity="1.0"
     inkscape:pageshadow="2"
     inkscape:pageopacity="0.0"
     inkscape:pagecheckerboard="0"
     showgrid="false"
     fit-margin-top="0"
     fit-margin-left="0"
     fit-margin-right="0"
     fit-margin-bottom="0"
     inkscape:zoom="1.113"
     inkscape:cx="255.61545"
     inkscape:cy="42.228212"
     inkscape:window-width="1920"
     inkscape:window-height="1138"
     inkscape:window-x="-8"
     inkscape:window-y="-8"
     inkscape:window-maximized="1"
     inkscape:current-layer="Capa_1" />
  <defs
     id="defs9">
    <linearGradient
       id="linear-gradient"
       x1="484.95175"
       y1="107.00002"
       x2="484.95175"
       y2="14.39138"
       gradientUnits="userSpaceOnUse">
      <stop
         offset="0.3"
         stop-color="#f2e500"
         id="stop2" />
      <stop
         offset="0.6"
         stop-color="#f39519"
         id="stop4" />
      <stop
         offset="1"
         stop-color="#e6680b"
         id="stop6" />
    </linearGradient>
  </defs>
  <title
     id="title11">logo</title>
  <g
     id="g889"
     transform="translate(-338.56854)">
    <path
       d="m 484.47149,110.49126 a 3.48539,3.48539 0 0 1 -1.81885,-0.51171 L 346.10137,26.76031 c -0.0474,-0.02881 -0.0942,-0.05908 -0.14014,-0.08985 a 9.53692,9.53692 0 0 1 -3.89258,-7.77832 c 0,-4.689 4.2959,-7.13672 6.834,-7.84375 a 3.49345,3.49345 0 0 1 0.93945,-0.12841 h 28.85059 a 3.50011,3.50011 0 0 1 2.30517,0.86621 L 486.7791,104.357 a 3.50044,3.50044 0 0 1 -2.30761,6.13427 z"
       fill="#e6680b"
       id="path13" />
    <path
       d="m 378.69268,14.42022 105.78143,92.57043 -136.5517,-83.21918 a 6.06974,6.06974 0 0 1 -2.35376,-4.87921 c 0,-3.282 4.27356,-4.472 4.27356,-4.472 h 28.85047 m 6.73285,23.36839 h 3.9646 c 1.52386,0 2.24237,-1.20335 0.40969,-2.68957 l -13.89471,-11.4295 h -6.8533 c -1.52417,0 -1.27808,1.20368 0.55432,2.68526 l 15.8194,11.43381 M 378.69268,7.42022 h -28.85047 a 7.00078,7.00078 0 0 0 -1.87787,0.25658 c -4.67675,1.30235 -9.39569,5.27535 -9.39569,11.21546 a 13.10662,13.10662 0 0 0 5.43109,10.67685 q 0.13779,0.09323 0.27982,0.17979 l 136.55167,83.21919 a 7,7 0 0 0 8.25271,-11.24518 L 383.30251,9.15247 a 6.9999,6.9999 0 0 0 -4.60983,-1.73225 z"
       fill="#ffffff"
       id="path15" />
    <path
       d="m 484.47442,110.49078 a 3.49075,3.49075 0 0 1 -2.38819,-0.94092 L 396.76348,29.9273 a 3.50218,3.50218 0 0 1 -1.11182,-2.59082 H 395.472 a 3.5,3.5 0 0 1 -2.39306,-0.9458 L 383.02767,16.97417 A 3.5001,3.5001 0 0 1 385.4207,10.92 h 31.58985 c 0.12207,-0.0078 0.28515,-0.01416 0.48535,-0.01416 a 13.17881,13.17881 0 0 1 9.05957,4.07031 36.31035,36.31035 0 0 1 6.105,7.91894 l 54.72653,82.15526 a 3.50026,3.50026 0 0 1 -2.91259,5.44043 z M 421.75567,36.67925"
       fill="#e6680b"
       id="path17" />
    <path
       d="m 417.49587,14.40594 a 9.71117,9.71117 0 0 1 6.61917,3.079 32.33422,32.33422 0 0 1 5.54645,7.22167 l 54.81262,82.284 -85.32227,-79.62232 h 12.84327 l 9.89184,9.4945 h 1.97266 c 1.505,0 1.6734,-1.20338 0.37591,-2.68932 L 415.453,23.83641 h -19.9812 l -10.05115,-9.41618 h 31.73523 a 3.20976,3.20976 0 0 1 0.34,-0.01429 m 0,-7 c -0.21256,0 -0.40457,0.00565 -0.57391,0.01429 h -31.50133 a 7,7 0 0 0 -4.78576,12.10847 l 10.05112,9.41618 a 6.99812,6.99812 0 0 0 2.11158,1.36059 6.9888,6.9888 0 0 0 1.57842,2.18053 l 85.32226,79.62235 a 7,7 0 0 0 10.60163,-8.99849 L 435.65328,21.0751 a 39.68673,39.68673 0 0 0 -6.66031,-8.61066 16.69923,16.69923 0 0 0 -11.4971,-5.0585 z"
       fill="#ffffff"
       id="path19" />
    <path
       d="m 485.43584,110.49126 a 3.49918,3.49918 0 0 1 -3.08252,-1.83935 L 445.5374,40.36285 h -1.373 a 7.80258,7.80258 0 0 1 -7.32325,-4.32178 l -12.0957,-19.79639 a 3.49987,3.49987 0 0 1 2.98682,-5.3247 h 13.67334 a 3.50115,3.50115 0 0 1 2.88672,1.5205 3.49874,3.49874 0 0 1 2.88623,-1.5205 h 13.25341 a 3.50068,3.50068 0 0 1 3.37061,2.55615 l 5.58008,19.9292 c 0.0132,0.04785 0.0254,0.0957 0.0366,0.144 a 5.25828,5.25828 0 0 1 -0.86328,4.60791 5.44547,5.44547 0 0 1 -2.95117,1.89258 l 23.13086,65.77978 a 3.50067,3.50067 0 0 1 -3.29981,4.66162 z"
       fill="#e6680b"
       id="path21" />
    <path
       d="m 460.43212,14.42023 5.57977,19.92882 c 0.362,1.54156 -0.3905,2.46277 -2.77759,2.51374 h -2.46 L 485.43385,106.99064 447.627,36.86279 h -3.4627 c -2.89869,-0.051 -3.55957,-1.384 -4.47077,-2.86553 l -11.9613,-19.577 h 13.67322 l 4.94354,9.791 a 4.21384,4.21384 0 0 0 3.47241,2.33783 c 1.32629,0 1.92438,-1.04612 1.33606,-2.33783 l -3.97894,-9.791 h 13.2536 m 0,-7 h -13.2536 A 6.99623,6.99623 0 0 0 444.292,8.043 6.99149,6.99149 0 0 0 441.40541,7.42018 h -13.67318 a 7,7 0 0 0 -5.9733,10.64962 l 11.9613,19.577 0.13215,0.21609 a 11.19347,11.19347 0 0 0 9.58334,5.97639 l 35.83655,66.4731 a 7,7 0 0 0 12.76523,-5.6439 L 469.90761,41.73464 a 8.46872,8.46872 0 0 0 1.41458,-1.43282 8.80071,8.80071 0 0 0 1.50431,-7.553 q -0.0339,-0.14427 -0.0739,-0.28706 l -5.57977,-19.92882 a 6.99993,6.99993 0 0 0 -6.74075,-5.11268 z"
       fill="#ffffff"
       id="path23" />
    <path
       d="m 487.3626,110.49078 a 3.50034,3.50034 0 0 1 -2.85547,-5.52344 l 65.59229,-92.58447 a 3.49813,3.49813 0 0 1 2.85546,-1.47657 h 32.7959 a 3.50009,3.50009 0 0 1 2.39063,6.05664 l -9.66992,9.041 a 3.50143,3.50143 0 0 1 -2.04493,0.92627 3.49644,3.49644 0 0 1 -1.12695,2.11572 l -8.9707,8.05957 a 3.49956,3.49956 0 0 1 -1.69629,0.83692 3.498,3.498 0 0 1 -1.08008,2.15869 l -73.791,69.43847 a 3.49218,3.49218 0 0 1 -2.39894,0.9512 z"
       fill="#e6680b"
       id="path25" />
    <path
       d="m 585.75084,14.40654 -9.66974,9.04076 h -15.48162 a 1.0961,1.0961 0 0 0 -0.9646,0.6943 l -0.65119,1.6065 a 0.48516,0.48516 0 0 0 0.48249,0.69432 h 13.49444 L 563.99,34.502 h -13.32125 a 1.09619,1.09619 0 0 0 -0.96429,0.69459 l -0.36652,1.66156 a 0.48519,0.48519 0 0 0 0.48248,0.69426 h 11.33374 l -73.79107,69.43823 65.592,-92.58411 h 32.79571 m -24.59664,23.14589 h 0.005 M 585.75084,7.40654 H 552.95513 A 7,7 0 0 0 547.24331,10.36 l -65.592,92.58412 a 7,7 0 0 0 10.509,9.14441 L 565.874,42.723 a 7.02518,7.02518 0 0 0 1.598,-2.14844 6.99857,6.99857 0 0 0 1.19623,-0.86544 l 8.97068,-8.05959 a 6.99081,6.99081 0 0 0 1.49255,-1.90178 6.99722,6.99722 0 0 0 1.73028,-1.18719 l 9.66974,-9.04076 A 7,7 0 0 0 585.75084,7.40656 Z m 0,14 z"
       fill="#ffffff"
       id="path27" />
    <path
       d="m 489.29473,110.49078 a 3.50011,3.50011 0 0 1 -2.21826,-6.20948 l 80.4624,-65.7998 a 4.22193,4.22193 0 0 1 -0.76953,-1.25391 c -1.58985,-4.08886 3.69336,-8.99316 3.91894,-9.1997 l 17.50977,-16.19141 a 3.49851,3.49851 0 0 1 2.376,-0.93018 c 0.0127,0 10.85254,0.12061 10.85254,0.12061 a 3.50106,3.50106 0 0 1 3.334,4.436 l 4.60742,-3.7666 a 3.5,3.5 0 0 1 2.21484,-0.79 h 12.752 a 3.49974,3.49974 0 0 1 2.17187,6.24414 l -24.25984,19.20214 c -0.0664,0.05274 -0.13477,0.103 -0.20411,0.15039 -3.15332,2.14307 -5.58007,3.47119 -7.93359,3.47119 h -4.28613 l -98.50586,69.87159 a 3.48756,3.48756 0 0 1 -2.02246,0.64502 z"
       fill="#e6680b"
       id="path29" />
    <path
       d="m 624.33483,14.40653 h 0.005 m -0.005,0 -24.25958,19.20194 c -2.17988,1.48156 -4.43708,2.86553 -5.9657,2.86553 h -5.402 L 489.29233,106.99067 575.5219,36.474 h -4.3985 q -0.0399,0.0012 -0.0782,0.0012 c -2.71,0 0.34478,-4.34395 2.00744,-5.86654 l 17.52155,-16.2021 10.813,0.1203 -10.78421,9.98994 c -1.69318,1.29163 0.26031,2.66163 1.59149,2.66163 0.13421,0 0.27514,8.4e-4 0.42242,8.4e-4 a 8.2508,8.2508 0 0 0 5.05634,-1.40344 l 13.90954,-11.36927 h 12.752 m -33.76068,-7 a 6.9998,6.9998 0 0 0 -4.75238,1.86054 l -17.52155,16.2021 c -0.68335,0.62563 -6.52881,6.1954 -5.10358,12.04151 l -78.33572,64.06123 a 7,7 0 0 0 8.48123,11.12829 L 590.9381,43.474 h 3.17145 c 3.2503,0 6.198,-1.55966 9.90057,-4.07613 q 0.21012,-0.14285 0.40955,-0.3007 l 24.17,-19.131 A 6.99949,6.99949 0 0 0 624.33985,7.40655 h -12.757 a 7.00009,7.00009 0 0 0 -4.43005,1.58013 l -0.77374,0.63249 a 6.99843,6.99843 0 0 0 -4.91388,-2.09188 l -10.813,-0.1203 -0.0779,-4.4e-4 z m 33.76068,14 z"
       fill="#ffffff"
       id="path31" />
    <path
       d="m 486.513,110.44 a 3.50084,3.50084 0 0 1 -3.373,-4.42968 l 19.10352,-69.37793 a 3.49253,3.49253 0 0 1 0.56445,-1.15772 3.49374,3.49374 0 0 1 -0.0273,-1.82519 l 3.45752,-13.60987 c 0.24121,-0.86377 1.46875,-4.85693 4.14941,-7.02246 a 9.15741,9.15741 0 0 1 5.73877,-2.1123 c 0.19092,0 0.3501,0.0068 0.47363,0.01514 h 30.563 a 3.5,3.5 0 0 1 2.91016,5.44482 l -6.043,9.0415 a 3.49949,3.49949 0 0 1 -2.10547,1.46143 3.49954,3.49954 0 0 1 -0.53125,2.42822 L 489.4452,108.85309 A 3.50072,3.50072 0 0 1 486.513,110.44 Z"
       fill="#e6680b"
       id="path33" />
    <path
       d="m 516.12578,14.405 a 2.64471,2.64471 0 0 1 0.31476,0.0152 h 30.72272 l -6.04346,9.041 h -20.11688 a 1.20257,1.20257 0 0 0 -1.1427,0.92586 l -0.53552,2.069 a 0.74926,0.74926 0 0 0 0.77191,0.92615 h 18.36609 l -51.94831,79.55743 19.1037,-69.37794 h 15.81421 a 1.92283,1.92283 0 0 0 1.28259,-0.69432 l 0.99891,-1.66183 c 0.30865,-0.38414 0.23638,-0.69432 -0.15961,-0.69432 h -17.38141 l 3.45758,-13.61006 c 0,0 1.0083,-3.58744 2.9566,-5.16134 a 5.69187,5.69187 0 0 1 3.53882,-1.33485 m 22.33692,12.97728 h 0.005 M 516.12578,7.405 a 12.67528,12.67528 0 0 0 -7.94427,2.895 c -3.41214,2.75641 -4.91184,7.3615 -5.29,8.70711 q -0.0238,0.085 -0.0456,0.17048 l -3.45762,13.61011 a 6.99837,6.99837 0 0 0 -0.209,2.02691 7.032,7.032 0 0 0 -0.31,0.88882 l -19.1037,69.37794 a 6.99984,6.99984 0 0 0 12.61,5.68544 L 544.2313,31.35116 a 6.96563,6.96563 0 0 0 1.018,-2.23763 6.995,6.995 0 0 0 1.69,-1.76219 l 6.04349,-9.04105 A 7,7 0 0 0 547.16321,7.42023 H 516.6939 c -0.17041,-0.00927 -0.36057,-0.01521 -0.56812,-0.01521 z"
       fill="#ffffff"
       id="path35" />
    <path
       d="m 485.90654,110.50005 a 3.49982,3.49982 0 0 1 -3.41943,-2.75341 l -15.1582,-69.44776 a 3.504,3.504 0 0 1 0.0127,-1.54883 3.48845,3.48845 0 0 1 -0.73974,-1.51465 c 0,0 -2.9336,-13.69287 -2.94043,-13.73242 -0.21485,-1.20263 -0.7583,-5.32812 1.27539,-7.93164 a 7.15094,7.15094 0 0 1 5.70508,-2.68017 c 0.19189,0 0.35253,0.0068 0.47607,0.01513 h 34.57275 a 3.50059,3.50059 0 0 1 3.43213,4.18653 l -1.80859,9.041 a 3.4959,3.4959 0 0 1 -1.13477,1.9541 3.50245,3.50245 0 0 1 0.16553,2.01172 L 489.3294,107.7315 a 3.50027,3.50027 0 0 1 -3.415,2.76855 z"
       fill="#e6680b"
       id="path37" />
    <path
       d="m 470.64144,14.39134 a 2.9017,2.9017 0 0 1 0.32394,0.0152 h 34.72528 L 503.882,23.4473 h -22.1375 a 0.705,0.705 0 0 0 -0.72339,0.92586 l 0.31341,2.06926 a 1.31536,1.31536 0 0 0 1.20557,0.92586 h 20.382 L 485.90661,107 470.74816,37.55242 H 488.569 a 1.09638,1.09638 0 0 0 0.9646,-0.69426 l 0.36658,-1.66156 a 0.48531,0.48531 0 0 0 -0.48249,-0.69459 h -19.39323 l -2.91778,-13.61476 c 0,0 -0.64118,-3.58751 0.58862,-5.16136 a 3.71611,3.71611 0 0 1 2.94614,-1.33455 m 32.28067,12.97694 h 0.005 M 470.64144,7.39133 a 10.62581,10.62581 0 0 0 -8.46189,4.0245 c -2.84753,3.64421 -2.32186,8.69889 -1.96371,10.703 q 0.0211,0.11807 0.0462,0.23533 l 2.91782,13.61476 a 7.0007,7.0007 0 0 0 0.56842,1.63485 6.99722,6.99722 0 0 0 0.16089,1.44145 l 15.15845,69.44755 A 7,7 0 0 0 485.90642,114 h 0.0155 a 7,7 0 0 0 6.83013,-5.53723 l 16.96653,-79.4026 a 7.01164,7.01164 0 0 0 0.206,-1.69184 q 0,-0.18582 -0.01,-0.36947 a 6.98777,6.98777 0 0 0 0.83087,-2.17827 l 1.80875,-9.04076 a 7,7 0 0 0 -6.864,-8.37324 h -34.47592 c -0.17087,-0.00921 -0.36288,-0.01521 -0.5733,-0.01521 z"
       fill="#ffffff"
       id="path39" />
    <path
       d="m 623.45684,25.31353 a 3.4998,3.4998 0 0 1 -2.24805,-6.18213 c 4.08984,-3.42822 8.7168,-7.335 9.23731,-7.82226 a 8.31209,8.31209 0 0 1 2.28613,-1.46387 c -0.0498,-1.95508 1.668,-3.10059 2.97168,-3.96875 0.24023,-0.16016 0.46777,-0.30957 0.61914,-0.41846 a 7.67987,7.67987 0 0 1 2.14062,-1.3501 6.9879,6.9879 0 0 1 2.77051,-0.60791 h 11.29492 c 2.65625,0 4.63379,1.22754 5.16211,3.20313 a 4.56748,4.56748 0 0 1 -1.01758,4.65137 c -0.33984,0.41455 -1.32519,1.5791 -2.84765,3.08886 a 14.65828,14.65828 0 0 1 -6.09082,3.2334 c -0.251,0.0791 -0.46387,0.1416 -0.61719,0.20264 a 8.99138,8.99138 0 0 1 -2.19141,0.52051 4.27847,4.27847 0 0 1 -1.49121,3.44287 l -0.208,0.22119 c -1.93848,2.02637 -3.1084,3.24951 -4.92481,3.24951 z"
       fill="#e6680b"
       id="path41" />
    <path
       d="m 652.52959,7 c 0.73279,0 1.67346,0.20825 1.77966,0.60638 a 1.182,1.182 0 0 1 -0.25067,1.41656 36.33586,36.33586 0 0 1 -2.69629,2.93456 c -1.7456,1.72675 -4.66827,2.29646 -5.60888,2.69892 a 21.74468,21.74468 0 0 1 -4.95319,0.48146 l -4.07544,0.22685 -3.26031,2.82391 h 7.25866 c 0.40052,0 0.63172,0.11128 0.69422,0.3288 0.0628,0.2126 -0.0625,0.47675 -0.38111,0.77766 -0.32281,0.31482 -2.3388,2.51836 -2.73413,2.51836 H 623.457 c 0,0 8.68146,-7.27727 9.40485,-7.97191 a 6.0689,6.0689 0 0 1 3.11078,-1.3097 l 8.00573,-0.028 c 0,0 2.48413,-0.42577 3.12043,-1.30073 0.63171,-0.87017 -1.14759,-1.361 -1.14759,-1.361 l -9.65057,0.01869 c -0.41968,0 1.98681,-1.43994 2.31451,-1.75478 A 4.06554,4.06554 0 0 1 639.84561,7.32375 3.50867,3.50867 0 0 1 641.23443,7 h 11.29516 m 0,-7 H 641.23443 A 10.46053,10.46053 0 0 0 637.0606,0.90173 11.16719,11.16719 0 0 0 634.16228,2.697 c -0.117,0.07953 -0.25537,0.17056 -0.39837,0.2659 -0.41456,0.27635 -0.85364,0.57179 -1.18549,0.81229 a 7.81227,7.81227 0 0 0 -2.9411,3.75974 10.45,10.45 0 0 0 -1.58045,1.21613 c -0.66046,0.59905 -5.12536,4.36882 -9.09674,7.69784 a 7,7 0 0 0 4.49687,12.36456 h 14.84509 c 3.31079,0 5.22834,-2.00407 7.44861,-4.32456 l 0.20514,-0.21346 a 8.351,8.351 0 0 0 1.98126,-2.96693 q 0.23109,-0.07794 0.442,-0.16323 c 0.11645,-0.04 0.25494,-0.082 0.40894,-0.13057 a 17.96733,17.96733 0 0 0 7.497,-4.08067 c 1.58478,-1.571 2.63434,-2.80054 3.062,-3.3196 A 8.039,8.039 0 0 0 661.07464,5.808 C 660.1325,2.27746 656.7791,0 652.52959,0 Z"
       fill="#ffffff"
       id="path43" />
    <path
       d="m 369.60613,26.35481 c -1.8324,-1.48156 -2.07849,-2.68528 -0.55435,-2.68528 h 6.85328 L 389.79979,35.099 c 1.83272,1.48622 1.11417,2.68962 -0.40964,2.68962 h -3.96464 z M 347.9224,23.77148 484.47413,106.9907 429.66147,24.7067 a 32.333,32.333 0 0 0 -5.54641,-7.22164 c -3.5641,-3.46724 -6.95917,-3.06476 -6.95917,-3.06476 h -31.73524 l 10.05116,9.41617 H 415.453 l 8.78249,10.33706 c 1.29748,1.48591 1.1291,2.68931 -0.37593,2.68931 H 421.887 l -9.89184,-9.49449 h -12.84334 l 85.32231,79.62239 -105.78145,-92.57048 h -28.85049 c 0,0 -4.27354,1.19 -4.27354,4.472 a 6.0697,6.0697 0 0 0 2.35375,4.87922 z M 485.43388,106.9907 460.77437,36.8628 h 2.45993 c 2.38711,-0.051 3.13959,-0.97217 2.77758,-2.51371 l -5.57977,-19.92883 h -13.25356 l 3.97888,9.791 c 0.58835,1.29167 -0.01,2.33781 -1.336,2.33781 a 4.214,4.214 0 0 1 -3.47246,-2.33781 l -4.94349,-9.791 h -13.67322 l 11.96127,19.577 c 0.91118,1.48156 1.57206,2.81456 4.47074,2.86553 h 3.46273 z m 3.85843,0 99.41517,-70.5167 h 5.402 c 1.52863,0 3.78586,-1.384 5.9657,-2.86554 l 24.25961,-19.20187 h -12.752 L 597.67325,25.7758 a 8.66189,8.66189 0 0 1 -5.47874,1.40262 c -1.33115,0 -3.28466,-1.37 -1.59149,-2.66166 l 10.78424,-9.9899 -10.81306,-0.12027 -17.52156,16.20208 c -1.67831,1.53688 -4.77516,5.94862 -1.92926,5.86533 h 4.39853 z m -3.38568,0.009 17.0155,-79.63171 h -20.382 a 1.31529,1.31529 0 0 1 -1.20555,-0.92586 l -0.31344,-2.06927 a 0.705,0.705 0 0 1 0.72337,-0.92586 h 22.13745 l 1.80873,-9.04073 h -34.72528 a 3.82869,3.82869 0 0 0 -3.27008,1.31932 c -1.22981,1.57387 -0.58868,5.16138 -0.58868,5.16138 l 2.91779,13.61473 h 19.39322 a 0.48531,0.48531 0 0 1 0.48247,0.69463 l -0.36659,1.66151 a 1.09636,1.09636 0 0 1 -0.9646,0.69432 h -17.8208 z m 0.60778,-0.0603 51.9483,-79.55742 h -18.36609 a 0.74929,0.74929 0 0 1 -0.77194,-0.92617 l 0.53557,-2.069 a 1.20247,1.20247 0 0 1 1.1427,-0.92586 h 20.11688 l 6.04345,-9.041 H 516.44057 A 5.46333,5.46333 0 0 0 512.587,15.7399 c -1.94832,1.57387 -2.95664,5.16138 -2.95664,5.16138 l -3.45756,13.61 h 17.3814 c 0.396,0 0.46826,0.31018 0.15963,0.69432 l -0.99893,1.66183 a 1.92282,1.92282 0 0 1 -1.28258,0.69431 h -15.8142 z m 0.84869,0.051 73.791,-69.43824 h -11.33369 a 0.48522,0.48522 0 0 1 -0.48247,-0.69432 l 0.36654,-1.66151 A 1.09611,1.09611 0 0 1 550.66877,34.502 H 563.99 l 8.97062,-8.05955 h -13.49446 a 0.48515,0.48515 0 0 1 -0.48246,-0.69431 l 0.65116,-1.60651 a 1.09612,1.09612 0 0 1 0.96461,-0.69431 h 15.48165 l 9.66972,-9.04073 h -32.7957 z"
       fill="url(#linear-gradient)"
       id="path45"
       style="fill:url(#linear-gradient)" />
    <path
       d="M 638.3021,21.81346 H 623.457 c 0,0 8.68147,-7.27727 9.40485,-7.9719 a 6.06934,6.06934 0 0 1 3.11077,-1.30969 l 8.00574,-0.028 c 0,0 2.48417,-0.42579 3.12044,-1.30068 0.63174,-0.87023 -1.14756,-1.361 -1.14756,-1.361 l -9.65061,0.01865 c -0.41965,0 1.98685,-1.43991 2.31454,-1.75475 A 4.0656,4.0656 0 0 1 639.84562,7.32382 3.508,3.508 0 0 1 641.23441,7 h 11.29521 c 0.73276,0 1.67341,0.20823 1.77962,0.60636 a 1.1821,1.1821 0 0 1 -0.25063,1.41661 36.34536,36.34536 0 0 1 -2.6963,2.93453 c -1.74562,1.72678 -4.66826,2.29647 -5.60891,2.699 a 21.74675,21.74675 0 0 1 -4.95321,0.48142 l -4.07538,0.22688 -3.26032,2.82389 h 7.25864 c 0.40054,0 0.63174,0.11126 0.69423,0.32882 0.0628,0.21258 -0.0625,0.47676 -0.38112,0.77761 -0.32283,0.3148 -2.33882,2.51834 -2.73414,2.51834 z"
       fill="#e6680b"
       id="path47" />
  </g>
  <metadata
     id="metadata869">
    <rdf:RDF>
      <cc:Work
         rdf:about="">
        <dc:title>logo</dc:title>
      </cc:Work>
    </rdf:RDF>
  </metadata>
</svg>
