<?xml version="1.0" encoding="UTF-8" standalone="no"?>
<svg
   id="Layer_1"
   data-name="Layer 1"
   viewBox="0 0 513.98242 105.48"
   version="1.1"
   sodipodi:docname="pcenginecd.svg"
   width="513.98242"
   height="105.48"
   inkscape:version="1.1 (c68e22c387, 2021-05-23)"
   xmlns:inkscape="http://www.inkscape.org/namespaces/inkscape"
   xmlns:sodipodi="http://sodipodi.sourceforge.net/DTD/sodipodi-0.dtd"
   xmlns="http://www.w3.org/2000/svg"
   xmlns:svg="http://www.w3.org/2000/svg"
   xmlns:rdf="http://www.w3.org/1999/02/22-rdf-syntax-ns#"
   xmlns:cc="http://creativecommons.org/ns#"
   xmlns:dc="http://purl.org/dc/elements/1.1/">
  <defs
     id="defs55" />
  <sodipodi:namedview
     id="namedview53"
     pagecolor="#ffffff"
     bordercolor="#666666"
     borderopacity="1.0"
     inkscape:pageshadow="2"
     inkscape:pageopacity="0.0"
     inkscape:pagecheckerboard="0"
     showgrid="false"
     fit-margin-top="0"
     fit-margin-left="0"
     fit-margin-right="0"
     fit-margin-bottom="0"
     inkscape:zoom="0.5565"
     inkscape:cx="257.86164"
     inkscape:cy="125.78616"
     inkscape:window-width="1920"
     inkscape:window-height="1138"
     inkscape:window-x="-8"
     inkscape:window-y="-8"
     inkscape:window-maximized="1"
     inkscape:current-layer="Layer_1" />
  <title
     id="title2">logo</title>
  <g
     id="g898"
     transform="translate(-243,-4.26)">
    <path
       d="m 475.06,11.32 c 2,0 4.06,0 6.09,0 0.23,0 0.45,0 0.68,0 a 7.93,7.93 0 0 1 7.59,8.07 v 13.1 h -7.85 V 19.2 h -8.75 v 73.86 h 9 c 0,-11.88 0,-23.84 0,-35.76 h -4 v -7.16 h 11.59 c 0,16.7 0.05,33.42 0,50.12 h -16.14 a 8.11,8.11 0 0 1 -7.45,-4.91 c -0.62,-1.53 -0.41,-3.21 -0.44,-4.82 q 0,-35.6 0,-71.16 a 8.06,8.06 0 0 1 6.64,-8 c 1,0 2,0 3.05,0 m 0,-7 c -1.23,0 -2.32,0 -3.33,0.06 a 6.25,6.25 0 0 0 -1,0.1 15,15 0 0 0 -12.4,14.91 q 0,35.55 0,71.14 v 0.12 c 0,0.28 0,0.56 0,0.85 a 15.77,15.77 0 0 0 1,6.48 l 0.06,0.14 a 15.11,15.11 0 0 0 13.88,9.14 h 16.19 a 7,7 0 0 0 7,-7 c 0,-11.14 0,-22.48 0,-33.44 q 0,-8.36 0,-16.7 a 7,7 0 0 0 -7,-7 h -9.64 v -3.89 a 7.17,7.17 0 0 0 1.75,0.21 h 7.85 a 7,7 0 0 0 7,-7 V 19.56 A 14.7,14.7 0 0 0 492.32,9 14.59,14.59 0 0 0 481.83,4.36 c -0.33,0 -0.65,0 -1,0 h -2.65 c -1.05,0 -2.09,0 -3.14,0 z"
       fill="#ffffff"
       id="path4" />
    <path
       d="m 525.33,26.29 a 8.43,8.43 0 0 1 7.51,4.57 8,8 0 0 1 0.43,3.55 v 23.42 c -0.17,3.31 -2.52,6.68 -5.93,7.26 2.53,11.69 5,23.4 7.46,35.11 h -7.17 q -4,-17.37 -8,-34.74 h -2.55 v 34.84 h -7.31 q 0,-37 0,-74 h 15.6 m -8.17,31.28 h 8.57 V 33.51 h -8.57 v 24.06 m 8.17,-38.28 h -15.6 a 7,7 0 0 0 -7,7 q 0,37 0,74 a 7,7 0 0 0 7,7 h 7.31 a 7,7 0 0 0 5.33,-2.46 7,7 0 0 0 5.24,2.36 h 7.17 a 7,7 0 0 0 6.85,-8.45 L 540.87,95 c -1.82,-8.64 -3.7,-17.53 -5.59,-26.34 a 15.13,15.13 0 0 0 5,-10.5 c 0,-0.12 0,-0.25 0,-0.37 V 34.72 a 15.12,15.12 0 0 0 -0.84,-6.22 5.33,5.33 0 0 0 -0.37,-0.85 15.38,15.38 0 0 0 -13.73,-8.36 z"
       fill="#ffffff"
       id="path6" />
    <path
       d="m 562.74,26.42 h 6.69 0.38 a 7.35,7.35 0 0 1 4.47,1.58 6.73,6.73 0 0 1 2.39,5.24 v 67.08 h -7.21 V 65.13 h -9 v 35.16 h -7.32 q 0,-33.58 0,-67.09 a 6.91,6.91 0 0 1 6.23,-6.76 h 3.36 m -2.07,31.3 h 8.56 V 34 q -4.28,0 -8.56,0 v 23.8 m 2.07,-38.3 h -3.46 -0.58 a 13.9,13.9 0 0 0 -12.55,13.59 v 0.13 q 0,33.51 0,67.09 a 7,7 0 0 0 7,7 h 7.32 a 7,7 0 0 0 4.49,-1.63 7,7 0 0 0 4.48,1.62 h 7.21 a 7,7 0 0 0 7,-7 v -67 a 13.64,13.64 0 0 0 -4.89,-10.64 l -0.22,-0.18 a 14.42,14.42 0 0 0 -8.75,-3 h -7.07 z"
       fill="#ffffff"
       id="path8" />
    <path
       d="m 613.6,26.35 v 6.59 h -11.07 v 24.81 h 9.14 v 7.31 h -9.14 v 35.16 h -7.42 V 32.75 a 6.56,6.56 0 0 1 6.15,-6.4 h 12.34 m 0,-7 h -12.36 -0.43 A 13.63,13.63 0 0 0 588.09,32.6 v 0.15 67.47 a 7,7 0 0 0 7,7 h 7.42 a 7,7 0 0 0 7,-7 V 72.06 h 2.14 a 7,7 0 0 0 7,-7 v -7.31 a 7,7 0 0 0 -7,-7 h -2.14 V 39.94 h 4.07 a 7,7 0 0 0 7,-7 v -6.59 a 7,7 0 0 0 -7,-7 z"
       fill="#ffffff"
       id="path10" />
    <path
       d="m 655.94,26.38 v 14.75 c 0,2.29 0.22,4.65 -0.62,6.83 a 75.5,75.5 0 0 1 -6.87,12.89 c 2.92,4.68 6.08,9.42 7.42,14.84 0.15,8.23 0,16.46 0,24.68 h -7.19 V 75.62 c -1.22,-2.5 -3.05,-4.68 -4.5,-7.06 -1.5,2.3 -3.07,4.57 -4.57,6.82 v 25 H 632 V 77.16 c 0,-2.11 1,-4 1.83,-5.9 A 94.56,94.56 0 0 1 640,60.81 c -3,-4.63 -6.4,-9.26 -7.87,-14.62 -0.29,-6.59 -0.1,-13.22 -0.16,-19.8 h 7.73 c 0,6.85 -0.09,13.71 0.07,20.53 1.31,2.19 2.85,4.26 4.22,6.4 1.35,-2.11 2.92,-4.1 4.14,-6.29 0.12,-6.88 0,-13.77 0,-20.65 h 7.76 m 0,-7 h -7.76 a 7,7 0 0 0 -4.13,1.41 7,7 0 0 0 -4.21,-1.4 H 632 a 7,7 0 0 0 -7,7.07 c 0,2.22 0,4.52 0,6.74 0,4.33 0,8.82 0.17,13.3 a 6.68,6.68 0 0 0 0.24,1.54 46,46 0 0 0 6.27,12.81 c -1.46,2.36 -2.81,4.78 -4.06,7.24 l -0.12,0.25 -0.19,0.42 a 19.56,19.56 0 0 0 -2.28,8.4 v 23.22 a 7,7 0 0 0 7,7 h 7.61 a 7,7 0 0 0 4.54,-1.67 7,7 0 0 0 4.53,1.66 h 7.19 a 7,7 0 0 0 7,-7 c 0,-2.53 0,-5.07 0,-7.61 0,-5.62 0,-11.43 -0.07,-17.19 a 6.63,6.63 0 0 0 -0.2,-1.54 47.16,47.16 0 0 0 -6,-13.17 83,83 0 0 0 5.09,-10.21 l 0.06,-0.16 A 20.87,20.87 0 0 0 663,42.2 c 0,-0.36 0,-0.71 0,-1.07 V 26.38 a 7,7 0 0 0 -7,-7 z"
       fill="#ffffff"
       id="path12" />
    <path
       d="M 731.71,52 V 75.11 H 719.64 V 52 h 12.07 m 0,-7 h -12.07 a 7,7 0 0 0 -7,7 v 23.11 a 7,7 0 0 0 7,7 h 12.07 a 7,7 0 0 0 7,-7 V 52 a 7,7 0 0 0 -7,-7 z"
       fill="#ffffff"
       id="path14" />
    <path
       d="m 710.72,24.2 a 39.28,39.28 0 0 1 37.19,51.86 v 0 A 39.26,39.26 0 1 1 710.72,24.2 M 711.3,52 h 2.7 v 23.11 h -2.7 c 0,1.84 0,3.54 0,5.37 h 23.13 l 2.68,-2.64 V 49.21 l -2.69,-2.64 H 711.3 V 52 m -24,28.59 H 703 c 0.92,-1 1.78,-1.77 2.74,-2.75 V 71.4 h -4.62 v 3.71 H 690 V 52 h 11.11 v 3.71 h 4.62 v -6.4 c -1,-1 -1.81,-1.83 -2.78,-2.74 H 687.3 l -2.66,2.7 v 28.65 l 2.66,2.62 M 710.72,17.2 a 46.27,46.27 0 1 0 43.82,61.12 l 0.09,-0.29 A 46.26,46.26 0 0 0 725.56,19.65 46.41,46.41 0 0 0 710.72,17.2 Z M 721,53.57 h 9 v 19.91 h -9 z"
       fill="#ffffff"
       id="path16" />
    <path
       d="m 312.82,26.29 v 63.78 a 20,20 0 0 1 -0.25,4.57 7.53,7.53 0 0 1 -7.18,5.67 h -9.2 a 7.76,7.76 0 0 1 -7.31,-7.78 q 0,-33.09 0,-66.24 h 7.62 c 0.05,22.18 0,44.37 0,66.55 h 8.57 V 26.29 h 7.73 m 0,-7 h -7.73 a 7,7 0 0 0 -4.28,1.46 7.05,7.05 0 0 0 -4.29,-1.46 h -7.6 a 7,7 0 0 0 -7,7 q 0,19.35 0,38.69 0,13.78 0,27.55 a 14.77,14.77 0 0 0 13.9,14.77 h 9.72 a 14.55,14.55 0 0 0 13.85,-10.94 5.41,5.41 0 0 0 0.12,-0.55 27.55,27.55 0 0 0 0.35,-5.95 V 26.29 a 7,7 0 0 0 -7,-7 z"
       fill="#ffffff"
       id="path18" />
    <path
       d="m 342.78,26.26 q 2.64,0 5.28,0 c 3.74,0 7.74,2.88 7.79,6.87 v 24.31 c 0,3.5 -2.37,7.15 -6,7.8 2.5,11.69 4.95,23.38 7.45,35.06 h -7.17 q -4,-17.33 -8,-34.63 h -2.64 v 34.64 h -7.31 v -74 h 10.57 m -2.94,31.5 h 8.47 V 33.58 h -8.47 v 24.18 m 2.94,-38.5 h -5.31 -5.26 a 7,7 0 0 0 -7,7 v 74 a 7,7 0 0 0 7,7 h 7.31 a 7,7 0 0 0 5.31,-2.44 7,7 0 0 0 5.31,2.43 h 7.17 a 7,7 0 0 0 6.85,-8.47 Q 362.04,89.08 360,79.37 l -2.25,-10.6 a 15.35,15.35 0 0 0 5.06,-11.38 V 33.08 c -0.1,-8.41 -7.71,-13.71 -14.7,-13.79 h -5.37 z"
       fill="#ffffff"
       id="path20" />
    <path
       d="m 387.72,26.28 c 1.85,0 3.69,0 5.54,0 a 7,7 0 0 1 6.94,6.45 v 23.48 c 0,2.16 -1.54,3.88 -3.05,5.23 1.47,1.24 2.89,2.83 3,4.84 0.23,3.18 0.08,6.4 0.12,9.57 0,4.87 0.09,9.75 -0.1,14.62 -0.07,2.07 0.32,4.29 -0.71,6.19 a 7,7 0 0 1 -6.14,3.66 h -16.64 c -0.05,-24.65 0,-49.33 0,-74 3.7,0 7.38,0 11.07,0 m -3.45,31.47 h 8.47 V 33.63 c -1.41,0 -2.82,0 -4.23,0 h -4.24 v 24.16 m 0,35.24 h 8.49 v -27.5 c -2.83,0 -5.67,0 -8.48,0 v 0 V 93 m 3.42,-73.75 h -5.56 -5.51 a 7,7 0 0 0 -7,7 c 0,12.79 0,25.8 0,38.39 0,11.68 0,23.75 0,35.62 a 7,7 0 0 0 7,7 h 16.67 a 14,14 0 0 0 12.31,-7.26 15.54,15.54 0 0 0 1.56,-8.16 c 0,-0.41 0,-0.81 0,-1.12 0.15,-3.82 0.14,-7.64 0.12,-11.33 0,-1.18 0,-2.35 0,-3.53 v -0.08 q 0,-1.5 0,-3 c 0,-2.25 0,-4.58 -0.14,-7 a 11.61,11.61 0 0 0 -1.18,-4.37 11.87,11.87 0 0 0 1.22,-5.2 V 32.76 c 0,-0.19 0,-0.37 0,-0.56 A 13.94,13.94 0 0 0 393.35,19.31 c -1.84,0 -3.71,0 -5.59,0 z"
       fill="#ffffff"
       id="path22" />
    <path
       d="m 434.34,26.26 a 10.35,10.35 0 0 1 5.09,1 c 2.33,1.28 4.37,3.57 4.3,6.33 v 57 c 0,1.64 0.19,3.4 -0.57,4.93 a 8.3,8.3 0 0 1 -6.33,4.86 h -2.51 -5 c -0.36,0 -0.72,0 -1.07,0 a 11.64,11.64 0 0 1 -3.31,-0.49 C 422,98.73 419.59,95.84 419.68,92.57 V 35.68 a 11,11 0 0 1 0.49,-4.57 8.18,8.18 0 0 1 4.71,-4.41 13.56,13.56 0 0 1 3.81,-0.43 c 0.79,0 1.58,0 2.37,0 h 0.76 c 0.83,0 1.68,0 2.54,0 m -6.64,66.33 h 8.17 V 33.72 h -8.17 V 92.6 m 6.62,-73.34 h -1.43 -1.11 -1.8 -1.3 a 20.59,20.59 0 0 0 -5.75,0.7 c -0.15,0.05 -0.3,0.09 -0.44,0.15 a 15.16,15.16 0 0 0 -8.73,8.17 15.49,15.49 0 0 0 -1.1,6.78 c 0,0.21 0,0.41 0,0.61 V 92.5 a 14.89,14.89 0 0 0 9.71,13.92 l 0.52,0.18 a 18.56,18.56 0 0 0 5.34,0.79 c 0.45,0 0.91,0 1.36,0 h 4.73 q 1.33,0 2.67,0 a 5.47,5.47 0 0 0 0.9,-0.08 15,15 0 0 0 12.84,-16 V 33.66 c 0.08,-5 -3,-9.8 -7.93,-12.54 a 17.17,17.17 0 0 0 -8.46,-1.86 z"
       fill="#ffffff"
       id="path24" />
    <path
       d="m 273,11.26 v 7.43 h -7.19 v 81.59 h -8.64 V 18.69 H 250 v -7.43 h 23 m 0,-7 h -23 a 7,7 0 0 0 -7,7 v 7.43 a 7,7 0 0 0 7,7 h 0.19 v 74.59 a 7,7 0 0 0 7,7 h 8.64 a 7,7 0 0 0 7,-7 V 25.69 H 273 a 7,7 0 0 0 7,-7 v -7.43 a 7,7 0 0 0 -7,-7 z"
       fill="#ffffff"
       id="path26" />
    <path
       d="m 465.37,19.37 a 8.06,8.06 0 0 1 6.64,-8 c 3.05,-0.12 6.1,0 9.14,0 4.39,-0.46 8.51,3.66 8.27,8 v 13.12 h -7.85 V 19.2 h -8.75 v 73.86 h 9 c 0,-11.88 0,-23.84 0,-35.76 h -4 v -7.16 h 11.59 c 0,16.7 0.05,33.42 0,50.12 h -16.13 a 8.11,8.11 0 0 1 -7.46,-4.91 c -0.62,-1.53 -0.41,-3.21 -0.44,-4.82 q 0,-35.6 -0.01,-71.16 z"
       fill="#d5e14d"
       id="path28" />
    <path
       d="m 509.73,26.29 h 15.37 a 8.45,8.45 0 0 1 7.74,4.57 8,8 0 0 1 0.43,3.55 v 23.42 c -0.17,3.31 -2.52,6.68 -5.93,7.26 2.53,11.69 5,23.4 7.46,35.11 h -7.17 q -4,-17.37 -8,-34.74 h -2.55 v 34.84 h -7.31 q -0.02,-36.99 -0.04,-74.01 z m 7.43,7.22 v 24.06 h 8.57 V 33.51 Z"
       fill="#d5e14d"
       id="path30" />
    <path
       d="m 553.15,33.2 a 6.91,6.91 0 0 1 6.23,-6.76 c 3.36,0 6.73,0 10,0 a 7.3,7.3 0 0 1 4.9,1.56 6.73,6.73 0 0 1 2.39,5.24 v 67.08 h -7.21 V 65.13 h -9 v 35.16 h -7.32 q 0.02,-33.58 0.01,-67.09 z m 7.52,0.76 v 23.76 h 8.56 V 34 q -4.28,0 -8.56,0 z"
       fill="#d5e14d"
       id="path32" />
    <path
       d="m 595.09,32.75 a 6.56,6.56 0 0 1 6.15,-6.4 h 12.36 v 6.59 h -11.07 v 24.81 h 9.14 v 7.31 h -9.14 v 35.16 h -7.42 z"
       fill="#d5e14d"
       id="path34" />
    <path
       d="m 632,26.39 h 7.73 c 0,6.85 -0.09,13.71 0.07,20.53 1.31,2.19 2.85,4.26 4.22,6.4 1.35,-2.11 2.92,-4.1 4.14,-6.29 0.12,-6.88 0,-13.77 0,-20.65 h 7.76 v 14.75 c 0,2.29 0.22,4.65 -0.62,6.83 a 75.5,75.5 0 0 1 -6.87,12.89 c 2.92,4.68 6.08,9.42 7.42,14.84 0.15,8.23 0,16.46 0,24.68 h -7.19 V 75.62 c -1.22,-2.5 -3.05,-4.68 -4.5,-7.06 -1.5,2.3 -3.07,4.57 -4.57,6.82 v 25 h -7.61 V 77.16 c 0,-2.11 1,-4 1.83,-5.9 a 94.56,94.56 0 0 1 6.17,-10.45 c -3,-4.63 -6.4,-9.26 -7.87,-14.62 C 631.89,39.6 632.08,33 632,26.39 Z"
       fill="#d5e14d"
       id="path36" />
    <path
       d="m 731.71,52 h -12.07 v 23.11 h 12.07 z"
       fill="#f79226"
       id="path38" />
    <path
       d="m 747.91,76.06 a 39.25,39.25 0 1 0 -15.36,20 39.27,39.27 0 0 0 15.36,-20 z M 687.3,46.58 H 703 c 1,0.91 1.83,1.76 2.78,2.74 v 6.4 h -4.62 V 52 H 690 v 23.1 h 11.11 v -3.7 h 4.62 v 6.39 c -1,1 -1.82,1.76 -2.74,2.75 H 687.3 l -2.66,-2.62 V 49.28 Z m 24,5.37 v -5.38 h 23.07 l 2.69,2.64 v 28.63 l -2.68,2.64 h -23.13 c 0,-1.83 0,-3.53 0,-5.37 H 714 V 52 Z"
       fill="#f79226"
       id="path40" />
    <path
       d="m 288.9,26.29 h 7.62 c 0.05,22.18 0,44.37 0,66.55 h 8.57 V 26.29 h 7.73 v 63.78 a 20,20 0 0 1 -0.25,4.57 7.53,7.53 0 0 1 -7.18,5.67 h -9.2 a 7.76,7.76 0 0 1 -7.31,-7.78 q 0,-33.09 0.02,-66.24 z"
       fill="#f79226"
       id="path42" />
    <path
       d="m 332.21,26.29 c 5.28,0 10.57,-0.06 15.85,0 3.74,0 7.74,2.88 7.79,6.87 v 24.28 c 0,3.5 -2.37,7.15 -6,7.8 2.5,11.69 4.95,23.38 7.45,35.06 h -7.17 q -4,-17.33 -8,-34.63 h -2.64 v 34.64 h -7.31 z m 7.63,7.31 v 24.16 h 8.47 V 33.58 Z"
       fill="#f79226"
       id="path44" />
    <path
       d="m 376.65,26.31 c 5.54,0 11.07,-0.07 16.61,0 a 7,7 0 0 1 6.94,6.45 v 23.45 c 0,2.16 -1.54,3.88 -3.05,5.23 1.47,1.24 2.89,2.83 3,4.84 0.23,3.18 0.08,6.4 0.12,9.57 0,4.87 0.09,9.75 -0.1,14.62 -0.07,2.07 0.32,4.29 -0.71,6.19 a 7,7 0 0 1 -6.19,3.66 H 376.68 C 376.63,75.67 376.71,51 376.65,26.31 Z m 7.65,7.31 v 24.17 h 8.47 V 33.63 c -2.81,0 -5.65,0 -8.47,0 z m 0,31.9 V 93 h 8.49 V 65.53 c -2.83,0 -5.67,0 -8.48,0 z"
       fill="#f79226"
       id="path46" />
    <path
       d="m 424.86,26.7 c 2.25,-0.65 4.62,-0.35 6.94,-0.41 2.54,0 5.3,-0.31 7.63,1 2.33,1.31 4.37,3.57 4.3,6.33 v 57 c 0,1.64 0.19,3.4 -0.57,4.93 a 8.3,8.3 0 0 1 -6.33,4.86 c -2.51,0 -5,0 -7.53,0 a 11.59,11.59 0 0 1 -4.38,-0.44 c -2.94,-1.16 -5.35,-4.05 -5.26,-7.32 V 35.68 a 11,11 0 0 1 0.49,-4.57 8.18,8.18 0 0 1 4.71,-4.41 z m 2.86,7 v 58.9 h 8.17 V 33.72 Z"
       fill="#f79226"
       id="path48" />
    <polygon
       points="273.01,18.69 265.82,18.69 265.82,100.28 257.18,100.28 257.18,18.69 249.99,18.69 249.99,11.26 273.01,11.26 "
       fill="#f79226"
       id="polygon50" />
  </g>
  <metadata
     id="metadata872">
    <rdf:RDF>
      <cc:Work
         rdf:about="">
        <dc:title>logo</dc:title>
      </cc:Work>
    </rdf:RDF>
  </metadata>
</svg>
