<?xml version="1.0" encoding="UTF-8" standalone="no"?>
<svg
   viewBox="0 0 514 86.580002"
   version="1.1"
   id="svg26"
   sodipodi:docname="dragon.svg"
   width="514"
   height="86.580002"
   inkscape:version="1.1 (c68e22c387, 2021-05-23)"
   xmlns:inkscape="http://www.inkscape.org/namespaces/inkscape"
   xmlns:sodipodi="http://sodipodi.sourceforge.net/DTD/sodipodi-0.dtd"
   xmlns="http://www.w3.org/2000/svg"
   xmlns:svg="http://www.w3.org/2000/svg">
  <sodipodi:namedview
     id="namedview28"
     pagecolor="#ffffff"
     bordercolor="#666666"
     borderopacity="1.0"
     inkscape:pageshadow="2"
     inkscape:pageopacity="0.0"
     inkscape:pagecheckerboard="0"
     showgrid="false"
     fit-margin-top="0"
     fit-margin-left="0"
     fit-margin-right="0"
     fit-margin-bottom="0"
     inkscape:zoom="1.113"
     inkscape:cx="257.4124"
     inkscape:cy="43.126685"
     inkscape:window-width="1920"
     inkscape:window-height="1138"
     inkscape:window-x="-8"
     inkscape:window-y="-8"
     inkscape:window-maximized="1"
     inkscape:current-layer="svg26" />
  <defs
     id="defs17">
    <linearGradient
       id="Degradado_sin_nombre"
       x1="1147.3"
       y1="1411"
       x2="1512.88"
       y2="1411"
       gradientTransform="matrix(0.67,0,0,0.67,-620.95,-905.4)"
       gradientUnits="userSpaceOnUse">
      <stop
         offset="0"
         stop-color="#f50019"
         id="stop2" />
      <stop
         offset="0.28"
         stop-color="#f66d19"
         id="stop4" />
      <stop
         offset="0.48"
         stop-color="#fbfa35"
         id="stop6" />
      <stop
         offset="0.68"
         stop-color="#74b719"
         id="stop8" />
      <stop
         offset="0.79"
         stop-color="#17710a"
         id="stop10" />
      <stop
         offset="0.88"
         stop-color="#226887"
         id="stop12" />
      <stop
         offset="1"
         stop-color="#3262d9"
         id="stop14" />
    </linearGradient>
  </defs>
  <path
     d="m 502.71,7 c 2.37,0 4.29,2.29 4.29,5.11 v 62.36 c 0,2.82 -1.92,5.11 -4.29,5.11 H 11.29 C 8.92,79.58 7,77.29 7,74.47 V 12.11 C 7,9.29 8.92,7 11.29,7 h 491.42 m 0,-7 H 11.29 C 5.07,0 0,5.43 0,12.11 v 62.36 c 0,6.68 5.07,12.11 11.29,12.11 h 491.42 c 6.22,0 11.29,-5.43 11.29,-12.11 V 12.11 C 514,5.43 508.93,0 502.71,0 Z"
     fill="#ffffff"
     id="path19" />
  <path
     id="background"
     d="m 507,74.47 c 0,2.82 -1.92,5.11 -4.29,5.11 H 11.29 C 8.92,79.58 7,77.29 7,74.47 V 12.11 C 7,9.29 8.92,7 11.29,7 h 491.42 c 2.37,0 4.29,2.29 4.29,5.11 z" />
  <path
     id="dragon"
     d="m 150,23.16 h 19.8 c 13.05,0 17.66,9.65 17.66,19.53 0,12 -6.37,19.63 -20,19.63 H 150 Z m 12.06,29.13 h 4.72 c 7.51,0 8.61,-6.09 8.61,-9.77 0,-2.46 -0.77,-9.32 -9.49,-9.32 h -3.84 v 19.09 z m 29.51,-29.13 h 23 c 6.86,0 12.78,3.79 12.78,11.19 0,4.06 -1.87,8.34 -5.87,9.82 3.29,1.26 5.32,4.88 5.76,9.76 0.16,1.92 0.22,6.58 1.32,8.39 h -12.09 a 28.76,28.76 0 0 1 -1,-6 c -0.33,-3.73 -0.66,-7.62 -5.43,-7.62 h -6.42 v 13.59 h -12.05 z m 12.07,17.13 h 6.3 c 2.25,0 5.32,-0.38 5.32,-3.89 0,-2.47 -1.37,-3.89 -6,-3.89 h -5.64 v 7.78 z m 41.62,-17.11 h 11.8 l 14.26,39.11 H 258.81 L 257.17,56.7 H 244.71 L 243,62.29 h -12.16 l 14.42,-39.16 z m 9.49,25.18 -3.51,-12.07 h -0.11 l -3.78,12.07 z m 46.84,10 c -2.69,3.41 -6.86,4.93 -11.13,4.93 -11.58,0 -18.71,-9 -18.71,-20.12 0,-14.92 10.48,-20.9 19.31,-20.9 10,0 16.29,5.43 18,14.64 h -11.53 a 5.73,5.73 0 0 0 -5.7,-4.88 c -8.28,0 -8,8.72 -8,11.41 0,3.67 1.48,10.09 8.83,10.09 2.8,0 5.65,-1.42 6.25,-4.33 h -5.32 v -8.43 h 16 V 62.29 H 302 l -0.38,-4 z m 33.78,-36.09 c 11.91,0 19.86,8.56 19.86,20.51 0,11.95 -7.96,20.51 -19.86,20.51 -11.9,0 -19.85,-8.56 -19.85,-20.52 0,-11.96 7.95,-20.54 19.85,-20.54 z m 0,31.26 c 3.07,0 7.79,-2 7.79,-10.75 0,-8.75 -4.72,-10.75 -7.79,-10.75 -3.07,0 -7.79,2 -7.79,10.75 0,8.75 4.72,10.71 7.79,10.71 z m 25,-30.33 h 12.34 l 11.41,21 h 0.11 v -21 h 11.41 v 39.09 h -11.73 l -12,-21.39 H 371.8 V 62.29 H 360.38 V 23.16 Z"
     fill="url(#Degradado_sin_nombre)"
     style="fill:url(#Degradado_sin_nombre)" />
  <path
     id="_32"
     data-name="32"
     d="m 406.94,36.87 a 12.1,12.1 0 0 1 4.78,-10 18.75,18.75 0 0 1 11.13,-3.18 c 11.08,0 14.75,6.58 14.75,9.82 0,8 -5,8 -5,8.17 v 0.11 c 0,0.44 6.25,0.44 6.25,8.94 0,4.66 -3.51,12 -16,12 -17.16,0 -17.22,-12.06 -16.94,-14.92 h 10.42 a 5.81,5.81 0 0 0 1.48,4.56 c 1,1.26 2.63,1.7 4.55,1.7 3.13,0 5.1,-1.15 5.1,-4.28 0,-3.35 -2.58,-4 -5.1,-4 a 18.85,18.85 0 0 0 -3.18,0.27 v -7.38 a 31.39,31.39 0 0 0 3.18,0.22 c 2.31,0 5.21,-0.49 5.21,-3.45 0,-2.42 -2.74,-3.35 -5,-3.35 -3,0 -5.37,1.59 -5.26,4.77 z m 34.17,3.35 c -0.6,-10.48 5.93,-16.51 16.18,-16.51 9.27,0 15.58,3.89 15.58,12 0,9.76 -9.54,12.84 -16.73,17.22 v 0.06 h 17.28 v 9.3 h -33.07 a 14.33,14.33 0 0 1 2.74,-9.43 c 3.18,-4.44 8.66,-7.35 13.54,-10.31 2,-1.21 5.16,-2.74 5.16,-5.54 0,-3.46 -2,-4.66 -4.61,-4.66 -4.39,0 -5.87,3.18 -5.76,7.84 z"
     fill="#ffffff" />
  <path
     id="data_ltd"
     data-name="data ltd"
     d="m 340.87,67.22 h 3.48 c 2.29,0 3.1,1.69 3.1,3.43 0,2.11 -1.12,3.44 -3.52,3.44 h -3.06 z m 2.13,5.07 h 0.83 c 1.32,0 1.51,-1.07 1.51,-1.71 a 1.51,1.51 0 0 0 -1.66,-1.64 H 343 Z m 7.28,-5.11 h 2.07 l 2.5,6.87 h -2.19 l -0.29,-1 h -2.18 l -0.31,1 h -2.13 z m 1.67,4.42 -0.62,-2.12 v 0 l -0.66,2.12 z m 4.33,-2.66 h -1.92 v -1.72 h 6 v 1.76 h -1.92 v 5.11 h -2.12 v -5.11 z m 6,-1.76 h 2.07 l 2.5,6.87 h -2.19 l -0.29,-1 h -2.19 l -0.31,1 h -2.12 z m 1.72,4.46 -0.61,-2.12 v 0 l -0.66,2.12 z m 12,-4.42 h 2.12 v 5.07 h 3 v 1.8 h -5.16 v -6.87 z m 6.43,1.76 h -1.92 v -1.76 h 6 v 1.76 h -1.93 v 5.11 h -2.12 v -5.11 z m 4.83,-1.76 h 3.47 c 2.29,0 3.1,1.69 3.1,3.43 0,2.11 -1.11,3.44 -3.51,3.44 h -3.12 v -6.87 z m 2.06,5.07 h 0.82 c 1.32,0 1.51,-1.07 1.51,-1.71 A 1.51,1.51 0 0 0 390,68.98 h -0.67 v 3.31 z m 5.43,-0.14 h 2 v 1.9 h -2 z"
     fill="#dedede" />
  <path
     id="logo"
     d="M 75,44.29 H 69.06 L 83.2,19.83 a 15.33,15.33 0 0 1 13.28,-7.69 h 29.22 l -3,5.14 H 96.48 a 10.19,10.19 0 0 0 -8.83,5.12 z m 15.91,-20 a 6.44,6.44 0 0 1 5.58,-3.24 h 24.07 l 1.29,-2.22 H 96.49 A 8.67,8.67 0 0 0 89,23.16 L 76.76,44.29 h 2.57 z m 2.25,9.45 h 20.08 l 3.47,-6 1.06,-1.83 1.91,-3.31 H 96.49 a 4.92,4.92 0 0 0 -4.26,2.47 L 81.1,44.29 H 87 Z m -45.64,0 v 0.06 a 12.71,12.71 0 0 1 -1,1.88 19.93,19.93 0 0 0 -3.24,10.57 15.34,15.34 0 0 0 15.32,15.32 h 58.35 l -6.06,10.49 h 5.94 l 4.76,-8.24 a 4.9,4.9 0 0 0 -4.22,-7.39 H 58.58 A 10.2,10.2 0 0 1 48.4,46.23 14.65,14.65 0 0 1 50.92,38.29 c 1.4,-2.36 1.75,-3.17 1.75,-4.83 A 4.89,4.89 0 0 0 47.78,28.57 H 30.54 l 3,5.14 z m 69.83,18.94 H 58.58 a 6.44,6.44 0 0 1 -6.42,-6.43 11,11 0 0 1 2,-6 c 1.55,-2.61 2.29,-4.13 2.29,-6.75 A 8.66,8.66 0 0 0 47.79,24.85 H 24.08 l -0.84,-1.45 -5.62,2.54 8.7,2.79 -1,-1.65 h 22.41 a 6.43,6.43 0 0 1 6.43,6.42 c 0,2 -0.44,3 -2,5.61 a 13.13,13.13 0 0 0 -2.3,7.15 8.67,8.67 0 0 0 8.65,8.65 h 58.77 a 6.44,6.44 0 0 1 6.5,6.38 6.36,6.36 0 0 1 -0.91,3.28 l -4.3,7.45 h 2.57 l 3.65,-6.32 A 8.65,8.65 0 0 0 117.35,52.64 Z M 64.08,63.22 h -5.93 l -5.1,8.82 H 59 Z m -0.76,8.82 5.1,-8.82 h -2.57 l -5.09,8.82 z m 12.8,-8.82 h -5.94 l -5.09,8.82 H 71 Z M 117.35,45.98 H 58.84 a 5.9,5.9 0 0 1 1,-2.35 c 1.83,-3.07 3.23,-5.76 3.23,-10.16 A 15.34,15.34 0 0 0 47.74,18.15 h -0.4 L 44,21.54 40.62,18.15 h -16.1 l 3,5.14 H 47.8 A 10.19,10.19 0 0 1 58,33.47 c 0,3.11 -0.94,4.92 -2.5,7.53 a 9.58,9.58 0 0 0 -1.76,5.23 4.9,4.9 0 0 0 4.89,4.9 h 58.77 a 10.18,10.18 0 0 1 8.77,15.35 l -3.21,5.56 h 5.94 l 1.71,-3 A 15.33,15.33 0 0 0 117.4,45.95 Z M 49.06,17.5 44,12.42 38.92,17.5 h 2.36 L 44,14.78 46.73,17.5 Z"
     fill="#f50019" />
</svg>
