<?xml version="1.0" encoding="UTF-8" standalone="no"?>
<svg
   viewBox="0 0 513.85944 112.74"
   version="1.1"
   id="svg55"
   sodipodi:docname="dreamcast.svg"
   width="513.85944"
   height="112.74"
   inkscape:version="1.1 (c68e22c387, 2021-05-23)"
   xmlns:inkscape="http://www.inkscape.org/namespaces/inkscape"
   xmlns:sodipodi="http://sodipodi.sourceforge.net/DTD/sodipodi-0.dtd"
   xmlns="http://www.w3.org/2000/svg"
   xmlns:svg="http://www.w3.org/2000/svg"
   xmlns:rdf="http://www.w3.org/1999/02/22-rdf-syntax-ns#"
   xmlns:cc="http://creativecommons.org/ns#"
   xmlns:dc="http://purl.org/dc/elements/1.1/">
  <defs
     id="defs59" />
  <sodipodi:namedview
     id="namedview57"
     pagecolor="#ffffff"
     bordercolor="#666666"
     borderopacity="1.0"
     inkscape:pageshadow="2"
     inkscape:pageopacity="0.0"
     inkscape:pagecheckerboard="0"
     showgrid="false"
     fit-margin-top="0"
     fit-margin-left="0"
     fit-margin-right="0"
     fit-margin-bottom="0"
     inkscape:zoom="1.113"
     inkscape:cx="256.51393"
     inkscape:cy="55.705301"
     inkscape:window-width="1920"
     inkscape:window-height="1138"
     inkscape:window-x="-8"
     inkscape:window-y="-8"
     inkscape:window-maximized="1"
     inkscape:current-layer="svg55" />
  <title
     id="title2">logo</title>
  <g
     id="Layer_2"
     data-name="Layer 2"
     transform="translate(-243.11031,-0.62)">
    <rect
       x="380.88"
       y="30.34"
       width="35.330002"
       height="52.91"
       fill="#ffffff"
       id="rect4" />
    <rect
       x="471.88"
       y="62.389999"
       width="67.279999"
       height="18.309999"
       fill="#ffffff"
       id="rect6" />
    <rect
       x="624.09998"
       y="50.389999"
       width="109.61"
       height="32.66"
       fill="#ffffff"
       id="rect8" />
  </g>
  <g
     id="Layer_1"
     data-name="Layer 1"
     transform="translate(-243.11031,-0.62)">
    <path
       d="m 523.29,42.85 a 22,22 0 0 1 6.08,0.92 14,14 0 0 1 5.71,3.69 c 0.93,1.67 1.85,2.59 2.41,4.08 a 21.13,21.13 0 0 1 1.3,5.92 c 0,2 0.18,0.72 0.18,5.53 -0.17,4.79 0.19,13.65 0.19,17.72 -0.18,2.38 0.18,2.76 0.92,6.08 h -7.9 v -4.61 l -2,2 c -1.48,1.12 -2.76,1.84 -3.69,2.59 -2,0.36 -3.14,0.74 -4.24,0.92 h -3.51 a 18.71,18.71 0 0 1 -8.3,-2 10.34,10.34 0 0 1 -4.81,-4.43 11.88,11.88 0 0 1 -1.46,-6.09 23.89,23.89 0 0 1 0.55,-3.87 14.2,14.2 0 0 1 1.48,-3 8.17,8.17 0 0 1 2,-2.58 10.73,10.73 0 0 1 3,-2 26.73,26.73 0 0 1 3.8,-1.44 c 1.66,-0.56 4.61,-0.73 8.3,-1.29 1.13,-0.37 2.22,-0.2 3,-0.56 0.78,-0.36 1.48,-0.55 2.22,-0.92 a 11.5,11.5 0 0 0 1.48,-1.12 4.53,4.53 0 0 0 1.28,-1.47 c 0.38,-0.55 0.75,-0.73 0.93,-1.27 v -1.49 a 3.31,3.31 0 0 0 -1.1,-3 c -0.75,-1.11 -1.84,-2.57 -3.14,-3 a 24.17,24.17 0 0 0 -5.53,-1.08 23.25,23.25 0 0 0 -5,0.54 c -1.84,0.39 -3.31,0.74 -4.61,1.12 -1.3,0.38 -2.76,1 -4.79,2 a 54.56,54.56 0 0 0 0.18,-5.72 61.46,61.46 0 0 1 7.21,-1.85 c 2.37,-0.17 5.67,-0.36 7.89,-0.36 m -3.94,40.21 h 0.09 a 21.77,21.77 0 0 0 3.51,-0.37 c 0.92,-0.18 1.84,-0.73 3.31,-1.11 0.37,-0.19 1.48,-1.1 1.84,-1.28 a 14.08,14.08 0 0 0 2.6,-3.3 c 1.29,-2 1.47,-5.72 1.47,-5.72 l 0.19,-8.89 a 18.52,18.52 0 0 1 -1.84,1.47 15.51,15.51 0 0 0 -1.68,0.73 6.31,6.31 0 0 1 -2,0.59 c -0.74,0.36 -2.95,0.36 -4,0.54 a 15.8,15.8 0 0 0 -4.25,0.74 c -1.84,0.73 -2.76,0.9 -3.87,1.47 a 16.32,16.32 0 0 0 -2.58,2.4 6.46,6.46 0 0 0 -1.17,2.25 5.88,5.88 0 0 0 -0.17,3.14 c 0,1.45 1.24,3.33 2,4.41 0.93,1.3 0.93,1 2.22,1.67 a 7.86,7.86 0 0 0 4.33,1.3 m 3.94,-47.21 c -2.82,0 -6.81,0.26 -8.39,0.38 a 5.57,5.57 0 0 0 -0.82,0.1 65.74,65.74 0 0 0 -8.11,2.08 7,7 0 0 0 -4.83,6.8 c 0,1.66 0,3.34 -0.15,5 a 7,7 0 0 0 6.41,7.56 17.74,17.74 0 0 0 -4,2.78 14.8,14.8 0 0 0 -3.37,4.3 21,21 0 0 0 -2,4.1 6.82,6.82 0 0 0 -0.23,0.77 30.72,30.72 0 0 0 -0.72,5.05 1,1 0 0 1 0,0.17 18.93,18.93 0 0 0 2.33,9.69 17.44,17.44 0 0 0 7.96,7.37 25.83,25.83 0 0 0 11.29,2.66 h 3.53 a 6.92,6.92 0 0 0 1.11,-0.09 c 0.77,-0.13 1.46,-0.29 2.13,-0.46 0.67,-0.17 1.33,-0.32 2.24,-0.48 a 7,7 0 0 0 1.56,-0.48 7,7 0 0 0 2.92,0.64 h 7.9 a 7,7 0 0 0 6.83,-8.53 c -0.2,-0.91 -0.38,-1.61 -0.52,-2.2 a 4,4 0 0 1 -0.25,-1.84 c 0,-0.17 0,-0.34 0,-0.51 0,-1.56 0,-3.74 -0.1,-6 -0.09,-4 -0.2,-8.56 -0.09,-11.41 V 63 a 42.48,42.48 0 0 0 -0.16,-4.82 5.89,5.89 0 0 1 0,-0.71 c 0,-0.16 0,-0.32 0,-0.48 a 27.86,27.86 0 0 0 -1.79,-7.92 18,18 0 0 0 -2.07,-3.8 c -0.29,-0.43 -0.55,-0.81 -0.77,-1.21 a 6.78,6.78 0 0 0 -1,-1.37 21.06,21.06 0 0 0 -8.58,-5.55 l -0.24,-0.07 a 28.42,28.42 0 0 0 -8,-1.22 z m -4.27,18.65 a 15.25,15.25 0 0 1 2.52,-0.33 z m 1.76,18.57 a 9.27,9.27 0 0 1 2.22,-0.36 8.14,8.14 0 0 0 0.85,-0.08 l 0.89,-0.08 H 525 a 5.13,5.13 0 0 1 -0.23,0.8 l -0.11,0.19 a 7.23,7.23 0 0 1 -1,1.3 l -0.52,0.38 c -0.54,0.18 -1,0.36 -1.35,0.5 l -0.36,0.14 a 14.51,14.51 0 0 1 -2.09,0.21 1,1 0 0 1 -0.49,-0.15 c -0.14,-0.09 -0.28,-0.18 -0.43,-0.26 l -0.27,-0.15 c -0.14,-0.23 -0.29,-0.46 -0.38,-0.65 -0.09,-0.19 0,-0.23 0,-0.35 0.18,-0.18 0.36,-0.36 0.56,-0.53 l 0.53,-0.18 c 0.53,-0.18 1.18,-0.4 2,-0.72 z"
       fill="#ffffff"
       id="path11" />
    <path
       d="m 674,42.14 a 19.9,19.9 0 0 1 5.91,1.08 11.92,11.92 0 0 1 5.73,3.71 16,16 0 0 1 2.54,4.07 28,28 0 0 1 1.3,5.92 46.54,46.54 0 0 1 0,5.54 c 0,4.79 0.37,13.63 0.19,17.69 0,2.4 0.36,2.79 1.09,6.09 h -7.9 v -4.61 l -2.29,2 c -1.28,1.08 -2.76,1.82 -3.69,2.56 -1.84,0.38 -2.93,0.73 -4.24,0.93 h -3.3 a 20.45,20.45 0 0 1 -8.49,-2 11.09,11.09 0 0 1 -4.8,-4.42 14,14 0 0 1 -1.48,-6.09 13.19,13.19 0 0 1 0.73,-3.88 16.24,16.24 0 0 1 1.3,-3.14 7.87,7.87 0 0 1 2,-2.38 14.54,14.54 0 0 1 3,-2 c 1.29,-0.54 2.39,-0.92 4.06,-1.47 1.47,-0.56 4.43,-0.73 8.31,-1.29 1.12,-0.37 2,-0.18 3,-0.55 0.73,-0.37 1.47,-0.57 2,-0.92 a 8,8 0 0 0 1.62,-1.14 5.22,5.22 0 0 0 1.29,-1.48 c 0.37,-0.55 0.56,-0.36 0.75,-0.93 a 3.71,3.71 0 0 0 0.19,-1.48 c -0.18,-1.48 -0.18,-2.38 -1.11,-3.3 -0.91,-1.11 -1.85,-2.57 -3.32,-3 a 23.18,23.18 0 0 0 -5.53,-1.1 25.71,25.71 0 0 0 -4.94,0.57 c -1.64,0.35 -3.33,0.71 -4.61,1.08 -1.28,0.58 -2.77,1.12 -4.61,2 0.19,-1.3 0,-3.31 0.19,-5.9 3.15,-0.74 4.81,-1.29 7.2,-1.66 2.18,-0.17 5.68,-0.53 7.9,-0.53 m -3.9,40.37 h 0.11 a 25.79,25.79 0 0 0 3.5,-0.36 c 0.93,-0.18 1.84,-0.75 3.14,-1.11 0.49,-0.19 1.42,-1.1 2,-1.3 a 13.4,13.4 0 0 0 2.64,-3.27 15.42,15.42 0 0 0 1.48,-5.73 v -8.85 c -0.94,0.89 -1.31,1.08 -1.68,1.46 a 13.21,13.21 0 0 0 -1.83,0.74 c -0.55,0.19 -1.29,0.36 -1.84,0.54 -0.74,0.39 -3.14,0.39 -4.07,0.58 a 15,15 0 0 0 -4.25,0.73 33.1,33.1 0 0 0 -3.85,1.46 17.1,17.1 0 0 0 -2.6,2.43 6.85,6.85 0 0 0 -1.32,2.2 17.37,17.37 0 0 0 -0.19,3.14 c 0,1.47 1.28,3.32 2.21,4.43 0.92,1.3 0.92,0.93 2,1.66 a 8.45,8.45 0 0 0 4.51,1.3 M 674,35.14 c -2.07,0 -4.82,0.24 -7,0.43 l -1.45,0.13 h -0.49 a 50.28,50.28 0 0 0 -5.08,1.11 c -0.78,0.2 -1.64,0.42 -2.66,0.66 a 7,7 0 0 0 -5.38,6.31 c -0.11,1.54 -0.11,2.87 -0.11,3.94 0,0.52 0,1.25 0,1.48 a 7,7 0 0 0 6.15,7.94 21.63,21.63 0 0 0 -3.78,2.66 14.62,14.62 0 0 0 -3.67,4.38 23.69,23.69 0 0 0 -1.83,4.36 20.85,20.85 0 0 0 -1.06,5.75 v 0.38 a 21.29,21.29 0 0 0 2.21,9.1 l 0.22,0.41 a 18.08,18.08 0 0 0 7.82,7.2 27.31,27.31 0 0 0 11.37,2.72 h 3.45 a 6.11,6.11 0 0 0 1.05,-0.08 28.34,28.34 0 0 0 2.79,-0.58 c 0.55,-0.13 1.13,-0.27 1.8,-0.41 a 6.73,6.73 0 0 0 1.57,-0.52 6.89,6.89 0 0 0 3,0.68 h 7.9 a 7,7 0 0 0 6.84,-8.51 c -0.24,-1.09 -0.45,-1.88 -0.61,-2.51 a 6.24,6.24 0 0 1 -0.32,-1.93 c 0.11,-2.72 0,-7 -0.08,-11.08 -0.06,-2.46 -0.11,-4.78 -0.11,-6.54 a 51,51 0 0 0 0,-6.18 c 0,-0.11 0,-0.21 0,-0.32 a 35.21,35.21 0 0 0 -1.62,-7.39 4.92,4.92 0 0 0 -0.23,-0.6 22.82,22.82 0 0 0 -3.66,-5.8 18.71,18.71 0 0 0 -9.03,-5.78 26.77,26.77 0 0 0 -7.83,-1.41 z m -4.38,18.76 a 18.11,18.11 0 0 1 2.65,-0.33 c -0.94,0.13 -1.84,0.23 -2.65,0.33 z m 5.2,18.16 0.78,-0.07 h 0.07 a 8.27,8.27 0 0 1 -0.43,1.21 5.72,5.72 0 0 1 -0.7,0.92 c -0.3,0.2 -0.57,0.4 -0.8,0.57 -0.49,0.18 -0.91,0.35 -1.26,0.5 l -0.3,0.12 a 18.91,18.91 0 0 1 -2.14,0.21 1.42,1.42 0 0 1 -0.7,-0.2 l -0.46,-0.29 a 6.54,6.54 0 0 1 -0.55,-0.75 v -0.16 c 0.23,-0.24 0.47,-0.48 0.72,-0.7 0.75,-0.31 1.52,-0.58 2.29,-0.82 h 0.06 a 7.89,7.89 0 0 1 2.27,-0.39 7.48,7.48 0 0 0 1.15,-0.12 z"
       fill="#ffffff"
       id="path13" />
    <path
       d="m 568.12,42.41 a 10.14,10.14 0 0 1 3.32,0.55 9.25,9.25 0 0 1 3.14,1.28 7.94,7.94 0 0 1 2.42,1.67 10.17,10.17 0 0 1 2.24,2.48 0.05,0.05 0 0 0 0.06,0 c 0.37,0 2,-2.11 4.17,-3.36 a 17.51,17.51 0 0 1 8.13,-2.4 c 1.83,0 6.07,0.2 7.9,0.92 1.83,0.72 4.43,1.68 5.54,3 1.11,1.32 1.46,1.84 2.38,3 1.31,1.29 1.69,4.61 1.69,5.92 0,1.47 0.18,3.69 0.18,6.47 v 20.4 c 0,2 0.55,2.23 0.93,4.45 h -8.49 c 1.09,-3.51 0.92,-2.41 0.92,-4.45 l 0.18,-18.61 c 0,-2.59 0,-4.06 -0.18,-6.09 a 14.27,14.27 0 0 0 -0.92,-4.61 16.92,16.92 0 0 0 -2.75,-3.5 7.52,7.52 0 0 0 -3,-1.31 c -0.93,-0.55 -2.77,-0.55 -4.05,-0.55 a 17.91,17.91 0 0 0 -3.34,0.39 14,14 0 0 0 -2.4,1.09 9.21,9.21 0 0 0 -2.19,1.63 18.82,18.82 0 0 0 -1.65,2.76 21.17,21.17 0 0 0 -0.56,4.26 c 0,1.84 0.18,4.24 0,6.8 v 18.09 l 1.3,4.07 h -8.89 c 0,-3.7 0.57,-0.38 0.57,-4.25 V 57.26 a 31.7,31.7 0 0 0 -0.57,-3.15 9.68,9.68 0 0 0 -1.64,-3.11 10.27,10.27 0 0 0 -3.51,-2.8 7.87,7.87 0 0 0 -3.68,-0.95 h -0.25 a 7.32,7.32 0 0 0 -3.25,0.76 c -1.12,0.55 -2.2,0.73 -3.13,1.83 -1,0.92 -1.67,1.12 -2.4,2.56 -0.57,1.48 -1.12,1.11 -1.29,3.53 -0.38,2.38 -0.57,11.06 -0.57,17 0.19,3.51 0.19,6.63 0.19,9.58 0,1.84 0.93,2.58 0.93,4.25 h -4.24 c -0.8,0 -3.15,0 -4.81,0 l 0.92,-3.13 0.2,-8.69 L 547.11,50 c 0,-2.22 -1.29,-4.79 -1.29,-5.92 a 18,18 0 0 0 5.33,-1 9.27,9.27 0 0 1 2.62,-0.37 h 0.52 v 5.72 c 0.92,-1.66 2.39,-1.83 3.15,-2.77 0.55,-0.92 1.29,-0.92 2.57,-1.84 a 8.37,8.37 0 0 1 3.32,-1.11 42.71,42.71 0 0 1 4.79,-0.36 v 0 m 0,-7 H 568 a 46.28,46.28 0 0 0 -5.51,0.42 14.82,14.82 0 0 0 -4.29,1.23 7,7 0 0 0 -3.54,-1.19 h -0.89 a 16.29,16.29 0 0 0 -4.55,0.64 l -0.39,0.12 a 10.42,10.42 0 0 1 -3.22,0.6 7,7 0 0 0 -6.79,7 13.22,13.22 0 0 0 0.8,4.11 14.51,14.51 0 0 1 0.49,1.86 v 0.11 l 0.56,24.74 -0.17,7.59 -0.67,2.24 a 7,7 0 0 0 6.72,9 c 2.16,0 4,0 4.89,0 h 4.16 a 7,7 0 0 0 7,-7 12.09,12.09 0 0 0 -0.89,-4.46 c 0,0 0,-0.07 0,-0.11 0,-2.8 0,-6 -0.19,-9.45 0,-7.28 0.26,-14.26 0.48,-15.68 0,-0.1 0,-0.21 0,-0.31 a 9.11,9.11 0 0 0 0.46,-0.85 c 0.28,-0.22 0.64,-0.51 1,-0.89 a 0.6,0.6 0 0 1 0.08,-0.08 v 0 c 0.35,-0.14 0.82,-0.33 1.35,-0.59 a 0.24,0.24 0 0 1 0.14,0 h 0.19 a 0.93,0.93 0 0 1 0.37,0.1 l 0.31,0.16 a 3.19,3.19 0 0 1 1.08,0.84 3,3 0 0 1 0.35,0.6 l 0.09,0.45 c 0.1,0.47 0.17,0.79 0.24,1.3 v 24.63 a 12.29,12.29 0 0 0 -0.57,4.28 7,7 0 0 0 7,7 h 8.89 a 7,7 0 0 0 6.67,-9.12 l -1,-3 V 64.83 c 0.13,-2 0.08,-3.86 0,-5.36 0,-0.56 0,-1.09 0,-1.57 a 13,13 0 0 1 0.21,-2 c 0.1,-0.17 0.2,-0.35 0.31,-0.52 l 0.21,-0.12 0.14,-0.08 a 7.58,7.58 0 0 1 0.86,-0.42 11,11 0 0 1 1.52,-0.15 c 0.37,0 0.93,0 1.3,0 a 7.53,7.53 0 0 0 1.25,0.38 10.26,10.26 0 0 1 0.76,1 7.44,7.44 0 0 1 0.29,1.82 c 0,0.12 0,0.25 0,0.37 0.15,1.72 0.15,3 0.15,5.45 l -0.18,18.58 v 0.06 c 0,0.17 0,0.32 0,0.46 v 0.06 c -0.15,0.43 -0.34,1 -0.59,1.84 a 7,7 0 0 0 6.68,9.09 h 8.49 a 7,7 0 0 0 6.9,-8.17 19.65,19.65 0 0 0 -0.77,-3 l -0.06,-0.17 V 61.91 c 0,-1.75 -0.07,-3.29 -0.12,-4.52 0,-0.79 -0.06,-1.48 -0.06,-2 0,-1.16 -0.17,-6.93 -3.4,-10.52 l -0.63,-0.8 c -0.44,-0.57 -0.94,-1.22 -1.75,-2.16 -2.17,-2.49 -5.47,-3.78 -7.88,-4.73 l -0.39,-0.15 c -3.3,-1.3 -8.84,-1.41 -10.46,-1.41 h -0.29 A 24.33,24.33 0 0 0 579.94,39 l -0.22,0.12 a 16.55,16.55 0 0 0 -1.78,-1 16,16 0 0 0 -4.66,-1.89 17,17 0 0 0 -5.16,-0.79 z"
       fill="#ffffff"
       id="path15" />
    <path
       d="m 637.51,42.46 a 42.7,42.7 0 0 1 11.78,1.66 c 0.18,2.59 0.37,4 0.57,5.71 -2.59,-0.94 -5,-2 -6.47,-2.41 -1.65,-0.18 -3.69,-0.54 -4.94,-0.54 a 28.4,28.4 0 0 0 -9,2 12.33,12.33 0 0 0 -4.68,4.12 20.35,20.35 0 0 0 -2.58,6.46 12.48,12.48 0 0 0 -0.55,5.15 30.27,30.27 0 0 0 1.67,8.89 13.34,13.34 0 0 0 5.15,6.27 14.81,14.81 0 0 0 7.9,2.77 32.12,32.12 0 0 0 15,-3.72 c 0,0.56 -0.2,1.48 -0.37,2.76 -0.17,1.28 -0.56,2.41 -0.75,3.71 a 33.68,33.68 0 0 1 -5.69,1.28 c -1.68,0.19 -6.46,0.36 -7.9,0.36 a 31.62,31.62 0 0 1 -8.48,-1.29 21,21 0 0 1 -7.47,-4.6 c -1.83,-1.85 -4.07,-3.88 -4.93,-6.82 a 29,29 0 0 1 -1.64,-8.89 c -0.2,-4.43 0.55,-5.92 1.64,-9.77 1.3,-3.88 4.44,-6.82 7.2,-9 3,-2.23 9.59,-4.06 14.58,-4.06 m 0,-7 v 0 c -5.58,0 -14,1.91 -18.78,5.46 l -0.18,0.14 c -3.14,2.52 -7.53,6.54 -9.46,12.27 0,0.11 -0.07,0.22 -0.1,0.33 -0.17,0.61 -0.34,1.15 -0.49,1.66 a 26.77,26.77 0 0 0 -1.41,10.27 36.09,36.09 0 0 0 2,10.79 c 1.32,4.31 4.13,7.11 6.19,9.15 l 0.44,0.45 0.13,0.12 a 28,28 0 0 0 9.95,6.14 l 0.37,0.12 a 38.22,38.22 0 0 0 10.36,1.56 h 0.1 c 1.52,0 6.61,-0.17 8.67,-0.4 h 0.17 a 41.38,41.38 0 0 0 6.81,-1.56 7,7 0 0 0 4.81,-5.67 c 0,-0.31 0.14,-0.72 0.25,-1.18 a 24,24 0 0 0 0.51,-2.62 c 0.06,-0.42 0.12,-0.8 0.17,-1.13 a 16.31,16.31 0 0 0 0.26,-2.54 7,7 0 0 0 -10.27,-6.19 25.18,25.18 0 0 1 -11.5,2.91 7.75,7.75 0 0 1 -4,-1.45 6.61,6.61 0 0 0 -0.68,-0.44 6.58,6.58 0 0 1 -2.06,-2.76 23.42,23.42 0 0 1 -1.17,-6.53 c 0,-0.16 0,-0.32 0,-0.48 a 5.26,5.26 0 0 1 0.24,-2.23 5.89,5.89 0 0 0 0.2,-0.75 13.26,13.26 0 0 1 1.62,-4.11 5.28,5.28 0 0 1 1.69,-1.57 21.75,21.75 0 0 1 6.23,-1.34 c 0.49,0 1.56,0.18 2.22,0.27 l 1.22,0.16 c 0.55,0.18 1.55,0.58 2.32,0.89 0.94,0.38 2,0.81 3.13,1.21 a 7,7 0 0 0 9.34,-7.4 l -0.06,-0.5 c -0.17,-1.45 -0.32,-2.71 -0.47,-4.87 a 7,7 0 0 0 -5.06,-6.26 50,50 0 0 0 -13.7,-1.92 z"
       fill="#ffffff"
       id="path17" />
    <path
       d="m 710.51,41.56 c 3.3,0 6.45,0.76 10.52,1.48 0.18,2.22 -0.38,3.89 -0.2,5.73 a 17.23,17.23 0 0 0 -9.22,-3 20.16,20.16 0 0 0 -4.81,0.74 9.94,9.94 0 0 0 -3.69,2.76 5.1,5.1 0 0 0 -0.92,2.77 6.94,6.94 0 0 0 0.55,2.58 7.93,7.93 0 0 0 2.83,2.78 11.19,11.19 0 0 0 1.84,0.73 c 1.31,0.19 4.25,1.84 7.19,3.14 a 28.52,28.52 0 0 1 6.77,4.26 10.65,10.65 0 0 1 2.76,4.47 7.61,7.61 0 0 1 0.73,3.31 c 0,1.66 -0.37,1.84 -0.37,3 0.19,2 -0.36,2.78 -1.46,4.44 a 11.32,11.32 0 0 1 -5.54,4.42 20.84,20.84 0 0 1 -7.74,1.67 c -0.87,0 -2.39,0.08 -3.79,0.08 a 18.55,18.55 0 0 1 -1.92,-0.08 c -1.64,-0.18 -3.15,-0.75 -4.44,-1 a 16.43,16.43 0 0 1 -3.47,-0.7 l -0.73,-3 c 0,-0.38 -0.74,-2.21 -1.1,-4.25 4.93,2.78 10.14,4.8 14,4.8 a 18.94,18.94 0 0 0 5.16,-1.05 7.84,7.84 0 0 0 3.33,-2.56 11.62,11.62 0 0 0 1.48,-3 4,4 0 0 0 0.17,-2 c -0.17,-0.57 -0.37,-2.22 -0.92,-2.78 -0.37,-0.56 -1.85,-1.83 -2.57,-2.58 A 30.27,30.27 0 0 0 709.41,66 c -2.58,-1.09 -6.09,-2.2 -7.36,-3.31 -1.32,-0.93 -3.52,-2.21 -4.44,-3.32 a 16.52,16.52 0 0 1 -2,-3.41 c -0.36,-1.11 0,-2.77 -0.19,-4.08 0,-1.84 1.1,-3.7 2.21,-5.34 1.09,-1.84 3,-2.77 5.16,-3.7 a 25.18,25.18 0 0 1 7.75,-1.28 m 0,-7 h -0.06 a 32.05,32.05 0 0 0 -9.9,1.64 4.65,4.65 0 0 0 -0.52,0.2 c -2.89,1.22 -6.14,2.82 -8.33,6.37 -1.65,2.46 -3.31,5.45 -3.31,9.11 a 6.54,6.54 0 0 0 0.06,0.89 c 0,0.15 0,0.47 0,0.71 a 13.32,13.32 0 0 0 0.48,4.61 6,6 0 0 0 0.27,0.7 22.8,22.8 0 0 0 2.9,4.87 l 0.15,0.18 a 21.29,21.29 0 0 0 4.8,3.91 l 0.79,0.53 a 25.94,25.94 0 0 0 6.69,3.31 c 0.79,0.3 1.53,0.59 2.16,0.86 l 0.29,0.11 a 22.65,22.65 0 0 1 3.65,1.75 l 0.56,0.53 v 0 a 0.35,0.35 0 0 0 -0.05,0.08 0.92,0.92 0 0 1 -0.22,0.17 12.22,12.22 0 0 1 -2.8,0.57 c -1.84,-0.08 -5.46,-1.13 -10.4,-3.9 a 7,7 0 0 0 -10.31,7.34 32.37,32.37 0 0 0 1,4 l 0.09,0.31 c 0,0.12 0.05,0.25 0.08,0.37 l 0.74,3 a 7,7 0 0 0 4.67,5 23.26,23.26 0 0 0 4.53,1 l 0.87,0.22 a 21,21 0 0 0 6.55,0.92 c 0.89,0 1.77,0 2.55,0 h 1.24 0.14 a 27.75,27.75 0 0 0 10.2,-2.17 18.52,18.52 0 0 0 8.78,-7.06 l 0.09,-0.15 a 12.06,12.06 0 0 0 2.55,-7.94 13.13,13.13 0 0 0 0.35,-3.14 14.71,14.71 0 0 0 -1.2,-5.89 17.61,17.61 0 0 0 -4.46,-6.93 l -0.3,-0.28 a 35,35 0 0 0 -7.74,-5 7,7 0 0 0 9.64,-7.19 9.72,9.72 0 0 1 0.09,-1.23 23.12,23.12 0 0 0 0.12,-4.34 7,7 0 0 0 -5.76,-6.33 l -2.4,-0.45 a 50,50 0 0 0 -9.34,-1.14 z m 7.09,20.44 -0.18,-0.08 c -0.91,-0.4 -1.85,-0.86 -2.76,-1.3 l -1.08,-0.52 a 10.14,10.14 0 0 1 3.29,1.47 7.74,7.74 0 0 0 0.73,0.43 z"
       fill="#ffffff"
       id="path19" />
    <path
       d="m 738.33,30.34 c 0,4.24 0.37,10.51 0.37,12.9 l 11.07,0.18 a 15.85,15.85 0 0 0 0.2,4.24 l -3.14,-0.36 h -8.13 l -0.17,24.15 v 2 c 0.17,2.22 0.35,4.93 0.92,6.08 0.36,1.12 1.1,1.49 2,2 a 7.34,7.34 0 0 0 2.77,0.57 h 2.41 a 12.38,12.38 0 0 0 3.39,-0.78 20.61,20.61 0 0 0 -0.93,4.61 11.39,11.39 0 0 1 -3.69,0.75 h -0.45 a 16.22,16.22 0 0 1 -2.51,-0.19 h -0.85 a 12.88,12.88 0 0 1 -4.86,-1 6.76,6.76 0 0 1 -3.32,-3.14 c -0.93,-1.46 -1.48,-5.16 -1.48,-7.73 v -1.55 c -0.11,-2.2 -0.11,-4.41 0,-6.61 l -0.18,-19.2 h -5.36 v -3.87 l 5.36,-0.19 c 0.18,-1.08 0,-4.79 0,-7.56 a 6,6 0 0 0 -1.3,-3.32 c 2.58,-0.56 6.28,-1.67 7.9,-2 M 750,81.39 v 0 m -11.67,-58 a 7.15,7.15 0 0 0 -1.3,0.12 c -1,0.2 -2.43,0.57 -4,1 -1.36,0.36 -2.91,0.77 -4,1 a 7,7 0 0 0 -4.22,10.92 v 0.19 a 7,7 0 0 0 -5.37,6.81 v 3.87 a 7,7 0 0 0 5.43,6.82 l 0.11,12.24 c -0.11,2.3 -0.11,4.63 0,6.93 v 1.51 c 0,0.74 0.07,7.18 2.37,11.15 a 13.81,13.81 0 0 0 6.54,6.05 l 0.17,0.07 a 19.71,19.71 0 0 0 7.51,1.48 h 0.52 a 22.55,22.55 0 0 0 2.84,0.17 h 0.64 a 17.9,17.9 0 0 0 6,-1.22 7,7 0 0 0 4.45,-5.93 14,14 0 0 1 0.55,-2.87 7,7 0 0 0 -6.45,-9.33 h -0.59 a 6.8,6.8 0 0 0 -2.21,0.51 5.67,5.67 0 0 1 -1.08,0.26 h -0.58 c -0.06,-0.63 -0.11,-1.29 -0.15,-1.76 v -1.9 l 0.12,-17.18 h 0.77 l 2.74,0.31 a 7.34,7.34 0 0 0 0.81,0 7,7 0 0 0 6.88,-8.27 8.74,8.74 0 0 1 -0.11,-2.34 7,7 0 0 0 -6.85,-7.62 l -4.41,-0.08 c -0.08,-2.09 -0.15,-4.25 -0.15,-6 a 7,7 0 0 0 -7,-7 z"
       fill="#ffffff"
       id="path21" />
    <path
       d="m 482.1,43.41 a 24.69,24.69 0 0 1 6.67,0.93 13.72,13.72 0 0 1 5.54,3.14 19.9,19.9 0 0 1 3.69,5.52 15.45,15.45 0 0 1 1.48,5.16 19.44,19.44 0 0 1 0.36,4.44 l -31.53,0.18 v 3.16 a 23.17,23.17 0 0 0 1.83,8.88 12.42,12.42 0 0 0 5.35,5.68 18.34,18.34 0 0 0 8.31,2.57 c 3.53,0 9.56,-1.43 14.71,-4 -0.18,1.65 -0.74,3.67 -0.92,6.25 -2.57,0.72 -6.64,2.2 -8.48,2.57 -1.83,0.18 -3.69,0.18 -5.53,0.18 A 30.19,30.19 0 0 1 474.17,86.41 18.53,18.53 0 0 1 467,81.45 21.2,21.2 0 0 1 462.19,74.09 35.11,35.11 0 0 1 460.9,65.2 c -0.18,-4.44 0.56,-6.09 1.85,-10 A 20.74,20.74 0 0 1 470,46.56 c 3,-2.22 6.65,-3.14 11.43,-3.14 h 0.71 M 469.6,57.09 v 0 c 0,0 0.21,0 0,1.06 h 23.05 a 7.93,7.93 0 0 0 -0.18,-2.38 11.53,11.53 0 0 0 -1.1,-3 8.25,8.25 0 0 0 -2.37,-2.55 9.63,9.63 0 0 0 -3.12,-2 16.52,16.52 0 0 0 -4.2,-0.55 h -0.25 a 10,10 0 0 0 -4.06,1 9,9 0 0 0 -3.5,2 9.11,9.11 0 0 0 -2.58,2.77 8.87,8.87 0 0 0 -1.48,3.3 l -0.18,0.37 m 12.5,-20.68 h -0.8 c -6.43,0 -11.34,1.44 -15.42,4.46 a 27.56,27.56 0 0 0 -9.51,11.54 q -0.14,0.3 -0.24,0.6 l -0.35,1 a 27,27 0 0 0 -1.86,11.34 42.4,42.4 0 0 0 1.52,10.63 c 0.06,0.22 0.13,0.44 0.21,0.65 a 28.19,28.19 0 0 0 6.26,9.65 25.7,25.7 0 0 0 9.77,6.65 l 0.2,0.08 a 37.35,37.35 0 0 0 11.61,2 h 0.1 c 2,0 4,0 6.21,-0.21 a 6,6 0 0 0 0.72,-0.11 55.33,55.33 0 0 0 5.49,-1.6 c 1.25,-0.41 2.54,-0.83 3.48,-1.09 a 7,7 0 0 0 5.1,-6.26 28.42,28.42 0 0 1 0.48,-3.35 c 0.15,-0.85 0.31,-1.72 0.41,-2.63 a 7,7 0 0 0 -3,-6.51 7,7 0 0 0 -7.15,-0.49 31,31 0 0 1 -11.59,3.28 12,12 0 0 1 -5,-1.74 5.42,5.42 0 0 1 -2.2,-2.32 15.71,15.71 0 0 1 -0.73,-2.23 l 24.08,-0.13 a 7,7 0 0 0 6.95,-6.76 26.84,26.84 0 0 0 -0.42,-5.73 22.27,22.27 0 0 0 -2.08,-7.15 26.68,26.68 0 0 0 -5,-7.38 c -0.09,-0.09 -0.18,-0.19 -0.28,-0.28 a 20.78,20.78 0 0 0 -8.37,-4.74 31.52,31.52 0 0 0 -8.61,-1.21 z"
       fill="#ffffff"
       id="path23" />
    <path
       d="m 498.59,79 v 0 m 0,0 v 0 0 0 m 0,-7 h -0.05 a 7,7 0 0 0 -6.93,6 v 0.22 a 7,7 0 1 0 7,-6.24 z m 0,14 z"
       fill="#ffffff"
       id="path25" />
    <path
       d="m 455,43.32 c 0.77,0 1.54,0 2.31,0.08 a 23.45,23.45 0 0 1 4.61,1.1 c 0.18,1.1 -1.84,5.92 -1.84,5.92 a 13.76,13.76 0 0 1 -3.69,-0.91 16.09,16.09 0 0 0 -3.52,-0.39 h -0.54 a 13.24,13.24 0 0 0 -4.61,0.92 10.74,10.74 0 0 0 -3.31,2.39 11.88,11.88 0 0 0 -2,4.07 c -0.57,1.31 -0.38,0.19 -0.57,2.22 -0.18,2.21 0,22 0.19,26.57 l 0.73,2.38 h -4.53 c -0.84,0 -2.75,0.19 -4.15,0.19 0,-1 0.75,-2 0.75,-2.77 0.2,-14 0,-24.68 -0.37,-33.57 L 434.28,47.64 433,44.51 c 1.29,-0.2 3.14,-0.36 4.06,-0.55 a 28.57,28.57 0 0 1 4.42,-0.56 v 8 a 8.41,8.41 0 0 1 1.83,-2.59 13.56,13.56 0 0 1 2.75,-2.81 12.79,12.79 0 0 1 3.14,-1.67 11.17,11.17 0 0 1 3.5,-0.91 c 0.77,0 1.54,-0.08 2.31,-0.08 m 0,-7 c -0.91,0 -1.84,0 -2.76,0.09 h -0.21 a 18.06,18.06 0 0 0 -5.45,1.38 l -0.61,0.25 a 7,7 0 0 0 -4.53,-1.66 h -0.37 a 37.1,37.1 0 0 0 -5.45,0.7 c -0.25,0 -1.11,0.15 -1.67,0.22 l -2,0.27 a 7,7 0 0 0 -5.41,9.59 l 0.82,2 0.12,2.66 c 0.42,9.73 0.54,20.29 0.39,32.23 a 10.41,10.41 0 0 0 -0.77,3.79 7,7 0 0 0 7,7 c 1,0 2.07,-0.06 3,-0.12 l 1.13,-0.07 h 4.54 a 7,7 0 0 0 6.69,-9.06 L 449,84.13 c -0.17,-5.75 -0.29,-22.64 -0.17,-24.82 v -0.05 a 6.24,6.24 0 0 0 0.3,-0.86 5.22,5.22 0 0 1 0.64,-1.4 3.65,3.65 0 0 1 0.76,-0.52 6,6 0 0 1 1.93,-0.35 h 0.43 a 9.28,9.28 0 0 1 1.58,0.14 21.31,21.31 0 0 0 4.86,1.12 6.78,6.78 0 0 0 0.77,0 7,7 0 0 0 6.45,-4.3 c 2.8,-6.68 2.5,-8.53 2.3,-9.75 a 7,7 0 0 0 -4.59,-5.48 29.48,29.48 0 0 0 -6,-1.44 l -0.47,-0.05 c -0.92,-0.06 -1.85,-0.09 -2.77,-0.09 z"
       fill="#ffffff"
       id="path27" />
    <path
       d="m 381.14,25.32 c 1.48,0 3.88,0.19 7.2,0.19 3.32,0 6.28,0 7.74,0.19 a 38.39,38.39 0 0 1 9.23,1.46 c 2.39,0.56 7,3.14 9.21,4.61 a 24.37,24.37 0 0 1 5.93,5.53 32.91,32.91 0 0 1 3.67,5.93 33.66,33.66 0 0 1 2.41,11.64 35.05,35.05 0 0 1 -1.67,14 c -1.65,4.81 -4.94,8.3 -8.1,11.45 A 22.12,22.12 0 0 1 406,86.57 61.36,61.36 0 0 1 392.18,88.41 h -12 L 369,88 370.48,83.77 V 31.43 a 29.6,29.6 0 0 0 -1.67,-5.92 c 0.76,0 1.61,0 2.51,0 3.52,0 7.79,-0.24 9.84,-0.24 m 8.09,57.93 c 2.41,0 5.36,-0.19 7.9,-0.37 a 29.51,29.51 0 0 0 6.64,-2 15.76,15.76 0 0 0 5.93,-3.7 25.51,25.51 0 0 0 4.79,-6.28 26,26 0 0 0 2.39,-7.9 47.19,47.19 0 0 0 0.75,-8.88 31.2,31.2 0 0 0 -2,-8.68 c -0.92,-3 -2.57,-6.45 -4.94,-8.48 -2.57,-2 -4.42,-3.68 -7.18,-4.41 a 38.17,38.17 0 0 0 -10.7,-1.87 c -2.77,0 -6.29,0.2 -7.95,0.38 a 47.64,47.64 0 0 1 -5.72,0.38 l 0.74,51.66 c 3.48,0.19 6.45,0.19 9.39,0.19 M 381.2,18.31 c -1,0 -2.35,0 -3.91,0.1 -1.9,0.07 -4.06,0.14 -5.93,0.14 -0.84,0 -1.56,0 -2.13,0 h -0.38 a 7,7 0 0 0 -6.5,9.58 23,23 0 0 1 1.17,4 v 50.5 l -1.09,3.11 a 7,7 0 0 0 6.29,9.26 l 11.22,0.41 h 12.37 a 68.93,68.93 0 0 0 15.4,-2 29.05,29.05 0 0 0 14.05,-8.13 c 3.61,-3.59 7.62,-7.94 9.72,-14.08 v -0.06 a 41.63,41.63 0 0 0 2,-16.61 40.69,40.69 0 0 0 -2.9,-13.86 c -0.06,-0.14 -0.12,-0.29 -0.19,-0.43 A 39.76,39.76 0 0 0 426,33 31.33,31.33 0 0 0 418.39,25.9 c -1.83,-1.22 -7.4,-4.56 -11.28,-5.54 a 45.83,45.83 0 0 0 -10.46,-1.67 c -1.82,-0.2 -4.4,-0.21 -8.3,-0.21 -1.85,0 -3.42,-0.07 -4.69,-0.12 -0.95,0 -1.77,-0.07 -2.51,-0.07 z m 5.05,19.6 c 1.49,-0.13 4.15,-0.28 6.48,-0.28 a 31.22,31.22 0 0 1 8.62,1.52 l 0.39,0.11 c 0.9,0.24 1.83,0.94 3.52,2.27 l 1,0.78 a 12.87,12.87 0 0 1 2.71,5.15 c 0.05,0.17 0.11,0.33 0.17,0.49 a 24.39,24.39 0 0 1 1.57,6.47 40.69,40.69 0 0 1 -0.65,7.3 c 0,0.09 0,0.19 0,0.28 a 19.58,19.58 0 0 1 -1.68,5.65 19.15,19.15 0 0 1 -3.42,4.43 l -0.09,0.09 a 8.87,8.87 0 0 1 -3.29,2 4.71,4.71 0 0 0 -0.52,0.21 22.3,22.3 0 0 1 -4.72,1.48 c -2.46,0.17 -5,0.33 -7,0.33 h -2.49 L 386.3,37.86 Z"
       fill="#ffffff"
       id="path29" />
    <path
       d="m 303.57,7.62 a 91.39,91.39 0 0 1 12.67,1.12 c 5.09,0.62 14.81,3.95 14.81,3.95 a 91.48,91.48 0 0 1 10.15,5.42 c 2.36,1.4 4.47,4.21 6.66,7 a 94.24,94.24 0 0 1 6.2,9.28 64.41,64.41 0 0 1 4.64,9.1 c 0.7,2.15 2.28,10.15 2.36,11 0.08,0.85 1.32,5.69 -2.88,6 h -0.34 c -4.24,0 -4.75,-4.33 -5,-5.69 -0.25,-1.36 -3.32,-11.59 -4.47,-13.57 A 132.14,132.14 0 0 0 338.05,26.78 35.06,35.06 0 0 0 323.69,18 83.22,83.22 0 0 0 302.82,14.74 h -1.36 c -5.77,0.27 -7.7,0.64 -10.24,1.49 a 52.88,52.88 0 0 0 -12.84,6.21 c -3.14,1.93 -8.39,6.15 -10.66,9 -2.72,3.44 -7.36,11.93 -8.41,16.56 a 57.11,57.11 0 0 0 -0.74,17.16 c 0,0 2.16,16.46 12.83,24.84 4.12,3.32 7.53,5.08 17.08,7.71 a 73.47,73.47 0 0 0 10,0.69 h 1 c 5.43,0 7.1,-0.18 10.16,-1.32 a 37.76,37.76 0 0 0 6.44,-2.4 c 2.37,-1.23 6.4,-2.54 10.77,-6.84 A 28.34,28.34 0 0 0 333.53,76 c 0.79,-2.81 0.35,-3.69 0.26,-7.27 -0.1,-1.19 -0.18,-2.17 -0.26,-3.16 a 45.85,45.85 0 0 0 -1.32,-7.35 39.21,39.21 0 0 0 -1.84,-6.3 28.48,28.48 0 0 0 -2.19,-4.64 c -0.61,-0.87 -1.13,-1.55 -1.83,-2.53 -4.46,-6.92 -13.4,-11.39 -21.62,-11.65 h -0.94 a 30.19,30.19 0 0 0 -8.65,1.27 33,33 0 0 0 -6.82,3.24 24.41,24.41 0 0 0 -2.54,1.57 13.2,13.2 0 0 0 -2.1,1.62 31.86,31.86 0 0 0 -2.1,3.06 c -6.74,8.58 -5.16,16.64 -5.16,16.64 0,0 -0.7,18.72 19.16,20.83 h 0.4 c 5.14,0 13.78,-3.08 17.11,-6.67 2.1,-2.25 2.28,-6.29 2.19,-9.87 -0.09,-2.87 -1.41,-7.9 -3.59,-9.87 -4.82,-4.21 -8.75,-4.38 -10.86,-4.47 h -0.69 c -2.65,0 -6.09,1.12 -7.54,6.67 -0.52,2.15 1.15,6.48 4.3,7.09 a 12.32,12.32 0 0 0 2.82,0.28 c 1.34,0 2.56,-0.14 3.37,-0.14 a 2.83,2.83 0 0 1 0.54,0 c 1.14,0.16 2.8,-0.18 2.8,3.32 -0.16,2.88 -3.21,3.65 -6.4,3.65 a 30,30 0 0 1 -7.37,-1 c -1.05,-1 -7.09,-4.38 -7.34,-10.86 a 15.15,15.15 0 0 1 8.88,-15.05 16.9,16.9 0 0 1 6,-1.22 c 5,0.25 8.59,1 12.26,2.88 0.62,0.35 1.31,0.7 2.1,1.23 l 1.25,0.83 c 4.29,3.68 6,8.54 6.91,13.48 a 42.08,42.08 0 0 1 0.44,5.25 18,18 0 0 1 -1.48,8.23 15.61,15.61 0 0 1 -7.1,7.62 c -3.24,1.66 -8.05,4.37 -14.61,5.25 A 33.36,33.36 0 0 1 286.04,86.65 C 271,81.74 269.54,64.59 269.54,64.59 a 31.51,31.51 0 0 1 5.25,-24.08 41.76,41.76 0 0 1 3.07,-3.95 39.16,39.16 0 0 1 10.24,-7.34 c 5.6,-3 9.79,-3.68 11,-3.68 h 2.21 c 0.92,0 2,0 3.22,0.1 a 55.36,55.36 0 0 1 8.69,1.36 38.55,38.55 0 0 1 6.78,2 27.92,27.92 0 0 1 4.28,2.46 c 2.72,1.66 7.1,5 8.5,7.18 a 39.7,39.7 0 0 1 5.43,10.58 c 1,3.06 1.74,7.41 2.8,12.35 1.49,7.35 1,14.88 -0.7,19.61 a 31.27,31.27 0 0 1 -8,12.14 53.17,53.17 0 0 1 -15.73,9.68 c -2.09,0.84 -5.05,3.34 -15.86,3.34 h -1.64 A 64.17,64.17 0 0 1 278.24,102.48 37.37,37.37 0 0 1 262.83,92.1 c -6.73,-7.53 -8.26,-12.25 -9.35,-15.58 -1.09,-3.33 -3.08,-11.65 -3.08,-11.65 0,0 0.18,-0.08 -0.25,-4.37 a 26.88,26.88 0 0 1 0.17,-7 76.19,76.19 0 0 1 2,-8 66.23,66.23 0 0 1 6.91,-14.88 62.1,62.1 0 0 1 5.08,-6.13 c 2.59,-3 1.1,-1 5.92,-4.94 4.82,-3.94 11.29,-6.73 14.1,-8 a 42.85,42.85 0 0 1 15.05,-3.79 c 1.51,-0.09 2.92,-0.13 4.22,-0.13 m 0,-7 c -1.51,0 -3.08,0.05 -4.67,0.15 a 49.35,49.35 0 0 0 -17.46,4.38 l -0.17,0.07 c -3.26,1.43 -10,4.42 -15.49,8.86 a 34.66,34.66 0 0 1 -3,2.26 15.5,15.5 0 0 0 -3.69,3.39 71.69,71.69 0 0 0 -5.56,6.73 c -0.09,0.13 -0.18,0.26 -0.26,0.4 a 72.8,72.8 0 0 0 -7.64,16.45 0.49,0.49 0 0 0 0,0.11 85,85 0 0 0 -2.15,8.77 2,2 0 0 0 0,0.24 34.12,34.12 0 0 0 -0.21,8.8 c 0.17,1.76 0.23,2.63 0.24,3 a 6.93,6.93 0 0 0 0.16,2.26 c 0.21,0.89 2.08,8.72 3.24,12.23 v 0.05 c 1.24,3.76 3.11,9.42 10.78,18 a 44.44,44.44 0 0 0 18.26,12.35 71.09,71.09 0 0 0 23.02,4.23 c 0.58,0 1.18,0 1.76,0 10.71,0 15.36,-2.31 17.86,-3.55 l 0.61,-0.3 a 59.91,59.91 0 0 0 17.86,-11.11 38.45,38.45 0 0 0 9.8,-14.85 v -0.07 c 2,-5.76 2.51,-13.65 1.36,-21.07 a 11.38,11.38 0 0 0 9.61,5.15 c 0.23,0 0.46,0 0.7,0 h 0.23 a 10.19,10.19 0 0 0 7.28,-3.78 c 2.94,-3.74 2.25,-8.23 2,-9.92 V 53.71 A 119.94,119.94 0 0 0 365.41,41.34 67.33,67.33 0 0 0 360,30.71 102.24,102.24 0 0 0 353.43,20.9 l -0.06,-0.09 -0.36,-0.46 c -2.39,-3.06 -4.86,-6.22 -8.18,-8.22 A 98.12,98.12 0 0 0 333.93,6.32 4.73,4.73 0 0 0 333.31,6.07 C 332.24,5.7 322.73,2.48 317.08,1.79 316.34,1.7 315.61,1.61 314.86,1.5 A 80.14,80.14 0 0 0 303.56,0.62 Z M 300,57.44 h 0.59 -0.61 v 0 z"
       fill="#ffffff"
       id="path31" />
    <g
       id="Calque_1"
       data-name="Calque 1">
      <path
         d="m 508,50.78 c 2,-0.92 3.52,-1.47 4.79,-2 1.27,-0.53 2.77,-0.73 4.61,-1.12 a 23.25,23.25 0 0 1 5,-0.54 24.17,24.17 0 0 1 5.53,1.08 c 1.3,0.39 2.39,1.85 3.14,3 a 3.31,3.31 0 0 1 1.1,3 v 1.49 c -0.18,0.54 -0.55,0.72 -0.93,1.27 a 4.53,4.53 0 0 1 -1.24,1.43 11.5,11.5 0 0 1 -1.48,1.12 c -0.74,0.37 -1.47,0.55 -2.22,0.92 -0.75,0.37 -1.84,0.19 -3,0.56 -3.69,0.56 -6.64,0.73 -8.3,1.29 a 26.73,26.73 0 0 0 -3.88,1.48 10.73,10.73 0 0 0 -3,2 8.17,8.17 0 0 0 -2,2.58 14.2,14.2 0 0 0 -1.48,3 23.89,23.89 0 0 0 -0.55,3.87 11.88,11.88 0 0 0 1.46,6.09 10.34,10.34 0 0 0 4.81,4.43 18.71,18.71 0 0 0 8.3,2 h 3.51 c 1.1,-0.18 2.2,-0.56 4.24,-0.92 0.93,-0.75 2.21,-1.47 3.69,-2.59 l 2,-2 v 4.61 h 7.9 c -0.74,-3.32 -1.1,-3.7 -0.92,-6.08 0,-4.07 -0.36,-12.93 -0.19,-17.72 0,-4.81 -0.18,-3.49 -0.18,-5.53 a 21.13,21.13 0 0 0 -1.3,-5.92 C 536.85,50.09 535.93,49.17 535,47.5 a 14,14 0 0 0 -5.71,-3.69 22,22 0 0 0 -6.08,-0.92 c -2.22,0 -5.52,0.19 -7.89,0.36 a 61.46,61.46 0 0 0 -7.21,1.85 54.56,54.56 0 0 1 -0.11,5.68 z m 20.1,29.52 c -0.36,0.18 -1.47,1.09 -1.84,1.28 -1.47,0.38 -2.39,0.93 -3.31,1.11 a 21.77,21.77 0 0 1 -3.51,0.37 8,8 0 0 1 -4.42,-1.3 c -1.29,-0.72 -1.29,-0.37 -2.22,-1.67 -0.73,-1.08 -2,-3 -2,-4.41 a 5.88,5.88 0 0 1 0.17,-3.14 6.46,6.46 0 0 1 1.06,-2.21 16.32,16.32 0 0 1 2.58,-2.4 c 1.11,-0.57 2,-0.74 3.87,-1.47 a 15.8,15.8 0 0 1 4.25,-0.74 c 1.1,-0.18 3.31,-0.18 4,-0.54 a 6.31,6.31 0 0 0 2,-0.59 15.51,15.51 0 0 1 1.68,-0.73 18.52,18.52 0 0 0 1.84,-1.47 l -0.19,8.89 c 0,0 -0.06,3.72 -1.36,5.72 a 14.08,14.08 0 0 1 -2.6,3.3 z"
         id="path33" />
      <path
         d="m 658.69,50.23 c 1.84,-0.92 3.33,-1.46 4.61,-2 1.28,-0.37 3,-0.73 4.61,-1.08 a 25.71,25.71 0 0 1 4.94,-0.57 23.18,23.18 0 0 1 5.53,1.1 c 1.47,0.39 2.41,1.85 3.32,3 0.93,0.92 0.93,1.82 1.11,3.3 a 3.71,3.71 0 0 1 -0.19,1.48 c -0.19,0.57 -0.38,0.38 -0.75,0.93 a 5.22,5.22 0 0 1 -1.29,1.48 8,8 0 0 1 -1.58,1.06 c -0.56,0.35 -1.3,0.55 -2,0.92 -0.93,0.37 -1.84,0.18 -3,0.55 -3.88,0.56 -6.84,0.73 -8.31,1.29 -1.67,0.55 -2.77,0.93 -4.06,1.47 a 14.54,14.54 0 0 0 -3,2 7.87,7.87 0 0 0 -2,2.38 16.24,16.24 0 0 0 -1.3,3.14 13.19,13.19 0 0 0 -0.73,3.88 14,14 0 0 0 1.48,6.09 11.09,11.09 0 0 0 4.8,4.42 20.45,20.45 0 0 0 8.49,2 h 3.3 c 1.31,-0.2 2.4,-0.55 4.24,-0.93 0.93,-0.74 2.41,-1.48 3.69,-2.56 l 2.29,-2 v 4.61 h 7.9 c -0.73,-3.3 -1.09,-3.69 -1.09,-6.09 0.18,-4.06 -0.19,-12.9 -0.19,-17.69 a 46.54,46.54 0 0 0 0,-5.54 28,28 0 0 0 -1.3,-5.92 16,16 0 0 0 -2.56,-4.07 11.92,11.92 0 0 0 -5.73,-3.71 19.9,19.9 0 0 0 -5.92,-1.03 c -2.22,0 -5.72,0.36 -7.9,0.53 -2.39,0.37 -4.05,0.92 -7.2,1.66 -0.21,2.59 -0.02,4.6 -0.21,5.9 z m 20.11,29.51 c -0.55,0.2 -1.48,1.11 -2,1.3 -1.3,0.36 -2.21,0.93 -3.14,1.11 a 25.79,25.79 0 0 1 -3.5,0.36 8.46,8.46 0 0 1 -4.62,-1.3 c -1.11,-0.73 -1.11,-0.36 -2,-1.66 -0.93,-1.11 -2.21,-3 -2.21,-4.43 a 17.37,17.37 0 0 1 0.19,-3.14 6.85,6.85 0 0 1 1.28,-2.18 17.1,17.1 0 0 1 2.6,-2.43 33.1,33.1 0 0 1 3.85,-1.46 15,15 0 0 1 4.25,-0.73 c 0.93,-0.19 3.33,-0.19 4.07,-0.58 0.55,-0.18 1.29,-0.35 1.84,-0.54 a 13.21,13.21 0 0 1 1.83,-0.74 c 0.37,-0.38 0.74,-0.57 1.68,-1.46 v 8.88 a 15.42,15.42 0 0 1 -1.48,5.73 13.4,13.4 0 0 1 -2.64,3.27 z"
         id="path35" />
      <path
         d="m 546.55,86.76 0.92,-3.13 0.2,-8.69 L 547.11,50 c 0,-2.22 -1.3,-4.79 -1.3,-5.92 a 18,18 0 0 0 5.34,-1 9.79,9.79 0 0 1 3.14,-0.36 v 5.72 c 0.92,-1.66 2.39,-1.83 3.15,-2.77 0.55,-0.92 1.29,-0.92 2.57,-1.84 a 8.37,8.37 0 0 1 3.32,-1.11 42.71,42.71 0 0 1 4.79,-0.36 10.14,10.14 0 0 1 3.32,0.55 9.25,9.25 0 0 1 3.14,1.28 7.94,7.94 0 0 1 2.42,1.72 10.17,10.17 0 0 1 2.24,2.48 c 0.18,0.38 1.83,-2 4.23,-3.32 a 17.51,17.51 0 0 1 8.13,-2.4 c 1.83,0 6.07,0.2 7.9,0.92 1.83,0.72 4.43,1.68 5.54,3 1.11,1.32 1.46,1.84 2.38,3 1.31,1.29 1.69,4.61 1.69,5.92 0,1.47 0.18,3.69 0.18,6.47 v 20.4 c 0,2 0.55,2.23 0.93,4.45 h -8.49 c 1.09,-3.51 0.92,-2.41 0.92,-4.45 l 0.18,-18.61 c 0,-2.59 0,-4.06 -0.18,-6.09 a 14.27,14.27 0 0 0 -0.92,-4.61 16.92,16.92 0 0 0 -2.75,-3.5 7.52,7.52 0 0 0 -3,-1.31 c -0.93,-0.55 -2.77,-0.55 -4.05,-0.55 a 17.91,17.91 0 0 0 -3.34,0.39 14,14 0 0 0 -2.4,1.09 9.21,9.21 0 0 0 -2.19,1.59 18.82,18.82 0 0 0 -1.65,2.76 21.17,21.17 0 0 0 -0.56,4.26 c 0,1.84 0.18,4.24 0,6.8 v 18.09 l 1.3,4.07 h -8.89 c 0,-3.7 0.57,-0.38 0.57,-4.25 V 57.26 a 31.7,31.7 0 0 0 -0.57,-3.15 9.68,9.68 0 0 0 -1.64,-3.11 10.27,10.27 0 0 0 -3.51,-2.8 7.87,7.87 0 0 0 -3.68,-0.95 7.21,7.21 0 0 0 -3.5,0.75 c -1.12,0.55 -2.2,0.73 -3.13,1.83 -1,0.92 -1.67,1.12 -2.4,2.56 -0.57,1.48 -1.12,1.11 -1.29,3.53 -0.38,2.38 -0.57,11.06 -0.57,17 0.19,3.51 0.19,6.63 0.19,9.58 0,1.84 0.93,2.58 0.93,4.25 h -4.24 c -0.8,0.01 -3.15,0.01 -4.81,0.01 z"
         id="path37" />
      <path
         d="m 651.32,78.82 c 0,0.56 -0.2,1.48 -0.37,2.76 -0.17,1.28 -0.56,2.41 -0.75,3.71 a 33.68,33.68 0 0 1 -5.69,1.28 c -1.68,0.19 -6.46,0.36 -7.9,0.36 a 32,32 0 0 1 -8.48,-1.29 21,21 0 0 1 -7.47,-4.6 c -1.83,-1.85 -4.07,-3.88 -4.93,-6.82 a 29,29 0 0 1 -1.64,-8.89 c -0.2,-4.43 0.55,-5.92 1.64,-9.77 1.3,-3.88 4.44,-6.82 7.2,-9 3,-2.23 9.59,-4.06 14.58,-4.06 a 42.7,42.7 0 0 1 11.78,1.66 c 0.18,2.59 0.37,4 0.57,5.71 -2.59,-0.94 -5,-2 -6.47,-2.41 -1.65,-0.18 -3.69,-0.54 -4.94,-0.54 a 28.66,28.66 0 0 0 -9,2 12.45,12.45 0 0 0 -4.68,4.08 20.35,20.35 0 0 0 -2.58,6.46 12.48,12.48 0 0 0 -0.55,5.15 30.27,30.27 0 0 0 1.67,8.89 13.34,13.34 0 0 0 5.15,6.27 14.81,14.81 0 0 0 7.9,2.77 32.12,32.12 0 0 0 14.96,-3.72 z"
         id="path39" />
      <path
         d="m 696.13,85.09 -0.73,-3 c 0,-0.38 -0.74,-2.21 -1.1,-4.25 4.93,2.78 10.14,4.8 14,4.8 a 18.94,18.94 0 0 0 5.16,-1.05 7.84,7.84 0 0 0 3.33,-2.56 11.62,11.62 0 0 0 1.48,-3 4,4 0 0 0 0.17,-2 c -0.17,-0.57 -0.37,-2.22 -0.92,-2.78 -0.37,-0.56 -1.85,-1.83 -2.57,-2.58 A 30.27,30.27 0 0 0 709.41,66 c -2.58,-1.09 -6.09,-2.2 -7.36,-3.31 -1.32,-0.93 -3.52,-2.21 -4.44,-3.32 a 16.52,16.52 0 0 1 -2,-3.41 c -0.36,-1.11 0,-2.77 -0.19,-4.08 0,-1.84 1.1,-3.7 2.21,-5.34 1.09,-1.84 3,-2.77 5.16,-3.7 a 25.18,25.18 0 0 1 7.75,-1.28 c 3.3,0 6.45,0.76 10.52,1.48 0.18,2.22 -0.38,3.89 -0.2,5.73 a 17.23,17.23 0 0 0 -9.22,-3 20.16,20.16 0 0 0 -4.81,0.74 9.94,9.94 0 0 0 -3.69,2.76 5.1,5.1 0 0 0 -0.92,2.77 6.94,6.94 0 0 0 0.55,2.58 7.93,7.93 0 0 0 2.83,2.78 11.19,11.19 0 0 0 1.84,0.73 c 1.31,0.19 4.25,1.84 7.19,3.14 a 28.52,28.52 0 0 1 6.77,4.26 10.65,10.65 0 0 1 2.73,4.47 7.61,7.61 0 0 1 0.73,3.31 c 0,1.66 -0.37,1.84 -0.37,3 0.19,2 -0.36,2.78 -1.46,4.44 a 11.32,11.32 0 0 1 -5.54,4.42 20.84,20.84 0 0 1 -7.74,1.67 c -1.3,0 -4.07,0.17 -5.71,0 -1.64,-0.17 -3.15,-0.75 -4.44,-1 a 16.43,16.43 0 0 1 -3.47,-0.75 z"
         id="path41" />
      <path
         d="m 750,81.39 a 20.61,20.61 0 0 0 -0.93,4.61 11.39,11.39 0 0 1 -3.69,0.75 17.25,17.25 0 0 1 -3,-0.19 12.83,12.83 0 0 1 -5.71,-0.93 6.76,6.76 0 0 1 -3.32,-3.14 c -0.93,-1.46 -1.48,-5.16 -1.48,-7.73 v -1.69 c -0.11,-2.2 -0.11,-4.41 0,-6.61 l -0.18,-19.2 h -5.36 v -3.87 l 5.36,-0.19 c 0.18,-1.08 0,-4.79 0,-7.56 a 6,6 0 0 0 -1.3,-3.32 c 2.58,-0.56 6.28,-1.67 7.9,-2 0,4.24 0.37,10.51 0.37,12.9 l 11.07,0.18 a 15.85,15.85 0 0 0 0.2,4.24 l -3.14,-0.36 h -8.09 l -0.17,24.15 v 2 c 0.17,2.22 0.35,4.93 0.92,6.08 0.36,1.12 1.1,1.49 2,2 a 7.34,7.34 0 0 0 2.77,0.57 h 2.41 A 12.38,12.38 0 0 0 750,81.39 Z"
         id="path43" />
      <path
         d="m 469.61,58.15 h 23.05 a 7.93,7.93 0 0 0 -0.18,-2.38 11.53,11.53 0 0 0 -1.1,-3 8.25,8.25 0 0 0 -2.38,-2.55 9.63,9.63 0 0 0 -3.12,-2 16.3,16.3 0 0 0 -4.45,-0.55 10,10 0 0 0 -4.06,1 9,9 0 0 0 -3.5,2 9.11,9.11 0 0 0 -2.58,2.77 8.87,8.87 0 0 0 -1.48,3.3 l -0.18,0.37 c 0,0 0.19,-0.06 -0.02,1.04 z M 498.55,79 c -0.17,1.66 -0.74,3.68 -0.92,6.27 -2.57,0.72 -6.64,2.2 -8.48,2.57 -1.83,0.18 -3.69,0.18 -5.53,0.18 A 30.19,30.19 0 0 1 474.21,86.36 18.53,18.53 0 0 1 467,81.45 21.2,21.2 0 0 1 462.19,74.09 35.11,35.11 0 0 1 460.9,65.2 c -0.18,-4.44 0.56,-6.09 1.85,-10 A 20.74,20.74 0 0 1 470,46.56 c 3,-2.22 6.65,-3.14 11.43,-3.14 a 24.55,24.55 0 0 1 7.38,0.92 13.72,13.72 0 0 1 5.54,3.14 19.9,19.9 0 0 1 3.65,5.52 15.45,15.45 0 0 1 1.48,5.16 19.44,19.44 0 0 1 0.36,4.44 l -31.53,0.18 v 3.16 a 23.17,23.17 0 0 0 1.83,8.88 12.42,12.42 0 0 0 5.35,5.68 18.34,18.34 0 0 0 8.31,2.57 c 3.54,0 9.59,-1.44 14.75,-4 z"
         id="path45" />
      <path
         d="m 434.06,87.86 c 0,-1 0.75,-2 0.75,-2.77 0.2,-14 0,-24.68 -0.37,-33.57 L 434.26,47.64 433,44.51 c 1.29,-0.2 3.14,-0.36 4.06,-0.55 a 28.57,28.57 0 0 1 4.42,-0.56 v 8 a 8.41,8.41 0 0 1 1.83,-2.59 13.56,13.56 0 0 1 2.75,-2.81 12.79,12.79 0 0 1 3.14,-1.67 11.17,11.17 0 0 1 3.5,-0.91 35.61,35.61 0 0 1 4.62,0 23.45,23.45 0 0 1 4.61,1.1 c 0.18,1.1 -1.84,5.92 -1.84,5.92 a 13.76,13.76 0 0 1 -3.69,-0.91 16.35,16.35 0 0 0 -4.06,-0.38 13.24,13.24 0 0 0 -4.61,0.92 10.74,10.74 0 0 0 -3.31,2.39 11.88,11.88 0 0 0 -2,4.07 c -0.57,1.31 -0.38,0.19 -0.57,2.22 -0.18,2.21 0,22 0.19,26.57 l 0.73,2.38 h -4.42 c -0.79,-0.04 -2.83,0.16 -4.29,0.16 z"
         id="path47" />
      <path
         d="m 379.84,83.06 c 3.48,0.19 6.45,0.19 9.39,0.19 2.41,0 5.36,-0.19 7.9,-0.37 a 29.51,29.51 0 0 0 6.64,-2 15.76,15.76 0 0 0 5.93,-3.7 25.51,25.51 0 0 0 4.79,-6.28 26,26 0 0 0 2.39,-7.9 47.19,47.19 0 0 0 0.75,-8.88 31.2,31.2 0 0 0 -2,-8.68 c -0.92,-3 -2.57,-6.45 -4.94,-8.48 -2.57,-2 -4.42,-3.68 -7.18,-4.41 a 38.17,38.17 0 0 0 -10.7,-1.87 c -2.77,0 -6.29,0.2 -7.95,0.38 a 47.64,47.64 0 0 1 -5.72,0.38 z M 369,88 370.48,83.77 V 31.43 a 29.6,29.6 0 0 0 -1.67,-5.92 c 3.69,0.19 9.78,-0.19 12.35,-0.19 1.48,0 3.88,0.19 7.2,0.19 3.32,0 6.28,0 7.74,0.19 a 38.39,38.39 0 0 1 9.23,1.46 c 2.39,0.56 7,3.14 9.21,4.61 a 24.37,24.37 0 0 1 5.93,5.53 32.91,32.91 0 0 1 3.67,5.93 33.66,33.66 0 0 1 2.41,11.64 35.05,35.05 0 0 1 -1.67,14 c -1.65,4.81 -4.94,8.3 -8.11,11.45 A 22,22 0 0 1 406,86.57 61.36,61.36 0 0 1 392.18,88.41 h -12 z"
         id="path49" />
      <path
         d="m 306.43,67.69 c 0,-3.5 -1.66,-3.16 -2.8,-3.32 -1.14,-0.16 -4.12,0.43 -6.73,-0.18 -3.15,-0.61 -4.82,-4.94 -4.3,-7.09 1.58,-6 5.52,-6.83 8.23,-6.65 2.11,0.09 6,0.26 10.86,4.47 2.18,2 3.5,7 3.59,9.87 0.09,3.58 -0.09,7.62 -2.19,9.87 -3.42,3.69 -12.43,6.84 -17.51,6.67 -19.86,-2.11 -19.16,-20.83 -19.16,-20.83 0,0 -1.58,-8.06 5.16,-16.64 a 31.86,31.86 0 0 1 2.1,-3.06 13.2,13.2 0 0 1 2.1,-1.62 24.41,24.41 0 0 1 2.54,-1.57 33,33 0 0 1 6.82,-3.24 30.19,30.19 0 0 1 9.59,-1.25 c 8.22,0.26 17.16,4.73 21.62,11.65 0.7,1 1.22,1.66 1.83,2.53 a 28.48,28.48 0 0 1 2.19,4.64 39.21,39.21 0 0 1 1.84,6.3 45.85,45.85 0 0 1 1.32,7.35 c 0.08,1 0.16,2 0.26,3.16 0.09,3.58 0.53,4.46 -0.26,7.27 a 28.34,28.34 0 0 1 -6.66,11.84 c -4.37,4.3 -8.4,5.61 -10.77,6.84 a 37.76,37.76 0 0 1 -6.44,2.4 c -3.06,1.14 -4.73,1.32 -10.16,1.32 a 72.49,72.49 0 0 1 -11,-0.69 c -9.55,-2.63 -13,-4.39 -17.08,-7.71 -10.67,-8.4 -12.83,-24.85 -12.83,-24.85 A 57.11,57.11 0 0 1 259.31,48 c 1.05,-4.64 5.7,-13.13 8.41,-16.55 2.27,-2.87 7.52,-7.09 10.66,-9 a 52.88,52.88 0 0 1 12.84,-6.21 c 2.54,-0.85 4.47,-1.22 10.24,-1.49 6.65,-0.25 16.46,1.49 22.23,3.24 a 35.06,35.06 0 0 1 14.36,8.89 132.14,132.14 0 0 1 10.32,14.45 c 1.15,2 4.21,12.17 4.47,13.57 0.26,1.4 0.79,5.92 5.34,5.68 4.2,-0.35 3,-5.16 2.88,-6 -0.12,-0.84 -1.66,-8.88 -2.36,-11 a 64.41,64.41 0 0 0 -4.64,-9.1 94.24,94.24 0 0 0 -6.2,-9.28 c -2.19,-2.8 -4.3,-5.61 -6.66,-7 a 91.48,91.48 0 0 0 -10.15,-5.42 c 0,0 -9.72,-3.33 -14.81,-3.95 -4.38,-0.52 -9.1,-1.48 -16.89,-1 a 42.85,42.85 0 0 0 -15.05,3.79 c -2.81,1.23 -9.28,4 -14.1,8 -4.82,4 -3.33,2 -5.92,4.94 a 62.1,62.1 0 0 0 -5.08,6.13 66.23,66.23 0 0 0 -6.91,14.88 76.19,76.19 0 0 0 -2,8 26.88,26.88 0 0 0 -0.17,7 c 0.43,4.29 0.25,4.37 0.25,4.37 0,0 2,8.32 3.08,11.65 1.08,3.33 2.62,8 9.35,15.58 a 37.37,37.37 0 0 0 15.41,10.41 64.17,64.17 0 0 0 20.84,3.86 c 12.16,0.26 15.31,-2.45 17.5,-3.33 a 53.17,53.17 0 0 0 15.67,-9.72 31.27,31.27 0 0 0 8,-12.14 c 1.66,-4.73 2.19,-12.26 0.7,-19.61 -1.06,-4.94 -1.84,-9.29 -2.8,-12.35 a 39.7,39.7 0 0 0 -5.43,-10.58 c -1.4,-2.2 -5.78,-5.52 -8.5,-7.18 A 27.92,27.92 0 0 0 320,29 a 38.55,38.55 0 0 0 -6.74,-2 55.36,55.36 0 0 0 -8.67,-1.41 c -2.45,-0.16 -4.54,-0.08 -5.43,-0.08 -1.23,0 -5.42,0.71 -11,3.68 a 39.16,39.16 0 0 0 -10.24,7.34 41.76,41.76 0 0 0 -3.07,3.95 31.51,31.51 0 0 0 -5.25,24.08 c 0,0 1.4,17.18 16.48,22.09 A 33.51,33.51 0 0 0 300,88 c 6.56,-0.88 11.37,-3.59 14.61,-5.25 a 15.61,15.61 0 0 0 7.1,-7.62 18,18 0 0 0 1.48,-8.23 42.08,42.08 0 0 0 -0.44,-5.25 c -0.86,-4.94 -2.62,-9.8 -6.91,-13.48 l -1.25,-0.83 c -0.79,-0.53 -1.48,-0.88 -2.1,-1.23 -3.67,-1.92 -7.27,-2.63 -12.26,-2.88 a 16.9,16.9 0 0 0 -6,1.22 15.15,15.15 0 0 0 -8.88,15.05 c 0.25,6.48 6.29,9.87 7.34,10.86 0,0.05 13.39,3.45 13.74,-2.67 z"
         fill="#3e649f"
         id="path51" />
    </g>
  </g>
  <metadata
     id="metadata876">
    <rdf:RDF>
      <cc:Work
         rdf:about="">
        <dc:title>logo</dc:title>
      </cc:Work>
    </rdf:RDF>
  </metadata>
</svg>
