<?xml version="1.0" encoding="UTF-8" standalone="no"?>
<svg
   id="Calque_1"
   data-name="Calque 1"
   viewBox="0 0 514.01062 94.400002"
   version="1.1"
   sodipodi:docname="megadrive.svg"
   width="514.01062"
   height="94.400002"
   inkscape:version="1.1 (c68e22c387, 2021-05-23)"
   xmlns:inkscape="http://www.inkscape.org/namespaces/inkscape"
   xmlns:sodipodi="http://sodipodi.sourceforge.net/DTD/sodipodi-0.dtd"
   xmlns="http://www.w3.org/2000/svg"
   xmlns:svg="http://www.w3.org/2000/svg"
   xmlns:rdf="http://www.w3.org/1999/02/22-rdf-syntax-ns#"
   xmlns:cc="http://creativecommons.org/ns#"
   xmlns:dc="http://purl.org/dc/elements/1.1/">
  <sodipodi:namedview
     id="namedview89"
     pagecolor="#ffffff"
     bordercolor="#666666"
     borderopacity="1.0"
     inkscape:pageshadow="2"
     inkscape:pageopacity="0.0"
     inkscape:pagecheckerboard="0"
     showgrid="false"
     fit-margin-top="0"
     fit-margin-left="0"
     fit-margin-right="0"
     fit-margin-bottom="0"
     inkscape:zoom="1.113"
     inkscape:cx="257.4124"
     inkscape:cy="46.720575"
     inkscape:window-width="1920"
     inkscape:window-height="1138"
     inkscape:window-x="-8"
     inkscape:window-y="-8"
     inkscape:window-maximized="1"
     inkscape:current-layer="Calque_1" />
  <defs
     id="defs36">
    <linearGradient
       id="linear-gradient"
       x1="500"
       y1="41.23"
       x2="500"
       y2="99.190002"
       gradientTransform="matrix(1,0,0,-1,-242.99917,106.31)"
       gradientUnits="userSpaceOnUse">
      <stop
         offset="0"
         stop-color="#fff"
         id="stop2" />
      <stop
         offset="0.1"
         stop-color="#fcfcfe"
         id="stop4" />
      <stop
         offset="0.18"
         stop-color="#f2f4fa"
         id="stop6" />
      <stop
         offset="0.26"
         stop-color="#e1e7f4"
         id="stop8" />
      <stop
         offset="0.33"
         stop-color="#c9d4eb"
         id="stop10" />
      <stop
         offset="0.4"
         stop-color="#aabbdf"
         id="stop12" />
      <stop
         offset="0.46"
         stop-color="#879fd2"
         id="stop14" />
      <stop
         offset="0.47"
         stop-color="#91a7d6"
         id="stop16" />
      <stop
         offset="0.54"
         stop-color="#b2c2e2"
         id="stop18" />
      <stop
         offset="0.61"
         stop-color="#ced8ed"
         id="stop20" />
      <stop
         offset="0.68"
         stop-color="#e4e9f5"
         id="stop22" />
      <stop
         offset="0.77"
         stop-color="#f3f6fb"
         id="stop24" />
      <stop
         offset="0.86"
         stop-color="#fcfdfe"
         id="stop26" />
      <stop
         offset="1"
         stop-color="#fff"
         id="stop28" />
    </linearGradient>
    <linearGradient
       id="linear-gradient-2"
       x1="500.01999"
       y1="18.889999"
       x2="500.01999"
       y2="41.23"
       gradientTransform="matrix(1,0,0,-1,-242.99917,106.31)"
       gradientUnits="userSpaceOnUse">
      <stop
         offset="0"
         stop-color="#fff"
         id="stop31" />
      <stop
         offset="1"
         stop-color="#3a79bd"
         id="stop33" />
    </linearGradient>
  </defs>
  <title
     id="title38">logo</title>
  <path
     d="m 257.34083,7.05 q 6.39,0 12.79,0.46 c 16.87,1.14 32.93,5.34 47.39,14.51 9.66,6.14 20.48,9.2 31.42,11.58 a 204.19,204.19 0 0 0 39.74,4.41 q 9.08,0.16 18.15,0.15 c 8.82,0 17.64,-0.08 26.46,-0.15 h 2.88 c 14.41,0 28.71,1 42.77,4.43 7.85,1.94 15.43,4.67 22.07,9.49 3.07,2.25 5.48,4.9 5.91,8.63 a 10.5,10.5 0 0 1 0.08,1.66 c 0,0.3 0,0.6 -0.07,0.9 a 10.75,10.75 0 0 1 -0.43,1.93 v 0 a 16,16 0 0 1 -1.5,3.17 v 0 a 13.93,13.93 0 0 1 -1.09,1.55 c -3.21,4.24 -7.77,6.68 -12.45,8.9 -8.46,4.01 -17.38,5.55 -26.46,6.85 -10.71,1.58 -21.47,1.77 -32.24,1.77 h -10.6 -3.49 q -31.73,0.14 -63.45,0.11 h -238.06 c -16.41,0 -32.809999,0 -49.199999,-0.38 -13.77,-0.3 -27.44,-1.74 -40.55,-6.36 -5,-1.75 -9.85,-3.92 -13.9,-7.45 a 25.47,25.47 0 0 1 -4.2300004,-4.69 13.62,13.62 0 0 1 -1.72,-3.43 v 0 a 10,10 0 0 1 -0.46,-1.93 9.66,9.66 0 0 1 0.27,-4 12.13,12.13 0 0 1 4.0000004,-5.93 46.89,46.89 0 0 1 14.88,-8.12 114.34,114.34 0 0 1 35.5,-6.59 c 5.69,-0.18 11.38,-0.24 17.06,-0.24 8.52,0 17,0.13 25.569999,0.19 h 4.33 c 17.49,0 34.91,-0.94 52.15,-4 13.25,-2.38 25.89,-6.15 37.59,-13.49 11.7,-7.34 24.75,-11.14 38.4,-12.76 a 180.06,180.06 0 0 1 20.49,-1.18 m 0,-7 a 184.68,184.68 0 0 0 -21.29,1.23 c -16.11,1.9 -29.63,6.39 -41.34,13.73 -9.5,6 -20.65,9.94 -35.11,12.53 -15,2.68 -31.13,3.92 -50.91,3.92 h -4.27 c -3.22,0 -6.419999,-0.06 -9.619999,-0.09 -5.24,0 -10.66,-0.1 -16,-0.1 -6.56,0 -12,0.08 -17.26,0.24 a 121.5,121.5 0 0 0 -37.65,7 c -7.23,2.62 -12.64,5.61 -17.0800004,9.4 a 19,19 0 0 0 -6.17999995,9.32 16.42,16.42 0 0 0 -0.46,6.87 17.8,17.8 0 0 0 0.75,3.19 c 0,0.07 0.05,0.15 0.08,0.22 a 20.64,20.64 0 0 0 2.54,5 32.64,32.64 0 0 0 5.39,6 c 5.2400004,4.57 11.3900004,7.09 16.1500004,8.76 12,4.23 25.58,6.38 42.72,6.76 16.47,0.38 33.189999,0.38 49.359999,0.38 h 238.1 c 20.35,0 42.12,0 63.48,-0.11 h 14.06 c 10,0 21.69,-0.14 33.26,-1.85 9.74,-1.43 19.24,-3.08 28.34,-7.4 5,-2.39 10.75,-5.4 15,-10.91 a 22.22,22.22 0 0 0 1.51,-2.15 0.53,0.53 0 0 0 0.06,-0.1 22.47,22.47 0 0 0 2,-4.12 5.37,5.37 0 0 0 0.21,-0.56 18.72,18.72 0 0 0 0.69,-3.14 c 0.07,-0.52 0.11,-1 0.13,-1.58 a 18.23,18.23 0 0 0 -0.12,-2.77 c -0.89,-7.71 -6.79,-12 -8.74,-13.44 -6.5,-4.73 -14.29,-8.1 -24.51,-10.63 -12.81,-3.17 -26.93,-4.64 -44.45,-4.64 h -2.94 -4.48 c -7.19,0.05 -14.62,0.11 -21.92,0.11 -6.65,0 -12.55,0 -18,-0.15 a 197.24,197.24 0 0 1 -38.41,-4.26 c -9.19,-2 -19.85,-4.75 -29.11,-10.64 -14.45,-9.16 -31,-14.25 -50.68,-15.58 -4.37,-0.32 -8.85,-0.48 -13.26,-0.48 z"
     fill="#ffffff"
     id="path40" />
  <path
     d="m 266.05083,35.73 a 13.06,13.06 0 0 1 -2.41,-0.19 5.3,5.3 0 0 1 -3.88,-4.43 58.14,58.14 0 0 1 0,-7.23 4.63,4.63 0 0 1 4.65,-4.6 h 7.59 a 2.81,2.81 0 0 1 2.81,2.81 v 2.06 a 2.8,2.8 0 0 1 -2.81,2.82 h -0.42 a 2.8,2.8 0 0 1 0.13,0.86 v 5 a 2.81,2.81 0 0 1 -2.81,2.81 h -1.32 a 11.6,11.6 0 0 1 -1.53,0.09 z"
     id="path42" />
  <path
     d="m 264.52083,22.13 h 7.41 v 2.09 h -7.1 v 6.3 h 1 a 2.38,2.38 0 0 1 0.46,0 c 0,-1.12 0.05,-1.61 0.05,-2.69 h 2.47 v 5 c -0.94,0 -1.88,0.06 -2.78,0.06 a 11.63,11.63 0 0 1 -1.95,-0.14 2.57,2.57 0 0 1 -1.6,-1.86 56.73,56.73 0 0 1 0,-6.9 1.81,1.81 0 0 1 1.73,-1.9 h 0.28 m 0,-5.62 v 0 a 7.43,7.43 0 0 0 -7.64,7.2 v 0.09 a 63.73,63.73 0 0 0 0,7.57 8.07,8.07 0 0 0 6.15,6.95 h 0.08 a 15.33,15.33 0 0 0 2.95,0.25 h 2.78 a 5.63,5.63 0 0 0 5.62,-5.63 v -3.68 a 5.63,5.63 0 0 0 3.1,-5 v -2.09 a 5.62,5.62 0 0 0 -5.62,-5.62 h -7.38 z"
     fill="#ffffff"
     id="path44" />
  <path
     d="m 274.84083,38.64 a 2.81,2.81 0 0 1 -2.81,-2.8 3,3 0 0 1 0.16,-0.94 c 1.7,-4.94 3.35,-9.7 5,-14.46 a 2.81,2.81 0 0 1 2.56,-1.89 h 1 a 2.81,2.81 0 0 1 2.66,1.89 l 4,11.73 a 2.81,2.81 0 0 1 -1.74,3.58 2.91,2.91 0 0 1 -0.92,0.15 h -4.34 l -0.37,0.91 a 2.83,2.83 0 0 1 -2.63,1.84 z"
     id="path46" />
  <path
     d="m 280.68083,21.32 4,11.73 h -5.16 l -0.52,-1.65 c -0.64,1.7 -1.14,3 -1.66,4.43 h -2.53 l 5,-14.46 h 0.87 m -1.31,9.13 h 1.9 c -0.33,-0.8 -1.14,-2.41 -1.14,-2.41 0,0 -0.51,1.61 -0.8,2.41 m 1.31,-14.76 h -1.08 a 5.62,5.62 0 0 0 -5.13,3.79 c -1.61,4.77 -3.28,9.53 -5,14.46 a 5.62,5.62 0 0 0 5.37,7.46 h 2.58 a 5.61,5.61 0 0 0 4.82,-2.78 h 2.47 a 5.61,5.61 0 0 0 5.33,-7.45 l -1.6,-4.61 -2.4,-7.15 a 5.63,5.63 0 0 0 -5.32,-3.79 z"
     fill="#ffffff"
     id="path48" />
  <path
     d="m 267.61083,38.75 c -1.8,0 -3.28,0 -4.66,-0.07 a 6.63,6.63 0 0 1 -6.25,-6.6 c -0.08,-3.07 -0.08,-6.12 0,-9.07 a 6.68,6.68 0 0 1 6.54,-6.72 c 1,-0.06 2.13,-0.08 3.48,-0.08 h 5.17 a 2.82,2.82 0 0 1 2.81,2.71 6.28,6.28 0 0 1 5.4,-3 h 0.12 c 3.06,0 5.41,1.85 6.43,5.07 0.84,2.63 1.7,5.26 2.59,7.87 l 1.5,4.52 a 10,10 0 0 1 0.32,1.42 2.51,2.51 0 0 0 0.1,0.49 2.82,2.82 0 0 1 -2.16,3.33 2.69,2.69 0 0 1 -0.57,0.06 h -8.92 a 2.82,2.82 0 0 1 -2.73,-2.11 l -0.12,0.34 a 2.81,2.81 0 0 1 -2.66,1.84 h -6.38 z m 12.6,-12.26 c -0.55,1.55 -1.07,3.1 -1.61,4.61 v 0.12 a 2.71,2.71 0 0 1 0.8,-0.11 h 2.41 z m -15.7,4.37 h 2.34 v -1.07 h -1.42 a 2.66,2.66 0 0 1 -0.92,-0.16 c 0,0.41 0,0.81 0,1.23 z"
     id="path50" />
  <path
     d="m 280.22083,18.71 c 2,0 3.17,1.23 3.79,3.12 1.32,4.15 2.73,8.27 4.09,12.41 a 14.65,14.65 0 0 1 0.33,1.6 h -8.95 c 0,-0.58 -0.05,-1.07 -0.09,-1.89 h 6.38 c -1.51,-4.36 -2.85,-8.38 -4.28,-12.29 a 1.38,1.38 0 0 0 -1.25,-0.76 h -0.14 c -0.67,0.07 -1.18,0.8 -1.38,1.42 -1.35,3.72 -2.58,7.48 -3.87,11.24 -0.25,0.75 -0.55,1.49 -0.86,2.36 h -6.35 c -1.52,0 -3.05,0 -4.57,-0.07 a 3.83,3.83 0 0 1 -3.54,-3.85 c -0.07,-3 -0.07,-6 0,-8.93 a 3.92,3.92 0 0 1 3.82,-4 h 0.07 c 1.1,-0.06 2.21,-0.08 3.33,-0.08 h 5.16 v 2.18 h -7.23 c -2.3,0 -2.95,0.67 -3,2.92 -0.05,2.25 0,4.64 0,6.95 0,1.7 0.73,2.57 2.41,2.57 h 5.52 c 0,-2.25 0.06,-6.7 0.06,-6.7 h -4.26 l 0.05,-1.88 h 6.43 v 8.39 a 3.25,3.25 0 0 1 0.42,0.11 9.72,9.72 0 0 0 0.6,-1.21 c 1.19,-3.51 2.41,-7 3.5,-10.52 0.59,-1.85 1.76,-3 3.67,-3.09 h 0.06 m 0,-5.62 h -0.14 a 9.23,9.23 0 0 0 -4.82,1.43 5.64,5.64 0 0 0 -3.31,-1.08 h -5.17 c -1.4,0 -2.55,0 -3.65,0.09 a 9.51,9.51 0 0 0 -9.05,9.43 c -0.08,3 -0.08,6.07 0,9.18 a 9.44,9.44 0 0 0 9,9.35 c 1.41,0 2.92,0.07 4.75,0.07 h 6.37 a 5.63,5.63 0 0 1 5.48,-0.07 h 9 a 5.62,5.62 0 0 0 5.63,-5.62 5.45,5.45 0 0 0 -0.12,-1.14 2.61,2.61 0 0 0 -0.08,-0.42 11.84,11.84 0 0 0 -0.43,-1.78 c -0.5,-1.55 -1,-3.07 -1.51,-4.6 -0.86,-2.55 -1.73,-5.19 -2.57,-7.78 -1.43,-4.41 -4.82,-7 -9.13,-7 z"
     fill="#ffffff"
     id="path52" />
  <path
     d="m 248.80083,29.67 a 2.81,2.81 0 0 1 -2.8,-2.81 v 0 -2.76 a 4.57,4.57 0 0 1 4.31,-4.66 c 1,-0.1 2.15,-0.14 3.54,-0.14 h 4.15 a 2.79,2.79 0 0 1 2.81,2.79 v 2.19 a 2.81,2.81 0 0 1 -1.54,2.51 2.81,2.81 0 0 1 -2.74,2.88 z"
     id="path54" />
  <path
     d="m 253.90083,22.11 c 1.35,0 2.72,0 4.14,0 v 2.13 h -6.57 v 0.61 h 4.9 c 0,0.75 0.06,1.27 0.1,2 h -7.69 c 0,-1.11 0.05,-2.07 0.05,-2.76 a 1.8,1.8 0 0 1 1.74,-1.87 v 0 c 1.09,-0.1 2.18,-0.13 3.3,-0.13 m 0,-5.63 c -1.48,0 -2.69,0.06 -3.82,0.16 a 7.38,7.38 0 0 0 -6.85,7.46 v 2.76 a 5.63,5.63 0 0 0 5.62,5.63 h 7.7 a 5.64,5.64 0 0 0 5.48,-4.12 5.63,5.63 0 0 0 1.74,-4.07 v -2.13 a 5.62,5.62 0 0 0 -5.62,-5.62 h -4.14 z"
     fill="#ffffff"
     id="path56" />
  <path
     d="m 254.00083,35.67 c -1.61,0 -2.81,-0.05 -4,-0.14 a 4.66,4.66 0 0 1 -4,-4.78 v -2.53 a 2.81,2.81 0 0 1 2.81,-2.81 h 7.63 a 2.81,2.81 0 0 1 2.81,2.65 v 0 a 2.8,2.8 0 0 1 1.69,2.58 v 2.15 a 2.81,2.81 0 0 1 -2.81,2.81 h -2.05 z"
     id="path58" />
  <path
     d="m 256.41083,28.22 c 0,0.5 0.07,1 0.11,1.74 h -5.1 v 0.69 h 6.71 v 2.14 h -4.13 a 34.73,34.73 0 0 1 -3.74,-0.13 1.9,1.9 0 0 1 -1.4,-2 c 0,-0.74 0,-1.55 0,-2.52 h 7.62 m 0,-5.62 h -7.62 a 5.63,5.63 0 0 0 -5.67,5.7 v 2.54 a 7.41,7.41 0 0 0 6.57,7.57 c 1.24,0.11 2.53,0.16 4.19,0.16 h 4.14 a 5.63,5.63 0 0 0 5.62,-5.63 v -2.2 a 5.61,5.61 0 0 0 -2,-4.3 5.63,5.63 0 0 0 -5.31,-3.76 z"
     fill="#ffffff"
     id="path60" />
  <path
     d="m 236.48083,38.77 h -5 a 2.8,2.8 0 0 1 -2.81,-2.66 l -0.13,-2.24 a 2.81,2.81 0 0 1 2.67,-3 h 7.51 c 0.64,0 0.62,-0.34 0.62,-0.5 a 0.6,0.6 0 0 0 0,-0.19 1.32,1.32 0 0 0 -0.65,-0.14 h -2 a 6.26,6.26 0 0 1 -2.84,-0.94 c -1.74,-1.16 -2.37,-2.54 -2.24,-4.93 a 5,5 0 0 1 4.65,-4.74 42.68,42.68 0 0 1 4.52,-0.17 c 1.85,0 3.43,0.05 3.49,0.05 a 2.82,2.82 0 0 1 2.73,2.7 c 0,0 0.05,1.14 0.09,2 a 2.8,2.8 0 0 1 -0.8,2.07 l -0.27,0.26 a 8.25,8.25 0 0 1 -2.95,11.27 8.45,8.45 0 0 1 -3.39,1.09 c -0.99,0.04 -1.97,0.07 -3.2,0.07 z"
     id="path62" />
  <path
     d="m 240.76083,22.1 c 1.83,0 3.4,0.05 3.4,0.05 0,0 0.06,1.14 0.1,2 h -7.49 a 5,5 0 0 1 0,0.8 3.18,3.18 0 0 0 0.61,0 h 1.62 c 3.21,0.37 5.38,2.59 5.36,5.54 a 5.26,5.26 0 0 1 -4.82,5.34 c -1,0.06 -2,0.07 -3,0.07 -1.61,0 -3.29,-0.05 -5,-0.05 0,-0.73 -0.08,-1.34 -0.13,-2.24 h 7.45 a 3.26,3.26 0 0 0 3.33,-3.19 1.62,1.62 0 0 0 0,-0.22 c -0.05,-1.82 -1.39,-3 -3.41,-3 h -1.79 a 3.5,3.5 0 0 1 -1.42,-0.39 c -0.73,-0.48 -1.09,-0.8 -1,-2.41 a 2.19,2.19 0 0 1 2.09,-2.09 c 1.4,-0.12 2.8,-0.18 4.2,-0.16 m 0,-5.62 v 0 a 45.59,45.59 0 0 0 -4.82,0.19 7.79,7.79 0 0 0 -7.07,7.39 8.92,8.92 0 0 0 0.7,4.27 5.63,5.63 0 0 0 -3.85,5.63 l 0.07,1.15 c 0,0.36 0,0.7 0.06,1.08 a 5.63,5.63 0 0 0 5.62,5.33 h 5 c 1.29,0 2.35,0 3.36,-0.08 a 10.9,10.9 0 0 0 10.09,-10.91 11.09,11.09 0 0 0 -0.67,-3.91 5.56,5.56 0 0 0 0.59,-2.78 c 0,-0.86 -0.1,-2 -0.1,-2 a 5.62,5.62 0 0 0 -5.42,-5.34 c -0.07,0 -1.69,0 -3.6,0 z"
     fill="#ffffff"
     id="path64" />
  <path
     d="m 252.67083,38.69 c -1.36,0 -2.48,0 -3.53,-0.1 a 6.48,6.48 0 0 1 -6.14,-6.37 81.59,81.59 0 0 1 0.06,-9.64 6.53,6.53 0 0 1 6.38,-6.29 c 1,-0.06 2.11,-0.09 3.43,-0.09 h 5.15 a 2.81,2.81 0 0 1 2.82,2.81 v 2.21 a 2.81,2.81 0 0 1 -2.82,2.81 h -7.31 v 6.76 h 7.33 a 2.81,2.81 0 0 1 2.81,2.81 v 2.2 a 2.81,2.81 0 0 1 -2.81,2.81 h -5.42 z"
     id="path66" />
  <path
     d="m 252.90083,19.02 c 1.69,0 3.39,0.05 5.15,0.05 v 2.15 h -6.95 c -2.45,0 -3.15,0.71 -3.22,3.21 v 6.54 a 2.36,2.36 0 0 0 2.65,2.65 h 7.47 v 2.19 c -1.84,0 -3.64,0 -5.41,0 -1.14,0 -2.25,0 -3.37,-0.09 a 3.68,3.68 0 0 1 -3.48,-3.71 82.47,82.47 0 0 1 0.16,-9.3 3.71,3.71 0 0 1 3.71,-3.64 q 1.62,-0.09 3.27,-0.09 m 0,-5.62 c -1.38,0 -2.53,0 -3.61,0.1 a 9.34,9.34 0 0 0 -9,8.91 84.17,84.17 0 0 0 -0.06,9.92 9.32,9.32 0 0 0 8.72,9 c 1.11,0.08 2.3,0.11 3.72,0.11 h 5.41 a 5.63,5.63 0 0 0 5.63,-5.63 V 33.6 a 5.63,5.63 0 0 0 -5.63,-5.62 h -4.54 v -1.16 h 4.51 a 5.62,5.62 0 0 0 5.65,-5.6 v -2.19 a 5.61,5.61 0 0 0 -5.62,-5.62 h -5.15 z"
     fill="#ffffff"
     id="path68" />
  <path
     d="m 236.08083,35.72 h -4.54 a 2.81,2.81 0 0 1 -2.8,-2.52 c -0.07,-0.67 -0.12,-1.23 -0.19,-2.06 a 2.77,2.77 0 0 1 0.74,-2.14 2.55,2.55 0 0 1 0.38,-0.35 7.89,7.89 0 0 1 -1.13,-3.9 8.3,8.3 0 0 1 8.14,-8.46 v 0 c 0.9,-0.05 1.85,-0.07 3,-0.07 h 4.52 a 2.81,2.81 0 0 1 2.8,2.81 v 2.19 a 2.81,2.81 0 0 1 -2.81,2.81 h -3.85 a 22.58,22.58 0 0 0 -2.33,0.12 3.3,3.3 0 0 0 -1.41,0.35 1.62,1.62 0 0 0 0,0.44 1,1 0 0 0 0.29,0.08 6.17,6.17 0 0 0 0.86,0 11.27,11.27 0 0 1 2,0.15 5.2,5.2 0 0 1 4.48,5.4 5.15,5.15 0 0 1 -5.13,5.13 z"
     id="path70" />
  <path
     d="m 239.68083,19.01 c 1.48,0 3,0 4.52,0 v 2.21 c -1.3,0 -2.58,-0.07 -3.86,-0.07 a 26.12,26.12 0 0 0 -2.65,0.13 4.74,4.74 0 0 0 -3.41,1.52 3.91,3.91 0 0 0 -0.37,3 2.93,2.93 0 0 0 2.51,1.9 c 0.86,0.13 1.88,0 2.78,0.16 a 2.42,2.42 0 0 1 2.21,2.54 2.33,2.33 0 0 1 -2.25,2.41 h -7.66 c -0.07,-0.66 -0.12,-1.19 -0.19,-2 h 7.59 a 6.19,6.19 0 0 1 0,-0.86 c -0.71,0 -1.21,0 -1.84,0 -3.29,-0.14 -5.73,-2.36 -5.79,-5.31 a 5.47,5.47 0 0 1 5.3,-5.62 h 0.18 c 1,-0.05 1.91,-0.06 2.88,-0.06 m 0,-5.63 c -1.22,0 -2.22,0 -3.17,0.08 a 11.08,11.08 0 0 0 -10.8,11.33 v 0 a 10.62,10.62 0 0 0 0.65,3.48 5.53,5.53 0 0 0 -0.63,3.09 c 0.06,0.86 0.12,1.42 0.19,2.12 a 5.62,5.62 0 0 0 5.63,5 h 4.56 c 1.2,0 2.19,0 3.11,-0.05 a 7.93,7.93 0 0 0 7.84,-7.8 8.11,8.11 0 0 0 -0.94,-4.15 5.62,5.62 0 0 0 3.78,-5.21 v -2.17 a 5.63,5.63 0 0 0 -5.62,-5.63 h -4.52 z"
     fill="#ffffff"
     id="path72" />
  <path
     d="M 173.48083,81.61 H 89.940831 c -9.53,0 -17.37,-0.15 -24.71,-0.46 a 83.92,83.92 0 0 1 -24.1,-4.41 27.3,27.3 0 0 1 -11.59,-7.79 11.61,11.61 0 0 1 -1.8,-2.69 8,8 0 0 1 -0.81,-3 8.94,8.94 0 0 1 2.65,-6.55 c 3.3,-3.67 7.61,-5.57 11.77,-7.07 10.44,-3.75 21.26,-4.57 30.46,-4.88 2.32,-0.08 4.82,-0.12 7.92,-0.12 H 423.73083 c 10,0 17.73,0.14 24.9,0.44 10.07,0.45 18.59,2.21 26.07,5.4 a 34.46,34.46 0 0 1 8.84,5.55 c 3.12,2.66 3.57,5.43 3.4,7.23 a 8,8 0 0 1 -0.8,2.87 12.43,12.43 0 0 1 -2.14,3.09 c -3.6,4 -8.26,6.65 -15.1,8.59 -11.17,3.21 -22.43,3.62 -32,3.62 -34.54,0.06 -68.43,0.07 -103,0.07 z m 171.1,-9.51 c 1.08,0.06 2.28,0.1 3.71,0.1 l -1.79,-1.48 a 2.78,2.78 0 0 1 -1,-2.41 2.85,2.85 0 0 1 1.38,-2.21 6.44,6.44 0 0 0 2.58,-2.41 4,4 0 0 0 0.45,-1.16 5.31,5.31 0 0 0 0.1,-0.68 h -4.18 a 5.1,5.1 0 0 1 -1.08,3.18 5.51,5.51 0 0 1 -4.36,1.51 h -12.1 v 0.8 h 3 a 29.43,29.43 0 0 0 3.27,-0.11 c 0.4,0 0.8,-0.06 1.21,-0.06 a 9.75,9.75 0 0 1 8.1,4 4.32,4.32 0 0 0 0.8,0.91 z m -181.25,-3.79 c 0,2.6 1.25,3.83 3.87,3.85 h 3.62 c -2.52,-0.6 -3.44,-2.33 -3.45,-5.88 v -4.56 h -4 z m 28,-4.25 a 5.33,5.33 0 0 1 2.47,3 4.11,4.11 0 0 1 -0.61,3.45 4.47,4.47 0 0 1 -2.41,1.61 h 3.76 a 4,4 0 0 0 3.84,-3.77 4.56,4.56 0 0 0 -0.43,-2.12 4.42,4.42 0 0 0 -0.8,-1.2 2.57,2.57 0 0 0 -1.61,-0.88 c -1.32,-0.02 -2.69,-0.07 -4.24,-0.09 z m 229.94,-0.93 v 4.52 c 0,1.74 0.3,2.93 0.92,3.57 0.62,0.64 1.76,1 3.45,1 h 3.26 a 4.56,4.56 0 0 1 -2.34,-1.46 6.13,6.13 0 0 1 -0.94,-5.09 2.82,2.82 0 0 1 2.38,-2.35 4.47,4.47 0 0 1 -1.87,-1.55 h -4.82 c 0,0.44 0,0.9 0,1.36 z m -297.27,2.48 v 2.12 c 0,1.69 0.3,2.87 0.92,3.49 0.62,0.62 1.84,0.94 3.55,0.94 h 3.21 a 4.62,4.62 0 0 1 -2.26,-1.38 c -1.33,-1.51 -1.26,-3.5 -1.06,-5 a 2.81,2.81 0 0 1 2.53,-2.41 5,5 0 0 1 -1.83,-1.4 h -5 z m 176.26,-2.46 v 3.83 c 0,2.83 -1.06,4.51 -3.21,5.16 1.6,0 3.11,0 4.54,-0.09 1.84,0 2.69,-1.75 2.71,-3.42 l 0.08,-5.51 v -1.21 h -4.1 z m 97.28,8.92 5.71,-8.55 1.12,-1.67 h -4.1 l -3.13,4.81 -1.74,2.65 a 2.8,2.8 0 0 1 -2.3,1.24 v 0 a 2.79,2.79 0 0 1 -2.34,-1.26 l -3,-4.57 -1.85,-2.81 h -4.09 l 1.09,1.61 5.73,8.55 z m -306.149999,0 V 61.91 h -3.74 v 10.15 z m 273.789999,0 V 61.89 h -3.8 v 10.16 z m -152.58,0 V 61.89 h -3.9 v 10.15 z m -142.469999,0 V 61.84 h -3.79 v 10.2 z m 42.679999,0 V 61.91 h -4 v 10.11 z m 207.44,0 V 61.86 h -3.95 v 10.15 z m -46.59,0 V 61.88 h -3.88 v 10.13 z m -32.21,0 V 61.88 h -4 v 1.92 a 2.81,2.81 0 0 1 -2.82,2.81 h -14.31 v 0.8 h 14.36 a 2.81,2.81 0 0 1 2.81,2.68 c 0,0 0.07,1.61 0.08,1.91 z M 38.000831,62.74 v 0.21 a 3.14,3.14 0 0 0 0.26,1 3.7,3.7 0 0 0 3.27,2.27 3.64,3.64 0 0 0 3.21,-2.21 3,3 0 0 0 0.27,-1 v -0.19 a 3.29,3.29 0 0 0 -1,-2.34 3.62,3.62 0 0 0 -2.56,-1.06 v 0 a 3.58,3.58 0 0 0 -3.45,3.29 z M 472.13083,59.36 a 3.66,3.66 0 0 0 -2.57,1.1 3.23,3.23 0 0 0 -1,2.25 v 0.24 a 3.21,3.21 0 0 0 0.26,1 3.73,3.73 0 0 0 3.3,2.22 3.63,3.63 0 0 0 3.21,-2.2 3,3 0 0 0 0.26,-1 v -0.16 a 3.29,3.29 0 0 0 -1,-2.36 3.52,3.52 0 0 0 -2.52,-1.07 v 0 z m -62.76,-4.87 0.12,-0.18 h -4.15 l -0.11,0.18 z m -28.39,0 -0.1,-0.16 h -4.13 l 0.11,0.16 z"
     id="path74" />
  <path
     d="m 79.750831,47.5 c 3.48,0 6.95,0 10.44,0 H 423.72083 c 8.27,0 16.54,0.09 24.78,0.43 8.62,0.38 17.11,1.77 25.09,5.18 a 31.91,31.91 0 0 1 8.15,5.1 c 1.8,1.54 2.59,3.21 2.41,4.87 a 5.68,5.68 0 0 1 -0.55,1.94 9.71,9.71 0 0 1 -1.6,2.39 c -3.71,4.12 -8.53,6.28 -13.78,7.79 -10.22,2.92 -20.67,3.52 -31.22,3.53 q -51.82,0.08 -103.63,0.06 H 90.000831 c -8.2,0 -16.41,-0.11 -24.59,-0.46 a 80.47,80.47 0 0 1 -23.3,-4.25 24.31,24.31 0 0 1 -10.44,-7 8.77,8.77 0 0 1 -1.38,-2 4.86,4.86 0 0 1 -0.51,-1.94 6.17,6.17 0 0 1 1.93,-4.51 c 2.88,-3.22 6.66,-4.87 10.63,-6.3 9.57,-3.44 19.55,-4.39 29.6,-4.72 2.6,-0.09 5.21,-0.12 7.82,-0.12 M 400.00083,57.3 h 10.85 l 3.84,-5.8 h -10.86 c -1.2,1.81 -2.41,3.65 -3.8,5.8 m -24.7,0 h 10.92 c -1.45,-2.15 -2.67,-4 -3.86,-5.77 h -10.86 l 3.8,5.77 m -61.62,0 h 38.87 a 4.71,4.71 0 0 0 -3.89,-5.41 5.29,5.29 0 0 0 -0.8,-0.06 q -7.38,-0.07 -14.75,-0.07 -7.37,0 -14.75,0.07 c -3,0 -4.94,2.46 -4.68,5.47 m -107.71,-0.08 h 38.23 a 4.81,4.81 0 0 0 -4.82,-5.43 q -7.12,-0.06 -14.25,-0.06 l -14.26,0.06 c -3,0 -4.86,2.14 -4.91,5.43 m -45.3,0 h 40.31 v -5.43 h -35.2 c -3.34,0 -5.46,2.32 -5.1,5.44 m 106.3,-0.01 h 40 a 4.87,4.87 0 0 0 -5.24,-5.48 h -33.34 a 13.26,13.26 0 0 0 -1.54,0.21 v 3.39 c 0,0.59 0.09,1.16 0.14,1.89 M 63.580831,57.3 h 52.049999 c 0.15,-3.35 -1.94,-5.49 -5.4,-5.51 H 65.230831 c -0.51,0 -1,0.11 -1.61,0.16 v 5.35 m 354.899999,0 h 34.15 v -5.4 h -34.2 v 5.37 m -59.84,0 h 9.47 v -5.34 h -9.47 v 5.37 m -237.35,0 h 34.11 v -5.36 h -34.09 v 5.35 m -79.749999,11.7 v 0 a 6.49,6.49 0 0 0 5.76,-3.91 5.9,5.9 0 0 0 0.49,-1.93 v -0.38 a 6.33,6.33 0 0 0 -6.35,-6.23 v 0 a 6.38,6.38 0 0 0 -6.27,6.15 1.77,1.77 0 0 0 0,0.46 5.84,5.84 0 0 0 0.49,1.93 6.54,6.54 0 0 0 5.84,3.91 m 430.559999,0 v 0 a 6.43,6.43 0 0 0 5.77,-3.91 5.63,5.63 0 0 0 0.47,-1.93 1.71,1.71 0 0 0 0,-0.32 6.31,6.31 0 0 0 -6.31,-6.29 v 0 a 6.44,6.44 0 0 0 -6.37,6.2 v 0.41 a 5.85,5.85 0 0 0 0.5,1.93 6.55,6.55 0 0 0 5.87,3.91 m -299.63,6 h 14.63 c 2.47,0 4.94,0 7.42,0 a 6.75,6.75 0 0 0 6.58,-6.46 7.46,7.46 0 0 0 -1.94,-5.4 5.1,5.1 0 0 0 -3.53,-1.77 c -2.52,-0.12 -5,-0.15 -7.55,-0.15 -3.36,0 -6.71,0.06 -10.07,0.06 -0.09,0 -0.19,0.15 -0.31,0.24 v 4.63 h 7.09 c 1.49,0 3,0 4.46,0.12 a 2.48,2.48 0 0 1 1.8,1.54 c 0.31,1.19 -0.65,1.74 -1.77,1.82 h -15.7 c -3,0 -3.22,-0.29 -3.22,-3.32 v -7.37 h -9.64 v 9.37 c 0,4.14 2.48,6.63 6.66,6.67 h 5.32 m 262.92,0 h 15.19 c 0.69,0 1.38,-0.09 2,-0.13 v -5.21 h -21.71 c -2.35,0 -3,-0.88 -2.59,-3.54 h 22.66 v -4.82 c -0.9,0 -1.75,-0.14 -2.58,-0.14 h -17.26 c -1.53,0 -2.94,-0.17 -3.3,-2.16 h -8.61 a 5.42,5.42 0 0 0 -0.87,0.19 v 8.51 c 0,5 2.2,7.33 7.17,7.35 h 9.8 M 63.580831,74.85 h 9.42 V 59.03 h -9.41 V 74.85 M 409.69083,59.03 h -10.88 c -0.9,1.38 -1.8,2.73 -2.7,4.12 l -1.26,1.93 -1.73,2.64 c -0.6,-0.91 -1.18,-1.78 -1.74,-2.64 l -1.28,-1.93 -2.69,-4.08 h -10.87 l 2.73,4.08 1.3,1.93 6.56,9.8 h 12 l 6.55,-9.8 1.29,-1.93 c 0.91,-1.35 1.82,-2.72 2.75,-4.12 m -96.14,15.8 h 9.58 V 59.05 h -9.58 v 15.78 m 17.64,-4.61 a 33.92,33.92 0 0 0 3.5,-0.12 c 0.34,0 0.66,-0.05 1,-0.05 a 6.85,6.85 0 0 1 5.86,2.93 c 0.65,0.8 1.67,1.85 2.59,1.91 1.53,0.11 3.08,0.13 4.62,0.13 h 5.62 l 0.62,-0.9 c -2.16,-1.78 -4.33,-3.57 -6.72,-5.52 a 9.31,9.31 0 0 0 3.69,-3.52 7,7 0 0 0 0.73,-1.93 10.06,10.06 0 0 0 0,-4.09 h -9.5 c 0,0.74 -0.09,1.39 -0.11,2 a 3.32,3.32 0 0 1 -0.48,2.06 c -0.39,0.44 -1.06,0.56 -2.24,0.57 h -14.95 v 6.43 c 2,0 3.9,0.07 5.78,0.07 m -64.23,4.65 h 9.5 V 59.07 h -9.5 v 15.76 m -49.5,-4.61 h 17.18 c 0.08,1.7 0.14,3.12 0.2,4.59 h 9.44 V 59.07 h -9.64 v 4.73 h -17.18 v 6.42 m 141.13,4.63 h 9.37 V 59.07 h -9.39 v 15.8 m -152.71,0 h 9.55 v -15.8 h -9.55 v 15.78 m -66.9,0.15 h 14.32 c 0.71,0 1.4,-0.09 2.09,-0.13 v -5.24 h -21.61 c -2.34,0 -3,-0.86 -2.67,-3.53 h 22.72 v -5 h -19.53 c -1.66,0 -3.09,-0.25 -3.57,-2 h -9.5 v 8.62 c 0,5 2.24,7.23 7.23,7.23 h 10.52 m 150.52,-5.36 h -9 c -0.81,0 -1.54,0.09 -2.41,0.13 v 5.16 c 4.69,0 9.29,0.05 13.85,0.05 3.27,0 6.52,0 9.76,-0.11 3.24,-0.11 5.4,-2.84 5.45,-6.19 v -3.59 -1.97 0 -4 h -9.67 v 7.82 c 0,2.17 -0.51,2.66 -2.72,2.68 h -5.28 m -183.5,5.26 h 9.64 V 59.1 h -9.64 v 15.73 m -21.129999,0 h 9.36 V 59.1 h -9.33 v 15.77 m -5.15,-33 c -3.12,0 -5.67,0 -8,0.11 -9.43,0.32 -20.51,1.17 -31.33,5 -4.51,1.61 -9.19,3.7 -12.91,7.82 a 11.78,11.78 0 0 0 -3.37,8.62 10.79,10.79 0 0 0 1.05,4 14.81,14.81 0 0 0 2.27,3.34 30,30 0 0 0 12.85,8.56 86.23,86.23 0 0 0 24.9,4.57 c 7.37,0.31 15.27,0.46 24.83,0.46 H 333.40083 c 34.9,0 69.08,0 103.63,-0.06 9.72,0 21.23,-0.46 32.73,-3.73 4.58,-1.3 11.25,-3.7 16.43,-9.43 a 15.23,15.23 0 0 0 2.53,-3.71 11.26,11.26 0 0 0 1.06,-3.86 c 0.22,-2.51 -0.37,-6.19 -4.39,-9.64 a 37.45,37.45 0 0 0 -9.64,-6 c -7.77,-3.32 -16.62,-5.16 -27,-5.62 -7.23,-0.31 -14.94,-0.45 -25,-0.45 H 79.750831 Z M 471.39083,62.66 a 1,1 0 0 1 0.74,-0.49 0.7,0.7 0 0 1 0.51,0.23 0.51,0.51 0 0 1 0.17,0.29 v 0.06 0 0.11 a 0.7,0.7 0 0 1 -1.37,-0.14 v -0.06 z"
     fill="#ffffff"
     id="path76" />
  <path
     d="m 507.00083,62.22 c 0,0.3 0,0.6 -0.07,0.9 a 10.75,10.75 0 0 1 -0.43,1.93 H 7.5608306 a 10,10 0 0 1 -0.46,-1.93 c -0.51,-3.58 0.93,-7 4.2200004,-9.87 a 47.19,47.19 0 0 1 14.88,-8.12 114.4,114.4 0 0 1 35.51,-6.59 c 14.2,-0.45 28.41,-0.14 42.629999,-0.05 18.94,0.12 37.81,-0.72 56.48,-4 13.25,-2.41 26,-6.2 37.58,-13.49 11.58,-7.29 24.75,-11.07 38.43,-12.7 a 177.81,177.81 0 0 1 33.27,-0.73 c 16.9,1.15 32.9,5.36 47.4,14.52 9.64,6.15 20.42,9.25 31.41,11.58 a 204.19,204.19 0 0 0 39.74,4.41 c 14.87,0.24 29.72,0.08 44.62,0 15.38,-0.13 30.65,0.71 45.65,4.41 7.85,1.95 15.43,4.65 22.06,9.5 3.54,2.5 6.18,5.58 6.02,10.23 z"
     fill="url(#linear-gradient)"
     id="path78"
     style="fill:url(#linear-gradient)" />
  <path
     d="m 506.49083,65.08 a 15.61,15.61 0 0 1 -2.64,4.73 c -3.21,4.24 -7.77,6.68 -12.45,8.9 -8.4,3.97 -17.32,5.51 -26.4,6.81 -15.39,2.26 -30.87,1.68 -46.33,1.76 -34.78,0.16 -69.57,0.09 -104.35,0.11 h -197.16 c -16.41,0 -32.809999,0 -49.199999,-0.38 -13.77,-0.3 -27.44,-1.74 -40.55,-6.36 -5,-1.75 -9.85,-3.92 -13.9,-7.45 a 25.47,25.47 0 0 1 -4.2300004,-4.69 13.68,13.68 0 0 1 -1.72,-3.44 z"
     fill="url(#linear-gradient-2)"
     id="path80"
     style="fill:url(#linear-gradient-2)" />
  <path
     d="m 501.00083,51.92 c -6.64,-4.82 -14.22,-7.55 -22.07,-9.49 -15,-3.7 -30.27,-4.55 -45.65,-4.42 -14.87,0.11 -29.72,0.27 -44.61,0 a 204.19,204.19 0 0 1 -39.74,-4.41 c -10.93,-2.38 -21.75,-5.44 -31.41,-11.58 -14.46,-9.17 -30.52,-13.37 -47.39,-14.51 a 177.93,177.93 0 0 0 -33.28,0.72 c -13.65,1.61 -26.73,5.38 -38.42,12.71 -11.69,7.33 -24.34,11.11 -37.59,13.49 -18.67,3.34 -37.54,4.18 -56.48,4 -14.219999,-0.09 -28.429999,-0.41 -42.629999,0.05 a 114.34,114.34 0 0 0 -35.5,6.59 46.89,46.89 0 0 0 -14.88,8.15 c -3.3000004,2.84 -4.7300004,6.29 -4.2300004,9.86 a 12.58,12.58 0 0 0 2.19,5.38 25.72,25.72 0 0 0 4.2200004,4.68 c 4,3.54 8.92,5.7 13.9,7.46 13.11,4.61 26.78,6 40.55,6.36 16.39,0.37 32.799999,0.36 49.199999,0.38 q 69.82,0 139.67,0 h 57.51 c 34.78,0 69.57,0 104.35,-0.12 15.46,-0.08 30.94,0.51 46.33,-1.76 9,-1.33 18,-2.83 26.36,-6.8 4.68,-2.23 9.21,-4.67 12.45,-8.9 a 13.62,13.62 0 0 0 3.06,-6.67 6.54,6.54 0 0 0 0.09,-0.87 c 0.16,-4.65 -2.48,-7.73 -6,-10.3 z m -288.44,-29.24 c 5.15,-2.87 10.86,-4 16.58,-5 a 182.92,182.92 0 0 1 43.86,-1.92 c 9.64,0.67 19.33,1.77 28.55,5.1 a 23.2,23.2 0 0 1 5.1,2.56 c 3.5,2.41 3.58,5.37 0,7.48 a 38.12,38.12 0 0 1 -9.27,3.89 c -12.59,3.41 -25.52,4.07 -35,4.12 -15.26,0 -26.9,-0.67 -38.36,-3.29 a 105.65,105.65 0 0 1 -10.67,-3.52 3.61,3.61 0 0 1 -0.71,-0.35 c -1.73,-1.11 -3.68,-2.12 -3.7,-4.53 -0.02,-2.41 1.85,-3.54 3.62,-4.54 z m 277.9,47.59 c -5.39,4.6 -11.89,6.77 -18.54,8.57 a 119.41,119.41 0 0 1 -31,4 q -82.83,0.31 -165.67,0.45 c -42.19,0.11 -84.39,0.31 -126.59,0.26 q -38.79,0 -77.559999,-0.8 c -12.65,-0.23 -25.19,-2 -37,-6.82 a 43,43 0 0 1 -10.84,-6.71 8.41,8.41 0 0 1 -3.41,-6.12 9.16,9.16 0 0 1 3.21,-7 c 4.65,-4.5 10.51,-6.8 16.55,-8.57 a 101.53,101.53 0 0 1 26.39,-4.02 c 16.53,-0.37 33.07,-0.22 49.579999,-0.57 18.18,-0.37 36.31,-1.54 54.09,-5.8 a 126.28,126.28 0 0 0 21.92,-7.34 1.85,1.85 0 0 1 0.4,-0.12 c 3.83,2.35 7.32,4.73 11,6.68 6.43,3.39 13.58,4.63 20.67,5.91 12.43,2.22 25,2.05 37.55,2.06 13.2,0 26.27,-0.8 39.15,-4 7.8,-1.92 15,-5 21.14,-10.33 a 1.51,1.51 0 0 1 0.5,-0.27 c 6.42,2.14 12.47,4.41 18.67,6.19 a 173.86,173.86 0 0 0 31.55,5.53 c 22,2.12 44.18,1.38 66.21,1.61 12.19,0.1 24.29,1.11 36.09,4.39 5.81,1.61 11.41,3.82 16.06,7.8 3,2.55 4.37,5.22 4.18,7.89 -0.13,2.42 -1.58,4.82 -4.3,7.13 z"
     fill="#231f20"
     id="path82" />
  <path
     d="m 234.28083,22.82 a 3.91,3.91 0 0 0 -0.37,3 2.93,2.93 0 0 0 2.51,1.9 c 0.86,0.13 1.88,0 2.78,0.16 a 2.42,2.42 0 0 1 2.21,2.54 2.33,2.33 0 0 1 -2.25,2.41 h -0.16 c -2.41,0.08 -4.88,0 -7.5,0 -0.07,-0.66 -0.12,-1.19 -0.19,-2 h 7.59 a 6.19,6.19 0 0 1 0,-0.86 c -0.71,0 -1.21,0 -1.84,0 -3.29,-0.14 -5.73,-2.36 -5.79,-5.31 a 5.47,5.47 0 0 1 5.3,-5.62 h 0.18 c 2.41,-0.13 4.82,0 7.39,0 v 2.18 a 61.47,61.47 0 0 0 -6.51,0.07 4.84,4.84 0 0 0 -3.35,1.53 z m 4.72,2.19 c -0.75,-0.09 -1.5,0.05 -2.24,0 a 5.36,5.36 0 0 1 0,-0.81 h 7.49 c 0,-0.84 -0.1,-2 -0.1,-2 a 74.12,74.12 0 0 0 -7.6,0.1 2.19,2.19 0 0 0 -2.09,2.09 c -0.09,1.61 0.26,2 1,2.41 a 3.5,3.5 0 0 0 1.42,0.39 c 0.59,0 1.19,0 1.79,0 2,0 3.36,1.22 3.41,3 a 3.25,3.25 0 0 1 -3.1,3.41 1.61,1.61 0 0 1 -0.22,0 c -2.41,0.09 -4.82,0 -7.45,0 0.05,0.9 0.09,1.51 0.13,2.24 2.81,0 5.45,0.13 8,0 a 5.26,5.26 0 0 0 4.82,-5.34 c 0.06,-2.91 -2.06,-5.12 -5.26,-5.49 z m 11.69,8.59 a 2.38,2.38 0 0 1 -2.7,-2.65 c 0,-2.18 0,-4.36 0,-6.54 0,-2.49 0.72,-3.21 3.21,-3.21 h 7 v -2.17 c -2.91,0 -5.68,-0.13 -8.43,0 a 3.71,3.71 0 0 0 -3.78,3.63 v 0.08 a 82.44,82.44 0 0 0 -0.05,9.3 3.68,3.68 0 0 0 3.48,3.71 c 2.87,0.18 5.77,0 8.78,0 V 33.6 Z m 7.31,-11.48 c -2.58,0 -5,-0.13 -7.43,0.08 a 1.8,1.8 0 0 0 -1.75,1.85 v 0 c 0,0.69 -0.06,1.6 -0.06,2.76 h 7.7 c 0,-0.7 -0.07,-1.22 -0.11,-2 h -4.92 v -0.59 h 6.58 z m -6.65,8.51 v -0.69 h 5.11 c 0,-0.76 -0.08,-1.24 -0.11,-1.74 h -7.62 c 0,1 0.05,1.77 0.05,2.52 a 1.88,1.88 0 0 0 1.39,2 c 2.59,0.21 5.2,0.1 7.88,0.1 v -2.16 z m 20.54,-6.47 v -2 h -7.36 a 1.83,1.83 0 0 0 -2.05,1.57 1.67,1.67 0 0 0 0,0.32 56.73,56.73 0 0 0 0,6.9 2.57,2.57 0 0 0 1.61,1.85 26.59,26.59 0 0 0 4.72,0.09 v -5 h -2.46 c 0,1.07 -0.05,1.6 -0.05,2.69 -0.54,-0.09 -1,0 -1.48,0 v -6.36 z m 16.21,10.06 c -1.36,-4.13 -2.77,-8.25 -4.09,-12.4 -0.63,-1.92 -1.84,-3.15 -3.85,-3.12 -2.01,0.03 -3.08,1.23 -3.66,3.09 -1.12,3.52 -2.32,7 -3.51,10.51 a 9.2,9.2 0 0 1 -0.6,1.22 2.58,2.58 0 0 0 -0.42,-0.12 v -8.3 h -6.42 l -0.06,1.88 h 4.26 c 0,0 -0.06,4.44 -0.06,6.69 h -5.44 c -1.76,0 -2.51,-0.84 -2.5,-2.56 v -6.97 c 0,-2.32 0.68,-2.89 3,-2.93 2.32,-0.04 4.73,0 7.23,0 v -2.15 c -3,0 -5.74,-0.12 -8.49,0 a 3.92,3.92 0 0 0 -3.89,3.95 v 0.07 c -0.08,3 -0.08,6 0,8.92 a 3.83,3.83 0 0 0 3.54,3.87 c 3.63,0.12 7.23,0 10.92,0 0.31,-0.87 0.61,-1.61 0.86,-2.36 1.28,-3.74 2.52,-7.5 3.87,-11.24 0.2,-0.58 0.71,-1.34 1.37,-1.42 a 1.39,1.39 0 0 1 1.39,0.75 c 1.44,3.94 2.77,7.91 4.29,12.28 h -6.38 c 0,0.81 0,1.31 0.09,1.9 h 9 c -0.1,-0.54 -0.23,-1.06 -0.38,-1.58 z m -7.42,-12.91 h -0.87 c -1.61,4.77 -3.29,9.53 -5,14.46 h 2.58 c 0.52,-1.41 1,-2.73 1.65,-4.43 l 0.52,1.65 h 5.15 z m -1.32,9.13 0.8,-2.41 c 0,0 0.8,1.61 1.14,2.41 -0.67,0.09 -1.28,0 -1.94,0 z"
     fill="#231f20"
     id="path84" />
  <path
     d="m 481.74083,58.27 a 31.61,31.61 0 0 0 -8.15,-5.05 c -8,-3.42 -16.47,-4.82 -25.09,-5.18 -8.24,-0.35 -16.51,-0.44 -24.78,-0.44 q -166.79,0 -333.539999,0 c -6.09,0 -12.18,-0.13 -18.26,0.08 -10.05,0.33 -20,1.28 -29.6,4.72 -4,1.43 -7.75,3.1 -10.62,6.3 a 6.14,6.14 0 0 0 -1.94,4.52 6.6,6.6 0 0 0 1.9,4 24.34,24.34 0 0 0 10.44,7 80.68,80.68 0 0 0 23.29,4.25 c 8.19,0.35 16.39,0.45 24.59,0.45 q 83.429999,0.08 166.879999,0 h 24.79 q 77.69,0 155.37,-0.06 c 10.5,0 21,-0.61 31.21,-3.51 5.25,-1.5 10.07,-3.66 13.78,-7.78 a 7.47,7.47 0 0 0 2.17,-4.29 c 0.15,-1.84 -0.64,-3.47 -2.44,-5.01 z m -63.25,-6.36 h 34.14 v 5.37 h -34.14 z m -14.66,-0.41 h 10.89 l -3.84,5.8 h -10.88 c 1.44,-2.15 2.63,-3.99 3.83,-5.8 z m -21.44,0 3.86,5.77 h -10.92 l -3.8,-5.77 z m -23.74,0.42 h 9.47 v 5.38 h -9.47 z m -40.26,-0.09 q 14.76,-0.15 29.5,0 a 4.71,4.71 0 0 1 4.75,4.66 5.52,5.52 0 0 1 -0.06,0.81 h -38.87 a 4.75,4.75 0 0 1 4.68,-5.46 z m -51.48,0.17 a 12.8,12.8 0 0 1 1.53,-0.21 h 33.31 c 3.34,0 5.41,2.14 5.25,5.48 h -40 c -0.05,-0.73 -0.12,-1.3 -0.13,-1.89 0,-1.08 0,-2.19 0,-3.37 z m -56,-0.18 q 14.25,-0.12 28.51,0 a 4.84,4.84 0 0 1 4.85,5.4 h -38.27 c 0.06,-3.27 1.9,-5.39 4.92,-5.41 z m -45.11,0 c 3.84,-0.07 7.66,0 11.5,0 h 23.7 v 5.46 h -40.27 c -0.36,-3.14 1.76,-5.41 5.1,-5.46 z m -44.53,0.12 h 34.11 v 5.35 h -34.08 z m -57.709999,0 c 0.61,-0.06 1.13,-0.16 1.6,-0.16 h 44.999999 c 3.46,0 5.55,2.15 5.39,5.5 H 63.550831 Z m -22,17 a 6.49,6.49 0 0 1 -6.36,-5.84 3.53,3.53 0 0 1 0,-0.46 6.39,6.39 0 0 1 6.27,-6.15 6.32,6.32 0 0 1 6.42,6.2 v 0.41 a 6.43,6.43 0 0 1 -6.31,5.89 z m 31.44,5.91 h -9.42 V 59.03 h 9.42 z m 21.26,0 h -9.37 V 59.1 h 9.37 z m 21.419999,0 h -9.68 V 59.1 h 9.64 z m 39.7,0 c -0.69,0 -1.38,0.12 -2.09,0.12 h -24.8 c -5,0 -7.23,-2.31 -7.23,-7.23 v -8.59 h 9.5 c 0.5,1.84 2,2 3.68,2 5.55,0 11.11,0 16.67,0 h 2.76 v 5 h -22.74 c -0.34,2.67 0.33,3.52 2.67,3.53 h 21.58 z m 45.74,-6.32 a 6.76,6.76 0 0 1 -6.59,6.42 c -5.21,0.09 -10.44,0 -15.66,0 h -11.69 c -4.19,0 -6.64,-2.53 -6.66,-6.66 v -9.36 h 9.64 v 7.37 c 0,3 0.29,3.33 3.21,3.33 h 15.91 c 1.13,-0.08 2.08,-0.64 1.78,-1.82 a 2.53,2.53 0 0 0 -1.81,-1.59 c -2.95,-0.17 -5.94,-0.09 -8.91,-0.09 h -2.63 v -4.61 c 0.11,-0.08 0.22,-0.24 0.3,-0.24 5.88,0 11.76,-0.17 17.62,0.09 a 5.13,5.13 0 0 1 3.53,1.78 7.45,7.45 0 0 1 2,5.39 z m 14.35,6.3 h -9.55 V 59.07 h 9.55 z m 28.84,0 h -9.46 c -0.05,-1.46 -0.12,-2.88 -0.2,-4.58 h -17.15 v -6.43 h 17.18 v -4.75 h 9.64 z m 32.21,0 h -9.52 V 59.07 h 9.5 z m 30.63,-6.15 c 0,3.35 -2.18,6.11 -5.45,6.19 -7.78,0.2 -15.58,0.06 -23.61,0.06 v -5.18 c 0.87,0 1.6,-0.13 2.41,-0.13 h 14.28 c 2.21,0 2.7,-0.51 2.72,-2.67 v -7.83 h 9.73 v 4 0 c 0,1.85 -0.05,3.69 -0.08,5.53 z m 16,6.15 h -9.58 V 59.05 h 9.58 z m 31.29,0.15 c -3.43,0 -6.85,0.14 -10.25,-0.09 -0.92,-0.06 -1.95,-1.08 -2.59,-1.91 a 7.07,7.07 0 0 0 -6.84,-2.89 c -2.9,0.26 -6,0 -9.28,0 v -6.37 h 14.9 c 1.18,0 1.85,-0.14 2.24,-0.58 a 3.32,3.32 0 0 0 0.48,-2.06 c 0,-0.64 0.07,-1.28 0.11,-2 h 9.46 a 10.06,10.06 0 0 1 0,4.09 c -0.45,2.11 -1.78,3.9 -4.36,5.4 2.41,2 4.56,3.74 6.72,5.52 z m 13.65,-0.11 h -9.44 v -15.8 h 9.35 z m 31,0 h -12 l -7.86,-11.73 -2.74,-4.07 h 10.88 l 2.68,4.07 3,4.57 3,-4.56 c 0.9,-1.39 1.79,-2.74 2.7,-4.12 h 10.87 l -2.62,4.12 c -2.69,4 -5.27,7.84 -7.87,11.73 z m 53.48,0 c -0.6,0 -1.29,0.13 -2,0.13 h -25 c -5,0 -7.23,-2.33 -7.17,-7.35 v -8.5 a 4.23,4.23 0 0 1 0.87,-0.2 h 8.73 c 0.42,2.34 2.29,2.16 4.1,2.16 h 16.46 c 0.81,0 1.68,0.08 2.59,0.13 v 4.82 h -22.76 c -0.43,2.67 0.24,3.52 2.59,3.54 h 21.61 z m 19.59,-5.87 a 6.49,6.49 0 0 1 -6.38,-5.84 2.8,2.8 0 0 1 0,-0.41 6.42,6.42 0 0 1 6.42,-6.19 6.3,6.3 0 0 1 6.29,6.28 1.71,1.71 0 0 1 0,0.32 6.43,6.43 0 0 1 -6.35,5.83 z"
     fill="#231f20"
     id="path86" />
  <metadata
     id="metadata906">
    <rdf:RDF>
      <cc:Work
         rdf:about="">
        <dc:title>logo</dc:title>
      </cc:Work>
    </rdf:RDF>
  </metadata>
</svg>
