<?xml version="1.0" encoding="UTF-8" standalone="no"?>
<svg
   viewBox="0 0 513.99658 82.050049"
   version="1.1"
   id="svg101"
   sodipodi:docname="odyssey2.svg"
   width="513.99658"
   height="82.050049"
   inkscape:version="1.1 (c68e22c387, 2021-05-23)"
   xmlns:inkscape="http://www.inkscape.org/namespaces/inkscape"
   xmlns:sodipodi="http://sodipodi.sourceforge.net/DTD/sodipodi-0.dtd"
   xmlns="http://www.w3.org/2000/svg"
   xmlns:svg="http://www.w3.org/2000/svg"
   xmlns:rdf="http://www.w3.org/1999/02/22-rdf-syntax-ns#"
   xmlns:cc="http://creativecommons.org/ns#"
   xmlns:dc="http://purl.org/dc/elements/1.1/">
  <defs
     id="defs105" />
  <sodipodi:namedview
     id="namedview103"
     pagecolor="#ffffff"
     bordercolor="#666666"
     borderopacity="1.0"
     inkscape:pageshadow="2"
     inkscape:pageopacity="0.0"
     inkscape:pagecheckerboard="0"
     showgrid="false"
     fit-margin-top="0"
     fit-margin-left="0"
     fit-margin-right="0"
     fit-margin-bottom="0"
     inkscape:zoom="1.113"
     inkscape:cx="257.4124"
     inkscape:cy="40.431267"
     inkscape:window-width="1920"
     inkscape:window-height="1138"
     inkscape:window-x="-8"
     inkscape:window-y="-8"
     inkscape:window-maximized="1"
     inkscape:current-layer="svg101" />
  <title
     id="title2">logo</title>
  <g
     id="Layer_2"
     data-name="Layer 2"
     transform="translate(-243.00333,-15.949948)">
    <rect
       x="355.92999"
       y="37"
       width="58"
       height="45.5"
       fill="#ffffff"
       id="rect4" />
    <rect
       x="488.26999"
       y="40"
       width="47.669998"
       height="38.689999"
       fill="#ffffff"
       id="rect6" />
  </g>
  <g
     id="Layer_1"
     data-name="Layer 1"
     transform="translate(-243.00333,-15.949948)">
    <path
       d="m 286.43,94.5 a 3.5,3.5 0 0 1 -3.08,-1.84 l -36.44,-68 A 3.5,3.5 0 0 1 250,19.5 h 19.43 a 3.52,3.52 0 0 1 3.09,1.84 l 26.72,49.89 a 3.53,3.53 0 0 1 0,3.31 l -9.72,18.12 a 3.52,3.52 0 0 1 -3.09,1.84 z"
       fill="#1d1d1b"
       id="path9" />
    <path
       d="M 269.43,23 296.15,72.89 286.43,91 250,23 h 19.43 m 0,-7 H 250 a 7,7 0 0 0 -6.17,10.3 l 36.43,68 a 7,7 0 0 0 6.17,3.7 v 0 a 7,7 0 0 0 6.17,-3.69 l 9.72,-18.11 a 7,7 0 0 0 0,-6.62 L 275.6,19.69 A 7,7 0 0 0 269.43,16 Z"
       fill="#ffffff"
       id="path11" />
    <path
       d="M 298.58,71.82 A 3.51,3.51 0 0 1 295.49,70 l -9.71,-18.12 a 3.45,3.45 0 0 1 0,-3.3 l 14.57,-27.21 a 3.5,3.5 0 0 1 3.08,-1.84 h 19.43 A 3.5,3.5 0 0 1 326,24.65 L 301.66,70 a 3.49,3.49 0 0 1 -3.08,1.85 z"
       fill="#1d1d1b"
       id="path13" />
    <path
       d="m 322.86,23 v 0 m 0,0 L 298.58,68.32 288.86,50.2 303.43,23 h 19.43 m 0,-7 h -19.43 a 7,7 0 0 0 -6.17,3.69 l -14.57,27.2 a 7,7 0 0 0 0,6.62 l 9.72,18.12 a 7,7 0 0 0 6.17,3.69 v 0 a 7,7 0 0 0 6.17,-3.7 L 328.94,26.48 A 7,7 0 0 0 322.87,16 Z m 0,14 z"
       fill="#ffffff"
       id="path15" />
    <path
       d="M 327.82,94.5 A 3.5,3.5 0 0 1 324.32,91 V 23 a 3.5,3.5 0 0 1 3.5,-3.5 h 17.05 a 3.5,3.5 0 0 1 2.48,1 3.54,3.54 0 0 1 1,2.48 l -0.05,68 a 3.49,3.49 0 0 1 -3.5,3.49 z"
       fill="#1d1d1b"
       id="path17" />
    <path
       d="m 344.87,23 v 0 m 0,0 -0.05,68 h -17 V 23 h 17.05 m 0,-7 h -17.05 a 7,7 0 0 0 -7,7 v 68 a 7,7 0 0 0 7,7 h 17 a 7,7 0 0 0 7,-7 l 0.05,-67.82 V 23 a 7,7 0 0 0 -7,-7 z m 0,14 z"
       fill="#ffffff"
       id="path19" />
    <path
       d="M 352.1,94.5 A 3.5,3.5 0 0 1 348.6,91 V 23 a 3.5,3.5 0 0 1 3.5,-3.5 h 17 a 3.5,3.5 0 0 1 2.48,1 3.54,3.54 0 0 1 1,2.48 v 68 a 3.49,3.49 0 0 1 -3.5,3.49 z"
       fill="#1d1d1b"
       id="path21" />
    <path
       d="m 369.15,23 v 0 m 0,0 v 68 h -17 V 23 h 17 m 0,-7 h -17.04 a 7,7 0 0 0 -7,7 v 68 a 7,7 0 0 0 7,7 h 17 a 7,7 0 0 0 7,-7 V 23.18 23 a 7,7 0 0 0 -7,-7 z m 0,14 z"
       fill="#ffffff"
       id="path23" />
    <path
       d="M 381.2,94.5 H 374 A 3.49,3.49 0 0 1 370.5,91 V 74 a 3.5,3.5 0 0 1 3.5,-3.5 h 7.29 a 13.5,13.5 0 0 0 0,-27 H 374 A 3.5,3.5 0 0 1 370.5,40 V 23 a 3.49,3.49 0 0 1 3.5,-3.5 h 7.81 a 36.45,36.45 0 0 1 26,11 36.37,36.37 0 0 1 11,26.52 36.37,36.37 0 0 1 -11,26.52 36.45,36.45 0 0 1 -26,11 z"
       fill="#1d1d1b"
       id="path25" />
    <path
       d="m 381.78,23 a 32.78,32.78 0 0 1 23.52,10 32.78,32.78 0 0 1 10,24 32.78,32.78 0 0 1 -10,24 32.78,32.78 0 0 1 -23.52,10 H 374 V 74 h 7.29 a 17,17 0 0 0 0,-34 H 374 V 23 h 7.81 m 0,-7 H 374 a 7,7 0 0 0 -7,7 v 17 a 7,7 0 0 0 7,7 h 7.29 a 10,10 0 0 1 0,20 H 374 a 7,7 0 0 0 -7,7 v 17 a 7,7 0 0 0 7,7 h 7.81 a 41,41 0 0 0 40.48,-41 39.92,39.92 0 0 0 -12,-29 40,40 0 0 0 -28.47,-12 z"
       fill="#ffffff"
       id="path27" />
    <path
       d="M 422.64,94.5 A 3.5,3.5 0 0 1 419.14,91 V 23 a 3.5,3.5 0 0 1 3.5,-3.5 h 17.05 a 3.5,3.5 0 0 1 2.48,1 3.54,3.54 0 0 1 1,2.48 l -0.05,68 a 3.5,3.5 0 0 1 -3.5,3.49 z"
       fill="#1d1d1b"
       id="path29" />
    <path
       d="m 439.69,23 v 0 m 0,0 -0.05,68 h -17 V 23 h 17.05 m 0,-7 h -17.05 a 7,7 0 0 0 -7,7 v 68 a 7,7 0 0 0 7,7 h 17 a 7,7 0 0 0 7,-7 l 0.05,-67.82 V 23 a 7,7 0 0 0 -7,-7 z m 0,14 z"
       fill="#ffffff"
       id="path31" />
    <rect
       x="441.01001"
       y="19.5"
       width="33.709999"
       height="24"
       rx="3.5"
       fill="#1d1d1b"
       id="rect33" />
    <path
       d="M 471.22,23 V 40 H 444.5 V 23 h 26.72 m 0,-7 H 444.5 a 7,7 0 0 0 -7,7 v 17 a 7,7 0 0 0 7,7 h 26.72 a 7,7 0 0 0 7,-7 V 23 a 7,7 0 0 0 -7,-7 z"
       fill="#ffffff"
       id="path35" />
    <rect
       x="441.01001"
       y="70.5"
       width="33.709999"
       height="24"
       rx="3.5"
       fill="#1d1d1b"
       id="rect37" />
    <path
       d="M 471.22,74 V 91 H 444.5 V 74 h 26.72 m 0,-7 H 444.5 a 7,7 0 0 0 -7,7 v 17 a 7,7 0 0 0 7,7 h 26.72 a 7,7 0 0 0 7,-7 V 74 a 7,7 0 0 0 -7,-7 z"
       fill="#ffffff"
       id="path39" />
    <rect
       x="441.01001"
       y="45"
       width="33.709999"
       height="24"
       rx="3.5"
       fill="#1d1d1b"
       id="rect41" />
    <path
       d="m 471.22,48.5 v 17 H 444.5 v -17 h 26.72 m 0,-7 H 444.5 a 7,7 0 0 0 -7,7 v 17 a 7,7 0 0 0 7,7 h 26.72 a 7,7 0 0 0 7,-7 v -17 a 7,7 0 0 0 -7,-7 z"
       fill="#ffffff"
       id="path43" />
    <path
       d="m 512.6,94.51 a 37.22,37.22 0 0 1 -26.51,-11 35.92,35.92 0 0 1 -10.89,-23.9 3.53,3.53 0 0 1 1,-2.6 3.49,3.49 0 0 1 2.54,-1.09 h 17.1 a 3.5,3.5 0 0 1 3.47,3 12.77,12.77 0 0 0 3.69,7.56 13.45,13.45 0 0 0 19.07,0.11 l 0.11,-0.11 A 12.77,12.77 0 0 0 526,59 a 3.5,3.5 0 0 1 3.47,-3 h 17.1 a 3.49,3.49 0 0 1 3.49,3.69 35.79,35.79 0 0 1 -11,23.95 37.23,37.23 0 0 1 -26.46,10.87 z"
       fill="#1d1d1b"
       id="path45" />
    <path
       d="m 546.56,59.43 v 0 m 0,0 a 32.46,32.46 0 0 1 -9.91,21.62 34,34 0 0 1 -48.09,0 32.56,32.56 0 0 1 -9.86,-21.62 h 17.1 a 16.23,16.23 0 0 0 4.81,9.57 16.95,16.95 0 0 0 24,0.08 L 524.69,69 a 16.23,16.23 0 0 0 4.81,-9.57 h 17.1 m 0,-7 h -17.1 a 7,7 0 0 0 -6.94,6.09 9.26,9.26 0 0 1 -2.78,5.48 l -0.09,0.09 -0.06,0.06 A 9.95,9.95 0 0 1 505.57,64.09 L 505.48,64 a 9.29,9.29 0 0 1 -2.74,-5.45 7,7 0 0 0 -6.94,-6.09 h -17.1 a 7,7 0 0 0 -7,7.38 39.43,39.43 0 0 0 11.95,26.16 41,41 0 0 0 57.9,0 39.35,39.35 0 0 0 12,-26 c 0,-0.2 0,-0.4 0,-0.6 a 7,7 0 0 0 -7,-7 z m 0,14 z"
       fill="#ffffff"
       id="path47" />
    <path
       d="m 529.46,58.07 a 3.49,3.49 0 0 1 -3.46,-3 13.56,13.56 0 0 0 -13.35,-11.6 13.91,13.91 0 0 0 -1.93,0.13 13.59,13.59 0 0 0 -11.46,11.47 3.49,3.49 0 0 1 -3.46,3 h -17.1 a 3.49,3.49 0 0 1 -2.54,-1.07 3.53,3.53 0 0 1 -1,-2.6 35.85,35.85 0 0 1 10.93,-23.94 37.48,37.48 0 0 1 53,0 35.7,35.7 0 0 1 10.93,23.9 3.49,3.49 0 0 1 -3.49,3.69 z"
       fill="#1d1d1b"
       id="path49" />
    <path
       d="m 512.61,23 a 33.89,33.89 0 0 1 24,10 32.46,32.46 0 0 1 9.91,21.62 h -17.1 A 17,17 0 0 0 512.65,40 16.51,16.51 0 0 0 510.23,40.17 17,17 0 0 0 495.8,54.57 H 478.7 A 32.51,32.51 0 0 1 488.56,33 33.9,33.9 0 0 1 512.61,23 m 0,-7 a 40.73,40.73 0 0 0 -29,12 39.44,39.44 0 0 0 -11.9,26.2 7,7 0 0 0 7,7.37 h 17.1 a 7,7 0 0 0 6.93,-6 10,10 0 0 1 8.49,-8.49 9.82,9.82 0 0 1 1.43,-0.1 10,10 0 0 1 9.88,8.59 7,7 0 0 0 6.93,6 h 17.1 a 7,7 0 0 0 7,-7.38 39.37,39.37 0 0 0 -12,-26.24 40.74,40.74 0 0 0 -28.94,-12 z"
       fill="#ffffff"
       id="path51" />
    <rect
       x="550.48999"
       y="19.5"
       width="24"
       height="75.010002"
       rx="3.5"
       fill="#1d1d1b"
       id="rect53" />
    <path
       d="M 571,23 V 91 H 554 V 23 h 17 m 0,-7 h -17 a 7,7 0 0 0 -7,7 v 68 a 7,7 0 0 0 7,7 h 17 a 7,7 0 0 0 7,-7 V 23 a 7,7 0 0 0 -7,-7 z"
       fill="#ffffff"
       id="path55" />
    <path
       d="m 575.85,69 a 3.5,3.5 0 0 1 -3.5,-3.5 v -17 a 3.5,3.5 0 0 1 3.5,-3.5 H 585 a 0.6,0.6 0 0 0 0.47,-0.18 0.72,0.72 0 0 0 0.26,-0.53 0.76,0.76 0 0 0 -0.74,-0.79 h -9.13 A 3.5,3.5 0 0 1 572.36,40 V 23 a 3.5,3.5 0 0 1 3.5,-3.5 h 9.45 A 24.74,24.74 0 0 1 609.72,44.23 24.72,24.72 0 0 1 585.31,69 Z"
       fill="#1d1d1b"
       id="path57" />
    <path
       d="m 585.31,23 a 20.42,20.42 0 0 1 14.69,6.21 20.43,20.43 0 0 1 6.22,15 20.49,20.49 0 0 1 -6.22,15.08 20.46,20.46 0 0 1 -14.7,6.21 h -9.45 v -17 H 585 A 4.23,4.23 0 0 0 589.17,44.22 4.22,4.22 0 0 0 585,40 h -9.13 V 23 h 9.46 m 0,-7 h -9.46 a 7,7 0 0 0 -7,7 v 17 a 7,7 0 0 0 1.44,4.25 7,7 0 0 0 -1.44,4.25 v 17 a 7,7 0 0 0 7,7 h 9.45 A 28.22,28.22 0 0 0 613.23,44.22 28.24,28.24 0 0 0 585.31,16 Z"
       fill="#ffffff"
       id="path59" />
    <path
       d="m 609.85,94.5 a 3.5,3.5 0 0 1 -3.08,-5.15 L 631.06,44 a 3.5,3.5 0 0 1 6.17,0 l 9.71,18.12 a 3.45,3.45 0 0 1 0,3.3 l -14.57,27.24 a 3.52,3.52 0 0 1 -3.09,1.84 z"
       fill="#1d1d1b"
       id="path61" />
    <path
       d="M 634.15,45.68 643.86,63.8 629.28,91 h -19.43 l 24.3,-45.32 m 0,-7 v 0 a 7,7 0 0 0 -6.17,3.7 l -24.3,45.32 a 7,7 0 0 0 6.17,10.3 h 19.43 a 7,7 0 0 0 6.17,-3.69 L 650,67.11 a 7,7 0 0 0 0,-6.62 l -9.71,-18.11 a 7,7 0 0 0 -6.17,-3.7 z"
       fill="#ffffff"
       id="path63" />
    <path
       d="m 663.29,94.5 a 3.52,3.52 0 0 1 -3.09,-1.84 l -2.26,-4.23 H 637.4 a 3.5,3.5 0 0 1 -3.09,-5.15 l 9.09,-17 a 3.49,3.49 0 0 1 1.83,-1.62 L 633.49,42.77 a 3.53,3.53 0 0 1 0,-3.31 l 9.71,-18.12 a 3.52,3.52 0 0 1 3.09,-1.84 v 0 a 3.5,3.5 0 0 1 3.08,1.84 l 36.43,68 a 3.5,3.5 0 0 1 -3.08,5.15 z"
       fill="#1d1d1b"
       id="path65" />
    <path
       d="m 646.29,23 36.43,68 H 663.29 L 660,84.93 h -22.6 l 9.08,-17 H 651 L 636.57,41.11 646.29,23 m 0,-7 a 7,7 0 0 0 -6.17,3.69 l -9.71,18.12 a 7,7 0 0 0 0,6.61 l 10.4,19.41 a 7.18,7.18 0 0 0 -0.5,0.8 l -9.09,17 a 7,7 0 0 0 6.18,10.3 h 18.45 l 1.27,2.38 a 7,7 0 0 0 6.17,3.69 h 19.43 a 7,7 0 0 0 6.17,-10.3 l -36.43,-68 A 7,7 0 0 0 646.29,16 Z"
       fill="#ffffff"
       id="path67" />
    <path
       d="m 719.06,94.4 a 35.93,35.93 0 0 1 -23.9,-10.88 36.43,36.43 0 0 1 -11,-26.52 36.35,36.35 0 0 1 11,-26.52 35.88,35.88 0 0 1 23.9,-10.88 h 0.19 a 3.5,3.5 0 0 1 3.5,3.5 v 17.04 a 3.5,3.5 0 0 1 -3,3.47 12.89,12.89 0 0 0 -7.52,3.78 l -0.08,0.07 A 13,13 0 0 0 708.18,57 v 0.11 a 12.79,12.79 0 0 0 3.92,9.41 l 0.11,0.11 a 12.74,12.74 0 0 0 7.5,3.81 3.5,3.5 0 0 1 3,3.47 v 17 a 3.5,3.5 0 0 1 -3.5,3.5 z"
       fill="#1d1d1b"
       id="path69" />
    <path
       d="M 719.25,23.09 V 40.14 A 17.06,17.06 0 0 0 704.68,57 a 16.29,16.29 0 0 0 5,12 16.16,16.16 0 0 0 9.57,4.86 v 17 A 32.6,32.6 0 0 1 697.63,81 a 32.77,32.77 0 0 1 -10,-24 32.77,32.77 0 0 1 10,-24 32.6,32.6 0 0 1 21.62,-9.86 m 0,-7 h -0.38 A 39.47,39.47 0 0 0 692.68,28 a 39.89,39.89 0 0 0 -12,29 40,40 0 0 0 12,29 39.47,39.47 0 0 0 26.19,11.9 h 0.38 a 7,7 0 0 0 7,-7 v -17 a 7,7 0 0 0 -6.08,-6.94 9.18,9.18 0 0 1 -5.43,-2.76 l -0.21,-0.21 a 9.32,9.32 0 0 1 -2.85,-6.84 V 56.9 a 9.46,9.46 0 0 1 2.87,-6.9 l 0.15,-0.15 a 9.33,9.33 0 0 1 5.47,-2.75 7,7 0 0 0 6.08,-6.94 v -17 a 7,7 0 0 0 -7,-7 z"
       fill="#ffffff"
       id="path71" />
    <path
       d="m 735.86,51 a 3.49,3.49 0 0 1 -2.86,-1.5 14.06,14.06 0 0 0 -1.71,-2.06 13.12,13.12 0 0 0 -7.61,-3.83 3.5,3.5 0 0 1 -3,-3.47 v -17 a 3.5,3.5 0 0 1 3.5,-3.5 h 0.19 a 35.91,35.91 0 0 1 23.94,10.92 38.48,38.48 0 0 1 4.65,5.62 3.48,3.48 0 0 1 -0.95,4.88 L 737.8,50.44 A 3.47,3.47 0 0 1 735.86,51 Z"
       fill="#1d1d1b"
       id="path73" />
    <path
       d="M 724.11,23.09 A 32.56,32.56 0 0 1 745.72,33 35.22,35.22 0 0 1 750,38.11 l -14.14,9.42 A 17,17 0 0 0 733.73,45 16.52,16.52 0 0 0 724.11,40.18 v -17 m 0,-7 a 7,7 0 0 0 -7,7 v 16.96 a 7,7 0 0 0 6.07,6.94 9.51,9.51 0 0 1 5.54,2.77 l 0.07,0.07 a 10.11,10.11 0 0 1 1.29,1.55 7,7 0 0 0 5.79,3.06 6.92,6.92 0 0 0 3.87,-1.18 l 14.14,-9.42 A 7,7 0 0 0 755.79,34.17 42.74,42.74 0 0 0 750.71,28 39.46,39.46 0 0 0 724.49,16.1 Z"
       fill="#ffffff"
       id="path75" />
    <path
       d="m 724.11,94.41 a 3.5,3.5 0 0 1 -3.5,-3.5 V 73.85 a 3.5,3.5 0 0 1 3,-3.47 12.84,12.84 0 0 0 7.55,-3.81 15.12,15.12 0 0 0 1.8,-2.12 3.5,3.5 0 0 1 2.9,-1.45 3.45,3.45 0 0 1 1.94,0.59 L 751.94,73 a 3.48,3.48 0 0 1 0.95,4.88 38.67,38.67 0 0 1 -4.7,5.67 35.86,35.86 0 0 1 -23.89,10.85 z"
       fill="#1d1d1b"
       id="path77" />
    <path
       d="M 735.86,66.47 750,75.89 a 35.22,35.22 0 0 1 -4.28,5.16 32.56,32.56 0 0 1 -21.61,9.86 V 73.85 a 16.33,16.33 0 0 0 9.62,-4.85 19.81,19.81 0 0 0 2.13,-2.53 m 0,-7 a 7,7 0 0 0 -5.72,3 12.23,12.23 0 0 1 -1.36,1.6 1.14,1.14 0 0 1 -0.11,0.11 9.29,9.29 0 0 1 -5.49,2.77 7,7 0 0 0 -6.08,6.94 v 17.02 a 7,7 0 0 0 7,7 h 0.38 A 39.46,39.46 0 0 0 750.71,86 a 42.74,42.74 0 0 0 5.08,-6.13 7,7 0 0 0 -1.91,-9.76 l -14.14,-9.42 a 6.92,6.92 0 0 0 -3.87,-1.18 z"
       fill="#ffffff"
       id="path79" />
    <g
       id="Capa_1"
       data-name="Capa 1">
      <path
         id="path3904"
         d="M 296.15,72.89 286.43,91 250,23 h 19.43 z"
         fill="#1d1d1b" />
      <path
         id="path2987"
         d="M 288.86,50.2 303.43,23 h 19.43 l -24.28,45.32 z"
         fill="#1d1d1b" />
      <path
         id="path2989"
         d="m 327.82,23 h 17.05 l -0.05,68 h -17 z"
         fill="#1d1d1b" />
      <path
         id="path3908"
         d="m 352.11,23 h 17 v 68 h -17 z"
         fill="#1d1d1b" />
      <path
         id="path2991"
         d="M 374,40 V 23 h 7.29 a 32.76,32.76 0 0 1 24,10 32.78,32.78 0 0 1 10,24 32.78,32.78 0 0 1 -10,24 32.76,32.76 0 0 1 -24,10 H 374 V 74 h 7.29 a 17,17 0 0 0 0,-34 z"
         fill="#1d1d1b" />
      <path
         id="path3916"
         d="m 422.64,23 h 17.05 l -0.05,68 h -17 z"
         fill="#1d1d1b" />
      <path
         id="path3914"
         d="m 444.5,23 h 26.72 V 40 H 444.5 Z"
         fill="#1d1d1b" />
      <path
         id="path3912"
         d="m 444.5,74 h 26.72 V 91 H 444.5 Z"
         fill="#1d1d1b" />
      <path
         id="path2993"
         d="m 444.5,48.5 h 26.72 v 17 H 444.5 Z"
         fill="#1d1d1b" />
      <path
         id="path3920"
         d="m 529.46,59.43 h 17.1 a 32.46,32.46 0 0 1 -9.91,21.62 34,34 0 0 1 -48.09,0 32.56,32.56 0 0 1 -9.86,-21.62 h 17.1 a 16.23,16.23 0 0 0 4.81,9.57 16.94,16.94 0 0 0 24,0.08 L 524.69,69 a 16.23,16.23 0 0 0 4.77,-9.57 z"
         fill="#1d1d1b" />
      <path
         id="path2995"
         d="m 495.8,54.57 h -17.1 a 32.51,32.51 0 0 1 9.86,-21.57 34,34 0 0 1 48.09,0 32.46,32.46 0 0 1 9.91,21.62 h -17.1 a 17,17 0 0 0 -33.66,0 z"
         fill="#1d1d1b" />
      <path
         id="path3924"
         d="m 554,23 h 17 v 68 h -17 z"
         fill="#1d1d1b" />
      <path
         id="path2997"
         d="M 575.85,40 V 23 H 585 A 21.22,21.22 0 0 1 606.23,44.22 20.49,20.49 0 0 1 600,59.29 20.46,20.46 0 0 1 585,65.5 h -9.13 v -17 H 585 A 4.23,4.23 0 0 0 589.23,44.22 4.22,4.22 0 0 0 585,40 Z"
         fill="#1d1d1b" />
      <path
         id="path3928"
         d="M 643.86,63.8 629.28,91 h -19.43 l 24.3,-45.32 z"
         fill="#1d1d1b" />
      <path
         id="path2999"
         d="M 651,67.93 636.58,41.11 646.29,23 682.72,91 H 663.29 L 660,84.93 h -22.6 l 9.08,-17 z"
         fill="#1d1d1b" />
      <path
         id="path3934"
         d="m 719.25,73.86 v 17 A 32.6,32.6 0 0 1 697.63,81 a 32.77,32.77 0 0 1 -10,-24 32.77,32.77 0 0 1 10,-24 32.6,32.6 0 0 1 21.62,-9.86 v 17 A 17.06,17.06 0 0 0 704.68,57 a 16.29,16.29 0 0 0 5,12 16.16,16.16 0 0 0 9.57,4.86 z"
         fill="#1d1d1b" />
      <path
         id="path3932"
         d="M 735.86,47.53 A 17,17 0 0 0 733.73,45 16.52,16.52 0 0 0 724.11,40.18 v -17 A 32.56,32.56 0 0 1 745.72,33 35.22,35.22 0 0 1 750,38.11 Z"
         fill="#1d1d1b" />
      <path
         id="path3001"
         d="m 750,75.89 a 35.22,35.22 0 0 1 -4.28,5.16 32.56,32.56 0 0 1 -21.61,9.86 V 73.85 a 16.33,16.33 0 0 0 9.62,-4.85 19.81,19.81 0 0 0 2.13,-2.53 z"
         fill="#1d1d1b" />
    </g>
  </g>
  <metadata
     id="metadata922">
    <rdf:RDF>
      <cc:Work
         rdf:about="">
        <dc:title>logo</dc:title>
      </cc:Work>
    </rdf:RDF>
  </metadata>
</svg>
