<?xml version="1.0" encoding="UTF-8" standalone="no"?>
<svg
   viewBox="0 0 220.82402 114.0005"
   version="1.1"
   id="svg72"
   sodipodi:docname="pcengine.svg"
   width="220.82402"
   height="114.0005"
   inkscape:version="1.1 (c68e22c387, 2021-05-23)"
   xmlns:inkscape="http://www.inkscape.org/namespaces/inkscape"
   xmlns:sodipodi="http://sodipodi.sourceforge.net/DTD/sodipodi-0.dtd"
   xmlns="http://www.w3.org/2000/svg"
   xmlns:svg="http://www.w3.org/2000/svg"
   xmlns:rdf="http://www.w3.org/1999/02/22-rdf-syntax-ns#"
   xmlns:cc="http://creativecommons.org/ns#"
   xmlns:dc="http://purl.org/dc/elements/1.1/">
  <defs
     id="defs76" />
  <sodipodi:namedview
     id="namedview74"
     pagecolor="#ffffff"
     bordercolor="#666666"
     borderopacity="1.0"
     inkscape:pageshadow="2"
     inkscape:pageopacity="0.0"
     inkscape:pagecheckerboard="0"
     showgrid="false"
     fit-margin-top="0"
     fit-margin-left="0"
     fit-margin-right="0"
     fit-margin-bottom="0"
     inkscape:zoom="1.113"
     inkscape:cx="110.06289"
     inkscape:cy="56.603774"
     inkscape:window-width="1920"
     inkscape:window-height="1138"
     inkscape:window-x="-8"
     inkscape:window-y="-8"
     inkscape:window-maximized="1"
     inkscape:current-layer="svg72" />
  <title
     id="title2">logo</title>
  <g
     id="g930"
     transform="translate(-389.58796,4.8477906e-4)">
    <g
       id="Layer_2"
       data-name="Layer 2">
      <rect
         x="406.28714"
         y="45.638859"
         width="28.451929"
         height="23.202909"
         stroke-width="7"
         stroke="#ffffff"
         stroke-linecap="round"
         stroke-linejoin="round"
         fill="#ffffff"
         id="rect4" />
      <rect
         x="467.6669"
         y="45.638859"
         width="29.6502"
         height="13.20732"
         stroke-width="7"
         stroke="#ffffff"
         stroke-linecap="round"
         stroke-linejoin="round"
         fill="#ffffff"
         id="rect6" />
      <rect
         x="578.24298"
         y="55.198151"
         width="19.909651"
         height="19.909651"
         stroke-width="7"
         stroke="#ffffff"
         stroke-linecap="round"
         stroke-linejoin="round"
         fill="#ffffff"
         id="rect8" />
      <rect
         x="541.33356"
         y="36.882599"
         width="19.5"
         height="8"
         fill="#ffffff"
         id="rect10" />
    </g>
    <g
       id="Layer_1"
       data-name="Layer 1">
      <path
         d="m 475.11183,24.2762 c 0.78707,0 1.17717,0.53751 1.01427,1.48249 l -1.38631,7.40546 a 2.32216,2.32216 0 0 1 -1.93339,1.96992 l -7.5514,1.20386 2.0064,-10.83466 7.5514,-1.2038 a 2.04166,2.04166 0 0 1 0.299,-0.02327 m 0,-7 a 9.07572,9.07572 0 0 0 -1.32454,0.09877 l -0.0765,0.01177 -7.55138,1.2038 a 7,7 0 0 0 -5.781,5.6381 L 458.372,35.06331 a 6.99959,6.99959 0 0 0 7.985,8.18732 l 7.52654,-1.1999 a 9.33488,9.33488 0 0 0 7.743,-7.632 l 1.38,-7.372 q 0.009,-0.04938 0.0178,-0.09886 a 8.26738,8.26738 0 0 0 -1.74289,-6.8565 8.02459,8.02459 0 0 0 -6.16963,-2.81514 z"
         fill="#ffffff"
         id="path13" />
      <path
         d="m 450.2981,49.25187 -1.05791,5.69091 -14.55556,2.29827 -2.22528,11.96545 11.856,-1.89691 -1.05791,5.69087 -11.856,1.93348 -2.22534,11.9655 18.86027,-2.99139 -1.16737,6.27459 -24.8065,3.93982 7.73378,-41.62384 20.50182,-3.24675 m -5.98273,18.05772 h 0.005 m 5.97808,-25.0578 a 7.00019,7.00019 0 0 0 -1.09526,0.08624 l -20.50182,3.24675 a 7,7 0 0 0 -5.7873,5.63511 l -7.73377,41.62384 a 6.99956,6.99956 0 0 0 7.9802,8.19207 L 447.967,97.096 a 7,7 0 0 0 5.7839,-5.633 l 1.16734,-6.27459 a 7.00008,7.00008 0 0 0 -5.89985,-8.21114 6.98673,6.98673 0 0 0 1.12112,-2.69741 l 1.0157,-5.46376 a 7.01377,7.01377 0 0 0 -2.19062,-6.743 l 1.36732,-0.21589 a 7,7 0 0 0 5.79033,-5.635 l 1.05792,-5.69091 a 7.00012,7.00012 0 0 0 -6.88174,-8.27942 z m -3.5e-4,14.00008 z"
         fill="#ffffff"
         id="path15" />
      <path
         d="m 520.92371,55.19815 h 0.005 m -0.005,0 -4.45057,23.96748 -5.94628,0.94848 4.45062,-23.931 0.14589,-0.073 5.80034,-0.912 m 3.8e-4,-7.00009 q -0.11218,0 -0.22469,0.0036 a 7.02732,7.02732 0 0 0 -0.98927,0.10129 l -5.674,0.89214 a 6.99937,6.99937 0 0 0 -2.0446,0.65474 l -0.14587,0.073 a 7.00005,7.00005 0 0 0 -3.75016,4.9804 l -4.4506,23.931 a 6.99961,6.99961 0 0 0 7.98462,8.19252 l 5.94627,-0.94848 a 7,7 0 0 0 5.77972,-5.63462 l 4.40838,-23.7403 a 7.00592,7.00592 0 0 0 -6.73417,-8.50447 q -0.0527,-8e-4 -0.1056,-8e-4 z m -3.8e-4,14.00009 z"
         fill="#ffffff"
         id="path17" />
      <path
         d="m 575.097,46.66375 c 2.09739,0 3.50809,2.42284 3.06418,4.81346 l -0.69317,3.575 c -0.47425,2.55366 -3.10077,5.28969 -5.43555,5.65442 l -14.40967,2.29828 -0.21887,1.2768 a 1.87719,1.87719 0 0 0 1.72037,2.43419 2.01381,2.01381 0 0 0 0.32254,-0.02649 l 16.08777,-2.55358 -1.09443,5.8368 -18.16711,2.882 a 5.12059,5.12059 0 0 1 -0.7749,0.05957 4.43238,4.43238 0 0 1 -4.36884,-5.49511 v -9e-5 l 2.04291,-11.09 a 10.37473,10.37473 0 0 1 7.62439,-7.44188 L 574.659,46.69827 a 2.8324,2.8324 0 0 1 0.438,-0.03452 m -16.41634,11.05154 11.23591,-1.78752 A 2.594,2.594 0 0 0 571.85,53.92136 c 0.16531,-0.89294 -0.29877,-1.516 -1.03925,-1.51595 a 1.44649,1.44649 0 0 0 -0.23755,0.02028 l -2.882,0.43775 -4.59649,0.7296 -1.16736,0.18237 a 4.313,4.313 0 0 0 -3.13733,3.24678 l -0.10944,0.6931 M 575.097,39.66375 a 9.87014,9.87014 0 0 0 -1.51861,0.11844 l -13.87354,2.1906 c -6.2342,0.99169 -12.24759,6.85254 -13.41272,13.06608 l -2.047,11.112 a 11.7971,11.7971 0 0 0 2.4543,9.70925 11.43127,11.43127 0 0 0 8.79869,4.05407 12.16669,12.16669 0 0 0 1.833,-0.14 l 18.20575,-2.888 a 7,7 0 0 0 5.78335,-5.62351 l 1.09442,-5.83679 a 6.99814,6.99814 0 0 0 -0.3399,-3.78523 13.81593,13.81593 0 0 0 2.26886,-5.27457 l 0.68954,-3.55642 0.0104,-0.05444 A 11.64063,11.64063 0 0 0 582.65767,43.271 9.837,9.837 0 0 0 575.097,39.66377 Z"
         fill="#ffffff"
         id="path19" />
      <path
         d="m 498.01416,68.84177 h 0.005 m -0.005,0 -0.54718,2.8454 -1.7146,0.25537 c -0.78741,0.11023 -1.39117,0.26805 -1.7968,0.26805 -0.534,0 -0.72449,-0.27362 -0.53792,-1.28947 0.36481,-1.824 1.02147,-1.53217 2.882,-1.824 l 1.71452,-0.25531 m 4.3e-4,-7.00008 q -0.10989,0 -0.22022,0.0035 a 7.03466,7.03466 0 0 0 -0.93359,0.09118 l -1.59215,0.23708 -0.0539,0.0082 c -0.21472,0.03369 -0.40586,0.05444 -0.5761,0.07418 -4.50152,0.52224 -7.22172,2.97579 -8.08505,7.29249 q -0.0108,0.054 -0.0207,0.10826 a 7.99357,7.99357 0 0 0 1.56611,6.86769 7.57562,7.57562 0 0 0 5.85663,2.68631 11.78178,11.78178 0 0 0 2.18994,-0.2384 c 0.17238,-0.03118 0.36489,-0.06751 0.5774,-0.09726 l 0.0606,-0.0088 1.7146,-0.25536 a 7,7 0 0 0 5.84289,-5.60173 l 0.50338,-2.61764 a 7.00582,7.00582 0 0 0 -6.7276,-8.549 q -0.0511,-7.5e-4 -0.10222,-7.5e-4 z m -4.3e-4,14.00008 z"
         fill="#ffffff"
         id="path21" />
      <path
         d="m 452.70581,58.84617 h 0.005 m -0.005,0 -3.79394,20.50188 -14.04487,2.22528 0.51075,-2.84546 11.34533,-1.78752 2.77246,-14.811 -11.34533,1.78755 0.51074,-2.84546 14.04486,-2.22528 m 3.5e-4,-7.00009 q -0.11712,0 -0.23451,0.0039 a 7.03037,7.03037 0 0 0 -0.98766,0.10242 l -13.91847,2.20525 a 7.0001,7.0001 0 0 0 -5.79448,5.67709 l -0.51072,2.84546 a 6.99951,6.99951 0 0 0 7.97935,8.15137 l 1.55106,-0.24437 -0.0388,0.20757 -6.46356,1.01836 a 7,7 0 0 0 -5.80047,5.678 l -0.51075,2.84546 a 6.99959,6.99959 0 0 0 7.98533,8.15044 l 14.04486,-2.22528 a 7,7 0 0 0 5.78772,-5.64 l 3.752,-20.2751 a 7.00583,7.00583 0 0 0 -6.731,-8.49974 l -0.003,-5e-5 h -6.2e-4 q -0.0532,-8.1e-4 -0.10636,-8.1e-4 z m -3.5e-4,14.00009 z"
         fill="#ffffff"
         id="path23" />
      <path
         d="m 476.8802,62.20078 c 2.40567,0 3.63483,1.75557 3.11278,4.56158 l -3.42914,18.71436 -5.9463,0.94849 2.882,-15.5406 c 0.31013,-1.64357 -0.0649,-2.36442 -1.34978,-2.36442 a 5.09314,5.09314 0 0 0 -0.76605,0.06621 l -10.36039,1.6416 -3.39272,18.24005 -5.94623,0.94848 4.45056,-23.96746 0.146,-0.0365 19.69928,-3.13728 a 5.7553,5.7553 0 0 1 0.9,-0.07451 m 0,-7 a 12.79311,12.79311 0 0 0 -1.99626,0.16087 l -19.704,3.138 q -0.30126,0.048 -0.59751,0.122 l -0.14593,0.0365 a 7.00005,7.00005 0 0 0 -5.18393,5.51284 L 444.802,88.13853 a 6.99956,6.99956 0 0 0 7.985,8.1906 l 5.94623,-0.94848 a 7.00006,7.00006 0 0 0 5.76477,-5.55657 6.99911,6.99911 0 0 0 7.22218,3.51373 l 5.94631,-0.94849 a 7,7 0 0 0 5.7827,-5.651 L 486.87834,68.024 a 11.05647,11.05647 0 0 0 -2.10911,-9.26549 10.03369,10.03369 0 0 0 -7.889,-3.55771 z"
         fill="#ffffff"
         id="path25" />
      <path
         d="m 538.36157,34.22017 a 3.47791,3.47791 0 0 1 -0.56543,-0.0459 275.75532,275.75532 0 0 0 -31.69824,-3.27783 4.51061,4.51061 0 0 1 -3.11523,-1.47363 4.41676,4.41676 0 0 1 -1.12793,-3.28077 4.4758,4.4758 0 0 1 4.44433,-4.17773 c 0.0781,0 0.22461,0.0049 0.30274,0.01025 a 292.81842,292.81842 0 0 1 32.65136,3.39453 4.48435,4.48435 0 0 1 3.709,5.043 3.53894,3.53894 0 0 1 -0.0742,0.39112 4.50778,4.50778 0 0 1 -4.38086,3.417 z"
         fill="#ff0000"
         id="path27" />
      <path
         d="m 506.29939,25.46452 q 0.0341,0 0.0688,0.0023 a 289.78691,289.78691 0 0 1 32.32142,3.35619 0.9945,0.9945 0 0 1 0.80255,1.13091 1.01809,1.01809 0 0 1 -0.985,0.76611 v 0 h -0.14587 a 279.3282,279.3282 0 0 0 -32.1026,-3.31972 0.9687,0.9687 0 0 1 0.0407,-1.93571 m 0,-7 a 7.96828,7.96828 0 0 0 -0.50583,15.92026 q 0.071,0.0047 0.142,0.008 a 272.29779,272.29779 0 0 1 31.29486,3.23515 6.99986,6.99986 0 0 0 1.13086,0.092 h 0.14587 a 8.00185,8.00185 0 0 0 7.776,-6.06833 7.00291,7.00291 0 0 0 0.14764,-0.773 8.01106,8.01106 0 0 0 -6.65056,-8.97029 296.873,296.873 0 0 0 -33.03688,-3.43155 q -0.22359,-0.01239 -0.44392,-0.0123 z"
         fill="#ffffff"
         id="path29" />
      <path
         d="m 417.72144,84.01509 a 4.439,4.439 0 0 1 -2.00733,-0.48144 C 396.54028,74.25044 392.83032,64.31 393.1023,57.60982 c 0.21337,-5.58106 3.44677,-13.79785 17.6372,-21.20117 9.92676,-5.17237 23.74658,-9.24366 39.96729,-11.77344 a 4.76023,4.76023 0 0 1 0.67822,-0.05127 4.45852,4.45852 0 0 1 0.647,8.87109 c -34.0459,5.39893 -49.63916,16.20069 -49.96582,24.50733 -0.228,5.63086 6.19239,12.02246 17.61524,17.541 a 4.42584,4.42584 0 0 1 2.27148,2.53516 4.51764,4.51764 0 0 1 -0.16308,3.36523 4.40383,4.40383 0 0 1 -4.06839,2.61134 z"
         fill="#ff0000"
         id="path31" />
      <path
         d="m 451.38565,28.08411 a 0.95862,0.95862 0 0 1 0.1528,1.90621 c -32.212,5.10724 -52.49492,15.75947 -52.96917,27.83443 -0.29187,7.18657 6.67584,14.592 19.58984,20.83012 a 0.96106,0.96106 0 0 1 0.43774,1.31331 0.91506,0.91506 0 0 1 -0.87548,0.54716 l -7e-5,7e-5 a 0.97108,0.97108 0 0 1 -0.43774,-0.1095 C 403.42114,73.69358 396.271,65.85036 396.59931,57.75175 c 0.25536,-6.67586 5.6909,-12.987 15.75945,-18.24005 9.52131,-4.96131 22.98247,-8.93769 38.88781,-11.41829 a 1.05076,1.05076 0 0 1 0.13908,-0.0093 m 0,-7 a 8.08223,8.08223 0 0 0 -1.06356,0.07061 q -0.0772,0.01029 -0.15423,0.02231 c -16.59191,2.58766 -30.78464,6.78108 -41.04383,12.12689 -15.68222,8.18192 -19.27043,17.66523 -19.51962,24.18026 -0.31327,7.72722 3.70218,19.08238 24.60621,29.21123 A 7.96136,7.96136 0 0 0 424.986,82.82985 7.95959,7.95959 0 0 0 421.178,72.33923 c -11.72091,-5.667 -15.7373,-11.20684 -15.61448,-14.23041 0.21014,-5.35063 13.16647,-15.82514 47.04415,-21.20058 a 7.98879,7.98879 0 0 0 6.67186,-8.93795 l -0.009,-0.06383 a 7.99565,7.99565 0 0 0 -7.885,-6.82235 z"
         fill="#ffffff"
         id="path33" />
      <path
         d="m 507.134,100.57759 a 4.48487,4.48487 0 0 1 0,-8.96973 h 0.80274 c 53.374,0 89.64648,-14.20117 90.03711,-27.46484 0.13965,-4.6709 -4.26563,-9.89941 -12.40528,-14.72656 C 576.51682,44.02827 563.426,39.42915 547.70725,36.1147 a 4.48749,4.48749 0 0 1 1.80957,-8.79053 c 16.6582,3.54834 30.68261,8.5083 40.59961,14.35254 14.207,8.44238 16.96972,16.99268 16.7871,22.68115 -0.34667,10.957 -11.10156,20.26661 -31.10351,26.9209 -17.87793,5.99512 -41.98145,9.29883 -67.86328,9.29883 z"
         fill="#ff0000"
         id="path35" />
      <path
         d="m 548.63561,30.737 a 0.99619,0.99619 0 0 1 0.19543,0.01948 c 16.27016,3.46561 29.91371,8.281 39.508,13.93541 10.06854,5.98279 15.28522,12.73156 15.06635,19.55335 -0.29187,9.2295 -10.50629,17.65644 -28.7099,23.71209 -17.61994,5.9098 -41.33205,9.12006 -66.75872,9.12006 h -0.80256 a 0.985,0.985 0 1 1 0,-1.96991 h 0.80256 c 51.98424,0 93.0244,-13.49768 93.53514,-30.86224 0.18238,-6.09217 -4.70593,-12.25732 -14.11779,-17.83882 C 577.97869,40.825 564.51751,36.08256 548.42974,32.68995 a 0.98672,0.98672 0 0 1 0.20586,-1.953 m 0,-7 A 8.03517,8.03517 0 0 0 540.819,30.056 q -0.01,0.04676 -0.0194,0.09364 a 8.0263,8.0263 0 0 0 6.16252,9.38468 c 15.37057,3.24138 28.09164,7.69591 36.81122,12.88685 6.80191,4.03374 10.79873,8.37335 10.70169,11.61453 -0.11014,3.74482 -6.11063,10.04915 -22.65958,15.50418 -16.76086,5.52485 -39.44675,8.56752 -63.87871,8.56752 h -0.80256 a 7.985,7.985 0 1 0 0,15.96992 h 0.80256 c 26.25229,0 50.75151,-3.36794 68.98467,-9.48341 27.16742,-9.03753 33.20355,-21.37229 33.48044,-30.12747 0.21261,-6.62689 -2.822,-16.48412 -18.48706,-25.79238 -10.25925,-6.04639 -24.6456,-11.14727 -41.62546,-14.76407 l -0.0849,-0.01753 a 8.01475,8.01475 0 0 0 -1.56884,-0.15552 z"
         fill="#ffffff"
         id="path37" />
      <path
         d="m 489.62476,65.41158 a 3.50067,3.50067 0 0 1 -2.12061,-6.28614 l 23.86524,-18.16211 -2.21778,-10.03564 a 3.50014,3.50014 0 0 1 5.93945,-3.18213 l 6.832,7.09668 27.94824,-11.13135 a 3.49982,3.49982 0 0 1 3.417,6.03467 l -23.86716,18.19727 2.21586,10.00048 a 3.50015,3.50015 0 0 1 -5.93847,3.18506 l -6.832,-7.09765 -27.94783,11.13183 a 3.50081,3.50081 0 0 1 -1.29394,0.24903 z"
         fill="#ff0000"
         id="path39" />
      <path
         d="m 551.16577,26.96249 -25.64558,19.5534 2.69954,12.18433 -8.46338,-8.79167 -30.13263,12.00194 25.64558,-19.5169 -2.69954,-12.22082 8.46338,8.79167 30.13263,-12.002 m -0.002,-7.001 a 6.98164,6.98164 0 0 0 -2.58783,0.49788 l -25.76207,10.26119 -5.20072,-5.40244 a 7,7 0 0 0 -11.87822,6.36457 l 1.73423,7.85084 -22.08425,16.80664 a 6.9996,6.9996 0 0 0 6.82942,12.0735 l 25.76206,-10.26115 5.20072,5.40245 A 7,7 0 0 0 535.054,57.186 L 533.32225,49.36977 555.41,32.52907 a 7.0008,7.0008 0 0 0 -4.24661,-12.56758 z m 0.002,14.001 z"
         fill="#ffffff"
         id="path41" />
      <path
         d="m 476.78247,110.50044 a 3.50021,3.50021 0 0 1 -3.44189,-4.13574 l 2.36132,-12.77539 -10.2163,1.65332 a 3.52387,3.52387 0 0 0 -3.25586,0.47559 l -41.95215,6.67578 a 6.7212,6.7212 0 0 1 -1.04346,0.084 5.71738,5.71738 0 0 1 -4.42724,-2.02051 6.18638,6.18638 0 0 1 -1.22022,-5.18457 l 8.06006,-44.313 a 8.83839,8.83839 0 0 1 6.95166,-6.917 l 19.54736,-3.11181 4.62061,-24.93018 a 3.49955,3.49955 0 0 1 2.89258,-2.81885 l 23.89453,-3.79394 a 12.67629,12.67629 0 0 1 1.95508,-0.15479 10.95531,10.95531 0 0 1 8.5747,3.95264 12.54085,12.54085 0 0 1 2.47217,10.3584 l -1.64307,8.83691 c -1.40283,7.604 -9.01367,15.28125 -16.28564,16.42481 l -8.498,1.35986 -1.08594,5.83594 10.09864,-1.59766 a 8.63427,8.63427 0 0 1 1.30078,-0.0957 12.73017,12.73017 0 0 1 6.21826,1.75976 18.81324,18.81324 0 0 1 8.479,-3.96533 l 4.02735,-0.68359 a 3.5,3.5 0 0 1 2.72021,6.22412 l -6.105,4.69873 a 3.498,3.498 0 0 1 -1.42285,1.3623 4.17173,4.17173 0 0 0 -2.07226,2.92676 l -2.48145,13.39063 a 3.58329,3.58329 0 0 0 -0.0537,0.40429 c 0.0249,-0.0039 13.98,-2.20019 13.98,-2.20019 a 3.418,3.418 0 0 1 0.54443,-0.043 3.49841,3.49841 0 0 1 2.51123,1.0625 c 0.0479,0.04883 0.0928,0.09766 0.13672,0.14844 l 3.40235,-18.34766 -3.57129,0.56445 a 3.6221,3.6221 0 0 1 -0.54883,0.043 3.50021,3.50021 0 0 1 -1.2002,-6.78711 L 518.553,48.44576 a 3.49887,3.49887 0 0 1 3.87207,1.02294 l 3.99219,4.707 -1.42481,-3.15528 a 3.50072,3.50072 0 0 1 2.63965,-4.897 l 16.708,-2.66309 a 8.476,8.476 0 0 1 1.34863,-0.10351 12.44881,12.44881 0 0 1 5.61621,1.44873 16.249,16.249 0 0 1 7.502,-3.64014 l 15.01367,-2.375 a 10.07507,10.07507 0 0 1 1.56152,-0.1167 12.46086,12.46086 0 0 1 9.29883,4.11328 10.99374,10.99374 0 0 1 2.21973,9.3125 l -0.415,2.15674 a 14.15962,14.15962 0 0 1 -1.71387,4.38965 3.49738,3.49738 0 0 1 0.44141,2.44629 l -2.44443,13.13288 a 3.49821,3.49821 0 0 1 -2.89063,2.81543 l -26.12011,4.1582 a 10.90394,10.90394 0 0 1 -1.70215,0.13477 q -0.50538,0 -1.00684,-0.04785 a 3.50069,3.50069 0 0 1 -1.375,0.5332 l -15.10351,2.4082 a 3.50554,3.50554 0 0 0 -3.2461,0.51074 l -18.71777,2.98536 c -3.38574,12.81152 -12.91992,20.09277 -28.37451,21.65527 l -6.90918,1.08008 a 3.48469,3.48469 0 0 1 -0.54053,0.042 z m -50.373,-20.6123 0.76026,-0.12012 a 3.48391,3.48391 0 0 1 -0.501,-0.42676 c -0.0454,-0.0459 -0.0889,-0.09375 -0.13135,-0.1416 z m 3.353,-18.04688 c 0.084,-0.04492 0.17041,-0.08593 0.25879,-0.124 -0.0229,-0.02148 -0.15576,-0.16016 -0.19727,-0.207 z m 124.80908,-3.78808 a 1.37583,1.37583 0 0 0 0.17383,1.06054 0.95288,0.95288 0 0 0 0.75293,0.30079 1.62671,1.62671 0 0 0 0.2461,-0.01954 l 0.44921,-0.07129 a 5.20832,5.20832 0 0 1 -1.10937,-1.01171 5.28807,5.28807 0 0 1 -0.44434,-0.63086 z M 475.2073,65.94185 a 4.52972,4.52972 0 0 1 0.80761,0.76074 4.64348,4.64348 0 0 1 0.34375,0.47363 l 0.19141,-1.04492 a 3.78591,3.78591 0 0 0 0.0552,-0.41113 c -0.0254,0.0039 -1.39796,0.22168 -1.39796,0.22168 z M 561.342,52.34419 a 6.99234,6.99234 0 0 0 -4.72949,4.6294 l -0.53223,2.88916 a 3.49106,3.49106 0 0 1 0.99024,-0.31348 l 14.41015,-2.29883 a 4.508,4.508 0 0 0 2.5459,-2.83789 l 0.69922,-3.60205 a 1.28592,1.28592 0 0 0 -0.0273,-0.57519 z m -16.957,2.64453 a 4.44842,4.44842 0 0 1 0.72168,0.69532 l 0.0186,0.02148 c 0.0615,-0.31787 0.11719,-0.603 0.168,-0.85986 z M 469.59937,32.101 l 1.834,-0.292 0.66064,-3.53223 -1.84082,0.29346 z"
         fill="#ff0000"
         id="path43" />
      <path
         d="m 481.5085,12.73346 c 5.10153,1.7e-4 8.64243,4.52147 7.60452,10.17973 l -1.64157,8.82823 c -1.13093,6.12865 -7.58789,12.69507 -13.38827,13.60708 l -10.944,1.75107 -2.44418,13.13281 14.99334,-2.3712 a 5.07122,5.07122 0 0 1 0.75335,-0.05272 9.00533,9.00533 0 0 1 6.46972,2.97119 15.214,15.214 0 0 1 8.75528,-5.21669 l 4.08573,-0.69312 -6.96769,5.36254 -0.0365,0.3648 a 7.65731,7.65731 0 0 0 -3.90339,5.39908 l -2.48062,13.38823 c -0.52209,2.8062 0.70679,4.56159 3.1128,4.56159 a 5.75718,5.75718 0 0 0 0.9,-0.07451 l 13.89891,-2.18881 -0.58369,3.10077 c -0.912,4.92489 -6.16515,9.63081 -10.87107,10.36043 l -5.32612,0.839 -1.05793,5.69092 7.0042,-1.09442 c 6.85831,-1.09439 14.592,-7.98916 15.94185,-15.2487 l 5.28961,-28.5275 -0.14592,0.0365 -8.31749,1.31324 17.54692,-6.4205 4.88838,5.76385 -3.86688,20.90311 5.94623,-0.94846 3.39265,-18.24 10.36039,-1.64158 a 5.08756,5.08756 0 0 1 0.76606,-0.0662 c 1.28444,1e-4 1.65987,0.72107 1.34978,2.3644 l -2.882,15.54062 5.39908,-0.83908 c 0,0 3.86693,-20.57481 4.0128,-21.01258 a 2.89772,2.89772 0 0 0 -3.12037,-2.29537 6.02629,6.02629 0 0 0 -0.89243,0.0701 l -15.06631,2.37123 -1.86046,-4.12227 16.70788,-2.66308 a 4.98244,4.98244 0 0 1 0.79833,-0.06008 9.10864,9.10864 0 0 1 5.987,2.46781 13.929,13.929 0 0 1 7.69731,-4.70595 l 14.99335,-2.37119 a 6.57367,6.57367 0 0 1 1.0148,-0.07375 c 3.508,1.3e-4 9.25787,2.33707 8.06876,9.33967 l -0.40131,2.07938 a 13.46071,13.46071 0 0 1 -2.95487,5.65442 l 1.67807,1.20389 -2.44415,13.1328 -26.11981,4.15873 a 7.38111,7.38111 0 0 1 -1.15131,0.09109 6.606,6.606 0 0 1 -2.71562,-0.56531 l -0.21889,1.09442 -15.10269,2.40768 3.10081,-16.708 c 0.2289,-1.21311 0.41472,-1.53582 0.0618,-1.53581 -0.20953,0 -0.609,0.11379 -1.30219,0.2225 l -1.71453,0.29188 -3.39266,18.24 -21.04907,3.35619 c -2.07935,10.65223 -8.68224,19.55334 -25.93735,21.268 L 476.78272,107 l 2.84545,-15.39457 5.32612,-0.839 c 4.70593,-0.72962 7.77027,-1.31331 8.208,-3.648 l -11.67366,1.824 a 1.60314,1.60314 0 0 1 -0.26346,0.02016 c -0.36958,0 -0.76336,-0.10025 -1.08627,-0.12962 l -0.10942,0.51077 -15.10277,2.44415 3.10077,-16.708 c 0.2289,-1.21311 0.42911,-1.53579 0.0779,-1.53579 -0.20852,0 -0.61148,0.11382 -1.31822,0.22256 l -1.7146,0.25531 L 461.68,92.262 419.72776,98.93785 a 3.1833,3.1833 0 0 1 -0.49352,0.03967 c -1.574,0 -2.53738,-1.27794 -2.206,-3.06752 l 8.06212,-44.32342 a 5.33549,5.33549 0 0 1 4.0493,-4.08573 l 21.9975,-3.50208 5.07074,-27.36012 23.89453,-3.794 a 9.102,9.102 0 0 1 1.4061,-0.11122 m -16.25353,23.60448 7.55139,-1.20384 a 2.32214,2.32214 0 0 0 1.93338,-1.96992 l 1.38631,-7.40547 c 0.16292,-0.945 -0.22713,-1.4825 -1.0143,-1.48248 a 2.04406,2.04406 0 0 0 -0.299,0.02325 l -7.55138,1.20382 -2.0064,10.83464 m 90.24307,36.57623 a 5.126,5.126 0 0 0 0.77492,-0.05957 l 18.16711,-2.882 1.09443,-5.83677 -16.08777,2.55357 a 2.01238,2.01238 0 0 1 -0.32254,0.02649 1.87727,1.87727 0 0 1 -1.72037,-2.43418 l 0.21887,-1.27681 14.40967,-2.29826 c 2.33478,-0.36477 4.9613,-3.10077 5.43555,-5.65443 l 0.69317,-3.575 c 0.44394,-2.39075 -0.96658,-4.81345 -3.06418,-4.81345 a 2.83423,2.83423 0 0 0 -0.438,0.03453 L 560.7965,48.8871 a 10.37478,10.37478 0 0 0 -7.62439,7.44188 l -2.04289,11.09 v 0 a 4.43211,4.43211 0 0 0 4.3688,5.49511 m -105.2,-23.66226 -20.50185,3.24673 -7.73376,41.62385 24.80659,-3.93976 1.16734,-6.27462 -18.86024,2.99142 2.22534,-11.96554 11.856,-1.93345 1.05792,-5.69085 -11.856,1.89692 2.22526,-11.96546 14.55554,-2.29831 1.05793,-5.69088 m 60.22877,30.86223 5.94627,-0.9485 4.45058,-23.96747 -5.80035,0.912 -0.14589,0.073 -4.45061,23.931 m -72.37665,-16.19722 11.34535,-1.78754 -2.77246,14.811 -11.34535,1.78753 -0.51073,2.84547 14.04485,-2.22527 3.79393,-20.50192 -14.0448,2.22527 -0.51074,2.84546 m 13.53416,25.49961 5.94623,-0.9485 3.39273,-18.24 10.36035,-1.64161 a 5.09023,5.09023 0 0 1 0.766,-0.0662 c 1.28464,0 1.65993,0.721 1.34984,2.36443 l -2.882,15.54058 5.94628,-0.94847 3.42915,-18.71439 c 0.5221,-2.80619 -0.70679,-4.56169 -3.11278,-4.56158 a 5.76043,5.76043 0 0 0 -0.9,0.07451 l -19.69931,3.13727 -0.14592,0.0365 -4.45058,23.96746 M 481.50876,5.73346 h -2.8e-4 a 16.1626,16.1626 0 0 0 -2.48642,0.19511 l -23.91188,3.7967 a 7,7 0 0 0 -5.78512,5.63777 l -4.17,22.5 -17.116,2.72492 a 12.3085,12.3085 0 0 0 -9.83169,9.724 l -8.06616,44.34534 a 9.74012,9.74012 0 0 0 1.97493,8.038 9.20674,9.20674 0 0 0 7.11808,3.28223 10.21713,10.21713 0 0 0 1.57865,-0.12427 L 462.78,99.175 a 7.00136,7.00136 0 0 0 1.5076,-0.41642 q 0.31751,0.02913 0.63869,0.02924 a 6.99875,6.99875 0 0 0 1.11871,-0.09 l 5.31253,-0.85975 -1.45827,7.88956 a 6.99957,6.99957 0 0 0 7.964,8.18838 l 6.81656,-1.065 c 15.89285,-1.63351 26.3899,-9.20828 30.64906,-22.01857 l 16.54664,-2.63829 a 7,7 0 0 0 1.57917,-0.44614 q 0.28107,0.0228 0.565,0.02287 a 6.99825,6.99825 0 0 0 1.1024,-0.08739 l 15.10277,-2.40773 a 6.999,6.999 0 0 0 1.57458,-0.44421 q 0.129,0.0024 0.25789,0.0024 a 14.429,14.429 0 0 0 2.243,-0.17672 l 26.12874,-4.16016 a 7,7 0 0 0 5.78119,-5.63216 l 2.44415,-13.1328 a 6.98968,6.98968 0 0 0 -0.058,-2.84164 16.38862,16.38862 0 0 0 1.33163,-3.99984 l 0.39575,-2.05052 q 0.0149,-0.07707 0.0281,-0.15458 A 14.39093,14.39093 0 0 0 587.35526,40.52922 15.7632,15.7632 0 0 0 575.3822,35.174 a 13.56924,13.56924 0 0 0 -2.10327,0.15884 l -14.99856,2.372 a 18.881,18.881 0 0 0 -7.45412,3.07753 15.376,15.376 0 0 0 -5.13677,-0.9253 11.99725,11.99725 0 0 0 -1.926,0.1515 l -16.682,2.65893 a 7,7 0 0 0 -4.469,2.674 6.99677,6.99677 0 0 0 -5.26149,-0.18276 l -15.80411,5.7828 a 6.99571,6.99571 0 0 0 -6.96524,-2.97311 l -4.03677,0.68482 a 21.72055,21.72055 0 0 0 -8.27016,3.35142 17.00885,17.00885 0 0 0 -3.02584,-0.90371 c 7.21974,-2.9705 13.69525,-10.442 15.10638,-18.08929 l 1.63985,-8.81882 A 16.03777,16.03777 0 0 0 492.77244,10.9457 14.592,14.592 0 0 0 481.5088,5.73344 Z m 12.87109,59.02582 2.57411,-1.9811 a 7.009,7.009 0 0 0 5.05166,2.37281 l -1.7674,9.5318 a 6.99679,6.99679 0 0 0 -1.05124,0.0852 l -9.11383,1.43525 1.65453,-8.93171 a 0.78409,0.78409 0 0 1 0.25308,-0.46588 6.96522,6.96522 0 0 0 2.39909,-2.04637 z"
         fill="#ffffff"
         id="path45" />
      <path
         d="m 558.68091,61.21529 a 3.49923,3.49923 0 0 1 -3.457,-4.0459 l 0.10937,-0.69287 a 7.779,7.779 0 0 1 6.04785,-6.15821 l 5.76172,-0.91162 2.90528,-0.4414 a 4.76721,4.76721 0 0 1 0.76269,-0.06006 4.53132,4.53132 0 0 1 3.501,1.6206 4.87973,4.87973 0 0 1 0.97949,4.03369 6.10579,6.10579 0 0 1 -4.7998,4.82081 l -11.26075,1.791 a 3.48653,3.48653 0 0 1 -0.54985,0.04396 z"
         fill="#ff0000"
         id="path47" />
      <path
         d="m 570.81079,52.40541 c 0.74039,0 1.20456,0.62306 1.03925,1.51594 a 2.594,2.594 0 0 1 -1.93347,2.00641 l -11.23591,1.78755 0.10944,-0.69312 a 4.313,4.313 0 0 1 3.13733,-3.24676 l 1.16736,-0.18238 4.59649,-0.72962 2.882,-0.43774 a 1.4443,1.4443 0 0 1 0.23755,-0.02028 m 0,-7 a 8.46736,8.46736 0 0 0 -1.31766,0.104 l -2.853,0.43335 -4.6427,0.7368 -1.15049,0.17972 a 11.30423,11.30423 0 0 0 -8.957,8.98472 l -0.0142,0.0864 -0.10945,0.69312 a 6.99957,6.99957 0 0 0 8.01418,8.00479 l 11.2359,-1.78753 0.051,-0.0083 a 9.57925,9.57925 0 0 0 7.66553,-7.63623 8.368,8.368 0 0 0 -1.731,-6.90912 8.02039,8.02039 0 0 0 -6.19113,-2.88174 z"
         fill="#ffffff"
         id="path49" />
      <path
         d="m 489.71314,81.311 a 4.77069,4.77069 0 0 1 -3.84278,-1.668 5.798,5.798 0 0 1 -0.92822,-4.83594 l 1.312,-7.14453 a 6.75366,6.75366 0 0 1 6.04785,-5.92773 l 10.8584,-1.71289 a 3.4241,3.4241 0 0 1 0.54492,-0.043 3.50076,3.50076 0 0 1 3.44141,4.14062 l -2.335,12.54981 a 3.50007,3.50007 0 0 1 -2.89649,2.8164 l -10.87109,1.71387 a 8.57833,8.57833 0 0 1 -1.331,0.11139 z"
         fill="#ff0000"
         id="path51" />
      <path
         d="m 503.70509,63.47915 h 0.005 m -0.005,0 -2.33473,12.54914 -10.87109,1.7146 a 5.22734,5.22734 0 0 1 -0.78559,0.06834 c -1.26887,0 -1.63879,-0.7006 -1.33026,-2.36662 l 1.31328,-7.15008 a 3.31017,3.31017 0 0 1 3.13728,-3.10084 l 10.87111,-1.71454 m -9.74951,8.73144 c 0.40563,0 1.00951,-0.15783 1.7968,-0.26806 l 1.7146,-0.25537 0.54718,-2.84539 -1.71454,0.2553 c -1.86047,0.29188 -2.51715,0 -2.882,1.824 -0.1866,1.016 0.004,1.28949 0.53792,1.28949 m 9.74986,-15.73153 q -0.12,0 -0.24041,0.0041 a 7.02421,7.02421 0 0 0 -0.97629,0.10127 l -10.74527,1.69469 a 10.18929,10.18929 0 0 0 -8.92538,8.71749 L 481.49854,74.18 a 8.96161,8.96161 0 0 0 1.68074,7.70152 8.27333,8.27333 0 0 0 6.53436,2.92966 12.07166,12.07166 0 0 0 1.84975,-0.1497 l 10.89749,-1.71872 a 7,7 0 0 0 5.79137,-5.63416 l 2.29254,-12.32246 a 7.00587,7.00587 0 0 0 -6.72536,-8.5062 c -0.038,-6.3e-4 -0.0759,-9.3e-4 -0.114,-9.3e-4 z m -3.5e-4,14.00009 z"
         fill="#ffffff"
         id="path53" />
      <path
         d="m 522.4563,41.07808 a 3.49721,3.49721 0 0 1 -2.40039,-0.95313 l -3.83106,-3.61132 a 3.49939,3.49939 0 0 1 1.84571,-6.00245 l 4.998,-0.80273 a 3.49952,3.49952 0 0 1 3.99317,4.10986 l -0.4375,2.29834 a 10.17251,10.17251 0 0 1 -0.66992,2.13721 c -0.0664,0.16065 -0.13965,0.33643 -0.22071,0.55273 a 3.50032,3.50032 0 0 1 -3.27734,2.27149 z"
         fill="#ff0000"
         id="path55" />
      <path
         d="m 523.62323,33.1641 h 0.005 m -0.005,0 -0.43774,2.29827 a 11.17037,11.17037 0 0 1 -0.72962,2.11584 l -3.83038,-3.61151 4.99774,-0.8026 m 3.8e-4,-7.00008 q -0.11446,0 -0.22909,0.0038 a 7.02238,7.02238 0 0 0 -1.00914,0.10544 l -4.86982,0.78206 a 7,7 0 0 0 -3.69216,12.00456 l 3.83038,3.6115 a 7,7 0 0 0 11.35638,-2.63521 c 0.0646,-0.17217 0.1236,-0.312 0.17665,-0.43994 a 13.49734,13.49734 0 0 0 0.86277,-2.7611 l 0.0123,-0.063 0.39438,-2.07058 a 7.0058,7.0058 0 0 0 -6.727,-8.5367 q -0.0528,-8.1e-4 -0.10564,-8e-4 z m -3.8e-4,14.00008 z"
         fill="#ffffff"
         id="path57" />
      <path
         d="M 495.75366,55.13081 A 11.21917,11.21917 0 0 1 486.95044,51.0937 12.87128,12.87128 0 0 1 484.46851,40.43892 L 487.825,22.48921 c 1.42676,-7.9375 9.09863,-15.70166 16.74756,-16.93066 L 516.5833,3.66011 a 13.34074,13.34074 0 0 1 2.04,-0.16016 11.22183,11.22183 0 0 1 8.8037,4.03565 12.87259,12.87259 0 0 1 2.48242,10.65625 l -0.47363,2.55224 a 3.50054,3.50054 0 0 1 -2.88867,2.81641 l -12.54883,2.00635 a 3.499,3.499 0 0 1 -4.0459,-3.24121 l -2.47949,0.394 -2.4629,13.20317 2.39844,-0.38086 0.1875,-1.01221 a 3.5,3.5 0 0 1 3.02441,-2.83447 l 0.91211,-0.10938 a 3.50082,3.50082 0 0 1 3.81055,2.6167 l 1.60547,6.34766 a 3.49949,3.49949 0 0 1 -1.25586,3.62939 l -12.29395,9.48487 a 3.50232,3.50232 0 0 1 -1.60351,0.688 l -4.01221,0.62012 a 13.31549,13.31549 0 0 1 -2.02783,0.1582 z"
         fill="#ff0000"
         id="path59" />
      <path
         d="m 518.62354,7 c 5.33134,0 8.94871,4.63155 7.84515,10.55057 l -0.47423,2.55365 -12.54913,2.00641 0.40121,-2.15235 c 0.16475,-0.98816 -0.29513,-1.5897 -1.138,-1.5897 a 2.014,2.014 0 0 0 -0.28473,0.02111 l -6.2016,0.98491 a 2.55825,2.55825 0 0 0 -2.07941,2.11583 l -3.13727,16.81739 c -0.16468,0.98823 0.29517,1.58972 1.138,1.58972 a 2.01461,2.01461 0 0 0 0.28467,-0.02111 l 6.20161,-0.98493 a 2.68486,2.68486 0 0 0 2.11585,-2.15233 l 0.29187,-1.56866 0.912,-0.10944 1.60515,6.34753 -12.29381,9.48486 -4.01282,0.62018 a 9.7641,9.7641 0 0 1 -1.49377,0.11727 c -5.33135,0 -8.94873,-4.6316 -7.84517,-10.55061 l 3.35614,-17.94825 c 1.1674,-6.49347 7.73383,-13.13289 13.86247,-14.1178 l 12.002,-1.897 A 9.763,9.763 0 0 1 518.62354,7 m 0,-7 a 16.82118,16.82118 0 0 0 -2.56438,0.19965 L 504.035,2.1001 c -9.1501,1.47043 -17.96118,10.34843 -19.65919,19.79333 l -3.34735,17.90023 a 16.3563,16.3563 0 0 0 3.23007,13.53768 14.85838,14.85838 0 0 0 11.49585,5.29957 16.82114,16.82114 0 0 0 2.56438,-0.19963 l 4.01136,-0.62 a 7.00034,7.00034 0 0 0 3.20678,-1.37562 l 12.29382,-9.48487 a 7,7 0 0 0 2.51042,-7.25838 L 518.736,33.34494 a 6.99139,6.99139 0 0 0 -3.45285,-4.43925 l 11.8165,-1.88927 a 7.00007,7.00007 0 0 0 5.77719,-5.63413 l 0.47423,-2.55363 A 16.35105,16.35105 0 0 0 530.11943,5.29955 14.8585,14.8585 0 0 0 518.62352,0 Z m -8.62044,28.24735 0.007,-0.03755 0.052,0.029 z"
         fill="#ffffff"
         id="path61" />
      <path
         d="m 417.72134,80.51539 a 0.97145,0.97145 0 0 1 -0.43776,-0.10945 C 403.42112,73.6936 396.271,65.85036 396.59932,57.75175 c 0.25537,-6.67586 5.69092,-12.98693 15.75944,-18.24008 9.52131,-4.9613 22.9825,-8.93764 38.88785,-11.41829 a 0.95965874,0.95965874 0 1 1 0.29184,1.897 c -32.212,5.10723 -52.495,15.75943 -52.96919,27.83437 -0.29184,7.18659 6.67587,14.59206 19.58985,20.83017 a 0.961,0.961 0 0 1 0.43776,1.31328 0.91508,0.91508 0 0 1 -0.87552,0.5472 z M 538.50716,30.72 h -0.14592 a 279.32474,279.32474 0 0 0 -32.10254,-3.3197 0.96827243,0.96827243 0 1 1 0.10944,-1.93345 289.77139,289.77139 0 0 1 32.32142,3.35615 0.99442,0.99442 0 0 1 0.80256,1.13089 1.018,1.018 0 0 1 -0.985,0.76609 z m -30.57038,66.35737 h -0.80256 a 0.985,0.985 0 0 1 0,-1.96993 h 0.80256 c 51.98423,0 93.02441,-13.49766 93.53514,-30.86222 0.1824,-6.09218 -4.70593,-12.25734 -14.11782,-17.83879 -9.3754,-5.58147 -22.83659,-10.3239 -38.92434,-13.71654 a 0.98733,0.98733 0 0 1 0.40128,-1.93345 c 16.27015,3.46561 29.91373,8.281 39.508,13.93543 10.06853,5.98275 15.2852,12.73158 15.06631,19.55337 -0.29184,9.22948 -10.50629,17.6564 -28.70988,23.71209 -17.61992,5.90979 -41.332,9.12 -66.7587,9.12 z"
         fill="#ff0000"
         id="path63" />
      <path
         d="m 525.52022,46.51587 25.64555,-19.55336 -30.13261,12.002 -8.4634,-8.79172 2.69953,12.22084 -25.64555,19.51686 30.13261,-12.002 8.4634,8.79172"
         fill="#ff0000"
         id="path65" />
      <path
         d="m 493.41768,70.9211 c 0.3648,-1.824 1.02144,-1.53217 2.88193,-1.824 l 1.71457,-0.25536 -0.5472,2.84545 -1.71457,0.25535 c -1.82401,0.25536 -2.66305,0.76609 -2.33473,-1.02144 z m -3.721,-2.62658 -1.31328,7.15011 c -0.36481,1.96993 0.21888,2.59009 2.11585,2.29826 l 10.87109,-1.71458 2.33473,-12.54918 -10.87107,1.71457 a 3.31014,3.31014 0 0 0 -3.1373,3.10082 z m 69.09343,-11.27236 -0.10944,0.69313 11.23589,-1.78754 A 2.59389,2.59389 0 0 0 571.85,53.92134 c 0.1824,-0.985 -0.40128,-1.64161 -1.2768,-1.49568 l -2.88193,0.43777 -4.5965,0.7296 -1.16737,0.1824 a 4.31289,4.31289 0 0 0 -3.13727,3.24673 z m -78.76065,32.32142 0.10944,-0.51071 a 5.47707,5.47707 0 0 0 1.34976,0.10945 l 11.67365,-1.824 c -0.43776,2.33474 -3.50209,2.91842 -8.208,3.648 l -5.3261,0.839 -2.84549,15.39468 7.00419,-1.09441 c 17.25512,-1.71457 23.858,-10.61572 25.9374,-21.26794 l 21.04905,-3.35618 3.39264,-18.24007 1.71456,-0.29184 c 1.86049,-0.29184 1.60513,-0.62017 1.24033,1.31328 l -3.10079,16.70792 15.10278,-2.4077 0.21888,-1.09441 a 6.8339,6.8339 0 0 0 3.8669,0.47425 l 26.1198,-4.15873 2.44417,-13.13286 -1.67809,-1.20385 a 13.46054,13.46054 0 0 0 2.9549,-5.65443 l 0.40128,-2.07937 c 1.31329,-7.73379 -5.83682,-9.77668 -9.08356,-9.266 l -14.99334,2.37122 a 13.929,13.929 0 0 0 -7.69732,4.70594 8.79731,8.79731 0 0 0 -6.78531,-2.40769 l -16.70791,2.663 1.86049,4.12225 15.0663,-2.37121 c 2.18881,-0.32832 3.61154,0.51072 4.01282,2.22529 -0.14592,0.43776 -4.01282,21.01258 -4.01282,21.01258 l -5.39906,0.839 2.88193,-15.54054 c 0.36481,-1.93345 -0.21888,-2.59009 -2.11585,-2.29825 l -10.36036,1.64175 -3.39266,18.24008 -5.94626,0.94848 3.86689,-20.90316 -4.88834,-5.76386 -17.547,6.4205 8.31748,-1.31329 0.14592,-0.03648 -5.28963,28.52749 c -1.34976,7.25954 -9.08356,14.15429 -15.94183,15.24871 l -7.00419,1.09441 1.05792,-5.69092 5.32611,-0.839 c 4.70594,-0.72961 9.95908,-5.43554 10.87109,-10.36036 l 0.58368,-3.10083 -13.89891,2.18878 c -2.99138,0.47425 -4.5965,-1.34977 -4.01282,-4.48706 l 2.48065,-13.38822 a 7.65736,7.65736 0 0 1 3.90338,-5.399 l 0.0365,-0.36481 6.96771,-5.36259 -4.08578,0.69313 a 15.21393,15.21393 0 0 0 -8.75524,5.21666 8.80825,8.80825 0 0 0 -7.22307,-2.91841 l -14.99331,2.37116 2.44417,-13.13286 10.94405,-1.751 c 5.80035,-0.912 12.25734,-7.47843 13.38822,-13.6071 l 1.64161,-8.8282 c 1.13088,-6.16514 -3.17378,-10.98052 -9.0106,-10.06852 l -23.89451,3.79393 -5.07074,27.36012 -21.99754,3.50209 a 5.33561,5.33561 0 0 0 -4.0493,4.08579 L 417.02822,95.91 c -0.36481,1.96993 0.839,3.3197 2.69952,3.02786 l 41.95219,-6.67586 3.39266,-18.24008 1.71457,-0.25536 c 1.897,-0.29183 1.60513,-0.62016 1.24032,1.31329 l -3.10081,16.70792 15.10279,-2.44418 z M 448.91188,79.348 434.867,81.57331 l 0.51072,-2.84544 11.34533,-1.78754 2.77249,-14.811 -11.34533,1.78753 0.51072,-2.84544 14.04487,-2.22529 z m -0.87552,4.56 -1.16736,6.27464 -24.80652,3.93986 7.73379,-41.62388 20.50185,-3.24673 -1.05792,5.69091 -14.55559,2.29825 -2.22528,11.96549 11.856,-1.897 -1.05792,5.69091 -11.85601,1.93348 -2.22529,11.96549 z m 28.52748,1.56864 -5.94626,0.94848 2.88193,-15.54054 c 0.3648,-1.93345 -0.21888,-2.59009 -2.11585,-2.29825 l -10.36036,1.64167 -3.39266,18.24008 -5.94627,0.94848 4.45063,-23.96748 0.14592,-0.03649 19.69929,-3.13728 c 2.99137,-0.47425 4.5965,1.34976 4.01282,4.48705 z m 38.55954,-29.36653 5.80034,-0.912 -4.45058,23.96747 -5.94626,0.94849 4.45058,-23.931 z m 36.00592,11.30889 2.04288,-11.09 a 10.37478,10.37478 0 0 1 7.62436,-7.44195 L 574.659,46.69828 c 2.33474,-0.3648 3.97634,2.22529 3.5021,4.7789 l -0.69312,3.57505 c -0.47424,2.55361 -3.10082,5.28963 -5.43555,5.65443 l -14.40966,2.29825 -0.21888,1.27681 a 1.85811,1.85811 0 0 0 2.04289,2.40769 l 16.08774,-2.5536 -1.0944,5.83682 -18.16712,2.88193 a 4.45137,4.45137 0 0 1 -5.1437,-5.43554 z m -85.8743,-31.08109 2.0064,-10.83462 7.5514,-1.20384 c 0.985,-0.14592 1.49568,0.40129 1.31328,1.45922 l -1.38624,7.40547 a 2.32228,2.32228 0 0 1 -1.93345,1.96992 z"
         fill="#ff0000"
         id="path67" />
      <path
         d="m 513.55473,41.40864 -1.60513,-6.34755 -0.912,0.10944 -0.29184,1.56864 a 2.68488,2.68488 0 0 1 -2.11585,2.15233 l -6.20163,0.985 c -1.02145,0.14593 -1.60513,-0.47425 -1.42273,-1.56864 l 3.1373,-16.81735 a 2.55811,2.55811 0 0 1 2.07937,-2.11585 l 6.20162,-0.985 c 1.02145,-0.14593 1.60513,0.47425 1.42273,1.56864 l -0.40128,2.15233 12.54917,-2.00641 0.47425,-2.55361 c 1.20384,-6.457 -3.21026,-11.38181 -9.33893,-10.43333 l -12.002,1.897 c -6.12867,0.985 -12.6951,7.62436 -13.86246,14.11782 l -3.35615,17.9482 c -1.20384,6.457 3.21026,11.38181 9.33892,10.43333 l 4.01282,-0.62016 12.29382,-9.48485 z m 8.90116,-3.83041 a 11.17072,11.17072 0 0 0 0.7296,-2.11586 l 0.43776,-2.29825 -4.99778,0.80257 z"
         fill="#ff0000"
         id="path69" />
    </g>
  </g>
  <metadata
     id="metadata893">
    <rdf:RDF>
      <cc:Work
         rdf:about="">
        <dc:title>logo</dc:title>
      </cc:Work>
    </rdf:RDF>
  </metadata>
</svg>
