<?xml version="1.0" encoding="UTF-8" standalone="no"?>
<svg
   id="svg2"
   viewBox="0 0 513.96777 103.64747"
   version="1.1"
   sodipodi:docname="segacd.svg"
   width="513.96777"
   height="103.64747"
   inkscape:version="1.1 (c68e22c387, 2021-05-23)"
   xmlns:inkscape="http://www.inkscape.org/namespaces/inkscape"
   xmlns:sodipodi="http://sodipodi.sourceforge.net/DTD/sodipodi-0.dtd"
   xmlns="http://www.w3.org/2000/svg"
   xmlns:svg="http://www.w3.org/2000/svg"
   xmlns:rdf="http://www.w3.org/1999/02/22-rdf-syntax-ns#"
   xmlns:cc="http://creativecommons.org/ns#"
   xmlns:dc="http://purl.org/dc/elements/1.1/">
  <sodipodi:namedview
     id="namedview78"
     pagecolor="#ffffff"
     bordercolor="#666666"
     borderopacity="1.0"
     inkscape:pageshadow="2"
     inkscape:pageopacity="0.0"
     inkscape:pagecheckerboard="0"
     showgrid="false"
     fit-margin-top="0"
     fit-margin-left="0"
     fit-margin-right="0"
     fit-margin-bottom="0"
     inkscape:zoom="1.113"
     inkscape:cx="257.4124"
     inkscape:cy="51.212938"
     inkscape:window-width="1920"
     inkscape:window-height="1138"
     inkscape:window-x="-8"
     inkscape:window-y="-8"
     inkscape:window-maximized="1"
     inkscape:current-layer="svg2" />
  <defs
     id="defs30">
    <radialGradient
       id="radial-gradient"
       cx="-179.81"
       cy="439.63"
       r="0.95999998"
       gradientTransform="matrix(178.79,0,0,-178.79,32646.1,78662.43)"
       gradientUnits="userSpaceOnUse">
      <stop
         offset="0"
         stop-color="#9fafdf"
         id="stop2" />
      <stop
         offset="0.53"
         stop-color="#9fafdf"
         id="stop4" />
      <stop
         offset="1"
         stop-color="#fff"
         id="stop6" />
    </radialGradient>
    <linearGradient
       id="linear-gradient"
       x1="-195.08"
       y1="425.25"
       x2="-194.11"
       y2="425.25"
       gradientTransform="matrix(0,-26.01,-26.01,0,11555.83,-4973.84)"
       gradientUnits="userSpaceOnUse">
      <stop
         offset="0"
         stop-color="#fff"
         id="stop9" />
      <stop
         offset="0.97"
         stop-color="#fbd34d"
         id="stop11" />
      <stop
         offset="1"
         stop-color="#fbd34d"
         id="stop13" />
    </linearGradient>
    <clipPath
       id="clip-path">
      <rect
         x="250"
         y="12.16"
         width="500"
         height="89.68"
         fill="none"
         id="rect16" />
    </clipPath>
    <linearGradient
       id="linear-gradient-2"
       x1="-181.34"
       y1="442.42001"
       x2="-180.35001"
       y2="442.42001"
       gradientTransform="matrix(505.3,0,0,505.3,91877.59,-223466.91)"
       gradientUnits="userSpaceOnUse">
      <stop
         offset="0"
         stop-color="#fff"
         id="stop19" />
      <stop
         offset="0.28"
         stop-color="#fff"
         id="stop21" />
      <stop
         offset="0.48"
         stop-color="#96d321"
         id="stop23" />
      <stop
         offset="0.67"
         stop-color="#fff"
         id="stop25" />
      <stop
         offset="1"
         stop-color="#fff"
         id="stop27" />
    </linearGradient>
  </defs>
  <title
     id="title32">logo</title>
  <g
     id="g929"
     transform="translate(-242.98662,-5.17)">
    <path
       d="m 662.06,40.51 c 17.9,0 35.67,1.19 53.13,5.5 9.75,2.41 19.15,5.77 27.39,11.78 4.35,3.17 7.63,7 7.41,12.82 0,0.37 0,0.75 -0.08,1.11 a 17.15,17.15 0 0 1 -3.8,8.27 c -4,5.26 -9.65,8.28 -15.46,11 -10.37,5.01 -21.48,6.83 -32.65,8.48 -13.29,2 -26.65,2.2 -40,2.2 h -13.28 -4.2 c -23.18,0.11 -11.63,0.13 -2.66,0.14 H 560 v 0 H 456 386.68 c -20.35,0 -40.7,0 -61,-0.47 -17.09,-0.38 -34.05,-2.17 -50.32,-7.89 -6.18,-2.17 -12.22,-4.86 -17.24,-9.25 a 31.78,31.78 0 0 1 -5.24,-5.81 15.66,15.66 0 0 1 -2.72,-6.67 c -0.62,-4.44 1.16,-8.72 5.25,-12.24 5.42,-4.64 11.78,-7.66 18.46,-10.08 a 141.64,141.64 0 0 1 44.05,-8.17 c 7.08,-0.23 14.16,-0.31 21.24,-0.31 10.55,0 21.1,0.17 31.66,0.23 h 7.64 c 37.43,0 169.39,-0.65 212.31,-0.65 6.19,0 10.53,0 12.46,0 7.15,0.12 14.29,0.16 21.44,0.16 11.3,0 22.61,-0.1 33.92,-0.19 h 3.51 m 0,-7 h -3.57 -4.91 c -9.5,0.07 -19.31,0.15 -29,0.15 -7.83,0 -14.8,0 -21.32,-0.16 -1.91,0 -6,0 -12.58,0 -22.21,0 -68.2,0.17 -112.67,0.34 -42,0.16 -81.58,0.31 -99.64,0.31 h -7.59 c -4,0 -7.94,-0.06 -11.91,-0.1 -6.49,-0.06 -13.19,-0.13 -19.8,-0.13 -8.17,0 -15,0.1 -21.46,0.31 a 149,149 0 0 0 -46.23,8.59 c -5.48,2 -13.59,5.34 -20.61,11.34 -5.9,5.08 -8.6,11.66 -7.63,18.54 a 22.39,22.39 0 0 0 3.87,9.63 38.18,38.18 0 0 0 6.43,7.15 c 6.3,5.56 13.75,8.56 19.52,10.61 14.91,5.25 31.09,7.81 52.47,8.29 19,0.43 38.22,0.45 56.83,0.47 h 4.36 69.33 H 560 a 5.83,5.83 0 0 0 0.59,0 h 77.21 a 7,7 0 0 0 1.38,-0.14 h 18.76 c 12.37,0 26.77,-0.17 41,-2.27 11.94,-1.76 23.58,-3.77 34.68,-9 6.07,-2.88 13,-6.51 18,-13.11 a 24.08,24.08 0 0 0 5.18,-11.64 c 0.07,-0.55 0.12,-1.13 0.14,-1.77 0.4,-10.91 -7.65,-16.78 -10.29,-18.71 -7.92,-5.78 -17.12,-9.77 -29.82,-12.91 -15.77,-3.9 -33.19,-5.71 -54.82,-5.71 z"
       fill="#ffffff"
       id="path34" />
    <path
       d="m 643.67,101.8 v 0 m 1.31,0 v 0 m 0,-7 h -3.76 a 7,7 0 0 0 0,14 h 3.71 a 6.27,6.27 0 0 0 1.43,-0.13 7,7 0 0 0 5.48,-8.24 7.11,7.11 0 0 0 -0.71,-2 6.86,6.86 0 0 0 -2.64,-2.71 A 7,7 0 0 0 645,94.8 Z"
       fill="#ffffff"
       id="path36" />
    <path
       d="m 538.36,12.16 c 2.45,0 3.93,1.53 4.69,3.87 1.65,5.15 3.39,10.26 5.08,15.4 0.19,0.59 0.26,1.22 0.42,2 h -11.12 c 0,-0.73 -0.06,-1.34 -0.11,-2.35 h 7.91 c -1.87,-5.43 -3.52,-10.36 -5.3,-15.24 a 1.72,1.72 0 0 0 -1.55,-0.94 h -0.18 c -0.83,0.09 -1.46,1 -1.71,1.76 -1.67,4.62 -3.21,9.28 -4.8,13.92 -0.31,0.93 -0.67,1.85 -1.07,2.93 -2.63,0 -5.26,0 -7.88,0 -1.89,0 -3.78,0 -5.66,-0.08 a 4.75,4.75 0 0 1 -4.4,-4.79 q -0.13,-5.54 0,-11.08 a 4.87,4.87 0 0 1 4.82,-4.95 c 1.37,-0.07 2.74,-0.1 4.13,-0.1 2.08,0 4.2,0.06 6.41,0.06 v 2.7 h -8.94 c -2.85,0 -3.66,0.83 -3.7,3.63 -0.04,2.8 0,5.75 0,8.62 0,2.1 0.91,3.18 3,3.18 h 6.86 c 0,-2.8 0.06,-8.31 0.06,-8.31 h -5.28 l 0.07,-2.34 h 8 V 30.4 c 0.17,0.05 0.35,0.09 0.52,0.15 a 12.46,12.46 0 0 0 0.75,-1.51 c 1.47,-4.34 3,-8.68 4.34,-13 0.74,-2.31 2.18,-3.79 4.55,-3.84 h 0.08 m 0,-7 h -0.18 a 11.58,11.58 0 0 0 -6,1.77 6.94,6.94 0 0 0 -4.11,-1.33 c -1.09,0 -2.16,0 -3.21,0 h -3.2 c -1.73,0 -3.17,0 -4.52,0.12 A 11.84,11.84 0 0 0 505.7,17.54 c -0.09,3.68 -0.1,7.52 0,11.39 a 11.75,11.75 0 0 0 11.16,11.62 c 1.74,0.06 3.62,0.09 5.9,0.09 h 4 3.9 a 7,7 0 0 0 3.49,-0.93 7,7 0 0 0 3.32,0.84 h 11.12 A 7,7 0 0 0 555.4,32 c 0,-0.18 -0.07,-0.36 -0.1,-0.52 a 14.19,14.19 0 0 0 -0.52,-2.21 c -0.63,-1.92 -1.26,-3.81 -1.89,-5.71 -1,-3.17 -2.14,-6.44 -3.17,-9.66 -1.78,-5.47 -6,-8.73 -11.36,-8.73 z"
       fill="#ffffff"
       id="path38" />
    <path
       d="m 538.93,15.39 c 1.64,4.78 3.28,9.54 5,14.56 h -6.4 l -0.64,-2 c -0.78,2.1 -1.4,3.75 -2,5.49 h -3.2 c 2.13,-6.14 4.16,-12 6.2,-18 h 1.09 m -1.64,11.34 a 4.35,4.35 0 0 1 0.51,0 c 0.46,0 0.9,0 1.36,0 h 0.49 c -0.41,-0.95 -1.41,-3 -1.41,-3 0,0 -0.64,2 -1,3 m 1.64,-18.34 h -0.24 -1.08 a 7,7 0 0 0 -6.39,4.72 c -2,5.92 -4.07,11.82 -6.19,18 a 7,7 0 0 0 6.61,9.29 h 3.2 a 7,7 0 0 0 6,-3.45 h 3.06 a 7,7 0 0 0 6.62,-9.28 l -2,-5.85 -3,-8.7 A 7,7 0 0 0 538.9,8.44 Z"
       fill="#ffffff"
       id="path40" />
    <path
       d="m 518.87,16.41 h 9.19 V 19 h -8.8 v 7.83 h 0.51 0.74 a 2.88,2.88 0 0 1 0.58,0 c 0,-1.39 0.06,-2 0.06,-3.34 h 3.07 v 6.21 c -1.18,0 -2.33,0.07 -3.44,0.07 a 13.72,13.72 0 0 1 -2.42,-0.18 3.21,3.21 0 0 1 -2,-2.3 69.85,69.85 0 0 1 0,-8.56 2.25,2.25 0 0 1 2.5,-2.34 m 0,-7 v 0 a 9.23,9.23 0 0 0 -9.5,9.06 77.76,77.76 0 0 0 0,9.4 10,10 0 0 0 7.64,8.63 h 0.11 a 20.38,20.38 0 0 0 3.67,0.29 c 0.62,0 1.26,0 1.91,0 0.5,0 1,0 1.53,0 a 7,7 0 0 0 7,-7 V 25.21 A 7,7 0 0 0 535.06,19 v -2.59 a 7,7 0 0 0 -7,-7 h -9.19 z"
       fill="#ffffff"
       id="path42" />
    <path
       d="m 508.82,24 c 0,0.62 0.07,1.23 0.12,2.17 h -6.33 c 0,0.29 0,0.56 0,0.85 h 8.33 v 2.68 c -1.73,0 -3.44,0 -5.14,0 -1.55,0 -3.09,0 -4.63,-0.16 a 2.34,2.34 0 0 1 -1.73,-2.45 c 0,-0.93 -0.06,-1.93 -0.06,-3.13 h 9.46 m 0,-7 h -9.46 a 7,7 0 0 0 -7,7 c 0,0.71 0,1.36 0,2 0,0.41 0,0.79 0,1.16 a 9.25,9.25 0 0 0 8.17,9.43 c 1.53,0.12 3.13,0.18 5.19,0.18 h 2.62 2.52 a 7,7 0 0 0 7,-7 V 27 a 7,7 0 0 0 -2.5,-5.36 7,7 0 0 0 -6.6,-4.66 z"
       fill="#ffffff"
       id="path44" />
    <path
       d="m 505.69,16.38 c 1.68,0 3.38,0.05 5.14,0.05 v 2.64 h -8.16 c 0,0.24 0,0.5 0,0.75 h 6.1 c 0.05,0.94 0.09,1.59 0.14,2.46 h -9.55 c 0,-1.39 0.07,-2.58 0.07,-3.44 a 2.21,2.21 0 0 1 2.17,-2.3 c 1.35,-0.13 2.7,-0.16 4.08,-0.16 m 0,-7 c -1.83,0 -3.33,0.06 -4.73,0.19 a 9.17,9.17 0 0 0 -8.52,9.27 c 0,0.32 0,0.69 0,1.1 0,0.65 0,1.45 0,2.34 a 7,7 0 0 0 7,7 h 9.55 a 7,7 0 0 0 5.02,-2.19 7.07,7.07 0 0 0 1.67,-2.95 7,7 0 0 0 2.16,-5.07 v -2.64 a 7,7 0 0 0 -7,-7 h -2.53 -2.61 z"
       fill="#ffffff"
       id="path46" />
    <path
       d="m 489.39,16.36 c 2.27,0 4.23,0.07 4.23,0.07 0,0 0.07,1.41 0.12,2.46 h -9.3 c 0,0.25 0,0.79 0,1 a 6.34,6.34 0 0 0 0.76,0 c 0.43,0 0.86,0 1.3,0 a 5.74,5.74 0 0 1 0.71,0 c 4,0.45 6.68,3.2 6.65,6.86 a 6.53,6.53 0 0 1 -6,6.63 c -1.25,0.07 -2.5,0.09 -3.77,0.09 -2,0 -4.1,-0.06 -6.25,-0.06 -0.05,-0.91 -0.09,-1.67 -0.15,-2.78 2,0 3.84,0 5.69,0 1.19,0 2.37,0 3.54,-0.06 a 4,4 0 0 0 4.14,-4.23 c -0.07,-2.25 -1.73,-3.71 -4.25,-3.77 h -1.32 a 8.7,8.7 0 0 1 -0.89,0 4.32,4.32 0 0 1 -1.77,-0.47 c -0.91,-0.61 -1.34,-1 -1.24,-3 a 2.71,2.71 0 0 1 2.6,-2.6 c 1.36,-0.15 3.39,-0.2 5.21,-0.2 m 0,-7 a 54.21,54.21 0 0 0 -6,0.25 9.67,9.67 0 0 0 -8.79,9.18 11.16,11.16 0 0 0 0.86,5.29 7,7 0 0 0 -4.76,7 l 0.08,1.42 c 0,0.45 0.05,0.88 0.07,1.35 a 7,7 0 0 0 7,6.63 c 1.06,0 2.1,0 3.13,0 h 3.12 c 1.59,0 2.91,0 4.16,-0.1 A 13.53,13.53 0 0 0 500.85,26.72 13.8,13.8 0 0 0 500,22 a 7,7 0 0 0 0.73,-3.44 c -0.05,-1.07 -0.12,-2.5 -0.12,-2.5 a 7,7 0 0 0 -6.76,-6.64 c -0.08,0 -2.1,-0.07 -4.46,-0.07 z"
       fill="#ffffff"
       id="path48" />
    <path
       d="m 488.05,12.53 c 1.84,0 3.69,0 5.6,0 v 2.77 c -1.6,0 -3.2,-0.08 -4.78,-0.08 a 29.77,29.77 0 0 0 -3.28,0.16 c -1.5,0.16 -3.26,0.57 -4.25,1.88 A 4.87,4.87 0 0 0 480.9,21 3.6,3.6 0 0 0 484,23.35 c 1.07,0.17 2.34,0 3.45,0.21 a 3,3 0 0 1 2.74,3.15 2.87,2.87 0 0 1 -3,3 c -1.22,0 -2.43,0.05 -3.65,0.05 -1.84,0 -3.71,0 -5.66,0 -0.09,-0.82 -0.15,-1.48 -0.23,-2.49 h 9.4 c 0,-0.26 0,-0.83 0.06,-1.08 -0.88,0 -1.5,0 -2.29,0 -4.07,-0.17 -7.1,-2.93 -7.17,-6.59 a 6.78,6.78 0 0 1 6.8,-6.94 c 1.18,-0.06 2.37,-0.08 3.56,-0.08 m 0,-7 c -1.5,0 -2.75,0 -3.93,0.09 a 13.75,13.75 0 0 0 -13.43,14.07 13.4,13.4 0 0 0 0.8,4.32 7,7 0 0 0 -0.78,3.83 c 0.09,1.07 0.16,1.77 0.24,2.63 a 7,7 0 0 0 7,6.28 h 2.87 2.79 c 1.49,0 2.72,0 3.87,-0.05 A 9.89,9.89 0 0 0 497.19,27 10.16,10.16 0 0 0 496,21.88 7,7 0 0 0 500.61,15.3 v -2.73 a 7,7 0 0 0 -7,-7 h -2.77 -2.83 z"
       fill="#ffffff"
       id="path50" />
    <path
       d="m 504.46,12.55 c 2.09,0 4.21,0.06 6.39,0.06 v 2.69 h -8.64 c -3,0 -3.9,0.89 -3.93,4 0,2.7 0,5.41 0,8.11 0,2.15 1.1,3.29 3.29,3.29 h 9.28 v 2.7 c -2.28,0 -4.51,0.06 -6.71,0.06 -1.4,0 -2.79,0 -4.17,-0.11 a 4.56,4.56 0 0 1 -4.32,-4.61 100.8,100.8 0 0 1 0.07,-11.53 4.58,4.58 0 0 1 4.63,-4.55 c 1.35,-0.08 2.7,-0.11 4.07,-0.11 m 0,-7 c -1.72,0 -3.15,0 -4.49,0.12 a 11.61,11.61 0 0 0 -11.19,11.11 105,105 0 0 0 -0.08,12.31 11.59,11.59 0 0 0 10.86,11.24 c 1.38,0.09 2.85,0.13 4.62,0.13 h 3.4 c 1.1,0 2.2,0 3.31,0 a 7,7 0 0 0 7,-7 v -2.78 a 7,7 0 0 0 -7,-7 h -5.62 v -1.39 h 5.58 a 7,7 0 0 0 7,-7 v -2.68 a 7,7 0 0 0 -7,-7 c -1.07,0 -2.13,0 -3.17,0 h -3.22 z"
       fill="#ffffff"
       id="path52" />
    <g
       id="g10">
      <g
         id="g12">
        <g
           id="g14">
          <g
             id="g20">
            <g
               id="g22">
              <path
                 id="path32"
                 d="m 668,44.15 c -14.47,0.13 -29,0.3 -43.44,0 v 0 c -6.79,-0.12 -76.92,0.07 -145,0.26 v 0 c -62.36,0.17 -123,0.34 -131.83,0.27 v 0 c -13.84,-0.09 -27.68,-0.44 -41.5,0.07 v 0 a 98.33,98.33 0 0 0 -34.58,7.4 v 0 a 44.32,44.32 0 0 0 -14.48,9.12 v 0 A 13.09,13.09 0 0 0 253,72.38 v 0 a 14.45,14.45 0 0 0 0.45,2.17 h 485.8 a 13.88,13.88 0 0 0 0.42,-2.17 v 0 c 0,-0.33 0.06,-0.67 0.07,-1 v 0 c 0.17,-5.26 -2.41,-8.73 -5.82,-11.6 v 0 c -6.46,-5.44 -13.84,-8.47 -21.49,-10.66 v 0 c -13.7,-3.9 -27.64,-5 -41.69,-5 H 668"
                 fill="url(#radial-gradient)"
                 style="fill:url(#radial-gradient)" />
            </g>
          </g>
        </g>
      </g>
      <g
         id="g34">
        <g
           id="g36">
          <g
             id="g42">
            <g
               id="g44">
              <path
                 id="path54"
                 d="m 253.49,74.55 a 16.57,16.57 0 0 0 1.68,3.86 v 0 a 27.28,27.28 0 0 0 4.12,5.26 v 0 c 3.93,4 8.67,6.4 13.53,8.37 v 0 c 12.76,5.18 26.07,6.8 39.48,7.14 v 0 c 16,0.42 31.93,0.41 47.9,0.43 v 0 q 68,0.06 136,0 v 0 0 h 83.65 c 24.65,0 49.32,0 74,-0.13 v 0 c 2.83,0 5.66,0 8.5,0 v 0 c 12.22,0 24.45,0.09 36.61,-2 v 0 c 8.8,-1.49 17.52,-3.18 25.66,-7.64 v 0 c 4.56,-2.49 9,-5.23 12.13,-10 v 0 a 18.36,18.36 0 0 0 2.56,-5.31 H 253.49 Z"
                 fill="url(#linear-gradient)"
                 style="fill:url(#linear-gradient)" />
            </g>
          </g>
        </g>
      </g>
      <g
         id="g56">
        <g
           clip-path="url(#clip-path)"
           id="g73">
          <g
             id="g58">
            <g
               id="g64">
              <path
                 id="path78"
                 d="m 739.29,74.55 a 18.36,18.36 0 0 1 -2.56,5.31 c -3.16,4.76 -7.57,7.5 -12.13,10 -8.14,4.45 -16.86,6.14 -25.66,7.63 -15,2.55 -30.07,1.89 -45.11,2 -33.87,0.18 -67.74,0.11 -101.61,0.13 h -56 v 0 q -68,0 -136,0 c -16,0 -31.94,0 -47.9,-0.43 -13.41,-0.35 -26.72,-2 -39.48,-7.14 -4.86,-2 -9.6,-4.4 -13.53,-8.37 a 27.67,27.67 0 0 1 -4.12,-5.26 16.57,16.57 0 0 1 -1.68,-3.86 z"
                 fill="none"
                 stroke-miterlimit="10"
                 stroke="url(#linear-gradient-2)"
                 style="stroke:url(#linear-gradient-2)" />
            </g>
            <g
               id="g80">
              <path
                 id="path82"
                 d="m 665,46.8 c 15.12,0.13 30.13,1.38 44.77,5.45 7.22,2 14.17,4.73 20,9.68 3.71,3.16 5.42,6.47 5.18,9.79 -0.21,3 -2,6 -5.39,8.84 -6.69,5.7 -14.75,8.39 -23,10.63 a 148.4,148.4 0 0 1 -38.42,5 c -68.52,0.27 -16.64,0.4 -85.17,0.57 -52.35,0.13 -104.72,0.38 -157.07,0.32 q -48.12,0 -96.25,-1 c -15.7,-0.29 -31.24,-2.55 -45.91,-8.47 a 53.36,53.36 0 0 1 -13.5,-8.33 10.45,10.45 0 0 1 -4.23,-7.58 c -0.13,-2.94 1.23,-6 4,-8.66 5.77,-5.58 13,-8.43 20.54,-10.63 a 125.75,125.75 0 0 1 32.71,-5.08 c 20.51,-0.46 41,-0.28 61.53,-0.7 m 357.79,11.16 c -8.24,-6 -17.64,-9.37 -27.39,-11.78 -18.6,-4.59 -37.55,-5.64 -56.64,-5.48 -18.45,0.14 -36.91,0.33 -55.36,0 -16.59,-0.26 -208.91,0.75 -232.41,0.59 -17.64,-0.1 -35.28,-0.49 -52.9,0.08 a 141.64,141.64 0 0 0 -44.05,8.17 c -6.68,2.42 -13,5.44 -18.46,10.08 -4.09,3.52 -5.87,7.8 -5.25,12.24 a 15.66,15.66 0 0 0 2.72,6.67 31.78,31.78 0 0 0 5.24,5.81 c 5,4.39 11.06,7.08 17.24,9.25 16.27,5.72 33.23,7.51 50.32,7.89 20.34,0.46 40.69,0.45 61,0.47 q 86.65,0.07 173.31,0 v 0 h 71.39 c 43.15,0 -34.08,0.06 9.08,-0.14 19.17,-0.1 38.39,0.62 57.49,-2.19 11.22,-1.65 22.33,-3.52 32.7,-8.44 5.81,-2.76 11.43,-5.78 15.46,-11 a 17.15,17.15 0 0 0 3.8,-8.27 c 0,-0.36 0.07,-0.74 0.08,-1.11 0.22,-5.81 -3.06,-9.65 -7.41,-12.82"
                 fill="#231f20" />
            </g>
            <g
               id="g84">
              <path
                 id="path86"
                 d="m 708.45,79 a 8.06,8.06 0 0 1 -7.91,-7.24 4.36,4.36 0 0 1 0,-0.51 7.93,7.93 0 0 1 7.92,-7.69 7.83,7.83 0 0 1 7.8,7.8 c 0,0.13 0,0.27 0,0.4 A 8,8 0 0 1 708.45,79 m -30.94,-0.38 c -0.06,4.15 -2.7,7.58 -6.76,7.68 -9.66,0.24 -19.33,0.07 -29.3,0.07 v -6.4 c 1.07,-0.06 2,-0.16 3,-0.16 5.91,0 11.8,0 17.72,0 2.74,0 3.36,-0.63 3.38,-3.32 0,-1.56 0,-3.13 0,-4.72 0,-1.59 0,-3.31 0,-5 h 12.07 c 0,1.64 0,3.32 0,5 v 0 c 0,2.28 -0.06,4.57 -0.1,6.86 m -38,7.63 h -11.8 V 66.65 h 11.79 z M 624.2,80 v 1 a 5.6,5.6 0 0 1 -5.63,5.56 H 589.63 A 5.6,5.6 0 0 1 584,81 V 66.46 h 8.79 v 11.39 a 2.14,2.14 0 0 0 2.12,2.15 z m 0,-16.74 v 1 H 584 v -1 a 5.65,5.65 0 0 1 5.63,-5.63 h 28.94 a 5.65,5.65 0 0 1 5.63,5.63 m -79.74,23 h -11.73 c -0.07,-1.82 -0.16,-3.58 -0.25,-5.69 H 511.2 v -8 h 21.35 v -5.92 h 11.91 v 19.56 z m -35.78,0 H 496.82 V 66.67 h 11.86 z m -17.81,-7.83 a 8.4,8.4 0 0 1 -8.18,8 c -6.47,0.11 -12.95,0 -19.42,0 -4.85,0 -9.68,0 -14.52,0 -5.19,0 -8.23,-3.14 -8.26,-8.27 V 66.49 h 12 v 9.15 c 0,3.76 0.36,4.12 4,4.12 h 18.19 c 0.5,0 1,0 1.49,0 1.39,-0.1 2.58,-0.79 2.2,-2.26 a 3.14,3.14 0 0 0 -2.24,-1.92 c -3.68,-0.21 -7.38,-0.1 -11.07,-0.1 h -3.25 V 69.7 c 0.13,-0.1 0.26,-0.3 0.37,-0.3 7.29,0 14.59,-0.21 21.86,0.11 a 6.39,6.39 0 0 1 4.39,2.21 9.24,9.24 0 0 1 2.41,6.69 m -56.75,7.85 c -0.86,0 -1.72,0.14 -2.6,0.14 q -15.39,0 -30.77,0 c -6.21,0 -9,-2.87 -9,-9 0,-1.89 0,-3.77 0,-5.67 v -5 h 11.79 c 0.62,2.28 2.45,2.54 4.57,2.53 6.89,-0.06 13.78,0 20.68,0 h 3.42 v 6.18 H 404 c -0.43,3.32 0.4,4.37 3.31,4.38 7.88,0 15.76,0 23.63,0 h 3.15 v 6.5 z m -49.27,0 h -12 V 66.69 h 12 z m -26.57,0 h -11.6 V 66.69 h 11.63 z m -26.38,0 H 320.21 V 66.61 h 11.69 z m -39,-7.28 a 8,8 0 0 1 -7.87,-7.26 2.69,2.69 0 0 1 0,-0.57 7.86,7.86 0 0 1 15.71,0.1 c 0,0.15 0,0.31 0,0.47 a 8,8 0 0 1 -7.8,7.28 m 27.3,-21.12 c 0.77,-0.07 1.41,-0.19 2,-0.19 q 27.93,0 55.85,0 c 4.29,0 6.88,2.66 6.69,6.82 h -64.54 z m 71.62,0 h 42.32 v 6.63 h -42.32 z m 55.25,-0.16 c 4.76,-0.08 9.51,0 14.27,0 h 29.42 v 6.77 h -50 c -0.44,-3.87 2.18,-6.69 6.33,-6.75 m 56,0 q 17.69,-0.13 35.37,0 c 3.72,0 6.19,3 6,6.74 H 497 c 0.07,-4.07 2.35,-6.71 6.1,-6.74 m 124.51,0.22 a 16,16 0 0 1 1.91,-0.25 c 13.77,0 27.55,0 41.33,0 4.15,0 6.72,2.66 6.51,6.8 h -49.62 c -0.06,-0.9 -0.14,-1.62 -0.17,-2.34 0,-1.37 0,-2.75 0,-4.22 m 92.76,7.77 a 39.49,39.49 0 0 0 -10.1,-6.32 c -9.92,-4.23 -20.45,-6 -31.14,-6.43 -10.23,-0.43 -20.49,-0.54 -30.75,-0.54 -138,0 -157.17,0 -295.13,0 -7.55,0 -15.11,-0.16 -22.65,0.09 -12.47,0.42 -24.85,1.59 -36.73,5.86 -4.92,1.77 -9.62,3.85 -13.19,7.81 -1.71,1.91 -2.52,3.75 -2.4,5.61 a 8.29,8.29 0 0 0 2.35,4.92 30.22,30.22 0 0 0 13,8.62 99.7,99.7 0 0 0 28.9,5.28 c 10.17,0.43 20.34,0.57 30.52,0.57 q 103.53,0.06 207.06,0 h 30.73 c 64.26,0 9.78,0 74,-0.07 13,0 26,-0.76 38.72,-4.37 6.52,-1.85 12.5,-4.54 17.11,-9.65 a 9.29,9.29 0 0 0 2.69,-5.32 c 0.19,-2.11 -0.79,-4.14 -3,-6"
                 fill="#231f20" />
            </g>
            <g
               id="g88">
              <path
                 id="path90"
                 d="m 537.29,26.73 c 0.31,-1 1,-3 1,-3 0,0 1,2 1.41,3 -0.79,0.07 -1.54,-0.07 -2.36,0 m 1.64,-11.34 h -1.09 c -2,5.92 -4.07,11.83 -6.2,18 h 3.2 c 0.65,-1.74 1.27,-3.39 2,-5.49 l 0.64,2 h 6.4 c -1.72,-5 -3.36,-9.78 -5,-14.56 m 9.2,16 c -1.69,-5.14 -3.43,-10.25 -5.08,-15.4 -0.77,-2.37 -2.28,-3.9 -4.77,-3.87 -2.49,0.03 -3.81,1.53 -4.55,3.84 -1.39,4.36 -2.87,8.7 -4.34,13 a 12.46,12.46 0 0 1 -0.75,1.51 c -0.17,-0.06 -0.35,-0.1 -0.52,-0.15 V 20.06 h -8 l -0.07,2.34 h 5.28 c 0,0 -0.06,5.51 -0.06,8.31 -2.37,0 -4.56,0 -6.76,0 -2.2,0 -3.12,-1.05 -3.11,-3.18 0,-2.87 0,-5.74 0,-8.62 0,-2.88 0.85,-3.6 3.7,-3.63 2.85,-0.03 5.88,0 8.95,0 V 12.6 c -3.68,0 -7.11,-0.15 -10.54,0 a 4.87,4.87 0 0 0 -4.82,4.95 q -0.15,5.55 0,11.08 a 4.75,4.75 0 0 0 4.4,4.79 c 4.5,0.15 9,0 13.54,0 0.4,-1.08 0.76,-2 1.07,-2.93 1.59,-4.64 3.13,-9.3 4.8,-13.92 0.25,-0.73 0.88,-1.67 1.71,-1.76 a 1.73,1.73 0 0 1 1.73,0.93 c 1.78,4.88 3.43,9.81 5.3,15.24 h -7.91 c 0,1 0.08,1.62 0.11,2.35 h 11.12 c -0.16,-0.76 -0.23,-1.39 -0.42,-2 M 528.06,19 v -2.59 c -3.24,0 -6.18,0 -9.12,0 a 2.25,2.25 0 0 0 -2.57,2.34 69.85,69.85 0 0 0 0,8.56 3.21,3.21 0 0 0 2,2.3 33.38,33.38 0 0 0 5.86,0.11 v -6.21 h -3.07 c 0,1.34 -0.06,1.95 -0.06,3.34 -0.66,-0.11 -1.2,0 -1.83,-0.06 V 19 Z m -25.47,8 c 0,-0.29 0,-0.56 0,-0.85 h 6.33 c -0.05,-0.94 -0.08,-1.55 -0.12,-2.17 h -9.46 c 0,1.2 0.06,2.2 0.06,3.13 a 2.34,2.34 0 0 0 1.73,2.45 c 3.21,0.26 6.45,0.12 9.77,0.12 V 27 Z m 8.24,-10.56 c -3.2,0 -6.23,-0.17 -9.22,0.11 a 2.21,2.21 0 0 0 -2.17,2.3 c 0,0.86 -0.07,2.05 -0.07,3.44 h 9.55 c -0.05,-0.87 -0.09,-1.52 -0.14,-2.46 h -6.1 c 0,-0.25 0,-0.51 0,-0.75 h 8.16 z m -9.15,14.25 c -2.24,0 -3.34,-1.12 -3.36,-3.29 -0.05,-2.7 -0.06,-5.41 0,-8.11 0,-3.09 0.89,-4 3.93,-4 2.85,0 5.69,0 8.64,0 v -2.68 c -3.61,0 -7.05,-0.16 -10.46,0.05 a 4.58,4.58 0 0 0 -4.63,4.55 100.8,100.8 0 0 0 -0.07,11.53 4.56,4.56 0 0 0 4.27,4.61 c 3.57,0.23 7.16,0 10.88,0 v -2.67 h -9.21 M 487.17,20 c -0.93,-0.11 -1.85,0.07 -2.77,-0.05 0,-0.25 0,-0.79 0,-1 h 9.3 c -0.05,-1.05 -0.12,-2.46 -0.12,-2.46 a 90.86,90.86 0 0 0 -9.44,0.13 2.71,2.71 0 0 0 -2.6,2.6 c -0.1,2 0.33,2.42 1.24,3 a 4.32,4.32 0 0 0 1.77,0.47 c 0.73,0.06 1.47,0 2.21,0 2.52,0.06 4.18,1.52 4.25,3.77 a 4,4 0 0 1 -4.14,4.23 c -3,0.11 -6,0 -9.23,0 0.06,1.11 0.1,1.87 0.15,2.78 3.5,0 6.77,0.15 10,0 a 6.53,6.53 0 0 0 6,-6.63 c 0,-3.66 -2.64,-6.41 -6.65,-6.86 m -5.83,-2.72 A 4.87,4.87 0 0 0 480.9,21 3.6,3.6 0 0 0 484,23.35 c 1.07,0.17 2.34,0 3.45,0.21 a 3,3 0 0 1 2.74,3.15 2.87,2.87 0 0 1 -3,3 c -3,0.1 -6.06,0 -9.31,0 -0.09,-0.82 -0.15,-1.48 -0.23,-2.49 h 9.4 c 0,-0.26 0,-0.83 0.06,-1.08 -0.88,0 -1.5,0 -2.29,0 -4.07,-0.17 -7.1,-2.93 -7.17,-6.59 a 6.78,6.78 0 0 1 6.8,-6.94 c 3,-0.16 6,0 9.16,0 v 2.69 a 72.1,72.1 0 0 0 -8.06,0.08 c -1.5,0.16 -3.26,0.57 -4.25,1.88"
                 fill="#3173b3" />
            </g>
          </g>
        </g>
      </g>
    </g>
  </g>
  <metadata
     id="metadata895">
    <rdf:RDF>
      <cc:Work
         rdf:about="">
        <dc:title>logo</dc:title>
      </cc:Work>
    </rdf:RDF>
  </metadata>
</svg>
