<?xml version="1.0" encoding="UTF-8" standalone="no"?>
<svg
   viewBox="0 0 396.4425 114.00036"
   version="1.1"
   id="svg208"
   sodipodi:docname="sega32x.svg"
   width="396.4425"
   height="114.00036"
   inkscape:version="1.1 (c68e22c387, 2021-05-23)"
   xmlns:inkscape="http://www.inkscape.org/namespaces/inkscape"
   xmlns:sodipodi="http://sodipodi.sourceforge.net/DTD/sodipodi-0.dtd"
   xmlns="http://www.w3.org/2000/svg"
   xmlns:svg="http://www.w3.org/2000/svg"
   xmlns:rdf="http://www.w3.org/1999/02/22-rdf-syntax-ns#"
   xmlns:cc="http://creativecommons.org/ns#"
   xmlns:dc="http://purl.org/dc/elements/1.1/">
  <defs
     id="defs212" />
  <sodipodi:namedview
     id="namedview210"
     pagecolor="#ffffff"
     bordercolor="#666666"
     borderopacity="1.0"
     inkscape:pageshadow="2"
     inkscape:pageopacity="0.0"
     inkscape:pagecheckerboard="0"
     showgrid="false"
     fit-margin-top="0"
     fit-margin-left="0"
     fit-margin-right="0"
     fit-margin-bottom="0"
     inkscape:zoom="0.78700985"
     inkscape:cx="198.85393"
     inkscape:cy="57.178446"
     inkscape:window-width="1920"
     inkscape:window-height="1138"
     inkscape:window-x="-8"
     inkscape:window-y="-8"
     inkscape:window-maximized="1"
     inkscape:current-layer="svg208" />
  <title
     id="title2">logo</title>
  <g
     id="g1135"
     transform="translate(-301.77442)">
    <g
       id="Layer_2"
       data-name="Layer 2">
      <rect
         x="338.07611"
         y="50.43441"
         width="60.478329"
         height="35.171532"
         fill="#ffffff"
         id="rect4" />
      <rect
         x="430.35492"
         y="44.809269"
         width="44.945518"
         height="24.81706"
         fill="#ffffff"
         id="rect6" />
      <rect
         x="603.58374"
         y="24.228649"
         width="55.830132"
         height="26.205759"
         fill="#ffffff"
         id="rect8" />
      <rect
         x="545.07825"
         y="31.242491"
         width="49.30014"
         height="64.646461"
         fill="#ffffff"
         id="rect10" />
      <rect
         x="529.07825"
         y="17.533819"
         width="106.97144"
         height="62.632561"
         fill="#ffffff"
         id="rect12" />
    </g>
    <g
       id="Calque_1"
       data-name="Calque 1">
      <path
         d="m 328.98518,19.963 v 3.70368 l -4.71382,-1.85187 4.71382,-1.85181 m -5.6e-4,-7 a 6.995,6.995 0 0 0 -2.55893,0.48474 l -4.71382,1.85181 a 7,7 0 0 0 -9e-5,13.03055 l 4.71381,1.85187 a 7,7 0 0 0 9.55958,-6.51526 V 19.963 a 7.00006,7.00006 0 0 0 -7.00055,-7 z"
         fill="#ffffff"
         id="path15" />
      <rect
         x="359.90656"
         y="14.03384"
         width="15.36865"
         height="20.38965"
         rx="3.5"
         fill="#999999"
         id="rect17" />
      <path
         d="m 371.77509,17.53378 v 13.38971 h -8.36853 V 17.53378 h 8.36853 m 0,-7 h -8.36853 a 7,7 0 0 0 -7,7 v 13.38971 a 7,7 0 0 0 7,7 h 8.36853 a 7,7 0 0 0 7,-7 V 17.53378 a 7,7 0 0 0 -7,-7 z"
         fill="#ffffff"
         id="path19" />
      <path
         d="m 343.32209,19.36 a 3.49986,3.49986 0 0 1 -3.5,-3.5 v -5.021 a 3.49985,3.49985 0 0 1 3.5,-3.5 h 46.86377 c 1.60644,0 6.84765,0.61426 6.84765,8.521 a 3.49986,3.49986 0 0 1 -3.5,3.5 z"
         fill="#999999"
         id="path21" />
      <path
         d="m 390.18592,10.839 q 3.34888,0 3.34739,5.02112 H 343.322 V 10.839 h 46.86388 m 0,-7 H 343.322 a 7,7 0 0 0 -7,7 v 5.02112 a 7,7 0 0 0 7,7 h 50.21127 a 7,7 0 0 0 7,-7 c 0,-8.30408 -5.19694,-12.02112 -10.34739,-12.02112 z"
         fill="#ffffff"
         id="path23" />
      <rect
         x="339.82208"
         y="14.03384"
         width="15.36865"
         height="20.38965"
         rx="3.5"
         fill="#999999"
         id="rect25" />
      <path
         d="M 351.69062,17.53378 V 30.92349 H 343.322 V 17.53378 h 8.36859 m 0,-7 H 343.322 a 7,7 0 0 0 -7,7 v 13.38971 a 7,7 0 0 0 7,7 h 8.36859 a 7,7 0 0 0 7,-7 V 17.53378 a 7,7 0 0 0 -7,-7 z"
         fill="#ffffff"
         id="path27" />
      <rect
         x="381.66486"
         y="14.03384"
         width="15.36865"
         height="20.38965"
         rx="3.5"
         fill="#999999"
         id="rect29" />
      <path
         d="m 393.53333,17.53378 v 13.38971 h -8.36859 V 17.53378 h 8.36859 m 0,-7 h -8.36859 a 7,7 0 0 0 -7,7 v 13.38971 a 7,7 0 0 0 7,7 h 8.36859 a 7,7 0 0 0 7,-7 V 17.53378 a 7,7 0 0 0 -7,-7 z"
         fill="#ffffff"
         id="path31" />
      <path
         d="m 401.90168,34.42349 c -1.60645,0 -6.84717,-0.61426 -6.84717,-8.521 v -8.36865 a 3.49986,3.49986 0 0 1 3.5,-3.5 h 8.36865 a 3.49815,3.49815 0 0 1 2.98633,1.67383 H 428.681 a 3.49986,3.49986 0 0 1 3.5,3.5 v 3.7085 a 3.4981,3.4981 0 0 1 1.67383,2.98633 v 5.021 a 3.49985,3.49985 0 0 1 -3.5,3.5 z"
         fill="#999999"
         id="path33" />
      <path
         d="m 406.923,17.53378 a 1.479,1.479 0 0 0 1.6737,1.67371 h 20.08455 v 5.02112 H 406.923 a 1.479,1.479 0 0 0 1.6737,1.67376 h 21.75823 v 5.02112 h -28.45307 q -3.34892,0 -3.3474,-5.02112 v -8.36859 h 8.36854 m 0,-7 h -8.36852 a 7,7 0 0 0 -7,7 v 8.36859 c 0,8.30408 5.19693,12.02112 10.3474,12.02112 h 28.45305 a 7,7 0 0 0 7,-7 v -5.02112 a 6.97279,6.97279 0 0 0 -1.67368,-4.54229 v -2.15259 a 7,7 0 0 0 -7,-7 h -17.216 a 6.97279,6.97279 0 0 0 -4.54229,-1.67371 z"
         fill="#ffffff"
         id="path35" />
      <rect
         x="395.0545"
         y="7.3390198"
         width="38.800289"
         height="12.021"
         rx="3.5"
         fill="#999999"
         id="rect37" />
      <path
         d="m 430.35491,10.839 v 5.02112 H 398.55446 V 10.839 h 31.80045 m 0,-7 h -31.80045 a 7,7 0 0 0 -7,7 v 5.02112 a 7,7 0 0 0 7,7 h 31.80045 a 7,7 0 0 0 7,-7 V 10.839 a 7,7 0 0 0 -7,-7 z"
         fill="#ffffff"
         id="path39" />
      <path
         d="m 435.37629,19.36 a 3.49986,3.49986 0 0 1 -3.5,-3.5 c 0,-7.90674 5.24072,-8.521 6.84716,-8.521 h 31.8003 a 3.49986,3.49986 0 0 1 3.5,3.5 v 5.021 a 3.49987,3.49987 0 0 1 -3.5,3.5 z"
         fill="#999999"
         id="path41" />
      <path
         d="m 470.52393,10.839 v 5.02112 h -35.14787 q 0,-5.02113 3.34741,-5.02112 h 31.80046 m 0,-7 h -31.80046 c -5.15047,0 -10.34741,3.717 -10.34741,12.02112 a 7,7 0 0 0 7,7 h 35.14787 a 7,7 0 0 0 7,-7 V 10.839 a 7,7 0 0 0 -7,-7 z"
         fill="#ffffff"
         id="path43" />
      <path
         d="m 438.72345,34.42349 c -1.60644,0 -6.84716,-0.61426 -6.84716,-8.521 v -8.36865 a 3.49986,3.49986 0 0 1 3.5,-3.5 h 8.36816 a 3.49986,3.49986 0 0 1 3.5,3.5 v 4.86866 h 1.36865 v -3.19483 a 3.49987,3.49987 0 0 1 3.5,-3.5 h 15.06348 c 5.25586,0 8.521,3.26514 8.521,8.521 v 1.67383 c 0,7.90673 -5.24072,8.521 -6.84716,8.521 z"
         fill="#999999"
         id="path45" />
      <path
         d="m 443.74457,17.53378 v 8.36859 h 16.73706 c 1.11481,0 1.67371,-0.28094 1.67371,-0.83685 0,-0.55591 -0.5589,-0.83691 -1.67371,-0.83691 h -8.36853 v -5.02112 h 15.06342 q 5.02112,0 5.02112,5.02112 v 1.67376 q 0,5.02113 -3.34742,5.02112 h -30.12677 q -3.34893,0 -3.34741,-5.02112 v -8.36859 h 8.36853 m 0,-7 H 435.376 a 7,7 0 0 0 -7,7 v 8.36859 c 0,8.30408 5.197,12.02112 10.34741,12.02112 h 30.12677 c 5.15046,0 10.34742,-3.717 10.34742,-12.02112 v -1.67376 c 0,-7.19022 -4.83091,-12.02112 -12.02112,-12.02112 H 452.1131 a 6.9723,6.9723 0 0 0 -3.097,0.72061 6.98363,6.98363 0 0 0 -5.27155,-2.39432 z"
         fill="#ffffff"
         id="path47" />
      <path
         d="m 477.21857,19.36 a 3.49987,3.49987 0 0 1 -3.5,-3.5 c 0,-7.90674 5.24121,-8.521 6.84766,-8.521 h 28.45263 c 1.60645,0 6.84766,0.61426 6.84766,8.521 a 3.50017,3.50017 0 0 1 -3.5,3.5 z"
         fill="#999999"
         id="path49" />
      <path
         d="m 509.01923,10.839 q 3.3489,0 3.34741,5.02112 h -35.14789 q 0,-5.02113 3.34742,-5.02112 h 28.45306 m 0,-7 h -28.45306 c -5.15046,0 -10.34742,3.717 -10.34742,12.02112 a 7,7 0 0 0 7,7 h 35.14789 a 7,7 0 0 0 7,-7 c 0,-8.30408 -5.197,-12.02112 -10.34741,-12.02112 z"
         fill="#ffffff"
         id="path51" />
      <path
         d="m 503.99836,34.42349 a 3.49984,3.49984 0 0 1 -3.49659,-3.34717 h -13.24072 a 3.49986,3.49986 0 0 1 -3.5,-3.5 v -5.02148 a 3.49986,3.49986 0 0 1 3.5,-3.5 h 13.23731 v -1.521 a 3.50017,3.50017 0 0 1 3.5,-3.5 h 8.36816 a 3.50017,3.50017 0 0 1 3.5,3.5 v 13.38965 a 3.50017,3.50017 0 0 1 -3.5,3.5 z"
         fill="#999999"
         id="path53" />
      <path
         d="m 512.36664,17.53378 v 13.38971 h -8.36853 V 27.57608 H 487.261 V 22.5549 h 16.73712 v -5.02112 h 8.36853 m 0,-7 h -8.36853 a 7.00343,7.00343 0 0 0 -6.71637,5.02112 H 487.261 a 7,7 0 0 0 -7,7 v 5.02118 a 7,7 0 0 0 7,7 h 10.76447 a 6.9963,6.9963 0 0 0 5.97265,3.34741 h 8.36853 a 7,7 0 0 0 7,-7 V 17.53378 a 7,7 0 0 0 -7,-7 z"
         fill="#ffffff"
         id="path55" />
      <rect
         x="473.71857"
         y="14.03384"
         width="15.36865"
         height="20.38965"
         rx="3.5"
         fill="#999999"
         id="rect57" />
      <path
         d="m 485.58728,17.53378 v 13.38971 h -8.36853 V 17.53378 h 8.36853 m 0,-7 h -8.36853 a 7,7 0 0 0 -7,7 v 13.38971 a 7,7 0 0 0 7,7 h 8.36853 a 7,7 0 0 0 7,-7 V 17.53378 a 7,7 0 0 0 -7,-7 z"
         fill="#ffffff"
         id="path59" />
      <rect
         x="513.888"
         y="14.03384"
         width="15.36816"
         height="20.38965"
         rx="3.5"
         fill="#999999"
         id="rect61" />
      <path
         d="m 525.75629,17.53378 v 13.38971 h -8.36853 V 17.53378 h 8.36853 m 0,-7 h -8.36853 a 7,7 0 0 0 -7,7 v 13.38971 a 7,7 0 0 0 7,7 h 8.36853 a 7,7 0 0 0 7,-7 V 17.53378 a 7,7 0 0 0 -7,-7 z"
         fill="#ffffff"
         id="path63" />
      <path
         d="m 527.43,34.42349 a 3.50017,3.50017 0 0 1 -3.5,-3.5 v -5.021 a 3.50017,3.50017 0 0 1 3.5,-3.5 h 13.2373 v -4.86865 a 3.50017,3.50017 0 0 1 3.5,-3.5 h 8.36817 a 3.50018,3.50018 0 0 1 3.5,3.5 v 8.36866 c 0,7.90673 -5.24122,8.521 -6.84766,8.521 z"
         fill="#999999"
         id="path65" />
      <path
         d="m 552.53565,17.53378 v 8.36859 q 0,5.02113 -3.34741,5.02112 H 527.43 v -5.02112 h 16.73712 v -8.36859 h 8.36853 m 0,-7 h -8.36853 a 7,7 0 0 0 -7,7 v 1.36859 H 527.43 a 7,7 0 0 0 -7,7 v 5.02112 a 7,7 0 0 0 7,7 h 21.75824 c 5.15045,0 10.34741,-3.717 10.34741,-12.02112 v -8.36859 a 7,7 0 0 0 -7,-7 z"
         fill="#ffffff"
         id="path67" />
      <path
         d="m 517.388,19.36 a 3.50018,3.50018 0 0 1 -3.5,-3.5 v -5.021 a 3.50017,3.50017 0 0 1 3.5,-3.5 h 31.79981 c 1.60644,0 6.84766,0.61426 6.84766,8.521 a 3.50018,3.50018 0 0 1 -3.5,3.5 z"
         fill="#999999"
         id="path69" />
      <path
         d="m 549.18824,10.839 q 3.3489,0 3.34741,5.02112 H 517.38776 V 10.839 h 31.80048 m 0,-7 h -31.80048 a 7,7 0 0 0 -7,7 v 5.02112 a 7,7 0 0 0 7,7 h 35.14789 a 7,7 0 0 0 7,-7 c 0,-8.30408 -5.197,-12.02112 -10.34741,-12.02112 z"
         fill="#ffffff"
         id="path71" />
      <path
         d="m 586.01007,34.42349 a 3.50179,3.50179 0 0 1 -1.9414,-0.58789 L 579.929,31.07632 h -12.33006 a 3.50017,3.50017 0 0 1 -3.5,-3.5 v -5.02148 a 3.50017,3.50017 0 0 1 3.5,-3.5 h 13.23731 v -1.521 a 3.50017,3.50017 0 0 1 3.5,-3.5 h 8.36816 a 3.50017,3.50017 0 0 1 3.5,3.5 v 5.021 a 11.34491,11.34491 0 0 1 -0.89551,4.78223 l 1.01074,0.67431 a 3.5,3.5 0 0 1 -1.9414,6.41211 z"
         fill="#999999"
         id="path73" />
      <path
         d="m 592.70465,17.53378 v 5.02112 q 0,5.02121 -3.34741,5.02118 l 5.02112,3.34741 h -8.36853 l -5.02112,-3.34741 H 567.599 V 22.5549 h 15.06342 a 1.479,1.479 0 0 0 1.6737,-1.6737 v -3.34742 h 8.36853 m 0,-7 h -8.36853 a 7.00344,7.00344 0 0 0 -6.71637,5.02112 H 567.599 a 7,7 0 0 0 -7,7 v 5.02118 a 7,7 0 0 0 7,7 h 11.27027 l 3.25766,2.17175 a 6.99982,6.99982 0 0 0 3.8829,1.17566 h 8.36853 a 7.00042,7.00042 0 0 0 4.98773,-11.91217 16.85733,16.85733 0 0 0 0.33856,-3.45642 v -5.02112 a 7,7 0 0 0 -7,-7 z"
         fill="#ffffff"
         id="path75" />
      <rect
         x="554.05695"
         y="14.03384"
         width="15.36816"
         height="20.38965"
         rx="3.5"
         fill="#999999"
         id="rect77" />
      <path
         d="m 565.9253,17.53378 v 13.38971 h -8.36853 V 17.53378 h 8.36853 m 0,-7 h -8.36853 a 7,7 0 0 0 -7,7 v 13.38971 a 7,7 0 0 0 7,7 h 8.36853 a 7,7 0 0 0 7,-7 V 17.53378 a 7,7 0 0 0 -7,-7 z"
         fill="#ffffff"
         id="path79" />
      <path
         d="m 557.557,19.36 a 3.50017,3.50017 0 0 1 -3.5,-3.5 c 0,-7.90674 5.24121,-8.521 6.84765,-8.521 h 28.45313 c 1.60645,0 6.84668,0.61426 6.84668,8.521 a 3.50017,3.50017 0 0 1 -3.5,3.5 z"
         fill="#999999"
         id="path81" />
      <path
         d="m 589.35724,10.839 q 3.34891,0 3.34741,5.02112 h -35.14788 q 0,-5.02113 3.34741,-5.02112 h 28.45306 m 0,-7 h -28.45306 c -5.15045,0 -10.34741,3.717 -10.34741,12.02112 a 7,7 0 0 0 7,7 h 35.14788 a 7,7 0 0 0 7,-7 c 0,-8.30408 -5.197,-12.02112 -10.34741,-12.02112 z"
         fill="#ffffff"
         id="path83" />
      <rect
         x="595.89972"
         y="7.3390198"
         width="15.36816"
         height="27.084471"
         rx="3.5"
         fill="#999999"
         id="rect85" />
      <path
         d="m 607.768,10.839 v 20.08449 h -8.36853 V 10.839 h 8.36853 m 0,-7 h -8.36853 a 7,7 0 0 0 -7,7 v 20.08449 a 7,7 0 0 0 7,7 h 8.36853 a 7,7 0 0 0 7,-7 V 10.839 a 7,7 0 0 0 -7,-7 z"
         fill="#ffffff"
         id="path87" />
      <path
         d="m 641.00324,19.36 a 3.49992,3.49992 0 0 1 -2.91211,-5.44141 l 3.34766,-5.021 a 3.50085,3.50085 0 0 1 2.9121,-1.55859 h 10.042 a 3.49993,3.49993 0 0 1 2.91211,5.44141 l -3.34766,5.021 a 3.50088,3.50088 0 0 1 -2.91211,1.5586 z"
         fill="#999999"
         id="path89" />
      <path
         d="m 654.39277,10.839 h 0.005 m -0.005,0 -3.34742,5.02112 h -10.04223 l 3.34741,-5.02112 h 10.04224 m 0.005,-7 h -10.04724 a 7,7 0 0 0 -5.82437,3.11709 l -3.34738,5.02112 a 7,7 0 0 0 5.82434,10.88291 h 10.04223 a 7,7 0 0 0 5.82437,-3.1171 l 3.25571,-4.88357 A 6.99988,6.99988 0 0 0 654.39777,3.839 Z m -0.005,14 z"
         fill="#ffffff"
         id="path91" />
      <path
         d="m 617.80988,19.36 a 3.4996,3.4996 0 0 1 -2.91211,-1.5586 l -3.34668,-5.021 A 3.49971,3.49971 0 0 1 614.4632,7.339 h 10.042 a 3.50087,3.50087 0 0 1 2.91211,1.55859 l 3.34766,5.021 A 3.49992,3.49992 0 0 1 627.85285,19.36 Z"
         fill="#999999"
         id="path93" />
      <path
         d="m 624.50513,10.839 3.34741,5.02112 H 617.81031 L 614.46283,10.839 h 10.0423 m 0,-7 h -10.0423 a 7,7 0 0 0 -5.82431,10.883 l 3.34748,5.021 a 7,7 0 0 0 5.82431,3.117 h 10.04223 a 7,7 0 0 0 5.82434,-10.88291 L 630.32947,6.95597 A 7,7 0 0 0 624.50513,3.839 Z"
         fill="#ffffff"
         id="path95" />
      <path
         d="m 627.85285,34.42349 a 3.49916,3.49916 0 0 1 -2.96778,-1.645 l -8.36914,-13.38965 a 3.49955,3.49955 0 0 1 2.96778,-5.355 h 10.043 a 3.49917,3.49917 0 0 1 2.96777,1.645 l 2.05273,3.28467 2.05371,-3.28467 a 3.49918,3.49918 0 0 1 2.96778,-1.645 h 10.042 a 3.49955,3.49955 0 0 1 2.96777,5.355 l -8.36816,13.38965 a 3.49914,3.49914 0 0 1 -2.96777,1.645 z"
         fill="#999999"
         id="path97" />
      <path
         d="m 649.61072,17.53378 -8.36853,13.38971 H 627.85254 L 619.484,17.53378 h 10.04224 l 5.02112,8.03382 5.02112,-8.03382 h 10.04223 m 0,-7 h -10.04222 a 7,7 0 0 0 -5.02112,2.12247 7,7 0 0 0 -5.02112,-2.12247 H 619.484 a 7,7 0 0 0 -5.936,10.71 l 8.36853,13.38971 a 7,7 0 0 0 5.936,3.29 h 13.38965 a 7,7 0 0 0 5.936,-3.29 l 8.36853,-13.38971 a 7,7 0 0 0 -5.936,-10.71 z m 0,14 z"
         fill="#ffffff"
         id="path99" />
      <rect
         x="655.91437"
         y="7.3390198"
         width="38.799801"
         height="12.021"
         rx="3.5"
         fill="#999999"
         id="rect101" />
      <path
         d="m 691.21436,10.839 v 5.02112 H 659.41388 V 10.839 h 31.80048 m 0,-7 h -31.80048 a 7,7 0 0 0 -7,7 v 5.02112 a 7,7 0 0 0 7,7 h 31.80048 a 7,7 0 0 0 7,-7 V 10.839 a 7,7 0 0 0 -7,-7 z"
         fill="#ffffff"
         id="path103" />
      <path
         d="m 662.76105,34.42349 c -1.60646,0 -6.84668,-0.61426 -6.84668,-8.521 v -8.36865 a 3.50017,3.50017 0 0 1 3.5,-3.5 h 8.36817 a 3.49812,3.49812 0 0 1 2.98632,1.67383 h 18.77149 a 3.50017,3.50017 0 0 1 3.5,3.5 v 3.7085 a 3.49813,3.49813 0 0 1 1.67383,2.98633 v 5.021 a 3.50017,3.50017 0 0 1 -3.5,3.5 z"
         fill="#999999"
         id="path105" />
      <path
         d="m 667.78241,17.53378 a 1.479,1.479 0 0 0 1.67377,1.67371 h 20.08447 v 5.02112 h -21.75824 a 1.479,1.479 0 0 0 1.67377,1.67376 h 21.75818 v 5.02112 H 662.7613 q -3.34892,0 -3.34742,-5.02112 v -8.36859 h 8.36853 m 0,-7 h -8.36853 a 7,7 0 0 0 -7,7 v 8.36859 c 0,8.30408 5.197,12.02112 10.34742,12.02112 h 28.45306 a 7,7 0 0 0 7,-7 v -5.02112 a 6.97265,6.97265 0 0 0 -1.67371,-4.54229 v -2.15259 a 7,7 0 0 0 -7,-7 h -17.21594 a 6.97288,6.97288 0 0 0 -4.5423,-1.67371 z"
         fill="#ffffff"
         id="path107" />
      <path
         d="m 343.32209,56.46841 a 3.49985,3.49985 0 0 1 -3.5,-3.5 V 36.65005 a 3.49986,3.49986 0 0 1 3.5,-3.5 h 85.57714 c 11.79493,0 18.291,7.03809 18.291,19.81836 a 3.49985,3.49985 0 0 1 -3.5,3.5 z"
         fill="#999999"
         id="path109" />
      <path
         d="m 428.89905,36.64993 q 14.7896,0 14.79108,16.31867 H 343.322 V 36.64993 h 85.577 m 0,-7 h -85.577 a 7,7 0 0 0 -7,7 V 52.9686 a 7,7 0 0 0 7,7 h 100.3681 a 7,7 0 0 0 7,-7 c 0,-14.81934 -7.94255,-23.31867 -21.79108,-23.31867 z"
         fill="#ffffff"
         id="path111" />
      <path
         d="m 343.32209,105.425 a 3.50017,3.50017 0 0 1 -3.5,-3.5 V 85.60562 a 3.50017,3.50017 0 0 1 3.5,-3.5 h 18.21582 a 3.48236,3.48236 0 0 1 -0.58594,-1.93945 V 63.84781 a 3.50017,3.50017 0 0 1 3.5,-3.5 h 46.48633 c 2.83935,0 2.83935,-0.77149 2.83935,-1.93945 a 3.49986,3.49986 0 0 1 3.5,-3.5 h 26.4126 a 3.49985,3.49985 0 0 1 3.5,3.5 v 27.19726 c 0,12.78027 -6.49609,19.81934 -18.291,19.81934 z m 71.0332,-21.46582"
         fill="#999999"
         id="path113" />
      <path
         d="m 443.69013,58.40817 v 27.19776 q 0,16.31864 -14.79108,16.31866 H 343.322 V 85.60593 h 68.67289 q 5.28107,0 5.28253,-2.71979 0,-2.71674 -5.28253,-2.71979 H 364.45217 V 63.84769 h 46.48626 q 6.339,0 6.339,-5.43952 h 26.41268 m 0,-7 h -26.41266 a 7.00249,7.00249 0 0 0 -6.8254,5.43952 h -45.99988 a 7,7 0 0 0 -7,7 V 78.60593 H 343.322 a 7,7 0 0 0 -7,7 v 16.31866 a 7,7 0 0 0 7,7 h 85.577 c 13.84853,0 21.79108,-8.49933 21.79108,-23.31866 V 58.40817 a 7,7 0 0 0 -7,-7 z M 411.788,56.77753 Z m 1.3963,21.74676 h -7e-5 z m 0,8.7237 z"
         fill="#ffffff"
         id="path115" />
      <path
         d="m 454.25519,105.425 a 3.50018,3.50018 0 0 1 -3.5,-3.5 V 80.16617 c 0,-12.78028 6.8711,-19.81836 19.34766,-19.81836 H 522.928 c 1.41309,0 1.78223,-0.07715 1.78223,-1.93945 a 3.50017,3.50017 0 0 1 3.5,-3.5 h 26.41309 a 3.50017,3.50017 0 0 1 3.5,3.5 v 5.43945 c 0,9.27637 -3.62012,15.52734 -10.376,18.25781 h 6.876 a 3.50049,3.50049 0 0 1 3.5,3.5 V 101.925 a 3.5005,3.5005 0 0 1 -3.5,3.5 z"
         fill="#999999"
         id="path117" />
      <path
         d="m 554.62323,58.40817 v 5.43952 q 0,16.31873 -15.84759,16.31866 h -58.10785 q -5.281,0 -5.28247,5.43958 h 79.23791 v 16.31866 H 454.25518 V 80.16635 q 0,-16.31863 15.84761,-16.31866 H 522.928 q 5.28114,0 5.28254,-5.43952 h 26.41265 m 0,-7 h -26.41261 a 7.00251,7.00251 0 0 0 -6.82544,5.43952 h -51.28235 c -14.52,0 -22.84761,8.49929 -22.84761,23.31866 v 21.75824 a 7,7 0 0 0 7,7 h 100.36805 a 7,7 0 0 0 7,-7 V 85.60593 a 7.00246,7.00246 0 0 0 -4.33453,-6.47464 c 2.83557,-3.84583 4.33453,-8.99552 4.33453,-15.2836 v -5.43952 a 7,7 0 0 0 -7,-7 z"
         fill="#ffffff"
         id="path119" />
      <path
         d="m 454.25519,56.46841 a 3.49986,3.49986 0 0 1 -3.5,-3.5 V 36.65005 a 3.49987,3.49987 0 0 1 3.5,-3.5 h 84.52051 c 12.47656,0 19.34766,7.03809 19.34766,19.81836 a 3.50017,3.50017 0 0 1 -3.5,3.5 z"
         fill="#999999"
         id="path121" />
      <path
         d="m 538.77564,36.64993 q 15.84759,0 15.84759,16.31867 H 454.25518 V 36.64993 h 84.52046 m 0,-7 h -84.52046 a 7,7 0 0 0 -7,7 V 52.9686 a 7,7 0 0 0 7,7 h 100.36805 a 7,7 0 0 0 7,-7 c 0,-14.81934 -8.32763,-23.31867 -22.84759,-23.31867 z"
         fill="#ffffff"
         id="path123" />
      <path
         d="m 636.05011,56.46841 a 3.4999,3.4999 0 0 1 -1.998,-6.37353 l 23.46875,-16.31836 a 3.50268,3.50268 0 0 1 1.998,-0.62647 h 31.69532 a 3.5,3.5 0 0 1 1.99414,6.37647 l -23.54493,16.31836 a 3.4986,3.4986 0 0 1 -1.99414,0.62353 z"
         fill="#999999"
         id="path125" />
      <path
         d="m 691.21436,36.64993 h 0.005 m -0.005,0 -23.545,16.31867 h -31.61967 l 23.46948,-16.31867 h 31.69519 m 0.005,-7 h -31.70019 a 7,7 0 0 0 -3.99616,1.25275 l -23.46948,16.31869 a 7,7 0 0 0 3.99616,12.74723 h 31.61969 a 7,7 0 0 0 3.98751,-1.24674 l 23.4401,-16.246 a 6.99984,6.99984 0 0 0 -3.87763,-12.826 z m -0.005,14 z"
         fill="#ffffff"
         id="path127" />
      <path
         d="m 588.73371,56.46841 a 3.4986,3.4986 0 0 1 -1.99414,-0.62353 l -23.5459,-16.31836 a 3.5,3.5 0 0 1 1.99414,-6.37647 h 31.69531 a 3.50271,3.50271 0 0 1 1.99805,0.62647 l 23.46972,16.31836 a 3.4999,3.4999 0 0 1 -1.998,6.37353 z"
         fill="#999999"
         id="path129" />
      <path
         d="M 596.88349,36.64993 620.353,52.9686 h -31.61972 l -23.545,-16.31867 h 31.69519 m 0,-7 H 565.1883 a 7,7 0 0 0 -3.98749,12.75327 l 23.545,16.31866 a 6.99991,6.99991 0 0 0 3.98749,1.24674 h 31.6197 a 7,7 0 0 0 3.99613,-12.74723 L 600.87964,30.90268 a 7,7 0 0 0 -3.99615,-1.25275 z"
         fill="#ffffff"
         id="path131" />
      <path
         d="M 659.21711,105.425 A 3.49586,3.49586 0 0 1 657.22199,104.8 L 628.20148,84.66031 599.18,104.8 a 3.49586,3.49586 0 0 1 -1.99512,0.625 h -31.69434 a 3.49993,3.49993 0 0 1 -1.99707,-6.374 l 42.72559,-29.68554 -11.63477,-8.083 a 3.49986,3.49986 0 0 1 1.99707,-6.374 h 63.23926 a 3.49985,3.49985 0 0 1 1.99707,6.374 l -11.63476,8.083 42.72656,29.68554 a 3.49993,3.49993 0 0 1 -1.99707,6.374 z"
         fill="#999999"
         id="path133" />
      <path
         d="m 659.82105,58.40817 h 0.005 m -0.005,0 -15.77216,10.95683 46.86362,32.55963 h -31.69516 l -31.016,-21.52508 -31.01605,21.52508 H 565.49015 L 612.35376,69.365 596.58161,58.40817 h 63.23944 m 0.005,-7 h -63.24444 a 7,7 0 0 0 -3.99375,12.74893 l 7.49714,5.2082 -38.5889,26.81057 a 7,7 0 0 0 3.99405,12.74872 h 31.69516 a 7.00009,7.00009 0 0 0 3.991,-1.24921 l 27.025,-18.75531 27.025,18.75531 a 7.00015,7.00015 0 0 0 3.991,1.24921 h 31.69516 a 7,7 0 0 0 3.99405,-12.74872 L 656.31766,69.3653 663.71,64.22989 a 6.99984,6.99984 0 0 0 -3.884,-12.82172 z m -0.005,14 z"
         fill="#ffffff"
         id="path135" />
      <path
         d="m 328.98517,110.50015 a 3.50075,3.50075 0 0 1 -3.26269,-2.23047 13.11518,13.11518 0 0 1 -16.57813,-1.59863 12.0804,12.0804 0 0 1 -3.86133,-8.76172 V 84.7775 a 3.50017,3.50017 0 0 1 3.5,-3.5 h 4.04053 a 3.50017,3.50017 0 0 1 3.5,3.5 v 12.12109 a 2.41008,2.41008 0 0 0 0.61133,1.93945 2.00822,2.00822 0 0 0 2.894,0.0127 2.44458,2.44458 0 0 0 0.606,-1.95215 v -2.01953 a 8.43783,8.43783 0 0 1 2.3584,-6.19727 8.03013,8.03013 0 0 1 11.34375,-0.01562 8.4144,8.4144 0 0 1 2.38867,6.21289 v 12.12109 a 3.50017,3.50017 0 0 1 -3.5,3.5 z"
         fill="#2b3990"
         id="path137" />
      <path
         d="M 312.82354,84.7778 V 96.899 a 5.94505,5.94505 0 0 0 1.64986,4.42761 5.50894,5.50894 0 0 0 7.82958,0 5.98524,5.98524 0 0 0 1.63172,-4.42761 v -2.02019 a 5.02328,5.02328 0 0 1 1.33124,-3.72052 4.53019,4.53019 0 0 1 6.41284,0 4.98979,4.98979 0 0 1 1.3468,3.72052 V 107 h -4.0404 V 94.87881 q 0,-1.0101 -0.505,-1.01007 -0.505,3e-5 -0.50506,1.01007 v 3.03034 a 8.69079,8.69079 0 0 1 -2.81274,6.27948 9.57008,9.57008 0 0 1 -13.5509,0 8.66934,8.66934 0 0 1 -2.82832,-6.27948 V 84.7778 h 4.0404 m 0,-7 h -4.0404 a 7,7 0 0 0 -7,7 v 13.13135 a 15.66412,15.66412 0 0 0 4.89386,11.24448 16.29,16.29 0 0 0 11.70214,4.84637 16.49957,16.49957 0 0 0 6.52909,-1.30911 6.96854,6.96854 0 0 0 4.07693,1.30911 h 4.0404 a 7,7 0 0 0 7,-7 V 94.87881 a 11.833,11.833 0 0 0 -3.42948,-8.70248 11.53,11.53 0 0 0 -16.28348,0.0358 c -0.16052,0.16028 -0.32437,0.33392 -0.48908,0.5213 V 84.7778 a 7,7 0 0 0 -7,-7 z"
         fill="#ffffff"
         id="path139" />
      <path
         d="m 334.03547,110.50015 a 3.50017,3.50017 0 0 1 -3.5,-3.5 V 94.87906 a 2.41063,2.41063 0 0 0 -0.61084,-1.93945 2.01046,2.01046 0 0 0 -2.895,-0.01172 2.51248,2.51248 0 0 0 -0.605,1.95117 v 2.01953 a 8.44224,8.44224 0 0 1 -2.35938,6.19824 8.02953,8.02953 0 0 1 -11.34424,0.0127 8.40594,8.40594 0 0 1 -2.3872,-6.21094 V 84.7775 a 3.50017,3.50017 0 0 1 3.5,-3.5 h 4.04052 a 3.50076,3.50076 0 0 1 3.26267,2.2305 13.11517,13.11517 0 0 1 16.57812,1.59863 12.08146,12.08146 0 0 1 3.86084,8.76172 v 13.13183 a 3.50017,3.50017 0 0 1 -3.5,3.5 z"
         fill="#2b3990"
         id="path141" />
      <path
         d="m 328.48016,84.7778 a 9.26351,9.26351 0 0 1 6.76763,2.81146 8.669,8.669 0 0 1 2.82832,6.27948 V 107 h -4.04039 V 94.87881 a 5.945,5.945 0 0 0 -1.64987,-4.42761 5.509,5.509 0 0 0 -7.82957,0 5.98574,5.98574 0 0 0 -1.63172,4.42761 V 96.899 a 5.02333,5.02333 0 0 1 -1.33124,3.72058 4.53019,4.53019 0 0 1 -6.41284,0 4.98984,4.98984 0 0 1 -1.3468,-3.72058 V 84.7778 h 4.0404 V 96.899 q 0,1.0101 0.50508,1.01013 0.50508,3e-5 0.505,-1.01013 v -3.03026 a 8.691,8.691 0 0 1 2.81274,-6.27948 9.24011,9.24011 0 0 1 6.78326,-2.81146 m 0,-7 a 16.49986,16.49986 0 0 0 -6.5291,1.30914 6.96872,6.96872 0 0 0 -4.077,-1.30914 h -4.0404 a 7,7 0 0 0 -7,7 V 96.899 a 11.83307,11.83307 0 0 0 3.42948,8.70254 11.53006,11.53006 0 0 0 16.28348,-0.0358 c 0.16052,-0.16028 0.32437,-0.33393 0.48908,-0.52131 V 107 a 7,7 0 0 0 7,7 h 4.04039 a 7,7 0 0 0 7,-7 V 93.86874 a 15.66393,15.66393 0 0 0 -4.89393,-11.24456 16.28976,16.28976 0 0 0 -11.702,-4.84638 z"
         fill="#ffffff"
         id="path143" />
      <path
         d="m 317.87433,86.258 c -8.00195,0 -12.59131,-4.58887 -12.59131,-12.59083 v -12.1221 a 3.50018,3.50018 0 0 1 3.5,-3.5 h 4.04053 a 3.50017,3.50017 0 0 1 3.5,3.5 v 12.12207 c 0,1.4336 0.11572,1.54981 1.55078,1.54981 h 11.11084 c 1.43457,0 1.5503,-0.11621 1.5503,-1.54981 V 61.54507 a 3.50017,3.50017 0 0 1 3.5,-3.5 h 4.04053 a 3.50017,3.50017 0 0 1 3.5,3.5 v 12.12207 c 0,8.002 -4.58935,12.59083 -12.59082,12.59083 z"
         fill="#2b3990"
         id="path145" />
      <path
         d="m 338.07611,61.5455 v 12.12122 q 0,9.09091 -9.09094,9.09088 h -11.11108 q -9.0909,0 -9.09094,-9.09088 V 61.5455 h 4.04039 v 12.12122 q 0,5.0505 5.05055,5.05047 h 11.11108 q 5.05051,0 5.05054,-5.05047 V 61.5455 h 4.0404 m 0,-7 h -4.0404 a 7,7 0 0 0 -7,7 v 10.17169 h -7.21218 V 61.5455 a 7,7 0 0 0 -7,-7 h -4.04039 a 7,7 0 0 0 -7,7 v 12.12122 c 0,9.9252 6.16569,16.09088 16.09094,16.09088 h 11.11108 c 9.92525,0 16.09094,-6.16568 16.09094,-16.09088 V 61.5455 a 7,7 0 0 0 -7,-7 z"
         fill="#ffffff"
         id="path147" />
      <path
         d="m 317.87433,81.20718 c -4.65136,0 -7.54052,-2.88964 -7.54052,-7.54 V 61.54507 a 3.50017,3.50017 0 0 1 3.5,-3.5 h 4.04052 a 3.5005,3.5005 0 0 1 3.46875,3.03028 h 1.58155 a 3.50017,3.50017 0 0 1 3.5,3.5 v 13.13183 a 3.50017,3.50017 0 0 1 -3.5,3.5 z"
         fill="#2b3990"
         id="path149" />
      <path
         d="m 317.87408,61.5455 v 11.11115 a 0.89278,0.89278 0 0 0 1.01009,1.01007 v -9.09088 h 4.04039 v 13.13128 h -5.05048 q -4.0404,0 -4.0404,-4.0404 V 61.5455 h 4.0404 m 0,-7 h -4.0404 a 7,7 0 0 0 -7,7 v 12.12122 c 0,6.6036 4.4368,11.0404 11.0404,11.0404 h 5.05048 a 7,7 0 0 0 7,-7 V 64.57584 a 7.001,7.001 0 0 0 -6.25746,-6.96109 6.99266,6.99266 0 0 0 -5.793,-3.06925 z"
         fill="#ffffff"
         id="path151" />
      <path
         d="m 323.93488,81.20718 a 3.50017,3.50017 0 0 1 -3.5,-3.5 V 64.57535 a 3.50017,3.50017 0 0 1 3.5,-3.5 h 1.58154 a 3.5005,3.5005 0 0 1 3.46875,-3.03028 h 4.04053 a 3.50017,3.50017 0 0 1 3.5,3.5 v 12.12207 c 0,4.6504 -2.88916,7.54 -7.54053,7.54 z"
         fill="#2b3990"
         id="path153" />
      <path
         d="m 333.02558,61.5455 v 12.12122 q 0,4.0404 -4.0404,4.0404 H 323.9347 V 64.57584 h 4.04039 v 9.09088 a 0.89278,0.89278 0 0 0 1.01009,-1.01007 V 61.5455 h 4.0404 m 0,-7 h -4.0404 a 6.99263,6.99263 0 0 0 -5.793,3.06925 7.001,7.001 0 0 0 -6.25747,6.96109 v 13.13128 a 7,7 0 0 0 7,7 h 5.05048 c 6.6036,0 11.0404,-4.4368 11.0404,-11.0404 V 61.5455 a 7,7 0 0 0 -7,-7 z"
         fill="#ffffff"
         id="path155" />
      <path
         d="m 317.87433,63.02554 c -8.00195,0 -12.59131,-4.58935 -12.59131,-12.59131 V 38.31314 a 3.49987,3.49987 0 0 1 3.5,-3.5 h 4.04053 a 3.49823,3.49823 0 0 1 3.03027,1.74756 3.49824,3.49824 0 0 1 3.03028,-1.74756 h 19.1919 a 3.49986,3.49986 0 0 1 3.5,3.5 v 12.12109 c 0,8.002 -4.58935,12.59131 -12.59082,12.59131 z M 328.98517,51.985 c 1.43457,0 1.5503,-0.11573 1.5503,-1.55079 v -4.58054 h -4.11084 v 3.5708 a 3.492,3.492 0 0 1 -1.11377,2.56055 z"
         fill="#2b3990"
         id="path157" />
      <path
         d="m 338.07611,38.3132 v 12.12122 q 0,9.09091 -9.09094,9.09088 h -11.11108 q -9.0909,0 -9.09094,-9.09088 V 38.3132 h 4.04039 v 12.12122 q 0,5.0505 5.05055,5.05047 h 11.11108 q 5.05051,0 5.05054,-5.05047 v -8.08081 h -11.11115 v 7.07068 h -4.04041 V 38.3132 h 19.192 m 0,-7 h -19.192 a 6.97383,6.97383 0 0 0 -3.0303,0.68811 6.97384,6.97384 0 0 0 -3.03031,-0.68811 h -4.04039 a 7,7 0 0 0 -7,7 v 12.12122 c 0,9.9252 6.16569,16.09088 16.09094,16.09088 h 11.11108 c 9.92525,0 16.09094,-6.16568 16.09094,-16.09088 V 38.3132 a 7,7 0 0 0 -7,-7 z"
         fill="#ffffff"
         id="path159" />
      <path
         d="m 317.87433,57.97476 c -4.65136,0 -7.54052,-2.88916 -7.54052,-7.54053 V 38.31314 a 3.49986,3.49986 0 0 1 3.5,-3.5 h 4.04052 a 3.49986,3.49986 0 0 1 3.5,3.5 v 2.66406 a 3.49113,3.49113 0 0 1 2.56055,-1.11377 h 9.09082 a 3.49986,3.49986 0 0 1 3.5,3.5 v 7.0708 c 0,4.65137 -2.88916,7.54053 -7.54053,7.54053 z"
         fill="#2b3990"
         id="path161" />
      <path
         d="m 317.87409,38.3132 v 11.11109 a 0.8928,0.8928 0 0 0 1.01006,1.01013 h 9.091 a 0.8928,0.8928 0 0 0 1.01006,-1.01013 v -2.02021 h -1.01006 v 2.02021 h -4.04042 v -6.06061 h 9.09089 v 7.07074 q 0,4.0404 -4.04041,4.0404 h -11.11112 q -4.0404,0 -4.0404,-4.0404 V 38.3132 h 4.0404 m 0,-7 h -4.0404 a 7,7 0 0 0 -7,7 v 12.12122 c 0,6.6036 4.4368,11.0404 11.0404,11.0404 h 11.11108 c 6.60359,0 11.04041,-4.4368 11.04041,-11.0404 v -7.07074 a 7,7 0 0 0 -7,-7 H 324.599 a 7.0029,7.0029 0 0 0 -6.72494,-5.05048 z"
         fill="#ffffff"
         id="path163" />
      <path
         d="m 338.0755,39.79312 a 3.49169,3.49169 0 0 1 -1.1958,-0.21094 l -25.92578,-9.42773 a 3.4156,3.4156 0 0 1 -0.36914,-0.15869 8.89167,8.89167 0 0 1 -5.30176,-8.18115 8.34065,8.34065 0 0 1 5.71094,-8.35352 l 25.84863,-9.73633 a 3.5,3.5 0 0 1 4.7334,3.27539 V 24.34 a 3.49986,3.49986 0 0 1 -3.5,3.5 h -1.84082 l 3.05518,1.12988 a 3.50029,3.50029 0 0 1 2.28564,3.28271 v 4.04053 a 3.50025,3.50025 0 0 1 -3.50049,3.5 z M 330.88166,25.86 a 3.48869,3.48869 0 0 1 -0.34619,-1.52 v -6.81446 l -10.75147,4.23 z"
         fill="#2b3990"
         id="path165" />
      <path
         d="m 338.07611,7 v 17.34012 h -4.0404 V 12.38724 l -20.53877,8.08081 a 1.35836,1.35836 0 0 0 -0.6734,1.3468 1.60264,1.60264 0 0 0 0.6734,1.3468 l 24.57917,9.09094 V 36.293 l -25.926,-9.42761 a 5.39239,5.39239 0 0 1 -3.367,-5.05054 q 0,-3.87139 3.367,-5.05048 L 338.07611,7 m -5.4e-4,-7 a 6.99442,6.99442 0 0 0 -2.46665,0.44925 l -25.86228,9.74036 a 11.813,11.813 0 0 0 -7.96349,11.62524 12.39182,12.39182 0 0 0 7.23633,11.31146 7.00139,7.00139 0 0 0 0.73848,0.31763 l 25.926,9.42761 a 7,7 0 0 0 9.39219,-6.57855 v -4.04041 a 6.99241,6.99241 0 0 0 -1.2248,-3.95565 6.9679,6.9679 0 0 0 1.2248,-3.95682 V 7 a 7.00005,7.00005 0 0 0 -7.00054,-7 z"
         fill="#ffffff"
         id="path167" />
      <path
         d="M 338.0755,34.74234 A 3.49622,3.49622 0 0 1 336.85724,34.5231 L 313.41877,25.818 a 4.1393,4.1393 0 0 1 -0.019,-8.00048 l 18.37744,-7.01661 a 3.50026,3.50026 0 0 1 4.74854,3.27 v 8.75489 l 2.8374,1.12158 a 3.50063,3.50063 0 0 1 2.21285,3.25492 v 4.04 a 3.50021,3.50021 0 0 1 -3.50049,3.5 z"
         fill="#2b3990"
         id="path169" />
      <path
         d="M 333.02558,14.07077 V 24.34012 H 330.837 l 7.23907,2.86194 v 4.0404 l -23.569,-8.75421 c -0.44806,-0.11267 -0.6734,-0.33667 -0.6734,-0.6734 0,-0.33673 0.22534,-0.56073 0.6734,-0.6734 l 18.5185,-7.07068 m -4.0404,9.596 V 19.963 l -4.71382,1.85181 4.71382,1.85187 m 4.03983,-16.596 a 6.99459,6.99459 0 0 0 -2.49633,0.46051 l -18.28245,6.98053 a 7.6338,7.6338 0 0 0 0.0423,14.61972 l 23.35025,8.67294 a 7,7 0 0 0 9.4373,-6.562 v -4.0404 a 7,7 0 0 0 -4.42639,-6.50974 l -0.62414,-0.24676 v -6.37471 a 7.0001,7.0001 0 0 0 -7.00057,-7 z"
         fill="#ffffff"
         id="path171" />
      <g
         id="Megadrive32x">
        <path
           d="M 343.322,15.86011 V 10.839 h 46.86385 q 3.34892,0 3.34742,5.02113 z m 0,15.06338 V 17.53382 h 8.36855 v 13.38967 z m 20.08451,0 V 17.53382 h 8.36854 v 13.38967 z m 21.75821,0 V 17.53382 h 8.36855 v 13.38967 z"
           fill="#999999"
           id="path173" />
        <path
           d="M 398.55443,15.86011 V 10.839 h 31.80047 v 5.02113 z m 0,10.04225 v -8.36854 h 8.36857 a 1.479,1.479 0 0 0 1.67371,1.67371 h 20.0845 v 5.02112 H 406.923 a 1.479,1.479 0 0 0 1.67371,1.67371 h 21.75819 v 5.02113 h -28.453 q -3.34896,0 -3.34747,-5.02113 z"
           fill="#999999"
           id="path175" />
        <path
           d="m 435.376,15.86011 q 0,-5.02113 3.34741,-5.02113 h 31.80047 v 5.02113 z m 0,10.04225 v -8.36854 h 8.36854 v 8.36854 h 16.73709 c 1.11481,0 1.67371,-0.28094 1.67371,-0.83685 0,-0.55591 -0.5589,-0.83686 -1.67371,-0.83686 h -8.36855 v -5.02112 h 15.06338 q 5.02113,0 5.02113,5.02112 v 1.67371 q 0,5.02113 -3.34742,5.02113 h -30.12673 q -3.3489,0 -3.34744,-5.02113 z"
           fill="#999999"
           id="path177" />
        <path
           d="m 477.21875,15.86011 q 0,-5.02113 3.34741,-5.02113 h 28.453 q 3.34891,0 3.34742,5.02113 z m 0,15.06338 V 17.53382 h 8.36854 v 13.38967 z m 26.77934,0 V 27.57607 H 487.261 v -5.02113 h 16.73709 v -5.02112 h 8.36854 v 13.38967 z"
           fill="#999999"
           id="path179" />
        <path
           d="M 517.38776,15.86011 V 10.839 h 31.80046 q 3.34892,0 3.34742,5.02113 z m 0,15.06338 V 17.53382 h 8.36854 v 13.38967 z m 31.80046,0 H 527.43 v -5.02113 h 16.7371 v -8.36854 h 8.36854 v 8.36854 q 0,5.02113 -3.34742,5.02113 z"
           fill="#999999"
           id="path181" />
        <path
           d="m 557.55677,15.86011 q 0,-5.02113 3.34741,-5.02113 h 28.453 q 3.34892,0 3.34742,5.02113 z m 0,15.06338 V 17.53382 h 8.36854 V 30.92349 Z M 567.599,27.57607 v -5.02113 h 15.0634 a 1.479,1.479 0 0 0 1.67371,-1.6737 v -3.34742 h 8.36854 v 5.02112 q 0,5.02113 -3.34742,5.02113 l 5.02113,3.34742 h -8.36855 l -5.02112,-3.34742 z"
           fill="#999999"
           id="path183" />
        <path
           d="M 599.39948,30.92349 V 10.839 h 8.36852 v 20.08449 z"
           fill="#999999"
           id="path185" />
        <path
           d="M 617.81028,15.86011 614.46286,10.839 h 10.04226 l 3.34741,5.02113 z M 627.85253,30.92349 619.484,17.53382 h 10.04225 l 5.02113,8.0338 5.02112,-8.0338 h 10.04226 l -8.36856,13.38967 z m 13.15057,-15.06338 3.34742,-5.02113 h 10.04225 l -3.34742,5.02113 z"
           fill="#999999"
           id="path187" />
        <path
           d="M 659.4139,15.86011 V 10.839 h 31.80047 v 5.02113 z m 0,10.04225 v -8.36854 h 8.36854 a 1.479,1.479 0 0 0 1.67371,1.67371 h 20.08451 v 5.02112 h -21.75822 a 1.479,1.479 0 0 0 1.67371,1.67371 h 21.75822 v 5.02113 h -28.45305 q -3.34891,0 -3.34742,-5.02113 z"
           fill="#999999"
           id="path189" />
        <path
           d="M 343.322,52.96862 V 36.65 h 85.577 q 14.78963,0 14.79108,16.31866 z m 0,48.956 V 85.60594 h 68.67289 q 5.28108,0 5.28253,-2.71977 0,-2.71679 -5.28253,-2.71978 H 364.45216 V 63.84773 h 46.48627 q 6.339,0 6.339,-5.43955 h 26.41265 v 27.19776 q 0,16.31866 -14.79108,16.31866 z"
           fill="#999999"
           id="path191" />
        <path
           d="M 454.25517,52.96862 V 36.65 h 84.52048 q 15.84759,0 15.84759,16.31866 z m 0,27.19777 q 0,-16.31867 15.84759,-16.31866 h 52.8253 q 5.28108,0 5.28253,-5.43955 h 26.41265 v 5.43955 q 0,16.31866 -15.84759,16.31866 h -58.10783 q -5.28108,0 -5.28253,5.43955 h 79.238 V 101.9246 H 454.25517 Z"
           fill="#999999"
           id="path193" />
        <path
           d="M 588.73329,52.96862 565.1883,36.65 h 31.69518 L 620.353,52.96862 Z m 70.484,48.956 -31.016,-21.52509 -31.016,21.52509 H 565.49016 L 612.35374,69.365 596.58162,58.40818 h 63.23943 L 644.04892,69.365 690.91251,101.92461 Z M 659.51919,36.65 h 31.69518 l -23.545,16.31866 h -31.61971 z"
           fill="#999999"
           id="path195" />
      </g>
      <g
         id="Sega">
        <path
           d="m 318.37913,107.00007 a 9.26343,9.26343 0 0 1 -6.76767,-2.81145 8.66909,8.66909 0 0 1 -2.82829,-6.27946 V 84.77785 h 4.04041 v 12.12121 a 5.945,5.945 0 0 0 1.64983,4.42761 5.509,5.509 0 0 0 7.82958,0 5.98549,5.98549 0 0 0 1.6317,-4.42761 v -2.0202 a 5.02328,5.02328 0 0 1 1.33126,-3.72054 4.53015,4.53015 0 0 1 6.41285,0 4.98979,4.98979 0 0 1 1.3468,3.72054 v 12.12121 h -4.04041 V 94.87886 q 0,-1.01012 -0.505,-1.01011 -0.505,10e-6 -0.505,1.01011 v 3.0303 a 8.69078,8.69078 0 0 1 -2.81274,6.27946 9.23983,9.23983 0 0 1 -6.78332,2.81145 z m 0,-5.05051 a 4.39554,4.39554 0 0 1 -3.19865,-1.33 4.98982,4.98982 0 0 1 -1.3468,-3.72054 V 84.77785 h 4.0404 v 12.12121 q 0,1.0101 0.505,1.0101 0.505,0 0.50505,-1.0101 v -3.03031 a 8.69077,8.69077 0 0 1 2.81275,-6.27946 9.57,9.57 0 0 1 13.55089,0 8.66914,8.66914 0 0 1 2.82828,6.27946 v 13.13132 h -4.0404 V 94.87886 a 5.945,5.945 0 0 0 -1.64983,-4.42761 5.50894,5.50894 0 0 0 -7.82958,0 5.98546,5.98546 0 0 0 -1.6317,4.42761 v 2.0202 a 5.02331,5.02331 0 0 1 -1.33126,3.72054 4.376,4.376 0 0 1 -3.21415,1.32996 z"
           fill="#2b3990"
           id="path198" />
        <path
           d="m 317.87408,82.75764 q -9.0909,0 -9.09091,-9.09091 V 61.54552 h 4.04041 v 12.12121 q 0,5.05051 5.0505,5.05051 h 11.11111 q 5.05052,0 5.05051,-5.05051 V 61.54552 h 4.0404 v 12.12121 q 0,9.09091 -9.09091,9.09091 z m 5.05051,-5.0505 h -5.05051 q -4.0404,0 -4.0404,-4.04041 V 61.54552 h 4.0404 v 11.11111 a 0.89281,0.89281 0 0 0 1.0101,1.0101 v -9.09091 h 4.04041 z m 1.0101,0 V 64.57582 h 4.0404 v 9.09091 a 0.89281,0.89281 0 0 0 1.0101,-1.0101 V 61.54552 h 4.04041 v 12.12121 q 0,4.04041 -4.04041,4.04041 z"
           fill="#2b3990"
           id="path200" />
        <path
           d="m 317.87408,59.52532 q -9.0909,0 -9.09091,-9.09091 V 38.3132 h 4.04041 v 12.12121 q 0,5.0505 5.0505,5.05051 h 11.11111 q 5.05052,0 5.05051,-5.05051 V 42.3536 h -11.11111 v 7.07071 h -4.04041 V 38.3132 h 19.19192 v 12.12121 q 0,9.09091 -9.09091,9.09091 z m 0,-5.05051 q -4.0404,0 -4.0404,-4.0404 V 38.3132 h 4.0404 v 11.11111 a 0.89281,0.89281 0 0 0 1.0101,1.0101 h 9.09091 a 0.89281,0.89281 0 0 0 1.0101,-1.0101 v -2.0202 h -1.0101 v 2.0202 h -4.0404 V 43.3637 h 9.09091 v 7.07071 q 0,4.0404 -4.04041,4.0404 z"
           fill="#2b3990"
           id="path202" />
        <path
           d="M 334.0357,24.34013 V 12.38727 l -20.5387,8.08081 a 1.35829,1.35829 0 0 0 -0.6734,1.3468 1.60259,1.60259 0 0 0 0.6734,1.3468 l 24.57912,9.09091 V 36.293 L 312.1502,26.86539 a 5.39225,5.39225 0 0 1 -3.367,-5.05051 q 0,-3.87141 3.367,-5.0505 l 25.9259,-9.76431 v 17.34006 z m -1.0101,0 h -2.1886 l 7.23906,2.862 v 4.0404 l -23.569,-8.75421 c -0.44807,-0.11266 -0.6734,-0.3367 -0.6734,-0.6734 0,-0.3367 0.22533,-0.56073 0.6734,-0.6734 l 18.51852,-7.07071 z m -8.75421,-2.52525 4.7138,1.85185 V 19.963 Z"
           fill="#2b3990"
           id="path204" />
      </g>
    </g>
  </g>
  <metadata
     id="metadata1029">
    <rdf:RDF>
      <cc:Work
         rdf:about="">
        <dc:title>logo</dc:title>
      </cc:Work>
    </rdf:RDF>
  </metadata>
</svg>
