<?xml version="1.0" encoding="UTF-8" standalone="no"?>
<svg
   viewBox="0 0 514.01141 108.83"
   version="1.1"
   id="svg86"
   sodipodi:docname="snes.svg"
   width="514.01141"
   height="108.83"
   inkscape:version="1.1 (c68e22c387, 2021-05-23)"
   xmlns:inkscape="http://www.inkscape.org/namespaces/inkscape"
   xmlns:sodipodi="http://sodipodi.sourceforge.net/DTD/sodipodi-0.dtd"
   xmlns="http://www.w3.org/2000/svg"
   xmlns:svg="http://www.w3.org/2000/svg"
   xmlns:rdf="http://www.w3.org/1999/02/22-rdf-syntax-ns#"
   xmlns:cc="http://creativecommons.org/ns#"
   xmlns:dc="http://purl.org/dc/elements/1.1/">
  <defs
     id="defs90" />
  <sodipodi:namedview
     id="namedview88"
     pagecolor="#ffffff"
     bordercolor="#666666"
     borderopacity="1.0"
     inkscape:pageshadow="2"
     inkscape:pageopacity="0.0"
     inkscape:pagecheckerboard="0"
     showgrid="false"
     fit-margin-top="0"
     fit-margin-left="0"
     fit-margin-right="0"
     fit-margin-bottom="0"
     inkscape:zoom="1.113"
     inkscape:cx="257.4124"
     inkscape:cy="53.908356"
     inkscape:window-width="1920"
     inkscape:window-height="1138"
     inkscape:window-x="-8"
     inkscape:window-y="-8"
     inkscape:window-maximized="1"
     inkscape:current-layer="svg86" />
  <title
     id="title2">logo</title>
  <g
     id="g951"
     transform="translate(-243,-2.5599973)">
    <g
       id="Layer_2"
       data-name="Layer 2">
      <rect
         x="432.13"
         y="43.779999"
         width="30.940001"
         height="43.290001"
         fill="#ffffff"
         id="rect4" />
      <rect
         x="290.75"
         y="47.130001"
         width="30.85"
         height="21.93"
         fill="#ffffff"
         id="rect6" />
    </g>
    <g
       id="Layer_1"
       data-name="Layer 1">
      <path
         d="m 270.37,50.48 c 11.26,0 20.38,4.62 20.38,10.32 0,5.7 -9.12,10.32 -20.38,10.32 -11.26,0 -20.37,-4.61 -20.37,-10.32 0,-5.71 9.12,-10.32 20.37,-10.32 m 0,-7 c -15.86,0 -27.37,7.28 -27.37,17.32 0,10.04 11.51,17.32 27.37,17.32 15.86,0 27.38,-7.29 27.38,-17.32 0,-10.03 -11.52,-17.32 -27.38,-17.32 z"
         fill="#ffffff"
         id="path9" />
      <path
         d="m 309.05,69.05 c 11.82,0 21.43,4.86 21.43,10.84 0,5.98 -9.61,10.84 -21.43,10.84 -11.82,0 -21.4,-4.86 -21.4,-10.84 0,-5.98 9.58,-10.84 21.4,-10.84 m 0,-7 A 41.38,41.38 0 0 0 290.76,66 c -6.43,3.26 -10.11,8.33 -10.11,13.91 0,5.58 3.68,10.65 10.11,13.91 a 44.57,44.57 0 0 0 36.6,0 c 6.43,-3.25 10.12,-8.32 10.12,-13.91 0,-5.59 -3.69,-10.67 -10.12,-13.91 a 41.47,41.47 0 0 0 -18.31,-3.93 z"
         fill="#ffffff"
         id="path11" />
      <path
         d="m 295.66,17.47 a 19.34,19.34 0 0 1 0.77,38.67 V 55.91 A 19.35,19.35 0 0 0 277.08,36.56 c -0.27,0 -0.52,0 -0.77,0 a 19.35,19.35 0 0 1 19.35,-19.11 m 0,-7 a 26.44,26.44 0 0 0 -26.35,26 7,7 0 0 0 7,7.08 h 0.77 a 12.36,12.36 0 0 1 12.35,12.35 v 0.23 a 7,7 0 0 0 7,7 h 0.26 a 26.35,26.35 0 0 0 -1,-52.67 z"
         fill="#ffffff"
         id="path13" />
      <path
         d="m 333.31,37.58 a 18.84,18.84 0 0 1 0.75,37.67 V 75 A 18.84,18.84 0 0 0 315.23,56.16 h -0.75 a 18.85,18.85 0 0 1 18.83,-18.61 m 0,-7 a 25.93,25.93 0 0 0 -25.83,25.53 7,7 0 0 0 7,7.08 h 0.75 A 11.85,11.85 0 0 1 327.06,75 v 0.23 a 7,7 0 0 0 7,7 h 0.27 a 25.85,25.85 0 0 0 -1,-51.67 z"
         fill="#ffffff"
         id="path15" />
      <path
         d="m 656.72,9.61 -1.32,8.31 H 646 l -4.1,20.78 h 9.37 l -1.33,7 h -9.34 l -3.85,22.64 h 9.37 l -1.33,8.31 h -19 L 639,9.61 h 17.73 m -10.6,58.75 v 0 M 656.72,2.61 H 639 a 7,7 0 0 0 -6.87,5.64 l -13.22,67.06 a 7,7 0 0 0 6.86,8.36 h 19 a 7,7 0 0 0 6.92,-5.9 L 653,69.68 a 7.2,7.2 0 0 0 0.12,-1.32 7,7 0 0 0 -7,-7 H 645 l 1.47,-8.64 H 650 a 7,7 0 0 0 6.88,-5.7 l 1.32,-7 a 7,7 0 0 0 -6.87,-8.29 h -0.85 l 1.33,-6.78 h 3.62 a 7,7 0 0 0 6.91,-5.9 l 1.33,-8.31 a 7,7 0 0 0 -6.92,-8.1 z m 0,14 z"
         fill="#ffffff"
         id="path17" />
      <path
         d="m 486.5,9.61 -1.33,8.31 h -9.36 L 471.7,38.7 h 9.37 l -1.32,7 h -9.37 l -3.85,22.64 h 9.36 l -1.32,8.31 h -19 l 13.2,-67.04 h 17.73 m -10.61,58.75 v 0 M 486.5,2.61 h -17.73 a 7,7 0 0 0 -6.87,5.64 l -13.22,67.06 a 7,7 0 0 0 6.87,8.36 h 19 a 7,7 0 0 0 6.91,-5.9 l 1.29,-8.09 a 7.2,7.2 0 0 0 0.13,-1.32 7,7 0 0 0 -7,-7 h -1.08 l 1.47,-8.64 h 3.46 a 7,7 0 0 0 6.87,-5.7 L 488,40 a 7,7 0 0 0 -6.88,-8.29 h -0.85 l 1.34,-6.78 h 3.61 a 7,7 0 0 0 6.91,-5.9 l 1.33,-8.31 a 7,7 0 0 0 -6.91,-8.1 z m 0,14 z"
         fill="#ffffff"
         id="path19" />
      <path
         d="m 635.66,9.61 -1.31,8.31 h -5.08 L 618.68,76.67 H 609 l 10.44,-58.75 h -5.26 l 1.59,-8.31 h 19.88 m 0,-7 h -19.87 a 7,7 0 0 0 -6.88,5.68 l -1.59,8.31 a 7,7 0 0 0 1.48,5.78 7.11,7.11 0 0 0 2.42,1.88 l -9.09,51.18 a 7,7 0 0 0 6.88,8.23 h 9.67 a 7,7 0 0 0 6.89,-5.76 l 9.55,-53 A 7,7 0 0 0 641.27,19 l 1.31,-8.31 A 7,7 0 0 0 635.66,2.6 Z m 0,14 z"
         fill="#ffffff"
         id="path21" />
      <path
         d="m 689.57,9.61 -12.73,67.06 h -8.46 l -3.1,-38.89 -7.84,38.89 H 647.7 L 660.43,9.61 h 8.46 l 4.38,35 6.56,-35 h 9.74 m 0,-7 h -9.74 a 7,7 0 0 0 -5.47,2.63 7,7 0 0 0 -5.47,-2.63 h -8.46 a 7,7 0 0 0 -6.88,5.69 l -12.73,67.06 a 7,7 0 0 0 6.88,8.31 h 9.74 a 7,7 0 0 0 5.47,-2.67 7,7 0 0 0 5.47,2.64 h 8.46 a 7,7 0 0 0 6.88,-5.7 l 12.73,-67.06 a 7,7 0 0 0 -6.88,-8.3 z m 0,14 z"
         fill="#ffffff"
         id="path23" />
      <path
         d="M 565.77,9.61 553,76.67 h -8.46 l -3.09,-38.89 -7.85,38.89 h -9.75 L 536.63,9.61 h 8.46 l 4.38,35 6.56,-35 h 9.74 m 0,-7 H 556 a 7,7 0 0 0 -5.47,2.63 7,7 0 0 0 -5.47,-2.63 H 536.6 A 7,7 0 0 0 529.72,8.3 L 517,75.36 a 7,7 0 0 0 6.87,8.31 h 9.75 a 7,7 0 0 0 5.49,-2.67 7,7 0 0 0 5.47,2.64 H 553 a 7,7 0 0 0 6.87,-5.7 l 12.74,-67.06 a 7,7 0 0 0 -6.88,-8.3 z m 0,14 z"
         fill="#ffffff"
         id="path25" />
      <path
         d="M 612.2,9.61 599.46,76.67 H 591 l -3.1,-38.89 -7.85,38.89 h -9.74 L 583.06,9.61 h 8.45 l 4.39,35 6.55,-35 h 9.75 m 0,-7 h -9.75 A 7,7 0 0 0 597,5.24 7,7 0 0 0 591.53,2.61 h -8.45 A 7,7 0 0 0 576.2,8.3 l -12.76,67.06 a 7,7 0 0 0 6.88,8.31 h 9.74 A 7,7 0 0 0 585.54,81 7,7 0 0 0 591,83.67 h 8.45 a 7,7 0 0 0 6.88,-5.7 l 12.73,-67.06 a 7,7 0 0 0 -6.87,-8.3 z m 0,14 z"
         fill="#ffffff"
         id="path27" />
      <path
         d="m 578.61,9.61 v 0 m 0,0 -12.73,67.06 h -8.45 L 570.16,9.61 h 8.45 m 0,-7 h -8.46 a 7,7 0 0 0 -6.88,5.69 l -12.72,67.06 a 7,7 0 0 0 6.88,8.31 h 8.45 a 7,7 0 0 0 6.88,-5.7 l 12.69,-66.83 a 7,7 0 0 0 -6.83,-8.53 z m 0,14 z"
         fill="#ffffff"
         id="path29" />
      <path
         d="m 744.6,9.61 c 3.61,0 6,3 5.28,6.68 l -10.26,54.14 a 7.92,7.92 0 0 1 -7.49,6.24 h -13.9 A 5.12,5.12 0 0 1 713,70.43 l 9.47,-54.14 a 8.23,8.23 0 0 1 7.72,-6.68 H 744.6 M 726,70.22 a 5.58,5.58 0 0 0 5.28,-4.51 l 7.9,-43.85 a 3.7,3.7 0 0 0 -3.74,-4.51 c -2.49,0 -4.21,2 -4.64,4.51 l -7.9,43.85 c -0.43,2.49 0.61,4.51 3.1,4.51 M 744.6,2.61 H 730.21 A 15.29,15.29 0 0 0 715.6,15.08 l -9.48,54.15 a 12.11,12.11 0 0 0 12.11,14.44 h 13.9 a 14.82,14.82 0 0 0 14.37,-12 L 756.76,17.54 A 12.77,12.77 0 0 0 754.18,7 12.35,12.35 0 0 0 744.6,2.6 Z"
         fill="#ffffff"
         id="path31" />
      <path
         d="M 434.3,9.61 423,70.43 a 7.9,7.9 0 0 1 -7.49,6.24 h -12.59 a 5.12,5.12 0 0 1 -5.21,-6.24 L 408.24,9.61 h 8.48 l -10.48,59.14 a 1.28,1.28 0 0 0 1.31,1.56 h 6.23 a 2,2 0 0 0 1.86,-1.56 L 426.39,9.61 h 7.91 m -17.58,0 v 0 m 17.58,-7 h -7.91 a 7,7 0 0 0 -4.84,1.93 6.94,6.94 0 0 0 -4.83,-1.93 h -8.48 a 7,7 0 0 0 -6.89,5.8 l -10.53,60.83 a 12.11,12.11 0 0 0 12.1,14.43 h 12.61 a 14.81,14.81 0 0 0 14.37,-12 L 441.19,10.83 A 7,7 0 0 0 434.3,2.56 Z m 0,14 z"
         fill="#ffffff"
         id="path33" />
      <path
         d="m 713,9.61 c 3.62,0 6,3 5.28,6.68 L 708,70.43 a 7.9,7.9 0 0 1 -7.49,6.24 h -19.3 L 694,9.61 h 19 m -21.67,60.61 h 3.87 a 5.58,5.58 0 0 0 5.28,-4.51 l 8.35,-43.85 a 3.71,3.71 0 0 0 -3.75,-4.51 h -3.86 l -9.89,52.87 M 713,2.61 h -19 a 7,7 0 0 0 -6.88,5.69 l -12.77,67.06 a 7,7 0 0 0 6.88,8.31 h 19.3 a 14.81,14.81 0 0 0 14.37,-12 L 725.16,17.54 A 12.77,12.77 0 0 0 722.58,7 12.35,12.35 0 0 0 713,2.61 Z"
         fill="#ffffff"
         id="path35" />
      <path
         d="m 457.66,9.61 c 3.62,0 6,3 5.28,6.68 l -4.6,23.79 a 7.92,7.92 0 0 1 -7.49,6.23 h -10.74 l -5.77,30.36 h -8.45 L 438.62,9.61 h 19 M 442.87,40 h 4.94 c 0.86,0 2,-2 2.13,-2.85 l 3.51,-16.55 c 0.16,-0.91 -1.72,-2.93 -2.61,-2.93 h -4.12 a 2,2 0 0 0 -1.26,0.5 l -3.9,20.27 a 2.3,2.3 0 0 0 0,0.36 1.26,1.26 0 0 0 1.33,1.2 M 457.66,2.61 h -19 A 7,7 0 0 0 431.78,8.3 L 419,75.36 a 7,7 0 0 0 6.88,8.31 h 8.45 a 7,7 0 0 0 6.88,-5.7 l 4.68,-24.66 h 5 a 14.82,14.82 0 0 0 14.37,-12 l 4.6,-23.74 A 12.81,12.81 0 0 0 467.24,7 12.35,12.35 0 0 0 457.66,2.6 Z"
         fill="#ffffff"
         id="path37" />
      <path
         d="m 510.53,9.61 c 3.62,0 6,3 5.29,6.68 l -4.6,23.79 c -0.49,2.56 -5,4.11 -7.46,5.06 h 0.54 a 14.83,14.83 0 0 1 2.54,1.26 6.77,6.77 0 0 1 1.47,2 4.87,4.87 0 0 1 0.45,2.45 c 0,0.42 -4.78,25.87 -4.78,25.87 h -8.46 c 0,0 4.52,-23.38 4.63,-24.36 a 12.54,12.54 0 0 0 -0.2,-3.23 4.69,4.69 0 0 0 -1,-2.77 h -6 l -5.77,30.36 h -8.45 L 491.5,9.61 h 19 M 495.74,40 h 3.65 c 0.86,0 3,-2 3.16,-2.85 L 506,20.55 c 0.18,-0.91 -1.7,-2.93 -2.6,-2.93 h -3.85 a 1.94,1.94 0 0 0 -1.25,0.5 l -3.91,20.27 a 2.3,2.3 0 0 0 0,0.36 1.27,1.27 0 0 0 1.33,1.2 M 510.53,2.61 h -19 a 7,7 0 0 0 -6.88,5.69 l -12.77,67.06 a 7,7 0 0 0 6.88,8.31 h 8.45 a 7,7 0 0 0 4.16,-1.37 7,7 0 0 0 4.15,1.37 H 504 A 7,7 0 0 0 510.86,78 c 4.34,-23.09 4.84,-25.91 4.89,-26.85 v 0 V 51 a 12.48,12.48 0 0 0 -0.56,-4.29 10,10 0 0 0 2.89,-5.31 l 4.6,-23.76 A 12.78,12.78 0 0 0 520.11,7 12.35,12.35 0 0 0 510.53,2.6 Z"
         fill="#ffffff"
         id="path39" />
      <path
         d="m 490.1,91.55 v 0 m 0,0 -0.36,3.78 h -1.08 l 1.44,-3.78 m 0,-7 a 6.8,6.8 0 0 0 -1.1,0.09 7,7 0 0 0 -4.82,3.18 7.55,7.55 0 0 0 -0.68,1.4 l -1.37,3.63 a 7,7 0 0 0 6.54,9.48 h 1.08 a 7,7 0 0 0 7,-6.34 l 0.34,-3.57 a 8.46,8.46 0 0 0 0.05,-0.87 7,7 0 0 0 -6.5,-7 h -0.51 z m 0,14 z"
         fill="#ffffff"
         id="path41" />
      <path
         d="m 741.84,82.47 v 21.92 H 365.28 V 82.47 H 741.84 M 725,99.63 h 2.15 l 1.45,-8.08 0.41,8.08 h 1.29 l 3.31,-7.88 -1.2,7.88 h 1.87 l 2.52,-14.87 h -2.36 l -3.78,8.56 -0.4,-8.63 h -2.45 L 725,99.63 m -16.37,0 h 4.2 l 0.29,-1.85 H 711 l 0.86,-5 h 2.08 l 0.29,-1.56 h -2.08 l 0.91,-4.62 h 2.06 l 0.31,-1.84 h -3.93 l -2.92,14.9 m -10,-14.9 h -4.4 l -0.34,1.84 H 695 l -2.31,13.06 h 2.13 l 2.35,-13.06 h 1.13 l 0.28,-1.84 M 678.31,98.2 a 0.83,0.83 0 0 1 -0.83,-1 l 0.49,-2.72 h -2 l -0.64,3.78 a 1.13,1.13 0 0 0 1.15,1.38 h 2.79 A 1.77,1.77 0 0 0 681,98.25 l 0.71,-3.78 a 0.61,0.61 0 0 0 -0.09,-0.29 30,30 0 0 0 -2.62,-4.29 0.94,0.94 0 0 1 -0.18,-0.67 l 0.31,-1.77 a 1.21,1.21 0 0 1 1.16,-1 0.82,0.82 0 0 1 0.83,1 l -0.42,2.44 h 1.81 l 0.7,-3.68 a 1.18,1.18 0 0 0 -1.16,-1.48 h -2.9 a 1.8,1.8 0 0 0 -1.7,1.48 c 0,0 -0.56,2.46 -0.58,2.85 A 1.81,1.81 0 0 0 677,90 c 0.15,0.79 2.48,4.09 2.84,5 l -0.38,2.2 a 1.26,1.26 0 0 1 -1.18,1 m -13,-13.47 H 663 l -3.08,5.66 -0.29,-5.66 h -2.4 l 1,8.15 -1.06,6.75 h 2.15 l 1.2,-6.29 4.84,-8.61 M 641.57,98.2 a 0.84,0.84 0 0 1 -0.84,-1 l 0.5,-2.72 h -2 l -0.66,3.78 a 1.12,1.12 0 0 0 1.14,1.38 h 2.8 a 1.75,1.75 0 0 0 1.64,-1.38 c 0,0 0.65,-3.3 0.72,-3.78 0,0 0,-0.14 -0.07,-0.29 a 29.22,29.22 0 0 0 -2.58,-4.29 1.11,1.11 0 0 1 -0.18,-0.67 l 0.31,-1.77 a 1.2,1.2 0 0 1 1.16,-1 0.81,0.81 0 0 1 0.82,1 L 644,89.89 h 1.81 l 0.7,-3.68 a 1.18,1.18 0 0 0 -1.17,-1.48 h -2.9 a 1.81,1.81 0 0 0 -1.7,1.48 c 0,0 -0.55,2.46 -0.57,2.85 a 1.71,1.71 0 0 0 0.14,0.93 c 0.15,0.79 2.47,4.09 2.83,5 l -0.38,2.2 a 1.22,1.22 0 0 1 -1.16,1 m -28,-12.9 h -4.39 l -0.36,1.85 H 610 l -2.31,13 h 2.14 l 2.33,-13 h 1.13 l 0.29,-1.85 M 596,85.3 h -2.15 l -1.45,7.77 -1,-7.77 h -1.86 l -2.83,14.9 h 2.15 l 1.73,-8.65 0.7,8.65 h 1.86 L 596,85.3 m -28.5,14.9 h 4.21 L 572,98.36 h -2.08 l 0.86,-5 h 2.08 l 0.28,-1.55 h -2.07 l 0.91,-4.62 h 2.08 l 0.28,-1.85 h -3.92 l -2.92,14.9 m -23.8,0 h 2.15 l 1.45,-8.07 0.39,8.07 H 549 l 3.31,-7.88 -1.2,7.88 H 553 l 2.52,-14.86 h -2.38 l -3.76,8.56 -0.41,-8.63 h -2.47 l -2.81,14.9 M 531.06,85.3 h -2.15 l -1.45,7.77 -1,-7.77 h -1.88 l -2.81,14.9 H 524 l 1.74,-8.65 0.68,8.65 h 1.88 l 2.81,-14.9 m -26.22,14.9 h 1.86 l 2.83,-14.9 h -1.88 l -2.81,14.9 m -20.24,0 h 2.22 l 1.31,-3.44 h 1.48 l -0.32,3.44 h 2.51 l 0.79,-14.9 h -2.51 l -5.48,14.9 M 472.53,85.3 h -4.39 l -0.36,1.85 h 1.16 l -2.3,13 h 2.14 l 2.33,-13 h 1.13 l 0.29,-1.85 m -26.12,14.9 h 1.87 l 1.27,-6.75 h 1.32 a 1,1 0 0 1 0.22,0.63 3.3,3.3 0 0 1 0.05,0.71 c 0,0.22 -1,5.41 -1,5.41 H 452 c 0,0 1,-5.8 1,-5.89 a 2,2 0 0 0 -0.11,-0.68 c -0.07,-0.16 -0.87,-0.29 -0.87,-0.29 h -0.13 c 0.54,-0.21 1.54,-0.7 1.65,-1.27 l 1,-5.28 a 1.19,1.19 0 0 0 -1.17,-1.49 h -4.2 l -2.82,14.9 m -18.68,0 h 4.21 l 0.29,-1.84 h -2.08 l 0.86,-5 h 2.08 l 0.28,-1.55 h -2.01 l 0.91,-4.62 h 2.08 l 0.28,-1.85 h -3.92 l -2.92,14.9 M 415.8,85.3 h -4.38 l -0.36,1.85 h 1.16 l -2.31,13 h 2.15 l 2.33,-13 h 1.13 l 0.28,-1.85 m -17.71,0 h -2.17 l -1.43,7.77 -1,-7.77 h -1.86 l -2.81,14.9 H 391 l 1.74,-8.65 0.68,8.65 h 1.86 l 2.83,-14.9 m -27.58,14.9 h 4.21 l 0.28,-1.84 h -2.06 l 0.84,-5 h 2.08 l 0.29,-1.55 h -2.06 L 375,87.19 h 2.08 l 0.29,-1.85 h -3.92 l -2.92,14.9 M 695,86.57 v 0 m -85,0.58 v 0 m -141,0 v 0 m -56.73,0 v 0 M 741.84,75.47 H 365.28 a 7,7 0 0 0 -7,7 v 21.92 a 7,7 0 0 0 7,7 h 376.56 a 7,7 0 0 0 7,-7 V 82.47 a 7,7 0 0 0 -7,-7 z m -252.23,28.29 z"
         fill="#ffffff"
         id="path43" />
      <path
         d="m 451.86,87.07 c 0.2,0 0.61,0.45 0.57,0.67 l -0.77,3.67 a 1.22,1.22 0 0 1 -0.7,0.62 h -0.8 a 0.26,0.26 0 0 1 -0.29,-0.25 v -0.09 l 0.86,-4.49 a 0.43,0.43 0 0 1 0.29,-0.13 h 0.84 m 0,-7 H 451 a 7.47,7.47 0 0 0 -5.24,2.18 7.07,7.07 0 0 0 -1.93,3.63 l -0.86,4.5 a 7.17,7.17 0 0 0 -0.12,1.31 v 0.09 a 7.28,7.28 0 0 0 7.31,7.22 h 0.8 a 8,8 0 0 0 7.56,-6.2 l 0.76,-3.66 0.06,-0.29 a 7.74,7.74 0 0 0 -7.48,-8.81 z"
         fill="#ffffff"
         id="path45" />
      <path
         d="m 397.05,9.61 c 3.62,0 6,3 5.28,6.68 l -3.13,16.53 h -8.87 l 1.9,-11 c 0.43,-2.49 -0.61,-4.51 -3.1,-4.51 a 5.58,5.58 0 0 0 -5.28,4.51 c 0,0 -1.38,6.93 -1.36,8 0.02,1.07 0.38,2.72 0.84,3 1.07,0.65 11.61,18 11.61,19.34 v 0 c 0,0 0.34,0.13 0.35,1.25 0.01,1.12 -3.22,17 -3.22,17 a 7.9,7.9 0 0 1 -7.48,6.24 H 372 a 5.12,5.12 0 0 1 -5.21,-6.24 l 3,-17 h 8.83 l -2.21,12.26 a 3.71,3.71 0 0 0 3.75,4.51 c 2.49,0 4.21,-2 4.63,-4.51 0,0 1.37,-7.42 1.69,-9.93 0.32,-2.51 -11.48,-18.87 -12.16,-22.42 -0.5,-0.41 -0.73,-2.6 -0.66,-4.21 0.07,-1.77 2.58,-12.82 2.58,-12.82 A 8.22,8.22 0 0 1 384,9.61 h 13.09 m -18.52,43.84 v 0 M 397.05,2.61 H 384 a 15.29,15.29 0 0 0 -14.58,12.27 c -1.74,7.67 -2.65,12.36 -2.72,13.95 a 15.16,15.16 0 0 0 1.17,7.26 c 0.76,2.25 2.41,5.12 5.63,10.36 h -3.72 a 7,7 0 0 0 -6.9,5.8 l -3,17 A 12.11,12.11 0 0 0 372,83.67 h 12.62 a 14.82,14.82 0 0 0 14.35,-11.88 c 3.38,-16.56 3.37,-17.61 3.35,-18.45 a 9.1,9.1 0 0 0 -1,-4.14 78.3,78.3 0 0 0 -5.1,-9.38 h 3 a 7,7 0 0 0 6.88,-5.69 l 3.13,-16.54 A 12.77,12.77 0 0 0 406.63,7 12.35,12.35 0 0 0 397.05,2.6 Z"
         fill="#ffffff"
         id="path47" />
      <path
         d="m 250,60.8 c 0,-5.7 9.12,-10.32 20.37,-10.32 11.25,0 20.38,4.62 20.38,10.32 0,5.7 -9.12,10.32 -20.38,10.32 C 259.11,71.12 250,66.51 250,60.8 Z"
         fill="#007308"
         id="path49" />
      <path
         d="m 287.65,79.89 c 0,-6 9.58,-10.84 21.4,-10.84 11.82,0 21.43,4.86 21.43,10.84 0,5.98 -9.61,10.84 -21.43,10.84 -11.82,0 -21.4,-4.86 -21.4,-10.84 z"
         fill="#ffff00"
         id="path51" />
      <path
         d="M 296.43,56.14 A 19.34,19.34 0 1 0 276.31,36.58 c 0.25,0 0.5,0 0.77,0 a 19.35,19.35 0 0 1 19.35,19.35 z"
         fill="#0000f7"
         id="path53" />
      <path
         d="M 334.06,75.25 A 18.84,18.84 0 1 0 314.48,56.19 h 0.75 A 18.84,18.84 0 0 1 334.06,75 Z"
         fill="#ff0800"
         id="path55" />
      <polygon
         points="641.93,38.7 646.03,17.92 655.4,17.92 656.72,9.61 638.99,9.61 625.77,76.67 644.79,76.67 646.12,68.36 636.75,68.36 640.6,45.72 649.97,45.72 651.3,38.7 "
         fill="#ff0000"
         id="polygon57" />
      <polygon
         points="471.7,38.7 475.81,17.92 485.17,17.92 486.5,9.61 468.77,9.61 455.55,76.67 474.57,76.67 475.89,68.36 466.53,68.36 470.38,45.72 479.75,45.72 481.07,38.7 "
         fill="#ff0000"
         id="polygon59" />
      <polygon
         points="619.45,17.92 609.01,76.67 618.68,76.67 629.26,17.92 634.35,17.92 635.66,9.61 615.78,9.61 614.19,17.92 "
         fill="#ff0000"
         id="polygon61" />
      <polygon
         points="668.38,76.67 676.84,76.67 689.57,9.61 679.83,9.61 673.27,44.63 668.88,9.61 660.43,9.61 647.7,76.67 657.44,76.67 665.28,37.78 "
         fill="#ff0000"
         id="polygon63" />
      <polygon
         points="544.58,76.67 553.04,76.67 565.77,9.61 556.03,9.61 549.47,44.63 545.09,9.61 536.63,9.61 523.89,76.67 533.64,76.67 541.49,37.78 "
         fill="#ff0000"
         id="polygon65" />
      <polygon
         points="591.01,76.67 599.46,76.67 612.2,9.61 602.45,9.61 595.9,44.63 591.51,9.61 583.06,9.61 570.32,76.67 580.06,76.67 587.91,37.78 "
         fill="#ff0000"
         id="polygon67" />
      <polygon
         points="565.88,76.67 578.62,9.61 570.16,9.61 557.43,76.67 "
         fill="#ff0000"
         id="polygon69" />
      <path
         d="M 722.49,16.29 713,70.43 a 5.12,5.12 0 0 0 5.21,6.24 h 13.9 a 7.92,7.92 0 0 0 7.49,-6.24 l 10.26,-54.14 c 0.7,-3.69 -1.67,-6.68 -5.28,-6.68 h -14.37 a 8.23,8.23 0 0 0 -7.72,6.68 z m 8.26,5.57 c 0.43,-2.49 2.15,-4.51 4.64,-4.51 a 3.7,3.7 0 0 1 3.74,4.51 l -7.9,43.85 A 5.58,5.58 0 0 1 726,70.22 c -2.49,0 -3.53,-2 -3.1,-4.51 z"
         fill="#ff0000"
         id="path71" />
      <path
         d="M 406.24,68.75 416.72,9.61 h -8.48 l -10.53,60.82 a 5.12,5.12 0 0 0 5.21,6.24 h 12.61 A 7.9,7.9 0 0 0 423,70.43 L 434.3,9.61 h -7.91 l -10.75,59.14 a 2,2 0 0 1 -1.86,1.56 h -6.23 a 1.28,1.28 0 0 1 -1.31,-1.56 z"
         fill="#ff0000"
         id="path73" />
      <path
         d="m 694,9.61 -12.77,67.06 h 19.3 A 7.9,7.9 0 0 0 708,70.43 l 10.26,-54.14 c 0.7,-3.69 -1.66,-6.68 -5.28,-6.68 z m -2.63,60.61 9.89,-52.87 h 3.86 a 3.71,3.71 0 0 1 3.75,4.51 l -8.35,43.85 a 5.58,5.58 0 0 1 -5.28,4.51 z"
         fill="#ff0000"
         id="path75" />
      <path
         d="m 441.54,38.75 v -0.36 a 2.3,2.3 0 0 0 0,0.36 z m 5.54,-29.14 h -8.46 l -12.73,67.06 h 8.45 l 5.77,-30.36 h 10.74 a 7.92,7.92 0 0 0 7.49,-6.23 l 4.6,-23.79 c 0.7,-3.69 -1.66,-6.68 -5.28,-6.68 z M 442.87,40 a 1.26,1.26 0 0 1 -1.33,-1.2 2.3,2.3 0 0 1 0,-0.36 l 3.9,-20.27 a 2,2 0 0 1 1.26,-0.5 h 4.12 c 0.89,0 2.77,2 2.61,2.93 l -3.49,16.5 c -0.16,0.86 -1.27,2.85 -2.13,2.85 z"
         fill="#ff0000"
         id="path77" />
      <path
         d="m 494.41,38.75 v -0.36 a 2.3,2.3 0 0 0 0,0.36 z m 9.89,6.39 h -0.54 c 2.42,-1 7,-2.5 7.46,-5.06 l 4.6,-23.79 c 0.7,-3.69 -1.67,-6.68 -5.29,-6.68 h -19 l -12.77,67.06 h 8.45 L 493,46.31 h 6 a 4.69,4.69 0 0 1 1,2.77 12.54,12.54 0 0 1 0.2,3.23 c -0.11,1 -4.63,24.36 -4.63,24.36 H 504 c 0,0 4.78,-25.45 4.78,-25.87 a 4.87,4.87 0 0 0 -0.45,-2.45 6.77,6.77 0 0 0 -1.47,-2 14.83,14.83 0 0 0 -2.56,-1.21 z m -6,-27 a 1.94,1.94 0 0 1 1.25,-0.5 h 3.85 c 0.9,0 2.78,2 2.6,2.93 l -3.45,16.53 c -0.16,0.86 -2.3,2.85 -3.16,2.85 h -3.65 a 1.27,1.27 0 0 1 -1.33,-1.2 2.3,2.3 0 0 1 0,-0.36 z"
         fill="#ff0000"
         id="path79" />
      <path
         d="m 450.16,92 h 0.8 a 1.22,1.22 0 0 0 0.7,-0.62 l 0.77,-3.67 c 0,-0.22 -0.37,-0.67 -0.57,-0.67 H 451 a 0.43,0.43 0 0 0 -0.29,0.13 l -0.86,4.49 v 0.09 a 0.26,0.26 0 0 0 0.31,0.25 z m 38.5,3.3 h 1.08 l 0.36,-3.78 z M 365.28,82.47 v 21.92 H 741.84 V 82.47 Z m 44.63,17.73 2.31,-13 h -1.16 l 0.36,-1.85 h 4.38 l -0.28,1.85 h -1.13 l -2.33,13 z m 56.73,0 2.3,-13 h -1.16 l 0.36,-1.85 h 4.39 l -0.29,1.85 h -1.13 l -2.33,13 z m -96.13,0 2.92,-14.9 h 3.92 l -0.29,1.85 H 375 l -0.89,4.62 h 2.06 l -0.29,1.55 h -2.08 l -0.84,5 H 375 l -0.28,1.84 z m 197,0 2.92,-14.9 h 3.92 l -0.28,1.85 H 572 l -0.91,4.62 h 2.07 l -0.28,1.55 h -2.08 l -0.86,5 H 572 l -0.29,1.84 z M 395.92,85.3 h 2.17 l -2.83,14.9 h -1.86 l -0.68,-8.65 -1.72,8.65 h -2.15 l 2.81,-14.9 h 1.86 l 1,7.77 z m 211.75,14.9 2.31,-13 h -1.17 l 0.36,-1.85 h 4.39 l -0.29,1.85 h -1.13 l -2.33,13 z M 528.91,85.3 h 2.15 l -2.81,14.9 h -1.88 l -0.68,-8.65 -1.69,8.65 h -2.2 l 2.81,-14.9 h 1.88 l 1,7.77 z m 64.93,0 H 596 l -2.82,14.9 h -1.86 l -0.7,-8.65 -1.73,8.65 h -2.15 l 2.83,-14.9 h 1.86 l 1,7.77 z m -84.31,0 -2.83,14.9 h -1.86 l 2.81,-14.9 z m 43.58,0.07 h 2.38 L 553,100.2 h -1.9 l 1.2,-7.88 -3.3,7.88 h -1.31 l -0.39,-8.07 -1.45,8.07 h -2.15 l 2.81,-14.9 h 2.44 l 0.41,8.63 z m -125.38,14.83 2.92,-14.9 h 3.92 l -0.28,1.85 h -2.08 l -0.91,4.62 h 2.07 l -0.28,1.55 H 431 l -0.86,5 h 2.08 l -0.29,1.84 z m 24.33,-6.86 c 0,0 0.8,0.13 0.87,0.29 a 2,2 0 0 1 0.11,0.68 c 0,0.09 -1.06,5.89 -1.06,5.89 h -1.88 c 0,0 1,-5.19 1,-5.41 a 3.3,3.3 0 0 0 -0.05,-0.71 1,1 0 0 0 -0.22,-0.63 h -1.32 l -1.27,6.75 h -1.87 l 2.82,-14.9 h 4.2 a 1.19,1.19 0 0 1 1.17,1.49 l -1,5.28 c -0.11,0.57 -1.11,1.06 -1.65,1.27 z m 206.15,-0.46 -1,-8.15 h 2.4 l 0.29,5.66 3.1,-5.66 h 2.33 l -4.84,8.61 -1.2,6.29 h -2.15 z m 76.18,-8.08 h 2.36 l -2.52,14.87 h -1.87 l 1.2,-7.88 -3.31,7.88 H 729 l -0.41,-8.08 -1.45,8.08 H 725 l 2.81,-14.9 h 2.45 l 0.4,8.63 z M 692.69,99.63 695,86.57 h -1.16 l 0.34,-1.84 h 4.4 l -0.28,1.84 h -1.13 l -2.35,13.06 z m 15.89,0 2.92,-14.9 h 3.92 l -0.31,1.84 h -2.06 l -0.91,4.62 h 2.08 l -0.29,1.56 h -2.08 l -0.86,5 h 2.08 l -0.29,1.85 z M 640.71,86.21 a 1.81,1.81 0 0 1 1.7,-1.48 h 2.9 a 1.18,1.18 0 0 1 1.17,1.48 l -0.7,3.68 H 644 l 0.41,-2.44 a 0.81,0.81 0 0 0 -0.82,-1 1.2,1.2 0 0 0 -1.16,1 l -0.31,1.77 a 1.11,1.11 0 0 0 0.18,0.67 29.22,29.22 0 0 1 2.58,4.29 c 0,0.15 0.09,0.24 0.07,0.29 -0.07,0.48 -0.72,3.78 -0.72,3.78 a 1.75,1.75 0 0 1 -1.64,1.38 h -2.8 a 1.12,1.12 0 0 1 -1.14,-1.38 l 0.66,-3.78 h 2 l -0.5,2.72 a 0.84,0.84 0 0 0 0.84,1 1.22,1.22 0 0 0 1.16,-1 l 0.38,-2.2 c -0.36,-0.91 -2.68,-4.21 -2.83,-5 a 1.71,1.71 0 0 1 -0.14,-0.93 c -0.06,-0.39 0.49,-2.85 0.49,-2.85 z m 36.76,0 a 1.8,1.8 0 0 1 1.7,-1.48 h 2.9 a 1.18,1.18 0 0 1 1.16,1.48 l -0.7,3.68 h -1.81 l 0.42,-2.44 a 0.82,0.82 0 0 0 -0.83,-1 1.21,1.21 0 0 0 -1.16,1 l -0.31,1.77 a 0.94,0.94 0 0 0 0.18,0.67 30,30 0 0 1 2.56,4.29 0.61,0.61 0 0 1 0.09,0.29 L 681,98.25 a 1.77,1.77 0 0 1 -1.65,1.38 h -2.79 a 1.13,1.13 0 0 1 -1.15,-1.38 l 0.64,-3.78 h 2 l -0.49,2.72 a 0.83,0.83 0 0 0 0.83,1 1.26,1.26 0 0 0 1.18,-1 l 0.38,-2.2 c -0.36,-0.91 -2.69,-4.21 -2.84,-5 a 1.81,1.81 0 0 1 -0.14,-0.93 c -0.06,-0.39 0.5,-2.85 0.5,-2.85 z M 492.59,85.3 491.8,100.2 h -2.51 l 0.32,-3.44 h -1.48 l -1.31,3.44 h -2.22 l 5.48,-14.9 z"
         fill="#ff0000"
         id="path81" />
      <path
         d="m 376.24,16.29 c 0,0 -2.51,11.05 -2.58,12.82 -0.07,1.61 0.16,3.8 0.66,4.21 0.65,3.55 12.45,20 12.11,22.46 -0.34,2.46 -1.69,9.93 -1.69,9.93 -0.42,2.49 -2.14,4.51 -4.63,4.51 a 3.71,3.71 0 0 1 -3.75,-4.51 l 2.21,-12.26 h -8.83 l -3,17 a 5.12,5.12 0 0 0 5.26,6.22 h 12.62 a 7.9,7.9 0 0 0 7.48,-6.24 c 0,0 3.24,-15.85 3.22,-17 -0.02,-1.15 -0.35,-1.25 -0.35,-1.25 v 0 c 0,-1.29 -10.54,-18.69 -11.61,-19.34 -0.46,-0.27 -0.82,-1.95 -0.84,-3 -0.02,-1.05 1.36,-8 1.36,-8 a 5.58,5.58 0 0 1 5.28,-4.51 c 2.49,0 3.53,2 3.1,4.51 l -1.9,11 h 8.87 l 3.13,-16.53 c 0.7,-3.69 -1.66,-6.68 -5.28,-6.68 H 384 a 8.22,8.22 0 0 0 -7.76,6.66 z"
         fill="#ff0000"
         id="path83" />
    </g>
  </g>
  <metadata
     id="metadata907">
    <rdf:RDF>
      <cc:Work
         rdf:about="">
        <dc:title>logo</dc:title>
      </cc:Work>
    </rdf:RDF>
  </metadata>
</svg>
