<?xml version="1.0" encoding="UTF-8" standalone="no"?>
<svg
   id="Layer_1"
   data-name="Layer 1"
   viewBox="0 0 514.40997 63.779999"
   version="1.1"
   sodipodi:docname="vic20.svg"
   width="514.40997"
   height="63.779999"
   inkscape:version="1.1 (c68e22c387, 2021-05-23)"
   xmlns:inkscape="http://www.inkscape.org/namespaces/inkscape"
   xmlns:sodipodi="http://sodipodi.sourceforge.net/DTD/sodipodi-0.dtd"
   xmlns="http://www.w3.org/2000/svg"
   xmlns:svg="http://www.w3.org/2000/svg">
  <defs
     id="defs38" />
  <sodipodi:namedview
     id="namedview36"
     pagecolor="#ffffff"
     bordercolor="#666666"
     borderopacity="1.0"
     inkscape:pageshadow="2"
     inkscape:pageopacity="0.0"
     inkscape:pagecheckerboard="0"
     showgrid="false"
     fit-margin-top="0"
     fit-margin-left="0"
     fit-margin-right="0"
     fit-margin-bottom="0"
     inkscape:zoom="1.113"
     inkscape:cx="257.4124"
     inkscape:cy="31.446541"
     inkscape:window-width="1920"
     inkscape:window-height="1138"
     inkscape:window-x="-8"
     inkscape:window-y="-8"
     inkscape:window-maximized="1"
     inkscape:current-layer="Layer_1" />
  <g
     id="g874"
     transform="translate(-242.99,-25.12)">
    <text
       transform="translate(642.99,62.25)"
       font-size="1.16px"
       fill="#e2173a"
       stroke="#ffffff"
       stroke-linecap="round"
       stroke-linejoin="round"
       stroke-width="7"
       font-family="ArialMT, Arial"
       id="text2">I don’t like bugs!</text>
    <path
       d="m 575,85.38 a 3.5,3.5 0 0 1 -3.5,-3.49 l -0.11,-49.76 a 3.5,3.5 0 0 1 3.5,-3.51 h 150.63 a 28.38,28.38 0 0 1 0,56.76 z"
       id="path4" />
    <path
       d="m 725.52,32.12 a 24.88,24.88 0 0 1 0,49.76 H 575 l -0.11,-49.76 h 150.63 m 0,-7 H 574.87 a 7,7 0 0 0 -7,7 L 568,81.9 a 7,7 0 0 0 7,7 h 150.52 a 31.88,31.88 0 0 0 0,-63.76 z"
       fill="#ffffff"
       id="path6" />
    <path
       d="m 274.88,85.38 a 28.38,28.38 0 0 1 0,-56.76 h 300 a 3.5,3.5 0 0 1 3.5,3.5 v 49.76 a 3.5,3.5 0 0 1 -3.5,3.5 z"
       id="path8" />
    <path
       d="m 574.87,32.12 v 49.76 h -300 a 24.88,24.88 0 1 1 0,-49.76 h 300 m 0,-7 h -300 a 31.88,31.88 0 0 0 0,63.76 h 300 a 7,7 0 0 0 7,-7 V 32.12 a 7,7 0 0 0 -7,-7 z"
       fill="#ffffff"
       id="path10" />
    <path
       d="m 574.87,32.12 h 150.65 a 24.88,24.88 0 0 1 0,49.76 H 575 Z"
       fill="#b1bcbf"
       id="path12" />
    <text
       transform="translate(642.99,62.25)"
       font-size="1.16px"
       fill="#e2173a"
       font-family="ArialMT, Arial"
       id="text14">I don’t like bugs!</text>
    <path
       d="m 574.87,81.88 h -300 a 24.88,24.88 0 1 1 0,-49.76 h 300 z"
       id="path16" />
    <path
       d="m 324.93,49.48 h 14.44 l -6.23,6 h -8.21 z m 0,8 h 8.21 l 6.22,6 h -14.44 z m -4.58,-17 a 20.29,20.29 0 0 1 4.22,0.47 v 7.17 a 10.18,10.18 0 0 0 -4.22,-0.89 c -5.23,0 -9.8,3.92 -9.85,9.17 v 0 a 9,9 0 0 0 3.34,6.49 10.7,10.7 0 0 0 6.51,2.61 10.13,10.13 0 0 0 4.23,-0.86 v 7.25 a 18.08,18.08 0 0 1 -4.21,0.49 c -9.16,-0.22 -17.3,-7 -17.39,-16 v 0 c 0.27,-9.45 8.69,-15.86 17.39,-15.92 z"
       fill="#b1bcbe"
       id="path18" />
    <path
       d="m 366.87,57.69 c 0,6.42 -6.72,6.18 -10.06,6.19 -6.8,0 -9.47,-2.44 -9.49,-7.72 -0.16,-7.58 4.9,-7.51 9.76,-7.53 5.78,-0.24 9.8,1 9.81,6.27 h -5.43 c -0.18,-1.64 -1.24,-2.2 -4.38,-2.2 -3.72,0 -4.41,0.58 -4.41,3.61 0,3.19 1.56,3.46 4.47,3.47 3.14,0 4.05,-0.43 4.29,-2.09 z m 131.33,5.82 h -4.87 v -1.9 h -0.27 c -1,1.75 -2.37,2.27 -6.13,2.27 -7,0 -8.2,-3.06 -8.21,-7.72 0,-6.9 3.41,-7.51 8.27,-7.53 3.64,0 4.84,0.49 5.83,2.33 h 0.2 v -7.87 h 5.18 z M 483.9,56.1 c 0,3.18 0.58,3.68 4.48,3.68 a 7.79,7.79 0 0 0 3.9,-0.68 c 0.58,-0.4 0.78,-1.17 0.78,-2.85 0,-3 -0.68,-3.55 -4.37,-3.55 -4.09,0 -4.79,0.49 -4.79,3.4 M 527.5,49 v 2.2 h 0.27 c 1,-1.84 2.45,-2.54 5.39,-2.54 4.22,0 5.64,1.47 5.64,5.82 v 1 h -4.93 c 0,-2.15 -0.61,-2.73 -2.76,-2.73 a 3.26,3.26 0 0 0 -2.67,1 c -0.5,0.71 -0.65,1.5 -0.65,3.74 v 6 h -5.24 V 49 Z m 32.07,9.86 c -0.41,4 -2.38,5 -10.05,5 -6.67,0 -9.21,-2.5 -9.23,-7.57 -0.15,-7.77 4.73,-7.66 9.79,-7.68 8.25,0.06 9.71,2.15 9.57,8.81 h -14 c 0,3 1.46,2.9 4.32,3 3.42,0 4.06,-0.25 4.27,-1.53 z m -5.28,-4.41 c 0,-2.29 -1.29,-2.45 -4.13,-2.48 -2.84,-0.03 -4.64,0.08 -4.53,2.48 z"
       fill="#b1bcbe"
       stroke="#b1bcbe"
       stroke-width="0.3"
       id="path20" />
    <path
       id="a"
       d="m 395.62,49 v 2.2 h 0.25 c 0.76,-1.74 2.52,-2.54 5.61,-2.54 3.35,0 5.19,0.89 6.31,3 0.89,-2.17 2.59,-3 6,-3 2.88,0 4.58,0.55 5.78,1.87 1.2,1.32 1.43,2.47 1.43,6.21 v 6.77 h -5.2 v -6.77 c 0,-1.87 -0.12,-2.87 -0.58,-3.21 -1.53,-1.16 -4.66,-1.38 -6,0.12 -0.61,0.67 -0.77,1.8 -0.77,3.89 v 6 h -5.19 v -5.9 c -0.08,-1.33 0.14,-3.32 -0.56,-4.08 -1.05,-1.08 -4.83,-1.1 -6.05,0.09 -0.91,1 -0.76,1.8 -0.76,3.92 v 6 h -5.2 V 49 Z"
       fill="#b1bcbe"
       stroke="#b1bcbe"
       stroke-width="0.3" />
    <path
       id="a-2"
       data-name="a"
       d="m 428.9,49 v 2.2 h 0.24 c 0.77,-1.74 2.53,-2.54 5.61,-2.54 3.36,0 5.2,0.89 6.32,3 0.89,-2.17 2.59,-3 6,-3 2.88,0 4.58,0.55 5.78,1.87 1.2,1.32 1.47,2.48 1.47,6.21 v 6.77 h -5.2 v -6.77 c -0.05,-1.87 -0.12,-2.87 -0.58,-3.21 -1.53,-1.16 -4.66,-1.38 -6,0.12 -0.61,0.67 -0.77,1.8 -0.77,3.89 v 6 h -5.19 v -5.9 c -0.08,-1.33 0.14,-3.32 -0.56,-4.08 -1.05,-1.08 -4.83,-1.1 -6.05,0.09 -0.91,1 -0.76,1.8 -0.76,3.92 v 6 H 424 V 49 Z"
       fill="#b1bcbe"
       stroke="#b1bcbe"
       stroke-width="0.3" />
    <path
       id="b"
       d="m 388.18,56 c 0.08,7.2 -3.28,7.78 -9.89,7.87 -6.61,0.09 -9.85,-1.24 -9.92,-8.09 -0.07,-6.85 3.95,-7.07 9.9,-7.13 5.95,-0.06 9.82,0.14 9.91,7.35 z m -14.58,0.37 c 0.16,3.39 1.54,3.42 4.69,3.43 3.15,0.01 4.69,-0.43 4.65,-3.59 -0.04,-3.16 -1,-3.48 -4.65,-3.49 -3.65,-0.01 -4.69,0.55 -4.69,3.65"
       fill="#b1bcbe"
       stroke="#b1bcbe"
       stroke-width="0.3" />
    <path
       id="b-2"
       data-name="b"
       d="m 476.66,56 c 0.08,7.2 -3.28,7.78 -9.88,7.87 -6.6,0.09 -9.85,-1.24 -9.93,-8.09 -0.08,-6.85 4,-7.07 9.91,-7.13 5.91,-0.06 9.82,0.14 9.9,7.35 z m -14.57,0.37 c 0.15,3.39 1.53,3.42 4.69,3.43 3.16,0.01 4.69,-0.43 4.65,-3.59 -0.04,-3.16 -1,-3.48 -4.65,-3.49 -3.65,-0.01 -4.69,0.55 -4.69,3.65"
       fill="#b1bcbe"
       stroke="#b1bcbe"
       stroke-width="0.3" />
    <path
       id="b-3"
       data-name="b"
       d="m 520.43,56 c 0.09,7.2 -3.27,7.78 -9.88,7.87 -6.61,0.09 -9.85,-1.24 -9.92,-8.09 -0.07,-6.85 3.95,-7.07 9.9,-7.13 5.95,-0.06 9.82,0.14 9.9,7.35 z m -14.57,0.37 c 0.16,3.39 1.54,3.42 4.69,3.43 3.15,0.01 4.69,-0.43 4.65,-3.59 -0.04,-3.16 -1,-3.48 -4.65,-3.49 -3.65,-0.01 -4.69,0.55 -4.69,3.65"
       fill="#b1bcbe"
       stroke="#b1bcbe"
       stroke-width="0.3" />
    <path
       d="m 660.33,54.49 c 0.07,10.28 -3,10.6 -13.79,10.44 -12.88,-0.12 -13,-1.19 -13,-14.49 0.05,-14.15 1.79,-14.15 13.38,-14.13 11.5,0.33 13.28,0 13.45,10.51 h -6.69 c -0.25,-3.09 -1.1,-4 -7.38,-4 -6.28,0 -6.57,1.37 -6.5,7.88 0.07,6.51 0.55,7.86 6.58,7.91 6.03,0.05 7.33,-0.55 7.26,-4.14 z"
       stroke="#000000"
       stroke-width="0.78"
       id="path27" />
    <path
       d="m 712.89,36 c -13.55,0.14 -14.3,1.3 -14.35,14.33 -0.13,12.53 0.14,14.57 14.35,14.7 14.21,-0.13 14.26,-2.68 14.35,-14.7 0,-13 -1.64,-14.4 -14.35,-14.33 z m 0,6.77 c 6.79,0 7.09,2 7,7.84 -0.09,5.84 -0.59,7.59 -7,7.64 -6.41,0.05 -6.95,-1.76 -7,-7.64 -0.05,-5.88 0.21,-7.82 7,-7.8 z m -30.14,5.43 c -7.75,-0.07 -13.69,0.62 -13.83,10.52 0,0.2 0,6 0,6 h 27.18 v -6 h -20.63 c 0,-3.12 0.11,-4.61 7.13,-4.59 7.02,0.02 13.32,0 13.38,-9 -0.28,-8.76 -4.1,-9.25 -13.61,-9.28 -11.79,0.34 -13.62,1.37 -13.8,10.61 h 6.86 c -0.07,-3.83 0.73,-4.72 6.94,-4.68 6.21,0.04 6.94,0.54 7.09,3.24 0.15,2.7 -0.22,3.26 -6.71,3.19 z"
       fill="none"
       stroke="#000000"
       stroke-width="0.78"
       id="path29" />
    <path
       d="m 624.4,37 h 6.13 v 27.72 h -6.13 z m -31.72,0 10.26,27.71 h 8.93 L 622.14,37 H 616 l -7.9,21.31 h -1.42 L 598.8,37 Z"
       stroke="#000000"
       stroke-linecap="round"
       stroke-linejoin="round"
       stroke-width="0.78"
       id="path31" />
    <path
       d="m 625,72.4 a 4.63,4.63 0 0 1 1.33,-3.52 3.63,3.63 0 0 1 2.62,-1 3.54,3.54 0 0 1 2.51,0.86 3.33,3.33 0 0 1 1,2.35 h -1.28 a 2.47,2.47 0 0 0 -0.7,-1.63 2.13,2.13 0 0 0 -1.54,-0.61 2.39,2.39 0 0 0 -1.71,0.71 4.58,4.58 0 0 0 0,5.61 2.38,2.38 0 0 0 1.71,0.66 2.26,2.26 0 0 0 1.65,-0.56 2.67,2.67 0 0 0 0.75,-2 h 1.28 a 3.75,3.75 0 0 1 -1.08,2.73 3.67,3.67 0 0 1 -2.61,0.86 3.63,3.63 0 0 1 -2.62,-1 A 4.55,4.55 0 0 1 625,72.4 Z m 9.12,-0.06 a 4.44,4.44 0 0 1 1.26,-3.34 4,4 0 0 1 5.45,0 5.06,5.06 0 0 1 0,6.73 4,4 0 0 1 -5.45,0 4.46,4.46 0 0 1 -1.28,-3.37 z m 4,-3.46 a 2.55,2.55 0 0 0 -1.81,0.76 4.48,4.48 0 0 0 0,5.41 2.55,2.55 0 0 0 3.63,0 4.48,4.48 0 0 0 0,-5.41 2.57,2.57 0 0 0 -1.82,-0.76 z m 5.82,-0.87 h 1.66 l 2.4,6.78 2.49,-6.79 h 1.65 v 8.72 h -1.22 v -6.67 l -2.46,6.68 h -0.85 l -2.46,-6.68 v 6.68 h -1.23 z m 10,0 h 4.27 a 2.69,2.69 0 0 1 1.92,0.71 2.62,2.62 0 0 1 0.75,2 2.57,2.57 0 0 1 -0.69,1.94 2.77,2.77 0 0 1 -2,0.66 h -3 v 3.42 H 654 Z m 1.23,1 v 3.36 H 658 a 1.66,1.66 0 0 0 1.18,-0.4 1.63,1.63 0 0 0 0.48,-1.23 1.65,1.65 0 0 0 -0.43,-1.27 A 1.69,1.69 0 0 0 658,69 Z m 7.31,-1 h 1.23 v 6.12 a 1.53,1.53 0 0 0 0.48,1.17 2.89,2.89 0 0 0 3.42,0 1.53,1.53 0 0 0 0.48,-1.17 V 68 h 1.23 v 6.17 a 2.43,2.43 0 0 1 -0.75,1.84 4.81,4.81 0 0 1 -5.34,0 2.43,2.43 0 0 1 -0.75,-1.84 z m 8.16,0 H 678 v 1 h -3 v 7.75 h -1.23 V 69 h -3.05 z m 8.6,0 h 5.87 v 1 h -4.64 v 2.7 h 4.32 v 1 h -4.32 v 3.11 h 4.91 v 1 h -6.14 z m 8,-0.05 h 4.48 a 2.45,2.45 0 0 1 1.76,0.66 2.76,2.76 0 0 1 0,3.67 1.89,1.89 0 0 1 -1.06,0.46 l 2.08,3.93 h -1.34 l -1.92,-3.77 h -2.78 v 3.77 h -1.22 z m 1.23,1 v 3 h 3.14 a 1.26,1.26 0 0 0 0.91,-0.36 1.75,1.75 0 0 0 0,-2.24 1.4,1.4 0 0 0 -1,-0.41 z"
       id="path33" />
  </g>
</svg>
