<?xml version="1.0" encoding="UTF-8" standalone="no"?>
<svg
   id="Capa_1"
   data-name="Capa 1"
   viewBox="0 0 300.89401 114"
   version="1.1"
   sodipodi:docname="3do.svg"
   width="300.89401"
   height="114"
   inkscape:version="1.1 (c68e22c387, 2021-05-23)"
   xmlns:inkscape="http://www.inkscape.org/namespaces/inkscape"
   xmlns:sodipodi="http://sodipodi.sourceforge.net/DTD/sodipodi-0.dtd"
   xmlns="http://www.w3.org/2000/svg"
   xmlns:svg="http://www.w3.org/2000/svg"
   xmlns:rdf="http://www.w3.org/1999/02/22-rdf-syntax-ns#"
   xmlns:cc="http://creativecommons.org/ns#"
   xmlns:dc="http://purl.org/dc/elements/1.1/">
  <sodipodi:namedview
     id="namedview128"
     pagecolor="#ffffff"
     bordercolor="#666666"
     borderopacity="1.0"
     inkscape:pageshadow="2"
     inkscape:pageopacity="0.0"
     inkscape:pagecheckerboard="0"
     showgrid="false"
     fit-margin-top="0"
     fit-margin-left="0"
     fit-margin-right="0"
     fit-margin-bottom="0"
     inkscape:zoom="1.113"
     inkscape:cx="150.49416"
     inkscape:cy="56.603774"
     inkscape:window-width="1920"
     inkscape:window-height="1138"
     inkscape:window-x="-8"
     inkscape:window-y="-8"
     inkscape:window-maximized="1"
     inkscape:current-layer="Capa_1" />
  <defs
     id="defs9">
    <radialGradient
       id="radial-gradient"
       cx="614.51318"
       cy="50.909801"
       r="8.9330301"
       gradientUnits="userSpaceOnUse">
      <stop
         offset="0.52247"
         stop-color="#ffe41b"
         id="stop2" />
      <stop
         offset="0.89326"
         stop-color="#716a13"
         id="stop4" />
      <stop
         offset="1"
         stop-color="#49482e"
         id="stop6" />
    </radialGradient>
  </defs>
  <title
     id="title11">logo</title>
  <g
     id="g1004"
     transform="translate(-349.553)">
    <rect
       x="353.05322"
       y="3.5"
       width="293.89355"
       height="107"
       rx="3.5"
       fill="#ffffff"
       id="rect13" />
    <path
       d="M 643.447,7 V 107 H 356.553 V 7 h 286.894 m 0,-7 H 356.553 a 7,7 0 0 0 -7,7 v 100 a 7,7 0 0 0 7,7 h 286.894 a 7,7 0 0 0 7,-7 V 7 a 7,7 0 0 0 -7,-7 z"
       fill="#ffffff"
       id="path15" />
    <rect
       x="450"
       y="-86.447037"
       width="100"
       height="286.89407"
       transform="rotate(90,500.00001,57)"
       id="rect17" />
    <rect
       x="360.0376"
       y="12.28956"
       width="279.9249"
       height="89.420929"
       id="rect19" />
    <path
       d="m 388.00707,70.59715 h -19.79645 l 19.6073,11.809 h 7.82648 l -13.38669,-7.76892 h 7.05779 c 3.49536,0 6.3289,-3.52044 6.3289,-7.86313 0,-4.34269 -2.83354,-7.86313 -6.3289,-7.86313 h -29.2779 v 23.49422 h 4.47478 V 63.0142 h 23.49469 a 3.81967,3.81967 0 0 1 0,7.58295 z"
       fill="#ffffff"
       id="path21" />
    <rect
       x="423.80557"
       y="68.227928"
       width="23.11692"
       height="4.4824901"
       fill="#ffffff"
       id="rect23" />
    <polygon
       points="420.452,63.387 420.452,78.304 452.856,78.304 452.856,82.406 416.35,82.406 416.35,58.911 452.856,58.911 452.856,63.387 "
       fill="#ffffff"
       id="polygon25" />
    <rect
       x="402.92435"
       y="66.360229"
       width="7.4586301"
       height="7.4586301"
       fill="#ed1b24"
       id="rect27" />
    <rect
       x="460.3558"
       y="66.360229"
       width="7.4586301"
       height="7.4586301"
       fill="#23b14d"
       id="rect29" />
    <rect
       x="519.21686"
       y="66.360229"
       width="7.4586301"
       height="7.4586301"
       fill="#2993c3"
       id="rect31" />
    <polygon
       points="571.855,78.297 571.855,82.406 535.315,82.406 535.315,58.911 539.79,58.911 539.79,78.297 "
       fill="#ffffff"
       id="polygon33" />
    <path
       d="m 506.45949,76.39831 6.63507,6.00785 h 7.05463 L 494.29971,59.08563 a 0.9283,0.9283 0 0 0 -1.26533,0.0202 l -24.22545,23.30033 h 5.93583 l 19.05059,-17.69822 7.76941,7.69214 h -11.46765 l -4.07117,3.99823 z"
       fill="#ffffff"
       id="path35" />
    <rect
       x="360.03156"
       y="86.137428"
       width="211.82906"
       height="2.23224"
       fill="#2993c3"
       id="rect37" />
    <path
       d="m 363.75739,95.30692 a 0.73765,0.73765 0 0 0 0.30838,0.65373 1.56833,1.56833 0 0 0 0.92517,0.24107 c 0.75255,0 1.14731,-0.35279 1.14731,-0.70557 0,-0.69676 -1.60179,-0.78129 -2.21857,-0.78129 l 10e-4,-0.93745 c 0.60446,0.03421 2.14306,-0.062 2.14306,-0.6297 0,-0.39581 -0.50577,-0.542 -1.01153,-0.542 -0.60446,0 -1.04863,0.21515 -1.12254,0.64518 h -2.31927 c 0.0864,-1.39351 1.70236,-1.9871 3.51586,-1.9871 2.06016,0 3.34312,0.66228 3.34312,1.69471 0,0.55056 -0.30839,0.95492 -1.01167,1.19573 0.78952,0.21514 1.246,0.67109 1.246,1.26468 0,1.41062 -1.5173,2.12474 -3.84889,2.12474 -2.02307,0 -3.55282,-0.73123 -3.51586,-2.23672 z"
       fill="#ffffff"
       id="path39" />
    <path
       d="m 370.45844,97.42223 v -5.80157 h 3.61084 c 2.65094,0 4.29636,0.87018 4.29636,2.78 0,2.18369 -1.72542,3.02158 -4.36495,3.02158 z m 2.69672,-1.35358 h 0.57129 c 1.257,0 1.94247,-0.46738 1.94247,-1.56335 0,-1.20863 -0.55988,-1.53082 -1.99965,-1.53082 h -0.51411 z"
       fill="#ffffff"
       id="path41" />
    <path
       d="m 387.35,94.48953 c 0,1.97416 -1.8853,3.08615 -4.31919,3.08615 -2.58235,0 -4.30777,-1.12826 -4.30777,-3.10242 0,-1.821 1.74824,-3.00555 4.30777,-3.00555 2.93663,0 4.31919,1.49076 4.31919,3.02182 z m -5.93037,0 a 1.50148,1.50148 0 0 0 1.61118,1.668 1.48092,1.48092 0 0 0 1.6226,-1.668 1.50395,1.50395 0 0 0 -1.64542,-1.60366 1.47593,1.47593 0 0 0 -1.58833,1.60366 z"
       fill="#ffffff"
       id="path43" />
    <path
       d="m 395.81577,97.42273 v -5.80156 h 2.5463 v 5.80156 z"
       fill="#ffffff"
       id="path45" />
    <path
       d="M 405.09512,94.78793 404.998,93.4664 v -1.84523 h 2.43838 v 5.80156 h -2.38448 l -2.77283,-3.15851 0.0971,1.32129 v 1.83722 h -2.43838 v -5.80156 h 2.38448 z"
       fill="#ffffff"
       id="path47" />
    <path
       d="m 408.14364,91.62117 h 7.12091 V 93.144 h -2.28737 v 4.27876 H 410.431 V 93.144 h -2.28736 z"
       fill="#ffffff"
       id="path49" />
    <path
       d="M 415.95384,97.42273 V 91.62117 H 422.681 V 92.975 h -4.02258 v 0.82987 h 3.40375 v 1.35357 h -3.40375 v 0.91073 h 4.183 v 1.35357 z"
       fill="#ffffff"
       id="path51" />
    <path
       d="m 426.83116,95.40026 v 2.02247 h -2.68909 v -5.80156 h 3.87409 c 2.7346,0 3.63473,0.52371 3.63473,1.65173 0,0.66889 -0.42154,1.2329 -1.37872,1.41816 0.866,0.22579 1.39013,0.37074 1.39013,1.53907 0,0.75751 -0.0342,1.01536 0.28487,1.01536 v 0.17724 H 429.224 a 2.73459,2.73459 0 0 1 -0.13679,-1.01536 c 0,-0.75728 -0.18231,-1.00711 -1.43564,-1.00711 z m 0,-1.27321 h 1.05961 c 0.83179,0 1.27615,-0.14495 1.27615,-0.54775 0,-0.41105 -0.45577,-0.60431 -1.08243,-0.60431 h -1.25333 z"
       fill="#ffffff"
       id="path53" />
    <path
       d="m 432.74377,97.42273 2.78352,-5.80156 h 2.5894 l 2.78363,5.80156 h -2.53538 l -0.30215,-0.76553 h -2.5355 l -0.29123,0.76553 z m 4.05673,-4.053 -0.78762,2.0788 h 1.60753 z"
       fill="#ffffff"
       id="path55" />
    <path
       d="m 446.6821,93.83715 c -0.0755,-0.60431 -0.58259,-0.951 -1.381,-0.951 -0.89542,0 -1.43491,0.57226 -1.43491,1.69227 0,0.81385 0.23733,1.57937 1.532,1.57937 a 1.16862,1.16862 0 0 0 1.3055,-0.98307 h 2.44907 c -0.22653,1.49877 -1.66144,2.40123 -3.71135,2.40123 -2.56791,0 -4.12155,-1.17657 -4.12155,-3.06211 0,-1.87729 1.70478,-3.04585 3.87329,-3.04585 2.37368,0 3.70079,0.87842 3.90571,2.36918 z"
       fill="#ffffff"
       id="path57" />
    <path
       d="m 449.56357,91.62117 h 7.12091 V 93.144 h -2.28736 v 4.27876 h -2.54618 V 93.144 h -2.28737 z"
       fill="#ffffff"
       id="path59" />
    <path
       d="m 457.43593,97.42273 v -5.80156 h 2.54618 v 5.80156 z"
       fill="#ffffff"
       id="path61" />
    <path
       d="m 460.83322,91.62117 h 2.56792 l 1.3594,3.8597 1.4133,-3.8597 h 2.56779 l -2.6972,5.80156 h -2.5571 z"
       fill="#ffffff"
       id="path63" />
    <path
       d="m 469.71791,97.42273 v -5.80156 h 6.606 V 92.975 h -3.95017 v 0.82987 h 3.34237 v 1.35357 h -3.34237 v 0.91073 h 4.10769 v 1.35357 z"
       fill="#ffffff"
       id="path65" />
    <path
       d="m 484.87238,97.42273 v -5.80156 h 3.50423 l 1.56129,3.61783 1.56157,-3.61787 h 3.50422 v 5.80156 h -2.60677 v -1.7726 l 0.0369,-0.90246 0.14749,-1.04763 h -0.0245 l -1.61073,3.72276 h -2.01626 L 487.31917,93.7 h -0.0247 l 0.123,0.85415 0.0614,0.90247 v 1.96614 z"
       fill="#ffffff"
       id="path67" />
    <path
       d="m 496.83727,91.54457 h 2.59353 v 3.47292 c 0,0.572 0.15393,1.06368 1.22,1.06368 0.934,0 1.20887,-0.43533 1.20887,-1.06368 v -3.47292 h 2.59377 V 94.824 c 0,1.8615 -1.17609,2.67534 -3.80264,2.67534 -2.45076,0 -3.81357,-0.68492 -3.81357,-2.68336 z"
       fill="#ffffff"
       id="path69" />
    <path
       d="m 505.99522,97.42273 v -5.80156 h 2.59378 v 4.448 h 3.56082 v 1.35357 z"
       fill="#ffffff"
       id="path71" />
    <path
       d="m 511.478,91.62117 h 7.25371 V 93.144 h -2.33009 v 4.27876 h -2.59353 V 93.144 H 511.478 Z"
       fill="#ffffff"
       id="path73" />
    <path
       d="m 519.37852,97.42273 v -5.80156 h 2.59376 v 5.80156 z"
       fill="#ffffff"
       id="path75" />
    <path
       d="M 523.78644,97.42273 V 91.62117 H 527.6 c 2.275,0 3.37411,0.76553 3.37411,1.95813 0,1.24893 -1.01124,2.0385 -3.28622,2.0385 h -1.30769 v 1.80493 z m 3.67081,-3.15851 c 0.60431,0 1.044,-0.17748 1.044,-0.67691 0,-0.54 -0.83521,-0.61232 -1.38465,-0.61232 h -0.7364 v 1.28923 z"
       fill="#ffffff"
       id="path77" />
    <path
       d="m 531.92975,97.31 v -5.80161 h 2.59377 v 4.448 h 3.56082 V 97.31 Z"
       fill="#ffffff"
       id="path79" />
    <path
       d="m 538.48349,97.31 2.83535,-5.80156 h 2.63772 l 2.83559,5.80156 h -2.58284 l -0.30762,-0.76553 h -2.58285 L 541.02215,97.31 Z m 4.13236,-4.053 -0.80244,2.07881 h 1.63765 z"
       fill="#ffffff"
       id="path81" />
    <path
       d="m 551.54727,97.42273 h -2.59377 v -2.11109 l -2.94533,-3.69047 h 2.90139 l 1.3628,1.96614 1.3628,-1.96614 h 2.85744 l -2.94533,3.65818 z"
       fill="#ffffff"
       id="path83" />
    <path
       d="m 554.92526,97.42273 v -5.80156 h 6.45128 V 92.975 H 557.519 v 0.82987 h 3.26413 v 1.35357 H 557.519 v 0.91073 h 4.01145 v 1.35357 z"
       fill="#ffffff"
       id="path85" />
    <path
       d="m 565.46356,95.40026 v 2.02247 h -2.67541 v -5.80156 h 3.85447 c 2.72049,0 3.61605,0.52371 3.61605,1.65173 0,0.66889 -0.41948,1.2329 -1.37164,1.41816 0.8615,0.22579 1.38316,0.37074 1.38316,1.53907 0,0.75751 -0.0341,1.01536 0.28324,1.01536 v 0.17724 h -2.70922 a 2.74613,2.74613 0 0 1 -0.13624,-1.01536 c 0,-0.75728 -0.18131,-1.00711 -1.42824,-1.00711 z m 0,-1.27321 h 1.05434 c 0.82744,0 1.26946,-0.14495 1.26946,-0.54775 0,-0.41105 -0.45329,-0.60431 -1.07688,-0.60431 h -1.24692 z"
       fill="#ffffff"
       id="path87" />
    <rect
       x="587.01917"
       y="12.25976"
       width="52.94334"
       height="89.420929"
       fill="#ffffff"
       id="rect89" />
    <rect
       x="589.12201"
       y="79.854782"
       width="48.737659"
       height="20.067671"
       id="rect91" />
    <path
       d="m 604.78793,66.76718 c 0,-0.84353 3.89556,-1.52691 8.70289,-1.52691 4.80733,0 8.703,0.68338 8.703,1.52691 0,0.84353 -3.89564,1.52678 -8.703,1.52678 -4.80736,0 -8.70289,-0.68324 -8.70289,-1.52678 z"
       fill="#888888"
       id="path93" />
    <path
       d="m 597.26253,88.93092 v 0.03235 a 5.35163,5.35163 0 0 1 3.24634,0.87415 2.49807,2.49807 0 0 1 1.0481,2.01432 2.5829,2.5829 0 0 1 -1.19288,2.17621 5.31252,5.31252 0 0 1 -3.17146,0.85884 4.42678,4.42678 0 0 1 -2.64477,-0.68337 1.93016,1.93016 0 0 1 -0.93553,-1.55594 1.17,1.17 0 0 1 0.41924,-0.93726 1.50413,1.50413 0 0 1 1.00543,-0.3544 1.47608,1.47608 0 0 1 0.94239,0.31006 0.99682,0.99682 0 0 1 0.39188,0.82158 q 0,0.67977 -0.91171,1.13989 c -0.11922,0.05978 -0.18066,0.1278 -0.18066,0.20289 0,0.13966 0.17041,0.26241 0.513,0.36812 a 3.5092,3.5092 0 0 0 1.04624,0.1567 q 1.75617,0 1.757,-2.5816 0,-2.55616 -2.10963,-2.55617 l -1.16739,0.04752 c -0.23511,0 -0.35447,-0.0868 -0.35447,-0.26054 0,-0.19957 0.12441,-0.30008 0.37158,-0.30008 l 0.85032,0.03235 a 2.1018,2.1018 0 0 0 1.74333,-0.5794 2.6508,2.6508 0 0 0 0.443,-1.6462 3.04559,3.04559 0 0 0 -0.334,-1.617 1.26109,1.26109 0 0 0 -1.14854,-0.518 2.28339,2.28339 0 0 0 -0.83162,0.14977 c -0.259,0.09893 -0.39022,0.196 -0.39022,0.2933 q 0,0.1352 0.25562,0.28118 c 0.44639,0.28451 0.67139,0.593 0.67139,0.92528 a 0.93462,0.93462 0 0 1 -0.3749,0.78043 1.35107,1.35107 0 0 1 -0.84527,0.2897 1.53357,1.53357 0 0 1 -0.96622,-0.33057 1.00819,1.00819 0 0 1 -0.426,-0.823 1.73757,1.73757 0 0 1 0.94578,-1.45023 4.37987,4.37987 0 0 1 2.4267,-0.61348 5.17277,5.17277 0 0 1 2.76233,0.69349 2.0425,2.0425 0 0 1 1.12638,1.77747 q -10e-6,2.13672 -3.98078,2.58164 z"
       fill="#ffffff"
       id="path95" />
    <path
       d="m 610.49158,84.3587 v 9.79865 h 0.95936 q 2.201,0 2.65842,-1.15374 a 11.88879,11.88879 0 0 0 0.45678,-3.94835 12.34762,12.34762 0 0 0 -0.28117,-3.14076 1.93529,1.93529 0 0 0 -0.8504,-1.25572 3.10365,3.10365 0 0 0 -1.44849,-0.30008 z m -2.96349,9.79865 V 84.3587 h -1.537 v -0.52987 h 6.15857 a 5.80535,5.80535 0 0 1 4.22966,1.51493 5.10731,5.10731 0 0 1 1.55754,3.82227 5.397,5.397 0 0 1 -0.47542,2.24943 5.61438,5.61438 0 0 1 -1.46208,1.9154 4.79446,4.79446 0 0 1 -2.02457,1.1094 11.1634,11.1634 0 0 1 -2.54938,0.2471 h -5.43432 v -0.53 z"
       fill="#ffffff"
       id="path97" />
    <path
       d="m 629.79573,89.26322 a 32.55649,32.55649 0 0 0 -0.10225,-3.28721 2.34049,2.34049 0 0 0 -0.53333,-1.27995 1.80517,1.80517 0 0 0 -1.41442,-0.48568 2.07264,2.07264 0 0 0 -1.32415,0.39209 1.87019,1.87019 0 0 0 -0.61521,1.25931 30.18886,30.18886 0 0 0 -0.12088,3.3844 32.28379,32.28379 0 0 0 0.10384,3.29905 2.23361,2.23361 0 0 0 0.55051,1.28328 1.84352,1.84352 0 0 0 1.40589,0.47715 2.07549,2.07549 0 0 0 1.29673,-0.38342 1.82962,1.82962 0 0 0 0.62719,-1.25079 28.86477,28.86477 0 0 0 0.12608,-3.40823 z m -7.48106,-0.04593 a 5.292,5.292 0 0 1 1.60879,-3.98776 5.36433,5.36433 0 0 1 3.858,-1.549 5.4909,5.4909 0 0 1 3.73721,1.457 5.23854,5.23854 0 0 1 1.64793,4.14432 5.37777,5.37777 0 0 1 -1.5576,4.03715 5.60191,5.60191 0 0 1 -7.7673,-0.09373 5.60093,5.60093 0 0 1 -1.52703,-4.00798 z"
       fill="#ffffff"
       id="path99" />
    <path
       d="m 606.09324,52.37088 a 7.39761,7.39761 0 1 1 7.39758,7.41622 7.40586,7.40586 0 0 1 -7.39758,-7.41622 z"
       fill="url(#radial-gradient)"
       id="path101"
       style="fill:url(#radial-gradient)" />
    <path
       d="m 606.60108,33.03085 c -1.08891,0.72591 -1.37861,4.9436 -1.37861,4.9436 0,0 0.2897,4.21768 1.37861,4.94366 1.08723,0.72757 6.88974,1.16385 6.88974,1.16385 0,0 5.80251,-0.43628 6.88968,-1.16385 1.089,-0.726 1.37874,-4.94366 1.37874,-4.94366 0,0 -0.2897,-4.21769 -1.37874,-4.9436 -1.08717,-0.72764 -6.88968,-1.16392 -6.88968,-1.16392 0,0 -5.80251,0.43628 -6.88974,1.16392 z"
       fill="#0000a0"
       id="path103" />
    <polygon
       points="613.491,31.392 604.825,22.706 613.491,14.018 622.156,22.706 "
       fill="#ff0000"
       id="polygon105" />
    <path
       d="m 410.9167,32.88889 c 0,-5.19752 -0.62359,-9.31573 -10.93553,-9.31573 -8.60684,0 -11.48209,3.0941 -11.42145,8.19025 h 7.706 A 3.16841,3.16841 0 0 1 399.441,29.064 c 0.91469,0 2.82551,0.208 2.82679,1.78759 0.005,4.73482 -14.89105,0.36625 -14.89105,10.4378 0,4.53189 4.702,6.37059 7.15783,6.31019 3.24177,-0.0805 5.73766,-0.66463 8.19122,-2.95257 v 0 l 0.9416,2.32836 h 7.64468 c -0.36395,-0.83214 -0.39539,-14.08648 -0.39539,-14.08648 z m -12.64933,9.73526 a 2.2093,2.2093 0 0 1 -2.4269,-2.24526 c 0.0202,-1.84858 3.84735,-1.78245 6.67416,-3.15446 0.20862,2.99272 -1.21186,5.39972 -4.24726,5.39972 z"
       fill="#ffffff"
       fill-rule="evenodd"
       id="path107" />
    <path
       d="m 563.5806,37.83388 c -0.24936,1.70416 -1.12327,3.81979 -3.3676,3.81979 -2.72246,0 -4.20967,-2.64835 -4.20967,-5.93348 0,-2.57707 0.96662,-6.03578 4.20967,-6.03578 a 2.90921,2.90921 0 0 1 2.24433,0.87353 3.26915,3.26915 0 0 1 0.91562,2.24495 h 8.31477 c -0.62355,-6.44432 -5.65423,-8.9396 -11.47472,-8.9396 -7.19309,0 -12.52188,4.28091 -12.52188,11.72339 0,7.35908 5.4947,11.88748 12.52188,11.88748 6.02814,0 10.89218,-3.02969 11.6416,-9.64028 z"
       fill="#ffffff"
       fill-rule="evenodd"
       id="path109" />
    <polygon
       points="546.786,24.605 538.435,24.605 538.435,46.994 538.435,46.994 546.786,46.994 "
       fill="#ffffff"
       fill-rule="evenodd"
       id="polygon111" />
    <polygon
       points="546.786,15.461 538.435,15.461 538.435,21.181 538.435,21.181 546.786,21.181 "
       fill="#ffffff"
       fill-rule="evenodd"
       id="polygon113" />
    <path
       d="m 499.168,23.63314 c -7.36025,0 -12.42334,4.41611 -12.42334,11.98312 0,7.44276 5.47964,11.85724 12.46511,11.85724 6.9845,0 12.47213,-4.29863 12.47213,-12.28219 0,-6.77688 -4.8223,-11.55817 -12.5139,-11.55817 z m 0.0418,18.0199 c -2.20418,0 -3.91,-2.365 -3.91,-6.48129 0,-2.45261 1.04145,-5.488 3.9924,-5.488 2.2453,-0.12456 3.83233,2.4599 3.83233,5.66156 0,4.116 -1.587,6.3077 -3.91477,6.3077 z"
       fill="#ffffff"
       fill-rule="evenodd"
       id="path115" />
    <path
       d="m 471.60518,30.03455 c 0.0202,-1.08095 1.1958,-1.58288 2.69229,-1.58288 a 3.70908,3.70908 0 0 1 2.0588,0.54077 2.74478,2.74478 0 0 1 0.83124,1.57963 h 7.85838 c -0.21339,-5.816 -5.91675,-7.02973 -11.01384,-7.02973 -4.53193,0 -10.41116,1.7905 -10.42045,7.36291 -0.015,9.14056 13.9671,5.80312 13.9671,9.2949 0,1.53986 -1.15281,2.11787 -3.21578,2.11787 a 4.18345,4.18345 0 0 1 -2.269,-0.97667 2.49335,2.49335 0 0 1 -0.91465,-1.99684 h -7.76468 c 0.15182,6.10068 5.71971,8.37676 10.709,8.37676 9.25192,0 11.92113,-4.0226 11.95223,-8.55518 0.061,-8.73841 -14.52746,-5.99215 -14.47059,-9.13154 z"
       fill="#ffffff"
       fill-rule="evenodd"
       id="path117" />
    <path
       d="m 462.13953,32.88889 c 0,-5.19752 -0.62428,-9.31573 -10.93555,-9.31573 -8.60687,0 -11.48277,3.0941 -11.42148,8.19025 h 7.705 a 3.16965,3.16965 0 0 1 3.17661,-2.69941 c 0.91468,0 2.82521,0.208 2.82677,1.78759 0.004,4.73482 -14.892,0.36625 -14.892,10.4378 0,4.53189 4.702,6.37059 7.15781,6.31019 3.24177,-0.0805 5.73864,-0.66463 8.19156,-2.95257 v 0 l 0.94191,2.32836 h 7.64468 c -0.36393,-0.83214 -0.39537,-14.08648 -0.39537,-14.08648 z m -12.64969,9.73526 a 2.21016,2.21016 0 0 1 -2.42725,-2.24526 c 0.0209,-1.84858 3.84805,-1.78245 6.67485,-3.15446 0.20793,2.99272 -1.21248,5.39972 -4.2476,5.39972 z"
       fill="#ffffff"
       fill-rule="evenodd"
       id="path119" />
    <path
       d="M 374.87283,14.6906 H 360.0376 v 32.278 h 9.58216 V 36.95741 h 5.58587 c 8.60684,0 12.80242,-4.62594 12.80242,-11.07033 0,-6.15423 -4.5284,-11.19648 -13.13522,-11.19648 z m -0.4416,15.16808 h -4.81147 v -7.28043 h 3.52354 c 2.07836,0 5.238,0.56454 5.238,3.35057 a 3.6518,3.6518 0 0 1 -3.95,3.92986 z"
       fill="#ffffff"
       fill-rule="evenodd"
       id="path121" />
    <path
       d="m 528.49466,23.6319 c -3.28471,0 -4.67182,0.54588 -7.72681,3.33675 v 0 l 0.0209,-2.47666 -7.921,-0.0071 v 22.50656 h 7.921 v -11.82069 0 c 0,-2.78606 1.43392,-4.49018 4.09606,-4.49018 2.45288,0 3.03542,1.286 3.03542,3.44807 v 0 12.8628 h 8.64789 v -13.77454 0 c 0,-5.98738 -2.33638,-9.585 -8.07347,-9.585 z"
       fill="#ffffff"
       fill-rule="evenodd"
       id="path123" />
    <path
       d="m 429.09832,23.6319 c -3.28417,0 -4.67121,0.54588 -7.72619,3.33675 v 0 l 0.0209,-2.47665 -7.921,-0.0071 v 22.50655 h 8.34524 v -11.82069 0 c 0,-2.78606 1.1002,-4.80443 3.76233,-4.80443 2.4523,0 2.944,1.60022 2.944,3.76232 v 0 12.8628 h 8.64885 v -13.77454 0 c 0,-5.98738 -2.33638,-9.585 -8.074,-9.585 z"
       fill="#ffffff"
       fill-rule="evenodd"
       id="path125" />
  </g>
  <metadata
     id="metadata945">
    <rdf:RDF>
      <cc:Work
         rdf:about="">
        <dc:title>logo</dc:title>
      </cc:Work>
    </rdf:RDF>
  </metadata>
</svg>
