<?xml version="1.0" encoding="UTF-8" standalone="no"?>
<svg
   id="Layer_1"
   data-name="Layer 1"
   viewBox="0 0 242.89999 114"
   version="1.1"
   sodipodi:docname="64dd.svg"
   width="242.89999"
   height="114"
   inkscape:version="1.1 (c68e22c387, 2021-05-23)"
   xmlns:inkscape="http://www.inkscape.org/namespaces/inkscape"
   xmlns:sodipodi="http://sodipodi.sourceforge.net/DTD/sodipodi-0.dtd"
   xmlns="http://www.w3.org/2000/svg"
   xmlns:svg="http://www.w3.org/2000/svg">
  <defs
     id="defs69" />
  <sodipodi:namedview
     id="namedview67"
     pagecolor="#ffffff"
     bordercolor="#666666"
     borderopacity="1.0"
     inkscape:pageshadow="2"
     inkscape:pageopacity="0.0"
     inkscape:pagecheckerboard="0"
     showgrid="false"
     fit-margin-top="0"
     fit-margin-left="0"
     fit-margin-right="0"
     fit-margin-bottom="0"
     inkscape:zoom="1.113"
     inkscape:cx="121.74304"
     inkscape:cy="56.603774"
     inkscape:window-width="1920"
     inkscape:window-height="1138"
     inkscape:window-x="-8"
     inkscape:window-y="-8"
     inkscape:window-maximized="1"
     inkscape:current-layer="Layer_1" />
  <g
     id="g918"
     transform="translate(-378.55)">
    <rect
       x="382.04999"
       y="22.129999"
       width="235.91"
       height="88.370003"
       rx="3.5"
       fill="#c33d3a"
       id="rect2" />
    <path
       d="M 614.45,25.63 V 107 H 385.55 V 25.63 h 228.9 m 0,-7 h -228.9 a 7,7 0 0 0 -7,7 V 107 a 7,7 0 0 0 7,7 h 228.9 a 7,7 0 0 0 7,-7 V 25.63 a 7,7 0 0 0 -7,-7 z"
       fill="#ffffff"
       id="path4" />
    <path
       d="m 465.15,25.55 c -5.3,0 -8.86,-3.72 -8.86,-9.25 0,-5.53 3.56,-9.25 8.86,-9.25 a 8.34,8.34 0 0 1 8.73,7.53 12,12 0 0 1 0.12,1.72 c 0,5.53 -3.56,9.25 -8.85,9.25 z M 462.67,15 Z"
       fill="#c33d3a"
       id="path6" />
    <path
       d="m 465.15,10.55 a 4.91,4.91 0 0 1 5.27,4.53 9.49,9.49 0 0 1 0.08,1.22 c 0,3.4 -1.75,5.75 -5.35,5.75 -3.6,0 -5.36,-2.35 -5.36,-5.75 0,-3.4 1.76,-5.75 5.36,-5.75 m 0,8.7 c 0.65,0 1.1,-0.3 1.1,-3 0,-0.4 0,-0.74 0,-1 -0.09,-1.42 -0.4,-1.85 -0.83,-1.94 a 0.86,0.86 0 0 0 -0.23,0 1,1 0 0 0 -0.24,0 c -0.52,0.1 -0.86,0.66 -0.86,3 0,2 0.25,2.68 0.65,2.91 a 1,1 0 0 0 0.45,0.09 m 0,-15.7 c -7.28,0 -12.36,5.24 -12.36,12.75 0,7.51 5.08,12.75 12.36,12.75 7.28,0 12.31,-5.3 12.31,-12.81 a 16.12,16.12 0 0 0 -0.15,-2.22 11.93,11.93 0 0 0 -12.2,-10.53 z"
       fill="#ffffff"
       id="path8" />
    <path
       d="m 448.44,25.25 a 3.49,3.49 0 0 1 -3.5,-3.5 v -10.9 a 3.49,3.49 0 0 1 3.5,-3.5 h 4.85 c 5.61,0 8.95,3.38 8.95,9 a 10,10 0 0 1 -0.14,1.75 8.83,8.83 0 0 1 -1.26,3.33 8.43,8.43 0 0 1 -7.3,3.77 z"
       fill="#c33d3a"
       id="path10" />
    <path
       d="m 453.29,10.85 c 4.15,0 5.45,2.35 5.45,5.55 a 7.43,7.43 0 0 1 -0.09,1.18 5.39,5.39 0 0 1 -0.76,2 4.9,4.9 0 0 1 -4.35,2.16 h -5.1 V 10.85 h 4.85 m -0.85,8.45 h 0.4 a 1.39,1.39 0 0 0 1.35,-0.65 5.66,5.66 0 0 0 0.3,-2.35 7.38,7.38 0 0 0 -0.2,-2.1 1.45,1.45 0 0 0 -0.1,-0.25 1.39,1.39 0 0 0 -1.35,-0.65 h -0.4 v 6 m 0.85,-15.45 h -4.85 a 7,7 0 0 0 -7,7 v 10.9 a 7,7 0 0 0 7,7 h 5.11 a 11.86,11.86 0 0 0 10.25,-5.39 12.15,12.15 0 0 0 1.76,-4.63 13.74,13.74 0 0 0 0.19,-2.33 c 0,-7.63 -4.88,-12.55 -12.45,-12.55 z"
       fill="#ffffff"
       id="path12" />
    <path
       d="m 391.34,25.25 a 3.46,3.46 0 0 1 -1.12,-0.18 3.52,3.52 0 0 1 -1.13,0.18 h -3.3 a 3.5,3.5 0 0 1 -3.5,-3.5 v -10.9 a 3.5,3.5 0 0 1 3.5,-3.5 h 4.9 a 3.56,3.56 0 0 1 1.13,0.18 3.48,3.48 0 0 1 1.18,-0.18 h 3.3 a 3.5,3.5 0 0 1 3.5,3.49 v 10.91 a 3.5,3.5 0 0 1 -1,2.48 3.45,3.45 0 0 1 -2.47,1 z"
       fill="#c33d3a"
       id="path14" />
    <path
       d="m 396.25,10.85 v 10.9 h -4.91 l -2.2,-6.3 h -0.05 v 6.3 h -3.3 v -10.9 h 4.9 l 2.21,6.25 h 0.1 v -6.25 h 3.3 m 0,-7 H 393 a 7.14,7.14 0 0 1 -2.26,0 h -4.9 a 7,7 0 0 0 -7,7 v 10.9 a 7,7 0 0 0 7,7 h 3.3 a 7.08,7.08 0 0 1 2.25,0 h 4.91 a 7,7 0 0 0 7,-7 v -10.9 a 7,7 0 0 0 -7,-7 z"
       fill="#ffffff"
       id="path16" />
    <path
       d="m 409.86,25.25 a 3.56,3.56 0 0 1 -1.13,-0.18 3.46,3.46 0 0 1 -1.12,0.18 h -3.3 a 3.49,3.49 0 0 1 -3.5,-3.5 v -10.9 a 3.5,3.5 0 0 1 3.5,-3.5 h 4.91 a 3.46,3.46 0 0 1 1.12,0.18 3.52,3.52 0 0 1 1.13,-0.18 h 3.3 a 3.5,3.5 0 0 1 3.5,3.5 v 10.9 a 3.5,3.5 0 0 1 -3.5,3.5 z"
       fill="#c33d3a"
       id="path18" />
    <path
       d="m 414.76,10.85 v 10.9 h -4.9 l -0.57,-1.63 -1.63,-4.67 h -0.05 v 6.3 h -3.31 v -10.9 h 4.91 l 2.2,6.25 v 0 -6.25 h 3.3 m 0,-7 h -3.3 a 7.08,7.08 0 0 0 -1.13,0.09 7,7 0 0 0 -1.12,-0.09 h -4.9 a 7,7 0 0 0 -7,7 v 10.9 a 7,7 0 0 0 7,7 h 3.31 a 6.86,6.86 0 0 0 1.12,-0.09 7.08,7.08 0 0 0 1.13,0.09 h 4.9 a 7,7 0 0 0 7,-7 v -10.9 a 7,7 0 0 0 -7,-7 z"
       fill="#ffffff"
       id="path20" />
    <rect
       x="394.75"
       y="7.3499999"
       width="11.1"
       height="17.91"
       rx="3.5"
       fill="#c33d3a"
       id="rect22" />
    <path
       d="m 402.35,10.85 v 10.9 h -4.1 v -10.9 h 4.1 m 0,-7 h -4.1 a 7,7 0 0 0 -7,7 v 10.9 a 7,7 0 0 0 7,7 h 4.1 a 7,7 0 0 0 7,-7 v -10.9 a 7,7 0 0 0 -7,-7 z"
       fill="#ffffff"
       id="path24" />
    <path
       d="m 418.56,25.25 a 3.5,3.5 0 0 1 -3.5,-3.5 v -4.57 a 3.51,3.51 0 0 1 -2.6,-3.38 v -3 a 3.5,3.5 0 0 1 1,-2.48 3.45,3.45 0 0 1 2.47,-1 h 9.31 a 3.5,3.5 0 0 1 3.5,3.49 v 3 a 3.51,3.51 0 0 1 -1,2.47 3.55,3.55 0 0 1 -1.58,0.91 v 4.57 a 3.5,3.5 0 0 1 -3.5,3.5 z"
       fill="#c33d3a"
       id="path26" />
    <path
       d="m 425.27,10.85 v 3 h -2.6 v 8 h -4.11 V 13.8 H 416 v -3 h 9.31 m 0,-7 H 416 a 7,7 0 0 0 -7,7 v 3 a 7,7 0 0 0 2,4.95 c 0.18,0.17 0.36,0.34 0.55,0.49 v 2.51 a 7,7 0 0 0 7,7 h 4.11 a 7,7 0 0 0 7,-7 v -2.51 a 7,7 0 0 0 2.6,-5.44 v -3 a 7,7 0 0 0 -7,-7 z"
       fill="#ffffff"
       id="path28" />
    <path
       d="m 441.73,25.25 a 3.56,3.56 0 0 1 -1.13,-0.18 3.46,3.46 0 0 1 -1.12,0.18 h -3.3 a 3.49,3.49 0 0 1 -3.5,-3.5 v -10.9 a 3.49,3.49 0 0 1 3.5,-3.5 h 4.9 a 3.56,3.56 0 0 1 1.13,0.18 3.46,3.46 0 0 1 1.12,-0.18 h 3.3 a 3.49,3.49 0 0 1 3.5,3.49 v 10.91 a 3.5,3.5 0 0 1 -3.51,3.5 z"
       fill="#c33d3a"
       id="path30" />
    <path
       d="m 446.64,10.85 v 10.9 h -4.91 l -2.2,-6.3 v 0 6.3 h -3.3 v -10.9 h 4.9 l 2.2,6.25 h 0.05 v -6.25 h 3.31 m 0,-7 h -3.31 a 7.08,7.08 0 0 0 -1.13,0.09 6.86,6.86 0 0 0 -1.12,-0.09 h -4.9 a 7,7 0 0 0 -7,7 v 10.9 a 7,7 0 0 0 7,7 h 3.3 a 6.86,6.86 0 0 0 1.12,-0.09 7.08,7.08 0 0 0 1.13,0.09 h 4.9 a 7,7 0 0 0 7,-7 v -10.9 a 7,7 0 0 0 -7,-7 z"
       fill="#ffffff"
       id="path32" />
    <path
       d="m 426.52,25.25 a 3.5,3.5 0 0 1 -3.5,-3.5 v -10.9 a 3.5,3.5 0 0 1 3.5,-3.5 h 8.11 a 3.5,3.5 0 0 1 3.5,3.5 v 2.9 a 3.54,3.54 0 0 1 -0.35,1.53 v 1.9 a 3.58,3.58 0 0 1 0.45,1.72 v 2.85 a 3.5,3.5 0 0 1 -3.5,3.5 z"
       fill="#c33d3a"
       id="path34" />
    <path
       d="m 434.63,10.85 v 2.9 h -4.11 v 1.15 h 3.76 v 2.8 h -3.76 v 1.2 h 4.21 v 2.85 h -8.21 v -10.9 h 8.11 m 0,-7 h -8.11 a 7,7 0 0 0 -7,7 v 10.9 a 7,7 0 0 0 7,7 h 8.21 a 7,7 0 0 0 7,-7 V 18.9 a 7,7 0 0 0 -0.45,-2.47 v -0.49 a 7.22,7.22 0 0 0 0.35,-2.19 v -2.9 a 7,7 0 0 0 -7,-7 z"
       fill="#ffffff"
       id="path36" />
    <path
       d="m 475.56,19.51 c -4.06,0 -7,-3.1 -7,-7.36 a 8.6,8.6 0 0 1 2.67,-6.46 7.76,7.76 0 0 1 2.66,-1.62 3.35,3.35 0 0 1 0.54,-0.16 8.56,8.56 0 0 1 1,-0.25 l 0.42,-0.05 c 0.35,0 0.71,-0.09 1.08,-0.11 h 0.93 a 3.5,3.5 0 0 1 3.5,3.5 v 1.85 a 2.73,2.73 0 0 1 0,0.41 6.75,6.75 0 0 1 -5.72,10.25 z"
       fill="#c33d3a"
       id="path38" />
    <path
       d="m 477.81,7 v 1.85 h -0.7 c -1.75,0.1 -2.4,0.8 -2.66,1.65 h 0.05 a 2.31,2.31 0 0 1 1.66,-0.55 2.62,2.62 0 0 1 2.6,2.85 3.13,3.13 0 0 1 -3.2,3.21 v 0 c -2.45,0 -3.5,-1.85 -3.5,-3.86 a 5.12,5.12 0 0 1 1.5,-3.85 4.56,4.56 0 0 1 1.54,-1 l 0.29,-0.08 c 0.21,-0.06 0.41,-0.13 0.62,-0.17 h 0.22 A 6.6,6.6 0 0 1 477,7 h 0.8 m -2.25,7.26 c 0.55,0 0.9,-0.55 0.9,-1.31 0,-0.6 -0.3,-1.3 -1,-1.3 a 1.06,1.06 0 0 0 -1,0.65 1.25,1.25 0 0 0 -0.05,0.5 c 0.05,0.71 0.41,1.46 1.16,1.46 M 477.81,0 h -1.05 a 12.1,12.1 0 0 0 -1.36,0.13 c -0.18,0 -0.39,0 -0.65,0.09 a 11,11 0 0 0 -1.26,0.31 c -0.23,0.06 -0.5,0.14 -0.83,0.25 a 11.69,11.69 0 0 0 -3.85,2.37 12.12,12.12 0 0 0 -3.76,9 c 0,6.19 4.52,10.86 10.5,10.86 A 10.1,10.1 0 0 0 485.76,12.8 10.18,10.18 0 0 0 484.81,8.46 V 7 a 7,7 0 0 0 -7,-7 z"
       fill="#ffffff"
       id="path40" />
    <path
       d="m 483,19.41 a 3.51,3.51 0 0 1 -3.16,-2 h -0.44 a 3.5,3.5 0 0 1 -3.5,-3.5 v -1.56 a 3.5,3.5 0 0 1 0.44,-1.7 l 2.9,-5.2 a 3.51,3.51 0 0 1 3.06,-1.8 h 2.9 a 3.5,3.5 0 0 1 3.5,3.5 v 2.66 a 3.48,3.48 0 0 1 0.9,2.34 V 14 a 3.53,3.53 0 0 1 -0.92,2.38 3.51,3.51 0 0 1 -3.48,3.08 z"
       fill="#c33d3a"
       id="path42" />
    <path
       d="m 485.21,7.15 v 5 h 0.9 V 14 h -0.9 v 1.95 H 483 l 0.05,-0.05 v -1.99 h -3.65 v -1.56 l 2.9,-5.2 h 2.9 m -3.65,4.95 h 1.5 v -1.5 c 0,-0.55 0.05,-1.15 0.05,-1.75 h -0.05 c -0.25,0.6 -0.5,1.15 -0.8,1.75 l -0.7,1.45 v 0 m 3.66,-11.9 h -2.9 a 7,7 0 0 0 -6.11,3.59 l -2.9,5.2 a 6.94,6.94 0 0 0 -0.89,3.41 v 1.56 a 7,7 0 0 0 5.59,6.85 7,7 0 0 0 5,2.15 h 2.2 A 7,7 0 0 0 492,17.83 7,7 0 0 0 493.11,14 v -1.85 a 6.85,6.85 0 0 0 -0.9,-3.43 V 7.15 a 7,7 0 0 0 -7,-7 z"
       fill="#ffffff"
       id="path44" />
    <text
       transform="translate(470.5,96.62)"
       font-size="1.81px"
       fill="#c23435"
       font-family="ArialMT, Arial"
       style="isolation:isolate"
       id="text46">I don’t like bugs!</text>
    <path
       d="m 385.55,25.63 h 228.9 V 107 h -228.9 z"
       fill="#070308"
       id="path48" />
    <path
       d="m 431.48,55.43 c -6.1,0 -10.31,1.76 -13.11,3.74 1.2,-3.54 4.43,-6.68 7.74,-8.49 6.4,-3.52 16,-2.9 16,-2.9 V 34 c 0,0 -18.61,-1 -29.11,8.35 -10.5,9.35 -13,19.06 -13,28.9 0,7 1.65,27.4 23.81,27.4 22.16,0 23.61,-18.1 23.61,-23.27 0,-5.17 -1.9,-19.95 -15.94,-19.95 z m -6.81,30.47 c -4.27,0 -7.09,-4 -7.09,-10.24 0,-6.24 3.3,-8 6.33,-8 4.54,0 6.61,3.65 6.61,8.53 0,4.88 -1.59,9.71 -5.85,9.71 z"
       fill="#ffffff"
       id="path50" />
    <path
       d="M 497.76,70.22 H 484.62 V 34.91 H 464.38 L 444,70.22 v 13.29 h 24.3 v 14.11 h 16.32 V 83.51 h 13.14 z m -39.06,0 9.6,-17.5 v 17.5 z"
       fill="#ffffff"
       id="path52" />
    <path
       d="M 517,34.91 H 493.6 V 97.62 H 517 a 31.36,31.36 0 0 0 0,-62.71 z m 11,31.35 c 0,10.35 -6.38,18.82 -14.18,18.82 h -3.9 V 47.45 h 3.9 c 7.79,0 14.18,8.47 14.18,18.81 z"
       fill="#ffffff"
       id="path54" />
    <path
       d="m 568.62,34.91 h -23.4 v 62.71 h 23.4 a 31.36,31.36 0 0 0 0,-62.71 z m 11,31.35 c 0,10.35 -6.38,18.82 -14.18,18.82 h -3.9 V 47.45 h 3.9 c 7.79,0 14.17,8.47 14.17,18.81 z"
       fill="#ffffff"
       id="path56" />
    <path
       d="m 458.74,16.4 c 0,-3.2 -1.3,-5.55 -5.45,-5.55 h -4.85 v 10.9 h 5.1 c 3.15,0 5.2,-2.05 5.2,-5.35 z m -6.3,2.9 v -6 h 0.4 a 1.39,1.39 0 0 1 1.35,0.65 5.66,5.66 0 0 1 0.3,2.35 5.66,5.66 0 0 1 -0.3,2.35 1.39,1.39 0 0 1 -1.35,0.65 z m 12.71,2.75 c 3.6,0 5.35,-2.35 5.35,-5.75 0,-3.4 -1.8,-5.75 -5.35,-5.75 -3.55,0 -5.36,2.35 -5.36,5.75 0,3.4 1.81,5.75 5.36,5.75 z m 0,-8.8 c 0.65,0 1.1,0.4 1.1,3 0,2.6 -0.45,3 -1.1,3 -0.65,0 -1.1,-0.35 -1.1,-3 0,-2.65 0.45,-3 1.1,-3 z m -68.9,-2.4 H 393 v 6.25 h -0.05 l -2.21,-6.25 h -4.9 v 10.9 h 3.3 v -6.3 h 0.05 l 2.2,6.3 h 4.91 z m 11.36,4.6 h 0.05 l 2.2,6.3 h 4.9 v -10.9 h -3.3 v 6.25 0 l -2.2,-6.25 h -4.96 v 10.9 h 3.31 z m 31.87,0 v 0 l 2.2,6.3 h 4.91 v -10.9 h -3.31 v 6.25 h -0.05 l -2.2,-6.25 h -4.9 v 10.9 h 3.3 z m -41.23,-4.6 h 4.1 v 10.9 h -4.1 z m 20.31,10.9 h 4.11 V 13.8 h 2.6 v -3 H 416 v 3 h 2.6 z m 16.17,-2.85 h -4.21 v -1.2 h 3.76 v -2.8 h -3.76 v -1.15 h 4.11 v -2.9 h -8.11 v 10.9 h 8.21 z"
       fill="#233387"
       id="path58" />
    <path
       d="m 448.44,10.85 h 4.85 c 4.15,0 5.45,2.35 5.45,5.55 0,3.2 -2.05,5.35 -5.2,5.35 h -5.1 z m 4,8.45 h 0.4 a 1.39,1.39 0 0 0 1.35,-0.65 5.66,5.66 0 0 0 0.3,-2.35 5.66,5.66 0 0 0 -0.3,-2.35 1.39,1.39 0 0 0 -1.35,-0.65 h -0.4 z m 12.71,-8.75 c 3.55,0 5.35,2.35 5.35,5.75 0,3.4 -1.75,5.75 -5.35,5.75 -3.6,0 -5.36,-2.35 -5.36,-5.75 0,-3.4 1.76,-5.75 5.36,-5.75 z m 0,8.7 c 0.65,0 1.1,-0.3 1.1,-3 0,-2.7 -0.45,-3 -1.1,-3 -0.65,0 -1.1,0.35 -1.1,3 0,2.65 0.45,3 1.1,3 z M 393,10.85 v 6.25 h -0.05 l -2.21,-6.25 h -4.9 v 10.9 h 3.3 v -6.3 h 0.05 l 2.2,6.3 h 4.91 v -10.9 z m 18.51,0 v 6.25 0 l -2.2,-6.25 h -4.9 v 10.9 h 3.3 v -6.3 h 0.05 l 2.2,6.3 h 4.9 v -10.9 z m 31.87,0 v 6.25 h -0.05 l -2.2,-6.25 h -4.9 v 10.9 h 3.3 v -6.3 0 l 2.2,6.3 h 4.9 v -10.9 z m -41,0 v 10.9 h -4.1 v -10.9 z m 16.21,10.9 V 13.8 H 416 v -3 h 9.31 v 3 h -2.6 v 8 z m 12,-8 v 1.15 h 3.76 v 2.8 h -3.76 v 1.2 h 4.21 v 2.85 h -8.21 v -10.9 h 8.11 v 2.9 z"
       fill="#233387"
       id="path60" />
    <path
       d="m 476.16,10 a 2.32,2.32 0 0 0 -1.66,0.55 h -0.05 C 474.7,9.7 475.36,9 477.11,8.9 h 0.7 V 7 H 477 a 5.11,5.11 0 0 0 -3.46,1.3 5.12,5.12 0 0 0 -1.5,3.85 c 0,2 1.05,3.86 3.51,3.86 a 3.13,3.13 0 0 0 3.2,-3.21 2.62,2.62 0 0 0 -2.59,-2.8 z m -0.6,4.31 c -0.75,0 -1.11,-0.75 -1.16,-1.46 a 1.25,1.25 0 0 1 0.05,-0.5 1.06,1.06 0 0 1 1,-0.65 c 0.75,0 1,0.7 1,1.3 0.01,0.71 -0.34,1.26 -0.89,1.26 z m 9.65,-2.11 v -5 h -2.9 l -2.9,5.2 v 1.56 h 3.65 v 1.95 l -0.05,0.05 h 2.2 V 14 h 0.9 v -1.85 z m -2.15,-1.55 v 1.5 h -1.5 v 0 l 0.7,-1.45 c 0.3,-0.6 0.55,-1.15 0.8,-1.75 h 0.05 c 0,0.5 -0.05,1.1 -0.05,1.65 z"
       fill="#c33d3a"
       id="path62" />
    <path
       d="m 477.86,8.85 h -0.75 c -1.75,0.1 -2.4,0.8 -2.66,1.65 h 0.05 a 2.31,2.31 0 0 1 1.66,-0.55 2.62,2.62 0 0 1 2.6,2.85 3.13,3.13 0 0 1 -3.21,3.2 c -2.45,0 -3.5,-1.85 -3.5,-3.86 A 5.12,5.12 0 0 1 473.55,8.29 5.09,5.09 0 0 1 477,7 h 0.8 v 1.85 z m -2.3,5.41 c 0.55,0 0.9,-0.55 0.9,-1.31 0,-0.6 -0.3,-1.3 -1,-1.3 a 1.06,1.06 0 0 0 -1,0.65 1.25,1.25 0 0 0 -0.05,0.5 c 0.04,0.71 0.4,1.46 1.15,1.46 z m 7.5,1.6 v -1.95 h -3.65 v -1.56 l 2.9,-5.2 h 2.9 v 5 h 0.9 V 14 h -0.9 v 1.95 H 483 Z m 0,-3.76 v -1.5 c 0,-0.55 0.05,-1.15 0.05,-1.75 h -0.05 c -0.24,0.59 -0.51,1.18 -0.8,1.75 l -0.7,1.45 v 0 z"
       fill="#c33d3a"
       id="path64" />
  </g>
</svg>
