<?xml version="1.0" encoding="UTF-8" standalone="no"?>
<svg
   viewBox="0 0 208.21896 114.00037"
   version="1.1"
   id="svg114"
   sodipodi:docname="amigacdtv.svg"
   width="208.21896"
   height="114.00037"
   inkscape:version="1.1 (c68e22c387, 2021-05-23)"
   xmlns:inkscape="http://www.inkscape.org/namespaces/inkscape"
   xmlns:sodipodi="http://sodipodi.sourceforge.net/DTD/sodipodi-0.dtd"
   xmlns="http://www.w3.org/2000/svg"
   xmlns:svg="http://www.w3.org/2000/svg"
   xmlns:rdf="http://www.w3.org/1999/02/22-rdf-syntax-ns#"
   xmlns:cc="http://creativecommons.org/ns#"
   xmlns:dc="http://purl.org/dc/elements/1.1/">
  <defs
     id="defs118" />
  <sodipodi:namedview
     id="namedview116"
     pagecolor="#ffffff"
     bordercolor="#666666"
     borderopacity="1.0"
     inkscape:pageshadow="2"
     inkscape:pageopacity="0.0"
     inkscape:pagecheckerboard="0"
     showgrid="false"
     fit-margin-top="0"
     fit-margin-left="0"
     fit-margin-right="0"
     fit-margin-bottom="0"
     inkscape:zoom="1.113"
     inkscape:cx="103.77358"
     inkscape:cy="56.603774"
     inkscape:window-width="1920"
     inkscape:window-height="1138"
     inkscape:window-x="-8"
     inkscape:window-y="-8"
     inkscape:window-maximized="1"
     inkscape:current-layer="svg114" />
  <title
     id="title2">logo</title>
  <g
     id="Layer_2"
     data-name="Layer 2"
     transform="translate(-395.9025)">
    <rect
       x="419.45999"
       y="14.14"
       width="45.560001"
       height="19.559999"
       fill="#ffffff"
       id="rect4" />
    <rect
       x="412.79001"
       y="19.5"
       width="18.450001"
       height="39.529999"
       fill="#ffffff"
       id="rect6" />
    <rect
       x="435.89999"
       y="77.470001"
       width="59.330002"
       height="21.530001"
       fill="#ffffff"
       id="rect8" />
    <rect
       x="530.81"
       y="41.919998"
       width="18.48"
       height="46.32"
       fill="#ffffff"
       id="rect10" />
  </g>
  <g
     id="Layer_1"
     data-name="Layer 1"
     transform="translate(-395.9025)">
    <path
       d="m 438.72,7 c 0.9,0 1.8,0.16 2.7,0.18 a 63.62,63.62 0 0 1 8.89,1.46 58.07,58.07 0 0 1 14.08,5.55 82.89,82.89 0 0 1 7.28,4.41 c 0.81,0.58 1.59,1.22 2.42,1.78 a 75.72,75.72 0 0 1 9,8.05 c 0.21,0.21 0.4,0.52 0.72,0.52 h 0.79 a 26,26 0 0 1 7.83,1.2 11.74,11.74 0 0 1 6.43,4.63 c 1.56,2.47 1.79,5.49 1.86,8.34 v 15 a 6.83,6.83 0 0 0 0.09,1.69 47,47 0 0 1 0.73,20.57 33.21,33.21 0 0 1 -7.74,15.81 32,32 0 0 1 -16.08,9.6 40.25,40.25 0 0 1 -10.05,1.21 48.32,48.32 0 0 1 -6.48,-0.45 60.8,60.8 0 0 1 -20.19,-6.72 76.63,76.63 0 0 1 -25.73,-22.7 65.9,65.9 0 0 1 -11.62,-26.79 45.2,45.2 0 0 1 -0.71,-6.57 21.3,21.3 0 0 1 0,-3.83 35.58,35.58 0 0 1 6.57,-19.88 c 1.15,-1.3 2.17,-2.72 3.45,-3.91 a 32.25,32.25 0 0 1 10.18,-6.63 c 4.8,-1.9 10,-2.34 15.11,-2.51 h 0.44 m 31.81,97.12 a 39.68,39.68 0 0 0 5,-0.31 29.85,29.85 0 0 0 15.56,-6.6 28,28 0 0 0 8.14,-11.49 38,38 0 0 0 2.34,-14.6 49.33,49.33 0 0 0 -0.82,-7.27 c 0,1 -0.09,2 -0.18,3 -0.3,2.88 -1.08,5.9 -3.16,8 a 11.39,11.39 0 0 1 -5.85,3.36 28.78,28.78 0 0 1 -6.87,0.62 h -19.17 q 0,-24.95 0,-49.9 h 16.69 A 77.87,77.87 0 0 0 468.9,17.77 C 460.44,12.18 450.7,8.24 440.51,7.56 Q 439.33,7.5 438.14,7.5 a 38.21,38.21 0 0 0 -4.78,0.29 29.59,29.59 0 0 0 -16.91,7.56 14.05,14.05 0 0 0 -2,2.07 29,29 0 0 0 -4.62,7.3 34.6,34.6 0 0 0 -2.57,10 c -0.19,0.87 -0.07,1.77 -0.22,2.65 a 51.82,51.82 0 0 0 2.72,18.1 70.55,70.55 0 0 0 9.47,18.53 78.25,78.25 0 0 0 23.24,21.62 61.51,61.51 0 0 0 18.73,7.5 45.7,45.7 0 0 0 9.33,1 m 9.79,-65.53 h -0.7 v 30.88 h 3.82 a 3.35,3.35 0 0 0 2.52,-0.94 c 0.74,-0.94 0.65,-2.22 0.67,-3.35 0,-7.58 0,-15.16 0,-22.74 a 4.9,4.9 0 0 0 -0.74,-3.09 3.79,3.79 0 0 0 -2.27,-0.75 h -3.29 M 438.72,0 H 438 c -5.58,0.19 -11.54,0.69 -17.36,3 h -0.08 a 39.56,39.56 0 0 0 -12.35,8 32.42,32.42 0 0 0 -2.85,3.14 c -0.36,0.43 -0.69,0.84 -1,1.19 -0.14,0.16 -0.28,0.33 -0.41,0.51 a 42.25,42.25 0 0 0 -7.95,23.67 27.89,27.89 0 0 0 0,4.66 53.29,53.29 0 0 0 0.79,7.35 73.31,73.31 0 0 0 12.85,29.69 83.68,83.68 0 0 0 28.09,24.79 67.29,67.29 0 0 0 22.52,7.48 53.42,53.42 0 0 0 7.42,0.52 47.16,47.16 0 0 0 11.83,-1.46 39.24,39.24 0 0 0 19.55,-11.73 39.86,39.86 0 0 0 9.37,-19.08 53.3,53.3 0 0 0 -0.69,-23.18 c 0,-0.16 0,-0.33 0,-0.49 v -15 a 0.92,0.92 0 0 0 0,-0.16 c -0.09,-3.9 -0.51,-8 -2.91,-11.87 a 18.45,18.45 0 0 0 -10.16,-7.57 h -0.08 a 32.82,32.82 0 0 0 -8,-1.47 77.28,77.28 0 0 0 -8.3,-7.22 l -0.25,-0.19 c -0.34,-0.23 -0.73,-0.52 -1.14,-0.83 -0.41,-0.31 -0.75,-0.57 -1.14,-0.84 l -0.14,-0.1 A 87.81,87.81 0 0 0 467.69,8 65.11,65.11 0 0 0 451.92,1.81 72.78,72.78 0 0 0 442.11,0.21 h -0.53 c -0.17,0 -0.46,0 -0.76,-0.06 -0.58,0 -1.29,-0.12 -2.1,-0.12 z m -18,20.92 a 6.57,6.57 0 0 0 0.57,-0.48 22.63,22.63 0 0 1 12.92,-5.7 h 0.06 a 32.63,32.63 0 0 1 3.91,-0.23 c 0.63,0 1.29,0 2,0.05 a 51.39,51.39 0 0 1 23,7.81 7,7 0 0 0 -4.59,6.57 q 0,25 0,49.92 a 7,7 0 0 0 7,7 h 19.2 a 39.36,39.36 0 0 0 7.05,-0.51 20.4,20.4 0 0 1 -5.13,6.49 v 0 a 23,23 0 0 1 -11.91,5 34.8,34.8 0 0 1 -4.12,0.25 38.09,38.09 0 0 1 -7.9,-0.85 A 54.08,54.08 0 0 1 446.21,89.59 71.61,71.61 0 0 1 425.08,69.91 63.16,63.16 0 0 1 416.55,53.24 44.55,44.55 0 0 1 414,38 c 0.07,-0.65 0.09,-1.2 0.1,-1.63 0,-0.09 0,-0.19 0,-0.29 0,-0.1 0.07,-0.43 0.09,-0.65 a 27.34,27.34 0 0 1 2,-7.87 21.75,21.75 0 0 1 3.38,-5.39 c 0.25,-0.27 0.49,-0.55 0.74,-0.83 0.1,-0.13 0.24,-0.29 0.32,-0.38 z"
       fill="#ffffff"
       id="path13" />
    <path
       d="m 442.07,28 a 15.34,15.34 0 0 1 1.79,0.1 23.84,23.84 0 0 1 6.38,1.09 13.78,13.78 0 0 1 7.06,4.62 12.1,12.1 0 0 1 2.07,6.84 q 0,3.36 0,6.72 h -13.7 c -0.13,-1.63 0,-3.28 -0.05,-4.92 A 6.52,6.52 0 0 0 445.18,39.38 2.86,2.86 0 0 0 442.72,38 c -0.22,0 -0.45,0 -0.67,0 a 4.08,4.08 0 0 0 -2.5,0.68 3.18,3.18 0 0 0 -1.12,2.69 V 67 a 3.25,3.25 0 0 0 0.73,2.09 4.32,4.32 0 0 0 2.84,0.91 8.77,8.77 0 0 0 1,-0.06 2.84,2.84 0 0 0 2.06,-1.21 6.48,6.48 0 0 0 0.52,-3.35 c 0,-1.65 0,-3.31 0,-5 h 13.94 c -0.06,3.41 0.25,6.88 -0.5,10.24 A 10.25,10.25 0 0 1 454.53,77 c -3.3,2.1 -7.31,2.64 -11.14,2.74 a 7.56,7.56 0 0 1 -0.95,0 c -0.84,0 -1.67,-0.1 -2.51,-0.1 -3.62,-0.22 -7.41,-0.76 -10.48,-2.83 a 10.54,10.54 0 0 1 -4,-4.77 15,15 0 0 1 -1,-6.23 V 45.09 a 36.39,36.39 0 0 1 0.3,-6.52 10.46,10.46 0 0 1 4.52,-7.46 19.47,19.47 0 0 1 9.18,-2.94 c 1.21,-0.07 2.42,-0.19 3.63,-0.19 m 17.46,32.42 v 0 M 442.07,21 v 0 c -1.12,0 -2.18,0.07 -3.12,0.14 l -0.93,0.06 h -0.31 a 26.31,26.31 0 0 0 -12.39,4.11 17.5,17.5 0 0 0 -7.5,12.2 33.62,33.62 0 0 0 -0.38,6.22 v 22.09 a 22.09,22.09 0 0 0 1.58,9 17.72,17.72 0 0 0 6.57,7.85 c 4.57,3.06 9.84,3.73 13.93,4 h 0.39 c 0.21,0 0.51,0 0.83,0 0.5,0 1.06,0.06 1.7,0.06 0.64,0 1,0 1.42,-0.06 3.89,-0.12 9.48,-0.68 14.39,-3.8 a 17.23,17.23 0 0 0 7.61,-10.72 38.8,38.8 0 0 0 0.68,-9.17 c 0,-0.81 0,-1.58 0,-2.31 0,-0.11 0,-0.21 0,-0.32 a 7,7 0 0 0 -4.54,-6.51 7,7 0 0 0 4.37,-6.47 c 0,-2.26 0,-4.51 0,-6.77 v -0.25 a 18.87,18.87 0 0 0 -3.45,-10.73 20.61,20.61 0 0 0 -10.61,-7.13 30.3,30.3 0 0 0 -7.92,-1.39 21.41,21.41 0 0 0 -2.32,-0.12 z"
       fill="#ffffff"
       id="path15" />
    <path
       d="m 502.39,28.93 h 35.24 v 9.54 h -10.36 c -0.15,0 -0.27,0 -0.27,0.19 q 0,20.09 0,40.18 h -14 c 0,-13.45 0,-26.9 0,-40.34 -1.4,0 -2.8,0 -4.2,0 h -6.37 c -0.06,-2.19 0,-4.38 0,-6.57 0,-1 -0.07,-2 0.05,-3 m 0,-7 a 7,7 0 0 0 -7,6.21 19.46,19.46 0 0 0 -0.09,2.76 c 0,0.26 0,0.52 0,0.79 V 32 c 0,0.81 0,1.62 0,2.42 0,1.39 0,2.83 0,4.29 a 7,7 0 0 0 7,6.81 h 3.62 c 0,5.09 0,10.18 0,15.16 q 0,9.1 0,18.22 a 7,7 0 0 0 7,7 H 527 a 7,7 0 0 0 7,-7 q 0,-11.72 0,-23.43 c 0,-3.32 0,-6.63 0,-10 h 3.65 a 7,7 0 0 0 7,-7 v -9.53 a 7,7 0 0 0 -7,-7 h -35.26 z"
       fill="#ffffff"
       id="path17" />
    <path
       d="m 571.55,28.94 h 5.79 c -0.74,3.41 -1.33,6.86 -2,10.28 -2.58,13.2 -5.1,26.43 -7.71,39.63 h -19.17 c -3,-16.07 -6.05,-32.12 -9.06,-48.18 a 14.33,14.33 0 0 1 -0.28,-1.72 h 13.74 q 2.34,17.13 4.69,34.25 c 0.17,1.27 0.31,2.55 0.54,3.81 1.82,-12.68 3.5,-25.38 5.31,-38.06 h 8.15 m 0,-7 h -8.15 a 7,7 0 0 0 -5.27,2.38 7,7 0 0 0 -5.26,-2.38 h -13.76 a 7,7 0 0 0 -7,7.42 16,16 0 0 0 0.31,2.17 c 0,0.12 0,0.23 0.07,0.34 V 32 q 1.71,9.14 3.44,18.27 c 1.85,9.8 3.77,19.93 5.61,29.9 a 7,7 0 0 0 6.86,5.72 h 19.18 a 7,7 0 0 0 6.87,-5.64 c 1.49,-7.57 3,-15.27 4.42,-22.72 q 1.65,-8.46 3.29,-16.93 c 0.26,-1.3 0.52,-2.64 0.77,-4 0.4,-2.13 0.78,-4.14 1.22,-6.15 a 7,7 0 0 0 -6.82,-8.49 z"
       fill="#ffffff"
       id="path19" />
    <path
       d="m 567.37,87.1 a 3.77,3.77 0 0 1 2.61,1 4.53,4.53 0 0 1 1,1.77 c -0.54,0.14 -1.07,0.29 -1.62,0.41 a 1.87,1.87 0 0 0 -0.88,-1.33 2,2 0 0 0 -1.07,-0.27 3.85,3.85 0 0 0 -0.83,0.1 2.89,2.89 0 0 0 -1.58,2.6 3.53,3.53 0 0 0 0.92,2.86 2.22,2.22 0 0 0 1.5,0.54 2.67,2.67 0 0 0 0.69,-0.09 2.52,2.52 0 0 0 1.44,-1.69 c 0.53,0.21 1.05,0.44 1.58,0.64 l -0.24,0.44 a 3.75,3.75 0 0 1 -3.27,2.25 h -0.34 a 4,4 0 0 1 -2.82,-1.12 5.05,5.05 0 0 1 -1.27,-3.7 4.46,4.46 0 0 1 2.06,-3.9 4.35,4.35 0 0 1 2.12,-0.55 m 0,-7 v 0 a 11.39,11.39 0 0 0 -5.58,1.46 l -0.12,0.07 a 11.39,11.39 0 0 0 -5.48,9.84 12,12 0 0 0 3.21,8.61 0.47,0.47 0 0 0 0.1,0.1 11,11 0 0 0 7.78,3.19 c 0.25,0 0.51,0 0.76,0 a 10.7,10.7 0 0 0 9.14,-6.14 7,7 0 0 0 0.59,-5.73 6.94,6.94 0 0 0 -0.17,-3.83 11.38,11.38 0 0 0 -2.6,-4.4 c -0.09,-0.1 -0.19,-0.19 -0.28,-0.28 a 10.78,10.78 0 0 0 -7.38,-2.85 z"
       fill="#ffffff"
       id="path21" />
    <path
       d="m 521.08,87.31 h 0.9 q 0,4.43 0,8.84 h -1.62 q 0,-4.43 0,-8.85 h 0.72 m 0,-7 h -0.73 a 7,7 0 0 0 -7,7 q 0,4.44 0,8.88 a 7,7 0 0 0 6.95,7 h 1.8 a 7,7 0 0 0 6.87,-7 V 95.4 c 0,-2.71 0,-5.41 0,-8.12 a 7,7 0 0 0 -6.92,-7 z"
       fill="#ffffff"
       id="path23" />
    <path
       d="m 530.74,87.29 a 6.3,6.3 0 0 1 0.07,1.3 c 0,2.53 0,5 0,7.57 h -0.88 a 2.69,2.69 0 0 1 -0.57,0 c -1.32,-2 -2.5,-4.08 -3.84,-6.06 0.05,2 0.09,4.06 0.1,6.1 H 524 c 0,-3 0,-5.9 0,-8.85 0.47,0 0.94,0 1.42,0 1.37,2 2.58,4.15 3.94,6.17 a 7.2,7.2 0 0 0 0,-1.23 c -0.09,-1.33 0,-2.66 -0.14,-4 a 5,5 0 0 1 0.07,-1 h 0.69 0.8 m 0,-7 h -1.49 a 7.1,7.1 0 0 0 -1.91,0.26 7.3,7.3 0 0 0 -1.92,-0.27 H 524 a 7,7 0 0 0 -7,7 c 0,2.73 0,5.46 0,8.19 v 0.7 a 7,7 0 0 0 6.9,7 h 1.84 a 6.92,6.92 0 0 0 1.83,-0.28 l 0.24,0.06 a 9.15,9.15 0 0 0 2.13,0.23 h 0.88 a 7,7 0 0 0 7,-7 c 0,-1.75 0,-3.5 0,-5.26 v -2.5 a 10.38,10.38 0 0 0 -0.29,-2.82 7,7 0 0 0 -6.78,-5.27 z"
       fill="#ffffff"
       id="path25" />
    <path
       d="m 535.87,87.32 c 0.92,0 1.83,0 2.75,0 0,0.5 0,1 0,1.52 h -2.44 c 0,2.43 0,4.86 0,7.28 h -1.63 c 0,-2.43 0,-4.86 0,-7.29 h -2.43 c 0,-0.51 0,-1 0,-1.53 h 3.79 m 0,-7 h -3.8 a 7,7 0 0 0 -7,7 c 0,0.56 0,1.12 0,1.68 a 7,7 0 0 0 2.43,5.17 c 0,0.68 0,1.36 0,2 a 7,7 0 0 0 6.92,7 h 1.84 a 7,7 0 0 0 6.87,-7 c 0,-0.67 0,-1.34 0,-2 A 7,7 0 0 0 545.61,89 c 0,-0.54 0,-1.08 0,-1.61 a 7,7 0 0 0 -6.92,-7 h -2.83 z"
       fill="#ffffff"
       id="path27" />
    <path
       d="m 543.39,87.31 h 2.67 c 0,0.5 0,1 0,1.53 h -4.62 c 0,0.68 0,1.36 0,2 h 4.27 c 0,0.47 0,0.94 0,1.41 h -4.25 v 2.32 h 2.72 c 0.74,0 1.48,0 2.23,0 0,0.49 0,1 0,1.48 h -6.56 c 0,-3 0,-5.9 0,-8.85 h 3.59 m 0,-7 h -3.6 a 7,7 0 0 0 -7,7 c 0,3 0,5.93 0,8.9 a 7,7 0 0 0 7,7 h 6.63 a 7,7 0 0 0 7,-7 c 0,-0.51 0,-1 0,-1.52 a 7,7 0 0 0 -0.69,-3 v -0.59 a 7.15,7.15 0 0 0 0.36,-2 c 0,-0.6 0,-1.19 0,-1.78 a 7,7 0 0 0 -6.95,-6.93 z"
       fill="#ffffff"
       id="path29" />
    <path
       d="m 551.07,87.3 a 3.3,3.3 0 0 1 2.34,0.86 2.89,2.89 0 0 1 0.24,3.56 3.55,3.55 0 0 1 -1.21,0.89 c 0.61,1.2 1.34,2.33 1.9,3.55 h -1.81 c -0.66,-1 -1.15,-2.19 -1.77,-3.25 a 9.94,9.94 0 0 0 -1.09,0 h -0.36 c 0,1.09 0,2.19 0,3.28 h -1.71 v -8.87 c 1.13,0 2.27,0 3.4,0 h 0.07 m -1.6,1.49 h -0.17 c 0,0.91 0,1.83 0,2.75 h 0.42 a 13.29,13.29 0 0 0 1.89,-0.18 1.32,1.32 0 0 0 0.47,-2.2 2.11,2.11 0 0 0 -1.44,-0.42 c -0.39,0 -0.78,0 -1.16,0 m 1.6,-8.49 h -3.56 a 7,7 0 0 0 -6.91,7 v 8.83 a 7,7 0 0 0 6.86,7 h 2 a 6.56,6.56 0 0 0 1.41,-0.18 6.9,6.9 0 0 0 1.65,0.2 h 1.85 a 7,7 0 0 0 6.32,-9.93 v -0.06 a 10,10 0 0 0 -2.08,-9.72 l -0.25,-0.27 a 10.27,10.27 0 0 0 -7.27,-2.88 z"
       fill="#ffffff"
       id="path31" />
    <path
       d="m 559.54,87.29 a 4.83,4.83 0 0 1 0.48,1.15 c 0.85,2.59 1.77,5.14 2.61,7.72 h -1.71 c -0.25,-0.55 -0.35,-1.15 -0.56,-1.71 h -3.28 c -0.2,0.56 -0.35,1.14 -0.53,1.71 h -1.78 c 1.05,-2.94 2,-5.92 3,-8.85 h 0.88 0.87 m -2,5.67 h 2.39 c -0.37,-1.3 -0.76,-2.59 -1.16,-3.88 -0.52,1.25 -0.83,2.58 -1.23,3.88 m 2,-12.67 h -1.75 a 7,7 0 0 0 -6.58,4.62 c -0.58,1.61 -1.12,3.21 -1.63,4.76 -0.51,1.55 -0.93,2.77 -1.4,4.11 a 7,7 0 0 0 6.39,9.36 h 2 a 6.84,6.84 0 0 0 2.13,-0.34 7.1,7.1 0 0 0 2.21,0.35 h 1.69 A 7,7 0 0 0 569.29,94 c -0.46,-1.41 -0.94,-2.81 -1.41,-4.16 -0.41,-1.19 -0.82,-2.38 -1.21,-3.58 v -0.15 a 10.62,10.62 0 0 0 -1.27,-2.72 7,7 0 0 0 -5.81,-3.1 z"
       fill="#ffffff"
       id="path33" />
    <path
       d="m 578,87.32 a 6.18,6.18 0 0 1 0,1.55 h -2.39 c 0,2.43 0,4.85 0,7.28 H 574 v -7.28 h -2.4 v -1.55 h 6.4 m 0,-7 h -6.4 a 7,7 0 0 0 -7,7 v 1.61 a 7,7 0 0 0 2.4,5.17 v 2.08 a 7,7 0 0 0 6.92,7 h 2 a 7,7 0 0 0 6.82,-7.05 c 0,-0.66 0,-1.31 0,-2 a 7,7 0 0 0 2.26,-4.48 12.63,12.63 0 0 0 0,-3.42 7,7 0 0 0 -7,-5.91 z"
       fill="#ffffff"
       id="path35" />
    <path
       d="m 580,87.31 h 1 c 0,3 0,5.9 0,8.84 h -1.63 c 0,-3 0,-5.9 0,-8.85 H 580 m 0,-7 h -0.68 a 7,7 0 0 0 -7,7 c 0,2.42 0,4.85 0,7.27 v 1.63 a 7,7 0 0 0 6.92,7 h 1.83 a 7,7 0 0 0 6.88,-7 v -8.89 a 7,7 0 0 0 -7,-7 z"
       fill="#ffffff"
       id="path37" />
    <path
       d="m 587.78,87.29 c 0.54,0 1.09,0 1.64,0 -0.86,2.94 -1.69,5.9 -2.54,8.85 h -2.21 c -0.84,-3 -1.79,-5.88 -2.55,-8.85 h 1.66 c 0.74,2.27 1.26,4.62 2,6.89 l 1.53,-5.53 a 6.47,6.47 0 0 1 0.45,-1.37 m 0,-7 a 6.75,6.75 0 0 0 -2,0.3 6.94,6.94 0 0 0 -2,-0.29 h -1.66 a 7,7 0 0 0 -6.76,8.74 c 0.51,2 1.1,4 1.66,5.85 0.32,1.06 0.64,2.11 0.94,3.18 a 7,7 0 0 0 6.72,5.08 h 2.22 a 7,7 0 0 0 6.72,-5.06 c 0.39,-1.34 0.77,-2.69 1.16,-4 0.45,-1.6 0.91,-3.21 1.38,-4.81 a 7,7 0 0 0 -6.6,-9 h -1.76 z"
       fill="#ffffff"
       id="path39" />
    <path
       d="m 590.54,87.3 h 6.22 c 0,0.49 0,1 0,1.45 a 2,2 0 0 1 -0.69,0.09 h -4 c 0,0.67 0,1.34 0,2 0.57,0 1.14,0 1.71,0 h 2.54 a 9.89,9.89 0 0 1 0,1.44 c -0.57,0 -1.14,0 -1.71,0 h -2.5 a 23.42,23.42 0 0 0 0,2.37 h 1.65 1.9 1.34 c 0,0.5 0,1 0,1.51 h -6.53 c 0,-3 0,-5.9 0,-8.86 m 0,-7 a 7,7 0 0 0 -7,6.88 c 0,1.65 0,3.29 0,4.88 0,1.34 0,2.67 0,4 a 7,7 0 0 0 7,7.09 h 6.55 a 7,7 0 0 0 7,-6.77 c 0,-0.77 0,-1.47 0,-2.13 a 6.93,6.93 0 0 0 -0.66,-2.61 c 0,-0.18 0,-0.34 0,-0.5 a 7,7 0 0 0 0.42,-2.62 c 0,-0.31 0,-0.62 0,-0.93 v -0.36 a 7,7 0 0 0 -7,-6.93 h -6.27 z"
       fill="#ffffff"
       id="path41" />
    <path
       d="m 521.44,97.49 h 1.33 c 0.56,2.14 1.08,4.3 1.72,6.42 0.57,-2.14 1.12,-4.28 1.68,-6.43 h 2.4 v 8.85 H 527 c 0,-2.34 0.08,-4.68 0.13,-7 -0.68,2.31 -1.27,4.66 -1.86,7 h -1.51 c -0.6,-2.32 -1.2,-4.65 -1.84,-7 -0.12,1.13 0.1,2.26 0,3.39 0.08,1.19 0.06,2.38 0.09,3.58 h -1.63 q 0,-4.42 0,-8.85 h 1.08 m 0,-7 h -1.18 a 7,7 0 0 0 -6.9,7 c 0,3 0,5.93 0,8.9 a 7,7 0 0 0 7,7 H 522 a 6.65,6.65 0 0 0 0.89,-0.06 5.36,5.36 0 0 0 0.7,0 h 1.78 a 5.34,5.34 0 0 0 0.69,0 6.58,6.58 0 0 0 0.9,0.06 h 1.62 a 7,7 0 0 0 7,-7 V 97.5 a 7,7 0 0 0 -6.87,-7 h -2.53 a 7,7 0 0 0 -1.72,0.21 7.32,7.32 0 0 0 -1.56,-0.2 z"
       fill="#ffffff"
       id="path43" />
    <path
       d="m 532.63,97.49 c 0,1.81 0,3.63 0,5.44 a 2,2 0 0 0 0.41,1.49 1.91,1.91 0 0 0 1.41,0.51 4.05,4.05 0 0 0 0.7,-0.07 1.45,1.45 0 0 0 1.22,-1.46 c 0,-2 0,-3.93 0,-5.9 h 1.72 v 5.75 a 3.11,3.11 0 0 1 -0.81,2.27 3.83,3.83 0 0 1 -2.79,1 h -0.13 a 3.38,3.38 0 0 1 -2.77,-1.18 3,3 0 0 1 -0.65,-2.13 c 0,-1.91 0,-3.83 0,-5.74 h 1.68 m 0,-7 h -1.78 a 7,7 0 0 0 -6.9,7 c 0,1.1 0,2.2 0,3.3 v 2.59 a 9.88,9.88 0 0 0 2.29,6.54 10.31,10.31 0 0 0 8,3.67 h 0.23 a 10.76,10.76 0 0 0 7.78,-3.11 10,10 0 0 0 2.82,-7.25 v -5.68 a 7,7 0 0 0 -6.9,-7 h -1.94 a 7.17,7.17 0 0 0 -1.74,0.25 7,7 0 0 0 -1.88,-0.26 z m 0,14 z"
       fill="#ffffff"
       id="path45" />
    <path
       d="m 541.16,97.49 h 1.08 c 0,2.44 0,4.87 0,7.31 h 3.47 c 0,0.51 0,1 0,1.54 h -5.11 c 0,-3 0,-5.91 0,-8.87 h 0.54 m 0,-7 h -0.6 a 7,7 0 0 0 -6.94,7 c 0,1.23 0,2.47 0,3.71 0,1.68 0,3.42 0,5.11 a 7,7 0 0 0 7,7.08 h 5.14 a 7,7 0 0 0 7,-6.89 c 0,-0.59 0,-1.18 0,-1.76 a 7,7 0 0 0 -3.47,-5.93 v -1.3 a 7,7 0 0 0 -6.83,-7 z"
       fill="#ffffff"
       id="path47" />
    <path
       d="m 548.91,97.5 h 3.24 c 0,0.5 0,1 0,1.52 h -2.4 c 0,2.23 0,4.46 0,6.69 a 4.64,4.64 0 0 1 -0.07,0.64 h -1.63 c 0,-2.44 0,-4.88 0,-7.33 h -1.76 -0.61 c 0,-0.5 0,-1 0,-1.5 h 3.24 m 0,-7 h -3.25 a 7,7 0 0 0 -7,7.09 V 98 c 0,0.4 0,0.9 0,1.47 a 7,7 0 0 0 2.36,4.83 c 0,0.71 0,1.42 0,2.14 a 7,7 0 0 0 7,6.94 h 1.63 a 7,7 0 0 0 6.87,-5.67 10.8,10.8 0 0 0 0.2,-1.87 v -0.15 c 0,-0.46 0,-0.92 0,-1.38 a 7,7 0 0 0 2.4,-5.27 v -1.56 a 7,7 0 0 0 -7,-7 z"
       fill="#ffffff"
       id="path49" />
    <path
       d="m 554.9,97.49 h 0.62 c 0,3 0.05,5.92 0,8.87 h -1.64 c 0,-2.95 0,-5.9 0,-8.85 h 1 m 0,-7 h -1.15 a 7,7 0 0 0 -6.9,7 v 8.87 a 7,7 0 0 0 7,7 h 1.65 a 7,7 0 0 0 7,-6.81 c 0.06,-2.18 0,-4.35 0,-6.44 0,-0.87 0,-1.74 0,-2.61 a 7,7 0 0 0 -6.94,-7 z"
       fill="#ffffff"
       id="path51" />
    <path
       d="m 563.73,97.49 h 2.4 v 8.84 h -1.61 c 0,-2.34 0.06,-4.68 0.1,-7 -0.64,2.33 -1.28,4.67 -1.85,7 h -1.5 c -0.6,-2.32 -1.25,-4.63 -1.8,-7 -0.17,2.32 0.09,4.64 0.09,7 h -1.64 c 0,-2.95 0,-5.9 0,-8.86 h 2.39 c 0.51,2.13 1.16,4.22 1.62,6.36 0.24,-0.11 0.21,-0.41 0.3,-0.62 0.48,-1.92 1,-3.84 1.49,-5.75 m 0,-7 a 7,7 0 0 0 -1.72,0.21 6.64,6.64 0 0 0 -1.61,-0.2 h -2.47 a 7,7 0 0 0 -7,7 c 0,1.57 0,3.14 0,4.71 v 4.15 a 7,7 0 0 0 7,7 h 1.7 a 7.16,7.16 0 0 0 0.8,0 6,6 0 0 0 0.74,0 h 1.77 c 0.22,0 0.44,0 0.66,0 a 7,7 0 0 0 0.93,0.06 h 1.7 a 7,7 0 0 0 6.91,-7 V 97.5 a 7,7 0 0 0 -6.9,-7 h -2.5 z"
       fill="#ffffff"
       id="path53" />
    <path
       d="m 571.17,97.49 h 3.56 c 0,0.5 0,1 0,1.49 h -2.45 c -0.72,0 -1.44,0 -2.17,0 0,0.68 0,1.36 0,2 h 2.62 c 0.55,0 1.1,0 1.65,0 0,0.45 0,0.89 0,1.34 h -4.26 c 0,0.78 0,1.57 0,2.35 h 4.94 v 1.56 h -6.56 q 0,-4.42 0,-8.86 h 2.67 m 0,-7 h -2.69 a 7,7 0 0 0 -7,7 v 1 c 0,2.64 0,5.27 0,7.91 a 7,7 0 0 0 7,7 h 6.57 a 7,7 0 0 0 7,-7 c 0,-0.56 0,-1.12 0,-1.69 a 7,7 0 0 0 -0.66,-2.9 v -0.6 a 6.83,6.83 0 0 0 0.36,-2.55 c 0,-0.39 0,-0.79 0,-1.18 a 7,7 0 0 0 -7,-7 h -3.56 z"
       fill="#ffffff"
       id="path55" />
    <path
       d="m 580.06,97.49 a 4,4 0 0 1 2.81,1.06 5.21,5.21 0 0 1 1.22,4 4.27,4.27 0 0 1 -1.35,2.86 4.59,4.59 0 0 1 -3.07,0.89 h -1.79 c -0.42,0 -0.85,0 -1.27,0 0,-2.94 0,-5.88 0,-8.82 h 3.45 M 578.41,99 h -0.08 v 5.76 h 0.08 1.13 a 3.93,3.93 0 0 0 1.73,-0.3 2.28,2.28 0 0 0 1.06,-2.09 3.51,3.51 0 0 0 -0.8,-2.83 3.14,3.14 0 0 0 -2.1,-0.58 h -1 m 1.65,-8.53 h -3.54 a 7,7 0 0 0 -6.91,7 c 0,2.11 0,4.21 0,6.31 v 2.5 a 7,7 0 0 0 6.59,7 c 0.65,0 1.24,0 1.68,0 h 1.81 a 11.37,11.37 0 0 0 7.57,-2.54 11.08,11.08 0 0 0 3.78,-7.35 v -0.24 A 12.22,12.22 0 0 0 588,93.74 1.7,1.7 0 0 0 587.81,93.55 10.9,10.9 0 0 0 580.1,90.49 Z"
       fill="#ffffff"
       id="path57" />
    <path
       d="m 586.83,97.49 h 0.87 c 0,3 0,5.89 0,8.84 h -1.6 a 1.86,1.86 0 0 1 -0.09,-0.47 c 0,-2.8 0,-5.59 0,-8.39 h 0.81 m 0,-7 h -0.92 a 7,7 0 0 0 -6.89,7 q 0,3.45 0,6.92 v 1.45 c 0,0.13 0,0.25 0,0.37 a 8.73,8.73 0 0 0 0.48,2.43 7,7 0 0 0 6.6,4.68 h 1.75 a 7,7 0 0 0 6.85,-7 v -8.8 a 7,7 0 0 0 -6.84,-7 z"
       fill="#ffffff"
       id="path59" />
    <path
       d="m 592.26,97.49 h 1.85 c 1,3 2,5.91 3,8.86 h -1.74 c -0.22,-0.58 -0.35,-1.19 -0.56,-1.76 h -1.76 c -0.5,0 -1,0 -1.49,0 -0.2,0.57 -0.37,1.16 -0.57,1.74 -0.59,0 -1.18,0 -1.77,0 1,-2.94 2,-5.91 3,-8.85 m -0.26,5.64 h 2.38 c -0.38,-1.31 -0.75,-2.62 -1.18,-3.91 -0.47,1.28 -0.81,2.6 -1.2,3.91 m 0.26,-12.64 a 7,7 0 0 0 -6.61,4.68 c -0.51,1.46 -1,2.92 -1.49,4.38 -0.49,1.46 -1,3 -1.53,4.46 a 7,7 0 0 0 6.46,9.33 H 591 a 7,7 0 0 1 4.38,0 h 1.73 a 7,7 0 0 0 6.64,-9.25 c -0.42,-1.22 -0.84,-2.45 -1.25,-3.67 q -0.88,-2.58 -1.76,-5.17 a 7,7 0 0 0 -6.62,-4.77 h -1.86 z"
       fill="#ffffff"
       id="path61" />
    <path
       d="m 423.17,9.52 c 4.8,-1.9 10,-2.34 15.11,-2.51 1.06,-0.06 2.09,0.15 3.14,0.17 a 63.62,63.62 0 0 1 8.89,1.46 57.67,57.67 0 0 1 14.08,5.55 82.89,82.89 0 0 1 7.28,4.41 c 0.81,0.58 1.59,1.22 2.42,1.78 a 75.72,75.72 0 0 1 9,8.05 c 0.23,0.23 0.44,0.58 0.82,0.51 a 25.87,25.87 0 0 1 8.52,1.19 11.74,11.74 0 0 1 6.43,4.63 c 1.56,2.47 1.79,5.49 1.86,8.34 v 15 a 6.83,6.83 0 0 0 0.09,1.69 47,47 0 0 1 0.73,20.57 33.21,33.21 0 0 1 -7.74,15.81 32,32 0 0 1 -16.08,9.6 42.91,42.91 0 0 1 -16.55,0.79 60.8,60.8 0 0 1 -20.17,-6.73 76.63,76.63 0 0 1 -25.73,-22.7 65.9,65.9 0 0 1 -11.62,-26.79 45.2,45.2 0 0 1 -0.71,-6.57 21.3,21.3 0 0 1 0,-3.83 35.58,35.58 0 0 1 6.57,-19.88 c 1.15,-1.3 2.17,-2.72 3.45,-3.91 a 32.25,32.25 0 0 1 10.21,-6.63 z m 10.19,-1.73 a 29.64,29.64 0 0 0 -16.91,7.55 14.64,14.64 0 0 0 -2,2.08 29,29 0 0 0 -4.62,7.3 34.6,34.6 0 0 0 -2.57,10 c -0.19,0.87 -0.07,1.77 -0.22,2.65 a 51.82,51.82 0 0 0 2.72,18.1 70.55,70.55 0 0 0 9.47,18.53 78.25,78.25 0 0 0 23.24,21.62 61.51,61.51 0 0 0 18.73,7.5 43.6,43.6 0 0 0 14.32,0.68 29.85,29.85 0 0 0 15.56,-6.6 28,28 0 0 0 8.14,-11.49 38,38 0 0 0 2.34,-14.6 49.33,49.33 0 0 0 -0.82,-7.27 c 0,1 -0.09,2 -0.18,3 -0.3,2.88 -1.08,5.9 -3.16,8 a 11.39,11.39 0 0 1 -5.85,3.36 c -3.41,0.82 -6.94,0.57 -10.42,0.61 h -15.64 q 0,-24.95 0,-49.9 h 16.69 A 77.87,77.87 0 0 0 468.9,17.77 C 460.44,12.18 450.7,8.24 440.51,7.56 a 40.68,40.68 0 0 0 -7.15,0.23 z m 46.26,30.8 v 30.88 c 1.27,0 2.55,0 3.82,0 a 3.35,3.35 0 0 0 2.52,-0.94 c 0.74,-0.94 0.65,-2.22 0.67,-3.35 0,-7.58 0,-15.16 0,-22.74 a 4.9,4.9 0 0 0 -0.74,-3.09 3.79,3.79 0 0 0 -2.27,-0.75 c -1.34,-0.03 -2.62,0 -4,-0.01 z"
       id="path63" />
    <path
       d="m 438.44,28.17 a 28.88,28.88 0 0 1 5.42,-0.09 23.84,23.84 0 0 1 6.38,1.09 13.78,13.78 0 0 1 7.06,4.62 12.1,12.1 0 0 1 2.07,6.84 q 0,3.36 0,6.72 c -4.56,0 -9.13,0 -13.7,0 -0.13,-1.63 0,-3.28 -0.05,-4.92 a 6.52,6.52 0 0 0 -0.44,-3.07 2.86,2.86 0 0 0 -2.46,-1.36 4.74,4.74 0 0 0 -3.17,0.65 3.18,3.18 0 0 0 -1.12,2.69 V 67 a 3.25,3.25 0 0 0 0.73,2.09 5,5 0 0 0 3.87,0.83 2.84,2.84 0 0 0 2.06,-1.21 6.48,6.48 0 0 0 0.52,-3.35 c 0,-1.65 0,-3.31 0,-5 h 13.94 c -0.06,3.41 0.25,6.88 -0.5,10.24 a 10.25,10.25 0 0 1 -4.52,6.4 c -3.3,2.1 -7.31,2.64 -11.14,2.74 a 28.54,28.54 0 0 1 -3.46,0 c -3.62,-0.22 -7.41,-0.76 -10.48,-2.83 a 10.54,10.54 0 0 1 -4,-4.77 15,15 0 0 1 -1,-6.23 V 45.09 a 36.39,36.39 0 0 1 0.3,-6.52 10.46,10.46 0 0 1 4.52,-7.46 19.47,19.47 0 0 1 9.17,-2.94 z"
       id="path65" />
    <path
       d="m 502.39,28.93 c 11.74,0 23.49,0 35.24,0 v 9.54 h -10 c -0.18,0 -0.59,-0.11 -0.59,0.19 q 0,20.09 0,40.18 c -4.68,0 -9.37,0 -14,0 0,-13.45 0,-26.9 0,-40.34 -3.53,-0.06 -7,0 -10.57,0 -0.06,-2.19 0,-4.38 0,-6.57 -0.1,-1.02 -0.2,-2.01 -0.08,-3 z"
       id="path67" />
    <path
       d="m 539.12,28.94 c 4.58,0 9.16,0 13.74,0 q 2.34,17.13 4.69,34.25 c 0.17,1.27 0.31,2.55 0.54,3.81 1.82,-12.68 3.5,-25.38 5.31,-38.06 4.64,0 9.29,0 13.94,0 -0.74,3.41 -1.33,6.86 -2,10.28 -2.58,13.2 -5.1,26.43 -7.71,39.63 -6.39,0 -12.77,0 -19.15,0 -3,-16.07 -6.05,-32.12 -9.06,-48.18 a 14.33,14.33 0 0 1 -0.3,-1.73 z"
       id="path69" />
    <path
       d="m 565.25,87.65 a 4.1,4.1 0 0 1 4.73,0.43 4.53,4.53 0 0 1 1,1.77 c -0.54,0.14 -1.07,0.29 -1.62,0.41 a 1.87,1.87 0 0 0 -0.88,-1.33 2.6,2.6 0 0 0 -1.9,-0.17 2.89,2.89 0 0 0 -1.58,2.62 3.53,3.53 0 0 0 0.92,2.86 2.37,2.37 0 0 0 2.19,0.45 2.52,2.52 0 0 0 1.44,-1.69 c 0.53,0.21 1.05,0.44 1.58,0.64 l -0.24,0.44 a 3.75,3.75 0 0 1 -3.27,2.25 4,4 0 0 1 -3.16,-1.11 5.05,5.05 0 0 1 -1.27,-3.7 4.46,4.46 0 0 1 2.06,-3.87 z"
       id="path71" />
    <path
       d="M 520.36,87.31 H 522 q 0,4.43 0,8.85 h -1.62 q -0.03,-4.43 -0.02,-8.85 z"
       id="path73" />
    <path
       d="m 524,87.31 c 0.47,0 0.94,0 1.42,0 1.37,2 2.58,4.15 3.94,6.17 a 7.2,7.2 0 0 0 0,-1.23 c -0.09,-1.33 0,-2.66 -0.14,-4 a 5,5 0 0 1 0.07,-1 c 0.49,0 1,0 1.49,0 a 6.3,6.3 0 0 1 0.07,1.3 c 0,2.53 0,5 0,7.57 a 8.72,8.72 0 0 1 -1.45,0 c -1.32,-2 -2.5,-4.08 -3.84,-6.06 0.05,2 0.09,4.06 0.1,6.1 H 524 c 0,-2.95 0,-5.9 0,-8.85 z"
       id="path75" />
    <path
       d="m 532.08,87.33 c 2.18,0 4.36,0 6.54,0 0,0.5 0,1 0,1.52 h -2.44 c 0,2.43 0,4.86 0,7.28 h -1.63 c 0,-2.43 0,-4.86 0,-7.29 -0.81,0 -1.62,0 -2.43,0 -0.04,-0.49 -0.04,-1 -0.04,-1.51 z"
       id="path77" />
    <path
       d="m 539.8,87.31 c 2.09,0 4.17,0 6.26,0 0,0.5 0,1 0,1.53 h -4.62 c 0,0.68 0,1.36 0,2 1.43,0 2.85,0 4.27,0 0,0.47 0,0.94 0,1.41 -1.42,0 -2.83,0 -4.25,0 v 2.32 c 1.65,0 3.3,0 5,0 0,0.49 0,1 0,1.48 -2.19,0 -4.38,0 -6.56,0 -0.11,-2.84 -0.1,-5.79 -0.1,-8.74 z"
       id="path79" />
    <path
       d="m 547.6,87.32 c 1.13,0 2.27,0 3.4,0 a 3.36,3.36 0 0 1 2.41,0.86 2.89,2.89 0 0 1 0.24,3.56 3.55,3.55 0 0 1 -1.21,0.89 c 0.61,1.2 1.34,2.33 1.9,3.55 -0.6,0 -1.21,0 -1.81,0 -0.66,-1 -1.15,-2.19 -1.77,-3.25 a 11.78,11.78 0 0 0 -1.45,0 c 0,1.09 0,2.19 0,3.28 h -1.71 z m 1.7,1.47 c 0,0.91 0,1.83 0,2.75 a 11.87,11.87 0 0 0 2.31,-0.17 1.32,1.32 0 0 0 0.47,-2.2 c -0.78,-0.64 -1.86,-0.35 -2.78,-0.38 z"
       id="path81" />
    <path
       d="m 557.79,87.3 c 0.58,0 1.17,0 1.75,0 a 4.83,4.83 0 0 1 0.48,1.15 c 0.85,2.59 1.77,5.14 2.61,7.72 h -1.71 c -0.25,-0.55 -0.35,-1.15 -0.56,-1.71 h -3.28 c -0.2,0.56 -0.35,1.14 -0.53,1.71 -0.59,0 -1.19,0 -1.78,0 1.05,-2.96 1.96,-5.94 3.02,-8.87 z m -0.27,5.7 h 2.39 c -0.37,-1.3 -0.76,-2.59 -1.16,-3.88 -0.52,1.21 -0.83,2.54 -1.23,3.88 z"
       id="path83" />
    <path
       d="m 571.6,87.32 c 2.15,0 4.3,0 6.44,0 a 6.18,6.18 0 0 1 0,1.55 c -0.8,0 -1.6,0 -2.39,0 0,2.43 0,4.85 0,7.28 -0.57,0 -1.13,0 -1.7,0 v -7.28 c -0.79,0 -1.57,0 -2.36,0 z"
       id="path85" />
    <path
       d="M 579.36,87.31 H 581 c 0,3 0,5.9 0,8.85 h -1.63 c -0.02,-2.95 -0.03,-5.9 -0.01,-8.85 z"
       id="path87" />
    <path
       d="m 582.12,87.31 h 1.66 c 0.74,2.27 1.26,4.62 2,6.89 l 1.53,-5.53 a 6.47,6.47 0 0 1 0.45,-1.37 c 0.54,0 1.09,0 1.64,0 -0.86,2.94 -1.69,5.9 -2.54,8.85 h -2.21 c -0.82,-2.94 -1.77,-5.87 -2.53,-8.84 z"
       id="path89" />
    <path
       d="m 590.54,87.3 c 2.08,0 4.15,0 6.22,0 0,0.49 0,1 0,1.45 a 4,4 0 0 1 -1.29,0.08 h -3.38 c 0,0.67 0,1.34 0,2 1.42,0.07 2.84,0 4.25,0 a 9.89,9.89 0 0 1 0,1.44 c -1.4,0 -2.81,0 -4.21,0 a 23.42,23.42 0 0 0 0,2.37 c 1.63,-0.05 3.26,0 4.89,0 0,0.5 0,1 0,1.51 -2.18,0 -4.36,0 -6.53,0 0.06,-2.94 0,-5.89 0.05,-8.85 z"
       id="path91" />
    <path
       d="m 520.36,97.5 c 0.8,0 1.61,0 2.41,0 0.56,2.14 1.08,4.3 1.72,6.42 0.57,-2.14 1.12,-4.28 1.68,-6.43 h 2.4 v 8.85 H 527 c 0,-2.34 0.08,-4.68 0.13,-7 -0.68,2.31 -1.27,4.66 -1.86,7 h -1.51 c -0.6,-2.32 -1.2,-4.65 -1.84,-7 -0.12,1.13 0.1,2.26 0,3.39 0.08,1.19 0.06,2.38 0.09,3.58 h -1.63 q -0.03,-4.38 -0.02,-8.81 z"
       id="path93" />
    <path
       d="m 531,97.5 h 1.68 c 0,1.81 0,3.63 0,5.44 a 2,2 0 0 0 0.41,1.49 2.34,2.34 0 0 0 2.11,0.44 1.45,1.45 0 0 0 1.22,-1.46 c 0,-2 0,-3.93 0,-5.9 0.57,0 1.15,0 1.72,0 v 5.75 a 3.11,3.11 0 0 1 -0.81,2.27 3.9,3.9 0 0 1 -2.92,1 3.38,3.38 0 0 1 -2.77,-1.18 3,3 0 0 1 -0.65,-2.13 C 531,101.33 530.93,99.41 531,97.5 Z"
       id="path95" />
    <path
       d="m 540.62,97.49 h 1.62 c 0,2.44 0,4.87 0,7.31 h 3.47 c 0,0.51 0,1 0,1.54 -1.7,0 -3.4,0 -5.11,0 0.04,-2.94 0.01,-5.89 0.02,-8.85 z"
       id="path97" />
    <path
       d="m 545.67,97.5 h 6.48 c 0,0.5 0,1 0,1.52 -0.8,0 -1.6,0 -2.4,0 0,2.23 0,4.46 0,6.69 a 4.64,4.64 0 0 1 -0.07,0.64 c -0.54,0 -1.09,0 -1.63,0 0,-2.44 0,-4.88 0,-7.33 -0.79,0 -1.58,0 -2.37,0 -0.03,-0.52 0,-1.02 -0.01,-1.52 z"
       id="path99" />
    <path
       d="m 553.85,97.5 h 1.67 c 0,3 0.05,5.92 0,8.87 h -1.64 c -0.04,-2.97 -0.03,-5.92 -0.03,-8.87 z"
       id="path101" />
    <path
       d="m 557.93,97.49 h 2.39 c 0.51,2.13 1.16,4.22 1.62,6.36 0.24,-0.11 0.21,-0.41 0.3,-0.62 0.48,-1.92 1,-3.84 1.49,-5.75 h 2.4 v 8.84 h -1.61 c 0,-2.34 0.06,-4.68 0.1,-7 -0.64,2.33 -1.28,4.67 -1.85,7 h -1.5 c -0.6,-2.32 -1.25,-4.63 -1.8,-7 -0.17,2.32 0.09,4.64 0.09,7 h -1.64 c 0.01,-2.92 0,-5.87 0.01,-8.83 z"
       id="path103" />
    <path
       d="m 568.5,97.49 h 6.23 c 0,0.5 0,1 0,1.49 -1.54,0 -3.08,0 -4.62,0 0,0.68 0,1.36 0,2 1.43,0 2.86,-0.06 4.27,0 0,0.45 0,0.89 0,1.34 -1.42,0 -2.84,0 -4.26,0 0,0.78 0,1.57 0,2.35 1.64,0 3.29,0 4.94,0 v 1.56 h -6.56 q -0.01,-4.3 0,-8.74 z"
       id="path105" />
    <path
       d="M 576.61,97.5 H 580 a 4,4 0 0 1 2.86,1.06 5.21,5.21 0 0 1 1.22,4 4.27,4.27 0 0 1 -1.35,2.86 4.59,4.59 0 0 1 -3.07,0.89 c -1,0 -2,0 -3.06,0 0.01,-2.93 0.02,-5.87 0.01,-8.81 z m 1.72,1.5 c 0,1.92 0,3.84 0,5.76 a 6.78,6.78 0 0 0 2.94,-0.28 2.28,2.28 0 0 0 1.06,-2.09 3.51,3.51 0 0 0 -0.8,-2.83 C 580.63,98.83 579.41,99 578.33,99 Z"
       id="path107" />
    <path
       d="m 586,97.5 q 0.84,0 1.68,0 c 0,3 0,5.89 0,8.84 h -1.6 a 1.86,1.86 0 0 1 -0.09,-0.47 C 586,103.09 586,100.3 586,97.5 Z"
       id="path109" />
    <path
       d="m 592.26,97.49 h 1.85 c 1,3 2,5.91 3,8.86 -0.58,0 -1.16,0 -1.74,0 -0.22,-0.58 -0.35,-1.19 -0.56,-1.76 -1.09,0 -2.17,0 -3.25,0 -0.2,0.57 -0.37,1.16 -0.57,1.74 -0.59,0 -1.18,0 -1.77,0 1.05,-2.93 2,-5.9 3.04,-8.84 z m -0.26,5.64 c 0.8,0 1.59,0 2.38,0 -0.38,-1.31 -0.75,-2.62 -1.18,-3.91 -0.47,1.28 -0.81,2.6 -1.2,3.91 z"
       id="path111" />
  </g>
  <metadata
     id="metadata935">
    <rdf:RDF>
      <cc:Work
         rdf:about="">
        <dc:title>logo</dc:title>
      </cc:Work>
    </rdf:RDF>
  </metadata>
</svg>
