<?xml version="1.0" encoding="UTF-8" standalone="no"?>
<svg
   viewBox="0 0 368.78592 114"
   version="1.1"
   id="svg80"
   sodipodi:docname="amigacd32.svg"
   width="368.78592"
   height="114"
   inkscape:version="1.1 (c68e22c387, 2021-05-23)"
   xmlns:inkscape="http://www.inkscape.org/namespaces/inkscape"
   xmlns:sodipodi="http://sodipodi.sourceforge.net/DTD/sodipodi-0.dtd"
   xmlns="http://www.w3.org/2000/svg"
   xmlns:svg="http://www.w3.org/2000/svg"
   xmlns:rdf="http://www.w3.org/1999/02/22-rdf-syntax-ns#"
   xmlns:cc="http://creativecommons.org/ns#"
   xmlns:dc="http://purl.org/dc/elements/1.1/">
  <defs
     id="defs84" />
  <sodipodi:namedview
     id="namedview82"
     pagecolor="#ffffff"
     bordercolor="#666666"
     borderopacity="1.0"
     inkscape:pageshadow="2"
     inkscape:pageopacity="0.0"
     inkscape:pagecheckerboard="0"
     showgrid="false"
     fit-margin-top="0"
     fit-margin-left="0"
     fit-margin-right="0"
     fit-margin-bottom="0"
     inkscape:zoom="1.113"
     inkscape:cx="184.63612"
     inkscape:cy="56.603774"
     inkscape:window-width="1920"
     inkscape:window-height="1138"
     inkscape:window-x="-8"
     inkscape:window-y="-8"
     inkscape:window-maximized="1"
     inkscape:current-layer="svg80" />
  <title
     id="title2">logo</title>
  <g
     id="Layer_2"
     data-name="Layer 2"
     transform="translate(-315.60709)">
    <rect
       x="562.94446"
       y="44.637291"
       width="14.42857"
       height="17.65995"
       stroke-width="7"
       stroke="#ffffff"
       stroke-linecap="round"
       stroke-linejoin="round"
       fill="#ffffff"
       id="rect4" />
    <rect
       x="564.7594"
       y="72.260933"
       width="25.51841"
       height="23.37636"
       stroke-width="7"
       stroke="#ffffff"
       stroke-linecap="round"
       stroke-linejoin="round"
       fill="#ffffff"
       id="rect6" />
    <rect
       x="511.94446"
       y="76.637291"
       width="24.51569"
       height="16.88628"
       stroke-width="7"
       stroke="#ffffff"
       stroke-linecap="round"
       stroke-linejoin="round"
       fill="#ffffff"
       id="rect8" />
    <rect
       x="450.2778"
       y="12.30396"
       width="25.33333"
       height="37.666672"
       stroke-width="7"
       stroke="#ffffff"
       stroke-linecap="round"
       stroke-linejoin="round"
       fill="#ffffff"
       id="rect10" />
    <rect
       x="504.94446"
       y="15.30396"
       width="35.279041"
       height="32.96759"
       stroke-width="7"
       stroke="#ffffff"
       stroke-linecap="round"
       stroke-linejoin="round"
       fill="#ffffff"
       id="rect12" />
  </g>
  <g
     id="Layer_1"
     data-name="Layer 1"
     transform="translate(-315.60709)">
    <path
       d="m 583.92541,72.26092 a 6.13527,6.13527 0 0 1 6.06128,6.20887 v 12.40753 a 6.13672,6.13672 0 0 1 -6.06128,6.2038 h -19.166 v -24.8202 h 19.166 m 0,-7 h -19.166 a 7,7 0 0 0 -7,7 V 97.076 a 7.0044,7.0044 0 0 0 7,7.00513 h 19.166 a 13.148,13.148 0 0 0 13.06128,-13.2038 V 78.46979 A 13.15056,13.15056 0 0 0 583.92541,65.26092 Z"
       fill="#ffffff"
       id="path15" />
    <path
       d="m 361.56634,21.406 h 0.005 m -0.005,0 -0.37744,14.60607 H 346.64977 L 361.56634,21.406 m 0.002,-7.00019 q -0.15171,0 -0.30292,0.0065 a 6.9769,6.9769 0 0 0 -4.58041,1.97676 l -7e-5,8e-5 -0.003,0.0026 -0.002,0.0015 -8.8e-4,8.7e-4 -0.0105,0.01022 -14.91657,14.60609 a 7,7 0 0 0 4.89743,12.00152 h 14.53913 a 7,7 0 0 0 6.99765,-6.81916 l 0.37247,-14.4128 q 0.01,-0.18588 0.01,-0.37411 a 6.998,6.998 0 0 0 -6.76693,-6.99628 q -0.117,-0.0039 -0.23395,-0.0039 z m -0.002,14.00019 z"
       fill="#ffffff"
       id="path17" />
    <path
       d="m 580.91644,21.406 h 0.005 m -0.005,0 -0.38172,14.60607 H 565.99987 L 580.91644,21.406 m 0.002,-7.00019 q -0.151,0 -0.30181,0.0065 a 6.97526,6.97526 0 0 0 -4.58454,1.97977 l -0.001,0.0012 -10e-4,0.0012 -0.0102,0.01 -14.91657,14.60607 a 7,7 0 0 0 4.8974,12.00152 h 14.53485 a 7,7 0 0 0 6.99762,-6.81712 l 0.37665,-14.41284 q 0.01,-0.1869 0.01,-0.37611 a 6.99808,6.99808 0 0 0 -6.76837,-6.99633 q -0.11619,-0.0039 -0.23255,-0.0039 z m -0.002,14.00019 z"
       fill="#ffffff"
       id="path19" />
    <path
       d="m 322.60705,56.6604 a 3.50067,3.50067 0 0 1 -3.33887,-4.55078 l 0.36133,-1.14844 a 3.50148,3.50148 0 0 1 2.87647,-2.41894 7.38635,7.38635 0 0 0 2.67334,-0.84375 33.88517,33.88517 0 0 0 5.67285,-4.94043 l 38.2124,-37.85157 a 3.50053,3.50053 0 0 1 2.46289,-1.01318 h 1.87695 a 3.50006,3.50006 0 0 1 3.5,3.50049 l -0.004,36.6162 c 0.0147,2.47656 0.0351,3.13477 0.0435,3.30176 a 2.80765,2.80765 0 0 0 0.1504,0.87793 4.71419,4.71419 0 0 0 1.69921,0.32715 3.50014,3.50014 0 0 1 3.1211,4.53418 l -0.35791,1.14843 a 3.4995,3.4995 0 0 1 -3.34131,2.459 H 353.76672 A 3.50018,3.50018 0 0 1 350.463,52.0022 l 0.40185,-1.14844 a 3.49975,3.49975 0 0 1 3.04541,-2.334 c 1.832,-0.13575 2.72266,-0.2334 3.13965,-0.28907 a 3.53488,3.53488 0 0 0 0.30469,-0.43652 8.54764,8.54764 0 0 0 0.41113,-3.37207 l 0.0215,-2.21094 h -12.4087 l -2.36962,2.418 -3.78565,3.73145 c -0.0381,0.043 -0.0747,0.08593 -0.11035,0.127 0.144,0.01074 0.30176,0.02051 0.47314,0.02734 a 3.49989,3.49989 0 0 1 3.35254,3.32813 l 0.0557,1.14844 a 3.50037,3.50037 0 0 1 -3.4961,3.66894 z m 35.17139,-24.1484 0.0664,-2.56347 -2.61816,2.56347 z"
       fill="#dc2b27"
       id="path21" />
    <path
       d="m 373.40435,7.39331 h 0.005 m -0.005,0 -0.004,36.617 q 0.0175,2.86962 0.0475,3.47088 a 4.53565,4.53565 0 0 0 1.29675,3.32021 6.35879,6.35879 0 0 0 3.82861,1.20867 l -0.35784,1.14868 h -24.44861 l 0.402,-1.14868 a 27.83891,27.83891 0 0 0 4.15075,-0.46466 4.43352,4.43352 0 0 0 2.03571,-1.94916 10.911,10.911 0 0 0 0.91046,-5.15033 l 0.0554,-5.73449 h -17.4125 l -3.39911,3.46777 -3.82916,3.77319 a 10.36056,10.36056 0 0 0 -1.59442,2.24281 3.096,3.096 0 0 0 -0.34192,1.53851 2.00662,2.00662 0 0 0 1.1369,1.49114 7.5881,7.5881 0 0 0 3.56147,0.7873 l 0.0559,1.14862 h -16.89111 l 0.36151,-1.14862 a 10.81935,10.81935 0 0 0 3.93653,-1.26874 37.66834,37.66834 0 0 0 6.42767,-5.51673 l 38.1947,-37.83337 h 1.87689 m -26.75458,28.61877 h 14.53913 l 0.37744,-14.60607 -14.91657,14.60607 M 373.40936,0.39331 h -1.8819 a 7,7 0 0 0 -4.92618,2.02678 l -38.1947,37.83337 a 32.7012,32.7012 0 0 1 -5.00632,4.42924 4.07323,4.07323 0 0 1 -1.35925,0.39118 7,7 0 0 0 -5.74954,4.83673 L 315.93,51.05923 a 7,7 0 0 0 6.67709,9.10154 h 16.89111 a 7,7 0 0 0 6.99173,-7.34036 L 346.434,51.6718 a 6.97575,6.97575 0 0 0 -1.51086,-4.01437 l 0.49948,-0.49218 q 0.0433,-0.04266 0.0858,-0.08606 l 1.3407,-1.36776 h 4.2651 a 6.99876,6.99876 0 0 0 -3.55249,3.98616 l -0.402,1.14869 a 7,7 0 0 0 6.607,9.31247 h 24.44861 a 7,7 0 0 0 6.68322,-4.918 l 0.35782,-1.14868 a 7.00011,7.00011 0 0 0 -4.84659,-8.83683 c -0.003,-0.35881 -0.007,-0.784 -0.01,-1.28758 l 0.004,-36.3847 c 0.002,-0.06307 0.003,-0.12616 0.003,-0.18964 a 6.99786,6.99786 0 0 0 -6.9975,-7 z m -0.005,14 z"
       fill="#ffffff"
       id="path23" />
    <path
       d="m 410.52844,56.6897 a 3.5,3.5 0 0 1 -3.44141,-2.86328 l -4.43164,-23.93457 -5.09228,16.30468 a 6.40809,6.40809 0 0 0 -0.35987,1.79395 c 0.0161,0.01269 0.0596,0.04394 0.0596,0.04394 a 6.84134,6.84134 0 0 0 3.07276,0.50782 3.49874,3.49874 0 0 1 3.23925,4.53906 l -0.35791,1.14844 a 3.49947,3.49947 0 0 1 -3.3413,2.459 h -18.66749 a 3.5004,3.5004 0 0 1 -3.37255,-4.43652 l 0.31884,-1.14844 a 3.49961,3.49961 0 0 1 3.26758,-2.56152 7.44545,7.44545 0 0 0 3.42334,-0.64649 6.504,6.504 0 0 0 2.75293,-3.80078 L 397.3341,13.45 c -0.0903,-0.03955 -0.16064,-0.06592 -0.21094,-0.082 a 13.66079,13.66079 0 0 0 -3.61181,-0.28711 3.49974,3.49974 0 0 1 -3.27051,-4.74609 l 0.4375,-1.14844 a 3.49969,3.49969 0 0 1 3.27051,-2.25391 h 20.15039 a 3.49963,3.49963 0 0 1 3.44043,2.85791 l 4.37256,23.42578 20.54736,-25.0074 a 3.49793,3.49793 0 0 1 2.7041,-1.27832 h 19.8584 a 3.50025,3.50025 0 0 1 3.26367,4.76465 l -0.44531,1.14892 a 3.50025,3.50025 0 0 1 -3.26367,2.23536 c -2.62159,0 -3.74219,0.49316 -4.17676,0.78711 -0.24316,0.165 -1.11133,0.91943 -1.9707,3.645 l -8.95948,28.68409 a 18.35566,18.35566 0 0 0 -0.55517,2.1123 16.671,16.671 0 0 0 2.78955,0.23145 3.49931,3.49931 0 0 1 3.30859,4.43261 l -0.31787,1.14844 a 3.49958,3.49958 0 0 1 -3.373,2.56641 h -28.1792 a 3.50055,3.50055 0 0 1 -3.26708,-4.75586 l 0.4414,-1.14844 a 3.50129,3.50129 0 0 1 3.26709,-2.24414 c 3.15186,0 4.34229,-0.56348 4.70752,-0.80566 0.24951,-0.165 1.13184,-0.918 1.98779,-3.63184 L 433.985,32.23364 414.98449,55.40845 a 3.49794,3.49794 0 0 1 -2.70654,1.28125 z"
       fill="#dc2b27"
       id="path25" />
    <path
       d="m 465.02191,8.43054 h 0.005 m -0.005,0 -0.44526,1.14862 a 11.0236,11.0236 0 0 0 -6.13763,1.38831 q -2.05041,1.3894 -3.34772,5.49133 l -8.96209,28.69305 a 12.89023,12.89023 0 0 0 -0.795,4.07953 2.39394,2.39394 0 0 0 1.34815,1.98785 q 1.28861,0.75147 4.9574,0.81886 l -0.31806,1.14862 h -28.17907 l 0.44153,-1.14862 q 4.54357,0 6.64142,-1.38836 2.09318,-1.38934 3.39148,-5.49635 l 9.0741,-29.05951 -30.41327,37.0954 h -1.7497 l -7.00274,-37.82312 -9.3031,29.78723 a 9.231,9.231 0 0 0 -0.51355,3.07745 3.343,3.343 0 0 0 1.57055,2.68762 9.58776,9.58776 0 0 0 4.95435,1.12171 l -0.35816,1.14862 h -18.66729 l 0.31884,-1.14862 a 10.77726,10.77726 0 0 0 5.10956,-1.13746 9.94686,9.94686 0 0 0 4.29785,-5.75085 L 401.459,12.02608 a 10.4425,10.4425 0 0 0 -3.24438,-1.98377 16.90429,16.90429 0 0 0 -4.70343,-0.4615 l 0.43762,-1.14862 h 20.15057 L 419.85,39.24072 445.16375,8.43054 h 19.85816 m 0.005,-7 H 445.16375 A 7,7 0 0 0 439.75512,3.9868 L 423.97546,23.19273 420.98059,7.1478 a 7,7 0 0 0 -6.88117,-5.71561 h -20.15057 a 7,7 0 0 0 -6.54129,4.50769 l -0.43763,1.14862 a 7.00012,7.00012 0 0 0 5.7128,9.44319 l -8.41961,26.50056 a 3.19516,3.19516 0 0 1 -1.11792,1.79548 7.68157,7.68157 0 0 1 -1.827,0.21554 7,7 0 0 0 -6.536,5.1246 l -0.31885,1.14862 a 7,7 0 0 0 6.745,8.87229 h 18.66729 a 6.999,6.999 0 0 0 5.32615,-2.45717 6.99561,6.99561 0 0 0 5.3265,2.45766 h 1.7497 a 7,7 0 0 0 5.41321,-2.56187 l 0.0203,-0.02465 a 6.99977,6.99977 0 0 0 5.43127,2.584 h 28.17908 a 7.00007,7.00007 0 0 0 6.74616,-5.132 l 0.318,-1.14862 a 7.00012,7.00012 0 0 0 -4.96,-8.63638 l 8.347,-26.72395 a 9.22525,9.22525 0 0 1 0.73,-1.78208 9.20329,9.20329 0 0 1 2.07373,-0.18454 7,7 0 0 0 6.5268,-4.46994 l 0.36249,-0.93518 a 7.003,7.003 0 0 0 -6.439,-9.7435 z m -0.005,14 z m -63.46985,29.73482 0.2333,-0.747 0.15418,0.83275 q -0.19225,-0.04832 -0.38748,-0.08575 z"
       fill="#ffffff"
       id="path27" />
    <path
       d="m 414.09924,11.93237 a 3.50024,3.50024 0 1 1 0.008,0 z"
       fill="#dc2b27"
       id="path29" />
    <path
       d="m 414.09912,8.43054 0.008,0.00165 h -0.008 l -3e-4,-0.00165 M 414.106,1.432 a 7.004,7.004 0 0 0 -6.88507,8.29871 l 3.1e-4,0.00163 A 7.0053,7.0053 0 1 0 414.106,1.432 Z"
       fill="#ffffff"
       id="path31" />
    <path
       d="m 457.4049,56.66138 a 3.50018,3.50018 0 0 1 -3.30371,-4.65625 l 0.40186,-1.14844 a 3.50077,3.50077 0 0 1 3.30371,-2.34375 c 2.90478,0 3.90381,-0.52246 4.14062,-0.68359 0.0317,-0.02149 0.89551,-0.63575 1.88233,-3.77442 l 8.94482,-28.64062 a 17.41283,17.41283 0 0 0 0.51416,-2.01612 27.48824,27.48824 0 0 0 -3.4956,-0.35254 3.49979,3.49979 0 0 1 -3.11817,-4.65332 l 0.40283,-1.14892 a 3.49937,3.49937 0 0 1 3.30274,-2.3418 h 27.59863 a 3.50047,3.50047 0 0 1 3.22461,4.86133 l -0.48486,1.14844 a 3.50034,3.50034 0 0 1 -3.22461,2.13867 c -2.3916,0 -3.356,0.49365 -3.65967,0.70557 -0.10107,0.07031 -0.94727,0.72656 -1.856,3.72021 l -8.95508,28.67383 c -0.30029,0.94824 -0.48291,1.61621 -0.59375,2.07617 a 18.54681,18.54681 0 0 0 3.36231,0.28711 3.50091,3.50091 0 0 1 3.28369,4.55078 l -0.36133,1.14844 a 3.50008,3.50008 0 0 1 -3.33886,2.44922 z"
       fill="#dc2b27"
       id="path33" />
    <path
       d="m 497.97918,8.40149 h 0.005 m -0.005,0 -0.48474,1.14868 a 9.89312,9.89312 0 0 0 -5.66431,1.33643 q -1.91454,1.3298 -3.20062,5.57269 l -8.94684,28.64728 a 15.07943,15.07943 0 0 0 -0.92218,4.103 2.1944,2.1944 0 0 0 1.26111,1.86877 q 1.54358,0.8649 5.71521,0.93434 l -0.36133,1.14868 h -27.97039 l 0.40142,-1.14868 q 4.21078,0 6.102,-1.284 1.8901,-1.28322 3.26013,-5.6236 l 8.94684,-28.64728 a 12.9859,12.9859 0 0 0 0.75525,-4.03979 2.30393,2.30393 0 0 0 -1.26416,-1.93237 c -0.7995,-0.46943 -2.68,-0.77918 -5.62866,-0.93494 l 10e-4,-4.9e-4 0.40142,-1.14868 h 27.59888 m 0.005,-7 H 470.3803 a 7,7 0 0 0 -6.60809,4.69061 l -0.37958,1.08612 a 7.00057,7.00057 0 0 0 5.39234,9.27034 l -8.298,26.5697 a 12.988,12.988 0 0 1 -0.72027,1.86472 12.28818,12.28818 0 0 1 -1.96015,0.12966 6.99994,6.99994 0 0 0 -6.60809,4.69068 L 450.797,50.852 a 7,7 0 0 0 6.6081,9.30933 h 27.97039 a 7,7 0 0 0 6.67743,-4.89957 l 0.36133,-1.14867 a 7.00016,7.00016 0 0 0 -5.40521,-8.98394 l 8.30218,-26.58307 0.0164,-0.05321 a 11.86867,11.86867 0 0 1 0.69721,-1.83867 8.70248,8.70248 0 0 1 1.4696,-0.104 7,7 0 0 0 6.44928,-4.27843 l 0.398,-0.94311 a 7.00247,7.00247 0 0 0 -6.35748,-9.92714 z m -0.005,14 z"
       fill="#ffffff"
       id="path35" />
    <path
       d="m 541.95812,56.6604 a 3.501,3.501 0 0 1 -3.3413,-4.543 l 0.35839,-1.14844 a 3.50222,3.50222 0 0 1 2.87989,-2.42675 7.35025,7.35025 0 0 0 2.66894,-0.8418 33.91161,33.91161 0 0 0 5.68213,-4.94336 L 588.4176,4.90649 a 3.50051,3.50051 0 0 1 2.46289,-1.01318 h 1.87695 a 3.50006,3.50006 0 0 1 3.5,3.501 l -0.008,36.6167 c 0.006,0.67578 0.0239,2.82617 0.0474,3.29589 a 2.78993,2.78993 0 0 0 0.1499,0.88282 4.69574,4.69574 0 0 0 1.6958,0.32715 3.50041,3.50041 0 0 1 3.1211,4.5332 l -0.35742,1.14844 a 3.50007,3.50007 0 0 1 -3.3418,2.46 h -24.44873 a 3.5,3.5 0 0 1 -3.30029,-4.666 l 0.40576,-1.14844 a 3.5,3.5 0 0 1 3.0415,-2.32421 c 1.82813,-0.13575 2.71875,-0.2334 3.1377,-0.28907 a 3.37541,3.37541 0 0 0 0.29736,-0.42773 8.43452,8.43452 0 0 0 0.4209,-3.38574 l 0.02,-2.207 -12.40918,10e-4 -2.37109,2.418 -3.78516,3.73145 c -0.0381,0.043 -0.0747,0.08593 -0.11035,0.127 0.14453,0.01074 0.30176,0.02051 0.47363,0.02734 a 3.49957,3.49957 0 0 1 3.35254,3.32617 l 0.0562,1.14844 a 3.49894,3.49894 0 0 1 -3.4956,3.6709 z m 35.167,-24.14844 0.0669,-2.56054 -2.61523,2.56058 z"
       fill="#dc2b27"
       id="path37" />
    <path
       d="m 592.75744,7.39331 h 0.005 m -0.005,0 -0.008,36.617 q 0.0238,2.86962 0.0515,3.47088 a 4.523,4.523 0 0 0 1.29567,3.32021 6.348,6.348 0 0 0 3.82507,1.20867 l -0.35754,1.14868 H 573.1159 l 0.40588,-1.14868 a 27.93543,27.93543 0 0 0 4.15076,-0.46466 4.42328,4.42328 0 0 0 2.03113,-1.94916 q 0.88933,-1.4848 0.915,-5.15033 l 0.0515,-5.73553 -6.1e-4,0.001 h -17.41024 l -3.39959,3.46777 -3.82911,3.77319 a 10.499,10.499 0 0 0 -1.598,2.24281 3.08784,3.08784 0 0 0 -0.33844,1.53851 2.00606,2.00606 0 0 0 1.13745,1.49114 7.57061,7.57061 0 0 0 3.562,0.7873 l 0.056,1.14862 h -16.89127 l 0.35821,-1.14862 a 10.77512,10.77512 0 0 0 3.93653,-1.26874 37.75165,37.75165 0 0 0 6.43274,-5.51673 l 38.1947,-37.83337 h 1.87689 m -26.75757,28.61881 h 14.53485 l 0.38172,-14.60607 -14.91657,14.60607 M 592.76245,0.39331 h -1.8819 a 7,7 0 0 0 -4.92615,2.02678 l -38.1947,37.83337 a 32.64932,32.64932 0 0 1 -5.0152,4.43157 4.03632,4.03632 0 0 1 -1.353,0.38852 7,7 0 0 0 -5.75744,4.85453 l -0.35822,1.14862 a 7,7 0 0 0 6.68256,9.08407 h 16.89117 a 7,7 0 0 0 6.9917,-7.3407 l -0.056,-1.14861 A 6.97577,6.97577 0 0 0 564.274,47.6569 l 0.499,-0.49169 q 0.0431,-0.04248 0.0854,-0.08566 l 1.34125,-1.36812 h 4.2677 a 6.99906,6.99906 0 0 0 -3.54565,3.96651 l -0.40589,1.14868 a 7,7 0 0 0 6.6001,9.33213 h 24.44867 a 7,7 0 0 0 6.68372,-4.91961 l 0.35754,-1.14869 a 7.00016,7.00016 0 0 0 -4.84412,-8.83441 c -0.004,-0.3556 -0.008,-0.77641 -0.0119,-1.27385 l 0.008,-36.39857 c 0.002,-0.06331 0.003,-0.1266 0.003,-0.19031 a 6.99787,6.99787 0 0 0 -6.99749,-7 z m -0.005,14 z"
       fill="#ffffff"
       id="path39" />
    <path
       d="M 520.56262,57.68286 A 39.51121,39.51121 0 0 1 506.18615,55.29907 25.55559,25.55559 0 0 1 495.5216,47.44263 21.39722,21.39722 0 0 1 490.69934,34.8313 c -0.48877,-9.80469 4.52392,-17.90088 14.89892,-24.06592 7.291,-4.28711 15.65137,-6.52392 26.32471,-7.04687 q 0.0857,-0.0044 0.17139,-0.0044 c 0.26513,0 0.67431,-0.0249 1.21044,-0.05371 1.18262,-0.064 2.96973,-0.16016 5.15137,-0.16016 3.25,0 6.49268,0.126 10.49707,0.4087 a 4.75044,4.75044 0 0 1 2.95508,1.17334 c 0.0654,0.05224 0.12939,0.10693 0.19092,0.16406 a 5.98919,5.98919 0 0 1 1.63281,3.85644 3.49962,3.49962 0 0 1 -0.0654,1.06983 l -2.68408,12.29052 a 3.4999,3.4999 0 0 1 -3.41943,2.75293 h -1.45069 a 3.4998,3.4998 0 0 1 -3.48144,-3.13964 l -0.084,-0.82813 c -0.3208,-3.17725 -0.54736,-5.01123 -1.46924,-5.75635 l -0.16211,-0.13134 c -1.97509,-1.60059 -2.38574,-1.9336 -4.95605,-1.9336 a 24.47342,24.47342 0 0 0 -11.27246,2.99512 c -4.87793,2.78662 -8.25293,5.81055 -10.03027,8.98535 -2.53711,4.542 -3.67286,8.71875 -3.4712,12.76856 0.17334,3.41406 1.22071,5.89062 3.20313,7.56835 a 10.6116,10.6116 0 0 0 7.12305,2.64747 12.07457,12.07457 0 0 0 2.60058,-0.33789 l 3.11231,-9.9795 c 0.30468,-0.96875 0.48291,-1.627 0.58789,-2.06347 a 10.63441,10.63441 0 0 0 -2.335,-0.19727 3.49953,3.49953 0 0 1 -3.37647,-4.4209 l 0.34912,-1.28027 a 3.5,3.5 0 0 1 3.37647,-2.5791 h 24.26513 a 3.50012,3.50012 0 0 1 3.40186,4.32422 l -0.31006,1.28027 a 3.50167,3.50167 0 0 1 -3.229,2.67187 5.863,5.863 0 0 0 -2.0459,0.33887 0.70166,0.70166 0 0 0 -0.30762,0.23242 22.85708,22.85708 0 0 0 -0.78662,2.52149 c -0.0103,0.03906 -4.19287,13.42969 -4.19287,13.42969 a 3.50045,3.50045 0 0 1 -2.24951,2.28125 63.41306,63.41306 0 0 1 -19.80952,3.06933 z"
       fill="#dc2b27"
       id="path41" />
    <path
       d="m 538.45611,7 c 2.70795,0 5.84241,0.08673 10.382,0.40924 a 0.3013,0.3013 0 0 1 0.0329,-0.0014 1.30861,1.30861 0 0 1 0.85364,0.41491 l 0.002,-0.00293 a 3.40306,3.40306 0 0 1 0.52008,1.60614 l -2.684,12.29053 h -1.45093 c -0.42877,-4.14319 -0.5802,-7.12494 -2.83423,-8.9469 -2.25043,-1.82141 -3.41534,-2.84283 -7.3183,-2.84283 a 28.035,28.035 0 0 0 -13.00806,3.45563 c -3.904,2.23059 -8.74841,5.66937 -11.349,10.31585 -2.596,4.64746 -4.16755,9.53211 -3.9126,14.65186 q 0.334,6.5895 4.43732,10.06653 a 14.1023,14.1023 0 0 0 9.38452,3.47491 18.84707,18.84707 0 0 0 5.36914,-0.95831 l 3.68512,-11.8172 a 14.93626,14.93626 0 0 0 0.89062,-3.8963 2.59382,2.59382 0 0 0 -1.41534,-2.06366 9.12488,9.12488 0 0 0 -4.564,-0.84229 l 0.34924,-1.28045 h 24.26543 l -0.31043,1.28045 a 9.18177,9.18177 0 0 0 -3.36346,0.66773 4.142,4.142 0 0 0 -1.853,1.654 17.80582,17.80582 0 0 0 -1.12524,3.33954 l -4.15888,13.31342 a 59.66108,59.66108 0 0 1 -18.7182,2.89477 35.89363,35.89363 0 0 1 -13.09967,-2.14308 21.99165,21.99165 0 0 1 -9.21661,-6.79412 17.88494,17.88494 0 0 1 -4.05152,-10.5907 q -0.63171,-12.66448 13.19129,-20.8811 c 7.22162,-4.24646 15.36438,-6.102 24.70819,-6.56 0.88659,0 3.17315,-0.21423 6.36157,-0.21423 m 0,-7 c -2.27643,0 -4.1203,0.09956 -5.34051,0.16542 -0.44617,0.02409 -0.79322,0.0466 -1.02857,0.04884 -0.11432,0 -0.22107,0.00277 -0.3352,0.00837 -11.2605,0.552 -20.13025,2.9407 -27.91364,7.5175 -14.44922,8.58577 -17.01852,19.56365 -16.63449,27.26392 a 24.83232,24.83232 0 0 0 5.5968,14.63974 28.99518,28.99518 0 0 0 12.10224,8.91128 42.97468,42.97468 0 0 0 15.66009,2.62815 66.92045,66.92045 0 0 0 20.9007,-3.2437 6.99988,6.99988 0 0 0 4.49908,-4.56387 l 4.15888,-13.31342 q 0.0359,-0.11477 0.0677,-0.23073 c 0.0541,-0.19685 0.10444,-0.37639 0.151,-0.54 a 7.00022,7.00022 0 0 0 6.24432,-5.32843 l 0.3109,-1.28046 A 7.00014,7.00014 0 0 0 553.72081,25.04732 6.99433,6.99433 0 0 0 554.402,23.21 l 2.684,-12.29051 a 7.00049,7.00049 0 0 0 0.13129,-2.13982 9.39589,9.39589 0 0 0 -2.74622,-6.10711 Q 554.30563,2.5201 554.13178,2.37934 A 8.24517,8.24517 0 0 0 549.12451,0.412 C 545.06567,0.12721 541.76739,0 538.45611,0 Z m -17.02341,44.89118 a 7.15,7.15 0 0 1 -4.77984,-1.81493 c -0.77051,-0.65226 -1.80988,-1.88573 -1.9718,-5.0805 -0.16773,-3.36785 0.82421,-6.93 3.03277,-10.88387 1.43884,-2.57077 4.45185,-5.21843 8.71045,-7.65164 a 21.025,21.025 0 0 1 9.5354,-2.53349 5.09085,5.09085 0 0 1 1.38349,0.11122 12.21954,12.21954 0 0 1 1.22058,0.9214 29.48,29.48 0 0 1 0.5003,3.639 l 0.0853,0.83872 a 7.00737,7.00737 0 0 0 0.3562,1.59627 h -13.679 a 7,7 0 0 0 -6.75329,5.158 l -0.34924,1.28045 a 7,7 0 0 0 4.558,8.48886 l -1.84943,5.9305 z"
       fill="#ffffff"
       id="path43" />
    <path
       d="m 512.6051,110.45923 a 14.55936,14.55936 0 0 1 -14.41651,-14.666 v -22.165 c -0.002,-0.05468 -0.004,-0.11035 -0.004,-0.165 a 14.55935,14.55935 0 0 1 14.4165,-14.666 h 22.9624 a 14.55936,14.55936 0 0 1 14.41651,14.666 l -0.004,5.71192 a 3.50007,3.50007 0 0 1 -3.5,3.49805 h -10.83008 a 3.50018,3.50018 0 0 1 -3.5,-3.5 v -1.15635 a 1.14077,1.14077 0 0 0 -1.1914,-1.29981 h -13.90918 a 1.13943,1.13943 0 0 0 -1.187,1.29981 V 92.2356 a 1.1387,1.1387 0 0 0 1.187,1.29882 h 14.88086 a 1.14,1.14 0 0 0 1.1914,-1.29882 v -2.14747 a 3.50018,3.50018 0 0 1 3.5,-3.5 h 10.83008 a 3.49976,3.49976 0 0 1 3.5,3.498 l 0.003,5.70508 a 14.55979,14.55979 0 0 1 -14.4165,14.668 z"
       fill="#231f20"
       id="path45" />
    <path
       d="M 535.56359,62.29724 A 11.04767,11.04767 0 0 1 546.48,73.463 l -0.004,5.71014 h -10.8297 v -1.1568 a 4.60229,4.60229 0 0 0 -4.69178,-4.79913 h -13.90887 a 4.60038,4.60038 0 0 0 -4.6872,4.79913 v 14.2193 a 4.6001,4.6001 0 0 0 4.6872,4.79914 h 14.88092 a 4.60185,4.60185 0 0 0 4.69122,-4.79914 V 90.0885 h 10.8299 l 0.003,5.705 a 11.04634,11.04634 0 0 1 -10.91644,11.16577 H 512.605 A 11.04764,11.04764 0 0 1 501.68855,95.7935 V 73.462 l -0.004,10e-4 A 11.047,11.047 0 0 1 512.601,62.29724 h 22.96258 m 0,-7 H 512.601 A 18.06285,18.06285 0 0 0 494.68456,73.463 q 0,0.11817 0.004,0.23574 v 22.09478 a 18.06285,18.06285 0 0 0 17.91644,18.16577 h 23.9295 a 18.06284,18.06284 0 0 0 17.91644,-18.16577 l -0.003,-5.709 a 6.99356,6.99356 0 0 0 -3.14594,-5.84045 6.98023,6.98023 0 0 0 2.17444,-5.0663 l 0.004,-5.71014 A 18.06384,18.06384 0 0 0 535.56361,55.29722 Z m -16.20514,24.92 h 9.36518 a 7.00173,7.00173 0 0 0 3.0686,4.80035 6.97939,6.97939 0 0 0 -2.17425,5.01722 h -10.25952 v -9.81759 z"
       fill="#ffffff"
       id="path47" />
    <path
       d="m 554.087,110.50024 a 3.50017,3.50017 0 0 1 -3.5,-3.5 V 62.33716 a 3.50017,3.50017 0 0 1 3.5,-3.5 h 34.84619 a 15.73312,15.73312 0 0 1 15.38819,15.6582 V 94.842 a 15.73311,15.73311 0 0 1 -15.38819,15.6582 z M 583.92541,93.5813 a 2.6384,2.6384 0 0 0 2.561,-2.7041 V 78.47 a 2.64089,2.64089 0 0 0 -2.561,-2.709 h -15.666 v 17.8203 z"
       fill="#231f20"
       id="path49" />
    <path
       d="m 588.93322,62.33692 a 12.16362,12.16362 0 0 1 11.88843,12.1582 V 94.84186 A 12.16362,12.16362 0 0 1 588.93322,107 h -34.846 V 62.33692 h 34.846 m -24.17383,34.7442 h 19.166 a 6.13672,6.13672 0 0 0 6.06128,-6.2038 V 78.46978 a 6.13526,6.13526 0 0 0 -6.06128,-6.20886 h -19.166 v 24.8202 m 24.17383,-41.7442 h -34.846 a 7,7 0 0 0 -7,7 V 107 a 7,7 0 0 0 7,7 h 34.846 A 19.04628,19.04628 0 0 0 607.82165,94.84186 V 74.49512 a 19.04631,19.04631 0 0 0 -18.88843,-19.1582 z m -17.17383,23.924 h 11.2273 v 10.8202 h -11.2273 z"
       fill="#ffffff"
       id="path51" />
    <path
       d="m 643.43762,86.85278 a 3.50048,3.50048 0 0 1 -3.5,-3.5 v -5.31836 a 3.38071,3.38071 0 0 1 -0.0439,-0.54785 v -4.05566 a 9.11845,9.11845 0 0 1 1.97754,-5.69238 3.501,3.501 0 0 1 -1.98242,-3.15528 v -4.05566 c 0,-6.542 6.27441,-10.45117 12.33984,-10.45117 h 17.293 a 11.416,11.416 0 0 1 11.36817,11.43847 v 4.06055 a 11.437,11.437 0 0 1 -3.25586,8.00488 3.501,3.501 0 0 1 3.25878,3.49219 v 6.28027 a 3.50048,3.50048 0 0 1 -3.5,3.5 z"
       fill="#dc2b27"
       id="path53" />
    <path
       d="m 669.522,53.57617 a 7.90539,7.90539 0 0 1 7.86792,7.93916 V 65.575 a 7.90638,7.90638 0 0 1 -7.86792,7.93921 h -14.69266 c -1.6026,0.18628 -5.05817,2.75532 -1.9054,3.55842 H 677.393 v 6.28008 h -33.95532 v -5.8628 l -0.0439,-0.0035 v -4.0556 c 0,-4.38288 4.42761,-6.67707 8.77381,-6.67707 l -0.006,-0.0036 14.1532,-0.0046 a 3.20319,3.20319 0 1 0 0,-6.39715 H 655.322 a 3.296,3.296 0 0 0 -3.38337,3.4118 v 0.82342 h -8.54986 V 60.528 c 0,-4.38794 4.49426,-6.95185 8.84,-6.95185 H 669.522 m 0,-7 h -17.29325 c -8.8822,0 -15.84,6.12837 -15.84,13.95185 v 4.05559 a 6.96736,6.96736 0 0 0 1.069,3.71962 12.67747,12.67747 0 0 0 -1.064,5.12756 v 4.0556 a 7.0572,7.0572 0 0 0 0.0439,0.7876 v 5.07873 a 7,7 0 0 0 7,7 h 33.9553 a 7,7 0 0 0 7,-7 v -6.28006 a 6.97332,6.97332 0 0 0 -1.69934,-4.57217 14.90389,14.90389 0 0 0 1.69623,-6.92546 V 61.51533 A 14.92056,14.92056 0 0 0 669.522,46.57617 Z"
       fill="#ffffff"
       id="path55" />
    <path
       d="m 615.35168,86.94263 c -6.06543,0 -12.33984,-3.90821 -12.33984,-10.44727 v -4.05859 a 3.50048,3.50048 0 0 1 3.5,-3.5 h 8.55566 a 3.49154,3.49154 0 0 1 1.57422,0.373 v -1.5996 a 3.49154,3.49154 0 0 1 -1.57422,0.373 h -8.55566 a 3.50048,3.50048 0 0 1 -3.5,-3.5 v -4.05558 c 0,-6.543 6.27441,-10.45215 12.33984,-10.45215 h 15.35937 c 8.38184,0 11.36817,4.88379 11.36817,9.45508 v 4.05859 a 8.71449,8.71449 0 0 1 -1.02246,4.24414 7.92414,7.92414 0 0 1 1.99511,5.59766 v 3.06445 c 0,6.22461 -4.4375,10.3252 -11.30566,10.44629 -0.0215,0.001 -0.042,0.001 -0.0625,0.001 z"
       fill="#dc2b27"
       id="path57" />
    <path
       d="m 630.71136,53.57562 c 4.34161,0 7.868,1.57263 7.868,5.95441 v 4.0592 c 0,3.6225 -2.41229,4.64833 -5.7,4.89485 l 0.005,0.0045 c 3.77319,0.12317 6.66693,0.96954 6.66693,4.9422 v 3.06469 c 0,4.38233 -2.91059,6.85932 -7.868,6.94678 h -16.3313 c -4.34217,0 -8.84,-2.56494 -8.84,-6.94678 v -4.05914 h 8.555 v 0.82648 a 3.28976,3.28976 0 0 0 3.37976,3.40771 h 10.02582 c 1.88092,0 3.27539,-0.346 3.37463,-2.20257 a 3.28178,3.28178 0 0 0 -3.37463,-3.20063 h -8.33111 v -5.51165 l 7.35907,-0.0046 a 3.28008,3.28008 0 0 0 3.3767,-3.196 c -0.0992,-1.85711 -1.49572,-2.20715 -3.3767,-2.20715 h -9.05378 a 3.29313,3.29313 0 0 0 -3.37976,3.4118 v 0.82343 h -8.555 v -4.0556 c 0,-4.38794 4.4989,-6.95191 8.84,-6.95191 h 15.35925 m 0,-7 h -15.3592 c -8.88227,0 -15.84,6.12841 -15.84,13.95191 v 4.0556 a 6.967,6.967 0 0 0 1.20416,3.92661 6.96694,6.96694 0 0 0 -1.20416,3.9266 v 4.05914 c 0,7.82063 6.95776,13.94678 15.84,13.94678 h 16.3313 q 0.0618,0 0.12347,-0.0011 c 8.81915,-0.1556 14.74451,-5.76 14.74451,-13.9457 v -3.06474 a 12.52656,12.52656 0 0 0 -1.52112,-6.11638 13.20806,13.20806 0 0 0 0.54907,-3.72518 V 59.53 c 0,-5.97595 -3.89386,-12.95441 -14.868,-12.95441 z M 628.763,69.66257 h -1.2e-4 z"
       fill="#ffffff"
       id="path59" />
    <path
       d="m 361.32382,38.71143 h -17.41533 l -3.3991,3.4678 -3.82913,3.77315 a 10.35908,10.35908 0 0 0 -1.59446,2.24283 3.09621,3.09621 0 0 0 -0.34193,1.53848 2.00662,2.00662 0 0 0 1.13694,1.49114 7.5877,7.5877 0 0 0 3.56143,0.7873 l 0.0559,1.14864 H 322.607 l 0.36154,-1.14864 a 10.8183,10.8183 0 0 0 3.93651,-1.26875 37.66514,37.66514 0 0 0 6.4277,-5.51672 L 371.52743,7.39333 h 1.87691 l -0.004,36.617 q 0.0175,2.86956 0.0475,3.47086 a 4.53563,4.53563 0 0 0 1.29672,3.32021 6.35912,6.35912 0 0 0 3.82864,1.20869 l -0.35784,1.14863 h -24.44865 l 0.402,-1.14863 a 27.84224,27.84224 0 0 0 4.15078,-0.46469 4.43342,4.43342 0 0 0 2.03569,-1.94917 10.91044,10.91044 0 0 0 0.91047,-5.1503 l 0.0554,-5.73555 z m -0.13491,-2.69932 0.37741,-14.6061 -14.91653,14.6061 h 14.53993"
       fill="#dc2b27"
       id="path61" />
    <path
       d="M 414.09913,8.43052 419.85,39.24071 445.16377,8.43052 h 19.85817 l -0.44531,1.14863 a 11.02336,11.02336 0 0 0 -6.13761,1.38834 q -2.05046,1.38936 -3.3477,5.49128 l -8.96214,28.69308 a 12.88957,12.88957 0 0 0 -0.79494,4.07952 2.39384,2.39384 0 0 0 1.34813,1.98785 q 1.28859,0.75149 4.95742,0.81887 l -0.31808,1.14863 h -28.17906 l 0.44149,-1.14863 q 4.54365,0 6.64144,-1.38834 2.09319,-1.38937 3.39146,-5.49637 l 9.07409,-29.0595 -30.41324,37.0954 h -1.74967 l -7.00279,-37.82315 -9.30311,29.78725 a 9.23135,9.23135 0 0 0 -0.5135,3.07746 3.34309,3.34309 0 0 0 1.57053,2.68762 9.5883,9.5883 0 0 0 4.95436,1.12168 l -0.35818,1.14863 h -18.66728 l 0.31883,-1.14863 a 10.77787,10.77787 0 0 0 5.10959,-1.13744 9.94717,9.94717 0 0 0 4.29786,-5.75082 L 401.45905,12.02609 A 10.44315,10.44315 0 0 0 398.21467,10.0423 16.90452,16.90452 0 0 0 393.5112,9.58081 l 0.43767,-1.14863 h 20.15843"
       fill="#dc2b27"
       id="path63" />
    <path
       d="m 469.97887,9.55015 0.40143,-1.14863 h 27.5989 l -0.48476,1.14863 a 9.89315,9.89315 0 0 0 -5.66431,1.33644 q -1.91457,1.32981 -3.20062,5.57271 l -8.94686,28.64727 a 15.0789,15.0789 0 0 0 -0.92217,4.103 2.19437,2.19437 0 0 0 1.26111,1.86876 q 1.54356,0.86492 5.71521,0.93438 l -0.36133,1.14863 h -27.9704 l 0.40143,-1.14863 q 4.21082,0 6.102,-1.284 1.89015,-1.28325 3.26016,-5.62359 l 8.94686,-28.64727 a 12.9871,12.9871 0 0 0 0.75525,-4.03983 2.3042,2.3042 0 0 0 -1.26417,-1.93238 c -0.79953,-0.46942 -2.68,-0.77916 -5.62869,-0.93489"
       fill="#dc2b27"
       id="path65" />
    <path
       d="m 580.6696,38.71143 h -17.41025 l -3.3996,3.4678 -3.82914,3.77315 a 10.4985,10.4985 0 0 0 -1.598,2.24283 3.08825,3.08825 0 0 0 -0.33843,1.53848 2.006,2.006 0 0 0 1.13744,1.49114 7.57037,7.57037 0 0 0 3.562,0.7873 l 0.056,1.14864 h -16.89124 l 0.35818,-1.14864 a 10.774,10.774 0 0 0 3.93652,-1.26875 37.74686,37.74686 0 0 0 6.43278,-5.51672 L 590.88053,7.39333 h 1.87691 l -0.008,36.617 q 0.0239,2.86956 0.0515,3.47086 a 4.52316,4.52316 0 0 0 1.29572,3.32021 6.34828,6.34828 0 0 0 3.82507,1.20869 l -0.35752,1.14863 h -24.44866 l 0.40587,-1.14863 a 27.94025,27.94025 0 0 0 4.15078,-0.46469 4.4235,4.4235 0 0 0 2.03111,-1.94917 q 0.88933,-1.48479 0.915,-5.1503 l 0.0515,-5.73555 z m -0.13487,-2.69932 0.3817,-14.6061 -14.91654,14.6061 h 14.53484"
       fill="#dc2b27"
       id="path67" />
    <path
       d="m 549.72709,7.81982 a 3.40273,3.40273 0 0 1 0.52012,1.60616 l -2.68406,12.29049 h -1.45094 c -0.42877,-4.14314 -0.58017,-7.12492 -2.83419,-8.94686 -2.25046,-1.82144 -3.41538,-2.84284 -7.31832,-2.84284 a 28.03556,28.03556 0 0 0 -13.00806,3.45559 c -3.904,2.2306 -8.74839,5.6694 -11.349,10.31586 -2.596,4.64748 -4.16756,9.53213 -3.91259,14.65189 q 0.334,6.58953 4.4373,10.0665 a 14.10238,14.10238 0 0 0 9.38454,3.47492 18.84778,18.84778 0 0 0 5.36913,-0.9583 L 530.56614,39.116 a 14.93364,14.93364 0 0 0 0.89062,-3.89631 2.59391,2.59391 0 0 0 -1.41532,-2.06368 9.12537,9.12537 0 0 0 -4.564,-0.84227 l 0.34922,-1.28044 h 24.26545 l -0.31044,1.28044 a 9.1831,9.1831 0 0 0 -3.36347,0.66771 4.14207,4.14207 0 0 0 -1.853,1.654 17.80175,17.80175 0 0 0 -1.1252,3.3396 l -4.159,13.31343 A 59.66119,59.66119 0 0 1 520.56282,54.18322 35.89335,35.89335 0 0 1 507.46314,52.04015 21.9918,21.9918 0 0 1 498.2466,45.246 17.88493,17.88493 0 0 1 494.19506,34.65531 q -0.63171,-12.66455 13.19129,-20.8811 c 7.22162,-4.24645 15.36438,-6.102 24.70821,-6.56 0.88655,0 3.17313,-0.2142 6.36154,-0.2142 2.708,0 5.84243,0.08672 10.382,0.40923 a 1.22154,1.22154 0 0 1 0.88655,0.4135"
       fill="#dc2b27"
       id="path69" />
    <path
       d="M 501.68855,73.462 V 95.79353 A 11.04765,11.04765 0 0 0 512.605,106.9593 h 23.92956 A 11.04634,11.04634 0 0 0 547.4509,95.79353 l -0.003,-5.705 h -10.82988 v 2.14714 a 4.60187,4.60187 0 0 1 -4.69126,4.79914 h -14.8809 a 4.60008,4.60008 0 0 1 -4.68718,-4.79914 V 78.01635 a 4.60036,4.60036 0 0 1 4.68718,-4.79914 h 13.90886 a 4.60229,4.60229 0 0 1 4.69176,4.79914 v 1.15678 h 10.82988 L 546.48,73.463 A 11.04765,11.04765 0 0 0 535.5636,62.29723 H 512.601 A 11.047,11.047 0 0 0 501.68459,73.463"
       fill="#231f20"
       id="path71" />
    <path
       d="M 564.75937,97.076 V 72.26093 h 19.166 a 6.13528,6.13528 0 0 1 6.06127,6.20886 v 12.40754 a 6.13672,6.13672 0 0 1 -6.06127,6.20378 h -19.166 z M 554.08726,107 h 34.846 A 12.16362,12.16362 0 0 0 600.8217,94.84182 V 74.49509 A 12.1636,12.1636 0 0 0 588.93326,62.33693 h -34.846 V 107"
       fill="#231f20"
       id="path73" />
    <path
       d="m 652.16756,66.75371 c -4.3462,0 -8.77383,2.29422 -8.77383,6.67706 v 4.05561 l 0.0439,0.0036 v 5.86279 H 677.393 v -6.28011 h -24.469 c -3.15278,-0.80308 0.30281,-3.37212 1.9054,-3.55839 h 14.6926 a 7.9064,7.9064 0 0 0 7.86795,-7.9392 V 61.5154 A 7.90543,7.90543 0 0 0 669.522,53.5762 h -17.2932 c -4.3457,0 -8.84,2.56395 -8.84,6.95189 v 4.0556 h 8.5499 V 63.7602 a 3.296,3.296 0 0 1 3.38332,-3.41183 h 10.99274 a 3.2032,3.2032 0 1 1 0,6.39717 l -14.15314,0.0046"
       fill="#dc2b27"
       id="path75" />
    <path
       d="m 632.87939,68.48406 c 3.28765,-0.24653 5.69993,-1.27231 5.69993,-4.89483 v -4.05918 c 0,-4.38181 -3.52632,-5.9544 -7.868,-5.9544 h -15.35924 c -4.34111,0 -8.84,2.56395 -8.84,6.95189 v 4.0556 h 8.555 V 63.7597 a 3.29313,3.29313 0 0 1 3.37976,-3.41182 h 9.05373 c 1.881,0 3.27747,0.35008 3.3767,2.2072 a 3.28009,3.28009 0 0 1 -3.3767,3.196 l -7.359,0.0046 v 5.51163 h 8.33106 a 3.28177,3.28177 0 0 1 3.37467,3.20062 c -0.0992,1.85656 -1.49369,2.20262 -3.37467,2.20262 h -10.02579 a 3.28979,3.28979 0 0 1 -3.37976,-3.40776 v -0.82648 h -8.555 v 4.05917 c 0,4.38182 4.49786,6.9468 8.84,6.9468 h 16.33133 c 4.95742,-0.08749 7.868,-2.56447 7.868,-6.9468 v -3.0647 c 0,-3.97265 -2.89374,-4.819 -6.66689,-4.94215"
       fill="#dc2b27"
       id="path77" />
  </g>
  <metadata
     id="metadata901">
    <rdf:RDF>
      <cc:Work
         rdf:about="">
        <dc:title>logo</dc:title>
      </cc:Work>
    </rdf:RDF>
  </metadata>
</svg>
