<?xml version="1.0" encoding="UTF-8" standalone="no"?>
<svg
   id="Capa_1"
   data-name="Capa 1"
   viewBox="0 0 258.6987 114"
   version="1.1"
   sodipodi:docname="amstradcpc.svg"
   width="258.6987"
   height="114"
   inkscape:version="1.1 (c68e22c387, 2021-05-23)"
   xmlns:inkscape="http://www.inkscape.org/namespaces/inkscape"
   xmlns:sodipodi="http://sodipodi.sourceforge.net/DTD/sodipodi-0.dtd"
   xmlns="http://www.w3.org/2000/svg"
   xmlns:svg="http://www.w3.org/2000/svg"
   xmlns:rdf="http://www.w3.org/1999/02/22-rdf-syntax-ns#"
   xmlns:cc="http://creativecommons.org/ns#"
   xmlns:dc="http://purl.org/dc/elements/1.1/">
  <defs
     id="defs43" />
  <sodipodi:namedview
     id="namedview41"
     pagecolor="#ffffff"
     bordercolor="#666666"
     borderopacity="1.0"
     inkscape:pageshadow="2"
     inkscape:pageopacity="0.0"
     inkscape:pagecheckerboard="0"
     showgrid="false"
     fit-margin-top="0"
     fit-margin-left="0"
     fit-margin-right="0"
     fit-margin-bottom="0"
     inkscape:zoom="1.113"
     inkscape:cx="128.93082"
     inkscape:cy="56.603774"
     inkscape:window-width="1920"
     inkscape:window-height="1138"
     inkscape:window-x="-8"
     inkscape:window-y="-8"
     inkscape:window-maximized="1"
     inkscape:current-layer="Capa_1" />
  <title
     id="title2">logo</title>
  <path
     d="m 26.6951,92.73969 a 3.49984,3.49984 0 0 1 -3.49072,-3.24854 l -0.36816,-5.10449 -0.46924,5.16992 a 3.50011,3.50011 0 0 1 -3.48584,3.18311 H 6.9997896 A 3.5,3.5 0 0 1 3.5237196,88.83 L 11.16727,23.97306 a 3.50049,3.50049 0 0 1 3.47608,-3.09033 l 16.12695,0.0376 a 3.49971,3.49971 0 0 1 3.45947,3.02637 l 8.853,64.81933 A 3.49978,3.49978 0 0 1 39.615,92.73967 Z"
     id="path4" />
  <path
     d="m 14.64348,24.38281 16.11834,0.03729 8.85337,64.81983 H 26.69492 l -0.95943,-13.32 -5.63927,-0.05865 -1.21527,13.37866 H 7.0000496 L 14.64348,24.38282 M 20.92236,65.169 H 24.6641 L 22.83056,35.58141 20.92236,65.169 M 14.64318,17.3828 A 6.99991,6.99991 0 0 0 7.6915296,23.56353 L 0.04810959,88.42064 A 7,7 0 0 0 7.0000096,96.23992 H 18.88091 a 6.97478,6.97478 0 0 0 3.90694,-1.19135 6.97381,6.97381 0 0 0 3.907,1.19135 h 12.92027 a 7,7 0 0 0 6.93561,-7.94727 L 37.69735,23.47283 a 6.99989,6.99989 0 0 0 -6.9194,-6.05267 L 14.6596,17.3828 Z"
     fill="#ffffff"
     id="path6" />
  <path
     d="M 72.55009,92.7934 A 3.49984,3.49984 0 0 1 70.0745,91.76752 l -0.0107,-0.01075 a 3.49741,3.49741 0 0 1 -2.48682,1.03663 h -7.915 a 3.4946,3.4946 0 0 1 -2.53711,-1.08887 c -0.02,0.021 -0.04,0.042 -0.061,0.0625 a 3.49941,3.49941 0 0 1 -2.47608,1.02637 h -12.4248 a 3.50018,3.50018 0 0 1 -3.5,-3.49414 L 38.55106,24.5434 a 3.50007,3.50007 0 0 1 3.5,-3.50586 h 18.2183 a 3.5,3.5 0 0 1 3.47754,3.10351 l 0.1626,1.42822 0.21191,-1.51611 a 3.4999,3.4999 0 0 1 3.46631,-3.01562 h 17.55225 a 3.49986,3.49986 0 0 1 3.5,3.5 V 89.2934 a 3.49987,3.49987 0 0 1 -3.5,3.5 z"
     id="path8" />
  <path
     d="M 85.13991,24.53735 V 89.29327 H 72.55015 l 0.0213,-37.844 -4.99433,37.844 h -7.91528 l -5.11694,-37.844 0.0427,37.844 H 42.16302 L 42.0511,24.53735 h 18.21841 l 3.28871,28.84674 4.02954,-28.84674 h 17.55217 m 0,-7 H 67.58776 a 6.97806,6.97806 0 0 0 -3.659,1.03205 6.97458,6.97458 0 0 0 -3.65921,-1.03205 H 42.0511 a 7,7 0 0 0 -7,7.01209 l 0.11192,64.75592 a 7,7 0 0 0 7,6.98791 H 54.5876 a 6.99915,6.99915 0 0 0 2.53569,-0.4754 6.98322,6.98322 0 0 0 2.53857,0.4754 h 7.91528 a 6.98358,6.98358 0 0 0 2.488,-0.45593 6.99906,6.99906 0 0 0 2.485,0.45593 H 85.1399 a 7,7 0 0 0 7,-7 V 24.53735 a 7,7 0 0 0 -7,-7 z"
     fill="#ffffff"
     id="path10" />
  <path
     d="m 103.09159,92.96478 c -8.27442,0 -13.021,-0.55761 -16.00147,-3.60351 C 83.89139,86.09174 83.98807,81.1889 84.14969,73.77484 L 83.96415,62.96918 a 3.49982,3.49982 0 0 1 3.49951,-3.56006 H 92.262 c -4.26367,-2.67578 -8.188,-6.03076 -8.19141,-10.85693 -10e-4,-2.15625 -0.0684,-4.24659 -0.13379,-6.26856 -0.229,-7.125 -0.42724,-13.27832 2.63379,-17.28174 2.52686,-3.312 5.69678,-3.58935 8.46973,-3.58935 0.86035,0 1.82764,0.03613 2.92871,0.07812 1.312,0.05029 2.79883,0.10694 4.5249,0.11182 l 1.75293,0.0024 c 7.46289,0.0054 12.39307,0.0088 15.36914,4.16016 2.52979,3.52832 2.78223,8.79834 2.78516,20.87548 a 3.50006,3.50006 0 0 1 -3.5,3.501 h -4.44141 c 3.38282,2.36963 7.70655,6.13428 7.68555,9.88281 l -0.0478,10.71973 c 0.16992,10.65478 0.1543,12.52441 -1.37842,15.69238 a 12.9927,12.9927 0 0 1 -4.34814,5.04883 c -2.3545,1.38135 -4.75684,1.45068 -12.72852,1.47852 z"
     id="path12" />
  <path
     d="m 95.04006,24.91248 c 1.85936,0 4.2421,0.18121 7.44411,0.18988 15.564,0.048 16.41156,-0.86347 16.41688,21.53912 h -13.86369 c -0.15349,-10.40808 0.57661,-11.59332 -2.01431,-11.59326 l -0.0538,1.8e-4 c -2.43585,0.0213 -2.36658,1.03406 -2.292,6.63068 0.0853,6.88659 4.31741,7.07843 8.21908,9.10388 3.4113,1.76965 9.76482,6.46551 9.74883,9.22119 l -0.048,10.72424 c 0.1706,10.74024 0.096,11.85956 -1.02868,14.18348 a 9.69723,9.69723 0 0 1 -2.97954,3.56054 c -1.47116,0.86347 -3.2514,0.96478 -10.9588,0.9914 -0.1826,5.5e-4 -0.36109,7.9e-4 -0.53961,7.9e-4 -15.63233,0 -15.73529,-2.13825 -15.44014,-15.68207 L 87.4638,62.90906 h 13.21343 v 13.917 c -0.006,1.04041 1.4114,1.69183 2.63159,1.69183 0.91772,0 1.72388,-0.36859 1.72847,-1.21746 V 64.652 c -0.10126,-4.57861 -17.46156,-8.51758 -17.46686,-16.10236 -0.005,-9.397 -1.23128,-17.48291 1.78027,-21.42187 1.4001,-1.83527 2.99572,-2.21533 5.68932,-2.21533 m -0.0213,-7 c -2.24518,0 -7.45407,0.01562 -11.23338,4.96954 -3.81421,4.98877 -3.59755,11.72 -3.34668,19.514 0.0642,1.99457 0.1306,4.057 0.13177,6.15759 a 12.74532,12.74532 0 0 0 3.231,8.38989 7.00023,7.00023 0 0 0 -3.33658,6.08563 l 0.18422,10.737 c -0.17349,7.96784 -0.27472,13.73511 3.94,18.04267 4.22,4.313 10.59975,4.65582 18.5015,4.65582 l 0.56068,-8.5e-4 c 7.93437,-0.02747 11.21722,-0.03876 14.481,-1.95447 a 16.55823,16.55823 0 0 0 5.73547,-6.54474 c 1.93615,-4.00073 1.89989,-6.55927 1.72968,-17.27673 l 0.0477,-10.65241 a 11.77774,11.77774 0 0 0 -3.11152,-7.41022 7.00047,7.00047 0 0 0 3.36747,-5.98541 c -0.003,-11.90729 -0.15721,-18.334 -3.44038,-22.91376 -4.0226,-5.61114 -10.28427,-5.61554 -18.21182,-5.621 l -1.74311,-0.0026 c -1.66655,-0.0046 -3.12079,-0.06018 -4.40387,-0.10932 -1.08355,-0.04144 -2.107,-0.08056 -3.06172,-0.08062 h -0.0214 z"
     fill="#ffffff"
     id="path14" />
  <path
     d="m 220.29081,93.017 a 3.50029,3.50029 0 0 1 -3.47364,-3.5 h 0.0361 c -0.21973,-3.13526 -0.2627,-14.70508 0.43359,-63.59033 a 3.50058,3.50058 0 0 1 3.5,-3.4502 h 24.332 a 8.66863,8.66863 0 0 1 6.42188,2.27149 c 3.65039,3.67578 3.77539,11.104 3.61816,34.03271 -0.0234,3.40674 -0.0176,6.459 -0.0127,9.18994 0.0244,13.18506 0.0361,19.20264 -3.4375,22.68262 -2.27735,2.28125 -5.334,2.54541 -7.43653,2.54541 z"
     id="path16" />
  <path
     d="m 245.11875,25.9765 c 6.42816,0 6.7373,3.97095 6.5401,32.7804 -0.16962,24.95031 1.205,30.94207 -7.38672,30.94207 -0.0496,0 -0.0998,-1.8e-4 -0.15008,-6.1e-4 L 220.3176,89.51709 v -0.016 c -0.42108,-1.02869 0.46906,-63.5246 0.46906,-63.5246 h 24.33209 m -10.591,53.10956 c 3.96032,-0.14392 3.72577,-0.66632 3.56054,-21.699 -0.14392,-18.39965 0.39978,-21.78961 -3.8537,-21.78961 l 0.29316,43.48865 m 10.591,-60.10956 h -24.33209 a 7,7 0 0 0 -6.9993,6.90027 c -0.002,0.15637 -0.22467,15.81641 -0.39273,31.40076 -0.23273,21.57666 -0.27377,29.108 -0.0749,32.22357 h -0.002 a 7.0278,7.0278 0 0 0 0.19284,1.63934 4.636,4.636 0 0 0 0.24762,0.81183 7.00878,7.00878 0 0 0 6.50623,4.56464 l 23.80447,0.18127 0.20337,7.9e-4 c 1.57,0 6.34757,0 9.91419,-3.5733 4.49884,-4.50726 4.48672,-10.98071 4.46017,-25.16418 -0.005,-2.70472 -0.0108,-5.77027 0.0122,-9.157 0.16809,-24.55822 0.01,-31.84649 -4.6348,-36.52307 a 12.17487,12.17487 0 0 0 -8.90515,-3.30493 z"
     fill="#ffffff"
     id="path18" />
  <path
     d="m 112.33964,110.49994 a 3.50035,3.50035 0 0 1 -3.126,-5.07471 L 123.68385,76.69769 V 38.60687 h -3.11474 a 3.49986,3.49986 0 0 1 -3.5,-3.49267 l -0.021,-10.06836 a 3.50009,3.50009 0 0 1 3.5,-3.50733 h 27.4126 a 3.37729,3.37729 0 0 0 2.76318,0.16553 l 0.666,-0.01123 8.19336,-16.26709 a 3.49978,3.49978 0 0 1 3.126,-1.92578 h 54.064 a 3.49989,3.49989 0 0 1 3.126,5.07471 l -7.68848,15.26416 a 3.5187,3.5187 0 0 1 0.30176,1.019 L 221.366,89.683 a 3.50046,3.50046 0 0 1 -3.46777,3.97364 h -12.92087 a 3.49949,3.49949 0 0 1 -3.49072,-3.24854 l -0.36817,-5.10693 -0.46923,5.17187 a 3.50016,3.50016 0 0 1 -3.48584,3.1836 h -11.88089 a 3.49752,3.49752 0 0 0 -2.9419,-0.63965 c -0.004,0 -4.96582,-0.019 -4.96582,-0.019 l -7.8457,15.57666 a 3.50024,3.50024 0 0 1 -3.126,1.92529 z"
     id="path20" />
  <path
     d="m 216.77305,7 h 0.005 m -0.005,0 -9.23181,18.32806 1.50311,0.0035 8.85339,64.8252 h -12.92029 l -0.95941,-13.32538 -5.63928,-0.05859 -1.21527,13.384 h -11.88086 l 3.17473,-26.94119 -6.31494,12.53717 c 0.0563,3.59936 0.0895,8.07995 0.19794,13.76434 L 175.22311,89.48975 166.40323,107 H 112.33962 L 127.18406,77.52911 V 35.10706 h -6.6147 l -0.0213,-10.06867 h 27.4129 v 10.06867 h -7.07844 v 15.22619 l 9.93365,-19.72149 -0.0356,-5.40815 c 0.96849,-0.01587 1.887,-0.03173 2.78362,-0.04754 L 162.70936,7 h 54.06366 m -17.56809,59.08051 h 3.74176 l -1.74542,-28.16559 -0.20624,0.40948 -1.7901,27.75611 M 216.77802,0 h -54.06866 a 7.00007,7.00007 0 0 0 -6.25173,3.851 l -7.20593,14.30616 a 7.03673,7.03673 0 0 0 -1.29076,-0.11878 h -27.4129 a 7.00008,7.00008 0 0 0 -7,7.01483 l 0.0213,10.06867 a 7.00041,7.00041 0 0 0 6.61466,6.97473 v 33.7691 L 106.08791,103.851 A 7,7 0 0 0 112.33962,114 h 54.06361 a 7,7 0 0 0 6.25171,-3.851 l 6.8718,-13.64264 2.78674,0.01068 0.027,6e-5 0.0188,-6e-5 a 6.9986,6.9986 0 0 0 2.92343,0.63971 h 11.88086 a 6.97457,6.97457 0 0 0 3.90692,-1.19129 6.97372,6.97372 0 0 0 3.907,1.19129 h 12.92029 a 6.99995,6.99995 0 0 0 6.93564,-7.94721 l -8.85343,-64.8252 q -0.0131,-0.09641 -0.0289,-0.1919 l 6.981,-13.85943 A 7.0014,7.0014 0 0 0 216.77802,0 Z m -0.005,14 z"
     fill="#ffffff"
     id="path22" />
  <polygon
     points="537.054,107 482.99,107 533.36,7 587.424,7 "
     fill="#9c2249"
     id="polygon24"
     transform="translate(-370.65064)" />
  <path
     d="M 14.64348,24.3828 7.0000596,89.23995 H 18.88094 l 1.21527,-13.37865 5.63929,0.05863 0.95943,13.32 H 39.61519 L 30.76182,24.42009 Z m 8.18709,11.19862 1.83357,29.58758 h -3.74178 z"
     id="path26" />
  <polygon
     points="425.238,89.293 425.196,51.449 430.312,89.293 438.228,89.293 443.222,51.449 443.201,89.293 455.791,89.293 455.791,24.537 438.238,24.537 434.209,53.384 430.92,24.537 412.702,24.537 412.814,89.293 "
     id="polygon28"
     transform="translate(-370.65064)" />
  <polygon
     points="497.835,35.107 497.835,89.08 511.533,89.08 511.533,35.107 518.612,35.107 518.612,25.038 491.199,25.038 491.22,35.107 "
     id="polygon30"
     transform="translate(-370.65064)" />
  <path
     d="m 102.4842,25.10237 c -7.84064,-0.02132 -10.76689,-1.07669 -13.13347,2.02545 -3.01153,3.939 -1.7856,12.0248 -1.78027,21.42184 0.005,7.58479 17.3656,11.52376 17.46687,16.10235 v 12.64843 c -0.0107,1.97748 -4.37071,1.34852 -4.36005,-0.47439 v -13.917 H 87.46386 l 0.18655,10.87348 c -0.29848,13.69846 -0.19188,15.72925 15.97977,15.68128 7.70738,-0.02665 9.48765,-0.12793 10.95877,-0.99141 a 9.697,9.697 0 0 0 2.97954,-3.56053 c 1.12466,-2.32394 1.19929,-3.44327 1.02872,-14.18351 l 0.048,-10.72424 c 0.016,-2.75568 -6.33753,-7.45154 -9.74882,-9.22114 -3.90167,-2.02546 -8.1338,-2.21734 -8.21908,-9.10388 -0.0746,-5.59665 -0.14392,-6.60938 2.292,-6.6307 2.65441,-0.016 1.91352,1.114 2.06809,11.59306 h 13.8637 c -0.005,-22.40257 -0.85289,-21.49112 -16.4169,-21.53909 z"
     id="path32" />
  <path
     d="m 150.7806,25.20364 0.42108,63.999 h 13.12814 l 0.0853,-25.84585 c 4.70652,0.07462 4.35473,-1.55107 4.05091,26.107 l 13.87435,0.0533 c -0.485,-25.41944 0.53835,-26.90122 -5.75122,-32.08745 5.61264,-3.53388 5.11161,-5.69792 5.2342,-16.27825 0.11726,-10.13793 -0.2292,-11.55041 -3.1661,-14.27412 -2.65974,-2.46249 -5.09562,-2.04674 -27.87664,-1.67363 z m 13.52257,9.97269 c 5.14358,0.14925 4.16284,1.42848 4.16284,8.03253 0,6.8972 0.86348,8.347 -4.19482,8.38431 z"
     id="path34" />
  <path
     d="m 220.78667,25.97651 c 0,0 -0.89013,62.4959 -0.46905,63.52462 v 0.016 l 23.8044,0.18122 c 8.75743,0.06929 7.36626,-5.84716 7.53682,-30.94146 0.19722,-28.80941 -0.11193,-32.78037 -6.54008,-32.78037 z M 238.08836,57.387 c 0.16523,21.03274 0.39976,21.55509 -3.56054,21.699 l -0.29316,-43.48862 c 4.25341,3e-5 3.7097,3.39 3.8537,21.78962 z"
     id="path36" />
  <path
     d="m 192.92602,25.29425 -7.64342,64.86248 h 11.88089 l 1.21527,-13.384 5.63929,0.05863 0.95942,13.32535 h 12.92026 l -8.85337,-64.82515 z m 8.1871,11.19863 1.83357,29.58761 h -3.74176 z"
     id="path38" />
  <metadata
     id="metadata860">
    <rdf:RDF>
      <cc:Work
         rdf:about="">
        <dc:title>logo</dc:title>
      </cc:Work>
    </rdf:RDF>
  </metadata>
</svg>
