<?xml version="1.0" encoding="UTF-8" standalone="no"?>
<svg
   viewBox="0 0 325.19052 114.00024"
   version="1.1"
   id="svg81"
   sodipodi:docname="apple2.svg"
   width="325.19052"
   height="114.00024"
   inkscape:version="1.1 (c68e22c387, 2021-05-23)"
   xmlns:inkscape="http://www.inkscape.org/namespaces/inkscape"
   xmlns:sodipodi="http://sodipodi.sourceforge.net/DTD/sodipodi-0.dtd"
   xmlns="http://www.w3.org/2000/svg"
   xmlns:svg="http://www.w3.org/2000/svg"
   xmlns:rdf="http://www.w3.org/1999/02/22-rdf-syntax-ns#"
   xmlns:cc="http://creativecommons.org/ns#"
   xmlns:dc="http://purl.org/dc/elements/1.1/">
  <defs
     id="defs85" />
  <sodipodi:namedview
     id="namedview83"
     pagecolor="#ffffff"
     bordercolor="#666666"
     borderopacity="1.0"
     inkscape:pageshadow="2"
     inkscape:pageopacity="0.0"
     inkscape:pagecheckerboard="0"
     showgrid="false"
     fit-margin-top="0"
     fit-margin-left="0"
     fit-margin-right="0"
     fit-margin-bottom="0"
     inkscape:zoom="1.113"
     inkscape:cx="162.1743"
     inkscape:cy="56.603774"
     inkscape:window-width="1920"
     inkscape:window-height="1138"
     inkscape:window-x="-8"
     inkscape:window-y="-8"
     inkscape:window-maximized="1"
     inkscape:current-layer="svg81" />
  <title
     id="title2">logo</title>
  <g
     id="Layer_2"
     data-name="Layer 2"
     transform="translate(-337.40475)">
    <rect
       x="433.40198"
       y="54.95377"
       width="19.777781"
       height="9.9994802"
       fill="#ffffff"
       id="rect4" />
    <rect
       x="480.06866"
       y="54.95377"
       width="14.66667"
       height="8.6020002"
       fill="#ffffff"
       id="rect6" />
    <rect
       x="521.62421"
       y="54.94363"
       width="15.23074"
       height="8.4280901"
       fill="#ffffff"
       id="rect8" />
    <rect
       x="608.32996"
       y="44.0084"
       width="20.944851"
       height="20.944851"
       fill="#ffffff"
       id="rect10" />
  </g>
  <g
     id="Layer_1"
     data-name="Layer 1"
     transform="translate(-337.40475)">
    <path
       d="m 348.90557,46.57248 a 3.50018,3.50018 0 0 1 -2.91406,-5.439 l 0.01,-0.01416 c 5.67578,-8.76123 14.8086,-14.20166 23.84082,-14.20166 a 33.01521,33.01521 0 0 1 11.66309,2.499 c 2.6748,0.95752 4.98437,1.78418 7.43945,1.78418 a 17.942,17.942 0 0 0 6.46973,-1.624 32.85925,32.85925 0 0 1 12.5664,-2.665 c 7.9629,0 16.13868,4.2837 21.86915,11.4585 a 3.49889,3.49889 0 0 1 -1.04786,5.251 19.644,19.644 0 0 0 -3.13086,2.14013 3.49824,3.49824 0 0 1 -2.24609,0.81592 z"
       fill="#61bb46"
       id="path13" />
    <path
       d="m 407.98083,30.41171 c 6.79638,0 14.00213,3.71643 19.13458,10.14264 a 23.05472,23.05472 0 0 0 -3.69049,2.52326 l -74.51892,-0.0053 0.0187,-0.02924 c 5.15094,-7.96393 13.27613,-12.62518 20.917,-12.62518 7.78045,0 12.67138,4.283 19.10272,4.283 6.24023,0 10.04114,-4.28919 19.03638,-4.28919 m 0,-7 a 35.88559,35.88559 0 0 0 -13.80964,2.89316 c -2.34747,0.8916 -3.74768,1.396 -5.22674,1.396 -1.84754,0 -3.79443,-0.69693 -6.25928,-1.57926 A 36.43035,36.43035 0 0 0 369.8417,23.41784 c -10.21479,0 -20.48188,6.06323 -26.79474,15.82358 l -0.0305,0.04754 a 7,7 0 0 0 5.889,10.7833 l 74.51892,0.0053 a 7,7 0 0 0 4.49109,-1.63022 16.157,16.157 0 0 1 2.573,-1.75937 7,7 0 0 0 2.09652,-10.50209 C 426.19658,28.1871 416.99876,23.41171 407.98082,23.41171 Z"
       fill="#ffffff"
       id="path15" />
    <path
       d="m 385.68975,34.55832 a 3.50076,3.50076 0 0 1 -3.334,-2.86865 c -1.09667,-5.99756 1.03907,-12.98243 5.71387,-18.68506 4.3086,-5.24854 11.41992,-9.064 17.69629,-9.4961 0.0811,-0.00585 0.16211,-0.0083 0.24317,-0.0083 a 3.499,3.499 0 0 1 3.459,2.98731 c 0.92871,6.26611 -1.09277,13.15234 -5.54492,18.89355 -4.33008,5.58008 -11.27246,9.18555 -17.68653,9.18555 -10e-6,0 -0.36524,-0.0029 -0.54688,-0.0083 z"
       fill="#61bb46"
       id="path17" />
    <path
       d="m 406.00628,7.00021 c 0.90008,6.07911 -1.5835,12.025 -4.84857,16.236 -3.41382,4.39856 -9.23035,7.83053 -14.92109,7.83053 -0.14569,0 -0.29168,-0.0023 -0.43719,-0.0068 -1.06366,-5.81452 1.6684,-11.80036 4.97766,-15.83643 3.64691,-4.44287 9.89081,-7.85577 15.22919,-8.22327 M 406.012,0 q -0.24179,0 -0.48639,0.01675 c -7.17785,0.49411 -15.27911,4.82041 -20.15911,10.76545 -5.32142,6.49014 -7.73273,14.54034 -6.45276,21.53732 a 7,7 0 0 0 6.66693,5.737 c 0.21832,0.0068 0.43738,0.01022 0.656,0.01022 7.45478,0 15.48224,-4.13669 20.451,-10.53866 5.0351,-6.49381 7.30988,-14.34867 6.24317,-21.5531 A 7.00042,7.00042 0 0 0 406.012,0 Z"
       fill="#ffffff"
       id="path19" />
    <path
       d="m 344.40459,59.45139 a 3.50068,3.50068 0 0 1 -3.48535,-3.82373 34.51833,34.51833 0 0 1 4.69141,-14.43266 3.50148,3.50148 0 0 1 2.9541,-1.62256 l 75.27051,0.0049 a 3.50022,3.50022 0 0 1 2.26758,6.16651 18.07412,18.07412 0 0 0 -6.27833,10.76562 3.50059,3.50059 0 0 1 -3.45507,2.93994 z"
       fill="#fdb827"
       id="path21" />
    <path
       d="m 348.906,43.0723 74.51892,0.0053 h 0.41058 a 21.53808,21.53808 0 0 0 -7.46612,12.87188 l -71.9646,0.0018 a 30.91082,30.91082 0 0 1 4.1604,-12.879 h 0.34082 m 74.9295,0.0053 h 0.005 m -74.934,-7.00531 h -0.34124 a 6.99993,6.99993 0 0 0 -5.90753,3.2449 37.66942,37.66942 0 0 0 -5.223,15.98694 7,7 0 0 0 6.97,7.64718 h 2.5e-4 l 71.9646,-0.0018 a 7,7 0 0 0 6.90961,-5.87988 14.55984,14.55984 0 0 1 5.02109,-8.59963 6.99936,6.99936 0 0 0 -4.45977,-12.39239 h -0.41559 l -74.51844,-0.0053 z"
       fill="#ffffff"
       id="path23" />
    <path
       d="m 345.05791,72.216 a 3.5001,3.5001 0 0 1 -3.458,-2.96 51.90825,51.90825 0 0 1 -0.39356,-13.69043 3.4992,3.4992 0 0 1 3.47852,-3.11425 l 71.40429,-0.0015 a 3.5,3.5 0 0 1 3.45508,4.061 19.34005,19.34005 0 0 0 1.40039,10.793 3.50015,3.50015 0 0 1 -3.20117,4.915 z"
       fill="#f5821f"
       id="path25" />
    <path
       d="m 416.089,55.94974 h 0.005 m -0.005,0 a 22.72117,22.72117 0 0 0 1.6543,12.769 L 345.05828,68.716 a 48.56636,48.56636 0 0 1 -0.37317,-12.76446 l 71.40393,-0.0018 m 0.005,-7 h -0.005 l -71.40393,0.0018 a 7,7 0 0 0 -6.95722,6.22891 55.398,55.398 0 0 0 0.41425,14.61487 7,7 0 0 0 6.91605,5.92068 l 72.685,0.0028 a 7,7 0 0 0 6.40308,-9.82907 15.816,15.816 0 0 1 -1.17639,-8.63367 7.00576,7.00576 0 0 0 -6.87573,-8.30624 z m -0.005,14 z"
       fill="#ffffff"
       id="path27" />
    <path
       d="m 348.54815,84.97971 a 3.49914,3.49914 0 0 1 -3.25684,-2.21875 63.82786,63.82786 0 0 1 -3.6914,-13.50586 3.50024,3.50024 0 0 1 3.458,-4.03907 l 72.68555,0.0029 a 3.49986,3.49986 0 0 1 3.20117,2.08594 18.30181,18.30181 0 0 0 10.31837,9.7881 3.50035,3.50035 0 0 1 1.95117,4.708 l -0.5039,1.11915 a 3.50139,3.50139 0 0 1 -3.19239,2.06445 z"
       fill="#e03a3e"
       id="path29" />
    <path
       d="m 345.05828,68.716 72.68506,0.0028 a 21.73384,21.73384 0 0 0 12.27807,11.64673 c -0.17419,0.389 -0.34222,0.761 -0.5039,1.11957 h -2.5e-4 l 6e-5,-1.9e-4 -80.96942,-0.0055 6e-5,1.8e-4 h -6e-5 A 60.39406,60.39406 0 0 1 345.05828,68.716 m 2.4e-4,-7 a 7.00005,7.00005 0 0 0 -6.91693,8.07691 67.34866,67.34866 0 0 0 3.89185,14.24817 6.99989,6.99989 0 0 0 6.514,4.43847 l 80.96936,0.0053 a 7,7 0 0 0 6.3801,-4.11886 l 0.51313,-1.1394 a 7,7 0 0 0 -3.90607,-9.40611 14.82025,14.82025 0 0 1 -8.35742,-7.93 7,7 0 0 0 -6.403,-4.17175 z"
       fill="#ffffff"
       id="path31" />
    <path
       d="m 355.29424,97.74728 a 3.49943,3.49943 0 0 1 -2.90918,-1.55468 c -0.2207,-0.32911 -0.44043,-0.65918 -0.6543,-0.98536 A 68.77927,68.77927 0 0 1 345.29034,82.76 a 3.50026,3.50026 0 0 1 3.25781,-4.78027 l 80.96875,0.0049 a 3.50019,3.50019 0 0 1 3.18847,4.94336 71.41489,71.41489 0 0 1 -6.22558,11.48242 c -0.38867,0.59277 -0.78711,1.19531 -1.20313,1.80469 a 3.49958,3.49958 0 0 1 -2.89062,1.52636 z"
       fill="#963d97"
       id="path33" />
    <path
       d="m 348.5479,81.47934 80.96942,0.0055 -6e-5,1.9e-4 a 68.16638,68.16638 0 0 1 -5.96606,11.009 c -0.37482,0.5719 -0.76215,1.1568 -1.16541,1.74719 l -67.09185,0.0062 q -0.32245,-0.48222 -0.63758,-0.96155 a 65.188,65.188 0 0 1 -6.1084,-11.8064 l -6e-5,-1.8e-4 m 4.9e-4,-7 a 7,7 0 0 0 -6.51526,9.56091 72.26238,72.26238 0 0 0 6.76441,13.07639 c 0.22967,0.34926 0.45251,0.68541 0.67743,1.02177 a 7.00012,7.00012 0 0 0 5.819,3.10906 h 6.1e-4 l 67.09185,-0.006 a 7,7 0 0 0 5.77967,-3.05179 c 0.42895,-0.628 0.84112,-1.25 1.2398,-1.85835 a 74.54461,74.54461 0 0 0 6.4878,-11.95787 7,7 0 0 0 -6.37592,-9.88821 l -80.96936,-0.0057 z"
       fill="#ffffff"
       id="path35" />
    <path
       d="m 371.78057,110.49924 c -8.75,-0.0811 -14.96094,-7.68652 -19.39453,-14.30371 a 3.50055,3.50055 0 0 1 2.9082,-5.44825 l 67.0918,-0.0059 a 3.49965,3.49965 0 0 1 2.89453,5.46778 c -4.49023,6.60449 -10.72656,14.19629 -19.16113,14.27637 l -0.166,0.001 a 18.75521,18.75521 0 0 1 -8.46582,-2.1875 17.41448,17.41448 0 0 0 -8.30176,-2.02832 h -0.1289 a 18.66316,18.66316 0 0 0 -8.55469,2.06543 19.43714,19.43714 0 0 1 -8.54688,2.16406 z"
       fill="#009ddc"
       id="path37" />
    <path
       d="m 422.38586,94.24124 h 0.005 m -0.005,0 c -4.10419,6.03735 -9.6142,12.681 -16.30011,12.74414 -0.0446,4e-4 -0.0889,6.1e-4 -0.133,6.1e-4 -6.37824,0 -8.10461,-4.21568 -16.7677,-4.21568 -0.0487,0 -0.0989,1.4e-4 -0.14807,4.1e-4 -8.7879,0.0493 -10.67163,4.22948 -17.08331,4.22948 -0.0462,0 -0.0931,-2.3e-4 -0.13971,-6.6e-4 -6.975,-0.0648 -12.39124,-6.58948 -16.52,-12.75207 l 67.09192,-0.0062 m 0.005,-7 h -0.006 l -67.09192,0.0062 a 7,7 0 0 0 -5.81475,10.89622 c 4.91186,7.33139 11.88208,15.7591 22.27044,15.85555 l 0.20472,0.001 a 22.7012,22.7012 0 0 0 9.97674,-2.46907 15.17219,15.17219 0 0 1 7.14581,-1.76052 l 0.10883,-3e-4 a 13.976,13.976 0 0 1 6.83954,1.70778 22.00165,22.00165 0 0 0 9.92816,2.5079 l 0.1958,-9e-4 c 10.10651,-0.0954 17.3446,-8.94569 21.93182,-15.66974 a 6.99975,6.99975 0 0 0 -5.68951,-11.07411 z m -0.005,14 z"
       fill="#ffffff"
       id="path39" />
    <path
       d="m 588.387,79.38889 a 25.13728,25.13728 0 0 1 -15.78515,-5.0459 17.40986,17.40986 0 0 1 -7.19043,-14.54 c 0,-5.20117 2.293,-9.645 7.01074,-13.58594 a 24.32618,24.32618 0 0 1 16.02246,-5.7085 h 19.88574 a 3.50017,3.50017 0 0 1 3.5,3.5 v 8.3877 a 3.50016,3.50016 0 0 1 -0.67285,2.064 l -7.56542,10.36125 h 4.73535 a 3.50049,3.50049 0 0 1 3.5,3.5 v 7.56739 a 3.50049,3.50049 0 0 1 -3.5,3.5 z m 1.01075,-24.31446 a 6.19433,6.19433 0 0 0 -4.23535,1.375 4.15685,4.15685 0 0 0 -1.4375,3.24317 4.70533,4.70533 0 0 0 1.585,3.61132 5.804,5.804 0 0 0 0.77929,0.59864 3.49762,3.49762 0 0 1 0.6084,-3.05567 l 4.459,-5.77246 z"
       fill="#808080"
       id="path41" />
    <path
       d="M 608.33,44.00839 V 52.396 l -7.73241,10.5903 h -11.13038 l 7.28449,-9.42951 a 1.246,1.246 0 0 0 0.14551,-1.29138 1.18433,1.18433 0 0 0 -1.06909,-0.691 h -6.43024 a 9.63617,9.63617 0 0 0 -6.55347,2.25275 7.67879,7.67879 0 0 0 -2.619,5.86511 8.22542,8.22542 0 0 0 2.7262,6.19733 9.37672,9.37672 0 0 0 6.44629,2.43188 h 18.92938 V 75.889 H 588.387 a 21.536,21.536 0 0 1 -13.64331,-4.31458 14.01828,14.01828 0 0 1 -5.832,-11.77185 c 0,-4.06238 1.81922,-7.61181 5.7547,-10.89947 a 20.70167,20.70167 0 0 1 13.77875,-4.89472 H 608.33 m 0,-7 h -19.88494 a 27.74,27.74 0 0 0 -18.26672,6.52274 c -5.48536,4.5824 -8.26673,10.057 -8.26673,16.27145 a 20.9696,20.9696 0 0 0 8.53974,17.30143 28.5592,28.5592 0 0 0 17.9356,5.785 h 19.94031 a 7,7 0 0 0 7,-7 V 68.32144 A 7.00321,7.00321 0 0 0 610.2791,61.5972 l 3.70429,-5.07337 A 7.00019,7.00019 0 0 0 615.33,52.396 v -8.38761 a 7,7 0 0 0 -7,-7 z"
       fill="#ffffff"
       id="path43" />
    <rect
       x="550.25128"
       y="30.49826"
       width="17.12598"
       height="48.890629"
       rx="3.5"
       fill="#808080"
       id="rect45" />
    <path
       d="M 563.87774,33.99826 V 75.889 H 553.75085 V 33.99826 h 10.12689 m 0,-7 h -10.12689 a 7,7 0 0 0 -7,7 V 75.889 a 7,7 0 0 0 7,7 h 10.12689 a 7,7 0 0 0 7,-7 V 33.99826 a 7,7 0 0 0 -7,-7 z"
       fill="#ffffff"
       id="path47" />
    <path
       d="m 619.16631,79.40842 a 3.50049,3.50049 0 0 1 -3.5,-3.5 v -5.8457 a 3.50048,3.50048 0 0 1 3.5,-3.5 h 3.61817 V 43.3342 h -3.61817 a 3.50006,3.50006 0 0 1 -3.5,-3.5 v -5.83594 a 3.50017,3.50017 0 0 1 3.5,-3.5 h 15.89258 a 3.50017,3.50017 0 0 1 3.5,3.5 v 41.91016 a 3.50049,3.50049 0 0 1 -3.5,3.5 z"
       fill="#808080"
       id="path49" />
    <path
       d="M 635.05883,33.99826 V 75.90872 H 619.166 v -5.84643 h 5.93444 a 1.16728,1.16728 0 0 0 0.83759,-0.3562 1.24072,1.24072 0 0 0 0.34662,-0.86426 V 41.05557 a 1.23672,1.23672 0 0 0 -0.34662,-0.86535 1.17152,1.17152 0 0 0 -0.8396,-0.35621 H 619.166 v -5.83575 h 15.89282 m 0,-7 H 619.166 a 7,7 0 0 0 -7,7 V 39.834 a 7,7 0 0 0 7,7 h 0.11865 V 63.06229 H 619.166 a 7,7 0 0 0 -7,7 v 5.84643 a 7,7 0 0 0 7,7 h 15.89282 a 7,7 0 0 0 7,-7 V 33.99826 a 7,7 0 0 0 -7,-7 z"
       fill="#ffffff"
       id="path51" />
    <path
       d="m 639.70342,79.40939 a 3.50048,3.50048 0 0 1 -3.5,-3.5 V 33.99826 a 3.50017,3.50017 0 0 1 3.5,-3.5 H 655.595 a 3.50017,3.50017 0 0 1 3.5,3.5 v 5.83643 a 3.50017,3.50017 0 0 1 -3.5,3.5 h -3.61426 v 23.229 h 3.61426 a 3.50048,3.50048 0 0 1 3.5,3.5 v 5.8457 a 3.50048,3.50048 0 0 1 -3.5,3.5 z"
       fill="#808080"
       id="path53" />
    <path
       d="m 655.59527,33.99826 v 5.8363 h -5.93347 a 1.16745,1.16745 0 0 0 -0.83753,0.35621 1.225,1.225 0 0 0 -0.34393,0.86535 v 27.78674 a 1.22507,1.22507 0 0 0 0.34393,0.86432 1.16761,1.16761 0 0 0 0.83759,0.35621 h 5.93341 v 5.84588 h -15.89179 v -41.911 h 15.89179 m 0,-7 h -15.89179 a 7,7 0 0 0 -7,7 v 41.911 a 7,7 0 0 0 7,7 h 15.89179 a 7,7 0 0 0 7,-7 v -5.84588 a 7,7 0 0 0 -7,-7 h -0.11493 V 46.83456 h 0.11493 a 7,7 0 0 0 7,-7 v -5.8363 a 7,7 0 0 0 -7,-7 z"
       fill="#ffffff"
       id="path55" />
    <path
       d="m 450.13506,79.39182 a 3.49241,3.49241 0 0 1 -2.61523,-1.17383 3.49226,3.49226 0 0 1 -2.61328,1.1709 h -6.49512 a 19.63124,19.63124 0 0 1 -14.1416,-6.01075 c -4.10352,-4.04492 -6.09766,-8.502 -6.09766,-13.626 a 18.48213,18.48213 0 0 1 5.82422,-13.46192 19.58551,19.58551 0 0 1 14.29785,-5.78174 H 460.262 a 3.50017,3.50017 0 0 1 3.5,3.5 v 31.88334 a 3.50049,3.50049 0 0 1 -3.5,3.5 z m -8.0918,-24.31495 a 5.94642,5.94642 0 0 0 -4.07714,1.39356 4.39447,4.39447 0 0 0 -1.46875,3.397 4.52148,4.52148 0 0 0 1.54394,3.46582 5.905,5.905 0 0 0 4.11914,1.49121 h 2.7461 a 3.48431,3.48431 0 0 1 1.72851,0.45606 V 55.07687 Z"
       fill="#808080"
       id="path57" />
    <path
       d="m 460.262,44.00839 v 31.8833 H 450.13512 V 52.79752 a 1.23633,1.23633 0 0 0 -0.3471,-0.86377 1.1679,1.1679 0 0 0 -0.83881,-0.35669 h -6.90582 a 9.41228,9.41228 0 0 0 -6.39722,2.273 7.86048,7.86048 0 0 0 -2.64893,6.01758 8.0436,8.0436 0 0 0 2.68787,6.05389 9.39374,9.39374 0 0 0 6.47559,2.40253 h 2.74542 V 75.889 h -6.49481 a 16.03762,16.03762 0 0 1 -11.68488,-5.00452 c -3.43591,-3.38684 -5.05414,-7.02 -5.05414,-11.13257 A 14.88479,14.88479 0 0 1 426.463,48.773 15.9809,15.9809 0 0 1 438.294,44.00841 h 21.968 m 0,-7 h -21.968 a 22.97068,22.97068 0 0 0 -16.76514,6.79929 21.86416,21.86416 0 0 0 -6.85657,15.94424 c 0,6.02481 2.40229,11.44763 7.14014,16.1178 a 23.01779,23.01779 0 0 0 16.59888,7.01926 h 6.49481 a 6.97947,6.97947 0 0 0 2.61114,-0.50325 6.98245,6.98245 0 0 0 2.61786,0.50593 H 460.262 a 7,7 0 0 0 7,-7 V 44.00839 a 7,7 0 0 0 -7,-7 z m -18.1013,24.31566 a 2.39731,2.39731 0 0 1 -1.75959,-0.57547 1.06112,1.06112 0 0 1 -0.40387,-0.881 0.87344,0.87344 0 0 1 0.28693,-0.7746 2.39917,2.39917 0 0 1 1.75922,-0.516 h 1.09179 l -6e-5,2.747 z"
       fill="#ffffff"
       id="path59" />
    <path
       d="m 510.137,89.39767 a 3.50049,3.50049 0 0 1 -3.5,-3.5 V 44.00851 a 3.5001,3.5001 0 0 1 3.5,-3.5 l 22.39063,0.0015 a 19.26633,19.26633 0 0 1 13.98926,5.75635 18.75729,18.75729 0 0 1 5.82031,13.98877 17.83422,17.83422 0 0 1 -5.8877,13.60351 19.95459,19.95459 0 0 1 -14.166,5.53028 h -6.78613 a 3.48182,3.48182 0 0 1 -1.7334,-0.459 v 6.96777 a 3.50048,3.50048 0 0 1 -3.5,3.5 z m 13.627,-24.11523 a 3.48181,3.48181 0 0 1 1.7334,-0.459 h 2.38769 a 7.28525,7.28525 0 0 0 4.57715,-1.41016 3.83153,3.83153 0 0 0 1.56445,-3.11035 4.74194,4.74194 0 0 0 -1.61914,-3.478 6.3188,6.3188 0 0 0 -4.52148,-1.75 H 523.764 Z"
       fill="#808080"
       id="path61" />
    <path
       d="m 510.13677,44.00839 22.39038,0.0016 a 15.66069,15.66069 0 0 1 11.52918,4.74487 15.38632,15.38632 0 0 1 4.78112,11.50043 14.44671,14.44671 0 0 1 -4.79016,11.05786 A 16.3509,16.3509 0 0 1 532.284,75.889 h -6.787 v -7.56548 h 2.38812 a 10.7305,10.7305 0 0 0 6.7204,-2.14392 7.31664,7.31664 0 0 0 2.92133,-5.87635 8.24736,8.24736 0 0 0 -2.69849,-6.00586 9.81158,9.81158 0 0 0 -6.94269,-2.72247 h -6.43548 a 1.16975,1.16975 0 0 0 -0.84046,0.35669 1.23772,1.23772 0 0 0 -0.346,0.86377 V 85.8981 h -10.127 V 44.00839 m 4.9e-4,-7 a 7,7 0 0 0 -7.00049,7 V 85.8981 a 7,7 0 0 0 7,7 h 10.127 a 7,7 0 0 0 7,-7 V 82.889 h 5.02027 a 23.34668,23.34668 0 0 0 16.57421,-6.491 21.43647,21.43647 0 0 0 6.97924,-16.14267 22.39029,22.39029 0 0 0 -6.8623,-16.4809 22.65142,22.65142 0 0 0 -16.448,-6.7644 l -22.38989,-0.0016 z m 17.12646,21.56653 h 0.62195 a 2.78925,2.78925 0 0 1 2.1048,0.78162 c 0.53625,0.514 0.53632,0.841 0.53638,0.94842 -6e-5,0.11072 -6e-5,0.17954 -0.20917,0.34159 a 3.6468,3.6468 0 0 1 -2.43256,0.677 h -0.6214 v -2.7486 z"
       fill="#ffffff"
       id="path63" />
    <path
       d="m 466.52276,89.39767 a 3.50048,3.50048 0 0 1 -3.5,-3.5 V 44.00851 a 3.50008,3.50008 0 0 1 3.5,-3.5 l 22.3955,0.0015 a 19.28316,19.28316 0 0 1 13.999,5.75586 18.76394,18.76394 0 0 1 5.82129,13.98926 17.84052,17.84052 0 0 1 -5.88672,13.60254 19.971,19.971 0 0 1 -14.17676,5.53125 H 481.888 a 3.48431,3.48431 0 0 1 -1.72851,-0.45606 v 6.96484 a 3.50049,3.50049 0 0 1 -3.5,3.5 z m 13.63672,-24.11816 a 3.48431,3.48431 0 0 1 1.72851,-0.45605 h 2.38672 a 7.30184,7.30184 0 0 0 4.58594,-1.41114 3.82486,3.82486 0 0 0 1.55371,-3.10937 4.73774,4.73774 0 0 0 -1.61914,-3.47754 6.31716,6.31716 0 0 0 -4.52149,-1.75049 h -4.11425 z"
       fill="#808080"
       id="path65" />
    <path
       d="m 466.52276,44.00839 22.39563,0.0016 a 15.68686,15.68686 0 0 1 11.53882,4.74487 15.3922,15.3922 0 0 1 4.78112,11.50043 14.45029,14.45029 0 0 1 -4.79016,11.05786 16.3796,16.3796 0 0 1 -11.77289,4.57586 h -6.787 v -7.56548 h 2.386 a 10.7539,10.7539 0 0 0 6.72889,-2.14392 7.3085,7.3085 0 0 0 2.91119,-5.87635 8.24284,8.24284 0 0 0 -2.69794,-6.00586 9.81522,9.81522 0 0 0 -6.94269,-2.72247 h -6.42858 a 1.16954,1.16954 0 0 0 -0.83881,0.35669 1.23556,1.23556 0 0 0 -0.34656,0.86377 V 85.8981 H 466.52276 V 44.00839 m 4.9e-4,-7 a 7,7 0 0 0 -7.00049,7 V 85.8981 a 7,7 0 0 0 7,7 h 10.13708 a 7,7 0 0 0 7,-7 V 82.889 h 5.01544 A 23.36443,23.36443 0 0 0 505.2578,76.39916 21.44144,21.44144 0 0 0 512.23833,60.25527 22.39527,22.39527 0 0 0 505.37725,43.77559 22.66987,22.66987 0 0 0 488.91839,37.01 l -22.39514,-0.0016 z m 17.13659,21.56653 h 0.614 a 2.823,2.823 0 0 1 2.1048,0.78162 c 0.53583,0.51342 0.53583,0.83954 0.53583,0.94671 0,0.12589 0,0.18909 -0.19879,0.34311 a 3.86807,3.86807 0 0 1 -2.44129,0.67716 h -0.6145 v -2.7486 z"
       fill="#ffffff"
       id="path67" />
    <path
       id="path5"
       d="m 348.83092,43.18962 c 0.0301,-0.04963 0.0619,-0.09855 0.0938,-0.14655 5.151,-7.964 13.27617,-12.62517 20.917,-12.62517 7.78047,0 12.67139,4.283 19.1027,4.283 6.24027,0 10.04114,-4.28919 19.03641,-4.28919 6.79635,0 14.00209,3.71642 19.13457,10.14265 a 23.052,23.052 0 0 0 -3.84343,2.64035 l -74.44108,-0.0051 v 0 z"
       fill="#61bb46" />
    <path
       id="path7"
       d="m 401.15772,23.23616 c 3.26508,-4.211 5.74866,-10.15684 4.84855,-16.236 -5.33835,0.36747 -11.58225,3.78042 -15.22921,8.22325 -3.30926,4.03608 -6.04127,10.02192 -4.97766,15.83648 5.82815,0.182 11.85711,-3.31258 15.35831,-7.82378 v 0 z"
       fill="#61bb46" />
    <path
       id="path9"
       d="m 348.5652,43.07227 a 30.91012,30.91012 0 0 0 -4.1604,12.87908 l 71.96456,-0.0018 a 21.53858,21.53858 0 0 1 7.46613,-12.87192 l -75.27028,-0.0053 v 0 z"
       fill="#fdb827" />
    <path
       id="path11"
       d="M 345.05829,68.716 A 48.56508,48.56508 0 0 1 344.6851,55.95155 l 71.404,-0.0018 a 22.72109,22.72109 0 0 0 1.65427,12.769 l -72.685,-0.0027 z"
       fill="#f5821f" />
    <path
       id="path73"
       d="M 348.5479,81.47954 A 60.393,60.393 0 0 1 345.05829,68.716 l 72.685,0.0027 a 21.73392,21.73392 0 0 0 12.27811,11.64675 c -0.17419,0.38894 -0.34223,0.761 -0.50392,1.11953 l -80.96961,-0.0054 v 0 z"
       fill="#e03a3e" />
    <path
       id="path75"
       d="m 429.51733,81.48481 a 68.16661,68.16661 0 0 1 -5.96613,11.00926 c -0.37482,0.57185 -0.76213,1.1568 -1.16538,1.7472 l -67.09191,0.0062 q -0.32239,-0.48221 -0.63756,-0.96151 a 65.18149,65.18149 0 0 1 -6.10845,-11.8066 z"
       fill="#963d97" />
    <path
       id="path77"
       d="m 422.38583,94.24127 c -4.10417,6.0373 -9.61418,12.681 -16.30007,12.7441 -6.524,0.0595 -8.19765,-4.26337 -17.04879,-4.21464 -8.85115,0.0496 -10.699,4.29009 -17.223,4.22882 -6.97506,-0.0647 -12.39128,-6.58951 -16.52007,-12.7521 l 67.09192,-0.0062 z"
       fill="#009ddc" />
    <path
       id="path4019"
       d="M 553.75083,33.99826 V 75.889 h 10.12692 V 33.99826 Z m 65.41517,0 V 39.834 h 5.93069 a 1.17156,1.17156 0 0 1 0.84138,0.35617 1.23675,1.23675 0 0 1 0.34657,0.86537 v 27.78627 a 1.24077,1.24077 0 0 1 -0.34657,0.8643 1.16729,1.16729 0 0 1 -0.84138,0.35618 H 619.166 v 5.84644 h 15.89285 V 33.99826 Z m 20.53749,0 v 41.911 h 15.89178 v -5.8459 h -5.92961 a 1.16732,1.16732 0 0 1 -0.84138,-0.35618 1.22482,1.22482 0 0 1 -0.34392,-0.8643 V 41.05612 a 1.225,1.225 0 0 1 0.34392,-0.86537 1.16731,1.16731 0 0 1 0.84138,-0.35617 h 5.92961 V 33.99826 Z M 438.294,44.0084 a 15.98079,15.98079 0 0 0 -11.831,4.7646 14.88477,14.88477 0 0 0 -4.79072,10.979 c 0,4.11251 1.61824,7.74568 5.05413,11.13251 A 16.03768,16.03768 0 0 0 438.4113,75.889 h 6.49481 v -7.56492 h -2.7454 a 9.39362,9.39362 0 0 1 -6.47562,-2.40256 8.04352,8.04352 0 0 1 -2.68782,-6.05387 7.86056,7.86056 0 0 1 2.6489,-6.0176 9.4122,9.4122 0 0 1 6.39723,-2.273 h 6.90377 a 1.16778,1.16778 0 0 1 0.84084,0.35671 1.23621,1.23621 0 0 1 0.34711,0.86377 V 75.89166 H 460.262 V 44.0084 Z m 28.22878,0 v 41.88968 h 10.137 V 52.7954 a 1.23576,1.23576 0 0 1 0.34657,-0.86377 1.16962,1.16962 0 0 1 0.84084,-0.3567 h 6.42656 a 9.81525,9.81525 0 0 1 6.94269,2.72248 8.24282,8.24282 0 0 1 2.69795,6.00587 7.30841,7.30841 0 0 1 -2.91122,5.8763 10.75379,10.75379 0 0 1 -6.72888,2.144 h -2.386 V 75.889 h 6.787 a 16.37958,16.37958 0 0 0 11.77287,-4.57586 14.45037,14.45037 0 0 0 4.7902,-11.05786 15.39218,15.39218 0 0 0 -4.78114,-11.50041 15.68683,15.68683 0 0 0 -11.5388,-4.74487 z m 43.614,0 V 85.89808 H 520.2637 V 52.7954 a 1.23758,1.23758 0 0 1 0.346,-0.86377 1.16966,1.16966 0 0 1 0.84244,-0.3567 h 6.4335 a 9.8116,9.8116 0 0 1 6.94268,2.72248 8.24745,8.24745 0 0 1 2.69849,6.00587 7.31662,7.31662 0 0 1 -2.92136,5.8763 10.73025,10.73025 0 0 1 -6.72035,2.144 H 525.497 V 75.889 h 6.787 a 16.351,16.351 0 0 0 11.76329,-4.57586 14.44677,14.44677 0 0 0 4.7902,-11.05786 A 15.3863,15.3863 0 0 0 544.05635,48.75487 15.66049,15.66049 0 0 0 532.52713,44.01 L 510.1368,44.0084 Z m 78.30829,0 a 20.70179,20.70179 0 0 0 -13.77875,4.8947 c -3.9355,3.28766 -5.75474,6.83712 -5.75474,10.89951 a 14.0182,14.0182 0 0 0 5.832,11.77181 21.53617,21.53617 0 0 0 13.64342,4.31458 h 19.94032 v -7.56758 h -18.92943 a 9.37654,9.37654 0 0 1 -6.44628,-2.43189 8.22522,8.22522 0 0 1 -2.72622,-6.19729 7.67875,7.67875 0 0 1 2.619,-5.86511 9.63608,9.63608 0 0 1 6.55347,-2.25273 h 6.42763 a 1.1844,1.1844 0 0 1 1.07172,0.691 1.2461,1.2461 0 0 1 -0.14557,1.29139 l -7.28446,9.4295 h 11.13038 L 608.33,52.396 v -8.3876 z"
       fill="#808080" />
  </g>
  <metadata
     id="metadata902">
    <rdf:RDF>
      <cc:Work
         rdf:about="">
        <dc:title>logo</dc:title>
      </cc:Work>
    </rdf:RDF>
  </metadata>
</svg>
