<?xml version="1.0" encoding="UTF-8" standalone="no"?>
<svg
   viewBox="0 0 411.48056 114.05446"
   version="1.1"
   id="svg87"
   sodipodi:docname="apple2gs.svg"
   width="411.48056"
   height="114.05446"
   inkscape:version="1.1 (c68e22c387, 2021-05-23)"
   xmlns:inkscape="http://www.inkscape.org/namespaces/inkscape"
   xmlns:sodipodi="http://sodipodi.sourceforge.net/DTD/sodipodi-0.dtd"
   xmlns="http://www.w3.org/2000/svg"
   xmlns:svg="http://www.w3.org/2000/svg"
   xmlns:rdf="http://www.w3.org/1999/02/22-rdf-syntax-ns#"
   xmlns:cc="http://creativecommons.org/ns#"
   xmlns:dc="http://purl.org/dc/elements/1.1/">
  <defs
     id="defs91" />
  <sodipodi:namedview
     id="namedview89"
     pagecolor="#ffffff"
     bordercolor="#666666"
     borderopacity="1.0"
     inkscape:pageshadow="2"
     inkscape:pageopacity="0.0"
     inkscape:pagecheckerboard="0"
     showgrid="false"
     fit-margin-top="0"
     fit-margin-left="0"
     fit-margin-right="0"
     fit-margin-bottom="0"
     inkscape:zoom="1.113"
     inkscape:cx="205.30099"
     inkscape:cy="56.603774"
     inkscape:window-width="1920"
     inkscape:window-height="1138"
     inkscape:window-x="-8"
     inkscape:window-y="-8"
     inkscape:window-maximized="1"
     inkscape:current-layer="svg87" />
  <title
     id="title2">logo</title>
  <g
     id="Layer_2"
     data-name="Layer 2"
     transform="translate(-294.26253,0.05)">
    <rect
       x="440.28"
       y="56.599998"
       width="253.53999"
       height="31.85"
       fill="#ffffff"
       id="rect4" />
  </g>
  <g
     id="Capa_1"
     data-name="Capa 1"
     transform="translate(-294.26253,0.05)">
    <path
       d="m 440.13,92.57 a 24.9,24.9 0 0 1 -3.2,-0.28 31.47,31.47 0 0 0 -4,-0.21 18.51,18.51 0 0 0 -2.66,0.16 18.47,18.47 0 0 1 -2.8,0.25 c -3.42,0 -5,-2.37 -5,-4.57 a 4.33,4.33 0 0 1 2.35,-4 6.53,6.53 0 0 1 2.13,-0.63 l 1.14,-0.14 a 1.6,1.6 0 0 0 0.47,-0.73 c 0.35,-0.93 0.74,-2.11 1.16,-3.52 l 13.14,-42.66 0.06,-0.17 0.56,-1.51 a 4.31,4.31 0 0 1 4.13,-2.77 4.62,4.62 0 0 1 4.57,3.78 c 0.14,0.61 0.39,1.45 0.74,2.49 l 12.49,39.38 c 0.57,1.81 1.08,3.26 1.53,4.3 a 2.75,2.75 0 0 0 1.12,1.26 l 0.12,0.08 a 2.14,2.14 0 0 0 0.59,0.34 4.31,4.31 0 0 1 3.94,4.33 c 0,2.24 -1.64,4.66 -5.24,4.66 a 23.41,23.41 0 0 1 -3.27,-0.29 26.32,26.32 0 0 0 -3.67,-0.21 c -2.19,0 -3.95,0.07 -5.23,0.19 -1.55,0.15 -2.59,0.22 -3.28,0.22 -3.37,0 -4.9,-2.32 -4.9,-4.49 A 4.73,4.73 0 0 1 451.88,83 c -0.09,-0.34 -0.19,-0.76 -0.33,-1.26 l -2.65,-8.69 h -6.72 l -1.48,5.51 c -0.57,2.23 -0.85,3.58 -1,4.39 a 12,12 0 0 1 2.28,0.62 4.75,4.75 0 0 1 3,4.49 c 0.02,2.18 -1.48,4.51 -4.85,4.51 z m 5.62,-29.64 -0.46,-1.47 -0.39,1.47 z"
       fill="#009ddc"
       id="path7" />
    <path
       d="m 447.64,35.29 c 0.61,0 1,0.35 1.16,1.07 0.16,0.72 0.44,1.65 0.83,2.81 L 462.1,78.5 v 0 c 0.61,1.92 1.16,3.47 1.65,4.62 a 6.22,6.22 0 0 0 2.4,2.81 4.78,4.78 0 0 0 2.11,0.95 c 0.63,0.08 0.95,0.37 0.95,0.87 0,0.77 -0.58,1.16 -1.74,1.16 a 20.94,20.94 0 0 1 -2.77,-0.25 28.67,28.67 0 0 0 -4.17,-0.25 c -2.31,0 -4.17,0.07 -5.57,0.21 -1.4,0.14 -2.39,0.2 -2.94,0.2 -0.93,0 -1.4,-0.33 -1.4,-1 q 0,-1.32 1.65,-1.32 a 6,6 0 0 0 2.73,-0.4 1.71,1.71 0 0 0 0.66,-1.57 16.1,16.1 0 0 0 -0.75,-3.72 l -3.22,-10.58 c -0.11,-0.44 -0.52,-0.66 -1.24,-0.66 h -10.24 a 0.92,0.92 0 0 0 -0.54,0.21 0.89,0.89 0 0 0 -0.37,0.54 l -2,7.35 a 33.93,33.93 0 0 0 -1.22,6.33 2.09,2.09 0 0 0 0.49,1.65 3.31,3.31 0 0 0 1.65,0.58 12,12 0 0 1 2.48,0.58 1.23,1.23 0 0 1 0.83,1.24 c 0,0.66 -0.47,1 -1.4,1 a 21.27,21.27 0 0 1 -2.73,-0.25 34.87,34.87 0 0 0 -4.46,-0.24 22.7,22.7 0 0 0 -3.18,0.2 15.48,15.48 0 0 1 -2.28,0.21 c -1,0 -1.48,-0.36 -1.48,-1.07 a 0.88,0.88 0 0 1 0.41,-0.87 3.14,3.14 0 0 1 1,-0.29 l 1.33,-0.17 a 2.79,2.79 0 0 0 1.36,-0.58 4.89,4.89 0 0 0 1.73,-2.35 c 0.39,-1 0.8,-2.27 1.24,-3.76 l 13.14,-42.63 c 0.22,-0.61 0.4,-1.09 0.54,-1.45 a 0.81,0.81 0 0 1 0.86,-0.53 m -6.41,31.16 h 8.26 a 0.84,0.84 0 0 0 0.5,-0.2 0.6,0.6 0 0 0 0.24,-0.46 A 4.71,4.71 0 0 0 450,65 l -4.46,-14.38 c -0.17,-0.5 -0.33,-0.74 -0.5,-0.74 v 0 c -0.22,0 -0.38,0.22 -0.49,0.66 l -3.85,14.57 a 2.25,2.25 0 0 0 -0.08,0.58 v 0.25 c 0,0.33 0.19,0.49 0.58,0.49 m 6.44,-38.14 a 7.84,7.84 0 0 0 -7.4,5 c -0.15,0.38 -0.34,0.9 -0.58,1.56 0,0.11 -0.08,0.22 -0.11,0.33 l -13.14,42.66 v 0.07 c -0.22,0.75 -0.44,1.43 -0.64,2 a 9.69,9.69 0 0 0 -2.45,0.83 7.87,7.87 0 0 0 -4.3,7.14 c 0,4.6 3.65,8.07 8.48,8.07 a 21.41,21.41 0 0 0 3.32,-0.29 16.58,16.58 0 0 1 2.14,-0.12 27.47,27.47 0 0 1 3.51,0.18 28.47,28.47 0 0 0 3.68,0.31 8.62,8.62 0 0 0 6.08,-2.36 8.65,8.65 0 0 0 5.77,2.15 c 0.82,0 1.93,-0.07 3.62,-0.24 1.17,-0.11 2.82,-0.17 4.89,-0.17 a 24.3,24.3 0 0 1 3.16,0.17 26.11,26.11 0 0 0 3.78,0.33 c 5.74,0 8.74,-4.11 8.74,-8.16 a 7.74,7.74 0 0 0 -6.13,-7.64 c -0.28,-0.7 -0.72,-1.86 -1.3,-3.71 L 456.3,37.05 v -0.1 c -0.41,-1.22 -0.58,-1.88 -0.65,-2.17 a 8.13,8.13 0 0 0 -8,-6.49 z m -2.78,48.28 h 1.45 l 1.27,4.19 A 8.37,8.37 0 0 0 446,82 8.58,8.58 0 0 0 443.85,80.54 c 0.08,-0.34 0.18,-0.71 0.28,-1.12 l 0.77,-2.87 z"
       fill="#ffffff"
       id="path9" />
    <path
       d="m 481.68,110.5 a 29.14,29.14 0 0 1 -4,-0.28 27.26,27.26 0 0 0 -3.51,-0.21 23.56,23.56 0 0 0 -3.25,0.2 21.51,21.51 0 0 1 -3.32,0.29 4.69,4.69 0 0 1 -5,-4.82 4.39,4.39 0 0 1 4.41,-4.66 1.69,1.69 0 0 0 0.45,-0.1 c 0,-0.13 0,-0.27 0,-0.45 V 63.13 a 6.76,6.76 0 0 0 0,-0.69 4.13,4.13 0 0 1 -3.69,-4.35 5,5 0 0 1 3.61,-4.75 10.8,10.8 0 0 0 2.39,-1.34 14.94,14.94 0 0 0 2.82,-2.31 6,6 0 0 1 4.41,-2.45 4.18,4.18 0 0 1 3.86,2.61 13.86,13.86 0 0 1 1.52,-0.88 14.21,14.21 0 0 1 6.44,-1.49 14.43,14.43 0 0 1 6.85,1.74 16.63,16.63 0 0 1 5.44,4.69 22.42,22.42 0 0 1 3.44,6.94 29.45,29.45 0 0 1 1.23,8.72 30.67,30.67 0 0 1 -1.41,9.52 24.11,24.11 0 0 1 -4.09,7.68 19.49,19.49 0 0 1 -6.5,5.23 19.17,19.17 0 0 1 -12.43,1.44 l -0.05,7.06 c 0,0.14 0,0.27 0,0.38 0.57,0.06 1.06,0.12 1.45,0.18 a 5.32,5.32 0 0 1 2.42,1 4.52,4.52 0 0 1 1.74,3.79 c 0.01,2.24 -1.63,4.65 -5.23,4.65 z m 2.76,-50.4 c -0.79,0 -1.83,0.11 -2.23,0.65 -0.4,0.54 -0.83,1.48 -0.83,4.07 v 15.45 c 0,2.29 0.52,3.2 0.83,3.54 v 0 c 0.19,0.21 0.7,0.77 2.31,0.77 a 5,5 0 0 0 2.64,-0.69 7.2,7.2 0 0 0 2.32,-2.23 12.93,12.93 0 0 0 1.75,-4 21.65,21.65 0 0 0 0.67,-5.53 c 0,-4.11 -0.81,-7.26 -2.4,-9.33 a 6,6 0 0 0 -5.06,-2.7 z"
       fill="#009ddc"
       id="path11" />
    <path
       d="m 477,50.74 c 0.55,0 0.83,0.57 0.83,1.73 v 4.05 0 c 0,0.38 0.08,0.58 0.25,0.58 0.17,0 0.38,-0.14 0.66,-0.42 l 0.82,-1 a 14.72,14.72 0 0 1 4.38,-3.59 11,11 0 0 1 10.08,0.21 13.18,13.18 0 0 1 4.3,3.71 19,19 0 0 1 2.89,5.87 25.74,25.74 0 0 1 1.07,7.68 26.94,26.94 0 0 1 -1.28,8.44 20.59,20.59 0 0 1 -3.48,6.57 15.91,15.91 0 0 1 -5.31,4.3 15.11,15.11 0 0 1 -6.79,1.52 14.24,14.24 0 0 1 -7.22,-1.9 l -0.33,0.25 -0.08,11.73 a 7.33,7.33 0 0 0 0.25,2.23 2,2 0 0 0 1.24,1.16 4.67,4.67 0 0 0 1.61,0.5 c 0.52,0 1,0.11 1.32,0.16 a 2,2 0 0 1 0.87,0.33 1.2,1.2 0 0 1 0.33,1 c 0,0.77 -0.58,1.16 -1.74,1.16 a 25.61,25.61 0 0 1 -3.5,-0.25 30.85,30.85 0 0 0 -4,-0.25 26.25,26.25 0 0 0 -3.77,0.25 18.69,18.69 0 0 1 -2.8,0.25 c -1,0 -1.49,-0.44 -1.49,-1.32 0,-0.88 0.3,-1.16 0.91,-1.16 a 6,6 0 0 0 2.15,-0.49 2.55,2.55 0 0 0 1.44,-1.16 5.7,5.7 0 0 0 0.37,-2.4 V 63.13 a 5.33,5.33 0 0 0 -0.57,-3 2.67,2.67 0 0 0 -1.28,-0.95 6.14,6.14 0 0 0 -1.29,-0.24 q -0.57,0 -0.57,-0.87 c 0,-0.66 0.42,-1.14 1.28,-1.45 a 14.39,14.39 0 0 0 3.18,-1.77 19.18,19.18 0 0 0 3.47,-2.9 c 0.71,-0.82 1.29,-1.23 1.73,-1.23 m 7.55,37.34 a 8.61,8.61 0 0 0 4.4,-1.16 10.84,10.84 0 0 0 3.45,-3.28 16.48,16.48 0 0 0 2.24,-5.07 25.14,25.14 0 0 0 0.79,-6.44 q 0,-7.39 -3.12,-11.46 a 9.5,9.5 0 0 0 -7.84,-4.07 c -2.32,0 -4,0.68 -5,2 -1,1.32 -1.54,3.42 -1.54,6.18 v 15.51 q 0,4 1.74,5.9 v 0 a 6.33,6.33 0 0 0 4.9,1.91 M 477,43.74 c -3.86,0 -6.24,2.75 -7,3.65 a 12.49,12.49 0 0 1 -2.15,1.71 10,10 0 0 1 -1.56,0.95 8.47,8.47 0 0 0 -5.93,8 7.76,7.76 0 0 0 3.64,6.85 v 33.2 a 8,8 0 0 0 -4.87,7.58 8.22,8.22 0 0 0 8.49,8.32 25.74,25.74 0 0 0 3.84,-0.33 19.22,19.22 0 0 1 2.73,-0.17 23.59,23.59 0 0 1 3,0.19 32.93,32.93 0 0 0 4.43,0.31 c 5.74,0 8.74,-4.1 8.74,-8.16 A 8,8 0 0 0 487.24,99.26 8.5,8.5 0 0 0 484.82,98 v -0.58 h 0.61 a 22,22 0 0 0 9.91,-2.26 22.88,22.88 0 0 0 7.66,-6.16 27.53,27.53 0 0 0 4.69,-8.79 34,34 0 0 0 1.59,-10.61 33.06,33.06 0 0 0 -1.38,-9.75 26,26 0 0 0 -4,-8 20.09,20.09 0 0 0 -6.58,-5.67 18,18 0 0 0 -15.56,-0.73 7.64,7.64 0 0 0 -4.76,-1.71 z m 7.94,37.31 q 0,-0.31 0,-0.78 V 64.82 c 0,-0.48 0,-0.88 0.06,-1.19 a 2.81,2.81 0 0 1 1.78,1.3 c 1.1,1.43 1.68,3.92 1.68,7.2 a 18.26,18.26 0 0 1 -0.55,4.63 9.68,9.68 0 0 1 -1.25,2.92 4.08,4.08 0 0 1 -1.2,1.19 1.53,1.53 0 0 1 -0.49,0.18 z"
       fill="#ffffff"
       id="path13" />
    <path
       d="m 574.05,94 a 17.3,17.3 0 0 1 -7.7,-1.73 17,17 0 0 1 -6,-4.92 22.11,22.11 0 0 1 -3.62,-7.35 32.37,32.37 0 0 1 -1.21,-9.17 30,30 0 0 1 1.37,-9.31 22,22 0 0 1 4,-7.4 18.68,18.68 0 0 1 6.25,-4.87 18.14,18.14 0 0 1 7.86,-1.77 17.68,17.68 0 0 1 6.8,1.3 16.57,16.57 0 0 1 5.35,3.53 15.9,15.9 0 0 1 3.44,5.19 16.39,16.39 0 0 1 1.22,6.29 4.8,4.8 0 0 1 -2.61,4.54 8.17,8.17 0 0 1 -3.7,0.69 h -15.71 c 0,4.25 0.89,7.58 2.58,9.89 a 7,7 0 0 0 8.25,2.58 8.8,8.8 0 0 0 2,-1.16 8.5,8.5 0 0 0 1.26,-1.19 4.73,4.73 0 0 1 3.56,-2 4.15,4.15 0 0 1 4.16,4.41 7.81,7.81 0 0 1 -1.6,4.34 16.28,16.28 0 0 1 -3.62,3.75 22.71,22.71 0 0 1 -5.21,3 18.43,18.43 0 0 1 -7.12,1.36 z m -0.74,-34.52 a 12.86,12.86 0 0 0 4.22,-0.48 3,3 0 0 0 0.05,-0.56 c 0,-0.19 0,-0.64 -0.7,-1.36 a 2.34,2.34 0 0 0 -1.84,-0.68 3.33,3.33 0 0 0 -2.52,1.16 6.89,6.89 0 0 0 -1.29,1.92 z"
       fill="#009ddc"
       id="path15" />
    <path
       d="m 575,51 a 14.24,14.24 0 0 1 5.46,1 13.07,13.07 0 0 1 4.21,2.77 12.37,12.37 0 0 1 2.69,4 13,13 0 0 1 1,5 1.4,1.4 0 0 1 -0.67,1.4 5.09,5.09 0 0 1 -2.14,0.33 h -18.27 c -0.44,0 -0.72,0.09 -0.83,0.25 a 2.3,2.3 0 0 0 -0.16,1.08 v 2 q 0,7.68 3.26,12.14 a 10,10 0 0 0 8.45,4.47 9.86,9.86 0 0 0 4,-0.75 11.89,11.89 0 0 0 2.8,-1.65 12.94,12.94 0 0 0 1.74,-1.65 q 0.61,-0.75 0.87,-0.75 c 0.44,0 0.66,0.31 0.66,0.91 a 4.78,4.78 0 0 1 -1,2.4 12.77,12.77 0 0 1 -2.85,2.93 19.07,19.07 0 0 1 -4.42,2.52 14.79,14.79 0 0 1 -5.79,1.07 13.68,13.68 0 0 1 -6.15,-1.36 13.42,13.42 0 0 1 -4.75,-3.92 18.35,18.35 0 0 1 -3.06,-6.2 28.69,28.69 0 0 1 -1.05,-8.18 26.4,26.4 0 0 1 1.19,-8.22 18.62,18.62 0 0 1 3.35,-6.24 15,15 0 0 1 5.08,-4 A 14.6,14.6 0 0 1 575,51 m -7.1,12 h 5.37 a 14.19,14.19 0 0 0 5.91,-0.91 c 1.24,-0.6 1.85,-1.81 1.85,-3.63 a 5.32,5.32 0 0 0 -1.69,-3.8 5.79,5.79 0 0 0 -4.34,-1.78 6.8,6.8 0 0 0 -5,2.23 10.92,10.92 0 0 0 -2.81,5.62 L 567,62.05 v 0.17 c 0,0.5 0.33,0.74 1,0.74 M 575,44 a 21.72,21.72 0 0 0 -9.42,2.09 22.17,22.17 0 0 0 -7.42,5.78 25.44,25.44 0 0 0 -4.64,8.57 33.35,33.35 0 0 0 -1.52,10.37 35.75,35.75 0 0 0 1.38,10.19 25.52,25.52 0 0 0 4.23,8.49 20.48,20.48 0 0 0 7.19,5.92 20.78,20.78 0 0 0 9.25,2.08 21.91,21.91 0 0 0 8.49,-1.61 26.91,26.91 0 0 0 6,-3.45 19.92,19.92 0 0 0 4.37,-4.58 11.25,11.25 0 0 0 2.17,-6.28 7.71,7.71 0 0 0 -7.66,-7.91 8.11,8.11 0 0 0 -6.25,3.27 7.25,7.25 0 0 1 -0.77,0.7 5,5 0 0 1 -1.21,0.67 3,3 0 0 1 -1.19,0.16 3.11,3.11 0 0 1 -2.82,-1.6 10,10 0 0 1 -1.64,-4.32 h 12 a 11.48,11.48 0 0 0 5.28,-1.07 8.31,8.31 0 0 0 4.53,-7.66 20,20 0 0 0 -1.48,-7.62 19.31,19.31 0 0 0 -4.21,-6.34 19.85,19.85 0 0 0 -6.47,-4.28 A 21.17,21.17 0 0 0 575,44 Z"
       fill="#ffffff"
       id="path17" />
    <path
       d="m 519.27,110.5 a 29.25,29.25 0 0 1 -4,-0.28 27.26,27.26 0 0 0 -3.51,-0.21 23.56,23.56 0 0 0 -3.25,0.2 21.41,21.41 0 0 1 -3.32,0.29 4.69,4.69 0 0 1 -5,-4.82 4.39,4.39 0 0 1 4.41,-4.66 1.79,1.79 0 0 0 0.46,-0.1 c 0,-0.13 0,-0.27 0,-0.45 V 63.13 c 0,-0.29 0,-0.51 0,-0.69 a 4.14,4.14 0 0 1 -3.7,-4.35 5,5 0 0 1 3.64,-4.75 10.8,10.8 0 0 0 2.36,-1.34 15.54,15.54 0 0 0 2.83,-2.31 6,6 0 0 1 4.38,-2.44 4.18,4.18 0 0 1 3.85,2.61 13.86,13.86 0 0 1 1.52,-0.88 14.21,14.21 0 0 1 6.44,-1.49 14.43,14.43 0 0 1 6.85,1.74 16.53,16.53 0 0 1 5.44,4.69 22.65,22.65 0 0 1 3.45,6.94 29.83,29.83 0 0 1 1.23,8.72 30.66,30.66 0 0 1 -1.42,9.52 23.92,23.92 0 0 1 -4.09,7.68 19.46,19.46 0 0 1 -6.46,5.22 18.56,18.56 0 0 1 -8.38,1.89 18.35,18.35 0 0 1 -4.08,-0.45 l -0.05,7.06 c 0,0.14 0,0.27 0,0.38 0.57,0.06 1.06,0.12 1.46,0.18 a 5.43,5.43 0 0 1 2.41,1 4.56,4.56 0 0 1 1.74,3.8 c 0.03,2.23 -1.61,4.64 -5.21,4.64 z M 522,60.1 a 3,3 0 0 0 -2.23,0.65 c -0.31,0.41 -0.83,1.48 -0.83,4.07 v 15.45 c 0,2.29 0.52,3.2 0.83,3.54 a 2.77,2.77 0 0 0 2.32,0.77 5,5 0 0 0 2.63,-0.69 7.1,7.1 0 0 0 2.32,-2.23 12.93,12.93 0 0 0 1.75,-4 21.65,21.65 0 0 0 0.67,-5.53 c 0,-4.11 -0.81,-7.26 -2.39,-9.33 A 6.07,6.07 0 0 0 522,60.1 Z"
       fill="#009ddc"
       id="path19" />
    <path
       d="m 514.57,50.74 c 0.55,0 0.82,0.57 0.82,1.73 v 4.05 0 c 0,0.38 0.08,0.58 0.25,0.58 0.17,0 0.38,-0.14 0.66,-0.42 l 0.83,-1 a 14.48,14.48 0 0 1 4.38,-3.59 11,11 0 0 1 10.07,0.21 13.08,13.08 0 0 1 4.3,3.71 18.82,18.82 0 0 1 2.89,5.87 25.73,25.73 0 0 1 1.08,7.68 26.94,26.94 0 0 1 -1.25,8.44 20.59,20.59 0 0 1 -3.48,6.57 16,16 0 0 1 -5.3,4.3 15.19,15.19 0 0 1 -6.8,1.52 14.21,14.21 0 0 1 -7.21,-1.9 l -0.34,0.25 -0.08,11.73 a 7.33,7.33 0 0 0 0.25,2.23 2,2 0 0 0 1.24,1.16 4.74,4.74 0 0 0 1.61,0.5 c 0.52,0 1,0.11 1.32,0.16 a 2,2 0 0 1 0.87,0.33 1.2,1.2 0 0 1 0.33,1 c 0,0.77 -0.58,1.16 -1.74,1.16 a 25.72,25.72 0 0 1 -3.5,-0.25 30.73,30.73 0 0 0 -4,-0.25 26.35,26.35 0 0 0 -3.77,0.25 18.69,18.69 0 0 1 -2.8,0.25 c -1,0 -1.49,-0.44 -1.49,-1.32 0,-0.88 0.3,-1.16 0.91,-1.16 a 5.94,5.94 0 0 0 2.15,-0.49 2.55,2.55 0 0 0 1.44,-1.16 5.67,5.67 0 0 0 0.38,-2.4 V 63.13 a 5.31,5.31 0 0 0 -0.58,-3 2.63,2.63 0 0 0 -1.28,-0.95 6.17,6.17 0 0 0 -1.28,-0.24 c -0.39,0 -0.58,-0.32 -0.58,-0.87 0,-0.55 0.43,-1.14 1.28,-1.45 a 14.39,14.39 0 0 0 3.18,-1.77 19.18,19.18 0 0 0 3.47,-2.9 c 0.72,-0.82 1.29,-1.23 1.74,-1.23 m 7.54,37.34 a 8.58,8.58 0 0 0 4.4,-1.16 10.84,10.84 0 0 0 3.52,-3.26 16.48,16.48 0 0 0 2.24,-5.07 24.7,24.7 0 0 0 0.79,-6.44 q 0,-7.39 -3.11,-11.46 A 9.52,9.52 0 0 0 522,56.6 c -2.32,0 -4,0.68 -5,2 -1,1.32 -1.54,3.42 -1.54,6.18 v 15.49 c 0,2.66 0.59,4.63 1.75,5.9 a 6.29,6.29 0 0 0 4.89,1.91 m -7.54,-44.34 c -3.86,0 -6.25,2.75 -7,3.65 a 12.49,12.49 0 0 1 -2.15,1.71 9.47,9.47 0 0 1 -1.56,0.95 8.47,8.47 0 0 0 -5.93,8 7.75,7.75 0 0 0 3.72,6.81 V 98.1 a 8,8 0 0 0 -4.88,7.58 8.22,8.22 0 0 0 8.49,8.32 26,26 0 0 0 3.85,-0.33 19,19 0 0 1 2.72,-0.17 23.47,23.47 0 0 1 3,0.19 32.93,32.93 0 0 0 4.43,0.31 c 5.74,0 8.74,-4.1 8.74,-8.16 A 8,8 0 0 0 524.87,99.26 8.5,8.5 0 0 0 522.41,98 V 97.42 H 523 a 22.07,22.07 0 0 0 9.92,-2.26 22.84,22.84 0 0 0 7.64,-6.16 27.55,27.55 0 0 0 4.7,-8.79 34.31,34.31 0 0 0 1.59,-10.61 33.06,33.06 0 0 0 -1.39,-9.75 25.76,25.76 0 0 0 -4,-8 20.09,20.09 0 0 0 -6.58,-5.67 18,18 0 0 0 -15.56,-0.73 7.63,7.63 0 0 0 -4.75,-1.66 z m 7.94,37.31 c 0,-0.21 0,-0.47 0,-0.78 V 64.82 c 0,-0.48 0,-0.88 0.06,-1.19 a 2.85,2.85 0 0 1 1.79,1.3 c 1.09,1.43 1.67,3.92 1.67,7.2 a 18.32,18.32 0 0 1 -0.55,4.63 9.68,9.68 0 0 1 -1.25,2.92 3.86,3.86 0 0 1 -1.2,1.19 1.46,1.46 0 0 1 -0.48,0.18 z"
       fill="#ffffff"
       id="path21" />
    <path
       d="m 556.54,92.57 a 27,27 0 0 1 -3.69,-0.28 25.65,25.65 0 0 0 -3.38,-0.21 23.08,23.08 0 0 0 -3.3,0.21 23.28,23.28 0 0 1 -3.35,0.28 4.69,4.69 0 0 1 -5,-4.82 4.35,4.35 0 0 1 4.33,-4.66 1.68,1.68 0 0 0 0.38,-0.07 V 40.86 c -0.33,-0.13 -0.65,-0.26 -1,-0.41 a 4.25,4.25 0 0 1 -2.53,-3.93 4.66,4.66 0 0 1 3.73,-4.58 21.14,21.14 0 0 0 2.21,-0.74 16,16 0 0 0 3.46,-1.63 6.68,6.68 0 0 1 3.76,-1.57 4.24,4.24 0 0 1 4.07,2.62 6.58,6.58 0 0 1 0.42,2.45 c 0,0.82 0,1.73 -0.14,2.79 -0.07,0.84 -0.11,1.79 -0.11,2.83 v 43.85 c 0,0.15 0,0.28 0,0.39 0.38,0 0.76,0.07 1.11,0.12 a 5.17,5.17 0 0 1 2.64,1.19 4.68,4.68 0 0 1 1.53,3.67 c 0.01,2.25 -1.6,4.66 -5.14,4.66 z"
       fill="#009ddc"
       id="path23" />
    <path
       d="m 552.16,31.48 c 0.44,0 0.71,0.14 0.82,0.42 a 3.17,3.17 0 0 1 0.17,1.15 c 0,0.72 0,1.55 -0.13,2.48 -0.13,0.93 -0.12,2 -0.12,3.14 v 43.87 0 c 0,1.82 0.52,3 1.57,3.47 a 3.31,3.31 0 0 0 1.32,0.38 c 0.44,0 0.84,0.07 1.2,0.12 a 1.73,1.73 0 0 1 0.87,0.37 1.34,1.34 0 0 1 0.33,1 c 0,0.78 -0.55,1.16 -1.65,1.16 a 23.33,23.33 0 0 1 -3.22,-0.25 29.24,29.24 0 0 0 -3.85,-0.24 27.36,27.36 0 0 0 -3.81,0.24 19.39,19.39 0 0 1 -2.84,0.25 c -1,0 -1.49,-0.44 -1.49,-1.32 0,-0.88 0.28,-1.16 0.83,-1.16 a 6.54,6.54 0 0 0 2.23,-0.49 2.08,2.08 0 0 0 1.4,-1.12 A 5.89,5.89 0 0 0 546,83 V 40 a 2.07,2.07 0 0 0 -0.53,-1.57 3.59,3.59 0 0 0 -1.24,-0.75 13.31,13.31 0 0 1 -1.24,-0.49 0.81,0.81 0 0 1 -0.54,-0.75 c 0,-0.6 0.37,-1 1.11,-1.19 a 26.36,26.36 0 0 0 2.6,-0.87 19.48,19.48 0 0 0 4.21,-2 4.74,4.74 0 0 1 1.75,-0.95 m 0,-7 a 9.86,9.86 0 0 0 -5.78,2.23 13.61,13.61 0 0 1 -2.64,1.2 h -0.08 a 17.78,17.78 0 0 1 -1.81,0.61 8.24,8.24 0 0 0 -6.36,8 A 7.71,7.71 0 0 0 539,43 v 37.22 a 8,8 0 0 0 -4.71,7.53 8.22,8.22 0 0 0 8.49,8.32 26.07,26.07 0 0 0 3.86,-0.32 18.87,18.87 0 0 1 2.79,-0.17 21.69,21.69 0 0 1 2.9,0.18 30.73,30.73 0 0 0 4.17,0.31 8.31,8.31 0 0 0 6,-14.43 v 0 a 8.34,8.34 0 0 0 -2.55,-1.52 V 38.67 c 0,-0.94 0,-1.79 0.1,-2.52 0.1,-1.15 0.15,-2.17 0.15,-3.1 a 10.05,10.05 0 0 0 -0.66,-3.74 7.69,7.69 0 0 0 -7.33,-4.83 z"
       fill="#ffffff"
       id="path25" />
    <path
       d="m 654.65,94 a 19.82,19.82 0 0 1 -8.3,-1.75 19.4,19.4 0 0 1 -6.54,-4.85 21.79,21.79 0 0 1 -4.17,-7.2 26.38,26.38 0 0 1 -1.46,-8.88 27.41,27.41 0 0 1 1.62,-9.49 23.83,23.83 0 0 1 4.53,-7.65 21,21 0 0 1 7,-5.16 21.2,21.2 0 0 1 8.86,-1.87 24.57,24.57 0 0 1 6.63,0.91 16.57,16.57 0 0 1 2.54,1 7.07,7.07 0 0 1 2.14,1.54 c 1.23,1.32 1.63,3.35 1.63,8.15 0,4.09 -2.69,5.18 -4.28,5.18 a 4.43,4.43 0 0 1 -4.24,-3.2 c -0.17,-0.49 -0.39,-1.09 -0.68,-1.81 -1.07,-2.69 -2.6,-3.06 -4.1,-3.06 a 5.43,5.43 0 0 0 -2.91,0.82 8.91,8.91 0 0 0 -2.7,2.76 16.59,16.59 0 0 0 -2.05,4.93 28.22,28.22 0 0 0 -0.79,6.93 22.94,22.94 0 0 0 0.79,6.26 15.55,15.55 0 0 0 2,4.51 8.23,8.23 0 0 0 2.61,2.53 5.25,5.25 0 0 0 2.72,0.76 3.76,3.76 0 0 0 1.26,-0.14 l 0.09,-0.06 a 1.82,1.82 0 0 0 0.17,-0.63 18.35,18.35 0 0 0 0.12,-2.2 v -6.64 l -0.8,-0.09 a 4.81,4.81 0 0 1 -2.12,-0.82 4.11,4.11 0 0 1 -1.68,-3.42 4.29,4.29 0 0 1 4.56,-4.36 19.2,19.2 0 0 1 2.66,0.28 23.06,23.06 0 0 0 3.55,0.2 27.69,27.69 0 0 0 3.81,-0.19 16,16 0 0 1 2.46,-0.29 4.32,4.32 0 0 1 3,7.53 4.67,4.67 0 0 1 -2.2,1 l -0.49,0.08 v 8.6 a 7.56,7.56 0 0 1 -1.72,4.79 10.84,10.84 0 0 1 -3.71,2.92 18.87,18.87 0 0 1 -4.57,1.55 25.3,25.3 0 0 1 -5.24,0.53 z"
       fill="#009ddc"
       id="path27" />
    <path
       d="m 656.2,50.63 a 19.71,19.71 0 0 1 3,0.22 20.73,20.73 0 0 1 2.6,0.55 13.5,13.5 0 0 1 2,0.74 3.47,3.47 0 0 1 1.1,0.76 q 0.72,0.72 0.72,5.79 0,1.68 -0.78,1.68 c -0.44,0 -0.74,-0.27 -0.92,-0.81 -0.18,-0.54 -0.43,-1.2 -0.75,-2 q -2.09,-5.27 -7.35,-5.26 a 8.88,8.88 0 0 0 -4.75,1.35 12.12,12.12 0 0 0 -3.79,3.82 19.88,19.88 0 0 0 -2.51,6 31.3,31.3 0 0 0 -0.9,7.8 26.07,26.07 0 0 0 0.93,7.23 18.73,18.73 0 0 0 2.53,5.5 11.78,11.78 0 0 0 3.7,3.56 8.8,8.8 0 0 0 4.51,1.25 6.52,6.52 0 0 0 2.75,-0.48 3.57,3.57 0 0 0 1.56,-1.33 5.22,5.22 0 0 0 0.68,-2.06 21.38,21.38 0 0 0 0.15,-2.64 v -7.11 0 a 4.9,4.9 0 0 0 -0.27,-2 2.26,2.26 0 0 0 -1.46,-0.78 9.11,9.11 0 0 0 -1.17,-0.14 c -0.3,0 -0.59,0 -0.89,-0.09 a 1.4,1.4 0 0 1 -0.6,-0.21 0.66,0.66 0 0 1 -0.21,-0.57 q 0,-0.84 1,-0.84 a 16.18,16.18 0 0 1 2.12,0.24 27.47,27.47 0 0 0 4.09,0.24 29.62,29.62 0 0 0 4.36,-0.24 16.46,16.46 0 0 1 1.91,-0.24 q 0.9,0 0.9,0.78 a 0.75,0.75 0 0 1 -0.21,0.6 1.12,1.12 0 0 1 -0.54,0.24 c -0.25,0 -0.51,0.07 -0.77,0.09 a 6.63,6.63 0 0 0 -1,0.15 c -0.72,0.16 -1.17,0.4 -1.34,0.74 a 5.12,5.12 0 0 0 -0.27,2.06 v 9.08 a 4,4 0 0 1 -0.93,2.54 7.26,7.26 0 0 1 -2.54,2 15.4,15.4 0 0 1 -3.7,1.16 21.76,21.76 0 0 1 -4.51,0.45 16.19,16.19 0 0 1 -6.84,-1.45 15.84,15.84 0 0 1 -5.38,-4 18.24,18.24 0 0 1 -3.49,-6 22.76,22.76 0 0 1 -1.26,-7.71 23.5,23.5 0 0 1 1.41,-8.29 20.36,20.36 0 0 1 3.85,-6.55 17.49,17.49 0 0 1 5.85,-4.3 17.72,17.72 0 0 1 7.41,-1.55 m 0,-7 a 24.47,24.47 0 0 0 -18.49,8.2 27.43,27.43 0 0 0 -5.19,8.77 30.68,30.68 0 0 0 -1.84,10.7 29.89,29.89 0 0 0 1.66,10 25.37,25.37 0 0 0 4.84,8.35 22.86,22.86 0 0 0 7.72,5.71 23.3,23.3 0 0 0 9.75,2.07 29.52,29.52 0 0 0 6,-0.6 22.5,22.5 0 0 0 5.35,-1.8 14.23,14.23 0 0 0 4.89,-3.87 11,11 0 0 0 2.45,-6.9 v -6.02 a 8.07,8.07 0 0 0 1.45,-1 7.81,7.81 0 0 0 -3.47,-13.51 9.48,9.48 0 0 0 1.3,-5 c 0,-5 -0.41,-8.2 -2.55,-10.51 a 10.19,10.19 0 0 0 -3.18,-2.32 18.87,18.87 0 0 0 -3.09,-1.17 26.19,26.19 0 0 0 -3.52,-0.76 27.08,27.08 0 0 0 -4.1,-0.3 z m -4.75,22.1 0.12,-0.52 a 13.06,13.06 0 0 1 1.6,-3.89 5.28,5.28 0 0 1 1.59,-1.68 1.89,1.89 0 0 1 1.08,-0.31 2.39,2.39 0 0 1 0.41,0 3.23,3.23 0 0 1 0.44,0.82 c 0.27,0.68 0.47,1.22 0.61,1.62 a 8.22,8.22 0 0 0 0.83,1.8 c -0.38,0 -0.72,0 -1,0 a 8.08,8.08 0 0 0 -5.65,2.18 z m 2.23,15.07 a 6.57,6.57 0 0 1 -0.58,-0.74 11.18,11.18 0 0 1 -1.32,-2.75 5.32,5.32 0 0 0 0.47,0.36 7.43,7.43 0 0 0 1.43,0.81 z"
       fill="#ffffff"
       id="path29" />
    <path
       d="m 687.21,94 a 17.27,17.27 0 0 1 -8,-1.64 7.54,7.54 0 0 1 -4.36,-6.94 c 0,-0.74 0,-1.47 0.07,-2.19 0,-0.56 0.05,-1.08 0.05,-1.58 0,-0.32 0,-0.57 0,-0.77 0,-0.39 0,-0.66 0,-0.78 0,-4.22 2.77,-5.35 4.4,-5.35 a 4.1,4.1 0 0 1 3.63,2.13 6,6 0 0 1 0.65,2 l 0.21,1.35 a 9.43,9.43 0 0 0 0.27,1.18 5.91,5.91 0 0 0 1.77,3 3.07,3.07 0 0 0 2,0.86 2.68,2.68 0 0 0 2,-0.88 3.64,3.64 0 0 0 0.7,-1.19 4.25,4.25 0 0 0 0.27,-1.61 4.29,4.29 0 0 0 -1,-2.78 13.52,13.52 0 0 0 -4.06,-3.2 c -1.17,-0.66 -2.32,-1.34 -3.47,-2 a 16.31,16.31 0 0 1 -3.5,-2.83 13,13 0 0 1 -2.55,-4.09 15.33,15.33 0 0 1 -0.89,-5.69 15,15 0 0 1 1,-5.52 12.71,12.71 0 0 1 7.44,-7.41 15.69,15.69 0 0 1 5.65,-1 16.43,16.43 0 0 1 5.64,0.92 8,8 0 0 1 4,2.44 c 0.87,1.1 1.18,2.52 1.18,8.62 0,3.27 -2.21,4.76 -4.27,4.76 a 4.36,4.36 0 0 1 -4.26,-3.43 14.76,14.76 0 0 0 -0.7,-1.88 9.28,9.28 0 0 0 -1.46,-2.66 1.29,1.29 0 0 0 -0.63,-0.1 c -1.16,0 -1.52,0.38 -1.65,0.52 a 3.09,3.09 0 0 0 -0.59,2.12 2,2 0 0 0 0.44,1.52 11.71,11.71 0 0 0 3.23,2.22 45.72,45.72 0 0 1 4.58,2.77 18.49,18.49 0 0 1 3.85,3.41 14,14 0 0 1 2.58,4.55 17,17 0 0 1 0.85,5.54 16.78,16.78 0 0 1 -1.11,6.1 15.35,15.35 0 0 1 -3.17,4.94 14.57,14.57 0 0 1 -4.79,3.33 14.93,14.93 0 0 1 -6,1.24 z"
       fill="#009ddc"
       id="path31" />
    <path
       d="m 689.48,50.63 a 13,13 0 0 1 4.45,0.71 5.81,5.81 0 0 1 2.36,1.26 q 0.47,0.6 0.47,6.51 c 0,0.84 -0.26,1.26 -0.77,1.26 -0.51,0 -0.73,-0.27 -0.87,-0.81 a 20.19,20.19 0 0 0 -0.86,-2.36 12.12,12.12 0 0 0 -2.1,-3.64 4.1,4.1 0 0 0 -3.22,-1.26 5.47,5.47 0 0 0 -4.21,1.64 6.33,6.33 0 0 0 -1.53,4.5 5.56,5.56 0 0 0 1.35,3.87 14.94,14.94 0 0 0 4.21,3 44.06,44.06 0 0 1 4.24,2.48 14.9,14.9 0 0 1 3.14,2.77 10.74,10.74 0 0 1 1.94,3.44 13.46,13.46 0 0 1 0.66,4.41 13,13 0 0 1 -0.87,4.82 11.63,11.63 0 0 1 -2.39,3.77 11,11 0 0 1 -3.64,2.53 11.43,11.43 0 0 1 -4.63,0.93 14,14 0 0 1 -6.4,-1.26 4.07,4.07 0 0 1 -2.45,-3.82 c 0,-0.68 0,-1.34 0.06,-2 0.06,-0.66 0.06,-1.24 0.06,-1.8 0,-0.56 0,-0.78 0,-1 0,-0.22 0,-0.43 0,-0.51 0,-1.23 0.3,-1.85 0.9,-1.85 a 0.63,0.63 0 0 1 0.6,0.33 2.85,2.85 0 0 1 0.27,0.89 l 0.21,1.35 a 13,13 0 0 0 0.35,1.61 9.45,9.45 0 0 0 2.9,4.72 6.59,6.59 0 0 0 4.27,1.67 6,6 0 0 0 2.51,-0.54 6.12,6.12 0 0 0 2.06,-1.49 7.24,7.24 0 0 0 1.38,-2.28 8.09,8.09 0 0 0 -1.2,-7.8 16.52,16.52 0 0 0 -5.11,-4.1 c -1.13,-0.64 -2.25,-1.3 -3.37,-2 a 12.29,12.29 0 0 1 -2.75,-2.21 9.62,9.62 0 0 1 -1.85,-3 11.92,11.92 0 0 1 -0.75,-4.37 11.56,11.56 0 0 1 0.75,-4.25 v 0 a 9.22,9.22 0 0 1 5.43,-5.41 12.16,12.16 0 0 1 4.4,-0.75 m 0,-7 a 19.07,19.07 0 0 0 -6.91,1.22 16.17,16.17 0 0 0 -9.44,9.4 18.45,18.45 0 0 0 -1.23,6.79 18.7,18.7 0 0 0 1.18,7 16.8,16.8 0 0 0 2.44,4.25 c -2.34,1.33 -4.1,4 -4.1,7.84 0,0.29 0,0.62 0.06,1.07 v 0 0.49 c 0,0.4 0,0.86 0,1.37 -0.05,0.77 -0.08,1.58 -0.08,2.4 a 11,11 0 0 0 6.26,10 20.69,20.69 0 0 0 9.59,2 18.47,18.47 0 0 0 7.38,-1.42 18.09,18.09 0 0 0 5.93,-4.13 18.78,18.78 0 0 0 3.82,-6.07 20,20 0 0 0 1.36,-7.38 20.5,20.5 0 0 0 -1,-6.69 A 17.42,17.42 0 0 0 701.48,66 L 701,65.5 a 8.13,8.13 0 0 0 2.75,-6.39 c 0,-6.21 -0.28,-8.68 -2,-10.81 a 11.7,11.7 0 0 0 -5.48,-3.54 20,20 0 0 0 -6.85,-1.13 z"
       fill="#ffffff"
       id="path33" />
    <path
       d="m 635.86,94 a 27.42,27.42 0 0 1 -3.13,-0.28 50.74,50.74 0 0 0 -9.44,0 25,25 0 0 1 -3.13,0.28 6.56,6.56 0 0 1 -0.9,-0.07 6.86,6.86 0 0 1 -0.92,0.07 27.29,27.29 0 0 1 -3.12,-0.28 50.85,50.85 0 0 0 -9.45,0 25,25 0 0 1 -3.12,0.28 c -3.6,0 -5.24,-2.5 -5.24,-4.83 a 4.47,4.47 0 0 1 1.52,-3.49 5,5 0 0 1 2.38,-1.11 10.33,10.33 0 0 1 1.62,-0.14 v 0 h 0.24 0.08 q 0,-0.69 0,-1.65 V 44.87 c 0,-0.21 0,-0.39 0,-0.55 a 10.36,10.36 0 0 1 -1.62,-0.12 5.35,5.35 0 0 1 -2.33,-0.91 4.34,4.34 0 0 1 -1.74,-3.71 4.54,4.54 0 0 1 4.74,-4.66 20.76,20.76 0 0 1 3.21,0.38 32.27,32.27 0 0 0 5,0.29 32,32 0 0 0 5,-0.29 20.83,20.83 0 0 1 3.22,-0.38 4.22,4.22 0 0 0 1.16,0 20.83,20.83 0 0 1 3.22,0.38 32,32 0 0 0 5,0.29 32.12,32.12 0 0 0 5,-0.29 20.83,20.83 0 0 1 3.22,-0.38 4.55,4.55 0 0 1 4.74,4.66 4.31,4.31 0 0 1 -1.52,3.48 5,5 0 0 1 -2.41,1 14.41,14.41 0 0 1 -1.5,0.16 h -0.26 c 0,0.16 0,0.35 0,0.57 v 37.92 c 0,0.67 0,1.23 0,1.69 h 0.11 a 11.39,11.39 0 0 1 1.73,0.13 5,5 0 0 1 2.68,1.34 4.7,4.7 0 0 1 1.32,3.44 c -0.13,2.25 -1.76,4.69 -5.36,4.69 z m -18.12,-9.6 h 0.11 a 11.93,11.93 0 0 1 1.38,0.08 10,10 0 0 1 1.21,-0.08 v 0 h 0.23 0.09 c 0,-0.46 0,-1 0,-1.65 V 44.87 c 0,-0.21 0,-0.39 0,-0.55 a 11.59,11.59 0 0 1 -1.61,-0.12 h -0.13 c -0.33,0 -0.68,0.07 -1.06,0.09 h -0.26 c 0,0.16 0,0.35 0,0.57 v 37.85 c 0.01,0.67 0.02,1.23 0.04,1.69 z m -0.61,-0.2 z m 0,0 z"
       fill="#009ddc"
       id="path35" />
    <path
       d="m 636.19,38.42 c 0.83,0 1.24,0.39 1.24,1.16 a 1,1 0 0 1 -0.25,0.79 1.65,1.65 0 0 1 -0.74,0.29 c -0.33,0.05 -0.72,0.09 -1.16,0.12 a 9.32,9.32 0 0 0 -1.4,0.21 q -1.57,0.33 -1.86,1.11 a 8.86,8.86 0 0 0 -0.29,2.77 v 37.84 0 c 0,0.88 0,1.6 0,2.15 a 4.46,4.46 0 0 0 0.25,1.36 1.9,1.9 0 0 0 0.66,0.87 4.4,4.4 0 0 0 1.28,0.58 4.53,4.53 0 0 0 1.4,0.24 6.59,6.59 0 0 1 1.16,0.09 1.36,1.36 0 0 1 0.78,0.37 1.27,1.27 0 0 1 0.29,0.95 c 0,0.77 -0.57,1.16 -1.73,1.16 -0.5,0 -1.39,-0.09 -2.69,-0.25 a 53.38,53.38 0 0 0 -10.32,0 c -1.3,0.16 -2.19,0.25 -2.69,0.25 a 2.54,2.54 0 0 1 -0.89,-0.15 2.7,2.7 0 0 1 -0.93,0.15 c -0.49,0 -1.39,-0.09 -2.68,-0.25 a 53.48,53.48 0 0 0 -10.33,0 c -1.29,0.16 -2.19,0.25 -2.68,0.25 -1.16,0 -1.74,-0.44 -1.74,-1.33 a 1,1 0 0 1 0.29,-0.82 1.44,1.44 0 0 1 0.74,-0.33 5.52,5.52 0 0 1 1,-0.09 h 0.1 a 4.14,4.14 0 0 0 1.15,-0.16 5.77,5.77 0 0 0 1.53,-0.58 2,2 0 0 0 0.79,-0.87 3.76,3.76 0 0 0 0.28,-1.4 c 0,-0.58 0,-1.31 0,-2.19 V 44.87 a 8.32,8.32 0 0 0 -0.29,-2.69 2.35,2.35 0 0 0 -1.46,-1.11 5.34,5.34 0 0 0 -1.57,-0.25 8.72,8.72 0 0 1 -1.2,-0.08 2,2 0 0 1 -0.83,-0.29 1,1 0 0 1 -0.28,-0.87 c 0,-0.77 0.41,-1.16 1.24,-1.16 a 20.91,20.91 0 0 1 2.64,0.34 35.69,35.69 0 0 0 5.53,0.33 35.74,35.74 0 0 0 5.54,-0.33 20.91,20.91 0 0 1 2.64,-0.34 1.63,1.63 0 0 1 0.58,0.1 1.67,1.67 0 0 1 0.58,-0.1 20.91,20.91 0 0 1 2.64,0.34 35.83,35.83 0 0 0 5.54,0.33 35.6,35.6 0 0 0 5.53,-0.33 21.21,21.21 0 0 1 2.65,-0.34 m -17,49.64 a 1.55,1.55 0 0 1 0.23,-0.06 5.33,5.33 0 0 1 1,-0.09 v 0 a 4.27,4.27 0 0 0 1.16,-0.16 5.77,5.77 0 0 0 1.53,-0.58 2,2 0 0 0 0.78,-0.87 3.75,3.75 0 0 0 0.29,-1.4 c 0,-0.58 0,-1.31 0,-2.19 V 44.87 a 8.32,8.32 0 0 0 -0.29,-2.69 2.33,2.33 0 0 0 -1.53,-1.11 5.29,5.29 0 0 0 -1.57,-0.25 8.46,8.46 0 0 1 -1.19,-0.08 2.42,2.42 0 0 1 -0.55,-0.15 l -0.24,0.07 c -0.33,0.05 -0.71,0.09 -1.15,0.12 a 9.44,9.44 0 0 0 -1.41,0.21 q -1.58,0.33 -1.86,1.11 a 9.18,9.18 0 0 0 -0.29,2.77 v 37.84 0 c 0,0.88 0,1.6 0,2.15 a 4.46,4.46 0 0 0 0.25,1.36 1.9,1.9 0 0 0 0.66,0.87 4.4,4.4 0 0 0 1.28,0.58 4.64,4.64 0 0 0 1.41,0.24 6.47,6.47 0 0 1 1.26,0.09 1.28,1.28 0 0 1 0.23,0.06 m 17,-56.64 a 24.49,24.49 0 0 0 -3.79,0.43 28,28 0 0 1 -4.39,0.24 27.7,27.7 0 0 1 -4.38,-0.24 24.71,24.71 0 0 0 -3.8,-0.43 h -0.58 -0.58 a 24.27,24.27 0 0 0 -3.78,0.43 28.29,28.29 0 0 1 -4.4,0.24 27.81,27.81 0 0 1 -4.38,-0.24 24.49,24.49 0 0 0 -3.79,-0.43 8,8 0 0 0 -8.24,8.16 7.92,7.92 0 0 0 3.22,6.57 8.27,8.27 0 0 0 2.48,1.2 v 34 a 8.31,8.31 0 0 0 -3.15,1.7 7.89,7.89 0 0 0 -2.72,6.12 c 0,4.75 3.76,8.33 8.74,8.33 a 30.2,30.2 0 0 0 3.57,-0.31 48.19,48.19 0 0 1 8.55,0 30.37,30.37 0 0 0 3.57,0.31 c 0.31,0 0.62,0 0.92,0 0.3,0 0.6,0 0.9,0 a 30,30 0 0 0 3.57,-0.31 48.3,48.3 0 0 1 8.56,0 30.37,30.37 0 0 0 3.57,0.31 c 5.73,0 8.73,-4.11 8.73,-8.16 a 8.22,8.22 0 0 0 -2.32,-5.88 v 0 a 8.4,8.4 0 0 0 -3.51,-2.07 v -34 a 8.1,8.1 0 0 0 2.93,-1.55 7.82,7.82 0 0 0 2.77,-6.17 8,8 0 0 0 -8.24,-8.16 z"
       fill="#ffffff"
       id="path37" />
    <path
       d="m 342.21,34.36 a 3.5,3.5 0 0 1 -3.33,-2.86 c -1.09,-6 1,-12.9 5.68,-18.56 4.27,-5.21 11.34,-9 17.57,-9.43 h 0.24 a 3.5,3.5 0 0 1 3.46,3 c 0.92,6.22 -1.08,13.06 -5.5,18.76 -4.31,5.54 -11.2,9.12 -17.57,9.12 z"
       fill="#009ddc"
       id="path39" />
    <path
       d="m 362.37,7 c 0.89,6 -1.57,11.93 -4.81,16.11 -3.39,4.36 -9.16,7.76 -14.8,7.76 h -0.44 c -1.05,-5.77 1.66,-11.71 4.94,-15.71 3.62,-4.41 9.81,-7.8 15.11,-8.16 m 0,-7 h -0.48 c -7.14,0.49 -15.19,4.79 -20,10.7 -5.29,6.45 -7.68,14.45 -6.41,21.41 a 7,7 0 0 0 6.67,5.73 h 0.65 c 7.41,0 15.39,-4.11 20.33,-10.47 4.94,-6.36 7.26,-14.26 6.2,-21.42 a 7,7 0 0 0 -6.92,-6 z"
       fill="#ffffff"
       id="path41" />
    <path
       d="m 301.91,71.72 a 3.51,3.51 0 0 1 -3.46,-3 52.27,52.27 0 0 1 -0.52,-12.15 3.56,3.56 0 0 1 -0.15,-1.38 34.17,34.17 0 0 1 4.66,-14.33 3.59,3.59 0 0 1 1,-1 c 5.62,-8.09 14.36,-13.12 23,-13.12 a 32.85,32.85 0 0 1 11.58,2.48 c 2.65,0.95 4.93,1.77 7.36,1.77 a 17.73,17.73 0 0 0 6.41,-1.61 32.65,32.65 0 0 1 12.48,-2.65 c 7.91,0 16,4.26 21.71,11.38 a 3.5,3.5 0 0 1 0.7,2.87 3.45,3.45 0 0 1 -1.68,2.37 21.93,21.93 0 0 0 -1.92,1.21 3.32,3.32 0 0 1 -0.75,0.89 17.94,17.94 0 0 0 -6.22,10.67 3.51,3.51 0 0 1 -0.43,1.2 19.23,19.23 0 0 0 1.54,9.49 3.5,3.5 0 0 1 -3.2,4.91 z"
       fill="#009ddc"
       id="path43" />
    <path
       d="m 364.33,30.22 c 6.74,0 13.89,3.69 19,10.06 a 23.49,23.49 0 0 0 -3.66,2.51 h 0.4 a 21.37,21.37 0 0 0 -7.4,12.77 h -0.28 A 22.56,22.56 0 0 0 374,68.22 h -72.1 a 48.57,48.57 0 0 1 -0.37,-12.66 h -0.28 a 30.73,30.73 0 0 1 4.13,-12.78 h 0.34 v 0 c 5.11,-7.9 13.17,-12.52 20.75,-12.52 7.58,0 12.57,4.25 18.94,4.25 6.19,0 10,-4.26 18.89,-4.26 m 0,-7 a 35.65,35.65 0 0 0 -13.72,2.88 c -2.32,0.88 -3.71,1.38 -5.17,1.38 a 19.25,19.25 0 0 1 -6.18,-1.57 36.42,36.42 0 0 0 -12.76,-2.68 c -9.59,0 -19.23,5.37 -25.55,14.14 a 7.09,7.09 0 0 0 -1.44,1.6 37.5,37.5 0 0 0 -5.19,15.88 7,7 0 0 0 0.11,2 55.58,55.58 0 0 0 0.6,12.42 7,7 0 0 0 6.91,5.92 H 374 a 7,7 0 0 0 6.4,-9.83 15.8,15.8 0 0 1 -1.3,-7.14 6.91,6.91 0 0 0 0.45,-1.57 14.41,14.41 0 0 1 5,-8.56 6.94,6.94 0 0 0 1,-1 c 0.36,-0.24 0.72,-0.45 1.09,-0.65 a 7,7 0 0 0 3.5,-4.77 7,7 0 0 0 -1.39,-5.74 c -6.35,-8 -15.49,-12.7 -24.45,-12.7 z"
       fill="#ffffff"
       id="path45" />
    <path
       d="m 328.42,109.69 c -8.69,-0.08 -14.86,-7.63 -19.26,-14.2 l -0.65,-1 a 68.15,68.15 0 0 1 -6.39,-12.35 63.44,63.44 0 0 1 -3.67,-13.4 3.5,3.5 0 0 1 3.46,-4 H 374 a 3.49,3.49 0 0 1 3.2,2.09 18.12,18.12 0 0 0 10.22,9.69 3.5,3.5 0 0 1 1.95,4.71 l -0.5,1.11 a 70,70 0 0 1 -6.18,11.4 c -0.39,0.6 -0.79,1.19 -1.19,1.79 -4.46,6.55 -10.65,14.09 -19,14.17 h -0.16 a 18.59,18.59 0 0 1 -8.41,-2.17 17.33,17.33 0 0 0 -8.23,-2 h -0.12 a 18.35,18.35 0 0 0 -8.48,2 19.4,19.4 0 0 1 -8.49,2.14 z"
       fill="#009ddc"
       id="path47" />
    <path
       d="M 301.91,68.22 H 374 a 21.5,21.5 0 0 0 12.18,11.55 l -0.5,1.12 v 0 a 68,68 0 0 1 -5.92,10.92 l -1.15,1.73 c -4.07,6 -9.54,12.58 -16.17,12.64 h -0.13 c -6.33,0 -8,-4.18 -16.64,-4.18 h -0.14 c -8.72,0 -10.59,4.19 -17,4.19 h -0.14 C 321.47,106.13 316.1,99.66 312,93.54 v 0 c -0.22,-0.31 -0.43,-0.63 -0.64,-1 A 65.27,65.27 0 0 1 305.3,80.83 v 0 a 60.44,60.44 0 0 1 -3.46,-12.66 m 0,-7 a 7,7 0 0 0 -6.84,8.13 66,66 0 0 0 3.86,14.14 71.57,71.57 0 0 0 6.72,13 c 0.22,0.35 0.44,0.68 0.66,1 4.89,7.29 11.82,15.67 22.15,15.76 h 0.2 a 22.62,22.62 0 0 0 9.92,-2.45 15,15 0 0 1 7.07,-1.74 h 0.1 a 13.82,13.82 0 0 1 6.76,1.69 21.93,21.93 0 0 0 9.88,2.49 h 0.19 c 10.12,-0.1 17.34,-9 21.9,-15.71 0.41,-0.6 0.82,-1.22 1.22,-1.84 a 73.87,73.87 0 0 0 6.44,-11.86 v -0.09 l 0.47,-1 a 7,7 0 0 0 -3.91,-9.41 14.66,14.66 0 0 1 -8.26,-7.84 7,7 0 0 0 -6.4,-4.17 z"
       fill="#ffffff"
       id="path49" />
    <text
       id="_Group_"
       data-name="&lt;Group&gt;"
       transform="translate(307.14,51.71)"
       font-size="7.06px"
       fill="#ff0000"
       font-family="ArialMT, Arial"
       style="isolation:isolate">B<tspan
   x="4.71"
   y="0"
   letter-spacing="-0.07em"
   id="tspan51">A</tspan><tspan
   x="8.8900003"
   y="0"
   letter-spacing="-0.02em"
   id="tspan53">T</tspan><tspan
   x="13.07"
   y="0"
   id="tspan55">OCER</tspan><tspan
   x="33.459999"
   y="0"
   letter-spacing="-0.06em"
   id="tspan57">A</tspan><tspan
   x="37.77"
   y="0"
   xml:space="preserve"
   id="tspan59"> SUCKS!</tspan></text>
    <path
       d="m 462.1,78.5 c 0.61,1.92 1.16,3.47 1.65,4.62 a 6.22,6.22 0 0 0 2.4,2.81 4.78,4.78 0 0 0 2.11,0.95 c 0.63,0.08 0.95,0.37 0.95,0.87 0,0.77 -0.58,1.16 -1.74,1.16 a 20.94,20.94 0 0 1 -2.77,-0.25 28.67,28.67 0 0 0 -4.17,-0.25 c -2.31,0 -4.17,0.07 -5.57,0.21 -1.4,0.14 -2.39,0.2 -2.94,0.2 -0.93,0 -1.4,-0.33 -1.4,-1 q 0,-1.32 1.65,-1.32 a 6,6 0 0 0 2.73,-0.4 1.71,1.71 0 0 0 0.66,-1.57 16.1,16.1 0 0 0 -0.75,-3.72 l -3.22,-10.58 c -0.11,-0.44 -0.52,-0.66 -1.24,-0.66 h -10.24 a 0.92,0.92 0 0 0 -0.54,0.21 0.89,0.89 0 0 0 -0.37,0.54 l -2,7.35 a 33.93,33.93 0 0 0 -1.22,6.33 2.09,2.09 0 0 0 0.49,1.65 3.31,3.31 0 0 0 1.65,0.58 12,12 0 0 1 2.48,0.58 1.23,1.23 0 0 1 0.83,1.24 c 0,0.66 -0.47,1 -1.4,1 a 21.27,21.27 0 0 1 -2.73,-0.25 34.87,34.87 0 0 0 -4.46,-0.24 22.7,22.7 0 0 0 -3.18,0.2 15.48,15.48 0 0 1 -2.28,0.21 c -1,0 -1.48,-0.36 -1.48,-1.07 a 0.88,0.88 0 0 1 0.41,-0.87 3.14,3.14 0 0 1 1,-0.29 l 1.33,-0.17 a 2.79,2.79 0 0 0 1.36,-0.58 4.89,4.89 0 0 0 1.73,-2.35 c 0.39,-1 0.8,-2.27 1.24,-3.76 l 13.14,-42.63 c 0.22,-0.61 0.4,-1.09 0.54,-1.45 a 0.81,0.81 0 0 1 0.86,-0.53 c 0.61,0 1,0.35 1.16,1.07 0.16,0.72 0.44,1.65 0.83,2.81 z m -17,-28.67 c -0.22,0 -0.38,0.22 -0.49,0.66 l -3.91,14.62 a 2.25,2.25 0 0 0 -0.08,0.58 v 0.25 c 0,0.33 0.19,0.49 0.58,0.49 h 8.26 a 0.84,0.84 0 0 0 0.5,-0.2 0.6,0.6 0 0 0 0.24,-0.46 A 4.71,4.71 0 0 0 450,65 l -4.46,-14.38 c -0.17,-0.5 -0.33,-0.74 -0.5,-0.74 z"
       fill="#040404"
       id="path62" />
    <path
       d="m 477.8,56.52 c 0,0.38 0.08,0.58 0.25,0.58 0.17,0 0.38,-0.14 0.66,-0.42 l 0.82,-1 a 14.72,14.72 0 0 1 4.38,-3.59 11,11 0 0 1 10.08,0.21 13.18,13.18 0 0 1 4.3,3.71 19,19 0 0 1 2.89,5.87 25.74,25.74 0 0 1 1.07,7.68 26.94,26.94 0 0 1 -1.25,8.44 20.59,20.59 0 0 1 -3.48,6.57 15.91,15.91 0 0 1 -5.31,4.3 15.11,15.11 0 0 1 -6.79,1.52 14.24,14.24 0 0 1 -7.22,-1.9 l -0.33,0.25 -0.08,11.73 a 7.33,7.33 0 0 0 0.25,2.23 2,2 0 0 0 1.24,1.16 4.67,4.67 0 0 0 1.61,0.5 c 0.52,0 1,0.11 1.32,0.16 a 2,2 0 0 1 0.87,0.33 1.2,1.2 0 0 1 0.33,1 c 0,0.77 -0.58,1.16 -1.74,1.16 a 25.61,25.61 0 0 1 -3.5,-0.25 30.85,30.85 0 0 0 -4,-0.25 26.25,26.25 0 0 0 -3.77,0.25 18.69,18.69 0 0 1 -2.8,0.25 c -1,0 -1.49,-0.44 -1.49,-1.32 0,-0.88 0.3,-1.16 0.91,-1.16 a 6,6 0 0 0 2.15,-0.49 2.55,2.55 0 0 0 1.44,-1.16 5.7,5.7 0 0 0 0.37,-2.4 V 63.13 a 5.33,5.33 0 0 0 -0.57,-3 2.67,2.67 0 0 0 -1.28,-0.95 6.14,6.14 0 0 0 -1.29,-0.24 q -0.57,0 -0.57,-0.87 c 0,-0.66 0.42,-1.14 1.28,-1.45 a 14.39,14.39 0 0 0 3.18,-1.77 19.18,19.18 0 0 0 3.47,-2.9 c 0.71,-0.82 1.29,-1.23 1.73,-1.23 0.44,0 0.83,0.57 0.83,1.73 v 4.05 z m 1.82,29.65 a 6.33,6.33 0 0 0 4.9,1.91 8.61,8.61 0 0 0 4.4,-1.16 10.84,10.84 0 0 0 3.45,-3.28 16.48,16.48 0 0 0 2.24,-5.07 25.14,25.14 0 0 0 0.79,-6.44 q 0,-7.39 -3.12,-11.46 a 9.5,9.5 0 0 0 -7.84,-4.07 c -2.32,0 -4,0.68 -5,2 -1,1.32 -1.54,3.42 -1.54,6.18 v 15.49 q 0,4 1.74,5.9 z m 35.77,-29.65 c 0,0.38 0.08,0.58 0.25,0.58 0.17,0 0.38,-0.14 0.66,-0.42 l 0.83,-1 a 14.48,14.48 0 0 1 4.38,-3.59 11,11 0 0 1 10.07,0.21 13.08,13.08 0 0 1 4.3,3.71 18.82,18.82 0 0 1 2.89,5.87 25.73,25.73 0 0 1 1.08,7.68 26.94,26.94 0 0 1 -1.25,8.44 20.59,20.59 0 0 1 -3.48,6.57 16,16 0 0 1 -5.3,4.3 15.19,15.19 0 0 1 -6.8,1.52 14.21,14.21 0 0 1 -7.21,-1.9 l -0.34,0.25 -0.08,11.73 a 7.33,7.33 0 0 0 0.25,2.23 2,2 0 0 0 1.24,1.16 4.74,4.74 0 0 0 1.61,0.5 c 0.52,0 1,0.11 1.32,0.16 a 2,2 0 0 1 0.87,0.33 1.2,1.2 0 0 1 0.33,1 c 0,0.77 -0.58,1.16 -1.74,1.16 a 25.72,25.72 0 0 1 -3.5,-0.25 30.73,30.73 0 0 0 -4,-0.25 26.35,26.35 0 0 0 -3.77,0.25 18.69,18.69 0 0 1 -2.8,0.25 c -1,0 -1.49,-0.44 -1.49,-1.32 0,-0.88 0.3,-1.16 0.91,-1.16 a 5.94,5.94 0 0 0 2.15,-0.49 2.55,2.55 0 0 0 1.44,-1.16 5.67,5.67 0 0 0 0.38,-2.4 V 63.13 a 5.31,5.31 0 0 0 -0.58,-3 2.63,2.63 0 0 0 -1.28,-0.95 6.17,6.17 0 0 0 -1.28,-0.24 c -0.39,0 -0.58,-0.32 -0.58,-0.87 0,-0.55 0.43,-1.14 1.28,-1.45 a 14.39,14.39 0 0 0 3.18,-1.77 19.18,19.18 0 0 0 3.47,-2.9 c 0.72,-0.82 1.29,-1.23 1.74,-1.23 0.45,0 0.82,0.57 0.82,1.73 v 4.05 z m 1.83,29.65 a 6.29,6.29 0 0 0 4.89,1.91 8.58,8.58 0 0 0 4.4,-1.16 10.84,10.84 0 0 0 3.49,-3.28 16.48,16.48 0 0 0 2.24,-5.07 24.7,24.7 0 0 0 0.79,-6.44 q 0,-7.39 -3.11,-11.46 A 9.52,9.52 0 0 0 522,56.6 c -2.32,0 -4,0.68 -5,2 -1,1.32 -1.54,3.42 -1.54,6.18 v 15.49 c 0,2.66 0.59,4.63 1.75,5.9 z m 35.68,-3.63 c 0,1.82 0.52,3 1.57,3.47 a 3.31,3.31 0 0 0 1.32,0.38 c 0.44,0 0.84,0.07 1.2,0.12 a 1.73,1.73 0 0 1 0.87,0.37 1.34,1.34 0 0 1 0.33,1 c 0,0.78 -0.55,1.16 -1.65,1.16 a 23.33,23.33 0 0 1 -3.22,-0.25 29.24,29.24 0 0 0 -3.85,-0.24 27.36,27.36 0 0 0 -3.81,0.24 19.39,19.39 0 0 1 -2.84,0.25 c -1,0 -1.49,-0.44 -1.49,-1.32 0,-0.88 0.28,-1.16 0.83,-1.16 a 6.54,6.54 0 0 0 2.23,-0.49 2.08,2.08 0 0 0 1.4,-1.12 A 5.89,5.89 0 0 0 546,83 V 40 a 2.07,2.07 0 0 0 -0.53,-1.57 3.59,3.59 0 0 0 -1.24,-0.75 13.31,13.31 0 0 1 -1.24,-0.49 0.81,0.81 0 0 1 -0.54,-0.75 c 0,-0.6 0.37,-1 1.11,-1.19 a 26.36,26.36 0 0 0 2.6,-0.87 19.48,19.48 0 0 0 4.21,-2 4.74,4.74 0 0 1 1.75,-0.95 c 0.44,0 0.71,0.14 0.82,0.42 a 3.17,3.17 0 0 1 0.17,1.15 c 0,0.72 0,1.55 -0.13,2.48 -0.13,0.93 -0.12,2 -0.12,3.14 v 43.92 z m 14.38,-17 c -0.44,0 -0.72,0.09 -0.83,0.25 a 2.3,2.3 0 0 0 -0.16,1.08 v 2 q 0,7.68 3.26,12.14 a 10,10 0 0 0 8.45,4.43 9.86,9.86 0 0 0 4,-0.75 11.89,11.89 0 0 0 2.8,-1.65 12.94,12.94 0 0 0 1.74,-1.65 q 0.61,-0.75 0.87,-0.75 c 0.44,0 0.66,0.31 0.66,0.91 a 4.78,4.78 0 0 1 -1,2.4 12.77,12.77 0 0 1 -2.85,2.93 19.07,19.07 0 0 1 -4.42,2.52 14.79,14.79 0 0 1 -5.79,1.07 13.68,13.68 0 0 1 -6.15,-1.36 13.42,13.42 0 0 1 -4.75,-3.92 18.35,18.35 0 0 1 -3.06,-6.2 28.69,28.69 0 0 1 -1.05,-8.18 26.4,26.4 0 0 1 1.19,-8.22 18.62,18.62 0 0 1 3.35,-6.24 15,15 0 0 1 5.08,-4 14.6,14.6 0 0 1 6.38,-1.35 14.24,14.24 0 0 1 5.46,1 13.07,13.07 0 0 1 4.21,2.77 12.37,12.37 0 0 1 2.69,4 13,13 0 0 1 1,5 1.4,1.4 0 0 1 -0.67,1.4 5.09,5.09 0 0 1 -2.14,0.33 z m 11.94,-3.47 c 1.24,-0.6 1.85,-1.81 1.85,-3.63 a 5.32,5.32 0 0 0 -1.69,-3.8 5.79,5.79 0 0 0 -4.38,-1.76 6.8,6.8 0 0 0 -5,2.23 10.92,10.92 0 0 0 -2.81,5.62 L 567,62.05 v 0.17 c 0,0.5 0.33,0.74 1,0.74 h 5.37 a 14.19,14.19 0 0 0 5.91,-0.91 z"
       fill="#040404"
       id="path64" />
    <path
       d="m 660.68,75.19 a 4.9,4.9 0 0 0 -0.27,-2 2.26,2.26 0 0 0 -1.46,-0.78 9.11,9.11 0 0 0 -1.17,-0.14 c -0.3,0 -0.59,0 -0.89,-0.09 a 1.4,1.4 0 0 1 -0.6,-0.21 0.66,0.66 0 0 1 -0.21,-0.57 q 0,-0.84 1,-0.84 a 16.18,16.18 0 0 1 2.12,0.24 27.47,27.47 0 0 0 4.09,0.24 29.62,29.62 0 0 0 4.36,-0.24 16.46,16.46 0 0 1 1.91,-0.24 q 0.9,0 0.9,0.78 a 0.75,0.75 0 0 1 -0.21,0.6 1.12,1.12 0 0 1 -0.54,0.24 c -0.25,0 -0.51,0.07 -0.77,0.09 a 6.63,6.63 0 0 0 -1,0.15 c -0.72,0.16 -1.17,0.4 -1.34,0.74 a 5.12,5.12 0 0 0 -0.27,2.06 v 9.08 a 4,4 0 0 1 -0.93,2.54 7.26,7.26 0 0 1 -2.54,2 15.4,15.4 0 0 1 -3.7,1.16 21.76,21.76 0 0 1 -4.51,0.45 16.19,16.19 0 0 1 -6.84,-1.45 15.84,15.84 0 0 1 -5.38,-4 18.24,18.24 0 0 1 -3.49,-6 22.76,22.76 0 0 1 -1.26,-7.71 23.5,23.5 0 0 1 1.41,-8.29 20.36,20.36 0 0 1 3.85,-6.55 17.49,17.49 0 0 1 5.85,-4.3 17.72,17.72 0 0 1 7.41,-1.55 19.71,19.71 0 0 1 3,0.22 20.73,20.73 0 0 1 2.6,0.55 13.5,13.5 0 0 1 2,0.74 3.47,3.47 0 0 1 1.1,0.76 q 0.72,0.72 0.72,5.79 0,1.68 -0.78,1.68 c -0.44,0 -0.74,-0.27 -0.92,-0.81 -0.18,-0.54 -0.43,-1.2 -0.75,-2 q -2.09,-5.27 -7.35,-5.26 a 8.88,8.88 0 0 0 -4.75,1.35 12.12,12.12 0 0 0 -3.79,3.82 19.88,19.88 0 0 0 -2.51,6 31.3,31.3 0 0 0 -0.9,7.8 26.07,26.07 0 0 0 0.93,7.23 18.73,18.73 0 0 0 2.53,5.53 11.78,11.78 0 0 0 3.7,3.56 8.8,8.8 0 0 0 4.51,1.25 6.52,6.52 0 0 0 2.75,-0.48 3.57,3.57 0 0 0 1.56,-1.33 5.22,5.22 0 0 0 0.68,-2.06 21.38,21.38 0 0 0 0.15,-2.64 z m 19,-18.4 a 9.22,9.22 0 0 1 5.43,-5.41 12.16,12.16 0 0 1 4.4,-0.75 13,13 0 0 1 4.45,0.71 5.81,5.81 0 0 1 2.36,1.26 q 0.47,0.6 0.47,6.51 c 0,0.84 -0.26,1.26 -0.77,1.26 -0.51,0 -0.73,-0.27 -0.87,-0.81 a 20.19,20.19 0 0 0 -0.86,-2.36 12.12,12.12 0 0 0 -2.1,-3.64 4.1,4.1 0 0 0 -3.22,-1.26 5.47,5.47 0 0 0 -4.21,1.64 6.33,6.33 0 0 0 -1.53,4.5 5.56,5.56 0 0 0 1.35,3.87 14.94,14.94 0 0 0 4.21,3 44.06,44.06 0 0 1 4.21,2.48 14.9,14.9 0 0 1 3.14,2.77 10.74,10.74 0 0 1 1.94,3.44 13.46,13.46 0 0 1 0.66,4.41 13,13 0 0 1 -0.87,4.82 11.63,11.63 0 0 1 -2.39,3.77 11,11 0 0 1 -3.64,2.53 11.43,11.43 0 0 1 -4.63,0.93 14,14 0 0 1 -6.4,-1.26 4.07,4.07 0 0 1 -2.45,-3.82 c 0,-0.68 0,-1.34 0.06,-2 0.06,-0.66 0.06,-1.24 0.06,-1.8 0,-0.56 0,-0.78 0,-1 0,-0.22 0,-0.43 0,-0.51 0,-1.23 0.3,-1.85 0.9,-1.85 a 0.63,0.63 0 0 1 0.6,0.33 2.85,2.85 0 0 1 0.27,0.89 l 0.21,1.35 a 13,13 0 0 0 0.35,1.61 9.45,9.45 0 0 0 2.9,4.72 6.59,6.59 0 0 0 4.27,1.67 6,6 0 0 0 2.51,-0.54 6.12,6.12 0 0 0 2.06,-1.49 7.24,7.24 0 0 0 1.38,-2.28 8.09,8.09 0 0 0 -1.2,-7.8 16.52,16.52 0 0 0 -5.11,-4.1 c -1.13,-0.64 -2.25,-1.3 -3.37,-2 a 12.29,12.29 0 0 1 -2.75,-2.21 9.62,9.62 0 0 1 -1.85,-3 11.92,11.92 0 0 1 -0.75,-4.37 11.56,11.56 0 0 1 0.75,-4.25 z"
       fill="#040404"
       id="path66" />
    <path
       d="m 614.21,82.71 c 0,0.88 0,1.6 0,2.15 a 4.46,4.46 0 0 0 0.25,1.36 1.9,1.9 0 0 0 0.66,0.87 4.4,4.4 0 0 0 1.28,0.58 4.64,4.64 0 0 0 1.41,0.24 6.47,6.47 0 0 1 1.19,0.09 1.39,1.39 0 0 1 0.79,0.37 1.32,1.32 0 0 1 0.29,0.95 c 0,0.77 -0.58,1.16 -1.74,1.16 -0.49,0 -1.39,-0.09 -2.68,-0.25 a 53.48,53.48 0 0 0 -10.33,0 c -1.29,0.16 -2.19,0.25 -2.68,0.25 -1.16,0 -1.74,-0.44 -1.74,-1.33 a 1,1 0 0 1 0.29,-0.82 1.44,1.44 0 0 1 0.74,-0.33 6,6 0 0 1 1,-0.09 4.14,4.14 0 0 0 1.15,-0.16 5.77,5.77 0 0 0 1.53,-0.58 2,2 0 0 0 0.79,-0.87 3.76,3.76 0 0 0 0.28,-1.4 c 0,-0.58 0,-1.31 0,-2.19 V 44.87 a 8.32,8.32 0 0 0 -0.29,-2.69 2.35,2.35 0 0 0 -1.4,-1.11 5.34,5.34 0 0 0 -1.57,-0.25 8.72,8.72 0 0 1 -1.2,-0.08 2,2 0 0 1 -0.83,-0.29 1,1 0 0 1 -0.28,-0.87 c 0,-0.77 0.41,-1.16 1.24,-1.16 a 20.91,20.91 0 0 1 2.64,0.34 35.69,35.69 0 0 0 5.53,0.33 35.74,35.74 0 0 0 5.54,-0.33 20.91,20.91 0 0 1 2.64,-0.34 c 0.83,0 1.24,0.39 1.24,1.16 a 1,1 0 0 1 -0.24,0.79 1.75,1.75 0 0 1 -0.75,0.29 c -0.33,0.05 -0.71,0.09 -1.15,0.12 a 9.44,9.44 0 0 0 -1.41,0.21 q -1.58,0.33 -1.86,1.11 a 9.18,9.18 0 0 0 -0.29,2.77 v 37.84 z"
       fill="#040404"
       id="path68" />
    <path
       d="m 631.73,82.71 c 0,0.88 0,1.6 0,2.15 a 4.46,4.46 0 0 0 0.25,1.36 1.9,1.9 0 0 0 0.66,0.87 4.4,4.4 0 0 0 1.28,0.58 4.53,4.53 0 0 0 1.4,0.24 6.59,6.59 0 0 1 1.16,0.09 1.36,1.36 0 0 1 0.78,0.37 1.27,1.27 0 0 1 0.29,0.95 c 0,0.77 -0.57,1.16 -1.73,1.16 -0.5,0 -1.39,-0.09 -2.69,-0.25 a 53.38,53.38 0 0 0 -10.32,0 c -1.3,0.16 -2.19,0.25 -2.69,0.25 -1.16,0 -1.73,-0.44 -1.73,-1.33 a 1,1 0 0 1 0.28,-0.82 1.48,1.48 0 0 1 0.75,-0.33 5.89,5.89 0 0 1 1,-0.09 4.27,4.27 0 0 0 1.16,-0.16 5.77,5.77 0 0 0 1.53,-0.58 2,2 0 0 0 0.78,-0.87 3.75,3.75 0 0 0 0.29,-1.4 c 0,-0.58 0,-1.31 0,-2.19 V 44.87 a 8.32,8.32 0 0 0 -0.29,-2.69 2.33,2.33 0 0 0 -1.53,-1.11 5.29,5.29 0 0 0 -1.57,-0.25 8.46,8.46 0 0 1 -1.19,-0.08 2,2 0 0 1 -0.83,-0.29 1,1 0 0 1 -0.29,-0.87 c 0,-0.77 0.41,-1.16 1.24,-1.16 a 20.91,20.91 0 0 1 2.64,0.34 35.83,35.83 0 0 0 5.54,0.33 35.6,35.6 0 0 0 5.53,-0.33 21.21,21.21 0 0 1 2.65,-0.34 c 0.83,0 1.24,0.39 1.24,1.16 a 1,1 0 0 1 -0.25,0.79 1.65,1.65 0 0 1 -0.74,0.29 c -0.33,0.05 -0.72,0.09 -1.16,0.12 a 9.32,9.32 0 0 0 -1.4,0.21 q -1.57,0.33 -1.86,1.11 a 8.86,8.86 0 0 0 -0.29,2.77 v 37.84 z"
       fill="#040404"
       id="path70" />
    <path
       d="m 305.65,42.9 0.1,-0.15 c 5.11,-7.9 13.17,-12.52 20.75,-12.52 7.58,0 12.57,4.25 18.94,4.25 6.19,0 10,-4.26 18.89,-4.26 6.74,0 13.89,3.69 19,10.06 a 22.78,22.78 0 0 0 -3.81,2.62 z"
       fill="#61bb46"
       stroke="#61bb46"
       stroke-miterlimit="2.61"
       stroke-width="1.15"
       id="path72" />
    <path
       d="M 357.56,23.11 C 360.8,18.93 363.26,13 362.37,7 c -5.3,0.36 -11.49,3.75 -15.11,8.16 -3.28,4 -6,9.94 -4.94,15.71 5.79,0.18 11.77,-3.29 15.24,-7.76 z"
       fill="#61bb46"
       stroke="#61bb46"
       stroke-miterlimit="2.61"
       stroke-width="1.15"
       id="path74" />
    <path
       d="m 305.39,42.78 a 30.73,30.73 0 0 0 -4.13,12.78 h 71.39 a 21.37,21.37 0 0 1 7.4,-12.77 z"
       fill="#fdb827"
       id="path76" />
    <path
       d="m 301.91,68.22 a 48.57,48.57 0 0 1 -0.37,-12.66 h 70.83 A 22.56,22.56 0 0 0 374,68.22 Z"
       fill="#f5821f"
       stroke="#f5821f"
       stroke-miterlimit="2.61"
       stroke-width="1.15"
       id="path78" />
    <path
       d="M 305.37,80.88 A 60.44,60.44 0 0 1 301.91,68.22 H 374 a 21.5,21.5 0 0 0 12.18,11.55 l -0.5,1.12 z"
       fill="#e03a3e"
       stroke="#e03a3e"
       stroke-miterlimit="2.61"
       stroke-width="1.15"
       id="path80" />
    <path
       d="m 385.69,80.88 a 67.65,67.65 0 0 1 -5.92,10.93 l -1.15,1.73 h -66.55 c -0.22,-0.31 -0.43,-0.63 -0.64,-1 a 65.27,65.27 0 0 1 -6.06,-11.71 z"
       fill="#963d97"
       stroke="#963d97"
       stroke-miterlimit="2.61"
       stroke-width="1.15"
       id="path82" />
    <path
       d="m 378.62,93.54 c -4.07,6 -9.54,12.58 -16.17,12.64 -6.47,0.06 -8.13,-4.23 -16.91,-4.18 -8.78,0.05 -10.62,4.25 -17.09,4.19 -6.92,-0.06 -12.29,-6.53 -16.39,-12.65 z"
       fill="#009ddc"
       stroke="#009ddc"
       stroke-miterlimit="2.61"
       stroke-width="1.15"
       id="path84" />
  </g>
  <metadata
     id="metadata908">
    <rdf:RDF>
      <cc:Work
         rdf:about="">
        <dc:title>logo</dc:title>
      </cc:Work>
    </rdf:RDF>
  </metadata>
</svg>
