<?xml version="1.0" encoding="UTF-8" standalone="no"?>
<!-- Generator: Adobe Illustrator 22.1.0, SVG Export Plug-In . SVG Version: 6.00 Build 0)  -->

<svg
   version="1.0"
   id="Redraw"
   x="0px"
   y="0px"
   width="162.96425"
   height="41.410503"
   viewBox="0 0 162.96425 41.410503"
   enable-background="new 0 0 2160 680"
   xml:space="preserve"
   sodipodi:docname="arcade.svg"
   inkscape:version="1.1 (c68e22c387, 2021-05-23)"
   xmlns:inkscape="http://www.inkscape.org/namespaces/inkscape"
   xmlns:sodipodi="http://sodipodi.sourceforge.net/DTD/sodipodi-0.dtd"
   xmlns="http://www.w3.org/2000/svg"
   xmlns:svg="http://www.w3.org/2000/svg"><defs
   id="defs330">
	
	
	
	

		
		
		
		
		
		
		
		
		
		
	
			
			
			
			
			
			
		
			
			
			
			
			
			
		</defs><sodipodi:namedview
   id="namedview328"
   pagecolor="#ffffff"
   bordercolor="#666666"
   borderopacity="1.0"
   inkscape:pageshadow="2"
   inkscape:pageopacity="0.0"
   inkscape:pagecheckerboard="0"
   showgrid="false"
   fit-margin-top="0"
   fit-margin-left="0"
   fit-margin-right="0"
   fit-margin-bottom="0"
   inkscape:zoom="2.9148513"
   inkscape:cx="87.311487"
   inkscape:cy="23.328806"
   inkscape:window-width="1920"
   inkscape:window-height="1138"
   inkscape:window-x="-8"
   inkscape:window-y="-8"
   inkscape:window-maximized="1"
   inkscape:current-layer="Redraw" />
<g
   id="g2947"><rect
     style="fill:#ffffff;fill-rule:evenodd;stroke:none;stroke-width:2.84297;stroke-linecap:round;stroke-linejoin:round;stroke-miterlimit:4;stroke-dasharray:none;paint-order:stroke markers fill"
     id="rect2704"
     width="16.810463"
     height="14.065898"
     x="35.883217"
     y="5.5094366" /><rect
     style="fill:#ffffff;fill-rule:evenodd;stroke:none;stroke-width:2.84297;stroke-linecap:round;stroke-linejoin:round;stroke-miterlimit:4;stroke-dasharray:none;paint-order:stroke markers fill"
     id="rect2830"
     width="16.810463"
     height="14.065898"
     x="9.8832169"
     y="13.509437" /><rect
     style="fill:#ffffff;fill-rule:evenodd;stroke:none;stroke-width:9.59391;stroke-linecap:round;stroke-linejoin:round;stroke-miterlimit:4;stroke-dasharray:none;paint-order:stroke markers fill"
     id="rect2832"
     width="104.97963"
     height="25.650082"
     x="49.883217"
     y="8.0421" /><path
     fill="#d80500"
     d="M 27.994832,38.473013 C 26.245012,38.324304 25.029624,37.509172 24.347911,36.026862 24.169964,35.641981 23.784326,34.144296 23.191587,31.5349 L 12.473051,30.600969 c -1.008287,2.431448 -1.645554,3.824868 -1.912476,4.180679 C 9.6411783,36.14583 8.3216093,36.753104 6.6023721,36.605066 5.4161379,36.486267 4.4230585,35.990147 3.6225458,35.115195 2.8219491,34.241084 2.4815127,33.19583 2.5997244,31.97977 2.6296344,31.446094 2.8074141,30.853355 3.1333996,30.200712 L 14.118605,6.851248 c 0.592739,-1.215304 1.43022,-2.1938485 2.512861,-2.9352974 1.081969,-0.7407767 2.305087,-1.0520592 3.669185,-0.9340155 2.786671,0.2377677 4.581019,1.8679471 5.381532,4.8923023 l 6.582218,24.8615996 c 0.207101,0.800429 0.296075,1.482814 0.266837,2.045811 -0.118799,1.186234 -0.622649,2.119494 -1.512051,2.801879 -0.889487,0.681713 -1.897941,0.978376 -3.024355,0.889486 z M 19.188771,14.056199 c -0.622649,1.867947 -1.734528,4.6852 -3.335637,8.450332 l 5.381532,0.444702 z"
     id="path42"
     style="stroke:#ffffff;stroke-width:5.16353;stroke-linecap:round;stroke-linejoin:round;stroke-miterlimit:4;stroke-dasharray:none;paint-order:stroke markers fill" /><path
     fill="#ff8b00"
     d="m 39.883219,25.575332 c 0.08906,1.541961 0,3.899223 -0.266754,7.071448 -0.05982,1.394092 -0.555939,2.468415 -1.489955,3.224483 -0.933932,0.756152 -2.053456,1.074324 -3.357818,0.956196 -1.275124,-0.1188 -2.298114,-0.629538 -3.0688,-1.534316 -0.771275,-0.90419 -1.08197,-2.038249 -0.933932,-3.402431 L 32.945274,6.9848348 C 33.063317,5.5915831 33.560193,4.5164192 34.435145,3.7603514 35.309256,3.0043676 36.4434,2.6860277 37.837408,2.8041554 l 7.783155,0.6670939 c 3.52812,0.3266576 6.255728,1.349563 8.183495,3.0688002 2.045811,1.8388773 3.0688,4.3884535 3.0688,7.6497365 0,0.474527 -0.01529,0.963841 -0.04461,1.467606 -0.20769,2.312649 -1.082641,4.210506 -2.623931,5.692899 -1.394092,1.364014 -3.1876,2.268204 -5.381448,2.712905 l 5.648286,7.204951 c 0.711623,0.919396 1.022989,1.853412 0.933931,2.801878 -0.08889,1.186235 -0.593327,2.201494 -1.512051,3.046536 -0.919397,0.845042 -2.016657,1.207827 -3.291193,1.089615 -1.423162,-0.1188 -2.520506,-0.741449 -3.291193,-1.867947 z m 5.025805,-13.742892 -3.469141,-0.311282 -0.48923,5.603841 3.469141,0.311282 c 2.0159,0.177948 3.09787,-0.681628 3.24658,-2.579486 0.177863,-1.838121 -0.741449,-2.846407 -2.75735,-3.024355 z"
     id="path44"
     style="stroke:#ffffff;stroke-width:5.16353;stroke-linecap:round;stroke-linejoin:round;stroke-miterlimit:4;stroke-dasharray:none;paint-order:stroke markers fill" /><path
     fill="#fff301"
     d="m 69.932524,38.028312 c -4.180679,-0.652643 -7.531608,-2.549744 -10.051358,-5.692899 -2.461442,-3.053425 -3.691533,-6.68581 -3.691533,-10.896316 0,-1.067434 0.08906,-2.134869 0.266837,-3.202219 0.681797,-4.417607 2.512861,-8.012437 5.492687,-10.7850774 2.979827,-2.7721366 6.544747,-4.158415 10.696272,-4.158415 0.889487,0 1.808043,0.074355 2.757434,0.2223087 2.193848,0.3558954 4.225124,1.0973443 6.092987,2.2237585 2.371796,1.4233298 3.558031,3.0396463 3.558031,4.8478572 0,1.097345 -0.377992,2.053457 -1.134144,2.868588 -0.756152,0.815888 -1.68311,1.223118 -2.779698,1.223118 -0.771275,0 -1.942302,-0.459404 -3.513418,-1.378717 -1.12717,-0.651887 -2.328023,-1.067434 -3.602475,-1.245382 -0.385806,-0.05898 -0.785978,-0.08889 -1.200937,-0.08889 -1.927599,0 -3.543328,0.711539 -4.84769,2.134701 -1.305118,1.423329 -2.134868,3.321019 -2.490596,5.692899 -0.1188,0.682385 -0.177947,1.349479 -0.177947,2.001366 0,2.045894 0.503849,3.751185 1.512219,5.114695 1.067267,1.453071 2.549576,2.328023 4.447517,2.62393 0.444702,0.05982 0.874112,0.08889 1.289659,0.08889 0.800597,0 1.771412,-0.147953 2.913201,-0.444701 1.141033,-0.296075 1.949192,-0.444785 2.423803,-0.444785 1.245382,0 2.275261,0.49696 3.091149,1.489871 0.815131,0.993835 1.118768,2.08345 0.911667,3.268928 -0.266838,1.69 -1.378717,2.950001 -3.335638,3.780423 -1.571872,0.651887 -3.484348,0.978377 -5.737344,0.978377 -1.038029,-8.4e-5 -2.001282,-0.07436 -2.890685,-0.222309 z"
     id="path46"
     style="fill:#ffd42a;stroke:#ffffff;stroke-width:5.16353;stroke-linecap:round;stroke-linejoin:round;stroke-miterlimit:4;stroke-dasharray:none;paint-order:stroke markers fill" /><path
     fill="#37ae00"
     d="m 106.05045,38.473013 c -1.74982,-0.148709 -2.9652,-0.963841 -3.64692,-2.446151 -0.17795,-0.384881 -0.56358,-1.882566 -1.15632,-4.491962 L 90.528672,30.600969 c -1.008287,2.431448 -1.645554,3.824868 -1.912476,4.180679 -0.919397,1.364182 -2.238966,1.971456 -3.958203,1.823418 -1.186234,-0.118799 -2.179313,-0.614919 -2.979826,-1.489871 -0.800597,-0.874111 -1.141033,-1.919365 -1.022822,-3.135425 0.02991,-0.533676 0.20769,-1.126415 0.533676,-1.779058 L 92.174226,6.851332 c 0.592739,-1.215304 1.43022,-2.1938485 2.512861,-2.9352973 1.081969,-0.7407768 2.305087,-1.0520593 3.669185,-0.9340156 2.786668,0.2377678 4.581018,1.8679471 5.381528,4.8923023 l 6.58222,24.8615996 c 0.2071,0.800429 0.29608,1.482814 0.26684,2.045811 -0.1188,1.186234 -0.62265,2.119494 -1.51205,2.801879 -0.88957,0.681629 -1.89794,0.978292 -3.02436,0.889402 z M 97.244392,14.056199 c -0.622649,1.867947 -1.734528,4.6852 -3.335637,8.450332 l 5.381532,0.444702 z"
     id="path48"
     style="stroke:#ffffff;stroke-width:5.16353;stroke-linecap:round;stroke-linejoin:round;stroke-miterlimit:4;stroke-dasharray:none;paint-order:stroke markers fill" /><path
     fill="#019ff1"
     d="m 123.63216,37.405579 -7.64974,1.334272 c -0.26683,0.05915 -0.56358,0.08889 -0.88948,0.08889 -2.52051,0 -3.98812,-1.216144 -4.40308,-3.64692 l -4.35862,-24.55015 c -0.0292,-0.295991 -0.0444,-0.592739 -0.0444,-0.8894865 0,-1.0966722 0.34119,-2.0458948 1.02299,-2.8464075 0.68163,-0.8005968 1.58582,-1.3043619 2.71299,-1.5122197 l 7.29384,-1.289827 c 1.27445,-0.2071016 2.51975,-0.3112825 3.73581,-0.3112825 4.18068,0 7.65663,1.289827 10.42944,3.869313 2.77205,2.5796542 4.55867,6.1375162 5.35918,10.6740912 0.2071,1.216144 0.31128,2.416913 0.31128,3.602475 0,4.002732 -1.20841,7.398106 -3.62474,10.184693 -2.41666,2.787344 -5.71474,4.55111 -9.89542,5.292559 z m -4.98119,-25.03938 -2.89094,0.489231 2.97983,16.900497 3.33563,-0.578204 c 3.94308,-0.681797 5.91513,-3.098038 5.91513,-7.249396 0,-0.740776 -0.0744,-1.512219 -0.22239,-2.312816 -0.88949,-4.951282 -3.32094,-7.427259 -7.29385,-7.427259 -0.56358,8.4e-5 -1.17161,0.05974 -1.82341,0.177947 z"
     id="path50"
     style="stroke:#ffffff;stroke-width:5.16353;stroke-linecap:round;stroke-linejoin:round;stroke-miterlimit:4;stroke-dasharray:none;paint-order:stroke markers fill" /><path
     fill="#0129f1"
     d="m 150.82035,38.117202 -11.25221,-2.179314 c -1.09717,-0.207101 -1.99431,-0.703977 -2.69064,-1.489871 -0.69633,-0.785389 -1.04517,-1.726967 -1.04517,-2.824143 0,-0.296075 0.0444,-0.607442 0.13334,-0.934015 l 4.66991,-24.0163907 c 0.53367,-2.7275236 1.98616,-4.0917056 4.35862,-4.0917056 0.35573,0 0.71154,0.02991 1.06744,0.08889 l 10.80742,2.0904237 c 1.15633,0.2375997 2.03044,0.7338874 2.62394,1.4898712 0.59273,0.7561518 0.88948,1.6233739 0.88948,2.6018344 0,1.156324 -0.40025,2.150076 -1.20077,2.979742 -0.80059,0.830423 -1.77905,1.245382 -2.93538,1.245382 -0.32649,0 -0.63794,-0.02924 -0.93393,-0.08906 l -6.62683,-1.289659 -0.8006,4.18068 6.04863,1.200769 c 1.15632,0.237768 2.04581,0.733887 2.66854,1.489955 0.62265,0.755984 0.93393,1.623206 0.93393,2.601751 0,1.186234 -0.4079,2.186959 -1.22303,3.00209 -0.81589,0.815804 -1.81661,1.223034 -3.00209,1.223034 -0.29675,0 -0.60803,-0.02915 -0.93402,-0.08889 l -6.09307,-1.200937 -0.84504,4.447517 6.98264,1.378717 c 1.12642,0.207858 1.98599,0.689442 2.57949,1.44551 0.59274,0.755984 0.88949,1.623206 0.88949,2.601751 0,1.156324 -0.39337,2.150075 -1.17859,2.979826 -0.78598,0.829666 -1.77209,1.245214 -2.95765,1.245214 -0.29666,-8.4e-5 -0.60803,-0.02991 -0.93385,-0.08897 z"
     id="path52"
     style="stroke:#ffffff;stroke-width:5.16353;stroke-linecap:round;stroke-linejoin:round;stroke-miterlimit:4;stroke-dasharray:none;paint-order:stroke markers fill" /></g>
<g
   id="g2955"
   transform="translate(-6.861413,62.781934)"><path
     fill="#d80500"
     d="m 34.856245,-24.308921 c -1.749819,-0.148709 -2.965207,-0.963841 -3.64692,-2.446151 -0.177948,-0.384881 -0.563585,-1.882566 -1.156324,-4.491962 l -10.718537,-0.933931 c -1.008286,2.431448 -1.645554,3.824868 -1.912476,4.180679 -0.919396,1.364182 -2.238965,1.971456 -3.958202,1.823418 -1.186235,-0.118799 -2.179314,-0.614919 -2.979827,-1.489871 -0.8005965,-0.874111 -1.1410328,-1.919365 -1.0228211,-3.135425 0.02991,-0.533676 0.2076897,-1.126415 0.5336752,-1.779058 L 20.980019,-55.930686 c 0.592739,-1.215304 1.430219,-2.193849 2.51286,-2.935297 1.08197,-0.740777 2.305087,-1.05206 3.669185,-0.934016 2.786672,0.237768 4.58102,1.867947 5.381533,4.892302 l 6.582217,24.8616 c 0.207102,0.800429 0.296076,1.482814 0.266838,2.045811 -0.1188,1.186234 -0.622649,2.119494 -1.512052,2.801879 -0.889486,0.681713 -1.897941,0.978376 -3.024355,0.889486 z m -8.80606,-24.416814 c -0.622649,1.867947 -1.734528,4.6852 -3.335638,8.450332 l 5.381533,0.444702 z"
     id="path2650"
     style="stroke:none;stroke-width:5.16353;stroke-linecap:round;stroke-linejoin:round;stroke-miterlimit:4;stroke-dasharray:none;paint-order:stroke markers fill" /><path
     fill="#ff8b00"
     d="m 46.744632,-37.206602 c 0.08906,1.541961 0,3.899223 -0.266753,7.071448 -0.05982,1.394091 -0.55594,2.468415 -1.489956,3.224483 -0.933931,0.756152 -2.053456,1.074324 -3.357818,0.956196 -1.275124,-0.1188 -2.298113,-0.629538 -3.0688,-1.534316 -0.771275,-0.90419 -1.081969,-2.038249 -0.933932,-3.402431 l 2.179314,-24.905877 c 0.118044,-1.393252 0.61492,-2.468416 1.489871,-3.224484 0.874112,-0.755983 2.008255,-1.074323 3.402263,-0.956196 l 7.783155,0.667094 c 3.528121,0.326658 6.255728,1.349563 8.183495,3.068801 2.045811,1.838877 3.068801,4.388453 3.068801,7.649736 0,0.474527 -0.01529,0.963841 -0.04461,1.467606 -0.20769,2.312649 -1.082642,4.210506 -2.623931,5.692899 -1.394092,1.364014 -3.1876,2.268204 -5.381449,2.712905 l 5.648286,7.204951 c 0.711623,0.919396 1.02299,1.853412 0.933932,2.801878 -0.08889,1.186235 -0.593327,2.201494 -1.512052,3.046536 -0.919396,0.845042 -2.016657,1.207827 -3.291193,1.089615 -1.423161,-0.1188 -2.520506,-0.741449 -3.291192,-1.867947 z m 5.025805,-13.742892 -3.46914,-0.311282 -0.48923,5.603841 3.46914,0.311282 c 2.015901,0.177948 3.09787,-0.681628 3.24658,-2.579486 0.177864,-1.838121 -0.741449,-2.846407 -2.75735,-3.024355 z"
     id="path2652"
     style="stroke:none;stroke-width:5.16353;stroke-linecap:round;stroke-linejoin:round;stroke-miterlimit:4;stroke-dasharray:none;paint-order:stroke markers fill" /><path
     fill="#fff301"
     d="m 76.793938,-24.753622 c -4.18068,-0.652643 -7.531608,-2.549744 -10.051358,-5.692899 -2.461443,-3.053425 -3.691534,-6.68581 -3.691534,-10.896316 0,-1.067434 0.08906,-2.134869 0.266838,-3.202219 0.681797,-4.417607 2.512861,-8.012437 5.492687,-10.785077 2.979826,-2.772137 6.544746,-4.158415 10.696272,-4.158415 0.889486,0 1.808043,0.07436 2.757433,0.222308 2.193849,0.355896 4.225125,1.097345 6.092988,2.223759 2.371796,1.42333 3.55803,3.039646 3.55803,4.847857 0,1.097345 -0.377992,2.053456 -1.134144,2.868588 -0.756151,0.815888 -1.68311,1.223118 -2.779698,1.223118 -0.771275,0 -1.942302,-0.459404 -3.513417,-1.378717 -1.127171,-0.651887 -2.328024,-1.067434 -3.602476,-1.245382 -0.385805,-0.05898 -0.785977,-0.08889 -1.200937,-0.08889 -1.927599,0 -3.543327,0.711539 -4.847689,2.134701 -1.305118,1.423329 -2.134869,3.321018 -2.490596,5.692899 -0.1188,0.682385 -0.177948,1.349479 -0.177948,2.001366 0,2.045894 0.503849,3.751185 1.51222,5.114695 1.067266,1.453071 2.549576,2.328023 4.447517,2.62393 0.444701,0.05982 0.874111,0.08889 1.289659,0.08889 0.800596,0 1.771411,-0.147953 2.913201,-0.444701 1.141033,-0.296075 1.949191,-0.444785 2.423802,-0.444785 1.245382,0 2.275261,0.496959 3.091149,1.489871 0.815132,0.993835 1.118769,2.08345 0.911667,3.268928 -0.266837,1.69 -1.378717,2.950001 -3.335638,3.780423 -1.571871,0.651887 -3.484347,0.978377 -5.737344,0.978377 -1.038028,-8.4e-5 -2.001282,-0.07436 -2.890684,-0.222309 z"
     id="path2654"
     style="fill:#ffd42a;stroke:none;stroke-width:5.16353;stroke-linecap:round;stroke-linejoin:round;stroke-miterlimit:4;stroke-dasharray:none;paint-order:stroke markers fill" /><path
     fill="#37ae00"
     d="m 112.91187,-24.308921 c -1.74982,-0.148709 -2.96521,-0.963841 -3.64692,-2.446151 -0.17795,-0.384881 -0.56359,-1.882566 -1.15633,-4.491962 l -10.718535,-0.933931 c -1.008286,2.431448 -1.645554,3.824868 -1.912476,4.180679 -0.919396,1.364182 -2.238965,1.971456 -3.958202,1.823418 -1.186235,-0.118799 -2.179314,-0.614919 -2.979827,-1.489871 -0.800596,-0.874111 -1.141033,-1.919365 -1.022821,-3.135425 0.02991,-0.533676 0.20769,-1.126415 0.533675,-1.779058 l 10.985206,-23.34938 c 0.592739,-1.215304 1.43022,-2.193848 2.51286,-2.935297 1.08197,-0.740777 2.30509,-1.05206 3.66919,-0.934016 2.78667,0.237768 4.58101,1.867947 5.38153,4.892302 l 6.58222,24.8616 c 0.2071,0.800429 0.29607,1.482814 0.26683,2.045811 -0.1188,1.186234 -0.62265,2.119494 -1.51205,2.801879 -0.88957,0.681629 -1.89794,0.978292 -3.02435,0.889402 z m -8.80606,-24.416814 c -0.62265,1.867947 -1.73453,4.6852 -3.33564,8.450332 l 5.38153,0.444702 z"
     id="path2656"
     style="stroke:none;stroke-width:5.16353;stroke-linecap:round;stroke-linejoin:round;stroke-miterlimit:4;stroke-dasharray:none;paint-order:stroke markers fill" /><path
     fill="#019ff1"
     d="m 130.49357,-25.376355 -7.64973,1.334272 c -0.26684,0.05915 -0.56359,0.08889 -0.88949,0.08889 -2.52051,0 -3.98811,-1.216144 -4.40307,-3.64692 l -4.35863,-24.55015 c -0.0292,-0.295991 -0.0444,-0.592739 -0.0444,-0.889487 0,-1.096672 0.34119,-2.045894 1.02298,-2.846407 0.68163,-0.800597 1.58582,-1.304362 2.71299,-1.51222 l 7.29384,-1.289827 c 1.27446,-0.207101 2.51975,-0.311282 3.73581,-0.311282 4.18068,0 7.65663,1.289827 10.42944,3.869313 2.77205,2.579654 4.55867,6.137516 5.35918,10.674091 0.2071,1.216144 0.31129,2.416913 0.31129,3.602475 0,4.002732 -1.20842,7.398106 -3.62474,10.184693 -2.41667,2.787344 -5.71475,4.55111 -9.89543,5.292559 z m -4.98119,-25.03938 -2.89094,0.489231 2.97983,16.900497 3.33564,-0.578204 c 3.94308,-0.681797 5.91512,-3.098038 5.91512,-7.249396 0,-0.740776 -0.0744,-1.512219 -0.22239,-2.312816 -0.88949,-4.951282 -3.32094,-7.427259 -7.29384,-7.427259 -0.56359,8.4e-5 -1.17162,0.05974 -1.82342,0.177947 z"
     id="path2658"
     style="stroke:none;stroke-width:5.16353;stroke-linecap:round;stroke-linejoin:round;stroke-miterlimit:4;stroke-dasharray:none;paint-order:stroke markers fill" /><path
     fill="#0129f1"
     d="m 157.68177,-24.664732 -11.25221,-2.179314 c -1.09718,-0.207101 -1.99431,-0.703977 -2.69064,-1.489871 -0.69634,-0.785389 -1.04517,-1.726967 -1.04517,-2.824143 0,-0.296075 0.0444,-0.607442 0.13333,-0.934015 l 4.66991,-24.016391 c 0.53368,-2.727523 1.98616,-4.091705 4.35863,-4.091705 0.35573,0 0.71154,0.02991 1.06743,0.08889 l 10.80743,2.090423 c 1.15632,0.2376 2.03043,0.733888 2.62393,1.489871 0.59274,0.756152 0.88949,1.623374 0.88949,2.601835 0,1.156324 -0.40026,2.150076 -1.20077,2.979742 -0.8006,0.830423 -1.77906,1.245382 -2.93538,1.245382 -0.32649,0 -0.63795,-0.02924 -0.93394,-0.08906 l -6.62683,-1.289659 -0.80059,4.18068 6.04862,1.200769 c 1.15633,0.237768 2.04581,0.733887 2.66855,1.489955 0.62265,0.755984 0.93393,1.623206 0.93393,2.601751 0,1.186234 -0.4079,2.186959 -1.22304,3.00209 -0.81588,0.815804 -1.81661,1.223034 -3.00209,1.223034 -0.29674,0 -0.60803,-0.02915 -0.93401,-0.08889 l -6.09307,-1.200937 -0.84504,4.447517 6.98264,1.378717 c 1.12641,0.207858 1.98599,0.689442 2.57948,1.44551 0.59274,0.755984 0.88949,1.623206 0.88949,2.60175 0,1.156325 -0.39337,2.150076 -1.17859,2.979827 -0.78598,0.829666 -1.77208,1.245214 -2.95764,1.245214 -0.29667,-8.4e-5 -0.60803,-0.02991 -0.93385,-0.08897 z"
     id="path2660"
     style="stroke:none;stroke-width:5.16353;stroke-linecap:round;stroke-linejoin:round;stroke-miterlimit:4;stroke-dasharray:none;paint-order:stroke markers fill" /></g></svg>
