<?xml version="1.0" encoding="UTF-8" standalone="no"?>
<svg
   viewBox="0 0 514 83.980011"
   version="1.1"
   id="svg68"
   sodipodi:docname="atari800.svg"
   width="514"
   height="83.980011"
   inkscape:version="1.1 (c68e22c387, 2021-05-23)"
   xmlns:inkscape="http://www.inkscape.org/namespaces/inkscape"
   xmlns:sodipodi="http://sodipodi.sourceforge.net/DTD/sodipodi-0.dtd"
   xmlns="http://www.w3.org/2000/svg"
   xmlns:svg="http://www.w3.org/2000/svg"
   xmlns:rdf="http://www.w3.org/1999/02/22-rdf-syntax-ns#"
   xmlns:cc="http://creativecommons.org/ns#"
   xmlns:dc="http://purl.org/dc/elements/1.1/">
  <defs
     id="defs72" />
  <sodipodi:namedview
     id="namedview70"
     pagecolor="#ffffff"
     bordercolor="#666666"
     borderopacity="1.0"
     inkscape:pageshadow="2"
     inkscape:pageopacity="0.0"
     inkscape:pagecheckerboard="0"
     showgrid="false"
     fit-margin-top="0"
     fit-margin-left="0"
     fit-margin-right="0"
     fit-margin-bottom="0"
     inkscape:zoom="1.113"
     inkscape:cx="257.4124"
     inkscape:cy="41.329739"
     inkscape:window-width="1920"
     inkscape:window-height="1138"
     inkscape:window-x="-8"
     inkscape:window-y="-8"
     inkscape:window-maximized="1"
     inkscape:current-layer="svg68" />
  <title
     id="title2">logo_right</title>
  <g
     id="Layer_2"
     data-name="Layer 2"
     transform="translate(-243,-15.02)">
    <rect
       x="374.72"
       y="33.209999"
       width="61.439999"
       height="31.24"
       fill="#ffffff"
       id="rect4" />
    <rect
       x="487.16"
       y="33.740002"
       width="35"
       height="44.48"
       fill="#ffffff"
       id="rect6" />
    <rect
       x="623.82001"
       y="35.77"
       width="115.04"
       height="42.450001"
       fill="#ffffff"
       id="rect8" />
  </g>
  <g
     id="Layer_1"
     data-name="Layer 1"
     transform="translate(-243,-15.02)">
    <path
       d="m 365.34,22.08 a 7.84,7.84 0 0 1 5.17,1.86 9,9 0 0 1 2.8,4.43 q 9.24,31.79 18.49,63.55 h -10.9 c -1.71,-5.84 -3.39,-11.7 -5.08,-17.54 h -21.08 q -2.58,8.76 -5.1,17.55 h -10.85 q 8.77,-30.32 17.59,-60.62 c 0.7,-2.12 1,-4.48 2.48,-6.2 v 0 a 8.24,8.24 0 0 1 6.48,-3 m -0.94,42.36 h 8.53 l -7.65,-26.36 c -2.58,8.77 -5.1,17.57 -7.66,26.35 h 6.78 m 0.94,-49.36 a 15.28,15.28 0 0 0 -11.86,5.54 17.25,17.25 0 0 0 -3.38,7.18 c -0.13,0.48 -0.25,0.94 -0.37,1.3 0,0.08 -0.05,0.16 -0.07,0.24 C 343.82,49.42 337.9,69.82 332.07,90 a 7,7 0 0 0 6.72,9 h 10.85 a 7,7 0 0 0 6.72,-5.07 c 1.2,-4.14 2.41,-8.32 3.63,-12.48 h 10.56 l 0.08,0.27 q 1.77,6.12 3.55,12.25 a 7,7 0 0 0 6.72,5 h 10.91 a 7,7 0 0 0 6.71,-9 L 380,26.45 a 16,16 0 0 0 -5,-7.8 14.8,14.8 0 0 0 -9.75,-3.57 z"
       fill="#ffffff"
       id="path11" />
    <path
       d="m 442.18,22.07 a 8.14,8.14 0 0 1 2,0.25 8.49,8.49 0 0 1 6,6.08 q 9.22,31.77 18.47,63.51 h -10.91 c -1.7,-5.84 -3.37,-11.7 -5.07,-17.54 h -21.05 c -1.67,5.86 -3.4,11.69 -5.08,17.54 H 415.71 Q 424.49,61.44 433.37,31 c 0.61,-1.83 0.85,-3.85 2,-5.44 v 0 a 8.36,8.36 0 0 1 6.77,-3.48 m 1.5,42.38 h 6.1 c -2.53,-8.8 -5.1,-17.6 -7.62,-26.4 -2.54,8.8 -5.11,17.59 -7.63,26.4 h 9.15 m -1.5,-49.38 a 15.37,15.37 0 0 0 -12.42,6.35 17.21,17.21 0 0 0 -2.68,6.14 c -0.12,0.45 -0.24,0.88 -0.35,1.2 a 2.76,2.76 0 0 0 -0.08,0.27 C 420.75,49.26 414.8,69.76 409,90 a 7,7 0 0 0 6.73,8.93 h 10.84 a 7,7 0 0 0 6.72,-5.07 q 1.23,-4.27 2.48,-8.55 l 1.14,-3.92 h 10.52 c 0.56,1.93 1.12,3.87 1.67,5.8 q 1,3.34 1.93,6.69 a 7,7 0 0 0 6.73,5 h 11 a 7,7 0 0 0 6.66,-9 q -9.22,-31.7 -18.44,-63.4 a 15.51,15.51 0 0 0 -10.91,-11 h -0.14 a 15.37,15.37 0 0 0 -3.7,-0.46 z"
       fill="#ffffff"
       id="path13" />
    <path
       d="m 423.1,22.21 v 10.64 h -14.52 v 59.07 h -10.4 q 0,-29.53 0,-59.07 H 383.67 V 22.21 h 39.43 m 0,-7 h -39.43 a 7,7 0 0 0 -7,7 v 10.64 a 7,7 0 0 0 7,7 h 7.52 v 52.07 a 7,7 0 0 0 7,7 h 10.4 a 7,7 0 0 0 7,-7 V 39.85 h 7.53 a 7,7 0 0 0 7,-7 V 22.21 a 7,7 0 0 0 -7,-7 z"
       fill="#ffffff"
       id="path15" />
    <path
       d="m 483,22.2 h 12.78 A 19.27,19.27 0 0 1 512.42,33 c 2.1,4.08 2.31,8.82 1.78,13.29 a 18.27,18.27 0 0 1 -5.93,12.48 c -1.9,1.7 -4.27,2.72 -6.3,4.23 a 3,3 0 0 0 -0.6,3.69 c 5.5,8.49 11.22,16.85 16.84,25.27 H 505.88 C 500.51,83.88 495.19,75.77 489.83,67.68 a 9,9 0 0 1 -1.06,-8 7.57,7.57 0 0 1 4.46,-4.25 c 3.74,-1.43 7.44,-3.67 9.51,-7.2 1.58,-2.66 1.5,-5.94 0.79,-8.84 a 8.61,8.61 0 0 0 -8.38,-6.61 h -8.08 A 2.33,2.33 0 0 0 484.74,35 q 0,28.44 0,56.89 h -10.48 q 0,-30.61 0,-61.24 A 8.73,8.73 0 0 1 483,22.2 m 0,-7 a 16,16 0 0 0 -5,0.79 15.82,15.82 0 0 0 -10.78,14.49 v 0.2 q 0,30.63 0,61.25 a 7,7 0 0 0 7,7 h 10.48 a 7,7 0 0 0 7,-7 v -8.7 c 2.74,4.16 5.54,8.4 8.33,12.58 a 7,7 0 0 0 5.82,3.12 h 12.34 A 7,7 0 0 0 524,88 q -2.73,-4.1 -5.48,-8.17 c -3,-4.41 -6,-8.93 -9,-13.45 a 24,24 0 0 0 3.37,-2.38 25.33,25.33 0 0 0 8.28,-17.05 c 0.76,-6.63 -0.08,-12.39 -2.49,-17.13 A 26.23,26.23 0 0 0 496,15.22 h -13 z m 10.17,24.57 h 2 a 1.6,1.6 0 0 1 1.55,1.23 c 0.46,1.92 0.3,3.13 0,3.64 a 10.7,10.7 0 0 1 -5,3.83 q 0,-4.35 0,-8.7 z"
       fill="#ffffff"
       id="path17" />
    <path
       d="m 534.72,22.21 v 0 m 0,0 q 0,34.86 0,69.71 h -11 V 22.21 h 11 m 0,-7 h -11 a 7,7 0 0 0 -7,7 v 69.71 a 7,7 0 0 0 7,7 h 11 a 7,7 0 0 0 7,-7 q 0,-34.76 0,-69.52 v -0.19 a 7,7 0 0 0 -7,-7 z m 0,14 z"
       fill="#ffffff"
       id="path19" />
    <path
       d="M 715.07,33.21 A 23.79,23.79 0 0 1 738.86,57 v 0 a 23.81,23.81 0 0 1 -23.79,23.79 v 0 a 23.79,23.79 0 0 1 0,-47.58 v 0 m 0,45 A 21.23,21.23 0 0 0 736.3,57 v 0 a 21.23,21.23 0 1 0 -21.23,21.22 m 0,-52 v 0 A 30.79,30.79 0 1 0 745.86,57 30.6,30.6 0 0 0 715.07,26.2 Z m 0,45 a 14.22,14.22 0 1 1 10.06,-4.16 14.16,14.16 0 0 1 -10.06,4.16 z"
       fill="#ffffff"
       id="path21" />
    <path
       d="M 715.07,22.07 A 34.92,34.92 0 0 1 750,57 v 0 a 35,35 0 0 1 -34.93,34.93 v 0 a 34.93,34.93 0 0 1 0,-69.85 v 0 m 0,67.29 A 32.36,32.36 0 0 0 747.43,57 v 0 a 32.36,32.36 0 1 0 -32.36,32.37 m 0,-74.29 v 0 A 41.93,41.93 0 1 0 757,57 42,42 0 0 0 715.07,15.07 Z m 0,67.29 A 25.35,25.35 0 1 1 733,74.93 25.2,25.2 0 0 1 715.06,82.36 Z"
       fill="#ffffff"
       id="path23" />
    <path
       d="M 643.57,22.07 A 34.92,34.92 0 0 1 678.5,57 v 0 a 35,35 0 0 1 -34.93,34.93 v 0 a 34.93,34.93 0 0 1 0,-69.85 v 0 m 0,67.29 A 32.36,32.36 0 0 0 675.93,57 v 0 a 32.36,32.36 0 1 0 -32.36,32.37 m 0,-74.29 v 0 A 41.93,41.93 0 1 0 685.5,57 42,42 0 0 0 643.57,15.07 Z m 0,74.29 v -7 a 25.35,25.35 0 1 1 17.94,-7.43 25.4,25.4 0 0 1 -17.94,7.43 z"
       fill="#ffffff"
       id="path25" />
    <path
       d="M 643.57,33.21 A 23.79,23.79 0 0 1 667.36,57 v 0 a 23.81,23.81 0 0 1 -23.79,23.79 v 0 a 23.79,23.79 0 0 1 0,-47.58 v 0 m 0,45 A 21.23,21.23 0 0 0 664.8,57 v 0 a 21.23,21.23 0 1 0 -21.23,21.22 m 0,-52 v 0 A 30.79,30.79 0 1 0 674.36,57 30.6,30.6 0 0 0 643.57,26.2 Z m 0,45 A 14.23,14.23 0 1 1 657.8,57 14.16,14.16 0 0 1 643.57,71.21 Z"
       fill="#ffffff"
       id="path27" />
    <path
       d="m 583.73,31.18 a 7.19,7.19 0 0 1 0,14.38 v 0 a 7.19,7.19 0 0 1 0,-14.38 v 0 m 0,11.82 v 0 a 4.64,4.64 0 0 0 4.62,-4.63 v 0 A 4.63,4.63 0 1 0 583.73,43 m 0,-18.82 v 0 a 14.19,14.19 0 1 0 14.19,14.2 14.21,14.21 0 0 0 -14.19,-14.2 z"
       fill="#ffffff"
       id="path29" />
    <path
       d="m 583.73,53.15 a 14.31,14.31 0 1 1 -14.31,14.31 14.31,14.31 0 0 1 14.31,-14.31 m 0,26.06 a 11.75,11.75 0 0 0 11.74,-11.75 v 0 A 11.77,11.77 0 0 0 583.73,55.71 v 0 a 11.75,11.75 0 0 0 0,23.5 v 0 m 0,-33.06 A 21.31,21.31 0 1 0 605,67.47 21.33,21.33 0 0 0 583.69,46.15 Z"
       fill="#ffffff"
       id="path31" />
    <path
       d="m 583.73,22.09 v 0 a 16.3,16.3 0 0 1 16.27,16.28 16,16 0 0 1 -2.6,8.82 24.46,24.46 0 1 1 -27.41,0 16.12,16.12 0 0 1 -2.59,-8.82 16.29,16.29 0 0 1 16.3,-16.28 m 0,67.27 A 21.9,21.9 0 0 0 595,48.65 l -1.24,-0.74 0.88,-1.14 a 13.74,13.74 0 1 0 -21.73,0 l 0.89,1.14 -1.24,0.74 a 21.9,21.9 0 0 0 11.24,40.71 m 0,-74.27 v 0 a 23.33,23.33 0 0 0 -22.28,30.15 31.46,31.46 0 1 0 44.55,0 22.78,22.78 0 0 0 1,-6.89 A 23.33,23.33 0 0 0 583.8,15.1 Z m 0,67.27 a 14.9,14.9 0 0 1 -7.66,-27.7 l 1.24,-0.74 a 7,7 0 0 0 1.95,-10.3 l -0.89,-1.14 a 6.68,6.68 0 0 1 -1.4,-4.09 6.74,6.74 0 1 1 13.48,0 6.67,6.67 0 0 1 -1.4,4.08 l -0.9,1.17 a 7,7 0 0 0 2,10.29 l 1.24,0.74 a 14.91,14.91 0 0 1 -7.61,27.7 z"
       fill="#ffffff"
       id="path33" />
    <path
       d="m 312.14,22.07 a 7.74,7.74 0 0 1 7.72,7.73 v 54.41 a 7.74,7.74 0 0 1 -7.72,7.72 H 257.73 A 7.74,7.74 0 0 1 250,84.21 V 29.8 a 7.74,7.74 0 0 1 7.73,-7.73 h 54.41 m 0,-7 H 257.73 A 14.78,14.78 0 0 0 243,29.78 v 54.43 a 14.78,14.78 0 0 0 14.71,14.72 h 54.43 a 14.78,14.78 0 0 0 14.72,-14.7 V 29.8 a 14.78,14.78 0 0 0 -14.7,-14.73 z"
       fill="#ffffff"
       id="path35" />
    <g
       id="Capa_1"
       data-name="Capa 1">
      <g
         id="_ffffffff"
         data-name=" ffffffff">
        <path
           d="m 358.86,25.1 a 8.34,8.34 0 0 1 11.65,-1.16 9,9 0 0 1 2.8,4.43 q 9.24,31.79 18.49,63.55 h -10.9 c -1.71,-5.84 -3.39,-11.7 -5.08,-17.54 -7,0 -14.05,0 -21.08,0 q -2.58,8.76 -5.1,17.55 c -3.62,0 -7.23,0 -10.85,0 q 8.77,-30.32 17.59,-60.62 c 0.7,-2.12 1,-4.48 2.48,-6.2 m 6.42,13 c -2.58,8.77 -5.1,17.57 -7.66,26.35 5.1,0 10.21,0 15.31,0 L 365.28,38.1 Z"
           id="path37" />
        <path
           d="m 435.41,25.55 a 8.34,8.34 0 0 1 8.78,-3.23 8.49,8.49 0 0 1 6,6.08 q 9.22,31.77 18.47,63.51 c -3.64,0 -7.28,0 -10.91,0 -1.7,-5.84 -3.37,-11.7 -5.07,-17.54 h -21.06 c -1.67,5.86 -3.4,11.69 -5.08,17.54 H 415.71 Q 424.49,61.44 433.37,31 c 0.61,-1.83 0.85,-3.85 2,-5.44 m -0.88,38.89 q 7.62,0 15.25,0 c -2.53,-8.8 -5.1,-17.6 -7.62,-26.4 -2.54,8.8 -5.11,17.59 -7.63,26.4 z"
           id="path39" />
        <path
           d="m 383.67,22.21 h 39.43 v 10.64 h -14.52 v 59.07 h -10.4 q 0,-29.53 0,-59.07 h -14.51 z"
           id="path41" />
        <path
           d="m 480.21,22.65 a 8.9,8.9 0 0 1 3.12,-0.44 h 12.43 A 19.27,19.27 0 0 1 512.42,33 c 2.1,4.08 2.31,8.82 1.78,13.29 a 18.27,18.27 0 0 1 -5.93,12.48 c -1.9,1.7 -4.27,2.72 -6.3,4.23 a 3,3 0 0 0 -0.6,3.69 c 5.5,8.49 11.22,16.85 16.84,25.27 -4.11,0 -8.22,0 -12.33,0 -5.37,-8.08 -10.69,-16.19 -16.05,-24.28 a 9,9 0 0 1 -1.06,-8 7.57,7.57 0 0 1 4.46,-4.25 c 3.74,-1.43 7.44,-3.67 9.51,-7.2 1.58,-2.66 1.5,-5.94 0.79,-8.84 a 8.6,8.6 0 0 0 -8.4,-6.61 c -2.68,0 -5.37,0 -8.05,0 A 2.34,2.34 0 0 0 484.74,35 q 0,28.44 0,56.89 h -10.48 q 0,-30.61 0,-61.24 a 8.73,8.73 0 0 1 5.95,-8 z"
           id="path43" />
        <path
           d="m 523.7,22.21 h 11 q 0,34.86 0,69.71 h -11 z"
           id="path45" />
      </g>
      <path
         d="M 715.07,91.92 A 34.93,34.93 0 1 1 750,57 v 0 a 35,35 0 0 1 -34.93,34.92 z m 0,-67.29 A 32.37,32.37 0 1 0 747.43,57 v 0 A 32.39,32.39 0 0 0 715.07,24.63 Z m 0,56.16 A 23.79,23.79 0 1 1 738.86,57 v 0 a 23.81,23.81 0 0 1 -23.79,23.79 z m 0,-45 A 21.23,21.23 0 1 0 736.3,57 v 0 A 21.26,21.26 0 0 0 715.07,35.77 Z"
         fill="#5d3615"
         id="path48" />
      <path
         d="M 643.57,91.92 A 34.93,34.93 0 1 1 678.5,57 v 0 a 35,35 0 0 1 -34.93,34.92 z m 0,-67.29 A 32.37,32.37 0 1 0 675.93,57 v 0 A 32.39,32.39 0 0 0 643.57,24.63 Z m 0,56.16 A 23.79,23.79 0 1 1 667.36,57 v 0 a 23.81,23.81 0 0 1 -23.79,23.79 z m 0,-45 A 21.23,21.23 0 1 0 664.8,57 v 0 A 21.26,21.26 0 0 0 643.57,35.77 Z"
         fill="#5d3615"
         id="path50" />
      <path
         d="M 583.73,91.92 A 24.47,24.47 0 0 1 570,47.19 a 16.12,16.12 0 0 1 -2.59,-8.82 16.3,16.3 0 0 1 32.6,0 16,16 0 0 1 -2.6,8.82 24.46,24.46 0 0 1 -13.7,44.73 z m 0,-67.29 A 13.75,13.75 0 0 0 570,38.37 a 13.6,13.6 0 0 0 2.87,8.4 l 0.89,1.14 -1.24,0.74 a 21.89,21.89 0 1 0 22.44,0 l -1.24,-0.74 0.88,-1.14 A 13.73,13.73 0 0 0 583.74,24.63 Z m 0,57.14 A 14.31,14.31 0 1 1 598,67.46 14.31,14.31 0 0 1 583.73,81.77 Z m 0,-26.06 a 11.75,11.75 0 1 0 11.74,11.75 v 0 A 11.77,11.77 0 0 0 583.73,55.71 Z m 0,-10.15 a 7.19,7.19 0 1 1 7.19,-7.19 7.19,7.19 0 0 1 -7.19,7.19 z m 0,-11.82 a 4.63,4.63 0 1 0 4.62,4.63 v 0 a 4.63,4.63 0 0 0 -4.62,-4.63 z"
         fill="#5d3615"
         id="path52" />
      <path
         d="m 250,84.21 a 7.74,7.74 0 0 0 7.73,7.72 h 54.41 a 7.74,7.74 0 0 0 7.72,-7.72 V 29.8 a 7.74,7.74 0 0 0 -7.72,-7.73 H 257.73 A 7.74,7.74 0 0 0 250,29.8 Z"
         fill="#3d3832"
         id="path54" />
      <path
         d="m 276.92,35.28 h 3.45 v 8.11 c 0,2.26 -0.05,4.51 -0.15,6.77 a 81.25,81.25 0 0 1 -0.89,9.73 25.06,25.06 0 0 1 -2.09,6.39 25.59,25.59 0 0 1 -6.74,8.37 25.21,25.21 0 0 1 -8.46,4.8 29.25,29.25 0 0 1 -5.37,1.32 q 0,-3.4 0,-6.8 a 20,20 0 0 0 6.33,-2.15 22.54,22.54 0 0 0 6.14,-4.82 25.79,25.79 0 0 0 4.38,-6.82 34,34 0 0 0 2.46,-9 94,94 0 0 0 0.93,-11.84 c 0.02,-1.34 0,-2.72 0.01,-4.06 z"
         fill="#a1978e"
         id="path56" />
      <path
         d="m 281.75,35.29 c 2.12,0 4.24,0 6.35,0 q 0,22.74 0,45.49 c -2.11,0 -4.22,0 -6.33,0 0,-4.84 0,-9.67 0,-14.51 q -0.01,-15.49 -0.02,-30.98 z"
         fill="#a1978e"
         id="path58" />
      <path
         d="M 289.52,35.28 H 293 a 108.6,108.6 0 0 0 0.67,13.85 38.64,38.64 0 0 0 2.51,10.48 25.29,25.29 0 0 0 5.81,8.62 22.25,22.25 0 0 0 8.53,5.09 18.24,18.24 0 0 0 2.72,0.65 v 6.79 a 27.92,27.92 0 0 1 -5.32,-1.3 25.4,25.4 0 0 1 -9.6,-5.79 25.15,25.15 0 0 1 -4.94,-6.08 26.36,26.36 0 0 1 -2.38,-5.66 36.23,36.23 0 0 1 -1,-6 c -0.4,-4.37 -0.55,-8.77 -0.52,-13.16 z"
         fill="#a1978e"
         id="path60" />
      <path
         d="m 281.75,35.29 q 0,15.49 0,31 c 0,4.84 0,9.67 0,14.51 2.11,0 4.22,0 6.33,0 q 0,-22.74 0,-45.49 c -2.11,0 -4.23,0 -6.35,0"
         fill="#a1978e"
         id="path62" />
      <path
         d="m 289.52,35.28 v 7.46 c 0,4.39 0.12,8.79 0.52,13.16 a 36.23,36.23 0 0 0 1,6 25.86,25.86 0 0 0 2.33,5.66 25.15,25.15 0 0 0 4.94,6.08 25.4,25.4 0 0 0 9.6,5.79 28.69,28.69 0 0 0 5.32,1.3 V 74 a 17.08,17.08 0 0 1 -2.72,-0.65 22.25,22.25 0 0 1 -8.53,-5.09 25.29,25.29 0 0 1 -5.81,-8.62 A 38.64,38.64 0 0 1 293.66,49.16 108.6,108.6 0 0 1 293,35.28 h -3.43"
         fill="#a1978e"
         id="path64" />
    </g>
  </g>
  <metadata
     id="metadata889">
    <rdf:RDF>
      <cc:Work
         rdf:about="">
        <dc:title>logo_right</dc:title>
      </cc:Work>
    </rdf:RDF>
  </metadata>
</svg>
