<?xml version="1.0" encoding="UTF-8" standalone="no"?>
<svg
   id="Capa_1"
   data-name="Capa 1"
   viewBox="0 0 342.29221 114.00269"
   version="1.1"
   sodipodi:docname="atari5200.svg"
   width="342.29221"
   height="114.00269"
   inkscape:version="1.1 (c68e22c387, 2021-05-23)"
   xmlns:inkscape="http://www.inkscape.org/namespaces/inkscape"
   xmlns:sodipodi="http://sodipodi.sourceforge.net/DTD/sodipodi-0.dtd"
   xmlns="http://www.w3.org/2000/svg"
   xmlns:svg="http://www.w3.org/2000/svg"
   xmlns:rdf="http://www.w3.org/1999/02/22-rdf-syntax-ns#"
   xmlns:cc="http://creativecommons.org/ns#"
   xmlns:dc="http://purl.org/dc/elements/1.1/">
  <defs
     id="defs80" />
  <sodipodi:namedview
     id="namedview78"
     pagecolor="#ffffff"
     bordercolor="#666666"
     borderopacity="1.0"
     inkscape:pageshadow="2"
     inkscape:pageopacity="0.0"
     inkscape:pagecheckerboard="0"
     showgrid="false"
     fit-margin-top="0"
     fit-margin-left="0"
     fit-margin-right="0"
     fit-margin-bottom="0"
     inkscape:zoom="1.113"
     inkscape:cx="171.15903"
     inkscape:cy="56.603774"
     inkscape:window-width="1920"
     inkscape:window-height="1138"
     inkscape:window-x="-8"
     inkscape:window-y="-8"
     inkscape:window-maximized="1"
     inkscape:current-layer="Capa_1" />
  <title
     id="title2">logo</title>
  <g
     id="Layer_2"
     data-name="Layer 2"
     transform="translate(-328.8482,0.002685)">
    <rect
       x="634.90997"
       y="12.72"
       width="23.15"
       height="82.940002"
       stroke-width="7"
       stroke="#ffffff"
       stroke-linecap="round"
       stroke-linejoin="round"
       fill="#ffffff"
       id="rect4" />
    <rect
       x="551.72998"
       y="21.620001"
       width="23.33"
       height="30.530001"
       stroke-width="7"
       stroke="#ffffff"
       stroke-linecap="round"
       stroke-linejoin="round"
       fill="#ffffff"
       id="rect6" />
    <rect
       x="487.73001"
       y="48.919998"
       width="14"
       height="16.07"
       stroke-width="7"
       stroke="#ffffff"
       stroke-linecap="round"
       stroke-linejoin="round"
       fill="#ffffff"
       id="rect8" />
    <rect
       x="370.39001"
       y="52.150002"
       width="14.52"
       height="11.19"
       stroke-width="7"
       stroke="#ffffff"
       stroke-linecap="round"
       stroke-linejoin="round"
       fill="#ffffff"
       id="rect10" />
    <rect
       x="575.72998"
       y="42.66"
       width="36.18"
       height="54.889999"
       fill="#ffffff"
       id="rect12" />
  </g>
  <path
     d="m 320.4318,10.442685 a 11.36,11.36 0 0 1 11.52,11.45 c 0,6 -5.17,10.92 -11.52,10.92 -6.35,0 -11.64,-4.9 -11.64,-10.92 a 11.29,11.29 0 0 1 11.64,-11.45 m 0,-7 a 18.35,18.35 0 0 0 -18.64,18.45 c 0,9.88 8.36,17.92 18.64,17.92 10.28,0 18.52,-8 18.52,-17.92 a 18.28,18.28 0 0 0 -18.52,-18.45 z"
     fill="#ffffff"
     id="path15" />
  <path
     d="m 320.4318,41.002685 a 11.36,11.36 0 0 1 11.52,11.42 c 0,6 -5.17,10.92 -11.52,10.92 -6.35,0 -11.64,-4.9 -11.64,-10.92 a 11.29,11.29 0 0 1 11.64,-11.42 m 0,-7 a 18.35,18.35 0 0 0 -18.64,18.45 c 0,9.88 8.36,17.92 18.64,17.92 10.28,0 18.52,-8 18.52,-17.92 a 18.28,18.28 0 0 0 -18.52,-18.45 z"
     fill="#ffffff"
     id="path17" />
  <path
     d="m 162.2618,30.352685 c 3.63,12.38 7.32,24.74 11,37.12 h -21.96 q 5.44,-18.57 11,-37.11 m 0,-7 a 7,7 0 0 0 -6.71,5 q -2.23,7.44 -4.44,14.85 -3.3,11.15 -6.58,22.28 a 7,7 0 0 0 6.71,9 h 21.93 a 7,7 0 0 0 6.71,-9 q -2.47,-8.46 -5,-16.9 -3,-10.11 -6,-20.22 a 7,7 0 0 0 -6.71,-5 z"
     fill="#ffffff"
     id="path19" />
  <path
     d="m 45.071796,30.392685 q 5.5,18.53 11,37.06 h -12.25 -9.76 c 3.68,-12.35 7.31,-24.71 11,-37 m 0,-7 a 7,7 0 0 0 -6.7,5 c -2.15,7.16 -4.31,14.45 -6.4,21.5 q -2.31,7.78 -4.62,15.56 a 7,7 0 0 0 6.68,9 h 9.79 12.25 a 7,7 0 0 0 6.71,-9 l -5.37,-18.08 q -2.81,-9.5 -5.63,-19 a 7,7 0 0 0 -6.7,-5 z"
     fill="#ffffff"
     id="path21" />
  <path
     d="M 22.581796,109.60269 H 7.0117961 a 3.5,3.5 0 0 1 -3.35,-4.49 Q 16.261796,62.482685 28.921796,19.872685 a 0.65,0.65 0 0 0 0,-0.13 c 0.23,-0.67 0.43,-1.4 0.64,-2.17 0.69,-2.48 1.46,-5.29 3.58,-7.69 a 15.44,15.44 0 0 1 12.01,-5.48 14.87,14.87 0 0 1 9.7,3.46 16,16 0 0 1 5.11,7.9 q 5.78,19.43 11.56,38.86 7.51,25.25 15,50.480005 a 3.5,3.5 0 0 1 -3.36,4.49 h -15.64 a 3.52,3.52 0 0 1 -3.36,-2.5 c -1.68,-5.61 -3.33,-11.230005 -5,-16.850005 l -1.57,-5.32 h -25.05 c -2,6.7 -4.13,13.82 -6.59,22.160005 a 3.5,3.5 0 0 1 -3.36,2.51 z m 21.19,-45.600005 h 7.61 c -1.37,-4.59 -5.57,-18.79 -6.32,-21.29 -1,3.43 -5.22,17.63 -6.31,21.29 z"
     fill="#1b6db7"
     id="path23" />
  <path
     d="m 45.151796,7.902685 a 11.38,11.38 0 0 1 7.43,2.62 12.69,12.69 0 0 1 4,6.22 q 13.31,44.69 26.57,89.350005 h -15.63 c -2.47,-8.220005 -4.87,-16.440005 -7.3,-24.670005 h -30.29 q -3.7,12.31 -7.34,24.670005 H 7.0117961 Q 19.621796,63.462685 32.281796,20.852685 c 1,-3 1.38,-6.29 3.57,-8.71 a 12,12 0 0 1 9.3,-4.24 m -1.34,59.56 h 12.25 q -5.51,-18.53 -11,-37.06 c -3.7,12.34 -7.33,24.7 -11,37.05 h 9.76 m 1.33,-66.55 a 19,19 0 0 0 -14.65,6.71 c -2.62,3 -3.54,6.33 -4.28,9 -0.2,0.72 -0.39,1.4 -0.58,2 a 2.41,2.41 0 0 0 -0.08,0.25 c -7.27,24.45 -15.06,50.74 -25.26999986,85.250005 a 7,7 0 0 0 6.70999996,9 H 22.581796 a 7,7 0 0 0 6.72,-5 c 2.16,-7.33 4,-13.700005 5.83,-19.650005 h 19.84 c 0.28,0.93 0.55,1.87 0.83,2.8 1.63,5.53 3.31,11.250005 5,16.880005 a 7,7 0 0 0 6.71,5 h 15.64 a 7,7 0 0 0 6.7,-9 q -7.5,-25.300005 -15,-50.600005 -5.76,-19.36 -11.53,-38.75 a 19.45,19.45 0 0 0 -6.23,-9.59 18.37,18.37 0 0 0 -11.94,-4.3 z m -1.72,59.56 1.63,-5.46 c 0.54,1.83 1.09,3.66 1.63,5.49 h -3.25 z"
     fill="#ffffff"
     id="path25" />
  <path
     d="m 124.2618,109.61269 a 3.49,3.49 0 0 1 -3.35,-4.49 c 6.43,-21.890005 13,-44.120005 19.42,-65.630005 l 5.95,-20 c 0,0 0,-0.09 0,-0.14 0.22,-0.63 0.41,-1.32 0.61,-2.05 a 18.27,18.27 0 0 1 2.82,-6.53 15.58,15.58 0 0 1 12.58,-6.33 14.94,14.94 0 0 1 3.67,0.45 15.55,15.55 0 0 1 11.16,11 q 6.6,22.25 13.26,44.6 6.66,22.35 13.27,44.630005 a 3.51,3.51 0 0 1 -3.33,4.5 h -5.83 -9.84 a 3.5,3.5 0 0 1 -3.36,-2.51 l -2.82,-9.560005 q -1.85,-6.3 -3.72,-12.6 h -25 q -1.44,4.88 -2.89,9.74 -1.84,6.190005 -3.68,12.410005 a 3.48,3.48 0 0 1 -3.35,2.51 z m 44.28,-45.610005 -3.69,-12.52 q -1.31,-4.38 -2.59,-8.76 l -1,3.4 -5.29,17.88 z"
     fill="#1b6db7"
     id="path27" />
  <path
     d="m 162.3318,7.892685 a 11.42,11.42 0 0 1 2.85,0.36 12,12 0 0 1 8.61,8.55 q 13.25,44.66 26.54,89.290005 h -5.81 -9.87 c -2.43,-8.220005 -4.84,-16.450005 -7.29,-24.670005 h -18.7 -11.53 c -2.41,8.22 -4.9,16.43 -7.31,24.650005 h -15.56 q 12.6,-42.850005 25.37,-85.670005 c 0.89,-2.58 1.23,-5.42 2.94,-7.65 a 12.06,12.06 0 0 1 9.76,-4.9 m -0.1,59.58 h 11 c -3.64,-12.38 -7.33,-24.74 -11,-37.12 q -5.48,18.56 -11,37.11 h 10.93 m 0.1,-66.58 a 19.15,19.15 0 0 0 -15.4,7.76 21.31,21.31 0 0 0 -3.37,7.67 c -0.19,0.67 -0.36,1.31 -0.55,1.84 l -0.09,0.29 -5.8,19.82 c -6.41,21.6 -13,43.93 -19.5,65.910005 a 7,7 0 0 0 6.71,9 h 15.57 a 7,7 0 0 0 6.71,-5 q 1.82,-6.19 3.67,-12.380005 l 2.16,-7.25 h 19.78 l 3,10.16 q 1.39,4.750005 2.8,9.490005 a 7,7 0 0 0 6.71,5 h 9.87 5.86 a 7,7 0 0 0 6.66,-9 q -6.71,-22.590005 -13.43,-45.170005 -6.56,-22 -13.1,-44.06 a 19.07,19.07 0 0 0 -13.69,-13.48 18.79,18.79 0 0 0 -4.5,-0.55 z m -1.61,59.63 1.61,-5.42 c 0.53,1.81 1.06,3.61 1.6,5.42 z"
     fill="#ffffff"
     id="path29" />
  <path
     d="m 95.151796,109.50269 a 3.5,3.5 0 0 1 -3.5,-3.5 V 86.492685 q 0,-30 0,-60 h -17.34 a 3.5,3.5 0 0 1 -3.5,-3.5 v -14.99 a 3.5,3.5 0 0 1 3.5,-3.49 H 130.9718 a 3.5,3.5 0 0 1 3.5,3.5 v 14.99 a 3.5,3.5 0 0 1 -3.5,3.5 h -17.36 v 79.500005 a 3.5,3.5 0 0 1 -3.5,3.5 z"
     fill="#1b6db7"
     id="path31" />
  <path
     d="m 130.9718,8.002685 v 15 h -20.82 q 0,41.54 0,83.050005 H 95.151796 q 0,-41.520005 0,-83.000005 h -20.84 c 0,-5 0,-10 0,-14.95 H 130.9718 m 0,-7 H 74.311796 a 7,7 0 0 0 -7,7 v 14.9 a 7,7 0 0 0 7,7 h 13.84 q 0,27.62 0,55.22 v 20.780005 a 7,7 0 0 0 7,7 H 110.1518 a 7,7 0 0 0 7,-7 V 30.002685 h 13.86 a 7,7 0 0 0 7,-7 v -15 a 7,7 0 0 0 -7,-7 z"
     fill="#ffffff"
     id="path33" />
  <path
     d="m 251.9818,109.51269 a 3.48,3.48 0 0 1 -2.89,-1.53 q -7.05,-10.350005 -14,-20.760005 l -9,-13.38 a 14.42,14.42 0 0 1 -0.93,-1.5 q 0,16.84 0,33.670005 a 3.5,3.5 0 0 1 -3.5,3.5 h -15.13 a 3.5,3.5 0 0 1 -3.49,-3.5 q 0,-18.450005 0,-36.910005 0,-24.6 0,-49.2 a 15.87,15.87 0 0 1 11,-14.63 16.19,16.19 0 0 1 5.11,-0.78 h 18.25 a 31.37,31.37 0 0 1 27.08,17.06 c 2.88,5.49 3.87,12.44 2.9,20.59 a 29,29 0 0 1 -9.71,19.86 36.28,36.28 0 0 1 -5.7,3.87 c -1.24,0.73 -2.41,1.41 -3.47,2.18 a 1.29,1.29 0 0 0 0.07,0.72 c 5.34,8.06 10.92,16.17 16.32,24 l 7.69,11.230005 a 3.5,3.5 0 0 1 -2.89,5.47 h -17.71 z m -26.83,-83.160005 q 0,15.57 0,31.07 a 14.7,14.7 0 0 1 7.47,-6 c 5.74,-2.14 9.74,-5 11.9,-8.66 1.86,-3.06 1.43,-7 0.74,-9.78 a 8.91,8.91 0 0 0 -8.31,-6.64 h -11.8 z"
     fill="#1b6db7"
     id="path35" />
  <path
     d="m 219.1518,8.002685 h 18.25 a 27.74,27.74 0 0 1 23.94,15.1 c 3,5.74 3.32,12.41 2.56,18.7 -0.53,6.59 -3.35,13.17 -8.52,17.54 -2.74,2.38 -6.14,3.83 -9.07,6 -1.6,1.19 -1.68,3.52 -0.85,5.18 7.9,11.94 16.12,23.7 24.19,35.530005 h -17.67 c -7.72,-11.350005 -15.37,-22.760005 -23.07,-34.130005 a 12.43,12.43 0 0 1 -1.52,-11.22 10.75,10.75 0 0 1 6.41,-6 c 5.38,-2 10.68,-5.17 13.66,-10.14 2.27,-3.73 2.15,-8.34 1.13,-12.42 a 12.33,12.33 0 0 0 -11.7,-9.3 h -12 a 3.32,3.32 0 0 0 -3.29,3.16 q 0,40 0,80.000005 h -15.06 q 0,-43.070005 0,-86.110005 a 12.31,12.31 0 0 1 8.56,-11.29 12.63,12.63 0 0 1 4.05,-0.6 m 0,-7 a 19.81,19.81 0 0 0 -6.27,1 19.19,19.19 0 0 0 -13.39,17.9 q 0,24.67 0,49.24 0,18.47 0,36.920005 a 7,7 0 0 0 7,7 h 15.06 a 7,7 0 0 0 7,-7 q 0,-11.050005 0,-22.110005 l 3.6,5.24 c 4.6,6.81 9.34,13.810005 14,20.810005 a 7,7 0 0 0 5.79,3.06 h 17.72 a 7,7 0 0 0 5.77,-10.94 q -3.84,-5.640005 -7.72,-11.260005 c -4.84,-7 -9.82,-14.3 -14.65,-21.53 l 0.64,-0.38 a 39.2,39.2 0 0 0 6.24,-4.24 32.55,32.55 0 0 0 10.96,-22.21 c 1,-8.79 -0.06,-16.39 -3.28,-22.57 a 35,35 0 0 0 -30.05,-18.93 z m 14.4,28.84 h 3.34 a 5.35,5.35 0 0 1 4.87,3.84 0.83,0.83 0 0 1 0,0.15 c 0.43,1.74 1,5 -0.32,7.1 -1.76,2.94 -5.17,5.35 -10.13,7.21 a 19.35,19.35 0 0 0 -2.76,1.29 q 0,-9.8 0,-19.58 h 4.95 z"
     fill="#ffffff"
     id="path37" />
  <path
     d="m 285.3818,109.50269 h -10.23 a 3.5,3.5 0 0 1 -3.5,-3.5 V 8.002685 a 3.5,3.5 0 0 1 3.5,-3.5 h 15.84 a 3.52,3.52 0 0 1 3.5,3.5 v 35.62 q 0,31.18 0,62.390005 a 3.52,3.52 0 0 1 -3.5,3.5 z"
     fill="#1b6db7"
     id="path39" />
  <path
     d="m 290.9818,8.002685 v 0 m 0,0 q 0,49 0,98.000005 h -15.83 V 8.002685 h 15.84 m 0,-7 h -15.84 a 7,7 0 0 0 -7,7 v 98.000005 a 7,7 0 0 0 7,7 h 15.84 a 7,7 0 0 0 7,-7 q 0,-31.220005 0,-62.420005 v -35.58 a 7,7 0 0 0 -7,-7 z m 0,14 z"
     fill="#ffffff"
     id="path41" />
  <path
     d="m 330.2718,110.50269 a 3.53,3.53 0 0 1 -2.53,-1.07 l -2.5,-2.6 a 3.5,3.5 0 0 1 1.36,-5.73 3.53,3.53 0 0 0 1.91,-2.900005 3.41,3.41 0 0 0 -3.52,-3.26 3.37,3.37 0 0 0 -3.29,3.18 3.23,3.23 0 0 0 1.17,2.460005 3.48,3.48 0 0 1 1.37,2.78 v 0.64 a 3.5,3.5 0 0 1 -3.5,3.5 3.63,3.63 0 0 1 -1,-0.14 l -14.69,-4.31 a 3.5,3.5 0 0 1 -2.51,-3.360005 v -11.18 a 3.5,3.5 0 0 1 3.5,-3.5 h 3.26 a 3.5,3.5 0 0 1 3.5,3.5 v 3.28 a 13.82,13.82 0 0 1 26,6.67 13.16,13.16 0 0 1 -6.89,11.650005 3.57,3.57 0 0 1 -1.64,0.39 z"
     fill="#1b6db7"
     id="path43" />
  <path
     d="m 325.1518,88.102685 a 10,10 0 0 1 10.16,10.36 9.66,9.66 0 0 1 -5,8.540005 l -2.51,-2.6 a 7,7 0 0 0 4.25,-6.200005 6.91,6.91 0 0 0 -13.81,-0.08 6.76,6.76 0 0 0 2.54,5.240005 v 0.64 l -14.68,-4.310005 v -11.18 h 3.26 v 8.8 0 l 5.89,1.74 -0.12,-2 c 0,-5.42 4.74,-9 10,-9 m 0,-7 a 17.77,17.77 0 0 0 -10.24,3.14 7,7 0 0 0 -5.55,-2.73 h -3.26 a 7,7 0 0 0 -7,7 v 11.26 a 7,7 0 0 0 5,6.720005 l 14.68,4.31 a 7,7 0 0 0 2,0.28 6.93,6.93 0 0 0 3,-0.69 l 1.45,1.52 a 7,7 0 0 0 5,2.14 7.11,7.11 0 0 0 3.22,-0.78 16.71,16.71 0 0 0 8.78,-14.760005 c 0,-9.89 -7.38,-17.36 -17.16,-17.36 z"
     fill="#ffffff"
     id="path45" />
  <path
     d="m 334.6718,89.332685 a 3.46,3.46 0 0 1 -2.18,-0.77 l -15.34,-12.25 c -0.59,-0.47 -2.16,-1.72 -2.94,-1.72 a 2.08,2.08 0 0 0 -2,2 2,2 0 0 0 2,1.89 3.5,3.5 0 0 1 3.24,3.52 v 3.48 a 3.49,3.49 0 0 1 -3.5,3.5 2.48,2.48 0 0 1 -0.38,0 c -7.06,-0.77 -11.62,-5.62 -11.62,-12.35 a 12.08,12.08 0 0 1 12.08,-12.33 13,13 0 0 1 8.06,2.83 l 5.81,4.66 v -4 a 3.5,3.5 0 0 1 3.5,-3.5 h 3.27 a 3.5,3.5 0 0 1 3.5,3.5 v 18.04 a 3.5,3.5 0 0 1 -2.02,3.17 3.59,3.59 0 0 1 -1.48,0.33 z"
     fill="#1b6db7"
     id="path47" />
  <path
     d="m 334.6718,67.752685 v 18.08 l -15.37,-12.26 c -1.44,-1.15 -3.22,-2.48 -5.12,-2.48 a 5.4562121,5.4562121 0 0 0 -0.23,10.91 v 3.48 c -5.08,-0.55 -8.5,-3.78 -8.5,-8.87 a 8.64,8.64 0 0 1 8.58,-8.83 9.65,9.65 0 0 1 5.88,2.07 l 11.49,9.15 v -11.25 h 3.27 m 0,-7 h -3.26 a 7,7 0 0 0 -6.41,4.18 l -0.71,-0.57 a 16.56,16.56 0 0 0 -10.26,-3.61 15.72,15.72 0 0 0 -15.58,15.83 c 0,8.51 5.93,14.87 14.74,15.83 a 6.56,6.56 0 0 0 0.76,0 7,7 0 0 0 7,-7 v -1.57 l 9.35,7.46 a 7,7 0 0 0 11.37,-5.47 v -18.08 a 7,7 0 0 0 -7,-7 z"
     fill="#ffffff"
     id="path49" />
  <path
     d="m 320.4318,70.282685 a 18.13,18.13 0 1 1 18.36,-18 18.27,18.27 0 0 1 -18.36,18 z m 0,-25.81 a 7.78,7.78 0 0 0 -8.14,8 c 0,4.09 3.65,7.42 8.14,7.42 4.49,0 8,-3.33 8,-7.42 a 7.9,7.9 0 0 0 -8,-8 z"
     fill="#1b6db7"
     id="path51" />
  <path
     d="m 320.3718,37.532685 a 14.63,14.63 0 1 1 -14.91,14.71 14.66,14.66 0 0 1 14.91,-14.71 m 0.06,25.81 c 6.35,0 11.52,-4.9 11.52,-10.92 a 11.58,11.58 0 0 0 -23.16,0 c 0,6 5.22,10.92 11.64,10.92 m -0.06,-32.81 a 21.63,21.63 0 1 0 21.92,21.71 21.58,21.58 0 0 0 -21.92,-21.71 z m 0.06,25.81 c -2.52,0 -4.64,-1.79 -4.64,-3.92 a 4.3,4.3 0 0 1 4.64,-4.42 4.38,4.38 0 0 1 4.52,4.45 c 0,2.16 -2,3.92 -4.52,3.92 z"
     fill="#ffffff"
     id="path53" />
  <path
     d="m 320.4318,39.752685 a 18.13,18.13 0 1 1 18.36,-18 18.27,18.27 0 0 1 -18.36,18 z m 0,-25.81 a 7.78,7.78 0 0 0 -8.14,8 c 0,4.09 3.65,7.42 8.14,7.42 4.49,0 8,-3.33 8,-7.42 a 7.9,7.9 0 0 0 -8,-8 z"
     fill="#1b6db7"
     id="path55" />
  <path
     d="m 320.3718,7.002685 a 14.63,14.63 0 1 1 -14.91,14.71 14.66,14.66 0 0 1 14.91,-14.71 m 0.06,25.81 c 6.35,0 11.52,-4.9 11.52,-10.92 a 11.58,11.58 0 0 0 -23.16,0 c 0,6 5.22,10.92 11.64,10.92 m -0.06,-32.81 a 21.63,21.63 0 1 0 21.92,21.71 21.58,21.58 0 0 0 -21.92,-21.71 z m 0.06,25.81 c -2.52,0 -4.64,-1.79 -4.64,-3.92 a 4.3,4.3 0 0 1 4.64,-4.45 4.38,4.38 0 0 1 4.52,4.45 c 0,2.16 -2,3.92 -4.52,3.92 z"
     fill="#ffffff"
     id="path57" />
  <path
     d="m 35.851796,12.142685 c 3.9,-4.88 12,-5.71 16.74,-1.62 a 12.69,12.69 0 0 1 4,6.22 q 13.3,44.69 26.56,89.350005 c -5.22,0 -10.44,0 -15.66,0 -2.47,-8.220005 -4.87,-16.440005 -7.3,-24.670005 -10.1,0 -20.19,0 -30.29,0 q -3.7,12.31 -7.34,24.670005 c -5.19,0 -10.38,0 -15.5799999,0 Q 19.591796,63.462685 32.251796,20.852685 c 1,-3 1.38,-6.29 3.57,-8.71 m 9.22,18.25 c -3.7,12.34 -7.33,24.7 -11,37.05 7.34,0 14.67,0 22,0 q -5.47,-18.51 -10.97,-37.05 z"
     fill="#1b6db7"
     id="path59" />
  <path
     d="m 152.5718,12.792685 a 12,12 0 0 1 21.22,4 q 13.25,44.66 26.54,89.290005 c -5.23,0 -10.45,0 -15.68,0 -2.43,-8.220005 -4.84,-16.450005 -7.29,-24.670005 -10.08,0 -20.15,0 -30.23,0 -2.41,8.22 -4.9,16.43 -7.31,24.650005 h -15.56 q 12.6,-42.850005 25.37,-85.670005 c 0.89,-2.58 1.23,-5.42 2.94,-7.65 m -1.27,54.67 h 21.92 c -3.64,-12.38 -7.33,-24.74 -11,-37.12 q -5.43,18.62 -10.92,37.17 z"
     fill="#1b6db7"
     id="path61" />
  <path
     d="M 74.311796,8.002685 H 130.9718 v 15 h -20.82 q 0,41.54 0,83.050005 H 95.151796 q 0,-41.520005 0,-83.000005 h -20.84 c 0,-5.05 -0.01,-10.05 0,-15.05 z"
     fill="#1b6db7"
     id="path63" />
  <path
     d="m 215.0918,8.612685 a 13.09,13.09 0 0 1 4.48,-0.61 c 6,0 11.91,0 17.87,0 a 27.74,27.74 0 0 1 23.94,15.1 c 3,5.74 3.32,12.41 2.56,18.7 -0.53,6.59 -3.35,13.17 -8.52,17.54 -2.74,2.38 -6.14,3.83 -9.07,6 -1.6,1.19 -1.68,3.52 -0.85,5.18 7.9,11.94 16.12,23.7 24.19,35.530005 -5.9,0 -11.81,0 -17.71,0 -7.72,-11.350005 -15.37,-22.760005 -23.07,-34.130005 a 12.43,12.43 0 0 1 -1.52,-11.22 10.75,10.75 0 0 1 6.41,-6 c 5.38,-2 10.68,-5.17 13.66,-10.14 2.27,-3.73 2.15,-8.34 1.13,-12.42 a 12.31,12.31 0 0 0 -12.06,-9.3 c -3.86,0 -7.71,0 -11.57,0 a 3.33,3.33 0 0 0 -3.36,3.16 q 0,40 0,80.000005 c -5,0 -10,0 -15.05,0 q 0,-43.070005 0,-86.110005 a 12.31,12.31 0 0 1 8.54,-11.28 z"
     fill="#1b6db7"
     id="path65" />
  <path
     d="m 275.1518,8.002685 h 15.84 q 0,49 0,98.000005 c -5.28,0 -10.55,0 -15.83,0 z"
     fill="#1b6db7"
     id="path67" />
  <path
     d="m 309.3218,97.312685 5.89,1.74 -0.12,-2 c 0,-5.42 4.74,-9 10,-9 a 10,10 0 0 1 10.16,10.36 9.66,9.66 0 0 1 -5,8.540005 l -2.51,-2.6 a 7,7 0 0 0 4.25,-6.200005 6.91,6.91 0 0 0 -13.81,-0.08 6.76,6.76 0 0 0 2.54,5.240005 v 0.69 l -14.68,-4.310005 v -11.18 h 3.26 v 8.8 z"
     fill="#1b6db7"
     id="path69" />
  <path
     d="m 331.4118,67.752685 h 3.26 v 18.08 l -15.37,-12.26 c -1.44,-1.15 -3.22,-2.48 -5.12,-2.48 a 5.4562121,5.4562121 0 0 0 -0.23,10.91 v 3.48 c -5.08,-0.55 -8.5,-3.78 -8.5,-8.87 a 8.64,8.64 0 0 1 8.58,-8.83 9.65,9.65 0 0 1 5.88,2.07 l 11.49,9.15 v -11.25 z"
     fill="#1b6db7"
     id="path71" />
  <path
     d="m 305.4618,52.242685 a 14.92,14.92 0 1 0 14.91,-14.71 14.77,14.77 0 0 0 -14.91,14.71 z m 15,-11.27 a 11.36,11.36 0 0 1 11.49,11.45 c 0,6 -5.17,10.92 -11.52,10.92 -6.35,0 -11.64,-4.9 -11.64,-10.92 a 11.29,11.29 0 0 1 11.64,-11.42 z"
     fill="#1b6db7"
     id="path73" />
  <path
     d="m 305.4618,21.712685 a 14.92,14.92 0 1 0 14.91,-14.71 14.77,14.77 0 0 0 -14.91,14.71 z m 15,-11.27 a 11.36,11.36 0 0 1 11.49,11.45 c 0,6 -5.17,10.92 -11.52,10.92 -6.35,0 -11.64,-4.9 -11.64,-10.92 a 11.29,11.29 0 0 1 11.64,-11.45 z"
     fill="#1b6db7"
     id="path75" />
  <metadata
     id="metadata897">
    <rdf:RDF>
      <cc:Work
         rdf:about="">
        <dc:title>logo</dc:title>
      </cc:Work>
    </rdf:RDF>
  </metadata>
</svg>
