<?xml version="1.0" encoding="UTF-8" standalone="no"?>
<svg
   viewBox="0 0 377.8569 114.0013"
   version="1.1"
   id="svg32"
   sodipodi:docname="atari2600.svg"
   width="377.8569"
   height="114.0013"
   inkscape:version="1.1 (c68e22c387, 2021-05-23)"
   xmlns:inkscape="http://www.inkscape.org/namespaces/inkscape"
   xmlns:sodipodi="http://sodipodi.sourceforge.net/DTD/sodipodi-0.dtd"
   xmlns="http://www.w3.org/2000/svg"
   xmlns:svg="http://www.w3.org/2000/svg"
   xmlns:rdf="http://www.w3.org/1999/02/22-rdf-syntax-ns#"
   xmlns:cc="http://creativecommons.org/ns#"
   xmlns:dc="http://purl.org/dc/elements/1.1/">
  <defs
     id="defs36" />
  <sodipodi:namedview
     id="namedview34"
     pagecolor="#ffffff"
     bordercolor="#666666"
     borderopacity="1.0"
     inkscape:pageshadow="2"
     inkscape:pageopacity="0.0"
     inkscape:pagecheckerboard="0"
     showgrid="false"
     fit-margin-top="0"
     fit-margin-left="0"
     fit-margin-right="0"
     fit-margin-bottom="0"
     inkscape:zoom="1.113"
     inkscape:cx="189.12848"
     inkscape:cy="56.603774"
     inkscape:window-width="1920"
     inkscape:window-height="1138"
     inkscape:window-x="-8"
     inkscape:window-y="-8"
     inkscape:window-maximized="1"
     inkscape:current-layer="svg32" />
  <title
     id="title2">logo</title>
  <g
     id="Layer_2"
     data-name="Layer 2"
     transform="translate(-311.07301,0.0012954)">
    <rect
       x="554.14227"
       y="26.723009"
       width="24"
       height="24"
       fill="#ffffff"
       id="rect4" />
    <rect
       x="662.14227"
       y="14.72301"
       width="12"
       height="87"
       fill="#ffffff"
       id="rect6" />
  </g>
  <g
     id="Calque_1"
     data-name="Calque 1"
     transform="translate(-311.07301,0.0012954)">
    <path
       d="m 358.43789,7 a 14.14733,14.14733 0 0 1 9.92023,3.87688 20.97336,20.97336 0 0 1 5.92926,9.57806 l 25.3136,86.203 H 378.50631 L 373.26119,87.8438 h -28.50628 l -5.47321,18.81414 H 318.073 L 344.41277,19.31467 A 19.344,19.344 0 0 1 349.65795,10.64879 12.056,12.056 0 0 1 358.43789,7 M 349.772,69.59978 h 17.7879 L 359.12209,26.95441 349.772,69.59978 M 358.43789,0 A 19.03729,19.03729 0 0 0 344.76814,5.63939 26.49618,26.49618 0 0 0 337.708,17.30315 l -26.33688,87.33374 a 7,7 0 0 0 6.70187,9.02105 h 21.20871 a 7,7 0 0 0 6.72136,-5.0447 l 4.00565,-13.76944 h 17.93705 l 3.81769,13.694 a 7,7 0 0 0 6.74286,5.12017 H 399.601 a 7,7 0 0 0 6.7164,-8.97226 l -25.31357,-86.203 -0.0172,-0.05771 A 28.03545,28.03545 0 0 0 373.09755,5.72541 21.034,21.034 0 0 0 358.43789,0 Z m 0.0352,62.59978 0.29757,-1.35727 0.26856,1.35727 z"
       fill="#ffffff"
       id="path9" />
    <path
       d="m 490.707,7 a 14.14754,14.14754 0 0 1 9.92023,3.87682 20.97378,20.97378 0 0 1 5.92926,9.57812 l 25.3136,86.203 H 510.77541 L 505.5303,87.8438 H 477.024 l -5.47321,18.81414 H 450.34213 L 476.68191,19.31467 A 19.34351,19.34351 0 0 1 481.92709,10.64879 12.05594,12.05594 0 0 1 490.707,7 m -8.6659,62.59978 h 17.7879 l -8.43786,-42.64537 -9.35,42.64537 M 490.707,0 a 19.0372,19.0372 0 0 0 -13.66973,5.63939 26.49611,26.49611 0 0 0 -7.06012,11.66376 l -26.33689,87.33374 a 7,7 0 0 0 6.70188,9.02105 h 21.20866 a 7,7 0 0 0 6.72135,-5.0447 l 4.00568,-13.76944 h 17.937 l 3.81769,13.694 a 7,7 0 0 0 6.74285,5.12017 h 21.09467 a 7,7 0 0 0 6.7164,-8.97226 l -25.31357,-86.203 -0.0172,-0.05771 A 28.03587,28.03587 0 0 0 505.36666,5.72541 21.0342,21.0342 0 0 0 490.707,0 Z m 0.0351,62.59978 0.29761,-1.35727 0.26855,1.35727 z"
       fill="#ffffff"
       id="path11" />
    <path
       d="M 634.49264,8.82439 V 107 H 613.62606 V 8.82439 h 20.86658 m 0,-7 h -20.86658 a 7,7 0 0 0 -7,7 V 107 a 7,7 0 0 0 7,7 h 20.86658 a 7,7 0 0 0 7,-7 V 8.82439 a 7,7 0 0 0 -7,-7 z"
       fill="#ffffff"
       id="path13" />
    <path
       d="M 453.87692,8.48235 V 27.1824 h -18.472 v 79.47554 H 414.65231 V 27.1824 h -18.70014 v -18.7 h 57.92475 m 0,-7 h -57.92475 a 7,7 0 0 0 -7,7 v 18.7 a 7,7 0 0 0 7,7 h 11.70014 v 72.47554 a 7,7 0 0 0 7,7 h 20.75256 a 7,7 0 0 0 7,-7 V 34.1824 h 11.472 a 7,7 0 0 0 7,-7 v -18.7 a 7,7 0 0 0 -7,-7 z"
       fill="#ffffff"
       id="path15" />
    <path
       d="m 570.06844,8.8244 a 28.64374,28.64374 0 0 1 20.41056,8.43785 c 5.81524,5.70124 8.7799,12.20069 8.7799,19.61231 a 23.26585,23.26585 0 0 1 -5.01709,15.05133 38.36494,38.36494 0 0 1 -13.797,10.26227 l 25.42761,44.46978 H 581.92709 L 561.74465,68.0034 a 47.7147,47.7147 0 0 1 -2.28052,-5.1311 11.4143,11.4143 0 0 1 -0.91223,-3.53479 c 0,-4.333 3.30677,-7.86774 10.14826,-10.60431 6.72748,-2.73663 10.14825,-6.27142 10.14825,-10.37628 a 12.20251,12.20251 0 0 0 -2.85064,-7.5257 c -1.93842,-2.39453 -3.99091,-3.64879 -6.27137,-3.64879 h -11.85864 v 79.47551 H 537.79934 V 21.82323 c 0,-2.96459 1.36829,-5.92926 4.10492,-8.77991 2.73663,-2.85065 5.47321,-4.21892 8.20974,-4.21892 h 19.9544 m 0,-7 H 550.114 c -4.7399,0 -9.20105,2.14359 -13.25952,6.3712 -5.00464,5.21321 -6.05518,10.28821 -6.05518,13.62763 v 84.83471 a 7,7 0 0 0 7,7 h 20.06842 a 7,7 0 0 0 7,-7 V 89.10915 l 10.85419,20.7886 a 7,7 0 0 0 6.20514,3.76019 h 23.94525 a 7,7 0 0 0 6.07672,-10.47467 L 590.0386,64.86455 a 40.7958,40.7958 0 0 0 9.65448,-8.54737 30.16447,30.16447 0 0 0 6.56579,-19.44262 c 0,-9.253 -3.66037,-17.53334 -10.87942,-24.61081 l -0.0507,-0.04923 A 35.463,35.463 0 0 0 570.06844,1.8244 Z m -5.20068,32.358 h 4.63562 a 5.15,5.15 0 0 1 1.00382,0.99208 5.04369,5.04369 0 0 1 1.34121,3.18241 c 0,0.23913 -1.06695,1.97265 -5.78586,3.89221 q -0.61344,0.24535 -1.19479,0.49908 v -8.56575 z"
       fill="#ffffff"
       id="path17" />
    <path
       d="m 668.016,8.82439 a 14.13506,14.13506 0 0 1 9.57813,3.76281 12.09387,12.09387 0 0 1 4.10492,9.57813 14.80124,14.80124 0 0 1 -3.64881,9.92016 11.83168,11.83168 0 0 1 -9.57806,4.21894 13.335,13.335 0 0 1 -9.92023,-4.10492 13.37808,13.37808 0 0 1 -4.10492,-9.69208 13.12736,13.12736 0 0 1 4.10492,-9.57812 13.06489,13.06489 0 0 1 9.464,-4.10492 m 0.45618,21.77881 a 7.20715,7.20715 0 0 0 5.70129,-2.50855 8.4672,8.4672 0 0 0 2.16645,-5.92932 7.94267,7.94267 0 0 0 -2.28052,-5.58722 8.89071,8.89071 0 0 0 -6.04327,-2.16649 h -8e-5 a 7.53407,7.53407 0 0 0 -5.4732,2.39452 7.5341,7.5341 0 0 0 -2.39453,5.4732 7.67837,7.67837 0 0 0 2.5086,5.92932 8.29675,8.29675 0 0 0 5.81525,2.39454 M 668.016,1.82439 a 20.08635,20.08635 0 0 0 -14.41386,6.15521 20.3554,20.3554 0 0 0 -0.0517,29.1178 20.23491,20.23491 0 0 0 14.92169,6.207 A 18.86054,18.86054 0 0 0 683.36361,36.643 21.72985,21.72985 0 0 0 688.699,22.16533 19.1117,19.1117 0 0 0 682.2037,7.3192 20.98955,20.98955 0 0 0 668.016,1.82439 Z m 0.45618,21.77881 c -0.21857,0 -0.49054,0 -1.03894,-0.51183 -0.21887,-0.2043 -0.28491,-0.266 -0.28491,-0.812 0,-0.0626 0,-0.17917 0.34442,-0.52356 0.34412,-0.34416 0.46069,-0.34416 0.52331,-0.34416 a 2.20525,2.20525 0 0 1 1.176,0.25111 0.75381,0.75381 0 0 1 0.14789,0.5026 1.74157,1.74157 0 0 1 -0.29608,1.16623 q -0.0816,0.08788 -0.16016,0.17854 a 0.55946,0.55946 0 0 1 -0.0717,0.07277 l -0.004,-0.0012 a 2.8824,2.8824 0 0 1 -0.33624,0.02152 z"
       fill="#ffffff"
       id="path19" />
    <path
       d="m 681.585,90.01024 v 14.25317 a 2.19618,2.19618 0 0 1 -1.14025,1.71033 4.017,4.017 0 0 1 -2.39454,0.79822 c -1.25427,0 -2.85058,-0.91223 -4.90307,-2.73664 -1.93842,-1.8244 -3.99085,-3.6488 -5.92932,-5.58722 -1.93842,-1.8244 -3.53473,-2.85064 -4.675,-2.85064 a 2.37607,2.37607 0 0 0 -1.71039,0.79822 2.34879,2.34879 0 0 0 -0.79822,1.93841 2.74787,2.74787 0 0 0 0.79822,2.05243 2.83857,2.83857 0 0 0 2.16644,0.79816 v 5.4732 a 8.02234,8.02234 0 0 1 -5.92932,-2.50854 8.4806,8.4806 0 0 1 -2.50854,-5.92926 7.60585,7.60585 0 0 1 2.50854,-5.81531 7.91726,7.91726 0 0 1 5.81531,-2.39453 9.93614,9.93614 0 0 1 6.84149,3.30676 c 2.28052,2.16644 4.447,4.21893 6.49945,6.27136 l 0.114,-9.57812 h 5.2452 m 0,-7 h -5.24517 a 6.98555,6.98555 0 0 0 -5.315,2.44452 15.49246,15.49246 0 0 0 -8.13995,-2.44452 14.91341,14.91341 0 0 0 -10.67963,4.36 14.59833,14.59833 0 0 0 -4.64425,10.84984 15.53189,15.53189 0 0 0 4.39117,10.7055 q 0.0823,0.0882 0.16767,0.17353 a 14.91446,14.91446 0 0 0 10.879,4.55877 6.99943,6.99943 0 0 0 6.21235,-3.77087 c 2.27972,1.92416 5.25073,3.885 8.839,3.885 a 11.07446,11.07446 0 0 0 6.4632,-2.10211 8.97026,8.97026 0 0 0 4.07159,-7.40644 V 90.01024 a 7,7 0 0 0 -7,-7 z"
       fill="#ffffff"
       id="path21" />
    <path
       d="m 668.016,38.699 a 14.135,14.135 0 0 1 9.57813,3.76282 12.09393,12.09393 0 0 1 4.10487,9.57808 14.80123,14.80123 0 0 1 -3.64881,9.92017 11.8317,11.8317 0 0 1 -9.57806,4.21893 14.01805,14.01805 0 0 1 -14.02513,-13.797 13.12733,13.12733 0 0 1 4.10492,-9.57812 13.06493,13.06493 0 0 1 9.464,-4.10492 m 0.45618,21.77881 a 7.20734,7.20734 0 0 0 5.70129,-2.50855 8.4672,8.4672 0 0 0 2.16645,-5.92932 7.94269,7.94269 0 0 0 -2.28052,-5.58722 8.89047,8.89047 0 0 0 -6.04327,-2.1665 h -5e-5 a 8.19718,8.19718 0 0 0 -7.86773,7.86774 7.67837,7.67837 0 0 0 2.5086,5.92932 8.29679,8.29679 0 0 0 5.81525,2.39453 M 668.016,31.699 a 20.08635,20.08635 0 0 0 -14.41381,6.15521 20.3554,20.3554 0 0 0 -0.0517,29.1178 20.23491,20.23491 0 0 0 14.92169,6.207 A 18.86054,18.86054 0 0 0 683.36366,66.5176 21.72989,21.72989 0 0 0 688.699,52.0399 19.11171,19.11171 0 0 0 682.2037,37.19377 20.9896,20.9896 0 0 0 668.016,31.699 Z m 0.45618,21.77881 c -0.21857,0 -0.49054,0 -1.03894,-0.51184 -0.21887,-0.20429 -0.28491,-0.26593 -0.28491,-0.812 0,-0.0626 0,-0.17917 0.34442,-0.52356 0.34412,-0.34418 0.46069,-0.34418 0.52331,-0.34418 a 2.20506,2.20506 0 0 1 1.176,0.2511 0.75382,0.75382 0 0 1 0.14789,0.50262 1.74161,1.74161 0 0 1 -0.29608,1.16623 q -0.0815,0.08784 -0.16,0.17844 a 0.55594,0.55594 0 0 1 -0.0718,0.07281 l -0.003,-0.0012 a 2.87594,2.87594 0 0 1 -0.3363,0.02155 z"
       fill="#ffffff"
       id="path23" />
    <path
       d="m 672.69106,68.3455 a 8.64067,8.64067 0 0 1 6.61341,2.85059 9.54968,9.54968 0 0 1 2.62256,6.84155 7.66836,7.66836 0 0 1 -2.96467,6.15735 10.45621,10.45621 0 0 1 -6.72741,2.50855 c -1.02625,0 -2.85065,-0.57013 -5.58728,-1.8244 -2.73663,-1.25427 -5.47315,-2.50855 -8.09577,-3.8769 -2.62262,-1.36835 -3.99084,-2.05243 -3.99084,-2.05243 v -6.27136 l 9.80615,4.675 a 9.15046,9.15046 0 0 1 2.39453,-6.49939 7.90588,7.90588 0 0 1 5.92932,-2.50855 m 0.11408,12.6568 a 3.18748,3.18748 0 0 0 3.53473,-3.53479 3.435,3.435 0 0 0 -1.02625,-2.62262 3.68009,3.68009 0 0 0 -2.39453,-0.91217 3.61208,3.61208 0 0 0 -2.62256,1.02625 3.66207,3.66207 0 0 0 -1.14026,2.50854 3.23377,3.23377 0 0 0 1.14026,2.50855 3.74117,3.74117 0 0 0 2.50861,1.02624 m -0.11408,-19.6568 a 14.90138,14.90138 0 0 0 -11.059,4.74549 15.60218,15.60218 0 0 0 -1.29675,1.58551 l -2.762,-1.31671 a 7,7 0 0 0 -10.01233,6.31866 v 6.27136 a 7.00114,7.00114 0 0 0 3.86883,6.26065 c 0.0133,0.0067 1.36042,0.68122 3.884,1.99787 2.78113,1.451 5.646,2.76416 8.41662,4.034 3.7641,1.72518 6.30732,2.46118 8.5044,2.46118 a 17.44121,17.44121 0 0 0 11.17737,-4.105 14.57174,14.57174 0 0 0 5.5148,-11.56088 16.43831,16.43831 0 0 0 -4.52515,-11.63907 15.71637,15.71637 0 0 0 -11.71082,-5.05307 z"
       fill="#ffffff"
       id="path25" />
    <path
       d="m 399.601,106.65793 h -21.09467 l -5.24515,-18.81414 h -28.50627 l -5.4732,18.81414 H 318.073 L 344.41279,19.31472 A 19.34307,19.34307 0 0 1 349.65795,10.64881 12.056,12.056 0 0 1 358.43792,7 a 14.14746,14.14746 0 0 1 9.92018,3.87685 20.97372,20.97372 0 0 1 5.92931,9.57811 z M 367.56,69.59978 359.12207,26.9544 349.772,69.59978 Z m 86.317,-42.41733 h -18.47216 v 79.47548 H 414.65228 V 27.18245 H 395.95217 V 8.48234 h 57.92475 v 18.70011 z m 77.99316,79.47548 H 510.77543 L 505.53027,87.84379 H 477.024 l -5.47321,18.81414 H 450.34213 L 476.68194,19.31472 A 19.3428,19.3428 0 0 1 481.9271,10.64881 12.05593,12.05593 0 0 1 490.707,7 a 14.14738,14.14738 0 0 1 9.92018,3.87685 20.9737,20.9737 0 0 1 5.9293,9.57811 z M 499.829,69.59978 491.39116,26.9544 482.04111,69.59978 Z m 106.04333,37.05815 H 581.92707 L 561.74464,68.00342 a 47.71224,47.71224 0 0 1 -2.2805,-5.13113 11.41343,11.41343 0 0 1 -0.91221,-3.53477 c 0,-4.33295 3.30672,-7.86773 10.14823,-10.60433 6.72747,-2.73661 10.14822,-6.27138 10.14822,-10.37629 a 12.20246,12.20246 0 0 0 -2.85062,-7.52565 c -1.93843,-2.39453 -3.99088,-3.64881 -6.27138,-3.64881 h -11.85861 v 79.47549 H 537.79935 V 21.82327 c 0,-2.96465 1.3683,-5.9293 4.10491,-8.77993 2.73661,-2.85063 5.47321,-4.21893 8.20981,-4.21893 h 19.9544 a 28.6435,28.6435 0 0 1 20.41053,8.43786 c 5.81528,5.70125 8.77992,12.20068 8.77992,19.61231 a 23.26572,23.26572 0 0 1 -5.01709,15.05131 38.365,38.365 0 0 1 -13.79705,10.26226 z M 634.49264,107 H 613.62607 V 8.82441 h 20.86657 z"
       fill="#ed1c24"
       id="path27" />
    <path
       d="m 681.585,90.12429 v 14.13911 a 2.19631,2.19631 0 0 1 -1.14025,1.71038 4.017,4.017 0 0 1 -2.39453,0.79817 c -1.25429,0 -2.85063,-0.9122 -4.90307,-2.7366 -1.93844,-1.8244 -3.99088,-3.6488 -5.92932,-5.58723 -1.93844,-1.8244 -3.53478,-2.85063 -4.675,-2.85063 a 2.376,2.376 0 0 0 -1.71038,0.79817 2.349,2.349 0 0 0 -0.79819,1.93843 2.74789,2.74789 0 0 0 0.79819,2.05245 2.83862,2.83862 0 0 0 2.16647,0.79817 v 5.47321 a 8.02229,8.02229 0 0 1 -5.92932,-2.50855 8.48057,8.48057 0 0 1 -2.50856,-5.9293 7.60565,7.60565 0 0 1 2.50856,-5.81528 7.91727,7.91727 0 0 1 5.81529,-2.39452 9.93629,9.93629 0 0 1 6.8415,3.30673 c 2.28051,2.16648 4.447,4.21892 6.49945,6.27138 l 0.114,-9.57811 H 681.585 Z M 672.69105,68.3455 a 8.64076,8.64076 0 0 1 6.61344,2.85063 9.54952,9.54952 0 0 1 2.62256,6.8415 7.66846,7.66846 0 0 1 -2.96466,6.15736 10.45616,10.45616 0 0 1 -6.72747,2.50855 c -1.02622,0 -2.85063,-0.57013 -5.58722,-1.8244 -2.73659,-1.25427 -5.47319,-2.50855 -8.09579,-3.87686 -2.6226,-1.36831 -3.99088,-2.05245 -3.99088,-2.05245 v -6.27138 l 9.80617,4.675 a 9.15062,9.15062 0 0 1 2.39453,-6.49943 7.906,7.906 0 0 1 5.92932,-2.50855 z m 0.22806,5.58723 a 3.61215,3.61215 0 0 0 -2.62256,1.02623 3.66207,3.66207 0 0 0 -1.14025,2.50855 3.23362,3.23362 0 0 0 1.14025,2.50856 3.741,3.741 0 0 0 2.50856,1.02622 3.18746,3.18746 0 0 0 3.53475,-3.53478 3.435,3.435 0 0 0 -1.02621,-2.62257 3.67984,3.67984 0 0 0 -2.39454,-0.9122 z M 681.699,52.03992 a 14.80136,14.80136 0 0 1 -3.64881,9.92018 11.83179,11.83179 0 0 1 -9.5781,4.21893 A 14.018,14.018 0 0 1 654.447,52.382 a 13.12721,13.12721 0 0 1 4.10491,-9.57811 13.06505,13.06505 0 0 1 9.46409,-4.10489 14.13494,14.13494 0 0 1 9.5781,3.76282 12.09379,12.09379 0 0 1 4.10491,9.57811 z m -13.683,-7.75371 a 8.19718,8.19718 0 0 0 -7.86772,7.86773 7.6783,7.6783 0 0 0 2.50856,5.9293 8.297,8.297 0 0 0 5.81529,2.39453 7.20709,7.20709 0 0 0 5.70125,-2.50855 8.46712,8.46712 0 0 0 2.16647,-5.92931 7.94274,7.94274 0 0 0 -2.2805,-5.58723 8.89072,8.89072 0 0 0 -6.04335,-2.16648 z m 13.683,-22.12086 a 14.80136,14.80136 0 0 1 -3.64881,9.92018 11.83182,11.83182 0 0 1 -9.5781,4.21893 13.335,13.335 0 0 1 -9.9202,-4.10491 13.37808,13.37808 0 0 1 -4.10491,-9.69213 13.12725,13.12725 0 0 1 4.10491,-9.57811 13.06505,13.06505 0 0 1 9.46407,-4.1049 14.135,14.135 0 0 1 9.5781,3.76283 12.09377,12.09377 0 0 1 4.10491,9.5781 z m -13.683,-7.75371 a 7.53388,7.53388 0 0 0 -5.47319,2.39453 7.53392,7.53392 0 0 0 -2.39453,5.4732 7.67829,7.67829 0 0 0 2.50856,5.9293 8.297,8.297 0 0 0 5.81529,2.39453 7.20706,7.20706 0 0 0 5.70125,-2.50855 8.46709,8.46709 0 0 0 2.16647,-5.92931 7.94277,7.94277 0 0 0 -2.2805,-5.58723 8.89071,8.89071 0 0 0 -6.04331,-2.16647 z"
       fill="#ed1c24"
       id="path29" />
  </g>
  <metadata
     id="metadata853">
    <rdf:RDF>
      <cc:Work
         rdf:about="">
        <dc:title>logo</dc:title>
      </cc:Work>
    </rdf:RDF>
  </metadata>
</svg>
