<?xml version="1.0" encoding="UTF-8" standalone="no"?>
<svg
   id="Calque_1"
   data-name="Calque 1"
   viewBox="0 0 462.33441 114.00128"
   version="1.1"
   sodipodi:docname="atari7800.svg"
   width="462.33441"
   height="114.00128"
   inkscape:version="1.1 (c68e22c387, 2021-05-23)"
   xmlns:inkscape="http://www.inkscape.org/namespaces/inkscape"
   xmlns:sodipodi="http://sodipodi.sourceforge.net/DTD/sodipodi-0.dtd"
   xmlns:xlink="http://www.w3.org/1999/xlink"
   xmlns="http://www.w3.org/2000/svg"
   xmlns:svg="http://www.w3.org/2000/svg"
   xmlns:rdf="http://www.w3.org/1999/02/22-rdf-syntax-ns#"
   xmlns:cc="http://creativecommons.org/ns#"
   xmlns:dc="http://purl.org/dc/elements/1.1/">
  <sodipodi:namedview
     id="namedview253"
     pagecolor="#ffffff"
     bordercolor="#666666"
     borderopacity="1.0"
     inkscape:pageshadow="2"
     inkscape:pageopacity="0.0"
     inkscape:pagecheckerboard="0"
     showgrid="false"
     fit-margin-top="0"
     fit-margin-left="0"
     fit-margin-right="0"
     fit-margin-bottom="0"
     inkscape:zoom="1.113"
     inkscape:cx="231.35669"
     inkscape:cy="56.603774"
     inkscape:window-width="1920"
     inkscape:window-height="1138"
     inkscape:window-x="-8"
     inkscape:window-y="-8"
     inkscape:window-maximized="1"
     inkscape:current-layer="Calque_1" />
  <defs
     id="defs55">
    <linearGradient
       id="Degradado_sin_nombre_33"
       x1="301.86536"
       y1="110.45096"
       x2="301.86536"
       y2="3.5022299"
       gradientUnits="userSpaceOnUse">
      <stop
         offset="0"
         stop-color="#6c4d9d"
         id="stop2" />
      <stop
         offset="0.04305"
         stop-color="#6855a2"
         id="stop4" />
      <stop
         offset="0.10946"
         stop-color="#5b6bb1"
         id="stop6" />
      <stop
         offset="0.19045"
         stop-color="#488ec9"
         id="stop8" />
      <stop
         offset="0.25556"
         stop-color="#35afdf"
         id="stop10" />
      <stop
         offset="0.48461"
         stop-color="#9ecf81"
         id="stop12" />
      <stop
         offset="0.65214"
         stop-color="#fdd255"
         id="stop14" />
      <stop
         offset="0.69798"
         stop-color="#fccc55"
         id="stop16" />
      <stop
         offset="0.7587"
         stop-color="#fbbb55"
         id="stop18" />
      <stop
         offset="0.82776"
         stop-color="#f8a056"
         id="stop20" />
      <stop
         offset="0.90299"
         stop-color="#f47a56"
         id="stop22" />
      <stop
         offset="0.98239"
         stop-color="#ef4957"
         id="stop24" />
      <stop
         offset="1"
         stop-color="#ee3d57"
         id="stop26" />
    </linearGradient>
    <linearGradient
       id="Degradado_sin_nombre_33-2"
       x1="337.93149"
       y1="110.47049"
       x2="337.93149"
       y2="-17904.039"
       xlink:href="#Degradado_sin_nombre_33"
       gradientTransform="translate(-268.83283,6.2987209e-4)" />
    <linearGradient
       id="Degradado_sin_nombre_33-3"
       x1="330.94363"
       y1="113.2226"
       x2="330.94363"
       y2="3.4991901"
       xlink:href="#Degradado_sin_nombre_33"
       gradientTransform="translate(-268.83283,6.2987209e-4)" />
    <linearGradient
       id="Degradado_sin_nombre_33-4"
       x1="381.92947"
       y1="113.75141"
       x2="381.92947"
       y2="-101.0624"
       xlink:href="#Degradado_sin_nombre_33"
       gradientTransform="translate(-268.83283,6.2987209e-4)" />
    <linearGradient
       id="Degradado_sin_nombre_33-5"
       x1="394.19501"
       y1="110.43924"
       x2="394.19501"
       y2="-235.83694"
       xlink:href="#Degradado_sin_nombre_33"
       gradientTransform="translate(-268.83283,6.2987209e-4)" />
    <linearGradient
       id="Degradado_sin_nombre_33-6"
       x1="397.01987"
       y1="184.67123"
       x2="397.01987"
       y2="-411.88498"
       xlink:href="#Degradado_sin_nombre_33"
       gradientTransform="translate(-268.83283,6.2987209e-4)" />
    <linearGradient
       id="Degradado_sin_nombre_33-7"
       x1="348.74835"
       y1="126.98286"
       x2="348.74835"
       y2="-4.743"
       xlink:href="#Degradado_sin_nombre_33"
       gradientTransform="translate(-268.83283,6.2987209e-4)" />
    <linearGradient
       id="Degradado_sin_nombre_33-8"
       x1="352.53391"
       y1="126.43062"
       x2="352.53391"
       y2="3.5007801"
       xlink:href="#Degradado_sin_nombre_33"
       gradientTransform="translate(-268.83283,6.2987209e-4)" />
    <linearGradient
       id="Degradado_sin_nombre_33-9"
       x1="369.97385"
       y1="119.18463"
       x2="369.97385"
       y2="-14.76526"
       xlink:href="#Degradado_sin_nombre_33"
       gradientTransform="translate(-268.83283,6.2987209e-4)" />
    <linearGradient
       id="Degradado_sin_nombre_33-10"
       x1="342.09995"
       y1="28026.131"
       x2="342.09995"
       y2="-28005.119"
       xlink:href="#Degradado_sin_nombre_33"
       gradientTransform="translate(-268.83283,6.2987209e-4)" />
    <linearGradient
       id="Degradado_sin_nombre_33-11"
       x1="330.95694"
       y1="110.47674"
       x2="330.95694"
       y2="-11.4641"
       xlink:href="#Degradado_sin_nombre_33"
       gradientTransform="translate(-268.83283,6.2987209e-4)" />
    <linearGradient
       id="Degradado_sin_nombre_33-12"
       x1="337.91586"
       y1="110.46854"
       x2="337.91586"
       y2="3.49979"
       xlink:href="#Degradado_sin_nombre_33"
       gradientTransform="translate(-268.83283,6.2987209e-4)" />
    <linearGradient
       id="Degradado_sin_nombre_33-14"
       x1="348.03738"
       y1="130.43365"
       x2="348.03738"
       y2="3.5007601"
       xlink:href="#Degradado_sin_nombre_33"
       gradientTransform="translate(-268.83283,6.2987209e-4)" />
    <linearGradient
       id="Degradado_sin_nombre_33-15"
       x1="388.30594"
       y1="606.29407"
       x2="388.30594"
       y2="-16941.348"
       xlink:href="#Degradado_sin_nombre_33"
       gradientTransform="translate(-268.83283,6.2987209e-4)" />
    <linearGradient
       id="Degradado_sin_nombre_33-16"
       x1="371.40439"
       y1="119.91775"
       x2="371.40439"
       y2="-85.608177"
       xlink:href="#Degradado_sin_nombre_33"
       gradientTransform="translate(-268.83283,6.2987209e-4)" />
    <linearGradient
       id="Degradado_sin_nombre_33-17"
       x1="361.5412"
       y1="166.49692"
       x2="361.5412"
       y2="-54.521412"
       xlink:href="#Degradado_sin_nombre_33"
       gradientTransform="translate(-268.83283,6.2987209e-4)" />
    <linearGradient
       id="Degradado_sin_nombre_33-18"
       x1="355.03568"
       y1="120.47615"
       x2="355.03568"
       y2="-19.885969"
       xlink:href="#Degradado_sin_nombre_33"
       gradientTransform="translate(-268.83283,6.2987209e-4)" />
    <linearGradient
       id="Degradado_sin_nombre_33-19"
       x1="373.9986"
       y1="110.43924"
       x2="373.9986"
       y2="3.50125"
       xlink:href="#Degradado_sin_nombre_33"
       gradientTransform="translate(-268.83283,6.2987209e-4)" />
    <linearGradient
       id="Degradado_sin_nombre_33-21"
       x1="360.14014"
       y1="162.10406"
       x2="360.14014"
       y2="-174.10452"
       xlink:href="#Degradado_sin_nombre_33"
       gradientTransform="translate(-268.83283,6.2987209e-4)" />
    <linearGradient
       id="Degradado_sin_nombre_33-22"
       x1="360.14014"
       y1="162.10397"
       x2="360.14014"
       y2="-174.10454"
       xlink:href="#Degradado_sin_nombre_33"
       gradientTransform="translate(-268.83283,6.2987209e-4)" />
    <linearGradient
       id="Degradado_sin_nombre_33-24"
       x1="350.80634"
       y1="242.22792"
       x2="350.80634"
       y2="-170.38808"
       xlink:href="#Degradado_sin_nombre_33"
       gradientTransform="translate(-268.83283,6.2987209e-4)" />
    <linearGradient
       id="Degradado_sin_nombre_33-25"
       x1="350.80634"
       y1="242.22781"
       x2="350.80634"
       y2="-170.38809"
       xlink:href="#Degradado_sin_nombre_33"
       gradientTransform="translate(-268.83283,6.2987209e-4)" />
    <linearGradient
       id="Degradado_sin_nombre_33-27"
       x1="301.86533"
       y1="106.95079"
       x2="301.86533"
       y2="7.0023298"
       xlink:href="#Degradado_sin_nombre_33"
       gradientTransform="translate(-268.83283,6.2987209e-4)" />
    <linearGradient
       id="Degradado_sin_nombre_33-28"
       x1="337.91592"
       y1="106.97016"
       x2="337.91592"
       y2="7.0006199"
       xlink:href="#Degradado_sin_nombre_33"
       gradientTransform="translate(-268.83283,6.2987209e-4)" />
    <linearGradient
       id="Degradado_sin_nombre_33-29"
       x1="373.99774"
       y1="106.93917"
       x2="373.99774"
       y2="7.0007601"
       xlink:href="#Degradado_sin_nombre_33"
       gradientTransform="translate(-268.83283,6.2987209e-4)" />
    <linearGradient
       id="Degradado_sin_nombre_33-30"
       x1="337.91592"
       y1="106.96822"
       x2="337.91592"
       y2="7.0013499"
       xlink:href="#Degradado_sin_nombre_33"
       gradientTransform="translate(-268.83283,6.2987209e-4)" />
    <linearGradient
       id="Degradado_sin_nombre_33-31"
       x1="373.99771"
       y1="106.93916"
       x2="373.99771"
       y2="7.0015602"
       xlink:href="#Degradado_sin_nombre_33"
       gradientTransform="translate(-268.83283,6.2987209e-4)" />
    <linearGradient
       inkscape:collect="always"
       xlink:href="#Degradado_sin_nombre_33"
       id="linearGradient1072"
       gradientUnits="userSpaceOnUse"
       x1="301.86536"
       y1="110.45096"
       x2="301.86536"
       y2="3.5022299"
       gradientTransform="translate(-268.83283,6.2987209e-4)" />
    <linearGradient
       inkscape:collect="always"
       xlink:href="#Degradado_sin_nombre_33"
       id="linearGradient1074"
       x1="337.91586"
       y1="110.46854"
       x2="337.91586"
       y2="3.49979"
       gradientTransform="translate(-268.83283,6.2987209e-4)" />
    <linearGradient
       inkscape:collect="always"
       xlink:href="#Degradado_sin_nombre_33"
       id="linearGradient1076"
       x1="373.9986"
       y1="110.43924"
       x2="373.9986"
       y2="3.50125"
       gradientTransform="translate(-268.83283,6.2987209e-4)" />
    <linearGradient
       inkscape:collect="always"
       xlink:href="#Degradado_sin_nombre_33"
       id="linearGradient1078"
       x1="360.14014"
       y1="162.10397"
       x2="360.14014"
       y2="-174.10454"
       gradientTransform="translate(-268.83283,6.2987209e-4)" />
    <linearGradient
       inkscape:collect="always"
       xlink:href="#Degradado_sin_nombre_33"
       id="linearGradient1080"
       x1="350.80634"
       y1="242.22781"
       x2="350.80634"
       y2="-170.38809"
       gradientTransform="translate(-268.83283,6.2987209e-4)" />
  </defs>
  <title
     id="title57">logo</title>
  <g
     id="Layer_2"
     data-name="Layer 2"
     transform="translate(-268.83283,6.2987209e-4)">
    <rect
       x="699.71008"
       y="12.65985"
       width="18.392309"
       height="85.307854"
       stroke-width="7"
       stroke="#ffffff"
       stroke-linecap="round"
       stroke-linejoin="round"
       fill="#ffffff"
       id="rect59" />
    <rect
       x="614.62848"
       y="25.74621"
       width="30.66643"
       height="22.66667"
       stroke-width="7"
       stroke="#ffffff"
       stroke-linecap="round"
       stroke-linejoin="round"
       fill="#ffffff"
       id="rect61" />
    <rect
       x="637.62823"
       y="42.07954"
       width="39.666672"
       height="58.93375"
       fill="#ffffff"
       id="rect63" />
    <rect
       x="471.54379"
       y="27.58507"
       width="28.456209"
       height="57.500851"
       fill="#ffffff"
       id="rect65" />
    <rect
       x="509.96158"
       y="27.585079"
       width="23.398491"
       height="47.51318"
       fill="#ffffff"
       id="rect67" />
  </g>
  <path
     d="m 436.00308,68.40583 a 3.08651,3.08651 0 0 1 2.50659,1.533 6.00731,6.00731 0 0 1 0,6.95 3.08624,3.08624 0 0 1 -2.50659,1.533 4.11694,4.11694 0 0 1 -2.952,-1.27753 5.11721,5.11721 0 0 1 -1.42505,-3.74322 4.95815,4.95815 0 0 1 1.42505,-3.71772 4.117,4.117 0 0 1 2.952,-1.27752 m 0,-7 a 11.06289,11.06289 0 0 0 -7.83856,3.26544 11.89277,11.89277 0 0 0 -3.53846,8.7298 12.0625,12.0625 0 0 0 3.43268,8.65 q 0.0524,0.05324 0.10578,0.10535 a 11.06289,11.06289 0 0 0 7.83856,3.26544 9.95847,9.95847 0 0 0 8.19879,-4.45877 13.00738,13.00738 0 0 0 0.002,-15.09525 9.96,9.96 0 0 0 -8.20105,-4.462 z"
     fill="#ffffff"
     id="path70" />
  <path
     d="m 286.4241,39.85822 8.73974,28.20361 h -17.47961 l 8.73987,-28.20361 m 0,-7 a 7.00006,7.00006 0 0 0 -6.68634,4.928 l -8.73987,28.20364 a 7,7 0 0 0 6.68634,9.072 h 17.47961 a 7,7 0 0 0 6.68634,-9.072 l -8.73974,-28.20361 a 7,7 0 0 0 -6.68634,-4.928 z"
     fill="#ffffff"
     id="path72" />
  <path
     d="m 446.76693,68.06342 a 4.33783,4.33783 0 0 1 3.16736,1.365 5.30516,5.30516 0 0 1 1.53613,3.9718 5.47665,5.47665 0 0 1 -1.53613,3.99915 4.33829,4.33829 0 0 1 -3.16736,1.365 3.31334,3.31334 0 0 1 -2.66443,-1.63794 6.47922,6.47922 0 0 1 0,-7.42517 3.31333,3.31333 0 0 1 2.66443,-1.63782 m 0,-7 a 10.13706,10.13706 0 0 0 -8.33954,4.53989 l -0.0339,0.04727 a 13.47888,13.47888 0 0 0 0,15.52646 l 0.0337,0.04712 a 10.137,10.137 0 0 0 8.33966,4.54019 11.26836,11.26836 0 0 0 8.12738,-3.42551 12.448,12.448 0 0 0 3.57611,-8.93863 12.23947,12.23947 0 0 0 -3.60839,-8.94354 11.26359,11.26359 0 0 0 -8.0951,-3.39325 z"
     fill="#ffffff"
     id="path74" />
  <path
     d="m 441.38998,39.06788 a 7.91165,7.91165 0 1 1 -7.87964,7.91156 7.89844,7.89844 0 0 1 7.87964,-7.91156 m 0,-7 a 14.91163,14.91163 0 1 0 14.87958,14.91158 14.91252,14.91252 0 0 0 -14.87958,-14.91158 z"
     fill="#ffffff"
     id="path76" />
  <path
     d="m 360.55893,24.10291 a 12.1539,12.1539 0 0 1 8.40911,3.36609 10.084,10.084 0 0 1 3.68494,7.59418 q 0,6.14739 -6.98016,10.3814 c -2.2085,1.09845 -4.34619,2.185 -6.44855,3.28339 q -3.13549,1.6475 -6.43671,3.29511 -6.98007,4.6593 -6.99188,12.02313 v -39.9433 h 14.76325 m 0,-7 h -14.76325 a 7,7 0 0 0 -7,7 v 39.9433 a 7,7 0 0 0 14,0 c 0,-1.7276 0.43079,-3.77994 3.55078,-5.97663 2.15289,-1.07946 4.21442,-2.13644 6.13373,-3.14492 1.98383,-1.03644 4.05255,-2.08973 6.31,-3.21253 q 0.26229,-0.1305 0.51312,-0.28262 c 8.55408,-5.18894 10.34967,-11.76416 10.34967,-16.36633 a 16.97232,16.97232 0 0 0 -5.964,-12.76264 19.27681,19.27681 0 0 0 -13.13006,-5.19763 z"
     fill="#ffffff"
     id="path78" />
  <path
     d="m 180.96768,39.85822 8.73987,28.20361 h -17.47962 l 8.73975,-28.20361 m 0,-7 a 7,7 0 0 0 -6.68631,4.928 l -8.73975,28.20361 a 7,7 0 0 0 6.68634,9.072 h 17.47962 a 7,7 0 0 0 6.68631,-9.072 l -8.7399,-28.2036 a 7,7 0 0 0 -6.68634,-4.928 z"
     fill="#ffffff"
     id="path80" />
  <path
     d="m 441.38998,11.76246 a 7.91168,7.91168 0 1 1 -7.87964,7.91168 7.89851,7.89851 0 0 1 7.87964,-7.91168 m 0,-7.0000001 A 14.91165,14.91165 0 1 0 456.26956,19.67414 14.91257,14.91257 0 0 0 441.38998,4.7624599 Z"
     fill="#ffffff"
     id="path82" />
  <path
     d="m 201.68361,110.5014 a 3.50073,3.50073 0 0 1 -3.34327,-2.46387 l -6.0039,-19.374 h -22.81738 l -6.08106,19.38575 a 3.49987,3.49987 0 0 1 -3.33935,2.45215 H 140.6465 a 3.50054,3.50054 0 0 1 -3.34473,-4.53125 l 27.56592,-89.40625 c 3.377,-10.7988301 10.61865,-13.0625001 16.1001,-13.0625001 5.437,0 12.64355,2.25927 16.09961,13.0239201 l 27.5664,89.44483 a 3.49969,3.49969 0 0 1 -3.34472,4.53125 z M 184.959,64.56194 l -3.99121,-12.8789 -3.99121,12.8789 z"
     fill="#a92d38"
     id="path84" />
  <path
     d="m 180.96768,7.0012299 q 9.37179,0 12.76721,10.5941101 l 27.55395,89.40589 h -19.6054 l -6.76758,-21.83771 h -27.96729 l -6.85009,21.83771 h -19.452 L 168.21234,17.59534 Q 171.52507,7.0013399 180.96771,7.0012299 M 172.22796,68.06183 h 17.47962 l -8.73987,-28.20361 -8.73978,28.20361 m 8.73975,-68.06060013 c -5.44815,0 -15.21784,2.01432003 -19.43634,15.50500013 l -27.57417,89.43256 a 7,7 0 0 0 6.68927,9.06244 h 19.452 a 7,7 0 0 0 6.6791,-4.90488 l 5.31163,-16.93283 h 17.6676 l 5.2404,16.90982 a 7,7 0 0 0 6.68628,4.92789 h 19.6054 a 7,7 0 0 0 6.68955,-9.06165 L 200.4244,15.5337 200.3998,15.45543 C 196.08252,2.0089599 186.37185,0.00122987 180.96768,0.00122987 Z"
     fill="#ffffff"
     id="path86" />
  <path
     d="m 224.20607,110.5014 a 3.50017,3.50017 0 0 1 -3.5,-3.5 V 27.60296 h -17.99512 a 3.49986,3.49986 0 0 1 -3.5,-3.5 V 7.0013999 a 3.49985,3.49985 0 0 1 3.5,-3.5 h 61.81592 a 3.50017,3.50017 0 0 1 3.5,3.5 V 24.10296 a 3.50017,3.50017 0 0 1 -3.5,3.5 h -17.99512 v 79.39844 a 3.50049,3.50049 0 0 1 -3.5,3.5 z"
     fill="#a92d38"
     id="path88" />
  <path
     d="M 264.52725,7.0012299 V 24.10289 h -21.49508 v 82.89834 h -18.826 V 24.10289 H 202.71096 V 7.0012299 h 61.81629 m 0,-7.00000003 h -61.81629 a 7,7 0 0 0 -7,7.00000003 V 24.10289 a 7,7 0 0 0 7,7 h 14.49521 v 75.89834 a 7,7 0 0 0 7,7 h 18.826 a 7,7 0 0 0 7,-7 V 31.10289 h 14.49512 a 7,7 0 0 0 7,-7 V 7.0012299 a 7,7 0 0 0 -7,-7.00000003 z"
     fill="#ffffff"
     id="path90" />
  <path
     d="m 307.12843,110.5014 a 3.49966,3.49966 0 0 1 -3.34277,-2.46387 l -6.00391,-19.374 h -22.80664 l -6.08008,19.38575 a 3.50091,3.50091 0 0 1 -3.33984,2.45215 h -19.45215 a 3.5,3.5 0 0 1 -3.34473,-4.53125 l 27.56543,-89.40625 c 3.35943,-10.7978901 10.60943,-13.0625301 16.10059,-13.0625301 5.44141,0 12.64941,2.26025 16.08887,13.0288001 l 27.57714,89.44 a 3.5,3.5 0 0 1 -3.34472,4.53125 z m -16.71387,-45.93946 -3.99023,-12.8789 -3.99116,12.8789 z"
     fill="#a92d38"
     id="path92" />
  <path
     d="m 286.4241,7.0012299 q 9.37161,0 12.75537,10.5941101 l 27.56586,89.40589 H 307.12796 L 300.3605,85.16352 h -27.95551 l -6.85022,21.83771 h -19.4519 L 273.66879,17.59534 Q 276.96386,7.0013399 286.4241,7.0012299 M 277.68423,68.06183 h 17.47961 L 286.4241,39.85822 277.68423,68.06183 M 286.4241,0.00122987 c -5.45777,0 -15.24066,2.01564003 -19.43945,15.51512013 l -27.57105,89.42241 a 7,7 0 0 0 6.68927,9.06247 h 19.4519 a 7,7 0 0 0 6.67908,-4.90485 l 5.31165,-16.93286 h 17.65588 l 5.2403,16.90976 a 7,7 0 0 0 6.68628,4.928 h 19.61737 a 7.00006,7.00006 0 0 0 6.68927,-9.06244 L 305.86874,15.5329 305.84764,15.46555 C 301.54995,2.0102899 291.83346,0.00122987 286.4241,0.00122987 Z"
     fill="#ffffff"
     id="path94" />
  <path
     d="m 373.29054,110.5014 a 3.4991,3.4991 0 0 1 -2.86328,-1.48731 L 349.29542,78.96038 v 28.041 a 3.50049,3.50049 0 0 1 -3.5,3.5 h -18.81347 a 3.50049,3.50049 0 0 1 -3.5,-3.5 V 17.94963 a 13.48667,13.48667 0 0 1 4.75488,-10.2397501 15.73153,15.73153 0 0 1 10.874,-4.20849 h 21.49514 a 35.81246,35.81246 0 0 1 23.75977,8.7797801 c 7.0371,5.90674 10.61328,13.1665 10.61328,21.56543 0,7.65479 -2.76465,14.71436 -8.21778,20.98145 A 43.15254,43.15254 0 0 1 371.1587,66.17717 l 26.97364,38.82714 a 3.49968,3.49968 0 0 1 -2.874,5.49708 z M 349.29542,50.23089 q 0.73681,-0.57642 1.54883,-1.11914 a 3.55219,3.55219 0 0 1 0.37793,-0.21924 c 2.25293,-1.12647 4.39746,-2.22412 6.374,-3.2627 2.042,-1.06689 4.12891,-2.12988 6.38086,-3.251 5.17578,-3.186 5.17578,-6.29 5.17578,-7.31543 a 6.62208,6.62208 0 0 0 -2.54492,-5.01026 8.69743,8.69743 0 0 0 -6.04883,-2.45019 h -11.26365 z"
     fill="#a92d38"
     id="path96" />
  <path
     d="m 360.60617,7.0012299 a 32.24389,32.24389 0 0 1 21.49524,7.9485601 q 9.37161,7.86573 9.37756,18.89676 0,10.23992 -7.358,18.68434 a 40.18057,40.18057 0 0 1 -18.4008,11.95227 l 29.5381,42.51807 H 373.29074 L 350.74435,74.93555 q -4.94276,-6.94473 -4.94867,-10.88934 0,-7.36982 6.99188,-12.02313 3.29517,-1.64749 6.43671,-3.29511 c 2.10236,-1.09839 4.24,-2.18494 6.44855,-3.28339 q 6.98007,-4.23412 6.98016,-10.3814 a 10.08414,10.08414 0 0 0 -3.68494,-7.5942 12.15417,12.15417 0 0 0 -8.40911,-3.36609 h -14.76325 v 82.89834 h -18.81415 v -89.0515 a 10.07861,10.07861 0 0 1 3.614,-7.65332 12.26015,12.26015 0 0 1 8.5155,-3.2951801 h 21.49514 m 0,-7.00000003 h -21.49518 a 19.37789,19.37789 0 0 0 -13.219,5.11082003 17.08457,17.08457 0 0 0 -5.91046,12.8376801 v 89.0515 a 7,7 0 0 0 7,7 h 18.81415 a 7,7 0 0 0 7,-7 V 90.02295 l 14.76886,21.00455 a 7.00005,7.00005 0 0 0 5.7262,2.97373 h 21.96753 a 7,7 0 0 0 5.74884,-10.99387 L 376.36817,67.54142 a 46.29875,46.29875 0 0 0 13.03194,-10.41379 c 6.0249,-6.92462 9.07886,-14.75681 9.07886,-23.28108 0,-9.48191 -3.99616,-17.64365 -11.87738,-24.2585001 A 39.197,39.197 0 0 0 360.60617,0.00122987 Z M 352.79568,31.10289 h 7.76325 a 5.21927,5.21927 0 0 1 3.70037,1.54566 c 1.39368,1.273 1.39368,2.073 1.39368,2.41463 0,0.59036 -6e-5,2.13748 -3.38171,4.25534 -2.23175,1.112 -4.29175,2.162 -6.28846,3.20517 q -1.53844,0.80837 -3.18713,1.65158 z"
     fill="#ffffff"
     id="path98" />
  <rect
     x="398.05322"
     y="3.5014"
     width="25.82617"
     height="107"
     rx="3.5"
     fill="#a92d38"
     id="rect100" />
  <path
     d="M 420.37942,7.0012299 V 107.00123 H 401.55337 V 7.0012299 h 18.82605 m 0,-7.00000003 h -18.82605 a 7,7 0 0 0 -7,7.00000003 V 107.00123 a 7,7 0 0 0 7,7 h 18.82605 a 7,7 0 0 0 7,-7 V 7.0012299 a 7,7 0 0 0 -7,-7.00000003 z"
     fill="#ffffff"
     id="path102" />
  <path
     d="m 427.44581,110.5014 a 3.5005,3.5005 0 0 1 -3.5,-3.5 V 91.35589 a 8.52071,8.52071 0 0 1 1.54688,-5.05762 5.95667,5.95667 0 0 1 5.01074,-2.8623 6.77447,6.77447 0 0 1 3.09375,0.7998 l 23.35938,12.2168 a 3.50011,3.50011 0 0 1 1.87793,3.10156 v 6.66309 a 3.49942,3.49942 0 0 1 -5.1211,3.10156 l -17.99707,-9.40723 v 7.08985 a 3.50049,3.50049 0 0 1 -3.5,3.5 z"
     fill="#a92d38"
     id="path104" />
  <path
     d="m 430.50326,86.93586 a 3.312,3.312 0 0 1 1.4964,0.41369 l 23.33472,12.20471 v 6.66309 l -23.1178,-12.085 v 12.86888 h -4.771 V 91.35614 a 5.06151,5.06151 0 0 1 0.92169,-3.05938 2.5712,2.5712 0 0 1 2.136,-1.3609 m 0,-7 a 9.5165,9.5165 0 0 0 -7.88367,4.36422 12.11318,12.11318 0 0 0 -2.174,7.05606 v 15.64509 a 7,7 0 0 0 7,7 h 4.771 a 7,7 0 0 0 7,-7 v -1.3108 l 12.87488,6.73041 a 7,7 0 0 0 10.24292,-6.20349 v -6.66309 a 7,7 0 0 0 -3.75574,-6.20282 l -23.33474,-12.20468 -0.0531,-0.02749 a 10.22907,10.22907 0 0 0 -4.68756,-1.18341 z"
     fill="#ffffff"
     id="path106" />
  <path
     d="m 446.85499,87.82268 a 9.1902,9.1902 0 0 1 -5.52148,-1.84179 10.50279,10.50279 0 0 1 -6.05957,1.84179 c -2.24512,0 -5.51172,-0.82128 -8.31934,-4.73632 A 17.05136,17.05136 0 0 1 426.9653,63.726 c 2.79786,-3.89941 6.06348,-4.72168 8.3086,-4.72168 h 0.67285 a 9.2291,9.2291 0 0 1 5.53125,1.83985 10.56515,10.56515 0 0 1 6.07129,-1.83985 c 2.251,0 5.52051,0.82325 8.31543,4.7461 a 17.20782,17.20782 0 0 1 0.0146,19.30566 c -2.8086,3.94336 -6.0791,4.7666 -8.33008,4.7666 z m 0.084,-16.07128 a 2.69934,2.69934 0 0 0 -0.50586,1.64843 2.80038,2.80038 0 0 0 0.52344,1.70117 c 0.0332,0.04688 0.0644,0.08594 0.0918,0.11915 a 1.14174,1.14174 0 0 0 0.40528,-0.29 1.964,1.964 0 0 0 0.5166,-1.53028 1.79162,1.79162 0 0 0 -0.48242,-1.46777 1.31682,1.31682 0 0 0 -0.43946,-0.32227 c -0.0322,0.03805 -0.0684,0.0859 -0.10938,0.14157 z m -11.24512,0.26757 a 1.70243,1.70243 0 0 0 -0.20019,0.1709 c -0.10743,0.10449 -0.36719,0.35938 -0.36719,1.21094 a 1.64267,1.64267 0 0 0 0.4209,1.29 1.37623,1.37623 0 0 0 0.14355,0.12207 2.33,2.33 0 0 0 0.42578,-1.41211 2.26882,2.26882 0 0 0 -0.42286,-1.3818 z"
     fill="#a92d38"
     id="path108" />
  <path
     d="m 447.54892,62.5047 c 2.09271,0 3.91442,1.09974 5.465,3.27716 a 13.71121,13.71121 0 0 1 0,15.264 c -1.5506,2.17743 -3.37231,3.277 -5.465,3.277 h -0.694 c -2.10345,0 -3.92517,-1.09961 -5.4541,-3.277 a 7.24453,7.24453 0 0 1 -6.1264,3.277 c -2.09277,0 -3.91437,-1.09961 -5.47583,-3.277 a 13.554,13.554 0 0 1 0,-15.264 c 1.56146,-2.17742 3.38306,-3.27716 5.47583,-3.27716 h 0.6723 q 3.15528,0 5.4541,3.25538 a 7.32725,7.32725 0 0 1 6.14814,-3.25538 m -0.782,16.25965 a 4.33829,4.33829 0 0 0 3.16736,-1.365 5.47665,5.47665 0 0 0 1.53613,-3.99915 5.30516,5.30516 0 0 0 -1.53613,-3.9718 4.33783,4.33783 0 0 0 -3.16736,-1.365 3.31333,3.31333 0 0 0 -2.66443,1.63782 6.47922,6.47922 0 0 0 0,7.42517 3.31334,3.31334 0 0 0 2.66443,1.63794 M 436.00311,78.4218 a 3.08624,3.08624 0 0 0 2.50659,-1.533 6.00731,6.00731 0 0 0 0,-6.95 3.08651,3.08651 0 0 0 -2.50659,-1.533 4.117,4.117 0 0 0 -2.952,1.27752 4.95815,4.95815 0 0 0 -1.42505,3.71772 5.11721,5.11721 0 0 0 1.42505,3.74322 4.11694,4.11694 0 0 0 2.952,1.27753 m 11.54584,-22.91712 a 14.2254,14.2254 0 0 0 -6.0127,1.30326 12.55248,12.55248 0 0 0 -5.58954,-1.30326 h -0.6723 c -3.06555,0 -7.49085,1.07526 -11.16431,6.19782 a 20.54618,20.54618 0 0 0 0.004,23.42767 c 3.66986,5.1175 8.09522,6.19275 11.16077,6.19275 a 14.16953,14.16953 0 0 0 6.00276,-1.30215 12.51129,12.51129 0 0 0 5.57769,1.30218 h 0.694 c 4.34637,0 8.31219,-2.20773 11.16693,-6.21652 a 20.70264,20.70264 0 0 0 0.0285,-23.34479 C 455.86151,57.7125 451.89563,55.5047 447.54932,55.5047 Z"
     fill="#ffffff"
     id="path110" />
  <path
     d="m 441.39017,63.15276 a 16.17318,16.17318 0 1 1 16.12109,-16.17334 16.16614,16.16614 0 0 1 -16.12109,16.17334 z m 0,-20.585 a 4.41174,4.41174 0 1 0 4.37988,4.41162 4.40081,4.40081 0 0 0 -4.37988,-4.41158 z"
     fill="#a92d38"
     id="path112" />
  <path
     d="M 441.38998,34.30663 A 12.67292,12.67292 0 1 1 428.7684,46.97942 12.64531,12.64531 0 0 1 441.38998,34.30663 m 0,20.58441 a 7.91165,7.91165 0 1 0 -7.87964,-7.91162 7.89845,7.89845 0 0 0 7.87964,7.91162 m 0,-27.58441 A 19.67289,19.67289 0 1 0 461.0115,46.97942 19.66948,19.66948 0 0 0 441.38998,27.30663 Z m 0,20.58441 a 0.91217,0.91217 0 1 1 0.87958,-0.91162 0.89706,0.89706 0 0 1 -0.87958,0.91162 z"
     fill="#ffffff"
     id="path114" />
  <path
     d="M 441.39017,35.8471 A 16.17293,16.17293 0 1 1 457.51126,19.67425 16.16572,16.16572 0 0 1 441.39017,35.8471 Z m 0,-20.58447 a 4.41174,4.41174 0 1 0 4.37988,4.41162 4.40081,4.40081 0 0 0 -4.37988,-4.41162 z"
     fill="#a92d38"
     id="path116" />
  <path
     d="M 441.38998,7.0012099 A 12.673,12.673 0 1 1 428.7684,19.67414 12.64536,12.64536 0 0 1 441.38998,7.0012099 m 0,20.5844901 a 7.91168,7.91168 0 1 0 -7.87964,-7.91156 7.89845,7.89845 0 0 0 7.87964,7.91156 m 0,-27.58449013 A 19.67293,19.67293 0 1 0 461.0115,19.67414 19.66954,19.66954 0 0 0 441.38998,0.00120987 Z m 0,20.58449013 a 0.9122,0.9122 0 1 1 0.87958,-0.91156 0.897,0.897 0 0 1 -0.87958,0.91156 z"
     fill="#ffffff"
     id="path118" />
  <path
     d="m 7.0000124,110.45163 a 3.50028,3.50028 0 0 1 -3.5,-3.50293 q 0.006,-7.47363 0,-14.94043 a 3.49964,3.49964 0 0 1 2.9795,-3.46387 40.29815,40.29815 0 0 0 12.6762596,-4.34577 45.96733,45.96733 0 0 0 12.63379,-9.88281 53.00983,53.00983 0 0 0 9.01661,-14.0791 c 2.32568,-5.10352 3.95947,-11.10059 5.15429,-18.90088 a 199.98115,199.98115 0 0 0 2.00488,-25.56592 c 0.02,-1.81787 0.0171,-3.6792 0.0146,-5.541 q -0.003,-1.6157101 -4.8e-4,-3.2314401 a 3.49969,3.49969 0 0 1 3.48925,-3.49072 l 7.58936,-0.00391 a 3.49987,3.49987 0 0 1 3.5,3.49414 q 0.009,5.2412101 0.004,10.4858401 v 7.33545 c 0.0225,4.38818 -0.0801,9.16455 -0.32275,15.01611 a 185.99493,185.99493 0 0 1 -2.01562,21.82032 57.5327,57.5327 0 0 1 -4.87256,14.94628 c -3.2959,6.94629 -8.57813,13.52735 -15.708,19.57911 a 58.55492,58.55492 0 0 1 -19.71924,11.17675 67.20177,67.20177 0 0 1 -12.4326196,3.06055 3.622,3.622 0 0 1 -0.49122,0.0342 z"
     fill="url(#Degradado_sin_nombre_33)"
     id="path120"
     style="fill:url(#linearGradient1072)" />
  <path
     d="m 59.058252,7.0029299 c 0.01,5.9373201 0,11.8805001 0.004,17.8178901 0.0252,4.95873 -0.11432,9.91362 -0.3197,14.86852 a 181.32569,181.32569 0 0 1 -1.97071,21.3872 54.52953,54.52953 0 0 1 -4.59063,14.04109 c -3.41242,7.1911 -8.77423,13.27765 -14.80262,18.39337 a 55.40518,55.40518 0 0 1 -18.59686,10.53763 63.43826,63.43826 0 0 1 -11.7816096,2.90277 q 0.006,-7.47592 0,-14.946 a 43.83235,43.83235 0 0 0 13.7852696,-4.70881 49.71,49.71 0 0 0 13.60126,-10.63452 56.60182,56.60182 0 0 0 9.61719,-15.00226 74.77518,74.77518 0 0 0 5.41608,-19.79437 205.78723,205.78723 0 0 0 2.0444,-26.01459 c 0.0329,-2.94545 0.008,-5.8947501 0.0154,-8.8440001 q 1.40067,-0.00431 2.80112,-0.00362 1.52321,0 3.04733,8.9e-4 0.86467,0 1.73022,-0.00118 m 2.5e-4,-7.00000003 h -0.011 l -1.71948,0.00118 -1.52117,-4.9e-4 -1.52618,-4.1e-4 q -1.41176,0 -2.82273,0.00365 a 7,7 0 0 0 -6.97847,6.98176003 q -0.004,1.61187 2.4e-4,3.2236401 c 0.003,1.8163 0.005,3.694 -0.0148,5.51833 a 196.42789,196.42789 0 0 1 -1.96652,25.08772 c -1.14233,7.46006 -2.68866,13.1641 -4.86453,17.93857 l -0.026,0.05783 A 49.49806,49.49806 0 0 1 29.195342,71.96609 42.48957,42.48957 0 0 1 17.514032,81.10797 36.82264,36.82264 0 0 1 5.9583124,85.08331 7,7 0 0 0 2.3860898e-6,92.01077 q 0.00600000391,7.46466 0,14.93524 A 6.99968,6.99968 0 0 0 7.9811424,113.88232 70.67666,70.67666 0 0 0 21.065392,110.66558 62.10237,62.10237 0 0 0 41.955172,98.80793 c 7.48612,-6.36234 13.05457,-13.32331 16.55,-20.68936 a 61.039,61.039 0 0 0 5.171,-15.88938 188.96094,188.96094 0 0 0 2.05841,-22.20822 c 0.24668,-5.94812 0.35013,-10.77612 0.32746,-15.23575 -0.002,-2.4084 -8e-4,-4.84881 -9e-5,-7.28941 q 0.002,-5.25282 -0.004,-10.5043201 a 7.0002,7.0002 0 0 0 -6.99978,-6.98857003 z"
     fill="#ffffff"
     id="path122" />
  <path
     d="m 62.138682,110.47112 a 3.5,3.5 0 0 1 -3.49951,-3.4668 v -0.0723 a 3.50017,3.50017 0 0 1 3.5,-3.5 3.56279,3.56279 0 0 1 0.49268,0.0342 c 1.95654,-0.0166 3.9126,-0.0195 5.86914,-0.0195 l 7.55713,-0.001 a 3.5000104,3.5000104 0 0 1 0.0171,7 q -1.26929,0.006 -2.53809,0.005 l -5.166,-0.003 c -2.0669,0 -4.1333,0.004 -6.19971,0.0234 z"
     fill="url(#Degradado_sin_nombre_33-2)"
     id="path124"
     style="fill:url(#Degradado_sin_nombre_33-2)" />
  <path
     d="m 62.139252,106.93171 6e-5,0.0371 q 3.1794,-0.0279 6.35925,-0.0226 2.42693,0 4.85376,0.002 1.35288,0 2.706,-0.003 v 0.002 q -1.26063,0.003 -2.521,0.003 -2.58083,0 -5.1611,-0.003 c -2.079,0 -4.15811,0.004 -6.23694,0.0234 l -6e-5,-0.0391 m 13.91906,-6.98615 h -0.0175 q -1.34391,0.0033 -2.68845,0.003 l -2.42172,-0.0012 -2.432,-0.0012 q -2.95284,0 -5.90491,0.01859 -0.22512,-0.01452 -0.45391,-0.01456 l -0.0336,6e-5 a 6.984,6.984 0 0 0 -6.96689,6.998 v 0 l 1.2e-4,0.0548 a 7,7 0 0 0 6.99982,6.96771 l 0.0644,-3.1e-4 c 2.05743,-0.0189 4.11508,-0.0231 6.1727,-0.0231 l 2.57428,0.001 2.58682,0.001 q 1.26924,0 2.53848,-0.003 a 7.001,7.001 0 0 0 -0.0175,-14.00192 z"
     fill="#ffffff"
     id="path126" />
  <path
     d="m 62.114272,78.24163 a 3.50063,3.50063 0 0 1 -3.48193,-3.1416 h -0.0181 l -10e-4,-27.23242 q 0.002,-20.42359 -0.007,-40.8486401 a 3.49986,3.49986 0 0 1 3.49756,-3.50244 h 0.002 a 3.49986,3.49986 0 0 1 3.5,3.49707 q 0.0161,20.6696901 0.007,41.3383801 l 4.9e-4,26.74512 h -0.0181 a 3.50081,3.50081 0 0 1 -3.481,3.14453 z"
     fill="url(#Degradado_sin_nombre_33-3)"
     id="path128"
     style="fill:url(#Degradado_sin_nombre_33-3)" />
  <path
     d="m 62.106352,7.0164699 q 0.0261,33.9425401 0.008,67.8838301 -0.008,-33.9373 -0.008,-67.8838301 m 0.008,67.8838301 6e-5,0.198 v 6.1e-4 l -6e-5,-0.19858 m -0.008,-74.88386013 h -0.005 a 7,7 0 0 0 -6.9949,7.00479003 q 0.014,20.4379401 0.007,40.8760001 -0.001,13.5033 7e-4,27.00485 v 0.001 0.09793 0.10065 a 7,7 0 0 0 6.99994,6.99722 h 0.003 a 7,7 0 0 0 6.99722,-7.00271 v -0.098 -0.10064 q -0.003,-13.25871 -2.1e-4,-26.51831 0.002,-20.68374 -0.007,-41.3681701 a 7.00024,7.00024 0 0 0 -7.00063,-6.99461003 z"
     fill="#ffffff"
     id="path130" />
  <path
     d="m 119.43361,107.56097 a 3.50136,3.50136 0 0 1 -1.15284,-0.19629 63.16214,63.16214 0 0 1 -13.418,-6.45508 3.50007,3.50007 0 0 1 3.79248,-5.88379 56.41187,56.41187 0 0 0 11.93408,5.73047 3.50063,3.50063 0 0 1 -1.15576,6.80469 z"
     fill="url(#Degradado_sin_nombre_33-4)"
     id="path132"
     style="fill:url(#Degradado_sin_nombre_33-4)" />
  <path
     d="m 106.75949,97.96833 a 59.74622,59.74622 0 0 0 12.67425,6.09118 59.56846,59.56846 0 0 1 -12.67425,-6.09118 m 0.007,-7.00086 a 7.00065,7.00065 0 0 0 -3.79883,12.88462 66.69,66.69 0 0 0 14.16074,6.81677 7,7 0 0 0 4.61624,-13.217 52.909,52.909 0 0 1 -11.19269,-5.3674 6.96763,6.96763 0 0 0 -3.78546,-1.11695 z"
     fill="#ffffff"
     id="path134" />
  <path
     d="m 131.17872,110.43987 a 3.39534,3.39534 0 0 1 -0.47461,-0.0322 65.67938,65.67938 0 0 1 -12.27539,-2.99219 3.50016,3.50016 0 1 1 2.24414,-6.63086 59.21526,59.21526 0 0 0 10.97706,2.6875 3.50014,3.50014 0 0 1 -0.4712,6.96777 z"
     fill="url(#Degradado_sin_nombre_33-5)"
     id="path136"
     style="fill:url(#Degradado_sin_nombre_33-5)" />
  <path
     d="m 119.55062,104.09963 a 63.09378,63.09378 0 0 0 11.62384,2.84015 62.61861,62.61861 0 0 1 -11.62384,-2.84015 m -7e-4,-7.00192 a 7.00117,7.00117 0 0 0 -2.24392,13.63226 69.123,69.123 0 0 0 12.92727,3.14624 7.0000023,7.0000023 0 0 0 1.89237,-13.87152 55.79931,55.79931 0 0 1 -10.3306,-2.53549 6.99326,6.99326 0 0 0 -2.24512,-0.37149 z"
     fill="#ffffff"
     id="path138" />
  <path
     d="m 131.17872,95.5014 a 3.58856,3.58856 0 0 1 -0.5083,-0.03614 40.76944,40.76944 0 0 1 -6.53174,-1.53711 3.49978,3.49978 0 1 1 2.11963,-6.6709 34.59978,34.59978 0 0 0 5.42774,1.28223 3.49976,3.49976 0 0 1 -0.50733,6.96192 z"
     fill="url(#Degradado_sin_nombre_33-6)"
     id="path140"
     style="fill:url(#Degradado_sin_nombre_33-6)" />
  <path
     d="m 125.20028,90.59272 a 38.23876,38.23876 0 0 0 5.97418,1.40875 37.434,37.434 0 0 1 -5.97418,-1.40875 m -0.002,-7.0019 a 7.00115,7.00115 0 0 0 -2.12414,13.67127 44.01846,44.01846 0 0 0 7.09338,1.66663 7.0000047,7.0000047 0 0 0 2.03186,-13.85178 31.42789,31.42789 0 0 1 -4.87948,-1.15555 6.99714,6.99714 0 0 0 -2.12162,-0.33057 z"
     fill="#ffffff"
     id="path142" />
  <path
     d="m 80.574232,58.43011 a 3.50047,3.50047 0 0 1 -3.47412,-3.11329 q -0.14721,-1.322 -0.27881,-2.6416 l -0.005,-0.04638 c -0.28369,-3.124 -0.51758,-6.3877 -0.69483,-9.70118 v -0.001 c -0.16992,-3.17822 -0.29394,-6.51953 -0.36865,-9.93067 a 3.49935,3.49935 0 0 1 3.42237,-3.57568 c 0.0264,-4.9e-4 0.0522,-0.001 0.0781,-0.001 a 3.49979,3.49979 0 0 1 3.49756,3.42334 c 0.0732,3.33789 0.19434,6.605 0.36035,9.71 0.17236,3.2212 0.39942,6.39161 0.67481,9.42481 q 0.13036,1.281 0.271,2.56494 a 3.5,3.5 0 0 1 -3.09131,3.86572 3.65766,3.65766 0 0 1 -0.39161,0.02199 z"
     fill="url(#Degradado_sin_nombre_33-7)"
     id="path144"
     style="fill:url(#Degradado_sin_nombre_33-7)" />
  <path
     d="m 79.251802,32.91938 c 0.1419,6.473 0.46417,12.94384 1.05029,19.39258 q 0.13284,1.30755 0.27631,2.61743 -0.14566,-1.30911 -0.27631,-2.61737 c -0.58618,-6.44928 -0.90845,-12.91907 -1.05029,-19.39264 m 0.003,-7 c -0.0521,0 -0.104,5.6e-4 -0.15635,0.0017 a 7,7 0 0 0 -6.84494,7.15167 c 0.1558,7.11044 0.50821,13.611 1.07737,19.87292 l 0.007,0.07389 q 0.13623,1.34079 0.28335,2.68389 a 7.0000226,7.0000226 0 0 0 13.91419,-1.54809 q -0.14,-1.25775 -0.26557,-2.51486 c -0.53772,-5.92685 -0.87133,-12.10141 -1.0198,-18.87451 a 7.00028,7.00028 0 0 0 -6.99536,-6.84662 z"
     fill="#ffffff"
     id="path146" />
  <path
     d="m 88.167012,40.93255 a 3.50075,3.50075 0 0 1 -3.47071,-3.0835 233.918,233.918 0 0 1 -1.50976,-27.34668 l -3.95606,0.0024 a 3.50011,3.50011 0 0 1 -0.0708,-6.9995101 l 4.33106,-0.0039 c 1.07373,0 3.22265,0.00537 3.22412,0.00537 a 3.48774,3.48774 0 0 1 1.10009,0.18261 l 0.0371,0.0127 a 3.49663,3.49663 0 0 1 1.40137,0.91455 l 0.0176,0.019 a 3.49472,3.49472 0 0 1 0.65918,1.0293 l 0.007,0.01611 a 3.4873,3.4873 0 0 1 0.25977,1.354 c 0,0.00927 -4.9e-4,0.07324 -0.001,0.08838 a 235.60854,235.60854 0 0 0 1.45069,29.8920901 3.50361,3.50361 0 0 1 -3.47949,3.917 z"
     fill="url(#Degradado_sin_nombre_33-8)"
     id="path148"
     style="fill:url(#Degradado_sin_nombre_33-8)" />
  <path
     d="m 83.486292,7.0013799 q 1.60561,0 3.21045,0.00546 A 239.56089,239.56089 0 0 0 88.171352,37.43184 239.21222,239.21222 0 0 1 86.696682,7.0068399 q -1.71035,-0.00528 -3.42062,-0.00465 -2.05665,0 -4.11344,0.00268 2.16294,-0.00165 4.32367,-0.00349"
     fill="#ffffff"
     id="path150" />
  <path
     d="m 108.5088,84.74063 a 3.49046,3.49046 0 0 1 -2.27,-0.83691 c -0.74072,-0.63184 -1.47656,-1.2959 -2.18652,-1.97266 a 58.78813,58.78813 0 0 1 -13.503418,-19.89551 3.5000507,3.5000507 0 1 1 6.44727,-2.72656 51.92912,51.92912 0 0 0 11.885738,17.55469 c 0.61816,0.58887 1.25683,1.166 1.8999,1.71387 a 3.5,3.5 0 0 1 -2.27297,6.16308 z"
     fill="url(#Degradado_sin_nombre_33-9)"
     id="path152"
     style="fill:url(#Degradado_sin_nombre_33-9)" />
  <path
     d="M 93.772492,60.67194 A 55.8117,55.8117 0 0 0 106.46786,79.3982 q 0.99555,0.9494 2.0426,1.84289 -1.04654,-0.893 -2.04266,-1.84289 A 55.73676,55.73676 0 0 1 93.772492,60.67194 m -0.003,-7.00183 a 7.00392,7.00392 0 0 0 -6.44424,9.728 62.2567,62.2567 0 0 0 14.317198,21.0711 c 0.7478,0.71317 1.53171,1.42038 2.32431,2.09674 a 7.0000051,7.0000051 0 1 0 9.08756,-10.64972 c -0.59693,-0.50937 -1.18754,-1.0422 -1.75541,-1.58377 a 49.12509,49.12509 0 0 1 -11.07925,-16.3873 7.00222,7.00222 0 0 0 -6.450168,-4.275 z"
     fill="#ffffff"
     id="path154" />
  <path
     d="m 70.471692,10.50237 a 3.5000007,3.5000007 0 0 1 0.004,-7.0000001 l 5.582,4.9e-4 a 3.5000124,3.5000124 0 0 1 0.0186,7.0000001 l -1.70556,0.0034 z"
     fill="url(#Degradado_sin_nombre_33-10)"
     id="path156"
     style="fill:url(#Degradado_sin_nombre_33-10)" />
  <path
     d="m 70.476172,7.0025699 q 1.72824,0.00148 3.45615,0.00239 1.06282,0 2.126,-0.002 v 0.002 q -0.82077,0.00136 -1.64114,0.00126 -1.97058,0 -3.941,-0.00358 m -1.2e-4,-7.00000003 a 7.0000011,7.0000011 0 0 0 -0.008,14.00000013 l 0.8414,0.001 3.10763,0.0026 1.65277,-0.0013 A 7.0010074,7.0010074 0 0 0 76.058312,0.00292987 h -0.0147 l -2.11126,0.002 -2.65436,-0.00163 -0.79578,-7.3e-4 z"
     fill="#ffffff"
     id="path158" />
  <path
     d="m 62.138682,110.43206 a 3.49971,3.49971 0 0 1 -3.49951,-3.48043 c -0.0376,-6.665 -0.0317,-13.332 -0.0259,-19.998 q 0.005,-5.92089 10e-4,-11.84082 v -0.0068 a 3.50206,3.50206 0 0 1 3.49316,-3.50391 h 0.007 a 3.49809,3.49809 0 0 1 3.5,3.49024 v 0.0098 q 0.01,6.10547 0,12.21387 c -0.005,6.53222 -0.0107,13.06543 0.0249,19.59765 a 3.5,3.5 0 0 1 -3.48047,3.51856 z"
     fill="url(#Degradado_sin_nombre_33-11)"
     id="path160"
     style="fill:url(#Degradado_sin_nombre_33-11)" />
  <path
     d="m 62.114102,75.09888 v 0.01193 -0.01059 -0.0013 m 0,0.01193 c 0.0174,10.60273 -0.0326,21.21427 0.0251,31.8209 -0.0597,-10.60642 -0.01,-21.21833 -0.0251,-31.8209 m 0,-7.006 a 6.99494,6.99494 0 0 0 -7,6.994 v 0.0013 0.01459 0.0062 q 0.009,5.93385 -0.001,11.87085 c -0.006,6.545 -0.0113,13.31292 0.0262,19.9793 a 7,7 0 0 0 6.99908,6.96058 l 0.0396,-1e-4 a 7,7 0 0 0 6.96116,-7.038 c -0.0354,-6.50235 -0.0301,-13.12589 -0.0249,-19.53131 q 0.005,-6.13266 -1.2e-4,-12.263 c -1.8e-4,-0.09628 -0.002,-0.19183 -0.006,-0.28714 a 7.00514,7.00514 0 0 0 -6.99395,-6.70729 z"
     fill="#ffffff"
     id="path162" />
  <path
     d="m 62.139172,110.46917 a 3.50084,3.50084 0 0 1 -3.5,-3.5 v -0.0371 c -0.0356,-6.52734 -0.0303,-13.0752 -0.0249,-19.62207 q 0.005,-6.10254 0,-12.2041 l -10e-4,-27.23242 q 0.002,-20.42725 -0.007,-40.8545001 a 3.49983,3.49983 0 0 1 3.47656,-3.50244 q 2.83008,-0.019 5.66162,-0.01611 l 8.31348,0.00439 a 3.50008,3.50008 0 0 1 3.5,3.5 q 0.003,49.9702201 0,99.9409201 a 3.49987,3.49987 0 0 1 -3.49121,3.5 l -7.56592,0.001 c -2.10986,0 -4.2207,0.004 -6.33106,0.0225 z"
     fill="url(#Degradado_sin_nombre_33-12)"
     id="path164"
     style="fill:url(#linearGradient1074)" />
  <path
     d="m 67.673552,7.0006299 q 1.40112,0 2.80261,0.00195 1.97411,0.00225 3.94834,0.00359 0.81673,0 1.63381,-0.00127 0.003,49.9702801 0,99.9406601 -1.35525,0.003 -2.71008,0.003 -2.42336,0 -4.84744,-0.002 -3.181,0 -6.36148,0.0226 l -6e-5,-0.0371 c -0.0578,-10.60987 -0.008,-21.22553 -0.0251,-31.83149 v -0.002 q -0.009,-34.037 -0.008,-68.0817901 2.78316,-0.01856 5.5672,-0.01585 m 0,-7.00000002791 q -2.8075,0 -5.61389,0.0159999979 a 7,7 0 0 0 -6.95331,7.00465003 q 0.014,20.4314101 0.007,40.8620001 -10e-4,13.6091 7.6e-4,27.2168 0.0101,6.13549 1.5e-4,12.251 c -0.005,6.427 -0.0106,13.07284 0.0251,19.61871 a 7.032,7.032 0 0 0 7.0014,6.999 l 0.0599,-2.8e-4 c 2.09973,-0.0184 4.2,-0.0223 6.30011,-0.0223 l 2.41876,10e-4 2.42865,0.001 q 1.36428,0 2.72769,-0.003 a 7,7 0 0 0 6.98242,-6.99957 q 0.003,-49.96482 0,-99.9414701 a 7,7 0 0 0 -7,-6.99960003 h -0.0116 l -1.62195,0.00124 -3.07188,-0.00248 -0.86849,-0.001 -2.81062,-0.001999998 z"
     fill="#ffffff"
     id="path166" />
  <path
     d="m 62.139172,110.46917 a 3.50084,3.50084 0 0 1 -3.5,-3.5 v -0.0371 c -0.0356,-6.52734 -0.0303,-13.0752 -0.0249,-19.62207 q 0.005,-6.10254 0,-12.2041 l -10e-4,-27.23242 q 0.002,-20.42725 -0.007,-40.8545001 a 3.49983,3.49983 0 0 1 3.47656,-3.50244 q 2.83008,-0.019 5.66162,-0.01611 l 8.31348,0.00439 a 3.50008,3.50008 0 0 1 3.5,3.5 q 0.003,49.9702201 0,99.9409201 a 3.49987,3.49987 0 0 1 -3.49121,3.5 l -7.56592,0.001 c -2.10986,0 -4.2207,0.004 -6.33106,0.0225 z"
     fill="url(#Degradado_sin_nombre_33-12)"
     id="path168"
     style="fill:url(#Degradado_sin_nombre_33-12)" />
  <path
     d="m 67.673552,7.0006299 q 1.40112,0 2.80261,0.00195 1.97411,0.00225 3.94834,0.00359 0.81673,0 1.63381,-0.00127 0.003,49.9702801 0,99.9406601 -1.35525,0.003 -2.71008,0.003 -2.42336,0 -4.84744,-0.002 -3.181,0 -6.36148,0.0226 l -6e-5,-0.0371 c -0.0578,-10.60987 -0.008,-21.22553 -0.0251,-31.83149 v -0.002 q -0.009,-34.037 -0.008,-68.0817901 2.78316,-0.01856 5.5672,-0.01585 m 0,-7.00000002791 q -2.8075,0 -5.61389,0.0159999979 a 7,7 0 0 0 -6.95331,7.00465003 q 0.014,20.4314101 0.007,40.8620001 -10e-4,13.6091 7.6e-4,27.2168 0.0101,6.13549 1.5e-4,12.251 c -0.005,6.427 -0.0106,13.07284 0.0251,19.61871 a 7.032,7.032 0 0 0 7.0014,6.999 l 0.0599,-2.8e-4 c 2.09973,-0.0184 4.2,-0.0223 6.30011,-0.0223 l 2.41876,10e-4 2.42865,0.001 q 1.36428,0 2.72769,-0.003 a 7,7 0 0 0 6.98242,-6.99957 q 0.003,-49.96482 0,-99.9414701 a 7,7 0 0 0 -7,-6.99960003 h -0.0116 l -1.62195,0.00124 -3.07188,-0.00248 -0.86849,-0.001 -2.81062,-0.001999998 z"
     fill="#ffffff"
     id="path170" />
  <path
     d="m 79.250502,36.41936 a 3.49978,3.49978 0 0 1 -3.49756,-3.42334 c -0.0645,-2.93212 -0.0957,-5.52832 -0.0957,-7.93554 q 0,-0.84375 0.005,-1.687 V 7.0033499 a 3.50018,3.50018 0 0 1 3.5,-3.49854 h 10e-4 a 3.50018,3.50018 0 0 1 3.49853,3.50147 V 23.40716 q -0.005,0.82691 -0.005,1.65381 c 0,2.355 0.0308,4.90039 0.0937,7.78173 a 3.5,3.5 0 0 1 -3.42236,3.57569 c -0.0259,4.9e-4 -0.0522,9.7e-4 -0.0781,9.7e-4 z"
     fill="url(#Degradado_sin_nombre_33-14)"
     id="path172"
     style="fill:url(#Degradado_sin_nombre_33-14)" />
  <path
     d="m 79.162622,7.0048899 h 0.005 m -0.005,0 q -0.003,8.1938701 6e-5,16.3800001 c -0.0173,2.69394 0.009,5.38806 0.0594,8.082 -0.0507,-2.69425 -0.0768,-5.38864 -0.0595,-8.082 q 0,-8.1881 0,-16.3800001 m 0.0595,24.4620001 q 0.0137,0.72633 0.0297,1.45253 -0.0159,-0.7262 -0.0297,-1.45253 m -0.0595,-31.46200013 a 7.00079,7.00079 0 0 0 -6.976,6.41700003 v 0 l -8.9e-4,0.011 v 1.3e-4 l -8.5e-4,0.01088 v 5.4e-4 l -8.6e-4,0.01057 v 5.1e-4 l -7.9e-4,0.01049 -9e-5,10e-4 -7.6e-4,0.01007 -6e-5,0.00106 -7.4e-4,0.01 -1.2e-4,0.00148 -7e-4,0.00962 -9e-5,0.00157 -6.7e-4,0.00952 -1.3e-4,0.00177 -6.4e-4,0.00937 -1.2e-4,0.00172 -6.4e-4,0.00931 -1.5e-4,0.00223 -5.8e-4,0.00887 -1.6e-4,0.0025 -5.4e-4,0.00851 -1.9e-4,0.00315 -5.2e-4,0.00793 -2.1e-4,0.00343 -4.6e-4,0.00766 -2.1e-4,0.00371 -4.6e-4,0.00745 -2.1e-4,0.0037 -4.3e-4,0.00742 -2.1e-4,0.00391 -4e-4,0.00724 -2.4e-4,0.004 -3.7e-4,0.00717 -2.4e-4,0.00409 -3.7e-4,0.00706 -2.1e-4,0.00421 -3.7e-4,0.00692 -2.1e-4,0.00447 -3.4e-4,0.00671 -2.1e-4,0.00455 -3.4e-4,0.00656 -2.1e-4,0.00485 -3.1e-4,0.00633 -2.1e-4,0.00486 -2.8e-4,0.00634 -2.1e-4,0.0049 -2.7e-4,0.0063 -2.2e-4,0.00493 -2.7e-4,0.00627 -2.2e-4,0.005 -2.4e-4,0.00624 -1.8e-4,0.00507 -2.5e-4,0.00605 -2.1e-4,0.00541 -2.2e-4,0.00584 -3.3e-4,0.00529 -2.1e-4,0.006 -1.9e-4,0.00548 -2.1e-4,0.00572 -1.5e-4,0.00544 -2.1e-4,0.00581 -1.6e-4,0.0056 -1.8e-4,0.0056 -1.5e-4,0.00563 -1.9e-4,0.00562 -1.5e-4,0.00578 -1.5e-4,0.00543 -1.5e-4,0.00569 -1.6e-4,0.0056 -1.2e-4,0.0056 -1.5e-4,0.00571 -1.2e-4,0.00549 -1.3e-4,0.00571 -1.2e-4,0.00566 -1.2e-4,0.00566 -1.2e-4,0.00539 -1.2e-4,0.00592 -1e-4,0.00529 -1.2e-4,0.006 -6e-5,0.00516 -1.2e-4,0.00611 -9e-5,0.00538 -6e-5,0.00586 -9e-5,0.0054 -7e-5,0.00589 -3e-5,0.00537 -6e-5,0.006 -6e-5,0.0049 -6e-5,0.00648 v 0.00481 l -6e-5,0.00645 v 0.0048 l -6e-5,0.00656 v 0.00473 0.00657 0.00461 0.00676 0.00443 0.0069 0.00417 0.00563 q -0.002,5.4624901 -3.9e-4,10.9243701 l 3.9e-4,5.45806 c -0.0147,2.25915 3.4e-4,4.69058 0.046,7.3882 l 2.5e-4,0.013 0.0141,0.79 3.9e-4,0.02242 0.0301,1.47423 a 7.00027,7.00027 0 0 0 6.99531,6.84674 c 0.0521,0 0.10391,-5.8e-4 0.15628,-0.0017 a 7,7 0 0 0 6.84506,-7.15158 l -0.0292,-1.43117 -0.0143,-0.7989 v -4.7e-4 c -0.0438,-2.58566 -0.0582,-4.91 -0.044,-7.1057 l -3.3e-4,-5.383 q -6.5e-4,-5.424 3.3e-4,-10.8508801 0.003,-0.09531 0.003,-0.19116 a 6.99785,6.99785 0 0 0 -6.9975,-7.00000003 h -0.005 z m 0,14.00000013 z"
     fill="#ffffff"
     id="path174" />
  <path
     d="m 119.54054,107.60003 a 3.44739,3.44739 0 0 1 -1.09619,-0.17969 c -0.0264,-0.009 -0.144,-0.0478 -0.17285,-0.0586 a 3.49981,3.49981 0 0 1 2.14941,-6.65918 c 0.0859,0.0244 0.19727,0.0625 0.28565,0.0967 a 3.52912,3.52912 0 0 1 2.123,4.417 3.48414,3.48414 0 0 1 -3.28902,2.38378 z"
     fill="url(#Degradado_sin_nombre_33-15)"
     id="path176"
     style="fill:url(#Degradado_sin_nombre_33-15)" />
  <path
     d="m 119.43374,104.05951 0.014,0.005 -0.014,-0.005 m 0.014,0.005 0.0287,0.011 -0.0287,-0.011 m 0.0287,0.011 0.006,0.002 c 0.0228,0.008 0.0459,0.0142 0.0687,0.0219 -0.0228,-0.008 -0.046,-0.0142 -0.0687,-0.0219 l -0.005,-0.002 m -0.0428,-7.0181 a 7.0012,7.0012 0 0 0 -2.46359,13.554 l 0.0773,0.0291 0.0154,0.006 0.0185,0.007 0.0292,0.0105 0.0213,0.008 q 0.0476,0.0169 0.0954,0.0332 c 0.0491,0.0167 0.11966,0.0397 0.17852,0.0583 a 7,7 0 0 0 4.38562,-13.295 l -0.0261,-0.0088 -0.0178,-0.0062 a 6.98915,6.98915 0 0 0 -2.31372,-0.3953 z"
     fill="#ffffff"
     id="path178" />
  <path
     d="m 106.75587,101.46819 a 3.47892,3.47892 0 0 1 -1.84375,-0.52734 c -0.10254,-0.0596 -0.1875,-0.11035 -0.27051,-0.165 a 64.50863,64.50863 0 0 1 -8.626998,-6.85645 3.50021,3.50021 0 0 1 4.734858,-5.15625 58.49659,58.49659 0 0 0 7.69532,6.13575 c 0.0498,0.02832 0.12353,0.07226 0.19629,0.11816 a 3.5,3.5 0 0 1 -1.88526,6.45117 z"
     fill="url(#Degradado_sin_nombre_33-16)"
     id="path180"
     style="fill:url(#Degradado_sin_nombre_33-16)" />
  <path
     d="m 98.383452,91.34263 a 60.96485,60.96485 0 0 0 8.169678,6.50122 c 0.0303,0.01974 0.0615,0.03811 0.0927,0.0563 -0.0313,-0.01819 -0.0624,-0.03656 -0.0928,-0.0563 a 60.47962,60.47962 0 0 1 -8.169578,-6.50122 m 8.262388,6.55752 c 0.0382,0.02222 0.0765,0.04419 0.11365,0.06815 -0.0372,-0.02393 -0.0755,-0.0459 -0.11365,-0.06815 M 98.385312,84.34263 a 7,7 0 0 0 -4.739,12.15365 67.73137,67.73137 0 0 0 9.126708,7.23923 c 0.0824,0.0539 0.204,0.12826 0.32931,0.20157 a 7,7 0 0 0 7.45191,-11.85092 c -0.0987,-0.06366 -0.19876,-0.12494 -0.29978,-0.18467 a 55.802,55.802 0 0 1 -7.13829,-5.71646 6.97516,6.97516 0 0 0 -4.730898,-1.8424 z"
     fill="#ffffff"
     id="path182" />
  <path
     d="m 93.773942,64.17327 a 3.50011,3.50011 0 0 1 -3.22119,-2.12891 l -0.0967,-0.21777 a 60.98538,60.98538 0 0 1 -2.15528,-5.89893 3.5,3.5 0 1 1 6.68653,-2.07128 53.93786,53.93786 0 0 0 1.91308,5.23681 l 0.0977,0.22071 a 3.50178,3.50178 0 0 1 -3.22412,4.85937 z"
     fill="url(#Degradado_sin_nombre_33-17)"
     id="path184"
     style="fill:url(#Degradado_sin_nombre_33-17)" />
  <path
     d="m 91.643832,54.89222 a 57.3129,57.3129 0 0 0 2.03857,5.57776 c 0.0284,0.06793 0.0614,0.13409 0.0901,0.202 -0.0287,-0.06787 -0.0616,-0.134 -0.0901,-0.2019 a 57.314,57.314 0 0 1 -2.03857,-5.57782 m 0.002,-7.00187 a 7.00551,7.00551 0 0 0 -6.68866,9.07337 64.662,64.662 0 0 0 2.28256,6.244 c 0.0386,0.09082 0.0787,0.181 0.11982,0.27078 a 7,7 0 0 0 12.860068,-5.53271 c -0.0377,-0.08927 -0.0771,-0.17789 -0.11743,-0.26615 a 50.66421,50.66421 0 0 1 -1.772088,-4.85892 7.00334,7.00334 0 0 0 -6.68427,-4.93039 z"
     fill="#ffffff"
     id="path186" />
  <path
     d="m 90.180682,85.62542 a 3.49388,3.49388 0 0 1 -2.85351,-1.46973 50.43069,50.43069 0 0 1 -2.84228,-4.43652 61.72686,61.72686 0 0 1 -5.42774,-13.168 c -0.0742,-0.27246 -0.12109,-0.46289 -0.16748,-0.65332 l -0.0566,-0.23145 a 3.5,3.5 0 1 1 6.791,-1.69726 l 0.17187,0.68945 a 54.78256,54.78256 0 0 0 4.77686,11.60547 43.95843,43.95843 0 0 0 2.45556,3.83106 3.5001,3.5001 0 0 1 -2.84765,5.53027 z"
     fill="url(#Degradado_sin_nombre_33-18)"
     id="path188"
     style="fill:url(#Degradado_sin_nombre_33-18)" />
  <path
     d="m 82.228662,64.818 c 0.0618,0.24756 0.11927,0.496 0.18561,0.74255 a 58.71055,58.71055 0 0 0 5.11572,12.4328 47.55134,47.55134 0 0 0 2.64765,4.13233 47.54784,47.54784 0 0 1 -2.64771,-4.13239 58.61435,58.61435 0 0 1 -5.11576,-12.43274 c -0.0663,-0.24652 -0.12378,-0.495 -0.18555,-0.74255 m 0.005,-7.00165 a 7.00611,7.00611 0 0 0 -6.79718,8.696 l 0.0501,0.20423 c 0.0539,0.22143 0.10849,0.44272 0.16776,0.663 q 0.0217,0.08085 0.0454,0.1611 a 65.13562,65.13562 0 0 0 5.74414,13.91159 54.07484,54.07484 0 0 0 3.03055,4.73267 7.0000041,7.0000041 0 0 0 11.40573,-8.11847 40.29077,40.29077 0 0 1 -2.25974,-3.5231 51.41174,51.41174 0 0 1 -4.46514,-10.87082 c -0.0228,-0.08862 -0.0441,-0.17761 -0.0657,-0.26648 l -0.0698,-0.284 a 7.00285,7.00285 0 0 0 -6.78611,-5.30569 z"
     fill="#ffffff"
     id="path190" />
  <path
     d="m 131.17433,110.43987 a 3.54366,3.54366 0 0 1 -0.47559,-0.0322 66.17723,66.17723 0 0 1 -12.27,-2.99219 c -0.0195,-0.007 -0.084,-0.0283 -0.12109,-0.041 0.0264,0.009 0.0747,0.0244 0.125,0.0391 -0.0518,-0.0156 -0.10352,-0.0322 -0.15479,-0.0498 a 63.38574,63.38574 0 0 1 -13.41455,-6.4541 c -0.0474,-0.0244 -0.13574,-0.0772 -0.22168,-0.13379 a 64.98492,64.98492 0 0 1 -8.624508,-6.85449 67.13207,67.13207 0 0 1 -6.28222,-6.61035 c -0.80957,-0.9834 -1.59766,-2.01563 -2.40918,-3.15625 a 50.7031,50.7031 0 0 1 -2.84082,-4.43555 61.817,61.817 0 0 1 -5.42725,-13.167 c -0.0752,-0.27637 -0.12109,-0.46387 -0.167,-0.65137 l -0.0576,-0.23438 c -0.19775,-0.793 -0.38135,-1.58789 -0.54394,-2.38574 l -0.12549,-0.63281 c -0.27686,-1.43652 -0.519,-2.957 -0.74073,-4.64648 q -0.17577,-1.34181 -0.32275,-2.68653 -0.14794,-1.32348 -0.27978,-2.6499 c -0.56592,-6.2168 -0.91358,-12.63916 -1.06739,-19.669 -0.0796,-3.604 -0.10888,-6.75537 -0.0903,-9.63379 V 7.0033499 a 3.49987,3.49987 0 0 1 3.49707,-3.49854 l 4.12061,-0.00293 q 1.71386,0 3.42724,0.00489 a 3.50015,3.50015 0 0 1 3.48926,3.52832 235.4805,235.4805 0 0 0 1.44971,29.9800001 c 0.11914,0.93945 0.24707,1.90283 0.38379,2.86523 0.29443,2.0752 0.60058,3.9419 0.936,5.707 a 75.25771,75.25771 0 0 0 2.021,8.26856 54.02985,54.02985 0 0 0 1.91308,5.2373 l 0.0977,0.22071 a 51.84659,51.84659 0 0 0 11.882318,17.54882 c 0.61963,0.58985 1.2583,1.166 1.90137,1.71485 a 45.51018,45.51018 0 0 0 15.48731,8.68261 33.68522,33.68522 0 0 0 5.40918,1.27735 3.50107,3.50107 0 0 1 2.99609,3.46484 c -0.002,5.0166 -0.004,9.97461 0,14.93457 a 3.49987,3.49987 0 0 1 -3.5,3.50293 z"
     fill="url(#Degradado_sin_nombre_33-19)"
     id="path192"
     style="fill:url(#linearGradient1076)" />
  <path
     d="m 83.273312,7.0021999 q 1.71153,0 3.42337,0.00464 a 239.21222,239.21222 0 0 0 1.47467,30.4250001 q 0.186,1.4697 0.39362,2.94086 c 0.2785,1.96075 0.59265,3.92016 0.963,5.86791 a 79.20257,79.20257 0 0 0 2.11585,8.65162 57.314,57.314 0 0 0 2.03857,5.57782 c 0.0284,0.06793 0.0614,0.134 0.0901,0.2019 A 55.73676,55.73676 0 0 0 106.4678,79.39821 q 0.99555,0.9494 2.04266,1.84289 a 48.73452,48.73452 0 0 0 16.68982,9.35163 37.434,37.434 0 0 0 5.97418,1.40875 q -0.003,7.47015 0,14.93829 a 63.09378,63.09378 0 0 1 -11.62384,-2.84015 c -0.0228,-0.008 -0.0459,-0.0142 -0.0687,-0.0219 -0.0162,-0.006 -0.032,-0.0125 -0.0482,-0.0182 a 59.74622,59.74622 0 0 1 -12.67425,-6.09118 c -0.0676,-0.04352 -0.139,-0.08057 -0.20636,-0.12445 a 60.96485,60.96485 0 0 1 -8.169668,-6.50122 63.28263,63.28263 0 0 1 -5.94627,-6.25612 c -0.78955,-0.959 -1.53949,-1.94928 -2.25952,-2.96087 a 47.55134,47.55134 0 0 1 -2.64765,-4.13233 58.71055,58.71055 0 0 1 -5.11572,-12.4328 c -0.0663,-0.24652 -0.12378,-0.495 -0.18561,-0.74255 -0.18536,-0.74256 -0.35772,-1.488 -0.51031,-2.2378 q -0.0602,-0.296 -0.11762,-0.59246 c -0.28338,-1.47162 -0.51251,-2.95423 -0.70752,-4.44172 q -0.17129,-1.30682 -0.31481,-2.61663 -0.14566,-1.30911 -0.27631,-2.61743 c -0.58612,-6.44874 -0.90839,-12.91956 -1.05029,-19.3926 -0.0696,-3.1779 -0.10956,-6.35638 -0.0891,-9.53447 q -9e-5,-8.18808 -6e-5,-16.3800001 2.05555,-0.00162 4.11069,-0.0027 m 0,-7.00000003 -3.103,0.00186 -1.01325,8.5e-4 a 7,7 0 0 0 -6.99445,6.99759003 q -0.002,5.5219401 -3.9e-4,11.0397701 l 4.5e-4,5.34272 c -0.0186,2.86631 0.011,6.04995 0.0908,9.68776 0.15592,7.11162 0.50834,13.61208 1.07737,19.87282 l 0.007,0.07388 q 0.13619,1.34074 0.28335,2.68387 0.15312,1.37682 0.33127,2.75232 c 0.23053,1.75852 0.48386,3.34674 0.77445,4.85578 q 0.064,0.332 0.13147,0.66244 c 0.16464,0.809 0.35376,1.63892 0.57867,2.53973 l 0.0506,0.20624 c 0.0537,0.22028 0.108,0.4404 0.16693,0.65946 q 0.0221,0.08231 0.0463,0.16409 a 65.24959,65.24959 0 0 0 5.74341,13.909 54.05735,54.05735 0 0 0 3.03046,4.7326 c 0.861,1.20972 1.69787,2.30585 2.55823,3.35083 a 70.54343,70.54343 0 0 0 6.60254,6.95062 68.36726,68.36726 0 0 0 9.134788,7.24735 c 0.079,0.0516 0.18479,0.11645 0.29627,0.18228 a 66.9193,66.9193 0 0 0 13.97577,6.72287 q 0.0751,0.0278 0.1506,0.054 c 0.0484,0.0167 0.11264,0.038 0.17163,0.0569 a 69.4647,69.4647 0 0 0 12.85867,3.12506 7,7 0 0 0 7.95114,-6.94061 q -0.006,-7.46591 0,-14.93 a 7,7 0 0 0 -5.9934,-6.93 30.21023,30.21023 0 0 1 -4.85489,-1.15088 41.9553,41.9553 0 0 1 -14.27191,-8.00708 c -0.59726,-0.50964 -1.18787,-1.04248 -1.75553,-1.58383 A 49.04592,49.04592 0 0 1 100.21981,57.94583 c -0.038,-0.08993 -0.0773,-0.17825 -0.11743,-0.266 a 50.65564,50.65564 0 0 1 -1.772088,-4.859 71.8572,71.8572 0 0 1 -1.92557,-7.88778 c -0.32388,-1.70349 -0.62134,-3.51722 -0.9093,-5.54462 q -0.20156,-1.41821 -0.37949,-2.83557 a 232.05511,232.05511 0 0 1 -1.41949,-29.4898401 7,7 0 0 0 -6.9783,-7.05600003 q -1.72221,-0.00531 -3.44483,-0.00468 z"
     fill="#ffffff"
     id="path194" />
  <path
     d="m 131.17433,110.43987 a 3.54366,3.54366 0 0 1 -0.47559,-0.0322 66.17723,66.17723 0 0 1 -12.27,-2.99219 c -0.0195,-0.007 -0.084,-0.0283 -0.12109,-0.041 0.0264,0.009 0.0747,0.0244 0.125,0.0391 -0.0518,-0.0156 -0.10352,-0.0322 -0.15479,-0.0498 a 63.38574,63.38574 0 0 1 -13.41455,-6.4541 c -0.0474,-0.0244 -0.13574,-0.0772 -0.22168,-0.13379 a 64.98492,64.98492 0 0 1 -8.624508,-6.85449 67.13207,67.13207 0 0 1 -6.28222,-6.61035 c -0.80957,-0.9834 -1.59766,-2.01563 -2.40918,-3.15625 a 50.7031,50.7031 0 0 1 -2.84082,-4.43555 61.817,61.817 0 0 1 -5.42725,-13.167 c -0.0752,-0.27637 -0.12109,-0.46387 -0.167,-0.65137 l -0.0576,-0.23438 c -0.19775,-0.793 -0.38135,-1.58789 -0.54394,-2.38574 l -0.12549,-0.63281 c -0.27686,-1.43652 -0.519,-2.957 -0.74073,-4.64648 q -0.17577,-1.34181 -0.32275,-2.68653 -0.14794,-1.32348 -0.27978,-2.6499 c -0.56592,-6.2168 -0.91358,-12.63916 -1.06739,-19.669 -0.0796,-3.604 -0.10888,-6.75537 -0.0903,-9.63379 V 7.0033499 a 3.49987,3.49987 0 0 1 3.49707,-3.49854 l 4.12061,-0.00293 q 1.71386,0 3.42724,0.00489 a 3.50015,3.50015 0 0 1 3.48926,3.52832 235.4805,235.4805 0 0 0 1.44971,29.9800001 c 0.11914,0.93945 0.24707,1.90283 0.38379,2.86523 0.29443,2.0752 0.60058,3.9419 0.936,5.707 a 75.25771,75.25771 0 0 0 2.021,8.26856 54.02985,54.02985 0 0 0 1.91308,5.2373 l 0.0977,0.22071 a 51.84659,51.84659 0 0 0 11.882318,17.54882 c 0.61963,0.58985 1.2583,1.166 1.90137,1.71485 a 45.51018,45.51018 0 0 0 15.48731,8.68261 33.68522,33.68522 0 0 0 5.40918,1.27735 3.50107,3.50107 0 0 1 2.99609,3.46484 c -0.002,5.0166 -0.004,9.97461 0,14.93457 a 3.49987,3.49987 0 0 1 -3.5,3.50293 z"
     fill="url(#Degradado_sin_nombre_33-19)"
     id="path196"
     style="fill:url(#Degradado_sin_nombre_33-19)" />
  <path
     d="m 83.273312,7.0021999 q 1.71153,0 3.42337,0.00464 a 239.21222,239.21222 0 0 0 1.47467,30.4250001 q 0.186,1.4697 0.39362,2.94086 c 0.2785,1.96075 0.59265,3.92016 0.963,5.86791 a 79.20257,79.20257 0 0 0 2.11585,8.65162 57.314,57.314 0 0 0 2.03857,5.57782 c 0.0284,0.06793 0.0614,0.134 0.0901,0.2019 A 55.73676,55.73676 0 0 0 106.4678,79.39821 q 0.99555,0.9494 2.04266,1.84289 a 48.73452,48.73452 0 0 0 16.68982,9.35163 37.434,37.434 0 0 0 5.97418,1.40875 q -0.003,7.47015 0,14.93829 a 63.09378,63.09378 0 0 1 -11.62384,-2.84015 c -0.0228,-0.008 -0.0459,-0.0142 -0.0687,-0.0219 -0.0162,-0.006 -0.032,-0.0125 -0.0482,-0.0182 a 59.74622,59.74622 0 0 1 -12.67425,-6.09118 c -0.0676,-0.04352 -0.139,-0.08057 -0.20636,-0.12445 a 60.96485,60.96485 0 0 1 -8.169668,-6.50122 63.28263,63.28263 0 0 1 -5.94627,-6.25612 c -0.78955,-0.959 -1.53949,-1.94928 -2.25952,-2.96087 a 47.55134,47.55134 0 0 1 -2.64765,-4.13233 58.71055,58.71055 0 0 1 -5.11572,-12.4328 c -0.0663,-0.24652 -0.12378,-0.495 -0.18561,-0.74255 -0.18536,-0.74256 -0.35772,-1.488 -0.51031,-2.2378 q -0.0602,-0.296 -0.11762,-0.59246 c -0.28338,-1.47162 -0.51251,-2.95423 -0.70752,-4.44172 q -0.17129,-1.30682 -0.31481,-2.61663 -0.14566,-1.30911 -0.27631,-2.61743 c -0.58612,-6.44874 -0.90839,-12.91956 -1.05029,-19.3926 -0.0696,-3.1779 -0.10956,-6.35638 -0.0891,-9.53447 q -9e-5,-8.18808 -6e-5,-16.3800001 2.05555,-0.00162 4.11069,-0.0027 m 0,-7.00000003 -3.103,0.00186 -1.01325,8.5e-4 a 7,7 0 0 0 -6.99445,6.99759003 q -0.002,5.5219401 -3.9e-4,11.0397701 l 4.5e-4,5.34272 c -0.0186,2.86631 0.011,6.04995 0.0908,9.68776 0.15592,7.11162 0.50834,13.61208 1.07737,19.87282 l 0.007,0.07388 q 0.13619,1.34074 0.28335,2.68387 0.15312,1.37682 0.33127,2.75232 c 0.23053,1.75852 0.48386,3.34674 0.77445,4.85578 q 0.064,0.332 0.13147,0.66244 c 0.16464,0.809 0.35376,1.63892 0.57867,2.53973 l 0.0506,0.20624 c 0.0537,0.22028 0.108,0.4404 0.16693,0.65946 q 0.0221,0.08231 0.0463,0.16409 a 65.24959,65.24959 0 0 0 5.74341,13.909 54.05735,54.05735 0 0 0 3.03046,4.7326 c 0.861,1.20972 1.69787,2.30585 2.55823,3.35083 a 70.54343,70.54343 0 0 0 6.60254,6.95062 68.36726,68.36726 0 0 0 9.134788,7.24735 c 0.079,0.0516 0.18479,0.11645 0.29627,0.18228 a 66.9193,66.9193 0 0 0 13.97577,6.72287 q 0.0751,0.0278 0.1506,0.054 c 0.0484,0.0167 0.11264,0.038 0.17163,0.0569 a 69.4647,69.4647 0 0 0 12.85867,3.12506 7,7 0 0 0 7.95114,-6.94061 q -0.006,-7.46591 0,-14.93 a 7,7 0 0 0 -5.9934,-6.93 30.21023,30.21023 0 0 1 -4.85489,-1.15088 41.9553,41.9553 0 0 1 -14.27191,-8.00708 c -0.59726,-0.50964 -1.18787,-1.04248 -1.75553,-1.58383 A 49.04592,49.04592 0 0 1 100.21981,57.94583 c -0.038,-0.08993 -0.0773,-0.17825 -0.11743,-0.266 a 50.65564,50.65564 0 0 1 -1.772088,-4.859 71.8572,71.8572 0 0 1 -1.92557,-7.88778 c -0.32388,-1.70349 -0.62134,-3.51722 -0.9093,-5.54462 q -0.20156,-1.41821 -0.37949,-2.83557 a 232.05511,232.05511 0 0 1 -1.41949,-29.4898401 7,7 0 0 0 -6.9783,-7.05600003 q -1.72221,-0.00531 -3.44483,-0.00468 z"
     fill="#ffffff"
     id="path198" />
  <path
     d="m 92.438982,88.58636 a 3.49292,3.49292 0 0 1 -2.7041,-1.27539 c -0.80957,-0.9834 -1.59766,-2.01563 -2.40918,-3.15625 a 3.5001215,3.5001215 0 0 1 5.70361,-4.0586 c 0.71924,1.00977 1.40918,1.915 2.10986,2.76563 a 3.5,3.5 0 0 1 -2.70019,5.72461 z"
     fill="url(#Degradado_sin_nombre_33-21)"
     id="path200"
     style="fill:url(#Degradado_sin_nombre_33-21)" />
  <path
     d="m 90.177642,82.12568 c 0.72009,1.01159 1.47,2.00189 2.25952,2.96087 -0.78955,-0.959 -1.53949,-1.94928 -2.25952,-2.96087 m -0.006,-7.00055 a 7.0007,7.0007 0 0 0 -5.6969,11.05975 c 0.86117,1.2099 1.698,2.306 2.55832,3.35095 a 7.0000124,7.0000124 0 1 0 10.80816,-8.89856 c -0.64965,-0.78906 -1.29107,-1.63 -1.96087,-2.571 a 6.99137,6.99137 0 0 0 -5.70871,-2.94116 z"
     fill="#ffffff"
     id="path202" />
  <path
     d="m 92.438982,88.58636 a 3.49292,3.49292 0 0 1 -2.7041,-1.27539 c -0.80957,-0.9834 -1.59766,-2.01563 -2.40918,-3.15625 a 3.5001215,3.5001215 0 0 1 5.70361,-4.0586 c 0.71924,1.00977 1.40918,1.915 2.10986,2.76563 a 3.5,3.5 0 0 1 -2.70019,5.72461 z"
     fill="url(#Degradado_sin_nombre_33-22)"
     id="path204"
     style="fill:url(#linearGradient1078)" />
  <path
     d="m 90.177642,82.12568 c 0.72009,1.01159 1.47,2.00189 2.25952,2.96087 -0.78955,-0.959 -1.53949,-1.94928 -2.25952,-2.96087 m -0.006,-7.00055 a 7.0007,7.0007 0 0 0 -5.6969,11.05975 c 0.86117,1.2099 1.698,2.306 2.55832,3.35095 a 7.0000124,7.0000124 0 1 0 10.80816,-8.89856 c -0.64965,-0.78906 -1.29107,-1.63 -1.96087,-2.571 a 6.99137,6.99137 0 0 0 -5.70871,-2.94116 z"
     fill="#ffffff"
     id="path206" />
  <path
     d="m 92.438982,88.58636 a 3.49292,3.49292 0 0 1 -2.7041,-1.27539 c -0.80957,-0.9834 -1.59766,-2.01563 -2.40918,-3.15625 a 3.5001215,3.5001215 0 0 1 5.70361,-4.0586 c 0.71924,1.00977 1.40918,1.915 2.10986,2.76563 a 3.5,3.5 0 0 1 -2.70019,5.72461 z"
     fill="url(#Degradado_sin_nombre_33-22)"
     id="path208"
     style="fill:url(#Degradado_sin_nombre_33-22)" />
  <path
     d="m 90.177642,82.12568 c 0.72009,1.01159 1.47,2.00189 2.25952,2.96087 -0.78955,-0.959 -1.53949,-1.94928 -2.25952,-2.96087 m -0.006,-7.00055 a 7.0007,7.0007 0 0 0 -5.6969,11.05975 c 0.86117,1.2099 1.698,2.306 2.55832,3.35095 a 7.0000124,7.0000124 0 1 0 10.80816,-8.89856 c -0.64965,-0.78906 -1.29107,-1.63 -1.96087,-2.571 a 6.99137,6.99137 0 0 0 -5.70871,-2.94116 z"
     fill="#ffffff"
     id="path210" />
  <path
     d="m 82.226092,68.31878 a 3.50128,3.50128 0 0 1 -3.39356,-2.6543 c -0.19726,-0.791 -0.38086,-1.58594 -0.54345,-2.38379 a 3.50033,3.50033 0 0 1 2.72949,-4.12988 3.53977,3.53977 0 0 1 0.70361,-0.07129 3.50122,3.50122 0 0 1 3.42529,2.80078 c 0.14307,0.7002 0.3042,1.39746 0.47705,2.09082 a 3.502,3.502 0 0 1 -3.39843,4.34766 z"
     fill="url(#Degradado_sin_nombre_33-24)"
     id="path212"
     style="fill:url(#Degradado_sin_nombre_33-24)" />
  <path
     d="m 81.718352,62.5802 c 0.15259,0.74976 0.325,1.49524 0.51031,2.2378 -0.18542,-0.74256 -0.35778,-1.488 -0.51031,-2.2378 m 0.007,-7.00137 a 7.00635,7.00635 0 0 0 -6.86685,8.39688 c 0.16416,0.80683 0.35333,1.63712 0.57837,2.53833 a 7,7 0 0 0 13.583,-3.39145 c -0.1749,-0.70059 -0.31967,-1.33468 -0.44257,-1.9385 a 7.00243,7.00243 0 0 0 -6.852,-5.60526 z"
     fill="#ffffff"
     id="path214" />
  <path
     d="m 82.226092,68.31878 a 3.50128,3.50128 0 0 1 -3.39356,-2.6543 c -0.19726,-0.791 -0.38086,-1.58594 -0.54345,-2.38379 a 3.50033,3.50033 0 0 1 2.72949,-4.12988 3.53977,3.53977 0 0 1 0.70361,-0.07129 3.50122,3.50122 0 0 1 3.42529,2.80078 c 0.14307,0.7002 0.3042,1.39746 0.47705,2.09082 a 3.502,3.502 0 0 1 -3.39843,4.34766 z"
     fill="url(#Degradado_sin_nombre_33-25)"
     id="path216"
     style="fill:url(#linearGradient1080)" />
  <path
     d="m 81.718352,62.5802 c 0.15259,0.74976 0.325,1.49524 0.51031,2.2378 -0.18542,-0.74256 -0.35778,-1.488 -0.51031,-2.2378 m 0.007,-7.00137 a 7.00635,7.00635 0 0 0 -6.86685,8.39688 c 0.16416,0.80683 0.35333,1.63712 0.57837,2.53833 a 7,7 0 0 0 13.583,-3.39145 c -0.1749,-0.70059 -0.31967,-1.33468 -0.44257,-1.9385 a 7.00243,7.00243 0 0 0 -6.852,-5.60526 z"
     fill="#ffffff"
     id="path218" />
  <path
     d="m 82.226092,68.31878 a 3.50128,3.50128 0 0 1 -3.39356,-2.6543 c -0.19726,-0.791 -0.38086,-1.58594 -0.54345,-2.38379 a 3.50033,3.50033 0 0 1 2.72949,-4.12988 3.53977,3.53977 0 0 1 0.70361,-0.07129 3.50122,3.50122 0 0 1 3.42529,2.80078 c 0.14307,0.7002 0.3042,1.39746 0.47705,2.09082 a 3.502,3.502 0 0 1 -3.39843,4.34766 z"
     fill="url(#Degradado_sin_nombre_33-25)"
     id="path220"
     style="fill:url(#Degradado_sin_nombre_33-25)" />
  <path
     d="m 81.718352,62.5802 c 0.15259,0.74976 0.325,1.49524 0.51031,2.2378 -0.18542,-0.74256 -0.35778,-1.488 -0.51031,-2.2378 m 0.007,-7.00137 a 7.00635,7.00635 0 0 0 -6.86685,8.39688 c 0.16416,0.80683 0.35333,1.63712 0.57837,2.53833 a 7,7 0 0 0 13.583,-3.39145 c -0.1749,-0.70059 -0.31967,-1.33468 -0.44257,-1.9385 a 7.00243,7.00243 0 0 0 -6.852,-5.60526 z"
     fill="#ffffff"
     id="path222" />
  <path
     d="M 193.73488,17.59535 Q 190.33342,7.0013499 180.96766,7.0012499 q -9.44252,0 -12.75534,10.5941001 l -27.56587,89.4059 h 19.452 l 6.85011,-21.83771 h 27.96729 l 6.76756,21.83771 h 19.60546 z m -21.507,50.4665 8.73974,-28.20362 8.73986,28.20362 z"
     fill="#a92d38"
     id="path224" />
  <path
     d="M 202.71095,7.0012499 V 24.10295 h 21.49522 v 82.8983 h 18.826 v -82.8983 h 21.49509 V 7.0012499 Z"
     fill="#a92d38"
     id="path226" />
  <path
     d="M 299.17944,17.59535 Q 295.79577,7.0013499 286.42409,7.0012499 q -9.46032,0 -12.75533,10.5941001 l -27.56587,89.4059 h 19.45189 L 272.405,85.16354 h 27.95553 l 6.76745,21.83771 h 19.61732 z m -21.4952,50.4665 8.73985,-28.20362 8.73975,28.20362 z"
     fill="#a92d38"
     id="path228" />
  <path
     d="m 365.7201,64.48319 a 40.18087,40.18087 0 0 0 18.40084,-11.95227 q 7.35223,-8.45029 7.35805,-18.68429 0,-11.0191 -9.37761,-18.8968 A 32.244,32.244 0 0 0 360.60617,7.0012499 h -21.4952 a 12.26008,12.26008 0 0 0 -8.5155,3.2951901 10.07854,10.07854 0 0 0 -3.61394,7.65329 v 89.05152 h 18.81412 v -82.8983 h 14.76325 a 12.15391,12.15391 0 0 1 8.40911,3.36608 10.08409,10.08409 0 0 1 3.685,7.59416 q 0,6.14739 -6.98014,10.3814 c -2.20852,1.09843 -4.34624,2.185 -6.44857,3.28342 q -3.13554,1.64748 -6.43671,3.29508 -6.98,4.65933 -6.9919,12.02316 0,3.95069 4.94871,10.88934 l 22.54636,32.06566 h 21.96753 z"
     fill="#a92d38"
     id="path230" />
  <path
     d="M 401.55338,7.0012499 V 107.00125 h 18.826 V 7.0012499 Z"
     fill="#a92d38"
     id="path232" />
  <path
     d="m 431.99965,87.34963 a 3.31144,3.31144 0 0 0 -1.49636,-0.41372 2.5712,2.5712 0 0 0 -2.136,1.36093 5.06153,5.06153 0 0 0 -0.92166,3.05939 v 15.64506 h 4.771 V 94.13241 l 23.11778,12.08495 v -6.66307 z"
     fill="#a92d38"
     id="path234" />
  <path
     d="m 453.01394,65.78191 c -1.55062,-2.17747 -3.37233,-3.27717 -5.465,-3.27717 a 7.32722,7.32722 0 0 0 -6.14813,3.25534 q -2.29335,-3.24983 -5.4541,-3.25534 h -0.67231 c -2.09279,0 -3.91439,1.0997 -5.47582,3.27717 a 13.55391,13.55391 0 0 0 0,15.264 c 1.56143,2.17747 3.383,3.27706 5.47582,3.27706 a 7.24443,7.24443 0 0 0 6.12641,-3.27706 c 1.52892,2.17747 3.35063,3.27706 5.4541,3.27706 h 0.694 c 2.09269,0 3.9144,-1.09959 5.465,-3.27706 a 13.71121,13.71121 0 0 0 0,-15.264 z m -14.50425,11.10691 a 3.0864,3.0864 0 0 1 -2.50662,1.533 4.11677,4.11677 0 0 1 -2.95193,-1.27753 5.11714,5.11714 0 0 1 -1.425,-3.74324 4.958,4.958 0 0 1 1.425,-3.71771 4.11676,4.11676 0 0 1 2.95193,-1.27752 3.08664,3.08664 0 0 1 2.50662,1.533 6.00751,6.00751 0 0 1 0,6.94994 z m 11.42462,0.51058 a 4.33847,4.33847 0 0 1 -3.16738,1.365 3.31339,3.31339 0 0 1 -2.66442,-1.63795 6.4792,6.4792 0 0 1 0,-7.42513 3.31327,3.31327 0 0 1 2.66442,-1.63784 4.338,4.338 0 0 1 3.16738,1.365 5.30532,5.30532 0 0 1 1.53611,3.97183 5.47675,5.47675 0 0 1 -1.53611,3.99909 z"
     fill="#a92d38"
     id="path236" />
  <path
     d="M 441.38998,34.30663 A 12.67295,12.67295 0 1 0 454.0115,46.97942 12.6454,12.6454 0 0 0 441.38998,34.30663 Z m 0,20.58445 a 7.91167,7.91167 0 1 1 7.87955,-7.91166 7.89848,7.89848 0 0 1 -7.87955,7.91166 z"
     fill="#a92d38"
     id="path238" />
  <path
     d="M 441.38998,7.0012499 A 12.67295,12.67295 0 1 0 454.0115,19.67415 12.64542,12.64542 0 0 0 441.38998,7.0012499 Z m 0,20.5844601 a 7.91168,7.91168 0 1 1 7.87955,-7.91156 7.89846,7.89846 0 0 1 -7.87955,7.91156 z"
     fill="#a92d38"
     id="path240" />
  <path
     d="m 51.479612,7.0068299 c 2.52492,-0.00775 5.04984,0 7.57863,-0.00387 0.01,5.9373401 0,11.8804901 0.004,17.8178301 0.0252,4.95877 -0.11433,9.91365 -0.31974,14.86854 a 181.32138,181.32138 0 0 1 -1.97083,21.38722 54.52849,54.52849 0 0 1 -4.59059,14.04108 c -3.41242,7.19107 -8.77424,13.27763 -14.80265,18.39335 a 55.40456,55.40456 0 0 1 -18.59682,10.53765 63.432,63.432 0 0 1 -11.7816696,2.90279 q 0.006,-7.47592 0,-14.946 a 43.833,43.833 0 0 0 13.7853296,-4.70879 49.71041,49.71041 0 0 0 13.60124,-10.63451 56.60216,56.60216 0 0 0 9.61717,-15.00225 74.77528,74.77528 0 0 0 5.41608,-19.79436 205.78643,205.78643 0 0 0 2.04435,-26.01462 c 0.0329,-2.94547 0.008,-5.8947601 0.0155,-8.8440601 z"
     fill="url(#Degradado_sin_nombre_33-27)"
     id="path242"
     style="fill:url(#Degradado_sin_nombre_33-27)" />
  <path
     d="m 62.106372,7.0165199 c 4.64871,-0.031 9.29937,-0.00387 13.952,-0.01162 q 0.003,49.9713201 0,99.9426301 c -4.641,0.0116 -9.28,-0.0194 -13.919,0.0233 -0.0581,-10.62288 -0.008,-21.25157 -0.0252,-31.87057 q -0.009,-34.03992 -0.008,-68.0837001 z"
     fill="url(#Degradado_sin_nombre_33-28)"
     id="path244"
     style="fill:url(#Degradado_sin_nombre_33-28)" />
  <path
     d="m 79.162652,7.0048899 c 2.5133,-0.00193 5.02465,-0.00775 7.53407,0.00194 a 239.5659,239.5659 0 0 0 1.47465,30.4250001 c 0.99214,7.8383 2.38928,15.73666 5.511,23.0382 a 55.88448,55.88448 0 0 0 12.785428,18.92818 48.93337,48.93337 0 0 0 18.7325,11.19452 38.2349,38.2349 0 0 0 5.97416,1.40876 q -0.003,7.47012 0,14.93831 A 62.73465,62.73465 0 0 1 119.48193,104.07771 59.43673,59.43673 0 0 1 106.5531,97.8439 60.96846,60.96846 0 0 1 98.383452,91.34267 55.79108,55.79108 0 0 1 87.529982,77.99334 58.71131,58.71131 0 0 1 82.414252,65.56063 83.10255,83.10255 0 0 1 80.302082,52.31207 c -0.87394,-9.61523 -1.20142,-19.275 -1.13941,-28.9271 q -3e-5,-8.18814 -2e-5,-16.3800801 z"
     fill="url(#Degradado_sin_nombre_33-29)"
     id="path246"
     style="fill:url(#Degradado_sin_nombre_33-29)" />
  <path
     d="m 62.106372,7.0165199 q 0.0232,34.0428101 0.008,68.0817601 c 0.0155,10.619 -0.0349,21.2477 0.0252,31.87057 4.639,-0.0407 9.28,-0.0116 13.919,-0.0233 q 0.003,-49.9626 0,-99.9426501 c -4.65066,0.0097 -9.30132,-0.0155 -13.952,0.01357"
     fill="url(#Degradado_sin_nombre_33-30)"
     id="path248"
     style="fill:url(#Degradado_sin_nombre_33-30)" />
  <path
     d="m 79.162652,7.0048899 q -0.003,8.1910001 0,16.3800001 c -0.062,9.64818 0.26548,19.31186 1.13941,28.9271 a 83.10257,83.10257 0 0 0 2.11218,13.24856 58.61034,58.61034 0 0 0 5.11572,12.43276 55.79112,55.79112 0 0 0 10.85347,13.34932 60.47754,60.47754 0 0 0 8.169658,6.50123 59.61445,59.61445 0 0 0 12.92883,6.23382 63.19476,63.19476 0 0 0 11.69252,2.86209 q -0.006,-7.47012 0,-14.9383 A 37.43031,37.43031 0 0 1 125.20028,90.5927 48.93321,48.93321 0 0 1 106.46782,79.39818 55.80893,55.80893 0 0 1 93.682392,60.47 c -3.12176,-7.30154 -4.51889,-15.19991 -5.511,-23.0382 A 239.20964,239.20964 0 0 1 86.696742,7.0067999 c -2.51134,-0.00775 -5.02269,-0.00387 -7.53405,-0.00194"
     fill="url(#Degradado_sin_nombre_33-31)"
     id="path250"
     style="fill:url(#Degradado_sin_nombre_33-31)" />
  <metadata
     id="metadata1070">
    <rdf:RDF>
      <cc:Work
         rdf:about="">
        <dc:title>logo</dc:title>
      </cc:Work>
    </rdf:RDF>
  </metadata>
</svg>
