<?xml version="1.0" encoding="UTF-8" standalone="no"?>
<svg
   id="Capa_1"
   data-name="Capa 1"
   viewBox="0 0 513.93915 97.589996"
   version="1.1"
   sodipodi:docname="atomiswave.svg"
   width="513.93915"
   height="97.589996"
   inkscape:version="1.1 (c68e22c387, 2021-05-23)"
   xmlns:inkscape="http://www.inkscape.org/namespaces/inkscape"
   xmlns:sodipodi="http://sodipodi.sourceforge.net/DTD/sodipodi-0.dtd"
   xmlns:xlink="http://www.w3.org/1999/xlink"
   xmlns="http://www.w3.org/2000/svg"
   xmlns:svg="http://www.w3.org/2000/svg"
   xmlns:rdf="http://www.w3.org/1999/02/22-rdf-syntax-ns#"
   xmlns:cc="http://creativecommons.org/ns#"
   xmlns:dc="http://purl.org/dc/elements/1.1/">
  <sodipodi:namedview
     id="namedview72"
     pagecolor="#ffffff"
     bordercolor="#666666"
     borderopacity="1.0"
     inkscape:pageshadow="2"
     inkscape:pageopacity="0.0"
     inkscape:pagecheckerboard="0"
     showgrid="false"
     fit-margin-top="0"
     fit-margin-left="0"
     fit-margin-right="0"
     fit-margin-bottom="0"
     inkscape:zoom="1.113"
     inkscape:cx="257.4124"
     inkscape:cy="48.51752"
     inkscape:window-width="1920"
     inkscape:window-height="1138"
     inkscape:window-x="-8"
     inkscape:window-y="-8"
     inkscape:window-maximized="1"
     inkscape:current-layer="Capa_1" />
  <defs
     id="defs15">
    <linearGradient
       id="linear-gradient"
       x1="336.70999"
       y1="39.43"
       x2="336.70999"
       y2="84.190002"
       gradientTransform="matrix(1,0,0,-1,0,116)"
       gradientUnits="userSpaceOnUse">
      <stop
         offset="0"
         stop-color="#eb6101"
         id="stop2" />
      <stop
         offset="1"
         stop-color="#9a4400"
         id="stop4" />
    </linearGradient>
    <linearGradient
       id="linear-gradient-2"
       x1="308.97"
       y1="31.42"
       x2="308.97"
       y2="92.510002"
       xlink:href="#linear-gradient" />
    <linearGradient
       id="linear-gradient-3"
       x1="271.89001"
       y1="17.190001"
       x2="271.89001"
       y2="100.81"
       xlink:href="#linear-gradient" />
    <linearGradient
       id="linear-gradient-4"
       x1="323.91"
       y1="39.43"
       x2="323.91"
       y2="92.510002"
       gradientTransform="matrix(1,0,0,-1,0,116)"
       gradientUnits="userSpaceOnUse">
      <stop
         offset="0"
         stop-color="#029205"
         id="stop9" />
      <stop
         offset="1"
         stop-color="#d6edd9"
         id="stop11" />
    </linearGradient>
    <linearGradient
       id="linear-gradient-5"
       x1="291.91"
       y1="31.42"
       x2="291.91"
       y2="100.81"
       xlink:href="#linear-gradient-4" />
    <linearGradient
       inkscape:collect="always"
       xlink:href="#linear-gradient"
       id="linearGradient891"
       gradientUnits="userSpaceOnUse"
       gradientTransform="matrix(1,0,0,-1,0,116)"
       x1="336.70999"
       y1="39.43"
       x2="336.70999"
       y2="84.190002" />
    <linearGradient
       inkscape:collect="always"
       xlink:href="#linear-gradient-4"
       id="linearGradient893"
       gradientUnits="userSpaceOnUse"
       gradientTransform="matrix(1,0,0,-1,0,116)"
       x1="323.91"
       y1="39.43"
       x2="323.91"
       y2="92.510002" />
  </defs>
  <title
     id="title17">logo</title>
  <path
     d="m 50.770096,7 7.23,27.55 5,-19.25 h 21.89 l 2.95,11.25 0.76,-2.93 H 110.5001 L 98.800096,68.38 h -21.89 v 0 l -2.91,-11.28 -5,19.25 v 0 h -22 v 0 l -7.17,-27.54 -10.94,41.81 h -21.89 L 28.890096,7 h 21.88 M 110.5201,23.62 v 0 M 50.770096,0 h -21.88 a 7,7 0 0 0 -6.77,5.23 L 0.23009601,88.81 A 7,7 0 0 0 7.000096,97.59 h 21.89 a 7,7 0 0 0 6.77,-5.23 l 4.17,-15.94 0.38,1.45 a 7,7 0 0 0 6.79,5.52 h 21.89 a 7,7 0 0 0 6.9,-5.58 l 0.63,-2.4 h 0.49 21.89 a 7,7 0 0 0 6.770004,-5.23 l 11.66,-44.53 a 7,7 0 0 0 -6.71,-9 H 92.520096 l -0.81,-3.09 a 7,7 0 0 0 -6.77,-5.23 h -21.94 a 7,7 0 0 0 -4.27,1.48 l -1.19,-4.54 a 7,7 0 0 0 -6.77,-5.23 z"
     fill="#ffffff"
     id="path19" />
  <path
     d="m 264.7301,30.1 q 6.42,0 12.83,0 c 4.18,0 5.92,2 5,6 q -3.56,14.58 -7.62,28.96 c -0.27,1 -2.1,2 -3.35,2.12 a 26.25,26.25 0 0 1 -3,0.15 c -1.3,0 -2.62,-0.06 -3.92,-0.06 -0.47,0 -1,0 -1.42,0 h -0.25 c -2.63,0 -3.26,-1.18 -2.5,-3.72 2.26,-7.52 4.4,-15 6.56,-22.51 0.43,-1.42 0.71,-2.83 1,-4.19 a 4.8,4.8 0 0 0 -2,-0.56 c -1.43,0 -1.93,1.25 -2.32,2.75 -2.14,8.21 -4.43,16.39 -6.43,24.63 -0.63,2.58 -1.83,3.61 -4.27,3.61 h -0.62 c -1.3,-0.08 -2.6,-0.11 -4,-0.11 -2.07,0 -4.28,0.06 -6.81,0.06 3,-10.52 5.85,-20.38 8.74,-30.3 a 4.93,4.93 0 0 0 -2.27,-0.73 c -1.48,0 -2.07,1.34 -2.48,3 -2,8.11 -4.12,16.2 -6,24.34 -0.57,2.52 -1.68,3.72 -4.12,3.72 h -0.67 c -1.24,-0.07 -2.49,-0.1 -3.73,-0.1 -1.24,0 -2.49,0 -3.73,0.1 h -0.24 c -2.54,0 -3.09,-1.18 -2.37,-3.54 3,-10.21 5.75,-20.49 8.87,-30.67 a 4.93,4.93 0 0 1 3.63,-2.76 c 9.11,-0.16 18.26,-0.21 27.41,-0.21 m 0,-7 c -10.1,0 -19.11,0.07 -27.54,0.22 a 6,6 0 0 0 -1,0.09 11.92,11.92 0 0 0 -8.79,6.66 6.4,6.4 0 0 0 -0.36,1 c -2,6.61 -3.94,13.34 -5.78,19.84 -1,3.58 -2.06,7.28 -3.12,10.9 -1.3,4.35 -0.11,7.24 1.13,8.91 1.24,1.67 3.6,3.61 8,3.61 h 0.61 q 1.68,-0.09 3.36,-0.09 c 1.09,0 2.2,0 3.29,0.09 0.38,0 0.75,0 1.11,0 a 12.22,12.22 0 0 0 3.59,-0.54 6.86,6.86 0 0 0 2.51,0.47 c 1.36,0 2.63,0 3.83,0 h 3 c 1.4,0 2.52,0 3.52,0.09 0.38,0 0.73,0 1.06,0 a 12,12 0 0 0 5,-1 11.12,11.12 0 0 0 4.9,1 h 0.63 1.12 c 0.6,0 1.21,0 1.81,0 h 2.11 a 32.22,32.22 0 0 0 3.76,-0.2 c 3,-0.34 8,-2.54 9.28,-7.19 2.72,-9.6 5.3,-19.42 7.65,-29.16 1.24,-5.13 -0.3,-8.48 -1.81,-10.39 -1.51,-1.91 -4.49,-4.26 -10,-4.26 -4.25,0 -8.54,0 -12.83,0 z"
     fill="#ffffff"
     id="path21" />
  <path
     d="m 364.5601,30.1 h 0.62 c 1.23,0.09 2.47,0.11 3.77,0.11 2,0 4.13,-0.06 6.6,-0.06 -2.9,10.43 -5.61,20.17 -8.36,29.89 a 5.28,5.28 0 0 0 2.2,0.62 c 1.41,0 2,-1.15 2.44,-2.85 2,-8.09 4.3,-16.14 6.29,-24.25 0.59,-2.35 1.67,-3.46 4,-3.46 h 0.48 c 1.29,0.07 2.58,0.09 3.9,0.09 2,0 4.17,0 6.48,0 -0.33,1.67 -0.46,2.84 -0.77,3.92 -2.73,9.87 -5.57,19.71 -8.19,29.61 -0.66,2.48 -1.76,3.48 -4.42,3.48 h -0.1 q -7.5,-0.06 -15,-0.06 h -12.75 c -3.73,0 -7.46,0 -11.19,0 -4.91,0 -6.63,-2 -5.46,-6.68 2.3,-9.29 4.9,-18.49 7.52,-27.69 a 4,4 0 0 1 2.62,-2.43 c 1.71,-0.11 3.42,-0.14 5.2,-0.14 2.25,0 4.63,0 7.27,0 -3,10.5 -5.76,20.16 -8.53,29.81 a 5.26,5.26 0 0 0 2.25,0.67 c 1.56,0 2.16,-1.39 2.61,-3.09 2.1,-8 4.34,-15.89 6.31,-23.83 0.62,-2.5 1.73,-3.67 4.21,-3.67 m 28.47,0.07 v 0 m -28.47,-7.07 v 0 a 12.4,12.4 0 0 0 -4.06,0.68 7.1,7.1 0 0 0 -2.79,-0.57 c -1.35,0 -2.63,0 -3.86,0 h -3.41 c -2.24,0 -4,0 -5.65,0.15 h -0.11 c -4.23,0.34 -7.79,4.05 -8.78,7.45 -2.54,8.92 -5.22,18.38 -7.6,28 -1.11,4.49 -0.54,8.21 1.68,11 2.22,2.79 5.8,4.32 10.58,4.32 3.7,0 7.44,0 11.19,0 h 12.79 c 4.11,0 9.52,0 15,0.06 h 0.16 c 5.72,0 9.69,-3.08 11.18,-8.67 1.76,-6.66 3.66,-13.42 5.5,-20 q 1.35,-4.8 2.68,-9.6 a 26.07,26.07 0 0 0 0.62,-3 c 0.07,-0.39 0.14,-0.81 0.23,-1.28 a 7.22,7.22 0 0 0 0.17,-1.55 7,7 0 0 0 -7,-7 v 0 c -1.22,0 -2.39,0 -3.53,0 h -3 c -1.38,0 -2.5,0 -3.51,-0.08 -0.3,0 -0.59,0 -0.86,0 a 11.9,11.9 0 0 0 -3.9,0.61 7,7 0 0 0 -2.73,-0.56 c -1.34,0 -2.58,0 -3.76,0 h -2.84 c -1.33,0 -2.34,0 -3.28,-0.09 -0.38,0 -0.75,0 -1.11,0 z"
     fill="#ffffff"
     id="path23" />
  <path
     d="m 209.2601,30.12 c 5.32,0 10.64,0 16,0.09 3.59,0 5.17,2.09 4.39,5.3 q -3.65,14.9 -7.81,29.68 c -0.26,0.92 -2.18,1.91 -3.34,2 -1.93,0.11 -3.87,0.14 -5.81,0.14 -2.35,0 -4.7,0 -7.05,0 h -0.05 c -2.86,0 -5.72,0 -8.58,0 -1.42,0 -2.85,0 -4.28,0 -4.29,-0.11 -6.34,-2.51 -5.22,-6.69 q 3.8,-14 8.07,-28 a 4.15,4.15 0 0 1 3.09,-2.35 c 3.53,-0.07 7.06,-0.09 10.59,-0.09 m -5.65,30.76 c 0.64,0 1.41,-0.09 1.92,-0.11 3.94,-0.15 3.68,-0.18 4.39,-3.87 0.75,-3.93 4.59,-17.75 5.17,-20.13 a 7.58,7.58 0 0 0 -2.9,-0.35 c -1.66,0 -3.46,0.22 -3.69,0.92 -2.2,6.55 -4.32,16.14 -6.06,22.93 -0.13,0.49 0.44,0.61 1.17,0.61 m 5.65,-37.76 c -4,0 -7.47,0 -10.72,0.09 a 6,6 0 0 0 -1,0.09 11.19,11.19 0 0 0 -8.27,6.29 7.17,7.17 0 0 0 -0.36,0.91 c -2.91,9.23 -5.62,18.73 -8.16,28.11 -1.09,4.08 -0.5,7.91 1.66,10.8 2.16,2.89 5.81,4.61 10.15,4.71 1.34,0 2.8,0 4.45,0 h 4.35 3.45 a 7.55,7.55 0 0 0 0.83,0 h 3.46 3.59 c 2.42,0 4.38,0 6.19,-0.15 3,-0.17 8.34,-2.24 9.7,-7.06 2.79,-9.89 5.43,-20 7.83,-29.94 a 11.24,11.24 0 0 0 -1.83,-9.79 11.54,11.54 0 0 0 -9.36,-4.15 h -3.63 c -4,0 -8.21,-0.06 -12.33,-0.06 z"
     fill="#ffffff"
     id="path25" />
  <path
     d="m 459.0001,30.14 h 0.41 c 1.19,0 2.38,0.06 3.62,0.06 2.17,0 4.48,0 7.19,0 -1.88,7 -3.54,13.25 -5.22,19.44 -1.27,4.69 -2.72,9.32 -3.8,14 -0.72,3.19 -2.51,3.23 -6.46,3.23 -5.85,0 -9.87,0.07 -16.12,0.07 -4.33,0 -6.58,-1.21 -6.92,-4.79 -0.94,-9.62 -1.39,-19.38 -2.22,-29 0,-0.53 0.36,-2.38 1.46,-2.41 4.36,-0.1 7.29,0 10.92,-0.11 1,0 0.91,1.49 1,2.58 1,7.86 1.67,18.78 2.56,26.66 a 1.52,1.52 0 0 0 1.63,1.46 c 0.73,0 1.45,-0.35 1.58,-0.8 2.15,-7.79 4.65,-19.17 6.54,-27 0.55,-2.24 1.48,-3.36 3.78,-3.36 m 11.22,0 v 0 m -11.22,-7 v 0 a 10.28,10.28 0 0 0 -9.71,6.14 7.67,7.67 0 0 0 -7.43,-5.67 h -0.22 c -1.79,0.06 -3.44,0.06 -5.2,0.06 -1.76,0 -3.5,0 -5.66,0.06 -5.19,0.11 -8.3,4.87 -8.3,9.4 q 0,0.3 0,0.6 c 0.35,4.16 0.65,8.44 0.93,12.58 0.37,5.41 0.75,11 1.29,16.52 0.32,3.33 2.31,11.11 13.89,11.11 3.2,0 5.81,0 8.38,0 2.57,0 4.88,0 7.74,0 3.95,0 11.31,0 13.29,-8.67 0.68,-3 1.53,-6 2.42,-9.1 0.44,-1.55 0.88,-3.1 1.3,-4.65 1.38,-5.06 2.73,-10.13 4.21,-15.64 l 1,-3.6 a 7.19,7.19 0 0 0 0.3,-2 7,7 0 0 0 -7,-7 v 0 c -1.45,0 -2.79,0 -4.06,0 h -3.13 c -1.29,0 -2.34,0 -3.31,-0.06 h -0.72 z"
     fill="#ffffff"
     id="path27" />
  <path
     d="m 316.5201,30.16 h 0.93 q 9.93,0 19.9,0.1 a 3.7,3.7 0 0 1 1.12,0.42 c -0.15,5.7 -0.45,6 -6,6 h -9.54 c -5.93,0 -5.93,0 -6.81,6.8 h 13 c 5.27,0 6.89,1.84 5.75,6.69 -1.14,4.85 -2.27,9.43 -3.7,14.06 -0.35,1.12 -1.83,2.71 -2.82,2.73 -6.34,0.11 -12.68,0.14 -19,0.14 h -13.2 c -0.51,-6 0.38,-7 5.57,-7 h 0.06 c 2.36,0 4.69,0 7,0 1.8,0 3.61,0 5.41,0.14 0.23,0 0.45,0 0.67,0 2.8,0 4.22,-1.19 4.67,-4.08 a 65.74,65.74 0 0 1 1.89,-6.76 h -13.12 c -6.26,0 -7.64,-1.76 -6.14,-7.66 2.85,-11.23 2.92,-11.53 14.36,-11.53 m 0,-7 c -6.36,0 -11,0 -14.78,3.13 -3.59,2.94 -4.61,7 -6.31,13.66 -0.92,3.6 -1.59,8.22 1.39,12 a 9.84,9.84 0 0 0 1.18,1.33 10.61,10.61 0 0 0 -6.22,3.17 c -3,3.26 -2.89,7.49 -2.57,11.21 a 7,7 0 0 0 7,6.39 h 13.2 c 5.65,0 12.35,0 19.14,-0.14 4.84,-0.08 8.4,-4.53 9.37,-7.66 1.57,-5.07 2.82,-10.19 3.84,-14.54 0.35,-1.51 1.37,-5.83 -0.87,-9.73 a 8.63,8.63 0 0 0 1.6,-1.29 c 2.83,-2.84 2.92,-6.59 3,-9.9 a 7,7 0 0 0 -3.43,-6.2 10.55,10.55 0 0 0 -3.39,-1.28 8.27,8.27 0 0 0 -1.22,-0.12 c -6.63,-0.06 -13.35,-0.1 -20,-0.1 h -1 z"
     fill="#ffffff"
     id="path29" />
  <path
     d="m 194.3701,30.59 v 0 m 0,0 c -0.22,5.48 -0.83,6.1 -6,6.15 h -3.47 c -4.86,0 -3.76,0.33 -5.49,6.57 -1.85,6.74 -3.52,13.53 -5.32,20.29 -0.71,2.65 -2.74,4 -6,4 a 17.94,17.94 0 0 1 -4.13,-0.56 c -3.21,-0.78 -4.66,-3.4 -3.66,-6.93 1.95,-6.85 4,-13.68 6,-20.53 a 17.25,17.25 0 0 0 0.35,-2 6.49,6.49 0 0 0 -3.6,-0.82 c -1.16,0 -2.38,0.12 -3.53,0.12 -2.93,0 -5.41,-0.77 -5.41,-6.27 h 40.26 m 0,-7 h -40.26 a 7,7 0 0 0 -7,7 c 0,7.67 3.95,12.49 10.67,13.18 l -0.63,2.16 c -1.17,4 -2.39,8.15 -3.56,12.25 a 12.83,12.83 0 0 0 1,10.09 12,12 0 0 0 7.74,5.52 24.45,24.45 0 0 0 5.78,0.76 c 6.44,0 11.2,-3.43 12.74,-9.17 0.76,-2.84 1.5,-5.72 2.21,-8.5 1,-3.86 2,-7.86 3.1,-11.74 0.14,-0.51 0.26,-1 0.37,-1.43 h 1.86 c 2.71,0 6.81,-0.06 9.82,-3.13 2.81,-2.86 3,-6.68 3.15,-9.53 0,-0.16 0,-0.33 0,-0.49 a 7,7 0 0 0 -7,-7 z m 0,14 z"
     fill="#ffffff"
     id="path31" />
  <path
     d="m 290.4401,30.18 h 0.3 c 1.13,0 2.26,0 3.42,0 2.3,0 4.68,0 7.27,0 -0.42,2 -0.64,3.34 -1,4.59 -2.51,9.5 -5.19,19 -7.6,28.48 -0.63,2.45 -1.59,4 -4,4 a 7.6,7.6 0 0 1 -1,-0.07 c -0.62,0 -1.24,0 -1.87,0 -0.63,0 -1.24,0 -1.86,0 -4.53,-0.18 -6.14,-2.3 -4.93,-6.64 2.51,-9.08 5.17,-18.13 7.61,-27.24 0.56,-2.11 1.5,-3.1 3.66,-3.1 m 11,0 v 0 m -11,-7 v 0 c -2.47,0 -8.44,0.81 -10.43,8.31 -1.44,5.38 -3,10.87 -4.5,16.18 -1,3.59 -2.08,7.31 -3.09,11 -1.19,4.3 -0.73,8 1.39,10.85 2.12,2.85 5.5,4.47 10,4.65 h 0.62 c 0.5,0 1,0 1.51,0 h 1.25 a 13.23,13.23 0 0 0 1.64,0.1 c 3.14,0 8.72,-1.2 10.78,-9.24 1.45,-5.73 3,-11.56 4.57,-17.2 1,-3.66 2,-7.45 3,-11.19 0.29,-1.07 0.49,-2.08 0.72,-3.25 0.09,-0.45 0.19,-0.95 0.31,-1.5 a 7,7 0 0 0 -6.8,-8.66 v 0 h -3.91 -3.36 c -1.23,0 -2.24,0 -3.2,0 z"
     fill="#ffffff"
     id="path33" />
  <path
     d="m 147.5101,30.04 c 3,0 4.75,1.39 5.1,4.18 1.22,10 1.5,17.4 2.72,27.42 l 0.61,5.62 h -14.16 l -0.66,-9.37 h -10.37 l -2.44,9.37 h -14.54 c 0.89,-2.91 1.67,-5.55 2.29,-7.83 2.42,-8.55 4.92,-17.09 7.16,-25.7 0.64,-2.45 1.57,-3.63 4.22,-3.63 h 0.17 c 2,0 4.07,0 6.1,0 4.6,0 9.2,-0.06 13.8,-0.1 m -15.14,21.72 h 8.36 l -1.14,-15.54 h -3.19 l -4,15.54 m 15.14,-28.68 h -0.07 -3.43 c -3.38,0 -6.88,0.07 -10.3,0.07 -2.17,0 -4.14,0 -6,0 h -0.27 c -4,0 -9.11,1.54 -11,8.89 -1.71,6.58 -3.63,13.3 -5.48,19.79 -0.55,1.91 -1.09,3.83 -1.64,5.74 v 0.08 c -0.57,2.09 -1.31,4.65 -2.22,7.59 a 7,7 0 0 0 6.69,9.07 h 14.54 a 7,7 0 0 0 6.64,-5.1 7,7 0 0 0 6.74,5.09 h 14.16 a 7,7 0 0 0 7,-7.75 l -0.61,-5.63 a 0.28,0.28 0 0 0 0,-0.09 c -0.6,-4.9 -1,-9.06 -1.34,-13.48 -0.34,-4.42 -0.76,-8.8 -1.38,-13.94 -0.78,-6.28 -5.5,-10.33 -12.05,-10.33 z"
     fill="#ffffff"
     id="path35" />
  <path
     d="m 420.4801,29.99 c 3,0 4.76,1.39 5.1,4.18 1.22,10.07 1.54,17.43 2.72,27.45 v 0 l 0.61,5.63 h -14.16 l -0.66,-9.38 h -10.37 l -2.44,9.34 h -14.54 c 0.9,-2.91 1.67,-5.55 2.29,-7.83 2.43,-8.55 4.92,-17.09 7.16,-25.7 0.63,-2.45 1.57,-3.63 4.22,-3.63 h 0.17 q 3,0 6.11,0 c 4.59,0 9.19,-0.06 13.79,-0.1 m -15.15,21.75 h 8.36 l -1.13,-15.54 h -3.18 l -4,15.54 m 15.15,-28.71 h -0.06 -3.44 c -3.38,0 -6.87,0.07 -10.29,0.07 -2.18,0 -4.14,0 -6,0 h -0.27 c -4,0 -9.11,1.54 -11,8.89 -1.84,6.86 -3.85,13.86 -5.78,20.63 q -0.71,2.44 -1.39,4.88 v 0.09 c -0.62,2.31 -1.37,4.86 -2.22,7.58 a 7,7 0 0 0 6.69,9.08 h 14.54 a 7,7 0 0 0 6.69,-5.07 7,7 0 0 0 6.74,5.11 h 14.16 a 7,7 0 0 0 7,-7.76 l -0.61,-5.62 v -0.06 c -0.57,-4.83 -0.94,-9.13 -1.31,-13.29 -0.38,-4.4 -0.78,-9 -1.41,-14.18 -0.77,-6.29 -5.5,-10.34 -12,-10.34 z"
     fill="#ffffff"
     id="path37" />
  <path
     d="m 495.2101,30.22 h 11 a 0.75,0.75 0 0 1 0.72,1 l -1.23,5.29 a 1.12,1.12 0 0 1 -1.06,0.79 h -14 c -5,0 -5.24,0.23 -5.54,6.16 h 15.41 a 0.77,0.77 0 0 1 0.7,0.84 l -0.75,5.47 a 1.26,1.26 0 0 1 -1.17,1.04 v 0 c -3.43,0 -9.95,0 -12.68,0 -3,0 -4.62,0.82 -5,3.84 a 62.8,62.8 0 0 1 -1.5,6.16 h 18.37 a 0.77,0.77 0 0 1 0.29,0 0.92,0.92 0 0 1 0.59,1.18 l -0.76,4.18 a 1.24,1.24 0 0 1 -1.14,0.77 c -4.14,0 -9.24,0 -14.24,0 -4.33,0 -8.59,0 -12,0 -4.79,0 -6.55,-2.16 -5.33,-6.69 q 3.63,-13.68 7.61,-27.24 c 0.31,-1.07 1.6,-2.65 2.44,-2.65 6.34,-0.12 12.88,-0.14 19.36,-0.14 m 0,-7 c -5.89,0 -12.8,0 -19.45,0.14 -5,0.05 -8.21,4.73 -9.07,7.69 -2.65,9 -5.23,18.27 -7.66,27.4 -1.47,5.51 0.05,9 1.59,11 2.25,2.94 5.78,4.43 10.47,4.44 3.24,0 7.42,0 12.09,0 4.82,0 9.89,0 14.28,0 a 8.2,8.2 0 0 0 7.5,-5.08 7.17,7.17 0 0 0 0.39,-1.35 l 0.72,-3.94 a 7.93,7.93 0 0 0 -2,-7.28 8.24,8.24 0 0 0 3.27,-5.4 c 0,0 0,-0.08 0,-0.12 l 0.76,-5.47 v -0.34 a 6.93,6.93 0 0 0 0,-1.44 8.09,8.09 0 0 0 4.17,-4.87 c 0.05,-0.16 0.1,-0.33 0.14,-0.5 l 1.2,-5.19 a 7.75,7.75 0 0 0 -7.51,-9.66 h -11 z"
     fill="#ffffff"
     id="path39" />
  <polygon
     points="331.63,31.81 353.51,31.81 341.8,76.57 319.91,76.57 "
     fill="url(#linear-gradient)"
     id="polygon41"
     style="fill:url(#linearGradient891)"
     transform="translate(-242.9999,-8.19)" />
  <polygon
     points="306.02,23.49 327.91,23.49 311.92,84.58 290.04,84.58 "
     fill="url(#linear-gradient-2)"
     id="polygon43"
     style="fill:url(#linear-gradient-2)"
     transform="translate(-242.9999,-8.19)" />
  <polygon
     points="271.89,15.19 293.77,15.19 271.89,98.81 250,98.81 "
     fill="url(#linear-gradient-3)"
     id="polygon45"
     style="fill:url(#linear-gradient-3)"
     transform="translate(-242.9999,-8.19)" />
  <polygon
     points="319.92,76.57 341.8,76.57 327.91,23.49 306.02,23.49 "
     fill="url(#linear-gradient-4)"
     id="polygon47"
     style="fill:url(#linearGradient893)"
     transform="translate(-242.9999,-8.19)" />
  <polygon
     points="271.89,15.19 290.05,84.58 311.93,84.58 293.77,15.19 "
     fill="url(#linear-gradient-5)"
     id="polygon49"
     style="fill:url(#linear-gradient-5)"
     transform="translate(-242.9999,-8.19)" />
  <path
     d="m 268.0601,36.88 c -3,-1.45 -3.78,0.13 -4.31,2.19 -2.14,8.21 -4.43,16.39 -6.43,24.63 -0.68,2.79 -2,3.76 -4.89,3.59 -3.27,-0.21 -6.58,0 -10.77,0 3,-10.52 5.85,-20.38 8.74,-30.3 -3.23,-1.75 -4.18,-0.09 -4.75,2.31 -2,8.11 -4.12,16.2 -6,24.34 -0.62,2.74 -1.88,3.92 -4.79,3.69 a 71.4,71.4 0 0 0 -7.46,0 c -2.75,0.08 -3.35,-1.11 -2.61,-3.54 3,-10.21 5.75,-20.49 8.87,-30.67 a 4.93,4.93 0 0 1 3.63,-2.76 c 13.38,-0.23 26.83,-0.25 40.24,-0.18 4.18,0 5.92,2 5,6 q -3.53,14.5 -7.59,28.88 c -0.27,1 -2.1,2 -3.35,2.12 -2.72,0.32 -5.53,0 -8.29,0.12 -2.76,0.12 -3.62,-1.07 -2.83,-3.72 2.26,-7.52 4.4,-15 6.56,-22.51 0.43,-1.42 0.71,-2.83 1.03,-4.19 z"
     id="path51" />
  <path
     d="m 357.7101,30.21 c -3,10.5 -5.76,20.16 -8.53,29.81 3.34,1.68 4.24,-0.07 4.86,-2.42 2.1,-8 4.34,-15.89 6.31,-23.83 0.67,-2.7 1.91,-3.85 4.83,-3.65 3.13,0.22 6.29,0 10.37,0 -2.9,10.43 -5.61,20.17 -8.36,29.89 3.09,1.47 4,0.17 4.64,-2.23 2,-8.09 4.31,-16.14 6.29,-24.25 0.62,-2.5 1.81,-3.6 4.53,-3.45 3.28,0.18 6.57,0 10.38,0 -0.33,1.67 -0.46,2.84 -0.77,3.92 -2.73,9.87 -5.57,19.71 -8.19,29.61 -0.67,2.51 -1.79,3.51 -4.52,3.48 -13,-0.12 -26,0 -39,-0.08 -4.91,0 -6.63,-2 -5.46,-6.68 2.3,-9.29 4.9,-18.49 7.52,-27.69 a 4,4 0 0 1 2.62,-2.43 c 3.89,-0.16 7.77,0 12.48,0 z"
     id="path53" />
  <path
     d="m 205.5901,67.21 c -4.29,0 -8.58,0.1 -12.86,0 -4.28,-0.1 -6.34,-2.51 -5.22,-6.69 q 3.8,-14 8.07,-28 a 4.15,4.15 0 0 1 3.09,-2.35 c 8.85,-0.16 17.7,-0.06 26.55,0 3.59,0 5.17,2.09 4.39,5.3 q -3.61,14.94 -7.77,29.72 c -0.26,0.92 -2.18,1.91 -3.34,2 -4.28,0.24 -8.57,0.1 -12.86,0.1 z m -3.15,-6.94 c -0.24,0.93 2,0.54 3.09,0.5 3.94,-0.15 3.68,-0.18 4.39,-3.87 0.75,-3.93 4.59,-17.75 5.17,-20.13 -0.33,-0.4 -6.16,-0.72 -6.59,0.57 -2.2,6.55 -4.32,16.14 -6.06,22.93 z"
     id="path55" />
  <path
     d="m 470.1801,30.17 c -1.88,7 -3.54,13.25 -5.22,19.44 -1.27,4.69 -2.72,9.32 -3.8,14 -0.72,3.19 -2.51,3.23 -6.46,3.23 -5.85,0 -9.87,0.07 -16.12,0.07 -4.33,0 -6.58,-1.21 -6.92,-4.79 -0.94,-9.62 -1.39,-19.38 -2.22,-29 0,-0.53 0.36,-2.38 1.46,-2.41 4.36,-0.1 7.29,0 10.92,-0.11 1,0 0.91,1.49 1,2.58 1,7.86 1.67,18.78 2.56,26.66 0.2,2.1 3,1.58 3.21,0.66 2.15,-7.79 4.65,-19.17 6.54,-27 0.58,-2.37 1.58,-3.48 4.19,-3.34 3.33,0.13 6.61,0.01 10.86,0.01 z"
     id="path57" />
  <path
     d="m 316.1201,43.5 h 13 c 5.27,0 6.89,1.84 5.75,6.69 -1.14,4.85 -2.27,9.43 -3.7,14.06 -0.35,1.12 -1.83,2.71 -2.82,2.73 -10.75,0.19 -21.5,0.12 -32.21,0.12 -0.52,-6 0.39,-7 5.63,-7 4.18,0 8.31,-0.17 12.44,0.09 3.25,0.2 4.86,-1 5.34,-4.06 a 65.74,65.74 0 0 1 1.89,-6.76 h -13.14 c -6.26,0 -7.64,-1.76 -6.14,-7.66 2.93,-11.53 2.93,-11.53 15.29,-11.53 q 9.93,0 19.9,0.1 a 3.7,3.7 0 0 1 1.12,0.42 c -0.15,5.7 -0.45,6 -6,6 h -9.54 c -5.93,0.02 -5.93,0.02 -6.81,6.8 z"
     id="path59" />
  <path
     d="m 166.6501,37.56 c -4.18,-2.71 -12.54,3.13 -12.54,-7 h 40.26 c -0.22,5.48 -0.83,6.1 -6,6.15 -8.81,0.09 -6.87,-0.83 -8.92,6.58 -1.85,6.74 -3.52,13.53 -5.32,20.29 -1,3.65 -4.45,4.79 -10.11,3.42 -3.21,-0.78 -4.66,-3.4 -3.66,-6.93 1.95,-6.85 4,-13.68 6,-20.53 a 17.25,17.25 0 0 0 0.29,-1.98 z"
     id="path61" />
  <path
     d="m 301.4301,30.19 c -0.42,2 -0.64,3.34 -1,4.59 -2.51,9.5 -5.19,19 -7.6,28.48 -0.71,2.77 -1.84,4.36 -5,3.9 a 33.15,33.15 0 0 0 -3.73,0 c -4.53,-0.18 -6.14,-2.3 -4.93,-6.64 2.51,-9.08 5.17,-18.13 7.61,-27.24 0.58,-2.2 1.58,-3.18 4,-3.09 3.35,0.09 6.77,0 10.65,0 z"
     id="path63" />
  <path
     d="m 139.5901,36.18 h -3.19 l -4,15.54 h 8.36 z m 15.74,25.46 0.61,5.62 h -14.16 l -0.66,-9.37 h -10.37 l -2.44,9.37 h -14.54 c 0.89,-2.91 1.67,-5.55 2.29,-7.83 2.42,-8.55 4.92,-17.09 7.16,-25.7 0.65,-2.5 1.61,-3.68 4.39,-3.63 6.63,0.1 13.27,0 19.9,-0.06 3,0 4.75,1.39 5.1,4.18 1.22,10.04 1.5,17.4 2.72,27.42 z"
     id="path65" />
  <path
     d="m 412.5601,36.16 h -3.18 l -4,15.54 h 8.36 z m 15.74,25.46 0.61,5.63 h -14.16 l -0.66,-9.38 h -10.37 l -2.44,9.34 h -14.54 c 0.9,-2.91 1.67,-5.55 2.29,-7.83 2.43,-8.55 4.92,-17.09 7.16,-25.7 0.65,-2.5 1.61,-3.68 4.39,-3.63 6.63,0.1 13.27,0 19.9,-0.06 3,0 4.76,1.39 5.1,4.18 1.22,10.07 1.54,17.43 2.72,27.45 z"
     id="path67" />
  <path
     d="m 498.5601,66.17 0.76,-4.18 a 0.92,0.92 0 0 0 -0.59,-1.18 0.86,0.86 0 0 0 -0.32,0 h -18.34 a 62.8,62.8 0 0 0 1.5,-6.16 c 0.4,-3 2,-3.81 5,-3.84 2.73,0 9.25,0 12.68,0 a 1.26,1.26 0 0 0 1.26,-1.06 l 0.75,-5.47 a 0.77,0.77 0 0 0 -0.7,-0.84 h -15.39 c 0.3,-5.93 0.51,-6.14 5.54,-6.16 h 14 a 1.12,1.12 0 0 0 1.06,-0.79 l 1.23,-5.29 a 0.76,0.76 0 0 0 -0.51,-0.94 0.85,0.85 0 0 0 -0.23,0 c -10,0 -20.41,-0.05 -30.38,0.13 -0.84,0 -2.13,1.58 -2.44,2.65 q -4,13.56 -7.61,27.24 c -1.22,4.53 0.54,6.69 5.33,6.69 7.45,0.06 18.56,0.05 26.29,0 a 1.24,1.24 0 0 0 1.11,-0.8 z"
     id="path69" />
  <metadata
     id="metadata889">
    <rdf:RDF>
      <cc:Work
         rdf:about="">
        <dc:title>logo</dc:title>
      </cc:Work>
    </rdf:RDF>
  </metadata>
</svg>
