<?xml version="1.0" encoding="UTF-8" standalone="no"?>
<!-- Created with Inkscape (http://www.inkscape.org/) -->

<svg
   width="170.2162mm"
   height="23.50889mm"
   viewBox="0 0 170.2162 23.50889"
   version="1.1"
   id="svg839"
   inkscape:version="1.1 (c68e22c387, 2021-05-23)"
   sodipodi:docname="auto-simulationlife.svg"
   xmlns:inkscape="http://www.inkscape.org/namespaces/inkscape"
   xmlns:sodipodi="http://sodipodi.sourceforge.net/DTD/sodipodi-0.dtd"
   xmlns="http://www.w3.org/2000/svg"
   xmlns:svg="http://www.w3.org/2000/svg">
  <sodipodi:namedview
     id="namedview841"
     pagecolor="#ffffff"
     bordercolor="#666666"
     borderopacity="1.0"
     inkscape:pageshadow="2"
     inkscape:pageopacity="0.0"
     inkscape:pagecheckerboard="0"
     inkscape:document-units="mm"
     showgrid="false"
     fit-margin-top="0"
     fit-margin-left="0"
     fit-margin-right="0"
     fit-margin-bottom="0"
     inkscape:zoom="0.94867184"
     inkscape:cx="365.24748"
     inkscape:cy="-2.1082106"
     inkscape:window-width="1920"
     inkscape:window-height="1138"
     inkscape:window-x="-8"
     inkscape:window-y="-8"
     inkscape:window-maximized="1"
     inkscape:current-layer="layer1" />
  <defs
     id="defs836" />
  <g
     inkscape:label="Calque 1"
     inkscape:groupmode="layer"
     id="layer1"
     transform="translate(-18.961354,-148.8468)">
    <rect
       style="fill:#ffffff;fill-rule:evenodd;stroke:none;stroke-width:4.98843;stroke-linecap:round;stroke-linejoin:round;stroke-miterlimit:4;stroke-dasharray:none;paint-order:stroke markers fill"
       id="rect4433"
       width="97.33564"
       height="10.164261"
       x="87.832649"
       y="159.88136" />
    <rect
       style="fill:#ffffff;fill-rule:evenodd;stroke:none;stroke-width:4.5499;stroke-linecap:round;stroke-linejoin:round;stroke-miterlimit:4;stroke-dasharray:none;paint-order:stroke markers fill"
       id="rect4581"
       width="20.917402"
       height="9.7430201"
       x="39.664078"
       y="159.21744" />
    <g
       aria-label="Life Simulation"
       id="text1518"
       style="font-size:25.4px;line-height:1.25;font-family:'Rose Of Baltimore';-inkscape-font-specification:'Rose Of Baltimore';fill:#000080;stroke:#ffffff;stroke-width:4;stroke-linecap:round;stroke-linejoin:round;stroke-miterlimit:4;stroke-dasharray:none;paint-order:stroke markers fill">
      <path
         d="m 20.973752,151.78938 q 0.657324,0.062 1.463476,0.0992 0.818555,0.0248 1.934766,0.0248 1.103809,0 1.909961,-0.0248 0.806152,-0.0372 1.488281,-0.0992 v 0.5209 q -1.327051,0.0496 -1.699121,0.31005 -0.359668,0.26045 -0.359668,1.50069 v 0.33486 13.43174 q 0,0.70693 0.322461,0.91777 0.334863,0.19844 1.810742,0.19844 h 0.744141 q 3.261816,0 4.415234,-0.80615 1.153418,-0.81856 1.624707,-3.02617 h 0.533301 l -0.992188,4.89892 q -0.930175,-0.062 -2.455664,-0.0868 -1.525488,-0.0372 -3.509863,-0.0372 -3.708301,0 -5.060156,0.0372 -1.351856,0.0248 -2.17041,0.0868 v -0.5581 q 1.351855,-0.0372 1.711523,-0.32246 0.359668,-0.28526 0.359668,-1.81075 v -12.92324 q 0,-1.53789 -0.37207,-1.82314 -0.359668,-0.28526 -1.711524,-0.32246 z"
         style="font-family:'Life BT';-inkscape-font-specification:'Life BT, Normal';fill:#000080;stroke:#ffffff;stroke-width:4;stroke-linecap:round;stroke-linejoin:round;stroke-miterlimit:4;stroke-dasharray:none;paint-order:stroke markers fill"
         id="path4127" />
      <path
         d="m 39.664083,157.80451 h 0.458887 v 9.95909 q 0,1.26503 0.285254,1.52548 0.285254,0.26045 1.37666,0.29766 l 0.0124,0.45889 q -0.756543,-0.0496 -1.451075,-0.0744 -0.694531,-0.0248 -1.289843,-0.0248 -0.620118,0 -1.327051,0.0248 -0.694531,0.0248 -1.451074,0.0744 l 0.0124,-0.45889 q 1.041797,-0.0248 1.351855,-0.32246 0.322461,-0.31006 0.322461,-1.50068 v -6.90811 q 0,-0.71934 -0.297656,-0.93018 -0.297656,-0.22324 -1.413867,-0.24804 v -0.47129 q 0.607715,-0.13643 1.389062,-0.45889 0.79375,-0.32246 2.021582,-0.94258 z m -0.669726,-6.10195 q 0.657324,0 1.00459,0.38447 0.347265,0.37207 0.347265,1.0666 0,0.75655 -0.409277,1.20303 -0.396875,0.44649 -1.066602,0.44649 -0.632519,0 -1.016992,-0.40928 -0.37207,-0.40928 -0.37207,-1.11621 0,-0.66973 0.434082,-1.11621 0.434082,-0.45889 1.079004,-0.45889 z"
         style="font-family:'Life BT';-inkscape-font-specification:'Life BT, Normal';fill:#000080;stroke:#ffffff;stroke-width:4;stroke-linecap:round;stroke-linejoin:round;stroke-miterlimit:4;stroke-dasharray:none;paint-order:stroke markers fill"
         id="path4129" />
      <path
         d="m 46.931856,155.13801 v 3.00137 h 2.38125 v 0.83095 h -2.38125 v 8.79327 q 0,1.21543 0.384472,1.51308 0.384473,0.29766 1.748731,0.32246 v 0.44649 q -0.84336,-0.0496 -1.612305,-0.0744 -0.756543,-0.0248 -1.413867,-0.0248 -0.644922,0 -1.413867,0.0248 -0.768946,0.0248 -1.612305,0.0744 v -0.45889 q 1.116211,0 1.451074,-0.29766 0.334864,-0.31005 0.334864,-1.52548 v -8.79327 H 42.98791 v -0.83095 h 1.810743 v -0.66973 q 0,-3.39824 1.128613,-5.01055 1.141015,-1.6123 3.54707,-1.6123 1.079004,0 1.624707,0.47129 0.558106,0.47129 0.558106,1.40146 0,0.47129 -0.248047,0.70694 -0.235645,0.23564 -0.719336,0.23564 -0.545703,0 -0.79375,-0.18603 -0.235645,-0.19844 -0.297656,-0.69454 -0.0124,-0.0992 -0.03721,-0.31005 -0.08682,-0.85577 -0.880567,-0.86817 -0.880566,0 -1.314648,0.88057 -0.434082,0.88056 -0.434082,2.6541 z"
         style="font-family:'Life BT';-inkscape-font-specification:'Life BT, Normal';fill:#000080;stroke:#ffffff;stroke-width:4;stroke-linecap:round;stroke-linejoin:round;stroke-miterlimit:4;stroke-dasharray:none;paint-order:stroke markers fill"
         id="path4131" />
      <path
         d="m 61.070529,162.67863 h -8.049121 v 0.33487 q 0,2.40605 1.153418,3.90674 1.16582,1.50068 2.988965,1.50068 1.178222,0 2.108398,-0.63252 0.942578,-0.64492 1.624707,-1.90996 l 0.508496,0.18603 q -0.855761,2.096 -2.195215,3.18741 -1.32705,1.079 -3.063378,1.079 -2.195215,0 -3.534668,-1.63711 -1.339453,-1.63711 -1.339453,-4.34082 0,-2.93935 1.475878,-4.73769 1.475879,-1.81075 3.857129,-1.81075 1.996778,0 3.237012,1.24024 1.252637,1.22783 1.252637,3.1998 0,0.0868 -0.0124,0.22324 -0.0124,0.13643 -0.0124,0.21084 z m -2.207617,-0.73173 q 0,-1.47588 -0.781348,-2.40606 -0.781347,-0.93017 -1.984375,-0.93017 -1.178222,0 -1.971972,0.89296 -0.79375,0.88057 -1.00459,2.44327 z"
         style="font-family:'Life BT';-inkscape-font-specification:'Life BT, Normal';fill:#000080;stroke:#ffffff;stroke-width:4;stroke-linecap:round;stroke-linejoin:round;stroke-miterlimit:4;stroke-dasharray:none;paint-order:stroke markers fill"
         id="path4133" />
      <path
         d="m 81.646017,151.83899 v 4.44004 H 81.18713 q -0.545703,-1.84795 -1.773535,-2.82774 -1.21543,-0.97978 -2.951758,-0.97978 -1.351856,0 -2.22002,0.74414 -0.855761,0.74414 -0.855761,1.89756 0,1.79833 4.055566,3.90673 0.731738,0.38448 1.128613,0.58291 2.517676,1.36426 3.348633,2.49287 0.843359,1.12862 0.843359,2.81534 0,2.34404 -1.637109,3.89433 -1.637109,1.5503 -4.154785,1.5503 -1.141016,0 -2.604492,-0.42168 -1.451074,-0.42168 -1.761133,-0.42168 -0.37207,0 -0.706934,0.17363 -0.32246,0.17363 -0.719335,0.59531 v -6.30039 h 0.508496 q 0.545703,2.45566 1.934765,3.77031 1.389063,1.30225 3.447852,1.30225 1.550293,0 2.567285,-0.91777 1.016992,-0.93018 1.016992,-2.33164 0,-1.12862 -0.63252,-1.89756 -0.620117,-0.76895 -2.778124,-1.88516 -0.334864,-0.17363 -0.942579,-0.49609 -2.691308,-1.42627 -3.112988,-1.76114 -1.029394,-0.81855 -1.513086,-1.71152 -0.471289,-0.89297 -0.471289,-1.99678 0,-2.02158 1.500684,-3.28662 1.500683,-1.26504 3.906738,-1.26504 1.00459,0 2.244824,0.33487 1.240235,0.32246 1.513086,0.32246 0.223242,0 0.508496,-0.0744 0.285254,-0.0744 0.768946,-0.24804 z"
         style="font-family:'Life BT';-inkscape-font-specification:'Life BT, Normal';fill:#000080;stroke:#ffffff;stroke-width:4;stroke-linecap:round;stroke-linejoin:round;stroke-miterlimit:4;stroke-dasharray:none;paint-order:stroke markers fill"
         id="path4135" />
      <path
         d="m 89.087425,157.80451 h 0.458887 v 9.95909 q 0,1.26503 0.285254,1.52548 0.285254,0.26045 1.37666,0.29766 l 0.0124,0.45889 q -0.756543,-0.0496 -1.451074,-0.0744 -0.694531,-0.0248 -1.289844,-0.0248 -0.620117,0 -1.32705,0.0248 -0.694532,0.0248 -1.451075,0.0744 l 0.0124,-0.45889 q 1.041797,-0.0248 1.351855,-0.32246 0.322461,-0.31006 0.322461,-1.50068 v -6.90811 q 0,-0.71934 -0.297656,-0.93018 -0.297656,-0.22324 -1.413867,-0.24804 v -0.47129 q 0.607715,-0.13643 1.389062,-0.45889 0.79375,-0.32246 2.021582,-0.94258 z m -0.669726,-6.10195 q 0.657324,0 1.004589,0.38447 0.347266,0.37207 0.347266,1.0666 0,0.75655 -0.409277,1.20303 -0.396875,0.44649 -1.066602,0.44649 -0.632519,0 -1.016992,-0.40928 -0.37207,-0.40928 -0.37207,-1.11621 0,-0.66973 0.434082,-1.11621 0.434082,-0.45889 1.079004,-0.45889 z"
         style="font-family:'Life BT';-inkscape-font-specification:'Life BT, Normal';fill:#000080;stroke:#ffffff;stroke-width:4;stroke-linecap:round;stroke-linejoin:round;stroke-miterlimit:4;stroke-dasharray:none;paint-order:stroke markers fill"
         id="path4137" />
      <path
         d="m 95.412617,157.80451 h 0.508497 v 2.51768 q 1.575097,-1.47588 2.455664,-1.97197 0.892968,-0.4961 1.761132,-0.4961 1.02939,0 1.79834,0.62012 0.78135,0.60772 1.22783,1.77354 1.19063,-1.26504 2.19522,-1.84795 1.01699,-0.59532 1.97197,-0.59532 1.64951,0 2.44326,1.0418 0.80615,1.0294 0.80615,3.19981 v 5.71748 q 0,1.24023 0.28526,1.51308 0.29765,0.27285 1.38906,0.32246 v 0.44649 q -0.76895,-0.0496 -1.46348,-0.0744 -0.69453,-0.0248 -1.27744,-0.0248 -0.58291,0 -1.27744,0.0248 -0.69453,0.0248 -1.46348,0.0744 v -0.45889 q 1.017,-0.0124 1.33946,-0.32246 0.33486,-0.31006 0.33486,-1.50068 v -5.91592 q 0,-1.32705 -0.48369,-1.92237 -0.48369,-0.59531 -1.55029,-0.59531 -0.69454,0 -1.42627,0.33487 -0.73174,0.33486 -1.72393,1.14101 v 6.95772 q 0,1.24023 0.28525,1.51308 0.29766,0.27285 1.38907,0.32246 v 0.44649 q -0.76895,-0.0496 -1.46348,-0.0744 -0.69453,-0.0248 -1.27744,-0.0248 -0.59531,0 -1.28984,0.0248 -0.68213,0.0248 -1.451079,0.0744 v -0.45889 q 1.016989,-0.0124 1.339449,-0.32246 0.33487,-0.31006 0.33487,-1.50068 v -5.91592 q 0,-1.32705 -0.48369,-1.92237 -0.47129,-0.59531 -1.500687,-0.59531 -0.595313,0 -1.277442,0.32246 -0.669726,0.32246 -1.699121,1.10381 v 7.00733 q 0,1.26503 0.285254,1.52548 0.297657,0.26045 1.389063,0.29766 l 0.0124,0.45889 q -0.756543,-0.0496 -1.463476,-0.0744 -0.694532,-0.0248 -1.314649,-0.0248 -0.595312,0 -1.289844,0.0248 -0.694531,0.0248 -1.451074,0.0744 l 0.0124,-0.45889 q 1.029394,-0.0248 1.339453,-0.32246 0.322461,-0.31006 0.322461,-1.50068 v -6.73448 q 0,-0.85576 -0.26045,-1.12861 -0.248046,-0.27285 -0.979785,-0.27285 -0.07441,0 -0.235644,0.0124 -0.148828,0.0124 -0.248047,0.0124 v -0.5333 q 0.58291,-0.17363 1.252637,-0.44648 0.682128,-0.28526 1.872753,-0.86817 z"
         style="font-family:'Life BT';-inkscape-font-specification:'Life BT, Normal';fill:#000080;stroke:#ffffff;stroke-width:4;stroke-linecap:round;stroke-linejoin:round;stroke-miterlimit:4;stroke-dasharray:none;paint-order:stroke markers fill"
         id="path4139" />
      <path
         d="m 116.64543,157.80451 h 0.35966 v 7.80108 q 0,1.5999 0.60772,2.40605 0.60771,0.79375 1.83555,0.79375 0.75654,0 1.46347,-0.37207 0.70694,-0.37207 1.32705,-1.079 v -5.89111 q 0,-1.24024 -0.32246,-1.48829 -0.31006,-0.26045 -1.30224,-0.26045 v -0.50849 q 0.74414,-0.18604 1.5875,-0.5333 0.85576,-0.34727 1.83554,-0.86817 h 0.35967 v 9.45059 q 0,0.79375 0.28525,1.0542 0.28526,0.26045 1.09141,0.26045 h 0.27285 v 0.50849 q -0.66972,0.17364 -1.38906,0.43409 -0.70693,0.24804 -1.47588,0.58291 h -0.76894 v -1.92237 q -0.88057,1.0666 -1.89756,1.61231 -1.00459,0.5457 -2.1084,0.5457 -1.81074,0 -2.69131,-0.94258 -0.86816,-0.94258 -0.86816,-2.87734 v -5.04775 q 0,-1.22784 -0.32247,-1.48829 -0.32246,-0.26045 -1.32705,-0.26045 v -0.50849 q 0.73174,-0.18604 1.5751,-0.5209 0.85576,-0.34727 1.87276,-0.88057 z"
         style="font-family:'Life BT';-inkscape-font-specification:'Life BT, Normal';fill:#000080;stroke:#ffffff;stroke-width:4;stroke-linecap:round;stroke-linejoin:round;stroke-miterlimit:4;stroke-dasharray:none;paint-order:stroke markers fill"
         id="path4141" />
      <path
         d="m 130.52365,150.8468 h 0.45889 v 16.9168 q 0,1.26503 0.28525,1.52548 0.28526,0.26045 1.38907,0.31006 v 0.44649 q -0.75655,-0.0496 -1.45108,-0.0744 -0.69453,-0.0248 -1.28984,-0.0248 -0.60772,0 -1.30225,0.0248 -0.68213,0.0248 -1.43867,0.0744 v -0.45889 q 1.01699,-0.0124 1.33945,-0.32246 0.33487,-0.31006 0.33487,-1.50068 v -13.86582 q 0,-0.71934 -0.29766,-0.93018 -0.28525,-0.22324 -1.40146,-0.24805 v -0.50849 q 0.81855,-0.22325 1.66191,-0.55811 0.84336,-0.34726 1.71152,-0.80615 z"
         style="font-family:'Life BT';-inkscape-font-specification:'Life BT, Normal';fill:#000080;stroke:#ffffff;stroke-width:4;stroke-linecap:round;stroke-linejoin:round;stroke-miterlimit:4;stroke-dasharray:none;paint-order:stroke markers fill"
         id="path4143" />
      <path
         d="m 141.04084,163.23674 q -2.44326,0.64492 -3.62148,1.51309 -1.17823,0.85576 -1.17823,2.02158 0,0.90537 0.5209,1.38906 0.5209,0.48369 1.48828,0.48369 0.63252,0 1.31465,-0.27285 0.69453,-0.27285 1.47588,-0.84336 z m 2.1332,-1.36426 v 6.39961 q 0,0.32246 0.0868,0.4961 0.0992,0.16123 0.27285,0.16123 0.24805,0 0.4961,-0.12403 0.26045,-0.13642 0.52089,-0.38447 l 0.24805,0.48369 q -0.59531,0.69453 -1.17822,1.0542 -0.58291,0.34727 -1.12861,0.34727 -0.74414,0 -1.10381,-0.4961 -0.34727,-0.50849 -0.34727,-1.53789 v -0.0992 q -1.20303,1.0666 -2.24482,1.61231 -1.0418,0.5457 -1.89756,0.5457 -1.38906,0 -2.22002,-0.79375 -0.83096,-0.79375 -0.83096,-2.1084 0,-1.82314 1.79834,-3.03857 1.81074,-1.21543 5.39502,-1.78594 v -2.23242 q 0,-0.81856 -0.5209,-1.31465 -0.50849,-0.49609 -1.36425,-0.49609 -1.16582,0 -1.76114,0.48369 -0.59531,0.47129 -0.59531,1.40146 0,0.0248 0,0.11162 0.0248,0.35967 0.0248,0.66973 0,0.40928 -0.27285,0.58291 -0.27285,0.16123 -0.99218,0.16123 -0.4837,0 -0.69454,-0.24805 -0.19843,-0.24804 -0.19843,-0.81855 0,-1.36426 1.17822,-2.23242 1.19062,-0.86817 3.11299,-0.86817 2.29443,0 3.24941,0.91778 0.96738,0.90537 0.96738,3.15019 z"
         style="font-family:'Life BT';-inkscape-font-specification:'Life BT, Normal';fill:#000080;stroke:#ffffff;stroke-width:4;stroke-linecap:round;stroke-linejoin:round;stroke-miterlimit:4;stroke-dasharray:none;paint-order:stroke markers fill"
         id="path4145" />
      <path
         d="m 149.08996,154.24504 h 0.48369 v 3.89434 h 2.97657 v 0.90537 h -2.97657 v 7.77627 q 0,1.0914 0.29766,1.56269 0.29766,0.47129 0.97978,0.47129 0.32246,0 0.70694,-0.17363 0.38447,-0.18604 0.83095,-0.57051 l 0.33487,0.45889 q -0.78135,0.89297 -1.5627,1.33945 -0.78135,0.44649 -1.5875,0.44649 -1.20302,0 -1.67431,-0.69454 -0.45889,-0.70693 -0.45889,-3.12539 v -7.49101 h -1.5751 v -0.58291 q 1.24024,-0.44649 2.07119,-1.52549 0.84336,-1.09141 1.15342,-2.69131 z"
         style="font-family:'Life BT';-inkscape-font-specification:'Life BT, Normal';fill:#000080;stroke:#ffffff;stroke-width:4;stroke-linecap:round;stroke-linejoin:round;stroke-miterlimit:4;stroke-dasharray:none;paint-order:stroke markers fill"
         id="path4147" />
      <path
         d="m 157.32512,157.80451 h 0.45889 v 9.95909 q 0,1.26503 0.28525,1.52548 0.28525,0.26045 1.37666,0.29766 l 0.0124,0.45889 q -0.75654,-0.0496 -1.45107,-0.0744 -0.69453,-0.0248 -1.28985,-0.0248 -0.62011,0 -1.32705,0.0248 -0.69453,0.0248 -1.45107,0.0744 l 0.0124,-0.45889 q 1.0418,-0.0248 1.35186,-0.32246 0.32246,-0.31006 0.32246,-1.50068 v -6.90811 q 0,-0.71934 -0.29766,-0.93018 -0.29765,-0.22324 -1.41387,-0.24804 v -0.47129 q 0.60772,-0.13643 1.38907,-0.45889 0.79375,-0.32246 2.02158,-0.94258 z m -0.66973,-6.10195 q 0.65733,0 1.00459,0.38447 0.34727,0.37207 0.34727,1.0666 0,0.75655 -0.40928,1.20303 -0.39687,0.44649 -1.0666,0.44649 -0.63252,0 -1.01699,-0.40928 -0.37207,-0.40928 -0.37207,-1.11621 0,-0.66973 0.43408,-1.11621 0.43408,-0.45889 1.079,-0.45889 z"
         style="font-family:'Life BT';-inkscape-font-specification:'Life BT, Normal';fill:#000080;stroke:#ffffff;stroke-width:4;stroke-linecap:round;stroke-linejoin:round;stroke-miterlimit:4;stroke-dasharray:none;paint-order:stroke markers fill"
         id="path4149" />
      <path
         d="m 166.55246,158.53625 q -1.5999,0 -2.6417,1.31465 -1.0418,1.30225 -1.0418,3.33623 0,2.48047 1.31465,4.2168 1.32705,1.72392 3.1502,1.72392 1.57509,0 2.44326,-1.19062 0.88057,-1.20303 0.88057,-3.37344 0,-2.61689 -1.17823,-4.31601 -1.17822,-1.71153 -2.92695,-1.71153 z m 0.39687,-0.73174 q 2.48047,0 4.08038,1.74873 1.6123,1.73633 1.6123,4.45245 0,2.84013 -1.67432,4.58886 -1.67431,1.73633 -4.41523,1.73633 -2.54248,0 -4.11758,-1.64951 -1.5751,-1.66191 -1.5751,-4.32842 0,-2.88974 1.69912,-4.71289 1.71153,-1.83555 4.39043,-1.83555 z"
         style="font-family:'Life BT';-inkscape-font-specification:'Life BT, Normal';fill:#000080;stroke:#ffffff;stroke-width:4;stroke-linecap:round;stroke-linejoin:round;stroke-miterlimit:4;stroke-dasharray:none;paint-order:stroke markers fill"
         id="path4151" />
      <path
         d="m 177.3177,157.80451 h 0.5085 v 2.41846 q 1.26504,-1.28984 2.30683,-1.84795 1.0418,-0.57051 2.1084,-0.57051 1.67432,0 2.46807,1.0418 0.79375,1.0294 0.79375,3.19981 v 5.71748 q 0,1.24023 0.28525,1.51308 0.29766,0.27285 1.37666,0.31006 l 0.0124,0.45889 q -0.75654,-0.0496 -1.45107,-0.0744 -0.69453,-0.0248 -1.30225,-0.0248 -0.5705,0 -1.27744,0.0248 -0.69453,0.0248 -1.46347,0.0744 l 0.0124,-0.45889 q 1.01699,-0.0248 1.32705,-0.32246 0.31006,-0.29766 0.31006,-1.50068 v -5.91592 q 0,-1.33946 -0.47129,-1.92237 -0.47129,-0.59531 -1.52549,-0.59531 -0.78135,0 -1.5999,0.38447 -0.81856,0.37207 -1.66192,1.11622 v 6.93291 q 0,1.26503 0.28526,1.52548 0.29765,0.26045 1.38906,0.29766 l 0.0124,0.45889 q -0.75654,-0.0496 -1.46347,-0.0744 -0.69454,-0.0248 -1.31465,-0.0248 -0.59532,0 -1.28985,0.0248 -0.69453,0.0248 -1.45107,0.0744 l 0.0124,-0.45889 q 1.0294,-0.0248 1.33945,-0.32246 0.32247,-0.31006 0.32247,-1.50068 v -6.73448 q 0,-0.85576 -0.26045,-1.12861 -0.24805,-0.27285 -0.97979,-0.27285 -0.0744,0 -0.23564,0.0124 -0.14883,0.0124 -0.24805,0.0124 v -0.5333 q 0.58291,-0.17363 1.25264,-0.44648 0.68213,-0.28526 1.87275,-0.86817 z"
         style="font-family:'Life BT';-inkscape-font-specification:'Life BT, Normal';fill:#000080;stroke:#ffffff;stroke-width:4;stroke-linecap:round;stroke-linejoin:round;stroke-miterlimit:4;stroke-dasharray:none;paint-order:stroke markers fill"
         id="path4153" />
    </g>
    <g
       aria-label="Life Simulation"
       id="g4283"
       style="font-size:25.4px;line-height:1.25;font-family:'Rose Of Baltimore';-inkscape-font-specification:'Rose Of Baltimore';fill:#000080;stroke-width:0.264583">
      <path
         d="m 20.973752,151.78938 q 0.657324,0.062 1.463476,0.0992 0.818555,0.0248 1.934766,0.0248 1.103809,0 1.909961,-0.0248 0.806152,-0.0372 1.488281,-0.0992 v 0.5209 q -1.327051,0.0496 -1.699121,0.31005 -0.359668,0.26045 -0.359668,1.50069 v 0.33486 13.43174 q 0,0.70693 0.322461,0.91777 0.334863,0.19844 1.810742,0.19844 h 0.744141 q 3.261816,0 4.415234,-0.80615 1.153418,-0.81856 1.624707,-3.02617 h 0.533301 l -0.992188,4.89892 q -0.930175,-0.062 -2.455664,-0.0868 -1.525488,-0.0372 -3.509863,-0.0372 -3.708301,0 -5.060156,0.0372 -1.351856,0.0248 -2.17041,0.0868 v -0.5581 q 1.351855,-0.0372 1.711523,-0.32246 0.359668,-0.28526 0.359668,-1.81075 v -12.92324 q 0,-1.53789 -0.37207,-1.82314 -0.359668,-0.28526 -1.711524,-0.32246 z"
         style="font-family:'Life BT';-inkscape-font-specification:'Life BT, Normal';fill:#000080"
         id="path4255" />
      <path
         d="m 39.664083,157.80451 h 0.458887 v 9.95909 q 0,1.26503 0.285254,1.52548 0.285254,0.26045 1.37666,0.29766 l 0.0124,0.45889 q -0.756543,-0.0496 -1.451075,-0.0744 -0.694531,-0.0248 -1.289843,-0.0248 -0.620118,0 -1.327051,0.0248 -0.694531,0.0248 -1.451074,0.0744 l 0.0124,-0.45889 q 1.041797,-0.0248 1.351855,-0.32246 0.322461,-0.31006 0.322461,-1.50068 v -6.90811 q 0,-0.71934 -0.297656,-0.93018 -0.297656,-0.22324 -1.413867,-0.24804 v -0.47129 q 0.607715,-0.13643 1.389062,-0.45889 0.79375,-0.32246 2.021582,-0.94258 z m -0.669726,-6.10195 q 0.657324,0 1.00459,0.38447 0.347265,0.37207 0.347265,1.0666 0,0.75655 -0.409277,1.20303 -0.396875,0.44649 -1.066602,0.44649 -0.632519,0 -1.016992,-0.40928 -0.37207,-0.40928 -0.37207,-1.11621 0,-0.66973 0.434082,-1.11621 0.434082,-0.45889 1.079004,-0.45889 z"
         style="font-family:'Life BT';-inkscape-font-specification:'Life BT, Normal';fill:#000080"
         id="path4257" />
      <path
         d="m 46.931856,155.13801 v 3.00137 h 2.38125 v 0.83095 h -2.38125 v 8.79327 q 0,1.21543 0.384472,1.51308 0.384473,0.29766 1.748731,0.32246 v 0.44649 q -0.84336,-0.0496 -1.612305,-0.0744 -0.756543,-0.0248 -1.413867,-0.0248 -0.644922,0 -1.413867,0.0248 -0.768946,0.0248 -1.612305,0.0744 v -0.45889 q 1.116211,0 1.451074,-0.29766 0.334864,-0.31005 0.334864,-1.52548 v -8.79327 H 42.98791 v -0.83095 h 1.810743 v -0.66973 q 0,-3.39824 1.128613,-5.01055 1.141015,-1.6123 3.54707,-1.6123 1.079004,0 1.624707,0.47129 0.558106,0.47129 0.558106,1.40146 0,0.47129 -0.248047,0.70694 -0.235645,0.23564 -0.719336,0.23564 -0.545703,0 -0.79375,-0.18603 -0.235645,-0.19844 -0.297656,-0.69454 -0.0124,-0.0992 -0.03721,-0.31005 -0.08682,-0.85577 -0.880567,-0.86817 -0.880566,0 -1.314648,0.88057 -0.434082,0.88056 -0.434082,2.6541 z"
         style="font-family:'Life BT';-inkscape-font-specification:'Life BT, Normal';fill:#000080"
         id="path4259" />
      <path
         d="m 61.070529,162.67863 h -8.049121 v 0.33487 q 0,2.40605 1.153418,3.90674 1.16582,1.50068 2.988965,1.50068 1.178222,0 2.108398,-0.63252 0.942578,-0.64492 1.624707,-1.90996 l 0.508496,0.18603 q -0.855761,2.096 -2.195215,3.18741 -1.32705,1.079 -3.063378,1.079 -2.195215,0 -3.534668,-1.63711 -1.339453,-1.63711 -1.339453,-4.34082 0,-2.93935 1.475878,-4.73769 1.475879,-1.81075 3.857129,-1.81075 1.996778,0 3.237012,1.24024 1.252637,1.22783 1.252637,3.1998 0,0.0868 -0.0124,0.22324 -0.0124,0.13643 -0.0124,0.21084 z m -2.207617,-0.73173 q 0,-1.47588 -0.781348,-2.40606 -0.781347,-0.93017 -1.984375,-0.93017 -1.178222,0 -1.971972,0.89296 -0.79375,0.88057 -1.00459,2.44327 z"
         style="font-family:'Life BT';-inkscape-font-specification:'Life BT, Normal';fill:#000080"
         id="path4261" />
      <path
         d="m 81.646017,151.83899 v 4.44004 H 81.18713 q -0.545703,-1.84795 -1.773535,-2.82774 -1.21543,-0.97978 -2.951758,-0.97978 -1.351856,0 -2.22002,0.74414 -0.855761,0.74414 -0.855761,1.89756 0,1.79833 4.055566,3.90673 0.731738,0.38448 1.128613,0.58291 2.517676,1.36426 3.348633,2.49287 0.843359,1.12862 0.843359,2.81534 0,2.34404 -1.637109,3.89433 -1.637109,1.5503 -4.154785,1.5503 -1.141016,0 -2.604492,-0.42168 -1.451074,-0.42168 -1.761133,-0.42168 -0.37207,0 -0.706934,0.17363 -0.32246,0.17363 -0.719335,0.59531 v -6.30039 h 0.508496 q 0.545703,2.45566 1.934765,3.77031 1.389063,1.30225 3.447852,1.30225 1.550293,0 2.567285,-0.91777 1.016992,-0.93018 1.016992,-2.33164 0,-1.12862 -0.63252,-1.89756 -0.620117,-0.76895 -2.778124,-1.88516 -0.334864,-0.17363 -0.942579,-0.49609 -2.691308,-1.42627 -3.112988,-1.76114 -1.029394,-0.81855 -1.513086,-1.71152 -0.471289,-0.89297 -0.471289,-1.99678 0,-2.02158 1.500684,-3.28662 1.500683,-1.26504 3.906738,-1.26504 1.00459,0 2.244824,0.33487 1.240235,0.32246 1.513086,0.32246 0.223242,0 0.508496,-0.0744 0.285254,-0.0744 0.768946,-0.24804 z"
         style="font-family:'Life BT';-inkscape-font-specification:'Life BT, Normal';fill:#000080"
         id="path4263" />
      <path
         d="m 89.087425,157.80451 h 0.458887 v 9.95909 q 0,1.26503 0.285254,1.52548 0.285254,0.26045 1.37666,0.29766 l 0.0124,0.45889 q -0.756543,-0.0496 -1.451074,-0.0744 -0.694531,-0.0248 -1.289844,-0.0248 -0.620117,0 -1.32705,0.0248 -0.694532,0.0248 -1.451075,0.0744 l 0.0124,-0.45889 q 1.041797,-0.0248 1.351855,-0.32246 0.322461,-0.31006 0.322461,-1.50068 v -6.90811 q 0,-0.71934 -0.297656,-0.93018 -0.297656,-0.22324 -1.413867,-0.24804 v -0.47129 q 0.607715,-0.13643 1.389062,-0.45889 0.79375,-0.32246 2.021582,-0.94258 z m -0.669726,-6.10195 q 0.657324,0 1.004589,0.38447 0.347266,0.37207 0.347266,1.0666 0,0.75655 -0.409277,1.20303 -0.396875,0.44649 -1.066602,0.44649 -0.632519,0 -1.016992,-0.40928 -0.37207,-0.40928 -0.37207,-1.11621 0,-0.66973 0.434082,-1.11621 0.434082,-0.45889 1.079004,-0.45889 z"
         style="font-family:'Life BT';-inkscape-font-specification:'Life BT, Normal';fill:#000080"
         id="path4265" />
      <path
         d="m 95.412617,157.80451 h 0.508497 v 2.51768 q 1.575097,-1.47588 2.455664,-1.97197 0.892968,-0.4961 1.761132,-0.4961 1.02939,0 1.79834,0.62012 0.78135,0.60772 1.22783,1.77354 1.19063,-1.26504 2.19522,-1.84795 1.01699,-0.59532 1.97197,-0.59532 1.64951,0 2.44326,1.0418 0.80615,1.0294 0.80615,3.19981 v 5.71748 q 0,1.24023 0.28526,1.51308 0.29765,0.27285 1.38906,0.32246 v 0.44649 q -0.76895,-0.0496 -1.46348,-0.0744 -0.69453,-0.0248 -1.27744,-0.0248 -0.58291,0 -1.27744,0.0248 -0.69453,0.0248 -1.46348,0.0744 v -0.45889 q 1.017,-0.0124 1.33946,-0.32246 0.33486,-0.31006 0.33486,-1.50068 v -5.91592 q 0,-1.32705 -0.48369,-1.92237 -0.48369,-0.59531 -1.55029,-0.59531 -0.69454,0 -1.42627,0.33487 -0.73174,0.33486 -1.72393,1.14101 v 6.95772 q 0,1.24023 0.28525,1.51308 0.29766,0.27285 1.38907,0.32246 v 0.44649 q -0.76895,-0.0496 -1.46348,-0.0744 -0.69453,-0.0248 -1.27744,-0.0248 -0.59531,0 -1.28984,0.0248 -0.68213,0.0248 -1.451079,0.0744 v -0.45889 q 1.016989,-0.0124 1.339449,-0.32246 0.33487,-0.31006 0.33487,-1.50068 v -5.91592 q 0,-1.32705 -0.48369,-1.92237 -0.47129,-0.59531 -1.500687,-0.59531 -0.595313,0 -1.277442,0.32246 -0.669726,0.32246 -1.699121,1.10381 v 7.00733 q 0,1.26503 0.285254,1.52548 0.297657,0.26045 1.389063,0.29766 l 0.0124,0.45889 q -0.756543,-0.0496 -1.463476,-0.0744 -0.694532,-0.0248 -1.314649,-0.0248 -0.595312,0 -1.289844,0.0248 -0.694531,0.0248 -1.451074,0.0744 l 0.0124,-0.45889 q 1.029394,-0.0248 1.339453,-0.32246 0.322461,-0.31006 0.322461,-1.50068 v -6.73448 q 0,-0.85576 -0.26045,-1.12861 -0.248046,-0.27285 -0.979785,-0.27285 -0.07441,0 -0.235644,0.0124 -0.148828,0.0124 -0.248047,0.0124 v -0.5333 q 0.58291,-0.17363 1.252637,-0.44648 0.682128,-0.28526 1.872753,-0.86817 z"
         style="font-family:'Life BT';-inkscape-font-specification:'Life BT, Normal';fill:#000080"
         id="path4267" />
      <path
         d="m 116.64543,157.80451 h 0.35966 v 7.80108 q 0,1.5999 0.60772,2.40605 0.60771,0.79375 1.83555,0.79375 0.75654,0 1.46347,-0.37207 0.70694,-0.37207 1.32705,-1.079 v -5.89111 q 0,-1.24024 -0.32246,-1.48829 -0.31006,-0.26045 -1.30224,-0.26045 v -0.50849 q 0.74414,-0.18604 1.5875,-0.5333 0.85576,-0.34727 1.83554,-0.86817 h 0.35967 v 9.45059 q 0,0.79375 0.28525,1.0542 0.28526,0.26045 1.09141,0.26045 h 0.27285 v 0.50849 q -0.66972,0.17364 -1.38906,0.43409 -0.70693,0.24804 -1.47588,0.58291 h -0.76894 v -1.92237 q -0.88057,1.0666 -1.89756,1.61231 -1.00459,0.5457 -2.1084,0.5457 -1.81074,0 -2.69131,-0.94258 -0.86816,-0.94258 -0.86816,-2.87734 v -5.04775 q 0,-1.22784 -0.32247,-1.48829 -0.32246,-0.26045 -1.32705,-0.26045 v -0.50849 q 0.73174,-0.18604 1.5751,-0.5209 0.85576,-0.34727 1.87276,-0.88057 z"
         style="font-family:'Life BT';-inkscape-font-specification:'Life BT, Normal';fill:#000080"
         id="path4269" />
      <path
         d="m 130.52365,150.8468 h 0.45889 v 16.9168 q 0,1.26503 0.28525,1.52548 0.28526,0.26045 1.38907,0.31006 v 0.44649 q -0.75655,-0.0496 -1.45108,-0.0744 -0.69453,-0.0248 -1.28984,-0.0248 -0.60772,0 -1.30225,0.0248 -0.68213,0.0248 -1.43867,0.0744 v -0.45889 q 1.01699,-0.0124 1.33945,-0.32246 0.33487,-0.31006 0.33487,-1.50068 v -13.86582 q 0,-0.71934 -0.29766,-0.93018 -0.28525,-0.22324 -1.40146,-0.24805 v -0.50849 q 0.81855,-0.22325 1.66191,-0.55811 0.84336,-0.34726 1.71152,-0.80615 z"
         style="font-family:'Life BT';-inkscape-font-specification:'Life BT, Normal';fill:#000080"
         id="path4271" />
      <path
         d="m 141.04084,163.23674 q -2.44326,0.64492 -3.62148,1.51309 -1.17823,0.85576 -1.17823,2.02158 0,0.90537 0.5209,1.38906 0.5209,0.48369 1.48828,0.48369 0.63252,0 1.31465,-0.27285 0.69453,-0.27285 1.47588,-0.84336 z m 2.1332,-1.36426 v 6.39961 q 0,0.32246 0.0868,0.4961 0.0992,0.16123 0.27285,0.16123 0.24805,0 0.4961,-0.12403 0.26045,-0.13642 0.52089,-0.38447 l 0.24805,0.48369 q -0.59531,0.69453 -1.17822,1.0542 -0.58291,0.34727 -1.12861,0.34727 -0.74414,0 -1.10381,-0.4961 -0.34727,-0.50849 -0.34727,-1.53789 v -0.0992 q -1.20303,1.0666 -2.24482,1.61231 -1.0418,0.5457 -1.89756,0.5457 -1.38906,0 -2.22002,-0.79375 -0.83096,-0.79375 -0.83096,-2.1084 0,-1.82314 1.79834,-3.03857 1.81074,-1.21543 5.39502,-1.78594 v -2.23242 q 0,-0.81856 -0.5209,-1.31465 -0.50849,-0.49609 -1.36425,-0.49609 -1.16582,0 -1.76114,0.48369 -0.59531,0.47129 -0.59531,1.40146 0,0.0248 0,0.11162 0.0248,0.35967 0.0248,0.66973 0,0.40928 -0.27285,0.58291 -0.27285,0.16123 -0.99218,0.16123 -0.4837,0 -0.69454,-0.24805 -0.19843,-0.24804 -0.19843,-0.81855 0,-1.36426 1.17822,-2.23242 1.19062,-0.86817 3.11299,-0.86817 2.29443,0 3.24941,0.91778 0.96738,0.90537 0.96738,3.15019 z"
         style="font-family:'Life BT';-inkscape-font-specification:'Life BT, Normal';fill:#000080"
         id="path4273" />
      <path
         d="m 149.08996,154.24504 h 0.48369 v 3.89434 h 2.97657 v 0.90537 h -2.97657 v 7.77627 q 0,1.0914 0.29766,1.56269 0.29766,0.47129 0.97978,0.47129 0.32246,0 0.70694,-0.17363 0.38447,-0.18604 0.83095,-0.57051 l 0.33487,0.45889 q -0.78135,0.89297 -1.5627,1.33945 -0.78135,0.44649 -1.5875,0.44649 -1.20302,0 -1.67431,-0.69454 -0.45889,-0.70693 -0.45889,-3.12539 v -7.49101 h -1.5751 v -0.58291 q 1.24024,-0.44649 2.07119,-1.52549 0.84336,-1.09141 1.15342,-2.69131 z"
         style="font-family:'Life BT';-inkscape-font-specification:'Life BT, Normal';fill:#000080"
         id="path4275" />
      <path
         d="m 157.32512,157.80451 h 0.45889 v 9.95909 q 0,1.26503 0.28525,1.52548 0.28525,0.26045 1.37666,0.29766 l 0.0124,0.45889 q -0.75654,-0.0496 -1.45107,-0.0744 -0.69453,-0.0248 -1.28985,-0.0248 -0.62011,0 -1.32705,0.0248 -0.69453,0.0248 -1.45107,0.0744 l 0.0124,-0.45889 q 1.0418,-0.0248 1.35186,-0.32246 0.32246,-0.31006 0.32246,-1.50068 v -6.90811 q 0,-0.71934 -0.29766,-0.93018 -0.29765,-0.22324 -1.41387,-0.24804 v -0.47129 q 0.60772,-0.13643 1.38907,-0.45889 0.79375,-0.32246 2.02158,-0.94258 z m -0.66973,-6.10195 q 0.65733,0 1.00459,0.38447 0.34727,0.37207 0.34727,1.0666 0,0.75655 -0.40928,1.20303 -0.39687,0.44649 -1.0666,0.44649 -0.63252,0 -1.01699,-0.40928 -0.37207,-0.40928 -0.37207,-1.11621 0,-0.66973 0.43408,-1.11621 0.43408,-0.45889 1.079,-0.45889 z"
         style="font-family:'Life BT';-inkscape-font-specification:'Life BT, Normal';fill:#000080"
         id="path4277" />
      <path
         d="m 166.55246,158.53625 q -1.5999,0 -2.6417,1.31465 -1.0418,1.30225 -1.0418,3.33623 0,2.48047 1.31465,4.2168 1.32705,1.72392 3.1502,1.72392 1.57509,0 2.44326,-1.19062 0.88057,-1.20303 0.88057,-3.37344 0,-2.61689 -1.17823,-4.31601 -1.17822,-1.71153 -2.92695,-1.71153 z m 0.39687,-0.73174 q 2.48047,0 4.08038,1.74873 1.6123,1.73633 1.6123,4.45245 0,2.84013 -1.67432,4.58886 -1.67431,1.73633 -4.41523,1.73633 -2.54248,0 -4.11758,-1.64951 -1.5751,-1.66191 -1.5751,-4.32842 0,-2.88974 1.69912,-4.71289 1.71153,-1.83555 4.39043,-1.83555 z"
         style="font-family:'Life BT';-inkscape-font-specification:'Life BT, Normal';fill:#000080"
         id="path4279" />
      <path
         d="m 177.3177,157.80451 h 0.5085 v 2.41846 q 1.26504,-1.28984 2.30683,-1.84795 1.0418,-0.57051 2.1084,-0.57051 1.67432,0 2.46807,1.0418 0.79375,1.0294 0.79375,3.19981 v 5.71748 q 0,1.24023 0.28525,1.51308 0.29766,0.27285 1.37666,0.31006 l 0.0124,0.45889 q -0.75654,-0.0496 -1.45107,-0.0744 -0.69453,-0.0248 -1.30225,-0.0248 -0.5705,0 -1.27744,0.0248 -0.69453,0.0248 -1.46347,0.0744 l 0.0124,-0.45889 q 1.01699,-0.0248 1.32705,-0.32246 0.31006,-0.29766 0.31006,-1.50068 v -5.91592 q 0,-1.33946 -0.47129,-1.92237 -0.47129,-0.59531 -1.52549,-0.59531 -0.78135,0 -1.5999,0.38447 -0.81856,0.37207 -1.66192,1.11622 v 6.93291 q 0,1.26503 0.28526,1.52548 0.29765,0.26045 1.38906,0.29766 l 0.0124,0.45889 q -0.75654,-0.0496 -1.46347,-0.0744 -0.69454,-0.0248 -1.31465,-0.0248 -0.59532,0 -1.28985,0.0248 -0.69453,0.0248 -1.45107,0.0744 l 0.0124,-0.45889 q 1.0294,-0.0248 1.33945,-0.32246 0.32247,-0.31006 0.32247,-1.50068 v -6.73448 q 0,-0.85576 -0.26045,-1.12861 -0.24805,-0.27285 -0.97979,-0.27285 -0.0744,0 -0.23564,0.0124 -0.14883,0.0124 -0.24805,0.0124 v -0.5333 q 0.58291,-0.17363 1.25264,-0.44648 0.68213,-0.28526 1.87275,-0.86817 z"
         style="font-family:'Life BT';-inkscape-font-specification:'Life BT, Normal';fill:#000080"
         id="path4281" />
    </g>
  </g>
</svg>
