<?xml version="1.0" encoding="UTF-8" standalone="no"?>
<!-- Created with Inkscape (http://www.inkscape.org/) -->

<svg
   width="165.13026mm"
   height="35.567909mm"
   viewBox="0 0 165.13026 35.567909"
   version="1.1"
   id="svg5695"
   inkscape:version="1.1 (c68e22c387, 2021-05-23)"
   sodipodi:docname="auto-simulationfishandhunt.svg"
   xmlns:inkscape="http://www.inkscape.org/namespaces/inkscape"
   xmlns:sodipodi="http://sodipodi.sourceforge.net/DTD/sodipodi-0.dtd"
   xmlns="http://www.w3.org/2000/svg"
   xmlns:svg="http://www.w3.org/2000/svg">
  <sodipodi:namedview
     id="namedview5697"
     pagecolor="#ffffff"
     bordercolor="#666666"
     borderopacity="1.0"
     inkscape:pageshadow="2"
     inkscape:pageopacity="0.0"
     inkscape:pagecheckerboard="0"
     inkscape:document-units="mm"
     showgrid="false"
     fit-margin-top="0"
     fit-margin-left="0"
     fit-margin-right="0"
     fit-margin-bottom="0"
     inkscape:zoom="0.94867184"
     inkscape:cx="312.54222"
     inkscape:cy="235.06548"
     inkscape:window-width="1920"
     inkscape:window-height="1138"
     inkscape:window-x="-8"
     inkscape:window-y="-8"
     inkscape:window-maximized="1"
     inkscape:current-layer="layer1" />
  <defs
     id="defs5692" />
  <g
     inkscape:label="Calque 1"
     inkscape:groupmode="layer"
     id="layer1"
     transform="translate(-21.623073,-158.95949)">
    <ellipse
       style="fill:#ffffff;fill-opacity:1;fill-rule:evenodd;stroke:none;stroke-width:4;stroke-linecap:round;stroke-linejoin:round;stroke-miterlimit:4;stroke-dasharray:none;paint-order:stroke markers fill"
       id="path12947"
       cx="29.053566"
       cy="177.59229"
       rx="5.817729"
       ry="8.9731073" />
    <rect
       style="fill:#ffffff;fill-opacity:1;fill-rule:evenodd;stroke:none;stroke-width:4;stroke-linecap:round;stroke-linejoin:round;stroke-miterlimit:4;stroke-dasharray:none;paint-order:stroke markers fill"
       id="rect13095"
       width="9.8605576"
       height="5.5219126"
       x="29.354143"
       y="167.42668" />
    <rect
       style="fill:#ffffff;fill-opacity:1;fill-rule:evenodd;stroke:none;stroke-width:3.62215;stroke-linecap:round;stroke-linejoin:round;stroke-miterlimit:4;stroke-dasharray:none;paint-order:stroke markers fill"
       id="rect13177"
       width="8.0856571"
       height="5.5219126"
       x="93.926102"
       y="177.50862" />
    <ellipse
       style="fill:#ffffff;fill-opacity:1;fill-rule:evenodd;stroke:none;stroke-width:4.82418;stroke-linecap:round;stroke-linejoin:round;stroke-miterlimit:4;stroke-dasharray:none;paint-order:stroke markers fill"
       id="path13201"
       cx="119.96792"
       cy="180.84627"
       rx="4.0428286"
       ry="4.7330675" />
    <g
       aria-label="Fishing &amp; Hunting"
       id="text1542"
       style="font-size:29.8584px;line-height:1.25;font-family:'Rose Of Baltimore';-inkscape-font-specification:'Rose Of Baltimore';fill:#784421;stroke:#ffffff;stroke-width:4;stroke-linecap:round;stroke-linejoin:round;stroke-miterlimit:4;stroke-dasharray:none;paint-order:stroke markers fill">
      <path
         d="m 33.758887,172.10425 c -0.418017,0.17915 -0.74646,0.44788 -0.955468,0.83604 -0.238868,0.41802 -0.209009,0.80618 0.05972,1.22419 0.08958,0.17915 0.358301,0.32845 0.806177,0.38816 0.418018,0.0597 0.925611,0.0896 1.49292,0.0896 l -1.791504,3.46357 c -0.597168,1.10476 -1.194336,2.09009 -1.761645,2.98584 -0.597168,0.89575 -1.164478,1.67207 -1.731788,2.26924 -0.597168,0.59717 -1.164477,1.01519 -1.761645,1.19434 -0.56731,0.17915 -1.045044,0.11943 -1.403345,-0.17915 -0.358301,-0.29859 -0.656885,-0.77632 -0.836035,-1.40335 -0.209009,-0.62703 -0.328443,-1.37349 -0.358301,-2.26924 -0.05972,-0.89575 0,-1.82136 0.119434,-2.80669 0.119433,-0.95547 0.298584,-1.94079 0.597168,-2.92612 0.268725,-0.95547 0.627026,-1.88108 1.045044,-2.71711 0.418017,-0.83604 0.895752,-1.55264 1.433203,-2.14981 0.537451,-0.59717 1.164477,-1.01519 1.881079,-1.25405 -1.015186,-0.11944 -1.910938,0.0597 -2.687256,0.53745 -0.806177,0.47773 -1.49292,1.10476 -2.090088,1.94079 -0.597168,0.83604 -1.045044,1.82137 -1.403345,2.89627 -0.358301,1.0749 -0.597168,2.20952 -0.716601,3.34414 -0.119434,1.13462 -0.08958,2.23938 0.05972,3.31428 0.149292,1.07491 0.447876,2.03037 0.895752,2.80669 0.418018,0.80618 1.015186,1.40335 1.731788,1.82137 0.716601,0.41801 1.612353,0.53745 2.687256,0.3583 0.836035,-0.17915 1.67207,-0.62703 2.448388,-1.34363 0.776319,-0.68675 1.552637,-1.55264 2.299097,-2.56782 0.74646,-1.01519 1.49292,-2.17967 2.209522,-3.46358 l 2.119946,-3.94131 1.074903,-0.11943 c 0,0 0.02986,-0.0299 0.02986,-0.0896 0,-0.0298 -0.05972,-0.0298 -0.119433,-0.0298 -0.119434,0 -0.268726,0 -0.38816,0 -0.149292,0 -0.298584,-0.0299 -0.477734,-0.0299 l 0.418017,-0.80618 c 0.477735,0 0.985328,-0.0299 1.463062,-0.0597 0.477735,-0.0299 0.925611,-0.0597 1.343628,-0.0896 0.418018,0 0.776319,-0.0299 1.074903,-0.0299 0.298584,0 0.507592,-0.0299 0.627026,-0.0597 0.358301,-0.0597 0.537451,-0.17915 0.537451,-0.41802 0,-0.209 -0.119433,-0.44787 -0.298584,-0.68674 -0.209009,-0.23887 -0.447876,-0.44787 -0.74646,-0.62702 -0.298584,-0.17916 -0.537451,-0.26873 -0.716601,-0.26873 -0.238868,0.0299 -0.447876,0.0597 -0.597168,0.0597 l -0.477735,0.0299 c -0.149292,0 -0.298584,0.0299 -0.477734,0.0299 -0.179151,0 -0.418018,0.0299 -0.656885,0.0299 l 1.552637,-2.92612 c 0.507593,-0.95547 1.015185,-1.85122 1.552637,-2.68726 l 1.881079,-0.11943 1.582495,-0.0896 1.194336,-0.0896 c 0.298584,0 0.537451,-0.0299 0.656885,-0.0597 0.447876,-0.0896 0.656885,-0.23887 0.656885,-0.47773 0,-0.23887 -0.149292,-0.47774 -0.38816,-0.7166 -0.238867,-0.23887 -0.567309,-0.44788 -0.92561,-0.62703 -0.388159,-0.17915 -0.716602,-0.26873 -0.955469,-0.26873 -0.268725,0.0597 -0.567309,0.0896 -0.92561,0.0896 -0.358301,0 -0.716602,0.0299 -1.134619,0.0597 0.447876,-0.56731 0.92561,-1.04505 1.403344,-1.46307 0.477735,-0.38816 0.955469,-0.68674 1.49292,-0.92561 -1.074902,-0.26872 -2.060229,-0.14929 -2.98584,0.3583 -0.955468,0.5076 -1.85122,1.25406 -2.746972,2.26924 l -2.776832,0.26873 -2.926123,0.26872 c -0.836035,0.11944 -1.67207,0.20901 -2.478247,0.32845 -0.836035,0.11943 -1.612354,0.23886 -2.358814,0.38816 -0.298584,0.11943 -0.537451,0.23886 -0.74646,0.3583 -0.209009,0.11943 -0.358301,0.26872 -0.477734,0.44787 -0.119434,0.17915 -0.179151,0.38816 -0.179151,0.59717 0,0.23887 0.05972,0.47773 0.238868,0.74646 0.119433,0.20901 0.3583,0.3583 0.776318,0.44788 0.388159,0.11943 0.865894,0.17915 1.403345,0.20901 0.537451,0.0597 1.134619,0.0597 1.761645,0.0597 0.627027,0 1.224195,-0.0299 1.821363,-0.0896 0.567309,-0.0299 1.074902,-0.0597 1.522778,-0.11944 0.447876,-0.0597 0.776319,-0.0896 0.985327,-0.11943 0.02986,0 0.05972,-0.0597 0.05972,-0.11943 0,-0.0597 -0.05972,-0.0597 -0.149292,-0.0597 -0.418017,0 -0.955469,-0.0299 -1.642212,-0.0299 -0.686743,0 -1.373486,-0.0299 -2.030371,-0.0597 -0.686743,0 -1.254053,-0.0298 -1.731787,-0.0896 -0.477735,-0.0299 -0.716602,-0.0896 -0.686743,-0.17915 0,-0.0597 0.238867,-0.14929 0.716601,-0.23887 0.447876,-0.0896 1.045044,-0.17915 1.791504,-0.26872 0.716602,-0.0896 1.552637,-0.17915 2.508106,-0.26873 0.92561,-0.0597 1.881079,-0.14929 2.896265,-0.20901 -0.597168,0.86589 -1.13462,1.79151 -1.672071,2.74697 l -1.612353,2.95599 c -0.537452,0.0597 -1.045044,0.14929 -1.522779,0.209 -0.477734,0.0597 -0.955469,0.1493 -1.403345,0.20901 z m 0.716602,1.9408 c 0,-0.0597 0.119434,-0.0896 0.328442,-0.14929 0.209009,-0.0597 0.477735,-0.0896 0.836036,-0.14929 -0.05972,0.0896 -0.08958,0.17915 -0.119434,0.23886 -0.05972,0.0597 -0.08958,0.14929 -0.119434,0.23887 -0.298584,0 -0.507592,-0.0299 -0.686743,-0.0597 -0.17915,-0.0299 -0.268725,-0.0597 -0.238867,-0.11943 z"
         style="font-family:Hunting;-inkscape-font-specification:'Hunting, Normal';stroke:#ffffff;stroke-width:4;stroke-linecap:round;stroke-linejoin:round;stroke-miterlimit:4;stroke-dasharray:none;paint-order:stroke markers fill"
         id="path12669" />
      <path
         d="m 40.626306,181.65894 c -0.05972,0.29859 -0.02986,0.59717 0.02986,0.89575 0.05972,0.29859 0.17915,0.53745 0.358301,0.77632 0.17915,0.23887 0.388159,0.41802 0.627026,0.56731 0.238867,0.14929 0.537451,0.20901 0.895752,0.20901 0.238867,0 0.477735,-0.14929 0.776319,-0.44788 0.268725,-0.29858 0.567309,-0.65688 0.865893,-1.10476 0.298584,-0.44787 0.627027,-0.95547 0.925611,-1.52277 l 0.836035,-1.61236 c 0.238867,-0.50759 0.477734,-0.98533 0.656885,-1.40334 l 0.388159,-0.89576 c 0,-0.0299 0,-0.0597 -0.05972,-0.0896 -0.05972,-0.0299 -0.119433,0 -0.149292,0.0896 l -0.537451,0.8659 -0.656885,1.10476 -0.686743,1.19434 -0.656885,1.01518 c -0.209009,0.29858 -0.388159,0.53745 -0.507593,0.7166 -0.149292,0.17915 -0.238867,0.26873 -0.268725,0.20901 -0.05972,-0.0299 0,-0.29858 0.17915,-0.83603 0.179151,-0.5076 0.418018,-1.13462 0.716602,-1.85122 0.298584,-0.71661 0.627026,-1.49292 0.985327,-2.2991 0.358301,-0.77632 0.716602,-1.49292 1.074902,-2.09009 0.119434,-0.41802 0.05972,-0.7166 -0.17915,-0.86589 -0.268726,-0.1493 -0.597168,-0.20901 -1.015186,-0.1493 -0.418017,0.0597 -0.806176,0.20901 -1.224194,0.38816 -0.418018,0.17915 -0.686743,0.38816 -0.806177,0.62703 l -0.418018,0.86589 c -0.05972,0.1493 -0.119433,0.26873 -0.149292,0.32845 -0.02986,0.0896 -0.05972,0.17915 -0.08958,0.23886 -0.05972,0.0896 -0.119433,0.26873 -0.238867,0.53745 -0.418018,0.89576 -0.776318,1.70193 -1.045044,2.38868 -0.268726,0.68674 -0.477734,1.40334 -0.627026,2.1498 z m 2.926123,-7.31531 c 0.238867,-0.14929 0.507593,-0.29858 0.806177,-0.41801 0.298584,-0.11944 0.597168,-0.17915 0.895752,-0.20901 0.298584,-0.0299 0.567309,0 0.865893,0.0597 0.268726,0.0597 0.507593,0.20901 0.686744,0.38816 l 0.776318,-1.61235 c 0.119434,-0.41802 0.05972,-0.7166 -0.17915,-0.86589 -0.268726,-0.1493 -0.597168,-0.20901 -1.015186,-0.1493 -0.418018,0.0597 -0.806177,0.20901 -1.224194,0.38816 -0.418018,0.17915 -0.686744,0.38816 -0.806177,0.62703 -0.05972,0.11943 -0.119434,0.23887 -0.179151,0.41802 -0.08957,0.17915 -0.17915,0.32844 -0.238867,0.50759 -0.05972,0.17915 -0.149292,0.3583 -0.209009,0.50759 z"
         style="font-family:Hunting;-inkscape-font-specification:'Hunting, Normal';stroke:#ffffff;stroke-width:4;stroke-linecap:round;stroke-linejoin:round;stroke-miterlimit:4;stroke-dasharray:none;paint-order:stroke markers fill"
         id="path12671" />
      <path
         d="m 49.404664,176.374 c 0.806176,0.17916 1.49292,0.1493 2.060229,-0.0597 0.56731,-0.17915 1.015186,-0.47774 1.343628,-0.8659 0.298584,-0.3583 0.477735,-0.80617 0.537451,-1.28391 0.05972,-0.47773 0,-0.89575 -0.17915,-1.31377 -0.17915,-0.38816 -0.507593,-0.68674 -0.92561,-0.92561 -0.447876,-0.23886 -0.985328,-0.29858 -1.642212,-0.20901 -0.597168,0.11944 -1.13462,0.32845 -1.642212,0.65689 -0.537452,0.3583 -0.955469,0.77632 -1.31377,1.25405 -0.358301,0.50759 -0.627026,1.0749 -0.806177,1.67207 -0.17915,0.59717 -0.17915,1.2242 -0.05972,1.82136 0.05972,0.47774 0.179151,0.92562 0.328443,1.34363 0.149292,0.44788 0.268725,0.89575 0.388159,1.31377 -0.358301,0.17915 -0.686743,0.3583 -0.985327,0.59717 -0.298584,0.23887 -0.627027,0.47773 -0.955469,0.74646 -0.656885,0.59717 -0.955469,1.13462 -0.92561,1.67207 0,0.53745 0.209008,0.95547 0.597168,1.25405 0.3583,0.29859 0.865893,0.44788 1.463061,0.41802 0.597168,0 1.194336,-0.29858 1.791504,-0.83603 0.836035,-0.77632 1.373487,-1.52278 1.552637,-2.23938 0.17915,-0.71661 0.17915,-1.37349 0.05972,-2.03038 0.447876,-0.17915 0.92561,-0.41801 1.403345,-0.7166 0.477734,-0.29858 0.955468,-0.7166 1.49292,-1.31377 0,-0.23886 -0.08958,-0.29858 -0.298584,-0.20901 -0.358301,0.41802 -0.776319,0.74646 -1.254053,0.98533 -0.477735,0.23887 -0.985327,0.47774 -1.522779,0.68675 -0.209008,-0.62703 -0.447876,-1.25406 -0.686743,-1.85123 -0.268725,-0.59716 -0.358301,-1.13461 -0.298584,-1.61235 0,-0.11943 0.05972,-0.29858 0.119434,-0.53745 0.05972,-0.20901 0.17915,-0.41802 0.328442,-0.65689 0.119434,-0.23886 0.298584,-0.44787 0.537451,-0.65688 0.238868,-0.20901 0.537452,-0.38816 0.895752,-0.53745 0.149292,0.29858 0.238868,0.62703 0.238868,0.98533 0,0.3583 -0.08958,0.7166 -0.209009,1.04504 -0.119434,0.3583 -0.328443,0.65688 -0.56731,0.89575 -0.238867,0.26873 -0.537451,0.44788 -0.865893,0.50759 z m -3.493433,5.22522 c 0.567309,-0.53745 1.134619,-0.95546 1.701929,-1.22419 0,0.41802 -0.08958,0.80618 -0.268726,1.16448 -0.238867,0.41802 -0.507593,0.68674 -0.806177,0.86589 -0.298584,0.17915 -0.567309,0.23887 -0.776318,0.23887 -0.238867,0 -0.358301,-0.11943 -0.358301,-0.29859 -0.02986,-0.17915 0.149292,-0.41801 0.507593,-0.74646 z"
         style="font-family:Hunting;-inkscape-font-specification:'Hunting, Normal';stroke:#ffffff;stroke-width:4;stroke-linecap:round;stroke-linejoin:round;stroke-miterlimit:4;stroke-dasharray:none;paint-order:stroke markers fill"
         id="path12673" />
      <path
         d="m 56.809546,181.65894 c -0.05972,0.29859 -0.02986,0.59717 0.02986,0.89575 0.05972,0.29859 0.17915,0.53745 0.3583,0.77632 0.179151,0.23887 0.38816,0.41802 0.627027,0.56731 0.238867,0.14929 0.537451,0.20901 0.895752,0.20901 0.209009,0 0.447876,-0.14929 0.74646,-0.44788 0.298584,-0.29858 0.597168,-0.65688 0.895752,-1.10476 0.298584,-0.44787 0.627026,-0.95547 0.92561,-1.52277 l 0.836035,-1.61236 c 0.238868,-0.50759 0.477735,-0.98533 0.656885,-1.40334 l 0.388159,-0.89576 c 0,-0.0299 0,-0.0597 -0.05972,-0.0896 -0.05972,-0.0299 -0.119434,0 -0.149292,0.0896 l -0.537452,0.8659 -0.656884,1.10476 -0.686744,1.19434 -0.656884,1.01518 c -0.209009,0.29858 -0.38816,0.53745 -0.507593,0.7166 -0.149292,0.17915 -0.238867,0.26873 -0.268726,0.20901 -0.05972,-0.0597 -0.05972,-0.23887 0.05972,-0.56731 0.08958,-0.32844 0.238867,-0.77632 0.477734,-1.31377 0.209009,-0.53745 0.477735,-1.13462 0.776319,-1.82136 l 1.015185,-2.17966 0.447876,-0.95547 0.477735,-0.98533 c 0.149292,-0.29858 0.268725,-0.56731 0.388159,-0.80618 0.08958,-0.23886 0.149292,-0.38816 0.209009,-0.44787 0.119433,-0.47774 0.05972,-0.77632 -0.209009,-0.89575 -0.268726,-0.11944 -0.597168,-0.1493 -1.015186,-0.0896 -0.418017,0.0597 -0.865893,0.20901 -1.283911,0.38816 -0.418017,0.20901 -0.74646,0.38816 -0.92561,0.53745 -0.447876,0.3583 -0.895752,0.86589 -1.373487,1.46306 -0.477734,0.59717 -0.955468,1.25406 -1.403344,1.9408 -0.447876,0.68674 -0.865894,1.37348 -1.283912,2.06023 l -1.074902,1.88108 -0.776318,1.34363 c -0.209009,0.3583 -0.328443,0.50759 -0.358301,0.44787 -0.05972,-0.0597 -0.02986,-0.29858 0.119433,-0.7166 0.119434,-0.41802 0.328443,-0.98533 0.627027,-1.64221 0.268725,-0.65689 0.597168,-1.37349 0.985327,-2.20952 l 1.224194,-2.53797 1.254053,-2.59768 1.134619,-2.32895 0.865894,-1.76165 c 0.238867,-0.47773 0.388159,-0.80618 0.447876,-0.95547 0.119434,-0.41802 0.05972,-0.7166 -0.17915,-0.86589 -0.268726,-0.14929 -0.597168,-0.20901 -1.015186,-0.14929 -0.418018,0.0597 -0.806177,0.209 -1.224194,0.38815 -0.418018,0.17916 -0.686744,0.38816 -0.806177,0.62703 l -2.358814,4.83706 c -0.806177,1.67207 -1.522778,3.25457 -2.179663,4.8072 l -0.985327,2.44839 c -0.298584,0.77632 -0.56731,1.46307 -0.74646,2.09009 -0.05972,0.29859 -0.02986,0.59717 0.02986,0.89575 0.05972,0.29859 0.17915,0.53745 0.358301,0.77632 0.17915,0.23887 0.388159,0.41802 0.627026,0.56731 0.238868,0.14929 0.537452,0.20901 0.895752,0.20901 0.179151,0 0.447876,-0.14929 0.74646,-0.50759 0.298584,-0.3583 0.627027,-0.80618 0.985328,-1.34363 l 1.134619,-1.82136 1.194336,-2.00052 c 0.418017,-0.65688 0.806177,-1.25405 1.224194,-1.82136 0.388159,-0.56731 0.776319,-1.01518 1.134619,-1.34363 l -0.92561,1.9408 c -0.268726,0.59717 -0.507593,1.13462 -0.686743,1.61235 -0.179151,0.5076 -0.358301,0.98533 -0.507593,1.43321 -0.149292,0.47773 -0.268726,0.92561 -0.358301,1.40334 z"
         style="font-family:Hunting;-inkscape-font-specification:'Hunting, Normal';stroke:#ffffff;stroke-width:4;stroke-linecap:round;stroke-linejoin:round;stroke-miterlimit:4;stroke-dasharray:none;paint-order:stroke markers fill"
         id="path12675" />
      <path
         d="m 61.288303,181.65894 c -0.05972,0.29859 -0.02986,0.59717 0.02986,0.89575 0.05972,0.29859 0.17915,0.53745 0.358301,0.77632 0.17915,0.23887 0.388159,0.41802 0.627026,0.56731 0.238867,0.14929 0.537451,0.20901 0.895752,0.20901 0.238867,0 0.477735,-0.14929 0.776319,-0.44788 0.268725,-0.29858 0.567309,-0.65688 0.865893,-1.10476 0.298584,-0.44787 0.627027,-0.95547 0.925611,-1.52277 l 0.836035,-1.61236 c 0.238867,-0.50759 0.477734,-0.98533 0.656885,-1.40334 l 0.388159,-0.89576 c 0,-0.0299 0,-0.0597 -0.05972,-0.0896 -0.05972,-0.0299 -0.119434,0 -0.149292,0.0896 l -0.537451,0.8659 -0.656885,1.10476 -0.686743,1.19434 -0.656885,1.01518 c -0.209009,0.29858 -0.388159,0.53745 -0.507593,0.7166 -0.149292,0.17915 -0.238867,0.26873 -0.268725,0.20901 -0.05972,-0.0299 0,-0.29858 0.17915,-0.83603 0.17915,-0.5076 0.418018,-1.13462 0.716602,-1.85122 0.298584,-0.71661 0.627026,-1.49292 0.985327,-2.2991 0.358301,-0.77632 0.716601,-1.49292 1.074902,-2.09009 0.119434,-0.41802 0.05972,-0.7166 -0.17915,-0.86589 -0.268726,-0.1493 -0.597168,-0.20901 -1.015186,-0.1493 -0.418017,0.0597 -0.806177,0.20901 -1.224194,0.38816 -0.418018,0.17915 -0.686743,0.38816 -0.806177,0.62703 l -0.418018,0.86589 c -0.05972,0.1493 -0.119433,0.26873 -0.149292,0.32845 -0.02986,0.0896 -0.05972,0.17915 -0.08957,0.23886 -0.05972,0.0896 -0.119433,0.26873 -0.238867,0.53745 -0.418018,0.89576 -0.776318,1.70193 -1.045044,2.38868 -0.268726,0.68674 -0.477734,1.40334 -0.627026,2.1498 z m 2.926123,-7.31531 c 0.238867,-0.14929 0.507593,-0.29858 0.806177,-0.41801 0.298584,-0.11944 0.597168,-0.17915 0.895752,-0.20901 0.298584,-0.0299 0.567309,0 0.865893,0.0597 0.268726,0.0597 0.507593,0.20901 0.686743,0.38816 l 0.776319,-1.61235 c 0.119433,-0.41802 0.05972,-0.7166 -0.179151,-0.86589 -0.268725,-0.1493 -0.597168,-0.20901 -1.015185,-0.1493 -0.418018,0.0597 -0.806177,0.20901 -1.224195,0.38816 -0.418017,0.17915 -0.686743,0.38816 -0.806176,0.62703 -0.05972,0.11943 -0.119434,0.23887 -0.179151,0.41802 -0.08958,0.17915 -0.17915,0.32844 -0.238867,0.50759 -0.05972,0.17915 -0.149292,0.3583 -0.209009,0.50759 z"
         style="font-family:Hunting;-inkscape-font-specification:'Hunting, Normal';stroke:#ffffff;stroke-width:4;stroke-linecap:round;stroke-linejoin:round;stroke-miterlimit:4;stroke-dasharray:none;paint-order:stroke markers fill"
         id="path12677" />
      <path
         d="m 69.260484,173.17916 -0.716602,1.4332 c -0.17915,0.3583 -0.298584,0.62703 -0.418018,0.86589 -0.119433,0.23887 -0.209008,0.47774 -0.298584,0.7166 -0.08957,0.23887 -0.209008,0.53746 -0.388159,0.92561 -0.328442,0.74646 -0.627026,1.46307 -0.865893,2.17967 -0.238868,0.7166 -0.507593,1.49292 -0.776319,2.35881 -0.05972,0.29859 -0.02986,0.59717 0.02986,0.89575 0.05972,0.29859 0.17915,0.53745 0.3583,0.77632 0.179151,0.23887 0.38816,0.41802 0.627027,0.56731 0.238867,0.14929 0.537451,0.20901 0.895752,0.20901 0.17915,0 0.388159,-0.11943 0.627026,-0.41802 0.238867,-0.26872 0.507593,-0.62702 0.806177,-1.0749 0.298584,-0.44788 0.597168,-0.95547 0.955469,-1.55264 l 1.015185,-1.76164 1.045045,-1.73179 c 0.3583,-0.53745 0.686743,-1.04504 1.045044,-1.49292 l -0.656885,1.49292 -0.656885,1.52278 c -0.209009,0.50759 -0.388159,0.98533 -0.537451,1.4332 -0.179151,0.44788 -0.298584,0.83604 -0.38816,1.19434 -0.05972,0.29858 -0.02986,0.59717 0.02986,0.89575 0.05972,0.29858 0.17915,0.53745 0.358301,0.77632 0.17915,0.23887 0.388159,0.41802 0.627026,0.56731 0.238867,0.14929 0.537451,0.20901 0.895752,0.20901 0.209009,0 0.447876,-0.14929 0.74646,-0.44788 0.298584,-0.29858 0.597168,-0.65688 0.895752,-1.10476 0.298584,-0.44788 0.627027,-0.95547 0.925611,-1.52278 l 0.836035,-1.61235 c 0.238867,-0.50759 0.477734,-0.98533 0.656885,-1.40335 l 0.388159,-0.89575 c 0,-0.0299 0,-0.0597 -0.05972,-0.0896 -0.05972,-0.0299 -0.119434,0 -0.149292,0.0896 l -0.537451,0.8659 -0.656885,1.10476 -0.686743,1.19433 -0.656885,1.01519 c -0.209009,0.29858 -0.388159,0.53745 -0.507593,0.7166 -0.149292,0.17915 -0.238867,0.26872 -0.268725,0.20901 -0.119434,-0.0597 -0.08958,-0.29859 0.02986,-0.7166 0.119434,-0.41802 0.328442,-0.89576 0.597168,-1.49292 0.238867,-0.56731 0.537451,-1.19434 0.865894,-1.85122 l 0.955468,-1.91094 0.806177,-1.64221 c 0.238867,-0.47774 0.388159,-0.80618 0.477735,-1.01519 0.05972,-0.23887 0.08957,-0.44788 0.02986,-0.62703 -0.05972,-0.14929 -0.17915,-0.26872 -0.358301,-0.32844 -0.17915,-0.0597 -0.358301,-0.0597 -0.597168,-0.0597 -0.238867,0 -0.507593,0.0299 -0.74646,0.0896 -0.328442,0.0299 -0.716601,0.20901 -1.164477,0.53745 l -0.238868,0.17915 c -0.447876,0.38816 -0.895752,0.8659 -1.343628,1.46306 -0.447876,0.59717 -0.895752,1.19434 -1.313769,1.85122 -0.418018,0.65689 -0.836036,1.34363 -1.194336,2.00052 l -0.985328,1.7915 -0.686743,1.25405 c -0.17915,0.32845 -0.298584,0.47774 -0.298584,0.41802 -0.119433,-0.0597 -0.08958,-0.32844 0.05972,-0.74646 0.119434,-0.41802 0.328442,-0.95547 0.597168,-1.55264 0.238867,-0.59716 0.537451,-1.25405 0.895752,-1.97065 l 0.985327,-2.03037 0.836035,-1.70193 c 0.238868,-0.47773 0.38816,-0.83604 0.477735,-1.04504 0.119434,-0.41802 0.05972,-0.71661 -0.17915,-0.8659 -0.268726,-0.14929 -0.597169,-0.20901 -1.015186,-0.14929 -0.418018,0.0597 -0.806177,0.20901 -1.224195,0.38816 -0.418017,0.17915 -0.686743,0.38816 -0.806176,0.62703 z"
         style="font-family:Hunting;-inkscape-font-specification:'Hunting, Normal';stroke:#ffffff;stroke-width:4;stroke-linecap:round;stroke-linejoin:round;stroke-miterlimit:4;stroke-dasharray:none;paint-order:stroke markers fill"
         id="path12679" />
      <path
         d="m 86.011011,176.07542 c 0.119434,-0.41802 0.05972,-0.7166 -0.17915,-0.86589 -0.268726,-0.14929 -0.597168,-0.20901 -1.015186,-0.14929 -0.418017,0.0597 -0.806177,0.209 -1.224194,0.38815 -0.418018,0.17915 -0.686743,0.38816 -0.806177,0.62703 -0.358301,0.74646 -0.656885,1.46306 -0.895752,2.14981 -0.268726,0.7166 -0.56731,1.37348 -0.865894,1.97065 -0.298584,0.59717 -0.686743,1.16448 -1.10476,1.67207 -0.418018,0.50759 -0.985328,0.92561 -1.701929,1.28391 0.05972,-0.3583 0.209009,-0.92561 0.447876,-1.73179 0.238867,-0.77631 0.537451,-1.64221 0.92561,-2.56782 0.358301,-0.92561 0.776319,-1.82136 1.254053,-2.68725 0.447876,-0.8659 0.92561,-1.55264 1.433203,-2.06023 0.268726,-0.29859 0.56731,-0.5076 0.865894,-0.68675 0.298584,-0.17915 0.567309,-0.23886 0.806177,-0.23886 0.238867,0 0.447876,0.14929 0.627026,0.38816 0.149292,0.23886 0.238867,0.65688 0.238867,1.19433 0.358301,-0.74646 0.388159,-1.37349 0.05972,-1.88108 -0.358301,-0.50759 -0.92561,-0.77632 -1.761646,-0.77632 -0.716601,0 -1.343628,0.1493 -1.940796,0.41802 -0.597168,0.29858 -1.164477,0.65689 -1.67207,1.13462 -0.507593,0.47773 -0.955469,0.98533 -1.343628,1.5825 -0.418018,0.59716 -0.74646,1.22419 -1.015186,1.88107 -0.298584,0.62703 -0.507592,1.25406 -0.656884,1.85123 -0.179151,0.59716 -0.268726,1.16447 -0.298584,1.70192 -0.02986,0.11944 -0.02986,0.20901 -0.02986,0.32845 v 0.29858 c 0,0.77632 0.119434,1.37349 0.418018,1.82136 0.268725,0.47774 0.686743,0.65689 1.224194,0.59717 0.388159,-0.0299 0.776319,-0.14929 1.194336,-0.3583 0.388159,-0.20901 0.895752,-0.68674 1.552637,-1.40334 l -2.030371,4.92663 c -0.537451,1.34363 -0.865894,2.41853 -1.045044,3.25457 -0.179151,0.83603 -0.149292,1.46306 0.08957,1.82136 0.238867,0.38816 0.716602,0.56731 1.433203,0.56731 0.298584,0 0.716602,-0.32844 1.224195,-1.04504 0.507592,-0.71661 1.045044,-1.61236 1.642212,-2.68726 0.597168,-1.0749 1.194336,-2.26924 1.791504,-3.55315 l 1.67207,-3.61287 1.283911,-2.98584 c 0.358301,-0.83603 0.56731,-1.34362 0.656885,-1.52278 0,-0.0299 0,-0.0597 -0.05972,-0.0896 -0.05972,-0.0299 -0.119433,0 -0.149292,0.0896 -0.149292,0.23887 -0.418017,0.71661 -0.806176,1.46307 l -1.343629,2.65739 -1.612353,3.13514 -1.552637,3.01569 c -0.477734,0.92561 -0.895752,1.67207 -1.224194,2.23938 -0.328443,0.59717 -0.507593,0.8659 -0.537452,0.80618 -0.08957,-0.0597 0,-0.44787 0.238868,-1.13462 0.238867,-0.68674 0.567309,-1.52278 0.985327,-2.53796 l 1.403345,-3.25457 1.522778,-3.31428 1.224195,-2.68726 c 0.3583,-0.74646 0.567309,-1.22419 0.656884,-1.4332 z"
         style="font-family:Hunting;-inkscape-font-specification:'Hunting, Normal';stroke:#ffffff;stroke-width:4;stroke-linecap:round;stroke-linejoin:round;stroke-miterlimit:4;stroke-dasharray:none;paint-order:stroke markers fill"
         id="path12681" />
      <path
         d="m 99.895089,177.50862 c 0,0.41802 0.08957,0.71661 0.268721,0.95547 0.17915,0.23887 0.41802,0.38816 0.65689,0.47774 0.23887,0.11943 0.47773,0.17915 0.7166,0.17915 0.23887,0.0299 0.38816,0.0299 0.50759,0.0299 -0.17915,0.41801 -0.44787,0.83603 -0.80617,1.25405 -0.3583,0.44787 -0.74646,0.86589 -1.19434,1.22419 -0.447875,0.38816 -0.92561,0.7166 -1.433202,0.95547 -0.537452,0.23887 -1.045044,0.3583 -1.522779,0.3583 -0.597168,0.0299 -1.015186,-0.14929 -1.283911,-0.50759 -0.268726,-0.3583 -0.388159,-0.83604 -0.358301,-1.40334 0,-0.53746 0.149292,-1.13462 0.418018,-1.79151 0.238867,-0.62703 0.627026,-1.22419 1.134619,-1.76164 0.477734,-0.53746 1.074902,-0.98533 1.761646,-1.34363 0.686743,-0.3583 1.46306,-0.5076 2.32895,-0.5076 0,0 0.0299,0.0299 0.0597,0.0299 0.0299,0 0.11944,0 0.29859,0 0.0597,0 0.17915,0 0.29858,-0.0597 0.11943,-0.0299 0.26873,-0.0896 0.38816,-0.17915 0.11943,-0.0896 0.23887,-0.20901 0.3583,-0.3583 0.0896,-0.11944 0.14929,-0.29859 0.14929,-0.53746 0,-0.17915 -0.0597,-0.32844 -0.14929,-0.44787 -0.11943,-0.11944 -0.23887,-0.20901 -0.3583,-0.26873 l -0.41802,-0.20901 c -0.14929,-0.0597 -0.26872,-0.17915 -0.32844,-0.32844 -0.17915,-0.29858 -0.26873,-0.77632 -0.32844,-1.4332 -0.0597,-0.65689 -0.0299,-1.28391 0.0896,-1.9408 0.11944,-0.62702 0.32844,-1.19433 0.62703,-1.67207 0.29858,-0.47773 0.77632,-0.74646 1.37348,-0.74646 0.17915,0 0.32845,0.11943 0.44788,0.29859 0.11943,0.209 0.17915,0.47773 0.23887,0.77631 0.0299,0.29859 0.0299,0.65689 0,1.01519 -0.0299,0.38816 -0.0896,0.74646 -0.14929,1.0749 -0.0896,0.3583 -0.17915,0.65689 -0.29859,0.92561 -0.11943,0.26873 -0.26872,0.44788 -0.38816,0.53745 0.77632,0.23887 1.43321,0.23887 1.97066,0.0299 0.53745,-0.20901 0.92561,-0.53745 1.19433,-0.98533 0.26873,-0.44787 0.41802,-0.95546 0.41802,-1.55263 0,-0.56731 -0.14929,-1.10476 -0.38816,-1.61236 -0.26872,-0.50759 -0.65688,-0.92561 -1.19433,-1.28391 -0.53746,-0.3583 -1.19434,-0.50759 -1.97066,-0.50759 -0.80618,0.0299 -1.52278,0.20901 -2.17966,0.56731 -0.65689,0.3583 -1.194338,0.80618 -1.642214,1.34363 -0.477735,0.56731 -0.836036,1.19433 -1.074903,1.88108 -0.238867,0.7166 -0.358301,1.40334 -0.358301,2.11994 0,0.29859 0,0.62703 0.05972,0.98533 0.05972,0.3583 0.119434,0.68674 0.238867,0.95547 -0.776318,0.17915 -1.49292,0.47773 -2.149805,0.86589 -0.656884,0.41802 -1.254052,0.89576 -1.761645,1.46306 -0.507593,0.56731 -0.895752,1.2242 -1.194336,1.9408 -0.298584,0.7166 -0.447876,1.49292 -0.447876,2.2991 0,1.0749 0.358301,1.91094 1.074902,2.53796 0.716602,0.65689 1.701929,0.95547 2.98584,0.95547 0.716602,0 1.463062,-0.11943 2.179664,-0.41802 0.716601,-0.26872 1.373487,-0.65688 2.000507,-1.13462 0.62703,-0.47773 1.19434,-1.01518 1.70193,-1.64221 0.47774,-0.62702 0.89575,-1.28391 1.19434,-1.97065 0.23886,-0.0299 0.53745,-0.11944 0.89575,-0.29859 0.32844,-0.14929 0.65688,-0.32844 0.95547,-0.56731 0.29858,-0.23886 0.59717,-0.47773 0.83603,-0.77631 0.23887,-0.26873 0.3583,-0.53746 0.38816,-0.80618 0.0299,-0.26873 -0.0597,-0.53745 -0.26872,-0.77632 -0.23887,-0.23887 -0.62703,-0.44788 -1.19434,-0.62703 -0.17915,0.47774 -0.50759,0.92561 -0.95547,1.28391 -0.44787,0.38816 -0.95547,0.68675 -1.49292,0.92562 -0.53745,0.23886 -1.0749,0.3583 -1.61235,0.41801 -0.53745,0.0597 -0.98533,-0.0299 -1.313768,-0.20901 z"
         style="font-family:Hunting;-inkscape-font-specification:'Hunting, Normal';stroke:#ffffff;stroke-width:4;stroke-linecap:round;stroke-linejoin:round;stroke-miterlimit:4;stroke-dasharray:none;paint-order:stroke markers fill"
         id="path12683" />
      <path
         d="m 121.06467,185.86898 c 0.50759,-0.0597 1.0749,-0.32845 1.67207,-0.80618 0.59717,-0.47774 1.22419,-1.13462 1.88108,-1.91094 0.62702,-0.77632 1.28391,-1.67207 1.94079,-2.68725 0.65689,-1.01519 1.34363,-2.09009 2.00052,-3.22471 l 1.7915,0.0597 c 0.59717,0.0298 1.19434,0.0298 1.79151,0 -0.41802,0.80617 -0.74646,1.52277 -1.04505,2.17966 l -0.74646,1.67207 -0.98533,2.32895 c -0.29858,0.77632 -0.56731,1.49292 -0.80617,2.20953 -0.0597,0.29858 -0.0299,0.59716 0.0299,0.89575 0.0597,0.29858 0.17915,0.53745 0.3583,0.77632 0.17915,0.23886 0.38816,0.41801 0.62702,0.56731 0.23887,0.14929 0.53745,0.209 0.89575,0.209 0.20901,0 0.44788,-0.14929 0.74646,-0.44787 0.26873,-0.29859 0.53746,-0.65689 0.80618,-1.10476 0.26873,-0.44788 0.53745,-0.95547 0.80618,-1.52278 l 0.74646,-1.61235 c 0.23887,-0.5076 0.41802,-0.98533 0.59717,-1.40335 0.14929,-0.41802 0.26872,-0.7166 0.3583,-0.89575 0,-0.0299 0,-0.0597 -0.0597,-0.0896 -0.0597,-0.0298 -0.11943,0 -0.14929,0.0896 l -0.53745,0.86589 -0.65689,1.10476 -0.68674,1.19434 -0.65689,1.01518 c -0.209,0.29859 -0.38815,0.53746 -0.50759,0.71661 -0.14929,0.17915 -0.23887,0.26872 -0.26872,0.20901 -0.0597,-0.0597 0,-0.32845 0.209,-0.8659 0.17916,-0.50759 0.47774,-1.19433 0.8659,-2.03037 l 1.34363,-2.89626 1.70193,-3.46358 c 0.80617,-0.17915 1.49292,-0.50759 2.06022,-0.95547 0.56731,-0.44787 0.95547,-1.13462 1.16448,-2.03037 -0.20901,0.26873 -0.50759,0.47774 -0.86589,0.59717 -0.38816,0.14929 -0.83604,0.23887 -1.34363,0.29858 l 2.11995,-4.29961 1.94079,-3.88159 1.46307,-2.86641 c 0.3583,-0.77631 0.59716,-1.22419 0.65688,-1.40334 0.11943,-0.41802 0.0896,-0.7166 -0.11943,-0.86589 -0.23887,-0.1493 -0.5076,-0.20901 -0.8659,-0.1493 -0.3583,0.0597 -0.74646,0.20901 -1.10476,0.38816 -0.3583,0.17915 -0.62702,0.38816 -0.74646,0.62703 -0.11943,0.29858 -0.41802,0.86589 -0.83603,1.70193 l -1.52278,3.07541 -1.9408,3.82188 -1.97065,4.03088 c -0.56731,0 -1.13462,0 -1.70193,0 -0.59717,0 -1.16448,0 -1.73179,0 l 2.06023,-3.94131 1.82136,-3.64272 1.46307,-2.98584 c 0.41801,-0.83604 0.74646,-1.46306 0.98532,-1.88108 0.11944,-0.41802 0.0896,-0.7166 -0.14929,-0.89575 -0.23887,-0.17915 -0.53745,-0.23887 -0.89575,-0.20901 -0.3583,0.0299 -0.74646,0.11943 -1.10476,0.29858 -0.38816,0.17915 -0.65689,0.38816 -0.77632,0.62703 l -3.28442,6.77786 c -1.07491,2.17966 -2.09009,4.18017 -3.07542,6.03139 -0.68674,0.0896 -1.31377,0.20901 -1.91094,0.3583 -0.59717,0.17916 -1.10476,0.38816 -1.52278,0.65689 -0.41801,0.26873 -0.77631,0.59717 -1.01518,1.01519 -0.23887,0.41801 -0.3583,0.89575 -0.3583,1.46306 0.3583,-0.47774 0.86589,-0.80618 1.52278,-1.01519 0.62702,-0.20901 1.34362,-0.3583 2.17966,-0.44787 -1.13462,1.97065 -2.14981,3.61286 -3.10527,4.89677 -0.95547,1.31377 -1.79151,2.09009 -2.50811,2.35882 -0.53745,0.23886 -1.01519,0.20901 -1.37349,-0.0896 -0.38816,-0.29858 -0.68674,-0.74646 -0.92561,-1.37349 -0.23886,-0.62702 -0.38816,-1.37348 -0.44787,-2.26923 -0.0896,-0.89576 -0.0896,-1.82137 0,-2.80669 0.0896,-0.98533 0.23886,-1.97066 0.47773,-2.98584 0.23887,-0.98533 0.53745,-1.91094 0.92561,-2.74698 0.38816,-0.83603 0.83604,-1.55263 1.37349,-2.17966 0.53745,-0.59717 1.13462,-1.01519 1.85122,-1.25405 -1.01519,-0.11944 -1.88108,0.0597 -2.6574,0.50759 -0.77632,0.47773 -1.46306,1.10476 -2.03037,1.91094 -0.56731,0.83603 -1.01519,1.7915 -1.34363,2.8664 -0.32844,1.07491 -0.53745,2.17967 -0.59717,3.31429 -0.0597,1.13462 0,2.20952 0.17915,3.28442 0.17916,1.0749 0.47774,2.03037 0.95547,2.83655 0.47774,0.80618 1.07491,1.4332 1.85122,1.85122 0.74646,0.44788 1.64222,0.59717 2.71712,0.44788 z"
         style="font-family:Hunting;-inkscape-font-specification:'Hunting, Normal';stroke:#ffffff;stroke-width:4;stroke-linecap:round;stroke-linejoin:round;stroke-miterlimit:4;stroke-dasharray:none;paint-order:stroke markers fill"
         id="path12685" />
      <path
         d="m 135.7251,181.77838 c -0.0597,0.29858 -0.0299,0.59716 0.0299,0.89575 0.0597,0.29858 0.17915,0.53745 0.3583,0.77632 0.17915,0.23886 0.38816,0.41801 0.62703,0.56731 0.23886,0.14929 0.53745,0.209 0.89575,0.209 0.17915,0 0.41802,-0.11943 0.65688,-0.3583 0.23887,-0.23886 0.5076,-0.53745 0.77632,-0.92561 0.26873,-0.3583 0.53745,-0.80617 0.83604,-1.28391 0.26872,-0.47773 0.53745,-0.95547 0.77632,-1.4332 -0.17916,0.47773 -0.29859,0.95547 -0.35831,1.4332 -0.0597,0.29859 -0.0298,0.59717 0.0299,0.89575 0.0597,0.29859 0.17915,0.53745 0.3583,0.77632 0.17915,0.23887 0.38816,0.41802 0.62703,0.56731 0.23887,0.14929 0.53745,0.20901 0.89575,0.20901 0.20901,0 0.44788,-0.14929 0.74646,-0.44788 0.26873,-0.29858 0.53745,-0.65688 0.83604,-1.13461 0.29858,-0.44788 0.56731,-0.95547 0.86589,-1.49292 l 0.80618,-1.61236 0.68674,-1.40334 c 0.17915,-0.41802 0.32844,-0.7166 0.44788,-0.89576 0,-0.0299 0,-0.0597 -0.0597,-0.0896 -0.0597,-0.0299 -0.11943,0 -0.14929,0.0896 l -0.95547,1.64222 -1.01519,1.73178 c -0.32844,0.53746 -0.59716,0.95547 -0.83603,1.31377 -0.23887,0.3583 -0.38816,0.47774 -0.44788,0.41802 -0.0597,-0.0597 -0.0597,-0.23887 0.0597,-0.56731 0.0896,-0.32844 0.23887,-0.77632 0.47773,-1.31377 0.20901,-0.53745 0.47774,-1.13462 0.77632,-1.82136 l 1.01519,-2.17966 0.44787,-0.95547 0.47774,-0.98533 c 0.14929,-0.29858 0.26872,-0.56731 0.38816,-0.80618 0.0896,-0.23886 0.14929,-0.38816 0.20901,-0.44787 0.11943,-0.41802 0.0597,-0.7166 -0.17915,-0.8659 -0.26873,-0.14929 -0.59717,-0.20901 -1.01519,-0.14929 -0.41802,0.0597 -0.80618,0.20901 -1.22419,0.38816 -0.41802,0.17915 -0.68675,0.38816 -0.80618,0.62703 l -1.88108,4.00102 v 0.0299 c -0.23887,0.3583 -0.50759,0.80618 -0.86589,1.40335 l -1.04505,1.76164 c -0.3583,0.59717 -0.65688,1.0749 -0.92561,1.49292 -0.29858,0.41802 -0.44787,0.56731 -0.50759,0.50759 -0.11943,-0.0597 -0.0896,-0.29858 0.0299,-0.7166 0.11943,-0.41801 0.32844,-0.89575 0.59717,-1.49292 0.23886,-0.56731 0.53745,-1.19433 0.86589,-1.85122 l 0.95547,-1.91094 0.80617,-1.64221 c 0.23887,-0.47773 0.38816,-0.80617 0.47774,-1.01518 0.11943,-0.41802 0.0597,-0.7166 -0.17915,-0.8659 -0.26873,-0.14929 -0.59717,-0.20901 -1.01519,-0.14929 -0.41801,0.0597 -0.80617,0.20901 -1.22419,0.38816 -0.41802,0.17915 -0.68674,0.38816 -0.80618,0.62703 l -0.68674,1.49292 -0.83604,1.91093 c -0.38816,0.83604 -0.74646,1.70193 -1.0749,2.53797 -0.3583,0.83603 -0.59717,1.55264 -0.74646,2.11995 z"
         style="font-family:Hunting;-inkscape-font-specification:'Hunting, Normal';stroke:#ffffff;stroke-width:4;stroke-linecap:round;stroke-linejoin:round;stroke-miterlimit:4;stroke-dasharray:none;paint-order:stroke markers fill"
         id="path12687" />
      <path
         d="m 148.23574,173.17916 -0.7166,1.4332 c -0.17915,0.3583 -0.29859,0.62703 -0.41802,0.86589 -0.11944,0.23887 -0.20901,0.47774 -0.29859,0.7166 -0.0896,0.23887 -0.209,0.53746 -0.38815,0.92561 -0.32845,0.74646 -0.62703,1.46307 -0.8659,2.17967 -0.23887,0.7166 -0.50759,1.49292 -0.77632,2.35881 -0.0597,0.29859 -0.0299,0.59717 0.0299,0.89575 0.0597,0.29859 0.17915,0.53745 0.3583,0.77632 0.17915,0.23887 0.38816,0.41802 0.62703,0.56731 0.23887,0.14929 0.53745,0.20901 0.89575,0.20901 0.17915,0 0.38816,-0.11943 0.62703,-0.41802 0.23886,-0.26872 0.50759,-0.62702 0.80617,-1.0749 0.29859,-0.44788 0.59717,-0.95547 0.95547,-1.55264 l 1.01519,-1.76164 1.04504,-1.73179 c 0.3583,-0.53745 0.68675,-1.04504 1.04505,-1.49292 l -0.65689,1.49292 -0.65688,1.52278 c -0.20901,0.50759 -0.38816,0.98533 -0.53745,1.4332 -0.17915,0.44788 -0.29859,0.83604 -0.38816,1.19434 -0.0597,0.29858 -0.0299,0.59717 0.0299,0.89575 0.0597,0.29858 0.17916,0.53745 0.35831,0.77632 0.17915,0.23887 0.38815,0.41802 0.62702,0.56731 0.23887,0.14929 0.53745,0.20901 0.89575,0.20901 0.20901,0 0.44788,-0.14929 0.74646,-0.44788 0.29859,-0.29858 0.59717,-0.65688 0.89576,-1.10476 0.29858,-0.44788 0.62702,-0.95547 0.92561,-1.52278 l 0.83603,-1.61235 c 0.23887,-0.50759 0.47774,-0.98533 0.65689,-1.40335 l 0.38816,-0.89575 c 0,-0.0299 0,-0.0597 -0.0597,-0.0896 -0.0597,-0.0299 -0.11943,0 -0.14929,0.0896 l -0.53745,0.8659 -0.65689,1.10476 -0.68674,1.19433 -0.65689,1.01519 c -0.20901,0.29858 -0.38816,0.53745 -0.50759,0.7166 -0.14929,0.17915 -0.23887,0.26872 -0.26873,0.20901 -0.11943,-0.0597 -0.0896,-0.29859 0.0299,-0.7166 0.11944,-0.41802 0.32845,-0.89576 0.59717,-1.49292 0.23887,-0.56731 0.53745,-1.19434 0.86589,-1.85122 l 0.95547,-1.91094 0.80618,-1.64221 c 0.23887,-0.47774 0.38816,-0.80618 0.47773,-1.01519 0.0597,-0.23887 0.0896,-0.44788 0.0299,-0.62703 -0.0597,-0.14929 -0.17915,-0.26872 -0.3583,-0.32844 -0.17915,-0.0597 -0.3583,-0.0597 -0.59717,-0.0597 -0.23886,0 -0.50759,0.0299 -0.74646,0.0896 -0.32844,0.0299 -0.7166,0.20901 -1.16447,0.53745 l -0.23887,0.17915 c -0.44788,0.38816 -0.89575,0.8659 -1.34363,1.46306 -0.44787,0.59717 -0.89575,1.19434 -1.31377,1.85122 -0.41802,0.65689 -0.83603,1.34363 -1.19433,2.00052 l -0.98533,1.7915 -0.68674,1.25405 c -0.17916,0.32845 -0.29859,0.47774 -0.29859,0.41802 -0.11943,-0.0597 -0.0896,-0.32844 0.0597,-0.74646 0.11943,-0.41802 0.32844,-0.95547 0.59717,-1.55264 0.23886,-0.59716 0.53745,-1.25405 0.89575,-1.97065 l 0.98533,-2.03037 0.83603,-1.70193 c 0.23887,-0.47773 0.38816,-0.83604 0.47773,-1.04504 0.11944,-0.41802 0.0597,-0.71661 -0.17915,-0.8659 -0.26872,-0.14929 -0.59716,-0.20901 -1.01518,-0.14929 -0.41802,0.0597 -0.80618,0.20901 -1.2242,0.38816 -0.41801,0.17915 -0.68674,0.38816 -0.80617,0.62703 z"
         style="font-family:Hunting;-inkscape-font-specification:'Hunting, Normal';stroke:#ffffff;stroke-width:4;stroke-linecap:round;stroke-linejoin:round;stroke-miterlimit:4;stroke-dasharray:none;paint-order:stroke markers fill"
         id="path12689" />
      <path
         d="m 166.83748,168.04351 c -0.3583,0.62703 -0.89575,1.01519 -1.58249,1.13462 -0.7166,0.11943 -1.46306,0.14929 -2.2991,0.0597 l 0.83604,-1.76165 c 0.11943,-0.41802 0.0597,-0.7166 -0.17915,-0.86589 -0.26873,-0.14929 -0.59717,-0.20901 -1.01519,-0.14929 -0.41802,0.0597 -0.80618,0.209 -1.22419,0.38815 -0.41802,0.17916 -0.68675,0.38816 -0.80618,0.62703 l -0.65689,1.40335 c -0.62702,-0.0597 -1.22419,-0.11944 -1.7915,-0.11944 -0.59717,0 -1.10476,0.0896 -1.55264,0.23887 -0.44787,0.17915 -0.83603,0.44788 -1.13462,0.83603 -0.29858,0.38816 -0.50759,0.92562 -0.56731,1.61236 0.53746,-0.50759 1.13462,-0.77632 1.85122,-0.80618 0.71661,-0.0299 1.46307,0.0299 2.23938,0.20901 l -1.40334,3.07542 -1.4332,3.19484 -1.16448,2.68726 c -0.38816,0.89575 -0.65689,1.64221 -0.83604,2.17966 -0.0597,0.29859 -0.0298,0.59717 0.0299,0.89576 0.0597,0.29858 0.17915,0.53745 0.3583,0.77631 0.17915,0.23887 0.38816,0.41802 0.62703,0.56731 0.23887,0.1493 0.53745,0.20901 0.89575,0.20901 0.20901,0 0.47774,-0.14929 0.77632,-0.44787 0.29858,-0.29859 0.59717,-0.7166 0.92561,-1.19434 0.29858,-0.47773 0.62703,-0.98533 0.95547,-1.58249 l 0.86589,-1.70193 c 0.26873,-0.53745 0.5076,-1.01519 0.68675,-1.46306 l 0.41801,-0.92562 c 0,-0.0299 0,-0.0597 -0.0597,-0.0896 -0.0597,-0.0299 -0.11944,0 -0.1493,0.0896 -0.23886,0.35831 -0.50759,0.83604 -0.86589,1.46307 l -1.10476,1.85122 c -0.38816,0.62702 -0.7166,1.16447 -1.01519,1.58249 -0.29858,0.41802 -0.44787,0.59717 -0.50759,0.53745 -0.11943,-0.0597 0,-0.47773 0.29859,-1.22419 0.29858,-0.74646 0.68674,-1.67207 1.16447,-2.74697 l 1.64222,-3.46358 1.73178,-3.52329 c 0.59717,0.14929 1.16448,0.23887 1.73179,0.26873 0.53745,0.0299 1.04504,-0.0597 1.49292,-0.29859 0.44788,-0.23887 0.83604,-0.62702 1.13462,-1.16448 0.29858,-0.53745 0.53745,-1.34362 0.68674,-2.35881 z"
         style="font-family:Hunting;-inkscape-font-specification:'Hunting, Normal';stroke:#ffffff;stroke-width:4;stroke-linecap:round;stroke-linejoin:round;stroke-miterlimit:4;stroke-dasharray:none;paint-order:stroke markers fill"
         id="path12691" />
      <path
         d="m 158.77568,181.65894 c -0.0597,0.29859 -0.0298,0.59717 0.0299,0.89575 0.0597,0.29859 0.17915,0.53745 0.3583,0.77632 0.17915,0.23887 0.38816,0.41802 0.62703,0.56731 0.23887,0.14929 0.53745,0.20901 0.89575,0.20901 0.23887,0 0.47774,-0.14929 0.77632,-0.44788 0.26873,-0.29858 0.56731,-0.65688 0.86589,-1.10476 0.29859,-0.44787 0.62703,-0.95547 0.92561,-1.52277 l 0.83604,-1.61236 c 0.23887,-0.50759 0.47773,-0.98533 0.65688,-1.40334 l 0.38816,-0.89576 c 0,-0.0299 0,-0.0597 -0.0597,-0.0896 -0.0597,-0.0299 -0.11944,0 -0.1493,0.0896 l -0.53745,0.8659 -0.65688,1.10476 -0.68675,1.19434 -0.65688,1.01518 c -0.20901,0.29858 -0.38816,0.53745 -0.50759,0.7166 -0.14929,0.17915 -0.23887,0.26873 -0.26873,0.20901 -0.0597,-0.0299 0,-0.29858 0.17915,-0.83603 0.17915,-0.5076 0.41802,-1.13462 0.7166,-1.85122 0.29859,-0.71661 0.62703,-1.49292 0.98533,-2.2991 0.3583,-0.77632 0.7166,-1.49292 1.0749,-2.09009 0.11944,-0.41802 0.0597,-0.7166 -0.17915,-0.86589 -0.26872,-0.1493 -0.59717,-0.20901 -1.01518,-0.1493 -0.41802,0.0597 -0.80618,0.20901 -1.2242,0.38816 -0.41801,0.17915 -0.68674,0.38816 -0.80617,0.62703 l -0.41802,0.86589 c -0.0597,0.1493 -0.11944,0.26873 -0.14929,0.32845 -0.0299,0.0896 -0.0597,0.17915 -0.0896,0.23886 -0.0597,0.0896 -0.11943,0.26873 -0.23887,0.53745 -0.41801,0.89576 -0.77631,1.70193 -1.04504,2.38868 -0.26873,0.68674 -0.47773,1.40334 -0.62703,2.1498 z m 2.92613,-7.31531 c 0.23886,-0.14929 0.50759,-0.29858 0.80617,-0.41801 0.29859,-0.11944 0.59717,-0.17915 0.89576,-0.20901 0.29858,-0.0299 0.56731,0 0.86589,0.0597 0.26872,0.0597 0.50759,0.20901 0.68674,0.38816 l 0.77632,-1.61235 c 0.11943,-0.41802 0.0597,-0.7166 -0.17915,-0.86589 -0.26873,-0.1493 -0.59717,-0.20901 -1.01519,-0.1493 -0.41801,0.0597 -0.80617,0.20901 -1.22419,0.38816 -0.41802,0.17915 -0.68674,0.38816 -0.80618,0.62703 -0.0597,0.11943 -0.11943,0.23887 -0.17915,0.41802 -0.0896,0.17915 -0.17915,0.32844 -0.23886,0.50759 -0.0597,0.17915 -0.1493,0.3583 -0.20901,0.50759 z"
         style="font-family:Hunting;-inkscape-font-specification:'Hunting, Normal';stroke:#ffffff;stroke-width:4;stroke-linecap:round;stroke-linejoin:round;stroke-miterlimit:4;stroke-dasharray:none;paint-order:stroke markers fill"
         id="path12693" />
      <path
         d="m 166.74786,173.17916 -0.7166,1.4332 c -0.17915,0.3583 -0.29858,0.62703 -0.41802,0.86589 -0.11943,0.23887 -0.20901,0.47774 -0.29858,0.7166 -0.0896,0.23887 -0.20901,0.53746 -0.38816,0.92561 -0.32844,0.74646 -0.62703,1.46307 -0.8659,2.17967 -0.23886,0.7166 -0.50759,1.49292 -0.77631,2.35881 -0.0597,0.29859 -0.0299,0.59717 0.0299,0.89575 0.0597,0.29859 0.17916,0.53745 0.35831,0.77632 0.17915,0.23887 0.38815,0.41802 0.62702,0.56731 0.23887,0.14929 0.53745,0.20901 0.89575,0.20901 0.17915,0 0.38816,-0.11943 0.62703,-0.41802 0.23887,-0.26872 0.50759,-0.62702 0.80618,-1.0749 0.29858,-0.44788 0.59717,-0.95547 0.95547,-1.55264 l 1.01518,-1.76164 1.04505,-1.73179 c 0.3583,-0.53745 0.68674,-1.04504 1.04504,-1.49292 l -0.65689,1.49292 -0.65688,1.52278 c -0.20901,0.50759 -0.38816,0.98533 -0.53745,1.4332 -0.17915,0.44788 -0.29859,0.83604 -0.38816,1.19434 -0.0597,0.29858 -0.0299,0.59717 0.0299,0.89575 0.0597,0.29858 0.17915,0.53745 0.3583,0.77632 0.17915,0.23887 0.38816,0.41802 0.62703,0.56731 0.23886,0.14929 0.53745,0.20901 0.89575,0.20901 0.20901,0 0.44787,-0.14929 0.74646,-0.44788 0.29858,-0.29858 0.59717,-0.65688 0.89575,-1.10476 0.29858,-0.44788 0.62703,-0.95547 0.92561,-1.52278 l 0.83603,-1.61235 c 0.23887,-0.50759 0.47774,-0.98533 0.65689,-1.40335 l 0.38816,-0.89575 c 0,-0.0299 0,-0.0597 -0.0597,-0.0896 -0.0597,-0.0299 -0.11943,0 -0.14929,0.0896 l -0.53745,0.8659 -0.65689,1.10476 -0.68674,1.19433 -0.65688,1.01519 c -0.20901,0.29858 -0.38816,0.53745 -0.5076,0.7166 -0.14929,0.17915 -0.23886,0.26872 -0.26872,0.20901 -0.11944,-0.0597 -0.0896,-0.29859 0.0299,-0.7166 0.11943,-0.41802 0.32844,-0.89576 0.59716,-1.49292 0.23887,-0.56731 0.53746,-1.19434 0.8659,-1.85122 l 0.95547,-1.91094 0.80617,-1.64221 c 0.23887,-0.47774 0.38816,-0.80618 0.47774,-1.01519 0.0597,-0.23887 0.0896,-0.44788 0.0299,-0.62703 -0.0597,-0.14929 -0.17915,-0.26872 -0.3583,-0.32844 -0.17916,-0.0597 -0.35831,-0.0597 -0.59717,-0.0597 -0.23887,0 -0.5076,0.0299 -0.74646,0.0896 -0.32845,0.0299 -0.7166,0.20901 -1.16448,0.53745 l -0.23887,0.17915 c -0.44787,0.38816 -0.89575,0.8659 -1.34363,1.46306 -0.44787,0.59717 -0.89575,1.19434 -1.31377,1.85122 -0.41801,0.65689 -0.83603,1.34363 -1.19433,2.00052 l -0.98533,1.7915 -0.68674,1.25405 c -0.17915,0.32845 -0.29859,0.47774 -0.29859,0.41802 -0.11943,-0.0597 -0.0896,-0.32844 0.0597,-0.74646 0.11943,-0.41802 0.32844,-0.95547 0.59717,-1.55264 0.23887,-0.59716 0.53745,-1.25405 0.89575,-1.97065 l 0.98533,-2.03037 0.83603,-1.70193 c 0.23887,-0.47773 0.38816,-0.83604 0.47774,-1.04504 0.11943,-0.41802 0.0597,-0.71661 -0.17915,-0.8659 -0.26873,-0.14929 -0.59717,-0.20901 -1.01519,-0.14929 -0.41802,0.0597 -0.80617,0.20901 -1.22419,0.38816 -0.41802,0.17915 -0.68675,0.38816 -0.80618,0.62703 z"
         style="font-family:Hunting;-inkscape-font-specification:'Hunting, Normal';stroke:#ffffff;stroke-width:4;stroke-linecap:round;stroke-linejoin:round;stroke-miterlimit:4;stroke-dasharray:none;paint-order:stroke markers fill"
         id="path12695" />
      <path
         d="m 183.49839,176.07542 c 0.11944,-0.41802 0.0597,-0.7166 -0.17915,-0.86589 -0.26872,-0.14929 -0.59717,-0.20901 -1.01518,-0.14929 -0.41802,0.0597 -0.80618,0.209 -1.2242,0.38815 -0.41802,0.17915 -0.68674,0.38816 -0.80617,0.62703 -0.35831,0.74646 -0.65689,1.46306 -0.89576,2.14981 -0.26872,0.7166 -0.56731,1.37348 -0.86589,1.97065 -0.29858,0.59717 -0.68674,1.16448 -1.10476,1.67207 -0.41802,0.50759 -0.98533,0.92561 -1.70193,1.28391 0.0597,-0.3583 0.20901,-0.92561 0.44788,-1.73179 0.23886,-0.77631 0.53745,-1.64221 0.92561,-2.56782 0.3583,-0.92561 0.77631,-1.82136 1.25405,-2.68725 0.44788,-0.8659 0.92561,-1.55264 1.4332,-2.06023 0.26873,-0.29859 0.56731,-0.5076 0.8659,-0.68675 0.29858,-0.17915 0.56731,-0.23886 0.80617,-0.23886 0.23887,0 0.44788,0.14929 0.62703,0.38816 0.14929,0.23886 0.23887,0.65688 0.23887,1.19433 0.3583,-0.74646 0.38816,-1.37349 0.0597,-1.88108 -0.3583,-0.50759 -0.92561,-0.77632 -1.76164,-0.77632 -0.7166,0 -1.34363,0.1493 -1.9408,0.41802 -0.59717,0.29858 -1.16448,0.65689 -1.67207,1.13462 -0.50759,0.47773 -0.95547,0.98533 -1.34363,1.5825 -0.41801,0.59716 -0.74646,1.22419 -1.01518,1.88107 -0.29859,0.62703 -0.5076,1.25406 -0.65689,1.85123 -0.17915,0.59716 -0.26872,1.16447 -0.29858,1.70192 -0.0299,0.11944 -0.0299,0.20901 -0.0299,0.32845 v 0.29858 c 0,0.77632 0.11943,1.37349 0.41802,1.82136 0.26872,0.47774 0.68674,0.65689 1.22419,0.59717 0.38816,-0.0299 0.77632,-0.14929 1.19434,-0.3583 0.38816,-0.20901 0.89575,-0.68674 1.55264,-1.40334 l -2.03038,4.92663 c -0.53745,1.34363 -0.86589,2.41853 -1.04504,3.25457 -0.17915,0.83603 -0.14929,1.46306 0.0896,1.82136 0.23887,0.38816 0.71661,0.56731 1.43321,0.56731 0.29858,0 0.7166,-0.32844 1.22419,-1.04504 0.5076,-0.71661 1.04505,-1.61236 1.64221,-2.68726 0.59717,-1.0749 1.19434,-2.26924 1.79151,-3.55315 l 1.67207,-3.61287 1.28391,-2.98584 c 0.3583,-0.83603 0.56731,-1.34362 0.65689,-1.52278 0,-0.0299 0,-0.0597 -0.0597,-0.0896 -0.0597,-0.0299 -0.11944,0 -0.14929,0.0896 -0.1493,0.23887 -0.41802,0.71661 -0.80618,1.46307 l -1.34363,2.65739 -1.61235,3.13514 -1.55264,3.01569 c -0.47773,0.92561 -0.89575,1.67207 -1.22419,2.23938 -0.32845,0.59717 -0.5076,0.8659 -0.53745,0.80618 -0.0896,-0.0597 0,-0.44787 0.23886,-1.13462 0.23887,-0.68674 0.56731,-1.52278 0.98533,-2.53796 l 1.40334,-3.25457 1.52278,-3.31428 1.2242,-2.68726 c 0.3583,-0.74646 0.56731,-1.22419 0.65688,-1.4332 z"
         style="font-family:Hunting;-inkscape-font-specification:'Hunting, Normal';stroke:#ffffff;stroke-width:4;stroke-linecap:round;stroke-linejoin:round;stroke-miterlimit:4;stroke-dasharray:none;paint-order:stroke markers fill"
         id="path12697" />
    </g>
    <g
       aria-label="Fishing &amp; Hunting"
       id="g12829"
       style="font-size:29.8584px;line-height:1.25;font-family:'Rose Of Baltimore';-inkscape-font-specification:'Rose Of Baltimore';fill:#784421;stroke-width:0.311025">
      <path
         d="m 33.758887,172.10425 c -0.418017,0.17915 -0.74646,0.44788 -0.955468,0.83604 -0.238868,0.41802 -0.209009,0.80618 0.05972,1.22419 0.08958,0.17915 0.358301,0.32845 0.806177,0.38816 0.418018,0.0597 0.925611,0.0896 1.49292,0.0896 l -1.791504,3.46357 c -0.597168,1.10476 -1.194336,2.09009 -1.761645,2.98584 -0.597168,0.89575 -1.164478,1.67207 -1.731788,2.26924 -0.597168,0.59717 -1.164477,1.01519 -1.761645,1.19434 -0.56731,0.17915 -1.045044,0.11943 -1.403345,-0.17915 -0.358301,-0.29859 -0.656885,-0.77632 -0.836035,-1.40335 -0.209009,-0.62703 -0.328443,-1.37349 -0.358301,-2.26924 -0.05972,-0.89575 0,-1.82136 0.119434,-2.80669 0.119433,-0.95547 0.298584,-1.94079 0.597168,-2.92612 0.268725,-0.95547 0.627026,-1.88108 1.045044,-2.71711 0.418017,-0.83604 0.895752,-1.55264 1.433203,-2.14981 0.537451,-0.59717 1.164477,-1.01519 1.881079,-1.25405 -1.015186,-0.11944 -1.910938,0.0597 -2.687256,0.53745 -0.806177,0.47773 -1.49292,1.10476 -2.090088,1.94079 -0.597168,0.83604 -1.045044,1.82137 -1.403345,2.89627 -0.358301,1.0749 -0.597168,2.20952 -0.716601,3.34414 -0.119434,1.13462 -0.08958,2.23938 0.05972,3.31428 0.149292,1.07491 0.447876,2.03037 0.895752,2.80669 0.418018,0.80618 1.015186,1.40335 1.731788,1.82137 0.716601,0.41801 1.612353,0.53745 2.687256,0.3583 0.836035,-0.17915 1.67207,-0.62703 2.448388,-1.34363 0.776319,-0.68675 1.552637,-1.55264 2.299097,-2.56782 0.74646,-1.01519 1.49292,-2.17967 2.209522,-3.46358 l 2.119946,-3.94131 1.074903,-0.11943 c 0,0 0.02986,-0.0299 0.02986,-0.0896 0,-0.0298 -0.05972,-0.0298 -0.119433,-0.0298 -0.119434,0 -0.268726,0 -0.38816,0 -0.149292,0 -0.298584,-0.0299 -0.477734,-0.0299 l 0.418017,-0.80618 c 0.477735,0 0.985328,-0.0299 1.463062,-0.0597 0.477735,-0.0299 0.925611,-0.0597 1.343628,-0.0896 0.418018,0 0.776319,-0.0299 1.074903,-0.0299 0.298584,0 0.507592,-0.0299 0.627026,-0.0597 0.358301,-0.0597 0.537451,-0.17915 0.537451,-0.41802 0,-0.209 -0.119433,-0.44787 -0.298584,-0.68674 -0.209009,-0.23887 -0.447876,-0.44787 -0.74646,-0.62702 -0.298584,-0.17916 -0.537451,-0.26873 -0.716601,-0.26873 -0.238868,0.0299 -0.447876,0.0597 -0.597168,0.0597 l -0.477735,0.0299 c -0.149292,0 -0.298584,0.0299 -0.477734,0.0299 -0.179151,0 -0.418018,0.0299 -0.656885,0.0299 l 1.552637,-2.92612 c 0.507593,-0.95547 1.015185,-1.85122 1.552637,-2.68726 l 1.881079,-0.11943 1.582495,-0.0896 1.194336,-0.0896 c 0.298584,0 0.537451,-0.0299 0.656885,-0.0597 0.447876,-0.0896 0.656885,-0.23887 0.656885,-0.47773 0,-0.23887 -0.149292,-0.47774 -0.38816,-0.7166 -0.238867,-0.23887 -0.567309,-0.44788 -0.92561,-0.62703 -0.388159,-0.17915 -0.716602,-0.26873 -0.955469,-0.26873 -0.268725,0.0597 -0.567309,0.0896 -0.92561,0.0896 -0.358301,0 -0.716602,0.0299 -1.134619,0.0597 0.447876,-0.56731 0.92561,-1.04505 1.403344,-1.46307 0.477735,-0.38816 0.955469,-0.68674 1.49292,-0.92561 -1.074902,-0.26872 -2.060229,-0.14929 -2.98584,0.3583 -0.955468,0.5076 -1.85122,1.25406 -2.746972,2.26924 l -2.776832,0.26873 -2.926123,0.26872 c -0.836035,0.11944 -1.67207,0.20901 -2.478247,0.32845 -0.836035,0.11943 -1.612354,0.23886 -2.358814,0.38816 -0.298584,0.11943 -0.537451,0.23886 -0.74646,0.3583 -0.209009,0.11943 -0.358301,0.26872 -0.477734,0.44787 -0.119434,0.17915 -0.179151,0.38816 -0.179151,0.59717 0,0.23887 0.05972,0.47773 0.238868,0.74646 0.119433,0.20901 0.3583,0.3583 0.776318,0.44788 0.388159,0.11943 0.865894,0.17915 1.403345,0.20901 0.537451,0.0597 1.134619,0.0597 1.761645,0.0597 0.627027,0 1.224195,-0.0299 1.821363,-0.0896 0.567309,-0.0299 1.074902,-0.0597 1.522778,-0.11944 0.447876,-0.0597 0.776319,-0.0896 0.985327,-0.11943 0.02986,0 0.05972,-0.0597 0.05972,-0.11943 0,-0.0597 -0.05972,-0.0597 -0.149292,-0.0597 -0.418017,0 -0.955469,-0.0299 -1.642212,-0.0299 -0.686743,0 -1.373486,-0.0299 -2.030371,-0.0597 -0.686743,0 -1.254053,-0.0298 -1.731787,-0.0896 -0.477735,-0.0299 -0.716602,-0.0896 -0.686743,-0.17915 0,-0.0597 0.238867,-0.14929 0.716601,-0.23887 0.447876,-0.0896 1.045044,-0.17915 1.791504,-0.26872 0.716602,-0.0896 1.552637,-0.17915 2.508106,-0.26873 0.92561,-0.0597 1.881079,-0.14929 2.896265,-0.20901 -0.597168,0.86589 -1.13462,1.79151 -1.672071,2.74697 l -1.612353,2.95599 c -0.537452,0.0597 -1.045044,0.14929 -1.522779,0.209 -0.477734,0.0597 -0.955469,0.1493 -1.403345,0.20901 z m 0.716602,1.9408 c 0,-0.0597 0.119434,-0.0896 0.328442,-0.14929 0.209009,-0.0597 0.477735,-0.0896 0.836036,-0.14929 -0.05972,0.0896 -0.08958,0.17915 -0.119434,0.23886 -0.05972,0.0597 -0.08958,0.14929 -0.119434,0.23887 -0.298584,0 -0.507592,-0.0299 -0.686743,-0.0597 -0.17915,-0.0299 -0.268725,-0.0597 -0.238867,-0.11943 z"
         style="font-family:Hunting;-inkscape-font-specification:'Hunting, Normal'"
         id="path12799" />
      <path
         d="m 40.626306,181.65894 c -0.05972,0.29859 -0.02986,0.59717 0.02986,0.89575 0.05972,0.29859 0.17915,0.53745 0.358301,0.77632 0.17915,0.23887 0.388159,0.41802 0.627026,0.56731 0.238867,0.14929 0.537451,0.20901 0.895752,0.20901 0.238867,0 0.477735,-0.14929 0.776319,-0.44788 0.268725,-0.29858 0.567309,-0.65688 0.865893,-1.10476 0.298584,-0.44787 0.627027,-0.95547 0.925611,-1.52277 l 0.836035,-1.61236 c 0.238867,-0.50759 0.477734,-0.98533 0.656885,-1.40334 l 0.388159,-0.89576 c 0,-0.0299 0,-0.0597 -0.05972,-0.0896 -0.05972,-0.0299 -0.119433,0 -0.149292,0.0896 l -0.537451,0.8659 -0.656885,1.10476 -0.686743,1.19434 -0.656885,1.01518 c -0.209009,0.29858 -0.388159,0.53745 -0.507593,0.7166 -0.149292,0.17915 -0.238867,0.26873 -0.268725,0.20901 -0.05972,-0.0299 0,-0.29858 0.17915,-0.83603 0.179151,-0.5076 0.418018,-1.13462 0.716602,-1.85122 0.298584,-0.71661 0.627026,-1.49292 0.985327,-2.2991 0.358301,-0.77632 0.716602,-1.49292 1.074902,-2.09009 0.119434,-0.41802 0.05972,-0.7166 -0.17915,-0.86589 -0.268726,-0.1493 -0.597168,-0.20901 -1.015186,-0.1493 -0.418017,0.0597 -0.806176,0.20901 -1.224194,0.38816 -0.418018,0.17915 -0.686743,0.38816 -0.806177,0.62703 l -0.418018,0.86589 c -0.05972,0.1493 -0.119433,0.26873 -0.149292,0.32845 -0.02986,0.0896 -0.05972,0.17915 -0.08958,0.23886 -0.05972,0.0896 -0.119433,0.26873 -0.238867,0.53745 -0.418018,0.89576 -0.776318,1.70193 -1.045044,2.38868 -0.268726,0.68674 -0.477734,1.40334 -0.627026,2.1498 z m 2.926123,-7.31531 c 0.238867,-0.14929 0.507593,-0.29858 0.806177,-0.41801 0.298584,-0.11944 0.597168,-0.17915 0.895752,-0.20901 0.298584,-0.0299 0.567309,0 0.865893,0.0597 0.268726,0.0597 0.507593,0.20901 0.686744,0.38816 l 0.776318,-1.61235 c 0.119434,-0.41802 0.05972,-0.7166 -0.17915,-0.86589 -0.268726,-0.1493 -0.597168,-0.20901 -1.015186,-0.1493 -0.418018,0.0597 -0.806177,0.20901 -1.224194,0.38816 -0.418018,0.17915 -0.686744,0.38816 -0.806177,0.62703 -0.05972,0.11943 -0.119434,0.23887 -0.179151,0.41802 -0.08957,0.17915 -0.17915,0.32844 -0.238867,0.50759 -0.05972,0.17915 -0.149292,0.3583 -0.209009,0.50759 z"
         style="font-family:Hunting;-inkscape-font-specification:'Hunting, Normal'"
         id="path12801" />
      <path
         d="m 49.404664,176.374 c 0.806176,0.17916 1.49292,0.1493 2.060229,-0.0597 0.56731,-0.17915 1.015186,-0.47774 1.343628,-0.8659 0.298584,-0.3583 0.477735,-0.80617 0.537451,-1.28391 0.05972,-0.47773 0,-0.89575 -0.17915,-1.31377 -0.17915,-0.38816 -0.507593,-0.68674 -0.92561,-0.92561 -0.447876,-0.23886 -0.985328,-0.29858 -1.642212,-0.20901 -0.597168,0.11944 -1.13462,0.32845 -1.642212,0.65689 -0.537452,0.3583 -0.955469,0.77632 -1.31377,1.25405 -0.358301,0.50759 -0.627026,1.0749 -0.806177,1.67207 -0.17915,0.59717 -0.17915,1.2242 -0.05972,1.82136 0.05972,0.47774 0.179151,0.92562 0.328443,1.34363 0.149292,0.44788 0.268725,0.89575 0.388159,1.31377 -0.358301,0.17915 -0.686743,0.3583 -0.985327,0.59717 -0.298584,0.23887 -0.627027,0.47773 -0.955469,0.74646 -0.656885,0.59717 -0.955469,1.13462 -0.92561,1.67207 0,0.53745 0.209008,0.95547 0.597168,1.25405 0.3583,0.29859 0.865893,0.44788 1.463061,0.41802 0.597168,0 1.194336,-0.29858 1.791504,-0.83603 0.836035,-0.77632 1.373487,-1.52278 1.552637,-2.23938 0.17915,-0.71661 0.17915,-1.37349 0.05972,-2.03038 0.447876,-0.17915 0.92561,-0.41801 1.403345,-0.7166 0.477734,-0.29858 0.955468,-0.7166 1.49292,-1.31377 0,-0.23886 -0.08958,-0.29858 -0.298584,-0.20901 -0.358301,0.41802 -0.776319,0.74646 -1.254053,0.98533 -0.477735,0.23887 -0.985327,0.47774 -1.522779,0.68675 -0.209008,-0.62703 -0.447876,-1.25406 -0.686743,-1.85123 -0.268725,-0.59716 -0.358301,-1.13461 -0.298584,-1.61235 0,-0.11943 0.05972,-0.29858 0.119434,-0.53745 0.05972,-0.20901 0.17915,-0.41802 0.328442,-0.65689 0.119434,-0.23886 0.298584,-0.44787 0.537451,-0.65688 0.238868,-0.20901 0.537452,-0.38816 0.895752,-0.53745 0.149292,0.29858 0.238868,0.62703 0.238868,0.98533 0,0.3583 -0.08958,0.7166 -0.209009,1.04504 -0.119434,0.3583 -0.328443,0.65688 -0.56731,0.89575 -0.238867,0.26873 -0.537451,0.44788 -0.865893,0.50759 z m -3.493433,5.22522 c 0.567309,-0.53745 1.134619,-0.95546 1.701929,-1.22419 0,0.41802 -0.08958,0.80618 -0.268726,1.16448 -0.238867,0.41802 -0.507593,0.68674 -0.806177,0.86589 -0.298584,0.17915 -0.567309,0.23887 -0.776318,0.23887 -0.238867,0 -0.358301,-0.11943 -0.358301,-0.29859 -0.02986,-0.17915 0.149292,-0.41801 0.507593,-0.74646 z"
         style="font-family:Hunting;-inkscape-font-specification:'Hunting, Normal'"
         id="path12803" />
      <path
         d="m 56.809546,181.65894 c -0.05972,0.29859 -0.02986,0.59717 0.02986,0.89575 0.05972,0.29859 0.17915,0.53745 0.3583,0.77632 0.179151,0.23887 0.38816,0.41802 0.627027,0.56731 0.238867,0.14929 0.537451,0.20901 0.895752,0.20901 0.209009,0 0.447876,-0.14929 0.74646,-0.44788 0.298584,-0.29858 0.597168,-0.65688 0.895752,-1.10476 0.298584,-0.44787 0.627026,-0.95547 0.92561,-1.52277 l 0.836035,-1.61236 c 0.238868,-0.50759 0.477735,-0.98533 0.656885,-1.40334 l 0.388159,-0.89576 c 0,-0.0299 0,-0.0597 -0.05972,-0.0896 -0.05972,-0.0299 -0.119434,0 -0.149292,0.0896 l -0.537452,0.8659 -0.656884,1.10476 -0.686744,1.19434 -0.656884,1.01518 c -0.209009,0.29858 -0.38816,0.53745 -0.507593,0.7166 -0.149292,0.17915 -0.238867,0.26873 -0.268726,0.20901 -0.05972,-0.0597 -0.05972,-0.23887 0.05972,-0.56731 0.08958,-0.32844 0.238867,-0.77632 0.477734,-1.31377 0.209009,-0.53745 0.477735,-1.13462 0.776319,-1.82136 l 1.015185,-2.17966 0.447876,-0.95547 0.477735,-0.98533 c 0.149292,-0.29858 0.268725,-0.56731 0.388159,-0.80618 0.08958,-0.23886 0.149292,-0.38816 0.209009,-0.44787 0.119433,-0.47774 0.05972,-0.77632 -0.209009,-0.89575 -0.268726,-0.11944 -0.597168,-0.1493 -1.015186,-0.0896 -0.418017,0.0597 -0.865893,0.20901 -1.283911,0.38816 -0.418017,0.20901 -0.74646,0.38816 -0.92561,0.53745 -0.447876,0.3583 -0.895752,0.86589 -1.373487,1.46306 -0.477734,0.59717 -0.955468,1.25406 -1.403344,1.9408 -0.447876,0.68674 -0.865894,1.37348 -1.283912,2.06023 l -1.074902,1.88108 -0.776318,1.34363 c -0.209009,0.3583 -0.328443,0.50759 -0.358301,0.44787 -0.05972,-0.0597 -0.02986,-0.29858 0.119433,-0.7166 0.119434,-0.41802 0.328443,-0.98533 0.627027,-1.64221 0.268725,-0.65689 0.597168,-1.37349 0.985327,-2.20952 l 1.224194,-2.53797 1.254053,-2.59768 1.134619,-2.32895 0.865894,-1.76165 c 0.238867,-0.47773 0.388159,-0.80618 0.447876,-0.95547 0.119434,-0.41802 0.05972,-0.7166 -0.17915,-0.86589 -0.268726,-0.14929 -0.597168,-0.20901 -1.015186,-0.14929 -0.418018,0.0597 -0.806177,0.209 -1.224194,0.38815 -0.418018,0.17916 -0.686744,0.38816 -0.806177,0.62703 l -2.358814,4.83706 c -0.806177,1.67207 -1.522778,3.25457 -2.179663,4.8072 l -0.985327,2.44839 c -0.298584,0.77632 -0.56731,1.46307 -0.74646,2.09009 -0.05972,0.29859 -0.02986,0.59717 0.02986,0.89575 0.05972,0.29859 0.17915,0.53745 0.358301,0.77632 0.17915,0.23887 0.388159,0.41802 0.627026,0.56731 0.238868,0.14929 0.537452,0.20901 0.895752,0.20901 0.179151,0 0.447876,-0.14929 0.74646,-0.50759 0.298584,-0.3583 0.627027,-0.80618 0.985328,-1.34363 l 1.134619,-1.82136 1.194336,-2.00052 c 0.418017,-0.65688 0.806177,-1.25405 1.224194,-1.82136 0.388159,-0.56731 0.776319,-1.01518 1.134619,-1.34363 l -0.92561,1.9408 c -0.268726,0.59717 -0.507593,1.13462 -0.686743,1.61235 -0.179151,0.5076 -0.358301,0.98533 -0.507593,1.43321 -0.149292,0.47773 -0.268726,0.92561 -0.358301,1.40334 z"
         style="font-family:Hunting;-inkscape-font-specification:'Hunting, Normal'"
         id="path12805" />
      <path
         d="m 61.288303,181.65894 c -0.05972,0.29859 -0.02986,0.59717 0.02986,0.89575 0.05972,0.29859 0.17915,0.53745 0.358301,0.77632 0.17915,0.23887 0.388159,0.41802 0.627026,0.56731 0.238867,0.14929 0.537451,0.20901 0.895752,0.20901 0.238867,0 0.477735,-0.14929 0.776319,-0.44788 0.268725,-0.29858 0.567309,-0.65688 0.865893,-1.10476 0.298584,-0.44787 0.627027,-0.95547 0.925611,-1.52277 l 0.836035,-1.61236 c 0.238867,-0.50759 0.477734,-0.98533 0.656885,-1.40334 l 0.388159,-0.89576 c 0,-0.0299 0,-0.0597 -0.05972,-0.0896 -0.05972,-0.0299 -0.119434,0 -0.149292,0.0896 l -0.537451,0.8659 -0.656885,1.10476 -0.686743,1.19434 -0.656885,1.01518 c -0.209009,0.29858 -0.388159,0.53745 -0.507593,0.7166 -0.149292,0.17915 -0.238867,0.26873 -0.268725,0.20901 -0.05972,-0.0299 0,-0.29858 0.17915,-0.83603 0.17915,-0.5076 0.418018,-1.13462 0.716602,-1.85122 0.298584,-0.71661 0.627026,-1.49292 0.985327,-2.2991 0.358301,-0.77632 0.716601,-1.49292 1.074902,-2.09009 0.119434,-0.41802 0.05972,-0.7166 -0.17915,-0.86589 -0.268726,-0.1493 -0.597168,-0.20901 -1.015186,-0.1493 -0.418017,0.0597 -0.806177,0.20901 -1.224194,0.38816 -0.418018,0.17915 -0.686743,0.38816 -0.806177,0.62703 l -0.418018,0.86589 c -0.05972,0.1493 -0.119433,0.26873 -0.149292,0.32845 -0.02986,0.0896 -0.05972,0.17915 -0.08957,0.23886 -0.05972,0.0896 -0.119433,0.26873 -0.238867,0.53745 -0.418018,0.89576 -0.776318,1.70193 -1.045044,2.38868 -0.268726,0.68674 -0.477734,1.40334 -0.627026,2.1498 z m 2.926123,-7.31531 c 0.238867,-0.14929 0.507593,-0.29858 0.806177,-0.41801 0.298584,-0.11944 0.597168,-0.17915 0.895752,-0.20901 0.298584,-0.0299 0.567309,0 0.865893,0.0597 0.268726,0.0597 0.507593,0.20901 0.686743,0.38816 l 0.776319,-1.61235 c 0.119433,-0.41802 0.05972,-0.7166 -0.179151,-0.86589 -0.268725,-0.1493 -0.597168,-0.20901 -1.015185,-0.1493 -0.418018,0.0597 -0.806177,0.20901 -1.224195,0.38816 -0.418017,0.17915 -0.686743,0.38816 -0.806176,0.62703 -0.05972,0.11943 -0.119434,0.23887 -0.179151,0.41802 -0.08958,0.17915 -0.17915,0.32844 -0.238867,0.50759 -0.05972,0.17915 -0.149292,0.3583 -0.209009,0.50759 z"
         style="font-family:Hunting;-inkscape-font-specification:'Hunting, Normal'"
         id="path12807" />
      <path
         d="m 69.260484,173.17916 -0.716602,1.4332 c -0.17915,0.3583 -0.298584,0.62703 -0.418018,0.86589 -0.119433,0.23887 -0.209008,0.47774 -0.298584,0.7166 -0.08957,0.23887 -0.209008,0.53746 -0.388159,0.92561 -0.328442,0.74646 -0.627026,1.46307 -0.865893,2.17967 -0.238868,0.7166 -0.507593,1.49292 -0.776319,2.35881 -0.05972,0.29859 -0.02986,0.59717 0.02986,0.89575 0.05972,0.29859 0.17915,0.53745 0.3583,0.77632 0.179151,0.23887 0.38816,0.41802 0.627027,0.56731 0.238867,0.14929 0.537451,0.20901 0.895752,0.20901 0.17915,0 0.388159,-0.11943 0.627026,-0.41802 0.238867,-0.26872 0.507593,-0.62702 0.806177,-1.0749 0.298584,-0.44788 0.597168,-0.95547 0.955469,-1.55264 l 1.015185,-1.76164 1.045045,-1.73179 c 0.3583,-0.53745 0.686743,-1.04504 1.045044,-1.49292 l -0.656885,1.49292 -0.656885,1.52278 c -0.209009,0.50759 -0.388159,0.98533 -0.537451,1.4332 -0.179151,0.44788 -0.298584,0.83604 -0.38816,1.19434 -0.05972,0.29858 -0.02986,0.59717 0.02986,0.89575 0.05972,0.29858 0.17915,0.53745 0.358301,0.77632 0.17915,0.23887 0.388159,0.41802 0.627026,0.56731 0.238867,0.14929 0.537451,0.20901 0.895752,0.20901 0.209009,0 0.447876,-0.14929 0.74646,-0.44788 0.298584,-0.29858 0.597168,-0.65688 0.895752,-1.10476 0.298584,-0.44788 0.627027,-0.95547 0.925611,-1.52278 l 0.836035,-1.61235 c 0.238867,-0.50759 0.477734,-0.98533 0.656885,-1.40335 l 0.388159,-0.89575 c 0,-0.0299 0,-0.0597 -0.05972,-0.0896 -0.05972,-0.0299 -0.119434,0 -0.149292,0.0896 l -0.537451,0.8659 -0.656885,1.10476 -0.686743,1.19433 -0.656885,1.01519 c -0.209009,0.29858 -0.388159,0.53745 -0.507593,0.7166 -0.149292,0.17915 -0.238867,0.26872 -0.268725,0.20901 -0.119434,-0.0597 -0.08958,-0.29859 0.02986,-0.7166 0.119434,-0.41802 0.328442,-0.89576 0.597168,-1.49292 0.238867,-0.56731 0.537451,-1.19434 0.865894,-1.85122 l 0.955468,-1.91094 0.806177,-1.64221 c 0.238867,-0.47774 0.388159,-0.80618 0.477735,-1.01519 0.05972,-0.23887 0.08957,-0.44788 0.02986,-0.62703 -0.05972,-0.14929 -0.17915,-0.26872 -0.358301,-0.32844 -0.17915,-0.0597 -0.358301,-0.0597 -0.597168,-0.0597 -0.238867,0 -0.507593,0.0299 -0.74646,0.0896 -0.328442,0.0299 -0.716601,0.20901 -1.164477,0.53745 l -0.238868,0.17915 c -0.447876,0.38816 -0.895752,0.8659 -1.343628,1.46306 -0.447876,0.59717 -0.895752,1.19434 -1.313769,1.85122 -0.418018,0.65689 -0.836036,1.34363 -1.194336,2.00052 l -0.985328,1.7915 -0.686743,1.25405 c -0.17915,0.32845 -0.298584,0.47774 -0.298584,0.41802 -0.119433,-0.0597 -0.08958,-0.32844 0.05972,-0.74646 0.119434,-0.41802 0.328442,-0.95547 0.597168,-1.55264 0.238867,-0.59716 0.537451,-1.25405 0.895752,-1.97065 l 0.985327,-2.03037 0.836035,-1.70193 c 0.238868,-0.47773 0.38816,-0.83604 0.477735,-1.04504 0.119434,-0.41802 0.05972,-0.71661 -0.17915,-0.8659 -0.268726,-0.14929 -0.597169,-0.20901 -1.015186,-0.14929 -0.418018,0.0597 -0.806177,0.20901 -1.224195,0.38816 -0.418017,0.17915 -0.686743,0.38816 -0.806176,0.62703 z"
         style="font-family:Hunting;-inkscape-font-specification:'Hunting, Normal'"
         id="path12809" />
      <path
         d="m 86.011011,176.07542 c 0.119434,-0.41802 0.05972,-0.7166 -0.17915,-0.86589 -0.268726,-0.14929 -0.597168,-0.20901 -1.015186,-0.14929 -0.418017,0.0597 -0.806177,0.209 -1.224194,0.38815 -0.418018,0.17915 -0.686743,0.38816 -0.806177,0.62703 -0.358301,0.74646 -0.656885,1.46306 -0.895752,2.14981 -0.268726,0.7166 -0.56731,1.37348 -0.865894,1.97065 -0.298584,0.59717 -0.686743,1.16448 -1.10476,1.67207 -0.418018,0.50759 -0.985328,0.92561 -1.701929,1.28391 0.05972,-0.3583 0.209009,-0.92561 0.447876,-1.73179 0.238867,-0.77631 0.537451,-1.64221 0.92561,-2.56782 0.358301,-0.92561 0.776319,-1.82136 1.254053,-2.68725 0.447876,-0.8659 0.92561,-1.55264 1.433203,-2.06023 0.268726,-0.29859 0.56731,-0.5076 0.865894,-0.68675 0.298584,-0.17915 0.567309,-0.23886 0.806177,-0.23886 0.238867,0 0.447876,0.14929 0.627026,0.38816 0.149292,0.23886 0.238867,0.65688 0.238867,1.19433 0.358301,-0.74646 0.388159,-1.37349 0.05972,-1.88108 -0.358301,-0.50759 -0.92561,-0.77632 -1.761646,-0.77632 -0.716601,0 -1.343628,0.1493 -1.940796,0.41802 -0.597168,0.29858 -1.164477,0.65689 -1.67207,1.13462 -0.507593,0.47773 -0.955469,0.98533 -1.343628,1.5825 -0.418018,0.59716 -0.74646,1.22419 -1.015186,1.88107 -0.298584,0.62703 -0.507592,1.25406 -0.656884,1.85123 -0.179151,0.59716 -0.268726,1.16447 -0.298584,1.70192 -0.02986,0.11944 -0.02986,0.20901 -0.02986,0.32845 v 0.29858 c 0,0.77632 0.119434,1.37349 0.418018,1.82136 0.268725,0.47774 0.686743,0.65689 1.224194,0.59717 0.388159,-0.0299 0.776319,-0.14929 1.194336,-0.3583 0.388159,-0.20901 0.895752,-0.68674 1.552637,-1.40334 l -2.030371,4.92663 c -0.537451,1.34363 -0.865894,2.41853 -1.045044,3.25457 -0.179151,0.83603 -0.149292,1.46306 0.08957,1.82136 0.238867,0.38816 0.716602,0.56731 1.433203,0.56731 0.298584,0 0.716602,-0.32844 1.224195,-1.04504 0.507592,-0.71661 1.045044,-1.61236 1.642212,-2.68726 0.597168,-1.0749 1.194336,-2.26924 1.791504,-3.55315 l 1.67207,-3.61287 1.283911,-2.98584 c 0.358301,-0.83603 0.56731,-1.34362 0.656885,-1.52278 0,-0.0299 0,-0.0597 -0.05972,-0.0896 -0.05972,-0.0299 -0.119433,0 -0.149292,0.0896 -0.149292,0.23887 -0.418017,0.71661 -0.806176,1.46307 l -1.343629,2.65739 -1.612353,3.13514 -1.552637,3.01569 c -0.477734,0.92561 -0.895752,1.67207 -1.224194,2.23938 -0.328443,0.59717 -0.507593,0.8659 -0.537452,0.80618 -0.08957,-0.0597 0,-0.44787 0.238868,-1.13462 0.238867,-0.68674 0.567309,-1.52278 0.985327,-2.53796 l 1.403345,-3.25457 1.522778,-3.31428 1.224195,-2.68726 c 0.3583,-0.74646 0.567309,-1.22419 0.656884,-1.4332 z"
         style="font-family:Hunting;-inkscape-font-specification:'Hunting, Normal'"
         id="path12811" />
      <path
         d="m 99.895089,177.50862 c 0,0.41802 0.08957,0.71661 0.268721,0.95547 0.17915,0.23887 0.41802,0.38816 0.65689,0.47774 0.23887,0.11943 0.47773,0.17915 0.7166,0.17915 0.23887,0.0299 0.38816,0.0299 0.50759,0.0299 -0.17915,0.41801 -0.44787,0.83603 -0.80617,1.25405 -0.3583,0.44787 -0.74646,0.86589 -1.19434,1.22419 -0.447875,0.38816 -0.92561,0.7166 -1.433202,0.95547 -0.537452,0.23887 -1.045044,0.3583 -1.522779,0.3583 -0.597168,0.0299 -1.015186,-0.14929 -1.283911,-0.50759 -0.268726,-0.3583 -0.388159,-0.83604 -0.358301,-1.40334 0,-0.53746 0.149292,-1.13462 0.418018,-1.79151 0.238867,-0.62703 0.627026,-1.22419 1.134619,-1.76164 0.477734,-0.53746 1.074902,-0.98533 1.761646,-1.34363 0.686743,-0.3583 1.46306,-0.5076 2.32895,-0.5076 0,0 0.0299,0.0299 0.0597,0.0299 0.0299,0 0.11944,0 0.29859,0 0.0597,0 0.17915,0 0.29858,-0.0597 0.11943,-0.0299 0.26873,-0.0896 0.38816,-0.17915 0.11943,-0.0896 0.23887,-0.20901 0.3583,-0.3583 0.0896,-0.11944 0.14929,-0.29859 0.14929,-0.53746 0,-0.17915 -0.0597,-0.32844 -0.14929,-0.44787 -0.11943,-0.11944 -0.23887,-0.20901 -0.3583,-0.26873 l -0.41802,-0.20901 c -0.14929,-0.0597 -0.26872,-0.17915 -0.32844,-0.32844 -0.17915,-0.29858 -0.26873,-0.77632 -0.32844,-1.4332 -0.0597,-0.65689 -0.0299,-1.28391 0.0896,-1.9408 0.11944,-0.62702 0.32844,-1.19433 0.62703,-1.67207 0.29858,-0.47773 0.77632,-0.74646 1.37348,-0.74646 0.17915,0 0.32845,0.11943 0.44788,0.29859 0.11943,0.209 0.17915,0.47773 0.23887,0.77631 0.0299,0.29859 0.0299,0.65689 0,1.01519 -0.0299,0.38816 -0.0896,0.74646 -0.14929,1.0749 -0.0896,0.3583 -0.17915,0.65689 -0.29859,0.92561 -0.11943,0.26873 -0.26872,0.44788 -0.38816,0.53745 0.77632,0.23887 1.43321,0.23887 1.97066,0.0299 0.53745,-0.20901 0.92561,-0.53745 1.19433,-0.98533 0.26873,-0.44787 0.41802,-0.95546 0.41802,-1.55263 0,-0.56731 -0.14929,-1.10476 -0.38816,-1.61236 -0.26872,-0.50759 -0.65688,-0.92561 -1.19433,-1.28391 -0.53746,-0.3583 -1.19434,-0.50759 -1.97066,-0.50759 -0.80618,0.0299 -1.52278,0.20901 -2.17966,0.56731 -0.65689,0.3583 -1.194338,0.80618 -1.642214,1.34363 -0.477735,0.56731 -0.836036,1.19433 -1.074903,1.88108 -0.238867,0.7166 -0.358301,1.40334 -0.358301,2.11994 0,0.29859 0,0.62703 0.05972,0.98533 0.05972,0.3583 0.119434,0.68674 0.238867,0.95547 -0.776318,0.17915 -1.49292,0.47773 -2.149805,0.86589 -0.656884,0.41802 -1.254052,0.89576 -1.761645,1.46306 -0.507593,0.56731 -0.895752,1.2242 -1.194336,1.9408 -0.298584,0.7166 -0.447876,1.49292 -0.447876,2.2991 0,1.0749 0.358301,1.91094 1.074902,2.53796 0.716602,0.65689 1.701929,0.95547 2.98584,0.95547 0.716602,0 1.463062,-0.11943 2.179664,-0.41802 0.716601,-0.26872 1.373487,-0.65688 2.000507,-1.13462 0.62703,-0.47773 1.19434,-1.01518 1.70193,-1.64221 0.47774,-0.62702 0.89575,-1.28391 1.19434,-1.97065 0.23886,-0.0299 0.53745,-0.11944 0.89575,-0.29859 0.32844,-0.14929 0.65688,-0.32844 0.95547,-0.56731 0.29858,-0.23886 0.59717,-0.47773 0.83603,-0.77631 0.23887,-0.26873 0.3583,-0.53746 0.38816,-0.80618 0.0299,-0.26873 -0.0597,-0.53745 -0.26872,-0.77632 -0.23887,-0.23887 -0.62703,-0.44788 -1.19434,-0.62703 -0.17915,0.47774 -0.50759,0.92561 -0.95547,1.28391 -0.44787,0.38816 -0.95547,0.68675 -1.49292,0.92562 -0.53745,0.23886 -1.0749,0.3583 -1.61235,0.41801 -0.53745,0.0597 -0.98533,-0.0299 -1.313768,-0.20901 z"
         style="font-family:Hunting;-inkscape-font-specification:'Hunting, Normal'"
         id="path12813" />
      <path
         d="m 121.06467,185.86898 c 0.50759,-0.0597 1.0749,-0.32845 1.67207,-0.80618 0.59717,-0.47774 1.22419,-1.13462 1.88108,-1.91094 0.62702,-0.77632 1.28391,-1.67207 1.94079,-2.68725 0.65689,-1.01519 1.34363,-2.09009 2.00052,-3.22471 l 1.7915,0.0597 c 0.59717,0.0298 1.19434,0.0298 1.79151,0 -0.41802,0.80617 -0.74646,1.52277 -1.04505,2.17966 l -0.74646,1.67207 -0.98533,2.32895 c -0.29858,0.77632 -0.56731,1.49292 -0.80617,2.20953 -0.0597,0.29858 -0.0299,0.59716 0.0299,0.89575 0.0597,0.29858 0.17915,0.53745 0.3583,0.77632 0.17915,0.23886 0.38816,0.41801 0.62702,0.56731 0.23887,0.14929 0.53745,0.209 0.89575,0.209 0.20901,0 0.44788,-0.14929 0.74646,-0.44787 0.26873,-0.29859 0.53746,-0.65689 0.80618,-1.10476 0.26873,-0.44788 0.53745,-0.95547 0.80618,-1.52278 l 0.74646,-1.61235 c 0.23887,-0.5076 0.41802,-0.98533 0.59717,-1.40335 0.14929,-0.41802 0.26872,-0.7166 0.3583,-0.89575 0,-0.0299 0,-0.0597 -0.0597,-0.0896 -0.0597,-0.0298 -0.11943,0 -0.14929,0.0896 l -0.53745,0.86589 -0.65689,1.10476 -0.68674,1.19434 -0.65689,1.01518 c -0.209,0.29859 -0.38815,0.53746 -0.50759,0.71661 -0.14929,0.17915 -0.23887,0.26872 -0.26872,0.20901 -0.0597,-0.0597 0,-0.32845 0.209,-0.8659 0.17916,-0.50759 0.47774,-1.19433 0.8659,-2.03037 l 1.34363,-2.89626 1.70193,-3.46358 c 0.80617,-0.17915 1.49292,-0.50759 2.06022,-0.95547 0.56731,-0.44787 0.95547,-1.13462 1.16448,-2.03037 -0.20901,0.26873 -0.50759,0.47774 -0.86589,0.59717 -0.38816,0.14929 -0.83604,0.23887 -1.34363,0.29858 l 2.11995,-4.29961 1.94079,-3.88159 1.46307,-2.86641 c 0.3583,-0.77631 0.59716,-1.22419 0.65688,-1.40334 0.11943,-0.41802 0.0896,-0.7166 -0.11943,-0.86589 -0.23887,-0.1493 -0.5076,-0.20901 -0.8659,-0.1493 -0.3583,0.0597 -0.74646,0.20901 -1.10476,0.38816 -0.3583,0.17915 -0.62702,0.38816 -0.74646,0.62703 -0.11943,0.29858 -0.41802,0.86589 -0.83603,1.70193 l -1.52278,3.07541 -1.9408,3.82188 -1.97065,4.03088 c -0.56731,0 -1.13462,0 -1.70193,0 -0.59717,0 -1.16448,0 -1.73179,0 l 2.06023,-3.94131 1.82136,-3.64272 1.46307,-2.98584 c 0.41801,-0.83604 0.74646,-1.46306 0.98532,-1.88108 0.11944,-0.41802 0.0896,-0.7166 -0.14929,-0.89575 -0.23887,-0.17915 -0.53745,-0.23887 -0.89575,-0.20901 -0.3583,0.0299 -0.74646,0.11943 -1.10476,0.29858 -0.38816,0.17915 -0.65689,0.38816 -0.77632,0.62703 l -3.28442,6.77786 c -1.07491,2.17966 -2.09009,4.18017 -3.07542,6.03139 -0.68674,0.0896 -1.31377,0.20901 -1.91094,0.3583 -0.59717,0.17916 -1.10476,0.38816 -1.52278,0.65689 -0.41801,0.26873 -0.77631,0.59717 -1.01518,1.01519 -0.23887,0.41801 -0.3583,0.89575 -0.3583,1.46306 0.3583,-0.47774 0.86589,-0.80618 1.52278,-1.01519 0.62702,-0.20901 1.34362,-0.3583 2.17966,-0.44787 -1.13462,1.97065 -2.14981,3.61286 -3.10527,4.89677 -0.95547,1.31377 -1.79151,2.09009 -2.50811,2.35882 -0.53745,0.23886 -1.01519,0.20901 -1.37349,-0.0896 -0.38816,-0.29858 -0.68674,-0.74646 -0.92561,-1.37349 -0.23886,-0.62702 -0.38816,-1.37348 -0.44787,-2.26923 -0.0896,-0.89576 -0.0896,-1.82137 0,-2.80669 0.0896,-0.98533 0.23886,-1.97066 0.47773,-2.98584 0.23887,-0.98533 0.53745,-1.91094 0.92561,-2.74698 0.38816,-0.83603 0.83604,-1.55263 1.37349,-2.17966 0.53745,-0.59717 1.13462,-1.01519 1.85122,-1.25405 -1.01519,-0.11944 -1.88108,0.0597 -2.6574,0.50759 -0.77632,0.47773 -1.46306,1.10476 -2.03037,1.91094 -0.56731,0.83603 -1.01519,1.7915 -1.34363,2.8664 -0.32844,1.07491 -0.53745,2.17967 -0.59717,3.31429 -0.0597,1.13462 0,2.20952 0.17915,3.28442 0.17916,1.0749 0.47774,2.03037 0.95547,2.83655 0.47774,0.80618 1.07491,1.4332 1.85122,1.85122 0.74646,0.44788 1.64222,0.59717 2.71712,0.44788 z"
         style="font-family:Hunting;-inkscape-font-specification:'Hunting, Normal'"
         id="path12815" />
      <path
         d="m 135.7251,181.77838 c -0.0597,0.29858 -0.0299,0.59716 0.0299,0.89575 0.0597,0.29858 0.17915,0.53745 0.3583,0.77632 0.17915,0.23886 0.38816,0.41801 0.62703,0.56731 0.23886,0.14929 0.53745,0.209 0.89575,0.209 0.17915,0 0.41802,-0.11943 0.65688,-0.3583 0.23887,-0.23886 0.5076,-0.53745 0.77632,-0.92561 0.26873,-0.3583 0.53745,-0.80617 0.83604,-1.28391 0.26872,-0.47773 0.53745,-0.95547 0.77632,-1.4332 -0.17916,0.47773 -0.29859,0.95547 -0.35831,1.4332 -0.0597,0.29859 -0.0298,0.59717 0.0299,0.89575 0.0597,0.29859 0.17915,0.53745 0.3583,0.77632 0.17915,0.23887 0.38816,0.41802 0.62703,0.56731 0.23887,0.14929 0.53745,0.20901 0.89575,0.20901 0.20901,0 0.44788,-0.14929 0.74646,-0.44788 0.26873,-0.29858 0.53745,-0.65688 0.83604,-1.13461 0.29858,-0.44788 0.56731,-0.95547 0.86589,-1.49292 l 0.80618,-1.61236 0.68674,-1.40334 c 0.17915,-0.41802 0.32844,-0.7166 0.44788,-0.89576 0,-0.0299 0,-0.0597 -0.0597,-0.0896 -0.0597,-0.0299 -0.11943,0 -0.14929,0.0896 l -0.95547,1.64222 -1.01519,1.73178 c -0.32844,0.53746 -0.59716,0.95547 -0.83603,1.31377 -0.23887,0.3583 -0.38816,0.47774 -0.44788,0.41802 -0.0597,-0.0597 -0.0597,-0.23887 0.0597,-0.56731 0.0896,-0.32844 0.23887,-0.77632 0.47773,-1.31377 0.20901,-0.53745 0.47774,-1.13462 0.77632,-1.82136 l 1.01519,-2.17966 0.44787,-0.95547 0.47774,-0.98533 c 0.14929,-0.29858 0.26872,-0.56731 0.38816,-0.80618 0.0896,-0.23886 0.14929,-0.38816 0.20901,-0.44787 0.11943,-0.41802 0.0597,-0.7166 -0.17915,-0.8659 -0.26873,-0.14929 -0.59717,-0.20901 -1.01519,-0.14929 -0.41802,0.0597 -0.80618,0.20901 -1.22419,0.38816 -0.41802,0.17915 -0.68675,0.38816 -0.80618,0.62703 l -1.88108,4.00102 v 0.0299 c -0.23887,0.3583 -0.50759,0.80618 -0.86589,1.40335 l -1.04505,1.76164 c -0.3583,0.59717 -0.65688,1.0749 -0.92561,1.49292 -0.29858,0.41802 -0.44787,0.56731 -0.50759,0.50759 -0.11943,-0.0597 -0.0896,-0.29858 0.0299,-0.7166 0.11943,-0.41801 0.32844,-0.89575 0.59717,-1.49292 0.23886,-0.56731 0.53745,-1.19433 0.86589,-1.85122 l 0.95547,-1.91094 0.80617,-1.64221 c 0.23887,-0.47773 0.38816,-0.80617 0.47774,-1.01518 0.11943,-0.41802 0.0597,-0.7166 -0.17915,-0.8659 -0.26873,-0.14929 -0.59717,-0.20901 -1.01519,-0.14929 -0.41801,0.0597 -0.80617,0.20901 -1.22419,0.38816 -0.41802,0.17915 -0.68674,0.38816 -0.80618,0.62703 l -0.68674,1.49292 -0.83604,1.91093 c -0.38816,0.83604 -0.74646,1.70193 -1.0749,2.53797 -0.3583,0.83603 -0.59717,1.55264 -0.74646,2.11995 z"
         style="font-family:Hunting;-inkscape-font-specification:'Hunting, Normal'"
         id="path12817" />
      <path
         d="m 148.23574,173.17916 -0.7166,1.4332 c -0.17915,0.3583 -0.29859,0.62703 -0.41802,0.86589 -0.11944,0.23887 -0.20901,0.47774 -0.29859,0.7166 -0.0896,0.23887 -0.209,0.53746 -0.38815,0.92561 -0.32845,0.74646 -0.62703,1.46307 -0.8659,2.17967 -0.23887,0.7166 -0.50759,1.49292 -0.77632,2.35881 -0.0597,0.29859 -0.0299,0.59717 0.0299,0.89575 0.0597,0.29859 0.17915,0.53745 0.3583,0.77632 0.17915,0.23887 0.38816,0.41802 0.62703,0.56731 0.23887,0.14929 0.53745,0.20901 0.89575,0.20901 0.17915,0 0.38816,-0.11943 0.62703,-0.41802 0.23886,-0.26872 0.50759,-0.62702 0.80617,-1.0749 0.29859,-0.44788 0.59717,-0.95547 0.95547,-1.55264 l 1.01519,-1.76164 1.04504,-1.73179 c 0.3583,-0.53745 0.68675,-1.04504 1.04505,-1.49292 l -0.65689,1.49292 -0.65688,1.52278 c -0.20901,0.50759 -0.38816,0.98533 -0.53745,1.4332 -0.17915,0.44788 -0.29859,0.83604 -0.38816,1.19434 -0.0597,0.29858 -0.0299,0.59717 0.0299,0.89575 0.0597,0.29858 0.17916,0.53745 0.35831,0.77632 0.17915,0.23887 0.38815,0.41802 0.62702,0.56731 0.23887,0.14929 0.53745,0.20901 0.89575,0.20901 0.20901,0 0.44788,-0.14929 0.74646,-0.44788 0.29859,-0.29858 0.59717,-0.65688 0.89576,-1.10476 0.29858,-0.44788 0.62702,-0.95547 0.92561,-1.52278 l 0.83603,-1.61235 c 0.23887,-0.50759 0.47774,-0.98533 0.65689,-1.40335 l 0.38816,-0.89575 c 0,-0.0299 0,-0.0597 -0.0597,-0.0896 -0.0597,-0.0299 -0.11943,0 -0.14929,0.0896 l -0.53745,0.8659 -0.65689,1.10476 -0.68674,1.19433 -0.65689,1.01519 c -0.20901,0.29858 -0.38816,0.53745 -0.50759,0.7166 -0.14929,0.17915 -0.23887,0.26872 -0.26873,0.20901 -0.11943,-0.0597 -0.0896,-0.29859 0.0299,-0.7166 0.11944,-0.41802 0.32845,-0.89576 0.59717,-1.49292 0.23887,-0.56731 0.53745,-1.19434 0.86589,-1.85122 l 0.95547,-1.91094 0.80618,-1.64221 c 0.23887,-0.47774 0.38816,-0.80618 0.47773,-1.01519 0.0597,-0.23887 0.0896,-0.44788 0.0299,-0.62703 -0.0597,-0.14929 -0.17915,-0.26872 -0.3583,-0.32844 -0.17915,-0.0597 -0.3583,-0.0597 -0.59717,-0.0597 -0.23886,0 -0.50759,0.0299 -0.74646,0.0896 -0.32844,0.0299 -0.7166,0.20901 -1.16447,0.53745 l -0.23887,0.17915 c -0.44788,0.38816 -0.89575,0.8659 -1.34363,1.46306 -0.44787,0.59717 -0.89575,1.19434 -1.31377,1.85122 -0.41802,0.65689 -0.83603,1.34363 -1.19433,2.00052 l -0.98533,1.7915 -0.68674,1.25405 c -0.17916,0.32845 -0.29859,0.47774 -0.29859,0.41802 -0.11943,-0.0597 -0.0896,-0.32844 0.0597,-0.74646 0.11943,-0.41802 0.32844,-0.95547 0.59717,-1.55264 0.23886,-0.59716 0.53745,-1.25405 0.89575,-1.97065 l 0.98533,-2.03037 0.83603,-1.70193 c 0.23887,-0.47773 0.38816,-0.83604 0.47773,-1.04504 0.11944,-0.41802 0.0597,-0.71661 -0.17915,-0.8659 -0.26872,-0.14929 -0.59716,-0.20901 -1.01518,-0.14929 -0.41802,0.0597 -0.80618,0.20901 -1.2242,0.38816 -0.41801,0.17915 -0.68674,0.38816 -0.80617,0.62703 z"
         style="font-family:Hunting;-inkscape-font-specification:'Hunting, Normal'"
         id="path12819" />
      <path
         d="m 166.83748,168.04351 c -0.3583,0.62703 -0.89575,1.01519 -1.58249,1.13462 -0.7166,0.11943 -1.46306,0.14929 -2.2991,0.0597 l 0.83604,-1.76165 c 0.11943,-0.41802 0.0597,-0.7166 -0.17915,-0.86589 -0.26873,-0.14929 -0.59717,-0.20901 -1.01519,-0.14929 -0.41802,0.0597 -0.80618,0.209 -1.22419,0.38815 -0.41802,0.17916 -0.68675,0.38816 -0.80618,0.62703 l -0.65689,1.40335 c -0.62702,-0.0597 -1.22419,-0.11944 -1.7915,-0.11944 -0.59717,0 -1.10476,0.0896 -1.55264,0.23887 -0.44787,0.17915 -0.83603,0.44788 -1.13462,0.83603 -0.29858,0.38816 -0.50759,0.92562 -0.56731,1.61236 0.53746,-0.50759 1.13462,-0.77632 1.85122,-0.80618 0.71661,-0.0299 1.46307,0.0299 2.23938,0.20901 l -1.40334,3.07542 -1.4332,3.19484 -1.16448,2.68726 c -0.38816,0.89575 -0.65689,1.64221 -0.83604,2.17966 -0.0597,0.29859 -0.0298,0.59717 0.0299,0.89576 0.0597,0.29858 0.17915,0.53745 0.3583,0.77631 0.17915,0.23887 0.38816,0.41802 0.62703,0.56731 0.23887,0.1493 0.53745,0.20901 0.89575,0.20901 0.20901,0 0.47774,-0.14929 0.77632,-0.44787 0.29858,-0.29859 0.59717,-0.7166 0.92561,-1.19434 0.29858,-0.47773 0.62703,-0.98533 0.95547,-1.58249 l 0.86589,-1.70193 c 0.26873,-0.53745 0.5076,-1.01519 0.68675,-1.46306 l 0.41801,-0.92562 c 0,-0.0299 0,-0.0597 -0.0597,-0.0896 -0.0597,-0.0299 -0.11944,0 -0.1493,0.0896 -0.23886,0.35831 -0.50759,0.83604 -0.86589,1.46307 l -1.10476,1.85122 c -0.38816,0.62702 -0.7166,1.16447 -1.01519,1.58249 -0.29858,0.41802 -0.44787,0.59717 -0.50759,0.53745 -0.11943,-0.0597 0,-0.47773 0.29859,-1.22419 0.29858,-0.74646 0.68674,-1.67207 1.16447,-2.74697 l 1.64222,-3.46358 1.73178,-3.52329 c 0.59717,0.14929 1.16448,0.23887 1.73179,0.26873 0.53745,0.0299 1.04504,-0.0597 1.49292,-0.29859 0.44788,-0.23887 0.83604,-0.62702 1.13462,-1.16448 0.29858,-0.53745 0.53745,-1.34362 0.68674,-2.35881 z"
         style="font-family:Hunting;-inkscape-font-specification:'Hunting, Normal'"
         id="path12821" />
      <path
         d="m 158.77568,181.65894 c -0.0597,0.29859 -0.0298,0.59717 0.0299,0.89575 0.0597,0.29859 0.17915,0.53745 0.3583,0.77632 0.17915,0.23887 0.38816,0.41802 0.62703,0.56731 0.23887,0.14929 0.53745,0.20901 0.89575,0.20901 0.23887,0 0.47774,-0.14929 0.77632,-0.44788 0.26873,-0.29858 0.56731,-0.65688 0.86589,-1.10476 0.29859,-0.44787 0.62703,-0.95547 0.92561,-1.52277 l 0.83604,-1.61236 c 0.23887,-0.50759 0.47773,-0.98533 0.65688,-1.40334 l 0.38816,-0.89576 c 0,-0.0299 0,-0.0597 -0.0597,-0.0896 -0.0597,-0.0299 -0.11944,0 -0.1493,0.0896 l -0.53745,0.8659 -0.65688,1.10476 -0.68675,1.19434 -0.65688,1.01518 c -0.20901,0.29858 -0.38816,0.53745 -0.50759,0.7166 -0.14929,0.17915 -0.23887,0.26873 -0.26873,0.20901 -0.0597,-0.0299 0,-0.29858 0.17915,-0.83603 0.17915,-0.5076 0.41802,-1.13462 0.7166,-1.85122 0.29859,-0.71661 0.62703,-1.49292 0.98533,-2.2991 0.3583,-0.77632 0.7166,-1.49292 1.0749,-2.09009 0.11944,-0.41802 0.0597,-0.7166 -0.17915,-0.86589 -0.26872,-0.1493 -0.59717,-0.20901 -1.01518,-0.1493 -0.41802,0.0597 -0.80618,0.20901 -1.2242,0.38816 -0.41801,0.17915 -0.68674,0.38816 -0.80617,0.62703 l -0.41802,0.86589 c -0.0597,0.1493 -0.11944,0.26873 -0.14929,0.32845 -0.0299,0.0896 -0.0597,0.17915 -0.0896,0.23886 -0.0597,0.0896 -0.11943,0.26873 -0.23887,0.53745 -0.41801,0.89576 -0.77631,1.70193 -1.04504,2.38868 -0.26873,0.68674 -0.47773,1.40334 -0.62703,2.1498 z m 2.92613,-7.31531 c 0.23886,-0.14929 0.50759,-0.29858 0.80617,-0.41801 0.29859,-0.11944 0.59717,-0.17915 0.89576,-0.20901 0.29858,-0.0299 0.56731,0 0.86589,0.0597 0.26872,0.0597 0.50759,0.20901 0.68674,0.38816 l 0.77632,-1.61235 c 0.11943,-0.41802 0.0597,-0.7166 -0.17915,-0.86589 -0.26873,-0.1493 -0.59717,-0.20901 -1.01519,-0.1493 -0.41801,0.0597 -0.80617,0.20901 -1.22419,0.38816 -0.41802,0.17915 -0.68674,0.38816 -0.80618,0.62703 -0.0597,0.11943 -0.11943,0.23887 -0.17915,0.41802 -0.0896,0.17915 -0.17915,0.32844 -0.23886,0.50759 -0.0597,0.17915 -0.1493,0.3583 -0.20901,0.50759 z"
         style="font-family:Hunting;-inkscape-font-specification:'Hunting, Normal'"
         id="path12823" />
      <path
         d="m 166.74786,173.17916 -0.7166,1.4332 c -0.17915,0.3583 -0.29858,0.62703 -0.41802,0.86589 -0.11943,0.23887 -0.20901,0.47774 -0.29858,0.7166 -0.0896,0.23887 -0.20901,0.53746 -0.38816,0.92561 -0.32844,0.74646 -0.62703,1.46307 -0.8659,2.17967 -0.23886,0.7166 -0.50759,1.49292 -0.77631,2.35881 -0.0597,0.29859 -0.0299,0.59717 0.0299,0.89575 0.0597,0.29859 0.17916,0.53745 0.35831,0.77632 0.17915,0.23887 0.38815,0.41802 0.62702,0.56731 0.23887,0.14929 0.53745,0.20901 0.89575,0.20901 0.17915,0 0.38816,-0.11943 0.62703,-0.41802 0.23887,-0.26872 0.50759,-0.62702 0.80618,-1.0749 0.29858,-0.44788 0.59717,-0.95547 0.95547,-1.55264 l 1.01518,-1.76164 1.04505,-1.73179 c 0.3583,-0.53745 0.68674,-1.04504 1.04504,-1.49292 l -0.65689,1.49292 -0.65688,1.52278 c -0.20901,0.50759 -0.38816,0.98533 -0.53745,1.4332 -0.17915,0.44788 -0.29859,0.83604 -0.38816,1.19434 -0.0597,0.29858 -0.0299,0.59717 0.0299,0.89575 0.0597,0.29858 0.17915,0.53745 0.3583,0.77632 0.17915,0.23887 0.38816,0.41802 0.62703,0.56731 0.23886,0.14929 0.53745,0.20901 0.89575,0.20901 0.20901,0 0.44787,-0.14929 0.74646,-0.44788 0.29858,-0.29858 0.59717,-0.65688 0.89575,-1.10476 0.29858,-0.44788 0.62703,-0.95547 0.92561,-1.52278 l 0.83603,-1.61235 c 0.23887,-0.50759 0.47774,-0.98533 0.65689,-1.40335 l 0.38816,-0.89575 c 0,-0.0299 0,-0.0597 -0.0597,-0.0896 -0.0597,-0.0299 -0.11943,0 -0.14929,0.0896 l -0.53745,0.8659 -0.65689,1.10476 -0.68674,1.19433 -0.65688,1.01519 c -0.20901,0.29858 -0.38816,0.53745 -0.5076,0.7166 -0.14929,0.17915 -0.23886,0.26872 -0.26872,0.20901 -0.11944,-0.0597 -0.0896,-0.29859 0.0299,-0.7166 0.11943,-0.41802 0.32844,-0.89576 0.59716,-1.49292 0.23887,-0.56731 0.53746,-1.19434 0.8659,-1.85122 l 0.95547,-1.91094 0.80617,-1.64221 c 0.23887,-0.47774 0.38816,-0.80618 0.47774,-1.01519 0.0597,-0.23887 0.0896,-0.44788 0.0299,-0.62703 -0.0597,-0.14929 -0.17915,-0.26872 -0.3583,-0.32844 -0.17916,-0.0597 -0.35831,-0.0597 -0.59717,-0.0597 -0.23887,0 -0.5076,0.0299 -0.74646,0.0896 -0.32845,0.0299 -0.7166,0.20901 -1.16448,0.53745 l -0.23887,0.17915 c -0.44787,0.38816 -0.89575,0.8659 -1.34363,1.46306 -0.44787,0.59717 -0.89575,1.19434 -1.31377,1.85122 -0.41801,0.65689 -0.83603,1.34363 -1.19433,2.00052 l -0.98533,1.7915 -0.68674,1.25405 c -0.17915,0.32845 -0.29859,0.47774 -0.29859,0.41802 -0.11943,-0.0597 -0.0896,-0.32844 0.0597,-0.74646 0.11943,-0.41802 0.32844,-0.95547 0.59717,-1.55264 0.23887,-0.59716 0.53745,-1.25405 0.89575,-1.97065 l 0.98533,-2.03037 0.83603,-1.70193 c 0.23887,-0.47773 0.38816,-0.83604 0.47774,-1.04504 0.11943,-0.41802 0.0597,-0.71661 -0.17915,-0.8659 -0.26873,-0.14929 -0.59717,-0.20901 -1.01519,-0.14929 -0.41802,0.0597 -0.80617,0.20901 -1.22419,0.38816 -0.41802,0.17915 -0.68675,0.38816 -0.80618,0.62703 z"
         style="font-family:Hunting;-inkscape-font-specification:'Hunting, Normal'"
         id="path12825" />
      <path
         d="m 183.49839,176.07542 c 0.11944,-0.41802 0.0597,-0.7166 -0.17915,-0.86589 -0.26872,-0.14929 -0.59717,-0.20901 -1.01518,-0.14929 -0.41802,0.0597 -0.80618,0.209 -1.2242,0.38815 -0.41802,0.17915 -0.68674,0.38816 -0.80617,0.62703 -0.35831,0.74646 -0.65689,1.46306 -0.89576,2.14981 -0.26872,0.7166 -0.56731,1.37348 -0.86589,1.97065 -0.29858,0.59717 -0.68674,1.16448 -1.10476,1.67207 -0.41802,0.50759 -0.98533,0.92561 -1.70193,1.28391 0.0597,-0.3583 0.20901,-0.92561 0.44788,-1.73179 0.23886,-0.77631 0.53745,-1.64221 0.92561,-2.56782 0.3583,-0.92561 0.77631,-1.82136 1.25405,-2.68725 0.44788,-0.8659 0.92561,-1.55264 1.4332,-2.06023 0.26873,-0.29859 0.56731,-0.5076 0.8659,-0.68675 0.29858,-0.17915 0.56731,-0.23886 0.80617,-0.23886 0.23887,0 0.44788,0.14929 0.62703,0.38816 0.14929,0.23886 0.23887,0.65688 0.23887,1.19433 0.3583,-0.74646 0.38816,-1.37349 0.0597,-1.88108 -0.3583,-0.50759 -0.92561,-0.77632 -1.76164,-0.77632 -0.7166,0 -1.34363,0.1493 -1.9408,0.41802 -0.59717,0.29858 -1.16448,0.65689 -1.67207,1.13462 -0.50759,0.47773 -0.95547,0.98533 -1.34363,1.5825 -0.41801,0.59716 -0.74646,1.22419 -1.01518,1.88107 -0.29859,0.62703 -0.5076,1.25406 -0.65689,1.85123 -0.17915,0.59716 -0.26872,1.16447 -0.29858,1.70192 -0.0299,0.11944 -0.0299,0.20901 -0.0299,0.32845 v 0.29858 c 0,0.77632 0.11943,1.37349 0.41802,1.82136 0.26872,0.47774 0.68674,0.65689 1.22419,0.59717 0.38816,-0.0299 0.77632,-0.14929 1.19434,-0.3583 0.38816,-0.20901 0.89575,-0.68674 1.55264,-1.40334 l -2.03038,4.92663 c -0.53745,1.34363 -0.86589,2.41853 -1.04504,3.25457 -0.17915,0.83603 -0.14929,1.46306 0.0896,1.82136 0.23887,0.38816 0.71661,0.56731 1.43321,0.56731 0.29858,0 0.7166,-0.32844 1.22419,-1.04504 0.5076,-0.71661 1.04505,-1.61236 1.64221,-2.68726 0.59717,-1.0749 1.19434,-2.26924 1.79151,-3.55315 l 1.67207,-3.61287 1.28391,-2.98584 c 0.3583,-0.83603 0.56731,-1.34362 0.65689,-1.52278 0,-0.0299 0,-0.0597 -0.0597,-0.0896 -0.0597,-0.0299 -0.11944,0 -0.14929,0.0896 -0.1493,0.23887 -0.41802,0.71661 -0.80618,1.46307 l -1.34363,2.65739 -1.61235,3.13514 -1.55264,3.01569 c -0.47773,0.92561 -0.89575,1.67207 -1.22419,2.23938 -0.32845,0.59717 -0.5076,0.8659 -0.53745,0.80618 -0.0896,-0.0597 0,-0.44787 0.23886,-1.13462 0.23887,-0.68674 0.56731,-1.52278 0.98533,-2.53796 l 1.40334,-3.25457 1.52278,-3.31428 1.2242,-2.68726 c 0.3583,-0.74646 0.56731,-1.22419 0.65688,-1.4332 z"
         style="font-family:Hunting;-inkscape-font-specification:'Hunting, Normal'"
         id="path12827" />
    </g>
  </g>
</svg>
