<?xml version="1.0" encoding="UTF-8" standalone="no"?>
<!-- Created with Inkscape (http://www.inkscape.org/) -->

<svg
   width="169.46666mm"
   height="39.454056mm"
   viewBox="0 0 169.46666 39.454056"
   version="1.1"
   id="svg4029"
   inkscape:version="1.1 (c68e22c387, 2021-05-23)"
   sodipodi:docname="auto-sportcompetitive.svg"
   xmlns:inkscape="http://www.inkscape.org/namespaces/inkscape"
   xmlns:sodipodi="http://sodipodi.sourceforge.net/DTD/sodipodi-0.dtd"
   xmlns="http://www.w3.org/2000/svg"
   xmlns:svg="http://www.w3.org/2000/svg">
  <sodipodi:namedview
     id="namedview4031"
     pagecolor="#ffffff"
     bordercolor="#666666"
     borderopacity="1.0"
     inkscape:pageshadow="2"
     inkscape:pageopacity="0.0"
     inkscape:pagecheckerboard="0"
     inkscape:document-units="mm"
     showgrid="false"
     fit-margin-top="0"
     fit-margin-left="0"
     fit-margin-right="0"
     fit-margin-bottom="0"
     inkscape:zoom="0.94867184"
     inkscape:cx="313.59632"
     inkscape:cy="220.308"
     inkscape:window-width="1920"
     inkscape:window-height="1138"
     inkscape:window-x="-8"
     inkscape:window-y="-8"
     inkscape:window-maximized="1"
     inkscape:current-layer="layer1" />
  <defs
     id="defs4026" />
  <g
     inkscape:label="Calque 1"
     inkscape:groupmode="layer"
     id="layer1"
     transform="translate(-20.266653,-97.026826)">
    <rect
       style="fill:#ffffff;fill-rule:evenodd;stroke:none;stroke-width:4;stroke-linecap:round;stroke-linejoin:round;stroke-miterlimit:4;stroke-dasharray:none;paint-order:stroke markers fill"
       id="rect1242"
       width="28.398405"
       height="13.213147"
       x="26.415323"
       y="100.2263" />
    <rect
       style="fill:#ffffff;fill-rule:evenodd;stroke:none;stroke-width:7.14039;stroke-linecap:round;stroke-linejoin:round;stroke-miterlimit:4;stroke-dasharray:none;paint-order:stroke markers fill"
       id="rect1368"
       width="72.179283"
       height="16.565737"
       x="77.21537"
       y="100.2263" />
    <rect
       style="fill:#ffffff;fill-rule:evenodd;stroke:none;stroke-width:2.6937;stroke-linecap:round;stroke-linejoin:round;stroke-miterlimit:4;stroke-dasharray:none;paint-order:stroke markers fill"
       id="rect1370"
       width="12.878733"
       height="13.213147"
       x="98.442009"
       y="119.15106" />
    <g
       id="g11050"
       inkscape:export-filename="C:\Users\BUCH\Pictures\g11050.png"
       inkscape:export-xdpi="153.50522"
       inkscape:export-ydpi="153.50522"
       style="fill:#1a1a1a;stroke:#ffffff;stroke-width:4;stroke-linecap:round;stroke-linejoin:round;stroke-miterlimit:4;stroke-dasharray:none;paint-order:stroke markers fill">
      <g
         aria-label="COMPETITIvE"
         id="text6424"
         style="font-size:25.4px;line-height:1.25;font-family:'Rose Of Baltimore';-inkscape-font-specification:'Rose Of Baltimore';fill:#1a1a1a;stroke:#ffffff;stroke-width:4;stroke-linecap:round;stroke-linejoin:round;stroke-miterlimit:4;stroke-dasharray:none;paint-order:stroke markers fill">
        <path
           d="m 40.13132,99.026826 -0.903111,5.080004 H 23.705987 l 0.197555,-1.12889 q 0.282222,-1.63689 1.636889,-2.794 1.382889,-1.157114 3.019778,-1.157114 z m -2.088445,11.853334 -0.903111,5.08 H 25.568653 q -1.439333,0 -2.370666,-0.93133 -0.931334,-0.93134 -0.931334,-2.31423 0,-0.36689 0.05645,-0.70555 l 1.128889,-6.49111 h 5.08 l -0.931334,5.36222 z"
           style="font-family:'SF Sports Night';-inkscape-font-specification:'SF Sports Night, Normal';fill:#1a1a1a;stroke:#ffffff;stroke-width:4;stroke-linecap:round;stroke-linejoin:round;stroke-miterlimit:4;stroke-dasharray:none;paint-order:stroke markers fill"
           id="path941" />
        <path
           d="m 56.415526,102.3006 q 0,0.33867 -0.05644,0.67734 l -0.197555,1.12889 H 40.639304 l 0.197555,-1.12889 q 0.282223,-1.63689 1.636889,-2.794 1.382889,-1.157114 3.019778,-1.157114 h 7.62 q 1.439333,0 2.370666,0.931334 0.931334,0.93133 0.931334,2.34244 z m -0.508,3.21734 -1.128889,6.49111 q -0.282222,1.63689 -1.665111,2.794 -1.354667,1.15711 -2.991556,1.15711 h -7.62 q -1.439333,0 -2.370666,-0.93133 -0.931333,-0.93134 -0.931333,-2.34245 0,-0.33867 0.05644,-0.67733 l 1.128889,-6.49111 h 5.08 l -0.931334,5.36222 h 5.362223 l 0.931333,-5.36222 z"
           style="font-family:'SF Sports Night';-inkscape-font-specification:'SF Sports Night, Normal';fill:#1a1a1a;stroke:#ffffff;stroke-width:4;stroke-linecap:round;stroke-linejoin:round;stroke-miterlimit:4;stroke-dasharray:none;paint-order:stroke markers fill"
           id="path943" />
        <path
           d="m 76.820176,99.026826 -0.903111,5.080004 h -8.015111 l 3.838222,-5.080004 z m -11.232444,5.080004 h -8.015111 l 0.903111,-5.080004 h 5.08 z m 10.075333,1.41111 -1.834444,10.44222 h -5.08 l 1.241778,-7.08378 -5.334,7.08378 -2.850445,-7.08378 -1.241777,7.08378 h -5.08 l 1.834444,-10.44222 z"
           style="font-family:'SF Sports Night';-inkscape-font-specification:'SF Sports Night, Normal';fill:#1a1a1a;stroke:#ffffff;stroke-width:4;stroke-linecap:round;stroke-linejoin:round;stroke-miterlimit:4;stroke-dasharray:none;paint-order:stroke markers fill"
           id="path945" />
        <path
           d="m 93.10437,102.3006 q 0,0.33867 -0.05644,0.67734 l -0.197556,1.12889 H 77.328149 l 0.903111,-5.080004 h 11.571111 q 1.439333,0 2.370666,0.931334 0.931333,0.93133 0.931333,2.34244 z m -0.508,3.21734 q -0.282222,1.63689 -1.636888,2.794 -1.354667,1.15711 -2.991556,1.15711 h -6.491111 l -1.157111,6.49111 h -5.08 l 1.834445,-10.44222 z"
           style="font-family:'SF Sports Night';-inkscape-font-specification:'SF Sports Night, Normal';fill:#1a1a1a;stroke:#ffffff;stroke-width:4;stroke-linecap:round;stroke-linejoin:round;stroke-miterlimit:4;stroke-dasharray:none;paint-order:stroke markers fill"
           id="path947" />
        <path
           d="m 109.27569,99.026826 -0.90311,5.080004 H 94.261468 l 0.903111,-5.080004 z m -1.15711,6.491114 -0.67733,3.95111 h -9.031116 l -0.254,1.41111 h 9.031116 l -0.90312,5.08 H 92.173023 l 1.834445,-10.44222 z"
           style="font-family:'SF Sports Night';-inkscape-font-specification:'SF Sports Night, Normal';fill:#1a1a1a;stroke:#ffffff;stroke-width:4;stroke-linecap:round;stroke-linejoin:round;stroke-miterlimit:4;stroke-dasharray:none;paint-order:stroke markers fill"
           id="path949" />
        <path
           d="m 126.20901,99.026826 -0.90311,5.080004 h -15.52222 l 0.90311,-5.080004 z m -6.37822,6.491114 -1.83445,10.44222 h -5.08 l 1.83445,-10.44222 z"
           style="font-family:'SF Sports Night';-inkscape-font-specification:'SF Sports Night, Normal';fill:#1a1a1a;stroke:#ffffff;stroke-width:4;stroke-linecap:round;stroke-linejoin:round;stroke-miterlimit:4;stroke-dasharray:none;paint-order:stroke markers fill"
           id="path951" />
        <path
           d="m 132.70011,99.026826 -0.90311,5.080004 h -5.08 l 0.90311,-5.080004 z m -1.15711,6.491114 -1.83445,10.44222 h -5.08 l 1.83445,-10.44222 z"
           style="font-family:'SF Sports Night';-inkscape-font-specification:'SF Sports Night, Normal';fill:#1a1a1a;stroke:#ffffff;stroke-width:4;stroke-linecap:round;stroke-linejoin:round;stroke-miterlimit:4;stroke-dasharray:none;paint-order:stroke markers fill"
           id="path953" />
        <path
           d="m 149.6334,99.026826 -0.90311,5.080004 h -15.52222 l 0.90311,-5.080004 z m -6.37822,6.491114 -1.83444,10.44222 h -5.08 l 1.83444,-10.44222 z"
           style="font-family:'SF Sports Night';-inkscape-font-specification:'SF Sports Night, Normal';fill:#1a1a1a;stroke:#ffffff;stroke-width:4;stroke-linecap:round;stroke-linejoin:round;stroke-miterlimit:4;stroke-dasharray:none;paint-order:stroke markers fill"
           id="path955" />
        <path
           d="m 156.1245,99.026826 -0.90311,5.080004 h -5.08 l 0.90311,-5.080004 z m -1.15711,6.491114 -1.83445,10.44222 h -5.08 l 1.83445,-10.44222 z"
           style="font-family:'SF Sports Night';-inkscape-font-specification:'SF Sports Night, Normal';fill:#1a1a1a;stroke:#ffffff;stroke-width:4;stroke-linecap:round;stroke-linejoin:round;stroke-miterlimit:4;stroke-dasharray:none;paint-order:stroke markers fill"
           id="path957" />
        <path
           d="m 172.91669,99.026826 -2.17311,5.080004 h -5.08 l 2.17311,-5.080004 z m -10.63978,5.080004 h -5.08 l -0.36688,-5.080004 h 5.08 z m 7.84578,1.41111 -4.43089,10.44222 h -7.62 l -0.762,-10.44222 h 5.05178 l 0.42333,5.36222 2.286,-5.36222 z"
           style="font-family:'SF Sports Night';-inkscape-font-specification:'SF Sports Night, Normal';fill:#1a1a1a;stroke:#ffffff;stroke-width:4;stroke-linecap:round;stroke-linejoin:round;stroke-miterlimit:4;stroke-dasharray:none;paint-order:stroke markers fill"
           id="path959" />
        <path
           d="m 187.73335,99.026826 -0.90311,5.080004 h -14.11112 l 0.90312,-5.080004 z m -1.15711,6.491114 -0.67734,3.95111 h -9.03111 l -0.254,1.41111 h 9.03111 l -0.90311,5.08 h -14.11111 l 1.83444,-10.44222 z"
           style="font-family:'SF Sports Night';-inkscape-font-specification:'SF Sports Night, Normal';fill:#1a1a1a;stroke:#ffffff;stroke-width:4;stroke-linecap:round;stroke-linejoin:round;stroke-miterlimit:4;stroke-dasharray:none;paint-order:stroke markers fill"
           id="path961" />
      </g>
      <g
         aria-label="SPORT"
         id="text8410"
         style="font-size:25.4px;line-height:1.25;font-family:'Rose Of Baltimore';-inkscape-font-specification:'Rose Of Baltimore';fill:#1a1a1a;stroke:#ffffff;stroke-width:4;stroke-linecap:round;stroke-linejoin:round;stroke-miterlimit:4;stroke-dasharray:none;paint-order:stroke markers fill">
        <path
           d="m 80.390254,117.54755 -0.903111,5.08 H 63.964921 l 0.197555,-1.12889 q 0.282222,-1.63689 1.636889,-2.794 1.382889,-1.15711 3.019778,-1.15711 z m -1.778,9.76489 q 0,0.33866 -0.05644,0.67733 l -0.451555,2.54 q -0.282222,1.63689 -1.665111,2.794 -1.354667,1.15711 -2.991556,1.15711 H 61.876476 l 0.903111,-5.08 h 10.442222 l 0.254,-1.41111 h -6.491111 q -1.467555,0 -2.398888,-0.93133 -0.931334,-0.93134 -0.931334,-2.34245 0,-0.33866 0.05644,-0.67733 h 11.571111 q 1.467555,0 2.398888,0.93133 0.931334,0.93134 0.931334,2.34245 z"
           style="font-family:'SF Sports Night';-inkscape-font-specification:'SF Sports Night, Normal';fill:#1a1a1a;stroke:#ffffff;stroke-width:4;stroke-linecap:round;stroke-linejoin:round;stroke-miterlimit:4;stroke-dasharray:none;paint-order:stroke markers fill"
           id="path964" />
        <path
           d="m 96.67446,120.82133 q 0,0.33866 -0.05644,0.67733 l -0.197555,1.12889 H 80.898238 l 0.903111,-5.08 H 93.37246 q 1.439333,0 2.370667,0.93133 0.931333,0.93133 0.931333,2.34245 z m -0.508,3.21733 q -0.282222,1.63689 -1.636889,2.794 -1.354667,1.15711 -2.991556,1.15711 h -6.491111 l -1.157111,6.49111 h -5.08 l 1.834445,-10.44222 z"
           style="font-family:'SF Sports Night';-inkscape-font-specification:'SF Sports Night, Normal';fill:#1a1a1a;stroke:#ffffff;stroke-width:4;stroke-linecap:round;stroke-linejoin:round;stroke-miterlimit:4;stroke-dasharray:none;paint-order:stroke markers fill"
           id="path966" />
        <path
           d="m 113.60778,120.82133 q 0,0.33866 -0.0565,0.67733 l -0.19755,1.12889 H 97.831555 l 0.197556,-1.12889 q 0.282222,-1.63689 1.636888,-2.794 1.382891,-1.15711 3.019781,-1.15711 h 7.62 q 1.43933,0 2.37066,0.93133 0.93134,0.93133 0.93134,2.34245 z m -0.508,3.21733 -1.12889,6.49111 q -0.28222,1.63689 -1.66511,2.794 -1.35467,1.15711 -2.99156,1.15711 h -7.619998 q -1.439334,0 -2.370667,-0.93133 -0.931333,-0.93134 -0.931333,-2.34245 0,-0.33866 0.05644,-0.67733 l 1.128889,-6.49111 h 5.079999 l -0.93133,5.36222 h 5.36222 l 0.93134,-5.36222 z"
           style="font-family:'SF Sports Night';-inkscape-font-specification:'SF Sports Night, Normal';fill:#1a1a1a;stroke:#ffffff;stroke-width:4;stroke-linecap:round;stroke-linejoin:round;stroke-miterlimit:4;stroke-dasharray:none;paint-order:stroke markers fill"
           id="path968" />
        <path
           d="m 130.54109,120.82133 q 0,0.33866 -0.0564,0.67733 l -0.19756,1.12889 h -15.52222 l 0.90311,-5.08 h 11.57111 q 1.43934,0 2.37067,0.93133 0.93133,0.93133 0.93133,2.34245 z m -0.508,3.21733 q -0.14111,0.87489 -1.43933,1.97555 0.762,0.95956 0.762,1.69334 0,0.14111 0,0.28222 l -1.15711,6.49111 h -5.08 l 1.15711,-6.49111 h -5.36222 l -1.15711,6.49111 h -5.08 l 1.83444,-10.44222 z"
           style="font-family:'SF Sports Night';-inkscape-font-specification:'SF Sports Night, Normal';fill:#1a1a1a;stroke:#ffffff;stroke-width:4;stroke-linecap:round;stroke-linejoin:round;stroke-miterlimit:4;stroke-dasharray:none;paint-order:stroke markers fill"
           id="path970" />
        <path
           d="m 148.12352,117.54755 -0.90311,5.08 h -15.52222 l 0.90311,-5.08 z m -6.37822,6.49111 -1.83444,10.44222 h -5.08 l 1.83444,-10.44222 z"
           style="font-family:'SF Sports Night';-inkscape-font-specification:'SF Sports Night, Normal';fill:#1a1a1a;stroke:#ffffff;stroke-width:4;stroke-linecap:round;stroke-linejoin:round;stroke-miterlimit:4;stroke-dasharray:none;paint-order:stroke markers fill"
           id="path972" />
      </g>
    </g>
    <g
       id="g1110"
       inkscape:export-filename="C:\Users\BUCH\Pictures\g11050.png"
       inkscape:export-xdpi="153.50522"
       inkscape:export-ydpi="153.50522"
       style="fill:#1a1a1a">
      <g
         aria-label="COMPETITIvE"
         id="g1096"
         style="font-size:25.4px;line-height:1.25;font-family:'Rose Of Baltimore';-inkscape-font-specification:'Rose Of Baltimore';fill:#1a1a1a;stroke-width:0.264583">
        <path
           d="m 40.13132,99.026826 -0.903111,5.080004 H 23.705987 l 0.197555,-1.12889 q 0.282222,-1.63689 1.636889,-2.794 1.382889,-1.157114 3.019778,-1.157114 z m -2.088445,11.853334 -0.903111,5.08 H 25.568653 q -1.439333,0 -2.370666,-0.93133 -0.931334,-0.93134 -0.931334,-2.31423 0,-0.36689 0.05645,-0.70555 l 1.128889,-6.49111 h 5.08 l -0.931334,5.36222 z"
           style="font-family:'SF Sports Night';-inkscape-font-specification:'SF Sports Night, Normal';fill:#1a1a1a"
           id="path1074" />
        <path
           d="m 56.415526,102.3006 q 0,0.33867 -0.05644,0.67734 l -0.197555,1.12889 H 40.639304 l 0.197555,-1.12889 q 0.282223,-1.63689 1.636889,-2.794 1.382889,-1.157114 3.019778,-1.157114 h 7.62 q 1.439333,0 2.370666,0.931334 0.931334,0.93133 0.931334,2.34244 z m -0.508,3.21734 -1.128889,6.49111 q -0.282222,1.63689 -1.665111,2.794 -1.354667,1.15711 -2.991556,1.15711 h -7.62 q -1.439333,0 -2.370666,-0.93133 -0.931333,-0.93134 -0.931333,-2.34245 0,-0.33867 0.05644,-0.67733 l 1.128889,-6.49111 h 5.08 l -0.931334,5.36222 h 5.362223 l 0.931333,-5.36222 z"
           style="font-family:'SF Sports Night';-inkscape-font-specification:'SF Sports Night, Normal';fill:#1a1a1a"
           id="path1076" />
        <path
           d="m 76.820176,99.026826 -0.903111,5.080004 h -8.015111 l 3.838222,-5.080004 z m -11.232444,5.080004 h -8.015111 l 0.903111,-5.080004 h 5.08 z m 10.075333,1.41111 -1.834444,10.44222 h -5.08 l 1.241778,-7.08378 -5.334,7.08378 -2.850445,-7.08378 -1.241777,7.08378 h -5.08 l 1.834444,-10.44222 z"
           style="font-family:'SF Sports Night';-inkscape-font-specification:'SF Sports Night, Normal';fill:#1a1a1a"
           id="path1078" />
        <path
           d="m 93.10437,102.3006 q 0,0.33867 -0.05644,0.67734 l -0.197556,1.12889 H 77.328149 l 0.903111,-5.080004 h 11.571111 q 1.439333,0 2.370666,0.931334 0.931333,0.93133 0.931333,2.34244 z m -0.508,3.21734 q -0.282222,1.63689 -1.636888,2.794 -1.354667,1.15711 -2.991556,1.15711 h -6.491111 l -1.157111,6.49111 h -5.08 l 1.834445,-10.44222 z"
           style="font-family:'SF Sports Night';-inkscape-font-specification:'SF Sports Night, Normal';fill:#1a1a1a"
           id="path1080" />
        <path
           d="m 109.27569,99.026826 -0.90311,5.080004 H 94.261468 l 0.903111,-5.080004 z m -1.15711,6.491114 -0.67733,3.95111 h -9.031116 l -0.254,1.41111 h 9.031116 l -0.90312,5.08 H 92.173023 l 1.834445,-10.44222 z"
           style="font-family:'SF Sports Night';-inkscape-font-specification:'SF Sports Night, Normal';fill:#1a1a1a"
           id="path1082" />
        <path
           d="m 126.20901,99.026826 -0.90311,5.080004 h -15.52222 l 0.90311,-5.080004 z m -6.37822,6.491114 -1.83445,10.44222 h -5.08 l 1.83445,-10.44222 z"
           style="font-family:'SF Sports Night';-inkscape-font-specification:'SF Sports Night, Normal';fill:#1a1a1a"
           id="path1084" />
        <path
           d="m 132.70011,99.026826 -0.90311,5.080004 h -5.08 l 0.90311,-5.080004 z m -1.15711,6.491114 -1.83445,10.44222 h -5.08 l 1.83445,-10.44222 z"
           style="font-family:'SF Sports Night';-inkscape-font-specification:'SF Sports Night, Normal';fill:#1a1a1a"
           id="path1086" />
        <path
           d="m 149.6334,99.026826 -0.90311,5.080004 h -15.52222 l 0.90311,-5.080004 z m -6.37822,6.491114 -1.83444,10.44222 h -5.08 l 1.83444,-10.44222 z"
           style="font-family:'SF Sports Night';-inkscape-font-specification:'SF Sports Night, Normal';fill:#1a1a1a"
           id="path1088" />
        <path
           d="m 156.1245,99.026826 -0.90311,5.080004 h -5.08 l 0.90311,-5.080004 z m -1.15711,6.491114 -1.83445,10.44222 h -5.08 l 1.83445,-10.44222 z"
           style="font-family:'SF Sports Night';-inkscape-font-specification:'SF Sports Night, Normal';fill:#1a1a1a"
           id="path1090" />
        <path
           d="m 172.91669,99.026826 -2.17311,5.080004 h -5.08 l 2.17311,-5.080004 z m -10.63978,5.080004 h -5.08 l -0.36688,-5.080004 h 5.08 z m 7.84578,1.41111 -4.43089,10.44222 h -7.62 l -0.762,-10.44222 h 5.05178 l 0.42333,5.36222 2.286,-5.36222 z"
           style="font-family:'SF Sports Night';-inkscape-font-specification:'SF Sports Night, Normal';fill:#1a1a1a"
           id="path1092" />
        <path
           d="m 187.73335,99.026826 -0.90311,5.080004 h -14.11112 l 0.90312,-5.080004 z m -1.15711,6.491114 -0.67734,3.95111 h -9.03111 l -0.254,1.41111 h 9.03111 l -0.90311,5.08 h -14.11111 l 1.83444,-10.44222 z"
           style="font-family:'SF Sports Night';-inkscape-font-specification:'SF Sports Night, Normal';fill:#1a1a1a"
           id="path1094" />
      </g>
      <g
         aria-label="SPORT"
         id="g1108"
         style="font-size:25.4px;line-height:1.25;font-family:'Rose Of Baltimore';-inkscape-font-specification:'Rose Of Baltimore';fill:#1a1a1a;stroke-width:0.264583">
        <path
           d="m 80.390254,117.54755 -0.903111,5.08 H 63.964921 l 0.197555,-1.12889 q 0.282222,-1.63689 1.636889,-2.794 1.382889,-1.15711 3.019778,-1.15711 z m -1.778,9.76489 q 0,0.33866 -0.05644,0.67733 l -0.451555,2.54 q -0.282222,1.63689 -1.665111,2.794 -1.354667,1.15711 -2.991556,1.15711 H 61.876476 l 0.903111,-5.08 h 10.442222 l 0.254,-1.41111 h -6.491111 q -1.467555,0 -2.398888,-0.93133 -0.931334,-0.93134 -0.931334,-2.34245 0,-0.33866 0.05644,-0.67733 h 11.571111 q 1.467555,0 2.398888,0.93133 0.931334,0.93134 0.931334,2.34245 z"
           style="font-family:'SF Sports Night';-inkscape-font-specification:'SF Sports Night, Normal';fill:#1a1a1a"
           id="path1098" />
        <path
           d="m 96.67446,120.82133 q 0,0.33866 -0.05644,0.67733 l -0.197555,1.12889 H 80.898238 l 0.903111,-5.08 H 93.37246 q 1.439333,0 2.370667,0.93133 0.931333,0.93133 0.931333,2.34245 z m -0.508,3.21733 q -0.282222,1.63689 -1.636889,2.794 -1.354667,1.15711 -2.991556,1.15711 h -6.491111 l -1.157111,6.49111 h -5.08 l 1.834445,-10.44222 z"
           style="font-family:'SF Sports Night';-inkscape-font-specification:'SF Sports Night, Normal';fill:#1a1a1a"
           id="path1100" />
        <path
           d="m 113.60778,120.82133 q 0,0.33866 -0.0565,0.67733 l -0.19755,1.12889 H 97.831555 l 0.197556,-1.12889 q 0.282222,-1.63689 1.636888,-2.794 1.382891,-1.15711 3.019781,-1.15711 h 7.62 q 1.43933,0 2.37066,0.93133 0.93134,0.93133 0.93134,2.34245 z m -0.508,3.21733 -1.12889,6.49111 q -0.28222,1.63689 -1.66511,2.794 -1.35467,1.15711 -2.99156,1.15711 h -7.619998 q -1.439334,0 -2.370667,-0.93133 -0.931333,-0.93134 -0.931333,-2.34245 0,-0.33866 0.05644,-0.67733 l 1.128889,-6.49111 h 5.079999 l -0.93133,5.36222 h 5.36222 l 0.93134,-5.36222 z"
           style="font-family:'SF Sports Night';-inkscape-font-specification:'SF Sports Night, Normal';fill:#1a1a1a"
           id="path1102" />
        <path
           d="m 130.54109,120.82133 q 0,0.33866 -0.0564,0.67733 l -0.19756,1.12889 h -15.52222 l 0.90311,-5.08 h 11.57111 q 1.43934,0 2.37067,0.93133 0.93133,0.93133 0.93133,2.34245 z m -0.508,3.21733 q -0.14111,0.87489 -1.43933,1.97555 0.762,0.95956 0.762,1.69334 0,0.14111 0,0.28222 l -1.15711,6.49111 h -5.08 l 1.15711,-6.49111 h -5.36222 l -1.15711,6.49111 h -5.08 l 1.83444,-10.44222 z"
           style="font-family:'SF Sports Night';-inkscape-font-specification:'SF Sports Night, Normal';fill:#1a1a1a"
           id="path1104" />
        <path
           d="m 148.12352,117.54755 -0.90311,5.08 h -15.52222 l 0.90311,-5.08 z m -6.37822,6.49111 -1.83444,10.44222 h -5.08 l 1.83444,-10.44222 z"
           style="font-family:'SF Sports Night';-inkscape-font-specification:'SF Sports Night, Normal';fill:#1a1a1a"
           id="path1106" />
      </g>
    </g>
  </g>
</svg>
