<?xml version="1.0" encoding="UTF-8" standalone="no"?>
<!-- Created with Inkscape (http://www.inkscape.org/) -->

<svg
   width="187.50555mm"
   height="56.601578mm"
   viewBox="0 0 187.50555 56.601578"
   version="1.1"
   id="svg14664"
   inkscape:version="1.1 (c68e22c387, 2021-05-23)"
   sodipodi:docname="auto-rpgjapanese.svg"
   xmlns:inkscape="http://www.inkscape.org/namespaces/inkscape"
   xmlns:sodipodi="http://sodipodi.sourceforge.net/DTD/sodipodi-0.dtd"
   xmlns="http://www.w3.org/2000/svg"
   xmlns:svg="http://www.w3.org/2000/svg">
  <sodipodi:namedview
     id="namedview14666"
     pagecolor="#ffffff"
     bordercolor="#666666"
     borderopacity="1.0"
     inkscape:pageshadow="2"
     inkscape:pageopacity="0.0"
     inkscape:pagecheckerboard="0"
     inkscape:document-units="mm"
     showgrid="false"
     inkscape:zoom="0.67081229"
     inkscape:cx="351.06691"
     inkscape:cy="83.48088"
     inkscape:window-width="1920"
     inkscape:window-height="1138"
     inkscape:window-x="-8"
     inkscape:window-y="-8"
     inkscape:window-maximized="1"
     inkscape:current-layer="layer1"
     fit-margin-top="0"
     fit-margin-left="0"
     fit-margin-right="0"
     fit-margin-bottom="0" />
  <defs
     id="defs14661" />
  <g
     inkscape:label="Calque 1"
     inkscape:groupmode="layer"
     id="layer1"
     transform="translate(-12.141477,-126.05973)">
    <rect
       style="fill:#ffffff;fill-rule:evenodd;stroke:none;stroke-width:4.72811;stroke-linecap:round;stroke-linejoin:round;stroke-miterlimit:4;stroke-dasharray:none;paint-order:stroke markers fill"
       id="rect7291"
       width="20.333164"
       height="41.808765"
       x="151.45499"
       y="130.12538" />
    <rect
       style="fill:#ffffff;fill-rule:evenodd;stroke:none;stroke-width:5.67551;stroke-linecap:round;stroke-linejoin:round;stroke-miterlimit:4;stroke-dasharray:none;paint-order:stroke markers fill"
       id="rect7165"
       width="105.70518"
       height="28.003983"
       x="25.796816"
       y="141.79312" />
    <g
       aria-label="Japanese RPG"
       id="text2804"
       style="font-size:51.8859px;line-height:1.25;font-family:'Rose Of Baltimore';-inkscape-font-specification:'Rose Of Baltimore';stroke:#ffffff;stroke-width:4.66272;stroke-linecap:round;stroke-linejoin:round;stroke-miterlimit:4;stroke-dasharray:none;paint-order:stroke markers fill"
       transform="matrix(1.1499022,0,0,1,-17.030681,38.653386)">
      <path
         d="m 35.060896,93.215132 v 32.636228 c 0,3.6839 0.155657,5.24048 -1.037718,5.29236 -0.882061,0.10378 -1.608463,-0.57074 -1.764121,-2.64618 -0.103772,-0.93394 0,-4.51407 0,-4.72161 0.05189,-3.21693 0.570745,-5.18859 1.297147,-6.43386 l -5.551791,2.2311 c -0.103771,1.816 -0.415087,4.51407 -0.259429,7.10837 0.311315,4.20275 1.297147,5.4999 3.216926,6.79705 0.88206,0.57074 2.02355,0.62263 2.957496,0.62263 0.830174,0 1.76412,-0.0519 2.542409,-0.41509 3.476355,-1.55657 3.061268,-6.01876 3.061268,-8.4574 V 93.215132 c 0,-1.608463 -0.155658,-2.231094 1.089604,-2.801839 v -0.311315 h -6.589509 v 0.311315 c 1.193375,0.622631 1.037718,1.14149 1.037718,2.801839 z"
         style="font-family:OPTIEngeEtienne;-inkscape-font-specification:'OPTIEngeEtienne, Normal';stroke:#ffffff;stroke-width:4.66272;stroke-linecap:round;stroke-linejoin:round;stroke-miterlimit:4;stroke-dasharray:none;paint-order:stroke markers fill"
         id="path6925" />
      <path
         d="m 48.239832,131.35127 c -0.778289,0 -0.933946,-0.98583 -0.933946,-2.2311 v -6.95271 c 0,-3.00938 -0.155658,-4.66973 1.919778,-7.26402 v 13.43845 c 0,0.88206 0.155658,3.00938 -0.985832,3.00938 z m 0.985832,2.28298 h 4.981046 v -0.31132 c -1.193375,-0.57074 -1.037718,-1.19337 -1.037718,-2.80184 v -20.91001 c 0,-1.81601 0.363202,-6.22631 -2.386751,-8.04232 -1.452805,-0.93394 -3.528241,-0.83017 -4.773503,-0.10377 -2.957496,1.66035 -2.594295,5.39613 -2.594295,7.26403 l 4.202758,1.50469 c -0.778288,-3.42447 -0.622631,-4.46219 -0.518859,-5.03294 0.207544,-0.67451 0.518859,-1.50469 1.245262,-1.55657 0.933946,-0.0519 0.88206,0.83017 0.88206,1.86789 0,0.7264 0,1.4528 0,2.07544 0.05189,2.69806 -0.103772,3.47635 -1.089604,4.46218 -4.669731,4.87728 -4.773503,4.72162 -4.773503,10.94793 v 7.67911 c 0,2.49052 1.867893,3.3207 2.438638,3.3207 2.334865,0 2.90561,-1.66035 3.424469,-2.74995 z"
         style="font-family:OPTIEngeEtienne;-inkscape-font-specification:'OPTIEngeEtienne, Normal';stroke:#ffffff;stroke-width:4.66272;stroke-linecap:round;stroke-linejoin:round;stroke-miterlimit:4;stroke-dasharray:none;paint-order:stroke markers fill"
         id="path6927" />
      <path
         d="m 61.00369,138.56341 v -3.16504 -3.89145 c 0.518859,1.19338 1.400919,1.8679 1.556577,2.02356 0.830174,0.57074 1.660348,0.57074 2.438637,0.15565 2.02355,-0.98583 1.816006,-3.52824 1.816006,-4.56596 v -24.85334 c 0,-1.24526 -0.259429,-3.42447 -2.542409,-3.42447 -1.867892,0 -2.542409,1.40092 -3.268811,2.43864 v -2.07544 h -5.032932 v 0.31132 c 1.245261,0.62263 1.089603,1.19337 1.089603,2.80183 v 34.2447 c 0,1.66035 0.155658,2.1792 -1.089603,2.85372 v 0.25943 h 6.07065 v -0.25943 c -1.245262,-0.62263 -1.037718,-1.24526 -1.037718,-2.85372 z m 0,-32.99943 c 0,-1.24527 0.570745,-2.02355 1.089604,-2.02355 0.674516,0 0.674516,0.62263 0.674516,1.14149 v 24.80145 c 0,1.14149 -0.155657,1.60847 -0.726402,1.60847 -1.037718,0 -1.037718,-1.60847 -1.037718,-2.74995 z"
         style="font-family:OPTIEngeEtienne;-inkscape-font-specification:'OPTIEngeEtienne, Normal';stroke:#ffffff;stroke-width:4.66272;stroke-linecap:round;stroke-linejoin:round;stroke-miterlimit:4;stroke-dasharray:none;paint-order:stroke markers fill"
         id="path6929" />
      <path
         d="m 74.649597,131.35127 c -0.778288,0 -0.933946,-0.98583 -0.933946,-2.2311 v -6.95271 c 0,-3.00938 -0.155658,-4.66973 1.919778,-7.26402 v 13.43845 c 0,0.88206 0.155658,3.00938 -0.985832,3.00938 z m 0.985832,2.28298 h 4.981047 v -0.31132 c -1.193376,-0.57074 -1.037718,-1.19337 -1.037718,-2.80184 v -20.91001 c 0,-1.81601 0.363201,-6.22631 -2.386752,-8.04232 -1.452805,-0.93394 -3.528241,-0.83017 -4.773502,-0.10377 -2.957497,1.66035 -2.594295,5.39613 -2.594295,7.26403 l 4.202757,1.50469 c -0.778288,-3.42447 -0.62263,-4.46219 -0.518859,-5.03294 0.207544,-0.67451 0.518859,-1.50469 1.245262,-1.55657 0.933946,-0.0519 0.88206,0.83017 0.88206,1.86789 0,0.7264 0,1.4528 0,2.07544 0.05189,2.69806 -0.103772,3.47635 -1.089604,4.46218 -4.66973,4.87728 -4.773502,4.72162 -4.773502,10.94793 v 7.67911 c 0,2.49052 1.867892,3.3207 2.438637,3.3207 2.334865,0 2.90561,-1.66035 3.424469,-2.74995 z"
         style="font-family:OPTIEngeEtienne;-inkscape-font-specification:'OPTIEngeEtienne, Normal';stroke:#ffffff;stroke-width:4.66272;stroke-linecap:round;stroke-linejoin:round;stroke-miterlimit:4;stroke-dasharray:none;paint-order:stroke markers fill"
         id="path6931" />
      <path
         d="m 87.413453,101.20556 h -5.032932 v 0.31132 c 1.245261,0.62263 1.089604,1.19337 1.089604,2.80183 v 26.20238 c 0,1.66035 0.155657,2.17921 -1.089604,2.80184 v 0.31132 h 5.759335 v -0.31132 c -0.933947,-0.46697 -0.726403,-1.14149 -0.726403,-2.74995 v -23.81563 c 0,-1.4528 0.25943,-2.95749 1.14149,-3.00938 0.674517,-0.0519 0.726402,0.77829 0.726402,1.91978 v 24.85334 c 0,1.66035 0.103772,2.28298 -0.778288,2.80184 v 0.31132 h 5.759335 v -0.31132 c -1.245262,-0.57074 -1.037718,-1.19337 -1.037718,-2.80184 v -25.11277 c 0,-1.66035 0.259429,-4.46219 -2.179208,-4.56596 -1.608463,-0.0519 -3.009382,1.60846 -3.632013,2.49052 z"
         style="font-family:OPTIEngeEtienne;-inkscape-font-specification:'OPTIEngeEtienne, Normal';stroke:#ffffff;stroke-width:4.66272;stroke-linecap:round;stroke-linejoin:round;stroke-miterlimit:4;stroke-dasharray:none;paint-order:stroke markers fill"
         id="path6933" />
      <path
         d="m 106.55929,117.29019 v -9.08003 c 0,-2.85373 0.25943,-5.39614 -2.23109,-6.74517 -1.29715,-0.7264 -3.6839,-0.83017 -4.981049,-0.0519 -2.905611,1.71224 -2.646181,4.92916 -2.646181,6.38197 v 18.05629 c 0,2.12732 -0.311316,5.86311 2.490523,7.47157 1.349037,0.77829 3.372587,0.83018 4.721617,0.0519 3.00938,-1.66035 2.64618,-5.96688 2.64618,-9.39135 v -1.76412 l -4.20276,-1.60846 c 0.15566,0.83017 0.25943,4.82538 0.25943,5.55179 0,0.10377 0,3.21692 0,3.21692 0.0519,1.03772 -0.20754,2.17921 -0.93394,2.17921 -1.03772,0 -1.03772,-1.14149 -1.03772,-2.28298 V 117.29019 Z M 100.6443,105.097 c 0,-1.0896 0.31131,-1.76412 1.0896,-1.76412 0.62263,0 0.88206,0.7264 0.88206,1.29715 v 10.16964 h -1.97166 z"
         style="font-family:OPTIEngeEtienne;-inkscape-font-specification:'OPTIEngeEtienne, Normal';stroke:#ffffff;stroke-width:4.66272;stroke-linecap:round;stroke-linejoin:round;stroke-miterlimit:4;stroke-dasharray:none;paint-order:stroke markers fill"
         id="path6935" />
      <path
         d="m 118.95992,110.38936 c 0.15566,-2.69806 0.46698,-6.48573 -1.86789,-8.56117 -1.0896,-1.03772 -3.11315,-1.14149 -4.35841,-0.77829 -1.81601,0.51886 -2.74996,2.07544 -3.16504,3.6839 -0.31132,1.24526 -0.10378,6.07065 0.0519,6.74517 0.67452,2.64618 1.34904,2.54241 4.46219,6.74516 0.62263,0.77829 1.14149,2.12733 1.40092,3.78768 0.67452,3.73578 0.41509,8.92437 -0.57075,9.28757 -0.46697,0.15566 -0.93394,-0.15566 -1.0896,-1.0896 -0.31132,-1.71224 -0.3632,-2.38675 -0.41509,-4.77351 -0.0519,-2.38675 0.31132,-4.92916 0.46698,-6.12253 l -4.09899,1.71223 -0.10377,2.5943 c -0.0519,1.66035 -0.41509,7.67911 2.23109,9.547 1.34904,0.98584 3.21693,0.93395 4.46219,0.41509 1.97166,-0.83017 2.59429,-2.33486 2.90561,-4.09899 0.41509,-2.33486 0.10377,-7.31591 -0.0519,-8.56117 -0.41508,-2.64618 -0.67451,-2.85372 -4.82538,-8.40551 -1.03772,-1.40092 -1.14149,-3.06127 -1.24527,-4.51408 0,-0.93394 -0.10377,-1.24526 -0.0519,-2.23109 0,-0.62263 -0.0519,-2.07544 0.77829,-2.17921 0.41508,-0.0519 0.7264,0.10377 0.98583,0.7264 0.15566,0.46698 0.41509,2.5943 0.41509,3.37259 0.10377,2.12732 0.0519,2.74995 -0.10378,4.66973 z"
         style="font-family:OPTIEngeEtienne;-inkscape-font-specification:'OPTIEngeEtienne, Normal';stroke:#ffffff;stroke-width:4.66272;stroke-linecap:round;stroke-linejoin:round;stroke-miterlimit:4;stroke-dasharray:none;paint-order:stroke markers fill"
         id="path6937" />
      <path
         d="m 131.8276,117.29019 v -9.08003 c 0,-2.85373 0.25943,-5.39614 -2.23109,-6.74517 -1.29715,-0.7264 -3.6839,-0.83017 -4.98105,-0.0519 -2.90561,1.71224 -2.64618,4.92916 -2.64618,6.38197 v 18.05629 c 0,2.12732 -0.31131,5.86311 2.49052,7.47157 1.34904,0.77829 3.37259,0.83018 4.72162,0.0519 3.00938,-1.66035 2.64618,-5.96688 2.64618,-9.39135 v -1.76412 l -4.20276,-1.60846 c 0.15566,0.83017 0.25943,4.82538 0.25943,5.55179 0,0.10377 0,3.21692 0,3.21692 0.0519,1.03772 -0.20754,2.17921 -0.93394,2.17921 -1.03772,0 -1.03772,-1.14149 -1.03772,-2.28298 V 117.29019 Z M 125.91261,105.097 c 0,-1.0896 0.31131,-1.76412 1.0896,-1.76412 0.62263,0 0.88206,0.7264 0.88206,1.29715 v 10.16964 h -1.97166 z"
         style="font-family:OPTIEngeEtienne;-inkscape-font-specification:'OPTIEngeEtienne, Normal';stroke:#ffffff;stroke-width:4.66272;stroke-linecap:round;stroke-linejoin:round;stroke-miterlimit:4;stroke-dasharray:none;paint-order:stroke markers fill"
         id="path6939" />
      <path
         d="M 148.06779,108.26204 V 93.059474 c 2.02355,0 2.28298,0 2.28298,2.127322 v 11.051694 c 0,1.60847 -0.57075,2.02355 -2.28298,2.02355 z m 4.4103,25.37221 h 3.37258 v -0.31132 c -1.24526,-0.57074 -1.0896,-1.19337 -1.0896,-2.80184 v -13.69787 c 0,-2.85373 0.3632,-6.43386 -2.80184,-6.90083 3.11315,-0.88206 2.85372,-3.37258 2.85372,-6.01876 v -9.131921 c 0,-1.608463 -0.67451,-4.669731 -4.66973,-4.669731 H 142.516 v 0.311315 c 1.24526,0.622631 1.0896,1.14149 1.0896,2.801839 v 37.305958 c 0,1.66035 0.15566,2.17921 -1.0896,2.80184 v 0.31132 h 3.26881 3.32069 v -0.31132 c -1.19337,-0.57074 -1.03771,-1.19337 -1.03771,-2.80184 v -19.66475 c 1.76412,0 2.23109,0.46697 2.23109,3.11315 v 15.61766 c 0,1.97166 0,3.32069 0.88206,4.0471 h 3.89144 z"
         style="font-family:OPTIEngeEtienne;-inkscape-font-specification:'OPTIEngeEtienne, Normal';stroke:#ffffff;stroke-width:4.66272;stroke-linecap:round;stroke-linejoin:round;stroke-miterlimit:4;stroke-dasharray:none;paint-order:stroke markers fill"
         id="path6941" />
      <path
         d="M 164.20425,108.4177 V 93.059474 c 1.91977,0 2.28298,0.25943 2.28298,2.594295 v 10.636611 c 0,1.29715 -0.10378,2.12732 -2.28298,2.12732 z m 6.53762,-13.490334 c 0,-1.349033 -0.51886,-4.825388 -5.08482,-4.825388 h -7.0046 v 0.311315 c 1.24527,0.622631 1.08961,1.14149 1.08961,2.801839 v 37.305958 c 0,1.66035 0.15566,2.17921 -1.08961,2.80184 v 0.31132 h 3.26882 3.32069 v -0.31132 c -1.19337,-0.57074 -1.03771,-1.19337 -1.03771,-2.80184 v -18.93835 c 5.55179,0 6.53762,-1.76412 6.53762,-6.48574 z"
         style="font-family:OPTIEngeEtienne;-inkscape-font-specification:'OPTIEngeEtienne, Normal';stroke:#ffffff;stroke-width:4.66272;stroke-linecap:round;stroke-linejoin:round;stroke-miterlimit:4;stroke-dasharray:none;paint-order:stroke markers fill"
         id="path6943" />
      <path
         d="m 178.26529,128.39377 v -24.17883 -9.702661 c 0,-0.985832 -0.20754,-2.127322 1.03772,-2.127322 1.29715,0 1.19338,1.556577 1.19338,2.179208 0,0.726403 0,3.372584 0,5.240476 0,3.476359 0.0519,4.254639 -0.67452,5.240479 l 4.61785,-2.02355 c 0.62263,-0.77829 0.51886,-4.462191 0.51886,-7.160257 -0.0519,-6.226308 -5.03294,-6.122536 -5.49991,-6.122536 -0.20754,0 -5.65556,-0.103772 -5.65556,5.914992 v 8.561171 c 0,0.10377 0,22.31094 0,22.31094 0,3.21692 -0.20755,5.86311 3.21692,7.21214 2.2311,0.88206 4.35842,0 5.81122,-1.86789 0.25943,0.51886 0.83018,1.40092 1.29715,1.86789 l 1.29715,-0.57075 c -0.62263,-0.67451 -0.51886,-2.59429 -0.51886,-3.37258 v -14.89125 c 0,-1.24526 -0.10377,-2.54241 1.19338,-2.90561 v -0.72641 h -6.79706 v 0.57075 c 1.34904,0.41509 1.29715,0.98583 1.29715,2.90561 V 128.29 c 0,1.66035 0,2.74995 -1.14149,2.74995 -1.19338,0 -1.19338,-1.29715 -1.19338,-2.64618 z"
         style="font-family:OPTIEngeEtienne;-inkscape-font-specification:'OPTIEngeEtienne, Normal';stroke:#ffffff;stroke-width:4.66272;stroke-linecap:round;stroke-linejoin:round;stroke-miterlimit:4;stroke-dasharray:none;paint-order:stroke markers fill"
         id="path6945" />
    </g>
    <g
       aria-label="Japanese RPG"
       id="g7069"
       style="font-size:51.8859px;line-height:1.25;font-family:'Rose Of Baltimore';-inkscape-font-specification:'Rose Of Baltimore';stroke-width:0.540478"
       transform="matrix(1.1499022,0,0,1,-17.030681,38.653386)">
      <path
         d="m 35.060896,93.215132 v 32.636228 c 0,3.6839 0.155657,5.24048 -1.037718,5.29236 -0.882061,0.10378 -1.608463,-0.57074 -1.764121,-2.64618 -0.103772,-0.93394 0,-4.51407 0,-4.72161 0.05189,-3.21693 0.570745,-5.18859 1.297147,-6.43386 l -5.551791,2.2311 c -0.103771,1.816 -0.415087,4.51407 -0.259429,7.10837 0.311315,4.20275 1.297147,5.4999 3.216926,6.79705 0.88206,0.57074 2.02355,0.62263 2.957496,0.62263 0.830174,0 1.76412,-0.0519 2.542409,-0.41509 3.476355,-1.55657 3.061268,-6.01876 3.061268,-8.4574 V 93.215132 c 0,-1.608463 -0.155658,-2.231094 1.089604,-2.801839 v -0.311315 h -6.589509 v 0.311315 c 1.193375,0.622631 1.037718,1.14149 1.037718,2.801839 z"
         style="font-family:OPTIEngeEtienne;-inkscape-font-specification:'OPTIEngeEtienne, Normal'"
         id="path7047" />
      <path
         d="m 48.239832,131.35127 c -0.778289,0 -0.933946,-0.98583 -0.933946,-2.2311 v -6.95271 c 0,-3.00938 -0.155658,-4.66973 1.919778,-7.26402 v 13.43845 c 0,0.88206 0.155658,3.00938 -0.985832,3.00938 z m 0.985832,2.28298 h 4.981046 v -0.31132 c -1.193375,-0.57074 -1.037718,-1.19337 -1.037718,-2.80184 v -20.91001 c 0,-1.81601 0.363202,-6.22631 -2.386751,-8.04232 -1.452805,-0.93394 -3.528241,-0.83017 -4.773503,-0.10377 -2.957496,1.66035 -2.594295,5.39613 -2.594295,7.26403 l 4.202758,1.50469 c -0.778288,-3.42447 -0.622631,-4.46219 -0.518859,-5.03294 0.207544,-0.67451 0.518859,-1.50469 1.245262,-1.55657 0.933946,-0.0519 0.88206,0.83017 0.88206,1.86789 0,0.7264 0,1.4528 0,2.07544 0.05189,2.69806 -0.103772,3.47635 -1.089604,4.46218 -4.669731,4.87728 -4.773503,4.72162 -4.773503,10.94793 v 7.67911 c 0,2.49052 1.867893,3.3207 2.438638,3.3207 2.334865,0 2.90561,-1.66035 3.424469,-2.74995 z"
         style="font-family:OPTIEngeEtienne;-inkscape-font-specification:'OPTIEngeEtienne, Normal'"
         id="path7049" />
      <path
         d="m 61.00369,138.56341 v -3.16504 -3.89145 c 0.518859,1.19338 1.400919,1.8679 1.556577,2.02356 0.830174,0.57074 1.660348,0.57074 2.438637,0.15565 2.02355,-0.98583 1.816006,-3.52824 1.816006,-4.56596 v -24.85334 c 0,-1.24526 -0.259429,-3.42447 -2.542409,-3.42447 -1.867892,0 -2.542409,1.40092 -3.268811,2.43864 v -2.07544 h -5.032932 v 0.31132 c 1.245261,0.62263 1.089603,1.19337 1.089603,2.80183 v 34.2447 c 0,1.66035 0.155658,2.1792 -1.089603,2.85372 v 0.25943 h 6.07065 v -0.25943 c -1.245262,-0.62263 -1.037718,-1.24526 -1.037718,-2.85372 z m 0,-32.99943 c 0,-1.24527 0.570745,-2.02355 1.089604,-2.02355 0.674516,0 0.674516,0.62263 0.674516,1.14149 v 24.80145 c 0,1.14149 -0.155657,1.60847 -0.726402,1.60847 -1.037718,0 -1.037718,-1.60847 -1.037718,-2.74995 z"
         style="font-family:OPTIEngeEtienne;-inkscape-font-specification:'OPTIEngeEtienne, Normal'"
         id="path7051" />
      <path
         d="m 74.649597,131.35127 c -0.778288,0 -0.933946,-0.98583 -0.933946,-2.2311 v -6.95271 c 0,-3.00938 -0.155658,-4.66973 1.919778,-7.26402 v 13.43845 c 0,0.88206 0.155658,3.00938 -0.985832,3.00938 z m 0.985832,2.28298 h 4.981047 v -0.31132 c -1.193376,-0.57074 -1.037718,-1.19337 -1.037718,-2.80184 v -20.91001 c 0,-1.81601 0.363201,-6.22631 -2.386752,-8.04232 -1.452805,-0.93394 -3.528241,-0.83017 -4.773502,-0.10377 -2.957497,1.66035 -2.594295,5.39613 -2.594295,7.26403 l 4.202757,1.50469 c -0.778288,-3.42447 -0.62263,-4.46219 -0.518859,-5.03294 0.207544,-0.67451 0.518859,-1.50469 1.245262,-1.55657 0.933946,-0.0519 0.88206,0.83017 0.88206,1.86789 0,0.7264 0,1.4528 0,2.07544 0.05189,2.69806 -0.103772,3.47635 -1.089604,4.46218 -4.66973,4.87728 -4.773502,4.72162 -4.773502,10.94793 v 7.67911 c 0,2.49052 1.867892,3.3207 2.438637,3.3207 2.334865,0 2.90561,-1.66035 3.424469,-2.74995 z"
         style="font-family:OPTIEngeEtienne;-inkscape-font-specification:'OPTIEngeEtienne, Normal'"
         id="path7053" />
      <path
         d="m 87.413453,101.20556 h -5.032932 v 0.31132 c 1.245261,0.62263 1.089604,1.19337 1.089604,2.80183 v 26.20238 c 0,1.66035 0.155657,2.17921 -1.089604,2.80184 v 0.31132 h 5.759335 v -0.31132 c -0.933947,-0.46697 -0.726403,-1.14149 -0.726403,-2.74995 v -23.81563 c 0,-1.4528 0.25943,-2.95749 1.14149,-3.00938 0.674517,-0.0519 0.726402,0.77829 0.726402,1.91978 v 24.85334 c 0,1.66035 0.103772,2.28298 -0.778288,2.80184 v 0.31132 h 5.759335 v -0.31132 c -1.245262,-0.57074 -1.037718,-1.19337 -1.037718,-2.80184 v -25.11277 c 0,-1.66035 0.259429,-4.46219 -2.179208,-4.56596 -1.608463,-0.0519 -3.009382,1.60846 -3.632013,2.49052 z"
         style="font-family:OPTIEngeEtienne;-inkscape-font-specification:'OPTIEngeEtienne, Normal'"
         id="path7055" />
      <path
         d="m 106.55929,117.29019 v -9.08003 c 0,-2.85373 0.25943,-5.39614 -2.23109,-6.74517 -1.29715,-0.7264 -3.6839,-0.83017 -4.981049,-0.0519 -2.905611,1.71224 -2.646181,4.92916 -2.646181,6.38197 v 18.05629 c 0,2.12732 -0.311316,5.86311 2.490523,7.47157 1.349037,0.77829 3.372587,0.83018 4.721617,0.0519 3.00938,-1.66035 2.64618,-5.96688 2.64618,-9.39135 v -1.76412 l -4.20276,-1.60846 c 0.15566,0.83017 0.25943,4.82538 0.25943,5.55179 0,0.10377 0,3.21692 0,3.21692 0.0519,1.03772 -0.20754,2.17921 -0.93394,2.17921 -1.03772,0 -1.03772,-1.14149 -1.03772,-2.28298 V 117.29019 Z M 100.6443,105.097 c 0,-1.0896 0.31131,-1.76412 1.0896,-1.76412 0.62263,0 0.88206,0.7264 0.88206,1.29715 v 10.16964 h -1.97166 z"
         style="font-family:OPTIEngeEtienne;-inkscape-font-specification:'OPTIEngeEtienne, Normal'"
         id="path7057" />
      <path
         d="m 118.95992,110.38936 c 0.15566,-2.69806 0.46698,-6.48573 -1.86789,-8.56117 -1.0896,-1.03772 -3.11315,-1.14149 -4.35841,-0.77829 -1.81601,0.51886 -2.74996,2.07544 -3.16504,3.6839 -0.31132,1.24526 -0.10378,6.07065 0.0519,6.74517 0.67452,2.64618 1.34904,2.54241 4.46219,6.74516 0.62263,0.77829 1.14149,2.12733 1.40092,3.78768 0.67452,3.73578 0.41509,8.92437 -0.57075,9.28757 -0.46697,0.15566 -0.93394,-0.15566 -1.0896,-1.0896 -0.31132,-1.71224 -0.3632,-2.38675 -0.41509,-4.77351 -0.0519,-2.38675 0.31132,-4.92916 0.46698,-6.12253 l -4.09899,1.71223 -0.10377,2.5943 c -0.0519,1.66035 -0.41509,7.67911 2.23109,9.547 1.34904,0.98584 3.21693,0.93395 4.46219,0.41509 1.97166,-0.83017 2.59429,-2.33486 2.90561,-4.09899 0.41509,-2.33486 0.10377,-7.31591 -0.0519,-8.56117 -0.41508,-2.64618 -0.67451,-2.85372 -4.82538,-8.40551 -1.03772,-1.40092 -1.14149,-3.06127 -1.24527,-4.51408 0,-0.93394 -0.10377,-1.24526 -0.0519,-2.23109 0,-0.62263 -0.0519,-2.07544 0.77829,-2.17921 0.41508,-0.0519 0.7264,0.10377 0.98583,0.7264 0.15566,0.46698 0.41509,2.5943 0.41509,3.37259 0.10377,2.12732 0.0519,2.74995 -0.10378,4.66973 z"
         style="font-family:OPTIEngeEtienne;-inkscape-font-specification:'OPTIEngeEtienne, Normal'"
         id="path7059" />
      <path
         d="m 131.8276,117.29019 v -9.08003 c 0,-2.85373 0.25943,-5.39614 -2.23109,-6.74517 -1.29715,-0.7264 -3.6839,-0.83017 -4.98105,-0.0519 -2.90561,1.71224 -2.64618,4.92916 -2.64618,6.38197 v 18.05629 c 0,2.12732 -0.31131,5.86311 2.49052,7.47157 1.34904,0.77829 3.37259,0.83018 4.72162,0.0519 3.00938,-1.66035 2.64618,-5.96688 2.64618,-9.39135 v -1.76412 l -4.20276,-1.60846 c 0.15566,0.83017 0.25943,4.82538 0.25943,5.55179 0,0.10377 0,3.21692 0,3.21692 0.0519,1.03772 -0.20754,2.17921 -0.93394,2.17921 -1.03772,0 -1.03772,-1.14149 -1.03772,-2.28298 V 117.29019 Z M 125.91261,105.097 c 0,-1.0896 0.31131,-1.76412 1.0896,-1.76412 0.62263,0 0.88206,0.7264 0.88206,1.29715 v 10.16964 h -1.97166 z"
         style="font-family:OPTIEngeEtienne;-inkscape-font-specification:'OPTIEngeEtienne, Normal'"
         id="path7061" />
      <path
         d="M 148.06779,108.26204 V 93.059474 c 2.02355,0 2.28298,0 2.28298,2.127322 v 11.051694 c 0,1.60847 -0.57075,2.02355 -2.28298,2.02355 z m 4.4103,25.37221 h 3.37258 v -0.31132 c -1.24526,-0.57074 -1.0896,-1.19337 -1.0896,-2.80184 v -13.69787 c 0,-2.85373 0.3632,-6.43386 -2.80184,-6.90083 3.11315,-0.88206 2.85372,-3.37258 2.85372,-6.01876 v -9.131921 c 0,-1.608463 -0.67451,-4.669731 -4.66973,-4.669731 H 142.516 v 0.311315 c 1.24526,0.622631 1.0896,1.14149 1.0896,2.801839 v 37.305958 c 0,1.66035 0.15566,2.17921 -1.0896,2.80184 v 0.31132 h 3.26881 3.32069 v -0.31132 c -1.19337,-0.57074 -1.03771,-1.19337 -1.03771,-2.80184 v -19.66475 c 1.76412,0 2.23109,0.46697 2.23109,3.11315 v 15.61766 c 0,1.97166 0,3.32069 0.88206,4.0471 h 3.89144 z"
         style="font-family:OPTIEngeEtienne;-inkscape-font-specification:'OPTIEngeEtienne, Normal'"
         id="path7063" />
      <path
         d="M 164.20425,108.4177 V 93.059474 c 1.91977,0 2.28298,0.25943 2.28298,2.594295 v 10.636611 c 0,1.29715 -0.10378,2.12732 -2.28298,2.12732 z m 6.53762,-13.490334 c 0,-1.349033 -0.51886,-4.825388 -5.08482,-4.825388 h -7.0046 v 0.311315 c 1.24527,0.622631 1.08961,1.14149 1.08961,2.801839 v 37.305958 c 0,1.66035 0.15566,2.17921 -1.08961,2.80184 v 0.31132 h 3.26882 3.32069 v -0.31132 c -1.19337,-0.57074 -1.03771,-1.19337 -1.03771,-2.80184 v -18.93835 c 5.55179,0 6.53762,-1.76412 6.53762,-6.48574 z"
         style="font-family:OPTIEngeEtienne;-inkscape-font-specification:'OPTIEngeEtienne, Normal'"
         id="path7065" />
      <path
         d="m 178.26529,128.39377 v -24.17883 -9.702661 c 0,-0.985832 -0.20754,-2.127322 1.03772,-2.127322 1.29715,0 1.19338,1.556577 1.19338,2.179208 0,0.726403 0,3.372584 0,5.240476 0,3.476359 0.0519,4.254639 -0.67452,5.240479 l 4.61785,-2.02355 c 0.62263,-0.77829 0.51886,-4.462191 0.51886,-7.160257 -0.0519,-6.226308 -5.03294,-6.122536 -5.49991,-6.122536 -0.20754,0 -5.65556,-0.103772 -5.65556,5.914992 v 8.561171 c 0,0.10377 0,22.31094 0,22.31094 0,3.21692 -0.20755,5.86311 3.21692,7.21214 2.2311,0.88206 4.35842,0 5.81122,-1.86789 0.25943,0.51886 0.83018,1.40092 1.29715,1.86789 l 1.29715,-0.57075 c -0.62263,-0.67451 -0.51886,-2.59429 -0.51886,-3.37258 v -14.89125 c 0,-1.24526 -0.10377,-2.54241 1.19338,-2.90561 v -0.72641 h -6.79706 v 0.57075 c 1.34904,0.41509 1.29715,0.98583 1.29715,2.90561 V 128.29 c 0,1.66035 0,2.74995 -1.14149,2.74995 -1.19338,0 -1.19338,-1.29715 -1.19338,-2.64618 z"
         style="font-family:OPTIEngeEtienne;-inkscape-font-specification:'OPTIEngeEtienne, Normal'"
         id="path7067" />
    </g>
  </g>
</svg>
