<?xml version="1.0" encoding="UTF-8" standalone="no"?>
<!-- Created with Inkscape (http://www.inkscape.org/) -->

<svg
   width="124.61756mm"
   height="22.3004mm"
   viewBox="0 0 124.61756 22.3004"
   version="1.1"
   id="svg6452"
   inkscape:version="1.1 (c68e22c387, 2021-05-23)"
   sodipodi:docname="auto-simulationbuildandmanagement.svg"
   xmlns:inkscape="http://www.inkscape.org/namespaces/inkscape"
   xmlns:sodipodi="http://sodipodi.sourceforge.net/DTD/sodipodi-0.dtd"
   xmlns="http://www.w3.org/2000/svg"
   xmlns:svg="http://www.w3.org/2000/svg">
  <sodipodi:namedview
     id="namedview6454"
     pagecolor="#ffffff"
     bordercolor="#666666"
     borderopacity="1.0"
     inkscape:pageshadow="2"
     inkscape:pageopacity="0.0"
     inkscape:pagecheckerboard="0"
     inkscape:document-units="mm"
     showgrid="false"
     inkscape:zoom="1.8973437"
     inkscape:cx="235.85606"
     inkscape:cy="61.138107"
     inkscape:window-width="1920"
     inkscape:window-height="1138"
     inkscape:window-x="-8"
     inkscape:window-y="-8"
     inkscape:window-maximized="1"
     inkscape:current-layer="layer1"
     fit-margin-top="0"
     fit-margin-left="0"
     fit-margin-right="0"
     fit-margin-bottom="0" />
  <defs
     id="defs6449" />
  <g
     inkscape:label="Calque 1"
     inkscape:groupmode="layer"
     id="layer1"
     transform="translate(-42.474625,-185.90845)">
    <rect
       style="fill:#ffffff;fill-opacity:1;fill-rule:evenodd;stroke:none;stroke-width:5.28378;stroke-linecap:round;stroke-linejoin:round;stroke-miterlimit:4;stroke-dasharray:none;paint-order:stroke markers fill"
       id="rect13740"
       width="26.355927"
       height="10.59815"
       x="43.563095"
       y="191.685" />
    <rect
       style="fill:#ffffff;fill-opacity:1;fill-rule:evenodd;stroke:none;stroke-width:4.36525;stroke-linecap:round;stroke-linejoin:round;stroke-miterlimit:4;stroke-dasharray:none;paint-order:stroke markers fill"
       id="rect13866"
       width="17.988966"
       height="10.59815"
       x="76.37146"
       y="191.685" />
    <rect
       style="fill:#ffffff;fill-opacity:1;fill-rule:evenodd;stroke:none;stroke-width:8.2521;stroke-linecap:round;stroke-linejoin:round;stroke-miterlimit:4;stroke-dasharray:none;paint-order:stroke markers fill"
       id="rect13868"
       width="64.286148"
       height="10.59815"
       x="99.125626"
       y="191.685" />
    <g
       aria-label="Build and Management"
       id="text1547"
       style="font-size:18.3004px;line-height:1.25;font-family:'Rose Of Baltimore';-inkscape-font-specification:'Rose Of Baltimore';fill:#a50000;stroke:#ffffff;stroke-width:3.5;stroke-linecap:round;stroke-linejoin:round;stroke-miterlimit:4;stroke-dasharray:none;paint-order:stroke markers fill">
      <path
         d="m 44.474625,188.64046 h 2.781661 q 0.567312,0 1.079724,0.21961 0.512411,0.2196 0.878419,0.60391 0.384308,0.36601 0.603913,0.87842 0.219605,0.51241 0.219605,1.07972 v 1.95815 q 0,0.60391 -0.256206,1.15292 -0.237905,0.53071 -0.658814,0.89672 0.420909,0.38431 0.658814,0.91502 0.256206,0.53071 0.256206,1.15293 v 1.93984 q 0,0.58561 -0.219605,1.09802 -0.219605,0.49411 -0.603913,0.87842 -0.366008,0.36601 -0.878419,0.58562 -0.512412,0.2196 -1.079724,0.2196 h -2.781661 z m 3.129369,7.85088 q 0,-0.14641 -0.109803,-0.23791 -0.0915,-0.1098 -0.237905,-0.1098 -0.146403,0 -0.256206,0.1098 -0.0915,0.0915 -0.0915,0.23791 v 0.3111 2.96467 q 0,0.3477 0.347708,0.3477 0.146403,0 0.237905,-0.0915 0.109803,-0.1098 0.109803,-0.2562 v -2.96467 z m 0,-5.39862 q 0,-0.14641 -0.109803,-0.23791 -0.0915,-0.1098 -0.237905,-0.1098 -0.146403,0 -0.256206,0.1098 -0.0915,0.0915 -0.0915,0.23791 v 2.98296 0.29281 q 0,0.34771 0.347708,0.34771 0.146403,0 0.237905,-0.0915 0.109803,-0.1098 0.109803,-0.2562 v -0.29281 z"
         style="font-family:build;-inkscape-font-specification:'build, Normal';stroke:#ffffff;stroke-width:3.5;stroke-linecap:round;stroke-linejoin:round;stroke-miterlimit:4;stroke-dasharray:none;paint-order:stroke markers fill"
         id="path13472" />
      <path
         d="m 53.27711,192.46525 v 7.30186 q 0,0.1464 0.0915,0.2562 0.109802,0.0915 0.256205,0.0915 0.146403,0 0.237905,-0.0915 0.109803,-0.1098 0.109803,-0.2562 v -7.30186 h 2.433953 v 9.75411 h -2.433953 v -0.93332 q -0.494111,0.62221 -1.299329,0.86012 -0.146403,0.0366 -0.311106,0.0549 -0.146404,0.0183 -0.311107,0.0183 -0.494111,0 -0.860119,-0.34771 -0.347708,-0.36601 -0.347708,-0.87842 v -8.52798 z"
         style="font-family:build;-inkscape-font-specification:'build, Normal';stroke:#ffffff;stroke-width:3.5;stroke-linecap:round;stroke-linejoin:round;stroke-miterlimit:4;stroke-dasharray:none;paint-order:stroke markers fill"
         id="path13474" />
      <path
         d="m 57.284884,202.21936 v -9.75411 h 2.433953 v 9.75411 z m 0,-13.5789 h 2.433953 v 2.43396 h -2.433953 z"
         style="font-family:build;-inkscape-font-specification:'build, Normal';stroke:#ffffff;stroke-width:3.5;stroke-linecap:round;stroke-linejoin:round;stroke-miterlimit:4;stroke-dasharray:none;paint-order:stroke markers fill"
         id="path13476" />
      <path
         d="m 60.578927,202.21936 v -14.31091 h 2.433953 v 14.31091 z"
         style="font-family:build;-inkscape-font-specification:'build, Normal';stroke:#ffffff;stroke-width:3.5;stroke-linecap:round;stroke-linejoin:round;stroke-miterlimit:4;stroke-dasharray:none;paint-order:stroke markers fill"
         id="path13478" />
      <path
         d="m 66.782733,201.28604 q -0.494111,0.62221 -1.299329,0.86012 -0.146403,0.0366 -0.311106,0.0549 -0.146404,0.0183 -0.311107,0.0183 -0.494111,0 -0.860119,-0.34771 -0.347708,-0.36601 -0.347708,-0.87842 v -7.32016 q 0,-0.49411 0.347708,-0.84181 0.366008,-0.36601 0.860119,-0.36601 0.347707,0 0.622213,0.0732 0.805218,0.2196 1.299329,0.84182 v -5.47182 h 2.433953 v 14.31091 h -2.433953 z m 0,-6.36854 q 0,-0.1464 -0.109803,-0.2379 -0.0915,-0.10981 -0.237905,-0.10981 -0.146403,0 -0.256205,0.10981 -0.0915,0.0915 -0.0915,0.2379 v 4.84961 q 0,0.1464 0.0915,0.2562 0.109802,0.0915 0.256205,0.0915 0.146403,0 0.237905,-0.0915 0.109803,-0.1098 0.109803,-0.2562 z"
         style="font-family:build;-inkscape-font-specification:'build, Normal';stroke:#ffffff;stroke-width:3.5;stroke-linecap:round;stroke-linejoin:round;stroke-miterlimit:4;stroke-dasharray:none;paint-order:stroke markers fill"
         id="path13480" />
      <path
         d="m 78.714542,202.21936 v -0.93332 q -0.47581,0.60391 -1.299328,0.86012 -0.0732,0.0183 -0.146403,0.0366 -0.0732,0 -0.146404,0.0183 -0.0915,0.0183 -0.164703,0.0183 -0.0732,0 -0.146403,0 H 76.793 q -0.530711,0 -0.841818,-0.36601 -0.366008,-0.36601 -0.366008,-0.86012 v -2.41565 q 0,-0.45751 0.164703,-0.82352 0.201305,-0.38431 0.475811,-0.60391 0.146403,-0.1281 0.311107,-0.2013 0.164703,-0.0915 0.347707,-0.16471 0.366008,-0.1281 0.786917,-0.1281 0.43921,0 0.658815,-0.21961 0.219605,-0.2562 0.292806,-0.47581 0.0915,-0.3294 0.0915,-0.69541 v -0.34771 q 0,-0.1464 -0.109802,-0.2562 -0.0915,-0.0915 -0.237905,-0.0915 -0.146404,0 -0.237906,0.0915 -0.109802,0.1098 -0.109802,0.2562 v 0.36601 h -2.433953 v -0.0366 q 0,-0.54901 0.219605,-1.07973 0.219604,-0.51241 0.585612,-0.87841 0.384309,-0.38431 0.87842,-0.60392 0.512411,-0.2196 1.098024,-0.2196 0.549012,0 1.079723,0.2196 0.512411,0.21961 0.878419,0.60392 0.384309,0.366 0.603914,0.87841 0.219604,0.53072 0.219604,1.07973 v 6.97245 z m -0.109802,-2.19605 q 0.109802,-0.1098 0.109802,-0.2562 v -1.90324 q 0,-0.14641 -0.109802,-0.23791 -0.0915,-0.1098 -0.237905,-0.1098 -0.164704,0 -0.237906,0.1098 -0.109802,0.0915 -0.109802,0.23791 v 1.90324 q 0,0.1464 0.109802,0.2562 0.0915,0.0915 0.237906,0.0915 0.146403,0 0.237905,-0.0915 z"
         style="font-family:build;-inkscape-font-specification:'build, Normal';stroke:#ffffff;stroke-width:3.5;stroke-linecap:round;stroke-linejoin:round;stroke-miterlimit:4;stroke-dasharray:none;paint-order:stroke markers fill"
         id="path13482" />
      <path
         d="m 85.119661,202.21936 v -7.30186 q 0,-0.1464 -0.109803,-0.2379 -0.0915,-0.10981 -0.237905,-0.10981 -0.146403,0 -0.256206,0.10981 -0.0915,0.0915 -0.0915,0.2379 v 7.30186 h -2.433953 v -9.75411 h 2.433953 v 0.91502 q 0.512412,-0.62222 1.299329,-0.84182 0.274506,-0.0732 0.603913,-0.0732 0.512411,0 0.860119,0.36601 0.366008,0.3477 0.366008,0.84181 v 8.54629 z"
         style="font-family:build;-inkscape-font-specification:'build, Normal';stroke:#ffffff;stroke-width:3.5;stroke-linecap:round;stroke-linejoin:round;stroke-miterlimit:4;stroke-dasharray:none;paint-order:stroke markers fill"
         id="path13484" />
      <path
         d="m 91.323491,201.28604 q -0.494111,0.62221 -1.299328,0.86012 -0.146404,0.0366 -0.311107,0.0549 -0.146403,0.0183 -0.311107,0.0183 -0.494111,0 -0.860119,-0.34771 -0.347707,-0.36601 -0.347707,-0.87842 v -7.32016 q 0,-0.49411 0.347707,-0.84181 0.366008,-0.36601 0.860119,-0.36601 0.347708,0 0.622214,0.0732 0.805217,0.2196 1.299328,0.84182 v -5.47182 h 2.433953 v 14.31091 h -2.433953 z m 0,-6.36854 q 0,-0.1464 -0.109802,-0.2379 -0.0915,-0.10981 -0.237906,-0.10981 -0.146403,0 -0.256205,0.10981 -0.0915,0.0915 -0.0915,0.2379 v 4.84961 q 0,0.1464 0.0915,0.2562 0.109802,0.0915 0.256205,0.0915 0.146404,0 0.237906,-0.0915 0.109802,-0.1098 0.109802,-0.2562 z"
         style="font-family:build;-inkscape-font-specification:'build, Normal';stroke:#ffffff;stroke-width:3.5;stroke-linecap:round;stroke-linejoin:round;stroke-miterlimit:4;stroke-dasharray:none;paint-order:stroke markers fill"
         id="path13486" />
      <path
         d="m 104.18862,188.64046 h 2.43396 v 13.5789 h -2.43396 v -7.42996 l -0.78691,1.97644 -0.78692,-1.97644 v 7.42996 h -2.41565 v -13.5789 h 2.41565 v 0 0 l 0.78692,3.25747 z"
         style="font-family:build;-inkscape-font-specification:'build, Normal';stroke:#ffffff;stroke-width:3.5;stroke-linecap:round;stroke-linejoin:round;stroke-miterlimit:4;stroke-dasharray:none;paint-order:stroke markers fill"
         id="path13488" />
      <path
         d="m 110.55713,202.21936 v -0.93332 q -0.47581,0.60391 -1.29933,0.86012 -0.0732,0.0183 -0.1464,0.0366 -0.0732,0 -0.14641,0.0183 -0.0915,0.0183 -0.1647,0.0183 -0.0732,0 -0.1464,0 h -0.0183 q -0.53071,0 -0.84182,-0.36601 -0.36601,-0.36601 -0.36601,-0.86012 v -2.41565 q 0,-0.45751 0.1647,-0.82352 0.20131,-0.38431 0.47581,-0.60391 0.14641,-0.1281 0.31111,-0.2013 0.1647,-0.0915 0.34771,-0.16471 0.36601,-0.1281 0.78692,-0.1281 0.43921,0 0.65881,-0.21961 0.21961,-0.2562 0.29281,-0.47581 0.0915,-0.3294 0.0915,-0.69541 v -0.34771 q 0,-0.1464 -0.1098,-0.2562 -0.0915,-0.0915 -0.23791,-0.0915 -0.1464,0 -0.2379,0.0915 -0.10981,0.1098 -0.10981,0.2562 v 0.36601 h -2.43395 v -0.0366 q 0,-0.54901 0.21961,-1.07973 0.2196,-0.51241 0.58561,-0.87841 0.38431,-0.38431 0.87842,-0.60392 0.51241,-0.2196 1.09802,-0.2196 0.54901,0 1.07972,0.2196 0.51242,0.21961 0.87842,0.60392 0.38431,0.366 0.60392,0.87841 0.2196,0.53072 0.2196,1.07973 v 6.97245 z m -0.1098,-2.19605 q 0.1098,-0.1098 0.1098,-0.2562 v -1.90324 q 0,-0.14641 -0.1098,-0.23791 -0.0915,-0.1098 -0.23791,-0.1098 -0.1647,0 -0.2379,0.1098 -0.10981,0.0915 -0.10981,0.23791 v 1.90324 q 0,0.1464 0.10981,0.2562 0.0915,0.0915 0.2379,0.0915 0.1464,0 0.23791,-0.0915 z"
         style="font-family:build;-inkscape-font-specification:'build, Normal';stroke:#ffffff;stroke-width:3.5;stroke-linecap:round;stroke-linejoin:round;stroke-miterlimit:4;stroke-dasharray:none;paint-order:stroke markers fill"
         id="path13490" />
      <path
         d="m 116.96225,202.21936 v -7.30186 q 0,-0.1464 -0.10981,-0.2379 -0.0915,-0.10981 -0.2379,-0.10981 -0.1464,0 -0.25621,0.10981 -0.0915,0.0915 -0.0915,0.2379 v 7.30186 h -2.43395 v -9.75411 h 2.43395 v 0.91502 q 0.51241,-0.62222 1.29933,-0.84182 0.27451,-0.0732 0.60391,-0.0732 0.51241,0 0.86012,0.36601 0.36601,0.3477 0.36601,0.84181 v 8.54629 z"
         style="font-family:build;-inkscape-font-specification:'build, Normal';stroke:#ffffff;stroke-width:3.5;stroke-linecap:round;stroke-linejoin:round;stroke-miterlimit:4;stroke-dasharray:none;paint-order:stroke markers fill"
         id="path13492" />
      <path
         d="m 123.31248,202.21936 v -0.93332 q -0.47581,0.60391 -1.29932,0.86012 -0.0732,0.0183 -0.14641,0.0366 -0.0732,0 -0.1464,0.0183 -0.0915,0.0183 -0.1647,0.0183 -0.0732,0 -0.14641,0 h -0.0183 q -0.53071,0 -0.84182,-0.36601 -0.366,-0.36601 -0.366,-0.86012 v -2.41565 q 0,-0.45751 0.1647,-0.82352 0.2013,-0.38431 0.47581,-0.60391 0.1464,-0.1281 0.31111,-0.2013 0.1647,-0.0915 0.3477,-0.16471 0.36601,-0.1281 0.78692,-0.1281 0.43921,0 0.65882,-0.21961 0.2196,-0.2562 0.2928,-0.47581 0.0915,-0.3294 0.0915,-0.69541 v -0.34771 q 0,-0.1464 -0.1098,-0.2562 -0.0915,-0.0915 -0.2379,-0.0915 -0.14641,0 -0.23791,0.0915 -0.1098,0.1098 -0.1098,0.2562 v 0.36601 h -2.43395 v -0.0366 q 0,-0.54901 0.2196,-1.07973 0.21961,-0.51241 0.58561,-0.87841 0.38431,-0.38431 0.87842,-0.60392 0.51241,-0.2196 1.09803,-0.2196 0.54901,0 1.07972,0.2196 0.51241,0.21961 0.87842,0.60392 0.38431,0.366 0.60391,0.87841 0.21961,0.53072 0.21961,1.07973 v 6.97245 z m -0.1098,-2.19605 q 0.1098,-0.1098 0.1098,-0.2562 v -1.90324 q 0,-0.14641 -0.1098,-0.23791 -0.0915,-0.1098 -0.2379,-0.1098 -0.16471,0 -0.23791,0.1098 -0.1098,0.0915 -0.1098,0.23791 v 1.90324 q 0,0.1464 0.1098,0.2562 0.0915,0.0915 0.23791,0.0915 0.1464,0 0.2379,-0.0915 z"
         style="font-family:build;-inkscape-font-specification:'build, Normal';stroke:#ffffff;stroke-width:3.5;stroke-linecap:round;stroke-linejoin:round;stroke-miterlimit:4;stroke-dasharray:none;paint-order:stroke markers fill"
         id="path13494" />
      <path
         d="m 129.68099,201.28604 q -0.49411,0.62221 -1.29932,0.86012 -0.14641,0.0366 -0.31111,0.0549 -0.1464,0.0183 -0.31111,0.0183 -0.49411,0 -0.86012,-0.34771 -0.3477,-0.36601 -0.3477,-0.87842 v -7.32016 q 0,-0.49411 0.3477,-0.84181 0.36601,-0.36601 0.86012,-0.36601 0.34771,0 0.62222,0.0732 0.80521,0.2196 1.29932,0.84182 v -0.91502 h 2.43396 v 10.96194 q 0,0.58561 -0.21961,1.07972 -0.2196,0.51241 -0.60391,0.87842 -0.36601,0.38431 -0.87842,0.60391 -0.51241,0.21961 -1.07972,0.21961 -0.58562,0 -1.09803,-0.21961 -0.49411,-0.2196 -0.87842,-0.60391 -0.366,-0.36601 -0.58561,-0.87842 -0.2196,-0.49411 -0.2196,-1.07972 v -0.0366 h 2.43395 v 0.366 q 0,0.14641 0.0915,0.23791 0.1098,0.1098 0.25621,0.1098 0.1464,0 0.2379,-0.1098 0.1098,-0.0915 0.1098,-0.23791 z m 0,-6.36854 q 0,-0.1464 -0.1098,-0.2379 -0.0915,-0.10981 -0.2379,-0.10981 -0.14641,0 -0.25621,0.10981 -0.0915,0.0915 -0.0915,0.2379 v 4.84961 q 0,0.1464 0.0915,0.2562 0.1098,0.0915 0.25621,0.0915 0.1464,0 0.2379,-0.0915 0.1098,-0.1098 0.1098,-0.2562 z"
         style="font-family:build;-inkscape-font-specification:'build, Normal';stroke:#ffffff;stroke-width:3.5;stroke-linecap:round;stroke-linejoin:round;stroke-miterlimit:4;stroke-dasharray:none;paint-order:stroke markers fill"
         id="path13496" />
      <path
         d="m 135.31752,197.33315 v 2.43396 q 0,0.1464 0.0915,0.2562 0.1098,0.0915 0.2562,0.0915 0.14641,0 0.23791,-0.0915 0.1098,-0.1098 0.1098,-0.2562 v -1.72024 h 2.43395 v 1.39083 q 0,0.58561 -0.2196,1.09802 -0.2196,0.49411 -0.60391,0.87842 -0.36601,0.36601 -0.87842,0.58562 -0.51241,0.2196 -1.07973,0.2196 -0.58561,0 -1.09802,-0.2196 -0.49411,-0.21961 -0.87842,-0.58562 -0.36601,-0.38431 -0.58561,-0.87842 -0.21961,-0.51241 -0.21961,-1.09802 v -4.19079 q 0,-0.56731 0.21961,-1.07973 0.2196,-0.51241 0.58561,-0.87841 0.38431,-0.38431 0.87842,-0.60392 0.51241,-0.2196 1.09802,-0.2196 0.56732,0 1.07973,0.2196 0.51241,0.21961 0.87842,0.60392 0.38431,0.366 0.60391,0.87841 0.2196,0.51242 0.2196,1.07973 v 2.08624 z m 0.3477,-2.76336 q -0.3477,0 -0.3477,0.34771 v 1.72024 h 0.69541 v -1.72024 q 0,-0.1464 -0.1098,-0.2379 -0.0915,-0.10981 -0.23791,-0.10981 z"
         style="font-family:build;-inkscape-font-specification:'build, Normal';stroke:#ffffff;stroke-width:3.5;stroke-linecap:round;stroke-linejoin:round;stroke-miterlimit:4;stroke-dasharray:none;paint-order:stroke markers fill"
         id="path13498" />
      <path
         d="m 145.80362,192.46525 q 0.43921,0 0.75031,0.36601 0.31111,0.3477 0.31111,0.84181 v 8.54629 h -2.14115 v -7.30186 q 0,-0.1464 -0.0915,-0.2379 -0.0732,-0.10981 -0.2013,-0.10981 -0.14641,0 -0.23791,0.10981 -0.0732,0.0915 -0.0732,0.2379 v 7.30186 h -2.14115 v -7.30186 q 0,-0.1464 -0.0915,-0.2379 -0.0732,-0.10981 -0.2196,-0.10981 -0.12811,0 -0.21961,0.10981 -0.0732,0.0915 -0.0732,0.2379 v 7.30186 h -2.14115 v -9.75411 h 2.14115 v 0.93332 q 0.2379,-0.38431 0.60391,-0.60392 0.25621,-0.183 0.53071,-0.2562 0.14641,-0.0366 0.27451,-0.0549 0.1281,-0.0183 0.27451,-0.0183 0.3843,0 0.65881,0.2745 0.29281,0.27451 0.38431,0.69542 l 0.0183,-0.0366 q 0.40261,-0.62222 1.13462,-0.86012 0.14641,-0.0366 0.27451,-0.0549 0.1281,-0.0183 0.27451,-0.0183 z"
         style="font-family:build;-inkscape-font-specification:'build, Normal';stroke:#ffffff;stroke-width:3.5;stroke-linecap:round;stroke-linejoin:round;stroke-miterlimit:4;stroke-dasharray:none;paint-order:stroke markers fill"
         id="path13500" />
      <path
         d="m 150.08589,197.33315 v 2.43396 q 0,0.1464 0.0915,0.2562 0.1098,0.0915 0.25621,0.0915 0.1464,0 0.2379,-0.0915 0.1098,-0.1098 0.1098,-0.2562 v -1.72024 h 2.43396 v 1.39083 q 0,0.58561 -0.21961,1.09802 -0.2196,0.49411 -0.60391,0.87842 -0.36601,0.36601 -0.87842,0.58562 -0.51241,0.2196 -1.07972,0.2196 -0.58562,0 -1.09803,-0.2196 -0.49411,-0.21961 -0.87842,-0.58562 -0.36601,-0.38431 -0.58561,-0.87842 -0.21961,-0.51241 -0.21961,-1.09802 v -4.19079 q 0,-0.56731 0.21961,-1.07973 0.2196,-0.51241 0.58561,-0.87841 0.38431,-0.38431 0.87842,-0.60392 0.51241,-0.2196 1.09803,-0.2196 0.56731,0 1.07972,0.2196 0.51241,0.21961 0.87842,0.60392 0.38431,0.366 0.60391,0.87841 0.21961,0.51242 0.21961,1.07973 v 2.08624 z m 0.34771,-2.76336 q -0.34771,0 -0.34771,0.34771 v 1.72024 h 0.69541 v -1.72024 q 0,-0.1464 -0.1098,-0.2379 -0.0915,-0.10981 -0.2379,-0.10981 z"
         style="font-family:build;-inkscape-font-specification:'build, Normal';stroke:#ffffff;stroke-width:3.5;stroke-linecap:round;stroke-linejoin:round;stroke-miterlimit:4;stroke-dasharray:none;paint-order:stroke markers fill"
         id="path13502" />
      <path
         d="m 157.13151,202.21936 v -7.30186 q 0,-0.1464 -0.1098,-0.2379 -0.0915,-0.10981 -0.2379,-0.10981 -0.14641,0 -0.25621,0.10981 -0.0915,0.0915 -0.0915,0.2379 v 7.30186 h -2.43396 v -9.75411 h 2.43396 v 0.91502 q 0.51241,-0.62222 1.29933,-0.84182 0.2745,-0.0732 0.60391,-0.0732 0.51241,0 0.86012,0.36601 0.36601,0.3477 0.36601,0.84181 v 8.54629 z"
         style="font-family:build;-inkscape-font-specification:'build, Normal';stroke:#ffffff;stroke-width:3.5;stroke-linecap:round;stroke-linejoin:round;stroke-miterlimit:4;stroke-dasharray:none;paint-order:stroke markers fill"
         id="path13504" />
      <path
         d="m 165.09219,192.46525 v 2.43395 h -1.22613 v 7.32016 h -2.43395 v -7.32016 h -1.28103 v -2.43395 h 1.28103 v -4.5568 h 2.43395 v 4.5568 z"
         style="font-family:build;-inkscape-font-specification:'build, Normal';stroke:#ffffff;stroke-width:3.5;stroke-linecap:round;stroke-linejoin:round;stroke-miterlimit:4;stroke-dasharray:none;paint-order:stroke markers fill"
         id="path13506" />
    </g>
    <g
       aria-label="Build and Management"
       id="g13644"
       style="font-size:18.3004px;line-height:1.25;font-family:'Rose Of Baltimore';-inkscape-font-specification:'Rose Of Baltimore';fill:#a50000;stroke-width:0.190628">
      <path
         d="m 44.474625,188.64046 h 2.781661 q 0.567312,0 1.079724,0.21961 0.512411,0.2196 0.878419,0.60391 0.384308,0.36601 0.603913,0.87842 0.219605,0.51241 0.219605,1.07972 v 1.95815 q 0,0.60391 -0.256206,1.15292 -0.237905,0.53071 -0.658814,0.89672 0.420909,0.38431 0.658814,0.91502 0.256206,0.53071 0.256206,1.15293 v 1.93984 q 0,0.58561 -0.219605,1.09802 -0.219605,0.49411 -0.603913,0.87842 -0.366008,0.36601 -0.878419,0.58562 -0.512412,0.2196 -1.079724,0.2196 h -2.781661 z m 3.129369,7.85088 q 0,-0.14641 -0.109803,-0.23791 -0.0915,-0.1098 -0.237905,-0.1098 -0.146403,0 -0.256206,0.1098 -0.0915,0.0915 -0.0915,0.23791 v 0.3111 2.96467 q 0,0.3477 0.347708,0.3477 0.146403,0 0.237905,-0.0915 0.109803,-0.1098 0.109803,-0.2562 v -2.96467 z m 0,-5.39862 q 0,-0.14641 -0.109803,-0.23791 -0.0915,-0.1098 -0.237905,-0.1098 -0.146403,0 -0.256206,0.1098 -0.0915,0.0915 -0.0915,0.23791 v 2.98296 0.29281 q 0,0.34771 0.347708,0.34771 0.146403,0 0.237905,-0.0915 0.109803,-0.1098 0.109803,-0.2562 v -0.29281 z"
         style="font-family:build;-inkscape-font-specification:'build, Normal'"
         id="path13608" />
      <path
         d="m 53.27711,192.46525 v 7.30186 q 0,0.1464 0.0915,0.2562 0.109802,0.0915 0.256205,0.0915 0.146403,0 0.237905,-0.0915 0.109803,-0.1098 0.109803,-0.2562 v -7.30186 h 2.433953 v 9.75411 h -2.433953 v -0.93332 q -0.494111,0.62221 -1.299329,0.86012 -0.146403,0.0366 -0.311106,0.0549 -0.146404,0.0183 -0.311107,0.0183 -0.494111,0 -0.860119,-0.34771 -0.347708,-0.36601 -0.347708,-0.87842 v -8.52798 z"
         style="font-family:build;-inkscape-font-specification:'build, Normal'"
         id="path13610" />
      <path
         d="m 57.284884,202.21936 v -9.75411 h 2.433953 v 9.75411 z m 0,-13.5789 h 2.433953 v 2.43396 h -2.433953 z"
         style="font-family:build;-inkscape-font-specification:'build, Normal'"
         id="path13612" />
      <path
         d="m 60.578927,202.21936 v -14.31091 h 2.433953 v 14.31091 z"
         style="font-family:build;-inkscape-font-specification:'build, Normal'"
         id="path13614" />
      <path
         d="m 66.782733,201.28604 q -0.494111,0.62221 -1.299329,0.86012 -0.146403,0.0366 -0.311106,0.0549 -0.146404,0.0183 -0.311107,0.0183 -0.494111,0 -0.860119,-0.34771 -0.347708,-0.36601 -0.347708,-0.87842 v -7.32016 q 0,-0.49411 0.347708,-0.84181 0.366008,-0.36601 0.860119,-0.36601 0.347707,0 0.622213,0.0732 0.805218,0.2196 1.299329,0.84182 v -5.47182 h 2.433953 v 14.31091 h -2.433953 z m 0,-6.36854 q 0,-0.1464 -0.109803,-0.2379 -0.0915,-0.10981 -0.237905,-0.10981 -0.146403,0 -0.256205,0.10981 -0.0915,0.0915 -0.0915,0.2379 v 4.84961 q 0,0.1464 0.0915,0.2562 0.109802,0.0915 0.256205,0.0915 0.146403,0 0.237905,-0.0915 0.109803,-0.1098 0.109803,-0.2562 z"
         style="font-family:build;-inkscape-font-specification:'build, Normal'"
         id="path13616" />
      <path
         d="m 78.714542,202.21936 v -0.93332 q -0.47581,0.60391 -1.299328,0.86012 -0.0732,0.0183 -0.146403,0.0366 -0.0732,0 -0.146404,0.0183 -0.0915,0.0183 -0.164703,0.0183 -0.0732,0 -0.146403,0 H 76.793 q -0.530711,0 -0.841818,-0.36601 -0.366008,-0.36601 -0.366008,-0.86012 v -2.41565 q 0,-0.45751 0.164703,-0.82352 0.201305,-0.38431 0.475811,-0.60391 0.146403,-0.1281 0.311107,-0.2013 0.164703,-0.0915 0.347707,-0.16471 0.366008,-0.1281 0.786917,-0.1281 0.43921,0 0.658815,-0.21961 0.219605,-0.2562 0.292806,-0.47581 0.0915,-0.3294 0.0915,-0.69541 v -0.34771 q 0,-0.1464 -0.109802,-0.2562 -0.0915,-0.0915 -0.237905,-0.0915 -0.146404,0 -0.237906,0.0915 -0.109802,0.1098 -0.109802,0.2562 v 0.36601 h -2.433953 v -0.0366 q 0,-0.54901 0.219605,-1.07973 0.219604,-0.51241 0.585612,-0.87841 0.384309,-0.38431 0.87842,-0.60392 0.512411,-0.2196 1.098024,-0.2196 0.549012,0 1.079723,0.2196 0.512411,0.21961 0.878419,0.60392 0.384309,0.366 0.603914,0.87841 0.219604,0.53072 0.219604,1.07973 v 6.97245 z m -0.109802,-2.19605 q 0.109802,-0.1098 0.109802,-0.2562 v -1.90324 q 0,-0.14641 -0.109802,-0.23791 -0.0915,-0.1098 -0.237905,-0.1098 -0.164704,0 -0.237906,0.1098 -0.109802,0.0915 -0.109802,0.23791 v 1.90324 q 0,0.1464 0.109802,0.2562 0.0915,0.0915 0.237906,0.0915 0.146403,0 0.237905,-0.0915 z"
         style="font-family:build;-inkscape-font-specification:'build, Normal'"
         id="path13618" />
      <path
         d="m 85.119661,202.21936 v -7.30186 q 0,-0.1464 -0.109803,-0.2379 -0.0915,-0.10981 -0.237905,-0.10981 -0.146403,0 -0.256206,0.10981 -0.0915,0.0915 -0.0915,0.2379 v 7.30186 h -2.433953 v -9.75411 h 2.433953 v 0.91502 q 0.512412,-0.62222 1.299329,-0.84182 0.274506,-0.0732 0.603913,-0.0732 0.512411,0 0.860119,0.36601 0.366008,0.3477 0.366008,0.84181 v 8.54629 z"
         style="font-family:build;-inkscape-font-specification:'build, Normal'"
         id="path13620" />
      <path
         d="m 91.323491,201.28604 q -0.494111,0.62221 -1.299328,0.86012 -0.146404,0.0366 -0.311107,0.0549 -0.146403,0.0183 -0.311107,0.0183 -0.494111,0 -0.860119,-0.34771 -0.347707,-0.36601 -0.347707,-0.87842 v -7.32016 q 0,-0.49411 0.347707,-0.84181 0.366008,-0.36601 0.860119,-0.36601 0.347708,0 0.622214,0.0732 0.805217,0.2196 1.299328,0.84182 v -5.47182 h 2.433953 v 14.31091 h -2.433953 z m 0,-6.36854 q 0,-0.1464 -0.109802,-0.2379 -0.0915,-0.10981 -0.237906,-0.10981 -0.146403,0 -0.256205,0.10981 -0.0915,0.0915 -0.0915,0.2379 v 4.84961 q 0,0.1464 0.0915,0.2562 0.109802,0.0915 0.256205,0.0915 0.146404,0 0.237906,-0.0915 0.109802,-0.1098 0.109802,-0.2562 z"
         style="font-family:build;-inkscape-font-specification:'build, Normal'"
         id="path13622" />
      <path
         d="m 104.18862,188.64046 h 2.43396 v 13.5789 h -2.43396 v -7.42996 l -0.78691,1.97644 -0.78692,-1.97644 v 7.42996 h -2.41565 v -13.5789 h 2.41565 v 0 0 l 0.78692,3.25747 z"
         style="font-family:build;-inkscape-font-specification:'build, Normal'"
         id="path13624" />
      <path
         d="m 110.55713,202.21936 v -0.93332 q -0.47581,0.60391 -1.29933,0.86012 -0.0732,0.0183 -0.1464,0.0366 -0.0732,0 -0.14641,0.0183 -0.0915,0.0183 -0.1647,0.0183 -0.0732,0 -0.1464,0 h -0.0183 q -0.53071,0 -0.84182,-0.36601 -0.36601,-0.36601 -0.36601,-0.86012 v -2.41565 q 0,-0.45751 0.1647,-0.82352 0.20131,-0.38431 0.47581,-0.60391 0.14641,-0.1281 0.31111,-0.2013 0.1647,-0.0915 0.34771,-0.16471 0.36601,-0.1281 0.78692,-0.1281 0.43921,0 0.65881,-0.21961 0.21961,-0.2562 0.29281,-0.47581 0.0915,-0.3294 0.0915,-0.69541 v -0.34771 q 0,-0.1464 -0.1098,-0.2562 -0.0915,-0.0915 -0.23791,-0.0915 -0.1464,0 -0.2379,0.0915 -0.10981,0.1098 -0.10981,0.2562 v 0.36601 h -2.43395 v -0.0366 q 0,-0.54901 0.21961,-1.07973 0.2196,-0.51241 0.58561,-0.87841 0.38431,-0.38431 0.87842,-0.60392 0.51241,-0.2196 1.09802,-0.2196 0.54901,0 1.07972,0.2196 0.51242,0.21961 0.87842,0.60392 0.38431,0.366 0.60392,0.87841 0.2196,0.53072 0.2196,1.07973 v 6.97245 z m -0.1098,-2.19605 q 0.1098,-0.1098 0.1098,-0.2562 v -1.90324 q 0,-0.14641 -0.1098,-0.23791 -0.0915,-0.1098 -0.23791,-0.1098 -0.1647,0 -0.2379,0.1098 -0.10981,0.0915 -0.10981,0.23791 v 1.90324 q 0,0.1464 0.10981,0.2562 0.0915,0.0915 0.2379,0.0915 0.1464,0 0.23791,-0.0915 z"
         style="font-family:build;-inkscape-font-specification:'build, Normal'"
         id="path13626" />
      <path
         d="m 116.96225,202.21936 v -7.30186 q 0,-0.1464 -0.10981,-0.2379 -0.0915,-0.10981 -0.2379,-0.10981 -0.1464,0 -0.25621,0.10981 -0.0915,0.0915 -0.0915,0.2379 v 7.30186 h -2.43395 v -9.75411 h 2.43395 v 0.91502 q 0.51241,-0.62222 1.29933,-0.84182 0.27451,-0.0732 0.60391,-0.0732 0.51241,0 0.86012,0.36601 0.36601,0.3477 0.36601,0.84181 v 8.54629 z"
         style="font-family:build;-inkscape-font-specification:'build, Normal'"
         id="path13628" />
      <path
         d="m 123.31248,202.21936 v -0.93332 q -0.47581,0.60391 -1.29932,0.86012 -0.0732,0.0183 -0.14641,0.0366 -0.0732,0 -0.1464,0.0183 -0.0915,0.0183 -0.1647,0.0183 -0.0732,0 -0.14641,0 h -0.0183 q -0.53071,0 -0.84182,-0.36601 -0.366,-0.36601 -0.366,-0.86012 v -2.41565 q 0,-0.45751 0.1647,-0.82352 0.2013,-0.38431 0.47581,-0.60391 0.1464,-0.1281 0.31111,-0.2013 0.1647,-0.0915 0.3477,-0.16471 0.36601,-0.1281 0.78692,-0.1281 0.43921,0 0.65882,-0.21961 0.2196,-0.2562 0.2928,-0.47581 0.0915,-0.3294 0.0915,-0.69541 v -0.34771 q 0,-0.1464 -0.1098,-0.2562 -0.0915,-0.0915 -0.2379,-0.0915 -0.14641,0 -0.23791,0.0915 -0.1098,0.1098 -0.1098,0.2562 v 0.36601 h -2.43395 v -0.0366 q 0,-0.54901 0.2196,-1.07973 0.21961,-0.51241 0.58561,-0.87841 0.38431,-0.38431 0.87842,-0.60392 0.51241,-0.2196 1.09803,-0.2196 0.54901,0 1.07972,0.2196 0.51241,0.21961 0.87842,0.60392 0.38431,0.366 0.60391,0.87841 0.21961,0.53072 0.21961,1.07973 v 6.97245 z m -0.1098,-2.19605 q 0.1098,-0.1098 0.1098,-0.2562 v -1.90324 q 0,-0.14641 -0.1098,-0.23791 -0.0915,-0.1098 -0.2379,-0.1098 -0.16471,0 -0.23791,0.1098 -0.1098,0.0915 -0.1098,0.23791 v 1.90324 q 0,0.1464 0.1098,0.2562 0.0915,0.0915 0.23791,0.0915 0.1464,0 0.2379,-0.0915 z"
         style="font-family:build;-inkscape-font-specification:'build, Normal'"
         id="path13630" />
      <path
         d="m 129.68099,201.28604 q -0.49411,0.62221 -1.29932,0.86012 -0.14641,0.0366 -0.31111,0.0549 -0.1464,0.0183 -0.31111,0.0183 -0.49411,0 -0.86012,-0.34771 -0.3477,-0.36601 -0.3477,-0.87842 v -7.32016 q 0,-0.49411 0.3477,-0.84181 0.36601,-0.36601 0.86012,-0.36601 0.34771,0 0.62222,0.0732 0.80521,0.2196 1.29932,0.84182 v -0.91502 h 2.43396 v 10.96194 q 0,0.58561 -0.21961,1.07972 -0.2196,0.51241 -0.60391,0.87842 -0.36601,0.38431 -0.87842,0.60391 -0.51241,0.21961 -1.07972,0.21961 -0.58562,0 -1.09803,-0.21961 -0.49411,-0.2196 -0.87842,-0.60391 -0.366,-0.36601 -0.58561,-0.87842 -0.2196,-0.49411 -0.2196,-1.07972 v -0.0366 h 2.43395 v 0.366 q 0,0.14641 0.0915,0.23791 0.1098,0.1098 0.25621,0.1098 0.1464,0 0.2379,-0.1098 0.1098,-0.0915 0.1098,-0.23791 z m 0,-6.36854 q 0,-0.1464 -0.1098,-0.2379 -0.0915,-0.10981 -0.2379,-0.10981 -0.14641,0 -0.25621,0.10981 -0.0915,0.0915 -0.0915,0.2379 v 4.84961 q 0,0.1464 0.0915,0.2562 0.1098,0.0915 0.25621,0.0915 0.1464,0 0.2379,-0.0915 0.1098,-0.1098 0.1098,-0.2562 z"
         style="font-family:build;-inkscape-font-specification:'build, Normal'"
         id="path13632" />
      <path
         d="m 135.31752,197.33315 v 2.43396 q 0,0.1464 0.0915,0.2562 0.1098,0.0915 0.2562,0.0915 0.14641,0 0.23791,-0.0915 0.1098,-0.1098 0.1098,-0.2562 v -1.72024 h 2.43395 v 1.39083 q 0,0.58561 -0.2196,1.09802 -0.2196,0.49411 -0.60391,0.87842 -0.36601,0.36601 -0.87842,0.58562 -0.51241,0.2196 -1.07973,0.2196 -0.58561,0 -1.09802,-0.2196 -0.49411,-0.21961 -0.87842,-0.58562 -0.36601,-0.38431 -0.58561,-0.87842 -0.21961,-0.51241 -0.21961,-1.09802 v -4.19079 q 0,-0.56731 0.21961,-1.07973 0.2196,-0.51241 0.58561,-0.87841 0.38431,-0.38431 0.87842,-0.60392 0.51241,-0.2196 1.09802,-0.2196 0.56732,0 1.07973,0.2196 0.51241,0.21961 0.87842,0.60392 0.38431,0.366 0.60391,0.87841 0.2196,0.51242 0.2196,1.07973 v 2.08624 z m 0.3477,-2.76336 q -0.3477,0 -0.3477,0.34771 v 1.72024 h 0.69541 v -1.72024 q 0,-0.1464 -0.1098,-0.2379 -0.0915,-0.10981 -0.23791,-0.10981 z"
         style="font-family:build;-inkscape-font-specification:'build, Normal'"
         id="path13634" />
      <path
         d="m 145.80362,192.46525 q 0.43921,0 0.75031,0.36601 0.31111,0.3477 0.31111,0.84181 v 8.54629 h -2.14115 v -7.30186 q 0,-0.1464 -0.0915,-0.2379 -0.0732,-0.10981 -0.2013,-0.10981 -0.14641,0 -0.23791,0.10981 -0.0732,0.0915 -0.0732,0.2379 v 7.30186 h -2.14115 v -7.30186 q 0,-0.1464 -0.0915,-0.2379 -0.0732,-0.10981 -0.2196,-0.10981 -0.12811,0 -0.21961,0.10981 -0.0732,0.0915 -0.0732,0.2379 v 7.30186 h -2.14115 v -9.75411 h 2.14115 v 0.93332 q 0.2379,-0.38431 0.60391,-0.60392 0.25621,-0.183 0.53071,-0.2562 0.14641,-0.0366 0.27451,-0.0549 0.1281,-0.0183 0.27451,-0.0183 0.3843,0 0.65881,0.2745 0.29281,0.27451 0.38431,0.69542 l 0.0183,-0.0366 q 0.40261,-0.62222 1.13462,-0.86012 0.14641,-0.0366 0.27451,-0.0549 0.1281,-0.0183 0.27451,-0.0183 z"
         style="font-family:build;-inkscape-font-specification:'build, Normal'"
         id="path13636" />
      <path
         d="m 150.08589,197.33315 v 2.43396 q 0,0.1464 0.0915,0.2562 0.1098,0.0915 0.25621,0.0915 0.1464,0 0.2379,-0.0915 0.1098,-0.1098 0.1098,-0.2562 v -1.72024 h 2.43396 v 1.39083 q 0,0.58561 -0.21961,1.09802 -0.2196,0.49411 -0.60391,0.87842 -0.36601,0.36601 -0.87842,0.58562 -0.51241,0.2196 -1.07972,0.2196 -0.58562,0 -1.09803,-0.2196 -0.49411,-0.21961 -0.87842,-0.58562 -0.36601,-0.38431 -0.58561,-0.87842 -0.21961,-0.51241 -0.21961,-1.09802 v -4.19079 q 0,-0.56731 0.21961,-1.07973 0.2196,-0.51241 0.58561,-0.87841 0.38431,-0.38431 0.87842,-0.60392 0.51241,-0.2196 1.09803,-0.2196 0.56731,0 1.07972,0.2196 0.51241,0.21961 0.87842,0.60392 0.38431,0.366 0.60391,0.87841 0.21961,0.51242 0.21961,1.07973 v 2.08624 z m 0.34771,-2.76336 q -0.34771,0 -0.34771,0.34771 v 1.72024 h 0.69541 v -1.72024 q 0,-0.1464 -0.1098,-0.2379 -0.0915,-0.10981 -0.2379,-0.10981 z"
         style="font-family:build;-inkscape-font-specification:'build, Normal'"
         id="path13638" />
      <path
         d="m 157.13151,202.21936 v -7.30186 q 0,-0.1464 -0.1098,-0.2379 -0.0915,-0.10981 -0.2379,-0.10981 -0.14641,0 -0.25621,0.10981 -0.0915,0.0915 -0.0915,0.2379 v 7.30186 h -2.43396 v -9.75411 h 2.43396 v 0.91502 q 0.51241,-0.62222 1.29933,-0.84182 0.2745,-0.0732 0.60391,-0.0732 0.51241,0 0.86012,0.36601 0.36601,0.3477 0.36601,0.84181 v 8.54629 z"
         style="font-family:build;-inkscape-font-specification:'build, Normal'"
         id="path13640" />
      <path
         d="m 165.09219,192.46525 v 2.43395 h -1.22613 v 7.32016 h -2.43395 v -7.32016 h -1.28103 v -2.43395 h 1.28103 v -4.5568 h 2.43395 v 4.5568 z"
         style="font-family:build;-inkscape-font-specification:'build, Normal'"
         id="path13642" />
    </g>
  </g>
</svg>
