<?xml version="1.0" encoding="UTF-8" standalone="no"?>
<!-- Created with Inkscape (http://www.inkscape.org/) -->

<svg
   width="183.19897mm"
   height="37.996029mm"
   viewBox="0 0 183.19897 37.996029"
   version="1.1"
   id="svg834"
   inkscape:version="1.1 (c68e22c387, 2021-05-23)"
   sodipodi:docname="auto-digitalcard.svg"
   xmlns:inkscape="http://www.inkscape.org/namespaces/inkscape"
   xmlns:sodipodi="http://sodipodi.sourceforge.net/DTD/sodipodi-0.dtd"
   xmlns="http://www.w3.org/2000/svg"
   xmlns:svg="http://www.w3.org/2000/svg">
  <sodipodi:namedview
     id="namedview836"
     pagecolor="#ffffff"
     bordercolor="#666666"
     borderopacity="1.0"
     inkscape:pageshadow="2"
     inkscape:pageopacity="0.0"
     inkscape:pagecheckerboard="0"
     inkscape:document-units="mm"
     showgrid="false"
     inkscape:zoom="0.94867184"
     inkscape:cx="337.84074"
     inkscape:cy="23.190316"
     inkscape:window-width="1920"
     inkscape:window-height="1138"
     inkscape:window-x="-8"
     inkscape:window-y="-8"
     inkscape:window-maximized="1"
     inkscape:current-layer="layer1"
     fit-margin-top="0"
     fit-margin-left="0"
     fit-margin-right="0"
     fit-margin-bottom="0" />
  <defs
     id="defs831" />
  <g
     inkscape:label="Calque 1"
     inkscape:groupmode="layer"
     id="layer1"
     transform="translate(-13.699248,-124.43816)">
    <ellipse
       style="fill:#ffffff;fill-rule:evenodd;stroke:none;stroke-width:4.01571;stroke-linecap:round;stroke-linejoin:round;paint-order:stroke markers fill"
       id="path888"
       cx="25.412992"
       cy="143.12437"
       rx="8.924757"
       ry="17.012819" />
    <ellipse
       style="fill:#ffffff;fill-rule:evenodd;stroke:none;stroke-width:4;stroke-linecap:round;stroke-linejoin:round;paint-order:stroke markers fill"
       id="path1036"
       cx="35.453346"
       cy="146.19226"
       rx="4.7412777"
       ry="5.2990751" />
    <ellipse
       style="fill:#ffffff;fill-rule:evenodd;stroke:none;stroke-width:3.85566;stroke-linecap:round;stroke-linejoin:round;paint-order:stroke markers fill"
       id="ellipse1118"
       cx="103.08627"
       cy="143.68217"
       rx="8.2275105"
       ry="17.012819" />
    <rect
       style="fill:#ffffff;fill-rule:evenodd;stroke:none;stroke-width:4.45633;stroke-linecap:round;stroke-linejoin:round;stroke-miterlimit:4;stroke-dasharray:none;paint-order:stroke markers fill"
       id="rect8512"
       width="21.335398"
       height="21.693228"
       x="37.196854"
       y="138.06284" />
    <rect
       style="fill:#ffffff;fill-rule:evenodd;stroke:none;stroke-width:3.51485;stroke-linecap:round;stroke-linejoin:round;stroke-miterlimit:4;stroke-dasharray:none;paint-order:stroke markers fill"
       id="rect8638"
       width="14.898027"
       height="19.326694"
       x="68.505081"
       y="138.06284" />
    <rect
       style="fill:#ffffff;fill-rule:evenodd;stroke:none;stroke-width:2.98091;stroke-linecap:round;stroke-linejoin:round;stroke-miterlimit:4;stroke-dasharray:none;paint-order:stroke markers fill"
       id="rect8640"
       width="9.3761148"
       height="22.087652"
       x="118.77592"
       y="136.48515" />
    <rect
       style="fill:#ffffff;fill-rule:evenodd;stroke:none;stroke-width:3.24394;stroke-linecap:round;stroke-linejoin:round;stroke-miterlimit:4;stroke-dasharray:none;paint-order:stroke markers fill"
       id="rect8646"
       width="21.208784"
       height="11.56387"
       x="172.36209"
       y="147.20334" />
    <rect
       style="fill:#ffffff;fill-rule:evenodd;stroke:none;stroke-width:3.74026;stroke-linecap:round;stroke-linejoin:round;stroke-miterlimit:4;stroke-dasharray:none;paint-order:stroke markers fill"
       id="rect8644"
       width="16.870138"
       height="19.326694"
       x="168.57216"
       y="138.65572" />
    <rect
       style="fill:#ffffff;fill-rule:evenodd;stroke:none;stroke-width:6.59999;stroke-linecap:round;stroke-linejoin:round;stroke-miterlimit:4;stroke-dasharray:none;paint-order:stroke markers fill"
       id="rect8642"
       width="50.469418"
       height="20.11554"
       x="126.88538"
       y="138.37381" />
    <rect
       style="fill:#ffffff;fill-rule:evenodd;stroke:none;stroke-width:3.14416;stroke-linecap:round;stroke-linejoin:round;stroke-miterlimit:4;stroke-dasharray:none;paint-order:stroke markers fill"
       id="rect8648"
       width="14.898027"
       height="15.465118"
       x="108.1926"
       y="141.92441" />
    <g
       aria-label="Card Games"
       id="text1447"
       style="font-size:48.017px;line-height:1.25;font-family:'Rose Of Baltimore';-inkscape-font-specification:'Rose Of Baltimore';fill:#800000;stroke:#ffffff;stroke-width:4;stroke-linecap:round;stroke-linejoin:round;stroke-miterlimit:4;stroke-dasharray:none;paint-order:stroke markers fill">
      <path
         d="m 31.112704,154.76819 c -1.488527,2.16076 -3.313173,3.1211 -5.137819,3.1211 -3.84136,0 -6.338244,-5.71402 -6.338244,-14.59717 0,-8.97918 2.448867,-14.6932 6.002125,-14.6932 1.824646,0 3.409207,1.72861 4.033428,4.89774 h 2.160765 v -6.57833 h -2.208782 v 2.2568 c -0.768272,-1.92068 -2.352833,-2.73697 -4.177479,-2.73697 -5.714023,0 -9.74745,6.53031 -9.74745,16.80595 0,10.27563 4.129461,16.80595 10.131586,16.80595 2.736969,0 5.137819,-1.48853 6.866431,-4.12947 z"
         style="font-family:Margherita;-inkscape-font-specification:'Margherita, Normal';stroke:#ffffff;stroke-width:4;stroke-linecap:round;stroke-linejoin:round;stroke-miterlimit:4;stroke-dasharray:none;paint-order:stroke markers fill"
         id="path8280" />
      <path
         d="m 48.878949,143.19609 c 0,-2.16077 0,-7.92281 -6.770397,-7.92281 -4.849716,0 -6.38626,3.69731 -6.38626,5.47394 0,1.72861 0.864306,2.5449 2.064731,2.5449 1.152408,0 1.92068,-0.8643 1.92068,-1.96869 0,-1.05638 -0.624221,-1.77663 -1.632578,-1.92068 0.576204,-1.10439 1.872663,-1.9687 3.505241,-1.9687 3.745325,0 3.98541,3.16912 3.98541,5.81006 v 2.5449 h -1.152408 c -6.434277,0 -9.843484,2.64093 -9.843484,8.06685 0,4.41757 2.592918,6.24221 5.906091,6.24221 2.640934,0 4.177478,-0.8643 5.089801,-2.78498 v 2.2568 h 4.273513 v -1.92068 h -0.96034 z m -7.490651,14.78923 c -1.776629,0 -3.505241,-1.1524 -3.505241,-4.36954 0,-3.36119 2.016714,-5.95411 6.530311,-5.95411 h 1.152408 V 154.24 c -0.336119,2.40085 -2.256799,3.74532 -4.177478,3.74532 z"
         style="font-family:Margherita;-inkscape-font-specification:'Margherita, Normal';stroke:#ffffff;stroke-width:4;stroke-linecap:round;stroke-linejoin:round;stroke-miterlimit:4;stroke-dasharray:none;paint-order:stroke markers fill"
         id="path8282" />
      <path
         d="m 62.995868,135.46535 c -2.688951,0 -4.705665,1.48853 -5.521954,4.36955 v -3.60128 h -4.273513 v 1.92068 h 0.96034 v 19.49491 h -0.96034 v 1.92068 h 5.233853 v -1.92068 h -0.96034 v -11.81219 c 0,-5.85807 2.256799,-7.77875 4.657648,-8.01883 -0.09603,0.24008 -0.144051,0.52818 -0.144051,0.81628 0,1.05638 0.816289,1.9687 2.064731,1.9687 1.296459,0 2.160765,-0.91232 2.160765,-2.44887 0,-1.05637 -0.432153,-2.68895 -3.217139,-2.68895 z"
         style="font-family:Margherita;-inkscape-font-specification:'Margherita, Normal';stroke:#ffffff;stroke-width:4;stroke-linecap:round;stroke-linejoin:round;stroke-miterlimit:4;stroke-dasharray:none;paint-order:stroke markers fill"
         id="path8284" />
      <path
         d="m 74.904048,160.43419 c 2.448867,0 3.889377,-0.91232 4.561615,-3.16912 v 2.30482 h 4.32153 v -1.92068 h -0.96034 v -30.73088 h -4.32153 v 1.92068 h 0.96034 v 9.41133 c -0.672238,-1.92068 -2.112748,-2.88102 -4.465581,-2.88102 -4.945751,0 -7.922805,5.0898 -7.922805,12.53243 0,7.44264 3.025071,12.53244 7.826771,12.53244 z m 0.768272,-2.11275 c -3.073088,0 -4.8017,-4.17748 -4.8017,-10.41969 0,-6.24221 1.776629,-10.41968 4.849717,-10.41968 2.016714,0 3.793343,1.44051 3.793343,6.00212 v 8.54703 c 0,4.51359 -1.776629,6.29022 -3.84136,6.29022 z"
         style="font-family:Margherita;-inkscape-font-specification:'Margherita, Normal';stroke:#ffffff;stroke-width:4;stroke-linecap:round;stroke-linejoin:round;stroke-miterlimit:4;stroke-dasharray:none;paint-order:stroke markers fill"
         id="path8286" />
      <path
         d="m 112.69341,141.56351 h -5.56997 v 1.9687 h 1.05637 v 12.19632 c -0.76827,1.48852 -2.16077,2.16076 -3.50524,2.16076 -3.69731,0 -6.194194,-5.71402 -6.194194,-14.64518 0,-8.93117 2.448864,-14.64519 6.050144,-14.64519 1.87266,0 3.36119,1.6806 3.98541,4.75368 h 2.16076 v -6.43427 h -2.20878 v 1.92068 c -0.91232,-1.6806 -2.44887,-2.40085 -4.12946,-2.40085 -5.76204,0 -9.795468,6.53031 -9.795468,16.80595 0,10.27563 4.033428,16.80595 9.555378,16.80595 1.63258,0 3.07309,-0.67224 4.08145,-1.87267 v 1.3925 h 4.5136 v -1.9687 h -1.05638 v -14.06898 h 1.05638 z"
         style="font-family:Margherita;-inkscape-font-specification:'Margherita, Normal';stroke:#ffffff;stroke-width:4;stroke-linecap:round;stroke-linejoin:round;stroke-miterlimit:4;stroke-dasharray:none;paint-order:stroke markers fill"
         id="path8288" />
      <path
         d="m 129.59533,143.19609 c 0,-2.16077 0,-7.92281 -6.7704,-7.92281 -4.84971,0 -6.38626,3.69731 -6.38626,5.47394 0,1.72861 0.86431,2.5449 2.06473,2.5449 1.15241,0 1.92068,-0.8643 1.92068,-1.96869 0,-1.05638 -0.62422,-1.77663 -1.63257,-1.92068 0.5762,-1.10439 1.87266,-1.9687 3.50524,-1.9687 3.74532,0 3.98541,3.16912 3.98541,5.81006 v 2.5449 h -1.15241 c -6.43428,0 -9.84349,2.64093 -9.84349,8.06685 0,4.41757 2.59292,6.24221 5.9061,6.24221 2.64093,0 4.17747,-0.8643 5.0898,-2.78498 v 2.2568 h 4.27351 v -1.92068 h -0.96034 z m -7.49065,14.78923 c -1.77663,0 -3.50524,-1.1524 -3.50524,-4.36954 0,-3.36119 2.01671,-5.95411 6.53031,-5.95411 h 1.15241 V 154.24 c -0.33612,2.40085 -2.2568,3.74532 -4.17748,3.74532 z"
         style="font-family:Margherita;-inkscape-font-specification:'Margherita, Normal';stroke:#ffffff;stroke-width:4;stroke-linecap:round;stroke-linejoin:round;stroke-miterlimit:4;stroke-dasharray:none;paint-order:stroke markers fill"
         id="path8290" />
      <path
         d="m 159.79794,143.19609 c 0,-4.99377 -1.63258,-7.92281 -5.71402,-7.92281 -2.78499,0 -4.5136,1.34448 -5.52196,3.88938 -0.67224,-2.59292 -2.30481,-3.88938 -5.0898,-3.88938 -2.68895,0 -4.36955,1.15241 -5.28187,3.40921 v -2.44887 h -4.27351 v 1.92068 h 0.96034 v 19.49491 h -0.96034 v 1.92068 h 5.23385 v -1.92068 h -0.96034 v -13.10865 c 0,-4.99376 1.82465,-6.72237 4.27351,-6.72237 3.21714,0 3.21714,3.16912 3.21714,5.85807 v 13.97295 h -0.96034 v 1.92068 h 5.23386 v -1.92068 h -0.96034 v -13.10865 c 0,-4.99376 1.63257,-6.72237 4.08144,-6.72237 3.21714,0 3.36119,3.16912 3.36119,5.85807 v 13.97295 h -0.96034 v 1.92068 h 5.28187 v -1.92068 h -0.96034 z"
         style="font-family:Margherita;-inkscape-font-specification:'Margherita, Normal';stroke:#ffffff;stroke-width:4;stroke-linecap:round;stroke-linejoin:round;stroke-miterlimit:4;stroke-dasharray:none;paint-order:stroke markers fill"
         id="path8292" />
      <path
         d="m 172.37831,158.32144 c -3.45722,0 -5.0898,-4.03342 -5.0898,-10.32365 0,-0.81629 0.048,-1.63258 0.096,-2.35283 h 12.48441 c -0.62422,-6.43428 -3.79334,-10.27564 -8.06685,-10.27564 -5.04179,0 -8.25892,4.94575 -8.25892,12.53243 0,7.68272 3.1211,12.53244 8.54702,12.53244 3.45723,0 6.00213,-2.16076 7.29858,-6.62634 l -1.68059,-0.52819 c -1.10439,3.64929 -3.1211,5.04178 -5.32989,5.04178 z m -0.5762,-20.83937 c 1.87266,0 3.40921,2.35283 4.03343,6.29022 h -8.25893 c 0.62422,-3.93739 2.16077,-6.29022 4.2255,-6.29022 z"
         style="font-family:Margherita;-inkscape-font-specification:'Margherita, Normal';stroke:#ffffff;stroke-width:4;stroke-linecap:round;stroke-linejoin:round;stroke-miterlimit:4;stroke-dasharray:none;paint-order:stroke markers fill"
         id="path8294" />
      <path
         d="m 189.23223,145.35685 c -2.06473,-1.29646 -3.88938,-2.44886 -3.88938,-4.60963 0,-1.9687 1.34448,-3.21714 3.07309,-3.21714 1.92068,0 3.60127,1.34448 3.84136,3.50524 h 1.92068 v -4.8017 h -1.92068 v 1.29646 c -0.86431,-1.44051 -2.30482,-2.16076 -4.27351,-2.16076 -3.60128,0 -5.90609,2.11275 -5.90609,5.666 0,3.74533 2.49688,5.42592 4.94575,7.01049 2.2568,1.44051 4.46558,2.88102 4.46558,5.76204 0,3.02507 -1.3925,4.41756 -3.9374,4.41756 -2.5449,0 -4.03342,-1.53654 -4.08144,-4.27351 h -1.92068 v 5.61799 h 1.92068 v -1.1044 c 1.00836,1.34448 2.64093,1.9687 4.65765,1.9687 4.36954,0 6.77039,-2.44887 6.77039,-6.96246 0,-4.56162 -3.02507,-6.4823 -5.666,-8.11488 z"
         style="font-family:Margherita;-inkscape-font-specification:'Margherita, Normal';stroke:#ffffff;stroke-width:4;stroke-linecap:round;stroke-linejoin:round;stroke-miterlimit:4;stroke-dasharray:none;paint-order:stroke markers fill"
         id="path8296" />
    </g>
    <g
       aria-label="Card Games"
       id="g8416"
       style="font-size:48.017px;line-height:1.25;font-family:'Rose Of Baltimore';-inkscape-font-specification:'Rose Of Baltimore';fill:#800000;stroke-width:0.500177">
      <path
         d="m 31.112704,154.76819 c -1.488527,2.16076 -3.313173,3.1211 -5.137819,3.1211 -3.84136,0 -6.338244,-5.71402 -6.338244,-14.59717 0,-8.97918 2.448867,-14.6932 6.002125,-14.6932 1.824646,0 3.409207,1.72861 4.033428,4.89774 h 2.160765 v -6.57833 h -2.208782 v 2.2568 c -0.768272,-1.92068 -2.352833,-2.73697 -4.177479,-2.73697 -5.714023,0 -9.74745,6.53031 -9.74745,16.80595 0,10.27563 4.129461,16.80595 10.131586,16.80595 2.736969,0 5.137819,-1.48853 6.866431,-4.12947 z"
         style="font-family:Margherita;-inkscape-font-specification:'Margherita, Normal'"
         id="path8398" />
      <path
         d="m 48.878949,143.19609 c 0,-2.16077 0,-7.92281 -6.770397,-7.92281 -4.849716,0 -6.38626,3.69731 -6.38626,5.47394 0,1.72861 0.864306,2.5449 2.064731,2.5449 1.152408,0 1.92068,-0.8643 1.92068,-1.96869 0,-1.05638 -0.624221,-1.77663 -1.632578,-1.92068 0.576204,-1.10439 1.872663,-1.9687 3.505241,-1.9687 3.745325,0 3.98541,3.16912 3.98541,5.81006 v 2.5449 h -1.152408 c -6.434277,0 -9.843484,2.64093 -9.843484,8.06685 0,4.41757 2.592918,6.24221 5.906091,6.24221 2.640934,0 4.177478,-0.8643 5.089801,-2.78498 v 2.2568 h 4.273513 v -1.92068 h -0.96034 z m -7.490651,14.78923 c -1.776629,0 -3.505241,-1.1524 -3.505241,-4.36954 0,-3.36119 2.016714,-5.95411 6.530311,-5.95411 h 1.152408 V 154.24 c -0.336119,2.40085 -2.256799,3.74532 -4.177478,3.74532 z"
         style="font-family:Margherita;-inkscape-font-specification:'Margherita, Normal'"
         id="path8400" />
      <path
         d="m 62.995868,135.46535 c -2.688951,0 -4.705665,1.48853 -5.521954,4.36955 v -3.60128 h -4.273513 v 1.92068 h 0.96034 v 19.49491 h -0.96034 v 1.92068 h 5.233853 v -1.92068 h -0.96034 v -11.81219 c 0,-5.85807 2.256799,-7.77875 4.657648,-8.01883 -0.09603,0.24008 -0.144051,0.52818 -0.144051,0.81628 0,1.05638 0.816289,1.9687 2.064731,1.9687 1.296459,0 2.160765,-0.91232 2.160765,-2.44887 0,-1.05637 -0.432153,-2.68895 -3.217139,-2.68895 z"
         style="font-family:Margherita;-inkscape-font-specification:'Margherita, Normal'"
         id="path8402" />
      <path
         d="m 74.904048,160.43419 c 2.448867,0 3.889377,-0.91232 4.561615,-3.16912 v 2.30482 h 4.32153 v -1.92068 h -0.96034 v -30.73088 h -4.32153 v 1.92068 h 0.96034 v 9.41133 c -0.672238,-1.92068 -2.112748,-2.88102 -4.465581,-2.88102 -4.945751,0 -7.922805,5.0898 -7.922805,12.53243 0,7.44264 3.025071,12.53244 7.826771,12.53244 z m 0.768272,-2.11275 c -3.073088,0 -4.8017,-4.17748 -4.8017,-10.41969 0,-6.24221 1.776629,-10.41968 4.849717,-10.41968 2.016714,0 3.793343,1.44051 3.793343,6.00212 v 8.54703 c 0,4.51359 -1.776629,6.29022 -3.84136,6.29022 z"
         style="font-family:Margherita;-inkscape-font-specification:'Margherita, Normal'"
         id="path8404" />
      <path
         d="m 112.69341,141.56351 h -5.56997 v 1.9687 h 1.05637 v 12.19632 c -0.76827,1.48852 -2.16077,2.16076 -3.50524,2.16076 -3.69731,0 -6.194194,-5.71402 -6.194194,-14.64518 0,-8.93117 2.448864,-14.64519 6.050144,-14.64519 1.87266,0 3.36119,1.6806 3.98541,4.75368 h 2.16076 v -6.43427 h -2.20878 v 1.92068 c -0.91232,-1.6806 -2.44887,-2.40085 -4.12946,-2.40085 -5.76204,0 -9.795468,6.53031 -9.795468,16.80595 0,10.27563 4.033428,16.80595 9.555378,16.80595 1.63258,0 3.07309,-0.67224 4.08145,-1.87267 v 1.3925 h 4.5136 v -1.9687 h -1.05638 v -14.06898 h 1.05638 z"
         style="font-family:Margherita;-inkscape-font-specification:'Margherita, Normal'"
         id="path8406" />
      <path
         d="m 129.59533,143.19609 c 0,-2.16077 0,-7.92281 -6.7704,-7.92281 -4.84971,0 -6.38626,3.69731 -6.38626,5.47394 0,1.72861 0.86431,2.5449 2.06473,2.5449 1.15241,0 1.92068,-0.8643 1.92068,-1.96869 0,-1.05638 -0.62422,-1.77663 -1.63257,-1.92068 0.5762,-1.10439 1.87266,-1.9687 3.50524,-1.9687 3.74532,0 3.98541,3.16912 3.98541,5.81006 v 2.5449 h -1.15241 c -6.43428,0 -9.84349,2.64093 -9.84349,8.06685 0,4.41757 2.59292,6.24221 5.9061,6.24221 2.64093,0 4.17747,-0.8643 5.0898,-2.78498 v 2.2568 h 4.27351 v -1.92068 h -0.96034 z m -7.49065,14.78923 c -1.77663,0 -3.50524,-1.1524 -3.50524,-4.36954 0,-3.36119 2.01671,-5.95411 6.53031,-5.95411 h 1.15241 V 154.24 c -0.33612,2.40085 -2.2568,3.74532 -4.17748,3.74532 z"
         style="font-family:Margherita;-inkscape-font-specification:'Margherita, Normal'"
         id="path8408" />
      <path
         d="m 159.79794,143.19609 c 0,-4.99377 -1.63258,-7.92281 -5.71402,-7.92281 -2.78499,0 -4.5136,1.34448 -5.52196,3.88938 -0.67224,-2.59292 -2.30481,-3.88938 -5.0898,-3.88938 -2.68895,0 -4.36955,1.15241 -5.28187,3.40921 v -2.44887 h -4.27351 v 1.92068 h 0.96034 v 19.49491 h -0.96034 v 1.92068 h 5.23385 v -1.92068 h -0.96034 v -13.10865 c 0,-4.99376 1.82465,-6.72237 4.27351,-6.72237 3.21714,0 3.21714,3.16912 3.21714,5.85807 v 13.97295 h -0.96034 v 1.92068 h 5.23386 v -1.92068 h -0.96034 v -13.10865 c 0,-4.99376 1.63257,-6.72237 4.08144,-6.72237 3.21714,0 3.36119,3.16912 3.36119,5.85807 v 13.97295 h -0.96034 v 1.92068 h 5.28187 v -1.92068 h -0.96034 z"
         style="font-family:Margherita;-inkscape-font-specification:'Margherita, Normal'"
         id="path8410" />
      <path
         d="m 172.37831,158.32144 c -3.45722,0 -5.0898,-4.03342 -5.0898,-10.32365 0,-0.81629 0.048,-1.63258 0.096,-2.35283 h 12.48441 c -0.62422,-6.43428 -3.79334,-10.27564 -8.06685,-10.27564 -5.04179,0 -8.25892,4.94575 -8.25892,12.53243 0,7.68272 3.1211,12.53244 8.54702,12.53244 3.45723,0 6.00213,-2.16076 7.29858,-6.62634 l -1.68059,-0.52819 c -1.10439,3.64929 -3.1211,5.04178 -5.32989,5.04178 z m -0.5762,-20.83937 c 1.87266,0 3.40921,2.35283 4.03343,6.29022 h -8.25893 c 0.62422,-3.93739 2.16077,-6.29022 4.2255,-6.29022 z"
         style="font-family:Margherita;-inkscape-font-specification:'Margherita, Normal'"
         id="path8412" />
      <path
         d="m 189.23223,145.35685 c -2.06473,-1.29646 -3.88938,-2.44886 -3.88938,-4.60963 0,-1.9687 1.34448,-3.21714 3.07309,-3.21714 1.92068,0 3.60127,1.34448 3.84136,3.50524 h 1.92068 v -4.8017 h -1.92068 v 1.29646 c -0.86431,-1.44051 -2.30482,-2.16076 -4.27351,-2.16076 -3.60128,0 -5.90609,2.11275 -5.90609,5.666 0,3.74533 2.49688,5.42592 4.94575,7.01049 2.2568,1.44051 4.46558,2.88102 4.46558,5.76204 0,3.02507 -1.3925,4.41756 -3.9374,4.41756 -2.5449,0 -4.03342,-1.53654 -4.08144,-4.27351 h -1.92068 v 5.61799 h 1.92068 v -1.1044 c 1.00836,1.34448 2.64093,1.9687 4.65765,1.9687 4.36954,0 6.77039,-2.44887 6.77039,-6.96246 0,-4.56162 -3.02507,-6.4823 -5.666,-8.11488 z"
         style="font-family:Margherita;-inkscape-font-specification:'Margherita, Normal'"
         id="path8414" />
    </g>
  </g>
</svg>
