<?xml version="1.0" encoding="UTF-8" standalone="no"?>
<!-- Created with Inkscape (http://www.inkscape.org/) -->

<svg
   width="160.20964mm"
   height="24.478531mm"
   viewBox="0 0 160.20964 24.478531"
   version="1.1"
   id="svg13598"
   inkscape:version="1.1 (c68e22c387, 2021-05-23)"
   sodipodi:docname="auto-adventurevisualnovels.svg"
   xmlns:inkscape="http://www.inkscape.org/namespaces/inkscape"
   xmlns:sodipodi="http://sodipodi.sourceforge.net/DTD/sodipodi-0.dtd"
   xmlns="http://www.w3.org/2000/svg"
   xmlns:svg="http://www.w3.org/2000/svg">
  <sodipodi:namedview
     id="namedview13600"
     pagecolor="#ffffff"
     bordercolor="#666666"
     borderopacity="1.0"
     inkscape:pageshadow="2"
     inkscape:pageopacity="0.0"
     inkscape:pagecheckerboard="0"
     inkscape:document-units="mm"
     showgrid="false"
     fit-margin-top="0"
     fit-margin-left="0"
     fit-margin-right="0"
     fit-margin-bottom="0"
     inkscape:zoom="0.94867184"
     inkscape:cx="310.43401"
     inkscape:cy="82.220212"
     inkscape:window-width="1920"
     inkscape:window-height="1138"
     inkscape:window-x="-8"
     inkscape:window-y="-8"
     inkscape:window-maximized="1"
     inkscape:current-layer="layer1" />
  <defs
     id="defs13595" />
  <g
     inkscape:label="Calque 1"
     inkscape:groupmode="layer"
     id="layer1"
     transform="translate(-22.844843,-126.70349)">
    <g
       id="g20612">
      <rect
         style="fill:#ffffff;fill-opacity:1;fill-rule:evenodd;stroke:none;stroke-width:3.72825;stroke-linecap:round;stroke-linejoin:round;stroke-miterlimit:4;stroke-dasharray:none;paint-order:stroke markers fill"
         id="rect20440"
         width="49.365067"
         height="12.802341"
         x="25.970354"
         y="132.487" />
      <rect
         style="fill:#ffffff;fill-opacity:1;fill-rule:evenodd;stroke:none;stroke-width:3.72825;stroke-linecap:round;stroke-linejoin:round;stroke-miterlimit:4;stroke-dasharray:none;paint-order:stroke markers fill"
         id="rect20566"
         width="49.365067"
         height="12.802341"
         x="120.69122"
         y="132.487" />
      <g
         aria-label="VISUAL NOVEL"
         id="text14409"
         style="font-size:25.4px;line-height:1.25;font-family:'Mario Kart DS';-inkscape-font-specification:'Mario Kart DS';fill:#3d1e6d;fill-opacity:1;stroke:#ffffff;stroke-width:4.3;stroke-linecap:round;stroke-linejoin:round;stroke-miterlimit:4;stroke-dasharray:none;paint-order:stroke markers fill">
        <path
           d="m 29.682789,147.43217 -4.688085,1.14101 q 0.173632,-0.43408 0.359668,-6.38721 0.136425,-5.20898 0.136425,-9.69863 0,-1.5875 -0.04961,-1.92236 l 4.539258,-1.0294 q 0.07441,0.24805 0.07441,1.11621 0,2.85254 -0.818555,10.86446 1.537891,-2.80293 3.435449,-5.8043 2.480469,-3.89434 3.869531,-5.3082 l 0.508497,-0.0496 q 1.401464,-0.16123 3.224609,-0.27285 -1.178223,1.41386 -2.567285,3.91914 -0.756543,1.37666 -2.244824,4.11758 l -2.716114,4.8121 q -1.835547,3.11299 -3.063379,4.50206 z"
           style="font-family:Adventure;-inkscape-font-specification:Adventure;fill:#3d1e6d;fill-opacity:1;stroke:#ffffff;stroke-width:4.3;stroke-linecap:round;stroke-linejoin:round;stroke-miterlimit:4;stroke-dasharray:none;paint-order:stroke markers fill"
           id="path16718" />
        <path
           d="m 39.877516,144.9765 0.42168,-1.41387 q 0.148828,-0.48369 0.632519,-1.97197 0.744141,-2.23242 2.344043,-5.74228 0.396875,-0.91778 1.252637,-2.59209 -1.351855,0.22324 -4.105176,0.60771 l 1.091406,-3.7207 q 1.947168,-0.17363 4.898926,-0.40928 3.088184,-0.23564 5.419824,-0.27285 l -1.141015,3.60908 q -2.38125,0 -3.770313,0.0496 l 1.079004,0.58291 q -0.37207,0.71934 -0.942578,2.14561 -0.706934,1.74873 -1.95957,5.74228 -0.446485,1.47588 -0.855762,3.06338 0.396875,-0.0248 1.37666,-0.0744 l 1.922363,-0.0744 -1.141015,3.62149 q -2.902149,0 -3.782715,0.0496 -1.426269,0.0992 -6.486426,0.75654 l 1.091407,-3.73311 1.240234,-0.12402 q 0.533301,-0.0372 1.413867,-0.0992 z"
           style="font-family:Adventure;-inkscape-font-specification:Adventure;fill:#3d1e6d;fill-opacity:1;stroke:#ffffff;stroke-width:4.3;stroke-linecap:round;stroke-linejoin:round;stroke-miterlimit:4;stroke-dasharray:none;paint-order:stroke markers fill"
           id="path16720" />
        <path
           d="m 59.746071,132.97103 q -1.016992,0.0372 -1.748731,0.19844 -1.835547,0.42168 -2.604492,1.48828 -0.260449,0.37207 -0.260449,0.76895 0,0.68213 0.706933,1.69912 0.942579,1.36426 1.091407,1.68672 0.868164,2.02158 0.868164,3.16259 v 0.29766 q -0.260449,2.81533 -3.22461,4.7749 -1.624707,1.09141 -5.208984,1.98438 l -0.868164,-4.62608 q 1.351856,-0.17363 2.443262,-0.5457 2.567285,-0.88057 2.567285,-2.35644 v -0.16124 q 0,-0.74414 -0.471289,-1.67431 -0.260449,-0.38447 -0.917774,-1.42627 -1.16582,-1.83555 -1.16582,-3.1874 0,-2.88975 2.158008,-4.15479 1.661914,-0.96738 4.998144,-1.79834 z"
           style="font-family:Adventure;-inkscape-font-specification:Adventure;fill:#3d1e6d;fill-opacity:1;stroke:#ffffff;stroke-width:4.3;stroke-linecap:round;stroke-linejoin:round;stroke-miterlimit:4;stroke-dasharray:none;paint-order:stroke markers fill"
           id="path16722" />
        <path
           d="m 77.692262,129.46117 q -0.483691,1.16582 -1.661914,4.94853 -1.16582,3.77032 -1.79834,5.56866 -1.761133,4.97334 -4.018359,6.8833 -1.909961,1.5999 -4.960938,1.5999 -1.53789,0 -3.050976,-1.079 -2.17041,-1.5875 -2.17041,-4.65088 0,-1.27744 0.37207,-2.75332 1.178223,-4.61367 3.708301,-10.0335 l 4.067968,-0.48369 q -1.351855,3.24941 -1.74873,4.2416 -1.513086,3.83233 -2.108398,6.27559 -0.21084,0.91777 -0.21084,1.79834 0,2.72851 1.95957,2.72851 2.232422,0 3.919141,-4.52685 l 3.906738,-10.51719 z"
           style="font-family:Adventure;-inkscape-font-specification:Adventure;fill:#3d1e6d;fill-opacity:1;stroke:#ffffff;stroke-width:4.3;stroke-linecap:round;stroke-linejoin:round;stroke-miterlimit:4;stroke-dasharray:none;paint-order:stroke markers fill"
           id="path16724" />
        <path
           d="m 85.890211,133.44232 q -0.644922,0.89297 -2.666504,4.31602 l -1.11621,1.88515 2.517675,-0.0496 0.570508,0.44649 q 0.719336,-1.5627 0.719336,-5.74229 0,-0.63252 -0.02481,-0.85576 z m -1.277441,8.94209 -3.770313,0.18604 q -1.153417,1.84795 -2.1208,4.81211 l -4.700488,1.15341 q 0.198437,-0.76894 1.835546,-4.06796 l 1.128614,-2.29444 q 1.599902,-3.24941 5.022949,-7.99951 1.872754,-2.6293 3.7083,-4.65088 1.079004,-0.0372 3.199805,-0.14883 l 0.111621,1.5875 q 0.111621,1.79834 0.111621,3.46026 0,3.26181 -0.483691,6.07715 -0.161231,0.48369 -0.744141,4.04316 -0.235644,1.47588 -0.471289,2.40605 l -4.700488,1.14102 q 0.496094,-1.5999 1.872754,-5.70508 z"
           style="font-family:Adventure;-inkscape-font-specification:Adventure;fill:#3d1e6d;fill-opacity:1;stroke:#ffffff;stroke-width:4.3;stroke-linecap:round;stroke-linejoin:round;stroke-miterlimit:4;stroke-dasharray:none;paint-order:stroke markers fill"
           id="path16726" />
        <path
           d="m 96.754664,136.90258 q -0.124023,0.44648 -0.644921,2.1208 l -1.029395,3.23701 q -0.409277,1.33945 -0.644922,2.15801 2.158008,-0.12403 6.449214,-0.32246 l -1.178218,3.58427 q -1.116211,-0.0124 -1.934765,-0.0124 h -0.731739 q -2.728515,0 -8.024316,0.86816 v -0.0372 q 0,-0.17364 0.657324,-2.50528 0.768946,-2.71611 1.37666,-4.40283 1.016993,-2.85254 2.319239,-5.74228 0.21084,-0.4961 0.781347,-1.79834 l 1.091407,-2.55489 q 0.446484,-1.0542 0.731738,-1.55029 l 0.781347,-0.0744 q 0.173633,0.0124 0.372071,0.0124 0.545703,0 1.351855,-0.11162 l 1.165821,-0.18604 q -0.148829,0.27285 -0.79375,1.90996 l -1.748731,4.42764 q -0.04961,0.21084 -0.347266,0.97979 z"
           style="font-family:Adventure;-inkscape-font-specification:Adventure;fill:#3d1e6d;fill-opacity:1;stroke:#ffffff;stroke-width:4.3;stroke-linecap:round;stroke-linejoin:round;stroke-miterlimit:4;stroke-dasharray:none;paint-order:stroke markers fill"
           id="path16728" />
        <path
           d="m 114.76287,129.88285 4.55166,-1.0294 q 1.35185,5.38262 1.93476,10.08311 0.0868,0 0.57051,-1.15342 l 0.49609,-1.20303 q 0.79375,-1.89755 3.54707,-6.85849 l 0.5085,-0.0496 q 1.40146,-0.16123 3.22461,-0.27285 -1.66192,3.01377 -3.49746,7.18095 -0.65733,1.50069 -1.94717,5.74229 -0.34727,1.14102 -1.35186,4.56406 l -4.70048,1.14102 q 0.0496,-0.26045 0.0496,-0.80615 0,-2.66651 -0.65733,-7.06934 -0.24805,-1.73633 -0.43408,-1.73633 l -1.63711,3.90674 q -1.11621,2.6541 -1.33945,4.99814 l -4.70049,1.15342 q 0.81855,-3.02617 1.84795,-6.15156 0.79375,-2.36885 2.34404,-5.74229 0.66973,-1.48828 1.88516,-3.7331 0.0744,-0.22324 0.0744,-0.35967 0,-0.40928 -0.32246,-1.28984 -0.39687,-1.14102 -0.44648,-1.31465 z"
           style="font-family:Adventure;-inkscape-font-specification:Adventure;fill:#3d1e6d;fill-opacity:1;stroke:#ffffff;stroke-width:4.3;stroke-linecap:round;stroke-linejoin:round;stroke-miterlimit:4;stroke-dasharray:none;paint-order:stroke markers fill"
           id="path16730" />
        <path
           d="m 144.31765,133.3183 -1.0666,0.70693 q 0.5209,1.50069 0.5209,2.56729 0,0.76894 -0.23565,2.1456 -0.74414,4.34082 -3.22461,6.90811 -2.71611,2.81533 -6.93291,2.81533 -3.44785,0 -5.38261,-2.38125 -1.78594,-2.20762 -1.78594,-5.72988 0,-0.75655 0.0868,-1.61231 0.44648,-3.77031 3.29902,-6.49883 2.92695,-2.77812 6.68486,-2.77812 5.68028,0 8.03672,3.85713 z m -4.94853,5.87871 q 0.0992,-0.5333 0.0992,-0.85576 0,-1.43867 -0.86816,-2.20762 l 0.76895,-0.43408 q -1.00459,-2.05879 -3.41065,-2.05879 -2.44326,0 -4.08037,1.5751 -1.53789,1.50068 -1.90996,3.98115 -0.0868,0.57051 -0.0868,0.96738 0,1.86035 1.09141,3.1874 1.15342,1.40147 2.97656,1.40147 2.19522,0 3.6835,-1.72393 1.32705,-1.53789 1.73633,-3.83232 z"
           style="font-family:Adventure;-inkscape-font-specification:Adventure;fill:#3d1e6d;fill-opacity:1;stroke:#ffffff;stroke-width:4.3;stroke-linecap:round;stroke-linejoin:round;stroke-miterlimit:4;stroke-dasharray:none;paint-order:stroke markers fill"
           id="path16732" />
        <path
           d="m 150.01033,147.43217 -4.68809,1.14101 q 0.17363,-0.43408 0.35967,-6.38721 0.13642,-5.20898 0.13642,-9.69863 0,-1.5875 -0.0496,-1.92236 l 4.53925,-1.0294 q 0.0744,0.24805 0.0744,1.11621 0,2.85254 -0.81856,10.86446 1.53789,-2.80293 3.43545,-5.8043 2.48047,-3.89434 3.86953,-5.3082 l 0.5085,-0.0496 q 1.40146,-0.16123 3.22461,-0.27285 -1.17822,1.41386 -2.56729,3.91914 -0.75654,1.37666 -2.24482,4.11758 l -2.71611,4.8121 q -1.83555,3.11299 -3.06338,4.50206 z"
           style="font-family:Adventure;-inkscape-font-specification:Adventure;fill:#3d1e6d;fill-opacity:1;stroke:#ffffff;stroke-width:4.3;stroke-linecap:round;stroke-linejoin:round;stroke-miterlimit:4;stroke-dasharray:none;paint-order:stroke markers fill"
           id="path16734" />
        <path
           d="m 173.81043,129.46117 -1.14101,3.60908 h -1.43868 q -4.00595,0 -6.27558,0.18604 l 0.78135,0.44648 q -0.18604,0.40928 -0.91778,2.14561 -0.19843,0.44648 -0.44648,1.0542 l 5.34541,-0.19844 -1.12861,3.23701 -5.271,0.18604 q -0.57051,1.68671 -1.26504,4.29121 2.15801,-0.12403 6.44922,-0.32246 l -1.17822,3.58427 q -1.11621,-0.0124 -1.93477,-0.0124 h -0.73174 q -2.72851,0 -8.02431,0.86816 v -0.0372 q 0,-0.17364 0.65732,-2.50528 0.76895,-2.6913 1.37666,-4.40283 1.01699,-2.84013 2.31924,-5.74228 0.49609,-1.09141 1.11621,-2.26963 -1.31465,0.14883 -2.45566,0.28525 l 1.0914,-3.7207 q 2.57969,-0.19844 6.16397,-0.40928 2.1332,-0.12402 6.9081,-0.27285 z"
           style="font-family:Adventure;-inkscape-font-specification:Adventure;fill:#3d1e6d;fill-opacity:1;stroke:#ffffff;stroke-width:4.3;stroke-linecap:round;stroke-linejoin:round;stroke-miterlimit:4;stroke-dasharray:none;paint-order:stroke markers fill"
           id="path16736" />
        <path
           d="m 176.77459,136.90258 q -0.12402,0.44648 -0.64492,2.1208 l -1.02939,3.23701 q -0.40928,1.33945 -0.64493,2.15801 2.15801,-0.12403 6.44922,-0.32246 l -1.17822,3.58427 q -1.11621,-0.0124 -1.93477,-0.0124 h -0.73173 q -2.72852,0 -8.02432,0.86816 v -0.0372 q 0,-0.17364 0.65732,-2.50528 0.76895,-2.71611 1.37666,-4.40283 1.017,-2.85254 2.31924,-5.74228 0.21084,-0.4961 0.78135,-1.79834 l 1.09141,-2.55489 q 0.44648,-1.0542 0.73173,-1.55029 l 0.78135,-0.0744 q 0.17364,0.0124 0.37207,0.0124 0.54571,0 1.35186,-0.11162 l 1.16582,-0.18604 q -0.14883,0.27285 -0.79375,1.90996 l -1.74873,4.42764 q -0.0496,0.21084 -0.34727,0.97979 z"
           style="font-family:Adventure;-inkscape-font-specification:Adventure;fill:#3d1e6d;fill-opacity:1;stroke:#ffffff;stroke-width:4.3;stroke-linecap:round;stroke-linejoin:round;stroke-miterlimit:4;stroke-dasharray:none;paint-order:stroke markers fill"
           id="path16738" />
      </g>
      <g
         aria-label="VISUAL NOVEL"
         id="g16961"
         style="font-size:25.4px;line-height:1.25;font-family:'Mario Kart DS';-inkscape-font-specification:'Mario Kart DS';fill:#3d1e6d;fill-opacity:1;stroke-width:0.264583">
        <path
           d="m 29.682789,147.43217 -4.688085,1.14101 q 0.173632,-0.43408 0.359668,-6.38721 0.136425,-5.20898 0.136425,-9.69863 0,-1.5875 -0.04961,-1.92236 l 4.539258,-1.0294 q 0.07441,0.24805 0.07441,1.11621 0,2.85254 -0.818555,10.86446 1.537891,-2.80293 3.435449,-5.8043 2.480469,-3.89434 3.869531,-5.3082 l 0.508497,-0.0496 q 1.401464,-0.16123 3.224609,-0.27285 -1.178223,1.41386 -2.567285,3.91914 -0.756543,1.37666 -2.244824,4.11758 l -2.716114,4.8121 q -1.835547,3.11299 -3.063379,4.50206 z"
           style="font-family:Adventure;-inkscape-font-specification:Adventure;fill:#3d1e6d;fill-opacity:1"
           id="path16939" />
        <path
           d="m 39.877516,144.9765 0.42168,-1.41387 q 0.148828,-0.48369 0.632519,-1.97197 0.744141,-2.23242 2.344043,-5.74228 0.396875,-0.91778 1.252637,-2.59209 -1.351855,0.22324 -4.105176,0.60771 l 1.091406,-3.7207 q 1.947168,-0.17363 4.898926,-0.40928 3.088184,-0.23564 5.419824,-0.27285 l -1.141015,3.60908 q -2.38125,0 -3.770313,0.0496 l 1.079004,0.58291 q -0.37207,0.71934 -0.942578,2.14561 -0.706934,1.74873 -1.95957,5.74228 -0.446485,1.47588 -0.855762,3.06338 0.396875,-0.0248 1.37666,-0.0744 l 1.922363,-0.0744 -1.141015,3.62149 q -2.902149,0 -3.782715,0.0496 -1.426269,0.0992 -6.486426,0.75654 l 1.091407,-3.73311 1.240234,-0.12402 q 0.533301,-0.0372 1.413867,-0.0992 z"
           style="font-family:Adventure;-inkscape-font-specification:Adventure;fill:#3d1e6d;fill-opacity:1"
           id="path16941" />
        <path
           d="m 59.746071,132.97103 q -1.016992,0.0372 -1.748731,0.19844 -1.835547,0.42168 -2.604492,1.48828 -0.260449,0.37207 -0.260449,0.76895 0,0.68213 0.706933,1.69912 0.942579,1.36426 1.091407,1.68672 0.868164,2.02158 0.868164,3.16259 v 0.29766 q -0.260449,2.81533 -3.22461,4.7749 -1.624707,1.09141 -5.208984,1.98438 l -0.868164,-4.62608 q 1.351856,-0.17363 2.443262,-0.5457 2.567285,-0.88057 2.567285,-2.35644 v -0.16124 q 0,-0.74414 -0.471289,-1.67431 -0.260449,-0.38447 -0.917774,-1.42627 -1.16582,-1.83555 -1.16582,-3.1874 0,-2.88975 2.158008,-4.15479 1.661914,-0.96738 4.998144,-1.79834 z"
           style="font-family:Adventure;-inkscape-font-specification:Adventure;fill:#3d1e6d;fill-opacity:1"
           id="path16943" />
        <path
           d="m 77.692262,129.46117 q -0.483691,1.16582 -1.661914,4.94853 -1.16582,3.77032 -1.79834,5.56866 -1.761133,4.97334 -4.018359,6.8833 -1.909961,1.5999 -4.960938,1.5999 -1.53789,0 -3.050976,-1.079 -2.17041,-1.5875 -2.17041,-4.65088 0,-1.27744 0.37207,-2.75332 1.178223,-4.61367 3.708301,-10.0335 l 4.067968,-0.48369 q -1.351855,3.24941 -1.74873,4.2416 -1.513086,3.83233 -2.108398,6.27559 -0.21084,0.91777 -0.21084,1.79834 0,2.72851 1.95957,2.72851 2.232422,0 3.919141,-4.52685 l 3.906738,-10.51719 z"
           style="font-family:Adventure;-inkscape-font-specification:Adventure;fill:#3d1e6d;fill-opacity:1"
           id="path16945" />
        <path
           d="m 85.890211,133.44232 q -0.644922,0.89297 -2.666504,4.31602 l -1.11621,1.88515 2.517675,-0.0496 0.570508,0.44649 q 0.719336,-1.5627 0.719336,-5.74229 0,-0.63252 -0.02481,-0.85576 z m -1.277441,8.94209 -3.770313,0.18604 q -1.153417,1.84795 -2.1208,4.81211 l -4.700488,1.15341 q 0.198437,-0.76894 1.835546,-4.06796 l 1.128614,-2.29444 q 1.599902,-3.24941 5.022949,-7.99951 1.872754,-2.6293 3.7083,-4.65088 1.079004,-0.0372 3.199805,-0.14883 l 0.111621,1.5875 q 0.111621,1.79834 0.111621,3.46026 0,3.26181 -0.483691,6.07715 -0.161231,0.48369 -0.744141,4.04316 -0.235644,1.47588 -0.471289,2.40605 l -4.700488,1.14102 q 0.496094,-1.5999 1.872754,-5.70508 z"
           style="font-family:Adventure;-inkscape-font-specification:Adventure;fill:#3d1e6d;fill-opacity:1"
           id="path16947" />
        <path
           d="m 96.754664,136.90258 q -0.124023,0.44648 -0.644921,2.1208 l -1.029395,3.23701 q -0.409277,1.33945 -0.644922,2.15801 2.158008,-0.12403 6.449214,-0.32246 l -1.178218,3.58427 q -1.116211,-0.0124 -1.934765,-0.0124 h -0.731739 q -2.728515,0 -8.024316,0.86816 v -0.0372 q 0,-0.17364 0.657324,-2.50528 0.768946,-2.71611 1.37666,-4.40283 1.016993,-2.85254 2.319239,-5.74228 0.21084,-0.4961 0.781347,-1.79834 l 1.091407,-2.55489 q 0.446484,-1.0542 0.731738,-1.55029 l 0.781347,-0.0744 q 0.173633,0.0124 0.372071,0.0124 0.545703,0 1.351855,-0.11162 l 1.165821,-0.18604 q -0.148829,0.27285 -0.79375,1.90996 l -1.748731,4.42764 q -0.04961,0.21084 -0.347266,0.97979 z"
           style="font-family:Adventure;-inkscape-font-specification:Adventure;fill:#3d1e6d;fill-opacity:1"
           id="path16949" />
        <path
           d="m 114.76287,129.88285 4.55166,-1.0294 q 1.35185,5.38262 1.93476,10.08311 0.0868,0 0.57051,-1.15342 l 0.49609,-1.20303 q 0.79375,-1.89755 3.54707,-6.85849 l 0.5085,-0.0496 q 1.40146,-0.16123 3.22461,-0.27285 -1.66192,3.01377 -3.49746,7.18095 -0.65733,1.50069 -1.94717,5.74229 -0.34727,1.14102 -1.35186,4.56406 l -4.70048,1.14102 q 0.0496,-0.26045 0.0496,-0.80615 0,-2.66651 -0.65733,-7.06934 -0.24805,-1.73633 -0.43408,-1.73633 l -1.63711,3.90674 q -1.11621,2.6541 -1.33945,4.99814 l -4.70049,1.15342 q 0.81855,-3.02617 1.84795,-6.15156 0.79375,-2.36885 2.34404,-5.74229 0.66973,-1.48828 1.88516,-3.7331 0.0744,-0.22324 0.0744,-0.35967 0,-0.40928 -0.32246,-1.28984 -0.39687,-1.14102 -0.44648,-1.31465 z"
           style="font-family:Adventure;-inkscape-font-specification:Adventure;fill:#3d1e6d;fill-opacity:1"
           id="path16951" />
        <path
           d="m 144.31765,133.3183 -1.0666,0.70693 q 0.5209,1.50069 0.5209,2.56729 0,0.76894 -0.23565,2.1456 -0.74414,4.34082 -3.22461,6.90811 -2.71611,2.81533 -6.93291,2.81533 -3.44785,0 -5.38261,-2.38125 -1.78594,-2.20762 -1.78594,-5.72988 0,-0.75655 0.0868,-1.61231 0.44648,-3.77031 3.29902,-6.49883 2.92695,-2.77812 6.68486,-2.77812 5.68028,0 8.03672,3.85713 z m -4.94853,5.87871 q 0.0992,-0.5333 0.0992,-0.85576 0,-1.43867 -0.86816,-2.20762 l 0.76895,-0.43408 q -1.00459,-2.05879 -3.41065,-2.05879 -2.44326,0 -4.08037,1.5751 -1.53789,1.50068 -1.90996,3.98115 -0.0868,0.57051 -0.0868,0.96738 0,1.86035 1.09141,3.1874 1.15342,1.40147 2.97656,1.40147 2.19522,0 3.6835,-1.72393 1.32705,-1.53789 1.73633,-3.83232 z"
           style="font-family:Adventure;-inkscape-font-specification:Adventure;fill:#3d1e6d;fill-opacity:1"
           id="path16953" />
        <path
           d="m 150.01033,147.43217 -4.68809,1.14101 q 0.17363,-0.43408 0.35967,-6.38721 0.13642,-5.20898 0.13642,-9.69863 0,-1.5875 -0.0496,-1.92236 l 4.53925,-1.0294 q 0.0744,0.24805 0.0744,1.11621 0,2.85254 -0.81856,10.86446 1.53789,-2.80293 3.43545,-5.8043 2.48047,-3.89434 3.86953,-5.3082 l 0.5085,-0.0496 q 1.40146,-0.16123 3.22461,-0.27285 -1.17822,1.41386 -2.56729,3.91914 -0.75654,1.37666 -2.24482,4.11758 l -2.71611,4.8121 q -1.83555,3.11299 -3.06338,4.50206 z"
           style="font-family:Adventure;-inkscape-font-specification:Adventure;fill:#3d1e6d;fill-opacity:1"
           id="path16955" />
        <path
           d="m 173.81043,129.46117 -1.14101,3.60908 h -1.43868 q -4.00595,0 -6.27558,0.18604 l 0.78135,0.44648 q -0.18604,0.40928 -0.91778,2.14561 -0.19843,0.44648 -0.44648,1.0542 l 5.34541,-0.19844 -1.12861,3.23701 -5.271,0.18604 q -0.57051,1.68671 -1.26504,4.29121 2.15801,-0.12403 6.44922,-0.32246 l -1.17822,3.58427 q -1.11621,-0.0124 -1.93477,-0.0124 h -0.73174 q -2.72851,0 -8.02431,0.86816 v -0.0372 q 0,-0.17364 0.65732,-2.50528 0.76895,-2.6913 1.37666,-4.40283 1.01699,-2.84013 2.31924,-5.74228 0.49609,-1.09141 1.11621,-2.26963 -1.31465,0.14883 -2.45566,0.28525 l 1.0914,-3.7207 q 2.57969,-0.19844 6.16397,-0.40928 2.1332,-0.12402 6.9081,-0.27285 z"
           style="font-family:Adventure;-inkscape-font-specification:Adventure;fill:#3d1e6d;fill-opacity:1"
           id="path16957" />
        <path
           d="m 176.77459,136.90258 q -0.12402,0.44648 -0.64492,2.1208 l -1.02939,3.23701 q -0.40928,1.33945 -0.64493,2.15801 2.15801,-0.12403 6.44922,-0.32246 l -1.17822,3.58427 q -1.11621,-0.0124 -1.93477,-0.0124 h -0.73173 q -2.72852,0 -8.02432,0.86816 v -0.0372 q 0,-0.17364 0.65732,-2.50528 0.76895,-2.71611 1.37666,-4.40283 1.017,-2.85254 2.31924,-5.74228 0.21084,-0.4961 0.78135,-1.79834 l 1.09141,-2.55489 q 0.44648,-1.0542 0.73173,-1.55029 l 0.78135,-0.0744 q 0.17364,0.0124 0.37207,0.0124 0.54571,0 1.35186,-0.11162 l 1.16582,-0.18604 q -0.14883,0.27285 -0.79375,1.90996 l -1.74873,4.42764 q -0.0496,0.21084 -0.34727,0.97979 z"
           style="font-family:Adventure;-inkscape-font-specification:Adventure;fill:#3d1e6d;fill-opacity:1"
           id="path16959" />
      </g>
    </g>
  </g>
</svg>
