<?xml version="1.0" encoding="UTF-8" standalone="no"?>
<!-- Created with Inkscape (http://www.inkscape.org/) -->

<svg
   width="123.81876mm"
   height="28.065554mm"
   viewBox="0 0 123.81876 28.065554"
   version="1.1"
   id="svg857"
   inkscape:version="1.1 (c68e22c387, 2021-05-23)"
   sodipodi:docname="auto-rpg.svg"
   xmlns:inkscape="http://www.inkscape.org/namespaces/inkscape"
   xmlns:sodipodi="http://sodipodi.sourceforge.net/DTD/sodipodi-0.dtd"
   xmlns="http://www.w3.org/2000/svg"
   xmlns:svg="http://www.w3.org/2000/svg">
  <sodipodi:namedview
     id="namedview859"
     pagecolor="#ffffff"
     bordercolor="#666666"
     borderopacity="1.0"
     inkscape:pageshadow="2"
     inkscape:pageopacity="0.0"
     inkscape:pagecheckerboard="0"
     inkscape:document-units="mm"
     showgrid="false"
     fit-margin-top="0"
     fit-margin-left="0"
     fit-margin-right="0"
     fit-margin-bottom="0"
     inkscape:zoom="0.94867184"
     inkscape:cx="158.64285"
     inkscape:cy="69.570949"
     inkscape:window-width="1920"
     inkscape:window-height="1138"
     inkscape:window-x="-8"
     inkscape:window-y="-8"
     inkscape:window-maximized="1"
     inkscape:current-layer="layer1" />
  <defs
     id="defs854" />
  <g
     inkscape:label="Calque 1"
     inkscape:groupmode="layer"
     id="layer1"
     transform="translate(-39.225308,-108.70201)">
    <rect
       style="fill:#ffffff;fill-rule:evenodd;stroke:none;stroke-width:4.7326;stroke-linecap:round;stroke-linejoin:round;stroke-miterlimit:4;stroke-dasharray:none;paint-order:stroke markers fill"
       id="rect11847"
       width="55.500839"
       height="15.618327"
       x="105.01007"
       y="115.99679" />
    <rect
       style="fill:#ffffff;fill-rule:evenodd;stroke:none;stroke-width:3.98367;stroke-linecap:round;stroke-linejoin:round;stroke-miterlimit:4;stroke-dasharray:none;paint-order:stroke markers fill"
       id="rect11973"
       width="39.324715"
       height="15.618327"
       x="41.51001"
       y="115.99679" />
    <g
       aria-label="Role-Playing"
       id="text4110"
       style="font-size:25.4px;line-height:1.25;font-family:'Rose Of Baltimore';-inkscape-font-specification:'Rose Of Baltimore';fill:#782121;stroke:#ffffff;stroke-width:2.66003;stroke-linecap:round;stroke-linejoin:round;stroke-miterlimit:4;stroke-dasharray:none;paint-order:stroke markers fill"
       transform="matrix(1.7312676,0,0,1,-30.368023,0)">
      <path
         d="m 44.24572,118.92202 v -7.4422 c 0.9906,0 1.1176,0 1.1176,1.0414 v 5.4102 c 0,0.7874 -0.2794,0.9906 -1.1176,0.9906 z m 2.159,12.4206 h 1.651 v -0.1524 c -0.6096,-0.2794 -0.5334,-0.5842 -0.5334,-1.3716 v -6.7056 c 0,-1.397 0.1778,-3.1496 -1.3716,-3.3782 1.524,-0.4318 1.397,-1.651 1.397,-2.9464 v -4.4704 c 0,-0.7874 -0.3302,-2.286 -2.286,-2.286 h -3.7338 v 0.1524 c 0.6096,0.3048 0.5334,0.5588 0.5334,1.3716 v 18.2626 c 0,0.8128 0.0762,1.0668 -0.5334,1.3716 v 0.1524 h 1.6002 1.6256 v -0.1524 c -0.5842,-0.2794 -0.508,-0.5842 -0.508,-1.3716 v -9.6266 c 0.8636,0 1.0922,0.2286 1.0922,1.524 v 7.6454 c 0,0.9652 0,1.6256 0.4318,1.9812 h 1.905 z"
         style="font-family:OPTIEngeEtienne;-inkscape-font-specification:'OPTIEngeEtienne, Normal';fill:#782121;stroke:#ffffff;stroke-width:2.66003;stroke-linecap:round;stroke-linejoin:round;stroke-miterlimit:4;stroke-dasharray:none;paint-order:stroke markers fill"
         id="path11477" />
      <path
         d="m 54.253293,128.42162 v -10.033 c 0,-2.5146 -1.4224,-3.0988 -2.413,-3.0988 -0.9398,0 -2.413,0.6096 -2.413,3.0988 v 10.033 c 0,2.4892 1.4732,3.0988 2.413,3.0988 0.9906,0 2.413,-0.5842 2.413,-3.0988 z m -2.9464,1.4478 c 0,-0.2794 0,-12.6492 0,-12.9286 0,-0.254 0.2032,-0.4826 0.4826,-0.4826 0.3048,0 0.5334,0.2286 0.5334,0.4826 0,0.254 0,12.6746 0,12.9286 0,0.254 -0.2286,0.4826 -0.5334,0.4826 -0.2794,0 -0.4826,-0.2286 -0.4826,-0.4826 z"
         style="font-family:OPTIEngeEtienne;-inkscape-font-specification:'OPTIEngeEtienne, Normal';fill:#782121;stroke:#ffffff;stroke-width:2.66003;stroke-linecap:round;stroke-linejoin:round;stroke-miterlimit:4;stroke-dasharray:none;paint-order:stroke markers fill"
         id="path11479" />
      <path
         d="m 57.783873,110.03202 h -2.4638 v 0.1524 c 0.6096,0.3048 0.5334,0.5588 0.5334,1.3716 v 18.2626 c 0,0.8128 0.0762,1.0668 -0.5334,1.3716 v 0.1524 h 2.9718 v -0.1524 c -0.6096,-0.2794 -0.508,-0.5842 -0.508,-1.3716 z"
         style="font-family:OPTIEngeEtienne;-inkscape-font-specification:'OPTIEngeEtienne, Normal';fill:#782121;stroke:#ffffff;stroke-width:2.66003;stroke-linecap:round;stroke-linejoin:round;stroke-miterlimit:4;stroke-dasharray:none;paint-order:stroke markers fill"
         id="path11481" />
      <path
         d="m 64.286255,123.34162 v -4.445 c 0,-1.397 0.127,-2.6416 -1.0922,-3.302 -0.635,-0.3556 -1.8034,-0.4064 -2.4384,-0.0254 -1.4224,0.8382 -1.2954,2.413 -1.2954,3.1242 v 8.8392 c 0,1.0414 -0.1524,2.8702 1.2192,3.6576 0.6604,0.381 1.651,0.4064 2.3114,0.0254 1.4732,-0.8128 1.2954,-2.921 1.2954,-4.5974 v -0.8636 l -2.0574,-0.7874 c 0.0762,0.4064 0.127,2.3622 0.127,2.7178 0,0.0508 0,1.5748 0,1.5748 0.0254,0.508 -0.1016,1.0668 -0.4572,1.0668 -0.508,0 -0.508,-0.5588 -0.508,-1.1176 v -5.8674 z m -2.8956,-5.969 c 0,-0.5334 0.1524,-0.8636 0.5334,-0.8636 0.3048,0 0.4318,0.3556 0.4318,0.635 v 4.9784 h -0.9652 z"
         style="font-family:OPTIEngeEtienne;-inkscape-font-specification:'OPTIEngeEtienne, Normal';fill:#782121;stroke:#ffffff;stroke-width:2.66003;stroke-linecap:round;stroke-linejoin:round;stroke-miterlimit:4;stroke-dasharray:none;paint-order:stroke markers fill"
         id="path11483" />
      <path
         d="m 69.823409,123.34162 c -0.7874,0.508 -1.2954,0.4318 -1.7018,0.4318 h -1.4986 l -0.6858,2.2352 h 0.2032 c 0.5334,-0.4318 0.8636,-0.4064 1.6002,-0.4064 0,0 1.4732,0 1.524,0 l 0.762,-2.2606 z"
         style="font-family:OPTIEngeEtienne;-inkscape-font-specification:'OPTIEngeEtienne, Normal';fill:#782121;stroke:#ffffff;stroke-width:2.66003;stroke-linecap:round;stroke-linejoin:round;stroke-miterlimit:4;stroke-dasharray:none;paint-order:stroke markers fill"
         id="path11485" />
      <path
         d="m 73.785778,118.99822 v -7.5184 c 0.9398,0 1.1176,0.127 1.1176,1.27 v 5.207 c 0,0.635 -0.0508,1.0414 -1.1176,1.0414 z m 3.2004,-6.604 c 0,-0.6604 -0.254,-2.3622 -2.4892,-2.3622 h -3.429 v 0.1524 c 0.6096,0.3048 0.5334,0.5588 0.5334,1.3716 v 18.2626 c 0,0.8128 0.0762,1.0668 -0.5334,1.3716 v 0.1524 h 1.6002 1.6256 v -0.1524 c -0.5842,-0.2794 -0.508,-0.5842 -0.508,-1.3716 v -9.271 c 2.7178,0 3.2004,-0.8636 3.2004,-3.175 z"
         style="font-family:OPTIEngeEtienne;-inkscape-font-specification:'OPTIEngeEtienne, Normal';fill:#782121;stroke:#ffffff;stroke-width:2.66003;stroke-linecap:round;stroke-linejoin:round;stroke-miterlimit:4;stroke-dasharray:none;paint-order:stroke markers fill"
         id="path11487" />
      <path
         d="m 80.643766,110.03202 h -2.4638 v 0.1524 c 0.6096,0.3048 0.5334,0.5588 0.5334,1.3716 v 18.2626 c 0,0.8128 0.0762,1.0668 -0.5334,1.3716 v 0.1524 h 2.9718 v -0.1524 c -0.6096,-0.2794 -0.508,-0.5842 -0.508,-1.3716 z"
         style="font-family:OPTIEngeEtienne;-inkscape-font-specification:'OPTIEngeEtienne, Normal';fill:#782121;stroke:#ffffff;stroke-width:2.66003;stroke-linecap:round;stroke-linejoin:round;stroke-miterlimit:4;stroke-dasharray:none;paint-order:stroke markers fill"
         id="path11489" />
      <path
         d="m 84.783949,130.22502 c -0.381,0 -0.4572,-0.4826 -0.4572,-1.0922 v -3.4036 c 0,-1.4732 -0.0762,-2.286 0.9398,-3.556 v 6.5786 c 0,0.4318 0.0762,1.4732 -0.4826,1.4732 z m 0.4826,1.1176 h 2.4384 v -0.1524 c -0.5842,-0.2794 -0.508,-0.5842 -0.508,-1.3716 v -10.2362 c 0,-0.889 0.1778,-3.048 -1.1684,-3.937 -0.7112,-0.4572 -1.7272,-0.4064 -2.3368,-0.0508 -1.4478,0.8128 -1.27,2.6416 -1.27,3.556 l 2.0574,0.7366 c -0.381,-1.6764 -0.3048,-2.1844 -0.254,-2.4638 0.1016,-0.3302 0.254,-0.7366 0.6096,-0.762 0.4572,-0.0254 0.4318,0.4064 0.4318,0.9144 0,0.3556 0,0.7112 0,1.016 0.0254,1.3208 -0.0508,1.7018 -0.5334,2.1844 -2.286,2.3876 -2.3368,2.3114 -2.3368,5.3594 v 3.7592 c 0,1.2192 0.9144,1.6256 1.1938,1.6256 1.143,0 1.4224,-0.8128 1.6764,-1.3462 z"
         style="font-family:OPTIEngeEtienne;-inkscape-font-specification:'OPTIEngeEtienne, Normal';fill:#782121;stroke:#ffffff;stroke-width:2.66003;stroke-linecap:round;stroke-linejoin:round;stroke-miterlimit:4;stroke-dasharray:none;paint-order:stroke markers fill"
         id="path11491" />
      <path
         d="m 88.111309,115.46762 v 0.1524 c 0.381,0.1016 0.5842,0.2794 0.635,1.3208 l 1.6002,16.1798 c 0.0762,0.9906 -0.1016,1.4478 -0.4318,1.3716 -0.1524,-0.0508 -0.2032,-0.1016 -0.3048,-0.3556 -0.0762,-0.2794 -0.0508,-0.635 -0.0254,-0.889 0.0254,-0.3048 0.0762,-0.762 0.1524,-1.2192 l -1.524,0.6858 c 0.0254,1.0414 -0.0254,1.9812 0.8382,2.4892 0.5588,0.3556 1.1684,0.2032 1.4478,0.0508 1.1684,-0.5588 1.2192,-2.3114 1.2954,-3.4036 l 1.1938,-14.986 c 0.0508,-0.5842 0.1016,-1.143 0.4572,-1.2446 v -0.1524 h -2.1082 l 0.0254,0.1524 c 0.4318,0.1778 0.3302,0.6858 0.3048,1.3716 l -0.381,8.7884 h -0.0762 l -0.5842,-8.6868 c -0.0508,-0.889 -0.2032,-1.3208 0.3048,-1.4732 v -0.1524 z"
         style="font-family:OPTIEngeEtienne;-inkscape-font-specification:'OPTIEngeEtienne, Normal';fill:#782121;stroke:#ffffff;stroke-width:2.66003;stroke-linecap:round;stroke-linejoin:round;stroke-miterlimit:4;stroke-dasharray:none;paint-order:stroke markers fill"
         id="path11493" />
      <path
         d="m 94.79147,111.04802 v 2.6162 h 1.9304 v -2.6162 z m 1.9304,4.4196 h -2.4638 v 0.1524 c 0.6096,0.3048 0.5334,0.5842 0.5334,1.3716 v 12.827 c 0,0.8128 0.0762,1.0668 -0.5334,1.3716 v 0.1524 h 2.9718 v -0.1524 c -0.6096,-0.2794 -0.508,-0.5842 -0.508,-1.3716 z"
         style="font-family:OPTIEngeEtienne;-inkscape-font-specification:'OPTIEngeEtienne, Normal';fill:#782121;stroke:#ffffff;stroke-width:2.66003;stroke-linecap:round;stroke-linejoin:round;stroke-miterlimit:4;stroke-dasharray:none;paint-order:stroke markers fill"
         id="path11495" />
      <path
         d="m 100.58265,115.46762 h -2.463797 v 0.1524 c 0.6096,0.3048 0.5334,0.5842 0.5334,1.3716 v 12.827 c 0,0.8128 0.0762,1.0668 -0.5334,1.3716 v 0.1524 h 2.819397 v -0.1524 c -0.4572,-0.2286 -0.3556,-0.5588 -0.3556,-1.3462 v -11.6586 c 0,-0.7112 0.127,-1.4478 0.5588,-1.4732 0.3302,-0.0254 0.3556,0.381 0.3556,0.9398 v 12.1666 c 0,0.8128 0.0508,1.1176 -0.381,1.3716 v 0.1524 h 2.8194 v -0.1524 c -0.6096,-0.2794 -0.508,-0.5842 -0.508,-1.3716 v -12.2936 c 0,-0.8128 0.127,-2.1844 -1.0668,-2.2352 -0.7874,-0.0254 -1.4732,0.7874 -1.778,1.2192 z"
         style="font-family:OPTIEngeEtienne;-inkscape-font-specification:'OPTIEngeEtienne, Normal';fill:#782121;stroke:#ffffff;stroke-width:2.66003;stroke-linecap:round;stroke-linejoin:round;stroke-miterlimit:4;stroke-dasharray:none;paint-order:stroke markers fill"
         id="path11497" />
      <path
         d="m 108.02482,116.53442 c -0.3302,-0.762 -0.6858,-1.2446 -1.4732,-1.2446 -1.3208,0 -1.4224,1.6002 -1.4224,2.3114 v 10.541 c 0,1.2954 -0.127,2.794 0.9398,3.1496 0.6604,0.2286 1.3462,-0.2032 1.905,-0.9398 v 3.0734 c 0,0.3556 0.0254,0.889 -0.381,0.889 -0.254,0 -0.4318,-0.1778 -0.5334,-0.5842 -0.0254,-0.1778 -0.0254,-0.4064 -0.0254,-0.5842 0.0254,-0.4826 0.0762,-0.7874 0.1524,-1.1684 l -1.9558,0.889 c 0,0.8128 -0.0508,1.5748 1.0414,2.2098 0.7112,0.4064 1.8034,0.3556 2.4892,-0.0508 1.3716,-0.7366 1.2192,-2.2098 1.2192,-3.2512 v -15.367 c 0,-0.3556 0.0254,-0.6858 0.4064,-0.7874 v -0.1524 h -2.3622 z m -0.9906,1.2192 c 0,-0.4572 0.0254,-1.016 0.4318,-1.016 0.4064,0 0.5588,0.5842 0.5588,1.1176 v 10.541 c 0,0.5842 0,1.8034 -0.635,1.8034 -0.381,0 -0.3556,-0.381 -0.3556,-1.143 z"
         style="font-family:OPTIEngeEtienne;-inkscape-font-specification:'OPTIEngeEtienne, Normal';fill:#782121;stroke:#ffffff;stroke-width:2.66003;stroke-linecap:round;stroke-linejoin:round;stroke-miterlimit:4;stroke-dasharray:none;paint-order:stroke markers fill"
         id="path11499" />
    </g>
    <g
       aria-label="Role-Playing"
       id="g11625"
       style="font-size:25.4px;line-height:1.25;font-family:'Rose Of Baltimore';-inkscape-font-specification:'Rose Of Baltimore';fill:#782121;stroke-width:0.264583"
       transform="matrix(1.7312676,0,0,1,-30.368023,0)">
      <path
         d="m 44.24572,118.92202 v -7.4422 c 0.9906,0 1.1176,0 1.1176,1.0414 v 5.4102 c 0,0.7874 -0.2794,0.9906 -1.1176,0.9906 z m 2.159,12.4206 h 1.651 v -0.1524 c -0.6096,-0.2794 -0.5334,-0.5842 -0.5334,-1.3716 v -6.7056 c 0,-1.397 0.1778,-3.1496 -1.3716,-3.3782 1.524,-0.4318 1.397,-1.651 1.397,-2.9464 v -4.4704 c 0,-0.7874 -0.3302,-2.286 -2.286,-2.286 h -3.7338 v 0.1524 c 0.6096,0.3048 0.5334,0.5588 0.5334,1.3716 v 18.2626 c 0,0.8128 0.0762,1.0668 -0.5334,1.3716 v 0.1524 h 1.6002 1.6256 v -0.1524 c -0.5842,-0.2794 -0.508,-0.5842 -0.508,-1.3716 v -9.6266 c 0.8636,0 1.0922,0.2286 1.0922,1.524 v 7.6454 c 0,0.9652 0,1.6256 0.4318,1.9812 h 1.905 z"
         style="font-family:OPTIEngeEtienne;-inkscape-font-specification:'OPTIEngeEtienne, Normal';fill:#782121"
         id="path11601" />
      <path
         d="m 54.253293,128.42162 v -10.033 c 0,-2.5146 -1.4224,-3.0988 -2.413,-3.0988 -0.9398,0 -2.413,0.6096 -2.413,3.0988 v 10.033 c 0,2.4892 1.4732,3.0988 2.413,3.0988 0.9906,0 2.413,-0.5842 2.413,-3.0988 z m -2.9464,1.4478 c 0,-0.2794 0,-12.6492 0,-12.9286 0,-0.254 0.2032,-0.4826 0.4826,-0.4826 0.3048,0 0.5334,0.2286 0.5334,0.4826 0,0.254 0,12.6746 0,12.9286 0,0.254 -0.2286,0.4826 -0.5334,0.4826 -0.2794,0 -0.4826,-0.2286 -0.4826,-0.4826 z"
         style="font-family:OPTIEngeEtienne;-inkscape-font-specification:'OPTIEngeEtienne, Normal';fill:#782121"
         id="path11603" />
      <path
         d="m 57.783873,110.03202 h -2.4638 v 0.1524 c 0.6096,0.3048 0.5334,0.5588 0.5334,1.3716 v 18.2626 c 0,0.8128 0.0762,1.0668 -0.5334,1.3716 v 0.1524 h 2.9718 v -0.1524 c -0.6096,-0.2794 -0.508,-0.5842 -0.508,-1.3716 z"
         style="font-family:OPTIEngeEtienne;-inkscape-font-specification:'OPTIEngeEtienne, Normal';fill:#782121"
         id="path11605" />
      <path
         d="m 64.286255,123.34162 v -4.445 c 0,-1.397 0.127,-2.6416 -1.0922,-3.302 -0.635,-0.3556 -1.8034,-0.4064 -2.4384,-0.0254 -1.4224,0.8382 -1.2954,2.413 -1.2954,3.1242 v 8.8392 c 0,1.0414 -0.1524,2.8702 1.2192,3.6576 0.6604,0.381 1.651,0.4064 2.3114,0.0254 1.4732,-0.8128 1.2954,-2.921 1.2954,-4.5974 v -0.8636 l -2.0574,-0.7874 c 0.0762,0.4064 0.127,2.3622 0.127,2.7178 0,0.0508 0,1.5748 0,1.5748 0.0254,0.508 -0.1016,1.0668 -0.4572,1.0668 -0.508,0 -0.508,-0.5588 -0.508,-1.1176 v -5.8674 z m -2.8956,-5.969 c 0,-0.5334 0.1524,-0.8636 0.5334,-0.8636 0.3048,0 0.4318,0.3556 0.4318,0.635 v 4.9784 h -0.9652 z"
         style="font-family:OPTIEngeEtienne;-inkscape-font-specification:'OPTIEngeEtienne, Normal';fill:#782121"
         id="path11607" />
      <path
         d="m 69.823409,123.34162 c -0.7874,0.508 -1.2954,0.4318 -1.7018,0.4318 h -1.4986 l -0.6858,2.2352 h 0.2032 c 0.5334,-0.4318 0.8636,-0.4064 1.6002,-0.4064 0,0 1.4732,0 1.524,0 l 0.762,-2.2606 z"
         style="font-family:OPTIEngeEtienne;-inkscape-font-specification:'OPTIEngeEtienne, Normal';fill:#782121"
         id="path11609" />
      <path
         d="m 73.785778,118.99822 v -7.5184 c 0.9398,0 1.1176,0.127 1.1176,1.27 v 5.207 c 0,0.635 -0.0508,1.0414 -1.1176,1.0414 z m 3.2004,-6.604 c 0,-0.6604 -0.254,-2.3622 -2.4892,-2.3622 h -3.429 v 0.1524 c 0.6096,0.3048 0.5334,0.5588 0.5334,1.3716 v 18.2626 c 0,0.8128 0.0762,1.0668 -0.5334,1.3716 v 0.1524 h 1.6002 1.6256 v -0.1524 c -0.5842,-0.2794 -0.508,-0.5842 -0.508,-1.3716 v -9.271 c 2.7178,0 3.2004,-0.8636 3.2004,-3.175 z"
         style="font-family:OPTIEngeEtienne;-inkscape-font-specification:'OPTIEngeEtienne, Normal';fill:#782121"
         id="path11611" />
      <path
         d="m 80.643766,110.03202 h -2.4638 v 0.1524 c 0.6096,0.3048 0.5334,0.5588 0.5334,1.3716 v 18.2626 c 0,0.8128 0.0762,1.0668 -0.5334,1.3716 v 0.1524 h 2.9718 v -0.1524 c -0.6096,-0.2794 -0.508,-0.5842 -0.508,-1.3716 z"
         style="font-family:OPTIEngeEtienne;-inkscape-font-specification:'OPTIEngeEtienne, Normal';fill:#782121"
         id="path11613" />
      <path
         d="m 84.783949,130.22502 c -0.381,0 -0.4572,-0.4826 -0.4572,-1.0922 v -3.4036 c 0,-1.4732 -0.0762,-2.286 0.9398,-3.556 v 6.5786 c 0,0.4318 0.0762,1.4732 -0.4826,1.4732 z m 0.4826,1.1176 h 2.4384 v -0.1524 c -0.5842,-0.2794 -0.508,-0.5842 -0.508,-1.3716 v -10.2362 c 0,-0.889 0.1778,-3.048 -1.1684,-3.937 -0.7112,-0.4572 -1.7272,-0.4064 -2.3368,-0.0508 -1.4478,0.8128 -1.27,2.6416 -1.27,3.556 l 2.0574,0.7366 c -0.381,-1.6764 -0.3048,-2.1844 -0.254,-2.4638 0.1016,-0.3302 0.254,-0.7366 0.6096,-0.762 0.4572,-0.0254 0.4318,0.4064 0.4318,0.9144 0,0.3556 0,0.7112 0,1.016 0.0254,1.3208 -0.0508,1.7018 -0.5334,2.1844 -2.286,2.3876 -2.3368,2.3114 -2.3368,5.3594 v 3.7592 c 0,1.2192 0.9144,1.6256 1.1938,1.6256 1.143,0 1.4224,-0.8128 1.6764,-1.3462 z"
         style="font-family:OPTIEngeEtienne;-inkscape-font-specification:'OPTIEngeEtienne, Normal';fill:#782121"
         id="path11615" />
      <path
         d="m 88.111309,115.46762 v 0.1524 c 0.381,0.1016 0.5842,0.2794 0.635,1.3208 l 1.6002,16.1798 c 0.0762,0.9906 -0.1016,1.4478 -0.4318,1.3716 -0.1524,-0.0508 -0.2032,-0.1016 -0.3048,-0.3556 -0.0762,-0.2794 -0.0508,-0.635 -0.0254,-0.889 0.0254,-0.3048 0.0762,-0.762 0.1524,-1.2192 l -1.524,0.6858 c 0.0254,1.0414 -0.0254,1.9812 0.8382,2.4892 0.5588,0.3556 1.1684,0.2032 1.4478,0.0508 1.1684,-0.5588 1.2192,-2.3114 1.2954,-3.4036 l 1.1938,-14.986 c 0.0508,-0.5842 0.1016,-1.143 0.4572,-1.2446 v -0.1524 h -2.1082 l 0.0254,0.1524 c 0.4318,0.1778 0.3302,0.6858 0.3048,1.3716 l -0.381,8.7884 h -0.0762 l -0.5842,-8.6868 c -0.0508,-0.889 -0.2032,-1.3208 0.3048,-1.4732 v -0.1524 z"
         style="font-family:OPTIEngeEtienne;-inkscape-font-specification:'OPTIEngeEtienne, Normal';fill:#782121"
         id="path11617" />
      <path
         d="m 94.79147,111.04802 v 2.6162 h 1.9304 v -2.6162 z m 1.9304,4.4196 h -2.4638 v 0.1524 c 0.6096,0.3048 0.5334,0.5842 0.5334,1.3716 v 12.827 c 0,0.8128 0.0762,1.0668 -0.5334,1.3716 v 0.1524 h 2.9718 v -0.1524 c -0.6096,-0.2794 -0.508,-0.5842 -0.508,-1.3716 z"
         style="font-family:OPTIEngeEtienne;-inkscape-font-specification:'OPTIEngeEtienne, Normal';fill:#782121"
         id="path11619" />
      <path
         d="m 100.58265,115.46762 h -2.463797 v 0.1524 c 0.6096,0.3048 0.5334,0.5842 0.5334,1.3716 v 12.827 c 0,0.8128 0.0762,1.0668 -0.5334,1.3716 v 0.1524 h 2.819397 v -0.1524 c -0.4572,-0.2286 -0.3556,-0.5588 -0.3556,-1.3462 v -11.6586 c 0,-0.7112 0.127,-1.4478 0.5588,-1.4732 0.3302,-0.0254 0.3556,0.381 0.3556,0.9398 v 12.1666 c 0,0.8128 0.0508,1.1176 -0.381,1.3716 v 0.1524 h 2.8194 v -0.1524 c -0.6096,-0.2794 -0.508,-0.5842 -0.508,-1.3716 v -12.2936 c 0,-0.8128 0.127,-2.1844 -1.0668,-2.2352 -0.7874,-0.0254 -1.4732,0.7874 -1.778,1.2192 z"
         style="font-family:OPTIEngeEtienne;-inkscape-font-specification:'OPTIEngeEtienne, Normal';fill:#782121"
         id="path11621" />
      <path
         d="m 108.02482,116.53442 c -0.3302,-0.762 -0.6858,-1.2446 -1.4732,-1.2446 -1.3208,0 -1.4224,1.6002 -1.4224,2.3114 v 10.541 c 0,1.2954 -0.127,2.794 0.9398,3.1496 0.6604,0.2286 1.3462,-0.2032 1.905,-0.9398 v 3.0734 c 0,0.3556 0.0254,0.889 -0.381,0.889 -0.254,0 -0.4318,-0.1778 -0.5334,-0.5842 -0.0254,-0.1778 -0.0254,-0.4064 -0.0254,-0.5842 0.0254,-0.4826 0.0762,-0.7874 0.1524,-1.1684 l -1.9558,0.889 c 0,0.8128 -0.0508,1.5748 1.0414,2.2098 0.7112,0.4064 1.8034,0.3556 2.4892,-0.0508 1.3716,-0.7366 1.2192,-2.2098 1.2192,-3.2512 v -15.367 c 0,-0.3556 0.0254,-0.6858 0.4064,-0.7874 v -0.1524 h -2.3622 z m -0.9906,1.2192 c 0,-0.4572 0.0254,-1.016 0.4318,-1.016 0.4064,0 0.5588,0.5842 0.5588,1.1176 v 10.541 c 0,0.5842 0,1.8034 -0.635,1.8034 -0.381,0 -0.3556,-0.381 -0.3556,-1.143 z"
         style="font-family:OPTIEngeEtienne;-inkscape-font-specification:'OPTIEngeEtienne, Normal';fill:#782121"
         id="path11623" />
    </g>
  </g>
</svg>
