<?xml version="1.0" encoding="UTF-8" standalone="no"?>
<!-- Created with Inkscape (http://www.inkscape.org/) -->

<svg
   width="100.07269mm"
   height="43.513191mm"
   viewBox="0 0 100.07269 43.513191"
   version="1.1"
   id="svg5"
   inkscape:version="1.1 (c68e22c387, 2021-05-23)"
   sodipodi:docname="auto-adventurerealtime3d.svg"
   xmlns:inkscape="http://www.inkscape.org/namespaces/inkscape"
   xmlns:sodipodi="http://sodipodi.sourceforge.net/DTD/sodipodi-0.dtd"
   xmlns="http://www.w3.org/2000/svg"
   xmlns:svg="http://www.w3.org/2000/svg">
  <sodipodi:namedview
     id="namedview7"
     pagecolor="#ffffff"
     bordercolor="#666666"
     borderopacity="1.0"
     inkscape:pageshadow="2"
     inkscape:pageopacity="0.0"
     inkscape:pagecheckerboard="0"
     inkscape:document-units="mm"
     showgrid="false"
     inkscape:zoom="1.3416246"
     inkscape:cx="188.95003"
     inkscape:cy="170.68858"
     inkscape:window-width="1920"
     inkscape:window-height="1138"
     inkscape:window-x="-8"
     inkscape:window-y="-8"
     inkscape:window-maximized="1"
     inkscape:current-layer="layer1"
     fit-margin-top="0"
     fit-margin-left="0"
     fit-margin-right="0"
     fit-margin-bottom="0" />
  <defs
     id="defs2" />
  <g
     inkscape:label="Calque 1"
     inkscape:groupmode="layer"
     id="layer1"
     transform="translate(-54.957313,-103.16874)">
    <g
       id="g20868">
      <rect
         style="fill:#ffffff;fill-opacity:1;fill-rule:evenodd;stroke:none;stroke-width:3.00341;stroke-linecap:round;stroke-linejoin:round;stroke-miterlimit:4;stroke-dasharray:none;paint-order:stroke markers fill"
         id="rect20586"
         width="9.6633472"
         height="13.410358"
         x="61.959671"
         y="106.52026" />
      <rect
         style="fill:#ffffff;fill-opacity:1;fill-rule:evenodd;stroke:none;stroke-width:4.32099;stroke-linecap:round;stroke-linejoin:round;stroke-miterlimit:4;stroke-dasharray:none;paint-order:stroke markers fill"
         id="rect20734"
         width="27.609562"
         height="8.6772909"
         x="72.152184"
         y="113.04784" />
      <rect
         style="fill:#ffffff;fill-opacity:1;fill-rule:evenodd;stroke:none;stroke-width:5.13868;stroke-linecap:round;stroke-linejoin:round;stroke-miterlimit:4;stroke-dasharray:none;paint-order:stroke markers fill"
         id="rect20816"
         width="39.04781"
         height="8.6772909"
         x="110.78136"
         y="112.51867" />
      <rect
         style="fill:#ffffff;fill-opacity:1;fill-rule:evenodd;stroke:none;stroke-width:5.25532;stroke-linecap:round;stroke-linejoin:round;stroke-miterlimit:4;stroke-dasharray:none;paint-order:stroke markers fill"
         id="rect20818"
         width="26.820717"
         height="13.213147"
         x="92.789703"
         y="128.39368" />
      <g
         id="g20490"
         style="stroke:#ffffff;stroke-width:4.5;stroke-linecap:round;stroke-linejoin:round;stroke-miterlimit:4;stroke-dasharray:none;paint-order:stroke markers fill">
        <g
           aria-label="Real time"
           id="text1574"
           style="font-size:25.4px;line-height:1.25;font-family:'Mario Kart DS';-inkscape-font-specification:'Mario Kart DS';fill:#00005d;fill-opacity:1;stroke:#ffffff;stroke-width:4.5;stroke-linecap:round;stroke-linejoin:round;stroke-miterlimit:4;stroke-dasharray:none;paint-order:stroke markers fill"
           transform="translate(8.0583699)">
          <path
             d="m 59.969343,105.41874 c -6.6548,0 -10.8204,5.1562 -10.8204,6.9342 0,1.5494 1.4732,1.6256 2.0066,1.6256 0.8128,0 0.8636,-0.8382 0.381,-0.8382 -0.1778,0 -0.2794,-0.0762 -0.2794,-0.4064 0,-1.2192 4.1402,-5.969 8.6868,-5.969 6.527799,0 4.140199,8.001 -3.302,8.763 1.0414,-1.9812 2.0066,-3.7338 2.4892,-4.445 0.2794,-0.5334 -1.1938,-1.0414 -1.9812,-1.0414 -0.254,0 -0.4318,0.0508 -0.4826,0.1524 -1.397,2.3622 -6.223,11.5824 -6.223,13.1064 0,0.5842 1.1684,1.016 1.905,1.016 0.3048,0 0.5334,-0.0762 0.5334,-0.254 0,-0.6858 1.1684,-3.302 2.5146,-6.0452 1.1938,1.6256 2.6924,7.9756 8.077199,7.9756 1.1938,0 1.1684,-0.889 0.6858,-0.889 -2.870199,0 -5.003799,-4.4958 -6.400799,-7.5692 9.474199,-1.9558 10.998199,-12.1158 2.2098,-12.1158 z"
             style="font-family:'Grand Aventure';-inkscape-font-specification:'Grand Aventure';fill:#00005d;fill-opacity:1;stroke:#ffffff;stroke-width:4.5;stroke-linecap:round;stroke-linejoin:round;stroke-miterlimit:4;stroke-dasharray:none;paint-order:stroke markers fill"
             id="path8311" />
          <path
             d="m 74.345715,115.80734 c -1.0668,2.2606 -3.5306,4.9784 -6.1214,4.9784 -1.5748,0 -1.9304,-1.143 -1.6002,-2.5146 2.2098,-0.3302 6.5532,-2.159 6.5532,-5.2578 0,-1.3716 -1.4986,-2.1336 -2.4384,-2.1336 -2.8956,0 -7.5438,4.5212 -7.5438,8.4074 0,2.159 1.524,3.3782 3.6068,3.3782 3.7592,0 7.1882,-3.2004 8.6868,-6.3246 0.1778,-0.3556 -0.9652,-0.889 -1.143,-0.5334 z m -3.6322,-2.5654 c 0.4064,0 0.508,0.3302 0.508,0.635 0,1.27 -2.1844,2.8702 -4.2418,3.2766 0.8382,-1.9304 2.54,-3.9116 3.7338,-3.9116 z"
             style="font-family:'Grand Aventure';-inkscape-font-specification:'Grand Aventure';fill:#00005d;fill-opacity:1;stroke:#ffffff;stroke-width:4.5;stroke-linecap:round;stroke-linejoin:round;stroke-miterlimit:4;stroke-dasharray:none;paint-order:stroke markers fill"
             id="path8313" />
          <path
             d="m 87.045699,115.80734 c -1.0668,2.2606 -3.2258,5.0038 -4.191,5.0038 -0.254,0 -0.4826,-0.1524 -0.4826,-0.6096 0,-1.2192 2.0828,-4.9022 2.0828,-5.461 0,-0.2286 -0.4572,-0.4572 -0.9906,-0.6096 0.1016,-0.381 0.127,-0.762 0.127,-1.1176 0,-1.3716 -1.4986,-2.1336 -2.4384,-2.1336 -3.4798,0 -8.3312,5.3594 -8.3312,9.2202 0,2.1844 1.8542,2.5654 2.413,2.5654 1.4224,0 2.9464,-0.8636 4.318,-2.1082 0.1016,2.159 1.9812,2.1082 1.9812,2.1082 2.794,0 5.1562,-3.2004 6.6548,-6.3246 0.1778,-0.3556 -0.9652,-0.889 -1.143,-0.5334 z m -10.922,5.1816 c -0.254,0 -0.4826,-0.127 -0.4826,-0.6096 0,-2.0574 3.8354,-7.1374 5.4864,-7.1374 0.4064,0 0.508,0.3302 0.508,0.635 0,2.0066 -3.81,7.112 -5.5118,7.112 z"
             style="font-family:'Grand Aventure';-inkscape-font-specification:'Grand Aventure';fill:#00005d;fill-opacity:1;stroke:#ffffff;stroke-width:4.5;stroke-linecap:round;stroke-linejoin:round;stroke-miterlimit:4;stroke-dasharray:none;paint-order:stroke markers fill"
             id="path8315" />
          <path
             d="m 85.445451,120.35394 c 0,2.3876 1.981199,2.3114 1.981199,2.3114 2.794,0 5.1816,-3.2004 6.6802,-6.3246 0.1778,-0.3556 -0.9398,-0.889 -1.1176,-0.5334 -1.0668,2.2606 -3.2512,5.0292 -4.2418,5.0292 -0.254,0 -0.4826,-0.1524 -0.4826,-0.6096 0,-1.7272 5.842,-12.9794 5.842,-13.5382 0,-0.508 -2.159,-1.016 -2.5146,-0.6604 -0.2032,0.2032 -6.146799,12.5476 -6.146799,14.3256 z"
             style="font-family:'Grand Aventure';-inkscape-font-specification:'Grand Aventure';fill:#00005d;fill-opacity:1;stroke:#ffffff;stroke-width:4.5;stroke-linecap:round;stroke-linejoin:round;stroke-miterlimit:4;stroke-dasharray:none;paint-order:stroke markers fill"
             id="path8317" />
          <path
             d="m 109.33349,115.80734 c -1.0668,2.2606 -3.6068,5.4102 -5.5626,5.4102 -0.5334,0 -0.8382,-0.4318 -0.8382,-1.0668 0,-0.9906 1.9558,-5.207 3.5814,-8.6868 0.9906,0 1.7526,0 1.7526,0 0.5334,0 1.0668,-0.6096 1.0668,-0.9398 0,-0.1016 -0.0508,-0.1778 -0.1778,-0.1778 -0.0508,0 -0.9652,0 -2.1082,0 0.9398,-1.9812 1.651,-3.4798 1.651,-3.683 0,-0.508 -2.159,-1.016 -2.5146,-0.6604 -0.0762,0.0762 -1.016,1.9558 -2.1336,4.3434 -0.9398,0 -1.651,0 -1.7272,0 -0.4572,0 -1.0668,0.5588 -1.0668,0.9398 0,0.0762 0.0254,0.1778 0.2286,0.1778 0.0508,0 0.9398,0 2.0574,0 -1.5494,3.3782 -3.175,7.239 -3.175,8.382 0,2.159 1.3716,2.8194 2.4638,2.8194 3.6322,0 6.1468,-3.2004 7.6454,-6.3246 0.1778,-0.3556 -0.9652,-0.889 -1.143,-0.5334 z"
             style="font-family:'Grand Aventure';-inkscape-font-specification:'Grand Aventure';fill:#00005d;fill-opacity:1;stroke:#ffffff;stroke-width:4.5;stroke-linecap:round;stroke-linejoin:round;stroke-miterlimit:4;stroke-dasharray:none;paint-order:stroke markers fill"
             id="path8319" />
          <path
             d="m 115.37863,115.80734 c -1.0668,2.2606 -3.22579,5.0038 -4.19099,5.0038 -0.254,0 -0.4826,-0.1524 -0.4826,-0.6096 0,-1.4732 3.53059,-7.9756 3.53059,-8.5344 0,-0.508 -2.13359,-1.016 -2.48919,-0.6604 -0.2286,0.2286 -3.8862,7.1628 -3.8862,9.3218 0,2.413 2.0066,2.3368 2.0066,2.3368 2.794,0 5.15619,-3.2004 6.65479,-6.3246 0.1778,-0.3556 -0.9652,-0.889 -1.143,-0.5334 z m -1.0922,-6.1468 c 1.1684,0 2.2352,-1.0414 2.2352,-2.2352 0,-0.8128 -0.6096,-1.524 -1.5748,-1.524 -1.1938,0 -2.26059,1.0668 -2.26059,2.2352 0,0.7366 0.55879,1.524 1.60019,1.524 z"
             style="font-family:'Grand Aventure';-inkscape-font-specification:'Grand Aventure';fill:#00005d;fill-opacity:1;stroke:#ffffff;stroke-width:4.5;stroke-linecap:round;stroke-linejoin:round;stroke-miterlimit:4;stroke-dasharray:none;paint-order:stroke markers fill"
             id="path8321" />
          <path
             d="m 133.48881,115.80734 c -1.0668,2.2606 -3.2258,5.0038 -4.191,5.0038 -0.254,0 -0.4826,-0.1524 -0.4826,-0.6096 0,-1.4478 2.2606,-4.3942 2.2606,-6.7818 0,-2.159 -1.8542,-2.54 -2.413,-2.54 -1.2954,0 -2.667,0.6096 -3.8608,1.5748 -0.4572,-1.3208 -1.8034,-1.5748 -2.286,-1.5748 -0.8128,0 -1.651,0.254 -2.4638,0.6858 -0.4572,-0.5334 -2.2098,-0.889 -2.413,-0.5334 -1.143,2.032 -4.445,9.4488 -4.445,10.6172 0,0.8382 2.4384,1.3208 2.4384,0.762 0,-0.4826 0.5588,-2.032 1.3208,-3.81 1.3462,-2.7178 3.7592,-6.0452 4.953,-6.0452 0.254,0 0.4826,0.127 0.4826,0.6096 0,1.2446 -3.0734,7.2898 -3.0734,8.4836 0,0.8382 2.4384,1.3208 2.4384,0.762 0,-0.4318 0.508,-1.8542 1.27,-3.683 1.3462,-2.7432 3.81,-6.1722 5.0038,-6.1722 0.254,0 0.4826,0.127 0.4826,0.6096 0,1.6764 -2.54,4.826 -2.54,7.1628 0,2.413 2.0066,2.3368 2.0066,2.3368 2.794,0 5.1562,-3.2004 6.6548,-6.3246 0.1778,-0.3556 -0.9652,-0.889 -1.143,-0.5334 z"
             style="font-family:'Grand Aventure';-inkscape-font-specification:'Grand Aventure';fill:#00005d;fill-opacity:1;stroke:#ffffff;stroke-width:4.5;stroke-linecap:round;stroke-linejoin:round;stroke-miterlimit:4;stroke-dasharray:none;paint-order:stroke markers fill"
             id="path8323" />
          <path
             d="m 143.5726,115.80734 c -1.0668,2.2606 -3.5306,4.9784 -6.1214,4.9784 -1.5748,0 -1.9304,-1.143 -1.6002,-2.5146 2.2098,-0.3302 6.5532,-2.159 6.5532,-5.2578 0,-1.3716 -1.4986,-2.1336 -2.4384,-2.1336 -2.8956,0 -7.5438,4.5212 -7.5438,8.4074 0,2.159 1.524,3.3782 3.6068,3.3782 3.7592,0 7.1882,-3.2004 8.6868,-6.3246 0.1778,-0.3556 -0.9652,-0.889 -1.143,-0.5334 z m -3.6322,-2.5654 c 0.4064,0 0.508,0.3302 0.508,0.635 0,1.27 -2.1844,2.8702 -4.2418,3.2766 0.8382,-1.9304 2.54,-3.9116 3.7338,-3.9116 z"
             style="font-family:'Grand Aventure';-inkscape-font-specification:'Grand Aventure';fill:#00005d;fill-opacity:1;stroke:#ffffff;stroke-width:4.5;stroke-linecap:round;stroke-linejoin:round;stroke-miterlimit:4;stroke-dasharray:none;paint-order:stroke markers fill"
             id="path8325" />
        </g>
        <g
           aria-label="3D"
           id="text9045"
           style="font-size:25.4px;line-height:1.25;font-family:'Mario Kart DS';-inkscape-font-specification:'Mario Kart DS';stroke:#ffffff;stroke-width:4.5;stroke-linecap:round;stroke-linejoin:round;stroke-miterlimit:4;stroke-dasharray:none;paint-order:stroke markers fill"
           transform="translate(9.870131,-10.233359)">
          <path
             d="m 91.739872,139.14589 c 0,-2.5146 -1.955799,-3.0734 -3.606799,-3.0734 -3.556,0 -5.969,2.6416 -5.969,4.826 0,1.1176 2.3114,1.6002 2.3114,0.762 0,-1.8288 2.6162,-3.8862 4.0894,-3.8862 0.6858,0 0.8128,0.6096 0.8128,0.9652 0,1.9304 -2.4892,4.6228 -4.8768,4.6228 -1.0414,0 -1.0668,1.8288 -0.127,1.8288 0.0254,0 0.0508,0 0.1016,0 0.0762,0 0.1524,0 0.254,0 0.8636,-0.0508 2.1082,-0.1016 2.1082,1.27 0,1.5494 -2.0066,4.6736 -3.9624,4.6736 -1.016,0 -0.7874,-1.5494 -0.5334,-2.5908 0.3048,-1.0668 -1.905,-1.3716 -2.1844,-0.4318 -0.1524,0.381 -1.7272,4.7244 2.8702,4.7244 3.3528,0 6.5786,-3.175 6.5786,-6.3754 0,-1.2446 -0.635,-1.9812 -1.4224,-2.413 2.006599,-1.2446 3.555999,-3.2258 3.555999,-4.9022 z"
             style="font-family:'Grand Aventure';-inkscape-font-specification:'Grand Aventure';stroke:#ffffff;stroke-width:4.5;stroke-linecap:round;stroke-linejoin:round;stroke-miterlimit:4;stroke-dasharray:none;paint-order:stroke markers fill"
             id="path11870" />
          <path
             d="m 103.57626,136.07249 c -6.527803,0 -10.617203,5.1816 -10.617203,6.9342 0,1.5494 1.4732,1.6256 2.0066,1.6256 0.8128,0 0.8636,-0.8636 0.381,-0.8636 -0.1778,0 -0.2794,-0.0508 -0.2794,-0.381 0,-1.2192 4.1402,-5.969 8.686803,-5.969 8.5598,0 1.524,15.24 -4.013203,15.24 -0.8128,0 -1.5494,-0.2794 -2.2352,-0.635 2.2606,-3.048 4.140203,-8.0772 6.299203,-11.7856 0.2794,-0.5334 -1.3716,-1.0668 -2.2606,-1.0668 -0.254,0 -0.4572,0.0508 -0.508,0.1524 0,0 -3.225803,7.4422 -5.765803,11.2776 -0.381,-0.2286 -0.7366,-0.381 -1.0668,-0.381 -0.4572,0 -0.762,0.9652 -0.2032,0.9652 0.2286,0 0.4826,0.1016 0.7112,0.2286 -0.6604,0.889 -1.2192,1.4224 -1.6764,1.4224 -0.8128,0 -0.8382,-0.635 -0.3556,-1.2446 0.254,-0.254 -0.2794,-0.9144 -0.5842,-0.9144 -0.0254,0 -0.0762,0 -0.1016,0.0254 -0.6604,0.381 -1.2446,1.0922 -1.2446,1.778 0,0 0,2.1844 2.794,2.1844 1.1684,0 2.1844,-0.635 3.1496,-1.651 0.9398,0.762 2.1082,1.4732 3.657603,1.4732 8.7884,0 15.9766,-18.415 3.2258,-18.415 z"
             style="font-family:'Grand Aventure';-inkscape-font-specification:'Grand Aventure';stroke:#ffffff;stroke-width:4.5;stroke-linecap:round;stroke-linejoin:round;stroke-miterlimit:4;stroke-dasharray:none;paint-order:stroke markers fill"
             id="path11872" />
        </g>
      </g>
      <g
         id="g20476"
         transform="translate(-0.278899,62.194408)">
        <g
           aria-label="Real time"
           id="g15952"
           style="font-size:25.4px;line-height:1.25;font-family:'Mario Kart DS';-inkscape-font-specification:'Mario Kart DS';fill:#00005d;fill-opacity:1;stroke-width:0.264583"
           transform="translate(8.3372686,-62.194408)">
          <path
             d="m 59.969343,105.41874 c -6.6548,0 -10.8204,5.1562 -10.8204,6.9342 0,1.5494 1.4732,1.6256 2.0066,1.6256 0.8128,0 0.8636,-0.8382 0.381,-0.8382 -0.1778,0 -0.2794,-0.0762 -0.2794,-0.4064 0,-1.2192 4.1402,-5.969 8.6868,-5.969 6.527799,0 4.140199,8.001 -3.302,8.763 1.0414,-1.9812 2.0066,-3.7338 2.4892,-4.445 0.2794,-0.5334 -1.1938,-1.0414 -1.9812,-1.0414 -0.254,0 -0.4318,0.0508 -0.4826,0.1524 -1.397,2.3622 -6.223,11.5824 -6.223,13.1064 0,0.5842 1.1684,1.016 1.905,1.016 0.3048,0 0.5334,-0.0762 0.5334,-0.254 0,-0.6858 1.1684,-3.302 2.5146,-6.0452 1.1938,1.6256 2.6924,7.9756 8.077199,7.9756 1.1938,0 1.1684,-0.889 0.6858,-0.889 -2.870199,0 -5.003799,-4.4958 -6.400799,-7.5692 9.474199,-1.9558 10.998199,-12.1158 2.2098,-12.1158 z"
             style="font-family:'Grand Aventure';-inkscape-font-specification:'Grand Aventure';fill:#00005d;fill-opacity:1"
             id="path15936" />
          <path
             d="m 74.345715,115.80734 c -1.0668,2.2606 -3.5306,4.9784 -6.1214,4.9784 -1.5748,0 -1.9304,-1.143 -1.6002,-2.5146 2.2098,-0.3302 6.5532,-2.159 6.5532,-5.2578 0,-1.3716 -1.4986,-2.1336 -2.4384,-2.1336 -2.8956,0 -7.5438,4.5212 -7.5438,8.4074 0,2.159 1.524,3.3782 3.6068,3.3782 3.7592,0 7.1882,-3.2004 8.6868,-6.3246 0.1778,-0.3556 -0.9652,-0.889 -1.143,-0.5334 z m -3.6322,-2.5654 c 0.4064,0 0.508,0.3302 0.508,0.635 0,1.27 -2.1844,2.8702 -4.2418,3.2766 0.8382,-1.9304 2.54,-3.9116 3.7338,-3.9116 z"
             style="font-family:'Grand Aventure';-inkscape-font-specification:'Grand Aventure';fill:#00005d;fill-opacity:1"
             id="path15938" />
          <path
             d="m 87.045699,115.80734 c -1.0668,2.2606 -3.2258,5.0038 -4.191,5.0038 -0.254,0 -0.4826,-0.1524 -0.4826,-0.6096 0,-1.2192 2.0828,-4.9022 2.0828,-5.461 0,-0.2286 -0.4572,-0.4572 -0.9906,-0.6096 0.1016,-0.381 0.127,-0.762 0.127,-1.1176 0,-1.3716 -1.4986,-2.1336 -2.4384,-2.1336 -3.4798,0 -8.3312,5.3594 -8.3312,9.2202 0,2.1844 1.8542,2.5654 2.413,2.5654 1.4224,0 2.9464,-0.8636 4.318,-2.1082 0.1016,2.159 1.9812,2.1082 1.9812,2.1082 2.794,0 5.1562,-3.2004 6.6548,-6.3246 0.1778,-0.3556 -0.9652,-0.889 -1.143,-0.5334 z m -10.922,5.1816 c -0.254,0 -0.4826,-0.127 -0.4826,-0.6096 0,-2.0574 3.8354,-7.1374 5.4864,-7.1374 0.4064,0 0.508,0.3302 0.508,0.635 0,2.0066 -3.81,7.112 -5.5118,7.112 z"
             style="font-family:'Grand Aventure';-inkscape-font-specification:'Grand Aventure';fill:#00005d;fill-opacity:1"
             id="path15940" />
          <path
             d="m 85.445451,120.35394 c 0,2.3876 1.981199,2.3114 1.981199,2.3114 2.794,0 5.1816,-3.2004 6.6802,-6.3246 0.1778,-0.3556 -0.9398,-0.889 -1.1176,-0.5334 -1.0668,2.2606 -3.2512,5.0292 -4.2418,5.0292 -0.254,0 -0.4826,-0.1524 -0.4826,-0.6096 0,-1.7272 5.842,-12.9794 5.842,-13.5382 0,-0.508 -2.159,-1.016 -2.5146,-0.6604 -0.2032,0.2032 -6.146799,12.5476 -6.146799,14.3256 z"
             style="font-family:'Grand Aventure';-inkscape-font-specification:'Grand Aventure';fill:#00005d;fill-opacity:1"
             id="path15942" />
          <path
             d="m 109.33349,115.80734 c -1.0668,2.2606 -3.6068,5.4102 -5.5626,5.4102 -0.5334,0 -0.8382,-0.4318 -0.8382,-1.0668 0,-0.9906 1.9558,-5.207 3.5814,-8.6868 0.9906,0 1.7526,0 1.7526,0 0.5334,0 1.0668,-0.6096 1.0668,-0.9398 0,-0.1016 -0.0508,-0.1778 -0.1778,-0.1778 -0.0508,0 -0.9652,0 -2.1082,0 0.9398,-1.9812 1.651,-3.4798 1.651,-3.683 0,-0.508 -2.159,-1.016 -2.5146,-0.6604 -0.0762,0.0762 -1.016,1.9558 -2.1336,4.3434 -0.9398,0 -1.651,0 -1.7272,0 -0.4572,0 -1.0668,0.5588 -1.0668,0.9398 0,0.0762 0.0254,0.1778 0.2286,0.1778 0.0508,0 0.9398,0 2.0574,0 -1.5494,3.3782 -3.175,7.239 -3.175,8.382 0,2.159 1.3716,2.8194 2.4638,2.8194 3.6322,0 6.1468,-3.2004 7.6454,-6.3246 0.1778,-0.3556 -0.9652,-0.889 -1.143,-0.5334 z"
             style="font-family:'Grand Aventure';-inkscape-font-specification:'Grand Aventure';fill:#00005d;fill-opacity:1"
             id="path15944" />
          <path
             d="m 115.37863,115.80734 c -1.0668,2.2606 -3.22579,5.0038 -4.19099,5.0038 -0.254,0 -0.4826,-0.1524 -0.4826,-0.6096 0,-1.4732 3.53059,-7.9756 3.53059,-8.5344 0,-0.508 -2.13359,-1.016 -2.48919,-0.6604 -0.2286,0.2286 -3.8862,7.1628 -3.8862,9.3218 0,2.413 2.0066,2.3368 2.0066,2.3368 2.794,0 5.15619,-3.2004 6.65479,-6.3246 0.1778,-0.3556 -0.9652,-0.889 -1.143,-0.5334 z m -1.0922,-6.1468 c 1.1684,0 2.2352,-1.0414 2.2352,-2.2352 0,-0.8128 -0.6096,-1.524 -1.5748,-1.524 -1.1938,0 -2.26059,1.0668 -2.26059,2.2352 0,0.7366 0.55879,1.524 1.60019,1.524 z"
             style="font-family:'Grand Aventure';-inkscape-font-specification:'Grand Aventure';fill:#00005d;fill-opacity:1"
             id="path15946" />
          <path
             d="m 133.48881,115.80734 c -1.0668,2.2606 -3.2258,5.0038 -4.191,5.0038 -0.254,0 -0.4826,-0.1524 -0.4826,-0.6096 0,-1.4478 2.2606,-4.3942 2.2606,-6.7818 0,-2.159 -1.8542,-2.54 -2.413,-2.54 -1.2954,0 -2.667,0.6096 -3.8608,1.5748 -0.4572,-1.3208 -1.8034,-1.5748 -2.286,-1.5748 -0.8128,0 -1.651,0.254 -2.4638,0.6858 -0.4572,-0.5334 -2.2098,-0.889 -2.413,-0.5334 -1.143,2.032 -4.445,9.4488 -4.445,10.6172 0,0.8382 2.4384,1.3208 2.4384,0.762 0,-0.4826 0.5588,-2.032 1.3208,-3.81 1.3462,-2.7178 3.7592,-6.0452 4.953,-6.0452 0.254,0 0.4826,0.127 0.4826,0.6096 0,1.2446 -3.0734,7.2898 -3.0734,8.4836 0,0.8382 2.4384,1.3208 2.4384,0.762 0,-0.4318 0.508,-1.8542 1.27,-3.683 1.3462,-2.7432 3.81,-6.1722 5.0038,-6.1722 0.254,0 0.4826,0.127 0.4826,0.6096 0,1.6764 -2.54,4.826 -2.54,7.1628 0,2.413 2.0066,2.3368 2.0066,2.3368 2.794,0 5.1562,-3.2004 6.6548,-6.3246 0.1778,-0.3556 -0.9652,-0.889 -1.143,-0.5334 z"
             style="font-family:'Grand Aventure';-inkscape-font-specification:'Grand Aventure';fill:#00005d;fill-opacity:1"
             id="path15948" />
          <path
             d="m 143.5726,115.80734 c -1.0668,2.2606 -3.5306,4.9784 -6.1214,4.9784 -1.5748,0 -1.9304,-1.143 -1.6002,-2.5146 2.2098,-0.3302 6.5532,-2.159 6.5532,-5.2578 0,-1.3716 -1.4986,-2.1336 -2.4384,-2.1336 -2.8956,0 -7.5438,4.5212 -7.5438,8.4074 0,2.159 1.524,3.3782 3.6068,3.3782 3.7592,0 7.1882,-3.2004 8.6868,-6.3246 0.1778,-0.3556 -0.9652,-0.889 -1.143,-0.5334 z m -3.6322,-2.5654 c 0.4064,0 0.508,0.3302 0.508,0.635 0,1.27 -2.1844,2.8702 -4.2418,3.2766 0.8382,-1.9304 2.54,-3.9116 3.7338,-3.9116 z"
             style="font-family:'Grand Aventure';-inkscape-font-specification:'Grand Aventure';fill:#00005d;fill-opacity:1"
             id="path15950" />
        </g>
        <g
           aria-label="3D"
           id="g15958"
           style="font-size:25.4px;line-height:1.25;font-family:'Mario Kart DS';-inkscape-font-specification:'Mario Kart DS';stroke-width:0.264583"
           transform="translate(10.14903,-72.427767)">
          <path
             d="m 91.739872,139.14589 c 0,-2.5146 -1.955799,-3.0734 -3.606799,-3.0734 -3.556,0 -5.969,2.6416 -5.969,4.826 0,1.1176 2.3114,1.6002 2.3114,0.762 0,-1.8288 2.6162,-3.8862 4.0894,-3.8862 0.6858,0 0.8128,0.6096 0.8128,0.9652 0,1.9304 -2.4892,4.6228 -4.8768,4.6228 -1.0414,0 -1.0668,1.8288 -0.127,1.8288 0.0254,0 0.0508,0 0.1016,0 0.0762,0 0.1524,0 0.254,0 0.8636,-0.0508 2.1082,-0.1016 2.1082,1.27 0,1.5494 -2.0066,4.6736 -3.9624,4.6736 -1.016,0 -0.7874,-1.5494 -0.5334,-2.5908 0.3048,-1.0668 -1.905,-1.3716 -2.1844,-0.4318 -0.1524,0.381 -1.7272,4.7244 2.8702,4.7244 3.3528,0 6.5786,-3.175 6.5786,-6.3754 0,-1.2446 -0.635,-1.9812 -1.4224,-2.413 2.006599,-1.2446 3.555999,-3.2258 3.555999,-4.9022 z"
             style="font-family:'Grand Aventure';-inkscape-font-specification:'Grand Aventure'"
             id="path15954" />
          <path
             d="m 103.57626,136.07249 c -6.527803,0 -10.617203,5.1816 -10.617203,6.9342 0,1.5494 1.4732,1.6256 2.0066,1.6256 0.8128,0 0.8636,-0.8636 0.381,-0.8636 -0.1778,0 -0.2794,-0.0508 -0.2794,-0.381 0,-1.2192 4.1402,-5.969 8.686803,-5.969 8.5598,0 1.524,15.24 -4.013203,15.24 -0.8128,0 -1.5494,-0.2794 -2.2352,-0.635 2.2606,-3.048 4.140203,-8.0772 6.299203,-11.7856 0.2794,-0.5334 -1.3716,-1.0668 -2.2606,-1.0668 -0.254,0 -0.4572,0.0508 -0.508,0.1524 0,0 -3.225803,7.4422 -5.765803,11.2776 -0.381,-0.2286 -0.7366,-0.381 -1.0668,-0.381 -0.4572,0 -0.762,0.9652 -0.2032,0.9652 0.2286,0 0.4826,0.1016 0.7112,0.2286 -0.6604,0.889 -1.2192,1.4224 -1.6764,1.4224 -0.8128,0 -0.8382,-0.635 -0.3556,-1.2446 0.254,-0.254 -0.2794,-0.9144 -0.5842,-0.9144 -0.0254,0 -0.0762,0 -0.1016,0.0254 -0.6604,0.381 -1.2446,1.0922 -1.2446,1.778 0,0 0,2.1844 2.794,2.1844 1.1684,0 2.1844,-0.635 3.1496,-1.651 0.9398,0.762 2.1082,1.4732 3.657603,1.4732 8.7884,0 15.9766,-18.415 3.2258,-18.415 z"
             style="font-family:'Grand Aventure';-inkscape-font-specification:'Grand Aventure'"
             id="path15956" />
        </g>
      </g>
    </g>
  </g>
</svg>
