<?xml version="1.0" encoding="UTF-8" standalone="no"?>
<svg
   viewBox="0 0 184.28293 24.450001"
   version="1.1"
   id="svg26"
   sodipodi:docname="auto-actionshootemup.svg"
   width="184.28293"
   height="24.450001"
   inkscape:version="1.1 (c68e22c387, 2021-05-23)"
   xmlns:inkscape="http://www.inkscape.org/namespaces/inkscape"
   xmlns:sodipodi="http://sodipodi.sourceforge.net/DTD/sodipodi-0.dtd"
   xmlns="http://www.w3.org/2000/svg"
   xmlns:svg="http://www.w3.org/2000/svg">
  <defs
     id="defs30" />
  <sodipodi:namedview
     id="namedview28"
     pagecolor="#ffffff"
     bordercolor="#666666"
     borderopacity="1.0"
     inkscape:pageshadow="2"
     inkscape:pageopacity="0.0"
     inkscape:pagecheckerboard="0"
     showgrid="false"
     fit-margin-top="0"
     fit-margin-left="0"
     fit-margin-right="0"
     fit-margin-bottom="0"
     inkscape:zoom="3.9350492"
     inkscape:cx="75.856739"
     inkscape:cy="32.01993"
     inkscape:window-width="1920"
     inkscape:window-height="1138"
     inkscape:window-x="-8"
     inkscape:window-y="-8"
     inkscape:window-maximized="1"
     inkscape:current-layer="svg26" />
  <g
     id="g872">
    <rect
       style="fill:#ffffff;fill-rule:evenodd;stroke:none;stroke-width:13.8925;stroke-linecap:round;stroke-linejoin:round;stroke-miterlimit:4;stroke-dasharray:none;paint-order:stroke markers fill"
       id="rect1457"
       width="62.260975"
       height="12.960447"
       x="11.63135"
       y="4.9549456" />
    <rect
       style="fill:#ffffff;fill-rule:evenodd;stroke:none;stroke-width:10.1291;stroke-linecap:round;stroke-linejoin:round;stroke-miterlimit:4;stroke-dasharray:none;paint-order:stroke markers fill"
       id="rect1575"
       width="33.098007"
       height="12.960447"
       x="104.76131"
       y="4.9549456" />
    <rect
       style="fill:#ffffff;fill-rule:evenodd;stroke:none;stroke-width:9.31899;stroke-linecap:round;stroke-linejoin:round;stroke-miterlimit:4;stroke-dasharray:none;paint-order:stroke markers fill"
       id="rect1577"
       width="28.015478"
       height="12.960447"
       x="148.76131"
       y="4.9549456" />
    <path
       style="color:#000000;fill:#000080;stroke:#ffffff;stroke-width:4.5;stroke-linecap:round;stroke-linejoin:round;stroke-miterlimit:4;stroke-dasharray:none;paint-order:stroke markers fill"
       d="m 2.249934,21.42 v 0 l 1.68,-4.95 v 0 c 1.68,0.46 3.22,0.69 4.62,0.69 v 0 0 c 1.4,0 2.53,-0.06 3.39,-0.18 v 0 l 0.24,-1.5 -2.49,-0.24 v 0 c -1.9,-0.18 -3.247,-0.61 -4.04,-1.29 v 0 0 c -0.787,-0.68 -1.18,-1.64 -1.18,-2.88 v 0 0 c 0,-0.54 0.06,-1.14 0.18,-1.8 v 0 0 c 0.46,-2.56 1.293,-4.32 2.5,-5.28 v 0 0 c 1.213,-0.96 3.09,-1.44 5.63,-1.44 v 0 0 c 2.54,0 4.78,0.25 6.72,0.75 v 0 l -1.56,4.8 v 0 c -1.74,-0.3 -3.14,-0.45 -4.2,-0.45 v 0 0 c -1.06,0 -1.96,0.05 -2.7,0.15 v 0 l -0.24,1.47 2.01,0.21 v 0 c 2.04,0.22 3.49,0.707 4.35,1.46 v 0 0 c 0.86,0.747 1.29,1.75 1.29,3.01 v 0 0 c 0,1.28 -0.28,2.6 -0.84,3.96 v 0 0 c -0.28,0.7 -0.587,1.287 -0.92,1.76 v 0 0 c -0.327,0.467 -0.747,0.863 -1.26,1.19 v 0 0 c -0.507,0.333 -0.97,0.583 -1.39,0.75 v 0 0 c -0.42,0.173 -0.95,0.3 -1.59,0.38 v 0 0 c -0.94,0.14 -2.09,0.21 -3.45,0.21 v 0 0 c -2.48,0 -4.73,-0.26 -6.75,-0.78 z m 33.479,0.33 h -5.7 l 1.14,-6.63 h -4.29 l -1.14,6.63 h -5.7 l 3.3,-18.75 h 5.7 l -1.17,6.63 h 4.29 l 1.17,-6.63 h 5.7 z m 11.279,-12.48 v 0 l -1.38,7.8 h 2.37 v 0 c 0.78,0 1.36,-0.093 1.74,-0.28 v 0 0 c 0.38,-0.193 0.63,-0.63 0.75,-1.31 v 0 l 1.38,-7.8 h -2.4 v 0 c -0.76,0 -1.33,0.093 -1.71,0.28 v 0 0 c -0.38,0.193 -0.63,0.63 -0.75,1.31 z m 3.45,-6.72 v 0 0 c 2.54,0 4.35,0.497 5.43,1.49 v 0 0 c 1.08,0.987 1.62,2.51 1.62,4.57 v 0 0 c 0,2.06 -0.326,4.217 -0.98,6.47 v 0 0 c -0.646,2.247 -1.676,3.993 -3.09,5.24 v 0 0 c -1.406,1.253 -3.466,1.88 -6.18,1.88 v 0 0 c -2.706,0 -4.6,-0.493 -5.68,-1.48 v 0 0 c -1.08,-0.993 -1.62,-2.52 -1.62,-4.58 v 0 0 c 0,-0.98 0.14,-2.273 0.42,-3.88 v 0 0 c 0.28,-1.613 0.65,-3.003 1.11,-4.17 v 0 0 c 0.46,-1.173 1.08,-2.19 1.86,-3.05 v 0 0 c 1.5,-1.66 3.87,-2.49 7.11,-2.49 z m 15.45,6.72 v 0 l -1.38,7.8 h 2.37 v 0 c 0.78,0 1.36,-0.093 1.74,-0.28 v 0 0 c 0.38,-0.193 0.63,-0.63 0.75,-1.31 v 0 l 1.38,-7.8 h -2.4 v 0 c -0.76,0 -1.33,0.093 -1.71,0.28 v 0 0 c -0.38,0.193 -0.63,0.63 -0.75,1.31 z m 3.45,-6.72 v 0 0 c 2.54,0 4.35,0.497 5.43,1.49 v 0 0 c 1.08,0.987 1.62,2.51 1.62,4.57 v 0 0 c 0,2.06 -0.327,4.217 -0.98,6.47 v 0 0 c -0.647,2.247 -1.677,3.993 -3.09,5.24 v 0 0 c -1.407,1.253 -3.467,1.88 -6.18,1.88 v 0 0 c -2.707,0 -4.6,-0.493 -5.68,-1.48 v 0 0 c -1.08,-0.993 -1.62,-2.52 -1.62,-4.58 v 0 0 c 0,-0.98 0.14,-2.273 0.42,-3.88 v 0 0 c 0.28,-1.613 0.65,-3.003 1.11,-4.17 v 0 0 c 0.46,-1.173 1.08,-2.19 1.86,-3.05 v 0 0 c 1.5,-1.66 3.87,-2.49 7.11,-2.49 z m 23.879,0.45 -0.87,4.8 h -4.14 l -2.43,13.95 h -5.7 l 2.43,-13.95 h -4.11 l 0.87,-4.8 z m 7.168996,-0.12 v 0 l -0.33,1.92 v 0 c -0.02,0.08 -0.969996,2.73 -2.849996,7.95 v 0 h -2.85 v -6.93 0 c 0,-0.72 0.1,-1.64 0.3,-2.76 v 0 0 c 0.08,-0.54 0.48,-0.81 1.2,-0.81 v 0 h 3.6 v 0 c 0.619996,0 0.929996,0.21 0.929996,0.63 z m 13.2,7.44 -0.78,4.35 h -5.7 l -0.39,2.28 h 6.99 l -0.84,4.8 h -12.69 l 3.3,-18.75 h 12.54 l -1.56,4.8 h -6.15 l -0.42,2.52 z m 9.838,2.34 -1.949,9.09 h -5.94 l 4.38,-18.75 h 7.44 l 0.539,9.54 h 0.211 l 3.9,-9.54 h 7.44 l -2.22,18.75 h -5.97 l 1.259,-9.09 h -0.209 l -3.75,9.09 h -4.351 l -0.629,-9.09 z m 25.86,-9.66 h 5.7 l -2.491,14.07 h 2.041 v 0 c 0.7,0 1.2,-0.093 1.5,-0.28 v 0 0 c 0.299,-0.193 0.51,-0.63 0.63,-1.31 v 0 l 2.22,-12.48 h 5.699 l -1.859,10.53 v 0 c -0.3,1.7 -0.647,3.07 -1.04,4.11 v 0 0 c -0.387,1.04 -0.93,1.92 -1.631,2.64 v 0 0 c -0.699,0.72 -1.566,1.22 -2.599,1.5 v 0 0 c -1.027,0.28 -2.33,0.42 -3.91,0.42 v 0 0 c -2.42,0 -4.117,-0.367 -5.09,-1.1 v 0 0 c -0.967,-0.727 -1.45,-1.98 -1.45,-3.76 v 0 0 c 0,-0.98 0.14,-2.25 0.42,-3.81 v 0 z m 25.528,14.22 v 0 h -3.72 l -0.78,4.53 h -5.699 l 3.3,-18.75 h 9 v 0 c 3.399,0 5.1,1.58 5.1,4.74 v 0 0 c 0,1.5 -0.21,2.853 -0.63,4.06 v 0 0 c -0.42,1.213 -0.883,2.177 -1.39,2.89 v 0 0 c -0.513,0.707 -1.216,1.307 -2.11,1.8 v 0 0 c -0.886,0.487 -1.91,0.73 -3.071,0.73 z m -0.75,-9.42 h -1.319 l -0.81,4.62 h 1.32 v 0 c 0.68,0 1.194,-0.073 1.54,-0.22 v 0 0 c 0.354,-0.153 0.579,-0.5 0.68,-1.04 v 0 0 c 0.26,-1.48 0.39,-2.29 0.39,-2.43 v 0 0 c 0,-0.38 -0.15,-0.63 -0.45,-0.75 v 0 0 c -0.3,-0.12 -0.75,-0.18 -1.351,-0.18 z"
       id="path24" />
    <path
       style="color:#000000;fill:#aa0000;-inkscape-stroke:none"
       d="m 2.249934,21.42 v 0 l 1.68,-4.95 v 0 c 1.68,0.46 3.22,0.69 4.62,0.69 v 0 0 c 1.4,0 2.53,-0.06 3.39,-0.18 v 0 l 0.24,-1.5 -2.49,-0.24 v 0 c -1.9,-0.18 -3.247,-0.61 -4.04,-1.29 v 0 0 c -0.787,-0.68 -1.18,-1.64 -1.18,-2.88 v 0 0 c 0,-0.54 0.06,-1.14 0.18,-1.8 v 0 0 c 0.46,-2.56 1.293,-4.32 2.5,-5.28 v 0 0 c 1.213,-0.96 3.09,-1.44 5.63,-1.44 v 0 0 c 2.54,0 4.78,0.25 6.72,0.75 v 0 l -1.56,4.8 v 0 c -1.74,-0.3 -3.14,-0.45 -4.2,-0.45 v 0 0 c -1.06,0 -1.96,0.05 -2.7,0.15 v 0 l -0.24,1.47 2.01,0.21 v 0 c 2.04,0.22 3.49,0.707 4.35,1.46 v 0 0 c 0.86,0.747 1.29,1.75 1.29,3.01 v 0 0 c 0,1.28 -0.28,2.6 -0.84,3.96 v 0 0 c -0.28,0.7 -0.587,1.287 -0.92,1.76 v 0 0 c -0.327,0.467 -0.747,0.863 -1.26,1.19 v 0 0 c -0.507,0.333 -0.97,0.583 -1.39,0.75 v 0 0 c -0.42,0.173 -0.95,0.3 -1.59,0.38 v 0 0 c -0.94,0.14 -2.09,0.21 -3.45,0.21 v 0 0 c -2.48,0 -4.73,-0.26 -6.75,-0.78 z m 33.479,0.33 h -5.7 l 1.14,-6.63 h -4.29 l -1.14,6.63 h -5.7 l 3.3,-18.75 h 5.7 l -1.17,6.63 h 4.29 l 1.17,-6.63 h 5.7 z m 11.279,-12.48 v 0 l -1.38,7.8 h 2.37 v 0 c 0.78,0 1.36,-0.093 1.74,-0.28 v 0 0 c 0.38,-0.193 0.63,-0.63 0.75,-1.31 v 0 l 1.38,-7.8 h -2.4 v 0 c -0.76,0 -1.33,0.093 -1.71,0.28 v 0 0 c -0.38,0.193 -0.63,0.63 -0.75,1.31 z m 3.45,-6.72 v 0 0 c 2.54,0 4.35,0.497 5.43,1.49 v 0 0 c 1.08,0.987 1.62,2.51 1.62,4.57 v 0 0 c 0,2.06 -0.326,4.217 -0.98,6.47 v 0 0 c -0.646,2.247 -1.676,3.993 -3.09,5.24 v 0 0 c -1.406,1.253 -3.466,1.88 -6.18,1.88 v 0 0 c -2.706,0 -4.6,-0.493 -5.68,-1.48 v 0 0 c -1.08,-0.993 -1.62,-2.52 -1.62,-4.58 v 0 0 c 0,-0.98 0.14,-2.273 0.42,-3.88 v 0 0 c 0.28,-1.613 0.65,-3.003 1.11,-4.17 v 0 0 c 0.46,-1.173 1.08,-2.19 1.86,-3.05 v 0 0 c 1.5,-1.66 3.87,-2.49 7.11,-2.49 z m 15.45,6.72 v 0 l -1.38,7.8 h 2.37 v 0 c 0.78,0 1.36,-0.093 1.74,-0.28 v 0 0 c 0.38,-0.193 0.63,-0.63 0.75,-1.31 v 0 l 1.38,-7.8 h -2.4 v 0 c -0.76,0 -1.33,0.093 -1.71,0.28 v 0 0 c -0.38,0.193 -0.63,0.63 -0.75,1.31 z m 3.45,-6.72 v 0 0 c 2.54,0 4.35,0.497 5.43,1.49 v 0 0 c 1.08,0.987 1.62,2.51 1.62,4.57 v 0 0 c 0,2.06 -0.327,4.217 -0.98,6.47 v 0 0 c -0.647,2.247 -1.677,3.993 -3.09,5.24 v 0 0 c -1.407,1.253 -3.467,1.88 -6.18,1.88 v 0 0 c -2.707,0 -4.6,-0.493 -5.68,-1.48 v 0 0 c -1.08,-0.993 -1.62,-2.52 -1.62,-4.58 v 0 0 c 0,-0.98 0.14,-2.273 0.42,-3.88 v 0 0 c 0.28,-1.613 0.65,-3.003 1.11,-4.17 v 0 0 c 0.46,-1.173 1.08,-2.19 1.86,-3.05 v 0 0 c 1.5,-1.66 3.87,-2.49 7.11,-2.49 z m 23.879,0.45 -0.87,4.8 h -4.14 l -2.43,13.95 h -5.7 l 2.43,-13.95 h -4.11 l 0.87,-4.8 z m 7.168996,-0.12 v 0 l -0.33,1.92 v 0 c -0.02,0.08 -0.969996,2.73 -2.849996,7.95 v 0 h -2.85 v -6.93 0 c 0,-0.72 0.1,-1.64 0.3,-2.76 v 0 0 c 0.08,-0.54 0.48,-0.81 1.2,-0.81 v 0 h 3.6 v 0 c 0.619996,0 0.929996,0.21 0.929996,0.63 z m 13.2,7.44 -0.78,4.35 h -5.7 l -0.39,2.28 h 6.99 l -0.84,4.8 h -12.69 l 3.3,-18.75 h 12.53999 l -1.56,4.8 h -6.15 l -0.42,2.52 z m 9.838,2.34 -1.949,9.09 h -5.94 l 4.38,-18.75 h 7.44 l 0.539,9.54 h 0.211 L 132.02492,3 h 7.44 l -2.22,18.75 h -5.97 l 1.259,-9.09 h -0.209 l -3.75,9.09 h -4.351 l -0.629,-9.09 z M 149.30392,3 h 5.7 l -2.491,14.07 h 2.041 v 0 c 0.7,0 1.2,-0.093 1.5,-0.28 v 0 0 c 0.299,-0.193 0.51,-0.63 0.63,-1.31 v 0 l 2.22,-12.48 h 5.699 l -1.859,10.53 v 0 c -0.3,1.7 -0.647,3.07 -1.04,4.11 v 0 0 c -0.387,1.04 -0.93,1.92 -1.631,2.64 v 0 0 c -0.699,0.72 -1.566,1.22 -2.599,1.5 v 0 0 c -1.027,0.28 -2.33,0.42 -3.91,0.42 v 0 0 c -2.42,0 -4.117,-0.367 -5.09,-1.1 v 0 0 c -0.967,-0.727 -1.45,-1.98 -1.45,-3.76 v 0 0 c 0,-0.98 0.14,-2.25 0.42,-3.81 v 0 z m 25.528,14.22 v 0 h -3.72 l -0.78,4.53 h -5.699 l 3.3,-18.75 h 9 v 0 c 3.399,0 5.1,1.58 5.1,4.74 v 0 0 c 0,1.5 -0.21,2.853 -0.63,4.06 v 0 0 c -0.42,1.213 -0.883,2.177 -1.39,2.89 v 0 0 c -0.513,0.707 -1.216,1.307 -2.11,1.8 v 0 0 c -0.886,0.487 -1.91,0.73 -3.071,0.73 z m -0.75,-9.42 h -1.319 l -0.81,4.62 h 1.32 v 0 c 0.68,0 1.194,-0.073 1.54,-0.22 v 0 0 c 0.354,-0.153 0.579,-0.5 0.68,-1.04 v 0 0 c 0.26,-1.48 0.39,-2.29 0.39,-2.43 v 0 0 c 0,-0.38 -0.15,-0.63 -0.45,-0.75 v 0 0 c -0.3,-0.12 -0.75,-0.18 -1.351,-0.18 z"
       id="path1361" />
  </g>
</svg>
