<?xml version="1.0" encoding="UTF-8" standalone="no"?>
<!-- Created with Inkscape (http://www.inkscape.org/) -->

<svg
   width="142.11346mm"
   height="49.723202mm"
   viewBox="0 0 142.11346 49.723202"
   version="1.1"
   id="svg7766"
   inkscape:version="1.1 (c68e22c387, 2021-05-23)"
   sodipodi:docname="auto-adventuretext.svg"
   xmlns:inkscape="http://www.inkscape.org/namespaces/inkscape"
   xmlns:sodipodi="http://sodipodi.sourceforge.net/DTD/sodipodi-0.dtd"
   xmlns="http://www.w3.org/2000/svg"
   xmlns:svg="http://www.w3.org/2000/svg">
  <sodipodi:namedview
     id="namedview7768"
     pagecolor="#ffffff"
     bordercolor="#666666"
     borderopacity="1.0"
     inkscape:pageshadow="2"
     inkscape:pageopacity="0.0"
     inkscape:pagecheckerboard="0"
     inkscape:document-units="mm"
     showgrid="false"
     fit-margin-top="0"
     fit-margin-left="0"
     fit-margin-right="0"
     fit-margin-bottom="0"
     inkscape:zoom="0.94867184"
     inkscape:cx="268.2698"
     inkscape:cy="158.11579"
     inkscape:window-width="1920"
     inkscape:window-height="1138"
     inkscape:window-x="-8"
     inkscape:window-y="-8"
     inkscape:window-maximized="1"
     inkscape:current-layer="layer1" />
  <defs
     id="defs7763" />
  <g
     inkscape:label="Calque 1"
     inkscape:groupmode="layer"
     id="layer1"
     transform="translate(-33.943313,-106.57215)">
    <g
       id="g21214">
      <rect
         style="fill:#ffffff;fill-rule:evenodd;stroke:none;stroke-width:7.24439;stroke-linecap:round;stroke-linejoin:round;stroke-miterlimit:4;stroke-dasharray:none;paint-order:stroke markers fill"
         id="rect20926"
         width="72.968124"
         height="9.2689247"
         x="48.093281"
         y="132.88615" />
      <rect
         style="fill:#ffffff;fill-rule:evenodd;stroke:none;stroke-width:3.95898;stroke-linecap:round;stroke-linejoin:round;stroke-miterlimit:4;stroke-dasharray:none;paint-order:stroke markers fill"
         id="rect21074"
         width="8.2828693"
         height="18.338682"
         x="89.712585"
         y="110.60941" />
      <rect
         style="fill:#ffffff;fill-rule:evenodd;stroke:none;stroke-width:5.69795;stroke-linecap:round;stroke-linejoin:round;stroke-miterlimit:4;stroke-dasharray:none;paint-order:stroke markers fill"
         id="rect21156"
         width="17.157372"
         height="18.338682"
         x="106.67171"
         y="115.74986" />
      <rect
         style="fill:#ffffff;fill-rule:evenodd;stroke:none;stroke-width:8.82526;stroke-linecap:round;stroke-linejoin:round;stroke-miterlimit:4;stroke-dasharray:none;paint-order:stroke markers fill"
         id="rect21158"
         width="50.555042"
         height="14.930396"
         x="116.83373"
         y="130.41331" />
      <g
         id="g20798"
         style="stroke:#ffffff;stroke-width:4.5;stroke-linecap:round;stroke-linejoin:round;stroke-miterlimit:4;stroke-dasharray:none;paint-order:stroke markers fill">
        <g
           aria-label="Text"
           id="text8313"
           style="font-size:25.4px;line-height:1.25;font-family:'Mario Kart DS';-inkscape-font-specification:'Mario Kart DS';stroke:#ffffff;stroke-width:4.5;stroke-linecap:round;stroke-linejoin:round;stroke-miterlimit:4;stroke-dasharray:none;paint-order:stroke markers fill"
           transform="translate(28.651172,31.553785)">
          <path
             d="M 59.438233,95.450195 V 79.413965 H 53.447901 V 77.26836 h 14.411523 v 2.145605 h -6.015136 v 16.03623 z"
             style="font-family:Arial;-inkscape-font-specification:Arial;stroke:#ffffff;stroke-width:4.5;stroke-linecap:round;stroke-linejoin:round;stroke-miterlimit:4;stroke-dasharray:none;paint-order:stroke markers fill"
             id="path15704" />
          <path
             d="m 76.243409,91.208594 2.306836,0.285254 q -0.545704,2.021582 -2.021582,3.137793 -1.475879,1.116211 -3.770313,1.116211 -2.889746,0 -4.588867,-1.773536 -1.686719,-1.785937 -1.686719,-4.998144 0,-3.323828 1.711524,-5.159375 1.711523,-1.835547 4.440039,-1.835547 2.641699,0 4.316015,1.79834 1.674317,1.79834 1.674317,5.060156 0,0.198438 -0.0124,0.595313 H 68.7896 q 0.124024,2.17041 1.227832,3.323828 1.103809,1.153418 2.75332,1.153418 1.227832,0 2.095996,-0.644922 0.868165,-0.644922 1.376661,-2.058789 z m -7.329785,-3.609082 h 7.354589 q -0.148828,-1.661914 -0.843359,-2.492871 -1.066602,-1.289844 -2.765723,-1.289844 -1.53789,0 -2.592089,1.029395 -1.041797,1.029394 -1.153418,2.75332 z"
             style="font-family:Arial;-inkscape-font-specification:Arial;stroke:#ffffff;stroke-width:4.5;stroke-linecap:round;stroke-linejoin:round;stroke-miterlimit:4;stroke-dasharray:none;paint-order:stroke markers fill"
             id="path15706" />
          <path
             d="m 79.864893,95.450195 4.812109,-6.846093 -4.452441,-6.325196 h 2.790527 l 2.021582,3.088184 q 0.570508,0.880566 0.917774,1.475879 0.545703,-0.818555 1.004589,-1.451074 l 2.22002,-3.112989 h 2.666504 l -4.55166,6.201172 4.898925,6.970117 h -2.740917 l -2.703711,-4.092773 -0.719336,-1.103809 -3.460254,5.196582 z"
             style="font-family:Arial;-inkscape-font-specification:Arial;stroke:#ffffff;stroke-width:4.5;stroke-linecap:round;stroke-linejoin:round;stroke-miterlimit:4;stroke-dasharray:none;paint-order:stroke markers fill"
             id="path15708" />
          <path
             d="m 98.927294,93.453418 0.322461,1.971973 q -0.942578,0.198437 -1.686719,0.198437 -1.215429,0 -1.885156,-0.384473 -0.669727,-0.384472 -0.942578,-1.004589 -0.272852,-0.63252 -0.272852,-2.6417 V 84.015235 H 92.825341 V 82.278906 H 94.46245 V 79.01709 l 2.22002,-1.339453 v 4.601269 h 2.244824 v 1.736329 H 96.68247 v 7.701855 q 0,0.95498 0.111621,1.227832 0.124023,0.272851 0.384473,0.434082 0.272851,0.16123 0.768945,0.16123 0.37207,0 0.979785,-0.08682 z"
             style="font-family:Arial;-inkscape-font-specification:Arial;stroke:#ffffff;stroke-width:4.5;stroke-linecap:round;stroke-linejoin:round;stroke-miterlimit:4;stroke-dasharray:none;paint-order:stroke markers fill"
             id="path15710" />
        </g>
        <g
           aria-label="Adventure"
           id="text16760"
           style="font-size:32.5931px;line-height:1.25;font-family:'Mario Kart DS';-inkscape-font-specification:'Mario Kart DS';stroke:#ffffff;stroke-width:4.5;stroke-linecap:round;stroke-linejoin:round;stroke-miterlimit:4;stroke-dasharray:none;paint-order:stroke markers fill">
          <path
             d="m 51.423498,134.67736 q -0.827559,1.14585 -3.421639,5.53828 l -1.432314,2.41902 3.230664,-0.0637 0.732071,0.57293 q 0.923047,-2.00524 0.923047,-7.36846 0,-0.81165 -0.03183,-1.09811 z m -1.639204,11.47443 -4.838038,0.23872 q -1.480058,2.37127 -2.721397,6.17486 l -6.031633,1.48006 q 0.254633,-0.98671 2.35536,-5.21999 l 1.448229,-2.9442 q 2.052983,-4.16963 6.445413,-10.26492 2.403105,-3.37389 4.758466,-5.96797 1.38457,-0.0478 4.105967,-0.19098 l 0.143231,2.03707 q 0.143231,2.30762 0.143231,4.44017 0,4.18554 -0.620669,7.79816 -0.20689,0.62067 -0.954876,5.18816 -0.302377,1.89384 -0.604755,3.08743 l -6.031633,1.46414 q 0.636584,-2.05298 2.403104,-7.32071 z"
             style="font-family:Adventure;-inkscape-font-specification:Adventure;stroke:#ffffff;stroke-width:4.5;stroke-linecap:round;stroke-linejoin:round;stroke-miterlimit:4;stroke-dasharray:none;paint-order:stroke markers fill"
             id="path20665" />
          <path
             d="m 63.470851,137.46242 -2.498592,6.79553 q 3.18292,-0.74799 5.856573,-3.4853 2.148471,-2.24396 2.148471,-4.64706 0,-2.43493 -0.938962,-2.75323 -1.034449,-0.38195 -1.702862,-0.38195 h -0.04774 q -1.750606,0.0796 -2.76914,0.38195 l 1.416399,0.71616 q -0.190975,0.33421 -0.954876,2.00524 -0.143231,0.39787 -0.509267,1.36866 z m -2.673653,10.67869 -0.954876,0.30238 q -2.259873,0.30238 -4.281027,0.39787 0.318292,-0.89122 1.686947,-4.91762 0.668413,-2.00524 2.068898,-5.96797 0.604755,-1.60738 1.957496,-4.16963 -0.429694,0.27055 -1.145851,0.63659 l -0.938962,-4.3606 q 3.278408,-0.49336 5.665598,-0.49336 0.541097,0 1.225424,0.0637 1.893838,0.14323 2.164386,0.19098 1.00262,0.15914 2.212129,0.68433 2.673653,1.11402 2.673653,3.8195 0,0.50927 -0.111402,0.97079 -1.082193,9.29413 -12.222413,12.84308 z"
             style="font-family:Adventure;-inkscape-font-specification:Adventure;stroke:#ffffff;stroke-width:4.5;stroke-linecap:round;stroke-linejoin:round;stroke-miterlimit:4;stroke-dasharray:none;paint-order:stroke markers fill"
             id="path20667" />
          <path
             d="m 79.544598,148.0138 -4.822124,1.17768 q 0.190975,-0.44561 0.381951,-6.55682 0.127316,-5.3473 0.127316,-9.96254 0,-1.62329 -0.04774,-1.97341 l 4.662977,-1.05036 q 0.07957,0.25463 0.07957,1.14585 0,2.92828 -0.843473,11.15613 1.575545,-2.88054 3.533041,-5.96797 2.546336,-3.99457 3.962735,-5.4428 l 0.525182,-0.0477 q 1.432314,-0.17506 3.310237,-0.28646 -1.20951,1.44823 -2.641824,4.02639 -0.7639,1.4164 -2.291702,4.23329 l -2.80097,4.93352 q -1.877923,3.19884 -3.135176,4.61524 z"
             style="font-family:Adventure;-inkscape-font-specification:Adventure;stroke:#ffffff;stroke-width:4.5;stroke-linecap:round;stroke-linejoin:round;stroke-miterlimit:4;stroke-dasharray:none;paint-order:stroke markers fill"
             id="path20669" />
          <path
             d="m 102.95497,129.56877 -1.17768,3.70811 h -1.46414 q -4.121883,0 -6.445415,0.19097 l 0.79573,0.46152 q -0.190975,0.41378 -0.938961,2.19622 -0.20689,0.46152 -0.461524,1.08219 l 5.490538,-0.20689 -1.161766,3.32615 -5.410964,0.19098 q -0.588841,1.73469 -1.289083,4.40834 2.212129,-0.12731 6.620474,-0.3342 l -1.20951,3.67627 h -2.737311 q -2.80097,0 -8.243763,0.89122 v -0.0478 q 0,-0.17506 0.668413,-2.56225 0.79573,-2.76914 1.4164,-4.51974 1.050363,-2.92829 2.38719,-5.90432 0.509267,-1.11402 1.145851,-2.32353 -1.352741,0.14323 -2.530422,0.28646 l 1.129937,-3.8195 q 2.641824,-0.20689 6.318096,-0.41378 2.196215,-0.12732 7.09791,-0.28647 z"
             style="font-family:Adventure;-inkscape-font-specification:Adventure;stroke:#ffffff;stroke-width:4.5;stroke-linecap:round;stroke-linejoin:round;stroke-miterlimit:4;stroke-dasharray:none;paint-order:stroke markers fill"
             id="path20671" />
          <path
             d="m 102.19107,129.99847 4.67889,-1.05037 q 1.38457,5.52237 1.98933,10.3445 0.0796,0 0.57292,-1.17769 l 0.50927,-1.24133 q 0.82756,-1.94159 3.64445,-7.03426 l 0.52518,-0.0477 q 1.43231,-0.17506 3.31023,-0.28646 -1.70286,3.10334 -3.5967,7.36846 -0.66841,1.54371 -1.98932,5.90431 -0.36604,1.16177 -1.38457,4.67889 l -4.83804,1.17769 q 0.0637,-0.27055 0.0637,-0.82756 0,-2.73732 -0.68433,-7.25706 -0.25463,-1.78244 -0.44561,-1.78244 l -1.67103,4.01048 q -1.14585,2.7214 -1.38457,5.1245 l -4.822125,1.1936 q 0.843474,-3.11926 1.893837,-6.3181 0.811645,-2.43493 2.403108,-5.90431 0.70024,-1.52781 1.94158,-3.81951 0.0796,-0.23872 0.0796,-0.38195 0,-0.41378 -0.33421,-1.32091 -0.41377,-1.16177 -0.46152,-1.35274 z"
             style="font-family:Adventure;-inkscape-font-specification:Adventure;stroke:#ffffff;stroke-width:4.5;stroke-linecap:round;stroke-linejoin:round;stroke-miterlimit:4;stroke-dasharray:none;paint-order:stroke markers fill"
             id="path20673" />
          <path
             d="m 129.50053,129.56877 -1.17768,3.70811 h -1.5278 q -2.24396,0 -3.88317,0.0477 l 1.11403,0.60475 q -1.22543,2.33945 -2.99195,8.10054 -0.63658,2.1803 -1.59146,5.93614 l -0.12732,0.0478 q -1.71877,0.31829 -4.6948,1.14585 0.93896,-3.56487 2.14847,-7.12974 0.73207,-2.22805 2.41902,-5.90432 0.38195,-0.90713 1.27316,-2.65774 -2.41901,0.22281 -5.50645,0.62067 l 1.12994,-3.8195 q 2.76914,-0.20689 6.3181,-0.41378 2.1803,-0.12732 7.09791,-0.28647 z"
             style="font-family:Adventure;-inkscape-font-specification:Adventure;stroke:#ffffff;stroke-width:4.5;stroke-linecap:round;stroke-linejoin:round;stroke-miterlimit:4;stroke-dasharray:none;paint-order:stroke markers fill"
             id="path20675" />
          <path
             d="m 145.25598,129.56877 q -0.50927,1.1936 -1.71878,5.07676 -1.19359,3.88316 -1.84609,5.72926 -1.79835,5.09267 -4.12188,7.06608 -1.9575,1.6392 -5.09267,1.6392 -1.57555,0 -3.13518,-1.11402 -2.22804,-1.62329 -2.22804,-4.77438 0,-1.305 0.38195,-2.81688 1.20951,-4.74255 3.8195,-10.31266 l 4.16963,-0.49336 q -1.38457,3.34207 -1.79835,4.3606 -1.54372,3.93091 -2.16439,6.44542 -0.20689,0.93896 -0.20689,1.84609 0,2.80097 2.00524,2.80097 2.2917,0 4.0264,-4.64706 l 4.01047,-10.80602 z"
             style="font-family:Adventure;-inkscape-font-specification:Adventure;stroke:#ffffff;stroke-width:4.5;stroke-linecap:round;stroke-linejoin:round;stroke-miterlimit:4;stroke-dasharray:none;paint-order:stroke markers fill"
             id="path20677" />
          <path
             d="m 158.25821,135.29803 q -0.79573,4.2492 -5.44279,5.33139 2.97603,3.24658 4.94944,6.52499 l -4.39243,1.59146 q -1.89384,-3.85134 -5.06084,-7.54352 l -0.6525,-0.5411 -0.4297,1.32091 q -0.44561,1.43232 -1.59146,5.96798 l -0.14323,0.0159 q -2.03707,0.39787 -4.69481,1.11402 0.89122,-3.43755 2.13256,-7.09791 0.7639,-2.30761 2.40311,-5.8884 0.3342,-0.71616 0.95487,-1.94158 -0.52518,0.17506 -0.92305,0.27055 l -0.93896,-4.3606 q 3.27841,-0.49336 5.6656,-0.49336 0.5411,0 1.22543,0.0637 1.89383,0.14323 2.16438,0.19098 1.00262,0.15914 2.21213,0.68433 2.67365,1.11402 2.67365,3.8195 0,0.38195 -0.1114,0.97079 z m -3.88316,-0.41378 q 0,-1.01853 -1.35274,-1.51189 -0.39787,-0.15914 -1.28909,-0.15914 h -0.3342 q -0.79573,0.0318 -2.13256,0.41378 l 0.90713,0.46152 q -0.46152,0.81165 -0.95487,2.00524 -0.0318,0.0796 -0.50927,1.36866 l 1.09811,-0.0318 q 1.70286,-0.0478 2.88054,-0.49336 1.68695,-0.66841 1.68695,-2.05298 z"
             style="font-family:Adventure;-inkscape-font-specification:Adventure;stroke:#ffffff;stroke-width:4.5;stroke-linecap:round;stroke-linejoin:round;stroke-miterlimit:4;stroke-dasharray:none;paint-order:stroke markers fill"
             id="path20679" />
          <path
             d="m 173.80677,129.56877 -1.17768,3.70811 h -1.46414 q -4.12188,0 -6.44542,0.19097 l 0.79573,0.46152 q -0.19097,0.41378 -0.93896,2.19622 -0.20689,0.46152 -0.46152,1.08219 l 5.49054,-0.20689 -1.16177,3.32615 -5.41096,0.19098 q -0.58884,1.73469 -1.28909,4.40834 2.21213,-0.12731 6.62048,-0.3342 l -1.20951,3.67627 h -2.73731 q -2.80097,0 -8.24377,0.89122 v -0.0478 q 0,-0.17506 0.66842,-2.56225 0.79573,-2.76914 1.4164,-4.51974 1.05036,-2.92829 2.38719,-5.90432 0.50926,-1.11402 1.14585,-2.32353 -1.35274,0.14323 -2.53042,0.28646 l 1.12993,-3.8195 q 2.64183,-0.20689 6.3181,-0.41378 2.19621,-0.12732 7.09791,-0.28647 z"
             style="font-family:Adventure;-inkscape-font-specification:Adventure;stroke:#ffffff;stroke-width:4.5;stroke-linecap:round;stroke-linejoin:round;stroke-miterlimit:4;stroke-dasharray:none;paint-order:stroke markers fill"
             id="path20681" />
        </g>
      </g>
      <g
         id="g20830">
        <g
           aria-label="Text"
           id="g20808"
           style="font-size:25.4px;line-height:1.25;font-family:'Mario Kart DS';-inkscape-font-specification:'Mario Kart DS';stroke-width:0.264583"
           transform="translate(28.651172,31.553785)">
          <path
             d="M 59.438233,95.450195 V 79.413965 H 53.447901 V 77.26836 h 14.411523 v 2.145605 h -6.015136 v 16.03623 z"
             style="font-family:Arial;-inkscape-font-specification:Arial"
             id="path20800" />
          <path
             d="m 76.243409,91.208594 2.306836,0.285254 q -0.545704,2.021582 -2.021582,3.137793 -1.475879,1.116211 -3.770313,1.116211 -2.889746,0 -4.588867,-1.773536 -1.686719,-1.785937 -1.686719,-4.998144 0,-3.323828 1.711524,-5.159375 1.711523,-1.835547 4.440039,-1.835547 2.641699,0 4.316015,1.79834 1.674317,1.79834 1.674317,5.060156 0,0.198438 -0.0124,0.595313 H 68.7896 q 0.124024,2.17041 1.227832,3.323828 1.103809,1.153418 2.75332,1.153418 1.227832,0 2.095996,-0.644922 0.868165,-0.644922 1.376661,-2.058789 z m -7.329785,-3.609082 h 7.354589 q -0.148828,-1.661914 -0.843359,-2.492871 -1.066602,-1.289844 -2.765723,-1.289844 -1.53789,0 -2.592089,1.029395 -1.041797,1.029394 -1.153418,2.75332 z"
             style="font-family:Arial;-inkscape-font-specification:Arial"
             id="path20802" />
          <path
             d="m 79.864893,95.450195 4.812109,-6.846093 -4.452441,-6.325196 h 2.790527 l 2.021582,3.088184 q 0.570508,0.880566 0.917774,1.475879 0.545703,-0.818555 1.004589,-1.451074 l 2.22002,-3.112989 h 2.666504 l -4.55166,6.201172 4.898925,6.970117 h -2.740917 l -2.703711,-4.092773 -0.719336,-1.103809 -3.460254,5.196582 z"
             style="font-family:Arial;-inkscape-font-specification:Arial"
             id="path20804" />
          <path
             d="m 98.927294,93.453418 0.322461,1.971973 q -0.942578,0.198437 -1.686719,0.198437 -1.215429,0 -1.885156,-0.384473 -0.669727,-0.384472 -0.942578,-1.004589 -0.272852,-0.63252 -0.272852,-2.6417 V 84.015235 H 92.825341 V 82.278906 H 94.46245 V 79.01709 l 2.22002,-1.339453 v 4.601269 h 2.244824 v 1.736329 H 96.68247 v 7.701855 q 0,0.95498 0.111621,1.227832 0.124023,0.272851 0.384473,0.434082 0.272851,0.16123 0.768945,0.16123 0.37207,0 0.979785,-0.08682 z"
             style="font-family:Arial;-inkscape-font-specification:Arial"
             id="path20806" />
        </g>
        <g
           aria-label="Adventure"
           id="g20828"
           style="font-size:32.5931px;line-height:1.25;font-family:'Mario Kart DS';-inkscape-font-specification:'Mario Kart DS';stroke-width:0.339511">
          <path
             d="m 51.423498,134.67736 q -0.827559,1.14585 -3.421639,5.53828 l -1.432314,2.41902 3.230664,-0.0637 0.732071,0.57293 q 0.923047,-2.00524 0.923047,-7.36846 0,-0.81165 -0.03183,-1.09811 z m -1.639204,11.47443 -4.838038,0.23872 q -1.480058,2.37127 -2.721397,6.17486 l -6.031633,1.48006 q 0.254633,-0.98671 2.35536,-5.21999 l 1.448229,-2.9442 q 2.052983,-4.16963 6.445413,-10.26492 2.403105,-3.37389 4.758466,-5.96797 1.38457,-0.0478 4.105967,-0.19098 l 0.143231,2.03707 q 0.143231,2.30762 0.143231,4.44017 0,4.18554 -0.620669,7.79816 -0.20689,0.62067 -0.954876,5.18816 -0.302377,1.89384 -0.604755,3.08743 l -6.031633,1.46414 q 0.636584,-2.05298 2.403104,-7.32071 z"
             style="font-family:Adventure;-inkscape-font-specification:Adventure"
             id="path20810" />
          <path
             d="m 63.470851,137.46242 -2.498592,6.79553 q 3.18292,-0.74799 5.856573,-3.4853 2.148471,-2.24396 2.148471,-4.64706 0,-2.43493 -0.938962,-2.75323 -1.034449,-0.38195 -1.702862,-0.38195 h -0.04774 q -1.750606,0.0796 -2.76914,0.38195 l 1.416399,0.71616 q -0.190975,0.33421 -0.954876,2.00524 -0.143231,0.39787 -0.509267,1.36866 z m -2.673653,10.67869 -0.954876,0.30238 q -2.259873,0.30238 -4.281027,0.39787 0.318292,-0.89122 1.686947,-4.91762 0.668413,-2.00524 2.068898,-5.96797 0.604755,-1.60738 1.957496,-4.16963 -0.429694,0.27055 -1.145851,0.63659 l -0.938962,-4.3606 q 3.278408,-0.49336 5.665598,-0.49336 0.541097,0 1.225424,0.0637 1.893838,0.14323 2.164386,0.19098 1.00262,0.15914 2.212129,0.68433 2.673653,1.11402 2.673653,3.8195 0,0.50927 -0.111402,0.97079 -1.082193,9.29413 -12.222413,12.84308 z"
             style="font-family:Adventure;-inkscape-font-specification:Adventure"
             id="path20812" />
          <path
             d="m 79.544598,148.0138 -4.822124,1.17768 q 0.190975,-0.44561 0.381951,-6.55682 0.127316,-5.3473 0.127316,-9.96254 0,-1.62329 -0.04774,-1.97341 l 4.662977,-1.05036 q 0.07957,0.25463 0.07957,1.14585 0,2.92828 -0.843473,11.15613 1.575545,-2.88054 3.533041,-5.96797 2.546336,-3.99457 3.962735,-5.4428 l 0.525182,-0.0477 q 1.432314,-0.17506 3.310237,-0.28646 -1.20951,1.44823 -2.641824,4.02639 -0.7639,1.4164 -2.291702,4.23329 l -2.80097,4.93352 q -1.877923,3.19884 -3.135176,4.61524 z"
             style="font-family:Adventure;-inkscape-font-specification:Adventure"
             id="path20814" />
          <path
             d="m 102.95497,129.56877 -1.17768,3.70811 h -1.46414 q -4.121883,0 -6.445415,0.19097 l 0.79573,0.46152 q -0.190975,0.41378 -0.938961,2.19622 -0.20689,0.46152 -0.461524,1.08219 l 5.490538,-0.20689 -1.161766,3.32615 -5.410964,0.19098 q -0.588841,1.73469 -1.289083,4.40834 2.212129,-0.12731 6.620474,-0.3342 l -1.20951,3.67627 h -2.737311 q -2.80097,0 -8.243763,0.89122 v -0.0478 q 0,-0.17506 0.668413,-2.56225 0.79573,-2.76914 1.4164,-4.51974 1.050363,-2.92829 2.38719,-5.90432 0.509267,-1.11402 1.145851,-2.32353 -1.352741,0.14323 -2.530422,0.28646 l 1.129937,-3.8195 q 2.641824,-0.20689 6.318096,-0.41378 2.196215,-0.12732 7.09791,-0.28647 z"
             style="font-family:Adventure;-inkscape-font-specification:Adventure"
             id="path20816" />
          <path
             d="m 102.19107,129.99847 4.67889,-1.05037 q 1.38457,5.52237 1.98933,10.3445 0.0796,0 0.57292,-1.17769 l 0.50927,-1.24133 q 0.82756,-1.94159 3.64445,-7.03426 l 0.52518,-0.0477 q 1.43231,-0.17506 3.31023,-0.28646 -1.70286,3.10334 -3.5967,7.36846 -0.66841,1.54371 -1.98932,5.90431 -0.36604,1.16177 -1.38457,4.67889 l -4.83804,1.17769 q 0.0637,-0.27055 0.0637,-0.82756 0,-2.73732 -0.68433,-7.25706 -0.25463,-1.78244 -0.44561,-1.78244 l -1.67103,4.01048 q -1.14585,2.7214 -1.38457,5.1245 l -4.822125,1.1936 q 0.843474,-3.11926 1.893837,-6.3181 0.811645,-2.43493 2.403108,-5.90431 0.70024,-1.52781 1.94158,-3.81951 0.0796,-0.23872 0.0796,-0.38195 0,-0.41378 -0.33421,-1.32091 -0.41377,-1.16177 -0.46152,-1.35274 z"
             style="font-family:Adventure;-inkscape-font-specification:Adventure"
             id="path20818" />
          <path
             d="m 129.50053,129.56877 -1.17768,3.70811 h -1.5278 q -2.24396,0 -3.88317,0.0477 l 1.11403,0.60475 q -1.22543,2.33945 -2.99195,8.10054 -0.63658,2.1803 -1.59146,5.93614 l -0.12732,0.0478 q -1.71877,0.31829 -4.6948,1.14585 0.93896,-3.56487 2.14847,-7.12974 0.73207,-2.22805 2.41902,-5.90432 0.38195,-0.90713 1.27316,-2.65774 -2.41901,0.22281 -5.50645,0.62067 l 1.12994,-3.8195 q 2.76914,-0.20689 6.3181,-0.41378 2.1803,-0.12732 7.09791,-0.28647 z"
             style="font-family:Adventure;-inkscape-font-specification:Adventure"
             id="path20820" />
          <path
             d="m 145.25598,129.56877 q -0.50927,1.1936 -1.71878,5.07676 -1.19359,3.88316 -1.84609,5.72926 -1.79835,5.09267 -4.12188,7.06608 -1.9575,1.6392 -5.09267,1.6392 -1.57555,0 -3.13518,-1.11402 -2.22804,-1.62329 -2.22804,-4.77438 0,-1.305 0.38195,-2.81688 1.20951,-4.74255 3.8195,-10.31266 l 4.16963,-0.49336 q -1.38457,3.34207 -1.79835,4.3606 -1.54372,3.93091 -2.16439,6.44542 -0.20689,0.93896 -0.20689,1.84609 0,2.80097 2.00524,2.80097 2.2917,0 4.0264,-4.64706 l 4.01047,-10.80602 z"
             style="font-family:Adventure;-inkscape-font-specification:Adventure"
             id="path20822" />
          <path
             d="m 158.25821,135.29803 q -0.79573,4.2492 -5.44279,5.33139 2.97603,3.24658 4.94944,6.52499 l -4.39243,1.59146 q -1.89384,-3.85134 -5.06084,-7.54352 l -0.6525,-0.5411 -0.4297,1.32091 q -0.44561,1.43232 -1.59146,5.96798 l -0.14323,0.0159 q -2.03707,0.39787 -4.69481,1.11402 0.89122,-3.43755 2.13256,-7.09791 0.7639,-2.30761 2.40311,-5.8884 0.3342,-0.71616 0.95487,-1.94158 -0.52518,0.17506 -0.92305,0.27055 l -0.93896,-4.3606 q 3.27841,-0.49336 5.6656,-0.49336 0.5411,0 1.22543,0.0637 1.89383,0.14323 2.16438,0.19098 1.00262,0.15914 2.21213,0.68433 2.67365,1.11402 2.67365,3.8195 0,0.38195 -0.1114,0.97079 z m -3.88316,-0.41378 q 0,-1.01853 -1.35274,-1.51189 -0.39787,-0.15914 -1.28909,-0.15914 h -0.3342 q -0.79573,0.0318 -2.13256,0.41378 l 0.90713,0.46152 q -0.46152,0.81165 -0.95487,2.00524 -0.0318,0.0796 -0.50927,1.36866 l 1.09811,-0.0318 q 1.70286,-0.0478 2.88054,-0.49336 1.68695,-0.66841 1.68695,-2.05298 z"
             style="font-family:Adventure;-inkscape-font-specification:Adventure"
             id="path20824" />
          <path
             d="m 173.80677,129.56877 -1.17768,3.70811 h -1.46414 q -4.12188,0 -6.44542,0.19097 l 0.79573,0.46152 q -0.19097,0.41378 -0.93896,2.19622 -0.20689,0.46152 -0.46152,1.08219 l 5.49054,-0.20689 -1.16177,3.32615 -5.41096,0.19098 q -0.58884,1.73469 -1.28909,4.40834 2.21213,-0.12731 6.62048,-0.3342 l -1.20951,3.67627 h -2.73731 q -2.80097,0 -8.24377,0.89122 v -0.0478 q 0,-0.17506 0.66842,-2.56225 0.79573,-2.76914 1.4164,-4.51974 1.05036,-2.92829 2.38719,-5.90432 0.50926,-1.11402 1.14585,-2.32353 -1.35274,0.14323 -2.53042,0.28646 l 1.12993,-3.8195 q 2.64183,-0.20689 6.3181,-0.41378 2.19621,-0.12732 7.09791,-0.28647 z"
             style="font-family:Adventure;-inkscape-font-specification:Adventure"
             id="path20826" />
        </g>
      </g>
    </g>
  </g>
</svg>
