<?xml version="1.0" encoding="UTF-8" standalone="no"?>
<!-- Created with Inkscape (http://www.inkscape.org/) -->

<svg
   width="112.6008mm"
   height="17.785301mm"
   viewBox="0 0 112.6008 17.785301"
   version="1.1"
   id="svg852"
   inkscape:version="1.1 (c68e22c387, 2021-05-23)"
   sodipodi:docname="auto-multiplayer.svg"
   inkscape:export-filename="C:\Users\BUCH\Desktop\Retrogaming\Recalbox\travail thèmes\NEW THEME!!!\background NEW!!!!\SYSTEM!!!!!!\auto-multiplayer\auto-multiplayer.png"
   inkscape:export-xdpi="200"
   inkscape:export-ydpi="200"
   xmlns:inkscape="http://www.inkscape.org/namespaces/inkscape"
   xmlns:sodipodi="http://sodipodi.sourceforge.net/DTD/sodipodi-0.dtd"
   xmlns="http://www.w3.org/2000/svg"
   xmlns:svg="http://www.w3.org/2000/svg">
  <sodipodi:namedview
     id="namedview854"
     pagecolor="#ffffff"
     bordercolor="#666666"
     borderopacity="1.0"
     inkscape:pageshadow="2"
     inkscape:pageopacity="0.0"
     inkscape:pagecheckerboard="0"
     inkscape:document-units="mm"
     showgrid="false"
     inkscape:zoom="1.8973437"
     inkscape:cx="184.73195"
     inkscape:cy="122.80326"
     inkscape:window-width="1920"
     inkscape:window-height="1138"
     inkscape:window-x="-8"
     inkscape:window-y="-8"
     inkscape:window-maximized="1"
     inkscape:current-layer="layer1"
     fit-margin-top="0"
     fit-margin-left="0"
     fit-margin-right="0"
     fit-margin-bottom="0" />
  <defs
     id="defs849" />
  <g
     inkscape:label="Calque 1"
     inkscape:groupmode="layer"
     id="layer1"
     transform="translate(-56.098181,-95.466736)">
    <path
       style="fill:#ffffff;stroke:#ffffff;stroke-width:5.29166667;stroke-linecap:round;stroke-linejoin:round;stroke-miterlimit:4;stroke-dasharray:none;stroke-opacity:1;paint-order:markers stroke fill"
       d="m 77.02062,110.472 c -2.290503,-0.36229 -3.523231,-1.61872 -3.794456,-3.86743 -0.03715,-0.30803 -0.06379,-2.16526 -0.06379,-4.44722 v -3.918318 h 1.370559 1.370557 l 0.01902,3.947888 c 0.01883,3.90825 0.02044,3.95207 0.159936,4.3652 0.191893,0.5683 0.537542,0.99113 0.993051,1.2148 0.340155,0.16703 0.410709,0.17798 1.147076,0.17798 0.749858,0 0.800948,-0.008 1.152935,-0.18836 0.451887,-0.23111 0.785511,-0.6448 0.98067,-1.21603 0.136584,-0.39978 0.138888,-0.46341 0.157631,-4.35359 l 0.01902,-3.947888 h 1.374088 1.374087 l -0.02296,4.291178 c -0.02233,4.17445 -0.02667,4.30527 -0.159364,4.8092 -0.429647,1.63165 -1.417603,2.59763 -3.081795,3.01323 -0.589603,0.14725 -2.371217,0.21822 -2.996267,0.11936 z m -14.244658,-3.97702 c -0.608698,-2.12054 -1.158386,-4.02407 -1.221529,-4.23004 -0.114156,-0.37239 -0.114839,-0.35075 -0.120644,3.82305 l -0.0058,4.19755 h -1.342007 -1.341968 v -6.05446 -6.054465 h 2.086768 c 1.933398,0 2.089157,0.008 2.119286,0.10923 0.01788,0.06008 0.483475,1.724275 1.034644,3.698215 0.551168,1.97394 1.024168,3.64154 1.05111,3.70578 0.03357,0.0801 0.372178,-1.08829 1.076315,-3.71382 l 1.027328,-3.830613 2.137613,-0.01642 2.137613,-0.01642 v 6.086493 6.08649 H 70.10435 68.794009 l -0.01602,-4.40302 -0.01602,-4.40303 -1.222629,4.41863 -1.222629,4.41863 -1.217009,0.0169 -1.217009,0.0169 z m 22.480339,-2.20148 0.01622,-6.054468 1.356959,-6e-6 1.35696,-7e-6 -0.01635,4.930961 -0.01635,4.93096 h 2.653473 2.653473 v 1.12351 1.12351 h -4.010301 l -4.0103,1e-5 z m 22.609989,-10e-6 v -6.054458 l 2.13779,0.0019 c 1.17578,0.0011 2.34574,0.02892 2.5999,0.06191 2.01944,0.262124 3.21682,1.166887 3.53575,2.671678 0.17729,0.83648 0.0675,1.90742 -0.2682,2.61645 -0.20882,0.44104 -0.73871,1.01416 -1.19257,1.28987 -0.76221,0.46302 -1.94654,0.72236 -3.30171,0.72302 l -0.76461,3.6e-4 v 2.37186 2.37185 h -1.37317 -1.37318 z m 4.11953,-0.87657 c 0.54855,-0.0868 1.00677,-0.31737 1.20532,-0.60649 0.20952,-0.30508 0.31817,-0.75805 0.2731,-1.13857 -0.10546,-0.89046 -0.72706,-1.28248 -2.1494,-1.35554 l -0.7022,-0.0361 v 1.5593 c 0,0.85761 0.0187,1.57802 0.0416,1.60091 0.0632,0.0632 0.87417,0.0489 1.33156,-0.0235 z m 5.49271,0.87693 v -6.054818 h 1.37317 1.37318 v 4.930958 4.93095 h 2.61934 2.61933 l 0.0178,0.62414 0.0178,0.62415 1.89855,-5.25862 c 1.04419,-2.89224 1.95392,-5.406075 2.02161,-5.586305 l 0.12307,-0.32769 h 1.48267 c 1.35423,0 1.48636,0.0095 1.52527,0.10923 0.056,0.143599 3.93635,11.094555 4.12477,11.640795 l 0.14533,0.42132 h -1.47914 -1.47914 l -0.36657,-1.06189 -0.36658,-1.06189 -2.15432,0.0164 -2.15432,0.0164 -0.35827,1.02989 -0.35828,1.02988 -5.31262,0.016 -5.31263,0.016 z m 14.43911,0.45217 c -0.25925,-0.74667 -0.57848,-1.66654 -0.70942,-2.04416 -0.13094,-0.37763 -0.24022,-0.67093 -0.24283,-0.65179 -0.003,0.0191 -0.31373,0.92656 -0.69135,2.0165 -0.37762,1.08995 -0.68659,1.99416 -0.68659,2.00937 0,0.0152 0.63035,0.0276 1.40077,0.0276 h 1.40077 z m 8.03105,2.90689 v -2.69504 l -1.81009,-3.36112 c -0.99556,-1.848626 -1.8101,-3.374409 -1.8101,-3.390634 0,-0.01623 0.59972,-0.0295 1.33271,-0.0295 h 1.33271 l 1.17438,2.217144 1.17438,2.21714 0.17993,-0.32902 c 0.099,-0.18097 0.62088,-1.16464 1.15982,-2.18594 l 0.97988,-1.856907 h 1.35767 c 0.74673,0 1.35768,0.0088 1.35768,0.01964 0,0.0108 -0.74704,1.39412 -1.66009,3.074047 -0.91305,1.67992 -1.74164,3.2151 -1.84131,3.41152 l -0.18121,0.35712 v 2.6233 2.6233 h -1.37318 -1.37318 z m 7.05314,-3.35942 v -6.054458 h 4.27557 4.27557 v 0.333495 c 0,0.183422 0.0184,0.674957 0.0408,1.0923 l 0.0408,0.758803 h -2.9432 -2.9432 v 1.31076 1.31076 h 2.76196 l 2.76196,10e-6 0.002,1.06109 0.002,1.06108 h -2.7636 -2.7636 v 1.46681 1.4668 h 3.02355 c 1.68973,0 3.03863,0.0244 3.05774,0.0553 0.0188,0.0304 0.016,0.536 -0.006,1.12351 l -0.0403,1.06819 h -4.39058 -4.39058 z m 10.11157,0 v -6.054458 l 2.13779,3.69e-4 c 1.55419,2.67e-4 2.3027,0.02523 2.74188,0.09143 2.30347,0.347221 3.42486,1.491758 3.42647,3.497189 8.1e-4,1.03315 -0.24971,1.70782 -0.84197,2.26735 -0.37585,0.35508 -0.78582,0.60481 -1.30908,0.79742 -0.20982,0.0772 -0.37529,0.16818 -0.3677,0.2021 0.012,0.0537 2.81679,4.73838 3.06098,5.11263 l 0.0916,0.14044 h -1.5608 -1.5608 l -1.52042,-2.48108 -1.52042,-2.48108 -0.0163,2.48108 -0.0163,2.48108 h -1.37247 -1.37246 v -6.05446 z m 4.57812,-1.27335 c 0.42028,-0.12676 0.75153,-0.36132 0.87363,-0.61863 0.22045,-0.46457 0.0815,-1.25307 -0.27927,-1.58472 -0.34769,-0.31963 -1.09889,-0.51661 -1.9736,-0.51752 l -0.45252,-4.7e-4 v 1.44522 1.44523 l 0.76461,-0.0389 c 0.42053,-0.0214 0.90075,-0.08 1.06715,-0.13018 z m -65.247562,2.30324 v -4.96216 h -1.654054 -1.654053 v -1.123514 -1.123508 h 4.650075 4.650074 l 5.6e-4,0.795818 c 3.1e-4,0.437701 0.0183,0.943283 0.0399,1.123514 l 0.0393,0.32769 h -1.6627 -1.662748 v 4.96216 4.96216 h -1.373177 -1.373177 z m 6.865882,-1.0923 v -6.054465 l 1.35757,-4e-6 1.35758,-5e-6 -0.0162,6.054464 -0.0162,6.05447 h -1.34135 -1.34136 z"
       id="path943" />
    <ellipse
       style="fill:#ffffff;fill-rule:evenodd;stroke:#ffffff;stroke-width:0.529167;stroke-linecap:round;stroke-linejoin:round;stroke-opacity:1;paint-order:markers stroke fill"
       id="path1403"
       cx="92.215195"
       cy="104.26224"
       rx="4.2287569"
       ry="6.0232158" />
    <ellipse
       style="fill:#ffffff;fill-rule:evenodd;stroke:#ffffff;stroke-width:0.529167;stroke-linecap:round;stroke-linejoin:round;stroke-opacity:1;paint-order:markers stroke fill"
       id="path1793"
       cx="112.67241"
       cy="101.26644"
       rx="4.8061199"
       ry="3.0274091" />
    <ellipse
       style="fill:#ffffff;fill-rule:evenodd;stroke:#ffffff;stroke-width:0.529167;stroke-linecap:round;stroke-linejoin:round;stroke-opacity:1;paint-order:markers stroke fill"
       id="path1897"
       cx="130.52179"
       cy="105.1922"
       rx="2.6071987"
       ry="3.0318928" />
    <ellipse
       style="fill:#ffffff;fill-rule:evenodd;stroke:#ffffff;stroke-width:0.529167;stroke-linecap:round;stroke-linejoin:round;stroke-opacity:1;paint-order:markers stroke fill"
       id="path2001"
       cx="160.92131"
       cy="101.10609"
       rx="3.8079095"
       ry="2.8670568" />
    <path
       style="fill:#d45500;stroke:#000000;stroke-width:0.529167;stroke-miterlimit:4;stroke-dasharray:none;stroke-opacity:1"
       d="m 77.020616,110.47191 c -2.290503,-0.36229 -3.523231,-1.61872 -3.794456,-3.86743 -0.03715,-0.30803 -0.06379,-2.16526 -0.06379,-4.44722 v -3.91832 h 1.370559 1.370557 l 0.01902,3.94789 c 0.01883,3.90825 0.02044,3.95207 0.159936,4.3652 0.191893,0.5683 0.537542,0.99113 0.993051,1.2148 0.340155,0.16703 0.410709,0.17798 1.147076,0.17798 0.749858,0 0.800948,-0.008 1.152935,-0.18836 0.451887,-0.23111 0.785511,-0.6448 0.98067,-1.21603 0.136584,-0.39978 0.138888,-0.46341 0.157631,-4.35359 l 0.01902,-3.94789 H 81.906913 83.281 l -0.02296,4.29118 c -0.02233,4.17445 -0.02667,4.30527 -0.159364,4.8092 -0.429647,1.63165 -1.417603,2.59763 -3.081795,3.01323 -0.589603,0.14725 -2.371217,0.21822 -2.996267,0.11936 z m -14.244658,-3.97702 c -0.608698,-2.12054 -1.158386,-4.02407 -1.221529,-4.23004 -0.114156,-0.37239 -0.114839,-0.35075 -0.120644,3.82305 l -0.0058,4.19755 H 60.085978 58.74401 v -6.05446 -6.05446 h 2.086768 c 1.933398,0 2.089157,0.008 2.119286,0.10923 0.01788,0.0601 0.483475,1.72427 1.034644,3.69821 0.551168,1.97394 1.024168,3.64154 1.05111,3.70578 0.03357,0.0801 0.372178,-1.08829 1.076315,-3.71382 l 1.027328,-3.83061 2.137613,-0.0164 2.137613,-0.0164 v 6.08649 6.08649 h -1.310341 -1.310341 l -0.01602,-4.40302 -0.01602,-4.40303 -1.222629,4.41863 -1.222629,4.41863 -1.217009,0.0169 -1.217009,0.0169 z m 22.480339,-2.20148 0.01622,-6.05447 h 1.356959 l 1.35696,-1e-5 -0.01635,4.93096 -0.01635,4.93096 h 2.653473 2.653473 v 1.12351 1.12351 h -4.010301 l -4.0103,1e-5 z m 22.609993,-10e-6 v -6.05446 l 2.13779,0.002 c 1.17578,0.001 2.34574,0.0289 2.5999,0.0619 2.01944,0.26213 3.21682,1.16689 3.53575,2.67168 0.17729,0.83648 0.0675,1.90742 -0.2682,2.61645 -0.20882,0.44104 -0.73871,1.01416 -1.19257,1.28987 -0.76221,0.46302 -1.94654,0.72236 -3.30171,0.72302 l -0.76461,3.6e-4 v 2.37186 2.37185 h -1.37317 -1.37318 z m 4.11953,-0.87657 c 0.54855,-0.0868 1.00677,-0.31737 1.20532,-0.60649 0.20952,-0.30508 0.31817,-0.75805 0.2731,-1.13857 -0.10546,-0.89046 -0.72706,-1.28248 -2.1494,-1.35554 l -0.7022,-0.0361 v 1.5593 c 0,0.85761 0.0187,1.57802 0.0416,1.60091 0.0632,0.0632 0.87417,0.0489 1.33156,-0.0235 z m 5.49271,0.87693 v -6.05482 h 1.37317 1.37318 v 4.93096 4.93095 h 2.61934 2.61933 l 0.0178,0.62414 0.0178,0.62415 1.89855,-5.25862 c 1.04419,-2.89224 1.95392,-5.40607 2.02161,-5.5863 l 0.12307,-0.32769 h 1.48267 c 1.35423,0 1.48636,0.01 1.52527,0.10923 0.056,0.1436 3.93635,11.09455 4.12477,11.64079 l 0.14533,0.42132 h -1.47914 -1.47914 l -0.36657,-1.06189 -0.36658,-1.06189 -2.15432,0.0164 -2.15432,0.0164 -0.35827,1.02989 -0.35828,1.02988 -5.31262,0.016 -5.31263,0.016 z m 14.43911,0.45217 c -0.25925,-0.74667 -0.57848,-1.66654 -0.70942,-2.04416 -0.13094,-0.37763 -0.24022,-0.67093 -0.24283,-0.65179 -0.003,0.0191 -0.31373,0.92656 -0.69135,2.0165 -0.37762,1.08995 -0.68659,1.99416 -0.68659,2.00937 0,0.0152 0.63035,0.0276 1.40077,0.0276 h 1.40077 z m 8.03105,2.90689 v -2.69504 l -1.81009,-3.36112 c -0.99556,-1.84862 -1.8101,-3.37441 -1.8101,-3.39063 0,-0.0162 0.59972,-0.0295 1.33271,-0.0295 h 1.33271 l 1.17438,2.21714 1.17438,2.21714 0.17993,-0.32902 c 0.099,-0.18097 0.62088,-1.16464 1.15982,-2.18594 l 0.97988,-1.8569 h 1.35767 c 0.74673,0 1.35768,0.009 1.35768,0.0196 0,0.0108 -0.74704,1.39412 -1.66009,3.07404 -0.91305,1.67992 -1.74164,3.2151 -1.84131,3.41152 l -0.18121,0.35712 v 2.6233 2.6233 h -1.37318 -1.37318 z m 7.05314,-3.35942 v -6.05446 h 4.27557 4.27557 v 0.3335 c 0,0.18342 0.0184,0.67496 0.0408,1.0923 l 0.0408,0.7588 h -2.9432 -2.9432 v 1.31076 1.31076 h 2.76196 l 2.76196,10e-6 0.002,1.06109 0.002,1.06108 h -2.7636 -2.7636 v 1.46681 1.4668 h 3.02355 c 1.68973,0 3.03863,0.0244 3.05774,0.0553 0.0188,0.0304 0.016,0.536 -0.006,1.12351 l -0.0403,1.06819 h -4.39058 -4.39058 z m 10.11157,0 v -6.05446 l 2.13779,3.7e-4 c 1.55419,2.7e-4 2.3027,0.0252 2.74188,0.0914 2.30347,0.34722 3.42486,1.49176 3.42647,3.49719 8.1e-4,1.03315 -0.24971,1.70782 -0.84197,2.26735 -0.37585,0.35508 -0.78582,0.60481 -1.30908,0.79742 -0.20982,0.0772 -0.37529,0.16818 -0.3677,0.2021 0.012,0.0537 2.81679,4.73838 3.06098,5.11263 l 0.0916,0.14044 h -1.5608 -1.5608 l -1.52042,-2.48108 -1.52042,-2.48108 -0.0163,2.48108 -0.0163,2.48108 h -1.37247 -1.37246 v -6.05446 z m 4.57812,-1.27335 c 0.42028,-0.12676 0.75153,-0.36132 0.87363,-0.61863 0.22045,-0.46457 0.0815,-1.25307 -0.27927,-1.58472 -0.34769,-0.31963 -1.09889,-0.51661 -1.9736,-0.51752 l -0.45252,-4.7e-4 v 1.44522 1.44523 l 0.76461,-0.0389 c 0.42053,-0.0214 0.90075,-0.08 1.06715,-0.13018 z m -65.247566,2.30324 v -4.96216 H 94.7899 93.135847 v -1.12351 -1.12351 h 4.650075 4.650078 l 5.6e-4,0.79582 c 3.1e-4,0.4377 0.0183,0.94328 0.0399,1.12351 l 0.0393,0.32769 h -1.6627 -1.66275 v 4.96216 4.96216 h -1.373179 -1.373177 z m 6.865886,-1.0923 v -6.05446 l 1.35757,-1e-5 h 1.35758 l -0.0162,6.05446 -0.0162,6.05447 h -1.34135 -1.34136 z"
       id="path1043" />
  </g>
</svg>
