<?xml version="1.0" encoding="UTF-8" standalone="no"?>
<!-- Created with Inkscape (http://www.inkscape.org/) -->

<svg
   width="162.73758mm"
   height="23.63291mm"
   viewBox="0 0 162.73758 23.63291"
   version="1.1"
   id="svg5443"
   inkscape:version="1.1 (c68e22c387, 2021-05-23)"
   sodipodi:docname="auto-board.svg"
   xmlns:inkscape="http://www.inkscape.org/namespaces/inkscape"
   xmlns:sodipodi="http://sodipodi.sourceforge.net/DTD/sodipodi-0.dtd"
   xmlns="http://www.w3.org/2000/svg"
   xmlns:svg="http://www.w3.org/2000/svg">
  <sodipodi:namedview
     id="namedview5445"
     pagecolor="#ffffff"
     bordercolor="#666666"
     borderopacity="1.0"
     inkscape:pageshadow="2"
     inkscape:pageopacity="0.0"
     inkscape:pagecheckerboard="0"
     inkscape:document-units="mm"
     showgrid="false"
     fit-margin-top="0"
     fit-margin-left="0"
     fit-margin-right="0"
     fit-margin-bottom="0"
     inkscape:zoom="0.67081229"
     inkscape:cx="342.12253"
     inkscape:cy="144.60081"
     inkscape:window-width="1920"
     inkscape:window-height="1138"
     inkscape:window-x="-8"
     inkscape:window-y="-8"
     inkscape:window-maximized="1"
     inkscape:current-layer="layer1" />
  <defs
     id="defs5440" />
  <g
     inkscape:label="Calque 1"
     inkscape:groupmode="layer"
     id="layer1"
     transform="translate(-14.473878,-110.09418)">
    <rect
       style="fill:#ffffff;fill-rule:evenodd;stroke:none;stroke-width:7.1999;stroke-linecap:round;stroke-linejoin:round;stroke-miterlimit:4;stroke-dasharray:none;paint-order:stroke markers fill"
       id="rect5232"
       width="67.728127"
       height="11.438247"
       x="17.090437"
       y="118.58887" />
    <rect
       style="fill:#ffffff;fill-rule:evenodd;stroke:none;stroke-width:7.63472;stroke-linecap:round;stroke-linejoin:round;stroke-miterlimit:4;stroke-dasharray:none;paint-order:stroke markers fill"
       id="rect5358"
       width="76.155754"
       height="11.438247"
       x="96.504539"
       y="118.58887" />
    <g
       id="g5096"
       style="fill:#800000;stroke:#ffffff;stroke-width:4;stroke-linecap:round;stroke-linejoin:round;stroke-miterlimit:4;stroke-dasharray:none;paint-order:stroke markers fill">
      <path
         d="m 22.935497,119.75883 q 0.08682,0.0124 0.21084,0.0248 0.136426,0 0.384473,0 0.95498,0 1.401465,-0.40928 0.458886,-0.42168 0.458886,-1.28984 0,-0.89297 -0.434082,-1.32706 -0.434082,-0.44648 -1.289843,-0.44648 -0.483692,0 -0.744141,0.0248 z m -0.0124,7.63985 q 0.111621,0.0248 0.235645,0.0372 0.124023,0 0.37207,0 1.00459,0 1.475879,-0.50849 0.483691,-0.5085 0.483691,-1.5751 0,-1.0418 -0.545703,-1.53789 -0.533301,-0.4961 -1.661914,-0.4961 h -0.359668 z m -6.449219,3.94394 v -3.34863 q 0.384473,-0.19844 0.533301,-0.55811 0.148828,-0.37207 0.148828,-1.17822 v -8.75605 q 0,-0.80616 -0.148828,-1.16582 -0.148828,-0.35967 -0.533301,-0.55811 v -3.31143 h 8.35918 q 3.522265,0 4.960937,1.12862 1.438672,1.11621 1.438672,3.78271 0,1.64951 -0.781347,2.70371 -0.781348,1.0418 -2.22002,1.32705 1.661914,0.32246 2.480469,1.43868 0.830957,1.11621 0.830957,3.03857 0,2.95176 -1.488281,4.20439 -1.488282,1.25264 -5.171778,1.25264 z"
         style="font-size:25.4px;line-height:1.25;font-family:'Aachen BT';-inkscape-font-specification:'Aachen BT, Normal';fill:#800000;stroke:#ffffff;stroke-width:4;stroke-linecap:round;stroke-linejoin:round;stroke-miterlimit:4;stroke-dasharray:none;paint-order:stroke markers fill"
         id="path4956" />
      <path
         d="m 45.681396,122.30131 v 4.2168 q 0,2.85254 -1.339453,3.95635 -1.339453,1.0914 -4.824512,1.0914 -3.485059,0 -4.824512,-1.0914 -1.32705,-1.10381 -1.32705,-3.95635 v -4.2168 q 0,-2.85254 1.32705,-3.95635 1.339453,-1.1038 4.824512,-1.1038 3.497461,0 4.824512,1.1038 1.339453,1.10381 1.339453,3.95635 z m -5.146973,-0.23564 q 0,-0.90537 -0.235644,-1.26504 -0.235645,-0.35967 -0.781348,-0.35967 -0.545703,0 -0.781348,0.37207 -0.235644,0.37207 -0.235644,1.25264 v 4.67568 q 0,0.91777 0.223242,1.28985 0.235644,0.35966 0.79375,0.35966 0.533301,0 0.768945,-0.37207 0.248047,-0.37207 0.248047,-1.27744 z"
         style="font-size:25.4px;line-height:1.25;font-family:'Aachen BT';-inkscape-font-specification:'Aachen BT, Normal';fill:#800000;stroke:#ffffff;stroke-width:4;stroke-linecap:round;stroke-linejoin:round;stroke-miterlimit:4;stroke-dasharray:none;paint-order:stroke markers fill"
         id="path4958" />
      <path
         d="m 55.069971,127.5351 v -2.18281 q -1.42627,0.57051 -1.785938,0.90537 -0.347265,0.32246 -0.347265,0.81855 0,0.4837 0.223242,0.74415 0.223242,0.24804 0.632519,0.24804 0.347266,0 0.669727,-0.13642 0.322461,-0.13643 0.607715,-0.39688 z m 0.223242,3.80752 -0.173633,-1.19062 q -0.657324,0.74414 -1.500683,1.079 -0.84336,0.33486 -2.058789,0.33486 -1.835547,0 -2.852539,-1.04179 -1.00459,-1.0418 -1.00459,-2.93936 0,-3.12539 7.019726,-5.15937 l 0.347266,-0.0992 v -0.26045 q 0,-0.83096 -0.248047,-1.22783 -0.235645,-0.39688 -0.744141,-0.39688 -0.508496,0 -0.756543,0.39688 -0.235644,0.39687 -0.235644,1.22783 v 0.26045 h -4.774902 v -3.27422 q 1.128613,-0.86817 2.778124,-1.35186 1.649512,-0.48369 3.547071,-0.48369 2.889746,0 4.204394,1.21543 1.327051,1.21543 1.327051,3.89434 v 4.2416 q 0,0.74414 0.148828,1.11621 0.161231,0.37207 0.508496,0.5333 v 3.12539 z"
         style="font-size:25.4px;line-height:1.25;font-family:'Aachen BT';-inkscape-font-specification:'Aachen BT, Normal';fill:#800000;stroke:#ffffff;stroke-width:4;stroke-linecap:round;stroke-linejoin:round;stroke-miterlimit:4;stroke-dasharray:none;paint-order:stroke markers fill"
         id="path4960" />
      <path
         d="m 68.600926,126.39409 q 0,0.85576 0.148828,1.27744 0.161231,0.40927 0.533301,0.5457 v 3.12539 h -6.523633 v -3.12539 q 0.347266,-0.0992 0.508497,-0.5209 0.173632,-0.43408 0.173632,-1.22783 v -4.40283 q 0,-0.68213 -0.148828,-0.99219 -0.148828,-0.31006 -0.533301,-0.47129 v -3.12539 h 5.531446 v 1.09141 q 0.471289,-0.70694 1.016992,-1.0418 0.558105,-0.33486 1.252637,-0.33486 0.111621,0 0.285253,0.0248 0.173633,0.0248 0.347266,0.062 v 4.68809 h -0.558105 q -1.029395,0 -1.537891,0.64492 -0.496094,0.64492 -0.496094,1.97197 z"
         style="font-size:25.4px;line-height:1.25;font-family:'Aachen BT';-inkscape-font-specification:'Aachen BT, Normal';fill:#800000;stroke:#ffffff;stroke-width:4;stroke-linecap:round;stroke-linejoin:round;stroke-miterlimit:4;stroke-dasharray:none;paint-order:stroke markers fill"
         id="path4962" />
      <path
         d="m 80.073094,127.58471 0.0124,-6.35 q -0.248047,-0.12402 -0.458887,-0.17363 -0.198438,-0.0496 -0.409277,-0.062 -0.620118,0 -0.868165,0.34726 -0.248046,0.34727 -0.248046,1.5627 v 3.02617 q 0,1.0542 0.260449,1.43867 0.272851,0.38447 0.930176,0.38447 0.186035,0 0.37207,-0.0372 0.198437,-0.0496 0.409277,-0.13643 z m 0.0124,-10.15752 q 0,-0.91777 -0.148829,-1.31465 -0.148828,-0.39687 -0.520898,-0.5209 v -3.12539 h 5.841504 v 14.2751 q 0,0.70693 0.148828,1.01699 0.16123,0.31006 0.545703,0.45889 v 3.12539 h -5.643066 v -0.94258 q -0.768946,0.5333 -1.674317,0.80616 -0.892968,0.26044 -1.885156,0.26044 -2.046387,0 -2.926953,-1.02939 -0.880566,-1.0418 -0.880566,-3.58428 v -4.32842 q 0,-2.96416 0.880566,-4.06796 0.880566,-1.10381 2.976563,-1.10381 0.781347,0 1.612304,0.19843 0.84336,0.19844 1.674317,0.58291 z"
         style="font-size:25.4px;line-height:1.25;font-family:'Aachen BT';-inkscape-font-specification:'Aachen BT, Normal';fill:#800000;stroke:#ffffff;stroke-width:4;stroke-linecap:round;stroke-linejoin:round;stroke-miterlimit:4;stroke-dasharray:none;paint-order:stroke markers fill"
         id="path4964" />
      <path
         d="m 108.7101,114.17778 v 4.84931 h -5.65547 v -1.0666 q 0,-1.01699 -0.26045,-1.43867 -0.26045,-0.42168 -0.85576,-0.42168 -0.60772,0 -0.86817,0.40928 -0.26044,0.40928 -0.26044,1.45107 v 7.85069 q 0,1.02939 0.26044,1.43867 0.26045,0.40927 0.86817,0.40927 0.60771,0 0.85576,-0.40927 0.26045,-0.40928 0.26045,-1.43867 v -1.40147 h -0.94258 v -3.75791 h 6.59805 v 9.09092 q -1.26504,1.00459 -3.00137,1.50068 -1.73633,0.48369 -4.05557,0.48369 -3.695885,0 -5.221373,-1.50068 -1.513086,-1.50068 -1.513086,-5.23379 v -6.15156 q 0,-3.6835 1.500684,-5.20899 1.513086,-1.53789 5.060145,-1.53789 2.1332,0 3.96875,0.5333 1.83555,0.5209 3.26182,1.5503 z"
         style="font-size:25.4px;line-height:1.25;font-family:'Aachen BT';-inkscape-font-specification:'Aachen BT, Normal';fill:#800000;stroke:#ffffff;stroke-width:4;stroke-linecap:round;stroke-linejoin:round;stroke-miterlimit:4;stroke-dasharray:none;paint-order:stroke markers fill"
         id="path4966" />
      <path
         d="m 118.24749,127.5351 v -2.18281 q -1.42627,0.57051 -1.78593,0.90537 -0.34727,0.32246 -0.34727,0.81855 0,0.4837 0.22324,0.74415 0.22325,0.24804 0.63252,0.24804 0.34727,0 0.66973,-0.13642 0.32246,-0.13643 0.60771,-0.39688 z m 0.22325,3.80752 -0.17364,-1.19062 q -0.65732,0.74414 -1.50068,1.079 -0.84336,0.33486 -2.05879,0.33486 -1.83555,0 -2.85254,-1.04179 -1.00459,-1.0418 -1.00459,-2.93936 0,-3.12539 7.01973,-5.15937 l 0.34726,-0.0992 v -0.26045 q 0,-0.83096 -0.24804,-1.22783 -0.23565,-0.39688 -0.74414,-0.39688 -0.5085,0 -0.75655,0.39688 -0.23564,0.39687 -0.23564,1.22783 v 0.26045 h -4.7749 v -3.27422 q 1.12861,-0.86817 2.77812,-1.35186 1.64951,-0.48369 3.54707,-0.48369 2.88975,0 4.2044,1.21543 1.32705,1.21543 1.32705,3.89434 v 4.2416 q 0,0.74414 0.14883,1.11621 0.16123,0.37207 0.50849,0.5333 v 3.12539 z"
         style="font-size:25.4px;line-height:1.25;font-family:'Aachen BT';-inkscape-font-specification:'Aachen BT, Normal';fill:#800000;stroke:#ffffff;stroke-width:4;stroke-linecap:round;stroke-linejoin:round;stroke-miterlimit:4;stroke-dasharray:none;paint-order:stroke markers fill"
         id="path4968" />
      <path
         d="m 131.77845,126.39409 q 0,0.80615 0.14883,1.22783 0.14883,0.42168 0.48369,0.59531 v 3.12539 h -6.47402 v -3.12539 q 0.34726,-0.0992 0.50849,-0.5209 0.17364,-0.43408 0.17364,-1.22783 v -4.40283 q 0,-0.68213 -0.14883,-0.99219 -0.14883,-0.31006 -0.5333,-0.47129 v -3.12539 h 5.64306 v 0.94258 q 0.78135,-0.5457 1.68672,-0.81856 0.90537,-0.27285 1.86035,-0.27285 1.12862,0 1.93477,0.35967 0.81855,0.35967 1.26504,1.0542 0.86816,-0.69453 1.88515,-1.0542 1.017,-0.35967 2.0836,-0.35967 2.02158,0 2.91455,1.0418 0.89297,1.02939 0.89297,3.47266 v 4.57646 q 0,0.93018 0.13642,1.28984 0.14883,0.35967 0.4961,0.5085 v 3.12539 h -5.53145 q -0.14883,-0.69453 -0.22324,-1.73633 -0.062,-1.04179 -0.062,-3.6959 v -3.02617 q 0,-1.079 -0.26045,-1.46347 -0.26045,-0.38448 -0.90537,-0.38448 -0.14883,0 -0.33487,0.0372 -0.18603,0.0372 -0.47129,0.13643 v 5.20898 q 0,0.96738 0.12403,1.31465 0.13642,0.34726 0.48369,0.48369 v 3.12539 h -5.51904 q -0.14883,-0.69453 -0.21084,-1.73633 -0.062,-1.04179 -0.062,-3.6959 v -3.02617 q 0,-1.079 -0.27285,-1.46347 -0.26045,-0.38448 -0.89297,-0.38448 -0.17363,0 -0.37207,0.0372 -0.18603,0.0372 -0.44648,0.13643 z"
         style="font-size:25.4px;line-height:1.25;font-family:'Aachen BT';-inkscape-font-specification:'Aachen BT, Normal';fill:#800000;stroke:#ffffff;stroke-width:4;stroke-linecap:round;stroke-linejoin:round;stroke-miterlimit:4;stroke-dasharray:none;paint-order:stroke markers fill"
         id="path4970" />
      <path
         d="m 153.90423,122.06567 v 0.50849 h 2.03399 v -0.50849 q 0,-0.90537 -0.23565,-1.26504 -0.23564,-0.35967 -0.78135,-0.35967 -0.5457,0 -0.78134,0.37207 -0.23565,0.37207 -0.23565,1.25264 z m 0,4.67568 q 0,0.91777 0.22324,1.28985 0.23565,0.35966 0.79375,0.35966 0.5333,0 0.76895,-0.37207 0.24805,-0.37207 0.24805,-1.27744 v -0.37207 h 5.14697 v 3.42305 q -1.01699,0.86816 -2.66651,1.32705 -1.64951,0.44648 -3.80752,0.44648 -3.2122,0 -4.52685,-1.12861 -1.31465,-1.12861 -1.31465,-3.91914 v -4.2168 q 0,-2.84013 1.32705,-3.94394 1.33945,-1.11621 4.82451,-1.11621 3.42305,0 4.78731,1.20302 1.37666,1.20303 1.37666,4.2168 v 2.79053 h -7.18096 z"
         style="font-size:25.4px;line-height:1.25;font-family:'Aachen BT';-inkscape-font-specification:'Aachen BT, Normal';fill:#800000;stroke:#ffffff;stroke-width:4;stroke-linecap:round;stroke-linejoin:round;stroke-miterlimit:4;stroke-dasharray:none;paint-order:stroke markers fill"
         id="path4972" />
      <path
         d="m 163.2432,129.76752 v -3.63388 h 4.89892 v 0.63252 q 0,0.86816 0.23565,1.22783 0.24805,0.34726 0.78135,0.34726 0.47129,0 0.75654,-0.28525 0.28525,-0.29766 0.28525,-0.78135 0,-1.0666 -2.74091,-1.69912 0,0 0,0 -2.66651,-0.60771 -3.52227,-1.46348 -0.84336,-0.85576 -0.84336,-2.57968 0,-2.14561 1.38906,-3.21221 1.38907,-1.079 4.192,-1.079 1.84794,0 3.43544,0.45888 1.5875,0.45889 2.84014,1.35186 v 3.27422 h -4.82451 v -0.68213 q 0,-0.63252 -0.27285,-0.97979 -0.26045,-0.34726 -0.74414,-0.34726 -0.44649,0 -0.75655,0.31006 -0.31005,0.29765 -0.31005,0.73173 0,0.91778 2.36884,1.42627 0.0124,0 0.0248,0 2.88974,0.63252 3.83232,1.53789 0.94258,0.89297 0.94258,2.67891 0,2.34404 -1.40146,3.46025 -1.40147,1.10381 -4.36563,1.10381 -1.81074,0 -3.37344,-0.44648 -1.55029,-0.45889 -2.82773,-1.35186 z"
         style="font-size:25.4px;line-height:1.25;font-family:'Aachen BT';-inkscape-font-specification:'Aachen BT, Normal';fill:#800000;stroke:#ffffff;stroke-width:4;stroke-linecap:round;stroke-linejoin:round;stroke-miterlimit:4;stroke-dasharray:none;paint-order:stroke markers fill"
         id="path4974" />
    </g>
    <g
       id="g5136"
       style="fill:#800000">
      <path
         d="m 22.935497,119.75883 q 0.08682,0.0124 0.21084,0.0248 0.136426,0 0.384473,0 0.95498,0 1.401465,-0.40928 0.458886,-0.42168 0.458886,-1.28984 0,-0.89297 -0.434082,-1.32706 -0.434082,-0.44648 -1.289843,-0.44648 -0.483692,0 -0.744141,0.0248 z m -0.0124,7.63985 q 0.111621,0.0248 0.235645,0.0372 0.124023,0 0.37207,0 1.00459,0 1.475879,-0.50849 0.483691,-0.5085 0.483691,-1.5751 0,-1.0418 -0.545703,-1.53789 -0.533301,-0.4961 -1.661914,-0.4961 h -0.359668 z m -6.449219,3.94394 v -3.34863 q 0.384473,-0.19844 0.533301,-0.55811 0.148828,-0.37207 0.148828,-1.17822 v -8.75605 q 0,-0.80616 -0.148828,-1.16582 -0.148828,-0.35967 -0.533301,-0.55811 v -3.31143 h 8.35918 q 3.522265,0 4.960937,1.12862 1.438672,1.11621 1.438672,3.78271 0,1.64951 -0.781347,2.70371 -0.781348,1.0418 -2.22002,1.32705 1.661914,0.32246 2.480469,1.43868 0.830957,1.11621 0.830957,3.03857 0,2.95176 -1.488281,4.20439 -1.488282,1.25264 -5.171778,1.25264 z"
         style="font-size:25.4px;line-height:1.25;font-family:'Aachen BT';-inkscape-font-specification:'Aachen BT, Normal';fill:#800000;stroke-width:0.264583"
         id="path5116" />
      <path
         d="m 45.681396,122.30131 v 4.2168 q 0,2.85254 -1.339453,3.95635 -1.339453,1.0914 -4.824512,1.0914 -3.485059,0 -4.824512,-1.0914 -1.32705,-1.10381 -1.32705,-3.95635 v -4.2168 q 0,-2.85254 1.32705,-3.95635 1.339453,-1.1038 4.824512,-1.1038 3.497461,0 4.824512,1.1038 1.339453,1.10381 1.339453,3.95635 z m -5.146973,-0.23564 q 0,-0.90537 -0.235644,-1.26504 -0.235645,-0.35967 -0.781348,-0.35967 -0.545703,0 -0.781348,0.37207 -0.235644,0.37207 -0.235644,1.25264 v 4.67568 q 0,0.91777 0.223242,1.28985 0.235644,0.35966 0.79375,0.35966 0.533301,0 0.768945,-0.37207 0.248047,-0.37207 0.248047,-1.27744 z"
         style="font-size:25.4px;line-height:1.25;font-family:'Aachen BT';-inkscape-font-specification:'Aachen BT, Normal';fill:#800000;stroke-width:0.264583"
         id="path5118" />
      <path
         d="m 55.069971,127.5351 v -2.18281 q -1.42627,0.57051 -1.785938,0.90537 -0.347265,0.32246 -0.347265,0.81855 0,0.4837 0.223242,0.74415 0.223242,0.24804 0.632519,0.24804 0.347266,0 0.669727,-0.13642 0.322461,-0.13643 0.607715,-0.39688 z m 0.223242,3.80752 -0.173633,-1.19062 q -0.657324,0.74414 -1.500683,1.079 -0.84336,0.33486 -2.058789,0.33486 -1.835547,0 -2.852539,-1.04179 -1.00459,-1.0418 -1.00459,-2.93936 0,-3.12539 7.019726,-5.15937 l 0.347266,-0.0992 v -0.26045 q 0,-0.83096 -0.248047,-1.22783 -0.235645,-0.39688 -0.744141,-0.39688 -0.508496,0 -0.756543,0.39688 -0.235644,0.39687 -0.235644,1.22783 v 0.26045 h -4.774902 v -3.27422 q 1.128613,-0.86817 2.778124,-1.35186 1.649512,-0.48369 3.547071,-0.48369 2.889746,0 4.204394,1.21543 1.327051,1.21543 1.327051,3.89434 v 4.2416 q 0,0.74414 0.148828,1.11621 0.161231,0.37207 0.508496,0.5333 v 3.12539 z"
         style="font-size:25.4px;line-height:1.25;font-family:'Aachen BT';-inkscape-font-specification:'Aachen BT, Normal';fill:#800000;stroke-width:0.264583"
         id="path5120" />
      <path
         d="m 68.600926,126.39409 q 0,0.85576 0.148828,1.27744 0.161231,0.40927 0.533301,0.5457 v 3.12539 h -6.523633 v -3.12539 q 0.347266,-0.0992 0.508497,-0.5209 0.173632,-0.43408 0.173632,-1.22783 v -4.40283 q 0,-0.68213 -0.148828,-0.99219 -0.148828,-0.31006 -0.533301,-0.47129 v -3.12539 h 5.531446 v 1.09141 q 0.471289,-0.70694 1.016992,-1.0418 0.558105,-0.33486 1.252637,-0.33486 0.111621,0 0.285253,0.0248 0.173633,0.0248 0.347266,0.062 v 4.68809 h -0.558105 q -1.029395,0 -1.537891,0.64492 -0.496094,0.64492 -0.496094,1.97197 z"
         style="font-size:25.4px;line-height:1.25;font-family:'Aachen BT';-inkscape-font-specification:'Aachen BT, Normal';fill:#800000;stroke-width:0.264583"
         id="path5122" />
      <path
         d="m 80.073094,127.58471 0.0124,-6.35 q -0.248047,-0.12402 -0.458887,-0.17363 -0.198438,-0.0496 -0.409277,-0.062 -0.620118,0 -0.868165,0.34726 -0.248046,0.34727 -0.248046,1.5627 v 3.02617 q 0,1.0542 0.260449,1.43867 0.272851,0.38447 0.930176,0.38447 0.186035,0 0.37207,-0.0372 0.198437,-0.0496 0.409277,-0.13643 z m 0.0124,-10.15752 q 0,-0.91777 -0.148829,-1.31465 -0.148828,-0.39687 -0.520898,-0.5209 v -3.12539 h 5.841504 v 14.2751 q 0,0.70693 0.148828,1.01699 0.16123,0.31006 0.545703,0.45889 v 3.12539 h -5.643066 v -0.94258 q -0.768946,0.5333 -1.674317,0.80616 -0.892968,0.26044 -1.885156,0.26044 -2.046387,0 -2.926953,-1.02939 -0.880566,-1.0418 -0.880566,-3.58428 v -4.32842 q 0,-2.96416 0.880566,-4.06796 0.880566,-1.10381 2.976563,-1.10381 0.781347,0 1.612304,0.19843 0.84336,0.19844 1.674317,0.58291 z"
         style="font-size:25.4px;line-height:1.25;font-family:'Aachen BT';-inkscape-font-specification:'Aachen BT, Normal';fill:#800000;stroke-width:0.264583"
         id="path5124" />
      <path
         d="m 108.7101,114.17778 v 4.84931 h -5.65547 v -1.0666 q 0,-1.01699 -0.26045,-1.43867 -0.26045,-0.42168 -0.85576,-0.42168 -0.60772,0 -0.86817,0.40928 -0.26044,0.40928 -0.26044,1.45107 v 7.85069 q 0,1.02939 0.26044,1.43867 0.26045,0.40927 0.86817,0.40927 0.60771,0 0.85576,-0.40927 0.26045,-0.40928 0.26045,-1.43867 v -1.40147 h -0.94258 v -3.75791 h 6.59805 v 9.09092 q -1.26504,1.00459 -3.00137,1.50068 -1.73633,0.48369 -4.05557,0.48369 -3.695885,0 -5.221373,-1.50068 -1.513086,-1.50068 -1.513086,-5.23379 v -6.15156 q 0,-3.6835 1.500684,-5.20899 1.513086,-1.53789 5.060145,-1.53789 2.1332,0 3.96875,0.5333 1.83555,0.5209 3.26182,1.5503 z"
         style="font-size:25.4px;line-height:1.25;font-family:'Aachen BT';-inkscape-font-specification:'Aachen BT, Normal';fill:#800000;stroke-width:0.264583"
         id="path5126" />
      <path
         d="m 118.24749,127.5351 v -2.18281 q -1.42627,0.57051 -1.78593,0.90537 -0.34727,0.32246 -0.34727,0.81855 0,0.4837 0.22324,0.74415 0.22325,0.24804 0.63252,0.24804 0.34727,0 0.66973,-0.13642 0.32246,-0.13643 0.60771,-0.39688 z m 0.22325,3.80752 -0.17364,-1.19062 q -0.65732,0.74414 -1.50068,1.079 -0.84336,0.33486 -2.05879,0.33486 -1.83555,0 -2.85254,-1.04179 -1.00459,-1.0418 -1.00459,-2.93936 0,-3.12539 7.01973,-5.15937 l 0.34726,-0.0992 v -0.26045 q 0,-0.83096 -0.24804,-1.22783 -0.23565,-0.39688 -0.74414,-0.39688 -0.5085,0 -0.75655,0.39688 -0.23564,0.39687 -0.23564,1.22783 v 0.26045 h -4.7749 v -3.27422 q 1.12861,-0.86817 2.77812,-1.35186 1.64951,-0.48369 3.54707,-0.48369 2.88975,0 4.2044,1.21543 1.32705,1.21543 1.32705,3.89434 v 4.2416 q 0,0.74414 0.14883,1.11621 0.16123,0.37207 0.50849,0.5333 v 3.12539 z"
         style="font-size:25.4px;line-height:1.25;font-family:'Aachen BT';-inkscape-font-specification:'Aachen BT, Normal';fill:#800000;stroke-width:0.264583"
         id="path5128" />
      <path
         d="m 131.77845,126.39409 q 0,0.80615 0.14883,1.22783 0.14883,0.42168 0.48369,0.59531 v 3.12539 h -6.47402 v -3.12539 q 0.34726,-0.0992 0.50849,-0.5209 0.17364,-0.43408 0.17364,-1.22783 v -4.40283 q 0,-0.68213 -0.14883,-0.99219 -0.14883,-0.31006 -0.5333,-0.47129 v -3.12539 h 5.64306 v 0.94258 q 0.78135,-0.5457 1.68672,-0.81856 0.90537,-0.27285 1.86035,-0.27285 1.12862,0 1.93477,0.35967 0.81855,0.35967 1.26504,1.0542 0.86816,-0.69453 1.88515,-1.0542 1.017,-0.35967 2.0836,-0.35967 2.02158,0 2.91455,1.0418 0.89297,1.02939 0.89297,3.47266 v 4.57646 q 0,0.93018 0.13642,1.28984 0.14883,0.35967 0.4961,0.5085 v 3.12539 h -5.53145 q -0.14883,-0.69453 -0.22324,-1.73633 -0.062,-1.04179 -0.062,-3.6959 v -3.02617 q 0,-1.079 -0.26045,-1.46347 -0.26045,-0.38448 -0.90537,-0.38448 -0.14883,0 -0.33487,0.0372 -0.18603,0.0372 -0.47129,0.13643 v 5.20898 q 0,0.96738 0.12403,1.31465 0.13642,0.34726 0.48369,0.48369 v 3.12539 h -5.51904 q -0.14883,-0.69453 -0.21084,-1.73633 -0.062,-1.04179 -0.062,-3.6959 v -3.02617 q 0,-1.079 -0.27285,-1.46347 -0.26045,-0.38448 -0.89297,-0.38448 -0.17363,0 -0.37207,0.0372 -0.18603,0.0372 -0.44648,0.13643 z"
         style="font-size:25.4px;line-height:1.25;font-family:'Aachen BT';-inkscape-font-specification:'Aachen BT, Normal';fill:#800000;stroke-width:0.264583"
         id="path5130" />
      <path
         d="m 153.90423,122.06567 v 0.50849 h 2.03399 v -0.50849 q 0,-0.90537 -0.23565,-1.26504 -0.23564,-0.35967 -0.78135,-0.35967 -0.5457,0 -0.78134,0.37207 -0.23565,0.37207 -0.23565,1.25264 z m 0,4.67568 q 0,0.91777 0.22324,1.28985 0.23565,0.35966 0.79375,0.35966 0.5333,0 0.76895,-0.37207 0.24805,-0.37207 0.24805,-1.27744 v -0.37207 h 5.14697 v 3.42305 q -1.01699,0.86816 -2.66651,1.32705 -1.64951,0.44648 -3.80752,0.44648 -3.2122,0 -4.52685,-1.12861 -1.31465,-1.12861 -1.31465,-3.91914 v -4.2168 q 0,-2.84013 1.32705,-3.94394 1.33945,-1.11621 4.82451,-1.11621 3.42305,0 4.78731,1.20302 1.37666,1.20303 1.37666,4.2168 v 2.79053 h -7.18096 z"
         style="font-size:25.4px;line-height:1.25;font-family:'Aachen BT';-inkscape-font-specification:'Aachen BT, Normal';fill:#800000;stroke-width:0.264583"
         id="path5132" />
      <path
         d="m 163.2432,129.76752 v -3.63388 h 4.89892 v 0.63252 q 0,0.86816 0.23565,1.22783 0.24805,0.34726 0.78135,0.34726 0.47129,0 0.75654,-0.28525 0.28525,-0.29766 0.28525,-0.78135 0,-1.0666 -2.74091,-1.69912 0,0 0,0 -2.66651,-0.60771 -3.52227,-1.46348 -0.84336,-0.85576 -0.84336,-2.57968 0,-2.14561 1.38906,-3.21221 1.38907,-1.079 4.192,-1.079 1.84794,0 3.43544,0.45888 1.5875,0.45889 2.84014,1.35186 v 3.27422 h -4.82451 v -0.68213 q 0,-0.63252 -0.27285,-0.97979 -0.26045,-0.34726 -0.74414,-0.34726 -0.44649,0 -0.75655,0.31006 -0.31005,0.29765 -0.31005,0.73173 0,0.91778 2.36884,1.42627 0.0124,0 0.0248,0 2.88974,0.63252 3.83232,1.53789 0.94258,0.89297 0.94258,2.67891 0,2.34404 -1.40146,3.46025 -1.40147,1.10381 -4.36563,1.10381 -1.81074,0 -3.37344,-0.44648 -1.55029,-0.45889 -2.82773,-1.35186 z"
         style="font-size:25.4px;line-height:1.25;font-family:'Aachen BT';-inkscape-font-specification:'Aachen BT, Normal';fill:#800000;stroke-width:0.264583"
         id="path5134" />
    </g>
  </g>
</svg>
