<?xml version="1.0" encoding="UTF-8" standalone="no"?>
<!-- Created with Inkscape (http://www.inkscape.org/) -->

<svg
   width="201.28726mm"
   height="88.980591mm"
   viewBox="0 0 201.28726 88.980591"
   version="1.1"
   id="svg5"
   inkscape:version="1.1 (c68e22c387, 2021-05-23)"
   sodipodi:docname="auto-rpgfirstpersonpartybased.svg"
   xmlns:inkscape="http://www.inkscape.org/namespaces/inkscape"
   xmlns:sodipodi="http://sodipodi.sourceforge.net/DTD/sodipodi-0.dtd"
   xmlns="http://www.w3.org/2000/svg"
   xmlns:svg="http://www.w3.org/2000/svg">
  <sodipodi:namedview
     id="namedview7"
     pagecolor="#ffffff"
     bordercolor="#666666"
     borderopacity="1.0"
     inkscape:pageshadow="2"
     inkscape:pageopacity="0.0"
     inkscape:pagecheckerboard="0"
     inkscape:document-units="mm"
     showgrid="false"
     fit-margin-top="0"
     fit-margin-left="0"
     fit-margin-right="0"
     fit-margin-bottom="0"
     inkscape:zoom="0.67081229"
     inkscape:cx="377.90005"
     inkscape:cy="235.53534"
     inkscape:window-width="1920"
     inkscape:window-height="1138"
     inkscape:window-x="-8"
     inkscape:window-y="-8"
     inkscape:window-maximized="1"
     inkscape:current-layer="layer1" />
  <defs
     id="defs2" />
  <g
     inkscape:label="Calque 1"
     inkscape:groupmode="layer"
     id="layer1"
     transform="translate(-4.9479873,-85.819958)">
    <rect
       style="fill:#ffffff;fill-opacity:1;fill-rule:evenodd;stroke:none;stroke-width:5.92382;stroke-linecap:round;stroke-linejoin:round;stroke-miterlimit:4;stroke-dasharray:none;paint-order:stroke markers fill"
       id="rect15003"
       width="60.346611"
       height="22.08765"
       x="83.51107"
       y="140.99466" />
    <rect
       style="fill:#ffffff;fill-opacity:1;fill-rule:evenodd;stroke:none;stroke-width:3.9378;stroke-linecap:round;stroke-linejoin:round;stroke-miterlimit:4;stroke-dasharray:none;paint-order:stroke markers fill"
       id="rect15129"
       width="15.772504"
       height="37.342598"
       x="159.99939"
       y="125.73971" />
    <rect
       style="fill:#ffffff;fill-opacity:1;fill-rule:evenodd;stroke:none;stroke-width:3.92876;stroke-linecap:round;stroke-linejoin:round;stroke-miterlimit:4;stroke-dasharray:none;paint-order:stroke markers fill"
       id="rect15131"
       width="25.772032"
       height="22.748972"
       x="145.54172"
       y="99.390205" />
    <rect
       style="fill:#ffffff;fill-opacity:1;fill-rule:evenodd;stroke:none;stroke-width:2.79129;stroke-linecap:round;stroke-linejoin:round;stroke-miterlimit:4;stroke-dasharray:none;paint-order:stroke markers fill"
       id="rect15133"
       width="11.086838"
       height="26.693195"
       x="75.410202"
       y="100.20734" />
    <rect
       style="fill:#ffffff;fill-opacity:1;fill-rule:evenodd;stroke:none;stroke-width:2.79129;stroke-linecap:round;stroke-linejoin:round;stroke-miterlimit:4;stroke-dasharray:none;paint-order:stroke markers fill"
       id="rect15215"
       width="11.086838"
       height="26.693195"
       x="54.243515"
       y="138.30717" />
    <g
       id="g11596"
       style="fill:#680000;fill-opacity:1;stroke:#ffffff;stroke-width:5;stroke-linecap:round;stroke-linejoin:round;stroke-miterlimit:4;stroke-dasharray:none;paint-order:stroke markers fill">
      <g
         aria-label="First Person"
         transform="scale(1.106581,0.90368442)"
         id="text3840"
         style="font-size:49.0846px;line-height:1.25;font-family:'Rose Of Baltimore';-inkscape-font-specification:'Rose Of Baltimore';fill:#680000;fill-opacity:1;stroke:#ffffff;stroke-width:5;stroke-linecap:round;stroke-linejoin:round;stroke-miterlimit:4;stroke-dasharray:none;paint-order:stroke markers fill">
        <path
           d="m 34.75324,135.70364 v -18.25947 c 2.306976,1.12894 2.601484,5.15388 2.699653,7.50994 H 38.3855 v -17.32686 h -0.834438 c -0.04909,2.45423 -0.490846,6.08649 -2.797822,6.97001 V 99.970049 c 4.417614,0 4.712121,5.890151 5.350221,10.896781 h 0.834438 V 97.466734 H 29.550272 v 0.294508 c 1.128946,0.589015 0.981692,1.079861 0.981692,2.650568 v 35.29183 c 0,1.5707 0.147254,2.06155 -0.981692,2.65056 v 0.29451 h 6.233744 v -0.29451 c -1.17803,-0.53993 -1.030776,-1.12894 -1.030776,-2.65056 z"
           style="font-family:OPTIEngeEtienne;-inkscape-font-specification:'OPTIEngeEtienne, Normal';fill:#680000;fill-opacity:1;stroke:#ffffff;stroke-width:5;stroke-linecap:round;stroke-linejoin:round;stroke-miterlimit:4;stroke-dasharray:none;paint-order:stroke markers fill"
           id="path11617" />
        <path
           d="m 43.097498,99.430118 v 5.055712 h 3.730429 v -5.055712 z m 3.730429,8.540722 h -4.761206 v 0.29451 c 1.178031,0.58901 1.030777,1.12894 1.030777,2.65056 v 24.78773 c 0,1.5707 0.147254,2.06155 -1.030777,2.65056 v 0.29451 h 5.742898 v -0.29451 c -1.17803,-0.53993 -0.981692,-1.12894 -0.981692,-2.65056 z"
           style="font-family:OPTIEngeEtienne;-inkscape-font-specification:'OPTIEngeEtienne, Normal';fill:#680000;fill-opacity:1;stroke:#ffffff;stroke-width:5;stroke-linecap:round;stroke-linejoin:round;stroke-miterlimit:4;stroke-dasharray:none;paint-order:stroke markers fill"
           id="path11619" />
        <path
           d="m 54.337838,135.70364 v -23.70786 c 0,-0.68719 0.490846,-1.71797 1.17803,-1.66888 0.883523,0.0491 0.539931,7.55903 -0.196338,10.06234 l 4.123106,-2.25789 c 0.343592,-2.30698 0.294508,-5.35022 0.147254,-7.11727 -0.147254,-2.65057 -0.736269,-3.28866 -2.159722,-3.38683 -1.079862,-0.0491 -2.45423,1.42345 -3.09233,2.65056 v -2.30697 h -4.761206 v 0.29451 c 1.17803,0.58901 1.030776,1.12894 1.030776,2.65056 v 24.78773 c 0,1.5707 0.147254,2.06155 -1.030776,2.65056 v 0.29451 h 5.742898 v -0.29451 c -1.178031,-0.53993 -0.981692,-1.12894 -0.981692,-2.65056 z"
           style="font-family:OPTIEngeEtienne;-inkscape-font-specification:'OPTIEngeEtienne, Normal';fill:#680000;fill-opacity:1;stroke:#ffffff;stroke-width:5;stroke-linecap:round;stroke-linejoin:round;stroke-miterlimit:4;stroke-dasharray:none;paint-order:stroke markers fill"
           id="path11621" />
        <path
           d="m 71.075594,116.65881 c 0.147254,-2.5524 0.441761,-6.13557 -1.767046,-8.09896 -1.030776,-0.98169 -2.945076,-1.07986 -4.123106,-0.73627 -1.717961,0.49085 -2.601484,1.96339 -2.99416,3.48501 -0.294508,1.17803 -0.09817,5.7429 0.04908,6.381 0.6381,2.50331 1.2762,2.40514 4.221276,6.381 0.589015,0.73627 1.079861,2.01246 1.325284,3.58317 0.6381,3.53409 0.392677,8.44255 -0.539931,8.78615 -0.441761,0.14725 -0.883523,-0.14726 -1.030776,-1.03078 -0.294508,-1.61979 -0.343593,-2.25789 -0.392677,-4.51578 -0.04909,-2.2579 0.294507,-4.66304 0.441761,-5.79199 l -3.877683,1.61979 -0.09817,2.45423 c -0.04908,1.57071 -0.392677,7.26453 2.110638,9.03157 1.276199,0.93261 3.043245,0.88352 4.221275,0.39268 1.865215,-0.78536 2.45423,-2.20881 2.748738,-3.87769 0.392676,-2.2088 0.09817,-6.92092 -0.04909,-8.09895 -0.392677,-2.50332 -0.6381,-2.69966 -4.564868,-7.95171 -0.981692,-1.32528 -1.079861,-2.89599 -1.17803,-4.27036 0,-0.88352 -0.09817,-1.17803 -0.04909,-2.11064 0,-0.58901 -0.04908,-1.96338 0.736269,-2.06155 0.392677,-0.0491 0.687185,0.0982 0.932608,0.68718 0.147253,0.44177 0.392676,2.45423 0.392676,3.1905 0.09817,2.01247 0.04909,2.60149 -0.09817,4.41762 z"
           style="font-family:OPTIEngeEtienne;-inkscape-font-specification:'OPTIEngeEtienne, Normal';fill:#680000;fill-opacity:1;stroke:#ffffff;stroke-width:5;stroke-linecap:round;stroke-linejoin:round;stroke-miterlimit:4;stroke-dasharray:none;paint-order:stroke markers fill"
           id="path11623" />
        <path
           d="m 78.291004,97.515819 -3.73043,1.619791 v 8.83523 h -1.276199 v 2.65057 h 1.276199 v 22.13715 c 0,1.57071 -0.196338,4.36853 1.227115,5.54656 0.981692,0.83444 2.208807,0.73627 3.975853,0.34359 v -2.89599 c -1.030777,0 -1.472538,-0.29451 -1.472538,-2.50331 v -22.628 h 1.472538 v -2.65057 h -1.472538 z"
           style="font-family:OPTIEngeEtienne;-inkscape-font-specification:'OPTIEngeEtienne, Normal';fill:#680000;fill-opacity:1;stroke:#ffffff;stroke-width:5;stroke-linecap:round;stroke-linejoin:round;stroke-miterlimit:4;stroke-dasharray:none;paint-order:stroke markers fill"
           id="path11625" />
        <path
           d="m 94.439785,114.7936 v -14.52904 c 1.81613,0 2.159723,0.24542 2.159723,2.45423 v 10.06234 c 0,1.22711 -0.09817,2.01247 -2.159723,2.01247 z m 6.184655,-12.762 c 0,-1.2762 -0.49084,-4.564866 -4.810286,-4.564866 h -6.626421 v 0.294508 c 1.178031,0.589015 1.030777,1.079861 1.030777,2.650568 v 35.29183 c 0,1.5707 0.147254,2.06155 -1.030777,2.65056 v 0.29451 h 3.09233 3.141414 v -0.29451 c -1.128945,-0.53993 -0.981692,-1.12894 -0.981692,-2.65056 v -17.91588 c 5.252052,0 6.184655,-1.66888 6.184655,-6.13558 z"
           style="font-family:OPTIEngeEtienne;-inkscape-font-specification:'OPTIEngeEtienne, Normal';fill:#680000;fill-opacity:1;stroke:#ffffff;stroke-width:5;stroke-linecap:round;stroke-linejoin:round;stroke-miterlimit:4;stroke-dasharray:none;paint-order:stroke markers fill"
           id="path11627" />
        <path
           d="m 112.20838,123.18706 v -8.5898 c 0,-2.69965 0.24542,-5.1048 -2.11064,-6.381 -1.22712,-0.68718 -3.48501,-0.78535 -4.71212,-0.0491 -2.74874,1.61979 -2.50332,4.66303 -2.50332,6.0374 V 131.286 c 0,2.01247 -0.29451,5.54656 2.35606,7.06818 1.2762,0.73627 3.1905,0.78536 4.4667,0.0491 2.84691,-1.57071 2.50332,-5.64473 2.50332,-8.88431 v -1.66888 l -3.97586,-1.52162 c 0.14726,0.78535 0.24543,4.56487 0.24543,5.25205 0,0.0982 0,3.04325 0,3.04325 0.0491,0.98169 -0.19634,2.06155 -0.88353,2.06155 -0.98169,0 -0.98169,-1.07986 -0.98169,-2.15972 v -11.33855 z m -5.59565,-11.53488 c 0,-1.03077 0.29451,-1.66887 1.03078,-1.66887 0.58901,0 0.83444,0.68718 0.83444,1.22711 v 9.62058 h -1.86522 z"
           style="font-family:OPTIEngeEtienne;-inkscape-font-specification:'OPTIEngeEtienne, Normal';fill:#680000;fill-opacity:1;stroke:#ffffff;stroke-width:5;stroke-linecap:round;stroke-linejoin:round;stroke-miterlimit:4;stroke-dasharray:none;paint-order:stroke markers fill"
           id="path11629" />
        <path
           d="m 119.12921,135.70364 v -23.70786 c 0,-0.68719 0.49085,-1.71797 1.17803,-1.66888 0.88353,0.0491 0.53993,7.55903 -0.19633,10.06234 l 4.1231,-2.25789 c 0.34359,-2.30698 0.29451,-5.35022 0.14726,-7.11727 -0.14726,-2.65057 -0.73627,-3.28866 -2.15973,-3.38683 -1.07986,-0.0491 -2.45423,1.42345 -3.09233,2.65056 v -2.30697 h -4.7612 v 0.29451 c 1.17803,0.58901 1.03077,1.12894 1.03077,2.65056 v 24.78773 c 0,1.5707 0.14726,2.06155 -1.03077,2.65056 v 0.29451 h 5.7429 v -0.29451 c -1.17803,-0.53993 -0.9817,-1.12894 -0.9817,-2.65056 z"
           style="font-family:OPTIEngeEtienne;-inkscape-font-specification:'OPTIEngeEtienne, Normal';fill:#680000;fill-opacity:1;stroke:#ffffff;stroke-width:5;stroke-linecap:round;stroke-linejoin:round;stroke-miterlimit:4;stroke-dasharray:none;paint-order:stroke markers fill"
           id="path11631" />
        <path
           d="m 135.86697,116.65881 c 0.14726,-2.5524 0.44176,-6.13557 -1.76704,-8.09896 -1.03078,-0.98169 -2.94508,-1.07986 -4.12311,-0.73627 -1.71796,0.49085 -2.60148,1.96339 -2.99416,3.48501 -0.29451,1.17803 -0.0982,5.7429 0.0491,6.381 0.6381,2.50331 1.2762,2.40514 4.22128,6.381 0.58901,0.73627 1.07986,2.01246 1.32528,3.58317 0.6381,3.53409 0.39268,8.44255 -0.53993,8.78615 -0.44176,0.14725 -0.88352,-0.14726 -1.03077,-1.03078 -0.29451,-1.61979 -0.3436,-2.25789 -0.39268,-4.51578 -0.0491,-2.2579 0.29451,-4.66304 0.44176,-5.79199 l -3.87768,1.61979 -0.0982,2.45423 c -0.0491,1.57071 -0.39268,7.26453 2.11064,9.03157 1.2762,0.93261 3.04324,0.88352 4.22127,0.39268 1.86522,-0.78536 2.45423,-2.20881 2.74874,-3.87769 0.39268,-2.2088 0.0982,-6.92092 -0.0491,-8.09895 -0.39267,-2.50332 -0.63809,-2.69966 -4.56486,-7.95171 -0.98169,-1.32528 -1.07986,-2.89599 -1.17803,-4.27036 0,-0.88352 -0.0982,-1.17803 -0.0491,-2.11064 0,-0.58901 -0.0491,-1.96338 0.73627,-2.06155 0.39268,-0.0491 0.68719,0.0982 0.93261,0.68718 0.14725,0.44177 0.39268,2.45423 0.39268,3.1905 0.0982,2.01247 0.0491,2.60149 -0.0982,4.41762 z"
           style="font-family:OPTIEngeEtienne;-inkscape-font-specification:'OPTIEngeEtienne, Normal';fill:#680000;fill-opacity:1;stroke:#ffffff;stroke-width:5;stroke-linecap:round;stroke-linejoin:round;stroke-miterlimit:4;stroke-dasharray:none;paint-order:stroke markers fill"
           id="path11633" />
        <path
           d="m 148.03993,133.00398 v -19.38841 c 0,-4.85938 -2.74874,-5.98832 -4.66304,-5.98832 -1.81613,0 -4.66304,1.17803 -4.66304,5.98832 v 19.38841 c 0,4.81029 2.84691,5.98832 4.66304,5.98832 1.9143,0 4.66304,-1.12894 4.66304,-5.98832 z m -5.69382,2.79783 c 0,-0.53994 0,-24.44413 0,-24.98407 0,-0.49084 0.39268,-0.9326 0.93261,-0.9326 0.58902,0 1.03078,0.44176 1.03078,0.9326 0,0.49085 0,24.49322 0,24.98407 0,0.49084 -0.44176,0.9326 -1.03078,0.9326 -0.53993,0 -0.93261,-0.44176 -0.93261,-0.9326 z"
           style="font-family:OPTIEngeEtienne;-inkscape-font-specification:'OPTIEngeEtienne, Normal';fill:#680000;fill-opacity:1;stroke:#ffffff;stroke-width:5;stroke-linecap:round;stroke-linejoin:round;stroke-miterlimit:4;stroke-dasharray:none;paint-order:stroke markers fill"
           id="path11635" />
        <path
           d="m 154.81356,107.97084 h -4.76121 v 0.29451 c 1.17803,0.58901 1.03078,1.12894 1.03078,2.65056 v 24.78773 c 0,1.5707 0.14725,2.06155 -1.03078,2.65056 v 0.29451 h 5.44839 v -0.29451 c -0.88352,-0.44176 -0.68718,-1.07986 -0.68718,-2.60148 v -22.52983 c 0,-1.37437 0.24542,-2.79782 1.07986,-2.84691 0.6381,-0.0491 0.68718,0.73627 0.68718,1.81613 v 23.51153 c 0,1.5707 0.0982,2.15972 -0.73627,2.65056 v 0.29451 h 5.4484 v -0.29451 c -1.17804,-0.53993 -0.9817,-1.12894 -0.9817,-2.65056 v -23.75695 c 0,-1.57071 0.24543,-4.22127 -2.06155,-4.31944 -1.52162,-0.0491 -2.84691,1.52162 -3.43592,2.35606 z"
           style="font-family:OPTIEngeEtienne;-inkscape-font-specification:'OPTIEngeEtienne, Normal';fill:#680000;fill-opacity:1;stroke:#ffffff;stroke-width:5;stroke-linecap:round;stroke-linejoin:round;stroke-miterlimit:4;stroke-dasharray:none;paint-order:stroke markers fill"
           id="path11637" />
      </g>
      <g
         aria-label="Party Based RPG"
         transform="scale(1.106581,0.90368445)"
         id="text9030"
         style="font-size:49.0846px;line-height:1.25;font-family:'Rose Of Baltimore';-inkscape-font-specification:'Rose Of Baltimore';fill:#680000;fill-opacity:1;stroke:#ffffff;stroke-width:5;stroke-linecap:round;stroke-linejoin:round;stroke-miterlimit:4;stroke-dasharray:none;paint-order:stroke markers fill">
        <path
           d="m 12.223471,159.16342 v -14.52904 c 1.81613,0 2.159722,0.24543 2.159722,2.45423 v 10.06235 c 0,1.22711 -0.09817,2.01246 -2.159722,2.01246 z m 6.184659,-12.76199 c 0,-1.2762 -0.490846,-4.56487 -4.81029,-4.56487 H 6.971419 v 0.29451 c 1.1780304,0.58901 1.0307766,1.07986 1.0307766,2.65057 v 35.29182 c 0,1.57071 0.1472538,2.06156 -1.0307766,2.65057 v 0.29451 h 3.09233 3.141414 v -0.29451 c -1.128946,-0.53993 -0.981692,-1.12894 -0.981692,-2.65057 v -17.91587 c 5.252052,0 6.184659,-1.66888 6.184659,-6.13558 z"
           style="font-family:OPTIEngeEtienne;-inkscape-font-specification:'OPTIEngeEtienne, Normal';fill:#680000;fill-opacity:1;stroke:#ffffff;stroke-width:5;stroke-linecap:round;stroke-linejoin:round;stroke-miterlimit:4;stroke-dasharray:none;paint-order:stroke markers fill"
           id="path11640" />
        <path
           d="m 25.230777,180.85882 c -0.736269,0 -0.883523,-0.93261 -0.883523,-2.11064 v -6.57734 c 0,-2.8469 -0.147254,-4.41761 1.81613,-6.87184 v 12.71291 c 0,0.83444 0.147254,2.84691 -0.932607,2.84691 z m 0.932607,2.15972 h 4.712122 v -0.29451 c -1.128946,-0.53993 -0.981692,-1.12894 -0.981692,-2.65057 v -19.78109 c 0,-1.71796 0.343592,-5.89015 -2.257892,-7.60811 -1.374369,-0.88353 -3.337753,-0.78536 -4.515783,-0.0982 -2.797822,1.57071 -2.45423,5.1048 -2.45423,6.87184 l 3.975853,1.42346 c -0.736269,-3.23959 -0.589016,-4.22128 -0.490846,-4.76121 0.196338,-0.6381 0.490846,-1.42345 1.17803,-1.47254 0.883523,-0.0491 0.834438,0.78536 0.834438,1.76705 0,0.68718 0,1.37437 0,1.96338 0.04908,2.5524 -0.09817,3.28867 -1.030776,4.22128 -4.417614,4.61395 -4.515783,4.46669 -4.515783,10.35685 v 7.26452 c 0,2.35606 1.767045,3.14141 2.306976,3.14141 2.208807,0 2.748737,-1.57071 3.239583,-2.60148 z"
           style="font-family:OPTIEngeEtienne;-inkscape-font-specification:'OPTIEngeEtienne, Normal';fill:#680000;fill-opacity:1;stroke:#ffffff;stroke-width:5;stroke-linecap:round;stroke-linejoin:round;stroke-miterlimit:4;stroke-dasharray:none;paint-order:stroke markers fill"
           id="path11642" />
        <path
           d="M 37.354603,180.07346 V 156.3656 c 0,-0.68718 0.490846,-1.71796 1.178031,-1.66887 0.883523,0.0491 0.53993,7.55902 -0.196339,10.06234 l 4.123107,-2.25789 c 0.343592,-2.30698 0.294507,-5.35022 0.147253,-7.11727 -0.147253,-2.65057 -0.736268,-3.28867 -2.159722,-3.38684 -1.079861,-0.0491 -2.45423,1.42346 -3.09233,2.65057 v -2.30697 h -4.761206 v 0.2945 c 1.178031,0.58902 1.030777,1.12895 1.030777,2.65057 v 24.78772 c 0,1.57071 0.147254,2.06156 -1.030777,2.65057 v 0.29451 h 5.742898 v -0.29451 c -1.17803,-0.53993 -0.981692,-1.12894 -0.981692,-2.65057 z"
           style="font-family:OPTIEngeEtienne;-inkscape-font-specification:'OPTIEngeEtienne, Normal';fill:#680000;fill-opacity:1;stroke:#ffffff;stroke-width:5;stroke-linecap:round;stroke-linejoin:round;stroke-miterlimit:4;stroke-dasharray:none;paint-order:stroke markers fill"
           id="path11644" />
        <path
           d="m 49.331155,141.88565 -3.730429,1.61979 v 8.83523 h -1.2762 v 2.65056 h 1.2762 v 22.13716 c 0,1.5707 -0.196338,4.36853 1.227115,5.54656 0.981692,0.83444 2.208807,0.73627 3.975852,0.34359 v -2.89599 c -1.030776,0 -1.472538,-0.29451 -1.472538,-2.50332 v -22.628 h 1.472538 v -2.65056 h -1.472538 z"
           style="font-family:OPTIEngeEtienne;-inkscape-font-specification:'OPTIEngeEtienne, Normal';fill:#680000;fill-opacity:1;stroke:#ffffff;stroke-width:5;stroke-linecap:round;stroke-linejoin:round;stroke-miterlimit:4;stroke-dasharray:none;paint-order:stroke markers fill"
           id="path11646" />
        <path
           d="m 51.834421,152.34067 v 0.2945 c 0.736269,0.19634 1.128946,0.53993 1.227115,2.5524 l 3.09233,31.26689 c 0.147253,1.9143 -0.196339,2.79782 -0.834438,2.65057 -0.294508,-0.0982 -0.392677,-0.19634 -0.589016,-0.68718 -0.147253,-0.53994 -0.09817,-1.22712 -0.04908,-1.71797 0.04908,-0.58901 0.147254,-1.47253 0.294507,-2.35606 l -2.945076,1.32529 c 0.04908,2.01247 -0.04908,3.8286 1.619792,4.81029 1.079861,0.68718 2.257892,0.39268 2.797822,0.0982 2.257892,-1.07986 2.356061,-4.4667 2.503315,-6.57734 l 2.306976,-28.95991 c 0.09817,-1.12895 0.196338,-2.20881 0.883523,-2.40515 v -0.2945 h -4.074022 l 0.04908,0.2945 c 0.834438,0.3436 0.638099,1.32529 0.589015,2.65057 l -0.736269,16.98327 h -0.147254 l -1.128946,-16.78693 c -0.09817,-1.71796 -0.392677,-2.5524 0.589015,-2.84691 v -0.2945 z"
           style="font-family:OPTIEngeEtienne;-inkscape-font-specification:'OPTIEngeEtienne, Normal';fill:#680000;fill-opacity:1;stroke:#ffffff;stroke-width:5;stroke-linecap:round;stroke-linejoin:round;stroke-miterlimit:4;stroke-dasharray:none;paint-order:stroke markers fill"
           id="path11648" />
        <path
           d="m 76.867483,158.86892 v -14.23454 c 1.963384,0 2.208807,1.07986 2.208807,2.20881 v 10.01326 c 0,1.17803 -0.196338,2.01247 -2.208807,2.01247 z m 0,21.3518 v -18.45581 c 1.668877,0 2.208807,0.44176 2.208807,2.35606 v 13.15467 c 0,0.78535 0.196339,2.94508 -2.208807,2.94508 z m -5.252052,2.79782 h 7.460859 c 4.172191,0 4.172191,-3.8286 4.172191,-6.67551 v -10.30776 c 0,-2.30698 0.294508,-5.1048 -2.159722,-5.79198 2.45423,-0.6381 2.159722,-3.8286 2.159722,-5.20297 v -6.82276 c 0,-2.60148 0.196339,-6.381 -4.712121,-6.381 h -6.920929 v 0.29451 c 1.178031,0.58901 1.030777,1.07986 1.030777,2.65057 v 35.29182 c 0,1.57071 0.147254,2.06156 -1.030777,2.65057 z"
           style="font-family:OPTIEngeEtienne;-inkscape-font-specification:'OPTIEngeEtienne, Normal';fill:#680000;fill-opacity:1;stroke:#ffffff;stroke-width:5;stroke-linecap:round;stroke-linejoin:round;stroke-miterlimit:4;stroke-dasharray:none;paint-order:stroke markers fill"
           id="path11650" />
        <path
           d="m 90.807447,180.85882 c -0.736269,0 -0.883523,-0.93261 -0.883523,-2.11064 v -6.57734 c 0,-2.8469 -0.147254,-4.41761 1.81613,-6.87184 v 12.71291 c 0,0.83444 0.147254,2.84691 -0.932607,2.84691 z m 0.932607,2.15972 h 4.712121 v -0.29451 c -1.128945,-0.53993 -0.981692,-1.12894 -0.981692,-2.65057 v -19.78109 c 0,-1.71796 0.343593,-5.89015 -2.257891,-7.60811 -1.374369,-0.88353 -3.337753,-0.78536 -4.515783,-0.0982 -2.797822,1.57071 -2.45423,5.1048 -2.45423,6.87184 l 3.975852,1.42346 c -0.736269,-3.23959 -0.589015,-4.22128 -0.490846,-4.76121 0.196339,-0.6381 0.490846,-1.42345 1.178031,-1.47254 0.883522,-0.0491 0.834438,0.78536 0.834438,1.76705 0,0.68718 0,1.37437 0,1.96338 0.04908,2.5524 -0.09817,3.28867 -1.030777,4.22128 -4.417614,4.61395 -4.515783,4.46669 -4.515783,10.35685 v 7.26452 c 0,2.35606 1.767046,3.14141 2.306976,3.14141 2.208807,0 2.748738,-1.57071 3.239584,-2.60148 z"
           style="font-family:OPTIEngeEtienne;-inkscape-font-specification:'OPTIEngeEtienne, Normal';fill:#680000;fill-opacity:1;stroke:#ffffff;stroke-width:5;stroke-linecap:round;stroke-linejoin:round;stroke-miterlimit:4;stroke-dasharray:none;paint-order:stroke markers fill"
           id="path11652" />
        <path
           d="m 107.74157,161.02864 c 0.14725,-2.5524 0.44176,-6.13558 -1.76705,-8.09896 -1.03078,-0.98169 -2.94508,-1.07986 -4.12311,-0.73627 -1.71796,0.49085 -2.60148,1.96339 -2.994157,3.48501 -0.294507,1.17803 -0.09817,5.7429 0.04909,6.381 0.6381,2.50331 1.276207,2.40514 4.221277,6.38099 0.58902,0.73627 1.07986,2.01247 1.32529,3.58318 0.63809,3.53409 0.39266,8.44255 -0.53993,8.78614 -0.44176,0.14726 -0.88353,-0.14725 -1.03079,-1.03077 -0.29451,-1.6198 -0.34359,-2.2579 -0.39268,-4.51579 -0.0491,-2.25789 0.29452,-4.66303 0.44178,-5.79198 l -3.877693,1.61979 -0.09817,2.45423 c -0.04908,1.57071 -0.392677,7.26452 2.110633,9.03157 1.2762,0.93261 3.04325,0.88352 4.22128,0.39267 1.86521,-0.78535 2.45423,-2.2088 2.74873,-3.87768 0.39268,-2.20881 0.0982,-6.92093 -0.0491,-8.09896 -0.39268,-2.50331 -0.6381,-2.69965 -4.56487,-7.9517 -0.98169,-1.32529 -1.07986,-2.89599 -1.17803,-4.27036 0,-0.88353 -0.0982,-1.17803 -0.0491,-2.11064 0,-0.58902 -0.0491,-1.96338 0.73627,-2.06155 0.39267,-0.0491 0.68718,0.0982 0.9326,0.68718 0.14726,0.44176 0.39268,2.45423 0.39268,3.1905 0.0982,2.01247 0.0491,2.60148 -0.0982,4.41761 z"
           style="font-family:OPTIEngeEtienne;-inkscape-font-specification:'OPTIEngeEtienne, Normal';fill:#680000;fill-opacity:1;stroke:#ffffff;stroke-width:5;stroke-linecap:round;stroke-linejoin:round;stroke-miterlimit:4;stroke-dasharray:none;paint-order:stroke markers fill"
           id="path11654" />
        <path
           d="m 119.91452,167.55689 v -8.5898 c 0,-2.69966 0.24542,-5.1048 -2.11064,-6.381 -1.22711,-0.68719 -3.485,-0.78536 -4.71212,-0.0491 -2.74874,1.6198 -2.50331,4.66304 -2.50331,6.03741 v 17.08144 c 0,2.01247 -0.29451,5.54656 2.35606,7.06818 1.2762,0.73627 3.1905,0.78536 4.4667,0.0491 2.8469,-1.57071 2.50331,-5.64473 2.50331,-8.88432 v -1.66887 l -3.97585,-1.52162 c 0.14725,0.78535 0.24542,4.56486 0.24542,5.25205 0,0.0982 0,3.04324 0,3.04324 0.0491,0.98169 -0.19634,2.06156 -0.88352,2.06156 -0.98169,0 -0.98169,-1.07987 -0.98169,-2.15973 v -11.33854 z m -5.59564,-11.53488 c 0,-1.03078 0.2945,-1.66888 1.03077,-1.66888 0.58902,0 0.83444,0.68719 0.83444,1.22712 v 9.62058 h -1.86521 z"
           style="font-family:OPTIEngeEtienne;-inkscape-font-specification:'OPTIEngeEtienne, Normal';fill:#680000;fill-opacity:1;stroke:#ffffff;stroke-width:5;stroke-linecap:round;stroke-linejoin:round;stroke-miterlimit:4;stroke-dasharray:none;paint-order:stroke markers fill"
           id="path11656" />
        <path
           d="m 126.49177,156.90553 c 0,-0.83444 0.0982,-2.01247 0.98169,-2.01247 1.07986,0 0.88352,2.06156 0.88352,2.896 v 20.56644 c 0,0.88353 -0.14725,2.11064 -1.07986,2.11064 -0.73627,0 -0.83444,-0.73627 -0.78535,-1.96338 z m 5.44839,-15.06897 h -4.56487 v 0.29451 c 1.17803,0.58901 0.98169,1.07986 0.98169,2.65057 v 9.91509 c -0.49085,-1.22712 -0.98169,-2.69966 -2.89599,-2.69966 -1.86522,0 -2.69965,2.20881 -2.69965,4.31945 v 21.15546 c 0,3.43592 0,5.89015 2.69965,5.89015 1.61979,0 2.30698,-1.61979 2.79782,-2.5524 v 2.20881 h 4.66304 v -0.29451 c -1.12895,-0.53993 -0.98169,-1.12894 -0.98169,-2.65057 z"
           style="font-family:OPTIEngeEtienne;-inkscape-font-specification:'OPTIEngeEtienne, Normal';fill:#680000;fill-opacity:1;stroke:#ffffff;stroke-width:5;stroke-linecap:round;stroke-linejoin:round;stroke-miterlimit:4;stroke-dasharray:none;paint-order:stroke markers fill"
           id="path11658" />
        <path
           d="m 147.89265,159.01617 v -14.38179 c 1.91429,0 2.15972,0 2.15972,2.01247 v 10.45502 c 0,1.52162 -0.53993,1.9143 -2.15972,1.9143 z m 4.17219,24.00237 h 3.1905 v -0.29451 c -1.17804,-0.53993 -1.03078,-1.12894 -1.03078,-2.65057 v -12.95833 c 0,-2.69965 0.34359,-6.08649 -2.65057,-6.52825 2.94508,-0.83444 2.69965,-3.1905 2.69965,-5.69382 v -8.63888 c 0,-1.52163 -0.6381,-4.41762 -4.41761,-4.41762 h -7.21544 v 0.29451 c 1.17803,0.58901 1.03078,1.07986 1.03078,2.65057 v 35.29182 c 0,1.57071 0.14725,2.06156 -1.03078,2.65057 v 0.29451 h 3.09233 3.14142 v -0.29451 c -1.12895,-0.53993 -0.98169,-1.12894 -0.98169,-2.65057 V 161.4704 c 1.66887,0 2.11063,0.44176 2.11063,2.94508 v 14.77446 c 0,1.86522 0,3.14142 0.83444,3.8286 h 3.68135 z"
           style="font-family:OPTIEngeEtienne;-inkscape-font-specification:'OPTIEngeEtienne, Normal';fill:#680000;fill-opacity:1;stroke:#ffffff;stroke-width:5;stroke-linecap:round;stroke-linejoin:round;stroke-miterlimit:4;stroke-dasharray:none;paint-order:stroke markers fill"
           id="path11660" />
        <path
           d="m 163.1579,159.16342 v -14.52904 c 1.81613,0 2.15973,0.24543 2.15973,2.45423 v 10.06235 c 0,1.22711 -0.0982,2.01246 -2.15973,2.01246 z m 6.18466,-12.76199 c 0,-1.2762 -0.49084,-4.56487 -4.81029,-4.56487 h -6.62642 v 0.29451 c 1.17803,0.58901 1.03078,1.07986 1.03078,2.65057 v 35.29182 c 0,1.57071 0.14725,2.06156 -1.03078,2.65057 v 0.29451 h 3.09233 3.14142 v -0.29451 c -1.12895,-0.53993 -0.9817,-1.12894 -0.9817,-2.65057 v -17.91587 c 5.25206,0 6.18466,-1.66888 6.18466,-6.13558 z"
           style="font-family:OPTIEngeEtienne;-inkscape-font-specification:'OPTIEngeEtienne, Normal';fill:#680000;fill-opacity:1;stroke:#ffffff;stroke-width:5;stroke-linecap:round;stroke-linejoin:round;stroke-miterlimit:4;stroke-dasharray:none;paint-order:stroke markers fill"
           id="path11662" />
        <path
           d="m 176.45981,178.06099 v -22.87342 -9.17882 c 0,-0.93261 -0.19634,-2.01247 0.98169,-2.01247 1.22711,0 1.12894,1.47254 1.12894,2.06156 0,0.68718 0,3.1905 0,4.95754 0,3.28867 0.0491,4.02494 -0.6381,4.95755 l 4.36853,-1.9143 c 0.58902,-0.73627 0.49085,-4.22128 0.49085,-6.77368 -0.0491,-5.89015 -4.76121,-5.79198 -5.20297,-5.79198 -0.19634,0 -5.35022,-0.0982 -5.35022,5.59564 v 8.09896 c 0,0.0982 0,21.10638 0,21.10638 0,3.04324 -0.19634,5.54656 3.04325,6.82276 2.11063,0.83444 4.1231,0 5.49747,-1.76705 0.24542,0.49085 0.78535,1.32529 1.22712,1.76705 l 1.22711,-0.53993 c -0.58901,-0.6381 -0.49085,-2.45423 -0.49085,-3.1905 V 165.299 c 0,-1.17803 -0.0982,-2.40515 1.12895,-2.74874 v -0.68718 h -6.43008 v 0.53993 c 1.2762,0.39267 1.22711,0.93261 1.22711,2.74874 v 12.81108 c 0,1.5707 0,2.60148 -1.07986,2.60148 -1.12894,0 -1.12894,-1.22712 -1.12894,-2.50332 z"
           style="font-family:OPTIEngeEtienne;-inkscape-font-specification:'OPTIEngeEtienne, Normal';fill:#680000;fill-opacity:1;stroke:#ffffff;stroke-width:5;stroke-linecap:round;stroke-linejoin:round;stroke-miterlimit:4;stroke-dasharray:none;paint-order:stroke markers fill"
           id="path11664" />
      </g>
    </g>
    <g
       id="g11818"
       style="fill:#680000;fill-opacity:1">
      <g
         aria-label="First Person"
         transform="scale(1.106581,0.90368442)"
         id="g11788"
         style="font-size:49.0846px;line-height:1.25;font-family:'Rose Of Baltimore';-inkscape-font-specification:'Rose Of Baltimore';fill:#680000;fill-opacity:1;stroke-width:0.511298">
        <path
           d="m 34.75324,135.70364 v -18.25947 c 2.306976,1.12894 2.601484,5.15388 2.699653,7.50994 H 38.3855 v -17.32686 h -0.834438 c -0.04909,2.45423 -0.490846,6.08649 -2.797822,6.97001 V 99.970049 c 4.417614,0 4.712121,5.890151 5.350221,10.896781 h 0.834438 V 97.466734 H 29.550272 v 0.294508 c 1.128946,0.589015 0.981692,1.079861 0.981692,2.650568 v 35.29183 c 0,1.5707 0.147254,2.06155 -0.981692,2.65056 v 0.29451 h 6.233744 v -0.29451 c -1.17803,-0.53993 -1.030776,-1.12894 -1.030776,-2.65056 z"
           style="font-family:OPTIEngeEtienne;-inkscape-font-specification:'OPTIEngeEtienne, Normal';fill:#680000;fill-opacity:1"
           id="path11766" />
        <path
           d="m 43.097498,99.430118 v 5.055712 h 3.730429 v -5.055712 z m 3.730429,8.540722 h -4.761206 v 0.29451 c 1.178031,0.58901 1.030777,1.12894 1.030777,2.65056 v 24.78773 c 0,1.5707 0.147254,2.06155 -1.030777,2.65056 v 0.29451 h 5.742898 v -0.29451 c -1.17803,-0.53993 -0.981692,-1.12894 -0.981692,-2.65056 z"
           style="font-family:OPTIEngeEtienne;-inkscape-font-specification:'OPTIEngeEtienne, Normal';fill:#680000;fill-opacity:1"
           id="path11768" />
        <path
           d="m 54.337838,135.70364 v -23.70786 c 0,-0.68719 0.490846,-1.71797 1.17803,-1.66888 0.883523,0.0491 0.539931,7.55903 -0.196338,10.06234 l 4.123106,-2.25789 c 0.343592,-2.30698 0.294508,-5.35022 0.147254,-7.11727 -0.147254,-2.65057 -0.736269,-3.28866 -2.159722,-3.38683 -1.079862,-0.0491 -2.45423,1.42345 -3.09233,2.65056 v -2.30697 h -4.761206 v 0.29451 c 1.17803,0.58901 1.030776,1.12894 1.030776,2.65056 v 24.78773 c 0,1.5707 0.147254,2.06155 -1.030776,2.65056 v 0.29451 h 5.742898 v -0.29451 c -1.178031,-0.53993 -0.981692,-1.12894 -0.981692,-2.65056 z"
           style="font-family:OPTIEngeEtienne;-inkscape-font-specification:'OPTIEngeEtienne, Normal';fill:#680000;fill-opacity:1"
           id="path11770" />
        <path
           d="m 71.075594,116.65881 c 0.147254,-2.5524 0.441761,-6.13557 -1.767046,-8.09896 -1.030776,-0.98169 -2.945076,-1.07986 -4.123106,-0.73627 -1.717961,0.49085 -2.601484,1.96339 -2.99416,3.48501 -0.294508,1.17803 -0.09817,5.7429 0.04908,6.381 0.6381,2.50331 1.2762,2.40514 4.221276,6.381 0.589015,0.73627 1.079861,2.01246 1.325284,3.58317 0.6381,3.53409 0.392677,8.44255 -0.539931,8.78615 -0.441761,0.14725 -0.883523,-0.14726 -1.030776,-1.03078 -0.294508,-1.61979 -0.343593,-2.25789 -0.392677,-4.51578 -0.04909,-2.2579 0.294507,-4.66304 0.441761,-5.79199 l -3.877683,1.61979 -0.09817,2.45423 c -0.04908,1.57071 -0.392677,7.26453 2.110638,9.03157 1.276199,0.93261 3.043245,0.88352 4.221275,0.39268 1.865215,-0.78536 2.45423,-2.20881 2.748738,-3.87769 0.392676,-2.2088 0.09817,-6.92092 -0.04909,-8.09895 -0.392677,-2.50332 -0.6381,-2.69966 -4.564868,-7.95171 -0.981692,-1.32528 -1.079861,-2.89599 -1.17803,-4.27036 0,-0.88352 -0.09817,-1.17803 -0.04909,-2.11064 0,-0.58901 -0.04908,-1.96338 0.736269,-2.06155 0.392677,-0.0491 0.687185,0.0982 0.932608,0.68718 0.147253,0.44177 0.392676,2.45423 0.392676,3.1905 0.09817,2.01247 0.04909,2.60149 -0.09817,4.41762 z"
           style="font-family:OPTIEngeEtienne;-inkscape-font-specification:'OPTIEngeEtienne, Normal';fill:#680000;fill-opacity:1"
           id="path11772" />
        <path
           d="m 78.291004,97.515819 -3.73043,1.619791 v 8.83523 h -1.276199 v 2.65057 h 1.276199 v 22.13715 c 0,1.57071 -0.196338,4.36853 1.227115,5.54656 0.981692,0.83444 2.208807,0.73627 3.975853,0.34359 v -2.89599 c -1.030777,0 -1.472538,-0.29451 -1.472538,-2.50331 v -22.628 h 1.472538 v -2.65057 h -1.472538 z"
           style="font-family:OPTIEngeEtienne;-inkscape-font-specification:'OPTIEngeEtienne, Normal';fill:#680000;fill-opacity:1"
           id="path11774" />
        <path
           d="m 94.439785,114.7936 v -14.52904 c 1.81613,0 2.159723,0.24542 2.159723,2.45423 v 10.06234 c 0,1.22711 -0.09817,2.01247 -2.159723,2.01247 z m 6.184655,-12.762 c 0,-1.2762 -0.49084,-4.564866 -4.810286,-4.564866 h -6.626421 v 0.294508 c 1.178031,0.589015 1.030777,1.079861 1.030777,2.650568 v 35.29183 c 0,1.5707 0.147254,2.06155 -1.030777,2.65056 v 0.29451 h 3.09233 3.141414 v -0.29451 c -1.128945,-0.53993 -0.981692,-1.12894 -0.981692,-2.65056 v -17.91588 c 5.252052,0 6.184655,-1.66888 6.184655,-6.13558 z"
           style="font-family:OPTIEngeEtienne;-inkscape-font-specification:'OPTIEngeEtienne, Normal';fill:#680000;fill-opacity:1"
           id="path11776" />
        <path
           d="m 112.20838,123.18706 v -8.5898 c 0,-2.69965 0.24542,-5.1048 -2.11064,-6.381 -1.22712,-0.68718 -3.48501,-0.78535 -4.71212,-0.0491 -2.74874,1.61979 -2.50332,4.66303 -2.50332,6.0374 V 131.286 c 0,2.01247 -0.29451,5.54656 2.35606,7.06818 1.2762,0.73627 3.1905,0.78536 4.4667,0.0491 2.84691,-1.57071 2.50332,-5.64473 2.50332,-8.88431 v -1.66888 l -3.97586,-1.52162 c 0.14726,0.78535 0.24543,4.56487 0.24543,5.25205 0,0.0982 0,3.04325 0,3.04325 0.0491,0.98169 -0.19634,2.06155 -0.88353,2.06155 -0.98169,0 -0.98169,-1.07986 -0.98169,-2.15972 v -11.33855 z m -5.59565,-11.53488 c 0,-1.03077 0.29451,-1.66887 1.03078,-1.66887 0.58901,0 0.83444,0.68718 0.83444,1.22711 v 9.62058 h -1.86522 z"
           style="font-family:OPTIEngeEtienne;-inkscape-font-specification:'OPTIEngeEtienne, Normal';fill:#680000;fill-opacity:1"
           id="path11778" />
        <path
           d="m 119.12921,135.70364 v -23.70786 c 0,-0.68719 0.49085,-1.71797 1.17803,-1.66888 0.88353,0.0491 0.53993,7.55903 -0.19633,10.06234 l 4.1231,-2.25789 c 0.34359,-2.30698 0.29451,-5.35022 0.14726,-7.11727 -0.14726,-2.65057 -0.73627,-3.28866 -2.15973,-3.38683 -1.07986,-0.0491 -2.45423,1.42345 -3.09233,2.65056 v -2.30697 h -4.7612 v 0.29451 c 1.17803,0.58901 1.03077,1.12894 1.03077,2.65056 v 24.78773 c 0,1.5707 0.14726,2.06155 -1.03077,2.65056 v 0.29451 h 5.7429 v -0.29451 c -1.17803,-0.53993 -0.9817,-1.12894 -0.9817,-2.65056 z"
           style="font-family:OPTIEngeEtienne;-inkscape-font-specification:'OPTIEngeEtienne, Normal';fill:#680000;fill-opacity:1"
           id="path11780" />
        <path
           d="m 135.86697,116.65881 c 0.14726,-2.5524 0.44176,-6.13557 -1.76704,-8.09896 -1.03078,-0.98169 -2.94508,-1.07986 -4.12311,-0.73627 -1.71796,0.49085 -2.60148,1.96339 -2.99416,3.48501 -0.29451,1.17803 -0.0982,5.7429 0.0491,6.381 0.6381,2.50331 1.2762,2.40514 4.22128,6.381 0.58901,0.73627 1.07986,2.01246 1.32528,3.58317 0.6381,3.53409 0.39268,8.44255 -0.53993,8.78615 -0.44176,0.14725 -0.88352,-0.14726 -1.03077,-1.03078 -0.29451,-1.61979 -0.3436,-2.25789 -0.39268,-4.51578 -0.0491,-2.2579 0.29451,-4.66304 0.44176,-5.79199 l -3.87768,1.61979 -0.0982,2.45423 c -0.0491,1.57071 -0.39268,7.26453 2.11064,9.03157 1.2762,0.93261 3.04324,0.88352 4.22127,0.39268 1.86522,-0.78536 2.45423,-2.20881 2.74874,-3.87769 0.39268,-2.2088 0.0982,-6.92092 -0.0491,-8.09895 -0.39267,-2.50332 -0.63809,-2.69966 -4.56486,-7.95171 -0.98169,-1.32528 -1.07986,-2.89599 -1.17803,-4.27036 0,-0.88352 -0.0982,-1.17803 -0.0491,-2.11064 0,-0.58901 -0.0491,-1.96338 0.73627,-2.06155 0.39268,-0.0491 0.68719,0.0982 0.93261,0.68718 0.14725,0.44177 0.39268,2.45423 0.39268,3.1905 0.0982,2.01247 0.0491,2.60149 -0.0982,4.41762 z"
           style="font-family:OPTIEngeEtienne;-inkscape-font-specification:'OPTIEngeEtienne, Normal';fill:#680000;fill-opacity:1"
           id="path11782" />
        <path
           d="m 148.03993,133.00398 v -19.38841 c 0,-4.85938 -2.74874,-5.98832 -4.66304,-5.98832 -1.81613,0 -4.66304,1.17803 -4.66304,5.98832 v 19.38841 c 0,4.81029 2.84691,5.98832 4.66304,5.98832 1.9143,0 4.66304,-1.12894 4.66304,-5.98832 z m -5.69382,2.79783 c 0,-0.53994 0,-24.44413 0,-24.98407 0,-0.49084 0.39268,-0.9326 0.93261,-0.9326 0.58902,0 1.03078,0.44176 1.03078,0.9326 0,0.49085 0,24.49322 0,24.98407 0,0.49084 -0.44176,0.9326 -1.03078,0.9326 -0.53993,0 -0.93261,-0.44176 -0.93261,-0.9326 z"
           style="font-family:OPTIEngeEtienne;-inkscape-font-specification:'OPTIEngeEtienne, Normal';fill:#680000;fill-opacity:1"
           id="path11784" />
        <path
           d="m 154.81356,107.97084 h -4.76121 v 0.29451 c 1.17803,0.58901 1.03078,1.12894 1.03078,2.65056 v 24.78773 c 0,1.5707 0.14725,2.06155 -1.03078,2.65056 v 0.29451 h 5.44839 v -0.29451 c -0.88352,-0.44176 -0.68718,-1.07986 -0.68718,-2.60148 v -22.52983 c 0,-1.37437 0.24542,-2.79782 1.07986,-2.84691 0.6381,-0.0491 0.68718,0.73627 0.68718,1.81613 v 23.51153 c 0,1.5707 0.0982,2.15972 -0.73627,2.65056 v 0.29451 h 5.4484 v -0.29451 c -1.17804,-0.53993 -0.9817,-1.12894 -0.9817,-2.65056 v -23.75695 c 0,-1.57071 0.24543,-4.22127 -2.06155,-4.31944 -1.52162,-0.0491 -2.84691,1.52162 -3.43592,2.35606 z"
           style="font-family:OPTIEngeEtienne;-inkscape-font-specification:'OPTIEngeEtienne, Normal';fill:#680000;fill-opacity:1"
           id="path11786" />
      </g>
      <g
         aria-label="Party Based RPG"
         transform="scale(1.106581,0.90368445)"
         id="g11816"
         style="font-size:49.0846px;line-height:1.25;font-family:'Rose Of Baltimore';-inkscape-font-specification:'Rose Of Baltimore';fill:#680000;fill-opacity:1;stroke-width:0.511298">
        <path
           d="m 12.223471,159.16342 v -14.52904 c 1.81613,0 2.159722,0.24543 2.159722,2.45423 v 10.06235 c 0,1.22711 -0.09817,2.01246 -2.159722,2.01246 z m 6.184659,-12.76199 c 0,-1.2762 -0.490846,-4.56487 -4.81029,-4.56487 H 6.971419 v 0.29451 c 1.1780304,0.58901 1.0307766,1.07986 1.0307766,2.65057 v 35.29182 c 0,1.57071 0.1472538,2.06156 -1.0307766,2.65057 v 0.29451 h 3.09233 3.141414 v -0.29451 c -1.128946,-0.53993 -0.981692,-1.12894 -0.981692,-2.65057 v -17.91587 c 5.252052,0 6.184659,-1.66888 6.184659,-6.13558 z"
           style="font-family:OPTIEngeEtienne;-inkscape-font-specification:'OPTIEngeEtienne, Normal';fill:#680000;fill-opacity:1"
           id="path11790" />
        <path
           d="m 25.230777,180.85882 c -0.736269,0 -0.883523,-0.93261 -0.883523,-2.11064 v -6.57734 c 0,-2.8469 -0.147254,-4.41761 1.81613,-6.87184 v 12.71291 c 0,0.83444 0.147254,2.84691 -0.932607,2.84691 z m 0.932607,2.15972 h 4.712122 v -0.29451 c -1.128946,-0.53993 -0.981692,-1.12894 -0.981692,-2.65057 v -19.78109 c 0,-1.71796 0.343592,-5.89015 -2.257892,-7.60811 -1.374369,-0.88353 -3.337753,-0.78536 -4.515783,-0.0982 -2.797822,1.57071 -2.45423,5.1048 -2.45423,6.87184 l 3.975853,1.42346 c -0.736269,-3.23959 -0.589016,-4.22128 -0.490846,-4.76121 0.196338,-0.6381 0.490846,-1.42345 1.17803,-1.47254 0.883523,-0.0491 0.834438,0.78536 0.834438,1.76705 0,0.68718 0,1.37437 0,1.96338 0.04908,2.5524 -0.09817,3.28867 -1.030776,4.22128 -4.417614,4.61395 -4.515783,4.46669 -4.515783,10.35685 v 7.26452 c 0,2.35606 1.767045,3.14141 2.306976,3.14141 2.208807,0 2.748737,-1.57071 3.239583,-2.60148 z"
           style="font-family:OPTIEngeEtienne;-inkscape-font-specification:'OPTIEngeEtienne, Normal';fill:#680000;fill-opacity:1"
           id="path11792" />
        <path
           d="M 37.354603,180.07346 V 156.3656 c 0,-0.68718 0.490846,-1.71796 1.178031,-1.66887 0.883523,0.0491 0.53993,7.55902 -0.196339,10.06234 l 4.123107,-2.25789 c 0.343592,-2.30698 0.294507,-5.35022 0.147253,-7.11727 -0.147253,-2.65057 -0.736268,-3.28867 -2.159722,-3.38684 -1.079861,-0.0491 -2.45423,1.42346 -3.09233,2.65057 v -2.30697 h -4.761206 v 0.2945 c 1.178031,0.58902 1.030777,1.12895 1.030777,2.65057 v 24.78772 c 0,1.57071 0.147254,2.06156 -1.030777,2.65057 v 0.29451 h 5.742898 v -0.29451 c -1.17803,-0.53993 -0.981692,-1.12894 -0.981692,-2.65057 z"
           style="font-family:OPTIEngeEtienne;-inkscape-font-specification:'OPTIEngeEtienne, Normal';fill:#680000;fill-opacity:1"
           id="path11794" />
        <path
           d="m 49.331155,141.88565 -3.730429,1.61979 v 8.83523 h -1.2762 v 2.65056 h 1.2762 v 22.13716 c 0,1.5707 -0.196338,4.36853 1.227115,5.54656 0.981692,0.83444 2.208807,0.73627 3.975852,0.34359 v -2.89599 c -1.030776,0 -1.472538,-0.29451 -1.472538,-2.50332 v -22.628 h 1.472538 v -2.65056 h -1.472538 z"
           style="font-family:OPTIEngeEtienne;-inkscape-font-specification:'OPTIEngeEtienne, Normal';fill:#680000;fill-opacity:1"
           id="path11796" />
        <path
           d="m 51.834421,152.34067 v 0.2945 c 0.736269,0.19634 1.128946,0.53993 1.227115,2.5524 l 3.09233,31.26689 c 0.147253,1.9143 -0.196339,2.79782 -0.834438,2.65057 -0.294508,-0.0982 -0.392677,-0.19634 -0.589016,-0.68718 -0.147253,-0.53994 -0.09817,-1.22712 -0.04908,-1.71797 0.04908,-0.58901 0.147254,-1.47253 0.294507,-2.35606 l -2.945076,1.32529 c 0.04908,2.01247 -0.04908,3.8286 1.619792,4.81029 1.079861,0.68718 2.257892,0.39268 2.797822,0.0982 2.257892,-1.07986 2.356061,-4.4667 2.503315,-6.57734 l 2.306976,-28.95991 c 0.09817,-1.12895 0.196338,-2.20881 0.883523,-2.40515 v -0.2945 h -4.074022 l 0.04908,0.2945 c 0.834438,0.3436 0.638099,1.32529 0.589015,2.65057 l -0.736269,16.98327 h -0.147254 l -1.128946,-16.78693 c -0.09817,-1.71796 -0.392677,-2.5524 0.589015,-2.84691 v -0.2945 z"
           style="font-family:OPTIEngeEtienne;-inkscape-font-specification:'OPTIEngeEtienne, Normal';fill:#680000;fill-opacity:1"
           id="path11798" />
        <path
           d="m 76.867483,158.86892 v -14.23454 c 1.963384,0 2.208807,1.07986 2.208807,2.20881 v 10.01326 c 0,1.17803 -0.196338,2.01247 -2.208807,2.01247 z m 0,21.3518 v -18.45581 c 1.668877,0 2.208807,0.44176 2.208807,2.35606 v 13.15467 c 0,0.78535 0.196339,2.94508 -2.208807,2.94508 z m -5.252052,2.79782 h 7.460859 c 4.172191,0 4.172191,-3.8286 4.172191,-6.67551 v -10.30776 c 0,-2.30698 0.294508,-5.1048 -2.159722,-5.79198 2.45423,-0.6381 2.159722,-3.8286 2.159722,-5.20297 v -6.82276 c 0,-2.60148 0.196339,-6.381 -4.712121,-6.381 h -6.920929 v 0.29451 c 1.178031,0.58901 1.030777,1.07986 1.030777,2.65057 v 35.29182 c 0,1.57071 0.147254,2.06156 -1.030777,2.65057 z"
           style="font-family:OPTIEngeEtienne;-inkscape-font-specification:'OPTIEngeEtienne, Normal';fill:#680000;fill-opacity:1"
           id="path11800" />
        <path
           d="m 90.807447,180.85882 c -0.736269,0 -0.883523,-0.93261 -0.883523,-2.11064 v -6.57734 c 0,-2.8469 -0.147254,-4.41761 1.81613,-6.87184 v 12.71291 c 0,0.83444 0.147254,2.84691 -0.932607,2.84691 z m 0.932607,2.15972 h 4.712121 v -0.29451 c -1.128945,-0.53993 -0.981692,-1.12894 -0.981692,-2.65057 v -19.78109 c 0,-1.71796 0.343593,-5.89015 -2.257891,-7.60811 -1.374369,-0.88353 -3.337753,-0.78536 -4.515783,-0.0982 -2.797822,1.57071 -2.45423,5.1048 -2.45423,6.87184 l 3.975852,1.42346 c -0.736269,-3.23959 -0.589015,-4.22128 -0.490846,-4.76121 0.196339,-0.6381 0.490846,-1.42345 1.178031,-1.47254 0.883522,-0.0491 0.834438,0.78536 0.834438,1.76705 0,0.68718 0,1.37437 0,1.96338 0.04908,2.5524 -0.09817,3.28867 -1.030777,4.22128 -4.417614,4.61395 -4.515783,4.46669 -4.515783,10.35685 v 7.26452 c 0,2.35606 1.767046,3.14141 2.306976,3.14141 2.208807,0 2.748738,-1.57071 3.239584,-2.60148 z"
           style="font-family:OPTIEngeEtienne;-inkscape-font-specification:'OPTIEngeEtienne, Normal';fill:#680000;fill-opacity:1"
           id="path11802" />
        <path
           d="m 107.74157,161.02864 c 0.14725,-2.5524 0.44176,-6.13558 -1.76705,-8.09896 -1.03078,-0.98169 -2.94508,-1.07986 -4.12311,-0.73627 -1.71796,0.49085 -2.60148,1.96339 -2.994157,3.48501 -0.294507,1.17803 -0.09817,5.7429 0.04909,6.381 0.6381,2.50331 1.276207,2.40514 4.221277,6.38099 0.58902,0.73627 1.07986,2.01247 1.32529,3.58318 0.63809,3.53409 0.39266,8.44255 -0.53993,8.78614 -0.44176,0.14726 -0.88353,-0.14725 -1.03079,-1.03077 -0.29451,-1.6198 -0.34359,-2.2579 -0.39268,-4.51579 -0.0491,-2.25789 0.29452,-4.66303 0.44178,-5.79198 l -3.877693,1.61979 -0.09817,2.45423 c -0.04908,1.57071 -0.392677,7.26452 2.110633,9.03157 1.2762,0.93261 3.04325,0.88352 4.22128,0.39267 1.86521,-0.78535 2.45423,-2.2088 2.74873,-3.87768 0.39268,-2.20881 0.0982,-6.92093 -0.0491,-8.09896 -0.39268,-2.50331 -0.6381,-2.69965 -4.56487,-7.9517 -0.98169,-1.32529 -1.07986,-2.89599 -1.17803,-4.27036 0,-0.88353 -0.0982,-1.17803 -0.0491,-2.11064 0,-0.58902 -0.0491,-1.96338 0.73627,-2.06155 0.39267,-0.0491 0.68718,0.0982 0.9326,0.68718 0.14726,0.44176 0.39268,2.45423 0.39268,3.1905 0.0982,2.01247 0.0491,2.60148 -0.0982,4.41761 z"
           style="font-family:OPTIEngeEtienne;-inkscape-font-specification:'OPTIEngeEtienne, Normal';fill:#680000;fill-opacity:1"
           id="path11804" />
        <path
           d="m 119.91452,167.55689 v -8.5898 c 0,-2.69966 0.24542,-5.1048 -2.11064,-6.381 -1.22711,-0.68719 -3.485,-0.78536 -4.71212,-0.0491 -2.74874,1.6198 -2.50331,4.66304 -2.50331,6.03741 v 17.08144 c 0,2.01247 -0.29451,5.54656 2.35606,7.06818 1.2762,0.73627 3.1905,0.78536 4.4667,0.0491 2.8469,-1.57071 2.50331,-5.64473 2.50331,-8.88432 v -1.66887 l -3.97585,-1.52162 c 0.14725,0.78535 0.24542,4.56486 0.24542,5.25205 0,0.0982 0,3.04324 0,3.04324 0.0491,0.98169 -0.19634,2.06156 -0.88352,2.06156 -0.98169,0 -0.98169,-1.07987 -0.98169,-2.15973 v -11.33854 z m -5.59564,-11.53488 c 0,-1.03078 0.2945,-1.66888 1.03077,-1.66888 0.58902,0 0.83444,0.68719 0.83444,1.22712 v 9.62058 h -1.86521 z"
           style="font-family:OPTIEngeEtienne;-inkscape-font-specification:'OPTIEngeEtienne, Normal';fill:#680000;fill-opacity:1"
           id="path11806" />
        <path
           d="m 126.49177,156.90553 c 0,-0.83444 0.0982,-2.01247 0.98169,-2.01247 1.07986,0 0.88352,2.06156 0.88352,2.896 v 20.56644 c 0,0.88353 -0.14725,2.11064 -1.07986,2.11064 -0.73627,0 -0.83444,-0.73627 -0.78535,-1.96338 z m 5.44839,-15.06897 h -4.56487 v 0.29451 c 1.17803,0.58901 0.98169,1.07986 0.98169,2.65057 v 9.91509 c -0.49085,-1.22712 -0.98169,-2.69966 -2.89599,-2.69966 -1.86522,0 -2.69965,2.20881 -2.69965,4.31945 v 21.15546 c 0,3.43592 0,5.89015 2.69965,5.89015 1.61979,0 2.30698,-1.61979 2.79782,-2.5524 v 2.20881 h 4.66304 v -0.29451 c -1.12895,-0.53993 -0.98169,-1.12894 -0.98169,-2.65057 z"
           style="font-family:OPTIEngeEtienne;-inkscape-font-specification:'OPTIEngeEtienne, Normal';fill:#680000;fill-opacity:1"
           id="path11808" />
        <path
           d="m 147.89265,159.01617 v -14.38179 c 1.91429,0 2.15972,0 2.15972,2.01247 v 10.45502 c 0,1.52162 -0.53993,1.9143 -2.15972,1.9143 z m 4.17219,24.00237 h 3.1905 v -0.29451 c -1.17804,-0.53993 -1.03078,-1.12894 -1.03078,-2.65057 v -12.95833 c 0,-2.69965 0.34359,-6.08649 -2.65057,-6.52825 2.94508,-0.83444 2.69965,-3.1905 2.69965,-5.69382 v -8.63888 c 0,-1.52163 -0.6381,-4.41762 -4.41761,-4.41762 h -7.21544 v 0.29451 c 1.17803,0.58901 1.03078,1.07986 1.03078,2.65057 v 35.29182 c 0,1.57071 0.14725,2.06156 -1.03078,2.65057 v 0.29451 h 3.09233 3.14142 v -0.29451 c -1.12895,-0.53993 -0.98169,-1.12894 -0.98169,-2.65057 V 161.4704 c 1.66887,0 2.11063,0.44176 2.11063,2.94508 v 14.77446 c 0,1.86522 0,3.14142 0.83444,3.8286 h 3.68135 z"
           style="font-family:OPTIEngeEtienne;-inkscape-font-specification:'OPTIEngeEtienne, Normal';fill:#680000;fill-opacity:1"
           id="path11810" />
        <path
           d="m 163.1579,159.16342 v -14.52904 c 1.81613,0 2.15973,0.24543 2.15973,2.45423 v 10.06235 c 0,1.22711 -0.0982,2.01246 -2.15973,2.01246 z m 6.18466,-12.76199 c 0,-1.2762 -0.49084,-4.56487 -4.81029,-4.56487 h -6.62642 v 0.29451 c 1.17803,0.58901 1.03078,1.07986 1.03078,2.65057 v 35.29182 c 0,1.57071 0.14725,2.06156 -1.03078,2.65057 v 0.29451 h 3.09233 3.14142 v -0.29451 c -1.12895,-0.53993 -0.9817,-1.12894 -0.9817,-2.65057 v -17.91587 c 5.25206,0 6.18466,-1.66888 6.18466,-6.13558 z"
           style="font-family:OPTIEngeEtienne;-inkscape-font-specification:'OPTIEngeEtienne, Normal';fill:#680000;fill-opacity:1"
           id="path11812" />
        <path
           d="m 176.45981,178.06099 v -22.87342 -9.17882 c 0,-0.93261 -0.19634,-2.01247 0.98169,-2.01247 1.22711,0 1.12894,1.47254 1.12894,2.06156 0,0.68718 0,3.1905 0,4.95754 0,3.28867 0.0491,4.02494 -0.6381,4.95755 l 4.36853,-1.9143 c 0.58902,-0.73627 0.49085,-4.22128 0.49085,-6.77368 -0.0491,-5.89015 -4.76121,-5.79198 -5.20297,-5.79198 -0.19634,0 -5.35022,-0.0982 -5.35022,5.59564 v 8.09896 c 0,0.0982 0,21.10638 0,21.10638 0,3.04324 -0.19634,5.54656 3.04325,6.82276 2.11063,0.83444 4.1231,0 5.49747,-1.76705 0.24542,0.49085 0.78535,1.32529 1.22712,1.76705 l 1.22711,-0.53993 c -0.58901,-0.6381 -0.49085,-2.45423 -0.49085,-3.1905 V 165.299 c 0,-1.17803 -0.0982,-2.40515 1.12895,-2.74874 v -0.68718 h -6.43008 v 0.53993 c 1.2762,0.39267 1.22711,0.93261 1.22711,2.74874 v 12.81108 c 0,1.5707 0,2.60148 -1.07986,2.60148 -1.12894,0 -1.12894,-1.22712 -1.12894,-2.50332 z"
           style="font-family:OPTIEngeEtienne;-inkscape-font-specification:'OPTIEngeEtienne, Normal';fill:#680000;fill-opacity:1"
           id="path11814" />
      </g>
    </g>
  </g>
</svg>
