<?xml version="1.0" encoding="UTF-8" standalone="no"?>
<!-- Created with Inkscape (http://www.inkscape.org/) -->

<svg
   width="201.86293mm"
   height="27.835438mm"
   viewBox="0 0 201.86293 27.835438"
   version="1.1"
   id="svg5"
   inkscape:version="1.1 (c68e22c387, 2021-05-23)"
   sodipodi:docname="auto-compilation.svg"
   xmlns:inkscape="http://www.inkscape.org/namespaces/inkscape"
   xmlns:sodipodi="http://sodipodi.sourceforge.net/DTD/sodipodi-0.dtd"
   xmlns="http://www.w3.org/2000/svg"
   xmlns:svg="http://www.w3.org/2000/svg">
  <sodipodi:namedview
     id="namedview7"
     pagecolor="#ffffff"
     bordercolor="#666666"
     borderopacity="1.0"
     inkscape:pageshadow="2"
     inkscape:pageopacity="0.0"
     inkscape:pagecheckerboard="0"
     inkscape:document-units="mm"
     showgrid="false"
     fit-margin-top="0"
     fit-margin-left="0"
     fit-margin-right="0"
     fit-margin-bottom="0"
     inkscape:zoom="0.67081229"
     inkscape:cx="386.84443"
     inkscape:cy="183.35979"
     inkscape:window-width="1920"
     inkscape:window-height="1138"
     inkscape:window-x="-8"
     inkscape:window-y="-8"
     inkscape:window-maximized="1"
     inkscape:current-layer="layer1" />
  <defs
     id="defs2" />
  <g
     inkscape:label="Calque 1"
     inkscape:groupmode="layer"
     id="layer1"
     transform="translate(-2.6928008,-100.2012)">
    <rect
       style="fill:#ffffff;fill-rule:evenodd;stroke:none;stroke-width:4;stroke-linecap:round;stroke-linejoin:round;stroke-miterlimit:4;stroke-dasharray:none;paint-order:stroke markers fill"
       id="rect4837"
       width="17.35458"
       height="16.171314"
       x="174.92749"
       y="105.55355" />
    <rect
       style="fill:#ffffff;fill-rule:evenodd;stroke:none;stroke-width:3.92793;stroke-linecap:round;stroke-linejoin:round;stroke-miterlimit:4;stroke-dasharray:none;paint-order:stroke markers fill"
       id="rect4551"
       width="13.015936"
       height="21.298805"
       x="37.576561"
       y="102.55082" />
    <rect
       style="fill:#ffffff;fill-rule:evenodd;stroke:none;stroke-width:3.92793;stroke-linecap:round;stroke-linejoin:round;stroke-miterlimit:4;stroke-dasharray:none;paint-order:stroke markers fill"
       id="rect4677"
       width="13.015936"
       height="21.298805"
       x="61.389084"
       y="102.55082" />
    <rect
       style="fill:#ffffff;fill-rule:evenodd;stroke:none;stroke-width:3.6404;stroke-linecap:round;stroke-linejoin:round;stroke-miterlimit:4;stroke-dasharray:none;paint-order:stroke markers fill"
       id="rect4679"
       width="18.294621"
       height="13.015937"
       x="99.50206"
       y="108.07273" />
    <g
       aria-label="MULTIGAMES"
       id="text2366"
       style="font-size:31.8826px;line-height:1.25;font-family:'Rose Of Baltimore';-inkscape-font-specification:'Rose Of Baltimore';fill:#800080;stroke:#ffffff;stroke-width:4;stroke-linecap:round;stroke-linejoin:round;stroke-miterlimit:4;stroke-dasharray:none;paint-order:stroke markers fill"
       transform="translate(-0.78884462,6.7051793)">
      <path
         d="m 5.4816454,118.82015 c 2.0086039,-0.12753 3.8577947,-0.19129 5.8663986,0.0319 1.339069,-3.44332 2.45496,-7.07793 4.431681,-11.19079 0,3.44332 0.191296,7.61994 0.542005,11.09515 1.466599,-0.12753 1.849191,-0.12753 3.475203,-0.0319 2.168017,-3.53896 4.176621,-7.49241 6.185225,-11.12702 -0.223178,3.2839 -0.414474,7.875 -0.573887,11.22267 2.040486,-0.0956 3.730264,-0.19129 5.738868,-0.12753 0.765182,-6.98229 1.721661,-15.36741 2.614373,-22.636645 -2.58249,-0.191295 -3.953442,-0.191295 -6.50405,0.159413 -1.881074,3.028847 -3.762147,6.790992 -5.675103,9.819842 -0.318826,-3.02885 -0.573887,-7.014173 -0.765183,-10.011137 -2.327429,-0.159413 -4.208503,-0.191296 -6.567815,0.03188 -3.507086,7.556177 -5.8345163,14.602237 -8.7677156,22.764177 z"
         style="font-family:'Avengeance Mightiest Avenger';-inkscape-font-specification:'Avengeance Mightiest Avenger, Normal';stroke:#ffffff;stroke-width:4;stroke-linecap:round;stroke-linejoin:round;stroke-miterlimit:4;stroke-dasharray:none;paint-order:stroke markers fill"
         id="path4315" />
      <path
         d="m 45.33486,96.311036 c -1.785426,-0.159413 -4.080973,-0.159413 -6.440286,0.06377 -1.052126,3.443321 -2.901316,9.182194 -3.985325,14.060234 -0.573887,2.77378 -1.307186,6.05768 1.339069,7.77934 1.147774,0.70142 2.805669,1.11589 4.878038,1.11589 6.025812,0 9.182189,-0.86083 11.286441,-7.49241 1.59413,-4.87804 3.156377,-11.22266 4.399799,-15.877527 -2.231782,-0.223179 -4.208503,-0.255061 -6.950407,-0.03188 -0.892713,4.399797 -2.678139,11.382087 -4.112856,15.590597 -0.605769,1.8173 -1.402834,2.1999 -3.18826,2.26366 -0.924595,0 -2.199899,-0.0638 -1.817308,-1.81731 0.988361,-4.43168 3.124495,-11.25455 4.591095,-15.654356 z"
         style="font-family:'Avengeance Mightiest Avenger';-inkscape-font-specification:'Avengeance Mightiest Avenger, Normal';stroke:#ffffff;stroke-width:4;stroke-linecap:round;stroke-linejoin:round;stroke-miterlimit:4;stroke-dasharray:none;paint-order:stroke markers fill"
         id="path4317" />
      <path
         d="m 61.435472,113.27258 c 1.944838,-5.8664 3.475203,-10.29808 6.535933,-17.726726 -2.710021,-0.06377 -4.909921,0.03188 -7.619942,0.510121 -2.614373,8.066295 -4.399799,15.112355 -6.312755,22.796055 3.092612,0 8.512655,0 12.816806,-0.28694 1.084008,-1.97672 1.881073,-3.92156 2.646256,-5.8664 -2.391195,0.28695 -5.993929,0.57389 -8.066298,0.57389 z"
         style="font-family:'Avengeance Mightiest Avenger';-inkscape-font-specification:'Avengeance Mightiest Avenger, Normal';stroke:#ffffff;stroke-width:4;stroke-linecap:round;stroke-linejoin:round;stroke-miterlimit:4;stroke-dasharray:none;paint-order:stroke markers fill"
         id="path4319" />
      <path
         d="m 71.669765,95.928445 c -0.86083,2.136134 -1.339069,4.367915 -1.689778,6.472165 1.59413,-0.0638 3.443321,-0.19129 5.037451,-0.0956 -1.434717,5.42004 -2.710021,11.47773 -4.017208,16.4833 1.912956,-0.15941 4.176621,-0.22318 6.089577,-0.0638 1.402834,-5.19686 3.283908,-11.22267 4.78239,-16.45142 1.72166,-0.0956 3.443321,-0.0319 4.941803,0.0319 0.446357,-2.13614 1.115891,-4.367921 1.785426,-6.631586 -5.611338,-0.318826 -11.796562,-0.159413 -16.929661,0.255061 z"
         style="font-family:'Avengeance Mightiest Avenger';-inkscape-font-specification:'Avengeance Mightiest Avenger, Normal';stroke:#ffffff;stroke-width:4;stroke-linecap:round;stroke-linejoin:round;stroke-miterlimit:4;stroke-dasharray:none;paint-order:stroke markers fill"
         id="path4321" />
      <path
         d="m 98.036599,95.800915 c -2.295547,-0.06377 -4.78239,-0.127531 -7.077937,0.318826 -2.614373,7.970649 -4.367916,15.080469 -6.089577,22.700409 2.008604,-0.22318 4.208503,-0.19129 6.24899,0 2.263665,-7.90688 4.272268,-15.08047 6.918524,-23.019235 z"
         style="font-family:'Avengeance Mightiest Avenger';-inkscape-font-specification:'Avengeance Mightiest Avenger, Normal';stroke:#ffffff;stroke-width:4;stroke-linecap:round;stroke-linejoin:round;stroke-miterlimit:4;stroke-dasharray:none;paint-order:stroke markers fill"
         id="path4323" />
      <path
         d="m 118.02697,103.45274 c 0.92459,-2.99697 1.24342,-4.336035 1.84919,-7.173586 -2.71002,-0.637652 -6.75911,-0.797065 -10.29808,0 -7.10982,1.59413 -13.295046,7.364876 -12.97622,14.984826 0.223179,5.54757 5.1331,8.13006 10.0749,8.06629 3.06073,-0.0319 6.63158,-1.02024 8.67207,-2.51872 1.08401,-3.09261 2.04049,-6.53593 2.77379,-9.05466 -2.42308,0 -4.5911,0.0957 -6.31276,0.25506 -0.542,1.72166 -1.21154,4.43168 -1.49848,5.51569 -0.89271,0.542 -1.81731,0.66954 -3.09261,0.66954 -2.1999,-0.0319 -3.60274,-1.4666 -3.73027,-3.15638 -0.44635,-5.45193 5.3244,-8.32136 9.91549,-8.38513 1.75354,-0.0319 3.37956,0.28695 4.62298,0.79707 z"
         style="font-family:'Avengeance Mightiest Avenger';-inkscape-font-specification:'Avengeance Mightiest Avenger, Normal';stroke:#ffffff;stroke-width:4;stroke-linecap:round;stroke-linejoin:round;stroke-miterlimit:4;stroke-dasharray:none;paint-order:stroke markers fill"
         id="path4325" />
      <path
         d="m 122.87309,118.59697 c 0.70141,-1.17965 1.2753,-2.39119 1.88107,-3.53896 2.16802,-0.15942 3.88968,-0.15942 5.70698,-0.22318 -0.0319,1.33907 -0.0638,2.7419 -0.15941,4.04909 1.91296,-0.22318 4.04909,-0.15942 5.96205,-0.0957 0.35071,-7.46053 0.15941,-15.49494 0.0957,-23.242416 -2.80567,-0.09565 -5.48381,-0.09565 -8.51266,0.382591 -3.79403,7.332995 -7.36488,15.303645 -10.71255,22.668525 1.78542,-0.15941 3.73026,-0.15941 5.73887,0 z m 3.69838,-9.21407 c 1.43471,-2.64625 2.90131,-5.54757 4.52733,-8.22571 0.15941,2.71002 0.31882,5.64322 0.28694,8.28948 -1.72166,-0.15942 -3.18826,-0.12753 -4.81427,-0.0638 z"
         style="font-family:'Avengeance Mightiest Avenger';-inkscape-font-specification:'Avengeance Mightiest Avenger, Normal';stroke:#ffffff;stroke-width:4;stroke-linecap:round;stroke-linejoin:round;stroke-miterlimit:4;stroke-dasharray:none;paint-order:stroke markers fill"
         id="path4327" />
      <path
         d="m 137.37964,118.82015 c 2.0086,-0.12753 3.8578,-0.19129 5.8664,0.0319 1.33907,-3.44332 2.45496,-7.07793 4.43168,-11.19079 0,3.44332 0.1913,7.61994 0.542,11.09515 1.4666,-0.12753 1.8492,-0.12753 3.47521,-0.0319 2.16802,-3.53896 4.17662,-7.49241 6.18522,-11.12702 -0.22318,3.2839 -0.41447,7.875 -0.57388,11.22267 2.04048,-0.0956 3.73026,-0.19129 5.73886,-0.12753 0.76519,-6.98229 1.72166,-15.36741 2.61438,-22.636645 -2.58249,-0.191295 -3.95345,-0.191295 -6.50405,0.159413 -1.88108,3.028847 -3.76215,6.790992 -5.67511,9.819842 -0.31882,-3.02885 -0.57388,-7.014173 -0.76518,-10.011137 -2.32743,-0.159413 -4.2085,-0.191296 -6.56781,0.03188 -3.50709,7.556177 -5.83452,14.602237 -8.76772,22.764177 z"
         style="font-family:'Avengeance Mightiest Avenger';-inkscape-font-specification:'Avengeance Mightiest Avenger, Normal';stroke:#ffffff;stroke-width:4;stroke-linecap:round;stroke-linejoin:round;stroke-miterlimit:4;stroke-dasharray:none;paint-order:stroke markers fill"
         id="path4329" />
      <path
         d="m 174.49092,105.87582 c 0.35071,-1.17966 0.7333,-2.42308 1.11589,-3.57085 2.26367,-0.22318 5.99393,-0.31883 8.09818,-0.22318 0.79707,-2.104255 1.6579,-4.336037 2.48684,-6.408406 -4.36791,-0.12753 -10.74443,-0.06377 -15.14423,0.60577 -2.58249,7.906886 -4.2085,15.080466 -6.0577,22.604766 2.99697,0 8.57642,0.0956 12.78493,-0.15942 1.02024,-1.94483 1.81731,-3.76214 2.58249,-5.73886 -2.35931,0.28694 -6.12146,0.41447 -8.19383,0.41447 0.35071,-1.11589 0.70142,-2.13613 1.02024,-3.25203 1.84919,-0.12753 5.51569,-0.15941 7.39677,-0.0319 0.57388,-1.62601 0.95647,-2.83755 1.40283,-4.46356 -1.91295,-0.0638 -5.35628,-0.0957 -7.49241,0.22318 z"
         style="font-family:'Avengeance Mightiest Avenger';-inkscape-font-specification:'Avengeance Mightiest Avenger, Normal';stroke:#ffffff;stroke-width:4;stroke-linecap:round;stroke-linejoin:round;stroke-miterlimit:4;stroke-dasharray:none;paint-order:stroke markers fill"
         id="path4331" />
      <path
         d="m 182.58906,118.66074 c 5.32439,0.98836 13.29504,0.7333 16.73836,-3.92156 0.38259,-0.57389 0.70142,-1.37095 0.79707,-2.04049 0.28694,-1.94484 -1.43472,-2.96508 -2.80567,-3.95344 -0.98836,-0.7333 -3.88968,-1.62601 -3.88968,-3.12449 -0.0319,-1.37096 1.05213,-2.45496 2.1999,-3.02885 1.43472,-0.70142 4.5911,-0.63765 6.0577,-0.28694 l 1.65789,-6.504055 c -2.1999,-0.223179 -4.08097,-0.318826 -6.28087,-0.127531 -3.76215,0.318826 -8.6083,1.721661 -10.4575,5.069336 -0.57388,0.95648 -0.98836,2.32743 -0.86083,3.50708 0.1913,2.48685 1.59413,3.8578 3.98533,5.19687 3.4752,1.97672 2.45496,4.01721 -1.08401,4.27227 -1.49848,0.0956 -3.79403,-0.0638 -5.19686,-0.35071 z"
         style="font-family:'Avengeance Mightiest Avenger';-inkscape-font-specification:'Avengeance Mightiest Avenger, Normal';stroke:#ffffff;stroke-width:4;stroke-linecap:round;stroke-linejoin:round;stroke-miterlimit:4;stroke-dasharray:none;paint-order:stroke markers fill"
         id="path4333" />
    </g>
    <g
       aria-label="MULTIGAMES"
       id="g4455"
       style="font-size:31.8826px;line-height:1.25;font-family:'Rose Of Baltimore';-inkscape-font-specification:'Rose Of Baltimore';fill:#800080;stroke-width:0.33211"
       transform="translate(-0.78884462,6.7051793)">
      <path
         d="m 5.4816454,118.82015 c 2.0086039,-0.12753 3.8577947,-0.19129 5.8663986,0.0319 1.339069,-3.44332 2.45496,-7.07793 4.431681,-11.19079 0,3.44332 0.191296,7.61994 0.542005,11.09515 1.466599,-0.12753 1.849191,-0.12753 3.475203,-0.0319 2.168017,-3.53896 4.176621,-7.49241 6.185225,-11.12702 -0.223178,3.2839 -0.414474,7.875 -0.573887,11.22267 2.040486,-0.0956 3.730264,-0.19129 5.738868,-0.12753 0.765182,-6.98229 1.721661,-15.36741 2.614373,-22.636645 -2.58249,-0.191295 -3.953442,-0.191295 -6.50405,0.159413 -1.881074,3.028847 -3.762147,6.790992 -5.675103,9.819842 -0.318826,-3.02885 -0.573887,-7.014173 -0.765183,-10.011137 -2.327429,-0.159413 -4.208503,-0.191296 -6.567815,0.03188 -3.507086,7.556177 -5.8345163,14.602237 -8.7677156,22.764177 z"
         style="font-family:'Avengeance Mightiest Avenger';-inkscape-font-specification:'Avengeance Mightiest Avenger, Normal';fill:#800080"
         id="path4435" />
      <path
         d="m 45.33486,96.311036 c -1.785426,-0.159413 -4.080973,-0.159413 -6.440286,0.06377 -1.052126,3.443321 -2.901316,9.182194 -3.985325,14.060234 -0.573887,2.77378 -1.307186,6.05768 1.339069,7.77934 1.147774,0.70142 2.805669,1.11589 4.878038,1.11589 6.025812,0 9.182189,-0.86083 11.286441,-7.49241 1.59413,-4.87804 3.156377,-11.22266 4.399799,-15.877527 -2.231782,-0.223179 -4.208503,-0.255061 -6.950407,-0.03188 -0.892713,4.399797 -2.678139,11.382087 -4.112856,15.590597 -0.605769,1.8173 -1.402834,2.1999 -3.18826,2.26366 -0.924595,0 -2.199899,-0.0638 -1.817308,-1.81731 0.988361,-4.43168 3.124495,-11.25455 4.591095,-15.654356 z"
         style="font-family:'Avengeance Mightiest Avenger';-inkscape-font-specification:'Avengeance Mightiest Avenger, Normal';fill:#800080"
         id="path4437" />
      <path
         d="m 61.435472,113.27258 c 1.944838,-5.8664 3.475203,-10.29808 6.535933,-17.726726 -2.710021,-0.06377 -4.909921,0.03188 -7.619942,0.510121 -2.614373,8.066295 -4.399799,15.112355 -6.312755,22.796055 3.092612,0 8.512655,0 12.816806,-0.28694 1.084008,-1.97672 1.881073,-3.92156 2.646256,-5.8664 -2.391195,0.28695 -5.993929,0.57389 -8.066298,0.57389 z"
         style="font-family:'Avengeance Mightiest Avenger';-inkscape-font-specification:'Avengeance Mightiest Avenger, Normal';fill:#800080"
         id="path4439" />
      <path
         d="m 71.669765,95.928445 c -0.86083,2.136134 -1.339069,4.367915 -1.689778,6.472165 1.59413,-0.0638 3.443321,-0.19129 5.037451,-0.0956 -1.434717,5.42004 -2.710021,11.47773 -4.017208,16.4833 1.912956,-0.15941 4.176621,-0.22318 6.089577,-0.0638 1.402834,-5.19686 3.283908,-11.22267 4.78239,-16.45142 1.72166,-0.0956 3.443321,-0.0319 4.941803,0.0319 0.446357,-2.13614 1.115891,-4.367921 1.785426,-6.631586 -5.611338,-0.318826 -11.796562,-0.159413 -16.929661,0.255061 z"
         style="font-family:'Avengeance Mightiest Avenger';-inkscape-font-specification:'Avengeance Mightiest Avenger, Normal';fill:#800080"
         id="path4441" />
      <path
         d="m 98.036599,95.800915 c -2.295547,-0.06377 -4.78239,-0.127531 -7.077937,0.318826 -2.614373,7.970649 -4.367916,15.080469 -6.089577,22.700409 2.008604,-0.22318 4.208503,-0.19129 6.24899,0 2.263665,-7.90688 4.272268,-15.08047 6.918524,-23.019235 z"
         style="font-family:'Avengeance Mightiest Avenger';-inkscape-font-specification:'Avengeance Mightiest Avenger, Normal';fill:#800080"
         id="path4443" />
      <path
         d="m 118.02697,103.45274 c 0.92459,-2.99697 1.24342,-4.336035 1.84919,-7.173586 -2.71002,-0.637652 -6.75911,-0.797065 -10.29808,0 -7.10982,1.59413 -13.295046,7.364876 -12.97622,14.984826 0.223179,5.54757 5.1331,8.13006 10.0749,8.06629 3.06073,-0.0319 6.63158,-1.02024 8.67207,-2.51872 1.08401,-3.09261 2.04049,-6.53593 2.77379,-9.05466 -2.42308,0 -4.5911,0.0957 -6.31276,0.25506 -0.542,1.72166 -1.21154,4.43168 -1.49848,5.51569 -0.89271,0.542 -1.81731,0.66954 -3.09261,0.66954 -2.1999,-0.0319 -3.60274,-1.4666 -3.73027,-3.15638 -0.44635,-5.45193 5.3244,-8.32136 9.91549,-8.38513 1.75354,-0.0319 3.37956,0.28695 4.62298,0.79707 z"
         style="font-family:'Avengeance Mightiest Avenger';-inkscape-font-specification:'Avengeance Mightiest Avenger, Normal';fill:#800080"
         id="path4445" />
      <path
         d="m 122.87309,118.59697 c 0.70141,-1.17965 1.2753,-2.39119 1.88107,-3.53896 2.16802,-0.15942 3.88968,-0.15942 5.70698,-0.22318 -0.0319,1.33907 -0.0638,2.7419 -0.15941,4.04909 1.91296,-0.22318 4.04909,-0.15942 5.96205,-0.0957 0.35071,-7.46053 0.15941,-15.49494 0.0957,-23.242416 -2.80567,-0.09565 -5.48381,-0.09565 -8.51266,0.382591 -3.79403,7.332995 -7.36488,15.303645 -10.71255,22.668525 1.78542,-0.15941 3.73026,-0.15941 5.73887,0 z m 3.69838,-9.21407 c 1.43471,-2.64625 2.90131,-5.54757 4.52733,-8.22571 0.15941,2.71002 0.31882,5.64322 0.28694,8.28948 -1.72166,-0.15942 -3.18826,-0.12753 -4.81427,-0.0638 z"
         style="font-family:'Avengeance Mightiest Avenger';-inkscape-font-specification:'Avengeance Mightiest Avenger, Normal';fill:#800080"
         id="path4447" />
      <path
         d="m 137.37964,118.82015 c 2.0086,-0.12753 3.8578,-0.19129 5.8664,0.0319 1.33907,-3.44332 2.45496,-7.07793 4.43168,-11.19079 0,3.44332 0.1913,7.61994 0.542,11.09515 1.4666,-0.12753 1.8492,-0.12753 3.47521,-0.0319 2.16802,-3.53896 4.17662,-7.49241 6.18522,-11.12702 -0.22318,3.2839 -0.41447,7.875 -0.57388,11.22267 2.04048,-0.0956 3.73026,-0.19129 5.73886,-0.12753 0.76519,-6.98229 1.72166,-15.36741 2.61438,-22.636645 -2.58249,-0.191295 -3.95345,-0.191295 -6.50405,0.159413 -1.88108,3.028847 -3.76215,6.790992 -5.67511,9.819842 -0.31882,-3.02885 -0.57388,-7.014173 -0.76518,-10.011137 -2.32743,-0.159413 -4.2085,-0.191296 -6.56781,0.03188 -3.50709,7.556177 -5.83452,14.602237 -8.76772,22.764177 z"
         style="font-family:'Avengeance Mightiest Avenger';-inkscape-font-specification:'Avengeance Mightiest Avenger, Normal';fill:#800080"
         id="path4449" />
      <path
         d="m 174.49092,105.87582 c 0.35071,-1.17966 0.7333,-2.42308 1.11589,-3.57085 2.26367,-0.22318 5.99393,-0.31883 8.09818,-0.22318 0.79707,-2.104255 1.6579,-4.336037 2.48684,-6.408406 -4.36791,-0.12753 -10.74443,-0.06377 -15.14423,0.60577 -2.58249,7.906886 -4.2085,15.080466 -6.0577,22.604766 2.99697,0 8.57642,0.0956 12.78493,-0.15942 1.02024,-1.94483 1.81731,-3.76214 2.58249,-5.73886 -2.35931,0.28694 -6.12146,0.41447 -8.19383,0.41447 0.35071,-1.11589 0.70142,-2.13613 1.02024,-3.25203 1.84919,-0.12753 5.51569,-0.15941 7.39677,-0.0319 0.57388,-1.62601 0.95647,-2.83755 1.40283,-4.46356 -1.91295,-0.0638 -5.35628,-0.0957 -7.49241,0.22318 z"
         style="font-family:'Avengeance Mightiest Avenger';-inkscape-font-specification:'Avengeance Mightiest Avenger, Normal';fill:#800080"
         id="path4451" />
      <path
         d="m 182.58906,118.66074 c 5.32439,0.98836 13.29504,0.7333 16.73836,-3.92156 0.38259,-0.57389 0.70142,-1.37095 0.79707,-2.04049 0.28694,-1.94484 -1.43472,-2.96508 -2.80567,-3.95344 -0.98836,-0.7333 -3.88968,-1.62601 -3.88968,-3.12449 -0.0319,-1.37096 1.05213,-2.45496 2.1999,-3.02885 1.43472,-0.70142 4.5911,-0.63765 6.0577,-0.28694 l 1.65789,-6.504055 c -2.1999,-0.223179 -4.08097,-0.318826 -6.28087,-0.127531 -3.76215,0.318826 -8.6083,1.721661 -10.4575,5.069336 -0.57388,0.95648 -0.98836,2.32743 -0.86083,3.50708 0.1913,2.48685 1.59413,3.8578 3.98533,5.19687 3.4752,1.97672 2.45496,4.01721 -1.08401,4.27227 -1.49848,0.0956 -3.79403,-0.0638 -5.19686,-0.35071 z"
         style="font-family:'Avengeance Mightiest Avenger';-inkscape-font-specification:'Avengeance Mightiest Avenger, Normal';fill:#800080"
         id="path4453" />
    </g>
    <g
       aria-label="MULTIGAMES"
       id="g5081"
       style="font-size:31.8826px;line-height:1.25;font-family:'Rose Of Baltimore';-inkscape-font-specification:'Rose Of Baltimore';fill:#800080;stroke-width:0.33211"
       transform="translate(-0.78884462,6.7051793)">
      <path
         d="m 5.4816454,118.82015 c 2.0086039,-0.12753 3.8577947,-0.19129 5.8663986,0.0319 1.339069,-3.44332 2.45496,-7.07793 4.431681,-11.19079 0,3.44332 0.191296,7.61994 0.542005,11.09515 1.466599,-0.12753 1.849191,-0.12753 3.475203,-0.0319 2.168017,-3.53896 4.176621,-7.49241 6.185225,-11.12702 -0.223178,3.2839 -0.414474,7.875 -0.573887,11.22267 2.040486,-0.0956 3.730264,-0.19129 5.738868,-0.12753 0.765182,-6.98229 1.721661,-15.36741 2.614373,-22.636645 -2.58249,-0.191295 -3.953442,-0.191295 -6.50405,0.159413 -1.881074,3.028847 -3.762147,6.790992 -5.675103,9.819842 -0.318826,-3.02885 -0.573887,-7.014173 -0.765183,-10.011137 -2.327429,-0.159413 -4.208503,-0.191296 -6.567815,0.03188 -3.507086,7.556177 -5.8345163,14.602237 -8.7677156,22.764177 z"
         style="font-family:'Avengeance Mightiest Avenger';-inkscape-font-specification:'Avengeance Mightiest Avenger, Normal';fill:#800080"
         id="path5061" />
      <path
         d="m 45.33486,96.311036 c -1.785426,-0.159413 -4.080973,-0.159413 -6.440286,0.06377 -1.052126,3.443321 -2.901316,9.182194 -3.985325,14.060234 -0.573887,2.77378 -1.307186,6.05768 1.339069,7.77934 1.147774,0.70142 2.805669,1.11589 4.878038,1.11589 6.025812,0 9.182189,-0.86083 11.286441,-7.49241 1.59413,-4.87804 3.156377,-11.22266 4.399799,-15.877527 -2.231782,-0.223179 -4.208503,-0.255061 -6.950407,-0.03188 -0.892713,4.399797 -2.678139,11.382087 -4.112856,15.590597 -0.605769,1.8173 -1.402834,2.1999 -3.18826,2.26366 -0.924595,0 -2.199899,-0.0638 -1.817308,-1.81731 0.988361,-4.43168 3.124495,-11.25455 4.591095,-15.654356 z"
         style="font-family:'Avengeance Mightiest Avenger';-inkscape-font-specification:'Avengeance Mightiest Avenger, Normal';fill:#800080"
         id="path5063" />
      <path
         d="m 61.435472,113.27258 c 1.944838,-5.8664 3.475203,-10.29808 6.535933,-17.726726 -2.710021,-0.06377 -4.909921,0.03188 -7.619942,0.510121 -2.614373,8.066295 -4.399799,15.112355 -6.312755,22.796055 3.092612,0 8.512655,0 12.816806,-0.28694 1.084008,-1.97672 1.881073,-3.92156 2.646256,-5.8664 -2.391195,0.28695 -5.993929,0.57389 -8.066298,0.57389 z"
         style="font-family:'Avengeance Mightiest Avenger';-inkscape-font-specification:'Avengeance Mightiest Avenger, Normal';fill:#800080"
         id="path5065" />
      <path
         d="m 71.669765,95.928445 c -0.86083,2.136134 -1.339069,4.367915 -1.689778,6.472165 1.59413,-0.0638 3.443321,-0.19129 5.037451,-0.0956 -1.434717,5.42004 -2.710021,11.47773 -4.017208,16.4833 1.912956,-0.15941 4.176621,-0.22318 6.089577,-0.0638 1.402834,-5.19686 3.283908,-11.22267 4.78239,-16.45142 1.72166,-0.0956 3.443321,-0.0319 4.941803,0.0319 0.446357,-2.13614 1.115891,-4.367921 1.785426,-6.631586 -5.611338,-0.318826 -11.796562,-0.159413 -16.929661,0.255061 z"
         style="font-family:'Avengeance Mightiest Avenger';-inkscape-font-specification:'Avengeance Mightiest Avenger, Normal';fill:#800080"
         id="path5067" />
      <path
         d="m 98.036599,95.800915 c -2.295547,-0.06377 -4.78239,-0.127531 -7.077937,0.318826 -2.614373,7.970649 -4.367916,15.080469 -6.089577,22.700409 2.008604,-0.22318 4.208503,-0.19129 6.24899,0 2.263665,-7.90688 4.272268,-15.08047 6.918524,-23.019235 z"
         style="font-family:'Avengeance Mightiest Avenger';-inkscape-font-specification:'Avengeance Mightiest Avenger, Normal';fill:#800080"
         id="path5069" />
      <path
         d="m 118.02697,103.45274 c 0.92459,-2.99697 1.24342,-4.336035 1.84919,-7.173586 -2.71002,-0.637652 -6.75911,-0.797065 -10.29808,0 -7.10982,1.59413 -13.295046,7.364876 -12.97622,14.984826 0.223179,5.54757 5.1331,8.13006 10.0749,8.06629 3.06073,-0.0319 6.63158,-1.02024 8.67207,-2.51872 1.08401,-3.09261 2.04049,-6.53593 2.77379,-9.05466 -2.42308,0 -4.5911,0.0957 -6.31276,0.25506 -0.542,1.72166 -1.21154,4.43168 -1.49848,5.51569 -0.89271,0.542 -1.81731,0.66954 -3.09261,0.66954 -2.1999,-0.0319 -3.60274,-1.4666 -3.73027,-3.15638 -0.44635,-5.45193 5.3244,-8.32136 9.91549,-8.38513 1.75354,-0.0319 3.37956,0.28695 4.62298,0.79707 z"
         style="font-family:'Avengeance Mightiest Avenger';-inkscape-font-specification:'Avengeance Mightiest Avenger, Normal';fill:#800080"
         id="path5071" />
      <path
         d="m 122.87309,118.59697 c 0.70141,-1.17965 1.2753,-2.39119 1.88107,-3.53896 2.16802,-0.15942 3.88968,-0.15942 5.70698,-0.22318 -0.0319,1.33907 -0.0638,2.7419 -0.15941,4.04909 1.91296,-0.22318 4.04909,-0.15942 5.96205,-0.0957 0.35071,-7.46053 0.15941,-15.49494 0.0957,-23.242416 -2.80567,-0.09565 -5.48381,-0.09565 -8.51266,0.382591 -3.79403,7.332995 -7.36488,15.303645 -10.71255,22.668525 1.78542,-0.15941 3.73026,-0.15941 5.73887,0 z m 3.69838,-9.21407 c 1.43471,-2.64625 2.90131,-5.54757 4.52733,-8.22571 0.15941,2.71002 0.31882,5.64322 0.28694,8.28948 -1.72166,-0.15942 -3.18826,-0.12753 -4.81427,-0.0638 z"
         style="font-family:'Avengeance Mightiest Avenger';-inkscape-font-specification:'Avengeance Mightiest Avenger, Normal';fill:#800080"
         id="path5073" />
      <path
         d="m 137.37964,118.82015 c 2.0086,-0.12753 3.8578,-0.19129 5.8664,0.0319 1.33907,-3.44332 2.45496,-7.07793 4.43168,-11.19079 0,3.44332 0.1913,7.61994 0.542,11.09515 1.4666,-0.12753 1.8492,-0.12753 3.47521,-0.0319 2.16802,-3.53896 4.17662,-7.49241 6.18522,-11.12702 -0.22318,3.2839 -0.41447,7.875 -0.57388,11.22267 2.04048,-0.0956 3.73026,-0.19129 5.73886,-0.12753 0.76519,-6.98229 1.72166,-15.36741 2.61438,-22.636645 -2.58249,-0.191295 -3.95345,-0.191295 -6.50405,0.159413 -1.88108,3.028847 -3.76215,6.790992 -5.67511,9.819842 -0.31882,-3.02885 -0.57388,-7.014173 -0.76518,-10.011137 -2.32743,-0.159413 -4.2085,-0.191296 -6.56781,0.03188 -3.50709,7.556177 -5.83452,14.602237 -8.76772,22.764177 z"
         style="font-family:'Avengeance Mightiest Avenger';-inkscape-font-specification:'Avengeance Mightiest Avenger, Normal';fill:#800080"
         id="path5075" />
      <path
         d="m 174.49092,105.87582 c 0.35071,-1.17966 0.7333,-2.42308 1.11589,-3.57085 2.26367,-0.22318 5.99393,-0.31883 8.09818,-0.22318 0.79707,-2.104255 1.6579,-4.336037 2.48684,-6.408406 -4.36791,-0.12753 -10.74443,-0.06377 -15.14423,0.60577 -2.58249,7.906886 -4.2085,15.080466 -6.0577,22.604766 2.99697,0 8.57642,0.0956 12.78493,-0.15942 1.02024,-1.94483 1.81731,-3.76214 2.58249,-5.73886 -2.35931,0.28694 -6.12146,0.41447 -8.19383,0.41447 0.35071,-1.11589 0.70142,-2.13613 1.02024,-3.25203 1.84919,-0.12753 5.51569,-0.15941 7.39677,-0.0319 0.57388,-1.62601 0.95647,-2.83755 1.40283,-4.46356 -1.91295,-0.0638 -5.35628,-0.0957 -7.49241,0.22318 z"
         style="font-family:'Avengeance Mightiest Avenger';-inkscape-font-specification:'Avengeance Mightiest Avenger, Normal';fill:#800080"
         id="path5077" />
      <path
         d="m 182.58906,118.66074 c 5.32439,0.98836 13.29504,0.7333 16.73836,-3.92156 0.38259,-0.57389 0.70142,-1.37095 0.79707,-2.04049 0.28694,-1.94484 -1.43472,-2.96508 -2.80567,-3.95344 -0.98836,-0.7333 -3.88968,-1.62601 -3.88968,-3.12449 -0.0319,-1.37096 1.05213,-2.45496 2.1999,-3.02885 1.43472,-0.70142 4.5911,-0.63765 6.0577,-0.28694 l 1.65789,-6.504055 c -2.1999,-0.223179 -4.08097,-0.318826 -6.28087,-0.127531 -3.76215,0.318826 -8.6083,1.721661 -10.4575,5.069336 -0.57388,0.95648 -0.98836,2.32743 -0.86083,3.50708 0.1913,2.48685 1.59413,3.8578 3.98533,5.19687 3.4752,1.97672 2.45496,4.01721 -1.08401,4.27227 -1.49848,0.0956 -3.79403,-0.0638 -5.19686,-0.35071 z"
         style="font-family:'Avengeance Mightiest Avenger';-inkscape-font-specification:'Avengeance Mightiest Avenger, Normal';fill:#800080"
         id="path5079" />
    </g>
    <g
       aria-label="MULTIGAMES"
       id="g5103"
       style="font-size:31.8826px;line-height:1.25;font-family:'Rose Of Baltimore';-inkscape-font-specification:'Rose Of Baltimore';fill:#800080;stroke-width:0.33211"
       transform="translate(-0.78884462,6.7051793)">
      <path
         d="m 5.4816454,118.82015 c 2.0086039,-0.12753 3.8577947,-0.19129 5.8663986,0.0319 1.339069,-3.44332 2.45496,-7.07793 4.431681,-11.19079 0,3.44332 0.191296,7.61994 0.542005,11.09515 1.466599,-0.12753 1.849191,-0.12753 3.475203,-0.0319 2.168017,-3.53896 4.176621,-7.49241 6.185225,-11.12702 -0.223178,3.2839 -0.414474,7.875 -0.573887,11.22267 2.040486,-0.0956 3.730264,-0.19129 5.738868,-0.12753 0.765182,-6.98229 1.721661,-15.36741 2.614373,-22.636645 -2.58249,-0.191295 -3.953442,-0.191295 -6.50405,0.159413 -1.881074,3.028847 -3.762147,6.790992 -5.675103,9.819842 -0.318826,-3.02885 -0.573887,-7.014173 -0.765183,-10.011137 -2.327429,-0.159413 -4.208503,-0.191296 -6.567815,0.03188 -3.507086,7.556177 -5.8345163,14.602237 -8.7677156,22.764177 z"
         style="font-family:'Avengeance Mightiest Avenger';-inkscape-font-specification:'Avengeance Mightiest Avenger, Normal';fill:#800080"
         id="path5083" />
      <path
         d="m 45.33486,96.311036 c -1.785426,-0.159413 -4.080973,-0.159413 -6.440286,0.06377 -1.052126,3.443321 -2.901316,9.182194 -3.985325,14.060234 -0.573887,2.77378 -1.307186,6.05768 1.339069,7.77934 1.147774,0.70142 2.805669,1.11589 4.878038,1.11589 6.025812,0 9.182189,-0.86083 11.286441,-7.49241 1.59413,-4.87804 3.156377,-11.22266 4.399799,-15.877527 -2.231782,-0.223179 -4.208503,-0.255061 -6.950407,-0.03188 -0.892713,4.399797 -2.678139,11.382087 -4.112856,15.590597 -0.605769,1.8173 -1.402834,2.1999 -3.18826,2.26366 -0.924595,0 -2.199899,-0.0638 -1.817308,-1.81731 0.988361,-4.43168 3.124495,-11.25455 4.591095,-15.654356 z"
         style="font-family:'Avengeance Mightiest Avenger';-inkscape-font-specification:'Avengeance Mightiest Avenger, Normal';fill:#800080"
         id="path5085" />
      <path
         d="m 61.435472,113.27258 c 1.944838,-5.8664 3.475203,-10.29808 6.535933,-17.726726 -2.710021,-0.06377 -4.909921,0.03188 -7.619942,0.510121 -2.614373,8.066295 -4.399799,15.112355 -6.312755,22.796055 3.092612,0 8.512655,0 12.816806,-0.28694 1.084008,-1.97672 1.881073,-3.92156 2.646256,-5.8664 -2.391195,0.28695 -5.993929,0.57389 -8.066298,0.57389 z"
         style="font-family:'Avengeance Mightiest Avenger';-inkscape-font-specification:'Avengeance Mightiest Avenger, Normal';fill:#800080"
         id="path5087" />
      <path
         d="m 71.669765,95.928445 c -0.86083,2.136134 -1.339069,4.367915 -1.689778,6.472165 1.59413,-0.0638 3.443321,-0.19129 5.037451,-0.0956 -1.434717,5.42004 -2.710021,11.47773 -4.017208,16.4833 1.912956,-0.15941 4.176621,-0.22318 6.089577,-0.0638 1.402834,-5.19686 3.283908,-11.22267 4.78239,-16.45142 1.72166,-0.0956 3.443321,-0.0319 4.941803,0.0319 0.446357,-2.13614 1.115891,-4.367921 1.785426,-6.631586 -5.611338,-0.318826 -11.796562,-0.159413 -16.929661,0.255061 z"
         style="font-family:'Avengeance Mightiest Avenger';-inkscape-font-specification:'Avengeance Mightiest Avenger, Normal';fill:#800080"
         id="path5089" />
      <path
         d="m 98.036599,95.800915 c -2.295547,-0.06377 -4.78239,-0.127531 -7.077937,0.318826 -2.614373,7.970649 -4.367916,15.080469 -6.089577,22.700409 2.008604,-0.22318 4.208503,-0.19129 6.24899,0 2.263665,-7.90688 4.272268,-15.08047 6.918524,-23.019235 z"
         style="font-family:'Avengeance Mightiest Avenger';-inkscape-font-specification:'Avengeance Mightiest Avenger, Normal';fill:#800080"
         id="path5091" />
      <path
         d="m 118.02697,103.45274 c 0.92459,-2.99697 1.24342,-4.336035 1.84919,-7.173586 -2.71002,-0.637652 -6.75911,-0.797065 -10.29808,0 -7.10982,1.59413 -13.295046,7.364876 -12.97622,14.984826 0.223179,5.54757 5.1331,8.13006 10.0749,8.06629 3.06073,-0.0319 6.63158,-1.02024 8.67207,-2.51872 1.08401,-3.09261 2.04049,-6.53593 2.77379,-9.05466 -2.42308,0 -4.5911,0.0957 -6.31276,0.25506 -0.542,1.72166 -1.21154,4.43168 -1.49848,5.51569 -0.89271,0.542 -1.81731,0.66954 -3.09261,0.66954 -2.1999,-0.0319 -3.60274,-1.4666 -3.73027,-3.15638 -0.44635,-5.45193 5.3244,-8.32136 9.91549,-8.38513 1.75354,-0.0319 3.37956,0.28695 4.62298,0.79707 z"
         style="font-family:'Avengeance Mightiest Avenger';-inkscape-font-specification:'Avengeance Mightiest Avenger, Normal';fill:#800080"
         id="path5093" />
      <path
         d="m 122.87309,118.59697 c 0.70141,-1.17965 1.2753,-2.39119 1.88107,-3.53896 2.16802,-0.15942 3.88968,-0.15942 5.70698,-0.22318 -0.0319,1.33907 -0.0638,2.7419 -0.15941,4.04909 1.91296,-0.22318 4.04909,-0.15942 5.96205,-0.0957 0.35071,-7.46053 0.15941,-15.49494 0.0957,-23.242416 -2.80567,-0.09565 -5.48381,-0.09565 -8.51266,0.382591 -3.79403,7.332995 -7.36488,15.303645 -10.71255,22.668525 1.78542,-0.15941 3.73026,-0.15941 5.73887,0 z m 3.69838,-9.21407 c 1.43471,-2.64625 2.90131,-5.54757 4.52733,-8.22571 0.15941,2.71002 0.31882,5.64322 0.28694,8.28948 -1.72166,-0.15942 -3.18826,-0.12753 -4.81427,-0.0638 z"
         style="font-family:'Avengeance Mightiest Avenger';-inkscape-font-specification:'Avengeance Mightiest Avenger, Normal';fill:#800080"
         id="path5095" />
      <path
         d="m 137.37964,118.82015 c 2.0086,-0.12753 3.8578,-0.19129 5.8664,0.0319 1.33907,-3.44332 2.45496,-7.07793 4.43168,-11.19079 0,3.44332 0.1913,7.61994 0.542,11.09515 1.4666,-0.12753 1.8492,-0.12753 3.47521,-0.0319 2.16802,-3.53896 4.17662,-7.49241 6.18522,-11.12702 -0.22318,3.2839 -0.41447,7.875 -0.57388,11.22267 2.04048,-0.0956 3.73026,-0.19129 5.73886,-0.12753 0.76519,-6.98229 1.72166,-15.36741 2.61438,-22.636645 -2.58249,-0.191295 -3.95345,-0.191295 -6.50405,0.159413 -1.88108,3.028847 -3.76215,6.790992 -5.67511,9.819842 -0.31882,-3.02885 -0.57388,-7.014173 -0.76518,-10.011137 -2.32743,-0.159413 -4.2085,-0.191296 -6.56781,0.03188 -3.50709,7.556177 -5.83452,14.602237 -8.76772,22.764177 z"
         style="font-family:'Avengeance Mightiest Avenger';-inkscape-font-specification:'Avengeance Mightiest Avenger, Normal';fill:#800080"
         id="path5097" />
      <path
         d="m 174.49092,105.87582 c 0.35071,-1.17966 0.7333,-2.42308 1.11589,-3.57085 2.26367,-0.22318 5.99393,-0.31883 8.09818,-0.22318 0.79707,-2.104255 1.6579,-4.336037 2.48684,-6.408406 -4.36791,-0.12753 -10.74443,-0.06377 -15.14423,0.60577 -2.58249,7.906886 -4.2085,15.080466 -6.0577,22.604766 2.99697,0 8.57642,0.0956 12.78493,-0.15942 1.02024,-1.94483 1.81731,-3.76214 2.58249,-5.73886 -2.35931,0.28694 -6.12146,0.41447 -8.19383,0.41447 0.35071,-1.11589 0.70142,-2.13613 1.02024,-3.25203 1.84919,-0.12753 5.51569,-0.15941 7.39677,-0.0319 0.57388,-1.62601 0.95647,-2.83755 1.40283,-4.46356 -1.91295,-0.0638 -5.35628,-0.0957 -7.49241,0.22318 z"
         style="font-family:'Avengeance Mightiest Avenger';-inkscape-font-specification:'Avengeance Mightiest Avenger, Normal';fill:#800080"
         id="path5099" />
      <path
         d="m 182.58906,118.66074 c 5.32439,0.98836 13.29504,0.7333 16.73836,-3.92156 0.38259,-0.57389 0.70142,-1.37095 0.79707,-2.04049 0.28694,-1.94484 -1.43472,-2.96508 -2.80567,-3.95344 -0.98836,-0.7333 -3.88968,-1.62601 -3.88968,-3.12449 -0.0319,-1.37096 1.05213,-2.45496 2.1999,-3.02885 1.43472,-0.70142 4.5911,-0.63765 6.0577,-0.28694 l 1.65789,-6.504055 c -2.1999,-0.223179 -4.08097,-0.318826 -6.28087,-0.127531 -3.76215,0.318826 -8.6083,1.721661 -10.4575,5.069336 -0.57388,0.95648 -0.98836,2.32743 -0.86083,3.50708 0.1913,2.48685 1.59413,3.8578 3.98533,5.19687 3.4752,1.97672 2.45496,4.01721 -1.08401,4.27227 -1.49848,0.0956 -3.79403,-0.0638 -5.19686,-0.35071 z"
         style="font-family:'Avengeance Mightiest Avenger';-inkscape-font-specification:'Avengeance Mightiest Avenger, Normal';fill:#800080"
         id="path5101" />
    </g>
  </g>
</svg>
