<?xml version="1.0" encoding="UTF-8" standalone="no"?>
<!-- Created with Inkscape (http://www.inkscape.org/) -->

<svg
   width="183.44681mm"
   height="45.993282mm"
   viewBox="0 0 183.4468 45.993283"
   version="1.1"
   id="svg5"
   inkscape:version="1.1 (c68e22c387, 2021-05-23)"
   sodipodi:docname="auto-casino.svg"
   xmlns:inkscape="http://www.inkscape.org/namespaces/inkscape"
   xmlns:sodipodi="http://sodipodi.sourceforge.net/DTD/sodipodi-0.dtd"
   xmlns="http://www.w3.org/2000/svg"
   xmlns:svg="http://www.w3.org/2000/svg">
  <sodipodi:namedview
     id="namedview7"
     pagecolor="#ffffff"
     bordercolor="#666666"
     borderopacity="1.0"
     inkscape:pageshadow="2"
     inkscape:pageopacity="0.0"
     inkscape:pagecheckerboard="0"
     inkscape:document-units="mm"
     showgrid="false"
     fit-margin-top="0"
     fit-margin-left="0"
     fit-margin-right="0"
     fit-margin-bottom="0"
     inkscape:zoom="0.6708123"
     inkscape:cx="339.14107"
     inkscape:cy="172.92468"
     inkscape:window-width="1920"
     inkscape:window-height="1138"
     inkscape:window-x="-8"
     inkscape:window-y="-8"
     inkscape:window-maximized="1"
     inkscape:current-layer="layer1" />
  <defs
     id="defs2" />
  <g
     inkscape:label="Calque 1"
     inkscape:groupmode="layer"
     id="layer1"
     transform="translate(-6.6773354,-89.545629)">
    <g
       aria-label="CASINO"
       id="text2135"
       style="font-size:62.3091px;line-height:1.25;font-family:'Rose Of Baltimore';-inkscape-font-specification:'Rose Of Baltimore';fill:#800080;stroke:#ffffff;stroke-width:3;stroke-linecap:round;stroke-linejoin:round;stroke-miterlimit:4;stroke-dasharray:none;paint-order:stroke markers fill">
      <path
         d="m 30.857848,119.45858 h 8.536347 q 0,2.92853 -1.121564,5.54551 -1.121564,2.55467 -3.053146,4.48625 -1.931582,1.93159 -4.548564,3.05315 -2.554673,1.12156 -5.483201,1.12156 h -2.866219 q -2.928527,0 -5.54551,-1.12156 -2.554673,-1.12156 -4.486255,-3.05315 -1.931582,-1.93158 -3.0531459,-4.48625 -1.0592547,-2.61698 -1.0592547,-5.54551 V 105.2521 q 0,-2.92852 1.0592547,-5.483197 1.1215639,-2.616982 3.0531459,-4.548564 1.931582,-1.931582 4.486255,-3.053146 2.616983,-1.121564 5.54551,-1.121564 h 2.866219 q 2.928528,0 5.483201,1.121564 2.616982,1.121564 4.548564,3.053146 1.931582,1.931582 3.053146,4.548564 1.121564,2.554677 1.121564,5.483197 h -8.536347 -1.557727 q -0.498473,0 -0.186928,-0.43616 1.059255,-1.43311 -0.124618,-3.48931 -0.249236,-0.31154 -0.498473,-0.56078 -0.249236,-0.31155 -0.623091,-0.49847 -1.183873,-0.685404 -2.679291,-0.685404 h -2.866219 q -2.367746,0 -4.050091,1.682344 -1.620037,1.62004 -1.620037,3.98778 v 5.67013 2.80391 5.73244 q 0,2.36775 1.620037,4.05009 1.682345,1.62004 4.050091,1.62004 h 2.866219 q 0.747709,0 1.3708,-0.18693 0.623091,-0.18693 1.308491,-0.49847 0.623091,-0.31155 1.121564,-1.12157 1.183873,-1.99389 0.124618,-3.427 -0.311545,-0.43616 0.186928,-0.43616 z"
         style="font-family:'Casino Flat';-inkscape-font-specification:'Casino Flat, Normal';stroke:#ffffff;stroke-width:3;stroke-linecap:round;stroke-linejoin:round;stroke-miterlimit:4;stroke-dasharray:none;paint-order:stroke markers fill"
         id="path7913" />
      <path
         d="m 72.729503,133.16658 q 0.186927,0.18693 0.124618,0.37386 -0.06231,0.12461 -0.311546,0.12461 H 61.576174 q -0.249237,0 -0.311546,-0.12461 -0.06231,-0.18693 0.124618,-0.37386 1.43311,-1.12156 1.43311,-5.17165 V 122.3248 H 51.41979 v 5.67013 q 0,4.05009 1.433109,5.17165 0.498473,0.49847 -0.186927,0.49847 H 41.69957 q -0.249236,0 -0.311545,-0.12461 -0.06231,-0.18693 0.124618,-0.37386 1.433109,-1.12156 1.433109,-5.17165 v -8.47404 -5.04704 q 0,-2.67929 0.498473,-5.10935 0.498473,-2.49236 1.557728,-4.98472 l 3.240073,-7.539404 q 0.810018,-3.987783 -0.373855,-5.233965 -0.186927,-0.186927 -0.124618,-0.311545 0.06231,-0.186928 0.311546,-0.186928 h 18.131948 q 0.623091,0 0.249237,0.498473 -1.183873,1.121564 -0.436164,5.233965 l 3.240073,7.539404 q 1.059255,2.49236 1.557728,4.98472 0.498472,2.43006 0.498472,5.10935 v 5.04704 8.47404 q 0,4.05009 1.43311,5.17165 z M 62.822356,113.85076 Q 62.635428,110.673 61.451555,107.74447 L 57.152227,97.712703 52.852899,107.74447 q -1.308491,2.92853 -1.3708,6.10629 z"
         style="font-family:'Casino Flat';-inkscape-font-specification:'Casino Flat, Normal';stroke:#ffffff;stroke-width:3;stroke-linecap:round;stroke-linejoin:round;stroke-miterlimit:4;stroke-dasharray:none;paint-order:stroke markers fill"
         id="path7915" />
      <path
         d="m 93.914575,108.18063 q 2.679291,0 4.984728,0.99695 2.305437,0.99694 4.050087,2.7416 1.74466,1.74465 2.74161,4.05009 0.99694,2.30544 0.99694,4.98473 0,2.61698 -0.99694,4.98473 -0.99695,2.30543 -2.74161,4.05009 -1.74465,1.68234 -4.050087,2.67929 -2.305437,0.99694 -4.984728,0.99694 h -2.80391 -2.866218 q -2.616983,0 -4.984728,-0.99694 -2.305437,-0.99695 -4.050092,-2.67929 -1.682346,-1.74466 -2.679291,-4.05009 -0.996946,-2.36775 -0.996946,-4.98473 h 8.474038 1.183873 q 0.498473,0 0.311545,0.37385 -0.6854,1.24618 -0.124618,2.18082 0.560782,0.93464 1.183873,1.30849 0.810018,0.37386 1.682346,0.37386 h 2.866218 2.80391 q 1.806964,0 3.053146,-1.24619 1.246182,-1.24618 1.246182,-2.99083 0,-1.80697 -1.246182,-3.05315 -1.246182,-1.24618 -3.053146,-1.24618 h -2.80391 -2.866218 q -2.616983,0 -4.984728,-0.99695 -2.305437,-0.99694 -4.050092,-2.7416 -1.682346,-1.74465 -2.679291,-4.05009 -0.996946,-2.36774 -0.996946,-4.98473 0,-2.61698 0.996946,-4.922415 0.996945,-2.367746 2.679291,-4.112401 1.744655,-1.744654 4.050092,-2.7416 2.367745,-0.996946 4.984728,-0.996946 h 2.866218 2.80391 q 2.679291,0 4.984728,0.996946 2.305437,0.996946 4.050087,2.7416 1.74466,1.744655 2.74161,4.112401 0.99694,2.305435 0.99694,4.922415 h -8.474037 -1.246182 q -0.498473,0 -0.249237,-0.37385 0.623091,-1.18387 0.06231,-2.18082 -0.498473,-0.99694 -1.121564,-1.30849 -0.872328,-0.373855 -1.744655,-0.373855 h -2.80391 -2.866218 q -1.744655,0 -2.990837,1.246185 -1.246182,1.24618 -1.246182,2.99083 0,1.80697 1.246182,3.05315 1.246182,1.24618 2.990837,1.24618 h 2.866218 z"
         style="font-family:'Casino Flat';-inkscape-font-specification:'Casino Flat, Normal';stroke:#ffffff;stroke-width:3;stroke-linecap:round;stroke-linejoin:round;stroke-miterlimit:4;stroke-dasharray:none;paint-order:stroke markers fill"
         id="path7917" />
      <path
         d="m 119.58585,127.99493 q 0,3.98778 1.43311,5.17165 0.12461,0.12462 0.0623,0.31155 0,0.18692 -0.31154,0.18692 h -10.90409 q -0.31155,0 -0.37386,-0.18692 0,-0.18693 0.18693,-0.31155 1.3708,-1.18387 1.3708,-5.17165 V 96.778066 q 0,-4.050091 -1.3708,-5.171655 -0.49847,-0.498473 0.18693,-0.498473 h 6.854 2.86622 1.18387 q 0.62309,0 0.24924,0.498473 -1.43311,1.059255 -1.43311,5.171655 v 2.80391 5.171654 9.03482 11.34026 z"
         style="font-family:'Casino Flat';-inkscape-font-specification:'Casino Flat, Normal';stroke:#ffffff;stroke-width:3;stroke-linecap:round;stroke-linejoin:round;stroke-miterlimit:4;stroke-dasharray:none;paint-order:stroke markers fill"
         id="path7919" />
      <path
         d="m 153.10807,127.99493 q 0,3.92547 1.43311,5.17165 0.18693,0.12462 0.12462,0.31155 -0.0623,0.18692 -0.31154,0.18692 h -10.96641 q -0.24923,0 -0.31154,-0.18692 -0.0623,-0.18693 0.12462,-0.31155 1.12156,-0.93464 1.30849,-3.61393 0.12462,-1.12156 -0.12462,-1.99389 -0.18693,-0.93463 -0.87233,-1.80696 l -10.281,-14.33109 v 5.23396 2.80391 8.53635 q 0,3.92547 1.43311,5.17165 0.18693,0.12462 0.12462,0.31155 -0.0623,0.18692 -0.31155,0.18692 h -10.9664 q -0.24924,0 -0.31155,-0.18692 -0.0623,-0.18693 0.12462,-0.31155 1.43311,-1.24618 1.43311,-5.17165 v -2.86622 -28.350644 q 0,-4.050091 -1.43311,-5.171655 -0.18692,-0.186927 -0.12462,-0.311545 0.0623,-0.186928 0.31155,-0.186928 h 10.9664 q 0.24924,0 0.31155,0.186928 0.0623,0.124618 -0.12462,0.311545 -0.81002,0.623091 -1.18387,2.367746 -0.24924,1.308491 -0.0623,2.367746 0.24923,0.996945 0.99694,2.0562 l 10.2187,14.268787 v -4.54857 -5.67013 -5.670124 q 0,-4.050091 -1.43311,-5.171655 -0.18693,-0.186927 -0.12462,-0.311545 0.0623,-0.186928 0.31154,-0.186928 h 10.96641 q 0.24923,0 0.31154,0.186928 0.0623,0.124618 -0.12462,0.311545 -1.43311,1.121564 -1.43311,5.171655 v 31.216864 z"
         style="font-family:'Casino Flat';-inkscape-font-specification:'Casino Flat, Normal';stroke:#ffffff;stroke-width:3;stroke-linecap:round;stroke-linejoin:round;stroke-miterlimit:4;stroke-dasharray:none;paint-order:stroke markers fill"
         id="path7921" />
      <path
         d="m 174.41767,91.481793 q 2.92853,0 5.4832,1.121564 2.61698,1.121564 4.54856,3.053146 1.93159,1.931582 3.05315,4.548567 1.12156,2.55467 1.12156,5.4832 v 14.20647 q 0,2.92853 -1.12156,5.54551 -1.12156,2.55468 -3.05315,4.48626 -1.93158,1.93158 -4.54856,3.05314 -2.55467,1.05926 -5.4832,1.05926 h -2.80391 q -2.92853,0 -5.54551,-1.05926 -2.55467,-1.12156 -4.48626,-3.05314 -1.93158,-1.93158 -3.05314,-4.48626 -1.12157,-2.61698 -1.12157,-5.54551 v -14.20647 q 0,-2.92853 1.12157,-5.4832 1.12156,-2.616985 3.05314,-4.548567 1.93159,-1.931582 4.48626,-3.053146 2.61698,-1.121564 5.54551,-1.121564 z m 0,34.083077 q 2.36774,0 3.98778,-1.62004 1.68235,-1.68234 1.68235,-4.05009 v -5.67013 -2.86621 -5.67013 q 0,-2.36775 -1.68235,-3.98778 -1.62004,-1.68235 -3.98778,-1.68235 h -2.80391 q -1.18387,0 -2.24313,0.43616 -0.99694,0.43617 -1.80696,1.24619 -0.74771,0.7477 -1.18388,1.80696 -0.43616,0.99695 -0.43616,2.18082 v 5.67013 2.86621 5.67013 q 0,1.18388 0.43616,2.24313 0.43617,0.99695 1.18388,1.80696 0.81002,0.74771 1.80696,1.18388 1.05926,0.43616 2.24313,0.43616 z"
         style="font-family:'Casino Flat';-inkscape-font-specification:'Casino Flat, Normal';stroke:#ffffff;stroke-width:3;stroke-linecap:round;stroke-linejoin:round;stroke-miterlimit:4;stroke-dasharray:none;paint-order:stroke markers fill"
         id="path7923" />
    </g>
    <g
       aria-label="CASINO"
       id="g8037"
       style="font-size:62.3091px;line-height:1.25;font-family:'Rose Of Baltimore';-inkscape-font-specification:'Rose Of Baltimore';fill:#800080;stroke-width:0.649052">
      <path
         d="m 30.857848,119.45858 h 8.536347 q 0,2.92853 -1.121564,5.54551 -1.121564,2.55467 -3.053146,4.48625 -1.931582,1.93159 -4.548564,3.05315 -2.554673,1.12156 -5.483201,1.12156 h -2.866219 q -2.928527,0 -5.54551,-1.12156 -2.554673,-1.12156 -4.486255,-3.05315 -1.931582,-1.93158 -3.0531459,-4.48625 -1.0592547,-2.61698 -1.0592547,-5.54551 V 105.2521 q 0,-2.92852 1.0592547,-5.483197 1.1215639,-2.616982 3.0531459,-4.548564 1.931582,-1.931582 4.486255,-3.053146 2.616983,-1.121564 5.54551,-1.121564 h 2.866219 q 2.928528,0 5.483201,1.121564 2.616982,1.121564 4.548564,3.053146 1.931582,1.931582 3.053146,4.548564 1.121564,2.554677 1.121564,5.483197 h -8.536347 -1.557727 q -0.498473,0 -0.186928,-0.43616 1.059255,-1.43311 -0.124618,-3.48931 -0.249236,-0.31154 -0.498473,-0.56078 -0.249236,-0.31155 -0.623091,-0.49847 -1.183873,-0.685404 -2.679291,-0.685404 h -2.866219 q -2.367746,0 -4.050091,1.682344 -1.620037,1.62004 -1.620037,3.98778 v 5.67013 2.80391 5.73244 q 0,2.36775 1.620037,4.05009 1.682345,1.62004 4.050091,1.62004 h 2.866219 q 0.747709,0 1.3708,-0.18693 0.623091,-0.18693 1.308491,-0.49847 0.623091,-0.31155 1.121564,-1.12157 1.183873,-1.99389 0.124618,-3.427 -0.311545,-0.43616 0.186928,-0.43616 z"
         style="font-family:'Casino Flat';-inkscape-font-specification:'Casino Flat, Normal'"
         id="path8025" />
      <path
         d="m 72.729503,133.16658 q 0.186927,0.18693 0.124618,0.37386 -0.06231,0.12461 -0.311546,0.12461 H 61.576174 q -0.249237,0 -0.311546,-0.12461 -0.06231,-0.18693 0.124618,-0.37386 1.43311,-1.12156 1.43311,-5.17165 V 122.3248 H 51.41979 v 5.67013 q 0,4.05009 1.433109,5.17165 0.498473,0.49847 -0.186927,0.49847 H 41.69957 q -0.249236,0 -0.311545,-0.12461 -0.06231,-0.18693 0.124618,-0.37386 1.433109,-1.12156 1.433109,-5.17165 v -8.47404 -5.04704 q 0,-2.67929 0.498473,-5.10935 0.498473,-2.49236 1.557728,-4.98472 l 3.240073,-7.539404 q 0.810018,-3.987783 -0.373855,-5.233965 -0.186927,-0.186927 -0.124618,-0.311545 0.06231,-0.186928 0.311546,-0.186928 h 18.131948 q 0.623091,0 0.249237,0.498473 -1.183873,1.121564 -0.436164,5.233965 l 3.240073,7.539404 q 1.059255,2.49236 1.557728,4.98472 0.498472,2.43006 0.498472,5.10935 v 5.04704 8.47404 q 0,4.05009 1.43311,5.17165 z M 62.822356,113.85076 Q 62.635428,110.673 61.451555,107.74447 L 57.152227,97.712703 52.852899,107.74447 q -1.308491,2.92853 -1.3708,6.10629 z"
         style="font-family:'Casino Flat';-inkscape-font-specification:'Casino Flat, Normal'"
         id="path8027" />
      <path
         d="m 93.914575,108.18063 q 2.679291,0 4.984728,0.99695 2.305437,0.99694 4.050087,2.7416 1.74466,1.74465 2.74161,4.05009 0.99694,2.30544 0.99694,4.98473 0,2.61698 -0.99694,4.98473 -0.99695,2.30543 -2.74161,4.05009 -1.74465,1.68234 -4.050087,2.67929 -2.305437,0.99694 -4.984728,0.99694 h -2.80391 -2.866218 q -2.616983,0 -4.984728,-0.99694 -2.305437,-0.99695 -4.050092,-2.67929 -1.682346,-1.74466 -2.679291,-4.05009 -0.996946,-2.36775 -0.996946,-4.98473 h 8.474038 1.183873 q 0.498473,0 0.311545,0.37385 -0.6854,1.24618 -0.124618,2.18082 0.560782,0.93464 1.183873,1.30849 0.810018,0.37386 1.682346,0.37386 h 2.866218 2.80391 q 1.806964,0 3.053146,-1.24619 1.246182,-1.24618 1.246182,-2.99083 0,-1.80697 -1.246182,-3.05315 -1.246182,-1.24618 -3.053146,-1.24618 h -2.80391 -2.866218 q -2.616983,0 -4.984728,-0.99695 -2.305437,-0.99694 -4.050092,-2.7416 -1.682346,-1.74465 -2.679291,-4.05009 -0.996946,-2.36774 -0.996946,-4.98473 0,-2.61698 0.996946,-4.922415 0.996945,-2.367746 2.679291,-4.112401 1.744655,-1.744654 4.050092,-2.7416 2.367745,-0.996946 4.984728,-0.996946 h 2.866218 2.80391 q 2.679291,0 4.984728,0.996946 2.305437,0.996946 4.050087,2.7416 1.74466,1.744655 2.74161,4.112401 0.99694,2.305435 0.99694,4.922415 h -8.474037 -1.246182 q -0.498473,0 -0.249237,-0.37385 0.623091,-1.18387 0.06231,-2.18082 -0.498473,-0.99694 -1.121564,-1.30849 -0.872328,-0.373855 -1.744655,-0.373855 h -2.80391 -2.866218 q -1.744655,0 -2.990837,1.246185 -1.246182,1.24618 -1.246182,2.99083 0,1.80697 1.246182,3.05315 1.246182,1.24618 2.990837,1.24618 h 2.866218 z"
         style="font-family:'Casino Flat';-inkscape-font-specification:'Casino Flat, Normal'"
         id="path8029" />
      <path
         d="m 119.58585,127.99493 q 0,3.98778 1.43311,5.17165 0.12461,0.12462 0.0623,0.31155 0,0.18692 -0.31154,0.18692 h -10.90409 q -0.31155,0 -0.37386,-0.18692 0,-0.18693 0.18693,-0.31155 1.3708,-1.18387 1.3708,-5.17165 V 96.778066 q 0,-4.050091 -1.3708,-5.171655 -0.49847,-0.498473 0.18693,-0.498473 h 6.854 2.86622 1.18387 q 0.62309,0 0.24924,0.498473 -1.43311,1.059255 -1.43311,5.171655 v 2.80391 5.171654 9.03482 11.34026 z"
         style="font-family:'Casino Flat';-inkscape-font-specification:'Casino Flat, Normal'"
         id="path8031" />
      <path
         d="m 153.10807,127.99493 q 0,3.92547 1.43311,5.17165 0.18693,0.12462 0.12462,0.31155 -0.0623,0.18692 -0.31154,0.18692 h -10.96641 q -0.24923,0 -0.31154,-0.18692 -0.0623,-0.18693 0.12462,-0.31155 1.12156,-0.93464 1.30849,-3.61393 0.12462,-1.12156 -0.12462,-1.99389 -0.18693,-0.93463 -0.87233,-1.80696 l -10.281,-14.33109 v 5.23396 2.80391 8.53635 q 0,3.92547 1.43311,5.17165 0.18693,0.12462 0.12462,0.31155 -0.0623,0.18692 -0.31155,0.18692 h -10.9664 q -0.24924,0 -0.31155,-0.18692 -0.0623,-0.18693 0.12462,-0.31155 1.43311,-1.24618 1.43311,-5.17165 v -2.86622 -28.350644 q 0,-4.050091 -1.43311,-5.171655 -0.18692,-0.186927 -0.12462,-0.311545 0.0623,-0.186928 0.31155,-0.186928 h 10.9664 q 0.24924,0 0.31155,0.186928 0.0623,0.124618 -0.12462,0.311545 -0.81002,0.623091 -1.18387,2.367746 -0.24924,1.308491 -0.0623,2.367746 0.24923,0.996945 0.99694,2.0562 l 10.2187,14.268787 v -4.54857 -5.67013 -5.670124 q 0,-4.050091 -1.43311,-5.171655 -0.18693,-0.186927 -0.12462,-0.311545 0.0623,-0.186928 0.31154,-0.186928 h 10.96641 q 0.24923,0 0.31154,0.186928 0.0623,0.124618 -0.12462,0.311545 -1.43311,1.121564 -1.43311,5.171655 v 31.216864 z"
         style="font-family:'Casino Flat';-inkscape-font-specification:'Casino Flat, Normal'"
         id="path8033" />
      <path
         d="m 174.41767,91.481793 q 2.92853,0 5.4832,1.121564 2.61698,1.121564 4.54856,3.053146 1.93159,1.931582 3.05315,4.548567 1.12156,2.55467 1.12156,5.4832 v 14.20647 q 0,2.92853 -1.12156,5.54551 -1.12156,2.55468 -3.05315,4.48626 -1.93158,1.93158 -4.54856,3.05314 -2.55467,1.05926 -5.4832,1.05926 h -2.80391 q -2.92853,0 -5.54551,-1.05926 -2.55467,-1.12156 -4.48626,-3.05314 -1.93158,-1.93158 -3.05314,-4.48626 -1.12157,-2.61698 -1.12157,-5.54551 v -14.20647 q 0,-2.92853 1.12157,-5.4832 1.12156,-2.616985 3.05314,-4.548567 1.93159,-1.931582 4.48626,-3.053146 2.61698,-1.121564 5.54551,-1.121564 z m 0,34.083077 q 2.36774,0 3.98778,-1.62004 1.68235,-1.68234 1.68235,-4.05009 v -5.67013 -2.86621 -5.67013 q 0,-2.36775 -1.68235,-3.98778 -1.62004,-1.68235 -3.98778,-1.68235 h -2.80391 q -1.18387,0 -2.24313,0.43616 -0.99694,0.43617 -1.80696,1.24619 -0.74771,0.7477 -1.18388,1.80696 -0.43616,0.99695 -0.43616,2.18082 v 5.67013 2.86621 5.67013 q 0,1.18388 0.43616,2.24313 0.43617,0.99695 1.18388,1.80696 0.81002,0.74771 1.80696,1.18388 1.05926,0.43616 2.24313,0.43616 z"
         style="font-family:'Casino Flat';-inkscape-font-specification:'Casino Flat, Normal'"
         id="path8035" />
    </g>
  </g>
</svg>
