<?xml version="1.0" encoding="UTF-8" standalone="no"?>
<!-- Created with Inkscape (http://www.inkscape.org/) -->

<svg
   width="204.98355mm"
   height="47.185844mm"
   viewBox="0 0 204.98355 47.185844"
   version="1.1"
   id="svg5"
   inkscape:version="1.1 (c68e22c387, 2021-05-23)"
   sodipodi:docname="auto-strategyrts.svg"
   xmlns:inkscape="http://www.inkscape.org/namespaces/inkscape"
   xmlns:sodipodi="http://sodipodi.sourceforge.net/DTD/sodipodi-0.dtd"
   xmlns="http://www.w3.org/2000/svg"
   xmlns:svg="http://www.w3.org/2000/svg">
  <sodipodi:namedview
     id="namedview7"
     pagecolor="#ffffff"
     bordercolor="#666666"
     borderopacity="1.0"
     inkscape:pageshadow="2"
     inkscape:pageopacity="0.0"
     inkscape:pagecheckerboard="0"
     inkscape:document-units="mm"
     showgrid="false"
     fit-margin-top="0"
     fit-margin-left="0"
     fit-margin-right="0"
     fit-margin-bottom="0"
     inkscape:zoom="0.94867184"
     inkscape:cx="388.4378"
     inkscape:cy="140.196"
     inkscape:window-width="1920"
     inkscape:window-height="1138"
     inkscape:window-x="-8"
     inkscape:window-y="-8"
     inkscape:window-maximized="1"
     inkscape:current-layer="layer1" />
  <defs
     id="defs2" />
  <g
     inkscape:label="Calque 1"
     inkscape:groupmode="layer"
     id="layer1"
     transform="translate(-2.5081297,-111.11011)">
    <rect
       style="fill:#ffffff;fill-rule:evenodd;stroke:none;stroke-width:4.08881;stroke-linecap:round;stroke-linejoin:round;stroke-miterlimit:4;stroke-dasharray:none;paint-order:stroke markers fill"
       id="rect5366"
       width="50.486057"
       height="7.8884463"
       x="36.505272"
       y="132.54228" />
    <rect
       style="fill:#ffffff;fill-rule:evenodd;stroke:none;stroke-width:4.30662;stroke-linecap:round;stroke-linejoin:round;stroke-miterlimit:4;stroke-dasharray:none;paint-order:stroke markers fill"
       id="rect5470"
       width="56.007969"
       height="7.8884463"
       x="122.23032"
       y="132.54228" />
    <rect
       style="fill:#ffffff;fill-rule:evenodd;stroke:none;stroke-width:4.72396;stroke-linecap:round;stroke-linejoin:round;stroke-miterlimit:4;stroke-dasharray:none;paint-order:stroke markers fill"
       id="rect5132"
       width="74.940239"
       height="20.904383"
       x="12.965873"
       y="113.11012" />
    <rect
       style="fill:#ffffff;fill-rule:evenodd;stroke:none;stroke-width:4.53365;stroke-linecap:round;stroke-linejoin:round;stroke-miterlimit:4;stroke-dasharray:none;paint-order:stroke markers fill"
       id="rect5236"
       width="69.023903"
       height="20.904383"
       x="123.03257"
       y="113.11012" />
    <rect
       style="fill:#ffffff;fill-rule:evenodd;stroke:none;stroke-width:5.58423;stroke-linecap:round;stroke-linejoin:round;stroke-miterlimit:4;stroke-dasharray:none;paint-order:stroke markers fill"
       id="rect5238"
       width="124.24303"
       height="17.619511"
       x="43.120399"
       y="137.09889" />
    <rect
       style="fill:#ffffff;fill-rule:evenodd;stroke:none;stroke-width:4;stroke-linecap:round;stroke-linejoin:round;stroke-miterlimit:4;stroke-dasharray:none;paint-order:stroke markers fill"
       id="rect4857"
       width="9.8605576"
       height="9.6633463"
       x="62.790604"
       y="116.9626" />
    <rect
       style="fill:#ffffff;fill-rule:evenodd;stroke:none;stroke-width:4;stroke-linecap:round;stroke-linejoin:round;stroke-miterlimit:4;stroke-dasharray:none;paint-order:stroke markers fill"
       id="rect4983"
       width="9.8605576"
       height="9.6633463"
       x="75.490616"
       y="139.71661" />
    <rect
       style="fill:#ffffff;fill-rule:evenodd;stroke:none;stroke-width:6.82564;stroke-linecap:round;stroke-linejoin:round;stroke-miterlimit:4;stroke-dasharray:none;paint-order:stroke markers fill"
       id="rect4985"
       width="24.256971"
       height="11.438247"
       x="134.22801"
       y="139.71661" />
    <rect
       style="fill:#ffffff;fill-rule:evenodd;stroke:none;stroke-width:5.07897;stroke-linecap:round;stroke-linejoin:round;stroke-miterlimit:4;stroke-dasharray:none;paint-order:stroke markers fill"
       id="rect4987"
       width="9.8605576"
       height="15.579681"
       x="74.961449"
       y="116.9626" />
    <rect
       style="fill:#ffffff;fill-rule:evenodd;stroke:none;stroke-width:4.64231;stroke-linecap:round;stroke-linejoin:round;stroke-miterlimit:4;stroke-dasharray:none;paint-order:stroke markers fill"
       id="rect4989"
       width="9.8605576"
       height="13.015936"
       x="14.107227"
       y="115.38491" />
    <g
       id="g4454"
       style="fill:#800000;stroke:#ffffff;stroke-width:4;stroke-linecap:round;stroke-linejoin:round;stroke-miterlimit:4;stroke-dasharray:none;paint-order:stroke markers fill"
       transform="translate(0,29.976096)">
      <g
         aria-label="REAL TIME"
         id="text980"
         style="font-size:29.1138px;line-height:1.25;font-family:'Rose Of Baltimore';-inkscape-font-specification:'Rose Of Baltimore';stroke:#ffffff;stroke-width:4;stroke-linecap:round;stroke-linejoin:round;stroke-miterlimit:4;stroke-dasharray:none;paint-order:stroke markers fill">
        <path
           d="M 14.722455,103.58022 H 9.6150627 V 88.24141 h 5.1073923 z m 3.410474,-5.107389 q 4.026022,-2.611924 5.490031,-5.406849 0.682094,-1.297644 0.682094,-2.462196 0,-3.177563 -4.475207,-4.059295 H 4.5076704 L 9.6150627,83.134017 H 26.650795 q 3.99275,0.915005 3.99275,5.556577 0,2.878107 -1.547191,5.673032 -1.647009,2.977926 -4.142478,4.109205 l 6.804311,5.107389 h -8.517866 z"
           style="font-family:Starcraft;-inkscape-font-specification:'Starcraft, Normal';stroke:#ffffff;stroke-width:4;stroke-linecap:round;stroke-linejoin:round;stroke-miterlimit:4;stroke-dasharray:none;paint-order:stroke markers fill"
           id="path4592" />
        <path
           d="m 32.589997,86.544491 5.107393,-3.410474 h 20.446205 l -6.820947,3.410474 z M 49.625729,103.58022 H 37.69739 V 88.24141 h 5.107392 v 3.410473 h 8.517866 l -5.107392,3.410474 h -3.410474 v 5.107393 H 56.43004 Z"
           style="font-family:Starcraft;-inkscape-font-specification:'Starcraft, Normal';stroke:#ffffff;stroke-width:4;stroke-linecap:round;stroke-linejoin:round;stroke-miterlimit:4;stroke-dasharray:none;paint-order:stroke markers fill"
           id="path4594" />
        <path
           d="m 73.415802,83.134017 6.820947,20.446203 h -5.124028 q -1.863284,-5.173935 -2.861471,-7.569585 -2.196012,-5.30703 -3.776476,-7.037221 -1.297644,-1.430736 -3.1942,-1.929829 -0.74864,-0.199638 -3.793112,-0.499094 L 68.30841,83.134017 Z M 63.201017,98.472831 61.487462,103.58022 H 56.38007 l 5.107392,-15.272265 h 5.107392 l -2.245921,6.754402 h 5.656395 l 1.713555,3.410474 z"
           style="font-family:Starcraft;-inkscape-font-specification:'Starcraft, Normal';stroke:#ffffff;stroke-width:4;stroke-linecap:round;stroke-linejoin:round;stroke-miterlimit:4;stroke-dasharray:none;paint-order:stroke markers fill"
           id="path4596" />
        <path
           d="m 82.798717,86.544491 h -5.107392 l 5.107392,-3.410474 h 5.107393 v 17.035733 h 13.62526 l -6.804313,3.41047 h -11.92834 z"
           style="font-family:Starcraft;-inkscape-font-specification:'Starcraft, Normal';stroke:#ffffff;stroke-width:4;stroke-linecap:round;stroke-linejoin:round;stroke-miterlimit:4;stroke-dasharray:none;paint-order:stroke markers fill"
           id="path4598" />
        <path
           d="m 109.16743,86.544491 5.10739,-3.410474 h 20.44621 l -1.71356,3.410474 h -17.03573 l -2.37901,1.696919 h -2.72838 z m 17.03573,13.625259 -3.41047,6.82095 -3.41048,-3.41048 V 88.24141 h 6.82095 z"
           style="font-family:Starcraft;-inkscape-font-specification:'Starcraft, Normal';stroke:#ffffff;stroke-width:4;stroke-linecap:round;stroke-linejoin:round;stroke-miterlimit:4;stroke-dasharray:none;paint-order:stroke markers fill"
           id="path4600" />
        <path
           d="m 143.20555,100.16975 -3.41047,6.82095 -3.41048,-3.41048 V 83.134017 h 6.82095 z"
           style="font-family:Starcraft;-inkscape-font-specification:'Starcraft, Normal';stroke:#ffffff;stroke-width:4;stroke-linecap:round;stroke-linejoin:round;stroke-miterlimit:4;stroke-dasharray:none;paint-order:stroke markers fill"
           id="path4602" />
        <path
           d="m 150.50892,88.391138 h 5.10739 v 15.189082 h -5.10739 z m 13.62526,15.189082 -5.10739,-10.214782 q -1.34755,-2.678469 -1.79674,-3.460383 -0.88173,-1.497281 -1.64701,-2.06292 -1.76346,-1.297644 -3.90957,-1.297644 h -6.27194 l 5.10739,-3.410474 h 7.83577 l 5.82276,13.225984 3.3772,-8.118591 3.41048,1.713555 z m 8.51787,-15.33881 -3.41048,-1.696919 3.41048,-3.410474 h 5.10739 v 20.446203 h -5.10739 z"
           style="font-family:Starcraft;-inkscape-font-specification:'Starcraft, Normal';stroke:#ffffff;stroke-width:4;stroke-linecap:round;stroke-linejoin:round;stroke-miterlimit:4;stroke-dasharray:none;paint-order:stroke markers fill"
           id="path4604" />
        <path
           d="m 179.93873,86.544491 5.10739,-3.410474 h 20.44621 l -6.82095,3.410474 z m 17.03573,17.035729 H 185.04612 V 88.24141 h 5.1074 v 3.410473 h 8.51786 l -5.10739,3.410474 h -3.41047 v 5.107393 h 13.62525 z"
           style="font-family:Starcraft;-inkscape-font-specification:'Starcraft, Normal';stroke:#ffffff;stroke-width:4;stroke-linecap:round;stroke-linejoin:round;stroke-miterlimit:4;stroke-dasharray:none;paint-order:stroke markers fill"
           id="path4606" />
      </g>
      <g
         aria-label="STRATEGY"
         id="text2930"
         style="font-size:22.3751px;line-height:1.25;font-family:'Rose Of Baltimore';-inkscape-font-specification:'Rose Of Baltimore';stroke:#ffffff;stroke-width:4;stroke-linecap:round;stroke-linejoin:round;stroke-miterlimit:4;stroke-dasharray:none;paint-order:stroke markers fill">
        <path
           d="m 34.492999,119.50518 q 0.537003,1.57265 2.557154,1.57265 h 5.012023 q 1.623792,0 1.623792,-0.75436 0,-1.17629 -4.590091,-4.52616 -1.853937,-1.29137 -5.549025,-3.88688 h 3.925232 q 4.705164,2.72337 7.939964,5.4851 3.452158,2.95351 3.452158,4.70516 0,1.13794 -1.57265,1.59822 H 29.62162 Z m 16.071714,-11.51998 -2.621083,3.92523 -2.301439,-1.30415 H 33.546852 q 0,-1.21464 0.703218,-1.91786 0.703217,-0.70322 1.917865,-0.70322 z"
           style="font-family:Starcraft;-inkscape-font-specification:'Starcraft, Normal';stroke:#ffffff;stroke-width:4;stroke-linecap:round;stroke-linejoin:round;stroke-miterlimit:4;stroke-dasharray:none;paint-order:stroke markers fill"
           id="path4609" />
        <path
           d="m 49.976513,110.60628 3.925232,-2.62108 h 15.713712 l -1.316934,2.62108 h -13.09263 l -1.828365,1.30415 h -2.096866 z m 13.09263,10.47155 -2.621083,5.24217 -2.621083,-2.62109 v -11.78848 h 5.242166 z"
           style="font-family:Starcraft;-inkscape-font-specification:'Starcraft, Normal';stroke:#ffffff;stroke-width:4;stroke-linecap:round;stroke-linejoin:round;stroke-miterlimit:4;stroke-dasharray:none;paint-order:stroke markers fill"
           id="path4611" />
        <path
           d="m 77.043968,123.69891 h -3.925232 v -11.78848 h 3.925232 z m 2.621083,-3.92523 q 3.094157,-2.00736 4.219304,-4.15537 0.524217,-0.99729 0.524217,-1.8923 0,-2.44208 -3.439372,-3.11973 H 69.193505 l 3.925231,-2.62108 h 13.09263 q 3.068585,0.70322 3.068585,4.27045 0,2.21194 -1.189077,4.35995 -1.265791,2.28865 -3.183657,3.15808 l 5.22938,3.92523 h -6.546314 z"
           style="font-family:Starcraft;-inkscape-font-specification:'Starcraft, Normal';stroke:#ffffff;stroke-width:4;stroke-linecap:round;stroke-linejoin:round;stroke-miterlimit:4;stroke-dasharray:none;paint-order:stroke markers fill"
           id="path4613" />
        <path
           d="m 104.84018,107.9852 5.24217,15.71371 h -3.93802 q -1.432,-3.97637 -2.19915,-5.81752 -1.68772,-4.07866 -2.90237,-5.40838 -0.99729,-1.09958 -2.454868,-1.48315 -0.575359,-0.15343 -2.915156,-0.38358 l 5.242164,-2.62108 z m -7.850459,11.78848 -1.316935,3.92523 h -3.925231 l 3.925231,-11.73733 h 3.925232 l -1.726079,5.19102 h 4.347161 l 1.31694,2.62108 z"
           style="font-family:Starcraft;-inkscape-font-specification:'Starcraft, Normal';stroke:#ffffff;stroke-width:4;stroke-linecap:round;stroke-linejoin:round;stroke-miterlimit:4;stroke-dasharray:none;paint-order:stroke markers fill"
           id="path4615" />
        <path
           d="m 107.58909,110.60628 3.92523,-2.62108 h 15.71371 l -1.31693,2.62108 h -13.09263 l -1.82837,1.30415 h -2.09686 z m 13.09263,10.47155 -2.62108,5.24217 -2.62109,-2.62109 v -11.78848 h 5.24217 z"
           style="font-family:Starcraft;-inkscape-font-specification:'Starcraft, Normal';stroke:#ffffff;stroke-width:4;stroke-linecap:round;stroke-linejoin:round;stroke-miterlimit:4;stroke-dasharray:none;paint-order:stroke markers fill"
           id="path4617" />
        <path
           d="m 126.80608,110.60628 3.92523,-2.62108 h 15.71371 l -5.24217,2.62108 z m 13.09263,13.09263 h -9.1674 v -11.78848 h 3.92523 v 2.62109 h 6.54631 l -3.92523,2.62108 h -2.62108 v 3.92523 h 10.47155 z"
           style="font-family:Starcraft;-inkscape-font-specification:'Starcraft, Normal';stroke:#ffffff;stroke-width:4;stroke-linecap:round;stroke-linejoin:round;stroke-miterlimit:4;stroke-dasharray:none;paint-order:stroke markers fill"
           id="path4619" />
        <path
           d="m 144.47598,110.60628 3.92523,-2.62108 h 11.78849 l -2.62109,3.92523 -2.62108,-1.30415 z m 14.39678,5.24217 q -0.12786,3.40102 -1.59822,5.45952 -1.71329,2.39094 -4.94809,2.39094 -2.44209,0 -4.24488,-1.18907 -1.84115,-1.21465 -2.74894,-3.45216 -0.85665,-2.10965 -0.85665,-4.52616 v -2.62109 h 3.92523 v 2.62109 q 0,6.57188 3.92524,6.54631 1.75165,-0.0128 2.30143,-1.89229 0.25572,-0.86944 0.31965,-3.33709 z"
           style="font-family:Starcraft;-inkscape-font-specification:'Starcraft, Normal';stroke:#ffffff;stroke-width:4;stroke-linecap:round;stroke-linejoin:round;stroke-miterlimit:4;stroke-dasharray:none;paint-order:stroke markers fill"
           id="path4621" />
        <path
           d="m 173.83207,115.18359 v 5.89424 l -2.62109,5.24217 -2.62108,-2.62109 v -8.51532 q -3.20923,-3.2348 -6.30338,-4.1298 -1.45758,-0.42193 -2.86402,-0.44751 l 6.54632,-2.62108 5.24216,6.0221 5.22938,-6.0221 h 3.93802 z"
           style="font-family:Starcraft;-inkscape-font-specification:'Starcraft, Normal';stroke:#ffffff;stroke-width:4;stroke-linecap:round;stroke-linejoin:round;stroke-miterlimit:4;stroke-dasharray:none;paint-order:stroke markers fill"
           id="path4623" />
      </g>
    </g>
    <g
       id="g4761"
       style="fill:#8800aa"
       transform="translate(0,29.976096)">
      <g
         aria-label="REAL TIME"
         id="g4741"
         style="font-size:29.1138px;line-height:1.25;font-family:'Rose Of Baltimore';-inkscape-font-specification:'Rose Of Baltimore';fill:#8800aa;stroke-width:0.303267">
        <path
           d="M 14.722455,103.58022 H 9.6150627 V 88.24141 h 5.1073923 z m 3.410474,-5.107389 q 4.026022,-2.611924 5.490031,-5.406849 0.682094,-1.297644 0.682094,-2.462196 0,-3.177563 -4.475207,-4.059295 H 4.5076704 L 9.6150627,83.134017 H 26.650795 q 3.99275,0.915005 3.99275,5.556577 0,2.878107 -1.547191,5.673032 -1.647009,2.977926 -4.142478,4.109205 l 6.804311,5.107389 h -8.517866 z"
           style="font-family:Starcraft;-inkscape-font-specification:'Starcraft, Normal';fill:#8800aa"
           id="path4725" />
        <path
           d="m 32.589997,86.544491 5.107393,-3.410474 h 20.446205 l -6.820947,3.410474 z M 49.625729,103.58022 H 37.69739 V 88.24141 h 5.107392 v 3.410473 h 8.517866 l -5.107392,3.410474 h -3.410474 v 5.107393 H 56.43004 Z"
           style="font-family:Starcraft;-inkscape-font-specification:'Starcraft, Normal';fill:#8800aa"
           id="path4727" />
        <path
           d="m 73.415802,83.134017 6.820947,20.446203 h -5.124028 q -1.863284,-5.173935 -2.861471,-7.569585 -2.196012,-5.30703 -3.776476,-7.037221 -1.297644,-1.430736 -3.1942,-1.929829 -0.74864,-0.199638 -3.793112,-0.499094 L 68.30841,83.134017 Z M 63.201017,98.472831 61.487462,103.58022 H 56.38007 l 5.107392,-15.272265 h 5.107392 l -2.245921,6.754402 h 5.656395 l 1.713555,3.410474 z"
           style="font-family:Starcraft;-inkscape-font-specification:'Starcraft, Normal';fill:#8800aa"
           id="path4729" />
        <path
           d="m 82.798717,86.544491 h -5.107392 l 5.107392,-3.410474 h 5.107393 v 17.035733 h 13.62526 l -6.804313,3.41047 h -11.92834 z"
           style="font-family:Starcraft;-inkscape-font-specification:'Starcraft, Normal';fill:#8800aa"
           id="path4731" />
        <path
           d="m 109.16743,86.544491 5.10739,-3.410474 h 20.44621 l -1.71356,3.410474 h -17.03573 l -2.37901,1.696919 h -2.72838 z m 17.03573,13.625259 -3.41047,6.82095 -3.41048,-3.41048 V 88.24141 h 6.82095 z"
           style="font-family:Starcraft;-inkscape-font-specification:'Starcraft, Normal';fill:#8800aa"
           id="path4733" />
        <path
           d="m 143.20555,100.16975 -3.41047,6.82095 -3.41048,-3.41048 V 83.134017 h 6.82095 z"
           style="font-family:Starcraft;-inkscape-font-specification:'Starcraft, Normal';fill:#8800aa"
           id="path4735" />
        <path
           d="m 150.50892,88.391138 h 5.10739 v 15.189082 h -5.10739 z m 13.62526,15.189082 -5.10739,-10.214782 q -1.34755,-2.678469 -1.79674,-3.460383 -0.88173,-1.497281 -1.64701,-2.06292 -1.76346,-1.297644 -3.90957,-1.297644 h -6.27194 l 5.10739,-3.410474 h 7.83577 l 5.82276,13.225984 3.3772,-8.118591 3.41048,1.713555 z m 8.51787,-15.33881 -3.41048,-1.696919 3.41048,-3.410474 h 5.10739 v 20.446203 h -5.10739 z"
           style="font-family:Starcraft;-inkscape-font-specification:'Starcraft, Normal';fill:#8800aa"
           id="path4737" />
        <path
           d="m 179.93873,86.544491 5.10739,-3.410474 h 20.44621 l -6.82095,3.410474 z m 17.03573,17.035729 H 185.04612 V 88.24141 h 5.1074 v 3.410473 h 8.51786 l -5.10739,3.410474 h -3.41047 v 5.107393 h 13.62525 z"
           style="font-family:Starcraft;-inkscape-font-specification:'Starcraft, Normal';fill:#8800aa"
           id="path4739" />
      </g>
      <g
         aria-label="STRATEGY"
         id="g4759"
         style="font-size:22.3751px;line-height:1.25;font-family:'Rose Of Baltimore';-inkscape-font-specification:'Rose Of Baltimore';fill:#8800aa;stroke-width:0.233072">
        <path
           d="m 34.492999,119.50518 q 0.537003,1.57265 2.557154,1.57265 h 5.012023 q 1.623792,0 1.623792,-0.75436 0,-1.17629 -4.590091,-4.52616 -1.853937,-1.29137 -5.549025,-3.88688 h 3.925232 q 4.705164,2.72337 7.939964,5.4851 3.452158,2.95351 3.452158,4.70516 0,1.13794 -1.57265,1.59822 H 29.62162 Z m 16.071714,-11.51998 -2.621083,3.92523 -2.301439,-1.30415 H 33.546852 q 0,-1.21464 0.703218,-1.91786 0.703217,-0.70322 1.917865,-0.70322 z"
           style="font-family:Starcraft;-inkscape-font-specification:'Starcraft, Normal';fill:#8800aa"
           id="path4743" />
        <path
           d="m 49.976513,110.60628 3.925232,-2.62108 h 15.713712 l -1.316934,2.62108 h -13.09263 l -1.828365,1.30415 h -2.096866 z m 13.09263,10.47155 -2.621083,5.24217 -2.621083,-2.62109 v -11.78848 h 5.242166 z"
           style="font-family:Starcraft;-inkscape-font-specification:'Starcraft, Normal';fill:#8800aa"
           id="path4745" />
        <path
           d="m 77.043968,123.69891 h -3.925232 v -11.78848 h 3.925232 z m 2.621083,-3.92523 q 3.094157,-2.00736 4.219304,-4.15537 0.524217,-0.99729 0.524217,-1.8923 0,-2.44208 -3.439372,-3.11973 H 69.193505 l 3.925231,-2.62108 h 13.09263 q 3.068585,0.70322 3.068585,4.27045 0,2.21194 -1.189077,4.35995 -1.265791,2.28865 -3.183657,3.15808 l 5.22938,3.92523 h -6.546314 z"
           style="font-family:Starcraft;-inkscape-font-specification:'Starcraft, Normal';fill:#8800aa"
           id="path4747" />
        <path
           d="m 104.84018,107.9852 5.24217,15.71371 h -3.93802 q -1.432,-3.97637 -2.19915,-5.81752 -1.68772,-4.07866 -2.90237,-5.40838 -0.99729,-1.09958 -2.454868,-1.48315 -0.575359,-0.15343 -2.915156,-0.38358 l 5.242164,-2.62108 z m -7.850459,11.78848 -1.316935,3.92523 h -3.925231 l 3.925231,-11.73733 h 3.925232 l -1.726079,5.19102 h 4.347161 l 1.31694,2.62108 z"
           style="font-family:Starcraft;-inkscape-font-specification:'Starcraft, Normal';fill:#8800aa"
           id="path4749" />
        <path
           d="m 107.58909,110.60628 3.92523,-2.62108 h 15.71371 l -1.31693,2.62108 h -13.09263 l -1.82837,1.30415 h -2.09686 z m 13.09263,10.47155 -2.62108,5.24217 -2.62109,-2.62109 v -11.78848 h 5.24217 z"
           style="font-family:Starcraft;-inkscape-font-specification:'Starcraft, Normal';fill:#8800aa"
           id="path4751" />
        <path
           d="m 126.80608,110.60628 3.92523,-2.62108 h 15.71371 l -5.24217,2.62108 z m 13.09263,13.09263 h -9.1674 v -11.78848 h 3.92523 v 2.62109 h 6.54631 l -3.92523,2.62108 h -2.62108 v 3.92523 h 10.47155 z"
           style="font-family:Starcraft;-inkscape-font-specification:'Starcraft, Normal';fill:#8800aa"
           id="path4753" />
        <path
           d="m 144.47598,110.60628 3.92523,-2.62108 h 11.78849 l -2.62109,3.92523 -2.62108,-1.30415 z m 14.39678,5.24217 q -0.12786,3.40102 -1.59822,5.45952 -1.71329,2.39094 -4.94809,2.39094 -2.44209,0 -4.24488,-1.18907 -1.84115,-1.21465 -2.74894,-3.45216 -0.85665,-2.10965 -0.85665,-4.52616 v -2.62109 h 3.92523 v 2.62109 q 0,6.57188 3.92524,6.54631 1.75165,-0.0128 2.30143,-1.89229 0.25572,-0.86944 0.31965,-3.33709 z"
           style="font-family:Starcraft;-inkscape-font-specification:'Starcraft, Normal';fill:#8800aa"
           id="path4755" />
        <path
           d="m 173.83207,115.18359 v 5.89424 l -2.62109,5.24217 -2.62108,-2.62109 v -8.51532 q -3.20923,-3.2348 -6.30338,-4.1298 -1.45758,-0.42193 -2.86402,-0.44751 l 6.54632,-2.62108 5.24216,6.0221 5.22938,-6.0221 h 3.93802 z"
           style="font-family:Starcraft;-inkscape-font-specification:'Starcraft, Normal';fill:#8800aa"
           id="path4757" />
      </g>
    </g>
    <g
       id="g5650"
       style="fill:#8800aa;fill-opacity:1"
       transform="translate(0,29.976096)">
      <g
         aria-label="REAL TIME"
         id="g5630"
         style="font-size:29.1138px;line-height:1.25;font-family:'Rose Of Baltimore';-inkscape-font-specification:'Rose Of Baltimore';fill:#8800aa;fill-opacity:1;stroke-width:0.303267">
        <path
           d="M 14.722455,103.58022 H 9.6150627 V 88.24141 h 5.1073923 z m 3.410474,-5.107389 q 4.026022,-2.611924 5.490031,-5.406849 0.682094,-1.297644 0.682094,-2.462196 0,-3.177563 -4.475207,-4.059295 H 4.5076704 L 9.6150627,83.134017 H 26.650795 q 3.99275,0.915005 3.99275,5.556577 0,2.878107 -1.547191,5.673032 -1.647009,2.977926 -4.142478,4.109205 l 6.804311,5.107389 h -8.517866 z"
           style="font-family:Starcraft;-inkscape-font-specification:'Starcraft, Normal';fill:#8800aa;fill-opacity:1"
           id="path5614" />
        <path
           d="m 32.589997,86.544491 5.107393,-3.410474 h 20.446205 l -6.820947,3.410474 z M 49.625729,103.58022 H 37.69739 V 88.24141 h 5.107392 v 3.410473 h 8.517866 l -5.107392,3.410474 h -3.410474 v 5.107393 H 56.43004 Z"
           style="font-family:Starcraft;-inkscape-font-specification:'Starcraft, Normal';fill:#8800aa;fill-opacity:1"
           id="path5616" />
        <path
           d="m 73.415802,83.134017 6.820947,20.446203 h -5.124028 q -1.863284,-5.173935 -2.861471,-7.569585 -2.196012,-5.30703 -3.776476,-7.037221 -1.297644,-1.430736 -3.1942,-1.929829 -0.74864,-0.199638 -3.793112,-0.499094 L 68.30841,83.134017 Z M 63.201017,98.472831 61.487462,103.58022 H 56.38007 l 5.107392,-15.272265 h 5.107392 l -2.245921,6.754402 h 5.656395 l 1.713555,3.410474 z"
           style="font-family:Starcraft;-inkscape-font-specification:'Starcraft, Normal';fill:#8800aa;fill-opacity:1"
           id="path5618" />
        <path
           d="m 82.798717,86.544491 h -5.107392 l 5.107392,-3.410474 h 5.107393 v 17.035733 h 13.62526 l -6.804313,3.41047 h -11.92834 z"
           style="font-family:Starcraft;-inkscape-font-specification:'Starcraft, Normal';fill:#8800aa;fill-opacity:1"
           id="path5620" />
        <path
           d="m 109.16743,86.544491 5.10739,-3.410474 h 20.44621 l -1.71356,3.410474 h -17.03573 l -2.37901,1.696919 h -2.72838 z m 17.03573,13.625259 -3.41047,6.82095 -3.41048,-3.41048 V 88.24141 h 6.82095 z"
           style="font-family:Starcraft;-inkscape-font-specification:'Starcraft, Normal';fill:#8800aa;fill-opacity:1"
           id="path5622" />
        <path
           d="m 143.20555,100.16975 -3.41047,6.82095 -3.41048,-3.41048 V 83.134017 h 6.82095 z"
           style="font-family:Starcraft;-inkscape-font-specification:'Starcraft, Normal';fill:#8800aa;fill-opacity:1"
           id="path5624" />
        <path
           d="m 150.50892,88.391138 h 5.10739 v 15.189082 h -5.10739 z m 13.62526,15.189082 -5.10739,-10.214782 q -1.34755,-2.678469 -1.79674,-3.460383 -0.88173,-1.497281 -1.64701,-2.06292 -1.76346,-1.297644 -3.90957,-1.297644 h -6.27194 l 5.10739,-3.410474 h 7.83577 l 5.82276,13.225984 3.3772,-8.118591 3.41048,1.713555 z m 8.51787,-15.33881 -3.41048,-1.696919 3.41048,-3.410474 h 5.10739 v 20.446203 h -5.10739 z"
           style="font-family:Starcraft;-inkscape-font-specification:'Starcraft, Normal';fill:#8800aa;fill-opacity:1"
           id="path5626" />
        <path
           d="m 179.93873,86.544491 5.10739,-3.410474 h 20.44621 l -6.82095,3.410474 z m 17.03573,17.035729 H 185.04612 V 88.24141 h 5.1074 v 3.410473 h 8.51786 l -5.10739,3.410474 h -3.41047 v 5.107393 h 13.62525 z"
           style="font-family:Starcraft;-inkscape-font-specification:'Starcraft, Normal';fill:#8800aa;fill-opacity:1"
           id="path5628" />
      </g>
      <g
         aria-label="STRATEGY"
         id="g5648"
         style="font-size:22.3751px;line-height:1.25;font-family:'Rose Of Baltimore';-inkscape-font-specification:'Rose Of Baltimore';fill:#8800aa;fill-opacity:1;stroke-width:0.233072">
        <path
           d="m 34.492999,119.50518 q 0.537003,1.57265 2.557154,1.57265 h 5.012023 q 1.623792,0 1.623792,-0.75436 0,-1.17629 -4.590091,-4.52616 -1.853937,-1.29137 -5.549025,-3.88688 h 3.925232 q 4.705164,2.72337 7.939964,5.4851 3.452158,2.95351 3.452158,4.70516 0,1.13794 -1.57265,1.59822 H 29.62162 Z m 16.071714,-11.51998 -2.621083,3.92523 -2.301439,-1.30415 H 33.546852 q 0,-1.21464 0.703218,-1.91786 0.703217,-0.70322 1.917865,-0.70322 z"
           style="font-family:Starcraft;-inkscape-font-specification:'Starcraft, Normal';fill:#8800aa;fill-opacity:1"
           id="path5632" />
        <path
           d="m 49.976513,110.60628 3.925232,-2.62108 h 15.713712 l -1.316934,2.62108 h -13.09263 l -1.828365,1.30415 h -2.096866 z m 13.09263,10.47155 -2.621083,5.24217 -2.621083,-2.62109 v -11.78848 h 5.242166 z"
           style="font-family:Starcraft;-inkscape-font-specification:'Starcraft, Normal';fill:#8800aa;fill-opacity:1"
           id="path5634" />
        <path
           d="m 77.043968,123.69891 h -3.925232 v -11.78848 h 3.925232 z m 2.621083,-3.92523 q 3.094157,-2.00736 4.219304,-4.15537 0.524217,-0.99729 0.524217,-1.8923 0,-2.44208 -3.439372,-3.11973 H 69.193505 l 3.925231,-2.62108 h 13.09263 q 3.068585,0.70322 3.068585,4.27045 0,2.21194 -1.189077,4.35995 -1.265791,2.28865 -3.183657,3.15808 l 5.22938,3.92523 h -6.546314 z"
           style="font-family:Starcraft;-inkscape-font-specification:'Starcraft, Normal';fill:#8800aa;fill-opacity:1"
           id="path5636" />
        <path
           d="m 104.84018,107.9852 5.24217,15.71371 h -3.93802 q -1.432,-3.97637 -2.19915,-5.81752 -1.68772,-4.07866 -2.90237,-5.40838 -0.99729,-1.09958 -2.454868,-1.48315 -0.575359,-0.15343 -2.915156,-0.38358 l 5.242164,-2.62108 z m -7.850459,11.78848 -1.316935,3.92523 h -3.925231 l 3.925231,-11.73733 h 3.925232 l -1.726079,5.19102 h 4.347161 l 1.31694,2.62108 z"
           style="font-family:Starcraft;-inkscape-font-specification:'Starcraft, Normal';fill:#8800aa;fill-opacity:1"
           id="path5638" />
        <path
           d="m 107.58909,110.60628 3.92523,-2.62108 h 15.71371 l -1.31693,2.62108 h -13.09263 l -1.82837,1.30415 h -2.09686 z m 13.09263,10.47155 -2.62108,5.24217 -2.62109,-2.62109 v -11.78848 h 5.24217 z"
           style="font-family:Starcraft;-inkscape-font-specification:'Starcraft, Normal';fill:#8800aa;fill-opacity:1"
           id="path5640" />
        <path
           d="m 126.80608,110.60628 3.92523,-2.62108 h 15.71371 l -5.24217,2.62108 z m 13.09263,13.09263 h -9.1674 v -11.78848 h 3.92523 v 2.62109 h 6.54631 l -3.92523,2.62108 h -2.62108 v 3.92523 h 10.47155 z"
           style="font-family:Starcraft;-inkscape-font-specification:'Starcraft, Normal';fill:#8800aa;fill-opacity:1"
           id="path5642" />
        <path
           d="m 144.47598,110.60628 3.92523,-2.62108 h 11.78849 l -2.62109,3.92523 -2.62108,-1.30415 z m 14.39678,5.24217 q -0.12786,3.40102 -1.59822,5.45952 -1.71329,2.39094 -4.94809,2.39094 -2.44209,0 -4.24488,-1.18907 -1.84115,-1.21465 -2.74894,-3.45216 -0.85665,-2.10965 -0.85665,-4.52616 v -2.62109 h 3.92523 v 2.62109 q 0,6.57188 3.92524,6.54631 1.75165,-0.0128 2.30143,-1.89229 0.25572,-0.86944 0.31965,-3.33709 z"
           style="font-family:Starcraft;-inkscape-font-specification:'Starcraft, Normal';fill:#8800aa;fill-opacity:1"
           id="path5644" />
        <path
           d="m 173.83207,115.18359 v 5.89424 l -2.62109,5.24217 -2.62108,-2.62109 v -8.51532 q -3.20923,-3.2348 -6.30338,-4.1298 -1.45758,-0.42193 -2.86402,-0.44751 l 6.54632,-2.62108 5.24216,6.0221 5.22938,-6.0221 h 3.93802 z"
           style="font-family:Starcraft;-inkscape-font-specification:'Starcraft, Normal';fill:#8800aa;fill-opacity:1"
           id="path5646" />
      </g>
    </g>
  </g>
</svg>
