<?xml version="1.0" encoding="UTF-8" standalone="no"?>
<!-- Created with Inkscape (http://www.inkscape.org/) -->

<svg
   width="146.53711mm"
   height="49.367451mm"
   viewBox="0 0 146.53711 49.367451"
   version="1.1"
   id="svg5"
   inkscape:version="1.1 (c68e22c387, 2021-05-23)"
   sodipodi:docname="auto-adventuresurvivalhorror.svg"
   xmlns:inkscape="http://www.inkscape.org/namespaces/inkscape"
   xmlns:sodipodi="http://sodipodi.sourceforge.net/DTD/sodipodi-0.dtd"
   xmlns="http://www.w3.org/2000/svg"
   xmlns:svg="http://www.w3.org/2000/svg">
  <sodipodi:namedview
     id="namedview7"
     pagecolor="#ffffff"
     bordercolor="#666666"
     borderopacity="1.0"
     inkscape:pageshadow="2"
     inkscape:pageopacity="0.0"
     inkscape:pagecheckerboard="0"
     inkscape:document-units="mm"
     showgrid="false"
     fit-margin-top="0"
     fit-margin-left="0"
     fit-margin-right="0"
     fit-margin-bottom="0"
     inkscape:zoom="0.94867184"
     inkscape:cx="267.21569"
     inkscape:cy="88.544844"
     inkscape:window-width="1920"
     inkscape:window-height="1138"
     inkscape:window-x="-8"
     inkscape:window-y="-8"
     inkscape:window-maximized="1"
     inkscape:current-layer="layer1" />
  <defs
     id="defs2" />
  <g
     inkscape:label="Calque 1"
     inkscape:groupmode="layer"
     id="layer1"
     transform="translate(-36.646693,-105.69998)">
    <rect
       style="fill:#ffffff;fill-rule:evenodd;stroke:none;stroke-width:3.55941;stroke-linecap:round;stroke-linejoin:round;stroke-miterlimit:4;stroke-dasharray:none;paint-order:stroke markers fill"
       id="rect5340"
       width="54.106346"
       height="41.834805"
       x="123.96726"
       y="108.28865" />
    <rect
       style="fill:#ffffff;fill-rule:evenodd;stroke:none;stroke-width:4;stroke-linecap:round;stroke-linejoin:round;stroke-miterlimit:4;stroke-dasharray:none;paint-order:stroke markers fill"
       id="rect5236"
       width="68.330177"
       height="41.834805"
       x="40.888065"
       y="108.28865" />
    <g
       aria-label="Survival Horror"
       id="text2762"
       style="font-size:59.4593px;line-height:1.25;font-family:Horror;-inkscape-font-specification:Horror;stroke:#ffffff;stroke-width:4;stroke-linecap:round;stroke-linejoin:round;stroke-miterlimit:4;stroke-dasharray:none;paint-order:stroke markers fill">
      <path
         d="m 46.179942,111.98105 q 0,0.41622 -0.178378,1.72432 -0.118919,1.07027 -0.05946,1.72432 -0.297297,0.41622 -0.297297,0.89189 0,0.2973 0.237837,1.07027 0.237837,0.77297 0.118919,1.24865 -0.535134,1.48648 0.05946,4.22161 -0.178378,1.12972 0.237837,1.42702 0.237838,1.9027 -0.237837,3.68648 -0.951349,0.47567 -1.66486,0.0595 -0.118919,-0.11892 -0.356756,-0.35676 -0.05946,-1.3081 0.237837,-3.5081 0.297297,-2.43783 0.297297,-3.56756 -0.237838,-0.95135 -0.178378,-5.70809 0.05946,-3.5081 -1.664861,-5.23242 -1.010808,0.0595 -1.248645,1.24865 -0.237837,1.18918 -0.416215,2.25945 0.05946,0.53513 0.05946,1.12973 0,1.3081 -0.594593,3.74593 -0.535134,2.37838 -0.475674,3.68648 -0.356756,0.2973 -0.237837,0.89189 0.118918,0.77297 0.05946,0.95135 1.070267,0.83243 1.070267,2.9135 -0.05946,2.61621 0.178378,3.21081 0.951349,0.83243 1.664861,2.43783 0.535133,1.3081 1.129726,2.61621 0,1.18918 0.772971,3.2108 0.83243,1.96216 0.83243,2.97296 0,0.71352 -0.237837,1.36757 0.178378,0.71351 0.178378,1.54594 0,0.77297 -0.237837,2.25945 -0.178378,1.48649 -0.178378,2.14054 -0.118919,0.41621 -0.535134,1.3081 -0.535133,0.5946 -1.724319,0.95135 -0.951349,0 -1.72432,-0.41621 -0.951349,-0.77297 -1.070268,-2.25946 0.118919,1.96216 0.118919,-2.61621 0,-0.83243 -0.356756,-3.38918 -0.356756,-2.31891 -0.237837,-3.68647 0.297297,-0.5946 0.951349,-0.11892 0.772971,0.23784 0.951349,1.12972 0,0.71352 0,1.48649 0,0.0595 -0.356756,2.25945 -0.178378,1.30811 0,2.25945 -0.297297,0.41622 -0.297297,0.95135 0,0.41622 0.356756,1.30811 0.356756,0.89189 0.356756,1.3081 0.118919,0.0595 0.416215,0.53514 0.297297,0.41621 0.713512,0.29729 0.535133,-0.23783 1.070267,-1.01081 -0.118918,-1.18918 0.237837,-3.32972 0.356756,-2.43783 0.356756,-3.56755 0,-0.89189 -0.118918,-1.66486 -1.664861,-3.62702 -4.816204,-10.94052 -0.05946,-0.59459 -0.297296,-2.61621 -0.237838,-1.72432 -0.237838,-2.73512 0,-0.95135 0.178378,-1.66486 -0.178378,-0.53514 -0.178378,-0.5946 -0.237837,-1.72432 -0.118918,-4.99458 0.118918,-3.62702 0,-5.29188 0.475674,-2.79458 2.199994,-3.38918 0.356756,-0.0595 0.713512,-0.0595 1.66486,0 3.091883,1.30811 1.486483,1.3081 1.486483,2.97296 z"
         id="path4984"
         style="stroke:#ffffff;stroke-width:4;stroke-linecap:round;stroke-linejoin:round;stroke-miterlimit:4;stroke-dasharray:none;paint-order:stroke markers fill" />
      <path
         d="m 51.650171,109.84052 q 0.118919,1.66486 -0.594593,4.10269 -0.713512,2.61621 -0.713512,3.74594 0,0.53513 0.05946,1.01081 0.475674,2.9135 0.475674,9.33511 0,6.1243 0.654052,9.27565 0.237838,1.07026 0.178378,3.80539 0,2.49729 0.416215,3.8054 0,0.65405 -0.178377,1.90269 -0.178378,1.18919 -0.178378,1.78378 0,0.77297 0.237837,1.42703 0.118918,1.18918 0.891889,1.54594 0.654053,-0.53513 1.129727,-0.17838 0.83243,-1.24864 0.83243,-3.2108 0,-0.47568 -0.118918,-1.78378 -0.05946,-1.30811 0,-2.02162 0.178378,-3.5081 0.178378,-7.31349 0,-1.36756 -0.05946,-4.28107 -0.05946,-2.91351 -0.05946,-4.39999 0,-1.3081 0.05946,-4.16215 0.05946,-2.91351 0.05946,-4.45945 0,-3.03242 -0.118919,-10.04862 0.118919,-0.53513 0.237837,-1.12973 0.118919,-0.59459 0.535134,-0.59459 1.248645,-0.0595 2.318913,1.78378 0.05946,2.61621 -0.594593,7.90809 -0.237838,2.08107 -0.475675,7.13511 -0.178378,2.2 -0.297296,4.39999 -0.178378,2.49729 0.178378,4.22161 -0.05946,1.12973 -0.178378,3.8054 -0.297297,2.08107 -0.594593,6.36214 0,0.77297 0.05946,2.25946 0.118919,1.48648 0.118919,2.14053 0,2.37837 -0.951349,3.74594 -0.237837,0.29729 -0.951349,0.41621 -0.654052,0.0595 -0.89189,0.2973 -0.713511,0.11892 -1.843238,-0.89189 -0.356756,-0.59459 -0.535134,-2.02162 -0.118918,-1.42702 -0.416215,-2.02161 -0.594593,-4.75675 -0.772971,-13.08105 0.118919,-0.77297 -0.178378,-2.08108 -0.297296,-1.36756 -0.297296,-1.96215 0.05946,-2.85405 -0.356756,-7.90809 -0.416215,-5.52971 -0.475674,-7.84863 -0.05946,-3.68647 0.237837,-6.30268 0.356756,-0.2973 0.772971,-0.2973 1.189186,0 2.199993,1.78378 z"
         id="path4986"
         style="stroke:#ffffff;stroke-width:4;stroke-linecap:round;stroke-linejoin:round;stroke-miterlimit:4;stroke-dasharray:none;paint-order:stroke markers fill" />
      <path
         d="m 66.752721,110.07836 q 0.356756,0.53513 0.118919,1.48648 0.535134,0.77297 0.535134,1.96216 0,0.47567 -0.118919,1.42702 -0.05946,0.95135 -0.05946,1.42702 0,0.47568 0.05946,0.83243 0.654052,3.15135 0,7.72971 -0.416215,2.31891 -1.070267,6.7189 0,1.30811 0,2.61621 -0.118919,1.48648 -1.308105,2.08108 1.070267,0.65405 1.962157,2.85404 -0.535134,2.02162 -0.713512,5.82702 -0.178378,4.10269 -0.535133,5.88647 -0.297297,0.23783 -0.654053,0.23783 -0.178378,0 -0.356756,-0.0595 -0.475674,-0.41621 -0.416215,-1.24864 0.118919,-1.30811 0.118919,-1.36756 0.237837,-1.66487 0.178378,-4.81621 -0.118919,-3.44864 0,-4.93512 -0.05946,-0.11892 -0.237837,-0.89189 -0.178378,-0.53513 -0.654053,-0.59459 -0.118918,0 -1.367564,0.29729 0.178378,1.07027 0.178378,2.37838 0,0.89189 -0.178378,3.38918 -0.178378,2.02161 -0.05946,3.2108 -0.118919,0 -0.118919,0.0595 0.118919,1.24864 -0.237837,3.56756 -0.05946,0.17837 0.118919,0.59459 0.178378,0.35675 0.178378,0.53513 0,0.2973 -0.535134,0.2973 -0.05946,-0.0595 -0.237837,-0.0595 -0.178378,0 -0.297297,0 -0.237837,-0.35676 -0.237837,-0.83243 0,-0.2973 0.178378,-1.12973 0.237837,-0.83243 0.118919,-1.3081 -0.297297,-2.49729 -0.772971,-7.72971 -0.297297,-4.87566 0.237837,-8.9189 -0.297297,-1.54594 -0.356756,-4.8162 0,-3.32972 -0.297296,-5.05404 -0.05946,-1.72432 -0.356756,-6.24323 l -0.475675,-6.95674 q 0.178378,-0.35675 0.475675,-0.35675 0.118918,0 0.356756,0.0595 0.237837,0.0595 0.356755,0.0595 0.237838,0 0.416216,-0.23784 2.735127,-0.23784 6.064848,2.02162 z m -4.281069,0.89189 q 0.118918,3.32972 -0.356756,4.57836 -0.178378,1.84324 -0.535134,5.52972 -0.237837,3.03242 0.594593,5.05404 -0.118919,1.84324 -0.356756,5.35133 -0.118918,2.79459 0.356756,4.75675 0.83243,0.11892 1.070267,-0.11892 1.367564,-0.83243 1.367564,-2.73513 0,-0.53513 -0.178377,-1.66486 -0.118919,-1.12972 -0.118919,-1.72432 0,-0.53513 0.118919,-1.01081 0.416215,-3.50809 0.475674,-7.84862 0.05946,-2.91351 -0.297297,-9.2162 -0.05946,-0.83243 -0.83243,-0.77297 -1.070267,0.0595 -1.308104,-0.17837 z"
         id="path4988"
         style="stroke:#ffffff;stroke-width:4;stroke-linecap:round;stroke-linejoin:round;stroke-miterlimit:4;stroke-dasharray:none;paint-order:stroke markers fill" />
      <path
         d="m 71.866195,109.48376 q 0.654052,1.36757 0.654052,3.15135 0,2.14053 -1.010808,4.93512 -0.05946,2.97296 1.189186,10.40538 0.416215,2.37837 0.416215,6.65944 -0.05946,4.75674 0.178378,6.7189 0.05946,0 0.05946,-0.0595 0,0 0.05946,0 0.237837,-3.5081 0.535133,-7.07566 0.297297,-4.16215 0.118919,-7.07565 0.713511,-3.38918 1.129727,-9.33511 0.535133,-6.89728 0.891889,-9.33511 0.178378,-0.41622 0.535134,-0.41622 -0.178378,0 1.070267,0.2973 1.248645,0.89189 1.248645,2.67567 0,0.89188 -0.416215,2.43783 -0.475674,2.02161 -0.535133,2.25945 -2.140535,12.84321 -2.140535,19.74049 -0.416215,1.18918 -0.475675,3.32972 -0.118918,2.31891 -0.356755,3.2108 -1.070268,4.04323 -1.070268,6.83782 0,0.95135 0.118919,1.84324 -0.118919,0.35676 -0.594593,1.07027 -0.118919,-0.0595 -0.475675,-0.17838 -0.297296,-0.11892 -0.416215,-0.17838 -0.535133,-2.31891 -0.654052,-6.7189 -0.05946,-4.69728 -0.475674,-6.77836 -0.475675,-4.87566 -1.308105,-14.56753 -0.118919,-1.96216 -0.356756,-6.00539 -0.118918,-1.42702 -0.951349,-8.91889 0.356756,-0.2973 0.832431,-0.2973 0.891889,0 2.199994,1.36756 z"
         id="path4990"
         style="stroke:#ffffff;stroke-width:4;stroke-linecap:round;stroke-linejoin:round;stroke-miterlimit:4;stroke-dasharray:none;paint-order:stroke markers fill" />
      <path
         d="m 82.925575,109.4243 q 0.416216,0.41622 0.772971,1.30811 0.05946,1.96216 -0.951348,7.07566 -0.89189,4.5189 -0.356756,7.01619 -0.05946,0.47568 -0.05946,0.95135 0,0.95135 0.356756,2.67567 0.416215,1.72432 0.416215,2.61621 0,0.71351 -0.178378,1.36756 -0.713511,1.78378 -0.713511,3.98378 0,0.95135 0.178378,2.79458 0.178378,1.84324 0.178378,2.79459 0,0.17838 0.237837,0.53513 -0.416215,5.4108 -0.297297,8.32431 -0.297296,0.29729 0,0.59459 -0.951349,0.2973 -1.248645,0.17838 -0.05946,-0.0595 -0.237837,-0.41622 -0.297297,-1.90269 -0.237837,-4.8162 0.118918,-5.88647 0.118918,-5.4108 0,-0.29729 -0.237837,-14.09185 0,-1.9027 -0.178378,-5.76755 0.237837,-2.02162 -0.178378,-6.06485 -0.416215,-4.10269 -0.118918,-6.18377 0.416215,-0.35676 0.891889,-0.35676 0.89189,0 1.843238,0.89189 z"
         id="path4992"
         style="stroke:#ffffff;stroke-width:4;stroke-linecap:round;stroke-linejoin:round;stroke-miterlimit:4;stroke-dasharray:none;paint-order:stroke markers fill" />
      <path
         d="m 87.860694,109.48376 q 0.654052,1.36757 0.654052,3.15135 0,2.14053 -1.010808,4.93512 -0.05946,2.97296 1.189186,10.40538 0.416215,2.37837 0.416215,6.65944 -0.05946,4.75674 0.178378,6.7189 0.05946,0 0.05946,-0.0595 0,0 0.05946,0 0.237837,-3.5081 0.535133,-7.07566 0.297297,-4.16215 0.118919,-7.07565 0.713512,-3.38918 1.129727,-9.33511 0.535133,-6.89728 0.891889,-9.33511 0.178378,-0.41622 0.535134,-0.41622 -0.178378,0 1.070267,0.2973 1.248646,0.89189 1.248646,2.67567 0,0.89188 -0.416215,2.43783 -0.475675,2.02161 -0.535134,2.25945 -2.140535,12.84321 -2.140535,19.74049 -0.416215,1.18918 -0.475674,3.32972 -0.118919,2.31891 -0.356756,3.2108 -1.070268,4.04323 -1.070268,6.83782 0,0.95135 0.118919,1.84324 -0.118919,0.35676 -0.594593,1.07027 -0.118919,-0.0595 -0.475674,-0.17838 -0.297297,-0.11892 -0.416216,-0.17838 -0.535133,-2.31891 -0.654052,-6.7189 -0.05946,-4.69728 -0.475674,-6.77836 -0.475675,-4.87566 -1.308105,-14.56753 -0.118918,-1.96216 -0.356756,-6.00539 -0.118918,-1.42702 -0.951348,-8.91889 0.356755,-0.2973 0.83243,-0.2973 0.891889,0 2.199994,1.36756 z"
         id="path4994"
         style="stroke:#ffffff;stroke-width:4;stroke-linecap:round;stroke-linejoin:round;stroke-miterlimit:4;stroke-dasharray:none;paint-order:stroke markers fill" />
      <path
         d="m 103.02277,119.23509 q -1.18919,2.79459 -0.5946,5.76755 -0.0595,0.83243 -0.11892,1.6054 -0.11891,1.01081 -0.53513,1.48648 0.35676,0.35676 0.83243,1.24865 0.0595,1.42702 0.17838,2.85405 0.11892,1.42702 0.65405,2.43783 0,1.36756 0.41622,3.86485 0.47567,2.43783 0.47567,3.68648 0,0.77297 -0.11892,1.48648 -0.41621,0.83243 -0.41621,1.96216 0,1.36756 0.65405,2.9135 0.11892,1.36757 0.2973,3.98378 -0.41622,0.53513 -1.36757,0.53513 -0.23784,-0.0595 -0.53513,-0.2973 -0.23784,-2.19999 -0.47568,-5.47025 l -0.47567,-6.12431 q -1.07027,-0.2973 -3.44864,-0.17838 -0.05946,2.08108 -0.416215,6.36215 -0.237837,0.23784 -0.118918,0.71351 0.178377,0.59459 0.118918,0.83243 0.05946,0.17838 -0.118918,0.89189 -0.118919,0.59459 0.297296,0.89189 -0.237837,1.54594 -0.05946,1.96216 -0.772971,0.47567 -1.72432,0.29729 -0.654052,-0.83243 -0.05946,-2.37837 -0.237838,-0.59459 -0.237838,-1.36756 0,-0.5946 0.237838,-1.84324 0.237837,-1.24865 0.237837,-1.9027 0,-0.41621 -0.05946,-0.83243 0,-0.23784 0.297296,-2.55675 0.237837,-1.6054 0,-2.67567 -0.05946,-0.41621 0.297297,-1.12972 0.416215,-0.71352 0.416215,-0.95135 0,-0.41622 -0.654053,-0.71352 -0.05946,-0.77297 0.05946,-2.08107 0.178378,-1.36756 0.178378,-1.96216 0,-0.95135 -0.237838,-1.84324 -0.05946,-0.77297 0.297297,-2.02161 0.356756,-1.30811 0.356756,-1.96216 0,-0.53513 -0.178378,-1.07027 0.118918,0.0595 0.118918,-0.11892 0.05946,-0.17837 0.118919,-0.17837 0.356756,-1.78378 0.416215,-6.65944 0.05946,-4.22162 0.951349,-6.59999 0.05946,-0.11892 0,-1.90269 -0.05946,-1.24865 0.772971,-1.36757 1.902698,-0.0595 2.675668,1.18919 0.5946,0.95135 0.5946,2.97296 -0.11892,1.66486 -0.23784,3.38918 -0.11892,1.9027 0.23784,2.85405 z m -2.85405,5.94593 q 0,0.77297 -0.237837,2.55675 -0.178378,1.72432 -0.178378,2.61621 0,0.83243 0.118918,1.6054 -0.178377,1.07027 -0.535133,3.27026 -0.475675,0.65405 -0.475675,1.48648 0,0.47568 0.178378,1.36757 0.237837,0.89189 0.237837,1.3081 0.654053,0.2973 2.37837,0.17838 -0.29729,-1.9027 -0.59459,-7.19458 -0.35676,-4.5189 -0.89189,-7.19457 z"
         id="path4996"
         style="stroke:#ffffff;stroke-width:4;stroke-linecap:round;stroke-linejoin:round;stroke-miterlimit:4;stroke-dasharray:none;paint-order:stroke markers fill" />
      <path
         d="m 110.0389,109.95944 q -0.0595,1.3081 -0.65405,6.95674 -0.47568,4.28107 -0.11892,6.95673 -0.23784,0.89189 -0.23784,1.96216 0,0.77297 0.53514,4.22161 0.53513,3.5081 -0.71352,5.29188 -0.17837,2.08108 0.23784,6.48106 0.35676,3.62702 -0.11892,5.52972 0,0.47567 0.17838,1.48648 0.17838,1.01081 0.11892,1.54594 0.17838,0.17838 0.47567,0 0.35676,-0.17838 0.53514,-0.11892 1.18918,-0.11891 1.96215,0.17838 0.2973,0.41622 -0.53513,0.53514 -0.2973,0 -1.3081,0.11891 -0.89189,0.0595 -1.36757,0 -0.77297,-0.0594 -1.18918,-0.53513 -0.53514,-2.73513 -0.2973,-7.55133 0.35676,-6.36215 0.11892,-9.03781 -0.0595,-0.77298 -0.71351,-15.69726 -0.0595,-0.77297 -0.41622,-6.4216 -0.0595,-0.53514 0.59459,-3.5081 0.23784,-0.11892 0.5946,-0.11892 1.42702,0 2.31891,1.72432 z"
         id="path4998"
         style="stroke:#ffffff;stroke-width:4;stroke-linecap:round;stroke-linejoin:round;stroke-miterlimit:4;stroke-dasharray:none;paint-order:stroke markers fill" />
      <path
         d="m 131.86033,109.89998 q -0.23784,2.14053 -0.47567,4.28107 -0.2973,2.49729 -1.18919,3.80539 -0.77297,2.73513 -0.2973,7.37296 0.47568,4.22161 -0.29729,6.48106 -0.11892,1.9027 -0.2973,5.70809 l -0.23784,5.1135 q -0.29729,6.00539 -0.35675,9.09728 -0.17838,0.65405 -0.77297,0.29729 -0.2973,-1.24864 -0.23784,-3.68647 0.11892,-2.43783 -0.0595,-3.56756 -0.11892,-2.97297 0.17838,-9.45403 -0.11892,-0.0595 -2.97297,-0.41622 -0.0595,1.24865 0.11892,3.27027 0.23784,2.43783 0.23784,3.2108 0,0 -0.2973,5.52971 -0.11892,2.73513 0.23784,4.81621 0,0.29729 -0.65405,0.41621 -0.65405,-0.29729 -0.65405,-1.72432 0.11891,-0.71351 -0.23784,-1.9027 -0.35676,-1.18918 -0.35676,-1.84323 l 0.11892,-6.30269 q 0.0595,-4.04323 -0.47567,-7.31349 -0.23784,-7.37296 -1.07027,-22.17832 0,-0.83243 0,-1.6054 0.0595,-1.07027 0.71351,-1.30811 0.83243,0.17838 1.18919,0.35676 0.59459,0.35675 0.89189,1.01081 0.11892,0.83243 0.11892,1.78377 0,1.30811 -0.2973,3.86486 -0.23784,2.49729 -0.23784,3.74593 -0.77297,3.5081 0.23784,7.07566 0,1.12973 0.2973,3.92432 0.23783,2.37837 0.17837,3.74593 0.47568,0 1.30811,0.23784 0.89189,0.17838 1.36756,0.23784 0.11892,0.0594 0.17838,-0.0595 0.0595,-0.17838 0.11892,-0.23784 0,-0.83243 -0.11892,-6.00539 -0.0595,-2.37837 0.11892,-6.65944 0,-1.96216 0,-6.00539 0.0595,-2.85405 0.23784,-6.59998 0.29729,-0.5946 0.89189,-0.5946 0.41621,0 1.36756,0.41622 0.65405,0.47567 1.48648,1.66486 z"
         id="path5000"
         style="stroke:#ffffff;stroke-width:4;stroke-linecap:round;stroke-linejoin:round;stroke-miterlimit:4;stroke-dasharray:none;paint-order:stroke markers fill" />
      <path
         d="m 141.37377,111.74322 q 0.35676,1.78378 0.0595,7.07565 -0.11891,0.41622 -0.71351,1.60541 -0.47567,0.95134 -0.47567,1.54594 0,0.59459 0.47567,1.07026 0.2973,1.12973 0.2973,2.43784 0,0.41621 -0.23784,3.32972 -0.23784,1.96215 0.11892,3.27026 0.11892,1.9027 -0.23784,4.99458 -0.29729,3.09188 -0.23783,4.39999 0.17837,3.92431 -0.5946,7.96754 -0.23783,1.12973 -2.37837,1.78378 -0.53513,-0.17837 -1.66486,-0.41621 -1.12973,-0.47568 -1.12973,-1.84324 0,-0.17838 0,-0.59459 0.0595,-0.41622 0.0595,-0.5946 0,-0.71351 -0.23783,-1.18918 -0.35676,-2.49729 -0.35676,-6.36215 -0.0595,-5.47025 -0.11892,-6.4216 0.17838,-1.42703 0,-4.69729 -0.17838,-3.27026 0,-5.05404 -0.89189,-7.78917 -0.77297,-10.76213 0.11892,-3.56756 1.96216,-4.45945 0.77297,-0.35675 1.6054,-0.35675 2.85404,0 4.57836,3.27026 z m -3.98377,0.35675 q -0.65405,0.77297 -0.83243,2.08108 -0.17838,1.24864 -0.35675,2.43783 -0.89189,1.01081 -0.89189,3.09188 0,2.97297 -0.0595,3.32972 0,2.37838 -0.0595,1.78378 0.0595,1.07027 0.65405,1.54595 0.41621,5.88647 0,9.33511 0.0595,1.96215 0,5.70809 -0.0595,4.63782 -0.0595,5.1135 0.0595,0.29729 0.0595,0.65405 0,0.2973 -0.0595,0.89189 -0.0595,0.53513 -0.0595,0.83243 0,0.77297 0.41622,1.3081 0.29729,-0.23783 1.36756,-0.0594 0.89189,0.17837 1.18919,-0.2973 0.11891,-1.66486 0.47567,-5.35134 -0.2973,-2.14053 -0.41621,-5.05404 0.11891,-3.98377 0.17837,-11.89186 -0.17837,-2.31891 -0.35675,-7.19457 0.23783,-2.31892 -0.0595,-7.13512 -0.95135,-0.23784 -1.12973,-1.12973 z"
         id="path5002"
         style="stroke:#ffffff;stroke-width:4;stroke-linecap:round;stroke-linejoin:round;stroke-miterlimit:4;stroke-dasharray:none;paint-order:stroke markers fill" />
      <path
         d="m 150.76827,110.07836 q 0.35675,0.53513 0.11892,1.48648 0.53513,0.77297 0.53513,1.96216 0,0.47567 -0.11892,1.42702 -0.0595,0.95135 -0.0595,1.42702 0,0.47568 0.0595,0.83243 0.65405,3.15135 0,7.72971 -0.41621,2.31891 -1.07027,6.7189 0,1.30811 0,2.61621 -0.11891,1.48648 -1.3081,2.08108 1.07027,0.65405 1.96216,2.85404 -0.53514,2.02162 -0.71351,5.82702 -0.17838,4.10269 -0.53514,5.88647 -0.2973,0.23783 -0.65405,0.23783 -0.17838,0 -0.35676,-0.0595 -0.47567,-0.41621 -0.41621,-1.24864 0.11892,-1.30811 0.11892,-1.36756 0.23783,-1.66487 0.17837,-4.81621 -0.11891,-3.44864 0,-4.93512 -0.0594,-0.11892 -0.23783,-0.89189 -0.17838,-0.53513 -0.65405,-0.59459 -0.11892,0 -1.36757,0.29729 0.17838,1.07027 0.17838,2.37838 0,0.89189 -0.17838,3.38918 -0.17838,2.02161 -0.0595,3.2108 -0.11892,0 -0.11892,0.0595 0.11892,1.24864 -0.23783,3.56756 -0.0595,0.17837 0.11891,0.59459 0.17838,0.35675 0.17838,0.53513 0,0.2973 -0.53513,0.2973 -0.0595,-0.0595 -0.23784,-0.0595 -0.17838,0 -0.29729,0 -0.23784,-0.35676 -0.23784,-0.83243 0,-0.2973 0.17838,-1.12973 0.23783,-0.83243 0.11891,-1.3081 -0.29729,-2.49729 -0.77297,-7.72971 -0.29729,-4.87566 0.23784,-8.9189 -0.2973,-1.54594 -0.35676,-4.8162 0,-3.32972 -0.29729,-5.05404 -0.0595,-1.72432 -0.35676,-6.24323 l -0.47567,-6.95674 q 0.17838,-0.35675 0.47567,-0.35675 0.11892,0 0.35676,0.0595 0.23784,0.0595 0.35675,0.0595 0.23784,0 0.41622,-0.23784 2.73513,-0.23784 6.06485,2.02162 z m -4.28107,0.89189 q 0.11892,3.32972 -0.35676,4.57836 -0.17838,1.84324 -0.53513,5.52972 -0.23784,3.03242 0.59459,5.05404 -0.11892,1.84324 -0.35675,5.35133 -0.11892,2.79459 0.35675,4.75675 0.83243,0.11892 1.07027,-0.11892 1.36756,-0.83243 1.36756,-2.73513 0,-0.53513 -0.17837,-1.66486 -0.11892,-1.12972 -0.11892,-1.72432 0,-0.53513 0.11892,-1.01081 0.41621,-3.50809 0.47567,-7.84862 0.0595,-2.91351 -0.2973,-9.2162 -0.0595,-0.83243 -0.83243,-0.77297 -1.07026,0.0595 -1.3081,-0.17837 z"
         id="path5004"
         style="stroke:#ffffff;stroke-width:4;stroke-linecap:round;stroke-linejoin:round;stroke-miterlimit:4;stroke-dasharray:none;paint-order:stroke markers fill" />
      <path
         d="m 160.51957,110.07836 q 0.35675,0.53513 0.11891,1.48648 0.53514,0.77297 0.53514,1.96216 0,0.47567 -0.11892,1.42702 -0.0595,0.95135 -0.0595,1.42702 0,0.47568 0.0595,0.83243 0.65405,3.15135 0,7.72971 -0.41622,2.31891 -1.07027,6.7189 0,1.30811 0,2.61621 -0.11892,1.48648 -1.3081,2.08108 1.07026,0.65405 1.96215,2.85404 -0.53513,2.02162 -0.71351,5.82702 -0.17838,4.10269 -0.53513,5.88647 -0.2973,0.23783 -0.65405,0.23783 -0.17838,0 -0.35676,-0.0595 -0.47567,-0.41621 -0.41621,-1.24864 0.11891,-1.30811 0.11891,-1.36756 0.23784,-1.66487 0.17838,-4.81621 -0.11892,-3.44864 0,-4.93512 -0.0595,-0.11892 -0.23784,-0.89189 -0.17837,-0.53513 -0.65405,-0.59459 -0.11892,0 -1.36756,0.29729 0.17838,1.07027 0.17838,2.37838 0,0.89189 -0.17838,3.38918 -0.17838,2.02161 -0.0595,3.2108 -0.11892,0 -0.11892,0.0595 0.11892,1.24864 -0.23784,3.56756 -0.0595,0.17837 0.11892,0.59459 0.17838,0.35675 0.17838,0.53513 0,0.2973 -0.53513,0.2973 -0.0595,-0.0595 -0.23784,-0.0595 -0.17838,0 -0.2973,0 -0.23784,-0.35676 -0.23784,-0.83243 0,-0.2973 0.17838,-1.12973 0.23784,-0.83243 0.11892,-1.3081 -0.2973,-2.49729 -0.77297,-7.72971 -0.2973,-4.87566 0.23784,-8.9189 -0.2973,-1.54594 -0.35676,-4.8162 0,-3.32972 -0.29729,-5.05404 -0.0595,-1.72432 -0.35676,-6.24323 l -0.47567,-6.95674 q 0.17837,-0.35675 0.47567,-0.35675 0.11892,0 0.35676,0.0595 0.23783,0.0595 0.35675,0.0595 0.23784,0 0.41622,-0.23784 2.73512,-0.23784 6.06485,2.02162 z m -4.28107,0.89189 q 0.11891,3.32972 -0.35676,4.57836 -0.17838,1.84324 -0.53513,5.52972 -0.23784,3.03242 0.59459,5.05404 -0.11892,1.84324 -0.35676,5.35133 -0.11892,2.79459 0.35676,4.75675 0.83243,0.11892 1.07027,-0.11892 1.36756,-0.83243 1.36756,-2.73513 0,-0.53513 -0.17838,-1.66486 -0.11892,-1.12972 -0.11892,-1.72432 0,-0.53513 0.11892,-1.01081 0.41622,-3.50809 0.47568,-7.84862 0.0595,-2.91351 -0.2973,-9.2162 -0.0595,-0.83243 -0.83243,-0.77297 -1.07027,0.0595 -1.3081,-0.17837 z"
         id="path5006"
         style="stroke:#ffffff;stroke-width:4;stroke-linecap:round;stroke-linejoin:round;stroke-miterlimit:4;stroke-dasharray:none;paint-order:stroke markers fill" />
      <path
         d="m 170.92491,111.74322 q 0.35676,1.78378 0.0595,7.07565 -0.11891,0.41622 -0.71351,1.60541 -0.47567,0.95134 -0.47567,1.54594 0,0.59459 0.47567,1.07026 0.2973,1.12973 0.2973,2.43784 0,0.41621 -0.23784,3.32972 -0.23784,1.96215 0.11892,3.27026 0.11892,1.9027 -0.23784,4.99458 -0.29729,3.09188 -0.23783,4.39999 0.17837,3.92431 -0.5946,7.96754 -0.23783,1.12973 -2.37837,1.78378 -0.53513,-0.17837 -1.66486,-0.41621 -1.12973,-0.47568 -1.12973,-1.84324 0,-0.17838 0,-0.59459 0.0595,-0.41622 0.0595,-0.5946 0,-0.71351 -0.23783,-1.18918 -0.35676,-2.49729 -0.35676,-6.36215 -0.0595,-5.47025 -0.11892,-6.4216 0.17838,-1.42703 0,-4.69729 -0.17838,-3.27026 0,-5.05404 -0.89189,-7.78917 -0.77297,-10.76213 0.11892,-3.56756 1.96216,-4.45945 0.77297,-0.35675 1.6054,-0.35675 2.85404,0 4.57836,3.27026 z m -3.98377,0.35675 q -0.65405,0.77297 -0.83243,2.08108 -0.17838,1.24864 -0.35675,2.43783 -0.89189,1.01081 -0.89189,3.09188 0,2.97297 -0.0595,3.32972 0,2.37838 -0.0595,1.78378 0.0595,1.07027 0.65405,1.54595 0.41621,5.88647 0,9.33511 0.0595,1.96215 0,5.70809 -0.0595,4.63782 -0.0595,5.1135 0.0595,0.29729 0.0595,0.65405 0,0.2973 -0.0595,0.89189 -0.0595,0.53513 -0.0595,0.83243 0,0.77297 0.41622,1.3081 0.29729,-0.23783 1.36756,-0.0594 0.89189,0.17837 1.18919,-0.2973 0.11891,-1.66486 0.47567,-5.35134 -0.2973,-2.14053 -0.41621,-5.05404 0.11891,-3.98377 0.17837,-11.89186 -0.17837,-2.31891 -0.35675,-7.19457 0.23783,-2.31892 -0.0595,-7.13512 -0.95135,-0.23784 -1.12973,-1.12973 z"
         id="path5008"
         style="stroke:#ffffff;stroke-width:4;stroke-linecap:round;stroke-linejoin:round;stroke-miterlimit:4;stroke-dasharray:none;paint-order:stroke markers fill" />
      <path
         d="m 180.31942,110.07836 q 0.35675,0.53513 0.11891,1.48648 0.53514,0.77297 0.53514,1.96216 0,0.47567 -0.11892,1.42702 -0.0595,0.95135 -0.0595,1.42702 0,0.47568 0.0595,0.83243 0.65405,3.15135 0,7.72971 -0.41622,2.31891 -1.07027,6.7189 0,1.30811 0,2.61621 -0.11892,1.48648 -1.3081,2.08108 1.07026,0.65405 1.96215,2.85404 -0.53513,2.02162 -0.71351,5.82702 -0.17838,4.10269 -0.53513,5.88647 -0.2973,0.23783 -0.65405,0.23783 -0.17838,0 -0.35676,-0.0595 -0.47567,-0.41621 -0.41621,-1.24864 0.11891,-1.30811 0.11891,-1.36756 0.23784,-1.66487 0.17838,-4.81621 -0.11892,-3.44864 0,-4.93512 -0.0595,-0.11892 -0.23784,-0.89189 -0.17837,-0.53513 -0.65405,-0.59459 -0.11892,0 -1.36756,0.29729 0.17838,1.07027 0.17838,2.37838 0,0.89189 -0.17838,3.38918 -0.17838,2.02161 -0.0595,3.2108 -0.11892,0 -0.11892,0.0595 0.11892,1.24864 -0.23784,3.56756 -0.0595,0.17837 0.11892,0.59459 0.17838,0.35675 0.17838,0.53513 0,0.2973 -0.53513,0.2973 -0.0595,-0.0595 -0.23784,-0.0595 -0.17838,0 -0.2973,0 -0.23783,-0.35676 -0.23783,-0.83243 0,-0.2973 0.17837,-1.12973 0.23784,-0.83243 0.11892,-1.3081 -0.29729,-2.49729 -0.77297,-7.72971 -0.2973,-4.87566 0.23784,-8.9189 -0.2973,-1.54594 -0.35676,-4.8162 0,-3.32972 -0.29729,-5.05404 -0.0595,-1.72432 -0.35676,-6.24323 l -0.47567,-6.95674 q 0.17837,-0.35675 0.47567,-0.35675 0.11892,0 0.35676,0.0595 0.23783,0.0595 0.35675,0.0595 0.23784,0 0.41622,-0.23784 2.73512,-0.23784 6.06485,2.02162 z m -4.28107,0.89189 q 0.11891,3.32972 -0.35676,4.57836 -0.17838,1.84324 -0.53513,5.52972 -0.23784,3.03242 0.59459,5.05404 -0.11892,1.84324 -0.35676,5.35133 -0.11892,2.79459 0.35676,4.75675 0.83243,0.11892 1.07027,-0.11892 1.36756,-0.83243 1.36756,-2.73513 0,-0.53513 -0.17838,-1.66486 -0.11892,-1.12972 -0.11892,-1.72432 0,-0.53513 0.11892,-1.01081 0.41622,-3.50809 0.47568,-7.84862 0.0595,-2.91351 -0.2973,-9.2162 -0.0595,-0.83243 -0.83243,-0.77297 -1.07027,0.0595 -1.3081,-0.17837 z"
         id="path5010"
         style="stroke:#ffffff;stroke-width:4;stroke-linecap:round;stroke-linejoin:round;stroke-miterlimit:4;stroke-dasharray:none;paint-order:stroke markers fill" />
    </g>
    <g
       aria-label="Survival Horror"
       id="g5140"
       style="font-size:59.4593px;line-height:1.25;font-family:Horror;-inkscape-font-specification:Horror;stroke-width:0.619367">
      <path
         d="m 46.179942,111.98105 q 0,0.41622 -0.178378,1.72432 -0.118919,1.07027 -0.05946,1.72432 -0.297297,0.41622 -0.297297,0.89189 0,0.2973 0.237837,1.07027 0.237837,0.77297 0.118919,1.24865 -0.535134,1.48648 0.05946,4.22161 -0.178378,1.12972 0.237837,1.42702 0.237838,1.9027 -0.237837,3.68648 -0.951349,0.47567 -1.66486,0.0595 -0.118919,-0.11892 -0.356756,-0.35676 -0.05946,-1.3081 0.237837,-3.5081 0.297297,-2.43783 0.297297,-3.56756 -0.237838,-0.95135 -0.178378,-5.70809 0.05946,-3.5081 -1.664861,-5.23242 -1.010808,0.0595 -1.248645,1.24865 -0.237837,1.18918 -0.416215,2.25945 0.05946,0.53513 0.05946,1.12973 0,1.3081 -0.594593,3.74593 -0.535134,2.37838 -0.475674,3.68648 -0.356756,0.2973 -0.237837,0.89189 0.118918,0.77297 0.05946,0.95135 1.070267,0.83243 1.070267,2.9135 -0.05946,2.61621 0.178378,3.21081 0.951349,0.83243 1.664861,2.43783 0.535133,1.3081 1.129726,2.61621 0,1.18918 0.772971,3.2108 0.83243,1.96216 0.83243,2.97296 0,0.71352 -0.237837,1.36757 0.178378,0.71351 0.178378,1.54594 0,0.77297 -0.237837,2.25945 -0.178378,1.48649 -0.178378,2.14054 -0.118919,0.41621 -0.535134,1.3081 -0.535133,0.5946 -1.724319,0.95135 -0.951349,0 -1.72432,-0.41621 -0.951349,-0.77297 -1.070268,-2.25946 0.118919,1.96216 0.118919,-2.61621 0,-0.83243 -0.356756,-3.38918 -0.356756,-2.31891 -0.237837,-3.68647 0.297297,-0.5946 0.951349,-0.11892 0.772971,0.23784 0.951349,1.12972 0,0.71352 0,1.48649 0,0.0595 -0.356756,2.25945 -0.178378,1.30811 0,2.25945 -0.297297,0.41622 -0.297297,0.95135 0,0.41622 0.356756,1.30811 0.356756,0.89189 0.356756,1.3081 0.118919,0.0595 0.416215,0.53514 0.297297,0.41621 0.713512,0.29729 0.535133,-0.23783 1.070267,-1.01081 -0.118918,-1.18918 0.237837,-3.32972 0.356756,-2.43783 0.356756,-3.56755 0,-0.89189 -0.118918,-1.66486 -1.664861,-3.62702 -4.816204,-10.94052 -0.05946,-0.59459 -0.297296,-2.61621 -0.237838,-1.72432 -0.237838,-2.73512 0,-0.95135 0.178378,-1.66486 -0.178378,-0.53514 -0.178378,-0.5946 -0.237837,-1.72432 -0.118918,-4.99458 0.118918,-3.62702 0,-5.29188 0.475674,-2.79458 2.199994,-3.38918 0.356756,-0.0595 0.713512,-0.0595 1.66486,0 3.091883,1.30811 1.486483,1.3081 1.486483,2.97296 z"
         id="path5112" />
      <path
         d="m 51.650171,109.84052 q 0.118919,1.66486 -0.594593,4.10269 -0.713512,2.61621 -0.713512,3.74594 0,0.53513 0.05946,1.01081 0.475674,2.9135 0.475674,9.33511 0,6.1243 0.654052,9.27565 0.237838,1.07026 0.178378,3.80539 0,2.49729 0.416215,3.8054 0,0.65405 -0.178377,1.90269 -0.178378,1.18919 -0.178378,1.78378 0,0.77297 0.237837,1.42703 0.118918,1.18918 0.891889,1.54594 0.654053,-0.53513 1.129727,-0.17838 0.83243,-1.24864 0.83243,-3.2108 0,-0.47568 -0.118918,-1.78378 -0.05946,-1.30811 0,-2.02162 0.178378,-3.5081 0.178378,-7.31349 0,-1.36756 -0.05946,-4.28107 -0.05946,-2.91351 -0.05946,-4.39999 0,-1.3081 0.05946,-4.16215 0.05946,-2.91351 0.05946,-4.45945 0,-3.03242 -0.118919,-10.04862 0.118919,-0.53513 0.237837,-1.12973 0.118919,-0.59459 0.535134,-0.59459 1.248645,-0.0595 2.318913,1.78378 0.05946,2.61621 -0.594593,7.90809 -0.237838,2.08107 -0.475675,7.13511 -0.178378,2.2 -0.297296,4.39999 -0.178378,2.49729 0.178378,4.22161 -0.05946,1.12973 -0.178378,3.8054 -0.297297,2.08107 -0.594593,6.36214 0,0.77297 0.05946,2.25946 0.118919,1.48648 0.118919,2.14053 0,2.37837 -0.951349,3.74594 -0.237837,0.29729 -0.951349,0.41621 -0.654052,0.0595 -0.89189,0.2973 -0.713511,0.11892 -1.843238,-0.89189 -0.356756,-0.59459 -0.535134,-2.02162 -0.118918,-1.42702 -0.416215,-2.02161 -0.594593,-4.75675 -0.772971,-13.08105 0.118919,-0.77297 -0.178378,-2.08108 -0.297296,-1.36756 -0.297296,-1.96215 0.05946,-2.85405 -0.356756,-7.90809 -0.416215,-5.52971 -0.475674,-7.84863 -0.05946,-3.68647 0.237837,-6.30268 0.356756,-0.2973 0.772971,-0.2973 1.189186,0 2.199993,1.78378 z"
         id="path5114" />
      <path
         d="m 66.752721,110.07836 q 0.356756,0.53513 0.118919,1.48648 0.535134,0.77297 0.535134,1.96216 0,0.47567 -0.118919,1.42702 -0.05946,0.95135 -0.05946,1.42702 0,0.47568 0.05946,0.83243 0.654052,3.15135 0,7.72971 -0.416215,2.31891 -1.070267,6.7189 0,1.30811 0,2.61621 -0.118919,1.48648 -1.308105,2.08108 1.070267,0.65405 1.962157,2.85404 -0.535134,2.02162 -0.713512,5.82702 -0.178378,4.10269 -0.535133,5.88647 -0.297297,0.23783 -0.654053,0.23783 -0.178378,0 -0.356756,-0.0595 -0.475674,-0.41621 -0.416215,-1.24864 0.118919,-1.30811 0.118919,-1.36756 0.237837,-1.66487 0.178378,-4.81621 -0.118919,-3.44864 0,-4.93512 -0.05946,-0.11892 -0.237837,-0.89189 -0.178378,-0.53513 -0.654053,-0.59459 -0.118918,0 -1.367564,0.29729 0.178378,1.07027 0.178378,2.37838 0,0.89189 -0.178378,3.38918 -0.178378,2.02161 -0.05946,3.2108 -0.118919,0 -0.118919,0.0595 0.118919,1.24864 -0.237837,3.56756 -0.05946,0.17837 0.118919,0.59459 0.178378,0.35675 0.178378,0.53513 0,0.2973 -0.535134,0.2973 -0.05946,-0.0595 -0.237837,-0.0595 -0.178378,0 -0.297297,0 -0.237837,-0.35676 -0.237837,-0.83243 0,-0.2973 0.178378,-1.12973 0.237837,-0.83243 0.118919,-1.3081 -0.297297,-2.49729 -0.772971,-7.72971 -0.297297,-4.87566 0.237837,-8.9189 -0.297297,-1.54594 -0.356756,-4.8162 0,-3.32972 -0.297296,-5.05404 -0.05946,-1.72432 -0.356756,-6.24323 l -0.475675,-6.95674 q 0.178378,-0.35675 0.475675,-0.35675 0.118918,0 0.356756,0.0595 0.237837,0.0595 0.356755,0.0595 0.237838,0 0.416216,-0.23784 2.735127,-0.23784 6.064848,2.02162 z m -4.281069,0.89189 q 0.118918,3.32972 -0.356756,4.57836 -0.178378,1.84324 -0.535134,5.52972 -0.237837,3.03242 0.594593,5.05404 -0.118919,1.84324 -0.356756,5.35133 -0.118918,2.79459 0.356756,4.75675 0.83243,0.11892 1.070267,-0.11892 1.367564,-0.83243 1.367564,-2.73513 0,-0.53513 -0.178377,-1.66486 -0.118919,-1.12972 -0.118919,-1.72432 0,-0.53513 0.118919,-1.01081 0.416215,-3.50809 0.475674,-7.84862 0.05946,-2.91351 -0.297297,-9.2162 -0.05946,-0.83243 -0.83243,-0.77297 -1.070267,0.0595 -1.308104,-0.17837 z"
         id="path5116" />
      <path
         d="m 71.866195,109.48376 q 0.654052,1.36757 0.654052,3.15135 0,2.14053 -1.010808,4.93512 -0.05946,2.97296 1.189186,10.40538 0.416215,2.37837 0.416215,6.65944 -0.05946,4.75674 0.178378,6.7189 0.05946,0 0.05946,-0.0595 0,0 0.05946,0 0.237837,-3.5081 0.535133,-7.07566 0.297297,-4.16215 0.118919,-7.07565 0.713511,-3.38918 1.129727,-9.33511 0.535133,-6.89728 0.891889,-9.33511 0.178378,-0.41622 0.535134,-0.41622 -0.178378,0 1.070267,0.2973 1.248645,0.89189 1.248645,2.67567 0,0.89188 -0.416215,2.43783 -0.475674,2.02161 -0.535133,2.25945 -2.140535,12.84321 -2.140535,19.74049 -0.416215,1.18918 -0.475675,3.32972 -0.118918,2.31891 -0.356755,3.2108 -1.070268,4.04323 -1.070268,6.83782 0,0.95135 0.118919,1.84324 -0.118919,0.35676 -0.594593,1.07027 -0.118919,-0.0595 -0.475675,-0.17838 -0.297296,-0.11892 -0.416215,-0.17838 -0.535133,-2.31891 -0.654052,-6.7189 -0.05946,-4.69728 -0.475674,-6.77836 -0.475675,-4.87566 -1.308105,-14.56753 -0.118919,-1.96216 -0.356756,-6.00539 -0.118918,-1.42702 -0.951349,-8.91889 0.356756,-0.2973 0.832431,-0.2973 0.891889,0 2.199994,1.36756 z"
         id="path5118" />
      <path
         d="m 82.925575,109.4243 q 0.416216,0.41622 0.772971,1.30811 0.05946,1.96216 -0.951348,7.07566 -0.89189,4.5189 -0.356756,7.01619 -0.05946,0.47568 -0.05946,0.95135 0,0.95135 0.356756,2.67567 0.416215,1.72432 0.416215,2.61621 0,0.71351 -0.178378,1.36756 -0.713511,1.78378 -0.713511,3.98378 0,0.95135 0.178378,2.79458 0.178378,1.84324 0.178378,2.79459 0,0.17838 0.237837,0.53513 -0.416215,5.4108 -0.297297,8.32431 -0.297296,0.29729 0,0.59459 -0.951349,0.2973 -1.248645,0.17838 -0.05946,-0.0595 -0.237837,-0.41622 -0.297297,-1.90269 -0.237837,-4.8162 0.118918,-5.88647 0.118918,-5.4108 0,-0.29729 -0.237837,-14.09185 0,-1.9027 -0.178378,-5.76755 0.237837,-2.02162 -0.178378,-6.06485 -0.416215,-4.10269 -0.118918,-6.18377 0.416215,-0.35676 0.891889,-0.35676 0.89189,0 1.843238,0.89189 z"
         id="path5120" />
      <path
         d="m 87.860694,109.48376 q 0.654052,1.36757 0.654052,3.15135 0,2.14053 -1.010808,4.93512 -0.05946,2.97296 1.189186,10.40538 0.416215,2.37837 0.416215,6.65944 -0.05946,4.75674 0.178378,6.7189 0.05946,0 0.05946,-0.0595 0,0 0.05946,0 0.237837,-3.5081 0.535133,-7.07566 0.297297,-4.16215 0.118919,-7.07565 0.713512,-3.38918 1.129727,-9.33511 0.535133,-6.89728 0.891889,-9.33511 0.178378,-0.41622 0.535134,-0.41622 -0.178378,0 1.070267,0.2973 1.248646,0.89189 1.248646,2.67567 0,0.89188 -0.416215,2.43783 -0.475675,2.02161 -0.535134,2.25945 -2.140535,12.84321 -2.140535,19.74049 -0.416215,1.18918 -0.475674,3.32972 -0.118919,2.31891 -0.356756,3.2108 -1.070268,4.04323 -1.070268,6.83782 0,0.95135 0.118919,1.84324 -0.118919,0.35676 -0.594593,1.07027 -0.118919,-0.0595 -0.475674,-0.17838 -0.297297,-0.11892 -0.416216,-0.17838 -0.535133,-2.31891 -0.654052,-6.7189 -0.05946,-4.69728 -0.475674,-6.77836 -0.475675,-4.87566 -1.308105,-14.56753 -0.118918,-1.96216 -0.356756,-6.00539 -0.118918,-1.42702 -0.951348,-8.91889 0.356755,-0.2973 0.83243,-0.2973 0.891889,0 2.199994,1.36756 z"
         id="path5122" />
      <path
         d="m 103.02277,119.23509 q -1.18919,2.79459 -0.5946,5.76755 -0.0595,0.83243 -0.11892,1.6054 -0.11891,1.01081 -0.53513,1.48648 0.35676,0.35676 0.83243,1.24865 0.0595,1.42702 0.17838,2.85405 0.11892,1.42702 0.65405,2.43783 0,1.36756 0.41622,3.86485 0.47567,2.43783 0.47567,3.68648 0,0.77297 -0.11892,1.48648 -0.41621,0.83243 -0.41621,1.96216 0,1.36756 0.65405,2.9135 0.11892,1.36757 0.2973,3.98378 -0.41622,0.53513 -1.36757,0.53513 -0.23784,-0.0595 -0.53513,-0.2973 -0.23784,-2.19999 -0.47568,-5.47025 l -0.47567,-6.12431 q -1.07027,-0.2973 -3.44864,-0.17838 -0.05946,2.08108 -0.416215,6.36215 -0.237837,0.23784 -0.118918,0.71351 0.178377,0.59459 0.118918,0.83243 0.05946,0.17838 -0.118918,0.89189 -0.118919,0.59459 0.297296,0.89189 -0.237837,1.54594 -0.05946,1.96216 -0.772971,0.47567 -1.72432,0.29729 -0.654052,-0.83243 -0.05946,-2.37837 -0.237838,-0.59459 -0.237838,-1.36756 0,-0.5946 0.237838,-1.84324 0.237837,-1.24865 0.237837,-1.9027 0,-0.41621 -0.05946,-0.83243 0,-0.23784 0.297296,-2.55675 0.237837,-1.6054 0,-2.67567 -0.05946,-0.41621 0.297297,-1.12972 0.416215,-0.71352 0.416215,-0.95135 0,-0.41622 -0.654053,-0.71352 -0.05946,-0.77297 0.05946,-2.08107 0.178378,-1.36756 0.178378,-1.96216 0,-0.95135 -0.237838,-1.84324 -0.05946,-0.77297 0.297297,-2.02161 0.356756,-1.30811 0.356756,-1.96216 0,-0.53513 -0.178378,-1.07027 0.118918,0.0595 0.118918,-0.11892 0.05946,-0.17837 0.118919,-0.17837 0.356756,-1.78378 0.416215,-6.65944 0.05946,-4.22162 0.951349,-6.59999 0.05946,-0.11892 0,-1.90269 -0.05946,-1.24865 0.772971,-1.36757 1.902698,-0.0595 2.675668,1.18919 0.5946,0.95135 0.5946,2.97296 -0.11892,1.66486 -0.23784,3.38918 -0.11892,1.9027 0.23784,2.85405 z m -2.85405,5.94593 q 0,0.77297 -0.237837,2.55675 -0.178378,1.72432 -0.178378,2.61621 0,0.83243 0.118918,1.6054 -0.178377,1.07027 -0.535133,3.27026 -0.475675,0.65405 -0.475675,1.48648 0,0.47568 0.178378,1.36757 0.237837,0.89189 0.237837,1.3081 0.654053,0.2973 2.37837,0.17838 -0.29729,-1.9027 -0.59459,-7.19458 -0.35676,-4.5189 -0.89189,-7.19457 z"
         id="path5124" />
      <path
         d="m 110.0389,109.95944 q -0.0595,1.3081 -0.65405,6.95674 -0.47568,4.28107 -0.11892,6.95673 -0.23784,0.89189 -0.23784,1.96216 0,0.77297 0.53514,4.22161 0.53513,3.5081 -0.71352,5.29188 -0.17837,2.08108 0.23784,6.48106 0.35676,3.62702 -0.11892,5.52972 0,0.47567 0.17838,1.48648 0.17838,1.01081 0.11892,1.54594 0.17838,0.17838 0.47567,0 0.35676,-0.17838 0.53514,-0.11892 1.18918,-0.11891 1.96215,0.17838 0.2973,0.41622 -0.53513,0.53514 -0.2973,0 -1.3081,0.11891 -0.89189,0.0595 -1.36757,0 -0.77297,-0.0594 -1.18918,-0.53513 -0.53514,-2.73513 -0.2973,-7.55133 0.35676,-6.36215 0.11892,-9.03781 -0.0595,-0.77298 -0.71351,-15.69726 -0.0595,-0.77297 -0.41622,-6.4216 -0.0595,-0.53514 0.59459,-3.5081 0.23784,-0.11892 0.5946,-0.11892 1.42702,0 2.31891,1.72432 z"
         id="path5126" />
      <path
         d="m 131.86033,109.89998 q -0.23784,2.14053 -0.47567,4.28107 -0.2973,2.49729 -1.18919,3.80539 -0.77297,2.73513 -0.2973,7.37296 0.47568,4.22161 -0.29729,6.48106 -0.11892,1.9027 -0.2973,5.70809 l -0.23784,5.1135 q -0.29729,6.00539 -0.35675,9.09728 -0.17838,0.65405 -0.77297,0.29729 -0.2973,-1.24864 -0.23784,-3.68647 0.11892,-2.43783 -0.0595,-3.56756 -0.11892,-2.97297 0.17838,-9.45403 -0.11892,-0.0595 -2.97297,-0.41622 -0.0595,1.24865 0.11892,3.27027 0.23784,2.43783 0.23784,3.2108 0,0 -0.2973,5.52971 -0.11892,2.73513 0.23784,4.81621 0,0.29729 -0.65405,0.41621 -0.65405,-0.29729 -0.65405,-1.72432 0.11891,-0.71351 -0.23784,-1.9027 -0.35676,-1.18918 -0.35676,-1.84323 l 0.11892,-6.30269 q 0.0595,-4.04323 -0.47567,-7.31349 -0.23784,-7.37296 -1.07027,-22.17832 0,-0.83243 0,-1.6054 0.0595,-1.07027 0.71351,-1.30811 0.83243,0.17838 1.18919,0.35676 0.59459,0.35675 0.89189,1.01081 0.11892,0.83243 0.11892,1.78377 0,1.30811 -0.2973,3.86486 -0.23784,2.49729 -0.23784,3.74593 -0.77297,3.5081 0.23784,7.07566 0,1.12973 0.2973,3.92432 0.23783,2.37837 0.17837,3.74593 0.47568,0 1.30811,0.23784 0.89189,0.17838 1.36756,0.23784 0.11892,0.0594 0.17838,-0.0595 0.0595,-0.17838 0.11892,-0.23784 0,-0.83243 -0.11892,-6.00539 -0.0595,-2.37837 0.11892,-6.65944 0,-1.96216 0,-6.00539 0.0595,-2.85405 0.23784,-6.59998 0.29729,-0.5946 0.89189,-0.5946 0.41621,0 1.36756,0.41622 0.65405,0.47567 1.48648,1.66486 z"
         id="path5128" />
      <path
         d="m 141.37377,111.74322 q 0.35676,1.78378 0.0595,7.07565 -0.11891,0.41622 -0.71351,1.60541 -0.47567,0.95134 -0.47567,1.54594 0,0.59459 0.47567,1.07026 0.2973,1.12973 0.2973,2.43784 0,0.41621 -0.23784,3.32972 -0.23784,1.96215 0.11892,3.27026 0.11892,1.9027 -0.23784,4.99458 -0.29729,3.09188 -0.23783,4.39999 0.17837,3.92431 -0.5946,7.96754 -0.23783,1.12973 -2.37837,1.78378 -0.53513,-0.17837 -1.66486,-0.41621 -1.12973,-0.47568 -1.12973,-1.84324 0,-0.17838 0,-0.59459 0.0595,-0.41622 0.0595,-0.5946 0,-0.71351 -0.23783,-1.18918 -0.35676,-2.49729 -0.35676,-6.36215 -0.0595,-5.47025 -0.11892,-6.4216 0.17838,-1.42703 0,-4.69729 -0.17838,-3.27026 0,-5.05404 -0.89189,-7.78917 -0.77297,-10.76213 0.11892,-3.56756 1.96216,-4.45945 0.77297,-0.35675 1.6054,-0.35675 2.85404,0 4.57836,3.27026 z m -3.98377,0.35675 q -0.65405,0.77297 -0.83243,2.08108 -0.17838,1.24864 -0.35675,2.43783 -0.89189,1.01081 -0.89189,3.09188 0,2.97297 -0.0595,3.32972 0,2.37838 -0.0595,1.78378 0.0595,1.07027 0.65405,1.54595 0.41621,5.88647 0,9.33511 0.0595,1.96215 0,5.70809 -0.0595,4.63782 -0.0595,5.1135 0.0595,0.29729 0.0595,0.65405 0,0.2973 -0.0595,0.89189 -0.0595,0.53513 -0.0595,0.83243 0,0.77297 0.41622,1.3081 0.29729,-0.23783 1.36756,-0.0594 0.89189,0.17837 1.18919,-0.2973 0.11891,-1.66486 0.47567,-5.35134 -0.2973,-2.14053 -0.41621,-5.05404 0.11891,-3.98377 0.17837,-11.89186 -0.17837,-2.31891 -0.35675,-7.19457 0.23783,-2.31892 -0.0595,-7.13512 -0.95135,-0.23784 -1.12973,-1.12973 z"
         id="path5130" />
      <path
         d="m 150.76827,110.07836 q 0.35675,0.53513 0.11892,1.48648 0.53513,0.77297 0.53513,1.96216 0,0.47567 -0.11892,1.42702 -0.0595,0.95135 -0.0595,1.42702 0,0.47568 0.0595,0.83243 0.65405,3.15135 0,7.72971 -0.41621,2.31891 -1.07027,6.7189 0,1.30811 0,2.61621 -0.11891,1.48648 -1.3081,2.08108 1.07027,0.65405 1.96216,2.85404 -0.53514,2.02162 -0.71351,5.82702 -0.17838,4.10269 -0.53514,5.88647 -0.2973,0.23783 -0.65405,0.23783 -0.17838,0 -0.35676,-0.0595 -0.47567,-0.41621 -0.41621,-1.24864 0.11892,-1.30811 0.11892,-1.36756 0.23783,-1.66487 0.17837,-4.81621 -0.11891,-3.44864 0,-4.93512 -0.0594,-0.11892 -0.23783,-0.89189 -0.17838,-0.53513 -0.65405,-0.59459 -0.11892,0 -1.36757,0.29729 0.17838,1.07027 0.17838,2.37838 0,0.89189 -0.17838,3.38918 -0.17838,2.02161 -0.0595,3.2108 -0.11892,0 -0.11892,0.0595 0.11892,1.24864 -0.23783,3.56756 -0.0595,0.17837 0.11891,0.59459 0.17838,0.35675 0.17838,0.53513 0,0.2973 -0.53513,0.2973 -0.0595,-0.0595 -0.23784,-0.0595 -0.17838,0 -0.29729,0 -0.23784,-0.35676 -0.23784,-0.83243 0,-0.2973 0.17838,-1.12973 0.23783,-0.83243 0.11891,-1.3081 -0.29729,-2.49729 -0.77297,-7.72971 -0.29729,-4.87566 0.23784,-8.9189 -0.2973,-1.54594 -0.35676,-4.8162 0,-3.32972 -0.29729,-5.05404 -0.0595,-1.72432 -0.35676,-6.24323 l -0.47567,-6.95674 q 0.17838,-0.35675 0.47567,-0.35675 0.11892,0 0.35676,0.0595 0.23784,0.0595 0.35675,0.0595 0.23784,0 0.41622,-0.23784 2.73513,-0.23784 6.06485,2.02162 z m -4.28107,0.89189 q 0.11892,3.32972 -0.35676,4.57836 -0.17838,1.84324 -0.53513,5.52972 -0.23784,3.03242 0.59459,5.05404 -0.11892,1.84324 -0.35675,5.35133 -0.11892,2.79459 0.35675,4.75675 0.83243,0.11892 1.07027,-0.11892 1.36756,-0.83243 1.36756,-2.73513 0,-0.53513 -0.17837,-1.66486 -0.11892,-1.12972 -0.11892,-1.72432 0,-0.53513 0.11892,-1.01081 0.41621,-3.50809 0.47567,-7.84862 0.0595,-2.91351 -0.2973,-9.2162 -0.0595,-0.83243 -0.83243,-0.77297 -1.07026,0.0595 -1.3081,-0.17837 z"
         id="path5132" />
      <path
         d="m 160.51957,110.07836 q 0.35675,0.53513 0.11891,1.48648 0.53514,0.77297 0.53514,1.96216 0,0.47567 -0.11892,1.42702 -0.0595,0.95135 -0.0595,1.42702 0,0.47568 0.0595,0.83243 0.65405,3.15135 0,7.72971 -0.41622,2.31891 -1.07027,6.7189 0,1.30811 0,2.61621 -0.11892,1.48648 -1.3081,2.08108 1.07026,0.65405 1.96215,2.85404 -0.53513,2.02162 -0.71351,5.82702 -0.17838,4.10269 -0.53513,5.88647 -0.2973,0.23783 -0.65405,0.23783 -0.17838,0 -0.35676,-0.0595 -0.47567,-0.41621 -0.41621,-1.24864 0.11891,-1.30811 0.11891,-1.36756 0.23784,-1.66487 0.17838,-4.81621 -0.11892,-3.44864 0,-4.93512 -0.0595,-0.11892 -0.23784,-0.89189 -0.17837,-0.53513 -0.65405,-0.59459 -0.11892,0 -1.36756,0.29729 0.17838,1.07027 0.17838,2.37838 0,0.89189 -0.17838,3.38918 -0.17838,2.02161 -0.0595,3.2108 -0.11892,0 -0.11892,0.0595 0.11892,1.24864 -0.23784,3.56756 -0.0595,0.17837 0.11892,0.59459 0.17838,0.35675 0.17838,0.53513 0,0.2973 -0.53513,0.2973 -0.0595,-0.0595 -0.23784,-0.0595 -0.17838,0 -0.2973,0 -0.23784,-0.35676 -0.23784,-0.83243 0,-0.2973 0.17838,-1.12973 0.23784,-0.83243 0.11892,-1.3081 -0.2973,-2.49729 -0.77297,-7.72971 -0.2973,-4.87566 0.23784,-8.9189 -0.2973,-1.54594 -0.35676,-4.8162 0,-3.32972 -0.29729,-5.05404 -0.0595,-1.72432 -0.35676,-6.24323 l -0.47567,-6.95674 q 0.17837,-0.35675 0.47567,-0.35675 0.11892,0 0.35676,0.0595 0.23783,0.0595 0.35675,0.0595 0.23784,0 0.41622,-0.23784 2.73512,-0.23784 6.06485,2.02162 z m -4.28107,0.89189 q 0.11891,3.32972 -0.35676,4.57836 -0.17838,1.84324 -0.53513,5.52972 -0.23784,3.03242 0.59459,5.05404 -0.11892,1.84324 -0.35676,5.35133 -0.11892,2.79459 0.35676,4.75675 0.83243,0.11892 1.07027,-0.11892 1.36756,-0.83243 1.36756,-2.73513 0,-0.53513 -0.17838,-1.66486 -0.11892,-1.12972 -0.11892,-1.72432 0,-0.53513 0.11892,-1.01081 0.41622,-3.50809 0.47568,-7.84862 0.0595,-2.91351 -0.2973,-9.2162 -0.0595,-0.83243 -0.83243,-0.77297 -1.07027,0.0595 -1.3081,-0.17837 z"
         id="path5134" />
      <path
         d="m 170.92491,111.74322 q 0.35676,1.78378 0.0595,7.07565 -0.11891,0.41622 -0.71351,1.60541 -0.47567,0.95134 -0.47567,1.54594 0,0.59459 0.47567,1.07026 0.2973,1.12973 0.2973,2.43784 0,0.41621 -0.23784,3.32972 -0.23784,1.96215 0.11892,3.27026 0.11892,1.9027 -0.23784,4.99458 -0.29729,3.09188 -0.23783,4.39999 0.17837,3.92431 -0.5946,7.96754 -0.23783,1.12973 -2.37837,1.78378 -0.53513,-0.17837 -1.66486,-0.41621 -1.12973,-0.47568 -1.12973,-1.84324 0,-0.17838 0,-0.59459 0.0595,-0.41622 0.0595,-0.5946 0,-0.71351 -0.23783,-1.18918 -0.35676,-2.49729 -0.35676,-6.36215 -0.0595,-5.47025 -0.11892,-6.4216 0.17838,-1.42703 0,-4.69729 -0.17838,-3.27026 0,-5.05404 -0.89189,-7.78917 -0.77297,-10.76213 0.11892,-3.56756 1.96216,-4.45945 0.77297,-0.35675 1.6054,-0.35675 2.85404,0 4.57836,3.27026 z m -3.98377,0.35675 q -0.65405,0.77297 -0.83243,2.08108 -0.17838,1.24864 -0.35675,2.43783 -0.89189,1.01081 -0.89189,3.09188 0,2.97297 -0.0595,3.32972 0,2.37838 -0.0595,1.78378 0.0595,1.07027 0.65405,1.54595 0.41621,5.88647 0,9.33511 0.0595,1.96215 0,5.70809 -0.0595,4.63782 -0.0595,5.1135 0.0595,0.29729 0.0595,0.65405 0,0.2973 -0.0595,0.89189 -0.0595,0.53513 -0.0595,0.83243 0,0.77297 0.41622,1.3081 0.29729,-0.23783 1.36756,-0.0594 0.89189,0.17837 1.18919,-0.2973 0.11891,-1.66486 0.47567,-5.35134 -0.2973,-2.14053 -0.41621,-5.05404 0.11891,-3.98377 0.17837,-11.89186 -0.17837,-2.31891 -0.35675,-7.19457 0.23783,-2.31892 -0.0595,-7.13512 -0.95135,-0.23784 -1.12973,-1.12973 z"
         id="path5136" />
      <path
         d="m 180.31942,110.07836 q 0.35675,0.53513 0.11891,1.48648 0.53514,0.77297 0.53514,1.96216 0,0.47567 -0.11892,1.42702 -0.0595,0.95135 -0.0595,1.42702 0,0.47568 0.0595,0.83243 0.65405,3.15135 0,7.72971 -0.41622,2.31891 -1.07027,6.7189 0,1.30811 0,2.61621 -0.11892,1.48648 -1.3081,2.08108 1.07026,0.65405 1.96215,2.85404 -0.53513,2.02162 -0.71351,5.82702 -0.17838,4.10269 -0.53513,5.88647 -0.2973,0.23783 -0.65405,0.23783 -0.17838,0 -0.35676,-0.0595 -0.47567,-0.41621 -0.41621,-1.24864 0.11891,-1.30811 0.11891,-1.36756 0.23784,-1.66487 0.17838,-4.81621 -0.11892,-3.44864 0,-4.93512 -0.0595,-0.11892 -0.23784,-0.89189 -0.17837,-0.53513 -0.65405,-0.59459 -0.11892,0 -1.36756,0.29729 0.17838,1.07027 0.17838,2.37838 0,0.89189 -0.17838,3.38918 -0.17838,2.02161 -0.0595,3.2108 -0.11892,0 -0.11892,0.0595 0.11892,1.24864 -0.23784,3.56756 -0.0595,0.17837 0.11892,0.59459 0.17838,0.35675 0.17838,0.53513 0,0.2973 -0.53513,0.2973 -0.0595,-0.0595 -0.23784,-0.0595 -0.17838,0 -0.2973,0 -0.23783,-0.35676 -0.23783,-0.83243 0,-0.2973 0.17837,-1.12973 0.23784,-0.83243 0.11892,-1.3081 -0.29729,-2.49729 -0.77297,-7.72971 -0.2973,-4.87566 0.23784,-8.9189 -0.2973,-1.54594 -0.35676,-4.8162 0,-3.32972 -0.29729,-5.05404 -0.0595,-1.72432 -0.35676,-6.24323 l -0.47567,-6.95674 q 0.17837,-0.35675 0.47567,-0.35675 0.11892,0 0.35676,0.0595 0.23783,0.0595 0.35675,0.0595 0.23784,0 0.41622,-0.23784 2.73512,-0.23784 6.06485,2.02162 z m -4.28107,0.89189 q 0.11891,3.32972 -0.35676,4.57836 -0.17838,1.84324 -0.53513,5.52972 -0.23784,3.03242 0.59459,5.05404 -0.11892,1.84324 -0.35676,5.35133 -0.11892,2.79459 0.35676,4.75675 0.83243,0.11892 1.07027,-0.11892 1.36756,-0.83243 1.36756,-2.73513 0,-0.53513 -0.17838,-1.66486 -0.11892,-1.12972 -0.11892,-1.72432 0,-0.53513 0.11892,-1.01081 0.41622,-3.50809 0.47568,-7.84862 0.0595,-2.91351 -0.2973,-9.2162 -0.0595,-0.83243 -0.83243,-0.77297 -1.07027,0.0595 -1.3081,-0.17837 z"
         id="path5138" />
    </g>
  </g>
</svg>
