<?xml version="1.0" encoding="UTF-8" standalone="no"?>
<!-- Created with Inkscape (http://www.inkscape.org/) -->

<svg
   width="184.42215mm"
   height="37.72208mm"
   viewBox="0 0 184.42215 37.72208"
   version="1.1"
   id="svg5"
   inkscape:version="1.1 (c68e22c387, 2021-05-23)"
   sodipodi:docname="auto-adventure.svg"
   xmlns:inkscape="http://www.inkscape.org/namespaces/inkscape"
   xmlns:sodipodi="http://sodipodi.sourceforge.net/DTD/sodipodi-0.dtd"
   xmlns="http://www.w3.org/2000/svg"
   xmlns:svg="http://www.w3.org/2000/svg">
  <sodipodi:namedview
     id="namedview7"
     pagecolor="#ffffff"
     bordercolor="#666666"
     borderopacity="1.0"
     inkscape:pageshadow="2"
     inkscape:pageopacity="0.0"
     inkscape:pagecheckerboard="0"
     inkscape:document-units="mm"
     showgrid="false"
     fit-margin-top="0"
     fit-margin-left="0"
     fit-margin-right="0"
     fit-margin-bottom="0"
     inkscape:zoom="0.67081229"
     inkscape:cx="316.78012"
     inkscape:cy="55.15701"
     inkscape:window-width="1920"
     inkscape:window-height="1138"
     inkscape:window-x="-8"
     inkscape:window-y="-8"
     inkscape:window-maximized="1"
     inkscape:current-layer="layer1" />
  <defs
     id="defs2" />
  <g
     inkscape:label="Calque 1"
     inkscape:groupmode="layer"
     id="layer1"
     transform="translate(-21.177841,-133.82377)">
    <g
       id="g7708">
      <rect
         style="fill:#ffffff;fill-opacity:1;fill-rule:evenodd;stroke:none;stroke-width:5.46579;stroke-linecap:round;stroke-linejoin:round;stroke-miterlimit:4;stroke-dasharray:none;stroke-opacity:1;paint-order:stroke markers fill"
         id="rect7534"
         width="23.922138"
         height="14.199203"
         x="44.971249"
         y="139.36368" />
      <rect
         style="fill:#ffffff;fill-opacity:1;fill-rule:evenodd;stroke:none;stroke-width:4.12798;stroke-linecap:round;stroke-linejoin:round;stroke-miterlimit:4;stroke-dasharray:none;stroke-opacity:1;paint-order:stroke markers fill"
         id="rect7660"
         width="13.64488"
         height="14.199203"
         x="95.542229"
         y="141.96762" />
      <rect
         style="fill:#ffffff;fill-opacity:1;fill-rule:evenodd;stroke:none;stroke-width:4.71667;stroke-linecap:round;stroke-linejoin:round;stroke-miterlimit:4;stroke-dasharray:none;stroke-opacity:1;paint-order:stroke markers fill"
         id="rect7662"
         width="13.64488"
         height="18.537848"
         x="118.31482"
         y="142.2166" />
      <rect
         style="fill:#ffffff;fill-opacity:1;fill-rule:evenodd;stroke:none;stroke-width:5.52252;stroke-linecap:round;stroke-linejoin:round;stroke-miterlimit:4;stroke-dasharray:none;stroke-opacity:1;paint-order:stroke markers fill"
         id="rect7664"
         width="24.421268"
         height="14.199203"
         x="171.58244"
         y="142.52144" />
      <g
         aria-label="Adventure"
         id="text1376"
         style="font-size:25.4px;line-height:1.25;font-family:'Mario Kart DS';-inkscape-font-specification:'Mario Kart DS';fill:#004000;fill-opacity:1;stroke:#ffffff;stroke-width:2.98856;stroke-linecap:round;stroke-linejoin:round;stroke-miterlimit:4;stroke-dasharray:none;stroke-opacity:1;paint-order:stroke markers fill"
         transform="matrix(1.6730438,0,0,1.6730438,-15.936157,-113.77532)">
        <path
           d="m 35.546784,153.95229 q -0.644922,0.89296 -2.666504,4.31601 l -1.116211,1.88516 2.517676,-0.0496 0.570507,0.44648 q 0.719336,-1.56269 0.719336,-5.74228 0,-0.63252 -0.0248,-0.85576 z m -1.277442,8.94209 -3.770312,0.18603 q -1.153418,1.84795 -2.120801,4.81211 l -4.700488,1.15342 q 0.198437,-0.76895 1.835547,-4.06797 l 1.128613,-2.29443 q 1.599902,-3.24942 5.022949,-7.99952 1.872754,-2.62929 3.708301,-4.65087 1.079004,-0.0372 3.199804,-0.14883 l 0.111622,1.5875 q 0.111621,1.79834 0.111621,3.46025 0,3.26182 -0.483692,6.07715 -0.16123,0.48369 -0.74414,4.04316 -0.235645,1.47588 -0.471289,2.40606 l -4.700489,1.14101 q 0.496094,-1.5999 1.872754,-5.70507 z"
           style="font-family:Adventure;-inkscape-font-specification:Adventure;fill:#004000;fill-opacity:1;stroke:#ffffff;stroke-width:2.98856;stroke-linecap:round;stroke-linejoin:round;stroke-miterlimit:4;stroke-dasharray:none;stroke-opacity:1;paint-order:stroke markers fill"
           id="path3721" />
        <path
           d="m 44.935358,156.1227 -1.947168,5.2958 q 2.480469,-0.58291 4.564062,-2.71612 1.674317,-1.74873 1.674317,-3.62148 0,-1.89756 -0.731738,-2.14561 -0.806153,-0.29765 -1.327051,-0.29765 h -0.03721 q -1.364258,0.062 -2.158008,0.29765 l 1.103809,0.55811 q -0.148829,0.26045 -0.744141,1.56269 -0.111621,0.31006 -0.396875,1.06661 z m -2.083594,8.32197 -0.74414,0.23564 q -1.761133,0.23565 -3.336231,0.31006 0.248047,-0.69453 1.314649,-3.83232 0.520898,-1.5627 1.612304,-4.65088 0.471289,-1.25264 1.525489,-3.24942 -0.334864,0.21084 -0.892969,0.4961 l -0.731738,-3.39824 q 2.554882,-0.38448 4.415234,-0.38448 0.42168,0 0.95498,0.0496 1.475879,0.11162 1.686719,0.14883 0.781348,0.12402 1.723926,0.5333 2.083593,0.86817 2.083593,2.97656 0,0.39688 -0.08682,0.75655 -0.843359,7.24297 -9.525,10.00869 z"
           style="font-family:Adventure;-inkscape-font-specification:Adventure;fill:#004000;fill-opacity:1;stroke:#ffffff;stroke-width:2.98856;stroke-linecap:round;stroke-linejoin:round;stroke-miterlimit:4;stroke-dasharray:none;stroke-opacity:1;paint-order:stroke markers fill"
           id="path3723" />
        <path
           d="m 57.461726,164.34545 -3.75791,0.91777 q 0.148828,-0.34726 0.297656,-5.10976 0.09922,-4.16719 0.09922,-7.76387 0,-1.26504 -0.03721,-1.53789 l 3.633886,-0.81855 q 0.06201,0.19843 0.06201,0.89296 0,2.28204 -0.657324,8.69405 1.227832,-2.24483 2.75332,-4.65088 1.984375,-3.11299 3.088184,-4.2416 l 0.409277,-0.0372 q 1.116211,-0.13643 2.579688,-0.22324 -0.942579,1.12861 -2.058789,3.13779 -0.595313,1.10381 -1.785938,3.29902 l -2.182812,3.84473 q -1.463477,2.49287 -2.443262,3.59668 z"
           style="font-family:Adventure;-inkscape-font-specification:Adventure;fill:#004000;fill-opacity:1;stroke:#ffffff;stroke-width:2.98856;stroke-linecap:round;stroke-linejoin:round;stroke-miterlimit:4;stroke-dasharray:none;stroke-opacity:1;paint-order:stroke markers fill"
           id="path3725" />
        <path
           d="m 75.705574,149.97113 -0.917773,2.88975 h -1.141016 q -3.212207,0 -5.022949,0.14883 l 0.620117,0.35967 q -0.148828,0.32246 -0.731738,1.71152 -0.161231,0.35967 -0.359668,0.84336 l 4.278809,-0.16123 -0.905372,2.59209 -4.216796,0.14883 q -0.458887,1.35185 -1.00459,3.43545 1.723926,-0.0992 5.159375,-0.26045 l -0.942578,2.86494 h -2.133203 q -2.182813,0 -6.424414,0.69453 v -0.0372 q 0,-0.13642 0.520898,-1.99678 0.620117,-2.158 1.103809,-3.52226 0.818554,-2.28203 1.860351,-4.60127 0.396875,-0.86816 0.892969,-1.81074 -1.054199,0.11162 -1.971973,0.22324 l 0.880567,-2.97656 q 2.058789,-0.16123 4.92373,-0.32246 1.711523,-0.0992 5.531445,-0.22325 z"
           style="font-family:Adventure;-inkscape-font-specification:Adventure;fill:#004000;fill-opacity:1;stroke:#ffffff;stroke-width:2.98856;stroke-linecap:round;stroke-linejoin:round;stroke-miterlimit:4;stroke-dasharray:none;stroke-opacity:1;paint-order:stroke markers fill"
           id="path3727" />
        <path
           d="m 75.11026,150.306 3.646289,-0.81856 q 1.079003,4.30362 1.550293,8.06153 0.06201,0 0.446484,-0.91778 l 0.396875,-0.96738 q 0.644922,-1.51309 2.840137,-5.48184 l 0.409277,-0.0372 q 1.116211,-0.13643 2.579687,-0.22325 -1.32705,2.41846 -2.802929,5.74229 -0.520899,1.20303 -1.550293,4.60127 -0.285254,0.90537 -1.079004,3.64629 l -3.770313,0.91777 q 0.04961,-0.21084 0.04961,-0.64492 0,-2.1332 -0.533301,-5.65547 -0.198437,-1.38906 -0.347266,-1.38906 l -1.302246,3.12539 q -0.892968,2.1208 -1.079004,3.99355 l -3.75791,0.93018 q 0.657325,-2.43086 1.475879,-4.92373 0.63252,-1.89756 1.872754,-4.60127 0.545703,-1.19063 1.513086,-2.97656 0.06201,-0.18604 0.06201,-0.29766 0,-0.32246 -0.260449,-1.02939 -0.322461,-0.90537 -0.359668,-1.0542 z"
           style="font-family:Adventure;-inkscape-font-specification:Adventure;fill:#004000;fill-opacity:1;stroke:#ffffff;stroke-width:2.98856;stroke-linecap:round;stroke-linejoin:round;stroke-miterlimit:4;stroke-dasharray:none;stroke-opacity:1;paint-order:stroke markers fill"
           id="path3729" />
        <path
           d="m 96.392682,149.97113 -0.917773,2.88975 h -1.190625 q -1.748731,0 -3.026172,0.0372 l 0.868164,0.47129 q -0.954981,1.82314 -2.331641,6.31279 -0.496093,1.69912 -1.240234,4.62607 l -0.09922,0.0372 q -1.339453,0.24805 -3.658691,0.89297 0.731738,-2.77813 1.674316,-5.55625 0.570508,-1.73633 1.885156,-4.60127 0.297657,-0.70693 0.992188,-2.07119 -1.885156,0.17363 -4.291211,0.48369 l 0.880566,-2.97656 q 2.158008,-0.16123 4.923731,-0.32246 1.699121,-0.0992 5.531445,-0.22325 z"
           style="font-family:Adventure;-inkscape-font-specification:Adventure;fill:#004000;fill-opacity:1;stroke:#ffffff;stroke-width:2.98856;stroke-linecap:round;stroke-linejoin:round;stroke-miterlimit:4;stroke-dasharray:none;stroke-opacity:1;paint-order:stroke markers fill"
           id="path3731" />
        <path
           d="m 108.67101,149.97113 q -0.39688,0.93018 -1.33946,3.95635 -0.93017,3.02617 -1.43867,4.46484 -1.40146,3.96875 -3.21221,5.50665 -1.52548,1.27744 -3.968746,1.27744 -1.227833,0 -2.443262,-0.86817 -1.736328,-1.26504 -1.736328,-3.7207 0,-1.01699 0.297656,-2.19522 0.942578,-3.69589 2.976562,-8.03671 l 3.249418,-0.38448 q -1.079007,2.6045 -1.401468,3.39825 -1.203028,3.06337 -1.686719,5.02294 -0.161231,0.73174 -0.161231,1.43868 0,2.18281 1.562696,2.18281 1.785942,0 3.137792,-3.62149 l 3.12539,-8.42119 z"
           style="font-family:Adventure;-inkscape-font-specification:Adventure;fill:#004000;fill-opacity:1;stroke:#ffffff;stroke-width:2.98856;stroke-linecap:round;stroke-linejoin:round;stroke-miterlimit:4;stroke-dasharray:none;stroke-opacity:1;paint-order:stroke markers fill"
           id="path3733" />
        <path
           d="m 118.80372,154.43598 q -0.62012,3.31142 -4.2416,4.15478 2.31924,2.53008 3.85713,5.08496 l -3.42305,1.24024 q -1.47588,-3.00137 -3.94394,-5.87871 l -0.5085,-0.42168 -0.33486,1.02939 q -0.34727,1.11621 -1.24024,4.65088 l -0.11162,0.0124 q -1.5875,0.31006 -3.65869,0.86817 0.69453,-2.67891 1.66191,-5.53145 0.59532,-1.79834 1.87276,-4.58887 0.26045,-0.5581 0.74414,-1.51308 -0.40928,0.13642 -0.71934,0.21084 l -0.73174,-3.39824 q 2.55489,-0.38448 4.41524,-0.38448 0.42168,0 0.95498,0.0496 1.47588,0.11162 1.68672,0.14883 0.78134,0.12402 1.72392,0.5333 2.0836,0.86817 2.0836,2.97656 0,0.29766 -0.0868,0.75655 z m -3.02617,-0.32246 q 0,-0.79375 -1.0542,-1.17823 -0.31006,-0.12402 -1.00459,-0.12402 h -0.26045 q -0.62012,0.0248 -1.66191,0.32246 l 0.70693,0.35967 q -0.35967,0.63252 -0.74414,1.56269 -0.0248,0.062 -0.39688,1.06661 l 0.85577,-0.0248 q 1.32705,-0.0372 2.24482,-0.38447 1.31465,-0.5209 1.31465,-1.5999 z"
           style="font-family:Adventure;-inkscape-font-specification:Adventure;fill:#004000;fill-opacity:1;stroke:#ffffff;stroke-width:2.98856;stroke-linecap:round;stroke-linejoin:round;stroke-miterlimit:4;stroke-dasharray:none;stroke-opacity:1;paint-order:stroke markers fill"
           id="path3735" />
        <path
           d="m 130.92081,149.97113 -0.91778,2.88975 h -1.14101 q -3.21221,0 -5.02295,0.14883 l 0.62012,0.35967 q -0.14883,0.32246 -0.73174,1.71152 -0.16123,0.35967 -0.35967,0.84336 l 4.27881,-0.16123 -0.90537,2.59209 -4.2168,0.14883 q -0.45889,1.35185 -1.00459,3.43545 1.72393,-0.0992 5.15938,-0.26045 l -0.94258,2.86494 h -2.13321 q -2.18281,0 -6.42441,0.69453 v -0.0372 q 0,-0.13642 0.5209,-1.99678 0.62012,-2.158 1.10381,-3.52226 0.81855,-2.28203 1.86035,-4.60127 0.39687,-0.86816 0.89297,-1.81074 -1.0542,0.11162 -1.97197,0.22324 l 0.88056,-2.97656 q 2.05879,-0.16123 4.92373,-0.32246 1.71153,-0.0992 5.53145,-0.22325 z"
           style="font-family:Adventure;-inkscape-font-specification:Adventure;fill:#004000;fill-opacity:1;stroke:#ffffff;stroke-width:2.98856;stroke-linecap:round;stroke-linejoin:round;stroke-miterlimit:4;stroke-dasharray:none;stroke-opacity:1;paint-order:stroke markers fill"
           id="path3737" />
      </g>
      <g
         aria-label="Adventure"
         id="g3857"
         style="font-size:25.4px;line-height:1.25;font-family:'Mario Kart DS';-inkscape-font-specification:'Mario Kart DS';fill:#004000;fill-opacity:1;stroke-width:0.264583"
         transform="matrix(1.6730438,0,0,1.6730438,-15.936157,-113.77532)">
        <path
           d="m 35.546784,153.95229 q -0.644922,0.89296 -2.666504,4.31601 l -1.116211,1.88516 2.517676,-0.0496 0.570507,0.44648 q 0.719336,-1.56269 0.719336,-5.74228 0,-0.63252 -0.0248,-0.85576 z m -1.277442,8.94209 -3.770312,0.18603 q -1.153418,1.84795 -2.120801,4.81211 l -4.700488,1.15342 q 0.198437,-0.76895 1.835547,-4.06797 l 1.128613,-2.29443 q 1.599902,-3.24942 5.022949,-7.99952 1.872754,-2.62929 3.708301,-4.65087 1.079004,-0.0372 3.199804,-0.14883 l 0.111622,1.5875 q 0.111621,1.79834 0.111621,3.46025 0,3.26182 -0.483692,6.07715 -0.16123,0.48369 -0.74414,4.04316 -0.235645,1.47588 -0.471289,2.40606 l -4.700489,1.14101 q 0.496094,-1.5999 1.872754,-5.70507 z"
           style="font-family:Adventure;-inkscape-font-specification:Adventure;fill:#004000;fill-opacity:1"
           id="path3839" />
        <path
           d="m 44.935358,156.1227 -1.947168,5.2958 q 2.480469,-0.58291 4.564062,-2.71612 1.674317,-1.74873 1.674317,-3.62148 0,-1.89756 -0.731738,-2.14561 -0.806153,-0.29765 -1.327051,-0.29765 h -0.03721 q -1.364258,0.062 -2.158008,0.29765 l 1.103809,0.55811 q -0.148829,0.26045 -0.744141,1.56269 -0.111621,0.31006 -0.396875,1.06661 z m -2.083594,8.32197 -0.74414,0.23564 q -1.761133,0.23565 -3.336231,0.31006 0.248047,-0.69453 1.314649,-3.83232 0.520898,-1.5627 1.612304,-4.65088 0.471289,-1.25264 1.525489,-3.24942 -0.334864,0.21084 -0.892969,0.4961 l -0.731738,-3.39824 q 2.554882,-0.38448 4.415234,-0.38448 0.42168,0 0.95498,0.0496 1.475879,0.11162 1.686719,0.14883 0.781348,0.12402 1.723926,0.5333 2.083593,0.86817 2.083593,2.97656 0,0.39688 -0.08682,0.75655 -0.843359,7.24297 -9.525,10.00869 z"
           style="font-family:Adventure;-inkscape-font-specification:Adventure;fill:#004000;fill-opacity:1"
           id="path3841" />
        <path
           d="m 57.461726,164.34545 -3.75791,0.91777 q 0.148828,-0.34726 0.297656,-5.10976 0.09922,-4.16719 0.09922,-7.76387 0,-1.26504 -0.03721,-1.53789 l 3.633886,-0.81855 q 0.06201,0.19843 0.06201,0.89296 0,2.28204 -0.657324,8.69405 1.227832,-2.24483 2.75332,-4.65088 1.984375,-3.11299 3.088184,-4.2416 l 0.409277,-0.0372 q 1.116211,-0.13643 2.579688,-0.22324 -0.942579,1.12861 -2.058789,3.13779 -0.595313,1.10381 -1.785938,3.29902 l -2.182812,3.84473 q -1.463477,2.49287 -2.443262,3.59668 z"
           style="font-family:Adventure;-inkscape-font-specification:Adventure;fill:#004000;fill-opacity:1"
           id="path3843" />
        <path
           d="m 75.705574,149.97113 -0.917773,2.88975 h -1.141016 q -3.212207,0 -5.022949,0.14883 l 0.620117,0.35967 q -0.148828,0.32246 -0.731738,1.71152 -0.161231,0.35967 -0.359668,0.84336 l 4.278809,-0.16123 -0.905372,2.59209 -4.216796,0.14883 q -0.458887,1.35185 -1.00459,3.43545 1.723926,-0.0992 5.159375,-0.26045 l -0.942578,2.86494 h -2.133203 q -2.182813,0 -6.424414,0.69453 v -0.0372 q 0,-0.13642 0.520898,-1.99678 0.620117,-2.158 1.103809,-3.52226 0.818554,-2.28203 1.860351,-4.60127 0.396875,-0.86816 0.892969,-1.81074 -1.054199,0.11162 -1.971973,0.22324 l 0.880567,-2.97656 q 2.058789,-0.16123 4.92373,-0.32246 1.711523,-0.0992 5.531445,-0.22325 z"
           style="font-family:Adventure;-inkscape-font-specification:Adventure;fill:#004000;fill-opacity:1"
           id="path3845" />
        <path
           d="m 75.11026,150.306 3.646289,-0.81856 q 1.079003,4.30362 1.550293,8.06153 0.06201,0 0.446484,-0.91778 l 0.396875,-0.96738 q 0.644922,-1.51309 2.840137,-5.48184 l 0.409277,-0.0372 q 1.116211,-0.13643 2.579687,-0.22325 -1.32705,2.41846 -2.802929,5.74229 -0.520899,1.20303 -1.550293,4.60127 -0.285254,0.90537 -1.079004,3.64629 l -3.770313,0.91777 q 0.04961,-0.21084 0.04961,-0.64492 0,-2.1332 -0.533301,-5.65547 -0.198437,-1.38906 -0.347266,-1.38906 l -1.302246,3.12539 q -0.892968,2.1208 -1.079004,3.99355 l -3.75791,0.93018 q 0.657325,-2.43086 1.475879,-4.92373 0.63252,-1.89756 1.872754,-4.60127 0.545703,-1.19063 1.513086,-2.97656 0.06201,-0.18604 0.06201,-0.29766 0,-0.32246 -0.260449,-1.02939 -0.322461,-0.90537 -0.359668,-1.0542 z"
           style="font-family:Adventure;-inkscape-font-specification:Adventure;fill:#004000;fill-opacity:1"
           id="path3847" />
        <path
           d="m 96.392682,149.97113 -0.917773,2.88975 h -1.190625 q -1.748731,0 -3.026172,0.0372 l 0.868164,0.47129 q -0.954981,1.82314 -2.331641,6.31279 -0.496093,1.69912 -1.240234,4.62607 l -0.09922,0.0372 q -1.339453,0.24805 -3.658691,0.89297 0.731738,-2.77813 1.674316,-5.55625 0.570508,-1.73633 1.885156,-4.60127 0.297657,-0.70693 0.992188,-2.07119 -1.885156,0.17363 -4.291211,0.48369 l 0.880566,-2.97656 q 2.158008,-0.16123 4.923731,-0.32246 1.699121,-0.0992 5.531445,-0.22325 z"
           style="font-family:Adventure;-inkscape-font-specification:Adventure;fill:#004000;fill-opacity:1"
           id="path3849" />
        <path
           d="m 108.67101,149.97113 q -0.39688,0.93018 -1.33946,3.95635 -0.93017,3.02617 -1.43867,4.46484 -1.40146,3.96875 -3.21221,5.50665 -1.52548,1.27744 -3.968746,1.27744 -1.227833,0 -2.443262,-0.86817 -1.736328,-1.26504 -1.736328,-3.7207 0,-1.01699 0.297656,-2.19522 0.942578,-3.69589 2.976562,-8.03671 l 3.249418,-0.38448 q -1.079007,2.6045 -1.401468,3.39825 -1.203028,3.06337 -1.686719,5.02294 -0.161231,0.73174 -0.161231,1.43868 0,2.18281 1.562696,2.18281 1.785942,0 3.137792,-3.62149 l 3.12539,-8.42119 z"
           style="font-family:Adventure;-inkscape-font-specification:Adventure;fill:#004000;fill-opacity:1"
           id="path3851" />
        <path
           d="m 118.80372,154.43598 q -0.62012,3.31142 -4.2416,4.15478 2.31924,2.53008 3.85713,5.08496 l -3.42305,1.24024 q -1.47588,-3.00137 -3.94394,-5.87871 l -0.5085,-0.42168 -0.33486,1.02939 q -0.34727,1.11621 -1.24024,4.65088 l -0.11162,0.0124 q -1.5875,0.31006 -3.65869,0.86817 0.69453,-2.67891 1.66191,-5.53145 0.59532,-1.79834 1.87276,-4.58887 0.26045,-0.5581 0.74414,-1.51308 -0.40928,0.13642 -0.71934,0.21084 l -0.73174,-3.39824 q 2.55489,-0.38448 4.41524,-0.38448 0.42168,0 0.95498,0.0496 1.47588,0.11162 1.68672,0.14883 0.78134,0.12402 1.72392,0.5333 2.0836,0.86817 2.0836,2.97656 0,0.29766 -0.0868,0.75655 z m -3.02617,-0.32246 q 0,-0.79375 -1.0542,-1.17823 -0.31006,-0.12402 -1.00459,-0.12402 h -0.26045 q -0.62012,0.0248 -1.66191,0.32246 l 0.70693,0.35967 q -0.35967,0.63252 -0.74414,1.56269 -0.0248,0.062 -0.39688,1.06661 l 0.85577,-0.0248 q 1.32705,-0.0372 2.24482,-0.38447 1.31465,-0.5209 1.31465,-1.5999 z"
           style="font-family:Adventure;-inkscape-font-specification:Adventure;fill:#004000;fill-opacity:1"
           id="path3853" />
        <path
           d="m 130.92081,149.97113 -0.91778,2.88975 h -1.14101 q -3.21221,0 -5.02295,0.14883 l 0.62012,0.35967 q -0.14883,0.32246 -0.73174,1.71152 -0.16123,0.35967 -0.35967,0.84336 l 4.27881,-0.16123 -0.90537,2.59209 -4.2168,0.14883 q -0.45889,1.35185 -1.00459,3.43545 1.72393,-0.0992 5.15938,-0.26045 l -0.94258,2.86494 h -2.13321 q -2.18281,0 -6.42441,0.69453 v -0.0372 q 0,-0.13642 0.5209,-1.99678 0.62012,-2.158 1.10381,-3.52226 0.81855,-2.28203 1.86035,-4.60127 0.39687,-0.86816 0.89297,-1.81074 -1.0542,0.11162 -1.97197,0.22324 l 0.88056,-2.97656 q 2.05879,-0.16123 4.92373,-0.32246 1.71153,-0.0992 5.53145,-0.22325 z"
           style="font-family:Adventure;-inkscape-font-specification:Adventure;fill:#004000;fill-opacity:1"
           id="path3855" />
      </g>
    </g>
  </g>
</svg>
