<?xml version="1.0" encoding="UTF-8" standalone="no"?>
<!-- Created with Inkscape (http://www.inkscape.org/) -->

<svg
   width="199.60493mm"
   height="33.932098mm"
   viewBox="0 0 199.60493 33.932098"
   version="1.1"
   id="svg5"
   inkscape:version="1.1 (c68e22c387, 2021-05-23)"
   sodipodi:docname="auto-strategyautobattler.svg"
   xmlns:inkscape="http://www.inkscape.org/namespaces/inkscape"
   xmlns:sodipodi="http://sodipodi.sourceforge.net/DTD/sodipodi-0.dtd"
   xmlns="http://www.w3.org/2000/svg"
   xmlns:svg="http://www.w3.org/2000/svg">
  <sodipodi:namedview
     id="namedview7"
     pagecolor="#ffffff"
     bordercolor="#666666"
     borderopacity="1.0"
     inkscape:pageshadow="2"
     inkscape:pageopacity="0.0"
     inkscape:pagecheckerboard="0"
     inkscape:document-units="mm"
     showgrid="false"
     fit-margin-top="0"
     fit-margin-left="0"
     fit-margin-right="0"
     fit-margin-bottom="0"
     inkscape:zoom="0.94867184"
     inkscape:cx="372.62622"
     inkscape:cy="187.63074"
     inkscape:window-width="1920"
     inkscape:window-height="1138"
     inkscape:window-x="-8"
     inkscape:window-y="-8"
     inkscape:window-maximized="1"
     inkscape:current-layer="layer1" />
  <defs
     id="defs2" />
  <g
     inkscape:label="Calque 1"
     inkscape:groupmode="layer"
     id="layer1"
     transform="translate(-6.7386094,-99.038362)">
    <rect
       style="fill:#ffffff;fill-rule:evenodd;stroke:none;stroke-width:5.88556;stroke-linecap:round;stroke-linejoin:round;stroke-miterlimit:4;stroke-dasharray:none;paint-order:stroke markers fill"
       id="rect4369"
       width="49.643967"
       height="19.674726"
       x="151.20578"
       y="108.78378" />
    <rect
       style="fill:#ffffff;fill-rule:evenodd;stroke:none;stroke-width:2.37092;stroke-linecap:round;stroke-linejoin:round;stroke-miterlimit:4;stroke-dasharray:none;paint-order:stroke markers fill"
       id="rect4517"
       width="14.864545"
       height="19.794615"
       x="106.33263"
       y="109.22558" />
    <rect
       style="fill:#ffffff;fill-rule:evenodd;stroke:none;stroke-width:2.12092;stroke-linecap:round;stroke-linejoin:round;stroke-miterlimit:4;stroke-dasharray:none;paint-order:stroke markers fill"
       id="rect4725"
       width="14.864545"
       height="15.840345"
       x="113.21181"
       y="110.66976" />
    <rect
       style="fill:#ffffff;fill-rule:evenodd;stroke:none;stroke-width:2.37092;stroke-linecap:round;stroke-linejoin:round;stroke-miterlimit:4;stroke-dasharray:none;paint-order:stroke markers fill"
       id="rect4727"
       width="14.864545"
       height="19.794615"
       x="74.582611"
       y="109.22558" />
    <rect
       style="fill:#ffffff;fill-rule:evenodd;stroke:none;stroke-width:2.37092;stroke-linecap:round;stroke-linejoin:round;stroke-miterlimit:4;stroke-dasharray:none;paint-order:stroke markers fill"
       id="rect4729"
       width="14.864545"
       height="19.794615"
       x="44.949249"
       y="108.16724" />
    <rect
       style="fill:#ffffff;fill-rule:evenodd;stroke:none;stroke-width:1.25952;stroke-linecap:round;stroke-linejoin:round;stroke-miterlimit:4;stroke-dasharray:none;paint-order:stroke markers fill"
       id="rect4731"
       width="9.5228548"
       height="8.7200613"
       x="13.180757"
       y="119.46149" />
    <g
       aria-label="Auto Chess"
       id="text1534"
       style="font-size:41.9871px;line-height:1.25;font-family:'Rose Of Baltimore';-inkscape-font-specification:'Rose Of Baltimore';fill:#1a1a1a;stroke:#ffffff;stroke-width:4;stroke-linecap:round;stroke-linejoin:round;stroke-miterlimit:4;stroke-dasharray:none;paint-order:stroke markers fill">
      <path
         d="m 24.934805,130.97053 q -1.414605,-1.70162 -2.97272,-4.30531 -6.539982,4.01829 -9.307687,4.01829 -1.291595,0 -2.603692,-1.3326 -1.3120966,-1.33259 -1.3120966,-2.62419 0,-4.55134 10.1687506,-8.81565 -0.451033,-1.80413 -1.61962,-5.26889 -0.430531,-1.00457 -1.127583,-1.47611 -0.779057,-0.45103 -1.558115,-0.90207 l -1.947644,1.2301 -0.471534,-0.63555 q 1.90664,-1.66062 2.43968,-2.02965 1.619619,-1.12758 2.84971,-1.12758 2.952218,0 4.776852,5.4534 l 3.280243,9.79972 q 0.676549,2.00915 3.095728,5.49441 z m -12.280407,-6.95001 q 0,2.07065 2.890714,4.46933 1.968145,0 3.587764,-1.12758 1.804134,-1.23009 1.88614,-3.09573 l -1.517112,-4.48983 q -2.316671,0 -4.32582,0.96357 -2.521686,1.20959 -2.521686,3.28024 z"
         style="font-family:Livingstone;-inkscape-font-specification:'Livingstone, Normal';stroke:#ffffff;stroke-width:4;stroke-linecap:round;stroke-linejoin:round;stroke-miterlimit:4;stroke-dasharray:none;paint-order:stroke markers fill"
         id="path4101" />
      <path
         d="m 41.172003,128.63336 q 3.956792,-2.82921 3.956792,-7.99559 v -12.77244 l 4.838357,-0.47154 -0.287021,15.88868 q -0.0205,1.51711 0.328024,2.7267 0.492037,1.76313 1.599118,1.76313 0.328025,0 0.656049,-0.16402 v 0.75856 l -4.038798,1.92714 q -1.865638,-1.68112 -2.890714,-3.85428 -1.455607,1.3121 -3.546761,2.64469 -2.603692,1.64012 -3.874786,1.64012 -3.731276,0 -5.945439,-2.19366 -2.193662,-2.21416 -2.193662,-5.90443 0,-1.57862 0.246018,-4.73585 0.26652,-3.15724 0.26652,-4.73585 0,-4.42833 -1.168586,-4.38733 v -0.67655 l 5.986441,-0.69705 q -0.635546,13.96153 -0.635546,14.37156 0,2.97272 1.886139,4.81786 1.783631,1.76313 4.817855,2.05015 z"
         style="font-family:Livingstone;-inkscape-font-specification:'Livingstone, Normal';stroke:#ffffff;stroke-width:4;stroke-linecap:round;stroke-linejoin:round;stroke-miterlimit:4;stroke-dasharray:none;paint-order:stroke markers fill"
         id="path4103" />
      <path
         d="m 62.8216,103.00647 q -1.127583,1.68112 -1.148085,4.69485 0.574043,0 1.742629,0.041 1.189088,0.041 1.76313,0.041 3.095728,0 5.166381,-1.14808 l 0.410031,0.55354 q -2.316671,2.27567 -6.027445,2.27567 -0.471535,0 -1.517112,-0.0205 -1.025076,-0.041 -1.578617,-0.041 0,1.55812 -0.041,4.73585 -0.0205,3.15723 -0.0205,4.73585 0,0.38953 -0.0205,1.3326 -0.0205,0.94307 -0.0205,1.45561 0,6.31446 3.157233,7.60606 1.681124,-2.13216 1.90664,-5.82243 l 3.608267,0.55354 q -0.738055,6.745 -6.806503,6.745 -2.460181,0 -4.325819,-1.53762 -1.947644,-1.59912 -2.070653,-4.01829 -0.14351,-3.15724 -0.102507,-7.89309 0.102507,-8.1596 0.102507,-7.89308 -0.307522,0 -0.984072,-0.0205 -0.656049,-0.0205 -0.984073,-0.0205 -1.640121,0 -2.870212,0.86106 l -0.287021,-0.041 q 0.348526,-1.74263 0.553541,-2.09116 0.287021,-0.47153 1.148085,-0.47153 0.225516,0 1.332598,0.0615 1.127583,0.0615 2.091154,0.0615 0.08201,-1.3941 0.26652,-2.31667 l 5.227886,-2.84971 z"
         style="font-family:Livingstone;-inkscape-font-specification:'Livingstone, Normal';stroke:#ffffff;stroke-width:4;stroke-linecap:round;stroke-linejoin:round;stroke-miterlimit:4;stroke-dasharray:none;paint-order:stroke markers fill"
         id="path4105" />
      <path
         d="m 93.696883,118.60812 q 0,8.87716 -9.410195,11.46035 -2.644695,0.71755 -3.608266,0.71755 -0.492037,0 -1.558115,-0.32802 -3.854285,-1.16859 -5.965941,-4.0593 -2.091154,-2.89072 -2.091154,-6.92952 0,-6.64249 6.23246,-10.14824 0.984073,-0.55355 3.034224,-1.43511 2.378176,-1.00457 3.013722,-1.00457 1.599118,0 4.079802,1.27109 2.316671,1.18909 3.505758,2.46018 2.767705,2.99322 2.767705,7.99559 z m -8.815651,10.23026 q 2.501185,-0.43054 3.690272,-3.07523 0.94307,-2.05015 0.94307,-4.98187 0,-3.89529 -1.414605,-6.31446 -1.476108,-2.56269 -4.940864,-4.16181 -2.070653,-0.96357 -3.464756,-0.96357 -2.234665,0 -3.341746,3.38275 -0.79956,2.39867 -0.79956,5.22788 0,5.08438 2.234665,7.48305 1.988647,2.15266 7.093524,3.40326 z"
         style="font-family:Livingstone;-inkscape-font-specification:'Livingstone, Normal';stroke:#ffffff;stroke-width:4;stroke-linecap:round;stroke-linejoin:round;stroke-miterlimit:4;stroke-dasharray:none;paint-order:stroke markers fill"
         id="path4107" />
      <path
         d="m 118.85224,112.60118 q -4.67435,-3.54676 -6.84751,-3.58777 -3.15723,1.39411 -4.30532,3.77228 -0.98407,1.98865 -0.98407,5.82243 0,3.71077 2.31667,6.92951 2.43968,3.36225 6.02745,4.0183 2.52168,-0.79956 3.52626,-6.04795 l 3.66977,0.79956 q -0.84056,6.43748 -10.8043,6.43748 -4.0388,0 -6.70399,-3.56727 -2.43968,-3.28024 -2.43968,-7.46255 0,-4.48983 2.50118,-7.31904 2.15266,-2.46018 6.68349,-4.1413 1.14809,-0.36903 3.40326,-1.2711 4.01829,0.90207 6.8885,3.36225 z"
         style="font-family:Livingstone;-inkscape-font-specification:'Livingstone, Normal';stroke:#ffffff;stroke-width:4;stroke-linecap:round;stroke-linejoin:round;stroke-miterlimit:4;stroke-dasharray:none;paint-order:stroke markers fill"
         id="path4109" />
      <path
         d="m 130.31259,111.33008 q 4.32581,-3.62876 6.72449,-3.62876 3.32125,0 5.86343,2.41917 2.56269,2.41918 2.56269,5.69942 0,1.88614 -0.59454,5.61742 -0.57404,3.73127 -0.57404,5.63792 0,1.70162 0.79956,1.70162 0.14351,0 0.32802,-0.0615 l 0.16401,0.79956 q -1.20959,0.28702 -2.41918,0.57404 -1.4556,0.32802 -2.43968,0.32802 -0.26652,0 -0.45103,-0.0205 -0.53304,-0.082 -0.53304,-0.90207 0,-2.29617 0.55354,-6.8885 0.57404,-4.61284 0.57404,-6.90901 0,-1.98865 -2.31667,-3.73128 -2.17316,-1.64012 -4.22331,-1.64012 -4.1208,0 -4.40782,8.85665 -0.20502,6.33497 -0.38953,10.88631 l -4.32582,0.69705 q 0,-2.48069 0.041,-7.42155 0.0615,-4.94086 0.0615,-7.42155 0,-5.59691 -0.082,-7.03202 -0.34853,-5.71992 -1.66062,-5.69942 l -0.43053,0.0205 -0.14351,-0.63554 5.5354,-1.53762 q 1.70163,4.69485 1.78364,10.29176 z"
         style="font-family:Livingstone;-inkscape-font-specification:'Livingstone, Normal';stroke:#ffffff;stroke-width:4;stroke-linecap:round;stroke-linejoin:round;stroke-miterlimit:4;stroke-dasharray:none;paint-order:stroke markers fill"
         id="path4111" />
      <path
         d="m 164.71413,113.07271 q -4.51034,-4.1413 -7.23704,-4.1413 -2.41918,0 -3.81328,3.17773 -1.10708,2.54219 -1.06608,5.28939 9.04117,0.22552 9.3897,0.22552 1.78363,0 3.69027,-0.96357 l 0.34852,0.69705 q -3.58776,2.46018 -8.73364,2.46018 -0.69705,0 -2.23467,-0.041 -1.53761,-0.041 -2.37817,-0.041 0.28702,2.95222 1.4146,4.67435 1.12759,1.70162 3.73128,3.23924 2.02965,1.20959 3.50576,1.20959 2.00915,0 2.97272,-1.92715 0.1025,-0.16401 1.20959,-3.64926 l 2.8087,0.98407 q -1.02507,3.46475 -2.7267,4.48983 -0.82006,0.51254 -5.10487,1.4146 -2.46019,0.53304 -2.97272,0.53304 -0.53304,0 -1.72213,-0.41003 -7.85208,-2.6857 -7.85208,-11.27583 0,-6.33497 6.06845,-9.61521 4.30532,-2.33717 6.29396,-2.33717 3.62877,0 7.36005,3.44425 z"
         style="font-family:Livingstone;-inkscape-font-specification:'Livingstone, Normal';stroke:#ffffff;stroke-width:4;stroke-linecap:round;stroke-linejoin:round;stroke-miterlimit:4;stroke-dasharray:none;paint-order:stroke markers fill"
         id="path4113" />
      <path
         d="m 182.91947,115.16387 -0.67655,-0.41003 q 0.123,-0.55354 0.123,-0.94307 0,-0.88157 -2.91121,-2.7062 -2.80871,-1.78363 -3.81328,-1.78363 -2.7267,0 -2.7267,3.32124 0,1.45561 3.97729,3.44425 2.41918,1.06608 4.83836,2.11166 2.80871,1.27109 3.30074,1.66062 1.3736,1.08658 1.3736,3.30075 0,3.81328 -3.03422,5.82243 -2.62419,1.74262 -6.62199,1.74262 -6.88851,0 -6.95001,-4.63334 l -0.0205,-0.75855 0.0205,-0.55354 5.06387,-0.38953 q -0.34852,1.88614 -0.34852,2.41918 0,1.18908 1.00457,2.13215 1.00457,0.92257 2.21416,0.92257 1.94765,0 3.05473,-1.3531 1.02507,-1.27109 1.02507,-3.23924 0,-1.76313 -3.05472,-3.13673 -2.82921,-1.20959 -5.63792,-2.39868 -3.05472,-1.68112 -3.05472,-4.1823 0,-2.95222 1.86563,-4.94087 1.00458,-1.04558 3.44426,-2.19366 2.46018,-1.16859 3.85428,-1.16859 1.08658,0 3.34175,1.3326 1.76313,1.02508 3.11623,2.11166 z"
         style="font-family:Livingstone;-inkscape-font-specification:'Livingstone, Normal';stroke:#ffffff;stroke-width:4;stroke-linecap:round;stroke-linejoin:round;stroke-miterlimit:4;stroke-dasharray:none;paint-order:stroke markers fill"
         id="path4115" />
      <path
         d="m 200.85829,115.16387 -0.67655,-0.41003 q 0.12301,-0.55354 0.12301,-0.94307 0,-0.88157 -2.91121,-2.7062 -2.80871,-1.78363 -3.81328,-1.78363 -2.72671,0 -2.72671,3.32124 0,1.45561 3.9773,3.44425 2.41918,1.06608 4.83836,2.11166 2.8087,1.27109 3.30074,1.66062 1.3736,1.08658 1.3736,3.30075 0,3.81328 -3.03422,5.82243 -2.6242,1.74262 -6.62199,1.74262 -6.88851,0 -6.95002,-4.63334 l -0.0205,-0.75855 0.0205,-0.55354 5.06388,-0.38953 q -0.34853,1.88614 -0.34853,2.41918 0,1.18908 1.00458,2.13215 1.00457,0.92257 2.21416,0.92257 1.94764,0 3.05473,-1.3531 1.02507,-1.27109 1.02507,-3.23924 0,-1.76313 -3.05472,-3.13673 -2.82921,-1.20959 -5.63792,-2.39868 -3.05473,-1.68112 -3.05473,-4.1823 0,-2.95222 1.86564,-4.94087 1.00458,-1.04558 3.44426,-2.19366 2.46018,-1.16859 3.85428,-1.16859 1.08658,0 3.34175,1.3326 1.76313,1.02508 3.11623,2.11166 z"
         style="font-family:Livingstone;-inkscape-font-specification:'Livingstone, Normal';stroke:#ffffff;stroke-width:4;stroke-linecap:round;stroke-linejoin:round;stroke-miterlimit:4;stroke-dasharray:none;paint-order:stroke markers fill"
         id="path4117" />
    </g>
    <g
       aria-label="Auto Chess"
       id="g4237"
       style="font-size:41.9871px;line-height:1.25;font-family:'Rose Of Baltimore';-inkscape-font-specification:'Rose Of Baltimore';fill:#1a1a1a;stroke-width:0.437365">
      <path
         d="m 24.934805,130.97053 q -1.414605,-1.70162 -2.97272,-4.30531 -6.539982,4.01829 -9.307687,4.01829 -1.291595,0 -2.603692,-1.3326 -1.3120966,-1.33259 -1.3120966,-2.62419 0,-4.55134 10.1687506,-8.81565 -0.451033,-1.80413 -1.61962,-5.26889 -0.430531,-1.00457 -1.127583,-1.47611 -0.779057,-0.45103 -1.558115,-0.90207 l -1.947644,1.2301 -0.471534,-0.63555 q 1.90664,-1.66062 2.43968,-2.02965 1.619619,-1.12758 2.84971,-1.12758 2.952218,0 4.776852,5.4534 l 3.280243,9.79972 q 0.676549,2.00915 3.095728,5.49441 z m -12.280407,-6.95001 q 0,2.07065 2.890714,4.46933 1.968145,0 3.587764,-1.12758 1.804134,-1.23009 1.88614,-3.09573 l -1.517112,-4.48983 q -2.316671,0 -4.32582,0.96357 -2.521686,1.20959 -2.521686,3.28024 z"
         style="font-family:Livingstone;-inkscape-font-specification:'Livingstone, Normal'"
         id="path4219" />
      <path
         d="m 41.172003,128.63336 q 3.956792,-2.82921 3.956792,-7.99559 v -12.77244 l 4.838357,-0.47154 -0.287021,15.88868 q -0.0205,1.51711 0.328024,2.7267 0.492037,1.76313 1.599118,1.76313 0.328025,0 0.656049,-0.16402 v 0.75856 l -4.038798,1.92714 q -1.865638,-1.68112 -2.890714,-3.85428 -1.455607,1.3121 -3.546761,2.64469 -2.603692,1.64012 -3.874786,1.64012 -3.731276,0 -5.945439,-2.19366 -2.193662,-2.21416 -2.193662,-5.90443 0,-1.57862 0.246018,-4.73585 0.26652,-3.15724 0.26652,-4.73585 0,-4.42833 -1.168586,-4.38733 v -0.67655 l 5.986441,-0.69705 q -0.635546,13.96153 -0.635546,14.37156 0,2.97272 1.886139,4.81786 1.783631,1.76313 4.817855,2.05015 z"
         style="font-family:Livingstone;-inkscape-font-specification:'Livingstone, Normal'"
         id="path4221" />
      <path
         d="m 62.8216,103.00647 q -1.127583,1.68112 -1.148085,4.69485 0.574043,0 1.742629,0.041 1.189088,0.041 1.76313,0.041 3.095728,0 5.166381,-1.14808 l 0.410031,0.55354 q -2.316671,2.27567 -6.027445,2.27567 -0.471535,0 -1.517112,-0.0205 -1.025076,-0.041 -1.578617,-0.041 0,1.55812 -0.041,4.73585 -0.0205,3.15723 -0.0205,4.73585 0,0.38953 -0.0205,1.3326 -0.0205,0.94307 -0.0205,1.45561 0,6.31446 3.157233,7.60606 1.681124,-2.13216 1.90664,-5.82243 l 3.608267,0.55354 q -0.738055,6.745 -6.806503,6.745 -2.460181,0 -4.325819,-1.53762 -1.947644,-1.59912 -2.070653,-4.01829 -0.14351,-3.15724 -0.102507,-7.89309 0.102507,-8.1596 0.102507,-7.89308 -0.307522,0 -0.984072,-0.0205 -0.656049,-0.0205 -0.984073,-0.0205 -1.640121,0 -2.870212,0.86106 l -0.287021,-0.041 q 0.348526,-1.74263 0.553541,-2.09116 0.287021,-0.47153 1.148085,-0.47153 0.225516,0 1.332598,0.0615 1.127583,0.0615 2.091154,0.0615 0.08201,-1.3941 0.26652,-2.31667 l 5.227886,-2.84971 z"
         style="font-family:Livingstone;-inkscape-font-specification:'Livingstone, Normal'"
         id="path4223" />
      <path
         d="m 93.696883,118.60812 q 0,8.87716 -9.410195,11.46035 -2.644695,0.71755 -3.608266,0.71755 -0.492037,0 -1.558115,-0.32802 -3.854285,-1.16859 -5.965941,-4.0593 -2.091154,-2.89072 -2.091154,-6.92952 0,-6.64249 6.23246,-10.14824 0.984073,-0.55355 3.034224,-1.43511 2.378176,-1.00457 3.013722,-1.00457 1.599118,0 4.079802,1.27109 2.316671,1.18909 3.505758,2.46018 2.767705,2.99322 2.767705,7.99559 z m -8.815651,10.23026 q 2.501185,-0.43054 3.690272,-3.07523 0.94307,-2.05015 0.94307,-4.98187 0,-3.89529 -1.414605,-6.31446 -1.476108,-2.56269 -4.940864,-4.16181 -2.070653,-0.96357 -3.464756,-0.96357 -2.234665,0 -3.341746,3.38275 -0.79956,2.39867 -0.79956,5.22788 0,5.08438 2.234665,7.48305 1.988647,2.15266 7.093524,3.40326 z"
         style="font-family:Livingstone;-inkscape-font-specification:'Livingstone, Normal'"
         id="path4225" />
      <path
         d="m 118.85224,112.60118 q -4.67435,-3.54676 -6.84751,-3.58777 -3.15723,1.39411 -4.30532,3.77228 -0.98407,1.98865 -0.98407,5.82243 0,3.71077 2.31667,6.92951 2.43968,3.36225 6.02745,4.0183 2.52168,-0.79956 3.52626,-6.04795 l 3.66977,0.79956 q -0.84056,6.43748 -10.8043,6.43748 -4.0388,0 -6.70399,-3.56727 -2.43968,-3.28024 -2.43968,-7.46255 0,-4.48983 2.50118,-7.31904 2.15266,-2.46018 6.68349,-4.1413 1.14809,-0.36903 3.40326,-1.2711 4.01829,0.90207 6.8885,3.36225 z"
         style="font-family:Livingstone;-inkscape-font-specification:'Livingstone, Normal'"
         id="path4227" />
      <path
         d="m 130.31259,111.33008 q 4.32581,-3.62876 6.72449,-3.62876 3.32125,0 5.86343,2.41917 2.56269,2.41918 2.56269,5.69942 0,1.88614 -0.59454,5.61742 -0.57404,3.73127 -0.57404,5.63792 0,1.70162 0.79956,1.70162 0.14351,0 0.32802,-0.0615 l 0.16401,0.79956 q -1.20959,0.28702 -2.41918,0.57404 -1.4556,0.32802 -2.43968,0.32802 -0.26652,0 -0.45103,-0.0205 -0.53304,-0.082 -0.53304,-0.90207 0,-2.29617 0.55354,-6.8885 0.57404,-4.61284 0.57404,-6.90901 0,-1.98865 -2.31667,-3.73128 -2.17316,-1.64012 -4.22331,-1.64012 -4.1208,0 -4.40782,8.85665 -0.20502,6.33497 -0.38953,10.88631 l -4.32582,0.69705 q 0,-2.48069 0.041,-7.42155 0.0615,-4.94086 0.0615,-7.42155 0,-5.59691 -0.082,-7.03202 -0.34853,-5.71992 -1.66062,-5.69942 l -0.43053,0.0205 -0.14351,-0.63554 5.5354,-1.53762 q 1.70163,4.69485 1.78364,10.29176 z"
         style="font-family:Livingstone;-inkscape-font-specification:'Livingstone, Normal'"
         id="path4229" />
      <path
         d="m 164.71413,113.07271 q -4.51034,-4.1413 -7.23704,-4.1413 -2.41918,0 -3.81328,3.17773 -1.10708,2.54219 -1.06608,5.28939 9.04117,0.22552 9.3897,0.22552 1.78363,0 3.69027,-0.96357 l 0.34852,0.69705 q -3.58776,2.46018 -8.73364,2.46018 -0.69705,0 -2.23467,-0.041 -1.53761,-0.041 -2.37817,-0.041 0.28702,2.95222 1.4146,4.67435 1.12759,1.70162 3.73128,3.23924 2.02965,1.20959 3.50576,1.20959 2.00915,0 2.97272,-1.92715 0.1025,-0.16401 1.20959,-3.64926 l 2.8087,0.98407 q -1.02507,3.46475 -2.7267,4.48983 -0.82006,0.51254 -5.10487,1.4146 -2.46019,0.53304 -2.97272,0.53304 -0.53304,0 -1.72213,-0.41003 -7.85208,-2.6857 -7.85208,-11.27583 0,-6.33497 6.06845,-9.61521 4.30532,-2.33717 6.29396,-2.33717 3.62877,0 7.36005,3.44425 z"
         style="font-family:Livingstone;-inkscape-font-specification:'Livingstone, Normal'"
         id="path4231" />
      <path
         d="m 182.91947,115.16387 -0.67655,-0.41003 q 0.123,-0.55354 0.123,-0.94307 0,-0.88157 -2.91121,-2.7062 -2.80871,-1.78363 -3.81328,-1.78363 -2.7267,0 -2.7267,3.32124 0,1.45561 3.97729,3.44425 2.41918,1.06608 4.83836,2.11166 2.80871,1.27109 3.30074,1.66062 1.3736,1.08658 1.3736,3.30075 0,3.81328 -3.03422,5.82243 -2.62419,1.74262 -6.62199,1.74262 -6.88851,0 -6.95001,-4.63334 l -0.0205,-0.75855 0.0205,-0.55354 5.06387,-0.38953 q -0.34852,1.88614 -0.34852,2.41918 0,1.18908 1.00457,2.13215 1.00457,0.92257 2.21416,0.92257 1.94765,0 3.05473,-1.3531 1.02507,-1.27109 1.02507,-3.23924 0,-1.76313 -3.05472,-3.13673 -2.82921,-1.20959 -5.63792,-2.39868 -3.05472,-1.68112 -3.05472,-4.1823 0,-2.95222 1.86563,-4.94087 1.00458,-1.04558 3.44426,-2.19366 2.46018,-1.16859 3.85428,-1.16859 1.08658,0 3.34175,1.3326 1.76313,1.02508 3.11623,2.11166 z"
         style="font-family:Livingstone;-inkscape-font-specification:'Livingstone, Normal'"
         id="path4233" />
      <path
         d="m 200.85829,115.16387 -0.67655,-0.41003 q 0.12301,-0.55354 0.12301,-0.94307 0,-0.88157 -2.91121,-2.7062 -2.80871,-1.78363 -3.81328,-1.78363 -2.72671,0 -2.72671,3.32124 0,1.45561 3.9773,3.44425 2.41918,1.06608 4.83836,2.11166 2.8087,1.27109 3.30074,1.66062 1.3736,1.08658 1.3736,3.30075 0,3.81328 -3.03422,5.82243 -2.6242,1.74262 -6.62199,1.74262 -6.88851,0 -6.95002,-4.63334 l -0.0205,-0.75855 0.0205,-0.55354 5.06388,-0.38953 q -0.34853,1.88614 -0.34853,2.41918 0,1.18908 1.00458,2.13215 1.00457,0.92257 2.21416,0.92257 1.94764,0 3.05473,-1.3531 1.02507,-1.27109 1.02507,-3.23924 0,-1.76313 -3.05472,-3.13673 -2.82921,-1.20959 -5.63792,-2.39868 -3.05473,-1.68112 -3.05473,-4.1823 0,-2.95222 1.86564,-4.94087 1.00458,-1.04558 3.44426,-2.19366 2.46018,-1.16859 3.85428,-1.16859 1.08658,0 3.34175,1.3326 1.76313,1.02508 3.11623,2.11166 z"
         style="font-family:Livingstone;-inkscape-font-specification:'Livingstone, Normal'"
         id="path4235" />
    </g>
  </g>
</svg>
