<?xml version="1.0" encoding="UTF-8" standalone="no"?>
<!-- Created with Inkscape (http://www.inkscape.org/) -->

<svg
   width="169.8716mm"
   height="27.319281mm"
   viewBox="0 0 169.8716 27.319281"
   version="1.1"
   id="svg5"
   sodipodi:docname="auto-sportracing.svg"
   inkscape:version="1.1 (c68e22c387, 2021-05-23)"
   xmlns:inkscape="http://www.inkscape.org/namespaces/inkscape"
   xmlns:sodipodi="http://sodipodi.sourceforge.net/DTD/sodipodi-0.dtd"
   xmlns="http://www.w3.org/2000/svg"
   xmlns:svg="http://www.w3.org/2000/svg">
  <sodipodi:namedview
     id="namedview7"
     pagecolor="#ffffff"
     bordercolor="#666666"
     borderopacity="1.0"
     inkscape:pageshadow="2"
     inkscape:pageopacity="0.0"
     inkscape:pagecheckerboard="0"
     inkscape:document-units="mm"
     showgrid="false"
     fit-margin-top="0"
     fit-margin-left="0"
     fit-margin-right="0"
     fit-margin-bottom="0"
     inkscape:zoom="0.67081229"
     inkscape:cx="328.70596"
     inkscape:cy="77.51796"
     inkscape:window-width="1920"
     inkscape:window-height="1138"
     inkscape:window-x="-8"
     inkscape:window-y="-8"
     inkscape:window-maximized="1"
     inkscape:current-layer="layer1" />
  <defs
     id="defs2" />
  <g
     inkscape:label="Calque 1"
     inkscape:groupmode="layer"
     id="layer1"
     transform="translate(-18.296315,-127.8453)">
    <rect
       style="fill:#ffffff;fill-opacity:1;fill-rule:evenodd;stroke:none;stroke-width:4;stroke-linecap:round;stroke-linejoin:round;stroke-miterlimit:4;stroke-dasharray:none;paint-order:stroke markers fill"
       id="rect3857"
       width="23.665339"
       height="20.115538"
       x="89.142159"
       y="130.9324" />
    <rect
       style="fill:#ffffff;fill-opacity:1;fill-rule:evenodd;stroke:none;stroke-width:2.92119;stroke-linecap:round;stroke-linejoin:round;stroke-miterlimit:4;stroke-dasharray:none;paint-order:stroke markers fill"
       id="rect3983"
       width="18.932272"
       height="13.410358"
       x="60.422573"
       y="130.9324" />
    <rect
       style="fill:#ffffff;fill-opacity:1;fill-rule:evenodd;stroke:none;stroke-width:2.73252;stroke-linecap:round;stroke-linejoin:round;stroke-miterlimit:4;stroke-dasharray:none;paint-order:stroke markers fill"
       id="rect3985"
       width="16.565739"
       height="13.410358"
       x="41.372555"
       y="137.28232" />
    <g
       aria-label="RACING"
       id="text1178"
       style="font-size:37.6725px;line-height:1.25;font-family:'Rose Of Baltimore';-inkscape-font-specification:'Rose Of Baltimore';fill:#1a1a1a;fill-opacity:1;stroke:#ffffff;stroke-width:4;stroke-linecap:round;stroke-linejoin:round;stroke-miterlimit:4;stroke-dasharray:none;paint-order:stroke markers fill">
      <path
         d="m 20.29623,153.16458 c 0,0 8.74002,0 8.74002,0 0,0 3.16449,-8.74002 3.16449,-8.74002 0,0 4.030958,0 4.030958,0 0,0 4.445355,8.74002 4.445355,8.74002 0,0 8.74002,0 8.74002,0 0,0 -4.445355,-8.74002 -4.445355,-8.74002 0,0 0.640432,0 0.640432,0 2.486385,0 4.596045,-1.5069 5.462513,-3.84259 0,0 2.486385,-6.81873 2.486385,-6.81873 0.715777,-1.92129 -0.715778,-3.91794 -2.71242,-3.91794 0,0 -22.076085,0 -22.076085,0 0,0 -8.476313,23.31928 -8.476313,23.31928 z m 14.880638,-17.48004 c 0,0 9.380452,0 9.380452,0 0,0 -1.35621,3.69191 -1.35621,3.69191 0,0 -9.380452,0 -9.380452,0 0,0 1.35621,-3.69191 1.35621,-3.69191 z"
         style="font-family:'A4 SPEED';-inkscape-font-specification:'A4 SPEED, Normal';fill:#1a1a1a;fill-opacity:1;stroke:#ffffff;stroke-width:4;stroke-linecap:round;stroke-linejoin:round;stroke-miterlimit:4;stroke-dasharray:none;paint-order:stroke markers fill"
         id="path3007" />
      <path
         d="m 50.358825,153.16458 c 0,0 8.74002,0 8.74002,0 0,0 2.147333,-5.83924 2.147333,-5.83924 0,0 8.74002,0 8.74002,0 0,0 -2.147332,5.83924 -2.147332,5.83924 0,0 8.777692,0 8.777692,0 0,0 8.476313,-23.31928 8.476313,-23.31928 0,0 -22.15143,0 -22.15143,0 -2.524058,0 -4.633718,1.5069 -5.500186,3.8426 0,0 -7.08243,19.47668 -7.08243,19.47668 z m 15.106673,-17.48004 c 0,0 8.74002,0 8.74002,0 0,0 -2.10966,5.83924 -2.10966,5.83924 0,0 -8.74002,0 -8.74002,0 0,0 2.10966,-5.83924 2.10966,-5.83924 z"
         style="font-family:'A4 SPEED';-inkscape-font-specification:'A4 SPEED, Normal';fill:#1a1a1a;fill-opacity:1;stroke:#ffffff;stroke-width:4;stroke-linecap:round;stroke-linejoin:round;stroke-miterlimit:4;stroke-dasharray:none;paint-order:stroke markers fill"
         id="path3009" />
      <path
         d="m 112.29235,129.8453 c 0,0 -2.10966,5.83924 -2.10966,5.83924 0,0 -14.993652,0 -14.993652,0 0,0 -4.256992,11.6408 -4.256992,11.6408 0,0 14.993654,0 14.993654,0 0,0 -2.10966,5.83924 -2.10966,5.83924 0,0 -19.589699,0 -19.589699,0 -1.996643,0 -3.428198,-2.03431 -2.71242,-3.91794 0,0 5.650875,-15.55874 5.650875,-15.55874 0.866467,-2.3357 2.976127,-3.8426 5.462512,-3.8426 0,0 19.665042,0 19.665042,0 z"
         style="font-family:'A4 SPEED';-inkscape-font-specification:'A4 SPEED, Normal';fill:#1a1a1a;fill-opacity:1;stroke:#ffffff;stroke-width:4;stroke-linecap:round;stroke-linejoin:round;stroke-miterlimit:4;stroke-dasharray:none;paint-order:stroke markers fill"
         id="path3011" />
      <path
         d="m 107.77165,153.16458 c 0,0 8.74002,0 8.74002,0 0,0 8.47631,-23.2816 8.47631,-23.2816 0,0 -8.74002,0 -8.74002,0 0,0 -8.47631,23.2816 -8.47631,23.2816 z"
         style="font-family:'A4 SPEED';-inkscape-font-specification:'A4 SPEED, Normal';fill:#1a1a1a;fill-opacity:1;stroke:#ffffff;stroke-width:4;stroke-linecap:round;stroke-linejoin:round;stroke-miterlimit:4;stroke-dasharray:none;paint-order:stroke markers fill"
         id="path3013" />
      <path
         d="m 120.84394,153.16458 c 0,0 8.74002,0 8.74002,0 0,0 4.257,-11.6408 4.257,-11.6408 0,0 4.48302,11.6408 4.48302,11.6408 0,0 8.7777,0 8.7777,0 0,0 8.47631,-23.31928 8.47631,-23.31928 0,0 -8.74002,0 -8.74002,0 0,0 -4.25699,11.67848 -4.25699,11.67848 0,0 -4.48303,-11.67848 -4.48303,-11.67848 0,0 -8.77769,0 -8.77769,0 0,0 -8.47632,23.31928 -8.47632,23.31928 z"
         style="font-family:'A4 SPEED';-inkscape-font-specification:'A4 SPEED, Normal';fill:#1a1a1a;fill-opacity:1;stroke:#ffffff;stroke-width:4;stroke-linecap:round;stroke-linejoin:round;stroke-miterlimit:4;stroke-dasharray:none;paint-order:stroke markers fill"
         id="path3015" />
      <path
         d="m 186.168,129.8453 c 0,0 -2.10966,5.83924 -2.10966,5.83924 0,0 -17.51771,0 -17.51771,0 0,0 -4.21932,11.6408 -4.21932,11.6408 0,0 8.74002,0 8.74002,0 0,0 2.10966,-5.80156 2.10966,-5.80156 0,0 8.74002,0 8.74002,0 0,0 -2.82544,7.79821 -2.82544,7.79821 -0.86647,2.37336 -2.97613,3.84259 -5.50018,3.84259 0,0 -22.15143,0 -22.15143,0 0,0 7.08243,-19.47668 7.08243,-19.47668 0.86646,-2.3357 2.97612,-3.8426 5.50018,-3.8426 0,0 22.15143,0 22.15143,0 z"
         style="font-family:'A4 SPEED';-inkscape-font-specification:'A4 SPEED, Normal';fill:#1a1a1a;fill-opacity:1;stroke:#ffffff;stroke-width:4;stroke-linecap:round;stroke-linejoin:round;stroke-miterlimit:4;stroke-dasharray:none;paint-order:stroke markers fill"
         id="path3017" />
    </g>
    <g
       aria-label="RACING"
       id="g3761"
       style="font-size:37.6725px;line-height:1.25;font-family:'Rose Of Baltimore';-inkscape-font-specification:'Rose Of Baltimore';fill:#1a1a1a;fill-opacity:1;stroke-width:0.392422">
      <path
         d="m 20.29623,153.16458 c 0,0 8.74002,0 8.74002,0 0,0 3.16449,-8.74002 3.16449,-8.74002 0,0 4.030958,0 4.030958,0 0,0 4.445355,8.74002 4.445355,8.74002 0,0 8.74002,0 8.74002,0 0,0 -4.445355,-8.74002 -4.445355,-8.74002 0,0 0.640432,0 0.640432,0 2.486385,0 4.596045,-1.5069 5.462513,-3.84259 0,0 2.486385,-6.81873 2.486385,-6.81873 0.715777,-1.92129 -0.715778,-3.91794 -2.71242,-3.91794 0,0 -22.076085,0 -22.076085,0 0,0 -8.476313,23.31928 -8.476313,23.31928 z m 14.880638,-17.48004 c 0,0 9.380452,0 9.380452,0 0,0 -1.35621,3.69191 -1.35621,3.69191 0,0 -9.380452,0 -9.380452,0 0,0 1.35621,-3.69191 1.35621,-3.69191 z"
         style="font-family:'A4 SPEED';-inkscape-font-specification:'A4 SPEED, Normal';fill:#1a1a1a;fill-opacity:1"
         id="path3749" />
      <path
         d="m 50.358825,153.16458 c 0,0 8.74002,0 8.74002,0 0,0 2.147333,-5.83924 2.147333,-5.83924 0,0 8.74002,0 8.74002,0 0,0 -2.147332,5.83924 -2.147332,5.83924 0,0 8.777692,0 8.777692,0 0,0 8.476313,-23.31928 8.476313,-23.31928 0,0 -22.15143,0 -22.15143,0 -2.524058,0 -4.633718,1.5069 -5.500186,3.8426 0,0 -7.08243,19.47668 -7.08243,19.47668 z m 15.106673,-17.48004 c 0,0 8.74002,0 8.74002,0 0,0 -2.10966,5.83924 -2.10966,5.83924 0,0 -8.74002,0 -8.74002,0 0,0 2.10966,-5.83924 2.10966,-5.83924 z"
         style="font-family:'A4 SPEED';-inkscape-font-specification:'A4 SPEED, Normal';fill:#1a1a1a;fill-opacity:1"
         id="path3751" />
      <path
         d="m 112.29235,129.8453 c 0,0 -2.10966,5.83924 -2.10966,5.83924 0,0 -14.993652,0 -14.993652,0 0,0 -4.256992,11.6408 -4.256992,11.6408 0,0 14.993654,0 14.993654,0 0,0 -2.10966,5.83924 -2.10966,5.83924 0,0 -19.589699,0 -19.589699,0 -1.996643,0 -3.428198,-2.03431 -2.71242,-3.91794 0,0 5.650875,-15.55874 5.650875,-15.55874 0.866467,-2.3357 2.976127,-3.8426 5.462512,-3.8426 0,0 19.665042,0 19.665042,0 z"
         style="font-family:'A4 SPEED';-inkscape-font-specification:'A4 SPEED, Normal';fill:#1a1a1a;fill-opacity:1"
         id="path3753" />
      <path
         d="m 107.77165,153.16458 c 0,0 8.74002,0 8.74002,0 0,0 8.47631,-23.2816 8.47631,-23.2816 0,0 -8.74002,0 -8.74002,0 0,0 -8.47631,23.2816 -8.47631,23.2816 z"
         style="font-family:'A4 SPEED';-inkscape-font-specification:'A4 SPEED, Normal';fill:#1a1a1a;fill-opacity:1"
         id="path3755" />
      <path
         d="m 120.84394,153.16458 c 0,0 8.74002,0 8.74002,0 0,0 4.257,-11.6408 4.257,-11.6408 0,0 4.48302,11.6408 4.48302,11.6408 0,0 8.7777,0 8.7777,0 0,0 8.47631,-23.31928 8.47631,-23.31928 0,0 -8.74002,0 -8.74002,0 0,0 -4.25699,11.67848 -4.25699,11.67848 0,0 -4.48303,-11.67848 -4.48303,-11.67848 0,0 -8.77769,0 -8.77769,0 0,0 -8.47632,23.31928 -8.47632,23.31928 z"
         style="font-family:'A4 SPEED';-inkscape-font-specification:'A4 SPEED, Normal';fill:#1a1a1a;fill-opacity:1"
         id="path3757" />
      <path
         d="m 186.168,129.8453 c 0,0 -2.10966,5.83924 -2.10966,5.83924 0,0 -17.51771,0 -17.51771,0 0,0 -4.21932,11.6408 -4.21932,11.6408 0,0 8.74002,0 8.74002,0 0,0 2.10966,-5.80156 2.10966,-5.80156 0,0 8.74002,0 8.74002,0 0,0 -2.82544,7.79821 -2.82544,7.79821 -0.86647,2.37336 -2.97613,3.84259 -5.50018,3.84259 0,0 -22.15143,0 -22.15143,0 0,0 7.08243,-19.47668 7.08243,-19.47668 0.86646,-2.3357 2.97612,-3.8426 5.50018,-3.8426 0,0 22.15143,0 22.15143,0 z"
         style="font-family:'A4 SPEED';-inkscape-font-specification:'A4 SPEED, Normal';fill:#1a1a1a;fill-opacity:1"
         id="path3759" />
    </g>
  </g>
</svg>
