<?xml version="1.0" encoding="UTF-8" standalone="no"?>
<!-- Created with Inkscape (http://www.inkscape.org/) -->

<svg
   width="203.33752mm"
   height="23.239901mm"
   viewBox="0 0 203.33752 23.239901"
   version="1.1"
   id="svg12293"
   sodipodi:docname="auto-party.svg"
   inkscape:version="1.1 (c68e22c387, 2021-05-23)"
   xmlns:inkscape="http://www.inkscape.org/namespaces/inkscape"
   xmlns:sodipodi="http://sodipodi.sourceforge.net/DTD/sodipodi-0.dtd"
   xmlns="http://www.w3.org/2000/svg"
   xmlns:svg="http://www.w3.org/2000/svg">
  <sodipodi:namedview
     id="namedview12295"
     pagecolor="#ffffff"
     bordercolor="#666666"
     borderopacity="1.0"
     inkscape:pageshadow="2"
     inkscape:pageopacity="0.0"
     inkscape:pagecheckerboard="0"
     inkscape:document-units="mm"
     showgrid="false"
     fit-margin-top="0"
     fit-margin-left="0"
     fit-margin-right="0"
     fit-margin-bottom="0"
     inkscape:zoom="0.67081229"
     inkscape:cx="385.3537"
     inkscape:cy="205.72074"
     inkscape:window-width="1920"
     inkscape:window-height="1138"
     inkscape:window-x="-8"
     inkscape:window-y="-8"
     inkscape:window-maximized="1"
     inkscape:current-layer="layer1" />
  <defs
     id="defs12290" />
  <g
     inkscape:label="Calque 1"
     inkscape:groupmode="layer"
     id="layer1"
     transform="translate(-3.1299601,-93.83028)">
    <rect
       style="fill:#ffffff;fill-rule:evenodd;stroke:none;stroke-width:4.81664;stroke-linecap:round;stroke-linejoin:bevel;stroke-miterlimit:4;stroke-dasharray:none;paint-order:stroke markers fill"
       id="rect13008"
       width="10.25498"
       height="11.438247"
       x="180.34888"
       y="101.71741" />
    <g
       id="g12890"
       style="stroke:#ffffff;stroke-width:4;stroke-linejoin:bevel;stroke-miterlimit:4;stroke-dasharray:none;paint-order:stroke markers fill">
      <path
         d="m 16.466206,95.984199 4.514963,3.104038 0.359145,7.593343 -4.56627,4.41235 -5.669357,0.35915 v 3.6171 H 5.1274915 L 6.0766599,95.984199 Z m -4.309738,5.848931 -0.179572,3.10404 1.693111,0.23087 2.154869,-2.53966 z"
         style="font-size:25.6532px;line-height:1.25;font-family:'Super Mario 256';-inkscape-font-specification:'Super Mario 256, Normal';fill:#aa0000;stroke:#ffffff;stroke-width:4;stroke-linejoin:bevel;stroke-miterlimit:4;stroke-dasharray:none;paint-order:stroke markers fill"
         id="path12390" />
      <path
         d="m 32.961206,95.958546 8.106411,17.675054 -7.747266,1.23135 -0.615677,-4.54061 -6.233728,-0.15392 -1.410926,4.84845 -7.465081,-1.33396 10.235627,-17.2133 z m -3.822327,6.721134 -1.051781,2.61663 3.92494,0.10261 -0.897862,-2.64228 -1.975297,-0.077 z"
         style="font-size:25.6532px;line-height:1.25;font-family:'Super Mario 256';-inkscape-font-specification:'Super Mario 256, Normal';fill:#0044aa;stroke:#ffffff;stroke-width:4;stroke-linejoin:bevel;stroke-miterlimit:4;stroke-dasharray:none;paint-order:stroke markers fill"
         id="path12392" />
      <path
         d="m 50.533644,96.009853 4.745842,3.463182 0.436105,5.977195 -2.667933,2.97577 4.745842,4.18147 -5.566745,2.4114 -5.823276,-4.97672 0.872209,4.95107 H 41.375452 L 39.887566,96.830755 Z m -4.130165,5.310207 -0.153919,3.64276 1.564845,0.20522 1.564845,-2.25748 z"
         style="font-size:25.6532px;line-height:1.25;font-family:'Super Mario 256';-inkscape-font-specification:'Super Mario 256, Normal';fill:#008000;stroke:#ffffff;stroke-width:4;stroke-linejoin:bevel;stroke-miterlimit:4;stroke-dasharray:none;paint-order:stroke markers fill"
         id="path12394" />
      <path
         d="m 57.254735,95.932893 18.957714,0.333492 v 7.695955 l -6.4133,-1.05178 1.770071,12.08266 h -9.183845 l 1.385272,-12.08266 -6.515912,-0.33349 z"
         style="font-size:25.6532px;line-height:1.25;font-family:'Super Mario 256';-inkscape-font-specification:'Super Mario 256, Normal';fill:#ffcc00;stroke:#ffffff;stroke-width:4;stroke-linejoin:bevel;stroke-miterlimit:4;stroke-dasharray:none;paint-order:stroke markers fill"
         id="path12396" />
      <path
         d="m 79.367753,96.163772 4.232778,4.514958 3.976246,-5.028022 5.618051,4.232778 -6.131115,5.335864 4.540616,9.41473 -10.056054,-0.46176 v -8.18337 l -6.387647,-6.105464 z"
         style="font-size:25.6532px;line-height:1.25;font-family:'Super Mario 256';-inkscape-font-specification:'Super Mario 256, Normal';fill:#7137c8;stroke:#ffffff;stroke-width:4;stroke-linejoin:bevel;stroke-miterlimit:4;stroke-dasharray:none;paint-order:stroke markers fill"
         id="path12398" />
      <path
         d="m 122.49069,99.806526 -4.3867,2.462704 -1.77007,-0.97482 -2.61663,0.79525 -1.56484,3.71971 1.6418,3.46319 4.72019,-0.56437 0.10262,-0.84656 -3.64276,0.33349 0.46176,-5.15629 7.59335,0.10261 v 10.13302 l -12.74964,1.6418 -3.87364,-7.87553 1.41093,-7.234204 5.43848,-3.950593 6.66983,0.461758 z"
         style="font-size:25.6532px;line-height:1.25;font-family:'Super Mario 256';-inkscape-font-specification:'Super Mario 256, Normal';fill:#aa00d4;stroke:#ffffff;stroke-width:4;stroke-linejoin:bevel;stroke-miterlimit:4;stroke-dasharray:none;paint-order:stroke markers fill"
         id="path12400" />
      <path
         d="m 135.03509,95.958546 8.10641,17.675054 -7.74726,1.23135 -0.61568,-4.54061 -6.23373,-0.15392 -1.41092,4.84845 -7.46509,-1.33396 10.23563,-17.2133 z m -3.82233,6.721134 -1.05178,2.61663 3.92494,0.10261 -0.89786,-2.64228 -1.9753,-0.077 z"
         style="font-size:25.6532px;line-height:1.25;font-family:'Super Mario 256';-inkscape-font-specification:'Super Mario 256, Normal';fill:#217821;stroke:#ffffff;stroke-width:4;stroke-linejoin:bevel;stroke-miterlimit:4;stroke-dasharray:none;paint-order:stroke markers fill"
         id="path12402" />
      <path
         d="m 141.96146,113.01792 9.15819,-16.956761 h 5.41283 l 1.79572,5.130641 3.181,-5.156294 4.79715,-0.102613 5.2589,18.444647 -6.8494,0.56437 -1.30831,-4.66888 -1.56485,-4.51496 -4.72019,4.20712 -3.6171,-4.79715 -4.33539,9.2095 z"
         style="font-size:25.6532px;line-height:1.25;font-family:'Super Mario 256';-inkscape-font-specification:'Super Mario 256, Normal';fill:#ffcc00;stroke:#ffffff;stroke-width:4;stroke-linejoin:bevel;stroke-miterlimit:4;stroke-dasharray:none;paint-order:stroke markers fill"
         id="path12404" />
      <path
         d="m 173.00178,95.855933 h 12.57007 l -1.05179,5.310217 -6.18242,0.94916 -0.077,1.30832 5.46414,0.41045 -0.25654,4.07886 -4.8741,0.4361 0.4361,1.38527 5.92589,0.0513 2.18052,5.10499 h -14.13491 l -1.38527,-12.26223 1.38527,-6.772447 z"
         style="font-size:25.6532px;line-height:1.25;font-family:'Super Mario 256';-inkscape-font-specification:'Super Mario 256, Normal';fill:#aa0000;stroke:#ffffff;stroke-width:4;stroke-linejoin:bevel;stroke-miterlimit:4;stroke-dasharray:none;paint-order:stroke markers fill"
         id="path12406" />
      <path
         d="m 204.91436,100.70439 -3.30927,4.07886 -3.87363,-2.48836 -0.97482,1.23135 6.92636,5.07933 -3.36057,6.33634 h -8.23468 l -5.74631,-4.56627 2.48836,-4.18147 4.95107,2.7962 0.74394,-1.15439 -7.25986,-4.30974 6.87506,-7.69596 h 6.18242 z"
         style="font-size:25.6532px;line-height:1.25;font-family:'Super Mario 256';-inkscape-font-specification:'Super Mario 256, Normal';fill:#0055d4;stroke:#ffffff;stroke-width:4;stroke-linejoin:bevel;stroke-miterlimit:4;stroke-dasharray:none;paint-order:stroke markers fill"
         id="path12408" />
    </g>
    <path
       d="m 16.466206,95.984199 4.514963,3.104038 0.359145,7.593343 -4.56627,4.41235 -5.669357,0.35915 v 3.6171 H 5.1274915 L 6.0766599,95.984199 Z m -4.309738,5.848931 -0.179572,3.10404 1.693111,0.23087 2.154869,-2.53966 z"
       style="font-size:25.6532px;line-height:1.25;font-family:'Super Mario 256';-inkscape-font-specification:'Super Mario 256, Normal';fill:#aa0000;stroke-width:0.267221"
       id="path12892" />
    <path
       d="m 32.961206,95.958546 8.106411,17.675054 -7.747266,1.23135 -0.615677,-4.54061 -6.233728,-0.15392 -1.410926,4.84845 -7.465081,-1.33396 10.235627,-17.2133 z m -3.822327,6.721134 -1.051781,2.61663 3.92494,0.10261 -0.897862,-2.64228 -1.975297,-0.077 z"
       style="font-size:25.6532px;line-height:1.25;font-family:'Super Mario 256';-inkscape-font-specification:'Super Mario 256, Normal';fill:#0044aa;stroke-width:0.267221"
       id="path12894" />
    <path
       d="m 50.533644,96.009853 4.745842,3.463182 0.436105,5.977195 -2.667933,2.97577 4.745842,4.18147 -5.566745,2.4114 -5.823276,-4.97672 0.872209,4.95107 H 41.375452 L 39.887566,96.830755 Z m -4.130165,5.310207 -0.153919,3.64276 1.564845,0.20522 1.564845,-2.25748 z"
       style="font-size:25.6532px;line-height:1.25;font-family:'Super Mario 256';-inkscape-font-specification:'Super Mario 256, Normal';fill:#008000;stroke-width:0.267221"
       id="path12896" />
    <path
       d="m 57.254735,95.932893 18.957714,0.333492 v 7.695955 l -6.4133,-1.05178 1.770071,12.08266 h -9.183845 l 1.385272,-12.08266 -6.515912,-0.33349 z"
       style="font-size:25.6532px;line-height:1.25;font-family:'Super Mario 256';-inkscape-font-specification:'Super Mario 256, Normal';fill:#d4aa00;stroke-width:0.267221"
       id="path12898" />
    <path
       d="m 79.367753,96.163772 4.232778,4.514958 3.976246,-5.028022 5.618051,4.232778 -6.131115,5.335864 4.540616,9.41473 -10.056054,-0.46176 v -8.18337 l -6.387647,-6.105464 z"
       style="font-size:25.6532px;line-height:1.25;font-family:'Super Mario 256';-inkscape-font-specification:'Super Mario 256, Normal';fill:#7137c8;stroke-width:0.267221"
       id="path12900" />
    <path
       d="m 122.49069,99.806526 -4.3867,2.462704 -1.77007,-0.97482 -2.61663,0.79525 -1.56484,3.71971 1.6418,3.46319 4.72019,-0.56437 0.10262,-0.84656 -3.64276,0.33349 0.46176,-5.15629 7.59335,0.10261 v 10.13302 l -12.74964,1.6418 -3.87364,-7.87553 1.41093,-7.234204 5.43848,-3.950593 6.66983,0.461758 z"
       style="font-size:25.6532px;line-height:1.25;font-family:'Super Mario 256';-inkscape-font-specification:'Super Mario 256, Normal';fill:#aa00d4;stroke-width:0.267221"
       id="path12902" />
    <path
       d="m 135.03509,95.958546 8.10641,17.675054 -7.74726,1.23135 -0.61568,-4.54061 -6.23373,-0.15392 -1.41092,4.84845 -7.46509,-1.33396 10.23563,-17.2133 z m -3.82233,6.721134 -1.05178,2.61663 3.92494,0.10261 -0.89786,-2.64228 -1.9753,-0.077 z"
       style="font-size:25.6532px;line-height:1.25;font-family:'Super Mario 256';-inkscape-font-specification:'Super Mario 256, Normal';fill:#217821;stroke-width:0.267221"
       id="path12904" />
    <path
       d="m 141.96146,113.01792 9.15819,-16.956761 h 5.41283 l 1.79572,5.130641 3.181,-5.156294 4.79715,-0.102613 5.2589,18.444647 -6.8494,0.56437 -1.30831,-4.66888 -1.56485,-4.51496 -4.72019,4.20712 -3.6171,-4.79715 -4.33539,9.2095 z"
       style="font-size:25.6532px;line-height:1.25;font-family:'Super Mario 256';-inkscape-font-specification:'Super Mario 256, Normal';fill:#d4aa00;stroke-width:0.267221"
       id="path12906" />
    <path
       d="m 173.00178,95.855933 h 12.57007 l -1.05179,5.310217 -6.18242,0.94916 -0.077,1.30832 5.46414,0.41045 -0.25654,4.07886 -4.8741,0.4361 0.4361,1.38527 5.92589,0.0513 2.18052,5.10499 h -14.13491 l -1.38527,-12.26223 1.38527,-6.772447 z"
       style="font-size:25.6532px;line-height:1.25;font-family:'Super Mario 256';-inkscape-font-specification:'Super Mario 256, Normal';fill:#aa0000;stroke-width:0.267221"
       id="path12908" />
    <path
       d="m 204.91436,100.70439 -3.30927,4.07886 -3.87363,-2.48836 -0.97482,1.23135 6.92636,5.07933 -3.36057,6.33634 h -8.23468 l -5.74631,-4.56627 2.48836,-4.18147 4.95107,2.7962 0.74394,-1.15439 -7.25986,-4.30974 6.87506,-7.69596 h 6.18242 z"
       style="font-size:25.6532px;line-height:1.25;font-family:'Super Mario 256';-inkscape-font-specification:'Super Mario 256, Normal';fill:#0055d4;stroke-width:0.267221"
       id="path12910" />
  </g>
</svg>
