<?xml version="1.0" encoding="UTF-8" standalone="no"?>
<!-- Created with Inkscape (http://www.inkscape.org/) -->

<svg
   width="200.68304mm"
   height="39.891701mm"
   viewBox="0 0 200.68304 39.891701"
   version="1.1"
   id="svg8649"
   inkscape:version="1.1 (c68e22c387, 2021-05-23)"
   sodipodi:docname="auto-strategy4x.svg"
   xmlns:inkscape="http://www.inkscape.org/namespaces/inkscape"
   xmlns:sodipodi="http://sodipodi.sourceforge.net/DTD/sodipodi-0.dtd"
   xmlns="http://www.w3.org/2000/svg"
   xmlns:svg="http://www.w3.org/2000/svg">
  <sodipodi:namedview
     id="namedview8651"
     pagecolor="#ffffff"
     bordercolor="#666666"
     borderopacity="1.0"
     inkscape:pageshadow="2"
     inkscape:pageopacity="0.0"
     inkscape:pagecheckerboard="0"
     inkscape:document-units="mm"
     showgrid="false"
     fit-margin-top="0"
     fit-margin-left="0"
     fit-margin-right="0"
     fit-margin-bottom="0"
     inkscape:zoom="0.67081229"
     inkscape:cx="383.86297"
     inkscape:cy="35.77752"
     inkscape:window-width="1920"
     inkscape:window-height="1138"
     inkscape:window-x="-8"
     inkscape:window-y="-8"
     inkscape:window-maximized="1"
     inkscape:current-layer="layer1" />
  <defs
     id="defs8646" />
  <g
     inkscape:label="Calque 1"
     inkscape:groupmode="layer"
     id="layer1"
     transform="translate(-3.5219126,-107.11038)">
    <rect
       style="fill:#ffffff;fill-rule:evenodd;stroke:none;stroke-width:3.36383;stroke-linecap:round;stroke-linejoin:round;stroke-miterlimit:4;stroke-dasharray:none;paint-order:stroke markers fill"
       id="rect12711"
       width="81.250999"
       height="13.405396"
       x="31.865208"
       y="121.04062" />
    <rect
       style="fill:#ffffff;fill-rule:evenodd;stroke:none;stroke-width:4;stroke-linecap:round;stroke-linejoin:round;stroke-miterlimit:4;stroke-dasharray:none;paint-order:stroke markers fill"
       id="rect12859"
       width="18.93227"
       height="17.35458"
       x="167.13817"
       y="113.85812" />
    <g
       aria-label="Strategy 4X"
       id="text9988"
       style="font-size:36.9636px;line-height:1.25;font-family:'Rose Of Baltimore';-inkscape-font-specification:'Rose Of Baltimore';fill:#aa0000;stroke:#ffffff;stroke-width:4;stroke-linecap:round;stroke-linejoin:round;stroke-miterlimit:4;stroke-dasharray:none;paint-order:stroke markers fill">
      <path
         d="m 26.44331,111.58698 q -1.922107,0 -4.176887,1.2198 -2.513524,1.36765 -3.28976,3.2528 -1.552471,3.62243 -2.291743,5.24883 -0.739272,1.58943 -2.476561,5.13794 -1.071945,2.32871 -2.846198,3.80725 -2.1069248,1.73729 -4.6204496,1.73729 -0.5914176,0 -0.92409,-0.33267 -0.2957088,-0.36964 -0.2957088,-0.88713 0,-0.48053 0.3326724,-0.85016 0.3326724,-0.36964 0.8871264,-0.36964 1.6263984,0 3.0310152,-1.14587 1.4046164,-1.14587 2.2917434,-2.99405 1.367653,-2.8462 2.36567,-5.06402 0.554454,-1.21979 2.328707,-5.24883 1.33069,-2.80923 4.324741,-4.47259 2.661379,-1.47855 5.359722,-1.47855 0.443563,0 0.813199,0.29571 0.4066,0.25875 0.4066,0.92409 0,1.2198 -1.219799,1.2198 z m 0,3.84422 q -2.883161,0 -4.029032,2.29174 -0.850163,1.70032 -3.511542,7.42968 -1.256763,2.69835 -2.402634,4.99009 -1.404617,2.62441 -4.398669,4.25081 -2.6983424,1.44158 -5.3597216,1.44158 -0.5914176,0 -0.92409,-0.33267 -0.2957088,-0.36963 -0.2957088,-0.88713 0,-0.48052 0.3326724,-0.85016 0.3326724,-0.36963 0.8871264,-0.36963 1.9221072,0 4.1768866,-1.18284 2.513525,-1.33069 3.400651,-3.17887 1.404617,-2.8462 2.365671,-4.87919 2.994051,-6.35774 3.548505,-7.50362 0.850163,-1.77425 2.513525,-2.69834 1.700326,-0.96105 3.69636,-0.96105 0.443563,0 0.813199,0.29571 0.4066,0.25874 0.4066,0.92409 0,1.2198 -1.219799,1.2198 z"
         style="font-family:Skinny;-inkscape-font-specification:'Skinny, Normal';stroke:#ffffff;stroke-width:4;stroke-linecap:round;stroke-linejoin:round;stroke-miterlimit:4;stroke-dasharray:none;paint-order:stroke markers fill"
         id="path12465" />
      <path
         d="m 36.571301,132.54534 q -1.552471,0 -2.809233,-1.25676 -1.219799,-1.29373 -1.219799,-3.06798 v -12.90029 q 0,-0.48053 0.295709,-0.73928 0.332672,-0.29571 0.776235,-0.29571 0.4066,0 0.702309,0.29571 0.332672,0.25875 0.332672,0.73928 v 2.99405 h 1.922107 q 0.480527,0 0.739272,0.33267 0.295709,0.29571 0.295709,0.73927 0,0.44356 -0.258745,0.73927 -0.258745,0.29571 -0.776236,0.29571 h -1.922107 v 7.79932 q 0,0.70231 0.739272,1.51551 0.739272,0.77624 1.182835,0.70231 0.480527,0 0.739272,0.33267 0.295709,0.29571 0.295709,0.73927 0,0.44357 -0.258745,0.73927 -0.258745,0.29571 -0.776236,0.29571 z m 0.110891,3.43762 q -2.957088,0 -5.322758,-2.25478 -2.365671,-2.25478 -2.365671,-5.39669 v -13.01118 q 0,-0.48053 0.295709,-0.73928 0.332672,-0.29571 0.776236,-0.29571 0.406599,0 0.702308,0.29571 0.332672,0.25875 0.332672,0.73928 v 13.01118 q 0,2.18086 1.774253,3.88118 1.774253,1.66336 3.807251,1.66336 0.480527,0 0.739272,0.33268 0.295709,0.2957 0.295709,0.73927 0,0.44356 -0.258745,0.73927 -0.258746,0.29571 -0.776236,0.29571 z"
         style="font-family:Skinny;-inkscape-font-specification:'Skinny, Normal';stroke:#ffffff;stroke-width:4;stroke-linecap:round;stroke-linejoin:round;stroke-miterlimit:4;stroke-dasharray:none;paint-order:stroke markers fill"
         id="path12467" />
      <path
         d="m 46.292712,120.42128 q -0.887126,-0.22178 -2.920124,1.6264 -2.217816,1.99603 -2.032998,3.62243 l 0.03696,9.05609 q 0,0.51749 -0.295708,0.81319 -0.258746,0.25875 -0.739272,0.25875 -0.443564,0 -0.776236,-0.25875 -0.295709,-0.2957 -0.295709,-0.81319 l -0.03696,-9.05609 q 0,-2.95708 2.587452,-5.28579 2.291743,-2.06996 4.472595,-2.06996 0.517491,0.11089 0.776236,0.48052 0.258745,0.36964 0.258745,0.8132 0,1.03498 -1.034981,0.8132 z m 0.258745,1.66336 q 0.554454,0 0.850163,0.33268 0.332673,0.29571 0.332673,0.73927 0,1.10891 -1.256763,1.10891 -0.443563,0 -1.034981,0.73927 -0.591417,0.73927 -0.369636,1.07194 v 8.64949 q 0,0.51749 -0.295708,0.81319 -0.258746,0.25875 -0.739272,0.25875 -0.443564,0 -0.776236,-0.25875 -0.295709,-0.2957 -0.295709,-0.81319 v -8.64949 q 0.184818,-1.58943 1.552471,-2.88316 1.182836,-1.10891 2.032998,-1.10891 z"
         style="font-family:Skinny;-inkscape-font-specification:'Skinny, Normal';stroke:#ffffff;stroke-width:4;stroke-linecap:round;stroke-linejoin:round;stroke-miterlimit:4;stroke-dasharray:none;paint-order:stroke markers fill"
         id="path12469" />
      <path
         d="m 65.735526,134.76316 q 0,0.99802 -0.998018,0.99802 -0.998017,0 -0.998017,-0.96106 v -7.79932 q 0,-2.77227 -1.959071,-4.65741 -1.95907,-1.88514 -4.731341,-1.88514 -2.77227,0 -4.768304,1.9221 -1.959071,1.88515 -1.959071,4.62045 0,2.8462 1.922107,4.91616 1.959071,2.033 4.768305,2.033 1.552471,0 3.437615,-1.10891 0.628381,-0.36963 1.589435,-1.10891 v 3.2528 q 0,0.36964 -0.295709,0.59142 -0.295709,0.22178 -0.628381,0.22178 -0.92409,0 -0.92409,-0.73927 -0.628382,0.22178 -1.034981,0.33267 -1.219799,0.33267 -2.143889,0.33267 -3.585469,0 -6.135958,-2.58745 -2.550488,-2.58745 -2.550488,-6.20988 0,-3.54851 2.550488,-6.02507 2.587452,-2.51353 6.209885,-2.51353 3.659397,0 6.135958,2.47657 2.513525,2.43959 2.513525,6.09899 z m -3.58547,-7.54058 q 0,2.10693 -1.515507,3.62244 -1.478544,1.47854 -3.622433,1.47854 -2.143889,0 -3.659397,-1.47854 -1.515507,-1.47855 -1.515507,-3.62244 0,-2.14388 1.515507,-3.65939 1.515508,-1.51551 3.659397,-1.51551 2.143889,0 3.622433,1.51551 1.515507,1.47854 1.515507,3.65939 z m -2.069961,0 q 0,-1.29372 -0.887127,-2.18085 -0.887126,-0.88712 -2.180852,-0.88712 -1.256763,0 -2.180853,0.92409 -0.887126,0.88712 -0.887126,2.14388 0,1.25677 0.887126,2.14389 0.887127,0.88713 2.180853,0.88713 1.293726,0 2.180852,-0.88713 0.887127,-0.88712 0.887127,-2.14389 z"
         style="font-family:Skinny;-inkscape-font-specification:'Skinny, Normal';stroke:#ffffff;stroke-width:4;stroke-linecap:round;stroke-linejoin:round;stroke-miterlimit:4;stroke-dasharray:none;paint-order:stroke markers fill"
         id="path12471" />
      <path
         d="m 75.789569,132.54534 q -1.552472,0 -2.809234,-1.25676 -1.219799,-1.29373 -1.219799,-3.06798 v -12.90029 q 0,-0.48053 0.295709,-0.73928 0.332672,-0.29571 0.776236,-0.29571 0.406599,0 0.702308,0.29571 0.332672,0.25875 0.332672,0.73928 v 2.99405 h 1.922108 q 0.480526,0 0.739272,0.33267 0.295708,0.29571 0.295708,0.73927 0,0.44356 -0.258745,0.73927 -0.258745,0.29571 -0.776235,0.29571 h -1.922108 v 7.79932 q 0,0.70231 0.739272,1.51551 0.739272,0.77624 1.182836,0.70231 0.480526,0 0.739272,0.33267 0.295708,0.29571 0.295708,0.73927 0,0.44357 -0.258745,0.73927 -0.258745,0.29571 -0.776235,0.29571 z m 0.11089,3.43762 q -2.957088,0 -5.322758,-2.25478 -2.36567,-2.25478 -2.36567,-5.39669 v -13.01118 q 0,-0.48053 0.295708,-0.73928 0.332673,-0.29571 0.776236,-0.29571 0.4066,0 0.702308,0.29571 0.332673,0.25875 0.332673,0.73928 v 13.01118 q 0,2.18086 1.774253,3.88118 1.774252,1.66336 3.80725,1.66336 0.480527,0 0.739272,0.33268 0.295709,0.2957 0.295709,0.73927 0,0.44356 -0.258745,0.73927 -0.258745,0.29571 -0.776236,0.29571 z"
         style="font-family:Skinny;-inkscape-font-specification:'Skinny, Normal';stroke:#ffffff;stroke-width:4;stroke-linecap:round;stroke-linejoin:round;stroke-miterlimit:4;stroke-dasharray:none;paint-order:stroke markers fill"
         id="path12473" />
      <path
         d="m 95.786862,126.96384 q 0,0.51749 -0.295708,0.77624 -0.295709,0.25874 -0.739272,0.25874 -0.443564,0 -0.739272,-0.25874 -0.295709,-0.25875 -0.295709,-0.77624 0,-2.66138 -1.774253,-4.73134 -1.996034,-2.32871 -5.174904,-2.32871 -2.735306,0 -4.657414,2.10693 -1.885143,2.06996 -1.885143,5.02705 0,2.69834 1.959071,4.62045 1.95907,1.9221 4.694377,1.9221 h 7.762356 q 0.51749,0 0.776235,0.29571 0.295709,0.29571 0.295709,0.77624 0,0.4066 -0.295709,0.73927 -0.258745,0.29571 -0.776235,0.29571 h -7.762356 q -3.548506,0 -6.172921,-2.51353 -2.587453,-2.55048 -2.587453,-6.13595 0,-3.69636 2.476562,-6.43167 2.513525,-2.77227 6.172921,-2.77227 4.139923,0 6.727375,3.03102 2.291743,2.66137 2.291743,6.09899 z m -1.219798,5.06401 h -7.503611 q -2.217816,0 -3.807251,-1.55247 -1.589435,-1.55247 -1.589435,-3.80725 0,-2.06996 1.552471,-3.36369 1.589435,-1.33069 3.659397,-1.33069 3.104942,0 4.398668,2.62442 0.4066,0.85016 0.665345,2.62441 0,1.07195 -1.034981,1.07195 h -6.690411 q 0.92409,1.66336 2.846197,1.66336 h 7.503611 q 0.51749,0 0.776235,0.29571 0.258745,0.29571 0.258745,0.73927 0,0.44357 -0.258745,0.73927 -0.258745,0.29571 -0.776235,0.29571 z m -4.916159,-5.84025 q -0.258745,-0.88712 -0.813199,-1.40461 -0.739272,-0.70231 -1.959071,-0.70231 -1.256763,0 -2.069962,0.55445 -0.813199,0.55446 -0.998017,1.55247 z"
         style="font-family:Skinny;-inkscape-font-specification:'Skinny, Normal';stroke:#ffffff;stroke-width:4;stroke-linecap:round;stroke-linejoin:round;stroke-miterlimit:4;stroke-dasharray:none;paint-order:stroke markers fill"
         id="path12475" />
      <path
         d="m 111.38545,127.22258 q 0,2.14389 -1.51551,3.6594 -1.51551,1.51551 -3.69636,1.51551 -2.18085,0 -3.69636,-1.47855 -1.47855,-1.5155 -1.47855,-3.69636 0,-2.18085 1.47855,-3.69636 1.47854,-1.5155 3.69636,-1.5155 2.18085,0 3.69636,1.5155 1.51551,1.51551 1.51551,3.69636 z m 3.5485,9.86929 q 0,3.36368 -2.47656,5.61846 -2.4396,2.29175 -5.87721,2.29175 -2.51353,0 -4.21385,-0.99802 -0.29571,-0.18482 -0.44357,-0.44356 -0.14785,-0.22179 -0.14785,-0.48053 0,-0.36964 0.25874,-0.66535 0.29571,-0.25874 0.70231,-0.25874 0.29571,0 0.48053,0.14785 1.33069,0.77624 3.21583,0.77624 2.62442,0 4.54653,-1.73729 1.9221,-1.73729 1.9221,-4.25081 v -10.16499 q 0,-2.73531 -2.03299,-4.65742 -2.033,-1.92211 -4.80527,-1.92211 -2.73531,0 -4.73134,1.92211 -1.996038,1.92211 -1.996038,4.65742 0,2.80923 1.922108,4.87919 1.95907,2.033 4.7683,2.033 1.73729,0 3.69636,-1.10891 0.62838,-0.36963 1.6264,-1.10891 l 0.037,4.80527 q 0,2.033 -1.29373,3.51154 -1.29373,1.47855 -3.21583,1.47855 -0.51749,0 -1.18284,-0.037 -0.62838,-0.037 -1.14587,-0.4066 -0.51749,-0.33267 -0.51749,-0.8132 0,-0.40659 0.25874,-0.7023 0.25875,-0.29571 0.70231,-0.29571 0.29571,0 0.62838,0.18482 0.33268,0.18481 0.51749,0.18481 0.22179,-0.11089 0.55446,-0.11089 1.58943,0 2.29174,-1.44158 0.44356,-0.92409 0.44356,-2.40263 0,-0.25875 0,-0.51749 0,-0.0739 -0.037,-0.18482 -0.59142,0.25875 -0.96105,0.36964 -1.18284,0.36963 -2.40264,0.36963 -3.58547,0 -6.135954,-2.58745 -2.550489,-2.58745 -2.550489,-6.20988 0,-3.54851 2.550489,-6.02507 2.587454,-2.51353 6.209884,-2.51353 3.69636,0 6.24685,2.47656 2.55049,2.47657 2.55049,6.099 z m -5.65543,-9.86929 q 0,-1.29372 -0.92409,-2.18085 -0.88713,-0.92409 -2.18085,-0.92409 -1.29373,0 -2.18085,0.88713 -0.88713,0.88713 -0.88713,2.21781 0,1.29373 0.88713,2.18086 0.88712,0.88712 2.18085,0.88712 1.25676,0 2.18085,-0.88712 0.92409,-0.88713 0.92409,-2.18086 z"
         style="font-family:Skinny;-inkscape-font-specification:'Skinny, Normal';stroke:#ffffff;stroke-width:4;stroke-linecap:round;stroke-linejoin:round;stroke-miterlimit:4;stroke-dasharray:none;paint-order:stroke markers fill"
         id="path12477" />
      <path
         d="m 129.90418,128.51631 q 0,1.55247 -1.33069,2.47656 -1.29372,0.92409 -3.1419,0.92409 -1.77426,0 -2.99406,-0.88712 -1.40461,-0.99802 -1.58943,-2.88317 v -8.79733 q 0,-0.51749 0.25874,-0.77624 0.29571,-0.29571 0.77624,-0.29571 0.4066,0 0.70231,0.29571 0.33267,0.25875 0.33267,0.77624 v 8.79733 q 0,0.66535 0.70231,1.03499 0.70231,0.33267 1.66336,0.33267 1.07195,0 1.77425,-0.36964 0.73928,-0.36963 0.73928,-1.07194 v -8.64949 q 0,-0.51749 0.2957,-0.77623 0.29571,-0.29571 0.77624,-0.29571 0.4066,0 0.70231,0.29571 0.33267,0.25874 0.33267,0.77623 z m 0.11089,6.65345 q 0,2.92012 -0.88712,4.28778 -0.85017,1.36765 -2.88317,1.36765 -0.77623,0 -1.18283,-0.29571 -0.36964,-0.25874 -0.36964,-0.66534 0,-0.4066 0.33268,-0.73928 0.33267,-0.33267 0.85016,-0.33267 1.25676,0 1.77425,-0.92409 0.36964,-0.66534 0.36964,-1.77425 0,-0.33267 -0.037,-0.70231 0,-0.11089 -0.037,-0.25874 -0.33267,0.22178 -0.59142,0.33267 -0.88712,0.36963 -1.88514,0.36963 -3.28976,0 -5.76632,-2.25478 -2.58745,-2.36567 -2.58745,-5.65543 v -8.57555 q 0,-0.51749 0.2957,-0.77624 0.33268,-0.29571 0.77624,-0.29571 1.10891,0 1.10891,1.14587 v 8.50163 q 0,2.47656 1.77425,4.21385 1.81122,1.70033 4.39867,1.70033 1.58943,0 3.21583,-0.96105 0.55446,-0.29571 1.33069,-0.99802 z m 3.54851,1.58943 q 0,3.77029 -1.81122,5.76633 -1.92211,2.14388 -5.72936,2.14388 -0.48052,0 -0.77623,-0.2957 -0.25875,-0.25875 -0.25875,-0.73928 0,-0.44356 0.25875,-0.77623 0.29571,-0.29571 0.77623,-0.29571 2.69835,0 4.066,-1.36765 1.40462,-1.36766 1.40462,-4.43564 l -0.037,-17.40985 q 0,-0.51749 0.29571,-0.77624 0.29571,-0.29571 0.77624,-0.29571 0.4066,0 0.7023,0.29571 0.33268,0.25875 0.33268,0.77624 z"
         style="font-family:Skinny;-inkscape-font-specification:'Skinny, Normal';stroke:#ffffff;stroke-width:4;stroke-linecap:round;stroke-linejoin:round;stroke-miterlimit:4;stroke-dasharray:none;paint-order:stroke markers fill"
         id="path12479" />
      <path
         d="m 174.55618,124.48728 q 0,0.55445 -0.36963,0.92409 -0.33267,0.33267 -1.07195,0.33267 h -2.88316 v -15.229 q 0,-0.59142 0.33268,-0.99802 0.33267,-0.4066 0.88712,-0.4066 0.55446,0 0.88713,0.48053 0.36963,0.44356 0.36963,0.99801 v 12.67852 q 0.62839,-0.037 0.92409,0.037 0.92409,0.22178 0.92409,1.18284 z m -5.54454,1.33069 h -8.13199 l 1.25676,-8.94519 q 0.1109,-0.66535 0.44357,-1.10891 0.33267,-0.44356 0.88712,-0.44356 0.55446,0 0.8132,0.48052 0.29571,0.44357 0.22179,0.99802 -0.18482,1.44158 -0.5175,4.32474 -0.0739,0.88713 -0.25874,2.40263 l 2.77227,-0.037 v -13.08511 q 0,-0.48053 0.4066,-0.88713 0.4066,-0.4066 0.92409,-0.4066 0.51749,0 0.85016,0.36964 0.33267,0.36963 0.33267,0.92409 z m -0.11089,8.61252 q 0,1.29372 -1.18283,1.29372 -1.10891,0 -1.10891,-1.29372 v -4.80527 h -10.0541 q 0.33267,-2.80923 0.51749,-4.54652 0.62838,-5.02705 1.18284,-8.57556 0.0739,-0.51749 0.51749,-0.8132 0.44356,-0.29571 0.96105,-0.18482 0.4066,0.11089 0.66535,0.44357 0.25874,0.33267 0.18481,0.73927 -0.4066,2.69834 -0.92409,7.02308 -0.14785,1.36766 -0.4066,3.62244 h 9.6475 z m 5.72936,-5.91418 q 0,0.70231 -0.85016,0.96105 -0.25875,0.0739 -0.85016,0.14786 v 4.91616 q 0,0.44356 -0.36964,0.85016 -0.36964,0.4066 -0.8132,0.4066 -0.48053,0 -0.85016,-0.4066 -0.33267,-0.44356 -0.33267,-0.99802 v -7.06004 h 2.95708 q 0.4066,0 0.73928,0.36963 0.36963,0.33267 0.36963,0.8132 z"
         style="font-family:Skinny;-inkscape-font-specification:'Skinny, Normal';stroke:#ffffff;stroke-width:4;stroke-linecap:round;stroke-linejoin:round;stroke-miterlimit:4;stroke-dasharray:none;paint-order:stroke markers fill"
         id="path12481" />
      <path
         d="m 201.02211,111.62395 q -2.95709,0 -6.46863,3.51154 -3.80725,3.80725 -3.80725,7.87324 0,3.91815 3.51154,7.28183 3.36369,3.21584 6.72738,3.21584 0.55445,0 0.85016,0.36963 0.33267,0.33268 0.33267,0.85017 0,0.55445 -0.29571,0.88712 -0.25874,0.33267 -0.88712,0.33267 -3.62244,0 -7.09701,-2.58745 -3.43762,-2.58745 -4.8792,-6.50559 -1.36765,3.91814 -4.87919,6.57952 -3.51155,2.62442 -7.13398,2.62442 -0.59142,0 -0.92409,-0.33268 -0.29571,-0.36963 -0.29571,-0.88712 0,-0.48053 0.33267,-0.85017 0.33268,-0.36963 0.88713,-0.36963 3.32672,0 6.72738,-3.2528 3.58546,-3.43761 3.58546,-7.35576 0,-4.28777 -3.32672,-7.72539 -3.28976,-3.47458 -6.87523,-3.47458 -0.59142,0 -0.92409,-0.33267 -0.29571,-0.36964 -0.29571,-0.88713 0,-0.48052 0.33267,-0.85016 0.33268,-0.36963 0.88713,-0.36963 3.80725,0 7.2079,2.77227 3.43762,2.7353 4.76831,6.87523 1.47854,-4.13993 5.02705,-6.98613 3.58547,-2.84619 6.91219,-2.84619 0.55445,0 0.85016,0.36963 0.33268,0.33268 0.33268,0.85017 0,0.55445 -0.29571,0.88712 -0.25875,0.33268 -0.88713,0.33268 z m 0,20.77354 q -3.06798,0 -5.80328,-2.62442 -2.99406,-2.88316 -2.99406,-6.87523 0,-3.99207 2.69835,-6.83826 2.69834,-2.8462 6.09899,-2.8462 0.55445,0 0.85016,0.36964 0.33268,0.33267 0.33268,0.85016 0,0.55445 -0.29571,0.88713 -0.25875,0.33267 -0.88713,0.33267 -2.25478,0 -4.25081,2.06996 -2.14389,2.25478 -2.14389,5.1749 0,2.77227 2.36567,5.02705 2.10692,2.033 4.02903,2.033 0.55445,0 0.85016,0.36964 0.33268,0.33267 0.33268,0.85016 0,0.55445 -0.29571,0.88713 -0.25875,0.33267 -0.88713,0.33267 z m -15.229,-9.38876 q 0,3.99207 -2.99405,6.87523 -2.73531,2.62442 -5.80329,2.62442 -0.59142,0 -0.92409,-0.33267 -0.29571,-0.36964 -0.29571,-0.88713 0,-0.48053 0.33267,-0.85016 0.33268,-0.36964 0.88713,-0.36964 1.84818,0 3.95511,-2.033 2.40263,-2.3287 2.40263,-5.02705 0,-2.92012 -2.06996,-5.06401 -2.033,-2.18085 -4.28778,-2.18085 -0.59142,0 -0.92409,-0.33267 -0.29571,-0.36964 -0.29571,-0.88713 0,-0.48053 0.33267,-0.85016 0.33268,-0.36964 0.88713,-0.36964 3.43762,0 6.09899,2.8462 2.69835,2.80923 2.69835,6.83826 z"
         style="font-family:Skinny;-inkscape-font-specification:'Skinny, Normal';stroke:#ffffff;stroke-width:4;stroke-linecap:round;stroke-linejoin:round;stroke-miterlimit:4;stroke-dasharray:none;paint-order:stroke markers fill"
         id="path12483" />
    </g>
    <g
       aria-label="Strategy 4X"
       id="g12615"
       style="font-size:36.9636px;line-height:1.25;font-family:'Rose Of Baltimore';-inkscape-font-specification:'Rose Of Baltimore';fill:#aa0000;stroke-width:0.385037">
      <path
         d="m 26.44331,111.58698 q -1.922107,0 -4.176887,1.2198 -2.513524,1.36765 -3.28976,3.2528 -1.552471,3.62243 -2.291743,5.24883 -0.739272,1.58943 -2.476561,5.13794 -1.071945,2.32871 -2.846198,3.80725 -2.1069248,1.73729 -4.6204496,1.73729 -0.5914176,0 -0.92409,-0.33267 -0.2957088,-0.36964 -0.2957088,-0.88713 0,-0.48053 0.3326724,-0.85016 0.3326724,-0.36964 0.8871264,-0.36964 1.6263984,0 3.0310152,-1.14587 1.4046164,-1.14587 2.2917434,-2.99405 1.367653,-2.8462 2.36567,-5.06402 0.554454,-1.21979 2.328707,-5.24883 1.33069,-2.80923 4.324741,-4.47259 2.661379,-1.47855 5.359722,-1.47855 0.443563,0 0.813199,0.29571 0.4066,0.25875 0.4066,0.92409 0,1.2198 -1.219799,1.2198 z m 0,3.84422 q -2.883161,0 -4.029032,2.29174 -0.850163,1.70032 -3.511542,7.42968 -1.256763,2.69835 -2.402634,4.99009 -1.404617,2.62441 -4.398669,4.25081 -2.6983424,1.44158 -5.3597216,1.44158 -0.5914176,0 -0.92409,-0.33267 -0.2957088,-0.36963 -0.2957088,-0.88713 0,-0.48052 0.3326724,-0.85016 0.3326724,-0.36963 0.8871264,-0.36963 1.9221072,0 4.1768866,-1.18284 2.513525,-1.33069 3.400651,-3.17887 1.404617,-2.8462 2.365671,-4.87919 2.994051,-6.35774 3.548505,-7.50362 0.850163,-1.77425 2.513525,-2.69834 1.700326,-0.96105 3.69636,-0.96105 0.443563,0 0.813199,0.29571 0.4066,0.25874 0.4066,0.92409 0,1.2198 -1.219799,1.2198 z"
         style="font-family:Skinny;-inkscape-font-specification:'Skinny, Normal'"
         id="path12595" />
      <path
         d="m 36.571301,132.54534 q -1.552471,0 -2.809233,-1.25676 -1.219799,-1.29373 -1.219799,-3.06798 v -12.90029 q 0,-0.48053 0.295709,-0.73928 0.332672,-0.29571 0.776235,-0.29571 0.4066,0 0.702309,0.29571 0.332672,0.25875 0.332672,0.73928 v 2.99405 h 1.922107 q 0.480527,0 0.739272,0.33267 0.295709,0.29571 0.295709,0.73927 0,0.44356 -0.258745,0.73927 -0.258745,0.29571 -0.776236,0.29571 h -1.922107 v 7.79932 q 0,0.70231 0.739272,1.51551 0.739272,0.77624 1.182835,0.70231 0.480527,0 0.739272,0.33267 0.295709,0.29571 0.295709,0.73927 0,0.44357 -0.258745,0.73927 -0.258745,0.29571 -0.776236,0.29571 z m 0.110891,3.43762 q -2.957088,0 -5.322758,-2.25478 -2.365671,-2.25478 -2.365671,-5.39669 v -13.01118 q 0,-0.48053 0.295709,-0.73928 0.332672,-0.29571 0.776236,-0.29571 0.406599,0 0.702308,0.29571 0.332672,0.25875 0.332672,0.73928 v 13.01118 q 0,2.18086 1.774253,3.88118 1.774253,1.66336 3.807251,1.66336 0.480527,0 0.739272,0.33268 0.295709,0.2957 0.295709,0.73927 0,0.44356 -0.258745,0.73927 -0.258746,0.29571 -0.776236,0.29571 z"
         style="font-family:Skinny;-inkscape-font-specification:'Skinny, Normal'"
         id="path12597" />
      <path
         d="m 46.292712,120.42128 q -0.887126,-0.22178 -2.920124,1.6264 -2.217816,1.99603 -2.032998,3.62243 l 0.03696,9.05609 q 0,0.51749 -0.295708,0.81319 -0.258746,0.25875 -0.739272,0.25875 -0.443564,0 -0.776236,-0.25875 -0.295709,-0.2957 -0.295709,-0.81319 l -0.03696,-9.05609 q 0,-2.95708 2.587452,-5.28579 2.291743,-2.06996 4.472595,-2.06996 0.517491,0.11089 0.776236,0.48052 0.258745,0.36964 0.258745,0.8132 0,1.03498 -1.034981,0.8132 z m 0.258745,1.66336 q 0.554454,0 0.850163,0.33268 0.332673,0.29571 0.332673,0.73927 0,1.10891 -1.256763,1.10891 -0.443563,0 -1.034981,0.73927 -0.591417,0.73927 -0.369636,1.07194 v 8.64949 q 0,0.51749 -0.295708,0.81319 -0.258746,0.25875 -0.739272,0.25875 -0.443564,0 -0.776236,-0.25875 -0.295709,-0.2957 -0.295709,-0.81319 v -8.64949 q 0.184818,-1.58943 1.552471,-2.88316 1.182836,-1.10891 2.032998,-1.10891 z"
         style="font-family:Skinny;-inkscape-font-specification:'Skinny, Normal'"
         id="path12599" />
      <path
         d="m 65.735526,134.76316 q 0,0.99802 -0.998018,0.99802 -0.998017,0 -0.998017,-0.96106 v -7.79932 q 0,-2.77227 -1.959071,-4.65741 -1.95907,-1.88514 -4.731341,-1.88514 -2.77227,0 -4.768304,1.9221 -1.959071,1.88515 -1.959071,4.62045 0,2.8462 1.922107,4.91616 1.959071,2.033 4.768305,2.033 1.552471,0 3.437615,-1.10891 0.628381,-0.36963 1.589435,-1.10891 v 3.2528 q 0,0.36964 -0.295709,0.59142 -0.295709,0.22178 -0.628381,0.22178 -0.92409,0 -0.92409,-0.73927 -0.628382,0.22178 -1.034981,0.33267 -1.219799,0.33267 -2.143889,0.33267 -3.585469,0 -6.135958,-2.58745 -2.550488,-2.58745 -2.550488,-6.20988 0,-3.54851 2.550488,-6.02507 2.587452,-2.51353 6.209885,-2.51353 3.659397,0 6.135958,2.47657 2.513525,2.43959 2.513525,6.09899 z m -3.58547,-7.54058 q 0,2.10693 -1.515507,3.62244 -1.478544,1.47854 -3.622433,1.47854 -2.143889,0 -3.659397,-1.47854 -1.515507,-1.47855 -1.515507,-3.62244 0,-2.14388 1.515507,-3.65939 1.515508,-1.51551 3.659397,-1.51551 2.143889,0 3.622433,1.51551 1.515507,1.47854 1.515507,3.65939 z m -2.069961,0 q 0,-1.29372 -0.887127,-2.18085 -0.887126,-0.88712 -2.180852,-0.88712 -1.256763,0 -2.180853,0.92409 -0.887126,0.88712 -0.887126,2.14388 0,1.25677 0.887126,2.14389 0.887127,0.88713 2.180853,0.88713 1.293726,0 2.180852,-0.88713 0.887127,-0.88712 0.887127,-2.14389 z"
         style="font-family:Skinny;-inkscape-font-specification:'Skinny, Normal'"
         id="path12601" />
      <path
         d="m 75.789569,132.54534 q -1.552472,0 -2.809234,-1.25676 -1.219799,-1.29373 -1.219799,-3.06798 v -12.90029 q 0,-0.48053 0.295709,-0.73928 0.332672,-0.29571 0.776236,-0.29571 0.406599,0 0.702308,0.29571 0.332672,0.25875 0.332672,0.73928 v 2.99405 h 1.922108 q 0.480526,0 0.739272,0.33267 0.295708,0.29571 0.295708,0.73927 0,0.44356 -0.258745,0.73927 -0.258745,0.29571 -0.776235,0.29571 h -1.922108 v 7.79932 q 0,0.70231 0.739272,1.51551 0.739272,0.77624 1.182836,0.70231 0.480526,0 0.739272,0.33267 0.295708,0.29571 0.295708,0.73927 0,0.44357 -0.258745,0.73927 -0.258745,0.29571 -0.776235,0.29571 z m 0.11089,3.43762 q -2.957088,0 -5.322758,-2.25478 -2.36567,-2.25478 -2.36567,-5.39669 v -13.01118 q 0,-0.48053 0.295708,-0.73928 0.332673,-0.29571 0.776236,-0.29571 0.4066,0 0.702308,0.29571 0.332673,0.25875 0.332673,0.73928 v 13.01118 q 0,2.18086 1.774253,3.88118 1.774252,1.66336 3.80725,1.66336 0.480527,0 0.739272,0.33268 0.295709,0.2957 0.295709,0.73927 0,0.44356 -0.258745,0.73927 -0.258745,0.29571 -0.776236,0.29571 z"
         style="font-family:Skinny;-inkscape-font-specification:'Skinny, Normal'"
         id="path12603" />
      <path
         d="m 95.786862,126.96384 q 0,0.51749 -0.295708,0.77624 -0.295709,0.25874 -0.739272,0.25874 -0.443564,0 -0.739272,-0.25874 -0.295709,-0.25875 -0.295709,-0.77624 0,-2.66138 -1.774253,-4.73134 -1.996034,-2.32871 -5.174904,-2.32871 -2.735306,0 -4.657414,2.10693 -1.885143,2.06996 -1.885143,5.02705 0,2.69834 1.959071,4.62045 1.95907,1.9221 4.694377,1.9221 h 7.762356 q 0.51749,0 0.776235,0.29571 0.295709,0.29571 0.295709,0.77624 0,0.4066 -0.295709,0.73927 -0.258745,0.29571 -0.776235,0.29571 h -7.762356 q -3.548506,0 -6.172921,-2.51353 -2.587453,-2.55048 -2.587453,-6.13595 0,-3.69636 2.476562,-6.43167 2.513525,-2.77227 6.172921,-2.77227 4.139923,0 6.727375,3.03102 2.291743,2.66137 2.291743,6.09899 z m -1.219798,5.06401 h -7.503611 q -2.217816,0 -3.807251,-1.55247 -1.589435,-1.55247 -1.589435,-3.80725 0,-2.06996 1.552471,-3.36369 1.589435,-1.33069 3.659397,-1.33069 3.104942,0 4.398668,2.62442 0.4066,0.85016 0.665345,2.62441 0,1.07195 -1.034981,1.07195 h -6.690411 q 0.92409,1.66336 2.846197,1.66336 h 7.503611 q 0.51749,0 0.776235,0.29571 0.258745,0.29571 0.258745,0.73927 0,0.44357 -0.258745,0.73927 -0.258745,0.29571 -0.776235,0.29571 z m -4.916159,-5.84025 q -0.258745,-0.88712 -0.813199,-1.40461 -0.739272,-0.70231 -1.959071,-0.70231 -1.256763,0 -2.069962,0.55445 -0.813199,0.55446 -0.998017,1.55247 z"
         style="font-family:Skinny;-inkscape-font-specification:'Skinny, Normal'"
         id="path12605" />
      <path
         d="m 111.38545,127.22258 q 0,2.14389 -1.51551,3.6594 -1.51551,1.51551 -3.69636,1.51551 -2.18085,0 -3.69636,-1.47855 -1.47855,-1.5155 -1.47855,-3.69636 0,-2.18085 1.47855,-3.69636 1.47854,-1.5155 3.69636,-1.5155 2.18085,0 3.69636,1.5155 1.51551,1.51551 1.51551,3.69636 z m 3.5485,9.86929 q 0,3.36368 -2.47656,5.61846 -2.4396,2.29175 -5.87721,2.29175 -2.51353,0 -4.21385,-0.99802 -0.29571,-0.18482 -0.44357,-0.44356 -0.14785,-0.22179 -0.14785,-0.48053 0,-0.36964 0.25874,-0.66535 0.29571,-0.25874 0.70231,-0.25874 0.29571,0 0.48053,0.14785 1.33069,0.77624 3.21583,0.77624 2.62442,0 4.54653,-1.73729 1.9221,-1.73729 1.9221,-4.25081 v -10.16499 q 0,-2.73531 -2.03299,-4.65742 -2.033,-1.92211 -4.80527,-1.92211 -2.73531,0 -4.73134,1.92211 -1.996038,1.92211 -1.996038,4.65742 0,2.80923 1.922108,4.87919 1.95907,2.033 4.7683,2.033 1.73729,0 3.69636,-1.10891 0.62838,-0.36963 1.6264,-1.10891 l 0.037,4.80527 q 0,2.033 -1.29373,3.51154 -1.29373,1.47855 -3.21583,1.47855 -0.51749,0 -1.18284,-0.037 -0.62838,-0.037 -1.14587,-0.4066 -0.51749,-0.33267 -0.51749,-0.8132 0,-0.40659 0.25874,-0.7023 0.25875,-0.29571 0.70231,-0.29571 0.29571,0 0.62838,0.18482 0.33268,0.18481 0.51749,0.18481 0.22179,-0.11089 0.55446,-0.11089 1.58943,0 2.29174,-1.44158 0.44356,-0.92409 0.44356,-2.40263 0,-0.25875 0,-0.51749 0,-0.0739 -0.037,-0.18482 -0.59142,0.25875 -0.96105,0.36964 -1.18284,0.36963 -2.40264,0.36963 -3.58547,0 -6.135954,-2.58745 -2.550489,-2.58745 -2.550489,-6.20988 0,-3.54851 2.550489,-6.02507 2.587454,-2.51353 6.209884,-2.51353 3.69636,0 6.24685,2.47656 2.55049,2.47657 2.55049,6.099 z m -5.65543,-9.86929 q 0,-1.29372 -0.92409,-2.18085 -0.88713,-0.92409 -2.18085,-0.92409 -1.29373,0 -2.18085,0.88713 -0.88713,0.88713 -0.88713,2.21781 0,1.29373 0.88713,2.18086 0.88712,0.88712 2.18085,0.88712 1.25676,0 2.18085,-0.88712 0.92409,-0.88713 0.92409,-2.18086 z"
         style="font-family:Skinny;-inkscape-font-specification:'Skinny, Normal'"
         id="path12607" />
      <path
         d="m 129.90418,128.51631 q 0,1.55247 -1.33069,2.47656 -1.29372,0.92409 -3.1419,0.92409 -1.77426,0 -2.99406,-0.88712 -1.40461,-0.99802 -1.58943,-2.88317 v -8.79733 q 0,-0.51749 0.25874,-0.77624 0.29571,-0.29571 0.77624,-0.29571 0.4066,0 0.70231,0.29571 0.33267,0.25875 0.33267,0.77624 v 8.79733 q 0,0.66535 0.70231,1.03499 0.70231,0.33267 1.66336,0.33267 1.07195,0 1.77425,-0.36964 0.73928,-0.36963 0.73928,-1.07194 v -8.64949 q 0,-0.51749 0.2957,-0.77623 0.29571,-0.29571 0.77624,-0.29571 0.4066,0 0.70231,0.29571 0.33267,0.25874 0.33267,0.77623 z m 0.11089,6.65345 q 0,2.92012 -0.88712,4.28778 -0.85017,1.36765 -2.88317,1.36765 -0.77623,0 -1.18283,-0.29571 -0.36964,-0.25874 -0.36964,-0.66534 0,-0.4066 0.33268,-0.73928 0.33267,-0.33267 0.85016,-0.33267 1.25676,0 1.77425,-0.92409 0.36964,-0.66534 0.36964,-1.77425 0,-0.33267 -0.037,-0.70231 0,-0.11089 -0.037,-0.25874 -0.33267,0.22178 -0.59142,0.33267 -0.88712,0.36963 -1.88514,0.36963 -3.28976,0 -5.76632,-2.25478 -2.58745,-2.36567 -2.58745,-5.65543 v -8.57555 q 0,-0.51749 0.2957,-0.77624 0.33268,-0.29571 0.77624,-0.29571 1.10891,0 1.10891,1.14587 v 8.50163 q 0,2.47656 1.77425,4.21385 1.81122,1.70033 4.39867,1.70033 1.58943,0 3.21583,-0.96105 0.55446,-0.29571 1.33069,-0.99802 z m 3.54851,1.58943 q 0,3.77029 -1.81122,5.76633 -1.92211,2.14388 -5.72936,2.14388 -0.48052,0 -0.77623,-0.2957 -0.25875,-0.25875 -0.25875,-0.73928 0,-0.44356 0.25875,-0.77623 0.29571,-0.29571 0.77623,-0.29571 2.69835,0 4.066,-1.36765 1.40462,-1.36766 1.40462,-4.43564 l -0.037,-17.40985 q 0,-0.51749 0.29571,-0.77624 0.29571,-0.29571 0.77624,-0.29571 0.4066,0 0.7023,0.29571 0.33268,0.25875 0.33268,0.77624 z"
         style="font-family:Skinny;-inkscape-font-specification:'Skinny, Normal'"
         id="path12609" />
      <path
         d="m 174.55618,124.48728 q 0,0.55445 -0.36963,0.92409 -0.33267,0.33267 -1.07195,0.33267 h -2.88316 v -15.229 q 0,-0.59142 0.33268,-0.99802 0.33267,-0.4066 0.88712,-0.4066 0.55446,0 0.88713,0.48053 0.36963,0.44356 0.36963,0.99801 v 12.67852 q 0.62839,-0.037 0.92409,0.037 0.92409,0.22178 0.92409,1.18284 z m -5.54454,1.33069 h -8.13199 l 1.25676,-8.94519 q 0.1109,-0.66535 0.44357,-1.10891 0.33267,-0.44356 0.88712,-0.44356 0.55446,0 0.8132,0.48052 0.29571,0.44357 0.22179,0.99802 -0.18482,1.44158 -0.5175,4.32474 -0.0739,0.88713 -0.25874,2.40263 l 2.77227,-0.037 v -13.08511 q 0,-0.48053 0.4066,-0.88713 0.4066,-0.4066 0.92409,-0.4066 0.51749,0 0.85016,0.36964 0.33267,0.36963 0.33267,0.92409 z m -0.11089,8.61252 q 0,1.29372 -1.18283,1.29372 -1.10891,0 -1.10891,-1.29372 v -4.80527 h -10.0541 q 0.33267,-2.80923 0.51749,-4.54652 0.62838,-5.02705 1.18284,-8.57556 0.0739,-0.51749 0.51749,-0.8132 0.44356,-0.29571 0.96105,-0.18482 0.4066,0.11089 0.66535,0.44357 0.25874,0.33267 0.18481,0.73927 -0.4066,2.69834 -0.92409,7.02308 -0.14785,1.36766 -0.4066,3.62244 h 9.6475 z m 5.72936,-5.91418 q 0,0.70231 -0.85016,0.96105 -0.25875,0.0739 -0.85016,0.14786 v 4.91616 q 0,0.44356 -0.36964,0.85016 -0.36964,0.4066 -0.8132,0.4066 -0.48053,0 -0.85016,-0.4066 -0.33267,-0.44356 -0.33267,-0.99802 v -7.06004 h 2.95708 q 0.4066,0 0.73928,0.36963 0.36963,0.33267 0.36963,0.8132 z"
         style="font-family:Skinny;-inkscape-font-specification:'Skinny, Normal'"
         id="path12611" />
      <path
         d="m 201.02211,111.62395 q -2.95709,0 -6.46863,3.51154 -3.80725,3.80725 -3.80725,7.87324 0,3.91815 3.51154,7.28183 3.36369,3.21584 6.72738,3.21584 0.55445,0 0.85016,0.36963 0.33267,0.33268 0.33267,0.85017 0,0.55445 -0.29571,0.88712 -0.25874,0.33267 -0.88712,0.33267 -3.62244,0 -7.09701,-2.58745 -3.43762,-2.58745 -4.8792,-6.50559 -1.36765,3.91814 -4.87919,6.57952 -3.51155,2.62442 -7.13398,2.62442 -0.59142,0 -0.92409,-0.33268 -0.29571,-0.36963 -0.29571,-0.88712 0,-0.48053 0.33267,-0.85017 0.33268,-0.36963 0.88713,-0.36963 3.32672,0 6.72738,-3.2528 3.58546,-3.43761 3.58546,-7.35576 0,-4.28777 -3.32672,-7.72539 -3.28976,-3.47458 -6.87523,-3.47458 -0.59142,0 -0.92409,-0.33267 -0.29571,-0.36964 -0.29571,-0.88713 0,-0.48052 0.33267,-0.85016 0.33268,-0.36963 0.88713,-0.36963 3.80725,0 7.2079,2.77227 3.43762,2.7353 4.76831,6.87523 1.47854,-4.13993 5.02705,-6.98613 3.58547,-2.84619 6.91219,-2.84619 0.55445,0 0.85016,0.36963 0.33268,0.33268 0.33268,0.85017 0,0.55445 -0.29571,0.88712 -0.25875,0.33268 -0.88713,0.33268 z m 0,20.77354 q -3.06798,0 -5.80328,-2.62442 -2.99406,-2.88316 -2.99406,-6.87523 0,-3.99207 2.69835,-6.83826 2.69834,-2.8462 6.09899,-2.8462 0.55445,0 0.85016,0.36964 0.33268,0.33267 0.33268,0.85016 0,0.55445 -0.29571,0.88713 -0.25875,0.33267 -0.88713,0.33267 -2.25478,0 -4.25081,2.06996 -2.14389,2.25478 -2.14389,5.1749 0,2.77227 2.36567,5.02705 2.10692,2.033 4.02903,2.033 0.55445,0 0.85016,0.36964 0.33268,0.33267 0.33268,0.85016 0,0.55445 -0.29571,0.88713 -0.25875,0.33267 -0.88713,0.33267 z m -15.229,-9.38876 q 0,3.99207 -2.99405,6.87523 -2.73531,2.62442 -5.80329,2.62442 -0.59142,0 -0.92409,-0.33267 -0.29571,-0.36964 -0.29571,-0.88713 0,-0.48053 0.33267,-0.85016 0.33268,-0.36964 0.88713,-0.36964 1.84818,0 3.95511,-2.033 2.40263,-2.3287 2.40263,-5.02705 0,-2.92012 -2.06996,-5.06401 -2.033,-2.18085 -4.28778,-2.18085 -0.59142,0 -0.92409,-0.33267 -0.29571,-0.36964 -0.29571,-0.88713 0,-0.48053 0.33267,-0.85016 0.33268,-0.36964 0.88713,-0.36964 3.43762,0 6.09899,2.8462 2.69835,2.80923 2.69835,6.83826 z"
         style="font-family:Skinny;-inkscape-font-specification:'Skinny, Normal'"
         id="path12613" />
    </g>
  </g>
</svg>
