<?xml version="1.0" encoding="UTF-8" standalone="no"?>
<!-- Created with Inkscape (http://www.inkscape.org/) -->

<svg
   width="189.83093mm"
   height="52.533752mm"
   viewBox="0 0 189.83093 52.533753"
   version="1.1"
   id="svg5"
   inkscape:version="1.1 (c68e22c387, 2021-05-23)"
   sodipodi:docname="auto-actionfirstpersonshooter.svg"
   xmlns:inkscape="http://www.inkscape.org/namespaces/inkscape"
   xmlns:sodipodi="http://sodipodi.sourceforge.net/DTD/sodipodi-0.dtd"
   xmlns="http://www.w3.org/2000/svg"
   xmlns:svg="http://www.w3.org/2000/svg">
  <sodipodi:namedview
     id="namedview7"
     pagecolor="#ffffff"
     bordercolor="#666666"
     borderopacity="1.0"
     inkscape:pageshadow="2"
     inkscape:pageopacity="0.0"
     inkscape:pagecheckerboard="0"
     inkscape:document-units="mm"
     showgrid="false"
     fit-margin-top="0"
     fit-margin-left="0"
     fit-margin-right="0"
     fit-margin-bottom="0"
     inkscape:zoom="0.94867184"
     inkscape:cx="386.32959"
     inkscape:cy="51.651159"
     inkscape:window-width="1920"
     inkscape:window-height="1138"
     inkscape:window-x="-8"
     inkscape:window-y="-8"
     inkscape:window-maximized="1"
     inkscape:current-layer="layer1" />
  <defs
     id="defs2">
    <rect
       x="170.76506"
       y="29.514948"
       width="689.38489"
       height="257.20169"
       id="rect9546" />
  </defs>
  <g
     inkscape:label="Calque 1"
     inkscape:groupmode="layer"
     id="layer1"
     transform="translate(-10.08453,-90.717932)">
    <text
       xml:space="preserve"
       transform="scale(0.26458333)"
       id="text9544"
       style="font-size:96px;line-height:1.25;font-family:'Mario Kart DS';-inkscape-font-specification:'Mario Kart DS';white-space:pre;shape-inside:url(#rect9546)" />
    <g
       id="g953">
      <rect
         style="fill:#ffffff;fill-rule:evenodd;stroke:none;stroke-width:4.99599;stroke-linecap:round;stroke-linejoin:round;stroke-miterlimit:4;stroke-dasharray:none;paint-order:stroke markers fill"
         id="rect10844"
         width="32.631145"
         height="12.829339"
         x="32.868633"
         y="96.661652" />
      <rect
         style="fill:#ffffff;fill-rule:evenodd;stroke:none;stroke-width:7.09553;stroke-linecap:round;stroke-linejoin:round;stroke-miterlimit:4;stroke-dasharray:none;paint-order:stroke markers fill"
         id="rect10970"
         width="65.820091"
         height="12.829339"
         x="121.29675"
         y="96.661652" />
      <rect
         style="fill:#ffffff;fill-rule:evenodd;stroke:none;stroke-width:2.96647;stroke-linecap:round;stroke-linejoin:round;stroke-miterlimit:4;stroke-dasharray:none;paint-order:stroke markers fill"
         id="rect10976"
         width="11.504557"
         height="12.829339"
         x="98.745384"
         y="94.015816" />
      <path
         d="m 25.8731,100.07183 h -4.934857 v -0.967608 q 0,-0.45962 -0.04838,-0.62896 -0.02419,-0.19352 -0.241905,-0.508 -0.09676,-0.12095 -0.362857,-0.2419 -0.241905,-0.14514 -0.48381,-0.14514 h -0.459619 q -0.435428,0 -0.483809,0.0726 -0.04838,0.0968 -0.04838,0.41124 0,0.19352 0,0.29028 v 1.838478 q 0,0.29028 0,0.60476 0.02419,0.31448 0.09676,0.38705 0.09676,0.0968 0.362857,0.0968 h 3.410857 v 3.48343 h -3.435048 q -0.266095,0 -0.338666,0.16933 -0.07257,0.14514 -0.07257,0.74991 v 2.68514 q 0,0.38705 0.266095,0.72571 0.290286,0.33867 0.653143,0.36286 v 3.21733 h -7.499047 v -3.21733 q 0.217714,-0.0968 0.362857,-0.31448 0.169333,-0.2419 0.217714,-0.36285 0.07257,-0.19353 0.07257,-0.41124 V 97.725432 q 0,-0.2661 -0.07257,-0.43543 -0.07257,-0.16933 -0.266095,-0.43543 -0.169333,-0.29028 -0.48381,-0.48381 v -2.97543 h 13.788572 z"
         style="font-size:25.4px;line-height:1.25;font-family:AcmeFont;-inkscape-font-specification:AcmeFont;fill:#1a1a1a;stroke:#ffffff;stroke-width:4;stroke-linecap:round;stroke-linejoin:round;stroke-miterlimit:4;stroke-dasharray:none;paint-order:stroke markers fill"
         id="path10433" />
      <path
         d="m 27.929262,112.67507 v -3.21733 q 0.217714,-0.0968 0.362857,-0.31448 0.169333,-0.2419 0.217714,-0.36285 0.07257,-0.19353 0.07257,-0.41124 V 97.725362 q 0,-0.2661 -0.07257,-0.43543 -0.07257,-0.16933 -0.266095,-0.43543 -0.169334,-0.29028 -0.48381,-0.48381 v -2.97543 h 7.861905 v 2.97543 q -0.314476,0.19353 -0.48381,0.43543 -0.145143,0.24191 -0.241904,0.45962 -0.09676,0.21771 -0.09676,0.45962 v 10.643808 q 0,0.19352 0.07257,0.38705 0.07257,0.16933 0.217714,0.38704 0.145143,0.21772 0.362858,0.31448 v 3.21733 z"
         style="font-size:25.4px;line-height:1.25;font-family:AcmeFont;-inkscape-font-specification:AcmeFont;fill:#1a1a1a;stroke:#ffffff;stroke-width:4;stroke-linecap:round;stroke-linejoin:round;stroke-miterlimit:4;stroke-dasharray:none;paint-order:stroke markers fill"
         id="path10435" />
      <path
         d="m 52.337449,106.19203 v 2.20133 q 0,0.41124 0.16934,0.70152 0.19352,0.2661 0.41123,0.36286 v 3.21733 h -6.604 v -5.56381 q 0,-0.38704 -0.12095,-0.70152 -0.0968,-0.33867 -0.38705,-0.62895 -0.14514,-0.14515 -0.2419,-0.21772 -0.19352,-0.14514 -0.48381,-0.14514 h -0.33867 q -0.48381,0 -0.508,0.0484 -0.0484,0.14514 -0.0484,0.33867 0.0242,0.41124 0.0242,0.62895 v 1.95943 q 0,0.41124 0.16934,0.70152 0.19352,0.2661 0.41123,0.36286 v 3.21733 h -7.160376 v -3.21733 q 0.217714,-0.0968 0.362857,-0.29029 0.145143,-0.21771 0.217714,-0.41123 0.09676,-0.19353 0.09676,-0.38705 V 98.233382 q 0,-0.41124 -0.04838,-0.58057 -0.02419,-0.19353 -0.217714,-0.45962 -0.169334,-0.29029 -0.435429,-0.43543 v -3.41086 h 10.208378 q 1.93524,0 3.33829,1.47562 1.40305,1.47562 1.40305,3.38667 0,1.71752 -0.36286,2.709328 -0.48381,1.30629 -1.69333,1.93524 -0.14515,0.0726 -0.14515,0.29029 0,0.19352 0.12096,0.26609 1.04019,0.62895 1.35466,1.016 0.508,0.62895 0.508,1.76591 z m -5.73314,-6.628198 q 0,-0.89504 -0.14514,-1.37885 -0.24191,-0.79829 -0.87086,-0.79829 h -1.016 q -0.21771,0 -0.31448,0.19353 -0.0484,0.0968 -0.0484,0.21771 0,0.16933 0,0.2661 v 2.636758 q 0,0.19352 0,0.41124 0.0242,0.19352 0.0968,0.29028 0.12096,0.14514 0.33867,0.14514 h 1.06438 q 0.55638,0 0.72572,-0.58057 0.16933,-0.58057 0.16933,-1.403048 z"
         style="font-size:25.4px;line-height:1.25;font-family:AcmeFont;-inkscape-font-specification:AcmeFont;fill:#1a1a1a;stroke:#ffffff;stroke-width:4;stroke-linecap:round;stroke-linejoin:round;stroke-miterlimit:4;stroke-dasharray:none;paint-order:stroke markers fill"
         id="path10437" />
      <path
         d="m 62.255539,113.42498 q -2.95124,0 -4.69295,-0.65315 -1.45143,-0.55638 -2.66096,-1.69333 v -5.03162 h 5.97505 v 2.24972 q 0,0.43543 0.38705,0.72571 0.41124,0.2661 0.84667,0.2661 0.70152,0 0.99181,-0.45962 0.31447,-0.48381 0.31447,-1.40305 0,-1.71752 -2.24971,-2.39486 -3.96724,-1.18533 -4.23334,-1.33047 -2.2739,-1.30629 -2.2739,-4.571998 0,-3.50762 2.15295,-5.03162 1.74172,-1.23372 4.91067,-1.23372 2.90286,0 4.62038,0.62896 1.47562,0.53219 2.63676,1.62076 v 4.64457 h -5.63638 v -1.69333 q 0,-0.48381 -0.29029,-0.84667 -0.29028,-0.36286 -0.87085,-0.36286 -1.33048,0 -1.33048,1.74172 0,1.28209 2.24972,1.935228 3.36247,0.96762 4.18495,1.49981 2.2739,1.47562 2.2739,4.78972 0,6.604 -7.30552,6.604 z"
         style="font-size:25.4px;line-height:1.25;font-family:AcmeFont;-inkscape-font-specification:AcmeFont;fill:#1a1a1a;stroke:#ffffff;stroke-width:4;stroke-linecap:round;stroke-linejoin:round;stroke-miterlimit:4;stroke-dasharray:none;paint-order:stroke markers fill"
         id="path10439" />
      <path
         d="m 82.454549,108.36917 q 0,0.41124 0.26609,0.7499 0.29029,0.31448 0.65314,0.33867 v 3.21733 h -7.3539 v -3.21733 q 0.36286,-0.0242 0.62895,-0.33867 0.12095,-0.14514 0.16934,-0.2419 0.14514,-0.24191 0.14514,-0.508 V 98.136602 q 0,-0.29029 0,-0.43543 0,-0.24191 -0.0484,-0.33867 -0.0242,-0.0484 -0.21772,-0.0726 -0.0484,0 -0.21771,0 -0.19352,-0.0242 -0.43543,0.0968 -0.2419,0.12095 -0.31448,0.24191 -0.16933,0.31447 -0.16933,0.65314 0,0.21771 0,0.36286 v 3.362468 h -4.064 v -8.611808 h 16.40114 v 8.611808 h -4.064 v -3.289898 q 0,-0.2661 0,-0.36286 0,-0.33867 -0.16933,-0.65314 -0.0726,-0.12095 -0.31448,-0.24191 -0.2419,-0.12095 -0.43542,-0.0968 -0.12096,0 -0.16934,0 -0.21771,0 -0.2419,0.0726 -0.0484,0.0968 -0.0484,0.43543 0,0.21772 0,0.31448 z"
         style="font-size:25.4px;line-height:1.25;font-family:AcmeFont;-inkscape-font-specification:AcmeFont;fill:#1a1a1a;stroke:#ffffff;stroke-width:4;stroke-linecap:round;stroke-linejoin:round;stroke-miterlimit:4;stroke-dasharray:none;paint-order:stroke markers fill"
         id="path10441" />
      <path
         d="m 96.87202,112.67507 v -3.41085 q 0.29028,-0.0726 0.43542,-0.33867 0.16934,-0.2661 0.16934,-0.60476 V 97.725362 q 0,-0.55638 -0.2661,-0.91924 -0.14514,-0.21771 -0.45962,-0.36286 v -3.09638 h 8.66019 q 4.59619,0 6.02343,2.54 0.72572,1.2821 0.72572,4.378478 0,2.97543 -0.96762,4.64457 -1.25791,2.15295 -4.11238,2.15295 h -2.95124 q -0.33867,0 -0.41124,0.0726 -0.14514,0.14515 -0.14514,0.43543 v 0.91924 q 0,0.19352 0.12095,0.33867 0.12095,0.14514 0.31448,0.31447 0.29028,0.2661 0.55638,0.31448 v 3.24152 z m 9.11981,-12.26457 q 0,-0.16933 0,-0.38705 0,-0.217708 0.0242,-0.459618 0,-1.33047 -0.29029,-1.81428 -0.26609,-0.48381 -0.79829,-0.48381 h -1.016 q -0.21771,0 -0.31447,0.19352 -0.0484,0.0968 -0.0484,0.21772 0,0.16933 0,0.26609 v 4.378478 q 0,0.29028 0,0.43543 0,0.2419 0.0484,0.31447 0.0484,0.0726 0.16933,0.0968 0.0968,0 0.21772,0 h 1.06438 q 0.58057,0 0.77409,-0.48381 0.19353,-0.508 0.19353,-1.35467 0,-0.29029 -0.0242,-0.508 0,-0.24191 0,-0.41124 z"
         style="font-size:25.4px;line-height:1.25;font-family:AcmeFont;-inkscape-font-specification:AcmeFont;fill:#1a1a1a;stroke:#ffffff;stroke-width:4;stroke-linecap:round;stroke-linejoin:round;stroke-miterlimit:4;stroke-dasharray:none;paint-order:stroke markers fill"
         id="path10443" />
      <path
         d="m 121.18342,104.57126 q -0.21772,0 -0.29029,0.24191 -0.0484,0.0726 -0.0968,0.26609 -0.0242,0.16934 -0.0242,0.41124 v 2.27391 q 0,0.31447 0,0.45962 0,0.26609 0.0484,0.31447 0.0726,0.0968 0.48381,0.0968 h 0.58057 q 0.19352,0 0.45962,-0.12095 0.26609,-0.12095 0.45962,-0.38705 0.19352,-0.29028 0.26609,-0.48381 0.0968,-0.21771 0.0968,-0.55638 v -1.35466 h 5.66057 v 6.94266 h -14.80457 v -3.21733 q 0.21771,-0.0968 0.36285,-0.31448 0.16934,-0.2419 0.21772,-0.36285 0.0726,-0.19353 0.0726,-0.41124 V 97.725402 q 0,-0.2661 -0.0726,-0.43543 -0.0726,-0.16933 -0.2661,-0.43543 -0.16933,-0.29028 -0.48381,-0.48381 v -3.02381 l 14.97391,-0.0242 v 6.31372 h -5.80572 v -0.96762 q 0,-0.2661 -0.0968,-0.45962 -0.0484,-0.0968 -0.29029,-0.43543 -0.14514,-0.19352 -0.41123,-0.29029 -0.24191,-0.0968 -0.48381,-0.0968 h -0.45962 q -0.45962,0 -0.508,0.0726 -0.0484,0.14515 -0.0484,0.2661 0.0242,0.29028 0.0242,0.43543 v 1.83847 q 0,0.217718 0,0.338668 0,0.33867 0.0726,0.41124 0.0968,0.0968 0.36286,0.0968 h 3.62857 v 3.72533 z"
         style="font-size:25.4px;line-height:1.25;font-family:AcmeFont;-inkscape-font-specification:AcmeFont;fill:#1a1a1a;stroke:#ffffff;stroke-width:4;stroke-linecap:round;stroke-linejoin:round;stroke-miterlimit:4;stroke-dasharray:none;paint-order:stroke markers fill"
         id="path10445" />
      <path
         d="m 145.47062,106.19203 v 2.20133 q 0,0.41124 0.16933,0.70152 0.19353,0.2661 0.41124,0.36286 v 3.21733 h -6.604 v -5.56381 q 0,-0.38704 -0.12095,-0.70152 -0.0968,-0.33867 -0.38705,-0.62895 -0.14514,-0.14515 -0.2419,-0.21772 -0.19353,-0.14514 -0.48381,-0.14514 h -0.33867 q -0.48381,0 -0.508,0.0484 -0.0484,0.14514 -0.0484,0.33867 0.0242,0.41124 0.0242,0.62895 v 1.95943 q 0,0.41124 0.16933,0.70152 0.19353,0.2661 0.41124,0.36286 v 3.21733 h -7.16038 v -3.21733 q 0.21772,-0.0968 0.36286,-0.29029 0.14514,-0.21771 0.21771,-0.41123 0.0968,-0.19353 0.0968,-0.38705 V 98.233382 q 0,-0.41124 -0.0484,-0.58057 -0.0242,-0.19353 -0.21771,-0.45962 -0.16933,-0.29029 -0.43543,-0.43543 v -3.41086 h 10.20838 q 1.93524,0 3.33829,1.47562 1.40304,1.47562 1.40304,3.38667 0,1.71752 -0.36285,2.709328 -0.48381,1.30629 -1.69334,1.93524 -0.14514,0.0726 -0.14514,0.29029 0,0.19352 0.12095,0.26609 1.04019,0.62895 1.35467,1.016 0.508,0.62895 0.508,1.76591 z m -5.73314,-6.628198 q 0,-0.89504 -0.14515,-1.37885 -0.2419,-0.79829 -0.87085,-0.79829 h -1.016 q -0.21772,0 -0.31448,0.19353 -0.0484,0.0968 -0.0484,0.21771 0,0.16933 0,0.2661 v 2.636758 q 0,0.19352 0,0.41124 0.0242,0.19352 0.0968,0.29028 0.12095,0.14514 0.33867,0.14514 h 1.06438 q 0.55638,0 0.72571,-0.58057 0.16934,-0.58057 0.16934,-1.403048 z"
         style="font-size:25.4px;line-height:1.25;font-family:AcmeFont;-inkscape-font-specification:AcmeFont;fill:#1a1a1a;stroke:#ffffff;stroke-width:4;stroke-linecap:round;stroke-linejoin:round;stroke-miterlimit:4;stroke-dasharray:none;paint-order:stroke markers fill"
         id="path10447" />
      <path
         d="m 155.38871,113.42498 q -2.95124,0 -4.69296,-0.65315 -1.45143,-0.55638 -2.66095,-1.69333 v -5.03162 h 5.97505 v 2.24972 q 0,0.43543 0.38705,0.72571 0.41123,0.2661 0.84666,0.2661 0.70153,0 0.99181,-0.45962 0.31448,-0.48381 0.31448,-1.40305 0,-1.71752 -2.24972,-2.39486 -3.96723,-1.18533 -4.23333,-1.33047 -2.2739,-1.30629 -2.2739,-4.571998 0,-3.50762 2.15295,-5.03162 1.74171,-1.23372 4.91067,-1.23372 2.90285,0 4.62038,0.62896 1.47562,0.53219 2.63676,1.62076 v 4.64457 h -5.63638 v -1.69333 q 0,-0.48381 -0.29029,-0.84667 -0.29028,-0.36286 -0.87086,-0.36286 -1.33047,0 -1.33047,1.74172 0,1.28209 2.24971,1.935228 3.36248,0.96762 4.18495,1.49981 2.27391,1.47562 2.27391,4.78972 0,6.604 -7.30552,6.604 z"
         style="font-size:25.4px;line-height:1.25;font-family:AcmeFont;-inkscape-font-specification:AcmeFont;fill:#1a1a1a;stroke:#ffffff;stroke-width:4;stroke-linecap:round;stroke-linejoin:round;stroke-miterlimit:4;stroke-dasharray:none;paint-order:stroke markers fill"
         id="path10449" />
      <path
         d="m 172.03172,113.32822 q -3.58019,0 -5.44286,-1.59658 -1.95942,-1.66914 -1.95942,-5.10419 v -8.152188 q 0,-2.99962 2.2739,-4.49943 1.91105,-1.2579 5.00743,-1.2579 2.39486,0 4.3059,1.04019 2.83029,1.54819 2.83029,4.8381 v 8.031228 q 0,4.08819 -2.41905,5.66058 -1.59657,1.04019 -4.59619,1.04019 z m 0.94343,-15.215808 q 0,-0.508 -0.33867,-0.84667 -0.33866,-0.33867 -0.87085,-0.33867 -0.508,0 -0.82248,0.36286 -0.29029,0.33867 -0.29029,0.84667 v 9.845518 q 0,0.48381 0.33867,0.82248 0.36286,0.31447 0.87086,0.31447 0.43543,0 0.77409,-0.33866 0.33867,-0.33867 0.33867,-0.82248 z"
         style="font-size:25.4px;line-height:1.25;font-family:AcmeFont;-inkscape-font-specification:AcmeFont;fill:#1a1a1a;stroke:#ffffff;stroke-width:4;stroke-linecap:round;stroke-linejoin:round;stroke-miterlimit:4;stroke-dasharray:none;paint-order:stroke markers fill"
         id="path10451" />
      <path
         d="m 191.69852,101.23298 q 0.0242,0.0726 0.24191,0.0726 l 0.14514,-0.12095 v -3.459238 q 0,-0.19353 -0.0242,-0.29029 -0.0242,-0.12095 -0.2419,-0.45962 l -0.29029,-0.33866 v -3.21734 h 6.38629 v 3.21734 q -0.2661,0.0726 -0.48381,0.33866 -0.29029,0.36286 -0.29029,0.72572 l -0.0242,14.973898 h -6.24114 l -3.28991,-7.49904 -0.14514,-0.14515 -0.16933,0.12095 v 3.26572 q 0,0.48381 0.14514,0.72571 0.14514,0.21772 0.43543,0.33867 v 3.21733 l -6.14438,-0.0242 v -3.21733 q 0.26609,-0.0726 0.508,-0.38705 0.26609,-0.31447 0.26609,-0.67733 l -0.0242,-10.087428 q 0,-0.21771 -0.0242,-0.41124 0,-0.21771 -0.0726,-0.508 -0.19352,-0.62895 -0.74991,-1.016 v -2.97543 h 6.96686 z"
         style="font-size:25.4px;line-height:1.25;font-family:AcmeFont;-inkscape-font-specification:AcmeFont;fill:#1a1a1a;stroke:#ffffff;stroke-width:4;stroke-linecap:round;stroke-linejoin:round;stroke-miterlimit:4;stroke-dasharray:none;paint-order:stroke markers fill"
         id="path10453" />
    </g>
    <g
       id="g937"
       transform="translate(0,-3.7041668)">
      <rect
         style="fill:#ffffff;fill-rule:evenodd;stroke:none;stroke-width:4.59533;stroke-linecap:round;stroke-linejoin:round;stroke-miterlimit:4;stroke-dasharray:none;paint-order:stroke markers fill"
         id="rect10972"
         width="27.607195"
         height="12.829339"
         x="135.28786"
         y="127.88247" />
      <rect
         style="fill:#ffffff;fill-rule:evenodd;stroke:none;stroke-width:6.64507;stroke-linecap:round;stroke-linejoin:round;stroke-miterlimit:4;stroke-dasharray:none;paint-order:stroke markers fill"
         id="rect10974"
         width="57.728252"
         height="12.829339"
         x="51.150406"
         y="127.88247" />
      <path
         d="m 53.147739,144.95585 q -2.951237,0 -4.692951,-0.65314 -1.451429,-0.55638 -2.660953,-1.69333 v -5.03162 h 5.975048 v 2.24971 q 0,0.43543 0.387048,0.72572 0.411237,0.26609 0.846666,0.26609 0.701524,0 0.99181,-0.45962 0.314476,-0.48381 0.314476,-1.40304 0,-1.71753 -2.249714,-2.39486 -3.967238,-1.18533 -4.233334,-1.33048 -2.273904,-1.30628 -2.273904,-4.572 0,-3.50762 2.152952,-5.03162 1.741714,-1.23371 4.910667,-1.23371 2.902857,0 4.620381,0.62895 1.475619,0.53219 2.636761,1.62076 v 4.64458 h -5.63638 v -1.69334 q 0,-0.48381 -0.290286,-0.84666 -0.290286,-0.36286 -0.870857,-0.36286 -1.330477,0 -1.330477,1.74171 0,1.2821 2.249715,1.93524 3.362476,0.96762 4.184952,1.49981 2.273905,1.47562 2.273905,4.78971 0,6.604 -7.305525,6.604 z"
         style="font-size:25.4px;line-height:1.25;font-family:AcmeFont;-inkscape-font-specification:AcmeFont;fill:#aa0000;stroke:#ffffff;stroke-width:4;stroke-linecap:round;stroke-linejoin:round;stroke-miterlimit:4;stroke-dasharray:none;paint-order:stroke markers fill"
         id="path10455" />
      <path
         d="m 78.063885,144.20595 v -3.21733 q -0.21771,-0.0968 -0.38704,-0.31448 -0.14515,-0.2419 -0.193529,-0.36286 -0.0726,-0.19352 -0.0726,-0.41123 v -10.64381 q 0,-0.2661 0.0726,-0.43543 0.0726,-0.16934 0.24191,-0.43543 0.19352,-0.29029 0.508,-0.48381 v -2.97543 h -7.281337 v 2.97543 q 0.266096,0.14514 0.48381,0.508 0.241905,0.33867 0.241905,0.82248 v 1.95942 q 0,0.2661 0,0.41124 0,0.45962 -0.04838,0.62895 -0.02419,0.16934 -0.241905,0.19353 h -0.532191 -0.870857 -0.628952 q -0.145143,-0.0968 -0.193524,-0.2661 -0.02419,-0.19352 -0.02419,-0.94343 v -1.95942 q 0,-0.508 0.314476,-0.91924 0.217714,-0.31448 0.556381,-0.43543 v -2.97543 h -7.62 v 2.97543 q 0.314476,0.19352 0.459619,0.43543 0.169333,0.2419 0.266095,0.45962 0.09676,0.21771 0.09676,0.45962 v 10.64381 q 0,0.19352 -0.07257,0.38704 -0.07257,0.16934 -0.217715,0.38705 -0.145142,0.21771 -0.362857,0.31448 v 3.21733 h 7.281333 v -3.21733 q -0.241904,-0.12096 -0.387047,-0.31448 -0.145143,-0.19352 -0.241905,-0.36286 -0.07257,-0.19352 -0.07257,-0.41123 v -2.87867 q 0,-0.31448 0,-0.67733 0.02419,-0.36286 0.193523,-0.33867 h 0.604762 1.016 0.532191 q 0.169333,0 0.217714,0.19352 0.07257,0.19353 0.07257,0.53219 0,0.21772 0,0.29029 v 2.87867 q 0,0.21771 -0.07257,0.38704 -0.07257,0.14515 -0.241905,0.36286 -0.145143,0.21771 -0.387047,0.33867 v 3.21733 z"
         style="font-size:25.4px;line-height:1.25;font-family:AcmeFont;-inkscape-font-specification:AcmeFont;fill:#aa0000;stroke:#ffffff;stroke-width:4;stroke-linecap:round;stroke-linejoin:round;stroke-miterlimit:4;stroke-dasharray:none;paint-order:stroke markers fill"
         id="path10457" />
      <path
         d="m 87.328826,144.85909 q -3.58019,0 -5.44286,-1.59657 -1.95943,-1.66914 -1.95943,-5.10419 v -8.15219 q 0,-2.99962 2.27391,-4.49943 1.91104,-1.2579 5.00742,-1.2579 2.39486,0 4.30591,1.04019 2.83028,1.54819 2.83028,4.83809 v 8.03124 q 0,4.08819 -2.41904,5.66057 -1.59657,1.04019 -4.59619,1.04019 z m 0.94343,-15.21581 q 0,-0.508 -0.33867,-0.84666 -0.33867,-0.33867 -0.87086,-0.33867 -0.508,0 -0.82247,0.36286 -0.29029,0.33866 -0.29029,0.84666 v 9.84553 q 0,0.48381 0.33867,0.82247 0.36285,0.31448 0.87085,0.31448 0.43543,0 0.7741,-0.33867 0.33867,-0.33866 0.33867,-0.82247 z"
         style="font-size:25.4px;line-height:1.25;font-family:AcmeFont;-inkscape-font-specification:AcmeFont;fill:#aa0000;stroke:#ffffff;stroke-width:4;stroke-linecap:round;stroke-linejoin:round;stroke-miterlimit:4;stroke-dasharray:none;paint-order:stroke markers fill"
         id="path10459" />
      <path
         d="m 104.31049,144.85909 q -3.58019,0 -5.442854,-1.59657 -1.95943,-1.66914 -1.95943,-5.10419 v -8.15219 q 0,-2.99962 2.2739,-4.49943 1.911054,-1.2579 5.007434,-1.2579 2.39487,0 4.30593,1.04019 2.8303,1.54819 2.8303,4.83809 v 8.03124 q 0,4.08819 -2.41906,5.66057 -1.59658,1.04019 -4.59622,1.04019 z m 0.94343,-15.21581 q 0,-0.508 -0.33866,-0.84666 -0.33867,-0.33867 -0.87086,-0.33867 -0.508,0 -0.82248,0.36286 -0.29028,0.33866 -0.29028,0.84666 v 9.84553 q 0,0.48381 0.33866,0.82247 0.36286,0.31448 0.87086,0.31448 0.43543,0 0.7741,-0.33867 0.33866,-0.33866 0.33866,-0.82247 z"
         style="font-size:25.4px;line-height:1.25;font-family:AcmeFont;-inkscape-font-specification:AcmeFont;fill:#aa0000;stroke:#ffffff;stroke-width:4;stroke-linecap:round;stroke-linejoin:round;stroke-miterlimit:4;stroke-dasharray:none;paint-order:stroke markers fill"
         id="path10461" />
      <path
         d="m 124.84828,139.90005 q 0,0.41123 0.2661,0.7499 0.29028,0.31448 0.65314,0.33867 v 3.21733 h -7.35394 v -3.21733 q 0.36285,-0.0242 0.62895,-0.33867 0.12095,-0.14514 0.16934,-0.2419 0.14515,-0.24191 0.14515,-0.508 v -10.23258 q 0,-0.29028 0,-0.43542 0,-0.24191 -0.0484,-0.33867 -0.0242,-0.0484 -0.21772,-0.0726 -0.0484,0 -0.21771,0 -0.19353,-0.0242 -0.43543,0.0968 -0.24191,0.12095 -0.31448,0.2419 -0.16933,0.31448 -0.16933,0.65315 0,0.21771 0,0.36285 v 3.36248 h -4.06403 v -8.61181 h 16.40124 v 8.61181 h -4.06403 v -3.2899 q 0,-0.2661 0,-0.36286 0,-0.33867 -0.16933,-0.65314 -0.0726,-0.12096 -0.31448,-0.24191 -0.2419,-0.12095 -0.43543,-0.0968 -0.12095,0 -0.16933,0 -0.21771,0 -0.24191,0.0726 -0.0484,0.0968 -0.0484,0.43543 0,0.21771 0,0.31448 z"
         style="font-size:25.4px;line-height:1.25;font-family:AcmeFont;-inkscape-font-specification:AcmeFont;fill:#aa0000;stroke:#ffffff;stroke-width:4;stroke-linecap:round;stroke-linejoin:round;stroke-miterlimit:4;stroke-dasharray:none;paint-order:stroke markers fill"
         id="path10463" />
      <path
         d="m 139.58029,136.10214 q -0.21771,0 -0.29028,0.24191 -0.0484,0.0726 -0.0968,0.26609 -0.0242,0.16933 -0.0242,0.41124 v 2.2739 q 0,0.31448 0,0.45962 0,0.2661 0.0484,0.31448 0.0726,0.0968 0.4838,0.0968 h 0.58058 q 0.19352,0 0.45962,-0.12095 0.26609,-0.12095 0.45961,-0.38705 0.19353,-0.29029 0.2661,-0.48381 0.0968,-0.21771 0.0968,-0.55638 v -1.35467 h 5.66057 v 6.94267 h -14.80457 v -3.21733 q 0.21772,-0.0968 0.36286,-0.31448 0.16933,-0.2419 0.21771,-0.36286 0.0726,-0.19352 0.0726,-0.41123 v -10.64381 q 0,-0.2661 -0.0726,-0.43543 -0.0726,-0.16934 -0.26609,-0.43543 -0.16934,-0.29029 -0.48381,-0.48381 v -3.02381 l 14.9739,-0.0242 v 6.31371 h -5.80571 v -0.96762 q 0,-0.26609 -0.0968,-0.45961 -0.0484,-0.0968 -0.29029,-0.43543 -0.14514,-0.19353 -0.41124,-0.29029 -0.2419,-0.0968 -0.48381,-0.0968 h -0.45962 q -0.45961,0 -0.508,0.0726 -0.0484,0.14514 -0.0484,0.2661 0.0242,0.29028 0.0242,0.43542 v 1.83848 q 0,0.21772 0,0.33867 0,0.33866 0.0726,0.41124 0.0968,0.0968 0.36285,0.0968 h 3.62857 v 3.72533 z"
         style="font-size:25.4px;line-height:1.25;font-family:AcmeFont;-inkscape-font-specification:AcmeFont;fill:#aa0000;stroke:#ffffff;stroke-width:4;stroke-linecap:round;stroke-linejoin:round;stroke-miterlimit:4;stroke-dasharray:none;paint-order:stroke markers fill"
         id="path10465" />
      <path
         d="m 163.8675,137.7229 v 2.20134 q 0,0.41123 0.16933,0.70152 0.19352,0.26609 0.41124,0.36286 v 3.21733 h -6.604 v -5.56381 q 0,-0.38705 -0.12095,-0.70152 -0.0968,-0.33867 -0.38705,-0.62896 -0.14515,-0.14514 -0.24191,-0.21771 -0.19352,-0.14514 -0.48381,-0.14514 h -0.33866 q -0.48381,0 -0.508,0.0484 -0.0484,0.14514 -0.0484,0.33866 0.0242,0.41124 0.0242,0.62896 v 1.95943 q 0,0.41123 0.16933,0.70152 0.19352,0.26609 0.41124,0.36286 v 3.21733 h -7.16038 v -3.21733 q 0.21771,-0.0968 0.36285,-0.29029 0.14515,-0.21771 0.21772,-0.41124 0.0968,-0.19352 0.0968,-0.38704 v -10.13581 q 0,-0.41124 -0.0484,-0.58058 -0.0242,-0.19352 -0.21772,-0.45961 -0.16933,-0.29029 -0.43542,-0.43543 v -3.41086 h 10.20838 q 1.93524,0 3.33828,1.47562 1.40305,1.47562 1.40305,3.38667 0,1.71752 -0.36286,2.70933 -0.48381,1.30628 -1.69333,1.93524 -0.14514,0.0726 -0.14514,0.29028 0,0.19353 0.12095,0.2661 1.04019,0.62895 1.35467,1.016 0.508,0.62895 0.508,1.7659 z m -5.73315,-6.62819 q 0,-0.89505 -0.14514,-1.37885 -0.2419,-0.79829 -0.87086,-0.79829 h -1.016 q -0.21771,0 -0.31447,0.19352 -0.0484,0.0968 -0.0484,0.21772 0,0.16933 0,0.26609 v 2.63676 q 0,0.19353 0,0.41124 0.0242,0.19353 0.0968,0.29029 0.12095,0.14514 0.33866,0.14514 h 1.06439 q 0.55638,0 0.72571,-0.58057 0.16933,-0.58057 0.16933,-1.40305 z"
         style="font-size:25.4px;line-height:1.25;font-family:AcmeFont;-inkscape-font-specification:AcmeFont;fill:#aa0000;stroke:#ffffff;stroke-width:4;stroke-linecap:round;stroke-linejoin:round;stroke-miterlimit:4;stroke-dasharray:none;paint-order:stroke markers fill"
         id="path10467" />
    </g>
    <g
       id="g993"
       transform="translate(-4.887835,85.828196)">
      <path
         d="m 31.172175,14.171034 h -4.934857 v -0.967608 q 0,-0.45962 -0.04838,-0.62896 -0.02419,-0.19352 -0.241905,-0.508 -0.09676,-0.12095 -0.362857,-0.2419 -0.241905,-0.14514 -0.48381,-0.14514 h -0.459619 q -0.435428,0 -0.483809,0.0726 -0.04838,0.0968 -0.04838,0.41124 0,0.19352 0,0.29028 v 1.838478 q 0,0.29028 0,0.60476 0.02419,0.31448 0.09676,0.38705 0.09676,0.0968 0.362857,0.0968 h 3.410857 v 3.48343 h -3.435048 q -0.266095,0 -0.338666,0.16933 -0.07257,0.14514 -0.07257,0.74991 v 2.68514 q 0,0.38705 0.266095,0.72571 0.290286,0.33867 0.653143,0.36286 v 3.21733 h -7.499047 v -3.21733 q 0.217714,-0.0968 0.362857,-0.31448 0.169333,-0.2419 0.217714,-0.36285 0.07257,-0.19353 0.07257,-0.41124 V 11.824636 q 0,-0.2661 -0.07257,-0.43543 -0.07257,-0.16933 -0.266095,-0.43543 -0.169333,-0.29028 -0.48381,-0.48381 v -2.97543 h 13.788572 z"
         style="font-size:25.4px;line-height:1.25;font-family:AcmeFont;-inkscape-font-specification:AcmeFont;fill:#1a1a1a;stroke-width:0.264583"
         id="path10712" />
      <path
         d="m 33.228337,26.774274 v -3.21733 q 0.217714,-0.0968 0.362857,-0.31448 0.169333,-0.2419 0.217714,-0.36285 0.07257,-0.19353 0.07257,-0.41124 V 11.824566 q 0,-0.2661 -0.07257,-0.43543 -0.07257,-0.16933 -0.266095,-0.43543 -0.169334,-0.29028 -0.48381,-0.48381 v -2.97543 h 7.861905 v 2.97543 q -0.314476,0.19353 -0.48381,0.43543 -0.145143,0.24191 -0.241904,0.45962 -0.09676,0.21771 -0.09676,0.45962 v 10.643808 q 0,0.19352 0.07257,0.38705 0.07257,0.16933 0.217714,0.38704 0.145143,0.21772 0.362858,0.31448 v 3.21733 z"
         style="font-size:25.4px;line-height:1.25;font-family:AcmeFont;-inkscape-font-specification:AcmeFont;fill:#1a1a1a;stroke-width:0.264583"
         id="path10714" />
      <path
         d="m 57.636524,20.291234 v 2.20133 q 0,0.41124 0.16934,0.70152 0.19352,0.2661 0.41123,0.36286 v 3.21733 h -6.604 v -5.56381 q 0,-0.38704 -0.12095,-0.70152 -0.0968,-0.33867 -0.38705,-0.62895 -0.14514,-0.14515 -0.2419,-0.21772 -0.19352,-0.14514 -0.48381,-0.14514 h -0.33867 q -0.48381,0 -0.508,0.0484 -0.0484,0.14514 -0.0484,0.33867 0.0242,0.41124 0.0242,0.62895 v 1.95943 q 0,0.41124 0.16934,0.70152 0.19352,0.2661 0.41123,0.36286 v 3.21733 h -7.160376 v -3.21733 q 0.217714,-0.0968 0.362857,-0.29029 0.145143,-0.21771 0.217714,-0.41123 0.09676,-0.19353 0.09676,-0.38705 V 12.332586 q 0,-0.41124 -0.04838,-0.58057 -0.02419,-0.19353 -0.217714,-0.45962 -0.169334,-0.29029 -0.435429,-0.43543 v -3.41086 h 10.208378 q 1.93524,0 3.33829,1.47562 1.40305,1.47562 1.40305,3.38667 0,1.71752 -0.36286,2.709328 -0.48381,1.30629 -1.69333,1.93524 -0.14515,0.0726 -0.14515,0.29029 0,0.19352 0.12096,0.26609 1.04019,0.62895 1.35466,1.016 0.508,0.62895 0.508,1.76591 z m -5.73314,-6.628198 q 0,-0.89504 -0.14514,-1.37885 -0.24191,-0.79829 -0.87086,-0.79829 h -1.016 q -0.21771,0 -0.31448,0.19353 -0.0484,0.0968 -0.0484,0.21771 0,0.16933 0,0.2661 v 2.636758 q 0,0.19352 0,0.41124 0.0242,0.19352 0.0968,0.29028 0.12096,0.14514 0.33867,0.14514 h 1.06438 q 0.55638,0 0.72572,-0.58057 0.16933,-0.58057 0.16933,-1.403048 z"
         style="font-size:25.4px;line-height:1.25;font-family:AcmeFont;-inkscape-font-specification:AcmeFont;fill:#1a1a1a;stroke-width:0.264583"
         id="path10716" />
      <path
         d="m 67.554614,27.524184 q -2.95124,0 -4.69295,-0.65315 -1.45143,-0.55638 -2.66096,-1.69333 v -5.03162 h 5.97505 v 2.24972 q 0,0.43543 0.38705,0.72571 0.41124,0.2661 0.84667,0.2661 0.70152,0 0.99181,-0.45962 0.31447,-0.48381 0.31447,-1.40305 0,-1.71752 -2.24971,-2.39486 -3.96724,-1.18533 -4.23334,-1.33047 -2.2739,-1.30629 -2.2739,-4.571998 0,-3.50762 2.15295,-5.03162 1.74172,-1.23372 4.91067,-1.23372 2.90286,0 4.62038,0.62896 1.47562,0.53219 2.63676,1.62076 v 4.64457 h -5.63638 v -1.69333 q 0,-0.48381 -0.29029,-0.84667 -0.29028,-0.36286 -0.87085,-0.36286 -1.33048,0 -1.33048,1.74172 0,1.28209 2.24972,1.935228 3.36247,0.96762 4.18495,1.49981 2.2739,1.47562 2.2739,4.78972 0,6.604 -7.30552,6.604 z"
         style="font-size:25.4px;line-height:1.25;font-family:AcmeFont;-inkscape-font-specification:AcmeFont;fill:#1a1a1a;stroke-width:0.264583"
         id="path10718" />
      <path
         d="m 87.753624,22.468374 q 0,0.41124 0.26609,0.7499 0.29029,0.31448 0.65314,0.33867 v 3.21733 h -7.3539 v -3.21733 q 0.36286,-0.0242 0.62895,-0.33867 0.12095,-0.14514 0.16934,-0.2419 0.14514,-0.24191 0.14514,-0.508 V 12.235806 q 0,-0.29029 0,-0.43543 0,-0.24191 -0.0484,-0.33867 -0.0242,-0.0484 -0.21772,-0.0726 -0.0484,0 -0.21771,0 -0.19352,-0.0242 -0.43543,0.0968 -0.2419,0.12095 -0.31448,0.24191 -0.16933,0.31447 -0.16933,0.65314 0,0.21771 0,0.36286 v 3.362468 h -4.064 V 7.494476 h 16.40114 v 8.611808 h -4.064 v -3.289898 q 0,-0.2661 0,-0.36286 0,-0.33867 -0.16933,-0.65314 -0.0726,-0.12095 -0.31448,-0.24191 -0.2419,-0.12095 -0.43542,-0.0968 -0.12096,0 -0.16934,0 -0.21771,0 -0.2419,0.0726 -0.0484,0.0968 -0.0484,0.43543 0,0.21772 0,0.31448 z"
         style="font-size:25.4px;line-height:1.25;font-family:AcmeFont;-inkscape-font-specification:AcmeFont;fill:#1a1a1a;stroke-width:0.264583"
         id="path10720" />
      <path
         d="m 102.1711,26.774274 v -3.41085 q 0.29028,-0.0726 0.43542,-0.33867 0.16934,-0.2661 0.16934,-0.60476 V 11.824566 q 0,-0.55638 -0.2661,-0.91924 -0.14514,-0.21771 -0.45962,-0.36286 v -3.09638 h 8.66019 q 4.59619,0 6.02343,2.54 0.72572,1.2821 0.72572,4.378478 0,2.97543 -0.96762,4.64457 -1.25791,2.15295 -4.11238,2.15295 h -2.95124 q -0.33867,0 -0.41124,0.0726 -0.14514,0.14515 -0.14514,0.43543 v 0.91924 q 0,0.19352 0.12095,0.33867 0.12095,0.14514 0.31448,0.31447 0.29028,0.2661 0.55638,0.31448 v 3.24152 z m 9.11981,-12.26457 q 0,-0.16933 0,-0.38705 0,-0.217708 0.0242,-0.459618 0,-1.33047 -0.29029,-1.81428 -0.26609,-0.48381 -0.79829,-0.48381 h -1.016 q -0.21771,0 -0.31447,0.19352 -0.0484,0.0968 -0.0484,0.21772 0,0.16933 0,0.26609 v 4.378478 q 0,0.29028 0,0.43543 0,0.2419 0.0484,0.31447 0.0484,0.0726 0.16933,0.0968 0.0968,0 0.21772,0 h 1.06438 q 0.58057,0 0.77409,-0.48381 0.19353,-0.508 0.19353,-1.35467 0,-0.29029 -0.0242,-0.508 0,-0.24191 0,-0.41124 z"
         style="font-size:25.4px;line-height:1.25;font-family:AcmeFont;-inkscape-font-specification:AcmeFont;fill:#1a1a1a;stroke-width:0.264583"
         id="path10722" />
      <path
         d="m 126.4825,18.670464 q -0.21772,0 -0.29029,0.24191 -0.0484,0.0726 -0.0968,0.26609 -0.0242,0.16934 -0.0242,0.41124 v 2.27391 q 0,0.31447 0,0.45962 0,0.26609 0.0484,0.31447 0.0726,0.0968 0.48381,0.0968 h 0.58057 q 0.19352,0 0.45962,-0.12095 0.26609,-0.12095 0.45962,-0.38705 0.19352,-0.29028 0.26609,-0.48381 0.0968,-0.21771 0.0968,-0.55638 v -1.35466 h 5.66057 v 6.94266 h -14.80457 v -3.21733 q 0.21771,-0.0968 0.36285,-0.31448 0.16934,-0.2419 0.21772,-0.36285 0.0726,-0.19353 0.0726,-0.41124 V 11.824606 q 0,-0.2661 -0.0726,-0.43543 -0.0726,-0.16933 -0.2661,-0.43543 -0.16933,-0.29028 -0.48381,-0.48381 v -3.02381 l 14.97391,-0.0242 v 6.31372 h -5.80572 v -0.96762 q 0,-0.2661 -0.0968,-0.45962 -0.0484,-0.0968 -0.29029,-0.43543 -0.14514,-0.19352 -0.41123,-0.29029 -0.24191,-0.0968 -0.48381,-0.0968 h -0.45962 q -0.45962,0 -0.508,0.0726 -0.0484,0.14515 -0.0484,0.2661 0.0242,0.29028 0.0242,0.43543 v 1.83847 q 0,0.217718 0,0.338668 0,0.33867 0.0726,0.41124 0.0968,0.0968 0.36286,0.0968 h 3.62857 v 3.72533 z"
         style="font-size:25.4px;line-height:1.25;font-family:AcmeFont;-inkscape-font-specification:AcmeFont;fill:#1a1a1a;stroke-width:0.264583"
         id="path10724" />
      <path
         d="m 150.7697,20.291234 v 2.20133 q 0,0.41124 0.16933,0.70152 0.19353,0.2661 0.41124,0.36286 v 3.21733 h -6.604 v -5.56381 q 0,-0.38704 -0.12095,-0.70152 -0.0968,-0.33867 -0.38705,-0.62895 -0.14514,-0.14515 -0.2419,-0.21772 -0.19353,-0.14514 -0.48381,-0.14514 h -0.33867 q -0.48381,0 -0.508,0.0484 -0.0484,0.14514 -0.0484,0.33867 0.0242,0.41124 0.0242,0.62895 v 1.95943 q 0,0.41124 0.16933,0.70152 0.19353,0.2661 0.41124,0.36286 v 3.21733 h -7.16038 v -3.21733 q 0.21772,-0.0968 0.36286,-0.29029 0.14514,-0.21771 0.21771,-0.41123 0.0968,-0.19353 0.0968,-0.38705 V 12.332586 q 0,-0.41124 -0.0484,-0.58057 -0.0242,-0.19353 -0.21771,-0.45962 -0.16933,-0.29029 -0.43543,-0.43543 v -3.41086 h 10.20838 q 1.93524,0 3.33829,1.47562 1.40304,1.47562 1.40304,3.38667 0,1.71752 -0.36285,2.709328 -0.48381,1.30629 -1.69334,1.93524 -0.14514,0.0726 -0.14514,0.29029 0,0.19352 0.12095,0.26609 1.04019,0.62895 1.35467,1.016 0.508,0.62895 0.508,1.76591 z m -5.73314,-6.628198 q 0,-0.89504 -0.14515,-1.37885 -0.2419,-0.79829 -0.87085,-0.79829 h -1.016 q -0.21772,0 -0.31448,0.19353 -0.0484,0.0968 -0.0484,0.21771 0,0.16933 0,0.2661 v 2.636758 q 0,0.19352 0,0.41124 0.0242,0.19352 0.0968,0.29028 0.12095,0.14514 0.33867,0.14514 h 1.06438 q 0.55638,0 0.72571,-0.58057 0.16934,-0.58057 0.16934,-1.403048 z"
         style="font-size:25.4px;line-height:1.25;font-family:AcmeFont;-inkscape-font-specification:AcmeFont;fill:#1a1a1a;stroke-width:0.264583"
         id="path10726" />
      <path
         d="m 160.68779,27.524184 q -2.95124,0 -4.69296,-0.65315 -1.45143,-0.55638 -2.66095,-1.69333 v -5.03162 h 5.97505 v 2.24972 q 0,0.43543 0.38705,0.72571 0.41123,0.2661 0.84666,0.2661 0.70153,0 0.99181,-0.45962 0.31448,-0.48381 0.31448,-1.40305 0,-1.71752 -2.24972,-2.39486 -3.96723,-1.18533 -4.23333,-1.33047 -2.2739,-1.30629 -2.2739,-4.571998 0,-3.50762 2.15295,-5.03162 1.74171,-1.23372 4.91067,-1.23372 2.90285,0 4.62038,0.62896 1.47562,0.53219 2.63676,1.62076 v 4.64457 h -5.63638 v -1.69333 q 0,-0.48381 -0.29029,-0.84667 -0.29028,-0.36286 -0.87086,-0.36286 -1.33047,0 -1.33047,1.74172 0,1.28209 2.24971,1.935228 3.36248,0.96762 4.18495,1.49981 2.27391,1.47562 2.27391,4.78972 0,6.604 -7.30552,6.604 z"
         style="font-size:25.4px;line-height:1.25;font-family:AcmeFont;-inkscape-font-specification:AcmeFont;fill:#1a1a1a;stroke-width:0.264583"
         id="path10728" />
      <path
         d="m 177.3308,27.427424 q -3.58019,0 -5.44286,-1.59658 -1.95942,-1.66914 -1.95942,-5.10419 v -8.152188 q 0,-2.99962 2.2739,-4.49943 1.91105,-1.2579 5.00743,-1.2579 2.39486,0 4.3059,1.04019 2.83029,1.54819 2.83029,4.8381 v 8.031228 q 0,4.08819 -2.41905,5.66058 -1.59657,1.04019 -4.59619,1.04019 z m 0.94343,-15.215808 q 0,-0.508 -0.33867,-0.84667 -0.33866,-0.33867 -0.87085,-0.33867 -0.508,0 -0.82248,0.36286 -0.29029,0.33867 -0.29029,0.84667 v 9.845518 q 0,0.48381 0.33867,0.82248 0.36286,0.31447 0.87086,0.31447 0.43543,0 0.77409,-0.33866 0.33867,-0.33867 0.33867,-0.82248 z"
         style="font-size:25.4px;line-height:1.25;font-family:AcmeFont;-inkscape-font-specification:AcmeFont;fill:#1a1a1a;stroke-width:0.264583"
         id="path10730" />
      <path
         d="m 196.9976,15.332184 q 0.0242,0.0726 0.24191,0.0726 l 0.14514,-0.12095 v -3.459238 q 0,-0.19353 -0.0242,-0.29029 -0.0242,-0.12095 -0.2419,-0.45962 l -0.29029,-0.33866 v -3.21734 h 6.38629 v 3.21734 q -0.2661,0.0726 -0.48381,0.33866 -0.29029,0.36286 -0.29029,0.72572 l -0.0242,14.973898 h -6.24114 l -3.28991,-7.49904 -0.14514,-0.14515 -0.16933,0.12095 v 3.26572 q 0,0.48381 0.14514,0.72571 0.14514,0.21772 0.43543,0.33867 v 3.21733 l -6.14438,-0.0242 v -3.21733 q 0.26609,-0.0726 0.508,-0.38705 0.26609,-0.31447 0.26609,-0.67733 l -0.0242,-10.087428 q 0,-0.21771 -0.0242,-0.41124 0,-0.21771 -0.0726,-0.508 -0.19352,-0.62895 -0.74991,-1.016 v -2.97543 h 6.96686 z"
         style="font-size:25.4px;line-height:1.25;font-family:AcmeFont;-inkscape-font-specification:AcmeFont;fill:#1a1a1a;stroke-width:0.264583"
         id="path10732" />
    </g>
    <g
       id="g980"
       transform="translate(-5.29908,82.196629)">
      <path
         d="m 58.446814,59.055054 q -2.951237,0 -4.692951,-0.65314 -1.451429,-0.55638 -2.660953,-1.69333 v -5.03162 h 5.975048 v 2.24971 q 0,0.43543 0.387048,0.72572 0.411237,0.26609 0.846666,0.26609 0.701524,0 0.99181,-0.45962 0.314476,-0.48381 0.314476,-1.40304 0,-1.71753 -2.249714,-2.39486 -3.967238,-1.18533 -4.233334,-1.33048 -2.273904,-1.30628 -2.273904,-4.572 0,-3.50762 2.152952,-5.03162 1.741714,-1.23371 4.910667,-1.23371 2.902857,0 4.620381,0.62895 1.475619,0.53219 2.636761,1.62076 v 4.64458 h -5.63638 v -1.69334 q 0,-0.48381 -0.290286,-0.84666 -0.290286,-0.36286 -0.870857,-0.36286 -1.330477,0 -1.330477,1.74171 0,1.2821 2.249715,1.93524 3.362476,0.96762 4.184952,1.49981 2.273905,1.47562 2.273905,4.78971 0,6.604 -7.305525,6.604 z"
         style="font-size:25.4px;line-height:1.25;font-family:AcmeFont;-inkscape-font-specification:AcmeFont;fill:#aa0000;stroke-width:0.264583"
         id="path10734" />
      <path
         d="m 83.36296,58.305154 v -3.21733 q -0.21771,-0.0968 -0.38704,-0.31448 -0.14515,-0.2419 -0.193529,-0.36286 -0.0726,-0.19352 -0.0726,-0.41123 v -10.64381 q 0,-0.2661 0.0726,-0.43543 0.0726,-0.16934 0.24191,-0.43543 0.19352,-0.29029 0.508,-0.48381 v -2.97543 h -7.281337 v 2.97543 q 0.266096,0.14514 0.48381,0.508 0.241905,0.33867 0.241905,0.82248 v 1.95942 q 0,0.2661 0,0.41124 0,0.45962 -0.04838,0.62895 -0.02419,0.16934 -0.241905,0.19353 h -0.532191 -0.870857 -0.628952 q -0.145143,-0.0968 -0.193524,-0.2661 -0.02419,-0.19352 -0.02419,-0.94343 v -1.95942 q 0,-0.508 0.314476,-0.91924 0.217714,-0.31448 0.556381,-0.43543 v -2.97543 h -7.62 v 2.97543 q 0.314476,0.19352 0.459619,0.43543 0.169333,0.2419 0.266095,0.45962 0.09676,0.21771 0.09676,0.45962 v 10.64381 q 0,0.19352 -0.07257,0.38704 -0.07257,0.16934 -0.217715,0.38705 -0.145142,0.21771 -0.362857,0.31448 v 3.21733 h 7.281333 v -3.21733 q -0.241904,-0.12096 -0.387047,-0.31448 -0.145143,-0.19352 -0.241905,-0.36286 -0.07257,-0.19352 -0.07257,-0.41123 v -2.87867 q 0,-0.31448 0,-0.67733 0.02419,-0.36286 0.193523,-0.33867 h 0.604762 1.016 0.532191 q 0.169333,0 0.217714,0.19352 0.07257,0.19353 0.07257,0.53219 0,0.21772 0,0.29029 v 2.87867 q 0,0.21771 -0.07257,0.38704 -0.07257,0.14515 -0.241905,0.36286 -0.145143,0.21771 -0.387047,0.33867 v 3.21733 z"
         style="font-size:25.4px;line-height:1.25;font-family:AcmeFont;-inkscape-font-specification:AcmeFont;fill:#aa0000;stroke-width:0.264583"
         id="path10736" />
      <path
         d="m 92.627901,58.958294 q -3.58019,0 -5.44286,-1.59657 -1.95943,-1.66914 -1.95943,-5.10419 v -8.15219 q 0,-2.99962 2.27391,-4.49943 1.91104,-1.2579 5.00742,-1.2579 2.39486,0 4.30591,1.04019 2.83028,1.54819 2.83028,4.83809 v 8.03124 q 0,4.08819 -2.41904,5.66057 -1.59657,1.04019 -4.59619,1.04019 z m 0.94343,-15.21581 q 0,-0.508 -0.33867,-0.84666 -0.33867,-0.33867 -0.87086,-0.33867 -0.508,0 -0.82247,0.36286 -0.29029,0.33866 -0.29029,0.84666 v 9.84553 q 0,0.48381 0.33867,0.82247 0.36285,0.31448 0.87085,0.31448 0.43543,0 0.7741,-0.33867 0.33867,-0.33866 0.33867,-0.82247 z"
         style="font-size:25.4px;line-height:1.25;font-family:AcmeFont;-inkscape-font-specification:AcmeFont;fill:#aa0000;stroke-width:0.264583"
         id="path10738" />
      <path
         d="m 109.60957,58.958294 q -3.58019,0 -5.44286,-1.59657 -1.95943,-1.66914 -1.95943,-5.10419 v -8.15219 q 0,-2.99962 2.2739,-4.49943 1.91106,-1.2579 5.00744,-1.2579 2.39487,0 4.30593,1.04019 2.8303,1.54819 2.8303,4.83809 v 8.03124 q 0,4.08819 -2.41906,5.66057 -1.59658,1.04019 -4.59622,1.04019 z m 0.94343,-15.21581 q 0,-0.508 -0.33866,-0.84666 -0.33867,-0.33867 -0.87086,-0.33867 -0.508,0 -0.82248,0.36286 -0.29028,0.33866 -0.29028,0.84666 v 9.84553 q 0,0.48381 0.33866,0.82247 0.36286,0.31448 0.87086,0.31448 0.43543,0 0.7741,-0.33867 0.33866,-0.33866 0.33866,-0.82247 z"
         style="font-size:25.4px;line-height:1.25;font-family:AcmeFont;-inkscape-font-specification:AcmeFont;fill:#aa0000;stroke-width:0.264583"
         id="path10740" />
      <path
         d="m 130.14736,53.999254 q 0,0.41123 0.2661,0.7499 0.29028,0.31448 0.65314,0.33867 v 3.21733 h -7.35394 v -3.21733 q 0.36285,-0.0242 0.62895,-0.33867 0.12095,-0.14514 0.16934,-0.2419 0.14515,-0.24191 0.14515,-0.508 v -10.23258 q 0,-0.29028 0,-0.43542 0,-0.24191 -0.0484,-0.33867 -0.0242,-0.0484 -0.21772,-0.0726 -0.0484,0 -0.21771,0 -0.19353,-0.0242 -0.43543,0.0968 -0.24191,0.12095 -0.31448,0.2419 -0.16933,0.31448 -0.16933,0.65315 0,0.21771 0,0.36285 v 3.36248 H 119.189 v -8.61181 h 16.40124 v 8.61181 h -4.06403 v -3.2899 q 0,-0.2661 0,-0.36286 0,-0.33867 -0.16933,-0.65314 -0.0726,-0.12096 -0.31448,-0.24191 -0.2419,-0.12095 -0.43543,-0.0968 -0.12095,0 -0.16933,0 -0.21771,0 -0.24191,0.0726 -0.0484,0.0968 -0.0484,0.43543 0,0.21771 0,0.31448 z"
         style="font-size:25.4px;line-height:1.25;font-family:AcmeFont;-inkscape-font-specification:AcmeFont;fill:#aa0000;stroke-width:0.264583"
         id="path10742" />
      <path
         d="m 144.87937,50.201344 q -0.21771,0 -0.29028,0.24191 -0.0484,0.0726 -0.0968,0.26609 -0.0242,0.16933 -0.0242,0.41124 v 2.2739 q 0,0.31448 0,0.45962 0,0.2661 0.0484,0.31448 0.0726,0.0968 0.4838,0.0968 h 0.58058 q 0.19352,0 0.45962,-0.12095 0.26609,-0.12095 0.45961,-0.38705 0.19353,-0.29029 0.2661,-0.48381 0.0968,-0.21771 0.0968,-0.55638 v -1.35467 h 5.66057 v 6.94267 H 137.719 v -3.21733 q 0.21772,-0.0968 0.36286,-0.31448 0.16933,-0.2419 0.21771,-0.36286 0.0726,-0.19352 0.0726,-0.41123 v -10.64381 q 0,-0.2661 -0.0726,-0.43543 -0.0726,-0.16934 -0.26609,-0.43543 -0.16934,-0.29029 -0.48381,-0.48381 v -3.02381 l 14.9739,-0.0242 v 6.31371 h -5.80571 v -0.96762 q 0,-0.26609 -0.0968,-0.45961 -0.0484,-0.0968 -0.29029,-0.43543 -0.14514,-0.19353 -0.41124,-0.29029 -0.2419,-0.0968 -0.48381,-0.0968 h -0.45962 q -0.45961,0 -0.508,0.0726 -0.0484,0.14514 -0.0484,0.2661 0.0242,0.29028 0.0242,0.43542 v 1.83848 q 0,0.21772 0,0.33867 0,0.33866 0.0726,0.41124 0.0968,0.0968 0.36285,0.0968 h 3.62857 v 3.72533 z"
         style="font-size:25.4px;line-height:1.25;font-family:AcmeFont;-inkscape-font-specification:AcmeFont;fill:#aa0000;stroke-width:0.264583"
         id="path10744" />
      <path
         d="m 169.16658,51.822104 v 2.20134 q 0,0.41123 0.16933,0.70152 0.19352,0.26609 0.41124,0.36286 v 3.21733 h -6.604 v -5.56381 q 0,-0.38705 -0.12095,-0.70152 -0.0968,-0.33867 -0.38705,-0.62896 -0.14515,-0.14514 -0.24191,-0.21771 -0.19352,-0.14514 -0.48381,-0.14514 h -0.33866 q -0.48381,0 -0.508,0.0484 -0.0484,0.14514 -0.0484,0.33866 0.0242,0.41124 0.0242,0.62896 v 1.95943 q 0,0.41123 0.16933,0.70152 0.19352,0.26609 0.41124,0.36286 v 3.21733 h -7.16038 v -3.21733 q 0.21771,-0.0968 0.36285,-0.29029 0.14515,-0.21771 0.21772,-0.41124 0.0968,-0.19352 0.0968,-0.38704 v -10.13581 q 0,-0.41124 -0.0484,-0.58058 -0.0242,-0.19352 -0.21772,-0.45961 -0.16933,-0.29029 -0.43542,-0.43543 v -3.41086 h 10.20838 q 1.93524,0 3.33828,1.47562 1.40305,1.47562 1.40305,3.38667 0,1.71752 -0.36286,2.70933 -0.48381,1.30628 -1.69333,1.93524 -0.14514,0.0726 -0.14514,0.29028 0,0.19353 0.12095,0.2661 1.04019,0.62895 1.35467,1.016 0.508,0.62895 0.508,1.7659 z m -5.73315,-6.62819 q 0,-0.89505 -0.14514,-1.37885 -0.2419,-0.79829 -0.87086,-0.79829 h -1.016 q -0.21771,0 -0.31447,0.19352 -0.0484,0.0968 -0.0484,0.21772 0,0.16933 0,0.26609 v 2.63676 q 0,0.19353 0,0.41124 0.0242,0.19353 0.0968,0.29029 0.12095,0.14514 0.33866,0.14514 h 1.06439 q 0.55638,0 0.72571,-0.58057 0.16933,-0.58057 0.16933,-1.40305 z"
         style="font-size:25.4px;line-height:1.25;font-family:AcmeFont;-inkscape-font-specification:AcmeFont;fill:#aa0000;stroke-width:0.264583"
         id="path10746" />
    </g>
  </g>
</svg>
