<?xml version="1.0" encoding="UTF-8" standalone="no"?>
<!-- Created with Inkscape (http://www.inkscape.org/) -->

<svg
   width="131.43599mm"
   height="24.62277mm"
   viewBox="0 0 131.43599 24.622771"
   version="1.1"
   id="svg20090"
   inkscape:version="1.1 (c68e22c387, 2021-05-23)"
   sodipodi:docname="auto-actionplatformshooter.svg"
   xmlns:inkscape="http://www.inkscape.org/namespaces/inkscape"
   xmlns:sodipodi="http://sodipodi.sourceforge.net/DTD/sodipodi-0.dtd"
   xmlns="http://www.w3.org/2000/svg"
   xmlns:svg="http://www.w3.org/2000/svg">
  <sodipodi:namedview
     id="namedview20092"
     pagecolor="#ffffff"
     bordercolor="#666666"
     borderopacity="1.0"
     inkscape:pageshadow="2"
     inkscape:pageopacity="0.0"
     inkscape:pagecheckerboard="0"
     inkscape:document-units="mm"
     showgrid="false"
     fit-margin-top="0"
     fit-margin-left="0"
     fit-margin-right="0"
     fit-margin-bottom="0"
     inkscape:zoom="1.3416246"
     inkscape:cx="221.00072"
     inkscape:cy="20.87022"
     inkscape:window-width="1920"
     inkscape:window-height="1138"
     inkscape:window-x="-8"
     inkscape:window-y="-8"
     inkscape:window-maximized="1"
     inkscape:current-layer="layer1" />
  <defs
     id="defs20087" />
  <g
     inkscape:label="Calque 1"
     inkscape:groupmode="layer"
     id="layer1"
     transform="translate(-58.749569,-106.62499)">
    <g
       id="g4494">
      <g
         id="g26344"
         inkscape:export-filename="C:\Users\BUCH\Pictures\g26344.png"
         inkscape:export-xdpi="198.84763"
         inkscape:export-ydpi="198.84763"
         style="stroke:#ffffff;stroke-width:3.7;stroke-linecap:round;stroke-linejoin:round;stroke-miterlimit:4;stroke-dasharray:none;paint-order:stroke markers fill">
        <path
           style="color:#000000;-inkscape-font-specification:Impact;fill:#000000;stroke:#ffffff;stroke-width:3.7;stroke-linecap:round;stroke-linejoin:round;stroke-miterlimit:4;stroke-dasharray:none;paint-order:stroke markers fill"
           d="m 60.599569,108.89667 h 4.519211 q 4.519213,0 6.111554,0.28525 1.607504,0.28525 2.608405,1.46348 1.016064,1.16583 1.016064,3.73311 0,2.34404 -0.712762,3.1502 -0.712762,0.80615 -2.805552,0.96738 1.895644,0.38448 2.547745,1.0294 0.652101,0.64492 0.803753,1.19062 0.166816,0.53331 0.166816,2.96416 v 5.29581 h -5.929571 v -6.67246 q 0,-1.6123 -0.318468,-1.99678 -0.303303,-0.38447 -1.622671,-0.38447 v 9.05371 h -6.384524 z m 6.384524,3.43545 v 4.46485 q 1.076725,0 1.501349,-0.23565 0.43979,-0.24804 0.43979,-1.5751 v -1.10381 q 0,-0.95497 -0.424624,-1.25264 -0.409459,-0.29765 -1.516515,-0.29765 z"
           id="path26216" />
        <path
           style="color:#000000;-inkscape-font-specification:Impact;fill:#000000;stroke:#ffffff;stroke-width:3.7;stroke-linecap:round;stroke-linejoin:round;stroke-miterlimit:4;stroke-dasharray:none;paint-order:stroke markers fill"
           d="m 91.839764,108.89667 v 13.41935 q 0,2.28204 -0.181982,3.21221 -0.181982,0.91778 -1.076725,1.89756 -0.894744,0.96739 -2.365762,1.47588 -1.455854,0.49609 -3.442488,0.49609 -2.198945,0 -3.882277,-0.59531 -1.68333,-0.59531 -2.517414,-1.55029 -0.834082,-0.95499 -0.985734,-2.00919 -0.151652,-1.0666 -0.151652,-4.46484 v -11.88146 h 6.384526 v 15.05646 q 0,1.31465 0.166817,1.68672 0.181981,0.35967 0.712762,0.35967 0.606605,0 0.773422,-0.39688 0.181981,-0.40927 0.181981,-1.90996 v -14.79601 z"
           id="path26218" />
        <path
           style="color:#000000;-inkscape-font-specification:Impact;fill:#000000;stroke:#ffffff;stroke-width:3.7;stroke-linecap:round;stroke-linejoin:round;stroke-miterlimit:4;stroke-dasharray:none;paint-order:stroke markers fill"
           d="m 108.56692,108.89667 v 20.07941 h -5.59594 l -3.321168,-9.12813 v 9.12813 H 94.31168 v -20.07941 h 5.338132 l 3.578968,9.04132 v -9.04132 z"
           id="path26220" />
        <path
           style="color:#000000;-inkscape-font-specification:Impact;fill:#000000;stroke:#ffffff;stroke-width:3.7;stroke-linecap:round;stroke-linejoin:round;stroke-miterlimit:4;stroke-dasharray:none;paint-order:stroke markers fill"
           d="m 132.80082,119.76011 v 3.87663 l -1.72883,1.02241 2.15345,3.83404 h -5.6566 l -0.74309,-1.27802 q -2.85105,1.76082 -5.39879,1.76082 -2.66907,0 -4.10976,-1.66141 -1.44068,-1.66142 -1.44068,-4.00445 0,-1.87441 0.84924,-2.93943 0.84925,-1.065 2.54775,-1.73241 -2.42642,-1.63301 -2.42642,-4.41624 0,-2.39983 1.72882,-3.86245 1.72883,-1.46261 4.76186,-1.46261 2.72972,0 4.29173,1.43422 1.57717,1.4342 1.57717,3.64943 0,2.32882 -1.9108,4.13224 l 2.16862,3.66364 z m -9.44789,-4.03284 q 1.03123,-1.26383 1.03123,-2.41403 0,-0.497 -0.3033,-0.90882 -0.3033,-0.4118 -0.84925,-0.4118 -0.50045,0 -0.75826,0.31241 -0.2578,0.3124 -0.2578,0.9514 0,1.33482 1.13738,2.47084 z m 1.38003,8.88929 -1.98663,-3.09564 q -1.13739,0.96561 -1.13739,2.08743 0,0.80939 0.3488,1.22121 0.36396,0.39759 1.06156,0.39759 0.74309,0 1.71366,-0.61059 z"
           id="path26222" />
        <path
           style="color:#000000;-inkscape-font-specification:Impact;fill:#000000;stroke:#ffffff;stroke-width:3.7;stroke-linecap:round;stroke-linejoin:round;stroke-miterlimit:4;stroke-dasharray:none;paint-order:stroke markers fill"
           d="m 154.62346,116.28847 h -6.38453 v -1.82314 q 0,-1.72393 -0.18198,-2.15801 -0.18198,-0.43408 -0.86441,-0.43408 -0.59144,0 -0.80375,0.37207 -0.21232,0.37207 -0.21232,1.90996 v 9.63663 q 0,1.35186 0.21232,1.78594 0.21231,0.42168 0.84924,0.42168 0.69761,0 0.94024,-0.48369 0.25781,-0.48369 0.25781,-1.88516 v -2.38125 h -1.28904 v -3.05098 h 7.47642 v 10.77764 h -4.01877 l -0.59144,-1.43867 q -0.6521,0.93018 -1.65299,1.40147 -0.98574,0.45888 -2.33543,0.45888 -1.60752,0 -3.01787,-0.63251 -1.39519,-0.64493 -2.12312,-1.58751 -0.72793,-0.94258 -0.90991,-1.97197 -0.18198,-1.0418 -0.18198,-3.11299 v -5.96554 q 0,-2.87735 0.37913,-4.1796 0.37912,-1.30224 2.16862,-2.38124 1.80465,-1.09141 4.6557,-1.09141 2.80554,0 4.65569,0.94258 1.85014,0.94258 2.41125,2.24482 0.56112,1.28985 0.56112,3.75791 z"
           id="path26224" />
        <path
           style="color:#000000;-inkscape-font-specification:Impact;fill:#000000;stroke:#ffffff;stroke-width:3.7;stroke-linecap:round;stroke-linejoin:round;stroke-miterlimit:4;stroke-dasharray:none;paint-order:stroke markers fill"
           d="m 171.60842,108.89667 v 13.41935 q 0,2.28204 -0.18198,3.21221 -0.18198,0.91778 -1.07673,1.89756 -0.89475,0.96739 -2.36576,1.47588 -1.45586,0.49609 -3.44249,0.49609 -2.19895,0 -3.88227,-0.59531 -1.68334,-0.59531 -2.51742,-1.55029 -0.83409,-0.95499 -0.98574,-2.00919 -0.15164,-1.0666 -0.15164,-4.46484 v -11.88146 h 6.38452 v 15.05646 q 0,1.31465 0.16682,1.68672 0.18198,0.35967 0.71275,0.35967 0.60662,0 0.77343,-0.39688 0.18198,-0.40927 0.18198,-1.90996 v -14.79601 z"
           id="path26226" />
        <path
           style="color:#000000;-inkscape-font-specification:Impact;fill:#000000;stroke:#ffffff;stroke-width:3.7;stroke-linecap:round;stroke-linejoin:round;stroke-miterlimit:4;stroke-dasharray:none;paint-order:stroke markers fill"
           d="m 188.33556,108.89667 v 20.07941 h -5.59593 l -3.32117,-9.12813 v 9.12813 h -5.33813 v -20.07941 h 5.33813 l 3.57898,9.04132 v -9.04132 z"
           id="path26228" />
      </g>
      <g
         id="g4476"
         transform="translate(-1.7749,47.725099)">
        <path
           style="color:#000000;-inkscape-font-specification:Impact;fill:#1a1a1a;stroke-width:0.292572;-inkscape-stroke:none"
           d="m 62.374464,61.171571 h 4.519211 q 4.519213,0 6.111554,0.28525 1.607504,0.28525 2.608405,1.46348 1.016064,1.16583 1.016064,3.73311 0,2.34404 -0.712762,3.1502 -0.712762,0.80615 -2.805552,0.96738 1.895644,0.38448 2.547745,1.0294 0.652101,0.64492 0.803753,1.19062 0.166816,0.53331 0.166816,2.96416 v 5.29581 h -5.929571 v -6.67246 q 0,-1.6123 -0.318468,-1.99678 -0.303303,-0.38447 -1.622671,-0.38447 v 9.05371 h -6.384524 z m 6.384524,3.43545 v 4.46485 q 1.076725,0 1.501349,-0.23565 0.43979,-0.24804 0.43979,-1.5751 v -1.10381 q 0,-0.95497 -0.424624,-1.25264 -0.409459,-0.29765 -1.516515,-0.29765 z"
           id="path1088" />
        <path
           style="color:#000000;-inkscape-font-specification:Impact;fill:#1a1a1a;stroke-width:0.292572;-inkscape-stroke:none"
           d="m 93.614659,61.171571 v 13.41935 q 0,2.28204 -0.181982,3.21221 -0.181982,0.91778 -1.076725,1.89756 -0.894744,0.96739 -2.365762,1.47588 -1.455854,0.49609 -3.442488,0.49609 -2.198945,0 -3.882277,-0.59531 -1.68333,-0.59531 -2.517414,-1.55029 -0.834082,-0.95499 -0.985734,-2.00919 -0.151652,-1.0666 -0.151652,-4.46484 v -11.88146 h 6.384526 v 15.05646 q 0,1.31465 0.166817,1.68672 0.181981,0.35967 0.712762,0.35967 0.606605,0 0.773422,-0.39688 0.181981,-0.40927 0.181981,-1.90996 v -14.79601 z"
           id="path1090" />
        <path
           style="color:#000000;-inkscape-font-specification:Impact;fill:#1a1a1a;stroke-width:0.292572;-inkscape-stroke:none"
           d="m 110.34182,61.171571 v 20.07941 h -5.59594 l -3.32117,-9.12813 v 9.12813 h -5.338135 v -20.07941 h 5.338135 l 3.57897,9.04132 v -9.04132 z"
           id="path1092" />
        <path
           style="color:#000000;-inkscape-font-specification:Impact;fill:#445500;fill-opacity:1;stroke-width:0.31306;-inkscape-stroke:none"
           d="m 134.57572,72.035011 v 3.87663 l -1.72883,1.02241 2.15345,3.83404 h -5.6566 l -0.74309,-1.27802 q -2.85105,1.76082 -5.39879,1.76082 -2.66907,0 -4.10976,-1.66141 -1.44068,-1.66142 -1.44068,-4.00445 0,-1.87441 0.84924,-2.93943 0.84925,-1.065 2.54775,-1.73241 -2.42642,-1.63301 -2.42642,-4.41624 0,-2.39983 1.72882,-3.86245 1.72883,-1.46261 4.76186,-1.46261 2.72972,0 4.29173,1.43422 1.57717,1.4342 1.57717,3.64943 0,2.32882 -1.9108,4.13224 l 2.16862,3.66364 z m -9.44789,-4.03284 q 1.03123,-1.26383 1.03123,-2.41403 0,-0.497 -0.3033,-0.90882 -0.3033,-0.4118 -0.84925,-0.4118 -0.50045,0 -0.75826,0.31241 -0.2578,0.3124 -0.2578,0.9514 0,1.33482 1.13738,2.47084 z m 1.38003,8.88929 -1.98663,-3.09564 q -1.13739,0.96561 -1.13739,2.08743 0,0.80939 0.3488,1.22121 0.36396,0.39759 1.06156,0.39759 0.74309,0 1.71366,-0.61059 z"
           id="path1094" />
        <path
           style="color:#000000;-inkscape-font-specification:Impact;fill:#1a1a1a;stroke-width:0.292572;-inkscape-stroke:none"
           d="m 156.39836,68.563371 h -6.38453 v -1.82314 q 0,-1.72393 -0.18198,-2.15801 -0.18198,-0.43408 -0.86441,-0.43408 -0.59144,0 -0.80375,0.37207 -0.21232,0.37207 -0.21232,1.90996 v 9.63663 q 0,1.35186 0.21232,1.78594 0.21231,0.42168 0.84924,0.42168 0.69761,0 0.94024,-0.48369 0.25781,-0.48369 0.25781,-1.88516 v -2.38125 h -1.28904 v -3.05098 h 7.47642 v 10.77764 h -4.01877 l -0.59144,-1.43867 q -0.6521,0.93018 -1.65299,1.40147 -0.98574,0.45888 -2.33543,0.45888 -1.60752,0 -3.01787,-0.63251 -1.39519,-0.64493 -2.12312,-1.58751 -0.72793,-0.94258 -0.90991,-1.97197 -0.18198,-1.0418 -0.18198,-3.11299 v -5.96554 q 0,-2.87735 0.37913,-4.1796 0.37912,-1.30224 2.16862,-2.38124 1.80465,-1.09141 4.6557,-1.09141 2.80554,0 4.65569,0.94258 1.85014,0.94258 2.41125,2.24482 0.56112,1.28985 0.56112,3.75791 z"
           id="path1096" />
        <path
           style="color:#000000;-inkscape-font-specification:Impact;fill:#1a1a1a;stroke-width:0.292572;-inkscape-stroke:none"
           d="m 173.38332,61.171571 v 13.41935 q 0,2.28204 -0.18198,3.21221 -0.18198,0.91778 -1.07673,1.89756 -0.89475,0.96739 -2.36576,1.47588 -1.45586,0.49609 -3.44249,0.49609 -2.19895,0 -3.88227,-0.59531 -1.68334,-0.59531 -2.51742,-1.55029 -0.83409,-0.95499 -0.98574,-2.00919 -0.15164,-1.0666 -0.15164,-4.46484 v -11.88146 h 6.38452 v 15.05646 q 0,1.31465 0.16682,1.68672 0.18198,0.35967 0.71275,0.35967 0.60662,0 0.77343,-0.39688 0.18198,-0.40927 0.18198,-1.90996 v -14.79601 z"
           id="path1098" />
        <path
           style="color:#000000;-inkscape-font-specification:Impact;fill:#1a1a1a;stroke-width:0.292572;-inkscape-stroke:none"
           d="m 190.11046,61.171571 v 20.07941 h -5.59593 l -3.32117,-9.12813 v 9.12813 h -5.33813 v -20.07941 h 5.33813 l 3.57898,9.04132 v -9.04132 z"
           id="path1100" />
      </g>
    </g>
  </g>
</svg>
