<?xml version="1.0" encoding="UTF-8" standalone="no"?>
<!-- Created with Inkscape (http://www.inkscape.org/) -->

<svg
   width="193.74469mm"
   height="27.653372mm"
   viewBox="0 0 193.74469 27.653372"
   version="1.1"
   id="svg6695"
   inkscape:version="1.1 (c68e22c387, 2021-05-23)"
   sodipodi:docname="auto-casual.svg"
   xmlns:inkscape="http://www.inkscape.org/namespaces/inkscape"
   xmlns:sodipodi="http://sodipodi.sourceforge.net/DTD/sodipodi-0.dtd"
   xmlns="http://www.w3.org/2000/svg"
   xmlns:svg="http://www.w3.org/2000/svg">
  <sodipodi:namedview
     id="namedview6697"
     pagecolor="#ffffff"
     bordercolor="#666666"
     borderopacity="1.0"
     inkscape:pageshadow="2"
     inkscape:pageopacity="0.0"
     inkscape:pagecheckerboard="0"
     inkscape:document-units="mm"
     showgrid="false"
     fit-margin-top="0"
     fit-margin-left="0"
     fit-margin-right="0"
     fit-margin-bottom="0"
     inkscape:zoom="0.94867184"
     inkscape:cx="454.84643"
     inkscape:cy="100.14"
     inkscape:window-width="1920"
     inkscape:window-height="1138"
     inkscape:window-x="-8"
     inkscape:window-y="-8"
     inkscape:window-maximized="1"
     inkscape:current-layer="layer1" />
  <defs
     id="defs6692" />
  <g
     inkscape:label="Calque 1"
     inkscape:groupmode="layer"
     id="layer1"
     transform="translate(-9.4618106,-109.50801)">
    <rect
       style="fill:#ffffff;fill-opacity:1;fill-rule:evenodd;stroke:none;stroke-width:3.53524;stroke-linecap:round;stroke-linejoin:round;stroke-miterlimit:4;stroke-dasharray:none;paint-order:stroke markers fill"
       id="rect10331"
       width="13.410358"
       height="10.846614"
       x="38.514542"
       y="120.99232" />
    <rect
       style="fill:#ffffff;fill-opacity:1;fill-rule:evenodd;stroke:none;stroke-width:5.30146;stroke-linecap:round;stroke-linejoin:round;stroke-miterlimit:4;stroke-dasharray:none;paint-order:stroke markers fill"
       id="rect10457"
       width="24.39201"
       height="13.410358"
       x="47.738609"
       y="113.53577" />
    <rect
       style="fill:#ffffff;fill-opacity:1;fill-rule:evenodd;stroke:none;stroke-width:4.27775;stroke-linecap:round;stroke-linejoin:round;stroke-miterlimit:4;stroke-dasharray:none;paint-order:stroke markers fill"
       id="rect10459"
       width="14.593625"
       height="14.593626"
       x="116.83126"
       y="115.17152" />
    <rect
       style="fill:#ffffff;fill-opacity:1;fill-rule:evenodd;stroke:none;stroke-width:4.53042;stroke-linecap:round;stroke-linejoin:round;stroke-miterlimit:4;stroke-dasharray:none;paint-order:stroke markers fill"
       id="rect10461"
       width="14.593625"
       height="16.368526"
       x="184.03468"
       y="115.17152" />
    <g
       aria-label="CASUAL GAMES"
       transform="scale(0.91129513,1.0973393)"
       id="text7638"
       style="font-size:29.5264px;line-height:1.25;font-family:'Rose Of Baltimore';-inkscape-font-specification:'Rose Of Baltimore';fill:#aa4400;stroke:#ffffff;stroke-width:4;stroke-linecap:round;stroke-linejoin:round;stroke-miterlimit:4;stroke-dasharray:none;paint-order:stroke markers fill;fill-opacity:1">
      <path
         d="m 27.352702,117.62027 q 0,1.0039 -2.480218,2.18496 -2.273533,1.122 -3.543168,1.122 -3.484115,0.0295 -6.171017,-2.36211 -2.775482,-2.48022 -2.775482,-5.90528 0,-4.54707 4.163222,-7.3816 3.425063,-2.27353 8.296919,-2.74596 0.501949,0.0886 1.358214,1.80111 0.885792,1.71253 0.885792,2.62785 -4.192749,0 -8.916973,5.43286 1.240109,2.65738 3.838432,3.80891 1.15153,0.53147 5.344279,1.41726 z"
         style="font-family:CasualMarkerMF;-inkscape-font-specification:'CasualMarkerMF, Normal';stroke:#ffffff;stroke-width:4;stroke-linecap:round;stroke-linejoin:round;stroke-miterlimit:4;stroke-dasharray:none;paint-order:stroke markers fill;fill:#aa4400;fill-opacity:1"
         id="path10091" />
      <path
         d="m 47.637322,116.73448 h 0.02953 q 0.08858,0.29527 0.08858,0.59053 0,0.88579 -0.974371,1.62395 -0.08858,0.0886 -1.771584,1.06295 -0.265738,0.14763 -1.417267,0.50195 -0.944845,0.29526 -1.328688,0.70863 l -1.06295,-2.56879 -4.133696,0.0295 q -0.679108,-1.122 -0.797213,-3.48411 -0.05905,-1.0039 0.561001,-1.15153 0.531476,-0.14763 1.594426,-0.11811 1.092477,0.0295 1.564899,-0.1181 -0.649581,-1.97827 -0.885792,-2.5688 -0.649581,-1.62395 -1.240109,-2.03732 -1.594425,2.1259 -2.421164,5.69859 -0.295264,1.24011 -1.003898,6.11197 -3.36601,-1.21058 -4.960435,-3.80891 0,-1.65347 1.06295,-4.3699 0.620055,-1.5649 2.21448,-4.84233 1.47632,-3.04122 1.88969,-4.2518 0.265737,-0.79722 0.383843,-0.94485 0.295264,-0.47242 0.915318,-0.4429 0.531476,0.0295 1.5649,-0.059 1.181056,-0.0886 1.683004,-0.0886 2.244007,0 3.070746,1.4468 3.247904,5.75764 5.373805,13.08019 z"
         style="font-family:CasualMarkerMF;-inkscape-font-specification:'CasualMarkerMF, Normal';stroke:#ffffff;stroke-width:4;stroke-linecap:round;stroke-linejoin:round;stroke-miterlimit:4;stroke-dasharray:none;paint-order:stroke markers fill;fill:#aa4400;fill-opacity:1"
         id="path10093" />
      <path
         d="m 60.747003,116.82306 h 0.02953 q 0,1.29916 -1.181056,2.80501 -1.06295,1.29916 -2.332586,2.00779 -1.299161,0.17716 -2.598323,0.17716 -2.745955,0 -4.635645,-0.82674 0.265738,-0.41337 1.358215,-1.09247 1.240109,-0.76769 1.712531,-1.32869 0.856266,-0.94485 0.856266,-2.21448 0,-0.97437 -1.15153,-2.09638 -1.033424,-1.03342 -2.096374,-2.09637 -1.15153,-1.38774 -1.15153,-2.95264 0,-1.86016 1.564899,-3.86796 1.299162,-1.683 3.129799,-2.80501 3.366009,0.38385 5.846227,1.62396 -3.454589,2.71642 -3.484115,4.75375 -0.02953,1.26963 2.037321,3.83843 2.096375,2.53927 2.096375,4.07464 z"
         style="font-family:CasualMarkerMF;-inkscape-font-specification:'CasualMarkerMF, Normal';stroke:#ffffff;stroke-width:4;stroke-linecap:round;stroke-linejoin:round;stroke-miterlimit:4;stroke-dasharray:none;paint-order:stroke markers fill;fill:#aa4400;fill-opacity:1"
         id="path10095" />
      <path
         d="m 80.854423,114.10663 q 0,0.4429 0.02953,1.38774 0.05905,0.94485 0.05905,1.41727 0,1.97827 -0.620054,3.10027 -0.177159,0.29527 -2.450691,0.64958 -1.948743,0.29527 -2.598324,0.29527 -0.561001,0 -0.826739,-0.59053 -0.32479,-0.73816 -0.561001,-0.88579 -1.092477,0.23621 -3.661274,0.23621 -4.369907,0 -6.052912,-2.15543 -1.47632,-1.86016 -1.47632,-6.23007 0,-4.42896 1.387741,-8.59218 1.299162,-0.53148 3.27743,-0.53148 1.88969,0 2.982167,0.53148 -1.181056,4.60612 -1.003898,10.5114 0.826739,0.561 2.273533,0.85626 0.177158,0.0295 2.450691,0.38385 0,-0.76769 -0.501949,-4.60612 -0.501949,-3.95654 -0.767686,-5.1376 0.442896,-0.38384 2.598323,-0.88579 2.184954,-0.50195 3.543168,-0.50195 1.919216,4.78328 1.919215,10.74761 z"
         style="font-family:CasualMarkerMF;-inkscape-font-specification:'CasualMarkerMF, Normal';stroke:#ffffff;stroke-width:4;stroke-linecap:round;stroke-linejoin:round;stroke-miterlimit:4;stroke-dasharray:none;paint-order:stroke markers fill;fill:#aa4400;fill-opacity:1"
         id="path10097" />
      <path
         d="m 101.37524,116.73448 h 0.0295 q 0.0886,0.29527 0.0886,0.59053 0,0.88579 -0.97437,1.62395 -0.0886,0.0886 -1.771585,1.06295 -0.265738,0.14763 -1.417267,0.50195 -0.944845,0.29526 -1.328688,0.70863 l -1.062951,-2.56879 -4.133696,0.0295 q -0.679107,-1.122 -0.797213,-3.48411 -0.05905,-1.0039 0.561002,-1.15153 0.531475,-0.14763 1.594426,-0.11811 1.092476,0.0295 1.564899,-0.1181 -0.649581,-1.97827 -0.885792,-2.5688 -0.649581,-1.62395 -1.240109,-2.03732 -1.594426,2.1259 -2.421165,5.69859 -0.295264,1.24011 -1.003897,6.11197 -3.36601,-1.21058 -4.960435,-3.80891 0,-1.65347 1.06295,-4.3699 0.620054,-1.5649 2.21448,-4.84233 1.47632,-3.04122 1.889689,-4.2518 0.265738,-0.79722 0.383844,-0.94485 0.295264,-0.47242 0.915318,-0.4429 0.531475,0.0295 1.564899,-0.059 1.181056,-0.0886 1.683005,-0.0886 2.244006,0 3.070746,1.4468 3.247904,5.75764 5.3738,13.08019 z"
         style="font-family:CasualMarkerMF;-inkscape-font-specification:'CasualMarkerMF, Normal';stroke:#ffffff;stroke-width:4;stroke-linecap:round;stroke-linejoin:round;stroke-miterlimit:4;stroke-dasharray:none;paint-order:stroke markers fill;fill:#aa4400;fill-opacity:1"
         id="path10099" />
      <path
         d="m 114.95735,115.9668 q 0.0295,2.06684 -1.47632,5.07854 -1.47632,0.32479 -3.04122,0.32479 -3.66128,0 -6.43676,-1.59443 -0.64958,-2.98217 -0.64958,-7.29302 0,-2.98217 1.12201,-10.12756 0,-0.561 1.88969,-0.561 2.33258,0 3.95653,0.64958 -0.53147,3.27743 -0.53147,8.53313 0,2.48022 0.1181,4.87186 1.0039,0.35432 2.45069,0.35432 1.18106,0 2.59833,-0.23621 z"
         style="font-family:CasualMarkerMF;-inkscape-font-specification:'CasualMarkerMF, Normal';stroke:#ffffff;stroke-width:4;stroke-linecap:round;stroke-linejoin:round;stroke-miterlimit:4;stroke-dasharray:none;paint-order:stroke markers fill;fill:#aa4400;fill-opacity:1"
         id="path10101" />
      <path
         d="m 144.42462,122.75787 q -0.41337,-0.14764 -0.97437,-0.14764 -0.561,0 -1.74206,0.17716 -1.15152,0.20669 -1.683,0.20669 -1.91922,0.0295 -2.27353,-1.77159 -4.2518,0 -7.85402,-2.30305 -4.07465,-2.62785 -4.07465,-6.61392 0,-4.75375 3.92701,-7.64734 3.54317,-2.59832 8.3855,-2.59832 1.74206,0 3.36601,0.35432 0.50195,0.85626 1.03342,2.18495 0.41337,1.03343 0.82674,2.09638 -3.18885,0 -6.20054,1.29916 -1.65348,0.73816 -5.63954,3.15932 0.70863,2.92312 3.01169,4.07465 0.88579,0.26573 2.6869,0.62005 0.11811,-0.82674 0.11811,-2.45069 0,-1.62395 0.0886,-2.39164 1.15153,-0.53148 3.04122,-0.59053 1.62395,-0.0295 3.27743,-0.0295 0.0295,0.26573 0.44289,5.3738 0.26574,3.21838 0.26574,5.40333 0,0.82674 -0.0295,1.59443 z"
         style="font-family:CasualMarkerMF;-inkscape-font-specification:'CasualMarkerMF, Normal';stroke:#ffffff;stroke-width:4;stroke-linecap:round;stroke-linejoin:round;stroke-miterlimit:4;stroke-dasharray:none;paint-order:stroke markers fill;fill:#aa4400;fill-opacity:1"
         id="path10103" />
      <path
         d="m 164.85689,116.73448 h 0.0295 q 0.0886,0.29527 0.0886,0.59053 0,0.88579 -0.97437,1.62395 -0.0886,0.0886 -1.77158,1.06295 -0.26574,0.14763 -1.41727,0.50195 -0.94484,0.29526 -1.32869,0.70863 l -1.06295,-2.56879 -4.13369,0.0295 q -0.67911,-1.122 -0.79722,-3.48411 -0.059,-1.0039 0.56101,-1.15153 0.53147,-0.14763 1.59442,-0.11811 1.09248,0.0295 1.5649,-0.1181 -0.64958,-1.97827 -0.88579,-2.5688 -0.64958,-1.62395 -1.24011,-2.03732 -1.59443,2.1259 -2.42117,5.69859 -0.29526,1.24011 -1.00389,6.11197 -3.36601,-1.21058 -4.96044,-3.80891 0,-1.65347 1.06295,-4.3699 0.62006,-1.5649 2.21448,-4.84233 1.47632,-3.04122 1.88969,-4.2518 0.26574,-0.79722 0.38385,-0.94485 0.29526,-0.47242 0.91531,-0.4429 0.53148,0.0295 1.5649,-0.059 1.18106,-0.0886 1.68301,-0.0886 2.244,0 3.07074,1.4468 3.24791,5.75764 5.37381,13.08019 z"
         style="font-family:CasualMarkerMF;-inkscape-font-specification:'CasualMarkerMF, Normal';stroke:#ffffff;stroke-width:4;stroke-linecap:round;stroke-linejoin:round;stroke-miterlimit:4;stroke-dasharray:none;paint-order:stroke markers fill;fill:#aa4400;fill-opacity:1"
         id="path10105" />
      <path
         d="m 190.01334,120.86818 q -1.24011,0.35431 -2.95264,0.35431 -1.59443,0 -2.80501,-0.32479 0.20669,-4.54706 -0.73816,-8.41502 -0.0886,-0.35432 -0.50195,-0.35432 -0.32479,0 -0.44289,0.26574 -0.32479,0.73816 -1.65348,3.07075 -1.122,1.97827 -1.53537,3.15932 -0.14764,0.47242 -0.38385,0.47242 -0.20668,0 -0.50195,-0.44289 -0.20668,-0.32479 -0.41337,-0.62006 -0.20668,-0.29526 -1.88969,-3.15932 -1.18105,-2.0078 -2.36211,-2.95264 -0.32479,0.14763 -0.32479,3.45459 0,2.71643 0.14763,5.58049 -2.83453,0.23621 -2.98216,0.23621 -2.18496,0 -3.24791,-1.18106 -0.1181,-1.15153 -0.1181,-2.36211 0,-6.2596 2.86406,-14.3203 0.38384,-0.41337 1.18106,-0.47243 0.6791,0 1.35821,0 1.74206,-0.059 2.92311,0.20669 1.12201,0.76768 2.03732,1.97827 1.03343,1.32869 1.29917,2.62785 0.059,0.1181 0.17715,0.1181 0.14764,0 0.17716,0.0886 0.561,-0.59053 1.62396,-2.21448 0.97437,-1.50584 1.683,-2.18495 1.32869,0 2.65738,0 1.44679,0.0295 2.62785,0.29526 0.29526,0.23621 0.38384,0.82674 0.0886,0.561 0.14763,1.09248 1.62395,6.23007 1.62395,12.7554 0,1.24011 -0.0591,2.42117 z"
         style="font-family:CasualMarkerMF;-inkscape-font-specification:'CasualMarkerMF, Normal';stroke:#ffffff;stroke-width:4;stroke-linecap:round;stroke-linejoin:round;stroke-miterlimit:4;stroke-dasharray:none;paint-order:stroke markers fill;fill:#aa4400;fill-opacity:1"
         id="path10107" />
      <path
         d="m 208.34921,115.642 q -0.14763,3.48412 -2.45069,5.04902 -1.94875,0.35432 -5.46239,0.35432 -1.09247,0 -2.83453,0.23621 -1.71253,0.26573 -1.91922,0.26573 -2.244,0 -2.48022,-1.15153 -1.15152,-5.75764 -1.15152,-12.40108 0,-2.98217 0.29526,-5.31475 1.21058,-0.4429 2.65738,-0.4429 1.53537,0 3.66127,0.53147 3.21838,-0.17715 4.10417,-0.17715 2.80501,0 4.51754,0.62005 0.561,1.06295 0.561,3.07075 0,0.88579 -0.11811,1.86016 -2.50974,-0.79721 -5.34427,-0.79721 -2.15543,0 -4.0156,0.47242 0.0295,0.26574 -0.0295,2.03732 -0.0591,2.1259 -0.0591,3.2479 0,2.77549 0.29526,2.95264 1.06295,0.0295 2.1259,0.0886 1.83064,0.0591 3.1298,0.0591 3.95654,0 4.51754,-0.56101 z m -1.91922,-5.58048 q 0.0295,0.32479 0.0295,0.70863 0,1.5649 -0.64958,3.21838 -0.97437,0.1181 -2.0078,0.1181 -1.97827,0 -3.6908,-0.41337 -0.38384,-0.6791 -0.38384,-1.86016 0,-0.14763 0.14763,-2.0078 1.24011,0.17716 3.18885,0.20669 1.68301,0 3.36601,0.0295 z"
         style="font-family:CasualMarkerMF;-inkscape-font-specification:'CasualMarkerMF, Normal';stroke:#ffffff;stroke-width:4;stroke-linecap:round;stroke-linejoin:round;stroke-miterlimit:4;stroke-dasharray:none;paint-order:stroke markers fill;fill:#aa4400;fill-opacity:1"
         id="path10109" />
      <path
         d="m 220.95699,116.82306 h 0.0295 q 0,1.29916 -1.18105,2.80501 -1.06295,1.29916 -2.33259,2.00779 -1.29916,0.17716 -2.59832,0.17716 -2.74596,0 -4.63565,-0.82674 0.26574,-0.41337 1.35822,-1.09247 1.24011,-0.76769 1.71253,-1.32869 0.85626,-0.94485 0.85626,-2.21448 0,-0.97437 -1.15153,-2.09638 -1.03342,-1.03342 -2.09637,-2.09637 -1.15153,-1.38774 -1.15153,-2.95264 0,-1.86016 1.5649,-3.86796 1.29916,-1.683 3.1298,-2.80501 3.36601,0.38385 5.84623,1.62396 -3.45459,2.71642 -3.48412,4.75375 -0.0295,1.26963 2.03732,3.83843 2.09638,2.53927 2.09638,4.07464 z"
         style="font-family:CasualMarkerMF;-inkscape-font-specification:'CasualMarkerMF, Normal';stroke:#ffffff;stroke-width:4;stroke-linecap:round;stroke-linejoin:round;stroke-miterlimit:4;stroke-dasharray:none;paint-order:stroke markers fill;fill:#aa4400;fill-opacity:1"
         id="path10111" />
    </g>
    <g
       aria-label="CASUAL GAMES"
       transform="scale(0.91129513,1.0973393)"
       id="g10235"
       style="font-size:29.5264px;line-height:1.25;font-family:'Rose Of Baltimore';-inkscape-font-specification:'Rose Of Baltimore';fill:#aa4400;fill-opacity:1;stroke-width:0.307568">
      <path
         d="m 27.352702,117.62027 q 0,1.0039 -2.480218,2.18496 -2.273533,1.122 -3.543168,1.122 -3.484115,0.0295 -6.171017,-2.36211 -2.775482,-2.48022 -2.775482,-5.90528 0,-4.54707 4.163222,-7.3816 3.425063,-2.27353 8.296919,-2.74596 0.501949,0.0886 1.358214,1.80111 0.885792,1.71253 0.885792,2.62785 -4.192749,0 -8.916973,5.43286 1.240109,2.65738 3.838432,3.80891 1.15153,0.53147 5.344279,1.41726 z"
         style="font-family:CasualMarkerMF;-inkscape-font-specification:'CasualMarkerMF, Normal';fill:#aa4400;fill-opacity:1"
         id="path10213" />
      <path
         d="m 47.637322,116.73448 h 0.02953 q 0.08858,0.29527 0.08858,0.59053 0,0.88579 -0.974371,1.62395 -0.08858,0.0886 -1.771584,1.06295 -0.265738,0.14763 -1.417267,0.50195 -0.944845,0.29526 -1.328688,0.70863 l -1.06295,-2.56879 -4.133696,0.0295 q -0.679108,-1.122 -0.797213,-3.48411 -0.05905,-1.0039 0.561001,-1.15153 0.531476,-0.14763 1.594426,-0.11811 1.092477,0.0295 1.564899,-0.1181 -0.649581,-1.97827 -0.885792,-2.5688 -0.649581,-1.62395 -1.240109,-2.03732 -1.594425,2.1259 -2.421164,5.69859 -0.295264,1.24011 -1.003898,6.11197 -3.36601,-1.21058 -4.960435,-3.80891 0,-1.65347 1.06295,-4.3699 0.620055,-1.5649 2.21448,-4.84233 1.47632,-3.04122 1.88969,-4.2518 0.265737,-0.79722 0.383843,-0.94485 0.295264,-0.47242 0.915318,-0.4429 0.531476,0.0295 1.5649,-0.059 1.181056,-0.0886 1.683004,-0.0886 2.244007,0 3.070746,1.4468 3.247904,5.75764 5.373805,13.08019 z"
         style="font-family:CasualMarkerMF;-inkscape-font-specification:'CasualMarkerMF, Normal';fill:#aa4400;fill-opacity:1"
         id="path10215" />
      <path
         d="m 60.747003,116.82306 h 0.02953 q 0,1.29916 -1.181056,2.80501 -1.06295,1.29916 -2.332586,2.00779 -1.299161,0.17716 -2.598323,0.17716 -2.745955,0 -4.635645,-0.82674 0.265738,-0.41337 1.358215,-1.09247 1.240109,-0.76769 1.712531,-1.32869 0.856266,-0.94485 0.856266,-2.21448 0,-0.97437 -1.15153,-2.09638 -1.033424,-1.03342 -2.096374,-2.09637 -1.15153,-1.38774 -1.15153,-2.95264 0,-1.86016 1.564899,-3.86796 1.299162,-1.683 3.129799,-2.80501 3.366009,0.38385 5.846227,1.62396 -3.454589,2.71642 -3.484115,4.75375 -0.02953,1.26963 2.037321,3.83843 2.096375,2.53927 2.096375,4.07464 z"
         style="font-family:CasualMarkerMF;-inkscape-font-specification:'CasualMarkerMF, Normal';fill:#aa4400;fill-opacity:1"
         id="path10217" />
      <path
         d="m 80.854423,114.10663 q 0,0.4429 0.02953,1.38774 0.05905,0.94485 0.05905,1.41727 0,1.97827 -0.620054,3.10027 -0.177159,0.29527 -2.450691,0.64958 -1.948743,0.29527 -2.598324,0.29527 -0.561001,0 -0.826739,-0.59053 -0.32479,-0.73816 -0.561001,-0.88579 -1.092477,0.23621 -3.661274,0.23621 -4.369907,0 -6.052912,-2.15543 -1.47632,-1.86016 -1.47632,-6.23007 0,-4.42896 1.387741,-8.59218 1.299162,-0.53148 3.27743,-0.53148 1.88969,0 2.982167,0.53148 -1.181056,4.60612 -1.003898,10.5114 0.826739,0.561 2.273533,0.85626 0.177158,0.0295 2.450691,0.38385 0,-0.76769 -0.501949,-4.60612 -0.501949,-3.95654 -0.767686,-5.1376 0.442896,-0.38384 2.598323,-0.88579 2.184954,-0.50195 3.543168,-0.50195 1.919216,4.78328 1.919215,10.74761 z"
         style="font-family:CasualMarkerMF;-inkscape-font-specification:'CasualMarkerMF, Normal';fill:#aa4400;fill-opacity:1"
         id="path10219" />
      <path
         d="m 101.37524,116.73448 h 0.0295 q 0.0886,0.29527 0.0886,0.59053 0,0.88579 -0.97437,1.62395 -0.0886,0.0886 -1.771585,1.06295 -0.265738,0.14763 -1.417267,0.50195 -0.944845,0.29526 -1.328688,0.70863 l -1.062951,-2.56879 -4.133696,0.0295 q -0.679107,-1.122 -0.797213,-3.48411 -0.05905,-1.0039 0.561002,-1.15153 0.531475,-0.14763 1.594426,-0.11811 1.092476,0.0295 1.564899,-0.1181 -0.649581,-1.97827 -0.885792,-2.5688 -0.649581,-1.62395 -1.240109,-2.03732 -1.594426,2.1259 -2.421165,5.69859 -0.295264,1.24011 -1.003897,6.11197 -3.36601,-1.21058 -4.960435,-3.80891 0,-1.65347 1.06295,-4.3699 0.620054,-1.5649 2.21448,-4.84233 1.47632,-3.04122 1.889689,-4.2518 0.265738,-0.79722 0.383844,-0.94485 0.295264,-0.47242 0.915318,-0.4429 0.531475,0.0295 1.564899,-0.059 1.181056,-0.0886 1.683005,-0.0886 2.244006,0 3.070746,1.4468 3.247904,5.75764 5.3738,13.08019 z"
         style="font-family:CasualMarkerMF;-inkscape-font-specification:'CasualMarkerMF, Normal';fill:#aa4400;fill-opacity:1"
         id="path10221" />
      <path
         d="m 114.95735,115.9668 q 0.0295,2.06684 -1.47632,5.07854 -1.47632,0.32479 -3.04122,0.32479 -3.66128,0 -6.43676,-1.59443 -0.64958,-2.98217 -0.64958,-7.29302 0,-2.98217 1.12201,-10.12756 0,-0.561 1.88969,-0.561 2.33258,0 3.95653,0.64958 -0.53147,3.27743 -0.53147,8.53313 0,2.48022 0.1181,4.87186 1.0039,0.35432 2.45069,0.35432 1.18106,0 2.59833,-0.23621 z"
         style="font-family:CasualMarkerMF;-inkscape-font-specification:'CasualMarkerMF, Normal';fill:#aa4400;fill-opacity:1"
         id="path10223" />
      <path
         d="m 144.42462,122.75787 q -0.41337,-0.14764 -0.97437,-0.14764 -0.561,0 -1.74206,0.17716 -1.15152,0.20669 -1.683,0.20669 -1.91922,0.0295 -2.27353,-1.77159 -4.2518,0 -7.85402,-2.30305 -4.07465,-2.62785 -4.07465,-6.61392 0,-4.75375 3.92701,-7.64734 3.54317,-2.59832 8.3855,-2.59832 1.74206,0 3.36601,0.35432 0.50195,0.85626 1.03342,2.18495 0.41337,1.03343 0.82674,2.09638 -3.18885,0 -6.20054,1.29916 -1.65348,0.73816 -5.63954,3.15932 0.70863,2.92312 3.01169,4.07465 0.88579,0.26573 2.6869,0.62005 0.11811,-0.82674 0.11811,-2.45069 0,-1.62395 0.0886,-2.39164 1.15153,-0.53148 3.04122,-0.59053 1.62395,-0.0295 3.27743,-0.0295 0.0295,0.26573 0.44289,5.3738 0.26574,3.21838 0.26574,5.40333 0,0.82674 -0.0295,1.59443 z"
         style="font-family:CasualMarkerMF;-inkscape-font-specification:'CasualMarkerMF, Normal';fill:#aa4400;fill-opacity:1"
         id="path10225" />
      <path
         d="m 164.85689,116.73448 h 0.0295 q 0.0886,0.29527 0.0886,0.59053 0,0.88579 -0.97437,1.62395 -0.0886,0.0886 -1.77158,1.06295 -0.26574,0.14763 -1.41727,0.50195 -0.94484,0.29526 -1.32869,0.70863 l -1.06295,-2.56879 -4.13369,0.0295 q -0.67911,-1.122 -0.79722,-3.48411 -0.059,-1.0039 0.56101,-1.15153 0.53147,-0.14763 1.59442,-0.11811 1.09248,0.0295 1.5649,-0.1181 -0.64958,-1.97827 -0.88579,-2.5688 -0.64958,-1.62395 -1.24011,-2.03732 -1.59443,2.1259 -2.42117,5.69859 -0.29526,1.24011 -1.00389,6.11197 -3.36601,-1.21058 -4.96044,-3.80891 0,-1.65347 1.06295,-4.3699 0.62006,-1.5649 2.21448,-4.84233 1.47632,-3.04122 1.88969,-4.2518 0.26574,-0.79722 0.38385,-0.94485 0.29526,-0.47242 0.91531,-0.4429 0.53148,0.0295 1.5649,-0.059 1.18106,-0.0886 1.68301,-0.0886 2.244,0 3.07074,1.4468 3.24791,5.75764 5.37381,13.08019 z"
         style="font-family:CasualMarkerMF;-inkscape-font-specification:'CasualMarkerMF, Normal';fill:#aa4400;fill-opacity:1"
         id="path10227" />
      <path
         d="m 190.01334,120.86818 q -1.24011,0.35431 -2.95264,0.35431 -1.59443,0 -2.80501,-0.32479 0.20669,-4.54706 -0.73816,-8.41502 -0.0886,-0.35432 -0.50195,-0.35432 -0.32479,0 -0.44289,0.26574 -0.32479,0.73816 -1.65348,3.07075 -1.122,1.97827 -1.53537,3.15932 -0.14764,0.47242 -0.38385,0.47242 -0.20668,0 -0.50195,-0.44289 -0.20668,-0.32479 -0.41337,-0.62006 -0.20668,-0.29526 -1.88969,-3.15932 -1.18105,-2.0078 -2.36211,-2.95264 -0.32479,0.14763 -0.32479,3.45459 0,2.71643 0.14763,5.58049 -2.83453,0.23621 -2.98216,0.23621 -2.18496,0 -3.24791,-1.18106 -0.1181,-1.15153 -0.1181,-2.36211 0,-6.2596 2.86406,-14.3203 0.38384,-0.41337 1.18106,-0.47243 0.6791,0 1.35821,0 1.74206,-0.059 2.92311,0.20669 1.12201,0.76768 2.03732,1.97827 1.03343,1.32869 1.29917,2.62785 0.059,0.1181 0.17715,0.1181 0.14764,0 0.17716,0.0886 0.561,-0.59053 1.62396,-2.21448 0.97437,-1.50584 1.683,-2.18495 1.32869,0 2.65738,0 1.44679,0.0295 2.62785,0.29526 0.29526,0.23621 0.38384,0.82674 0.0886,0.561 0.14763,1.09248 1.62395,6.23007 1.62395,12.7554 0,1.24011 -0.0591,2.42117 z"
         style="font-family:CasualMarkerMF;-inkscape-font-specification:'CasualMarkerMF, Normal';fill:#aa4400;fill-opacity:1"
         id="path10229" />
      <path
         d="m 208.34921,115.642 q -0.14763,3.48412 -2.45069,5.04902 -1.94875,0.35432 -5.46239,0.35432 -1.09247,0 -2.83453,0.23621 -1.71253,0.26573 -1.91922,0.26573 -2.244,0 -2.48022,-1.15153 -1.15152,-5.75764 -1.15152,-12.40108 0,-2.98217 0.29526,-5.31475 1.21058,-0.4429 2.65738,-0.4429 1.53537,0 3.66127,0.53147 3.21838,-0.17715 4.10417,-0.17715 2.80501,0 4.51754,0.62005 0.561,1.06295 0.561,3.07075 0,0.88579 -0.11811,1.86016 -2.50974,-0.79721 -5.34427,-0.79721 -2.15543,0 -4.0156,0.47242 0.0295,0.26574 -0.0295,2.03732 -0.0591,2.1259 -0.0591,3.2479 0,2.77549 0.29526,2.95264 1.06295,0.0295 2.1259,0.0886 1.83064,0.0591 3.1298,0.0591 3.95654,0 4.51754,-0.56101 z m -1.91922,-5.58048 q 0.0295,0.32479 0.0295,0.70863 0,1.5649 -0.64958,3.21838 -0.97437,0.1181 -2.0078,0.1181 -1.97827,0 -3.6908,-0.41337 -0.38384,-0.6791 -0.38384,-1.86016 0,-0.14763 0.14763,-2.0078 1.24011,0.17716 3.18885,0.20669 1.68301,0 3.36601,0.0295 z"
         style="font-family:CasualMarkerMF;-inkscape-font-specification:'CasualMarkerMF, Normal';fill:#aa4400;fill-opacity:1"
         id="path10231" />
      <path
         d="m 220.95699,116.82306 h 0.0295 q 0,1.29916 -1.18105,2.80501 -1.06295,1.29916 -2.33259,2.00779 -1.29916,0.17716 -2.59832,0.17716 -2.74596,0 -4.63565,-0.82674 0.26574,-0.41337 1.35822,-1.09247 1.24011,-0.76769 1.71253,-1.32869 0.85626,-0.94485 0.85626,-2.21448 0,-0.97437 -1.15153,-2.09638 -1.03342,-1.03342 -2.09637,-2.09637 -1.15153,-1.38774 -1.15153,-2.95264 0,-1.86016 1.5649,-3.86796 1.29916,-1.683 3.1298,-2.80501 3.36601,0.38385 5.84623,1.62396 -3.45459,2.71642 -3.48412,4.75375 -0.0295,1.26963 2.03732,3.83843 2.09638,2.53927 2.09638,4.07464 z"
         style="font-family:CasualMarkerMF;-inkscape-font-specification:'CasualMarkerMF, Normal';fill:#aa4400;fill-opacity:1"
         id="path10233" />
    </g>
  </g>
</svg>
