<?xml version="1.0" encoding="UTF-8" standalone="no"?>
<!-- Created with Inkscape (http://www.inkscape.org/) -->

<svg
   width="140.93417mm"
   height="25.213179mm"
   viewBox="0 0 140.93417 25.213178"
   version="1.1"
   id="svg5"
   inkscape:version="1.1 (c68e22c387, 2021-05-23)"
   sodipodi:docname="auto-adventureinteractivemovie.svg"
   xmlns:inkscape="http://www.inkscape.org/namespaces/inkscape"
   xmlns:sodipodi="http://sodipodi.sourceforge.net/DTD/sodipodi-0.dtd"
   xmlns="http://www.w3.org/2000/svg"
   xmlns:svg="http://www.w3.org/2000/svg">
  <sodipodi:namedview
     id="namedview7"
     pagecolor="#ffffff"
     bordercolor="#666666"
     borderopacity="1.0"
     inkscape:pageshadow="2"
     inkscape:pageopacity="0.0"
     inkscape:pagecheckerboard="0"
     inkscape:document-units="mm"
     showgrid="false"
     fit-margin-top="0"
     fit-margin-left="0"
     fit-margin-right="0"
     fit-margin-bottom="0"
     inkscape:zoom="1.3416246"
     inkscape:cx="247.0885"
     inkscape:cy="26.087775"
     inkscape:window-width="1920"
     inkscape:window-height="1138"
     inkscape:window-x="-8"
     inkscape:window-y="-8"
     inkscape:window-maximized="1"
     inkscape:current-layer="layer1" />
  <defs
     id="defs2" />
  <g
     inkscape:label="Calque 1"
     inkscape:groupmode="layer"
     id="layer1"
     transform="translate(-38.677922,-154.64455)">
    <rect
       style="fill:#ffffff;fill-rule:evenodd;stroke:none;stroke-width:3.82625;stroke-linecap:round;stroke-linejoin:round;stroke-miterlimit:4;stroke-dasharray:none;paint-order:stroke markers fill"
       id="rect4172"
       width="57.98008"
       height="6.3107572"
       x="57.683384"
       y="166.24048" />
    <rect
       style="fill:#ffffff;fill-rule:evenodd;stroke:none;stroke-width:2.7528;stroke-linecap:round;stroke-linejoin:round;stroke-miterlimit:4;stroke-dasharray:none;paint-order:stroke markers fill"
       id="rect4298"
       width="30.011032"
       height="6.3107572"
       x="147.03575"
       y="166.24048" />
    <rect
       style="fill:#ffffff;fill-rule:evenodd;stroke:none;stroke-width:5.04524;stroke-linecap:round;stroke-linejoin:round;stroke-miterlimit:4;stroke-dasharray:none;paint-order:stroke markers fill"
       id="rect4322"
       width="7.0609937"
       height="7.6912351"
       x="47.906273"
       y="160.66356" />
    <g
       aria-label="Interactive Movie"
       id="text1349"
       style="font-size:25.4px;line-height:1.25;font-family:'Rose Of Baltimore';-inkscape-font-specification:'Rose Of Baltimore';fill:#1a1a1a;stroke:#ffffff;stroke-width:3.5;stroke-linecap:round;stroke-linejoin:round;stroke-miterlimit:4;stroke-dasharray:none;paint-order:stroke markers fill">
      <path
         d="m 60.486315,157.2777 q 1.314648,-0.12403 1.327051,0.11162 0.0124,0.23564 -1.041797,0.79375 -1.054199,0.5457 -2.641699,3.27422 -2.455664,4.41523 -3.187403,6.83369 l 0.930176,-0.26045 q 0.63252,-0.0992 1.810742,-0.73174 0.359668,0.062 0.111621,0.39688 -0.446484,0.85576 -3.274218,1.78593 -2.579688,4.58887 -4.17959,6.61045 -1.612305,1.72393 -4.725293,1.72393 -3.224609,0 -4.17959,-1.37666 -0.95498,-0.99219 -1.00459,-2.70371 -0.08682,-2.31924 1.773535,-3.05098 0.496094,-0.0992 0.558106,-0.0992 h 0.248047 q 1.649511,0.19844 1.674316,0.96739 v 0.24804 q -0.136426,0.95498 -1.128613,1.25264 -0.992188,0.29766 -1.054199,1.88516 0.111621,2.09599 2.691308,1.98437 2.59209,-0.0992 4.241602,-2.6665 1.661914,-2.55489 2.356445,-4.93614 h -0.04961 q -3.162598,-0.24804 -4.402832,-1.33945 -1.240235,-1.10381 -0.979785,-3.22461 0.272851,-2.1208 2.827734,-4.11758 1.513086,-1.37666 3.956347,-2.08359 4.477246,-1.27744 7.342188,-1.27744 z m -11.472168,8.75605 0.0124,0.24805 q 0.0124,1.66191 2.666504,2.02158 l 0.434082,0.062 q 1.103809,-2.76572 2.840137,-6.11435 l 2.38125,-3.59668 q -0.04961,0 -0.04961,-0.0496 -6.139161,0.97978 -8.123535,6.25078 -0.173633,0.78135 -0.161231,1.17822 z"
         style="font-family:Paramountain;-inkscape-font-specification:'Paramountain, Normal';stroke:#ffffff;stroke-width:3.5;stroke-linecap:round;stroke-linejoin:round;stroke-miterlimit:4;stroke-dasharray:none;paint-order:stroke markers fill"
         id="path3912" />
      <path
         d="m 64.529479,166.09576 q 0.508497,0.13643 0.47129,0.70694 -0.02481,0.5581 -0.582911,1.83554 l -1.16582,2.74092 q -0.198437,0.55811 -0.198437,0.81856 0,0.26045 0.458886,0.22324 0.458887,-0.0496 2.095996,-1.86035 v 1.0666 q -0.0248,0.27285 -1.364257,1.37666 -1.339454,1.10381 -2.43086,1.10381 -1.091406,0 -0.967383,-1.12862 0.124024,-1.14101 1.562696,-4.32841 0.347265,-0.76895 0.396875,-1.14102 0.06201,-0.38447 -0.248047,-0.34726 -0.905371,0.12402 -4.241602,6.64765 H 56.38114 l 3.596679,-7.63984 h 1.624707 q -0.285253,0.78135 -0.409277,1.20303 1.066602,-1.15342 1.947168,-1.28985 0.892969,-0.13642 1.389062,0.0124 z"
         style="font-family:Paramountain;-inkscape-font-specification:'Paramountain, Normal';stroke:#ffffff;stroke-width:3.5;stroke-linecap:round;stroke-linejoin:round;stroke-miterlimit:4;stroke-dasharray:none;paint-order:stroke markers fill"
         id="path3914" />
      <path
         d="m 68.597448,162.88356 h 1.897559 l -1.289844,3.13779 h 1.302246 l -0.173633,0.48369 h -1.413867 l -1.996777,4.32842 q -0.235645,0.5581 -0.334863,1.11621 -0.09922,0.55811 0.347265,0.55811 0.905371,0 2.38125,-2.02159 v 0.83096 q -0.359668,0.74414 -1.227832,1.5875 -0.855761,0.84336 -1.847949,0.84336 -1.116211,0.0496 -1.314648,-1.09141 -0.272852,-1.57509 1.984375,-6.16396 h -0.917774 v -0.43408 h 1.16582 z"
         style="font-family:Paramountain;-inkscape-font-specification:'Paramountain, Normal';stroke:#ffffff;stroke-width:3.5;stroke-linecap:round;stroke-linejoin:round;stroke-miterlimit:4;stroke-dasharray:none;paint-order:stroke markers fill"
         id="path3916" />
      <path
         d="m 74.736608,165.61207 q 1.389063,0.0992 1.438672,1.19063 -0.198437,0.93017 -0.917773,1.68672 -0.719336,0.75654 -1.674317,1.14101 -0.942578,0.37207 -2.294433,0.69453 -0.272852,0.84336 -0.21084,1.5627 0.06201,0.71933 0.322461,0.86816 0.272852,0.14883 0.880566,0.0868 0.620118,-0.062 2.033985,-1.27744 l 0.0248,0.62011 q -1.488281,1.66192 -3.175,1.66192 -1.054199,0 -1.599902,-0.59531 -0.533301,-0.59532 -0.483691,-1.64952 0.04961,-1.0666 0.545703,-2.22001 0.496094,-1.16582 1.475879,-2.0836 0.992187,-0.91777 1.984375,-1.28984 0.992187,-0.37207 1.649511,-0.39688 z m -3.175,3.99356 q 1.550293,-0.0372 2.877344,-2.02158 0.446485,-0.62012 0.446485,-1.14102 0,-0.29766 -0.297657,-0.39688 -1.364257,0.0744 -3.026172,3.55948 z"
         style="font-family:Paramountain;-inkscape-font-specification:'Paramountain, Normal';stroke:#ffffff;stroke-width:3.5;stroke-linecap:round;stroke-linejoin:round;stroke-miterlimit:4;stroke-dasharray:none;paint-order:stroke markers fill"
         id="path3918" />
      <path
         d="m 81.148621,165.86012 q 0.446484,0.12402 0.446484,0.44648 0,0.14883 -0.669727,1.5875 -0.198437,0.4961 0.124024,0.54571 0.198437,-0.0496 0.347265,-0.14883 h 0.148829 q 0.07441,0 0.148828,0.14883 v 0.0992 q -0.03721,0.5457 -0.669727,0.96738 -0.620117,0.42168 -1.364258,0.17363 -0.731738,-0.24805 -0.731738,-1.52549 -0.669727,0.23565 -1.500684,2.43086 l -1.314648,3.26182 h -2.033984 l 3.299023,-7.63984 h 1.699121 l -0.334863,1.19062 q 1.066601,-0.96738 1.5875,-1.25264 0.533301,-0.28525 0.818555,-0.28525 z"
         style="font-family:Paramountain;-inkscape-font-specification:'Paramountain, Normal';stroke:#ffffff;stroke-width:3.5;stroke-linecap:round;stroke-linejoin:round;stroke-miterlimit:4;stroke-dasharray:none;paint-order:stroke markers fill"
         id="path3920" />
      <path
         d="m 87.659849,165.83532 q 1.302247,0.0744 1.302247,0.47128 -0.248047,0.73174 -1.897559,4.51446 l -0.384473,0.94258 q -0.09922,0.28525 0.03721,0.49609 0.136426,0.19844 0.508496,0.11162 0.384473,-0.0992 1.488282,-1.20303 l 0.04961,0.54571 q 0,0.27285 -1.21543,1.17822 -1.203027,0.90537 -1.95957,0.90537 -1.141016,0 -1.153418,-1.46348 -1.674316,1.51309 -2.96416,1.51309 h -0.198437 q -0.533301,0 -0.830958,-0.35967 -0.310058,-0.37207 -0.310058,-0.88057 0,-2.158 2.480469,-4.65087 1.265039,-1.14102 2.282031,-1.5503 1.463476,-0.64492 2.765722,-0.5705 z m -5.196582,6.22597 q 0,0.45889 0.347266,0.4961 1.612305,0 3.423047,-4.01836 0.79375,-1.67432 0.79375,-2.13321 0.0124,-0.0868 -0.148828,-0.0496 -1.475879,0.29766 -2.827735,2.13321 -1.53789,2.24482 -1.5875,3.57187 z"
         style="font-family:Paramountain;-inkscape-font-specification:'Paramountain, Normal';stroke:#ffffff;stroke-width:3.5;stroke-linecap:round;stroke-linejoin:round;stroke-miterlimit:4;stroke-dasharray:none;paint-order:stroke markers fill"
         id="path3922" />
      <path
         d="m 94.468736,165.28961 q 1.984375,0.12403 1.761133,1.95957 -0.384473,2.03399 -1.5875,2.03399 -0.744141,-0.062 -0.744141,-0.65733 0,-0.60771 0.570508,-1.079 0.570508,-0.47129 0.570508,-1.14102 0,-0.50849 -0.79375,-0.35967 -0.79375,0.13643 -1.327051,0.62012 -0.520898,0.47129 -1.401465,2.1208 -0.843359,1.73633 -0.843359,3.02617 0.08682,1.19063 1.289844,1.19063 1.289844,0 3.224609,-2.03398 h 0.04961 q 0.09922,0.0124 0.09922,0.0992 v 0.0496 0.4961 q -1.550293,1.90996 -3.361035,2.18281 -1.79834,0.26045 -2.629297,-0.59531 -0.830957,-0.86817 -0.607715,-2.30684 0.235645,-1.43867 1.835547,-3.52226 1.922364,-2.20762 3.894336,-2.0836 z"
         style="font-family:Paramountain;-inkscape-font-specification:'Paramountain, Normal';stroke:#ffffff;stroke-width:3.5;stroke-linecap:round;stroke-linejoin:round;stroke-miterlimit:4;stroke-dasharray:none;paint-order:stroke markers fill"
         id="path3924" />
      <path
         d="m 98.177036,162.88356 h 1.897554 l -1.289839,3.13779 H 100.087 l -0.173636,0.48369 h -1.413867 l -1.996777,4.32842 q -0.235645,0.5581 -0.334863,1.11621 -0.09922,0.55811 0.347265,0.55811 0.905371,0 2.38125,-2.02159 v 0.83096 q -0.359668,0.74414 -1.227832,1.5875 -0.855762,0.84336 -1.847949,0.84336 -1.116211,0.0496 -1.314648,-1.09141 -0.272852,-1.57509 1.984375,-6.16396 h -0.917774 v -0.43408 h 1.16582 z"
         style="font-family:Paramountain;-inkscape-font-specification:'Paramountain, Normal';stroke:#ffffff;stroke-width:3.5;stroke-linecap:round;stroke-linejoin:round;stroke-miterlimit:4;stroke-dasharray:none;paint-order:stroke markers fill"
         id="path3926" />
      <path
         d="m 102.43104,163.39205 q 0.5085,-0.39687 1.01699,-0.19843 0.5085,0.18603 0.5085,0.58291 v 0.14882 q -0.35967,1.33946 -1.19063,1.33946 h -0.0992 q -0.74414,-0.0868 -0.74414,-0.74414 v -0.14883 q 0,-0.58291 0.5085,-0.97979 z m 0.5085,2.66651 q -0.0744,0.33486 -2.30684,5.06015 -0.17363,0.43409 -0.23564,0.93018 -0.062,0.48369 0.44648,0.40928 0.5209,-0.0744 1.19063,-0.84336 l 0.95498,-1.09141 v 0.74414 q -1.17823,1.66192 -1.86036,2.0836 -0.66972,0.40927 -1.438668,0.45888 -0.768945,0.0372 -1.079004,-0.45888 -0.310058,-0.4961 -0.04961,-1.38907 0.248047,-0.90537 2.517672,-5.90351 z"
         style="font-family:Paramountain;-inkscape-font-specification:'Paramountain, Normal';stroke:#ffffff;stroke-width:3.5;stroke-linecap:round;stroke-linejoin:round;stroke-miterlimit:4;stroke-dasharray:none;paint-order:stroke markers fill"
         id="path3928" />
      <path
         d="m 109.98407,167.8569 q -0.69453,1.0542 -2.54248,3.54707 -1.83555,2.48047 -3.93154,2.61689 -1.07901,-0.11162 -0.94258,-1.0418 0.0992,-0.60771 2.95176,-7.09414 h 2.00918 q -2.69131,5.71748 -2.79053,6.39961 -0.0868,0.38448 0.45889,0.19844 1.31464,-0.93017 2.19521,-2.31924 0.89297,-1.38906 1.11621,-1.73633 0.23565,-0.35966 0.35967,-0.73173 -0.43408,-0.18604 -0.38447,-0.55811 0.0496,-0.37207 0.33486,-0.74414 0.28525,-0.37207 0.68213,-0.48369 0.40928,-0.11162 0.57051,-0.0992 0.17363,0 0.35966,0.0868 0.19844,0.0868 0.28526,0.43408 0.0992,0.33486 -0.26045,0.83096 0.62012,-0.0992 1.47588,-0.59532 v 0.5085 q -0.65733,0.5457 -1.25264,0.69453 -0.58291,0.14883 -0.69453,0.0868 z"
         style="font-family:Paramountain;-inkscape-font-specification:'Paramountain, Normal';stroke:#ffffff;stroke-width:3.5;stroke-linecap:round;stroke-linejoin:round;stroke-miterlimit:4;stroke-dasharray:none;paint-order:stroke markers fill"
         id="path3930" />
      <path
         d="m 115.68914,165.61207 q 1.38907,0.0992 1.43868,1.19063 -0.19844,0.93017 -0.91778,1.68672 -0.71933,0.75654 -1.67431,1.14101 -0.94258,0.37207 -2.29444,0.69453 -0.27285,0.84336 -0.21084,1.5627 0.062,0.71933 0.32246,0.86816 0.27286,0.14883 0.88057,0.0868 0.62012,-0.062 2.03398,-1.27744 l 0.0248,0.62011 q -1.48828,1.66192 -3.175,1.66192 -1.0542,0 -1.5999,-0.59531 -0.5333,-0.59532 -0.48369,-1.64952 0.0496,-1.0666 0.5457,-2.22001 0.49609,-1.16582 1.47588,-2.0836 0.99218,-0.91777 1.98437,-1.28984 0.99219,-0.37207 1.64951,-0.39688 z m -3.175,3.99356 q 1.5503,-0.0372 2.87735,-2.02158 0.44648,-0.62012 0.44648,-1.14102 0,-0.29766 -0.29765,-0.39688 -1.36426,0.0744 -3.02618,3.55948 z"
         style="font-family:Paramountain;-inkscape-font-specification:'Paramountain, Normal';stroke:#ffffff;stroke-width:3.5;stroke-linecap:round;stroke-linejoin:round;stroke-miterlimit:4;stroke-dasharray:none;paint-order:stroke markers fill"
         id="path3932" />
      <path
         d="m 150.50253,158.13346 q -0.27286,-0.0124 -0.5209,0.0496 -7.73907,13.36973 -8.90489,15.29209 -1.15341,1.90996 -1.74873,2.03398 l -1.12861,0.11162 q -1.24023,-0.14882 -1.31465,-6.57324 -0.062,-6.43681 0.45889,-10.39316 -6.16397,13.30771 -7.16856,15.18047 -1.28984,2.20761 -3.06337,3.32382 -1.76114,1.12862 -3.52227,0.91778 -1.74873,-0.21084 -3.34863,-2.07119 -0.84336,-1.26504 -0.94258,-2.04639 v -0.32246 q 0,-2.25723 1.87275,-2.82774 0.17364,0 0.17364,-0.0496 1.25263,0 1.48828,1.26503 v 0.44649 q 0,0.63252 -0.76895,1.66191 0,0.0992 -0.17363,0.54571 0.17363,0.88056 0.71933,1.5999 1.09141,1.22783 3.06338,0.38447 1.33946,-0.42168 2.44327,-2.38125 0.69453,-0.94258 4.31601,-8.63203 3.62149,-7.70186 4.31602,-8.30957 0.70693,-0.60772 1.6247,-0.76895 0.28526,-0.11162 0.68213,0.0496 0.40928,0.16123 0.43408,0.32246 l -0.0124,0.062 q -0.0124,0.19843 -0.33486,14.63476 l -0.16123,2.00918 q 0.0248,0.0248 0.0496,0.0496 8.37158,-15.68896 9.92187,-16.55713 1.5503,-0.88056 2.6541,-0.71933 1.10381,0.16123 1.92237,0.89297 -3.44785,10.91406 -3.46026,14.01464 -0.0124,3.08819 1.09141,3.95635 1.10381,0.88057 2.74092,0.88057 -0.22324,1.47588 -3.08819,0.40927 -2.85253,-1.0666 -3.24941,-4.66328 -0.39687,-3.60908 2.93936,-13.779 z"
         style="font-family:Paramountain;-inkscape-font-specification:'Paramountain, Normal';stroke:#ffffff;stroke-width:3.5;stroke-linecap:round;stroke-linejoin:round;stroke-miterlimit:4;stroke-dasharray:none;paint-order:stroke markers fill"
         id="path3934" />
      <path
         d="m 156.81532,165.46324 q 1.55029,0.0496 1.94716,0.76895 0.39688,0.71934 0.40928,1.5627 0.94258,0.0248 1.78594,-0.79375 v 0.93017 q -0.85576,0.57051 -1.84795,0.5333 -0.13643,0.74414 -1.84795,3.06338 -1.71152,2.31924 -3.77031,2.31924 -0.96738,0 -1.5875,-0.74414 -0.62012,-0.74414 -0.18604,-2.57969 0.43408,-1.84795 1.98438,-3.47266 1.56269,-1.6371 3.11299,-1.5875 z m -3.49746,7.19336 q 0,0.59532 0.5457,0.59532 0.73174,0 2.38125,-3.42305 1.0914,-2.24482 1.0914,-3.27422 0,-0.64492 -0.62011,-0.58291 -0.62012,0.062 -2.05879,2.86494 -0.91778,1.64951 -1.09141,2.67891 -0.0372,0.0124 -0.24804,1.14101 z"
         style="font-family:Paramountain;-inkscape-font-specification:'Paramountain, Normal';stroke:#ffffff;stroke-width:3.5;stroke-linecap:round;stroke-linejoin:round;stroke-miterlimit:4;stroke-dasharray:none;paint-order:stroke markers fill"
         id="path3936" />
      <path
         d="m 166.7868,167.8569 q -0.69453,1.0542 -2.54248,3.54707 -1.83555,2.48047 -3.93154,2.61689 -1.07901,-0.11162 -0.94258,-1.0418 0.0992,-0.60771 2.95176,-7.09414 h 2.00918 q -2.69131,5.71748 -2.79053,6.39961 -0.0868,0.38448 0.45889,0.19844 1.31464,-0.93017 2.19521,-2.31924 0.89297,-1.38906 1.11621,-1.73633 0.23565,-0.35966 0.35967,-0.73173 -0.43408,-0.18604 -0.38447,-0.55811 0.0496,-0.37207 0.33486,-0.74414 0.28525,-0.37207 0.68213,-0.48369 0.40928,-0.11162 0.57051,-0.0992 0.17363,0 0.35966,0.0868 0.19844,0.0868 0.28526,0.43408 0.0992,0.33486 -0.26045,0.83096 0.62012,-0.0992 1.47588,-0.59532 v 0.5085 q -0.65733,0.5457 -1.25264,0.69453 -0.58291,0.14883 -0.69453,0.0868 z"
         style="font-family:Paramountain;-inkscape-font-specification:'Paramountain, Normal';stroke:#ffffff;stroke-width:3.5;stroke-linecap:round;stroke-linejoin:round;stroke-miterlimit:4;stroke-dasharray:none;paint-order:stroke markers fill"
         id="path3938" />
      <path
         d="m 170.60672,163.39205 q 0.5085,-0.39687 1.01699,-0.19843 0.5085,0.18603 0.5085,0.58291 v 0.14882 q -0.35967,1.33946 -1.19062,1.33946 h -0.0992 q -0.74414,-0.0868 -0.74414,-0.74414 v -0.14883 q 0,-0.58291 0.50849,-0.97979 z m 0.5085,2.66651 q -0.0744,0.33486 -2.30684,5.06015 -0.17363,0.43409 -0.23564,0.93018 -0.062,0.48369 0.44648,0.40928 0.5209,-0.0744 1.19063,-0.84336 l 0.95498,-1.09141 v 0.74414 q -1.17822,1.66192 -1.86035,2.0836 -0.66973,0.40927 -1.43868,0.45888 -0.76894,0.0372 -1.079,-0.45888 -0.31006,-0.4961 -0.0496,-1.38907 0.24805,-0.90537 2.51768,-5.90351 z"
         style="font-family:Paramountain;-inkscape-font-specification:'Paramountain, Normal';stroke:#ffffff;stroke-width:3.5;stroke-linecap:round;stroke-linejoin:round;stroke-miterlimit:4;stroke-dasharray:none;paint-order:stroke markers fill"
         id="path3940" />
      <path
         d="m 176.42343,165.61207 q 1.38906,0.0992 1.43867,1.19063 -0.19844,0.93017 -0.91777,1.68672 -0.71934,0.75654 -1.67432,1.14101 -0.94258,0.37207 -2.29443,0.69453 -0.27286,0.84336 -0.21084,1.5627 0.062,0.71933 0.32246,0.86816 0.27285,0.14883 0.88056,0.0868 0.62012,-0.062 2.03399,-1.27744 l 0.0248,0.62011 q -1.48828,1.66192 -3.175,1.66192 -1.0542,0 -1.5999,-0.59531 -0.5333,-0.59532 -0.48369,-1.64952 0.0496,-1.0666 0.5457,-2.22001 0.4961,-1.16582 1.47588,-2.0836 0.99219,-0.91777 1.98438,-1.28984 0.99218,-0.37207 1.64951,-0.39688 z m -3.175,3.99356 q 1.55029,-0.0372 2.87734,-2.02158 0.44649,-0.62012 0.44649,-1.14102 0,-0.29766 -0.29766,-0.39688 -1.36426,0.0744 -3.02617,3.55948 z"
         style="font-family:Paramountain;-inkscape-font-specification:'Paramountain, Normal';stroke:#ffffff;stroke-width:3.5;stroke-linecap:round;stroke-linejoin:round;stroke-miterlimit:4;stroke-dasharray:none;paint-order:stroke markers fill"
         id="path3942" />
    </g>
    <g
       aria-label="Interactive Movie"
       id="g4076"
       style="font-size:25.4px;line-height:1.25;font-family:'Rose Of Baltimore';-inkscape-font-specification:'Rose Of Baltimore';fill:#1a1a1a;stroke-width:0.264583">
      <path
         d="m 60.486315,157.2777 q 1.314648,-0.12403 1.327051,0.11162 0.0124,0.23564 -1.041797,0.79375 -1.054199,0.5457 -2.641699,3.27422 -2.455664,4.41523 -3.187403,6.83369 l 0.930176,-0.26045 q 0.63252,-0.0992 1.810742,-0.73174 0.359668,0.062 0.111621,0.39688 -0.446484,0.85576 -3.274218,1.78593 -2.579688,4.58887 -4.17959,6.61045 -1.612305,1.72393 -4.725293,1.72393 -3.224609,0 -4.17959,-1.37666 -0.95498,-0.99219 -1.00459,-2.70371 -0.08682,-2.31924 1.773535,-3.05098 0.496094,-0.0992 0.558106,-0.0992 h 0.248047 q 1.649511,0.19844 1.674316,0.96739 v 0.24804 q -0.136426,0.95498 -1.128613,1.25264 -0.992188,0.29766 -1.054199,1.88516 0.111621,2.09599 2.691308,1.98437 2.59209,-0.0992 4.241602,-2.6665 1.661914,-2.55489 2.356445,-4.93614 h -0.04961 q -3.162598,-0.24804 -4.402832,-1.33945 -1.240235,-1.10381 -0.979785,-3.22461 0.272851,-2.1208 2.827734,-4.11758 1.513086,-1.37666 3.956347,-2.08359 4.477246,-1.27744 7.342188,-1.27744 z m -11.472168,8.75605 0.0124,0.24805 q 0.0124,1.66191 2.666504,2.02158 l 0.434082,0.062 q 1.103809,-2.76572 2.840137,-6.11435 l 2.38125,-3.59668 q -0.04961,0 -0.04961,-0.0496 -6.139161,0.97978 -8.123535,6.25078 -0.173633,0.78135 -0.161231,1.17822 z"
         style="font-family:Paramountain;-inkscape-font-specification:'Paramountain, Normal'"
         id="path4044" />
      <path
         d="m 64.529479,166.09576 q 0.508497,0.13643 0.47129,0.70694 -0.02481,0.5581 -0.582911,1.83554 l -1.16582,2.74092 q -0.198437,0.55811 -0.198437,0.81856 0,0.26045 0.458886,0.22324 0.458887,-0.0496 2.095996,-1.86035 v 1.0666 q -0.0248,0.27285 -1.364257,1.37666 -1.339454,1.10381 -2.43086,1.10381 -1.091406,0 -0.967383,-1.12862 0.124024,-1.14101 1.562696,-4.32841 0.347265,-0.76895 0.396875,-1.14102 0.06201,-0.38447 -0.248047,-0.34726 -0.905371,0.12402 -4.241602,6.64765 H 56.38114 l 3.596679,-7.63984 h 1.624707 q -0.285253,0.78135 -0.409277,1.20303 1.066602,-1.15342 1.947168,-1.28985 0.892969,-0.13642 1.389062,0.0124 z"
         style="font-family:Paramountain;-inkscape-font-specification:'Paramountain, Normal'"
         id="path4046" />
      <path
         d="m 68.597448,162.88356 h 1.897559 l -1.289844,3.13779 h 1.302246 l -0.173633,0.48369 h -1.413867 l -1.996777,4.32842 q -0.235645,0.5581 -0.334863,1.11621 -0.09922,0.55811 0.347265,0.55811 0.905371,0 2.38125,-2.02159 v 0.83096 q -0.359668,0.74414 -1.227832,1.5875 -0.855761,0.84336 -1.847949,0.84336 -1.116211,0.0496 -1.314648,-1.09141 -0.272852,-1.57509 1.984375,-6.16396 h -0.917774 v -0.43408 h 1.16582 z"
         style="font-family:Paramountain;-inkscape-font-specification:'Paramountain, Normal'"
         id="path4048" />
      <path
         d="m 74.736608,165.61207 q 1.389063,0.0992 1.438672,1.19063 -0.198437,0.93017 -0.917773,1.68672 -0.719336,0.75654 -1.674317,1.14101 -0.942578,0.37207 -2.294433,0.69453 -0.272852,0.84336 -0.21084,1.5627 0.06201,0.71933 0.322461,0.86816 0.272852,0.14883 0.880566,0.0868 0.620118,-0.062 2.033985,-1.27744 l 0.0248,0.62011 q -1.488281,1.66192 -3.175,1.66192 -1.054199,0 -1.599902,-0.59531 -0.533301,-0.59532 -0.483691,-1.64952 0.04961,-1.0666 0.545703,-2.22001 0.496094,-1.16582 1.475879,-2.0836 0.992187,-0.91777 1.984375,-1.28984 0.992187,-0.37207 1.649511,-0.39688 z m -3.175,3.99356 q 1.550293,-0.0372 2.877344,-2.02158 0.446485,-0.62012 0.446485,-1.14102 0,-0.29766 -0.297657,-0.39688 -1.364257,0.0744 -3.026172,3.55948 z"
         style="font-family:Paramountain;-inkscape-font-specification:'Paramountain, Normal'"
         id="path4050" />
      <path
         d="m 81.148621,165.86012 q 0.446484,0.12402 0.446484,0.44648 0,0.14883 -0.669727,1.5875 -0.198437,0.4961 0.124024,0.54571 0.198437,-0.0496 0.347265,-0.14883 h 0.148829 q 0.07441,0 0.148828,0.14883 v 0.0992 q -0.03721,0.5457 -0.669727,0.96738 -0.620117,0.42168 -1.364258,0.17363 -0.731738,-0.24805 -0.731738,-1.52549 -0.669727,0.23565 -1.500684,2.43086 l -1.314648,3.26182 h -2.033984 l 3.299023,-7.63984 h 1.699121 l -0.334863,1.19062 q 1.066601,-0.96738 1.5875,-1.25264 0.533301,-0.28525 0.818555,-0.28525 z"
         style="font-family:Paramountain;-inkscape-font-specification:'Paramountain, Normal'"
         id="path4052" />
      <path
         d="m 87.659849,165.83532 q 1.302247,0.0744 1.302247,0.47128 -0.248047,0.73174 -1.897559,4.51446 l -0.384473,0.94258 q -0.09922,0.28525 0.03721,0.49609 0.136426,0.19844 0.508496,0.11162 0.384473,-0.0992 1.488282,-1.20303 l 0.04961,0.54571 q 0,0.27285 -1.21543,1.17822 -1.203027,0.90537 -1.95957,0.90537 -1.141016,0 -1.153418,-1.46348 -1.674316,1.51309 -2.96416,1.51309 h -0.198437 q -0.533301,0 -0.830958,-0.35967 -0.310058,-0.37207 -0.310058,-0.88057 0,-2.158 2.480469,-4.65087 1.265039,-1.14102 2.282031,-1.5503 1.463476,-0.64492 2.765722,-0.5705 z m -5.196582,6.22597 q 0,0.45889 0.347266,0.4961 1.612305,0 3.423047,-4.01836 0.79375,-1.67432 0.79375,-2.13321 0.0124,-0.0868 -0.148828,-0.0496 -1.475879,0.29766 -2.827735,2.13321 -1.53789,2.24482 -1.5875,3.57187 z"
         style="font-family:Paramountain;-inkscape-font-specification:'Paramountain, Normal'"
         id="path4054" />
      <path
         d="m 94.468736,165.28961 q 1.984375,0.12403 1.761133,1.95957 -0.384473,2.03399 -1.5875,2.03399 -0.744141,-0.062 -0.744141,-0.65733 0,-0.60771 0.570508,-1.079 0.570508,-0.47129 0.570508,-1.14102 0,-0.50849 -0.79375,-0.35967 -0.79375,0.13643 -1.327051,0.62012 -0.520898,0.47129 -1.401465,2.1208 -0.843359,1.73633 -0.843359,3.02617 0.08682,1.19063 1.289844,1.19063 1.289844,0 3.224609,-2.03398 h 0.04961 q 0.09922,0.0124 0.09922,0.0992 v 0.0496 0.4961 q -1.550293,1.90996 -3.361035,2.18281 -1.79834,0.26045 -2.629297,-0.59531 -0.830957,-0.86817 -0.607715,-2.30684 0.235645,-1.43867 1.835547,-3.52226 1.922364,-2.20762 3.894336,-2.0836 z"
         style="font-family:Paramountain;-inkscape-font-specification:'Paramountain, Normal'"
         id="path4056" />
      <path
         d="m 98.177036,162.88356 h 1.897554 l -1.289839,3.13779 H 100.087 l -0.173636,0.48369 h -1.413867 l -1.996777,4.32842 q -0.235645,0.5581 -0.334863,1.11621 -0.09922,0.55811 0.347265,0.55811 0.905371,0 2.38125,-2.02159 v 0.83096 q -0.359668,0.74414 -1.227832,1.5875 -0.855762,0.84336 -1.847949,0.84336 -1.116211,0.0496 -1.314648,-1.09141 -0.272852,-1.57509 1.984375,-6.16396 h -0.917774 v -0.43408 h 1.16582 z"
         style="font-family:Paramountain;-inkscape-font-specification:'Paramountain, Normal'"
         id="path4058" />
      <path
         d="m 102.43104,163.39205 q 0.5085,-0.39687 1.01699,-0.19843 0.5085,0.18603 0.5085,0.58291 v 0.14882 q -0.35967,1.33946 -1.19063,1.33946 h -0.0992 q -0.74414,-0.0868 -0.74414,-0.74414 v -0.14883 q 0,-0.58291 0.5085,-0.97979 z m 0.5085,2.66651 q -0.0744,0.33486 -2.30684,5.06015 -0.17363,0.43409 -0.23564,0.93018 -0.062,0.48369 0.44648,0.40928 0.5209,-0.0744 1.19063,-0.84336 l 0.95498,-1.09141 v 0.74414 q -1.17823,1.66192 -1.86036,2.0836 -0.66972,0.40927 -1.438668,0.45888 -0.768945,0.0372 -1.079004,-0.45888 -0.310058,-0.4961 -0.04961,-1.38907 0.248047,-0.90537 2.517672,-5.90351 z"
         style="font-family:Paramountain;-inkscape-font-specification:'Paramountain, Normal'"
         id="path4060" />
      <path
         d="m 109.98407,167.8569 q -0.69453,1.0542 -2.54248,3.54707 -1.83555,2.48047 -3.93154,2.61689 -1.07901,-0.11162 -0.94258,-1.0418 0.0992,-0.60771 2.95176,-7.09414 h 2.00918 q -2.69131,5.71748 -2.79053,6.39961 -0.0868,0.38448 0.45889,0.19844 1.31464,-0.93017 2.19521,-2.31924 0.89297,-1.38906 1.11621,-1.73633 0.23565,-0.35966 0.35967,-0.73173 -0.43408,-0.18604 -0.38447,-0.55811 0.0496,-0.37207 0.33486,-0.74414 0.28525,-0.37207 0.68213,-0.48369 0.40928,-0.11162 0.57051,-0.0992 0.17363,0 0.35966,0.0868 0.19844,0.0868 0.28526,0.43408 0.0992,0.33486 -0.26045,0.83096 0.62012,-0.0992 1.47588,-0.59532 v 0.5085 q -0.65733,0.5457 -1.25264,0.69453 -0.58291,0.14883 -0.69453,0.0868 z"
         style="font-family:Paramountain;-inkscape-font-specification:'Paramountain, Normal'"
         id="path4062" />
      <path
         d="m 115.68914,165.61207 q 1.38907,0.0992 1.43868,1.19063 -0.19844,0.93017 -0.91778,1.68672 -0.71933,0.75654 -1.67431,1.14101 -0.94258,0.37207 -2.29444,0.69453 -0.27285,0.84336 -0.21084,1.5627 0.062,0.71933 0.32246,0.86816 0.27286,0.14883 0.88057,0.0868 0.62012,-0.062 2.03398,-1.27744 l 0.0248,0.62011 q -1.48828,1.66192 -3.175,1.66192 -1.0542,0 -1.5999,-0.59531 -0.5333,-0.59532 -0.48369,-1.64952 0.0496,-1.0666 0.5457,-2.22001 0.49609,-1.16582 1.47588,-2.0836 0.99218,-0.91777 1.98437,-1.28984 0.99219,-0.37207 1.64951,-0.39688 z m -3.175,3.99356 q 1.5503,-0.0372 2.87735,-2.02158 0.44648,-0.62012 0.44648,-1.14102 0,-0.29766 -0.29765,-0.39688 -1.36426,0.0744 -3.02618,3.55948 z"
         style="font-family:Paramountain;-inkscape-font-specification:'Paramountain, Normal'"
         id="path4064" />
      <path
         d="m 150.50253,158.13346 q -0.27286,-0.0124 -0.5209,0.0496 -7.73907,13.36973 -8.90489,15.29209 -1.15341,1.90996 -1.74873,2.03398 l -1.12861,0.11162 q -1.24023,-0.14882 -1.31465,-6.57324 -0.062,-6.43681 0.45889,-10.39316 -6.16397,13.30771 -7.16856,15.18047 -1.28984,2.20761 -3.06337,3.32382 -1.76114,1.12862 -3.52227,0.91778 -1.74873,-0.21084 -3.34863,-2.07119 -0.84336,-1.26504 -0.94258,-2.04639 v -0.32246 q 0,-2.25723 1.87275,-2.82774 0.17364,0 0.17364,-0.0496 1.25263,0 1.48828,1.26503 v 0.44649 q 0,0.63252 -0.76895,1.66191 0,0.0992 -0.17363,0.54571 0.17363,0.88056 0.71933,1.5999 1.09141,1.22783 3.06338,0.38447 1.33946,-0.42168 2.44327,-2.38125 0.69453,-0.94258 4.31601,-8.63203 3.62149,-7.70186 4.31602,-8.30957 0.70693,-0.60772 1.6247,-0.76895 0.28526,-0.11162 0.68213,0.0496 0.40928,0.16123 0.43408,0.32246 l -0.0124,0.062 q -0.0124,0.19843 -0.33486,14.63476 l -0.16123,2.00918 q 0.0248,0.0248 0.0496,0.0496 8.37158,-15.68896 9.92187,-16.55713 1.5503,-0.88056 2.6541,-0.71933 1.10381,0.16123 1.92237,0.89297 -3.44785,10.91406 -3.46026,14.01464 -0.0124,3.08819 1.09141,3.95635 1.10381,0.88057 2.74092,0.88057 -0.22324,1.47588 -3.08819,0.40927 -2.85253,-1.0666 -3.24941,-4.66328 -0.39687,-3.60908 2.93936,-13.779 z"
         style="font-family:Paramountain;-inkscape-font-specification:'Paramountain, Normal'"
         id="path4066" />
      <path
         d="m 156.81532,165.46324 q 1.55029,0.0496 1.94716,0.76895 0.39688,0.71934 0.40928,1.5627 0.94258,0.0248 1.78594,-0.79375 v 0.93017 q -0.85576,0.57051 -1.84795,0.5333 -0.13643,0.74414 -1.84795,3.06338 -1.71152,2.31924 -3.77031,2.31924 -0.96738,0 -1.5875,-0.74414 -0.62012,-0.74414 -0.18604,-2.57969 0.43408,-1.84795 1.98438,-3.47266 1.56269,-1.6371 3.11299,-1.5875 z m -3.49746,7.19336 q 0,0.59532 0.5457,0.59532 0.73174,0 2.38125,-3.42305 1.0914,-2.24482 1.0914,-3.27422 0,-0.64492 -0.62011,-0.58291 -0.62012,0.062 -2.05879,2.86494 -0.91778,1.64951 -1.09141,2.67891 -0.0372,0.0124 -0.24804,1.14101 z"
         style="font-family:Paramountain;-inkscape-font-specification:'Paramountain, Normal'"
         id="path4068" />
      <path
         d="m 166.7868,167.8569 q -0.69453,1.0542 -2.54248,3.54707 -1.83555,2.48047 -3.93154,2.61689 -1.07901,-0.11162 -0.94258,-1.0418 0.0992,-0.60771 2.95176,-7.09414 h 2.00918 q -2.69131,5.71748 -2.79053,6.39961 -0.0868,0.38448 0.45889,0.19844 1.31464,-0.93017 2.19521,-2.31924 0.89297,-1.38906 1.11621,-1.73633 0.23565,-0.35966 0.35967,-0.73173 -0.43408,-0.18604 -0.38447,-0.55811 0.0496,-0.37207 0.33486,-0.74414 0.28525,-0.37207 0.68213,-0.48369 0.40928,-0.11162 0.57051,-0.0992 0.17363,0 0.35966,0.0868 0.19844,0.0868 0.28526,0.43408 0.0992,0.33486 -0.26045,0.83096 0.62012,-0.0992 1.47588,-0.59532 v 0.5085 q -0.65733,0.5457 -1.25264,0.69453 -0.58291,0.14883 -0.69453,0.0868 z"
         style="font-family:Paramountain;-inkscape-font-specification:'Paramountain, Normal'"
         id="path4070" />
      <path
         d="m 170.60672,163.39205 q 0.5085,-0.39687 1.01699,-0.19843 0.5085,0.18603 0.5085,0.58291 v 0.14882 q -0.35967,1.33946 -1.19062,1.33946 h -0.0992 q -0.74414,-0.0868 -0.74414,-0.74414 v -0.14883 q 0,-0.58291 0.50849,-0.97979 z m 0.5085,2.66651 q -0.0744,0.33486 -2.30684,5.06015 -0.17363,0.43409 -0.23564,0.93018 -0.062,0.48369 0.44648,0.40928 0.5209,-0.0744 1.19063,-0.84336 l 0.95498,-1.09141 v 0.74414 q -1.17822,1.66192 -1.86035,2.0836 -0.66973,0.40927 -1.43868,0.45888 -0.76894,0.0372 -1.079,-0.45888 -0.31006,-0.4961 -0.0496,-1.38907 0.24805,-0.90537 2.51768,-5.90351 z"
         style="font-family:Paramountain;-inkscape-font-specification:'Paramountain, Normal'"
         id="path4072" />
      <path
         d="m 176.42343,165.61207 q 1.38906,0.0992 1.43867,1.19063 -0.19844,0.93017 -0.91777,1.68672 -0.71934,0.75654 -1.67432,1.14101 -0.94258,0.37207 -2.29443,0.69453 -0.27286,0.84336 -0.21084,1.5627 0.062,0.71933 0.32246,0.86816 0.27285,0.14883 0.88056,0.0868 0.62012,-0.062 2.03399,-1.27744 l 0.0248,0.62011 q -1.48828,1.66192 -3.175,1.66192 -1.0542,0 -1.5999,-0.59531 -0.5333,-0.59532 -0.48369,-1.64952 0.0496,-1.0666 0.5457,-2.22001 0.4961,-1.16582 1.47588,-2.0836 0.99219,-0.91777 1.98438,-1.28984 0.99218,-0.37207 1.64951,-0.39688 z m -3.175,3.99356 q 1.55029,-0.0372 2.87734,-2.02158 0.44649,-0.62012 0.44649,-1.14102 0,-0.29766 -0.29766,-0.39688 -1.36426,0.0744 -3.02617,3.55948 z"
         style="font-family:Paramountain;-inkscape-font-specification:'Paramountain, Normal'"
         id="path4074" />
    </g>
  </g>
</svg>
