<?xml version="1.0" encoding="UTF-8" standalone="no"?>
<!-- Created with Inkscape (http://www.inkscape.org/) -->

<svg
   width="134.3271mm"
   height="23.4056mm"
   viewBox="0 0 134.3271 23.4056"
   version="1.1"
   id="svg5"
   inkscape:version="1.1 (c68e22c387, 2021-05-23)"
   sodipodi:docname="auto-rpgtactical.svg"
   xmlns:inkscape="http://www.inkscape.org/namespaces/inkscape"
   xmlns:sodipodi="http://sodipodi.sourceforge.net/DTD/sodipodi-0.dtd"
   xmlns="http://www.w3.org/2000/svg"
   xmlns:svg="http://www.w3.org/2000/svg">
  <sodipodi:namedview
     id="namedview7"
     pagecolor="#ffffff"
     bordercolor="#666666"
     borderopacity="1.0"
     inkscape:pageshadow="2"
     inkscape:pageopacity="0.0"
     inkscape:pagecheckerboard="0"
     inkscape:document-units="mm"
     showgrid="false"
     fit-margin-top="0"
     fit-margin-left="0"
     fit-margin-right="0"
     fit-margin-bottom="0"
     inkscape:zoom="0.94867184"
     inkscape:cx="240.86306"
     inkscape:cy="-33.731369"
     inkscape:window-width="1920"
     inkscape:window-height="1138"
     inkscape:window-x="-8"
     inkscape:window-y="-8"
     inkscape:window-maximized="1"
     inkscape:current-layer="layer1" />
  <defs
     id="defs2" />
  <g
     inkscape:label="Calque 1"
     inkscape:groupmode="layer"
     id="layer1"
     transform="translate(-34.273429,-109.8982)">
    <rect
       style="fill:#ffffff;fill-opacity:1;fill-rule:evenodd;stroke:none;stroke-width:4.65536;stroke-linecap:round;stroke-linejoin:round;stroke-miterlimit:4;stroke-dasharray:none;paint-order:stroke markers fill"
       id="rect13842"
       width="62.194408"
       height="11.434846"
       x="49.608383"
       y="119.5436" />
    <rect
       style="fill:#ffffff;fill-opacity:1;fill-rule:evenodd;stroke:none;stroke-width:4.4849;stroke-linecap:round;stroke-linejoin:round;stroke-miterlimit:4;stroke-dasharray:none;paint-order:stroke markers fill"
       id="rect13990"
       width="24.543083"
       height="7.5302644"
       x="123.46413"
       y="115.03594" />
    <rect
       style="fill:#ffffff;fill-opacity:1;fill-rule:evenodd;stroke:none;stroke-width:3.48911;stroke-linecap:round;stroke-linejoin:round;stroke-miterlimit:4;stroke-dasharray:none;paint-order:stroke markers fill"
       id="rect14094"
       width="9.7614536"
       height="11.713745"
       x="131.40039"
       y="117.24065" />
    <g
       aria-label="Tactical RPG"
       id="text1508"
       style="font-size:25.4px;line-height:1.25;font-family:'Rose Of Baltimore';-inkscape-font-specification:'Rose Of Baltimore';fill:#0000a0;fill-opacity:1;stroke:#ffffff;stroke-width:4;stroke-linecap:round;stroke-linejoin:round;stroke-miterlimit:4;stroke-dasharray:none;paint-order:stroke markers fill">
      <path
         d="m 49.049629,115.3526 h -5.1816 v 15.5956 h -2.413 v -15.5956 h -5.1816 v -2.1844 h 12.7762 z"
         style="font-family:Cabin;-inkscape-font-specification:'Cabin, Normal';fill:#0000a0;fill-opacity:1;stroke:#ffffff;stroke-width:4;stroke-linecap:round;stroke-linejoin:round;stroke-miterlimit:4;stroke-dasharray:none;paint-order:stroke markers fill"
         id="path6103" />
      <path
         d="m 59.869983,129.3734 -0.3556,1.8288 h -0.1778 q -0.762,0 -1.27,-0.1016 -0.508,-0.0762 -0.8636,-0.2794 -0.3556,-0.2286 -0.6096,-0.5842 -0.2286,-0.3556 -0.457199,-0.8636 -1.5748,1.8288 -3.81,1.8288 -1.7526,0 -2.794,-0.9906 -1.0414,-1.016 -1.0414,-2.6162 0,-1.2954 0.6858,-2.1336 0.7112,-0.8382 1.778,-1.3462 1.0922,-0.508 2.413,-0.7112 1.3208,-0.2286 2.5654,-0.254 0,-1.6764 -0.6604,-2.2606 -0.635,-0.6096 -2.0574,-0.6096 -1.6256,0 -3.2766,1.1176 l -0.3302,-1.8542 q 1.6764,-1.2954 4.2164,-1.2954 1.1938,0 2.032,0.3302 0.838199,0.3048 1.346199,1.016 0.5334,0.6858 0.762,1.8288 0.254,1.143 0.254,2.794 v 2.54 q 0,1.4732 0.254,2.0574 0.254,0.5588 1.1684,0.5588 z m -3.936999,-1.6764 v -2.9718 q -2.7432,0.1016 -3.937,0.7366 -1.1684,0.6096 -1.1684,2.0066 0,1.905 1.9304,1.905 0.9144,0 1.7526,-0.4572 0.8636,-0.4572 1.4224,-1.2192 z"
         style="font-family:Cabin;-inkscape-font-specification:'Cabin, Normal';fill:#0000a0;fill-opacity:1;stroke:#ffffff;stroke-width:4;stroke-linecap:round;stroke-linejoin:round;stroke-miterlimit:4;stroke-dasharray:none;paint-order:stroke markers fill"
         id="path6105" />
      <path
         d="m 67.108972,131.2022 q -1.4986,0 -2.6416,-0.4826 -1.143,-0.508 -1.9558,-1.3716 -0.7874,-0.889 -1.1938,-2.0574 -0.4064,-1.1938 -0.4064,-2.5908 0,-1.4224 0.4064,-2.5908 0.4064,-1.1938 1.1684,-2.0574 0.7874,-0.8636 1.9304,-1.3208 1.1684,-0.4826 2.667,-0.4826 2.489199,0 3.835399,0.7366 l -0.3556,2.0574 q -1.5748,-0.762 -3.225799,-0.762 -2.0574,0 -3.0734,1.143 -1.016,1.143 -1.016,3.2766 0,2.1336 1.016,3.3274 1.016,1.1684 3.0734,1.1684 1.676399,0 3.251199,-0.762 l 0.3048,1.8288 q -1.397,0.9398 -3.784599,0.9398 z"
         style="font-family:Cabin;-inkscape-font-specification:'Cabin, Normal';fill:#0000a0;fill-opacity:1;stroke:#ffffff;stroke-width:4;stroke-linecap:round;stroke-linejoin:round;stroke-miterlimit:4;stroke-dasharray:none;paint-order:stroke markers fill"
         id="path6107" />
      <path
         d="m 79.681936,129.3734 -0.1778,1.8288 h -2.0574 q -1.651,0 -2.4638,-0.8636 -0.7874,-0.8636 -0.7874,-2.1082 v -7.9502 h -2.1336 l 0.2032,-1.778 h 1.9304 v -3.0734 l 2.286,-0.2286 v 3.302 h 3.2766 v 1.778 h -3.2766 v 6.5532 q 0,0.889 0.0508,1.397 0.0508,0.508 0.2794,0.762 0.254,0.254 0.7874,0.3302 0.5334,0.0508 1.4986,0.0508 z"
         style="font-family:Cabin;-inkscape-font-specification:'Cabin, Normal';fill:#0000a0;fill-opacity:1;stroke:#ffffff;stroke-width:4;stroke-linecap:round;stroke-linejoin:round;stroke-miterlimit:4;stroke-dasharray:none;paint-order:stroke markers fill"
         id="path6109" />
      <path
         d="m 83.999932,115.7082 h -2.286 v -2.54 h 2.286 z m 0,15.24 h -2.286 v -12.446 h 2.286 z"
         style="font-family:Cabin;-inkscape-font-specification:'Cabin, Normal';fill:#0000a0;fill-opacity:1;stroke:#ffffff;stroke-width:4;stroke-linecap:round;stroke-linejoin:round;stroke-miterlimit:4;stroke-dasharray:none;paint-order:stroke markers fill"
         id="path6111" />
      <path
         d="m 92.585128,131.2022 q -1.4986,0 -2.6416,-0.4826 -1.143,-0.508 -1.9558,-1.3716 -0.7874,-0.889 -1.1938,-2.0574 -0.4064,-1.1938 -0.4064,-2.5908 0,-1.4224 0.4064,-2.5908 0.4064,-1.1938 1.1684,-2.0574 0.7874,-0.8636 1.9304,-1.3208 1.1684,-0.4826 2.667,-0.4826 2.4892,0 3.8354,0.7366 l -0.3556,2.0574 q -1.5748,-0.762 -3.2258,-0.762 -2.0574,0 -3.0734,1.143 -1.016,1.143 -1.016,3.2766 0,2.1336 1.016,3.3274 1.016,1.1684 3.0734,1.1684 1.6764,0 3.2512,-0.762 l 0.3048,1.8288 q -1.397,0.9398 -3.7846,0.9398 z"
         style="font-family:Cabin;-inkscape-font-specification:'Cabin, Normal';fill:#0000a0;fill-opacity:1;stroke:#ffffff;stroke-width:4;stroke-linecap:round;stroke-linejoin:round;stroke-miterlimit:4;stroke-dasharray:none;paint-order:stroke markers fill"
         id="path6113" />
      <path
         d="m 109.06969,129.3734 -0.3556,1.8288 h -0.1778 q -0.762,0 -1.27,-0.1016 -0.508,-0.0762 -0.8636,-0.2794 -0.3556,-0.2286 -0.6096,-0.5842 -0.2286,-0.3556 -0.4572,-0.8636 -1.5748,1.8288 -3.81,1.8288 -1.752596,0 -2.793996,-0.9906 -1.0414,-1.016 -1.0414,-2.6162 0,-1.2954 0.6858,-2.1336 0.7112,-0.8382 1.777996,-1.3462 1.0922,-0.508 2.413,-0.7112 1.3208,-0.2286 2.5654,-0.254 0,-1.6764 -0.6604,-2.2606 -0.635,-0.6096 -2.0574,-0.6096 -1.6256,0 -3.276596,1.1176 l -0.3302,-1.8542 q 1.676396,-1.2954 4.216396,-1.2954 1.1938,0 2.032,0.3302 0.8382,0.3048 1.3462,1.016 0.5334,0.6858 0.762,1.8288 0.254,1.143 0.254,2.794 v 2.54 q 0,1.4732 0.254,2.0574 0.254,0.5588 1.1684,0.5588 z m -3.937,-1.6764 v -2.9718 q -2.7432,0.1016 -3.937,0.7366 -1.1684,0.6096 -1.1684,2.0066 0,1.905 1.9304,1.905 0.9144,0 1.7526,-0.4572 0.8636,-0.4572 1.4224,-1.2192 z"
         style="font-family:Cabin;-inkscape-font-specification:'Cabin, Normal';fill:#0000a0;fill-opacity:1;stroke:#ffffff;stroke-width:4;stroke-linecap:round;stroke-linejoin:round;stroke-miterlimit:4;stroke-dasharray:none;paint-order:stroke markers fill"
         id="path6115" />
      <path
         d="m 115.08948,129.3734 -0.3302,1.8288 h -0.7366 q -1.6764,0 -2.4638,-0.8382 -0.762,-0.8636 -0.762,-2.159 v -16.3068 h 2.286 v 14.986 q 0,0.7874 0.0508,1.2954 0.0762,0.4826 0.2794,0.762 0.2032,0.254 0.5842,0.3556 0.4064,0.0762 1.0922,0.0762 z"
         style="font-family:Cabin;-inkscape-font-specification:'Cabin, Normal';fill:#0000a0;fill-opacity:1;stroke:#ffffff;stroke-width:4;stroke-linecap:round;stroke-linejoin:round;stroke-miterlimit:4;stroke-dasharray:none;paint-order:stroke markers fill"
         id="path6117" />
      <path
         d="m 135.8158,130.9482 h -2.5908 l -3.937,-6.9342 h -3.7338 v 6.9342 h -2.54 v -17.78 h 5.7658 q 1.4732,0 2.6162,0.2794 1.1684,0.2794 1.9304,0.9144 0.7874,0.6096 1.1938,1.6002 0.4064,0.9906 0.4064,2.413 0,1.6764 -0.8636,2.9972 -0.8382,1.2954 -2.3876,2.0066 z m -7.0612,-15.8242 h -3.2004 v 6.5532 h 3.8354 q 0.6096,0 1.143,-0.2032 0.5588,-0.2032 0.9652,-0.6096 0.4318,-0.4064 0.6604,-1.016 0.254,-0.635 0.254,-1.4732 0,-1.5494 -0.9144,-2.3876 -0.9144,-0.8636 -2.7432,-0.8636 z"
         style="font-family:Cabin;-inkscape-font-specification:'Cabin, Normal';fill:#0000a0;fill-opacity:1;stroke:#ffffff;stroke-width:4;stroke-linecap:round;stroke-linejoin:round;stroke-miterlimit:4;stroke-dasharray:none;paint-order:stroke markers fill"
         id="path6119" />
      <path
         d="m 140.87037,124.7252 v 6.223 h -2.54 v -17.78 h 5.6896 q 1.2446,0 2.3622,0.2032 1.1176,0.1778 1.9558,0.7874 0.8636,0.5842 1.3716,1.6764 0.508,1.0922 0.508,2.8702 0,1.7272 -0.5334,2.8956 -0.508,1.143 -1.3208,1.8542 -0.8128,0.6858 -1.778,0.9906 -0.9652,0.2794 -1.8542,0.2794 z m 0,-9.398 v 7.239 h 3.4036 q 1.8542,0 2.6416,-0.9652 0.7874,-0.9906 0.7874,-2.794 0,-0.9398 -0.2032,-1.6002 -0.2032,-0.6858 -0.6858,-1.0922 -0.4826,-0.4064 -1.2954,-0.5842 -0.7874,-0.2032 -1.9558,-0.2032 z"
         style="font-family:Cabin;-inkscape-font-specification:'Cabin, Normal';fill:#0000a0;fill-opacity:1;stroke:#ffffff;stroke-width:4;stroke-linecap:round;stroke-linejoin:round;stroke-miterlimit:4;stroke-dasharray:none;paint-order:stroke markers fill"
         id="path6121" />
      <path
         d="m 160.52993,131.3038 q -1.8796,0 -3.4798,-0.6604 -1.6002,-0.6858 -2.7686,-1.905 -1.1684,-1.2192 -1.8288,-2.921 -0.635,-1.7018 -0.635,-3.7846 0,-2.0828 0.6604,-3.7846 0.6604,-1.7018 1.8288,-2.8956 1.1938,-1.2192 2.8194,-1.8796 1.651,-0.6604 3.6068,-0.6604 2.9972,0 5.2832,1.016 l -0.2286,2.1082 q -2.667,-0.9398 -4.9784,-0.9398 -1.5494,0 -2.7432,0.5334 -1.1938,0.508 -2.0066,1.4478 -0.7874,0.9144 -1.1938,2.2352 -0.4064,1.2954 -0.4064,2.8448 0,1.6002 0.4318,2.921 0.4318,1.2954 1.27,2.2098 0.8636,0.9144 2.1082,1.4224 1.27,0.508 2.9464,0.508 1.8288,0 2.9718,-0.4826 v -4.4196 h -2.794 v -2.1844 h 5.207 v 7.9248 q -0.508,0.2794 -1.27,0.5334 -0.7366,0.2286 -1.5748,0.4318 -0.8128,0.1778 -1.6764,0.2794 -0.8382,0.1016 -1.5494,0.1016 z"
         style="font-family:Cabin;-inkscape-font-specification:'Cabin, Normal';fill:#0000a0;fill-opacity:1;stroke:#ffffff;stroke-width:4;stroke-linecap:round;stroke-linejoin:round;stroke-miterlimit:4;stroke-dasharray:none;paint-order:stroke markers fill"
         id="path6123" />
    </g>
    <g
       aria-label="Tactical RPG"
       id="g6247"
       style="font-size:25.4px;line-height:1.25;font-family:'Rose Of Baltimore';-inkscape-font-specification:'Rose Of Baltimore';fill:#0000a0;fill-opacity:1;stroke-width:0.264583">
      <path
         d="m 49.049629,115.3526 h -5.1816 v 15.5956 h -2.413 v -15.5956 h -5.1816 v -2.1844 h 12.7762 z"
         style="font-family:Cabin;-inkscape-font-specification:'Cabin, Normal';fill:#0000a0;fill-opacity:1"
         id="path6225" />
      <path
         d="m 59.869983,129.3734 -0.3556,1.8288 h -0.1778 q -0.762,0 -1.27,-0.1016 -0.508,-0.0762 -0.8636,-0.2794 -0.3556,-0.2286 -0.6096,-0.5842 -0.2286,-0.3556 -0.457199,-0.8636 -1.5748,1.8288 -3.81,1.8288 -1.7526,0 -2.794,-0.9906 -1.0414,-1.016 -1.0414,-2.6162 0,-1.2954 0.6858,-2.1336 0.7112,-0.8382 1.778,-1.3462 1.0922,-0.508 2.413,-0.7112 1.3208,-0.2286 2.5654,-0.254 0,-1.6764 -0.6604,-2.2606 -0.635,-0.6096 -2.0574,-0.6096 -1.6256,0 -3.2766,1.1176 l -0.3302,-1.8542 q 1.6764,-1.2954 4.2164,-1.2954 1.1938,0 2.032,0.3302 0.838199,0.3048 1.346199,1.016 0.5334,0.6858 0.762,1.8288 0.254,1.143 0.254,2.794 v 2.54 q 0,1.4732 0.254,2.0574 0.254,0.5588 1.1684,0.5588 z m -3.936999,-1.6764 v -2.9718 q -2.7432,0.1016 -3.937,0.7366 -1.1684,0.6096 -1.1684,2.0066 0,1.905 1.9304,1.905 0.9144,0 1.7526,-0.4572 0.8636,-0.4572 1.4224,-1.2192 z"
         style="font-family:Cabin;-inkscape-font-specification:'Cabin, Normal';fill:#0000a0;fill-opacity:1"
         id="path6227" />
      <path
         d="m 67.108972,131.2022 q -1.4986,0 -2.6416,-0.4826 -1.143,-0.508 -1.9558,-1.3716 -0.7874,-0.889 -1.1938,-2.0574 -0.4064,-1.1938 -0.4064,-2.5908 0,-1.4224 0.4064,-2.5908 0.4064,-1.1938 1.1684,-2.0574 0.7874,-0.8636 1.9304,-1.3208 1.1684,-0.4826 2.667,-0.4826 2.489199,0 3.835399,0.7366 l -0.3556,2.0574 q -1.5748,-0.762 -3.225799,-0.762 -2.0574,0 -3.0734,1.143 -1.016,1.143 -1.016,3.2766 0,2.1336 1.016,3.3274 1.016,1.1684 3.0734,1.1684 1.676399,0 3.251199,-0.762 l 0.3048,1.8288 q -1.397,0.9398 -3.784599,0.9398 z"
         style="font-family:Cabin;-inkscape-font-specification:'Cabin, Normal';fill:#0000a0;fill-opacity:1"
         id="path6229" />
      <path
         d="m 79.681936,129.3734 -0.1778,1.8288 h -2.0574 q -1.651,0 -2.4638,-0.8636 -0.7874,-0.8636 -0.7874,-2.1082 v -7.9502 h -2.1336 l 0.2032,-1.778 h 1.9304 v -3.0734 l 2.286,-0.2286 v 3.302 h 3.2766 v 1.778 h -3.2766 v 6.5532 q 0,0.889 0.0508,1.397 0.0508,0.508 0.2794,0.762 0.254,0.254 0.7874,0.3302 0.5334,0.0508 1.4986,0.0508 z"
         style="font-family:Cabin;-inkscape-font-specification:'Cabin, Normal';fill:#0000a0;fill-opacity:1"
         id="path6231" />
      <path
         d="m 83.999932,115.7082 h -2.286 v -2.54 h 2.286 z m 0,15.24 h -2.286 v -12.446 h 2.286 z"
         style="font-family:Cabin;-inkscape-font-specification:'Cabin, Normal';fill:#0000a0;fill-opacity:1"
         id="path6233" />
      <path
         d="m 92.585128,131.2022 q -1.4986,0 -2.6416,-0.4826 -1.143,-0.508 -1.9558,-1.3716 -0.7874,-0.889 -1.1938,-2.0574 -0.4064,-1.1938 -0.4064,-2.5908 0,-1.4224 0.4064,-2.5908 0.4064,-1.1938 1.1684,-2.0574 0.7874,-0.8636 1.9304,-1.3208 1.1684,-0.4826 2.667,-0.4826 2.4892,0 3.8354,0.7366 l -0.3556,2.0574 q -1.5748,-0.762 -3.2258,-0.762 -2.0574,0 -3.0734,1.143 -1.016,1.143 -1.016,3.2766 0,2.1336 1.016,3.3274 1.016,1.1684 3.0734,1.1684 1.6764,0 3.2512,-0.762 l 0.3048,1.8288 q -1.397,0.9398 -3.7846,0.9398 z"
         style="font-family:Cabin;-inkscape-font-specification:'Cabin, Normal';fill:#0000a0;fill-opacity:1"
         id="path6235" />
      <path
         d="m 109.06969,129.3734 -0.3556,1.8288 h -0.1778 q -0.762,0 -1.27,-0.1016 -0.508,-0.0762 -0.8636,-0.2794 -0.3556,-0.2286 -0.6096,-0.5842 -0.2286,-0.3556 -0.4572,-0.8636 -1.5748,1.8288 -3.81,1.8288 -1.752596,0 -2.793996,-0.9906 -1.0414,-1.016 -1.0414,-2.6162 0,-1.2954 0.6858,-2.1336 0.7112,-0.8382 1.777996,-1.3462 1.0922,-0.508 2.413,-0.7112 1.3208,-0.2286 2.5654,-0.254 0,-1.6764 -0.6604,-2.2606 -0.635,-0.6096 -2.0574,-0.6096 -1.6256,0 -3.276596,1.1176 l -0.3302,-1.8542 q 1.676396,-1.2954 4.216396,-1.2954 1.1938,0 2.032,0.3302 0.8382,0.3048 1.3462,1.016 0.5334,0.6858 0.762,1.8288 0.254,1.143 0.254,2.794 v 2.54 q 0,1.4732 0.254,2.0574 0.254,0.5588 1.1684,0.5588 z m -3.937,-1.6764 v -2.9718 q -2.7432,0.1016 -3.937,0.7366 -1.1684,0.6096 -1.1684,2.0066 0,1.905 1.9304,1.905 0.9144,0 1.7526,-0.4572 0.8636,-0.4572 1.4224,-1.2192 z"
         style="font-family:Cabin;-inkscape-font-specification:'Cabin, Normal';fill:#0000a0;fill-opacity:1"
         id="path6237" />
      <path
         d="m 115.08948,129.3734 -0.3302,1.8288 h -0.7366 q -1.6764,0 -2.4638,-0.8382 -0.762,-0.8636 -0.762,-2.159 v -16.3068 h 2.286 v 14.986 q 0,0.7874 0.0508,1.2954 0.0762,0.4826 0.2794,0.762 0.2032,0.254 0.5842,0.3556 0.4064,0.0762 1.0922,0.0762 z"
         style="font-family:Cabin;-inkscape-font-specification:'Cabin, Normal';fill:#0000a0;fill-opacity:1"
         id="path6239" />
      <path
         d="m 135.8158,130.9482 h -2.5908 l -3.937,-6.9342 h -3.7338 v 6.9342 h -2.54 v -17.78 h 5.7658 q 1.4732,0 2.6162,0.2794 1.1684,0.2794 1.9304,0.9144 0.7874,0.6096 1.1938,1.6002 0.4064,0.9906 0.4064,2.413 0,1.6764 -0.8636,2.9972 -0.8382,1.2954 -2.3876,2.0066 z m -7.0612,-15.8242 h -3.2004 v 6.5532 h 3.8354 q 0.6096,0 1.143,-0.2032 0.5588,-0.2032 0.9652,-0.6096 0.4318,-0.4064 0.6604,-1.016 0.254,-0.635 0.254,-1.4732 0,-1.5494 -0.9144,-2.3876 -0.9144,-0.8636 -2.7432,-0.8636 z"
         style="font-family:Cabin;-inkscape-font-specification:'Cabin, Normal';fill:#0000a0;fill-opacity:1"
         id="path6241" />
      <path
         d="m 140.87037,124.7252 v 6.223 h -2.54 v -17.78 h 5.6896 q 1.2446,0 2.3622,0.2032 1.1176,0.1778 1.9558,0.7874 0.8636,0.5842 1.3716,1.6764 0.508,1.0922 0.508,2.8702 0,1.7272 -0.5334,2.8956 -0.508,1.143 -1.3208,1.8542 -0.8128,0.6858 -1.778,0.9906 -0.9652,0.2794 -1.8542,0.2794 z m 0,-9.398 v 7.239 h 3.4036 q 1.8542,0 2.6416,-0.9652 0.7874,-0.9906 0.7874,-2.794 0,-0.9398 -0.2032,-1.6002 -0.2032,-0.6858 -0.6858,-1.0922 -0.4826,-0.4064 -1.2954,-0.5842 -0.7874,-0.2032 -1.9558,-0.2032 z"
         style="font-family:Cabin;-inkscape-font-specification:'Cabin, Normal';fill:#0000a0;fill-opacity:1"
         id="path6243" />
      <path
         d="m 160.52993,131.3038 q -1.8796,0 -3.4798,-0.6604 -1.6002,-0.6858 -2.7686,-1.905 -1.1684,-1.2192 -1.8288,-2.921 -0.635,-1.7018 -0.635,-3.7846 0,-2.0828 0.6604,-3.7846 0.6604,-1.7018 1.8288,-2.8956 1.1938,-1.2192 2.8194,-1.8796 1.651,-0.6604 3.6068,-0.6604 2.9972,0 5.2832,1.016 l -0.2286,2.1082 q -2.667,-0.9398 -4.9784,-0.9398 -1.5494,0 -2.7432,0.5334 -1.1938,0.508 -2.0066,1.4478 -0.7874,0.9144 -1.1938,2.2352 -0.4064,1.2954 -0.4064,2.8448 0,1.6002 0.4318,2.921 0.4318,1.2954 1.27,2.2098 0.8636,0.9144 2.1082,1.4224 1.27,0.508 2.9464,0.508 1.8288,0 2.9718,-0.4826 v -4.4196 h -2.794 v -2.1844 h 5.207 v 7.9248 q -0.508,0.2794 -1.27,0.5334 -0.7366,0.2286 -1.5748,0.4318 -0.8128,0.1778 -1.6764,0.2794 -0.8382,0.1016 -1.5494,0.1016 z"
         style="font-family:Cabin;-inkscape-font-specification:'Cabin, Normal';fill:#0000a0;fill-opacity:1"
         id="path6245" />
    </g>
  </g>
</svg>
