<?xml version="1.0" encoding="UTF-8" standalone="no"?>
<!-- Created with Inkscape (http://www.inkscape.org/) -->

<svg
   width="129.76306mm"
   height="23.769176mm"
   viewBox="0 0 129.76306 23.769176"
   version="1.1"
   id="svg5"
   inkscape:version="1.1 (c68e22c387, 2021-05-23)"
   sodipodi:docname="auto-rpgdungeoncrawler.svg"
   xmlns:inkscape="http://www.inkscape.org/namespaces/inkscape"
   xmlns:sodipodi="http://sodipodi.sourceforge.net/DTD/sodipodi-0.dtd"
   xmlns="http://www.w3.org/2000/svg"
   xmlns:svg="http://www.w3.org/2000/svg">
  <sodipodi:namedview
     id="namedview7"
     pagecolor="#ffffff"
     bordercolor="#666666"
     borderopacity="1.0"
     inkscape:pageshadow="2"
     inkscape:pageopacity="0.0"
     inkscape:pagecheckerboard="0"
     inkscape:document-units="mm"
     showgrid="false"
     fit-margin-top="0"
     fit-margin-left="0"
     fit-margin-right="0"
     fit-margin-bottom="0"
     inkscape:zoom="1.3416246"
     inkscape:cx="226.21828"
     inkscape:cy="0"
     inkscape:window-width="1920"
     inkscape:window-height="1138"
     inkscape:window-x="-8"
     inkscape:window-y="-8"
     inkscape:window-maximized="1"
     inkscape:current-layer="layer1" />
  <defs
     id="defs2" />
  <g
     inkscape:label="Calque 1"
     inkscape:groupmode="layer"
     id="layer1"
     transform="translate(-32.818743,-66.331424)">
    <rect
       style="fill:#ffffff;fill-rule:evenodd;stroke:none;stroke-width:3.49999;stroke-linecap:round;stroke-linejoin:round;stroke-miterlimit:4;stroke-dasharray:none;paint-order:stroke markers fill"
       id="rect14467"
       width="7.4940238"
       height="9.0717125"
       x="37.654842"
       y="72.22583" />
    <rect
       style="fill:#ffffff;fill-rule:evenodd;stroke:none;stroke-width:4.18765;stroke-linecap:round;stroke-linejoin:round;stroke-miterlimit:4;stroke-dasharray:none;paint-order:stroke markers fill"
       id="rect14593"
       width="8.8745022"
       height="10.966496"
       x="103.27156"
       y="70.860214" />
    <rect
       style="fill:#ffffff;fill-rule:evenodd;stroke:none;stroke-width:4.06335;stroke-linecap:round;stroke-linejoin:round;stroke-miterlimit:4;stroke-dasharray:none;paint-order:stroke markers fill"
       id="rect14595"
       width="7.4940238"
       height="12.227091"
       x="65.171532"
       y="74.871666" />
    <rect
       style="fill:#ffffff;fill-rule:evenodd;stroke:none;stroke-width:4.97218;stroke-linecap:round;stroke-linejoin:round;stroke-miterlimit:4;stroke-dasharray:none;paint-order:stroke markers fill"
       id="rect14597"
       width="15.776893"
       height="8.6964836"
       x="47.648678"
       y="73.964516" />
    <rect
       style="fill:#ffffff;fill-rule:evenodd;stroke:none;stroke-width:5.56427;stroke-linecap:round;stroke-linejoin:round;stroke-miterlimit:4;stroke-dasharray:none;paint-order:stroke markers fill"
       id="rect14599"
       width="22.284861"
       height="7.7104278"
       x="74.6362"
       y="74.950569" />
    <rect
       style="fill:#ffffff;fill-rule:evenodd;stroke:none;stroke-width:7.62144;stroke-linecap:round;stroke-linejoin:round;stroke-miterlimit:4;stroke-dasharray:none;paint-order:stroke markers fill"
       id="rect14601"
       width="41.808765"
       height="7.7104278"
       x="115.38202"
       y="74.421402" />
    <g
       aria-label="Dungeon Crawler"
       id="text1772"
       style="font-size:25.4px;line-height:1.25;font-family:'Rose Of Baltimore';-inkscape-font-specification:'Rose Of Baltimore';fill:#1a1a1a;stroke:#ffffff;stroke-width:3.5;stroke-linecap:round;stroke-linejoin:round;stroke-miterlimit:4;stroke-dasharray:none;paint-order:stroke markers fill">
      <path
         d="m 45.109743,72.526401 v 0 q -1.3462,-1.3716 -3.9878,-1.7272 -0.5334,-0.0762 -1.0668,-0.381 v 0 q -0.4572,-0.3048 -1.27,-1.2192 -0.2032,-0.3302 -0.0508,-0.508 0,-0.0254 0.4318,-0.3048 l -0.3556,-0.304799 q -0.0762,0.0254 -0.5588,0.253999 -0.7366,0.3556 -1.0668,0.7366 -0.2032,0.2794 -0.2032,0.6096 0,0.3556 0.2286,0.762 0.1016,0.1778 0.508,0.4318 0.4318,0.254 0.6604,0.2794 0.5588,0.1778 1.5494,0.3302 1.3208,0.1778 1.5494,0.2286 0.4064,0.127 0.8382,0.2794 0.5334,0.1778 0.9144,0.5588 h 0.0254 q 1.2954,1.397 1.27,4.1148 0,2.3114 -0.9398,3.683 -1.0922,1.6256 -3.302,1.6002 -1.3208,0 -1.7272,-0.3556 -0.381,-0.381 -0.381,-1.651 l 0.0254,-4.0132 q 0,-1.4224 0.0762,-1.778 0.2032,-0.8636 0.9652,-1.397 l -0.4572,-0.381 q -1.0414,0.3556 -1.7018,1.3716 -0.3302,0.508 -0.6858,1.9812 v 0.6604 l -0.0254,4.1656 q 0,0.9144 -0.4572,1.1938 -0.3048,0.1778 -1.3462,0.2286 v 0.5588 l 6.0706,0.0508 q 2.667,0.0254 4.318,-1.5748 1.6764,-1.6256 1.7018,-4.2926 0,-2.4638 -1.5494,-4.191 z"
         style="font-family:Dungeon;-inkscape-font-specification:'Dungeon, Normal';stroke:#ffffff;stroke-width:3.5;stroke-linecap:round;stroke-linejoin:round;stroke-miterlimit:4;stroke-dasharray:none;paint-order:stroke markers fill"
         id="path14197" />
      <path
         d="m 53.948902,80.654401 0.0254,-5.8928 -2.794,-0.0254 v 0.5842 q 1.2446,0.0254 1.2446,1.4986 l 0.0254,4.1656 q -0.127,0.889 -1.5748,0.889 -0.9144,0 -1.6256,-0.4572 -0.8128,-0.5334 -0.8128,-1.397 0,-0.2794 0.0762,-0.508 0.4064,-1.143 0.8128,-2.5654 0.1016,-0.3556 0.1016,-0.7366 0,-1.6002 -1.9304,-1.7526 l -0.1524,0.3048 q 0.7874,0.4064 0.7874,1.2446 0,0.3302 -0.6604,2.1336 -0.3048,0.8382 -0.3048,1.4478 0,0.4064 0.1524,0.889 0.3048,0.9652 1.0922,1.6002 0.8128,0.6096 1.8034,0.6096 1.3716,0 2.2606,-0.6096 v 0.5842 h 2.667 l 0.0508,-0.508 q -1.2446,-0.0508 -1.2446,-1.4986 z"
         style="font-family:Dungeon;-inkscape-font-specification:'Dungeon, Normal';stroke:#ffffff;stroke-width:3.5;stroke-linecap:round;stroke-linejoin:round;stroke-miterlimit:4;stroke-dasharray:none;paint-order:stroke markers fill"
         id="path14199" />
      <path
         d="m 63.346864,80.578201 q 0.1016,-0.254 0.5588,-1.4224 0.3048,-0.7874 0.3048,-1.3208 0,-0.4572 -0.1778,-1.016 -0.7366,-2.2606 -2.921,-2.286 -1.3716,0 -2.5654,0.9398 0,-0.9144 -0.8128,-0.9906 -0.3048,-0.0254 -0.9398,0.254 0,0 -0.4064,0.2032 l -0.0254,0.381 0.2794,-0.1016 q 0.3048,-0.1524 0.3302,0.1524 0,0 0,0.1524 l -0.0254,5.0038 q 0,1.4478 -1.2446,1.4732 v 0.5842 l 4.0386,0.0254 v -0.5842 q -1.27,-0.0254 -1.2446,-1.4986 l 0.0508,-4.3942 q 0.8636,-0.6604 1.6764,-0.6604 0.889,0 1.651,0.5842 0.7874,0.5588 0.7874,1.4224 0,0.2794 -0.7874,2.286 -0.254,0.635 -0.254,1.27 0,1.9304 2.4892,2.3876 l 0.0508,-0.4572 q -0.9906,-0.1778 -0.9906,-1.3208 0,-0.4572 0.1778,-1.0668 z"
         style="font-family:Dungeon;-inkscape-font-specification:'Dungeon, Normal';stroke:#ffffff;stroke-width:3.5;stroke-linecap:round;stroke-linejoin:round;stroke-miterlimit:4;stroke-dasharray:none;paint-order:stroke markers fill"
         id="path14201" />
      <path
         d="m 72.694053,75.218801 q -0.7366,-0.3302 -1.016,-0.2794 -0.5588,0.1016 -0.7366,0.6604 l -0.0762,0.254 q -0.762,-0.889 -2.3368,-0.889 -1.7018,0 -2.7686,1.0668 -1.0414,1.0414 -1.0414,2.7432 0,1.7526 1.0414,2.8956 1.0414,1.143 2.7686,1.1684 1.6256,0 2.2606,-0.5334 v 2.4384 q 0,1.0414 -0.635,1.7526 -0.9398,0.7366 -1.5494,0.7366 -0.5334,0 -1.143,-0.381 -0.5842,-0.4064 -0.6858,-0.9144 -0.127,-0.4064 0.4318,-0.635 l -0.2032,-0.3048 q -1.27,0.762 -1.4224,1.3208 -0.127,0.4318 0.762,1.2446 0.889,0.7874 1.3462,0.7874 1.0414,0 2.286,-0.6858 0.508,-0.3048 1.524,-0.9144 0.6604,-0.381 0.7874,-1.3716 0.0508,-0.3302 0.0508,-1.6764 l 0.0508,-7.493 q 0,0 0,-0.254 0,-0.127 0.1778,-0.1778 0.1778,-0.0762 0.3048,-0.0508 l 0.254,0.127 v -0.381 q -0.0762,-0.0508 -0.4318,-0.254 z m -1.905,5.8674 q 0,1.0414 -1.9558,1.016 -1.1684,0 -1.905,-1.143 -0.635,-0.9652 -0.635,-2.2098 0,-1.1684 0.5334,-2.0574 0.6604,-1.0668 1.7526,-1.0668 0.7366,0 1.397,0.381 0.762,0.4572 0.8382,1.1176 z"
         style="font-family:Dungeon;-inkscape-font-specification:'Dungeon, Normal';stroke:#ffffff;stroke-width:3.5;stroke-linecap:round;stroke-linejoin:round;stroke-miterlimit:4;stroke-dasharray:none;paint-order:stroke markers fill"
         id="path14203" />
      <path
         d="m 77.697848,82.127601 q -2.3876,-0.0254 -2.3622,-3.683 l 2.0828,0.0254 v -0.6604 h -2.0574 q 0.0254,-0.9906 0.4826,-1.6764 0.5334,-0.7874 1.4732,-0.7874 1.27,0.0254 1.6002,1.3208 h 1.3716 q -0.8382,-1.9812 -2.8702,-2.0066 -1.7272,0 -2.7432,1.2192 -1.016,1.1938 -1.0414,2.9464 0,1.7272 1.0414,2.8702 1.0414,1.143 2.7432,1.143 2.032,0.0254 3.2004,-1.8288 l -0.5334,-0.2794 q -1.016,1.397 -2.3876,1.397 z"
         style="font-family:Dungeon;-inkscape-font-specification:'Dungeon, Normal';stroke:#ffffff;stroke-width:3.5;stroke-linecap:round;stroke-linejoin:round;stroke-miterlimit:4;stroke-dasharray:none;paint-order:stroke markers fill"
         id="path14205" />
      <path
         d="m 87.019603,82.330801 q -1.0668,0.5334 -2.032,0.5334 -2.1844,0 -3.3274,-2.286 -0.5334,-1.0668 -0.5334,-2.1336 0,-2.286 2.286,-3.429 1.016,-0.508 1.9812,-0.508 2.2098,0 3.429,2.413 0.4826,0.9652 0.4826,1.9558 0,2.3114 -2.286,3.4544 z m -3.3782,-6.8072 q -1.1938,0.5842 -1.1938,1.8796 0,0.9652 0.762,2.4892 1.1176,2.2098 2.6162,2.2098 0.4572,0 0.9652,-0.254 1.1684,-0.5842 1.1684,-1.9304 0,-0.9652 -0.635,-2.2098 -1.2446,-2.4384 -2.667,-2.4384 -0.4826,0 -1.016,0.254 z"
         style="font-family:Dungeon;-inkscape-font-specification:'Dungeon, Normal';stroke:#ffffff;stroke-width:3.5;stroke-linecap:round;stroke-linejoin:round;stroke-miterlimit:4;stroke-dasharray:none;paint-order:stroke markers fill"
         id="path14207" />
      <path
         d="m 97.458978,80.578201 q 0.1016,-0.254 0.5588,-1.4224 0.3048,-0.7874 0.3048,-1.3208 0,-0.4572 -0.1778,-1.016 -0.7366,-2.2606 -2.921,-2.286 -1.3716,0 -2.5654,0.9398 0,-0.9144 -0.8128,-0.9906 -0.3048,-0.0254 -0.9398,0.254 0,0 -0.4064,0.2032 l -0.0254,0.381 0.2794,-0.1016 q 0.3048,-0.1524 0.3302,0.1524 0,0 0,0.1524 l -0.0254,5.0038 q 0,1.4478 -1.2446,1.4732 v 0.5842 l 4.0386,0.0254 v -0.5842 q -1.27,-0.0254 -1.2446,-1.4986 l 0.0508,-4.3942 q 0.8636,-0.6604 1.6764,-0.6604 0.889,0 1.651,0.5842 0.7874,0.5588 0.7874,1.4224 0,0.2794 -0.7874,2.286 -0.254,0.635 -0.254,1.27 0,1.9304 2.4892,2.3876 l 0.0508,-0.4572 q -0.9906,-0.1778 -0.9906,-1.3208 0,-0.4572 0.1778,-1.0668 z"
         style="font-family:Dungeon;-inkscape-font-specification:'Dungeon, Normal';stroke:#ffffff;stroke-width:3.5;stroke-linecap:round;stroke-linejoin:round;stroke-miterlimit:4;stroke-dasharray:none;paint-order:stroke markers fill"
         id="path14209" />
      <path
         d="m 112.29256,79.105001 q -0.4826,1.2446 -1.6764,2.0828 -1.1938,0.8128 -2.5146,0.8128 -2.159,-0.0254 -3.2766,-1.8034 -0.9652,-1.4986 -0.9398,-3.7846 0,-2.1336 0.889,-3.6576 1.0668,-1.8542 3.048,-1.8288 1.6256,0 2.7178,1.143 v 0 q 0.1524,0.1778 0.4826,0.9398 0.0762,0.3556 -0.2286,0.762 l -0.2032,0.2794 0.4318,0.127 q 0.4064,-0.4064 0.7874,-0.9906 0.2286,-0.3302 0.2286,-0.5842 0.0254,-0.6096 -0.5588,-1.0414 v -0.0254 q -0.1524,-0.1016 -0.4318,-0.2794 v 0 q -1.5748,-0.9652 -3.2766,-0.9652 -2.6162,-0.0254 -4.2672,1.905 -1.5748,1.8288 -1.5748,4.4958 0,2.6416 1.524,4.3688 1.6002,1.8034 4.191,1.8288 1.7018,0 3.1496,-0.889 1.4478,-0.889 2.1082,-2.413 z"
         style="font-family:Dungeon;-inkscape-font-specification:'Dungeon, Normal';stroke:#ffffff;stroke-width:3.5;stroke-linecap:round;stroke-linejoin:round;stroke-miterlimit:4;stroke-dasharray:none;paint-order:stroke markers fill"
         id="path14211" />
      <path
         d="m 119.50615,75.599801 q -0.889,-0.9144 -1.8796,-0.9144 -0.6858,0 -1.4732,0.381 -0.254,-0.508 -0.7112,-0.5588 -0.3302,-0.0254 -0.9652,0.254 -0.2286,0.127 -0.4064,0.2286 v 0.3556 l 0.254,-0.1016 q 0.3302,-0.127 0.3302,0.1524 0.0254,0.0762 0.0254,0.1524 l -0.0254,5.0038 q 0,1.4478 -1.2446,1.4732 v 0.5842 l 4.0386,0.0254 v -0.5842 q -1.2446,-0.0254 -1.2446,-1.4986 l 0.0254,-3.2512 q 0,-0.762 0.381,-1.3208 0.4064,-0.6604 1.143,-0.635 1.143,0.0254 1.143,0.9906 0,0.3556 -0.3048,0.5842 l 0.254,0.381 q 0.9906,-0.4318 0.9906,-1.0414 0,-0.3048 -0.3302,-0.6604 z"
         style="font-family:Dungeon;-inkscape-font-specification:'Dungeon, Normal';stroke:#ffffff;stroke-width:3.5;stroke-linecap:round;stroke-linejoin:round;stroke-miterlimit:4;stroke-dasharray:none;paint-order:stroke markers fill"
         id="path14213" />
      <path
         d="m 129.25972,81.340201 q 0,0.0508 -0.0508,0.127 -0.1016,0.3556 -0.1778,0.4318 -0.0762,0.0762 -0.4064,0.0508 -0.4826,-0.0254 -0.4826,-0.8128 l 0.0254,-5.2578 q 0,0 0,-0.2794 0,-0.127 0.1778,-0.2032 0.1778,-0.0508 0.3048,0 l 0.2794,0.127 v -0.4064 q -0.1524,-0.1016 -0.4572,-0.254 -0.7112,-0.3556 -1.0414,-0.2794 -0.508,0.0762 -0.7112,0.6858 -0.0254,0.0508 -0.1016,0.254 -0.762,-0.9144 -2.3622,-0.9144 -1.7272,0 -2.8194,1.0668 -1.0668,1.0668 -1.0668,2.8194 -0.0254,1.7526 1.0668,2.9464 1.0922,1.1684 2.8194,1.1684 1.778,0 2.4384,-0.6858 0.3556,0.9144 1.4224,0.9144 1.2954,0.0254 1.7018,-1.4986 z m -4.699,0.508 q -1.1938,0 -1.9304,-1.143 -0.6604,-0.9906 -0.6604,-2.2606 0,-1.2192 0.5588,-2.1082 0.635,-1.0668 1.778,-1.0414 0.7366,0 1.397,0.381 0.7874,0.4572 0.8636,1.1176 l -0.0254,4.0132 q 0,1.0668 -1.9812,1.0414 z"
         style="font-family:Dungeon;-inkscape-font-specification:'Dungeon, Normal';stroke:#ffffff;stroke-width:3.5;stroke-linecap:round;stroke-linejoin:round;stroke-miterlimit:4;stroke-dasharray:none;paint-order:stroke markers fill"
         id="path14215" />
      <path
         d="m 141.85811,75.447401 v -0.5842 l -4.0386,-0.0254 v 0.5842 q 1.27,0.0254 1.2446,1.4986 l -0.0254,0.9906 v 2.6162 q 0,0.254 -0.0508,0.508 -0.127,0.3302 -0.508,0.6604 -0.381,0.3302 -0.7112,0.3302 v 0 q -0.3302,0.0762 -0.5588,0.0762 -0.8382,0.0508 -1.4732,-0.7874 -0.5842,-0.7366 -0.5842,-1.6002 0,-0.5588 0.2286,-1.0668 0.4318,-0.9398 1.1176,-2.5654 0.3556,-0.8128 0.0508,-1.2192 -0.2032,-0.2794 -0.635,-0.2794 -0.3556,0 -0.8128,0.254 -0.3556,0.2032 -0.7366,0.4064 v 0.381 q 0.3302,-0.127 0.5334,-0.127 0.1016,0 0.1778,0.0254 0.3302,0.2032 0.3302,0.4572 0,0.1016 -0.0762,0.2286 -0.254,0.5588 -1.143,2.4892 -0.254,0.5588 -0.254,1.2446 0,1.0922 0.7366,1.8542 -0.4064,0.254 -1.0668,0.2794 -0.8382,0.0254 -1.4732,-0.7874 -0.5842,-0.7366 -0.5842,-1.6002 0,-0.5588 0.2286,-1.0668 0.4318,-0.9398 1.1176,-2.5654 0.3556,-0.8128 0.0508,-1.2192 -0.2032,-0.2794 -0.635,-0.2794 -0.3556,0 -0.8128,0.254 -0.3556,0.2032 -0.7366,0.4064 v 0.381 q 0.508,-0.2032 0.7112,-0.0762 0.3302,0.1778 0.3302,0.4318 0,0.1016 -0.0762,0.2286 -0.2794,0.5842 -1.143,2.4892 -0.254,0.5588 -0.254,1.2446 0,1.1684 0.8382,2.0066 0.8636,0.8128 2.032,0.8128 0.8636,0 1.8034,-0.635 0.8128,0.635 1.6256,0.635 1.8288,0 2.3876,-0.7112 v 0.5842 h 2.794 v -0.5588 q -1.2192,-0.0508 -1.2192,-1.4986 l 0.0254,-3.6322 q 0.0254,-1.4478 1.2446,-1.4732 z"
         style="font-family:Dungeon;-inkscape-font-specification:'Dungeon, Normal';stroke:#ffffff;stroke-width:3.5;stroke-linecap:round;stroke-linejoin:round;stroke-miterlimit:4;stroke-dasharray:none;paint-order:stroke markers fill"
         id="path14217" />
      <path
         d="m 145.16008,80.527401 0.0762,-9.4488 q 0.0508,-1.1176 -0.8128,-1.2446 -0.3302,-0.0508 -0.9398,0.254 0,0 -0.4064,0.2032 l -0.0254,0.381 0.2794,-0.127 q 0.3048,-0.1524 0.3302,0.1778 0,0 0,0.127 l -0.0508,9.6774 q 0,1.4732 -1.2446,1.4732 v 0.5842 l 4.0386,0.0254 v -0.5842 q -1.2446,-0.0254 -1.2446,-1.4986 z"
         style="font-family:Dungeon;-inkscape-font-specification:'Dungeon, Normal';stroke:#ffffff;stroke-width:3.5;stroke-linecap:round;stroke-linejoin:round;stroke-miterlimit:4;stroke-dasharray:none;paint-order:stroke markers fill"
         id="path14219" />
      <path
         d="m 150.97666,82.127601 q -2.3876,-0.0254 -2.3622,-3.683 l 2.0828,0.0254 v -0.6604 h -2.0574 q 0.0254,-0.9906 0.4826,-1.6764 0.5334,-0.7874 1.4732,-0.7874 1.27,0.0254 1.6002,1.3208 h 1.3716 q -0.8382,-1.9812 -2.8702,-2.0066 -1.7272,0 -2.7432,1.2192 -1.016,1.1938 -1.0414,2.9464 0,1.7272 1.0414,2.8702 1.0414,1.143 2.7432,1.143 2.032,0.0254 3.2004,-1.8288 l -0.5334,-0.2794 q -1.016,1.397 -2.3876,1.397 z"
         style="font-family:Dungeon;-inkscape-font-specification:'Dungeon, Normal';stroke:#ffffff;stroke-width:3.5;stroke-linecap:round;stroke-linejoin:round;stroke-miterlimit:4;stroke-dasharray:none;paint-order:stroke markers fill"
         id="path14221" />
      <path
         d="m 160.50161,75.599801 q -0.889,-0.9144 -1.8796,-0.9144 -0.6858,0 -1.4732,0.381 -0.254,-0.508 -0.7112,-0.5588 -0.3302,-0.0254 -0.9652,0.254 -0.2286,0.127 -0.4064,0.2286 v 0.3556 l 0.254,-0.1016 q 0.3302,-0.127 0.3302,0.1524 0.0254,0.0762 0.0254,0.1524 l -0.0254,5.0038 q 0,1.4478 -1.2446,1.4732 v 0.5842 l 4.0386,0.0254 v -0.5842 q -1.2446,-0.0254 -1.2446,-1.4986 l 0.0254,-3.2512 q 0,-0.762 0.381,-1.3208 0.4064,-0.6604 1.143,-0.635 1.143,0.0254 1.143,0.9906 0,0.3556 -0.3048,0.5842 l 0.254,0.381 q 0.9906,-0.4318 0.9906,-1.0414 0,-0.3048 -0.3302,-0.6604 z"
         style="font-family:Dungeon;-inkscape-font-specification:'Dungeon, Normal';stroke:#ffffff;stroke-width:3.5;stroke-linecap:round;stroke-linejoin:round;stroke-miterlimit:4;stroke-dasharray:none;paint-order:stroke markers fill"
         id="path14223" />
    </g>
    <g
       aria-label="Dungeon Crawler"
       id="g14353"
       style="font-size:25.4px;line-height:1.25;font-family:'Rose Of Baltimore';-inkscape-font-specification:'Rose Of Baltimore';fill:#1a1a1a;stroke-width:0.264583">
      <path
         d="m 45.109743,72.526401 v 0 q -1.3462,-1.3716 -3.9878,-1.7272 -0.5334,-0.0762 -1.0668,-0.381 v 0 q -0.4572,-0.3048 -1.27,-1.2192 -0.2032,-0.3302 -0.0508,-0.508 0,-0.0254 0.4318,-0.3048 l -0.3556,-0.304799 q -0.0762,0.0254 -0.5588,0.253999 -0.7366,0.3556 -1.0668,0.7366 -0.2032,0.2794 -0.2032,0.6096 0,0.3556 0.2286,0.762 0.1016,0.1778 0.508,0.4318 0.4318,0.254 0.6604,0.2794 0.5588,0.1778 1.5494,0.3302 1.3208,0.1778 1.5494,0.2286 0.4064,0.127 0.8382,0.2794 0.5334,0.1778 0.9144,0.5588 h 0.0254 q 1.2954,1.397 1.27,4.1148 0,2.3114 -0.9398,3.683 -1.0922,1.6256 -3.302,1.6002 -1.3208,0 -1.7272,-0.3556 -0.381,-0.381 -0.381,-1.651 l 0.0254,-4.0132 q 0,-1.4224 0.0762,-1.778 0.2032,-0.8636 0.9652,-1.397 l -0.4572,-0.381 q -1.0414,0.3556 -1.7018,1.3716 -0.3302,0.508 -0.6858,1.9812 v 0.6604 l -0.0254,4.1656 q 0,0.9144 -0.4572,1.1938 -0.3048,0.1778 -1.3462,0.2286 v 0.5588 l 6.0706,0.0508 q 2.667,0.0254 4.318,-1.5748 1.6764,-1.6256 1.7018,-4.2926 0,-2.4638 -1.5494,-4.191 z"
         style="font-family:Dungeon;-inkscape-font-specification:'Dungeon, Normal'"
         id="path14325" />
      <path
         d="m 53.948902,80.654401 0.0254,-5.8928 -2.794,-0.0254 v 0.5842 q 1.2446,0.0254 1.2446,1.4986 l 0.0254,4.1656 q -0.127,0.889 -1.5748,0.889 -0.9144,0 -1.6256,-0.4572 -0.8128,-0.5334 -0.8128,-1.397 0,-0.2794 0.0762,-0.508 0.4064,-1.143 0.8128,-2.5654 0.1016,-0.3556 0.1016,-0.7366 0,-1.6002 -1.9304,-1.7526 l -0.1524,0.3048 q 0.7874,0.4064 0.7874,1.2446 0,0.3302 -0.6604,2.1336 -0.3048,0.8382 -0.3048,1.4478 0,0.4064 0.1524,0.889 0.3048,0.9652 1.0922,1.6002 0.8128,0.6096 1.8034,0.6096 1.3716,0 2.2606,-0.6096 v 0.5842 h 2.667 l 0.0508,-0.508 q -1.2446,-0.0508 -1.2446,-1.4986 z"
         style="font-family:Dungeon;-inkscape-font-specification:'Dungeon, Normal'"
         id="path14327" />
      <path
         d="m 63.346864,80.578201 q 0.1016,-0.254 0.5588,-1.4224 0.3048,-0.7874 0.3048,-1.3208 0,-0.4572 -0.1778,-1.016 -0.7366,-2.2606 -2.921,-2.286 -1.3716,0 -2.5654,0.9398 0,-0.9144 -0.8128,-0.9906 -0.3048,-0.0254 -0.9398,0.254 0,0 -0.4064,0.2032 l -0.0254,0.381 0.2794,-0.1016 q 0.3048,-0.1524 0.3302,0.1524 0,0 0,0.1524 l -0.0254,5.0038 q 0,1.4478 -1.2446,1.4732 v 0.5842 l 4.0386,0.0254 v -0.5842 q -1.27,-0.0254 -1.2446,-1.4986 l 0.0508,-4.3942 q 0.8636,-0.6604 1.6764,-0.6604 0.889,0 1.651,0.5842 0.7874,0.5588 0.7874,1.4224 0,0.2794 -0.7874,2.286 -0.254,0.635 -0.254,1.27 0,1.9304 2.4892,2.3876 l 0.0508,-0.4572 q -0.9906,-0.1778 -0.9906,-1.3208 0,-0.4572 0.1778,-1.0668 z"
         style="font-family:Dungeon;-inkscape-font-specification:'Dungeon, Normal'"
         id="path14329" />
      <path
         d="m 72.694053,75.218801 q -0.7366,-0.3302 -1.016,-0.2794 -0.5588,0.1016 -0.7366,0.6604 l -0.0762,0.254 q -0.762,-0.889 -2.3368,-0.889 -1.7018,0 -2.7686,1.0668 -1.0414,1.0414 -1.0414,2.7432 0,1.7526 1.0414,2.8956 1.0414,1.143 2.7686,1.1684 1.6256,0 2.2606,-0.5334 v 2.4384 q 0,1.0414 -0.635,1.7526 -0.9398,0.7366 -1.5494,0.7366 -0.5334,0 -1.143,-0.381 -0.5842,-0.4064 -0.6858,-0.9144 -0.127,-0.4064 0.4318,-0.635 l -0.2032,-0.3048 q -1.27,0.762 -1.4224,1.3208 -0.127,0.4318 0.762,1.2446 0.889,0.7874 1.3462,0.7874 1.0414,0 2.286,-0.6858 0.508,-0.3048 1.524,-0.9144 0.6604,-0.381 0.7874,-1.3716 0.0508,-0.3302 0.0508,-1.6764 l 0.0508,-7.493 q 0,0 0,-0.254 0,-0.127 0.1778,-0.1778 0.1778,-0.0762 0.3048,-0.0508 l 0.254,0.127 v -0.381 q -0.0762,-0.0508 -0.4318,-0.254 z m -1.905,5.8674 q 0,1.0414 -1.9558,1.016 -1.1684,0 -1.905,-1.143 -0.635,-0.9652 -0.635,-2.2098 0,-1.1684 0.5334,-2.0574 0.6604,-1.0668 1.7526,-1.0668 0.7366,0 1.397,0.381 0.762,0.4572 0.8382,1.1176 z"
         style="font-family:Dungeon;-inkscape-font-specification:'Dungeon, Normal'"
         id="path14331" />
      <path
         d="m 77.697848,82.127601 q -2.3876,-0.0254 -2.3622,-3.683 l 2.0828,0.0254 v -0.6604 h -2.0574 q 0.0254,-0.9906 0.4826,-1.6764 0.5334,-0.7874 1.4732,-0.7874 1.27,0.0254 1.6002,1.3208 h 1.3716 q -0.8382,-1.9812 -2.8702,-2.0066 -1.7272,0 -2.7432,1.2192 -1.016,1.1938 -1.0414,2.9464 0,1.7272 1.0414,2.8702 1.0414,1.143 2.7432,1.143 2.032,0.0254 3.2004,-1.8288 l -0.5334,-0.2794 q -1.016,1.397 -2.3876,1.397 z"
         style="font-family:Dungeon;-inkscape-font-specification:'Dungeon, Normal'"
         id="path14333" />
      <path
         d="m 87.019603,82.330801 q -1.0668,0.5334 -2.032,0.5334 -2.1844,0 -3.3274,-2.286 -0.5334,-1.0668 -0.5334,-2.1336 0,-2.286 2.286,-3.429 1.016,-0.508 1.9812,-0.508 2.2098,0 3.429,2.413 0.4826,0.9652 0.4826,1.9558 0,2.3114 -2.286,3.4544 z m -3.3782,-6.8072 q -1.1938,0.5842 -1.1938,1.8796 0,0.9652 0.762,2.4892 1.1176,2.2098 2.6162,2.2098 0.4572,0 0.9652,-0.254 1.1684,-0.5842 1.1684,-1.9304 0,-0.9652 -0.635,-2.2098 -1.2446,-2.4384 -2.667,-2.4384 -0.4826,0 -1.016,0.254 z"
         style="font-family:Dungeon;-inkscape-font-specification:'Dungeon, Normal'"
         id="path14335" />
      <path
         d="m 97.458978,80.578201 q 0.1016,-0.254 0.5588,-1.4224 0.3048,-0.7874 0.3048,-1.3208 0,-0.4572 -0.1778,-1.016 -0.7366,-2.2606 -2.921,-2.286 -1.3716,0 -2.5654,0.9398 0,-0.9144 -0.8128,-0.9906 -0.3048,-0.0254 -0.9398,0.254 0,0 -0.4064,0.2032 l -0.0254,0.381 0.2794,-0.1016 q 0.3048,-0.1524 0.3302,0.1524 0,0 0,0.1524 l -0.0254,5.0038 q 0,1.4478 -1.2446,1.4732 v 0.5842 l 4.0386,0.0254 v -0.5842 q -1.27,-0.0254 -1.2446,-1.4986 l 0.0508,-4.3942 q 0.8636,-0.6604 1.6764,-0.6604 0.889,0 1.651,0.5842 0.7874,0.5588 0.7874,1.4224 0,0.2794 -0.7874,2.286 -0.254,0.635 -0.254,1.27 0,1.9304 2.4892,2.3876 l 0.0508,-0.4572 q -0.9906,-0.1778 -0.9906,-1.3208 0,-0.4572 0.1778,-1.0668 z"
         style="font-family:Dungeon;-inkscape-font-specification:'Dungeon, Normal'"
         id="path14337" />
      <path
         d="m 112.29256,79.105001 q -0.4826,1.2446 -1.6764,2.0828 -1.1938,0.8128 -2.5146,0.8128 -2.159,-0.0254 -3.2766,-1.8034 -0.9652,-1.4986 -0.9398,-3.7846 0,-2.1336 0.889,-3.6576 1.0668,-1.8542 3.048,-1.8288 1.6256,0 2.7178,1.143 v 0 q 0.1524,0.1778 0.4826,0.9398 0.0762,0.3556 -0.2286,0.762 l -0.2032,0.2794 0.4318,0.127 q 0.4064,-0.4064 0.7874,-0.9906 0.2286,-0.3302 0.2286,-0.5842 0.0254,-0.6096 -0.5588,-1.0414 v -0.0254 q -0.1524,-0.1016 -0.4318,-0.2794 v 0 q -1.5748,-0.9652 -3.2766,-0.9652 -2.6162,-0.0254 -4.2672,1.905 -1.5748,1.8288 -1.5748,4.4958 0,2.6416 1.524,4.3688 1.6002,1.8034 4.191,1.8288 1.7018,0 3.1496,-0.889 1.4478,-0.889 2.1082,-2.413 z"
         style="font-family:Dungeon;-inkscape-font-specification:'Dungeon, Normal'"
         id="path14339" />
      <path
         d="m 119.50615,75.599801 q -0.889,-0.9144 -1.8796,-0.9144 -0.6858,0 -1.4732,0.381 -0.254,-0.508 -0.7112,-0.5588 -0.3302,-0.0254 -0.9652,0.254 -0.2286,0.127 -0.4064,0.2286 v 0.3556 l 0.254,-0.1016 q 0.3302,-0.127 0.3302,0.1524 0.0254,0.0762 0.0254,0.1524 l -0.0254,5.0038 q 0,1.4478 -1.2446,1.4732 v 0.5842 l 4.0386,0.0254 v -0.5842 q -1.2446,-0.0254 -1.2446,-1.4986 l 0.0254,-3.2512 q 0,-0.762 0.381,-1.3208 0.4064,-0.6604 1.143,-0.635 1.143,0.0254 1.143,0.9906 0,0.3556 -0.3048,0.5842 l 0.254,0.381 q 0.9906,-0.4318 0.9906,-1.0414 0,-0.3048 -0.3302,-0.6604 z"
         style="font-family:Dungeon;-inkscape-font-specification:'Dungeon, Normal'"
         id="path14341" />
      <path
         d="m 129.25972,81.340201 q 0,0.0508 -0.0508,0.127 -0.1016,0.3556 -0.1778,0.4318 -0.0762,0.0762 -0.4064,0.0508 -0.4826,-0.0254 -0.4826,-0.8128 l 0.0254,-5.2578 q 0,0 0,-0.2794 0,-0.127 0.1778,-0.2032 0.1778,-0.0508 0.3048,0 l 0.2794,0.127 v -0.4064 q -0.1524,-0.1016 -0.4572,-0.254 -0.7112,-0.3556 -1.0414,-0.2794 -0.508,0.0762 -0.7112,0.6858 -0.0254,0.0508 -0.1016,0.254 -0.762,-0.9144 -2.3622,-0.9144 -1.7272,0 -2.8194,1.0668 -1.0668,1.0668 -1.0668,2.8194 -0.0254,1.7526 1.0668,2.9464 1.0922,1.1684 2.8194,1.1684 1.778,0 2.4384,-0.6858 0.3556,0.9144 1.4224,0.9144 1.2954,0.0254 1.7018,-1.4986 z m -4.699,0.508 q -1.1938,0 -1.9304,-1.143 -0.6604,-0.9906 -0.6604,-2.2606 0,-1.2192 0.5588,-2.1082 0.635,-1.0668 1.778,-1.0414 0.7366,0 1.397,0.381 0.7874,0.4572 0.8636,1.1176 l -0.0254,4.0132 q 0,1.0668 -1.9812,1.0414 z"
         style="font-family:Dungeon;-inkscape-font-specification:'Dungeon, Normal'"
         id="path14343" />
      <path
         d="m 141.85811,75.447401 v -0.5842 l -4.0386,-0.0254 v 0.5842 q 1.27,0.0254 1.2446,1.4986 l -0.0254,0.9906 v 2.6162 q 0,0.254 -0.0508,0.508 -0.127,0.3302 -0.508,0.6604 -0.381,0.3302 -0.7112,0.3302 v 0 q -0.3302,0.0762 -0.5588,0.0762 -0.8382,0.0508 -1.4732,-0.7874 -0.5842,-0.7366 -0.5842,-1.6002 0,-0.5588 0.2286,-1.0668 0.4318,-0.9398 1.1176,-2.5654 0.3556,-0.8128 0.0508,-1.2192 -0.2032,-0.2794 -0.635,-0.2794 -0.3556,0 -0.8128,0.254 -0.3556,0.2032 -0.7366,0.4064 v 0.381 q 0.3302,-0.127 0.5334,-0.127 0.1016,0 0.1778,0.0254 0.3302,0.2032 0.3302,0.4572 0,0.1016 -0.0762,0.2286 -0.254,0.5588 -1.143,2.4892 -0.254,0.5588 -0.254,1.2446 0,1.0922 0.7366,1.8542 -0.4064,0.254 -1.0668,0.2794 -0.8382,0.0254 -1.4732,-0.7874 -0.5842,-0.7366 -0.5842,-1.6002 0,-0.5588 0.2286,-1.0668 0.4318,-0.9398 1.1176,-2.5654 0.3556,-0.8128 0.0508,-1.2192 -0.2032,-0.2794 -0.635,-0.2794 -0.3556,0 -0.8128,0.254 -0.3556,0.2032 -0.7366,0.4064 v 0.381 q 0.508,-0.2032 0.7112,-0.0762 0.3302,0.1778 0.3302,0.4318 0,0.1016 -0.0762,0.2286 -0.2794,0.5842 -1.143,2.4892 -0.254,0.5588 -0.254,1.2446 0,1.1684 0.8382,2.0066 0.8636,0.8128 2.032,0.8128 0.8636,0 1.8034,-0.635 0.8128,0.635 1.6256,0.635 1.8288,0 2.3876,-0.7112 v 0.5842 h 2.794 v -0.5588 q -1.2192,-0.0508 -1.2192,-1.4986 l 0.0254,-3.6322 q 0.0254,-1.4478 1.2446,-1.4732 z"
         style="font-family:Dungeon;-inkscape-font-specification:'Dungeon, Normal'"
         id="path14345" />
      <path
         d="m 145.16008,80.527401 0.0762,-9.4488 q 0.0508,-1.1176 -0.8128,-1.2446 -0.3302,-0.0508 -0.9398,0.254 0,0 -0.4064,0.2032 l -0.0254,0.381 0.2794,-0.127 q 0.3048,-0.1524 0.3302,0.1778 0,0 0,0.127 l -0.0508,9.6774 q 0,1.4732 -1.2446,1.4732 v 0.5842 l 4.0386,0.0254 v -0.5842 q -1.2446,-0.0254 -1.2446,-1.4986 z"
         style="font-family:Dungeon;-inkscape-font-specification:'Dungeon, Normal'"
         id="path14347" />
      <path
         d="m 150.97666,82.127601 q -2.3876,-0.0254 -2.3622,-3.683 l 2.0828,0.0254 v -0.6604 h -2.0574 q 0.0254,-0.9906 0.4826,-1.6764 0.5334,-0.7874 1.4732,-0.7874 1.27,0.0254 1.6002,1.3208 h 1.3716 q -0.8382,-1.9812 -2.8702,-2.0066 -1.7272,0 -2.7432,1.2192 -1.016,1.1938 -1.0414,2.9464 0,1.7272 1.0414,2.8702 1.0414,1.143 2.7432,1.143 2.032,0.0254 3.2004,-1.8288 l -0.5334,-0.2794 q -1.016,1.397 -2.3876,1.397 z"
         style="font-family:Dungeon;-inkscape-font-specification:'Dungeon, Normal'"
         id="path14349" />
      <path
         d="m 160.50161,75.599801 q -0.889,-0.9144 -1.8796,-0.9144 -0.6858,0 -1.4732,0.381 -0.254,-0.508 -0.7112,-0.5588 -0.3302,-0.0254 -0.9652,0.254 -0.2286,0.127 -0.4064,0.2286 v 0.3556 l 0.254,-0.1016 q 0.3302,-0.127 0.3302,0.1524 0.0254,0.0762 0.0254,0.1524 l -0.0254,5.0038 q 0,1.4478 -1.2446,1.4732 v 0.5842 l 4.0386,0.0254 v -0.5842 q -1.2446,-0.0254 -1.2446,-1.4986 l 0.0254,-3.2512 q 0,-0.762 0.381,-1.3208 0.4064,-0.6604 1.143,-0.635 1.143,0.0254 1.143,0.9906 0,0.3556 -0.3048,0.5842 l 0.254,0.381 q 0.9906,-0.4318 0.9906,-1.0414 0,-0.3048 -0.3302,-0.6604 z"
         style="font-family:Dungeon;-inkscape-font-specification:'Dungeon, Normal'"
         id="path14351" />
    </g>
  </g>
</svg>
