<?xml version="1.0" encoding="UTF-8" standalone="no"?>
<svg
   viewBox="0 0 132.88992 23.75"
   version="1.1"
   id="svg7"
   sodipodi:docname="auto-lightgun.svg"
   inkscape:version="1.1 (c68e22c387, 2021-05-23)"
   width="132.88992"
   height="23.75"
   xmlns:inkscape="http://www.inkscape.org/namespaces/inkscape"
   xmlns:sodipodi="http://sodipodi.sourceforge.net/DTD/sodipodi-0.dtd"
   xmlns="http://www.w3.org/2000/svg"
   xmlns:svg="http://www.w3.org/2000/svg">
  <defs
     id="defs11">
    <linearGradient
       id="linearGradient1773"
       inkscape:swatch="solid">
      <stop
         style="stop-color:#ffffff;stop-opacity:1;"
         offset="0"
         id="stop1771" />
    </linearGradient>
  </defs>
  <sodipodi:namedview
     id="namedview9"
     pagecolor="#ffffff"
     bordercolor="#666666"
     borderopacity="1.0"
     inkscape:pageshadow="2"
     inkscape:pageopacity="0.0"
     inkscape:pagecheckerboard="0"
     showgrid="false"
     inkscape:zoom="5.5649999"
     inkscape:cx="67.834682"
     inkscape:cy="26.415095"
     inkscape:window-width="1920"
     inkscape:window-height="1138"
     inkscape:window-x="-8"
     inkscape:window-y="-8"
     inkscape:window-maximized="1"
     inkscape:current-layer="svg7"
     fit-margin-top="0"
     fit-margin-left="0"
     fit-margin-right="0"
     fit-margin-bottom="0" />
  <g
     id="g1093"
     transform="translate(-2.9499437,-2.95)">
    <g
       id="g1086">
      <rect
         style="fill:#ffffff;fill-rule:evenodd;stroke:none;stroke-width:7.83231;stroke-linecap:round;stroke-linejoin:round;stroke-miterlimit:4;stroke-dasharray:none;paint-order:stroke markers fill"
         id="rect945"
         width="22.461815"
         height="18.867926"
         x="37.906178"
         y="5.4499998" />
      <rect
         style="fill:#ffffff;fill-rule:evenodd;stroke:none;stroke-width:9.81689;stroke-linecap:round;stroke-linejoin:round;stroke-miterlimit:4;stroke-dasharray:none;paint-order:stroke markers fill"
         id="rect1063"
         width="42.587601"
         height="15.633424"
         x="86.558083"
         y="6.6845012" />
      <path
         d="m 17.239904,19.4 -0.84,4.8 H 4.9999044 l 3.3,-18.75 h 5.6999996 l -2.46,13.95 z m 6,4.8 h -5.7 l 3.3,-18.75 h 5.7 z m 13.74,-5.52 v 0 l 0.15,-0.81 h -1.44 l 0.81,-4.59 h 6.87 l -1.77,10.02 v 0 c -2.44,0.9 -4.89,1.35 -7.35,1.35 v 0 0 c -2.46,0 -4.237,-0.49 -5.33,-1.47 v 0 0 c -1.087,-0.98 -1.63,-2.49 -1.63,-4.53 v 0 0 c 0,-0.86 0.14,-2.13 0.42,-3.81 v 0 0 c 0.6,-3.48 1.66,-5.99 3.18,-7.53 v 0 0 c 1.52,-1.54 4.04,-2.31 7.56,-2.31 v 0 0 c 0.74,0 1.683,0.08 2.83,0.24 v 0 0 c 1.153,0.16 2,0.34 2.54,0.54 v 0 l -1.65,4.59 v 0 c -1.5,-0.28 -2.877,-0.42 -4.13,-0.42 v 0 0 c -1.247,0 -2.14,0.1 -2.68,0.3 v 0 0 c -0.54,0.2 -0.86,0.6 -0.96,1.2 v 0 l -1.47,8.49 h 1.89 v 0 c 0.68,0 1.183,-0.073 1.51,-0.22 v 0 0 c 0.333,-0.153 0.55,-0.5 0.65,-1.04 z m 23.07,5.52 h -5.7 l 1.14,-6.63 h -4.29 l -1.14,6.63 h -5.7 l 3.3,-18.75 h 5.7 l -1.17,6.63 h 4.29 l 1.17,-6.63 h 5.7 z m 19.709998,-18.75 -0.87,4.8 h -4.14 l -2.43,13.95 h -5.699998 l 2.43,-13.95 h -4.11 l 0.87,-4.8 z m 9.3,13.23 v 0 l 0.15,-0.81 h -1.44 l 0.81,-4.59 h 6.87 l -1.77,10.02 v 0 c -2.44,0.9 -4.89,1.35 -7.35,1.35 v 0 0 c -2.46,0 -4.237,-0.49 -5.33,-1.47 v 0 0 c -1.087,-0.98 -1.63,-2.49 -1.63,-4.53 v 0 0 c 0,-0.86 0.14,-2.13 0.42,-3.81 v 0 0 c 0.6,-3.48 1.66,-5.99 3.18,-7.53 v 0 0 c 1.52,-1.54 4.04,-2.31 7.56,-2.31 v 0 0 c 0.74,0 1.683,0.08 2.83,0.24 v 0 0 c 1.153,0.16 2,0.34 2.54,0.54 v 0 l -1.65,4.59 v 0 c -1.5,-0.28 -2.877,-0.42 -4.13,-0.42 v 0 0 c -1.247,0 -2.14,0.1 -2.68,0.3 v 0 0 c -0.54,0.2 -0.86,0.6 -0.96,1.2 v 0 l -1.47,8.49 h 1.89 v 0 c 0.68,0 1.183,-0.073 1.51,-0.22 v 0 0 c 0.333,-0.153 0.55,-0.5 0.65,-1.04 z m 10.26,-13.23 h 5.699998 l -2.49,14.07 h 2.04 v 0 c 0.7,0 1.2,-0.093 1.5,-0.28 v 0 0 c 0.3,-0.193 0.51,-0.63 0.63,-1.31 v 0 l 2.22,-12.48 h 5.7 l -1.86,10.53 v 0 c -0.3,1.7 -0.647,3.07 -1.04,4.11 v 0 0 c -0.387,1.04 -0.93,1.92 -1.63,2.64 v 0 0 c -0.7,0.72 -1.567,1.22 -2.6,1.5 v 0 0 c -1.027,0.28 -2.33,0.42 -3.91,0.42 v 0 0 c -2.42,0 -4.116998,-0.367 -5.089998,-1.1 v 0 0 c -0.967,-0.727 -1.45,-1.98 -1.45,-3.76 v 0 0 c 0,-0.98 0.14,-2.25 0.42,-3.81 v 0 z M 130.4899,24.2 h -5.37 l -3.06,-6.66 v 0 c -0.08,-0.14 -0.12,-0.337 -0.12,-0.59 v 0 0 c 0,-0.247 0.02,-0.53 0.06,-0.85 v 0 h -0.24 l -1.41,8.1 h -5.7 l 3.3,-18.75 h 5.37 l 3.06,6.66 v 0 c 0.06,0.14 0.09,0.337 0.09,0.59 v 0 0 c 0,0.247 -0.02,0.53 -0.06,0.85 v 0 h 0.24 l 1.44,-8.1 h 5.7 z"
         style="white-space:pre;fill:#000000;stroke:#ffffff;stroke-width:4.1;stroke-linecap:round;stroke-linejoin:round;stroke-miterlimit:4;stroke-dasharray:none;stroke-opacity:1;paint-order:stroke fill markers"
         id="path5" />
    </g>
    <path
       d="m 17.239904,19.4 -0.84,4.8 H 4.999905 l 3.3,-18.75 h 5.699999 l -2.46,13.95 z m 6,4.8 h -5.7 l 3.3,-18.75 h 5.7 z m 13.74,-5.52 v 0 l 0.15,-0.81 h -1.44 l 0.81,-4.59 h 6.87 l -1.77,10.02 v 0 c -2.44,0.9 -4.89,1.35 -7.35,1.35 v 0 0 c -2.46,0 -4.237,-0.49 -5.33,-1.47 v 0 0 c -1.087,-0.98 -1.63,-2.49 -1.63,-4.53 v 0 0 c 0,-0.86 0.14,-2.13 0.42,-3.81 v 0 0 c 0.6,-3.48 1.66,-5.99 3.18,-7.53 v 0 0 c 1.52,-1.54 4.04,-2.31 7.56,-2.31 v 0 0 c 0.74,0 1.683,0.08 2.83,0.24 v 0 0 c 1.153,0.16 2,0.34 2.54,0.54 v 0 l -1.65,4.59 v 0 c -1.5,-0.28 -2.877,-0.42 -4.13,-0.42 v 0 0 c -1.247,0 -2.14,0.1 -2.68,0.3 v 0 0 c -0.54,0.2 -0.86,0.6 -0.96,1.2 v 0 l -1.47,8.49 h 1.89 v 0 c 0.68,0 1.183,-0.073 1.51,-0.22 v 0 0 c 0.333,-0.153 0.55,-0.5 0.65,-1.04 z m 23.07,5.52 h -5.7 l 1.14,-6.63 h -4.29 l -1.14,6.63 h -5.7 l 3.3,-18.75 h 5.7 l -1.17,6.63 h 4.29 l 1.17,-6.63 h 5.7 z m 19.709998,-18.75 -0.87,4.8 h -4.14 l -2.43,13.95 h -5.699998 l 2.43,-13.95 h -4.11 l 0.87,-4.8 z m 9.3,13.23 v 0 l 0.15,-0.81 h -1.44 l 0.81,-4.59 h 6.87 l -1.77,10.02 v 0 c -2.44,0.9 -4.89,1.35 -7.35,1.35 v 0 0 c -2.46,0 -4.237,-0.49 -5.33,-1.47 v 0 0 c -1.087,-0.98 -1.63,-2.49 -1.63,-4.53 v 0 0 c 0,-0.86 0.14,-2.13 0.42,-3.81 v 0 0 c 0.6,-3.48 1.66,-5.99 3.18,-7.53 v 0 0 c 1.52,-1.54 4.04,-2.31 7.56,-2.31 v 0 0 c 0.74,0 1.683,0.08 2.83,0.24 v 0 0 c 1.153,0.16 2,0.34 2.54,0.54 v 0 l -1.65,4.59 v 0 c -1.5,-0.28 -2.877,-0.42 -4.13,-0.42 v 0 0 c -1.247,0 -2.14,0.1 -2.68,0.3 v 0 0 c -0.54,0.2 -0.86,0.6 -0.96,1.2 v 0 l -1.47,8.49 h 1.89 v 0 c 0.68,0 1.183,-0.073 1.51,-0.22 v 0 0 c 0.333,-0.153 0.55,-0.5 0.65,-1.04 z m 10.26,-13.23 h 5.699998 l -2.49,14.07 h 2.04 v 0 c 0.7,0 1.2,-0.093 1.5,-0.28 v 0 0 c 0.3,-0.193 0.51,-0.63 0.63,-1.31 v 0 l 2.22,-12.48 h 5.7 l -1.86,10.53 v 0 c -0.3,1.7 -0.647,3.07 -1.04,4.11 v 0 0 c -0.387,1.04 -0.93,1.92 -1.63,2.64 v 0 0 c -0.7,0.72 -1.567,1.22 -2.6,1.5 v 0 0 c -1.027,0.28 -2.33,0.42 -3.91,0.42 v 0 0 c -2.42,0 -4.116998,-0.367 -5.089998,-1.1 v 0 0 c -0.96699,-0.727 -1.45,-1.98 -1.45,-3.76 v 0 0 c 0,-0.98 0.14,-2.25 0.42001,-3.81 v 0 z M 130.4899,24.2 h -5.37 l -3.06,-6.66 v 0 c -0.08,-0.14 -0.12,-0.337 -0.12,-0.59 v 0 0 c 0,-0.247 0.02,-0.53 0.06,-0.85 v 0 h -0.24 l -1.41,8.1 h -5.7 l 3.3,-18.75 h 5.37 l 3.06,6.66 v 0 c 0.06,0.14 0.09,0.337 0.09,0.59 v 0 0 c 0,0.247 -0.02,0.53 -0.06,0.85 v 0 h 0.24 l 1.44,-8.1 h 5.7 z"
       style="white-space:pre;fill:#000000;stroke:none;stroke-width:3;stroke-linecap:round;stroke-linejoin:round;stroke-miterlimit:4;stroke-dasharray:none;stroke-opacity:1;paint-order:stroke fill markers"
       id="path2514" />
  </g>
</svg>
