<?xml version="1.0" encoding="UTF-8" standalone="no"?>
<!-- Created with Inkscape (http://www.inkscape.org/) -->

<svg
   width="188.92662mm"
   height="56.782413mm"
   viewBox="0 0 188.92662 56.782413"
   version="1.1"
   id="svg8150"
   inkscape:version="1.1 (c68e22c387, 2021-05-23)"
   sodipodi:docname="auto-trivia.svg"
   xmlns:inkscape="http://www.inkscape.org/namespaces/inkscape"
   xmlns:sodipodi="http://sodipodi.sourceforge.net/DTD/sodipodi-0.dtd"
   xmlns="http://www.w3.org/2000/svg"
   xmlns:svg="http://www.w3.org/2000/svg">
  <sodipodi:namedview
     id="namedview8152"
     pagecolor="#ffffff"
     bordercolor="#666666"
     borderopacity="1.0"
     inkscape:pageshadow="2"
     inkscape:pageopacity="0.0"
     inkscape:pagecheckerboard="0"
     inkscape:document-units="mm"
     showgrid="false"
     fit-margin-top="0"
     fit-margin-left="0"
     fit-margin-right="0"
     fit-margin-bottom="0"
     inkscape:zoom="0.67081229"
     inkscape:cx="376.40932"
     inkscape:cy="98.38818"
     inkscape:window-width="1920"
     inkscape:window-height="1138"
     inkscape:window-x="-8"
     inkscape:window-y="-8"
     inkscape:window-maximized="1"
     inkscape:current-layer="layer1" />
  <defs
     id="defs8147" />
  <g
     inkscape:label="Calque 1"
     inkscape:groupmode="layer"
     id="layer1"
     transform="translate(-5.6595496,-122.69752)">
    <rect
       style="fill:#ffffff;fill-rule:evenodd;stroke:none;stroke-width:4.50001;stroke-linecap:round;stroke-linejoin:round;stroke-miterlimit:4;stroke-dasharray:none;paint-order:stroke markers fill"
       id="rect13942"
       width="15.897224"
       height="12.829339"
       x="52.806602"
       y="135.67116" />
    <rect
       style="fill:#ffffff;fill-rule:evenodd;stroke:none;stroke-width:5.52176;stroke-linecap:round;stroke-linejoin:round;stroke-miterlimit:4;stroke-dasharray:none;paint-order:stroke markers fill"
       id="rect14068"
       width="15.897224"
       height="19.316668"
       x="164.64497"
       y="140.42569" />
    <g
       id="g13832"
       transform="translate(2.2311895,40.161411)"
       style="stroke:#ffffff;stroke-width:4.5;stroke-linecap:round;stroke-linejoin:round;stroke-miterlimit:4;stroke-dasharray:none;paint-order:stroke markers fill">
      <path
         d="m 35.334277,97.851802 -5.302022,0.631193 3.724039,29.918545 q 0.06312,0.50496 0.06312,1.00991 0,2.52477 -1.577982,4.229 -1.514863,1.6411 -3.976516,1.95669 -2.71413,0.3156 -4.733948,-1.19926 -1.956698,-1.51487 -2.335414,-4.48147 l -3.660919,-29.85543 -5.302022,0.63119 Q 9.3922456,101.00777 7.5617865,99.303546 5.9838034,97.851802 5.7313262,95.516388 5.4157297,93.180974 6.8043543,91.224275 8.1929782,89.204458 10.843988,88.888861 l 23.038545,-2.840368 q 2.65101,-0.315597 4.544589,1.325505 1.704221,1.514863 2.019818,3.850277 0.252477,2.335415 -0.88367,4.165874 -1.388625,2.082937 -4.228993,2.461653 z"
         style="font-size:63.1193px;line-height:1.25;font-family:'Porky\'s';-inkscape-font-specification:'Porky\'s, Normal';fill:#0000ff;stroke:#ffffff;stroke-width:4.5;stroke-linecap:round;stroke-linejoin:round;stroke-miterlimit:4;stroke-dasharray:none;paint-order:stroke markers fill"
         id="path13420" />
      <path
         d="m 52.76472,118.74429 q 0.189358,3.2822 -0.378716,10.03597 -0.126238,2.96661 -2.146056,4.60771 -1.956698,1.57798 -4.733948,1.3255 -2.714129,-0.25247 -4.355231,-2.14605 -1.641102,-1.9567 -1.325506,-4.86019 l 3.092846,-35.346807 q 0.252477,-2.966607 2.082937,-4.54459 1.893579,-1.641102 4.860186,-1.388624 l 11.045878,0.946789 q 7.511197,0.694312 11.613951,4.355232 4.355232,3.913396 4.355232,10.85652 0,1.00991 -0.06312,2.08294 -0.441835,4.9233 -3.724039,8.07927 -2.966607,2.90348 -7.637435,3.85027 l 8.016151,10.22533 q 1.514863,1.9567 1.325505,3.97652 -0.189358,2.52477 -2.146056,4.29211 -1.956698,1.83046 -4.670828,1.57798 -3.029727,-0.25248 -4.670829,-2.65101 z m 7.132481,-19.503863 -4.923305,-0.441836 -0.694313,7.953029 4.923306,0.44184 q 4.292112,0.37871 4.607709,-3.66092 0.378716,-3.913398 -3.913397,-4.292113 z"
         style="font-size:63.1193px;line-height:1.25;font-family:'Porky\'s';-inkscape-font-specification:'Porky\'s, Normal';fill:#aa0000;stroke:#ffffff;stroke-width:4.5;stroke-linecap:round;stroke-linejoin:round;stroke-miterlimit:4;stroke-dasharray:none;paint-order:stroke markers fill"
         id="path13422" />
      <path
         d="m 76.016829,129.34833 q 0,-0.63119 0.126239,-1.26238 l 5.617618,-35.409931 q 0.378715,-2.587891 2.019817,-4.039635 1.704221,-1.514863 4.039636,-1.514863 2.777249,0 4.607708,1.76734 1.89358,1.704221 1.89358,4.481471 0,0.631193 -0.126239,1.262386 L 88.57757,130.04265 q -0.378716,2.58789 -2.082937,4.03963 -1.641102,1.51486 -3.976516,1.51486 -2.777249,0 -4.670828,-1.76734 -1.83046,-1.70422 -1.83046,-4.48147 z"
         style="font-size:63.1193px;line-height:1.25;font-family:'Porky\'s';-inkscape-font-specification:'Porky\'s, Normal';fill:#008000;stroke:#ffffff;stroke-width:4.5;stroke-linecap:round;stroke-linejoin:round;stroke-miterlimit:4;stroke-dasharray:none;paint-order:stroke markers fill"
         id="path13424" />
      <path
         d="m 135.87289,92.739139 -7.5112,36.987911 q -1.00991,4.9233 -5.2389,5.68074 -0.69431,0.12623 -1.3255,0.12623 -3.28221,0 -5.49138,-3.66091 L 96.549553,99.682262 q -1.136148,-1.893579 -1.136148,-3.850278 0,-2.524772 1.956699,-4.355231 1.956698,-1.83046 4.481476,-1.83046 3.09285,0 5.30203,3.092846 l 12.05578,20.576891 4.35524,-23.480379 q 1.45174,-5.049544 6.05945,-5.049544 2.27229,0 4.03963,1.325505 1.83046,1.325505 2.2723,3.660919 0.25248,1.514864 -0.0631,2.966608 z"
         style="font-size:63.1193px;line-height:1.25;font-family:'Porky\'s';-inkscape-font-specification:'Porky\'s, Normal';fill:#ffcc00;stroke:#ffffff;stroke-width:4.5;stroke-linecap:round;stroke-linejoin:round;stroke-miterlimit:4;stroke-dasharray:none;paint-order:stroke markers fill"
         id="path13426" />
      <path
         d="m 132.41075,129.34833 q 0,-0.63119 0.12624,-1.26238 l 5.61761,-35.409931 q 0.37872,-2.587891 2.01982,-4.039635 1.70422,-1.514863 4.03964,-1.514863 2.77725,0 4.6077,1.76734 1.89358,1.704221 1.89358,4.481471 0,0.631193 -0.12623,1.262386 l -5.61762,35.409932 q -0.37872,2.58789 -2.08294,4.03963 -1.6411,1.51486 -3.97652,1.51486 -2.77724,0 -4.67082,-1.76734 -1.83046,-1.70422 -1.83046,-4.48147 z"
         style="font-size:63.1193px;line-height:1.25;font-family:'Porky\'s';-inkscape-font-specification:'Porky\'s, Normal';fill:#aa0000;stroke:#ffffff;stroke-width:4.5;stroke-linecap:round;stroke-linejoin:round;stroke-miterlimit:4;stroke-dasharray:none;paint-order:stroke markers fill"
         id="path13428" />
      <path
         d="m 183.65838,137.04889 q -3.72404,-0.3156 -5.17578,-3.47156 -0.37872,-0.82055 -1.6411,-6.37505 l -15.21176,-1.32551 q -2.14605,5.17578 -2.71413,5.93322 -1.95669,2.90348 -5.61761,2.58789 -2.52478,-0.25248 -4.229,-2.08294 -1.70422,-1.89358 -1.45174,-4.48147 0.0631,-1.13615 0.75743,-2.52477 l 15.59047,-33.137635 q 1.26238,-2.587891 3.53468,-4.165874 2.33541,-1.577982 5.2389,-1.325505 5.93322,0.504954 7.63744,6.943123 l 9.34165,35.283691 q 0.44184,1.70422 0.37872,2.90349 -0.25248,2.52477 -2.14606,3.97651 -1.89358,1.45175 -4.29211,1.26239 z m -12.49762,-34.6525 q -1.32551,3.97652 -4.73395,11.99267 l 7.63744,0.63119 z"
         style="font-size:63.1193px;line-height:1.25;font-family:'Porky\'s';-inkscape-font-specification:'Porky\'s, Normal';fill:#008000;stroke:#ffffff;stroke-width:4.5;stroke-linecap:round;stroke-linejoin:round;stroke-miterlimit:4;stroke-dasharray:none;paint-order:stroke markers fill"
         id="path13430" />
    </g>
    <g
       id="g13846"
       transform="translate(2.2311895,40.161411)"
       style="fill:#aa0000">
      <path
         d="m 35.334277,97.851802 -5.302022,0.631193 3.724039,29.918545 q 0.06312,0.50496 0.06312,1.00991 0,2.52477 -1.577982,4.229 -1.514863,1.6411 -3.976516,1.95669 -2.71413,0.3156 -4.733948,-1.19926 -1.956698,-1.51487 -2.335414,-4.48147 l -3.660919,-29.85543 -5.302022,0.63119 Q 9.3922456,101.00777 7.5617865,99.303546 5.9838034,97.851802 5.7313262,95.516388 5.4157297,93.180974 6.8043543,91.224275 8.1929782,89.204458 10.843988,88.888861 l 23.038545,-2.840368 q 2.65101,-0.315597 4.544589,1.325505 1.704221,1.514863 2.019818,3.850277 0.252477,2.335415 -0.88367,4.165874 -1.388625,2.082937 -4.228993,2.461653 z"
         style="font-size:63.1193px;line-height:1.25;font-family:'Porky\'s';-inkscape-font-specification:'Porky\'s, Normal';fill:#aa0000;stroke-width:0.657491"
         id="path13834" />
      <path
         d="m 52.76472,118.74429 q 0.189358,3.2822 -0.378716,10.03597 -0.126238,2.96661 -2.146056,4.60771 -1.956698,1.57798 -4.733948,1.3255 -2.714129,-0.25247 -4.355231,-2.14605 -1.641102,-1.9567 -1.325506,-4.86019 l 3.092846,-35.346807 q 0.252477,-2.966607 2.082937,-4.54459 1.893579,-1.641102 4.860186,-1.388624 l 11.045878,0.946789 q 7.511197,0.694312 11.613951,4.355232 4.355232,3.913396 4.355232,10.85652 0,1.00991 -0.06312,2.08294 -0.441835,4.9233 -3.724039,8.07927 -2.966607,2.90348 -7.637435,3.85027 l 8.016151,10.22533 q 1.514863,1.9567 1.325505,3.97652 -0.189358,2.52477 -2.146056,4.29211 -1.956698,1.83046 -4.670828,1.57798 -3.029727,-0.25248 -4.670829,-2.65101 z m 7.132481,-19.503863 -4.923305,-0.441836 -0.694313,7.953029 4.923306,0.44184 q 4.292112,0.37871 4.607709,-3.66092 0.378716,-3.913398 -3.913397,-4.292113 z"
         style="font-size:63.1193px;line-height:1.25;font-family:'Porky\'s';-inkscape-font-specification:'Porky\'s, Normal';fill:#aa0000;stroke-width:0.657491"
         id="path13836" />
      <path
         d="m 76.016829,129.34833 q 0,-0.63119 0.126239,-1.26238 l 5.617618,-35.409931 q 0.378715,-2.587891 2.019817,-4.039635 1.704221,-1.514863 4.039636,-1.514863 2.777249,0 4.607708,1.76734 1.89358,1.704221 1.89358,4.481471 0,0.631193 -0.126239,1.262386 L 88.57757,130.04265 q -0.378716,2.58789 -2.082937,4.03963 -1.641102,1.51486 -3.976516,1.51486 -2.777249,0 -4.670828,-1.76734 -1.83046,-1.70422 -1.83046,-4.48147 z"
         style="font-size:63.1193px;line-height:1.25;font-family:'Porky\'s';-inkscape-font-specification:'Porky\'s, Normal';fill:#aa0000;stroke-width:0.657491"
         id="path13838" />
      <path
         d="m 135.87289,92.739139 -7.5112,36.987911 q -1.00991,4.9233 -5.2389,5.68074 -0.69431,0.12623 -1.3255,0.12623 -3.28221,0 -5.49138,-3.66091 L 96.549553,99.682262 q -1.136148,-1.893579 -1.136148,-3.850278 0,-2.524772 1.956699,-4.355231 1.956698,-1.83046 4.481476,-1.83046 3.09285,0 5.30203,3.092846 l 12.05578,20.576891 4.35524,-23.480379 q 1.45174,-5.049544 6.05945,-5.049544 2.27229,0 4.03963,1.325505 1.83046,1.325505 2.2723,3.660919 0.25248,1.514864 -0.0631,2.966608 z"
         style="font-size:63.1193px;line-height:1.25;font-family:'Porky\'s';-inkscape-font-specification:'Porky\'s, Normal';fill:#aa0000;stroke-width:0.657491"
         id="path13840" />
      <path
         d="m 132.41075,129.34833 q 0,-0.63119 0.12624,-1.26238 l 5.61761,-35.409931 q 0.37872,-2.587891 2.01982,-4.039635 1.70422,-1.514863 4.03964,-1.514863 2.77725,0 4.6077,1.76734 1.89358,1.704221 1.89358,4.481471 0,0.631193 -0.12623,1.262386 l -5.61762,35.409932 q -0.37872,2.58789 -2.08294,4.03963 -1.6411,1.51486 -3.97652,1.51486 -2.77724,0 -4.67082,-1.76734 -1.83046,-1.70422 -1.83046,-4.48147 z"
         style="font-size:63.1193px;line-height:1.25;font-family:'Porky\'s';-inkscape-font-specification:'Porky\'s, Normal';fill:#aa0000;stroke-width:0.657491"
         id="path13842" />
      <path
         d="m 183.65838,137.04889 q -3.72404,-0.3156 -5.17578,-3.47156 -0.37872,-0.82055 -1.6411,-6.37505 l -15.21176,-1.32551 q -2.14605,5.17578 -2.71413,5.93322 -1.95669,2.90348 -5.61761,2.58789 -2.52478,-0.25248 -4.229,-2.08294 -1.70422,-1.89358 -1.45174,-4.48147 0.0631,-1.13615 0.75743,-2.52477 l 15.59047,-33.137635 q 1.26238,-2.587891 3.53468,-4.165874 2.33541,-1.577982 5.2389,-1.325505 5.93322,0.504954 7.63744,6.943123 l 9.34165,35.283691 q 0.44184,1.70422 0.37872,2.90349 -0.25248,2.52477 -2.14606,3.97651 -1.89358,1.45175 -4.29211,1.26239 z m -12.49762,-34.6525 q -1.32551,3.97652 -4.73395,11.99267 l 7.63744,0.63119 z"
         style="font-size:63.1193px;line-height:1.25;font-family:'Porky\'s';-inkscape-font-specification:'Porky\'s, Normal';fill:#aa0000;stroke-width:0.657491"
         id="path13844" />
    </g>
    <g
       id="g885"
       transform="translate(2.2311895,40.161411)"
       style="fill:#aa0000">
      <path
         d="m 35.334277,97.851802 -5.302022,0.631193 3.724039,29.918545 q 0.06312,0.50496 0.06312,1.00991 0,2.52477 -1.577982,4.229 -1.514863,1.6411 -3.976516,1.95669 -2.71413,0.3156 -4.733948,-1.19926 -1.956698,-1.51487 -2.335414,-4.48147 l -3.660919,-29.85543 -5.302022,0.63119 Q 9.3922456,101.00777 7.5617865,99.303546 5.9838034,97.851802 5.7313262,95.516388 5.4157297,93.180974 6.8043543,91.224275 8.1929782,89.204458 10.843988,88.888861 l 23.038545,-2.840368 q 2.65101,-0.315597 4.544589,1.325505 1.704221,1.514863 2.019818,3.850277 0.252477,2.335415 -0.88367,4.165874 -1.388625,2.082937 -4.228993,2.461653 z"
         style="font-size:63.1193px;line-height:1.25;font-family:'Porky\'s';-inkscape-font-specification:'Porky\'s, Normal';fill:#aa0000;stroke-width:0.657491"
         id="path873" />
      <path
         d="m 52.76472,118.74429 q 0.189358,3.2822 -0.378716,10.03597 -0.126238,2.96661 -2.146056,4.60771 -1.956698,1.57798 -4.733948,1.3255 -2.714129,-0.25247 -4.355231,-2.14605 -1.641102,-1.9567 -1.325506,-4.86019 l 3.092846,-35.346807 q 0.252477,-2.966607 2.082937,-4.54459 1.893579,-1.641102 4.860186,-1.388624 l 11.045878,0.946789 q 7.511197,0.694312 11.613951,4.355232 4.355232,3.913396 4.355232,10.85652 0,1.00991 -0.06312,2.08294 -0.441835,4.9233 -3.724039,8.07927 -2.966607,2.90348 -7.637435,3.85027 l 8.016151,10.22533 q 1.514863,1.9567 1.325505,3.97652 -0.189358,2.52477 -2.146056,4.29211 -1.956698,1.83046 -4.670828,1.57798 -3.029727,-0.25248 -4.670829,-2.65101 z m 7.132481,-19.503863 -4.923305,-0.441836 -0.694313,7.953029 4.923306,0.44184 q 4.292112,0.37871 4.607709,-3.66092 0.378716,-3.913398 -3.913397,-4.292113 z"
         style="font-size:63.1193px;line-height:1.25;font-family:'Porky\'s';-inkscape-font-specification:'Porky\'s, Normal';fill:#aa0000;stroke-width:0.657491"
         id="path875" />
      <path
         d="m 76.016829,129.34833 q 0,-0.63119 0.126239,-1.26238 l 5.617618,-35.409931 q 0.378715,-2.587891 2.019817,-4.039635 1.704221,-1.514863 4.039636,-1.514863 2.777249,0 4.607708,1.76734 1.89358,1.704221 1.89358,4.481471 0,0.631193 -0.126239,1.262386 L 88.57757,130.04265 q -0.378716,2.58789 -2.082937,4.03963 -1.641102,1.51486 -3.976516,1.51486 -2.777249,0 -4.670828,-1.76734 -1.83046,-1.70422 -1.83046,-4.48147 z"
         style="font-size:63.1193px;line-height:1.25;font-family:'Porky\'s';-inkscape-font-specification:'Porky\'s, Normal';fill:#aa0000;stroke-width:0.657491"
         id="path877" />
      <path
         d="m 135.87289,92.739139 -7.5112,36.987911 q -1.00991,4.9233 -5.2389,5.68074 -0.69431,0.12623 -1.3255,0.12623 -3.28221,0 -5.49138,-3.66091 L 96.549553,99.682262 q -1.136148,-1.893579 -1.136148,-3.850278 0,-2.524772 1.956699,-4.355231 1.956698,-1.83046 4.481476,-1.83046 3.09285,0 5.30203,3.092846 l 12.05578,20.576891 4.35524,-23.480379 q 1.45174,-5.049544 6.05945,-5.049544 2.27229,0 4.03963,1.325505 1.83046,1.325505 2.2723,3.660919 0.25248,1.514864 -0.0631,2.966608 z"
         style="font-size:63.1193px;line-height:1.25;font-family:'Porky\'s';-inkscape-font-specification:'Porky\'s, Normal';fill:#aa0000;stroke-width:0.657491"
         id="path879" />
      <path
         d="m 132.41075,129.34833 q 0,-0.63119 0.12624,-1.26238 l 5.61761,-35.409931 q 0.37872,-2.587891 2.01982,-4.039635 1.70422,-1.514863 4.03964,-1.514863 2.77725,0 4.6077,1.76734 1.89358,1.704221 1.89358,4.481471 0,0.631193 -0.12623,1.262386 l -5.61762,35.409932 q -0.37872,2.58789 -2.08294,4.03963 -1.6411,1.51486 -3.97652,1.51486 -2.77724,0 -4.67082,-1.76734 -1.83046,-1.70422 -1.83046,-4.48147 z"
         style="font-size:63.1193px;line-height:1.25;font-family:'Porky\'s';-inkscape-font-specification:'Porky\'s, Normal';fill:#aa0000;stroke-width:0.657491"
         id="path881" />
      <path
         d="m 183.65838,137.04889 q -3.72404,-0.3156 -5.17578,-3.47156 -0.37872,-0.82055 -1.6411,-6.37505 l -15.21176,-1.32551 q -2.14605,5.17578 -2.71413,5.93322 -1.95669,2.90348 -5.61761,2.58789 -2.52478,-0.25248 -4.229,-2.08294 -1.70422,-1.89358 -1.45174,-4.48147 0.0631,-1.13615 0.75743,-2.52477 l 15.59047,-33.137635 q 1.26238,-2.587891 3.53468,-4.165874 2.33541,-1.577982 5.2389,-1.325505 5.93322,0.504954 7.63744,6.943123 l 9.34165,35.283691 q 0.44184,1.70422 0.37872,2.90349 -0.25248,2.52477 -2.14606,3.97651 -1.89358,1.45175 -4.29211,1.26239 z m -12.49762,-34.6525 q -1.32551,3.97652 -4.73395,11.99267 l 7.63744,0.63119 z"
         style="font-size:63.1193px;line-height:1.25;font-family:'Porky\'s';-inkscape-font-specification:'Porky\'s, Normal';fill:#aa0000;stroke-width:0.657491"
         id="path883" />
    </g>
  </g>
</svg>
