<?xml version="1.0" encoding="UTF-8" standalone="no"?>
<!-- Created with Inkscape (http://www.inkscape.org/) -->

<svg
   width="159.63133mm"
   height="43.53986mm"
   viewBox="0 0 159.63133 43.539859"
   version="1.1"
   id="svg5"
   inkscape:version="1.1 (c68e22c387, 2021-05-23)"
   sodipodi:docname="auto-action.svg"
   xmlns:inkscape="http://www.inkscape.org/namespaces/inkscape"
   xmlns:sodipodi="http://sodipodi.sourceforge.net/DTD/sodipodi-0.dtd"
   xmlns="http://www.w3.org/2000/svg"
   xmlns:svg="http://www.w3.org/2000/svg">
  <sodipodi:namedview
     id="namedview7"
     pagecolor="#ffffff"
     bordercolor="#666666"
     borderopacity="1.0"
     inkscape:pageshadow="2"
     inkscape:pageopacity="0.0"
     inkscape:pagecheckerboard="0"
     inkscape:document-units="mm"
     showgrid="false"
     fit-margin-top="0"
     fit-margin-left="0"
     fit-margin-right="0"
     fit-margin-bottom="0"
     inkscape:zoom="0.67081229"
     inkscape:cx="306.34501"
     inkscape:cy="314.54403"
     inkscape:window-width="1920"
     inkscape:window-height="1138"
     inkscape:window-x="-8"
     inkscape:window-y="-8"
     inkscape:window-maximized="1"
     inkscape:current-layer="layer1" />
  <defs
     id="defs2" />
  <g
     inkscape:label="Calque 1"
     inkscape:groupmode="layer"
     id="layer1"
     transform="translate(-23.855593,-64.786595)">
    <g
       id="g903">
      <rect
         style="fill:#ffffff;fill-rule:evenodd;stroke:none;stroke-width:7.30001;stroke-linecap:round;stroke-linejoin:round;stroke-miterlimit:4;stroke-dasharray:none;paint-order:stroke markers fill"
         id="rect19914"
         width="52.45816"
         height="25.637444"
         x="58.54137"
         y="70.082466"
         ry="0" />
      <g
         id="g19786"
         style="fill:#1a1a1a;stroke:#ffffff;stroke-width:5.3;stroke-linecap:round;stroke-linejoin:round;stroke-miterlimit:4;stroke-dasharray:none;paint-order:stroke markers fill">
        <path
           d="m 52.006804,68.17885 v 35.64194 l -11.278033,1.85572 1.185272,-9.482165 h -3.304392 l -1.903617,8.392675 -10.200514,-1.41275 9.601892,-34.013681 z m -9.254691,9.913174 -2.490267,10.906888 2.729716,-0.766235 1.245133,-10.140653 z"
           style="font-size:14.1111px;line-height:1.25;font-family:'Action Comcs Black';-inkscape-font-specification:'Action Comcs Black, ';fill:#1a1a1a;stroke:#ffffff;stroke-width:5.3;stroke-linecap:round;stroke-linejoin:round;stroke-miterlimit:4;stroke-dasharray:none;paint-order:stroke markers fill"
           id="path19531" />
        <path
           d="M 79.3015,67.436558 78.403568,78.032162 H 67.017784 L 65.557146,92.23147 76.033027,89.190471 v 9.577948 l -21.753914,5.854521 4.62136,-34.708087 z"
           style="font-size:14.1111px;line-height:1.25;font-family:'Action Comcs Black';-inkscape-font-specification:'Action Comcs Black, ';fill:#1a1a1a;stroke:#ffffff;stroke-width:5.3;stroke-linecap:round;stroke-linejoin:round;stroke-miterlimit:4;stroke-dasharray:none;paint-order:stroke markers fill"
           id="path19533" />
        <path
           d="m 82.399907,67.843621 h 27.524553 l -4.96856,10.870971 -7.015838,0.107749 v 0.09578 l -3.962846,24.591379 -13.720374,1.83178 6.608783,-26.315407 -6.704563,0.203531 z"
           style="font-size:14.1111px;line-height:1.25;font-family:'Action Comcs Black';-inkscape-font-specification:'Action Comcs Black, ';fill:#1a1a1a;stroke:#ffffff;stroke-width:5.3;stroke-linecap:round;stroke-linejoin:round;stroke-miterlimit:4;stroke-dasharray:none;paint-order:stroke markers fill"
           id="path19535" />
        <path
           d="m 120.55354,69.579624 -8.02153,32.612906 -12.906287,1.00569 11.373807,-33.115754 z"
           style="font-size:14.1111px;line-height:1.25;font-family:'Action Comcs Black';-inkscape-font-specification:'Action Comcs Black, ';fill:#1a1a1a;stroke:#ffffff;stroke-width:5.3;stroke-linecap:round;stroke-linejoin:round;stroke-miterlimit:4;stroke-dasharray:none;paint-order:stroke markers fill"
           id="path19537" />
        <path
           d="m 144.91977,68.454216 -3.55582,32.816444 -26.11187,2.03531 10.4639,-34.744002 z m -11.88863,9.649782 -3.14875,14.031692 1.62825,-0.407062 2.74168,-13.62463 z"
           style="font-size:14.1111px;line-height:1.25;font-family:'Action Comcs Black';-inkscape-font-specification:'Action Comcs Black, ';fill:#1a1a1a;stroke:#ffffff;stroke-width:5.3;stroke-linecap:round;stroke-linejoin:round;stroke-miterlimit:4;stroke-dasharray:none;paint-order:stroke markers fill"
           id="path19539" />
        <path
           d="m 164.59041,68.657747 2.63396,12.29569 h 0.10773 l 3.96287,-11.685095 9.54203,-0.407064 -8.02154,32.720662 -12.79853,1.01766 -1.32894,-9.661756 h -0.0957 l -2.03531,8.536346 -13.00206,1.01766 11.57734,-33.223508 z"
           style="font-size:14.1111px;line-height:1.25;font-family:'Action Comcs Black';-inkscape-font-specification:'Action Comcs Black, ';fill:#1a1a1a;stroke:#ffffff;stroke-width:5.3;stroke-linecap:round;stroke-linejoin:round;stroke-miterlimit:4;stroke-dasharray:none;paint-order:stroke markers fill"
           id="path19541" />
      </g>
      <g
         id="g19818"
         style="fill:#1a1a1a">
        <path
           d="m 52.006804,68.17885 v 35.64194 l -11.278033,1.85572 1.185272,-9.482165 h -3.304392 l -1.903617,8.392675 -10.200514,-1.41275 9.601892,-34.013681 z m -9.254691,9.913174 -2.490267,10.906888 2.729716,-0.766235 1.245133,-10.140653 z"
           style="font-size:14.1111px;line-height:1.25;font-family:'Action Comcs Black';-inkscape-font-specification:'Action Comcs Black, ';fill:#1a1a1a;stroke-width:0.711706"
           id="path19806" />
        <path
           d="M 79.3015,67.436558 78.403568,78.032162 H 67.017784 L 65.557146,92.23147 76.033027,89.190471 v 9.577948 l -21.753914,5.854521 4.62136,-34.708087 z"
           style="font-size:14.1111px;line-height:1.25;font-family:'Action Comcs Black';-inkscape-font-specification:'Action Comcs Black, ';fill:#1a1a1a;stroke-width:0.711706"
           id="path19808" />
        <path
           d="m 82.399907,67.843621 h 27.524553 l -4.96856,10.870971 -7.015838,0.107749 v 0.09578 l -3.962846,24.591379 -13.720374,1.83178 6.608783,-26.315407 -6.704563,0.203531 z"
           style="font-size:14.1111px;line-height:1.25;font-family:'Action Comcs Black';-inkscape-font-specification:'Action Comcs Black, ';fill:#1a1a1a;stroke-width:0.711706"
           id="path19810" />
        <path
           d="m 120.55354,69.579624 -8.02153,32.612906 -12.906287,1.00569 11.373807,-33.115754 z"
           style="font-size:14.1111px;line-height:1.25;font-family:'Action Comcs Black';-inkscape-font-specification:'Action Comcs Black, ';fill:#1a1a1a;stroke-width:0.711706"
           id="path19812" />
        <path
           d="m 144.91977,68.454216 -3.55582,32.816444 -26.11187,2.03531 10.4639,-34.744002 z m -11.88863,9.649782 -3.14875,14.031692 1.62825,-0.407062 2.74168,-13.62463 z"
           style="font-size:14.1111px;line-height:1.25;font-family:'Action Comcs Black';-inkscape-font-specification:'Action Comcs Black, ';fill:#1a1a1a;stroke-width:0.711706"
           id="path19814" />
        <path
           d="m 164.59041,68.657747 2.63396,12.29569 h 0.10773 l 3.96287,-11.685095 9.54203,-0.407064 -8.02154,32.720662 -12.79853,1.01766 -1.32894,-9.661756 h -0.0957 l -2.03531,8.536346 -13.00206,1.01766 11.57734,-33.223508 z"
           style="font-size:14.1111px;line-height:1.25;font-family:'Action Comcs Black';-inkscape-font-specification:'Action Comcs Black, ';fill:#1a1a1a;stroke-width:0.711706"
           id="path19816" />
      </g>
    </g>
  </g>
</svg>
