<?xml version="1.0" encoding="UTF-8" standalone="no"?>
<svg
   enable-background="new 0 0 621.404 129.709"
   viewBox="0 0 516.19111 88.454476"
   version="1.1"
   id="svg60"
   sodipodi:docname="auto-allgames.svg"
   width="516.1911"
   height="88.454475"
   inkscape:version="1.1 (c68e22c387, 2021-05-23)"
   inkscape:export-filename="C:\Users\BUCH\Desktop\Retrogaming\Recalbox\travail thèmes\NEW THEME!!!\background NEW!!!!\SYSTEM!!!!!!\auto-allgames\logo.png"
   inkscape:export-xdpi="200"
   inkscape:export-ydpi="200"
   xmlns:inkscape="http://www.inkscape.org/namespaces/inkscape"
   xmlns:sodipodi="http://sodipodi.sourceforge.net/DTD/sodipodi-0.dtd"
   xmlns="http://www.w3.org/2000/svg"
   xmlns:svg="http://www.w3.org/2000/svg">
  <defs
     id="defs64">
    <linearGradient
       id="linearGradient6044"
       inkscape:swatch="solid">
      <stop
         style="stop-color:#ffffff;stop-opacity:1;"
         offset="0"
         id="stop6042" />
    </linearGradient>
    <marker
       style="overflow:visible"
       id="StopL"
       refX="0"
       refY="0"
       orient="auto"
       inkscape:stockid="StopL"
       inkscape:isstock="true">
      <path
         transform="scale(0.8)"
         style="fill:none;fill-opacity:0.75;fill-rule:evenodd;stroke:context-stroke;stroke-width:1pt"
         d="M 0,5.65 V -5.65"
         id="path4428" />
    </marker>
    <marker
       style="overflow:visible"
       id="marker5997"
       refX="0"
       refY="0"
       orient="auto"
       inkscape:stockid="Arrow1Lstart"
       inkscape:isstock="true">
      <path
         transform="matrix(0.8,0,0,0.8,10,0)"
         style="fill:context-stroke;fill-rule:evenodd;stroke:context-stroke;stroke-width:1pt"
         d="M 0,0 5,-5 -12.5,0 5,5 Z"
         id="path5995" />
    </marker>
    <marker
       style="overflow:visible"
       id="Arrow1Lstart"
       refX="0"
       refY="0"
       orient="auto"
       inkscape:stockid="Arrow1Lstart"
       inkscape:isstock="true">
      <path
         transform="matrix(0.8,0,0,0.8,10,0)"
         style="fill:context-stroke;fill-rule:evenodd;stroke:context-stroke;stroke-width:1pt"
         d="M 0,0 5,-5 -12.5,0 5,5 Z"
         id="path4259" />
    </marker>
  </defs>
  <sodipodi:namedview
     id="namedview62"
     pagecolor="#ffffff"
     bordercolor="#666666"
     borderopacity="1.0"
     inkscape:pageshadow="2"
     inkscape:pageopacity="0.0"
     inkscape:pagecheckerboard="0"
     showgrid="false"
     inkscape:zoom="0.89555266"
     inkscape:cx="287.53195"
     inkscape:cy="-69.230993"
     inkscape:window-width="1920"
     inkscape:window-height="1138"
     inkscape:window-x="-8"
     inkscape:window-y="-8"
     inkscape:window-maximized="1"
     inkscape:current-layer="svg60"
     fit-margin-top="0"
     fit-margin-left="0"
     fit-margin-right="0"
     fit-margin-bottom="0" />
  <g
     id="g9956"
     transform="translate(-5,-5.0442121)">
    <path
       style="fill:#ffffff;stroke:#ffffff;stroke-width:20;stroke-linecap:round;stroke-linejoin:round;stroke-miterlimit:4;stroke-dasharray:none;stroke-opacity:1;paint-order:markers stroke fill"
       d="m 229.79905,83.03011 c -12.23347,-1.58888 -22.5358,-9.25208 -26.61661,-19.7983 -1.75072,-4.52447 -2.37049,-8.1883 -2.37049,-14.01322 0,-5.86351 0.63816,-9.61669 2.37097,-13.94417 2.27111,-5.67183 7.2414,-11.53144 12.60453,-14.85983 8.21412,-5.09774 20.03089,-6.66362 29.92336,-3.96526 4.61173,1.25794 11.36532,4.84466 13.54477,7.1934 l 0.79267,0.85425 -3.81591,5.72971 c -2.09875,3.15134 -3.86356,5.7861 -3.9218,5.85501 -0.0582,0.0689 -1.14618,-0.78721 -2.41766,-1.90252 -5.90194,-5.17702 -10.61888,-7.20592 -15.68549,-6.74679 -4.9958,0.45271 -8.63268,2.24395 -12.03826,5.9291 -3.67151,3.97292 -5.36307,8.97439 -5.36307,15.8571 0,7.14778 1.91927,12.56592 5.86338,16.55233 3.90681,3.94871 8.30449,5.56683 14.36994,5.2874 3.84001,-0.17691 6.06681,-0.77674 8.41639,-2.26711 l 1.61527,-1.02458 v -6.1285 -6.12851 H 240.78 234.48897 v -6.12495 -6.12496 l 13.34719,0.089 13.3472,0.089 0.0884,15.7258 0.0884,15.7258 -2.12875,1.58181 c -4.4168,3.282 -10.68289,5.69588 -17.0308,6.56076 -3.02322,0.4119 -9.22362,0.41105 -12.40158,-0.002 z m 251.74056,0.12998 c -8.57546,-1.1115 -17.2529,-4.88154 -22.56016,-9.80157 -0.37511,-0.34772 0.40576,-1.4912 4.37713,-6.40988 l 4.83366,-5.98665 1.74388,1.57825 c 3.66893,3.32047 9.41506,6.44616 13.70735,7.4563 4.26637,1.00403 8.95782,0.20765 11.03944,-1.87397 3.02435,-3.02435 1.80994,-7.2488 -2.74014,-9.53176 -2.40892,-1.20867 -4.50071,-1.79757 -10.23769,-2.88221 -8.77647,-1.6593 -14.55399,-4.21068 -18.5355,-8.18538 -3.86501,-3.85842 -5.34775,-7.53618 -5.35221,-13.2756 -0.008,-10.48168 7.40322,-17.54509 19.86311,-18.93057 9.21062,-1.02417 22.69809,1.95103 30.13821,6.6482 l 1.45299,0.91732 -4.10716,5.42325 c -2.25896,2.98279 -4.24006,5.50538 -4.40247,5.60576 -0.16244,0.10038 -1.27725,-0.43317 -2.47737,-1.18565 -5.64316,-3.53825 -15.22084,-5.33339 -20.83731,-3.90552 -2.72422,0.69257 -4.23767,2.23808 -4.23587,4.32554 0,0.83159 0.28092,1.90884 0.65682,2.52532 0.99456,1.63104 4.80907,3.35397 9.71363,4.38741 13.16071,2.77308 17.78176,4.75223 22.25109,9.52994 3.28881,3.51576 4.84766,7.25803 5.29939,12.72213 0.78329,9.47379 -4.71205,17.19008 -14.11827,19.82429 -3.93268,1.10135 -11.17975,1.58146 -15.47255,1.02505 z M 15,82.00624 c 0.125026,-0.20229 5.548954,-15.08399 12.053173,-33.07045 l 11.825853,-32.70263 8.1246,-0.0909 8.1246,-0.0909 11.641503,32.90629 c 6.402825,18.09847 11.63971,33.02106 11.637527,33.16134 -0.002,0.14027 -3.58204,0.25504 -7.955235,0.25504 H 62.500762 L 60.505385,76.59441 58.510008,70.8148 46.765796,70.8138 35.021585,70.8128 33.035608,76.59375 31.049631,82.3747 H 22.911155 C 17.162665,82.3747 14.839436,82.26669 15,82.00689 Z M 54.266191,58.9952 c 0.01283,-0.47545 -7.316845,-21.50589 -7.495847,-21.50722 -0.09777,-7.3e-4 -1.87141,4.89548 -3.941423,10.88047 l -3.763662,10.8818 h 7.597025 c 4.178364,0 7.600122,-0.11477 7.603907,-0.25505 z m 28.816198,-9.60656 0.0884,-32.98546 h 7.307863 7.30786 v 26.86443 26.86443 h 14.262278 c 9.44359,0 14.33562,0.11866 14.47935,0.35122 0.11939,0.19317 0.10721,2.94762 -0.0271,6.12101 l -0.24412,5.76978 -21.63144,3e-5 -21.631431,2e-5 z m 49.729851,-3e-5 V 16.40318 h 7.48123 7.48123 v 26.86443 26.86443 h 14.26228 c 7.84425,0 14.31036,0.11477 14.36913,0.25504 0.0588,0.14027 0.0577,2.89473 -0.002,6.12101 l -0.10912,5.86596 H 154.5538 132.81262 Z m 128.20109,32.80665 c 0,-0.1463 22.88601,-63.57712 23.64594,-65.53703 0.21082,-0.54372 0.93225,-0.5951 8.3557,-0.5951 4.46873,0 8.12496,0.0573 8.12496,0.12726 0,0.13942 22.50043,63.73372 23.08571,65.24851 l 0.36132,0.93515 h -8.10742 -8.10741 l -1.95144,-5.78095 -1.95144,-5.78095 h -11.80424 -11.80423 l -0.6133,1.95532 c -0.33732,1.07543 -1.22283,3.67686 -1.9678,5.78095 l -1.35449,3.82563 h -7.95593 c -4.37576,0 -7.95593,-0.0805 -7.95593,-0.17879 z M 298.7828,54.57447 c -0.90181,-2.57168 -2.5973,-7.46848 -3.76775,-10.88179 -1.17045,-3.41332 -2.22224,-6.20377 -2.33732,-6.201 -0.19278,0.005 -7.52043,20.96924 -7.52043,21.51616 0,0.13332 3.43466,0.24241 7.63258,0.24241 h 7.63258 z m 56.97236,27.20448 c -0.0987,-0.3273 -3.10635,-10.77127 -6.68351,-23.20882 -3.57717,-12.43755 -6.56716,-22.67749 -6.64444,-22.75542 -0.0773,-0.0779 -0.14051,10.28953 -0.14051,23.0388 V 82.034 h -7.14117 -7.14118 V 49.04856 16.06313 h 11.31624 11.31623 l 5.72776,20.48837 c 3.15024,11.26861 5.82396,20.59541 5.94159,20.72624 0.11763,0.13082 2.64268,-8.82116 5.61126,-19.89328 2.96856,-11.07212 5.52754,-20.47748 5.68666,-20.9008 l 0.28925,-0.76966 11.48617,0.0896 11.48617,0.0896 0.0867,33.07045 0.0867,33.07045 -7.22789,4e-5 -7.22786,4e-5 0.0896,-24.03521 c 0.0492,-13.21938 0.009,-23.95462 -0.0896,-23.8561 -0.13531,0.13532 -10.67109,37.84843 -13.07046,46.78605 l -0.38797,1.44524 h -6.59508 c -5.98586,0 -6.61164,-0.055 -6.77466,-0.5951 z M 407.23739,49.38861 V 16.40318 h 23.29383 23.29383 v 5.95098 5.95098 h -15.8126 -15.8126 v 7.14118 7.14117 h 14.96246 14.96246 v 5.78096 5.78095 h -14.96246 -14.96246 v 7.99132 7.99132 h 16.49271 16.49272 v 6.12101 6.121 h -23.97395 -23.97394 z"
       id="path8361" />
    <path
       style="fill:#d40000;fill-opacity:1;stroke:#000000;stroke-width:2;stroke-miterlimit:4;stroke-dasharray:none;stroke-opacity:1"
       d="m 229.20618,82.78675 c -14.5164,-2.27642 -24.70068,-11.74132 -27.57942,-25.63131 -0.91669,-4.423 -0.72908,-13.75066 0.35743,-17.77117 2.11316,-7.81953 7.25964,-14.80563 13.97886,-18.97562 8.20329,-5.09101 20.00447,-6.65483 29.8839,-3.96002 4.60565,1.25628 11.35033,4.83827 13.52691,7.18391 l 0.79162,0.85312 -3.81088,5.72216 c -2.09598,3.14718 -3.85847,5.77846 -3.91663,5.84729 -0.0582,0.0688 -1.14467,-0.78618 -2.41446,-1.90001 -5.93538,-5.20636 -10.56949,-7.19963 -15.66482,-6.7379 -8.44512,0.76528 -14.90312,6.6617 -16.83597,15.37196 -0.68542,3.08879 -0.70237,9.6399 -0.0332,12.83805 0.74892,3.57939 2.84141,7.52322 5.34995,10.08337 3.88434,3.96423 8.25472,5.55398 14.5173,5.28076 3.81002,-0.16623 6.06296,-0.81247 8.53455,-2.4481 l 1.31407,-0.86961 V 61.56552 55.4574 h -6.28274 -6.28274 v -5.94313 -5.94313 h 13.4145 13.41449 v 15.62265 15.62265 l -2.12254,1.57401 c -2.73297,2.02669 -7.46024,4.29667 -11.12215,5.34071 -5.48308,1.56329 -13.08859,1.98543 -19.01802,1.05559 z m 250.46051,0.008 c -7.26173,-1.1609 -15.17112,-4.60813 -19.6483,-8.56352 -0.68064,-0.60134 -1.23756,-1.25425 -1.23756,-1.4509 0,-0.19666 2.07904,-2.95199 4.62009,-6.12297 l 4.62009,-5.76541 1.74755,1.57213 c 3.28726,2.95728 7.97269,5.71231 12.10558,7.11807 2.57341,0.87533 8.02767,0.89231 10.2573,0.032 4.0344,-1.55676 5.23902,-5.96159 2.46891,-9.02778 -1.82546,-2.02056 -5.13116,-3.33424 -11.73673,-4.66414 -7.18209,-1.44597 -10.50902,-2.48143 -14.40398,-4.48303 -5.4201,-2.78538 -9.19888,-7.3288 -10.36577,-12.46326 -0.57529,-2.53149 -0.48655,-7.59961 0.17341,-9.89952 2.20096,-7.67058 9.14478,-12.6357 19.24141,-13.75839 9.19962,-1.02295 22.66808,1.94841 30.10043,6.64067 l 1.45301,0.91734 -4.12898,5.4305 c -2.27096,2.98677 -4.25036,5.50548 -4.39863,5.59713 -0.14831,0.0916 -1.25027,-0.44823 -2.44881,-1.19972 -5.63572,-3.53357 -15.20076,-5.32634 -20.80982,-3.90037 -2.68039,0.68144 -4.23155,2.24001 -4.23155,4.25181 0,3.72827 3.04,5.52914 12.63439,7.48447 10.19474,2.0777 15.08804,4.21885 19.30013,8.44515 4.1859,4.19998 5.82396,8.22914 5.87612,14.45336 0.0506,6.03771 -1.2758,9.52985 -5.06572,13.33724 -2.81161,2.82459 -6.29326,4.67941 -10.67043,5.6846 -3.4803,0.79923 -11.46433,0.97212 -15.45214,0.3346 z M 15.458248,81.89042 c 0.134669,-0.2179 5.55206,-15.07997 12.038649,-33.02683 l 11.793797,-32.63065 8.112815,-0.0908 8.112815,-0.0908 11.621877,32.87436 c 6.392034,18.08091 11.621877,32.98383 11.621877,33.11761 0,0.13377 -3.572052,0.24323 -7.937897,0.24323 H 62.884288 L 60.90093,76.51321 58.917571,70.73988 H 47.149397 35.381222 l -1.948866,5.77333 -1.948865,5.77333 h -8.135047 c -6.111292,0 -8.074136,-0.0986 -7.890196,-0.39618 z M 51.111289,48.32622 C 49.040593,42.34933 47.263273,37.45898 47.16169,37.45878 c -0.101584,-2.1e-4 -1.538777,3.93483 -3.193763,8.74452 -1.654986,4.80969 -3.360697,9.70004 -3.790471,10.86744 l -0.781406,2.12255 h 7.74007 7.740071 z m 32.403293,1.01845 V 16.40274 h 7.29952 7.29951 l 0.087,26.91389 0.087,26.9139 14.399788,0.0886 14.3998,0.0886 -0.22118,3.61499 c -0.12166,1.98824 -0.22119,4.66097 -0.22119,5.9394 v 2.32443 H 105.07975 83.514682 Z m 49.582688,0 V 16.40274 h 7.47136 7.47137 v 26.9988 26.99879 l 14.34841,-3.4e-4 14.34842,-3.4e-4 -0.10004,5.94355 -0.10005,5.9434 h -21.71973 -21.71974 z m 128.03202,32.78766 c 0,-0.1647 22.85611,-63.5612 23.48299,-65.13528 l 0.37193,-0.93392 h 8.06611 8.06611 l 2.25169,6.36764 c 1.23843,3.50221 6.50628,18.40248 11.70633,33.11173 l 9.45465,26.7441 H 316.50455 308.48 l -1.98336,-5.77333 -1.98336,-5.77333 -11.75848,0.003 -11.75848,0.003 -1.98745,5.7707 -1.98744,5.77053 h -7.94607 c -4.37034,0 -7.94607,-0.0694 -7.94607,-0.15427 z m 37.37785,-28.62747 c -1.08972,-3.12863 -2.78266,-8.01898 -3.76209,-10.86744 -0.97943,-2.84846 -1.87557,-5.17712 -1.99143,-5.1748 -0.19756,0.004 -7.51733,20.92526 -7.51382,21.47596 10e-4,0.14009 3.4322,0.25471 7.62513,0.25471 h 7.62352 z m 56.9112,26.9988 c -4.96005,-17.35263 -12.87096,-44.60458 -12.97975,-44.71337 -0.0787,-0.0787 -0.14312,10.27434 -0.14312,23.00679 v 23.14991 h -7.13176 -7.13175 V 49.00506 16.06313 h 11.30243 11.30243 l 5.71283,20.46135 c 3.14205,11.25375 5.81306,20.56964 5.93556,20.70199 0.12249,0.13234 2.64676,-8.80783 5.60946,-19.86704 2.9627,-11.05922 5.51703,-20.45356 5.67624,-20.87632 l 0.28951,-0.76864 11.47102,0.0894 11.47103,0.0894 0.0866,33.02683 0.0866,33.02683 h -7.13345 -7.13342 V 57.948 c 0,-13.19941 -0.08,-23.91896 -0.17772,-23.82121 -0.15075,0.15074 -13.40658,47.6345 -13.40658,48.02372 0,0.0748 -2.96922,0.13603 -6.59823,0.13603 H 355.928 Z M 407.1605,49.34467 V 16.40274 h 23.26311 23.26311 v 5.94313 5.94313 h -15.79175 -15.79175 v 7.13176 7.13176 h 14.94273 14.94273 v 5.77333 5.77332 h -14.94273 -14.94273 v 8.15058 8.15058 h 16.47097 16.47096 v 5.94313 5.94314 H 431.10282 407.1605 Z"
       id="path9449" />
  </g>
</svg>
