<?xml version="1.0" encoding="UTF-8" standalone="no"?>
<!-- Created with Inkscape (http://www.inkscape.org/) -->

<svg
   width="155.2058mm"
   height="36.548641mm"
   viewBox="0 0 155.2058 36.548641"
   version="1.1"
   id="svg5"
   inkscape:version="1.1 (c68e22c387, 2021-05-23)"
   sodipodi:docname="auto-simulationvehicle.svg"
   xmlns:inkscape="http://www.inkscape.org/namespaces/inkscape"
   xmlns:sodipodi="http://sodipodi.sourceforge.net/DTD/sodipodi-0.dtd"
   xmlns="http://www.w3.org/2000/svg"
   xmlns:svg="http://www.w3.org/2000/svg">
  <sodipodi:namedview
     id="namedview7"
     pagecolor="#ffffff"
     bordercolor="#666666"
     borderopacity="1.0"
     inkscape:pageshadow="2"
     inkscape:pageopacity="0.0"
     inkscape:pagecheckerboard="0"
     inkscape:document-units="mm"
     showgrid="false"
     fit-margin-top="0"
     fit-margin-left="0"
     fit-margin-right="0"
     fit-margin-bottom="0"
     inkscape:zoom="0.67081229"
     inkscape:cx="276.53041"
     inkscape:cy="-17.88876"
     inkscape:window-width="1920"
     inkscape:window-height="1138"
     inkscape:window-x="-8"
     inkscape:window-y="-8"
     inkscape:window-maximized="1"
     inkscape:current-layer="layer1" />
  <defs
     id="defs2" />
  <g
     inkscape:label="Calque 1"
     inkscape:groupmode="layer"
     id="layer1"
     transform="translate(-27.397057,-120.61372)">
    <rect
       style="fill:#ffffff;fill-rule:evenodd;stroke:none;stroke-width:5.1411;stroke-linecap:round;stroke-linejoin:round;stroke-miterlimit:4;stroke-dasharray:none;paint-order:stroke markers fill"
       id="rect19285"
       width="23.66534"
       height="18.73506"
       x="57.193298"
       y="122.61372" />
    <rect
       style="fill:#ffffff;fill-rule:evenodd;stroke:none;stroke-width:4.71657;stroke-linecap:round;stroke-linejoin:round;stroke-miterlimit:4;stroke-dasharray:none;paint-order:stroke markers fill"
       id="rect19411"
       width="19.918329"
       height="18.73506"
       x="116.98913"
       y="122.61372" />
    <rect
       style="fill:#ffffff;fill-rule:evenodd;stroke:none;stroke-width:3.34266;stroke-linecap:round;stroke-linejoin:round;stroke-miterlimit:4;stroke-dasharray:none;paint-order:stroke markers fill"
       id="rect19413"
       width="19.918329"
       height="9.4099169"
       x="129.15994"
       y="146.22626" />
    <rect
       style="fill:#ffffff;fill-rule:evenodd;stroke:none;stroke-width:4.07784;stroke-linecap:round;stroke-linejoin:round;stroke-miterlimit:4;stroke-dasharray:none;paint-order:stroke markers fill"
       id="rect19415"
       width="29.643415"
       height="9.4099169"
       x="122.59023"
       y="139.34718" />
    <rect
       style="fill:#ffffff;fill-rule:evenodd;stroke:none;stroke-width:2.13095;stroke-linecap:round;stroke-linejoin:round;stroke-miterlimit:4;stroke-dasharray:none;paint-order:stroke markers fill"
       id="rect19417"
       width="14.458157"
       height="5.2684827"
       x="88.194412"
       y="141.51651" />
    <rect
       style="fill:#ffffff;fill-rule:evenodd;stroke:none;stroke-width:2.13095;stroke-linecap:round;stroke-linejoin:round;stroke-miterlimit:4;stroke-dasharray:none;paint-order:stroke markers fill"
       id="rect19419"
       width="14.458157"
       height="5.2684827"
       x="67.556892"
       y="141.51651" />
    <g
       id="g19109"
       style="stroke:#ffffff;stroke-width:4;stroke-linecap:round;stroke-linejoin:round;stroke-miterlimit:4;stroke-dasharray:none;paint-order:stroke markers fill">
      <g
         aria-label="simulation"
         id="text17420"
         style="font-size:16.5621px;line-height:1.25;font-family:'Rose Of Baltimore';-inkscape-font-specification:'Rose Of Baltimore';fill:#800000;stroke:#ffffff;stroke-width:4;stroke-linecap:round;stroke-linejoin:round;stroke-miterlimit:4;stroke-dasharray:none;paint-order:stroke markers fill">
        <path
           d="m 63.280161,152.37991 v -0.0994 q 0,-0.13249 -0.04969,-0.26499 -0.04969,-0.14906 -0.182183,-0.14906 h -3.31242 q -0.496862,0 -0.894353,-0.23187 -0.39749,-0.24843 -0.695608,-0.6128 -0.281556,-0.38092 -0.430615,-0.8281 -0.149059,-0.44718 -0.149059,-0.87779 0,-0.39749 0.23187,-0.89436 0.231869,-0.51342 0.596235,-0.9606 0.364367,-0.46374 0.828105,-0.76185 0.463739,-0.31468 0.927478,-0.31468 h 8.446671 q -0.380929,0.56311 -0.877792,1.12622 -0.4803,0.56311 -1.076536,1.12622 h -5.465493 q -0.182183,0 -0.31468,0.24843 -0.132497,0.24843 -0.132497,0.39749 v 0.0828 q 0,0.0166 0.06625,0.0828 0.06625,0.0497 0.09937,0.0828 0.06625,0.0662 0.182184,0.1325 0.132496,0.0497 0.149058,0.0497 h 3.146799 q 0.54655,0 0.927478,0.26499 0.380928,0.24843 0.612798,0.64592 0.248431,0.38093 0.347804,0.82811 0.115934,0.44717 0.115934,0.8281 v 0.0994 q 0,0.43061 -0.198745,0.92747 -0.198745,0.4803 -0.529987,0.89436 -0.31468,0.41405 -0.745294,0.6956 -0.414053,0.265 -0.86123,0.265 h -8.44667 q 0.08281,-0.16562 0.331242,-0.52999 0.264993,-0.36437 0.546549,-0.72873 0.298118,-0.38093 0.546549,-0.66249 0.248432,-0.29811 0.298118,-0.29811 h 5.631114 q 0.248431,0 0.281555,-0.14906 0.04969,-0.14906 0.04969,-0.31468 z"
           style="font-family:Airstrike;-inkscape-font-specification:'Airstrike, Normal';stroke:#ffffff;stroke-width:4;stroke-linecap:round;stroke-linejoin:round;stroke-miterlimit:4;stroke-dasharray:none;paint-order:stroke markers fill"
           id="path19050" />
        <path
           d="m 66.377271,155.16234 h 3.179923 l 3.196486,-8.77791 h -3.179924 z"
           style="font-family:Airstrike;-inkscape-font-specification:'Airstrike, Normal';stroke:#ffffff;stroke-width:4;stroke-linecap:round;stroke-linejoin:round;stroke-miterlimit:4;stroke-dasharray:none;paint-order:stroke markers fill"
           id="path19052" />
        <path
           d="m 83.436215,155.16234 3.196486,-8.77791 h -4.008029 l -4.057714,4.40551 -0.844667,-4.40551 h -4.008028 l -3.196485,8.77791 h 3.179923 l 1.788707,-4.93551 0.910915,4.93551 h 1.142785 l 4.504891,-4.93551 -1.788707,4.93551 z"
           style="font-family:Airstrike;-inkscape-font-specification:'Airstrike, Normal';stroke:#ffffff;stroke-width:4;stroke-linecap:round;stroke-linejoin:round;stroke-miterlimit:4;stroke-dasharray:none;paint-order:stroke markers fill"
           id="path19054" />
        <path
           d="m 86.251747,150.06121 1.308406,-3.67678 h 3.130237 q -0.579674,1.68933 -0.894354,2.63337 -0.314679,0.92748 -0.463738,1.39122 -0.149059,0.46373 -0.182183,0.59623 -0.03312,0.11594 -0.03312,0.16562 -0.08281,0.33124 -0.08281,0.52999 0,0.57967 0.31468,0.91091 0.331242,0.31468 0.71217,0.31468 h 0.811543 q 0.39749,0 0.728732,-0.16562 0.347804,-0.16562 0.612798,-0.41405 0.264994,-0.24843 0.463739,-0.52999 0.198745,-0.28155 0.31468,-0.51342 l 1.788706,-4.91894 h 3.146799 l -1.490589,4.09083 q -0.414052,1.14279 -0.844667,2.02058 -0.430614,0.86123 -0.977164,1.45746 -0.546549,0.59624 -1.258719,0.91092 -0.71217,0.29812 -1.705896,0.29812 h -1.937766 q -1.175909,0 -1.954328,-0.1325 -0.778418,-0.14906 -1.242157,-0.44718 -0.463739,-0.29811 -0.662484,-0.76185 -0.198745,-0.4803 -0.198745,-1.14279 0,-0.18218 0.01656,-0.36436 0.01656,-0.18219 0.04969,-0.41406 0.08281,-0.43061 0.231869,-0.84466 0.149059,-0.43062 0.298118,-0.99373 z"
           style="font-family:Airstrike;-inkscape-font-specification:'Airstrike, Normal';stroke:#ffffff;stroke-width:4;stroke-linecap:round;stroke-linejoin:round;stroke-miterlimit:4;stroke-dasharray:none;paint-order:stroke markers fill"
           id="path19056" />
        <path
           d="m 95.659006,155.16234 3.196485,-8.77791 h 3.163359 l -2.384941,6.54202 h 5.250181 q 0.0166,0 -0.19874,0.28156 -0.19875,0.28156 -0.51343,0.66248 -0.31468,0.36437 -0.66248,0.7453 -0.3478,0.36437 -0.57967,0.54655 z"
           style="font-family:Airstrike;-inkscape-font-specification:'Airstrike, Normal';stroke:#ffffff;stroke-width:4;stroke-linecap:round;stroke-linejoin:round;stroke-miterlimit:4;stroke-dasharray:none;paint-order:stroke markers fill"
           id="path19058" />
        <path
           d="m 116.36161,155.16234 -1.0931,-7.10514 q -0.0497,-0.19875 -0.1325,-0.4803 -0.0662,-0.29812 -0.16562,-0.56311 -0.0994,-0.265 -0.24843,-0.44718 -0.1325,-0.18218 -0.29812,-0.18218 h -2.78243 q -0.11594,0 -0.29812,0.13249 -0.16562,0.11594 -0.3478,0.28156 -0.16563,0.14906 -0.31468,0.31468 -0.14906,0.16562 -0.19875,0.26499 l -5.96236,7.61857 v 0.0497 q 0,-0.0166 -0.0331,0.11594 h 7.00577 q 0.11593,-0.0497 0.36436,-0.31468 0.24844,-0.265 0.49687,-0.57968 0.26499,-0.31468 0.46374,-0.59623 0.2153,-0.28156 0.24843,-0.38093 l 0.3478,1.87152 z m -6.65797,-2.38494 2.78243,-3.72648 0.57968,3.8921 h -3.36211 z"
           style="font-family:Airstrike;-inkscape-font-specification:'Airstrike, Normal';stroke:#ffffff;stroke-width:4;stroke-linecap:round;stroke-linejoin:round;stroke-miterlimit:4;stroke-dasharray:none;paint-order:stroke markers fill"
           id="path19060" />
        <path
           d="m 117.75278,155.16234 h 3.17992 l 2.38494,-6.54203 h 1.95433 q 0.1325,0 0.41405,-0.26499 0.29812,-0.265 0.59624,-0.62936 0.31468,-0.36437 0.57967,-0.72874 0.28156,-0.38093 0.39749,-0.61279 h -8.29761 q -0.23187,0.14905 -0.56311,0.49686 -0.31468,0.33124 -0.62936,0.69561 -0.29812,0.36436 -0.52999,0.66248 -0.21531,0.29812 -0.23187,0.36437 v 0.0166 h 3.13024 z"
           style="font-family:Airstrike;-inkscape-font-specification:'Airstrike, Normal';stroke:#ffffff;stroke-width:4;stroke-linecap:round;stroke-linejoin:round;stroke-miterlimit:4;stroke-dasharray:none;paint-order:stroke markers fill"
           id="path19062" />
        <path
           d="m 124.94072,155.16234 h 3.17992 l 3.19649,-8.77791 h -3.17993 z"
           style="font-family:Airstrike;-inkscape-font-specification:'Airstrike, Normal';stroke:#ffffff;stroke-width:4;stroke-linecap:round;stroke-linejoin:round;stroke-miterlimit:4;stroke-dasharray:none;paint-order:stroke markers fill"
           id="path19064" />
        <path
           d="m 142.09903,150.40902 q 0.0497,-0.265 0.0662,-0.49687 0.0166,-0.23187 0.0166,-0.46374 0,-0.81154 -0.28155,-1.39121 -0.28156,-0.59624 -0.81154,-0.9606 -0.52999,-0.36437 -1.27529,-0.52999 -0.74529,-0.18218 -1.68933,-0.18218 h -2.46775 q -0.87779,0 -1.73902,0.41405 -0.86123,0.39749 -1.5734,1.07653 -0.71217,0.66249 -1.19247,1.52372 -0.4803,0.84466 -0.59624,1.73902 -0.0331,0.23187 -0.0497,0.44717 -0.0166,0.21531 -0.0166,0.41406 0,0.92747 0.31468,1.54027 0.33124,0.6128 0.89436,0.97717 0.56311,0.3478 1.34153,0.49686 0.77841,0.14906 1.68933,0.14906 h 1.93777 q 0.99372,0 1.90464,-0.39749 0.92747,-0.39749 1.65621,-1.04341 0.72873,-0.66249 1.22559,-1.52372 0.49687,-0.86123 0.64592,-1.7887 z m -8.4301,0.49686 q 0.0166,-0.1325 0.0828,-0.29812 0.0662,-0.18218 0.14905,-0.38093 0.14906,-0.28155 0.3975,-0.56311 0.26499,-0.29812 0.56311,-0.52999 0.29811,-0.23187 0.59623,-0.36436 0.31468,-0.14906 0.57968,-0.14906 h 1.62308 q 0.41405,0 0.66249,0.1325 0.26499,0.11593 0.41405,0.33124 0.14906,0.19874 0.19874,0.46374 0.0497,0.26499 0.0497,0.52998 0,0.14906 -0.0166,0.29812 0,0.1325 -0.0166,0.265 0,-0.0166 -0.0331,0.14905 l -0.0662,0.16562 q -0.0331,0.1325 -0.18218,0.36437 -0.14906,0.28156 -0.46374,0.57967 -0.29812,0.28156 -0.64592,0.51343 -0.33124,0.23187 -0.62936,0.38093 -0.29812,0.13249 -0.44718,0.13249 h -1.37465 q -0.29812,0 -0.56311,-0.16562 -0.265,-0.16562 -0.46374,-0.43061 -0.19875,-0.26499 -0.31468,-0.57967 -0.11594,-0.33125 -0.11594,-0.62936 v -0.0994 q 0,-0.0994 0.0166,-0.11593 z"
           style="font-family:Airstrike;-inkscape-font-specification:'Airstrike, Normal';stroke:#ffffff;stroke-width:4;stroke-linecap:round;stroke-linejoin:round;stroke-miterlimit:4;stroke-dasharray:none;paint-order:stroke markers fill"
           id="path19066" />
        <path
           d="m 141.30403,155.16234 h 3.17993 l 1.7887,-4.93551 0.92748,4.93551 h 4.00803 l 3.19648,-8.77791 h -3.1468 l -1.80526,4.9355 -0.94404,-4.9355 h -4.00803 z"
           style="font-family:Airstrike;-inkscape-font-specification:'Airstrike, Normal';stroke:#ffffff;stroke-width:4;stroke-linecap:round;stroke-linejoin:round;stroke-miterlimit:4;stroke-dasharray:none;paint-order:stroke markers fill"
           id="path19068" />
      </g>
      <g
         aria-label="Vehicle"
         id="text12762"
         style="font-size:37.3995px;line-height:1.25;font-family:'Rose Of Baltimore';-inkscape-font-specification:'Rose Of Baltimore';stroke:#ffffff;stroke-width:4;stroke-linecap:round;stroke-linejoin:round;stroke-miterlimit:4;stroke-dasharray:none;paint-order:stroke markers fill">
        <path
           d="M 37.699716,135.96534 35.90454,122.61372 h -6.507514 l 2.31877,16.04439 q 0.112198,0.44879 0.261796,1.12198 0.149598,0.63579 0.373995,1.23418 0.224397,0.5984 0.523593,1.00979 0.299196,0.4114 0.710591,0.4114 h 6.170917 q 0.261797,0 0.673191,-0.2618 0.411395,-0.2992 0.78539,-0.67319 0.411395,-0.4114 0.74799,-0.78539 0.336596,-0.374 0.523593,-0.59839 l 13.276823,-17.50297 h -7.704297 z"
           style="font-family:Airstrike;-inkscape-font-specification:'Airstrike, Normal';stroke:#ffffff;stroke-width:4;stroke-linecap:round;stroke-linejoin:round;stroke-miterlimit:4;stroke-dasharray:none;paint-order:stroke markers fill"
           id="path19035" />
        <path
           d="m 57.484023,122.61372 -7.218104,19.82174 h 18.811949 q 0.0374,0 0.448794,-0.374 0.448794,-0.37399 1.009787,-0.89759 0.560992,-0.56099 1.121985,-1.15938 0.598392,-0.59839 0.934987,-1.04719 0.0374,-0.0374 0.186998,-0.26179 0.149598,-0.2244 0.299196,-0.4862 0.149598,-0.26179 0.299196,-0.48619 0.149598,-0.2618 0.186998,-0.3366 h -14.32401 l 0.822789,-2.24397 h 7.442501 l 5.348129,-5.04893 h -8.639285 l -3.552953,3.44075 2.131772,-5.87172 h 11.519047 q 0.299196,0 0.934987,-0.59839 0.673191,-0.59839 1.346382,-1.42118 0.710591,-0.82279 1.308983,-1.64558 0.635791,-0.86019 0.897588,-1.38378 z"
           style="font-family:Airstrike;-inkscape-font-specification:'Airstrike, Normal';stroke:#ffffff;stroke-width:4;stroke-linecap:round;stroke-linejoin:round;stroke-miterlimit:4;stroke-dasharray:none;paint-order:stroke markers fill"
           id="path19037" />
        <path
           d="m 73.640534,142.43546 h 7.180704 l 2.580566,-7.10591 h 8.078292 l -2.580566,7.10591 h 7.105906 l 7.218104,-19.82174 h -7.105906 l -2.804962,7.6669 h -5.684725 l -3.814749,3.92694 4.226144,-11.59384 h -7.180705 z"
           style="font-family:Airstrike;-inkscape-font-specification:'Airstrike, Normal';stroke:#ffffff;stroke-width:4;stroke-linecap:round;stroke-linejoin:round;stroke-miterlimit:4;stroke-dasharray:none;paint-order:stroke markers fill"
           id="path19039" />
        <path
           d="m 98.174584,142.43546 h 7.180706 l 7.2181,-19.82174 h -7.1807 z"
           style="font-family:Airstrike;-inkscape-font-specification:'Airstrike, Normal';stroke:#ffffff;stroke-width:4;stroke-linecap:round;stroke-linejoin:round;stroke-miterlimit:4;stroke-dasharray:none;paint-order:stroke markers fill"
           id="path19041" />
        <path
           d="m 111.22696,133.34738 q 0,2.69276 1.04719,4.45054 1.08459,1.75777 2.84236,2.80496 1.75778,1.00979 3.96435,1.42118 2.20657,0.4114 4.52534,0.4114 h 2.99196 q 1.42118,-1.12199 2.50577,-2.43097 1.08458,-1.34638 1.94477,-2.61797 h -8.93848 q -0.63579,0 -1.34638,-0.44879 -0.67319,-0.4488 -1.27159,-1.12199 -0.56099,-0.67319 -0.93498,-1.45858 -0.374,-0.82279 -0.374,-1.53338 0,-0.56099 0.2992,-1.53338 0.2244,-0.63579 0.63579,-1.27158 0.41139,-0.67319 0.89759,-1.19678 0.52359,-0.5236 1.04718,-0.82279 0.561,-0.3366 1.04719,-0.3366 h 9.72387 q 1.30898,-1.12198 2.39357,-2.35617 1.12198,-1.27158 2.20657,-2.69276 h -15.446 q -1.98217,0 -3.73995,1.00979 -1.75777,0.97238 -3.10415,2.50576 -1.34639,1.53338 -2.13178,3.44076 -0.78539,1.90737 -0.78539,3.70255 z"
           style="font-family:Airstrike;-inkscape-font-specification:'Airstrike, Normal';stroke:#ffffff;stroke-width:4;stroke-linecap:round;stroke-linejoin:round;stroke-miterlimit:4;stroke-dasharray:none;paint-order:stroke markers fill"
           id="path19043" />
        <path
           d="m 131.12345,142.43546 7.21811,-19.82174 h 7.1433 l -5.38553,14.7728 h 11.85564 q 0.0374,0 -0.44879,0.63579 -0.44879,0.6358 -1.15938,1.49598 -0.7106,0.82279 -1.49598,1.68298 -0.78539,0.82279 -1.30899,1.23419 z"
           style="font-family:Airstrike;-inkscape-font-specification:'Airstrike, Normal';stroke:#ffffff;stroke-width:4;stroke-linecap:round;stroke-linejoin:round;stroke-miterlimit:4;stroke-dasharray:none;paint-order:stroke markers fill"
           id="path19045" />
        <path
           d="m 159.28526,122.61372 -7.21811,19.82174 h 18.81195 q 0.0374,0 0.4488,-0.374 0.44879,-0.37399 1.00978,-0.89759 0.561,-0.56099 1.12199,-1.15938 0.59839,-0.59839 0.93499,-1.04719 0.0374,-0.0374 0.18699,-0.26179 0.1496,-0.2244 0.2992,-0.4862 0.1496,-0.26179 0.2992,-0.48619 0.14959,-0.2618 0.18699,-0.3366 h -14.32401 l 0.82279,-2.24397 h 7.4425 l 5.34813,-5.04893 h -8.63928 l -3.55295,3.44075 2.13177,-5.87172 h 11.51904 q 0.2992,0 0.93499,-0.59839 0.67319,-0.59839 1.34638,-1.42118 0.71059,-0.82279 1.30899,-1.64558 0.63579,-0.86019 0.89758,-1.38378 z"
           style="font-family:Airstrike;-inkscape-font-specification:'Airstrike, Normal';stroke:#ffffff;stroke-width:4;stroke-linecap:round;stroke-linejoin:round;stroke-miterlimit:4;stroke-dasharray:none;paint-order:stroke markers fill"
           id="path19047" />
      </g>
    </g>
    <g
       id="g19185"
       transform="translate(-3.5498,84.011954)">
      <g
         aria-label="Vehicle"
         id="text18966"
         style="font-size:37.3995px;line-height:1.25;font-family:'Rose Of Baltimore';-inkscape-font-specification:'Rose Of Baltimore';stroke-width:0.389578">
        <path
           d="M 41.249517,51.95339 39.454341,38.601768 h -6.507514 l 2.318769,16.044386 q 0.112199,0.448794 0.261797,1.121985 0.149598,0.635792 0.373995,1.234184 0.224397,0.598392 0.523593,1.009786 0.299196,0.411395 0.710591,0.411395 h 6.170917 q 0.261797,0 0.673191,-0.261797 0.411395,-0.299196 0.78539,-0.673191 0.411394,-0.411394 0.74799,-0.785389 0.336595,-0.373995 0.523593,-0.598392 L 59.313476,38.601768 h -7.704297 z"
           style="font-family:Airstrike;-inkscape-font-specification:'Airstrike, Normal'"
           id="path19111" />
        <path
           d="M 61.033824,38.601768 53.81572,58.423504 h 18.811949 q 0.0374,0 0.448794,-0.373995 0.448794,-0.373995 1.009787,-0.897588 0.560992,-0.560993 1.121985,-1.159385 0.598392,-0.598392 0.934987,-1.047186 0.0374,-0.0374 0.186998,-0.261796 0.149598,-0.224397 0.299196,-0.486194 0.149598,-0.261796 0.299196,-0.486193 0.149598,-0.261797 0.186997,-0.336596 H 62.7916 l 0.822789,-2.24397 h 7.442501 l 5.348129,-5.048933 h -8.639285 l -3.552953,3.440754 2.131772,-5.871721 h 11.519046 q 0.299196,0 0.934988,-0.598392 0.673191,-0.598392 1.346382,-1.421181 0.710591,-0.822789 1.308983,-1.645579 0.635791,-0.860188 0.897588,-1.383781 z"
           style="font-family:Airstrike;-inkscape-font-specification:'Airstrike, Normal'"
           id="path19113" />
        <path
           d="m 77.190334,58.423504 h 7.180705 l 2.580565,-7.105905 h 8.078293 l -2.580566,7.105905 h 7.105906 l 7.218103,-19.821736 h -7.105905 l -2.804963,7.666898 h -5.684724 l -3.814749,3.926947 4.226144,-11.593845 h -7.180705 z"
           style="font-family:Airstrike;-inkscape-font-specification:'Airstrike, Normal'"
           id="path19115" />
        <path
           d="m 101.72438,58.423504 h 7.18071 l 7.2181,-19.821736 h -7.1807 z"
           style="font-family:Airstrike;-inkscape-font-specification:'Airstrike, Normal'"
           id="path19117" />
        <path
           d="m 114.77677,49.335425 q 0,2.692764 1.04718,4.450541 1.08459,1.757776 2.84236,2.804962 1.75778,1.009787 3.96435,1.421181 2.20657,0.411395 4.52534,0.411395 h 2.99196 q 1.42118,-1.121985 2.50577,-2.430968 1.08458,-1.346382 1.94477,-2.617965 h -8.93848 q -0.63579,0 -1.34638,-0.448794 -0.67319,-0.448794 -1.27158,-1.121985 -0.561,-0.673191 -0.93499,-1.458581 -0.374,-0.822789 -0.374,-1.533379 0,-0.560993 0.2992,-1.53338 0.2244,-0.635791 0.63579,-1.271583 0.4114,-0.673191 0.89759,-1.196784 0.52359,-0.523593 1.04718,-0.822789 0.561,-0.336595 1.04719,-0.336595 h 9.72387 q 1.30898,-1.121985 2.39357,-2.356169 1.12198,-1.271583 2.20657,-2.692764 h -15.44599 q -1.98218,0 -3.73995,1.009786 -1.75778,0.972388 -3.10416,2.505767 -1.34639,1.53338 -2.13177,3.440754 -0.78539,1.907375 -0.78539,3.702551 z"
           style="font-family:Airstrike;-inkscape-font-specification:'Airstrike, Normal'"
           id="path19119" />
        <path
           d="m 134.67325,58.423504 7.21811,-19.821736 h 7.1433 l -5.38553,14.772803 h 11.85564 q 0.0374,0 -0.44879,0.635792 -0.44879,0.635791 -1.15938,1.49598 -0.71059,0.822789 -1.49598,1.682977 -0.78539,0.822789 -1.30899,1.234184 z"
           style="font-family:Airstrike;-inkscape-font-specification:'Airstrike, Normal'"
           id="path19121" />
        <path
           d="m 162.83506,38.601768 -7.21811,19.821736 h 18.81195 q 0.0374,0 0.4488,-0.373995 0.44879,-0.373995 1.00978,-0.897588 0.561,-0.560993 1.12199,-1.159385 0.59839,-0.598392 0.93499,-1.047186 0.0374,-0.0374 0.187,-0.261796 0.14959,-0.224397 0.29919,-0.486194 0.1496,-0.261796 0.2992,-0.486193 0.1496,-0.261797 0.18699,-0.336596 h -14.324 l 0.82278,-2.24397 h 7.44251 l 5.34812,-5.048933 h -8.63928 l -3.55295,3.440754 2.13177,-5.871721 h 11.51904 q 0.2992,0 0.93499,-0.598392 0.67319,-0.598392 1.34638,-1.421181 0.71059,-0.822789 1.30899,-1.645579 0.63579,-0.860188 0.89758,-1.383781 z"
           style="font-family:Airstrike;-inkscape-font-specification:'Airstrike, Normal'"
           id="path19123" />
      </g>
      <g
         aria-label="simulation"
         id="text18970"
         style="font-size:16.5621px;line-height:1.25;font-family:'Rose Of Baltimore';-inkscape-font-specification:'Rose Of Baltimore';fill:#800000;stroke-width:0.172522">
        <path
           d="m 66.829962,68.36795 v -0.09937 q 0,-0.132497 -0.04969,-0.264994 -0.04969,-0.149059 -0.182183,-0.149059 h -3.31242 q -0.496863,0 -0.894353,-0.231869 -0.39749,-0.248432 -0.695608,-0.612798 -0.281556,-0.380928 -0.430615,-0.828105 -0.149059,-0.447177 -0.149059,-0.877791 0,-0.39749 0.23187,-0.894353 0.231869,-0.513426 0.596235,-0.960602 0.364366,-0.463739 0.828105,-0.761857 0.463739,-0.31468 0.927478,-0.31468 h 8.446671 q -0.380929,0.563112 -0.877792,1.126223 -0.480301,0.563111 -1.076536,1.126223 h -5.465493 q -0.182183,0 -0.31468,0.248431 -0.132497,0.248432 -0.132497,0.397491 v 0.08281 q 0,0.01656 0.06625,0.08281 0.06625,0.04969 0.09937,0.08281 0.06625,0.06625 0.182183,0.132497 0.132497,0.04969 0.149059,0.04969 h 3.146799 q 0.546549,0 0.927478,0.264994 0.380928,0.248431 0.612797,0.645922 0.248432,0.380928 0.347805,0.828105 0.115934,0.447176 0.115934,0.828105 v 0.09937 q 0,0.430615 -0.198745,0.927478 -0.198745,0.480301 -0.529987,0.894353 -0.31468,0.414053 -0.745295,0.695608 -0.414052,0.264994 -0.861229,0.264994 h -8.446671 q 0.08281,-0.165621 0.331242,-0.529987 0.264994,-0.364366 0.54655,-0.728733 0.298118,-0.380928 0.546549,-0.662484 0.248432,-0.298117 0.298118,-0.298117 h 5.631114 q 0.248431,0 0.281555,-0.149059 0.04969,-0.149059 0.04969,-0.31468 z"
           style="font-family:Airstrike;-inkscape-font-specification:'Airstrike, Normal'"
           id="path19126" />
        <path
           d="m 69.927072,71.150383 h 3.179923 L 76.30348,62.37247 h -3.179923 z"
           style="font-family:Airstrike;-inkscape-font-specification:'Airstrike, Normal'"
           id="path19128" />
        <path
           d="m 86.986016,71.150383 3.196485,-8.777913 h -4.008028 l -4.057714,4.405519 -0.844667,-4.405519 h -4.008028 l -3.196485,8.777913 h 3.179923 l 1.788706,-4.935506 0.910916,4.935506 h 1.142785 l 4.504891,-4.935506 -1.788707,4.935506 z"
           style="font-family:Airstrike;-inkscape-font-specification:'Airstrike, Normal'"
           id="path19130" />
        <path
           d="m 89.801548,66.049256 1.308406,-3.676786 h 3.130237 q -0.579674,1.689334 -0.894354,2.633374 -0.31468,0.927478 -0.463738,1.391216 -0.149059,0.463739 -0.182184,0.596236 -0.03312,0.115935 -0.03312,0.165621 -0.08281,0.331242 -0.08281,0.529987 0,0.579674 0.31468,0.910916 0.331242,0.31468 0.71217,0.31468 h 0.811543 q 0.39749,0 0.728732,-0.165621 0.347804,-0.165621 0.612798,-0.414053 0.264993,-0.248431 0.463739,-0.529987 0.198745,-0.281556 0.31468,-0.513425 l 1.788706,-4.918944 h 3.146797 l -1.490587,4.090839 q -0.414052,1.142785 -0.844667,2.020576 -0.430614,0.861229 -0.977164,1.457465 -0.546549,0.596235 -1.258719,0.910915 -0.712171,0.298118 -1.705897,0.298118 h -1.937765 q -1.175909,0 -1.954328,-0.132497 -0.778419,-0.149059 -1.242157,-0.447176 -0.463739,-0.298118 -0.662484,-0.761857 -0.198746,-0.480301 -0.198746,-1.142785 0,-0.182183 0.01656,-0.364366 0.01656,-0.182183 0.04969,-0.414053 0.08281,-0.430614 0.231869,-0.844667 0.149059,-0.430614 0.298118,-0.993726 z"
           style="font-family:Airstrike;-inkscape-font-specification:'Airstrike, Normal'"
           id="path19132" />
        <path
           d="m 99.208806,71.150383 3.196484,-8.777913 h 3.16336 l -2.38494,6.54203 h 5.25019 q 0.0166,0 -0.19875,0.281555 -0.19874,0.281556 -0.51342,0.662484 -0.31468,0.364366 -0.66249,0.745295 -0.3478,0.364366 -0.57967,0.546549 z"
           style="font-family:Airstrike;-inkscape-font-specification:'Airstrike, Normal'"
           id="path19134" />
        <path
           d="m 119.91141,71.150383 -1.0931,-7.105141 q -0.0497,-0.198745 -0.1325,-0.480301 -0.0662,-0.298117 -0.16562,-0.563111 -0.0994,-0.264994 -0.24843,-0.447177 -0.1325,-0.182183 -0.29812,-0.182183 h -2.78243 q -0.11594,0 -0.29812,0.132497 -0.16562,0.115935 -0.3478,0.281556 -0.16562,0.149059 -0.31468,0.31468 -0.14906,0.165621 -0.19875,0.264993 l -5.96235,7.618566 v 0.04969 q 0,-0.01656 -0.0331,0.115935 h 7.00577 q 0.11593,-0.04969 0.36437,-0.31468 0.24843,-0.264993 0.49686,-0.579673 0.26499,-0.31468 0.46374,-0.596236 0.2153,-0.281556 0.24843,-0.380928 l 0.3478,1.871517 z m -6.65797,-2.384942 2.78244,-3.726473 0.57967,3.892094 h -3.36211 z"
           style="font-family:Airstrike;-inkscape-font-specification:'Airstrike, Normal'"
           id="path19136" />
        <path
           d="m 121.30258,71.150383 h 3.17992 l 2.38494,-6.542029 h 1.95433 q 0.1325,0 0.41405,-0.264994 0.29812,-0.264993 0.59624,-0.62936 0.31468,-0.364366 0.57967,-0.728732 0.28156,-0.380928 0.39749,-0.612798 h -8.29761 q -0.23187,0.149059 -0.56311,0.496863 -0.31468,0.331242 -0.62936,0.695608 -0.29812,0.364367 -0.52999,0.662484 -0.2153,0.298118 -0.23187,0.364367 v 0.01656 h 3.13024 z"
           style="font-family:Airstrike;-inkscape-font-specification:'Airstrike, Normal'"
           id="path19138" />
        <path
           d="m 128.49052,71.150383 h 3.17992 l 3.19649,-8.777913 H 131.687 Z"
           style="font-family:Airstrike;-inkscape-font-specification:'Airstrike, Normal'"
           id="path19140" />
        <path
           d="m 145.64883,66.39706 q 0.0497,-0.264993 0.0662,-0.496863 0.0166,-0.231869 0.0166,-0.463738 0,-0.811543 -0.28156,-1.391217 -0.28156,-0.596235 -0.81154,-0.960601 -0.52999,-0.364367 -1.27528,-0.529988 -0.7453,-0.182183 -1.68934,-0.182183 h -2.46775 q -0.87779,0 -1.73902,0.414053 -0.86123,0.39749 -1.5734,1.076536 -0.71217,0.662484 -1.19247,1.523713 -0.4803,0.844667 -0.59624,1.739021 -0.0331,0.231869 -0.0497,0.447177 -0.0166,0.215307 -0.0166,0.414052 0,0.927478 0.31468,1.540275 0.33125,0.612798 0.89436,0.977164 0.56311,0.347804 1.34153,0.496863 0.77842,0.149059 1.68933,0.149059 h 1.93777 q 0.99372,0 1.90464,-0.39749 0.92748,-0.397491 1.65621,-1.043413 0.72873,-0.662484 1.22559,-1.523713 0.49687,-0.861229 0.64592,-1.788707 z m -8.4301,0.496863 q 0.0166,-0.132496 0.0828,-0.298117 0.0663,-0.182183 0.14906,-0.380929 0.14905,-0.281555 0.39749,-0.563111 0.26499,-0.298118 0.56311,-0.529987 0.29812,-0.23187 0.59623,-0.364366 0.31468,-0.149059 0.57968,-0.149059 h 1.62308 q 0.41405,0 0.66249,0.132497 0.26499,0.115934 0.41405,0.331241 0.14906,0.198746 0.19874,0.463739 0.0497,0.264994 0.0497,0.529987 0,0.149059 -0.0166,0.298118 0,0.132497 -0.0166,0.264994 0,-0.01656 -0.0331,0.149059 l -0.0662,0.165621 q -0.0331,0.132497 -0.18218,0.364366 -0.14906,0.281556 -0.46374,0.579673 -0.29812,0.281556 -0.64592,0.513425 -0.33124,0.23187 -0.62936,0.380929 -0.29812,0.132497 -0.44718,0.132497 h -1.37465 q -0.29812,0 -0.56311,-0.165621 -0.265,-0.165621 -0.46374,-0.430615 -0.19875,-0.264994 -0.31468,-0.579673 -0.11594,-0.331242 -0.11594,-0.62936 v -0.09937 q 0,-0.09937 0.0166,-0.115935 z"
           style="font-family:Airstrike;-inkscape-font-specification:'Airstrike, Normal'"
           id="path19142" />
        <path
           d="m 144.85383,71.150383 h 3.17993 l 1.7887,-4.935506 0.92748,4.935506 h 4.00803 l 3.19648,-8.777913 h -3.14679 l -1.80527,4.935506 -0.94404,-4.935506 h -4.00803 z"
           style="font-family:Airstrike;-inkscape-font-specification:'Airstrike, Normal'"
           id="path19144" />
      </g>
    </g>
  </g>
</svg>
