<?xml version="1.0" encoding="UTF-8" standalone="no"?>
<!-- Created with Inkscape (http://www.inkscape.org/) -->

<svg
   width="173.28391mm"
   height="36.66988mm"
   viewBox="0 0 173.28391 36.66988"
   version="1.1"
   id="svg5"
   inkscape:version="1.1 (c68e22c387, 2021-05-23)"
   sodipodi:docname="auto-sports.svg"
   xmlns:inkscape="http://www.inkscape.org/namespaces/inkscape"
   xmlns:sodipodi="http://sodipodi.sourceforge.net/DTD/sodipodi-0.dtd"
   xmlns="http://www.w3.org/2000/svg"
   xmlns:svg="http://www.w3.org/2000/svg">
  <sodipodi:namedview
     id="namedview7"
     pagecolor="#ffffff"
     bordercolor="#666666"
     borderopacity="1.0"
     inkscape:pageshadow="2"
     inkscape:pageopacity="0.0"
     inkscape:pagecheckerboard="0"
     inkscape:document-units="mm"
     showgrid="false"
     fit-margin-top="0"
     fit-margin-left="0"
     fit-margin-right="0"
     fit-margin-bottom="0"
     inkscape:zoom="0.94867184"
     inkscape:cx="435.87254"
     inkscape:cy="-18.973895"
     inkscape:window-width="1920"
     inkscape:window-height="1138"
     inkscape:window-x="-8"
     inkscape:window-y="-8"
     inkscape:window-maximized="1"
     inkscape:current-layer="layer1" />
  <defs
     id="defs2" />
  <g
     inkscape:label="Calque 1"
     inkscape:groupmode="layer"
     id="layer1"
     transform="translate(-11.760075,-105.09377)">
    <rect
       style="fill:#ffffff;fill-rule:evenodd;stroke:none;stroke-width:4;stroke-linecap:round;stroke-linejoin:round;stroke-miterlimit:4;stroke-dasharray:none;paint-order:stroke markers fill"
       id="rect3634"
       width="24.454184"
       height="22.08765"
       x="24.558393"
       y="111.31269" />
    <rect
       style="fill:#ffffff;fill-rule:evenodd;stroke:none;stroke-width:4;stroke-linecap:round;stroke-linejoin:round;stroke-miterlimit:4;stroke-dasharray:none;paint-order:stroke markers fill"
       id="rect3760"
       width="24.454184"
       height="22.08765"
       x="73.770935"
       y="111.31269" />
    <g
       aria-label="SPORTS"
       id="text980"
       style="font-size:30.6917px;line-height:1.25;font-family:'Rose Of Baltimore';-inkscape-font-specification:'Rose Of Baltimore';fill:#aa0000;stroke:#ffffff;stroke-width:4;stroke-linecap:round;stroke-linejoin:round;stroke-miterlimit:4;stroke-dasharray:none;paint-order:stroke markers fill">
      <path
         d="m 23.561037,118.33341 h 4.675689 v -1.079 h -4.675689 z m 0,10.16063 v 1.10898 h 4.675689 v -1.10898 z m -5.424997,11.26961 -4.375965,-4.52583 v -7.52306 h 3.626656 l -3.626656,-3.74655 V 111.6196 l 4.375965,-4.52583 h 15.525684 l 4.375965,4.52583 v 7.52306 h -3.596684 l 3.596684,3.71658 v 12.37858 l -4.375965,4.52583 z m 15.22596,-0.8692 3.836463,-3.98632 v -11.7192 L 33.362,119.20261 H 22.751784 v -2.78743 h 6.294196 v 1.85829 h 8.152483 V 111.9493 L 33.362,107.96297 H 18.435763 l -3.866435,3.98633 v 11.68922 l 3.866435,4.0163 H 29.04598 v 2.78743 h -6.294196 v -1.85829 h -8.182456 v 6.32417 l 3.866435,3.98632 z m -14.566568,-0.83922 -3.386877,-3.53674 v -5.09531 h 6.504002 v 1.88826 h 7.972649 v -4.52582 H 18.795432 l -3.386877,-3.50677 v -10.93991 l 3.386877,-3.53674 h 14.176927 l 3.41685,3.53674 v 5.0953 h -6.504003 v -1.88826 h -7.972649 v 4.49586 h 11.059802 l 3.41685,3.50676 v 10.96989 l -3.41685,3.53674 z"
         style="font-family:'Big Campus';-inkscape-font-specification:'Big Campus, Normal';fill:#aa0000;stroke:#ffffff;stroke-width:4;stroke-linecap:round;stroke-linejoin:round;stroke-miterlimit:4;stroke-dasharray:none;paint-order:stroke markers fill"
         id="path3223" />
      <path
         d="m 56.290858,118.33341 v -1.079 h -4.705661 v 1.079 z m -16.454827,21.43024 v -10.16063 h 1.828314 v -12.34861 h -1.828314 v -10.16064 h 21.93977 l 4.43591,4.52583 v 12.34861 l -4.43591,4.52583 H 51.585197 v 1.10898 h 1.828315 v 10.16063 z m 12.738254,-0.8692 v -8.4522 h -1.828314 v -2.78743 h 10.730106 l 3.896407,-4.0163 V 111.9493 l -3.896407,-3.98633 h -20.80082 v 8.45221 h 1.828314 v 14.02707 h -1.828314 v 8.4522 z m -1.828314,-19.69184 v -2.78743 h 6.384114 v 2.78743 z m 7.22334,0.83923 v -4.49586 h -8.062566 v 4.49586 z m -16.454828,18.01339 v -6.74379 h 1.828314 v -15.76546 h -1.828314 v -6.74378 h 19.601926 l 3.416849,3.53674 v 10.93991 l -3.416849,3.50677 H 49.906745 v 4.52582 h 1.828314 v 6.74379 z"
         style="font-family:'Big Campus';-inkscape-font-specification:'Big Campus, Normal';fill:#aa0000;stroke:#ffffff;stroke-width:4;stroke-linecap:round;stroke-linejoin:round;stroke-miterlimit:4;stroke-dasharray:none;paint-order:stroke markers fill"
         id="path3225" />
      <path
         d="m 82.486703,129.60302 v -12.34861 h -4.675688 v 12.34861 z m -10.100686,10.16063 -4.375965,-4.52583 V 111.6196 l 4.375965,-4.52583 h 15.525684 l 4.375965,4.52583 v 23.61822 l -4.375965,4.52583 z m 15.22596,-0.8692 3.836463,-3.98632 V 111.9493 l -3.836463,-3.98633 H 72.68574 l -3.866434,3.98633 v 22.95883 l 3.866434,3.98632 z m -10.610216,-8.4522 v -14.02707 h 6.294196 v 14.02707 z m 7.133422,0.86919 v -15.76546 h -7.972648 v 15.76546 z m -11.089774,6.74379 -3.386877,-3.53674 v -22.17955 l 3.386877,-3.53674 h 14.176928 l 3.416849,3.53674 v 22.17955 l -3.416849,3.53674 z"
         style="font-family:'Big Campus';-inkscape-font-specification:'Big Campus, Normal';fill:#aa0000;stroke:#ffffff;stroke-width:4;stroke-linecap:round;stroke-linejoin:round;stroke-miterlimit:4;stroke-dasharray:none;paint-order:stroke markers fill"
         id="path3227" />
      <path
         d="m 110.6907,118.33341 v -1.079 h -4.73563 v 1.079 z m -16.60469,21.43024 v -10.16063 h 1.858287 V 117.25441 H 94.08601 v -10.16064 h 22.17955 l 4.43591,4.52583 v 10.49033 l -1.28881,1.31878 1.28881,1.31879 v 4.85552 h 1.82831 v 10.16063 h -13.66739 v -10.16063 h 1.82831 v -1.10898 h -4.73563 v 1.10898 h 1.85828 v 10.16063 z m 12.88812,-0.8692 v -8.4522 h -1.85829 v -2.78743 h 6.41409 v 2.78743 h -1.82832 v 8.4522 h 11.98895 v -8.4522 h -1.82832 v -5.36506 l -1.61851,-1.64848 1.61851,-1.64848 v -9.83093 l -3.92638,-3.98633 H 94.955209 v 8.45221 h 1.828314 v 14.02707 h -1.828314 v 8.4522 z m -1.85829,-19.69184 v -2.78743 h 6.41409 v 2.78743 z m 7.25331,0.83923 v -4.49586 h -8.09254 v 4.49586 z m -16.574715,18.01339 v -6.74379 h 1.828314 v -15.76546 h -1.828314 v -6.74378 h 19.781755 l 3.41685,3.53674 v 9.08162 l -1.97817,2.00815 1.97817,2.00815 v 5.87458 h 1.85829 v 6.74379 h -10.31049 v -6.74379 h 1.82831 v -4.52582 h -8.09254 v 4.52582 h 1.82832 v 6.74379 z"
         style="font-family:'Big Campus';-inkscape-font-specification:'Big Campus, Normal';fill:#aa0000;stroke:#ffffff;stroke-width:4;stroke-linecap:round;stroke-linejoin:round;stroke-miterlimit:4;stroke-dasharray:none;paint-order:stroke markers fill"
         id="path3229" />
      <path
         d="m 133.6795,139.76365 v -10.16063 h 1.88826 v -12.34861 h -1.07901 v 1.88825 h -10.16063 v -12.04889 h 32.6399 v 12.04889 h -10.1906 v -1.88825 h -1.04903 v 12.34861 h 1.85829 v 10.16063 z m 13.06795,-0.8692 v -8.4522 h -1.88826 v -14.02707 h 2.78743 v 1.85829 h 8.45221 v -10.3105 h -30.93148 v 10.3105 h 8.4522 v -1.85829 h 2.78743 v 14.02707 h -1.85828 v 8.4522 z m -11.35953,-0.83922 v -6.74379 h 1.88826 v -15.76546 h -4.52582 v 1.88826 h -6.71381 v -8.63204 h 29.19308 v 8.63204 h -6.71381 v -1.88826 h -4.52583 v 15.76546 h 1.88826 v 6.74379 z"
         style="font-family:'Big Campus';-inkscape-font-specification:'Big Campus, Normal';fill:#aa0000;stroke:#ffffff;stroke-width:4;stroke-linecap:round;stroke-linejoin:round;stroke-miterlimit:4;stroke-dasharray:none;paint-order:stroke markers fill"
         id="path3231" />
      <path
         d="m 168.56732,118.33341 h 4.67569 v -1.079 h -4.67569 z m 0,10.16063 v 1.10898 h 4.67569 v -1.10898 z m -5.42499,11.26961 -4.37597,-4.52583 v -7.52306 h 3.62666 l -3.62666,-3.74655 V 111.6196 l 4.37597,-4.52583 h 15.52568 l 4.37597,4.52583 v 7.52306 h -3.59669 l 3.59669,3.71658 v 12.37858 l -4.37597,4.52583 z m 15.22596,-0.8692 3.83646,-3.98632 v -11.7192 l -3.83646,-3.98632 h -10.61022 v -2.78743 h 6.2942 v 1.85829 h 8.15248 v -6.32417 l -3.83646,-3.98633 h -14.92624 l -3.86643,3.98633 v 11.68922 l 3.86643,4.0163 h 10.61022 v 2.78743 h -6.2942 v -1.85829 h -8.18245 v 6.32417 l 3.86643,3.98632 z m -14.56657,-0.83922 -3.38688,-3.53674 v -5.09531 h 6.504 v 1.88826 h 7.97265 v -4.52582 h -11.08977 l -3.38688,-3.50677 v -10.93991 l 3.38688,-3.53674 h 14.17693 l 3.41685,3.53674 v 5.0953 h -6.50401 v -1.88826 h -7.97265 v 4.49586 h 11.05981 l 3.41685,3.50676 v 10.96989 l -3.41685,3.53674 z"
         style="font-family:'Big Campus';-inkscape-font-specification:'Big Campus, Normal';fill:#aa0000;stroke:#ffffff;stroke-width:4;stroke-linecap:round;stroke-linejoin:round;stroke-miterlimit:4;stroke-dasharray:none;paint-order:stroke markers fill"
         id="path3233" />
    </g>
    <g
       aria-label="SPORTS"
       id="g3347"
       style="font-size:30.6917px;line-height:1.25;font-family:'Rose Of Baltimore';-inkscape-font-specification:'Rose Of Baltimore';fill:#aa0000;stroke-width:0.319705">
      <path
         d="m 23.561037,118.33341 h 4.675689 v -1.079 h -4.675689 z m 0,10.16063 v 1.10898 h 4.675689 v -1.10898 z m -5.424997,11.26961 -4.375965,-4.52583 v -7.52306 h 3.626656 l -3.626656,-3.74655 V 111.6196 l 4.375965,-4.52583 h 15.525684 l 4.375965,4.52583 v 7.52306 h -3.596684 l 3.596684,3.71658 v 12.37858 l -4.375965,4.52583 z m 15.22596,-0.8692 3.836463,-3.98632 v -11.7192 L 33.362,119.20261 H 22.751784 v -2.78743 h 6.294196 v 1.85829 h 8.152483 V 111.9493 L 33.362,107.96297 H 18.435763 l -3.866435,3.98633 v 11.68922 l 3.866435,4.0163 H 29.04598 v 2.78743 h -6.294196 v -1.85829 h -8.182456 v 6.32417 l 3.866435,3.98632 z m -14.566568,-0.83922 -3.386877,-3.53674 v -5.09531 h 6.504002 v 1.88826 h 7.972649 v -4.52582 H 18.795432 l -3.386877,-3.50677 v -10.93991 l 3.386877,-3.53674 h 14.176927 l 3.41685,3.53674 v 5.0953 h -6.504003 v -1.88826 h -7.972649 v 4.49586 h 11.059802 l 3.41685,3.50676 v 10.96989 l -3.41685,3.53674 z"
         style="font-family:'Big Campus';-inkscape-font-specification:'Big Campus, Normal';fill:#aa0000"
         id="path3335" />
      <path
         d="m 56.290858,118.33341 v -1.079 h -4.705661 v 1.079 z m -16.454827,21.43024 v -10.16063 h 1.828314 v -12.34861 h -1.828314 v -10.16064 h 21.93977 l 4.43591,4.52583 v 12.34861 l -4.43591,4.52583 H 51.585197 v 1.10898 h 1.828315 v 10.16063 z m 12.738254,-0.8692 v -8.4522 h -1.828314 v -2.78743 h 10.730106 l 3.896407,-4.0163 V 111.9493 l -3.896407,-3.98633 h -20.80082 v 8.45221 h 1.828314 v 14.02707 h -1.828314 v 8.4522 z m -1.828314,-19.69184 v -2.78743 h 6.384114 v 2.78743 z m 7.22334,0.83923 v -4.49586 h -8.062566 v 4.49586 z m -16.454828,18.01339 v -6.74379 h 1.828314 v -15.76546 h -1.828314 v -6.74378 h 19.601926 l 3.416849,3.53674 v 10.93991 l -3.416849,3.50677 H 49.906745 v 4.52582 h 1.828314 v 6.74379 z"
         style="font-family:'Big Campus';-inkscape-font-specification:'Big Campus, Normal';fill:#aa0000"
         id="path3337" />
      <path
         d="m 82.486703,129.60302 v -12.34861 h -4.675688 v 12.34861 z m -10.100686,10.16063 -4.375965,-4.52583 V 111.6196 l 4.375965,-4.52583 h 15.525684 l 4.375965,4.52583 v 23.61822 l -4.375965,4.52583 z m 15.22596,-0.8692 3.836463,-3.98632 V 111.9493 l -3.836463,-3.98633 H 72.68574 l -3.866434,3.98633 v 22.95883 l 3.866434,3.98632 z m -10.610216,-8.4522 v -14.02707 h 6.294196 v 14.02707 z m 7.133422,0.86919 v -15.76546 h -7.972648 v 15.76546 z m -11.089774,6.74379 -3.386877,-3.53674 v -22.17955 l 3.386877,-3.53674 h 14.176928 l 3.416849,3.53674 v 22.17955 l -3.416849,3.53674 z"
         style="font-family:'Big Campus';-inkscape-font-specification:'Big Campus, Normal';fill:#aa0000"
         id="path3339" />
      <path
         d="m 110.6907,118.33341 v -1.079 h -4.73563 v 1.079 z m -16.60469,21.43024 v -10.16063 h 1.858287 V 117.25441 H 94.08601 v -10.16064 h 22.17955 l 4.43591,4.52583 v 10.49033 l -1.28881,1.31878 1.28881,1.31879 v 4.85552 h 1.82831 v 10.16063 h -13.66739 v -10.16063 h 1.82831 v -1.10898 h -4.73563 v 1.10898 h 1.85828 v 10.16063 z m 12.88812,-0.8692 v -8.4522 h -1.85829 v -2.78743 h 6.41409 v 2.78743 h -1.82832 v 8.4522 h 11.98895 v -8.4522 h -1.82832 v -5.36506 l -1.61851,-1.64848 1.61851,-1.64848 v -9.83093 l -3.92638,-3.98633 H 94.955209 v 8.45221 h 1.828314 v 14.02707 h -1.828314 v 8.4522 z m -1.85829,-19.69184 v -2.78743 h 6.41409 v 2.78743 z m 7.25331,0.83923 v -4.49586 h -8.09254 v 4.49586 z m -16.574715,18.01339 v -6.74379 h 1.828314 v -15.76546 h -1.828314 v -6.74378 h 19.781755 l 3.41685,3.53674 v 9.08162 l -1.97817,2.00815 1.97817,2.00815 v 5.87458 h 1.85829 v 6.74379 h -10.31049 v -6.74379 h 1.82831 v -4.52582 h -8.09254 v 4.52582 h 1.82832 v 6.74379 z"
         style="font-family:'Big Campus';-inkscape-font-specification:'Big Campus, Normal';fill:#aa0000"
         id="path3341" />
      <path
         d="m 133.6795,139.76365 v -10.16063 h 1.88826 v -12.34861 h -1.07901 v 1.88825 h -10.16063 v -12.04889 h 32.6399 v 12.04889 h -10.1906 v -1.88825 h -1.04903 v 12.34861 h 1.85829 v 10.16063 z m 13.06795,-0.8692 v -8.4522 h -1.88826 v -14.02707 h 2.78743 v 1.85829 h 8.45221 v -10.3105 h -30.93148 v 10.3105 h 8.4522 v -1.85829 h 2.78743 v 14.02707 h -1.85828 v 8.4522 z m -11.35953,-0.83922 v -6.74379 h 1.88826 v -15.76546 h -4.52582 v 1.88826 h -6.71381 v -8.63204 h 29.19308 v 8.63204 h -6.71381 v -1.88826 h -4.52583 v 15.76546 h 1.88826 v 6.74379 z"
         style="font-family:'Big Campus';-inkscape-font-specification:'Big Campus, Normal';fill:#aa0000"
         id="path3343" />
      <path
         d="m 168.56732,118.33341 h 4.67569 v -1.079 h -4.67569 z m 0,10.16063 v 1.10898 h 4.67569 v -1.10898 z m -5.42499,11.26961 -4.37597,-4.52583 v -7.52306 h 3.62666 l -3.62666,-3.74655 V 111.6196 l 4.37597,-4.52583 h 15.52568 l 4.37597,4.52583 v 7.52306 h -3.59669 l 3.59669,3.71658 v 12.37858 l -4.37597,4.52583 z m 15.22596,-0.8692 3.83646,-3.98632 v -11.7192 l -3.83646,-3.98632 h -10.61022 v -2.78743 h 6.2942 v 1.85829 h 8.15248 v -6.32417 l -3.83646,-3.98633 h -14.92624 l -3.86643,3.98633 v 11.68922 l 3.86643,4.0163 h 10.61022 v 2.78743 h -6.2942 v -1.85829 h -8.18245 v 6.32417 l 3.86643,3.98632 z m -14.56657,-0.83922 -3.38688,-3.53674 v -5.09531 h 6.504 v 1.88826 h 7.97265 v -4.52582 h -11.08977 l -3.38688,-3.50677 v -10.93991 l 3.38688,-3.53674 h 14.17693 l 3.41685,3.53674 v 5.0953 h -6.50401 v -1.88826 h -7.97265 v 4.49586 h 11.05981 l 3.41685,3.50676 v 10.96989 l -3.41685,3.53674 z"
         style="font-family:'Big Campus';-inkscape-font-specification:'Big Campus, Normal';fill:#aa0000"
         id="path3345" />
    </g>
  </g>
</svg>
