<?xml version="1.0" encoding="UTF-8" standalone="no"?>
<!-- Created with Inkscape (http://www.inkscape.org/) -->

<svg
   width="344.22293mm"
   height="77.60537mm"
   viewBox="0 0 344.22292 77.60537"
   version="1.1"
   id="svg837"
   inkscape:version="1.1 (c68e22c387, 2021-05-23)"
   sodipodi:docname="auto-lastplayed.svg"
   xmlns:inkscape="http://www.inkscape.org/namespaces/inkscape"
   xmlns:sodipodi="http://sodipodi.sourceforge.net/DTD/sodipodi-0.dtd"
   xmlns="http://www.w3.org/2000/svg"
   xmlns:svg="http://www.w3.org/2000/svg">
  <sodipodi:namedview
     id="namedview839"
     pagecolor="#ffffff"
     bordercolor="#666666"
     borderopacity="1.0"
     inkscape:pageshadow="2"
     inkscape:pageopacity="0.0"
     inkscape:pagecheckerboard="0"
     inkscape:document-units="mm"
     showgrid="false"
     fit-margin-top="0"
     fit-margin-left="0"
     fit-margin-right="0"
     fit-margin-bottom="0"
     inkscape:zoom="0.57112472"
     inkscape:cx="625.95785"
     inkscape:cy="222.36824"
     inkscape:window-width="1920"
     inkscape:window-height="1138"
     inkscape:window-x="-8"
     inkscape:window-y="-8"
     inkscape:window-maximized="1"
     inkscape:current-layer="layer1" />
  <defs
     id="defs834" />
  <g
     inkscape:label="Calque 1"
     inkscape:groupmode="layer"
     id="layer1"
     transform="translate(84.155281,-97.446325)">
    <g
       id="g2801">
      <rect
         style="fill:#ffffff;fill-rule:evenodd;stroke:#ffffff;stroke-width:11.9062;stroke-linecap:round;stroke-linejoin:round;stroke-miterlimit:4;stroke-dasharray:none;stroke-opacity:1;paint-order:stroke fill markers"
         id="rect2713"
         width="10.226871"
         height="20.278044"
         x="229.01332"
         y="126.63216"
         ry="4.2308726" />
      <path
         style="fill:#ffffff;stroke:#ffffff;stroke-width:11.9062;stroke-linecap:round;stroke-linejoin:round;stroke-miterlimit:4;stroke-dasharray:none;paint-order:stroke markers fill"
         d="m 152.7791,164.55954 v -4.53906 l 3.24115,-0.0213 c 1.78263,-0.0117 3.77248,-0.16054 4.42189,-0.33073 1.06208,-0.27833 1.21162,-0.41663 1.4878,-1.376 0.2949,-1.02442 0.0755,-1.80883 -5.55107,-19.84375 l -5.85811,-18.77717 5.66591,-0.0714 c 3.11626,-0.0393 5.72746,-0.01 5.80266,0.0653 0.0752,0.0752 1.00623,4.57219 2.06892,9.99328 1.0627,5.4211 2.00945,10.15421 2.10389,10.51801 0.12138,0.46754 0.96226,-2.4412 2.8683,-9.92188 l 2.69657,-10.58332 5.73959,-0.0713 c 3.49454,-0.0434 5.73958,0.0269 5.73958,0.17979 0,0.54148 -13.84094,44.12714 -14.28999,44.99974 -1.48864,2.89273 -4.23813,3.87868 -11.57303,4.15001 l -4.56406,0.16883 z m -187.457295,-9.05625 c -5.765405,-0.96751 -8.462989,-4.4181 -8.465555,-10.82864 -0.0011,-2.43796 0.08268,-2.95631 0.683202,-4.23333 1.494851,-3.17885 4.774681,-5.31688 9.89902,-6.45293 6.499897,-1.441 9.682128,-3.40132 9.348255,-5.7587 -0.129143,-0.91186 -1.696262,-1.35363 -4.321172,-1.21815 -2.463718,0.12717 -3.732734,0.67346 -5.307835,2.28495 l -1.042165,1.06625 -3.902604,-2.66002 c -2.146432,-1.46302 -3.902604,-2.80862 -3.902604,-2.99023 0,-0.4814 2.845874,-3.11225 4.233333,-3.91347 3.759044,-2.17075 10.578489,-2.88816 15.459234,-1.62633 4.318725,1.11652 7.036908,3.64763 8.430762,7.85051 0.493353,1.4876 0.559719,2.50806 0.696913,10.71616 0.128066,7.6621 0.213312,9.11093 0.548508,9.32251 0.218281,0.13778 1.141015,0.25233 2.05052,0.25456 l 1.653646,0.004 v 0.93205 0.93204 l 3.696587,-2.82167 3.696586,-2.82166 0.99976804,0.97438 c 0.549873,0.5359 1.65461096,1.29694 2.45497596,1.69118 1.340718,0.66041 1.708626,0.71681 4.676251,0.71681 2.8577381,0 3.305379,-0.0626 3.96875,-0.55533 0.476017,-0.35354 0.776875,-0.84541 0.827976,-1.35366 0.152752,-1.51924 -1.600697,-2.41878 -7.35631,-3.77388 -5.00664196,-1.17875 -8.946148,-3.98496 -10.650689,-7.58674 -0.788588,-1.66633 -0.857411,-2.02386 -0.858022,-4.45747 -5.29e-4,-2.36306 0.07852,-2.80708 0.740264,-4.15464 1.293127,-2.6333 4.068297,-4.63013 7.85803,-5.65413 2.622198,-0.70852 7.2175791,-0.65624 9.921875,0.11289 2.625952,0.74684 6.459963,2.73542 7.981262,4.13964 l 1.146582,1.05833 -3.440679,2.86433 -3.440681,2.86432 -1.520118,-1.35546 c -0.836062,-0.7455 -2.1442129,-1.66098 -2.9069959,-2.03441 -1.182878,-0.57908 -1.6583841,-0.66361 -3.2326871,-0.57465 -2.239563,0.12654 -3.273557,0.7499 -3.40224,2.05107 -0.187433,1.89523 1.254374,2.82724 6.4343071,4.15925 7.6926139,1.97814 11.9841349,5.53925 12.8030039,10.62398 0.706004,4.38388 -1.171609,7.76949 -5.526963,9.96592 -2.867027,1.44587 -4.87676,1.83456 -9.392708,1.81659 -3.408622,-0.0136 -4.342169,-0.11415 -6.61458296,-0.71268 -2.75180204,-0.7248 -6.51973604,-2.37597 -8.00364604,-3.50731 l -0.859896,-0.6556 v 2.39471 2.39472 l -2.315104,-0.004 c -1.273307,-0.002 -3.65252,-0.11496 -5.287139,-0.2502 -3.971253,-0.32857 -5.225304,-0.89711 -6.296999,-2.85485 -0.02008,-0.0367 -0.555366,0.42695 -1.189553,1.03023 -2.465869,2.34573 -6.604011,3.32213 -10.972663,2.58901 z m 9.044641,-7.82095 c 1.590802,-1.28754 2.283643,-2.96864 2.416199,-5.86263 l 0.112588,-2.45807 -1.024215,0.40013 c -0.563317,0.22007 -2.181209,0.69673 -3.595317,1.05925 -2.686778,0.68877 -4.366038,1.40668 -4.95758,2.11945 -0.481796,0.58053 -0.188225,3.22004 0.455991,4.09986 0.84465,1.15356 2.102715,1.64333 3.953999,1.53931 1.359167,-0.0764 1.816015,-0.23174 2.638335,-0.8973 z m 151.954324,7.80696 c -2.10313,-0.34106 -4.54703,-1.62512 -5.79809,-3.04639 -1.58858,-1.80473 -2.19081,-3.63747 -2.33525,-7.1068 -0.15778,-3.78969 0.17449,-9.50619 2.53764,-7.49938 7.67021,6.51362 16.34912,15.78833 8.32027,-3.91533 -2.23635,-5.48824 8.66875,-3.02014 9.06575,-5.0051 0.26008,-1.30043 -0.5284,-1.77727 -3.16792,-1.91581 -2.96734,-0.15575 -4.58043,0.37783 -6.27983,2.07723 l -1.26019,1.26019 -3.97573,-2.68735 c -2.18665,-1.47805 -3.978,-2.77666 -3.98077,-2.8858 -0.003,-0.10914 0.68111,-0.88304 1.51974,-1.71979 3.05419,-3.0473 6.72668,-4.33674 12.49813,-4.38817 2.11401,-0.0188 4.21981,0.11131 5.15937,0.31887 3.64339,0.80489 6.75943,3.0083 8.15835,5.76892 1.4353,2.83245 1.55681,3.78379 1.6838,13.18318 0.13465,9.96666 -0.0188,9.39271 2.51155,9.39271 h 1.53693 v 3.87691 3.8769 l -4.53852,-0.18424 c -6.02672,-0.24465 -6.94524,-0.45268 -8.33108,-1.88687 l -1.09564,-1.13387 -0.9703,0.99368 c -2.30491,2.36044 -6.64887,3.3738 -11.25821,2.62631 z m 8.6476,-7.36011 c 1.35473,-0.61506 2.29791,-1.97365 2.85014,-4.10544 0.50969,-1.96753 0.55724,-4.74727 0.0778,-4.54609 -0.33427,0.14025 -2.24689,0.7296 -6.19557,1.90906 -2.75335,0.82242 -3.61417,1.68583 -3.36413,3.37426 0.48872,3.30019 3.45893,4.80873 6.63178,3.36821 z m 61.33469,7.25063 c -6.03628,-1.13461 -10.06734,-5.02359 -11.82525,-11.40845 -0.48095,-1.7468 -0.57343,-2.8069 -0.58499,-6.70505 -0.012,-4.06021 0.0609,-4.89078 0.59257,-6.74688 0.93724,-3.27202 2.07439,-5.33675 4.01246,-7.28548 3.21217,-3.2298 6.78699,-4.50863 12.56771,-4.49588 4.10443,0.009 6.32857,0.43579 9.02099,1.73079 3.25922,1.56762 5.52606,4.19707 6.91349,8.01934 0.67543,1.86078 1.39163,5.99636 1.39417,8.0505 l 0.003,1.25677 H 206.5849 194.77295 l 0.16978,1.82694 c 0.52861,5.68741 2.58514,7.99229 6.78304,7.60213 2.58728,-0.24046 4.61886,-1.06708 5.98837,-2.4366 l 1.14057,-1.14055 3.89136,2.96102 c 2.14024,1.62856 3.93514,3.09536 3.98864,3.25955 0.18108,0.55573 -2.32119,2.72248 -4.23756,3.66936 -1.10821,0.54756 -2.95723,1.15827 -4.41905,1.45957 -3.46546,0.71427 -9.04565,0.89575 -11.77396,0.38292 z m 10.34812,-25.45569 c -0.55108,-1.05215 -1.99374,-2.35705 -3.12973,-2.83085 -1.13544,-0.47358 -3.27552,-0.53717 -4.3569,-0.12948 -1.1998,0.45235 -3.25837,2.69041 -3.25837,3.5425 0,0.08 2.50339,0.14543 5.56305,0.14543 h 5.56305 z m 24.24951,25.47998 c -3.40656,-0.77637 -6.81638,-3.40152 -8.64886,-6.65854 -2.74299,-4.8754 -3.46257,-12.68132 -1.73752,-18.8485 0.96539,-3.45121 2.9759,-6.62683 5.33458,-8.42591 1.84341,-1.40605 2.75254,-1.84909 4.77073,-2.32489 4.36838,-1.02988 8.76237,-0.0152 11.89382,2.74667 0.67717,0.59724 1.30511,1.08589 1.39541,1.08589 0.0903,0 0.13155,-4.40536 0.0917,-9.78969 l -0.0725,-9.78969 5.09323,1.1e-4 5.09323,1e-4 v 25.79687 25.79687 h -5.02709 -5.02708 v -1.71979 c 0,-0.94589 -0.0728,-1.71979 -0.16171,-1.71979 -0.089,0 -0.71403,0.45189 -1.38907,1.00421 -0.67503,0.55231 -1.56657,1.21762 -1.98114,1.47847 -2.2978,1.44569 -6.60228,2.05713 -9.62774,1.36761 z m 8.33951,-8.49391 c 1.98562,-0.82818 3.58055,-2.98604 4.26159,-5.76569 0.3837,-1.5661 0.41606,-5.98924 0.0556,-7.59772 -0.88747,-3.96008 -3.21292,-6.33463 -6.20364,-6.33463 -1.58152,0 -2.72732,0.47881 -3.86259,1.61408 -3.75576,3.75574 -3.71684,13.19375 0.0695,16.86038 1.57832,1.52842 3.80071,2.00721 5.67952,1.22358 z M -78.202156,129.32882 v -25.66458 l 5.754691,-1e-5 5.754687,-1e-5 v 20.96824 20.96823 l 11.178646,0.069 11.178646,0.069 v 4.62734 4.62733 H -61.26882 -78.202156 Z m 109.295781,25.36501 c -2.197465,-0.36468 -3.480392,-1.19153 -4.256196,-2.74314 l -0.661458,-1.32292 -0.08123,-11.70781 -0.08123,-11.7078 h -1.843894 -1.843892 l 0.07304,-4.0349 0.07304,-4.03489 1.785937,-0.0782 1.785937,-0.0782 v -7.79312 -7.79312 h 5.027084 5.027083 v 7.80521 7.80521 h 3.175 3.175 v 4.10104 4.10104 h -3.175 -3.175 v 9.12811 c 0,11.02968 -0.306623,10.18646 3.704167,10.18646 h 2.645833 v 4.23334 4.23333 l -4.960937,-0.0309 c -2.728516,-0.017 -5.605495,-0.13791 -6.393284,-0.26865 z m 34.83859,-25.36499 0.06875,-25.6646 h 8.039158 c 4.421536,0 9.239408,0.12317 10.706383,0.27371 9.095933,0.93342 14.425343,4.64988 15.922284,11.10338 0.47169,2.03352 0.41078,6.38197 -0.11861,8.46666 -1.352781,5.32722 -5.07418,8.76441 -11.13879,10.28812 -2.47986,0.62305 -6.680287,1.08896 -9.817616,1.08896 h -2.220928 v 10.05416 10.05417 l -5.754688,2e-5 -5.754687,2e-5 z m 18.462646,-3.84304 c 3.34654,-0.85618 5.148818,-3.11029 5.148818,-6.43963 0,-4.37353 -2.645222,-6.32476 -8.929687,-6.58691 l -3.241146,-0.13521 v 6.7826 6.78259 h 2.722536 c 1.573898,0 3.387849,-0.17021 4.299479,-0.40344 z m 19.436319,3.57843 v -25.66457 h 5.15938 5.15937 v 25.66457 25.66459 h -5.15937 -5.15938 z"
         id="path948"
         sodipodi:nodetypes="ccsssscccssscssssccccssssscsssssssccccccssssssscsssscccssssssscssccccsssccsscsssscssssssssscscscsssscccsscssssssssscsssscssccccssscssssccssssscssssssssscccccccssscssssssssssccccccccccccccscccccccccccccccccccccsscccsccccssssssccccccssscccssccccccccc" />
      <ellipse
         style="fill:#ffffff;fill-rule:evenodd;stroke:none;stroke-width:1.85208;stroke-linecap:round;stroke-linejoin:round;stroke-miterlimit:4;stroke-dasharray:none;stroke-opacity:1;paint-order:stroke fill markers"
         id="path2312"
         cx="-26.810904"
         cy="134.72896"
         rx="12.633854"
         ry="12.315305" />
      <ellipse
         style="fill:#ffffff;fill-rule:evenodd;stroke:none;stroke-width:1.85208;stroke-linecap:round;stroke-linejoin:round;stroke-miterlimit:4;stroke-dasharray:none;stroke-opacity:1;paint-order:stroke fill markers"
         id="path2380"
         cx="84.828972"
         cy="116.89791"
         rx="17.184732"
         ry="14.765756" />
      <ellipse
         style="fill:#ffffff;fill-rule:evenodd;stroke:#ffffff;stroke-width:5.29167;stroke-linecap:round;stroke-linejoin:round;stroke-miterlimit:4;stroke-dasharray:none;stroke-opacity:1;paint-order:stroke fill markers"
         id="path2600"
         cx="125.27407"
         cy="138.34065"
         rx="9.6943178"
         ry="9.7885399" />
      <path
         style="fill:#0044aa;stroke:#00112b;stroke-width:1.85208;stroke-miterlimit:4;stroke-dasharray:none;stroke-opacity:1"
         d="m 152.77909,164.55955 v -4.53907 l 3.24116,-0.0213 c 1.78263,-0.0117 3.77248,-0.16053 4.42188,-0.33072 1.06209,-0.27834 1.21163,-0.41664 1.4878,-1.37601 0.29491,-1.02441 0.0755,-1.80883 -5.55107,-19.84375 l -5.85811,-18.77717 5.66591,-0.0714 c 3.11626,-0.0393 5.72746,-0.01 5.80266,0.0653 0.0752,0.0752 1.00623,4.57219 2.06892,9.99329 1.0627,5.4211 2.00945,10.1542 2.10389,10.518 0.12138,0.46754 0.96226,-2.4412 2.8683,-9.92187 l 2.69657,-10.58334 5.73959,-0.0713 c 3.49454,-0.0434 5.73958,0.0269 5.73958,0.17979 0,0.54149 -13.84094,44.12716 -14.28999,44.99976 -1.48864,2.89273 -4.23813,3.87868 -11.57303,4.15001 l -4.56406,0.16883 z m -187.457285,-9.05626 c -5.765405,-0.96751 -8.462989,-4.4181 -8.465555,-10.82864 -0.0011,-2.43795 0.08268,-2.95631 0.683202,-4.23333 1.494851,-3.17884 4.774681,-5.31688 9.89902,-6.45293 6.499897,-1.441 9.682128,-3.40132 9.348255,-5.75871 -0.129143,-0.91186 -1.696262,-1.35363 -4.321172,-1.21814 -2.463718,0.12716 -3.732734,0.67346 -5.307835,2.28495 l -1.042165,1.06625 -3.902604,-2.66003 c -2.146432,-1.46301 -3.902604,-2.80862 -3.902604,-2.99023 0,-0.4814 2.845874,-3.11225 4.233333,-3.91347 3.759044,-2.17075 10.578489,-2.88816 15.459234,-1.62633 4.318725,1.11653 7.036908,3.64763 8.430762,7.85051 0.493353,1.4876 0.559719,2.50807 0.696913,10.71617 0.128066,7.6621 0.213312,9.11093 0.548508,9.32251 0.218281,0.13778 1.141015,0.25234 2.05052,0.25456 l 1.653646,0.004 v 0.93205 0.93204 l 3.696587,-2.82167 3.696586,-2.82166 0.999768,0.97438 c 0.5498726,0.5359 1.6546106,1.29694 2.4549756,1.69118 1.340718,0.66041 1.708626,0.71681 4.676251,0.71681 2.8577384,0 3.3053794,-0.0626 3.9687504,-0.55533 0.476017,-0.35354 0.776875,-0.84541 0.827976,-1.35365 0.152752,-1.51925 -1.600697,-2.41879 -7.3563104,-3.77389 -5.0066416,-1.17875 -8.9461476,-3.98496 -10.6506886,-7.58674 -0.788588,-1.66633 -0.857411,-2.02386 -0.858022,-4.45747 -5.29e-4,-2.36307 0.07852,-2.80709 0.740264,-4.15465 1.293127,-2.6333 4.068297,-4.63013 7.8580296,-5.65412 2.622198,-0.70853 7.2175794,-0.65625 9.9218754,0.11288 2.625952,0.74684 6.459963,2.73543 7.981261,4.13964 l 1.146583,1.05833 -3.440679,2.86433 -3.440681,2.86433 -1.520118,-1.35546 c -0.836062,-0.7455 -2.144213,-1.66099 -2.906996,-2.03442 -1.1828784,-0.57908 -1.6583844,-0.66361 -3.2326874,-0.57465 -2.239563,0.12654 -3.273557,0.7499 -3.40224,2.05107 -0.187433,1.89524 1.254374,2.82725 6.4343074,4.15926 7.692614,1.97814 11.984135,5.53926 12.803004,10.62398 0.706004,4.38388 -1.171609,7.76949 -5.526963,9.96593 -2.867028,1.44586 -4.87676,1.83455 -9.3927084,1.81658 -3.408622,-0.0136 -4.342169,-0.11415 -6.614583,-0.71268 -2.7518016,-0.7248 -6.5197356,-2.37597 -8.0036456,-3.50731 l -0.859896,-0.6556 v 2.39472 2.39471 l -2.315104,-0.004 c -1.273307,-0.002 -3.65252,-0.11496 -5.287139,-0.2502 -3.971253,-0.32856 -5.225304,-0.89711 -6.296999,-2.85485 -0.02008,-0.0367 -0.555366,0.42695 -1.189553,1.03024 -2.465869,2.34572 -6.604011,3.32212 -10.972663,2.589 z m 9.044641,-7.82095 c 1.590802,-1.28754 2.283643,-2.96864 2.416199,-5.86263 l 0.112588,-2.45807 -1.024215,0.40013 c -0.563317,0.22007 -2.181209,0.69673 -3.595317,1.05925 -2.686778,0.68877 -4.366038,1.40669 -4.95758,2.11945 -0.481796,0.58053 -0.188225,3.22004 0.455991,4.09987 0.84465,1.15356 2.102715,1.64333 3.953999,1.5393 1.359167,-0.0764 1.816015,-0.23174 2.638335,-0.8973 z m 151.954324,7.80696 c -2.10313,-0.34106 -4.54704,-1.62512 -5.79809,-3.04639 -1.58858,-1.80473 -2.19081,-3.63747 -2.33525,-7.1068 -0.15778,-3.78969 0.3531,-5.29947 2.53762,-7.49938 1.92745,-1.94101 3.7303,-2.78938 8.32028,-3.91532 5.75575,-1.41191 8.66875,-3.02015 9.06575,-5.00512 0.26008,-1.30043 -0.5284,-1.77727 -3.16791,-1.91581 -2.96734,-0.15574 -4.58043,0.37783 -6.27983,2.07724 l -1.26019,1.26019 -3.97573,-2.68736 c -2.18665,-1.47805 -3.978,-2.77665 -3.98077,-2.88579 -0.003,-0.10914 0.6811,-0.88305 1.51974,-1.7198 3.05419,-3.0473 6.72668,-4.33674 12.49812,-4.38817 2.11402,-0.0188 4.21981,0.11131 5.15937,0.31888 3.64339,0.80488 6.75943,3.00829 8.15836,5.76891 1.4353,2.83245 1.55681,3.78379 1.68379,13.1832 0.13465,9.96665 -0.0188,9.3927 2.51155,9.3927 h 1.53694 v 3.87691 3.8769 l -4.53853,-0.18424 c -6.02672,-0.24464 -6.94524,-0.45268 -8.33107,-1.88687 l -1.09564,-1.13387 -0.9703,0.99368 c -2.30492,2.36044 -6.64887,3.3738 -11.25821,2.62631 z m 8.64759,-7.36011 c 1.35474,-0.61506 2.29791,-1.97365 2.85015,-4.10544 0.50968,-1.96753 0.55723,-4.74727 0.0778,-4.54609 -0.33427,0.14025 -2.24689,0.7296 -6.19557,1.90906 -2.75335,0.82242 -3.61417,1.68583 -3.36413,3.37426 0.48872,3.30019 3.45893,4.80874 6.63178,3.36821 z m 61.33469,7.25064 c -6.03628,-1.13462 -10.06734,-5.0236 -11.82525,-11.40845 -0.48095,-1.74681 -0.57343,-2.80691 -0.58499,-6.70506 -0.012,-4.06021 0.0609,-4.89078 0.59257,-6.74688 0.93724,-3.27203 2.07439,-5.33676 4.01246,-7.28548 3.21217,-3.22981 6.78699,-4.50864 12.56771,-4.49588 4.10443,0.009 6.32857,0.43578 9.02099,1.73078 3.25922,1.56762 5.52606,4.19707 6.91349,8.01934 0.67543,1.86079 1.39163,5.99637 1.39417,8.05051 l 0.003,1.25678 h -11.81231 -11.81195 l 0.16978,1.82693 c 0.52861,5.68741 2.58514,7.99229 6.78304,7.60213 2.58728,-0.24046 4.61886,-1.06708 5.98837,-2.4366 l 1.14057,-1.14055 3.89136,2.96102 c 2.14024,1.62856 3.93514,3.09536 3.98864,3.25955 0.18108,0.55573 -2.32119,2.72248 -4.23756,3.66936 -1.10821,0.54756 -2.95723,1.15827 -4.41905,1.45957 -3.46546,0.71427 -9.04565,0.89575 -11.77396,0.38293 z m 10.34812,-25.4557 c -0.55108,-1.05216 -1.99374,-2.35706 -3.12973,-2.83086 -1.13544,-0.47358 -3.27552,-0.53717 -4.3569,-0.12947 -1.1998,0.45234 -3.25837,2.69041 -3.25837,3.5425 0,0.08 2.50339,0.14544 5.56305,0.14544 h 5.56305 z m 24.24951,25.47998 c -3.40656,-0.77637 -6.81638,-3.40152 -8.64886,-6.65854 -2.74299,-4.87539 -3.46257,-12.68132 -1.73752,-18.8485 0.9654,-3.45122 2.9759,-6.62684 5.33458,-8.42592 1.84341,-1.40604 2.75254,-1.84908 4.77073,-2.32489 4.36838,-1.02988 8.76238,-0.0152 11.89383,2.74667 0.67716,0.59724 1.30511,1.08589 1.39541,1.08589 0.0903,0 0.13155,-4.40536 0.0917,-9.78969 l -0.0725,-9.78969 5.09323,1.1e-4 5.09323,10e-5 v 25.79688 25.79687 h -5.02709 -5.02708 v -1.71979 c 0,-0.94589 -0.0728,-1.71979 -0.16171,-1.71979 -0.089,0 -0.71403,0.45189 -1.38907,1.00421 -0.67503,0.55231 -1.56657,1.21763 -1.98114,1.47847 -2.2978,1.44569 -6.60228,2.05714 -9.62774,1.36761 z m 8.33951,-8.49391 c 1.98562,-0.82818 3.58055,-2.98604 4.26159,-5.76569 0.38371,-1.56609 0.41606,-5.98924 0.0556,-7.59772 -0.88747,-3.96008 -3.21291,-6.33464 -6.20364,-6.33464 -1.58152,0 -2.72732,0.47881 -3.86259,1.61409 -3.75576,3.75574 -3.71684,13.19375 0.0695,16.86038 1.57832,1.52843 3.80071,2.00721 5.67952,1.22358 z M -78.202156,129.32882 v -25.66458 l 5.754691,-2e-5 5.754687,-1e-5 v 20.96824 20.96824 l 11.178646,0.069 11.178646,0.069 v 4.62734 4.62734 H -61.26882 -78.202156 Z m 109.295781,25.36501 c -2.197465,-0.36468 -3.480393,-1.19153 -4.256196,-2.74314 l -0.661458,-1.32291 -0.08123,-11.70782 -0.08123,-11.70781 h -1.843895 -1.843892 l 0.07304,-4.03489 0.07304,-4.0349 1.785938,-0.0782 1.785937,-0.0782 v -7.79312 -7.79312 h 5.027083 5.027084 v 7.80521 7.80521 h 3.175 3.175 v 4.10104 4.10104 h -3.175 -3.175 v 9.12813 c 0,11.02967 -0.306623,10.18645 3.704167,10.18645 h 2.645833 v 4.23334 4.23333 l -4.960937,-0.0309 c -2.728516,-0.017 -5.605495,-0.13791 -6.393284,-0.26865 z m 34.83859,-25.36499 0.06875,-25.6646 h 8.039158 c 4.421536,0 9.239408,0.12317 10.706383,0.27371 9.095933,0.93341 14.425342,4.64987 15.922284,11.10337 0.47169,2.03352 0.41078,6.38197 -0.11861,8.46667 -1.352782,5.32721 -5.07418,8.76441 -11.13879,10.28812 -2.47986,0.62305 -6.680287,1.08896 -9.817616,1.08896 h -2.220925 v 10.05416 10.05417 l -5.754688,2e-5 -5.754687,2e-5 z m 18.462646,-3.84305 c 3.34654,-0.85618 5.148818,-3.11029 5.148818,-6.43963 0,-4.37353 -2.645222,-6.32476 -8.929687,-6.58691 l -3.241146,-0.13521 v 6.7826 6.7826 h 2.722536 c 1.573898,0 3.387849,-0.17022 4.299479,-0.40345 z m 19.436319,3.57845 v -25.66459 h 5.15938 5.15937 v 25.66459 25.66458 h -5.15937 -5.15938 z"
         id="path928" />
    </g>
  </g>
</svg>
