<?xml version="1.0" encoding="UTF-8" standalone="no"?>
<!-- Created with Inkscape (http://www.inkscape.org/) -->

<svg
   width="167.35934mm"
   height="36.120747mm"
   viewBox="0 0 167.35934 36.120747"
   version="1.1"
   id="svg5"
   inkscape:version="1.1 (c68e22c387, 2021-05-23)"
   sodipodi:docname="auto-actionbattleroyale.svg"
   xmlns:inkscape="http://www.inkscape.org/namespaces/inkscape"
   xmlns:sodipodi="http://sodipodi.sourceforge.net/DTD/sodipodi-0.dtd"
   xmlns="http://www.w3.org/2000/svg"
   xmlns:svg="http://www.w3.org/2000/svg">
  <sodipodi:namedview
     id="namedview7"
     pagecolor="#ffffff"
     bordercolor="#666666"
     borderopacity="1.0"
     inkscape:pageshadow="2"
     inkscape:pageopacity="0.0"
     inkscape:pagecheckerboard="0"
     inkscape:document-units="mm"
     showgrid="false"
     fit-margin-top="0"
     fit-margin-left="0"
     fit-margin-right="0"
     fit-margin-bottom="0"
     inkscape:zoom="0.94867184"
     inkscape:cx="292.51422"
     inkscape:cy="55.86758"
     inkscape:window-width="1920"
     inkscape:window-height="1138"
     inkscape:window-x="-8"
     inkscape:window-y="-8"
     inkscape:window-maximized="1"
     inkscape:current-layer="layer1" />
  <defs
     id="defs2" />
  <g
     inkscape:label="Calque 1"
     inkscape:groupmode="layer"
     id="layer1"
     transform="translate(-21.956719,-174.62229)">
    <g
       id="g10706">
      <rect
         style="fill:#ffffff;fill-opacity:1;fill-rule:evenodd;stroke:none;stroke-width:4.2842;stroke-linecap:round;stroke-linejoin:round;stroke-miterlimit:4;stroke-dasharray:none;paint-order:stroke markers fill"
         id="rect6713"
         width="70.404381"
         height="17.15737"
         x="25.425755"
         y="184.93178" />
      <rect
         style="fill:#ffffff;fill-opacity:1;fill-rule:evenodd;stroke:none;stroke-width:2.71146;stroke-linecap:round;stroke-linejoin:round;stroke-miterlimit:4;stroke-dasharray:none;paint-order:stroke markers fill"
         id="rect6831"
         width="28.201193"
         height="17.15737"
         x="106.38831"
         y="184.93178" />
      <rect
         style="fill:#ffffff;fill-opacity:1;fill-rule:evenodd;stroke:none;stroke-width:3.04209;stroke-linecap:round;stroke-linejoin:round;stroke-miterlimit:4;stroke-dasharray:none;paint-order:stroke markers fill"
         id="rect6833"
         width="35.498005"
         height="17.15737"
         x="151.89626"
         y="184.93178" />
      <g
         aria-label="Battle Royale"
         id="text1310"
         style="font-size:25.4px;line-height:1.25;font-family:'Mario Kart DS';-inkscape-font-specification:'Mario Kart DS';fill:#580046;fill-opacity:1;stroke:#ffffff;stroke-width:2.98593;stroke-linecap:round;stroke-linejoin:round;stroke-miterlimit:4;stroke-dasharray:none;paint-order:stroke markers fill"
         transform="matrix(1.3396149,0,0,1.3396149,-21.873783,7.1199325)">
        <path
           d="m 41.399898,130.11206 h -2.8702 v 4.0386 h 1.905 l 0.9652,-0.7366 z m 0.127,8.1534 -1.016,-0.6604 h -1.9812 v 4.7498 h 2.9972 z m 4.3434,5.4102 q 0,2.2606 -2.2352,2.2606 h -9.4234 v -19.4056 h 9.3472 q 2.1844,0 2.1844,2.2606 v 4.064 q 0,0.9906 -0.3048,1.4986 -0.3048,0.508 -0.9906,0.9398 l -0.9144,0.5588 0.9906,0.5588 q 0.7366,0.4064 1.0414,0.9652 0.3048,0.5588 0.3048,1.524 z"
           style="font-family:'Agency FB';-inkscape-font-specification:'Agency FB';fill:#580046;fill-opacity:1;stroke:#ffffff;stroke-width:2.98593;stroke-linecap:round;stroke-linejoin:round;stroke-miterlimit:4;stroke-dasharray:none;paint-order:stroke markers fill"
           id="path6199" />
        <path
           d="m 52.728262,140.50066 h -1.5494 v 2.3622 l 1.5494,-0.127 z m 0,5.4356 v -0.5588 l -2.5654,0.4064 q -0.381,0.0508 -0.6858,0.127 -0.3048,0.0508 -0.5842,0.0508 -0.889,0 -1.3462,-0.4572 -0.4318,-0.4572 -0.4318,-1.2954 v -4.6736 q 0,-0.889 0.4318,-1.3208 0.4318,-0.4318 1.397,-0.4318 h 3.7846 v -1.905 h -1.7018 v 1.397 h -3.7338 v -2.667 q 0,-1.7526 1.8288,-1.7526 h 5.842 q 1.8034,0 1.8034,1.7526 v 11.3284 z"
           style="font-family:'Agency FB';-inkscape-font-specification:'Agency FB';fill:#580046;fill-opacity:1;stroke:#ffffff;stroke-width:2.98593;stroke-linecap:round;stroke-linejoin:round;stroke-miterlimit:4;stroke-dasharray:none;paint-order:stroke markers fill"
           id="path6201" />
        <path
           d="m 60.602213,145.93626 q -1.8034,0 -1.8034,-1.7526 v -7.747 h -1.219199 v -3.5814 h 1.219199 v -2.9718 h 4.2672 v 2.9718 h 1.4986 v 3.5814 h -1.4986 v 5.9182 h 1.6764 v 3.5814 z"
           style="font-family:'Agency FB';-inkscape-font-specification:'Agency FB';fill:#580046;fill-opacity:1;stroke:#ffffff;stroke-width:2.98593;stroke-linecap:round;stroke-linejoin:round;stroke-miterlimit:4;stroke-dasharray:none;paint-order:stroke markers fill"
           id="path6203" />
        <path
           d="m 67.942753,145.93626 q -1.8034,0 -1.8034,-1.7526 v -7.747 h -1.2192 v -3.5814 h 1.2192 v -2.9718 h 4.2672 v 2.9718 h 1.4986 v 3.5814 h -1.4986 v 5.9182 h 1.6764 v 3.5814 z"
           style="font-family:'Agency FB';-inkscape-font-specification:'Agency FB';fill:#580046;fill-opacity:1;stroke:#ffffff;stroke-width:2.98593;stroke-linecap:round;stroke-linejoin:round;stroke-miterlimit:4;stroke-dasharray:none;paint-order:stroke markers fill"
           id="path6205" />
        <path
           d="m 77.264535,145.93626 v -19.4056 h -4.2672 v 19.4056 z"
           style="font-family:'Agency FB';-inkscape-font-specification:'Agency FB';fill:#580046;fill-opacity:1;stroke:#ffffff;stroke-width:2.98593;stroke-linecap:round;stroke-linejoin:round;stroke-miterlimit:4;stroke-dasharray:none;paint-order:stroke markers fill"
           id="path6207" />
        <path
           d="m 84.147898,135.82706 h -1.524 v 2.1844 h 1.524 z m 4.0894,8.3566 q 0,1.7526 -1.8034,1.7526 h -6.0706 q -0.9652,0 -1.397,-0.4318 -0.4318,-0.4318 -0.4318,-1.3208 v -9.5758 q 0,-0.889 0.4318,-1.3208 0.4318,-0.4318 1.397,-0.4318 h 6.0706 q 1.8034,0 1.8034,1.7526 v 4.9022 l -1.016,1.0414 h -4.5974 v 2.413 h 1.524 v -1.905 h 4.0894 z"
           style="font-family:'Agency FB';-inkscape-font-specification:'Agency FB';fill:#580046;fill-opacity:1;stroke:#ffffff;stroke-width:2.98593;stroke-linecap:round;stroke-linejoin:round;stroke-miterlimit:4;stroke-dasharray:none;paint-order:stroke markers fill"
           id="path6209" />
        <path
           d="m 102.53747,145.93626 -2.692405,-7.366 v -3.4544 h 2.260605 v -4.9276 h -2.743205 v 15.748 h -4.318 v -19.4056 h 9.194805 q 2.2098,0 2.2098,2.2606 v 6.7056 q 0,2.2606 -2.2098,2.2606 h -0.2286 l 3.048,8.001 v 0.1778 z"
           style="font-family:'Agency FB';-inkscape-font-specification:'Agency FB';fill:#580046;fill-opacity:1;stroke:#ffffff;stroke-width:2.98593;stroke-linecap:round;stroke-linejoin:round;stroke-miterlimit:4;stroke-dasharray:none;paint-order:stroke markers fill"
           id="path6211" />
        <path
           d="m 113.45942,136.30966 h -1.524 v 6.1722 h 1.524 z m 4.1656,7.874 q 0,1.7526 -1.8034,1.7526 h -6.223 q -0.9652,0 -1.397,-0.4318 -0.4318,-0.4318 -0.4318,-1.3208 v -9.5758 q 0,-0.889 0.4318,-1.3208 0.4318,-0.4318 1.397,-0.4318 h 6.223 q 1.8034,0 1.8034,1.7526 z"
           style="font-family:'Agency FB';-inkscape-font-specification:'Agency FB';fill:#580046;fill-opacity:1;stroke:#ffffff;stroke-width:2.98593;stroke-linecap:round;stroke-linejoin:round;stroke-miterlimit:4;stroke-dasharray:none;paint-order:stroke markers fill"
           id="path6213" />
        <path
           d="m 129.41061,132.85526 h -4.4196 l -1.143,6.6548 -1.143,-6.6548 h -4.4196 l 3.429,12.9794 -1.3716,4.6736 h 4.4196 z"
           style="font-family:'Agency FB';-inkscape-font-specification:'Agency FB';fill:#580046;fill-opacity:1;stroke:#ffffff;stroke-width:2.98593;stroke-linecap:round;stroke-linejoin:round;stroke-miterlimit:4;stroke-dasharray:none;paint-order:stroke markers fill"
           id="path6215" />
        <path
           d="m 135.60819,140.50066 h -1.5494 v 2.3622 l 1.5494,-0.127 z m 0,5.4356 v -0.5588 l -2.5654,0.4064 q -0.381,0.0508 -0.6858,0.127 -0.3048,0.0508 -0.5842,0.0508 -0.889,0 -1.3462,-0.4572 -0.4318,-0.4572 -0.4318,-1.2954 v -4.6736 q 0,-0.889 0.4318,-1.3208 0.4318,-0.4318 1.397,-0.4318 h 3.7846 v -1.905 h -1.7018 v 1.397 h -3.7338 v -2.667 q 0,-1.7526 1.8288,-1.7526 h 5.842 q 1.8034,0 1.8034,1.7526 v 11.3284 z"
           style="font-family:'Agency FB';-inkscape-font-specification:'Agency FB';fill:#580046;fill-opacity:1;stroke:#ffffff;stroke-width:2.98593;stroke-linecap:round;stroke-linejoin:round;stroke-miterlimit:4;stroke-dasharray:none;paint-order:stroke markers fill"
           id="path6217" />
        <path
           d="m 145.18393,145.93626 v -19.4056 h -4.2672 v 19.4056 z"
           style="font-family:'Agency FB';-inkscape-font-specification:'Agency FB';fill:#580046;fill-opacity:1;stroke:#ffffff;stroke-width:2.98593;stroke-linecap:round;stroke-linejoin:round;stroke-miterlimit:4;stroke-dasharray:none;paint-order:stroke markers fill"
           id="path6219" />
        <path
           d="m 152.0673,135.82706 h -1.524 v 2.1844 h 1.524 z m 4.0894,8.3566 q 0,1.7526 -1.8034,1.7526 h -6.0706 q -0.9652,0 -1.397,-0.4318 -0.4318,-0.4318 -0.4318,-1.3208 v -9.5758 q 0,-0.889 0.4318,-1.3208 0.4318,-0.4318 1.397,-0.4318 h 6.0706 q 1.8034,0 1.8034,1.7526 v 4.9022 l -1.016,1.0414 h -4.5974 v 2.413 h 1.524 v -1.905 h 4.0894 z"
           style="font-family:'Agency FB';-inkscape-font-specification:'Agency FB';fill:#580046;fill-opacity:1;stroke:#ffffff;stroke-width:2.98593;stroke-linecap:round;stroke-linejoin:round;stroke-miterlimit:4;stroke-dasharray:none;paint-order:stroke markers fill"
           id="path6221" />
      </g>
      <g
         aria-label="Battle Royale"
         id="g6347"
         style="font-size:25.4px;line-height:1.25;font-family:'Mario Kart DS';-inkscape-font-specification:'Mario Kart DS';fill:#580046;fill-opacity:1;stroke-width:0.264583"
         transform="matrix(1.3396149,0,0,1.3396149,-21.873783,7.1199325)">
        <path
           d="m 41.399898,130.11206 h -2.8702 v 4.0386 h 1.905 l 0.9652,-0.7366 z m 0.127,8.1534 -1.016,-0.6604 h -1.9812 v 4.7498 h 2.9972 z m 4.3434,5.4102 q 0,2.2606 -2.2352,2.2606 h -9.4234 v -19.4056 h 9.3472 q 2.1844,0 2.1844,2.2606 v 4.064 q 0,0.9906 -0.3048,1.4986 -0.3048,0.508 -0.9906,0.9398 l -0.9144,0.5588 0.9906,0.5588 q 0.7366,0.4064 1.0414,0.9652 0.3048,0.5588 0.3048,1.524 z"
           style="font-family:'Agency FB';-inkscape-font-specification:'Agency FB';fill:#580046;fill-opacity:1"
           id="path6323" />
        <path
           d="m 52.728262,140.50066 h -1.5494 v 2.3622 l 1.5494,-0.127 z m 0,5.4356 v -0.5588 l -2.5654,0.4064 q -0.381,0.0508 -0.6858,0.127 -0.3048,0.0508 -0.5842,0.0508 -0.889,0 -1.3462,-0.4572 -0.4318,-0.4572 -0.4318,-1.2954 v -4.6736 q 0,-0.889 0.4318,-1.3208 0.4318,-0.4318 1.397,-0.4318 h 3.7846 v -1.905 h -1.7018 v 1.397 h -3.7338 v -2.667 q 0,-1.7526 1.8288,-1.7526 h 5.842 q 1.8034,0 1.8034,1.7526 v 11.3284 z"
           style="font-family:'Agency FB';-inkscape-font-specification:'Agency FB';fill:#580046;fill-opacity:1"
           id="path6325" />
        <path
           d="m 60.602213,145.93626 q -1.8034,0 -1.8034,-1.7526 v -7.747 h -1.219199 v -3.5814 h 1.219199 v -2.9718 h 4.2672 v 2.9718 h 1.4986 v 3.5814 h -1.4986 v 5.9182 h 1.6764 v 3.5814 z"
           style="font-family:'Agency FB';-inkscape-font-specification:'Agency FB';fill:#580046;fill-opacity:1"
           id="path6327" />
        <path
           d="m 67.942753,145.93626 q -1.8034,0 -1.8034,-1.7526 v -7.747 h -1.2192 v -3.5814 h 1.2192 v -2.9718 h 4.2672 v 2.9718 h 1.4986 v 3.5814 h -1.4986 v 5.9182 h 1.6764 v 3.5814 z"
           style="font-family:'Agency FB';-inkscape-font-specification:'Agency FB';fill:#580046;fill-opacity:1"
           id="path6329" />
        <path
           d="m 77.264535,145.93626 v -19.4056 h -4.2672 v 19.4056 z"
           style="font-family:'Agency FB';-inkscape-font-specification:'Agency FB';fill:#580046;fill-opacity:1"
           id="path6331" />
        <path
           d="m 84.147898,135.82706 h -1.524 v 2.1844 h 1.524 z m 4.0894,8.3566 q 0,1.7526 -1.8034,1.7526 h -6.0706 q -0.9652,0 -1.397,-0.4318 -0.4318,-0.4318 -0.4318,-1.3208 v -9.5758 q 0,-0.889 0.4318,-1.3208 0.4318,-0.4318 1.397,-0.4318 h 6.0706 q 1.8034,0 1.8034,1.7526 v 4.9022 l -1.016,1.0414 h -4.5974 v 2.413 h 1.524 v -1.905 h 4.0894 z"
           style="font-family:'Agency FB';-inkscape-font-specification:'Agency FB';fill:#580046;fill-opacity:1"
           id="path6333" />
        <path
           d="m 102.53747,145.93626 -2.692405,-7.366 v -3.4544 h 2.260605 v -4.9276 h -2.743205 v 15.748 h -4.318 v -19.4056 h 9.194805 q 2.2098,0 2.2098,2.2606 v 6.7056 q 0,2.2606 -2.2098,2.2606 h -0.2286 l 3.048,8.001 v 0.1778 z"
           style="font-family:'Agency FB';-inkscape-font-specification:'Agency FB';fill:#580046;fill-opacity:1"
           id="path6335" />
        <path
           d="m 113.45942,136.30966 h -1.524 v 6.1722 h 1.524 z m 4.1656,7.874 q 0,1.7526 -1.8034,1.7526 h -6.223 q -0.9652,0 -1.397,-0.4318 -0.4318,-0.4318 -0.4318,-1.3208 v -9.5758 q 0,-0.889 0.4318,-1.3208 0.4318,-0.4318 1.397,-0.4318 h 6.223 q 1.8034,0 1.8034,1.7526 z"
           style="font-family:'Agency FB';-inkscape-font-specification:'Agency FB';fill:#580046;fill-opacity:1"
           id="path6337" />
        <path
           d="m 129.41061,132.85526 h -4.4196 l -1.143,6.6548 -1.143,-6.6548 h -4.4196 l 3.429,12.9794 -1.3716,4.6736 h 4.4196 z"
           style="font-family:'Agency FB';-inkscape-font-specification:'Agency FB';fill:#580046;fill-opacity:1"
           id="path6339" />
        <path
           d="m 135.60819,140.50066 h -1.5494 v 2.3622 l 1.5494,-0.127 z m 0,5.4356 v -0.5588 l -2.5654,0.4064 q -0.381,0.0508 -0.6858,0.127 -0.3048,0.0508 -0.5842,0.0508 -0.889,0 -1.3462,-0.4572 -0.4318,-0.4572 -0.4318,-1.2954 v -4.6736 q 0,-0.889 0.4318,-1.3208 0.4318,-0.4318 1.397,-0.4318 h 3.7846 v -1.905 h -1.7018 v 1.397 h -3.7338 v -2.667 q 0,-1.7526 1.8288,-1.7526 h 5.842 q 1.8034,0 1.8034,1.7526 v 11.3284 z"
           style="font-family:'Agency FB';-inkscape-font-specification:'Agency FB';fill:#580046;fill-opacity:1"
           id="path6341" />
        <path
           d="m 145.18393,145.93626 v -19.4056 h -4.2672 v 19.4056 z"
           style="font-family:'Agency FB';-inkscape-font-specification:'Agency FB';fill:#580046;fill-opacity:1"
           id="path6343" />
        <path
           d="m 152.0673,135.82706 h -1.524 v 2.1844 h 1.524 z m 4.0894,8.3566 q 0,1.7526 -1.8034,1.7526 h -6.0706 q -0.9652,0 -1.397,-0.4318 -0.4318,-0.4318 -0.4318,-1.3208 v -9.5758 q 0,-0.889 0.4318,-1.3208 0.4318,-0.4318 1.397,-0.4318 h 6.0706 q 1.8034,0 1.8034,1.7526 v 4.9022 l -1.016,1.0414 h -4.5974 v 2.413 h 1.524 v -1.905 h 4.0894 z"
           style="font-family:'Agency FB';-inkscape-font-specification:'Agency FB';fill:#580046;fill-opacity:1"
           id="path6345" />
      </g>
    </g>
  </g>
</svg>
