<?xml version="1.0" encoding="UTF-8" standalone="no"?>
<!-- Created with Inkscape (http://www.inkscape.org/) -->

<svg
   width="136.51149mm"
   height="45.18161mm"
   viewBox="0 0 136.51149 45.18161"
   version="1.1"
   id="svg5"
   sodipodi:docname="auto-sportsimulation.svg"
   inkscape:version="1.1 (c68e22c387, 2021-05-23)"
   xmlns:inkscape="http://www.inkscape.org/namespaces/inkscape"
   xmlns:sodipodi="http://sodipodi.sourceforge.net/DTD/sodipodi-0.dtd"
   xmlns="http://www.w3.org/2000/svg"
   xmlns:svg="http://www.w3.org/2000/svg">
  <sodipodi:namedview
     id="namedview7"
     pagecolor="#ffffff"
     bordercolor="#666666"
     borderopacity="1.0"
     inkscape:pageshadow="2"
     inkscape:pageopacity="0.0"
     inkscape:pagecheckerboard="0"
     inkscape:document-units="mm"
     showgrid="false"
     fit-margin-top="0"
     fit-margin-left="0"
     fit-margin-right="0"
     fit-margin-bottom="0"
     inkscape:zoom="0.94867184"
     inkscape:cx="258.78285"
     inkscape:cy="168.65685"
     inkscape:window-width="1920"
     inkscape:window-height="1138"
     inkscape:window-x="-8"
     inkscape:window-y="-8"
     inkscape:window-maximized="1"
     inkscape:current-layer="layer1" />
  <defs
     id="defs2" />
  <g
     inkscape:label="Calque 1"
     inkscape:groupmode="layer"
     id="layer1"
     transform="translate(-36.744255,-103.68059)">
    <rect
       style="fill:#ffffff;fill-rule:evenodd;stroke:none;stroke-width:4.26099;stroke-linecap:round;stroke-linejoin:round;stroke-miterlimit:4;stroke-dasharray:none;paint-order:stroke markers fill"
       id="rect4830"
       width="55.0513"
       height="16.960159"
       x="40.965668"
       y="127.74888" />
    <rect
       style="fill:#ffffff;fill-rule:evenodd;stroke:none;stroke-width:4.05114;stroke-linecap:round;stroke-linejoin:round;stroke-miterlimit:4;stroke-dasharray:none;paint-order:stroke markers fill"
       id="rect4978"
       width="15.38247"
       height="18.143425"
       x="113.73901"
       y="127.66044" />
    <rect
       style="fill:#ffffff;fill-rule:evenodd;stroke:none;stroke-width:6.10827;stroke-linecap:round;stroke-linejoin:round;stroke-miterlimit:4;stroke-dasharray:none;paint-order:stroke markers fill"
       id="rect5060"
       width="29.976095"
       height="21.166641"
       x="113.73901"
       y="106.4938" />
    <rect
       style="fill:#ffffff;fill-rule:evenodd;stroke:none;stroke-width:4.05114;stroke-linecap:round;stroke-linejoin:round;stroke-miterlimit:4;stroke-dasharray:none;paint-order:stroke markers fill"
       id="rect5062"
       width="15.38247"
       height="18.143425"
       x="65.584808"
       y="105.96463" />
    <g
       id="g4508"
       style="fill:#800000;stroke:#ffffff;stroke-width:4;stroke-linecap:round;stroke-linejoin:round;stroke-miterlimit:4;stroke-dasharray:none;paint-order:stroke markers fill">
      <g
         aria-label="SPORTS"
         id="text1178"
         style="font-size:25.4px;line-height:1.25;font-family:'Rose Of Baltimore';-inkscape-font-specification:'Rose Of Baltimore';fill:#800000;stroke:#ffffff;stroke-width:4;stroke-linecap:round;stroke-linejoin:round;stroke-miterlimit:4;stroke-dasharray:none;paint-order:stroke markers fill">
        <path
           d="m 73.326268,111.67499 h -3.835399 v -1.1938 l -0.9652,-0.9652 h -2.0828 l -0.9652,0.9652 v 2.3114 l 0.9652,0.9652 h 3.6576 l 3.225799,3.2258 v 5.4864 l -3.225799,3.2258 h -3.937 l -0.6858,-0.6604 v 0.6604 h -3.8354 v -6.0198 h 3.8354 v 1.2192 l 0.9652,0.9652 h 2.0828 l 0.9652,-0.9652 v -2.3114 l -0.9652,-0.9906 h -3.6576 l -3.2258,-3.2004 v -5.5118 l 3.2258,-3.2004 h 3.937 l 0.6858,0.6604 v -0.6604 h 3.835399 z"
           style="font-family:'High School USA Serif';-inkscape-font-specification:'High School USA Serif, Normal';fill:#800000;stroke:#ffffff;stroke-width:4;stroke-linecap:round;stroke-linejoin:round;stroke-miterlimit:4;stroke-dasharray:none;paint-order:stroke markers fill"
           id="path4529" />
        <path
           d="m 75.866255,125.69579 v -3.8354 h 0.9398 v -12.3444 h -0.9398 v -3.8354 h 9.398 l 3.2258,3.2258 v 5.4864 l -3.2258,3.2258 h -4.5974 v 4.2418 h 0.9398 v 3.8354 z m 4.8006,-16.1798 v 4.2672 h 3.0226 l 0.9652,-0.9652 v -2.3368 l -0.9652,-0.9652 z"
           style="font-family:'High School USA Serif';-inkscape-font-specification:'High School USA Serif, Normal';fill:#800000;stroke:#ffffff;stroke-width:4;stroke-linecap:round;stroke-linejoin:round;stroke-miterlimit:4;stroke-dasharray:none;paint-order:stroke markers fill"
           id="path4531" />
        <path
           d="m 99.51361,125.69579 h -5.2578 l -3.2258,-3.2258 v -13.589 l 3.2258,-3.2004 h 5.2578 l 3.2004,3.2004 v 13.589 z m -0.635,-4.8006 v -10.414 l -0.9652,-0.9652 h -2.0828 l -0.9652,0.9652 v 10.414 l 0.9652,0.9652 h 2.0828 z"
           style="font-family:'High School USA Serif';-inkscape-font-specification:'High School USA Serif, Normal';fill:#800000;stroke:#ffffff;stroke-width:4;stroke-linecap:round;stroke-linejoin:round;stroke-miterlimit:4;stroke-dasharray:none;paint-order:stroke markers fill"
           id="path4533" />
        <path
           d="m 112.4422,125.69579 v -3.8354 h 0.7366 l -1.905,-4.2418 h -1.2192 v 4.2418 h 0.9398 v 3.8354 h -5.7404 v -3.8354 h 0.9398 v -12.3444 h -0.9398 v -3.8354 h 9.398 l 3.2258,3.2258 v 5.4864 l -2.667,2.667 2.159,4.8006 h 0.8128 v 3.8354 z m -2.3876,-16.1798 v 4.2672 h 3.0226 l 0.9652,-0.9652 v -2.3368 l -0.9652,-0.9652 z"
           style="font-family:'High School USA Serif';-inkscape-font-specification:'High School USA Serif, Normal';fill:#800000;stroke:#ffffff;stroke-width:4;stroke-linecap:round;stroke-linejoin:round;stroke-miterlimit:4;stroke-dasharray:none;paint-order:stroke markers fill"
           id="path4535" />
        <path
           d="m 134.13378,111.67499 h -3.8354 v -2.159 h -0.9398 v 12.3444 h 0.9398 v 3.8354 h -5.7404 v -3.8354 h 0.9398 v -12.3444 h -0.9398 v 2.159 h -3.8354 v -5.9944 h 13.4112 z"
           style="font-family:'High School USA Serif';-inkscape-font-specification:'High School USA Serif, Normal';fill:#800000;stroke:#ffffff;stroke-width:4;stroke-linecap:round;stroke-linejoin:round;stroke-miterlimit:4;stroke-dasharray:none;paint-order:stroke markers fill"
           id="path4537" />
        <path
           d="m 148.35773,111.67499 h -3.8354 v -1.1938 l -0.9652,-0.9652 h -2.0828 l -0.9652,0.9652 v 2.3114 l 0.9652,0.9652 h 3.6576 l 3.2258,3.2258 v 5.4864 l -3.2258,3.2258 h -3.937 l -0.6858,-0.6604 v 0.6604 h -3.8354 v -6.0198 h 3.8354 v 1.2192 l 0.9652,0.9652 h 2.0828 l 0.9652,-0.9652 v -2.3114 l -0.9652,-0.9906 h -3.6576 l -3.2258,-3.2004 v -5.5118 l 3.2258,-3.2004 h 3.937 l 0.6858,0.6604 v -0.6604 h 3.8354 z"
           style="font-family:'High School USA Serif';-inkscape-font-specification:'High School USA Serif, Normal';fill:#800000;stroke:#ffffff;stroke-width:4;stroke-linecap:round;stroke-linejoin:round;stroke-miterlimit:4;stroke-dasharray:none;paint-order:stroke markers fill"
           id="path4539" />
      </g>
      <g
         aria-label="SIMULATION"
         id="text3620"
         style="font-size:25.4px;line-height:1.25;font-family:'Rose Of Baltimore';-inkscape-font-specification:'Rose Of Baltimore';fill:#800000;stroke:#ffffff;stroke-width:4;stroke-linecap:round;stroke-linejoin:round;stroke-miterlimit:4;stroke-dasharray:none;paint-order:stroke markers fill">
        <path
           d="m 50.428254,132.8414 h -3.8354 v -1.1938 l -0.9652,-0.9652 h -2.082799 l -0.9652,0.9652 v 2.3114 l 0.9652,0.9652 h 3.657599 l 3.2258,3.2258 v 5.4864 l -3.2258,3.2258 h -3.936999 l -0.6858,-0.6604 v 0.6604 h -3.8354 v -6.0198 h 3.8354 v 1.2192 l 0.9652,0.9652 h 2.082799 l 0.9652,-0.9652 v -2.3114 l -0.9652,-0.9906 h -3.657599 l -3.2258,-3.2004 v -5.5118 l 3.2258,-3.2004 h 3.936999 l 0.6858,0.6604 v -0.6604 h 3.8354 z"
           style="font-family:'High School USA Serif';-inkscape-font-specification:'High School USA Serif, Normal';fill:#800000;stroke:#ffffff;stroke-width:4;stroke-linecap:round;stroke-linejoin:round;stroke-miterlimit:4;stroke-dasharray:none;paint-order:stroke markers fill"
           id="path4542" />
        <path
           d="m 52.968241,146.8622 v -3.8354 h 0.9398 v -12.3444 h -0.9398 v -3.8354 h 5.7404 v 3.8354 h -0.9398 v 12.3444 h 0.9398 v 3.8354 z"
           style="font-family:'High School USA Serif';-inkscape-font-specification:'High School USA Serif, Normal';fill:#800000;stroke:#ffffff;stroke-width:4;stroke-linecap:round;stroke-linejoin:round;stroke-miterlimit:4;stroke-dasharray:none;paint-order:stroke markers fill"
           id="path4544" />
        <path
           d="m 69.655997,146.8622 v -3.8354 h 0.9398 v -8.2042 l -2.260599,3.9878 -2.286,-3.9878 v 8.2042 h 0.9398 v 3.8354 h -5.7404 v -3.8354 h 0.9652 v -12.3444 h -0.9652 v -3.8354 h 4.699 l 2.3876,4.1656 2.362199,-4.1656 h 4.699 v 3.8354 h -0.9652 v 12.3444 h 0.9652 v 3.8354 z"
           style="font-family:'High School USA Serif';-inkscape-font-specification:'High School USA Serif, Normal';fill:#800000;stroke:#ffffff;stroke-width:4;stroke-linecap:round;stroke-linejoin:round;stroke-miterlimit:4;stroke-dasharray:none;paint-order:stroke markers fill"
           id="path4546" />
        <path
           d="m 85.937386,130.6824 h -0.9398 v -3.8354 h 5.740399 v 3.8354 h -0.9398 v 12.954 l -3.225799,3.2258 h -4.4704 l -3.2258,-3.2258 v -12.954 h -0.9398 v -3.8354 h 5.7404 v 3.8354 h -0.9398 l -0.0254,11.3538 0.9652,0.9906 h 1.2954 l 0.9906,-0.9906 z"
           style="font-family:'High School USA Serif';-inkscape-font-specification:'High School USA Serif, Normal';fill:#800000;stroke:#ffffff;stroke-width:4;stroke-linecap:round;stroke-linejoin:round;stroke-miterlimit:4;stroke-dasharray:none;paint-order:stroke markers fill"
           id="path4548" />
        <path
           d="m 93.277942,146.8622 v -3.8354 h 0.9652 v -12.3444 h -0.9652 v -3.8354 h 5.7404 v 3.8354 h -0.9398 v 12.3444 h 3.606798 v -2.1844 h 3.8354 v 6.0198 z"
           style="font-family:'High School USA Serif';-inkscape-font-specification:'High School USA Serif, Normal';fill:#800000;stroke:#ffffff;stroke-width:4;stroke-linecap:round;stroke-linejoin:round;stroke-miterlimit:4;stroke-dasharray:none;paint-order:stroke markers fill"
           id="path4550" />
        <path
           d="m 120.88771,143.0268 v 3.8354 h -5.7404 v -3.8354 h 0.889 l -0.2032,-1.0414 h -2.6924 l -0.2286,1.0414 h 0.889 v 3.8354 h -5.7404 v -3.8354 h 0.9144 l 3.6322,-16.1798 h 3.7338 l 3.6322,16.1798 z m -5.6642,-3.6576 -0.7366,-3.302 -0.762,3.302 z"
           style="font-family:'High School USA Serif';-inkscape-font-specification:'High School USA Serif, Normal';fill:#800000;stroke:#ffffff;stroke-width:4;stroke-linecap:round;stroke-linejoin:round;stroke-miterlimit:4;stroke-dasharray:none;paint-order:stroke markers fill"
           id="path4552" />
        <path
           d="m 133.48605,132.8414 h -3.8354 v -2.159 h -0.9398 v 12.3444 h 0.9398 v 3.8354 h -5.7404 v -3.8354 h 0.9398 v -12.3444 h -0.9398 v 2.159 h -3.8354 v -5.9944 h 13.4112 z"
           style="font-family:'High School USA Serif';-inkscape-font-specification:'High School USA Serif, Normal';fill:#800000;stroke:#ffffff;stroke-width:4;stroke-linecap:round;stroke-linejoin:round;stroke-miterlimit:4;stroke-dasharray:none;paint-order:stroke markers fill"
           id="path4554" />
        <path
           d="m 136.02601,146.8622 v -3.8354 h 0.9398 v -12.3444 h -0.9398 v -3.8354 h 5.7404 v 3.8354 h -0.9398 v 12.3444 h 0.9398 v 3.8354 z"
           style="font-family:'High School USA Serif';-inkscape-font-specification:'High School USA Serif, Normal';fill:#800000;stroke:#ffffff;stroke-width:4;stroke-linecap:round;stroke-linejoin:round;stroke-miterlimit:4;stroke-dasharray:none;paint-order:stroke markers fill"
           id="path4556" />
        <path
           d="m 152.78997,146.8622 h -5.2578 l -3.2258,-3.2258 v -13.589 l 3.2258,-3.2004 h 5.2578 l 3.2004,3.2004 v 13.589 z m -0.635,-4.8006 v -10.414 l -0.9652,-0.9652 h -2.0828 l -0.9652,0.9652 v 10.414 l 0.9652,0.9652 h 2.0828 z"
           style="font-family:'High School USA Serif';-inkscape-font-specification:'High School USA Serif, Normal';fill:#800000;stroke:#ffffff;stroke-width:4;stroke-linecap:round;stroke-linejoin:round;stroke-miterlimit:4;stroke-dasharray:none;paint-order:stroke markers fill"
           id="path4558" />
        <path
           d="m 158.53035,146.8622 v -3.8354 h 0.9398 v -12.3444 h -0.9398 v -3.8354 h 4.8514 l 3.0988,8.4582 v -4.6228 h -0.9652 v -3.8354 h 5.7404 v 3.8354 h -0.9398 v 16.1798 h -3.7338 l -3.2512,-8.9662 v 5.1308 h 0.9398 v 3.8354 z"
           style="font-family:'High School USA Serif';-inkscape-font-specification:'High School USA Serif, Normal';fill:#800000;stroke:#ffffff;stroke-width:4;stroke-linecap:round;stroke-linejoin:round;stroke-miterlimit:4;stroke-dasharray:none;paint-order:stroke markers fill"
           id="path4560" />
      </g>
    </g>
    <g
       id="g4698"
       style="fill:#800000">
      <g
         aria-label="SPORTS"
         id="g4674"
         style="font-size:25.4px;line-height:1.25;font-family:'Rose Of Baltimore';-inkscape-font-specification:'Rose Of Baltimore';fill:#800000;stroke-width:0.264583">
        <path
           d="m 73.326268,111.67499 h -3.835399 v -1.1938 l -0.9652,-0.9652 h -2.0828 l -0.9652,0.9652 v 2.3114 l 0.9652,0.9652 h 3.6576 l 3.225799,3.2258 v 5.4864 l -3.225799,3.2258 h -3.937 l -0.6858,-0.6604 v 0.6604 h -3.8354 v -6.0198 h 3.8354 v 1.2192 l 0.9652,0.9652 h 2.0828 l 0.9652,-0.9652 v -2.3114 l -0.9652,-0.9906 h -3.6576 l -3.2258,-3.2004 v -5.5118 l 3.2258,-3.2004 h 3.937 l 0.6858,0.6604 v -0.6604 h 3.835399 z"
           style="font-family:'High School USA Serif';-inkscape-font-specification:'High School USA Serif, Normal';fill:#800000"
           id="path4662" />
        <path
           d="m 75.866255,125.69579 v -3.8354 h 0.9398 v -12.3444 h -0.9398 v -3.8354 h 9.398 l 3.2258,3.2258 v 5.4864 l -3.2258,3.2258 h -4.5974 v 4.2418 h 0.9398 v 3.8354 z m 4.8006,-16.1798 v 4.2672 h 3.0226 l 0.9652,-0.9652 v -2.3368 l -0.9652,-0.9652 z"
           style="font-family:'High School USA Serif';-inkscape-font-specification:'High School USA Serif, Normal';fill:#800000"
           id="path4664" />
        <path
           d="m 99.51361,125.69579 h -5.2578 l -3.2258,-3.2258 v -13.589 l 3.2258,-3.2004 h 5.2578 l 3.2004,3.2004 v 13.589 z m -0.635,-4.8006 v -10.414 l -0.9652,-0.9652 h -2.0828 l -0.9652,0.9652 v 10.414 l 0.9652,0.9652 h 2.0828 z"
           style="font-family:'High School USA Serif';-inkscape-font-specification:'High School USA Serif, Normal';fill:#800000"
           id="path4666" />
        <path
           d="m 112.4422,125.69579 v -3.8354 h 0.7366 l -1.905,-4.2418 h -1.2192 v 4.2418 h 0.9398 v 3.8354 h -5.7404 v -3.8354 h 0.9398 v -12.3444 h -0.9398 v -3.8354 h 9.398 l 3.2258,3.2258 v 5.4864 l -2.667,2.667 2.159,4.8006 h 0.8128 v 3.8354 z m -2.3876,-16.1798 v 4.2672 h 3.0226 l 0.9652,-0.9652 v -2.3368 l -0.9652,-0.9652 z"
           style="font-family:'High School USA Serif';-inkscape-font-specification:'High School USA Serif, Normal';fill:#800000"
           id="path4668" />
        <path
           d="m 134.13378,111.67499 h -3.8354 v -2.159 h -0.9398 v 12.3444 h 0.9398 v 3.8354 h -5.7404 v -3.8354 h 0.9398 v -12.3444 h -0.9398 v 2.159 h -3.8354 v -5.9944 h 13.4112 z"
           style="font-family:'High School USA Serif';-inkscape-font-specification:'High School USA Serif, Normal';fill:#800000"
           id="path4670" />
        <path
           d="m 148.35773,111.67499 h -3.8354 v -1.1938 l -0.9652,-0.9652 h -2.0828 l -0.9652,0.9652 v 2.3114 l 0.9652,0.9652 h 3.6576 l 3.2258,3.2258 v 5.4864 l -3.2258,3.2258 h -3.937 l -0.6858,-0.6604 v 0.6604 h -3.8354 v -6.0198 h 3.8354 v 1.2192 l 0.9652,0.9652 h 2.0828 l 0.9652,-0.9652 v -2.3114 l -0.9652,-0.9906 h -3.6576 l -3.2258,-3.2004 v -5.5118 l 3.2258,-3.2004 h 3.937 l 0.6858,0.6604 v -0.6604 h 3.8354 z"
           style="font-family:'High School USA Serif';-inkscape-font-specification:'High School USA Serif, Normal';fill:#800000"
           id="path4672" />
      </g>
      <g
         aria-label="SIMULATION"
         id="g4696"
         style="font-size:25.4px;line-height:1.25;font-family:'Rose Of Baltimore';-inkscape-font-specification:'Rose Of Baltimore';fill:#800000;stroke-width:0.264583">
        <path
           d="m 50.428254,132.8414 h -3.8354 v -1.1938 l -0.9652,-0.9652 h -2.082799 l -0.9652,0.9652 v 2.3114 l 0.9652,0.9652 h 3.657599 l 3.2258,3.2258 v 5.4864 l -3.2258,3.2258 h -3.936999 l -0.6858,-0.6604 v 0.6604 h -3.8354 v -6.0198 h 3.8354 v 1.2192 l 0.9652,0.9652 h 2.082799 l 0.9652,-0.9652 v -2.3114 l -0.9652,-0.9906 h -3.657599 l -3.2258,-3.2004 v -5.5118 l 3.2258,-3.2004 h 3.936999 l 0.6858,0.6604 v -0.6604 h 3.8354 z"
           style="font-family:'High School USA Serif';-inkscape-font-specification:'High School USA Serif, Normal';fill:#800000"
           id="path4676" />
        <path
           d="m 52.968241,146.8622 v -3.8354 h 0.9398 v -12.3444 h -0.9398 v -3.8354 h 5.7404 v 3.8354 h -0.9398 v 12.3444 h 0.9398 v 3.8354 z"
           style="font-family:'High School USA Serif';-inkscape-font-specification:'High School USA Serif, Normal';fill:#800000"
           id="path4678" />
        <path
           d="m 69.655997,146.8622 v -3.8354 h 0.9398 v -8.2042 l -2.260599,3.9878 -2.286,-3.9878 v 8.2042 h 0.9398 v 3.8354 h -5.7404 v -3.8354 h 0.9652 v -12.3444 h -0.9652 v -3.8354 h 4.699 l 2.3876,4.1656 2.362199,-4.1656 h 4.699 v 3.8354 h -0.9652 v 12.3444 h 0.9652 v 3.8354 z"
           style="font-family:'High School USA Serif';-inkscape-font-specification:'High School USA Serif, Normal';fill:#800000"
           id="path4680" />
        <path
           d="m 85.937386,130.6824 h -0.9398 v -3.8354 h 5.740399 v 3.8354 h -0.9398 v 12.954 l -3.225799,3.2258 h -4.4704 l -3.2258,-3.2258 v -12.954 h -0.9398 v -3.8354 h 5.7404 v 3.8354 h -0.9398 l -0.0254,11.3538 0.9652,0.9906 h 1.2954 l 0.9906,-0.9906 z"
           style="font-family:'High School USA Serif';-inkscape-font-specification:'High School USA Serif, Normal';fill:#800000"
           id="path4682" />
        <path
           d="m 93.277942,146.8622 v -3.8354 h 0.9652 v -12.3444 h -0.9652 v -3.8354 h 5.7404 v 3.8354 h -0.9398 v 12.3444 h 3.606798 v -2.1844 h 3.8354 v 6.0198 z"
           style="font-family:'High School USA Serif';-inkscape-font-specification:'High School USA Serif, Normal';fill:#800000"
           id="path4684" />
        <path
           d="m 120.88771,143.0268 v 3.8354 h -5.7404 v -3.8354 h 0.889 l -0.2032,-1.0414 h -2.6924 l -0.2286,1.0414 h 0.889 v 3.8354 h -5.7404 v -3.8354 h 0.9144 l 3.6322,-16.1798 h 3.7338 l 3.6322,16.1798 z m -5.6642,-3.6576 -0.7366,-3.302 -0.762,3.302 z"
           style="font-family:'High School USA Serif';-inkscape-font-specification:'High School USA Serif, Normal';fill:#800000"
           id="path4686" />
        <path
           d="m 133.48605,132.8414 h -3.8354 v -2.159 h -0.9398 v 12.3444 h 0.9398 v 3.8354 h -5.7404 v -3.8354 h 0.9398 v -12.3444 h -0.9398 v 2.159 h -3.8354 v -5.9944 h 13.4112 z"
           style="font-family:'High School USA Serif';-inkscape-font-specification:'High School USA Serif, Normal';fill:#800000"
           id="path4688" />
        <path
           d="m 136.02601,146.8622 v -3.8354 h 0.9398 v -12.3444 h -0.9398 v -3.8354 h 5.7404 v 3.8354 h -0.9398 v 12.3444 h 0.9398 v 3.8354 z"
           style="font-family:'High School USA Serif';-inkscape-font-specification:'High School USA Serif, Normal';fill:#800000"
           id="path4690" />
        <path
           d="m 152.78997,146.8622 h -5.2578 l -3.2258,-3.2258 v -13.589 l 3.2258,-3.2004 h 5.2578 l 3.2004,3.2004 v 13.589 z m -0.635,-4.8006 v -10.414 l -0.9652,-0.9652 h -2.0828 l -0.9652,0.9652 v 10.414 l 0.9652,0.9652 h 2.0828 z"
           style="font-family:'High School USA Serif';-inkscape-font-specification:'High School USA Serif, Normal';fill:#800000"
           id="path4692" />
        <path
           d="m 158.53035,146.8622 v -3.8354 h 0.9398 v -12.3444 h -0.9398 v -3.8354 h 4.8514 l 3.0988,8.4582 v -4.6228 h -0.9652 v -3.8354 h 5.7404 v 3.8354 h -0.9398 v 16.1798 h -3.7338 l -3.2512,-8.9662 v 5.1308 h 0.9398 v 3.8354 z"
           style="font-family:'High School USA Serif';-inkscape-font-specification:'High School USA Serif, Normal';fill:#800000"
           id="path4694" />
      </g>
    </g>
  </g>
</svg>
