<?xml version="1.0" encoding="UTF-8" standalone="no"?>
<!-- Created with Inkscape (http://www.inkscape.org/) -->

<svg
   width="109.29418mm"
   height="31.119543mm"
   viewBox="0 0 109.29418 31.119543"
   version="1.1"
   id="svg5"
   inkscape:version="1.1 (c68e22c387, 2021-05-23)"
   sodipodi:docname="auto-actionrythm.svg"
   xmlns:inkscape="http://www.inkscape.org/namespaces/inkscape"
   xmlns:sodipodi="http://sodipodi.sourceforge.net/DTD/sodipodi-0.dtd"
   xmlns="http://www.w3.org/2000/svg"
   xmlns:svg="http://www.w3.org/2000/svg">
  <sodipodi:namedview
     id="namedview7"
     pagecolor="#ffffff"
     bordercolor="#666666"
     borderopacity="1.0"
     inkscape:pageshadow="2"
     inkscape:pageopacity="0.0"
     inkscape:pagecheckerboard="0"
     inkscape:document-units="mm"
     showgrid="false"
     fit-margin-top="0"
     fit-margin-left="0"
     fit-margin-right="0"
     fit-margin-bottom="0"
     inkscape:zoom="1.3416246"
     inkscape:cx="190.44075"
     inkscape:cy="159.50811"
     inkscape:window-width="1920"
     inkscape:window-height="1138"
     inkscape:window-x="-8"
     inkscape:window-y="-8"
     inkscape:window-maximized="1"
     inkscape:current-layer="layer1" />
  <defs
     id="defs2">
    <linearGradient
       id="linearGradient8206"
       inkscape:swatch="solid">
      <stop
         style="stop-color:#000000;stop-opacity:1;"
         offset="0"
         id="stop8204" />
    </linearGradient>
  </defs>
  <g
     inkscape:label="Calque 1"
     inkscape:groupmode="layer"
     id="layer1"
     transform="translate(-17.543251,-12.948275)">
    <path
       style="fill:#ffffff;fill-opacity:1;fill-rule:evenodd;stroke:none;stroke-width:13.2283;stroke-linecap:round;stroke-linejoin:round;stroke-miterlimit:4;stroke-dasharray:none;paint-order:stroke markers fill"
       id="path8286"
       sodipodi:type="arc"
       sodipodi:cx="111.35634"
       sodipodi:cy="28.545271"
       sodipodi:rx="13.311753"
       sodipodi:ry="13.311753"
       sodipodi:start="0"
       sodipodi:end="6.2647895"
       sodipodi:open="true"
       sodipodi:arc-type="arc"
       d="M 124.66809,28.545271 A 13.311753,13.311753 0 0 1 111.41756,41.856883 13.311753,13.311753 0 0 1 98.045148,28.667709 13.311753,13.311753 0 0 1 111.17268,15.234785 a 13.311753,13.311753 0 0 1 13.49316,13.06562" />
    <path
       style="fill:#500050;fill-opacity:1;stroke:#ffffff;stroke-width:3.5;stroke-linecap:round;stroke-linejoin:round;stroke-miterlimit:4;stroke-dasharray:none;paint-order:stroke markers fill"
       d="m 107.83185,41.917537 c -3.55166,-0.859671 -7.10472,-3.641024 -8.84838,-6.926566 -0.481476,-0.907234 -0.898194,-1.649632 -0.926042,-1.649776 -0.02785,-1.42e-4 -0.05063,0.982122 -0.05063,2.182812 v 2.183073 l -16.007293,0.08591 c -8.804011,0.04725 -16.785477,0.148795 -17.736591,0.225653 -1.192824,0.09639 -2.01363,0.02062 -2.645833,-0.244254 -2.343839,-0.981988 -3.95191,-3.401938 -3.956659,-5.954289 -0.0047,-2.499871 -0.585981,-1.804838 -3.706752,4.43177 l -2.912719,5.820834 h -4.102844 -4.102844 l 1.06424,-2.116667 1.064239,-2.116667 H 32.128496 19.293251 v -8.598956 -8.598959 h 4.191283 c 4.594975,0 6.06207,0.277447 7.576952,1.432905 0.493052,0.376069 0.963934,0.683762 1.046404,0.683762 0.08247,0 0.149945,-0.9525 0.149945,-2.116667 v -2.116667 h 3.836459 3.836458 v 2.513542 c 0,2.207255 0.05642,2.516806 0.463021,2.54033 0.254662,0.01474 2.51375,0.0042 5.020196,-0.02342 l 4.557176,-0.05021 0.452766,0.949462 c 0.249021,0.522205 0.527725,0.949462 0.619342,0.949462 0.09162,0 0.365294,-0.416718 0.608174,-0.926041 l 0.441597,-0.926041 h 3.051668 3.05167 l 1.74716,-1.852083 1.747163,-1.852084 h 1.820034 1.820035 v 1.852084 c 0,1.66431 0.05268,1.852083 0.519586,1.852083 0.47489,0 0.5261,-0.217648 0.595313,-2.530122 l 0.07573,-2.530122 h 3.836459 3.836458 l 0.07573,2.530122 0.07573,2.530122 h 0.71977 c 0.395875,0 1.130903,0.117911 1.633395,0.262024 0.603136,0.172977 1.002673,0.172977 1.175649,0 0.449802,-0.449802 3.359881,-0.318076 3.906759,0.176842 0.434001,0.392767 0.602937,0.399715 1.608333,0.06615 1.243954,-0.41272 3.663188,-0.424205 4.711055,-0.02237 0.479208,0.183768 1.098156,0.149058 2.116666,-0.1187 2.337679,-0.614557 4.656781,-0.0119 6.36713,1.654596 l 0.958959,0.934374 0.181059,-1.207388 c 0.453044,-3.021111 3.465135,-7.092425 6.518395,-8.810614 2.44268,-1.374598 4.06034,-1.788324 6.99304,-1.788511 3.28424,-2.1e-4 5.38163,0.651808 7.99069,2.484076 7.05963,4.957788 7.91253,14.940173 1.79885,21.053855 -3.46199,3.461989 -8.40348,4.84078 -13.19365,3.681331 z M 53.368483,35.32502 56.355171,29.372706 h 1.048208 1.048208 l 0.0016,1.521354 c 7.94e-4,0.836745 0.117425,1.938073 0.259144,2.447396 0.559911,2.012272 2.974269,3.961154 4.898755,3.9543 0.436563,-0.0016 1.448594,-0.22967 2.248959,-0.506922 0.801478,-0.277639 1.49483,-0.392618 1.543402,-0.255946 0.04851,0.136483 1.387962,0.24815 2.976562,0.24815 h 2.888258 v -3.836457 c 0,-5.119711 0.490805,-5.109432 0.588241,0.01232 l 0.07322,3.848777 h 5.291667 5.291667 l 0.125224,-3.914923 0.125222,-3.914923 0.139362,3.923446 0.139358,3.923446 h 2.910417 2.910417 l 0.143087,-3.923446 0.143087,-3.923446 0.05535,3.902604 0.05535,3.902603 h 2.910417 2.910417 v -4.216108 c 0,-2.344347 -0.125288,-4.546779 -0.282207,-4.960938 -0.911884,-2.406725 -4.3882,-3.702667 -7.002334,-2.610413 -0.801232,0.334777 -1.033854,0.334777 -1.835086,0 -1.27235,-0.531621 -3.399957,-0.482892 -4.618358,0.105775 -0.980766,0.473854 -1.032074,0.474038 -1.640864,0.0059 -0.377441,-0.290246 -1.077563,-0.485614 -1.752923,-0.489147 -1.024625,-0.0054 -1.124479,0.05286 -1.124479,0.655575 0,0.802153 -0.08321,0.811397 -1.026435,0.114038 -0.808297,-0.5976 -2.321577,-1.02387 -3.66992,-1.033768 l -0.859896,-0.0063 V 21.83211 19.318568 h -2.91043 -2.910417 v 2.659038 2.659037 l -1.521355,-0.07935 -1.521354,-0.07935 -0.07823,-1.785938 -0.07823,-1.785937 h -1.127189 c -1.047387,0 -1.2549,0.131126 -2.931022,1.852083 l -1.803834,1.852083 h -2.880596 -2.880598 l -0.713701,1.455209 c -0.392536,0.800364 -0.783158,1.455208 -0.86805,1.455208 -0.08489,0 -0.475514,-0.654844 -0.86805,-1.455208 l -0.71371,-1.455208 h -3.073889 c -2.623646,0 -3.051585,0.05813 -2.921597,0.396875 0.18718,0.487784 0.186519,0.487784 -0.980912,0 -0.52242,-0.218281 -1.548992,-0.396875 -2.28127,-0.396875 H 38.872419 V 21.95545 19.300666 l -2.844271,0.0751 -2.844271,0.0751 -0.132292,7.255921 -0.132291,7.255919 -1.111179,-1.472262 -1.111178,-1.472263 0.542954,-0.491366 c 1.895431,-1.715341 1.845989,-5.284412 -0.09929,-7.167152 -1.512187,-1.463574 -2.557657,-1.747611 -6.886417,-1.870924 l -3.902605,-0.111173 -3.47e-4,7.7679 -3.48e-4,7.7679 h 2.712327 2.712327 l 0.132292,-1.5875 0.132291,-1.5875 1.089023,1.5875 1.089021,1.5875 5.327125,-0.07677 5.327124,-0.07677 v -3.677927 c 0,-5.047805 0.492957,-5.154268 0.588175,-0.127028 l 0.07328,3.869121 2.778125,1.53e-4 2.778126,1.53e-4 0.132291,-4.146388 0.132292,-4.146389 1.31535,2.675639 1.315352,2.675638 -1.778373,3.568305 c -0.978104,1.962567 -1.778371,3.626711 -1.778371,3.698095 0,0.07138 1.339453,0.129426 2.976563,0.128982 l 2.976563,-7.94e-4 2.986688,-5.952315 z m -5.569702,1.587211 1.515126,-3.043806 -1.975099,-3.901505 c -1.086305,-2.145828 -2.016812,-3.990803 -2.067793,-4.099944 -0.05098,-0.10914 0.692002,-0.198437 1.651077,-0.198437 h 1.743768 l 1.11537,2.248958 c 0.613452,1.236927 1.181362,2.248959 1.262023,2.248959 0.08066,0 0.648571,-1.012032 1.262023,-2.248959 l 1.11537,-2.248958 h 1.72172 c 0.946947,0 1.721721,0.07065 1.721721,0.157012 0,0.08636 -1.616401,3.301044 -3.592002,7.14375 l -3.592005,6.986737 h -1.698212 -1.698213 z m 13.799474,-1.552928 c -1.397098,-0.97 -1.823751,-2.082303 -1.823751,-4.7546 v -2.259905 l -1.12448,-0.08136 c -0.828296,-0.05993 -1.124479,-0.194624 -1.124479,-0.511378 0,-0.477611 4.960591,-5.787689 5.406769,-5.787689 0.172474,0 0.281773,0.718423 0.281773,1.852083 v 1.852084 h 1.852084 1.852083 v 1.322917 1.322916 h -1.852083 -1.852084 v 2.066777 c 0,1.746044 0.08786,2.161078 0.566137,2.674452 0.565335,0.606817 1.397921,0.652808 2.675009,0.147765 0.388903,-0.153798 0.463021,-0.03132 0.463021,0.76514 0,1.234542 -0.865756,1.823055 -2.876582,1.955407 -1.253993,0.08254 -1.639694,-0.0066 -2.443417,-0.564609 z M 21.409918,29.240414 v -6.482292 l 2.976562,0.0015 c 1.63711,8.2e-4 3.447226,0.132146 4.022481,0.291855 3.113937,0.864528 4.061339,4.665139 1.718474,6.893853 l -1.024171,0.97427 1.8586,2.401565 1.8586,2.401558 h -1.99965 -1.999649 l -1.390519,-2.110708 c -1.047911,-1.590652 -1.537198,-2.112175 -1.985832,-2.116666 -0.568248,-0.0057 -0.595313,0.09027 -0.595313,2.110707 v 2.116667 H 23.12971 21.409918 Z M 27.602782,28.2985 c 0.876419,-1.636875 -0.103255,-3.423712 -1.877129,-3.423712 h -0.876152 v 2.264172 2.264172 l 1.12448,-0.08136 c 0.982646,-0.0711 1.18809,-0.200165 1.628801,-1.023272 z m -1.694947,-1.042461 c 0,-1.047106 0.403533,-1.429009 0.698297,-0.660867 0.199658,0.520301 -0.106311,1.7192 -0.438755,1.7192 -0.142748,0 -0.259542,-0.47625 -0.259542,-1.058333 z m 8.466667,0.926042 v -7.540626 h 1.719792 1.719792 v 2.795955 c 0,2.787199 0.0019,2.795278 0.595312,2.579688 1.642378,-0.59665 4.616641,0.101237 5.217678,1.224285 0.152267,0.284513 0.272427,2.267214 0.272427,4.495179 v 3.986143 h -1.587501 -1.5875 v -3.24842 c 0,-3.547804 -0.28319,-4.424496 -1.429204,-4.424496 -1.247503,0 -1.481212,0.68167 -1.481212,4.320313 v 3.352603 h -1.719792 -1.719792 z m 34.395835,-0.144917 v -7.685543 l 1.653646,0.07877 1.653646,0.07877 0.132292,2.835669 c 0.113699,2.437171 0.188066,2.800265 0.529167,2.583739 0.591013,-0.375165 2.803168,-0.311945 3.810378,0.108894 1.602105,0.669402 1.745872,1.134092 1.745872,5.64307 v 4.04217 h -1.5875 -1.5875 v -3.157775 c 0,-1.736777 -0.112242,-3.452995 -0.249428,-3.813818 -0.331145,-0.87098 -1.193387,-1.121567 -2.012485,-0.584873 -0.635185,0.416188 -0.648504,0.498156 -0.648504,3.990691 v 3.565775 h -1.719792 -1.719792 z m 11.112501,2.658458 c 0,-3.626283 0.0852,-5.027083 0.305755,-5.027083 0.168164,0 0.6965,0.298035 1.174076,0.6623 l 0.86832,0.6623 1.002932,-0.591744 c 1.245428,-0.734822 3.516025,-0.790434 4.784855,-0.117194 0.811485,0.430573 0.908307,0.430835 1.719792,0.0047 1.07506,-0.564603 3.259296,-0.610072 4.275685,-0.08901 1.640549,0.841051 1.867207,1.500239 1.961542,5.70474 l 0.08567,3.818113 h -1.871608 -1.871601 v -3.518958 c 0,-3.717058 -0.128805,-4.153958 -1.224643,-4.153958 -1.231376,0 -1.421191,0.567927 -1.421191,4.252232 v 3.420684 H 87.95263 86.232839 V 32.30206 c 0,-3.707653 -0.186868,-4.252232 -1.459104,-4.252232 -1.169633,0 -1.451313,0.858736 -1.451313,4.424496 v 3.24842 H 81.60263 79.882838 Z m -15.493744,0.958011 c -0.08689,-0.346219 -0.11893,-0.971297 -0.07119,-1.389062 0.08312,-0.727344 0.151357,-0.762941 1.608158,-0.838923 1.808219,-0.09431 1.902778,0.134871 0.725946,1.759443 -0.940758,1.298677 -1.999547,1.517902 -2.262918,0.468542 z m 50.613346,8.512243 c 3.11051,-1.144241 5.78249,-3.492909 7.24473,-6.368101 0.81009,-1.592855 1.70897,-4.625374 1.4483,-4.886042 -0.1403,-0.1403 -4.56265,-0.83196 -5.45159,-0.852632 -0.26739,-0.0062 -0.51001,0.452091 -0.73033,1.379616 -0.72003,3.031137 -2.83018,5.077311 -5.5708,5.401897 -1.0998,0.130255 -1.3552,0.249855 -1.25762,0.588916 0.0674,0.234006 0.25759,0.961247 0.42276,1.616091 0.16516,0.654844 0.47839,1.815841 0.69607,2.579994 0.44702,1.569297 0.41559,1.563987 3.19848,0.540261 z m -1.51483,-7.9489 c 1.53117,-1.042103 1.98168,-1.893302 1.98168,-3.744164 0,-1.389226 -0.11439,-1.804811 -0.71267,-2.589197 -0.99309,-1.302012 -2.34675,-1.893719 -3.97449,-1.737314 -4.20958,0.404488 -5.39174,5.654583 -1.81585,8.064379 1.22751,0.827221 3.31088,0.830122 4.52133,0.0063 z m -8.46935,-3.987763 c 0,-1.050476 0.77202,-2.94291 1.62047,-3.972234 1.00602,-1.220486 2.51099,-2.009555 4.21845,-2.211779 0.71765,-0.08499 1.30471,-0.167718 1.30458,-0.183828 -0.002,-0.259671 -1.57717,-5.795941 -1.67753,-5.896293 -0.25028,-0.250285 -3.50483,0.967997 -5.10226,1.909934 -1.89888,1.119701 -4.11465,3.455275 -4.99039,5.260239 -0.735219,1.515333 -1.586468,4.61042 -1.33671,4.86018 0.152549,0.152548 4.01951,0.739541 5.36807,0.814859 0.45598,0.02547 0.59532,-0.110537 0.59532,-0.581078 z"
       id="path7411" />
    <path
       style="fill:#500050;fill-opacity:1;stroke-width:0.264583"
       d="m 107.83185,41.917537 c -3.55166,-0.859671 -7.10472,-3.641024 -8.84838,-6.926566 -0.481476,-0.907234 -0.898194,-1.649632 -0.926042,-1.649776 -0.02785,-1.42e-4 -0.05063,0.982122 -0.05063,2.182812 v 2.183073 l -16.007293,0.08591 c -8.804011,0.04725 -16.785477,0.148795 -17.736591,0.225653 -1.192824,0.09639 -2.01363,0.02062 -2.645833,-0.244254 -2.343839,-0.981988 -3.95191,-3.401938 -3.956659,-5.954289 -0.0047,-2.499871 -0.585981,-1.804838 -3.706752,4.43177 l -2.912719,5.820834 h -4.102844 -4.102844 l 1.06424,-2.116667 1.064239,-2.116667 H 32.128496 19.293251 v -8.598956 -8.598959 h 4.191283 c 4.594975,0 6.06207,0.277447 7.576952,1.432905 0.493052,0.376069 0.963934,0.683762 1.046404,0.683762 0.08247,0 0.149945,-0.9525 0.149945,-2.116667 v -2.116667 h 3.836459 3.836458 v 2.513542 c 0,2.207255 0.05642,2.516806 0.463021,2.54033 0.254662,0.01474 2.51375,0.0042 5.020196,-0.02342 l 4.557176,-0.05021 0.452766,0.949462 c 0.249021,0.522205 0.527725,0.949462 0.619342,0.949462 0.09162,0 0.365294,-0.416718 0.608174,-0.926041 l 0.441597,-0.926041 h 3.051668 3.05167 l 1.74716,-1.852083 1.747163,-1.852084 h 1.820034 1.820035 v 1.852084 c 0,1.66431 0.05268,1.852083 0.519586,1.852083 0.47489,0 0.5261,-0.217648 0.595313,-2.530122 l 0.07573,-2.530122 h 3.836459 3.836458 l 0.07573,2.530122 0.07573,2.530122 h 0.71977 c 0.395875,0 1.130903,0.117911 1.633395,0.262024 0.603136,0.172977 1.002673,0.172977 1.175649,0 0.449802,-0.449802 3.359881,-0.318076 3.906759,0.176842 0.434001,0.392767 0.602937,0.399715 1.608333,0.06615 1.243954,-0.41272 3.663188,-0.424205 4.711055,-0.02237 0.479208,0.183768 1.098156,0.149058 2.116666,-0.1187 2.337679,-0.614557 4.656781,-0.0119 6.36713,1.654596 l 0.958959,0.934374 0.181059,-1.207388 c 0.453044,-3.021111 3.465135,-7.092425 6.518395,-8.810614 2.44268,-1.374598 4.06034,-1.788324 6.99304,-1.788511 3.28424,-2.1e-4 5.38163,0.651808 7.99069,2.484076 7.05963,4.957788 7.91253,14.940173 1.79885,21.053855 -3.46199,3.461989 -8.40348,4.84078 -13.19365,3.681331 z M 53.368483,35.32502 56.355171,29.372706 h 1.048208 1.048208 l 0.0016,1.521354 c 7.94e-4,0.836745 0.117425,1.938073 0.259144,2.447396 0.559911,2.012272 2.974269,3.961154 4.898755,3.9543 0.436563,-0.0016 1.448594,-0.22967 2.248959,-0.506922 0.801478,-0.277639 1.49483,-0.392618 1.543402,-0.255946 0.04851,0.136483 1.387962,0.24815 2.976562,0.24815 h 2.888258 v -3.836457 c 0,-5.119711 0.490805,-5.109432 0.588241,0.01232 l 0.07322,3.848777 h 5.291667 5.291667 l 0.125224,-3.914923 0.125222,-3.914923 0.139362,3.923446 0.139358,3.923446 h 2.910417 2.910417 l 0.143087,-3.923446 0.143087,-3.923446 0.05535,3.902604 0.05535,3.902603 h 2.910417 2.910417 v -4.216108 c 0,-2.344347 -0.125288,-4.546779 -0.282207,-4.960938 -0.911884,-2.406725 -4.3882,-3.702667 -7.002334,-2.610413 -0.801232,0.334777 -1.033854,0.334777 -1.835086,0 -1.27235,-0.531621 -3.399957,-0.482892 -4.618358,0.105775 -0.980766,0.473854 -1.032074,0.474038 -1.640864,0.0059 -0.377441,-0.290246 -1.077563,-0.485614 -1.752923,-0.489147 -1.024625,-0.0054 -1.124479,0.05286 -1.124479,0.655575 0,0.802153 -0.08321,0.811397 -1.026435,0.114038 -0.808297,-0.5976 -2.321577,-1.02387 -3.66992,-1.033768 l -0.859896,-0.0063 V 21.83211 19.318568 h -2.91043 -2.910417 v 2.659038 2.659037 l -1.521355,-0.07935 -1.521354,-0.07935 -0.07823,-1.785938 -0.07823,-1.785937 h -1.127189 c -1.047387,0 -1.2549,0.131126 -2.931022,1.852083 l -1.803834,1.852083 h -2.880596 -2.880598 l -0.713701,1.455209 c -0.392536,0.800364 -0.783158,1.455208 -0.86805,1.455208 -0.08489,0 -0.475514,-0.654844 -0.86805,-1.455208 l -0.71371,-1.455208 h -3.073889 c -2.623646,0 -3.051585,0.05813 -2.921597,0.396875 0.18718,0.487784 0.186519,0.487784 -0.980912,0 -0.52242,-0.218281 -1.548992,-0.396875 -2.28127,-0.396875 H 38.872419 V 21.95545 19.300666 l -2.844271,0.0751 -2.844271,0.0751 -0.132292,7.255921 -0.132291,7.255919 -1.111179,-1.472262 -1.111178,-1.472263 0.542954,-0.491366 c 1.895431,-1.715341 1.845989,-5.284412 -0.09929,-7.167152 -1.512187,-1.463574 -2.557657,-1.747611 -6.886417,-1.870924 l -3.902605,-0.111173 -3.47e-4,7.7679 -3.48e-4,7.7679 h 2.712327 2.712327 l 0.132292,-1.5875 0.132291,-1.5875 1.089023,1.5875 1.089021,1.5875 5.327125,-0.07677 5.327124,-0.07677 v -3.677927 c 0,-5.047805 0.492957,-5.154268 0.588175,-0.127028 l 0.07328,3.869121 2.778125,1.53e-4 2.778126,1.53e-4 0.132291,-4.146388 0.132292,-4.146389 1.31535,2.675639 1.315352,2.675638 -1.778373,3.568305 c -0.978104,1.962567 -1.778371,3.626711 -1.778371,3.698095 0,0.07138 1.339453,0.129426 2.976563,0.128982 l 2.976563,-7.94e-4 2.986688,-5.952315 z m -5.569702,1.587211 1.515126,-3.043806 -1.975099,-3.901505 c -1.086305,-2.145828 -2.016812,-3.990803 -2.067793,-4.099944 -0.05098,-0.10914 0.692002,-0.198437 1.651077,-0.198437 h 1.743768 l 1.11537,2.248958 c 0.613452,1.236927 1.181362,2.248959 1.262023,2.248959 0.08066,0 0.648571,-1.012032 1.262023,-2.248959 l 1.11537,-2.248958 h 1.72172 c 0.946947,0 1.721721,0.07065 1.721721,0.157012 0,0.08636 -1.616401,3.301044 -3.592002,7.14375 l -3.592005,6.986737 h -1.698212 -1.698213 z m 13.799474,-1.552928 c -1.397098,-0.97 -1.823751,-2.082303 -1.823751,-4.7546 v -2.259905 l -1.12448,-0.08136 c -0.828296,-0.05993 -1.124479,-0.194624 -1.124479,-0.511378 0,-0.477611 4.960591,-5.787689 5.406769,-5.787689 0.172474,0 0.281773,0.718423 0.281773,1.852083 v 1.852084 h 1.852084 1.852083 v 1.322917 1.322916 h -1.852083 -1.852084 v 2.066777 c 0,1.746044 0.08786,2.161078 0.566137,2.674452 0.565335,0.606817 1.397921,0.652808 2.675009,0.147765 0.388903,-0.153798 0.463021,-0.03132 0.463021,0.76514 0,1.234542 -0.865756,1.823055 -2.876582,1.955407 -1.253993,0.08254 -1.639694,-0.0066 -2.443417,-0.564609 z M 21.409918,29.240414 v -6.482292 l 2.976562,0.0015 c 1.63711,8.2e-4 3.447226,0.132146 4.022481,0.291855 3.113937,0.864528 4.061339,4.665139 1.718474,6.893853 l -1.024171,0.97427 1.8586,2.401565 1.8586,2.401558 h -1.99965 -1.999649 l -1.390519,-2.110708 c -1.047911,-1.590652 -1.537198,-2.112175 -1.985832,-2.116666 -0.568248,-0.0057 -0.595313,0.09027 -0.595313,2.110707 v 2.116667 H 23.12971 21.409918 Z M 27.602782,28.2985 c 0.876419,-1.636875 -0.103255,-3.423712 -1.877129,-3.423712 h -0.876152 v 2.264172 2.264172 l 1.12448,-0.08136 c 0.982646,-0.0711 1.18809,-0.200165 1.628801,-1.023272 z m -1.694947,-1.042461 c 0,-1.047106 0.403533,-1.429009 0.698297,-0.660867 0.199658,0.520301 -0.106311,1.7192 -0.438755,1.7192 -0.142748,0 -0.259542,-0.47625 -0.259542,-1.058333 z m 8.466667,0.926042 v -7.540626 h 1.719792 1.719792 v 2.795955 c 0,2.787199 0.0019,2.795278 0.595312,2.579688 1.642378,-0.59665 4.616641,0.101237 5.217678,1.224285 0.152267,0.284513 0.272427,2.267214 0.272427,4.495179 v 3.986143 h -1.587501 -1.5875 v -3.24842 c 0,-3.547804 -0.28319,-4.424496 -1.429204,-4.424496 -1.247503,0 -1.481212,0.68167 -1.481212,4.320313 v 3.352603 h -1.719792 -1.719792 z m 34.395835,-0.144917 v -7.685543 l 1.653646,0.07877 1.653646,0.07877 0.132292,2.835669 c 0.113699,2.437171 0.188066,2.800265 0.529167,2.583739 0.591013,-0.375165 2.803168,-0.311945 3.810378,0.108894 1.602105,0.669402 1.745872,1.134092 1.745872,5.64307 v 4.04217 h -1.5875 -1.5875 v -3.157775 c 0,-1.736777 -0.112242,-3.452995 -0.249428,-3.813818 -0.331145,-0.87098 -1.193387,-1.121567 -2.012485,-0.584873 -0.635185,0.416188 -0.648504,0.498156 -0.648504,3.990691 v 3.565775 h -1.719792 -1.719792 z m 11.112501,2.658458 c 0,-3.626283 0.0852,-5.027083 0.305755,-5.027083 0.168164,0 0.6965,0.298035 1.174076,0.6623 l 0.86832,0.6623 1.002932,-0.591744 c 1.245428,-0.734822 3.516025,-0.790434 4.784855,-0.117194 0.811485,0.430573 0.908307,0.430835 1.719792,0.0047 1.07506,-0.564603 3.259296,-0.610072 4.275685,-0.08901 1.640549,0.841051 1.867207,1.500239 1.961542,5.70474 l 0.08567,3.818113 h -1.871608 -1.871601 v -3.518958 c 0,-3.717058 -0.128805,-4.153958 -1.224643,-4.153958 -1.231376,0 -1.421191,0.567927 -1.421191,4.252232 v 3.420684 H 87.95263 86.232839 V 32.30206 c 0,-3.707653 -0.186868,-4.252232 -1.459104,-4.252232 -1.169633,0 -1.451313,0.858736 -1.451313,4.424496 v 3.24842 H 81.60263 79.882838 Z m -15.493744,0.958011 c -0.08689,-0.346219 -0.11893,-0.971297 -0.07119,-1.389062 0.08312,-0.727344 0.151357,-0.762941 1.608158,-0.838923 1.808219,-0.09431 1.902778,0.134871 0.725946,1.759443 -0.940758,1.298677 -1.999547,1.517902 -2.262918,0.468542 z m 50.613346,8.512243 c 3.11051,-1.144241 5.78249,-3.492909 7.24473,-6.368101 0.81009,-1.592855 1.70897,-4.625374 1.4483,-4.886042 -0.1403,-0.1403 -4.56265,-0.83196 -5.45159,-0.852632 -0.26739,-0.0062 -0.51001,0.452091 -0.73033,1.379616 -0.72003,3.031137 -2.83018,5.077311 -5.5708,5.401897 -1.0998,0.130255 -1.3552,0.249855 -1.25762,0.588916 0.0674,0.234006 0.25759,0.961247 0.42276,1.616091 0.16516,0.654844 0.47839,1.815841 0.69607,2.579994 0.44702,1.569297 0.41559,1.563987 3.19848,0.540261 z m -1.51483,-7.9489 c 1.53117,-1.042103 1.98168,-1.893302 1.98168,-3.744164 0,-1.389226 -0.11439,-1.804811 -0.71267,-2.589197 -0.99309,-1.302012 -2.34675,-1.893719 -3.97449,-1.737314 -4.20958,0.404488 -5.39174,5.654583 -1.81585,8.064379 1.22751,0.827221 3.31088,0.830122 4.52133,0.0063 z m -8.46935,-3.987763 c 0,-1.050476 0.77202,-2.94291 1.62047,-3.972234 1.00602,-1.220486 2.51099,-2.009555 4.21845,-2.211779 0.71765,-0.08499 1.30471,-0.167718 1.30458,-0.183828 -0.002,-0.259671 -1.57717,-5.795941 -1.67753,-5.896293 -0.25028,-0.250285 -3.50483,0.967997 -5.10226,1.909934 -1.89888,1.119701 -4.11465,3.455275 -4.99039,5.260239 -0.735219,1.515333 -1.586468,4.61042 -1.33671,4.86018 0.152549,0.152548 4.01951,0.739541 5.36807,0.814859 0.45598,0.02547 0.59532,-0.110537 0.59532,-0.581078 z"
       id="path8184" />
  </g>
</svg>
