<?xml version="1.0" encoding="UTF-8" standalone="no"?>
<!-- Created with Inkscape (http://www.inkscape.org/) -->

<svg
   width="172.47124mm"
   height="21.78203mm"
   viewBox="0 0 172.47124 21.78203"
   version="1.1"
   id="svg5"
   inkscape:version="1.1 (c68e22c387, 2021-05-23)"
   sodipodi:docname="auto-simulation.svg"
   xmlns:inkscape="http://www.inkscape.org/namespaces/inkscape"
   xmlns:sodipodi="http://sodipodi.sourceforge.net/DTD/sodipodi-0.dtd"
   xmlns="http://www.w3.org/2000/svg"
   xmlns:svg="http://www.w3.org/2000/svg">
  <sodipodi:namedview
     id="namedview7"
     pagecolor="#ffffff"
     bordercolor="#666666"
     borderopacity="1.0"
     inkscape:pageshadow="2"
     inkscape:pageopacity="0.0"
     inkscape:pagecheckerboard="0"
     inkscape:document-units="mm"
     showgrid="false"
     fit-margin-top="0"
     fit-margin-left="0"
     fit-margin-right="0"
     fit-margin-bottom="0"
     inkscape:zoom="1.3416246"
     inkscape:cx="308.20843"
     inkscape:cy="70.809675"
     inkscape:window-width="1920"
     inkscape:window-height="1138"
     inkscape:window-x="-8"
     inkscape:window-y="-8"
     inkscape:window-maximized="1"
     inkscape:current-layer="layer1" />
  <defs
     id="defs2" />
  <g
     inkscape:label="Calque 1"
     inkscape:groupmode="layer"
     id="layer1"
     transform="translate(-23.530543,-129.18543)">
    <rect
       style="fill:#ffffff;fill-opacity:1;fill-rule:evenodd;stroke:none;stroke-width:6.12244;stroke-linecap:round;stroke-linejoin:round;stroke-miterlimit:4;stroke-dasharray:none;paint-order:stroke markers fill"
       id="rect6275"
       width="33.920319"
       height="16.565737"
       x="33.841293"
       y="131.68542" />
    <rect
       style="fill:#ffffff;fill-opacity:1;fill-rule:evenodd;stroke:none;stroke-width:8.68357;stroke-linecap:round;stroke-linejoin:round;stroke-miterlimit:4;stroke-dasharray:none;paint-order:stroke markers fill"
       id="rect6401"
       width="68.235062"
       height="16.565737"
       x="119.03714"
       y="131.68542" />
    <g
       aria-label="SIMULATION"
       id="text1046"
       style="font-size:31.6642px;line-height:1.25;font-family:'Rose Of Baltimore';-inkscape-font-specification:'Rose Of Baltimore';fill:#630063;fill-opacity:1;stroke:#ffffff;stroke-width:5;stroke-linecap:round;stroke-linejoin:round;stroke-miterlimit:4;stroke-dasharray:none;paint-order:stroke markers fill">
      <path
         d="m 37.777842,143.14787 v -0.18999 q 0,-0.25331 -0.06333,-0.50662 -0.06333,-0.28498 -0.284978,-0.28498 h -5.066272 q -0.759941,0 -1.393225,-0.4433 -0.60162,-0.47496 -1.044918,-1.17158 -0.411635,-0.72827 -0.664949,-1.58321 -0.221649,-0.85493 -0.221649,-1.6782 0,-0.75994 0.348306,-1.70987 0.348306,-0.98159 0.918262,-1.83652 0.569956,-0.8866 1.266568,-1.45655 0.696612,-0.60162 1.424889,-0.60162 H 45.91554 q -0.60162,1.07658 -1.329897,2.15316 -0.728276,1.07659 -1.646538,2.15317 h -8.359349 q -0.284978,0 -0.506627,0.47496 -0.189985,0.47496 -0.189985,0.75994 v 0.15832 q 0,0.0317 0.09499,0.15832 0.09499,0.095 0.158321,0.15833 0.09499,0.12665 0.284978,0.25331 0.189985,0.095 0.221649,0.095 h 4.812959 q 0.791605,0 1.36156,0.50663 0.60162,0.47496 0.981591,1.2349 0.37997,0.72828 0.538291,1.58321 0.189985,0.85494 0.189985,1.58321 v 0.18999 q 0,0.82327 -0.316642,1.77319 -0.284978,0.91826 -0.791605,1.70987 -0.506627,0.7916 -1.139911,1.3299 -0.633284,0.50662 -1.329896,0.50662 h -12.91899 q 0.126657,-0.31664 0.506627,-1.01325 0.411635,-0.69661 0.854934,-1.39323 0.443298,-0.72827 0.791605,-1.26656 0.37997,-0.56996 0.474963,-0.56996 h 8.612662 q 0.37997,0 0.443299,-0.28498 0.06333,-0.28498 0.06333,-0.60162 z"
         style="font-family:'Airstrike Condensed';-inkscape-font-specification:'Airstrike Condensed, Normal';fill:#630063;fill-opacity:1;stroke:#ffffff;stroke-width:5;stroke-linecap:round;stroke-linejoin:round;stroke-miterlimit:4;stroke-dasharray:none;paint-order:stroke markers fill"
         id="path3739" />
      <path
         d="m 41.989126,148.46745 h 12.66568 q 0.189985,0 0.633284,-0.50662 0.443299,-0.50663 0.918262,-1.20324 0.474963,-0.69662 0.886597,-1.39323 0.411635,-0.72828 0.60162,-1.17157 h -4.812958 l 2.406479,-8.2327 h 3.008099 q 0.189985,0 0.633284,-0.50662 0.443299,-0.50663 0.918262,-1.20324 0.474963,-0.69662 0.886597,-1.39323 0.411635,-0.72827 0.60162,-1.17157 H 48.638608 q -0.348306,0.28497 -0.854933,0.94992 -0.474963,0.63329 -0.949926,1.3299 -0.474963,0.69661 -0.82327,1.26657 -0.316642,0.56995 -0.348306,0.69661 v 0.0317 h 4.781294 l -2.406479,8.2327 h -3.039763 q -0.348306,0.28497 -0.854933,0.94992 -0.474963,0.63329 -0.949926,1.3299 -0.474963,0.69661 -0.82327,1.26657 -0.348306,0.56995 -0.37997,0.69661 z"
         style="font-family:'Airstrike Condensed';-inkscape-font-specification:'Airstrike Condensed, Normal';fill:#630063;fill-opacity:1;stroke:#ffffff;stroke-width:5;stroke-linecap:round;stroke-linejoin:round;stroke-miterlimit:4;stroke-dasharray:none;paint-order:stroke markers fill"
         id="path3741" />
      <path
         d="m 77.484635,148.46745 4.907951,-16.78202 h -6.142855 l -6.206183,8.42267 -1.298232,-8.42267 h -6.111191 l -4.907951,16.78202 h 4.876287 l 2.723121,-9.43593 1.393225,9.43593 h 1.773195 l 6.871132,-9.43593 -2.723121,9.43593 z"
         style="font-family:'Airstrike Condensed';-inkscape-font-specification:'Airstrike Condensed, Normal';fill:#630063;fill-opacity:1;stroke:#ffffff;stroke-width:5;stroke-linecap:round;stroke-linejoin:round;stroke-miterlimit:4;stroke-dasharray:none;paint-order:stroke markers fill"
         id="path3743" />
      <path
         d="m 81.822592,138.71488 1.994845,-7.02945 h 4.781294 q -0.886598,3.22975 -1.361561,5.0346 -0.474963,1.7732 -0.728276,2.6598 -0.22165,0.8866 -0.284978,1.13991 -0.03166,0.22165 -0.03166,0.31664 -0.06333,0.28498 -0.09499,0.53829 -0.03166,0.25332 -0.03166,0.47497 0,1.10824 0.411635,1.74153 0.443298,0.60162 1.171575,0.60162 h 1.234904 q 0.60162,0 1.108247,-0.31665 0.538291,-0.31664 0.918262,-0.7916 0.411634,-0.47496 0.696612,-1.01326 0.316642,-0.53829 0.506627,-0.98159 l 2.754786,-9.40426 h 4.812958 l -2.279822,7.82105 q -0.633284,2.18483 -1.298233,3.86304 -0.633284,1.64654 -1.488217,2.78645 -0.823269,1.13991 -1.931516,1.74153 -1.108247,0.56995 -2.628129,0.56995 h -2.94477 q -1.773196,0 -2.976435,-0.25331 -1.171576,-0.25331 -1.899852,-0.79161 -0.696613,-0.56995 -1.013255,-1.45655 -0.284977,-0.8866 -0.284977,-2.15316 0,-0.34831 0.03166,-0.72828 0.03166,-0.37997 0.09499,-0.82327 0.158321,-0.82327 0.316642,-1.64654 0.189986,-0.82327 0.443299,-1.89985 z"
         style="font-family:'Airstrike Condensed';-inkscape-font-specification:'Airstrike Condensed, Normal';fill:#630063;fill-opacity:1;stroke:#ffffff;stroke-width:5;stroke-linecap:round;stroke-linejoin:round;stroke-miterlimit:4;stroke-dasharray:none;paint-order:stroke markers fill"
         id="path3745" />
      <path
         d="m 96.198121,148.46745 4.907949,-16.78202 h 4.84462 l -3.67304,12.50736 h 8.0427 q 0.0317,0 -0.31664,0.53829 -0.31664,0.53829 -0.7916,1.26657 -0.47497,0.69661 -1.01326,1.42488 -0.50662,0.69662 -0.85493,1.04492 z"
         style="font-family:'Airstrike Condensed';-inkscape-font-specification:'Airstrike Condensed, Normal';fill:#630063;fill-opacity:1;stroke:#ffffff;stroke-width:5;stroke-linecap:round;stroke-linejoin:round;stroke-miterlimit:4;stroke-dasharray:none;paint-order:stroke markers fill"
         id="path3747" />
      <path
         d="m 127.89394,148.46745 -1.6782,-13.58394 q -0.095,-0.37997 -0.22165,-0.91826 -0.095,-0.56996 -0.25331,-1.07658 -0.15832,-0.50663 -0.37997,-0.85494 -0.18999,-0.3483 -0.4433,-0.3483 h -4.243 q -0.18999,0 -0.47497,0.25331 -0.25331,0.22165 -0.53829,0.53829 -0.25331,0.28498 -0.47496,0.60162 -0.22165,0.31664 -0.28498,0.50663 l -9.11929,14.56553 v 0.095 q 0,-0.0317 -0.0633,0.22165 h 10.7025 q 0.18999,-0.095 0.56996,-0.60162 0.37997,-0.50662 0.75994,-1.10824 0.41163,-0.60162 0.69661,-1.13991 0.31664,-0.5383 0.37997,-0.72828 l 0.53829,3.57805 z m -10.19587,-4.55964 4.243,-7.12445 0.8866,7.44109 h -5.1296 z"
         style="font-family:'Airstrike Condensed';-inkscape-font-specification:'Airstrike Condensed, Normal';fill:#630063;fill-opacity:1;stroke:#ffffff;stroke-width:5;stroke-linecap:round;stroke-linejoin:round;stroke-miterlimit:4;stroke-dasharray:none;paint-order:stroke markers fill"
         id="path3749" />
      <path
         d="M 130.01537,148.46745 H 134.86 l 3.64138,-12.50736 h 3.0081 q 0.18998,0 0.63328,-0.50662 0.4433,-0.50663 0.91826,-1.20324 0.47497,-0.69662 0.8866,-1.39323 0.41164,-0.72827 0.60162,-1.17157 H 131.8519 q -0.34831,0.28497 -0.85494,0.94992 -0.47496,0.63329 -0.94992,1.3299 -0.47497,0.69661 -0.82327,1.26657 -0.31664,0.56995 -0.34831,0.69661 v 0.0317 h 4.7813 z"
         style="font-family:'Airstrike Condensed';-inkscape-font-specification:'Airstrike Condensed, Normal';fill:#630063;fill-opacity:1;stroke:#ffffff;stroke-width:5;stroke-linecap:round;stroke-linejoin:round;stroke-miterlimit:4;stroke-dasharray:none;paint-order:stroke markers fill"
         id="path3751" />
      <path
         d="m 140.2428,148.46745 h 12.66568 q 0.18998,0 0.63328,-0.50662 0.4433,-0.50663 0.91826,-1.20324 0.47497,-0.69662 0.8866,-1.39323 0.41164,-0.72828 0.60162,-1.17157 h -4.81296 l 2.40648,-8.2327 h 3.0081 q 0.18999,0 0.63328,-0.50662 0.4433,-0.50663 0.91827,-1.20324 0.47496,-0.69662 0.88659,-1.39323 0.41164,-0.72827 0.60162,-1.17157 h -12.69734 q -0.34831,0.28497 -0.85493,0.94992 -0.47497,0.63329 -0.94993,1.3299 -0.47496,0.69661 -0.82327,1.26657 -0.31664,0.56995 -0.34831,0.69661 v 0.0317 h 4.7813 l -2.40648,8.2327 h -3.03976 q -0.34831,0.28497 -0.85494,0.94992 -0.47496,0.63329 -0.94992,1.3299 -0.47497,0.69661 -0.82327,1.26657 -0.34831,0.56995 -0.37997,0.69661 z"
         style="font-family:'Airstrike Condensed';-inkscape-font-specification:'Airstrike Condensed, Normal';fill:#630063;fill-opacity:1;stroke:#ffffff;stroke-width:5;stroke-linecap:round;stroke-linejoin:round;stroke-miterlimit:4;stroke-dasharray:none;paint-order:stroke markers fill"
         id="path3753" />
      <path
         d="m 174.69334,139.37983 q 0.0633,-0.53829 0.095,-1.04492 0.0317,-0.50663 0.0317,-0.98159 0,-3.03976 -1.58321,-4.338 -1.58321,-1.32989 -4.62297,-1.32989 h -3.35641 q -1.3299,0 -2.65979,0.75994 -1.29823,0.75994 -2.37482,2.02651 -1.07658,1.2349 -1.83652,2.88144 -0.72828,1.64654 -0.91826,3.41973 -0.0633,0.4433 -0.095,0.85494 -0.0317,0.41163 -0.0317,0.7916 0,1.7732 0.47496,2.94477 0.50663,1.17158 1.36156,1.86819 0.8866,0.66495 2.05818,0.94993 1.20324,0.28497 2.59646,0.28497 h 2.53314 q 1.51988,0 2.9131,-0.72827 1.39323,-0.72828 2.50148,-1.96318 1.13991,-1.23491 1.89985,-2.88145 0.75994,-1.64653 1.01325,-3.51472 z m -12.47569,0.94992 q 0.0317,-0.25331 0.12665,-0.56995 0.095,-0.34831 0.22165,-0.72828 0.22165,-0.53829 0.60162,-1.07658 0.41164,-0.56996 0.85494,-1.01326 0.47496,-0.44329 0.94992,-0.69661 0.47497,-0.28498 0.85494,-0.28498 h 2.05817 q 0.63328,0 1.01325,0.25332 0.41164,0.22165 0.63329,0.63328 0.22165,0.37997 0.28498,0.8866 0.095,0.50663 0.095,1.01325 0,0.28498 -0.0317,0.56996 0,0.25331 0,0.50663 0,-0.0317 -0.0633,0.28497 l -0.095,0.31665 q -0.0633,0.28497 -0.28497,0.69661 -0.22165,0.53829 -0.69662,1.10825 -0.4433,0.53829 -0.94992,0.98159 -0.50663,0.44329 -0.98159,0.72827 -0.47497,0.25332 -0.72828,0.25332 h -1.64654 q -0.47496,0 -0.8866,-0.31665 -0.37997,-0.31664 -0.69661,-0.82327 -0.31664,-0.50662 -0.50663,-1.10824 -0.15832,-0.63329 -0.15832,-1.20324 v -0.18999 q 0,-0.18998 0.0317,-0.22165 z"
         style="font-family:'Airstrike Condensed';-inkscape-font-specification:'Airstrike Condensed, Normal';fill:#630063;fill-opacity:1;stroke:#ffffff;stroke-width:5;stroke-linecap:round;stroke-linejoin:round;stroke-miterlimit:4;stroke-dasharray:none;paint-order:stroke markers fill"
         id="path3755" />
      <path
         d="m 173.45843,148.46745 h 4.87629 l 2.72312,-9.43593 1.42489,9.43593 h 6.14285 l 4.87629,-16.78202 h -4.81296 l -2.75479,9.43593 -1.45655,-9.43593 h -6.11119 z"
         style="font-family:'Airstrike Condensed';-inkscape-font-specification:'Airstrike Condensed, Normal';fill:#630063;fill-opacity:1;stroke:#ffffff;stroke-width:5;stroke-linecap:round;stroke-linejoin:round;stroke-miterlimit:4;stroke-dasharray:none;paint-order:stroke markers fill"
         id="path3757" />
    </g>
    <g
       aria-label="SIMULATION"
       id="g3879"
       style="font-size:31.6642px;line-height:1.25;font-family:'Rose Of Baltimore';-inkscape-font-specification:'Rose Of Baltimore';fill:#630063;fill-opacity:1;stroke-width:0.329835">
      <path
         d="m 37.777842,143.14787 v -0.18999 q 0,-0.25331 -0.06333,-0.50662 -0.06333,-0.28498 -0.284978,-0.28498 h -5.066272 q -0.759941,0 -1.393225,-0.4433 -0.60162,-0.47496 -1.044918,-1.17158 -0.411635,-0.72827 -0.664949,-1.58321 -0.221649,-0.85493 -0.221649,-1.6782 0,-0.75994 0.348306,-1.70987 0.348306,-0.98159 0.918262,-1.83652 0.569956,-0.8866 1.266568,-1.45655 0.696612,-0.60162 1.424889,-0.60162 H 45.91554 q -0.60162,1.07658 -1.329897,2.15316 -0.728276,1.07659 -1.646538,2.15317 h -8.359349 q -0.284978,0 -0.506627,0.47496 -0.189985,0.47496 -0.189985,0.75994 v 0.15832 q 0,0.0317 0.09499,0.15832 0.09499,0.095 0.158321,0.15833 0.09499,0.12665 0.284978,0.25331 0.189985,0.095 0.221649,0.095 h 4.812959 q 0.791605,0 1.36156,0.50663 0.60162,0.47496 0.981591,1.2349 0.37997,0.72828 0.538291,1.58321 0.189985,0.85494 0.189985,1.58321 v 0.18999 q 0,0.82327 -0.316642,1.77319 -0.284978,0.91826 -0.791605,1.70987 -0.506627,0.7916 -1.139911,1.3299 -0.633284,0.50662 -1.329896,0.50662 h -12.91899 q 0.126657,-0.31664 0.506627,-1.01325 0.411635,-0.69661 0.854934,-1.39323 0.443298,-0.72827 0.791605,-1.26656 0.37997,-0.56996 0.474963,-0.56996 h 8.612662 q 0.37997,0 0.443299,-0.28498 0.06333,-0.28498 0.06333,-0.60162 z"
         style="font-family:'Airstrike Condensed';-inkscape-font-specification:'Airstrike Condensed, Normal';fill:#630063;fill-opacity:1"
         id="path3859" />
      <path
         d="m 41.989126,148.46745 h 12.66568 q 0.189985,0 0.633284,-0.50662 0.443299,-0.50663 0.918262,-1.20324 0.474963,-0.69662 0.886597,-1.39323 0.411635,-0.72828 0.60162,-1.17157 h -4.812958 l 2.406479,-8.2327 h 3.008099 q 0.189985,0 0.633284,-0.50662 0.443299,-0.50663 0.918262,-1.20324 0.474963,-0.69662 0.886597,-1.39323 0.411635,-0.72827 0.60162,-1.17157 H 48.638608 q -0.348306,0.28497 -0.854933,0.94992 -0.474963,0.63329 -0.949926,1.3299 -0.474963,0.69661 -0.82327,1.26657 -0.316642,0.56995 -0.348306,0.69661 v 0.0317 h 4.781294 l -2.406479,8.2327 h -3.039763 q -0.348306,0.28497 -0.854933,0.94992 -0.474963,0.63329 -0.949926,1.3299 -0.474963,0.69661 -0.82327,1.26657 -0.348306,0.56995 -0.37997,0.69661 z"
         style="font-family:'Airstrike Condensed';-inkscape-font-specification:'Airstrike Condensed, Normal';fill:#630063;fill-opacity:1"
         id="path3861" />
      <path
         d="m 77.484635,148.46745 4.907951,-16.78202 h -6.142855 l -6.206183,8.42267 -1.298232,-8.42267 h -6.111191 l -4.907951,16.78202 h 4.876287 l 2.723121,-9.43593 1.393225,9.43593 h 1.773195 l 6.871132,-9.43593 -2.723121,9.43593 z"
         style="font-family:'Airstrike Condensed';-inkscape-font-specification:'Airstrike Condensed, Normal';fill:#630063;fill-opacity:1"
         id="path3863" />
      <path
         d="m 81.822592,138.71488 1.994845,-7.02945 h 4.781294 q -0.886598,3.22975 -1.361561,5.0346 -0.474963,1.7732 -0.728276,2.6598 -0.22165,0.8866 -0.284978,1.13991 -0.03166,0.22165 -0.03166,0.31664 -0.06333,0.28498 -0.09499,0.53829 -0.03166,0.25332 -0.03166,0.47497 0,1.10824 0.411635,1.74153 0.443298,0.60162 1.171575,0.60162 h 1.234904 q 0.60162,0 1.108247,-0.31665 0.538291,-0.31664 0.918262,-0.7916 0.411634,-0.47496 0.696612,-1.01326 0.316642,-0.53829 0.506627,-0.98159 l 2.754786,-9.40426 h 4.812958 l -2.279822,7.82105 q -0.633284,2.18483 -1.298233,3.86304 -0.633284,1.64654 -1.488217,2.78645 -0.823269,1.13991 -1.931516,1.74153 -1.108247,0.56995 -2.628129,0.56995 h -2.94477 q -1.773196,0 -2.976435,-0.25331 -1.171576,-0.25331 -1.899852,-0.79161 -0.696613,-0.56995 -1.013255,-1.45655 -0.284977,-0.8866 -0.284977,-2.15316 0,-0.34831 0.03166,-0.72828 0.03166,-0.37997 0.09499,-0.82327 0.158321,-0.82327 0.316642,-1.64654 0.189986,-0.82327 0.443299,-1.89985 z"
         style="font-family:'Airstrike Condensed';-inkscape-font-specification:'Airstrike Condensed, Normal';fill:#630063;fill-opacity:1"
         id="path3865" />
      <path
         d="m 96.198121,148.46745 4.907949,-16.78202 h 4.84462 l -3.67304,12.50736 h 8.0427 q 0.0317,0 -0.31664,0.53829 -0.31664,0.53829 -0.7916,1.26657 -0.47497,0.69661 -1.01326,1.42488 -0.50662,0.69662 -0.85493,1.04492 z"
         style="font-family:'Airstrike Condensed';-inkscape-font-specification:'Airstrike Condensed, Normal';fill:#630063;fill-opacity:1"
         id="path3867" />
      <path
         d="m 127.89394,148.46745 -1.6782,-13.58394 q -0.095,-0.37997 -0.22165,-0.91826 -0.095,-0.56996 -0.25331,-1.07658 -0.15832,-0.50663 -0.37997,-0.85494 -0.18999,-0.3483 -0.4433,-0.3483 h -4.243 q -0.18999,0 -0.47497,0.25331 -0.25331,0.22165 -0.53829,0.53829 -0.25331,0.28498 -0.47496,0.60162 -0.22165,0.31664 -0.28498,0.50663 l -9.11929,14.56553 v 0.095 q 0,-0.0317 -0.0633,0.22165 h 10.7025 q 0.18999,-0.095 0.56996,-0.60162 0.37997,-0.50662 0.75994,-1.10824 0.41163,-0.60162 0.69661,-1.13991 0.31664,-0.5383 0.37997,-0.72828 l 0.53829,3.57805 z m -10.19587,-4.55964 4.243,-7.12445 0.8866,7.44109 h -5.1296 z"
         style="font-family:'Airstrike Condensed';-inkscape-font-specification:'Airstrike Condensed, Normal';fill:#630063;fill-opacity:1"
         id="path3869" />
      <path
         d="M 130.01537,148.46745 H 134.86 l 3.64138,-12.50736 h 3.0081 q 0.18998,0 0.63328,-0.50662 0.4433,-0.50663 0.91826,-1.20324 0.47497,-0.69662 0.8866,-1.39323 0.41164,-0.72827 0.60162,-1.17157 H 131.8519 q -0.34831,0.28497 -0.85494,0.94992 -0.47496,0.63329 -0.94992,1.3299 -0.47497,0.69661 -0.82327,1.26657 -0.31664,0.56995 -0.34831,0.69661 v 0.0317 h 4.7813 z"
         style="font-family:'Airstrike Condensed';-inkscape-font-specification:'Airstrike Condensed, Normal';fill:#630063;fill-opacity:1"
         id="path3871" />
      <path
         d="m 140.2428,148.46745 h 12.66568 q 0.18998,0 0.63328,-0.50662 0.4433,-0.50663 0.91826,-1.20324 0.47497,-0.69662 0.8866,-1.39323 0.41164,-0.72828 0.60162,-1.17157 h -4.81296 l 2.40648,-8.2327 h 3.0081 q 0.18999,0 0.63328,-0.50662 0.4433,-0.50663 0.91827,-1.20324 0.47496,-0.69662 0.88659,-1.39323 0.41164,-0.72827 0.60162,-1.17157 h -12.69734 q -0.34831,0.28497 -0.85493,0.94992 -0.47497,0.63329 -0.94993,1.3299 -0.47496,0.69661 -0.82327,1.26657 -0.31664,0.56995 -0.34831,0.69661 v 0.0317 h 4.7813 l -2.40648,8.2327 h -3.03976 q -0.34831,0.28497 -0.85494,0.94992 -0.47496,0.63329 -0.94992,1.3299 -0.47497,0.69661 -0.82327,1.26657 -0.34831,0.56995 -0.37997,0.69661 z"
         style="font-family:'Airstrike Condensed';-inkscape-font-specification:'Airstrike Condensed, Normal';fill:#630063;fill-opacity:1"
         id="path3873" />
      <path
         d="m 174.69334,139.37983 q 0.0633,-0.53829 0.095,-1.04492 0.0317,-0.50663 0.0317,-0.98159 0,-3.03976 -1.58321,-4.338 -1.58321,-1.32989 -4.62297,-1.32989 h -3.35641 q -1.3299,0 -2.65979,0.75994 -1.29823,0.75994 -2.37482,2.02651 -1.07658,1.2349 -1.83652,2.88144 -0.72828,1.64654 -0.91826,3.41973 -0.0633,0.4433 -0.095,0.85494 -0.0317,0.41163 -0.0317,0.7916 0,1.7732 0.47496,2.94477 0.50663,1.17158 1.36156,1.86819 0.8866,0.66495 2.05818,0.94993 1.20324,0.28497 2.59646,0.28497 h 2.53314 q 1.51988,0 2.9131,-0.72827 1.39323,-0.72828 2.50148,-1.96318 1.13991,-1.23491 1.89985,-2.88145 0.75994,-1.64653 1.01325,-3.51472 z m -12.47569,0.94992 q 0.0317,-0.25331 0.12665,-0.56995 0.095,-0.34831 0.22165,-0.72828 0.22165,-0.53829 0.60162,-1.07658 0.41164,-0.56996 0.85494,-1.01326 0.47496,-0.44329 0.94992,-0.69661 0.47497,-0.28498 0.85494,-0.28498 h 2.05817 q 0.63328,0 1.01325,0.25332 0.41164,0.22165 0.63329,0.63328 0.22165,0.37997 0.28498,0.8866 0.095,0.50663 0.095,1.01325 0,0.28498 -0.0317,0.56996 0,0.25331 0,0.50663 0,-0.0317 -0.0633,0.28497 l -0.095,0.31665 q -0.0633,0.28497 -0.28497,0.69661 -0.22165,0.53829 -0.69662,1.10825 -0.4433,0.53829 -0.94992,0.98159 -0.50663,0.44329 -0.98159,0.72827 -0.47497,0.25332 -0.72828,0.25332 h -1.64654 q -0.47496,0 -0.8866,-0.31665 -0.37997,-0.31664 -0.69661,-0.82327 -0.31664,-0.50662 -0.50663,-1.10824 -0.15832,-0.63329 -0.15832,-1.20324 v -0.18999 q 0,-0.18998 0.0317,-0.22165 z"
         style="font-family:'Airstrike Condensed';-inkscape-font-specification:'Airstrike Condensed, Normal';fill:#630063;fill-opacity:1"
         id="path3875" />
      <path
         d="m 173.45843,148.46745 h 4.87629 l 2.72312,-9.43593 1.42489,9.43593 h 6.14285 l 4.87629,-16.78202 h -4.81296 l -2.75479,9.43593 -1.45655,-9.43593 h -6.11119 z"
         style="font-family:'Airstrike Condensed';-inkscape-font-specification:'Airstrike Condensed, Normal';fill:#630063;fill-opacity:1"
         id="path3877" />
    </g>
  </g>
</svg>
