<?xml version="1.0" encoding="UTF-8" standalone="no"?>
<svg
   width="229.42999"
   height="114"
   viewBox="0 0 229.42999 114"
   version="1.1"
   id="svg127"
   sodipodi:docname="bbcmicro.svg"
   inkscape:version="1.1 (c68e22c387, 2021-05-23)"
   xmlns:inkscape="http://www.inkscape.org/namespaces/inkscape"
   xmlns:sodipodi="http://sodipodi.sourceforge.net/DTD/sodipodi-0.dtd"
   xmlns="http://www.w3.org/2000/svg"
   xmlns:svg="http://www.w3.org/2000/svg">
  <defs
     id="defs131" />
  <sodipodi:namedview
     id="namedview129"
     pagecolor="#ffffff"
     bordercolor="#666666"
     borderopacity="1.0"
     inkscape:pageshadow="2"
     inkscape:pageopacity="0.0"
     inkscape:pagecheckerboard="0"
     showgrid="false"
     fit-margin-top="0"
     fit-margin-left="0"
     fit-margin-right="0"
     fit-margin-bottom="0"
     inkscape:zoom="1.113"
     inkscape:cx="114.55526"
     inkscape:cy="56.603774"
     inkscape:window-width="1920"
     inkscape:window-height="1138"
     inkscape:window-x="-8"
     inkscape:window-y="-8"
     inkscape:window-maximized="1"
     inkscape:current-layer="svg127" />
  <g
     id="Layer_2"
     data-name="Layer 2"
     transform="translate(-385.27)">
    <rect
       x="489.03"
       y="51.560001"
       width="90.540001"
       height="30.24"
       fill="#ffffff"
       id="rect2" />
  </g>
  <g
     id="svg208"
     transform="translate(-385.27)">
    <path
       d="M 476.9,7 V 107 H 392.27 V 7 h 84.63 m 0,-7 h -84.63 a 7,7 0 0 0 -7,7 v 100 a 7,7 0 0 0 7,7 h 84.63 a 7,7 0 0 0 7,-7 V 7 a 7,7 0 0 0 -7,-7 z"
       fill="#ffffff"
       id="path5" />
    <path
       d="m 506.1,19 q 15.55,0 15.55,10.55 0,8.15 -8,10.78 v 0.55 a 14.63,14.63 0 0 1 7.41,3.46 q 3.17,2.78 3.16,8.23 0,14.6 -22.86,14.59 -4,0 -12.36,-0.22 0.45,-11.07 0.46,-25 0,-13.33 -0.46,-22.76 h 5.69 c 1.08,0 2.89,0 5.42,-0.11 2.53,-0.11 4.53,-0.11 6,-0.11 m -5,20.23 q 11.1,0 11.1,-6.78 v 0 q 0,-6.55 -7.87,-6.56 a 33.33,33.33 0 0 0 -6.42,0.55 q 0.38,3.7 0.38,12.72 c 0.89,0.05 1.83,0.07 2.81,0.07 m 1.13,21 q 6.5,0 9.51,-1.63 c 2,-1.09 3,-3 3,-5.66 q 0,-7.3 -12.25,-7.3 a 41.66,41.66 0 0 0 -4.18,0.18 q 0,7.66 0.31,14.11 a 15.89,15.89 0 0 0 3.59,0.3 M 506.1,12 c -1.47,0 -3.48,0 -6.15,0.11 -2.47,0.07 -4.22,0.11 -5.23,0.11 H 489 a 7,7 0 0 0 -7,7.34 c 0.3,6.13 0.45,13.67 0.45,22.42 0,9.09 -0.15,17.39 -0.45,24.67 a 7,7 0 0 0 6.81,7.29 c 5.61,0.14 9.83,0.22 12.54,0.22 26,0 29.86,-13.53 29.86,-21.59 0,-6.81 -2.74,-10.89 -5.19,-13.18 a 18.48,18.48 0 0 0 2.59,-9.84 C 528.61,24.28 526.42,12 506.06,12 Z m -0.68,41.13 v -0.3 c 0.41,0 0.76,0.11 1.07,0.17 l -1.06,0.13 z"
       fill="#ffffff"
       id="path7" />
    <path
       d="m 549.08,19 q 15.55,0 15.56,10.55 0,8.15 -8,10.78 v 0.55 a 14.63,14.63 0 0 1 7.41,3.46 q 3.17,2.78 3.16,8.23 v 0 q 0,14.6 -22.86,14.59 -4,0 -12.36,-0.22 0.45,-11.07 0.45,-25 0,-13.33 -0.45,-22.76 h 5.69 c 1.07,0 2.88,0 5.42,-0.11 2.54,-0.11 4.53,-0.11 6,-0.11 m -5,20.23 q 11.08,0 11.09,-6.78 0,-6.55 -7.86,-6.56 a 33.44,33.44 0 0 0 -6.43,0.55 q 0.39,3.7 0.39,12.72 c 0.89,0.05 1.82,0.07 2.81,0.07 m 1.12,21 q 6.49,0 9.52,-1.63 3.03,-1.63 3,-5.66 0,-7.3 -12.26,-7.3 a 41.8,41.8 0 0 0 -4.18,0.18 q 0,7.66 0.32,14.11 a 15.79,15.79 0 0 0 3.58,0.3 M 549.08,12 c -1.46,0 -3.48,0 -6.15,0.11 -2.46,0.07 -4.22,0.11 -5.22,0.11 H 532 a 7,7 0 0 0 -7,7.34 c 0.29,6.14 0.44,13.68 0.44,22.42 0,9.12 -0.15,17.42 -0.45,24.67 a 7,7 0 0 0 6.81,7.29 c 5.61,0.14 9.83,0.22 12.55,0.22 26,0 29.86,-13.53 29.86,-21.59 0,-6.81 -2.75,-10.89 -5.2,-13.18 a 18.4,18.4 0 0 0 2.6,-9.84 C 571.61,24.28 569.41,12 549.05,12 Z m -0.68,41.13 v -0.3 c 0.41,0 0.76,0.11 1.07,0.17 z"
       fill="#ffffff"
       id="path9" />
    <path
       d="m 597.69,18.55 a 31.4,31.4 0 0 1 8.11,1 L 604.57,28 a 24.85,24.85 0 0 0 -7.94,-1.39 q -7.12,0 -10.6,4.71 a 18.74,18.74 0 0 0 -3.48,11.45 18.26,18.26 0 0 0 4.13,11.95 q 4.13,5.06 11.57,5.06 a 32.49,32.49 0 0 0 9.48,-1.58 l -0.6,8.43 a 40.45,40.45 0 0 1 -9.83,1.25 q -12,0 -18.35,-7 A 24.21,24.21 0 0 1 572.65,44 26.3,26.3 0 0 1 579.34,26.08 q 6.69,-7.62 18.35,-7.62 m 10,39.69 v 0 m -10,-46.69 c -9.84,0 -17.79,3.36 -23.61,10 a 33.22,33.22 0 0 0 -8.43,22.54 31.13,31.13 0 0 0 8.12,21.59 c 5.56,6.13 13.48,9.24 23.53,9.24 a 47.51,47.51 0 0 0 11.53,-1.46 7,7 0 0 0 5.28,-6.29 l 0.59,-8.23 c 0,-0.23 0,-0.46 0,-0.7 a 7,7 0 0 0 -6.91,-7 h -0.36 a 6.52,6.52 0 0 0 -1.93,0.35 25.5,25.5 0 0 1 -7.28,1.22 c -3.65,0 -5.21,-1.33 -6.15,-2.49 a 11.26,11.26 0 0 1 -2.55,-7.52 11.82,11.82 0 0 1 2.11,-7.29 c 0.41,-0.56 1.38,-1.87 5,-1.87 a 17.85,17.85 0 0 1 5.71,1 7.13,7.13 0 0 0 2.23,0.36 7,7 0 0 0 6.93,-6 l 1.23,-8.47 a 7,7 0 0 0 -5.12,-7.77 38.31,38.31 0 0 0 -9.92,-1.26 z"
       fill="#ffffff"
       id="path11" />
    <path
       d="m 510.12,74.17 v 17.21 h -2.57 V 75.86 a 0.23,0.23 0 0 0 -0.22,-0.22 0.33,0.33 0 0 0 -0.31,0.17 l -5.46,15.57 H 499 l -5.52,-15.71 a 0.22,0.22 0 0 0 -0.22,-0.14 0.26,0.26 0 0 0 -0.27,0.23 v 15.62 h -2.58 V 74.17 h 4.75 L 500,87.53 a 0.31,0.31 0 0 0 0.28,0.22 0.35,0.35 0 0 0 0.37,-0.24 l 4.71,-13.34 h 4.81 m 0,-7 h -4.81 a 7,7 0 0 0 -5.1,2.2 7,7 0 0 0 -5.09,-2.2 h -4.75 a 7,7 0 0 0 -7,7 v 17.21 a 7,7 0 0 0 7,7 H 493 a 6.88,6.88 0 0 0 3,-0.68 7,7 0 0 0 3,0.68 h 2.6 a 7,7 0 0 0 3,-0.67 7,7 0 0 0 3,0.67 h 2.57 a 7,7 0 0 0 7,-7 V 74.17 a 7,7 0 0 0 -7,-7 z"
       fill="#ffffff"
       id="path13" />
    <path
       d="m 523.63,74.17 v 1.57 h -2 v 14.12 h 2 v 1.52 h -7.16 v -1.52 h 1.92 V 75.74 h -1.92 v -1.57 h 7.16 m 0,-7 h -7.16 a 7,7 0 0 0 -7,7 v 1.57 a 7,7 0 0 0 1.92,4.82 V 85 a 7,7 0 0 0 -1.92,4.82 v 1.52 a 7,7 0 0 0 7,7 h 7.16 a 7,7 0 0 0 7,-7 v -1.48 a 7,7 0 0 0 -2,-4.92 v -4.29 a 7,7 0 0 0 2,-4.91 v -1.57 a 7,7 0 0 0 -7,-7 z"
       fill="#ffffff"
       id="path15" />
    <path
       d="m 535.78,74 a 7.92,7.92 0 0 1 4.74,1.4 5.11,5.11 0 0 1 2,3.38 l -3,0.43 a 3.48,3.48 0 0 0 -3.74,-3.21 3.91,3.91 0 0 0 -3.72,2.25 10.76,10.76 0 0 0 -0.93,4.13 c 0,3.77 0.9,7.45 4.65,7.45 a 3.78,3.78 0 0 0 3,-1.31 4.55,4.55 0 0 0 0.81,-2.34 l 3.1,0.42 a 5.49,5.49 0 0 1 -2.14,3.87 8.18,8.18 0 0 1 -5,1.47 c -1.86,0 -7.47,-0.72 -7.47,-9 0,-4 1.33,-9 7.75,-9 m 0,-7 c -9,0 -14.75,6.27 -14.75,16 0,11.06 7.27,16 14.47,16 a 15,15 0 0 0 9.27,-2.89 12.49,12.49 0 0 0 4.89,-8.81 7,7 0 0 0 -1.26,-4.68 7,7 0 0 0 1,-5.12 12,12 0 0 0 -4.62,-7.62 14.93,14.93 0 0 0 -9,-2.86 z"
       fill="#ffffff"
       id="path17" />
    <path
       d="m 555.74,74.17 c 6.35,0 7.71,2.91 7.71,4.67 0,3.23 -2.82,4.1 -4.86,4.59 l 5.95,7.95 h -3.72 l -5.39,-7.64 h -3.51 v 7.64 h -3.19 V 74.17 h 7 m -2.4,7.73 a 27.44,27.44 0 0 0 3.7,-0.18 c 1.24,-0.21 3.19,-0.7 3.19,-2.63 0,-1.93 -1.8,-2.91 -5.21,-2.91 h -3.13 v 5.7 h 1.45 m 2.4,-14.73 h -7 a 7,7 0 0 0 -7,7 v 17.23 a 7,7 0 0 0 7,7 h 3.19 a 7,7 0 0 0 4.45,-1.59 7.06,7.06 0 0 0 4.45,1.59 h 3.72 a 7,7 0 0 0 5.6,-11.19 l -1.55,-2.08 a 11,11 0 0 0 1.86,-6.27 c 0,-4.34 -3.1,-11.67 -14.71,-11.67 z m 0.35,16.08 z"
       fill="#ffffff"
       id="path19" />
    <path
       d="m 575.17,73.91 a 7,7 0 0 1 6.83,4.18 12.68,12.68 0 0 1 0.86,4.73 c 0,4.11 -1.52,9.08 -7.65,9.08 -5.58,0 -7.69,-4.25 -7.69,-8.84 a 10.39,10.39 0 0 1 1.86,-6.59 7,7 0 0 1 5.83,-2.56 v 0 m -0.06,15.85 c 3.22,0 4.46,-2.51 4.46,-6.87 0,-2.27 -0.28,-6.92 -4.34,-6.92 a 3.86,3.86 0 0 0 -3.81,2.65 11.71,11.71 0 0 0 -0.68,4.36 c 0,2.19 0.4,6.78 4.37,6.78 m 0.06,-22.85 v 0 A 13.85,13.85 0 0 0 563.94,72 c -2.26,2.72 -3.46,6.55 -3.46,11 0,9.47 5.9,15.84 14.69,15.84 8.79,0 14.65,-6.46 14.65,-16.08 a 19.65,19.65 0 0 0 -1.48,-7.6 14,14 0 0 0 -13.17,-8.31 z"
       fill="#ffffff"
       id="path21" />
    <path
       id="path2"
       d="M 392.27,7 H 476.9 V 107 H 392.27 Z"
       fill="#1f0200" />
    <g
       id="g10">
      <path
         id="path4"
         d="m 524.25,52.56 q 0,14.6 -22.86,14.59 -4,0 -12.36,-0.22 0.45,-11.07 0.46,-25 0,-13.33 -0.46,-22.76 h 5.69 c 1.08,0 2.89,0 5.43,-0.11 2.54,-0.11 4.52,-0.11 6,-0.11 q 15.55,0 15.55,10.55 0,8.15 -8,10.78 v 0.55 a 14.63,14.63 0 0 1 7.41,3.46 q 3.15,2.82 3.14,8.27 z m -12,-20.12 q 0,-6.55 -7.87,-6.56 a 33.33,33.33 0 0 0 -6.42,0.55 q 0.38,3.7 0.38,12.72 c 0.89,0.05 1.83,0.07 2.81,0.07 q 11.1,0 11.1,-6.78 z M 514.77,53 q 0,-7.3 -12.25,-7.3 a 41.66,41.66 0 0 0 -4.18,0.18 q 0,7.66 0.31,14.11 a 15.89,15.89 0 0 0 3.59,0.3 q 6.5,0 9.51,-1.63 c 2.02,-1.12 3.02,-3.01 3.02,-5.66 z" />
      <path
         id="path6"
         d="m 567.24,52.56 q 0,14.6 -22.86,14.59 -4,0 -12.36,-0.22 0.45,-11.07 0.45,-25 0,-13.33 -0.45,-22.76 h 5.69 c 1.07,0 2.88,0 5.42,-0.11 2.54,-0.11 4.53,-0.11 6,-0.11 q 15.55,0 15.56,10.55 0,8.15 -8,10.78 v 0.55 a 14.63,14.63 0 0 1 7.41,3.46 q 3.17,2.78 3.16,8.23 z m -12,-20.12 q 0,-6.55 -7.86,-6.56 a 33.37,33.37 0 0 0 -6.43,0.55 q 0.39,3.7 0.39,12.72 c 0.89,0.05 1.82,0.07 2.81,0.07 q 11.03,0 11.04,-6.78 z M 557.76,53 q 0,-7.3 -12.26,-7.3 a 41.8,41.8 0 0 0 -4.18,0.18 q 0,7.66 0.32,14.11 a 15.79,15.79 0 0 0 3.58,0.3 q 6.49,0 9.52,-1.63 3.03,-1.63 3.02,-5.66 z" />
      <path
         id="path8"
         d="m 607.73,58.24 -0.6,8.43 a 40.45,40.45 0 0 1 -9.83,1.25 q -12,0 -18.35,-7 a 24.21,24.21 0 0 1 -6.3,-16.88 26.3,26.3 0 0 1 6.69,-17.92 q 6.69,-7.62 18.35,-7.62 a 31.4,31.4 0 0 1 8.11,1 l -1.23,8.5 a 24.85,24.85 0 0 0 -7.94,-1.39 q -7.12,0 -10.6,4.71 a 18.74,18.74 0 0 0 -3.48,11.45 18.26,18.26 0 0 0 4.13,11.95 q 4.13,5.06 11.57,5.06 a 32.49,32.49 0 0 0 9.48,-1.58 z" />
    </g>
    <g
       id="g22">
      <path
         id="path12"
         d="m 499,91.38 -5.52,-15.71 a 0.22,0.22 0 0 0 -0.22,-0.14 0.26,0.26 0 0 0 -0.27,0.23 v 15.62 h -2.58 V 74.17 h 4.75 L 500,87.53 a 0.31,0.31 0 0 0 0.28,0.22 0.35,0.35 0 0 0 0.37,-0.24 l 4.71,-13.34 h 4.81 V 91.38 H 507.6 V 75.86 a 0.23,0.23 0 0 0 -0.22,-0.22 0.33,0.33 0 0 0 -0.31,0.17 l -5.46,15.57 z" />
      <path
         id="path14"
         d="m 516.47,89.86 h 1.92 V 75.74 h -1.92 v -1.57 h 7.16 v 1.57 h -2 v 14.12 h 2 v 1.52 h -7.16 z" />
      <path
         id="path16"
         d="m 539.56,79.17 a 3.48,3.48 0 0 0 -3.78,-3.17 3.91,3.91 0 0 0 -3.72,2.25 10.76,10.76 0 0 0 -0.93,4.13 c 0,3.77 0.9,7.45 4.65,7.45 a 3.78,3.78 0 0 0 3,-1.31 4.55,4.55 0 0 0 0.81,-2.34 l 3.1,0.42 a 5.49,5.49 0 0 1 -2.14,3.87 8.18,8.18 0 0 1 -5,1.47 c -1.86,0 -7.47,-0.72 -7.47,-9 0,-4 1.33,-9 7.75,-9 a 7.92,7.92 0 0 1 4.74,1.4 5.11,5.11 0 0 1 2,3.38 z" />
      <path
         id="path18"
         d="m 548.73,74.17 h 7 c 6.35,0 7.71,2.91 7.71,4.67 0,3.23 -2.82,4.1 -4.86,4.59 l 5.95,7.95 h -3.72 l -5.39,-7.64 h -3.51 v 7.64 h -3.19 z m 3.16,2 v 5.69 a 37.1,37.1 0 0 0 5.15,-0.16 c 1.24,-0.21 3.19,-0.7 3.19,-2.63 0,-1.93 -1.8,-2.91 -5.21,-2.91 h -3.13 z" />
      <path
         id="path20"
         d="m 582,78.09 a 12.68,12.68 0 0 1 0.86,4.73 c 0,4.11 -1.52,9.08 -7.65,9.08 -5.58,0 -7.69,-4.25 -7.69,-8.84 a 10.39,10.39 0 0 1 1.86,-6.59 7.74,7.74 0 0 1 12.62,1.62 z M 575.23,76 a 3.86,3.86 0 0 0 -3.81,2.65 11.71,11.71 0 0 0 -0.68,4.36 c 0,2.19 0.4,6.78 4.37,6.78 3.22,0 4.46,-2.51 4.46,-6.87 0,-2.3 -0.28,-6.92 -4.34,-6.92 z" />
    </g>
    <g
       id="g206">
      <circle
         id="circle24"
         cx="401.17001"
         cy="14.96"
         r="3.22"
         fill="#f9f8e1" />
      <circle
         id="circle26"
         cx="409.67001"
         cy="14.96"
         r="3.22"
         fill="#f9f8e1" />
      <circle
         id="circle28"
         cx="418.17001"
         cy="14.96"
         r="3.22"
         fill="#f9f8e1" />
      <circle
         id="circle30"
         cx="426.66"
         cy="14.96"
         r="3.22"
         fill="#f9f8e1" />
      <circle
         id="circle32"
         cx="435.16"
         cy="14.96"
         r="3.22"
         fill="#f9f8e1" />
      <circle
         id="circle34"
         cx="443.64999"
         cy="14.96"
         r="3.22"
         fill="#f9f8e1" />
      <circle
         id="circle36"
         cx="452.14999"
         cy="14.96"
         r="3.22"
         fill="#f9f8e1" />
      <circle
         id="circle38"
         cx="460.64001"
         cy="14.96"
         r="3.22"
         fill="#f9f8e1" />
      <circle
         id="circle40"
         cx="469.14001"
         cy="14.96"
         r="3.22"
         fill="#f9f8e1" />
      <circle
         id="circle42"
         cx="405.37"
         cy="19.82"
         r="3.22"
         fill="#f9f8e1" />
      <circle
         id="circle44"
         cx="430.85001"
         cy="19.82"
         r="3.22"
         fill="#f9f8e1" />
      <circle
         id="circle46"
         cx="439.35001"
         cy="19.82"
         r="3.22"
         fill="#f9f8e1" />
      <circle
         id="circle48"
         cx="464.84"
         cy="19.82"
         r="3.22"
         fill="#f9f8e1" />
      <circle
         id="circle50"
         cx="401.17001"
         cy="24.540001"
         r="3.22"
         fill="#f9f8e1" />
      <circle
         id="circle52"
         cx="418.17001"
         cy="24.540001"
         r="3.22"
         fill="#f9f8e1" />
      <circle
         id="circle54"
         cx="435.16"
         cy="24.540001"
         r="3.22"
         fill="#f9f8e1" />
      <circle
         id="circle56"
         cx="452.14999"
         cy="24.540001"
         r="3.22"
         fill="#f9f8e1" />
      <circle
         id="circle58"
         cx="469.14001"
         cy="24.540001"
         r="3.22"
         fill="#f9f8e1" />
      <circle
         id="circle60"
         cx="413.85999"
         cy="29.41"
         r="3.22"
         fill="#f9f8e1" />
      <circle
         id="circle62"
         cx="422.35999"
         cy="29.41"
         r="3.22"
         fill="#f9f8e1" />
      <circle
         id="circle64"
         cx="447.84"
         cy="29.41"
         r="3.22"
         fill="#f9f8e1" />
      <circle
         id="circle66"
         cx="456.34"
         cy="29.41"
         r="3.22"
         fill="#f9f8e1" />
      <circle
         id="circle68"
         cx="401.17001"
         cy="33.900002"
         r="3.22"
         fill="#f9f8e1" />
      <circle
         id="circle70"
         cx="418.17001"
         cy="33.900002"
         r="3.22"
         fill="#f9f8e1" />
      <circle
         id="circle72"
         cx="452.14999"
         cy="33.900002"
         r="3.22"
         fill="#f9f8e1" />
      <circle
         id="circle74"
         cx="469.14001"
         cy="33.900002"
         r="3.22"
         fill="#f9f8e1" />
      <circle
         id="circle76"
         cx="405.37"
         cy="38.759998"
         r="3.22"
         fill="#f9f8e1" />
      <circle
         id="circle78"
         cx="430.85001"
         cy="38.759998"
         r="3.22"
         fill="#f9f8e1" />
      <circle
         id="circle80"
         cx="439.35001"
         cy="38.759998"
         r="3.22"
         fill="#f9f8e1" />
      <circle
         id="circle82"
         cx="464.84"
         cy="38.759998"
         r="3.22"
         fill="#f9f8e1" />
      <circle
         id="circle84"
         cx="401.17001"
         cy="43.48"
         r="3.22"
         fill="#f9f8e1" />
      <circle
         id="circle86"
         cx="409.67001"
         cy="43.48"
         r="3.22"
         fill="#f9f8e1" />
      <circle
         id="circle88"
         cx="435.16"
         cy="43.48"
         r="3.22"
         fill="#f9f8e1" />
      <circle
         id="circle90"
         cx="460.64001"
         cy="43.48"
         r="3.22"
         fill="#f9f8e1" />
      <circle
         id="circle92"
         cx="469.14001"
         cy="43.48"
         r="3.22"
         fill="#f9f8e1" />
      <circle
         id="circle94"
         cx="405.37"
         cy="48.34"
         r="3.22"
         fill="#f9f8e1" />
      <circle
         id="circle96"
         cx="413.85999"
         cy="48.34"
         r="3.22"
         fill="#f9f8e1" />
      <circle
         id="circle98"
         cx="422.35999"
         cy="48.34"
         r="3.22"
         fill="#f9f8e1" />
      <circle
         id="circle100"
         cx="430.85001"
         cy="48.34"
         r="3.22"
         fill="#f9f8e1" />
      <circle
         id="circle102"
         cx="439.35001"
         cy="48.34"
         r="3.22"
         fill="#f9f8e1" />
      <circle
         id="circle104"
         cx="447.84"
         cy="48.34"
         r="3.22"
         fill="#f9f8e1" />
      <circle
         id="circle106"
         cx="456.34"
         cy="48.34"
         r="3.22"
         fill="#f9f8e1" />
      <circle
         id="circle108"
         cx="401.17001"
         cy="53.279999"
         r="3.22"
         fill="#f9f8e1" />
      <circle
         id="circle110"
         cx="409.67001"
         cy="53.279999"
         r="3.22"
         fill="#f9f8e1" />
      <circle
         id="circle112"
         cx="418.17001"
         cy="53.279999"
         r="3.22"
         fill="#f9f8e1" />
      <circle
         id="circle114"
         cx="426.66"
         cy="53.279999"
         r="3.22"
         fill="#f9f8e1" />
      <circle
         id="circle116"
         cx="435.16"
         cy="53.279999"
         r="3.22"
         fill="#f9f8e1" />
      <circle
         id="circle118"
         cx="469.14001"
         cy="53.279999"
         r="3.22"
         fill="#f9f8e1" />
      <circle
         id="circle120"
         cx="405.37"
         cy="58.150002"
         r="3.22"
         fill="#f9f8e1" />
      <circle
         id="circle122"
         cx="413.85999"
         cy="58.150002"
         r="3.22"
         fill="#f9f8e1" />
      <circle
         id="circle124"
         cx="422.35999"
         cy="58.150002"
         r="3.22"
         fill="#f9f8e1" />
      <circle
         id="circle126"
         cx="430.85001"
         cy="58.150002"
         r="3.22"
         fill="#f9f8e1" />
      <circle
         id="circle128"
         cx="439.35001"
         cy="58.150002"
         r="3.22"
         fill="#f9f8e1" />
      <circle
         id="circle130"
         cx="409.67001"
         cy="62.860001"
         r="3.22"
         fill="#f9f8e1" />
      <circle
         id="circle132"
         cx="418.17001"
         cy="62.860001"
         r="3.22"
         fill="#f9f8e1" />
      <circle
         id="circle134"
         cx="426.66"
         cy="62.860001"
         r="3.22"
         fill="#f9f8e1" />
      <circle
         id="circle136"
         cx="435.16"
         cy="62.860001"
         r="3.22"
         fill="#f9f8e1" />
      <circle
         id="circle138"
         cx="469.14001"
         cy="62.860001"
         r="3.22"
         fill="#f9f8e1" />
      <circle
         id="circle140"
         cx="413.85999"
         cy="67.730003"
         r="3.22"
         fill="#f9f8e1" />
      <circle
         id="circle142"
         cx="422.35999"
         cy="67.730003"
         r="3.22"
         fill="#f9f8e1" />
      <circle
         id="circle144"
         cx="430.85001"
         cy="67.730003"
         r="3.22"
         fill="#f9f8e1" />
      <circle
         id="circle146"
         cx="439.35001"
         cy="67.730003"
         r="3.22"
         fill="#f9f8e1" />
      <circle
         id="circle148"
         cx="418.17001"
         cy="72.220001"
         r="3.22"
         fill="#f9f8e1" />
      <circle
         id="circle150"
         cx="426.66"
         cy="72.220001"
         r="3.22"
         fill="#f9f8e1" />
      <circle
         id="circle152"
         cx="435.16"
         cy="72.220001"
         r="3.22"
         fill="#f9f8e1" />
      <circle
         id="circle154"
         cx="443.64999"
         cy="72.220001"
         r="3.22"
         fill="#f9f8e1" />
      <circle
         id="circle156"
         cx="469.14001"
         cy="72.220001"
         r="3.22"
         fill="#f9f8e1" />
      <circle
         id="circle158"
         cx="422.35999"
         cy="77.089996"
         r="3.22"
         fill="#f9f8e1" />
      <circle
         id="circle160"
         cx="430.85001"
         cy="77.089996"
         r="3.22"
         fill="#f9f8e1" />
      <circle
         id="circle162"
         cx="439.35001"
         cy="77.089996"
         r="3.22"
         fill="#f9f8e1" />
      <circle
         id="circle164"
         cx="447.84"
         cy="77.089996"
         r="3.22"
         fill="#f9f8e1" />
      <circle
         id="circle166"
         cx="426.66"
         cy="81.800003"
         r="3.22"
         fill="#f9f8e1" />
      <circle
         id="circle168"
         cx="435.16"
         cy="81.800003"
         r="3.22"
         fill="#f9f8e1" />
      <circle
         id="circle170"
         cx="443.64999"
         cy="81.800003"
         r="3.22"
         fill="#f9f8e1" />
      <circle
         id="circle172"
         cx="452.14999"
         cy="81.800003"
         r="3.22"
         fill="#f9f8e1" />
      <circle
         id="circle174"
         cx="469.14001"
         cy="81.800003"
         r="3.22"
         fill="#f9f8e1" />
      <circle
         id="circle176"
         cx="430.85001"
         cy="86.669998"
         r="3.22"
         fill="#f9f8e1" />
      <circle
         id="circle178"
         cx="447.84"
         cy="86.669998"
         r="3.22"
         fill="#f9f8e1" />
      <circle
         id="circle180"
         cx="456.34"
         cy="86.669998"
         r="3.22"
         fill="#f9f8e1" />
      <circle
         id="circle182"
         cx="426.66"
         cy="91.410004"
         r="3.22"
         fill="#f9f8e1" />
      <circle
         id="circle184"
         cx="443.64999"
         cy="91.410004"
         r="3.22"
         fill="#f9f8e1" />
      <circle
         id="circle186"
         cx="460.64001"
         cy="91.410004"
         r="3.22"
         fill="#f9f8e1" />
      <circle
         id="circle188"
         cx="469.14001"
         cy="91.410004"
         r="3.22"
         fill="#f9f8e1" />
      <circle
         id="circle190"
         cx="405.37"
         cy="96.269997"
         r="3.22"
         fill="#f9f8e1" />
      <circle
         id="circle192"
         cx="413.85999"
         cy="96.269997"
         r="3.22"
         fill="#f9f8e1" />
      <circle
         id="circle194"
         cx="422.35999"
         cy="96.269997"
         r="3.22"
         fill="#f9f8e1" />
      <circle
         id="circle196"
         cx="430.85001"
         cy="96.269997"
         r="3.22"
         fill="#f9f8e1" />
      <circle
         id="circle198"
         cx="439.35001"
         cy="96.269997"
         r="3.22"
         fill="#f9f8e1" />
      <circle
         id="circle200"
         cx="447.84"
         cy="96.269997"
         r="3.22"
         fill="#f9f8e1" />
      <circle
         id="circle202"
         cx="464.84"
         cy="96.269997"
         r="3.22"
         fill="#f9f8e1" />
      <circle
         id="circle204"
         cx="469.14001"
         cy="100.99"
         r="3.22"
         fill="#f9f8e1" />
    </g>
  </g>
</svg>
