<?xml version="1.0" encoding="UTF-8" standalone="no"?>
<svg
   id="Layer_1"
   data-name="Layer 1"
   viewBox="0 0 265.34 114"
   version="1.1"
   sodipodi:docname="bk.svg"
   width="265.34"
   height="114"
   inkscape:version="1.1 (c68e22c387, 2021-05-23)"
   xmlns:inkscape="http://www.inkscape.org/namespaces/inkscape"
   xmlns:sodipodi="http://sodipodi.sourceforge.net/DTD/sodipodi-0.dtd"
   xmlns="http://www.w3.org/2000/svg"
   xmlns:svg="http://www.w3.org/2000/svg">
  <defs
     id="defs53" />
  <sodipodi:namedview
     id="namedview51"
     pagecolor="#ffffff"
     bordercolor="#666666"
     borderopacity="1.0"
     inkscape:pageshadow="2"
     inkscape:pageopacity="0.0"
     inkscape:pagecheckerboard="0"
     showgrid="false"
     fit-margin-top="0"
     fit-margin-left="0"
     fit-margin-right="0"
     fit-margin-bottom="0"
     inkscape:zoom="1.113"
     inkscape:cx="132.52471"
     inkscape:cy="56.603774"
     inkscape:window-width="1920"
     inkscape:window-height="1138"
     inkscape:window-x="-8"
     inkscape:window-y="-8"
     inkscape:window-maximized="1"
     inkscape:current-layer="Layer_1" />
  <path
     d="M 14.43,110.5 A 10.94,10.94 0 0 1 3.5,99.57 V 14.43 A 10.94,10.94 0 0 1 14.43,3.5 h 236.48 a 10.94,10.94 0 0 1 10.93,10.93 v 85.14 a 10.93,10.93 0 0 1 -10.93,10.93 z"
     fill="#ffffff"
     id="path2" />
  <path
     d="m 250.91,7 a 7.43,7.43 0 0 1 7.43,7.43 V 99.57 A 7.42,7.42 0 0 1 250.91,107 H 14.43 A 7.43,7.43 0 0 1 7,99.57 V 14.43 A 7.43,7.43 0 0 1 14.43,7 h 236.48 m 0,-7 H 14.43 A 14.44,14.44 0 0 0 0,14.43 V 99.57 A 14.44,14.44 0 0 0 14.43,114 H 250.91 A 14.43,14.43 0 0 0 265.34,99.57 V 14.43 A 14.44,14.44 0 0 0 250.91,0 Z"
     fill="#ffffff"
     id="path4" />
  <path
     d="M 250.91,107 H 14.43 A 7.43,7.43 0 0 1 7,99.57 V 14.43 A 7.43,7.43 0 0 1 14.43,7 h 236.48 a 7.43,7.43 0 0 1 7.43,7.43 v 85.14 a 7.42,7.42 0 0 1 -7.43,7.43 z"
     fill="#1c1c1d"
     id="path6" />
  <path
     d="M 258.35,57.27 H 7"
     fill="none"
     stroke="#ffffff"
     stroke-miterlimit="10"
     stroke-width="2.43"
     id="path8" />
  <path
     d="m 22.98,32.66 h 8.18 c -0.29,-3.38 -2.4,-6.06 -6,-6.06 a 9.23,9.23 0 0 0 -3.75,0.88 l -0.54,-1.74 a 11,11 0 0 1 4.42,-1 c 5.52,0 8.33,4 8.33,9.09 0,5.75 -3.8,9 -8.46,9 a 11.19,11.19 0 0 1 -4.58,-0.91 l 0.5,-1.8 a 9.61,9.61 0 0 0 3.77,0.81 c 3.88,0 6.2,-2.81 6.35,-6.46 H 23 Z"
     fill="#ffffff"
     id="path10" />
  <path
     d="m 52.42,25.76 v 16.79 h -3 V 28.16 h -5.75 v 4.37 c 0,4.72 -0.45,7.87 -2.64,9.3 a 4.94,4.94 0 0 1 -3.33,1 l -0.31,-2.4 a 3.64,3.64 0 0 0 1.66,-0.69 c 1.57,-1.15 1.74,-3.51 1.74,-7.25 v -6.73 z"
     fill="#ffffff"
     id="path12" />
  <path
     d="m 62.76,34.71 c 0.06,4.13 2.7,5.83 5.75,5.83 a 10.94,10.94 0 0 0 4.65,-0.87 l 0.52,2.19 a 13.48,13.48 0 0 1 -5.58,1 c -5.17,0 -8.26,-3.4 -8.26,-8.46 0,-5.06 3,-9.06 7.88,-9.06 5.48,0 6.93,4.82 6.93,7.91 a 10.54,10.54 0 0 1 -0.1,1.42 z m 8.91,-2.18 c 0,-2 -0.79,-5 -4.23,-5 -3.08,0 -4.44,2.84 -4.68,5 z"
     fill="#ffffff"
     id="path14" />
  <path
     d="m 85.1,25.76 v 7.29 h 0.72 l 6.32,-7.29 h 3.71 l -7.32,7.6 c 2.7,0.28 4.34,2.08 5.65,5.1 a 37.54,37.54 0 0 0 1.81,4.09 H 92.8 a 21.83,21.83 0 0 1 -1.56,-3.43 c -1.15,-2.71 -2.71,-4 -5.55,-4 H 85.1 v 7.39 h -3 V 25.76 Z"
     fill="#ffffff"
     id="path16" />
  <path
     d="m 114.27,25.76 v 2.43 h -5.24 v 14.36 h -3 V 28.19 h -5.23 v -2.43 z"
     fill="#ffffff"
     id="path18" />
  <path
     d="m 120.58,31.25 c 0,-2.16 -0.07,-3.89 -0.13,-5.49 h 2.74 l 0.13,2.88 h 0.07 a 6.62,6.62 0 0 1 6,-3.26 c 4.06,0 7.11,3.44 7.11,8.54 0,6 -3.68,9 -7.63,9 a 5.91,5.91 0 0 1 -5.2,-2.62 h -0.07 v 9.12 h -3 V 31.25 Z m 3,4.47 a 6.82,6.82 0 0 0 0.14,1.25 4.72,4.72 0 0 0 4.58,3.57 c 3.23,0 5.1,-2.63 5.1,-6.49 0,-3.36 -1.77,-6.24 -5,-6.24 a 4.87,4.87 0 0 0 -4.61,3.78 5.11,5.11 0 0 0 -0.21,1.25 z"
     fill="#ffffff"
     id="path20" />
  <path
     d="m 159.16,34 c 0,6.21 -4.3,8.92 -8.36,8.92 -4.54,0 -8.05,-3.33 -8.05,-8.64 0,-5.62 3.68,-8.92 8.33,-8.92 4.82,0 8.08,3.51 8.08,8.64 z m -13.32,0.17 c 0,3.68 2.11,6.45 5.1,6.45 2.99,0 5.1,-2.74 5.1,-6.52 0,-2.84 -1.42,-6.45 -5,-6.45 -3.58,0 -5.2,3.35 -5.2,6.54 z"
     fill="#ffffff"
     id="path22" />
  <path
     d="m 169.6,25.76 v 6.77 h 8 v -6.77 h 3 v 16.79 h -3 V 35 h -8 v 7.59 h -3 V 25.76 Z"
     fill="#ffffff"
     id="path24" />
  <path
     d="m 192.05,25.76 v 7.08 c 0,2.67 0,4.34 -0.18,6.73 h 0.11 c 1,-2 1.59,-3.23 2.7,-5.17 l 5.24,-8.68 h 3.58 v 16.83 h -2.92 v -7.11 c 0,-2.74 0.07,-4.16 0.21,-6.87 h -0.12 c -1.07,2.15 -1.8,3.51 -2.77,5.21 -1.6,2.6 -3.43,5.83 -5.24,8.77 h -3.5 V 25.76 Z"
     fill="#ffffff"
     id="path26" />
  <path
     d="m 215.12,25.76 v 7.29 h 0.73 l 6.31,-7.29 h 3.71 l -7.32,7.6 c 2.71,0.28 4.34,2.08 5.66,5.1 a 35.5,35.5 0 0 0 1.8,4.09 h -3.19 a 21.83,21.83 0 0 1 -1.56,-3.43 c -1.15,-2.71 -2.71,-4 -5.55,-4 h -0.59 v 7.39 h -3 V 25.76 Z"
     fill="#ffffff"
     id="path28" />
  <path
     d="m 242,42.55 -0.24,-2.11 h -0.09 a 6.27,6.27 0 0 1 -5.14,2.5 4.78,4.78 0 0 1 -5.13,-4.83 c 0,-4.06 3.61,-6.28 10.09,-6.24 v -0.35 c 0,-1.38 -0.38,-3.88 -3.81,-3.88 a 8.28,8.28 0 0 0 -4.37,1.25 l -0.7,-2 a 10.45,10.45 0 0 1 5.52,-1.49 c 5.13,0 6.38,3.51 6.38,6.87 v 6.28 a 23.52,23.52 0 0 0 0.28,4 h -2.78 z M 241.55,34 c -3.33,-0.07 -7.11,0.52 -7.11,3.79 a 2.7,2.7 0 0 0 2.88,2.91 4.18,4.18 0 0 0 4.06,-2.81 3.3,3.3 0 0 0 0.17,-1 z"
     fill="#ffffff"
     id="path30" />
  <path
     d="m 39.67,66.46 v 2.44 h -9.69 v 6 c 0.7,-0.09 2,-0.16 2.76,-0.16 a 10.63,10.63 0 0 1 5.8,1.5 6.16,6.16 0 0 1 2.86,5.49 6.6,6.6 0 0 1 -1.86,4.86 c -1.84,1.8 -4.87,2.5 -7.93,2.5 A 34.85,34.85 0 0 1 27.08,88.83 V 66.46 Z m -9.69,20.22 a 12.79,12.79 0 0 0 2.43,0.17 6.56,6.56 0 0 0 4.73,-1.74 4.6,4.6 0 0 0 1.23,-3.29 4.22,4.22 0 0 0 -1.83,-3.67 7.51,7.51 0 0 0 -4.3,-1.15 c -0.67,0 -1.57,0.07 -2.3,0.13 z"
     fill="#ffffff"
     id="path32" />
  <path
     d="m 52.26,66.46 v 10 h 0.9 l 7.69,-10 h 3.5 l -8.49,10.3 c 3.7,0.5 5.13,2.76 6.29,5.79 a 60.21,60.21 0 0 0 2.52,6.36 h -3.13 a 38.47,38.47 0 0 1 -2,-5.29 c -1,-3 -2.47,-5 -6.27,-5 H 52.34 V 88.91 H 49.48 V 66.46 Z"
     fill="#ffffff"
     id="path34" />
  <path
     d="m 119.06,77.86 c 0,7.36 -2.73,11.42 -7.53,11.42 -4.23,0 -7.09,-4 -7.16,-11.13 -0.07,-7.13 3.13,-11.25 7.53,-11.25 4.56,0 7.16,4.1 7.16,10.96 z m -11.76,0.33 c 0,5.63 1.73,8.82 4.4,8.82 3,0 4.43,-3.49 4.43,-9 0,-5.33 -1.37,-8.83 -4.4,-8.83 -2.56,-0.02 -4.43,3.11 -4.43,9.01 z"
     fill="#ffffff"
     id="path36" />
  <path
     d="m 140.42,77.86 c 0,7.36 -2.73,11.42 -7.53,11.42 -4.23,0 -7.09,-4 -7.16,-11.13 -0.07,-7.13 3.13,-11.25 7.53,-11.25 4.56,0 7.16,4.1 7.16,10.96 z m -11.75,0.33 c 0,5.63 1.73,8.82 4.4,8.82 3,0 4.43,-3.49 4.43,-9 0,-5.33 -1.37,-8.83 -4.4,-8.83 -2.57,-0.02 -4.43,3.11 -4.43,9.01 z"
     fill="#ffffff"
     id="path38" />
  <path
     d="m 153.75,70 h -0.08 l -3.76,2 -0.57,-2.24 4.73,-2.53 h 2.5 v 21.68 h -2.83 V 70 Z"
     fill="#ffffff"
     id="path40" />
  <path
     d="m 183.13,77.86 c 0,7.36 -2.73,11.42 -7.53,11.42 -4.22,0 -7.09,-4 -7.16,-11.13 -0.07,-7.13 3.13,-11.25 7.53,-11.25 4.56,0 7.16,4.1 7.16,10.96 z m -11.75,0.33 c 0,5.63 1.73,8.82 4.39,8.82 3,0 4.43,-3.49 4.43,-9 0,-5.33 -1.36,-8.83 -4.4,-8.83 -2.56,-0.02 -4.42,3.11 -4.42,9.01 z"
     fill="#ffffff"
     id="path42" />
  <path
     d="M 197.83,78.82 V 81 h -8.23 v -2.18 z"
     fill="#ffffff"
     id="path44" />
  <path
     d="m 218.98,77.86 c 0,7.36 -2.73,11.42 -7.52,11.42 -4.23,0 -7.1,-4 -7.16,-11.13 -0.06,-7.13 3.13,-11.25 7.52,-11.25 4.57,0 7.16,4.1 7.16,10.96 z m -11.75,0.33 c 0,5.63 1.73,8.82 4.39,8.82 3,0 4.43,-3.49 4.43,-9 0,-5.33 -1.36,-8.83 -4.39,-8.83 -2.57,-0.02 -4.43,3.11 -4.43,9.01 z"
     fill="#ffffff"
     id="path46" />
  <path
     d="m 232.31,70 h -0.06 l -3.77,2 -0.56,-2.24 4.75,-2.5 h 2.49 v 21.65 h -2.83 V 70 Z"
     fill="#ffffff"
     id="path48" />
</svg>
