<?xml version="1.0" encoding="UTF-8" standalone="no"?>
<svg
   viewBox="0 0 384.81931 114.00129"
   version="1.1"
   id="svg135"
   sodipodi:docname="c64.svg"
   width="384.81931"
   height="114.00129"
   inkscape:version="1.1 (c68e22c387, 2021-05-23)"
   xmlns:inkscape="http://www.inkscape.org/namespaces/inkscape"
   xmlns:sodipodi="http://sodipodi.sourceforge.net/DTD/sodipodi-0.dtd"
   xmlns="http://www.w3.org/2000/svg"
   xmlns:svg="http://www.w3.org/2000/svg"
   xmlns:rdf="http://www.w3.org/1999/02/22-rdf-syntax-ns#"
   xmlns:cc="http://creativecommons.org/ns#"
   xmlns:dc="http://purl.org/dc/elements/1.1/">
  <defs
     id="defs139" />
  <sodipodi:namedview
     id="namedview137"
     pagecolor="#ffffff"
     bordercolor="#666666"
     borderopacity="1.0"
     inkscape:pageshadow="2"
     inkscape:pageopacity="0.0"
     inkscape:pagecheckerboard="0"
     showgrid="false"
     fit-margin-top="0"
     fit-margin-left="0"
     fit-margin-right="0"
     fit-margin-bottom="0"
     inkscape:zoom="1.113"
     inkscape:cx="192.72237"
     inkscape:cy="56.603774"
     inkscape:window-width="1920"
     inkscape:window-height="1138"
     inkscape:window-x="-8"
     inkscape:window-y="-8"
     inkscape:window-maximized="1"
     inkscape:current-layer="svg135" />
  <title
     id="title2">logo</title>
  <g
     id="Layer_2"
     data-name="Layer 2"
     transform="translate(-307.59034,0.00129174)">
    <rect
       x="406.20642"
       y="49.813419"
       width="22.91641"
       height="19.714291"
       fill="#ffffff"
       id="rect4" />
    <rect
       x="479.53976"
       y="35.571991"
       width="15.55815"
       height="12.04518"
       fill="#ffffff"
       id="rect6" />
    <rect
       x="341.87308"
       y="30.740971"
       width="35.222439"
       height="48.892658"
       fill="#ffffff"
       id="rect8" />
  </g>
  <g
     id="Layer_1"
     data-name="Layer 1"
     transform="translate(-307.59034,0.00129174)">
    <path
       d="m 546.653,21.3601 c 3.852,0 4.54351,0.09822 4.54351,2.96315 0,2.66687 -0.49328,3.16071 -4.14782,3.16071 -3.95026,0 -4.4447,-0.39631 -4.4447,-3.16071 0,-2.66742 0.592,-2.96315 4.049,-2.96315 m 0,-7 c -2.04581,0 -4.84763,0 -7.34351,1.75254 -3.7055,2.602 -3.7055,6.82341 -3.7055,8.21061 0,1.55032 0,5.6685 3.65023,8.29729 2.38959,1.72091 5.05051,1.86342 7.79447,1.86342 2.48327,0 5.33682,-0.16079 7.77493,-2.08062 3.37289,-2.65591 3.37289,-6.5966 3.37289,-8.08009 0,-1.5057 0,-6.08771 -4.29357,-8.59855 -2.3335,-1.3646 -4.72162,-1.3646 -7.24994,-1.3646 z"
       fill="#ffffff"
       id="path11" />
    <path
       d="m 526.50475,21.262 c 2.66565,0 3.55579,0.39385 3.55579,2.46747 0,3.16131 -0.19873,3.4594 -3.94965,3.4594 -3.7539,0 -4.741,-0.1012 -4.741,-2.76678 0,-3.06195 1.18524,-3.16009 5.13488,-3.16009 m 0,-7 c -2.41348,0 -4.90912,0 -7.25613,1.21 -2.22568,1.1474 -4.87875,3.63156 -4.87875,8.95013 0,5.14464 2.626,7.5393 4.82888,8.64227 2.246,1.12451 4.61811,1.12451 6.91214,1.12451 2.31247,0 5.47953,0 8.08069,-2.356 2.869,-2.59864 2.869,-6.04451 2.869,-8.10335 a 8.91861,8.91861 0 0 0 -3.99,-7.89766 11.56018,11.56018 0 0 0 -6.56583,-1.56981 z"
       fill="#ffffff"
       id="path13" />
    <path
       d="m 583.68676,20.86565 c 3.46124,0 3.95392,0.19813 4.15143,1.87728 h -7.90228 c 0.19689,-1.38282 0.59082,-1.87728 3.75085,-1.87728 m 0,-7 a 12.61624,12.61624 0 0 0 -6.4632,1.34446 8.48937,8.48937 0 0 0 -4.21774,6.546 7,7 0 0 0 6.93009,7.98682 h 7.90228 a 7.00006,7.00006 0 0 0 6.95209,-7.81773 8.36594,8.36594 0 0 0 -4.94788,-7.14146 14.44718,14.44718 0 0 0 -6.15564,-0.91809 z"
       fill="#ffffff"
       id="path15" />
    <path
       d="m 504.27551,47.10387 v 14.03548 h -10.38807 l 10.38807,-14.03548 m 10e-4,-7.00046 a 7.00031,7.00031 0 0 0 -5.62756,2.83608 L 488.26089,56.975 a 7,7 0 0 0 5.62655,11.16437 h 10.38807 a 7,7 0 0 0 7,-7 v -14.0355 a 7.00165,7.00165 0 0 0 -6.999,-7.00046 z"
       fill="#ffffff"
       id="path17" />
    <path
       d="m 503.98669,21.3601 c 3.8515,0 4.54229,0.09822 4.54229,2.96315 0,2.66687 -0.495,3.16071 -4.14837,3.16071 -3.95026,0 -4.44354,-0.39631 -4.44354,-3.16071 0,-2.66742 0.59265,-2.96315 4.04962,-2.96315 m 0,-7 c -2.04566,0 -4.84729,0 -7.34311,1.75206 -3.70651,2.602 -3.70651,6.82376 -3.70651,8.21109 0,1.55009 0,5.66769 3.6484,8.29638 2.38962,1.72174 5.05081,1.86433 7.79514,1.86433 2.48254,0 5.33529,-0.16069 7.77344,-2.07959 3.37493,-2.65619 3.37493,-6.59742 3.37493,-8.08112 0,-1.50553 0,-6.087 -4.29223,-8.598 -2.33359,-1.36517 -4.72171,-1.36517 -7.25006,-1.36517 z"
       fill="#ffffff"
       id="path19" />
    <path
       d="m 419.74017,21.3601 c 3.85083,0 4.54284,0.09822 4.54284,2.96315 0,2.66687 -0.495,3.16071 -4.14776,3.16071 -3.85395,0 -4.34717,-0.39631 -4.34717,-3.16071 0,-2.66742 0.59265,-2.96315 3.95209,-2.96315 m 0,-7 c -1.91741,0 -4.815,0 -7.315,1.79264 -3.63711,2.608 -3.63711,6.79472 -3.63711,8.17051 0,10.16071 8.54063,10.16071 11.34717,10.16071 2.48245,0 5.33514,-0.16073 7.77325,-2.07986 3.37451,-2.65622 3.37451,-6.59724 3.37451,-8.08085 0,-4.03942 -1.44458,-6.93238 -4.29364,-8.59851 -2.33349,-1.36464 -4.72125,-1.36464 -7.2492,-1.36464 z"
       fill="#ffffff"
       id="path21" />
    <path
       d="m 461.67834,61.31512 a 8.69435,8.69435 0 0 1 3.47217,0.43737 c 0.53247,0.29061 0.80065,0.97828 0.80065,2.06819 v 3.08459 q 0,1.75122 -0.77215,2.184 a 8.63828,8.63828 0 0 1 -3.50067,0.43848 H 459.362 a 8.92944,8.92944 0 0 1 -3.50378,-0.43848 q -0.82873,-0.43278 -0.82837,-2.184 v -3.08459 q 0,-1.69073 0.82837,-2.09606 a 9.45585,9.45585 0 0 1 3.50378,-0.4095 h 2.31635 m 0,-7 H 459.362 c -3.05856,0 -4.97085,0.32788 -6.60043,1.1317 -1.40576,0.68664 -4.73172,2.90206 -4.73172,8.37386 v 3.08459 c 0,5.40889 3.20856,7.66841 4.588,8.38883 1.65222,0.8641 3.67026,1.23362 6.74414,1.23362 h 2.31635 c 3.249,0 5.26367,-0.391 6.95382,-1.3495 1.59122,-0.89032 4.319,-3.1776 4.319,-8.27295 v -3.08459 c 0,-5.22183 -3.11013,-7.48294 -4.44729,-8.2127 -1.692,-0.91984 -3.66657,-1.29286 -6.82553,-1.29286 z"
       fill="#ffffff"
       id="path23" />
    <rect
       x="524.24011"
       y="32.000408"
       width="164.66943"
       height="11.77051"
       rx="3.5"
       fill="#ff0000"
       id="rect25" />
    <path
       d="m 685.40966,35.50008 v 4.77053 H 527.74029 v -4.77053 h 157.66937 m 0,-7 H 527.74029 a 7,7 0 0 0 -7,7 v 4.77053 a 7,7 0 0 0 7,7 h 157.66937 a 7,7 0 0 0 7,-7 v -4.77053 a 7,7 0 0 0 -7,-7 z"
       fill="#ffffff"
       id="path27" />
    <rect
       x="524.24011"
       y="41.5424"
       width="164.66943"
       height="11.77148"
       rx="3.5"
       fill="#fd4120"
       id="rect29" />
    <path
       d="m 685.40966,45.04205 v 4.77137 H 527.74029 v -4.77137 h 157.66937 m 0,-7 H 527.74029 a 7,7 0 0 0 -7,7 v 4.77137 a 7,7 0 0 0 7,7 h 157.66937 a 7,7 0 0 0 7,-7 v -4.77137 a 7,7 0 0 0 -7,-7 z"
       fill="#ffffff"
       id="path31" />
    <rect
       x="524.24011"
       y="51.0844"
       width="164.66943"
       height="11.77051"
       rx="3.5"
       fill="#ffcc00"
       id="rect33" />
    <path
       d="m 685.40966,54.584 v 4.77137 H 527.74029 V 54.584 h 157.66937 m 0,-7 H 527.74029 a 7,7 0 0 0 -7,7 v 4.77137 a 7,7 0 0 0 7,7 h 157.66937 a 7,7 0 0 0 7,-7 V 54.584 a 7,7 0 0 0 -7,-7 z"
       fill="#ffffff"
       id="path35" />
    <rect
       x="524.24011"
       y="60.626389"
       width="164.66943"
       height="11.77051"
       rx="3.5"
       fill="#4dac26"
       id="rect37" />
    <path
       d="m 685.40966,64.12589 v 4.77147 H 527.74029 v -4.77147 h 157.66937 m 0,-7 H 527.74029 a 7,7 0 0 0 -7,7 v 4.77147 a 7,7 0 0 0 7,7 h 157.66937 a 7,7 0 0 0 7,-7 v -4.77147 a 7,7 0 0 0 -7,-7 z"
       fill="#ffffff"
       id="path39" />
    <rect
       x="524.24011"
       y="70.167397"
       width="164.66943"
       height="11.77148"
       rx="3.5"
       fill="#00a0c6"
       id="rect41" />
    <path
       d="m 685.40966,73.66711 v 4.77216 H 527.74029 v -4.77216 h 157.66937 m 0,-7 H 527.74029 a 7,7 0 0 0 -7,7 v 4.77216 a 7,7 0 0 0 7,7 h 157.66937 a 7,7 0 0 0 7,-7 v -4.77216 a 7,7 0 0 0 -7,-7 z"
       fill="#ffffff"
       id="path43" />
    <rect
       x="420.78308"
       y="32.060959"
       width="18.88574"
       height="11.82227"
       rx="3.5"
       fill="#ff0000"
       id="rect45" />
    <path
       d="m 436.16882,35.56073 v 4.82208 H 424.283 v -4.82208 h 11.88581 m 0,-7 H 424.283 a 7,7 0 0 0 -7,7 v 4.82208 a 7,7 0 0 0 7,7 h 11.88581 a 7,7 0 0 0 7,-7 v -4.82208 a 7,7 0 0 0 -7,-7 z"
       fill="#ffffff"
       id="path47" />
    <rect
       x="420.78308"
       y="41.70549"
       width="18.88574"
       height="11.82324"
       rx="3.5"
       fill="#fd4120"
       id="rect49" />
    <path
       d="m 436.16882,45.2057 v 4.82292 H 424.283 V 45.2057 h 11.88581 m 0,-7 H 424.283 a 7,7 0 0 0 -7,7 v 4.82292 a 7,7 0 0 0 7,7 h 11.88581 a 7,7 0 0 0 7,-7 V 45.2057 a 7,7 0 0 0 -7,-7 z"
       fill="#ffffff"
       id="path51" />
    <rect
       x="420.78308"
       y="51.351002"
       width="18.88574"
       height="11.82227"
       rx="3.5"
       fill="#ffcc00"
       id="rect53" />
    <path
       d="m 436.16882,54.85071 v 4.82287 H 424.283 v -4.82287 h 11.88581 m 0,-7 H 424.283 a 7,7 0 0 0 -7,7 v 4.82287 a 7,7 0 0 0 7,7 h 11.88581 a 7,7 0 0 0 7,-7 v -4.82287 a 7,7 0 0 0 -7,-7 z"
       fill="#ffffff"
       id="path55" />
    <rect
       x="420.78308"
       y="60.995529"
       width="18.88574"
       height="11.82324"
       rx="3.5"
       fill="#4dac26"
       id="rect57" />
    <path
       d="M 436.16882,64.49567 V 69.3186 H 424.283 v -4.82293 h 11.88581 m 0,-7 H 424.283 a 7,7 0 0 0 -7,7 v 4.82293 a 7,7 0 0 0 7,7 h 11.88581 a 7,7 0 0 0 7,-7 v -4.82293 a 7,7 0 0 0 -7,-7 z"
       fill="#ffffff"
       id="path59" />
    <rect
       x="420.78308"
       y="70.64006"
       width="18.88574"
       height="11.82324"
       rx="3.5"
       fill="#00a0c6"
       id="rect61" />
    <path
       d="m 436.16882,74.13984 v 4.82371 H 424.283 v -4.82371 h 11.88581 m 0,-7 H 424.283 a 7,7 0 0 0 -7,7 v 4.82371 a 7,7 0 0 0 7,7 h 11.88581 a 7,7 0 0 0 7,-7 v -4.82371 a 7,7 0 0 0 -7,-7 z"
       fill="#ffffff"
       id="path63" />
    <path
       d="m 396.44079,34.64494 c -9.9917,0 -15.40625,-2.0625 -15.40625,-12.9414 0,-10.82422 5.46484,-12.80469 16.228,-12.80469 9.49658,0 14.16015,1.624 14.979,10.85352 a 3.4999,3.4999 0 0 1 -0.39453,1.95019 3.47916,3.47916 0 0 1 0.4082,1.6416 c 3e-5,10.49024 -6.55466,11.30078 -15.81442,11.30078 z m -1.78662,-12.31347 a 10.38252,10.38252 0 0 0 1.78662,0.11523 22.24414,22.24414 0 0 0 2.39111,-0.10156 3.46341,3.46341 0 0 1 0.26367,-0.64258 c -0.0488,-0.0918 -0.0937,-0.18652 -0.13476,-0.2832 -0.3584,-0.02735 -0.89551,-0.04785 -1.69727,-0.04785 -0.96,0 -1.93994,0 -2.65869,0.03027 a 8.17533,8.17533 0 0 0 0.0493,0.92969 z"
       fill="#ffffff"
       id="path65" />
    <path
       d="m 397.26257,12.39874 c 9.1656,0 10.9463,1.50447 11.49285,7.66272 h -6.56794 c -0.41014,-1.77721 -1.09246,-2.18958 -4.9121,-2.18958 h -0.012 c -5.20361,0 -6.15906,0 -6.15906,3.42207 0,3.55725 0.95545,4.6529 5.33631,4.6529 5.06427,0 5.74681,-0.82283 5.74681,-2.60267 h 6.56794 c 0,6.43188 -2.05357,7.80121 -12.31475,7.80121 -9.71631,0 -11.90589,-1.779 -11.90589,-9.44178 0,-7.66687 2.32642,-9.30487 12.72779,-9.30487 m 0,-7 c -6.23211,0 -10.81153,0.52112 -14.38022,3.1152 -5.34757,3.88713 -5.34757,10.406 -5.34757,13.18967 0,2.7323 0,9.13083 4.94965,13.071 3.51423,2.79753 8.12076,3.37075 13.95624,3.37075 5.99859,0 10.39474,-0.43295 13.77133,-2.588 5.54342,-3.53805 5.54342,-9.84054 5.54342,-12.21316 a 7.01692,7.01692 0 0 0 -0.19432,-1.64477 6.99776,6.99776 0 0 0 0.16692,-2.25679 C 415.51642,17.05912 415.02104,11.47735 410.21904,8.16092 406.89972,5.86849 402.6389,5.39876 397.26253,5.39876 Z"
       fill="#ffffff"
       id="path67" />
    <path
       d="m 546.94909,34.73576 c -8.34766,0 -12.58643,-1.5957 -12.58643,-10.31445 0,-8.77051 4.0586,-10.31348 12.58643,-10.31348 6.88476,0 12.584,0.7461 12.584,9.917 -2e-5,8.208 -2.93996,10.71093 -12.584,10.71093 z"
       fill="#ffffff"
       id="path69" />
    <path
       d="m 546.94927,17.60741 c 7.60358,0 9.08393,1.08528 9.08393,6.41712 0,5.82934 -0.79017,7.21156 -9.08393,7.21156 -7.70477,0 -9.08636,-1.18532 -9.08636,-6.81464 0,-5.53364 0.98712,-6.814 9.08636,-6.814 m 0.0994,9.87655 c 3.65454,0 4.14782,-0.49385 4.14782,-3.16073 0,-2.86492 -0.69146,-2.96312 -4.54351,-2.96312 -3.457,0 -4.049,0.2957 -4.049,2.96312 0,2.76442 0.49444,3.16073 4.4447,3.16073 m -0.0994,-16.87655 c -4.24365,0 -8.66308,0.222 -11.965,2.87526 -4.12134,3.31166 -4.12134,8.27324 -4.12134,10.93878 0,12.14107 7.73144,13.81464 16.08636,13.81464 4.372,0 8.91895,-0.24241 12.24771,-3.13956 3.83622,-3.33882 3.83622,-8.17968 3.83622,-11.072 0,-2.28074 0,-7.6218 -4.63752,-10.91522 -2.93362,-2.08338 -6.55471,-2.5019 -11.44641,-2.5019 z"
       fill="#ffffff"
       id="path71" />
    <path
       d="m 420.03649,34.73576 c -8.41357,0 -12.68555,-1.5957 -12.68555,-10.31445 0,-8.77051 4.09034,-10.31348 12.68555,-10.31348 6.88623,0 12.58643,0.7461 12.58643,9.917 0,8.208 -2.94092,10.71093 -12.58643,10.71093 z"
       fill="#ffffff"
       id="path73" />
    <path
       d="m 420.03643,17.60741 c 7.60541,0 9.08637,1.08528 9.08637,6.41712 0,5.82934 -0.78956,7.21156 -9.08637,7.21156 -7.8017,0 -9.18573,-1.18532 -9.18573,-6.81464 0,-5.53364 0.98773,-6.814 9.18573,-6.814 m 0.0988,9.87655 c 3.65271,0 4.14776,-0.49385 4.14776,-3.16073 0,-2.86492 -0.692,-2.96312 -4.54284,-2.96312 -3.35944,0 -3.95208,0.2957 -3.95208,2.96312 0,2.76442 0.49321,3.16073 4.34716,3.16073 m -0.0988,-16.87655 c -5.20944,0 -9.03822,0.47746 -12.02542,2.8542 -4.16031,3.31012 -4.16031,8.2864 -4.16031,10.95984 0,12.14107 7.77921,13.81464 16.18573,13.81464 4.3728,0 8.92065,-0.24238 12.24957,-3.13914 3.8368,-3.33868 3.8368,-8.1799 3.8368,-11.07242 0,-2.2809 0,-7.62238 -4.63886,-10.91578 -2.93381,-2.0829 -6.55527,-2.50134 -11.44751,-2.50134 z"
       fill="#ffffff"
       id="path75" />
    <path
       d="m 455.49255,34.24065 a 3.50069,3.50069 0 0 1 -3.45655,-2.94727 3.50067,3.50067 0 0 1 -3.45654,2.94727 h -4.83887 a 3.50086,3.50086 0 0 1 -3.40771,-2.69922 3.50184,3.50184 0 0 1 -3.40821,2.69922 h -4.74121 a 3.50018,3.50018 0 0 1 -3.5,-3.5 V 17.70647 a 3.50017,3.50017 0 0 1 3.5,-3.5 h 4.44288 a 3.50062,3.50062 0 0 1 1.31884,0.25683 13.76942,13.76942 0 0 1 9.80225,0.78907 11.19415,11.19415 0 0 1 5.77,-1.34375 c 6.397,0 10.21582,3.41308 10.21582,9.12988 v 7.70215 a 3.50018,3.50018 0 0 1 -3.5,3.5 z"
       fill="#ffffff"
       id="path77" />
    <path
       d="m 453.51757,17.40868 c 4.34412,0 6.71582,1.77967 6.71582,5.62934 v 7.703 h -4.741 v -6.91223 c 0,-1.876 -0.98712,-2.46869 -3.16131,-2.46869 -2.27173,0 -3.75147,0.59267 -3.75147,2.46869 V 30.741 h -4.83917 v -6.02384 c 0,-2.46929 -0.692,-3.35706 -3.16193,-3.35706 -2.6662,0 -3.65393,0.69081 -3.65393,2.66444 V 30.741 h -4.741 V 17.70618 h 4.44287 v 3.06073 c 0.59326,-2.17358 1.5816,-3.35823 5.13671,-3.35823 3.75458,0 5.13672,1.18465 6.12385,2.86371 0.49389,-1.48033 1.87609,-2.86371 5.63061,-2.86371 m 0,-7 a 16.01069,16.01069 0 0 0 -5.79578,0.97777 16.74781,16.74781 0 0 0 -5.95868,-0.97777 16.23537,16.23537 0 0 0 -3.81619,0.42188 7.03807,7.03807 0 0 0 -1.32052,-0.12438 h -4.44287 a 7,7 0 0 0 -7,7 V 30.741 a 7,7 0 0 0 7,7 h 4.741 a 6.9686,6.9686 0 0 0 3.40793,-0.88414 6.96866,6.96866 0 0 0 3.40793,0.88414 h 4.83917 a 6.96879,6.96879 0 0 0 3.45639,-0.91145 6.96874,6.96874 0 0 0 3.45639,0.91145 h 4.741 a 7,7 0 0 0 7,-7 v -7.703 c 0,-7.672 -5.38379,-12.62934 -13.71582,-12.62934 z"
       fill="#ffffff"
       id="path79" />
    <path
       d="m 504.28161,34.73576 c -8.41211,0 -12.6836,-1.58007 -12.6836,-10.21679 0,-8.80078 4.27149,-10.41114 12.6836,-10.41114 6.94043,0 12.68555,0.7461 12.68555,9.917 0,8.208 -2.96387,10.71093 -12.68555,10.71093 z"
       fill="#ffffff"
       id="path81" />
    <path
       d="m 504.28185,17.60741 c 7.606,0 9.18512,1.08528 9.18512,6.41712 0,5.82934 -0.88714,7.21156 -9.18512,7.21156 -7.803,0 -9.184,-1.18532 -9.184,-6.71712 0,-5.52934 0.98651,-6.91156 9.184,-6.91156 m 0.0988,9.87655 c 3.65332,0 4.14837,-0.49385 4.14837,-3.16073 0,-2.86492 -0.69079,-2.96312 -4.54229,-2.96312 -3.457,0 -4.04962,0.2957 -4.04962,2.96312 0,2.76442 0.49328,3.16073 4.44354,3.16073 m -0.0988,-16.87655 c -5.225,0 -9.07,0.49472 -12.08987,2.95738 -4.09409,3.33862 -4.09409,8.29268 -4.09409,10.95418 0,2.30192 0,7.69259 4.47309,11.0384 2.98214,2.2306 6.69189,2.67872 11.71087,2.67872 4.362,0 8.90076,-0.239 12.24777,-3.09466 3.93738,-3.35943 3.93738,-8.21543 3.93738,-11.1169 0,-13.41712 -10.93164,-13.41712 -16.18512,-13.41712 z"
       fill="#ffffff"
       id="path83" />
    <path
       d="m 582.93884,34.73576 c -5.56055,-0.09668 -11.24415,-1.374 -11.24415,-10.11718 0,-8.708 4.47071,-10.41211 12.19336,-10.41211 10.62891,0 11.84571,3.37793 12.08887,11.08691 l 0.003,0.10449 a 3.45329,3.45329 0 0 1 -0.0488,0.7041 3.48151,3.48151 0 0 1 0.0498,0.5918 c 0,8.043 -7.50293,8.043 -12.98145,8.043 -0.0205,-3e-5 -0.041,-3e-5 -0.0605,-10e-4 z"
       fill="#ffffff"
       id="path85" />
    <path
       d="m 583.88854,17.70679 c 8.39374,0 8.39374,1.48218 8.59314,7.80114 h -12.44641 c 0,2.27112 0.69141,2.6662 5.23363,2.6662 1.97725,0 2.37239,-0.49322 2.56868,-1.48034 h 4.64349 c 0,4.246 -3.06433,4.54284 -9.48205,4.54284 -5.72876,-0.1 -7.80475,-1.38214 -7.80475,-6.61768 0,-5.62872 1.58032,-6.91216 8.69427,-6.91216 m -3.95263,5.03612 h 7.90228 c -0.19751,-1.67912 -0.69019,-1.87724 -4.15143,-1.87724 -3.16,0 -3.554,0.49444 -3.75085,1.87724 m 3.95263,-12.03612 c -4.66873,0 -8.39065,0.48858 -11.37991,2.873 -4.31436,3.44138 -4.31436,8.76562 -4.31436,11.03918 0,1.78028 0,7.19788 4.38281,10.702 3.08145,2.46368 6.93582,2.85586 10.2998,2.91458 q 0.061,10e-4 0.12214,0.0011 c 3.79065,0 6.90945,-0.08454 9.667,-1.14824 4.33108,-1.6707 6.81509,-5.45938 6.81509,-10.3946 q 0,-0.29872 -0.0246,-0.59156 a 7.00874,7.00874 0 0 0 0.0218,-0.81508 l -0.003,-0.10418 c -0.12464,-3.95486 -0.24234,-7.6904 -3.14093,-10.76566 -3.2273,-3.424 -7.91779,-3.71052 -12.44544,-3.71052 z"
       fill="#ffffff"
       id="path87" />
    <path
       d="m 558.89977,34.24065 a 3.50018,3.50018 0 0 1 -3.5,-3.5 V 17.70647 a 3.50017,3.50017 0 0 1 3.5,-3.5 h 4.543 a 3.50072,3.50072 0 0 1 1.23145,0.22265 11.42328,11.42328 0 0 1 3.707,-0.51953 c 7.76268,0 8.833,4.625 8.833,9.62207 a 3.50049,3.50049 0 0 1 -3.5,3.5 h -4.44532 a 3.487,3.487 0 0 1 -2.12792,-0.7207 l -10e-4,4.42969 a 3.5005,3.5005 0 0 1 -3.5,3.5 z"
       fill="#ffffff"
       id="path89" />
    <path
       d="m 568.38085,17.40924 c 4.74042,0 5.33362,1.67914 5.33362,6.12262 h -4.44531 c -0.0969,-1.67786 -0.59259,-2.2699 -2.56684,-2.2699 -1.9754,0 -3.0625,0.8883 -3.0625,2.66621 V 30.741 H 558.9 V 17.70618 h 4.54223 v 2.46808 c 1.08588,-2.17176 2.07422,-2.765 4.9386,-2.765 m 0,-7 a 16.25651,16.25651 0 0 0 -3.789,0.39088 7.05137,7.05137 0 0 0 -1.14957,-0.09394 H 558.9 a 7,7 0 0 0 -7,7 V 30.741 a 7,7 0 0 0 7,7 h 4.7398 a 7,7 0 0 0 7,-7 v -0.20911 h 3.07465 a 7,7 0 0 0 7,-7 c 0,-3.24565 0,-13.12262 -12.33362,-13.12262 z"
       fill="#ffffff"
       id="path91" />
    <path
       d="m 487.2943,34.24065 a 3.50161,3.50161 0 0 1 -3.45605,-2.94239 3.50072,3.50072 0 0 1 -3.45557,2.94239 h -4.84228 a 3.502,3.502 0 0 1 -3.35694,-2.50586 3.502,3.502 0 0 1 -3.35693,2.50586 h -4.73975 a 3.50018,3.50018 0 0 1 -3.5,-3.5 V 17.70647 a 3.50017,3.50017 0 0 1 3.5,-3.5 h 4.44336 a 3.49474,3.49474 0 0 1 1.32129,0.25781 11.24477,11.24477 0 0 1 3.71485,-0.55566 11.70621,11.70621 0 0 1 5.96631,1.334 11.24728,11.24728 0 0 1 5.78759,-1.334 c 6.39649,0 10.21533,3.41308 10.21533,9.12988 v 7.70215 a 3.50017,3.50017 0 0 1 -3.5,3.5 z"
       fill="#ffffff"
       id="path93" />
    <path
       d="m 485.32012,17.40868 c 4.346,0 6.71527,1.77967 6.71527,5.62934 v 7.703 h -4.741 v -6.91223 c 0,-1.77788 -1.08526,-2.46869 -3.25708,-2.46869 -2.27172,0 -3.65454,0.59267 -3.65454,2.46869 V 30.741 h -4.84222 v -6.02384 c 0,-2.5669 -0.689,-3.35706 -3.16,-3.35706 -2.36872,0 -3.554,0.69081 -3.554,2.66444 V 30.741 h -4.73981 V 17.70618 h 4.44348 v 3.06073 c 0.69141,-2.17358 1.57972,-3.35823 5.03614,-3.35823 3.75268,0 5.13611,1.18465 6.12445,2.86371 0.59137,-1.57971 1.87543,-2.86371 5.62933,-2.86371 m 0,-7 a 15.99188,15.99188 0 0 0 -5.79648,0.97754 16.74538,16.74538 0 0 0 -5.9573,-0.97754 15.79467,15.79467 0 0 0 -3.74,0.41726 7.03738,7.03738 0 0 0 -1.29612,-0.11976 h -4.44348 a 7,7 0 0 0 -7,7 V 30.741 a 7,7 0 0 0 7,7 h 4.73981 a 6.96893,6.96893 0 0 0 3.357,-0.856 6.96886,6.96886 0 0 0 3.357,0.856 h 4.84222 a 6.96873,6.96873 0 0 0 3.45581,-0.91112 6.969,6.969 0 0 0 3.45581,0.91112 h 4.741 a 7,7 0 0 0 7,-7 v -7.703 c 0,-7.672 -5.38357,-12.62934 -13.71527,-12.62934 z M 468.53335,24.4531 Z"
       fill="#ffffff"
       id="path95" />
    <path
       d="m 379.81286,58.74553 a 3.50017,3.50017 0 0 1 -3.5,-3.5 V 35.5717 a 3.50017,3.50017 0 0 1 3.5,-3.5 h 43.123 a 3.50028,3.50028 0 0 1 2.49218,5.958 l -19.40131,19.67384 a 3.50006,3.50006 0 0 1 -2.49219,1.042 z"
       fill="#ffffff"
       id="path97" />
    <path
       d="m 422.93591,35.572 h 0.005 m -0.005,0 -19.40119,19.67373 H 379.813 V 35.572 h 43.12287 m 0.005,-7 H 379.813 a 7,7 0 0 0 -7,7 v 19.67373 a 7,7 0 0 0 7,7 h 23.72168 a 7.00007,7.00007 0 0 0 4.98416,-2.08491 L 427.8426,40.56557 A 6.99913,6.99913 0 0 0 422.94091,28.572 Z m -0.005,14 z"
       fill="#ffffff"
       id="path99" />
    <path
       d="m 504.27575,83.13322 a 3.50017,3.50017 0 0 1 -3.5,-3.5 v -4.79589 h -18.16943 a 3.50011,3.50011 0 0 1 -3.5,-3.51758 l 0.06,-12.0752 a 3.499,3.499 0 0 1 0.65381,-2.01953 l 17.15674,-23.97265 a 3.50043,3.50043 0 0 1 2.84619,-1.4629 h 16.44244 a 3.50018,3.50018 0 0 1 3.5,3.5 V 58.017 h 1.6045 a 3.50018,3.50018 0 0 1 3.5,3.5 v 9.82032 a 3.50018,3.50018 0 0 1 -3.5,3.5 h -1.6045 v 4.79589 a 3.50017,3.50017 0 0 1 -3.5,3.5 z"
       fill="#ffffff"
       id="path101" />
    <path
       d="m 516.26562,35.28919 v 26.22809 h 5.10425 v 9.82048 h -5.10425 v 8.29584 h -11.99011 v -8.29584 h -21.66919 l 0.06,-12.07609 17.15674,-23.97248 h 16.44251 m -22.37813,25.85016 h 10.38807 V 47.10387 l -10.38807,14.03548 m 22.37818,-32.85016 h -16.44251 a 7,7 0 0 0 -5.69235,2.92607 L 476.974,55.18774 a 6.99992,6.99992 0 0 0 -1.30752,4.03914 l -0.0601,12.07612 a 7,7 0 0 0 6.99991,7.0348 h 14.66919 v 1.2958 a 7,7 0 0 0 7,7 h 11.99011 a 7,7 0 0 0 7,-7 V 78.078 a 7.00286,7.00286 0 0 0 5.10425,-6.74027 v -9.82045 a 7.00284,7.00284 0 0 0 -5.10425,-6.74026 V 35.28919 a 7,7 0 0 0 -7,-7 z"
       fill="#ffffff"
       id="path103" />
    <path
       d="m 457.8778,83.683 c -6.71143,0 -11.56592,-1.81738 -14.42822,-5.40039 -2.71289,-3.39453 -4.03223,-8.73926 -4.03223,-16.33887 v -9.02438 c 0,-7.55957 1.31982,-12.88379 4.03418,-16.27637 2.855,-3.581 7.71,-5.39941 14.42627,-5.39941 h 5.105 c 5.46,0 9.56445,1.08593 12.54688,3.32129 a 12.51956,12.51956 0 0 1 4.90625,10.48535 v 3.2334 a 3.50018,3.50018 0 0 1 -3.5,3.5 h -0.21143 q 0.41235,0.35009 0.78857,0.7373 c 2.6084,2.67871 3.93116,6.62988 3.93116,11.74219 V 68.228 c -4.9e-4,5.77246 -2.39942,15.45508 -18.46143,15.45508 z m 0.65186,-17.66895 c 0.23681,0.0078 0.51269,0.01368 0.83251,0.01368 h 2.31592 c 0.29346,0 0.54981,-0.0039 0.77295,-0.01172 v -1.18943 c -0.22265,-0.0068 -0.479,-0.01171 -0.77295,-0.01171 h -2.31592 c -0.31884,0 -0.59472,0.0049 -0.83251,0.01269 z m 0,-17.30859 a 16.36317,16.36317 0 0 1 2.917,-0.26172 c -0.002,-0.05273 -0.003,-0.38281 -0.003,-0.38281 0,0 -2.8208,10e-4 -2.91357,0.0029 z"
       fill="#ffffff"
       id="path105" />
    <path
       d="m 462.9829,34.7434 q 6.94785,0 10.44818,2.62268 a 8.9991,8.9991 0 0 1 3.50458,7.684 v 3.23346 H 464.94329 V 47.126 a 2.52687,2.52687 0 0 0 -0.65271,-2.07587 4.78234,4.78234 0 0 0 -2.61224,-0.48943 h -2.85114 a 5.65287,5.65287 0 0 0 -3.11615,0.55121 q -0.67968,0.549 -0.68121,2.62159 v 6.22 a 10.28547,10.28547 0 0 1 6.46893,-2.00975 h 4.21655 q 6.35376,0 9.28925,3.01793 2.93938,3.018 2.93976,9.30182 v 3.96436 h -8e-4 q 0,11.95486 -14.96063,11.95484 h -5.105 q -8.42963,0 -11.69342,-4.08454 -3.2688,-4.09 -3.26721,-14.15418 v -9.02467 q 0,-10.00572 3.26721,-14.09028 3.25956,-4.08826 11.69342,-4.08563 h 5.105 m -3.6209,34.78432 h 2.31635 a 8.63791,8.63791 0 0 0 3.50067,-0.43848 q 0.77334,-0.43278 0.77215,-2.184 v -3.0846 c 0,-1.0899 -0.26818,-1.77759 -0.80065,-2.06816 a 8.69366,8.69366 0 0 0 -3.47217,-0.43739 H 459.362 a 9.45665,9.45665 0 0 0 -3.50378,0.40948 q -0.82873,0.40486 -0.82837,2.09607 v 3.0846 q 0,1.75124 0.82837,2.184 a 8.929,8.929 0 0 0 3.50378,0.43848 m 3.6209,-41.78432 h -5.105 c -7.83487,0 -13.61059,2.26154 -17.16672,6.72179 -3.2236,4.03028 -4.79391,10.06946 -4.79391,18.45412 v 9.02459 c 0,8.4245 1.56976,14.48389 4.799,18.52443 3.55878,4.45486 9.3331,6.71429 17.16159,6.71429 h 5.105 c 6.59067,0 11.8357,-1.52075 15.58939,-4.52 2.90652,-2.32237 6.37124,-6.71185 6.37124,-14.43485 l 8e-4,-3.96295 a 21.74368,21.74368 0 0 0 -2.74945,-11.36154 6.97394,6.97394 0 0 0 1.74078,-4.61973 V 45.0501 c 0,-7.0812 -3.43219,-11.1352 -6.31143,-13.28915 -3.60526,-2.70217 -8.39615,-4.01755 -14.64133,-4.01755 z"
       fill="#ffffff"
       id="path107" />
    <path
       d="m 379.81286,82.4633 a 3.50017,3.50017 0 0 1 -3.5,-3.5 V 59.28752 a 3.50017,3.50017 0 0 1 3.5,-3.5 h 23.99267 a 3.49969,3.49969 0 0 1 2.50928,1.06055 l 19.13037,19.67578 a 3.49961,3.49961 0 0 1 -2.50927,5.93945 z"
       fill="#ffffff"
       id="path109" />
    <path
       d="m 403.80537,59.288 19.13054,19.6756 H 379.813 V 59.288 h 23.99233 m 0,-7 H 379.813 a 7,7 0 0 0 -7,7 v 19.6756 a 7,7 0 0 0 7,7 h 43.12287 a 7,7 0 0 0 5.01876,-11.87975 l -19.1305,-19.67563 a 7,7 0 0 0 -5.01876,-2.12026 z"
       fill="#ffffff"
       id="path111" />
    <path
       d="m 524.23229,34.53752 c -5.87012,0 -11.30224,-1.2373 -11.30224,-10.21484 0,-7.42188 3.08593,-10.31348 11.00732,-10.31348 a 22.02193,22.02193 0 0 1 2.523,0.12891 v -1.96387 a 3.50017,3.50017 0 0 1 3.5,-3.5 h 4.939 a 3.50017,3.50017 0 0 1 3.5,3.5 v 18.56641 a 3.50017,3.50017 0 0 1 -3.5,3.5 h -4.74072 a 3.48611,3.48611 0 0 1 -1.44238,-0.31055 14.31016,14.31016 0 0 1 -4.48398,0.60742 z"
       fill="#ffffff"
       id="path113" />
    <path
       d="m 534.89916,12.17377 v 18.56658 h -4.74042 v -2.36864 c -0.88958,1.67846 -2.07421,2.66558 -5.92633,2.66558 -6.12262,0 -7.8023,-1.47852 -7.8023,-6.71466 0,-5.13428 1.18646,-6.81336 7.5072,-6.81336 3.95026,0 4.938,0.78772 6.02325,2.2693 v -7.6048 h 4.9386 m -8.78827,15.01508 c 3.75092,0 3.94965,-0.2981 3.94965,-3.45942 0,-2.0736 -0.89014,-2.46746 -3.55579,-2.46746 -3.94964,0 -5.13488,0.09814 -5.13488,3.16008 0,2.6656 0.98712,2.7668 4.741,2.7668 m 8.78827,-22.01508 h -4.9386 a 7.00249,7.00249 0 0 0 -6.80255,5.34229 c -3.48938,0.06376 -7.32107,0.6197 -10.236,3.46717 -3.077,3.0058 -3.49188,6.91338 -3.49188,10.3394 0,13.71466 11.1412,13.71466 14.8023,13.71466 a 19.33285,19.33285 0 0 0 4.44434,-0.45413 7.027,7.027 0 0 0 1.482,0.15719 h 4.74042 a 7,7 0 0 0 7,-7 V 12.17377 a 7,7 0 0 0 -7,-7 z"
       fill="#ffffff"
       id="path115" />
    <path
       d="m 364.98962,110.50041 c -29.72022,0 -53.89942,-23.94043 -53.89942,-53.36816 0,-29.07129 24.56153,-53.63184 53.63477,-53.63184 a 51.95909,51.95909 0 0 1 14.6333,2.00684 3.49988,3.49988 0 0 1 2.60937,3.38475 v 25.335 a 3.50027,3.50027 0 0 1 -5.27685,3.01563 22.753,22.753 0 0 0 -12.23679,-3.56448 c -12.54883,0 -22.3789,10.06445 -22.3789,22.91308 a 22.95,22.95 0 0 0 22.6499,22.64356 c 4.26562,0 6.76953,-0.69922 12.17822,-3.40235 a 3.49956,3.49956 0 0 1 5.06445,3.13086 v 25.876 a 3.50047,3.50047 0 0 1 -2.57959,3.37695 c -6.28808,1.71385 -9.25051,2.28416 -14.39846,2.28416 z"
       fill="#ffffff"
       id="path117" />
    <path
       d="m 364.72472,7 a 48.312,48.312 0 0 1 13.74279,1.89247 v 25.334 a 26.37183,26.37183 0 0 0 -14.01342,-4.048 c -14.82725,0 -25.87909,12.13432 -25.87909,26.41265 a 26.341,26.341 0 0 0 26.14972,26.144 c 4.85028,0 7.81188,-0.80806 13.74279,-3.77162 v 25.87523 C 372.53472,106.45685 369.8399,107 364.98963,107 338.30436,107 314.59034,85.70441 314.59034,57.13244 314.59034,29.37614 338.03761,7 364.72472,7 m 0,-7 A 57.56166,57.56166 0 0 0 324.7366,16.67165 56.503,56.503 0 0 0 307.59034,57.13244 c 0,31.35689 25.74921,56.86756 57.39929,56.86756 5.85068,0 9.31838,-0.77112 15.31973,-2.40785 a 7,7 0 0 0 5.15815,-6.75336 V 78.96356 a 7,7 0 0 0 -10.12888,-6.26179 c -5.23347,2.61506 -7.14944,3.03341 -10.61391,3.03341 A 19.40334,19.40334 0 0 1 345.575,56.59118 c 0,-10.88559 8.29268,-19.41265 18.87909,-19.41265 a 19.48979,19.48979 0 0 1 10.46071,3.07941 7,7 0 0 0 10.55271,-6.03144 V 8.89247 A 7,7 0 0 0 380.2494,2.12306 55.06616,55.06616 0 0 0 364.72472,0 Z"
       fill="#ffffff"
       id="path119" />
    <g
       id="g3">
      <polygon
         id="polygon7"
         points="685.41,40.271 527.74,40.271 527.74,35.5 685.41,35.5 "
         fill="#ff0000" />
      <polygon
         id="polygon9"
         points="685.41,49.813 527.74,49.813 527.74,45.042 685.41,45.042 "
         fill="#fd4120" />
      <polygon
         id="polygon11"
         points="685.41,59.355 527.74,59.355 527.74,54.584 685.41,54.584 "
         fill="#ffcc00" />
      <polygon
         id="polygon13"
         points="685.41,68.897 527.74,68.897 527.74,64.126 685.41,64.126 "
         fill="#4dac26" />
      <polygon
         id="polygon15"
         points="685.41,78.439 527.74,78.439 527.74,73.667 685.41,73.667 "
         fill="#00a0c6" />
      <polygon
         id="polygon7-2"
         data-name="polygon7"
         points="436.169,40.383 424.283,40.383 424.283,35.561 436.169,35.561 "
         fill="#ff0000" />
      <polygon
         id="polygon9-2"
         data-name="polygon9"
         points="436.169,50.029 424.283,50.029 424.283,45.206 436.169,45.206 "
         fill="#fd4120" />
      <polygon
         id="polygon11-2"
         data-name="polygon11"
         points="436.169,59.674 424.283,59.674 424.283,54.851 436.169,54.851 "
         fill="#ffcc00" />
      <polygon
         id="polygon13-2"
         data-name="polygon13"
         points="436.169,69.319 424.283,69.319 424.283,64.496 436.169,64.496 "
         fill="#4dac26" />
      <polygon
         id="polygon15-2"
         data-name="polygon15"
         points="436.169,78.964 424.283,78.964 424.283,74.14 436.169,74.14 "
         fill="#00a0c6" />
      <path
         id="path131"
         d="m 477.94355,68.22781 q 0,11.95483 -14.96062,11.95483 h -5.105 q -8.4297,0 -11.69346,-4.08457 -3.26877,-4.09 -3.26721,-14.15413 v -9.02461 q 0,-10.00568 3.26721,-14.09025 3.25953,-4.08835 11.69346,-4.08565 h 5.105 q 6.94783,0 10.44814,2.6227 a 8.9989,8.9989 0 0 1 3.50459,7.684 v 3.23343 h -11.9924 V 47.126 a 2.52659,2.52659 0 0 0 -0.65271,-2.07585 4.78188,4.78188 0 0 0 -2.6122,-0.48946 h -2.85112 a 5.65327,5.65327 0 0 0 -3.1162,0.55118 q -0.67965,0.549 -0.68121,2.62162 v 6.22 a 10.28548,10.28548 0 0 1 6.469,-2.0098 h 4.21655 q 6.35376,0 9.28923,3.018 2.93938,3.01794 2.93973,9.30181 v 3.96438 z M 563.44288,17.7062 H 558.9 V 30.741 h 4.73981 v -6.8128 c 0,-1.77789 1.0871,-2.66622 3.06253,-2.66622 1.97422,0 2.46989,0.592 2.56685,2.26992 h 4.44531 c 0,-4.4435 -0.59323,-6.12262 -5.33365,-6.12262 -2.86437,0 -3.8527,0.59324 -4.93857,2.765 V 17.7062 Z M 403.80534,59.288 H 379.813 v 19.67558 h 43.12286 z M 422.93591,35.572 H 379.813 v 19.67372 h 23.72167 z m 162.333,-7.39783 c -4.54226,0 -5.23367,-0.39509 -5.23367,-2.66622 h 12.44642 c -0.19937,-6.319 -0.19937,-7.80113 -8.59312,-7.80113 -7.114,0 -8.6943,1.28342 -8.6943,6.91218 0,5.23549 2.076,6.5177 7.80476,6.61769 6.4177,0 9.48205,-0.29692 9.48205,-4.54288 h -4.64345 c -0.19633,0.98711 -0.59142,1.48036 -2.56867,1.48036 z m -5.333,-5.43122 c 0.197,-1.3828 0.59082,-1.87726 3.75089,-1.87726 3.46125,0 3.95389,0.19815 4.15144,1.87726 z M 402.18749,20.06146 h 6.56793 c -0.54656,-6.15822 -2.32728,-7.66272 -11.49283,-7.66272 -10.40139,0 -12.72783,1.638 -12.72783,9.30492 0,7.66272 2.18959,9.44176 11.9059,9.44176 10.26118,0 12.31476,-1.36933 12.31476,-7.80125 h -6.56793 c 0,1.77988 -0.68257,2.60266 -5.74683,2.60266 -4.38087,0 -5.33629,-1.09564 -5.33629,-4.65288 0,-3.42208 0.95542,-3.42208 6.15906,-3.42208 3.8301,-8.4e-4 4.51351,0.41055 4.92406,2.18959 z M 513.467,24.02454 c 0,-5.33183 -1.57914,-6.41711 -9.18513,-6.41711 -8.19743,0 -9.18393,1.3822 -9.18393,6.91158 0,5.5318 1.381,6.71706 9.18393,6.71706 8.298,0 9.18513,-1.38219 9.18513,-7.21153 z m -13.52987,0.29874 c 0,-2.66743 0.59263,-2.96314 4.04962,-2.96314 3.85149,0 4.54227,0.09817 4.54227,2.96314 0,2.66683 -0.49506,3.16069 -4.14838,3.16069 -3.95026,0 -4.44351,-0.3963 -4.44351,-3.16069 z m 56.09612,-0.29874 c 0,-5.33183 -1.48036,-6.41711 -9.08394,-6.41711 -8.09926,0 -9.08637,1.2804 -9.08637,6.814 0,5.62936 1.38159,6.81462 9.08637,6.81462 8.29375,0 9.08394,-1.38219 9.08394,-7.21153 z m -13.42929,0.29874 c 0,-2.66743 0.592,-2.96314 4.049,-2.96314 3.85209,0 4.5435,0.09817 4.5435,2.96314 0,2.66683 -0.49327,3.16069 -4.1478,3.16069 -3.95025,0 -4.44472,-0.3963 -4.44472,-3.16069 z m -113.4811,-0.29874 c 0,-5.33183 -1.481,-6.41711 -9.08636,-6.41711 -8.198,0 -9.18574,1.2804 -9.18574,6.814 0,5.62936 1.384,6.81462 9.18574,6.81462 8.2968,0 9.08636,-1.38219 9.08636,-7.21153 z m -13.33475,0.29874 c 0,-2.66743 0.59263,-2.96314 3.95207,-2.96314 3.85087,0 4.54288,0.09817 4.54288,2.96314 0,2.66683 -0.49507,3.16069 -4.1478,3.16069 -3.8539,0 -4.34715,-0.3963 -4.34715,-3.16069 z m 114.1725,-12.14949 v 7.6048 c -1.08526,-1.48158 -2.073,-2.26932 -6.02324,-2.26932 -6.32076,0 -7.50724,1.67911 -7.50724,6.81341 0,5.23609 1.67973,6.71464 7.80234,6.71464 3.85209,0 5.03675,-0.98711 5.92629,-2.66562 v 2.3687 h 4.74042 V 12.17379 Z m -3.45583,9.08821 c 2.66563,0 3.55578,0.39387 3.55578,2.46746 0,3.16129 -0.19875,3.45943 -3.94965,3.45943 -3.75392,0 -4.741,-0.1012 -4.741,-2.76681 0,-3.06192 1.18525,-3.16008 5.1349,-3.16008 z M 378.46754,34.22649 V 8.89249 A 48.31317,48.31317 0 0 0 364.72471,7 c -26.68712,0 -50.13436,22.37617 -50.13436,50.13246 0,28.572 23.714,49.86754 50.39927,49.86754 4.85029,0 7.54512,-0.54315 13.47792,-2.16118 V 78.96358 c -5.9309,2.96355 -8.89253,3.77161 -13.74283,3.77161 a 26.341,26.341 0 0 1 -26.14968,-26.144 c 0,-14.27837 11.05182,-26.41269 25.879,-26.41269 a 26.37246,26.37246 0 0 1 14.01346,4.04795 z M 436.627,17.7062 h -4.4435 V 30.741 h 4.741 v -6.71646 c 0,-1.97361 0.98772,-2.6644 3.65394,-2.6644 2.46989,0 3.1619,0.88773 3.1619,3.357 V 30.741 h 4.83919 v -6.91218 c 0,-1.876 1.47976,-2.46868 3.7515,-2.46868 2.17418,0 3.16129,0.59263 3.16129,2.46868 V 30.741 h 4.741 v -7.703 c 0,-3.84966 -2.37173,-5.62936 -6.71585,-5.62936 -3.75452,0 -5.13672,1.3834 -5.63058,2.86376 -0.98711,-1.67911 -2.36931,-2.86376 -6.12383,-2.86376 -3.55516,0 -4.54349,1.18465 -5.13672,3.35823 V 17.7062 Z m 31.90317,0 h -4.4435 V 30.741 h 4.73981 v -6.71646 c 0,-1.97361 1.18526,-2.6644 3.554,-2.6644 2.4711,0 3.16008,0.79017 3.16008,3.357 V 30.741 h 4.84222 v -6.91218 c 0,-1.876 1.3828,-2.46868 3.65455,-2.46868 2.17175,0 3.257,0.69079 3.257,2.46868 V 30.741 h 4.741 v -7.703 c 0,-3.84966 -2.36929,-5.62936 -6.71524,-5.62936 -3.75392,0 -5.038,1.284 -5.62937,2.86376 -0.98831,-1.67911 -2.37172,-2.86376 -6.12443,-2.86376 -3.4564,0 -4.34473,1.18465 -5.03613,3.35823 V 17.7062 Z m 52.83968,53.63159 h -5.10425 v 8.29584 H 504.27551 V 71.33779 H 482.6063 l 0.0601,-12.07611 17.15674,-23.97248 h 16.44246 v 26.22809 h 5.10428 v 9.8205 z M 504.27551,61.13934 V 47.10393 l -10.38808,14.03541 z m -38.32435,5.766 v -3.08466 c 0,-1.08991 -0.26818,-1.77756 -0.80063,-2.06813 a 8.69261,8.69261 0 0 0 -3.47218,-0.43742 H 459.362 a 9.45681,9.45681 0 0 0 -3.50378,0.4095 q -0.82874,0.40484 -0.82838,2.09605 v 3.08463 q 0,1.75119 0.82838,2.18395 a 8.92942,8.92942 0 0 0 3.50378,0.43845 h 2.31637 a 8.63853,8.63853 0 0 0 3.50068,-0.43845 q 0.77328,-0.43275 0.77213,-2.18395 z"
         fill="#6e685f" />
    </g>
  </g>
  <metadata
     id="metadata956">
    <rdf:RDF>
      <cc:Work
         rdf:about="">
        <dc:title>logo</dc:title>
      </cc:Work>
    </rdf:RDF>
  </metadata>
</svg>
