<?xml version="1.0" encoding="UTF-8" standalone="no"?>
<svg
   viewBox="0 0 396 114"
   version="1.1"
   id="svg46"
   sodipodi:docname="channelf.svg"
   width="396"
   height="114"
   inkscape:version="1.1 (c68e22c387, 2021-05-23)"
   xmlns:inkscape="http://www.inkscape.org/namespaces/inkscape"
   xmlns:sodipodi="http://sodipodi.sourceforge.net/DTD/sodipodi-0.dtd"
   xmlns="http://www.w3.org/2000/svg"
   xmlns:svg="http://www.w3.org/2000/svg"
   xmlns:rdf="http://www.w3.org/1999/02/22-rdf-syntax-ns#"
   xmlns:cc="http://creativecommons.org/ns#"
   xmlns:dc="http://purl.org/dc/elements/1.1/">
  <defs
     id="defs50" />
  <sodipodi:namedview
     id="namedview48"
     pagecolor="#ffffff"
     bordercolor="#666666"
     borderopacity="1.0"
     inkscape:pageshadow="2"
     inkscape:pageopacity="0.0"
     inkscape:pagecheckerboard="0"
     showgrid="false"
     fit-margin-top="0"
     fit-margin-left="0"
     fit-margin-right="0"
     fit-margin-bottom="0"
     inkscape:zoom="1.113"
     inkscape:cx="198.11321"
     inkscape:cy="56.603774"
     inkscape:window-width="1920"
     inkscape:window-height="1138"
     inkscape:window-x="-8"
     inkscape:window-y="-8"
     inkscape:window-maximized="1"
     inkscape:current-layer="svg46" />
  <title
     id="title2">logo</title>
  <g
     id="Layer_2"
     data-name="Layer 2"
     transform="translate(-302)">
    <rect
       x="491.06"
       y="52"
       width="28.34"
       height="12.38"
       fill="#ffffff"
       id="rect4" />
    <rect
       x="654.52002"
       y="48.07"
       width="29.1"
       height="16.309999"
       fill="#ffffff"
       id="rect6" />
    <rect
       x="314.29001"
       y="27.620001"
       width="358.44"
       height="54.889999"
       fill="#ffffff"
       id="rect8" />
  </g>
  <g
     id="Capa_1"
     data-name="Capa 1"
     transform="translate(-302)">
    <path
       d="m 309,7 382,0.21 v 25.4 H 309 V 7 m 0,-7 a 7,7 0 0 0 -7,7 v 25.61 a 7,7 0 0 0 7,7 h 382 a 7,7 0 0 0 7,-7 V 7.21 a 7,7 0 0 0 -7,-7 z"
       fill="#ffffff"
       id="path11" />
    <path
       d="m 347.88,42.17 v 8.11 h -30.29 v 6.23 h 29.21 v 7.18 l -29.45,-0.21 v 9 h -8.26 V 42.13 h 38.77 m 0,-7 h -38.75 a 7,7 0 0 0 -7,7 v 30.36 a 7,7 0 0 0 7,7 h 8.26 a 7,7 0 0 0 7,-7 v -2 l 22.4,0.16 h 0.05 a 7,7 0 0 0 7,-7 v -7.14 a 7,7 0 0 0 -0.31,-2 7,7 0 0 0 1.39,-4.18 v -8.16 a 7,7 0 0 0 -7,-7 z"
       fill="#ffffff"
       id="path13" />
    <path
       d="M 420.43,42.2 V 72.45 H 411.8 V 42.2 h 8.63 m 0,-7 h -8.63 a 7,7 0 0 0 -7,7 v 30.25 a 7,7 0 0 0 7,7 h 8.63 a 7,7 0 0 0 7,-7 V 42.2 a 7,7 0 0 0 -7,-7 z"
       fill="#ffffff"
       id="path15" />
    <path
       d="m 575.34,42.2 v 0 m 0,0 -0.07,30.25 h -8.91 v -11 h -24.29 v 11 h -8.91 V 42.23 h 8.9 v 11.58 h 24.29 V 42.2 h 8.94 m 0,-7 h -8.89 a 7,7 0 0 0 -7,7 v 4.63 H 549.07 V 42.2 a 7,7 0 0 0 -7,-7 h -8.9 a 7,7 0 0 0 -7,7 v 30.21 a 7,7 0 0 0 7,7 H 542 a 7,7 0 0 0 7,-7 v -4 h 10.31 v 4 a 7,7 0 0 0 7,7 h 8.91 a 7,7 0 0 0 7,-7 l 0.07,-30.06 V 42.2 a 7,7 0 0 0 -7,-7 z m 0,14 z"
       fill="#ffffff"
       id="path17" />
    <path
       d="m 610.2,42.17 v 22.18 h 30.73 v 8.07 h -39 V 42.17 h 8.32 m 0,-7 h -8.32 a 7,7 0 0 0 -7,7 v 30.25 a 7,7 0 0 0 7,7 h 39 a 7,7 0 0 0 7,-7 v -8.07 a 7,7 0 0 0 -7,-7 H 617.2 V 42.17 a 7,7 0 0 0 -7,-7 z"
       fill="#ffffff"
       id="path19" />
    <path
       d="m 387.32,42.2 18,30.29 H 395 l -5.27,-8.91 h -25 l -5.76,8.91 h -9.32 L 367.2,42.2 h 20.12 m -19.11,14 h 18.22 L 383,49.9 h -10.77 l -4,6.3 m 19.11,-21 H 367.2 a 7,7 0 0 0 -6.06,3.49 L 343.53,69 a 7,7 0 0 0 6.05,10.52 h 9.32 a 7,7 0 0 0 5.88,-3.2 l 3.69,-5.71 h 17.25 l 3.28,5.44 a 7,7 0 0 0 6,3.44 h 10.38 a 7,7 0 0 0 6,-10.58 l -18,-30.29 a 7,7 0 0 0 -6,-3.42 z"
       fill="#ffffff"
       id="path21" />
    <path
       d="m 463.63,42.27 c 4.5,0 9,4.4 9,8.94 v 4.89 c 0,4.12 -3.47,7.34 -7.42,7.9 l 7.94,8.45 h -10.8 l -7.84,-8.73 h -16.7 v 8.73 h -8.05 V 42.27 h 33.87 m -25.84,14.59 h 23.29 0.45 a 3.12,3.12 0 0 0 3,-3.25 3.47,3.47 0 0 0 -3.47,-3.47 h -23.27 v 6.69 m 25.84,-21.59 h -33.87 a 7,7 0 0 0 -7,7 v 30.21 a 7,7 0 0 0 7,7 h 8.05 a 7,7 0 0 0 7,-7 v -1.73 h 6.61 l 5.76,6.41 a 7,7 0 0 0 5.21,2.32 h 10.8 a 7,7 0 0 0 5.1,-11.79 l -2.08,-2.22 a 14.53,14.53 0 0 0 3.46,-9.34 v -4.89 c 0,-8.34 -7.65,-15.94 -16,-15.94 z"
       fill="#ffffff"
       id="path23" />
    <path
       d="m 513.73,42.17 a 12.12,12.12 0 0 1 11.89,12 h -8.49 A 4.92,4.92 0 0 0 512.45,50.6 H 494.4 a 4.72,4.72 0 0 0 -4.72,4.68 v 4.26 a 4.71,4.71 0 0 0 4.72,4.68 h 18.05 a 4.72,4.72 0 0 0 4.68,-4.09 h 8.24 c 0,7.45 -5.13,12.3 -11.64,12.3 H 492 A 11.72,11.72 0 0 1 480.22,60.79 v -7 A 11.72,11.72 0 0 1 492,42.17 h 21.69 m 0,-7 H 492 a 18.73,18.73 0 0 0 -18.78,18.64 v 7 A 18.73,18.73 0 0 0 492,79.45 h 21.69 c 10.63,0 18.64,-8.29 18.64,-19.3 a 6.88,6.88 0 0 0 -0.55,-2.72 6.94,6.94 0 0 0 0.8,-3.24 19.21,19.21 0 0 0 -18.89,-19 z"
       fill="#ffffff"
       id="path25" />
    <path
       d="m 593.32,42.24 v 30.18 h -8.63 V 42.24 h 8.63 m 0,-7 h -8.63 a 7,7 0 0 0 -7,7 v 30.18 a 7,7 0 0 0 7,7 h 8.63 a 7,7 0 0 0 7,-7 V 42.24 a 7,7 0 0 0 -7,-7 z"
       fill="#ffffff"
       id="path27" />
    <path
       d="m 681.3,42.2 c 1.28,0.21 9.63,1.88 9.6,14.66 0,13.62 -9.39,15.49 -9.39,15.49 h -34.1 V 42.2 h 33.89 m -2.43,22.18 c 0,0 4.78,-0.14 4.75,-7.41 -0.07,-6.07 -2.63,-6.45 -4.71,-6.83 h -23.29 v 14.17 l 23.21,0.07 M 681.3,35.2 h -33.89 a 7,7 0 0 0 -7,7 v 30.15 a 7,7 0 0 0 7,7 h 34.1 a 7,7 0 0 0 1.37,-0.14 c 5.18,-1 15,-7 15,-22.33 0,-14.07 -8.32,-20.42 -15.48,-21.59 a 7,7 0 0 0 -1.12,-0.09 z m -18.66,21.94 h 14 a 1.69,1.69 0 0 1 0,0.23 h -14 v -0.19 z"
       fill="#ffffff"
       id="path29" />
    <path
       d="M 309,81.39 691,81.6 V 107 H 309 V 81.39 m 0,-7 a 7,7 0 0 0 -7,7 V 107 a 7,7 0 0 0 7,7 h 382 a 7,7 0 0 0 7,-7 V 81.6 a 7,7 0 0 0 -7,-7 z"
       fill="#ffffff"
       id="path31" />
    <path
       id="path2431"
       d="m 691,7.21 v 25.4 H 309 V 7 l 382,0.21" />
    <path
       id="path2491"
       d="m 317.35,63.48 v 9 h -8.26 V 42.13 h 38.77 v 8.11 h -30.27 v 6.23 h 29.21 v 7.18 l -29.45,-0.21" />
    <path
       id="path2495"
       d="m 411.8,72.45 h 8.63 V 42.2 h -8.63 z" />
    <path
       id="path2499"
       d="M 533.17,42.2 V 72.42 H 542 v -11 h 24.29 v 11 h 8.91 l 0.07,-30.25 H 566.4 V 53.78 H 542.07 V 42.2 h -8.9" />
    <path
       id="path2503"
       d="m 601.88,42.17 v 30.25 h 39 V 64.35 H 610.2 V 42.17 h -8.32" />
    <path
       id="path2507"
       d="M 387.32,42.2 H 367.2 l -17.62,30.29 h 9.32 l 5.76,-8.91 h 25 l 5.34,8.91 h 10.38 z m -19.11,14 4,-6.3 H 383 l 3.39,6.3 h -18.18" />
    <path
       id="path2511"
       d="m 463.91,63.9 c 0.4,0 -0.38,0 0,0" />
    <path
       id="path2515"
       d="m 465.25,64 c 3.95,-0.56 7.42,-3.78 7.42,-7.9 v -4.89 c 0,-4.54 -4.54,-8.94 -9,-8.94 h -33.91 v 30.18 h 8.05 v -8.73 h 16.74 l 7.84,8.73 h 10.8 z m -4.17,-7.14 h -23.29 v -6.69 h 23.31 a 3.47,3.47 0 0 1 3.47,3.47 3.1,3.1 0 0 1 -3.49,3.22" />
    <path
       id="path2519"
       d="m 525.62,54.19 h -8.49 a 4.92,4.92 0 0 0 -4.68,-3.57 H 494.4 a 4.72,4.72 0 0 0 -4.72,4.68 v 4.26 a 4.71,4.71 0 0 0 4.72,4.68 h 18.05 a 4.72,4.72 0 0 0 4.68,-4.09 h 8.24 c 0,7.45 -5.13,12.3 -11.64,12.3 H 492 A 11.71,11.71 0 0 1 480.22,60.81 v -7 A 11.71,11.71 0 0 1 492,42.17 h 21.69 a 12.12,12.12 0 0 1 11.89,12" />
    <path
       id="path2523"
       d="m 584.69,72.42 h 8.63 V 42.24 h -8.63 z" />
    <path
       id="path2527"
       d="m 681.3,42.2 h -33.89 v 30.15 h 34.1 c 0,0 9.35,-1.87 9.39,-15.49 0.03,-12.78 -8.32,-14.45 -9.6,-14.66 z m -2.43,22.18 -23.21,-0.07 V 50.14 h 23.29 c 2.08,0.38 4.64,0.76 4.71,6.83 0,7.27 -4.75,7.41 -4.75,7.41" />
    <path
       id="path2531"
       d="M 691,81.6 V 107 H 309 V 81.39 l 382,0.21" />
  </g>
  <metadata
     id="metadata867">
    <rdf:RDF>
      <cc:Work
         rdf:about="">
        <dc:title>logo</dc:title>
      </cc:Work>
    </rdf:RDF>
  </metadata>
</svg>
