<?xml version="1.0" encoding="UTF-8" standalone="no"?>
<svg
   id="Layer_1"
   data-name="Layer 1"
   viewBox="0 0 319.08636 112.00811"
   version="1.1"
   sodipodi:docname="logo.svg"
   width="319.08636"
   height="112.00811"
   inkscape:version="1.1 (c68e22c387, 2021-05-23)"
   xmlns:inkscape="http://www.inkscape.org/namespaces/inkscape"
   xmlns:sodipodi="http://sodipodi.sourceforge.net/DTD/sodipodi-0.dtd"
   xmlns:xlink="http://www.w3.org/1999/xlink"
   xmlns="http://www.w3.org/2000/svg"
   xmlns:svg="http://www.w3.org/2000/svg"
   xmlns:rdf="http://www.w3.org/1999/02/22-rdf-syntax-ns#"
   xmlns:cc="http://creativecommons.org/ns#"
   xmlns:dc="http://purl.org/dc/elements/1.1/">
  <sodipodi:namedview
     id="namedview160"
     pagecolor="#ffffff"
     bordercolor="#666666"
     borderopacity="1.0"
     inkscape:pageshadow="2"
     inkscape:pageopacity="0.0"
     inkscape:pagecheckerboard="0"
     showgrid="false"
     fit-margin-top="0"
     fit-margin-left="0"
     fit-margin-right="0"
     fit-margin-bottom="0"
     inkscape:zoom="1.113"
     inkscape:cx="159.47889"
     inkscape:cy="55.705301"
     inkscape:window-width="1920"
     inkscape:window-height="1138"
     inkscape:window-x="-8"
     inkscape:window-y="-8"
     inkscape:window-maximized="1"
     inkscape:current-layer="Layer_1" />
  <defs
     id="defs27">
    <linearGradient
       id="linear-gradient"
       x1="316.76767"
       y1="35.55862"
       x2="733.66467"
       y2="35.55862"
       gradientTransform="matrix(1,0,0,-1,0,114.00006)"
       gradientUnits="userSpaceOnUse">
      <stop
         offset="0"
         stop-color="#f090a7"
         id="stop2" />
      <stop
         offset="0.14947"
         stop-color="#ef7b75"
         id="stop4" />
      <stop
         offset="0.25638"
         stop-color="#ee6e5e"
         id="stop6" />
      <stop
         offset="0.58937"
         stop-color="#fce72c"
         id="stop8" />
      <stop
         offset="0.81313"
         stop-color="#acdee4"
         id="stop10" />
      <stop
         offset="1"
         stop-color="#a3ddf2"
         id="stop12" />
    </linearGradient>
    <linearGradient
       id="linear-gradient-2"
       x1="331.48929"
       y1="35.55862"
       x2="658.45404"
       y2="35.55862"
       xlink:href="#linear-gradient"
       gradientTransform="translate(-340.45685,0.0075519)" />
    <linearGradient
       id="linear-gradient-3"
       x1="323.73111"
       y1="80.440948"
       x2="658.48004"
       y2="80.440948"
       xlink:href="#linear-gradient"
       gradientTransform="translate(-340.45685,0.0075519)" />
    <linearGradient
       id="linear-gradient-4"
       x1="348.14029"
       y1="35.55862"
       x2="671.19232"
       y2="35.55862"
       xlink:href="#linear-gradient"
       gradientTransform="translate(-340.45685,0.0075519)" />
    <linearGradient
       id="linear-gradient-5"
       x1="349.3623"
       y1="80.439972"
       x2="684.11127"
       y2="80.439972"
       xlink:href="#linear-gradient"
       gradientTransform="translate(-340.45685,0.0075519)" />
    <linearGradient
       id="linear-gradient-6"
       x1="337.69724"
       y1="35.55862"
       x2="668.50281"
       y2="35.55862"
       xlink:href="#linear-gradient"
       gradientTransform="translate(-340.45685,0.0075519)" />
    <linearGradient
       id="linear-gradient-7"
       x1="344.21332"
       y1="80.44046"
       x2="671.40344"
       y2="80.44046"
       xlink:href="#linear-gradient"
       gradientTransform="translate(-340.45685,0.0075519)" />
    <linearGradient
       id="linear-gradient-8"
       x1="331.42868"
       y1="80.637238"
       x2="676.70441"
       y2="80.637238"
       xlink:href="#linear-gradient"
       gradientTransform="translate(-340.45685,0.0075519)" />
    <linearGradient
       id="linear-gradient-9"
       x1="323.67328"
       y1="80.44046"
       x2="650.6377"
       y2="80.44046"
       xlink:href="#linear-gradient"
       gradientTransform="translate(-340.45685,0.0075519)" />
    <linearGradient
       id="linear-gradient-10"
       x1="287.90271"
       y1="35.55862"
       x2="704.79974"
       y2="35.55862"
       xlink:href="#linear-gradient"
       gradientTransform="translate(-340.45685,0.0075519)" />
    <linearGradient
       id="linear-gradient-11"
       x1="330.76654"
       y1="80.637238"
       x2="664.47327"
       y2="80.637238"
       xlink:href="#linear-gradient"
       gradientTransform="translate(-340.45685,0.0075519)" />
    <linearGradient
       id="linear-gradient-12"
       x1="324.53427"
       y1="35.55862"
       x2="652.42053"
       y2="35.55862"
       xlink:href="#linear-gradient"
       gradientTransform="translate(-340.45685,0.0075519)" />
    <linearGradient
       id="linear-gradient-13"
       x1="352.36237"
       y1="58.000031"
       x2="647.63763"
       y2="58.000031"
       xlink:href="#linear-gradient"
       gradientTransform="translate(-340.45685,0.0075519)" />
    <linearGradient
       inkscape:collect="always"
       xlink:href="#linear-gradient"
       id="linearGradient979"
       gradientUnits="userSpaceOnUse"
       gradientTransform="matrix(1,0,0,-1,-340.45685,114.00761)"
       x1="316.76767"
       y1="35.55862"
       x2="733.66467"
       y2="35.55862" />
  </defs>
  <title
     id="title29">logo</title>
  <path
     d="m 61.58557,57.668472 a 16.7381,16.7381 0 0 0 4.92126,2.4729 l -9.092,13.37353 -6.90208,-12.78295 h 6.2746 a 5.17053,5.17053 0 0 0 3.74018,-1.34106 4.38869,4.38869 0 0 0 1.058,-1.72242 m -4e-4,-6 a 6.00025,6.00025 0 0 0 -5.232,3.06352 h -5.84038 a 6,6 0 0 0 -5.27954,8.85066 l 6.9021,12.783 a 5.99994,5.99994 0 0 0 4.97373,3.14153 q 0.15366,0.0079 0.30661,0.0078 a 6.00006,6.00006 0 0 0 4.96112,-2.62667 l 9.092,-13.37354 a 6,6 0 0 0 -3.29047,-9.13583 10.73263,10.73263 0 0 1 -3.15841,-1.63034 5.9998,5.9998 0 0 0 -3.4347,-1.08011 z"
     fill="#ffffff"
     id="path31" />
  <path
     d="M 57.02801,81.050552 A 2.99991,2.99991 0 0 1 54.5412,79.480242 L 43.91131,59.795672 a 3,3 0 0 1 2.63965,-4.42578 h 9.99319 l -0.001,-2.51221 a 3,3 0 0 1 5.19824,-2.04151 c 2.80615,3.02149 5.77588,4.55372 8.82569,4.55372 a 3.00006,3.00006 0 0 1 2.481,4.68652 L 59.6618,79.740982 a 3.00013,3.00013 0 0 1 -2.48047,1.31348 c -0.0513,0 -0.10205,-9.8e-4 -0.15332,-0.0039 z m 0.68116,-13.30469 3.47363,-5.1084 a 8.67855,8.67855 0 0 1 -4.39551,1.09473 h -1.24514 z m -0.58155,-12.40088"
     fill="#ffffff"
     id="path33" />
  <path
     d="m 59.54327,52.857862 c 2.57758,2.77538 6.3244,5.51178 11.02362,5.51178 l -13.3858,19.68506 -10.62994,-19.68506 h 10.2362 c 1.89032,0 2.70734,-0.8108 2.75592,-2.75584 v -2.75594 m -2.12842,20.657 9.092,-13.37353 a 16.73787,16.73787 0 0 1 -4.92126,-2.47291 4.38862,4.38862 0 0 1 -1.058,1.72242 5.17059,5.17059 0 0 1 -3.74018,1.34107 H 50.5128 l 6.90211,12.783 m 2.12708,-26.65725 a 6.00086,6.00086 0 0 0 -5.97885,5.512 h -7.01193 a 6,6 0 0 0 -5.27944,8.85089 l 10.63,19.68506 a 6.00005,6.00005 0 0 0 4.97343,3.14131 c 0.10245,0.0052 0.20489,0.0078 0.30676,0.0078 a 5.99992,5.99992 0 0 0 4.96082,-2.62617 l 13.38566,-19.685 a 6,6 0 0 0 -4.96155,-9.37386 c -2.18213,0 -4.41183,-1.20949 -6.62719,-3.59486 a 5.99976,5.99976 0 0 0 -4.39777,-1.91713 z"
     fill="#ffffff"
     id="path35" />
  <path
     d="m 161.11786,109.00755 a 8.18306,8.18306 0 0 1 -4.91114,-1.65527 16.36225,16.36225 0 0 1 -6.87695,1.65527 h -57.897 a 8.84562,8.84562 0 0 1 -6.92578,-3.17676 9.64223,9.64223 0 0 1 -1.97949,-6.087888 v -12.542 l -12.14063,19.296868 -0.70557,1.11426 a 2.99873,2.99873 0 0 1 -2.53463,1.39552 H 47.19115 a 3.00109,3.00109 0 0 1 -2.57031,-1.45312 L 17.73504,62.996842 A 17.53257,17.53257 0 0 1 7.70815,56.744402 20.96673,20.96673 0 0 1 3.00015,43.823012 V 22.149182 A 19.38915,19.38915 0 0 1 7.63296,9.8791819 20.06282,20.06282 0 0 1 23.32294,3.0075519 h 33.46435 a 8.23411,8.23411 0 0 1 5.477,2.09619 16.29015,16.29015 0 0 1 7.90874,-2.09619 h 35.43312 a 15.9787,15.9787 0 0 1 7.07519,1.75586 8.57738,8.57738 0 0 1 5.12939,-1.75586 h 14.96094 a 8.72521,8.72521 0 0 1 8.90527,8.5117201 v 21.80569 l 4.23633,-0.0015 V 6.0075519 a 3.00015,3.00015 0 0 1 3,-3 h 58.66113 a 2.9884,2.9884 0 0 1 2.06055,0.81982 18.12671,18.12671 0 0 1 5.41992,-0.81982 h 33.8584 a 7.81069,7.81069 0 0 1 5.27832,2.11182 18.63023,18.63023 0 0 1 8.50097,-2.11182 h 33.46485 a 19.6851,19.6851 0 0 1 14.75488,6.44336 19.29233,19.29233 0 0 1 5.17386,12.6777601 v 22.85547 c 0,4.1377 -1.998,8.564 -5.626,12.46387 a 18.89229,18.89229 0 0 1 -10.834,6.12988 24.97835,24.97835 0 0 1 0.99023,4.98926 l 0.0606,0.498 0.0146,0.084 a 3.056,3.056 0 0 1 0.04,0.49024 v 30.462888 a 9.38273,9.38273 0 0 1 -8.90523,8.90527 h -15.35449 a 8.73983,8.73983 0 0 1 -6.75391,-3.31934 8.53162,8.53162 0 0 1 -2.15136,-5.55078 V 78.689222 l -6.59864,0.002 v 21.411138 a 8.69726,8.69726 0 0 1 -3.90136,7.11328 9.11641,9.11641 0 0 1 -5.39744,1.79191 h -14.961 a 7.94683,7.94683 0 0 1 -5.13379,-1.9043 29.79856,29.79856 0 0 1 -7.99609,1.86914 l -0.22267,0.0225 c -0.0928,0.009 -0.18651,0.0127 -0.27929,0.0127 h -33.21822 a 19.31085,19.31085 0 0 1 -8.01953,-1.89652 9.54354,9.54354 0 0 1 -5.72217,1.89648 z m 114.811,-9.063478 a 1.4171,1.4171 0 0 0 0.55078,0.703128 l 15.22461,-0.002 a 1.68215,1.68215 0 0 0 0.665,-0.649418 v -30.02531 c -0.0312,-0.25586 -0.0596,-0.51172 -0.0879,-0.7666 -0.29785,-2.67676 -0.53223,-4.79 -4.2334,-8.79883 a 3.00007,3.00007 0 0 1 2.2041,-5.03515 h 6.69239 c 0.0537,0 0.37109,0.01269 0.47656,0.01269 5.10937,0 10.30273,-6.67139 10.30273,-10.39893 v -22.83447 a 11.52063,11.52063 0 0 0 -11.5664,-10.77929 h -33.46478 c -3.5791,0 -6.91992,2.16406 -8.85351,4.18945 a 3,3 0 0 1 -5.16989,-2.07129 v -1.8315 a 1.2377,1.2377 0 0 0 -0.0947,-0.28662 H 215.0549 a 10.43308,10.43308 0 0 0 -7.64258,3.376 l -0.11523,0.11133 a 3,3 0 0 1 -5.085,-2.15674 v -1.33063 H 154.2756 v 27.31494 a 3.00015,3.00015 0 0 1 -3,3 h -9.84277 c -4.02,4.8e-4 -8.11817,-2.74219 -8.11817,-7.33106 v -22.75635 a 0.81892,0.81892 0 0 0 -0.543,-0.22753 h -14.9609 a 1.274,1.274 0 0 0 -0.55176,0.77343 3.07538,3.07538 0 0 1 -1.67582,2.42383 3.165,3.165 0 0 1 -1.37891,0.3208 2.86893,2.86893 0 0 1 -1.52929,-0.43262 l -0.53858,-0.33886 c -2.24121,-1.4126 -4.3584,-2.74658 -6.53027,-2.74658 H 70.17306 c -3.74121,0 -7.10351,3.26757 -8.53906,4.66308 a 3.00006,3.00006 0 0 1 -5.09085,-2.15137 v -2.51171 H 23.32294 c -9.76319,0 -11.96045,7.98291 -11.96045,10.77929 v 21.65337 c 0.0142,5.27051 4.12207,11.17383 9.59814,11.17383 a 2.99953,2.99953 0 0 1 2.56836,1.4502 l 26.68408,44.218748 h 13.97266 l 21.165,-33.636718 a 2.99979,2.99979 0 0 1 5.53906,1.59765 v 31.10152 a 2.01474,2.01474 0 0 0 0.15723,0.911128 l 0.007,-0.001 a 3.04985,3.04985 0 0 0 0.37891,0.0273 h 57.874 a 10.69471,10.69471 0 0 0 6.355,-2.855468 2.99989,2.99989 0 0 1 5.30664,1.918 2.45235,2.45235 0 0 0 0.17774,0.932608 l 14.94873,0.005 c 0.36084,0 0.9209,-0.0137 0.9209,-0.937498 a 2.99976,2.99976 0 0 1 4.93994,-2.28809 c 1.7998,1.52539 5.48779,3.225588 7.90234,3.225588 h 32.8853 c 4.9746,-0.625 6.02539,-1.331998 7.13671,-2.079108 a 14.53815,14.53815 0 0 1 1.99809,-1.17383 3.00109,3.00109 0 0 1 4.16406,1.85839 2.68509,2.68509 0 0 0 0.7959,1.394538 h 14.75484 a 1.95031,1.95031 0 0 0 1.02442,-0.583 l -0.0117,-26.732418 a 2.99953,2.99953 0 0 1 3,-3 h 12.20509 c 3.90722,0.0078 8.11816,2.96386 8.11816,7.72461 z"
     fill="#ffffff"
     id="path37" />
  <path
     d="m 296.15715,6.0075519 a 16.76062,16.76062 0 0 1 12.5369,5.4626301 16.23912,16.23912 0 0 1 4.39224,10.6668 v 22.847 c 0,3.61737 -1.94989,7.33231 -4.82287,10.42073 -2.74091,2.9465 -6.5163,5.338 -10.81888,5.338 q -0.2487,0 -0.5,-0.01078 l -0.0247,-5.4e-4 c -0.0237,0 -0.0469,0.0012 -0.0706,0.0012 l -0.0277,-7e-4 h -1.79626 a 19.27476,19.27476 0 0 1 2.6821,8.75984 l 0.0246,0.14764 V 100.1019 a 6.404,6.404 0 0 1 -5.90551,5.90552 h -15.35432 a 5.7872,5.7872 0 0 1 -4.42908,-2.21458 5.57283,5.57283 0 0 1 -1.47644,-3.67858 V 78.054772 a 1.94762,1.94762 0 0 0 -0.812,-1.66095 3.35554,3.35554 0 0 0 -1.94391,-0.70132 h -9.84247 v 24.409428 a 5.75742,5.75742 0 0 1 -2.596,4.63831 6.18824,6.18824 0 0 1 -3.70325,1.26721 h -14.9606 a 5.52116,5.52116 0 0 1 -4.49063,-2.60821 c -1.444,0.892 -3.58188,1.929 -9.00595,2.596 l -0.13531,0.0123 h -33.21842 a 17.5502,17.5502 0 0 1 -8.62451,-2.596 5.95849,5.95849 0 0 1 -0.41834,0.57827 6.279,6.279 0 0 1 -4.69668,2.01774 l -0.04,-1.2e-4 h -0.005 -0.0141 -0.005 -14.936 a 5.44035,5.44035 0 0 1 -4.39224,-2.37453 c -0.48334,0.28537 -0.93332,0.5949 -1.464,0.849 a 13.884,13.884 0 0 1 -5.92917,1.52561 h -0.0256 -57.874 a 5.87668,5.87668 0 0 1 -4.57678,-2.04237 6.72344,6.72344 0 0 1 -1.32874,-4.244518 v -22.9208 l -17.67956,28.100318 -0.70126,1.10731 H 47.19095 l -0.689,-1.14416 -26.91928,-44.611208 a 14.39238,14.39238 0 0 1 -9.54721,-5.401 A 17.82654,17.82654 0 0 1 6,43.815192 v -21.6659 a 16.35271,16.35271 0 0 1 3.92473,-10.33463 17.07528,17.07528 0 0 1 13.3981,-5.8071101 h 33.46452 a 5.2611,5.2611 0 0 1 3.76474,1.61174 5.1306,5.1306 0 0 1 1.02121,1.46411 14.5962,14.5962 0 0 1 8.59985,-3.07585 h 35.433 a 14.633,14.633 0 0 1 7.64026,2.48528 c 0.13016,-0.17116 0.20944,-0.367 0.35681,-0.52906 a 5.73687,5.73687 0 0 1 4.20766,-1.95622 h 14.96063 a 5.70226,5.70226 0 0 1 5.90552,5.5118001 v 22.83468 a 1.36608,1.36608 0 0 0 0.77518,1.40253 4.24484,4.24484 0 0 0 1.93735,0.56605 l 0.0188,-10e-5 h 7.50492 V 6.0075519 h 58.66131 v 1.95622 a 15.20407,15.20407 0 0 1 7.48031,-1.95622 h 33.85825 a 4.98253,4.98253 0 0 1 3.91238,2.067 6.06623,6.06623 0 0 1 0.54135,1.00885 16.65244,16.65244 0 0 1 9.32575,-3.07585 h 33.46452 m -44.48816,7.4802701 v -1.96852 c -0.0782,-1.27054 -1.00207,-3.1495801 -2.75585,-3.1495801 H 215.0549 a 13.47941,13.47941 0 0 0 -9.8425,4.3307301 V 8.3697219 H 151.27548 V 38.684662 h -9.84253 l -0.0576,3.6e-4 c -1.925,0 -5.06048,-1.18211 -5.06048,-4.331 V 11.519302 A 3.43467,3.43467 0 0 0 132.77153,8.3697219 H 117.8109 a 3.91432,3.91432 0 0 0 -3.54324,3.5433201 c -2.69611,-1.68932 -5.40943,-3.5433201 -8.66144,-3.5433201 H 70.17315 c -4.79827,0 -8.64605,3.5838301 -10.62991,5.5118401 v -3.14963 A 2.72722,2.72722 0 0 0 56.78735,8.3697219 H 23.32283 c -10.9702,0 -14.96057,8.6617301 -14.96057,13.7795201 v 21.65352 c 0.0177,6.57474 5.13531,14.17322 12.59837,14.17322 L 48.51968,103.64524 H 65.84247 L 87.88974,68.605872 v 31.10232 c 0.0163,2.197628 0.98245,3.936998 3.54324,3.936998 h 57.874 0.0168 a 13.52881,13.52881 0 0 0 8.64456,-3.937068 c 0,1.387418 0.57572,3.936998 3.14966,3.936998 h 14.9606 l 0.05,2.4e-4 a 3.75077,3.75077 0 0 0 3.887,-3.937288 c 2.21427,1.876738 6.53552,3.936998 9.84253,3.936998 h 33.0708 c 7.84641,-0.96479 7.66483,-2.32126 10.23621,-3.54337 0.67895,2.294 2.15585,3.54337 3.5433,3.54337 h 14.9606 c 1.07895,0 3.937,-1.10905 3.937,-3.54337 V 73.330302 h 12.20474 c 2.36978,0.0043 5.1181,1.73678 5.1181,4.72441 v 22.047158 c 0.009,1.12774 1.32617,3.54337 3.54331,3.54337 h 15.35434 a 4.07064,4.07064 0 0 0 3.54324,-3.54337 V 69.786982 c -0.40509,-3.21189 -0.28757,-6.18516 -5.1181,-11.41732 h 6.693 c 0.1593,0.0086 0.31775,0.01281 0.47638,0.01281 7.002,0 13.3031,-8.25225 13.3031,-13.39865 v -22.83458 a 14.45118,14.45118 0 0 0 -14.567,-13.7795201 h -33.46452 c -4.56662,0 -8.662,2.6442501 -11.02363,5.1181001 M 296.15715,0.0075519 h -33.46452 a 21.18632,21.18632 0 0 0 -8.12778,1.63972 10.695,10.695 0 0 0 -5.6517,-1.63972 H 215.0549 a 21.19822,21.19822 0 0 0 -4.91992,0.57219 5.97787,5.97787 0 0 0 -2.5604,-0.57219 h -58.66131 a 6.00056,6.00056 0 0 0 -5.9809,5.51752 12.00043,12.00043 0 0 0 -10.16086,-5.51752 h -14.96063 a 11.42153,11.42153 0 0 0 -5.36966,1.363 18.17166,18.17166 0 0 0 -6.83502,-1.363 H 70.17315 a 18.77617,18.77617 0 0 0 -7.60659,1.60814 11.2462,11.2462 0 0 0 -5.77921,-1.60814 H 23.32283 A 23.01286,23.01286 0 0 0 5.34057,7.9435519 22.436,22.436 0 0 0 0,22.149292 v 21.65353 a 23.70512,23.70512 0 0 0 5.38157,14.83521 20.68832,20.68832 0 0 0 10.42969,6.97738 l 25.55347,42.347778 0.6862,1.13952 a 6,6 0 0 0 5.14,2.90474 h 19.95569 a 6.0001,6.0001 0 0 0 5.069,-2.78979 l 0.70126,-1.10731 6.61056,-10.506998 v 2.1049 l 1.6e-4,0.05705 a 12.56742,12.56742 0 0 0 2.63067,7.932058 11.86734,11.86734 0 0 0 9.27469,4.3101 h 57.874 a 18.40642,18.40642 0 0 0 6.63651,-1.29109 11.21321,11.21321 0 0 0 5.17453,1.29109 h 14.936 l 0.0646,1.1e-4 a 12.54809,12.54809 0 0 0 6.01568,-1.5149 21.53424,21.53424 0 0 0 7.72385,1.51479 h 33.21842 q 0.27121,0 0.54153,-0.0245 l 0.13532,-0.0123 q 0.0955,-0.009 0.19073,-0.0204 a 37.9321,37.9321 0 0 0 7.19144,-1.48146 10.75789,10.75789 0 0 0 5.57287,1.53857 h 14.9606 a 12.09614,12.09614 0 0 0 7.09278,-2.31637 11.69684,11.69684 0 0 0 5.20648,-9.58915 V 81.692552 h 0.59836 v 18.409428 l 1.5e-4,0.0589 a 11.50609,11.50609 0 0 0 2.827,7.42468 11.73061,11.73061 0 0 0 9.07837,4.4219 h 15.35434 a 12.37129,12.37129 0 0 0 11.90551,-11.90552 V 69.639402 a 6.00375,6.00375 0 0 0 -0.0818,-0.98743 l -0.003,-0.01868 -0.0514,-0.42268 c -0.085,-0.7115 -0.1828,-1.529 -0.34515,-2.43966 a 23.04527,23.04527 0 0 0 9.406,-6.27966 c 4.14636,-4.4572 6.42981,-9.60937 6.42981,-14.50736 v -22.83464 a 22.33966,22.33966 0 0 0 -5.95484,-14.7173601 22.65508,22.65508 0 0 0 -16.9745,-7.42438 z m -44.4895,19.4804801 a 5.9991,5.9991 0 0 0 4.34122,-1.85711 c 1.43622,-1.50441 4.04843,-3.2612 6.68375,-3.2612 h 33.46453 a 8.46217,8.46217 0 0 1 8.5669,7.79521 v 22.81889 c 0,2.14679 -3.89823,7.39862 -7.30307,7.39862 -0.0512,0 -0.10236,-0.0013 -0.15378,-0.0041 q -0.16122,-0.0087 -0.32263,-0.0087 h -6.693 a 6,6 0 0 0 -4.40842,10.07008 c 3.03247,3.28463 3.19223,4.71894 3.45691,7.0952 q 0.0342,0.30685 0.0697,0.61423 v 27.49609 h -10.441 l 1.5e-4,-19.59053 c 0,-6.61168 -5.76547,-10.71468 -11.10715,-10.72441 h -12.21574 a 6,6 0 0 0 -6,6 v 24.31494 h -10.96687 a 6.00011,6.00011 0 0 0 -8.04968,-2.96247 17.54863,17.54863 0 0 0 -2.38343,1.39389 c -0.79583,0.53522 -1.54855,1.04153 -5.65255,1.56858 h -32.6954 a 12.28552,12.28552 0 0 1 -5.9631,-2.51415 6.00019,6.00019 0 0 0 -9.51389,2.51438 l -10.77826,-1.9e-4 a 6,6 0 0 0 -10.22461,-1.80121 8.27172,8.27172 0 0 1 -4.0545,1.80117 H 93.88959 l 1.5e-4,-29.03937 a 5.99981,5.99981 0 0 0 -11.07837,-3.19532 l -20.28256,32.23469 h -10.622 L 26.09773,54.875972 a 6,6 0 0 0 -5.1371,-2.9 c -3.6429,0 -6.58842,-4.48006 -6.59837,-8.18938 v -21.63735 c 0,-0.07779 0.24379,-7.77952 8.96057,-7.77952 h 30.24023 a 5.99993,5.99993 0 0 0 10.16182,3.81462 c 1.17459,-1.14153 3.92511,-3.81462 6.44827,-3.81462 h 35.433 c 1.30572,0 3.067,1.11015 4.93164,2.28547 l 0.544,0.34221 a 6.00009,6.00009 0 0 0 8.65982,-2.62768 h 10.57324 v 19.98425 c 0,6.46674 5.62362,10.331 11.06045,10.331 l 0.0576,-3.8e-4 v 0 h 9.84253 a 6,6 0 0 0 6,-6 v -24.31487 h 42.17352 a 6.00008,6.00008 0 0 0 9.93467,2.64357 l 0.11937,-0.11574 a 7.49948,7.49948 0 0 1 5.55191,-2.52783 h 30.679 a 6.00108,6.00108 0 0 0 5.93371,5.11831 z"
     fill="#ffffff"
     id="path39" />
  <path
     d="m 79.22821,46.015882 a 8.63325,8.63325 0 0 1 -8.51172,-8.51172 v -7.874 c 0,-5.11133 3.334,-8.43359 8.49414,-8.46436 l 16.1416,-0.09521 c 5.30322,0 8.13574,4.41016 8.13574,8.55957 v 7.874 a 8.13829,8.13829 0 0 1 -8.11816,8.51172 z"
     id="path41" />
  <path
     d="m 95.40686,24.070552 c 3.47894,0 5.08124,2.92063 5.08124,5.55951 v 7.874 a 5.11982,5.11982 0 0 1 -5.11811,5.51178 H 79.22827 a 5.58383,5.58383 0 0 1 -5.51178,-5.51178 v -7.874 c 0,-3.01143 1.64154,-5.44142 5.51178,-5.46425 l 16.14172,-0.09515 0.0369,-1.1e-4 m 0,-6 -0.072,2.2e-4 -16.14191,0.09515 c -6.75714,0.03984 -11.47641,4.75406 -11.47641,11.46414 v 7.874 a 11.5248,11.5248 0 0 0 11.51178,11.51178 h 16.14172 a 11.07452,11.07452 0 0 0 11.11808,-11.5118 v -7.874 c 0,-6.59 -4.76392,-11.55951 -11.08127,-11.55951 z"
     fill="#ffffff"
     id="path43" />
  <path
     d="m 161.11786,106.64528 a 5.7786,5.7786 0 0 1 -4.57715,-2.10645 15.67055,15.67055 0 0 1 -7.21729,2.10645 H 91.4328 c -3.94385,0 -6.51221,-2.71485 -6.543,-6.915998 V 79.006602 L 68.3815,105.24293 a 2.99861,2.99861 0 0 1 -2.53906,1.40235 H 48.51971 a 2.99848,2.99848 0 0 1 -2.56836,-1.4502 L 19.19891,60.863082 C 10.98456,59.796672 5.38299,51.398722 5.36249,43.810342 v -21.66116 c 0,-6.96728 5.57226,-16.7792901 17.96045,-16.7792901 h 33.46435 a 5.83636,5.83636 0 0 1 4.97168,2.77 15.26452,15.26452 0 0 1 8.41406,-2.77 h 35.43312 a 14.848,14.848 0 0 1 7.43164,2.2705 6.34613,6.34613 0 0 1 4.773,-2.2705 h 14.96094 a 6.44037,6.44037 0 0 1 6.543,6.1494101 v 22.83447 a 0.90411,0.90411 0 0 0 0.48291,0.85742 3.12228,3.12228 0 0 0 1.57764,0.47412 l 6.90039,-4.8e-4 V 8.3698919 a 3.00015,3.00015 0 0 1 3,-3 h 53.93648 a 3.00057,3.00057 0 0 1 2.68066,1.65136 15.86353,15.86353 0 0 1 7.16211,-1.65136 h 33.8584 a 5.51978,5.51978 0 0 1 4.70605,2.73388 17.28162,17.28162 0 0 1 9.07324,-2.73388 h 33.46485 a 17.47125,17.47125 0 0 1 17.5664,16.7720001 v 22.84176 c 0,3.34375 -1.79492,7.32276 -4.80175,10.64307 -3.36036,3.71192 -7.44532,5.75586 -11.501,5.75586 h -10e-4 c -0.18261,0 -0.36621,-0.0039 -0.55078,-0.01269 h -0.66894 a 17.30019,17.30019 0 0 1 2.04394,7.17089 c 0.0322,0.29 0.0645,0.57911 0.10156,0.8711 a 3.01955,3.01955 0 0 1 0.0234,0.375 v 30.315428 a 6.98773,6.98773 0 0 1 -6.543,6.543 h -15.35447 c -3.96289,0 -6.52246,-3.86133 -6.543,-6.51954 V 78.054462 c 0,-1.21582 -1.38379,-1.72266 -2.124,-1.72461 h -9.19923 v 23.772458 c 0,4.35644 -4.44726,6.543 -6.93651,6.543 h -14.96093 a 6.09488,6.09488 0 0 1 -4.67871,-2.34961 c -1.67188,0.94629 -3.88965,1.73144 -8.73438,2.32714 a 3.05887,3.05887 0 0 1 -0.36621,0.0225 h -33.0708 a 19.15546,19.15546 0 0 1 -8.41748,-2.42188 6.80079,6.80079 0 0 1 -5.3125,2.42188 z m 126.92138,-9.936528 v -26.13379 a 10.61787,10.61787 0 0 0 -10.77929,-10.38574 h -37.5518 v 36.51953 h 8.56738 v -27.31543 a 2.99953,2.99953 0 0 1 3,-3 h 19.68462 c 7.41406,0.14844 8.51172,5.15039 8.51172,8.11817 v 22.19726 z m -95.03125,-36.51953 c -4.6499,0 -11.56738,2.66113 -11.56738,9.99219 v 15.748 a 11.1182,11.1182 0 0 0 11.56738,10.77934 h 27.165 c 0.45606,0 11.17285,-0.123 11.17285,-10.77929 v -15.748 c 0,-5.88281 -4.59472,-9.99219 -11.17285,-9.99219 z m -20.32324,36.51953 v -36.51953 h -8.56689 v 36.51953 z m -27.31494,0 c 7.14355,0 10.34131,-5.11816 10.34131,-10.19043 a 10.49326,10.49326 0 0 0 -2.56592,-7.06054 10.09427,10.09427 0 0 0 -7.77539,-3.127 h -22.83447 c -3.82422,0 -5.8877,-2.582 -5.8877,-5.01074 a 4.65014,4.65014 0 0 1 1.90625,-3.72266 6.53812,6.53812 0 0 1 3.98145,-1.2041 h 31.64551 v -6.2041 h -31.64551 c -7.38233,0 -10.687,5.22559 -10.687,10.40332 a 9.99337,9.99337 0 0 0 10.687,10.36817 h 21.25981 c 3.87842,0 5.97119,2.58691 5.97119,5.0205 a 4.62089,4.62089 0 0 1 -1.9624,3.74414 6.74144,6.74144 0 0 1 -4.00879,1.17188 h -31.252 v 5.81156 z m -42.76367,0 v -36.51953 h -8.5669 v 36.51953 z m -40.83545,0 21.64111,-36.51953 h -6.52148 l -17.61231,26.23047 a 3,3 0 0 1 -2.49023,1.32812 c -0.0361,0 -0.0723,-10e-4 -0.10889,-0.002 A 2.99817,2.99817 0 0 1 54.1828,86.236052 L 39.29803,60.189222 h -9.11914 l 21.77051,36.51953 z m -4.29541,-24.42285 8.02051,-11.79394 a 17.83514,17.83514 0 0 1 -3.68264,-1.81055 5.30723,5.30723 0 0 1 -5.02588,2.68848 h -5.207 z M 24.89764,15.307392 c -7.58886,0 -9.98,7.33447 -9.99219,10.00585 v 15.73389 a 10.27514,10.27514 0 0 0 9.88038,10.78027 l 29.00146,-4.8e-4 v -5.811 H 31.98407 c -3.59131,0 -8.90528,-2.58008 -8.90528,-8.11816 v -8.26762 c 0,-5.01172 3.66211,-8.51172 8.90528,-8.51172 h 21.80322 v -5.811 z m 240.94434,0 c -4.64942,0 -11.56641,2.66113 -11.56641,9.99218 v 15.74756 a 11.11764,11.11764 0 0 0 11.56641,10.77979 h 27.166 c 0.45606,0 11.17286,-0.12256 11.17286,-10.77979 v -15.74758 c 0,-5.8833 -4.59473,-9.99218 -11.17286,-9.99218 z m -192.12549,0 c -3.86475,0 -11.17334,2.08837 -11.17334,9.99216 v 15.74758 c 0,2.99854 2.00732,10.77979 11.17334,10.77979 h 27.16553 c 0.45605,0 11.17285,-0.12256 11.17285,-10.77979 v -15.74758 c 0,-5.8833 -4.59424,-9.99218 -11.17285,-9.99218 z m 142.91357,-10e-4 c -7.58984,0 -9.98046,7.334 -9.99218,10.00586 v 15.73439 a 10.28884,10.28884 0 0 0 3.61816,8.374 10.5195,10.5195 0 0 0 6.26172,2.40625 c 0.0127,-4.9e-4 29.00195,-10e-4 29.00195,-10e-4 v -5.811 h -21.41015 c -3.5918,0 -8.90528,-2.58007 -8.90528,-8.11767 v -8.26806 c 0,-5.01172 3.66211,-8.51172 8.90528,-8.51172 h 21.41015 v -5.811 z m -58.84863,26.13869 a 10.28122,10.28122 0 0 0 2.9502,7.25147 9.2329,9.2329 0 0 0 6.68554,2.73681 h 30.46485 v -5.41748 h -22.98438 c -5.32666,0 -8.90576,-3.42041 -8.90576,-8.51172 a 3.00015,3.00015 0 0 1 3,-3 h 28.89014 v -4.62988 h -28.89014 a 3.00015,3.00015 0 0 1 -3,-3 v -3.937 a 3.00015,3.00015 0 0 1 3,-3 h 28.89014 v -4.62989 h -40.06739 z m -36.9707,-0.0039 c 0,6.63038 3.49414,9.99219 10.38574,9.99219 h 19.04736 v -5.41748 h -12.354 c -5.19873,4.9e-4 -8.90576,-3.57959 -8.90576,-8.51172 v -22.19678 h -8.17334 z"
     id="path45" />
  <path
     d="m 296.15715,8.3696919 a 14.45118,14.45118 0 0 1 14.5669,13.7795701 v 22.83458 c 0,5.14671 -6.30051,13.3986 -13.303,13.3986 -0.1582,0 -0.3176,-0.0042 -0.47644,-0.01281 h -6.693 c 4.83053,5.23221 4.713,8.20547 5.1181,11.41737 v 30.314888 a 4.07059,4.07059 0 0 1 -3.54324,3.54332 h -15.35432 c -2.21714,0 -3.53452,-2.41558 -3.54331,-3.54332 V 78.054682 c 0,-2.98758 -2.74832,-4.72005 -5.1181,-4.72442 h -12.20475 v 26.771628 c 0,2.43432 -2.858,3.54332 -3.937,3.54332 h -14.9606 c -1.38745,0 -2.86435,-1.24937 -3.5433,-3.54332 -2.57138,1.2221 -2.3898,2.57853 -10.23621,3.54332 h -33.0708 c -3.307,0 -7.62826,-2.06032 -9.84253,-3.936998 a 3.75042,3.75042 0 0 1 -3.88693,3.937238 l -0.05,-2.3e-4 h -14.9606 c -2.57394,0 -3.14966,-2.54963 -3.14966,-3.936998 a 13.52823,13.52823 0 0 1 -8.64444,3.936998 h -0.0169 -57.874 c -2.56079,0 -3.527,-1.73938 -3.54324,-3.936998 V 68.605842 L 65.84251,103.64521 H 48.51968 L 20.96063,57.975942 c -7.46306,0 -12.58069,-7.59843 -12.59837,-14.17321 v -21.65347 c 0,-5.11778 3.99037,-13.7795701 14.96057,-13.7795701 h 33.46452 a 2.72727,2.72727 0 0 1 2.75589,2.3622601 v 3.1496 c 1.98391,-1.928 5.83164,-5.5118601 10.62991,-5.5118601 h 35.433 c 3.252,0 5.96533,1.8540001 8.66144,3.5433601 a 3.91432,3.91432 0 0 1 3.54324,-3.5433601 h 14.96063 a 3.43471,3.43471 0 0 1 3.54334,3.1496201 v 22.83463 c 0,3.149 3.13537,4.331 5.06036,4.331 l 0.0577,-3.5e-4 h 9.84253 V 8.3696919 h 53.93692 v 4.3307801 a 13.4792,13.4792 0 0 1 9.8425,-4.3307801 h 33.85834 c 1.75378,0 2.67764,1.8791001 2.75585,3.1496201 v 1.96848 c 2.36167,-2.4738 6.457,-5.1181001 11.02363,-5.1181001 h 33.46452 M 216.51761,54.826822 c 0.0375,0 0.0751,-2.4e-4 0.11206,-7.1e-4 h 31.88974 v -11.811 h -24.40943 c -1.73687,0 -5.90545,-1.28616 -5.90545,-5.1181 v -8.26776 c 0,-3.93837 2.96484,-5.51173 5.90545,-5.51173 h 24.40943 v -11.811 h -31.88974 c -9.17527,0 -12.9711,8.43994 -12.9921,12.99211 v 15.748 a 13.22352,13.22352 0 0 0 12.88,13.78019 m 49.32458,0 h 27.16538 c 4.52511,0 14.17321,-2.61247 14.17321,-13.77953 v -15.748 c 0,-7.11952 -5.55075,-12.99211 -14.17321,-12.99211 h -27.16538 c -6.45242,0 -14.56689,3.92485 -14.56689,12.99211 v 15.748 a 14.0398,14.0398 0 0 0 14.56689,13.77955 m -98.425,-0.39374 h 33.4646 v -11.41726 h -25.98429 c -3.03482,0 -5.90552,-1.60347 -5.90552,-5.51178 h 31.8898 v -10.63 h -31.8898 v -3.937 h 31.8898 v -10.62986 h -46.063 l -0.0374,29.13385 a 12.72672,12.72672 0 0 0 12.63583,12.992 m -36.22043,0 h 22.04721 v -11.41721 h -15.35433 l -0.091,5.3e-4 c -3.13824,0 -5.81448,-1.92728 -5.81448,-5.51231 v -25.19686 h -14.17326 v 29.13385 c 0,10.17842 7.12628,12.992 13.38583,12.992 m -57.48025,0.39374 h 27.16531 c 4.52506,0 14.17322,-2.61247 14.17322,-13.77953 v -15.748 c 0,-7.11952 -5.55075,-12.99211 -14.17322,-12.99211 H 73.71646 c -6.45242,0 -14.17322,3.92485 -14.17322,12.99211 v 15.748 c 0,5.56963 3.96939,13.77953 14.17322,13.77953 m -48.93073,7.6e-4 c 0.0375,0 0.0749,-2.5e-4 0.1119,-7.2e-4 h 31.88972 v -11.811 h -24.8031 c -1.73689,0 -5.90552,-1.28621 -5.90552,-5.11811 v -8.26772 c 0,-3.93837 2.96485,-5.51175 5.90552,-5.51175 h 24.8031 V 12.307202 H 24.89763 c -9.17527,0 -12.97112,8.44 -12.99211,12.99211 v 15.748 a 13.22373,13.22373 0 0 0 12.88021,13.78024 m 32.39536,23.22712 13.3858,-19.685 c -4.69922,0 -8.446,-2.73638 -11.02365,-5.5118 v 2.75595 c -0.0485,1.94505 -0.86557,2.75585 -2.75589,2.75585 h -10.2362 l 10.62994,19.685 m 179.52731,21.654 h 14.5669 v -30.315 h 19.685 c 3.01072,0.06022 5.51185,0.9129 5.51185,5.11811 v 25.1969 h 14.56689 V 70.574842 A 13.58549,13.58549 0 0 0 277.25952,57.189052 H 236.7084 v 42.51963 m -43.70071,0 H 220.173 c 4.52506,0 14.17319,-2.61248 14.17319,-13.77953 v -15.748 c 0,-7.11959 -5.55066,-12.99211 -14.17319,-12.99211 h -27.16531 c -6.45242,0 -14.5669,3.92484 -14.5669,12.99211 v 15.748 a 14.03975,14.03975 0 0 0 14.5669,13.77953 m -31.88971,0 h 14.56689 v -42.51963 h -14.56689 v 42.51963 m -38.58261,-15.74805 h 21.25978 c 3.8209,0 4.09937,3.937 0,3.937 h -34.25194 v 11.811 h 35.82672 c 17.78531,0 17.79022,-26.3779 0,-26.3779 h -22.83456 c -3.73853,0 -3.95984,-3.937 0,-3.937 H 157.181 v -12.20468 h -34.64563 c -18.21695,0 -18.28165,26.77158 0,26.77158 M 91.0393,99.708682 h 14.5669 V 57.189052 H 91.0393 v 42.51963 m -34.25195,-14.96063 -15.748,-27.559 H 24.89763 l 25.34741,42.51963 H 63.48031 L 88.67703,57.189052 H 75.29126 l -18.50391,27.559 M 296.15715,2.3696919 h -33.46452 a 19.51461,19.51461 0 0 0 -8.41422,1.96815 8.18156,8.18156 0 0 0 -5.36526,-1.96815 H 215.0549 a 19.01745,19.01745 0 0 0 -6.4025,1.08345 5.97183,5.97183 0 0 0 -3.44,-1.08345 h -53.93692 a 6,6 0 0 0 -6,6 V 32.684632 h -2.96063 v -21.16532 a 9.36332,9.36332 0 0 0 -9.54334,-9.1496201 h -14.96063 a 9.02007,9.02007 0 0 0 -5.22641,1.654 16.26643,16.26643 0 0 0 -6.97827,-1.654 H 70.17315 a 17.21983,17.21983 0 0 0 -7.80972,1.96286 8.72461,8.72461 0 0 0 -5.57608,-1.96283 H 23.32283 c -14.45752,0 -20.96057,11.5664601 -20.96057,19.7795701 v 21.65344 c 0.0232,8.64786 5.91,17.82443 14.9797,19.78948 l 26.04061,43.152998 a 6,6 0 0 0 5.13711,2.9 h 17.32279 a 6.00007,6.00007 0 0 0 5.07837,-2.80464 l 10.9689,-17.432688 v 10.30032 c 0.0432,5.868998 3.96753,9.936998 9.54324,9.936998 h 57.874 a 17.3804,17.3804 0 0 0 6.74067,-1.51811 8.90591,8.90591 0 0 0 5.07037,1.51811 h 14.95713 l 0.0534,2.6e-4 a 9.989,9.989 0 0 0 5.85138,-1.82041 20.34009,20.34009 0 0 0 7.87808,1.82015 h 33.0708 a 6.00474,6.00474 0 0 0 0.73227,-0.0448 32.28331,32.28331 0 0 0 7.81061,-1.71542 8.7235,8.7235 0 0 0 5.23663,1.76027 h 14.9606 c 4.06138,0 9.937,-3.39843 9.937,-9.54332 V 79.330262 h 5.32284 v 20.771628 c 0.0352,4.53847 3.963,9.54332 9.54331,9.54332 h 15.35434 a 10.05286,10.05286 0 0 0 9.54324,-9.54332 V 69.787002 a 5.99546,5.99546 0 0 0 -0.0471,-0.75079 c -0.0351,-0.27784 -0.0656,-0.55368 -0.0963,-0.82953 a 26.84426,26.84426 0 0 0 -0.73294,-4.14686 c 8.89621,-1.85968 16.23068,-11.39468 16.23068,-19.076 v -22.83456 c -0.025,-9.56032 -8.29523,-19.7795701 -20.5669,-19.7795701 z M 216.51764,48.826842 a 7.29841,7.29841 0 0 1 -6.88007,-7.78021 v -15.74808 c 0.005,-1.06326 1.31574,-6.99211 6.9921,-6.99211 h 5.17148 a 11.16234,11.16234 0 0 0 -9.59665,11.32278 v 8.26775 c 0,6.57489 5.33905,10.10562 9.88821,10.92911 h -5.46307 l -0.0768,4.7e-4 -0.0353,2.6e-4 z m 49.32455,0 c -6.993,0 -8.56689,-5.76126 -8.56689,-7.77953 v -15.748 c 0,-6.91215 8.48123,-6.99211 8.56689,-6.99211 h 27.16538 c 4.88864,0 8.17321,2.80991 8.17321,6.99211 v 15.748 c 0,7.40447 -6.80838,7.77953 -8.17321,7.77953 z M 160.81103,18.307202 h 4.36438 a 5.98789,5.98789 0 0 0 -2.18347,4.6299 v 3.937 a 5.99973,5.99973 0 0 0 3.21332,5.315 5.99977,5.99977 0 0 0 -3.21332,5.315 11.09852,11.09852 0 0 0 7.93372,10.929 h -3.50851 a 6.29,6.29 0 0 1 -4.5614,-1.85542 7.25855,7.25855 0 0 1 -2.07443,-5.12122 l 0.0297,-23.14926 z m -37.00015,0 h 2.17327 v 19.19686 a 11.24218,11.24218 0 0 0 7.94821,10.929 h -2.73566 c -7.38583,0 -7.38583,-4.72253 -7.38583,-6.992 v -23.13386 z m -50.09442,30.51964 c -8.07974,0 -8.17322,-7.70174 -8.17322,-7.77953 v -15.748 c 0,-6.7959 7.33664,-6.99211 8.17322,-6.99211 h 27.16531 c 4.88864,0 8.17322,2.80991 8.17322,6.99211 v 15.748 c 0,7.40447 -6.80838,7.77953 -8.17322,7.77953 z m -48.93073,7.1e-4 a 7.29851,7.29851 0 0 1 -6.88021,-7.78026 v -15.748 c 0.005,-1.06326 1.31573,-6.99211 6.99211,-6.99211 h 4.7778 a 11.16236,11.16236 0 0 0 -9.5967,11.3228 v 8.26773 c 0,6.57489 5.3391,10.10562 9.88826,10.92911 h -5.06936 l -0.0768,4.7e-4 z m 217.92267,14.3615 h 34.55112 c 3.73364,0 7.76962,2.82874 7.77951,7.39879 v 23.12084 h -2.56688 v -19.19684 c 0,-2.55448 -0.82151,-10.90553 -11.39188,-11.1169 q -0.0599,-0.0012 -0.12,-0.0012 h -19.685 a 6,6 0 0 0 -6,6 v 24.315 h -2.5669 v -30.51969 z m -49.70071,30.51963 c -6.99307,0 -8.5669,-5.76126 -8.5669,-7.77953 v -15.748 c 0,-6.91217 8.48121,-6.99211 8.5669,-6.99211 H 220.173 c 4.88861,0 8.17319,2.80989 8.17319,6.99211 v 15.748 c 0,7.40448 -6.80835,7.77953 -8.17319,7.77953 z m -25.88971,-30.51963 h 2.56689 v 30.51963 h -2.56689 z m -49.78845,1.61228 a 7.87,7.87 0 0 1 5.20584,-1.61228 H 151.181 v 0.20468 h -28.64563 a 9.71492,9.71492 0 0 0 -5.20584,1.4076 z M 97.0393,63.189052 h 2.5669 v 30.51963 h -2.5669 z m -61.57962,0 h 2.09772 l 14.02049,24.53584 a 6.00015,6.00015 0 0 0 4.99309,3.01926 q 0.10868,0.0039 0.21695,0.0039 a 6,6 0 0 0 4.98074,-2.65544 l 13.80411,-20.55932 -15.51129,26.17537 h -6.408 z m 21.1504,1.18058 h 0.17727 a 10.4233,10.4233 0 0 0 2.66944,-0.33188 l -1.68659,2.48028 z m 89.33789,29.32492 a 9.06279,9.06279 0 0 0 3.62466,-1.54593 7.634,7.634 0 0 0 3.11938,-5.10891 c -0.12371,1.80732 -1.007,6.36816 -6.744,6.65484 z"
     fill="#ffffff"
     id="path47" />
  <path
     d="m 271.3537,46.015882 a 8.63325,8.63325 0 0 1 -8.51172,-8.51172 v -7.874 c 0,-5.11133 3.334,-8.43359 8.49414,-8.46436 l 16.14258,-0.09521 c 5.30273,0 8.13476,4.41016 8.13476,8.55957 v 7.874 a 8.1381,8.1381 0 0 1 -8.11718,8.51172 z"
     id="path49" />
  <path
     d="m 287.53253,24.070552 c 3.479,0 5.08136,2.92063 5.08136,5.5595 v 7.874 a 5.11985,5.11985 0 0 1 -5.1181,5.51178 h -16.14173 a 5.58388,5.58388 0 0 1 -5.51184,-5.51178 v -7.874 c 0,-3.01142 1.6416,-5.44139 5.51184,-5.46424 l 16.14173,-0.09515 0.0367,-1.1e-4 m 0,-6 -0.0719,2.3e-4 -16.14191,0.09514 c -6.7572,0.03987 -11.47647,4.75409 -11.47647,11.46413 v 7.874 a 11.52485,11.52485 0 0 0 11.51184,11.51178 h 16.14173 a 11.07454,11.07454 0 0 0 11.1181,-11.51178 v -7.874 c 0,-6.59 -4.764,-11.5595 -11.08136,-11.5595 z"
     fill="#ffffff"
     id="path51" />
  <path
     d="m 198.51971,90.897232 a 8.63291,8.63291 0 0 1 -8.51172,-8.51172 v -7.874 c 0,-5.11133 3.334,-8.4336 8.49414,-8.46387 l 16.14161,-0.09473 c 5.30371,0 8.13574,4.40918 8.13574,8.5586 v 7.874 a 8.13829,8.13829 0 0 1 -8.11817,8.51172 z"
     id="path53" />
  <path
     d="m 214.69794,68.952372 c 3.47894,0 5.08136,2.92061 5.08136,5.55948 v 7.874 a 5.11983,5.11983 0 0 1 -5.11811,5.51178 h -16.14172 a 5.58383,5.58383 0 0 1 -5.51178,-5.51178 v -7.874 c 0,-3.01141 1.64154,-5.4414 5.51178,-5.46423 l 16.14172,-0.09515 0.0368,-1e-4 m 0,-6 -0.0719,2.1e-4 -16.14191,0.09515 c -6.75714,0.03987 -11.47641,4.75409 -11.47641,11.46412 v 7.874 a 11.52481,11.52481 0 0 0 11.51178,11.51178 h 16.1416 a 11.07452,11.07452 0 0 0 11.11811,-11.51178 v -7.874 c 0,-6.59 -4.76395,-11.55948 -11.08136,-11.55948 z"
     fill="#ffffff"
     id="path55" />
  <rect
     x="88.039246"
     y="54.189224"
     width="20.566891"
     height="48.519531"
     rx="3"
     id="rect57" />
  <path
     d="m 105.6062,57.189052 v 42.51963 H 91.0393 v -42.51963 h 14.5669 m 0,-6 H 91.0393 a 6,6 0 0 0 -6,6 v 42.51963 a 6,6 0 0 0 6,5.999998 h 14.5669 a 6,6 0 0 0 6,-5.999998 v -42.51963 a 6,6 0 0 0 -6,-6 z"
     fill="#ffffff"
     id="path59" />
  <rect
     x="88.039246"
     y="54.189224"
     width="20.566891"
     height="48.519531"
     rx="3"
     fill="url(#linear-gradient)"
     id="rect61"
     style="fill:url(#linearGradient979)" />
  <path
     d="m 105.6062,57.189052 v 42.51963 H 91.0393 v -42.51963 h 14.5669 m 0,-6 H 91.0393 a 6,6 0 0 0 -6,6 v 42.51963 a 6,6 0 0 0 6,5.999998 h 14.5669 a 6,6 0 0 0 6,-5.999998 v -42.51963 a 6,6 0 0 0 -6,-6 z"
     fill="#ffffff"
     id="path63" />
  <path
     d="M 193.00799,102.70875 A 17.03212,17.03212 0 0 1 175.44061,85.929462 v -15.748 c 0,-10.3877 9.05127,-15.99219 17.56738,-15.99219 h 27.165 c 9.79,0 17.17285,6.875 17.17285,15.99219 v 15.748 c 0,12.31054 -10.26953,16.779288 -17.17285,16.779288 z m 21.67188,-30.755858 -16.14258,0.09473 c -1.51855,0.0088 -2.5293,0.43066 -2.5293,2.46387 v 7.874 a 2.58771,2.58771 0 0 0 2.51172,2.51172 h 16.1416 c 0.49707,0 2.11817,-0.18067 2.11817,-2.51172 v -7.874 c 0,-0.42774 -0.10059,-2.5586 -2.08008,-2.5586 v -3 z"
     id="path65" />
  <path
     d="m 220.17297,57.189042 c 8.62256,0 14.17322,5.87256 14.17322,12.99213 v 15.748 c 0,11.16706 -9.64813,13.77954 -14.17322,13.77954 h -27.16528 a 14.03974,14.03974 0 0 1 -14.5669,-13.77954 v -15.748 c 0,-9.06726 8.11444,-12.99213 14.5669,-12.99213 h 27.16528 m -21.6535,30.70861 h 16.14168 a 5.11981,5.11981 0 0 0 5.11811,-5.51177 v -7.874 c 0,-2.639 -1.602,-5.55961 -5.08136,-5.55948 l -0.0367,10e-5 -16.14172,0.09516 c -3.87024,0.02282 -5.51178,2.4528 -5.51178,5.46422 v 7.874 a 5.58382,5.58382 0 0 0 5.51178,5.51177 m 21.6535,-36.70861 h -27.16524 c -9.97034,0 -20.5669,6.65628 -20.5669,18.99213 v 15.748 a 20.0105,20.0105 0 0 0 20.5669,19.779538 h 27.16528 c 8.109,0 20.17322,-5.26758 20.17322,-19.779538 v -15.748 c 0,-10.82728 -8.67261,-18.99213 -20.17322,-18.99213 z m -21.16524,23.85581 14.77161,-0.08708 v 6.93988 h -14.77161 z"
     fill="#ffffff"
     id="path67" />
  <path
     d="M 193.00799,102.70875 A 17.03212,17.03212 0 0 1 175.44061,85.929462 v -15.748 c 0,-10.3877 9.05127,-15.99219 17.56738,-15.99219 h 27.165 c 9.79,0 17.17285,6.875 17.17285,15.99219 v 15.748 c 0,12.31054 -10.26953,16.779288 -17.17285,16.779288 z m 21.67188,-30.755858 -16.14258,0.09473 c -1.51855,0.0088 -2.5293,0.43066 -2.5293,2.46387 v 7.874 a 2.58771,2.58771 0 0 0 2.51172,2.51172 h 16.1416 c 0.49707,0 2.11817,-0.18067 2.11817,-2.51172 v -7.874 c 0,-0.42774 -0.10059,-2.5586 -2.08008,-2.5586 v -3 z"
     fill="url(#linear-gradient-2)"
     id="path69"
     style="fill:url(#linear-gradient-2)" />
  <path
     d="m 220.17297,57.189042 c 8.62256,0 14.17322,5.87256 14.17322,12.99213 v 15.748 c 0,11.16706 -9.64813,13.77954 -14.17322,13.77954 h -27.16528 a 14.03974,14.03974 0 0 1 -14.5669,-13.77954 v -15.748 c 0,-9.06726 8.11444,-12.99213 14.5669,-12.99213 h 27.16528 m -21.6535,30.70861 h 16.14168 a 5.11981,5.11981 0 0 0 5.11811,-5.51177 v -7.874 c 0,-2.639 -1.602,-5.55961 -5.08136,-5.55948 l -0.0367,10e-5 -16.14172,0.09516 c -3.87024,0.02282 -5.51178,2.4528 -5.51178,5.46422 v 7.874 a 5.58382,5.58382 0 0 0 5.51178,5.51177 m 21.6535,-36.70861 h -27.16524 c -9.97034,0 -20.5669,6.65628 -20.5669,18.99213 v 15.748 a 20.0105,20.0105 0 0 0 20.5669,19.779538 h 27.16528 c 8.109,0 20.17322,-5.26758 20.17322,-19.779538 v -15.748 c 0,-10.82728 -8.67261,-18.99213 -20.17322,-18.99213 z m -21.16524,23.85581 14.77161,-0.08708 v 6.93988 h -14.77161 z"
     fill="#ffffff"
     id="path71" />
  <path
     d="m 216.51776,57.826922 c -6.59375,0 -15.87988,-5.20606 -15.87988,-16.78028 v -15.74809 c 0.0303,-6.71241 5.60449,-15.9921901 15.99218,-15.9921901 h 31.88965 a 2.99983,2.99983 0 0 1 3,3.0000001 v 11.811 a 2.99983,2.99983 0 0 1 -3,3 h -24.41015 c -2.90528,0 -2.90528,1.89063 -2.90528,2.51172 v 8.26807 c 0,1.793 2.876,2.11767 2.90528,2.11767 h 24.41015 a 2.99984,2.99984 0 0 1 3,3 v 11.811 a 2.99983,2.99983 0 0 1 -3,3 z"
     id="path73" />
  <path
     d="m 248.51941,12.306472 v 11.81108 h -24.40943 c -2.94061,0 -5.90545,1.57335 -5.90545,5.51178 v 8.2677 c 0,3.832 4.16858,5.11809 5.90545,5.11809 h 24.40943 v 11.811 H 216.6297 c -0.0373,4.9e-4 -0.0743,7.3e-4 -0.112,7.3e-4 a 13.22393,13.22393 0 0 1 -12.8801,-13.78021 v -15.74809 c 0.021,-4.55219 3.81683,-12.99213 12.99213,-12.99213 h 31.88971 m 0,-6.0000001 H 216.6297 c -12.8963,0 -18.95679,11.3163601 -18.99207,18.9644501 l -6e-5,15.77571 a 19.17136,19.17136 0 0 0 18.8801,19.7802 l 0.112,-7.2e-4 h 31.88971 a 6,6 0 0 0 6,-6 v -11.811 a 6,6 0 0 0 -6,-6 h -24.29383 l -0.021,-0.0041 v -6.89341 h 24.31488 a 6,6 0 0 0 6,-6 v -11.811 a 6,6 0 0 0 -6,-6.0000001 z"
     fill="#ffffff"
     id="path75" />
  <path
     d="m 216.51776,57.826922 c -6.59375,0 -15.87988,-5.20606 -15.87988,-16.78028 v -15.74809 c 0.0303,-6.71241 5.60449,-15.9921901 15.99218,-15.9921901 h 31.88965 a 2.99983,2.99983 0 0 1 3,3.0000001 v 11.811 a 2.99983,2.99983 0 0 1 -3,3 h -24.41015 c -2.90528,0 -2.90528,1.89063 -2.90528,2.51172 v 8.26807 c 0,1.793 2.876,2.11767 2.90528,2.11767 h 24.41015 a 2.99984,2.99984 0 0 1 3,3 v 11.811 a 2.99983,2.99983 0 0 1 -3,3 z"
     fill="url(#linear-gradient-3)"
     id="path77"
     style="fill:url(#linear-gradient-3)" />
  <path
     d="m 248.51941,12.306472 v 11.81108 h -24.40943 c -2.94061,0 -5.90545,1.57335 -5.90545,5.51178 v 8.2677 c 0,3.832 4.16858,5.11809 5.90545,5.11809 h 24.40943 v 11.811 H 216.6297 c -0.0373,4.9e-4 -0.0743,7.3e-4 -0.112,7.3e-4 a 13.22393,13.22393 0 0 1 -12.8801,-13.78021 v -15.74809 c 0.021,-4.55219 3.81683,-12.99213 12.99213,-12.99213 h 31.88971 m 0,-6.0000001 H 216.6297 c -12.8963,0 -18.95679,11.3163601 -18.99207,18.9644501 l -6e-5,15.77571 a 19.17136,19.17136 0 0 0 18.8801,19.7802 l 0.112,-7.2e-4 h 31.88971 a 6,6 0 0 0 6,-6 v -11.811 a 6,6 0 0 0 -6,-6 h -24.29383 l -0.021,-0.0041 v -6.89341 h 24.31488 a 6,6 0 0 0 6,-6 v -11.811 a 6,6 0 0 0 -6,-6.0000001 z"
     fill="#ffffff"
     id="path79" />
  <path
     d="m 50.2453,102.70875 a 2.99881,2.99881 0 0 1 -2.57666,-1.46386 L 22.32098,58.725352 a 2.99984,2.99984 0 0 1 2.57666,-4.53613 h 16.1416 a 2.99844,2.99844 0 0 1 2.6045,1.51172 l 13.34863,23.35937 15.8081,-23.54345 a 3.00072,3.00072 0 0 1 2.49073,-1.32764 h 13.38574 a 3.00013,3.00013 0 0 1 2.58105,4.5293 L 66.06122,101.23805 a 2.99977,2.99977 0 0 1 -2.58106,1.4707 z"
     id="path81" />
  <path
     d="m 88.67706,57.189052 h 0.005 m -0.005,0 -25.19678,42.51963 H 50.24505 L 24.89764,57.189052 h 16.14174 l 15.748,27.559 18.50391,-27.559 h 13.3858 m 0.005,-6 H 75.29126 a 6,6 0 0 0 -4.98133,2.65538 l -13.11206,19.52864 -10.949,-19.16084 a 5.99993,5.99993 0 0 0 -5.20944,-3.02318 H 24.89764 a 6,6 0 0 0 -5.15371,9.07231 L 45.09132,102.781 a 6,6 0 0 0 5.15373,2.92768 h 13.23523 a 6,6 0 0 0 5.16175,-2.94118 L 93.75458,60.390032 a 6.00026,6.00026 0 0 0 -5.07251,-9.201 z m -0.005,12 z"
     fill="#ffffff"
     id="path83" />
  <path
     d="m 50.2453,102.70875 a 2.99881,2.99881 0 0 1 -2.57666,-1.46386 L 22.32098,58.725352 a 2.99984,2.99984 0 0 1 2.57666,-4.53613 h 16.1416 a 2.99844,2.99844 0 0 1 2.6045,1.51172 l 13.34863,23.35937 15.8081,-23.54345 a 3.00072,3.00072 0 0 1 2.49073,-1.32764 h 13.38574 a 3.00013,3.00013 0 0 1 2.58105,4.5293 L 66.06122,101.23805 a 2.99977,2.99977 0 0 1 -2.58106,1.4707 z"
     fill="url(#linear-gradient-4)"
     id="path85"
     style="fill:url(#linear-gradient-4)" />
  <path
     d="m 88.67706,57.189052 h 0.005 m -0.005,0 -25.19678,42.51963 H 50.24505 L 24.89764,57.189052 h 16.14174 l 15.748,27.559 18.50391,-27.559 h 13.3858 m 0.005,-6 H 75.29126 a 6,6 0 0 0 -4.98133,2.65538 l -13.11206,19.52864 -10.949,-19.16084 a 5.99993,5.99993 0 0 0 -5.20944,-3.02318 H 24.89764 a 6,6 0 0 0 -5.15371,9.07231 L 45.09132,102.781 a 6,6 0 0 0 5.15373,2.92768 h 13.23523 a 6,6 0 0 0 5.16175,-2.94118 L 93.75458,60.390032 a 6.00026,6.00026 0 0 0 -5.07251,-9.201 z m -0.005,12 z"
     fill="#ffffff"
     id="path87" />
  <path
     d="m 24.78583,57.827892 c -6.59375,0 -15.88038,-5.20654 -15.88038,-16.78076 v -15.74758 c 0.0308,-6.7124 5.60547,-15.9921801 15.99219,-15.9921801 h 31.88965 a 3.00015,3.00015 0 0 1 3,3.0000001 v 11.811 a 3.00015,3.00015 0 0 1 -3,3 H 31.98407 c -2.90528,0 -2.90528,1.89063 -2.90528,2.51172 v 8.26758 c 0,1.79345 2.876,2.11816 2.90528,2.11816 h 24.80322 a 3.00015,3.00015 0 0 1 3,3 v 11.811 a 3.00015,3.00015 0 0 1 -3,3 z"
     id="path89" />
  <path
     d="m 56.78735,12.307202 v 11.811 h -24.8031 c -2.94067,0 -5.90552,1.57336 -5.90552,5.51178 v 8.2677 c 0,3.83192 4.16864,5.1181 5.90552,5.1181 h 24.8031 v 11.811 H 24.89763 c -0.0373,4.8e-4 -0.0742,7.1e-4 -0.11191,7.1e-4 a 13.224,13.224 0 0 1 -12.8802,-13.78026 v -15.748 c 0.021,-4.5522 3.81683,-12.99213 12.99211,-12.99213 h 31.88972 m 0,-6.0000001 H 24.89763 c -12.89629,0 -18.95677,11.3163801 -18.99205,18.9644501 l -6e-5,15.77566 a 19.17144,19.17144 0 0 0 18.8802,19.78034 l 0.11191,-7.1e-4 h 31.88972 a 6,6 0 0 0 6,-6 v -11.811 a 6,6 0 0 0 -6,-6 H 32.09984 l -0.0211,-0.0042 v -6.89345 h 24.70862 a 6,6 0 0 0 6,-6 v -11.811 a 6,6 0 0 0 -6,-6.0000001 z"
     fill="#ffffff"
     id="path91" />
  <path
     d="m 24.78583,57.827892 c -6.59375,0 -15.88038,-5.20654 -15.88038,-16.78076 v -15.74758 c 0.0308,-6.7124 5.60547,-15.9921801 15.99219,-15.9921801 h 31.88965 a 3.00015,3.00015 0 0 1 3,3.0000001 v 11.811 a 3.00015,3.00015 0 0 1 -3,3 H 31.98407 c -2.90528,0 -2.90528,1.89063 -2.90528,2.51172 v 8.26758 c 0,1.79345 2.876,2.11816 2.90528,2.11816 h 24.80322 a 3.00015,3.00015 0 0 1 3,3 v 11.811 a 3.00015,3.00015 0 0 1 -3,3 z"
     fill="url(#linear-gradient-5)"
     id="path93"
     style="fill:url(#linear-gradient-5)" />
  <path
     d="m 56.78735,12.307202 v 11.811 h -24.8031 c -2.94067,0 -5.90552,1.57336 -5.90552,5.51178 v 8.2677 c 0,3.83192 4.16864,5.1181 5.90552,5.1181 h 24.8031 v 11.811 H 24.89763 c -0.0373,4.8e-4 -0.0742,7.1e-4 -0.11191,7.1e-4 a 13.224,13.224 0 0 1 -12.8802,-13.78026 v -15.748 c 0.021,-4.5522 3.81683,-12.99213 12.99211,-12.99213 h 31.88972 m 0,-6.0000001 H 24.89763 c -12.89629,0 -18.95677,11.3163801 -18.99205,18.9644501 l -6e-5,15.77566 a 19.17144,19.17144 0 0 0 18.8802,19.78034 l 0.11191,-7.1e-4 h 31.88972 a 6,6 0 0 0 6,-6 v -11.811 a 6,6 0 0 0 -6,-6 H 32.09984 l -0.0211,-0.0042 v -6.89345 h 24.70862 a 6,6 0 0 0 6,-6 v -11.811 a 6,6 0 0 0 -6,-6.0000001 z"
     fill="#ffffff"
     id="path95" />
  <path
     d="m 109.54315,102.70875 a 2.99983,2.99983 0 0 1 -3,-2.999998 v -11.81152 a 2.99983,2.99983 0 0 1 3,-3 h 4.42676 a 15.26111,15.26111 0 0 1 -3.92188,-3.09375 16.56787,16.56787 0 0 1 -4.1997,-11.21094 c 0,-8.15137 5.73193,-16.40332 16.687,-16.40332 h 34.64552 a 3.00015,3.00015 0 0 1 3,3 v 12.2041 a 2.99984,2.99984 0 0 1 -3,3 h -3.394 a 16.02847,16.02847 0 0 1 7.92383,14.125 16.48018,16.48018 0 0 1 -4.10453,11.07423 15.82272,15.82272 0 0 1 -12.23633,5.116208 z"
     id="path97" />
  <path
     d="m 157.18097,57.189042 v 12.20472 h -34.64563 c -3.95984,0 -3.73853,3.937 0,3.937 h 22.83459 c 17.79022,0 17.78534,26.37794 0,26.37794 h -35.82672 v -11.81105 h 34.25194 c 4.09937,0 3.82087,-3.937 0,-3.937 h -21.25981 c -18.28162,0 -18.21692,-26.7716 0,-26.7716 h 34.64563 m 0,-6 h -34.64563 c -12.92465,0 -19.68695,9.76124 -19.68695,19.40361 a 19.72089,19.72089 0 0 0 3.93683,11.975 5.99911,5.99911 0 0 0 -3.242,5.33 v 11.811 a 6,6 0 0 0 6,5.999998 h 35.82672 c 12.69739,0 19.34082,-9.653948 19.34082,-19.190318 a 19.59371,19.59371 0 0 0 -4.12127,-12.18614 5.99364,5.99364 0 0 0 2.59149,-4.93847 v -12.20469 a 6,6 0 0 0 -6,-6 z"
     fill="#ffffff"
     id="path99" />
  <path
     d="m 109.54315,102.70875 a 2.99983,2.99983 0 0 1 -3,-2.999998 v -11.81152 a 2.99983,2.99983 0 0 1 3,-3 h 4.42676 a 15.26111,15.26111 0 0 1 -3.92188,-3.09375 16.56787,16.56787 0 0 1 -4.1997,-11.21094 c 0,-8.15137 5.73193,-16.40332 16.687,-16.40332 h 34.64552 a 3.00015,3.00015 0 0 1 3,3 v 12.2041 a 2.99984,2.99984 0 0 1 -3,3 h -3.394 a 16.02847,16.02847 0 0 1 7.92383,14.125 16.48018,16.48018 0 0 1 -4.10453,11.07423 15.82272,15.82272 0 0 1 -12.23633,5.116208 z"
     fill="url(#linear-gradient-6)"
     id="path101"
     style="fill:url(#linear-gradient-6)" />
  <path
     d="m 157.18097,57.189042 v 12.20472 h -34.64563 c -3.95984,0 -3.73853,3.937 0,3.937 h 22.83459 c 17.79022,0 17.78534,26.37794 0,26.37794 h -35.82672 v -11.81105 h 34.25194 c 4.09937,0 3.82087,-3.937 0,-3.937 h -21.25981 c -18.28162,0 -18.21692,-26.7716 0,-26.7716 h 34.64563 m 0,-6 h -34.64563 c -12.92465,0 -19.68695,9.76124 -19.68695,19.40361 a 19.72089,19.72089 0 0 0 3.93683,11.975 5.99911,5.99911 0 0 0 -3.242,5.33 v 11.811 a 6,6 0 0 0 6,5.999998 h 35.82672 c 12.69739,0 19.34082,-9.653948 19.34082,-19.190318 a 19.59371,19.59371 0 0 0 -4.12127,-12.18614 5.99364,5.99364 0 0 0 2.59149,-4.93847 v -12.20469 a 6,6 0 0 0 -6,-6 z"
     fill="#ffffff"
     id="path103" />
  <path
     d="M 73.71649,57.826922 A 16.618,16.618 0 0 1 56.54315,41.047132 v -15.74758 c 0,-10.499 8.63916,-15.9921801 17.17334,-15.9921801 h 27.16553 c 9.79,0 17.17285,6.8750001 17.17285,15.9921801 v 15.74758 c 0,12.311 -10.27,16.77979 -17.17285,16.77979 z m 21.6709,-30.75637 -16.1416,0.09521 c -1.51807,0.0088 -2.5293,0.43164 -2.5293,2.46436 v 7.874 a 2.5877,2.5877 0 0 0 2.51172,2.51172 h 16.1416 c 0.49707,0 2.11816,-0.18115 2.11816,-2.51172 v -7.874 c 0,-0.42725 -0.10058,-2.55957 -2.08154,-2.55957 v -3 z"
     id="path105" />
  <path
     d="m 100.88177,12.307202 c 8.6225,0 14.17322,5.87256 14.17322,12.99213 v 15.748 c 0,11.16707 -9.64813,13.77955 -14.17322,13.77955 H 73.71649 c -10.20386,0 -14.17322,-8.20989 -14.17322,-13.77955 v -15.748 c 0,-9.06726 7.72077,-12.99213 14.17322,-12.99213 h 27.16528 m -21.6535,30.70861 h 16.14172 a 5.11981,5.11981 0 0 0 5.11811,-5.51175 v -7.87406 c 0,-2.639 -1.60187,-5.55966 -5.08124,-5.55948 l -0.0369,1.1e-4 -16.14172,0.09515 c -3.87024,0.02283 -5.51178,2.45281 -5.51178,5.46422 v 7.87406 a 5.58381,5.58381 0 0 0 5.51178,5.51175 M 100.88174,6.3072019 H 73.71646 c -9.77948,0 -20.17323,6.6562801 -20.17323,18.9921301 v 15.748 c 0,9.58866 7.07023,19.77955 20.17323,19.77955 h 27.16528 c 8.109,0 20.17322,-5.2676 20.17322,-19.77955 v -15.748 c 0,-10.82727 -8.67261,-18.9921301 -20.17322,-18.9921301 z M 79.71646,30.163012 94.48807,30.075942 v 6.93987 H 79.71646 Z"
     fill="#ffffff"
     id="path107" />
  <path
     d="M 73.71649,57.826922 A 16.618,16.618 0 0 1 56.54315,41.047132 v -15.74758 c 0,-10.499 8.63916,-15.9921801 17.17334,-15.9921801 h 27.16553 c 9.79,0 17.17285,6.8750001 17.17285,15.9921801 v 15.74758 c 0,12.311 -10.27,16.77979 -17.17285,16.77979 z m 21.6709,-30.75637 -16.1416,0.09521 c -1.51807,0.0088 -2.5293,0.43164 -2.5293,2.46436 v 7.874 a 2.5877,2.5877 0 0 0 2.51172,2.51172 h 16.1416 c 0.49707,0 2.11816,-0.18115 2.11816,-2.51172 v -7.874 c 0,-0.42725 -0.10058,-2.55957 -2.08154,-2.55957 v -3 z"
     fill="url(#linear-gradient-7)"
     id="path109"
     style="fill:url(#linear-gradient-7)" />
  <path
     d="m 100.88177,12.307202 c 8.6225,0 14.17322,5.87256 14.17322,12.99213 v 15.748 c 0,11.16707 -9.64813,13.77955 -14.17322,13.77955 H 73.71649 c -10.20386,0 -14.17322,-8.20989 -14.17322,-13.77955 v -15.748 c 0,-9.06726 7.72077,-12.99213 14.17322,-12.99213 h 27.16528 m -21.6535,30.70861 h 16.14172 a 5.11981,5.11981 0 0 0 5.11811,-5.51175 v -7.87406 c 0,-2.639 -1.60187,-5.55966 -5.08124,-5.55948 l -0.0369,1.1e-4 -16.14172,0.09515 c -3.87024,0.02283 -5.51178,2.45281 -5.51178,5.46422 v 7.87406 a 5.58381,5.58381 0 0 0 5.51178,5.51175 M 100.88174,6.3072019 H 73.71646 c -9.77948,0 -20.17323,6.6562801 -20.17323,18.9921301 v 15.748 c 0,9.58866 7.07023,19.77955 20.17323,19.77955 h 27.16528 c 8.109,0 20.17322,-5.2676 20.17322,-19.77955 v -15.748 c 0,-10.82727 -8.67261,-18.9921301 -20.17322,-18.9921301 z M 79.71646,30.163012 94.48807,30.075942 v 6.93987 H 79.71646 Z"
     fill="#ffffff"
     id="path111" />
  <path
     d="m 131.19647,57.433362 c -7.92139,0 -16.38574,-4.20117 -16.38574,-15.99219 v -29.13378 a 3.00015,3.00015 0 0 1 3,-3.0000001 h 14.17334 a 3.00015,3.00015 0 0 1 3,3.0000001 v 25.19677 a 2.30183,2.30183 0 0 0 0.70752,1.84424 3.18855,3.18855 0 0 0 2.10693,0.668 l 15.44531,-4.9e-4 a 3.00015,3.00015 0 0 1 3,3 v 11.41745 a 3.00015,3.00015 0 0 1 -3,3 z"
     id="path113" />
  <path
     d="m 131.98415,12.307202 v 25.19684 c 0,3.5853 2.676,5.51231 5.81448,5.51231 l 0.091,-5.3e-4 h 15.35431 v 11.4173 h -22.04723 c -6.25958,0 -13.3858,-2.81366 -13.3858,-12.992 v -29.13392 h 14.17324 m 0,-6.0000001 h -14.17324 a 6,6 0 0 0 -6,6.0000001 v 29.13387 c 0,11.53723 7.60938,18.99205 19.3858,18.99205 h 22.04725 a 6,6 0 0 0 6,-6 v -11.4173 a 6,6 0 0 0 -6,-6 h -15.25981 v -24.70862 a 6,6 0 0 0 -6,-6.0000001 z"
     fill="#ffffff"
     id="path115" />
  <path
     d="m 131.19647,57.433362 c -7.92139,0 -16.38574,-4.20117 -16.38574,-15.99219 v -29.13378 a 3.00015,3.00015 0 0 1 3,-3.0000001 h 14.17334 a 3.00015,3.00015 0 0 1 3,3.0000001 v 25.19677 a 2.30183,2.30183 0 0 0 0.70752,1.84424 3.18855,3.18855 0 0 0 2.10693,0.668 l 15.44531,-4.9e-4 a 3.00015,3.00015 0 0 1 3,3 v 11.41745 a 3.00015,3.00015 0 0 1 -3,3 z"
     fill="url(#linear-gradient-8)"
     id="path117"
     style="fill:url(#linear-gradient-8)" />
  <path
     d="m 131.98415,12.307202 v 25.19684 c 0,3.5853 2.676,5.51231 5.81448,5.51231 l 0.091,-5.3e-4 h 15.35431 v 11.4173 h -22.04723 c -6.25958,0 -13.3858,-2.81366 -13.3858,-12.992 v -29.13392 h 14.17324 m 0,-6.0000001 h -14.17324 a 6,6 0 0 0 -6,6.0000001 v 29.13387 c 0,11.53723 7.60938,18.99205 19.3858,18.99205 h 22.04725 a 6,6 0 0 0 6,-6 v -11.4173 a 6,6 0 0 0 -6,-6 h -15.25981 v -24.70862 a 6,6 0 0 0 -6,-6.0000001 z"
     fill="#ffffff"
     id="path119" />
  <path
     d="m 265.84198,57.826922 a 17.03251,17.03251 0 0 1 -17.56641,-16.77979 v -15.74758 c 0,-10.3872 9.05078,-15.9921801 17.56641,-15.9921801 h 27.166 c 9.79,0 17.17286,6.8750001 17.17286,15.9921801 v 15.74758 c 0,12.311 -10.26954,16.77979 -17.17286,16.77979 z m 21.67187,-30.75637 -16.14257,0.09521 c -1.51856,0.0088 -2.5293,0.43164 -2.5293,2.46436 v 7.874 a 2.5877,2.5877 0 0 0 2.51172,2.51172 h 16.14258 c 0.49707,0 2.11718,-0.18115 2.11718,-2.51172 v -7.874 c 0,-0.42725 -0.10058,-2.55957 -2.08105,-2.55957 v -3 z"
     id="path121" />
  <path
     d="m 293.00757,12.307202 c 8.62249,0 14.17321,5.87256 14.17321,12.99213 v 15.748 c 0,11.16707 -9.64813,13.77955 -14.17321,13.77955 h -27.16535 a 14.03978,14.03978 0 0 1 -14.56689,-13.77955 v -15.748 c 0,-9.06726 8.11444,-12.99213 14.56689,-12.99213 h 27.16535 m -21.65351,30.70861 h 16.14173 a 5.11983,5.11983 0 0 0 5.1181,-5.51175 v -7.87406 c 0,-2.639 -1.602,-5.5596 -5.08136,-5.55948 l -0.0367,1.1e-4 -16.14173,0.09515 c -3.87024,0.02283 -5.51184,2.45281 -5.51184,5.46422 v 7.87406 a 5.58386,5.58386 0 0 0 5.51184,5.51175 M 293.00757,6.3072019 h -27.16535 c -9.97033,0 -20.56689,6.6562801 -20.56689,18.9921301 v 15.748 a 20.01048,20.01048 0 0 0 20.56689,19.77955 h 27.16535 c 8.109,0 20.17321,-5.2676 20.17321,-19.77955 v -15.748 c 0,-10.82727 -8.6726,-18.9921301 -20.17321,-18.9921301 z m -21.16535,23.8558101 14.77167,-0.08707 v 6.93987 h -14.77167 z"
     fill="#ffffff"
     id="path123" />
  <path
     d="m 265.84198,57.826922 a 17.03251,17.03251 0 0 1 -17.56641,-16.77979 v -15.74758 c 0,-10.3872 9.05078,-15.9921801 17.56641,-15.9921801 h 27.166 c 9.79,0 17.17286,6.8750001 17.17286,15.9921801 v 15.74758 c 0,12.311 -10.26954,16.77979 -17.17286,16.77979 z m 21.67187,-30.75637 -16.14257,0.09521 c -1.51856,0.0088 -2.5293,0.43164 -2.5293,2.46436 v 7.874 a 2.5877,2.5877 0 0 0 2.51172,2.51172 h 16.14258 c 0.49707,0 2.11718,-0.18115 2.11718,-2.51172 v -7.874 c 0,-0.42725 -0.10058,-2.55957 -2.08105,-2.55957 v -3 z"
     fill="url(#linear-gradient-9)"
     id="path125"
     style="fill:url(#linear-gradient-9)" />
  <path
     d="m 293.00757,12.307202 c 8.62249,0 14.17321,5.87256 14.17321,12.99213 v 15.748 c 0,11.16707 -9.64813,13.77955 -14.17321,13.77955 h -27.16535 a 14.03978,14.03978 0 0 1 -14.56689,-13.77955 v -15.748 c 0,-9.06726 8.11444,-12.99213 14.56689,-12.99213 h 27.16535 m -21.65351,30.70861 h 16.14173 a 5.11983,5.11983 0 0 0 5.1181,-5.51175 v -7.87406 c 0,-2.639 -1.602,-5.5596 -5.08136,-5.55948 l -0.0367,1.1e-4 -16.14173,0.09515 c -3.87024,0.02283 -5.51184,2.45281 -5.51184,5.46422 v 7.87406 a 5.58386,5.58386 0 0 0 5.51184,5.51175 M 293.00757,6.3072019 h -27.16535 c -9.97033,0 -20.56689,6.6562801 -20.56689,18.9921301 v 15.748 a 20.01048,20.01048 0 0 0 20.56689,19.77955 h 27.16535 c 8.109,0 20.17321,-5.2676 20.17321,-19.77955 v -15.748 c 0,-10.82727 -8.6726,-18.9921301 -20.17321,-18.9921301 z m -21.16535,23.8558101 14.77167,-0.08707 v 6.93987 h -14.77167 z"
     fill="#ffffff"
     id="path127" />
  <rect
     x="158.11786"
     y="54.189224"
     width="20.566891"
     height="48.519531"
     rx="3"
     id="rect129" />
  <path
     d="m 175.68487,57.189052 v 42.51963 h -14.56689 v -42.51963 h 14.56689 m 0,-6 h -14.56689 a 6,6 0 0 0 -6,6 v 42.51963 a 6,6 0 0 0 6,5.999998 h 14.56689 a 6,6 0 0 0 6,-5.999998 v -42.51963 a 6,6 0 0 0 -6,-6 z"
     fill="#ffffff"
     id="path131" />
  <rect
     x="158.11786"
     y="54.189224"
     width="20.566891"
     height="48.519531"
     rx="3"
     fill="url(#linear-gradient-10)"
     id="rect133"
     style="fill:url(#linear-gradient-10)" />
  <path
     d="m 175.68487,57.189052 v 42.51963 h -14.56689 v -42.51963 h 14.56689 m 0,-6 h -14.56689 a 6,6 0 0 0 -6,6 v 42.51963 a 6,6 0 0 0 6,5.999998 h 14.56689 a 6,6 0 0 0 6,-5.999998 v -42.51963 a 6,6 0 0 0 -6,-6 z"
     fill="#ffffff"
     id="path135" />
  <path
     d="m 167.41715,57.433362 a 15.32114,15.32114 0 0 1 -10.93359,-4.5 16.31707,16.31707 0 0 1 -4.70215,-11.5 l 0.0371,-29.12988 a 2.99994,2.99994 0 0 1 3,-2.9960901 h 46.06348 a 2.99984,2.99984 0 0 1 3,3.0000001 v 10.62988 a 2.9842,2.9842 0 0 1 -0.73633,1.96826 2.98644,2.98644 0 0 1 0.73633,1.96875 v 10.62988 a 3.00061,3.00061 0 0 1 -1.8125,2.75586 3.00062,3.00062 0 0 1 1.8125,2.75586 v 11.41748 a 2.99984,2.99984 0 0 1 -3,3 z"
     id="path137" />
  <path
     d="m 200.88171,12.307202 v 10.62987 h -31.88977 v 3.937 h 31.88977 v 10.62997 h -31.88977 c 0,3.90833 2.87067,5.51178 5.90552,5.51178 h 25.98425 v 11.4173 h -33.46456 a 12.72671,12.72671 0 0 1 -12.63584,-12.99207 l 0.0374,-29.13385 h 46.063 m 0,-6.0000001 h -46.063 a 6,6 0 0 0 -6,5.9923001 l -0.0374,29.13385 a 19.33483,19.33483 0 0 0 5.57825,13.61871 18.3015,18.3015 0 0 0 13.05759,5.38106 h 33.46454 a 6,6 0 0 0 6,-6 v -11.4173 a 5.97493,5.97493 0 0 0 -0.669,-2.75589 5.97489,5.97489 0 0 0 0.669,-2.75589 v -10.62994 a 5.99189,5.99189 0 0 0 -0.33038,-1.96851 5.992,5.992 0 0 0 0.33038,-1.96852 v -10.62987 a 6,6 0 0 0 -6,-6.0000001 z"
     fill="#ffffff"
     id="path139" />
  <path
     d="m 167.41715,57.433362 a 15.32114,15.32114 0 0 1 -10.93359,-4.5 16.31707,16.31707 0 0 1 -4.70215,-11.5 l 0.0371,-29.12988 a 2.99994,2.99994 0 0 1 3,-2.9960901 h 46.06348 a 2.99984,2.99984 0 0 1 3,3.0000001 v 10.62988 a 2.9842,2.9842 0 0 1 -0.73633,1.96826 2.98644,2.98644 0 0 1 0.73633,1.96875 v 10.62988 a 3.00061,3.00061 0 0 1 -1.8125,2.75586 3.00062,3.00062 0 0 1 1.8125,2.75586 v 11.41748 a 2.99984,2.99984 0 0 1 -3,3 z"
     fill="url(#linear-gradient-11)"
     id="path141"
     style="fill:url(#linear-gradient-11)" />
  <path
     d="m 200.88171,12.307202 v 10.62987 h -31.88977 v 3.937 h 31.88977 v 10.62997 h -31.88977 c 0,3.90833 2.87067,5.51178 5.90552,5.51178 h 25.98425 v 11.4173 h -33.46456 a 12.72671,12.72671 0 0 1 -12.63584,-12.99207 l 0.0374,-29.13385 h 46.063 m 0,-6.0000001 h -46.063 a 6,6 0 0 0 -6,5.9923001 l -0.0374,29.13385 a 19.33483,19.33483 0 0 0 5.57825,13.61871 18.3015,18.3015 0 0 0 13.05759,5.38106 h 33.46454 a 6,6 0 0 0 6,-6 v -11.4173 a 5.97493,5.97493 0 0 0 -0.669,-2.75589 5.97489,5.97489 0 0 0 0.669,-2.75589 v -10.62994 a 5.99189,5.99189 0 0 0 -0.33038,-1.96851 5.992,5.992 0 0 0 0.33038,-1.96852 v -10.62987 a 6,6 0 0 0 -6,-6.0000001 z"
     fill="#ffffff"
     id="path143" />
  <path
     d="m 276.47186,102.70875 a 2.99952,2.99952 0 0 1 -3,-2.999998 v -25.19726 c 0,-1.63868 -0.10156,-2.06934 -2.57226,-2.11914 l -16.624,10e-4 v 27.3154 a 2.99952,2.99952 0 0 1 -3,2.999998 h -14.56745 a 2.99952,2.99952 0 0 1 -3,-2.999998 v -42.51953 a 2.99983,2.99983 0 0 1 3,-3 h 40.5518 a 16.62675,16.62675 0 0 1 16.77929,16.37891 v 29.14062 a 2.99952,2.99952 0 0 1 -3,2.999998 z"
     id="path145" />
  <path
     d="m 277.25952,57.189042 a 13.58554,13.58554 0 0 1 13.77954,13.3858 v 29.13385 h -14.56691 v -25.19684 c 0,-4.2052 -2.50116,-5.05792 -5.51184,-5.11809 h -19.685 v 30.31493 h -14.5669 v -42.51965 h 40.55109 m 0,-6 h -40.55107 a 6,6 0 0 0 -6,6 v 42.51965 a 6,6 0 0 0 6,5.999998 h 14.5669 a 6,6 0 0 0 6,-5.999998 v -24.31493 h 13.19682 v 24.31493 a 6,6 0 0 0 6,5.999998 h 14.56689 a 6,6 0 0 0 6,-5.999998 v -29.13385 a 19.63378,19.63378 0 0 0 -19.77954,-19.3858 z"
     fill="#ffffff"
     id="path147" />
  <path
     d="m 276.47186,102.70875 a 2.99952,2.99952 0 0 1 -3,-2.999998 v -25.19726 c 0,-1.63868 -0.10156,-2.06934 -2.57226,-2.11914 l -16.624,10e-4 v 27.3154 a 2.99952,2.99952 0 0 1 -3,2.999998 h -14.56745 a 2.99952,2.99952 0 0 1 -3,-2.999998 v -42.51953 a 2.99983,2.99983 0 0 1 3,-3 h 40.5518 a 16.62675,16.62675 0 0 1 16.77929,16.37891 v 29.14062 a 2.99952,2.99952 0 0 1 -3,2.999998 z"
     fill="url(#linear-gradient-12)"
     id="path149"
     style="fill:url(#linear-gradient-12)" />
  <path
     d="m 277.25952,57.189042 a 13.58554,13.58554 0 0 1 13.77954,13.3858 v 29.13385 h -14.56691 v -25.19684 c 0,-4.2052 -2.50116,-5.05792 -5.51184,-5.11809 h -19.685 v 30.31493 h -14.5669 v -42.51965 h 40.55109 m 0,-6 h -40.55107 a 6,6 0 0 0 -6,6 v 42.51965 a 6,6 0 0 0 6,5.999998 h 14.5669 a 6,6 0 0 0 6,-5.999998 v -24.31493 h 13.19682 v 24.31493 a 6,6 0 0 0 6,5.999998 h 14.56689 a 6,6 0 0 0 6,-5.999998 v -29.13385 a 19.63378,19.63378 0 0 0 -19.77954,-19.3858 z"
     fill="#ffffff"
     id="path151" />
  <path
     d="m 61.58559,57.668452 a 16.73822,16.73822 0 0 0 4.92125,2.47293 l -9.092,13.3735 -6.90206,-12.78295 h 6.2746 a 5.17033,5.17033 0 0 0 3.74016,-1.341 4.38881,4.38881 0 0 0 1.05805,-1.72248 z M 23.32284,6.0075519 A 17.07555,17.07555 0 0 0 9.92472,11.814632 16.35291,16.35291 0 0 0 6.00002,22.149262 v 21.66586 a 17.82671,17.82671 0 0 0 4.03543,11.03591 14.39245,14.39245 0 0 0 9.54723,5.40107 l 26.91926,44.611168 0.689,1.14419 h 19.95568 l 0.70128,-1.10728 17.67961,-28.100358 v 22.92073 a 6.72342,6.72342 0 0 0 1.32874,4.244588 5.87661,5.87661 0 0 0 4.57676,2.04233 h 57.87395 a 13.86188,13.86188 0 0 0 5.95472,-1.52559 c 0.53076,-0.25405 0.98079,-0.5636 1.46407,-0.84891 a 5.44033,5.44033 0 0 0 4.39222,2.3745 h 14.936 c 0.008,8e-5 0.0163,0 0.0246,0 a 6.28413,6.28413 0 0 0 4.73671,-2.01771 5.96712,5.96712 0 0 0 0.41831,-0.57825 17.55023,17.55023 0 0 0 8.6245,2.596 h 33.21846 l 0.13533,-0.0123 c 5.424,-0.66693 7.56192,-1.704 9.0059,-2.596 a 5.5211,5.5211 0 0 0 4.49064,2.60824 h 14.96062 a 6.18825,6.18825 0 0 0 3.70324,-1.26722 5.75748,5.75748 0 0 0 2.596,-4.63828 V 75.692552 h 9.84251 a 3.35527,3.35527 0 0 1 1.94389,0.70128 1.94767,1.94767 0 0 1 0.812,1.66092 v 22.059498 a 5.57325,5.57325 0 0 0 1.47638,3.67864 5.78747,5.78747 0 0 0 4.42913,2.21457 h 15.35431 a 6.404,6.404 0 0 0 5.9055,-5.90549 V 69.639402 l -0.0246,-0.14764 a 19.27383,19.27383 0 0 0 -2.68207,-8.75983 h 1.79625 c 0.0419,0.0024 0.0812,-0.002 0.123,0 4.50978,0.19437 8.47232,-2.26719 11.31889,-5.32726 2.873,-3.08845 4.82283,-6.80342 4.82283,-10.42076 v -22.84692 a 16.239,16.239 0 0 0 -4.39222,-10.66682 16.76067,16.76067 0 0 0 -12.53693,-5.4626201 h -33.46451 a 16.65253,16.65253 0 0 0 -9.32579,3.07579 6.06662,6.06662 0 0 0 -0.54133,-1.00886 4.98262,4.98262 0 0 0 -3.91237,-2.06693 H 215.0549 a 15.20385,15.20385 0 0 0 -7.48031,1.9562 v -1.9562 H 148.91324 V 36.322552 h -7.50486 a 4.23071,4.23071 0 0 1 -1.9562,-0.566 1.3661,1.3661 0 0 1 -0.77515,-1.40256 v -22.8346 a 5.70224,5.70224 0 0 0 -5.9055,-5.5118401 h -14.96061 a 5.737,5.737 0 0 0 -4.20768,1.9562 c -0.14735,0.162 -0.22657,0.35791 -0.35679,0.529 a 14.6327,14.6327 0 0 0 -7.64024,-2.4852 H 70.17315 a 14.59675,14.59675 0 0 0 -8.5999,3.07579 5.12954,5.12954 0 0 0 -1.0211,-1.46405 5.26106,5.26106 0 0 0 -3.76479,-1.61174 z"
     fill="#ffffff"
     id="path153" />
  <path
     d="m 59.54327,13.881552 c 1.98388,-1.928 5.83163,-5.5118301 10.62988,-5.5118301 h 35.433 c 3.252,0 5.96535,1.8540001 8.6614,3.5433001 a 3.91437,3.91437 0 0 1 3.54331,-3.5433001 h 14.96061 a 3.43467,3.43467 0 0 1 3.5433,3.1496001 v 22.83462 c 0,3.1806 3.1988,4.35465 5.1181,4.33071 h 9.84251 V 8.3697219 h 53.93695 v 4.3307001 a 13.47932,13.47932 0 0 1 9.84251,-4.3307001 h 33.85831 c 1.7538,0 2.67767,1.8791001 2.75591,3.1496001 v 1.96851 c 2.36169,-2.47382 6.457,-5.1181101 11.02361,-5.1181101 h 33.46448 a 14.45118,14.45118 0 0 1 14.56692,13.7795101 v 22.83462 c 0,5.263 -6.58934,13.77372 -13.77952,13.38581 h -6.6929 c 4.83052,5.23217 4.71292,8.20541 5.1181,11.41731 V 100.1019 a 4.07067,4.07067 0 0 1 -3.5433,3.5433 h -15.3543 c -2.21716,0 -3.53453,-2.41558 -3.54331,-3.5433 V 78.054682 c 0,-2.98758 -2.7483,-4.72 -5.1181,-4.72441 H 255.60603 V 100.1019 c 0,2.43434 -2.8581,3.5433 -3.937,3.5433 h -14.96062 c -1.38746,0 -2.86437,-1.24936 -3.5433,-3.5433 -2.57135,1.22211 -2.38979,2.57851 -10.23621,3.5433 h -33.07082 c -3.307,0 -7.6282,-2.06026 -9.84251,-3.936998 a 3.75271,3.75271 0 0 1 -3.937,3.936998 h -14.96062 c -2.57387,0 -3.1496,-2.5496 -3.1496,-3.936998 a 13.52032,13.52032 0 0 1 -8.66141,3.936998 H 91.43299 c -2.56081,0 -3.527,-1.73939 -3.5433,-3.936998 V 68.605872 L 65.84247,103.6452 H 48.51966 l -27.559,-45.669238 c -7.46306,0 -12.58069,-7.59845 -12.59841,-14.17321 v -21.65352 c 0,-5.11778 3.99037,-13.7795101 14.96062,-13.7795101 h 33.46452 a 2.72729,2.72729 0 0 1 2.75591,2.3622001 z m 11.02361,44.48813 c -4.6992,0 -8.446,-2.73643 -11.02361,-5.5118 v 2.7559 c -0.0486,1.94507 -0.8656,2.7559 -2.75591,2.7559 H 46.55115 l 10.6299,19.685 z"
     id="path155" />
  <path
     d="m 157.18095,57.189042 v 12.20471 h -34.64563 c -3.95982,0 -3.73848,3.937 0,3.937 h 22.83462 c 17.79021,0 17.78536,26.37792 0,26.37792 h -35.82673 v -11.811 h 34.25194 c 4.09938,0 3.82088,-3.937 0,-3.937 h -21.25983 c -18.28157,0 -18.21688,-26.77162 0,-26.77162 z m 79.52746,0 h 40.55114 a 13.58553,13.58553 0 0 1 13.77951,13.38581 v 29.13382 h -14.56691 v -25.19682 c 0,-4.2052 -2.50112,-5.05789 -5.51181,-5.1181 h -19.685 v 30.31492 h -14.56693 z m -38.18893,11.85858 c -3.87023,0.02284 -5.5118,2.4528 -5.5118,5.46423 v 7.874 a 5.58387,5.58387 0 0 0 5.5118,5.5118 h 16.14172 a 5.11984,5.11984 0 0 0 5.1181,-5.5118 v -7.874 c 0,-2.64825 -1.61339,-5.58 -5.1181,-5.55938 z m -5.5118,-11.85858 H 220.173 c 8.6225,0 14.17321,5.87257 14.17321,12.99211 v 15.748 c 0,11.16705 -9.64813,13.77951 -14.17321,13.77951 h -27.16532 a 14.03975,14.03975 0 0 1 -14.56691,-13.77951 v -15.748 c 0,-9.06727 8.11444,-12.99211 14.56691,-12.99211 z m -31.88973,0 h 14.56691 v 42.51963 h -14.56691 z m -70.07866,0 h 14.56692 v 42.51963 H 91.03929 Z m -66.14165,0 h 16.14171 l 15.748,27.559 18.50392,-27.559 h 13.38581 l -25.19681,42.51963 h -13.2352 z m 129.92111,-44.88184 h 46.06293 v 10.62991 h -31.88972 v 3.937 h 31.88972 v 10.62991 h -31.88972 c 0,3.90834 2.87067,5.5118 5.9055,5.5118 h 25.98422 v 11.41731 H 167.41715 A 12.7267,12.7267 0 0 1 154.7813,41.441022 Z m -37.00783,0 h 14.17323 v 25.19682 c 0,3.61979 2.72806,5.54938 5.9055,5.5118 h 15.35431 v 11.41731 h -22.04723 c -6.25957,0 -13.38581,-2.8137 -13.38581,-12.99211 z m 130.7085,-7.1e-4 H 216.6297 c -9.17531,0 -12.97114,8.43991 -12.99211,12.99211 v 15.748 a 13.21976,13.21976 0 0 0 12.99211,13.77952 h 31.88972 v -11.811 H 224.11 c -1.73688,0 -5.9055,-1.28618 -5.9055,-5.11811 v -8.26771 c 0,-3.93842 2.96486,-5.5118 5.9055,-5.5118 h 24.40942 z m 22.83462,11.85931 c -3.87022,0.02282 -5.5118,2.4528 -5.5118,5.46423 v 7.874 a 5.58388,5.58388 0 0 0 5.5118,5.51181 h 16.14172 a 5.11984,5.11984 0 0 0 5.1181,-5.51181 v -7.874 c 0,-2.64825 -1.61339,-5.58 -5.1181,-5.55939 z m -5.5118,-11.85859 h 27.16532 c 8.6225,0 14.17321,5.87258 14.17321,12.99211 v 15.748 c 0,11.167 -9.64813,13.77949 -14.17321,13.77949 h -27.16532 a 14.03974,14.03974 0 0 1 -14.56691,-13.77951 v -15.748 c 0,-9.06727 8.11444,-12.99211 14.56691,-12.99211 z m -186.614,11.85858 c -3.87023,0.02281 -5.5118,2.45279 -5.5118,5.46422 v 7.874 a 5.58387,5.58387 0 0 0 5.5118,5.5118 h 16.14172 a 5.11984,5.11984 0 0 0 5.1181,-5.5118 v -7.874 c 0,-2.64825 -1.61339,-5.58 -5.1181,-5.55938 z m -5.5118,-11.85859 h 27.16532 c 8.62249,0 14.17321,5.87257 14.17321,12.99211 v 15.748 c 0,11.16705 -9.64812,13.77951 -14.17321,13.77951 H 73.71648 c -10.20384,0 -14.17321,-8.20986 -14.17321,-13.77951 v -15.748 c 0,-9.06727 7.72074,-12.99211 14.17321,-12.99211 z m -16.92912,0 H 24.89764 c -9.1753,0 -12.97114,8.43991 -12.99211,12.99211 v 15.748 a 13.21975,13.21975 0 0 0 12.99211,13.77951 h 31.88972 v -11.811 H 31.98424 c -1.73687,0 -5.9055,-1.28618 -5.9055,-5.1181 v -8.26771 c 0,-3.93842 2.96485,-5.5118 5.9055,-5.5118 h 24.80312 z"
     fill="url(#linear-gradient-13)"
     id="path157"
     style="fill:url(#linear-gradient-13)" />
  <metadata
     id="metadata977">
    <rdf:RDF>
      <cc:Work
         rdf:about="">
        <dc:title>logo</dc:title>
      </cc:Work>
    </rdf:RDF>
  </metadata>
</svg>
