<?xml version="1.0" encoding="UTF-8" standalone="no"?>
<svg
   viewBox="0 0 514 86.580002"
   version="1.1"
   id="svg44"
   sodipodi:docname="dragon.svg"
   width="514"
   height="86.580002"
   inkscape:version="1.1 (c68e22c387, 2021-05-23)"
   xmlns:inkscape="http://www.inkscape.org/namespaces/inkscape"
   xmlns:sodipodi="http://sodipodi.sourceforge.net/DTD/sodipodi-0.dtd"
   xmlns="http://www.w3.org/2000/svg"
   xmlns:svg="http://www.w3.org/2000/svg">
  <sodipodi:namedview
     id="namedview46"
     pagecolor="#ffffff"
     bordercolor="#666666"
     borderopacity="1.0"
     inkscape:pageshadow="2"
     inkscape:pageopacity="0.0"
     inkscape:pagecheckerboard="0"
     showgrid="false"
     fit-margin-top="0"
     fit-margin-left="0"
     fit-margin-right="0"
     fit-margin-bottom="0"
     inkscape:zoom="1.113"
     inkscape:cx="257.4124"
     inkscape:cy="43.126685"
     inkscape:window-width="1920"
     inkscape:window-height="1138"
     inkscape:window-x="-8"
     inkscape:window-y="-8"
     inkscape:window-maximized="1"
     inkscape:current-layer="svg44" />
  <defs
     id="defs17">
    <linearGradient
       id="Degradado_sin_nombre"
       x1="1070.5699"
       y1="1409.15"
       x2="1407.61"
       y2="1409.15"
       gradientTransform="matrix(0.67,0,0,0.67,-620.95,-905.4)"
       gradientUnits="userSpaceOnUse">
      <stop
         offset="0"
         stop-color="#f50019"
         id="stop2" />
      <stop
         offset="0.28"
         stop-color="#f66d19"
         id="stop4" />
      <stop
         offset="0.48"
         stop-color="#fbfa35"
         id="stop6" />
      <stop
         offset="0.68"
         stop-color="#74b719"
         id="stop8" />
      <stop
         offset="0.79"
         stop-color="#17710a"
         id="stop10" />
      <stop
         offset="0.88"
         stop-color="#226887"
         id="stop12" />
      <stop
         offset="1"
         stop-color="#3262d9"
         id="stop14" />
    </linearGradient>
  </defs>
  <path
     d="m 502.71,7 c 2.37,0 4.29,2.29 4.29,5.11 v 62.36 c 0,2.82 -1.92,5.11 -4.29,5.11 H 11.29 C 8.92,79.58 7,77.29 7,74.47 V 12.11 C 7,9.29 8.92,7 11.29,7 h 491.42 m 0,-7 H 11.29 C 5.07,0 0,5.43 0,12.11 v 62.36 c 0,6.68 5.07,12.11 11.29,12.11 h 491.42 c 6.22,0 11.29,-5.43 11.29,-12.11 V 12.11 C 514,5.43 508.93,0 502.71,0 Z"
     fill="#ffffff"
     id="path19" />
  <path
     id="background"
     d="m 507,74.47 c 0,2.82 -1.92,5.11 -4.29,5.11 H 11.29 C 8.92,79.58 7,77.29 7,74.47 V 12.11 C 7,9.29 8.92,7 11.29,7 h 491.42 c 2.37,0 4.29,2.29 4.29,5.11 z" />
  <path
     id="logo"
     d="M 53,42.94 H 49.09 L 58.4,26.81 a 10.14,10.14 0 0 1 8.76,-5.08 h 19.25 l -1.95,3.39 H 67.16 A 6.73,6.73 0 0 0 61.34,28.5 Z M 63.48,29.73 a 4.26,4.26 0 0 1 3.68,-2.14 H 83 l 0.85,-1.46 H 67.13 A 5.73,5.73 0 0 0 62.18,29 l -8,13.94 h 1.69 z m 1.49,6.23 H 78.2 l 2.29,-4 0.7,-1.21 1.26,-2.18 H 67.13 a 3.24,3.24 0 0 0 -2.8,1.63 L 57,42.94 h 3.91 z m -30.07,0 v 0 a 8.42,8.42 0 0 1 -0.67,1.24 13.16,13.16 0 0 0 -2.13,7 10.11,10.11 0 0 0 10.05,10.09 H 80.6 l -4,6.91 h 3.92 l 3.13,-5.43 A 3.14,3.14 0 0 0 84.1,54.13 3.23,3.23 0 0 0 80.87,50.9 H 42.16 a 6.72,6.72 0 0 1 -6.71,-6.71 9.72,9.72 0 0 1 1.65,-5.23 c 0.93,-1.55 1.16,-2.08 1.16,-3.18 A 3.23,3.23 0 0 0 35,32.57 H 23.68 l 1.95,3.39 z m 46,12.48 H 42.15 a 4.24,4.24 0 0 1 -4.23,-4.24 7.2,7.2 0 0 1 1.31,-4 7.74,7.74 0 0 0 1.5,-4.45 5.71,5.71 0 0 0 -5.7,-5.7 H 19.41 l -0.55,-0.95 -3.7,1.67 5.73,1.84 -0.63,-1.09 H 35 a 4.24,4.24 0 0 1 4.24,4.23 c 0,1.32 -0.3,2 -1.3,3.7 a 8.67,8.67 0 0 0 -1.52,4.71 5.71,5.71 0 0 0 5.7,5.7 h 38.73 a 4.23,4.23 0 0 1 3.64,6.4 l -2.83,4.91 h 1.69 L 85.76,57 a 5.7,5.7 0 0 0 -4.91,-8.6 z m -35.1,7 h -3.91 l -3.36,5.81 h 3.91 z m -0.5,5.81 3.35,-5.81 h -1.69 l -3.35,5.81 z m 8.43,-5.81 H 49.8 l -3.36,5.81 h 3.91 z M 80.9,44.08 H 42.32 A 3.94,3.94 0 0 1 43,42.49 11.84,11.84 0 0 0 45.13,35.79 10.11,10.11 0 0 0 35,25.7 H 34.74 L 32.5,27.93 30.27,25.7 H 19.71 l 2,3.39 H 35 a 6.72,6.72 0 0 1 6.71,6.7 8.62,8.62 0 0 1 -1.65,5 6.31,6.31 0 0 0 -1.16,3.45 3.23,3.23 0 0 0 3.22,3.23 h 38.73 a 6.71,6.71 0 0 1 5.78,10.12 l -2.12,3.66 h 3.92 l 1.13,-2 A 10.11,10.11 0 0 0 80.85,44.03 Z M 35.88,25.29 32.53,21.94 29.18,25.29 h 1.56 l 1.79,-1.8 1.8,1.8 z"
     fill="#f50019" />
  <path
     id="dragon"
     d="m 98.43,22.69 h 18.26 c 12,0 16.28,9.27 16.28,18.76 0.03,11.54 -5.87,18.84 -18.46,18.84 H 98.43 Z m 11.13,28 h 4.35 c 6.92,0 7.94,-5.85 7.94,-9.38 0,-2.37 -0.71,-9 -8.75,-9 h -3.54 v 18.36 z m 27.2,-28 H 158 c 6.32,0 11.78,3.63 11.78,10.75 0,3.9 -1.72,8 -5.41,9.43 3,1.21 4.91,4.69 5.31,9.38 0.15,1.85 0.2,6.33 1.21,8.07 h -11.17 a 27.91,27.91 0 0 1 -0.91,-5.8 c -0.31,-3.59 -0.61,-7.33 -5,-7.33 h -5.92 v 13.1 h -11.13 z m 11.13,16.44 h 5.81 c 2.07,0 4.91,-0.37 4.91,-3.74 0,-2.37 -1.27,-3.74 -5.52,-3.74 h -5.2 z m 38.38,-16.44 h 10.87 l 13.14,37.6 h -11.52 l -1.52,-5.38 h -11.48 l -1.62,5.38 H 173 L 186.3,22.66 Z M 195,46.88 191.78,35.29 h -0.1 l -3.49,11.6 z m 43.19,9.59 a 12.44,12.44 0 0 1 -10.27,4.74 c -10.67,0 -17.24,-8.64 -17.24,-19.34 0,-14.33 9.66,-20.08 17.8,-20.08 9.2,0 15,5.22 16.63,14.07 h -10.66 a 5.35,5.35 0 0 0 -5.25,-4.69 c -7.64,0 -7.39,8.38 -7.39,11 0,3.53 1.37,9.7 8.14,9.7 2.58,0 5.21,-1.37 5.77,-4.16 h -4.91 V 39.6 h 14.77 v 20.69 h -7 l -0.35,-3.85 z m 31.15,-34.68 c 11,0 18.31,8.22 18.31,19.71 0,11.49 -7.33,19.71 -18.31,19.71 -10.98,0 -18.34,-8.22 -18.34,-19.71 0,-11.49 7.37,-19.71 18.34,-19.71 z m 0,30 c 2.83,0 7.18,-2 7.18,-10.33 0,-8.33 -4.35,-10.33 -7.18,-10.33 -2.83,0 -7.18,1.95 -7.18,10.33 0,8.38 4.35,10.37 7.18,10.37 z m 23.06,-29.1 h 11.38 l 10.51,20.13 h 0.11 V 22.69 h 10.51 v 37.6 H 314.09 L 303,39.76 h -0.1 v 20.53 h -10.5 z"
     fill="url(#Degradado_sin_nombre)"
     style="fill:url(#Degradado_sin_nombre)" />
  <path
     d="M 377.11,30.69 V 61.21 H 366 V 30.69 h -11.49 v -9.61 h 34 v 9.61 z"
     fill="#f50019"
     id="path24" />
  <path
     d="m 407.84,61.21 -2.37,-7.92 h -11.21 l -2.51,7.91 h -10.43 l 12.92,-40.13 h 13.58 L 421,61.21 Z m -11.4,-16.67 h 6.78 L 399.83,32.9 Z"
     fill="#f50019"
     id="path26" />
  <path
     d="M 456.73,61.21 H 446.27 L 434.81,43.48 a 68,68 0 0 1 -4.45,-8.29 27.07,27.07 0 0 1 1,6.59 V 61.21 H 421 V 21.08 h 12.14 l 9.75,14.7 a 56.32,56.32 0 0 1 4.41,7.7 56.41,56.41 0 0 1 -1,-10.52 V 21.08 h 10.46 z"
     fill="#f50019"
     id="path28" />
  <path
     d="m 479.26,61.83 q -8.7,0 -14.19,-5.62 -5.49,-5.62 -5.49,-15 0,-9 5.25,-14.86 5.25,-5.86 14.55,-5.87 8.61,0 14,5.53 5.39,5.53 5.42,14.76 0,9.56 -5.47,15.32 a 18.59,18.59 0 0 1 -14.07,5.74 z m -0.06,-9.12 a 4.8,4.8 0 0 0 4.61,-2.72 q 1.4,-2.72 1.4,-10 0,-10.47 -5.77,-10.47 -6.23,0 -6.23,11.94 0,11.26 5.99,11.25 z"
     fill="#f50019"
     id="path30" />
  <path
     d="m 343.74,66.12 h 10 a 1.14,1.14 0 0 0 1,-0.69 l 7.88,-18.57"
     fill="none"
     stroke="#f50019"
     stroke-miterlimit="10"
     stroke-width="1.11"
     id="path32" />
  <polyline
     points="601.77 60.58 596.61 74.03 595.68 60.58"
     fill="none"
     stroke="#f50019"
     stroke-miterlimit="10"
     stroke-width="1.11"
     id="polyline34"
     transform="translate(-243,-13.71)" />
  <polyline
     points="586.74 76.72 593.75 76.72 592.34 60.58"
     fill="none"
     stroke="#f50019"
     stroke-miterlimit="10"
     stroke-width="1.11"
     id="polyline36"
     transform="translate(-243,-13.71)" />
  <path
     d="m 337.64,44.63 h 4.2 a 1.89,1.89 0 0 1 1.89,1.89 v 0 a 1.89,1.89 0 0 1 -1.89,1.89 h -4.2 a 1.17,1.17 0 0 1 -1.17,-1.12 V 45.8 a 1.17,1.17 0 0 1 1.17,-1.17 z"
     fill="none"
     stroke="#f50019"
     stroke-miterlimit="10"
     stroke-width="1.11"
     id="path38" />
  <path
     d="m 336.36,52.1 h 5.09 a 2.29,2.29 0 0 1 2.29,2.29 v 0 a 2.29,2.29 0 0 1 -2.29,2.29 h -5.09 a 1.41,1.41 0 0 1 -1.42,-1.39 v -1.77 a 1.41,1.41 0 0 1 1.41,-1.41 z"
     fill="none"
     stroke="#f50019"
     stroke-miterlimit="10"
     stroke-width="1.11"
     id="path40" />
  <path
     d="M 330.21,60.2 333.3,41 a 0.37,0.37 0 0 1 0.36,-0.32 h 8 a 6,6 0 0 1 6.07,5.76 5.87,5.87 0 0 1 -1.46,3.95 6.26,6.26 0 0 1 1.46,4.19 6.4,6.4 0 0 1 -6.48,6 h -10.68 a 0.36,0.36 0 0 1 -0.36,-0.38 z"
     fill="none"
     stroke="#f50019"
     stroke-miterlimit="10"
     stroke-width="1.11"
     id="path42" />
</svg>
