<?xml version="1.0" encoding="UTF-8" standalone="no"?>
<svg
   viewBox="0 0 509.87943 114.00621"
   version="1.1"
   id="svg65"
   sodipodi:docname="easyrpg.svg"
   width="509.87943"
   height="114.00621"
   inkscape:version="1.1 (c68e22c387, 2021-05-23)"
   xmlns:inkscape="http://www.inkscape.org/namespaces/inkscape"
   xmlns:sodipodi="http://sodipodi.sourceforge.net/DTD/sodipodi-0.dtd"
   xmlns="http://www.w3.org/2000/svg"
   xmlns:svg="http://www.w3.org/2000/svg">
  <sodipodi:namedview
     id="namedview67"
     pagecolor="#ffffff"
     bordercolor="#666666"
     borderopacity="1.0"
     inkscape:pageshadow="2"
     inkscape:pageopacity="0.0"
     inkscape:pagecheckerboard="0"
     showgrid="false"
     fit-margin-top="0"
     fit-margin-left="0"
     fit-margin-right="0"
     fit-margin-bottom="0"
     inkscape:zoom="1.113"
     inkscape:cx="254.71698"
     inkscape:cy="56.603774"
     inkscape:window-width="1920"
     inkscape:window-height="1138"
     inkscape:window-x="-8"
     inkscape:window-y="-8"
     inkscape:window-maximized="1"
     inkscape:current-layer="svg65" />
  <defs
     id="defs14">
    <radialGradient
       id="Degradado_sin_nombre"
       cx="38.360001"
       cy="121.68"
       r="59.91"
       gradientTransform="matrix(0.6,0,0,-0.6,31.619413,132.19621)"
       gradientUnits="userSpaceOnUse">
      <stop
         offset="0"
         stop-color="#d8edca"
         id="stop2" />
      <stop
         offset="1"
         stop-color="#9ebf88"
         id="stop4" />
    </radialGradient>
    <radialGradient
       id="Degradado_sin_nombre_2"
       cx="39.610001"
       cy="131.34"
       r="71.43"
       gradientTransform="matrix(0.6,0,0,-0.6,31.619413,132.19621)"
       gradientUnits="userSpaceOnUse">
      <stop
         offset="0"
         stop-color="#688c51"
         id="stop7" />
      <stop
         offset="0.47"
         stop-color="#587b42"
         id="stop9" />
      <stop
         offset="1"
         stop-color="#42632d"
         id="stop11" />
    </radialGradient>
  </defs>
  <g
     id="Layer_2"
     data-name="Layer 2"
     transform="translate(-245.06059,0.00621038)">
    <rect
       x="367.51999"
       y="23.67"
       width="145.17999"
       height="50.810001"
       fill="#ffffff"
       id="rect16" />
    <polygon
       points="577.74,57.94 702.75,57.94 702.75,74.48 738.96,74.48 738.96,57.94 742.61,57.94 742.61,23.67 577.74,23.67 "
       fill="#ffffff"
       id="polygon18" />
  </g>
  <path
     d="m 53.939413,104.73621 a 47.56,47.56 0 0 1 -17.4,-3.26 h -1.09 a 32.12,32.12 0 0 1 -8.25,-1.11 31,31 0 0 1 -19.3600005,-15 31.15,31.15 0 0 1 -3.09,-24.88 16.23,16.23 0 0 1 1.37,-3.29 v -0.28 a 48.21,48.21 0 0 1 25.9100005,-42.5 c 0.49,-0.57 1,-1.13 1.54,-1.66 a 32.32,32.32 0 0 1 45.78,0.51 14.61,14.61 0 0 1 3.36,5.45 47.81,47.81 0 0 1 18.809997,33.29 31.55,31.55 0 0 1 4.73,10.14 31,31 0 0 1 -3.31,24.3 31.09,31.09 0 0 1 -19.999997,15.12 15.64,15.64 0 0 1 -3.65,0.45 v 0 a 13.23,13.23 0 0 1 -5.95,-1.37 48.21,48.21 0 0 1 -19.4,4.09 z"
     fill="#ffffff"
     id="path21" />
  <path
     d="m 56.259413,7.0062104 a 27.74,27.74 0 0 1 20.58,8.6999996 10.72,10.72 0 0 1 2.82,5.12 44.49,44.49 0 0 1 18.46,32.5 28.24,28.24 0 0 1 1.82,31.37 27.75,27.75 0 0 1 -17.83,13.48 11.88,11.88 0 0 1 -2.79,0.34 9.81,9.81 0 0 1 -4.95,-1.3 c -0.28,-0.17 -0.55,-0.34 -0.81,-0.52 a 44.43,44.43 0 0 1 -36.37,1.24 c -0.56,0 -1.12,0.06 -1.69,0.06 a 28.76,28.76 0 0 1 -7.35,-1 27.56,27.56 0 0 1 -17.22,-13.39 27.74,27.74 0 0 1 -2.7600005,-22.18 11.44,11.44 0 0 1 1.52,-3.27 c 0,-0.42 0,-0.84 0,-1.25 a 44.54,44.54 0 0 1 24.6100005,-39.7 c 0.57,-0.68 1.18,-1.35 1.82,-2 a 27.59,27.59 0 0 1 20.14,-8.1999996 m 0,-7.00000002 a 34.36,34.36 0 0 0 -25.16,10.26999962 c -0.43,0.44 -0.86,0.88 -1.27,1.34 a 51.74,51.74 0 0 0 -27.2000005,44.71 18.89,18.89 0 0 0 -1.22,3.12 v 0.08 a 35,35 0 0 0 3.43,27.59 34.36,34.36 0 0 0 21.4800005,16.65 35.61,35.61 0 0 0 9.16,1.23 h 0.46 a 51,51 0 0 0 18,3.25 51.74,51.74 0 0 0 19.36,-3.78 17.06,17.06 0 0 0 6,1.06 18.77,18.77 0 0 0 4.43,-0.54 h 0.08 a 34.93,34.93 0 0 0 22.129997,-16.79 34.35,34.35 0 0 0 3.68,-26.93 34.88,34.88 0 0 0 -4.68,-10.49 51.26,51.26 0 0 0 -19.269997,-34.23 18.6,18.6 0 0 0 -3.73,-5.66 l -0.06,-0.06 a 34.94,34.94 0 0 0 -25.62,-10.81999962 z"
     fill="#ffffff"
     id="path23" />
  <path
     d="m 475.67941,86.73621 c -11.81,0 -21.37,-3.41 -28.41,-10.14 -6.71,-6.43 -10.33,-15.06 -10.63,-25.67 0,0 0,-1.09 0,-1.19 0,-0.1 0,-0.36 0,-0.54 0,-11.54 3.66,-20.81 10.88,-27.54 7.22,-6.73 17,-10 29.12,-10 2.24,0 4.45,0.11 6.75,0.32 a 63.76,63.76 0 0 1 6.51,1 57.77,57.77 0 0 1 12.04,3.83 3.51,3.51 0 0 1 2,3.2 v 13.58 a 3.5,3.5 0 0 1 -5.22,3.05 c -0.78,-0.45 -1.61,-0.88 -2.44,-1.3 -1.22,-0.61 -2.48,-1.17 -3.84,-1.7 -1.36,-0.53 -2.74,-1 -3.89,-1.35 a 36.34,36.34 0 0 0 -9.92,-1.4 c -4.34,0 -7.92,0.88 -10.64,2.61 h -0.05 l -0.14,0.1 -0.11,0.08 a 13.39,13.39 0 0 0 -2.14,1.76 c -2.44,2.51 -3.89,6.1 -4.32,10.66 -0.11,1.14 -0.16,2.12 -0.16,3.06 0,0.76 0,1.56 0.08,2.37 0.33,4.84 1.76,8.66 4.25,11.35 2.86,3.06 6.93,4.55 12.44,4.55 a 31.55,31.55 0 0 0 4.4,-0.29 l 1.07,-0.19 v -6.6 h -6.84 a 3.5,3.5 0 0 1 -3.5,-3.5 v -11.34 a 3.5,3.5 0 0 1 3.5,-3.5 h 26.47 a 3.5,3.5 0 0 1 3.5,3.5 v 31.57 a 3.5,3.5 0 0 1 -2,3.15 64.83,64.83 0 0 1 -13.9,4.88 67.85,67.85 0 0 1 -14.86,1.63 z"
     fill="#ffffff"
     id="path25" />
  <path
     d="m 476.59941,15.11621 c 2.19,0 4.32,0.11 6.42,0.31 a 60.89,60.89 0 0 1 6.14,0.92 53.71,53.71 0 0 1 11.32,3.66 v 13.58 c -0.87,-0.49 -1.74,-0.95 -2.6,-1.38 -1.38,-0.69 -2.75,-1.29 -4.12,-1.83 -1.37,-0.54 -2.81,-1.05 -4.21,-1.45 a 39.6,39.6 0 0 0 -10.88,-1.54 q -7.56,0 -12.52,3.16 v 0 a 4,4 0 0 0 -0.33,0.24 16.94,16.94 0 0 0 -2.7,2.23 c -3,3.13 -4.79,7.4 -5.3,12.77 -0.1,1.09 -0.17,2.21 -0.17,3.39 0,0.89 0,1.75 0.08,2.58 q 0.59,8.56 5.19,13.52 5.28,5.67 15,5.67 a 34,34 0 0 0 4.9,-0.33 18.61,18.61 0 0 0 4.07,-1 v -12.77 h -10.38 v -11.34 h 26.43 v 31.57 a 60.81,60.81 0 0 1 -13.15,4.62 64,64 0 0 1 -14.07,1.54 q -16.41,0 -26,-9.17 -9.09,-8.7 -9.55,-23.25 c 0,-0.26 0,-0.53 0,-0.79 0,-0.26 0,-0.55 0,-0.83 q 0,-15.87 9.77,-25 9.77,-9.13 26.73,-9.1 m 0,-6.9999996 c -13.09,0 -23.69,3.6899996 -31.5,10.9999996 -7.81,7.31 -12,17.55 -12,30.1 0,0.22 0,0.45 0,0.67 v 0.14 a 2.26,2.26 0 0 0 0,0.26 v 0.25 c 0,0.18 0,0.36 0,0.54 0.36,11.51 4.3,21 11.7,28 7.71,7.37 18.09,11.11 30.83,11.11 a 71.73,71.73 0 0 0 15.61,-1.71 68.17,68.17 0 0 0 14.63,-5.08 7,7 0 0 0 3.94,-6.3 v -31.57 a 7,7 0 0 0 -4.81,-6.65 7,7 0 0 0 2.39,-5.27 v -13.58 a 7,7 0 0 0 -4.11,-6.38 61.54,61.54 0 0 0 -12.79,-4.1299996 c -2.17,-0.44 -4.47,-0.79 -6.86,-1 -2.39,-0.21 -4.76,-0.34 -7.12,-0.34 z m -6.73,28.3099996 a 16.34,16.34 0 0 1 8.69,-2 33,33 0 0 1 9,1.27 c 1,0.3 2.17,0.69 3.58,1.24 1.24,0.49 2.41,1 3.53,1.57 h 0.08 -18.31 a 7,7 0 0 0 -7,7 v 11.36 a 7,7 0 0 0 7,7 h 3.34 v 0.06 c -0.63,0 -1.29,0.06 -2,0.06 -4.49,0 -7.72,-1.13 -9.88,-3.44 -1.95,-2.1 -3,-5.11 -3.32,-9.2 0,-0.74 -0.07,-1.44 -0.07,-2.13 0,-0.69 0.05,-1.7 0.14,-2.75 0.36,-3.78 1.46,-6.58 3.36,-8.54 a 10.5,10.5 0 0 1 1.57,-1.29 l 0.22,-0.15 0.08,-0.06 z"
     fill="#ffffff"
     id="path27" />
  <path
     d="m 268.57941,110.50621 a 3.5,3.5 0 0 1 -3.5,-3.5 v -9 a 3.5,3.5 0 0 1 3.5,-3.5 h 6.36 a 7,7 0 0 0 4.66,-1.28 c 0.55,-0.46 2.06,-2.22 4.48,-8.58 l 1.44,-3.67 -20.58,-50.05 a 40,40 0 0 0 -7.83,-2.79 40.8,40.8 0 0 0 -9.42,-1.08 c -5.83,0 -8.79,1.06 -10.25,1.95 a 4.65,4.65 0 0 0 -2.36,4.43 5.06,5.06 0 0 0 0.09,1 c 0,0.09 0.05,0.18 0.07,0.26 a 2.26,2.26 0 0 0 0.18,0.51 l 0.06,0.14 0.1,0.18 0.1,0.15 0.22,0.28 0.09,0.09 a 6.36,6.36 0 0 0 0.59,0.53 c 0.82,0.62 3.29,1.91 10.23,3.45 l 3.71,0.83 c 0.81,0.17 1.69,0.37 2.64,0.62 0.41,0.1 0.83,0.21 1.25,0.34 h 0.11 c 0.29,0.08 0.59,0.15 0.86,0.24 l 0.21,0.06 c 5.76,1.68 10,3.82 12.92,6.53 4,3.68 6,8.77 6,15.13 a 20.48,20.48 0 0 1 -8.68,17.34 c -5.45,4 -12.87,6 -22.05,6 a 66.64,66.64 0 0 1 -11.63,-1.09 c -2.64,-0.47 -5.38,-1.11 -8.18,-1.89 a 3.51,3.51 0 0 1 -2.7,1.27 h -10.83 a 3.5,3.5 0 0 1 -3.5,-3.4 v -0.72 a 25.07,25.07 0 0 1 -4.12,2.68 32.83,32.83 0 0 1 -15.14,3.25 c -6.83,0 -12.54,-1.79 -17,-5.34 a 67.91,67.91 0 0 1 -12.58,4 63.24,63.24 0 0 1 -13.16,1.29 c -11.42,0 -20.65,-3.43 -27.43,-10.2 a 34.13,34.13 0 0 1 -9.36,-18 1.55,1.55 0 0 1 0,-0.21 c -0.19,-1 -0.33,-1.9 -0.45,-2.79 0,0 0,-0.07 0,-0.11 -0.11,-0.86 -0.19,-1.77 -0.26,-2.78 0,-0.13 0,-0.5 0,-0.5 -0.06,-1 -0.09,-2 -0.09,-2.94 0,-11.64 3.25,-21.07 9.66,-28 6.41,-6.93 15.24,-10.63 26.09,-10.63 9.23,0 16.8,2.87 22.51,8.53 0.38,0.39 0.76,0.79 1.13,1.21 l 0.2,0.26 v -1.91 a 3.5,3.5 0 0 1 2.23,-3.26 c 2.06,-0.8 4.12,-1.51 6.12,-2.11 2,-0.6 4.07,-1.11 6,-1.5 1.93,-0.39 3.86,-0.7 5.85,-0.91 a 50.93,50.93 0 0 1 5.73,-0.31 c 8.17,0 14.89,1.75 20,5.2 a 23.72,23.72 0 0 1 7.07,7.41 19.47,19.47 0 0 1 5.71,-6.83 c 5,-3.84 12,-5.78 20.82,-5.78 a 72,72 0 0 1 11.87,0.93 c 1.17,0.19 2.37,0.43 3.64,0.73 a 3.35,3.35 0 0 1 0.71,-0.07 h 11.47 a 3.5,3.5 0 0 1 3.25,2.2 l 5.93,14.83 11.4,28.55 17.33,-43.38 a 3.5,3.5 0 0 1 3.25,-2.2 h 11.42 a 3.48,3.48 0 0 1 1.2,0.21 h 24.47 a 60.65,60.65 0 0 1 9.3,0.65 30.55,30.55 0 0 1 9.09,2.78 21.22,21.22 0 0 1 2.67,1.57 l 0.09,0.07 0.33,0.27 0.08,0.07 c 4.65,3.61 7,9.07 7,16.21 a 20.75,20.75 0 0 1 -3.84,12.78 18.68,18.68 0 0 1 -4.54,4.26 c 0.34,0.3 0.66,0.61 1,0.93 a 36.07,36.07 0 0 1 6.21,9.36 l 9.14,18.65 a 3.5,3.5 0 0 1 -3.14,5 h -18 a 3.5,3.5 0 0 1 -3.14,-2 l -8,-16.31 c -1.69,-3.43 -3,-4.85 -3.82,-5.43 a 7.7,7.7 0 0 0 -4.57,-1.14 h -1.33 v 21.48 a 3.5,3.5 0 0 1 -3.5,3.5 h -16.89 a 3.5,3.5 0 0 1 -3.5,-3.5 v -47.35 l -22,54.72 c -3.3,8.45 -6.56,13.93 -10,16.75 -3.44,2.82 -8.19,4.38 -13.87,4.38 z m -43.82,-44 a 53.44,53.44 0 0 0 8.62,3.19 41.44,41.44 0 0 0 10.63,1.44 c 4.4,0 7.72,-0.7 9.88,-2.07 a 4.83,4.83 0 0 0 2.5,-4.43 c 0,-2.43 -0.94,-3.46 -1.65,-4 -0.71,-0.54 -3.22,-2 -11.59,-3.85 l -3.82,-0.89 c -6.3,-1.32 -11.09,-3.3 -14.57,-6 z m -51.66,-34.87 c 0.09,0.25 0.17,0.51 0.25,0.76 a 40.71,40.71 0 0 1 1.72,8.32 c 5.22,-2.55 12,-3.84 20.2,-3.84 h 11.5 a 10,10 0 0 0 -3.48,-6.42 c -2.61,-2.18 -6.5,-3.28 -11.55,-3.28 a 40.66,40.66 0 0 0 -18.64,4.46 z"
     fill="#ffffff"
     id="path29" />
  <path
     d="m 246.41941,14.50621 a 68.49,68.49 0 0 1 11.29,0.88 c 1.63,0.27 3.2,0.62 4.72,1 0.12,0 0.25,0.06 0.37,0.09 l -0.16,-0.39 h 11.47 l 5.93,14.83 14.65,36.69 8.42,-21.07 12.16,-30.44 h 11.47 l -0.08,0.21 h 25.75 a 56.39,56.39 0 0 1 8.75,0.61 26.92,26.92 0 0 1 8,2.44 17,17 0 0 1 2.22,1.3 c 0.13,0.1 0.25,0.22 0.39,0.32 3.75,2.92 5.65,7.39 5.65,13.45 a 17.29,17.29 0 0 1 -3.14,10.68 q -3.15,4.18 -9.48,6.16 a 11.51,11.51 0 0 1 1.64,0.5 h 0.05 a 12.89,12.89 0 0 1 4.53,3.06 33.06,33.06 0 0 1 5.57,8.47 l 9.24,18.71 h -18 l -8,-16.31 c -1.62,-3.29 -3.25,-5.53 -4.91,-6.73 a 11,11 0 0 0 -6.62,-1.8 h -4.79 v 24.84 h -16.96 v -65.44 l -28.74,71.51 q -4.59,11.76 -8.94,15.35 -4.35,3.59 -11.64,3.58 h -8.65 v -9 h 6.36 a 10.34,10.34 0 0 0 6.94,-2.12 q 2.48,-2.11 5.47,-10 l 1.94,-4.94 -14.67,-35.72 -7.15,-17.39 v 0.43 l -0.24,-0.12 a 43,43 0 0 0 -9.29,-3.41 44.2,44.2 0 0 0 -10.23,-1.18 q -8.06,0 -12.08,2.47 a 8.13,8.13 0 0 0 -4,7.41 8.55,8.55 0 0 0 0.18,1.79 c 0,0.1 0.06,0.2 0.08,0.31 a 6.51,6.51 0 0 0 0.46,1.26 4.7,4.7 0 0 0 0.39,0.69 c 0,0 0,0 0,0 0.13,0.19 0.27,0.37 0.41,0.54 l 0.09,0.12 c 0.07,0.09 0.16,0.17 0.24,0.26 a 9.1,9.1 0 0 0 1,0.92 q 2.88,2.15 11.59,4.08 l 3.7,0.83 c 0.88,0.18 1.72,0.38 2.53,0.59 l 1.16,0.31 c 0.31,0.08 0.64,0.16 0.94,0.25 v 0 c 5.3,1.52 9.24,3.46 11.78,5.81 q 4.85,4.5 4.85,12.56 a 17.07,17.07 0 0 1 -7.29,14.55 q -7.28,5.36 -20,5.36 a 62.9,62.9 0 0 1 -11,-1 91.79,91.79 0 0 1 -11.49,-2.91 v 2.25 h -10.81 v -10 a 23.58,23.58 0 0 1 -9.23,8.85 29.17,29.17 0 0 1 -13.53,2.86 q -10.11,0 -16.08,-5.68 a 18.07,18.07 0 0 1 -2.27,-2.62 v 3.19 a 65.11,65.11 0 0 1 -11.94,3.76 60,60 0 0 1 -12.45,1.3 q -15.75,0 -25,-9.18 a 30.58,30.58 0 0 1 -8.4,-16.16 c 0,0 0,0 0,-0.08 -0.17,-0.88 -0.32,-1.77 -0.44,-2.69 v 0 c -0.11,-0.87 -0.19,-1.76 -0.25,-2.66 0,-0.16 0,-0.32 0,-0.48 0,-0.9 -0.08,-1.8 -0.08,-2.73 q 0,-16.19 8.73,-25.67 8.73,-9.48 23.55,-9.5 12.46,0 20,7.52 c 0.33,0.33 0.66,0.68 1,1 0.14,0.15 0.27,0.31 0.4,0.46 a 28.11,28.11 0 0 1 5.5,9.94 41.62,41.62 0 0 1 1.84,12.85 v 0.72 a 15,15 0 0 1 1.21,-1 q 7.44,-5.64 22.2,-5.65 h 15.24 v -1 q 0,-7.47 -4.91,-11.56 -4.91,-4.09 -13.79,-4.12 a 44.37,44.37 0 0 0 -11,1.36 43.54,43.54 0 0 0 -10.29,4 v -10 q 3,-1.15 5.85,-2 2.85,-0.85 5.64,-1.38 a 54.62,54.62 0 0 1 5.51,-0.86 48.83,48.83 0 0 1 5.37,-0.29 q 11.25,0 18,4.6 a 20.47,20.47 0 0 1 3.33,2.81 q 7.07,7.41 7.06,22.46 v 24.29 a 57.73,57.73 0 0 0 11.27,4.34 44.37,44.37 0 0 0 11.53,1.56 q 7.64,0 11.76,-2.62 a 8.28,8.28 0 0 0 4.17,-7.34 8.14,8.14 0 0 0 -3,-6.76 q -3,-2.36 -13,-4.53 l -3.76,-0.88 q -9.09,-1.91 -13.59,-5.67 v 0 c -0.27,-0.23 -0.53,-0.47 -0.78,-0.71 l -0.14,-0.12 q -4.47,-4.38 -4.47,-12 a 20.74,20.74 0 0 1 0.93,-6.38 16,16 0 0 1 5.66,-8 q 6.59,-5.05 18.7,-5.06 m 0,-6.9999996 c -9.61,0 -17.34,2.19 -23,6.5099996 a 23.88,23.88 0 0 0 -3.75,3.55 l -0.44,-0.48 a 28.13,28.13 0 0 0 -4.46,-3.77 c -5.72,-3.8499996 -13.1,-5.7999996 -21.98,-5.7999996 a 56.31,56.31 0 0 0 -6.14,0.33 c -2.07,0.22 -4.16,0.55 -6.18,1 -2.02,0.45 -4.08,0.93 -6.23,1.5699996 -2.15,0.64 -4.25,1.36 -6.4,2.19 a 7.1,7.1 0 0 0 -2.74,1.94 c -6,-4.6499996 -13.37,-6.9999996 -22.07,-6.9999996 -11.87,0 -21.53,3.9999996 -28.7,11.7599996 -7,7.63 -10.58,17.87 -10.58,30.41 0,1 0,2 0.09,3.12 v 0.07 c 0,0.15 0,0.3 0,0.46 0.08,1.09 0.17,2 0.28,3 0,0.06 0,0.11 0,0.16 0.12,0.94 0.28,1.9 0.47,2.92 0,0.1 0,0.21 0.05,0.31 a 37.66,37.66 0 0 0 10.33,19.76 c 7.46,7.44 17.52,11.22 29.9,11.22 a 67.54,67.54 0 0 0 13.86,-1.45 72.12,72.12 0 0 0 11.36,-3.41 c 4.78,3.14 10.68,4.8 17.52,4.8 a 36.28,36.28 0 0 0 16.75,-3.66 l 0.78,-0.42 a 7,7 0 0 0 5.23,2.42 h 10.82 a 7,7 0 0 0 3.49,-0.93 q 3.46,0.9 6.75,1.5 a 70.32,70.32 0 0 0 12.27,1.14 c 9.95,0 18.06,-2.26 24.12,-6.72 a 24,24 0 0 0 9.38,-13.85 l 4.47,10.86 -0.91,2.32 v 0.07 c -2.07,5.44 -3.31,7 -3.51,7.19 a 4.61,4.61 0 0 1 -2.38,0.42 h -6.35 a 7,7 0 0 0 -7,7 v 9 a 7,7 0 0 0 7,7 h 8.65 c 6.51,0 11.92,-1.74 16.09,-5.18 3.93,-3.25 7.43,-9 11,-18.17 l 15.23,-37.9 v 29.25 a 7,7 0 0 0 7,7 h 16.93 a 7,7 0 0 0 7,-7 v -17.58 a 1.11,1.11 0 0 1 0.29,0.15 c 0.06,0 1.11,0.82 2.75,4.16 l 8,16.3 a 7,7 0 0 0 6.27,3.97 h 18 a 7,7 0 0 0 6.28,-10.1 l -9.14,-18.69 a 45.52,45.52 0 0 0 -5.19,-8.41 21.45,21.45 0 0 0 2.19,-2.49 24.17,24.17 0 0 0 4.55,-14.89 c 0,-10.31 -4.54,-16 -8.35,-19 l -0.42,-0.35 -0.19,-0.14 a 23.76,23.76 0 0 0 -3.14,-1.86 34.19,34.19 0 0 0 -10.14,-3.07 63.71,63.71 0 0 0 -9.84,-0.6899996 h -24 a 6.88,6.88 0 0 0 -1.7,-0.21 h -11.44 a 7,7 0 0 0 -6.5,4.3999996 l -12.16,30.43 -1.92,4.8 -8.15,-20.41 -5.93,-14.83 a 7,7 0 0 0 -6.5,-4.3999996 h -11.47 -0.54 c -1.12,-0.25 -2.19,-0.46 -3.24,-0.64 a 76.65,76.65 0 0 0 -12.44,-1 z m -7.81,26.1699996 c 0,-0.06 0,-0.13 0,-0.24 0,-1 0.22,-1.15 0.69,-1.44 0.7,-0.43 2.94,-1.44 8.42,-1.44 a 37.36,37.36 0 0 1 8.62,1 36.47,36.47 0 0 1 5.92,2 l 3.7,9 a 45,45 0 0 0 -9.27,-3.75 l -0.27,-0.09 -1,-0.27 h -0.1 l -1.27,-0.34 c -1,-0.25 -1.89,-0.46 -2.79,-0.65 l -3.64,-0.81 c -6.71,-1.49 -8.63,-2.66 -8.9,-2.84 l -0.08,-0.07 v 0 z m -61.28,-0.14 a 35.36,35.36 0 0 1 5.12,-1.71 37.35,37.35 0 0 1 9.29,-1.15 c 4.21,0 7.34,0.83 9.31,2.47 l 0.27,0.23 h -6.05 a 55.46,55.46 0 0 0 -17.42,2.42 c -0.15,-0.77 -0.33,-1.52 -0.52,-2.26 z m 50.93,30.66 v -8.18 a 48.69,48.69 0 0 0 10.35,3.28 l 3.69,0.86 h 0.11 c 8.23,1.78 10.1,3.12 10.17,3.18 0.07,0.06 0.31,0.25 0.31,1.27 0,0.68 -0.07,1 -0.87,1.47 -0.8,0.47 -3.13,1.53 -8,1.53 a 37.88,37.88 0 0 1 -9.72,-1.32 47.14,47.14 0 0 1 -6,-2.09 z"
     fill="#ffffff"
     id="path31" />
  <path
     d="m 386.93941,85.45621 a 3.5,3.5 0 0 1 -3.5,-3.5 v -65.65 a 3.5,3.5 0 0 1 3.5,-3.5 h 28.1 a 43.26,43.26 0 0 1 12.05,1.53 27,27 0 0 1 5.07,2 23.72,23.72 0 0 1 2.28,1.32 22.84,22.84 0 0 1 2.06,1.51 c 5.3,4.4 8,10.64 8,18.56 0,0.84 0,1.71 -0.11,2.66 0,0.23 0,0.47 -0.07,0.7 v 0.22 c -0.07,0.58 -0.14,1.13 -0.23,1.65 0,0.33 -0.13,0.68 -0.21,1 -0.08,0.32 -0.21,0.93 -0.32,1.35 -0.11,0.42 -0.18,0.62 -0.27,0.88 l -0.09,0.26 c -0.12,0.4 -0.26,0.8 -0.42,1.21 -0.16,0.41 -0.33,0.78 -0.49,1.13 -0.16,0.35 -0.36,0.78 -0.56,1.14 -0.2,0.36 -0.36,0.66 -0.58,1 -0.22,0.34 -0.37,0.6 -0.57,0.88 l -0.2,0.29 c -0.2,0.29 -0.4,0.58 -0.62,0.85 l -0.44,0.54 -0.19,0.22 c -0.32,0.37 -0.6,0.69 -0.9,1 l -0.15,0.16 a 2.84,2.84 0 0 1 -0.26,0.24 c -0.38,0.38 -0.79,0.77 -1.24,1.14 -5.1,4.24 -12.33,6.38 -21.49,6.38 h -7.67 v 19.38 a 3.5,3.5 0 0 1 -3.5,3.5 z"
     fill="#ffffff"
     id="path33" />
  <path
     d="m 414.98941,16.30621 a 39.78,39.78 0 0 1 11.07,1.39 24.24,24.24 0 0 1 4.45,1.74 20.66,20.66 0 0 1 1.95,1.13 19.18,19.18 0 0 1 1.77,1.3 q 6.71,5.57 6.71,15.85 v 0 c 0,0.81 0,1.6 -0.1,2.37 0,0.28 -0.06,0.53 -0.09,0.8 -0.06,0.49 -0.12,1 -0.2,1.45 -0.05,0.31 -0.12,0.61 -0.19,0.92 -0.07,0.31 -0.18,0.8 -0.28,1.19 -0.1,0.39 -0.2,0.63 -0.3,0.94 -0.1,0.31 -0.23,0.69 -0.36,1 -0.13,0.31 -0.27,0.63 -0.41,0.94 -0.14,0.31 -0.28,0.6 -0.44,0.89 -0.16,0.29 -0.33,0.61 -0.51,0.91 -0.18,0.3 -0.34,0.53 -0.51,0.78 -0.17,0.25 -0.41,0.6 -0.63,0.88 -0.22,0.28 -0.39,0.46 -0.58,0.69 -0.19,0.23 -0.49,0.56 -0.75,0.83 a 1,1 0 0 0 -0.1,0.11 v 0 c -0.4,0.4 -0.8,0.79 -1.23,1.15 q -6.7,5.56 -19.24,5.56 h -11.2 v 22.88 h -16.88 v -65.7 h 28.1 m 0,-6.9999996 h -28.1 a 7,7 0 0 0 -7,6.9999996 v 65.7 a 7,7 0 0 0 7,7 h 16.93 a 7,7 0 0 0 7,-7 v -15.83 h 4.17 c 10,0 18,-2.41 23.71,-7.17 0.53,-0.44 1,-0.87 1.39,-1.27 0.12,-0.1 0.23,-0.21 0.34,-0.32 l 0.27,-0.29 c 0.31,-0.32 0.62,-0.66 1,-1 l 0.08,-0.09 0.15,-0.18 c 0.17,-0.2 0.35,-0.41 0.52,-0.63 0.32,-0.4 0.56,-0.75 0.75,-1 l 0.13,-0.18 v -0.08 l 0.05,-0.07 c 0.19,-0.27 0.44,-0.64 0.69,-1.07 0.25,-0.43 0.46,-0.79 0.67,-1.19 0.21,-0.4 0.45,-0.88 0.6,-1.22 v -0.08 c 0.18,-0.39 0.35,-0.78 0.52,-1.19 a 0.69,0.69 0 0 1 0,-0.13 c 0.18,-0.48 0.34,-0.94 0.49,-1.39 l 0.07,-0.21 c 0.1,-0.32 0.21,-0.65 0.3,-1 0,-0.05 0,-0.1 0,-0.15 0.12,-0.46 0.22,-0.92 0.33,-1.39 v -0.08 c 0.07,-0.33 0.17,-0.75 0.25,-1.23 0.1,-0.63 0.17,-1.22 0.24,-1.75 v -0.08 -0.16 c 0,-0.3 0.07,-0.6 0.09,-0.91 0.08,-1 0.12,-2 0.12,-2.87 0,-9 -3.1,-16.17 -9.23,-21.26 a 26.8,26.8 0 0 0 -2.41,-1.77 27.91,27.91 0 0 0 -2.58,-1.5 31.61,31.61 0 0 0 -5.64,-2.26 46.75,46.75 0 0 0 -13,-1.6599996 z"
     fill="#ffffff"
     id="path35" />
  <path
     d="m 99.039413,64.11621 a 23.62,23.62 0 0 1 -2.59,18.6 23.8,23.8 0 0 1 -15.36,11.61 6.33,6.33 0 0 1 -4.79,-0.55 6.16,6.16 0 0 1 -2.1,-2 40.4,40.4 0 0 1 -36.42,2.08 24,24 0 0 1 -8.66,-0.73 23.64,23.64 0 0 1 -14.81,-11.55 23.81,23.81 0 0 1 -2.37,-19.06 6.81,6.81 0 0 1 1.74,-3 q -0.09,-1.27 -0.09,-2.58 a 40.37,40.37 0 0 1 23.17,-36.52 27.09,27.09 0 0 1 2.1,-2.36 24.85,24.85 0 0 1 35.14,0.44 6.29,6.29 0 0 1 1.94,4.4 c 0,0.06 0,0.12 0,0.17 a 40.33,40.33 0 0 1 18.3,31.78 23.45,23.45 0 0 1 4.8,9.27 z"
     fill="#ffffff"
     id="path37" />
  <path
     d="m 53.939413,101.23621 a 44,44 0 0 1 -16.8,-3.3 28,28 0 0 1 -9,-0.93 27.56,27.56 0 0 1 -17.22,-13.39 27.74,27.74 0 0 1 -2.7600005,-22.18 11.44,11.44 0 0 1 1.52,-3.27 c 0,-0.42 0,-0.84 0,-1.25 a 44.54,44.54 0 0 1 24.6100005,-39.7 c 0.57,-0.68 1.18,-1.35 1.82,-2 a 28.82,28.82 0 0 1 40.79,0.48 10.72,10.72 0 0 1 2.82,5.12 44.49,44.49 0 0 1 18.46,32.5 28.24,28.24 0 0 1 1.76,31.38 27.75,27.75 0 0 1 -17.83,13.48 10.34,10.34 0 0 1 -7.74,-1 c -0.28,-0.17 -0.55,-0.34 -0.81,-0.52 a 44.4,44.4 0 0 1 -19.62,4.58 z m -15.52,-11.39 0.95,0.42 a 36.42,36.42 0 0 0 32.83,-1.87 l 3.24,-1.88 2.07,3.12 a 2.1,2.1 0 0 0 0.77,0.7 2.36,2.36 0 0 0 1.88,0.13 19.76,19.76 0 0 0 12.86,-9.74 19.64,19.64 0 0 0 2.19,-15.58 v 0 a 19.58,19.58 0 0 0 -4,-7.73 l -0.87,-1 -0.06,-1.41 a 36.51,36.51 0 0 0 -16.53,-28.65 l -1.81,-1.17 0.06,-2.32 a 2.33,2.33 0 0 0 -0.83,-1.66 20.9,20.9 0 0 0 -29.46,-0.37 23.67,23.67 0 0 0 -1.77,2 l -0.58,0.75 -0.86,0.4 a 36.57,36.57 0 0 0 -20.89,32.93 c 0,0.76 0,1.52 0.07,2.33 l 0.12,1.83 -1.31,1.27 a 3,3 0 0 0 -0.7,1.3 19.78,19.78 0 0 0 2,16 20.3,20.3 0 0 0 19.59,10.36 z"
     fill="#2e3d25"
     id="path39" />
  <circle
     cx="54.079426"
     cy="56.996212"
     r="40.349998"
     fill="#559338"
     stroke="#88ba68"
     stroke-width="1.32"
     id="circle41" />
  <circle
     cx="54.799397"
     cy="58.676208"
     r="36.200001"
     stroke="#b0d19b"
     stroke-width="1.32"
     fill="url(#Degradado_sin_nombre)"
     id="circle43"
     style="fill:url(#Degradado_sin_nombre)" />
  <path
     d="m 99.179413,64.18621 a 25.11,25.11 0 0 0 -30.24,-17.45 c -0.73,0.19 -1.43,0.41 -2.12,0.66 a 7.67,7.67 0 0 0 -1.9,-0.23 h -8.54 a 11,11 0 0 1 -8.15,-3.41 11.31,11.31 0 0 1 -3.29,-8.23 11.46,11.46 0 0 1 11.45,-11.52 11.86,11.86 0 0 1 2.5,0.26 l -6.89,6.83 a 6.27,6.27 0 0 0 -2.12,4.47 6.45,6.45 0 0 0 2,4.66 6.31,6.31 0 0 0 4.65,2 6.6,6.6 0 0 0 4.51,-1.94 l 12.27,-12 a 6.41,6.41 0 0 0 2.75,-5.28 6.31,6.31 0 0 0 -1.92,-4.42 24.41,24.41 0 0 0 -42.19,17 23.85,23.85 0 0 0 7.05,17.42 c 0.56,0.57 1.15,1.11 1.74,1.61 a 8.63,8.63 0 0 0 0.72,1.64 l 4.27,7.39 a 11,11 0 0 1 1.12,8.76 11.3,11.3 0 0 1 -5.44,7 11.14,11.14 0 0 1 -8.76,1.18 11,11 0 0 1 -7,-5.37 11.5,11.5 0 0 1 -1,-2.29 l 9.35,2.55 a 6.3,6.3 0 0 0 4.94,-0.4 6.47,6.47 0 0 0 3.05,-4 6.29,6.29 0 0 0 -0.6,-5 6.63,6.63 0 0 0 -3.93,-2.94 l -16.52,-4.66 a 6.4,6.4 0 0 0 -6,0.24 6.26,6.26 0 0 0 -2.87,3.87 23.84,23.84 0 0 0 2.37,19.12 24.69,24.69 0 0 0 45,-5.91 c 0.21,-0.75 0.37,-1.5 0.51,-2.24 a 8.1,8.1 0 0 0 1.05,-1.44 l 4.26,-7.39 a 11,11 0 0 1 7,-5.35 11.26,11.26 0 0 1 8.79,1.21 11.48,11.48 0 0 1 4.25,15.72 12.11,12.11 0 0 1 -1.48,2 l -2.38,-9.3 a 6.23,6.23 0 0 0 -2.81,-4.07 6.43,6.43 0 0 0 -5,-0.63 6.29,6.29 0 0 0 -4.05,3 6.55,6.55 0 0 0 -0.58,4.87 l 4.27,16.64 a 6.39,6.39 0 0 0 3.19,5 6.28,6.28 0 0 0 4.79,0.55 23.77,23.77 0 0 0 15.36,-11.61 23.57,23.57 0 0 0 2.59,-18.6 z"
     stroke="#5b7749"
     stroke-width="1.32"
     fill="url(#Degradado_sin_nombre_2)"
     id="path45"
     style="fill:url(#Degradado_sin_nombre_2)" />
  <path
     d="m 171.85941,46.31621 v 5.29 h -49.75 q 0.7,11.17 6.73,17 6.03,5.83 16.79,5.85 a 47.64,47.64 0 0 0 12.09,-1.45 53.69,53.69 0 0 0 11.61,-4.59 v 10.19 a 65.11,65.11 0 0 1 -11.94,3.76 60,60 0 0 1 -12.45,1.29 q -15.75,0 -25,-9.17 -9.25,-9.17 -9.2,-24.82 0,-16.17 8.73,-25.66 8.73,-9.49 23.55,-9.5 13.29,0 21,8.55 7.71,8.55 7.73,23.26 z m -10.82,-3.17 q -0.12,-8.88 -5,-14.18 -4.88,-5.3 -12.85,-5.29 -9.06,0 -14.5,5.12 -5.44,5.12 -6.23,14.41 z"
     fill="#424241"
     fill-opacity="0.94"
     id="path47" />
  <path
     d="m 221.25941,44.37621 v 37.63 h -10.82 v -10 a 23.58,23.58 0 0 1 -9.23,8.85 29.29,29.29 0 0 1 -13.53,2.85 q -10.11,0 -16.08,-5.67 -5.97,-5.67 -6,-15.2 0,-11.12 7.44,-16.76 7.44,-5.64 22.2,-5.65 h 15.2 v -1.11 c 0,-5 -1.64,-8.83 -4.91,-11.55 -3.27,-2.72 -7.87,-4.09 -13.79,-4.09 a 44.84,44.84 0 0 0 -11,1.35 44.35,44.35 0 0 0 -10.29,4.06 v -10 a 73,73 0 0 1 11.49,-3.44 54.32,54.32 0 0 1 10.88,-1.14 q 14.28,0 21.34,7.41 7.06,7.41 7.1,22.46 z m -21.58,4.47 q -13.11,0 -18.17,3 -5.06,3 -5.06,10.23 a 11.64,11.64 0 0 0 3.79,9.15 q 3.79,3.38 10.32,3.38 a 18,18 0 0 0 14.44,-6.38 q 5.44,-6.39 5.44,-17 v -2.38 z"
     fill="#424241"
     fill-opacity="0.94"
     id="path49" />
  <path
     d="m 267.46941,18.00621 v 10.26 a 42.51,42.51 0 0 0 -9.53,-3.53 44.35,44.35 0 0 0 -10.24,-1.18 q -8.06,0 -12.08,2.47 a 8.13,8.13 0 0 0 -4,7.41 7,7 0 0 0 2.88,5.91 q 2.88,2.16 11.59,4.09 l 3.7,0.82 q 11.54,2.47 16.38,7 4.84,4.53 4.85,12.56 a 17.09,17.09 0 0 1 -7.28,14.49 q -7.26,5.36 -20,5.35 a 62.86,62.86 0 0 1 -11,-1 93.13,93.13 0 0 1 -12.09,-3.09 v -11.19 a 59,59 0 0 0 11.83,4.63 44.43,44.43 0 0 0 11.53,1.56 c 5.09,0 9,-0.87 11.76,-2.62 a 8.28,8.28 0 0 0 4.17,-7.34 8.12,8.12 0 0 0 -3,-6.76 q -3,-2.36 -13,-4.53 l -3.76,-0.88 q -10.06,-2.11 -14.53,-6.5 -4.47,-4.39 -4.47,-12 0,-9.3 6.59,-14.35 6.59,-5.05 18.7,-5.06 a 68.49,68.49 0 0 1 11.29,0.88 47.88,47.88 0 0 1 9.71,2.6 z"
     fill="#424241"
     fill-opacity="0.94"
     id="path51" />
  <path
     d="m 297.80941,88.07621 q -4.59,11.76 -8.94,15.34 -4.35,3.58 -11.64,3.59 h -8.65 v -9.06 h 6.36 c 3,0 5.3,-0.7 6.94,-2.11 1.64,-1.41 3.47,-4.75 5.47,-10 l 1.94,-4.94 -26.65,-64.8 h 11.47 l 20.58,51.51 20.59,-51.51 h 11.46 z"
     fill="#424241"
     fill-opacity="0.94"
     id="path53" />
  <path
     d="m 192.85941,14.50621 a 54.32,54.32 0 0 0 -10.92,1.14 73,73 0 0 0 -11.53,3.45 v 10 a 44.35,44.35 0 0 1 10.33,-4.09 44.84,44.84 0 0 1 11,-1.35 q 8.88,0 13.79,4.09 4.91,4.09 4.91,11.56 v 1 h -15.17 q -14.76,0 -22.2,5.65 c -0.42,0.32 -0.82,0.66 -1.21,1 v -0.72 q 0,-14.7 -7.73,-23.26 -7.73,-8.56 -21,-8.55 -14.82,0 -23.55,9.5 -8.73,9.5 -8.73,25.67 a 42,42 0 0 0 1.42,11.25 c 3,-0.53 6.74,-1.17 11.09,-1.88 a 35,35 0 0 1 -1.22,-7.43 h 46.1 c -0.18,0.31 -0.34,0.64 -0.5,1 q 8.06,-1 16.68,-2 5.31,-1.74 15.29,-1.74 h 1.41 c 6.62,-0.63 13.36,-1.21 20.17,-1.71 v -2.71 q 0,-15 -7.05,-22.46 -7.05,-7.46 -21.38,-7.41 z m -70.4,28.7 q 0.83,-9.3 6.26,-14.41 5.43,-5.11 14.5,-5.12 8,0 12.85,5.29 4.85,5.29 5,14.18 z m 204.2,-26.9 0.08,-0.21 h -11.46 l -12.17,30.44 q 5.08,0.44 9.92,1 l 1,0.12 12.52,-31.14 v -0.21 z m -64,-0.21 0.17,0.4 a 48.82,48.82 0 0 0 -5.1,-1.11 68.49,68.49 0 0 0 -11.29,-0.88 q -12.12,0 -18.7,5.06 -6.58,5.06 -6.61,14.34 0,7.65 4.47,12 c 0.29,0.28 0.6,0.56 0.93,0.83 9.27,-0.63 18.62,-1.1 27.87,-1.35 -1.44,-0.42 -3,-0.8 -4.63,-1.16 l -3.7,-0.82 q -8.72,-1.93 -11.59,-4.09 a 7,7 0 0 1 -2.88,-5.91 8.13,8.13 0 0 1 4,-7.41 q 4,-2.46 12.08,-2.47 a 44.35,44.35 0 0 1 10.26,1.21 42,42 0 0 1 9.52,3.53 v -0.43 l 7.15,17.39 c 3.79,0 7.54,0.12 11.23,0.26 l -11.74,-29.4 h -11.46 z"
     fill="#838382"
     id="path55" />
  <path
     d="m 371.07941,54.84621 a 12.54,12.54 0 0 0 -6.23,-3.58 q 6.33,-2 9.48,-6.16 a 17.31,17.31 0 0 0 3.14,-10.68 q 0,-9.42 -6,-13.77 -6,-4.35 -19,-4.35 h -25.92 v 65.7 h 16.93 v -24.89 h 4.79 a 11,11 0 0 1 6.62,1.8 c 1.66,1.2 3.29,3.44 4.91,6.73 l 8,16.31 h 18 l -9.16,-18.65 a 33.44,33.44 0 0 0 -5.56,-8.46 z m -12.84,-11.41 c -1.54,1.32 -4.09,2 -7.63,2 h -7.13 v -16.86 h 7.13 c 3.54,0 6.09,0.64 7.63,1.93 1.54,1.29 2.3,3.43 2.3,6.42 0,2.99 -0.77,5.19 -2.3,6.51 z"
     fill="#4d603d"
     id="path57" />
  <path
     d="m 434.22941,21.86621 q -6.7,-5.57 -19.24,-5.56 h -28.05 v 65.7 h 16.93 v -22.83 h 11.17 q 12.53,0 19.24,-5.56 6.71,-5.56 6.7,-15.9 -0.04,-10.29 -6.75,-15.85 z m -13.44,22.65 c -1.78,1.6 -4.32,2.39 -7.6,2.39 h -9.37 v -18.33 h 9.37 c 3.28,0 5.82,0.79 7.6,2.37 a 8.57,8.57 0 0 1 2.69,6.77 8.64,8.64 0 0 1 -2.69,6.8 z"
     fill="#4d603d"
     id="path59" />
  <path
     d="m 476.51941,45.50621 v 11.34 h 10.33 v 12.75 a 18.47,18.47 0 0 1 -4.07,1 34,34 0 0 1 -4.9,0.33 q -9.72,0 -15,-5.68 -5.28,-5.68 -5.27,-16.09 0,-10.51 5.47,-16.16 5.47,-5.65 15.59,-5.65 a 39.6,39.6 0 0 1 10.88,1.54 49.67,49.67 0 0 1 10.93,4.66 v -13.54 a 53.14,53.14 0 0 0 -11.32,-3.65 62.44,62.44 0 0 0 -12.56,-1.23 q -17,0 -26.73,9.1 -9.73,9.1 -9.76,25 0,15.7 9.58,24.87 9.58,9.17 26,9.16 a 64,64 0 0 0 14.07,-1.53 60.81,60.81 0 0 0 13.18,-4.65 v 0 -31.57 z"
     fill="#4d603d"
     opacity="0.94"
     id="path61" />
  <path
     d="m 371.42941,20.65621 q -6,-4.35 -19,-4.35 h -25.77 l -0.11,0.26 v 32.52 c 12.54,1.22 26.07,2.11 40,2.69 a 12.2,12.2 0 0 0 -1.69,-0.51 q 6.33,-2 9.48,-6.16 a 17.31,17.31 0 0 0 3.14,-10.68 q -0.01,-9.42 -6.05,-13.77 z m -13.19,22.78 c -1.54,1.32 -4.09,2 -7.63,2 h -7.13 v -16.86 h 7.13 c 3.54,0 6.09,0.64 7.63,1.93 1.54,1.29 2.3,3.43 2.3,6.42 0,2.99 -0.77,5.19 -2.3,6.51 z m 76,-21.57 q -6.7,-5.57 -19.24,-5.56 h -28.06 v 36.13 c 16.43,0.36 33,0.35 48.59,0 q 5.41,-5.43 5.41,-14.72 0,-10.29 -6.7,-15.85 z m -13.45,22.65 c -1.78,1.6 -4.32,2.39 -7.6,2.39 h -9.37 v -18.33 h 9.37 c 3.28,0 5.82,0.79 7.6,2.37 a 8.57,8.57 0 0 1 2.69,6.77 8.64,8.64 0 0 1 -2.69,6.8 z m 55.73,1 v 5.28 c 10,-0.65 19,-1.44 26.38,-2.36 v -2.93 z m 2.15,-18.12 a 39.6,39.6 0 0 1 10.88,1.54 49.67,49.67 0 0 1 10.93,4.66 v -13.59 a 53.14,53.14 0 0 0 -11.32,-3.65 62.44,62.44 0 0 0 -12.56,-1.23 q -17,0 -26.73,9.1 -9.73,9.1 -9.76,25 c 0,1.08 0,2.13 0.11,3.16 6,-0.14 11.84,-0.34 17.47,-0.57 0,-0.84 -0.08,-1.7 -0.08,-2.59 q 0,-10.51 5.47,-16.16 5.47,-5.65 15.59,-5.65 z"
     fill="#5f7057"
     id="path63" />
</svg>
