<?xml version="1.0" encoding="UTF-8" standalone="no"?>
<!-- Created with Inkscape (http://www.inkscape.org/) -->

<svg
   width="201.83502mm"
   height="78.30304mm"
   viewBox="0 0 201.83502 78.30304"
   version="1.1"
   id="svg2980"
   inkscape:version="1.1 (c68e22c387, 2021-05-23)"
   sodipodi:docname="fba.svg"
   xmlns:inkscape="http://www.inkscape.org/namespaces/inkscape"
   xmlns:sodipodi="http://sodipodi.sourceforge.net/DTD/sodipodi-0.dtd"
   xmlns="http://www.w3.org/2000/svg"
   xmlns:svg="http://www.w3.org/2000/svg">
  <sodipodi:namedview
     id="namedview2982"
     pagecolor="#ffffff"
     bordercolor="#666666"
     borderopacity="1.0"
     inkscape:pageshadow="2"
     inkscape:pageopacity="0.0"
     inkscape:pagecheckerboard="0"
     inkscape:document-units="mm"
     showgrid="false"
     fit-margin-top="0"
     fit-margin-left="0"
     fit-margin-right="0"
     fit-margin-bottom="0"
     inkscape:zoom="0.67081229"
     inkscape:cx="373.42786"
     inkscape:cy="178.8876"
     inkscape:window-width="1920"
     inkscape:window-height="1138"
     inkscape:window-x="-8"
     inkscape:window-y="-8"
     inkscape:window-maximized="1"
     inkscape:current-layer="layer1" />
  <defs
     id="defs2977" />
  <g
     inkscape:label="Calque 1"
     inkscape:groupmode="layer"
     id="layer1"
     transform="translate(-6.2916983,-101.03207)">
    <rect
       style="fill:#ffffff;fill-opacity:1;fill-rule:evenodd;stroke:none;stroke-width:4.53939;stroke-linecap:round;stroke-linejoin:round;stroke-miterlimit:4;stroke-dasharray:none;paint-order:stroke markers fill"
       id="rect7089"
       width="38.653385"
       height="33.525894"
       x="54.094727"
       y="128.09174" />
    <rect
       style="fill:#ffffff;fill-opacity:1;fill-rule:evenodd;stroke:none;stroke-width:3.65282;stroke-linecap:round;stroke-linejoin:round;stroke-miterlimit:4;stroke-dasharray:none;paint-order:stroke markers fill"
       id="rect7215"
       width="43.386452"
       height="19.340826"
       x="107.46893"
       y="157.42532" />
    <rect
       style="fill:#ffffff;fill-opacity:1;fill-rule:evenodd;stroke:none;stroke-width:3.65282;stroke-linecap:round;stroke-linejoin:round;stroke-miterlimit:4;stroke-dasharray:none;paint-order:stroke markers fill"
       id="rect7217"
       width="43.386452"
       height="19.340826"
       x="55.61058"
       y="157.42532" />
    <rect
       style="fill:#ffffff;fill-opacity:1;fill-rule:evenodd;stroke:none;stroke-width:2.58293;stroke-linecap:round;stroke-linejoin:round;stroke-miterlimit:4;stroke-dasharray:none;paint-order:stroke markers fill"
       id="rect7219"
       width="21.693224"
       height="19.340826"
       x="157.448"
       y="157.42532" />
    <rect
       style="fill:#ffffff;fill-opacity:1;fill-rule:evenodd;stroke:none;stroke-width:2.3877;stroke-linecap:round;stroke-linejoin:round;stroke-miterlimit:4;stroke-dasharray:none;paint-order:stroke markers fill"
       id="rect7221"
       width="18.537846"
       height="19.340826"
       x="185.49345"
       y="157.42532" />
    <path
       style="fill:#a55c31;fill-opacity:1;stroke:#ffffff;stroke-width:4;stroke-linecap:round;stroke-linejoin:round;stroke-miterlimit:4;stroke-dasharray:none;paint-order:stroke markers fill"
       d="m 122.43244,177.09383 c -1.26437,-0.3535 -2.19826,-1.1142 -2.76229,-2.25002 l -0.47261,-0.95173 -0.0628,-8.57257 -0.0627,-8.57258 h 1.9953 1.9953 l 0.003,8.37437 c 0.002,4.6059 0.0793,8.49463 0.17241,8.64163 0.0932,0.14699 0.33707,0.23498 0.54204,0.19553 0.35694,-0.0687 0.37485,-0.43342 0.42433,-8.64163 l 0.0517,-8.5699 h 1.98785 1.98786 l -0.0574,8.67168 c -0.0531,8.0162 -0.0853,8.72412 -0.42691,9.36542 -0.46727,0.87731 -1.26533,1.74137 -1.92847,2.08796 -0.78376,0.40962 -2.34835,0.51211 -3.38658,0.22184 z m -96.248099,-5.6051 0.05279,-5.2774 5.054351,-2.62239 5.054351,-2.6224 0.05059,-18.17783 c 0.04928,-17.70528 0.0603,-18.17474 0.424185,-18.05925 0.205477,0.0652 5.133001,1.75134 10.950054,3.74695 l 10.576462,3.62838 0.05105,12.32107 0.05105,12.32107 h 4.061801 4.061801 v 10.0096 10.00959 H 46.352194 26.131551 Z m 42.767013,-4.7322 v -10.0096 h 1.982098 1.982099 v 10.0096 10.00959 h -1.982099 -1.982098 z m 5.946295,0 v -10.0096 h 1.57804 1.578038 l 0.196321,0.74329 c 0.107976,0.40881 0.624283,2.43798 1.147347,4.50927 l 0.951025,3.76599 0.05327,-4.50928 0.05327,-4.50927 h 1.581956 1.581959 v 10.0096 10.00959 h -1.667728 -1.667726 l -0.610405,-2.62628 c -0.335722,-1.44445 -0.811669,-3.47362 -1.057658,-4.50927 l -0.447254,-1.88299 -0.05327,4.50927 -0.05327,4.50927 h -1.581956 -1.581959 z m 11.142414,0.44597 c 0.527153,-5.25999 1.00249,-9.76431 1.056306,-10.0096 0.09597,-0.43745 0.152667,-0.44597 2.96811,-0.44597 2.678368,0 2.870266,0.0249 2.870266,0.37311 0,0.20522 0.490552,4.64264 1.090113,9.86094 0.599563,5.21831 1.090132,9.55473 1.090154,9.63649 2.4e-5,0.0818 -0.882434,0.14865 -1.961015,0.14865 h -1.961056 l -0.141189,-1.78388 -0.141189,-1.78389 h -0.744189 -0.744189 l -0.124991,1.0406 c -0.06874,0.57233 -0.125766,1.37508 -0.126713,1.78389 l -0.0017,0.74328 h -2.043579 -2.043577 z m 4.717934,2.27941 c 0.01213,-1.18244 -0.484221,-7.70829 -0.596059,-7.83672 -0.130299,-0.14963 -0.802754,6.20755 -0.797507,7.53941 0.0024,0.60358 0.04626,0.64418 0.696272,0.64418 0.527204,0 0.694588,-0.0833 0.697294,-0.34687 z m 5.546316,-2.72538 v -10.0096 h 1.982098 1.982099 v 8.1266 8.12661 h 1.18925 1.18926 v 1.88299 1.88299 h -3.171349 -3.171358 z m 11.694377,0.0118 v -10.02138 l 2.72538,0.001 c 3.15381,0.001 4.06263,0.19404 4.96068,1.05215 0.85423,0.81623 1.23338,2.15062 1.23338,4.34076 0,2.16779 -0.29824,2.96748 -1.29799,3.48039 l -0.73414,0.37663 0.7683,0.39178 c 1.31888,0.67252 1.56128,1.43772 1.56036,4.92561 -8e-4,3.23618 -0.17866,4.09338 -1.01149,4.87655 -0.49203,0.4627 -0.60585,0.47672 -4.35486,0.53645 l -3.84962,0.0613 V 166.7682 Z m 5.1039,6.27304 c 0.16286,-0.20718 0.24776,-1.03633 0.24776,-2.41972 0,-2.22904 -0.13641,-2.6391 -0.94149,-2.83018 l -0.44597,-0.10586 v 2.96795 2.96795 l 0.44597,-0.13248 c 0.24528,-0.0729 0.55746,-0.2743 0.69373,-0.44765 z m 0.0545,-8.87445 c 0.10632,-0.27963 0.1933,-1.10713 0.1933,-1.83888 0,-1.45487 -0.34292,-2.21151 -1.00228,-2.21151 -0.35911,0 -0.38518,0.15431 -0.38518,2.27941 v 2.27941 h 0.50043 c 0.35479,0 0.55668,-0.14795 0.69373,-0.50842 z m 17.43756,2.56637 v -10.03287 l 3.22549,0.0779 c 3.82558,0.0924 4.30198,0.26565 5.09932,1.855 0.45351,0.90397 0.49553,1.20916 0.49553,3.59911 0,2.94093 -0.20817,3.4991 -1.46251,3.92144 l -0.64781,0.21811 0.70081,0.33419 c 0.44242,0.21098 0.84972,0.62609 1.10471,1.12591 0.36759,0.72054 0.4039,1.15772 0.4039,4.86292 v 4.07119 h -1.76978 -1.76979 l -0.0636,-4.25199 c -0.0373,-2.49196 -0.1457,-4.32876 -0.26187,-4.43745 -0.10901,-0.10199 -0.3989,-0.24608 -0.64418,-0.32018 l -0.44597,-0.13474 v 4.57218 4.57218 h -1.9821 -1.9821 z m 4.9534,-2.25081 c 0.21063,-0.13317 0.31628,-0.6452 0.36797,-1.78343 0.0797,-1.7551 -0.22958,-2.58252 -0.96532,-2.58252 -0.36761,0 -0.39185,0.141 -0.39185,2.27941 0,2.03989 0.0365,2.2791 0.34687,2.27638 0.19077,-0.002 0.47982,-0.0871 0.64233,-0.18984 z m 6.34456,2.27408 v -10.0096 h 1.6399 1.6399 l 1.06176,4.31106 c 0.58397,2.37109 1.13934,4.3958 1.23414,4.49937 0.0982,0.10723 0.17239,-1.7487 0.17239,-4.31107 v -4.49936 h 1.58568 1.58568 v 10.0096 10.00959 l -1.73434,-7.9e-4 -1.73434,-7.9e-4 -0.98461,-4.37481 c -0.54154,-2.40615 -1.05441,-4.41795 -1.13971,-4.47067 -0.0853,-0.0526 -0.15509,1.91636 -0.15509,4.37564 v 4.47142 h -1.58568 -1.58568 z m 13.96112,9.56362 c 0.0517,-0.24528 0.52083,-4.7496 1.04255,-10.00959 l 0.94857,-9.56363 h 2.87835 2.87834 l 1.06108,9.36542 c 0.5836,5.15097 1.10702,9.65529 1.16317,10.00959 l 0.10208,0.64418 h -1.98109 -1.98109 l -0.12605,-0.9196 c -0.0693,-0.50579 -0.12604,-1.30854 -0.12604,-1.78389 v -0.86428 h -0.76691 c -0.73222,0 -0.77246,0.0336 -0.88976,0.74328 -0.0676,0.40881 -0.12384,1.21156 -0.12504,1.78389 l -0.002,1.0406 h -2.08498 c -2.05791,0 -2.08376,-0.006 -1.991,-0.44597 z m 5.65368,-7.13555 c -0.0159,-1.28152 -0.52782,-7.48966 -0.62571,-7.58755 -0.1108,-0.11081 -0.50364,3.51353 -0.69258,6.38975 l -0.12099,1.84198 h 0.72363 c 0.6859,0 0.72321,-0.0336 0.71565,-0.64418 z m 5.55785,-2.42807 v -10.0096 h 1.9821 1.9821 v 8.1266 8.12661 h 1.18926 1.18926 v 1.88299 1.88299 h -3.17136 -3.17136 z m 8.12661,-0.0208 v -10.03037 l 3.1218,0.0703 c 3.64643,0.0821 4.20977,0.28133 4.95525,1.75209 0.4113,0.81146 0.44597,1.14593 0.44597,4.30252 0,2.69803 -0.0682,3.59322 -0.32233,4.22825 -0.42838,1.07061 -1.40949,1.58095 -3.03934,1.58095 h -1.19716 v 4.0633 4.0633 h -1.98209 -1.9821 z m 5.1039,-1.8287 c 0.16019,-0.19882 0.24776,-0.98965 0.24776,-2.23756 0,-2.04845 -0.19866,-2.553 -1.0052,-2.553 -0.35769,0 -0.38227,0.16354 -0.38227,2.54369 0,1.39903 0.0533,2.59701 0.11849,2.66218 0.17109,0.17109 0.7328,-0.0573 1.02122,-0.41531 z m 5.40122,1.84947 v -10.0096 h 1.97763 1.97762 l 0.054,3.61733 0.054,3.61733 h 0.59463 0.59463 l 0.054,-3.61733 0.054,-3.61733 h 1.97763 1.97762 v 10.0096 10.00959 h -1.9821 -1.98209 v -4.1624 -4.16241 h -0.69374 -0.69373 v 4.16241 4.1624 h -1.9821 -1.9821 z m 10.50512,9.75961 c 0,-0.13749 0.44597,-4.60074 0.99105,-9.91834 0.54508,-5.3176 0.99105,-9.70943 0.99105,-9.75962 0,-0.0502 1.28785,-0.0913 2.8619,-0.0913 h 2.86189 l 0.1161,0.84239 c 0.26709,1.93797 2.0885,18.23327 2.0885,18.68477 0,0.4911 -0.004,0.49203 -1.98209,0.49203 h -1.9821 l -0.003,-1.33791 c -0.004,-2.02371 -0.0976,-2.22986 -1.01147,-2.22986 h -0.76972 l -0.002,1.0406 c -0.001,0.57233 -0.0575,1.37508 -0.12504,1.78389 l -0.12286,0.74328 h -1.95616 c -1.44206,0 -1.95617,-0.0657 -1.95617,-0.24998 z m 5.65817,-7.72796 c -0.15014,-1.31914 -0.50359,-6.20518 -0.50423,-6.97038 -0.002,-1.81176 -0.4779,1.6411 -0.89333,6.47485 l -0.13202,1.53613 h 0.82401 0.82401 z M 62.212219,143.86329 v -9.11765 h 15.163053 15.163054 v 9.11765 9.11765 H 77.375272 62.212219 Z m -26.262805,-22.36422 -27.5511701,-9.45013 -0.053274,-4.50843 -0.053274,-4.50844 34.7399991,0.003 c 38.086439,0.004 36.11137,-0.0566 38.764826,1.18509 3.524887,1.64949 7.287187,5.52336 9.144522,9.41569 1.428252,2.99312 1.59394,4.18161 1.595786,11.44662 l 0.0015,5.89674 -14.518872,-0.0152 -14.518871,-0.0152 -27.551169,-9.45013 z"
       id="path3573" />
    <path
       style="fill:#000000;stroke-width:0.19821"
       id="path3417"
       d="" />
    <path
       style="fill:#000000;stroke-width:0.19821"
       id="path3109"
       d="" />
    <path
       style="fill:#7c4524;fill-opacity:1;stroke-width:0.19821"
       d="m 122.43244,177.09383 c -1.26437,-0.3535 -2.19826,-1.1142 -2.76229,-2.25002 l -0.47261,-0.95173 -0.0628,-8.57257 -0.0627,-8.57258 h 1.9953 1.9953 l 0.003,8.37437 c 0.002,4.6059 0.0793,8.49463 0.17241,8.64163 0.0932,0.14699 0.33707,0.23498 0.54204,0.19553 0.35694,-0.0687 0.37485,-0.43342 0.42433,-8.64163 l 0.0517,-8.5699 h 1.98785 1.98786 l -0.0574,8.67168 c -0.0531,8.0162 -0.0853,8.72412 -0.42691,9.36542 -0.46727,0.87731 -1.26533,1.74137 -1.92847,2.08796 -0.78376,0.40962 -2.34835,0.51211 -3.38658,0.22184 z m -96.248099,-5.6051 0.05279,-5.2774 5.054351,-2.62239 5.054351,-2.6224 0.05059,-18.17783 c 0.04928,-17.70528 0.0603,-18.17474 0.424185,-18.05925 0.205477,0.0652 5.133001,1.75134 10.950054,3.74695 l 10.576462,3.62838 0.05105,12.32107 0.05105,12.32107 h 4.061801 4.061801 v 10.0096 10.00959 H 46.352194 26.131551 Z m 42.767013,-4.7322 v -10.0096 h 1.982098 1.982099 v 10.0096 10.00959 h -1.982099 -1.982098 z m 5.946295,0 v -10.0096 h 1.57804 1.578038 l 0.196321,0.74329 c 0.107976,0.40881 0.624283,2.43798 1.147347,4.50927 l 0.951025,3.76599 0.05327,-4.50928 0.05327,-4.50927 h 1.581956 1.581959 v 10.0096 10.00959 h -1.667728 -1.667726 l -0.610405,-2.62628 c -0.335722,-1.44445 -0.811669,-3.47362 -1.057658,-4.50927 l -0.447254,-1.88299 -0.05327,4.50927 -0.05327,4.50927 h -1.581956 -1.581959 z m 11.142414,0.44597 c 0.527153,-5.25999 1.00249,-9.76431 1.056306,-10.0096 0.09597,-0.43745 0.152667,-0.44597 2.96811,-0.44597 2.678368,0 2.870266,0.0249 2.870266,0.37311 0,0.20522 0.490552,4.64264 1.090113,9.86094 0.599563,5.21831 1.090132,9.55473 1.090154,9.63649 2.4e-5,0.0818 -0.882434,0.14865 -1.961015,0.14865 h -1.961056 l -0.141189,-1.78388 -0.141189,-1.78389 h -0.744189 -0.744189 l -0.124991,1.0406 c -0.06874,0.57233 -0.125766,1.37508 -0.126713,1.78389 l -0.0017,0.74328 h -2.043579 -2.043577 z m 4.717934,2.27941 c 0.01213,-1.18244 -0.484221,-7.70829 -0.596059,-7.83672 -0.130299,-0.14963 -0.802754,6.20755 -0.797507,7.53941 0.0024,0.60358 0.04626,0.64418 0.696272,0.64418 0.527204,0 0.694588,-0.0833 0.697294,-0.34687 z m 5.546316,-2.72538 v -10.0096 h 1.982098 1.982099 v 8.1266 8.12661 h 1.18925 1.18926 v 1.88299 1.88299 h -3.171349 -3.171358 z m 11.694377,0.0118 v -10.02138 l 2.72538,0.001 c 3.15381,0.001 4.06263,0.19404 4.96068,1.05215 0.85423,0.81623 1.23338,2.15062 1.23338,4.34076 0,2.16779 -0.29824,2.96748 -1.29799,3.48039 l -0.73414,0.37663 0.7683,0.39178 c 1.31888,0.67252 1.56128,1.43772 1.56036,4.92561 -8e-4,3.23618 -0.17866,4.09338 -1.01149,4.87655 -0.49203,0.4627 -0.60585,0.47672 -4.35486,0.53645 l -3.84962,0.0613 V 166.7682 Z m 5.1039,6.27304 c 0.16286,-0.20718 0.24776,-1.03633 0.24776,-2.41972 0,-2.22904 -0.13641,-2.6391 -0.94149,-2.83018 l -0.44597,-0.10586 v 2.96795 2.96795 l 0.44597,-0.13248 c 0.24528,-0.0729 0.55746,-0.2743 0.69373,-0.44765 z m 0.0545,-8.87445 c 0.10632,-0.27963 0.1933,-1.10713 0.1933,-1.83888 0,-1.45487 -0.34292,-2.21151 -1.00228,-2.21151 -0.35911,0 -0.38518,0.15431 -0.38518,2.27941 v 2.27941 h 0.50043 c 0.35479,0 0.55668,-0.14795 0.69373,-0.50842 z m 17.43756,2.56637 v -10.03287 l 3.22549,0.0779 c 3.82558,0.0924 4.30198,0.26565 5.09932,1.855 0.45351,0.90397 0.49553,1.20916 0.49553,3.59911 0,2.94093 -0.20817,3.4991 -1.46251,3.92144 l -0.64781,0.21811 0.70081,0.33419 c 0.44242,0.21098 0.84972,0.62609 1.10471,1.12591 0.36759,0.72054 0.4039,1.15772 0.4039,4.86292 v 4.07119 h -1.76978 -1.76979 l -0.0636,-4.25199 c -0.0373,-2.49196 -0.1457,-4.32876 -0.26187,-4.43745 -0.10901,-0.10199 -0.3989,-0.24608 -0.64418,-0.32018 l -0.44597,-0.13474 v 4.57218 4.57218 h -1.9821 -1.9821 z m 4.9534,-2.25081 c 0.21063,-0.13317 0.31628,-0.6452 0.36797,-1.78343 0.0797,-1.7551 -0.22958,-2.58252 -0.96532,-2.58252 -0.36761,0 -0.39185,0.141 -0.39185,2.27941 0,2.03989 0.0365,2.2791 0.34687,2.27638 0.19077,-0.002 0.47982,-0.0871 0.64233,-0.18984 z m 6.34456,2.27408 v -10.0096 h 1.6399 1.6399 l 1.06176,4.31106 c 0.58397,2.37109 1.13934,4.3958 1.23414,4.49937 0.0982,0.10723 0.17239,-1.7487 0.17239,-4.31107 v -4.49936 h 1.58568 1.58568 v 10.0096 10.00959 l -1.73434,-7.9e-4 -1.73434,-7.9e-4 -0.98461,-4.37481 c -0.54154,-2.40615 -1.05441,-4.41795 -1.13971,-4.47067 -0.0853,-0.0526 -0.15509,1.91636 -0.15509,4.37564 v 4.47142 h -1.58568 -1.58568 z m 13.96112,9.56362 c 0.0517,-0.24528 0.52083,-4.7496 1.04255,-10.00959 l 0.94857,-9.56363 h 2.87835 2.87834 l 1.06108,9.36542 c 0.5836,5.15097 1.10702,9.65529 1.16317,10.00959 l 0.10208,0.64418 h -1.98109 -1.98109 l -0.12605,-0.9196 c -0.0693,-0.50579 -0.12604,-1.30854 -0.12604,-1.78389 v -0.86428 h -0.76691 c -0.73222,0 -0.77246,0.0336 -0.88976,0.74328 -0.0676,0.40881 -0.12384,1.21156 -0.12504,1.78389 l -0.002,1.0406 h -2.08498 c -2.05791,0 -2.08376,-0.006 -1.991,-0.44597 z m 5.65368,-7.13555 c -0.0159,-1.28152 -0.52782,-7.48966 -0.62571,-7.58755 -0.1108,-0.11081 -0.50364,3.51353 -0.69258,6.38975 l -0.12099,1.84198 h 0.72363 c 0.6859,0 0.72321,-0.0336 0.71565,-0.64418 z m 5.55785,-2.42807 v -10.0096 h 1.9821 1.9821 v 8.1266 8.12661 h 1.18926 1.18926 v 1.88299 1.88299 h -3.17136 -3.17136 z m 8.12661,-0.0208 v -10.03037 l 3.1218,0.0703 c 3.64643,0.0821 4.20977,0.28133 4.95525,1.75209 0.4113,0.81146 0.44597,1.14593 0.44597,4.30252 0,2.69803 -0.0682,3.59322 -0.32233,4.22825 -0.42838,1.07061 -1.40949,1.58095 -3.03934,1.58095 h -1.19716 v 4.0633 4.0633 h -1.98209 -1.9821 z m 5.1039,-1.8287 c 0.16019,-0.19882 0.24776,-0.98965 0.24776,-2.23756 0,-2.04845 -0.19866,-2.553 -1.0052,-2.553 -0.35769,0 -0.38227,0.16354 -0.38227,2.54369 0,1.39903 0.0533,2.59701 0.11849,2.66218 0.17109,0.17109 0.7328,-0.0573 1.02122,-0.41531 z m 5.40122,1.84947 v -10.0096 h 1.97763 1.97762 l 0.054,3.61733 0.054,3.61733 h 0.59463 0.59463 l 0.054,-3.61733 0.054,-3.61733 h 1.97763 1.97762 v 10.0096 10.00959 h -1.9821 -1.98209 v -4.1624 -4.16241 h -0.69374 -0.69373 v 4.16241 4.1624 h -1.9821 -1.9821 z m 10.50512,9.75961 c 0,-0.13749 0.44597,-4.60074 0.99105,-9.91834 0.54508,-5.3176 0.99105,-9.70943 0.99105,-9.75962 0,-0.0502 1.28785,-0.0913 2.8619,-0.0913 h 2.86189 l 0.1161,0.84239 c 0.26709,1.93797 2.0885,18.23327 2.0885,18.68477 0,0.4911 -0.004,0.49203 -1.98209,0.49203 h -1.9821 l -0.003,-1.33791 c -0.004,-2.02371 -0.0976,-2.22986 -1.01147,-2.22986 h -0.76972 l -0.002,1.0406 c -0.001,0.57233 -0.0575,1.37508 -0.12504,1.78389 l -0.12286,0.74328 h -1.95616 c -1.44206,0 -1.95617,-0.0657 -1.95617,-0.24998 z m 5.65817,-7.72796 c -0.15014,-1.31914 -0.50359,-6.20518 -0.50423,-6.97038 -0.002,-1.81176 -0.4779,1.6411 -0.89333,6.47485 l -0.13202,1.53613 h 0.82401 0.82401 z M 62.212219,143.86329 v -9.11765 h 15.163053 15.163054 v 9.11765 9.11765 H 77.375272 62.212219 Z m -26.262805,-22.36422 -27.5511706,-9.45013 -0.053274,-4.50843 -0.053274,-4.50844 34.7399996,0.003 c 38.086439,0.004 36.11137,-0.0566 38.764826,1.18509 3.524887,1.64949 7.287187,5.52336 9.144522,9.41569 1.428252,2.99312 1.59394,4.18161 1.595786,11.44662 l 0.0015,5.89674 -14.518872,-0.0152 -14.518871,-0.0152 -27.551169,-9.45013 z"
       id="path6993" />
  </g>
</svg>
