<?xml version="1.0" encoding="UTF-8" standalone="no"?>
<svg
   viewBox="0 0 291.73761 114.00043"
   version="1.1"
   id="svg78"
   sodipodi:docname="gamegear.svg"
   width="291.73761"
   height="114.00043"
   inkscape:version="1.1 (c68e22c387, 2021-05-23)"
   xmlns:inkscape="http://www.inkscape.org/namespaces/inkscape"
   xmlns:sodipodi="http://sodipodi.sourceforge.net/DTD/sodipodi-0.dtd"
   xmlns="http://www.w3.org/2000/svg"
   xmlns:svg="http://www.w3.org/2000/svg"
   xmlns:rdf="http://www.w3.org/1999/02/22-rdf-syntax-ns#"
   xmlns:cc="http://creativecommons.org/ns#"
   xmlns:dc="http://purl.org/dc/elements/1.1/">
  <defs
     id="defs82" />
  <sodipodi:namedview
     id="namedview80"
     pagecolor="#ffffff"
     bordercolor="#666666"
     borderopacity="1.0"
     inkscape:pageshadow="2"
     inkscape:pageopacity="0.0"
     inkscape:pagecheckerboard="0"
     showgrid="false"
     fit-margin-top="0"
     fit-margin-left="0"
     fit-margin-right="0"
     fit-margin-bottom="0"
     inkscape:zoom="1.113"
     inkscape:cx="146.0018"
     inkscape:cy="56.603774"
     inkscape:window-width="1920"
     inkscape:window-height="1138"
     inkscape:window-x="-8"
     inkscape:window-y="-8"
     inkscape:window-maximized="1"
     inkscape:current-layer="svg78" />
  <title
     id="title2">logo</title>
  <g
     id="Layer_2"
     data-name="Layer 2"
     transform="translate(-354.13251,4.5402256e-4)">
    <rect
       x="468.34872"
       y="44.738689"
       width="14.11812"
       height="17.33333"
       fill="#ffffff"
       id="rect4" />
    <rect
       x="449.32404"
       y="58.127579"
       width="7.0679002"
       height="7.0679002"
       fill="#ffffff"
       id="rect6" />
  </g>
  <g
     id="Layer_1"
     data-name="Layer 1"
     transform="translate(-354.13251,4.5402256e-4)">
    <path
       d="m 586.65927,92.98153 a 3.49975,3.49975 0 0 1 -3.28711,-4.70215 L 589.90634,70.418 a 3.50132,3.50132 0 0 1 3.28516,-2.29785 3.547,3.547 0 0 1 0.46387,0.03027 3.5,3.5 0 0 1 3.02539,3.16993 l 1.53808,17.86132 a 3.5,3.5 0 0 1 -3.4873,3.79981 z"
       fill="#ffffff"
       id="path9" />
    <path
       d="m 593.19315,71.62 1.53885,17.8618 h -8.07251 L 593.19315,71.62 m -0.004,-7.0004 a 7.00058,7.00058 0 0 0 -6.56988,4.59569 l -6.53371,17.8618 a 7,7 0 0 0 6.574,9.40471 h 8.07259 a 7,7 0 0 0 6.97416,-7.60083 L 600.1675,71.01917 A 7.00363,7.00363 0 0 0 593.189,64.6196 Z"
       fill="#ffffff"
       id="path11" />
    <path
       d="m 406.62754,92.98251 a 3.50008,3.50008 0 0 1 -3.28614,-4.70508 l 6.54981,-17.86133 a 3.50013,3.50013 0 0 1 3.28418,-2.29492 3.4273,3.4273 0 0 1 0.46679,0.03125 3.5,3.5 0 0 1 3.02247,3.17187 l 1.521,17.86133 a 3.50055,3.50055 0 0 1 -3.4873,3.79688 z"
       fill="#ffffff"
       id="path13" />
    <path
       d="m 413.17716,71.6214 1.52129,17.86115 h -8.071 l 6.54974,-17.86115 m -0.004,-7.00042 a 7.00082,7.00082 0 0 0 -6.568,4.59041 l -6.54974,17.86117 a 7,7 0 0 0 6.57206,9.41 h 8.071 a 7,7 0 0 0 6.97475,-7.59406 l -1.5213,-17.86116 a 7.00357,7.00357 0 0 0 -6.97884,-6.40635 z"
       fill="#ffffff"
       id="path15" />
    <path
       d="m 618.30576,84.25594 a 3.50032,3.50032 0 0 1 -3.44629,-4.1123 l 1.96484,-11.05078 a 3.50045,3.50045 0 0 1 3.44629,-2.8877 h 4.71485 a 9.89123,9.89123 0 0 1 5.93847,1.59082 c 1.83692,1.35352 2.752,3.5791 2.752,6.64063 a 8.96312,8.96312 0 0 1 -3.48926,7.543 12.18872,12.18872 0 0 1 -7.46,2.27636 z"
       fill="#ffffff"
       id="path17" />
    <path
       d="m 624.98569,69.70544 a 6.66527,6.66527 0 0 1 3.89618,0.93318 c 0.86755,0.63842 1.29364,1.8985 1.29364,3.79772 A 5.55712,5.55712 0 0 1 628.08,79.1847 8.72672,8.72672 0 0 1 622.72679,80.75557 H 618.306 v -6.8e-4 l 1.96485,-11.04945 h 4.71484 m 0,-7 h -4.71484 A 7,7 0 0 0 613.379,68.4799 l -1.96484,11.04945 a 7,7 0 0 0 6.89077,8.22554 l 4.42081,6.7e-4 a 15.59456,15.59456 0 0 0 9.53027,-2.95291 12.58008,12.58008 0 0 0 4.91953,-10.36631 c 0,-5.27774 -2.25391,-8.04422 -4.14468,-9.43566 l -0.0657,-0.04772 a 13.22729,13.22729 0 0 0 -7.97949,-2.24752 z"
       fill="#ffffff"
       id="path19" />
    <path
       d="m 596.13779,109.42 a 3.5,3.5 0 0 1 -3.4873,-3.20118 l -0.47657,-5.55761 h -5.88476 l -2.36621,6.46191 a 3.49893,3.49893 0 0 1 -3.28614,2.29688 h -8.82617 a 3.50015,3.50015 0 0 1 -3.24707,-4.80664 l 18.07324,-44.90723 a 3.4999,3.4999 0 0 1 3.24707,-2.19336 h 9.65918 a 3.49976,3.49976 0 0 1 3.47754,3.10449 l 5.1084,44.90723 a 3.49913,3.49913 0 0 1 -3.47754,3.89551 z"
       fill="#ffffff"
       id="path21" />
    <path
       d="m 599.54319,61.01271 5.1087,44.90744 H 596.138 l -0.75158,-8.75907 h -11.54258 l -3.20744,8.75907 h -8.8254 l 18.07342,-44.90744 h 9.65882 M 586.65946,89.48182 H 594.732 L 593.19315,71.62 586.65946,89.48182 m 12.88373,-35.46911 h -9.65882 a 7,7 0 0 0 -6.49382,4.38649 l -18.07342,44.90746 a 7,7 0 0 0 6.49382,9.61349 h 8.82545 a 7,7 0 0 0 6.57315,-4.593 l 1.52556,-4.16609 h 0.22626 l 0.2023,2.35754 a 7,7 0 0 0 6.97436,6.40153 h 8.51386 a 7,7 0 0 0 6.95514,-7.79121 l -5.10871,-44.90746 a 7,7 0 0 0 -6.95513,-6.20877 z"
       fill="#ffffff"
       id="path23" />
    <path
       d="m 547.53281,109.419 a 3.50008,3.50008 0 0 1 -3.45313,-4.07129 l 7.43262,-44.89062 a 3.50044,3.50044 0 0 1 3.45313,-2.92872 h 23.23193 a 3.50169,3.50169 0 0 1 3.46,4.03028 l -1.4248,9.29785 a 3.50032,3.50032 0 0 1 -3.46,2.96973 h -11.69727 l -0.20313,1.12109 h 9.001 a 3.50025,3.50025 0 0 1 3.458,4.04 l -1.35646,8.67878 a 3.5,3.5 0 0 1 -3.458,2.959 h -10.28614 l -0.458,2.544 h 10.74414 a 3.50045,3.50045 0 0 1 3.45605,4.05078 l -1.47363,9.25 a 3.499,3.499 0 0 1 -3.45606,2.94922 z"
       fill="#ffffff"
       id="path25" />
    <path
       d="m 578.1973,61.02808 -1.4243,9.29834 h -14.62082 l -1.47173,8.12066 h 13.19312 l -1.35718,8.678 h -13.21265 l -1.71759,9.54419 h 14.9303 l -1.47316,9.24945 h -23.51054 l 7.43268,-44.89069 h 23.23187 m -5.68085,35.64124 h 0.005 m 5.67584,-42.64124 h -23.23186 a 7,7 0 0 0 -6.906,5.85657 l -7.43268,44.89068 a 7,7 0 0 0 6.906,8.14344 h 23.51054 a 7,7 0 0 0 6.91287,-5.899 l 1.43757,-9.02594 a 7.01578,7.01578 0 0 0 -1.75409,-6.09851 6.97981,6.97981 0 0 0 1.79267,-3.68862 l 1.3572,-8.678 a 6.99831,6.99831 0 0 0 -0.27252,-3.28729 6.9931,6.9931 0 0 0 3.17535,-4.85513 l 1.42426,-9.29834 a 7,7 0 0 0 -6.9193,-8.05984 z m 0,14 z"
       fill="#ffffff"
       id="path27" />
    <path
       d="m 456.11777,109.4034 a 3.50047,3.50047 0 0 1 -3.44287,-4.13086 l 0.1709,-0.93261 -1.1626,2.876 a 3.49961,3.49961 0 0 1 -3.24463,2.1875 h -6.62891 a 3.49966,3.49966 0 0 1 -3.48632,-3.19238 l -0.35547,-4.03027 -0.585,4.20508 a 3.50058,3.50058 0 0 1 -3.4668,3.01757 h -8.18359 a 3.5001,3.5001 0 0 1 -3.45215,-4.07617 L 429.75986,60.502 a 3.49959,3.49959 0 0 1 3.45215,-2.92383 h 11.479 a 3.50013,3.50013 0 0 1 3.48828,3.21582 l 1.3794,16.94043 7.36181,-18.06055 a 3.50031,3.50031 0 0 1 3.24122,-2.17871 c 0.008,0 11.58252,0.083 11.58252,0.083 a 3.50038,3.50038 0 0 1 3.42675,4.07812 l -7.51367,44.8252 a 3.4994,3.4994 0 0 1 -3.45166,2.92187 z"
       fill="#ffffff"
       id="path29" />
    <path
       d="m 460.16191,60.99524 11.55725,0.08314 -7.51368,44.825 h -8.08782 l 6.36882,-34.74019 -14.048,34.74019 h -6.62873 l -3.06146,-34.72412 -4.83222,34.72412 h -8.18348 l 7.47943,-44.825 h 11.479 l 2.57043,31.56414 12.90046,-31.64728 m -3.2e-4,-7 a 6.99975,6.99975 0 0 0 -6.48182,4.35768 l -1.82327,4.47284 -0.18857,-2.31554 a 7,7 0 0 0 -6.97691,-6.43184 H 433.212 a 7,7 0 0 0 -6.90455,5.84791 l -7.47943,44.825 a 7,7 0 0 0 6.90455,8.1521 h 8.18348 a 6.979,6.979 0 0 0 3.94672,-1.21848 6.97456,6.97456 0 0 0 3.947,1.21848 h 6.62873 a 6.993,6.993 0 0 0 3.83957,-1.147 6.99934,6.99934 0 0 0 3.83963,1.147 h 8.08782 a 7,7 0 0 0 6.90368,-5.84281 l 7.51368,-44.825 a 7,7 0 0 0 -6.85332,-8.157 l -11.55724,-0.08313 -0.0507,-1.9e-4 z"
       fill="#ffffff"
       id="path31" />
    <path
       d="m 529.78769,110.50008 c -6.40332,0 -11.52441,-2.17089 -15.22168,-6.45117 -3.56543,-4.14453 -5.37109,-9.88574 -5.37109,-17.07031 0,-8.24316 2.14648,-15.38965 6.3789,-21.24023 A 21.27239,21.27239 0 0 1 533.586,56.4161 20.57254,20.57254 0 0 1 547.65537,61.336 c 3.82519,3.35352 5.769,8.49707 5.769,15.2793 a 3.49206,3.49206 0 0 1 -1.18945,2.6289 3.5,3.5 0 0 1 0.44873,2.41016 l -1.42432,8.12012 a 31.63422,31.63422 0 0 1 -5.01367,11.53418 22.02253,22.02253 0 0 1 -9.05713,7.44336 l -0.33642,0.1582 a 17.297,17.297 0 0 1 -7.06442,1.58986 z m 3.84717,-37.834 c -1.63525,0 -3.74756,0.416 -5.58154,3.6582 a 21.32512,21.32512 0 0 0 -2.60791,10.66992 10.5685,10.5685 0 0 0 1.40674,5.8252 3.128,3.128 0 0 0 3.01709,1.43066 5.26739,5.26739 0 0 0 3.93017,-1.30371 l 0.0137,-0.01367 h -2.76465 a 3.49915,3.49915 0 0 1 -3.45263,-4.07324 l 1.39111,-8.38281 a 3.49986,3.49986 0 0 1 3.45264,-2.92676 h 4.86279 a 3.51576,3.51576 0 0 1 -0.126,-0.93457 c 0,-1.91016 -0.36914,-2.92676 -0.68505,-3.2168 a 4.5755,4.5755 0 0 0 -2.85643,-0.7324 z"
       fill="#ffffff"
       id="path33" />
    <path
       d="m 533.586,59.91609 a 17.09559,17.09559 0 0 1 11.75421,4.04357 q 4.5943,4.02852 4.58419,12.65527 h -9.248 q 0,-4.126 -1.8189,-5.79541 a 7.51605,7.51605 0 0 0 -5.2226,-1.65332 c -3.716,0 -6.58122,1.81678 -8.62782,5.435 a 24.95973,24.95973 0 0 0 -3.06145,12.39333 13.90168,13.90168 0 0 0 1.97949,7.74278 6.63758,6.63758 0 0 0 5.94414,3.01257 8.60894,8.60894 0 0 0 6.4178,-2.34132 13.954,13.954 0 0 0 3.37373,-5.97632 h -8.61244 l 1.39142,-8.38188 h 16.79663 l -1.42421,8.11993 a 28.32525,28.32525 0 0 1 -4.38934,10.06946 18.80036,18.80036 0 0 1 -8.08853,6.51764 A 13.89433,13.89433 0 0 1 529.78757,107 q -8.055,0 -12.57286,-5.2387 c -3.01332,-3.50361 -4.52,-8.414 -4.52,-14.78284 q 0,-11.29668 5.71509,-19.1883 a 17.85767,17.85767 0 0 1 15.1762,-7.87407 m 15.65039,21.13427 h 0.005 M 533.586,52.91609 A 24.91227,24.91227 0 0 0 512.745,63.678 c -4.68038,6.46909 -7.05025,14.30547 -7.05025,23.30044 0,8.04463 2.0903,14.554 6.21288,19.3473 4.34,5.02445 10.51937,7.67424 17.88,7.67424 a 20.74771,20.74771 0 0 0 8.58667,-1.93719 l 0.29536,-0.1389 a 25.62289,25.62289 0 0 0 10.3897,-8.53324 34.96716,34.96716 0 0 0 5.61388,-12.83265 q 0.018,-0.0889 0.0337,-0.17838 l 1.38463,-7.89432 a 7.07172,7.07172 0 0 0 0.0442,-2.63937 6.97034,6.97034 0 0 0 0.78866,-3.231 c 0,-7.83494 -2.34476,-13.86357 -6.96915,-17.91848 -4.342,-3.83082 -9.85483,-5.78036 -16.36925,-5.78036 z"
       fill="#ffffff"
       id="path35" />
    <path
       d="m 627.65341,109.419 a 3.5006,3.5006 0 0 1 -3.26269,-2.23242 l -4.81836,-12.40332 -1.97461,11.71777 a 3.49954,3.49954 0 0 1 -3.45117,2.918 h -8.59375 a 3.50075,3.50075 0 0 1 -3.45313,-4.07129 l 7.43262,-44.89062 a 3.5012,3.5012 0 0 1 3.45313,-2.92872 h 14.94531 c 4.4248,0 7.96973,1.28907 10.53418,3.83008 2.58594,2.53906 3.90234,6.46387 3.90234,11.65332 a 17.65741,17.65741 0 0 1 -3.01855,10.18164 21.97976,21.97976 0 0 1 -4.90332,5.19336 l 6.32519,16.26367 a 3.50016,3.50016 0 0 1 -3.26172,4.76856 z m -4.92578,-32.16309 a 5.31975,5.31975 0 0 0 3.26368,-0.87988 c 0.21,-0.1582 0.68457,-0.51562 0.68457,-1.93945 a 5.25248,5.25248 0 0 0 -0.0869,-1.0586 5.81106,5.81106 0 0 0 -1.60351,-0.17285 h -1.78223 l -0.7207,4.05078 z"
       fill="#ffffff"
       id="path37" />
    <path
       d="m 612.98557,61.02845 v 2.9e-4 h 14.94562 c 3.46942,0 6.17187,0.93391 8.071,2.81569 1.916,1.88238 2.86524,4.92786 2.86524,9.16765 a 14.15338,14.15338 0 0 1 -2.40632,8.20241 17.57215,17.57215 0 0 1 -6.31921,5.76256 l 7.367,18.94172 h -9.855 l -6.64685,-17.10816 h -3.9779 l -2.88263,17.10816 H 605.553 l 7.43262,-44.89032 m 5.32038,19.72711 h 4.42078 a 8.72672,8.72672 0 0 0 5.35322,-1.57086 5.55714,5.55714 0 0 0 2.09552,-4.74836 c 0,-1.89923 -0.42609,-3.15931 -1.29364,-3.79773 a 6.66535,6.66535 0 0 0 -3.89618,-0.93316 h -4.71484 L 618.306,80.75488 v 6.8e-4 m 9.62519,-26.72682 h -14.94562 a 6.99975,6.99975 0 0 0 -6.906,5.85627 l -7.43257,44.89032 a 7,7 0 0 0 6.906,8.14344 h 8.59357 a 7.0006,7.0006 0 0 0 6.73684,-5.09737 l 0.2457,0.63238 a 7,7 0 0 0 6.52484,4.465 h 9.855 a 7,7 0 0 0 6.52393,-9.53737 l -5.42352,-13.94469 a 25.92625,25.92625 0 0 0 3.65005,-4.30041 21.055,21.055 0 0 0 3.60807,-12.12422 c 0,-6.16347 -1.66861,-10.92793 -4.95951,-14.161 -3.2222,-3.19279 -7.59537,-4.8223 -12.97677,-4.8223 z"
       fill="#ffffff"
       id="path39" />
    <polygon
       points=""
       fill="#ffffff"
       id="polygon41" />
    <path
       d="m 612.98563,61.02808 h 0.005 m -0.005,0 -6e-5,3.7e-4 v -3.7e-4 h 6e-5 m 0.005,-7 h -0.005 a 7,7 0 1 0 0.005,0 z"
       fill="#ffffff"
       id="path43" />
    <path
       d="m 467.13584,109.4034 a 3.50028,3.50028 0 0 1 -3.45313,-4.07226 l 7.43262,-44.875 a 3.50047,3.50047 0 0 1 3.45312,-2.92774 H 497.798 a 3.50028,3.50028 0 0 1 3.46,4.0293 l -1.42285,9.29883 a 3.50031,3.50031 0 0 1 -3.46,2.9707 h -11.69927 l -0.20069,1.10352 h 9.01856 a 3.49952,3.49952 0 0 1 3.457,4.04785 l -1.37744,8.69434 a 3.50016,3.50016 0 0 1 -3.457,2.95214 H 481.837 l -0.45361,2.544 h 10.73291 a 3.50046,3.50046 0 0 1 3.45654,4.05078 l -1.4707,9.23438 a 3.49948,3.49948 0 0 1 -3.45655,2.94921 z"
       fill="#ffffff"
       id="path45" />
    <path
       d="m 497.79807,61.02807 h 0.005 m -0.005,0 -1.42284,9.299 h -14.62014 l -1.4738,8.10388 h 13.21264 l -1.37738,8.69415 H 478.906 l -1.70221,9.5442 h 14.91278 l -1.47107,9.23406 h -23.50985 l 7.43262,-44.87532 h 23.2298 m 0.005,-7 h -23.2348 a 7,7 0 0 0 -6.90591,5.85619 l -7.43261,44.87531 a 7,7 0 0 0 6.9059,8.14382 h 23.50983 a 7,7 0 0 0 6.91281,-5.89873 l 1.47107,-9.23406 a 6.99988,6.99988 0 0 0 -1.58794,-5.645 q -0.0995,-0.1166 -0.20353,-0.22826 a 6.98021,6.98021 0 0 0 1.79243,-3.67691 l 1.37738,-8.69413 a 6.99832,6.99832 0 0 0 -0.26893,-3.2967 6.994,6.994 0 0 0 3.15593,-4.84375 l 1.38887,-9.077 a 7.00579,7.00579 0 0 0 -6.8805,-8.28081 z m -0.005,14 z"
       fill="#ffffff"
       id="path47" />
    <path
       d="m 378.22373,110.49911 c -6.40332,0 -11.52442,-2.16992 -15.22168,-6.4502 -3.56446,-4.14551 -5.36963,-9.88769 -5.36963,-17.07226 0,-8.24512 2.14648,-15.39161 6.38037,-21.24024 a 21.26474,21.26474 0 0 1 18.00977,-9.32129 20.57815,20.57815 0 0 1 14.06933,4.918 c 3.82568,3.35645 5.76953,8.499 5.76953,15.2793 a 3.49,3.49 0 0 1 -1.19189,2.63086 3.49971,3.49971 0 0 1 0.44824,2.40918 l -1.42432,8.11914 -0.0801,-0.01367 c -0.37207,3.55664 -3.24952,9.25683 -4.93213,11.55175 a 22.00315,22.00315 0 0 1 -9.05469,7.44141 l -0.3374,0.15918 a 17.30755,17.30755 0 0 1 -7.06543,1.58884 z m 3.84521,-37.835 c -1.63525,0 -3.74756,0.416 -5.58105,3.65722 a 21.33894,21.33894 0 0 0 -2.60938,10.66992 10.55043,10.55043 0 0 0 1.40869,5.82325 3.12162,3.12162 0 0 0 3.01661,1.43359 5.26572,5.26572 0 0 0 3.92919,-1.30371 l 0.0142,-0.01465 h -2.76611 a 3.49986,3.49986 0 0 1 -3.45264,-4.07422 l 1.39454,-8.38183 a 3.49976,3.49976 0 0 1 3.45263,-2.92578 h 4.86133 a 3.498,3.498 0 0 1 -0.12646,-0.93555 c 0,-1.91016 -0.36914,-2.92578 -0.68506,-3.21582 a 4.57382,4.57382 0 0 0 -2.85645,-0.73238 z"
       fill="#ffffff"
       id="path49" />
    <path
       d="m 382.02238,59.91468 a 17.09282,17.09282 0 0 1 11.75413,4.04358 q 4.59228,4.02748 4.585,12.65454 h -9.25086 q 0,-4.12591 -1.81884,-5.79536 a 7.51312,7.51312 0 0 0 -5.22266,-1.65332 c -3.71594,0 -6.58119,1.81677 -8.62775,5.435 a 24.97373,24.97373 0 0 0 -3.06294,12.39263 13.891,13.891 0 0 0 1.98237,7.74346 6.6338,6.6338 0 0 0 5.94275,3.01265 8.60621,8.60621 0 0 0 6.41772,-2.34206 13.933,13.933 0 0 0 3.37232,-5.97632 h -8.61236 l 1.39416,-8.38188 h 16.79523 l -1.42421,8.11993 a 28.19648,28.19648 0 0 1 -4.38725,10.07227 v 0 a 18.7834,18.7834 0 0 1 -8.08855,6.51695 13.8825,13.8825 0 0 1 -5.5467,1.24262 q -8.05609,0 -12.57287,-5.2387 c -3.01331,-3.50366 -4.51856,-8.41473 -4.51856,-14.78357 q 0,-11.29668 5.71509,-19.1883 a 17.85351,17.85351 0 0 1 15.17475,-7.87407 m 9.83684,39.32507 h 0.005 m -9.84183,-46.32507 a 24.90725,24.90725 0 0 0 -20.8403,10.76294 c -4.67943,6.46536 -7.04955,14.30209 -7.04955,23.29943 0,8.04612 2.08982,14.55573 6.21141,19.348 4.339,5.02429 10.51862,7.67427 17.88,7.67427 a 20.73634,20.73634 0 0 0 8.58909,-1.93834 l 0.28977,-0.13611 a 25.56808,25.56808 0 0 0 10.29379,-8.40038 q 0.117,-0.15086 0.22575,-0.308 a 32.8249,32.8249 0 0 0 4.28637,-8.40361 24.22349,24.22349 0 0 0 1.27343,-4.66985 l 1.38321,-7.88617 a 6.9972,6.9972 0 0 0 0.003,-2.40377 6.96983,6.96983 0 0 0 0.79351,-3.2403 c 0,-7.83322 -2.34486,-13.8615 -6.96945,-17.91732 -4.34239,-3.83125 -9.85519,-5.7808 -16.36966,-5.7808 z"
       fill="#ffffff"
       id="path51" />
    <path
       d="m 416.10605,109.4034 a 3.49983,3.49983 0 0 1 -3.4873,-3.20019 l -0.47754,-5.55957 h -5.87207 l -2.38135,6.46875 a 3.49958,3.49958 0 0 1 -3.28467,2.291 h -8.80762 a 3.50014,3.50014 0 0 1 -3.24707,-4.80664 l 18.07373,-44.9082 a 3.50091,3.50091 0 0 1 3.24708,-2.19336 l 9.6582,10e-4 a 3.49965,3.49965 0 0 1 3.477,3.10449 l 5.1084,44.90723 a 3.49984,3.49984 0 0 1 -3.47754,3.8955 z"
       fill="#ffffff"
       id="path53" />
    <path
       d="m 409.86911,60.99524 v 7.6e-4 h 9.658 l 5.10809,44.90741 h -8.52929 l -0.753,-8.75979 h -11.52505 l -3.22491,8.75979 h -8.80732 l 18.07348,-44.90815 m -3.24171,28.48729 h 8.071 L 413.1771,71.6214 406.6274,89.48255 M 419.52713,53.996 h -9.658 a 6.99933,6.99933 0 0 0 -6.49382,4.38579 l -18.07348,44.90814 a 7,7 0 0 0 6.49382,9.61348 h 8.80735 a 7,7 0 0 0 6.569,-4.58164 l 1.53818,-4.17815 h 0.21875 l 0.20279,2.35929 a 7,7 0 0 0 6.97428,6.4005 h 8.52929 a 7,7 0 0 0 6.95516,-7.79114 L 426.48236,60.20486 A 7,7 0 0 0 419.5272,53.996 Z"
       fill="#ffffff"
       id="path55" />
    <path
       d="m 454.81943,57.74618 a 8.56551,8.56551 0 0 1 -4.16748,-1.0293 9.02226,9.02226 0 0 1 -4.29736,-5.832 c -1.76807,-6.5127 0.96728,-16.98145 7.13965,-27.32129 7.15429,-12 16.73339,-20.0625 23.83544,-20.0625 a 8.57394,8.57394 0 0 1 4.16895,1.02734 9.02423,9.02423 0 0 1 4.29639,5.84082 c 1.76367,6.51954 -0.97559,16.98731 -7.14942,27.31739 -7.15381,11.99609 -16.72949,20.05957 -23.82568,20.05957 z"
       fill="#ffffff"
       id="path57" />
    <path
       d="m 477.33,7.00051 a 5.11,5.11 0 0 1 2.4874,0.59685 c 5.28341,2.91131 3.42121,15.582 -4.17626,28.29309 -6.52939,10.95007 -15.17226,18.35517 -20.82106,18.35517 a 5.09178,5.09178 0 0 1 -2.48411,-0.59743 c -5.296,-2.90923 -3.42262,-15.58124 4.16369,-28.291 C 463.02835,14.40692 471.673,7.00051 477.33,7.00051 m 0,-7 c -10.23164,0 -20.85471,11.72843 -26.84281,21.772 -6.741,11.29362 -9.54921,22.52069 -7.51011,30.02943 a 12.43662,12.43662 0 0 0 5.98861,7.98152 12.01545,12.01545 0 0 0 5.8544,1.46219 c 10.22429,0 20.845,-11.72743 26.83334,-21.77012 6.74115,-11.27841 9.55379,-22.50338 7.52007,-30.02055 A 12.44083,12.44083 0 0 0 483.1957,1.46653 12.05084,12.05084 0 0 0 477.33,5e-4 Z"
       fill="#ffffff"
       id="path59" />
    <path
       d="m 488.7457,57.74618 a 8.56741,8.56741 0 0 1 -4.168,-1.0293 9.02,9.02 0 0 1 -4.29639,-5.832 c -1.76806,-6.51172 0.96778,-16.98145 7.14014,-27.32129 7.15479,-12 16.7334,-20.0625 23.83447,-20.0625 a 8.572,8.572 0 0 1 4.16846,1.02734 9.02423,9.02423 0 0 1 4.29639,5.84082 c 1.76367,6.51954 -0.97559,16.98731 -7.14942,27.31739 -7.15234,11.99609 -16.728,20.05957 -23.82519,20.05957 z"
       fill="#ffffff"
       id="path61" />
    <path
       d="m 511.25632,7.00051 a 5.10793,5.10793 0 0 1 2.48688,0.59685 c 5.28337,2.91131 3.4212,15.582 -4.17633,28.29309 -6.52819,10.95007 -15.17137,18.35517 -20.82077,18.35517 a 5.093,5.093 0 0 1 -2.48441,-0.59743 c -5.29455,-2.90923 -3.42122,-15.58124 4.16516,-28.291 6.52922,-10.95027 15.17339,-18.35668 20.82947,-18.35668 m 0,-7 c -10.2302,0 -20.85327,11.72831 -26.84179,21.77177 -6.74113,11.29368 -9.54958,22.52078 -7.51091,30.02966 a 12.436,12.436 0 0 0 5.98712,7.98112 12.01777,12.01777 0 0 0 5.85538,1.46257 c 10.22581,0 20.84594,-11.72769 26.83332,-21.77062 6.7409,-11.27783 9.55356,-22.50281 7.51987,-30.02 A 12.44076,12.44076 0 0 0 517.1215,1.46656 12.04754,12.04754 0 0 0 511.2563,5e-4 Z"
       fill="#ffffff"
       id="path63" />
    <path
       d="m 522.67392,57.7452 a 8.56036,8.56036 0 0 1 -4.16894,-1.0293 9.01665,9.01665 0 0 1 -4.29639,-5.83007 c -1.76855,-6.51172 0.96729,-16.98145 7.14014,-27.32227 7.15234,-12 16.73144,-20.06348 23.835,-20.06348 a 8.58172,8.58172 0 0 1 4.168,1.02637 9.0293,9.0293 0 0 1 4.29638,5.8418 c 1.76368,6.52051 -0.97558,16.9873 -7.14941,27.31738 -7.15332,11.99609 -16.729,20.05957 -23.82471,20.05957 z"
       fill="#ffffff"
       id="path65" />
    <path
       d="m 545.18375,7 a 5.10748,5.10748 0 0 1 2.48657,0.59662 c 5.2834,2.91131 3.42121,15.582 -4.17627,28.29316 C 536.96462,46.83986 528.32283,54.245 522.67343,54.245 a 5.09383,5.09383 0 0 1 -2.48454,-0.59742 C 514.89357,50.739 516.76767,38.067 524.354,25.35719 530.88141,14.40635 539.52732,7 545.18375,7 m 0,-7 c -10.23337,0 -20.8557,11.72905 -26.84262,21.77312 -6.74115,11.29379 -9.54958,22.52112 -7.51039,30.0295 a 12.43468,12.43468 0 0 0 5.98814,7.9803 12.01815,12.01815 0 0 0 5.85455,1.462 c 10.22388,0 20.84453,-11.72743 26.83289,-21.77009 6.74117,-11.27851 9.5538,-22.50353 7.52007,-30.02067 A 12.44083,12.44083 0 0 0 551.0486,1.46573 12.04836,12.04836 0 0 0 545.18375,0 Z"
       fill="#ffffff"
       id="path67" />
    <path
       d="m 391.8592,99.23978 a 18.78271,18.78271 0 0 1 -8.08852,6.51692 13.8824,13.8824 0 0 1 -5.54672,1.24262 q -8.05606,0 -12.57285,-5.23869 c -3.01329,-3.50363 -4.51856,-8.41472 -4.51856,-14.78357 q 0,-11.29671 5.71507,-19.18827 a 17.85358,17.85358 0 0 1 15.17473,-7.8741 17.09292,17.09292 0 0 1 11.7542,4.04357 q 4.59224,4.0275 4.58491,12.65458 h -9.25084 q 0,-4.126 -1.81887,-5.79539 a 7.51288,7.51288 0 0 0 -5.22262,-1.65333 c -3.716,0 -6.5812,1.81678 -8.62777,5.435 a 24.97416,24.97416 0 0 0 -3.06289,12.39264 13.8911,13.8911 0 0 0 1.98233,7.74348 6.63372,6.63372 0 0 0 5.94277,3.0126 8.60624,8.60624 0 0 0 6.41773,-2.34205 13.93275,13.93275 0 0 0 3.37231,-5.97629 h -8.61239 l 1.39418,-8.3819 h 16.79524 l -1.42423,8.12 a 28.19588,28.19588 0 0 1 -4.38723,10.07225 z m 79.86,-38.1614 -7.51368,44.825 h -8.08783 l 6.36881,-34.74018 -14.04807,34.74019 h -6.62869 l -3.06149,-34.72412 -4.83217,34.72412 h -8.18353 l 7.47946,-44.825 h 11.479 l 2.57045,31.56415 12.90045,-31.64726 M 480.28129,78.431 H 493.494 l -1.37742,8.69412 H 478.906 l -1.70222,9.54419 h 14.91279 l -1.471,9.23406 H 467.13565 L 474.5683,61.0281 h 23.2297 l -1.42282,9.299 h -14.6201 m -71.886,-9.33185 -18.07347,44.90812 h 8.80728 l 3.22494,-8.75979 H 415.353 l 0.753,8.75979 h 8.52928 L 419.52714,60.996 h -9.658 z m -3.24169,28.48728 6.54975,-17.86113 1.52131,17.86113 z m 136.79539,9.75724 a 18.8,18.8 0 0 1 -8.08854,6.51762 A 13.89421,13.89421 0 0 1 529.78755,107 q -8.055,0 -12.57285,-5.23869 c -3.0133,-3.50364 -4.51993,-8.414 -4.51993,-14.78288 q 0,-11.29671 5.71505,-19.18827 a 17.8577,17.8577 0 0 1 15.17612,-7.87409 17.09547,17.09547 0 0 1 11.75422,4.04357 q 4.59432,4.02855 4.58419,12.65527 h -9.248 q 0,-4.126 -1.81886,-5.79539 a 7.51628,7.51628 0 0 0 -5.22264,-1.65333 c -3.716,0 -6.58119,1.81678 -8.62778,5.435 a 24.95957,24.95957 0 0 0 -3.06149,12.39333 13.90188,13.90188 0 0 0 1.9795,7.74278 6.63764,6.63764 0 0 0 5.94418,3.0126 8.60876,8.60876 0 0 0 6.41776,-2.34134 13.95332,13.95332 0 0 0 3.37372,-5.9763 h -8.6124 l 1.39139,-8.3819 h 16.79664 l -1.42422,8.12 a 28.32463,28.32463 0 0 1 -4.38934,10.06943 z m 17.25765,-20.79271 h 13.19311 l -1.35716,8.67807 h -13.21263 l -1.71758,9.54419 h 14.93027 l -1.47312,9.24943 h -23.51055 l 7.43266,-44.89067 h 23.23184 l -1.42422,9.29832 h -14.62087 m 27.73222,-9.31369 -18.07346,44.90743 h 8.82545 l 3.20748,-8.75909 h 11.54256 l 0.75158,8.75909 h 8.51391 L 599.54316,61.0127 Z m -3.225,28.46913 6.53374,-17.86184 1.53886,17.86185 h -8.0725 z m 31.64656,-8.727 1.96486,-11.04944 h 4.7148 a 6.66531,6.66531 0 0 1 3.8962,0.93319 c 0.86754,0.63842 1.29361,1.8985 1.29361,3.7977 a 5.55709,5.55709 0 0 1 -2.09543,4.7484 8.72692,8.72692 0 0 1 -5.35325,1.57091 H 618.306 Z M 612.9856,61.0281 605.553,105.91876 h 8.59353 l 2.88266,-17.10816 h 3.9779 l 6.64685,17.10816 h 9.855 l -7.367,-18.9417 a 17.57267,17.57267 0 0 0 6.31924,-5.76256 14.15375,14.15375 0 0 0 2.40629,-8.20238 c 0,-4.23985 -0.94924,-7.28527 -2.86523,-9.16771 -1.89919,-1.88174 -4.60166,-2.81562 -8.07107,-2.81562 h -14.94563 v -7e-4 z"
       id="path69" />
    <path
       d="m 456.49968,25.35721 c 7.58353,-12.71953 18.02319,-20.65859 23.31775,-17.75985 5.2834,2.91131 3.42122,15.582 -4.17628,28.29311 C 468.05623,48.6107 457.618,56.54836 452.336,53.64822 447.04,50.739 448.91337,38.067 456.49968,25.35721 Z"
       fill="#d61808"
       id="path71" />
    <path
       d="M 490.42683,25.35721 C 498.01105,12.63768 508.45,4.69862 513.74318,7.59736 c 5.28339,2.91131 3.42121,15.582 -4.17629,28.29311 -7.58352,12.72023 -18.02248,20.65789 -23.30517,17.75775 -5.29457,-2.90922 -3.42121,-15.58122 4.16511,-28.29101 z"
       fill="#008400"
       id="path73" />
    <path
       d="M 524.354,25.35721 C 531.9361,12.637 542.37715,4.69862 547.67032,7.59666 c 5.28338,2.91132 3.42121,15.582 -4.17629,28.29311 C 535.90912,48.61 525.47225,56.54766 520.18886,53.64752 514.8936,50.739 516.76765,38.067 524.354,25.35721 Z"
       fill="#0000ff"
       id="path75" />
  </g>
  <metadata
     id="metadata899">
    <rdf:RDF>
      <cc:Work
         rdf:about="">
        <dc:title>logo</dc:title>
      </cc:Work>
    </rdf:RDF>
  </metadata>
</svg>
