<?xml version="1.0" encoding="UTF-8" standalone="no"?>
<svg
   id="Calque_2"
   data-name="Calque 2"
   viewBox="0 0 272.54391 94.450951"
   version="1.1"
   sodipodi:docname="gba.svg"
   width="272.54391"
   height="94.450951"
   inkscape:version="1.1 (c68e22c387, 2021-05-23)"
   inkscape:export-filename="C:\Users\BUCH\Desktop\Retrogaming\Recalbox\travail thèmes\NEW THEME!!!\background NEW!!!!\SYSTEM!!!!!!\gba\gba!!!.png"
   inkscape:export-xdpi="200"
   inkscape:export-ydpi="200"
   xmlns:inkscape="http://www.inkscape.org/namespaces/inkscape"
   xmlns:sodipodi="http://sodipodi.sourceforge.net/DTD/sodipodi-0.dtd"
   xmlns="http://www.w3.org/2000/svg"
   xmlns:svg="http://www.w3.org/2000/svg"
   xmlns:rdf="http://www.w3.org/1999/02/22-rdf-syntax-ns#"
   xmlns:cc="http://creativecommons.org/ns#"
   xmlns:dc="http://purl.org/dc/elements/1.1/">
  <defs
     id="defs131" />
  <sodipodi:namedview
     id="namedview129"
     pagecolor="#ffffff"
     bordercolor="#666666"
     borderopacity="1.0"
     inkscape:pageshadow="2"
     inkscape:pageopacity="0.0"
     inkscape:pagecheckerboard="0"
     showgrid="false"
     fit-margin-top="0"
     fit-margin-left="0"
     fit-margin-right="0"
     fit-margin-bottom="0"
     inkscape:zoom="2.226"
     inkscape:cx="108.9398"
     inkscape:cy="-17.969452"
     inkscape:window-width="1920"
     inkscape:window-height="1138"
     inkscape:window-x="-8"
     inkscape:window-y="-8"
     inkscape:window-maximized="1"
     inkscape:current-layer="Calque_2" />
  <title
     id="title2">logo</title>
  <metadata
     id="metadata948">
    <rdf:RDF>
      <cc:Work
         rdf:about="">
        <dc:title>logo</dc:title>
      </cc:Work>
    </rdf:RDF>
  </metadata>
  <g
     id="g1073">
    <path
       style="fill:#ffffff;fill-rule:evenodd;stroke-width:10;stroke-linecap:round;stroke-linejoin:round;paint-order:stroke markers fill"
       id="path877"
       sodipodi:type="arc"
       sodipodi:cx="159.76173"
       sodipodi:cy="34.292316"
       sodipodi:rx="21.17407"
       sodipodi:ry="26.025965"
       sodipodi:start="0"
       sodipodi:end="6.2647895"
       sodipodi:open="true"
       sodipodi:arc-type="arc"
       d="M 180.9358,34.292316 A 21.17407,26.025965 0 0 1 159.85911,60.318006 21.17407,26.025965 0 0 1 138.58856,34.531697 21.17407,26.025965 0 0 1 159.46961,8.2688287 21.17407,26.025965 0 0 1 180.93222,33.813576" />
    <g
       id="g6014">
      <path
         style="fill:#ffffff;fill-opacity:1;fill-rule:evenodd;stroke:none;stroke-width:10;stroke-linecap:round;stroke-linejoin:round;stroke-miterlimit:4;stroke-dasharray:none;stroke-opacity:1;paint-order:stroke markers fill"
         id="path5856"
         sodipodi:type="arc"
         sodipodi:cx="56.838406"
         sodipodi:cy="23.279861"
         sodipodi:rx="5.4467688"
         sodipodi:ry="6.0672278"
         sodipodi:start="0"
         sodipodi:end="6.2647895"
         sodipodi:open="true"
         sodipodi:arc-type="arc"
         d="m 62.285174,23.279861 a 5.4467688,6.0672278 0 0 1 -5.421719,6.067164 5.4467688,6.0672278 0 0 1 -5.471588,-6.011359 5.4467688,6.0672278 0 0 1 5.371393,-6.122455 5.4467688,6.0672278 0 0 1 5.520993,5.955045" />
      <g
         id="g959"
         transform="translate(-14.158715,-9.7218283)"
         style="fill:#005100;fill-opacity:1;stroke:#ffffff;stroke-width:10;stroke-linecap:round;stroke-linejoin:round;stroke-miterlimit:4;stroke-dasharray:none;stroke-opacity:1;paint-order:stroke markers fill">
        <path
           d="m 111.50783,39.7634 c 3.12951,-7.3516 6.0082,-13.7308 8.54151,-20.2445 1.08349,-2.7861 2.44689,-4.1445 5.57629,-3.6923 a 51.21586,51.21586 0 0 0 6.9103,0.0585 c 0.6239,14.6053 1.238,28.9812 1.8638,43.6306 h -8.89953 q -0.59565,-12.76545 -1.1908,-25.5212 -0.27913,-0.0987 -0.5582,-0.19731 -4.2216,9.70186 -8.4418,19.40441 a 12.41554,12.41554 0 0 0 -0.8714,2.1259 c -0.9755,4.3283 -3.7139,5.3229 -8.0068,4.0388 -1.5567,-7.4827 -3.1508,-15.1445 -4.7448,-22.8063 q -0.3303,-0.02595 -0.6605,-0.05181 -3.723304,11.54972 -7.459104,23.13841 h -15.1573 c -0.8073,-4.22041 -1.6133,-8.4342 -2.4794,-12.9622 -2.8784,0 -5.6869,-0.1711 -8.4542,0.0917 a 4.27517,4.27517 0 0 0 -2.7302,1.9473 56.81417,56.81417 0 0 0 -2.7378,5.9015 c -2.3688,5.207 -4.3858,6.2834 -9.9778,5.0642 -0.7223,-0.1574 -1.26079,-1.1582 -2.05979,-1.93991 -5.848,2.67831 -12.19841,3.53281 -18.648,1.01891 -12.96541,-5.0535 -16.35951,-21.7782 -6.85091,-33.4383 7.6798,-9.41761 22.3384,-13.2048 34.1981,-8.5642 -0.3391,2.6073 -0.6928,5.3265 -1.0149,7.8037 -5.0464,0 -9.8634,-0.5264 -14.5138,0.12889 a 17.15779,17.15779 0 0 0 -13.8059,10.38831 12.03544,12.03544 0 0 0 1.3157,12.718 c 3.3686,4.5149 8.0221,3.546 12.844,2.7276 0.16271,-1.206 0.3273,-2.4252 0.55,-4.0755 h -6.6575 c 0.3761,-2.9 0.694,-5.3521 1.0425,-8.0393 h 16.6718 c -0.662,4.1636 -1.2894,8.1088 -1.9167,12.05389 q 0.364,0.18812 0.728,0.376 c 0.5794,-1.09459 1.2269,-2.159 1.7274,-3.28859 4.1409,-9.3458 8.3784,-18.6523 12.3008,-28.0895 1.1706,-2.8166 2.5997,-4.0306 5.6558,-3.637 a 58.75876,58.75876 0 0 0 7.0163,0.0528 c 1.9188,11.30029 3.8235,22.5176 5.7282,33.7349 q 0.38835,0.04155 0.7767,0.0832 4.0083,-12.24225 8.0142,-24.4851 c 0.3176,-0.9716 0.5857,-1.9593 0.9064,-2.9298 2.3862,-7.2208 2.9039,-7.5008 11.096904,-5.8995 1.38523,7.40559 2.78494,14.8883 4.37243,23.3748 z M 73.305926,30.6787 q -0.41565,-0.123 -0.8313,-0.2461 c -1.0662,2.4783 -2.13229,4.95659 -3.2476,7.5493 h 5.4095 c -0.4807,-2.6384 -0.9056,-4.9708 -1.3306,-7.3032 z"
           fill="#f8f7fa"
           id="path96"
           style="fill:#005100;fill-opacity:1;stroke:#ffffff;stroke-width:10;stroke-linecap:round;stroke-linejoin:round;stroke-miterlimit:4;stroke-dasharray:none;stroke-opacity:1;paint-order:stroke markers fill" />
        <path
           d="m 67.716626,68.4067 c 10.7795,-0.1677 21.6643,-1.8802 32.520104,2.1063 0.0703,-0.6213 0.1557,-1.3765 0.2419,-2.1344 a 4.1778,4.1778 0 0 1 0.7165,-0.2642 c 5.9335,-1.0771 10.075,0.6319 12.5629,6.6637 1.8691,4.5316 4.8669,8.5976 7.6716,13.4008 2.7871,-5.0576 5.2821,-9.58571 7.7778,-14.1134 3.7722,-6.8432 3.7774,-6.8455 12.3536,-5.602 -0.7094,1.3174 -1.3215,2.5254 -1.9969,3.6969 q -6.89218,11.9544 -13.8131,23.8921 c -2.3914,4.11169 -6.6934,4.1631 -9.1284,0.135 -2.5781,-4.2649 -5.1225,-8.5502 -7.7089,-12.81 a 5.784,5.784 0 0 0 -2.7715,-2.5707 30.31669,30.31669 0 0 1 0.2406,4.9686 c -0.762,6.8697 -5.32149,11.7527 -13.028494,12.3482 -10.179,0.7863 -20.43181,0.6818 -30.65421,0.74259 -0.994,0.0059 -2.3295,-1.31949 -2.9417,-2.35939 -3.8709,-6.57561 -7.5824,-13.2449 -11.6368,-20.3953 -3.0462,5.4754 -5.7915,10.4101 -8.8536,15.9139 h 8.68317 v 6.6497 h -21.1316 c 0.4382,-0.91791 0.7881,-1.8164 1.271,-2.6367 q 7.48485,-12.7155 15.0169,-25.40321 c 2.3007,-3.85769 8.5146,-3.777 10.8812,0.069 q 5.914,9.61082 11.855,19.20521 c 0.4174,0.76479 0.8347,1.5297 1.7422,3.19279 V 89.8544 l -0.002,-2.2838 q 0.0663,-9.582 0.13283,-19.1639 z m 9.1111,23.62249 c 5.3662,-0.41089 10.4741,-0.44169 15.4399,-1.297 3.93171,-0.67719 5.5124,-3.92979 5.1645,-8.58559 -0.28179,-3.7703 -2.3519,-6.49141 -6.058,-6.7678 -4.77379,-0.356 -9.5941,-0.0867 -14.5464,-0.0867 z"
           fill="#f6f5f9"
           id="path98"
           style="fill:#005100;fill-opacity:1;stroke:#ffffff;stroke-width:10;stroke-linecap:round;stroke-linejoin:round;stroke-miterlimit:4;stroke-dasharray:none;stroke-opacity:1;paint-order:stroke markers fill" />
        <path
           d="m 199.85993,68.2751 h 7.9263 v 30.2705 a 9.0028,9.0028 0 0 1 -8.6995,-2.0061 c -6.3777,-5.4554 -13.0593,-10.55531 -20.12139,-16.2022 v 18.6294 c -4.87391,0 -9.43791,0.1577 -13.97471,-0.1227 -1.0021,-0.0619 -2.18329,-1.5153 -2.8135,-2.6001 -3.7763,-6.5008 -7.4157,-13.0812 -11.389,-20.1472 -2.9997,5.4409 -5.7424,10.4158 -8.7747,15.9158 h 8.581 v 6.634 h -20.8696 a 12.56666,12.56666 0 0 1 0.8173,-2.2137 q 7.662,-13.06065 15.3946,-26.0798 c 1.98861,-3.3427 8.4829,-3.4103 10.49761,-0.0994 4.49679,7.3903 8.93219,14.8179 13.99169,23.2257 V 68.46819 c 3.6171,-0.83349 6.3901,-0.47739 9.1448,1.85391 5.3633,4.5389 11.0137,8.7393 16.5614,13.05909 0.9487,0.73871 1.9778,1.37411 3.7277,2.57911 z"
           fill="#f6f5f9"
           id="path100"
           style="fill:#005100;fill-opacity:1;stroke:#ffffff;stroke-width:10;stroke-linecap:round;stroke-linejoin:round;stroke-miterlimit:4;stroke-dasharray:none;stroke-opacity:1;paint-order:stroke markers fill" />
        <path
           d="m 203.8522,37.30619 c 3.68911,4.026 5.7816,8.56541 2.9118,13.88821 a 15.32,15.32 0 0 1 -14.6981,8.5909 c -5.85859,-0.1049 -11.7205,-0.0219 -18.0787,-0.0219 2.3286,-14.7511 4.59,-29.0761 6.8852,-43.6155 6.0406,0 11.7993,-0.3488 17.4987,0.0837 8.0695,0.6122 12.5809,9.6024 8.5941,16.5909 -0.88007,1.5426 -2.02637,2.9333 -3.113,4.48369 z m -18.09186,5.11511 c -0.436,3.168 -0.81831,5.94589 -1.262,9.1695 3.89929,-0.2623 7.28829,-0.0623 10.40649,-0.88661 1.4854,-0.39259 3.6154,-2.97139 3.3773,-4.13479 -0.3264,-1.5944 -2.4294,-3.5137 -4.129,-3.9753 -2.47793,-0.67291 -5.2743,-0.1728 -8.39279,-0.1728 z m 1.48689,-8.6569 c 3.1032,-0.2516 5.903,0.044 8.2372,-0.8611 1.4324,-0.5554 2.8637,-2.9217 2.9265,-4.5284 0.0381,-0.9744 -2.4405,-2.751 -3.9533,-2.9572 -5.7017,-0.7768 -5.73329,-0.5923 -6.7655,4.9499 -0.1593,0.8555 -0.2297,1.72759 -0.44493,3.3968 z"
           fill="#f8f8fa"
           id="path102"
           style="fill:#005100;fill-opacity:1;stroke:#ffffff;stroke-width:10;stroke-linecap:round;stroke-linejoin:round;stroke-miterlimit:4;stroke-dasharray:none;stroke-opacity:1;paint-order:stroke markers fill" />
        <path
           d="m 247.34182,34.4247 c -0.424,8.8359 -2.462,15.163 -7.4511,20.2508 -10.0835,10.283 -24.6081,6.8881 -29.14269,-6.7631 a 25.74309,25.74309 0 0 1 9.11869,-28.6691 c 8.8421,-6.3116 19.7797,-3.7609 24.5368,6.0244 1.63568,3.3646 2.32682,7.1884 2.9383,9.157 z m -28.7487,6.33649 a 23.26634,23.26634 0 0 0 0.3397,3.47491 c 0.782,3.3456 2.1349,6.3057 5.8198,7.4169 3.6198,1.0916 6.3164,-0.7174 8.4463,-3.15081 4.7215,-5.39409 6.1555,-11.70319 3.8022,-18.548 -2.0906,-6.08049 -8.04578,-7.40069 -12.7629,-2.94679 -3.8297,3.616 -5.36588,8.2645 -5.6451,13.75379 z"
           fill="#f7f7fa"
           id="path104"
           style="fill:#005100;fill-opacity:1;stroke:#ffffff;stroke-width:10;stroke-linecap:round;stroke-linejoin:round;stroke-miterlimit:4;stroke-dasharray:none;stroke-opacity:1;paint-order:stroke markers fill" />
        <path
           d="m 142.13263,16.0455 h 24.7939 c -0.43319,3.0574 -0.8358,5.8991 -1.2951,9.1411 h -15.7454 l -1.1954,7.8493 h 13.6674 c -0.459,3.266 -0.8579,6.1046 -1.3106,9.3255 h -13.6654 c -0.44069,2.7916 -0.8276,5.2424 -1.2805,8.1115 h 15.6485 c -0.5344,3.2402 -1.0012,6.07 -1.4968,9.0746 h -25.0175 c 2.29447,-14.472 4.5652,-28.7944 6.8969,-43.502 z"
           fill="#f8f7fa"
           id="path106"
           style="fill:#005100;fill-opacity:1;stroke:#ffffff;stroke-width:10;stroke-linecap:round;stroke-linejoin:round;stroke-miterlimit:4;stroke-dasharray:none;stroke-opacity:1;paint-order:stroke markers fill" />
        <path
           d="m 281.36634,68.261 v 6.6943 h -23.63262 v 4.3462 h 13.6194 v 6.7543 h -13.6654 v 5.45439 h 24.0149 V 98.6471 H 248.98134 V 68.261 Z"
           fill="#f3f1f9"
           id="path108"
           style="fill:#005100;fill-opacity:1;stroke:#ffffff;stroke-width:10;stroke-linecap:round;stroke-linejoin:round;stroke-miterlimit:4;stroke-dasharray:none;stroke-opacity:1;paint-order:stroke markers fill" />
        <path
           d="m 237.03092,79.1611 c -0.1635,-1.3122 -0.3027,-2.4296 -0.4673,-3.751 h -16.6517 v 15.75509 h 16.6929 c 0.1167,-1.36219 0.2241,-2.61589 0.3548,-4.14209 h 8.669 a 57.66384,57.66384 0 0 1 -0.0385,5.9782 c -0.3275,3.1255 -1.9489,5.4542 -5.3045,5.5136 -8.0387,0.1421 -16.0841,0.1521 -24.1217,-0.0213 a 4.89831,4.89831 0 0 1 -5.09689,-5.1838 q -0.20175,-9.77191 -0.0225,-19.5502 c 0.0609,-3.3023 2.07849,-5.3613 5.31269,-5.4345 7.9202,-0.1791 15.8577,-0.30591 23.7675,0.0308 4.7647,0.2028 6.2009,3.57329 5.2242,10.8052 z"
           fill="#f7f6fa"
           id="path110"
           style="fill:#005100;fill-opacity:1;stroke:#ffffff;stroke-width:10;stroke-linecap:round;stroke-linejoin:round;stroke-miterlimit:4;stroke-dasharray:none;stroke-opacity:1;paint-order:stroke markers fill" />
        <path
           d="m 258.43412,29.4604 c 2.0115,-3.2257 4.2734,-6.32221 5.9575,-9.7063 1.6109,-3.2367 3.8764,-4.3523 7.3074,-3.9057 a 49.10763,49.10763 0 0 0 5.5954,0.0349 c -3.5298,5.6198 -6.2017,10.8937 -9.8213,15.4076 -6.1034,7.6114 -7.553,16.5282 -8.6247,25.6924 -0.0881,0.7527 -0.23708,1.4984 -0.40008,2.5092 h -8.92892 c 0.888,-5.7025 1.9542,-11.2187 2.5165,-16.7857 a 15.64635,15.64635 0 0 0 -0.9965,-7.25661 c -2.6565,-6.451 -5.7316,-12.72949 -8.6419,-19.07369 a 4.73316,4.73316 0 0 1 0.7655,-0.3322 c 8.9875,-0.84111 8.9875,-0.8406 12.2947,7.5357 0.7034,1.7815 1.3955,3.5677 2.1284,5.3371 0.0754,0.182 0.39508,0.2628 0.848,0.5433 z"
           fill="#f7f7fa"
           id="path112"
           style="fill:#005100;fill-opacity:1;stroke:#ffffff;stroke-width:10;stroke-linecap:round;stroke-linejoin:round;stroke-miterlimit:4;stroke-dasharray:none;stroke-opacity:1;paint-order:stroke markers fill" />
      </g>
      <path
         style="fill:#ffffff;fill-opacity:1;fill-rule:evenodd;stroke:none;stroke-width:10;stroke-linecap:round;stroke-linejoin:round;stroke-miterlimit:4;stroke-dasharray:none;stroke-opacity:1;paint-order:stroke markers fill"
         id="path4989"
         sodipodi:type="arc"
         sodipodi:cx="34.1609"
         sodipodi:cy="74.156029"
         sodipodi:rx="5.1395912"
         sodipodi:ry="7.3171206"
         sodipodi:start="0"
         sodipodi:end="6.2647895"
         sodipodi:open="true"
         sodipodi:arc-type="arc"
         d="m 39.300491,74.156029 a 5.1395912,7.3171206 0 0 1 -5.115954,7.317043 5.1395912,7.3171206 0 0 1 -5.163011,-7.249742 5.1395912,7.3171206 0 0 1 5.068466,-7.383725 5.1395912,7.3171206 0 0 1 5.20963,7.181827" />
      <path
         style="fill:#ffffff;fill-opacity:1;fill-rule:evenodd;stroke:none;stroke-width:10;stroke-linecap:round;stroke-linejoin:round;stroke-miterlimit:4;stroke-dasharray:none;stroke-opacity:1;paint-order:stroke markers fill"
         id="path4885"
         sodipodi:type="arc"
         sodipodi:cx="73.671188"
         sodipodi:cy="73.74633"
         sodipodi:rx="11.002174"
         sodipodi:ry="8.1760569"
         sodipodi:start="0"
         sodipodi:end="6.2647895"
         sodipodi:open="true"
         sodipodi:arc-type="arc"
         d="m 84.673363,73.74633 a 11.002174,8.1760569 0 0 1 -10.951576,8.175971 11.002174,8.1760569 0 0 1 -11.052308,-8.100769 11.002174,8.1760569 0 0 1 10.849919,-8.25048 11.002174,8.1760569 0 0 1 11.152103,8.024882" />
      <path
         style="fill:#ffffff;fill-opacity:1;fill-rule:evenodd;stroke:none;stroke-width:10;stroke-linecap:round;stroke-linejoin:round;stroke-miterlimit:4;stroke-dasharray:none;stroke-opacity:1;paint-order:stroke markers fill"
         id="path4759"
         sodipodi:type="arc"
         sodipodi:cx="35.504257"
         sodipodi:cy="20.500032"
         sodipodi:rx="19.564053"
         sodipodi:ry="7.7600379"
         sodipodi:start="0"
         sodipodi:end="6.2647895"
         sodipodi:open="true"
         sodipodi:arc-type="arc"
         d="M 55.06831,20.500032 A 19.564053,7.7600379 0 0 1 35.594231,28.259988 19.564053,7.7600379 0 0 1 15.941032,20.571407 19.564053,7.7600379 0 0 1 35.234343,12.740733 19.564053,7.7600379 0 0 1 55.065,20.357288" />
      <path
         style="fill:#ffffff;fill-opacity:1;fill-rule:evenodd;stroke:none;stroke-width:10;stroke-linecap:round;stroke-linejoin:round;stroke-miterlimit:4;stroke-dasharray:none;stroke-opacity:1;paint-order:stroke markers fill"
         id="path5093"
         sodipodi:type="arc"
         sodipodi:cx="57.27869"
         sodipodi:cy="55.165352"
         sodipodi:rx="27.392809"
         sodipodi:ry="18.430582"
         sodipodi:start="0"
         sodipodi:end="6.2647895"
         sodipodi:open="true"
         sodipodi:arc-type="arc"
         d="M 84.671499,55.165352 A 27.392809,18.430582 0 0 1 57.404668,73.595739 27.392809,18.430582 0 0 1 29.88704,55.334872 27.392809,18.430582 0 0 1 56.900768,36.736524 27.392809,18.430582 0 0 1 84.666864,54.826326" />
      <path
         style="fill:#ffffff;fill-opacity:1;fill-rule:evenodd;stroke:none;stroke-width:10;stroke-linecap:round;stroke-linejoin:round;stroke-miterlimit:4;stroke-dasharray:none;stroke-opacity:1;paint-order:stroke markers fill"
         id="path5095"
         sodipodi:type="arc"
         sodipodi:cx="101.99631"
         sodipodi:cy="56.27544"
         sodipodi:rx="25.858421"
         sodipodi:ry="26.01523"
         sodipodi:start="0"
         sodipodi:end="6.2647895"
         sodipodi:open="true"
         sodipodi:arc-type="arc"
         d="m 127.85473,56.27544 a 25.858421,26.01523 0 0 1 -25.7395,26.014955 25.858421,26.01523 0 0 1 -25.97625,-25.775673 25.858421,26.01523 0 0 1 25.50057,-26.252036 25.858421,26.01523 0 0 1 26.2108,25.53421" />
      <path
         style="fill:#ffffff;fill-opacity:1;fill-rule:evenodd;stroke:none;stroke-width:10;stroke-linecap:round;stroke-linejoin:round;stroke-miterlimit:4;stroke-dasharray:none;stroke-opacity:1;paint-order:stroke markers fill"
         id="path5097"
         sodipodi:type="arc"
         sodipodi:cx="214.72726"
         sodipodi:cy="31.607918"
         sodipodi:rx="9.2093439"
         sodipodi:ry="15.274035"
         sodipodi:start="0"
         sodipodi:end="6.2647895"
         sodipodi:open="true"
         sodipodi:arc-type="arc"
         d="m 223.93661,31.607918 a 9.2093439,15.274035 0 0 1 -9.16699,15.273874 9.2093439,15.274035 0 0 1 -9.25131,-15.133387 9.2093439,15.274035 0 0 1 9.0819,-15.413069 9.2093439,15.274035 0 0 1 9.33484,14.991619" />
      <path
         style="fill:#ffffff;fill-opacity:1;fill-rule:evenodd;stroke:none;stroke-width:10;stroke-linecap:round;stroke-linejoin:round;stroke-miterlimit:4;stroke-dasharray:none;stroke-opacity:1;paint-order:stroke markers fill"
         id="path5103"
         sodipodi:type="arc"
         sodipodi:cx="223.64799"
         sodipodi:cy="53.586914"
         sodipodi:rx="19.927013"
         sodipodi:ry="11.646559"
         sodipodi:start="0"
         sodipodi:end="6.2647895"
         sodipodi:open="true"
         sodipodi:arc-type="arc"
         d="M 243.57501,53.586914 A 19.927013,11.646559 0 0 1 223.73964,65.23335 19.927013,11.646559 0 0 1 203.72182,53.694036 19.927013,11.646559 0 0 1 223.37307,41.941464 19.927013,11.646559 0 0 1 243.57164,53.372678" />
      <path
         style="fill:#ffffff;fill-opacity:1;fill-rule:evenodd;stroke:none;stroke-width:10;stroke-linecap:round;stroke-linejoin:round;stroke-miterlimit:4;stroke-dasharray:none;stroke-opacity:1;paint-order:stroke markers fill"
         id="path5105"
         sodipodi:type="arc"
         sodipodi:cx="194.85388"
         sodipodi:cy="52.466602"
         sodipodi:rx="10.899311"
         sodipodi:ry="13.221667"
         sodipodi:start="0"
         sodipodi:end="6.2647895"
         sodipodi:open="true"
         sodipodi:arc-type="arc"
         d="m 205.75319,52.466602 a 10.899311,13.221667 0 0 1 -10.84918,13.221528 10.899311,13.221667 0 0 1 -10.94898,-13.099918 10.899311,13.221667 0 0 1 10.74848,-13.342019 10.899311,13.221667 0 0 1 11.04784,12.9772" />
      <path
         style="fill:#ffffff;fill-opacity:1;fill-rule:evenodd;stroke:none;stroke-width:10;stroke-linecap:round;stroke-linejoin:round;stroke-miterlimit:4;stroke-dasharray:none;stroke-opacity:1;paint-order:stroke markers fill"
         id="path5107"
         sodipodi:type="arc"
         sodipodi:cx="214.09966"
         sodipodi:cy="73.565819"
         sodipodi:rx="8.3464499"
         sodipodi:ry="7.8775449"
         sodipodi:start="0"
         sodipodi:end="6.2647895"
         sodipodi:open="true"
         sodipodi:arc-type="arc"
         d="m 222.44611,73.565819 a 8.3464499,7.8775449 0 0 1 -8.30807,7.877461 8.3464499,7.8775449 0 0 1 -8.38448,-7.805005 8.3464499,7.8775449 0 0 1 8.23094,-7.949251 8.3464499,7.8775449 0 0 1 8.46019,7.731889" />
      <path
         style="fill:#ffffff;fill-opacity:1;fill-rule:evenodd;stroke:none;stroke-width:10;stroke-linecap:round;stroke-linejoin:round;stroke-miterlimit:4;stroke-dasharray:none;stroke-opacity:1;paint-order:stroke markers fill"
         id="path5109"
         sodipodi:type="arc"
         sodipodi:cx="177.78928"
         sodipodi:cy="58.833961"
         sodipodi:rx="15.840911"
         sodipodi:ry="15.25914"
         sodipodi:start="0"
         sodipodi:end="6.2647895"
         sodipodi:open="true"
         sodipodi:arc-type="arc"
         d="M 193.63019,58.833961 A 15.840911,15.25914 0 0 1 177.86213,74.09294 15.840911,15.25914 0 0 1 161.94904,58.974312 15.840911,15.25914 0 0 1 177.57073,43.576274 15.840911,15.25914 0 0 1 193.62751,58.553273" />
      <path
         style="fill:#ffffff;fill-opacity:1;fill-rule:evenodd;stroke:none;stroke-width:10;stroke-linecap:round;stroke-linejoin:round;stroke-miterlimit:4;stroke-dasharray:none;stroke-opacity:1;paint-order:stroke markers fill"
         id="path5191"
         sodipodi:type="arc"
         sodipodi:cx="148.8351"
         sodipodi:cy="65.080147"
         sodipodi:rx="15.840911"
         sodipodi:ry="15.25914"
         sodipodi:start="0"
         sodipodi:end="6.2647895"
         sodipodi:open="true"
         sodipodi:arc-type="arc"
         d="M 164.67601,65.080147 A 15.840911,15.25914 0 0 1 148.90795,80.339125 15.840911,15.25914 0 0 1 132.99486,65.220497 15.840911,15.25914 0 0 1 148.61655,49.822459 15.840911,15.25914 0 0 1 164.67333,64.799458" />
      <g
         id="g3881"
         transform="translate(-14.158715,-9.7218283)"
         style="fill:#003900;fill-opacity:1;stroke:none;stroke-opacity:1">
        <path
           d="m 111.50783,39.7634 c 3.12951,-7.3516 6.0082,-13.7308 8.54151,-20.2445 1.08349,-2.7861 2.44689,-4.1445 5.57629,-3.6923 a 51.21586,51.21586 0 0 0 6.9103,0.0585 c 0.6239,14.6053 1.238,28.9812 1.8638,43.6306 h -8.89953 q -0.59565,-12.76545 -1.1908,-25.5212 -0.27913,-0.0987 -0.5582,-0.19731 -4.2216,9.70186 -8.4418,19.40441 a 12.41554,12.41554 0 0 0 -0.8714,2.1259 c -0.9755,4.3283 -3.7139,5.3229 -8.0068,4.0388 -1.5567,-7.4827 -3.1508,-15.1445 -4.7448,-22.8063 q -0.3303,-0.02595 -0.6605,-0.05181 -3.723304,11.54972 -7.459104,23.13841 h -15.1573 c -0.8073,-4.22041 -1.6133,-8.4342 -2.4794,-12.9622 -2.8784,0 -5.6869,-0.1711 -8.4542,0.0917 a 4.27517,4.27517 0 0 0 -2.7302,1.9473 56.81417,56.81417 0 0 0 -2.7378,5.9015 c -2.3688,5.207 -4.3858,6.2834 -9.9778,5.0642 -0.7223,-0.1574 -1.26079,-1.1582 -2.05979,-1.93991 -5.848,2.67831 -12.19841,3.53281 -18.648,1.01891 -12.96541,-5.0535 -16.35951,-21.7782 -6.85091,-33.4383 7.6798,-9.41761 22.3384,-13.2048 34.1981,-8.5642 -0.3391,2.6073 -0.6928,5.3265 -1.0149,7.8037 -5.0464,0 -9.8634,-0.5264 -14.5138,0.12889 a 17.15779,17.15779 0 0 0 -13.8059,10.38831 12.03544,12.03544 0 0 0 1.3157,12.718 c 3.3686,4.5149 8.0221,3.546 12.844,2.7276 0.16271,-1.206 0.3273,-2.4252 0.55,-4.0755 h -6.6575 c 0.3761,-2.9 0.694,-5.3521 1.0425,-8.0393 h 16.6718 c -0.662,4.1636 -1.2894,8.1088 -1.9167,12.05389 q 0.364,0.18812 0.728,0.376 c 0.5794,-1.09459 1.2269,-2.159 1.7274,-3.28859 4.1409,-9.3458 8.3784,-18.6523 12.3008,-28.0895 1.1706,-2.8166 2.5997,-4.0306 5.6558,-3.637 a 58.75876,58.75876 0 0 0 7.0163,0.0528 c 1.9188,11.30029 3.8235,22.5176 5.7282,33.7349 q 0.38835,0.04155 0.7767,0.0832 4.0083,-12.24225 8.0142,-24.4851 c 0.3176,-0.9716 0.5857,-1.9593 0.9064,-2.9298 2.3862,-7.2208 2.9039,-7.5008 11.096904,-5.8995 1.38523,7.40559 2.78494,14.8883 4.37243,23.3748 z M 73.305926,30.6787 q -0.41565,-0.123 -0.8313,-0.2461 c -1.0662,2.4783 -2.13229,4.95659 -3.2476,7.5493 h 5.4095 c -0.4807,-2.6384 -0.9056,-4.9708 -1.3306,-7.3032 z"
           fill="#f8f7fa"
           id="path3863"
           style="fill:#003900;fill-opacity:1;stroke:none;stroke-opacity:1" />
        <path
           d="m 67.716626,68.4067 c 10.7795,-0.1677 21.6643,-1.8802 32.520104,2.1063 0.0703,-0.6213 0.1557,-1.3765 0.2419,-2.1344 a 4.1778,4.1778 0 0 1 0.7165,-0.2642 c 5.9335,-1.0771 10.075,0.6319 12.5629,6.6637 1.8691,4.5316 4.8669,8.5976 7.6716,13.4008 2.7871,-5.0576 5.2821,-9.58571 7.7778,-14.1134 3.7722,-6.8432 3.7774,-6.8455 12.3536,-5.602 -0.7094,1.3174 -1.3215,2.5254 -1.9969,3.6969 q -6.89218,11.9544 -13.8131,23.8921 c -2.3914,4.11169 -6.6934,4.1631 -9.1284,0.135 -2.5781,-4.2649 -5.1225,-8.5502 -7.7089,-12.81 a 5.784,5.784 0 0 0 -2.7715,-2.5707 30.31669,30.31669 0 0 1 0.2406,4.9686 c -0.762,6.8697 -5.32149,11.7527 -13.028494,12.3482 -10.179,0.7863 -20.43181,0.6818 -30.65421,0.74259 -0.994,0.0059 -2.3295,-1.31949 -2.9417,-2.35939 -3.8709,-6.57561 -7.5824,-13.2449 -11.6368,-20.3953 -3.0462,5.4754 -5.7915,10.4101 -8.8536,15.9139 h 8.68317 v 6.6497 h -21.1316 c 0.4382,-0.91791 0.7881,-1.8164 1.271,-2.6367 q 7.48485,-12.7155 15.0169,-25.40321 c 2.3007,-3.85769 8.5146,-3.777 10.8812,0.069 q 5.914,9.61082 11.855,19.20521 c 0.4174,0.76479 0.8347,1.5297 1.7422,3.19279 V 89.8544 l -0.002,-2.2838 q 0.0663,-9.582 0.13283,-19.1639 z m 9.1111,23.62249 c 5.3662,-0.41089 10.4741,-0.44169 15.4399,-1.297 3.93171,-0.67719 5.5124,-3.92979 5.1645,-8.58559 -0.28179,-3.7703 -2.3519,-6.49141 -6.058,-6.7678 -4.77379,-0.356 -9.5941,-0.0867 -14.5464,-0.0867 z"
           fill="#f6f5f9"
           id="path3865"
           style="fill:#003900;fill-opacity:1;stroke:none;stroke-opacity:1" />
        <path
           d="m 199.85993,68.2751 h 7.9263 v 30.2705 a 9.0028,9.0028 0 0 1 -8.6995,-2.0061 c -6.3777,-5.4554 -13.0593,-10.55531 -20.12139,-16.2022 v 18.6294 c -4.87391,0 -9.43791,0.1577 -13.97471,-0.1227 -1.0021,-0.0619 -2.18329,-1.5153 -2.8135,-2.6001 -3.7763,-6.5008 -7.4157,-13.0812 -11.389,-20.1472 -2.9997,5.4409 -5.7424,10.4158 -8.7747,15.9158 h 8.581 v 6.634 h -20.8696 a 12.56666,12.56666 0 0 1 0.8173,-2.2137 q 7.662,-13.06065 15.3946,-26.0798 c 1.98861,-3.3427 8.4829,-3.4103 10.49761,-0.0994 4.49679,7.3903 8.93219,14.8179 13.99169,23.2257 V 68.46819 c 3.6171,-0.83349 6.3901,-0.47739 9.1448,1.85391 5.3633,4.5389 11.0137,8.7393 16.5614,13.05909 0.9487,0.73871 1.9778,1.37411 3.7277,2.57911 z"
           fill="#f6f5f9"
           id="path3867"
           style="fill:#003900;fill-opacity:1;stroke:none;stroke-opacity:1" />
        <path
           d="m 203.8522,37.30619 c 3.68911,4.026 5.7816,8.56541 2.9118,13.88821 a 15.32,15.32 0 0 1 -14.6981,8.5909 c -5.85859,-0.1049 -11.7205,-0.0219 -18.0787,-0.0219 2.3286,-14.7511 4.59,-29.0761 6.8852,-43.6155 6.0406,0 11.7993,-0.3488 17.4987,0.0837 8.0695,0.6122 12.5809,9.6024 8.5941,16.5909 -0.88007,1.5426 -2.02637,2.9333 -3.113,4.48369 z m -18.09186,5.11511 c -0.436,3.168 -0.81831,5.94589 -1.262,9.1695 3.89929,-0.2623 7.28829,-0.0623 10.40649,-0.88661 1.4854,-0.39259 3.6154,-2.97139 3.3773,-4.13479 -0.3264,-1.5944 -2.4294,-3.5137 -4.129,-3.9753 -2.47793,-0.67291 -5.2743,-0.1728 -8.39279,-0.1728 z m 1.48689,-8.6569 c 3.1032,-0.2516 5.903,0.044 8.2372,-0.8611 1.4324,-0.5554 2.8637,-2.9217 2.9265,-4.5284 0.0381,-0.9744 -2.4405,-2.751 -3.9533,-2.9572 -5.7017,-0.7768 -5.73329,-0.5923 -6.7655,4.9499 -0.1593,0.8555 -0.2297,1.72759 -0.44493,3.3968 z"
           fill="#f8f8fa"
           id="path3869"
           style="fill:#003900;fill-opacity:1;stroke:none;stroke-opacity:1" />
        <path
           d="m 247.34182,34.4247 c -0.424,8.8359 -2.462,15.163 -7.4511,20.2508 -10.0835,10.283 -24.6081,6.8881 -29.14269,-6.7631 a 25.74309,25.74309 0 0 1 9.11869,-28.6691 c 8.8421,-6.3116 19.7797,-3.7609 24.5368,6.0244 1.63568,3.3646 2.32682,7.1884 2.9383,9.157 z m -28.7487,6.33649 a 23.26634,23.26634 0 0 0 0.3397,3.47491 c 0.782,3.3456 2.1349,6.3057 5.8198,7.4169 3.6198,1.0916 6.3164,-0.7174 8.4463,-3.15081 4.7215,-5.39409 6.1555,-11.70319 3.8022,-18.548 -2.0906,-6.08049 -8.04578,-7.40069 -12.7629,-2.94679 -3.8297,3.616 -5.36588,8.2645 -5.6451,13.75379 z"
           fill="#f7f7fa"
           id="path3871"
           style="fill:#003900;fill-opacity:1;stroke:none;stroke-opacity:1" />
        <path
           d="m 142.13263,16.0455 h 24.7939 c -0.43319,3.0574 -0.8358,5.8991 -1.2951,9.1411 h -15.7454 l -1.1954,7.8493 h 13.6674 c -0.459,3.266 -0.8579,6.1046 -1.3106,9.3255 h -13.6654 c -0.44069,2.7916 -0.8276,5.2424 -1.2805,8.1115 h 15.6485 c -0.5344,3.2402 -1.0012,6.07 -1.4968,9.0746 h -25.0175 c 2.29447,-14.472 4.5652,-28.7944 6.8969,-43.502 z"
           fill="#f8f7fa"
           id="path3873"
           style="fill:#003900;fill-opacity:1;stroke:none;stroke-opacity:1" />
        <path
           d="m 281.36634,68.261 v 6.6943 h -23.63262 v 4.3462 h 13.6194 v 6.7543 h -13.6654 v 5.45439 h 24.0149 V 98.6471 H 248.98134 V 68.261 Z"
           fill="#f3f1f9"
           id="path3875"
           style="fill:#003900;fill-opacity:1;stroke:none;stroke-opacity:1" />
        <path
           d="m 237.03092,79.1611 c -0.1635,-1.3122 -0.3027,-2.4296 -0.4673,-3.751 h -16.6517 v 15.75509 h 16.6929 c 0.1167,-1.36219 0.2241,-2.61589 0.3548,-4.14209 h 8.669 a 57.66384,57.66384 0 0 1 -0.0385,5.9782 c -0.3275,3.1255 -1.9489,5.4542 -5.3045,5.5136 -8.0387,0.1421 -16.0841,0.1521 -24.1217,-0.0213 a 4.89831,4.89831 0 0 1 -5.09689,-5.1838 q -0.20175,-9.77191 -0.0225,-19.5502 c 0.0609,-3.3023 2.07849,-5.3613 5.31269,-5.4345 7.9202,-0.1791 15.8577,-0.30591 23.7675,0.0308 4.7647,0.2028 6.2009,3.57329 5.2242,10.8052 z"
           fill="#f7f6fa"
           id="path3877"
           style="fill:#003900;fill-opacity:1;stroke:none;stroke-opacity:1" />
        <path
           d="m 258.43412,29.4604 c 2.0115,-3.2257 4.2734,-6.32221 5.9575,-9.7063 1.6109,-3.2367 3.8764,-4.3523 7.3074,-3.9057 a 49.10763,49.10763 0 0 0 5.5954,0.0349 c -3.5298,5.6198 -6.2017,10.8937 -9.8213,15.4076 -6.1034,7.6114 -7.553,16.5282 -8.6247,25.6924 -0.0881,0.7527 -0.23708,1.4984 -0.40008,2.5092 h -8.92892 c 0.888,-5.7025 1.9542,-11.2187 2.5165,-16.7857 a 15.64635,15.64635 0 0 0 -0.9965,-7.25661 c -2.6565,-6.451 -5.7316,-12.72949 -8.6419,-19.07369 a 4.73316,4.73316 0 0 1 0.7655,-0.3322 c 8.9875,-0.84111 8.9875,-0.8406 12.2947,7.5357 0.7034,1.7815 1.3955,3.5677 2.1284,5.3371 0.0754,0.182 0.39508,0.2628 0.848,0.5433 z"
           fill="#f7f7fa"
           id="path3879"
           style="fill:#003900;fill-opacity:1;stroke:none;stroke-opacity:1" />
      </g>
    </g>
  </g>
</svg>
