<?xml version="1.0" encoding="UTF-8" standalone="no"?>
<svg
   id="Layer_1"
   data-name="Layer 1"
   viewBox="0 0 258.93246 114.00044"
   version="1.1"
   sodipodi:docname="gbc.svg"
   width="258.93246"
   height="114.00044"
   inkscape:version="1.1 (c68e22c387, 2021-05-23)"
   xmlns:inkscape="http://www.inkscape.org/namespaces/inkscape"
   xmlns:sodipodi="http://sodipodi.sourceforge.net/DTD/sodipodi-0.dtd"
   xmlns="http://www.w3.org/2000/svg"
   xmlns:svg="http://www.w3.org/2000/svg"
   xmlns:rdf="http://www.w3.org/1999/02/22-rdf-syntax-ns#"
   xmlns:cc="http://creativecommons.org/ns#"
   xmlns:dc="http://purl.org/dc/elements/1.1/">
  <defs
     id="defs92" />
  <sodipodi:namedview
     id="namedview90"
     pagecolor="#ffffff"
     bordercolor="#666666"
     borderopacity="1.0"
     inkscape:pageshadow="2"
     inkscape:pageopacity="0.0"
     inkscape:pagecheckerboard="0"
     showgrid="false"
     fit-margin-top="0"
     fit-margin-left="0"
     fit-margin-right="0"
     fit-margin-bottom="0"
     inkscape:zoom="1.113"
     inkscape:cx="129.82929"
     inkscape:cy="56.603774"
     inkscape:window-width="1920"
     inkscape:window-height="1138"
     inkscape:window-x="-8"
     inkscape:window-y="-8"
     inkscape:window-maximized="1"
     inkscape:current-layer="Layer_1" />
  <title
     id="title2">logo</title>
  <g
     id="Layer_2"
     data-name="Layer 2"
     transform="translate(-370.54823,4.4355588e-4)">
    <rect
       x="395.16464"
       y="55.759159"
       width="27"
       height="34"
       fill="#ffffff"
       id="rect4" />
    <rect
       x="433.16464"
       y="64.759163"
       width="32"
       height="20"
       fill="#ffffff"
       id="rect6" />
    <rect
       x="434.16464"
       y="30.759159"
       width="42"
       height="26"
       fill="#ffffff"
       id="rect8" />
    <rect
       x="533.16461"
       y="66.759163"
       width="25"
       height="17"
       fill="#ffffff"
       id="rect10" />
  </g>
  <path
     d="m 46.197638,15.604994 c 0.35,1.80323 0.64246,3.31012 0.94428,4.86518 h -3.1095 c 0.6991,-1.57087 1.37256,-3.08411 2.16522,-4.86518 m -0.003,-7.0002404 a 7.00036,7.00036 0 0 0 -6.39227,4.1540504 l -0.82477,1.85321 -1.34046,3.012 a 7,7 0 0 0 6.39527,9.84613 h 3.1095 a 7,7 0 0 0 6.87176,-8.33374 l -0.30267,-1.55945 -0.64167,-3.30591 a 7.00277,7.00277 0 0 0 -6.87469,-5.6663204 z"
     fill="#ffffff"
     id="path13" />
  <path
     d="m 87.558538,62.000934 c 0.0913,0 0.18311,4.9e-4 0.27484,0.0015 a 5.75753,5.75753 0 0 1 4.03278,2.2265 c 2.14282,2.28357 3.08307,5.14417 3.74475,8.10529 0.31988,1.43158 0.4436,2.907 0.65613,4.36261 0.28961,6.52991 -5.45478,11.33673 -10.3,12.41425 a 14.22877,14.22877 0 0 1 -3.08942,0.33819 13.14437,13.14437 0 0 1 -11.3067,-5.99505 c -2.84674,-4.74579 -2.27936,-9.44928 0.72022,-13.792 3.65014,-5.28442 8.93768,-7.66125 15.26745,-7.66125 m 0,-7 c -8.92853,0 -16.19958,3.69409 -21.027,10.68292 -4.75689,6.887 -5.09906,14.47669 -0.9635,21.37109 a 20.102,20.102 0 0 0 17.30957,9.39429 21.265,21.265 0 0 0 4.60907,-0.50513 c 8.1,-1.80133 16.214722,-9.60925 15.773502,-19.55743 a 6.98917,6.98917 0 0 0 -0.0665,-0.70117 c -0.0598,-0.40936 -0.11133,-0.8205 -0.16333,-1.23157 -0.13867,-1.0965 -0.29584,-2.33929 -0.58783,-3.64624 a 23.521,23.521 0 0 0 -5.471742,-11.36871 c -1.01727,-1.08411 -4.11285,-4.38294 -9.062,-4.43616 l -0.35016,-0.0019 z"
     fill="#ffffff"
     id="path15" />
  <path
     d="m 199.55232,65.175494 a 37.7967,37.7967 0 0 1 0.67205,3.88861 c 0.23005,3.19867 0.34345,6.40582 0.50379,9.6095 -0.17035,-1.40869 -0.36615,-2.81488 -0.50574,-4.22663 -0.29828,-3.016 -0.56879,-6.03479 -0.84039,-9.05334 -0.006,-0.06708 0.11078,-0.1452 0.17029,-0.21814 m 1.8e-4,-7.00031 a 7.0019,7.0019 0 0 0 -5.05975,2.16278 7.15576,7.15576 0 0 0 -2.08252,5.68342 l 0.0308,0.34185 c 0.2583,2.871 0.52539,5.83985 0.81543,8.77265 0.10547,1.06695 0.23633,2.10052 0.36291,3.10009 0.054,0.42591 0.10791,0.85181 0.15943,1.278 a 7.001,7.001 0 0 0 6.9422,6.16 q 0.29946,0 0.60266,-0.02575 a 7,7 0 0 0 6.39575,-7.32453 q -0.0682,-1.36431 -0.12885,-2.72925 c -0.105,-2.29144 -0.21362,-4.66095 -0.38421,-7.03247 a 26.53154,26.53154 0 0 0 -0.55951,-3.59143 c -0.0708,-0.34216 -0.14246,-0.68414 -0.20374,-1.027 a 7.00152,7.00152 0 0 0 -6.89056,-5.76838 z"
     fill="#ffffff"
     id="path17" />
  <path
     d="m 115.51716,13.221084 a 14.56623,14.56623 0 0 1 1.62183,0.07825 1.92723,1.92723 0 0 1 1.38916,2.85547 2.88218,2.88218 0 0 1 -2.32538,1.68469 2.94231,2.94231 0 0 1 -0.5224,0.03583 c -0.0837,0 -0.16748,-0.0012 -0.25073,-0.0012 l -0.0267,6e-5 c -0.49,0.0016 -0.97992,0.002 -1.47784,0.002 -0.58252,0 -1.176,-6.1e-4 -1.79285,-6.1e-4 0.27252,-1.60272 0.5282,-3.10638 0.78388,-4.61017 0.88464,0 1.75006,-0.04437 2.60107,-0.04437 m 0,-7.0000004 c -0.48053,0 -0.96515,0.01166 -1.45441,0.02417 -0.37835,0.00965 -0.76037,0.0202 -1.14666,0.0202 a 7,7 0 0 0 -6.90094,5.8266004 l -0.0438,0.25721 -0.74011,4.353 a 7,7 0 0 0 6.90094,8.17334 l 0.91864,3.1e-4 0.87427,3e-4 1.50036,-0.0021 0.082,4.3e-4 0.17285,7.3e-4 a 10.1379,10.1379 0 0 0 9.26806,-5.93134 9.25748,9.25748 0 0 0 -0.41339,-8.2962 8.68136,8.68136 0 0 0 -6.61743,-4.3050004 21.19166,21.19166 0 0 0 -2.40045,-0.12171 z"
     fill="#ffffff"
     id="path19" />
  <path
     d="m 136.91177,12.616164 a 4.16381,4.16381 0 0 1 3.82355,2.91547 25.24514,25.24514 0 0 1 0.87866,3.57031 12.05183,12.05183 0 0 1 -2.9198,7.3974 7.268,7.268 0 0 1 -1.616,1.33612 4.4402,4.4402 0 0 1 -2.28583,0.68543 3.9607,3.9607 0 0 1 -3.36072,-2.04474 8.782,8.782 0 0 1 -0.96472,-6.49243 9.738,9.738 0 0 1 3.48791,-6.25177 4.8502,4.8502 0 0 1 2.95695,-1.11579 m 0,-7.0000004 a 11.78053,11.78053 0 0 0 -7.251,2.58765 16.5889,16.5889 0 0 0 -6.08088,10.5277104 15.64928,15.64928 0 0 0 1.92591,11.4707 10.87131,10.87131 0 0 0 9.28662,5.31867 11.47132,11.47132 0 0 0 5.8927,-1.68622 14.35787,14.35787 0 0 0 3.19781,-2.63672 18.823,18.823 0 0 0 4.70612,-11.50525 6.99887,6.99887 0 0 0 -0.165,-2.21027 c -0.0685,-0.288 -0.12469,-0.58068 -0.18256,-0.873 a 19.83935,19.83935 0 0 0 -1.00836,-3.6814 11.10225,11.10225 0 0 0 -10.32136,-7.3118704 z"
     fill="#ffffff"
     id="path21" />
  <path
     d="m 114.33167,23.078814 c 0.64246,0 1.27808,0.0081 1.91266,0.03479 a 2.36082,2.36082 0 0 1 2.37818,1.91766 2.4258,2.4258 0 0 1 -1.55634,2.64081 3.58927,3.58927 0 0 1 -1.34534,0.35883 c -0.77276,0.01892 -1.54565,0.02411 -2.32757,0.02411 -0.9375,0 -1.88788,-0.0074 -2.86536,-0.0074 0.27393,-1.69861 0.53784,-3.335 0.79834,-4.95007 1.03327,0 2.02747,-0.01868 3.00543,-0.01868 m 0,-7 c -0.50384,0 -1.01184,0.0046 -1.52679,0.0095 -0.48517,0.0045 -0.97711,0.0092 -1.47864,0.0092 a 7,7 0 0 0 -6.9107,5.88543 l -0.79834,4.9502 a 7,7 0 0 0 6.9107,8.11444 q 0.727,0 1.43543,0.0037 0.72152,0.0028 1.42993,0.0037 c 0.83948,0 1.66931,-0.0059 2.499,-0.02619 a 10.45786,10.45786 0 0 0 4.06818,-0.98309 9.44769,9.44769 0 0 0 5.57977,-10.0849 9.31331,9.31331 0 0 0 -9.00183,-7.84107 c -0.66382,-0.02795 -1.36511,-0.04095 -2.20667,-0.04095 z"
     fill="#ffffff"
     id="path23" />
  <path
     d="m 172.97004,63.316914 c 0.10785,0 0.21655,8.5e-4 0.32513,0.0026 1.39948,0.09943 2.84534,0.13367 4.2721,0.31671 a 11.19451,11.19451 0 0 1 8.61438,5.74774 c 1.37482,2.3678 1.04376,4.94471 0.35718,7.42945 -1.54657,5.5971 -5.53931,8.78216 -10.84894,10.4624 a 15.81389,15.81389 0 0 1 -4.77606,0.78259 13.16878,13.16878 0 0 1 -8.84522,-3.46838 11.52505,11.52505 0 0 1 -1.168,-15.86762 15.11408,15.11408 0 0 1 12.0694,-5.40545 m 0,-7 a 22.19717,22.19717 0 0 0 -17.38757,7.85388 18.58011,18.58011 0 0 0 1.88836,25.69745 20.28106,20.28106 0 0 0 13.443,5.19012 22.8532,22.8532 0 0 0 6.88806,-1.10882 c 10.202,-3.2284 14.05139,-10.0868 15.48413,-15.27179 0.884,-3.19922 1.73682,-8.00763 -1.05078,-12.80872 a 18.08722,18.08722 0 0 0 -13.77735,-9.176 c -1.23138,-0.158 -2.41156,-0.224 -3.45282,-0.28229 -0.40753,-0.02283 -0.8128,-0.04523 -1.21386,-0.07373 q -0.19337,-0.01374 -0.38727,-0.01672 c -0.1449,-0.0023 -0.29,-0.0034 -0.4339,-0.0034 z"
     fill="#ffffff"
     id="path25" />
  <path
     d="m 218.62611,54.355304 c 0.69293,0 1.379,0.0067 2.06439,0.02832 a 26.13452,26.13452 0 0 1 8.20972,1.193 3.12686,3.12686 0 0 1 2.22131,1.94416 18.74863,18.74863 0 0 1 -2.03992,2.24615 c -2.44995,1.98731 -9.81213,4.64728 -13.17065,4.82611 -0.24585,-3.37256 -0.492,-6.74786 -0.74518,-10.22015 1.19116,0 2.335,-0.01764 3.46033,-0.01764 m 0,-7 c -0.57239,0 -1.14936,0.0043 -1.73456,0.0089 -0.56586,0.0043 -1.13995,0.0088 -1.72577,0.0088 a 7,7 0 0 0 -6.98145,7.509 l 0.31678,4.345 0.4284,5.87512 a 7.00031,7.00031 0 0 0 6.97577,6.49121 q 0.188,0 0.37793,-0.01007 c 4.50122,-0.23968 13.32593,-3.23077 17.20819,-6.37988 a 16.82111,16.82111 0 0 0 2.46418,-2.55633 c 0.13085,-0.16 0.25744,-0.31842 0.38763,-0.46418 a 7,7 0 0 0 1.29877,-7.20825 10.00778,10.00778 0 0 0 -6.35474,-5.97833 32.56215,32.56215 0 0 0 -10.376,-1.60913 c -0.68713,-0.02173 -1.41327,-0.0318 -2.28515,-0.0318 z"
     fill="#ffffff"
     id="path27" />
  <path
     d="m 242.68867,110.50081 a 9.412,9.412 0 0 1 -6.09278,-2.23829 q -3.85692,-3.16259 -7.73535,-6.2998 -2.644,-2.145996 -5.28418,-4.294916 -2.14307,-1.74756 -4.28125,-3.50293 c -0.0625,1.90234 -0.168,3.83594 -0.41308,5.77344 a 10.11226,10.11226 0 0 1 -10.29981,9.227536 12.56855,12.56855 0 0 1 -3.2373,-0.43555 c -6.918,-1.84766 -10.65528,-7.46778 -9.75391,-14.667996 a 23.97235,23.97235 0 0 1 0.97461,-4.05762 c 0.11326,-0.36816 0.22656,-0.73633 0.33106,-1.10449 a 14.51661,14.51661 0 0 0 0.41992,-5.91406 3.64067,3.64067 0 0 1 -0.0283,-0.38672 l -0.0596,-3.81152 c -0.0449,-0.90528 -0.0859,-1.81153 -0.12793,-2.7168 -0.10156,-2.22363 -0.207,-4.52246 -0.36719,-6.75684 a 17.85162,17.85162 0 0 0 -0.37012,-2.22168 c -0.0898,-0.43261 -0.17871,-0.86523 -0.25683,-1.29883 -0.008,-0.04785 -0.44239,-3.2041 -0.44239,-3.2041 -0.167,-0.66406 -0.34179,-1.32715 -0.5166,-1.99023 -0.44336,-1.68652 -0.90234,-3.42969 -1.24609,-5.22656 a 13.91824,13.91824 0 0 1 4.27832,-13.123 c 4.80273,-4.6377 10.69531,-7.15332 18.01465,-7.68848 1.01074,-0.07422 2.02832,-0.11133 3.02539,-0.11133 9.03808,0 17.73437,3.083 25.84863,9.165 3.13672,2.35157 6.54,6.75684 4.93945,14.39356 -1.35644,6.46191 -5.21,11.80176 -11.78222,16.32812 -1.10645,0.76172 -2.23633,1.47071 -3.35449,2.15332 q 0.94921,0.77345 1.89453,1.541 c 0,0 12.17382,9.8623 15.00781,12.16211 a 9.67135,9.67135 0 0 1 2.93066,11.283196 13.646,13.646 0 0 1 -7.375,7.96778 11.40673,11.40673 0 0 1 -4.64062,1.05668 z M 219.11445,60.396314 a 39.8507,39.8507 0 0 0 5.81543,-2.20117 38.83737,38.83737 0 0 0 -4.34961,-0.31347 c -0.54883,-0.01661 -1.09766,-0.02442 -1.65039,-0.0254 z"
     fill="#00b3dd"
     id="path29" />
  <path
     d="m 219.22224,37.950024 c 8.8161,0 16.63794,3.1366 23.74725,8.46613 3.66333,2.74628 4.51721,6.56036 3.61243,10.87451 -1.31482,6.269 -5.25482,10.66046 -10.34137,14.16284 -2.176,1.49829 -4.48493,2.80353 -6.73352,4.19623 -0.1908,0.11823 -0.38251,0.23505 -0.68622,0.42163 1.96472,1.60132 3.849,3.14362 5.74017,4.67731 q 7.50138,6.08349 15.00653,12.16254 a 6.20491,6.20491 0 0 1 1.85065,7.361076 10.17345,10.17345 0 0 1 -5.514,5.97516 7.93063,7.93063 0 0 1 -3.21478,0.753 5.97275,5.97275 0 0 1 -3.87384,-1.4444 c -4.32965,-3.54937 -8.68848,-7.063226 -13.02765,-10.601126 q -4.63925,-3.7826 -9.26019,-7.58747 c -0.12427,-0.1018 -0.26557,-0.18292 -0.561,-0.38391 0,0.45472 0.0115,0.76807 -0.002,1.08033 -0.16217,3.81451 -0.0781,7.66052 -0.55609,11.43524 a 6.65914,6.65914 0 0 1 -6.82635,6.166316 9.062,9.062 0 0 1 -2.33539,-0.31738 c -5.15656,-1.37616 -7.868,-5.383606 -7.1839,-10.851256 a 31.6873,31.6873 0 0 1 1.19922,-4.63855 18.07522,18.07522 0 0 0 0.52551,-7.31421 q -0.0299,-1.93524 -0.0598,-3.87042 c -0.16034,-3.20368 -0.27374,-6.41083 -0.50379,-9.6095 a 37.7967,37.7967 0 0 0 -0.67205,-3.88861 q -0.2233,-1.62452 -0.44672,-3.24963 l -2.4e-4,-3.7e-4 c -0.59717,-2.40186 -1.30164,-4.78351 -1.76667,-7.21082 a 10.40235,10.40235 0 0 1 3.27283,-9.94683 24.45769,24.45769 0 0 1 15.83911,-6.71583 q 1.4025,-0.10252 2.77161,-0.102 m -3.31128,26.64307 c 3.35852,-0.17883 10.7207,-2.8388 13.17065,-4.82611 a 18.74863,18.74863 0 0 0 2.03992,-2.24615 3.12686,3.12686 0 0 0 -2.22131,-1.94416 26.13452,26.13452 0 0 0 -8.20972,-1.193 c -0.68549,-0.02161 -1.3714,-0.02832 -2.06451,-0.02832 -1.12519,0 -2.26917,0.01764 -3.46021,0.01764 0.25317,3.47229 0.49933,6.84759 0.74518,10.22015 m 3.31128,-33.64307 c -1.08289,0 -2.18708,0.04059 -3.28186,0.12061 a 31.50044,31.50044 0 0 0 -20.19239,8.66272 17.27337,17.27337 0 0 0 -5.2843,16.29834 c 0.366,1.9104 0.83948,3.70972 1.29737,5.44983 0.1557,0.59186 0.31158,1.18365 0.46167,1.77661 l 0.39477,2.87061 q 0.0192,0.1398 0.0441,0.27862 c 0.0836,0.46729 0.1792,0.93372 0.27569,1.4 a 15.92423,15.92423 0 0 1 0.30512,1.75866 c 0.15753,2.19019 0.25726,4.36591 0.36279,6.66938 q 0.0611,1.33346 0.12567,2.66656 l 0.058,3.75043 a 6.99948,6.99948 0 0 0 0.0554,0.77728 11.06484,11.06484 0 0 1 -0.31458,4.51294 c -0.0986,0.34625 -0.205,0.69226 -0.311,1.0387 a 26.77337,26.77337 0 0 0 -1.10132,4.64642 c -1.11749,8.931996 3.72028,16.187256 12.32483,18.483576 a 16.073,16.073 0 0 0 4.14032,0.55408 13.61551,13.61551 0 0 0 13.663,-11.56738 q 2.19068,1.78362 4.38513,3.5628 3.87873,3.14814 7.747,6.30866 a 13.00045,13.00045 0 0 0 8.31174,3.03092 14.872,14.872 0 0 0 6.06323,-1.35876 17.0683,17.0683 0 0 0 9.238,-9.96051 13.20175,13.20175 0 0 0 -4.01143,-15.204726 q -4.30225,-3.49236 -8.6095,-6.97882 l -4.56207,-3.69678 c 6.98657,-4.97448 11.11926,-10.89294 12.62524,-18.0733 1.54456,-7.3645 -0.68024,-13.72583 -6.26459,-17.91223 -8.73211,-6.54608 -18.13452,-9.86524 -27.946,-9.86524 z"
     fill="#ffffff"
     id="path31" />
  <path
     d="m 80.107608,107.24592 a 36.3989,36.3989 0 0 1 -12.72558,-2.33105 33.89253,33.89253 0 0 1 -8.84961,-5.121096 3.49885,3.49885 0 0 1 -1.28223,-1.99414 c -0.56836,-2.47265 -1.66015,-3.16015 -2.75586,-3.53515 a 3.49907,3.49907 0 0 1 -1.93554,-1.62988 c -4.82813,-8.8125 -2.57715,-17.56446 -0.46485,-23.38086 4.08008,-11.22657 11.64258,-19.1533 22.47852,-23.56055 a 28.37429,28.37429 0 0 1 10.709,-2.17871 c 6.06445,0 12.082,2.125 17.887702,6.31543 a 29.40193,29.40193 0 0 1 10.05957,12.82617 3.51515,3.51515 0 0 1 0.25683,1.09766 l 0.15332,2.22851 c 0.10938,1.56641 0.21875,3.13379 0.31836,4.70215 q 0.23585,3.72656 0.459,7.45215 l 0.22363,3.68359 a 3.48561,3.48561 0 0 1 -0.15723,1.27149 32.10806,32.10806 0 0 1 -5.127,10.167 35.71966,35.71966 0 0 1 -20.829102,13.011716 37.63876,37.63876 0 0 1 -8.41893,0.97557 z m 7.44825,-41.745106 c -5.47461,0 -9.52637,2.01171 -12.38477,6.15039 -2.41016,3.48828 -2.60059,6.667 -0.59961,10.00195 a 9.70137,9.70137 0 0 0 8.30664,4.2959 10.69119,10.69119 0 0 0 2.3291,-0.25488 c 3.26563,-0.72657 7.66895,-4.13868 7.56836,-8.68848 -0.0576,-0.40723 -0.10937,-0.81543 -0.16113,-1.22461 -0.12012,-0.9541 -0.23438,-1.85547 -0.41992,-2.68262 a 13.45363,13.45363 0 0 0 -2.87989,-6.47363 c -0.86621,-0.92383 -1.30371,-1.12012 -1.51855,-1.12207 z"
     fill="#7942ba"
     id="path33" />
  <path
     d="m 85.280398,47.014364 c 5.55927,0 10.84015,2.04455 15.839422,5.65387 a 25.89782,25.89782 0 0 1 8.87323,11.32409 c 0.15753,2.3042 0.32459,4.60816 0.47058,6.91345 0.23493,3.70887 0.45587,7.41864 0.68274,11.12806 a 28.6845,28.6845 0 0 1 -4.5564,9.07965 32.08951,32.08951 0 0 1 -18.847652,11.745656 33.98473,33.98473 0 0 1 -7.63544,0.88642 32.76325,32.76325 0 0 1 -11.50549,-2.11072 30.81435,30.81435 0 0 1 -7.94055,-4.618996 c -0.65882,-2.86652 -2.12122,-5.0661 -5.03247,-6.06323 -3.72113,-6.79065 -2.73218,-13.654 -0.244,-20.5033 a 35.19836,35.19836 0 0 1 20.50647,-21.51416 24.76254,24.76254 0 0 1 9.38958,-1.92077 m -2.40285,42.43485 a 14.23636,14.23636 0 0 0 3.08942,-0.33819 c 4.84527,-1.07752 10.58966,-5.88434 10.3,-12.41425 -0.21253,-1.45557 -0.33625,-2.931 -0.65613,-4.36261 -0.66168,-2.96112 -1.60193,-5.82172 -3.74475,-8.10529 a 5.75753,5.75753 0 0 0 -4.03278,-2.2265 c -0.0922,-0.001 -0.18316,-0.0015 -0.27484,-0.0015 -6.32928,1.8e-4 -11.61749,2.37713 -15.26745,7.66125 -2.99958,4.34272 -3.567,9.04621 -0.72022,13.792 a 13.14346,13.14346 0 0 0 11.3067,5.99505 m 2.40283,-49.43487 a 31.84546,31.84546 0 0 0 -12.02679,2.43658 c -11.7923,4.79608 -20.01794,13.412 -24.44861,25.60828 -2.34521,6.45575 -4.82574,16.20147 0.68463,26.25732 a 6.99986,6.99986 0 0 0 3.87055,3.25836 1.16811,1.16811 0 0 1 0.14276,0.05786 3.25312,3.25312 0 0 1 0.33575,0.951 6.99973,6.99973 0 0 0 2.56476,3.988586 37.30842,37.30842 0 0 0 9.75751,5.62335 39.90033,39.90033 0 0 0 13.94592,2.54987 41.15847,41.15847 0 0 0 9.20392,-1.06439 39.12618,39.12618 0 0 0 22.809942,-14.276996 35.52559,35.52559 0 0 0 5.69836,-11.255 7.00008,7.00008 0 0 0 0.31421,-2.54272 l -0.20136,-3.30994 q -0.23766,-3.91689 -0.4823,-7.83331 c -0.10156,-1.603 -0.21313,-3.20551 -0.3247,-4.8078 l -0.1482,-2.14056 a 7.00015,7.00015 0 0 0 -0.51348,-2.194 32.836,32.836 0 0 0 -11.24592,-14.32813 c -6.413872,-4.63061 -13.121582,-6.97845 -19.937002,-6.97845 z m -2.40278,42.43491 a 6.24809,6.24809 0 0 1 -5.3038,-2.59579 c -1.06421,-1.77411 -1.39032,-3.50959 0.477,-6.213 a 10.36984,10.36984 0 0 1 8.71063,-4.62188 l 3.1e-4,3e-4 c 0.87243,0.92975 1.457,2.33252 2.0177,4.84186 0.14837,0.66394 0.25189,1.48267 0.36151,2.34949 0.0438,0.34613 0.0878,0.69214 0.13476,1.03747 -0.0721,2.43946 -2.85,4.59034 -4.82824,5.03028 a 7.24409,7.24409 0 0 1 -1.56983,0.17126 z"
     fill="#ffffff"
     id="path35" />
  <path
     d="m 166.84101,106.92268 a 28.34925,28.34925 0 0 1 -8.59179,-1.30957 27.77636,27.77636 0 0 1 -10.17188,-6.247996 3.50174,3.50174 0 0 1 -0.90918,-3.88183 l 0.0439,-0.11524 c 0.084,-0.22558 0.17285,-0.44922 0.27636,-0.665 a 5.65713,5.65713 0 0 0 -1.11425,-6.36621 8.926,8.926 0 0 0 -3.76075,-1.75976 3.49957,3.49957 0 0 1 -2.4414,-2.67285 33.03384,33.03384 0 0 1 27.25488,-38.34578 40.10427,40.10427 0 0 1 6.75391,-0.59277 32.69279,32.69279 0 0 1 23.959,10.19141 30.15867,30.15867 0 0 1 2.71289,3.28711 c 0.32813,0.43945 0.65625,0.8789 0.99512,1.30664 a 3.49713,3.49713 0 0 1 0.72558,1.70019 l 0.44629,3.249 a 3.50468,3.50468 0 0 1 -0.0684,1.3086 c 0.24317,2.69824 0.48731,5.39746 0.75489,8.09375 0.0928,0.9375 0.21093,1.87207 0.3291,2.80664 l 0.167,1.3457 a 3.47311,3.47311 0 0 1 0.0254,0.36328 l 0.0606,3.87012 a 3.492,3.492 0 0 1 -0.36231,1.60547 c -5.97558,12.10059 -16.36718,19.582996 -30.88476,22.241206 a 34.49962,34.49962 0 0 1 -6.19922,0.58789 z m 6.13086,-40.106436 a 11.68785,11.68785 0 0 0 -9.41211,4.18164 8.01811,8.01811 0 0 0 0.80762,10.95214 9.67449,9.67449 0 0 0 6.54687,2.6084 12.38953,12.38953 0 0 0 3.71973,-0.61914 c 4.71387,-1.49218 7.42481,-4.05273 8.53223,-8.05859 0.627,-2.27149 0.624,-3.64551 -0.0107,-4.73926 a 7.73241,7.73241 0 0 0 -6.03321,-4.0332 c -0.85937,-0.11035 -1.75488,-0.16113 -2.7041,-0.21387 -0.42285,-0.02344 -0.84375,-0.04785 -1.26074,-0.07617 z"
     fill="#f9e52d"
     id="path37" />
  <path
     d="m 174.18189,48.465534 a 29.29016,29.29016 0 0 1 21.46988,9.15216 50.82913,50.82913 0 0 1 3.45356,4.3078 l 2.4e-4,3.7e-4 q 0.2234,1.6255 0.44672,3.24963 c -0.0595,0.07294 -0.17633,0.15106 -0.17029,0.21814 0.2716,3.01855 0.54211,6.03735 0.84039,9.05334 0.13959,1.41175 0.33539,2.81794 0.50574,4.22663 q 0.0299,1.93524 0.0598,3.87042 c -5.84179,11.82757 -15.71057,18.029106 -28.37719,20.348746 a 30.876,30.876 0 0 1 -5.56855,0.53016 24.71405,24.71405 0 0 1 -7.53412,-1.14533 24.27326,24.27326 0 0 1 -8.88433,-5.509516 c 0.0734,-0.18536 0.13641,-0.37561 0.22168,-0.5553 a 9.181,9.181 0 0 0 -1.81552,-10.37034 11.78906,11.78906 0 0 0 -5.22552,-2.6214 c -2.74213,-13.7608 6.07056,-31.06958 24.41333,-34.213 a 36.48312,36.48312 0 0 1 6.16418,-0.54248 m -3.26806,39.59283 a 15.81546,15.81546 0 0 0 4.77606,-0.78259 c 5.30963,-1.68024 9.30237,-4.8653 10.84894,-10.4624 0.68658,-2.48474 1.01764,-5.06165 -0.35718,-7.42945 a 11.19451,11.19451 0 0 0 -8.61438,-5.74774 c -1.42676,-0.183 -2.87262,-0.21728 -4.2721,-0.31671 -0.10888,-0.0017 -0.217,-0.0026 -0.32507,-0.0025 a 15.11531,15.11531 0 0 0 -12.06946,5.40539 11.52505,11.52505 0 0 0 1.168,15.86762 13.16773,13.16773 0 0 0 8.84522,3.46838 m 3.26806,-46.59283 a 43.65444,43.65444 0 0 0 -7.34649,0.64306 36.55368,36.55368 0 0 0 -24.21137,15.32563 35.93963,35.93963 0 0 0 -5.8847,27.15478 7,7 0 0 0 4.88409,5.34589 9.08844,9.08844 0 0 1 2.29486,0.89514 2.19944,2.19944 0 0 1 0.40345,2.381 c -0.18506,0.39008 -0.30988,0.72284 -0.38447,0.92163 l -0.0251,0.06659 a 6.98948,6.98948 0 0 0 1.81824,7.762386 29.47547,29.47547 0 0 0 21.11187,8.46131 38.06992,38.06992 0 0 0 6.82953,-0.64466 c 15.66468,-2.86871 26.89954,-10.988646 33.39234,-24.134336 a 7.00016,7.00016 0 0 0 0.723,-3.20813 l -0.001,-0.08642 -0.0584,-3.78375 a 7.012,7.012 0 0 0 -0.0498,-0.73243 q -0.082,-0.678 -0.16907,-1.35577 c -0.12,-0.94775 -0.2334,-1.843 -0.32007,-2.7193 -0.24853,-2.51355 -0.48205,-5.0777 -0.70782,-7.58325 a 6.997,6.997 0 0 0 0.006,-1.9527 l -0.16223,-1.18048 -0.28443,-2.06885 a 6.9996,6.9996 0 0 0 -1.45031,-3.39667 c -0.31891,-0.40222 -0.62629,-0.81555 -0.93439,-1.22821 a 33.39862,33.39862 0 0 0 -3.02753,-3.65326 36.07882,36.07882 0 0 0 -26.44629,-11.22918 z m -3.26806,39.59283 a 6.24619,6.24619 0 0 1 -4.24744,-1.7467 4.539,4.539 0 0 1 -0.44751,-6.03778 8.16646,8.16646 0 0 1 6.75134,-2.957 l 0.0537,4.2e-4 c 0.397,0.02649 0.79712,0.04908 1.19916,0.0716 0.88452,0.0495 1.72,0.09625 2.45337,0.19037 a 4.2269,4.2269 0 0 1 3.45166,2.31952 5.39977,5.39977 0 0 1 -0.33642,2.05011 c -0.552,1.9978 -1.72193,4.23162 -6.21375,5.65307 a 8.91918,8.91918 0 0 1 -2.66412,0.45636 z"
     fill="#ffffff"
     id="path39" />
  <path
     d="m 37.256048,109.5721 q -0.98437,0 -1.96973,-0.0166 c -6.39843,-0.10839 -11.45214,-1.1289 -15.90429,-3.21093 A 26.88539,26.88539 0 0 1 6.0773377,92.443194 32.75425,32.75425 0 0 1 3.5695277,80.890444 c -0.52539,-8.79785 1.92773,-17.10546 7.5010003,-25.39941 3.291,-4.89746 7.2295,-10.50781 12.34473,-15.11328 4.9375,-4.44727 9.6084,-6.95215 14.69922,-7.88477 a 31.7053,31.7053 0 0 1 5.709,-0.53418 27.16724,27.16724 0 0 1 14.16114,3.91211 c 7.11523,4.2666 7.99609,13.21973 4.7334,19.06836 a 11.28587,11.28587 0 0 1 -9.94825,5.5918 12.16278,12.16278 0 0 1 -1.84668,-0.1416 10.65228,10.65228 0 0 1 -8.42578,-6.58008 18.5333,18.5333 0 0 0 -7.22656,4.86426 34.70958,34.70958 0 0 0 -9.56738,16.99219 12.079,12.079 0 0 0 0.01,6.03613 6.75234,6.75234 0 0 0 5.94336,5.41211 40.86581,40.86581 0 0 0 6.78125,0.48926 c 2.15625,0 4.2959,-0.1045 6.56055,-0.21387 3.1123,-0.15235 5.67773,-0.26074 8.29492,-0.30957 0.0215,-0.001 0.10156,-0.002 0.124,-0.002 a 9.95668,9.95668 0 0 1 2.26563,0.31153 c 0.18164,0.041 0.36426,0.084 0.5459,0.11523 a 3.444,3.444 0 0 1 0.5332,0.13672 c 3.84277,1.31641 6.30273,4.20606 7.31055,8.58984 a 3.5212,3.5212 0 0 1 0.0801,0.53516 c 0.45312,6.341796 -5.09473,11.829096 -10.16895,12.318356 -1.47949,0.14258 -2.92578,0.17285 -4.3252,0.20215 l -0.75,0.0166 c -1.24511,0.0293 -2.49023,0.0684 -3.73535,0.10645 -2.58694,0.0801 -5.26077,0.16216 -7.91702,0.16216 z"
     fill="#ff004f"
     id="path41" />
  <path
     d="m 43.821768,35.459064 a 23.66,23.66 0 0 1 12.36309,3.41376 c 5.30463,3.18035 5.932,9.96057 3.47663,14.36163 a 7.85134,7.85134 0 0 1 -6.89106,3.79669 8.53843,8.53843 0 0 1 -1.3103,-0.101 7.27836,7.27836 0 0 1 -6.16211,-5.81867 c -0.0301,-0.12872 -0.0782,-0.25323 -0.14056,-0.4519 a 4.4202,4.4202 0 0 0 -2.01874,-0.48816 5.18683,5.18683 0 0 0 -1.63995,0.28015 22.08056,22.08056 0 0 0 -8.72077,5.76642 38.419,38.419 0 0 0 -10.48723,18.67223 15.53085,15.53085 0 0 0 0.0521,7.75568 10.19681,10.19681 0 0 0 8.74164,7.9209 44.83867,44.83867 0 0 0 7.3551,0.53631 c 2.263,0 4.52942,-0.1112 6.79547,-0.22131 2.70649,-0.13147 5.41455,-0.25238 8.1233,-0.30255 l 0.0596,-5.5e-4 a 13.30159,13.30159 0 0 1 2.21045,0.3739 c 2.91125,0.99713 4.37365,3.19671 5.03247,6.06323 0.31738,4.431146 -3.87586,8.282896 -7.01331,8.585136 -1.5993,0.15406 -3.21387,0.16584 -4.82239,0.20392 -3.85345,0.0912 -7.70813,0.267 -11.56048,0.267 q -0.959,0 -1.9184,-0.0157 a 35.06876,35.06876 0 0 1 -14.48205,-2.882 23.33339,23.33339 0 0 1 -11.5921103,-12.160156 29.00378,29.00378 0 0 1 -2.208,-10.33307 c -0.51642,-8.627 2.17767,-16.19208 6.9119203,-23.2381 3.48779,-5.191 7.10718,-10.25573 11.7807,-14.46441 3.75879,-3.38489 7.90375,-6.111 12.98859,-7.04346 a 28.12413,28.12413 0 0 1 5.07642,-0.47589 m 1.8e-4,-7 v 0 a 35.25745,35.25745 0 0 0 -6.3393,0.59076 c -5.75628,1.05548 -10.97076,3.82855 -16.41015,8.72693 -5.41156,4.87329 -9.4997,10.69134 -12.9067403,15.7622 -6.01715,8.95545 -8.66321004,17.97046 -8.08911004,27.56024 a 36.01308,36.01308 0 0 0 2.80585004,12.7735 30.28655,30.28655 0 0 0 15.0174503,15.642826 c 4.91443,2.29724 10.42029,3.422 17.32721,3.53955 q 1.01834,0.0174 2.03754,0.0168 c 2.70886,0 5.40936,-0.0831 8.02093,-0.16357 1.23511,-0.038 2.47022,-0.0761 3.7052,-0.10535 l 0.7367,-0.0162 c 1.46539,-0.031 2.98071,-0.0629 4.59118,-0.218 6.78571,-0.65369 13.9256,-7.65778 13.32428,-16.052996 a 7.0054,7.0054 0 0 0 -0.16,-1.06781 c -1.61536,-7.02832 -6.10474,-9.92511 -9.58643,-11.11762 a 7.00062,7.00062 0 0 0 -1.06683,-0.2738 c -0.12579,-0.02191 -0.2511,-0.0531 -0.377,-0.08148 a 13.31105,13.31105 0 0 0 -3.03479,-0.3963 l -0.18927,0.0018 c -2.92261,0.05407 -5.83393,0.18817 -8.33332,0.30957 l -0.069,0.0033 c -2.21991,0.10785 -4.31665,0.20972 -6.38684,0.20972 a 37.54052,37.54052 0 0 1 -6.21081,-0.44214 c -1.87427,-0.31054 -2.60913,-0.98883 -3.14527,-2.903 a 8.57217,8.57217 0 0 1 0.0336,-4.31769 31.29865,31.29865 0 0 1 8.64856,-15.31067 19.34164,19.34164 0 0 1 3.33423,-2.77649 14.24654,14.24654 0 0 0 9.28597,5.49409 15.59034,15.59034 0 0 0 2.38458,0.1839 14.78643,14.78643 0 0 0 13.00409,-7.38635 c 4.05817,-7.27405 2.92188,-18.4325 -5.99023,-23.77564 a 30.62634,30.62634 0 0 0 -15.96238,-4.41011 z"
     fill="#ffffff"
     id="path43" />
  <path
     d="m 120.43867,109.33577 a 16.70909,16.70909 0 0 1 -2.12207,-0.13477 9.47711,9.47711 0 0 1 -8.6084,-8.457 c -0.53223,-4.331046 -1.00488,-8.729486 -1.46191,-12.984366 q -0.28711,-2.67187 -0.57911,-5.34278 c -0.006,-0.05566 -0.0107,-0.1123 -0.0137,-0.16894 l -0.22462,-3.6836 q -0.22557,-3.71923 -0.458,-7.4375 c -0.0986,-1.55273 -0.207,-3.10644 -0.31445,-4.66015 l -0.15527,-2.23633 a 3.44587,3.44587 0 0 1 10e-4,-0.48145 16.92357,16.92357 0 0 0 -0.82617,-6.5625 c -0.43457,-1.30566 -0.89843,-2.59961 -1.3623,-3.89453 -0.42578,-1.19043 -0.85156,-2.38086 -1.25684,-3.57812 a 12.27521,12.27521 0 0 1 2.5791,-12.71094 10.43447,10.43447 0 0 1 12.43946,-2.42578 c 3.76758,1.86914 6.46484,5.04883 8.248,9.72168 a 31.48054,31.48054 0 0 1 2.00293,10.04785 c 0.0947,2.46387 0.14844,4.92969 0.20313,7.39648 0.0605,2.78321 0.123,5.66211 0.248,8.47071 0.16113,3.65039 0.417,7.3789 0.665,10.98535 l 0.0615,0.90527 q 0.35156,-0.12012 0.69433,-0.24707 a 30.70446,30.70446 0 0 1 10.9961,-2.27441 q 0.5332,0 1.07226,0.02539 c 0.38575,0.01758 0.77051,0.05078 1.15528,0.084 l 0.45507,0.03906 a 3.46528,3.46528 0 0 1 0.71875,0.13282 14.9579,14.9579 0 0 1 6.69043,3.48437 12.75884,12.75884 0 0 1 2.52154,14.36519 l -0.12793,0.33984 a 3.49641,3.49641 0 0 1 -0.583,0.97363 c -2.69726,3.192386 -6.30566,3.835936 -9.20605,4.353516 l -0.51368,0.0918 c -1.16113,0.21093 -2.30175,0.34765 -3.40527,0.47949 a 21.51854,21.51854 0 0 0 -5.94629,1.26074 l -0.77539,0.33691 c -1.99316,0.86719 -4.05566,1.7627 -6.17578,2.54 a 19.309,19.309 0 0 1 -6.63574,1.2461 z"
     fill="#aae000"
     id="path45" />
  <path
     d="m 113.45625,36.992754 a 6.88359,6.88359 0 0 1 3.06384,0.719 c 3.31634,1.64527 5.2503,4.47229 6.53265,7.83423 a 27.91471,27.91471 0 0 1 1.777,8.93347 c 0.20227,5.29444 0.21594,10.59662 0.45075,15.88923 0.23022,5.18939 0.63629,10.371 0.97125,15.55566 a 5.88376,5.88376 0 0 0 0.18725,0.78082 c 1.69483,-0.528 3.369,-0.9674 4.98255,-1.56915 a 27.89284,27.89284 0 0 1 9.77295,-2.053 q 0.45245,0 0.90918,0.02112 c 0.50091,0.02338 1.00049,0.07715 1.50067,0.11688 a 11.78906,11.78906 0 0 1 5.22552,2.6214 9.181,9.181 0 0 1 1.81556,10.37036 c -0.0853,0.17969 -0.14832,0.36994 -0.22168,0.5553 -2.00782,2.37616 -4.88056,2.75384 -7.67121,3.260916 -3.38141,0.61445 -6.88525,0.57142 -10.11871,1.973 -2.23914,0.97058 -4.47412,1.963 -6.7638,2.80163 a 15.7521,15.7521 0 0 1 -5.43243,1.03247 13.14889,13.14889 0 0 1 -1.67432,-0.1065 5.97723,5.97723 0 0 1 -5.5819,-5.411 c -0.74622,-6.086366 -1.364,-12.188416 -2.035,-18.284366 -0.22693,-3.70978 -0.44787,-7.41955 -0.6828,-11.12842 -0.146,-2.30529 -0.31305,-4.60925 -0.47058,-6.91345 a 20.338,20.338 0 0 0 -0.99634,-7.91375 c -0.83612,-2.50849 -1.777,-4.98194 -2.62433,-7.48682 a 8.81917,8.81917 0 0 1 1.87482,-9.25891 6.98231,6.98231 0 0 1 5.209,-2.34009 m 5.5e-4,-7 h 8e-5 a 13.99881,13.99881 0 0 0 -10.43206,4.67908 15.79858,15.79858 0 0 0 -3.283212,16.163 c 0.419562,1.24017 0.857732,2.46405 1.281442,3.64764 0.47094,1.31537 0.91577,2.55787 1.333,3.80964 a 13.25383,13.25383 0 0 1 0.65424,5.212 6.9948,6.9948 0 0 0 -7.9e-4,0.96576 l 0.14941,2.15826 c 0.10956,1.57306 0.21918,3.14631 0.31891,4.72016 q 0.24656,3.8929 0.47937,7.78674 l 0.20245,3.3266 q 0.0104,0.16965 0.029,0.33856 0.29388,2.67042 0.57873,5.3418 c 0.45831,4.26428 0.93231,8.67371 1.46619,13.028496 a 13.0048,13.0048 0 0 0 11.63928,11.50226 20.23263,20.23263 0 0 0 2.56494,0.16333 22.80032,22.80032 0 0 0 7.84,-1.45947 c 2.21411,-0.81091 4.32013,-1.72644 6.35687,-2.61182 l 0.78326,-0.34021 a 18.94308,18.94308 0 0 1 4.96924,-0.99713 c 1.1554,-0.13812 2.35016,-0.28094 3.617,-0.51111 l 0.50415,-0.0906 c 3.08624,-0.55078 7.75018,-1.38312 11.26239,-5.53974 a 6.99908,6.99908 0 0 0 1.1618,-1.941456 c 0.0373,-0.09424 0.0734,-0.18915 0.109,-0.28418 a 16.09522,16.09522 0 0 0 -3.29987,-18.20551 18.25784,18.25784 0 0 0 -8.15618,-4.34766 7.00085,7.00085 0 0 0 -1.42658,-0.26416 l -0.41217,-0.03527 c -0.43854,-0.03876 -0.87732,-0.07544 -1.31665,-0.096 q -0.62035,-0.029 -1.23541,-0.02875 a 31.36938,31.36938 0 0 0 -8.50525,1.26465 c -0.16016,-2.43 -0.30884,-4.88178 -0.41559,-7.28919 -0.12323,-2.77758 -0.18573,-5.64459 -0.24615,-8.41717 -0.0529,-2.426 -0.10755,-4.93469 -0.20289,-7.42908 a 34.99113,34.99113 0 0 0 -2.23156,-11.161 c -2.11084,-5.534 -5.36945,-9.33172 -9.962,-11.61011 a 13.96856,13.96856 0 0 0 -6.17425,-1.44836 z"
     fill="#ffffff"
     id="path47" />
  <path
     d="m 26.777538,36.772294 c -7.20411,0 -13.39258,-4.56055 -14.7129,-10.84277 -1.31738,-6.26172 0.24024,-11.85547 4.50489,-16.1738304 a 21.99526,21.99526 0 0 1 15.39648,-6.25488 19.45,19.45 0 0 1 7.38867,1.40039 3.495,3.495 0 0 1 1.65723,1.40332 l 0.0107,-0.02442 a 3.49952,3.49952 0 0 1 3.20216,-2.08691 h 6.43262 a 3.5,3.5 0 0 1 3.45215,2.92383 l 1.05566,6.3251904 2.22461,-6.8350004 a 3.49965,3.49965 0 0 1 3.32813,-2.417 h 5.15234 a 3.50069,3.50069 0 0 1 3.44241,2.86623 l 0.44238,2.40527 1.33887,-3.1416 a 3.49977,3.49977 0 0 1 3.21973,-2.12793 h 6.2539 a 3.50041,3.50041 0 0 1 3.49707,3.34766 l 1.09668,25.2529304 a 3.49962,3.49962 0 0 1 -3.49707,3.65234 h -5.20214 a 3.49935,3.49935 0 0 1 -3.4961,-3.34277 l -0.0195,-0.41992 -0.7207,1.668 a 3.50131,3.50131 0 0 1 -3.21289,2.11035 h -3.49121 a 3.50021,3.50021 0 0 1 -3.42871,-2.79688 l -0.2002,-0.97558 -0.42578,1.33691 a 3.50057,3.50057 0 0 1 -3.335,2.43652 h -8.86133 a 3.50018,3.50018 0 0 1 -3.44531,-2.88281 l -0.82325,-4.60156 h -0.83593 l -2.46289,5.43652 a 3.50135,3.50135 0 0 1 -3.18848,2.05664 h -5.37006 a 3.506,3.506 0 0 1 -1.61718,-0.39551 16.194,16.194 0 0 1 -3.873,0.67481 c -0.29395,0.01562 -0.585,0.02246 -0.876,0.02246 z m 9.17578,-19.71191 c 0.10254,0 0.2041,0.0049 0.30566,0.01367 l 0.209,-0.47461 a 3.41875,3.41875 0 0 1 -0.42188,-0.125 10.80064,10.80064 0 0 0 -3.708,-0.68262 11.1768,11.1768 0 0 0 -4.30566,0.91113 q -0.41455,0.17286 -0.77442,0.35743 z"
     fill="#3b3e8a"
     id="path49" />
  <path
     d="m 31.965398,7.0004436 a 16.08217,16.08217 0 0 1 6.0669,1.141 c -0.25708,1.6529 -0.51752,3.3277604 -0.78473,5.0459004 a 14.218,14.218 0 0 0 -4.90985,-0.89563 14.59347,14.59347 0 0 0 -5.653,1.18054 c -3.12341,1.3028 -5.45477,3.474 -6.19629,6.892 a 6.24035,6.24035 0 0 0 1.98841,6.49042 5.96926,5.96926 0 0 0 3.94393,1.41237 9.56921,9.56921 0 0 0 2.704,-0.43225 c 0.15369,-0.87457 0.29157,-1.65936 0.44568,-2.53656 h -4.00549 c 0.24823,-1.63257 0.481,-3.16351 0.72034,-4.738 h 9.6679 c -0.42559,2.68091 -0.84515,5.32386 -1.26477,7.9668 l 0.29444,0.106 q 4.614,-10.45395 9.24206,-20.9397004 h 6.4328 q 1.67625,10.0422504 3.35334,20.0897204 l 0.15405,0.04285 q 3.2721,-10.054 6.5531,-20.1353804 h 5.15173 q 1.23542,6.7088104 2.47693,13.4502604 l 0.214,0.05274 q 2.87138,-6.73957 5.75232,-13.5017104 h 6.25464 c 0.36493,8.4078904 0.72925,16.8020604 1.09613,25.2537804 h -5.20166 q -0.33866,-7.53487 -0.679,-15.10828 l -0.20123,-0.06292 q -3.27741,7.57626 -6.56952,15.18615 h -3.49072 q -1.41183,-6.88256 -2.82819,-13.78741 l -0.17041,0.0155 q -2.19085,6.87222 -4.3908,13.77265 h -8.86133 q -0.66513,-3.71321 -1.34064,-7.48407 h -6.02087 q -1.70283,3.75823 -3.39519,7.49323 h -5.36987 c 0.18091,-0.49933 0.34448,-0.95087 0.57324,-1.58221 a 14.88547,14.88547 0 0 1 -6.2406,1.86645 q -0.35138,0.01785 -0.69952,0.01776 c -5.46985,0 -10.28,-3.26794 -11.28827,-8.06244 -1.024,-4.8695 -0.0403,-9.3388 3.57031,-12.995 a 18.4398,18.4398 0 0 1 12.9057,-5.2145604 m 12.067,13.4697304 h 3.1095 c -0.30182,-1.55506 -0.59424,-3.06195 -0.94428,-4.86518 -0.79266,1.78107 -1.46612,3.29431 -2.16522,4.86518 M 31.965398,4.4355588e-4 A 25.564,25.564 0 0 0 14.079048,7.2963436 C 8.9498377,12.490194 7.0687977,19.182814 8.6392277,26.650594 c 1.6597903,7.893 9.2881503,13.62182 18.1384303,13.62182 q 0.525,0 1.05462,-0.02679 a 19.46891,19.46891 0 0 0 3.52442,-0.50726 6.9952,6.9952 0 0 0 1.78784,0.23205 h 5.36987 a 7.00007,7.00007 0 0 0 5.38208,-2.52374 6.996,6.996 0 0 0 5.37464,2.51465 h 8.86133 a 6.98758,6.98758 0 0 0 3.69512,-1.05469 6.9826,6.9826 0 0 0 3.69428,1.054 h 3.49072 a 6.99366,6.99366 0 0 0 3.73609,-1.08038 6.971,6.971 0 0 0 3.71362,1.06543 h 5.20166 a 7,7 0 0 0 6.99341,-7.30359 l -1.01282,-23.3339104 -0.0833,-1.91986 a 7,7 0 0 0 -6.99341,-6.69647004 h -6.25464 a 6.99551,6.99551 0 0 0 -4.22077,1.41559004 6.98475,6.98475 0 0 0 -4.22248,-1.41688004 h -5.15173 a 6.99717,6.99717 0 0 0 -5.03168,2.13324004 6.99117,6.99117 0 0 0 -5.02876,-2.13043004 h -6.4328 A 6.99262,6.99262 0 0 0 40.675838,1.6598036 22.943,22.943 0 0 0 31.965398,4.4355588e-4 Z"
     fill="#ffffff"
     id="path51" />
  <path
     d="m 115.35468,36.484204 q -1.91894,-0.01756 -3.835,-0.01562 l -7.085,0.0088 a 3.49931,3.49931 0 0 1 -3.456,-4.05176 l 4.01663,-25.1601804 a 3.50051,3.50051 0 0 1 3.45605,-2.94824 l 6.59766,0.002 2.44043,-0.00391 a 10.31556,10.31556 0 0 1 9.27344,5.49707 c 1.26562,2.2285204 2.16113,5.7880904 -0.66114,10.1650004 a 9.38053,9.38053 0 0 1 0.0391,10.38476 12.21138,12.21138 0 0 1 -10.66016,6.12207 z"
     fill="#3b3e8a"
     id="path53" />
  <path
     d="m 117.53596,7.8155636 a 6.7694,6.7694 0 0 1 6.18384,3.7254104 c 1.32721,2.33758 0.7445,4.59192 -0.66547,6.70208 -0.408,0.6106 -0.89209,1.17023 -1.37567,1.7978 0.31824,0.36682 0.67877,0.75091 1.00427,1.16272 a 5.98273,5.98273 0 0 1 0.49909,7.28857 8.72393,8.72393 0 0 1 -7.69971,4.49225 l -0.0959,-4.3e-4 q -1.91547,-0.01731 -3.83111,-0.01508 c -2.00824,0 -4.01654,0.0087 -6.02472,0.0087 h -1.09589 c 1.34393,-8.41913 2.67181,-16.7373 4.01648,-25.1605804 h 2.91754 q 1.89742,9e-5 3.79474,0.00238 1.17,0 2.34,-0.00378 l 0.0325,-7e-5 m -3.61133,10.0606704 c 0.498,0 0.98822,-4.2e-4 1.47827,-0.002 l 0.0263,-6e-5 c 0.0834,0 0.1673,0.0012 0.2511,0.0012 a 2.94259,2.94259 0 0 0 0.52246,-0.03583 2.88218,2.88218 0 0 0 2.32538,-1.68469 1.92723,1.92723 0 0 0 -1.38916,-2.85547 14.56662,14.56662 0 0 0 -1.62189,-0.07819 c -0.851,0 -1.71643,0.04431 -2.601,0.04431 -0.25568,1.50379 -0.51136,3.00745 -0.78388,4.61017 0.61676,0 1.21,6.1e-4 1.79242,6.1e-4 m -0.53064,10.17878 c 0.78149,0 1.55444,-0.0052 2.32684,-0.02411 a 3.58927,3.58927 0 0 0 1.34534,-0.35883 2.4258,2.4258 0 0 0 1.55634,-2.64081 2.36082,2.36082 0 0 0 -2.37818,-1.91766 c -0.6347,-0.02673 -1.26989,-0.03479 -1.91247,-0.03479 -0.97791,0 -1.97248,0.01868 -3.00562,0.01868 -0.2605,1.61511 -0.52441,3.25146 -0.79834,4.95007 0.97791,0 1.92816,0.0075 2.86609,0.0075 m 4.142,-27.23945044 -0.0583,1.3e-4 q -1.15733,0.0043 -2.31421,0.00372 l -1.907,-0.00116 -1.88763,-0.00123 h -2.91772 A 7,7 0 0 0 101.53864,6.7136336 L 97.522158,31.874224 a 7,7 0 0 0 6.912482,8.10345 h 1.09589 q 1.51373,0 3.02752,-0.0044 1.49863,-0.0032 2.9972,-0.0043 1.88406,0 3.76794,0.01478 l 0.15906,7.3e-4 a 15.7536,15.7536 0 0 0 13.61664,-7.75189 12.8582,12.8582 0 0 0 0.98541,-12.204 12.47939,12.47939 0 0 0 -0.27722,-11.9437304 13.66994,13.66994 0 0 0 -12.27112,-7.26921004 z"
     fill="#ffffff"
     id="path55" />
  <path
     d="m 134.91132,36.971514 c -5.51367,0 -10.34179,-3.61816 -12.30175,-9.21777 a 23.7635,23.7635 0 0 1 -0.91016,-3.80469 c -0.0527,-0.30274 -0.0986,-0.57324 -0.14746,-0.7959 a 3.5299,3.5299 0 0 1 -0.0762,-0.88867 c 0.29785,-7.08692 2.63965,-11.98438 7.37011,-15.4150004 a 13.58346,13.58346 0 0 1 7.97266,-2.70313 13.03568,13.03568 0 0 1 11.41992,7.1796904 c 4.05469,7.46485 1.65137,17.9668 -5.248,22.9336 a 13.81611,13.81611 0 0 1 -8.07911,2.71191 z m 2.001,-20.85547 a 1.531,1.531 0 0 0 -0.80957,0.37988 6.28375,6.28375 0 0 0 -2.19238,4.11426 5.33591,5.33591 0 0 0 0.48437,4.00293 c 0.17481,0.27832 0.34082,0.4082 0.39844,0.4082 a 1.03414,1.03414 0 0 0 0.48242,-0.18554 3.77724,3.77724 0 0 0 0.82617,-0.6875 8.19542,8.19542 0 0 0 1.97461,-4.835 c -0.0469,-0.22071 -0.0908,-0.44239 -0.13476,-0.665 a 11.2,11.2 0 0 0 -0.45508,-1.81446 c -0.13869,-0.3457 -0.37697,-0.71777 -0.57424,-0.71777 z"
     fill="#3b3e8a"
     id="path57" />
  <path
     d="m 136.81904,7.6465636 a 9.52031,9.52031 0 0 1 8.34393,5.3507704 c 3.22583,5.93762 1.27265,14.46911 -4.21747,18.42157 a 10.32043,10.32043 0 0 1 -6.03418,2.0531 c -3.88165,0 -7.4555,-2.46619 -8.99816,-6.875 a 30.74008,30.74008 0 0 1 -0.94056,-4.18567 c 0.2359,-5.60077 1.88233,-9.79425 5.92768,-12.7276004 a 10.07339,10.07339 0 0 1 5.91876,-2.03717 m -2.02661,20.8743304 a 4.44077,4.44077 0 0 0 2.28583,-0.68543 7.268,7.268 0 0 0 1.616,-1.33612 12.05183,12.05183 0 0 0 2.9198,-7.3974 25.24514,25.24514 0 0 0 -0.87866,-3.57031 4.16345,4.16345 0 0 0 -3.82363,-2.91547 4.85081,4.85081 0 0 0 -2.95691,1.11579 9.738,9.738 0 0 0 -3.48791,6.25177 8.782,8.782 0 0 0 0.96472,6.49243 3.96036,3.96036 0 0 0 3.36072,2.04474 m 2.02659,-27.87433044 a 17.05081,17.05081 0 0 0 -10.028,3.37024004 c -5.5874,4.05151 -8.46984,9.9720004 -8.81219,18.1000004 a 6.99936,6.99936 0 0 0 0.15356,1.78156 c 0.0399,0.18353 0.0764,0.40722 0.12018,0.65722 a 27.05051,27.05051 0 0 0 1.05335,4.35334 c 2.45782,7.02429 8.58331,11.56311 15.6054,11.56311 a 17.292,17.292 0 0 0 10.12409,-3.37219 21.88132,21.88132 0 0 0 6.27844,-27.4441604 16.482,16.482 0 0 0 -14.49483,-9.00912004 z"
     fill="#ffffff"
     id="path59" />
  <path
     d="m 82.084178,36.428544 a 3.49953,3.49953 0 0 1 -3.45606,-4.05273 l 4.03125,-25.2236404 a 3.50052,3.50052 0 0 1 3.45606,-2.94824 h 14.403342 a 3.49953,3.49953 0 0 1 3.456,4.05274 l -0.8623,5.3925704 a 3.49818,3.49818 0 0 1 -2.0107,2.63477 3.507,3.507 0 0 1 0.22071,1.88672 l -0.86817,5.43945 a 3.48428,3.48428 0 0 1 -0.565432,1.4209 c 0.0811,0.07812 0.159182,0.16113 0.232432,0.24707 a 3.49976,3.49976 0 0 1 0.79589,2.82031 l -0.85156,5.37793 a 3.50016,3.50016 0 0 1 -3.457002,2.95215 z"
     fill="#3b3e8a"
     id="path61" />
  <path
     d="m 100.51917,7.7043636 c -0.28814,1.80115 -0.570612,3.5668904 -0.862552,5.3922104 h -9.07135 c -0.22924,1.50317 -0.44964,2.94861 -0.68957,4.522 h 7.97028 c -0.29761,1.86585 -0.57514,3.606 -0.86756,5.43915 h -7.88865 c -0.24774,1.52673 -0.48163,2.96808 -0.72931,4.494 h 9.07931 c -0.28894,1.82617 -0.56421,3.56586 -0.85071,5.37665 h -14.52464 c 1.34369,-8.40772 2.6839,-16.79358 4.03125,-25.2240004 H 100.51917 M 97.459768,27.551714 h 0.005 M 100.51917,0.70436356 H 86.115668 a 7,7 0 0 0 -6.91229,5.89526004 l -0.1756,1.09876 -3.85565,24.1253004 a 7,7 0 0 0 6.91229,8.10468 h 14.52466 a 7,7 0 0 0 6.914002,-5.90607 l 0.682,-4.31061 0.13342,-0.84308 a 7.03626,7.03626 0 0 0 -0.51678,-4.24725 q 0.0519,-0.22741 0.0893,-0.461 l 0.56811,-3.56183 0.29944,-1.87744 a 6.995,6.995 0 0 0 0.0857,-0.94653 6.97853,6.97853 0 0 0 1.70451,-3.57251 l 0.86248,-5.3919104 a 7,7 0 0 0 -6.91209,-8.10577004 z"
     fill="#ffffff"
     id="path63" />
  <path
     d="m 148.05389,36.455884 a 3.50021,3.50021 0 0 1 -3.457,-4.04882 l 0.45313,-2.82129 c 0.43164,-2.66895 0.83886,-5.18946 1.20019,-7.76367 a 1.06766,1.06766 0 0 0 -0.0342,-0.40918 c -1.19531,-2.72559 -2.4707,-5.498 -3.7041,-8.17872 l -1.415,-3.082 c -0.1123,-0.2460904 -0.21777,-0.5058604 -0.333,-0.7998004 l -0.12988,-0.3252 a 3.50038,3.50038 0 0 1 3.24219,-4.81836 h 5.90332 a 3.502,3.502 0 0 1 3.25872,2.2216 l 0.68066,1.73731 1.4541,-2.332 a 3.50126,3.50126 0 0 1 2.96975,-1.64744 h 6.01953 a 3.50005,3.50005 0 0 1 3.02149,5.2666 l -0.19336,0.33594 c -0.15918,0.2773404 -0.30274,0.5244104 -0.45606,0.7666004 -0.65918,1.03906 -1.30957,2.085 -1.96,3.12988 -1.58691,2.55078 -3.22754,5.1875 -4.99316,7.73047 a 11.08425,11.08425 0 0 0 -1.86524,5.36328 c -0.17871,1.59668 -0.43262,3.17187 -0.67773,4.69531 -0.10742,0.666 -0.21485,1.333 -0.31543,2.00293 a 3.50021,3.50021 0 0 1 -3.46094,2.97656 z"
     fill="#3b3e8a"
     id="path65" />
  <path
     d="m 164.16267,7.6878836 c -0.22547,0.3858 -0.39459,0.69714 -0.584,0.99573 -2.27624,3.5893504 -4.45105,7.2493304 -6.87256,10.7380004 a 14.6306,14.6306 0 0 0 -2.46881,6.96955 c -0.24517,2.192 -0.64294,4.367 -0.97552,6.56469 h -5.20813 c 0.56927,-3.58252 1.16626,-7.10833 1.66217,-10.64837 a 4.44652,4.44652 0 0 0 -0.29065,-2.29212 c -1.66541,-3.79443 -3.42255,-7.54858 -5.1452,-11.3179304 -0.13513,-0.29559 -0.24634,-0.60211 -0.40332,-0.98895 h 5.90312 c 1.04285,2.6597304 2.09162,5.3346504 3.223,8.2202104 1.76184,-2.82458 3.44879,-5.52905 5.14032,-8.2408404 h 6.01959 m 0,-7.00000004 h -6.01959 a 6.99891,6.99891 0 0 0 -4.19556,1.39661004 6.99352,6.99352 0 0 0 -4.16776,-1.37595004 h -5.90307 a 7,7 0 0 0 -6.48627,9.63214044 l 0.11719,0.29486 c 0.1391,0.35339 0.26605,0.666 0.40613,0.97241 q 0.70925,1.55191 1.42443,3.10315 c 1.11011,2.41309 2.2544,4.90058 3.34156,7.35614 -0.32953,2.28833 -0.69709,4.56275 -1.08405,6.95728 q -0.22815,1.41183 -0.45526,2.83282 a 7,7 0 0 0 6.91327,8.09857 h 5.20807 a 7,7 0 0 0 6.9212,-5.95257 c 0.0989,-0.65326 0.20374,-1.30444 0.30841,-1.95465 0.25269,-1.5697 0.51392,-3.19287 0.70252,-4.8794 a 7.69117,7.69117 0 0 1 1.26269,-3.75616 c 1.81555,-2.6156 3.481,-5.29163 5.09156,-7.87958 0.64453,-1.03564 1.289,-2.07129 1.942,-3.10107 0.18054,-0.28455 0.35077,-0.57672 0.53858,-0.90467 l 0.17767,-0.30816 A 7,7 0 0 0 164.16267,0.68788356 Z m 0,14.00000044 z"
     fill="#ffffff"
     id="path67" />
  <path
     d="m 199.10561,61.926554 c -0.59715,-2.40238 -1.30181,-4.78416 -1.7669,-7.21184 a 10.40244,10.40244 0 0 1 3.27279,-9.94688 24.45768,24.45768 0 0 1 15.83916,-6.7158 c 9.96027,-0.72811 18.673,2.48246 26.51883,8.36414 3.66335,2.74625 4.51723,6.56037 3.61243,10.87453 -1.31481,6.269 -5.25483,10.66045 -10.3414,14.16285 -2.176,1.49829 -4.48488,2.80347 -6.73352,4.19621 -0.19079,0.1182 -0.38245,0.235 -0.68621,0.42161 1.96472,1.60135 3.849,3.1436 5.74019,4.67734 q 7.50141,6.08349 15.00651,12.1625 a 6.205,6.205 0 0 1 1.85065,7.361106 10.1732,10.1732 0 0 1 -5.514,5.97515 c -2.40426,1.071 -4.86338,1.1328 -7.08859,-0.69139 -4.32967,-3.54942 -8.68852,-7.063226 -13.02768,-10.601146 q -4.63922,-3.78257 -9.26015,-7.58746 c -0.12432,-0.10182 -0.26559,-0.18292 -0.561,-0.38395 0,0.45474 0.0115,0.76808 -0.002,1.08036 -0.16214,3.81452 -0.078,7.66052 -0.55607,11.43525 -0.59454,4.694336 -4.58733,7.069736 -9.16173,5.848936 -5.15659,-1.37616 -7.868,-5.383636 -7.18393,-10.851266 a 31.69711,31.69711 0 0 1 1.19922,-4.63857 18.07477,18.07477 0 0 0 0.5255,-7.31419 q -0.0299,-1.93521 -0.0598,-3.87041 c -0.16035,-3.20372 -0.27375,-6.41082 -0.50375,-9.60954 a 37.81,37.81 0 0 0 -0.67207,-3.88861 z m 32.0159,-4.40573 a 3.12691,3.12691 0 0 0 -2.22128,-1.94416 26.137,26.137 0 0 0 -8.20973,-1.193 c -1.79839,-0.05677 -3.60006,-0.01068 -5.52474,-0.01068 0.2532,3.47229 0.49932,6.84759 0.74522,10.22016 3.35852,-0.17883 10.72066,-2.83883 13.17063,-4.82611 a 18.74137,18.74137 0 0 0 2.0399,-2.24621 z"
     fill="#00b3dd"
     id="path69" />
  <path
     d="m 111.14636,82.033854 a 28.68359,28.68359 0 0 1 -4.55641,9.07961 32.0892,32.0892 0 0 1 -18.847622,11.745706 32.70784,32.70784 0 0 1 -19.14092,-1.22429 30.81362,30.81362 0 0 1 -7.94056,-4.619066 c -0.65884,-2.86649 -2.12123,-5.0661 -5.03247,-6.06322 -3.72116,-6.79064 -2.73219,-13.654 -0.244,-20.50329 a 35.19821,35.19821 0 0 1 20.50648,-21.51414 c 9.07667,-3.69165 17.49012,-1.85414 25.229002,3.73311 a 25.89819,25.89819 0 0 1 8.87324,11.324 c 0.15752,2.30421 0.32457,4.60817 0.47056,6.91346 0.23487,3.70894 0.45585,7.41871 0.6827,11.12812 z m -14.879332,-5.337 c -0.21253,-1.45559 -0.33624,-2.931 -0.65613,-4.36262 -0.66165,-2.96113 -1.6019,-5.8217 -3.74474,-8.10526 a 5.75749,5.75749 0 0 0 -4.03279,-2.22655 c -6.45146,-0.06951 -11.83948,2.29913 -15.54226,7.65985 -2.99962,4.34271 -3.567,9.04614 -0.72022,13.792 2.75486,4.59266 8.7493,6.9127 14.39612,5.65689 4.84524,-1.07761 10.58964,-5.88445 10.30002,-12.41435 z"
     fill="#7942ba"
     id="path71" />
  <path
     d="m 200.72815,78.673634 q 0.0299,1.93521 0.0598,3.87041 c -5.84175,11.82757 -15.71055,18.029076 -28.37717,20.348746 a 26.66438,26.66438 0 0 1 -13.10269,-0.6152 24.27284,24.27284 0 0 1 -8.88431,-5.509506 c 0.0734,-0.18534 0.13639,-0.37561 0.22169,-0.5553 a 9.181,9.181 0 0 0 -1.81557,-10.37034 11.7889,11.7889 0 0 0 -5.22554,-2.62139 c -2.7421,-13.76082 6.0706,-31.0696 24.41336,-34.213 10.5384,-1.806 19.96354,0.8559 27.63409,8.60968 a 50.82079,50.82079 0 0 1 3.45378,4.30817 q 0.22339,1.62549 0.44675,3.24961 c -0.0595,0.073 -0.17635,0.15111 -0.1703,0.21818 0.27161,3.01855 0.54208,6.03732 0.84037,9.05332 0.13963,1.41172 0.33541,2.81791 0.50574,4.22662 z m -27.433,-15.35412 a 15.176,15.176 0 0 0 -12.39452,5.4029 11.525,11.525 0 0 0 1.168,15.86756 13.40153,13.40153 0 0 0 13.62129,2.68584 c 5.3096,-1.68027 9.30234,-4.86533 10.84891,-10.4624 0.68659,-2.48475 1.01767,-5.06169 -0.35715,-7.4295 a 11.1944,11.1944 0 0 0 -8.61437,-5.74771 c -1.42682,-0.18303 -2.87269,-0.21729 -4.27216,-0.31669 z"
     fill="#f9e52d"
     id="path73" />
  <path
     d="m 55.628378,90.952594 c 2.91124,0.99712 4.37363,3.19673 5.03247,6.06322 0.31737,4.431206 -3.87588,8.282996 -7.01334,8.585146 -1.59927,0.154 -3.21383,0.16584 -4.82237,0.20392 -4.49292,0.10636 -8.9886,0.32763 -13.4789,0.25122 a 35.06773,35.06773 0 0 1 -14.48206,-2.882 23.33354,23.33354 0 0 1 -11.5920903,-12.160136 29.00446,29.00446 0 0 1 -2.208,-10.33309 c -0.51645,-8.627 2.17769,-16.19206 6.9119103,-23.23809 3.48779,-5.191 7.10717,-10.25571 11.78071,-14.46438 3.75878,-3.3849 7.90375,-6.111 12.98859,-7.0435 a 24.40053,24.40053 0 0 1 17.43947,2.93791 c 5.30463,3.18039 5.932,9.96058 3.47666,14.36167 a 7.99549,7.99549 0 0 1 -8.20139,3.69568 7.27839,7.27839 0 0 1 -6.1621,-5.81869 c -0.0301,-0.12872 -0.0782,-0.25325 -0.14057,-0.45187 a 4.60818,4.60818 0 0 0 -3.65866,-0.20806 22.08126,22.08126 0 0 0 -8.7208,5.76643 38.41926,38.41926 0 0 0 -10.48723,18.67228 15.531,15.531 0 0 0 0.0521,7.75565 10.19689,10.19689 0 0 0 8.74165,7.92092 66.385,66.385 0 0 0 14.15054,0.315 c 2.7065,-0.13148 5.41455,-0.2524 8.12329,-0.30255 a 12.32552,12.32552 0 0 1 2.27014,0.37332 z"
     fill="#ff004f"
     id="path75" />
  <path
     d="m 143.60436,83.221044 a 11.7889,11.7889 0 0 1 5.22554,2.62139 9.181,9.181 0 0 1 1.81557,10.37035 c -0.0853,0.17969 -0.14834,0.37 -0.22169,0.5553 -2.00779,2.37619 -4.88054,2.75383 -7.67121,3.260916 -3.38142,0.61446 -6.88527,0.57146 -10.11868,1.973 -2.23919,0.97059 -4.47418,1.963 -6.7638,2.80162 a 14.93814,14.93814 0 0 1 -7.10679,0.926 5.97719,5.97719 0 0 1 -5.5819,-5.411 c -0.74623,-6.086326 -1.36393,-12.188416 -2.03494,-18.284346 -0.22695,-3.70975 -0.44793,-7.41953 -0.68282,-11.12843 -0.146,-2.30529 -0.313,-4.60925 -0.47056,-6.91346 a 20.33753,20.33753 0 0 0 -0.99638,-7.91372 c -0.83609,-2.50849 -1.77694,-4.98192 -2.62429,-7.48682 a 8.81918,8.81918 0 0 1 1.87481,-9.25894 6.94972,6.94972 0 0 1 8.27284,-1.621 c 3.31635,1.64527 5.25035,4.47228 6.5327,7.8342 a 27.91548,27.91548 0 0 1 1.777,8.93349 c 0.20233,5.29445 0.216,10.59658 0.45077,15.88919 0.23021,5.1894 0.63628,10.371 0.97127,15.55566 a 5.88262,5.88262 0 0 0 0.18724,0.78088 c 1.69482,-0.528 3.36894,-0.96746 4.98253,-1.56921 a 26.80158,26.80158 0 0 1 10.68214,-2.03189 c 0.50093,0.02333 1.00047,0.0771 1.50065,0.11682 z"
     fill="#aae000"
     id="path77" />
  <path
     d="m 35.953218,20.560274 -1.26477,7.96681 0.29441,0.106 q 4.614,-10.45395 9.24206,-20.9396604 h 6.43285 q 1.67622,10.0421704 3.35335,20.0897104 l 0.154,0.04282 q 3.27213,-10.054 6.55315,-20.1353504 h 5.15168 q 1.23546,6.7087504 2.47695,13.4502204 l 0.214,0.05279 q 2.87136,-6.73965 5.75229,-13.5017104 h 6.25467 l 1.0961,25.2537804 h -5.20165 q -0.33861,-7.53492 -0.67893,-15.1083 l -0.20123,-0.06295 q -3.27747,7.57626 -6.56952,15.18619 h -3.49075 q -1.41181,-6.88258 -2.82817,-13.7874 l -0.17041,0.01546 q -2.19092,6.87226 -4.39079,13.77265 h -8.86136 l -1.34068,-7.48409 h -6.02088 l -3.39518,7.4932 h -5.36987 l 0.57323,-1.58223 a 14.885,14.885 0 0 1 -6.2406,1.86648 c -5.75453,0.29228 -10.93674,-3.04671 -11.98779,-8.04471 -1.024,-4.86949 -0.0403,-9.33878 3.5703,-12.99494 4.78117,-4.8414804 12.82967,-6.5794804 18.97261,-4.0735304 l -0.7847,5.0459204 a 14.03432,14.03432 0 0 0 -10.56282,0.28492 c -3.1234,1.30279 -5.45475,3.474 -6.19632,6.892 a 6.24034,6.24034 0 0 0 1.98843,6.49042 c 1.97111,1.63818 4.26548,1.68569 6.64788,0.98013 l 0.44569,-2.53659 h -4.00548 l 0.72033,-4.738 z m 11.18871,-0.09009 -0.94427,-4.86519 -2.16526,4.86519 z"
     fill="#3b3e8a"
     id="path79" />
  <path
     d="m 104.43462,32.977634 c 1.344,-8.41911 2.67185,-16.73729 4.01649,-25.1605704 0.9931,0 1.95533,0 2.91756,0 2.04492,0 4.08988,0.00619 6.13478,-0.00143 a 6.77079,6.77079 0 0 1 6.21635,3.7253804 c 1.32721,2.33755 0.74451,4.59189 -0.66547,6.70208 -0.408,0.61055 -0.89211,1.1702 -1.37569,1.79777 0.31826,0.36681 0.6788,0.75092 1.00427,1.16274 a 5.98262,5.98262 0 0 1 0.49908,7.28854 8.72331,8.72331 0 0 1 -7.79565,4.49184 c -3.285,-0.02968 -6.57052,-0.0063 -9.8558,-0.0063 z m 6.09326,-4.93 c 1.79278,0 3.49368,0.025 5.19295,-0.01668 a 3.59,3.59 0 0 0 1.34534,-0.35881 2.42584,2.42584 0 0 0 1.55635,-2.64079 2.36087,2.36087 0 0 0 -2.37821,-1.91772 c -1.60051,-0.06734 -3.206,-0.01609 -4.918,-0.01609 -0.26054,1.6151 -0.52447,3.25143 -0.79843,4.95005 z m 1.60433,-10.17195 c 1.144,0 2.20734,0.002 3.27067,-0.0014 a 4.60886,4.60886 0 0 0 0.79987,-0.03471 2.88226,2.88226 0 0 0 2.32538,-1.68473 1.92721,1.92721 0 0 0 -1.38917,-2.85547 38.62062,38.62062 0 0 0 -4.22286,-0.03388 c -0.25569,1.50378 -0.51133,3.00741 -0.78389,4.61015 z"
     fill="#3b3e8a"
     id="path81" />
  <path
     d="m 124.97259,22.411324 c 0.23589,-5.60076 1.88234,-9.7942 5.92771,-12.7275904 5.10213,-3.69967 11.25513,-2.22218 14.26269,3.3136404 3.22583,5.93756 1.27261,14.46907 -4.2175,18.42155 -5.67406,4.08492 -12.69144,1.8683 -15.03233,-4.82192 a 30.74706,30.74706 0 0 1 -0.94057,-4.18568 z m 16.64141,-3.30934 a 25.24229,25.24229 0 0 0 -0.87864,-3.57033 c -1.21785,-3.03934 -4.19131,-3.81094 -6.78045,-1.79969 a 9.738,9.738 0 0 0 -3.4879,6.25176 8.78175,8.78175 0 0 0 0.96471,6.49244 3.89066,3.89066 0 0 0 5.64652,1.35933 7.2689,7.2689 0 0 0 1.616,-1.33613 12.05175,12.05175 0 0 0 2.91976,-7.39738 z"
     fill="#3b3e8a"
     id="path83" />
  <path
     d="m 82.084438,32.928384 c 1.34369,-8.4077 2.68389,-16.7936 4.03121,-25.2240004 h 14.403502 l -0.862552,5.3922504 h -9.07131 l -0.68961,4.522 h 7.97032 l -0.86757,5.43914 h -7.88859 l -0.72932,4.494 h 9.07925 l -0.85072,5.37664 z"
     fill="#3b3e8a"
     id="path85" />
  <path
     d="m 149.77977,7.7085536 3.22305,8.2201804 c 1.76184,-2.82456 3.44878,-5.529 5.1403,-8.2408304 h 6.01958 c -0.22547,0.38577 -0.3946,0.69715 -0.58395,0.99572 -2.27627,3.5893704 -4.45109,7.2493604 -6.87259,10.7380604 a 14.6304,14.6304 0 0 0 -2.4688,6.96951 c -0.24516,2.192 -0.64292,4.367 -0.97554,6.56473 h -5.20813 c 0.56927,-3.58252 1.1663,-7.10837 1.66221,-10.64838 a 4.4467,4.4467 0 0 0 -0.29065,-2.29212 c -1.66542,-3.79443 -3.42259,-7.54859 -5.14524,-11.3180004 -0.1351,-0.29561 -0.24631,-0.60213 -0.40328,-0.98892 z"
     fill="#3b3e8a"
     id="path87" />
  <metadata
     id="metadata909">
    <rdf:RDF>
      <cc:Work
         rdf:about="">
        <dc:title>logo</dc:title>
      </cc:Work>
    </rdf:RDF>
  </metadata>
</svg>
