<?xml version="1.0" encoding="UTF-8" standalone="no"?>
<svg
   viewBox="0 0 514.01001 71.970039"
   version="1.1"
   id="svg33"
   sodipodi:docname="gw.svg"
   width="514.01001"
   height="71.970039"
   inkscape:version="1.1 (c68e22c387, 2021-05-23)"
   xmlns:inkscape="http://www.inkscape.org/namespaces/inkscape"
   xmlns:sodipodi="http://sodipodi.sourceforge.net/DTD/sodipodi-0.dtd"
   xmlns="http://www.w3.org/2000/svg"
   xmlns:svg="http://www.w3.org/2000/svg"
   xmlns:rdf="http://www.w3.org/1999/02/22-rdf-syntax-ns#"
   xmlns:cc="http://creativecommons.org/ns#"
   xmlns:dc="http://purl.org/dc/elements/1.1/">
  <defs
     id="defs37" />
  <sodipodi:namedview
     id="namedview35"
     pagecolor="#ffffff"
     bordercolor="#666666"
     borderopacity="1.0"
     inkscape:pageshadow="2"
     inkscape:pageopacity="0.0"
     inkscape:pagecheckerboard="0"
     showgrid="false"
     fit-margin-top="0"
     fit-margin-left="0"
     fit-margin-right="0"
     fit-margin-bottom="0"
     inkscape:zoom="1.113"
     inkscape:cx="257.4124"
     inkscape:cy="35.938904"
     inkscape:window-width="1920"
     inkscape:window-height="1138"
     inkscape:window-x="-8"
     inkscape:window-y="-8"
     inkscape:window-maximized="1"
     inkscape:current-layer="svg33" />
  <title
     id="title2">logo</title>
  <g
     id="Layer_2"
     data-name="Layer 2"
     transform="translate(-242.99001,-20.99996)">
    <rect
       x="256.97"
       y="38.049999"
       width="44.060001"
       height="32.860001"
       fill="#ffffff"
       id="rect4" />
    <polygon
       points="451.64,77.24 509.47,77.24 509.47,74.91 540.81,74.91 540.81,49.41 496.58,49.41 496.58,60.74 451.64,60.74 "
       fill="#ffffff"
       id="polygon6" />
    <rect
       x="662.46997"
       y="36.91"
       width="62.330002"
       height="40.330002"
       fill="#ffffff"
       id="rect8" />
  </g>
  <g
     id="Layer_1"
     data-name="Layer 1"
     transform="translate(-242.99001,-20.99996)">
    <path
       d="M 463.66,29.74 V 39 h -18.89 v 13.69 h 18.87 V 62 h -18.87 v 12.57 h 18.87 v 9.25 h -18.87 -9.26 V 29.74 h 28.15 m 0,-7 h -28.15 a 7,7 0 0 0 -7,7 v 54.12 a 7,7 0 0 0 7,7 v 0 h 9.25 18.85 a 7,7 0 0 0 7,-7 v -9.29 a 7,7 0 0 0 -4,-6.31 7,7 0 0 0 4,-6.31 V 52.69 A 7,7 0 0 0 465.1,45.85 7,7 0 0 0 470.66,39 v -9.26 a 7,7 0 0 0 -7,-7 z"
       fill="#ffffff"
       id="path11" />
    <path
       d="m 278.38,29.19 v 0 a 28.38,28.38 0 0 1 26,17 h -9.84 A 19.77,19.77 0 1 0 296.33,66 h -17.49 v -9 h 27.93 v 0.62 A 28.39,28.39 0 0 1 278.38,86 v 0 a 28.39,28.39 0 0 1 0,-56.77 M 306.77,57 v 0 M 278.38,22.19 a 35.39,35.39 0 1 0 35.39,35.42 V 57 a 7,7 0 0 0 -4,-6.33 5.93,5.93 0 0 0 0.47,-0.62 7,7 0 0 0 0.55,-6.64 35.38,35.38 0 0 0 -32.37,-21.2 z M 272.5,69 a 12.78,12.78 0 0 1 -1.5,-21.83 12.66,12.66 0 0 1 7.36,-2.35 12.83,12.83 0 0 1 10.3,5.18 h -9.82 a 7,7 0 0 0 -7,7 v 9 a 7.07,7.07 0 0 0 0.66,3 z"
       fill="#ffffff"
       id="path13" />
    <path
       d="m 428,29.72 v 54.12 h -9.26 V 46.47 L 394,83.77 v 0.07 h -9.26 V 46.47 L 359.93,83.86 H 348.8 L 384.72,29.74 H 394 V 67 l 24.78,-37.29 h 9.25 m 0,-7 v 0 h -9.24 a 7,7 0 0 0 -5.82,3.13 L 401,43.85 V 29.74 a 7,7 0 0 0 -7,-7 h -9.26 a 7,7 0 0 0 -5.83,3.13 L 343,80 a 7,7 0 0 0 5.83,10.87 h 11.13 a 7,7 0 0 0 5.83,-3.13 l 12,-18 v 14.1 a 7,7 0 0 0 7,7 H 394 a 7,7 0 0 0 6.2,-3.75 l 11.57,-17.42 v 14.17 a 7,7 0 0 0 7,7 H 428 a 7,7 0 0 0 7,-7 V 29.72 a 7,7 0 0 0 -7,-7 z"
       fill="#ffffff"
       id="path15" />
    <path
       d="m 337,29.74 h 9.26 V 83.88 H 337 V 72.3 h -17.17 l -7.67,11.56 H 301 L 337,29.74 M 326,63 h 11 V 46.47 L 326,63 m 11,-40.27 a 7,7 0 0 0 -5.84,3.13 L 295.2,80 a 7,7 0 0 0 5.8,10.86 h 11.12 A 7,7 0 0 0 318,87.73 l 5.6,-8.43 h 6.4 v 4.58 a 7,7 0 0 0 7,7 h 9.26 a 7,7 0 0 0 7,-7 V 29.76 a 7,7 0 0 0 -7,-7 H 337 Z"
       fill="#ffffff"
       id="path17" />
    <path
       d="m 687.24,28 a 28.31,28.31 0 0 1 25.11,15.21 h -10.86 a 18.11,18.11 0 0 0 -1.59,-1.57 19.52,19.52 0 1 0 1.76,27.56 h 10.79 A 28.29,28.29 0 1 1 687.24,28 m 0,-7 a 35.31,35.31 0 1 0 31.44,51.39 7,7 0 0 0 -6.23,-10.19 h -10.79 a 7,7 0 0 0 -5.26,2.37 12.52,12.52 0 1 1 -1.12,-17.68 c 0.35,0.32 0.7,0.66 1,1 a 7,7 0 0 0 5.19,2.31 h 10.86 A 7,7 0 0 0 718.55,40 35.21,35.21 0 0 0 687.24,21 Z"
       fill="#ffffff"
       id="path19" />
    <path
       d="m 750,29.7 v 54.12 h -9.26 v -23 H 724 v 23.01 h -9.27 V 29.72 H 724 V 51.5 h 16.73 V 29.72 h 9.26 m 0,-7 v 0 h -9.26 a 7,7 0 0 0 -7,7 V 44.5 H 731 V 29.72 a 7,7 0 0 0 -7,-7 h -9.27 a 7,7 0 0 0 -7,7 v 54.11 a 7,7 0 0 0 7,7 H 724 a 7,7 0 0 0 7,-7 V 67.77 h 2.73 v 16 a 7,7 0 0 0 7,7 H 750 a 7,7 0 0 0 7,-7 V 29.7 a 7,7 0 0 0 -7,-7 z"
       fill="#ffffff"
       id="path21" />
    <path
       d="M 661.07,29.72 V 39 h -10.48 v 44.82 h -9.26 V 39 h -10.48 v -9.28 h 30.22 m 0,-7 h -30.22 a 7,7 0 0 0 -7,7 V 39 a 7,7 0 0 0 7,7 h 3.48 v 37.82 a 7,7 0 0 0 7,7 h 9.26 a 7,7 0 0 0 7,-7 V 46 h 3.48 a 7,7 0 0 0 7,-7 v -9.28 a 7,7 0 0 0 -7,-7 z"
       fill="#ffffff"
       id="path23" />
    <path
       d="m 618,29.72 h 9.23 V 83.86 H 618 V 72.28 h -17.14 l -7.67,11.55 H 582.07 L 618,29.72 M 618,63 V 46.47 L 607,63 h 11 m 0,-40.28 a 7,7 0 0 0 -5.83,3.12 L 576.24,80 a 7,7 0 0 0 5.83,10.87 h 11.12 A 7,7 0 0 0 599,87.7 l 5.59,-8.42 H 611 v 4.58 a 7,7 0 0 0 7,7 h 9.24 a 7,7 0 0 0 7,-7 V 29.74 a 7,7 0 0 0 -7,-7 h -9.23 z"
       fill="#ffffff"
       id="path25" />
    <path
       d="m 492.3,29.74 a 13.32,13.32 0 0 1 9.29,3.77 11.15,11.15 0 0 1 3.29,7.9 c 0,5.53 -2.87,8.85 -6.13,11.46 l 7.12,6.61 4.79,-10.79 h 9.09 l -7.43,16.74 12.82,11.83 -5.65,6.1 -10.77,-10 C 505.38,80 501,84.22 492.24,84.22 h -0.32 a 16.61,16.61 0 0 1 -11.55,-4.68 16.3,16.3 0 0 1 -4.65,-11.69 c 0,-8 4.49,-11.93 9.66,-15.59 -2.79,-2.43 -5.59,-5.73 -5.59,-10.83 0,-7.32 6.32,-11.69 12.44,-11.69 h 0.07 m -0.07,8.31 v 0 A 4.75,4.75 0 0 0 489,39.32 v 0 a 2.89,2.89 0 0 0 -0.88,2.11 c 0,2.23 1.64,3.72 4.31,5.86 3.06,-2.25 4.17,-3.53 4.17,-5.86 a 2.71,2.71 0 0 0 -0.86,-2 5.06,5.06 0 0 0 -3.46,-1.36 v 0 m -0.31,37.87 h 0.34 c 5,0 7,-1.64 9.89,-8 l 0.18,-0.37 -10.48,-9.7 -0.08,0.06 c -5.52,3.83 -7.76,5.56 -7.76,9.93 a 8,8 0 0 0 2.2,5.82 8.28,8.28 0 0 0 5.66,2.24 M 489,39.32 v 0 m 30.77,9.37 v 0 M 492.31,22.74 h -0.13 c -9.51,0 -19.39,7 -19.39,18.69 a 19.27,19.27 0 0 0 2.68,9.9 22.57,22.57 0 0 0 -6.75,16.46 23.46,23.46 0 0 0 6.65,16.65 l 0.12,0.11 a 23.46,23.46 0 0 0 16.43,6.67 h 0.39 c 8.47,0 13.93,-3.24 17.61,-7.18 l 4.82,4.46 a 7,7 0 0 0 9.89,-0.39 L 530.27,82 a 7,7 0 0 0 -0.38,-9.9 l -9.13,-8.44 5.3,-12 a 7,7 0 0 0 -6.31,-10 h -7.87 v -0.28 a 18.06,18.06 0 0 0 -5.35,-12.86 l -0.06,-0.06 a 20.19,20.19 0 0 0 -14.16,-5.75 z m -1.22,44.62 a 2.24,2.24 0 0 1 0.35,-0.39 l 2,1.87 a 8.68,8.68 0 0 1 -1.21,0.07 h -0.34 a 1.29,1.29 0 0 1 -0.71,-0.22 1,1 0 0 1 -0.16,-0.59 c 0,-0.08 0,-0.17 0,-0.25 a 3.23,3.23 0 0 1 0,-0.5 z"
       fill="#ffffff"
       id="path27" />
    <path
       d="m 612.14,29.72 v 0 m 0,0 -35.92,54.11 H 567 v -37.3 l -24.8,37.3 H 533 V 29.72 h 9.24 V 67.08 L 567,29.79 v -0.07 h 9.26 V 67.07 L 601,29.72 h 11.1 m 0,-7 H 601 a 7,7 0 0 0 -5.83,3.12 l -12,18 V 29.72 a 7,7 0 0 0 -7,-7 H 567 a 7,7 0 0 0 -6.23,3.79 L 549.2,43.88 V 29.72 a 7,7 0 0 0 -7,-7 H 533 a 7,7 0 0 0 -7,7 v 54.11 a 7,7 0 0 0 7,7 h 9.24 A 7,7 0 0 0 548,87.7 l 11.93,-18 v 14.1 a 7,7 0 0 0 7,7 h 9.26 a 7,7 0 0 0 5.83,-3.13 l 35.83,-54 a 6.89,6.89 0 0 0 1.26,-4 7,7 0 0 0 -7,-7 z m 0,14 z"
       fill="#ffffff"
       id="path29" />
    <path
       id="Game_Watch"
       data-name="Game Watch"
       d="M 294.55,46.19 A 19.77,19.77 0 1 0 296.33,66 h -17.49 v -9 h 27.93 v 0.62 A 28.38,28.38 0 1 1 304.39,46.21 Z M 326,63 337,46.46 V 63 Z m 11,-33.27 v 0 l -36,54.13 h 11.12 L 319.79,72.3 H 337 v 11.58 h 9.26 V 29.76 Z m 81.8,0 v 0 L 394,67 V 29.74 h -9.26 L 348.8,83.86 h 11.13 L 384.72,46.47 V 83.84 H 394 v -0.07 l 24.77,-37.3 V 83.84 H 428 V 29.72 Z M 463.66,39 v -9.26 h -28.15 v 54.12 h 9.26 18.87 V 74.57 H 444.77 V 62 h 18.87 V 52.69 H 444.77 V 39 Z M 607,63 618,46.48 V 63 Z m 11,-33.27 v 0 l -35.93,54.1 h 11.12 l 7.67,-11.55 H 618 v 11.58 h 9.24 V 29.74 Z m -75.8,54.1 v 0 L 567,46.53 v 37.3 h 9.26 L 612.18,29.72 H 601 L 576.22,67.07 V 29.72 H 567 v 0.07 L 542.2,67.08 V 29.72 H 533 v 54.11 h 9.24 z M 740.74,29.72 V 51.5 H 724 V 29.72 h -9.27 V 83.83 H 724 V 60.77 h 16.73 v 23 H 750 V 29.7 Z m -79.63,0 H 630.85 V 39 h 10.48 v 44.82 h 9.26 V 39 h 10.48 v -9.28 z m 40.55,39.52 a 19.53,19.53 0 1 1 -0.17,-26 h 10.86 a 28.3,28.3 0 1 0 0.1,26 z M 502.15,67.87 c -2.87,6.4 -4.9,8 -9.89,8 a 8.31,8.31 0 0 1 -6,-2.23 8,8 0 0 1 -2.2,-5.82 c 0,-4.37 2.24,-6.1 7.76,-9.93 l 0.08,-0.06 10.43,9.63 z M 489,39.32 a 4.75,4.75 0 0 1 3.26,-1.27 5.09,5.09 0 0 1 3.49,1.36 2.71,2.71 0 0 1 0.86,2 c 0,2.33 -1.11,3.61 -4.17,5.86 -2.67,-2.14 -4.31,-3.63 -4.31,-5.86 a 2.89,2.89 0 0 1 0.88,-2.11 m 23.34,26.11 7.43,-16.74 h -9.09 l -4.79,10.79 -7.12,-6.61 c 3.26,-2.61 6.13,-5.93 6.13,-11.46 a 11.15,11.15 0 0 0 -3.29,-7.9 13.31,13.31 0 0 0 -9.36,-3.77 c -6.12,0 -12.44,4.37 -12.44,11.69 0,5.1 2.8,8.39 5.59,10.83 -5.17,3.66 -9.66,7.57 -9.66,15.59 a 16.3,16.3 0 0 0 4.65,11.69 16.58,16.58 0 0 0 11.87,4.68 c 8.78,0 13.14,-4.25 16.48,-10.82 l 10.77,10 5.65,-6.1 z" />
  </g>
  <metadata
     id="metadata854">
    <rdf:RDF>
      <cc:Work
         rdf:about="">
        <dc:title>logo</dc:title>
      </cc:Work>
    </rdf:RDF>
  </metadata>
</svg>
