<?xml version="1.0" encoding="UTF-8" standalone="no"?>
<svg
   id="Layer_1"
   data-name="Layer 1"
   viewBox="0 0 239.47 114.0002"
   version="1.1"
   sodipodi:docname="gx4000.svg"
   width="239.47"
   height="114.0002"
   inkscape:version="1.1 (c68e22c387, 2021-05-23)"
   xmlns:inkscape="http://www.inkscape.org/namespaces/inkscape"
   xmlns:sodipodi="http://sodipodi.sourceforge.net/DTD/sodipodi-0.dtd"
   xmlns="http://www.w3.org/2000/svg"
   xmlns:svg="http://www.w3.org/2000/svg"
   xmlns:rdf="http://www.w3.org/1999/02/22-rdf-syntax-ns#"
   xmlns:cc="http://creativecommons.org/ns#"
   xmlns:dc="http://purl.org/dc/elements/1.1/">
  <defs
     id="defs58" />
  <sodipodi:namedview
     id="namedview56"
     pagecolor="#ffffff"
     bordercolor="#666666"
     borderopacity="1.0"
     inkscape:pageshadow="2"
     inkscape:pageopacity="0.0"
     inkscape:pagecheckerboard="0"
     showgrid="false"
     fit-margin-top="0"
     fit-margin-left="0"
     fit-margin-right="0"
     fit-margin-bottom="0"
     inkscape:zoom="3.1480394"
     inkscape:cx="119.91591"
     inkscape:cy="56.860788"
     inkscape:window-width="1920"
     inkscape:window-height="1138"
     inkscape:window-x="-8"
     inkscape:window-y="-8"
     inkscape:window-maximized="1"
     inkscape:current-layer="Layer_1" />
  <title
     id="title2">logo</title>
  <rect
     x="17.259998"
     y="9.8601265"
     width="48.360001"
     height="93.860001"
     fill="#ffffff"
     id="rect4" />
  <path
     d="m 62.7,109.20013 a 3.5,3.5 0 0 1 -1.94,-6.42 l 1.23,-0.82 1.49,-1 -4.91,-21.560003 c -1.81,7.1 -3.68,14.41 -5.57,21.620003 0.5,0.32 1,0.65 1.48,1 0.48,0.35 0.71,0.49 1.11,0.75 a 3.5,3.5 0 0 1 -1.94,6.42 H 41.21 a 3.5,3.5 0 0 1 -2.49,-6 13,13 0 0 1 3.33,-2.31 c 0.37,-0.2 0.69,-0.36 1,-1.620003 3.66,-14.71 7.34,-29.06 10.46,-41.15 a 3.78,3.78 0 0 0 -0.2,-1.45 l -0.1,-0.44 q -2.28,-10.32 -4.57,-20.62 -2.44,-11 -4.89,-22.06 l -3.53,-2.35 a 3.5,3.5 0 0 1 1.94,-6.4100004 h 17.77 a 3.52,3.52 0 0 1 3.24,2.22 3.48,3.48 0 0 1 3.22,-2.14 h 12.79 a 3.5,3.5 0 0 1 1.94,6.4100004 l -1.16,0.78 c -0.81,0.55 -1.59,1.08 -2.38,1.58 l -0.09,0.38 c -3.1,12.52 -6.3,25.47 -9.5,38.2 a 4.62,4.62 0 0 0 0.18,1 l 0.09,0.41 q 2.44,10.76 4.86,21.48 l 2.42,10.69 c 1.1,4.88 2.2,9.76 3.27,14.640003 0.83,0.48 1.6,1 2.41,1.54 l 1.21,0.8 a 3.5,3.5 0 0 1 -1.91,6.43 z M 59.17,13.000127 q 1.95,8.49 3.87,17 2,-8.49 4.08,-17 c -0.48,-0.3 -0.95,-0.62 -1.43,-0.94 l -1.22,-0.82 a 3.51,3.51 0 0 1 -1.31,-1.5900004 3.53,3.53 0 0 1 -1.3,1.5600004 l -1.16,0.79 c -0.56,0.38 -1,0.71 -1.53,1 z"
     fill="#efe464"
     id="path6" />
  <path
     d="m 59.93,8.3101266 c -1.41,0.93 -2.59,1.7600004 -3.81,2.5100004 a 1.28,1.28 0 0 0 -0.66,1.65 q 3.58,15.57 7.08,31.15 c 0.08,0.37 0.19,0.73 0.28,1.08 v 0 c 0.34,0 0.33,-0.26 0.37,-0.45 l 7.67,-31.95 a 1,1 0 0 0 -0.46,-1.3 h -0.08 c -1.28,-0.77 -2.51,-1.6400004 -4,-2.5900004 h 12.79 c -1.38,0.92 -2.62,1.7900004 -3.91,2.5900004 a 2.12,2.12 0 0 0 -1,1.42 q -4.83,19.5 -9.69,39 a 6.44,6.44 0 0 0 0.25,3.08 q 3.62,16.08 7.28,32.15 c 1.11,4.93 2.23,9.87 3.31,14.820003 a 2.65,2.65 0 0 0 1.35,1.91 c 1.2,0.68 2.32,1.49 3.73,2.4 H 62.7 c 1.45,-1 2.69,-1.83 4,-2.61 a 1.07,1.07 0 0 0 0.57,-1.37 q -4,-17.830003 -8,-35.670003 c -0.09,-0.39 -0.19,-0.79 -0.38,-1.5 l -1.61,6.24 c -2.6,10.14 -5.18,20.29 -7.83,30.410003 a 1.64,1.64 0 0 0 0.76,2.18 h 0.12 c 1.11,0.62 2.14,1.39 3.43,2.25 H 41.21 a 9.44,9.44 0 0 1 2.49,-1.71 5.32,5.32 0 0 0 2.79,-3.88 Q 51.58,79.550127 56.9,59.000127 a 7.3,7.3 0 0 0 -0.27,-3.53 q -4.8,-21.69 -9.62,-43.38 a 1.7,1.7 0 0 0 -0.82,-1.12 l -4,-2.6800004 h 17.77 m 19.25,0 v 0 m -19.25,-7 H 42.16 A 7,7 0 0 0 38.28,14.120127 l 1.24,0.83 1.12,0.74 q 2.3,10.38 4.6,20.75 2.3,10.37 4.55,20.56 l 0.11,0.48 a 1.44,1.44 0 0 0 0.08,0.33 c -3.08,11.92 -6.68,26 -10.26,40.37 a 15.19,15.19 0 0 0 -3.48,2.580003 7,7 0 0 0 5,11.92 H 53.7 a 7,7 0 0 0 4.49,-1.62 7,7 0 0 0 4.51,1.64 h 17.87 a 7,7 0 0 0 3.81,-12.870003 c -0.41,-0.26 -0.79,-0.52 -1.16,-0.77 l -1.25,-0.83 c -1,-4.4 -2,-8.76 -3,-13.21 q -1.2,-5.34 -2.42,-10.68 -2.44,-10.73 -4.85,-21.46 l -0.1,-0.45 v -0.07 c 3,-12.19 6.1,-24.56 9.1,-36.57 l 1.27,-0.86 1,-0.7 A 7,7 0 0 0 79.19,1.3401266 h -12.8 a 7,7 0 0 0 -3.2,0.77 7.11,7.11 0 0 0 -3.26,-0.8 z m 3.2,13.2800004 z m -3.2,0.72 z m -2.92,84.2 q 0.68,-2.58 1.34,-5.16 l 1.14,5 -0.71,0.48 a 5.52,5.52 0 0 0 -0.62,0.460003 7.62,7.62 0 0 0 -0.64,-0.480003 l -0.51,-0.34 z"
     fill="#ffffff"
     id="path8" />
  <path
     d="m 100.14,109.26013 a 3.5,3.5 0 0 1 -1.94,-6.42 c 0.44,-0.28 0.84,-0.56 1.23,-0.83 l 2,-1.34 V 80.000127 h -9.62 a 4.19,4.19 0 0 1 -4.42,-5.38 q 4.81,-22.95 9.61,-45.91 l 3,-14.3 c 0.17,-0.84 0.36,-1.68 0.54,-2.51 0.25,-1.17 0.51,-2.3400004 0.74,-3.5100004 a 4.25,4.25 0 0 1 4.27,-3.63 h 7.42 a 4,4 0 0 1 3.43,1.64 3.9,3.9 0 0 1 0.38,3.7500004 c -0.65,2.15 -3.36,10.85 -3.36,10.85 l -9.64,31 c 0.12,-0.09 0.25,-0.17 0.38,-0.25 1.56,-1 3.15,-2 4.68,-3 l 1.86,-1.19 a 3.56,3.56 0 0 1 1.9,-0.55 3.48,3.48 0 0 1 2.67,1.24 4.69,4.69 0 0 1 1,3.53 v 18 h 2.43 a 4.22,4.22 0 0 1 3.1,1.22 4.33,4.33 0 0 1 1.17,3.25 v 0.91 c 0,4.19 -2.66,4.81 -4.24,4.81 h -2.36 v 20.740003 l 1.82,1.21 1.05,0.71 a 3.49,3.49 0 0 1 1.34,4.14 v 0.12 a 3.62,3.62 0 0 1 -3.32,2.36 z m 1.31,-39.490003 v -10.26 l -3.19,10.26 z"
     fill="#efe464"
     id="path10" />
  <path
     d="m 113.05,8.2401266 c 0.82,0 0.53,0.47 0.4,0.87 q -1.68,5.4300004 -3.38,10.8600004 -8.13,26.18 -16.27,52.35 c -0.08,0.28 -0.13,0.57 -0.22,1 h 10.77 c 0.83,0 0.59,-0.63 0.59,-1.06 v -15.45 a 2,2 0 0 1 1,-2 c 2.24,-1.36 4.42,-2.82 6.64,-4.24 0.36,0.42 0.21,0.85 0.21,1.24 v 20.3 c 0,0.93 0.23,1.25 1,1.25 h 4.91 c 0.64,0 0.83,0.26 0.81,0.91 0,2.09 0.16,2.31 -0.75,2.31 h -5.06 c -0.58,0 -0.85,0.17 -0.85,0.87 v 24.550003 a 1.3,1.3 0 0 0 0.72,1.17 c 1.25,0.81 2.48,1.64 3.72,2.47 l -0.08,0.21 h -17 c 1.43,-1 2.59,-1.78 3.81,-2.51 a 1.91,1.91 0 0 0 1,-1.9 V 77.900127 c 0,-1 -0.27,-1.33 -1.25,-1.33 h -12 c -0.89,0 -1.1,-0.25 -0.91,-1.16 q 6.33,-30.1 12.6,-60.21 c 0.43,-2 0.89,-4 1.29,-6.0000004 0.11,-0.51 0.26,-0.82 0.84,-0.82 h 7.44 m 0,-7 h -7.48 a 7.75,7.75 0 0 0 -7.7,6.44 c -0.23,1.15 -0.48,2.3000004 -0.73,3.4500004 -0.19,0.85 -0.37,1.69 -0.55,2.54 l -3,14.62 q -4.79,22.8 -9.57,45.57 a 7.68,7.68 0 0 0 5.48,9.36 8,8 0 0 0 2.28,0.24 h 6.2 v 15.33 l -0.49,0.34 -1.2,0.810003 a 7,7 0 0 0 3.87,12.83 h 17 a 7,7 0 0 0 6.55,-4.53 v -0.21 a 7,7 0 0 0 -2.66,-8.290003 l -1,-0.7 -0.28,-0.18 v -15.47 c 2.19,-0.32 6.62,-1.76 6.63,-8.22 v -0.82 a 7.62,7.62 0 0 0 -6.63,-8 v -14.55 a 8,8 0 0 0 -1.79,-5.94 7,7 0 0 0 -5.35,-2.48 6.91,6.91 0 0 0 -2.69,0.54 l 6.84,-22 1.43,-4.62 1.92,-6.16 a 7.38,7.38 0 0 0 -0.82,-6.9000004 7.49,7.49 0 0 0 -6.24,-3.13 z"
     fill="#ffffff"
     id="path12" />
  <path
     d="m 218.33,110.34013 c -3,0 -5.75,-1.62 -7.86,-4.55 a 35.79,35.79 0 0 1 -5.3,-12.430003 135.31,135.31 0 0 1 -2.85,-17.66 179.64,179.64 0 0 1 -0.89,-22.84 154.4,154.4 0 0 1 2,-22.92 72.78,72.78 0 0 1 4.1,-15.62 26,26 0 0 1 4.24,-7.2600004 8.59,8.59 0 0 1 12,-1.55 8.48,8.48 0 0 1 1,0.85 c 2.92,2.8 4.38,6.2800004 5.52,9.3100004 a 81.2,81.2 0 0 1 4.3,19.21 c 0.49,4 0.85,8.35 1.11,13.14 a 3.54,3.54 0 0 1 0.26,1.33 v 17.15 a 3.44,3.44 0 0 1 -0.26,1.31 120.29,120.29 0 0 1 -3.72,25.53 c -1.23,4.44 -2.81,9.080003 -6.06,13.000003 -2.76,3.31 -5.66,4 -7.6,4 z m 0.19,-95.680003 a 73,73 0 0 0 -1.22,12.25 c -0.27,6.1 -0.36,12.18 -0.45,18.05 v 13.48 c -0.08,10.25 0.07,19.74 0.44,29 a 77,77 0 0 0 1.08,11.13 2.62,2.62 0 0 0 0.11,0.57 44.08,44.08 0 0 0 1.38,-10.35 l 0.05,-0.78 c 0.26,-4.62 0.37,-9.22 0.45,-14.71 0.09,-6.43 0.09,-12.86 0.07,-17.73 v -7.13 c 0,-6.13 0,-12.48 -0.21,-18.68 a 102.54,102.54 0 0 0 -1.15,-13.21 14.58,14.58 0 0 0 -0.47,-2.18 z"
     fill="#efe464"
     id="path14" />
  <path
     d="m 218.58,7.2301266 a 5.42,5.42 0 0 1 3.77,1.66 c 2.32,2.2200004 3.57,5.0800004 4.67,8.0000004 a 78.93,78.93 0 0 1 4.11,18.4 c 0.54,4.51 0.89,9 1.12,13.57 0,0.19 0,0.38 0.22,0.48 v 17.16 h -0.19 a 119.2,119.2 0 0 1 -3.66,25.9 c -1.16,4.17 -2.54,8.270003 -5.38,11.680003 a 6.57,6.57 0 0 1 -4.91,2.75 c -1.78,0 -3.54,-1 -5,-3.1 a 32.28,32.28 0 0 1 -4.74,-11.240003 129.71,129.71 0 0 1 -2.77,-17.2 176,176 0 0 1 -0.87,-22.38 150.14,150.14 0 0 1 2,-22.4 70.14,70.14 0 0 1 3.9,-14.88 22.6,22.6 0 0 1 3.65,-6.3100004 5.42,5.42 0 0 1 4.12,-2.1 m -0.18,96.9400034 a 2.69,2.69 0 0 0 2,-1.08 6.9,6.9 0 0 0 1.26,-2.38 c 1.32,-4.000003 1.49,-8.270003 1.73,-12.450003 0.29,-4.94 0.39,-9.9 0.46,-14.86 0.09,-5.93 0.09,-11.86 0.07,-17.8 0,-8.64 0.12,-17.28 -0.21,-25.92 a 102.59,102.59 0 0 0 -1.25,-13.67 c -0.31,-1.8 -0.63,-3.65 -1.92,-5.09 a 2.61,2.61 0 0 0 -3.65,-0.53 2.67,2.67 0 0 0 -0.73,0.84 7.54,7.54 0 0 0 -1.1,2.69 77,77 0 0 0 -1.3,12.86 c -0.26,6 -0.36,12.09 -0.45,18.13 -0.07,4.51 0,9 0,13.54 -0.07,9.73 0,19.46 0.44,29.18 a 81.21,81.21 0 0 0 1.14,11.64 8.14,8.14 0 0 0 1.41,3.760003 2.72,2.72 0 0 0 2.08,1.15 M 218.58,0.23012663 a 12.36,12.36 0 0 0 -9.45,4.55999997 29.47,29.47 0 0 0 -4.81,8.2100004 77.13,77.13 0 0 0 -4.31,16.35 156.1,156.1 0 0 0 -2.07,23.45 179.19,179.19 0 0 0 0.91,23.28 134,134 0 0 0 2.93,18.13 39,39 0 0 0 5.85,13.610003 c 2.78,3.87 6.58,6 10.7,6 a 13.45,13.45 0 0 0 10.29,-5.28 c 3.67,-4.41 5.41,-9.470003 6.74,-14.290003 a 122.09,122.09 0 0 0 3.82,-25.78 7.11,7.11 0 0 0 0.29,-2 v -17.12 a 7.11,7.11 0 0 0 -0.29,-2 c -0.26,-4.69 -0.62,-8.91 -1.1,-12.89 a 85.22,85.22 0 0 0 -4.5,-20 c -1.37,-3.66 -3.09,-7.4700004 -6.39,-10.6200004 a 12.47,12.47 0 0 0 -8.61,-3.59999997 z"
     fill="#ffffff"
     id="path16" />
  <path
     d="m 142.36,110.32013 a 9.4,9.4 0 0 1 -7.4,-4 c -3.23,-4.17 -4.71,-8.920003 -5.83,-13.420003 a 132.28,132.28 0 0 1 -2.85,-18.24 167.57,167.57 0 0 1 -0.83,-22.06 c 0.25,-8.66 0.91,-20.06 3.9,-31.42 1.15,-4.39 2.64,-9 5.69,-13.1300004 2.71,-3.6 5.66,-4.37 7.66,-4.37 2,0 4.66,0.7 7.4,4 2.74,3.3000004 4.24,7.4800004 5.43,11.3100004 a 97.58,97.58 0 0 1 3.56,19.47 171.46,171.46 0 0 1 0.91,19.62 148.75,148.75 0 0 1 -1,19.57 c -0.78,6.6 -2,14.34 -5,21.69 a 23.18,23.18 0 0 1 -4.8,7.850003 9.64,9.64 0 0 1 -6.85,3.12 z m 0.27,-95.860003 a 36.89,36.89 0 0 0 -0.89,6.36 l -0.07,0.87 c -0.46,5.54 -0.56,11.25 -0.65,16.77 v 0.21 c -0.08,4.59 -0.06,9.27 0,13.79 v 13.87 c 0,5.07 0,10.32 0.14,15.45 v 0.76 c 0.17,4.65 0.35,9.46 0.94,14.08 l 0.05,0.41 a 21.68,21.68 0 0 0 0.36,2.26 c 0.05,-0.17 0.1,-0.34 0.14,-0.54 a 62.25,62.25 0 0 0 1.41,-12.91 c 0.24,-6.21 0.38,-12.78 0.46,-21.3 0.1,-11.06 0,-21.09 -0.15,-30.67 a 128.16,128.16 0 0 0 -1.14,-16.61 16.61,16.61 0 0 0 -0.6,-2.8 z"
     fill="#efe464"
     id="path18" />
  <path
     d="m 142.64,7.1801266 c 1.59,0 3.2,0.91 4.71,2.74 2.44,3.0000004 3.67,6.5200004 4.78,10.1200004 a 93.42,93.42 0 0 1 3.42,18.77 167.7,167.7 0 0 1 0.9,19.28 144.42,144.42 0 0 1 -1,19.17 c -0.83,7.08 -2,14.11 -4.72,20.77 a 20,20 0 0 1 -4,6.710003 6.14,6.14 0 0 1 -4.36,2.08 5.92,5.92 0 0 1 -4.63,-2.61 c -2.79,-3.58 -4.13,-7.800003 -5.2,-12.120003 a 129.87,129.87 0 0 1 -2.84,-17.76 162.12,162.12 0 0 1 -0.81,-21.59 c 0.29,-10.33 1.15,-20.6 3.78,-30.63 1.11,-4.23 2.47,-8.37 5.12,-11.93 1.48,-2.0000004 3.13,-3.0000004 4.79,-3.0000004 m -0.17,97.0000034 a 2.73,2.73 0 0 0 2.29,-1.28 9.28,9.28 0 0 0 1.4,-3.300003 66.14,66.14 0 0 0 1.45,-13.6 c 0.28,-7.13 0.41,-14.27 0.47,-21.4 0.09,-10.26 0.06,-20.52 -0.15,-30.78 a 131.86,131.86 0 0 0 -1.17,-17.08 12.7,12.7 0 0 0 -1.73,-5.42 2.87,2.87 0 0 0 -2.36,-1.4700004 3,3 0 0 0 -2.35,1.3900004 6.74,6.74 0 0 0 -1,2.26 44.82,44.82 0 0 0 -1.08,7.9 c -0.47,5.73 -0.56,11.48 -0.66,17.22 -0.11,6.61 0,13.23 0,19.84 0,7.82 -0.16,15.63 0.13,23.45 0.19,5.07 0.35,10.13 1,15.16 0.25,2 0.44,4.050003 1.64,5.790003 a 2.72,2.72 0 0 0 2.2,1.31 M 142.7,0.17012663 c -2.27,0 -6.64,0.76 -10.4,5.81999997 -3.42,4.5800004 -5,9.5900004 -6.28,14.3300004 -3.07,11.7 -3.76,23.36 -4,32.21 a 171.2,171.2 0 0 0 0.85,22.53 136.08,136.08 0 0 0 2.83,18.72 c 1.21,4.88 2.83,10.000003 6.46,14.720003 a 12.8,12.8 0 0 0 10.17,5.32 13.23,13.23 0 0 0 9.34,-4.16 26.29,26.29 0 0 0 5.55,-9 c 3.15,-7.740003 4.39,-15.770003 5.19,-22.600003 a 150.2,150.2 0 0 0 1,-20 171.23,171.23 0 0 0 -0.93,-20 102.07,102.07 0 0 0 -3.66,-20.06 c -1.29,-4.16 -2.82,-8.5600004 -6.07,-12.4900004 -3.61,-4.41 -7.49,-5.32999997 -10.11,-5.32999997 z"
     fill="#ffffff"
     id="path20" />
  <path
     d="m 180.23,110.33013 c -3,0 -5.79,-1.62 -7.91,-4.57 a 36.35,36.35 0 0 1 -5.28,-12.420003 120.09,120.09 0 0 1 -2.63,-15.75 159.17,159.17 0 0 1 -1.12,-20.59 146.2,146.2 0 0 1 0.73,-17 c 0.79,-7.85 1.93,-17 5.42,-25.63 1.13,-2.8 2.57,-6.0000004 5.49,-8.4400004 a 8.23,8.23 0 0 1 11.62,0.38 v 0 c 3,2.81 4.49,6.3900004 5.66,9.5100004 a 83.44,83.44 0 0 1 4.27,19.18 188.08,188.08 0 0 1 1.32,27.26 c -0.23,8.66 -0.88,20 -3.94,31.12 -1.19,4.29 -2.72,8.810003 -5.87,12.760003 -2.17,2.71 -4.92,4.2 -7.76,4.2 z m 0.15,-95.640003 a 74.62,74.62 0 0 0 -1.21,12.39 c -0.25,6.1 -0.35,12.32 -0.45,18.35 v 18.88 c 0,3 0,6 0.07,9 v 2.17 c 0.12,6.6 0.25,13.42 1,20 a 25.51,25.51 0 0 0 0.55,3.59 33.08,33.08 0 0 0 1.16,-7.2 l 0.06,-0.74 c 0.41,-4.55 0.5,-9.26 0.58,-13.81 l 0.06,-3.32 c 0.13,-5.84 0.11,-11.81 0.09,-17.58 v -8.1 c 0,-6.22 0,-12.65 -0.21,-18.93 a 97.65,97.65 0 0 0 -1.16,-13 17.5,17.5 0 0 0 -0.46,-2.15 2.6,2.6 0 0 1 -0.08,0.42 z"
     fill="#efe464"
     id="path22" />
  <path
     d="m 180.56,7.1701266 a 5.28,5.28 0 0 1 3.59,1.64 c 2.4,2.2600004 3.66,5.2000004 4.78,8.2000004 a 79,79 0 0 1 4.08,18.4 183.89,183.89 0 0 1 1.29,26.75 c -0.27,10.21 -1.08,20.38 -3.82,30.28 -1.13,4.1 -2.52,8.110003 -5.23,11.510003 -1.53,1.92 -3.29,2.88 -5,2.88 a 6.43,6.43 0 0 1 -5.06,-3.1 32.77,32.77 0 0 1 -4.73,-11.250003 114.5,114.5 0 0 1 -2.55,-15.29 154.94,154.94 0 0 1 -1.1,-20.2 142.74,142.74 0 0 1 0.71,-16.67 c 0.85,-8.41 2,-16.77 5.19,-24.68 a 16.39,16.39 0 0 1 4.48,-7.0600004 5.3,5.3 0 0 1 3.39,-1.41 m -0.21,97.0000034 c 1.33,0 2,-1 2.6,-2 a 6.71,6.71 0 0 0 0.36,-0.83 c 1.22,-3.120003 1.43,-6.430003 1.73,-9.710003 0.52,-5.76 0.53,-11.55 0.65,-17.33 0.14,-6.23 0.11,-12.46 0.09,-18.7 0,-8.71 0.12,-17.43 -0.21,-26.15 a 102.65,102.65 0 0 0 -1.23,-13.45 c -0.31,-1.83 -0.64,-3.72 -2,-5.16 a 2.78,2.78 0 0 0 -2,-0.9300004 2.69,2.69 0 0 0 -2.17,1.2200004 7.41,7.41 0 0 0 -1.23,2.87 78.78,78.78 0 0 0 -1.26,13 c -0.27,6.49 -0.36,13 -0.46,19.48 -0.07,4 0,8 0,12.07 0,5 0,10 0.11,15 0.14,7.51 0.2,15 1,22.5 a 21,21 0 0 0 1.2,5.810003 c 0.49,1.23 1.27,2.3 2.74,2.36 h 0.11 M 180.61,0.22012663 a 12.17,12.17 0 0 0 -7.88,2.99999997 c -3.41,2.78 -5.16,6.37 -6.54,9.7800004 -3.66,9.1 -4.84,18.5 -5.66,26.59 a 151,151 0 0 0 -0.74,17.41 160.2,160.2 0 0 0 1.15,21 120.1,120.1 0 0 0 2.76,16.21 39.14,39.14 0 0 0 5.83,13.600003 c 2.79,3.88 6.6,6 10.75,6 3.92,0 7.65,-2 10.49,-5.52 3.55,-4.43 5.22,-9.350003 6.51,-14.000003 3.16,-11.46 3.84,-23.1 4.07,-32 a 190.86,190.86 0 0 0 -1.34,-27.77 86.83,86.83 0 0 0 -4.48,-20 c -1.3,-3.5 -3,-7.5100004 -6.53,-10.8400004 a 12.1,12.1 0 0 0 -8.44,-3.50999997 z"
     fill="#ffffff"
     id="path24" />
  <path
     d="m 33.78,110.50013 a 3.84,3.84 0 0 1 -0.48,0 3.51,3.51 0 0 1 -2.83,-2.32 l -1,-2.79 a 11.15,11.15 0 0 1 -2.6,3 8.72,8.72 0 0 1 -4.8,2 3.55,3.55 0 0 1 -1.12,0.18 C 8.89,110.57013 3.4,82.840127 3.4,57.070127 3.4,31.300127 9.88,3.7901266 21.9,3.5901266 h 0.55 a 9.6,9.6 0 0 1 6.54,2.64 9,9 0 0 1 1,-1.26 3.55,3.55 0 0 1 4,-0.64 4,4 0 0 1 2.2,4 V 38.130127 a 3.75,3.75 0 0 1 -0.16,1.1 3.43,3.43 0 0 1 -3.36,2.68 3.47,3.47 0 0 1 -1.45,-0.31 4.07,4.07 0 0 1 -2.42,-3.23 l -1.19,-5.37 q -1.91,-7.84 -3.91,-15.71 a 11.27,11.27 0 0 0 -1.43,-3.39 15.59,15.59 0 0 0 -1.39,5 134.2,134.2 0 0 0 -1.39,16.39 c -0.19,4.35 -0.29,8.73 -0.35,13.12 a 3.53,3.53 0 0 1 2.22,-0.8 h 11.82 a 4.34,4.34 0 0 1 3.4,1.43 4.16,4.16 0 0 1 1,3.31 v 53.090003 a 5.18,5.18 0 0 1 -0.88,3.56 3.5,3.5 0 0 1 -2.92,1.5 z M 19.12,53.830127 c 0,5.89 0,11.76 0.05,17.53 0,4.93 0.18,10 0.45,15.4 a 54.51,54.51 0 0 0 1.41,11.52 12.17,12.17 0 0 0 0.57,1.67 11.28,11.28 0 0 0 0.69,-2.67 v -0.17 a 37.86,37.86 0 0 0 0.42,-6.89 v -33.93 c -0.68,-0.43 -1.34,-0.88 -2,-1.35 l -1.28,-0.86 z"
     fill="#efe464"
     id="path26" />
  <path
     d="m 22.48,7.0001266 a 6.16,6.16 0 0 1 4.81,2.4 28.54,28.54 0 0 1 2.08,3.2600004 c 0.51,-0.35 0.6,-0.9 0.85,-1.33 0.77,-1.33 1.19,-2.8500004 2.32,-4.0000004 0.35,0.17 0.26,0.51 0.26,0.79 V 38.000127 a 1.31,1.31 0 0 1 -0.06,0.27 c -0.37,-0.16 -0.34,-0.51 -0.41,-0.8 -1.73,-7 -3.44,-14.06 -5.2,-21.08 a 14.2,14.2 0 0 0 -2.28,-5 2.9,2.9 0 0 0 -5.23,0.13 16.91,16.91 0 0 0 -2.17,6.81 141.17,141.17 0 0 0 -1.43,16.81 c -0.51,12.07 -0.42,24.13 -0.34,36.19 0,5.19 0.2,10.37 0.45,15.55 a 58,58 0 0 0 1.57,12.31 11.1,11.1 0 0 0 1.56,3.600003 2.84,2.84 0 0 0 2.28,1.32 3,3 0 0 0 2.06,-0.94 c 1.52,-1.48 1.85,-3.470003 2.21,-5.430003 a 41.14,41.14 0 0 0 0.48,-7.52 v -34.74 a 1.77,1.77 0 0 0 -0.94,-1.72 c -1.25,-0.75 -2.44,-1.59 -3.94,-2.6 h 11.83 c 0.69,0 1,0.23 0.89,1 a 5.42,5.42 0 0 0 0,0.57 v 52.790003 a 2.09,2.09 0 0 1 -0.31,1.54 c -1.58,-4.53 -3.1,-8.880003 -4.61,-13.230003 -0.39,2 -0.61,4 -1.15,6 -0.63,2.230003 -1.43,4.370003 -3.31,5.880003 a 5.1,5.1 0 0 1 -3.19,1.2 4.86,4.86 0 0 1 -0.54,0 v 0.09 c -7.76,0 -14,-22.390003 -14,-50.000003 0,-27.61 7.38,-50.0000004 15.14,-50.0000004 h 0.41 m 0,-6.99999996879 h -0.7 C 14.7,0.17012663 8.98,6.7401266 5,19.550127 c -3.21,10.31 -5,23.6 -5,37.43 0,14 1.56,27.21 4.38,37.25 3.68,13.100003 9.32,19.770003 16.67,19.770003 a 7,7 0 0 0 1.77,-0.23 12,12 0 0 0 5.72,-2.2 7,7 0 0 0 4.35,2.36 6.73,6.73 0 0 0 1,0.07 7,7 0 0 0 5.74,-3 8.74,8.74 0 0 0 1.57,-5.69 V 52.670127 a 0.54,0.54 0 0 0 0,-0.18 7.57,7.57 0 0 0 -5.19,-7.92 7,7 0 0 0 3.62,-4.52 7.48,7.48 0 0 0 0.27,-2 V 8.2701266 a 7.54,7.54 0 0 0 -4.2,-7.17 7,7 0 0 0 -7,0.47 A 12.88,12.88 0 0 0 22.48,1.2663121e-4 Z M 22.7,44.160127 c 0.06,-2.9 0.14,-5.79 0.27,-8.67 0.08,-1.87 0.16,-3.69 0.26,-5.46 0.31,1.26 0.62,2.52 0.92,3.76 l 1.33,5.21 a 7.63,7.63 0 0 0 3.4,5.15 H 22.7 Z"
     fill="#ffffff"
     id="path28" />
  <path
     d="m 232.25,62.440127 c 0.09,-0.75 -0.24,-1.54 0.22,-2.26 v 2.26 c -0.07,0.1 -0.15,0.1 -0.22,0 z"
     fill="#f1e87a"
     id="path30" />
  <path
     d="m 232.47,53.640127 c -0.44,-0.72 -0.15,-1.51 -0.21,-2.27 q 0.11,-0.13 0.21,0 z"
     fill="#f5ed99"
     id="path32" />
  <path
     d="m 232.47,51.380127 h -0.21 c 0.07,-0.52 -0.24,-1.1 0.21,-1.57 z"
     fill="#f7f2ba"
     id="path34" />
  <path
     d="m 232.28,65.160127 v -1.36 q 0.09,-0.16 0.21,0 v 1.35 c -0.08,0.09 -0.14,0.1 -0.21,0.01 z"
     fill="#f7f2b8"
     id="path36" />
  <path
     d="m 232.28,65.160127 h 0.19 v 1.34 h -0.19 z"
     fill="#fbf9e1"
     id="path38" />
  <path
     d="m 232.47,63.790127 h -0.21 v -1.36 h 0.22 z"
     fill="#f5ee9c"
     id="path40" />
  <path
     d="m 42.16,8.3101266 h 17.77 c -1.41,0.93 -2.59,1.7600004 -3.81,2.5100004 a 1.28,1.28 0 0 0 -0.66,1.65 q 3.58,15.57 7.08,31.15 c 0.08,0.37 0.19,0.73 0.28,1.08 0.37,0 0.35,-0.25 0.4,-0.45 l 7.67,-31.95 a 1,1 0 0 0 -0.46,-1.34 h -0.08 c -1.28,-0.77 -2.51,-1.6400004 -4,-2.5900004 h 12.79 c -1.38,0.92 -2.62,1.7900004 -3.91,2.5900004 a 2.12,2.12 0 0 0 -1,1.42 q -4.83,19.5 -9.69,39 a 6.44,6.44 0 0 0 0.25,3.08 q 3.62,16.08 7.28,32.15 c 1.11,4.93 2.23,9.87 3.31,14.820003 a 2.65,2.65 0 0 0 1.35,1.91 c 1.2,0.68 2.32,1.49 3.73,2.4 H 62.7 c 1.45,-1 2.69,-1.83 4,-2.61 a 1.07,1.07 0 0 0 0.57,-1.37 q -4,-17.830003 -8,-35.670003 c -0.09,-0.39 -0.19,-0.79 -0.38,-1.5 l -1.61,6.24 c -2.6,10.14 -5.18,20.29 -7.83,30.410003 a 1.64,1.64 0 0 0 0.76,2.18 h 0.12 c 1.11,0.62 2.14,1.39 3.43,2.25 H 41.21 a 9.44,9.44 0 0 1 2.49,-1.67 5.32,5.32 0 0 0 2.79,-3.88 Q 51.58,79.550127 56.9,59.000127 a 7.3,7.3 0 0 0 -0.27,-3.53 q -4.8,-21.69 -9.62,-43.38 a 1.7,1.7 0 0 0 -0.82,-1.12 z"
     fill="#ffd500"
     id="path42"
     style="fill:#d4aa00" />
  <path
     d="m 117.18,105.76013 h -17 c 1.43,-1 2.59,-1.78 3.81,-2.51 a 1.91,1.91 0 0 0 1,-1.9 V 77.770127 c 0,-1 -0.28,-1.34 -1.32,-1.33 -4,0.06 -7.9,0 -11.85,0 -0.93,0 -1.15,-0.23 -1,-1.16 q 6.33,-30.11 12.6,-60.21 c 0.43,-2 0.89,-4 1.29,-6.0000004 0.11,-0.52 0.26,-0.82 0.85,-0.82 H 113 c 0.86,0 0.56,0.47 0.43,0.87 q -1.68,5.4300004 -3.38,10.8600004 -8.13,26.18 -16.27,52.35 c -0.08,0.28 -0.13,0.57 -0.22,1 h 10.77 c 0.83,0 0.59,-0.63 0.59,-1.06 v -15.45 a 2,2 0 0 1 1,-2 c 2.24,-1.36 4.42,-2.82 6.64,-4.24 0.36,0.42 0.21,0.85 0.21,1.24 v 20.3 c 0,1 0.27,1.3 1.26,1.24 1.5,-0.08 3,0 4.51,0 0.7,0 0.91,0.24 0.89,0.91 -0.07,2.82 0.34,2.24 -2.21,2.3 h -3.52 c -0.64,0 -0.95,0.13 -0.95,0.87 v 24.560003 a 1.3,1.3 0 0 0 0.72,1.17 c 1.25,0.81 2.48,1.64 3.72,2.47 z"
     fill="#ffd500"
     id="path44"
     style="fill:#d4aa00" />
  <path
     d="m 232.47,49.350127 c -0.2,-0.1 -0.21,-0.29 -0.22,-0.48 -0.23,-4.53 -0.58,-9.06 -1.12,-13.57 a 78.93,78.93 0 0 0 -4.11,-18.4 c -1.1,-2.93 -2.35,-5.79 -4.67,-8.0000004 a 5.11,5.11 0 0 0 -7.21,-0.33 5.51,5.51 0 0 0 -0.68,0.77 22.6,22.6 0 0 0 -3.65,6.3100004 70.14,70.14 0 0 0 -3.9,14.88 150.14,150.14 0 0 0 -2,22.4 176,176 0 0 0 0.87,22.38 129.71,129.71 0 0 0 2.77,17.2 32.28,32.28 0 0 0 4.74,11.240003 c 2.88,4 6.78,4.13 9.93,0.35 2.84,-3.41 4.22,-7.510003 5.38,-11.680003 a 119.2,119.2 0 0 0 3.66,-25.9 5.18,5.18 0 0 0 0.07,-1.36 v -2.73 a 8.93,8.93 0 0 1 0.12,-2.25 v -6.54 a 9.09,9.09 0 0 1 -0.12,-2.21 c 0.06,-0.55 -0.13,-1.1 0.12,-1.63 z m -8.63,24 c -0.07,5 -0.17,9.92 -0.46,14.86 -0.24,4.18 -0.41,8.4 -1.73,12.450003 a 7,7 0 0 1 -1.22,2.39 2.45,2.45 0 0 1 -3.4,0.66 2.35,2.35 0 0 1 -0.71,-0.73 8.14,8.14 0 0 1 -1.41,-3.760003 81.21,81.21 0 0 1 -1.14,-11.64 c -0.39,-9.72 -0.51,-19.45 -0.44,-29.18 v -13.54 c 0.09,-6 0.19,-12.09 0.45,-18.13 a 77,77 0 0 1 1.3,-12.86 7.54,7.54 0 0 1 1.1,-2.69 2.61,2.61 0 0 1 3.54,-1 2.57,2.57 0 0 1 0.84,0.73 c 1.29,1.44 1.61,3.29 1.92,5.09 a 103.3,103.3 0 0 1 1.22,13.67 c 0.33,8.64 0.18,17.28 0.21,25.92 0,5.94 0,11.87 -0.07,17.8 z"
     fill="#ffd500"
     id="path46"
     style="fill:#d4aa00" />
  <path
     d="m 156.45,58.090127 a 167.7,167.7 0 0 0 -0.9,-19.28 93.23,93.23 0 0 0 -3.42,-18.81 c -1.11,-3.6 -2.34,-7.16 -4.78,-10.1200004 -3.1,-3.75 -6.6,-3.63 -9.5,0.2600004 -2.65,3.56 -4,7.7 -5.12,11.93 -2.63,10 -3.49,20.3 -3.78,30.63 a 162.12,162.12 0 0 0 0.81,21.59 129.87,129.87 0 0 0 2.77,17.76 c 1.07,4.32 2.41,8.540003 5.2,12.120003 2.53,3.27 6.07,3.48 9,0.53 a 20.05,20.05 0 0 0 4,-6.700003 c 2.71,-6.66 3.89,-13.69 4.72,-20.77 a 145.73,145.73 0 0 0 1,-19.14 z m -8.43,6.49 c -0.06,7.13 -0.19,14.27 -0.47,21.4 a 66.38,66.38 0 0 1 -1.5,13.62 9.28,9.28 0 0 1 -1.4,3.300003 2.5,2.5 0 0 1 -4.38,0 c -1.2,-1.74 -1.39,-3.800003 -1.64,-5.790003 -0.65,-5 -0.81,-10.09 -1,-15.16 -0.29,-7.82 -0.09,-15.63 -0.13,-23.45 0,-6.61 -0.09,-13.23 0,-19.84 0.1,-5.74 0.19,-11.49 0.66,-17.22 a 44.82,44.82 0 0 1 1.08,-7.9 6.74,6.74 0 0 1 1,-2.26 c 1.37,-1.8800004 3.42,-1.8600004 4.71,0.08 a 12.7,12.7 0 0 1 1.75,5.38 133.36,133.36 0 0 1 1.18,17.06 q 0.3,15.39 0.14,30.78 z"
     fill="#ffd500"
     id="path48"
     style="fill:#d4aa00" />
  <path
     d="m 193.01,35.410127 a 79,79 0 0 0 -4.08,-18.41 c -1.12,-3 -2.38,-5.94 -4.78,-8.2000004 -2.23,-2.09 -4.63,-2.2 -7,-0.23 -2.37,1.9700004 -3.45,4.4300004 -4.45,7.0700004 -3.19,7.91 -4.34,16.27 -5.19,24.68 a 140.76,140.76 0 0 0 -0.72,16.68 154.94,154.94 0 0 0 1.1,20.2 114.5,114.5 0 0 0 2.55,15.29 32.77,32.77 0 0 0 4.73,11.250003 c 2.91,4.06 6.95,4.13 10.08,0.22 2.71,-3.4 4.1,-7.410003 5.23,-11.510003 2.74,-9.9 3.55,-20.07 3.82,-30.28 a 184.09,184.09 0 0 0 -1.29,-26.76 z m -7.31,38.83 c -0.12,5.78 -0.13,11.57 -0.65,17.33 -0.3,3.28 -0.51,6.59 -1.73,9.710003 a 6.71,6.71 0 0 1 -0.36,0.83 c -0.58,1.1 -1.31,2.09 -2.71,2 a 3.26,3.26 0 0 1 -2.74,-2.36 21,21 0 0 1 -1.21,-5.750003 c -0.8,-7.48 -0.86,-15 -1,-22.5 -0.1,-5 -0.06,-10 -0.11,-15 v -12.07 c 0.1,-6.49 0.19,-13 0.46,-19.48 a 78.78,78.78 0 0 1 1.29,-13 7.22,7.22 0 0 1 1.22,-2.88 2.56,2.56 0 0 1 3.52,-0.85 2.63,2.63 0 0 1 0.64,0.56 c 1.38,1.44 1.71,3.33 2,5.16 a 102.63,102.63 0 0 1 1.21,13.44 c 0.33,8.72 0.18,17.44 0.21,26.15 0.06,6.25 0.09,12.47 -0.04,18.71 z"
     fill="#ffd500"
     id="path50"
     style="fill:#d4aa00" />
  <path
     d="m 20.98,107.00013 c -7.76,0 -14,-22.390003 -14,-50.000003 0,-27.61 7.38,-50.0000004 15.14,-50.0000004 v 0 a 6.16,6.16 0 0 1 5.22,2.39 28.54,28.54 0 0 1 2.08,3.2600004 c 0.51,-0.35 0.6,-0.9 0.85,-1.33 0.77,-1.3300004 1.19,-2.8500004 2.32,-4.0000004 0.35,0.17 0.26,0.51 0.26,0.79 V 38.000127 a 1.31,1.31 0 0 1 -0.06,0.27 c -0.37,-0.16 -0.34,-0.51 -0.41,-0.8 -1.73,-7 -3.44,-14.06 -5.2,-21.08 a 14.2,14.2 0 0 0 -2.28,-5 c -1.55,-2.1500004 -3.76,-2.1000004 -5.23,0.13 a 16.91,16.91 0 0 0 -2.17,6.81 141.17,141.17 0 0 0 -1.43,16.81 c -0.51,12.07 -0.42,24.13 -0.34,36.19 0,5.19 0.2,10.37 0.45,15.55 a 58.64,58.64 0 0 0 1.52,12.31 11.1,11.1 0 0 0 1.56,3.600003 2.67,2.67 0 0 0 3.65,1 2.76,2.76 0 0 0 0.69,-0.58 c 1.52,-1.48 1.85,-3.470003 2.21,-5.430003 a 41.14,41.14 0 0 0 0.48,-7.52 v -34.78 a 1.77,1.77 0 0 0 -0.94,-1.72 c -1.25,-0.75 -2.44,-1.59 -3.94,-2.6 h 11.77 c 0.73,0 1,0.21 0.95,1 a 5.42,5.42 0 0 0 0,0.57 v 52.790003 a 2.09,2.09 0 0 1 -0.31,1.54 c -1.58,-4.53 -3.1,-8.880003 -4.61,-13.230003 -0.39,2 -0.61,4 -1.15,6 -0.63,2.230003 -1.43,4.370003 -3.31,5.880003 a 5,5 0 0 1 -3.73,1.17"
     fill="#ffd500"
     id="path52"
     style="fill:#d4aa00" />
  <metadata
     id="metadata875">
    <rdf:RDF>
      <cc:Work
         rdf:about="">
        <dc:title>logo</dc:title>
      </cc:Work>
    </rdf:RDF>
  </metadata>
</svg>
