<?xml version="1.0" encoding="UTF-8" standalone="no"?>
<!-- Created with Inkscape (http://www.inkscape.org/) -->

<svg
   width="95.795837mm"
   height="9.4749327mm"
   viewBox="0 0 95.795837 9.4749327"
   version="1.1"
   id="svg5"
   inkscape:version="1.1 (c68e22c387, 2021-05-23)"
   sodipodi:docname="imageviewer.svg"
   xmlns:inkscape="http://www.inkscape.org/namespaces/inkscape"
   xmlns:sodipodi="http://sodipodi.sourceforge.net/DTD/sodipodi-0.dtd"
   xmlns="http://www.w3.org/2000/svg"
   xmlns:svg="http://www.w3.org/2000/svg">
  <sodipodi:namedview
     id="namedview7"
     pagecolor="#ffffff"
     bordercolor="#666666"
     borderopacity="1.0"
     inkscape:pageshadow="2"
     inkscape:pageopacity="0.0"
     inkscape:pagecheckerboard="0"
     inkscape:document-units="mm"
     showgrid="false"
     fit-margin-top="0"
     fit-margin-left="0"
     fit-margin-right="0"
     fit-margin-bottom="0"
     inkscape:zoom="0.47433592"
     inkscape:cx="1036.1855"
     inkscape:cy="16.865685"
     inkscape:window-width="1920"
     inkscape:window-height="1138"
     inkscape:window-x="-8"
     inkscape:window-y="-8"
     inkscape:window-maximized="1"
     inkscape:current-layer="layer1" />
  <defs
     id="defs2" />
  <g
     inkscape:label="Calque 1"
     inkscape:groupmode="layer"
     id="layer1"
     transform="translate(147.45723,-143.85106)">
    <g
       id="g1072"
       transform="matrix(0.17335411,0,0,0.17335411,-121.89491,118.91389)">
      <path
         style="fill:#aa4400;stroke:#ffffff;stroke-width:11;stroke-linecap:round;stroke-linejoin:round;stroke-miterlimit:4;stroke-dasharray:none;paint-order:stroke markers fill"
         d="m -138.78222,191.41991 v -1.5875 h -1.5875 -1.5875 v -4.63021 -4.63021 h 1.5875 1.5875 v -1.5875 -1.5875 h 12.43542 12.43541 v -1.5875 -1.5875 h -12.43541 -12.43542 v -1.45521 -1.45521 h -1.5875 -1.5875 v -7.80521 -7.8052 h 1.5875 1.5875 v 1.6007 1.6007 l 1.52135,-0.0793 1.52136,-0.0794 0.0793,-1.52135 0.0794,-1.52135 h 1.442 1.44201 v -1.5875 -1.5875 h -1.45521 -1.45521 v -1.5875 -1.5875 h 17.06562 17.06563 v 1.5875 1.5875 h 1.587494 1.5875 v 3.0427 3.04271 h -1.5875 -1.587494 v 1.58412 1.58411 l -9.32656,0.0695 -9.32657,0.0695 -0.0794,1.52136 -0.0794,1.52135 h 9.40592 9.40591 v 1.5875 1.5875 h 1.587494 1.5875 v 9.26042 9.26042 h -1.5875 -1.587494 v 1.5875 1.5875 h -1.5875 -1.5875 v 1.5875 1.5875 h -17.06563 -17.06562 z m 52.863717,0.0661 -0.07935,-1.52136 -1.521354,-0.0793 -1.521354,-0.0794 v -1.57429 -1.5743 h -1.5875 -1.5875 v -15.47808 -15.47812 h 1.5875 1.5875 v 1.5875 1.5875 h 1.5875 1.5875 v -1.5875 -1.5875 h 1.600703 1.600705 l -0.07935,-1.52136 -0.07935,-1.52135 -1.521354,-0.0794 -1.521354,-0.0794 v -1.5743 -1.57429 h 17.065624 17.065624 v 1.5875 1.5875 h 1.5875 1.5875 v 1.5875 1.5875 h -1.5875 -1.5875 v 1.4552 1.45521 h -9.260416 -9.260416 v 10.98021 10.98021 h 9.260416 9.260416 v 1.5875 1.5875 h 1.5875 1.5875 v 3.02951 3.0295 l -1.521354,0.0794 -1.521354,0.0793 -0.07935,1.52136 -0.07935,1.52135 h -17.039216 -17.039216 z m 46.619607,-0.0661 v -1.5875 h -1.455208 -1.455208 v -18.65313 -18.65312 h 1.455208 1.455208 v -1.5875 -1.5875 h 17.197916 17.197916 v 1.5875 1.5875 h 1.4552083 1.4552078 v 1.5875 1.5875 h 1.58749996 1.58750004 v 6.2177 6.21771 H -0.40514794 -1.9926479 v 1.45521 1.45521 H -3.4478557 -4.903064 v 1.71979 1.71979 h 1.4552083 1.4552078 v 1.45521 1.45521 h 1.58749996 1.58750004 v 6.21771 6.21771 H -0.40514794 -1.9926479 v 1.5875 1.5875 h -3.0427077 -3.0427082 v -1.5875 -1.5875 h -1.5874999 -1.5875003 v -1.5875 -1.5875 h -1.5875 -1.5875 v -1.5875 -1.5875 h -1.455208 -1.455208 v -1.45521 -1.45521 h -1.5875 -1.5875 v 4.63021 4.63021 h -1.5875 -1.5875 v 1.5875 1.5875 h -7.805208 -7.805208 z m 28.045832,-29.63334 v -3.175 h -4.630208 -4.630208 v 3.175 3.175 h 4.630208 4.630208 z m -24.870832,-4.49791 v -1.5875 h 1.5875 1.5875 v -1.5875 -1.5875 h -3.175 -3.175 v 3.175 3.175 h 1.5875 1.5875 z m 46.778305,34.1974 -0.07935,-1.52136 -1.5213539,-0.0793 -1.521354,-0.0794 v -18.50763 -18.50763 h 1.446543 1.4465429 l 0.07481,2.97656 0.07481,2.97656 1.521354,0.0794 1.521354,0.0793 v -1.6007 -1.6007 h 1.5875 1.5875 v -1.5875 -1.5875 h -3.042708 -3.042708 v -1.5875 -1.5875 H 29.360476 48.0136 v 1.71979 1.71979 h 1.455208 1.455209 v 1.45521 1.45521 h -1.442006 -1.442003 l -0.07935,1.52135 -0.07935,1.52135 -9.326562,0.0695 -9.326562,0.0695 v 3.03933 3.03932 h 9.392708 9.392708 v 1.5875 1.5875 h 1.455208 1.455209 v 1.45521 1.45521 H 49.468808 48.0136 v 1.5875 1.5875 h -9.392708 -9.392708 v 3.175 3.175 h 9.392708 9.392708 v 1.5875 1.5875 h 1.455208 1.455209 v 3.04271 3.04271 H 49.468808 48.0136 v 1.5875 1.5875 H 29.373679 10.73376 Z m 49.741664,0 -0.07935,-1.52136 -1.521354,-0.0793 -1.521354,-0.0794 v -18.50763 -18.50763 h 1.5875 1.5875 v 3.05591 3.05591 l 1.521354,-0.0793 1.521354,-0.0794 0.07935,-1.52135 0.07935,-1.52135 h 1.442003 1.442005 v -1.5875 -1.5875 h -3.042707 -3.042708 v -1.5875 -1.5875 H 79.10214 97.755266 v 1.71979 1.71979 h 1.587499 1.587505 v 1.45521 1.45521 h -1.587505 -1.587499 v 1.5875 1.5875 h -9.39271 -9.392708 v 3.0427 3.04271 h 9.392708 9.39271 v 1.5875 1.5875 h 1.587499 1.587505 v 1.45521 1.45521 h -1.587505 -1.587499 v 1.5875 1.5875 h -9.39271 -9.392708 v 3.175 3.175 h 9.392708 9.39271 v 1.5875 1.5875 h 1.587499 1.587505 v 3.04271 3.04271 h -1.587505 -1.587499 v 1.5875 1.5875 H 79.115343 60.475424 Z m 49.794607,-0.0661 v -1.5875 h -1.5875 -1.5875 v -18.65318 -18.65312 h 1.5875 1.5875 v -1.5875 -1.5875 h 7.80521 7.80521 v 1.5875 1.5875 h 1.45521 1.45521 v 6.2177 6.21771 h 1.5875 1.5875 v 1.5875 1.5875 h 1.5875 1.5875 v -7.80521 -7.8052 h 1.5875 1.5875 v -1.5875 -1.5875 h 4.6302 4.63021 v 1.5875 1.5875 h 1.5875 1.5875 v 18.65312 18.65313 h -1.5875 -1.5875 v 1.5875 1.5875 h -4.63021 -4.6302 v -1.5875 -1.5875 h -1.5875 -1.5875 v -4.63021 -4.63021 h -1.5875 -1.5875 v -1.5875 -1.5875 h -1.5875 -1.5875 v 6.21771 6.21771 h -1.45521 -1.45521 v 1.5875 1.5875 h -7.80521 -7.80521 z m 3.175,-34.13125 v -1.5875 h 1.5875 1.5875 v -1.5875 -1.5875 h -3.175 -3.175 v 3.175 3.175 h 1.5875 1.5875 z m 46.56667,34.1312 v -1.5875 h -1.5875 -1.5875 v -4.63021 -4.63021 h 1.5875 1.5875 v -1.5875 -1.5875 h 12.43541 12.43542 v -1.5875 -1.5875 h -12.43542 -12.43541 v -1.442 -1.44201 l -1.52136,-0.0794 -1.52135,-0.0794 -0.0701,-7.73906 -0.0701,-7.73906 h 1.57829 1.57829 l 0.0794,1.52135 0.0794,1.52135 1.52135,0.0794 1.52136,0.0793 v -1.6007 -1.6007 h 1.5875 1.5875 v -1.5875 -1.5875 h -1.5875 -1.5875 v -1.5875 -1.5875 h 17.06562 17.06563 v 1.5875 1.5875 h 1.5875 1.5875 v 3.0295 3.0295 l -1.52136,0.0794 -1.52135,0.0794 -0.0794,1.52136 -0.0794,1.52135 h -9.24721 -9.24722 v 1.5875 1.5875 h 9.26042 9.26042 v 1.5875 1.5875 h 1.5875 1.5875 v 9.24722 9.24721 l -1.52136,0.0794 -1.52135,0.0794 -0.0794,1.52136 -0.0794,1.52135 h -1.442 -1.44201 v 1.5875 1.5875 h -17.19792 -17.19791 z m 49.74166,0 v -1.5875 h -1.45521 -1.4552 v -18.65313 -18.65312 h 1.44682 1.44679 l 0.0746,3.10885 0.0745,3.10885 1.52136,0.0794 1.52135,0.0793 v -1.6007 -1.6007 h 1.5875 1.5875 v -1.57911 -1.5791 l -3.10885,-0.0745 -3.10886,-0.0745 -0.0793,-1.52135 -0.0794,-1.52136 h 7.81841 7.81841 v 1.5875 1.5875 h 1.5875 1.5875 v 6.21771 6.21771 h 3.175 3.175 v -6.21771 -6.21771 h 1.45521 1.4552 v -1.5875 -1.5875 h 4.7625 4.7625 v 1.5875 1.5875 h 1.45521 1.45521 v 18.65304 18.65313 h -1.45521 -1.45521 v 1.5875 1.5875 h -4.7625 -4.7625 v -1.5875 -1.5875 h -1.45121 -1.45121 l -0.0701,-7.73907 -0.0701,-7.73906 -3.10886,-0.0745 -3.10885,-0.0745 v 7.81361 7.8136 h -1.5875 -1.5875 v 1.5875 1.58751 h -7.80521 -7.80521 z m 52.91667,0 v -1.5875 h -1.44201 -1.442 l -0.0793,-1.52135 -0.0793,-1.52136 -1.52136,-0.0794 -1.52135,-0.0794 v -15.46482 -15.46492 h 1.5875 1.5875 v 1.5875 1.5875 h 1.45521 1.45521 v -1.5875 -1.5875 h 1.5875 1.5875 v -1.5875 -1.5875 h -1.5875 -1.5875 v -1.5875 -1.5875 h 15.61041 15.61042 v 1.71979 1.71979 h 1.5875 1.5875 v 1.45521 1.45521 h 1.5875 1.5875 v 15.47812 15.47813 h -1.5875 -1.5875 v 1.5875 1.5875 h -1.5875 -1.5875 v 1.5875 1.5875 h -15.61052 -15.61041 z m 25.0722,-21.76198 -0.0691,-10.91407 -4.69635,-0.0722 -4.69636,-0.0722 v 10.98632 10.98631 h 4.76544 4.76544 z m 34.19446,21.76198 v -1.5875 h -1.5875 -1.5875 v -14.02292 -14.02292 h -4.63021 -4.63021 v -1.442 -1.44201 l 1.52136,-0.0793 1.52135,-0.0794 0.0793,-1.52135 0.0794,-1.52135 h 1.44201 1.442 v -1.5875 -1.5875 h -3.04271 -3.04271 v 3.0427 3.04271 h -1.5875 -1.5875 v -3.04271 -3.0427 h 1.5875 1.5875 v -1.5875 -1.5875 h 18.65313 18.65312 v 1.5875 1.5875 h 1.5875 1.5875 v 3.0427 3.04271 h -1.5875 -1.5875 v 1.5875 1.5875 h -4.63021 -4.6302 v 14.02292 14.02292 h -1.5875 -1.5875 v 1.5875 1.5875 h -6.21771 -6.21771 z m 37.30625,0 v -1.5875 h -1.5875 -1.5875 v -4.63021 -4.63021 h 1.5875 1.5875 v -1.5875 -1.5875 h 12.43541 12.43542 v -1.5875 -1.5875 H 371.599 359.16359 v -1.442 -1.44201 l -1.52136,-0.0794 -1.52135,-0.0794 -0.0701,-7.73906 -0.0701,-7.73906 h 1.57829 1.57829 l 0.0793,1.52135 0.0794,1.52135 h 1.45521 1.45521 l 0.0793,-1.52135 0.0793,-1.52135 h 1.5743 1.5743 v -1.5875 -1.5875 h -1.5875 -1.5875 v -1.5875 -1.5875 h 17.06562 17.06563 v 1.5875 1.5875 h 1.5875 1.5875 v 3.0295 3.0295 l -1.52136,0.0794 -1.52135,0.0794 -0.0793,1.52136 -0.0794,1.52135 h -9.24721 -9.24722 v 1.5875 1.5875 h 9.26042 9.26042 v 1.5875 1.5875 h 1.5875 1.5875 v 9.24722 9.24721 l -1.52136,0.0794 -1.52135,0.0794 -0.079,1.50854 -0.0789,1.50853 -1.50855,0.079 -1.50852,0.079 -0.0793,1.52136 -0.0793,1.52135 h -17.05254 -17.05242 z"
         id="path854" />
      <path
         style="fill:#aa4400;stroke-width:0.264583"
         d="m -138.78222,191.41991 v -1.5875 h -1.5875 -1.5875 v -4.63021 -4.63021 h 1.5875 1.5875 v -1.5875 -1.5875 h 12.43542 12.43541 v -1.5875 -1.5875 h -12.43541 -12.43542 v -1.45521 -1.45521 h -1.5875 -1.5875 v -7.80521 -7.8052 h 1.5875 1.5875 v 1.6007 1.6007 l 1.52135,-0.0793 1.52136,-0.0794 0.0793,-1.52135 0.0794,-1.52135 h 1.442 1.44201 v -1.5875 -1.5875 h -1.45521 -1.45521 v -1.5875 -1.5875 h 17.06562 17.06563 v 1.5875 1.5875 h 1.5875 1.5875 v 3.0427 3.04271 h -1.5875 -1.5875 v 1.58412 1.58411 l -9.32656,0.0695 -9.32657,0.0695 -0.0794,1.52136 -0.0794,1.52135 h 9.40592 9.40591 v 1.5875 1.5875 h 1.5875 1.5875 v 9.26042 9.26042 h -1.5875 -1.5875 v 1.5875 1.5875 h -1.5875 -1.5875 v 1.5875 1.5875 h -17.06563 -17.06562 z m 52.863717,0.0661 -0.07935,-1.52136 -1.521354,-0.0793 -1.521354,-0.0794 v -1.57429 -1.5743 h -1.587499 -1.5875 v -15.47808 -15.47812 h 1.5875 1.587499 v 1.5875 1.5875 h 1.5875 1.5875 v -1.5875 -1.5875 h 1.600703 1.600705 l -0.07935,-1.52136 -0.07935,-1.52135 -1.521354,-0.0794 -1.521354,-0.0794 v -1.5743 -1.57429 h 17.065624 17.065624 v 1.5875 1.5875 h 1.5875 1.5875 v 1.5875 1.5875 h -1.5875 -1.5875 v 1.4552 1.45521 h -9.260416 -9.260416 v 10.98021 10.98021 h 9.260416 9.260416 v 1.5875 1.5875 h 1.5875 1.5875 v 3.02951 3.0295 l -1.521354,0.0794 -1.521354,0.0793 -0.07935,1.52136 -0.07935,1.52135 h -17.039216 -17.039216 z m 46.619607,-0.0661 v -1.5875 h -1.455208 -1.455208 v -18.65313 -18.65312 h 1.455208 1.455208 v -1.5875 -1.5875 h 17.197916 17.197916 v 1.5875 1.5875 h 1.455208 1.455208 v 1.5875 1.5875 h 1.5875 1.5874998 v 6.2177 6.21771 h -1.5874998 -1.5875 v 1.45521 1.45521 h -1.455208 -1.455208 v 1.71979 1.71979 h 1.455208 1.455208 v 1.45521 1.45521 h 1.5875 1.5874998 v 6.21771 6.21771 h -1.5874998 -1.5875 v 1.5875 1.5875 h -3.042708 -3.042708 v -1.5875 -1.5875 h -1.5875 -1.5875 v -1.5875 -1.5875 h -1.5875 -1.5875 v -1.5875 -1.5875 h -1.455208 -1.455208 v -1.45521 -1.45521 h -1.5875 -1.5875 v 4.63021 4.63021 h -1.5875 -1.5875 v 1.5875 1.5875 h -7.805208 -7.805208 z m 28.045832,-29.63334 v -3.175 h -4.630208 -4.630208 v 3.175 3.175 h 4.630208 4.630208 z m -24.870832,-4.49791 v -1.5875 h 1.5875 1.5875 v -1.5875 -1.5875 h -3.175 -3.175 v 3.175 3.175 h 1.5875 1.5875 z m 46.778305,34.1974 -0.07935,-1.52136 -1.5213541,-0.0793 -1.5213541,-0.0794 v -18.50763 -18.50763 h 1.4465431 1.4465431 l 0.07481,2.97656 0.07481,2.97656 1.521354,0.0794 1.521354,0.0793 v -1.6007 -1.6007 h 1.5875 1.5875 v -1.5875 -1.5875 h -3.042708 -3.042708 v -1.5875 -1.5875 H 29.360476 48.0136 v 1.71979 1.71979 h 1.455208 1.455209 v 1.45521 1.45521 h -1.442006 -1.442003 l -0.07935,1.52135 -0.07935,1.52135 -9.326562,0.0695 -9.326562,0.0695 v 3.03933 3.03932 h 9.392708 9.392708 v 1.5875 1.5875 h 1.455208 1.455209 v 1.45521 1.45521 H 49.468808 48.0136 v 1.5875 1.5875 h -9.392708 -9.392708 v 3.175 3.175 h 9.392708 9.392708 v 1.5875 1.5875 h 1.455208 1.455209 v 3.04271 3.04271 H 49.468808 48.0136 v 1.5875 1.5875 H 29.373679 10.73376 Z m 49.741664,0 -0.07935,-1.52136 -1.521354,-0.0793 -1.521354,-0.0794 v -18.50763 -18.50763 h 1.5875 1.5875 v 3.05591 3.05591 l 1.521354,-0.0793 1.521354,-0.0794 0.07935,-1.52135 0.07935,-1.52135 h 1.442003 1.442005 v -1.5875 -1.5875 h -3.042707 -3.042708 v -1.5875 -1.5875 H 79.10214 97.755266 v 1.71979 1.71979 h 1.587499 1.587505 v 1.45521 1.45521 h -1.587505 -1.587499 v 1.5875 1.5875 h -9.39271 -9.392708 v 3.0427 3.04271 h 9.392708 9.39271 v 1.5875 1.5875 h 1.587499 1.587505 v 1.45521 1.45521 h -1.587505 -1.587499 v 1.5875 1.5875 h -9.39271 -9.392708 v 3.175 3.175 h 9.392708 9.39271 v 1.5875 1.5875 h 1.587499 1.587505 v 3.04271 3.04271 h -1.587505 -1.587499 v 1.5875 1.5875 H 79.115343 60.475424 Z m 49.794607,-0.0661 v -1.5875 h -1.5875 -1.5875 v -18.65318 -18.65312 h 1.5875 1.5875 v -1.5875 -1.5875 h 7.80521 7.80521 v 1.5875 1.5875 h 1.45521 1.45521 v 6.2177 6.21771 h 1.5875 1.5875 v 1.5875 1.5875 h 1.5875 1.5875 v -7.80521 -7.8052 h 1.5875 1.5875 v -1.5875 -1.5875 h 4.6302 4.63021 v 1.5875 1.5875 h 1.5875 1.5875 v 18.65312 18.65313 h -1.5875 -1.5875 v 1.5875 1.5875 h -4.63021 -4.6302 v -1.5875 -1.5875 h -1.5875 -1.5875 v -4.63021 -4.63021 h -1.5875 -1.5875 v -1.5875 -1.5875 h -1.5875 -1.5875 v 6.21771 6.21771 h -1.45521 -1.45521 v 1.5875 1.5875 h -7.80521 -7.80521 z m 3.175,-34.13125 v -1.5875 h 1.5875 1.5875 v -1.5875 -1.5875 h -3.175 -3.175 v 3.175 3.175 h 1.5875 1.5875 z m 46.56667,34.1312 v -1.5875 h -1.5875 -1.5875 v -4.63021 -4.63021 h 1.5875 1.5875 v -1.5875 -1.5875 h 12.43541 12.43542 v -1.5875 -1.5875 h -12.43542 -12.43541 v -1.442 -1.44201 l -1.52136,-0.0794 -1.52135,-0.0794 -0.0701,-7.73906 -0.0701,-7.73906 h 1.57829 1.57829 l 0.0794,1.52135 0.0794,1.52135 1.52135,0.0794 1.52136,0.0793 v -1.6007 -1.6007 h 1.5875 1.5875 v -1.5875 -1.5875 h -1.5875 -1.5875 v -1.5875 -1.5875 h 17.06562 17.06563 v 1.5875 1.5875 h 1.5875 1.5875 v 3.0295 3.0295 l -1.52136,0.0794 -1.52135,0.0794 -0.0794,1.52136 -0.0794,1.52135 h -9.24721 -9.24722 v 1.5875 1.5875 h 9.26042 9.26042 v 1.5875 1.5875 h 1.5875 1.5875 v 9.24722 9.24721 l -1.52136,0.0794 -1.52135,0.0794 -0.0794,1.52136 -0.0794,1.52135 h -1.442 -1.44201 v 1.5875 1.5875 h -17.19792 -17.19791 z m 49.74166,0 v -1.5875 h -1.45521 -1.4552 v -18.65313 -18.65312 h 1.44682 1.44679 l 0.0746,3.10885 0.0745,3.10885 1.52136,0.0794 1.52135,0.0793 v -1.6007 -1.6007 h 1.5875 1.5875 v -1.57911 -1.5791 l -3.10885,-0.0745 -3.10886,-0.0745 -0.0793,-1.52135 -0.0794,-1.52136 h 7.81841 7.81841 v 1.5875 1.5875 h 1.5875 1.5875 v 6.21771 6.21771 h 3.175 3.175 v -6.21771 -6.21771 h 1.45521 1.4552 v -1.5875 -1.5875 h 4.7625 4.7625 v 1.5875 1.5875 h 1.45521 1.45521 v 18.65304 18.65313 h -1.45521 -1.45521 v 1.5875 1.5875 h -4.7625 -4.7625 v -1.5875 -1.5875 h -1.45121 -1.45121 l -0.0701,-7.73907 -0.0701,-7.73906 -3.10886,-0.0745 -3.10885,-0.0745 v 7.81361 7.8136 h -1.5875 -1.5875 v 1.5875 1.58751 h -7.80521 -7.80521 z m 52.91667,0 v -1.5875 h -1.44201 -1.442 l -0.0793,-1.52135 -0.0793,-1.52136 -1.52136,-0.0794 -1.52135,-0.0794 v -15.46482 -15.46492 h 1.5875 1.5875 v 1.5875 1.5875 h 1.45521 1.45521 v -1.5875 -1.5875 h 1.5875 1.5875 v -1.5875 -1.5875 h -1.5875 -1.5875 v -1.5875 -1.5875 h 15.61041 15.61042 v 1.71979 1.71979 h 1.5875 1.5875 v 1.45521 1.45521 h 1.5875 1.5875 v 15.47812 15.47813 h -1.5875 -1.5875 v 1.5875 1.5875 h -1.5875 -1.5875 v 1.5875 1.5875 h -15.61052 -15.61041 z m 25.0722,-21.76198 -0.0691,-10.91407 -4.69635,-0.0722 -4.69636,-0.0722 v 10.98632 10.98631 h 4.76544 4.76544 z m 34.19446,21.76198 v -1.5875 h -1.5875 -1.5875 v -14.02292 -14.02292 h -4.63021 -4.63021 v -1.442 -1.44201 l 1.52136,-0.0793 1.52135,-0.0794 0.0793,-1.52135 0.0794,-1.52135 h 1.44201 1.442 v -1.5875 -1.5875 h -3.04271 -3.04271 v 3.0427 3.04271 h -1.5875 -1.5875 v -3.04271 -3.0427 h 1.5875 1.5875 v -1.5875 -1.5875 h 18.65313 18.65312 v 1.5875 1.5875 h 1.5875 1.5875 v 3.0427 3.04271 h -1.5875 -1.5875 v 1.5875 1.5875 h -4.63021 -4.6302 v 14.02292 14.02292 h -1.5875 -1.5875 v 1.5875 1.5875 h -6.21771 -6.21771 z m 37.30625,0 v -1.5875 h -1.5875 -1.5875 v -4.63021 -4.63021 h 1.5875 1.5875 v -1.5875 -1.5875 h 12.43541 12.43542 v -1.5875 -1.5875 H 371.599 359.16359 v -1.442 -1.44201 l -1.52136,-0.0794 -1.52135,-0.0794 -0.0701,-7.73906 -0.0701,-7.73906 h 1.57829 1.57829 l 0.0793,1.52135 0.0794,1.52135 h 1.45521 1.45521 l 0.0793,-1.52135 0.0793,-1.52135 h 1.5743 1.5743 v -1.5875 -1.5875 h -1.5875 -1.5875 v -1.5875 -1.5875 h 17.06562 17.06563 v 1.5875 1.5875 h 1.5875 1.5875 v 3.0295 3.0295 l -1.52136,0.0794 -1.52135,0.0794 -0.0793,1.52136 -0.0794,1.52135 h -9.24721 -9.24722 v 1.5875 1.5875 h 9.26042 9.26042 v 1.5875 1.5875 h 1.5875 1.5875 v 9.24722 9.24721 l -1.52136,0.0794 -1.52135,0.0794 -0.079,1.50854 -0.0789,1.50853 -1.50855,0.079 -1.50852,0.079 -0.0793,1.52136 -0.0793,1.52135 h -17.05254 -17.05242 z"
         id="path972" />
    </g>
  </g>
</svg>
