<?xml version="1.0" encoding="UTF-8" standalone="no"?>
<svg
   viewBox="0 0 292.90649 114.04999"
   version="1.1"
   id="svg164"
   sodipodi:docname="jaguar.svg"
   width="292.90649"
   height="114.05"
   inkscape:version="1.1 (c68e22c387, 2021-05-23)"
   xmlns:inkscape="http://www.inkscape.org/namespaces/inkscape"
   xmlns:sodipodi="http://sodipodi.sourceforge.net/DTD/sodipodi-0.dtd"
   xmlns="http://www.w3.org/2000/svg"
   xmlns:svg="http://www.w3.org/2000/svg"
   xmlns:rdf="http://www.w3.org/1999/02/22-rdf-syntax-ns#"
   xmlns:cc="http://creativecommons.org/ns#"
   xmlns:dc="http://purl.org/dc/elements/1.1/">
  <defs
     id="defs168" />
  <sodipodi:namedview
     id="namedview166"
     pagecolor="#ffffff"
     bordercolor="#666666"
     borderopacity="1.0"
     inkscape:pageshadow="2"
     inkscape:pageopacity="0.0"
     inkscape:pagecheckerboard="0"
     showgrid="false"
     fit-margin-top="0"
     fit-margin-left="0"
     fit-margin-right="0"
     fit-margin-bottom="0"
     inkscape:zoom="1.113"
     inkscape:cx="146.0018"
     inkscape:cy="56.603774"
     inkscape:window-width="1920"
     inkscape:window-height="1138"
     inkscape:window-x="-8"
     inkscape:window-y="-8"
     inkscape:window-maximized="1"
     inkscape:current-layer="svg164" />
  <title
     id="title2">logo</title>
  <g
     id="Layer_2"
     data-name="Layer 2"
     transform="translate(-353.57619)">
    <rect
       x="527.17999"
       y="50.880001"
       width="22.799999"
       height="13.5"
       fill="#ffffff"
       id="rect4" />
    <rect
       x="516.65997"
       y="58.380001"
       width="22.67"
       height="36.639999"
       fill="#ffffff"
       id="rect6" />
    <rect
       x="531.15997"
       y="57"
       width="26.5"
       height="40.889999"
       fill="#ffffff"
       id="rect8" />
  </g>
  <g
     id="Layer_1"
     data-name="Layer 1"
     transform="translate(-353.57619)">
    <path
       d="m 592.51,46.62 v 0 0 0 m 0,-7 h -0.16 a 7,7 0 0 0 -6.84,7 v 0 a 7,7 0 1 0 7,-7 z"
       fill="#ffffff"
       id="path11" />
    <path
       d="m 549.46,29.5 c 0.48,0 0.69,0.62 0.35,2.31 -0.23,1.15 -0.75,1.71 -0.75,3 0,2.38 -0.56,2.11 -2.32,2.55 -1.76,0.44 -3.8,3.21 -5.34,3.21 0.06,0 0.46,-1.42 0.69,-1.81 1,-1.63 2,-3.67 3.12,-5.16 0.66,-0.89 3.16,-4.08 4.25,-4.08 m 0,-7 c -3.33,0 -6.19,2 -9.85,6.88 A 38.18,38.18 0 0 0 537,33.62 c -0.29,0.52 -0.58,1 -0.86,1.5 v 0.06 A 13.24,13.24 0 0 0 535,37.69 v 0 a 7,7 0 0 0 6.41,9.82 c 3.29,0 5.62,-1.88 7.15,-3.13 l 0.54,-0.43 c 4.4,-1 6.8,-4 7,-8.69 a 12.46,12.46 0 0 0 0.62,-2.11 c 0.27,-1.36 1,-5 -1.47,-8 a 7.39,7.39 0 0 0 -5.74,-2.71 z"
       fill="#ffffff"
       id="path13" />
    <path
       d="m 437.65,30.28 a 0.17,0.17 0 0 1 0.12,0 c 0.24,0.24 0,4.54 -0.14,5 -0.26,1.33 0.17,5.49 -0.09,6.1 -0.26,0.61 -1.43,1 -2.62,1.62 a 21.92,21.92 0 0 1 -4.54,2.23 c -0.61,0.13 -0.52,1.4 -2.41,1.4 l -0.05,-0.12 h -0.05 c 0,-1.4 3.16,-5.86 3.68,-7.9 v -0.05 c 0.34,-0.17 0.44,-1.31 0.55,-1.39 0.92,-0.69 2.39,-3.92 3.77,-5.3 l 1.49,-1.44 a 0.44,0.44 0 0 1 0.29,-0.14 m 0,-7 a 7.48,7.48 0 0 0 -5.18,2.13 l -1.47,1.42 -0.07,0.07 a 22.44,22.44 0 0 0 -3.11,4.26 c -0.19,0.31 -0.46,0.75 -0.64,1 a 7.19,7.19 0 0 0 -1.85,3.17 6.67,6.67 0 0 0 -0.55,1.45 c -0.23,0.53 -0.85,1.64 -1.23,2.33 -1.49,2.69 -2.67,4.82 -2.67,7.36 a 7.22,7.22 0 0 0 7.1,7.14 9.09,9.09 0 0 0 6.25,-2.34 34.6,34.6 0 0 0 3.14,-1.63 l 0.92,-0.51 0.63,-0.31 a 9.28,9.28 0 0 0 5.08,-4.7 c 0.74,-1.71 0.68,-3.28 0.6,-5.65 0,-0.64 -0.05,-1.7 0,-2.12 0.14,-0.94 0.23,-2.43 0.27,-3.29 0.11,-2.51 0.25,-5.35 -2.1,-7.69 a 7.13,7.13 0 0 0 -5.07,-2.1 z"
       fill="#ffffff"
       id="path15" />
    <path
       d="m 380,88.2 c -9.81,0 -18.9,-7.9 -21.57,-11 a 5.44,5.44 0 0 1 -1.33,-4.14 4.32,4.32 0 0 1 1.6,-3.09 4.39,4.39 0 0 1 2.7,-0.84 5.92,5.92 0 0 1 2,0.34 5,5 0 0 1 1.88,1.4 c 3.39,3.39 6.12,5.11 8.1,5.11 h 0.3 c 16,-1.78 24.13,-30.91 26.73,-46.59 -4.9,0.76 -12.32,1.8 -15.78,1.8 a 5.63,5.63 0 0 1 -4,-1.18 v 0 h -0.11 a 3.5,3.5 0 0 1 -3.25,-2.2 4.2,4.2 0 0 1 0.08,-3.45 4.47,4.47 0 0 1 -0.58,-5.27 4.39,4.39 0 0 1 0.52,-0.7 7.28,7.28 0 0 1 0.12,-0.89 4.56,4.56 0 0 1 2.54,-3.65 7.5,7.5 0 0 1 3,-0.49 c 0.88,0 1.83,0.07 2.75,0.14 0.77,0.05 1.57,0.11 2.16,0.11 a 3.91,3.91 0 0 0 0.48,0 33.06,33.06 0 0 1 3.84,-0.71 24.24,24.24 0 0 0 3.65,-0.7 32.73,32.73 0 0 1 6.49,-1.11 c 1.12,-0.12 2.16,-0.23 3,-0.38 2.14,-0.35 4.3,-0.67 6.4,-1 3,-0.44 6.12,-0.89 9.14,-1.47 l 0.38,-0.26 c 0.92,-0.77 2.18,-1.06 6.78,-1.95 1,-0.19 2.34,-0.45 2.67,-0.54 a 27,27 0 0 1 6,-0.85 24.94,24.94 0 0 0 4.26,-0.5 c 0.74,-0.18 5.46,-0.66 6,-0.66 a 3.54,3.54 0 0 1 2,0.61 3.49,3.49 0 0 1 1.48,2.91 v 0.47 a 4.33,4.33 0 0 1 -3.35,4.37 c -1.18,0.89 -2.69,1 -5,1.08 l -1.26,0.06 a 3.76,3.76 0 0 1 -1.42,2.37 10.17,10.17 0 0 1 -1.33,0.89 l -0.23,0.13 a 4.88,4.88 0 0 1 -2.53,2.57 12,12 0 0 1 -2.46,0.63 l -0.54,0.1 a 6.07,6.07 0 0 1 -1.31,1.12 13,13 0 0 1 -3.84,1.44 8.72,8.72 0 0 0 -1.85,0.6 l -0.1,0.06 a 3.88,3.88 0 0 1 -0.86,1.35 c -0.6,0.65 -1,0.78 -2.64,1.32 l -2.29,0.76 c -2,10.52 -13.17,61.25 -39,61.87 z"
       fill="#ff0000"
       id="path17" />
    <path
       d="m 446.9,7 v 0 0.47 c 0,1.4 -1.25,0.79 -1.76,1.3 L 445,9 c -0.73,0.73 -8.26,0 -10.13,1.86 -1.87,1.86 3.38,0.88 2.28,1.77 A 11.57,11.57 0 0 0 435,14.16 c -0.34,0.39 -0.5,1.3 -1.07,1.53 -1.11,0.44 -2.37,0.43 -3.39,0.84 -0.5,0.2 -1,1 -1.44,1.3 -1.58,1 -4,1 -5.62,2 -0.33,0.19 -1.15,0.08 -1.54,0.32 -0.39,0.24 0.27,1.25 -0.15,1.67 0,0.05 -4.23,1.36 -4.68,1.63 -0.25,0.15 -0.42,0.48 -0.72,0.48 h -0.11 c 0,0 -10.32,60.16 -36,60.77 H 380 c -8.13,0 -16.21,-6.64 -19,-9.76 a 1.78,1.78 0 0 1 -0.23,-2.13 1,1 0 0 1 0.58,-0.13 2.29,2.29 0 0 1 0.74,0.12 c 0.38,0.14 5.84,6.73 11.2,6.73 a 5.37,5.37 0 0 0 0.7,0 c 24.44,-2.72 30.48,-54.27 30.48,-54.27 0,0 -14.85,2.5 -19.92,2.5 -0.92,0 -1.52,-0.08 -1.65,-0.27 l -0.41,-0.33 a 1.29,1.29 0 0 0 -1.16,-0.6 h -0.93 c -0.49,-1.24 1.73,-1.66 1.16,-2.6 -0.36,-0.62 -2.51,-2 -1.9,-3 0.5,-0.83 2.41,-0.27 2.6,-0.74 0.19,-0.47 -0.25,-0.54 -0.47,-0.69 -0.22,-0.15 -0.86,-0.13 -1.06,-0.33 a 2.67,2.67 0 0 1 0.46,-2.05 4.68,4.68 0 0 1 1.66,-0.21 c 1.49,0 3.46,0.25 4.91,0.25 a 5,5 0 0 0 1.33,-0.13 c 2.14,-0.59 5.6,-0.76 7.74,-1.48 2.36,-0.78 6.29,-0.9 9,-1.35 5.43,-0.91 10.92,-1.52 16.36,-2.61 l 1.15,-0.8 c 0.48,-0.48 7,-1.51 8.28,-1.89 2.93,-0.88 7,-0.52 10.08,-1.3 0.35,-0.09 4.78,-0.56 5.18,-0.56 m 0,-7 v 0 a 67.77,67.77 0 0 0 -6.88,0.7 24.73,24.73 0 0 1 -3.65,0.4 30.19,30.19 0 0 0 -6.69,1 c -0.37,0.09 -1.53,0.31 -2.38,0.48 -4.25,0.82 -6.31,1.21 -7.92,2.35 -2.68,0.49 -5.38,0.88 -8.23,1.3 -2.11,0.3 -4.29,0.62 -6.46,1 -0.76,0.13 -1.76,0.23 -2.82,0.35 a 35.37,35.37 0 0 0 -7.23,1.27 25.9,25.9 0 0 1 -3,0.56 39.2,39.2 0 0 0 -3.87,0.69 c -0.46,0 -1.17,-0.06 -1.85,-0.11 -1,-0.07 -2,-0.14 -3,-0.14 a 11.18,11.18 0 0 0 -4.41,0.78 c -1.67,0.71 -3.84,2.37 -4.59,6.2 v 0.18 l -0.17,0.27 a 7.64,7.64 0 0 0 -0.2,7.56 8.08,8.08 0 0 0 0.45,4.25 7,7 0 0 0 5.29,4.3 9.73,9.73 0 0 0 5.36,1.31 102.67,102.67 0 0 0 11.37,-1.16 127.66,127.66 0 0 1 -4.24,15.64 c -2.86,8.23 -9.05,22.18 -18.44,23.28 -0.31,0 -1.9,-0.39 -5.59,-4.09 a 8.37,8.37 0 0 0 -3.13,-2.2 9.34,9.34 0 0 0 -3.2,-0.56 7.87,7.87 0 0 0 -4.78,1.53 h -0.05 a 7.79,7.79 0 0 0 -2.95,5.52 9,9 0 0 0 2.18,6.81 c 3.69,4.19 13.49,12.13 24.2,12.13 h 0.53 c 13.75,-0.33 25.18,-12.14 34,-35.11 a 188,188 0 0 0 8,-27.58 l 0.35,-0.12 a 8.45,8.45 0 0 0 4.07,-2.21 7,7 0 0 0 0.78,-1 l 0.37,-0.09 a 16.13,16.13 0 0 0 4.82,-1.87 8.16,8.16 0 0 0 1.12,-0.84 14,14 0 0 0 2.6,-0.73 8,8 0 0 0 3.85,-3.3 12.59,12.59 0 0 0 1.12,-0.79 7.69,7.69 0 0 0 1.59,-1.74 11.16,11.16 0 0 0 5.43,-1.29 7.82,7.82 0 0 0 5.29,-7.55 V 7 a 7,7 0 0 0 -7,-7 z"
       fill="#ffffff"
       id="path19" />
    <path
       d="m 404.49,86.26 a 3.56,3.56 0 0 1 -3.22,-2.06 c -1,-2 -0.3,-4 0.31,-5.86 a 12.41,12.41 0 0 0 0.45,-1.51 3.48,3.48 0 0 1 0.26,-1.34 4,4 0 0 1 0.39,-1.3 c 0,0 0.08,-0.25 0.13,-0.42 a 8.85,8.85 0 0 1 0.56,-1.51 c 0.44,-0.89 1,-1.82 1.62,-2.8 0.62,-0.98 1.08,-1.76 1.5,-2.57 a 4.51,4.51 0 0 1 0.65,-1.49 70.93,70.93 0 0 0 4.8,-9 c 0.16,-0.32 0.31,-0.64 0.46,-1 a 5,5 0 0 1 -1.41,-3.8 v -0.14 a 3.49,3.49 0 0 1 1.16,-2.6 c 0.05,-0.05 0.09,-0.11 0.15,-0.16 a 4.65,4.65 0 0 1 2.62,-1.26 c 0.49,-0.2 0.83,-0.35 1.08,-0.47 a 53.85,53.85 0 0 1 3.16,-5.36 13.68,13.68 0 0 1 0.75,-2.22 66,66 0 0 1 7.21,-11.05 c 0.07,-0.27 0.16,-0.63 0.22,-0.88 a 10.76,10.76 0 0 1 0.7,-2.24 21.19,21.19 0 0 1 1.74,-2.77 13.28,13.28 0 0 0 1.1,-1.69 c 0.07,-0.14 0.15,-0.33 0.24,-0.53 a 8.75,8.75 0 0 1 2.76,-3.93 7.3,7.3 0 0 1 3.24,-1 h 0.35 a 6.62,6.62 0 0 1 3.49,-0.83 c 0.32,-0.1 1,-0.38 1.42,-0.55 a 8.9,8.9 0 0 1 3.3,-0.92 3.8,3.8 0 0 1 2.56,1 l 1.08,1 0.19,0.17 a 3.83,3.83 0 0 1 1,3 v 0.08 c 1.31,1.2 1.58,2.57 1.58,4.43 0,0.15 -0.71,16.83 -1.53,18.52 a 3.32,3.32 0 0 0 0.35,-1.21 c 0,0.41 -0.12,3.7 -0.12,28.79 v 2.83 a 3.5,3.5 0 0 1 -1,2.48 3.67,3.67 0 0 1 -2.52,1 H 447 a 3.46,3.46 0 0 1 -0.24,0.57 3.54,3.54 0 0 1 -3.14,2 3.51,3.51 0 0 1 -3,-1.7 A 3.81,3.81 0 0 1 440,75 a 4.23,4.23 0 0 1 -0.39,-1.19 3.66,3.66 0 0 1 -1.76,-1 c -1.94,-2 -1.92,-5.11 -1.9,-7.9 0,-0.53 0,-1.22 0,-1.57 a 3,3 0 0 0 -0.19,-0.33 9.73,9.73 0 0 1 -0.87,-1.84 c -0.23,-0.65 -0.23,-0.67 -0.19,-8.76 -0.9,0.33 -1.92,0.68 -3.05,1.06 a 38.58,38.58 0 0 0 -5.13,2 c -0.7,1 -2.38,5.36 -3.5,8.28 -2.32,6 -3.71,9.56 -5.34,11.18 a 7.22,7.22 0 0 0 -0.73,1.48 14,14 0 0 1 -1.16,2.39 4.56,4.56 0 0 1 -1.79,3.81 3.54,3.54 0 0 1 -2.64,1.19 3.86,3.86 0 0 1 -1,-0.15 3.5,3.5 0 0 1 -2.56,1.11 h -0.37 a 3.54,3.54 0 0 1 -2.94,1.5 z"
       fill="#ff0000"
       id="path21" />
    <path
       d="m 445.68,16.55 a 0.28,0.28 0 0 1 0.22,0.07 l 1.12,1 a 10.57,10.57 0 0 0 0.14,2.38 c 1.09,1.08 1.44,0.57 1.44,2.69 0,1.71 -1,16.56 -1.16,17 -0.16,0.44 -0.14,24.7 -0.14,29.14 v 2.83 h -0.05 c -0.17,0 -0.55,-0.34 -0.65,-0.44 -0.1,-0.1 -0.82,-1.83 -1.42,-1.83 a 0.34,0.34 0 0 0 -0.25,0.11 c -0.41,0.41 -0.39,1.81 -0.7,2.42 -0.31,0.61 -0.26,1.63 -0.56,2.23 -0.3,0.6 -0.08,-0.22 -0.12,-0.3 -0.04,-0.08 -0.32,-0.22 -0.42,-0.42 -0.19,-0.37 0.16,-1 -0.14,-1.25 -0.14,-0.14 -1.38,-4.49 -1.54,-4.65 a 0.09,0.09 0 0 0 -0.07,0 c -0.15,0 -0.21,0.61 -0.21,0.87 a 5.69,5.69 0 0 1 -0.69,1.72 c 0,0 0,0.33 -0.06,0.33 a 0.15,0.15 0 0 1 -0.08,0 c -1.43,-1.43 -0.58,-6.67 -1,-8 -0.29,-0.86 -0.82,-1.37 -1.12,-2.27 -0.07,-0.2 0,-9.09 0,-10.22 0,-0.35 0,-2.76 -0.67,-2.76 a 0.65,0.65 0 0 0 -0.44,0.25 c -1.8,1.79 -11.26,3.82 -13,5.57 -2.22,2.21 -6.56,17.19 -8.88,19.52 -1.38,1.38 -1.59,3.82 -2.93,5.15 -0.35,0.35 0.62,1.77 -0.7,2.42 -0.1,0 -0.16,0.3 -0.24,0.3 v 0 a 4.27,4.27 0 0 1 0.28,-1 c 0.48,-1.44 0.72,-4.07 -0.28,-5.07 0,0 0,0 -0.08,0 -0.08,0 -0.22,0.38 -0.33,0.61 L 410,76.33 a 19.86,19.86 0 0 1 -1.11,1.86 c -0.35,0.34 -0.08,1 -0.42,1.39 l -0.23,0.23 v 0 c 0,0 0.06,0 -0.08,0.33 -0.14,0.33 -0.06,0.4 -0.14,0.56 l -0.14,0.28 -0.19,0.28 v -0.7 l 0.19,-0.42 c 0.07,-0.21 -0.07,-0.49 0,-0.7 a 3.79,3.79 0 0 0 0.14,-1.39 c 0,-0.43 -0.05,-0.58 -0.15,-0.58 -0.1,0 -0.46,0.45 -0.87,0.72 -0.18,0.12 -0.72,2.68 -1,3.07 -0.28,0.39 -1,0.68 -1.39,1 -0.16,0.11 -0.13,0.53 -0.2,0.53 -0.07,0 0,0 -0.08,-0.11 -0.6,-1.2 1.11,-4.12 1.11,-5.76 v 0 c 0.1,0 0.23,-1.07 0.26,-1.14 0.34,-0.68 0.4,-1.35 0.7,-2 0.79,-1.58 2.29,-3.69 3.25,-5.62 a 8.27,8.27 0 0 1 0.28,-0.84 c 2.76,-4.13 4.6,-8.58 6.74,-12.87 a 3.64,3.64 0 0 0 0.14,-1.44 0.51,0.51 0 0 0 -0.38,-0.13 c -0.35,0 -0.8,0.19 -1.2,0.19 -0.4,0 -0.84,-0.27 -0.84,-1.45 v -0.14 l 0.19,-0.07 c 0,0 -0.11,0 0.09,-0.21 0.2,-0.21 0.88,-0.24 1.3,-0.42 0.42,-0.18 2.53,-1 2.65,-1.39 a 45.87,45.87 0 0 1 3.62,-6.19 c 0,0 0.56,-1.94 0.7,-2.23 1.24,-2.47 5,-8.58 7,-10.64 0.43,-0.43 0.78,-2.86 1.11,-3.53 0.84,-1.66 2.05,-2.88 2.84,-4.46 0.41,-0.83 1.07,-2.62 1.81,-3.11 a 4.57,4.57 0 0 1 1.3,-0.44 h 0.09 v 0.42 c 0,0.53 0,0.54 0.28,0.84 0.06,0.05 0.16,0.15 0.23,0.15 0.07,0 0,0 0,0 1.35,-1.35 0.68,-2.23 3.39,-2.23 1.12,0 3.69,-1.46 4.52,-1.46 M 428,46.64 c 1.89,0 1.8,-1.27 2.41,-1.4 A 21.92,21.92 0 0 0 434.92,43 c 1.19,-0.64 2.34,-1 2.62,-1.62 0.28,-0.62 -0.17,-4.77 0.09,-6.1 0.09,-0.42 0.38,-4.72 0.14,-5 a 0.17,0.17 0 0 0 -0.12,0 0.44,0.44 0 0 0 -0.29,0.14 l -1.49,1.44 c -1.38,1.38 -2.85,4.61 -3.77,5.3 -0.11,0.08 -0.21,1.22 -0.55,1.39 v 0.05 c -0.52,2 -3.68,6.5 -3.68,7.9 h 0.05 l 0.05,0.12 M 445.68,9.55 a 11.76,11.76 0 0 0 -4.63,1.19 l -0.75,0.3 a 10.58,10.58 0 0 0 -3.66,0.81 11,11 0 0 0 -4.71,1.6 11.83,11.83 0 0 0 -4,5.41 c -0.07,0.15 -0.13,0.29 -0.19,0.4 a 9.64,9.64 0 0 1 -0.81,1.22 24.16,24.16 0 0 0 -2,3.24 14,14 0 0 0 -1,3 v 0 a 73.81,73.81 0 0 0 -7.15,11.14 13.89,13.89 0 0 0 -0.83,2.3 c -0.81,1.2 -1.69,2.7 -2.42,4 a 7.94,7.94 0 0 0 -3.71,2.07 l -0.14,0.14 a 7,7 0 0 0 -2.19,5.09 v 0.14 a 9.48,9.48 0 0 0 0.88,4.12 61.82,61.82 0 0 1 -4.16,7.7 7.73,7.73 0 0 0 -1,2.11 c -0.34,0.62 -0.78,1.33 -1.21,2 -0.62,1 -1.26,2 -1.77,3.07 a 12,12 0 0 0 -0.79,2.11 v 0.09 a 7.59,7.59 0 0 0 -0.54,1.78 7.34,7.34 0 0 0 -0.34,1.69 c -0.06,0.23 -0.19,0.6 -0.28,0.87 -0.7,2.1 -1.76,5.27 -0.11,8.56 a 7.08,7.08 0 0 0 6.34,4 7,7 0 0 0 4.5,-1.61 7.25,7.25 0 0 0 2.3,-0.85 v 0 a 7,7 0 0 0 5.09,-2.18 7.93,7.93 0 0 0 2.81,-5.33 c 0.41,-0.77 0.71,-1.49 0.95,-2.07 0.09,-0.22 0.2,-0.49 0.29,-0.68 2,-2.16 3.37,-5.72 5.81,-12.07 0.83,-2.18 2,-5.29 2.78,-6.87 0.58,-0.23 1.35,-0.51 2.11,-0.77 0,3.8 0.09,4.08 0.41,5 a 12.84,12.84 0 0 0 0.88,2 v 0.57 c 0,3.13 -0.05,7.42 2.92,10.4 a 7.35,7.35 0 0 0 1.41,1.1 l 0.06,0.13 v 0.07 a 6.9,6.9 0 0 0 1,1.45 7,7 0 0 0 11.41,0.29 7,7 0 0 0 5,-6.73 v -2.79 c 0,-18.12 0.05,-26.35 0.1,-28.26 0.19,-1.32 0.36,-3.63 0.68,-8.4 0.05,-0.8 0.52,-7.86 0.52,-9.44 A 9.29,9.29 0 0 0 454,16.85 6.85,6.85 0 0 0 452,12.64 c -0.11,-0.11 -0.22,-0.22 -0.34,-0.32 l -1.05,-0.92 a 7.29,7.29 0 0 0 -4.89,-1.85 z"
       fill="#ffffff"
       id="path23" />
    <path
       d="m 469.35,74.26 c -4.47,0 -5.78,-0.66 -6.57,-1.38 A 7.09,7.09 0 0 0 462.06,72.67 8.23,8.23 0 0 1 459,71.38 c -0.08,-0.07 -7.57,-6.08 -8.19,-8.2 a 20,20 0 0 0 -1.3,-3 3.71,3.71 0 0 1 -0.29,-0.85 83.55,83.55 0 0 1 -1.38,-8.78 c -0.78,-10.43 4.44,-22.08 13.3,-29.68 0.2,-0.17 0.51,-0.5 0.8,-0.81 a 10.24,10.24 0 0 1 3.52,-2.75 29.8,29.8 0 0 1 2.86,-1 c 0.5,-0.14 1,-0.29 1.57,-0.47 0.57,-0.18 1.1,-0.32 1.6,-0.45 a 9.6,9.6 0 0 0 1.29,-0.37 4.41,4.41 0 0 1 2.18,-0.63 h 0.38 a 5.22,5.22 0 0 1 0.69,0.11 l 0.37,0.07 a 3.7,3.7 0 0 1 2,0.74 c 0.18,0.14 0.41,0.34 0.65,0.56 h 0.08 a 3.49,3.49 0 0 1 3.32,2.39 15,15 0 0 0 0.84,1.42 2,2 0 0 1 0.33,0.09 h 0.05 a 3.51,3.51 0 0 1 3.38,3.5 4,4 0 0 1 -0.77,2.35 4.14,4.14 0 0 1 -0.13,1.6 4.83,4.83 0 0 1 -3.84,3.35 8.21,8.21 0 0 1 -2,0.22 h -0.79 -0.54 a 1.57,1.57 0 0 0 -0.3,0 13.1,13.1 0 0 0 -1.31,0.7 14.15,14.15 0 0 1 -3.51,1.55 v 0 c -5.91,2.14 -12.3,11 -12.3,17.15 v 0.28 c 0,4.08 2.47,8.4 5.51,9.62 a 6.45,6.45 0 0 1 1.58,1 h 0.06 c 0.3,0.07 0.57,0.16 0.82,0.23 a 5.91,5.91 0 0 0 0.57,0.16 v 0 c 0.25,0 0.63,0 1.36,0.12 0.49,0.05 1.17,0.13 1.66,0.16 l 0.51,-0.24 c -0.94,-3.13 -0.07,-7.68 0.41,-9.71 v 0 c -0.6,0.32 -1.18,0.61 -1.75,0.9 -0.57,0.29 -1.25,0.62 -1.87,1 l -0.1,0.07 a 9.18,9.18 0 0 1 -4.35,1.61 3.77,3.77 0 0 1 -3.4,-2.06 3.69,3.69 0 0 1 1.16,-4.59 13.5,13.5 0 0 1 1.27,-1.25 c 0.1,-0.17 0.23,-0.43 0.32,-0.61 a 8.28,8.28 0 0 1 2.09,-2.88 33.67,33.67 0 0 1 10.74,-5.28 3.48,3.48 0 0 1 0.38,-0.2 l 1.35,-0.6 a 4.57,4.57 0 0 1 3.52,-1.76 4,4 0 0 1 2.51,0.88 6.56,6.56 0 0 1 0.82,-0.06 4,4 0 0 1 4.08,4.27 v 1.25 a 3.59,3.59 0 0 1 -0.44,1.7 c 0,0.12 0,0.25 0,0.35 a 7.21,7.21 0 0 1 -0.47,2.87 c -0.3,0.95 -1.55,5.79 -1.7,6.49 v 0 a 20.68,20.68 0 0 1 -0.68,3.23 c -0.12,1.12 -0.22,6.54 -0.22,8.08 a 9.55,9.55 0 0 0 0.65,3 l 0.05,0.14 a 9.25,9.25 0 0 1 0.31,1.06 3.57,3.57 0 0 1 -0.75,3.56 0.6,0.6 0 0 0 -0.08,0.08 3.69,3.69 0 0 1 -2.63,1.1 3.85,3.85 0 0 1 -2.63,-1.06 11.09,11.09 0 0 1 -3.35,-2.6 l -0.11,0.06 a 7.87,7.87 0 0 0 -1.68,1.52 c -1,1.29 -2.65,2.15 -7.71,2.15 z"
       fill="#ff0000"
       id="path25" />
    <path
       d="m 475,17.91 h 0.17 a 3.71,3.71 0 0 1 0.84,0.23 l 0.1,0.05 c 0.06,0 0,-0.1 0.08,-0.1 a 0.29,0.29 0 0 1 0.1,0 12.46,12.46 0 0 0 1.48,1.21 0.93,0.93 0 0 0 0.42,0.07 h 0.56 0.37 a 11.94,11.94 0 0 0 2.23,3.44 c 0.34,0.2 1.09,0.19 1.54,0.42 h 0.16 0.14 a 0.39,0.39 0 0 1 0.16,0 h 0.19 c 0,0.73 -1.82,1.25 -1.3,1.77 0.77,0.77 0.94,1.7 -0.79,2.14 a 5,5 0 0 1 -1.16,0.11 h -1.33 a 4.05,4.05 0 0 0 -1.51,0.24 c -1.46,0.58 -2.93,1.75 -4.46,2.14 h -0.05 C 465.61,32.11 458,42.43 458,50.22 v 0.28 c 0,5.13 3,11 7.71,12.87 0.64,0.26 1.15,1 1.95,1.11 a 12.6,12.6 0 0 0 2.28,0.51 c 0.44,0 2.5,0.31 3.55,0.31 a 1.28,1.28 0 0 0 0.58,-0.08 c 1.07,-0.6 2.25,-1 3.3,-1.67 0.56,-0.37 0.13,-2.21 -0.09,-2.32 -1.19,-0.6 -0.14,-7.94 0.33,-9.34 0.38,-1.16 1.2,-3 0.55,-3.62 l -0.18,-0.19 a 3.08,3.08 0 0 0 -0.81,-0.15 h -0.08 a 5,5 0 0 1 -2.42,0.39 h -0.91 a 2.4,2.4 0 0 0 -0.8,0.07 c -1.42,0.81 -2.86,1.45 -4.28,2.23 a 9.49,9.49 0 0 1 -2.75,1.24 0.29,0.29 0 0 1 -0.27,-0.12 c -0.06,-0.12 0.3,-0.35 0.37,-0.42 a 9.61,9.61 0 0 1 1.3,-1.16 c 0.83,-0.49 1.43,-2.76 2.28,-3.44 a 30.48,30.48 0 0 1 10,-4.79 h 0.13 a 0.12,0.12 0 0 0 0.1,0 l 0.09,-0.19 1.77,-0.79 c 0.61,-0.3 0.95,-1.15 1.58,-1.25 h 0.09 c 0.46,0 0.68,0.62 1,0.8 a 2,2 0 0 0 0.87,0.19 c 0.55,0 1.06,-0.17 1.43,-0.17 0.37,0 0.58,0.15 0.58,0.77 v 1.21 c -0.76,0.76 -0.21,2.69 -0.65,3.58 -0.22,0.43 -1.91,7 -1.91,7.2 0,0.2 -0.62,3 -0.65,3.07 -0.23,0.29 -0.32,7.86 -0.32,8.87 a 12.82,12.82 0 0 0 0.83,4.14 4.59,4.59 0 0 1 0.28,1 c 0,0.17 0.15,0.18 0.09,0.24 a 0.21,0.21 0 0 1 -0.15,0.07 c -0.27,0 -0.55,-0.51 -0.64,-0.54 -2.44,-0.7 -4.8,-4.76 -4.88,-4.79 a 0.9,0.9 0 0 0 -0.34,-0.07 c -0.89,0 -0.92,1.73 -1.79,2.17 A 10.53,10.53 0 0 0 474.26,70 c -0.39,0.52 -2.7,0.75 -4.91,0.75 -2,0 -3.93,-0.19 -4.26,-0.52 -1,-1 -2.92,-0.87 -4,-1.67 -0.61,-0.46 -6.82,-6 -6.92,-6.36 a 26,26 0 0 0 -1.54,-3.63 84,84 0 0 1 -1.31,-8.32 c -0.78,-10.4 5,-20.68 12.09,-26.76 1,-0.87 2.14,-2.49 3.35,-3 1.44,-0.57 2.69,-0.83 4.23,-1.34 a 28.53,28.53 0 0 0 3.39,-1 1.47,1.47 0 0 1 0.57,-0.24 m 0,-7 a 7.68,7.68 0 0 0 -3.63,0.93 l -0.68,0.18 c -0.53,0.13 -1.19,0.29 -1.88,0.52 -0.45,0.15 -0.92,0.29 -1.42,0.43 a 31.48,31.48 0 0 0 -3.17,1 13.47,13.47 0 0 0 -4.8,3.62 c -0.19,0.2 -0.44,0.47 -0.54,0.56 -9.66,8.28 -15.35,21.08 -14.49,32.58 a 85.54,85.54 0 0 0 1.45,9.27 6.93,6.93 0 0 0 0.59,1.71 18,18 0 0 1 1.06,2.41 c 0.63,2.17 1.71,3.15 5.3,6.41 0.55,0.5 3.34,3 4.15,3.63 a 11.78,11.78 0 0 0 4.29,1.89 c 1.78,1.23 4.17,1.7 8.17,1.7 4,0 7.34,-0.46 9.57,-2.51 a 13.19,13.19 0 0 0 1.35,0.83 7.23,7.23 0 0 0 9.67,-0.52 l 0.14,-0.14 a 7,7 0 0 0 1.52,-7.18 c -0.1,-0.35 -0.2,-0.68 -0.31,-1 v -0.08 a 7.15,7.15 0 0 1 -0.48,-2 c 0,-1.3 0.08,-5.8 0.18,-7.38 a 20.7,20.7 0 0 0 0.66,-3.24 c 0.2,-0.85 1.24,-4.88 1.57,-6 a 10.11,10.11 0 0 0 0.67,-3.63 7.11,7.11 0 0 0 0.45,-2.47 v -1.18 a 7.51,7.51 0 0 0 -7.51,-7.77 6.48,6.48 0 0 0 -1.15,-0.47 8,8 0 0 0 3.82,-4.81 7.44,7.44 0 0 0 0.27,-1.6 7.36,7.36 0 0 0 0.76,-3.29 7,7 0 0 0 -5,-6.71 7,7 0 0 0 -5.07,-4.06 7.27,7.27 0 0 0 -3.51,-1.4 h -0.12 a 6.76,6.76 0 0 0 -1.34,-0.19 h -0.5 z"
       fill="#ffffff"
       id="path27" />
    <path
       d="m 509.79,87.34 a 3.83,3.83 0 0 1 -2.79,-1.11 4.39,4.39 0 0 1 -0.57,-0.77 3.45,3.45 0 0 1 -0.85,-1.15 2.89,2.89 0 0 1 -0.36,-0.8 4.28,4.28 0 0 1 -0.35,-2 v -0.14 c 0,-2.11 1.87,-4.36 2.62,-5.16 0.22,-0.4 0.6,-1.18 1,-2.06 a 5.42,5.42 0 0 1 -2.07,-0.84 l -0.1,-0.06 a 8.29,8.29 0 0 1 -1.75,-1.48 4.93,4.93 0 0 1 -1.43,-2.25 3.45,3.45 0 0 1 -0.69,-2.09 0.66,0.66 0 0 1 0,-0.15 3,3 0 0 1 -0.6,0.35 c -0.66,0.37 -3.37,2 -3.8,2.34 a 8.27,8.27 0 0 1 -4.74,1.36 c -0.68,0 -1.3,-0.06 -1.84,-0.11 -0.33,0 -0.65,-0.07 -0.95,-0.07 h -0.09 a 3.52,3.52 0 0 1 -3.68,-1.07 l -0.18,-0.18 a 4.12,4.12 0 0 1 -0.81,-1.16 4.66,4.66 0 0 1 -1.59,-1.85 c -0.22,-0.34 -0.38,-0.65 -0.49,-0.86 a 9.29,9.29 0 0 1 -0.55,-4.12 c 0,-0.5 0,-1 -0.05,-1.63 a 26.32,26.32 0 0 1 0.09,-5.11 c 0.12,-0.78 1.24,-7.69 2.74,-10.68 a 31.27,31.27 0 0 0 1.54,-4.19 31.69,31.69 0 0 1 1.62,-4.36 c 0.39,-0.78 0.84,-1.58 1.29,-2.37 l 0.74,-1.34 a 4.11,4.11 0 0 1 0.18,-1.36 c 0,-0.13 2.59,-7.29 3.41,-8.51 0.07,-0.13 0.16,-0.35 0.26,-0.57 a 9.1,9.1 0 0 1 1.17,-2.05 14,14 0 0 1 2,-3.77 c 0.14,-0.2 0.27,-0.38 0.36,-0.53 a 6.48,6.48 0 0 1 1.61,-2.12 l 0.12,-0.12 a 3.55,3.55 0 0 1 1.57,-1 5.22,5.22 0 0 1 1.75,-1.08 10,10 0 0 1 2.92,-0.44 4.54,4.54 0 0 1 4.19,2 3.27,3.27 0 0 1 0.3,0.59 3.53,3.53 0 0 1 0.45,1.06 l 0.07,0.17 c 0.11,0.31 0.21,0.6 0.29,0.87 l 0.09,0.17 a 3.53,3.53 0 0 1 0.82,1.12 3.53,3.53 0 0 1 0.77,0.67 3.47,3.47 0 0 1 1.26,2.67 4.74,4.74 0 0 1 -0.76,2.38 c -0.21,0.4 -0.71,1.38 -0.93,1.9 a 3.57,3.57 0 0 1 -0.5,1.47 3.48,3.48 0 0 1 -0.76,0.86 c -0.36,0.62 -0.82,1.31 -1.35,2.1 -0.34,0.53 -0.84,1.28 -1.08,1.67 a 3.39,3.39 0 0 1 -0.54,1 1.21,1.21 0 0 1 0,0.18 5.42,5.42 0 0 1 -0.4,3 5.93,5.93 0 0 1 -1.79,2 v 0 c -0.06,0.2 -0.13,0.45 -0.18,0.65 a 8.51,8.51 0 0 1 -2,4 l -0.59,0.6 -0.09,0.2 a 3.88,3.88 0 0 1 -0.28,0.58 l -0.18,0.27 a 10.35,10.35 0 0 1 -2.53,5.17 c -0.27,0.34 -0.53,0.66 -0.77,1 0,0.19 -0.08,0.48 -0.11,0.7 a 8.77,8.77 0 0 1 -0.73,2.83 7.58,7.58 0 0 1 -0.64,1 c -0.18,0.59 -0.43,1.26 -0.74,2.07 -0.08,0.22 -0.18,0.49 -0.3,0.79 0.32,-0.22 0.62,-0.39 0.86,-0.53 a 2.48,2.48 0 0 0 0.38,-0.22 6.83,6.83 0 0 0 1,-1.21 14.53,14.53 0 0 1 1.4,-1.69 c 1.56,-1.56 2.62,-2.47 3.39,-3.13 1.3,-1.12 1.3,-1.12 2.84,-5.73 a 7.92,7.92 0 0 1 0.76,-1.58 c 0.11,-0.19 0.26,-0.46 0.36,-0.66 A 3.49,3.49 0 0 1 509,40 a 3.77,3.77 0 0 1 0.38,-0.75 c 0.29,-2.35 0.83,-6.1 1.51,-7.09 0.19,-0.29 0.45,-0.62 0.72,-1 0.12,-0.14 0.27,-0.33 0.38,-0.49 a 3.48,3.48 0 0 1 0.62,-2.53 4,4 0 0 1 0.55,-0.75 l 0.32,-0.86 a 3.41,3.41 0 0 1 0.71,-1.15 c 0.34,-0.47 1.14,-2.1 1.68,-3.18 1.66,-3.37 2.59,-5.17 4,-6.09 0.77,-0.51 1.63,-0.78 4.18,-0.78 a 3.71,3.71 0 0 1 1.51,0.33 2.83,2.83 0 0 1 0.41,0.14 3.5,3.5 0 0 1 0.54,0.29 c 3.22,0.16 4.75,1.32 5.46,2.53 a 4.49,4.49 0 0 1 0.75,3.66 c 0,0.08 0.1,0.16 0.14,0.24 1.79,1.83 0.92,4.15 0.6,5 v 0 a 3.51,3.51 0 0 1 -1.36,2.27 l -0.15,0.11 c -0.23,0.55 -0.62,1.57 -1,2.84 a 37.63,37.63 0 0 1 -1.95,4.48 28.6,28.6 0 0 0 -1.78,4.33 2.66,2.66 0 0 1 -0.21,0.58 5.09,5.09 0 0 1 -1,1.78 v 0 a 23.49,23.49 0 0 0 -1.23,2.64 14.84,14.84 0 0 1 1.52,-1 11.27,11.27 0 0 1 1.57,-1.38 6.35,6.35 0 0 1 1.38,-1.24 v 0 c 0.71,-1.17 2.3,-4.16 2.94,-5.45 a 8.31,8.31 0 0 1 1.3,-1.74 l 0.3,-0.33 a 3.5,3.5 0 0 1 0.92,-1.24 L 534.92,34 a 4.67,4.67 0 0 1 2,-2.18 c 0.76,-0.38 2.58,-2.64 3.64,-4.75 a 10.2,10.2 0 0 1 2.08,-2.63 7,7 0 0 0 0.74,-0.79 5.67,5.67 0 0 1 1.88,-2 l 0.15,-0.21 a 3.43,3.43 0 0 1 1,-0.86 9.84,9.84 0 0 1 1.34,-0.94 l 0.79,-0.72 a 6.77,6.77 0 0 1 0.56,-3.56 4,4 0 0 1 1.48,-1.61 3.45,3.45 0 0 1 2.67,-1.61 4,4 0 0 1 1.29,-0.21 3.81,3.81 0 0 1 3.46,2.01 3.53,3.53 0 0 1 0.83,0.62 l 0.15,0.15 h 0.08 l 0.12,0.05 h 0.19 a 9.68,9.68 0 0 1 1.83,0.28 l 0.44,0.09 a 3.49,3.49 0 0 1 3.16,2.17 v 0 a 3.53,3.53 0 0 1 0.8,2.09 4.94,4.94 0 0 1 -0.18,3.36 v 0 a 4,4 0 0 1 -0.64,0.92 c 0,0.24 -0.09,0.55 -0.12,0.77 -0.08,0.5 -0.16,1 -0.29,1.52 a 42.35,42.35 0 0 0 -1.2,9.56 89.11,89.11 0 0 1 -1.54,16.61 c 0,0.59 -0.06,2.48 -0.07,4 -0.07,7.29 -0.19,11 -0.74,12.81 -0.18,1 -0.62,5.47 -0.62,6.33 a 10.3,10.3 0 0 1 -0.19,1.76 c 0,0.24 -0.09,0.61 -0.12,0.85 a 5.76,5.76 0 0 1 -0.36,4.43 3.64,3.64 0 0 1 -3.08,1.73 3.69,3.69 0 0 1 -2.6,-1.09 3.62,3.62 0 0 1 -0.58,-0.77 3.51,3.51 0 0 1 -0.9,-1.62 3.55,3.55 0 0 1 -0.25,-0.86 3.71,3.71 0 0 1 -0.92,-1.09 3.67,3.67 0 0 1 -0.66,-1.23 5.22,5.22 0 0 1 0.06,-3.85 v 0 a 3.43,3.43 0 0 1 -0.35,-1.22 v 0 a 4.44,4.44 0 0 1 -0.17,-1.6 l -0.05,-0.14 a 11.82,11.82 0 0 1 -1.19,-5.25 c 0,0 0,-0.09 0,-0.15 a 3.66,3.66 0 0 1 -0.72,-0.55 3.51,3.51 0 0 1 -1,-2.47 V 61.4 c 0,-1.22 -0.09,-2.43 -0.18,-3.71 -0.06,-0.8 -0.12,-1.61 -0.15,-2.44 v 0 a 4.07,4.07 0 0 1 -0.32,-0.86 V 54.3 a 14,14 0 0 1 -0.63,-3.31 4.48,4.48 0 0 1 0.14,-1 l 0.09,-0.38 h -0.22 a 27.91,27.91 0 0 0 -3.18,2 c -0.47,0.33 -0.86,0.59 -1.21,0.81 a 4.56,4.56 0 0 1 -2.58,1.13 l -0.62,0.06 c -0.6,0.78 -1.38,1.85 -1.67,2.28 l -0.9,1.82 c -3.81,7.77 -6.45,12.82 -8.39,15 a 3.5,3.5 0 0 1 -1.1,1.87 3.66,3.66 0 0 1 -0.93,0.59 v 0 a 3.56,3.56 0 0 1 -1.13,1.19 v 0.06 c -0.71,1.58 -3.19,5.59 -4.6,6.69 a 3.5,3.5 0 0 1 -2.83,1.43 h -0.31 a 5.34,5.34 0 0 1 -1.1,0.75 3.8,3.8 0 0 1 -1.45,0.38 6.48,6.48 0 0 1 -4.06,1.67 z"
       fill="#ff0000"
       id="path29" />
    <path
       d="m 506.49,14.18 c 0.84,0 1.56,0.22 1.17,1 H 508 a 18.65,18.65 0 0 1 0.56,1.86 0.07,0.07 0 0 1 0.06,0 c 0.2,0 0.3,1 0.31,1 h 0.1 c 0.11,0 0.25,0 0.09,0.19 h 0.37 v 0.37 a 0.14,0.14 0 0 1 0.09,0 0.17,0.17 0 0 1 0.1,0 c 0.12,0.13 0.7,1.16 1,1.16 a 0.12,0.12 0 0 0 0.09,0 V 20 h 0.37 c 0,0.14 -1.89,3.47 -1.67,3.91 h -0.37 c 0.19,0.39 -3.29,5 -3.16,5.38 h -0.05 c -0.17,0 -0.45,0.66 -0.51,0.77 -0.41,0.82 0.07,2.45 -0.19,3 -0.26,0.55 -1.35,1 -1.67,1.68 -0.62,1.23 -0.68,3.1 -1.67,4.09 l -0.93,0.92 a 0.12,0.12 0 0 1 -0.09,0 0.13,0.13 0 0 1 -0.1,0 4.59,4.59 0 0 1 -0.37,1.12 H 500 l -0.19,0.37 c 0,3.1 -1.54,4 -3,6.14 -0.62,0.92 -0.43,2.7 -0.93,3.71 a 3.49,3.49 0 0 1 -0.74,0.93 v 0 c 0.26,0.79 -4.18,9.25 -1.86,10.41 a 1.83,1.83 0 0 0 0.82,0.19 c 1.54,0 3.17,-1.68 3.27,-1.67 v 0 c -0.24,-0.25 1.38,-0.67 1.11,-0.94 h 0.37 a 0.13,0.13 0 0 1 0,-0.18 8.94,8.94 0 0 1 1.68,-1.12 c 1.22,-0.81 2,-2.36 3,-3.34 5.36,-5.36 4.53,-2.62 7.07,-10.23 0.23,-0.71 1.5,-2.35 1.3,-3.16 0,0 0,0 0.05,0 0.05,0 0.32,-0.62 0.32,-0.77 h 0.37 c 0,-0.89 1,-6.87 1.11,-7.06 0.7,-1 2.22,-2.27 1.68,-3.91 h 0.18 c -0.22,-0.33 0.4,-0.61 0.56,-0.93 l 0.56,-1.48 c 1.15,-1.15 3.8,-7.93 5,-8.74 a 9.75,9.75 0 0 1 2.24,-0.19 c 0.16,0 0.34,0.23 0.48,0.23 a 0.12,0.12 0 0 0 0.08,0 v 0.38 l 0.18,0.18 h 1 c 1.4,0 3.31,0.13 3.31,1.31 a 0.24,0.24 0 0 1 0.13,-0.08 c 0.37,0 -0.38,2.93 0,2.93 a 0.18,0.18 0 0 0 0.1,-0.06 v 0.37 l 0.19,0.19 h 0.37 c -0.14,0.13 0.5,0.68 0.56,0.74 0.37,0.38 -0.47,1.75 -0.38,2 l -0.74,0.56 a 22.51,22.51 0 0 0 -1.67,4.09 c -1,3 -2.9,5.89 -3.72,8.92 h -0.18 c 0.16,0.65 -0.26,0.86 -0.56,1.3 -1.15,1.72 -3.75,9 -5,11.53 -1,1.92 -0.91,4.43 -1.86,6.32 -0.05,0.1 0,3.3 0,3.72 a 0.1,0.1 0 0 1 0.08,0 c 0.17,0 0.29,0.59 0.48,0.78 0,0 1.49,0.2 2,0.2 H 519 a 102.16,102.16 0 0 0 6,-8.74 c 0.08,-0.17 0,-0.19 -0.06,-0.19 h -0.13 c -0.76,0 -1.3,0.56 -2.23,0.56 h -0.93 c 0,-0.66 1,-0.9 1.3,-1.49 0.46,-0.91 -0.73,-2.62 -0.56,-3 0.17,-0.38 2.43,-0.38 3,-0.93 a 18.47,18.47 0 0 1 3.31,-2.42 v 0 c -0.14,-0.43 1.84,-1.68 1.86,-1.68 v 0 c -0.15,-0.46 1.11,-0.91 1.49,-1.49 0.73,-1.09 2.72,-4.88 3.34,-6.13 0.27,-0.53 1.79,-1.91 1.68,-2.23 h 0.08 c 0.47,0 1.08,-1.71 1.41,-1.88 2,-1 4.23,-4.39 5.2,-6.32 0.59,-1.17 2.23,-2.22 2.79,-3.34 0.27,-0.55 1.14,-1 1.48,-1.3 0.1,-0.1 0.29,-0.28 0.19,-0.38 v 0 c 0.16,0 1.24,-1.12 1.85,-1.12 a 0.14,0.14 0 0 1 0,-0.19 l 1.86,-1.67 c 0.53,-1.08 -0.17,-2.64 0.37,-3.72 0.28,-0.56 1.63,-0.3 1.3,-1.3 a 0.24,0.24 0 0 0 0.18,0.07 c 0.24,0 0.56,-0.27 0.83,-0.27 h 0.11 c 0.39,0.14 0.26,0.83 0.55,1.12 0,0 0.72,0.4 0.56,0.56 h 0.56 l 0.18,0.18 v 0.37 a 0.36,0.36 0 0 1 0.15,0 c 0.3,0 0.76,0.23 0.6,0.4 h 0.37 c -0.17,0.17 1.4,0.37 1.49,0.37 0.79,0 1.72,0.37 2.41,0.37 v 0.37 c 0.05,0 0.08,-0.06 0.11,-0.06 0.03,0 0.08,0.57 0.08,0.62 h 0.37 v 0.93 c 0,0 0.07,-0.06 0.1,-0.06 0.03,0 0.1,0.78 0.08,0.8 -0.11,0.24 -0.43,0.32 -0.55,0.56 a 20.34,20.34 0 0 0 -0.75,3.35 46.29,46.29 0 0 0 -1.3,10.41 84.19,84.19 0 0 1 -1.48,16 c -0.25,1 0.06,14.13 -0.75,16.54 a 70,70 0 0 0 -0.74,7.25 c 0,0.91 -0.56,2.78 -0.19,3.53 0.23,0.45 0.22,1.74 -0.06,1.74 a 0.17,0.17 0 0 1 -0.12,-0.06 v -0.38 l -0.19,-0.37 h -0.37 v -0.55 h -0.18 a 4.61,4.61 0 0 0 -0.38,-1.49 c -0.09,-0.27 -0.63,-0.67 -0.55,-0.74 h -0.38 c 0,-0.68 -0.59,-0.28 -0.37,-0.93 a 0.14,0.14 0 0 1 -0.09,0 c -0.19,0 -0.1,-1 -0.09,-1 0.35,-0.71 1,-2 0.37,-2.61 0,0 0.07,-0.6 -0.22,-0.6 a 0.34,0.34 0 0 0 -0.15,0 c 0,-0.34 -0.23,-0.88 -0.19,-0.92 0.33,-0.33 0.37,-0.44 0.37,-1.12 -0.35,0 -0.55,-0.14 -0.55,-0.56 0,-0.07 0.05,-0.13 0,-0.18 -1.51,-1.5 -0.65,-6 -1.68,-7.06 0,0 -0.07,0 -0.15,0 -0.08,0 -0.61,0 -0.82,0 a 0.33,0.33 0 0 1 -0.14,0 v -0.75 c 0,-2.67 -0.37,-5.22 -0.37,-7.81 h -0.38 a 19.54,19.54 0 0 1 -0.56,-2.6 c 0,-0.06 1.48,-6 0.75,-6.69 a 0.35,0.35 0 0 0 -0.26,-0.08 10.44,10.44 0 0 0 -1.6,0.45 v 0.37 a 9.21,9.21 0 0 0 -2,0.56 c -0.13,0 -0.85,0.45 -0.74,0.56 -1.54,0 -5.88,3.53 -6.3,3.53 v 0 c 0.17,0.17 -0.42,0.37 -0.55,0.37 l -2,0.19 a 38.27,38.27 0 0 0 -3,3.9 c -1.82,3.63 -6.83,14.26 -9.11,16.54 -0.33,0.34 -0.71,0.86 -0.56,1.3 h -0.1 c -0.12,0 -0.17,0.14 -0.27,0.21 a 10.67,10.67 0 0 0 -0.93,0.56 c 0,0 -0.15,0.4 -0.3,0.4 a 0.09,0.09 0 0 1 -0.07,0 v 0.37 0 c -0.26,0 -1.15,1.14 -1.27,1.5 a 27.19,27.19 0 0 1 -3.53,5.39 2.72,2.72 0 0 1 -0.72,0.38 v 0 0.37 h -0.37 c 0,-0.55 -0.12,-0.75 -0.32,-0.75 -0.54,0 -1.64,1.55 -2.28,1.87 h -0.05 c -0.19,0 -0.39,-0.62 -0.95,-0.62 a 0.86,0.86 0 0 0 -0.3,0 c -0.2,0.07 -0.31,0.78 -0.49,0.78 0,0 0,0 -0.07,0 0.21,0.62 -1.29,1.38 -2,1.38 a 0.35,0.35 0 0 1 -0.27,-0.08 c 0,0 -0.44,-1 -0.68,-1 h -0.06 v -0.38 c -0.06,0.06 -0.1,0.08 -0.13,0.08 -0.03,0 -0.06,-0.26 -0.06,-0.26 -0.27,-0.27 -0.19,-0.42 -0.19,-0.93 0,-0.76 1.4,-2.51 1.86,-3 a 66.34,66.34 0 0 0 3.35,-7.07 c 0.12,-0.49 1.06,-2.1 0.93,-2.23 a 0.45,0.45 0 0 0 -0.34,-0.12 c -0.92,0 -2.87,1.77 -4.61,1.77 a 2.09,2.09 0 0 1 -1.19,-0.35 c -0.35,-0.23 -1.44,-0.88 -1.3,-1.3 a 0.23,0.23 0 0 1 -0.11,0 c -0.42,0 -0.63,-1.33 -0.63,-1.7 H 506 c 0,-1.06 -1.15,-9.82 0.37,-10 -0.92,0 -2.89,3.17 -3.35,4.09 -0.46,0.92 -1.51,1.43 -2,2.23 l -0.56,0.75 v 0 c -0.11,0 -3.78,2.27 -4.27,2.6 a 4.9,4.9 0 0 1 -2.8,0.77 c -1,0 -1.94,-0.18 -2.79,-0.18 a 3.68,3.68 0 0 0 -1.11,0.15 c 0.18,-0.17 -0.36,-0.36 -0.37,-0.37 -0.01,-0.01 -0.51,-1.07 -0.55,-1.12 -0.22,-0.22 -1.32,-0.52 -1.12,-1.11 v 0 c -0.15,0 -0.46,-0.61 -0.53,-0.75 a 11.31,11.31 0 0 1 -0.18,-2.61 44.77,44.77 0 0 1 0,-6.13 c 0.55,-3.53 1.55,-8 2.41,-9.67 1.31,-2.61 2.09,-6.4 3.16,-8.55 0.74,-1.47 1.69,-3 2.42,-4.46 0.09,-0.19 -0.08,-0.88 0,-1.11 0.35,-1.06 2.59,-7 3,-7.62 a 23.37,23.37 0 0 1 1.3,-2.42 2.65,2.65 0 0 1 0.55,-0.37 v 0 c -0.4,-1.22 2,-4 2.23,-4.65 a 4.1,4.1 0 0 1 0.93,-1.11 h 0.11 c 0.11,0 0.24,0 0.08,-0.19 h 0.07 0.08 c 0.35,0 1.21,-1 1.6,-1.13 a 6.44,6.44 0 0 1 1.8,-0.26 m 34.92,26.53 c 1.54,0 3.57,-2.76 5.34,-3.21 1.77,-0.45 2.32,-0.17 2.32,-2.55 0,-1.27 0.52,-1.83 0.75,-3 0.34,-1.69 0.13,-2.31 -0.35,-2.31 -1.09,0 -3.59,3.19 -4.25,4.08 -1.12,1.49 -2.14,3.53 -3.12,5.16 -0.23,0.39 -0.63,1.81 -0.69,1.81 M 506.49,7.18 v 0 a 13.67,13.67 0 0 0 -4,0.61 8.09,8.09 0 0 0 -2.49,1.34 7,7 0 0 0 -2.26,1.57 v 0 a 10.22,10.22 0 0 0 -2.3,3 l -0.17,0.25 a 18.43,18.43 0 0 0 -2.27,4.15 12.77,12.77 0 0 0 -1.2,2.22 c -0.06,0.12 -0.11,0.24 -0.17,0.35 a 88.07,88.07 0 0 0 -3.62,9 v 0.12 a 7.05,7.05 0 0 0 -0.31,1.44 l -0.33,0.6 c -0.46,0.8 -0.92,1.64 -1.37,2.52 a 34.12,34.12 0 0 0 -1.82,4.87 29.26,29.26 0 0 1 -1.34,3.68 c -1.65,3.31 -2.77,9.8 -3.07,11.71 a 29.9,29.9 0 0 0 -0.13,5.8 c 0,0.56 0.05,1.09 0.05,1.42 v 0.06 a 12.14,12.14 0 0 0 0.92,5.68 c 0.18,0.35 0.36,0.67 0.55,1 a 7.58,7.58 0 0 0 2,2.53 7.56,7.56 0 0 0 1,1.29 l 0.18,0.17 a 7,7 0 0 0 6.51,2.12 h 0.35 a 20.94,20.94 0 0 0 2.18,0.13 11.77,11.77 0 0 0 6.68,-2 l 0.66,-0.42 a 8,8 0 0 0 1.41,1.74 11.33,11.33 0 0 0 1.46,1.34 10.51,10.51 0 0 0 -2.15,5.83 v 0 a 8,8 0 0 0 0.61,3.49 9,9 0 0 0 1.7,2.81 6.35,6.35 0 0 0 0.84,1 v 0 a 7.28,7.28 0 0 0 5.24,2.15 9.77,9.77 0 0 0 5.32,-1.72 7.37,7.37 0 0 0 1.63,-0.58 6.89,6.89 0 0 0 0.76,-0.44 7,7 0 0 0 4.46,-2.35 29,29 0 0 0 4.84,-6.87 6.79,6.79 0 0 0 0.79,-0.82 9.17,9.17 0 0 0 0.88,-0.66 7,7 0 0 0 1.93,-2.81 c 2.11,-2.69 4.61,-7.47 8.39,-15.18 0.29,-0.6 0.56,-1.13 0.78,-1.58 l 0.57,-0.79 a 8.21,8.21 0 0 0 3,-1.34 c 0,0.17 0.11,0.35 0.17,0.52 0,0.64 0.08,1.26 0.13,1.87 0.09,1.22 0.17,2.37 0.17,3.46 v 0.75 a 7,7 0 0 0 1.81,4.79 14.23,14.23 0 0 0 1.12,4.59 7.78,7.78 0 0 0 0.26,1.57 5.35,5.35 0 0 0 0.11,0.55 8.9,8.9 0 0 0 0.32,5 7.21,7.21 0 0 0 1.06,2 6.31,6.31 0 0 0 0.69,0.94 c 0,0 0,0.1 0.05,0.15 a 11.55,11.55 0 0 0 2.34,3.75 7.11,7.11 0 0 0 11.12,-1.26 9,9 0 0 0 1,-6.48 v -0.1 a 13.87,13.87 0 0 0 0.23,-2.31 c 0,-0.81 0.37,-4.43 0.55,-5.57 0.6,-2.22 0.74,-5.72 0.81,-13.53 0,-1.3 0,-2.88 0,-3.58 a 92.85,92.85 0 0 0 1.56,-17.09 39,39 0 0 1 1.1,-8.72 c 0.15,-0.61 0.24,-1.18 0.33,-1.7 a 6.7,6.7 0 0 0 0.45,-0.8 v 0 a 8.32,8.32 0 0 0 0.5,-5.47 6.91,6.91 0 0 0 -1.24,-3.34 7,7 0 0 0 -5.76,-3.87 h -0.12 c -0.37,-0.08 -0.84,-0.19 -1.4,-0.26 v 0 a 7.28,7.28 0 0 0 -3.6,-2.69 7.21,7.21 0 0 0 -2.36,-0.39 7.62,7.62 0 0 0 -2,0.27 6.94,6.94 0 0 0 -2.66,1 7,7 0 0 0 -1.8,1.58 7.28,7.28 0 0 0 -2.12,2.48 9.31,9.31 0 0 0 -0.93,3.42 l -0.63,0.48 a 6.92,6.92 0 0 0 -1.64,1.43 9,9 0 0 0 -2.28,2.51 l -0.32,0.33 a 13.31,13.31 0 0 0 -2.75,3.53 v 0.09 a 7.06,7.06 0 0 0 -1.15,-4.22 7.22,7.22 0 0 0 -1.7,-4.93 c -1.18,-1.69 -3.29,-3.27 -7.09,-3.64 l -0.18,-0.08 a 4.84,4.84 0 0 0 -0.6,-0.22 7,7 0 0 0 -2.68,-0.53 c -2.59,0 -4.42,0.23 -6.14,1.38 A 8.41,8.41 0 0 0 516,15 l -0.09,-0.08 a 5.73,5.73 0 0 0 -0.56,-0.54 8,8 0 0 0 -0.48,-0.66 l -0.12,-0.34 v 0 a 7.28,7.28 0 0 0 -0.69,-1.66 8.83,8.83 0 0 0 -0.43,-0.8 8,8 0 0 0 -7.17,-3.69 z"
       fill="#ffffff"
       id="path31" />
    <path
       d="m 573.39,76.11 a 3.56,3.56 0 0 1 -0.86,-0.11 3.5,3.5 0 0 1 -2.63,-3.66 7.51,7.51 0 0 1 0.46,-2.1 3.5,3.5 0 0 1 3.23,-2.24 v 0 a 3.51,3.51 0 0 1 3.25,2.19 3.8,3.8 0 0 1 0,3.13 7.11,7.11 0 0 1 -0.27,0.75 3.5,3.5 0 0 1 -3.18,2.04 z"
       fill="#ff0000"
       id="path33" />
    <path
       d="m 573.63,71.47 c 0.06,0.14 0.09,0.26 0.06,0.31 a 4.55,4.55 0 0 0 -0.3,0.83 3.76,3.76 0 0 1 0.24,-1.14 m 0,-7 h -0.08 a 7,7 0 0 0 -6.47,4.53 10.94,10.94 0 0 0 -0.67,3.07 7,7 0 0 0 5.26,7.31 6.76,6.76 0 0 0 1.72,0.22 7,7 0 0 0 6.39,-4.15 8.72,8.72 0 0 0 0.37,-1 7.25,7.25 0 0 0 0,-5.61 7,7 0 0 0 -6.5,-4.39 z"
       fill="#ffffff"
       id="path35" />
    <path
       d="m 571.66,82.68 a 9.88,9.88 0 0 1 -2.83,-0.62 3.71,3.71 0 0 1 -2.11,-2.41 4.29,4.29 0 0 1 0.62,-3.57 10.86,10.86 0 0 1 1,-1.15 4.71,4.71 0 0 1 0.31,-2 7.53,7.53 0 0 1 1.85,-2.35 3.52,3.52 0 0 1 2.89,-1.51 3.67,3.67 0 0 1 0.86,0.1 3.51,3.51 0 0 1 2.63,3.66 5,5 0 0 0 0,0.67 6.73,6.73 0 0 1 -1.25,4.67 4.45,4.45 0 0 1 -2.52,4.17 3.8,3.8 0 0 1 -1.45,0.3 z"
       fill="#ff0000"
       id="path37" />
    <path
       d="m 573.39,72.61 v 0 m 0,0 c -0.12,1.54 0.49,2.84 -1.23,4.14 0,0 0,0.08 0,0.14 0,0.68 0.05,2.07 -0.42,2.27 h -0.08 a 7.67,7.67 0 0 1 -1.45,-0.33 c -0.23,-0.1 -0.15,-0.54 0,-0.74 a 19.87,19.87 0 0 1 1.53,-1.63 c 0.27,-0.27 0,-1.81 0.14,-2.14 a 14.33,14.33 0 0 1 1.35,-1.48 0.91,0.91 0 0 0 0.16,-0.24 m 0,-7 a 7.45,7.45 0 0 0 -1,0.07 6.84,6.84 0 0 0 -3.19,1.3 7.14,7.14 0 0 0 -1.42,1.38 10.1,10.1 0 0 0 -2.38,3.24 7.42,7.42 0 0 0 -0.52,1.91 7.13,7.13 0 0 0 -0.45,0.59 7.73,7.73 0 0 0 -1.12,6.51 7.16,7.16 0 0 0 4.12,4.68 13.09,13.09 0 0 0 4.19,0.89 7.2,7.2 0 0 0 2.84,-0.57 7.45,7.45 0 0 0 4.47,-6 10.32,10.32 0 0 0 1.41,-6.15 c 0,-0.09 0,-0.19 0,-0.28 0,-0.09 0,-0.34 0,-0.51 a 7,7 0 0 0 -6.5,-7 h -0.51 z m 0,14 z"
       fill="#ffffff"
       id="path39" />
    <path
       d="m 639.32,94.84 a 4.19,4.19 0 0 1 -3.07,-1.47 c -0.43,-0.44 -2.22,-2.16 -3,-2.86 A 43.74,43.74 0 0 1 626.86,85.73 50.75,50.75 0 0 0 620.59,81 c -2.68,-1.34 -5.67,-4.45 -8.07,-7 l -1.39,-1.42 c -0.7,-0.7 -1.23,-1.34 -1.66,-1.85 -0.14,-0.15 -0.26,-0.3 -0.39,-0.45 a 5.43,5.43 0 0 1 -2.35,-1.46 20.94,20.94 0 0 1 -3.25,-2.27 7.71,7.71 0 0 0 -2,-1.36 3.17,3.17 0 0 1 -0.73,-0.32 3.52,3.52 0 0 1 -1.78,-1.38 c -0.8,-1 -6.09,-7 -7.26,-8.24 -1.73,-1.06 -6.67,-4.12 -7.33,-4.76 -0.8,-0.8 -1.89,-2.5 -0.54,-5.27 l 0.06,-0.12 a 6.3,6.3 0 0 1 1.33,-2.1 3.44,3.44 0 0 1 -0.12,-0.91 v -0.28 l -0.61,0.78 c -0.66,1.12 -1.45,5 -1.92,7.29 -0.72,3.5 -1.21,5.72 -2,7.22 a 14,14 0 0 1 -1.17,5.31 c -0.06,0.42 -0.17,1.3 -0.24,2 a 31.64,31.64 0 0 1 -0.85,5.29 10.53,10.53 0 0 1 -1.11,2.34 4.16,4.16 0 0 0 -0.31,0.57 0.63,0.63 0 0 0 0,0.09 3.52,3.52 0 0 1 -2.9,2.3 c -0.25,0.64 -0.48,1.23 -0.61,1.58 a 5.27,5.27 0 0 1 -1.05,2 18.12,18.12 0 0 0 -0.88,1.81 c -0.73,1.63 -1.25,2.81 -2.49,3.52 a 3.68,3.68 0 0 1 -1.63,0.49 l -0.19,0.33 v 0.19 a 3.5,3.5 0 0 1 -1.39,2.79 3.73,3.73 0 0 1 -2.18,0.73 3.45,3.45 0 0 1 -0.69,-0.06 3.49,3.49 0 0 1 -4.39,-1.51 l -0.14,-0.14 a 3.59,3.59 0 0 1 -1,-2.64 v -0.84 a 5.62,5.62 0 0 1 0.33,-1.82 c -0.81,-3 1.16,-6.5 2.56,-9 0.22,-0.39 0.44,-0.78 0.61,-1.11 0,-0.08 0,-0.17 0,-0.25 a 5.69,5.69 0 0 1 0.23,-2.33 4.52,4.52 0 0 1 0.33,-2.33 4.08,4.08 0 0 1 1.11,-1.52 7.86,7.86 0 0 1 0.6,-1.71 5.77,5.77 0 0 1 0.45,-1.4 4.21,4.21 0 0 1 0.48,-1.1 5,5 0 0 1 0.91,-1.13 c 0,-0.11 0,-0.21 0,-0.3 a 6.32,6.32 0 0 1 0.21,-3.29 c 0.2,-0.51 0.73,-2.15 1.2,-3.6 1.62,-5 1.9,-5.75 2.45,-6.46 l 0.11,-0.14 v -0.05 a 6.27,6.27 0 0 1 0.38,-3.13 27.18,27.18 0 0 1 1.63,-3.23 c -0.34,0 -0.61,0 -0.75,0 a 5,5 0 0 1 -3.92,-1.47 4,4 0 0 1 -2.84,-1.07 13.46,13.46 0 0 1 -1,-1.09 1.81,1.81 0 0 0 -0.32,-0.34 3.27,3.27 0 0 1 -1,-0.43 4.07,4.07 0 0 1 -1,-0.7 v 0 A 3.86,3.86 0 0 1 559,31.35 c 0,-0.31 0,-3 1.39,-4.38 a 12.65,12.65 0 0 1 1.29,-1.1 c 0.37,-0.3 1.06,-0.84 1.46,-1.24 a 3.48,3.48 0 0 1 1.36,-2.48 9.32,9.32 0 0 1 2.24,-1.36 l 1,-0.35 c 0.37,-0.12 1.12,-0.35 1.41,-0.49 a 7.43,7.43 0 0 1 1.55,-0.82 L 571,19 a 64.45,64.45 0 0 1 6.46,-2.35 4.78,4.78 0 0 1 1.54,-1 6.6,6.6 0 0 1 1.43,-0.36 v 0 c 2.32,-1.62 5.81,-1.76 8.61,-1.88 0.59,0 1.36,-0.05 1.82,-0.1 l 0.31,-0.28 a 7.68,7.68 0 0 1 1.76,-1.31 5.09,5.09 0 0 1 2.3,-0.45 c 1.86,0 10.9,1.06 12.61,2 a 6,6 0 0 0 0.76,0.37 7.74,7.74 0 0 1 2.67,1.73 6,6 0 0 1 0.43,0.51 l 0.14,0.2 a 3.8,3.8 0 0 1 0.88,0.76 4.06,4.06 0 0 1 2.51,2 1.4,1.4 0 0 0 0.27,0.4 4.21,4.21 0 0 1 2.06,2.85 l 0.29,0.28 0.2,0.2 a 4.68,4.68 0 0 1 1.22,3.95 5.87,5.87 0 0 1 0,2.55 v 0.2 a 3.83,3.83 0 0 1 -0.13,1 c 0,0.15 0,0.39 0,0.55 a 7.91,7.91 0 0 1 -0.18,3 24.6,24.6 0 0 1 -3.84,7.3 9.09,9.09 0 0 1 -2.92,2.53 l -0.31,0.19 a 4.32,4.32 0 0 1 -2.67,2.66 18,18 0 0 0 -1.86,0.94 l 0.16,0.16 a 18.44,18.44 0 0 1 2.89,4.1 11.59,11.59 0 0 0 1.34,2.08 c 0.26,0.26 0.55,0.53 0.85,0.81 a 28.67,28.67 0 0 1 2.4,2.48 29.37,29.37 0 0 1 7,5.37 c 1.72,1.61 3.49,3.29 4.79,3.86 a 3.51,3.51 0 0 1 1.47,1.22 l 0.12,0.09 a 20,20 0 0 1 3.18,3.19 c 0.67,0.79 4.38,4.34 6.39,6.26 1.33,1.27 2.48,2.37 3,2.93 1.22,1.2 2.14,5.13 0.37,7 l -0.27,0.26 a 4,4 0 0 1 1.81,2.91 3.74,3.74 0 0 1 -2.11,4.39 3.68,3.68 0 0 1 -1.43,0.29 z M 593.63,38 a 1.34,1.34 0 0 0 1.33,0.73 c 0.47,-0.71 1,-1.53 1.48,-2.33 0.72,-1.14 1.45,-2.31 2.16,-3.34 a 3.88,3.88 0 0 1 -1.61,-1 q -0.4,-0.21 -0.84,-0.48 a 4,4 0 0 1 -1.08,0.14 9.27,9.27 0 0 0 -3.23,0.27 c -0.12,0.07 -0.44,0.46 -1.26,2.25 a 6,6 0 0 1 -0.44,0.76 3.32,3.32 0 0 1 -0.58,1.12 h 0.29 a 5.24,5.24 0 0 1 3.78,1.9 z"
       fill="#ff0000"
       id="path41" />
    <path
       d="m 595.21,14.77 a 63.38,63.38 0 0 1 10.87,1.57 c 1.17,0.67 1.83,0.67 2.69,1.53 0.05,0.05 0.86,1.23 1.16,1.23 h 0.05 c 0,0.8 2,1.12 2.09,1.35 a 4.27,4.27 0 0 0 1.81,1.95 7.28,7.28 0 0 1 0.47,1.21 5.4,5.4 0 0 0 1.21,1.49 c 0.54,0.54 -0.07,1.59 0.28,2.27 0.17,0.35 -0.2,1.6 -0.14,1.95 -0.37,0.86 0.16,2.54 -0.13,3.5 a 21.17,21.17 0 0 1 -3.36,6.31 c -1,1.37 -2.56,1.65 -3.3,2.7 -0.13,0.18 -0.42,1.25 -0.74,1.34 a 16.71,16.71 0 0 0 -3.9,2.14 6,6 0 0 1 -1.82,1.35 l -0.6,0.14 h -0.33 c 0,0.1 3.25,3 3.49,3.3 1.81,1.8 2.72,4.67 4.23,6.18 a 28.59,28.59 0 0 1 3.58,3.72 c 0,0 0,0 0,0 h 0.11 v 0 c 4.18,1.67 8.47,7.78 12.32,9.48 -0.1,0.17 0.81,0.84 0.93,0.93 a 16.2,16.2 0 0 1 2.41,2.42 c 0.63,0.94 8.08,7.9 9.79,9.61 a 4.53,4.53 0 0 1 0.29,2.14 c 0.37,-1.22 -6.08,-4.09 -6.5,-5.16 -0.42,-1.07 -6.32,-5.65 -7.81,-6.18 0,0 -3.94,-3.78 -4.37,-4 -1.08,-0.65 -2.95,-1.3 -4.08,-2.09 -1.65,-1.15 -2.29,-2.91 -3.3,-4.09 -0.68,-0.78 -1.79,-0.58 -2.84,-2.41 -0.1,-0.17 -1,-0.63 -1.21,-0.89 l -0.32,-0.46 a 12.51,12.51 0 0 0 -1.67,-1.49 c -0.07,-0.07 -0.18,-0.66 -0.42,-0.79 -0.24,-0.13 -1.13,-0.72 -0.93,-1 h -0.42 c 0.1,-0.17 -0.54,-0.53 -0.6,-0.75 a 8.68,8.68 0 0 0 -1.21,-1.53 h -0.13 c -0.21,0 -0.62,0 -0.87,0 a 0.48,0.48 0 0 1 -0.21,0 l -0.74,-0.47 c -0.1,0 -0.6,-0.27 -0.47,-0.41 -0.62,0 -1.94,-1.34 -2.41,-1.82 -0.33,-0.32 -2.08,-0.21 -2.56,-1.34 -0.26,-0.6 -1,-0.84 -1.53,-1.21 -0.32,-0.22 -0.74,-0.39 -0.89,-0.74 L 593,47.1 a 0.48,0.48 0 0 1 -0.07,-0.22 v 0 a 0.61,0.61 0 0 1 -0.23,-0.11 l 0.13,0.14 0.19,0.46 a 1.64,1.64 0 0 1 0.13,0.74 1.65,1.65 0 0 0 0.47,1.21 25.1,25.1 0 0 1 2.23,2.14 c 0.67,0.78 2.22,1.89 3,2.7 1.58,1.57 4.1,3 6,5 a 15.48,15.48 0 0 1 1.63,2.23 c 0,0.06 -0.07,0.15 0,0.19 l 1.67,0.41 c 1.45,1.7 4,2.7 5,5 h 0.08 c 0.1,0 0.14,0.17 0.2,0.21 0.7,0.49 2.18,1.71 2.28,2.37 h 0.14 c 0.33,0 0.46,0.52 0.74,0.63 3.51,1.51 7.56,5.29 10.27,8 0.25,0.24 1.47,2.25 1.95,2.41 a 9.67,9.67 0 0 1 3.19,1.72 6.27,6.27 0 0 1 0.47,1.34 c 0,0 5.24,5.38 5.71,5.58 0.05,0 0,0.09 0,0.14 0.19,0.64 1.21,0.6 1.21,1.21 0,0.24 0.23,0.64 0,0.74 v 0 a 0.77,0.77 0 0 1 -0.43,-0.28 c 0,-0.08 -3.53,-3.44 -3.63,-3.48 -2.52,-1 -9.67,-8 -13.1,-9.76 -2.67,-1.34 -6.38,-5.54 -8.55,-7.72 -1.08,-1.07 -1.71,-2 -2.42,-2.69 -0.29,-0.29 -1.48,-0.5 -1.81,-0.89 l -0.33,-0.46 c -2.79,-1.24 -4.28,-3.53 -6.6,-4.23 l -0.46,-0.27 v 0 h -0.08 v 0 c -0.16,-0.37 -7.67,-8.91 -8,-9.07 -0.61,-0.3 -6.84,-4.28 -7.06,-4.5 -0.22,-0.22 0.07,-1 0.27,-1.49 0.41,-1 0.8,-1.21 1.22,-1.21 0.42,0 1,0.39 1.7,0.39 a 2,2 0 0 0 1.45,-0.71 c 0.31,-0.31 -1.56,-2 -2,-2.1 -0.44,-0.1 -0.67,-0.45 -0.46,-0.6 l -0.42,-0.14 c 0,-0.84 0.07,-1.27 0.6,-1.67 0.23,-0.17 0.22,-0.55 0.42,-0.75 a 0.31,0.31 0 0 1 0.22,-0.08 2.21,2.21 0 0 1 1,0.5 c 1.17,1.56 2.23,2.14 4.83,2.14 0.22,0 0.47,0 0.7,0 a 0.61,0.61 0 0 0 0.51,-0.19 c 1.66,-2.22 4.18,-6.78 5.85,-8.73 a 2.7,2.7 0 0 0 0.14,-1.22 8,8 0 0 1 -1,-1.67 l -2.14,-0.74 c -0.33,-0.1 -0.18,-0.24 -0.27,-0.47 v 0 h -0.09 v 0 A 7.53,7.53 0 0 1 597.16,28 h -0.42 -1 a 1.25,1.25 0 0 0 -0.35,0 c -0.22,0.19 -0.12,0.25 -0.13,0.27 h -0.15 c -5,0 -5.82,0.55 -7.66,4.55 -0.18,0.39 -0.57,0.72 -0.6,1.21 h -0.07 c -0.25,0 -0.28,-1 -1.09,-1 a 1.42,1.42 0 0 0 -0.38,0.06 c -0.26,0.08 -1.18,4.44 -1.49,4.83 l -2.13,2.7 c -2,3 -2.95,13.95 -4.51,15.52 -0.11,0.11 0,0.31 0,0.46 a 10.88,10.88 0 0 1 -1,4.79 c -0.24,0.55 -0.62,5.88 -1.07,7.25 a 24,24 0 0 1 -1.35,2.69 l -0.06,0.16 a 4.92,4.92 0 0 0 -0.4,-0.76 c -0.05,0 0,-1.44 0,-1.49 a 0.21,0.21 0 0 0 -0.13,0 c -0.35,0 -1,1 -1.08,1.26 -0.35,0.69 -2.26,5.7 -2.28,5.72 -0.93,0.93 -2,4.38 -2.56,4.69 a 0.19,0.19 0 0 1 -0.1,0 c -0.46,0 -0.74,-1.71 -1.4,-1.71 -0.24,0 -0.54,0.24 -0.91,0.89 -0.06,0.11 -0.08,1.62 -0.14,1.81 -0.26,0.77 -0.72,1.12 -1,2.14 v 0.88 a 0.11,0.11 0 0 1 -0.07,0 c -0.19,0 -0.36,-0.58 -0.73,-0.58 a 0.48,0.48 0 0 0 -0.27,0.1 c -0.76,0.5 -1,0.69 -1,0.69 0,0 0.07,-0.31 -0.31,-0.69 0,0 0,0 -0.07,0 h -0.11 l -0.11,-0.11 c -0.06,0 0,-0.11 0,-0.16 v -0.93 c 0,-0.69 0.78,-1.91 0.6,-2.09 -1.75,-1.75 2,-6.89 2.88,-9 0.1,-0.23 -0.07,-2.06 0,-2.13 0.07,-0.07 0.71,-0.29 0.6,-0.47 a 2.57,2.57 0 0 1 -0.32,-1.76 c 0.18,-0.41 0.77,-0.59 0.93,-0.94 a 14,14 0 0 1 0.88,-2.41 c 0.1,-0.15 0.1,-0.87 0.33,-1.21 0.23,-0.34 0.14,-0.52 0.28,-0.74 0.43,-0.73 1.12,-0.76 1.34,-1.49 0.39,-1.3 -0.31,-3 0,-3.76 0.59,-1.48 2.75,-8.67 3.16,-9.2 l 0.47,-0.61 c 0.84,-1.1 0,-2.46 0.46,-3.48 a 26.23,26.23 0 0 1 1.63,-3.16 c 0.33,-0.55 0.41,-2.71 1.21,-4.05 a 11.5,11.5 0 0 0 0.46,-3 0.09,0.09 0 0 0 -0.08,0 c -0.29,0 -0.88,0.8 -1.13,1 -0.47,0.32 -1,0.26 -1.48,0.75 a 10.63,10.63 0 0 1 -2.94,0.46 c -0.87,0 -1.57,-0.19 -1.43,-0.79 v 0 c -0.13,0 -0.55,-0.41 -0.59,-0.43 a 0.62,0.62 0 0 0 -0.24,-0.06 h -0.14 a 0.76,0.76 0 0 1 -0.36,-0.13 c -0.06,0 -1.47,-0.09 -1.53,-0.14 -1,-1 -1,-1.39 -2.23,-2.1 -0.23,-0.12 -0.16,-0.25 -0.3,-0.25 A 1.18,1.18 0 0 0 563,32 c 0.14,-0.1 -0.45,-0.27 -0.46,-0.28 -0.24,-0.24 0.14,-2.14 0.28,-2.27 0.93,-0.93 4.23,-2.94 3.76,-4.51 0.34,-0.15 0,0 0.33,-0.28 a 6.65,6.65 0 0 1 1.07,-0.61 17.62,17.62 0 0 0 3.16,-1.2 4.64,4.64 0 0 1 1.2,-0.61 61.82,61.82 0 0 1 6.74,-2.41 c 0.51,-0.15 0.66,-0.71 1.21,-0.94 0.55,-0.23 1.3,-0.15 1.67,-0.41 l 0.47,-0.33 c 2.41,-1.68 8.73,-0.93 9.94,-1.62 0.76,-0.44 1.53,-1.4 2.09,-1.67 a 2,2 0 0 1 0.75,-0.09 m -2.7,31.87 v 0 0 m 2.7,-38.87 a 8.38,8.38 0 0 0 -3.88,0.82 9.84,9.84 0 0 0 -1.92,1.3 h -0.54 c -3,0.12 -6.73,0.27 -9.76,2.05 a 8.64,8.64 0 0 0 -1.38,0.41 h -0.07 a 8.19,8.19 0 0 0 -2,1.14 63.19,63.19 0 0 0 -6.11,2.26 l -0.18,0.08 a 10.35,10.35 0 0 0 -1.87,0.94 l -0.83,0.27 c -0.46,0.15 -0.88,0.28 -1.17,0.4 h -0.09 a 12.46,12.46 0 0 0 -3.24,1.95 7,7 0 0 0 -2.27,3.27 c -0.16,0.14 -0.33,0.27 -0.46,0.37 a 19.07,19.07 0 0 0 -1.6,1.38 c -2.19,2.19 -2.41,5.53 -2.41,6.87 a 7.34,7.34 0 0 0 2.16,5.34 v 0 a 7.18,7.18 0 0 0 1.52,1.14 7.78,7.78 0 0 0 0.94,0.52 c 0.21,0.24 0.48,0.54 0.82,0.88 a 6.84,6.84 0 0 0 3.85,1.95 7,7 0 0 0 1,0.64 9.21,9.21 0 0 0 -0.45,2.9 46.41,46.41 0 0 0 -2.33,6.5 c -0.4,1.24 -1,2.93 -1.12,3.36 a 8.85,8.85 0 0 0 -0.56,3.8 c -0.1,0.14 -0.19,0.29 -0.29,0.45 a 8.19,8.19 0 0 0 -0.73,1.61 9.47,9.47 0 0 0 -0.52,1.56 c -0.17,0.37 -0.29,0.72 -0.4,1 a 7.65,7.65 0 0 0 -1.2,1.95 7.9,7.9 0 0 0 -0.63,3.34 8.69,8.69 0 0 0 -0.22,2.09 l -0.13,0.24 c -1.32,2.38 -3.66,6.57 -3.11,10.61 A 8.26,8.26 0 0 0 553.8,83.1 V 84 a 8.33,8.33 0 0 0 7.63,8.12 6.92,6.92 0 0 0 1.72,-0.21 h 0.32 a 7.15,7.15 0 0 0 4.29,-1.44 7,7 0 0 0 2.4,-3.32 4.23,4.23 0 0 0 0.42,-0.22 c 2.25,-1.3 3.12,-3.25 4,-5.14 0.16,-0.36 0.4,-0.91 0.56,-1.23 a 8.67,8.67 0 0 0 1.4,-2.68 V 77.82 A 7,7 0 0 0 580.15,74 l 0.1,-0.16 a 14.17,14.17 0 0 0 1.43,-3 32.16,32.16 0 0 0 1,-6 c 0.06,-0.47 0.13,-1.06 0.18,-1.47 A 17.32,17.32 0 0 0 584.08,58 20.93,20.93 0 0 0 585,55.2 c 1.55,1 3.31,2.09 4.47,2.8 1.47,1.59 5.76,6.46 6.67,7.58 a 7,7 0 0 0 3.13,2.48 6.13,6.13 0 0 0 1,0.42 c 0.23,0.15 0.69,0.52 1,0.8 a 26.5,26.5 0 0 0 3.29,2.34 8.18,8.18 0 0 0 2.44,1.59 c 0.42,0.5 1,1.14 1.68,1.84 l 1.32,1.38 c 3.17,3.3 6,6.16 9,7.65 a 56.21,56.21 0 0 1 5.65,4.34 52,52 0 0 0 6.56,5 c 0.75,0.71 2,1.9 2.44,2.36 a 7.68,7.68 0 0 0 5.65,2.6 7.15,7.15 0 0 0 6.95,-8.82 7.36,7.36 0 0 0 -0.93,-2.67 9.91,9.91 0 0 0 -1.94,-9.33 c -0.6,-0.61 -1.7,-1.66 -3.09,-3 -1.84,-1.76 -5.22,-5 -6.08,-5.93 a 23.23,23.23 0 0 0 -3.5,-3.63 7,7 0 0 0 -2.56,-1.94 25.83,25.83 0 0 1 -3.82,-3.21 34.89,34.89 0 0 0 -7.17,-5.64 c -0.75,-0.84 -1.52,-1.57 -2.2,-2.2 -0.25,-0.24 -0.5,-0.47 -0.71,-0.69 a 16.15,16.15 0 0 1 -0.84,-1.39 c -0.25,-0.43 -0.51,-0.9 -0.81,-1.38 a 8.09,8.09 0 0 0 1.93,-2.29 11.71,11.71 0 0 0 3.47,-3.14 28,28 0 0 0 4.31,-8.26 11.22,11.22 0 0 0 0.33,-4.32 v 0 a 6.73,6.73 0 0 0 0.1,-0.89 9.58,9.58 0 0 0 0.08,-3.34 7.88,7.88 0 0 0 -2.19,-6.1 7.44,7.44 0 0 0 -2.63,-3.49 7.35,7.35 0 0 0 -3.33,-2.83 l -0.38,-0.32 A 7,7 0 0 0 613.71,12.91 11.41,11.41 0 0 0 610,10.45 2.66,2.66 0 0 1 609.58,10.26 C 606.74,8.64 596.31,7.77 595.24,7.77 Z"
       fill="#ffffff"
       id="path43" />
    <path
       d="m 561,87.94 a 3.46,3.46 0 0 1 -2.2,-0.79 h -0.05 a 3.49,3.49 0 0 1 1.07,-6 3.36,3.36 0 0 1 1.17,-0.21 3.52,3.52 0 1 1 0,7 z"
       fill="#ff0000"
       id="path45" />
    <path
       d="m 561,84.41 v 0 0 0 m 0,-7 a 7,7 0 0 0 -1.76,0.23 h -0.08 a 7,7 0 0 0 -2.66,12.12 v 0 A 7,7 0 0 0 566,79.5 v 0 a 7,7 0 0 0 -5,-2 z"
       fill="#ffffff"
       id="path47" />
    <path
       d="m 639,99.83 a 3.8,3.8 0 0 1 -3.18,-1.67 3.41,3.41 0 0 0 -0.42,-0.52 3.88,3.88 0 0 1 -2.44,-2.06 29.29,29.29 0 0 0 -4.1,-3 32.34,32.34 0 0 1 -3.86,-2.8 4.38,4.38 0 0 1 -0.57,-0.24 l -0.13,-0.08 c -0.18,-0.09 -0.74,-0.32 -1,-0.44 a 4.43,4.43 0 0 1 -0.83,-0.44 4.33,4.33 0 0 1 -0.47,-0.4 c -0.33,-0.33 -0.62,-0.69 -0.91,-1 a 7.27,7.27 0 0 0 -0.47,-0.56 30.11,30.11 0 0 1 -4.12,-3.75 c -0.31,-0.31 -0.59,-0.6 -0.8,-0.8 a 19.44,19.44 0 0 1 -3.37,-2.14 16.66,16.66 0 0 0 -2.33,-1.62 4.63,4.63 0 0 1 -2.21,-1.4 c -0.48,-0.56 -2.91,-2.55 -4.52,-3.87 a 64.75,64.75 0 0 1 -6.11,-5.32 l -0.1,-0.06 a 3.94,3.94 0 0 1 -0.74,-0.37 l -1,-0.6 a 5.09,5.09 0 0 1 -1.84,-2 c -0.33,-0.49 -1.21,-1.8 -1.49,-2.13 l -1,-1 a 15.61,15.61 0 0 0 -3.78,-3.15 4,4 0 0 1 -1.78,-1.88 l -0.12,-0.2 H 585 A 9.39,9.39 0 0 1 580.72,55 c -2.05,-1.36 -2.29,-4.5 -2.3,-5.62 a 3.59,3.59 0 0 1 0.7,-2.6 3.65,3.65 0 0 1 1,-0.93 3.49,3.49 0 0 1 2.28,-0.84 3.29,3.29 0 0 1 0.82,0.1 h 0.17 a 4.13,4.13 0 0 1 1.56,0.3 5.55,5.55 0 0 0 1,0.22 9.64,9.64 0 0 1 3,0.87 15.38,15.38 0 0 1 3.05,2.24 10.5,10.5 0 0 0 2.42,1.78 3.64,3.64 0 0 1 2.29,2.32 l 0.31,0.41 c 0.36,0.35 0.85,0.93 1.63,1.83 0.62,0.72 1.74,2 2.22,2.49 a 5.34,5.34 0 0 1 2.48,2.51 l 0.23,0.55 0.23,0.11 a 12.57,12.57 0 0 1 1.44,0.74 5.89,5.89 0 0 1 1.91,2.19 c 0.61,0.42 1.54,1.22 3.5,2.93 0.57,0.51 1.07,0.94 1.3,1.13 a 5.13,5.13 0 0 1 1.34,1.47 4,4 0 0 1 1.22,1.32 c 6.68,3.42 8.15,4.89 8.64,5.38 A 4.71,4.71 0 0 1 624,77 c 0.13,0.08 0.27,0.15 0.39,0.21 a 9.44,9.44 0 0 1 3.33,2.46 41.61,41.61 0 0 0 5.37,6.19 3.89,3.89 0 0 1 1.9,1.57 l 0.17,0.2 a 10.78,10.78 0 0 1 2.05,2 l 0.24,0.28 c 1.53,0.74 4.64,2.56 5.3,4.94 a 3.9,3.9 0 0 1 -1,3.81 4.06,4.06 0 0 1 -2.75,1.17 z"
       fill="#ff0000"
       id="path49" />
    <path
       d="m 582.43,48.5 a 1,1 0 0 0 0.5,0.13 c 0.18,0 0.34,0 0.5,0 a 0.56,0.56 0 0 1 0.25,0 c 1.3,0.51 2.48,0.35 3.72,1 1.72,0.86 3.73,3.49 6,4.23 0.12,0 0,0.26 0.09,0.37 a 11,11 0 0 0 1.12,1.49 c 0.86,0.86 3.73,4.47 4.46,4.83 a 3.73,3.73 0 0 1 1.11,0.84 c 0.12,0.28 0.55,1.39 0.65,1.49 1,1 1.52,0.91 2.7,1.62 a 5.34,5.34 0 0 1 1,1.63 c 0.08,0.22 0.4,0.24 0.6,0.37 0.78,0.49 4.46,3.84 4.83,4.09 0.37,0.25 0.66,1.21 1.35,1.48 0.42,0.17 0.35,0.92 0.75,1.12 1.8,0.9 7.06,3.58 8.69,5.21 0.33,0.33 0.36,0.93 0.74,1.2 0.89,0.65 2.86,1.4 3.48,2.23 1.21,1.62 4.83,6.27 6.56,7.21 0.36,0.2 0.59,0.08 0.6,0.6 a 0.11,0.11 0 0 1 0.07,0 0.09,0.09 0 0 1 0.07,0 4.87,4.87 0 0 0 0.88,0.88 25.92,25.92 0 0 1 2.33,2.37 c 0.08,0.08 0.16,0.07 0.28,0.1 0.42,0.1 4.39,2.43 3.58,3.25 a 0.53,0.53 0 0 1 -0.34,0.11 0.31,0.31 0 0 1 -0.27,-0.11 5.75,5.75 0 0 0 -1.77,-1.77 c -0.18,-0.11 -0.72,-0.08 -0.83,-0.37 -0.9,-2.24 -8.27,-5.83 -9.3,-7.53 -0.06,-0.11 -0.71,-0.12 -0.74,-0.14 -0.31,-0.18 -1.61,-0.72 -1.63,-0.74 a 15.82,15.82 0 0 0 -1.86,-2 c -1.38,-0.82 -4.71,-4.56 -5.06,-4.69 -2.09,-0.78 -3.71,-2.67 -6.09,-3.86 -0.32,-0.16 -0.74,-0.19 -1,-0.46 -1.49,-1.79 -11.06,-8.86 -11.16,-10 h -0.37 c 0.05,0 -0.36,-0.29 -0.51,-0.37 v 0 h -0.14 c 0,0 0,0 -0.05,0 l -1.26,-0.74 c -0.08,0 -1.84,-2.82 -2.46,-3.44 l -0.28,-0.28 c -1.72,-1.72 -3.26,-3.47 -5.43,-4.55 0,0 -1,-1.81 -1.35,-2.14 h -0.14 c -1.78,-0.45 -3.32,-0.26 -4.6,-1.11 -0.45,-0.31 -0.74,-1.93 -0.74,-2.84 V 49.1 c 0,-0.09 -0.06,-0.16 0,-0.23 0.06,-0.07 0.63,-0.15 0.51,-0.23 v -0.13 0 m 0,-7 a 7,7 0 0 0 -4.34,1.5 6.85,6.85 0 0 0 -1.72,1.6 v 0.06 a 7.11,7.11 0 0 0 -1.4,4.89 c 0.05,2 0.56,6.16 3.87,8.36 a 11.49,11.49 0 0 0 4.44,1.72 6.86,6.86 0 0 0 2.41,2 13.9,13.9 0 0 1 2.85,2.47 l 0.73,0.75 0.1,0.1 c 0.3,0.39 0.93,1.32 1.2,1.74 a 8.49,8.49 0 0 0 3,3.07 l 0.88,0.52 a 5.32,5.32 0 0 0 0.66,0.37 c 1.34,1.36 3.26,2.93 5.94,5.13 1.43,1.16 3.57,2.92 4.14,3.5 a 8,8 0 0 0 3.4,2.28 c 0.48,0.28 1,0.68 1.63,1.13 a 23.45,23.45 0 0 0 3.39,2.22 l 0.38,0.39 a 37.94,37.94 0 0 0 4.25,3.9 l 0.13,0.15 a 14.91,14.91 0 0 0 1.14,1.3 6.44,6.44 0 0 0 0.69,0.6 7.31,7.31 0 0 0 1.72,1 c 0.21,0.09 0.59,0.25 0.83,0.37 l 0.4,0.2 a 42.37,42.37 0 0 0 3.77,2.69 c 1,0.65 2.54,1.68 3.23,2.27 a 7.15,7.15 0 0 0 3.07,2.81 7.32,7.32 0 0 0 5.78,2.79 7.5,7.5 0 0 0 5.22,-2.1 l 0.08,-0.07 a 7.44,7.44 0 0 0 1.87,-7.22 10.48,10.48 0 0 0 -4.58,-5.65 20.21,20.21 0 0 0 -1.93,-1.2 13.58,13.58 0 0 0 -1.94,-1.92 7.47,7.47 0 0 0 -2.76,-2.32 50.15,50.15 0 0 1 -4.46,-5.29 12,12 0 0 0 -4.06,-3.23 8.58,8.58 0 0 0 -0.82,-1 c -1.06,-1.07 -3,-2.66 -8.76,-5.63 a 7.56,7.56 0 0 0 -1,-1 8.51,8.51 0 0 0 -1.74,-1.76 c -0.25,-0.2 -0.68,-0.58 -1.16,-1 -1.55,-1.35 -2.48,-2.15 -3.16,-2.69 a 8.75,8.75 0 0 0 -2.78,-2.81 c -0.28,-0.17 -0.54,-0.31 -0.78,-0.44 a 8.8,8.8 0 0 0 -3.2,-3.24 c -0.48,-0.51 -1.28,-1.44 -1.75,-2 -0.67,-0.79 -1.15,-1.34 -1.55,-1.77 a 7.05,7.05 0 0 0 -4,-3.76 c -0.32,-0.21 -1,-0.78 -1.43,-1.17 a 17.79,17.79 0 0 0 -3.8,-2.75 13.49,13.49 0 0 0 -4,-1.2 l -0.41,-0.07 a 7.63,7.63 0 0 0 -2.53,-0.48 6.72,6.72 0 0 0 -1.18,-0.1 z"
       fill="#ffffff"
       id="path51" />
    <path
       d="m 638.58,106.6 a 3.49,3.49 0 0 1 -2.8,-1.4 4.19,4.19 0 0 1 -0.49,-0.69 l -0.07,-0.12 a 4.71,4.71 0 0 1 -0.6,-0.47 5.42,5.42 0 0 1 -1.14,-0.77 c -0.25,-0.2 -0.93,-0.71 -1.26,-0.93 a 13.15,13.15 0 0 1 -4.55,-3.06 c -0.19,-0.18 -1,-0.74 -1.58,-1.11 a 23,23 0 0 1 -3.09,-2.34 3.74,3.74 0 0 1 -0.63,-0.5 l -0.07,-0.07 h -0.09 c -0.08,0 -5.69,-3.93 -8.24,-6.21 l -0.16,-0.11 a 29.3,29.3 0 0 1 -2.56,-2 15,15 0 0 0 -2.61,-1.94 8.64,8.64 0 0 1 -2.75,-3.27 c -0.29,-0.15 -0.59,-0.27 -0.93,-0.42 a 14.6,14.6 0 0 1 -6.36,-4.77 v 0 a 60.17,60.17 0 0 1 -9.39,-9.68 4.58,4.58 0 0 1 -2.28,-1.88 6.28,6.28 0 0 1 -0.58,-1.28 l -0.47,-0.13 a 4.4,4.4 0 0 1 -2.31,-1.14 8.87,8.87 0 0 1 -1.58,-2.38 v 0 a 6.33,6.33 0 0 1 -3,-2.19 4.08,4.08 0 0 1 -0.59,-2.65 3.53,3.53 0 0 1 1.81,-3.08 v 0 a 3.41,3.41 0 0 1 2.12,-0.71 h 1.76 a 3.44,3.44 0 0 1 1.8,0.5 14.58,14.58 0 0 1 1.59,1.17 c 0.29,0.22 0.73,0.57 1,0.78 a 13,13 0 0 1 5.5,2.44 7.22,7.22 0 0 1 2.72,4.78 3.41,3.41 0 0 0 0.22,0.85 c 0.85,1.17 5.21,5.26 7.1,7 1,1 1.89,1.78 2.32,2.21 a 7.79,7.79 0 0 1 1.26,1.74 v 0 h 0.1 a 4.78,4.78 0 0 1 2.73,1.2 10.9,10.9 0 0 0 0.88,0.67 11.1,11.1 0 0 1 1.49,1.19 4.27,4.27 0 0 1 1.05,1.88 c 0.56,0.44 1.23,1 1.83,1.55 a 3.65,3.65 0 0 1 1.43,0.88 l 0.36,0.17 c 0.34,0.16 0.63,0.31 0.84,0.43 a 5.78,5.78 0 0 1 1.77,1.89 l 0.23,0.34 a 15,15 0 0 1 1.69,1.44 4.21,4.21 0 0 1 1.17,0.76 c 0.18,0.09 0.56,0.25 0.83,0.36 a 8.36,8.36 0 0 1 3,1.76 63.91,63.91 0 0 0 5.9,5 c 1.53,1.2 3,2.34 4.24,3.53 a 4,4 0 0 1 0.47,0.45 v 0 a 2.67,2.67 0 0 1 0.31,0.36 v 0 c 0.14,0.14 0.33,0.32 0.53,0.55 a 6.53,6.53 0 0 1 2.83,2.37 4.12,4.12 0 0 1 0.83,2.54 v 0.6 A 3.54,3.54 0 0 1 642,104 l -0.12,0.33 a 3.51,3.51 0 0 1 -3.2,2.26 z"
       fill="#ff0000"
       id="path53" />
    <path
       d="m 584.05,54.68 c 0.59,0.35 2.63,2.12 3.07,2.23 a 10.9,10.9 0 0 1 4.6,1.85 c 1.94,1.62 1.13,2.69 2.09,4.61 0.78,1.55 8.44,8.43 10,10 0.61,0.61 1,1.92 1.77,2.37 0.29,0.18 2.21,0.5 2.32,0.61 0.69,0.69 1.83,1.32 2.37,1.85 0.19,0.2 0.32,1.38 0.51,1.49 0.19,0.11 3.09,2.52 3.21,2.74 0,0.06 0.07,0.07 0.14,0.07 h 0.31 c 0.07,0 0.12,0 0.15,0.06 0.3,0.45 1.42,0.85 1.86,1.11 0.44,0.26 1.07,1.59 1.48,1.86 0.26,0.17 1.85,1.6 1.86,1.63 0.18,0.46 0.68,0.26 1,0.6 0.86,0.86 2.88,1.16 3.71,2 3.69,3.68 7.68,6.21 10.37,8.8 l 0.14,0.12 v 0 l 0.1,0.1 v 0 c 0.35,0.44 0.81,0.7 1,1.22 0.19,0.52 1.43,0.32 1.77,0.88 0.17,0.29 0.3,0.34 0.46,0.61 0.16,0.27 0.28,0.29 0.28,0.65 v 0.6 l -0.13,0.33 a 0.58,0.58 0 0 0 -0.15,-0.19 c -0.21,-0.22 0.12,-0.06 -0.09,-0.28 l -0.14,-0.09 c 0,-0.05 0,-0.1 0,-0.14 0,-0.04 -0.21,-0.31 -0.38,-0.51 -0.17,-0.2 -0.63,-0.31 -0.88,-0.61 -0.25,-0.3 -0.85,-0.48 -1.11,-0.74 a 19.1,19.1 0 0 0 -2.09,-1.49 9.62,9.62 0 0 1 -3.58,-2.37 c -0.92,-0.91 -4.75,-3 -5.11,-4 -0.36,-1 -0.11,0 -0.16,0 v 0 a 3.27,3.27 0 0 0 -1.34,-0.88 c -0.33,-0.13 -7.55,-5.75 -7.58,-5.81 a 0.29,0.29 0 0 1 0,-0.09 v 0 a 0.26,0.26 0 0 1 -0.1,0 c -1.85,-1.23 -3.61,-3.2 -5.57,-4.18 a 9.82,9.82 0 0 1 -1.58,-2.51 v -0.09 c -2.53,-1.69 -4.13,-1.12 -7.34,-5 -0.06,-0.07 0,-0.21 -0.1,-0.23 -1.48,-0.5 -9.14,-8.74 -9.57,-9.81 -0.25,-0.63 -1.37,-0.53 -1.72,-1.12 -0.48,-0.8 -0.29,-1.34 -0.88,-2.23 a 20.13,20.13 0 0 0 -3,-1 c -0.76,-0.77 -1.1,-2 -1.58,-2.51 -0.48,-0.51 -2.11,-0.85 -2.6,-1.58 a 6.06,6.06 0 0 1 0,-0.74 v 0 c 0.13,0 0.39,-0.27 0.44,-0.28 h 1.76 m 0,-7 h -1.76 a 6.89,6.89 0 0 0 -2.34,0.4 7.9,7.9 0 0 0 -5.13,6.73 v 0 a 7.56,7.56 0 0 0 1.19,4.87 8.82,8.82 0 0 0 3.36,2.93 10.75,10.75 0 0 0 1.64,2.17 6.7,6.7 0 0 0 2.74,1.72 l 0.11,0.18 a 7.82,7.82 0 0 0 2.88,2.8 c 0.84,1 2.13,2.53 4.17,4.67 a 47.72,47.72 0 0 0 5.37,5 17.88,17.88 0 0 0 7.12,5.21 v 0 A 9.21,9.21 0 0 0 607,88 a 15,15 0 0 1 2,1.46 c 0.74,0.62 1.55,1.32 2.47,2 0.75,0.63 1.92,1.53 3.86,3 3.53,2.73 4.34,3.32 5.07,3.67 l 0.38,0.29 a 27,27 0 0 0 3.41,2.54 c 0.39,0.26 1,0.65 1.23,0.85 a 16.91,16.91 0 0 0 5.16,3.5 l 0.71,0.53 a 10.06,10.06 0 0 0 1.34,1 8.46,8.46 0 0 0 0.54,0.68 7,7 0 0 0 5.45,2.62 h 0.13 a 7,7 0 0 0 6.42,-4.51 l 0.12,-0.33 a 7.09,7.09 0 0 0 0.46,-2.49 v -0.6 a 7.62,7.62 0 0 0 -1.43,-4.5 9.94,9.94 0 0 0 -0.64,-0.87 7.53,7.53 0 0 0 -3.07,-2.5 5.11,5.11 0 0 0 -0.39,-0.42 6.75,6.75 0 0 0 -0.67,-0.64 c -1.35,-1.27 -2.83,-2.43 -4.38,-3.65 a 63.34,63.34 0 0 1 -5.6,-4.78 11.73,11.73 0 0 0 -4.18,-2.53 l -0.26,-0.11 a 7.88,7.88 0 0 0 -1.11,-0.71 l -0.33,-0.3 -0.72,-0.63 a 9.14,9.14 0 0 0 -2.81,-2.85 c -0.4,-0.24 -0.76,-0.41 -1.06,-0.56 a 7.37,7.37 0 0 0 -1.43,-0.91 c -0.29,-0.26 -0.58,-0.5 -0.86,-0.73 a 7.21,7.21 0 0 0 -1.5,-2.19 15,15 0 0 0 -2,-1.58 c -0.16,-0.11 -0.4,-0.28 -0.51,-0.37 a 7.19,7.19 0 0 0 -3,-1.73 9.32,9.32 0 0 0 -1,-1.17 c -0.48,-0.48 -1.28,-1.23 -2.39,-2.27 -1.55,-1.46 -4.95,-4.64 -6.3,-6.11 a 10.63,10.63 0 0 0 -3.89,-6.67 15.16,15.16 0 0 0 -6.18,-3 l -0.41,-0.32 a 17.78,17.78 0 0 0 -2,-1.43 7,7 0 0 0 -3.6,-1 z m 36.24,31.67 z"
       fill="#ffffff"
       id="path55" />
    <path
       d="m 638.56,106.64 a 3.48,3.48 0 0 1 -3.3,-4.65 v 0 a 3.49,3.49 0 0 1 3.2,-2.34 h 0.11 a 3.51,3.51 0 0 1 3.23,2.15 3.58,3.58 0 0 1 -0.32,3.33 3.54,3.54 0 0 1 -2.93,1.56 z"
       fill="#ff0000"
       id="path57" />
    <path
       d="m 638.57,103.1 c 0,0 0,0 0,0 v 0 0 m 0,-7 h -0.14 a 7,7 0 0 0 -6.41,4.52 v 0 a 7,7 0 0 0 6,9.46 h 0.58 a 7,7 0 0 0 0,-14 z"
       fill="#ffffff"
       id="path59" />
    <path
       d="M 435,110.5 A 10.94,10.94 0 1 1 445.94,99.56 11,11 0 0 1 435,110.5 Z"
       fill="#fdc007"
       id="path61" />
    <path
       d="m 435,92.13 a 7.44,7.44 0 1 1 -7.43,7.43 7.44,7.44 0 0 1 7.43,-7.43 m -0.39,11.32 a 3,3 0 0 0 2.23,-0.83 2.87,2.87 0 0 0 0.81,-2.1 3.05,3.05 0 0 0 -0.25,-1.34 2.35,2.35 0 0 0 -0.66,-0.85 A 2.22,2.22 0 0 0 436,98 a 2.71,2.71 0 0 0 -0.82,-0.12 2.75,2.75 0 0 0 -0.93,0.15 5.14,5.14 0 0 0 -0.81,0.41 2.35,2.35 0 0 1 0.64,-1.43 2,2 0 0 1 1.47,-0.5 2.86,2.86 0 0 1 0.75,0.09 2.56,2.56 0 0 1 0.46,0.16 h 0.15 v -1.6 a 3.58,3.58 0 0 0 -0.55,-0.09 7.16,7.16 0 0 0 -0.8,0 4.76,4.76 0 0 0 -1.89,0.34 3.49,3.49 0 0 0 -1.3,0.94 4.08,4.08 0 0 0 -0.74,1.47 7.19,7.19 0 0 0 -0.23,1.89 5.43,5.43 0 0 0 0.25,1.77 2.93,2.93 0 0 0 0.7,1.21 2.55,2.55 0 0 0 0.95,0.61 3.78,3.78 0 0 0 1.26,0.2 M 435,85.13 A 14.44,14.44 0 1 0 449.44,99.56 14.46,14.46 0 0 0 435,85.13 Z"
       fill="#ffffff"
       id="path63" />
    <path
       d="m 434.59,105.57 a 4.59,4.59 0 0 1 -1.75,-0.35 4.5,4.5 0 0 1 -1.69,-1.28 5.24,5.24 0 0 1 -0.94,-1.86 A 7.45,7.45 0 0 1 430,100 c 0,0 0,-0.42 0,-0.46 v -0.18 a 3.51,3.51 0 0 1 2.13,-3.08 6.49,6.49 0 0 1 1,-0.32 5.24,5.24 0 0 1 1.26,-0.15 5.3,5.3 0 0 1 1.39,0.18 4.31,4.31 0 0 1 1.76,0.91 4.5,4.5 0 0 1 1.28,1.81 5.47,5.47 0 0 1 0.34,1.92 5.21,5.21 0 0 1 -0.32,2 5,5 0 0 1 -0.78,1.38 4.25,4.25 0 0 1 -1.64,1.25 4.59,4.59 0 0 1 -1.83,0.31 z"
       fill="#fdc007"
       id="path65" />
    <path
       d="m 434.32,99.29 a 2,2 0 0 1 0.49,0.06 1,1 0 0 1 0.4,0.21 0.91,0.91 0 0 1 0.28,0.4 1.78,1.78 0 0 1 0.1,0.65 2,2 0 0 1 -0.09,0.7 1.22,1.22 0 0 1 -0.24,0.43 0.8,0.8 0 0 1 -0.32,0.25 0.93,0.93 0 0 1 -0.35,0.08 1,1 0 0 1 -0.39,-0.08 0.76,0.76 0 0 1 -0.32,-0.25 1.73,1.73 0 0 1 -0.31,-0.64 4.25,4.25 0 0 1 -0.12,-1.12 v -0.5 a 4.13,4.13 0 0 1 0.42,-0.14 2.28,2.28 0 0 1 0.44,0 m 0,-7 a 9.06,9.06 0 0 0 -2.13,0.26 10.69,10.69 0 0 0 -1.48,0.49 7,7 0 0 0 -4.24,6.15 v 0.18 a 2.81,2.81 0 0 0 0,0.29 V 100 a 10.8,10.8 0 0 0 0.4,3.06 8.79,8.79 0 0 0 1.63,3.16 7.86,7.86 0 0 0 6.11,2.87 7.93,7.93 0 0 0 3,-0.61 l 0.16,-0.07 a 7.77,7.77 0 0 0 3,-2.27 8.32,8.32 0 0 0 1.35,-2.37 9.44,9.44 0 0 0 0,-6.21 c 0,-0.05 0,-0.09 -0.05,-0.13 a 7.92,7.92 0 0 0 -5.46,-4.84 8.74,8.74 0 0 0 -2.23,-0.28 z"
       fill="#ffffff"
       id="path67" />
    <path
       d="M 459.52,110.5 A 10.94,10.94 0 1 1 470.45,99.56 11,11 0 0 1 459.52,110.5 Z"
       fill="#fdc007"
       id="path69" />
    <path
       d="m 459.52,92.13 a 7.44,7.44 0 1 1 -7.44,7.43 7.43,7.43 0 0 1 7.44,-7.43 m -3.34,9.87 h 3.71 v 1.64 h 1.49 V 102 h 1.48 v -1.64 h -1.48 v -4.9 h -2.23 l -3,4.9 V 102 m 3.34,-16.89 A 14.44,14.44 0 1 0 474,99.56 14.46,14.46 0 0 0 459.57,85.13 Z"
       fill="#ffffff"
       id="path71" />
    <path
       d="m 457.66,103.88 a 3.49,3.49 0 0 1 -3,-5.31 l 2.23,-3.68 a 3.48,3.48 0 0 1 3,-1.69 3.38,3.38 0 0 1 0.94,0.13 3.49,3.49 0 0 1 2.56,3.37 v 3.68 a 3.5,3.5 0 0 1 -3.5,3.5 z"
       fill="#fdc007"
       id="path73" />
    <path
       d="m 459.89,96.7 v 3.68 h -2.23 l 2.23,-3.68 m 0,-7 a 7,7 0 0 0 -6,3.37 l -2.23,3.68 a 7,7 0 0 0 6,10.63 h 2.23 a 7,7 0 0 0 7,-7 V 96.7 a 7,7 0 0 0 -5.11,-6.7 7.23,7.23 0 0 0 -1.89,-0.26 z"
       fill="#ffffff"
       id="path75" />
    <path
       d="M 484.8,110.5 A 10.94,10.94 0 1 1 495.73,99.56 11,11 0 0 1 484.8,110.5 Z"
       fill="#fdc007"
       id="path77" />
    <path
       d="m 484.8,92.13 a 7.44,7.44 0 1 1 -7.44,7.43 7.43,7.43 0 0 1 7.44,-7.43 m -1.49,7.81 h 3 v -0.75 h -3 v 0.75 M 484.8,85.13 A 14.44,14.44 0 1 0 499.23,99.56 14.46,14.46 0 0 0 484.8,85.13 Z"
       fill="#ffffff"
       id="path79" />
    <path
       d="M 510.08,110.5 A 10.94,10.94 0 1 1 521,99.56 11,11 0 0 1 510.08,110.5 Z"
       fill="#fdc007"
       id="path81" />
    <path
       d="m 510.08,92.13 a 7.44,7.44 0 1 1 -7.44,7.43 7.43,7.43 0 0 1 7.44,-7.43 m -3.26,11.53 h 3.25 a 5.25,5.25 0 0 0 1.39,-0.16 2.84,2.84 0 0 0 1,-0.51 2.08,2.08 0 0 0 0.61,-0.76 2.24,2.24 0 0 0 0.23,-1.06 1.84,1.84 0 0 0 -0.45,-1.31 2.2,2.2 0 0 0 -1.2,-0.65 v 0 a 1.78,1.78 0 0 0 0.82,-0.68 1.93,1.93 0 0 0 0.3,-1.06 1.77,1.77 0 0 0 -0.22,-0.9 1.52,1.52 0 0 0 -0.65,-0.63 2.57,2.57 0 0 0 -0.86,-0.29 11.43,11.43 0 0 0 -1.36,-0.06 h -2.87 v 8.11 m 3.26,-18.53 A 14.44,14.44 0 1 0 524.5,99.6 14.46,14.46 0 0 0 510.07,85.17 Z"
       fill="#ffffff"
       id="path83" />
    <path
       d="m 508.86,105.67 a 3.5,3.5 0 0 1 -3.5,-3.5 v -2 a 3.5,3.5 0 0 1 3.5,-3.5 h 1.36 a 5.14,5.14 0 0 1 1.6,0.29 4.47,4.47 0 0 1 2.06,1.53 4.64,4.64 0 0 1 0.28,4.87 4.28,4.28 0 0 1 -2.14,1.91 5.23,5.23 0 0 1 -1.82,0.41 h -1.34 z"
       fill="#fdc007"
       id="path85" />
    <path
       d="m 509.23,100.14 h 0.87 a 1.4,1.4 0 0 1 0.51,0.08 1,1 0 0 1 0.46,0.32 1,1 0 0 1 0.15,0.59 1.11,1.11 0 0 1 -0.13,0.52 0.79,0.79 0 0 1 -0.41,0.35 1.76,1.76 0 0 1 -0.62,0.15 h -1.2 v -2 h 0.37 m 0,-7 h -0.37 a 7,7 0 0 0 -7,7 v 2 a 7,7 0 0 0 7,7 h 1.46 a 8.94,8.94 0 0 0 3.09,-0.7 7.75,7.75 0 0 0 3.79,-3.38 v -0.06 a 8.08,8.08 0 0 0 1,-3.88 7.94,7.94 0 0 0 -1.45,-4.65 l -0.06,-0.09 a 8,8 0 0 0 -3.7,-2.75 8.64,8.64 0 0 0 -2.73,-0.5 z"
       fill="#ffffff"
       id="path87" />
    <path
       d="m 508.86,102.25 a 3.5,3.5 0 0 1 -3.5,-3.5 V 97 a 3.5,3.5 0 0 1 3.5,-3.5 h 1 a 4.78,4.78 0 0 1 1.82,0.4 4.09,4.09 0 0 1 2,1.9 4.47,4.47 0 0 1 0.49,2 4.68,4.68 0 0 1 -0.4,1.89 4.15,4.15 0 0 1 -2,2 5,5 0 0 1 -1.78,0.45 h -0.9 z"
       fill="#fdc007"
       id="path89" />
    <path
       d="m 509,97 h 0.81 a 1.14,1.14 0 0 1 0.48,0.09 0.77,0.77 0 0 1 0.32,0.3 1.07,1.07 0 0 1 0.1,0.41 1.11,1.11 0 0 1 -0.1,0.46 0.61,0.61 0 0 1 -0.33,0.32 1.06,1.06 0 0 1 -0.44,0.11 h -0.73 -0.25 V 97 H 509 m 0,-7 h -0.14 a 7,7 0 0 0 -7,7 v 1.72 a 7,7 0 0 0 7,7 h 0.25 c 0.52,0 0.89,0 1.1,0 a 8.18,8.18 0 0 0 2.93,-0.71 l 0.15,-0.07 a 7.69,7.69 0 0 0 3.68,-3.7 v -0.1 a 8.11,8.11 0 0 0 0.7,-3.3 7.78,7.78 0 0 0 -0.81,-3.46 1,1 0 0 0 -0.07,-0.15 7.66,7.66 0 0 0 -3.67,-3.48 8.25,8.25 0 0 0 -3.07,-0.71 H 509 Z"
       fill="#ffffff"
       id="path91" />
    <path
       d="M 534.61,110.5 A 10.94,10.94 0 1 1 545.55,99.56 10.95,10.95 0 0 1 534.61,110.5 Z"
       fill="#fdc007"
       id="path93" />
    <path
       d="m 534.61,92.13 a 7.44,7.44 0 1 1 -7.43,7.43 7.44,7.44 0 0 1 7.43,-7.43 m -0.74,11.15 h 1.48 v -7.43 h -1.48 v 7.43 m 0.74,-18.15 a 14.44,14.44 0 1 0 14.44,14.43 14.45,14.45 0 0 0 -14.44,-14.43 z"
       fill="#ffffff"
       id="path95" />
    <path
       d="M 559.89,110.5 A 10.94,10.94 0 1 1 570.83,99.56 10.95,10.95 0 0 1 559.89,110.5 Z"
       fill="#fdc007"
       id="path97" />
    <path
       d="m 559.89,92.13 a 7.44,7.44 0 1 1 -7.43,7.43 7.44,7.44 0 0 1 7.43,-7.43 m -3,5.2 h 2.23 v 6 h 1.48 v -6 h 2.23 v -1.48 h -5.94 v 1.48 m 3,-12.2 a 14.44,14.44 0 1 0 14.44,14.43 14.45,14.45 0 0 0 -14.44,-14.43 z"
       fill="#ffffff"
       id="path99" />
    <path
       d="m 559.15,106.78 a 3.49,3.49 0 0 1 -3.5,-3.5 v -2.68 a 3.5,3.5 0 0 1 -2.23,-3.27 v -1.48 a 3.49,3.49 0 0 1 3.5,-3.5 h 5.94 a 3.5,3.5 0 0 1 3.5,3.5 v 1.48 a 3.5,3.5 0 0 1 -2.23,3.27 v 2.68 a 3.49,3.49 0 0 1 -3.5,3.5 z"
       id="path101" />
    <path
       d="m 562.86,95.85 v 1.48 h -2.23 v 6 h -1.48 v -6 h -2.23 v -1.48 h 5.94 m 0,-7 h -5.94 a 7,7 0 0 0 -7,7 v 1.48 a 7,7 0 0 0 2.23,5.13 v 0.82 a 7,7 0 0 0 7,7 h 1.48 a 7,7 0 0 0 7,-7 v -0.82 a 7,7 0 0 0 2.23,-5.13 v -1.48 a 7,7 0 0 0 -7,-7 z"
       fill="#ffffff"
       id="path103" />
    <rect
       x="530.37"
       y="92.349998"
       width="8.4899998"
       height="14.44"
       rx="3.5"
       id="rect105" />
    <path
       d="m 535.35,95.85 v 7.43 h -1.48 v -7.43 h 1.48 m 0,-7 h -1.48 a 7,7 0 0 0 -7,7 v 7.43 a 7,7 0 0 0 7,7 h 1.48 a 7,7 0 0 0 7,-7 v -7.43 a 7,7 0 0 0 -7,-7 z"
       fill="#ffffff"
       id="path107" />
    <rect
       x="479.81"
       y="95.690002"
       width="9.9700003"
       height="7.7399998"
       rx="3.5"
       id="rect109" />
    <path
       d="m 486.29,99.19 v 0.75 h -3 v -0.75 h 3 m 0,-7 h -3 a 7,7 0 0 0 -7,7 v 0.75 a 7,7 0 0 0 7,7 h 3 a 7,7 0 0 0 7,-7 v -0.75 a 7,7 0 0 0 -7,-7 z"
       fill="#ffffff"
       id="path111" />
    <path
       d="m 459.89,107.16 a 3.5,3.5 0 0 1 -3,-1.64 h -0.75 a 3.5,3.5 0 0 1 -3.5,-3.5 v -1.64 a 3.47,3.47 0 0 1 0.5,-1.81 l 3,-4.91 a 3.49,3.49 0 0 1 3,-1.68 h 2.23 a 3.5,3.5 0 0 1 3.5,3.5 v 2 a 3.48,3.48 0 0 1 1.48,2.86 V 102 a 3.48,3.48 0 0 1 -1.78,3 3.49,3.49 0 0 1 -3.2,2.09 z"
       id="path113" />
    <path
       d="m 461.38,95.48 v 4.9 h 1.48 V 102 h -1.48 v 1.64 h -1.49 V 102 h -3.71 v -1.64 l 3,-4.9 h 2.23 m -3.72,4.9 h 2.23 V 96.7 l -2.23,3.68 m 3.72,-11.9 h -2.23 a 7,7 0 0 0 -6,3.37 l -3,4.9 a 7,7 0 0 0 -1,3.63 V 102 a 7,7 0 0 0 6.16,7 7,7 0 0 0 4.55,1.69 h 1.49 a 7,7 0 0 0 5.86,-3.17 7,7 0 0 0 2.62,-5.47 v -1.64 a 7,7 0 0 0 -1.48,-4.31 v -0.59 a 7,7 0 0 0 -7,-7 z"
       fill="#ffffff"
       id="path115" />
    <path
       d="m 506.82,107.16 a 3.5,3.5 0 0 1 -3.5,-3.5 v -8.11 a 3.5,3.5 0 0 1 3.5,-3.5 h 2.87 a 13.18,13.18 0 0 1 1.86,0.1 6.09,6.09 0 0 1 2,0.67 5,5 0 0 1 2.07,2 5.33,5.33 0 0 1 0.64,2.58 5.68,5.68 0 0 1 -0.11,1.09 5.47,5.47 0 0 1 0.65,2.65 5.94,5.94 0 0 1 -0.6,2.63 5.79,5.79 0 0 1 -1.59,2 6.65,6.65 0 0 1 -2.2,1.12 9,9 0 0 1 -2.36,0.29 z"
       id="path117" />
    <path
       d="m 509.69,95.55 a 11.43,11.43 0 0 1 1.36,0.06 2.57,2.57 0 0 1 0.86,0.29 1.52,1.52 0 0 1 0.65,0.63 1.77,1.77 0 0 1 0.22,0.9 1.93,1.93 0 0 1 -0.3,1.06 1.78,1.78 0 0 1 -0.82,0.68 v 0 a 2.2,2.2 0 0 1 1.2,0.65 1.84,1.84 0 0 1 0.45,1.31 2.24,2.24 0 0 1 -0.23,1.06 2.08,2.08 0 0 1 -0.61,0.76 2.84,2.84 0 0 1 -1,0.51 5.25,5.25 0 0 1 -1.39,0.16 h -3.25 v -8.07 h 2.87 m -0.83,3.2 h 0.25 0.73 a 1.06,1.06 0 0 0 0.44,-0.11 0.61,0.61 0 0 0 0.33,-0.32 1.11,1.11 0 0 0 0.1,-0.46 1.07,1.07 0 0 0 -0.1,-0.41 0.77,0.77 0 0 0 -0.32,-0.3 1.14,1.14 0 0 0 -0.48,-0.09 h -0.95 v 1.72 m 0,3.42 h 1.2 a 1.76,1.76 0 0 0 0.62,-0.15 0.79,0.79 0 0 0 0.41,-0.35 1.11,1.11 0 0 0 0.13,-0.52 1,1 0 0 0 -0.15,-0.59 1,1 0 0 0 -0.46,-0.32 1.4,1.4 0 0 0 -0.51,-0.08 h -1.24 v 2 m 0.83,-13.62 h -2.87 a 7,7 0 0 0 -7,7 v 8.11 a 7,7 0 0 0 7,7 h 3.25 a 12.22,12.22 0 0 0 3.26,-0.41 h 0.06 a 9.83,9.83 0 0 0 3.35,-1.7 v 0 a 9.09,9.09 0 0 0 2.56,-3.14 9.31,9.31 0 0 0 1,-4.19 9.07,9.07 0 0 0 -0.55,-3.17 c 0,-0.19 0,-0.38 0,-0.57 a 9,9 0 0 0 -1.06,-4.24 8.64,8.64 0 0 0 -3.5,-3.46 9.79,9.79 0 0 0 -3.09,-1 h -0.08 a 15.82,15.82 0 0 0 -2.36,-0.14 z"
       fill="#ffffff"
       id="path119" />
    <path
       d="m 434.59,107 a 7.28,7.28 0 0 1 -2.45,-0.41 6.13,6.13 0 0 1 -2.25,-1.44 6.57,6.57 0 0 1 -1.54,-2.57 9.07,9.07 0 0 1 -0.42,-2.87 10.83,10.83 0 0 1 0.35,-2.82 7.56,7.56 0 0 1 1.41,-2.75 6.79,6.79 0 0 1 2.65,-2 8.26,8.26 0 0 1 3.25,-0.62 8.93,8.93 0 0 1 1.25,0.08 c 0.41,0.05 0.71,0.11 0.86,0.14 a 3.51,3.51 0 0 1 2.74,3.42 v 1.59 a 4.07,4.07 0 0 1 -0.05,0.61 l 0.15,0.31 a 6.55,6.55 0 0 1 0.59,2.85 6.31,6.31 0 0 1 -6.54,6.43 z"
       id="path121" />
    <path
       d="m 435.59,95 a 7.16,7.16 0 0 1 0.8,0 3.58,3.58 0 0 1 0.55,0.09 v 1.59 h -0.15 a 2.56,2.56 0 0 0 -0.46,-0.16 2.86,2.86 0 0 0 -0.75,-0.09 2,2 0 0 0 -1.47,0.5 2.35,2.35 0 0 0 -0.64,1.43 5.14,5.14 0 0 1 0.81,-0.41 2.75,2.75 0 0 1 0.93,-0.15 2.71,2.71 0 0 1 0.79,0.2 2.22,2.22 0 0 1 0.69,0.34 2.35,2.35 0 0 1 0.66,0.85 3.05,3.05 0 0 1 0.25,1.34 2.87,2.87 0 0 1 -0.81,2.1 3,3 0 0 1 -2.23,0.83 3.78,3.78 0 0 1 -1.26,-0.2 2.55,2.55 0 0 1 -0.95,-0.61 2.93,2.93 0 0 1 -0.7,-1.21 5.43,5.43 0 0 1 -0.25,-1.77 7.19,7.19 0 0 1 0.23,-1.89 4.08,4.08 0 0 1 0.74,-1.47 3.49,3.49 0 0 1 1.3,-0.94 4.76,4.76 0 0 1 1.89,-0.34 m -1,7 a 0.93,0.93 0 0 0 0.35,-0.08 0.8,0.8 0 0 0 0.32,-0.25 1.22,1.22 0 0 0 0.24,-0.43 2,2 0 0 0 0.09,-0.7 1.78,1.78 0 0 0 -0.1,-0.65 0.91,0.91 0 0 0 -0.28,-0.4 1,1 0 0 0 -0.4,-0.21 2,2 0 0 0 -0.49,-0.06 2.28,2.28 0 0 0 -0.44,0 4.13,4.13 0 0 0 -0.42,0.14 v 0.5 a 4.25,4.25 0 0 0 0.12,1.12 1.73,1.73 0 0 0 0.31,0.64 0.76,0.76 0 0 0 0.32,0.25 1,1 0 0 0 0.39,0.08 m 1,-14 a 11.69,11.69 0 0 0 -4.63,0.9 10.3,10.3 0 0 0 -4,3 10.92,10.92 0 0 0 -2.07,4 14.18,14.18 0 0 0 -0.48,3.76 12.41,12.41 0 0 0 0.61,4 10,10 0 0 0 2.37,3.92 9.35,9.35 0 0 0 3.49,2.24 h 0.05 a 10.75,10.75 0 0 0 3.64,0.62 9.8,9.8 0 0 0 10,-9.93 10.21,10.21 0 0 0 -0.69,-3.81 v -1.52 a 7,7 0 0 0 -5.44,-6.83 10.91,10.91 0 0 0 -1.23,-0.2 12.15,12.15 0 0 0 -1.68,-0.11 z"
       fill="#ffffff"
       id="path123" />
    <path
       d="m 416.31,23.92 c 0.37,0.09 0.55,-0.3 0.83,-0.47 0.45,-0.27 4.64,-1.58 4.68,-1.63 0.42,-0.42 -0.21,-1.44 0.15,-1.67 0.36,-0.23 1.21,-0.13 1.54,-0.32 1.61,-1 4,-1 5.62,-2 0.48,-0.31 0.94,-1.1 1.44,-1.3 1,-0.41 2.28,-0.4 3.39,-0.84 0.57,-0.23 0.73,-1.14 1.07,-1.53 a 11.57,11.57 0 0 1 2.14,-1.53 c 1.1,-0.89 -4.22,0.17 -2.28,-1.77 C 436.83,8.92 444.29,9.73 445,9 l 0.14,-0.23 c 0.51,-0.51 1.76,0.1 1.76,-1.3 V 7 c -0.05,0 -4.84,0.47 -5.2,0.56 -3.12,0.78 -7.15,0.42 -10.08,1.3 -1.27,0.38 -7.8,1.41 -8.28,1.89 l -1.15,0.8 c -5.44,1.09 -10.93,1.7 -16.36,2.61 -2.7,0.45 -6.63,0.57 -9,1.35 -2.14,0.72 -5.6,0.89 -7.74,1.48 -1.68,0.47 -6.41,-0.54 -7.9,0.09 a 2.67,2.67 0 0 0 -0.46,2.05 c 0.2,0.2 0.82,0.15 1.06,0.33 0.24,0.18 0.61,0.34 0.47,0.69 -0.14,0.35 -2.1,-0.09 -2.6,0.74 -0.61,1 1.54,2.41 1.9,3 0.57,0.94 -1.65,1.36 -1.16,2.6 h 0.93 a 1.29,1.29 0 0 1 1.16,0.6 l 0.41,0.33 c 0.89,1.25 21.57,-2.23 21.57,-2.23 0,0 -6,51.55 -30.48,54.27 -5.58,0.62 -11.5,-6.54 -11.9,-6.69 a 1.86,1.86 0 0 0 -1.32,0 1.78,1.78 0 0 0 0.23,2.13 c 2.78,3.16 11.06,10 19.31,9.75 25.69,-0.57 36,-60.73 36,-60.73 z"
       fill="#ff0000"
       id="path125" />
    <path
       d="m 414.49,51.52 v 0.14 c 0,2.6 1.82,0.79 2.42,1.39 a 3.64,3.64 0 0 1 -0.14,1.44 c -2.14,4.29 -4,8.74 -6.74,12.87 a 8.27,8.27 0 0 0 -0.28,0.84 c -1,1.93 -2.46,4 -3.25,5.62 -0.3,0.6 -0.36,1.27 -0.7,2 0,0.08 -0.18,1.3 -0.28,1.12 0,1.64 -1.71,4.56 -1.11,5.76 0.18,0.36 0.08,-0.29 0.28,-0.42 0.43,-0.29 1.09,-0.52 1.39,-1 0.3,-0.48 0.8,-3 1,-3.07 0.65,-0.43 1,-1.31 1,-0.14 a 3.79,3.79 0 0 1 -0.14,1.39 c -0.07,0.21 0.07,0.49 0,0.7 l -0.19,0.42 v 0.7 l 0.19,-0.28 0.14,-0.28 c 0.08,-0.16 0,-0.33 0.14,-0.56 0.21,-0.41 0,-0.32 0,-0.33 l 0.23,-0.23 c 0.34,-0.34 0.07,-1 0.42,-1.39 A 19.86,19.86 0 0 0 410,76.33 l 0.84,-1.53 c 0.13,-0.27 0.22,-0.75 0.41,-0.56 1,1 0.76,3.63 0.28,5.07 a 4.27,4.27 0 0 0 -0.28,1 c 0.1,0.09 0.17,-0.22 0.28,-0.28 1.32,-0.65 0.35,-2.07 0.7,-2.42 1.34,-1.33 1.55,-3.77 2.93,-5.15 2.32,-2.33 6.66,-17.31 8.88,-19.52 1.75,-1.75 11.21,-3.78 13,-5.57 1.16,-1.17 1.11,2.1 1.11,2.51 0,1.13 -0.07,10 0,10.22 0.3,0.9 0.83,1.41 1.12,2.27 0.44,1.33 -0.41,6.57 1,8 0.2,0.2 0.12,-0.27 0.14,-0.28 a 5.69,5.69 0 0 0 0.69,-1.72 c 0,-0.3 0.08,-1 0.28,-0.84 0.2,0.16 1.4,4.51 1.54,4.65 0.3,0.29 -0.05,0.88 0.14,1.25 0.1,0.2 0.38,0.37 0.42,0.42 0.04,0.05 0.09,0.38 0.13,0.28 0.3,-0.6 0.19,-1.49 0.56,-2.23 0.37,-0.74 0.29,-2 0.7,-2.42 0.63,-0.63 1.56,1.62 1.67,1.72 0.11,0.1 0.59,0.53 0.7,0.42 v -2.86 c 0,-4.44 0,-28.86 0.14,-29.14 0.14,-0.28 1.16,-15.25 1.16,-17 0,-2.12 -0.35,-1.61 -1.44,-2.69 a 10.57,10.57 0 0 1 -0.14,-2.38 l -1.12,-1 c -0.42,-0.43 -3.49,1.39 -4.74,1.39 -2.71,0 -2,0.88 -3.39,2.23 -0.07,0.08 -0.2,-0.06 -0.28,-0.13 -0.29,-0.3 -0.28,-0.31 -0.28,-0.84 v -0.42 a 3.63,3.63 0 0 0 -1.39,0.42 c -0.74,0.49 -1.4,2.28 -1.81,3.11 -0.79,1.58 -2,2.8 -2.84,4.46 -0.33,0.67 -0.68,3.1 -1.11,3.53 -2.06,2.06 -5.78,8.17 -7,10.64 -0.14,0.29 -0.7,2.23 -0.7,2.23 a 45.87,45.87 0 0 0 -3.62,6.19 c -0.12,0.35 -2.22,1.21 -2.65,1.39 -0.43,0.18 -1,0.1 -1.3,0.42 -0.3,0.32 -0.08,0.2 -0.08,0.21 z m 13.43,-5 h -0.05 c 0,-1.4 3.16,-5.86 3.68,-7.9 v -0.05 c 0.34,-0.17 0.44,-1.31 0.55,-1.39 0.92,-0.69 2.39,-3.92 3.77,-5.3 l 1.49,-1.44 c 0.1,-0.1 0.31,-0.19 0.41,-0.09 0.1,0.1 0,4.54 -0.14,5 -0.26,1.33 0.17,5.49 -0.09,6.1 -0.26,0.61 -1.43,1 -2.62,1.62 a 21.92,21.92 0 0 1 -4.54,2.23 c -0.61,0.13 -0.52,1.4 -2.41,1.4 z"
       fill="#ff0000"
       id="path127" />
    <path
       d="m 475.06,17.93 h 0.07 a 3.71,3.71 0 0 1 0.84,0.23 c 0.23,0.16 0,-0.17 0.28,0 a 12.46,12.46 0 0 0 1.48,1.21 2.48,2.48 0 0 0 1,0.05 h 0.37 a 11.94,11.94 0 0 0 2.23,3.44 c 0.34,0.2 1.09,0.19 1.54,0.42 0.11,0.05 0.35,0 0.46,0 h 0.19 c 0,0.73 -1.82,1.25 -1.3,1.77 0.77,0.77 0.94,1.7 -0.79,2.14 -1.3,0.32 -2.76,-0.18 -4,0.32 -1.46,0.58 -2.93,1.75 -4.46,2.14 h -0.05 C 465.61,32.11 458,42.43 458,50.22 v 0.28 c 0,5.13 3,11 7.71,12.87 0.64,0.26 1.15,1 1.95,1.11 a 12.6,12.6 0 0 0 2.28,0.51 c 0.56,0 3.69,0.49 4.13,0.23 1.07,-0.6 2.25,-1 3.3,-1.67 0.56,-0.37 0.13,-2.21 -0.09,-2.32 -1.19,-0.6 -0.14,-7.94 0.33,-9.34 0.38,-1.16 1.2,-3 0.55,-3.62 l -0.18,-0.19 a 2.6,2.6 0 0 0 -0.89,-0.14 c -1,0.66 -3.73,0.23 -4.13,0.46 -1.42,0.81 -2.86,1.45 -4.28,2.23 -0.38,0.21 -2.74,1.67 -3,1.12 -0.06,-0.12 0.3,-0.35 0.37,-0.42 a 9.61,9.61 0 0 1 1.3,-1.16 c 0.83,-0.49 1.43,-2.76 2.28,-3.44 a 30.48,30.48 0 0 1 10,-4.79 c 0.07,0 0.2,0 0.23,0 l 0.09,-0.19 1.77,-0.79 c 0.61,-0.3 0.95,-1.15 1.58,-1.25 0.63,-0.1 0.75,0.6 1.12,0.79 1.37,0.69 2.88,-0.81 2.88,0.79 v 1.21 c -0.76,0.76 -0.21,2.69 -0.65,3.58 -0.22,0.43 -1.91,7 -1.91,7.2 0,0.2 -0.62,3 -0.65,3.07 -0.23,0.29 -0.32,7.86 -0.32,8.87 a 12.82,12.82 0 0 0 0.83,4.14 4.59,4.59 0 0 1 0.28,1 c 0,0.17 0.15,0.18 0.09,0.24 -0.3,0.3 -0.68,-0.44 -0.79,-0.47 -2.44,-0.7 -4.8,-4.76 -4.88,-4.79 -1.23,-0.49 -1.16,1.61 -2.13,2.1 A 10.53,10.53 0 0 0 474.26,70 c -0.74,1 -8.47,0.92 -9.17,0.23 -1,-1 -2.92,-0.87 -4,-1.67 -0.61,-0.46 -6.82,-6 -6.92,-6.36 a 26,26 0 0 0 -1.54,-3.63 84,84 0 0 1 -1.31,-8.32 c -0.78,-10.4 5,-20.68 12.09,-26.76 1,-0.87 2.14,-2.49 3.35,-3 1.44,-0.57 2.69,-0.83 4.23,-1.34 a 28.53,28.53 0 0 0 3.39,-1 c 0.16,-0.08 0.43,-0.28 0.65,-0.23 z"
       fill="#ff0000"
       id="path129" />
    <path
       d="m 503,15.55 h -0.18 c 0.25,0.25 -0.19,0.19 -0.19,0.19 a 4.1,4.1 0 0 0 -0.93,1.11 c -0.22,0.66 -2.63,3.43 -2.23,4.65 0,0 -0.49,0.3 -0.56,0.37 a 23.37,23.37 0 0 0 -1.3,2.42 c -0.38,0.57 -2.62,6.56 -3,7.62 -0.08,0.23 0.09,0.92 0,1.11 -0.73,1.46 -1.68,3 -2.42,4.46 -1.07,2.15 -1.85,5.94 -3.16,8.55 -0.86,1.72 -1.86,6.14 -2.41,9.67 a 44.77,44.77 0 0 0 0,6.13 11.31,11.31 0 0 0 0.18,2.61 c 0.08,0.15 0.43,0.86 0.56,0.74 -0.2,0.59 0.9,0.89 1.12,1.11 0,0 0.43,1 0.55,1.12 0.12,0.12 0.55,0.2 0.37,0.37 1.78,-0.59 4.33,0.84 6.7,-0.74 0.49,-0.33 4.2,-2.63 4.27,-2.6 l 0.56,-0.75 c 0.53,-0.8 1.57,-1.29 2,-2.23 0.43,-0.94 2.43,-4.09 3.35,-4.09 -1.52,0.22 -0.37,9 -0.37,10 h 0.37 c 0,0.4 0.24,1.92 0.74,1.67 -0.14,0.42 0.95,1.07 1.3,1.3 2.17,1.45 5.31,-2.12 6.14,-1.3 0.13,0.13 -0.81,1.74 -0.93,2.23 a 66.34,66.34 0 0 1 -3.35,7.07 c -0.46,0.46 -1.86,2.21 -1.86,3 0,0.51 -0.08,0.66 0.19,0.93 0,0 -0.06,0.43 0.19,0.18 v 0.38 c 0.22,-0.22 0.73,0.91 0.74,0.92 0.35,0.36 2.47,-0.57 2.23,-1.3 0.22,0.23 0.33,-0.66 0.56,-0.74 0.85,-0.29 1.05,0.68 1.3,0.56 0.87,-0.44 2.6,-3.17 2.6,-1.12 h 0.37 v -0.37 c 0.11,0.06 0.67,-0.32 0.75,-0.37 A 27.19,27.19 0 0 0 520.86,75 c 0.12,-0.37 1.09,-1.59 1.3,-1.49 v -0.37 c 0.17,0.17 0.36,-0.36 0.37,-0.37 a 10.67,10.67 0 0 1 0.93,-0.56 c 0.13,-0.08 0.17,-0.29 0.37,-0.19 -0.15,-0.44 0.23,-1 0.56,-1.3 2.28,-2.28 7.29,-12.91 9.11,-16.54 a 38.27,38.27 0 0 1 3,-3.9 l 2,-0.19 c 0.13,0 0.72,-0.2 0.55,-0.37 0.32,0.11 4.76,-3.53 6.32,-3.53 -0.11,-0.11 0.61,-0.52 0.74,-0.56 a 9.21,9.21 0 0 1 2,-0.56 V 44.7 c 0.23,0 1.55,-0.68 1.86,-0.37 0.73,0.73 -0.75,6.63 -0.75,6.69 a 19.54,19.54 0 0 0 0.56,2.6 h 0.38 c 0,2.59 0.37,5.14 0.37,7.81 v 0.75 c 0.07,0.07 1,-0.08 1.11,0 1,1 0.17,5.56 1.68,7.06 0.05,0 0,0.11 0,0.18 0,0.42 0.2,0.56 0.55,0.56 0,0.68 0,0.79 -0.37,1.12 0,0 0.19,0.58 0.19,0.92 0.47,-0.23 0.35,0.54 0.37,0.56 0.6,0.6 0,1.9 -0.37,2.61 0,0 -0.13,1.23 0.18,0.93 -0.22,0.65 0.37,0.25 0.37,0.93 h 0.38 c -0.08,0.07 0.46,0.47 0.55,0.74 a 4.61,4.61 0 0 1 0.38,1.49 h 0.18 v 0.55 h 0.37 l 0.19,0.37 v 0.38 c 0.4,0.39 0.43,-1.17 0.18,-1.68 -0.37,-0.75 0.19,-2.62 0.19,-3.53 a 70,70 0 0 1 0.74,-7.25 c 0.81,-2.41 0.5,-15.51 0.75,-16.54 a 84.19,84.19 0 0 0 1.48,-16 46.29,46.29 0 0 1 1.37,-10.36 20.34,20.34 0 0 1 0.75,-3.35 c 0.12,-0.24 0.44,-0.32 0.55,-0.56 0,0 0.12,-1 -0.18,-0.74 v -0.93 h -0.37 c 0,-0.06 0.1,-0.85 -0.19,-0.56 v -0.37 c -0.69,0 -1.62,-0.37 -2.41,-0.37 -0.09,0 -1.66,-0.2 -1.49,-0.37 h -0.37 c 0.19,-0.2 -0.5,-0.5 -0.75,-0.38 v -0.37 l -0.18,-0.18 h -0.56 c 0.16,-0.16 -0.52,-0.52 -0.56,-0.56 -0.29,-0.29 -0.16,-1 -0.55,-1.12 -0.39,-0.12 -0.86,0.46 -1.12,0.19 0.33,1 -1,0.74 -1.3,1.3 -0.54,1.08 0.16,2.64 -0.37,3.72 l -1.9,1.67 a 0.14,0.14 0 0 0 0,0.19 c -0.62,0 -1.75,1.18 -1.86,1.11 0.1,0.1 -0.09,0.28 -0.19,0.38 -0.34,0.34 -1.21,0.75 -1.48,1.3 -0.56,1.12 -2.2,2.17 -2.79,3.34 -1,1.93 -3.23,5.33 -5.2,6.32 -0.35,0.18 -1,2.1 -1.49,1.86 0.11,0.32 -1.41,1.7 -1.68,2.23 -0.62,1.25 -2.61,5 -3.34,6.13 -0.38,0.58 -1.64,1 -1.49,1.49 0,0 -2,1.24 -1.86,1.68 -0.29,-0.15 -3.07,2.14 -3.34,2.41 -0.55,0.55 -2.73,0.44 -3,0.93 -0.27,0.49 1,2.06 0.56,3 -0.29,0.59 -1.3,0.83 -1.3,1.49 h 0.93 c 0.93,0 1.47,-0.56 2.23,-0.56 0.12,0 0.31,-0.06 0.19,0.19 a 102.16,102.16 0 0 1 -6,8.74 16.45,16.45 0 0 1 -2.23,-0.19 c -0.22,-0.22 -0.34,-1 -0.56,-0.74 0,-0.42 -0.05,-3.62 0,-3.72 0.95,-1.89 0.9,-4.4 1.86,-6.32 1.27,-2.55 3.87,-9.81 5,-11.53 0.3,-0.44 0.72,-0.65 0.56,-1.3 h 0.18 c 0.82,-3 2.73,-6 3.72,-8.92 a 22.51,22.51 0 0 1 1.67,-4.09 l 0.74,-0.56 c -0.09,-0.29 0.75,-1.66 0.38,-2 -0.06,-0.06 -0.7,-0.61 -0.56,-0.74 h -0.37 l -0.19,-0.19 V 23.8 c -0.61,0.61 0.53,-3.5 -0.18,-2.79 0,-1.5 -3.06,-1.3 -4.28,-1.3 l -0.18,-0.18 v -0.38 c -0.15,0.14 -0.37,-0.19 -0.56,-0.19 a 9.75,9.75 0 0 0 -2.24,0.19 c -1.21,0.81 -3.86,7.59 -5,8.74 l -0.56,1.48 c -0.16,0.32 -0.78,0.6 -0.56,0.93 h -0.18 c 0.54,1.64 -1,2.87 -1.68,3.91 -0.13,0.19 -1.11,6.17 -1.11,7.06 h -0.37 c 0,0.17 -0.2,0.93 -0.37,0.74 0.2,0.81 -1.07,2.45 -1.3,3.16 -2.54,7.61 -1.71,4.87 -7.07,10.23 -1,1 -1.75,2.53 -3,3.34 a 8.94,8.94 0 0 0 -1.68,1.12 0.13,0.13 0 0 0 0,0.18 h -0.37 c 0.27,0.27 -1.35,0.69 -1.11,0.94 -0.09,0 -2.37,2.34 -4.09,1.48 -2.32,-1.16 2.12,-9.62 1.86,-10.41 a 3.17,3.17 0 0 0 0.74,-0.93 c 0.5,-1 0.31,-2.79 0.93,-3.71 1.43,-2.15 3,-3 3,-6.14 l 0.19,-0.37 h 0.37 a 4.59,4.59 0 0 0 0.37,-1.12 0.12,0.12 0 0 0 0.19,0 l 0.93,-0.92 c 1,-1 1.05,-2.86 1.67,-4.09 0.32,-0.63 1.38,-1.1 1.67,-1.68 0.29,-0.58 -0.22,-2.15 0.19,-3 0.06,-0.12 0.4,-0.91 0.56,-0.75 -0.13,-0.37 3.35,-5 3.16,-5.38 h 0.37 c -0.22,-0.44 1.67,-3.77 1.67,-3.91 h -0.37 v -0.37 c -0.27,0.27 -1,-1 -1.11,-1.12 a 0.14,0.14 0 0 0 -0.19,0 v -0.37 h -0.37 c 0.24,-0.24 -0.19,-0.18 -0.19,-0.18 0,0 -0.13,-1.17 -0.37,-0.93 a 18.65,18.65 0 0 0 -0.56,-1.86 h -0.37 c 0.7,-1.41 -2.2,-1 -3,-0.74 -0.27,0.1 -1.24,1.26 -1.54,1.07 z m 38.39,25 c 0.06,0 0.46,-1.42 0.69,-1.81 1,-1.63 2,-3.67 3.12,-5.16 0.95,-1.28 5.71,-7.33 4.6,-1.77 -0.23,1.15 -0.75,1.71 -0.75,3 0,2.38 -0.56,2.11 -2.32,2.55 -1.76,0.44 -3.79,3.19 -5.33,3.19 z"
       fill="#ff0000"
       id="path131" />
    <path
       d="m 560.9,84.3 c -0.06,0 0,-0.11 0,-0.16 v -0.93 c 0,-0.69 0.78,-1.91 0.6,-2.09 -1.75,-1.75 2,-6.89 2.88,-9 0.1,-0.23 -0.07,-2.06 0,-2.13 0.07,-0.07 0.71,-0.29 0.6,-0.47 a 2.57,2.57 0 0 1 -0.32,-1.76 c 0.18,-0.41 0.77,-0.59 0.93,-0.94 a 14,14 0 0 1 0.88,-2.41 c 0.1,-0.15 0.1,-0.87 0.33,-1.21 0.23,-0.34 0.14,-0.52 0.28,-0.74 0.43,-0.73 1.12,-0.76 1.34,-1.49 0.39,-1.3 -0.31,-3 0,-3.76 0.59,-1.48 2.75,-8.67 3.16,-9.2 l 0.47,-0.61 c 0.84,-1.1 0,-2.46 0.46,-3.48 a 26.23,26.23 0 0 1 1.63,-3.16 c 0.33,-0.55 0.41,-2.71 1.21,-4.05 a 11.5,11.5 0 0 0 0.46,-3 c -0.22,-0.23 -0.94,0.74 -1.21,0.92 -0.47,0.32 -1,0.26 -1.48,0.75 -0.15,0.15 -4.71,1.13 -4.37,-0.33 -0.08,0.08 -0.56,-0.4 -0.61,-0.42 -0.41,-0.17 -0.24,0.1 -0.74,-0.18 -0.06,0 -1.48,-0.09 -1.53,-0.14 -1,-1 -1,-1.39 -2.23,-2.1 -0.31,-0.17 -0.06,-0.35 -0.61,-0.18 0.14,-0.1 -0.45,-0.27 -0.46,-0.28 -0.24,-0.24 0.14,-2.14 0.28,-2.27 0.93,-0.93 4.23,-2.94 3.76,-4.51 0.34,-0.15 0,0 0.33,-0.28 a 6.65,6.65 0 0 1 1.07,-0.61 17.62,17.62 0 0 0 3.16,-1.2 4.64,4.64 0 0 1 1.2,-0.61 61.82,61.82 0 0 1 6.74,-2.41 c 0.51,-0.15 0.66,-0.71 1.21,-0.94 0.55,-0.23 1.3,-0.15 1.67,-0.41 l 0.47,-0.33 c 2.41,-1.68 8.73,-0.93 9.94,-1.62 0.76,-0.44 1.53,-1.4 2.09,-1.67 0.92,-0.46 10.92,1.08 11.62,1.48 1.17,0.67 1.83,0.67 2.69,1.53 0.06,0.05 1,1.36 1.21,1.21 0,0.8 2,1.12 2.09,1.35 a 4.27,4.27 0 0 0 1.81,1.95 7.28,7.28 0 0 1 0.47,1.21 5.4,5.4 0 0 0 1.21,1.49 c 0.54,0.54 -0.07,1.59 0.28,2.27 0.17,0.35 -0.2,1.6 -0.14,1.95 -0.37,0.86 0.16,2.54 -0.13,3.5 a 21.17,21.17 0 0 1 -3.36,6.31 c -1,1.37 -2.56,1.65 -3.3,2.7 -0.13,0.18 -0.42,1.25 -0.74,1.34 a 16.71,16.71 0 0 0 -3.9,2.14 6,6 0 0 1 -1.82,1.35 l -0.6,0.14 h -0.33 c 0,0.1 3.25,3 3.49,3.3 1.81,1.8 2.72,4.67 4.23,6.18 a 28.59,28.59 0 0 1 3.55,3.71 c 0,0.06 0.11,0 0.18,0 4.18,1.67 8.47,7.78 12.32,9.48 -0.1,0.17 0.81,0.84 0.93,0.93 a 16.2,16.2 0 0 1 2.41,2.42 c 0.63,0.94 8.08,7.9 9.79,9.61 a 4.53,4.53 0 0 1 0.29,2.14 c 0.37,-1.22 -6.08,-4.09 -6.5,-5.16 -0.42,-1.07 -6.32,-5.65 -7.81,-6.18 0,0 -3.94,-3.78 -4.36,-4 -1.09,-0.65 -3,-1.3 -4.09,-2.09 -1.65,-1.15 -2.29,-2.91 -3.3,-4.09 -0.68,-0.78 -1.79,-0.58 -2.84,-2.41 -0.1,-0.17 -1,-0.63 -1.21,-0.89 l -0.32,-0.46 a 12.51,12.51 0 0 0 -1.67,-1.49 c -0.07,-0.07 -0.18,-0.66 -0.42,-0.79 -0.24,-0.13 -1.13,-0.72 -0.93,-1 h -0.42 c 0.1,-0.17 -0.54,-0.53 -0.6,-0.75 a 8.68,8.68 0 0 0 -1.21,-1.53 c -0.06,-0.06 -1.06,0.08 -1.21,0 l -0.74,-0.47 c -0.1,0 -0.6,-0.27 -0.47,-0.41 -0.62,0 -1.94,-1.34 -2.41,-1.82 -0.33,-0.32 -2.08,-0.21 -2.56,-1.34 -0.26,-0.6 -1,-0.84 -1.53,-1.21 -0.32,-0.22 -0.74,-0.39 -0.89,-0.74 L 593,47.1 c -0.09,-0.19 -0.07,-0.22 -0.07,-0.22 0,0 0,0 -0.26,-0.1 -0.26,-0.1 -0.14,-0.12 -0.14,-0.28 v 0.14 l 0.28,0.28 0.19,0.46 a 1.64,1.64 0 0 1 0.13,0.74 1.65,1.65 0 0 0 0.47,1.21 25.1,25.1 0 0 1 2.23,2.14 c 0.67,0.78 2.22,1.89 3,2.7 1.58,1.57 4.1,3 6,5 a 15.48,15.48 0 0 1 1.63,2.23 c 0,0.06 -0.07,0.15 0,0.19 l 1.67,0.41 c 1.45,1.7 4,2.7 5,5 0.16,-0.1 0.21,0.14 0.28,0.19 0.7,0.49 2.18,1.71 2.28,2.37 0.43,-0.17 0.57,0.47 0.88,0.6 3.51,1.51 7.56,5.29 10.27,8 0.25,0.24 1.47,2.25 1.95,2.41 a 9.67,9.67 0 0 1 3.21,1.76 6.27,6.27 0 0 1 0.47,1.34 c 0,0 5.24,5.38 5.71,5.58 0.05,0 0,0.09 0,0.14 0.19,0.64 1.21,0.6 1.21,1.21 0,0.24 0.23,0.64 0,0.74 -0.23,0.1 -0.41,-0.17 -0.46,-0.28 -0.05,-0.11 -3.53,-3.44 -3.63,-3.48 -2.52,-1 -9.67,-8 -13.1,-9.76 -2.67,-1.34 -6.38,-5.54 -8.55,-7.72 -1.08,-1.07 -1.71,-2 -2.42,-2.69 -0.29,-0.29 -1.48,-0.5 -1.81,-0.89 l -0.33,-0.46 c -2.79,-1.24 -4.28,-3.53 -6.6,-4.23 l -0.46,-0.27 c 0,0 -0.12,0 -0.14,0 -0.16,-0.37 -7.67,-8.91 -8,-9.07 -0.61,-0.3 -6.84,-4.28 -7.06,-4.5 -0.22,-0.22 0.07,-1 0.27,-1.49 1.23,-2.87 2.3,0.54 4.37,-1.53 0.31,-0.31 -1.56,-2 -2,-2.1 -0.44,-0.1 -0.67,-0.45 -0.46,-0.6 l -0.42,-0.14 c 0,-0.84 0.07,-1.27 0.6,-1.67 0.23,-0.17 0.22,-0.55 0.42,-0.75 0.2,-0.2 1.19,0.39 1.21,0.42 1.17,1.56 2.23,2.14 4.83,2.14 0.41,0 1,0.18 1.21,-0.14 1.66,-2.22 4.18,-6.78 5.85,-8.73 a 2.7,2.7 0 0 0 0.14,-1.22 8,8 0 0 1 -1,-1.67 l -2.14,-0.74 c -0.33,-0.1 -0.18,-0.24 -0.27,-0.47 0,0 -0.09,0 -0.15,0 A 7.53,7.53 0 0 1 597.16,28 h -0.42 a 13,13 0 0 0 -1.4,0 c -0.22,0.19 -0.12,0.25 -0.13,0.27 h -0.15 c -5,0 -5.82,0.55 -7.66,4.55 -0.18,0.39 -0.57,0.72 -0.6,1.21 -0.36,0.2 -0.28,-1.31 -1.54,-0.93 -0.26,0.08 -1.18,4.44 -1.49,4.83 l -2.13,2.7 c -2,3 -2.95,13.95 -4.51,15.52 -0.11,0.11 0,0.31 0,0.46 a 10.88,10.88 0 0 1 -1,4.79 c -0.24,0.55 -0.62,5.88 -1.07,7.25 a 24,24 0 0 1 -1.35,2.69 c -0.92,2.15 0.66,3.8 -1.53,5.44 0,0 0,0.08 0,0.14 0,0.68 0.05,2.07 -0.42,2.27 a 5.64,5.64 0 0 1 -1.53,-0.32 c -0.23,-0.1 -0.15,-0.54 0,-0.74 a 19.87,19.87 0 0 1 1.53,-1.63 c 0.27,-0.27 0,-1.81 0.14,-2.14 a 14.33,14.33 0 0 1 1.35,-1.48 c 0.27,-0.28 0.25,-0.75 0.46,-1.07 0.1,-0.15 -0.43,-1 -0.46,-1.07 -0.03,-0.07 0,-1.44 0,-1.49 -0.32,-0.32 -1.07,0.92 -1.21,1.21 -0.35,0.69 -2.26,5.7 -2.28,5.72 -0.93,0.93 -2,4.38 -2.56,4.69 -0.56,0.31 -1,-3.33 -2.41,-0.79 -0.06,0.11 -0.08,1.62 -0.14,1.81 -0.26,0.77 -0.72,1.12 -1,2.14 v 0.88 c -0.26,0.2 -0.45,-0.87 -1.07,-0.46 -1.72,1.14 -0.67,0.68 -1.35,0 -0.05,-0.06 -0.12,0 -0.19,0 v 0"
       fill="#ff0000"
       id="path133" />
    <path
       d="m 582.44,48.51 v 0 c 0.49,0.28 0.89,0 1.25,0.14 1.3,0.51 2.48,0.35 3.72,1 1.72,0.86 3.73,3.49 6,4.23 0.12,0 0,0.26 0.09,0.37 a 11,11 0 0 0 1.12,1.49 c 0.86,0.86 3.73,4.47 4.46,4.83 a 3.73,3.73 0 0 1 1.11,0.84 c 0.12,0.28 0.55,1.39 0.65,1.49 1,1 1.52,0.91 2.7,1.62 a 5.34,5.34 0 0 1 1,1.63 c 0.08,0.22 0.4,0.24 0.6,0.37 0.78,0.49 4.46,3.84 4.83,4.09 0.37,0.25 0.66,1.21 1.35,1.48 0.42,0.17 0.35,0.92 0.75,1.12 1.8,0.9 7.06,3.58 8.69,5.21 0.33,0.33 0.36,0.93 0.74,1.2 0.89,0.65 2.86,1.4 3.48,2.23 1.21,1.62 4.83,6.27 6.56,7.21 0.36,0.2 0.59,0.08 0.6,0.6 a 0.1,0.1 0 0 1 0.14,0 4.87,4.87 0 0 0 0.88,0.88 25.92,25.92 0 0 1 2.33,2.37 c 0.08,0.08 0.16,0.07 0.28,0.1 0.42,0.1 4.39,2.43 3.58,3.25 -0.15,0.14 -0.5,0.17 -0.61,0 a 5.75,5.75 0 0 0 -1.77,-1.77 c -0.18,-0.11 -0.72,-0.08 -0.83,-0.37 -0.9,-2.24 -8.27,-5.83 -9.3,-7.53 -0.06,-0.11 -0.71,-0.12 -0.74,-0.14 -0.31,-0.18 -1.61,-0.72 -1.63,-0.74 a 15.82,15.82 0 0 0 -1.86,-2 c -1.38,-0.82 -4.71,-4.56 -5.06,-4.69 -2.09,-0.78 -3.71,-2.67 -6.09,-3.86 -0.32,-0.16 -0.74,-0.19 -1,-0.46 -1.49,-1.79 -11.06,-8.86 -11.16,-10 h -0.37 c 0.05,0 -0.36,-0.29 -0.51,-0.37 -0.15,-0.08 -0.17,0.06 -0.23,0 l -1.26,-0.74 c -0.08,0 -1.84,-2.82 -2.46,-3.44 l -0.28,-0.28 c -1.72,-1.72 -3.26,-3.47 -5.43,-4.55 0,0 -1,-1.81 -1.35,-2.14 0,0 -0.09,0 -0.14,0 -1.78,-0.45 -3.32,-0.26 -4.6,-1.11 -0.45,-0.31 -0.74,-1.93 -0.74,-2.84 V 49.1 c 0,-0.09 -0.06,-0.16 0,-0.23 0.06,-0.07 0.63,-0.15 0.51,-0.23 z"
       fill="#ff0000"
       id="path135" />
    <path
       d="m 634.47,98.54 c 0.14,-0.14 0.49,0 0.61,0.14 0.35,0.53 0.9,0.78 1.11,1.35 0.21,0.57 1.43,0.32 1.77,0.88 0.17,0.29 0.3,0.34 0.46,0.61 0.16,0.27 0.28,0.29 0.28,0.65 v 0.6 l -0.14,0.37 c 0,0 0.12,0 -0.14,-0.23 -0.26,-0.23 0.12,-0.06 -0.09,-0.28 l -0.14,-0.09 c 0,-0.05 0,-0.1 0,-0.14 0,-0.04 -0.21,-0.31 -0.38,-0.51 -0.17,-0.2 -0.63,-0.31 -0.88,-0.61 -0.25,-0.3 -0.85,-0.48 -1.11,-0.74 a 19.1,19.1 0 0 0 -2.09,-1.49 9.62,9.62 0 0 1 -3.58,-2.37 c -0.92,-0.91 -4.75,-3 -5.11,-4 0,-0.07 -0.18,0.06 -0.24,0 a 3.27,3.27 0 0 0 -1.34,-0.88 c -0.33,-0.13 -7.55,-5.75 -7.58,-5.81 a 0.3,0.3 0 0 1 0,-0.11 c 0,0 0.06,0.08 -0.1,0 -1.85,-1.23 -3.61,-3.2 -5.57,-4.18 a 9.82,9.82 0 0 1 -1.58,-2.51 V 79.1 c -2.53,-1.69 -4.13,-1.12 -7.34,-5 -0.06,-0.07 0,-0.21 -0.1,-0.23 -1.48,-0.5 -9.14,-8.74 -9.57,-9.81 -0.25,-0.63 -1.37,-0.53 -1.72,-1.12 -0.48,-0.8 -0.29,-1.34 -0.88,-2.23 a 20.13,20.13 0 0 0 -3,-1 c -0.76,-0.77 -1.1,-2 -1.58,-2.51 -0.48,-0.51 -2.11,-0.85 -2.6,-1.58 a 6.06,6.06 0 0 1 0,-0.74 c 0.1,0.06 0.42,-0.26 0.47,-0.28 h 1.76 c 0.59,0.35 2.63,2.12 3.07,2.23 a 10.9,10.9 0 0 1 4.6,1.85 c 1.94,1.62 1.13,2.69 2.09,4.61 0.78,1.55 8.44,8.43 10,10 0.61,0.61 1,1.92 1.77,2.37 0.29,0.18 2.21,0.5 2.32,0.61 0.69,0.69 1.83,1.32 2.37,1.85 0.19,0.2 0.32,1.38 0.51,1.49 0.19,0.11 3.09,2.52 3.21,2.74 0.12,0.22 0.49,-0.07 0.6,0.1 0.3,0.45 1.42,0.85 1.86,1.11 0.44,0.26 1.07,1.59 1.48,1.86 0.26,0.17 1.85,1.6 1.86,1.63 0.18,0.46 0.68,0.26 1,0.6 0.86,0.86 2.88,1.16 3.71,2 3.81,3.81 8,6.38 10.64,9.06"
       fill="#ff0000"
       id="path137" />
    <path
       d="M 427.55,99.56 A 7.44,7.44 0 1 1 435,107 7.43,7.43 0 0 1 427.55,99.56 Z"
       fill="#fdc007"
       id="path139" />
    <path
       d="m 452.08,99.56 a 7.44,7.44 0 1 1 7.44,7.44 7.44,7.44 0 0 1 -7.44,-7.44 z"
       fill="#fdc007"
       id="path141" />
    <path
       d="m 477.36,99.56 a 7.44,7.44 0 1 1 7.44,7.44 7.44,7.44 0 0 1 -7.44,-7.44 z"
       fill="#fdc007"
       id="path143" />
    <path
       d="m 502.64,99.56 a 7.44,7.44 0 1 1 7.44,7.44 7.44,7.44 0 0 1 -7.44,-7.44 z"
       fill="#fdc007"
       id="path145" />
    <path
       d="m 527.18,99.56 a 7.44,7.44 0 1 1 7.43,7.44 7.43,7.43 0 0 1 -7.43,-7.44 z"
       fill="#fdc007"
       id="path147" />
    <path
       d="m 552.46,99.56 a 7.44,7.44 0 1 1 7.43,7.44 7.43,7.43 0 0 1 -7.43,-7.44 z"
       fill="#fdc007"
       id="path149" />
    <polygon
       points="560.63,103.28 560.63,97.33 562.86,97.33 562.86,95.85 556.92,95.85 556.92,97.33 559.15,97.33 559.15,103.28 "
       id="polygon151" />
    <rect
       x="533.87"
       y="95.849998"
       width="1.49"
       height="7.4400001"
       id="rect153" />
    <rect
       x="483.31"
       y="99.190002"
       width="2.97"
       height="0.74000001"
       id="rect155" />
    <path
       d="m 459.89,96.7 v 3.68 h -2.23 z m 0,5.32 v 1.64 h 1.49 V 102 h 1.48 v -1.64 h -1.48 v -4.9 h -2.23 l -3,4.9 V 102 Z"
       id="path157" />
    <path
       d="m 511.22,101.14 a 1,1 0 0 0 -0.15,-0.59 1,1 0 0 0 -0.46,-0.32 1.4,1.4 0 0 0 -0.51,-0.08 h -1.24 v 2 h 1.2 a 1.76,1.76 0 0 0 0.62,-0.15 0.79,0.79 0 0 0 0.41,-0.35 1.11,1.11 0 0 0 0.13,-0.51 z m -0.51,-3.3 a 1.07,1.07 0 0 0 -0.1,-0.41 0.77,0.77 0 0 0 -0.32,-0.3 1.14,1.14 0 0 0 -0.48,-0.09 h -0.95 v 1.72 h 0.25 0.73 a 1.06,1.06 0 0 0 0.44,-0.11 0.61,0.61 0 0 0 0.33,-0.32 1.11,1.11 0 0 0 0.1,-0.49 z m 2.61,3.33 a 2.24,2.24 0 0 1 -0.24,1.06 2.08,2.08 0 0 1 -0.61,0.76 2.84,2.84 0 0 1 -1,0.51 5.25,5.25 0 0 1 -1.39,0.16 h -3.25 v -8.11 h 2.87 a 11.43,11.43 0 0 1 1.36,0.06 2.57,2.57 0 0 1 0.86,0.29 1.52,1.52 0 0 1 0.65,0.63 1.77,1.77 0 0 1 0.22,0.9 1.93,1.93 0 0 1 -0.3,1.06 1.78,1.78 0 0 1 -0.82,0.68 v 0 a 2.2,2.2 0 0 1 1.2,0.65 1.85,1.85 0 0 1 0.45,1.35 z"
       id="path159" />
    <path
       d="m 435.26,101.74 a 1.22,1.22 0 0 0 0.24,-0.43 2,2 0 0 0 0.09,-0.7 1.78,1.78 0 0 0 -0.1,-0.65 0.91,0.91 0 0 0 -0.28,-0.4 1,1 0 0 0 -0.4,-0.21 2,2 0 0 0 -0.49,-0.06 2.28,2.28 0 0 0 -0.44,0 4.13,4.13 0 0 0 -0.42,0.14 v 0.5 a 4.25,4.25 0 0 0 0.12,1.12 1.73,1.73 0 0 0 0.31,0.64 0.76,0.76 0 0 0 0.32,0.25 1,1 0 0 0 0.39,0.08 0.93,0.93 0 0 0 0.35,-0.08 0.8,0.8 0 0 0 0.31,-0.2 z m 2.37,-1.22 a 2.87,2.87 0 0 1 -0.81,2.1 3,3 0 0 1 -2.23,0.83 3.78,3.78 0 0 1 -1.26,-0.2 2.47,2.47 0 0 1 -0.95,-0.61 2.93,2.93 0 0 1 -0.7,-1.21 5.43,5.43 0 0 1 -0.25,-1.77 7.19,7.19 0 0 1 0.23,-1.89 4.08,4.08 0 0 1 0.74,-1.47 3.49,3.49 0 0 1 1.3,-0.94 4.76,4.76 0 0 1 1.89,-0.34 7,7 0 0 1 0.8,0 3.58,3.58 0 0 1 0.55,0.09 v 1.59 h -0.15 a 2.56,2.56 0 0 0 -0.46,-0.16 2.86,2.86 0 0 0 -0.75,-0.09 2,2 0 0 0 -1.47,0.5 2.35,2.35 0 0 0 -0.64,1.43 5.14,5.14 0 0 1 0.81,-0.41 2.75,2.75 0 0 1 0.93,-0.15 2.71,2.71 0 0 1 0.79,0.18 2.22,2.22 0 0 1 0.69,0.34 2.35,2.35 0 0 1 0.66,0.85 3.05,3.05 0 0 1 0.28,1.33 z"
       id="path161" />
  </g>
  <metadata
     id="metadata985">
    <rdf:RDF>
      <cc:Work
         rdf:about="">
        <dc:title>logo</dc:title>
      </cc:Work>
    </rdf:RDF>
  </metadata>
</svg>
