<?xml version="1.0" encoding="UTF-8" standalone="no"?>
<svg
   viewBox="0 0 284.61176 114.00019"
   version="1.1"
   id="svg164"
   sodipodi:docname="lutro.svg"
   width="284.61176"
   height="114.00019"
   inkscape:version="1.1 (c68e22c387, 2021-05-23)"
   xmlns:inkscape="http://www.inkscape.org/namespaces/inkscape"
   xmlns:sodipodi="http://sodipodi.sourceforge.net/DTD/sodipodi-0.dtd"
   xmlns="http://www.w3.org/2000/svg"
   xmlns:svg="http://www.w3.org/2000/svg"
   xmlns:rdf="http://www.w3.org/1999/02/22-rdf-syntax-ns#"
   xmlns:cc="http://creativecommons.org/ns#"
   xmlns:dc="http://purl.org/dc/elements/1.1/">
  <defs
     id="defs168" />
  <sodipodi:namedview
     id="namedview166"
     pagecolor="#ffffff"
     bordercolor="#666666"
     borderopacity="1.0"
     inkscape:pageshadow="2"
     inkscape:pageopacity="0.0"
     inkscape:pagecheckerboard="0"
     showgrid="false"
     fit-margin-top="0"
     fit-margin-left="0"
     fit-margin-right="0"
     fit-margin-bottom="0"
     inkscape:zoom="1.113"
     inkscape:cx="142.40791"
     inkscape:cy="56.603774"
     inkscape:window-width="1920"
     inkscape:window-height="1138"
     inkscape:window-x="-8"
     inkscape:window-y="-8"
     inkscape:window-maximized="1"
     inkscape:current-layer="svg164" />
  <title
     id="title2">logo</title>
  <g
     id="Layer_2"
     data-name="Layer 2"
     transform="translate(-357.69451,1.8760509e-4)">
    <rect
       x="427.45093"
       y="52.325241"
       width="21"
       height="26"
       fill="#ffffff"
       id="rect4" />
    <rect
       x="454.45093"
       y="66.325241"
       width="13"
       height="13"
       fill="#ffffff"
       id="rect6" />
    <rect
       x="505.45093"
       y="43.325241"
       width="12"
       height="33"
       fill="#ffffff"
       id="rect8" />
    <rect
       x="530.45093"
       y="40.325241"
       width="14"
       height="22"
       fill="#ffffff"
       id="rect10" />
    <rect
       x="562.45093"
       y="40.325241"
       width="39"
       height="41"
       fill="#ffffff"
       id="rect12" />
    <rect
       x="608.45093"
       y="41.325241"
       width="17"
       height="24"
       fill="#ffffff"
       id="rect14" />
  </g>
  <g
     id="Calque_1"
     data-name="Calque 1"
     transform="translate(-357.69451,1.8760509e-4)">
    <path
       d="m 409.18826,53.20134 a 9.25453,9.25453 0 1 1 0.0729,18.5083 l -0.0322,6e-5 a 9.25424,9.25424 0 0 1 -0.11157,-18.50812 l 0.0709,-2.4e-4 m 0,-7 -0.11782,4e-4 a 16.33333,16.33333 0 0 0 -16.13611,16.19485 16.23632,16.23632 0 0 0 16.29461,16.31311 l 0.0583,-9e-5 a 16.2593,16.2593 0 0 0 11.60965,-4.86646 16.2527,16.2527 0 0 0 -11.70859,-27.64181 z"
       fill="#ffffff"
       id="path17" />
    <path
       d="m 488.68359,82.212 q 1.62012,0.205 1.63965,2.62543 h -3.38665 q 0.0488,-2.53757 1.747,-2.62543 m -6e-5,-7 q -0.18086,0 -0.36166,0.0093 c -4.08649,0.21145 -8.2637,3.22522 -8.384,9.4815 a 7,7 0 0 0 6.99872,7.13459 h 3.38665 A 7.00007,7.00007 0 0 0 497.323,84.781 c -0.0476,-5.89969 -3.9321,-9.02924 -7.7608,-9.51367 a 6.99862,6.99862 0 0 0 -0.8787,-0.05536 z"
       fill="#ffffff"
       id="path19" />
    <path
       d="m 454.99274,82.212 q 1.9032,0.1659 1.76654,1.913 v 5.1433 q 0.0293,1.38593 -1.72748,1.57135 -1.7958,-0.1269 -1.9422,-2.84009 V 85.052 q 0.0683,-2.762 1.90314,-2.84009 m -6e-5,-7 q -0.14883,0 -0.29758,0.0063 c -4.16782,0.17734 -8.44446,3.2333 -8.60336,9.6607 q -0.002,0.08648 -0.002,0.173 v 2.94751 q 0,0.18873 0.0102,0.37716 c 0.33112,6.13642 4.4769,9.16562 8.43872,9.44553 q 0.24638,0.0174 0.49326,0.0174 a 7.00021,7.00021 0 0 0 0.735,-0.0387 c 4.768,-0.50339 8.04126,-4.02609 7.99252,-8.5824 v -4.89798 a 8.56237,8.56237 0 0 0 -8.15875,-9.08209 q -0.30327,-0.02641 -0.60785,-0.02643 z"
       fill="#ffffff"
       id="path21" />
    <path
       d="m 532.07562,82.212 q 1.9032,0.1659 1.76654,1.913 v 5.1433 q 0.0293,1.38593 -1.72747,1.57135 -1.79582,-0.1269 -1.9422,-2.84009 V 85.052 q 0.0683,-2.762 1.90313,-2.84009 m -6e-5,-7 q -0.14877,0 -0.29754,0.0063 c -4.16785,0.17734 -8.44446,3.2333 -8.60337,9.6607 q -0.002,0.08648 -0.002,0.173 v 2.94751 q 0,0.18864 0.0102,0.3771 c 0.33105,6.13648 4.47687,9.16568 8.43875,9.44559 q 0.24638,0.0174 0.49329,0.0174 a 7.00216,7.00216 0 0 0 0.735,-0.0387 c 4.76789,-0.50345 8.04114,-4.02612 7.99243,-8.5824 v -4.8981 a 8.56279,8.56279 0 0 0 -8.15875,-9.082 q -0.30331,-0.02641 -0.60785,-0.02643 z"
       fill="#ffffff"
       id="path23" />
    <path
       d="m 614.61182,37.45293 a 11.38544,11.38544 0 0 1 4.32666,0.80829 8.85048,8.85048 0 0 1 4.14923,4.06158 c 2.2207,4.35376 1.92847,14.14239 -0.526,18.14551 a 9.12354,9.12354 0 0 1 -7.94782,4.09082 c -4.90893,0 -8.09387,-2.68823 -9.23346,-7.83093 -0.64288,-2.86359 -0.46753,-10.31464 0.29218,-12.47693 a 9.521,9.521 0 0 1 5.9024,-6.31147 8.46861,8.46861 0 0 1 3.03681,-0.48687 m -6e-5,-7 a 15.15211,15.15211 0 0 0 -5.63642,0.9875 16.42147,16.42147 0 0 0 -9.90692,10.4904 c -1.29077,3.67383 -1.38769,12.45661 -0.518,16.33069 1.8435,8.31946 7.85009,13.29761 16.06347,13.29761 A 16.0574,16.0574 0 0 0 628.528,64.12941 c 3.731,-6.085 4.12432,-18.46082 0.79541,-24.98724 a 15.8146,15.8146 0 0 0 -7.63752,-7.31931 18.3255,18.3255 0 0 0 -7.07409,-1.36993 z"
       fill="#ffffff"
       id="path25" />
    <path
       d="m 377.42468,70.92809 v 18.18963 h 10.33094 v 2.35059 h -12.8274 V 70.92809 h 2.49646 m 0,-7 h -2.49646 a 7,7 0 0 0 -7,7 v 20.54022 a 7,7 0 0 0 7,7 h 12.8274 a 7,7 0 0 0 7,-7 v -2.35059 a 7,7 0 0 0 -7,-7 h -3.33094 V 70.92809 a 7,7 0 0 0 -7,-7 z"
       fill="#ffffff"
       id="path27" />
    <path
       d="m 392.89984,76.79936 c 0,3.247 0.0194,6.40979 -0.008,9.57215 -0.0137,1.58087 0.218,2.95111 2.06794,3.37353 a 4.03178,4.03178 0 0 0 0.89758,0.10175 3.48154,3.48154 0 0 0 3.248,-2.02625 8.69245,8.69245 0 0 0 0.67858,-3.1734 c 0.0947,-2.556 0.0306,-5.11786 0.0306,-7.806 h 2.51239 v 14.53159 c -0.36813,0.03708 -0.75119,0.12222 -1.08834,0.12222 -0.62168,0 -1.08707,-0.28967 -1.01371,-1.70444 a 6.61,6.61 0 0 1 -7.27282,1.99463 3.4078,3.4078 0 0 1 -2.62915,-3.18756 c -0.0936,-3.89557 -0.0303,-7.795 -0.0303,-11.79822 h 2.60736 m 0,-7 h -2.60736 a 7,7 0 0 0 -7,7 q 0,1.71969 -0.0105,3.416 c -0.0129,2.79281 -0.0262,5.68075 0.0428,8.55032 a 10.3402,10.3402 0 0 0 7.447,9.67133 14.13709,14.13709 0 0 0 4.40347,0.72512 12.96437,12.96437 0 0 0 4.497,-0.8121 8.43932,8.43932 0 0 0 1.5662,0.14493 11.30334,11.30334 0 0 0 1.6939,-0.14237 l 0.13611,-0.01956 a 6.96084,6.96084 0 0 0 6.25833,-6.96029 V 76.84117 a 7,7 0 0 0 -7,-7 h -2.51239 a 6.96813,6.96813 0 0 0 -3.42053,0.89121 6.96755,6.96755 0 0 0 -3.494,-0.933 z"
       fill="#ffffff"
       id="path29" />
    <path
       d="m 411.62073,76.22923 a 12.81318,12.81318 0 0 1 2.20825,0.20056 c 2.69135,0.47217 3.67493,1.6872 3.68109,4.56183 0.005,2.20362 -0.0181,4.40747 0.01,6.61078 0.0123,0.97766 -0.36707,2.16242 1.19891,2.46912 0.18042,0.03534 0.3501,0.88092 0.25916,1.29211 a 1.21449,1.21449 0 0 1 -0.82749,0.69461 0.188,0.188 0 0 1 -0.0457,-0.0052 c -1.18463,-0.29657 -2.33289,-0.73834 -3.98066,-1.293 a 7.13206,7.13206 0 0 1 -4.1094,1.40649 6.35235,6.35235 0 0 1 -1.75546,-0.25037 4.12371,4.12371 0 0 1 -3.29541,-3.89874 3.859,3.859 0 0 1 2.73535,-4.28235 40.29572,40.29572 0 0 1 5.19519,-1.04834 c 1.00433,-0.18585 1.93664,-0.38116 1.98779,-1.70862 a 1.98752,1.98752 0 0 0 -1.91168,-2.26245 18.05677,18.05677 0 0 0 -1.89349,-0.16473 2.84528,2.84528 0 0 0 -2.93769,1.96887 c -0.18554,0.449 -1.44342,0.45465 -2.56946,0.76508 a 15.62644,15.62644 0 0 1 0.32038,-1.97058 c 0.65506,-1.963 2.83917,-3.08509 5.73059,-3.08509 m -0.54721,13.66245 c 2.59894,0 4.08035,-2.15933 3.63479,-5.57248 a 36.54843,36.54843 0 0 0 -5.499,1.23755 2.947,2.947 0 0 0 -1.46771,2.32892 c 0.0223,0.64325 1.10687,1.6029 1.882,1.80615 a 5.729,5.729 0 0 0 1.44992,0.19986 M 411.621,69.22921 c -6.01077,0 -10.75092,3.01535 -12.37067,7.86936 a 11.67669,11.67669 0 0 0 -0.49341,2.3623 c -0.0257,0.20215 -0.0557,0.4422 -0.10229,0.73895 a 6.99521,6.99521 0 0 0 0.16562,2.94 11.96433,11.96433 0 0 0 -0.84564,5.2622 11.13066,11.13066 0 0 0 8.35766,10.24368 13.31807,13.31807 0 0 0 8.31977,-0.31043 c 0.57025,0.18445 1.14617,0.35632 1.753,0.50824 a 7.38021,7.38021 0 0 0 1.74566,0.21475 8.12014,8.12014 0 0 0 7.6622,-6.18249 9.005,9.005 0 0 0 -1.15423,-6.56677 q -0.0735,-0.11229 -0.15067,-0.22132 c -0.004,-0.91644 -0.002,-1.83288 4.9e-4,-2.74933 q 0.003,-1.18093 0.002,-2.36184 c -0.0134,-6.21747 -3.4656,-10.38773 -9.47149,-11.44138 a 19.84455,19.84455 0 0 0 -3.41785,-0.30588 z"
       fill="#ffffff"
       id="path31" />
    <path
       d="m 601.63373,82.36815 q 1.82511,0.0195 1.87384,2.57654 v 3.16223 q 0.0391,2.43018 -1.83484,2.60583 -1.89341,-0.12689 -2.03,-2.5473 v -3.25976 q 0.0488,-2.479 1.991,-2.53754 m 6e-5,-7 q -0.10537,0 -0.21082,0.0032 c -5.063,0.1525 -8.673,4.01654 -8.77893,9.39661 q -10e-4,0.06889 -10e-4,0.13776 v 3.25976 q 0,0.19743 0.0111,0.39468 c 0.33539,5.93833 4.53625,8.86789 8.55084,9.137 q 0.23383,0.01565 0.46814,0.01565 0.32712,0 0.65338,-0.03054 c 4.87934,-0.45749 8.23523,-4.40864 8.1814,-9.61905 v -3.1185 q 0,-0.06675 -10e-4,-0.13355 c -0.12256,-6.42441 -4.64643,-9.39825 -8.79779,-9.44259 z"
       fill="#ffffff"
       id="path33" />
    <path
       d="m 565.76648,82.212 q 1.62012,0.205 1.63965,2.62543 h -3.38666 q 0.0488,-2.53757 1.747,-2.62543 m -6e-5,-7 q -0.18081,0 -0.36169,0.0093 c -4.08643,0.21145 -8.26368,3.22522 -8.384,9.4815 a 7.00007,7.00007 0 0 0 6.99872,7.13459 h 3.38666 a 6.99994,6.99994 0 0 0 6.99976,-7.0567 c -0.0478,-5.89951 -3.93226,-9.029 -7.76075,-9.51337 A 6.99882,6.99882 0 0 0 565.76639,75.212 Z"
       fill="#ffffff"
       id="path35" />
    <path
       d="m 396.05493,110.50005 a 34.98377,34.98377 0 0 1 -0.0688,-69.9668 l 0.32714,-0.0015 a 34.98385,34.98385 0 0 1 -0.0542,69.96729 z M 408.51,87.19048 a 1.66781,1.66781 0 0 0 -0.0518,0.63476 c 0.0176,0.32129 0.0283,0.51563 0.76465,0.72656 a 2.84907,2.84907 0 0 0 0.79151,0.11426 3.70832,3.70832 0 0 0 2.07617,-0.75488 3.49578,3.49578 0 0 1 1.92529,-0.64942 q -0.007,-0.6167 -0.008,-1.23339 -0.23071,0.05419 -0.47754,0.09961 c -0.51074,0.09472 -1.02783,0.17871 -1.54492,0.26269 a 21.80044,21.80044 0 0 0 -3.19971,0.67188 0.90067,0.90067 0 0 0 -0.27539,0.12793 z m 0.63233,-30.48877 a 5.72361,5.72361 0 0 0 -5.708,5.75634 5.64557,5.64557 0 0 0 1.65185,4.043 5.8989,5.8989 0 0 0 8.333,-0.02832 5.64273,5.64273 0 0 0 1.63574,-4.05078 5.77671,5.77671 0 0 0 -5.8667,-5.72021 v -3.5 z"
       fill="#00007f"
       id="path37" />
    <path
       d="m 396.31323,44.032 a 31.48392,31.48392 0 0 1 -0.0741,62.96744 c -0.0621,3.6e-4 -0.12113,5.4e-4 -0.18314,5.4e-4 a 31.48362,31.48362 0 0 1 -0.0372,-62.96661 c 0.0989,-9.5e-4 0.19577,-0.0014 0.29449,-0.0014 m 12.91571,27.6777 0.0322,-6e-5 a 9.25453,9.25453 0 1 0 -0.0729,-18.5083 l -0.0709,2.4e-4 a 9.25424,9.25424 0 0 0 0.11157,18.50812 m -34.30072,19.75861 h 12.8274 V 89.11772 H 377.42468 V 70.92809 h -2.49646 V 91.46831 M 405.56976,81.2849 c 1.126,-0.31043 2.38392,-0.3161 2.56946,-0.76508 a 2.845,2.845 0 0 1 2.93766,-1.96887 18.06448,18.06448 0 0 1 1.89352,0.16473 1.98752,1.98752 0 0 1 1.91168,2.26245 c -0.0511,1.32746 -0.98346,1.52277 -1.98779,1.70862 a 40.29572,40.29572 0 0 0 -5.19519,1.04834 3.859,3.859 0 0 0 -2.73535,4.28235 4.12371,4.12371 0 0 0 3.29541,3.89874 6.34984,6.34984 0 0 0 1.75543,0.25037 7.13274,7.13274 0 0 0 4.10943,-1.40649 c 1.64777,0.55462 2.796,0.99639 3.98066,1.293 a 0.18824,0.18824 0 0 0 0.0458,0.0052 1.21466,1.21466 0 0 0 0.82746,-0.69461 c 0.0909,-0.41119 -0.0787,-1.25677 -0.25916,-1.29211 -1.566,-0.3067 -1.18658,-1.49146 -1.19891,-2.46912 -0.0278,-2.20331 -0.005,-4.40716 -0.01,-6.61078 -0.006,-2.87463 -0.98974,-4.08966 -3.68109,-4.56183 a 12.80768,12.80768 0 0 0 -2.20822,-0.20056 c -2.89111,0 -5.07562,1.12223 -5.73062,3.08509 a 15.62644,15.62644 0 0 0 -0.32038,1.97058 m -10.3945,10.87722 a 7.09019,7.09019 0 0 0 5.04947,-2.37161 c -0.0734,1.41489 0.39194,1.70444 1.01371,1.70444 0.33709,0 0.72024,-0.08514 1.08834,-0.12222 v -14.5316 h -2.51239 c 0,2.68811 0.0641,5.25 -0.0306,7.806 a 8.69245,8.69245 0 0 1 -0.67858,3.1734 3.4813,3.4813 0 0 1 -3.24808,2.02625 4.03348,4.03348 0 0 1 -0.89755,-0.10175 c -1.84992,-0.42242 -2.08167,-1.79266 -2.06794,-3.37353 0.0276,-3.16236 0.008,-6.32514 0.008,-9.57215 h -2.60736 c 0,4.00324 -0.0633,7.90265 0.0303,11.79822 a 3.4078,3.4078 0 0 0 2.62915,3.18756 7.11605,7.11605 0 0 0 2.22335,0.377 m 1.138,-55.13012 -0.35992,0.0017 A 38.48356,38.48356 0 0 0 396.05594,114 l 0.2226,-6.1e-4 a 38.48388,38.48388 0 0 0 0.0347,-76.96734 z m 3.9115,59.75851 z"
       fill="#ffffff"
       id="path39" />
    <path
       d="m 427.60132,56.70073 a 12.70705,12.70705 0 1 1 12.813,-12.60107 12.74726,12.74726 0 0 1 -12.73047,12.60107 z"
       fill="#00007f"
       id="path41" />
    <path
       d="m 427.736,34.8445 0.041,9e-5 a 9.10985,9.10985 0 0 1 9.13727,9.22931 9.24252,9.24252 0 0 1 -9.23117,9.127 l -0.0595,-1.8e-4 a 9.08921,9.08921 0 0 1 -9.07605,-9.27478 8.99824,8.99824 0 0 1 9.18849,-9.08144 m 0,-7 a 16.17837,16.17837 0 0 0 -0.157,32.35607 l 0.10407,3.3e-4 a 16.2567,16.2567 0 0 0 16.231,-16.07525 16.10949,16.10949 0 0 0 -16.10894,-16.281 l -0.0691,-1.4e-4 z"
       fill="#ffffff"
       id="path43" />
    <path
       d="m 411.074,93.39165 a 9.268,9.268 0 0 1 -2.33838,-0.31446 c -1.75537,-0.46 -4.39844,-2.38964 -4.49219,-5.06933 a 6.357,6.357 0 0 1 3.728,-5.72461 24.43923,24.43923 0 0 1 4.52148,-1.11035 c 0.50244,-0.08887 1.00586,-0.17676 1.50391,-0.28028 a 3.49966,3.49966 0 0 1 4.18213,2.97364 8.97462,8.97462 0 0 1 -1.80323,7.20507 6.92873,6.92873 0 0 1 -5.30127,2.32032 z"
       fill="#00007f"
       id="path45" />
    <path
       d="m 414.70831,84.3192 c 0.44556,3.41315 -1.03582,5.57248 -3.63476,5.57248 a 5.72923,5.72923 0 0 1 -1.45,-0.19986 c -0.77515,-0.20325 -1.85974,-1.1629 -1.882,-1.80615 a 2.947,2.947 0 0 1 1.46771,-2.32892 36.54843,36.54843 0 0 1 5.499,-1.23755 m -1.5e-4,-7.00006 a 6.99878,6.99878 0 0 0 -1.42306,0.14624 c -0.464,0.09637 -0.93277,0.17822 -1.40107,0.261 a 27.64217,27.64217 0 0 0 -5.1477,1.2817 9.868,9.868 0 0 0 -5.99057,9.11969 c 0.14691,4.24286 3.769,7.46112 7.10251,8.33512 a 12.73869,12.73869 0 0 0 3.22528,0.42874 10.38154,10.38154 0 0 0 7.93228,-3.51154 12.40028,12.40028 0 0 0 2.64359,-9.96707 7.00007,7.00007 0 0 0 -6.94126,-6.09393 z"
       fill="#ffffff"
       id="path47" />
    <path
       d="m 439.61255,95.62309 a 13.09055,13.09055 0 0 1 -5.67334,-1.27246 c -2.311,-1.09961 -5.15625,-3.69726 -5.57861,-9.8291 a 3.5823,3.5823 0 0 1 -0.003,-0.43457 c 0.37549,-6.73926 4.2622,-10.876 10.66455,-11.34766 0.0854,-0.0068 0.17138,-0.0098 0.25732,-0.0098 0.0576,0 0.11475,0.001 0.17237,0.0039 6.43408,0.31739 10.47119,3.74707 11.07617,9.40918 a 3.50457,3.50457 0 0 1 -0.0889,1.23926 3.5032,3.5032 0 0 1 0.0669,1.041 c -0.64306,7.52929 -4.21,9.97851 -7.08837,10.707 a 15.54832,15.54832 0 0 1 -3.80518,0.49321 z"
       fill="#00007f"
       id="path49" />
    <path
       d="m 439.27948,76.22923 q 7.13444,0.35128 7.7688,6.28528 l -5.10437,-0.01953 q -0.43919,-2.83026 -1.48346,-3.738 a 1.36208,1.36208 0 0 0 -0.901,-0.39676 1.70345,1.70345 0 0 0 -1.22672,0.70908 q -1.07353,1.23954 -1.13208,5.08484 -0.10738,5.08483 1.054,5.7583 a 2.07128,2.07128 0 0 0 1.03623,0.295 2.26437,2.26437 0 0 0 1.30612,-0.46087 q 1.18093,-0.82965 1.2688,-3.46479 l -2.66443,-0.0097 -0.0293,-2.14716 h 7.84693 q -0.56607,6.62686 -4.4602,7.61261 a 11.99052,11.99052 0 0 1 -2.94571,0.3859 9.58276,9.58276 0 0 1 -4.16916,-0.93247 q -3.22074,-1.53222 -3.59161,-6.90991 0.41967,-7.5346 7.42718,-8.05182 m 0,-7 q -0.25785,0 -0.51529,0.019 c -8.22745,0.60737 -13.4241,6.08155 -13.901,14.64353 a 6.99934,6.99934 0 0 0 0.006,0.87094 c 0.53924,7.81839 4.413,11.2486 7.56787,12.74942 a 16.57329,16.57329 0 0 0 7.17633,1.61133 19.04351,19.04351 0 0 0 4.66357,-0.6 c 3.259,-0.825 8.85526,-3.71518 9.71695,-13.80273 a 6.99864,6.99864 0 0 0 -0.008,-1.27451 6.9993,6.9993 0 0 0 0.0226,-1.67581 c -0.79575,-7.44324 -6.17328,-12.12836 -14.38489,-12.53268 q -0.17208,-0.0085 -0.3443,-0.0085 z"
       fill="#ffffff"
       id="path51" />
    <path
       d="m 456.69116,95.65727 a 3.5,3.5 0 0 1 -0.79541,-0.09082 c -0.47754,0.04492 -0.98681,0.06055 -1.52832,0.06055 q -0.49584,0 -1.08105,-0.02051 a 8.28514,8.28514 0 0 1 -6.75879,-3.15527 8.869,8.869 0 0 1 -1.854,-6.03516 8.93516,8.93516 0 0 1 7.57177,-8.82812 3.5409,3.5409 0 0 1 0.61524,-0.09766 q 0.67383,-0.04541 1.25586,-0.04492 a 10.69409,10.69409 0 0 1 2.38476,0.23828 c 0.0664,-0.0039 0.20459,-0.0059 0.207,-0.0059 l 4.57715,0.0098 a 3.50018,3.50018 0 0 1 3.49268,3.5 v 10.96972 a 3.50017,3.50017 0 0 1 -3.5,3.5 z m -0.0425,-7.3623 -0.0117,-3.63574"
       fill="#00007f"
       id="path53" />
    <path
       d="m 454.11459,80.94514 a 4.13856,4.13856 0 0 1 2.58616,0.59342 v -0.36115 l 4.57733,0.0098 v 10.97 H 456.691 l -0.01,-0.37085 a 4.65692,4.65692 0 0 1 -2.31649,0.34043 q -0.4374,0 -0.953,-0.01841 a 4.96227,4.96227 0 0 1 -4.09912,-1.77624 5.31866,5.31866 0 0 1 -1.1419,-3.7478 6.08994,6.08994 0 0 1 1.04431,-3.36713 6.33169,6.33169 0 0 1 3.8844,-2.235 q 0.54463,-0.03708 1.01522,-0.03708 m 0.91721,9.89451 q 1.7568,-0.18549 1.72748,-1.57135 v -5.14334 q 0.13668,-1.747 -1.76654,-1.913 -1.83482,0.07809 -1.90314,2.84009 v 2.94751 q 0.1464,2.71316 1.9422,2.84009 M 454.115,73.94514 h -3e-4 c -0.47016,0 -0.97174,0.01792 -1.49082,0.05323 a 7.003,7.003 0 0 0 -1.2333,0.19561 12.41211,12.41211 0 0 0 -10.21375,12.05564 12.31277,12.31277 0 0 0 2.55472,8.30771 11.93671,11.93671 0 0 0 9.4758,4.54818 q 0.62452,0.02161 1.15735,0.02128 c 0.43679,0 0.88745,-0.0092 1.34555,-0.03779 a 7.05332,7.05332 0 0 0 0.98071,0.06821 h 4.5871 a 7,7 0 0 0 7,-7 v -10.97 a 7,7 0 0 0 -6.98508,-7 l -4.47879,-0.0095 A 14.71485,14.71485 0 0 0 454.115,73.94514 Z"
       fill="#ffffff"
       id="path55" />
    <path
       d="m 469.66187,95.63774 a 3.50494,3.50494 0 0 0 -3.57227,0 h -4.01123 a 3.50017,3.50017 0 0 1 -3.5,-3.5 V 81.37212 a 3.50017,3.50017 0 0 1 3.5,-3.5 h 4.03076 a 3.54594,3.54594 0 0 1 0.728,0.07617 8.09311,8.09311 0 0 1 1.92236,-0.49512 10.15921,10.15921 0 0 1 1.564,-0.124 7.29158,7.29158 0 0 1 3.60156,0.8789 c 0.49951,-0.26367 0.99219,-0.48242 1.439,-0.666 a 3.51782,3.51782 0 0 1 0.82569,-0.22754 11.99211,11.99211 0 0 1 1.72656,-0.13281 c 4.08936,0 6.85108,2.56347 7.20752,6.6914 0.009,0.09961 0.0132,0.2002 0.0132,0.30078 v 7.915 a 3.4992,3.4992 0 0 1 -3.5,3.5 c -0.006,0 -3.85351,-0.01953 -3.85351,-0.01953 a 3.47349,3.47349 0 0 0 -4.17871,0.06836 z"
       fill="#00007f"
       id="path57" />
    <path
       d="m 477.91565,80.68169 q 3.41944,0 3.72138,3.492 v 7.91522 l -3.83564,-0.01953 0.0293,-6.51953 q 0.0562,-2.14164 -1.68878,-2.14154 -0.0762,0 -0.15582,0.0041 a 2.58077,2.58077 0 0 0 -0.378,-0.0289 2.13964,2.13964 0 0 0 -2.00345,1.60025 v 7.15393 H 469.6617 V 84.6519 q 0,-1.48342 -1.73724,-1.63965 -0.0945,-0.0083 -0.1853,-0.0083 a 1.78466,1.78466 0 0 0 -1.64954,1.17951 v 7.95422 h -4.01129 V 81.3726 h 4.03082 l -0.01,1.30787 a 4.874,4.874 0 0 1 3.11334,-1.75678 7.085,7.085 0 0 1 1.11084,-0.09439 3.11756,3.11756 0 0 1 3.28107,2.26108 q 0.46847,-1.22974 3.09387,-2.31311 a 8.40641,8.40641 0 0 1 1.2171,-0.09558 m 0,-7 a 15.45648,15.45648 0 0 0 -2.23376,0.1698 7.00053,7.00053 0 0 0 -1.65339,0.455 c -0.0567,0.02341 -0.11843,0.04889 -0.18454,0.07642 a 11.15751,11.15751 0 0 0 -3.52017,-0.55362 14.06586,14.06586 0 0 0 -2.12057,0.16724 11.69214,11.69214 0 0 0 -1.75815,0.38412 q -0.16744,-0.008 -0.33588,-0.0081 h -4.03082 a 7,7 0 0 0 -7,7 v 10.76509 a 7,7 0 0 0 7,7 h 4.01129 a 7.052,7.052 0 0 1 3.57208,0 h 3.94294 a 6.92454,6.92454 0 0 1 4.16107,-0.06839 l 3.8356,0.01953 0.0358,9e-5 a 7,7 0 0 0 6.99991,-7 v -7.91522 q 0,-0.30148 -0.0259,-0.60211 a 10.34817,10.34817 0 0 0 -10.69544,-9.88989 z"
       fill="#ffffff"
       id="path59" />
    <path
       d="m 488.82105,95.63286 a 12.08738,12.08738 0 0 1 -4.39112,-0.81836 c -1.9209,-0.75586 -4.38769,-2.56152 -5.31738,-6.90137 a 3.51147,3.51147 0 0 1 -0.0772,-0.68847 l -0.01,-0.76172 a 3.512,3.512 0 0 1 0.0332,-0.53125 c 0.71582,-5.1045 4.14453,-8.169 9.40771,-8.40625 0.0527,-0.0029 0.2295,-0.0029 0.26465,-0.002 5.63086,0.1709 9.15625,3.47364 9.43067,8.833 a 3.50669,3.50669 0 0 1 -0.1128,1.07715 3.5077,3.5077 0 0 1 -0.0835,1.21387 c -1.21436,4.8955 -4.47754,6.28613 -6.31494,6.67871 a 13.61871,13.61871 0 0 1 -2.82959,0.30669 z"
       fill="#00007f"
       id="path61" />
    <path
       d="m 488.625,81.02129 q 5.7681,0.17568 6.04132,5.51428 h -7.72973 q -0.0879,3.54282 0.85888,4.01129 a 1.903,1.903 0 0 0 0.83563,0.20337 1.9518,1.9518 0 0 0 1.03821,-0.3205 q 0.94675,-0.57586 0.75153,-2.62536 h 4.14789 q -0.86856,3.50371 -3.65015,4.09906 a 10.00317,10.00317 0 0 1 -2.09689,0.22986 8.56447,8.56447 0 0 1 -3.12461,-0.58118 q -2.43016,-0.95646 -3.16217,-4.37238 l -0.01,-0.76129 q 0.72225,-5.15313 6.09985,-5.39715 m -1.68841,3.8161 h 3.38665 q -0.0195,-2.42047 -1.63965,-2.62543 -1.69821,0.08789 -1.747,2.62543 m 1.68853,-10.8161 q -0.15874,0 -0.31741,0.0072 c -6.89951,0.313 -11.77155,4.68829 -12.71478,11.41833 a 6.99808,6.99808 0 0 0 -0.0672,1.06134 l 0.01,0.76133 a 6.9982,6.9982 0 0 0 0.15482,1.37692 c 1.32141,6.16684 5.23056,8.54855 7.44311,9.41937 a 15.62023,15.62023 0 0 0 5.68827,1.06751 17.06055,17.06055 0 0 0 3.56192,-0.38489 c 4.48571,-0.96 7.75866,-4.33505 8.97946,-9.25974 a 6.998,6.998 0 0 0 0.205,-1.78433 7.002,7.002 0 0 0 0.0891,-1.52661 c -0.372,-7.26685 -5.284,-11.92368 -12.81906,-12.1532 q -0.10648,-0.0032 -0.213,-0.0032 z"
       fill="#ffffff"
       id="path63" />
    <path
       d="m 499.1853,95.60844 a 3.50017,3.50017 0 0 1 -3.5,-3.5 V 76.503 a 3.50017,3.50017 0 0 1 3.5,-3.5 h 12.84375 a 3.50048,3.50048 0 0 1 3.5,3.5 v 3.09375 a 3.49888,3.49888 0 0 1 -1.76855,3.042 3.56091,3.56091 0 0 1 0.0312,0.4707 V 85.501 a 3.50048,3.50048 0 0 1 -3.5,3.5 h -3.18555 v 3.10742 a 3.50048,3.50048 0 0 1 -3.5,3.5 z"
       fill="#00007f"
       id="path65" />
    <path
       d="m 512.029,76.50249 v 3.09387 l -8.42267,-0.0098 v 3.52326 h 6.68543 V 85.501 h -6.68543 v 6.60736 h -4.4212 V 76.50249 H 512.029 m 0,-7 h -12.84388 a 7,7 0 0 0 -7,7 v 15.60589 a 7,7 0 0 0 7,7 h 4.4212 a 7.00027,7.00027 0 0 0 6.98954,-6.61386 7.00028,7.00028 0 0 0 6.69589,-6.9935 v -1.28909 a 6.99971,6.99971 0 0 0 1.73724,-4.61557 v -3.09387 a 7,7 0 0 0 -7,-7 z"
       fill="#ffffff"
       id="path67" />
    <path
       d="m 513.00464,95.63774 a 3.50048,3.50048 0 0 1 -3.5,-3.5 V 81.37212 a 3.50048,3.50048 0 0 1 3.5,-3.5 h 4.77246 a 3.48645,3.48645 0 0 1 0.98145,0.14062 q 0.24462,-0.06885 0.5,-0.12207 a 3.38192,3.38192 0 0 1 0.43164,-0.06348 q 0.57569,-0.04833 1.09668,-0.04785 a 7.27794,7.27794 0 0 1 5.36914,1.959 6.69855,6.69855 0 0 1 1.85547,4.92285 3.49967,3.49967 0 0 1 -3.5,3.49023 h -3.25391 v 3.98633 a 3.50048,3.50048 0 0 1 -3.5,3.5 z"
       fill="#00007f"
       id="path69" />
    <path
       d="m 520.78693,81.2787 q 3.73343,0 3.72485,3.3732 h -3.51349 q 0.0375,-1.61307 -1.91659,-1.613 -0.0794,0 -0.16227,0.0027 -1.15164,0.25378 -1.16143,1.14191 v 7.95422 h -4.753 V 81.3726 h 4.77252 l -0.01,1.30787 a 3.45653,3.45653 0 0 1 2.21552,-1.3664 q 0.42159,-0.03539 0.80365,-0.03537 m 0,-7 c -0.44824,0 -0.91553,0.02014 -1.38886,0.05985 a 4.07779,4.07779 0 0 1 -1.62054,0.034 H 513.005 a 7,7 0 0 0 -7,7 v 10.76513 a 7,7 0 0 0 7,7 h 4.753 a 7,7 0 0 0 7,-7 v -0.49 a 7.00024,7.00024 0 0 0 6.75378,-6.97727 10.11792,10.11792 0 0 0 -2.87845,-7.40377 10.68218,10.68218 0 0 0 -7.8464,-2.98789 z"
       fill="#ffffff"
       id="path71" />
    <path
       d="m 533.77417,95.65727 a 3.50745,3.50745 0 0 1 -0.7959,-0.09082 c -0.47754,0.04492 -0.98633,0.06055 -1.52832,0.06055 q -0.49512,0 -1.081,-0.02051 a 8.2915,8.2915 0 0 1 -6.75879,-3.1543 8.87111,8.87111 0 0 1 -1.85352,-6.03613 8.93532,8.93532 0 0 1 7.57129,-8.82812 3.55193,3.55193 0 0 1 0.61621,-0.09766 q 0.67383,-0.04541 1.25586,-0.04492 a 10.70336,10.70336 0 0 1 2.38477,0.23828 c 0.0664,-0.0039 0.2041,-0.0059 0.207,-0.0059 l 4.57715,0.0098 a 3.50007,3.50007 0 0 1 3.49219,3.5 v 10.96972 a 3.50049,3.50049 0 0 1 -3.5,3.5 z m -0.043,-7.3623 -0.0107,-3.63574"
       fill="#00007f"
       id="path73" />
    <path
       d="m 531.19748,80.94514 a 4.13853,4.13853 0 0 1 2.58615,0.59342 v -0.36115 l 4.57733,0.0098 v 10.97 h -4.58709 l -0.01,-0.37085 a 4.65689,4.65689 0 0 1 -2.3165,0.34043 q -0.43738,0 -0.953,-0.01841 a 4.96227,4.96227 0 0 1 -4.09912,-1.77624 5.31867,5.31867 0 0 1 -1.14191,-3.7478 6.09,6.09 0 0 1 1.04431,-3.36713 6.33175,6.33175 0 0 1 3.8844,-2.235 q 0.54465,-0.03708 1.01523,-0.03708 m 0.91721,9.89451 q 1.75671,-0.18549 1.72747,-1.57135 v -5.14334 q 0.1366,-1.747 -1.76654,-1.913 -1.8348,0.07809 -1.90313,2.84009 v 2.94751 q 0.14638,2.71316 1.9422,2.84009 M 531.19794,73.9451 h -3.1e-4 c -0.47015,0 -0.97174,0.01792 -1.49081,0.05323 a 7.003,7.003 0 0 0 -1.23331,0.19561 12.41211,12.41211 0 0 0 -10.21374,12.05564 12.31271,12.31271 0 0 0 2.55471,8.30771 11.93673,11.93673 0 0 0 9.4758,4.54818 q 0.62454,0.02161 1.15735,0.02128 c 0.4368,0 0.88748,-0.0092 1.34555,-0.03779 a 7.05379,7.05379 0 0 0 0.98072,0.06821 h 4.5871 a 7,7 0 0 0 7,-7 v -10.97 a 7,7 0 0 0 -6.9851,-7 l -4.47876,-0.0095 a 14.71516,14.71516 0 0 0 -2.69919,-0.23252 z"
       fill="#ffffff"
       id="path75" />
    <path
       d="m 546.74487,95.63774 a 3.50492,3.50492 0 0 0 -3.57226,0 h -4.01172 a 3.50048,3.50048 0 0 1 -3.5,-3.5 V 81.37212 a 3.50048,3.50048 0 0 1 3.5,-3.5 h 4.03125 a 3.54479,3.54479 0 0 1 0.72754,0.07617 8.10291,8.10291 0 0 1 1.92285,-0.49512 10.15276,10.15276 0 0 1 1.56348,-0.124 7.29289,7.29289 0 0 1 3.60156,0.8789 c 0.5,-0.26367 0.99219,-0.48242 1.43945,-0.666 a 3.50733,3.50733 0 0 1 0.8252,-0.22754 11.99737,11.99737 0 0 1 1.72656,-0.13281 c 4.09082,0 6.85254,2.56445 7.208,6.69238 0.009,0.09961 0.0127,0.19922 0.0127,0.2998 v 7.915 a 3.4992,3.4992 0 0 1 -3.5,3.5 c -0.006,0 -3.85254,-0.01953 -3.85254,-0.01953 a 3.47494,3.47494 0 0 0 -4.17968,0.06836 z"
       fill="#00007f"
       id="path77" />
    <path
       d="m 554.99848,80.68169 q 3.41949,0 3.72143,3.492 v 7.91522 l -3.83563,-0.01953 0.0293,-6.51953 q 0.056,-2.14164 -1.68879,-2.14154 -0.0762,0 -0.15582,0.0041 a 2.58034,2.58034 0 0 0 -0.378,-0.0289 2.13958,2.13958 0 0 0 -2.00342,1.60025 v 7.15393 h -3.94293 V 84.6519 q 0,-1.48342 -1.73724,-1.63965 -0.0945,-0.0083 -0.18531,-0.0083 a 1.78459,1.78459 0 0 0 -1.64953,1.17951 v 7.95422 h -4.01129 V 81.3726 h 4.03082 l -0.01,1.30787 a 4.874,4.874 0 0 1 3.11335,-1.75678 7.08531,7.08531 0 0 1 1.11084,-0.09439 3.11758,3.11758 0 0 1 3.28106,2.26108 q 0.46848,-1.22974 3.09387,-2.31311 a 8.40608,8.40608 0 0 1 1.217,-0.09558 m 0,-7 a 15.45251,15.45251 0 0 0 -2.23377,0.16983 6.99968,6.99968 0 0 0 -1.65338,0.455 c -0.0567,0.02341 -0.11841,0.04886 -0.18451,0.07639 a 11.15736,11.15736 0 0 0 -3.52014,-0.55362 14.06618,14.06618 0 0 0 -2.12061,0.16724 11.69162,11.69162 0 0 0 -1.75811,0.38412 q -0.16746,-0.008 -0.33588,-0.0081 h -4.03082 a 7,7 0 0 0 -7,7 v 10.76509 a 7,7 0 0 0 7,7 h 4.01129 a 7.052,7.052 0 0 1 3.57208,0 h 3.94293 a 6.92454,6.92454 0 0 1 4.16107,-0.06839 l 3.83564,0.01953 0.0358,9e-5 a 7,7 0 0 0 6.99988,-7 v -7.91522 q 0,-0.30148 -0.0259,-0.60211 a 10.34818,10.34818 0 0 0 -10.69549,-9.88989 z"
       fill="#ffffff"
       id="path79" />
    <path
       d="m 565.90405,95.63286 a 12.08294,12.08294 0 0 1 -4.39063,-0.81836 c -1.92089,-0.75586 -4.38671,-2.56055 -5.31737,-6.90137 a 3.47573,3.47573 0 0 1 -0.0781,-0.68847 l -0.01,-0.76172 a 3.44907,3.44907 0 0 1 0.0342,-0.53125 c 0.71484,-5.1045 4.14453,-8.169 9.40722,-8.40625 0.0527,-0.0029 0.22949,-0.0029 0.26465,-0.002 5.63086,0.1709 9.15625,3.47364 9.42969,8.833 a 3.51167,3.51167 0 0 1 -0.11133,1.0752 3.48933,3.48933 0 0 1 -0.084,1.21679 c -1.21583,4.89551 -4.47852,6.28516 -6.31543,6.67774 a 13.61415,13.61415 0 0 1 -2.82909,0.30669 z"
       fill="#00007f"
       id="path81" />
    <path
       d="m 565.70789,81.02129 q 5.76808,0.17568 6.04132,5.51428 h -7.72974 q -0.0879,3.54282 0.85883,4.01129 a 1.9032,1.9032 0 0 0 0.83569,0.20337 1.95193,1.95193 0 0 0 1.03821,-0.3205 q 0.94674,-0.57586 0.75152,-2.62536 h 4.14789 q -0.86865,3.50371 -3.65014,4.09906 a 10.0032,10.0032 0 0 1 -2.09687,0.22986 8.56446,8.56446 0 0 1 -3.12463,-0.58118 q -2.43018,-0.95646 -3.16217,-4.37238 l -0.01,-0.76129 q 0.72227,-5.15313 6.09986,-5.39715 m -1.68842,3.8161 h 3.38666 q -0.0196,-2.42047 -1.63965,-2.62543 -1.69821,0.08789 -1.747,2.62543 m 1.68854,-10.8161 q -0.15876,0 -0.31738,0.0072 c -6.89954,0.313 -11.77161,4.68829 -12.71485,11.41833 a 7.00843,7.00843 0 0 0 -0.0672,1.06134 l 0.01,0.76133 a 7.00124,7.00124 0 0 0 0.15484,1.37692 c 1.32142,6.16687 5.2306,8.54855 7.44318,9.41937 a 15.6194,15.6194 0 0 0 5.68823,1.06751 17.05964,17.05964 0 0 0 3.56183,-0.38489 c 4.48566,-0.96 7.75861,-4.335 8.97949,-9.25955 a 6.99536,6.99536 0 0 0 0.205,-1.78437 6.997,6.997 0 0 0 0.0891,-1.52679 c -0.372,-7.26685 -5.284,-11.92365 -12.81909,-12.15317 q -0.10638,-0.0032 -0.213,-0.0032 z"
       fill="#ffffff"
       id="path83" />
    <path
       d="m 585.86206,95.60844 a 3.50027,3.50027 0 0 0 -4.77246,0 h -4.10937 a 3.50066,3.50066 0 0 1 -3.25684,-2.21777 l -4.4502,-11.30176 A 3.50076,3.50076 0 0 1 572.53,77.30669 h 4.4502 a 3.50159,3.50159 0 0 0 4.36328,0 h 4.14752 a 3.4988,3.4988 0 0 0 4.46,0 h 4.412 a 3.50041,3.50041 0 0 1 3.26074,4.77246 l -4.41211,11.30176 a 3.50028,3.50028 0 0 1 -3.26074,2.22753 z"
       fill="#00007f"
       id="path85" />
    <path
       d="m 594.36267,80.80656 h 0.005 m -0.005,0 -4.41144,11.30182 h -4.08935 l -2.43018,-6.80255 -2.34234,6.80255 h -4.10889 L 572.53,80.80656 h 4.45044 l 1.93243,7.11487 2.43018,-7.11487 h 4.148 l 2.52777,7.11487 1.93243,-7.11487 h 4.41144 m 0.005,-7 h -4.41645 a 7.00932,7.00932 0 0 1 -4.4602,0 h -4.148 a 7.01034,7.01034 0 0 1 -4.36261,0 H 572.53 a 7,7 0 0 0 -6.51318,9.56479 l 4.45044,11.30179 a 7,7 0 0 0 6.51318,4.43524 h 4.10889 a 7.00642,7.00642 0 0 1 4.77252,0 h 4.08935 a 7.00008,7.00008 0 0 0 6.52088,-4.45474 l 4.32843,-11.08917 a 7.003,7.003 0 0 0 -6.43286,-9.75791 z m -0.005,14 z"
       fill="#ffffff"
       id="path87" />
    <path
       d="m 601.36011,95.60844 c -0.0889,0 -0.17774,-0.0029 -0.26563,-0.0098 a 10.47325,10.47325 0 0 1 -6.85254,-2.70215 9.4182,9.4182 0 0 1 -2.51855,-6.61328 3.40066,3.40066 0 0 1 0.0107,-0.41113 c 0.33008,-3.79981 2.11328,-5.73633 3.55078,-6.69239 a 10.32388,10.32388 0 0 1 5.82422,-1.67285 c 0.12012,0 0.24024,0.002 0.36133,0.0049 h 0.6709 c 0.0596,0 0.11914,0.002 0.17773,0.0049 a 10.1989,10.1989 0 0 1 6.27149,2.25293 8.66494,8.66494 0 0 1 2.92283,6.082 q 0.009,0.10694 0.0117,0.21387 c 0.0898,3.95019 -1.59864,6.10449 -3.03125,7.21679 a 11.62374,11.62374 0 0 1 -6.02832,2.3086 c -0.11719,0.01171 -0.23535,0.01757 -0.35352,0.01757 z m -1.36231,-7.21875 3.16211,-3.64453"
       fill="#00007f"
       id="path89" />
    <path
       d="m 601.11316,81.00661 q 0.15151,0 0.30585,0.0049 h 0.72223 a 6.79244,6.79244 0 0 1 4.17718,1.42 5.227,5.227 0 0 1 1.708,3.71363 5.03789,5.03789 0 0 1 -1.67865,4.37237 8.13527,8.13527 0 0 1 -4.23578,1.59082 h -0.75153 a 7.1412,7.1412 0 0 1 -4.63586,-1.67865 6.06036,6.06036 0 0 1 -1.503,-4.25531 5.102,5.102 0 0 1 2.00073,-4.07959 6.86486,6.86486 0 0 1 3.89087,-1.08822 m 0.55957,9.70614 q 1.87391,-0.17568 1.83484,-2.60583 v -3.16219 q -0.0488,-2.55708 -1.87384,-2.57654 -1.9422,0.0585 -1.991,2.53754 v 3.25976 q 0.1367,2.42047 2.03,2.5473 M 601.1132,74.00661 a 13.767,13.767 0 0 0 -7.76611,2.25879 c -2.0774,1.381 -4.64826,4.116 -5.09919,9.30273 a 6.99406,6.99406 0 0 0 -0.0229,0.8226 12.82946,12.82946 0 0 0 3.54986,8.98874 c 2.14771,2.16238 5.2,3.41583 9.05524,3.7088 q 0.26477,0.0201 0.53039,0.02011 h 0.75153 a 7.00688,7.00688 0 0 0 0.70709,-0.03579 15.058,15.058 0 0 0 7.79816,-3.00782 c 1.71631,-1.3327 4.53631,-4.3872 4.40741,-10.07812 q -0.005,-0.2151 -0.0229,-0.4296 a 12.09118,12.09118 0 0 0 -4.13764,-8.44882 13.60585,13.60585 0 0 0 -8.36572,-3.08758 q -0.17833,-0.0091 -0.357,-0.0091 h -0.62567 q -0.20262,-0.005 -0.40241,-0.0049 z"
       fill="#ffffff"
       id="path91" />
    <path
       d="m 608.92456,95.63774 a 3.50048,3.50048 0 0 1 -3.5,-3.5 V 81.37212 a 3.50048,3.50048 0 0 1 3.5,-3.5 h 4.77244 a 3.47455,3.47455 0 0 1 0.98047,0.14062 c 0.16406,-0.0459 0.33008,-0.08691 0.5,-0.12207 a 3.408,3.408 0 0 1 0.43164,-0.06348 c 0.38379,-0.03222 0.749,-0.04785 1.09766,-0.04785 a 7.27476,7.27476 0 0 1 5.36719,1.959 6.69324,6.69324 0 0 1 1.85742,4.9209 3.50008,3.50008 0 0 1 -3.5,3.49218 h -3.25391 v 3.98633 a 3.50048,3.50048 0 0 1 -3.5,3.5 z"
       fill="#00007f"
       id="path93" />
    <path
       d="m 616.70618,81.2787 q 3.73352,0 3.72491,3.3732 h -3.51355 q 0.0376,-1.61307 -1.91656,-1.613 -0.0794,0 -0.16223,0.0027 -1.15175,0.25378 -1.16144,1.14191 v 7.95422 h -4.75305 V 81.3726 h 4.77258 l -0.01,1.30787 a 3.45641,3.45641 0 0 1 2.21546,-1.3664 q 0.42159,-0.03539 0.80365,-0.03537 m 0,-7 c -0.44824,0 -0.91553,0.02014 -1.38886,0.05985 a 4.07746,4.07746 0 0 1 -1.62048,0.034 h -4.77258 a 7,7 0 0 0 -7,7 v 10.76513 a 7,7 0 0 0 7,7 h 4.75305 a 7,7 0 0 0 7,-7 v -0.49 a 7.00022,7.00022 0 0 0 6.75378,-6.97727 10.11778,10.11778 0 0 0 -2.87842,-7.40374 10.6823,10.6823 0 0 0 -7.84649,-2.98792 z"
       fill="#ffffff"
       id="path95" />
    <path
       d="m 630.14234,95.667 a 3.49945,3.49945 0 0 0 -4.19727,-0.0293 h -4.75293 a 3.50048,3.50048 0 0 1 -3.5,-3.5 V 81.37212 l 0.0195,-4.84375 a 3.5001,3.5001 0 0 1 3.5,-3.48633 h 4.74317 a 3.49738,3.49738 0 0 1 2.47656,1.02734 3.44067,3.44067 0 0 1 0.49316,0.62012 3.52714,3.52714 0 0 1 1.09082,-0.17383 h 2.459 a 3.5002,3.5002 0 0 1 2.79687,5.60449 l -1.72656,2.29492 4.76367,7.95411 a 3.5001,3.5001 0 0 1 -3.00293,5.29785 z"
       fill="#00007f"
       id="path97" />
    <path
       d="m 625.95514,76.54155 -0.01,6.58783 4.06983,-5.11414 h 2.45947 l -3.14267,4.17719 5.973,9.97455 h -5.1629 l -3.79657,-6.08039 -0.34161,0.40992 -0.0585,5.64117 h -4.75305 V 81.3726 l 0.0195,-4.83105 h 4.74329 m 6.51953,1.47369 h 0.005 m -6.52454,-8.47369 h -4.74329 a 7,7 0 0 0 -6.99993,6.97168 l -0.0195,4.83105 -6e-5,10.7934 a 7,7 0 0 0 7,7 h 4.75305 a 7.021,7.021 0 0 1 4.19672,0.0293 h 5.1629 a 7,7 0 0 0 6.00556,-10.59626 l -3.55316,-5.93372 0.22363,-0.29727 A 6.99948,6.99948 0 0 0 632.47968,71.0152 h -2.228 a 7.00012,7.00012 0 0 0 -4.29657,-1.47369 z m 0,14 z"
       fill="#ffffff"
       id="path99" />
    <path
       d="m 534.363,79.01567 a 23.77106,23.77106 0 0 1 -10.25195,-2.19141 19.81307,19.81307 0 0 1 -9.00684,-10.82812 c -0.81445,-2.44336 -0.82422,-3.44141 -0.94238,-15.6626 l -0.0635,-9.19043 a 8.301,8.301 0 0 1 -7.55566,-4.75976 8.31893,8.31893 0 0 1 0.1582,-8.84375 8.43427,8.43427 0 0 1 7.40332,-4.4292 v -4.13428 c 0,-7 0.10059,-8.49121 0.67383,-9.9707 0.0166,-0.04493 0.0351,-0.08936 0.0547,-0.1333 a 8.69445,8.69445 0 0 1 4.43946,-4.6753 8.47538,8.47538 0 0 1 3.43066,-0.69677 9.55694,9.55694 0 0 1 7.50391,3.59716 l 0.8164,1.041 a 3.50152,3.50152 0 0 1 0.7461,2.12207 l 0.13769,12.813 h 0.54 c 3.72949,0 5,0.04687 6.91407,1.02783 a 9.67529,9.67529 0 0 1 5.0039,6.9751 7.777,7.777 0 0 1 -0.73828,4.39062 c -2.3418,5.28272 -5.79,5.68115 -11.18945,5.71 h -0.52539 l 0.0615,8.71827 c 0.04,5.44677 0.0703,9.57666 0.19141,11.062 a 2.56092,2.56092 0 0 0 0.93652,0.1875 1.40255,1.40255 0 0 0 0.30078,-0.02832 19.99792,19.99792 0 0 1 4.126,-0.58692 7.98,7.98 0 0 1 3.67773,0.8877 8.27894,8.27894 0 0 1 4.96094,7.44043 8.8997,8.8997 0 0 1 -7.21769,9.68551 20.99643,20.99643 0 0 1 -4.58594,0.47266 z"
       fill="#7a7777"
       id="path101" />
    <path
       d="m 522.70365,7 a 6.05994,6.05994 0 0 1 4.718,2.2166 l 0.84742,1.08119 0.0876,8.15234 0.0876,8.1231 h 4.00311 c 3.59406,0 4.17847,0.05848 5.31806,0.64286 a 6.23039,6.23039 0 0 1 3.12652,4.29531 4.47644,4.47644 0 0 1 -0.46753,2.54211 c -1.37335,3.09735 -2.51288,3.59406 -8.00622,3.62329 h -4.0323 l 0.0876,12.2432 c 0.0877,11.89245 0.11689,12.27234 0.7013,13.09051 a 5.17614,5.17614 0 0 0 3.925,1.63379 4.87791,4.87791 0 0 0 1.07153,-0.11438 17.06879,17.06879 0 0 1 3.35645,-0.50046 4.47872,4.47872 0 0 1 2.1369,0.5297 4.84069,4.84069 0 0 1 3.00964,4.529 5.41388,5.41388 0 0 1 -4.52911,6.04852 17.6155,17.6155 0 0 1 -3.783,0.37928 20.29788,20.29788 0 0 1 -8.66467,-1.811 16.30952,16.30952 0 0 1 -7.27576,-8.8244 c -0.61365,-1.84088 -0.64289,-2.4837 -0.75977,-14.58075 l -0.0876,-12.623 h -2.27912 c -3.06811,0 -4.52911,-0.73047 -5.63946,-2.89276 a 4.89482,4.89482 0 0 1 0.0584,-5.46409 c 1.16882,-2.04543 2.60058,-2.74672 5.63946,-2.74672 h 2.24994 V 18.976 c 0,-6.22381 0.0876,-7.80168 0.4383,-8.70749 A 5.30338,5.30338 0 0 1 520.67194,7.405 5.04683,5.04683 0 0 1 522.70365,7 m 0,-7 a 11.96474,11.96474 0 0 0 -4.85114,0.99792 12.27722,12.27722 0 0 0 -6.22986,6.47947 q -0.0569,0.13094 -0.10846,0.26408 c -0.82095,2.12061 -0.91037,4.14952 -0.91037,11.23457 v 1.19855 a 11.559,11.559 0 0 0 -6.94217,5.62889 11.79161,11.79161 0 0 0 -0.21332,12.21546 11.5237,11.5237 0 0 0 7.1706,6.07226 l 0.0435,6.2572 c 0.12316,12.74912 0.13324,13.789 1.1188,16.74576 a 23.21509,23.21509 0 0 0 10.7623,12.85984 27.00051,27.00051 0 0 0 11.81894,2.562 24.46945,24.46945 0 0 0 5.30719,-0.54725 l 0.0826,-0.01892 a 12.36761,12.36761 0 0 0 9.90765,-13.31433 11.82524,11.82524 0 0 0 -6.93884,-10.374 11.4372,11.4372 0 0 0 -5.193,-1.23209 15.17672,15.17672 0 0 0 -1.98481,0.13849 c -0.0305,-1.97314 -0.0494,-4.54022 -0.0698,-7.29953 l -0.0378,-5.2886 c 4.73193,-0.3349 8.76221,-1.76666 11.38812,-7.68888 a 11.36247,11.36247 0 0 0 1.00153,-6.34614 13.19778,13.19778 0 0 0 -6.88233,-9.566 12.26305,12.26305 0 0 0 -5.57324,-1.36894 l -0.0133,-1.23525 -0.0876,-8.15205 a 7,7 0 0 0 -1.49024,-4.243 l -0.824,-1.0513 A 13.12971,13.12971 0 0 0 522.70365,0 Z"
       fill="#ffffff"
       id="path103" />
    <path
       d="m 448.77319,78.54887 a 8.8473,8.8473 0 0 1 -7.99218,-4.85644 c -0.89551,-1.68164 -0.89551,-1.68164 -0.89551,-32.0127 0,-30.11132 0.0791,-30.30615 0.69531,-31.82275 a 7.90481,7.90481 0 0 1 4.415,-4.61133 10.05034,10.05034 0 0 1 3.73682,-0.87305 9.44487,9.44487 0 0 1 8.47265,6.25831 c 0.14307,0.53369 0.34522,1.2915 0.34522,31.312 v 29.5122 a 3.50126,3.50126 0 0 1 -0.5669,1.91016 l -0.81836,1.25684 a 8.80484,8.80484 0 0 1 -7.39111,3.92675 z"
       fill="#7a7777"
       id="path105" />
    <path
       d="m 448.73248,7.8725 a 5.997,5.997 0 0 1 5.11353,3.74016 c 0.11688,0.43827 0.20453,14.084 0.20453,30.33026 V 71.455 l -0.81818,1.25647 a 5.27577,5.27577 0 0 1 -4.45886,2.33765 5.36978,5.36978 0 0 1 -4.8623,-2.92206 c -0.49671,-0.935 -0.52594,-2.98041 -0.52594,-30.44714 0,-25.83037 0.0584,-29.57056 0.43829,-30.50556 a 4.45708,4.45708 0 0 1 2.62982,-2.74672 6.669,6.669 0 0 1 2.27911,-0.55514 m 0,-7 A 13.49136,13.49136 0 0 0 443.557,2.055 11.454,11.454 0 0 0 437.36968,8.46374 l -0.0313,0.07571 c -0.91733,2.25777 -0.95315,2.34589 -0.95315,33.14051 0,30.94577 -7e-5,31.19876 1.31124,33.66934 a 12.46611,12.46611 0 0 0 21.3758,1.22165 l 0.84424,-1.29624 a 6.99991,6.99991 0 0 0 1.134,-3.81967 V 41.94292 c 0,-30.48085 -0.166,-31.10317 -0.44095,-32.13417 q -0.0214,-0.08025 -0.0447,-0.16 A 12.845,12.845 0 0 0 448.73248,0.8725 Z"
       fill="#ffffff"
       id="path107" />
    <path
       d="m 553.75952,78.56645 a 8.93694,8.93694 0 0 1 -8.00586,-4.93066 c -0.96875,-1.98535 -0.96875,-1.98535 -0.96875,-15.82617 0,-14.167 0.12989,-16.523 2.09571,-21.38623 2.70214,-6.61524 8.57129,-11.27784 16.53125,-13.14112 a 20.40988,20.40988 0 0 1 4.5,-0.40185 q 0.60351,0 1.25,0.019 a 21.46881,21.46881 0 0 1 17.78808,9.83691 c 1.1836,1.74707 4.79688,7.07569 0.11133,12.41993 a 8.593,8.593 0 0 1 -6.78027,3.0332 c -2.46875,0 -5.89356,-0.97705 -8.19336,-5.63086 a 2.48979,2.48979 0 0 0 -1.92188,-1.45361 10.3452,10.3452 0 0 0 -1.96484,-0.16016 11.04156,11.04156 0 0 0 -3.35254,0.416 4.23361,4.23361 0 0 0 -1.81839,2.47759 c -0.40234,1.168 -0.43359,2.15528 -0.43359,13.24024 0,3.87256 -0.04,13.0542 -0.41016,14.66455 a 8.30281,8.30281 0 0 1 -4.42187,5.86816 8.906,8.906 0 0 1 -4.00489,0.95508 z"
       fill="#7a7777"
       id="path109" />
    <path
       d="m 567.91223,26.38063 c 0.369,0 0.75232,0.0058 1.14783,0.01732 a 17.93255,17.93255 0 0 1 14.98981,8.29845 c 2.33758,3.44793 2.45446,5.78552 0.37988,8.15234 a 5.09,5.09 0 0 1 -4.14923,1.84082 c -2.16229,0 -3.82782,-1.198 -5.05505,-3.6817 a 5.98874,5.98874 0 0 0 -4.35376,-3.33106 13.62731,13.62731 0 0 0 -2.6706,-0.23159 14.11723,14.11723 0 0 0 -4.66357,0.66989 7.46763,7.46763 0 0 0 -3.82782,4.61676 c -0.58441,1.69476 -0.61365,2.45447 -0.61365,14.347 0,7.451 -0.14606,13.11975 -0.32141,13.87946 a 4.87787,4.87787 0 0 1 -2.60059,3.53558 5.33928,5.33928 0 0 1 -2.415,0.57291 5.40749,5.40749 0 0 1 -4.86078,-2.9689 c -0.61359,-1.25647 -0.61359,-1.60712 -0.61359,-14.28858 0,-14.20087 0.17529,-15.954 1.84082,-20.074 2.27918,-5.581 7.21735,-9.43805 14.08405,-11.04517 a 17.48986,17.48986 0 0 1 3.70263,-0.30948 m 1.2e-4,-7 h -1.2e-4 a 23.73669,23.73669 0 0 0 -5.27667,0.48874 c -9.11633,2.13361 -15.85309,7.53688 -18.99048,15.21945 -2.20074,5.44385 -2.36035,8.174 -2.36035,22.72049 0,14.37537 0,14.65 1.32355,17.36029 a 12.43855,12.43855 0 0 0 16.72375,5.57145 11.80613,11.80613 0 0 0 6.27326,-8.252 c 0.12707,-0.54977 0.49084,-2.126 0.49084,-15.41025 0,-6.166 0,-11.03622 0.17261,-11.89123 0.0136,-0.0477 0.0359,-0.10807 0.0586,-0.1738 l 0.0232,-0.06851 a 2.424,2.424 0 0 1 0.16449,-0.38394 11.978,11.978 0 0 1 1.68609,-0.11615 9.24047,9.24047 0 0 1 0.94043,0.04242 c 3.26367,6.25408 8.3595,7.20193 11.139,7.20193 a 12.05788,12.05788 0 0 0 9.38757,-4.19757 c 2.97577,-3.39475 5.39649,-9.0231 0.17572,-16.72371 a 24.77885,24.77885 0 0 0 -20.499,-11.36455 l -0.0818,-0.0028 c -0.46539,-0.01352 -0.9165,-0.02026 -1.35071,-0.02026 z"
       fill="#ffffff"
       id="path111" />
    <path
       d="m 483.38745,78.69536 c -3.60254,-0.03028 -4.79638,-0.12891 -7.36084,-0.959 a 21.23617,21.23617 0 0 1 -8.9126,-5.68457 22.43862,22.43862 0 0 1 -6.23535,-11.81347 c -0.44922,-2.21094 -0.53955,-4.93311 -0.53955,-16.19141 0,-12.7793 0.0244,-14.01465 0.87451,-15.86621 a 8.26232,8.26232 0 0 1 4.07422,-4.21338 8.1651,8.1651 0 0 1 3.81739,-0.90478 9.523,9.523 0 0 1 7.8208,4.0039 l 0.771,1.1416 a 3.50367,3.50367 0 0 1 0.59961,1.92286 l 0.146,14.20117 c 0.11181,10.44336 0.15625,13.48047 0.4331,14.07519 0.85987,1.83985 1.52881,2.44043 4.03467,2.60059 0.26416,0.0166 0.5332,0.02441 0.79444,0.02441 3.0332,0 3.95263,-1.07226 4.51513,-2.92578 0.4292,-1.332 0.4624,-2.36572 0.4624,-13.88428 0,-12.53711 0.0586,-13.83252 0.69581,-15.40136 a 9.1224,9.1224 0 0 1 8.35839,-5.709 8.95843,8.95843 0 0 1 6.85889,3.25879 c 2.26367,2.64942 2.25391,3.85693 2.13184,18.64014 -0.11817,12.81933 -0.14454,13.85547 -0.88672,16.53613 -2.208,8.05176 -7.40918,13.64941 -15.03907,16.18164 -2.59619,0.87695 -3.71875,0.9668 -7.38476,0.9668 z"
       fill="#7a7777"
       id="path113" />
    <path
       d="m 469.10513,26.56235 a 6.04213,6.04213 0 0 1 4.90256,2.43615 l 0.78894,1.16877 0.14612,14.20088 c 0.14612,13.61651 0.17535,14.25934 0.7597,15.51581 1.461,3.12652 3.33112,4.383 6.98359,4.6167 q 0.52578,0.03167 1.01934,0.03167 c 4.23148,0 6.752,-1.7485 7.86353,-5.40814 0.58435,-1.81158 0.61359,-2.659 0.61359,-14.9021 0,-11.07434 0.0585,-13.149 0.43829,-14.08406 a 5.56542,5.56542 0 0 1 5.11581,-3.526 5.41222,5.41222 0 0 1 4.17612,2.00659 c 1.37335,1.60711 1.43176,2.19146 1.31488,16.36316 -0.11688,12.623 -0.14606,13.41192 -0.7597,15.63263 -1.8993,6.92511 -6.25306,11.62951 -12.76911,13.7918 -2.07458,0.7013 -2.77588,0.78895 -6.28228,0.78895 -3.47718,-0.02924 -4.23688,-0.11689 -6.31147,-0.78895 a 17.7459,17.7459 0 0 1 -7.45111,-4.76287 19.01276,19.01276 0 0 1 -5.34723,-10.11005 c -0.37988,-1.87006 -0.46753,-4.49988 -0.46753,-15.48657 0,-12.21392 0.0585,-13.32428 0.55518,-14.4054 a 4.79777,4.79777 0 0 1 2.51294,-2.57132 4.66986,4.66986 0 0 1 2.19784,-0.50764 m 4.6e-4,-7 v 0 a 12.2265,12.2265 0 0 0 -11.05826,7.1269 c -1.20813,2.62938 -1.20813,4.02324 -1.20813,17.35749 0,11.6821 0.0965,14.364 0.60764,16.88009 a 25.94456,25.94456 0 0 0 7.09894,13.5026 24.66609,24.66609 0 0 0 10.34573,6.61756 l 0.0563,0.01847 a 23.08739,23.08739 0 0 0 8.40988,1.12942 l 0.0589,2.5e-4 c 4.0129,0 5.52587,-0.14411 8.524,-1.15763 8.7565,-2.90561 14.744,-9.33191 17.27811,-18.57168 0.87674,-3.17282 0.88922,-4.52112 1.00867,-17.41925 0.12628,-15.3075 0.14291,-17.29833 -2.975,-20.95449 a 12.44644,12.44644 0 0 0 -9.51572,-4.48007 12.59727,12.59727 0 0 0 -11.56457,7.80316 q -0.0186,0.04418 -0.0367,0.08859 c -0.91758,2.259 -0.95285,3.974 -0.95285,16.71832 0,10.342 -0.036,12.01062 -0.27561,12.75318 q -0.0184,0.05716 -0.0359,0.11468 a 3.20282,3.20282 0 0 1 -0.12661,0.35117 4.7539,4.7539 0 0 1 -1.039,0.09121 c -0.19351,0 -0.3926,-0.0066 -0.59835,-0.019 a 6.04169,6.04169 0 0 1 -0.80384,-0.09619 c -0.0297,-0.04938 -0.0646,-0.11066 -0.10452,-0.18561 -0.13351,-1.49438 -0.18591,-6.37665 -0.25632,-12.93847 l -0.14608,-14.1978 a 6.99992,6.99992 0 0 0 -1.19779,-3.84441 l -0.7753,-1.14856 a 12.93446,12.93446 0 0 0 -10.71759,-5.53993 z"
       fill="#ffffff"
       id="path115" />
    <path
       d="m 614.69019,78.72075 a 27.498,27.498 0 0 1 -6.56446,-0.67969 21.57584,21.57584 0 0 1 -12.667,-8.93555 c -3.4043,-5.13964 -4.65527,-10.09375 -4.62305,-18.29345 0,-5.74658 0.36719,-8.1753 1.8711,-12.36084 a 23.59054,23.59054 0 0 1 16.97265,-14.82813 22.64175,22.64175 0 0 1 4.6875,-0.42187 28.27487,28.27487 0 0 1 6.86622,0.75488 c 11.44628,3.04834 18.32519,14.52246 17.5039,29.22656 a 31.81624,31.81624 0 0 1 -3.02539,12.88867 22.68041,22.68041 0 0 1 -14.61719,12.002 27.53136,27.53136 0 0 1 -6.40429,0.64746 z m -0.0781,-37.76758 a 5.187,5.187 0 0 0 -1.7373,0.23633 6.043,6.043 0 0 0 -3.90039,4.22168 35.71064,35.71064 0 0 0 -0.17871,10.55029 c 1.00195,4.52 3.63574,5.09815 5.81835,5.09815 a 5.66374,5.66374 0 0 0 4.96387,-2.4209 c 1.81446,-2.959 2.042,-11.49121 0.3916,-14.72559 a 5.37389,5.37389 0 0 0 -2.38867,-2.42578 7.98771,7.98771 0 0 0 -2.96875,-0.53418 z"
       fill="#7a7777"
       id="path117" />
    <path
       d="m 614.368,26.70145 a 25.02351,25.02351 0 0 1 5.94379,0.63148 c 9.87634,2.62984 15.66186,12.56458 14.9314,25.65509 a 28.48359,28.48359 0 0 1 -2.68824,11.57111 19.21865,19.21865 0 0 1 -12.38922,10.13928 28.97331,28.97331 0 0 1 -11.10357,-0.02917 18.19871,18.19871 0 0 1 -10.69452,-7.50953 c -2.98041,-4.49987 -4.06153,-8.85363 -4.03235,-16.33392 0,-5.43494 0.32147,-7.45111 1.66559,-11.19122 a 20.10228,20.10228 0 0 1 14.43463,-12.59381 18.98039,18.98039 0 0 1 3.93249,-0.33931 m 0.24591,37.85768 a 9.12354,9.12354 0 0 0 7.94782,-4.09082 c 2.45447,-4.00312 2.7467,-13.79175 0.526,-18.14551 a 8.85048,8.85048 0 0 0 -4.14923,-4.06158 11.38375,11.38375 0 0 0 -4.32666,-0.80829 8.47016,8.47016 0 0 0 -3.03681,0.48687 9.521,9.521 0 0 0 -5.9024,6.31147 c -0.75971,2.16229 -0.93506,9.61334 -0.29218,12.47693 1.13959,5.1427 4.32453,7.83093 9.23346,7.83093 M 614.368,19.70145 a 25.23185,25.23185 0 0 0 -5.46588,0.50929 27.11351,27.11351 0 0 0 -19.48165,17.03656 c -1.658,4.6134 -2.0852,7.40115 -2.0852,13.57849 -0.0346,8.83029 1.42236,14.50131 5.19635,20.19928 a 25.35232,25.35232 0 0 0 14.69232,10.3985 35.30556,35.30556 0 0 0 14.76434,0.03342 26.1397,26.1397 0 0 0 16.85663,-13.826 l 0.024,-0.04984 a 35.619,35.619 0 0 0 3.36566,-14.24783 c 0.91461,-16.38761 -6.98267,-29.26607 -20.1217,-32.76468 a 32.51674,32.51674 0 0 0 -7.74494,-0.86717 z m -0.31817,24.78883 a 3.69606,3.69606 0 0 1 0.56213,-0.03735 h 1.8e-4 a 4.686,4.686 0 0 1 1.54792,0.23327 l 0.0136,0.0058 a 2.45363,2.45363 0 0 1 0.69372,0.84131 c 1.16016,2.27472 0.81867,9.45371 -0.2738,11.27689 a 2.35232,2.35232 0 0 1 -1.97968,0.7489 c -1.21191,0 -1.87951,0 -2.39923,-2.34531 a 35.27411,35.27411 0 0 1 0.10376,-8.75882 c 0.48468,-1.33752 0.85425,-1.60171 1.73139,-1.96472 z"
       fill="#ffffff"
       id="path119" />
    <path
       d="m 396.23908,106.99948 a 31.48328,31.48328 0 1 1 31.41377,-31.77736 31.50811,31.50811 0 0 1 -31.41377,31.77736 z M 409.2612,71.70963 a 9.2543,9.2543 0 1 0 -9.327,-9.27169 9.25871,9.25871 0 0 0 9.327,9.27169 z m -3.69144,9.5753 c 1.126,-0.31042 2.3839,-0.31613 2.56948,-0.7651 1.01135,-2.44669 2.98623,-2.00345 4.83116,-1.80411 a 1.98753,1.98753 0 0 1 1.91169,2.26245 c -0.0512,1.32744 -0.98346,1.52276 -1.98781,1.70861 a 40.29906,40.29906 0 0 0 -5.19517,1.0483 3.859,3.859 0 0 0 -2.73535,4.28238 4.12358,4.12358 0 0 0 3.2954,3.89872 6.75387,6.75387 0 0 0 5.86485,-1.15609 c 1.64779,0.55462 2.796,0.9964 3.98064,1.29294 0.23559,0.059 0.808,-0.39444 0.87326,-0.68939 0.0909,-0.41119 -0.0787,-1.25675 -0.25913,-1.29209 -1.566,-0.30674 -1.18663,-1.49145 -1.199,-2.46914 -0.0278,-2.20328 -0.005,-4.40716 -0.01,-6.61079 -0.006,-2.8746 -0.98975,-4.08961 -3.6811,-4.56183 -3.95436,-0.69381 -7.12554,0.44727 -7.93885,2.88454 a 15.61684,15.61684 0 0 0 -0.32036,1.9706 z M 390.2925,76.79936 c 0,4.00325 -0.0633,7.90264 0.0303,11.79826 a 3.40774,3.40774 0 0 0 2.62911,3.18754 c 2.68609,0.88035 5.04123,0.22 7.27286,-1.99466 -0.11317,2.182 1.055,1.68774 2.10205,1.58227 V 76.84119 h -2.51242 c 0,2.68812 0.0641,5.25 -0.0306,7.806 a 8.69244,8.69244 0 0 1 -0.67858,3.17342 3.57561,3.57561 0 0 1 -4.14567,1.92449 c -1.84992,-0.42245 -2.08165,-1.79264 -2.06788,-3.37354 0.0276,-3.16235 0.008,-6.32511 0.008,-9.57216 z m -2.53689,12.31839 H 377.42466 V 70.92809 h -2.49643 v 20.54025 h 12.82738 z"
       fill="#00007f"
       id="path121" />
    <path
       d="m 418.54747,43.926 a 8.9998,8.9998 0 0 1 9.22951,-9.08133 9.10981,9.10981 0 0 1 9.13724,9.22931 9.24254,9.24254 0 0 1 -9.29071,9.12683 9.08927,9.08927 0 0 1 -9.07604,-9.27481 z"
       fill="#00007f"
       id="path123" />
    <path
       d="m 414.70833,84.31921 c 0.52288,4.00552 -1.60811,6.28426 -5.08475,5.37262 -0.77512,-0.20325 -1.8597,-1.16291 -1.882,-1.80617 a 2.94678,2.94678 0 0 1 1.46771,-2.32887 36.54478,36.54478 0 0 1 5.49904,-1.23758 z"
       fill="#00007f"
       id="path125" />
    <path
       d="m 431.85229,84.28107 q 0.41967,-7.53457 7.4272,-8.05184 7.13442,0.35136 7.7688,6.28531 l -5.10437,-0.01952 q -0.4392,-2.83033 -1.48349,-3.738 -1.0443,-0.92718 -2.12764,0.31231 -1.07358,1.2395 -1.13214,5.08486 -0.10735,5.08485 1.05406,5.75828 a 2.03764,2.03764 0 0 0 2.34235,-0.16592 q 1.18093,-0.82957 1.26878,-3.46473 l -2.66443,-0.0098 -0.0293,-2.14715 h 7.84687 q -0.56607,6.62689 -4.46023,7.61264 A 10.24659,10.24659 0 0 1 435.44388,91.191 q -3.22071,-1.53228 -3.59159,-6.90993 z"
       fill="#00007f"
       id="path127" />
    <path
       d="m 456.70073,81.17745 4.57734,0.0098 v 10.97 H 456.691 l -0.01,-0.37087 q -0.53679,0.41967 -3.26953,0.32207 a 4.96241,4.96241 0 0 1 -4.09912,-1.77628 5.31856,5.31856 0 0 1 -1.14189,-3.74776 6.08986,6.08986 0 0 1 1.0443,-3.36713 6.3314,6.3314 0 0 1 3.88439,-2.235 q 2.723,-0.18543 3.60137,0.55631 z m -1.708,1.03454 q -1.83485,0.07807 -1.90317,2.8401 v 2.94746 q 0.1464,2.71321 1.9422,2.8401 1.75677,-0.18543 1.72749,-1.57133 v -5.14341 q 0.13667,-1.747 -1.76648,-1.91291 z"
       fill="#00007f"
       id="path129" />
    <path
       d="m 469.21279,80.9237 q 3.494,-0.55632 4.39191,2.16667 0.46847,-1.22973 3.09385,-2.31307 4.58711,-0.67342 4.93846,3.39641 v 7.91519 l -3.8356,-0.01952 0.0293,-6.51954 q 0.0586,-2.235 -1.8446,-2.1374 a 2.10237,2.10237 0 0 0 -2.38139,1.57133 v 7.15393 h -3.943 v -7.48576 q 0,-1.48349 -1.73724,-1.63965 a 1.76909,1.76909 0 0 0 -1.83485,1.17118 v 7.95423 h -4.01127 V 81.37265 h 4.03079 l -0.01,1.30781 a 4.87422,4.87422 0 0 1 3.11342,-1.75676 z"
       fill="#00007f"
       id="path131" />
    <path
       d="m 488.625,81.02129 q 5.768,0.17568 6.04131,5.51429 h -7.72976 q -0.0878,3.54281 0.85886,4.01128 a 1.83408,1.83408 0 0 0 1.87388,-0.11712 q 0.94671,-0.57583 0.75151,-2.62539 h 4.14791 q -0.86862,3.50377 -3.65016,4.09912 a 8.96038,8.96038 0 0 1 -5.22149,-0.35136 q -2.4302,-0.95646 -3.16218,-4.37238 l -0.01,-0.76127 q 0.72227,-5.15318 6.09988,-5.39717 z m 0.0586,1.1907 q -1.6982,0.08784 -1.747,2.62538 h 3.38665 q -0.0195,-2.42043 -1.63962,-2.62537 z"
       fill="#00007f"
       id="path133" />
    <path
       d="M 499.18513,76.50251 H 512.029 v 3.09385 l -8.42271,-0.0098 v 3.52329 h 6.68547 V 85.501 h -6.68547 v 6.60738 h -4.42118 z"
       fill="#00007f"
       id="path135" />
    <path
       d="m 519.98325,81.31409 q 4.53831,-0.38064 4.52855,3.33785 h -3.51353 q 0.039,-1.6787 -2.07883,-1.61037 -1.15166,0.25376 -1.16142,1.1419 v 7.95423 h -4.753 V 81.37265 h 4.77254 l -0.01,1.30781 a 3.45642,3.45642 0 0 1 2.21545,-1.36637 z"
       fill="#00007f"
       id="path137" />
    <path
       d="m 533.78361,81.17745 4.57734,0.0098 v 10.97 h -4.5871 l -0.01,-0.37087 q -0.53679,0.41967 -3.26953,0.32207 a 4.96241,4.96241 0 0 1 -4.09912,-1.77628 5.31856,5.31856 0 0 1 -1.1419,-3.74776 6.08986,6.08986 0 0 1 1.0443,-3.36713 6.33145,6.33145 0 0 1 3.8844,-2.235 q 2.723,-0.18543 3.60137,0.55631 z m -1.708,1.03454 q -1.83483,0.07807 -1.90316,2.8401 v 2.94746 q 0.1464,2.71321 1.9422,2.8401 1.75677,-0.18543 1.72749,-1.57133 v -5.14341 q 0.13667,-1.747 -1.7665,-1.91291 z"
       fill="#00007f"
       id="path139" />
    <path
       d="m 546.29567,80.9237 q 3.494,-0.55632 4.39191,2.16667 0.46847,-1.22973 3.09385,-2.31307 4.58711,-0.67342 4.93846,3.39641 v 7.91519 l -3.8356,-0.01952 0.0293,-6.51954 q 0.0586,-2.235 -1.8446,-2.1374 a 2.10237,2.10237 0 0 0 -2.38139,1.57133 v 7.15393 h -3.943 v -7.48576 q 0,-1.48349 -1.73725,-1.63965 a 1.76908,1.76908 0 0 0 -1.83484,1.17118 v 7.95423 h -4.01127 V 81.37265 h 4.03079 l -0.01,1.30781 a 4.8742,4.8742 0 0 1 3.11342,-1.75676 z"
       fill="#00007f"
       id="path141" />
    <path
       d="m 565.7079,81.02129 q 5.768,0.17568 6.04132,5.51429 h -7.72976 q -0.0878,3.54281 0.85886,4.01128 a 1.83408,1.83408 0 0 0 1.87388,-0.11712 q 0.94671,-0.57583 0.75151,-2.62539 h 4.14791 q -0.86862,3.50377 -3.65016,4.09912 a 8.96041,8.96041 0 0 1 -5.2215,-0.35136 q -2.43018,-0.95646 -3.16217,-4.37238 l -0.01,-0.76127 q 0.72222,-5.15318 6.09987,-5.39717 z m 0.0586,1.1907 q -1.6982,0.08784 -1.747,2.62538 h 3.38665 q -0.0195,-2.42043 -1.63965,-2.62537 z"
       fill="#00007f"
       id="path143" />
    <path
       d="m 572.53,80.80658 h 4.45047 l 1.93244,7.11489 2.43019,-7.11489 h 4.1479 l 2.52779,7.11489 1.93244,-7.11489 h 4.41143 l -4.41143,11.30184 h -4.08936 l -2.43018,-6.80258 -2.34236,6.80258 h -4.10887 z"
       fill="#00007f"
       id="path145" />
    <path
       d="m 595.22153,86.17447 a 5.10208,5.10208 0 0 1 2.00076,-4.0796 6.98745,6.98745 0 0 1 4.19671,-1.08334 h 0.72223 a 6.79261,6.79261 0 0 1 4.17719,1.42005 5.2271,5.2271 0 0 1 1.708,3.71361 5.03785,5.03785 0 0 1 -1.67868,4.37239 8.13558,8.13558 0 0 1 -4.23575,1.59084 h -0.75151 a 7.141,7.141 0 0 1 -4.6359,-1.67868 6.06055,6.06055 0 0 1 -1.50305,-4.25527 z m 6.41219,-3.80632 q -1.9422,0.05854 -1.991,2.53754 v 3.25978 q 0.13663,2.42041 2.03,2.5473 1.87387,-0.17568 1.83484,-2.60586 v -3.16218 q -0.0488,-2.55706 -1.87384,-2.57658 z"
       fill="#00007f"
       id="path147" />
    <path
       d="m 615.90254,81.31409 q 4.53831,-0.38064 4.52855,3.33785 h -3.51353 q 0.039,-1.6787 -2.07884,-1.61037 -1.15165,0.25376 -1.16141,1.1419 v 7.95423 h -4.753 V 81.37265 h 4.77254 l -0.01,1.30781 a 3.45637,3.45637 0 0 1 2.21545,-1.36637 z"
       fill="#00007f"
       id="path149" />
    <path
       d="m 625.94537,92.1377 h -4.753 V 81.37265 l 0.0195,-4.8311 h 4.74326 l -0.01,6.58786 4.06984,-5.11413 h 2.45947 l -3.1427,4.17719 5.973,9.97451 h -5.16294 l -3.79656,-6.08035 -0.34159,0.40991 z"
       fill="#00007f"
       id="path151" />
    <path
       d="m 520.67191,7.405 a 5.30371,5.30371 0 0 0 -2.62979,2.86355 c -0.35064,0.90582 -0.4383,2.48369 -0.4383,8.70753 v 7.59718 h -2.24993 c -3.03887,0 -4.47065,0.70128 -5.63945,2.74667 a 4.89478,4.89478 0 0 0 -0.0584,5.46412 c 1.11036,2.16228 2.57136,2.89277 5.63945,2.89277 h 2.27915 l 0.0877,12.623 c 0.11688,12.097 0.1461,12.73988 0.75972,14.58074 a 16.30965,16.30965 0 0 0 7.27575,8.82441 20.94507,20.94507 0 0 0 12.44768,1.43177 5.41391,5.41391 0 0 0 4.52909,-6.04852 4.8407,4.8407 0 0 0 -3.00965,-4.52908 c -1.43178,-0.70128 -2.36681,-0.70128 -5.49334,-0.02922 a 5.371,5.371 0 0 1 -4.99661,-1.51944 c -0.5844,-0.81815 -0.61362,-1.198 -0.70128,-13.09052 L 528.386,37.67682 h 4.03235 c 5.49334,-0.02922 6.63292,-0.526 8.00626,-3.62326 a 4.47657,4.47657 0 0 0 0.46751,-2.54214 6.23041,6.23041 0 0 0 -3.12653,-4.29532 c -1.13957,-0.5844 -1.724,-0.64284 -5.318,-0.64284 h -4.00319 l -0.0877,-8.12313 -0.0877,-8.15236 -0.84737,-1.08114 A 5.98274,5.98274 0 0 0 520.67191,7.405 Z"
       fill="#7a7777"
       id="path153" />
    <path
       d="m 446.45335,8.4277 a 4.45682,4.45682 0 0 0 -2.6298,2.74667 c -0.37985,0.935 -0.43829,4.67518 -0.43829,30.50558 0,27.46671 0.0292,29.51211 0.52595,30.44714 a 5.46792,5.46792 0 0 0 9.32115,0.5844 l 0.81816,-1.25645 V 41.94293 c 0,-16.24627 -0.0877,-29.892 -0.20454,-30.33026 A 5.997,5.997 0 0 0 448.7325,7.87252 6.66778,6.66778 0 0 0 446.45335,8.4277 Z"
       fill="#7a7777"
       id="path155" />
    <path
       d="m 564.20957,26.69014 c -6.86668,1.60709 -11.80484,5.46412 -14.084,11.04512 -1.66553,4.12 -1.84085,5.8732 -1.84085,20.07408 0,12.68144 0,13.03208 0.61362,14.28853 a 5.44059,5.44059 0 0 0 7.27576,2.396 4.87808,4.87808 0 0 0 2.60057,-3.53561 c 0.17532,-0.75972 0.32142,-6.42838 0.32142,-13.87946 0,-11.8925 0.0292,-12.65222 0.61361,-14.347 a 7.4679,7.4679 0 0 1 3.82781,-4.61675 16.051,16.051 0 0 1 7.3342,-0.4383 5.98863,5.98863 0 0 1 4.35376,3.33107 c 1.22724,2.4837 2.89277,3.68171 5.05505,3.68171 a 5.08987,5.08987 0 0 0 4.14922,-1.84085 c 2.07462,-2.36682 1.95774,-4.70441 -0.37985,-8.15236 a 17.93285,17.93285 0 0 0 -14.98982,-8.29845 20.77559,20.77559 0 0 0 -4.8505,0.29227 z"
       fill="#7a7777"
       id="path157" />
    <path
       d="m 466.90728,27.07 a 4.79762,4.79762 0 0 0 -2.51291,2.57135 c -0.49674,1.08114 -0.55518,2.19149 -0.55518,14.40541 0,10.98669 0.0877,13.61648 0.46752,15.48655 a 19.01271,19.01271 0 0 0 5.34729,10.11009 17.746,17.746 0 0 0 7.45108,4.76285 c 2.07461,0.672 2.83433,0.75971 6.3115,0.78893 3.50639,0 4.20766,-0.08766 6.28228,-0.78893 6.516,-2.16228 10.8698,-6.86668 12.7691,-13.7918 0.61361,-2.22071 0.64283,-3.00965 0.75971,-15.63265 0.11688,-14.17165 0.0584,-14.756 -1.31489,-16.36315 a 5.42989,5.42989 0 0 0 -9.29193,1.51944 c -0.37986,0.935 -0.4383,3.00965 -0.4383,14.084 0,12.24314 -0.0292,13.09052 -0.61362,14.90216 -1.198,3.94468 -4.03235,5.66866 -8.88285,5.37646 -3.65249,-0.23376 -5.52256,-1.49022 -6.98356,-4.61675 -0.5844,-1.25645 -0.61362,-1.89929 -0.75972,-15.51577 l -0.14609,-14.20087 -0.78894,-1.1688 A 5.92527,5.92527 0 0 0 466.90728,27.07 Z"
       fill="#7a7777"
       id="path159" />
    <path
       d="m 610.43546,27.04078 a 20.10233,20.10233 0 0 0 -14.43463,12.59378 c -1.34412,3.74015 -1.66554,5.75632 -1.66554,11.19122 -0.0292,7.4803 1.05192,11.83406 4.03235,16.33393 a 18.19866,18.19866 0 0 0 10.69449,7.50952 28.97352,28.97352 0 0 0 11.10356,0.02922 19.21874,19.21874 0 0 0 12.38924,-10.13931 28.48276,28.48276 0 0 0 2.68823,-11.57109 c 0.7305,-13.09051 -5.055,-23.02528 -14.93137,-25.65507 a 26.23061,26.23061 0 0 0 -9.87633,-0.2922 z m 8.503,11.22044 a 8.85033,8.85033 0 0 1 4.14923,4.06157 c 2.22071,4.35376 1.92852,14.14243 -0.526,18.14556 a 9.12351,9.12351 0 0 1 -7.94781,4.09079 c -4.909,0 -8.09392,-2.68823 -9.23349,-7.83094 -0.64284,-2.86355 -0.46752,-10.31462 0.2922,-12.4769 a 9.52086,9.52086 0 0 1 5.90242,-6.3115 11.07109,11.07109 0 0 1 7.36344,0.32142 z"
       fill="#7a7777"
       id="path161" />
  </g>
  <metadata
     id="metadata985">
    <rdf:RDF>
      <cc:Work
         rdf:about="">
        <dc:title>logo</dc:title>
      </cc:Work>
    </rdf:RDF>
  </metadata>
</svg>
