<?xml version="1.0" encoding="UTF-8" standalone="no"?>
<svg
   viewBox="0 0 134.19328 42.111485"
   version="1.1"
   id="svg22"
   sodipodi:docname="macintosh.svg"
   inkscape:version="1.1 (c68e22c387, 2021-05-23)"
   width="134.19328"
   height="42.111485"
   xmlns:inkscape="http://www.inkscape.org/namespaces/inkscape"
   xmlns:sodipodi="http://sodipodi.sourceforge.net/DTD/sodipodi-0.dtd"
   xmlns="http://www.w3.org/2000/svg"
   xmlns:svg="http://www.w3.org/2000/svg">
  <defs
     id="defs26" />
  <sodipodi:namedview
     id="namedview24"
     pagecolor="#ffffff"
     bordercolor="#666666"
     borderopacity="1.0"
     inkscape:pageshadow="2"
     inkscape:pageopacity="0.0"
     inkscape:pagecheckerboard="true"
     showgrid="false"
     inkscape:zoom="2.8178144"
     inkscape:cx="96.351271"
     inkscape:cy="25.551718"
     inkscape:window-width="1920"
     inkscape:window-height="1138"
     inkscape:window-x="-8"
     inkscape:window-y="-8"
     inkscape:window-maximized="1"
     inkscape:current-layer="svg22"
     fit-margin-top="0"
     fit-margin-left="0"
     fit-margin-right="0"
     fit-margin-bottom="0"
     inkscape:snap-global="true" />
  <rect
     style="fill:#ffffff;fill-rule:evenodd;stroke:#ffffff;stroke-width:7.67398;stroke-linecap:round;stroke-linejoin:round;stroke-miterlimit:4;stroke-dasharray:none;paint-order:stroke fill markers"
     id="rect1192"
     width="53.88533"
     height="6.3788509"
     x="71.146675"
     y="20.977942"
     inkscape:export-filename="C:\Users\BUCH\Desktop\Retrogaming\Recalbox\travail thèmes\BlueBox\macintosh\path6.png"
     inkscape:export-xdpi="357.77612"
     inkscape:export-ydpi="357.77612" />
  <path
     id="path2"
     style="stroke:#ffffff;stroke-width:5.00116;stroke-linecap:round;stroke-linejoin:round;stroke-miterlimit:4;stroke-dasharray:none;paint-order:stroke fill markers"
     d="m 122.29078,10.501789 c -0.067,0 -3.32499,1.764842 -3.32499,1.968556 0,0.475444 1.66249,2.6e-5 1.66249,1.527047 v 14.83092 c 0,1.900108 -1.66249,1.458745 -1.66249,1.900181 0,0.169373 0.16934,0.270896 0.54309,0.270896 h 4.10643 c 0.61114,0 0.8485,-0.06788 0.8485,-0.339271 0,-0.44077 -1.79013,-3.2e-5 -1.79013,-1.832457 v -7.398855 c 0,-1.866767 1.24665,-3.257267 2.94404,-3.257267 1.59471,0 2.54552,1.18712 2.54552,3.257267 v 7.738126 c 0,1.527022 -1.5277,1.018263 -1.5277,1.527048 0,0.237722 0.10198,0.305409 0.54375,0.305409 h 3.32499 c 0.88254,0 1.18842,-0.101737 1.18842,-0.373133 0,-0.373754 -1.49383,1.5e-5 -1.49383,-1.459324 v -7.704264 c 0,-2.748972 -1.22072,-4.513418 -3.73264,-4.513418 -1.35665,0 -2.43392,0.576285 -3.7919,1.73022 v -6.244289 c 0,-1.458673 -0.009,-1.934392 -0.38355,-1.933392 z m -40.417593,1.289362 c -0.610808,0 -1.153595,0.712618 -1.153261,1.731522 0,0.950221 0.576314,1.560909 1.187122,1.560909 0.712499,0 1.120054,-0.61086 1.120054,-1.595422 0,-0.984563 -0.475424,-1.697009 -1.153915,-1.697009 z M 55.469266,11.889481 51.324423,26.587557 47.03241,11.95981 h -3.631701 c -0.441102,0 -0.644683,0.101695 -0.644683,0.305409 0,0.679158 2.249873,0.08479 2.249873,1.510117 L 44.56439,28.53788 c -0.06802,2.13783 -2.148286,1.476436 -2.148286,2.121586 0,0.204048 0.237612,0.339272 0.713056,0.339272 h 3.494952 c 0.5768,0 0.882368,-0.0674 0.882368,-0.373134 0,-0.440435 -2.137867,6.8e-5 -2.137867,-2.239452 l 0.406995,-13.337083 4.311548,14.79315 c 0.169373,0.712832 0.236895,1.052328 0.576307,1.052328 0.27173,0 0.305371,-0.101081 0.543093,-0.983952 l 4.208011,-14.864131 0.543093,13.609282 v 0.406995 c 0,1.629046 -1.900178,1.018477 -1.900178,1.629285 0,0.237722 0.203244,0.30541 0.64468,0.30541 h 4.480207 c 0.441436,0 0.64468,-0.06769 0.64468,-0.30541 0,-0.407095 -0.848474,-0.203391 -1.3916,-0.610819 -0.238052,-0.169706 -0.373637,-0.712337 -0.407645,-1.493185 l -0.610818,-14.69482 c 0.03367,-1.56103 1.730868,-0.950101 1.730868,-1.56091 0,-0.271396 -0.236961,-0.373133 -0.712405,-0.373133 z m 43.542669,1.496441 c -0.236721,0 -0.984255,1.527022 -1.527048,2.375552 -0.64515,0.983896 -1.697661,2.002424 -1.697661,2.307828 0,0.271397 0.272157,0.407647 0.746267,0.407647 h 0.645333 v 9.536069 c 0,2.13783 0.746237,3.291781 2.206243,3.291781 1.120591,0 2.206421,-0.780447 2.851571,-2.239453 l 0.0332,-0.101586 c 1.22195,1.391657 2.3423,2.307828 4.0387,2.307828 2.78298,0 5.39643,-3.257986 5.39643,-7.228242 -6.6e-4,-4.209645 -2.58016,-7.263406 -5.53318,-7.263406 -2.85033,0 -5.39579,2.884311 -5.39579,7.05828 0,1.289967 0.27121,2.613915 0.88302,4.140936 l 0.0671,0.16931 c -0.33941,0.983896 -0.88177,1.628634 -1.56026,1.628634 -0.679488,0 -0.983948,-0.679147 -0.983948,-1.764733 v -9.535418 h 1.832458 c 0.5768,0 0.84785,-0.135521 0.84785,-0.576957 0,-0.475444 -0.3394,-0.576957 -0.84785,-0.576957 h -1.832458 v -3.42788 c 0,-0.271396 -0.03393,-0.509233 -0.16996,-0.509233 z M 87.23576,16.541603 c -0.06835,0 -3.190195,2.070586 -3.190195,2.273966 0,0.203714 0.237692,0.305409 0.543096,0.305409 0.916213,0 1.052328,5.34e-4 1.052328,1.256152 v 8.212845 c 0,1.119927 -0.06767,1.628634 -1.459322,1.628634 -1.153935,0 -1.357739,-0.440983 -1.357739,-1.56091 l 0.03386,-11.165354 c 4e-6,-0.474777 -0.135555,-0.678543 -0.339269,-0.678543 -0.06768,0 -3.156333,1.73098 -3.156333,1.934694 0,0.543126 1.527048,-5.2e-5 1.527048,1.697009 v 8.178984 c 0,0.780181 -1.53e-4,1.153747 -0.271546,1.42481 -0.407098,0.373086 -1.255502,0.170049 -1.255502,0.610819 0,0.271729 0.305564,0.339271 0.882365,0.339271 h 8.619843 c 0.509118,0 0.781431,-0.0674 0.781431,-0.373133 0,-0.440769 -1.018913,-0.203657 -1.527698,-0.47472 -0.407095,-0.203714 -0.508582,-0.712858 -0.508582,-1.527047 l 0.0013,-7.771337 c 0,-1.561363 1.322084,-2.884785 3.121169,-2.884785 1.391323,0 2.409416,1.051666 2.409416,2.81641 v 8.28122 c 0,1.561029 -1.560913,1.221498 -1.560913,1.56091 0,0.305404 0.305208,0.373133 0.813993,0.373133 h 3.868739 c 0.407094,0 0.610818,-0.101549 0.610818,-0.339271 0,-0.509119 -0.950181,-0.203896 -1.39095,-0.645332 -0.340412,-0.339079 -0.373783,-0.779728 -0.373783,-1.56091 v -7.635888 c 0,-2.511584 -1.289426,-4.004837 -3.495606,-4.004837 -1.493347,0 -2.511717,0.610111 -4.10642,2.001767 l -0.06773,-1.357086 c 0,-0.64515 -1.1e-4,-0.916546 -0.203824,-0.91688 z m 29.15196,0.271548 c -2.47858,0 -4.34411,1.595084 -4.34411,3.665565 0,1.356982 0.71186,2.374833 1.83246,3.155681 l 2.54551,1.764081 c 0.88287,0.611142 1.3916,1.392309 1.3916,2.376204 0,1.561362 -1.12039,2.748685 -2.34234,2.748685 -2.61294,0 -2.4093,-3.970323 -3.35886,-3.970323 -0.37375,0 -0.50988,0.509207 -0.50988,1.357737 v 2.137866 c 0,0.712833 1.05199,1.357086 3.42788,1.357086 2.68129,10e-7 4.54728,-2.035733 4.54728,-4.309594 0,-1.527689 -0.61011,-2.613108 -2.00177,-3.563328 l -2.40941,-1.629285 c -0.98423,-0.64515 -1.35774,-1.390985 -1.35774,-2.070142 0,-1.357316 0.95007,-2.239453 2.104,-2.239453 2.54526,0 2.0362,3.155681 3.0541,3.155681 0.27106,0 0.37378,-0.16917 0.37378,-0.508582 l -0.0345,-2.714823 c -1.35732,-0.577134 -1.96844,-0.712723 -2.91799,-0.713056 z m -41.153445,0.101586 c -3.190408,0 -5.871154,2.783423 -5.871154,7.330479 0,4.344676 2.341257,7.364341 5.124237,7.364341 1.866434,0 4.140282,-1.798777 4.140282,-3.9026 3e-6,-0.271729 -0.101547,-0.47537 -0.339269,-0.47537 -0.577134,0 -0.543206,2.918647 -3.122472,2.918647 -2.171838,-1e-6 -3.698776,-2.239145 -3.698776,-6.142053 0,-3.732867 1.629395,-6.24494 3.291781,-6.24494 2.036473,0 1.866487,3.461742 3.054097,3.461742 0.474777,0 0.610818,-0.407152 0.610818,-0.983953 V 18.068651 C 77.677312,17.322144 76.692614,16.91507 75.234275,16.914737 Z m -9.978882,0.102888 c -2.205512,0 -5.871154,1.900103 -5.871154,4.445695 0,0.644816 0.27126,0.847853 0.64468,0.847853 2.477576,0 1.561066,-4.581794 4.513419,-4.581794 0.746173,0 1.018466,0.373066 1.018466,1.153914 v 3.529466 l -2.98637,2.239452 c -2.239521,1.697395 -3.122472,2.817379 -3.122472,4.276385 0,1.22195 1.119886,2.544862 2.307829,2.544862 1.160936,0.0053 2.328754,-0.708165 3.936461,-2.375552 0.305405,1.527021 0.848774,2.375552 1.934693,2.375552 0.814523,0 2.477139,-1.221519 2.477139,-2.782548 6.67e-4,-0.202714 -0.100857,-0.338954 -0.270896,-0.33862 -0.576801,0 -0.54307,1.527047 -1.3916,1.527047 -0.543127,0 -0.780778,-0.508847 -0.780778,-1.289362 v -8.858177 c 0,-2.036807 -0.338936,-2.714173 -2.409417,-2.714173 z m 40.781607,0.64403 c 2.00247,0 3.49496,2.307609 3.49496,6.651285 -3.4e-4,3.937581 -1.22175,6.211078 -3.18955,6.211078 -1.83342,0 -3.39467,-2.54557 -3.39467,-6.821897 0,-3.936248 1.0868,-6.040466 3.08926,-6.040466 z m -40.476846,5.667984 0.0033,4.751754 c -0.339745,0.508452 -1.427435,1.933392 -2.649052,1.933393 -0.780848,0 -1.323224,-0.610481 -1.323224,-1.764082 0,-1.425331 1.186042,-2.986949 3.969022,-4.921065 z"
     inkscape:export-filename="C:\Users\BUCH\Desktop\Retrogaming\Recalbox\travail thèmes\BlueBox\macintosh\path6.png"
     inkscape:export-xdpi="357.77612"
     inkscape:export-ydpi="357.77612" />
  <path
     d="m 4.5650092,36.941986 c 2.2998676,3.252422 4.9078068,5.137193 6.3738138,5.167867 3.017368,0.06735 5.643978,-1.972458 7.807481,-1.917446 a 0.20271376,0.20271376 0 0 0 0.06935,0.004 h 0.05335 c 0.02234,0.004 0.04501,0 0.06735,-0.004 2.165503,-0.05501 4.789446,1.986795 7.811481,1.917112 1.468008,-0.03234 4.073947,-1.915111 6.373814,-5.1672 H 4.5650092"
     fill="#009ddd"
     id="path6"
     inkscape:export-filename="C:\Users\BUCH\Desktop\Retrogaming\Recalbox\travail thèmes\BlueBox\macintosh\path6.png"
     inkscape:export-xdpi="357.77612"
     inkscape:export-ydpi="357.77612"
     style="stroke-width:0.333411" />
  <path
     d="m 1.7656923,31.817463 a 25.645291,25.645291 0 0 0 2.7973164,5.124523 H 33.119643 a 25.69797,25.69797 0 0 0 2.797318,-5.124523 H 1.7660257"
     fill="#944d85"
     id="path8"
     inkscape:export-filename="C:\Users\BUCH\Desktop\Retrogaming\Recalbox\travail thèmes\BlueBox\macintosh\path6.png"
     inkscape:export-xdpi="357.77612"
     inkscape:export-ydpi="357.77612"
     style="stroke-width:0.333411" />
  <path
     d="M 0.22800172,26.181487 C 0.51740227,28.18862 1.0635291,30.081726 1.7670259,31.817463 H 35.918294 c 0.116361,-0.2874 0.228387,-0.578801 0.336412,-0.874203 -2.248856,-0.705164 -4.098287,-2.461572 -5.097852,-4.762107 H 0.22833513"
     fill="#c45152"
     id="path10"
     inkscape:export-filename="C:\Users\BUCH\Desktop\Retrogaming\Recalbox\travail thèmes\BlueBox\macintosh\path6.png"
     inkscape:export-xdpi="357.77612"
     inkscape:export-ydpi="357.77612"
     style="stroke-width:0.333411" />
  <path
     d="M 2.0367552,14.908868 C 1.1292111,16.353537 0.42971523,18.195631 0.14264856,20.544844 H 30.503035 c 0.424432,-2.388222 1.727068,-4.361013 3.52182,-5.63631 H 2.0367552"
     fill="#f2bd2f"
     id="path12"
     inkscape:export-filename="C:\Users\BUCH\Desktop\Retrogaming\Recalbox\travail thèmes\BlueBox\macintosh\path6.png"
     inkscape:export-xdpi="357.77612"
     inkscape:export-ydpi="357.77612"
     style="stroke-width:0.333411" />
  <path
     d="m 0.14264856,20.544844 c -0.10402417,0.847864 -0.15336897,1.760409 -0.14069936,2.744971 a 22.448548,22.448548 0 0 0 0.22638593,2.893339 H 31.157854 c -0.515787,-1.185942 -0.80352,-2.512584 -0.80352,-3.920911 0,-0.590471 0.05101,-1.163604 0.148701,-1.717399 H 0.14264856"
     fill="#e19433"
     id="path14"
     inkscape:export-filename="C:\Users\BUCH\Desktop\Retrogaming\Recalbox\travail thèmes\BlueBox\macintosh\path6.png"
     inkscape:export-xdpi="357.77612"
     inkscape:export-ydpi="357.77612"
     style="stroke-width:0.333411" />
  <path
     d="M 18.868665,11.605767 H 18.81532 C 16.752174,11.571092 12.953625,9.4826073 10.255998,9.7616721 8.9123525,9.900371 4.6223558,10.790578 2.0367552,14.908868 H 34.024188 a 9.066773,9.066773 0 0 1 1.007567,-0.617477 C 32.609524,10.476838 28.667942,9.8880348 27.428321,9.7596717 24.730694,9.4826073 20.932145,11.573426 18.868665,11.605767"
     fill="#76b845"
     id="path16"
     inkscape:export-filename="C:\Users\BUCH\Desktop\Retrogaming\Recalbox\travail thèmes\BlueBox\macintosh\path6.png"
     inkscape:export-xdpi="357.77612"
     inkscape:export-ydpi="357.77612"
     style="stroke-width:0.333411" />
  <path
     d="m 26.164027,0.02574371 c -0.210049,-0.17737454 -4.041272,0.52778928 -6.418825,3.18073899 -2.375551,2.6529495 -2.226517,6.6915544 -2.018468,6.8669283 0.210048,0.177375 4.100285,-0.4341006 6.418824,-3.1807387 2.316205,-2.7449711 2.226517,-6.69355498 2.018469,-6.86692859"
     fill="#76b845"
     id="path18"
     inkscape:export-filename="C:\Users\BUCH\Desktop\Retrogaming\Recalbox\travail thèmes\BlueBox\macintosh\path6.png"
     inkscape:export-xdpi="357.77612"
     inkscape:export-ydpi="357.77612"
     style="stroke-width:0.333411" />
  <g
     id="g845"
     transform="matrix(0.33516711,0,0,0.33516711,-0.51199638,-0.0973419)">
    <path
       d="m 137.296,45.136 -1.222,40.002 c 0,6.717 6.412,5.396 6.412,6.717 0,0.917 -0.916,1.119 -2.646,1.119 h -10.483 c -1.426,0 -2.138,-0.406 -2.138,-1.018 0,-1.935 6.24,0.05 6.444,-6.362 l 1.324,-44.277 c 0,-4.275 -6.748,-2.493 -6.748,-4.53 0,-0.611 0.611,-0.916 1.934,-0.916 h 10.892 l 12.873,43.872 12.432,-44.083 8.895,0.209 c 1.426,0 2.138,0.305 2.138,1.119 0,1.832 -5.09,0 -5.191,4.682 l 1.832,44.074 c 0.102,2.342 0.508,3.969 1.222,4.478 1.629,1.222 4.174,0.611 4.174,1.832 0,0.713 -0.61,0.916 -1.934,0.916 h -13.437 c -1.324,0 -1.935,-0.203 -1.935,-0.916 0,-1.832 5.701,0 5.701,-4.886 v -1.221 l -1.629,-40.818 -12.621,44.582 c -0.713,2.648 -0.814,2.951 -1.629,2.951 -1.018,0 -1.222,-1.018 -1.73,-3.156 z m 97.921,9.058 v 6.515 c 0,1.73 -0.408,2.951 -1.832,2.951 -3.562,0 -3.053,-10.382 -9.161,-10.382 -4.986,0 -9.873,7.533 -9.873,18.729 0,11.706 4.581,18.423 11.095,18.423 7.736,0 7.634,-8.754 9.365,-8.754 0.713,0 1.018,0.611 1.018,1.426 0,6.31 -6.82,11.705 -12.418,11.705 -8.347,0 -15.37,-9.058 -15.37,-22.089 0,-13.638 8.041,-21.985 17.61,-21.985 4.374,0.001 7.327,1.222 9.566,3.461 z m 10.346,-18.829 c 2.035,0 3.461,2.137 3.461,5.09 0,2.953 -1.222,4.785 -3.359,4.785 -1.832,0 -3.562,-1.832 -3.562,-4.682 -0.001,-3.056 1.628,-5.193 3.46,-5.193 z m 16.694,16.999 0.205,4.07 c 4.783,-4.174 7.836,-6.004 12.315,-6.004 6.617,0 10.485,4.478 10.485,12.011 v 22.902 c 0,2.343 0.1,3.665 1.121,4.682 1.322,1.324 4.171,0.408 4.171,1.935 0,0.713 -0.61,1.018 -1.831,1.018 H 277.12 c -1.526,0 -2.443,-0.203 -2.443,-1.119 0,-1.018 4.682,0 4.682,-4.682 V 62.34 c 0,-5.293 -3.053,-8.447 -7.226,-8.447 -5.396,0 -9.362,3.969 -9.362,8.652 l -0.003,23.309 c 0,2.442 0.305,3.969 1.526,4.58 1.526,0.813 4.581,0.102 4.581,1.424 0,0.917 -0.816,1.119 -2.343,1.119 h -25.854 c -1.73,0 -2.646,-0.203 -2.646,-1.018 0,-1.322 2.545,-0.713 3.766,-1.832 0.814,-0.813 0.814,-1.934 0.814,-4.274 V 61.322 c 0,-5.09 -4.58,-3.461 -4.58,-5.09 0,-0.611 9.263,-5.802 9.466,-5.802 0.611,0 1.018,0.611 1.018,2.035 l -0.102,33.488 c 0,3.359 0.611,4.682 4.072,4.682 4.174,0 4.377,-1.527 4.377,-4.886 V 61.116 c 0,-3.766 -0.408,-3.766 -3.156,-3.766 -0.916,0 -1.629,-0.306 -1.629,-0.917 0,-0.61 9.363,-6.82 9.568,-6.82 0.611,10e-4 0.611,0.816 0.611,2.751 z m 95.578,0.202 0.103,8.142 c 0,1.018 -0.308,1.526 -1.121,1.526 -3.053,0 -1.526,-9.465 -9.16,-9.465 -3.461,0 -6.312,2.646 -6.312,6.717 0,2.037 1.121,4.275 4.073,6.21 l 7.226,4.885 c 4.174,2.85 6.004,6.107 6.004,10.689 0,6.82 -5.596,12.926 -13.638,12.926 -7.126,0 -10.282,-1.934 -10.282,-4.072 v -6.411 c 0,-2.545 0.408,-4.073 1.529,-4.073 2.848,0 2.238,11.909 10.075,11.909 3.665,0 7.025,-3.562 7.025,-8.245 0,-2.951 -1.526,-5.293 -4.174,-7.126 l -7.634,-5.291 c -3.361,-2.342 -5.496,-5.396 -5.496,-9.466 0,-6.21 5.596,-10.993 13.03,-10.993 2.848,0.001 4.681,0.407 8.752,2.138 z"
       id="path2-5" />
    <path
       d="m 367.937,37.297 v 18.729 c 4.073,-3.461 7.305,-5.191 11.374,-5.191 7.534,0 11.195,5.293 11.195,13.538 V 87.48 c 0,4.377 4.481,3.256 4.481,4.377 0,0.814 -0.917,1.119 -3.564,1.119 h -9.974 c -1.325,0 -1.63,-0.203 -1.63,-0.916 0,-1.526 4.581,0 4.581,-4.58 V 64.272 c 0,-6.209 -2.851,-9.771 -7.634,-9.771 -5.091,0 -8.831,4.172 -8.831,9.771 v 22.19 c 0,5.496 5.37,4.174 5.37,5.496 0,0.814 -0.713,1.018 -2.546,1.018 h -12.315 c -1.121,0 -1.63,-0.305 -1.63,-0.813 0,-1.324 4.986,0 4.986,-5.699 V 41.982 c 0,-4.58 -4.986,-3.154 -4.986,-4.58 0,-0.611 9.773,-5.904 9.974,-5.904 1.124,-0.003 1.149,1.424 1.149,5.799 z m -158.473,47.74 c -1.73,0 -1.629,4.58 -4.174,4.58 -1.629,0 -2.342,-1.526 -2.342,-3.867 V 59.182 c 0,-6.109 -1.018,-8.142 -7.228,-8.142 -6.615,0 -17.609,5.699 -17.609,13.334 0,1.934 0.814,2.543 1.934,2.543 7.431,0 4.683,-13.741 13.538,-13.741 2.238,0 3.054,1.119 3.054,3.461 v 10.586 l -8.958,6.717 c -6.717,5.091 -9.365,8.449 -9.365,12.825 0,3.665 3.359,7.634 6.922,7.634 3.482,0.016 6.986,-2.125 11.808,-7.126 0.916,4.58 2.545,7.126 5.802,7.126 2.443,0 7.43,-3.665 7.43,-8.347 0.002,-0.608 -0.302,-1.016 -0.812,-1.015 z m -20.765,4.986 c -2.342,0 -3.969,-1.831 -3.969,-5.291 0,-4.275 3.558,-8.958 11.905,-14.759 l 0.009,14.251 c -1.019,1.525 -4.281,5.799 -7.945,5.799 z M 318.441,50.327 c -8.549,0 -16.183,8.652 -16.183,21.171 0,3.869 0.813,7.839 2.648,12.419 l 0.202,0.508 c -1.018,2.951 -2.645,4.886 -4.68,4.886 -2.038,0 -2.951,-2.037 -2.951,-5.293 V 55.417 h 5.496 c 1.73,0 2.543,-0.406 2.543,-1.73 0,-1.426 -1.018,-1.73 -2.543,-1.73 h -5.496 V 41.675 c 0,-0.814 -0.103,-1.527 -0.511,-1.527 -0.71,0 -2.951,4.581 -4.579,7.126 -1.935,2.951 -5.091,6.006 -5.091,6.922 0,0.814 0.816,1.222 2.238,1.222 h 1.935 V 84.02 c 0,6.412 2.238,9.873 6.617,9.873 3.361,0 6.617,-2.342 8.552,-6.718 l 0.1,-0.305 c 3.665,4.174 7.025,6.922 12.113,6.922 8.347,0 16.186,-9.771 16.186,-21.679 -0.002,-12.626 -7.739,-21.786 -16.596,-21.786 z m 0.512,41.223 c -5.499,0 -10.181,-7.634 -10.181,-20.46 0,-11.806 3.259,-18.118 9.265,-18.118 6.006,0 10.483,6.922 10.483,19.95 -10e-4,11.81 -3.665,18.628 -9.567,18.628 z"
       id="path4" />
  </g>
</svg>
