<?xml version="1.0" encoding="UTF-8" standalone="no"?>
<svg
   id="Layer_1"
   data-name="Layer 1"
   viewBox="0 0 160.65581 114.00001"
   version="1.1"
   sodipodi:docname="model3.svg"
   width="160.65581"
   height="114.00001"
   inkscape:version="1.1 (c68e22c387, 2021-05-23)"
   xmlns:inkscape="http://www.inkscape.org/namespaces/inkscape"
   xmlns:sodipodi="http://sodipodi.sourceforge.net/DTD/sodipodi-0.dtd"
   xmlns:xlink="http://www.w3.org/1999/xlink"
   xmlns="http://www.w3.org/2000/svg"
   xmlns:svg="http://www.w3.org/2000/svg">
  <sodipodi:namedview
     id="namedview51"
     pagecolor="#ffffff"
     bordercolor="#666666"
     borderopacity="1.0"
     inkscape:pageshadow="2"
     inkscape:pageopacity="0.0"
     inkscape:pagecheckerboard="0"
     showgrid="false"
     fit-margin-top="0"
     fit-margin-left="0"
     fit-margin-right="0"
     fit-margin-bottom="0"
     inkscape:zoom="1.113"
     inkscape:cx="80.413297"
     inkscape:cy="56.603774"
     inkscape:window-width="1920"
     inkscape:window-height="1138"
     inkscape:window-x="-8"
     inkscape:window-y="-8"
     inkscape:window-maximized="1"
     inkscape:current-layer="Layer_1" />
  <defs
     id="defs18">
    <linearGradient
       id="linear-gradient"
       x1="500"
       y1="3.5"
       x2="500"
       y2="110.5"
       gradientUnits="userSpaceOnUse">
      <stop
         offset="0"
         stop-color="#ea194e"
         id="stop2" />
      <stop
         offset="1"
         stop-color="#f7ed18"
         id="stop4" />
    </linearGradient>
    <linearGradient
       id="linear-gradient-2"
       x1="427.51001"
       y1="33.950001"
       x2="572.47998"
       y2="33.950001"
       gradientTransform="matrix(1,0,0,-1,-419.7055,116.21)"
       gradientUnits="userSpaceOnUse">
      <stop
         offset="0"
         stop-color="#236ebc"
         id="stop7" />
      <stop
         offset="1"
         stop-color="#fff"
         id="stop9" />
    </linearGradient>
    <linearGradient
       id="linear-gradient-3"
       x1="475.54001"
       y1="26.629999"
       x2="475.54001"
       y2="63.939999"
       gradientTransform="matrix(1,0,0,-1,-419.7055,116.21)"
       gradientUnits="userSpaceOnUse">
      <stop
         offset="0"
         stop-color="#eb2f48"
         id="stop12" />
      <stop
         offset="1"
         stop-color="#f3b327"
         id="stop14" />
    </linearGradient>
    <linearGradient
       id="linear-gradient-4"
       x1="509.76999"
       y1="19.709999"
       x2="509.76999"
       y2="74.339996"
       gradientTransform="matrix(1,0,0,-1,-419.7055,116.21)"
       xlink:href="#linear-gradient" />
    <linearGradient
       inkscape:collect="always"
       xlink:href="#linear-gradient"
       id="linearGradient868"
       gradientUnits="userSpaceOnUse"
       x1="500"
       y1="3.5"
       x2="500"
       y2="110.5"
       gradientTransform="translate(-419.7055)" />
  </defs>
  <text
     font-size="0.56px"
     fill="#ff0000"
     stroke="#ffffff"
     stroke-linecap="round"
     stroke-linejoin="round"
     stroke-width="7"
     font-family="ArialMT, Arial"
     style="isolation:isolate"
     id="text20"
     x="94.314499"
     y="96.410004">I don’t like bugs!</text>
  <path
     d="m 35.884496,110.5 a 3.5,3.5 0 0 1 -1.4,-6.71 l 5.4,-2.36 a 111.79,111.79 0 0 1 22.22,-6.94 c -0.15,-0.33 -0.3,-0.68 -0.43,-1 a 8.47,8.47 0 0 1 -1.53,-2 212.33,212.33 0 0 0 -22.57,7.51 c -7.89,3.11 -19.3,8.08 -22.18,9.82 a 5.15,5.15 0 0 1 -2.66,0.72 5.64,5.64 0 0 1 -5.15,-3 c -1.56,-3.37 -3.89,-13.48 -4.12,-22.29 v 0 c 0,-0.94 0.05,-8.07 1,-10.1 a 8.09,8.09 0 0 1 4.49,-4.58 178.26,178.26 0 0 1 42,-11.89 c 0.84,-1 1.63,-1.93 2.35,-2.77 a 12.86,12.86 0 0 1 -7.07,-6.95 l -0.17,0.7 a 3.52,3.52 0 0 1 -2.47,2.51 3.65,3.65 0 0 1 -0.93,0.12 3.48,3.48 0 0 1 -2.46,-1 l -1.53,-1.52 a 18.58,18.58 0 0 1 -5.23,-13.15 18.84,18.84 0 0 1 1.05,-6.27 24.62,24.62 0 0 1 7.9,-11.7 9.87,9.87 0 0 1 6.09,-7.22 15.35,15.35 0 0 1 5.91,-1.23 13.63,13.63 0 0 1 3,0.33 c 1.63,-3.18 4.87,-5.16 9.44,-5.7 a 30.56,30.56 0 0 1 3.56,-0.23 c 3.57,0 6.37,0.81 8.34,2.42 a 7.79,7.79 0 0 1 1,1 c 4.84,0.52 8.57,3.09 10.37,7.17 a 22.93,22.93 0 0 1 8.77,6.81 14.53,14.53 0 0 1 2.820004,8.86 20.63,20.63 0 0 1 -0.89,5.81 l -0.69,2.33 c 0,0 0,0.1 -0.05,0.15 a 14.08,14.08 0 0 1 9.23,9.2 13.84,13.84 0 0 1 -0.44,8.72 c 1.33,0.12 2.65,0.23 4,0.36 12.66,1.21 21.46,3 30.37,6.21 11,4 14.64,6.84 13.86,11 -0.9,4.86 -7.11,5 -11.23,5 h -0.14 c -7.21,0.1 -16.17,0.64 -25,1.5 -0.07,0.46 -0.15,0.91 -0.25,1.35 a 17.8,17.8 0 0 1 -6.85,10 24.64,24.64 0 0 1 -5.12,3.09 57,57 0 0 1 12.55,7.47 l 2.78,2.19 a 3.5,3.5 0 0 1 -2.17,6.25 z m 33.56,-56.5 a 5.31,5.31 0 0 1 0.37,1 15.2,15.2 0 0 1 2.69,-1.82 7.8,7.8 0 0 1 2.62,-5 c -0.64,-1.13 -1.32,-2.26 -2,-3.38 a 8.27,8.27 0 0 1 -5.58,2.11 10.26,10.26 0 0 1 -2,-0.22 9.81,9.81 0 0 1 -4.78,-2.5 l -0.26,1.89 c 0,0.07 0,0.14 0,0.21 0,0.07 0,0.22 0,0.33 l -0.06,1.73 a 6.48,6.48 0 0 1 2.86,-0.68 5.92,5.92 0 0 1 1.26,0.13 6.07,6.07 0 0 1 4.13,3.36 8.81,8.81 0 0 1 0.78,2.56 z"
     fill="url(#linear-gradient)"
     id="path22"
     style="fill:url(#linearGradient868)" />
  <path
     d="m 70.354496,7 c 2.74,0 4.8,0.54 6.12,1.63 a 4.37,4.37 0 0 1 1.28,1.73 h 0.16 c 4.78,0 8.2,2.3 9.4,6.29 3.28,1.59 6.36,3.17 8.75,6.39 a 11.13,11.13 0 0 1 2.13,6.78 17,17 0 0 1 -0.75,4.81 l -0.69,2.37 -4.73,-6.21 0.08,-0.52 a 2.38,2.38 0 0 0 0,-0.46 c 0,-0.05 0,-0.09 0,-0.13 l -0.9,1.09 -0.91,-0.77 c -0.38,-0.28 -0.88,-0.62 -1.39,-1 a 35.72,35.72 0 0 1 0.86,6.81 11.41,11.41 0 0 1 -1.8,6.53 15.79,15.79 0 0 1 5.95,-1.65 h 0.68 c 5.500004,0 9.850004,2.93 11.340004,7.65 1,3.1 -0.16,7 -2.45,10.77 2.93,0.2 5.91,0.44 9,0.73 12.34,1.19 20.9,2.93 29.52,6 12.12,4.34 11.74,6.36 11.6,7.12 -0.31,1.7 -3.23,2.08 -7.83,2.14 h -0.15 c -7.12,0.1 -17.29,0.65 -28.31,1.83 a 12.73,12.73 0 0 1 -0.28,3.74 14.3,14.3 0 0 1 -5.61,8 24.37,24.37 0 0 1 -13.000004,4.83 c 0.06,0.7 0.11,1.29 0.14,1.73 7.350004,1 15.440004,5.66 20.290004,9.49 l 2.78,2.2 H 35.884496 l 5.4,-2.36 a 111.65,111.65 0 0 1 27.41,-7.79 c -0.17,-0.08 -0.33,-0.17 -0.49,-0.26 a 6.47,6.47 0 0 1 -2.58,-2.87 9.57,9.57 0 0 1 -0.91,-2.34 4.81,4.81 0 0 1 -1.68,-1.92 3.21,3.21 0 0 1 0,-2.38 217,217 0 0 0 -26.74,8.71 c -7.24,2.85 -19.38,8.06 -22.71,10.08 a 1.62,1.62 0 0 1 -0.85,0.21 2.23,2.23 0 0 1 -2,-1 c -1.2,-2.59 -3.57,-12 -3.8,-20.91 0,-0.26 0.15,-7.41 0.67,-8.55 a 4.71,4.71 0 0 1 2.69,-2.83 177,177 0 0 1 42.47,-11.86 74,74 0 0 1 7.78,-8.51 4.43,4.43 0 0 1 2.66,-1.18 2.94,2.94 0 0 1 0.51,0.05 2.62,2.62 0 0 1 1.75,1.5 v 0 a 6,6 0 0 1 0.47,1.63 3.89,3.89 0 0 0 0.33,1.19 c 0.36,0.63 0.26,1.54 -0.41,3.78 1.58,-0.13 3.16,-0.25 4.75,-0.35 1.78,-1.68 3.78,-3.18 5.26,-3.18 h 0.33 a 3.17,3.17 0 0 1 0.88,0.31 3.4,3.4 0 0 1 -0.47,-0.58 3.35,3.35 0 0 1 -0.63,-1.75 c -0.06,-2.06 2.18,-3.82 3.74,-4.54 a 110.18,110.18 0 0 0 -6.86,-11.14 7.3,7.3 0 0 1 -0.36,1.43 c -0.94,2.51 -2.72,3.87 -5,3.87 a 6.22,6.22 0 0 1 -1.32,-0.15 6.15,6.15 0 0 1 -4.08,-2.87 5.86,5.86 0 0 1 -0.63,-4.68 c 0.07,-0.2 0.16,-0.4 0.24,-0.61 l -0.28,0.12 -0.76,0.33 -0.62,-0.59 c 0,0.26 0.06,0.52 0.12,0.79 l 0.1,0.48 -2.75,4.42 -1.02,-0.62 a 3.38,3.38 0 0 0 0.63,1.29 l 0.39,0.43 -0.54,3.84 -1.07,-0.56 a 3.74,3.74 0 0 0 0.68,1.13 l 0.33,0.37 -0.19,5.57 -1.43,-0.29 c -3.22,-0.64 -6.68,-4.36 -7.08,-10.23 0,-0.37 0,-0.74 0,-1.09 a 18,18 0 0 1 1.69,-7.46 9.25,9.25 0 0 0 -0.76,0.59 l -0.73,0.63 c 0,0 -1.14,-0.82 -1.31,-0.93 0.08,0.32 0.17,0.66 0.3,1 l 0.19,0.51 -3,5.78 -1.2,-0.92 a 12.14,12.14 0 0 0 0.64,1.36 l 0.22,0.42 -1.6,6.28 -1.52,-1.52 a 15.16,15.16 0 0 1 -4.2,-10.67 15.61,15.61 0 0 1 0.85,-5.11 21.33,21.33 0 0 1 7.91,-11 6.38,6.38 0 0 1 4.11,-5.84 12,12 0 0 1 4.58,-1 10.71,10.71 0 0 1 5.29,1.42 c 0.2,-2.56 1.3,-6.1 7.54,-6.84 a 27.58,27.58 0 0 1 3.14,-0.2 m 7.59,26.29 -0.84,-0.35 a 6.36,6.36 0 0 0 -0.83,-0.26 58.86,58.86 0 0 1 9.27,11.11 l 0.29,-0.18 -1.05,-3.45 V 39.9 q 0,-0.34 0.06,-0.75 l -0.52,0.47 -2.36,-2.79 0.36,-0.72 a 4.24,4.24 0 0 0 0.32,-1.06 l -1.47,1.13 -2.48,-2.6 0.1,-0.61 a 3.52,3.52 0 0 0 0.06,-0.66 1,1 0 0 0 0,-0.17 l -0.33,0.41 -0.58,0.7 m 18.29,25.48 a 5.92,5.92 0 0 0 1.69,-3.49 4.44,4.44 0 0 0 -1.71,-3.68 4.3,4.3 0 0 0 -1.63,-0.42 7.54,7.54 0 0 0 -0.94,-0.06 10.37,10.37 0 0 0 -2.63,0.41 c 0,0 -0.45,0.12 -1.1,0.35 0.7,1.56 1.31,3.06 1.85,4.47 0.28,0.72 0.54,1.49 0.8,2.29 l 3.67,0.13 m -16.31,-1.44 a 3.38,3.38 0 0 1 -0.93,-0.11 4.58,4.58 0 0 1 -1,-0.43 2.39,2.39 0 0 1 0.28,0.35 3.82,3.82 0 0 1 0.5,1.47 c 1.68,0 3.37,-0.07 5.08,-0.08 -0.23,-0.7 -0.49,-1.43 -0.78,-2.17 l -0.14,0.09 a 5.71,5.71 0 0 1 -3,0.88 m 17.5,26.81 h 0.11 C 100.4145,83.82 106.0545,82.59 106.8545,80 a 3.32,3.32 0 0 0 0.1,-1.74 c -3.35,0.47 -6.72,1 -10.060004,1.58 0.2,1.47 0.38,2.9 0.54,4.27 m -11.69,-1.11 c 0,-0.32 0,-0.65 0,-1 l -2.72,0.55 2.18,0.34 0.53,0.08 m -12.28,13.21 q 5.76,-0.69 11.82,-0.94 c 0,-0.44 0.06,-1 0.09,-1.69 -0.9,0 -1.79,0 -2.65,0 a 19.19,19.19 0 0 0 -5.85,0.58 8.88,8.88 0 0 0 -3.34,2 0.61,0.61 0 0 1 -0.07,0.14 m -3.1,-96.27 a 33,33 0 0 0 -4,0.25 c -4.74,0.56 -8.41,2.44 -10.77,5.39 -0.41,0 -0.83,0 -1.25,0 a 19,19 0 0 0 -7.25,1.49 13.62,13.62 0 0 0 -7.79,8.47 28.33,28.33 0 0 0 -8.09,12.49 22.33,22.33 0 0 0 -1.25,7.43 22.07,22.07 0 0 0 6.26,15.63 l 1.53,1.53 a 7,7 0 0 0 6.8,1.78 7.32,7.32 0 0 0 1.45,-0.58 c 0.26,0.3 0.54,0.59 0.82,0.87 a 181,181 0 0 0 -39.19,11.51 11.65,11.65 0 0 0 -6.33,6.36 c -1.32000003,2.88 -1.31000003,10.3 -1.29000003,11.64 v 0 c 0.26,9.62 2.79000003,20.11 4.45000003,23.68 a 9.08,9.08 0 0 0 8.32,5.06 8.62,8.62 0 0 0 4.47,-1.22 c 1.64,-1 6.47,-3.2 11.71,-5.45 a 7.1,7.1 0 0 0 0.11,2.1 7,7 0 0 0 6.86,5.57 H 121.6445 a 7,7 0 0 0 4.34,-12.49 l -2.78,-2.2 a 61.17,61.17 0 0 0 -7.49,-5 l 0.06,-0.05 a 21.57,21.57 0 0 0 7.8,-10.79 c 7.88,-0.72 15.73,-1.16 22.16,-1.25 h 0.14 c 4.29,0 13.2,-0.18 14.62,-7.86 1.6,-8.64 -9.06,-12.46 -16.12,-15 -9.2,-3.29 -18.23,-5.15 -31.18,-6.39 a 15.66,15.66 0 0 0 -0.54,-6.65 17.52,17.52 0 0 0 -8.36,-10.15 23.47,23.47 0 0 0 0.91,-6.35 18.19,18.19 0 0 0 -3.51,-10.95 25.19,25.19 0 0 0 -9.000004,-7.34 15.7,15.7 0 0 0 -11.3,-7.87 c -0.16,-0.15 -0.34,-0.31 -0.52,-0.45 -2.58,-2.13 -6.13,-3.21 -10.52,-3.21 z"
     fill="#ffffff"
     id="path24" />
  <path
     d="m 12.734496,106 a 2.23,2.23 0 0 1 -2,-1 c -1.2,-2.59 -3.57,-12 -3.8,-20.91 0,-0.26 0.15,-7.41 0.67,-8.55 a 4.71,4.71 0 0 1 2.69,-2.83 c 22.65,-9.55 47,-14.19 74.59,-14.19 8.78,0 17.800004,0.46 27.560004,1.39 12.34,1.19 20.9,2.93 29.52,6 12.12,4.34 11.74,6.36 11.6,7.12 -0.31,1.7 -3.23,2.08 -7.83,2.14 h -0.15 a 329.83,329.83 0 0 0 -52.000004,5.26 c -27,5.14 -41.46,9 -57.34,15.25 -7.24,2.85 -19.38,8.06 -22.71,10.08 a 1.62,1.62 0 0 1 -0.85,0.21 z"
     id="path26" />
  <path
     d="m 7.804496,84.06 c 0,-0.54 0.19,-7.31 0.59,-8.18 a 3.89,3.89 0 0 1 2.24,-2.4 c 33.17,-14 67,-16.07 101.750004,-12.74 11.41,1.1 20.16,2.7 29.32,6 2.81,1 11.41,4.27 11.06,6.18 -0.26,1.4 -5.36,1.44 -7.17,1.46 a 329.79,329.79 0 0 0 -52.110004,5.28 c -28.39,5.39 -42.32,9.34 -57.49,15.27 -6.92,2.72 -19.32,8 -22.84,10.14 a 1.5,1.5 0 0 1 -1.63,-0.43 c -1.11,-2.4 -3.48,-11.71 -3.72,-20.58 z"
     fill="url(#linear-gradient-2)"
     id="path28"
     style="fill:url(#linear-gradient-2)" />
  <text
     font-size="0.56px"
     fill="#ff0000"
     font-family="ArialMT, Arial"
     style="isolation:isolate"
     id="text30"
     x="94.314499"
     y="96.410004">I don’t like bugs!</text>
  <path
     d="m 67.214496,7.2 c -6.24,0.74 -7.34,4.28 -7.54,6.84 a 10.86,10.86 0 0 0 -9.89,-0.48 6.38,6.38 0 0 0 -4.11,5.84 21.33,21.33 0 0 0 -7.91,11 15.61,15.61 0 0 0 -0.85,5.11 15.16,15.16 0 0 0 4.2,10.67 l 1.52,1.52 1.6,-6.28 -0.22,-0.42 a 12.14,12.14 0 0 1 -0.64,-1.36 l 1.2,0.92 3,-5.78 -0.19,-0.51 c -0.13,-0.38 -0.22,-0.72 -0.3,-1 0.17,0.11 1.31,0.93 1.31,0.93 l 0.73,-0.63 a 9.25,9.25 0 0 1 0.76,-0.59 18,18 0 0 0 -1.72,7.51 c 0,0.35 0,0.72 0,1.09 0.4,5.87 3.86,9.59 7.08,10.23 l 1.42,0.28 0.19,-5.57 -0.33,-0.37 a 3.74,3.74 0 0 1 -0.68,-1.13 l 1.07,0.59 0.54,-3.84 -0.39,-0.43 a 3.38,3.38 0 0 1 -0.57,-1.34 l 1.05,0.62 2.75,-4.4 -0.1,-0.48 c -0.06,-0.27 -0.08,-0.53 -0.12,-0.79 l 0.62,0.59 0.76,-0.33 0.28,-0.12 c -0.08,0.2 -0.17,0.41 -0.24,0.61 a 5.86,5.86 0 0 0 0.63,4.68 6.15,6.15 0 0 0 4.08,2.87 c 2.89,0.62 5.19,-0.74 6.3,-3.72 a 7.3,7.3 0 0 0 0.36,-1.43 c 4.62,6.57 10.12,16.11 11.63,22.89 1,4.48 1.28,11.35 1.28,17.83 0,7.18 -0.35,13.88 -0.5,16.42 -16.38,0.66 -31.19,3.81 -44,9.4 l -5.4,2.36 H 121.5945 l -2.78,-2.2 c -4.85,-3.83 -12.94,-8.49 -20.290004,-9.49 -0.39,-5.06 -2.32,-27.29 -6.77,-39 a 68.84,68.84 0 0 0 -5.54,-11.49 l 1.45,-2 a 11.39,11.39 0 0 0 2.09,-7 35.72,35.72 0 0 0 -0.86,-6.81 c 0.51,0.33 1,0.67 1.39,1 l 0.94,0.69 0.9,-1.09 c 0,0 0,0.08 0,0.13 a 2.38,2.38 0 0 1 0,0.46 l -0.08,0.52 4.71,6.28 0.69,-2.32 a 17,17 0 0 0 0.75,-4.81 11.13,11.13 0 0 0 -2.13,-6.87 c -2.39,-3.22 -5.47,-4.8 -8.75,-6.39 -1.21,-4 -4.69,-6.34 -9.56,-6.29 a 4.37,4.37 0 0 0 -1.28,-1.73 c -1.79,-1.47 -4.91,-2 -9.26,-1.43 z m 11.31,25.39 0.33,-0.41 a 1,1 0 0 1 0,0.17 3.52,3.52 0 0 1 -0.06,0.66 l -0.1,0.61 2.48,2.6 1.47,-1.13 a 4.24,4.24 0 0 1 -0.32,1.06 l -0.36,0.72 2.36,2.79 0.52,-0.47 q 0,0.41 -0.06,0.75 v 0.22 c 0,0 1.42,4.67 1.43,4.69 a 59,59 0 0 0 -9.92,-12.17 6.36,6.36 0 0 1 0.83,0.26 l 0.84,0.35 z"
     id="path32" />
  <path
     d="m 68.964496,31.19 c 4.26,4.4 14.51,19.57 16.73,29.53 2.45,11 0.74,35.69 0.74,35.69 l 5.63,1.73 5.32,-1.73 c 0,0 -1.85,-26.7 -6.77,-39.62 a 59.39,59.39 0 0 0 -17.84,-25.6 c -3.08,-3.17 -3.56,-1.79 -3.81,0 z"
     fill="#a28f48"
     id="path34" />
  <path
     d="m 76.834496,11.62 c 3.32,-0.24 8.24,0.62 9.47,5.91 3.57,1.72 6.49,3.18 8.77,6.25 2.83,3.81 1.82,8.39 1.19,10.5 l -2.97,-3.86 a 6.51,6.51 0 0 0 -0.62,-3.43 l -1.65,2.01 a 44.21,44.21 0 0 0 -3.89,-2.5 c 1.39,6.74 2.5,11.54 -0.46,15.6 l -0.64,-2.1 c 0.09,-1.48 0.46,-4 0.46,-4 l -2,1.85 -1,-1.2 a 8.7,8.7 0 0 0 0.52,-4.16 l -2.64,2 -1.29,-1.35 a 8.37,8.37 0 0 0 -0.5,-3.81 l -2,2.4 c -2,-0.8 -5,-1 -8.8,-0.25 a 51.14,51.14 0 0 0 -7.82,2.52 l -2.16,-2 a 13.53,13.53 0 0 0 0.18,4 l -1.85,3 -2.24,-1.31 c 0,0 0,3.07 1.32,4.48 l -0.21,1.5 -1.82,-1 a 7.31,7.31 0 0 0 1.48,4.3 l -0.12,3.63 c -2.77,-0.55 -5.75,-4 -6.09,-9.1 a 17.42,17.42 0 0 1 3.38,-11.08 9.17,9.17 0 0 0 -4.49,2.22 l -2.59,-1.85 a 7.46,7.46 0 0 0 0.5,3.94 l -2.1,4 -2.4,-1.85 c 0,0 -0.61,1.42 1.17,4.74 l -0.95,3.73 a 14.29,14.29 0 0 1 -3.05,-14.5 20.41,20.41 0 0 1 8,-10.83 5.13,5.13 0 0 1 3.37,-5.32 9.86,9.86 0 0 1 10.58,1.6 c 0.12,-2.22 -0.74,-7 6.52,-7.88 7.87,-0.93 9.35,1.73 9.48,3.2 z"
     fill="#16a252"
     id="path36" />
  <path
     d="M 118.0645,105.77 H 41.774496 c 14.38,-6.28 29.77,-8.87 44.66,-9.36 h 11 c 7.000004,0.62 15.380004,5.17 20.680004,9.36 z"
     fill="#bfb07b"
     id="path38" />
  <path
     d="m 69.414496,31.53 c 1.48,0.64 3.05,4.61 1.94,7.57 -0.65,1.74 -2,3.56 -4.89,2.95 a 4.81,4.81 0 0 1 -3.78,-6 c 0.92,-3.14 4.43,-5.53 6.73,-4.52 z"
     fill="#eb1758"
     id="path40" />
  <path
     d="m 34.144496,90.68 a 1.11,1.11 0 0 1 -1.2,-1 c -0.34,-3.19 0.2,-4.1 1.54,-4.91 a 2.15,2.15 0 0 0 0.93,-0.92 c 2,-3.58 20.07,-27.46 25.14,-31.52 a 3.89,3.89 0 0 1 3.17,-1.13 2.62,2.62 0 0 1 1.75,1.5 v 0 a 6,6 0 0 1 0.47,1.63 3.89,3.89 0 0 0 0.33,1.19 c 0.48,0.86 0.14,2.22 -1.36,6.78 -0.41,1.24 -0.8,2.42 -1,3.27 l -0.53,2 c 1.17,-1.53 2.38,-3.11 3.19,-4.13 0.67,-0.84 6.57,-8.14 9.65,-7.61 a 2.93,2.93 0 0 1 2,1.34 c 1.3,2.1 0.16,6 -0.85,9.46 -0.31,1 -0.59,2 -0.75,2.76 v 0.08 l -0.28,0.7 a 43.92,43.92 0 0 0 -1.78,5.16 l 0.16,-0.18 a 2.36,2.36 0 0 1 1.62,-1 1.77,1.77 0 0 1 1.31,0.5 c 0.51,0.45 1.49,1.77 -0.31,4.1 -1.1,1.42 -4.58,4.5 -6.32,3.43 a 2.54,2.54 0 0 0 -0.47,0.09 3,3 0 0 1 -3.46,-1.13 c -1.6,-2.18 -0.84,-5.1 1.12,-9.72 0.55,-1.28 1,-2.56 1.5,-3.74 -0.74,1 -1.54,2.06 -2.38,3.26 -4,5.81 -6.48,9.32 -9.51,10 -2,0.48 -3.6,-1.86 -3.9,-2.33 l -0.23,-0.35 0.06,-0.4 c 0,-0.22 0.76,-5.27 1.62,-8.73 0.4,-1.6 0.84,-3.31 1.32,-5 a 244.64,244.64 0 0 0 -16.95,24 l -1,1.63 -0.41,0.12 a 21.53,21.53 0 0 1 -4.14,0.77 z"
     fill="#010001"
     id="path42" />
  <path
     d="m 64.474496,53.21 c 0.43,0.86 0.32,1.94 0.83,2.86 0.51,0.92 -1.78,6.54 -2.49,9.23 -0.83,3.14 -2.06,7.54 -2.06,7.54 0,0 4.6,-6.13 6.67,-8.74 2.5,-3.14 6.82,-7.51 8.59,-7.2 3.69,0.64 0.32,8.53 -0.47,12.22 -0.91,2.31 -3.11,7.55 -1.76,7.7 1.67,0.2 2,-2.36 3.12,-1.39 1.88,1.68 -4.25,6.46 -5.32,5.74 -1.07,-0.72 -2.31,1 -3.6,-0.74 -1.14,-1.54 -0.85,-3.7 1.24,-8.63 2.09,-4.93 3.59,-9.67 3.59,-9.67 a 80,80 0 0 0 -6.4,8.12 c -3.94,5.66 -6.28,9 -8.86,9.6 -1.33,0.32 -2.71,-1.85 -2.71,-1.85 0,0 0.74,-5.16 1.6,-8.61 a 99.36,99.36 0 0 1 3,-10.09 c -9.1,10 -17.47,23.38 -21.41,29.53 a 19.91,19.91 0 0 1 -3.94,0.74 c -0.49,-4.67 1.11,-2.95 2.34,-5.17 2,-3.58 19.94,-27.25 24.86,-31.19 1.73,-1.39 2.68,-1.11 3.23,0"
     fill="url(#linear-gradient-3)"
     id="path44"
     style="fill:url(#linear-gradient-3)" />
  <path
     d="m 71.354496,97.61 a 4.49,4.49 0 0 1 -0.51,0 7,7 0 0 1 -2.64,-1 6.47,6.47 0 0 1 -2.58,-2.87 9.57,9.57 0 0 1 -0.91,-2.34 4.81,4.81 0 0 1 -1.68,-1.92 c -0.74,-1.62 0.49,-3.67 1.09,-4.18 3.69,-3.17 10,-3.51 12.6,-3.51 0.55,0 0.94,0 1.18,0 a 20.29,20.29 0 0 1 2.83,0.36 c 0.87,0.15 2.17,0.38 4.48,0.73 a 83.49,83.49 0 0 0 11,1.3 c 0.48,0 0.92,0 1.34,-0.06 2.870004,-0.28 8.510004,-1.51 9.310004,-4.1 a 2.73,2.73 0 0 0 -0.1,-2.19 2.22,2.22 0 0 0 -1.23,-0.69 11.45,11.45 0 0 0 -3.25,-0.47 9.18,9.18 0 0 0 -1.5,0.11 h -0.05 l -1.660004,0.23 c -6.74,0.92 -9.53,1.3 -11.71,1.3 a 18.33,18.33 0 0 1 -2.05,-0.11 6.82,6.82 0 0 1 -4.56,-3.65 c -1.05,-1.92 -1.37,-4.7 0.06,-6.28 a 3.58,3.58 0 0 1 1.72,-1 h 0.06 c 4.93,-1.86 15.18,-7.24 15.35,-12 a 4.44,4.44 0 0 0 -1.71,-3.68 4.3,4.3 0 0 0 -1.63,-0.42 7.54,7.54 0 0 0 -0.94,-0.06 10.37,10.37 0 0 0 -2.63,0.41 16.73,16.73 0 0 0 -4.61,2.09 c -0.08,0.06 -0.85,0.58 -1.62,1.23 l -0.66,0.56 -0.11,0.12 a 5.33,5.33 0 0 1 -0.71,0.64 4.49,4.49 0 0 1 -0.41,0.28 5.71,5.71 0 0 1 -3,0.88 3.38,3.38 0 0 1 -0.93,-0.11 4.14,4.14 0 0 1 -2.38,-1.69 3.35,3.35 0 0 1 -0.63,-1.75 c -0.08,-2.49 3.23,-4.56 4.61,-4.86 v 0 a 0.87,0.87 0 0 0 0.26,-0.16 1.68,1.68 0 0 0 0.23,-0.28 v 0 c 1.65,-3.68 8,-7.48 12.82,-7.68 h 0.68 c 5.500004,0 9.850004,2.93 11.340004,7.65 1.64,5.18 -2.6,12.52 -8.290004,18 a 27.12,27.12 0 0 1 5.160004,-0.52 c 5.82,0 10.61,2.13 12.81,5.68 a 12.72,12.72 0 0 1 1.39,9.25 14.3,14.3 0 0 1 -5.61,8 c -6.29,5 -14.050004,5 -17.780004,5 h -0.23 c -1.4,0 -3.07,-0.07 -4.83,-0.13 -1.95,-0.08 -4,-0.16 -5.84,-0.16 a 19.19,19.19 0 0 0 -5.85,0.58 8.88,8.88 0 0 0 -3.34,2 2.54,2.54 0 0 1 -1.21,1.27 2.12,2.12 0 0 1 -0.94,0.2 z"
     id="path46" />
  <path
     d="M 92.784496,68.93 C 102.4445,65.19 111.5345,67.05 114.6745,72.11 a 11.68,11.68 0 0 1 1.25,8.4 13.22,13.22 0 0 1 -5.21,7.37 c -5.87,4.64 -13.150004,4.77 -17.100004,4.79 -5,0 -13.89,-0.85 -17.14,0.37 -0.43,0.17 -3.43,1.38 -4,2.55 a 1.5,1.5 0 0 1 -0.69,0.81 1.45,1.45 0 0 1 -0.86,0.07 6,6 0 0 1 -2.22,-0.85 v 0 a 5.43,5.43 0 0 1 -2.13,-2.41 7.38,7.38 0 0 1 -0.81,-2.16 0.59,0.59 0 0 0 -0.1,-0.34 0.67,0.67 0 0 0 -0.39,-0.28 c -0.52,-0.17 -1.11,-1.12 -1.26,-1.44 -0.49,-1.06 0.49,-2.61 0.8,-2.87 3.82,-3.28 11.14,-3.31 13,-3.21 1.86,0.1 1.75,0.25 7.2,1.08 6.64,1 10,1.51 12.6,1.25 0.84,-0.08 9.070004,-1 10.270004,-4.88 a 3.85,3.85 0 0 0 -0.27,-3.17 3.18,3.18 0 0 0 -1.8,-1.1 12.17,12.17 0 0 0 -5.28,-0.39 c -10.240004,1.41 -12.240004,1.72 -15.110004,1.41 a 5.77,5.77 0 0 1 -3.71,-3.11 c -0.81,-1.47 -1.18,-3.79 -0.09,-5 a 2.8,2.8 0 0 1 1.33,-0.75 c 3.07,-1.15 15.87,-6.94 16.08,-13 a 5.45,5.45 0 0 0 -2.27,-4.67 5.19,5.19 0 0 0 -2,-0.56 10,10 0 0 0 -4,0.37 17.77,17.77 0 0 0 -5,2.25 c -0.3,0.2 -1,0.71 -1.71,1.29 -0.39,0.33 -0.59,0.5 -0.73,0.64 a 5.22,5.22 0 0 1 -0.71,0.65 l -0.32,0.22 a 4.13,4.13 0 0 1 -3,0.65 3,3 0 0 1 -1.74,-1.23 2.26,2.26 0 0 1 -0.44,-1.18 c -0.06,-1.78 2.73,-3.52 3.73,-3.73 a 1.83,1.83 0 0 0 0.77,-0.42 2.17,2.17 0 0 0 0.51,-0.69 c 1.46,-3.27 7.43,-6.84 11.85,-7 5.58,-0.23 9.570004,2.59 10.910004,6.86 1.8,5.67 -4.49,14.87 -12.090004,20.19 z"
     fill="url(#linear-gradient-4)"
     id="path48"
     style="fill:url(#linear-gradient-4)" />
</svg>
