<?xml version="1.0" encoding="UTF-8" standalone="no"?>
<svg
   viewBox="0 0 433.77234 114.00006"
   version="1.1"
   id="svg302"
   sodipodi:docname="moonlight.svg"
   width="433.77234"
   height="114.00006"
   inkscape:version="1.1 (c68e22c387, 2021-05-23)"
   xmlns:inkscape="http://www.inkscape.org/namespaces/inkscape"
   xmlns:sodipodi="http://sodipodi.sourceforge.net/DTD/sodipodi-0.dtd"
   xmlns="http://www.w3.org/2000/svg"
   xmlns:svg="http://www.w3.org/2000/svg"
   xmlns:rdf="http://www.w3.org/1999/02/22-rdf-syntax-ns#"
   xmlns:cc="http://creativecommons.org/ns#"
   xmlns:dc="http://purl.org/dc/elements/1.1/">
  <defs
     id="defs306" />
  <sodipodi:namedview
     id="namedview304"
     pagecolor="#ffffff"
     bordercolor="#666666"
     borderopacity="1.0"
     inkscape:pageshadow="2"
     inkscape:pageopacity="0.0"
     inkscape:pagecheckerboard="0"
     showgrid="false"
     fit-margin-top="0"
     fit-margin-left="0"
     fit-margin-right="0"
     fit-margin-bottom="0"
     inkscape:zoom="1.113"
     inkscape:cx="108.26595"
     inkscape:cy="26.954178"
     inkscape:window-width="1920"
     inkscape:window-height="1138"
     inkscape:window-x="-8"
     inkscape:window-y="-8"
     inkscape:window-maximized="1"
     inkscape:current-layer="svg302" />
  <title
     id="title2">logo</title>
  <g
     id="Layer_2"
     data-name="Layer 2"
     transform="translate(-283.11234)">
    <rect
       x="449.85635"
       y="39.484798"
       width="83"
       height="41"
       fill="#ffffff"
       id="rect4" />
    <rect
       x="660.85632"
       y="62.484798"
       width="29"
       height="17"
       fill="#ffffff"
       id="rect6" />
    <rect
       x="415.85635"
       y="65.484802"
       width="271"
       height="13"
       fill="#ffffff"
       id="rect8" />
    <rect
       x="309.85635"
       y="25.4848"
       width="63"
       height="60"
       fill="#ffffff"
       id="rect10" />
  </g>
  <path
     d="m 336.7694,83.1391 c -0.0977,0 -0.19531,-0.0039 -0.291,-0.01172 -0.0977,0.0078 -0.19531,0.01172 -0.29395,0.01172 h -0.24414 a 3.50049,3.50049 0 0 1 -3.5,-3.5 v -1.48731 a 3.49863,3.49863 0 0 1 3.001,-3.46386 5.831,5.831 0 0 1 0.92578,-0.07227 4.31842,4.31842 0 0 1 2.3916,0.69141 c 0.0781,0.05176 0.1543,0.10547 0.22754,0.16308 a 3.861,3.861 0 0 1 1.47852,3.06641 3.73416,3.73416 0 0 1 -0.0215,0.40625 3.49973,3.49973 0 0 1 -3.42968,4.19629 z"
     fill="#deddde"
     id="path13" />
  <path
     d="m 336.36706,78.116 a 0.82487,0.82487 0 0 1 0.46362,0.11224 0.36512,0.36512 0 0 1 0.13422,0.30872 0.37363,0.37363 0 0 1 -0.29285,0.36114 v 0.011 c 0.13422,0.02319 0.21967,0.14276 0.244,0.36114 a 1.20593,1.20593 0 0 0 0.0977,0.36927 h -0.24409 a 1.17781,1.17781 0 0 1 -0.1098,-0.379 0.27267,0.27267 0 0 0 -0.3172,-0.25989 h -0.15863 v 0.63886 h -0.244 v -1.4881 a 2.74734,2.74734 0 0 1 0.42706,-0.0354 m -0.183,0.69793 h 0.17083 c 0.19519,0 0.35382,-0.06958 0.35382,-0.25378 0,-0.13055 -0.0976,-0.25989 -0.35382,-0.25989 a 0.86861,0.86861 0 0 0 -0.17083,0.01221 V 78.814 m 0.183,-7.69793 a 9.51684,9.51684 0 0 0 -1.38513,0.10126 7.01619,7.01619 0 0 0 -6.04193,6.93414 v 1.4881 a 7,7 0 0 0 7,7 h 0.244 c 0.0984,0 0.19659,-0.002 0.294,-0.0061 q 0.1453,0.006 0.29163,0.0061 h 0.24408 a 7.00011,7.00011 0 0 0 6.9472,-7.85862 q 0.004,-0.12162 0.004,-0.24392 a 7.331,7.331 0 0 0 -2.85614,-5.84928 q -0.201,-0.15526 -0.413,-0.29565 a 7.80533,7.80533 0 0 0 -4.32867,-1.276 z"
     fill="#ffffff"
     id="path15" />
  <path
     d="m 336.42766,83.70062 a 4.83646,4.83646 0 1 1 4.81836,-4.83789 4.833,4.833 0 0 1 -4.81836,4.83789 z"
     fill="#deddde"
     id="path17" />
  <path
     d="m 336.42803,77.528 a 1.33653,1.33653 0 1 1 -1.31774,1.33484 1.32069,1.32069 0 0 1 1.31774,-1.33484 m 0.0107,2.46668 a 1.07443,1.07443 0 1 0 -0.0107,-6e-5 l 0.0107,6e-5 m -0.0107,-9.46668 a 8.33642,8.33642 0 1 0 8.31775,8.33484 8.33573,8.33573 0 0 0 -8.31775,-8.33484 z"
     fill="#ffffff"
     id="path19" />
  <path
     d="m 317.29382,91.51312 a 3.49989,3.49989 0 0 0 -4.82813,0 h -2.07031 a 3.49943,3.49943 0 0 1 -3.28906,-4.69629 L 310.8065,76.645 a 3.50012,3.50012 0 0 1 3.28908,-2.30371 h 1.55566 a 3.50011,3.50011 0 0 1 3.28711,2.29785 l 3.71973,10.17186 a 3.50082,3.50082 0 0 1 -3.28711,4.70215 z"
     fill="#deddde"
     id="path21" />
  <path
     d="m 315.65166,77.84113 3.719,10.17211 H 317.294 l -0.5979,-1.80212 h -3.61523 l -0.61493,1.80212 h -2.07056 L 314.096,77.84113 h 1.55566 m -2.01319,6.69476 h 2.52808 l -1.24207,-3.69458 -1.286,3.69458 m 2.01318,-13.69476 h -1.55567 a 6.99994,6.99994 0 0 0 -6.57818,4.60684 l -3.70063,10.17212 a 7,7 0 0 0 6.57819,9.39315 h 2.07056 a 7.00635,7.00635 0 0 1 4.82806,0 h 2.07667 a 7,7 0 0 0 6.5744,-9.40365 l -3.719,-10.17209 a 7,7 0 0 0 -6.5744,-4.59637 z"
     fill="#ffffff"
     id="path23" />
  <path
     d="m 291.46666,91.5141 a 3.50048,3.50048 0 0 1 -3.5,-3.5 v -5.00879 a 3.5021,3.5021 0 0 1 -2.6582,-3.39844 v -1.76465 a 3.50049,3.50049 0 0 1 3.5,-3.5 h 7.30371 a 3.50049,3.50049 0 0 1 3.5,3.5 v 1.76465 a 3.50118,3.50118 0 0 1 -2.65723,3.39746 v 5.00977 a 3.50048,3.50048 0 0 1 -3.5,3.5 z"
     fill="#deddde"
     id="path25" />
  <path
     d="m 296.11254,77.84174 v 1.76556 h -2.65741 v 8.40717 H 291.4663 V 79.6073 h -2.65741 v -1.76556 h 7.30365 m 0,-7 h -7.30365 a 7,7 0 0 0 -7,7 v 1.76556 a 6.98685,6.98685 0 0 0 2.65741,5.49054 v 2.91663 a 7,7 0 0 0 7,7 h 1.98883 a 7,7 0 0 0 7,-7 v -2.91666 a 6.988,6.988 0 0 0 2.65741,-5.49051 v -1.76556 a 7,7 0 0 0 -7,-7 z"
     fill="#ffffff"
     id="path27" />
  <path
     d="m 282.21666,91.60687 a 9.90168,9.90168 0 0 1 -3.24023,-0.501 7.67343,7.67343 0 0 1 -2.94727,-1.86329 3.49872,3.49872 0 0 1 0.003,-4.95214 l 0.18652,-0.18653 a 6.40023,6.40023 0 0 1 -0.82422,-3.25488 6.29528,6.29528 0 0 1 2.13672,-4.85352 7.15826,7.15826 0 0 1 4.91016,-1.72851 9.00636,9.00636 0 0 1 3.03418,0.4834 7.36056,7.36056 0 0 1 2.70117,1.708 3.50081,3.50081 0 0 1 0.20604,4.7686 6.52494,6.52494 0 0 1 1.09765,3.793 6.23461,6.23461 0 0 1 -2.39062,5.01758 7.721,7.721 0 0 1 -4.87303,1.56929 z"
     fill="#deddde"
     id="path29" />
  <path
     d="m 282.44097,77.76709 a 5.50114,5.50114 0 0 1 1.8534,0.2782 3.87157,3.87157 0 0 1 1.42755,0.90777 l -1.25549,1.24158 a 2.219,2.219 0 0 0 -0.94928,-0.55511 4.29438,4.29438 0 0 0 -1.13593,-0.1435 1.68314,1.68314 0 0 0 -1.164,0.3631 1.17628,1.17628 0 0 0 -0.40753,0.91876 0.99544,0.99544 0 0 0 0.3136,0.71741 1.57107,1.57107 0 0 0 0.92968,0.40753 l 0.61255,0.08417 0.58808,0.08667 a 5.1712,5.1712 0 0 1 1.14813,0.28674 2.3814,2.3814 0 0 1 0.79309,0.50025 2.82473,2.82473 0 0 1 0.78577,2.1596 2.72115,2.72115 0 0 1 -1.05176,2.26459 4.278,4.278 0 0 1 -2.71234,0.82233 6.41319,6.41319 0 0 1 -2.09247,-0.30744 4.21825,4.21825 0 0 1 -1.62036,-1.03222 l 1.28723,-1.28363 a 2.6274,2.6274 0 0 0 1.07739,0.65643 4.42124,4.42124 0 0 0 1.37872,0.20258 c 1.19819,0 1.79969,-0.42341 1.79969,-1.26282 a 1.17759,1.17759 0 0 0 -0.2721,-0.82727 1.592,1.592 0 0 0 -0.94433,-0.39289 l -0.57227,-0.08783 -0.65765,-0.083 a 3.45963,3.45963 0 0 1 -1.97663,-0.84308 2.69363,2.69363 0 0 1 -0.72961,-1.99738 2.84038,2.84038 0 0 1 0.95654,-2.23236 3.75747,3.75747 0 0 1 2.59033,-0.84918 m 0,-7 a 10.6437,10.6437 0 0 0 -7.23614,2.61316 9.82758,9.82758 0 0 0 -3.31073,7.46838 10.43889,10.43889 0 0 0 0.36426,2.75717 7.00006,7.00006 0 0 0 1.29553,8.11145 11.175,11.175 0 0 0 4.295,2.70249 13.3758,13.3758 0 0 0 4.36756,0.68744 11.27615,11.27615 0 0 0 7.01251,-2.29889 9.68441,9.68441 0 0 0 3.75159,-7.788 10.61157,10.61157 0 0 0 -0.65845,-3.7355 6.99988,6.99988 0 0 0 -1.6936,-7.32422 10.8381,10.8381 0 0 0 -3.99268,-2.512 12.4333,12.4333 0 0 0 -4.19489,-0.6814 z"
     fill="#ffffff"
     id="path31" />
  <path
     d="m 300.29675,91.51312 a 3.50048,3.50048 0 0 1 -3.5,-3.5 V 77.84125 a 3.50048,3.50048 0 0 1 3.5,-3.5 h 6.70508 a 3.50049,3.50049 0 0 1 3.5,3.5 v 1.76562 a 3.48012,3.48012 0 0 1 -0.71094,2.11426 c 0.008,0.09375 0.0117,0.18945 0.0117,0.28516 v 1.76562 a 3.526,3.526 0 0 1 -0.0176,0.35352 3.48491,3.48491 0 0 1 0.7168,2.12207 v 1.76562 a 3.50049,3.50049 0 0 1 -3.5,3.5 z"
     fill="#deddde"
     id="path33" />
  <path
     d="m 307.00219,77.84113 v 1.76556 h -4.71209 v 2.39984 h 4.013 v 1.76556 h -4.013 v 2.47565 h 4.71209 v 1.7655 h -6.70581 V 77.84113 h 6.70581 m 0,-7 h -6.70581 a 7,7 0 0 0 -7,7 v 10.17211 a 7,7 0 0 0 7,7 h 6.70581 a 7,7 0 0 0 7,-7 v -1.7655 a 6.97055,6.97055 0 0 0 -0.69909,-3.053 V 82.6598 a 6.97068,6.97068 0 0 0 0.69909,-3.05307 v -1.7656 a 7,7 0 0 0 -7,-7 z"
     fill="#ffffff"
     id="path35" />
  <path
     d="m 330.11999,91.51312 a 3.50014,3.50014 0 0 0 -5.22168,0 h -1.98926 a 3.50049,3.50049 0 0 1 -3.5,-3.5 V 77.84125 a 3.50049,3.50049 0 0 1 3.5,-3.5 h 1.96387 a 3.49967,3.49967 0 0 0 5.2832,0 h 1.96485 a 3.50049,3.50049 0 0 1 3.5,3.5 v 10.17187 a 3.50049,3.50049 0 0 1 -3.5,3.5 z"
     fill="#deddde"
     id="path37" />
  <path
     d="m 332.12097,77.84113 v 10.17211 h -2.001 V 82.0871 l -1.9278,3.858 h -1.34216 l -1.95221,-3.858 v 5.92614 h -1.98883 V 77.84113 h 1.96442 l 2.6477,5.499 2.6355,-5.499 h 1.96436 m 0,-7 h -1.96429 a 7.00183,7.00183 0 0 1 -5.2832,0 h -1.96442 a 7,7 0 0 0 -7,7 v 10.17211 a 7,7 0 0 0 7,7 h 1.98883 a 7.026,7.026 0 0 1 5.22217,0 h 2.001 a 7,7 0 0 0 7,-7 V 77.84113 a 7,7 0 0 0 -7,-7 z"
     fill="#ffffff"
     id="path39" />
  <path
     d="m 264.67272,92.1225 a 6.41984,6.41984 0 0 1 -6.17187,-4.64356 l -7.77539,-5.98535 A 6.36409,6.36409 0 0 1 246.90417,80.14594 6.43055,6.43055 0 1 1 257.02624,73.31 l 7.56348,5.82129 1.46582,-1.24219 a 7.51515,7.51515 0 1 1 6.86426,10.57617 v 0 a 7.523,7.523 0 0 1 -0.8252,-0.0459 l -2.00488,0.74512 q -0.15235,0.2373 -0.32715,0.46289 a 6.39122,6.39122 0 0 1 -5.08985,2.49512 z"
     fill="#deddde"
     id="path41" />
  <path
     d="m 250.8471,72.13434 a 2.924,2.924 0 0 1 2.92017,3.08374 l 9.9931,7.69153 a 2.87249,2.87249 0 0 1 0.54572,-0.12268 2.96591,2.96591 0 0 1 0.37475,-0.02384 2.894,2.894 0 0 1 0.8772,0.13559 l 3.47485,-2.945 c 0.003,-0.01641 0.008,-0.0335 0.0126,-0.05065 a 4.01557,4.01557 0 1 1 2.82745,4.923 q -0.0439,-0.01189 -0.0876,-0.02527 l -4.26074,1.58266 a 2.92965,2.92965 0 0 1 -5.77429,-0.82007 l -10.0152,-7.709 a 3.11654,3.11654 0 0 1 -0.522,0.11646 2.98614,2.98614 0 0 1 -0.37414,0.02362 2.93006,2.93006 0 1 1 0.008,-5.86011 m -0.0119,5.18793 q 0.0988,0 0.19836,-0.0085 l -1.15057,-0.885 a 1.66475,1.66475 0 0 1 2.03754,-2.63324 l 1.14685,0.88294 a 2.25944,2.25944 0 1 0 -2.23218,2.6438 m 22.08411,6.30352 a 2.67489,2.67489 0 1 0 -0.69678,-0.09289 2.68041,2.68041 0 0 0 0.69678,0.09289 m -8.32392,3.69309 a 1.65839,1.65839 0 0 1 -1.01782,-0.34824 l -1.12024,-0.8631 a 2.26013,2.26013 0 1 0 2.22412,-2.67175 c -0.0749,0 -0.14978,0.0037 -0.22424,0.011 l 1.15814,0.89172 a 1.66422,1.66422 0 0 1 -1.02,2.98032 m -13.7478,-22.18454 h -6e-5 a 9.93021,9.93021 0 0 0 -6.0827,17.78173 9.98659,9.98659 0 0 0 4.63132,1.97137 l 6.16907,4.7485 a 9.929,9.929 0 0 0 16.71061,2.45013 l 0.33588,-0.12479 q 0.15371,0.0044 0.30767,0.0043 A 11.01459,11.01459 0 1 0 264.11007,74.3454 L 259.97143,71.16 a 9.91623,9.91623 0 0 0 -9.1239,-6.02566 z"
     fill="#ffffff"
     id="path43" />
  <path
     d="m 272.92666,86.45746 a 5.51038,5.51038 0 1 1 5.31641,-4.07031 5.51,5.51 0 0 1 -5.31641,4.07031 z"
     fill="#deddde"
     id="path45" />
  <path
     d="m 272.92541,78.93771 a 2.00947,2.00947 0 1 1 -1.93835,1.48594 2.00793,2.00793 0 0 1 1.93835,-1.48594 m 0,-7 a 9.01194,9.01194 0 1 0 2.351,0.31247 9.02525,9.02525 0 0 0 -2.351,-0.31247 z"
     fill="#ffffff"
     id="path47" />
  <path
     d="m 193.35778,91.95355 a 4.39418,4.39418 0 1 1 4.4292,-4.39453 4.36669,4.36669 0 0 1 -4.4292,4.39453 z"
     fill="#deddde"
     id="path49" />
  <path
     d="m 193.35778,86.66547 a 0.89467,0.89467 0 1 1 -0.932,0.89337 0.88131,0.88131 0 0 1 0.932,-0.89337 m -0.006,1.579 h 0.006 v 0.0031 a 0.68822,0.68822 0 1 0 -0.6651,-0.6886 0.65315,0.65315 0 0 0 0.65912,0.68558 m 0.006,-8.579 a 7.894,7.894 0 1 0 7.929,7.89337 7.92172,7.92172 0 0 0 -7.929,-7.89337 z"
     fill="#ffffff"
     id="path51" />
  <path
     d="m 193.3695,91.53558 c -0.0552,0.0029 -0.37939,0.0039 -0.37939,0.0039 a 3.50017,3.50017 0 0 1 -3.5,-3.5 V 87.0766 a 3.50017,3.50017 0 0 1 3.5,-3.5 h 0.37207 a 3.76715,3.76715 0 0 1 3.90967,3.791 c 0,0.08887 -0.003,0.17774 -0.009,0.26563 a 3.50047,3.50047 0 0 1 -3.47657,3.90625 c 0,0 -0.36283,-9.7e-4 -0.41699,-0.0039 z"
     fill="#deddde"
     id="path53" />
  <path
     d="m 193.36224,87.07623 c 0.25738,0 0.40973,0.071 0.40973,0.29163 a 0.22873,0.22873 0 0 1 -0.24036,0.24988 l 0.255,0.42132 h -0.253 l -0.23047,-0.40478 h -0.0994 v 0.40478 h -0.21381 v -0.96283 h 0.37232 m -0.15851,0.39527 h 0.18793 c 0.0957,0 0.15252,-0.01905 0.15252,-0.1261 0,-0.09943 -0.11047,-0.10541 -0.19165,-0.10541 h -0.1488 v 0.23151 m 0.15851,-7.39527 h -0.37232 a 7,7 0 0 0 -7,7 v 0.96283 a 7,7 0 0 0 7,7 h 0.21381 c 0.0555,0 0.11044,-6.4e-4 0.16559,-0.0019 0.0546,0.0013 0.1095,0.0019 0.16431,0.0019 h 0.253 a 7,7 0 0 0 6.98309,-7.48626 q 0.002,-0.0922 0.002,-0.18494 A 7.2732,7.2732 0 0 0 193.362,80.07623 Z"
     fill="#ffffff"
     id="path55" />
  <path
     d="m 188.79577,91.63422 a 3.50024,3.50024 0 0 1 -2.98437,-1.6709 3.49972,3.49972 0 0 1 -2.98389,1.6709 h -2.8252 a 3.50061,3.50061 0 0 1 -3.25585,-4.78516 l 4.00146,-10.13965 a 3.5007,3.5007 0 0 1 3.25488,-2.21484 l 3.8291,-10e-4 a 3.49907,3.49907 0 0 1 3.25245,2.207 l 4.03173,10.14063 a 3.5005,3.5005 0 0 1 -3.25244,4.793 z"
     fill="#deddde"
     id="path57" />
  <path
     d="m 187.83166,77.99347 4.03217,10.14044 h -3.06794 l -0.59942,-1.79224 h -4.73554 l -0.63327,1.79224 h -2.82556 l 4.00156,-10.13965 3.828,-7.9e-4 m -3.75854,6.60095 h 3.52673 l -1.7359,-4.75018 -1.79083,4.75018 m 3.75854,-13.60095 h -0.001 l -3.828,7.9e-4 a 7,7 0 0 0 -6.50982,4.43039 L 173.4913,85.5643 a 7,7 0 0 0 6.51129,9.56961 h 2.82507 a 6.98619,6.98619 0 0 0 2.98407,-0.66769 6.98571,6.98571 0 0 0 2.98413,0.66769 h 3.06794 a 7,7 0 0 0 6.50463,-9.58642 L 194.3363,75.407 a 7.00009,7.00009 0 0 0 -6.50464,-4.41357 z"
     fill="#ffffff"
     id="path59" />
  <path
     d="m 151.56237,91.63715 a 3.49951,3.49951 0 0 1 -3.33105,-2.42579 l -3.27246,-10.14648 a 3.5,3.5 0 0 1 3.33105,-4.57422 h 3.09326 a 3.49606,3.49606 0 0 1 2.3418,0.89844 3.49793,3.49793 0 0 1 2.3418,-0.89844 h 2.9248 a 3.50061,3.50061 0 0 1 3.32862,4.582 l -3.29883,10.14652 a 3.49943,3.49943 0 0 1 -3.32862,2.418 z"
     fill="#deddde"
     id="path61" />
  <path
     d="m 158.99151,77.99072 h 0.005 m -0.005,0 -3.29858,10.14661 h -4.13027 l -3.27289,-10.14661 3.0935,3.7e-4 2.29169,8.04144 2.39166,-8.04181 h 2.92493 m 0.005,-7 h -2.92994 a 6.98869,6.98869 0 0 0 -2.34213,0.4029 6.99,6.99 0 0 0 -2.34039,-0.40253 l -3.09351,-3.7e-4 a 7,7 0 0 0 -6.66281,9.1489 l 3.27289,10.1466 a 7,7 0 0 0 6.662,4.85111 h 4.13031 a 6.99994,6.99994 0 0 0 6.657,-4.83582 l 3.22559,-9.92208 a 7.00405,7.00405 0 0 0 -6.579,-9.38871 z m -0.005,14 z"
     fill="#ffffff"
     id="path63" />
  <path
     d="m 164.81237,91.63715 a 3.50018,3.50018 0 0 1 -3.5,-3.5 V 77.99066 a 3.50017,3.50017 0 0 1 3.5,-3.5 h 4.022 c 2.78173,0 5.63671,0.375 7.6748,3.09375 a 9.403,9.403 0 0 1 1.62744,5.59082 c 0,1.19043 -0.19336,4.16211 -1.98291,6.041 -1.66943,1.76269 -3.48535,2.4209 -6.69287,2.4209 z"
     fill="#deddde"
     id="path65" />
  <path
     d="m 168.83453,77.99072 c 2.28351,0 3.81287,0.2768 4.87457,1.69379 a 6.02245,6.02245 0 0 1 0.92761,3.491 5.68256,5.68256 0 0 1 -1.01727,3.62646 c -0.874,0.92334 -1.68225,1.33533 -4.15881,1.33533 h -4.64807 V 77.99072 h 4.022 m -1.17938,7.98084 h 1.23211 c 1.78766,0 2.94367,-0.8028 2.94367,-2.88611 0,-2.08264 -1.156,-2.88544 -2.94367,-2.88544 h -1.23211 v 5.77155 m 1.17938,-14.98084 h -4.022 a 7,7 0 0 0 -7,7 v 10.14661 a 7,7 0 0 0 7,7 h 4.6481 c 3.06817,0 6.31143,-0.42682 9.24243,-3.52316 2.55035,-2.67548 2.93365,-6.43647 2.93365,-8.43863 a 12.89036,12.89036 0 0 0 -2.31167,-7.66971 c -3.383,-4.51511 -8.36365,-4.51511 -10.49051,-4.51511 z"
     fill="#ffffff"
     id="path67" />
  <path
     d="m 160.19958,91.63715 a 3.49986,3.49986 0 0 1 -3.5,-3.5 l -0.001,-10.14649 a 3.50008,3.50008 0 0 1 3.5,-3.5 h 2.8667 a 3.50017,3.50017 0 0 1 3.5,3.5 v 10.14649 a 3.50017,3.50017 0 0 1 -3.5,3.5 z"
     fill="#deddde"
     id="path69" />
  <path
     d="m 163.06506,77.99036 v 10.147 h -2.86566 l -0.001,-10.147 h 2.86664 m 0,-7 h -2.86664 a 7,7 0 0 0 -7,7.00067 l 0.001,10.147 a 7,7 0 0 0 7,6.99933 h 2.86566 a 7,7 0 0 0 7,-7 v -10.147 a 7,7 0 0 0 -7,-7 z"
     fill="#ffffff"
     id="path71" />
  <path
     d="m 145.05212,91.63715 a 3.48493,3.48493 0 0 1 -2.25293,-0.82129 3.48493,3.48493 0 0 1 -2.25293,0.82129 h -2.89111 a 3.50017,3.50017 0 0 1 -3.5,-3.5 V 77.976 a 3.50017,3.50017 0 0 1 3.5,-3.5 h 5.1455 c 7.71924,0 8.55274,5.62793 8.55274,8.04785 v 5.61329 a 3.50018,3.50018 0 0 1 -3.5,3.5 z"
     fill="#deddde"
     id="path73" />
  <path
     d="m 142.8009,77.97644 c 2.49853,0 5.05255,0.54028 5.05255,4.54706 v 5.61383 h -2.80139 v -4.46167 c 0,-1.425 -0.18494,-2.20368 -0.63819,-2.68677 a 2.10685,2.10685 0 0 0 -1.62793,-0.566 l -2.23974,-8.5e-4 v 7.71533 h -2.89124 V 77.97644 h 5.14594 m 0,-7 h -5.14594 a 7,7 0 0 0 -7,7 v 10.16089 a 7,7 0 0 0 7,7 h 2.89124 a 6.99248,6.99248 0 0 0 2.25293,-0.37045 6.99262,6.99262 0 0 0 2.25293,0.37045 h 2.80139 a 7,7 0 0 0 7,-7 V 82.5235 c 0,-5.58219 -3.16623,-11.54706 -12.05255,-11.54706 z"
     fill="#ffffff"
     id="path75" />
  <path
     d="m 175.97009,91.63715 a 3.50017,3.50017 0 0 1 -3.5,-3.5 l -4.9e-4,-10.14649 a 3.50006,3.50006 0 0 1 3.5,-3.5 h 2.8667 a 3.50017,3.50017 0 0 1 3.5,3.5 v 10.14649 a 3.50018,3.50018 0 0 1 -3.5,3.5 z"
     fill="#deddde"
     id="path77" />
  <path
     d="m 175.96948,77.99072 2.86688,3.7e-4 v 10.14624 h -2.86621 l -6.7e-4,-10.14661 m 8.8e-4,-7 a 7,7 0 0 0 -7.00088,7.00046 l 6.7e-4,10.14664 a 7,7 0 0 0 7,6.99951 h 2.86621 a 7,7 0 0 0 7,-7 V 77.99109 a 7,7 0 0 0 -6.99912,-7 z"
     fill="#ffffff"
     id="path79" />
  <path
     d="m 119.70349,89.08929 a 7.23132,7.23132 0 0 1 -2.32129,-0.377 3.49972,3.49972 0 0 1 -2.37989,-3.31543 V 80.892 a 3.48472,3.48472 0 0 1 0.0596,-0.64258 3.46633,3.46633 0 0 1 -0.0596,-0.6416 v -1.4863 a 3.50063,3.50063 0 0 1 3.26319,-3.49219 c 0.18408,-0.01269 0.37012,-0.02246 0.55957,-0.02832 0.11279,-0.0039 0.21924,-0.0049 0.32568,-0.0049 5.55322,0 8.96582,4.415 9.33643,4.918 a 3.50059,3.50059 0 0 1 0.0225,4.12109 c -0.65527,0.91111 -4.16162,5.45407 -8.80615,5.45407 z"
     fill="#deddde"
     id="path81" />
  <path
     d="m 119.15051,78.09583 c 3.94476,0 6.51892,3.49456 6.51892,3.49456 0,0 -2.87915,3.99884 -5.96607,3.99884 a 3.74331,3.74331 0 0 1 -1.20117,-0.19207 v -4.50489 c 1.58173,0.1911 1.89978,0.88983 2.851,2.47492 l 2.115,-1.78327 a 5.6005,5.6005 0 0 0 -4.14655,-2.0249 7.655,7.655 0 0 0 -0.81952,0.04834 v -1.48559 c 0.14411,-0.01032 0.28986,-0.01795 0.4383,-0.02265 q 0.10565,-0.0033 0.21,-0.0033 m 0,-7 v 0 q -0.21387,0 -0.43036,0.0068 c -0.24432,0.0077 -0.48267,0.0202 -0.71832,0.03708 a 7,7 0 0 0 -6.49964,6.98209 v 1.48559 q 0,0.32308 0.0295,0.64246 -0.0294,0.319 -0.0295,0.64245 v 4.50489 a 6.99993,6.99993 0 0 0 4.7728,6.6362 10.75233,10.75233 0 0 0 3.42837,0.55587 c 6.19141,0 10.47992,-5.288 11.64682,-6.90872 a 7,7 0 0 0 -0.0448,-8.2417 c -0.47822,-0.64923 -4.88227,-6.343 -12.15488,-6.343 z"
     fill="#ffffff"
     id="path83" />
  <path
     d="m 118.50231,90.06879 a 3.45115,3.45115 0 0 1 -0.61523,-0.05469 9.98737,9.98737 0 0 1 -7.60986,-7.15918 3.5,3.5 0 0 1 0.78271,-3.24805 11.69344,11.69344 0 0 1 7.0669,-3.47851 3.49914,3.49914 0 0 1 3.87548,3.47949 V 80.892 a 3.48806,3.48806 0 0 1 -0.82081,2.25293 3.49484,3.49484 0 0 1 0.82081,2.252 v 1.17188 a 3.49966,3.49966 0 0 1 -3.5,3.5 z"
     fill="#deddde"
     id="path85" />
  <path
     d="m 118.50219,79.60736 v 1.28491 l -0.006,-6.1e-4 a 2.37653,2.37653 0 0 0 -0.28345,-0.0169 3.79965,3.79965 0 0 0 -2.54272,1.30883 5.05,5.05 0 0 0 2.83209,3.21357 v 1.17114 c -3.7915,-0.676 -4.84381,-4.61719 -4.84381,-4.61719 a 8.1959,8.1959 0 0 1 4.84381,-2.34375 m 3.1e-4,-7 a 6.99927,6.99927 0 0 0 -0.75247,0.04056 15.17164,15.17164 0 0 0 -9.28824,4.61328 7,7 0 0 0 -1.5665,6.49567 c 0.81766,3.06234 3.92358,8.552 10.3783,9.70279 a 7,7 0 0 0 8.2286,-6.89133 v -1.17117 a 6.99041,6.99041 0 0 0 -0.37106,-2.25016 6.9915,6.9915 0 0 0 0.37106,-2.25473 v -1.28491 a 7,7 0 0 0 -6.99969,-7 z"
     fill="#ffffff"
     id="path87" />
  <path
     d="m 118.50231,94.64594 a 3.50018,3.50018 0 0 1 -3.5,-3.5 v -1.92676 a 3.519,3.519 0 0 1 0.0586,-0.63867 3.50852,3.50852 0 0 1 -0.0586,-0.64063 v -1.37109 a 3.50053,3.50053 0 0 1 3.5,-3.5 3.53851,3.53851 0 0 1 0.60694,0.05273 3.0293,3.0293 0 0 0 0.5293,0.04688 6.55468,6.55468 0 0 0 3.48388,-1.5684 7.27962,7.27962 0 0 0 -3.85644,-1.21289 l -0.208,0.0039 c -0.0928,0.0029 -0.18408,0.0098 -0.2749,0.0166 q -0.14062,0.01173 -0.28077,0.01172 a 3.49992,3.49992 0 0 1 -3.5,-3.5 v -2.21968 a 3.50017,3.50017 0 0 1 3.5,-3.5 h 15.58057 a 3.50017,3.50017 0 0 1 3.5,3.5 v 16.44629 a 3.50017,3.50017 0 0 1 -3.5,3.5 z"
     fill="#deddde"
     id="path89" />
  <path
     d="m 134.08288,74.69983 v 16.44653 h -15.58069 v -1.92767 c 0.32782,0.03149 0.66211,0.05249 1.00958,0.05249 3.606,0 9.9668,-1.84161 12.69654,-4.12653 -0.40082,-0.40637 -2.34943,-1.33337 -2.825,-1.71447 -2.87061,2.47784 -5.83521,4.57116 -9.93457,4.57116 A 7.48517,7.48517 0 0 1 118.5022,87.94 v -1.3717 a 6.49645,6.49645 0 0 0 1.1366,0.10016 c 4.405,0 8.63342,-5.14167 8.63342,-5.14167 0,0 -3.53979,-4.63952 -9.0061,-4.63952 -0.10748,0 -0.21665,0.0018 -0.32562,0.0055 -0.14649,0.0054 -0.29248,0.01459 -0.4383,0.02619 v -2.21912 h 15.58069 m 0,-7 h -15.5807 a 7,7 0 0 0 -7,7 V 76.919 a 7.00026,7.00026 0 0 0 1.92826,4.82464 7,7 0 0 0 -1.92826,4.82471 V 87.94 q 0,0.32368 0.0291,0.64093 -0.0289,0.31668 -0.0291,0.63776 v 1.92767 a 7,7 0 0 0 7,7 h 15.58069 a 7,7 0 0 0 7,-7 V 74.69983 a 7,7 0 0 0 -7,-7 z"
     fill="#ffffff"
     id="path91" />
  <path
     d="m 118.50231,92.71918 c -0.10937,0 -0.21923,-0.0049 -0.3291,-0.01563 -8.97558,-0.84765 -12.12256,-9.6582 -12.252,-10.0332 a 3.49834,3.49834 0 0 1 0.86035,-3.64551 c 0.5332,-0.52148 5.38379,-5.1084 11.44092,-5.59473 0.0937,-0.0068 0.187,-0.01074 0.27978,-0.01074 a 3.49912,3.49912 0 0 1 3.5,3.5 v 1.20215 a 3.501,3.501 0 0 1 -3.23339,3.49024 5.87446,5.87446 0 0 0 -2.71973,0.90722 4.31667,4.31667 0 0 0 2.88965,1.94824 3.50011,3.50011 0 0 1 3.06347,3.47266 v 1.2793 a 3.49985,3.49985 0 0 1 -3.5,3.5 z"
     fill="#deddde"
     id="path93" />
  <path
     d="m 118.50219,76.919 v 1.20282 a 9.38992,9.38992 0 0 0 -6.73407,3.65856 c 0,0 1.71765,5.52851 6.73407,6.15967 v 1.27869 c -6.83612,-0.64514 -9.27337,-7.6919 -9.27337,-7.6919 0,0 4.30365,-4.2091 9.27337,-4.60784 m 3.4e-4,-7 q -0.27942,0 -0.56021,0.02244 c -7.28366,0.58444 -12.98218,5.969 -13.608,6.58105 a 7,7 0 0 0 -1.721,7.29248 c 1.45218,4.19867 6.29428,11.52945 15.23117,12.37286 0.21963,0.02073 0.43936,0.031 0.658,0.031 a 7,7 0 0 0 6.99966,-7 V 87.94 a 6.98721,6.98721 0 0 0 -2.00992,-4.90915 6.98414,6.98414 0 0 0 2.00992,-4.90908 V 76.919 a 7,7 0 0 0 -6.99966,-7 z"
     fill="#ffffff"
     id="path95" />
  <rect
     x="193.32947"
     y="74.499451"
     width="9.3081102"
     height="17.16992"
     rx="3.5"
     fill="#deddde"
     id="rect97" />
  <path
     d="M 199.13766,77.99951 V 88.169 h -2.3082 V 77.99951 h 2.3082 m 0,-7 h -2.3082 a 7,7 0 0 0 -7,7 V 88.169 a 7,7 0 0 0 7,7 h 2.3082 a 7,7 0 0 0 7,-7 V 77.99951 a 7,7 0 0 0 -7,-7 z"
     fill="#ffffff"
     id="path99" />
  <path
     d="m 205.80505,91.66937 a 3.51183,3.51183 0 0 0 -2.41358,0 h -2.29394 a 3.50017,3.50017 0 0 1 -3.5,-3.5 V 83.145 c 0,-0.85645 -0.0273,-1.585 -0.0562,-2.1875 a 3.4995,3.4995 0 0 1 3.49609,-3.666 h 1.99119 a 3.5204,3.5204 0 0 1 0.69971,0.07032 6.34,6.34 0 0 1 1.73,-0.23731 c 3.61572,0 6.14062,2.74219 6.14062,6.669 v 4.376 a 3.50017,3.50017 0 0 1 -3.5,3.5 z"
     fill="#deddde"
     id="path101" />
  <path
     d="m 205.45843,80.62482 c 1.50873,0 2.64044,0.996 2.64044,3.16845 V 88.169 h -2.29388 V 84.08 c 0,-0.95044 -0.33142,-1.59943 -1.16126,-1.59943 a 1.22416,1.22416 0 0 0 -1.16211,0.86023 1.56733,1.56733 0 0 0 -0.0902,0.57349 V 88.169 h -2.29394 v -5.02429 c 0,-0.92047 -0.0295,-1.70477 -0.0598,-2.35376 h 1.99109 l 0.10626,1.01075 h 0.0447 a 2.70275,2.70275 0 0 1 2.27875,-1.17688 m 0,-7 a 10.04344,10.04344 0 0 0 -1.92093,0.18441 q -0.25218,-0.01816 -0.50876,-0.01828 h -1.99113 a 7,7 0 0 0 -6.99237,7.32694 c 0.0258,0.55182 0.0522,1.22415 0.0522,2.02682 V 88.169 a 7,7 0 0 0 7,7 h 2.29394 a 7.07779,7.07779 0 0 1 2.41358,0 h 2.29388 a 7,7 0 0 0 7,-7 v -4.37573 c 0,-5.892 -4.05438,-10.16845 -9.64044,-10.16845 z"
     fill="#ffffff"
     id="path103" />
  <rect
     x="205.97009"
     y="79.94574"
     width="10.95264"
     height="8.5244102"
     rx="3.5"
     fill="#deddde"
     id="rect105" />
  <path
     d="m 213.42279,83.44623 v 1.52392 h -3.9527 v -1.52392 h 3.9527 m 0,-7 h -3.9527 a 7,7 0 0 0 -7,7 v 1.52392 a 7,7 0 0 0 7,7 h 3.9527 a 7,7 0 0 0 7,-7 v -1.52392 a 7,7 0 0 0 -7,-7 z"
     fill="#ffffff"
     id="path107" />
  <path
     d="m 220.96566,91.66937 a 3.505,3.505 0 0 0 -3.78759,0 h -2.30811 a 3.50017,3.50017 0 0 1 -3.5,-3.5 V 77.99945 a 3.50017,3.50017 0 0 1 3.5,-3.5 h 2.30811 a 3.505,3.505 0 0 0 3.78759,0 h 2.293 a 3.50048,3.50048 0 0 1 3.5,3.5 v 10.16992 a 3.50048,3.50048 0 0 1 -3.5,3.5 z"
     fill="#deddde"
     id="path109" />
  <path
     d="M 223.25854,77.99951 V 88.169 h -2.293 v -4.25469 h -3.78741 V 88.169 H 214.8699 V 77.99951 h 2.30823 v 3.90808 h 3.78741 v -3.90808 h 2.293 m 0,-7 h -2.293 a 7.04753,7.04753 0 0 1 -3.78741,0 h -2.30823 a 7,7 0 0 0 -7,7 V 88.169 a 7,7 0 0 0 7,7 h 2.30823 a 7.04753,7.04753 0 0 1 3.78741,0 h 2.293 a 7,7 0 0 0 7,-7 V 77.99951 a 7,7 0 0 0 -7,-7 z"
     fill="#ffffff"
     id="path111" />
  <path
     d="m 228.53698,91.83539 a 7.071,7.071 0 0 1 -7.31836,-7.30274 7.3558,7.3558 0 1 1 7.31836,7.30274 z"
     fill="#deddde"
     id="path113" />
  <path
     d="m 228.65747,80.62482 a 3.58826,3.58826 0 0 1 3.77221,3.77227 3.7023,3.7023 0 0 1 -3.89282,3.938 3.61434,3.61434 0 0 1 -3.81781,-3.80218 3.68329,3.68329 0 0 1 3.93842,-3.90808 m -0.0608,6.0653 c 0.89063,0 1.46412,-0.89013 1.46412,-2.21752 0,-1.10145 -0.42255,-2.218 -1.46412,-2.218 -1.10137,0 -1.50872,1.13135 -1.50872,2.218 0,1.26709 0.528,2.21752 1.50872,2.21752 m 0.0608,-13.0653 A 10.6836,10.6836 0 0 0 217.71905,84.5329 10.85554,10.85554 0 1 0 228.65747,73.62482 Z"
     fill="#ffffff"
     id="path115" />
  <path
     d="m 242.76257,91.66937 a 3.52047,3.52047 0 0 0 -2.23242,0 h -2.2334 a 3.51158,3.51158 0 0 0 -2.21778,0 h -2.23339 a 3.50048,3.50048 0 0 1 -3.5,-3.5 V 83.145 c 0,-0.85742 -0.0273,-1.58692 -0.0557,-2.19043 a 3.50007,3.50007 0 0 1 3.4961,-3.66309 h 1.93065 a 3.49065,3.49065 0 0 1 0.65137,0.06055 6.53114,6.53114 0 0 1 1.73242,-0.22754 6.00064,6.00064 0 0 1 2.17187,0.39649 6.28083,6.28083 0 0 1 2.23438,-0.39649 c 2.88476,0 5.98926,2.09668 5.98926,6.69922 v 4.3457 a 3.50049,3.50049 0 0 1 -3.5,3.5 z"
     fill="#deddde"
     id="path117" />
  <path
     d="m 242.50666,80.62482 c 1.4176,0 2.48956,0.996 2.48956,3.19879 V 88.169 h -2.23321 v -4.01354 c 0,-1.071 -0.34748,-1.68958 -1.08619,-1.68958 a 1.1222,1.1222 0 0 0 -1.05676,0.79944 1.93629,1.93629 0 0 0 -0.0902,0.58868 v 4.315 h -2.2332 v -4.1341 c 0,-0.93524 -0.33228,-1.569 -1.05585,-1.569 a 1.16758,1.16758 0 0 0 -1.0719,0.82984 1.52593,1.52593 0 0 0 -0.0902,0.573 V 88.169 h -2.23321 v -5.02429 c 0,-0.92047 -0.0295,-1.70477 -0.0598,-2.35376 h 1.93121 l 0.10541,0.996 h 0.0456 a 2.55654,2.55654 0 0 1 2.23223,-1.16217 2.09127,2.09127 0 0 1 2.0224,1.25238 h 0.0303 a 3.29859,3.29859 0 0 1 0.95044,-0.89014 2.66211,2.66211 0 0 1 1.40332,-0.36224 m 0,-7 a 10.03139,10.03139 0 0 0 -2.24231,0.2482 9.50463,9.50463 0 0 0 -2.16419,-0.2482 10.08979,10.08979 0 0 0 -1.91644,0.18152 q -0.2315,-0.0153 -0.4668,-0.01539 h -1.93121 a 7,7 0 0 0 -6.99237,7.32691 c 0.0258,0.552 0.0522,1.22439 0.0522,2.02685 V 88.169 a 7,7 0 0 0 7,7 h 2.23321 a 7.081,7.081 0 0 1 2.218,0 h 2.23315 a 7.08251,7.08251 0 0 1 2.23316,0 h 2.23321 a 7,7 0 0 0 7,-7 v -4.34539 c 0,-6.69559 -4.77386,-10.19879 -9.48956,-10.19879 z"
     fill="#ffffff"
     id="path119" />
  <path
     d="m 250.33386,91.81976 c -4.37989,0 -7.43848,-2.98437 -7.43848,-7.25683 a 7.1899,7.1899 0 0 1 7.22656,-7.43848 c 3.99805,0 6.79,2.95313 6.79,7.18164 a 8.90453,8.90453 0 0 1 -0.13281,1.5332 3.49041,3.49041 0 0 1 -0.39258,1.0879 l 0.0527,0.27246 a 3.49928,3.49928 0 0 1 -2.13086,3.915 10.647,10.647 0 0 1 -3.97457,0.70511 z"
     fill="#deddde"
     id="path121" />
  <path
     d="m 250.12176,80.62482 c 2.38416,0 3.28992,1.85577 3.28992,3.68164 a 5.42163,5.42163 0 0 1 -0.0759,0.90527 h -4.7522 c 0.075,0.95044 1.01032,1.40338 2.0813,1.40338 a 6.50392,6.50392 0 0 0 2.03754,-0.30194 l 0.301,1.55383 a 7.27258,7.27258 0 0 1 -2.66992,0.45289 c -2.50476,0 -3.93841,-1.44843 -3.93841,-3.75708 a 3.69571,3.69571 0 0 1 3.72668,-3.938 m -1.55341,3.01794 h 2.71558 a 1.332,1.332 0 0 0 -1.298,-1.494 1.505,1.505 0 0 0 -1.41761,1.494 m 1.55341,-10.01794 a 10.71861,10.71861 0 0 0 -10.72668,10.938 c 0,6.23306 4.60025,10.75708 10.93841,10.75708 a 14.12561,14.12561 0 0 0 5.27246,-0.95469 7.00076,7.00076 0 0 0 4.38178,-6.97226 7.02529,7.02529 0 0 0 0.23425,-0.92425 12.373,12.373 0 0 0 0.1897,-2.16223 c 0,-6.08954 -4.42371,-10.68164 -10.28992,-10.68164 z"
     fill="#ffffff"
     id="path123" />
  <path
     d="m 345.44616,91.61859 a 9.08162,9.08162 0 0 1 -6.56738,-2.35742 8.31258,8.31258 0 0 1 -2.5,-6.24805 c 0.0225,-5.15722 3.85059,-8.77441 9.30859,-8.77441 a 10.40471,10.40471 0 0 1 4.35059,0.84961 3.49916,3.49916 0 0 1 1.85644,4.03808 l -0.25293,0.96289 a 3.48423,3.48423 0 0 1 0.69922,2.09961 v 5.35645 a 3.4993,3.4993 0 0 1 -2.373,3.31348 14.94715,14.94715 0 0 1 -4.52153,0.75976 z"
     fill="#deddde"
     id="path125" />
  <path
     d="m 345.68743,77.73822 a 7.00237,7.00237 0 0 1 2.82184,0.49805 l -0.48327,1.84057 a 5.63783,5.63783 0 0 0 -2.369,-0.43774 3.31326,3.31326 0 1 0 0.96564,6.47308 v -2.12774 h -1.56855 V 82.189 h 3.78657 v 5.35645 a 11.38776,11.38776 0 0 1 -3.39441,0.57306 5.66608,5.66608 0 0 1 -4.13409,-1.373 4.92063,4.92063 0 0 1 -1.43365,-3.69635 c 0.0152,-3.37964 2.47436,-5.31091 5.80889,-5.31091 m 0,-7 c -7.38995,0 -12.77679,5.16425 -12.80883,12.27942 a 11.94288,11.94288 0 0 0 3.60559,8.79657 12.46535,12.46535 0 0 0 8.96209,3.30426 18.37768,18.37768 0 0 0 5.64808,-0.94577 6.99994,6.99994 0 0 0 4.74633,-6.62729 V 82.189 a 6.98083,6.98083 0 0 0 -0.47528,-2.54049 6.99994,6.99994 0 0 0 -3.80273,-7.71112 13.7869,13.7869 0 0 0 -5.87525,-1.19913 z"
     fill="#ffffff"
     id="path127" />
  <path
     d="m 352.58093,91.67914 a 5.7621,5.7621 0 0 1 -5.88379,-5.76367 6.08333,6.08333 0 0 1 0.86035,-3.14356 l -0.19824,-0.69238 a 3.50163,3.50163 0 0 1 1.65918,-4.01856 9.67819,9.67819 0 0 1 4.57226,-1.09179 6.35683,6.35683 0 0 1 6.74512,6.68359 v 2.56445 a 9.08684,9.08684 0 0 0 0.0478,1.16407 3.58574,3.58574 0 0 1 -0.78711,2.86328 3.52485,3.52485 0 0 1 -2.65527,1.26855 h -2.06738 a 3.50537,3.50537 0 0 1 -0.59375,-0.05078 6.68644,6.68644 0 0 1 -1.69922,0.2168 z"
     fill="#deddde"
     id="path129" />
  <path
     d="m 353.59106,80.46893 c 2.45917,0 3.24432,1.44849 3.24432,3.18366 v 2.565 a 11.37461,11.37461 0 0 0 0.10541,1.79547 h -2.067 l -0.13574,-0.7392 h -0.0456 a 2.65753,2.65753 0 0 1 -2.11163,0.90534 2.26163,2.26163 0 0 1 -2.38416,-2.26355 c 0,-1.901 1.69232,-2.82156 4.26794,-2.82153 l 0.0617,1.8e-4 v -0.10541 c 0,-0.39215 -0.21081,-0.95044 -1.34259,-0.95044 a 4.14669,4.14669 0 0 0 -2.03662,0.55829 l -0.42255,-1.47882 a 6.08807,6.08807 0 0 1 2.86652,-0.649 m -0.226,6.09571 a 1.25273,1.25273 0 0 0 1.19165,-0.845 1.63506,1.63506 0 0 0 0.0455,-0.39215 V 84.528 l -0.0895,-5.8e-4 c -1.16321,0 -2.05347,0.29429 -2.05347,1.16227 a 0.82428,0.82428 0 0 0 0.90577,0.875 m 0.226,-13.09571 a 13.06692,13.06692 0 0 0 -6.28308,1.5394 7.00062,7.00062 0 0 0 -3.46448,7.39606 9.643,9.643 0 0 0 -0.64685,3.51126 9.22523,9.22523 0 0 0 9.38416,9.26355 10.287,10.287 0 0 0 1.90521,-0.17676 c 0.12836,0.007 0.25787,0.01062 0.38775,0.01062 h 2.067 a 7.00005,7.00005 0 0 0 6.91211,-8.10592 c -0.006,-0.08732 -0.0175,-0.306 -0.0175,-0.68955 v -2.565 c 0,-5.996 -4.21264,-10.18366 -10.24432,-10.18366 z"
     fill="#ffffff"
     id="path131" />
  <path
     d="m 367.56042,91.51312 a 3.52047,3.52047 0 0 0 -2.23242,0 h -2.2334 a 3.51155,3.51155 0 0 0 -2.21777,0 h -2.2334 a 3.50048,3.50048 0 0 1 -3.5,-3.5 v -5.02441 c 0,-0.85645 -0.0273,-1.58692 -0.0557,-2.19043 a 3.50007,3.50007 0 0 1 3.4961,-3.66309 h 1.93066 a 3.51462,3.51462 0 0 1 0.66895,0.06446 6.3701,6.3701 0 0 1 1.71484,-0.23047 5.99544,5.99544 0 0 1 2.1709,0.39648 6.28635,6.28635 0 0 1 2.23535,-0.39648 c 2.88477,0 5.98926,2.0957 5.98926,6.69824 v 4.3457 a 3.50048,3.50048 0 0 1 -3.5,3.5 z"
     fill="#deddde"
     id="path133" />
  <path
     d="m 367.3045,80.46893 c 1.4176,0 2.48956,0.996 2.48956,3.19879 v 4.34534 h -2.23321 v -4.01349 c 0,-1.071 -0.34748,-1.68957 -1.08618,-1.68957 a 1.12219,1.12219 0 0 0 -1.05677,0.79944 1.93648,1.93648 0 0 0 -0.0902,0.58868 v 4.31494 h -2.23315 V 83.879 c 0,-0.9353 -0.33228,-1.569 -1.05585,-1.569 a 1.16766,1.16766 0 0 0 -1.0719,0.82983 1.52624,1.52624 0 0 0 -0.0903,0.573 v 4.30023 h -2.23315 v -5.02417 c 0,-0.92053 -0.0295,-1.70483 -0.0598,-2.35376 h 1.93122 l 0.1054,0.996 h 0.0456 a 2.55646,2.55646 0 0 1 2.23224,-1.16217 2.09112,2.09112 0 0 1 2.02233,1.25238 h 0.0304 a 3.29894,3.29894 0 0 1 0.95044,-0.89013 2.66267,2.66267 0 0 1 1.40332,-0.36225 m 0,-7 a 10.0328,10.0328 0 0 0 -2.24225,0.2482 9.5042,9.5042 0 0 0 -2.16424,-0.2482 10.09032,10.09032 0 0 0 -1.91669,0.18158 q -0.23154,-0.01528 -0.46655,-0.01538 h -1.93122 a 7,7 0 0 0 -6.99237,7.32672 c 0.0258,0.55216 0.0522,1.22476 0.0522,2.027 v 5.02417 a 7,7 0 0 0 7,7 h 2.23315 a 7.08216,7.08216 0 0 1 2.218,0 h 2.23313 a 7.0833,7.0833 0 0 1 2.23316,0 h 2.23321 a 7,7 0 0 0 7,-7 v -4.34533 c 0,-6.69558 -4.77386,-10.19879 -9.48956,-10.19879 z"
     fill="#ffffff"
     id="path135" />
  <path
     d="m 375.13171,91.66449 c -4.37988,0 -7.43848,-2.98438 -7.43848,-7.25781 a 7.18966,7.18966 0 0 1 7.22657,-7.4375 c 3.998,0 6.79,2.95312 6.79,7.18164 a 8.90476,8.90476 0 0 1 -0.13281,1.5332 3.49026,3.49026 0 0 1 -0.39258,1.08789 l 0.0527,0.27246 a 3.49866,3.49866 0 0 1 -2.13477,3.916 10.64436,10.64436 0 0 1 -3.97067,0.70412 z"
     fill="#deddde"
     id="path137" />
  <path
     d="m 374.91966,80.46893 c 2.3841,0 3.28992,1.85578 3.28992,3.68164 a 5.4222,5.4222 0 0 1 -0.0759,0.90534 h -4.7522 c 0.075,0.95044 1.01026,1.40332 2.0813,1.40332 a 6.50421,6.50421 0 0 0 2.03754,-0.30194 l 0.301,1.55383 a 7.2729,7.2729 0 0 1 -2.67,0.45288 c -2.5047,0 -3.93841,-1.44842 -3.93841,-3.75708 a 3.69577,3.69577 0 0 1 3.72674,-3.938 m -1.5534,3.01795 h 2.71551 a 1.332,1.332 0 0 0 -1.29791,-1.494 1.505,1.505 0 0 0 -1.4176,1.494 m 1.5534,-10.01795 a 10.71863,10.71863 0 0 0 -10.72674,10.938 c 0,6.23306 4.60028,10.75708 10.93841,10.75708 a 14.12562,14.12562 0 0 0 5.27258,-0.95471 7.00074,7.00074 0 0 0 4.38172,-6.9722 7.01937,7.01937 0 0 0 0.23431,-0.92459 12.37924,12.37924 0 0 0 0.18964,-2.16193 c 0,-6.08953 -4.42371,-10.68164 -10.28992,-10.68164 z"
     fill="#ffffff"
     id="path139" />
  <path
     d="m 382.14538,91.66449 a 10.04174,10.04174 0 0 1 -4.57519,-1.05664 3.49912,3.49912 0 0 1 -1.70606,-3.89746 l 0.4668,-1.90137 a 3.5415,3.5415 0 0 1 0.41015,-0.98633 6.12722,6.12722 0 0 1 -0.84179,-3.082 c 0,-3.80273 3.08984,-6.5625 7.34765,-6.5625 a 9.76428,9.76428 0 0 1 4.03028,0.82031 3.50149,3.50149 0 0 1 1.93847,4.124 l -0.51269,1.85644 a 3.49133,3.49133 0 0 1 -0.12207,0.36133 6.20345,6.20345 0 0 1 1.168,3.6709 c -3e-5,3.2041 -2.37894,6.65332 -7.60355,6.65332 z"
     fill="#deddde"
     id="path141" />
  <path
     d="m 383.24666,77.67792 a 6.23446,6.23446 0 0 1 2.595,0.51275 l -0.51276,1.85621 a 4.82868,4.82868 0 0 0 -2.12774,-0.48322 c -0.996,0 -1.4784,0.45288 -1.4784,0.98077 0,0.649 0.57349,0.93573 1.88568,1.43372 1.79547,0.6637 2.64051,1.59894 2.64051,3.03265 0,1.70478 -1.3122,3.1532 -4.10364,3.1532 a 6.65355,6.65355 0 0 1 -2.88171,-0.61859 l 0.46722,-1.90131 a 5.86694,5.86694 0 0 0 2.55023,0.63379 c 1.05585,0 1.61414,-0.43725 1.61414,-1.10144 0,-0.63373 -0.48236,-0.99554 -1.70526,-1.43322 -1.68915,-0.58869 -2.79053,-1.52393 -2.79053,-3.00269 0,-1.73474 1.448,-3.06262 3.84729,-3.06262 m 0,-7 c -6.184,0 -10.84729,4.326 -10.84729,10.06262 a 9.58185,9.58185 0 0 0 0.5401,3.20712 l -0.006,0.026 -0.46723,1.90131 a 7.00007,7.00007 0 0 0 3.41,7.796 13.545,13.545 0 0 0 6.26947,1.493 c 7.28961,0 11.10364,-5.10773 11.10364,-10.1532 a 10.06281,10.06281 0 0 0 -0.89,-4.12384 l 0.23,-0.83246 a 7,7 0 0 0 -3.87652,-8.24807 13.2329,13.2329 0 0 0 -5.46576,-1.12851 z"
     fill="#ffffff"
     id="path143" />
  <path
     d="m 390.32116,91.66449 a 5.87826,5.87826 0 0 1 -4.24414,-1.709 6.40821,6.40821 0 0 1 -1.60936,-4.61327 v -0.58789 a 3.48863,3.48863 0 0 1 -0.98047,-2.42968 v -1.68946 a 3.48745,3.48745 0 0 1 1.11523,-2.56152 3.49976,3.49976 0 0 1 2.58692,-2.4502 l 2.248,-0.51269 a 3.49971,3.49971 0 0 1 4.15235,2.48047 3.49982,3.49982 0 0 1 1.7705,3.04394 v 1.68946 a 3.4819,3.4819 0 0 1 -0.63671,2.01367 3.445,3.445 0 0 1 0.57617,1.86328 l 0.0156,1.73535 a 3.50008,3.50008 0 0 1 -2.209,3.28418 7.63392,7.63392 0 0 1 -2.78511,0.44336 z"
     fill="#deddde"
     id="path145" />
  <path
     d="m 390.21594,78.523 v 2.11218 h 1.64447 v 1.68958 h -1.64447 v 2.6709 c 0,0.89013 0.21075,1.29748 0.90484,1.29748 a 3.77073,3.77073 0 0 0 0.6789,-0.0603 l 0.0152,1.73517 a 4.50477,4.50477 0 0 1 -1.49353,0.196 2.38583,2.38583 0 0 1 -1.72046,-0.63379 3.06057,3.06057 0 0 1 -0.6333,-2.18756 v -3.01795 h -0.98084 v -1.68958 h 0.98084 v -1.59942 l 2.24835,-0.51276 m -1.9e-4,-7.00006 a 6.99749,6.99749 0 0 0 -1.55627,0.17529 l -2.24835,0.51276 a 6.99929,6.99929 0 0 0 -4.84845,3.99893 6.97128,6.97128 0 0 0 -1.57593,4.42526 v 1.68958 a 6.96848,6.96848 0 0 0 0.99274,3.59552 9.57467,9.57467 0 0 0 2.58008,6.4664 9.385,9.385 0 0 0 6.76178,2.77737 11.04315,11.04315 0 0 0 4.08905,-0.695 6.99993,6.99993 0 0 0 4.40417,-6.56231 l -0.0152,-1.73517 a 6.99446,6.99446 0 0 0 -0.24756,-1.785 6.99777,6.99777 0 0 0 0.3086,-2.0618 v -1.68959 a 6.98424,6.98424 0 0 0 -2.40094,-5.27731 7,7 0 0 0 -6.24372,-3.83493 z"
     fill="#ffffff"
     id="path147" />
  <path
     d="m 393.1864,91.51312 a 3.50048,3.50048 0 0 1 -3.5,-3.5 V 83.0639 c 0,-1.01171 -0.0283,-1.67187 -0.0566,-2.26171 a 3.50028,3.50028 0 0 1 3.49609,-3.667 h 1.97656 a 3.50624,3.50624 0 0 1 0.61133,0.05371 5.35357,5.35357 0 0 1 1.5166,-0.21972 5.69793,5.69793 0 0 1 1.11035,0.08691 3.501,3.501 0 0 1 2.87207,3.44336 v 2.15723 a 3.50129,3.50129 0 0 1 -2.23242,3.26269 v 2.09375 a 3.50048,3.50048 0 0 1 -3.5,3.5 z"
     fill="#deddde"
     id="path149" />
  <path
     d="m 397.22985,80.46893 a 2.35442,2.35442 0 0 1 0.48328,0.0304 V 82.657 a 3.27868,3.27868 0 0 0 -0.61908,-0.0603 1.4745,1.4745 0 0 0 -1.56946,1.16168 2.76378,2.76378 0 0 0 -0.0447,0.51276 v 3.74188 h -2.29388 v -4.94869 c 0,-1.08618 -0.0295,-1.79547 -0.0599,-2.4292 h 1.976 l 0.0759,1.35773 h 0.0598 a 2.16855,2.16855 0 0 1 1.992,-1.52393 m 0,-7 a 8.83433,8.83433 0 0 0 -1.7547,0.176 q -0.18529,-0.0097 -0.373,-0.0098 h -1.976 a 7,7 0 0 0 -6.99194,7.33521 c 0.0273,0.56985 0.0518,1.15881 0.0518,2.094 v 4.94873 a 7,7 0 0 0 7,7 h 2.29388 a 7,7 0 0 0 7,-7 V 87.7814 a 6.99979,6.99979 0 0 0 2.23322,-5.12436 v -2.15771 a 7,7 0 0 0 -5.74054,-6.88577 9.10051,9.10051 0 0 0 -1.74274,-0.14463 z"
     fill="#ffffff"
     id="path151" />
  <path
     d="m 402.31335,91.66449 c -4.37988,0 -7.43848,-2.98438 -7.43848,-7.25781 a 7.18966,7.18966 0 0 1 7.22657,-7.4375 c 3.998,0 6.79,2.95312 6.79,7.18164 a 8.90476,8.90476 0 0 1 -0.13281,1.5332 3.49026,3.49026 0 0 1 -0.39258,1.08789 l 0.0537,0.27442 a 3.49957,3.49957 0 0 1 -2.13575,3.91406 10.64436,10.64436 0 0 1 -3.97067,0.7041 z"
     fill="#deddde"
     id="path153" />
  <path
     d="m 402.10174,80.46893 c 2.3841,0 3.28986,1.85578 3.28986,3.68164 a 5.41673,5.41673 0 0 1 -0.0759,0.90534 h -4.75214 c 0.075,0.95044 1.01026,1.40332 2.0813,1.40332 a 6.50448,6.50448 0 0 0 2.03754,-0.30194 l 0.301,1.55383 a 7.2729,7.2729 0 0 1 -2.67,0.45288 c -2.5047,0 -3.93841,-1.44842 -3.93841,-3.75708 a 3.69577,3.69577 0 0 1 3.72674,-3.938 m -1.5534,3.01795 h 2.71551 a 1.332,1.332 0 0 0 -1.29791,-1.494 1.50485,1.50485 0 0 0 -1.4176,1.494 m 1.5534,-10.01795 a 10.71863,10.71863 0 0 0 -10.72674,10.938 c 0,6.23306 4.60028,10.75708 10.93841,10.75708 a 14.12562,14.12562 0 0 0 5.27258,-0.95471 7.00091,7.00091 0 0 0 4.38172,-6.97235 7.03737,7.03737 0 0 0 0.23388,-0.92227 12.36527,12.36527 0 0 0 0.19,-2.1641 c 0,-6.08953 -4.42371,-10.68164 -10.28986,-10.68164 z"
     fill="#ffffff"
     id="path155" />
  <path
     d="m 408.66394,91.67914 a 5.76294,5.76294 0 0 1 -5.88477,-5.76367 6.09606,6.09606 0 0 1 0.86035,-3.14453 l -0.19726,-0.69141 a 3.50163,3.50163 0 0 1 1.65918,-4.01856 9.67819,9.67819 0 0 1 4.57226,-1.09179 6.35605,6.35605 0 0 1 6.74414,6.68359 v 2.56445 a 9.06024,9.06024 0 0 0 0.0488,1.16993 3.57608,3.57608 0 0 1 -0.78613,2.86035 3.52265,3.52265 0 0 1 -2.65723,1.26562 h -2.06641 a 3.50537,3.50537 0 0 1 -0.59375,-0.05078 6.68636,6.68636 0 0 1 -1.69921,0.2168 z"
     fill="#deddde"
     id="path157" />
  <path
     d="m 409.67395,80.46893 c 2.45916,0 3.24432,1.44849 3.24432,3.18366 v 2.565 a 11.37461,11.37461 0 0 0 0.10541,1.79547 h -2.067 l -0.13574,-0.7392 h -0.0456 a 2.65762,2.65762 0 0 1 -2.11163,0.90534 2.26163,2.26163 0 0 1 -2.38415,-2.26355 c 0,-1.901 1.69232,-2.82156 4.26794,-2.82153 l 0.0617,1.8e-4 v -0.10541 c 0,-0.39215 -0.21082,-0.95044 -1.34259,-0.95044 a 4.14669,4.14669 0 0 0 -2.03662,0.55829 l -0.42255,-1.47882 a 6.08807,6.08807 0 0 1 2.86652,-0.649 m -0.226,6.09571 a 1.25272,1.25272 0 0 0 1.19165,-0.845 1.63455,1.63455 0 0 0 0.0455,-0.39215 V 84.528 l -0.0895,-5.8e-4 c -1.16321,0 -2.05347,0.29429 -2.05347,1.16227 a 0.82428,0.82428 0 0 0 0.90576,0.875 m 0.226,-13.09571 a 13.067,13.067 0 0 0 -6.28309,1.5394 7.0006,7.0006 0 0 0 -3.46447,7.39606 9.64277,9.64277 0 0 0 -0.64685,3.51126 9.22523,9.22523 0 0 0 9.3841,9.2635 10.28691,10.28691 0 0 0 1.90521,-0.17676 c 0.12836,0.007 0.25788,0.01062 0.38776,0.01062 h 2.067 a 7.00007,7.00007 0 0 0 6.91211,-8.10592 c -0.006,-0.08732 -0.0175,-0.306 -0.0175,-0.68955 v -2.565 c 0,-5.996 -4.21265,-10.18366 -10.24432,-10.18366 z"
     fill="#ffffff"
     id="path159" />
  <path
     d="m 423.64343,91.51312 a 3.52047,3.52047 0 0 0 -2.23242,0 h -2.23335 a 3.51158,3.51158 0 0 0 -2.21778,0 h -2.23339 a 3.50048,3.50048 0 0 1 -3.5,-3.5 v -5.02441 c 0,-0.85645 -0.0274,-1.58692 -0.0557,-2.19043 a 3.50007,3.50007 0 0 1 3.4961,-3.66309 h 1.93066 a 3.5051,3.5051 0 0 1 0.668,0.06348 6.41619,6.41619 0 0 1 1.71582,-0.22949 5.99544,5.99544 0 0 1 2.1709,0.39648 6.28635,6.28635 0 0 1 2.23535,-0.39648 c 2.88476,0 5.98926,2.0957 5.98926,6.69824 v 4.3457 a 3.50049,3.50049 0 0 1 -3.5,3.5 z"
     fill="#deddde"
     id="path161" />
  <path
     d="m 423.38739,80.46893 c 1.4176,0 2.48956,0.996 2.48956,3.19879 v 4.34534 h -2.23322 v -4.01349 c 0,-1.071 -0.34747,-1.68957 -1.08618,-1.68957 a 1.12218,1.12218 0 0 0 -1.05676,0.79944 1.93617,1.93617 0 0 0 -0.0902,0.58868 v 4.31494 h -2.23316 V 83.879 c 0,-0.9353 -0.33227,-1.569 -1.05584,-1.569 a 1.16765,1.16765 0 0 0 -1.0719,0.82983 1.526,1.526 0 0 0 -0.0903,0.573 v 4.30023 h -2.23316 v -5.02417 c 0,-0.92053 -0.0295,-1.70483 -0.0598,-2.35376 h 1.93123 l 0.10541,0.996 h 0.0456 a 2.55647,2.55647 0 0 1 2.23224,-1.16217 2.09114,2.09114 0 0 1 2.02234,1.25238 h 0.0304 a 3.29869,3.29869 0 0 1 0.95044,-0.89013 2.66265,2.66265 0 0 1 1.40332,-0.36225 m 0,-7 a 10.0328,10.0328 0 0 0 -2.24225,0.2482 9.50435,9.50435 0 0 0 -2.16425,-0.2482 10.09032,10.09032 0 0 0 -1.91669,0.18158 q -0.23154,-0.01528 -0.46656,-0.01538 h -1.93121 a 7,7 0 0 0 -6.99237,7.32672 c 0.0258,0.55216 0.0522,1.22476 0.0522,2.027 v 5.02417 a 7,7 0 0 0 7,7 h 2.23316 a 7.0821,7.0821 0 0 1 2.218,0 h 2.23316 a 7.08324,7.08324 0 0 1 2.23315,0 h 2.23322 a 7,7 0 0 0 7,-7 v -4.34533 c 0,-6.69558 -4.77387,-10.19879 -9.48956,-10.19879 z"
     fill="#ffffff"
     id="path163" />
  <path
     d="m 220.42766,73.07269 c -12.26074,0 -20.82373,-9.14648 -20.82373,-22.24316 0,-9.92334 5.09277,-18.06592 13.2998,-21.28516 a 21.8047,21.8047 0 0 1 9.26123,-1.98828 c 12.35645,0 20.98633,9.10205 20.98633,22.13428 0,10.25635 -4.92969,18.24853 -13.19531,21.40771 a 22.89925,22.89925 0 0 1 -9.52832,1.97461 z m -0.73535,-31.27588 c -1.95215,1.249 -3.15332,4.41993 -3.15332,8.38526 0,4.25244 1.43457,8.7959 5.46191,8.7959 a 4.251,4.251 0 0 0 1.09961,-0.14161 c 1.92969,-1.24169 3.11621,-4.41357 3.11621,-8.38916 0,-4.23632 -1.69238,-8.79541 -5.40723,-8.79541 a 4.33024,4.33024 0 0 0 -1.11723,0.14502 z"
     fill="#deddde"
     id="path165" />
  <path
     d="m 222.16485,31.05609 c 11.31177,0 17.48663,8.47016 17.48663,18.63422 0,9.20129 -4.2586,15.63067 -11.04382,18.17645 a 19.415,19.415 0 0 1 -8.18011,1.70624 c -10.92945,0 -17.32361,-8.25147 -17.32361,-18.74341 0,-8.53961 4.23211,-15.39215 11.17761,-18.06561 a 18.30893,18.30893 0 0 1 7.8833,-1.70789 m -0.16394,31.42151 a 7.81872,7.81872 0 0 0 2.50812,-0.41113 c 3.35034,-1.80579 5.20752,-6.19116 5.20752,-11.61908 0,-6.61243 -3.16944,-12.29547 -8.90674,-12.29547 a 7.85054,7.85054 0 0 0 -2.52551,0.41552 c -3.36011,1.80872 -5.24543,6.19123 -5.24543,11.61475 0,7.21338 3.38868,12.29541 8.962,12.29541 m 0.16394,-38.42151 a 25.28887,25.28887 0 0 0 -10.63834,2.26917 c -9.52072,3.78166 -15.42257,13.14541 -15.42257,24.50433 a 27.00245,27.00245 0 0 0 6.30466,17.92641 23.53242,23.53242 0 0 0 18.019,7.817 26.40424,26.40424 0 0 0 10.87695,-2.243 c 9.615,-3.7219 15.347,-12.91251 15.347,-24.63971 A 26.82011,26.82011 0 0 0 240.42343,31.95816 23.75241,23.75241 0 0 0 222.16488,24.05607 Z M 221.6484,55.4 c -1.01474,-0.45858 -1.60953,-2.87445 -1.60953,-5.21783 a 9.38337,9.38337 0 0 1 1.088,-4.93585 c 0.7929,0.46222 1.58969,2.57153 1.58969,5.20105 A 9.534,9.534 0 0 1 221.6484,55.4 Z"
     fill="#ffffff"
     id="path167" />
  <path
     d="m 265.73034,72.47211 a 3.5,3.5 0 0 1 -3.06152,-1.80469 L 256.2694,59.11273 v 9.376 a 5.34681,5.34681 0 0 1 -4.63671,3.9834 h -7.65039 a 3.50049,3.50049 0 0 1 -3.5,-3.5 V 32.14105 a 3.5021,3.5021 0 0 1 2.7207,-3.41308 3.48814,3.48814 0 0 1 1.916,-0.57032 h 9.72657 a 3.49953,3.49953 0 0 1 3.04492,1.77393 l 5.43359,9.58643 v -7.377 a 3.50211,3.50211 0 0 1 2.72071,-3.41308 3.48814,3.48814 0 0 1 1.916,-0.57032 h 7.65039 a 3.50017,3.50017 0 0 1 3.5,3.5 v 36.8311 a 5.34681,5.34681 0 0 1 -4.63672,3.9834 z"
     fill="#deddde"
     id="path169" />
  <path
     d="m 275.61132,31.65755 v 36.831 h -1.13678 V 68.972 h -8.74388 l -7.86872,-14.208 c -1.772,-3.1897 -3.68286,-6.91577 -5.30517,-10.51337 0.14093,4.02441 0.21283,8.31812 0.21283,13.145 v 11.093 h -1.13684 V 68.972 h -7.6504 V 32.141 h 1.13684 v -0.48344 h 9.7265 l 7.65045,13.49744 c 1.64459,2.91913 3.28888,6.24042 4.70081,9.4754 -0.27918,-3.72284 -0.37287,-7.56854 -0.37287,-11.7243 V 32.141 h 1.13678 v -0.48344 h 7.65045 m 0,-7 h -7.65045 a 6.96919,6.96919 0 0 0 -3.29523,0.82255 7.018,7.018 0 0 0 -3.685,2.80538 l -0.0452,-0.07968 a 7,7 0 0 0 -6.08978,-3.54825 h -9.7265 a 6.96867,6.96867 0 0 0 -3.29514,0.82249 7.00328,7.00328 0 0 0 -4.8417,6.661 V 68.972 a 7,7 0 0 0 7,7 h 7.65045 a 9.48678,9.48678 0 0 0 7.47546,-4.50936 l 0.49884,0.90075 a 7,7 0 0 0 6.12359,3.60861 h 8.74383 a 8.60415,8.60415 0 0 0 8.13678,-7.48345 v -36.831 a 7,7 0 0 0 -7,-7 z"
     fill="#ffffff"
     id="path171" />
  <path
     d="m 281.6903,72.47211 a 3.5005,3.5005 0 0 1 -3.5,-3.5 V 32.14105 a 3.50211,3.50211 0 0 1 2.72071,-3.41308 3.48814,3.48814 0 0 1 1.916,-0.57032 h 8.36035 a 3.50017,3.50017 0 0 1 3.5,3.5 v 26.33594 h 11.14551 a 3.50048,3.50048 0 0 1 3.5,3.5 v 6.99512 a 5.34681,5.34681 0 0 1 -4.63672,3.9834 z"
     fill="#deddde"
     id="path173" />
  <path
     d="M 291.1878,31.65755 V 61.4939 h 14.64508 v 6.99463 h -1.13684 V 68.972 H 281.69042 V 32.141 h 1.13678 v -0.48344 h 8.3606 m 0,-7 h -8.3606 a 6.9692,6.9692 0 0 0 -3.29528,0.82257 7.003,7.003 0 0 0 -4.8415,6.66087 v 36.831 a 7,7 0 0 0 7,7 h 23.00562 a 8.60423,8.60423 0 0 0 8.13684,-7.48345 V 61.4939 a 7,7 0 0 0 -7,-7 H 298.1878 V 31.65755 a 7,7 0 0 0 -7,-7 z"
     fill="#ffffff"
     id="path175" />
  <path
     d="m 309.61706,72.47211 a 3.50049,3.50049 0 0 1 -3.5,-3.5 V 32.14105 a 3.50211,3.50211 0 0 1 2.7207,-3.41308 3.4882,3.4882 0 0 1 1.916,-0.57032 h 8.36035 a 3.50017,3.50017 0 0 1 3.5,3.5 v 36.83106 a 5.34681,5.34681 0 0 1 -4.63672,3.9834 z"
     fill="#deddde"
     id="path177" />
  <path
     d="m 319.11395,31.65755 v 36.831 h -1.13678 V 68.972 h -8.3606 V 32.141 h 1.13684 v -0.48344 h 8.36054 m 0,-7 h -8.36054 a 6.96857,6.96857 0 0 0 -3.29516,0.82252 7.0032,7.0032 0 0 0 -4.84168,6.66092 v 36.831 a 7,7 0 0 0 7,7 h 8.3606 a 8.60415,8.60415 0 0 0 8.13678,-7.48345 v -36.831 a 7,7 0 0 0 -7,-7 z"
     fill="#ffffff"
     id="path179" />
  <path
     d="m 151.07458,72.47211 a 3.49984,3.49984 0 0 1 -3.49756,-3.36426 l -0.1875,-4.84473 -1.45459,4.666 a 6.07406,6.07406 0 0 1 -4.478,2.9414 H 134.954 a 3.50007,3.50007 0 0 1 -3.374,-2.56933 l -0.6084,-2.20606 -0.0732,1.55762 a 5.43735,5.43735 0 0 1 -4.63281,3.81934 H 118.561 a 3.50033,3.50033 0 0 1 -3.49268,-3.72266 l 2.34961,-36.831 a 3.5,3.5 0 0 1 2.71387,-3.18995 3.48512,3.48512 0 0 1 1.91553,-0.5708 h 11.09277 a 3.49982,3.49982 0 0 1 3.3584,2.51465 l 3.1582,10.76612 3.33154,-10.36817 a 3.50152,3.50152 0 0 1 2.55274,-2.3418 3.49579,3.49579 0 0 1 1.916,-0.5708 h 10.875 a 3.49983,3.49983 0 0 1 3.49463,3.30811 l 2.022,36.83154 a 5.25277,5.25277 0 0 1 -4.63135,4.17481 z"
     fill="#deddde"
     id="path181" />
  <path
     d="m 158.33215,31.65753 2.02173,36.831 h -1.16333 l 0.0265,0.48345 h -8.14229 l -0.5461,-14.09838 c -0.131,-3.53553 -0.2605,-7.66614 -0.30786,-11.91376 -0.97461,3.628 -2.09,7.34814 -3.146,10.55572 l -4.481,14.372 h -0.98614 l -0.15076,0.48346 h -6.50274 l -3.9339,-14.26282 c -0.85809,-3.07916 -1.74091,-6.631 -2.49524,-10.16 -0.13934,3.64191 -0.27655,7.3598 -0.46674,10.55109 l -0.65582,13.98926 h -1.11413 l -0.0226,0.48345 h -7.70477 l 2.34961,-36.831 h 1.106 l 0.0308,-0.48346 h 11.09247 l 3.60693,12.295 c 0.98242,3.64893 1.95178,7.52887 2.72845,11.28071 0.9076,-3.63154 1.92695,-7.496 2.91108,-10.85157 l 3.9339,-12.24066 h 0.98138 l 0.1554,-0.48346 h 10.87518 m 0,-7 H 147.457 a 6.98686,6.98686 0 0 0 -3.29566,0.82417 7.00135,7.00135 0 0 0 -4.34531,4.07137 7.00035,7.00035 0 0 0 -6.67617,-4.89554 h -11.0925 a 6.97367,6.97367 0 0 0 -3.295,0.82289 7.00267,7.00267 0 0 0 -4.82761,6.21491 l -2.34961,36.831 a 7,7 0 0 0 6.98578,7.44564 h 7.70474 a 12.92831,12.92831 0 0 0 5.00479,-1.64855 6.98519,6.98519 0 0 0 3.68371,1.04755 h 6.50274 a 13.90155,13.90155 0 0 0 4.67435,-1.443 6.98111,6.98111 0 0 0 4.94351,2.044 h 8.14234 a 7.78139,7.78139 0 0 0 8.12625,-7.86712 l -2.02173,-36.831 a 7,7 0 0 0 -6.98947,-6.61633 z"
     fill="#ffffff"
     id="path183" />
  <path
     d="m 181.24304,73.07269 c -12.26074,0 -20.82373,-9.14648 -20.82373,-22.24316 0,-9.92334 5.09277,-18.06592 13.2998,-21.28516 a 21.8063,21.8063 0 0 1 9.26123,-1.98828 c 12.35645,0 20.98633,9.10205 20.98633,22.13428 0,10.25635 -4.92969,18.24853 -13.19482,21.40771 a 22.90315,22.90315 0 0 1 -9.52881,1.97461 z m -0.73538,-31.27588 c -1.95215,1.249 -3.15332,4.41993 -3.15332,8.38526 0,4.25244 1.43505,8.7959 5.46191,8.7959 a 4.25747,4.25747 0 0 0 1.1001,-0.14161 c 1.9292,-1.24169 3.11572,-4.41357 3.11572,-8.38916 0,-4.23632 -1.69189,-8.79541 -5.40674,-8.79541 a 4.31,4.31 0 0 0 -1.11767,0.14502 z"
     fill="#deddde"
     id="path185" />
  <path
     d="m 182.98028,31.05609 c 11.31171,0 17.48657,8.47016 17.48657,18.63422 0,9.20129 -4.25854,15.63067 -11.04376,18.17645 a 19.415,19.415 0 0 1 -8.18011,1.70624 c -10.92951,0 -17.32361,-8.25147 -17.32361,-18.74341 0,-8.53961 4.23211,-15.39215 11.17761,-18.06561 a 18.30893,18.30893 0 0 1 7.8833,-1.70789 m -0.16394,31.42151 a 7.81872,7.81872 0 0 0 2.50812,-0.41113 c 3.35034,-1.80579 5.20752,-6.19116 5.20752,-11.61908 0,-6.61243 -3.16944,-12.29547 -8.90674,-12.29547 a 7.852,7.852 0 0 0 -2.5257,0.41558 c -3.36,1.80872 -5.2453,6.19123 -5.2453,11.61469 0,7.21338 3.38874,12.29541 8.9621,12.29541 m 0.16394,-38.42151 a 25.28911,25.28911 0 0 0 -10.63837,2.26917 c -9.52069,3.78166 -15.42254,13.14541 -15.42254,24.50433 a 27.00245,27.00245 0 0 0 6.30462,17.92641 23.53238,23.53238 0 0 0 18.019,7.817 26.40565,26.40565 0 0 0 10.8768,-2.24295 c 9.616,-3.72141 15.34707,-12.91181 15.34707,-24.63974 a 26.82025,26.82025 0 0 0 -6.228,-17.73212 23.75238,23.75238 0 0 0 -18.25852,-7.9021 z M 182.46383,55.4 c -1.0148,-0.45858 -1.60959,-2.87445 -1.60959,-5.21783 a 9.38394,9.38394 0 0 1 1.088,-4.93591 c 0.7929,0.46222 1.58975,2.57159 1.58975,5.20111 A 9.534,9.534 0 0 1 182.46383,55.4 Z"
     fill="#ffffff"
     id="path187" />
  <path
     d="m 343.66101,72.85492 c -7.57032,0 -13.26368,-1.94824 -17.40625,-5.957 -4.085,-3.82031 -6.32227,-9.49561 -6.25879,-15.939 0.0449,-9.69043 5.02636,-17.23779 13.67187,-20.70507 a 28.43957,28.43957 0 0 1 12.00391,-2.479 c 4.57422,0 8.96484,0.80567 11.74609,2.15479 a 3.49984,3.49984 0 0 1 1.8584,4.03662 l -1.74805,6.6665 a 3.50027,3.50027 0 0 1 -2.60547,2.52442 3.63092,3.63092 0 0 1 -0.38476,0.21826 3.50148,3.50148 0 0 1 -2.92188,0.06543 16.81537,16.81537 0 0 0 -7.19042,-1.29687 11.578,11.578 0 0 0 -3.7373,0.57471 c -2.5293,1.30908 -3.81152,3.78223 -3.81152,7.35449 0,5.25684 2.74121,8.35156 7.54589,8.56494 v -0.75635 h -2.18261 a 3.50017,3.50017 0 0 1 -3.5,-3.5 v -6.50294 a 3.50211,3.50211 0 0 1 2.7207,-3.41309 3.48825,3.48825 0 0 1 1.916,-0.57031 h 13.71584 a 3.50017,3.50017 0 0 1 3.5,3.5 v 19.39892 a 3.5006,3.5006 0 0 1 -2.36426,3.31055 c -0.13184,0.04492 -0.26856,0.09082 -0.41113,0.13672 a 3.494,3.494 0 0 1 -0.7334,0.34961 44.85022,44.85022 0 0 1 -13.42286,2.26367 z"
     fill="#deddde"
     id="path189" />
  <path
     d="m 345.67224,31.27483 a 25.36422,25.36422 0 0 1 10.21842,1.80348 l -1.74817,6.66675 c -0.292,-0.12635 -0.59845,-0.24768 -0.91418,-0.36548 l -0.2226,0.84894 a 20.40661,20.40661 0 0 0 -8.57983,-1.58472 14.94079,14.94079 0 0 0 -5.1095,0.84747 c -3.60486,1.75836 -5.93951,5.26782 -5.93951,10.58179 0,7.59564 4.75463,12.07666 11.58532,12.07666 a 17.41577,17.41577 0 0 0 2.961,-0.22064 v -7.54737 h -5.683 V 47.879 h 1.13684 v -0.48346 h 13.71563 v 19.39914 c -0.33911,0.11542 -0.723,0.23675 -1.13684,0.36011 v 0.12335 a 41.21736,41.21736 0 0 1 -12.29444,2.0766 c -6.722,0 -11.58526,-1.69434 -14.973,-4.9729 -3.38867,-3.16944 -5.24652,-7.97834 -5.1922,-13.38831 0.0394,-8.72156 4.58588,-14.7616 11.55762,-17.52417 a 25.04043,25.04043 0 0 1 10.61841,-2.19453 m 0,-7 a 31.93209,31.93209 0 0 0 -13.39008,2.76411 c -9.83966,3.98384 -15.73608,12.91132 -15.78589,23.92294 -0.0742,7.37567 2.54175,13.95377 7.36719,18.49167 4.75745,4.57959 11.41779,6.90119 19.79791,6.90119 a 48.17631,48.17631 0 0 0 14.55,-2.45 7.00967,7.00967 0 0 0 1.04065,-0.45092 l 0.0959,-0.03244 a 7,7 0 0 0 4.74469,-6.62671 V 47.39551 a 6.99389,6.99389 0 0 0 -3.18109,-5.86746 l 0.002,-0.0074 1.74817,-6.66675 a 7,7 0 0 0 -3.71668,-8.074 c -3.23456,-1.56854 -8.19635,-2.505 -13.27276,-2.505 z"
     fill="#ffffff"
     id="path191" />
  <path
     d="m 384.53894,72.47211 a 3.50049,3.50049 0 0 1 -3.5,-3.5 V 57.062 h -5.57911 v 11.42671 a 5.34681,5.34681 0 0 1 -4.63671,3.9834 h -8.36036 a 3.5005,3.5005 0 0 1 -3.5,-3.5 V 32.14105 a 3.50211,3.50211 0 0 1 2.72071,-3.41308 3.48814,3.48814 0 0 1 1.916,-0.57032 h 8.36035 a 3.50017,3.50017 0 0 1 3.5,3.5 V 42.311 h 5.57911 V 32.14105 a 3.5021,3.5021 0 0 1 2.72073,-3.41305 3.48814,3.48814 0 0 1 1.916,-0.57032 h 8.30665 a 3.50018,3.50018 0 0 1 3.5,3.5 v 36.83103 a 5.34683,5.34683 0 0 1 -4.63672,3.9834 z"
     fill="#deddde"
     id="path193" />
  <path
     d="m 393.98187,31.65755 v 36.831 h -1.13678 V 68.972 h -8.30628 v -15.41 h -12.57885 v 14.92653 h -1.13684 V 68.972 h -8.36054 V 32.141 h 1.13678 v -0.48344 h 8.3606 v 14.15323 h 12.57885 V 32.141 h 1.13678 v -0.48344 h 8.30628 m 0,-7 h -8.30628 a 6.96912,6.96912 0 0 0 -3.29522,0.82255 7.02023,7.02023 0 0 0 -4.013,3.35442 7.0016,7.0016 0 0 0 -6.40741,-4.177 h -8.3606 a 6.969,6.969 0 0 0 -3.29523,0.82255 7.00306,7.00306 0 0 0 -4.84155,6.66089 V 68.972 a 7,7 0 0 0 7,7 h 8.36054 a 9.644,9.644 0 0 0 7.30828,-4.177 7.00158,7.00158 0 0 0 6.40741,4.177 h 8.30628 a 8.60415,8.60415 0 0 0 8.13678,-7.48345 v -36.831 a 7,7 0 0 0 -7,-7 z"
     fill="#ffffff"
     id="path195" />
  <path
     d="m 407.2196,72.47211 a 3.50049,3.50049 0 0 1 -3.5,-3.5 V 42.63568 h -6.39063 a 3.50017,3.50017 0 0 1 -3.5,-3.5 v -6.99463 a 3.50211,3.50211 0 0 1 2.72069,-3.41305 3.48814,3.48814 0 0 1 1.916,-0.57032 h 28.30664 a 3.50017,3.50017 0 0 1 3.5,3.5 v 6.99463 a 3.50211,3.50211 0 0 1 -2.7207,3.41309 3.48821,3.48821 0 0 1 -1.916,0.57031 h -5.41794 v 25.853 a 5.34683,5.34683 0 0 1 -4.63672,3.9834 z"
     fill="#deddde"
     id="path197" />
  <path
     d="m 426.77233,31.65755 v 6.99461 h -1.13684 v 0.48346 h -8.9176 v 29.35291 h -1.13678 V 68.972 h -8.36157 V 39.13562 H 397.3291 V 32.141 h 1.13678 v -0.48344 h 28.30645 m 0,-7 h -28.30645 a 6.96921,6.96921 0 0 0 -3.29529,0.82257 7.003,7.003 0 0 0 -4.84149,6.66087 v 6.99463 a 7,7 0 0 0 7,7 h 2.89044 V 68.972 a 7,7 0 0 0 7,7 h 8.36157 a 8.60415,8.60415 0 0 0 8.13678,-7.48345 V 46.13562 h 1.9176 a 6.969,6.969 0 0 0 3.29517,-0.82251 7.00324,7.00324 0 0 0 4.84167,-6.66095 v -6.99461 a 7,7 0 0 0 -7,-7 z"
     fill="#ffffff"
     id="path199" />
  <path
     d="m 56.84166,110.50043 a 54.50129,54.50129 0 1 1 16.76758,-2.70606 53.39931,53.39931 0 0 1 -16.76758,2.70606 z M 62.26744,84.42426 A 27.43087,27.43087 0 0 0 66.015,83.55804 27.71291,27.71291 0 0 0 72.18785,80.51312 L 62.26744,70.5932 Z M 42.28453,80.07758 a 27.56128,27.56128 0 0 0 9.03418,3.94824 V 71.0434 Z M 79.95592,72.8725 a 27.497,27.497 0 0 0 4.17969,-9.707 h -13.8872 z m -49.37549,-9.707 a 27.50364,27.50364 0 0 0 4.25391,9.59961 L 44.43443,63.1655 Z M 84.44322,52.8569 A 28.02385,28.02385 0 0 0 80.32848,42.03366 L 69.50524,52.85687 Z m -39.91162,0 -10.585,-10.585 a 27.45078,27.45078 0 0 0 -3.80225,10.585 z M 62.26744,45.33249 73.13466,34.46576 A 27.9963,27.9963 0 0 0 62.26747,29.7514 Z M 51.31871,44.23581 V 29.76508 a 23.39191,23.39191 0 0 0 -9.97559,4.49511 z"
     fill="#deddde"
     id="path201" />
  <path
     d="M 57.8045,7 A 50.99932,50.99932 0 1 1 42.07421,9.54852 49.83854,49.83854 0 0 1 57.8045,7 m 0.963,46.78223 19.56568,-19.56568 A 31.31872,31.31872 0 0 0 58.7675,25.7798 V 53.78223 M 54.81866,52.68561 V 25.78717 a 28.49494,28.49494 0 0 0 -18.65234,8.24609 l 18.65234,18.65235 m 23.8399,-18.15442 0.002,-0.0023 c -0.0322,-0.031 -0.0647,-0.06158 -0.097,-0.09247 l 0.0947,0.09473 M 61.05542,56.357 H 88.26715 A 31.30338,31.30338 0 0 0 80.71066,36.70172 L 61.05542,56.357 m -34.6847,0 H 52.9815 L 33.50457,36.88007 A 31.30852,31.30852 0 0 0 26.37072,56.357 m 53.89606,21.77674 a 31.3121,31.3121 0 0 0 7.91241,-18.4679 H 61.79888 l 18.4679,18.4679 M 34.54724,78.00257 52.88397,59.66584 H 26.49145 a 31.32129,31.32129 0 0 0 8.05579,18.33673 M 58.76751,88.26008 A 28.43984,28.43984 0 0 0 77.4909,80.8664 L 58.76751,62.143 V 88.26007 M 54.81866,88.13953 V 62.59375 L 37.00183,80.41058 a 31.30793,31.30793 0 0 0 17.81683,7.72895 M 57.8045,0 a 56.75179,56.75179 0 0 0 -17.86984,2.88318 57.31777,57.31777 0 0 0 -28.61753,20.24274 56.83855,56.83855 0 0 0 63.39716,87.99 57.31913,57.31913 0 0 0 28.615,-20.24228 A 56.84154,56.84154 0 0 0 57.8045,0 Z m 7.963,36.88275 v -2.47269 q 0.8736,0.34329 1.7197,0.753 l -1.7197,1.71966 z M 46.96092,34.92841 q 0.42422,-0.2099 0.85773,-0.40372 v 1.26144 z m 30.994,14.42858 1.48651,-1.48648 q 0.3014,0.7338 0.55515,1.48648 z m -43.43472,0 q 0.18672,-0.58451 0.40307,-1.15872 l 1.15876,1.15872 z m 44.17816,17.30884 h 0.67474 q -0.0997,0.23658 -0.20428,0.47049 z m -43.28986,0 h 0.576 l -0.3974,0.3974 q -0.0912,-0.19812 -0.17859,-0.3974 z m 30.359,13.25345 v -0.8768 l 0.62274,0.62271 q -0.3093,0.13125 -0.62274,0.25409 z"
     fill="#ffffff"
     id="path203" />
  <path
     d="m 284.92886,87.28484 a 4.2779,4.2779 0 0 1 -2.71235,0.82237 6.41261,6.41261 0 0 1 -2.09252,-0.30748 4.218,4.218 0 0 1 -1.62033,-1.03222 l 1.28724,-1.28358 a 2.62744,2.62744 0 0 0 1.07737,0.65643 4.42161,4.42161 0 0 0 1.37875,0.20254 c 1.19816,0 1.79968,-0.42338 1.79968,-1.26283 a 1.17775,1.17775 0 0 0 -0.27209,-0.82725 1.59259,1.59259 0 0 0 -0.94438,-0.39288 l -0.57224,-0.08785 -0.65765,-0.083 a 3.4592,3.4592 0 0 1 -1.97661,-0.84311 2.69351,2.69351 0 0 1 -0.72964,-1.99735 2.84036,2.84036 0 0 1 0.95658,-2.23234 3.75711,3.75711 0 0 1 2.59033,-0.84921 5.5018,5.5018 0 0 1 1.85337,0.27819 3.87205,3.87205 0 0 1 1.42755,0.90777 l -1.25551,1.24161 a 2.21913,2.21913 0 0 0 -0.94926,-0.55516 4.29675,4.29675 0 0 0 -1.13594,-0.14349 1.68307,1.68307 0 0 0 -1.164,0.36311 1.17631,1.17631 0 0 0 -0.40753,0.91876 0.99563,0.99563 0 0 0 0.31358,0.71743 1.57152,1.57152 0 0 0 0.92974,0.40752 l 0.6125,0.08419 0.58811,0.08663 a 5.174,5.174 0 0 1 1.14814,0.28673 2.38267,2.38267 0 0 1 0.79309,0.50026 2.82484,2.82484 0 0 1 0.78576,2.15962 2.72121,2.72121 0 0 1 -1.05174,2.26459 z m 8.52625,-7.67753 v 8.40717 h -1.9888 v -8.40717 h -2.65745 v -1.76553 h 7.30369 v 1.76553 z m 6.84126,8.406 V 77.84117 h 6.70583 v 1.76553 h -4.71213 v 2.39987 h 4.013 v 1.76552 h -4.013 v 2.47564 h 4.71213 v 1.76553 z m 16.99761,0 -0.59786,-1.80213 h -3.61524 l -0.61494,1.80213 h -2.07055 l 3.70064,-10.17209 h 1.55563 l 3.719,10.17204 z m -2.36949,-7.17192 -1.286,3.69455 h 2.52811 z m 15.19548,7.17192 v -5.92622 l -1.9278,3.858 h -1.34214 l -1.95221,-3.858 v 5.92617 h -1.9888 V 77.84117 h 1.96441 l 2.64767,5.499 2.63548,-5.499 h 1.96441 v 10.17209 z"
     id="path205" />
  <path
     d="m 273.96794,77.07593 a 4.01819,4.01819 0 0 0 -4.9224,2.82711 c -0.005,0.01711 -0.009,0.03422 -0.0126,0.05062 l -3.47483,2.94507 a 2.91106,2.91106 0 0 0 -1.252,-0.11179 2.87606,2.87606 0 0 0 -0.54572,0.12267 l -9.99313,-7.69151 a 2.92806,2.92806 0 1 0 -2.55406,2.75275 3.11762,3.11762 0 0 0 0.522,-0.11649 l 10.01516,7.709 a 2.92988,2.92988 0 0 0 5.7743,0.82008 l 4.26074,-1.58265 q 0.0436,0.01337 0.0876,0.02526 a 4.0141403,4.0141403 0 0 0 2.09494,-7.75013 m -24.5081,-0.22484 a 2.26376,2.26376 0 0 1 -0.79774,-2.38026 2.23146,2.23146 0 0 1 0.394,-0.79007 2.25617,2.25617 0 0 1 4.01128,0.99772 l -1.14689,-0.88291 a 1.66473,1.66473 0 0 0 -2.03752,2.63321 l 1.15054,0.88494 a 2.23458,2.23458 0 0 1 -1.5737,-0.46263 m 17.00425,10.22622 a 2.25639,2.25639 0 0 1 -4.00677,-0.96975 l 1.12023,0.86311 a 1.66436,1.66436 0 1 0 2.03774,-2.6321 l -1.15814,-0.89172 a 2.25879,2.25879 0 0 1 2.00693,3.63045 m 5.75844,-3.54439 a 2.67457,2.67457 0 1 1 3.28,-1.88448 2.6779,2.6779 0 0 1 -3.28,1.88448 m 0.17889,-0.64626 a 2.00909,2.00909 0 1 1 2.4641,-1.4146 2.00838,2.00838 0 0 1 -2.4641,1.4146"
     id="path207" />
  <path
     id="NVIDIA"
     d="m 160.19841,77.9904 0.001,10.14692 h 2.86563 V 77.9904 Z m -22.54348,-0.014 v 10.16092 h 2.89126 V 80.422 l 2.23975,8.5e-4 a 2.107,2.107 0 0 1 1.62794,0.566 c 0.45325,0.48311 0.6382,1.26176 0.6382,2.68678 v 4.46165 h 2.80136 v -5.61374 c 0,-4.00678 -2.554,-4.5471 -5.05253,-4.5471 z m 27.15765,0.01429 v 10.14663 h 4.64808 c 2.47655,0 3.28481,-0.412 4.1588,-1.33531 a 5.68241,5.68241 0 0 0 1.0173,-3.62648 6.02231,6.02231 0 0 0 -0.9276,-3.491 c -1.06174,-1.417 -2.59111,-1.69382 -4.87462,-1.69382 z M 167.65512,80.2 h 1.23216 c 1.78762,0 2.94367,0.80281 2.94367,2.88545 0,2.08332 -1.156,2.88612 -2.94367,2.88612 h -1.23216 z m -11.58853,-2.2093 -2.39169,8.04181 -2.29168,-8.04146 -3.09348,-3.5e-4 3.2729,10.14659 h 4.13029 l 3.2986,-10.14659 z m 19.90357,10.14662 h 2.86622 V 77.99108 l -2.8669,-3.5e-4 z m 8.03348,-10.143 -4.0015,10.1396 h 2.82552 l 0.63327,-1.79221 h 4.73554 l 0.5994,1.79221 h 3.06794 l -4.03215,-10.14045 z m 1.86032,1.84992 1.73586,4.75019 h -3.52673 z" />
  <path
     id="Eye_Mark"
     data-name="Eye Mark"
     d="m 118.50217,79.6074 v -1.48564 c 0.14415,-0.01027 0.28987,-0.01794 0.43833,-0.02262 4.06318,-0.1277 6.72892,3.49124 6.72892,3.49124 0,0 -2.87913,3.99887 -5.96608,3.99887 a 3.74266,3.74266 0 0 1 -1.20117,-0.19208 v -4.50489 c 1.58176,0.1911 1.89979,0.88983 2.851,2.475 l 2.11509,-1.78328 a 5.60047,5.60047 0 0 0 -4.14654,-2.0249 7.64287,7.64287 0 0 0 -0.81955,0.04835 m 0,-4.90753 v 2.21906 c 0.14582,-0.01157 0.29184,-0.02075 0.43833,-0.02614 5.65039,-0.19032 9.33169,4.634 9.33169,4.634 0,0 -4.22845,5.14167 -8.63338,5.14167 a 6.49619,6.49619 0 0 1 -1.13664,-0.10017 V 87.94 a 7.4816,7.4816 0 0 0 0.94653,0.06132 c 4.0994,0 7.064,-2.09332 9.9346,-4.57113 0.47557,0.38111 2.42422,1.30813 2.825,1.7145 -2.72975,2.28488 -9.09048,4.12647 -12.69652,4.12647 -0.34749,0 -0.68176,-0.021 -1.0096,-0.05249 v 1.92769 h 15.58068 V 74.69987 Z m 0,10.6973 v 1.17112 c -3.79148,-0.676 -4.84376,-4.61718 -4.84376,-4.61718 a 8.196,8.196 0 0 1 4.84376,-2.34371 v 1.28488 l -0.006,-6.3e-4 a 3.6384,3.6384 0 0 0 -2.82618,1.292 5.05,5.05 0 0 0 2.83209,3.21357 m -6.73406,-3.61683 a 9.39,9.39 0 0 1 6.73406,-3.65858 v -1.20293 c -4.96971,0.3988 -9.27338,4.60786 -9.27338,4.60786 0,0 2.43729,7.0468 9.27338,7.69189 V 87.94 c -5.01639,-0.63117 -6.73406,-6.15966 -6.73406,-6.15966 z"
     fill="#80bc00" />
  <path
     d="m 199.13766,77.99954 v 10.1694 h -2.30821 v -10.1694 z"
     fill="#333333"
     id="path211" />
  <path
     d="m 201.09747,83.14476 c 0,-0.92052 -0.0295,-1.7048 -0.0598,-2.35376 h 1.99109 l 0.1063,1.01073 h 0.0447 a 2.70254,2.70254 0 0 1 2.27872,-1.17688 c 1.50873,0 2.6405,0.996 2.6405,3.16842 v 4.37567 h -2.29391 V 84.08 c 0,-0.95044 -0.3314,-1.5994 -1.16125,-1.5994 a 1.22426,1.22426 0 0 0 -1.16214,0.86022 1.56861,1.56861 0 0 0 -0.0902,0.57348 v 4.25463 h -2.29391 z"
     fill="#333333"
     id="path213" />
  <path
     d="m 213.42277,83.44623 v 1.52392 h -3.9527 v -1.52392 z"
     fill="#333333"
     id="path215" />
  <path
     d="m 217.17807,77.99954 v 3.908 h 3.78745 v -3.908 h 2.293 v 10.1694 h -2.293 v -4.25463 h -3.78745 v 4.25463 h -2.3082 v -10.1694 z"
     fill="#333333"
     id="path217" />
  <path
     d="m 232.42971,84.39712 a 3.7023,3.7023 0 0 1 -3.89286,3.938 3.61435,3.61435 0 0 1 -3.81782,-3.80219 3.68327,3.68327 0 0 1 3.93841,-3.908 3.58827,3.58827 0 0 1 3.77227,3.77219 z m -5.34174,0.07548 c 0,1.2671 0.52793,2.21753 1.50873,2.21753 0.89059,0 1.46407,-0.89014 1.46407,-2.21753 0,-1.1014 -0.42252,-2.218 -1.46407,-2.218 -1.1014,2e-5 -1.50873,1.13134 -1.50873,2.218 z"
     fill="#333333"
     id="path219" />
  <path
     d="m 233.84554,83.14476 c 0,-0.92052 -0.0295,-1.7048 -0.0599,-2.35376 h 1.93124 l 0.10541,0.996 h 0.0456 a 2.55663,2.55663 0 0 1 2.23227,-1.16214 2.09118,2.09118 0 0 1 2.02236,1.25236 h 0.0304 a 3.29887,3.29887 0 0 1 0.95044,-0.89014 2.66236,2.66236 0 0 1 1.40332,-0.36222 c 1.41761,0 2.48953,0.996 2.48953,3.19879 v 4.3453 h -2.23316 v -4.01346 c 0,-1.071 -0.34748,-1.68962 -1.08622,-1.68962 a 1.12213,1.12213 0 0 0 -1.05673,0.79948 1.93493,1.93493 0 0 0 -0.0902,0.58866 v 4.31493 h -2.2332 v -4.134 c 0,-0.93525 -0.33229,-1.569 -1.05584,-1.569 a 1.16772,1.16772 0 0 0 -1.07192,0.82985 1.52671,1.52671 0 0 0 -0.0902,0.573 v 4.30019 h -2.23317 z"
     fill="#333333"
     id="path221" />
  <path
     d="m 248.58355,85.21178 c 0.075,0.95043 1.01029,1.40332 2.08132,1.40332 a 6.50328,6.50328 0 0 0 2.03754,-0.30193 l 0.301,1.55384 a 7.27329,7.27329 0 0 1 -2.67,0.45289 c -2.50472,0 -3.93841,-1.44843 -3.93841,-3.75708 a 3.69574,3.69574 0 0 1 3.72671,-3.938 c 2.38413,0 3.2899,1.85576 3.2899,3.6816 a 5.4186,5.4186 0 0 1 -0.0759,0.90533 z m 2.70035,-1.569 a 1.332,1.332 0 0 0 -1.29792,-1.494 1.50488,1.50488 0 0 0 -1.41761,1.494 z"
     fill="#333333"
     id="path223" />
  <path
     d="m 348.84066,87.54544 a 11.38831,11.38831 0 0 1 -3.39441,0.573 5.66606,5.66606 0 0 1 -4.13405,-1.373 4.92078,4.92078 0 0 1 -1.43369,-3.69634 c 0.0152,-3.37968 2.47435,-5.31092 5.80892,-5.31092 a 7.00264,7.00264 0 0 1 2.82183,0.498 l -0.48326,1.84058 a 5.63851,5.63851 0 0 0 -2.36894,-0.4377 3.31324,3.31324 0 1 0 0.96562,6.47306 V 83.98443 H 345.0541 V 82.189 h 3.78656 z"
     fill="#333333"
     id="path225" />
  <path
     d="m 354.8738,88.01306 -0.13578,-0.73918 h -0.0456 a 2.65757,2.65757 0 0 1 -2.11168,0.90533 2.2616,2.2616 0 0 1 -2.38413,-2.26354 c 0,-1.91606 1.71954,-2.83612 4.32967,-2.82138 v -0.10541 c 0,-0.39214 -0.21082,-0.95044 -1.34259,-0.95044 a 4.14688,4.14688 0 0 0 -2.03664,0.5583 l -0.42252,-1.47881 a 6.088,6.088 0 0 1 2.86649,-0.649 c 2.45917,0 3.24435,1.44844 3.24435,3.18361 v 2.565 a 11.37419,11.37419 0 0 0 0.10541,1.79547 z m -0.27156,-3.48508 c -1.2068,-0.01519 -2.14294,0.27155 -2.14294,1.16169 a 0.82425,0.82425 0 0 0 0.90577,0.875 1.25262,1.25262 0 0 0 1.19162,-0.845 1.63279,1.63279 0 0 0 0.0455,-0.39215 z"
     fill="#333333"
     id="path227" />
  <path
     d="m 358.64338,82.98888 c 0,-0.92051 -0.0295,-1.7048 -0.0598,-2.35376 h 1.93125 l 0.1054,0.996 h 0.0456 a 2.55664,2.55664 0 0 1 2.23227,-1.16214 2.09119,2.09119 0 0 1 2.02236,1.25236 h 0.0304 a 3.29926,3.29926 0 0 1 0.95044,-0.89014 2.66236,2.66236 0 0 1 1.40332,-0.36222 c 1.41762,0 2.48954,0.996 2.48954,3.19879 v 4.3453 h -2.23317 v -4.01346 c 0,-1.071 -0.34748,-1.68961 -1.08621,-1.68961 a 1.12212,1.12212 0 0 0 -1.05674,0.79947 1.935,1.935 0 0 0 -0.0902,0.58866 v 4.31493 h -2.23317 V 83.879 c 0,-0.93525 -0.33229,-1.569 -1.05584,-1.569 a 1.16773,1.16773 0 0 0 -1.07192,0.82984 1.527,1.527 0 0 0 -0.0902,0.573 v 4.30019 h -2.23317 z"
     fill="#333333"
     id="path229" />
  <path
     d="m 373.3814,85.0559 c 0.075,0.95044 1.01028,1.40332 2.08131,1.40332 a 6.50358,6.50358 0 0 0 2.03754,-0.30192 l 0.301,1.55384 a 7.27345,7.27345 0 0 1 -2.67,0.45288 c -2.50472,0 -3.93842,-1.44843 -3.93842,-3.75708 a 3.69574,3.69574 0 0 1 3.72671,-3.938 c 2.38413,0 3.28991,1.85577 3.28991,3.6816 a 5.41823,5.41823 0 0 1 -0.0759,0.90533 z m 2.70034,-1.569 a 1.332,1.332 0 0 0 -1.29791,-1.494 1.50489,1.50489 0 0 0 -1.41762,1.494 z"
     fill="#333333"
     id="path231" />
  <path
     d="m 379.73074,85.64412 a 5.86665,5.86665 0 0 0 2.55028,0.63377 c 1.05584,0 1.61413,-0.43725 1.61413,-1.1014 0,-0.63377 -0.48236,-0.99554 -1.70525,-1.43325 -1.68916,-0.58866 -2.79056,-1.52391 -2.79056,-3.00271 0,-1.73473 1.448,-3.06257 3.8473,-3.06257 a 6.23389,6.23389 0 0 1 2.59494,0.51274 l -0.51273,1.85621 a 4.82884,4.82884 0 0 0 -2.12777,-0.48326 c -0.996,0 -1.47835,0.45288 -1.47835,0.98081 0,0.64895 0.57347,0.93569 1.88568,1.43369 1.79547,0.6637 2.6405,1.599 2.6405,3.03264 0,1.7048 -1.31221,3.15323 -4.10367,3.15323 a 6.65345,6.65345 0 0 1 -2.88168,-0.61858 z"
     fill="#333333"
     id="path233" />
  <path
     d="m 390.21591,78.523 v 2.11213 h 1.6445 v 1.68962 h -1.6445 v 2.67087 c 0,0.89014 0.21081,1.29747 0.90488,1.29747 a 3.76965,3.76965 0 0 0 0.67888,-0.0603 l 0.0152,1.73517 a 4.50319,4.50319 0 0 1 -1.49354,0.19607 2.386,2.386 0 0 1 -1.72044,-0.63377 3.06076,3.06076 0 0 1 -0.63332,-2.18761 v -3.0179 h -0.98081 v -1.68963 h 0.98081 v -1.59939 z"
     fill="#333333"
     id="path235" />
  <path
     d="m 393.18602,83.06436 c 0,-1.08621 -0.0295,-1.79547 -0.0598,-2.42924 h 1.97591 l 0.0759,1.35777 h 0.0598 a 2.16847,2.16847 0 0 1 1.992,-1.52392 2.35554,2.35554 0 0 1 0.48326,0.03038 V 82.657 a 3.27987,3.27987 0 0 0 -0.619,-0.06029 1.47457,1.47457 0 0 0 -1.56947,1.16169 2.7639,2.7639 0 0 0 -0.0447,0.51274 v 3.74189 h -2.29391 z"
     fill="#333333"
     id="path237" />
  <path
     d="m 400.56352,85.0559 c 0.075,0.95044 1.01028,1.40332 2.08131,1.40332 a 6.50358,6.50358 0 0 0 2.03754,-0.30192 l 0.301,1.55384 a 7.27349,7.27349 0 0 1 -2.67,0.45288 c -2.50472,0 -3.93842,-1.44843 -3.93842,-3.75708 a 3.69574,3.69574 0 0 1 3.72671,-3.938 c 2.38413,0 3.28991,1.85577 3.28991,3.6816 a 5.41823,5.41823 0 0 1 -0.0759,0.90533 z m 2.70034,-1.569 a 1.332,1.332 0 0 0 -1.29791,-1.494 1.50488,1.50488 0 0 0 -1.41762,1.494 z"
     fill="#333333"
     id="path239" />
  <path
     d="m 410.95666,88.01306 -0.13578,-0.73918 h -0.0456 a 2.6576,2.6576 0 0 1 -2.11169,0.90533 2.26161,2.26161 0 0 1 -2.38413,-2.26354 c 0,-1.91606 1.71954,-2.83612 4.32967,-2.82138 v -0.10541 c 0,-0.39214 -0.21081,-0.95044 -1.34258,-0.95044 a 4.14689,4.14689 0 0 0 -2.03665,0.5583 l -0.42252,-1.47881 a 6.088,6.088 0 0 1 2.8665,-0.649 c 2.45916,0 3.24434,1.44844 3.24434,3.18361 v 2.565 a 11.37419,11.37419 0 0 0 0.10541,1.79547 z m -0.27155,-3.48508 c -1.20681,-0.01519 -2.14295,0.27155 -2.14295,1.16169 a 0.82425,0.82425 0 0 0 0.90577,0.875 1.25261,1.25261 0 0 0 1.19162,-0.845 1.63278,1.63278 0 0 0 0.0456,-0.39215 z"
     fill="#333333"
     id="path241" />
  <path
     d="m 414.72627,82.98888 c 0,-0.92051 -0.0295,-1.7048 -0.0598,-2.35376 h 1.93119 l 0.10541,0.996 h 0.0455 a 2.55666,2.55666 0 0 1 2.23228,-1.16214 2.09118,2.09118 0 0 1 2.02235,1.25236 h 0.0304 a 3.2991,3.2991 0 0 1 0.95043,-0.89014 2.66238,2.66238 0 0 1 1.40332,-0.36222 c 1.41762,0 2.48954,0.996 2.48954,3.19879 v 4.3453 h -2.23317 v -4.01346 c 0,-1.071 -0.34748,-1.68961 -1.08621,-1.68961 a 1.12214,1.12214 0 0 0 -1.05674,0.79947 1.93529,1.93529 0 0 0 -0.0902,0.58866 v 4.31493 h -2.23316 V 83.879 c 0,-0.93525 -0.3323,-1.569 -1.05584,-1.569 a 1.16774,1.16774 0 0 0 -1.07193,0.82984 1.527,1.527 0 0 0 -0.0902,0.573 v 4.30019 h -2.23316 z"
     fill="#333333"
     id="path243" />
  <path
     d="M 106.68004,57.16149 A 49.83852,49.83852 0 1 1 56.84153,7.323 49.83851,49.83851 0 0 1 106.68004,57.16149 Z M 56.84153,25.71556 A 31.44594,31.44594 0 1 0 88.28746,57.16149 31.44594,31.44594 0 0 0 56.84153,25.71556 Z"
     fill="#a3a1a3"
     id="path245" />
  <rect
     x="54.818661"
     y="25.715561"
     width="2.9858501"
     height="62.891869"
     fill="#a3a1a3"
     id="rect247" />
  <rect
     x="24.688837"
     y="56.68"
     width="63.59861"
     height="2.9858501"
     fill="#a3a1a3"
     id="rect249" />
  <rect
     x="-32.990627"
     y="79.584717"
     width="64.193352"
     height="2.9858501"
     transform="rotate(-45)"
     fill="#a3a1a3"
     id="rect251" />
  <rect
     x="-2.3868675"
     y="48.980957"
     width="2.9858501"
     height="63.255531"
     transform="rotate(-45)"
     fill="#a3a1a3"
     id="rect253" />
  <path
     d="m 150.52866,54.8736 c -0.16395,-4.42622 -0.3279,-9.78183 -0.3279,-15.13694 h -0.164 c -1.14766,4.6993 -2.67755,9.94528 -4.0988,14.26236 l -4.481,14.372 h -6.50278 l -3.93387,-14.26285 c -1.203,-4.31659 -2.45928,-9.56257 -3.33337,-14.3715 h -0.10963 c -0.21827,4.97289 -0.38222,10.6559 -0.65581,15.24607 L 126.26566,68.972 h -7.70477 l 2.34965,-36.831 H 132.003 l 3.60695,12.295 c 1.14766,4.26276 2.29533,8.85293 3.11509,13.16952 h 0.16395 c 1.038,-4.26227 2.29533,-9.12553 3.49732,-13.22384 L 146.32017,32.141 h 10.87517 l 2.02175,36.831 h -8.1423 z"
     fill="#a4a1a4"
     id="path255" />
  <path
     d="m 199.33008,50.1738 c 0,12.07666 -7.32254,19.3992 -18.08709,19.3992 -10.92949,0 -17.32363,-8.25144 -17.32363,-18.74339 0,-11.03814 7.05,-19.29007 17.92413,-19.29007 11.31171,0 17.48659,8.47021 17.48659,18.63426 z m -26.61261,0.49185 c 0,7.21341 3.38868,12.29543 8.96207,12.29543 5.62869,0 8.85243,-5.3556 8.85243,-12.5137 0,-6.61241 -3.16942,-12.29543 -8.90676,-12.29543 -5.62869,5e-5 -8.90774,5.35512 -8.90774,12.5137 z"
     fill="#a4a1a4"
     id="path257" />
  <path
     d="m 238.51466,50.1738 c 0,12.07666 -7.32254,19.3992 -18.08709,19.3992 -10.92949,0 -17.32363,-8.25144 -17.32363,-18.74339 0,-11.03814 7.05,-19.29007 17.92413,-19.29007 11.31172,0 17.48659,8.47021 17.48659,18.63426 z m -26.6126,0.49185 c 0,7.21341 3.38867,12.29543 8.96206,12.29543 5.6287,0 8.85243,-5.3556 8.85243,-12.5137 0,-6.61241 -3.16941,-12.29543 -8.90675,-12.29543 -5.6287,5e-5 -8.90774,5.35512 -8.90774,12.5137 z"
     fill="#a4a1a4"
     id="path259" />
  <path
     d="M 243.98237,68.972 V 32.141 h 9.72652 l 7.65044,13.49741 a 106.79916,106.79916 0 0 1 6.01093,12.62284 h 0.16395 A 136.74418,136.74418 0 0 1 266.82408,42.90604 V 32.141 h 7.65044 v 36.831 h -8.74379 l -7.86872,-14.208 a 136.61678,136.61678 0 0 1 -6.39315,-13.00556 l -0.16395,0.05481 c 0.21828,4.86326 0.32791,10.05492 0.32791,16.06584 V 68.972 Z"
     fill="#a4a1a4"
     id="path261" />
  <path
     d="m 281.6904,32.141 h 8.36057 v 29.83637 h 14.64509 V 68.972 H 281.6904 Z"
     fill="#a4a1a4"
     id="path263" />
  <path
     d="M 317.97717,32.141 V 68.972 H 309.6166 V 32.141 Z"
     fill="#a4a1a4"
     id="path265" />
  <path
     d="m 355.95582,67.27816 a 41.21723,41.21723 0 0 1 -12.29444,2.07657 c -6.722,0 -11.5853,-1.69434 -14.973,-4.97289 -3.38867,-3.16942 -5.24647,-7.97835 -5.19215,-13.38828 0.0553,-12.24062 8.96206,-19.23525 21.03922,-19.23525 a 25.36414,25.36414 0 0 1 10.21837,1.80347 l -1.74816,6.66673 a 20.407,20.407 0 0 0 -8.57984,-1.5847 c -6.94032,0 -12.1858,3.93436 -12.1858,11.91271 0,7.59563 4.75462,12.07666 11.5853,12.07666 a 11.14908,11.14908 0 0 0 4.09782,-0.54667 v -7.70477 h -5.683 V 47.879 h 13.71569 z"
     fill="#a4a1a4"
     id="path267" />
  <path
     d="m 370.82313,32.141 v 14.15325 h 13.71569 V 32.141 h 8.30625 v 36.831 h -8.30625 v -15.41 h -13.71569 v 15.41 h -8.36058 V 32.141 Z"
     fill="#a4a1a4"
     id="path269" />
  <path
     d="m 407.21954,39.13566 h -9.89047 V 32.141 h 28.30645 v 6.99463 H 415.5811 V 68.972 h -8.36156 z"
     fill="#a4a1a4"
     id="path271" />
  <path
     d="m 151.66541,54.39014 c -0.16395,-4.42622 -0.3279,-9.78183 -0.3279,-15.13694 h -0.16395 c -1.14767,4.6993 -2.67756,9.94528 -4.09881,14.26236 l -4.481,14.372 h -6.50278 l -3.9339,-14.26286 c -1.203,-4.31659 -2.45928,-9.56257 -3.33336,-14.3715 h -0.10963 c -0.21828,4.97288 -0.38223,10.6559 -0.65581,15.24607 l -0.65581,13.98928 h -7.7048 l 2.34965,-36.831 h 11.09246 l 3.60695,12.29493 c 1.14766,4.26276 2.29533,8.85293 3.11509,13.16951 h 0.16395 c 1.038,-4.26226 2.29533,-9.12552 3.49732,-13.22383 l 3.93387,-12.24061 h 10.87516 l 2.02175,36.831 h -8.1423 z"
     fill="#deddde"
     id="path273"
     style="fill:#666666" />
  <path
     d="m 200.46688,49.69034 c 0,12.07666 -7.32254,19.3992 -18.08709,19.3992 -10.92949,0 -17.32363,-8.25144 -17.32363,-18.7434 0,-11.03813 7.05,-19.29006 17.92413,-19.29006 11.31172,0 17.48659,8.47021 17.48659,18.63426 z m -26.61261,0.49185 c 0,7.21341 3.38868,12.29543 8.96207,12.29543 5.62869,0 8.85243,-5.35561 8.85243,-12.5137 0,-6.61241 -3.16941,-12.29543 -8.90675,-12.29543 -5.6287,0 -8.90775,5.35511 -8.90775,12.5137 z"
     fill="#deddde"
     id="path275"
     style="fill:#666666" />
  <path
     d="m 239.65146,49.69034 c 0,12.07666 -7.32254,19.3992 -18.08709,19.3992 -10.92949,0 -17.32362,-8.25144 -17.32362,-18.7434 0,-11.03813 7.04994,-19.29006 17.92412,-19.29006 11.31172,0 17.48659,8.47021 17.48659,18.63426 z m -26.6126,0.49185 c 0,7.21341 3.38867,12.29543 8.96206,12.29543 5.6287,0 8.85243,-5.35561 8.85243,-12.5137 0,-6.61241 -3.16941,-12.29543 -8.90675,-12.29543 -5.6287,0 -8.90774,5.35511 -8.90774,12.5137 z"
     fill="#deddde"
     id="path277"
     style="fill:#666666" />
  <path
     d="m 245.11917,68.48855 v -36.831 h 9.72649 l 7.65047,13.49745 a 106.79759,106.79759 0 0 1 6.01093,12.62284 h 0.16395 a 136.74418,136.74418 0 0 1 -0.71013,-15.35521 v -10.765 h 7.65044 v 36.831 h -8.74378 l -7.86872,-14.208 a 136.61439,136.61439 0 0 1 -6.39316,-13.00569 l -0.164,0.05482 c 0.21828,4.86326 0.32791,10.05491 0.32791,16.06584 v 11.093 z"
     fill="#deddde"
     id="path279"
     style="fill:#666666" />
  <path
     d="m 282.8272,31.65757 h 8.36057 v 29.83634 h 14.64509 v 6.99464 H 282.8272 Z"
     fill="#deddde"
     id="path281"
     style="fill:#666666" />
  <path
     d="m 319.11398,31.65757 v 36.831 h -8.36058 v -36.831 z"
     fill="#deddde"
     id="path283"
     style="fill:#666666" />
  <path
     d="m 357.09266,66.7947 a 41.21749,41.21749 0 0 1 -12.29444,2.07657 c -6.722,0 -11.5853,-1.69434 -14.973,-4.97289 -3.38867,-3.16942 -5.24647,-7.97835 -5.19215,-13.38828 0.0553,-12.24062 8.96207,-19.23525 21.03922,-19.23525 a 25.364,25.364 0 0 1 10.21837,1.80347 l -1.74816,6.66673 a 20.407,20.407 0 0 0 -8.57984,-1.5847 c -6.94031,0 -12.1858,3.93436 -12.1858,11.91271 0,7.59563 4.75462,12.07666 11.5853,12.07666 a 11.14908,11.14908 0 0 0 4.09782,-0.54667 v -7.70477 h -5.683 V 47.3955 h 13.71568 z"
     fill="#deddde"
     id="path285"
     style="fill:#666666" />
  <path
     d="m 371.95993,31.65757 v 14.15322 h 13.71573 V 31.65757 h 8.30625 v 36.831 h -8.30625 v -15.41 h -13.71573 v 15.41 h -8.36058 v -36.831 z"
     fill="#deddde"
     id="path287"
     style="fill:#666666" />
  <path
     d="m 408.35634,38.6522 h -9.89047 v -6.99463 h 28.30645 V 38.6522 H 416.7179 v 29.83635 h -8.36156 z"
     fill="#deddde"
     id="path289"
     style="fill:#666666" />
  <path
     d="M 107.64303,56.83853 A 49.83852,49.83852 0 1 1 57.80452,7 49.83851,49.83851 0 0 1 107.64303,56.83853 Z M 57.80452,25.39259 A 31.44594,31.44594 0 1 0 89.25045,56.83853 31.44594,31.44594 0 0 0 57.80452,25.39259 Z"
     fill="#deddde"
     id="path291"
     style="fill:#666666" />
  <rect
     x="55.781643"
     y="25.39259"
     width="2.9858501"
     height="62.891869"
     fill="#deddde"
     id="rect293"
     style="fill:#666666" />
  <rect
     x="25.65185"
     y="56.35704"
     width="63.59861"
     height="2.9858501"
     fill="#deddde"
     id="rect295"
     style="fill:#666666" />
  <rect
     x="-32.081299"
     y="80.03727"
     width="64.193352"
     height="2.9858501"
     transform="rotate(-45)"
     fill="#deddde"
     id="rect297"
     style="fill:#666666" />
  <rect
     x="-1.4775715"
     y="49.433517"
     width="2.9858501"
     height="63.255531"
     transform="rotate(-45)"
     fill="#deddde"
     id="rect299"
     style="fill:#666666" />
  <metadata
     id="metadata1123">
    <rdf:RDF>
      <cc:Work
         rdf:about="">
        <dc:title>logo</dc:title>
      </cc:Work>
    </rdf:RDF>
  </metadata>
</svg>
