<?xml version="1.0" encoding="UTF-8" standalone="no"?>
<svg
   viewBox="0 0 305.17999 114"
   version="1.1"
   id="svg25"
   sodipodi:docname="msx2.svg"
   width="305.17999"
   height="114"
   inkscape:version="1.1 (c68e22c387, 2021-05-23)"
   xmlns:inkscape="http://www.inkscape.org/namespaces/inkscape"
   xmlns:sodipodi="http://sodipodi.sourceforge.net/DTD/sodipodi-0.dtd"
   xmlns="http://www.w3.org/2000/svg"
   xmlns:svg="http://www.w3.org/2000/svg"
   xmlns:rdf="http://www.w3.org/1999/02/22-rdf-syntax-ns#"
   xmlns:cc="http://creativecommons.org/ns#"
   xmlns:dc="http://purl.org/dc/elements/1.1/">
  <defs
     id="defs29" />
  <sodipodi:namedview
     id="namedview27"
     pagecolor="#ffffff"
     bordercolor="#666666"
     borderopacity="1.0"
     inkscape:pageshadow="2"
     inkscape:pageopacity="0.0"
     inkscape:pagecheckerboard="0"
     showgrid="false"
     fit-margin-top="0"
     fit-margin-left="0"
     fit-margin-right="0"
     fit-margin-bottom="0"
     inkscape:zoom="1.113"
     inkscape:cx="152.29111"
     inkscape:cy="56.603774"
     inkscape:window-width="1920"
     inkscape:window-height="1138"
     inkscape:window-x="-8"
     inkscape:window-y="-8"
     inkscape:window-maximized="1"
     inkscape:current-layer="svg25" />
  <title
     id="title2">logo</title>
  <g
     id="Layer_2"
     data-name="Layer 2"
     transform="translate(-347.4)">
    <rect
       x="594.22998"
       y="55.439999"
       width="34.560001"
       height="33.220001"
       fill="#ffffff"
       id="rect4" />
  </g>
  <g
     id="Layer_1"
     data-name="Layer 1"
     transform="translate(-347.4)">
    <rect
       x="586.07001"
       y="64.690002"
       width="50.330002"
       height="23.67"
       fill="#ffffff"
       id="rect7" />
    <g
       id="Calque_1"
       data-name="Calque 1">
      <rect
         x="350.89999"
         y="3.5"
         width="253.92"
         height="107"
         rx="3.5"
         fill="#221f1f"
         id="rect9" />
      <path
         d="M 601.32,7 V 107 H 354.4 V 7 h 246.92 m 0,-7 H 354.4 a 7,7 0 0 0 -7,7 v 100 a 7,7 0 0 0 7,7 h 246.92 a 7,7 0 0 0 7,-7 V 7 a 7,7 0 0 0 -7,-7 z"
         fill="#ffffff"
         id="path11" />
      <path
         d="m 599.3,110.5 a 3.5,3.5 0 0 1 -3.5,-3.5 v -0.06 c 0,-1.28 0.32,-12.64 3.93,-19 3.87,-6.88 10,-11.45 15.42,-15.47 6.17,-4.58 10,-7.59 10,-11.43 0,-3.61 -1.05,-3.61 -2.38,-3.61 -0.83,0 -2.75,0 -2.75,4 V 65 a 3.5,3.5 0 0 1 -3.5,3.5 h -16.18 a 3.5,3.5 0 0 1 -3.5,-3.5 v -5 c 0,-15.44 13.34,-25 25.7,-25 16.63,0 26.56,9.6 26.56,25.69 0,13 -9.31,20.3 -16.11,25.6 -1.35,1.06 -2.73,2.13 -3.9,3.16 h 15.47 a 3.5,3.5 0 0 1 3.5,3.5 v 14 a 3.5,3.5 0 0 1 -3.5,3.5 z"
         fill="#221f1f"
         id="path13" />
      <path
         d="m 622.54,38.5 c 10.75,0 23.06,4.5 23.06,22.19 0,18.56 -21.85,23.76 -23.06,32.26 h 22 v 14 H 599.3 c 0,0 0.2,-11.56 3.47,-17.34 7.62,-13.48 25.83,-17.82 25.83,-28.61 0,-4.76 -1.89,-7.11 -5.88,-7.11 -3.99,0 -6.25,2.87 -6.25,7.46 V 65 h -16.13 v -5 c 0,-13.35 11.45,-21.5 22.2,-21.5 m 0,-7 c -14,0 -29.2,10.9 -29.2,28.5 v 5 a 7,7 0 0 0 7,7 h 9.57 c -4.69,3.62 -9.79,8.07 -13.24,14.19 -3.93,7 -4.33,18.43 -4.37,20.65 a 7,7 0 0 0 6.87,7.13 h 45.39 a 7,7 0 0 0 7,-7 V 93 a 7,7 0 0 0 -7,-7 H 639 c 6.41,-5.37 13.58,-13.08 13.58,-25.26 0,-12.86 -5.59,-19.77 -10.28,-23.31 -5.09,-3.85 -11.93,-5.88 -19.78,-5.88 z"
         fill="#ffffff"
         id="path15" />
      <rect
         x="354.39999"
         y="7"
         width="246.92"
         height="100"
         fill="#221f1f"
         id="rect17" />
      <path
         d="m 581.79,21.08 -23.48,34.28 25.53,37.46 h -23.57 l -14,-20 -14.15,20.1 h -23.45 c 0.64,-1.32 25.64,-37.51 25.64,-37.51 l -10.66,-14.88 -45.21,0.06 c -2.11,0.16 -4.69,-0.48 -5.75,1.9 a 3.3,3.3 0 0 0 -0.1,2.75 3.51,3.51 0 0 0 2.16,2 l 1.42,0.1 h 18.1 a 22.68,22.68 0 0 1 18.93,34 23.54,23.54 0 0 1 -21.36,11.6 h -50.33 c 0,0 -7.7,-27.8 -7.75,-27.85 L 426,92.92 h -18.35 l -7.39,-28 -8.07,27.91 h -20.31 c 0,0 18.67,-67.21 19.88,-71.64 h 17.15 l 8.07,30 8.23,-30 H 442 l 14.4,52.19 H 490 c 2.31,-0.11 5.53,0.52 6.48,-2.33 a 3.47,3.47 0 0 0 -0.84,-3.48 4.36,4.36 0 0 0 -3,-0.95 h -18 c -8.54,-0.26 -17,-5.86 -20.2,-14.08 a 22.9,22.9 0 0 1 20.73,-31.39 l 59.19,-0.06 11.93,17.2 12.33,-17.25 z"
         fill="#ffffff"
         id="path19" />
      <path
         d="m 622.54,93 c 1.21,-8.5 23.06,-13.7 23.06,-32.26 0,-17.69 -12.31,-22.19 -23.06,-22.19 -10.75,0 -22.2,8.15 -22.2,21.5 v 5 h 16.13 v -3.66 c 0,-4.59 2.25,-7.46 6.25,-7.46 4,0 5.88,2.35 5.88,7.11 0,10.75 -18.21,15.09 -25.83,28.62 C 599.5,95.44 599.3,107 599.3,107 h 45.26 V 93 Z"
         fill="#221f1f"
         id="path21" />
    </g>
  </g>
  <metadata
     id="metadata846">
    <rdf:RDF>
      <cc:Work
         rdf:about="">
        <dc:title>logo</dc:title>
      </cc:Work>
    </rdf:RDF>
  </metadata>
</svg>
