<?xml version="1.0" encoding="UTF-8" standalone="no"?>
<svg
   id="Layer_1"
   data-name="Layer 1"
   viewBox="0 0 276.20001 114"
   version="1.1"
   sodipodi:docname="msxturbor.svg"
   width="276.20001"
   height="114"
   inkscape:version="1.1 (c68e22c387, 2021-05-23)"
   xmlns:inkscape="http://www.inkscape.org/namespaces/inkscape"
   xmlns:sodipodi="http://sodipodi.sourceforge.net/DTD/sodipodi-0.dtd"
   xmlns="http://www.w3.org/2000/svg"
   xmlns:svg="http://www.w3.org/2000/svg"
   xmlns:rdf="http://www.w3.org/1999/02/22-rdf-syntax-ns#"
   xmlns:cc="http://creativecommons.org/ns#"
   xmlns:dc="http://purl.org/dc/elements/1.1/">
  <defs
     id="defs23" />
  <sodipodi:namedview
     id="namedview21"
     pagecolor="#ffffff"
     bordercolor="#666666"
     borderopacity="1.0"
     inkscape:pageshadow="2"
     inkscape:pageopacity="0.0"
     inkscape:pagecheckerboard="0"
     showgrid="false"
     fit-margin-top="0"
     fit-margin-left="0"
     fit-margin-right="0"
     fit-margin-bottom="0"
     inkscape:zoom="1.113"
     inkscape:cx="137.91554"
     inkscape:cy="56.603774"
     inkscape:window-width="1920"
     inkscape:window-height="1138"
     inkscape:window-x="-8"
     inkscape:window-y="-8"
     inkscape:window-maximized="1"
     inkscape:current-layer="Layer_1" />
  <title
     id="title2">logo</title>
  <rect
     x="3.4999938"
     y="3.5"
     width="269.20999"
     height="107"
     rx="3.5"
     fill="#ffffff"
     id="rect4" />
  <path
     d="M 269.2,7 V 107 H 7 V 7 h 262.2 m 0,-7 H 7 A 7,7 0 0 0 0,7 v 100 a 7,7 0 0 0 7,7 h 262.2 a 7,7 0 0 0 7,-7 V 7 a 7,7 0 0 0 -7,-7 z"
     fill="#ffffff"
     id="path6" />
  <text
     font-size="2.01px"
     fill="#c23435"
     font-family="ArialMT, Arial"
     style="isolation:isolate"
     id="text8"
     x="205.81"
     y="23.629999">I don’t like bugs!</text>
  <path
     d="M 7,7 H 269.2 V 107 H 7 Z"
     fill="#070308"
     id="path10" />
  <path
     d="M 261.1,57.12 V 15.53 H 168 v 83.18 h 93.1 z"
     fill="#ffffff"
     id="path12" />
  <path
     d="M 188.23,57.79 V 23.63 h 34.65 l 15.72,11.8 V 52 h -13.21 l 16.79,12.36 V 92 h -15.7 L 226.36,78.63 226.24,65.25 203.53,65 V 92 H 188.24 V 57.79 Z M 222.41,44.31 V 38 h -18.88 v 12.6 h 18.88 z"
     fill="#070308"
     id="path14" />
  <path
     d="M 47.01,90.63 V 88.85 L 39.59,88.59 39.46,84 39.33,79.39 h 7.68 v -3.6 h -7.64 v -5.9 L 31.5,70.15 31.36,73 31.23,75.81 h -5.36 v 3.6 h 5.4 v 4.79 a 44.93,44.93 0 0 0 0.29,5.9 c 0.48,1.78 2.46,2.27 9.26,2.29 h 6.19 z m 25.64,-6.54 v -8.31 h -8.1 V 88.36 H 59.6 V 75.78 h -7.64 v 7.34 c 0,6.44 0.1,7.44 0.79,8 1.29,1.12 1.77,1.18 11,1.21 h 8.88 z m 13.84,1.69 0.12,-6.41 h 7.63 v -3.59 h -5.06 c -6.14,0 -8.34,0.47 -9.67,2 -1,1.1 -1,1.58 -1,7.59 a 39.9,39.9 0 0 0 0.32,6.74 14.28,14.28 0 0 0 3.94,0.18 l 3.62,-0.13 z m 30.52,5.38 c 1.62,-1.31 2,-2.69 2,-6.88 0,-7.58 -1,-8.61 -8.28,-8.88 L 105.9,75.23 V 69.9 L 98.03,70.16 97.82,92 h 9.11 c 7.96,-0.06 9.24,-0.16 10.08,-0.84 z m -11.08,-7.29 v -4.5 h 4.95 v 9 h -4.95 z M 142.51,91 c 1.42,-1.11 2.09,-3.35 2.09,-7 0,-3.65 -0.67,-5.8 -2.29,-7.16 -1.33,-1.12 -1.54,-1.15 -8,-1.15 -7.38,0 -8.2,0.26 -9.33,3 -0.76,1.82 -0.85,9.25 -0.13,10.67 1.2,2.34 1.93,2.53 9.45,2.54 6.42,0.1 7.14,-0.02 8.21,-0.9 z m -10.49,-7.17 v -4.5 h 4.94 v 9 h -4.94 z"
     fill="#ffffff"
     id="path16" />
  <path
     d="m 39.94,56.44 c 1.22,-4.08 2.36,-7.57 2.54,-7.76 0.18,-0.19 0.88,1.53 1.56,3.82 0.68,2.29 1.74,5.84 2.36,7.89 l 1.13,3.73 8.63,-0.26 1.25,-3.86 c 0.69,-2.1 1.83,-5.74 2.55,-8.08 l 1.3,-4.27 2.69,8.09 2.7,8.08 L 81.2,64 c 16.93,0.14 17.85,0 21.5,-3.28 2.91,-2.62 3.91,-5.11 3.88,-9.65 0,-5.2 -2.3,-9.32 -6.22,-11.34 -1.55,-0.81 -3,-1 -8.82,-1.28 A 63.47,63.47 0 0 1 83.78,37.8 c -1.1,-0.45 -1.05,-2.75 0.08,-3.35 0.54,-0.29 5.68,-0.47 13.6,-0.47 h 12.74 l 3.6,4.56 a 32.2,32.2 0 0 1 3.49,4.94 c -0.07,0.21 -3.07,4.65 -6.68,9.88 -3.61,5.23 -6.66,9.79 -6.79,10.13 -0.19,0.5 0.82,0.61 5.55,0.61 h 5.78 l 4.27,-5.62 a 68.33,68.33 0 0 1 4.52,-5.62 67,67 0 0 1 4.26,5.62 l 4,5.62 h 6 a 46.17,46.17 0 0 0 6,-0.19 c 0,-0.1 -3.14,-4.67 -7,-10.16 -3.86,-5.49 -7,-10.27 -7,-10.62 0,-0.35 2.84,-4.67 6.3,-9.6 3.46,-4.93 6.3,-9.17 6.3,-9.43 0,-0.26 -2.12,-0.46 -5.82,-0.46 h -5.82 L 128.78,27 c -1.31,1.84 -2.94,4.17 -3.62,5.17 a 5.89,5.89 0 0 1 -1.58,1.8 27.39,27.39 0 0 1 -3.2,-4 c -4.73,-6.61 -2.1,-5.93 -22.38,-5.77 -17.12,0.13 -17.52,0.16 -19.37,1.14 -3.7,2 -5.68,5.8 -5.66,10.91 0,4.19 0.64,6.53 2.36,8.9 2.2,3 3.27,3.37 11.71,3.67 7.73,0.27 9.44,0.68 9.44,2.25 0,2 -1.35,2.26 -11.94,2.26 H 74.61 L 66.1,24.3 56.64,24 l -2.2,7.21 a 56.93,56.93 0 0 1 -2.48,7.21 18.64,18.64 0 0 1 -1.52,-4.16 L 48.29,27.05 47.37,24 l -9.56,0.26 -1.49,5.39 c -2.2,8 -8.64,33.26 -8.64,33.88 0,0.4 1.33,0.51 5,0.42 l 5,-0.13 z"
     fill="#ffffff"
     id="path18" />
  <metadata
     id="metadata840">
    <rdf:RDF>
      <cc:Work
         rdf:about="">
        <dc:title>logo</dc:title>
      </cc:Work>
    </rdf:RDF>
  </metadata>
</svg>
