<?xml version="1.0" encoding="UTF-8" standalone="no"?>
<svg
   viewBox="0 0 514 92.090004"
   version="1.1"
   id="svg70"
   sodipodi:docname="multivision.svg"
   width="514"
   height="92.090004"
   inkscape:version="1.1 (c68e22c387, 2021-05-23)"
   xmlns:inkscape="http://www.inkscape.org/namespaces/inkscape"
   xmlns:sodipodi="http://sodipodi.sourceforge.net/DTD/sodipodi-0.dtd"
   xmlns="http://www.w3.org/2000/svg"
   xmlns:svg="http://www.w3.org/2000/svg"
   xmlns:rdf="http://www.w3.org/1999/02/22-rdf-syntax-ns#"
   xmlns:cc="http://creativecommons.org/ns#"
   xmlns:dc="http://purl.org/dc/elements/1.1/">
  <defs
     id="defs74" />
  <sodipodi:namedview
     id="namedview72"
     pagecolor="#ffffff"
     bordercolor="#666666"
     borderopacity="1.0"
     inkscape:pageshadow="2"
     inkscape:pageopacity="0.0"
     inkscape:pagecheckerboard="0"
     showgrid="false"
     fit-margin-top="0"
     fit-margin-left="0"
     fit-margin-right="0"
     fit-margin-bottom="0"
     inkscape:zoom="1.113"
     inkscape:cx="257.4124"
     inkscape:cy="45.822102"
     inkscape:window-width="1920"
     inkscape:window-height="1138"
     inkscape:window-x="-8"
     inkscape:window-y="-8"
     inkscape:window-maximized="1"
     inkscape:current-layer="svg70" />
  <title
     id="title2">logo</title>
  <g
     id="Layer_2"
     data-name="Layer 2"
     transform="translate(-243,-10.909996)">
    <rect
       x="265.82999"
       y="26.139999"
       width="27.940001"
       height="32.27"
       fill="#ffffff"
       id="rect4" />
    <rect
       x="415.82999"
       y="37.650002"
       width="23.75"
       height="21.34"
       fill="#ffffff"
       id="rect6" />
    <rect
       x="691.84998"
       y="40.700001"
       width="17.709999"
       height="17.709999"
       fill="#ffffff"
       id="rect8" />
    <rect
       x="479.67001"
       y="43.740002"
       width="24.75"
       height="35.900002"
       fill="#ffffff"
       id="rect10" />
    <rect
       x="330.60999"
       y="63.529999"
       width="11.11"
       height="8.2200003"
       fill="#ffffff"
       id="rect12" />
  </g>
  <g
     id="Layer_1"
     data-name="Layer 1"
     transform="translate(-243,-10.909996)">
    <path
       d="M 428.69,69.23 A 24,24 0 0 1 413.28,63.9 4.85,4.85 0 0 1 408.49,68 H 401 a 4.87,4.87 0 0 1 -4.84,-4.83 V 20.89 A 4.84,4.84 0 0 1 401,16.05 h 7.51 a 4.84,4.84 0 0 1 4.84,4.84 V 32 a 23.83,23.83 0 0 1 15.36,-5.5 c 12.86,0 22.93,9.46 22.93,21.54 -0.02,11.88 -10.09,21.19 -22.95,21.19 z m 0,-28.41 c -1.43,0 -5.24,0 -5.24,7.14 0,6.42 2.37,6.95 5.24,6.95 2.87,0 5.24,-0.53 5.24,-6.95 0,-7.14 -3.81,-7.14 -5.24,-7.14 z"
       id="path15" />
    <path
       d="m 408.49,19.55 a 1.34,1.34 0 0 1 1.34,1.34 V 43.71 C 411.88,35.83 419.39,30 428.69,30 c 10.94,0 19.43,8.08 19.43,18 0,9.92 -8.49,17.7 -19.43,17.7 -9.3,0 -16.81,-5.6 -18.86,-13.4 v 10.89 a 1.35,1.35 0 0 1 -1.34,1.35 H 401 a 1.35,1.35 0 0 1 -1.34,-1.35 V 20.89 A 1.34,1.34 0 0 1 401,19.55 h 7.51 m 20.2,38.86 c 6.87,0 8.74,-4.57 8.74,-10.45 0,-5.88 -2.45,-10.64 -8.76,-10.64 -6.31,0 -8.69,4.76 -8.69,10.68 0,5.92 1.87,10.45 8.74,10.45 M 408.54,12.59 H 401 a 8.35,8.35 0 0 0 -8.34,8.34 v 42.3 a 8.38,8.38 0 0 0 8.34,8.31 h 7.53 a 8.32,8.32 0 0 0 6,-2.6 27.93,27.93 0 0 0 14.16,3.79 c 14.82,0 26.43,-10.85 26.43,-24.7 A 24.26,24.26 0 0 0 447.29,30.16 27,27 0 0 0 428.69,23 27.66,27.66 0 0 0 416.83,25.64 v -4.75 a 8.35,8.35 0 0 0 -8.34,-8.34 z M 427.46,51.3 A 7.9,7.9 0 0 1 427,48 a 6.59,6.59 0 0 1 0.67,-3.42 c 0.14,-0.2 0.8,-0.22 1.07,-0.22 0.27,0 0.93,0 1.07,0.22 a 6.59,6.59 0 0 1 0.67,3.42 7.9,7.9 0 0 1 -0.46,3.3 5.54,5.54 0 0 1 -2.56,0 z"
       fill="#ffffff"
       id="path17" />
    <path
       d="m 275.16,69.82 c -15.8,0 -28.66,-12.43 -28.66,-27.71 0,-15.28 12.86,-27.7 28.66,-27.7 a 29.06,29.06 0 0 1 23.52,11.87 V 22.83 A 4.86,4.86 0 0 1 303.59,18 H 311 a 4.91,4.91 0 0 1 4.58,3.07 V 20.79 A 4.86,4.86 0 0 1 320.45,16 h 7.38 a 4.86,4.86 0 0 1 4.91,4.79 v 7.79 a 17.49,17.49 0 0 1 6.9,-1.38 15.69,15.69 0 0 1 13.6,7.34 22.57,22.57 0 0 1 31.49,-3.08 V 20.89 a 4.85,4.85 0 0 1 4.85,-4.84 h 7.5 a 4.85,4.85 0 0 1 4.85,4.84 v 42.3 A 4.89,4.89 0 0 1 397.09,68 h -7.51 a 4.89,4.89 0 0 1 -4.73,-3.79 23.2,23.2 0 0 1 -29.31,-0.48 4.88,4.88 0 0 1 -4.88,4.27 h -7.38 a 4.86,4.86 0 0 1 -4.91,-4.79 V 43.88 c 0,-0.58 -0.71,-1.67 -2.41,-1.67 -1.7,0 -3.22,1.11 -3.22,2.48 V 63.25 A 4.86,4.86 0 0 1 327.83,68 h -17.52 c -6.39,0 -11.11,-4.21 -11.59,-10.16 a 29,29 0 0 1 -23.56,11.98 z m 0.48,-40.18 c -7.26,0 -9.84,6.44 -9.84,12.47 0,3.75 1,12.48 9.84,12.48 8.84,0 9.83,-8.73 9.83,-12.48 0,-6.03 -2.58,-12.47 -9.83,-12.47 z M 369.1,54.4 a 3.57,3.57 0 0 0 1.07,0.17 9,9 0 0 0 1.83,-0.17 z"
       id="path19" />
    <path
       d="M 275.16,17.91 A 25.22,25.22 0 0 1 298,32 h 4.14 v -9.17 a 1.35,1.35 0 0 1 1.41,-1.29 H 311 a 1.36,1.36 0 0 1 1.41,1.29 V 32 h 4 a 1.35,1.35 0 0 1 1.41,1.29 v 4.09 a 1.35,1.35 0 0 1 -1.41,1.29 h -4 V 54.1 c 0,1.77 0.12,3.61 2.67,3.61 h 4 V 20.83 a 1.36,1.36 0 0 1 1.41,-1.29 h 7.38 a 1.36,1.36 0 0 1 1.41,1.29 V 35.4 a 13.54,13.54 0 0 1 10.4,-4.66 c 8.19,0 12.43,6.71 12.43,11.3 v 3.85 a 18.69,18.69 0 0 1 36.16,-3.25 V 20.89 a 1.35,1.35 0 0 1 1.35,-1.34 h 7.5 a 1.35,1.35 0 0 1 1.35,1.34 v 42.3 a 1.36,1.36 0 0 1 -1.35,1.35 h -7.5 a 1.36,1.36 0 0 1 -1.35,-1.35 V 50.9 h -26.22 c 1.08,4.15 4.31,7.17 8.12,7.17 3.6,0 6.25,-1.32 7.81,-3.42 h 9.79 c -2.69,6.57 -9.3,11.08 -17.28,11.08 -9.69,0 -17.36,-6.66 -18.42,-15.57 v 13.09 a 1.36,1.36 0 0 1 -1.41,1.29 h -7.38 a 1.36,1.36 0 0 1 -1.41,-1.29 V 43.88 c 0,-2.49 -2.23,-5.17 -5.91,-5.17 -3.68,0 -6.72,2.61 -6.72,6 v 18.54 a 1.36,1.36 0 0 1 -1.41,1.29 h -17.52 c -4.43,0 -8.13,-2.71 -8.13,-7.66 V 38.71 h -2.11 a 22.49,22.49 0 0 1 0.26,3.4 c 0,13.37 -11.27,24.21 -25.17,24.21 -13.9,0 -25.16,-10.84 -25.16,-24.21 0,-13.37 11.27,-24.2 25.16,-24.2 m 0.48,40.18 c 9.16,0 13.33,-7.16 13.33,-16 0,-8.84 -4.62,-16 -13.33,-16 -8.71,0 -13.34,7.15 -13.34,16 0,8.85 4.17,16 13.34,16 M 362.39,43.74 H 378 c -1.32,-3.59 -4.31,-6.09 -7.79,-6.09 -3.48,0 -6.46,2.5 -7.78,6.09 M 275.16,10.91 c -17.73,0 -32.16,14 -32.16,31.2 0,17.2 14.43,31.21 32.16,31.21 a 32.6,32.6 0 0 0 22.15,-8.6 c 2.57,4.19 7.27,6.82 13,6.82 h 17.52 a 8.4,8.4 0 0 0 7.72,-5 8.43,8.43 0 0 0 7.73,5 h 7.38 a 8.43,8.43 0 0 0 6.07,-2.54 27,27 0 0 0 27.08,0.23 8.36,8.36 0 0 0 5.75,2.33 h 7.52 a 8.39,8.39 0 0 0 8.35,-8.31 V 20.89 a 8.36,8.36 0 0 0 -8.35,-8.34 h -7.5 a 8.36,8.36 0 0 0 -8.35,8.34 v 4.37 A 26.2,26.2 0 0 0 370.49,23 a 25.83,25.83 0 0 0 -17,6.34 19.52,19.52 0 0 0 -13.83,-5.59 22.39,22.39 0 0 0 -3.4,0.26 v -3.18 a 8.37,8.37 0 0 0 -8.41,-8.29 h -7.38 a 8.46,8.46 0 0 0 -6.18,2.67 8.43,8.43 0 0 0 -3.31,-0.67 h -7.37 a 8.46,8.46 0 0 0 -7.26,4.1 32.81,32.81 0 0 0 -21.17,-7.73 z m 0.48,40.18 c -1.57,0 -6.34,0 -6.34,-9 0,-2.7 0.62,-9 6.34,-9 5.72,0 6.33,6.27 6.33,9 0,9 -4.77,9 -6.33,9 z"
       fill="#ffffff"
       id="path21" />
    <path
       d="M 625.39,32 A 4.4,4.4 0 0 1 621,27.59 V 23 a 4.4,4.4 0 0 1 4.39,-4.39 h 8.42 A 4.4,4.4 0 0 1 638.2,23 v 4.55 A 4.41,4.41 0 0 1 633.82,32 Z"
       id="path23" />
    <path
       d="m 633.81,22.13 a 0.89,0.89 0 0 1 0.89,0.89 v 4.55 a 0.9,0.9 0 0 1 -0.89,0.89 h -8.42 A 0.89,0.89 0 0 1 624.5,27.57 V 23 a 0.89,0.89 0 0 1 0.89,-0.89 h 8.42 m 0,-7 h -8.42 A 7.9,7.9 0 0 0 617.5,23 v 4.55 a 7.92,7.92 0 0 0 7.87,7.89 h 8.44 a 7.92,7.92 0 0 0 7.89,-7.87 V 23 a 7.9,7.9 0 0 0 -7.89,-7.89 z"
       fill="#ffffff"
       id="path25" />
    <path
       d="M 582.75,32 A 4.37,4.37 0 0 1 578.4,27.66 V 23 a 4.35,4.35 0 0 1 4.35,-4.35 h 8.5 A 4.36,4.36 0 0 1 595.6,23 v 4.63 A 4.36,4.36 0 0 1 591.26,32 Z"
       id="path27" />
    <path
       d="m 591.25,22.13 a 0.85,0.85 0 0 1 0.84,0.85 v 4.63 a 0.84,0.84 0 0 1 -0.84,0.85 h -8.5 A 0.85,0.85 0 0 1 581.9,27.61 V 23 a 0.85,0.85 0 0 1 0.85,-0.85 h 8.5 m 0,-7 h -8.5 A 7.86,7.86 0 0 0 574.9,23 v 4.63 a 7.88,7.88 0 0 0 7.83,7.85 h 8.52 a 7.86,7.86 0 0 0 7.84,-7.83 V 23 a 7.85,7.85 0 0 0 -7.84,-7.85 z"
       fill="#ffffff"
       id="path29" />
    <path
       d="m 670.16,32 a 4.41,4.41 0 0 1 -4.4,-4.39 V 23 a 4.4,4.4 0 0 1 4.4,-4.4 h 8.39 A 4.4,4.4 0 0 1 683,23 v 4.53 a 4.4,4.4 0 0 1 -4.4,4.4 z"
       id="path31" />
    <path
       d="m 678.55,22.13 a 0.9,0.9 0 0 1 0.9,0.9 v 4.53 a 0.91,0.91 0 0 1 -0.9,0.9 h -8.39 a 0.9,0.9 0 0 1 -0.9,-0.9 V 23 a 0.9,0.9 0 0 1 0.9,-0.9 h 8.39 m 0,-7 h -8.39 a 7.9,7.9 0 0 0 -7.9,7.9 v 4.53 a 7.93,7.93 0 0 0 7.88,7.9 h 8.41 a 7.91,7.91 0 0 0 7.9,-7.9 V 23 a 7.91,7.91 0 0 0 -7.9,-7.9 z"
       fill="#ffffff"
       id="path33" />
    <path
       d="m 539.17,68.62 a 4.91,4.91 0 0 1 -4.31,-2.51 17.51,17.51 0 0 1 -7.5,1.65 c -10.39,0 -15.92,-8.6 -15.92,-14.8 V 31.75 a 4.85,4.85 0 0 1 4.9,-4.79 h 7.38 a 4.86,4.86 0 0 1 4.91,4.79 v 19.37 c 0,0.58 0.71,1.67 2.42,1.67 1.71,0 3.22,-1.12 3.22,-2.49 V 31.75 a 4.85,4.85 0 0 1 4.9,-4.79 h 7.38 a 4.86,4.86 0 0 1 4.91,4.79 v 32.08 a 4.86,4.86 0 0 1 -4.91,4.79 z"
       id="path35" />
    <path
       d="m 546.55,30.46 a 1.35,1.35 0 0 1 1.45,1.29 v 32.08 a 1.35,1.35 0 0 1 -1.41,1.29 h -7.38 a 1.35,1.35 0 0 1 -1.4,-1.29 V 59.6 a 13.56,13.56 0 0 1 -10.41,4.66 c -8.19,0 -12.42,-6.71 -12.42,-11.3 V 31.75 a 1.35,1.35 0 0 1 1.4,-1.29 h 7.38 a 1.35,1.35 0 0 1 1.41,1.29 v 19.37 c 0,2.49 2.23,5.17 5.92,5.17 3.69,0 6.72,-2.61 6.72,-6 V 31.75 a 1.35,1.35 0 0 1 1.4,-1.29 h 7.38 m 0,-7 h -7.38 a 8.43,8.43 0 0 0 -7.72,5 8.43,8.43 0 0 0 -7.73,-5 h -7.38 a 8.36,8.36 0 0 0 -8.4,8.29 V 53 c 0,8.84 7.8,18.3 19.42,18.3 a 21.26,21.26 0 0 0 6.51,-1 8.47,8.47 0 0 0 5.3,1.86 h 7.38 A 8.36,8.36 0 0 0 555,63.83 V 31.75 a 8.36,8.36 0 0 0 -8.41,-8.29 z"
       fill="#ffffff"
       id="path37" />
    <path
       d="m 698.33,69.82 a 24.06,24.06 0 0 1 -15.42,-5.43 4.85,4.85 0 0 1 -4.81,4.23 h -7.5 A 4.87,4.87 0 0 1 665.76,64 15.5,15.5 0 0 1 654.58,68.65 H 625.85 A 4.87,4.87 0 0 1 621,63.79 v -4.22 c -3.66,8.59 -10.67,9.06 -12.15,9.06 h -0.39 c -1.58,0 -9.5,-0.54 -12.86,-11 v 6.13 a 4.85,4.85 0 0 1 -4.85,4.84 H 573 a 11.72,11.72 0 0 1 -8.8,-3.6 4.86,4.86 0 0 1 -4.7,3.66 H 552 a 4.87,4.87 0 0 1 -4.84,-4.83 V 21.47 A 4.84,4.84 0 0 1 552,16.63 h 7.51 a 4.85,4.85 0 0 1 4.24,2.51 4.61,4.61 0 0 1 2.09,-0.51 h 8.34 A 4.4,4.4 0 0 1 578.6,23 v 6.15 h 1.14 a 4.83,4.83 0 0 1 3.51,-1.5 h 15.64 a 5.6,5.6 0 0 1 5.16,3.63 l 4.31,12.31 3.55,-12.14 a 5.44,5.44 0 0 1 5.15,-3.8 h 7.37 a 4.28,4.28 0 0 1 0.72,0.05 4,4 0 0 1 0.7,-0.05 h 7.5 a 4.86,4.86 0 0 1 4.85,4.82 14.64,14.64 0 0 1 11,-4.82 h 28.9 a 4.85,4.85 0 0 1 4.9,4.82 v 0.12 a 24.26,24.26 0 0 1 30.53,-0.23 v -0.61 a 4.85,4.85 0 0 1 4.9,-4.79 h 7.38 a 4.94,4.94 0 0 1 4.32,2.51 17.46,17.46 0 0 1 7.49,-1.65 c 10.4,0 15.93,8.6 15.93,14.81 v 21.21 a 4.85,4.85 0 0 1 -4.91,4.78 h -7.38 a 4.85,4.85 0 0 1 -4.9,-4.78 V 44.46 c 0,-0.58 -0.71,-1.67 -2.42,-1.67 -1.71,0 -3.22,1.12 -3.22,2.49 v 18.55 a 4.86,4.86 0 0 1 -4.91,4.79 h -7.38 a 4.88,4.88 0 0 1 -4.84,-4 24.1,24.1 0 0 1 -15.26,5.2 z m 0,-28.42 c -1.43,0 -5.24,0 -5.24,7.14 0,6.43 2.37,7 5.24,7 2.87,0 5.25,-0.52 5.25,-7 0,-7.14 -3.81,-7.14 -5.25,-7.14 z m -46.67,13.22 a 0.62,0.62 0 0 0 0.36,-0.11 0.69,0.69 0 0 0 -0.35,-0.11 h -2.49 a 14.64,14.64 0 0 1 -11,-4.82 v 5 z m 9.06,-13 a 15.06,15.06 0 0 1 5,3.42 v -3.41 z"
       id="path39" />
    <path
       d="m 559.5,20.13 a 1.34,1.34 0 0 1 1.34,1.34 v 11.16 h 4.07 V 23 a 0.89,0.89 0 0 1 0.92,-0.85 h 8.34 A 0.89,0.89 0 0 1 575.1,23 v 9.65 h 4.46 a 0.9,0.9 0 0 1 0.94,0.86 v 4.94 a 0.9,0.9 0 0 1 -0.94,0.86 h -4.46 v 15.37 c 0,1.78 0.12,3.61 2.67,3.61 h 4.13 V 32.47 a 1.35,1.35 0 0 1 1.35,-1.34 h 7.5 a 1.21,1.21 0 0 1 0.38,0.06 1.16,1.16 0 0 1 0.38,-0.06 h 7.38 a 2.09,2.09 0 0 1 1.86,1.29 l 7.91,22.58 6.61,-22.6 a 2,2 0 0 1 1.79,-1.29 h 7.38 a 1.14,1.14 0 0 1 0.7,0.21 1.32,1.32 0 0 1 0.71,-0.21 h 7.5 a 1.35,1.35 0 0 1 1.35,1.34 v 25.67 h 17 a 3.62,3.62 0 1 0 0,-7.22 h -2.49 c -5.94,0 -10.8,-4.45 -10.8,-9.89 0,-5.44 4.86,-9.88 10.8,-9.88 h 28.89 a 1.35,1.35 0 0 1 1.35,1.34 v 11.91 c 2,-7.92 9.54,-13.81 18.88,-13.81 9,0 16.32,5.46 18.65,12.93 V 31.75 a 1.35,1.35 0 0 1 1.4,-1.29 h 7.38 a 1.35,1.35 0 0 1 1.41,1.29 V 36 a 13.52,13.52 0 0 1 10.4,-4.67 v 0 c 8.2,0 12.43,6.71 12.43,11.31 v 21.2 a 1.35,1.35 0 0 1 -1.41,1.28 h -7.38 a 1.35,1.35 0 0 1 -1.4,-1.28 V 44.46 c 0,-2.49 -2.24,-5.17 -5.92,-5.17 -3.68,0 -6.72,2.61 -6.72,6 v 18.54 a 1.35,1.35 0 0 1 -1.41,1.29 h -7.38 a 1.35,1.35 0 0 1 -1.4,-1.29 V 53.69 c -2.33,7.39 -9.66,12.63 -18.65,12.63 -9.34,0 -16.87,-5.65 -18.88,-13.5 v 11 a 1.35,1.35 0 0 1 -1.35,1.34 h -7.5 a 1.34,1.34 0 0 1 -1.34,-1.34 V 38.13 h -17.9 a 2.9,2.9 0 1 0 0,5.77 h 3.22 c 6.37,0 11.58,4.78 11.58,10.61 0,5.83 -5.16,10.61 -11.58,10.61 H 625.85 A 1.35,1.35 0 0 1 624.5,63.78 V 35.7 L 618.56,56 c -2.54,8.69 -8.54,9.12 -9.7,9.12 h -0.4 c -1.17,0 -7.16,-0.43 -9.7,-9.12 -0.09,-0.28 -0.16,-0.55 -0.23,-0.81 L 592.1,36.82 v 27 a 1.35,1.35 0 0 1 -1.35,1.34 H 573 c -4.43,0 -8.13,-2.71 -8.13,-7.66 V 39.29 h -4.07 v 24.49 a 1.34,1.34 0 0 1 -1.34,1.34 H 552 a 1.34,1.34 0 0 1 -1.34,-1.34 V 21.47 A 1.34,1.34 0 0 1 552,20.13 h 7.51 M 698.33,59 c 6.87,0 8.75,-4.57 8.75,-10.45 0,-5.88 -2.42,-10.64 -8.75,-10.64 -6.33,0 -8.74,4.76 -8.74,10.64 0,5.88 1.87,10.45 8.74,10.45 M 559.5,13.13 H 552 a 8.35,8.35 0 0 0 -8.34,8.34 v 42.31 a 8.37,8.37 0 0 0 8.34,8.34 h 7.53 a 8.3,8.3 0 0 0 5.47,-2.05 16.07,16.07 0 0 0 8,2.05 h 17.71 a 8.35,8.35 0 0 0 7.24,-4.2 15.84,15.84 0 0 0 10.47,4.21 h 0.4 a 15.79,15.79 0 0 0 10,-3.81 8.35,8.35 0 0 0 7,3.8 h 28.76 a 19.28,19.28 0 0 0 9.89,-2.7 8.34,8.34 0 0 0 6.11,2.7 h 7.52 a 8.32,8.32 0 0 0 6,-2.6 28.47,28.47 0 0 0 28.23,0.11 8.44,8.44 0 0 0 6,2.49 h 7.38 a 8.43,8.43 0 0 0 7.73,-5 8.41,8.41 0 0 0 7.72,5 h 7.38 A 8.35,8.35 0 0 0 757,63.84 V 42.63 c 0,-8.84 -7.81,-18.31 -19.43,-18.31 a 21.19,21.19 0 0 0 -6.5,1 8.48,8.48 0 0 0 -5.31,-1.86 h -7.38 a 8.45,8.45 0 0 0 -6.8,3.42 28,28 0 0 0 -27,0.32 8.34,8.34 0 0 0 -6.47,-3.07 h -28.93 a 18.42,18.42 0 0 0 -9.67,2.71 8.34,8.34 0 0 0 -6.16,-2.71 h -7.5 c -0.24,0 -0.47,0 -0.7,0 h -0.71 -7.38 a 9,9 0 0 0 -8.51,6.33 l -0.49,1.67 -0.7,-2 a 9.09,9.09 0 0 0 -8.47,-6 h -15.64 a 7.33,7.33 0 0 0 -1.15,0.08 V 23 a 7.9,7.9 0 0 0 -7.93,-7.85 h -8.34 a 6.11,6.11 0 0 0 -0.86,0 8.3,8.3 0 0 0 -5.47,-2 z m 137.55,38.71 a 8.05,8.05 0 0 1 -0.46,-3.3 6.59,6.59 0 0 1 0.67,-3.42 c 0.14,-0.2 0.8,-0.22 1.07,-0.22 0.27,0 0.93,0 1.08,0.22 a 6.59,6.59 0 0 1 0.67,3.42 7.76,7.76 0 0 1 -0.47,3.3 3.91,3.91 0 0 1 -1.28,0.15 4,4 0 0 1 -1.28,-0.15 z"
       fill="#ffffff"
       id="path41" />
    <path
       d="M 502.87,68.63 A 4.86,4.86 0 0 1 498,63.84 V 44 l -4.24,3.88 A 5.81,5.81 0 0 1 486,48 l -4.34,-4 v 19.84 a 4.85,4.85 0 0 1 -4.9,4.79 h -7.38 a 4.86,4.86 0 0 1 -4.91,-4.79 V 24.79 a 8.46,8.46 0 0 1 0,-0.87 c 0,0 0,-0.06 0,-0.1 a 8,8 0 0 1 2.59,-4.93 8.71,8.71 0 0 1 5,-2.21 h 0.12 a 7.32,7.32 0 0 1 0.81,0 h 0.19 0.6 l 0.45,0.06 0.41,0.06 h 0.25 l 0.56,0.14 h 0.12 A 8.61,8.61 0 0 1 479,18.9 l 10.8,9.88 10.79,-9.87 A 8.39,8.39 0 0 1 503.93,17 l 0.15,-0.05 0.55,-0.14 0.29,-0.06 0.51,-0.07 h 0.31 0.62 0.2 a 7.56,7.56 0 0 1 0.83,0 h 0.11 a 8.81,8.81 0 0 1 5,2.23 8,8 0 0 1 2.56,4.93 0.28,0.28 0 0 1 0,0.09 6.11,6.11 0 0 1 0,0.86 v 39.05 a 4.86,4.86 0 0 1 -4.91,4.79 z"
       id="path43" />
    <path
       d="m 506.57,20.13 h 0.5 v 0 a 5.27,5.27 0 0 1 3.08,1.33 4.48,4.48 0 0 1 1.45,2.81 v 0 0 c 0,0.16 0,0.31 0,0.47 v 0 39.1 a 1.35,1.35 0 0 1 -1.41,1.29 h -7.37 a 1.36,1.36 0 0 1 -1.41,-1.29 V 36.08 l -10.1,9.25 a 2.37,2.37 0 0 1 -1.55,0.59 2.32,2.32 0 0 1 -1.54,-0.59 l -10.11,-9.25 v 27.76 a 1.35,1.35 0 0 1 -1.4,1.29 h -7.38 A 1.36,1.36 0 0 1 468,63.84 V 24.79 a 3.83,3.83 0 0 1 0,-0.47 v 0 a 4.51,4.51 0 0 1 1.46,-2.81 5.24,5.24 0 0 1 3.07,-1.33 v 0 h 0.51 0.09 0.41 0.22 0.29 0.16 l 0.33,0.08 h 0.08 a 5.24,5.24 0 0 1 2,1.13 l 3.57,3.27 4.5,4.12 5.08,4.65 5.08,-4.65 4.5,-4.12 3.65,-3.17 a 5.19,5.19 0 0 1 2,-1.13 h 0.08 l 0.33,-0.08 h 0.17 0.29 0.21 0.41 0.1 m 0,-7 h -0.35 c -0.24,0 -0.47,0 -0.71,0 l -0.59,0.07 -0.64,0.1 -0.4,0.08 -0.71,0.18 -0.33,0.1 a 12,12 0 0 0 -4.6,2.62 l -3.58,3.28 -4.49,4.11 -0.36,0.33 -0.35,-0.33 -4.48,-4.22 -3.57,-3.27 a 12.2,12.2 0 0 0 -4.66,-2.65 l -0.26,-0.08 c -0.24,-0.07 -0.49,-0.12 -0.73,-0.18 l -0.41,-0.08 a 5.4,5.4 0 0 0 -0.58,-0.09 h -0.07 l -0.39,-0.05 h -0.14 c -0.25,0 -0.5,0 -0.76,0 h -0.32 c -0.37,0 -0.74,0 -1.12,0 h -0.22 a 12.37,12.37 0 0 0 -7,3.11 11.51,11.51 0 0 0 -3.69,7.06 c 0,0.06 0,0.11 0,0.16 a 10.64,10.64 0 0 0 -0.07,1.26 v 39.05 a 8.36,8.36 0 0 0 8.41,8.29 h 7.38 a 8.36,8.36 0 0 0 8.4,-8.29 V 51.68 a 9.34,9.34 0 0 0 9.3,0 v 12.16 a 8.36,8.36 0 0 0 8.41,8.29 h 7.37 a 8.36,8.36 0 0 0 8.41,-8.29 V 24.79 a 10.53,10.53 0 0 0 -0.07,-1.26 c 0,-0.05 0,-0.11 0,-0.16 a 11.58,11.58 0 0 0 -3.66,-7 12.31,12.31 0 0 0 -7,-3.13 h -0.15 c -0.39,0 -0.78,0 -1.16,0 z"
       fill="#ffffff"
       id="path45" />
    <rect
       x="329.14001"
       y="71.779999"
       width="341.72"
       height="27.690001"
       rx="3.5"
       id="rect47" />
    <path
       d="M 667.36,75.28 V 96 H 332.64 V 75.28 h 334.72 m 0,-7 H 332.64 a 7,7 0 0 0 -7,7 V 96 a 7,7 0 0 0 7,7 h 334.72 a 7,7 0 0 0 7,-7 V 75.28 a 7,7 0 0 0 -7,-7 z"
       fill="#ffffff"
       id="path49" />
    <text
       transform="translate(638.3,62.38)"
       font-size="1.48px"
       fill="#c23334"
       font-family="ArialMT, Arial"
       style="isolation:isolate"
       id="text51">I don’t like bugs!</text>
    <path
       d="m 397.08,64.54 h -7.5 a 1.36,1.36 0 0 1 -1.35,-1.35 v -42.3 a 1.35,1.35 0 0 1 1.35,-1.34 h 7.5 a 1.35,1.35 0 0 1 1.35,1.34 v 42.3 a 1.36,1.36 0 0 1 -1.35,1.35 z m 11.41,0 H 401 a 1.35,1.35 0 0 1 -1.34,-1.35 V 20.89 A 1.34,1.34 0 0 1 401,19.55 h 7.51 a 1.34,1.34 0 0 1 1.34,1.34 v 42.3 a 1.35,1.35 0 0 1 -1.36,1.35 z M 315,57.71 c -2.55,0 -2.67,-1.84 -2.67,-3.61 V 38.71 h 4 a 1.35,1.35 0 0 0 1.41,-1.29 V 33.33 A 1.35,1.35 0 0 0 316.36,32 h -4 V 22.83 A 1.36,1.36 0 0 0 311,21.54 h -7.37 a 1.35,1.35 0 0 0 -1.41,1.29 V 32 h -7.76 a 1.35,1.35 0 0 0 -1.4,1.29 v 4.09 a 1.35,1.35 0 0 0 1.4,1.29 h 7.76 v 18.21 c 0,4.95 3.7,7.66 8.13,7.66 h 11.28 v -6.83 z"
       fill="#183b67"
       id="path53" />
    <path
       d="m 339.64,30.74 a 13.54,13.54 0 0 0 -10.4,4.66 V 20.83 a 1.36,1.36 0 0 0 -1.41,-1.29 h -7.38 A 1.36,1.36 0 0 0 319,20.83 v 42.42 a 1.36,1.36 0 0 0 1.41,1.29 h 7.38 a 1.36,1.36 0 0 0 1.41,-1.29 V 44.69 c 0,-3.37 3,-6 6.72,-6 3.72,0 5.91,2.68 5.91,5.17 v 19.39 a 1.36,1.36 0 0 0 1.41,1.29 h 7.38 a 1.36,1.36 0 0 0 1.41,-1.29 V 42 c 0.04,-4.55 -4.2,-11.26 -12.39,-11.26 z"
       fill="#183b67"
       id="path55" />
    <path
       d="m 384.24,50.9 h 4.59 a 18,18 0 0 0 0.23,-2.87 c 0,-10 -8.11,-18 -18.57,-18 a 18.18,18.18 0 0 0 -18.56,18 c 0,10 8.11,17.7 18.56,17.7 8,0 14.59,-4.51 17.28,-11.08 H 378 c -1.56,2.1 -4.21,3.42 -7.81,3.42 -3.81,0 -7,-3 -8.12,-7.17 z M 370.17,37.65 c 3.48,0 6.47,2.5 7.79,6.09 h -15.57 c 1.32,-3.59 4.31,-6.09 7.78,-6.09 z M 428.69,30 c -10.94,0 -19.43,8.07 -19.43,18 0,9.93 8.49,17.7 19.43,17.7 10.94,0 19.43,-7.7 19.43,-17.7 0,-10 -8.49,-18 -19.43,-18 z m 0,28.42 c -6.87,0 -8.74,-4.57 -8.74,-10.45 0,-5.88 2.42,-10.64 8.74,-10.64 6.32,0 8.74,4.76 8.74,10.64 0,5.88 -1.87,10.44 -8.74,10.44 z M 275.16,17.91 c -13.89,0 -25.16,10.83 -25.16,24.2 0,13.37 11.27,24.21 25.16,24.21 13.89,0 25.17,-10.84 25.17,-24.21 0,-13.37 -11.27,-24.2 -25.17,-24.2 z m 0.48,40.18 c -9.17,0 -13.34,-7.16 -13.34,-16 0,-8.84 4.63,-16 13.34,-16 8.71,0 13.36,7.2 13.36,16.02 0,8.82 -4.2,15.98 -13.36,15.98 z"
       fill="#183b67"
       id="path57" />
    <path
       d="m 678.55,28.46 h -8.39 a 0.9,0.9 0 0 1 -0.9,-0.9 V 23 a 0.9,0.9 0 0 1 0.9,-0.9 h 8.39 a 0.9,0.9 0 0 1 0.9,0.9 v 4.53 a 0.91,0.91 0 0 1 -0.9,0.93 z m -44.74,0 h -8.42 A 0.89,0.89 0 0 1 624.5,27.57 V 23 a 0.89,0.89 0 0 1 0.89,-0.89 h 8.42 A 0.89,0.89 0 0 1 634.7,23 v 4.55 a 0.9,0.9 0 0 1 -0.89,0.91 z m -42.56,0 h -8.5 A 0.85,0.85 0 0 1 581.9,27.61 V 23 a 0.85,0.85 0 0 1 0.85,-0.85 h 8.5 a 0.85,0.85 0 0 1 0.84,0.85 v 4.63 a 0.84,0.84 0 0 1 -0.84,0.83 z M 559.5,65.12 H 552 a 1.34,1.34 0 0 1 -1.34,-1.34 V 21.47 A 1.34,1.34 0 0 1 552,20.13 h 7.51 a 1.34,1.34 0 0 1 1.34,1.34 v 42.31 a 1.34,1.34 0 0 1 -1.35,1.34 z m 118.6,0 h -7.5 a 1.34,1.34 0 0 1 -1.34,-1.34 V 32.47 a 1.34,1.34 0 0 1 1.34,-1.34 h 7.5 a 1.35,1.35 0 0 1 1.35,1.34 v 31.31 a 1.35,1.35 0 0 1 -1.35,1.34 z m -44.75,0 h -7.5 A 1.35,1.35 0 0 1 624.5,63.78 V 32.47 a 1.35,1.35 0 0 1 1.35,-1.34 h 7.5 a 1.35,1.35 0 0 1 1.35,1.34 v 31.31 a 1.35,1.35 0 0 1 -1.35,1.34 z m -42.6,0 h -7.5 A 1.35,1.35 0 0 1 581.9,63.78 V 32.47 a 1.35,1.35 0 0 1 1.35,-1.34 h 7.5 a 1.35,1.35 0 0 1 1.35,1.34 v 31.31 a 1.35,1.35 0 0 1 -1.35,1.34 z"
       fill="#183b67"
       id="path59" />
    <path
       d="m 577.77,58.29 c -2.55,0 -2.67,-1.83 -2.67,-3.61 V 39.29 h 4.46 a 0.9,0.9 0 0 0 0.94,-0.86 v -4.94 a 0.9,0.9 0 0 0 -0.94,-0.86 H 575.1 V 23 a 0.89,0.89 0 0 0 -0.93,-0.85 h -8.34 A 0.89,0.89 0 0 0 564.91,23 v 9.65 h -8.23 a 0.9,0.9 0 0 0 -0.93,0.86 v 4.94 a 0.9,0.9 0 0 0 0.93,0.86 h 8.23 v 18.15 c 0,4.95 3.7,7.66 8.13,7.66 h 11.28 v -6.83 z m 159.8,-27 A 13.52,13.52 0 0 0 727.17,36 v -4.25 a 1.35,1.35 0 0 0 -1.41,-1.29 h -7.38 a 1.35,1.35 0 0 0 -1.4,1.29 v 32.08 a 1.35,1.35 0 0 0 1.4,1.29 h 7.38 a 1.35,1.35 0 0 0 1.41,-1.29 V 45.28 c 0,-3.38 3,-6 6.72,-6 3.72,0 5.92,2.68 5.92,5.17 v 19.39 a 1.35,1.35 0 0 0 1.4,1.28 h 7.38 A 1.35,1.35 0 0 0 750,63.84 V 42.63 c 0,-4.6 -4.23,-11.31 -12.43,-11.31 z M 527.36,64.26 a 13.56,13.56 0 0 0 10.41,-4.66 v 4.23 a 1.35,1.35 0 0 0 1.4,1.29 h 7.38 A 1.35,1.35 0 0 0 548,63.83 V 31.75 a 1.35,1.35 0 0 0 -1.41,-1.29 h -7.38 a 1.35,1.35 0 0 0 -1.4,1.29 V 50.3 c 0,3.38 -3,6 -6.72,6 -3.72,0 -5.92,-2.68 -5.92,-5.17 V 31.75 a 1.35,1.35 0 0 0 -1.41,-1.29 h -7.38 a 1.35,1.35 0 0 0 -1.4,1.29 V 53 c 0,4.59 4.23,11.3 12.42,11.3 z"
       fill="#183b67"
       id="path61" />
    <path
       d="m 698.33,30.57 c -10.94,0 -19.43,8.08 -19.43,18 0,9.92 8.49,17.71 19.43,17.71 10.94,0 19.43,-7.75 19.43,-17.71 0,-9.96 -8.49,-18 -19.43,-18 z m 0,28.42 c -6.87,0 -8.74,-4.57 -8.74,-10.45 0,-5.88 2.41,-10.64 8.74,-10.64 6.33,0 8.75,4.76 8.75,10.64 0,5.88 -1.88,10.46 -8.75,10.46 z M 624.44,31.13 h -7.38 a 2,2 0 0 0 -1.79,1.29 L 608.66,55 600.75,32.4 a 2.09,2.09 0 0 0 -1.86,-1.29 h -7.38 a 0.92,0.92 0 0 0 -1,1.29 l 8,22.78 c 0.07,0.26 0.14,0.53 0.23,0.81 2.82,9.64 9.9,9.11 9.9,9.11 0,0 7.08,0.53 9.9,-9.11 l 6.9,-23.59 a 1,1 0 0 0 -1,-1.27 z m 26.92,7 h 22.15 v -7 h -24.33 c -5.94,0 -10.8,4.45 -10.8,9.88 0,5.43 4.86,9.89 10.8,9.89 h 2.49 a 3.62,3.62 0 1 1 0,7.22 h -19 v 7 h 21.91 c 6.37,0 11.58,-4.77 11.58,-10.61 0,-5.84 -5.16,-10.61 -11.58,-10.61 h -3.22 a 2.9,2.9 0 1 1 0,-5.77 z M 511.63,24.32 v 0 a 4.48,4.48 0 0 0 -1.45,-2.81 5.27,5.27 0 0 0 -3.08,-1.33 v 0 h -0.51 -0.09 -0.41 -0.21 -0.29 -0.17 l -0.33,0.08 h -0.08 a 5.19,5.19 0 0 0 -2,1.13 l -3.57,3.27 -4.5,4.12 -5.08,4.65 -5.08,-4.65 -4.5,-4.12 -3.57,-3.27 a 5.24,5.24 0 0 0 -2,-1.13 h -0.08 l -0.33,-0.08 h -0.16 -0.29 -0.22 -0.41 -0.09 -0.51 v 0 a 5.24,5.24 0 0 0 -3.07,1.33 4.51,4.51 0 0 0 -1.55,2.79 v 0 a 3.83,3.83 0 0 0 0,0.47 v 39.07 a 1.36,1.36 0 0 0 1.41,1.29 h 7.38 a 1.35,1.35 0 0 0 1.4,-1.29 V 36.08 l 10.11,9.25 a 2.33,2.33 0 0 0 3.09,0 l 10.1,-9.25 v 27.76 a 1.36,1.36 0 0 0 1.41,1.29 h 7.37 a 1.35,1.35 0 0 0 1.41,-1.29 v -39.05 0 c 0,-0.16 0,-0.31 0,-0.47 z"
       fill="#183b67"
       id="path63" />
    <path
       d="M 332.64,75.28 H 667.36 V 96 H 332.64 Z"
       fill="#e8e342"
       stroke="#000000"
       stroke-miterlimit="10"
       stroke-width="0.25"
       id="path65" />
    <path
       d="m 372.35,83.56 h -4.72 v 8.71 c 0,0.5 -1.48,0 -1.48,0 V 85.3 a 24.47,24.47 0 0 1 -5.86,5.93 l -1.08,-1.13 a 21.08,21.08 0 0 0 6,-6.54 h -5.9 v -1.32 h 6.83 V 79 h 1.48 v 3.24 h 4.72 z m 13.53,0.48 a 20.93,20.93 0 0 1 -3.21,4.24 l -1.14,-1 a 17.64,17.64 0 0 0 2.36,-2.89 l -4.8,0.72 V 90 c 0,0.28 0.15,0.42 0.46,0.42 h 6 v 1.47 h -6.45 a 1.48,1.48 0 0 1 -1.11,-0.48 1.61,1.61 0 0 1 -0.47,-1.13 v -4.93 l -3.7,0.57 -0.22,-1.46 3.92,-0.59 v -4.15 h 1.57 v 3.89 l 6.52,-1 z m 16.69,6.79 H 401 v -0.74 h -6.39 v 0.74 h -1.53 v -9.74 h 9.45 z M 401,88.67 v -6.15 h -6.39 v 6.15 z m 19,-4.89 h -3 a 12.55,12.55 0 0 1 -4.8,9 l -1.22,-1 a 11.19,11.19 0 0 0 4.5,-8 h -4 a 18.33,18.33 0 0 1 -2.46,3.64 l -1.24,-0.9 a 18.91,18.91 0 0 0 3.85,-7.3 l 1.39,0.4 a 23.57,23.57 0 0 1 -0.9,2.78 h 8 v 1.38 z m -0.31,-2.18 -1.06,0.48 a 12.65,12.65 0 0 0 -1.46,-2 l 1.05,-0.52 a 10.75,10.75 0 0 1 1.54,2.04 z m 1.82,-0.55 -1,0.55 A 11.38,11.38 0 0 0 419,79.37 l 1,-0.55 a 9,9 0 0 1 1.58,2.23 z m 15,5.47 H 424.16 V 85 h 12.38 z m 16.49,4.27 -1.2,0.91 a 16.28,16.28 0 0 0 -0.91,-1.42 96.75,96.75 0 0 1 -10.93,0.83 l -0.39,-1.58 h 2.18 a 48.36,48.36 0 0 0 3.68,-9.74 l 1.52,0.41 a 66.12,66.12 0 0 1 -3.43,9.24 c 1.93,-0.07 4,-0.25 6.33,-0.52 a 20.75,20.75 0 0 0 -2.26,-2.51 l 1.28,-0.91 a 25,25 0 0 1 4.13,5.29 z m 17.53,0.57 c 0,1.19 -0.68,1.79 -2,1.79 -0.68,0 -1.37,0 -2.05,-0.05 l -0.52,-1.48 c 0.31,0 1.17,0 2.55,0 0.38,0 0.56,-0.17 0.56,-0.52 v -8.71 h -4.55 a 7.42,7.42 0 0 1 -0.17,0.92 47.55,47.55 0 0 1 4.37,6.18 l -1.2,1 A 32.37,32.37 0 0 0 463.9,85 a 14.19,14.19 0 0 1 -3.58,5.38 l -1.1,-1.06 A 11,11 0 0 0 463,82.39 h -4.28 v 10.69 h -1.55 V 81 h 6 c 0.05,-0.86 0.08,-1.71 0.1,-2.56 h 1.5 q 0,1.28 -0.12,2.55 h 5.88 z m 17,-1.14 a 5.63,5.63 0 0 1 -0.5,1.87 c -0.32,0.72 -0.76,1.08 -1.34,1.08 -0.58,0 -1.45,-0.59 -2.26,-1.77 a 19.68,19.68 0 0 1 -1.64,1.87 l -1.21,-0.71 a 21.66,21.66 0 0 0 2.16,-2.56 22.42,22.42 0 0 1 -1.05,-6.22 h -6.57 v 3.81 a 10,10 0 0 1 -1.43,5.57 l -1.13,-1.06 a 8.49,8.49 0 0 0 1.14,-4.75 v -4.79 h 7.94 a 8,8 0 0 1 0,-1 h 1.45 a 7.53,7.53 0 0 0 0,1 h 4.26 v 1.24 h -4.23 a 19.09,19.09 0 0 0 0.6,4.5 23.88,23.88 0 0 0 1.46,-3.79 l 1.33,0.38 a 23.89,23.89 0 0 1 -2.16,5.11 3.64,3.64 0 0 0 0.69,1.08 c 0.27,0.29 0.47,0.43 0.59,0.43 0.12,0 0.48,-0.68 0.66,-2 z m -7.89,-9.52 h -1.74 v 1 h -1.5 v -1 h -3.76 v -1.32 h 3.76 v -1 h 1.5 v 1 h 1.74 z m 1.68,5 h -1.73 v 0.93 h 1.45 v 3.11 h -1.45 v 1 h 1.48 v 1.16 h -5.29 v -7.34 h 5.54 z m -3.06,0.93 V 85.7 h -1.11 v 0.93 z m 1.43,2.08 v -1.08 h -2.55 v 1.06 z m -1.43,2 v -1 h -1.11 v 1 z m 9.06,-10 h -3.62 v 0.45 h -1.54 V 80.7 h -1.79 v -1.32 h 1.79 v -1 h 1.54 v 1 h 3.65 z m -0.69,0.88 -0.77,0.87 c -0.11,-0.07 -0.71,-0.34 -1.79,-0.82 l 0.79,-0.83 a 13.64,13.64 0 0 1 1.77,0.78 z m 24.41,9.63 -0.86,1.23 A 14.08,14.08 0 0 1 505.89,89 c 0,0.23 0,0.5 0,0.79 a 4.54,4.54 0 0 1 -0.56,2.65 2.65,2.65 0 0 1 -2.16,0.71 h -1.1 l -0.49,-1.43 c 0.77,0 1.33,0 1.65,0 a 1.24,1.24 0 0 0 0.81,-0.17 1,1 0 0 0 0.3,-0.42 5.61,5.61 0 0 0 0.11,-1.55 c 0,-0.27 0,-0.53 0,-0.76 a 18.91,18.91 0 0 1 -7.61,3.81 l -0.66,-1.27 a 17,17 0 0 0 8,-4.06 4.79,4.79 0 0 0 -0.36,-0.88 16.51,16.51 0 0 1 -6.82,3.14 l -0.64,-1.23 a 16.29,16.29 0 0 0 6.89,-3 c 0,0 -0.22,-0.26 -0.57,-0.64 a 18.56,18.56 0 0 1 -5.39,1.76 l -0.68,-1.29 a 16.13,16.13 0 0 0 6.34,-2 h -4.09 v -1.23 h 9.51 v 1.31 h -3.45 a 5,5 0 0 1 -1,0.77 7.29,7.29 0 0 1 1.51,2.4 13.22,13.22 0 0 0 3.27,-2.41 l 1.06,1 a 15.48,15.48 0 0 1 -3.52,2.49 13.34,13.34 0 0 0 4.83,3.72 z m -0.55,-8.52 h -1.47 V 81 h -10.9 v 1.72 h -1.49 v -3 h 6.07 a 5.85,5.85 0 0 0 -0.64,-1 l 1.6,-0.32 a 14.1,14.1 0 0 1 0.75,1.32 h 6.11 z M 527.43,81 h -11.91 v 5.83 A 12.47,12.47 0 0 1 514,93.25 l -1.22,-0.93 A 11.52,11.52 0 0 0 514,86.71 v -7.07 h 5.71 a 4.66,4.66 0 0 0 -0.64,-1 l 1.6,-0.34 c 0.11,0.14 0.36,0.57 0.76,1.29 h 6 V 81 Z m 0.21,10.43 -0.44,1.45 h -4.52 a 7.54,7.54 0 0 1 -4.38,-1.21 8.55,8.55 0 0 1 -2,1.51 l -1,-1.17 a 6.86,6.86 0 0 0 2,-1.36 8.62,8.62 0 0 1 -1.3,-2.5 l 1.35,-0.45 a 8.62,8.62 0 0 0 0.72,1.72 5.7,5.7 0 0 0 0.56,-2.27 h -2.42 v -1.34 a 14.07,14.07 0 0 0 2,-2.28 h -2 v -1.38 h 3.7 v 1.38 a 14.62,14.62 0 0 1 -1.79,2.28 h 2 v 1.38 a 10.35,10.35 0 0 1 -1,3.43 6.07,6.07 0 0 0 3.47,0.85 z m -0.39,-1.15 h -6.94 v -1.35 h 2.74 V 86.8 h -2.19 v -1.36 h 2.19 V 83.79 L 521,84 520.43,82.65 a 26,26 0 0 0 6,-1 l 0.81,1.24 a 22.2,22.2 0 0 1 -2.66,0.63 v 1.91 h 2.12 v 1.37 h -2.12 v 2.13 h 2.71 z M 543,91.43 a 1.66,1.66 0 0 1 -0.49,1.2 2.38,2.38 0 0 1 -1.74,0.51 c -0.37,0 -0.77,0 -1.17,0 l -0.45,-1.49 H 541 a 0.44,0.44 0 0 0 0.35,-0.17 0.52,0.52 0 0 0 0.16,-0.37 V 88 h -4.15 v 4.71 H 536 V 88 h -4.08 a 11.3,11.3 0 0 1 -1.5,5.17 l -1.33,-0.86 a 8.24,8.24 0 0 0 1.1,-2.79 15.92,15.92 0 0 0 0.38,-3.31 V 78.78 H 543 Z m -7,-8.74 v -2.44 h -4 v 2.44 z m 0,3.92 v -2.52 h -4 v 2.52 z m 5.58,-3.92 v -2.44 h -4.15 v 2.44 z m 0,3.92 v -2.52 h -4.15 v 2.52 z m 17.3,-1.86 h -5.13 a 19.25,19.25 0 0 1 -0.25,3.35 5.64,5.64 0 0 1 -1.14,2.49 7.15,7.15 0 0 1 -2.76,2 l -1,-1.14 a 7.55,7.55 0 0 0 2.4,-1.68 3.86,3.86 0 0 0 1,-1.86 18.94,18.94 0 0 0 0.16,-3.16 h -5.63 v -1.39 h 12.32 v 1.39 z m -2,-3.29 h -8.37 V 80 h 8.37 v 1.42 z M 575,85.1 a 16.24,16.24 0 0 1 -4.72,4.55 15.5,15.5 0 0 1 -6,1.83 V 79.89 h 1.53 V 89.7 A 12.62,12.62 0 0 0 570,88.05 16,16 0 0 0 573.92,84 Z m 15,6.33 h -7.51 a 1.78,1.78 0 0 1 -1.22,-0.46 1.52,1.52 0 0 1 -0.51,-1.17 v -9.91 h 1.58 v 4.32 a 32.87,32.87 0 0 0 6.74,-1.52 l 0.77,1.28 a 33.27,33.27 0 0 1 -7.51,1.65 v 3.94 a 0.43,0.43 0 0 0 0.16,0.28 0.51,0.51 0 0 0 0.29,0.14 H 590 Z m 0.63,-9.33 -1,0.61 a 15.17,15.17 0 0 0 -1.53,-2.2 l 0.94,-0.63 a 9.46,9.46 0 0 1 1.61,2.22 z m 1.46,-1 -1,0.66 a 12,12 0 0 0 -1.55,-2.25 l 0.94,-0.61 a 10.94,10.94 0 0 1 1.63,2.2 z m 15.78,2.68 h -3.13 a 12.55,12.55 0 0 1 -4.8,9 l -1.22,-1 a 11.15,11.15 0 0 0 4.5,-8 h -4 a 17.94,17.94 0 0 1 -2.46,3.64 l -1.23,-0.9 a 18.9,18.9 0 0 0 3.84,-7.3 l 1.4,0.4 a 26.1,26.1 0 0 1 -0.91,2.78 h 8 z m -0.32,-2.18 -1.06,0.48 a 13.24,13.24 0 0 0 -1.45,-2 l 1,-0.52 a 10.33,10.33 0 0 1 1.47,2.08 z m 1.82,-0.55 -1,0.55 a 11.38,11.38 0 0 0 -1.54,-2.23 l 1,-0.55 a 9,9 0 0 1 1.56,2.23 z m 15,5.47 H 612 V 85 h 12.38 z m 16.38,4.27 -1.2,0.91 c -0.37,-0.64 -0.68,-1.11 -0.9,-1.42 a 97.15,97.15 0 0 1 -10.94,0.83 l -0.39,-1.58 h 2.18 a 48.36,48.36 0 0 0 3.68,-9.74 l 1.52,0.41 a 66.12,66.12 0 0 1 -3.43,9.24 c 2.11,-0.09 4.23,-0.26 6.33,-0.52 a 20.75,20.75 0 0 0 -2.26,-2.51 l 1.28,-0.91 a 25,25 0 0 1 4.17,5.29 z"
       id="path67" />
  </g>
  <metadata
     id="metadata891">
    <rdf:RDF>
      <cc:Work
         rdf:about="">
        <dc:title>logo</dc:title>
      </cc:Work>
    </rdf:RDF>
  </metadata>
</svg>
