<?xml version="1.0" encoding="UTF-8" standalone="no"?>
<svg
   id="Layer_1"
   data-name="Layer 1"
   viewBox="0 0 514 104.46923"
   version="1.1"
   sodipodi:docname="n64.svg"
   width="514"
   height="104.46923"
   inkscape:version="1.1 (c68e22c387, 2021-05-23)"
   xmlns:inkscape="http://www.inkscape.org/namespaces/inkscape"
   xmlns:sodipodi="http://sodipodi.sourceforge.net/DTD/sodipodi-0.dtd"
   xmlns="http://www.w3.org/2000/svg"
   xmlns:svg="http://www.w3.org/2000/svg">
  <defs
     id="defs69" />
  <sodipodi:namedview
     id="namedview67"
     pagecolor="#ffffff"
     bordercolor="#666666"
     borderopacity="1.0"
     inkscape:pageshadow="2"
     inkscape:pageopacity="0.0"
     inkscape:pagecheckerboard="0"
     showgrid="false"
     fit-margin-top="0"
     fit-margin-left="0"
     fit-margin-right="0"
     fit-margin-bottom="0"
     inkscape:zoom="1.113"
     inkscape:cx="257.4124"
     inkscape:cy="52.111411"
     inkscape:window-width="1920"
     inkscape:window-height="1138"
     inkscape:window-x="-8"
     inkscape:window-y="-8"
     inkscape:window-maximized="1"
     inkscape:current-layer="Layer_1" />
  <path
     d="m 52.310007,100.94 a 3.51,3.51 0 0 1 -1.36,-0.27 l -13.64,-5.75 a 3.54,3.54 0 0 1 -1.75,-1.62 l -5.31,-10.31 -8.94,4 a 3.54,3.54 0 0 1 -1.43,0.31 3.46,3.46 0 0 1 -1.77,-0.48 L 5.6400072,81.57 a 3.5,3.5 0 0 1 -2.14,-3.23 V 24.4 a 3.49,3.49 0 0 1 1.5,-2.88 3.37,3.37 0 0 1 1.09,-0.5 l 12.5299998,-4.8 a 3.43,3.43 0 0 1 2.52,0 l 10,3.84 5.46,-9.84 a 3.5,3.5 0 0 1 1.8,-1.57 l 12.65,-4.88 a 3.6,3.6 0 0 1 1.26,-0.23 3.49,3.49 0 0 1 1.27,0.24 l 12.64,4.93 a 3.49,3.49 0 0 1 2.23,3.26 v 11.1 l 0.85,-0.95 a 3.47,3.47 0 0 1 1.36,-0.94 l 12.82,-4.96 a 3.4,3.4 0 0 1 2.52,0 l 12.82,4.93 a 3.5,3.5 0 0 1 2.240003,3.26 v 54 a 3.5,3.5 0 0 1 -2.140003,3.23 l -12.82,5.39 a 3.4,3.4 0 0 1 -1.35,0.28 h -0.06 a 3.49,3.49 0 0 1 -1.27,-0.24 l -14,-5.44 V 91.7 a 3.5,3.5 0 0 1 -2.14,3.22 l -13.57,5.74 a 3.42,3.42 0 0 1 -1.4,0.28 z"
     fill="#c33d3a"
     id="path2" />
  <path
     d="m 52.310007,7 12.69,4.93 v 20.29 l -2.67,3 -10,-3.83 -10.4,4 v 0.06 l 10.49,-4 10.32,3.92 -0.4,-0.15 9.63,-10.85 v 0 l 12.81,-4.93 12.82,4.93 v 54 l -12.82,5.4 -18.85,-24.6 v 0.05 l 18.8,24.52 -15,-5.8 -3.83,-5.4 V 91.7 l -13.57,5.74 v 0 l -13.64,-5.74 -6.83,-13.27 -12,5.38 V 55.22 l -0.06,-0.12 V 83.75 L 7.0000072,78.35 V 24.4 l 12.8199998,4.93 12.36,23.21 -12.3,-23.21 -12.8199998,-4.93 12.8199998,-4.93 12.82,4.93 7,-12.53 v 0 l 12.65,-4.87 m 0,9.85 V 16.8 l -12.54,-4.89 12.51,4.94 m 0,25 v 0 l -13.49,-5.14 v 0 l 13.5,5.14 m 32.4,21.77 v 0 l -9.18,-13.14 9.18,13.14 M 52.310007,0 a 7,7 0 0 0 -2.52,0.47 l -12.65,4.87 a 7.07,7.07 0 0 0 -3.76,3.43 c -0.48,0.87 -1.52,2.72 -3.85,6.92 l -7.14,-2.75 a 6.94,6.94 0 0 0 -5,0 L 5.0000072,17.7 A 7,7 0 0 0 7.2384863e-6,24.4 v 54 A 7,7 0 0 0 4.2800072,84.86 l 12.2899998,5.17 a 7,7 0 0 0 6.18,0.21 l 5.91,-2.65 3.79,7.36 a 7,7 0 0 0 3.51,3.25 l 13.54,5.7 a 7,7 0 0 0 5.53,0 l 13.58,-5.75 a 7,7 0 0 0 4.27,-6.44 v -5 l 9.27,3.6 a 6.94,6.94 0 0 0 2.52,0.47 h 0.07 a 7,7 0 0 0 2.71,-0.55 l 12.820003,-5.39 a 7,7 0 0 0 4.28,-6.46 V 24.4 a 7,7 0 0 0 -4.48,-6.53 L 87.250007,12.94 a 7,7 0 0 0 -5,0 l -10.27,4 v -5 a 7,7 0 0 0 -4.45,-6.52 l -12.68,-4.94 a 7,7 0 0 0 -2.54,-0.48 z"
     fill="#ffffff"
     id="path4" />
  <path
     d="m 426.36001,82.9 c -14.86,0 -24.09,-9.81 -24.09,-25.6 0,-15.79 9.23,-25.61 24.09,-25.61 14.86,0 24.1,9.81 24.1,25.61 0,15.8 -9.24,25.6 -24.1,25.6 z m 0,-33.57 c -0.29,0.84 -0.72,2.92 -0.72,7.79 0,5 0.46,7.09 0.75,7.87 0.27,-0.79 0.72,-2.85 0.72,-7.87 0,-5.02 -0.47,-6.97 -0.76,-7.79 z"
     fill="#c33d3a"
     id="path6" />
  <path
     d="m 426.36001,35.22 c 13.64,0 20.64,9 20.64,22.08 0,13.08 -6.73,22.1 -20.6,22.1 -13.63,0 -20.59,-9.05 -20.59,-22.1 0,-13.05 6.75,-22.08 20.55,-22.08 m 0,33.48 c 2.5,0 4.24,-1.16 4.24,-11.55 0,-10 -1.74,-11.54 -4.24,-11.54 -2.5,0 -4.23,1.33 -4.23,11.54 0,10.21 1.74,11.55 4.23,11.55 m 0,-40.48 c -10.93,0 -17.31,4.64 -20.73,8.54 -4.49,5.11 -6.86,12.22 -6.86,20.57 0,17.67 10.83,29.1 27.59,29.1 11,0 17.35,-4.65 20.76,-8.54 4.47,-5.1 6.84,-12.21 6.84,-20.56 0.04,-17.71 -10.83,-29.11 -27.6,-29.11 z"
     fill="#ffffff"
     id="path8" />
  <path
     d="m 362.20001,81.79 a 3.5,3.5 0 0 1 -3.5,-3.5 V 36.35 a 3.5,3.5 0 0 1 3.5,-3.5 h 18.63 c 16,0 24.5,8.6 24.5,24.85 0,14.41 -9.45,24.09 -23.52,24.09 z m 18.8,-16.81 a 1.11,1.11 0 0 0 0.24,-0.3 c 0.71,-1.25 0.71,-5.82 0.71,-7.33 0,-1.51 0,-6.07 -0.71,-7.32 a 1,1 0 0 0 -0.24,-0.31 z"
     fill="#c33d3a"
     id="path10" />
  <path
     d="m 380.83001,36.35 c 15.95,0 21,9 21,21.35 0,12.71 -7.89,20.6 -20,20.6 h -19.63 V 36.35 h 18.63 m -3.31,32.55 h 1.56 c 2.5,0 4.24,-0.76 5.23,-2.5 0.99,-1.74 1.16,-5 1.16,-9.05 0,-4.05 -0.18,-7.3 -1.16,-9 -0.98,-1.7 -2.67,-2.5 -5.23,-2.5 h -1.56 V 68.9 m 3.31,-39.55 h -18.63 a 7,7 0 0 0 -7,7 V 78.3 a 7,7 0 0 0 7,7 h 19.61 c 16.16,0 27,-11.09 27,-27.6 0,-18.28 -10,-28.35 -28,-28.35 z"
     fill="#ffffff"
     id="path12" />
  <path
     d="m 121.22001,81.8 a 3.5,3.5 0 0 1 -3.5,-3.5 V 36.35 a 3.5,3.5 0 0 1 3.5,-3.5 h 18.86 a 3.5,3.5 0 0 1 3.3,2.34 l 1.84,5.24 v -4.08 a 3.5,3.5 0 0 1 3.5,-3.5 h 12.71 a 3.5,3.5 0 0 1 3.5,3.5 v 41.94 a 3.5,3.5 0 0 1 -3.5,3.5 h -18.86 a 3.49,3.49 0 0 1 -3.3,-2.34 l -1.84,-5.23 v 4.12 a 3.5,3.5 0 0 1 -3.5,3.5 z"
     fill="#c33d3a"
     id="path14" />
  <path
     d="M 161.43001,36.35 V 78.3 h -18.86 l -8.47,-24.25 h -0.17 V 78.3 h -12.71 V 36.35 h 18.86 l 8.47,24.08 h 0.17 V 36.35 h 12.71 m 0,-7 h -12.71 a 6.94,6.94 0 0 0 -4.32,1.5 7,7 0 0 0 -4.32,-1.5 h -18.86 a 7,7 0 0 0 -7,7 V 78.3 a 7,7 0 0 0 7,7 h 12.71 a 6.94,6.94 0 0 0 4.32,-1.5 7,7 0 0 0 4.32,1.5 h 18.86 a 7,7 0 0 0 7,-7 V 36.35 a 7,7 0 0 0 -7,-7 z"
     fill="#ffffff"
     id="path16" />
  <path
     d="m 192.41001,81.8 a 3.5,3.5 0 0 1 -3.5,-3.5 V 36.35 a 3.5,3.5 0 0 1 3.5,-3.5 h 18.85 a 3.51,3.51 0 0 1 3.3,2.34 l 1.9,5.37 v -4.21 a 3.5,3.5 0 0 1 3.5,-3.5 h 12.65 a 3.5,3.5 0 0 1 3.5,3.5 v 41.94 a 3.5,3.5 0 0 1 -3.5,3.5 h -18.86 a 3.49,3.49 0 0 1 -3.3,-2.34 l -1.84,-5.23 v 4.12 a 3.5,3.5 0 0 1 -3.5,3.5 z"
     fill="#c33d3a"
     id="path18" />
  <path
     d="M 232.61001,36.35 V 78.3 h -18.86 l -8.47,-24.25 h -0.17 V 78.3 h -12.7 V 36.35 h 18.85 l 8.53,24.08 h 0.21 V 36.35 h 12.65 m 0,-7 h -12.65 a 7,7 0 0 0 -4.35,1.52 7,7 0 0 0 -4.35,-1.52 h -18.89 a 7,7 0 0 0 -7,7 V 78.3 a 7,7 0 0 0 7,7 h 12.7 a 6.94,6.94 0 0 0 4.32,-1.5 7,7 0 0 0 4.32,1.5 h 18.86 a 7,7 0 0 0 7,-7 V 36.35 a 7,7 0 0 0 -7,-7 z"
     fill="#ffffff"
     id="path20" />
  <path
     d="m 277.86001,81.85 a 3.49,3.49 0 0 1 -3.5,-3.5 v -42 a 3.5,3.5 0 0 1 3.5,-3.5 h 31.14 a 3.5,3.5 0 0 1 3.5,3.5 v 11.14 a 3.49,3.49 0 0 1 -1.67,3 3.53,3.53 0 0 1 0.33,1.49 v 10.77 a 3.49,3.49 0 0 1 -0.31,1.45 3.5,3.5 0 0 1 2,3.19 v 11 a 3.49,3.49 0 0 1 -3.5,3.5 z"
     fill="#c33d3a"
     id="path22" />
  <path
     d="m 309.00001,36.35 v 11.14 l -15.78,0.06 v 4.41 h 14.44 v 10.79 h -14.43 v 4.64 h 16.18 v 11 h -31.55 v -42 h 31.14 m 0,-7 h -31.14 a 7,7 0 0 0 -7,7 v 42 a 7,7 0 0 0 7,7 h 31.55 a 7,7 0 0 0 7,-7 v -11 a 6.94,6.94 0 0 0 -1.74,-4.62 V 51.96 c 0,-0.12 0,-0.23 0,-0.34 a 7,7 0 0 0 1.33,-4.13 V 36.35 a 7,7 0 0 0 -7,-7 z"
     fill="#ffffff"
     id="path24" />
  <path
     d="m 315.00001,81.8 a 3.5,3.5 0 0 1 -3.5,-3.5 V 36.35 a 3.5,3.5 0 0 1 3.5,-3.5 h 18.86 a 3.51,3.51 0 0 1 3.3,2.34 l 1.84,5.24 v -4.08 a 3.5,3.5 0 0 1 3.5,-3.5 h 12.7 a 3.5,3.5 0 0 1 3.5,3.5 v 41.94 a 3.49,3.49 0 0 1 -3.5,3.5 h -18.87 a 3.49,3.49 0 0 1 -3.3,-2.34 l -1.84,-5.23 v 4.11 a 3.5,3.5 0 0 1 -3.5,3.5 z"
     fill="#c33d3a"
     id="path26" />
  <path
     d="M 355.18001,36.35 V 78.3 h -18.85 l -8.47,-24.25 h -0.17 V 78.3 h -12.69 V 36.35 h 18.86 l 8.47,24.08 h 0.17 V 36.35 h 12.7 m 0,-7 h -12.7 a 6.94,6.94 0 0 0 -4.32,1.5 7,7 0 0 0 -4.32,-1.5 h -18.86 a 7,7 0 0 0 -7,7 V 78.3 a 7,7 0 0 0 7,7 h 12.71 a 6.94,6.94 0 0 0 4.32,-1.5 7,7 0 0 0 4.32,1.5 h 18.85 a 7,7 0 0 0 7,-7 V 36.35 a 7,7 0 0 0 -7,-7 z"
     fill="#ffffff"
     id="path28" />
  <path
     d="m 247.22001,81.8 a 3.5,3.5 0 0 1 -3.5,-3.5 V 51.22 h -6.47 a 3.49,3.49 0 0 1 -3.5,-3.5 V 36.35 a 3.5,3.5 0 0 1 3.5,-3.5 h 35.75 a 3.5,3.5 0 0 1 3.5,3.5 v 11.37 a 3.5,3.5 0 0 1 -3.5,3.5 h -6.48 V 78.3 a 3.5,3.5 0 0 1 -3.5,3.5 z"
     fill="#c33d3a"
     id="path30" />
  <path
     d="m 273.00001,36.35 v 11.37 h -10 V 78.3 h -15.78 V 47.72 h -10 V 36.35 h 35.78 m 0,-7 h -35.75 a 7,7 0 0 0 -7,7 v 11.37 a 7,7 0 0 0 7,7 h 3 V 78.3 a 7,7 0 0 0 7,7 h 15.84 a 7,7 0 0 0 7,-7 V 54.72 h 3 a 7,7 0 0 0 7,-7 V 36.35 a 7,7 0 0 0 -7,-7 z"
     fill="#ffffff"
     id="path32" />
  <rect
     x="165.64001"
     y="32.850002"
     width="22.780001"
     height="48.939999"
     rx="3.5"
     fill="#c33d3a"
     id="rect34" />
  <path
     d="M 184.92001,36.35 V 78.3 h -15.78 V 36.35 h 15.78 m 0,-7 h -15.78 a 7,7 0 0 0 -7,7 V 78.3 a 7,7 0 0 0 7,7 h 15.78 a 7,7 0 0 0 7,-7 V 36.35 a 7,7 0 0 0 -7,-7 z"
     fill="#ffffff"
     id="path36" />
  <path
     d="m 495.05001,61.37 a 3.5,3.5 0 0 1 -3.27,-4.75 v -2.9 h -10.54 a 3.5,3.5 0 0 1 -3.5,-3.5 v -6 a 3.62,3.62 0 0 1 0.44,-1.7 l 11.14,-20 a 3.51,3.51 0 0 1 3.06,-1.8 h 11.14 a 3.5,3.5 0 0 1 3.48,3.5 v 15.77 a 3.5,3.5 0 0 1 3.48,3.5 v 6.9 a 3.5,3.5 0 0 1 -3.48,3.5 v 4 a 3.5,3.5 0 0 1 -3.5,3.5 z"
     fill="#c33d3a"
     id="path38" />
  <path
     d="m 503.52001,24.22 v 19.27 h 3.48 v 6.9 h -3.48 v 7.49 h -8.47 l 0.23,-0.18 v 0 -7.48 h -14 v -6 l 11.14,-20 h 11.14 m -14,19 h 5.74 v -5.71 c 0,-2.08 0.17,-4.4 0.17,-6.72 h -0.17 c -1,2.32 -1.91,4.4 -3.07,6.72 l -2.67,5.57 v 0.14 m 14,-26 h -11.18 a 7,7 0 0 0 -6.12,3.6 l -11.13,20 a 7,7 0 0 0 -0.89,3.4 v 6 a 7,7 0 0 0 7,7 h 6.84 a 6.84,6.84 0 0 0 0.33,2.86 7,7 0 0 0 6.64,4.8 h 8.47 a 7,7 0 0 0 7,-7 v -1.44 a 7,7 0 0 0 3.48,-6 v -6.9 a 7,7 0 0 0 -3.48,-6.05 V 24.22 a 7,7 0 0 0 -7,-7 z"
     fill="#ffffff"
     id="path40" />
  <path
     d="m 466.33001,61.78 c -10.14,0 -17,-7.35 -17,-18.29 0,-7.16 2.54,-13.5 7,-17.39 4,-3.76 9.12,-5.68 15.52,-5.89 h 3.15 a 3.49,3.49 0 0 1 3.5,3.5 v 7.07 a 3.51,3.51 0 0 1 -2.08,3.21 c 3.32,2.36 5.68,6.38 5.68,12 a 15.63,15.63 0 0 1 -15.77,15.79 z m -0.85,-15.92 a 3.83,3.83 0 0 0 0.68,2.06 3.86,3.86 0 0 0 0.21,-1.36 2.29,2.29 0 0 0 -0.4,-1.47 v 0 a 0.76,0.76 0 0 0 -0.16,0 0.45,0.45 0 0 0 -0.32,0.2 c -0.01,0.15 -0.01,0.36 -0.01,0.57 z"
     fill="#c33d3a"
     id="path42" />
  <path
     d="m 475.00001,23.71 v 7.07 h -2.66 c -6.73,0.41 -9.23,3.08 -10.21,6.33 h 0.17 c 1.74,-1.57 3.66,-2.09 6.32,-2.09 5.22,0 10,3.83 10,11 a 12.05,12.05 0 0 1 -12.3,12.3 c -9.45,0 -13.46,-7.13 -13.46,-14.79 0,-6.15 2.09,-11.55 5.8,-14.79 3.49,-3.25 7.89,-4.82 13.29,-5 h 3.05 m -8.64,27.84 c 2.09,0 3.48,-2.09 3.48,-5 0,-2.32 -1.16,-5 -4.06,-5 a 4,4 0 0 0 -3.65,2.49 5.25,5.25 0 0 0 -0.18,1.91 c 0.18,2.67 1.51,5.57 4.41,5.57 m 8.64,-34.84 h -3.3 c -7.15,0.23 -13.13,2.52 -17.75,6.79 -5.15,4.56 -8.11,11.84 -8.11,20 a 23.17,23.17 0 0 0 4.71,14.63 c 2.6,3.27 7.45,7.16 15.75,7.16 a 19.1,19.1 0 0 0 19.3,-19.3 18.57,18.57 0 0 0 -4.28,-12.17 7,7 0 0 0 0.68,-3 v -7.11 a 7,7 0 0 0 -7,-7 z m -12.14,30.05 z"
     fill="#ffffff"
     id="path44" />
  <path
     d="m 62.280007,35.22 2.72,-3 V 11.93 l -12.64,4.87 -10.5,18.63 10.45,-4 z"
     fill="#253488"
     id="path46" />
  <path
     d="M 84.730007,63.62 V 29.33 l 12.82,-4.93 v 54 l -12.82,5.4 -18.85,-24.6 v 32.5 l -13.57,5.74 V 41.81 l 13.57,-5.17 z"
     fill="#253287"
     id="path48" />
  <path
     d="m 31.890007,78.41 -12,-23.32 v 28.72 z"
     fill="#253488"
     id="path50" />
  <path
     d="m 32.700007,24.4 6,12.3 3.14,-1.22 10.44,-18.62 -12.65,-5 z m 29.58,10.82 9.63,-10.85 12.82,4.93 v 34.32 l -18.85,-27 z"
     fill="#238b41"
     id="path52" />
  <path
     d="M 52.310007,97.44 V 41.81 l -13.58,-5.17 v 28.2 L 19.820007,29.33 7.0000072,24.4 v 54 L 19.820007,83.8 V 55.09 l 18.85,36.61 z"
     fill="#238b41"
     id="path54" />
  <path
     d="m 19.880007,29.33 12.82,-4.93 6,12.3 v 28.2 z m 46,43.22 3.83,5.4 15,5.8 -18.86,-24.6 z"
     fill="#c33937"
     id="path56" />
  <path
     d="m 38.790007,36.64 13.57,-5.16 13.58,5.16 -13.58,5.17 z m 45.94,-17.17 12.82,4.93 -12.82,4.93 -12.82,-4.93 z m -64.85,0 12.82,4.93 -12.82,4.93 L 7.0600072,24.4 Z m 32.43,-12.47 -12.65,4.87 12.65,4.93 12.69,-4.87 z"
     fill="#e6b531"
     id="path58" />
  <path
     d="m 362.15001,36.35 h 18.68 c 15.95,0 21,9 21,21.35 0,12.71 -7.89,20.6 -20,20.6 h -19.63 V 36.35 Z m 15.37,32.55 h 1.56 c 2.5,0 4.24,-0.76 5.23,-2.5 0.99,-1.74 1.16,-5 1.16,-9.05 0,-4.05 -0.18,-7.3 -1.16,-9 -0.98,-1.7 -2.67,-2.5 -5.23,-2.5 h -1.56 z m 48.84,-33.68 c 13.64,0 20.64,9 20.64,22.08 0,13.08 -6.73,22.1 -20.6,22.1 -13.63,0 -20.59,-9.05 -20.59,-22.1 0,-13.05 6.75,-22.08 20.55,-22.08 z m 0,33.48 c 2.5,0 4.24,-1.16 4.24,-11.55 0,-10 -1.74,-11.54 -4.24,-11.54 -2.5,0 -4.23,1.33 -4.23,11.54 0,10.21 1.74,11.52 4.23,11.52 z"
     fill="#233387"
     id="path60" />
  <path
     d="m 148.72001,36.35 v 24.08 h -0.17 l -8.47,-24.08 h -18.86 V 78.3 h 12.71 V 54.05 h 0.17 l 8.47,24.25 h 18.86 V 36.35 Z m 71.24,0 v 24.08 h -0.17 l -8.53,-24.08 h -18.85 V 78.3 h 12.7 V 54.05 h 0.17 l 8.47,24.25 h 18.86 V 36.35 Z m 122.52,0 v 24.08 h -0.17 l -8.47,-24.08 h -18.84 V 78.3 h 12.71 V 54.05 h 0.17 l 8.47,24.25 h 18.85 V 36.35 Z m -157.56,0 V 78.3 h -15.78 V 36.35 Z m 62.3,41.95 V 47.72 h -10 V 36.35 h 35.78 v 11.37 h -10 V 78.3 Z m 46,-30.75 v 4.41 h 14.44 v 10.79 h -14.43 v 4.64 h 16.18 v 11 h -31.55 v -42 h 31.14 v 11.1 z"
     fill="#233387"
     id="path62" />
  <path
     d="m 475.27001,30.78 h -2.9 c -6.73,0.41 -9.23,3.08 -10.21,6.33 h 0.17 c 1.74,-1.57 3.66,-2.09 6.32,-2.09 5.22,0 10,3.83 10,11 a 12.05,12.05 0 0 1 -12.3,12.3 c -9.45,0 -13.46,-7.13 -13.46,-14.79 0,-6.15 2.09,-11.55 5.8,-14.79 3.49,-3.25 7.89,-4.82 13.29,-5 h 3.02 v 7.07 z m -8.88,20.77 c 2.09,0 3.48,-2.09 3.48,-5 0,-2.32 -1.16,-5 -4.06,-5 a 4,4 0 0 0 -3.65,2.49 5.25,5.25 0 0 0 -0.18,1.91 c 0.18,2.7 1.51,5.6 4.41,5.6 z m 28.89,6.15 v -7.48 h -14 v -6 l 11.14,-20 h 11.14 v 19.27 h 3.44 v 6.9 h -3.48 v 7.49 h -8.47 z m 0,-14.38 v -5.81 c 0,-2.08 0.17,-4.4 0.17,-6.72 h -0.17 c -1,2.32 -1.91,4.4 -3.07,6.72 l -2.67,5.57 v 0.14 h 5.74 z"
     fill="#c33d3a"
     id="path64" />
</svg>
