<?xml version="1.0" encoding="UTF-8" standalone="no"?>
<svg
   viewBox="0 0 319.95001 114"
   version="1.1"
   id="svg68"
   sodipodi:docname="naomigd.svg"
   width="319.95001"
   height="114"
   inkscape:version="1.1 (c68e22c387, 2021-05-23)"
   xmlns:inkscape="http://www.inkscape.org/namespaces/inkscape"
   xmlns:sodipodi="http://sodipodi.sourceforge.net/DTD/sodipodi-0.dtd"
   xmlns="http://www.w3.org/2000/svg"
   xmlns:svg="http://www.w3.org/2000/svg">
  <defs
     id="defs72" />
  <sodipodi:namedview
     id="namedview70"
     pagecolor="#ffffff"
     bordercolor="#666666"
     borderopacity="1.0"
     inkscape:pageshadow="2"
     inkscape:pageopacity="0.0"
     inkscape:pagecheckerboard="0"
     showgrid="false"
     fit-margin-top="0"
     fit-margin-left="0"
     fit-margin-right="0"
     fit-margin-bottom="0"
     inkscape:zoom="1.113"
     inkscape:cx="160.37736"
     inkscape:cy="56.603774"
     inkscape:window-width="1920"
     inkscape:window-height="1138"
     inkscape:window-x="-8"
     inkscape:window-y="-8"
     inkscape:window-maximized="1"
     inkscape:current-layer="svg68" />
  <g
     id="Layer_3"
     data-name="Layer 3"
     transform="translate(-340.05)">
    <polygon
       points="543.94,27.44 497.16,12.79 483.28,57.09 383.85,57.09 383.85,33.35 355.52,33.35 355.52,57.09 353.98,57.09 353.98,82.37 475.37,82.37 472.67,90.96 519.45,105.61 525.77,85.43 615.16,85.43 615.16,43.31 538.97,43.31 "
       fill="#ffffff"
       id="polygon2" />
  </g>
  <g
     id="Capa_1"
     data-name="Capa 1"
     transform="translate(-340.05)">
    <text
       id="_Group_"
       data-name="&lt;Group&gt;"
       stroke-linecap="round"
       font-size="0.72px"
       fill="#e13132"
       stroke="#ffffff"
       transform="translate(645.36,68.52)"
       stroke-linejoin="round"
       stroke-width="7"
       font-family="ArialMT, Arial"
       style="isolation:isolate">I don’t like bugs!</text>
    <path
       d="m 347.22,73.68 a 3.5,3.5 0 0 1 -3.5,-3.5 L 343.55,9 a 3.51,3.51 0 0 1 2,-3.17 3.38,3.38 0 0 1 1.49,-0.34 3.5,3.5 0 0 1 2.23,0.81 l 41.12,34 -0.13,-31.76 A 3.5,3.5 0 0 1 393.77,5 h 10.14 a 3.5,3.5 0 0 1 3.5,3.5 v 61 a 3.5,3.5 0 0 1 -2,3.16 3.46,3.46 0 0 1 -1.5,0.34 3.55,3.55 0 0 1 -2.21,-0.78 L 359.53,38 v 32.18 a 3.5,3.5 0 0 1 -3.5,3.5 z"
       fill="#ffffff"
       id="path6" />
    <path
       d="m 403.91,8.5 v 61 L 356,30.61 v 39.57 h -8.81 L 347.05,9 393.93,47.74 393.77,8.5 h 10.14 m 0,-7 h -10.14 a 7,7 0 0 0 -7,7 l 0.1,24.28 L 351.51,3.6 A 7,7 0 0 0 340.05,9 l 0.17,61.18 a 7,7 0 0 0 7,7 H 356 a 7,7 0 0 0 7,-7 V 45.32 l 36.5,29.62 a 7,7 0 0 0 11.41,-5.43 V 8.5 a 7,7 0 0 0 -7,-7 z"
       fill="#ffffff"
       id="path8" />
    <path
       d="m 466.42,74 a 3.49,3.49 0 0 1 -3.1,-1.88 l -6,-11.42 h -26.24 l -6.32,11.48 A 3.49,3.49 0 0 1 421.7,74 h -11.31 a 3.5,3.5 0 0 1 -3,-5.28 l 4.72,-8 h -1 a 3.5,3.5 0 0 1 -3.5,-3.5 V 47.9 a 3.5,3.5 0 0 1 3.5,-3.5 h 9.73 l 20.4,-37.1 a 3.54,3.54 0 0 1 3.06,-1.81 v 0 a 3.48,3.48 0 0 1 3.05,1.8 l 34.26,61.51 a 3.5,3.5 0 0 1 -3.06,5.2 z m -17.2,-29.78 -5.08,-9.31 -5.08,9.31 z"
       fill="#ffffff"
       id="path10" />
    <path
       d="m 444.31,9 34.24,61.52 h -12.13 l -7,-13.3 H 429 l -7.31,13.3 h -11.3 l 7.81,-13.3 h -7.14 V 47.9 h 11.8 L 444.31,9 m -11.14,38.73 h 21.94 l -11,-20.11 -11,20.11 M 444.31,2 V 2 A 7,7 0 0 0 438.2,5.63 L 418.73,40.9 h -7.67 a 7,7 0 0 0 -7,7 v 9.31 a 7,7 0 0 0 2.75,5.57 L 404.36,67 a 7,7 0 0 0 6,10.55 h 11.34 a 7,7 0 0 0 6.13,-3.63 l 5.32,-9.67 h 22.05 l 5,9.55 a 7,7 0 0 0 6.2,3.75 h 12.13 a 7,7 0 0 0 6.12,-10.41 L 450.42,5.59 A 7,7 0 0 0 444.31,2 Z"
       fill="#ffffff"
       id="path12" />
    <path
       d="m 612.88,74 a 3.51,3.51 0 0 1 -3.5,-3.49 l -0.11,-23.79 -17.47,21 A 3.5,3.5 0 0 1 589.12,69 v 0 a 3.52,3.52 0 0 1 -2.68,-1.25 l -17.6,-20.89 v 23.65 a 3.5,3.5 0 0 1 -3.5,3.5 h -10 a 3.5,3.5 0 0 1 -3.5,-3.5 V 9.16 a 3.5,3.5 0 0 1 2.28,-3.28 3.49,3.49 0 0 1 3.87,1 l 31.25,36.3 31.6,-37.12 a 3.51,3.51 0 0 1 2.66,-1.23 3.36,3.36 0 0 1 1.21,0.22 3.48,3.48 0 0 1 2.29,3.28 v 62.18 a 3.5,3.5 0 0 1 -3.5,3.5 z"
       fill="#ffffff"
       id="path14" />
    <path
       d="M 623.52,8.33 V 70.51 H 612.88 L 612.72,37.09 589.11,65.52 565.34,37.26 v 33.25 h -10 V 9.16 l 33.92,39.4 34.26,-40.23 m 0,-7 a 7,7 0 0 0 -5.33,2.46 l -28.94,34 L 560.67,4.6 a 7,7 0 0 0 -5.31,-2.44 6.91,6.91 0 0 0 -2.44,0.44 7,7 0 0 0 -4.56,6.56 v 61.35 a 7,7 0 0 0 7,7 h 10 a 7,7 0 0 0 7,-7 V 56.45 L 583.75,70 a 7,7 0 0 0 5.36,2.49 v 0 A 7,7 0 0 0 594.49,70 l 11.32,-13.63 0.07,14.18 a 7,7 0 0 0 7,7 h 10.64 a 7,7 0 0 0 7,-7 V 8.33 a 7,7 0 0 0 -7,-7 z"
       fill="#ffffff"
       id="path16" />
    <rect
       x="639.46997"
       y="4.1599998"
       width="16.969999"
       height="69.839996"
       rx="3.5"
       fill="#ffffff"
       id="rect18" />
    <path
       d="M 653,7.66 V 70.51 H 643 V 7.66 h 10 m 0,-7 h -10 a 7,7 0 0 0 -7,7 v 62.85 a 7,7 0 0 0 7,7 h 10 a 7,7 0 0 0 7,-7 V 7.66 a 7,7 0 0 0 -7,-7 z"
       fill="#ffffff"
       id="path20" />
    <path
       d="m 511.64,77.33 a 36.92,36.92 0 1 1 36.91,-36.91 37,37 0 0 1 -36.91,36.91 z m 0,-56.69 a 19.86,19.86 0 1 0 19.94,19.78 19.8,19.8 0 0 0 -19.94,-19.78 z"
       fill="#ffffff"
       id="path22" />
    <path
       d="M 511.64,7 A 33.42,33.42 0 1 1 478.22,40.42 33.41,33.41 0 0 1 511.64,7 m 0,56.86 A 23.36,23.36 0 1 0 488.36,40.42 23.42,23.42 0 0 0 511.64,63.86 M 511.64,0 A 40.42,40.42 0 1 0 552.05,40.42 40.46,40.46 0 0 0 511.64,0 Z m 0,56.86 a 16.36,16.36 0 1 1 16.44,-16.44 16.38,16.38 0 0 1 -16.44,16.44 z"
       fill="#ffffff"
       id="path24" />
    <rect
       x="343.54999"
       y="77.019997"
       width="312.89999"
       height="33.48"
       rx="3.5"
       fill="#ffffff"
       id="rect26" />
    <path
       d="M 653,80.52 V 107 H 347.05 V 80.52 H 653 m 0,-7 H 347.05 a 7,7 0 0 0 -7,7 V 107 a 7,7 0 0 0 7,7 H 653 a 7,7 0 0 0 7,-7 V 80.52 a 7,7 0 0 0 -7,-7 z"
       fill="#ffffff"
       id="path28" />
    <text
       id="_Group_2"
       data-name="&lt;Group&gt;"
       transform="translate(645.36,68.52)"
       font-size="0.72px"
       fill="#e13132"
       font-family="ArialMT, Arial"
       style="isolation:isolate">I don’t like bugs!</text>
    <polyline
       points="403.91 69.51 403.91 8.5 393.77 8.5 393.93 47.73 347.05 8.99 347.22 70.17 356.03 70.17 356.03 30.61 403.91 69.51"
       fill="#020101"
       id="polyline31" />
    <path
       d="m 410.39,70.51 7.81,-13.3 h -7.14 V 47.9 h 11.8 L 444.31,9 478.55,70.52 h -12.13 l -7,-13.3 H 429 l -7.31,13.3 h -11.3 m 22.78,-22.78 h 21.94 l -11,-20.11 -11,20.11"
       fill="#020101"
       id="path33" />
    <polyline
       points="565.34 70.51 555.36 70.51 555.36 9.16 589.28 48.56 623.52 8.33 623.52 70.51 612.88 70.51 612.72 37.09 589.11 65.52 565.34 37.26 565.34 70.51"
       fill="#020101"
       id="polyline35" />
    <rect
       x="642.96997"
       y="7.6599998"
       width="9.9700003"
       height="62.84"
       fill="#020101"
       id="rect37" />
    <path
       d="m 478.22,40.42 a 33.42,33.42 0 1 1 33.42,33.41 33.42,33.42 0 0 1 -33.42,-33.41 m 33.42,23.44 a 23.36,23.36 0 1 0 -23.28,-23.44 23.42,23.42 0 0 0 23.28,23.44"
       fill="#e5542e"
       id="path39" />
    <rect
       x="347.04999"
       y="80.519997"
       width="305.89999"
       height="26.48"
       fill="#e5542e"
       id="rect41" />
    <path
       d="m 367.57,91.41 v 0 a 1.72,1.72 0 0 0 -0.7,-1.6 7.21,7.21 0 0 0 -3.17,-0.43 h -3 c -1.76,0 -2.89,0.21 -3.38,0.63 -0.49,0.42 -0.74,1.32 -0.74,2.69 V 95 a 3.11,3.11 0 0 0 0.83,2.5 5.63,5.63 0 0 0 3.31,0.68 h 3 a 8.11,8.11 0 0 0 3.06,-0.4 1.42,1.42 0 0 0 0.84,-1.39 4,4 0 0 0 -0.05,-0.45 v -0.06 h -6.07 v -3.41 h 11.4 V 98 a 3.57,3.57 0 0 1 -1.76,3.38 c -1.17,0.66 -3.21,1 -6.12,1 h -5.73 a 19.13,19.13 0 0 1 -3.89,-0.29 5.21,5.21 0 0 1 -2.13,-1 4.62,4.62 0 0 1 -1.48,-2 8.11,8.11 0 0 1 -0.46,-3 v -4.6 q 0,-3.61 1.71,-5 1.71,-1.39 6.23,-1.43 H 365 a 25,25 0 0 1 4.1,0.25 4.92,4.92 0 0 1 2.09,0.84 3.63,3.63 0 0 1 1.17,1.64 7.72,7.72 0 0 1 0.38,2.6 c 0,0.25 0,0.44 0,0.58 0,0.14 0,0.26 0,0.37 z"
       fill="#ffffff"
       id="path43" />
    <path
       d="m 396.41,86.69 c -1.16,-0.9 -3,-1.35 -5.61,-1.35 H 376 v 16.84 h 16.28 a 6.47,6.47 0 0 0 4.46,-1.29 5.37,5.37 0 0 0 1.4,-4.1 V 91 a 5.08,5.08 0 0 0 -1.73,-4.31 z M 393,95.33 a 2.63,2.63 0 0 1 -0.76,2.09 3.58,3.58 0 0 1 -2.4,0.67 h -8.71 v -8.6 h 8.07 a 4.85,4.85 0 0 1 2.88,0.69 2.57,2.57 0 0 1 0.92,2.18 z"
       fill="#ffffff"
       id="path45" />
    <rect
       x="401.28"
       y="93.980003"
       width="7.6300001"
       height="4.3099999"
       fill="#ffffff"
       id="rect47" />
    <path
       d="m 429.23,95.53 a 3.26,3.26 0 0 0 2.16,-1.43 6.37,6.37 0 0 0 0.65,-3.24 c 0,-2.1 -0.48,-3.54 -1.45,-4.34 -0.97,-0.8 -2.78,-1.18 -5.45,-1.18 H 411.6 v 16.84 h 5.16 v -4.31 h 7.67 a 3.16,3.16 0 0 1 1.85,0.38 1.62,1.62 0 0 1 0.47,1.36 v 2.57 h 5.15 v -3.45 a 3.13,3.13 0 0 0 -0.67,-2.08 3.53,3.53 0 0 0 -2,-1.12 z m -2.84,-2.36 a 1.85,1.85 0 0 1 -1.45,0.48 h -8.18 v -4.12 h 8.18 a 1.9,1.9 0 0 1 1.42,0.46 2,2 0 0 1 0.44,1.44 2.77,2.77 0 0 1 -0.41,1.74 z"
       fill="#ffffff"
       id="path49" />
    <path
       d="m 457.28,88.25 a 4.09,4.09 0 0 0 -1.38,-1.94 5.4,5.4 0 0 0 -2.26,-0.91 24.86,24.86 0 0 0 -4.29,-0.27 h -6.05 a 24.8,24.8 0 0 0 -4.28,0.27 5.47,5.47 0 0 0 -2.25,0.91 4,4 0 0 0 -1.41,2 10.62,10.62 0 0 0 -0.43,3.34 v 4.6 a 9.35,9.35 0 0 0 0.43,3.1 4,4 0 0 0 1.41,1.9 5.36,5.36 0 0 0 2.23,0.91 24.62,24.62 0 0 0 4.32,0.27 h 6 a 24.81,24.81 0 0 0 4.31,-0.27 5.35,5.35 0 0 0 2.24,-0.91 4.19,4.19 0 0 0 1.38,-1.94 9.6,9.6 0 0 0 0.43,-3.16 v -4.7 a 9.72,9.72 0 0 0 -0.4,-3.2 z M 452.49,95 a 3,3 0 0 1 -0.89,2.54 c -0.59,0.46 -1.8,0.69 -3.62,0.69 h -3.27 a 6.65,6.65 0 0 1 -3.63,-0.68 3,3 0 0 1 -0.91,-2.5 V 92.66 A 3.23,3.23 0 0 1 441,90 c 0.58,-0.46 1.79,-0.69 3.65,-0.69 H 448 c 1.82,0 3,0.23 3.62,0.69 a 3,3 0 0 1 0.89,2.54 z"
       fill="#ffffff"
       id="path51" />
    <polygon
       points="460.82,85.34 468.41,85.34 474.42,95.86 480.53,85.34 488.02,85.34 488.02,102.18 483.04,102.18 483.04,90.18 476.09,102.18 472.73,102.18 465.82,90.18 465.82,102.18 460.82,102.18 "
       fill="#ffffff"
       id="polygon53" />
    <path
       d="M 505.88,96.58 H 511 v 0.31 a 1.48,1.48 0 0 0 0.47,1.28 3.77,3.77 0 0 0 1.94,0.33 h 6.46 a 2.18,2.18 0 0 0 1.36,-0.32 1.28,1.28 0 0 0 0.41,-1.07 1.23,1.23 0 0 0 -0.47,-1.08 4.53,4.53 0 0 0 -2,-0.44 L 511,95.39 c -2,-0.06 -3.39,-0.44 -4.1,-1.15 -0.71,-0.71 -1.07,-2 -1.07,-3.87 a 8.42,8.42 0 0 1 0.28,-2.39 3.69,3.69 0 0 1 0.91,-1.56 4.09,4.09 0 0 1 1.92,-1 17.55,17.55 0 0 1 3.87,-0.3 h 7.85 a 6.61,6.61 0 0 1 4.21,1.07 4.23,4.23 0 0 1 1.28,3.45 V 90 c 0,0.12 0,0.31 0,0.58 h -5 v -0.06 a 1.71,1.71 0 0 0 -0.42,-1.26 1.76,1.76 0 0 0 -1.28,-0.42 h -5.93 a 4.14,4.14 0 0 0 -1.95,0.3 1.1,1.1 0 0 0 -0.48,1 1.23,1.23 0 0 0 0.43,1 3.2,3.2 0 0 0 1.59,0.41 l 8.46,0.14 c 1.93,0 3.29,0.49 4.08,1.3 0.79,0.81 1.18,2.21 1.18,4.18 a 6.93,6.93 0 0 1 -0.43,2.71 4,4 0 0 1 -1.47,1.64 4.94,4.94 0 0 1 -1.85,0.62 23.32,23.32 0 0 1 -3.37,0.19 h -6.85 q -4.23,0 -5.65,-1 c -0.95,-0.63 -1.42,-1.8 -1.42,-3.52 0,-0.1 0,-0.27 0,-0.49 0,-0.22 0.07,-0.41 0.09,-0.74 z"
       fill="#ffffff"
       id="path55" />
    <polygon
       points="537.33,96.13 528.04,85.34 534.36,85.34 539.89,92.03 545.69,85.34 551.79,85.34 542.48,96.13 542.48,102.18 537.33,102.18 "
       fill="#ffffff"
       id="polygon57" />
    <path
       d="m 553.4,96.58 h 5.09 v 0.31 a 1.48,1.48 0 0 0 0.46,1.28 3.77,3.77 0 0 0 1.94,0.33 h 6.47 a 2.16,2.16 0 0 0 1.35,-0.32 1.25,1.25 0 0 0 0.41,-1.07 1.23,1.23 0 0 0 -0.47,-1.08 4.53,4.53 0 0 0 -2,-0.44 l -8.08,-0.19 c -2,-0.06 -3.39,-0.44 -4.1,-1.15 -0.71,-0.71 -1.07,-2 -1.07,-3.87 a 8.8,8.8 0 0 1 0.28,-2.39 3.79,3.79 0 0 1 0.91,-1.56 4.09,4.09 0 0 1 1.92,-1 17.62,17.62 0 0 1 3.87,-0.3 h 7.86 a 6.6,6.6 0 0 1 4.2,1.07 4.23,4.23 0 0 1 1.28,3.45 V 90 c 0,0.12 0,0.31 0,0.58 h -5 v -0.06 a 1.71,1.71 0 0 0 -0.42,-1.26 1.76,1.76 0 0 0 -1.28,-0.42 h -5.92 a 4.19,4.19 0 0 0 -2,0.3 1.1,1.1 0 0 0 -0.48,1 1.23,1.23 0 0 0 0.43,1 3.2,3.2 0 0 0 1.59,0.41 l 8.46,0.14 c 1.93,0 3.29,0.49 4.08,1.3 0.79,0.81 1.18,2.21 1.18,4.18 a 6.75,6.75 0 0 1 -0.43,2.71 3.88,3.88 0 0 1 -1.47,1.64 5,5 0 0 1 -1.84,0.62 23.42,23.42 0 0 1 -3.37,0.19 h -6.86 c -2.81,0 -4.7,-0.32 -5.65,-1 -0.95,-0.68 -1.42,-1.8 -1.42,-3.52 0,-0.1 0,-0.27 0,-0.49 0,-0.22 0.06,-0.41 0.08,-0.74 z"
       fill="#ffffff"
       id="path59" />
    <polygon
       points="583.78,89.47 576.73,89.47 576.73,85.34 595.97,85.34 595.97,89.47 588.92,89.47 588.92,102.18 583.78,102.18 "
       fill="#ffffff"
       id="polygon61" />
    <polygon
       points="604.57,91.99 617.07,91.99 617.07,95.53 604.57,95.53 604.57,98.11 618.04,98.11 618.04,102.18 599.43,102.18 599.43,85.34 617.84,85.34 617.84,89.44 604.57,89.44 "
       fill="#ffffff"
       id="polygon63" />
    <polygon
       points="621.47,85.34 629.06,85.34 635.07,95.86 641.18,85.34 648.67,85.34 648.67,102.18 643.7,102.18 643.7,90.18 636.74,102.18 633.38,102.18 626.47,90.18 626.47,102.18 621.47,102.18 "
       fill="#ffffff"
       id="polygon65" />
  </g>
</svg>
