<?xml version="1.0" encoding="UTF-8" standalone="no"?>
<svg
   viewBox="0 0 514 85.739998"
   version="1.1"
   id="svg52"
   sodipodi:docname="nds.svg"
   width="514"
   height="85.739998"
   inkscape:version="1.1 (c68e22c387, 2021-05-23)"
   xmlns:inkscape="http://www.inkscape.org/namespaces/inkscape"
   xmlns:sodipodi="http://sodipodi.sourceforge.net/DTD/sodipodi-0.dtd"
   xmlns="http://www.w3.org/2000/svg"
   xmlns:svg="http://www.w3.org/2000/svg"
   xmlns:rdf="http://www.w3.org/1999/02/22-rdf-syntax-ns#"
   xmlns:cc="http://creativecommons.org/ns#"
   xmlns:dc="http://purl.org/dc/elements/1.1/">
  <defs
     id="defs56" />
  <sodipodi:namedview
     id="namedview54"
     pagecolor="#ffffff"
     bordercolor="#666666"
     borderopacity="1.0"
     inkscape:pageshadow="2"
     inkscape:pageopacity="0.0"
     inkscape:pagecheckerboard="0"
     showgrid="false"
     fit-margin-top="0"
     fit-margin-left="0"
     fit-margin-right="0"
     fit-margin-bottom="0"
     inkscape:zoom="0.78700985"
     inkscape:cx="257.30301"
     inkscape:cy="43.201492"
     inkscape:window-width="1920"
     inkscape:window-height="1138"
     inkscape:window-x="-8"
     inkscape:window-y="-8"
     inkscape:window-maximized="1"
     inkscape:current-layer="svg52" />
  <title
     id="title2">logo</title>
  <g
     id="Layer_2"
     data-name="Layer 2"
     transform="translate(-243,-14.13)">
    <polygon
       points="572.81,26.9 495.7,26.9 495.7,29.57 424.37,29.57 424.37,47.79 495.7,47.79 495.7,50.45 539.39,50.45 539.39,87.02 571.48,87.02 571.48,82.83 656.59,82.83 656.59,80.01 726.59,80.01 726.59,50.45 656.59,50.45 656.59,32.45 572.81,32.45 "
       fill="#ffffff"
       id="polygon4" />
  </g>
  <g
     id="Capa_1"
     data-name="Capa 1"
     transform="translate(-243,-14.13)">
    <path
       d="m 567.74,59.16 a 7.17,7.17 0 0 1 7.14,7.17 v 19.36 a 7.17,7.17 0 0 1 -7.13,7.13 h -27.17 a 7.17,7.17 0 0 1 -7.12,-7.13 V 66.33 a 7.17,7.17 0 0 1 7.12,-7.17 h 27.16 M 540.78,87 h 26.69 a 1.43,1.43 0 0 0 1.43,-1.39 v -19.3 a 1.43,1.43 0 0 0 -1.43,-1.39 h -26.68 a 1.4,1.4 0 0 0 -1.4,1.39 v 19.36 a 1.38,1.38 0 0 0 1.39,1.33 m 27,-34.86 h -27.2 a 14.22,14.22 0 0 0 -14.12,14.17 v 19.38 a 14.24,14.24 0 0 0 14.08,14.13 h 27.21 A 14.23,14.23 0 0 0 581.88,85.74 V 66.33 a 14.21,14.21 0 0 0 -14.1,-14.17 z m -21.39,19.8 h 15.53 V 80 h -15.53 z"
       fill="#ffffff"
       id="path7" />
    <path
       d="m 286.7,21.43 v 33.65 h -4.86 L 256.23,30.15 V 55.08 H 250 V 21.43 h 5.32 l 25.23,24.51 V 21.43 h 6.15 m 0,-7 h -6.15 a 7,7 0 0 0 -7,7 v 8 l -13.35,-13 a 7,7 0 0 0 -4.88,-2 H 250 a 7,7 0 0 0 -7,7 v 33.65 a 7,7 0 0 0 7,7 h 6.23 a 7,7 0 0 0 7,-7 V 46.74 L 277,60.09 a 7,7 0 0 0 4.89,2 h 4.86 a 7,7 0 0 0 7,-7 V 21.43 a 7,7 0 0 0 -7,-7 z"
       fill="#ffffff"
       id="path9" />
    <path
       d="m 349.18,21.43 v 33.65 h -4.87 L 318.7,30.15 v 24.93 h -6.23 V 21.43 h 5.31 L 343,45.94 V 21.43 h 6.16 m 0,-7 H 343 a 7,7 0 0 0 -7,7 v 8 l -13.36,-13 a 7,7 0 0 0 -4.88,-2 h -5.31 a 7,7 0 0 0 -7,7 v 33.65 a 7,7 0 0 0 7,7 h 6.23 a 7,7 0 0 0 7,-7 v -8.35 l 13.73,13.36 a 6.94,6.94 0 0 0 4.88,2 h 4.87 a 7,7 0 0 0 7,-7 V 21.43 a 7,7 0 0 0 -7,-7 z"
       fill="#ffffff"
       id="path11" />
    <path
       d="m 478.64,21.43 v 33.65 h -4.86 L 448.16,30.15 v 24.93 h -6.22 V 21.43 h 5.31 l 25.23,24.51 V 21.43 h 6.16 m 0,-7 h -6.16 a 7,7 0 0 0 -7,7 v 8 l -13.35,-13 a 7,7 0 0 0 -4.88,-2 h -5.31 a 7,7 0 0 0 -7,7 v 33.65 a 7,7 0 0 0 7,7 h 6.22 a 7,7 0 0 0 7,-7 V 46.73 L 468.9,60.1 a 7,7 0 0 0 4.88,2 h 4.86 a 7,7 0 0 0 7,-7 V 21.43 a 7,7 0 0 0 -7,-7 z"
       fill="#ffffff"
       id="path13" />
    <path
       d="m 302.69,21.43 v 33.65 h -6.22 V 21.43 h 6.22 m 0,-7 h -6.22 a 7,7 0 0 0 -7,7 v 33.65 a 7,7 0 0 0 7,7 h 6.22 a 7,7 0 0 0 7,-7 V 21.43 a 7,7 0 0 0 -7,-7 z"
       fill="#ffffff"
       id="path15" />
    <path
       d="m 392.75,21.43 v 5.79 h -15 v 27.86 h -6.47 V 27.22 h -15 v -5.79 h 36.51 m 0,-7 h -36.55 a 7,7 0 0 0 -7,7 v 5.79 a 7,7 0 0 0 7,7 h 8 v 20.86 a 7,7 0 0 0 7,7 h 6.47 a 7,7 0 0 0 7,-7 V 34.22 h 8 a 7,7 0 0 0 7,-7 v -5.79 a 7,7 0 0 0 -7,-7 z"
       fill="#ffffff"
       id="path17" />
    <path
       d="m 432.69,21.43 v 5.79 H 406 v 7.55 h 20.65 v 5.79 H 406 v 8.72 h 26.7 v 5.8 H 399.82 V 21.43 h 32.87 m 0,-7 h -32.87 a 7,7 0 0 0 -7,7 v 33.65 a 7,7 0 0 0 7,7 h 32.87 a 7,7 0 0 0 7,-7 v -5.8 a 7,7 0 0 0 -6.27,-7 7.25,7.25 0 0 0 0.22,-1.76 v -5.75 a 6.08,6.08 0 0 0 0,-0.61 7,7 0 0 0 6.08,-6.94 v -5.79 a 7,7 0 0 0 -7,-7 z"
       fill="#ffffff"
       id="path19" />
    <path
       d="m 513.1,21.43 a 12.56,12.56 0 0 1 10.41,4.91 c 2.28,3 3.49,7.07 3.49,11.9 0,4.83 -1.21,8.94 -3.49,11.93 a 12.53,12.53 0 0 1 -10.41,4.91 h -25 V 21.43 h 25 m -19,27.85 h 19.13 c 6,0 8.12,-6 8.12,-11 0,-5 -2.13,-11 -8.12,-11 h -19.08 v 22 m 19,-34.85 h -25 a 7,7 0 0 0 -7,7 v 33.65 a 7,7 0 0 0 7,7 h 25 a 19.51,19.51 0 0 0 16,-7.69 c 3.21,-4.21 4.91,-9.8 4.91,-16.15 0,-6.35 -1.71,-11.94 -4.93,-16.16 a 19.55,19.55 0 0 0 -16,-7.65 z m -12,19.79 h 12.29 a 7.13,7.13 0 0 1 1,4 7.19,7.19 0 0 1 -1,4 h -12.29 z"
       fill="#ffffff"
       id="path21" />
    <path
       d="m 567.74,21.43 a 7.17,7.17 0 0 1 7.14,7.17 V 48 a 7.18,7.18 0 0 1 -7.13,7.18 H 540.58 A 7.17,7.17 0 0 1 533.46,48 V 28.6 a 7.17,7.17 0 0 1 7.12,-7.17 h 27.16 m -27,27.85 h 26.69 a 1.43,1.43 0 0 0 1.43,-1.38 V 28.61 a 1.43,1.43 0 0 0 -1.43,-1.39 h -26.64 a 1.4,1.4 0 0 0 -1.4,1.39 v 19.33 a 1.38,1.38 0 0 0 1.38,1.34 m 27,-34.85 H 540.58 A 14.22,14.22 0 0 0 526.46,28.6 V 48 a 14.23,14.23 0 0 0 14.08,14.18 h 27.21 A 14.22,14.22 0 0 0 581.88,48 V 28.6 a 14.21,14.21 0 0 0 -14.1,-14.17 z m -21.38,19.79 h 15.53 v 8.06 h -15.53 z"
       fill="#ffffff"
       id="path23" />
    <path
       d="m 717.75,21.13 a 108.81,108.81 0 0 1 24.6,2.23 l 0.06,11.11 c -7.76,-1.48 -14.63,-4 -25.31,-4 -11.44,0 -16.31,3.63 -16.31,7.37 0,5.43 7.51,8 20.68,12.72 18.33,6.58 28.53,11.64 28.53,22.71 0,11.38 -12.79,19.6 -41.6,19.6 H 707 a 169.4,169.4 0 0 1 -27.63,-2.26 v -12 c 6.47,2.54 20.11,4.61 30.74,4.61 11.66,0 16.5,-4 16.5,-9 0,-4.5 -4.46,-7.15 -17.36,-11.87 C 692,56 679.42,51 679.42,39.71 c 0,-11.7 15.18,-18.58 38.33,-18.58 m 0,-7 c -12.51,0 -23.18,1.93 -30.86,5.58 -12.59,6 -14.47,15.1 -14.47,20 0,7.61 3.91,14 11.63,19 5.81,3.79 13.42,6.73 22.76,10.18 8,2.93 11.28,4.61 12.52,5.56 -0.86,0.62 -3.49,1.76 -9.23,1.76 -10.57,0 -23.11,-2.13 -28.18,-4.13 a 7.13,7.13 0 0 0 -2.56,-0.48 7,7 0 0 0 -7,7 v 12 a 7,7 0 0 0 5.86,6.9 176.61,176.61 0 0 0 28.78,2.37 h 1.44 c 14.9,0 26.6,-2.13 34.76,-6.3 C 752.1,89 757,81.8 757,73.27 757,65.64 753.63,59.52 746.69,54.54 741.2,50.6 733.58,47.47 723.84,44 l -0.5,-0.18 c -5.15,-1.83 -10.82,-3.85 -13.84,-5.46 a 26.89,26.89 0 0 1 7.6,-0.87 c 7,0 12.12,1.2 17.55,2.47 2.07,0.49 4.21,1 6.44,1.41 a 6.56,6.56 0 0 0 1.32,0.13 7,7 0 0 0 7,-7 V 23.39 a 7,7 0 0 0 -5.75,-6.85 h -0.14 a 115.29,115.29 0 0 0 -25.71,-2.32 z"
       fill="#ffffff"
       id="path25" />
    <path
       d="m 624,21.32 c 11.23,0 24,2 30.84,5 16.5,7.45 21.9,19.37 21.9,30.69 0,11.32 -5.34,23.21 -21.9,30.68 -6.79,3.08 -19.61,5 -30.84,5 H 581.16 V 21.32 H 624 M 604.33,82.83 H 618 c 21,0 34.32,-9 34.32,-25.81 C 652.32,40.21 639.08,31 618,31 H 604.33 V 82.83 M 624,14.32 h -42.84 a 7,7 0 0 0 -7,7 v 71.41 a 7,7 0 0 0 7,7 H 624 c 10.59,0 25.12,-1.74 33.73,-5.64 16.77,-7.56 26,-20.73 26,-37.06 0,-16.33 -9.24,-29.49 -26,-37.07 -8.64,-3.9 -23.16,-5.64 -33.72,-5.64 z M 611.33,38 H 618 c 10.2,0 27.32,2.48 27.32,19.06 0,15.54 -14.86,18.81 -27.32,18.81 h -6.71 V 38 Z"
       fill="#ffffff"
       id="path27" />
    <path
       d="m 567.74,59.16 h -27.16 a 7.17,7.17 0 0 0 -7.12,7.17 v 19.36 a 7.17,7.17 0 0 0 7.12,7.13 h 27.17 a 7.17,7.17 0 0 0 7.13,-7.13 V 66.33 a 7.17,7.17 0 0 0 -7.14,-7.17 z m 1.16,26.47 A 1.43,1.43 0 0 1 567.46,87 H 540.83 A 1.38,1.38 0 0 1 539.4,85.65 V 66.33 a 1.4,1.4 0 0 1 1.4,-1.39 h 26.7 a 1.43,1.43 0 0 1 1.43,1.39 z"
       fill="#939699"
       id="path29" />
    <polygon
       points="250,55.08 256.23,55.08 256.23,30.15 281.83,55.08 286.7,55.08 286.7,21.43 285.54,21.43 280.55,21.43 280.55,45.94 255.32,21.43 250,21.43 "
       fill="#20191a"
       id="polygon31" />
    <polygon
       points="312.47,55.08 318.7,55.08 318.7,30.15 344.31,55.08 349.18,55.08 349.18,21.43 348.02,21.43 343.02,21.43 343.02,45.94 317.78,21.43 312.47,21.43 "
       fill="#20191a"
       id="polygon33" />
    <polygon
       points="441.94,55.08 448.16,55.08 448.16,30.15 473.78,55.08 478.64,55.08 478.64,21.43 477.47,21.43 472.48,21.43 472.48,45.94 447.25,21.43 441.94,21.43 "
       fill="#20191a"
       id="polygon35" />
    <polygon
       points="301.54,21.43 296.47,21.43 296.47,55.08 302.69,55.08 302.69,21.43 "
       fill="#20191a"
       id="polygon37" />
    <polygon
       points="377.72,55.08 377.72,27.22 392.75,27.22 392.75,21.43 391.61,21.43 356.24,21.43 356.24,27.22 371.25,27.22 371.25,55.08 "
       fill="#20191a"
       id="polygon39" />
    <polygon
       points="405.99,49.28 405.99,40.56 426.64,40.56 426.64,34.77 405.99,34.77 405.99,27.22 432.69,27.22 432.69,21.43 431.52,21.43 399.82,21.43 399.82,55.08 432.69,55.08 432.69,49.28 "
       fill="#20191a"
       id="polygon41" />
    <path
       d="m 513.1,21.43 h -25 v 33.65 h 25 a 12.53,12.53 0 0 0 10.41,-4.91 c 2.28,-3 3.49,-7.1 3.49,-11.93 0,-4.83 -1.21,-8.92 -3.49,-11.9 A 12.56,12.56 0 0 0 513.1,21.43 Z m 0.18,27.85 H 494.15 V 27.22 h 19.13 c 6,0 8.12,6 8.12,11 0,5 -2.13,11.06 -8.12,11.06 z"
       fill="#20191a"
       id="path43" />
    <path
       d="m 567.74,21.43 h -27.16 a 7.17,7.17 0 0 0 -7.12,7.17 V 48 a 7.17,7.17 0 0 0 7.12,7.18 h 27.17 A 7.18,7.18 0 0 0 574.88,48 V 28.6 a 7.17,7.17 0 0 0 -7.14,-7.17 z m 1.16,26.47 a 1.44,1.44 0 0 1 -1.44,1.38 H 540.83 A 1.38,1.38 0 0 1 539.4,47.94 V 28.61 a 1.4,1.4 0 0 1 1.4,-1.39 h 26.7 a 1.43,1.43 0 0 1 1.43,1.39 z"
       fill="#20191a"
       id="path45" />
    <path
       d="m 721.47,50.55 c -13.17,-4.69 -20.68,-7.29 -20.68,-12.72 0,-3.74 4.87,-7.37 16.31,-7.37 10.68,0 17.55,2.53 25.31,4 l -0.06,-11.11 a 108.81,108.81 0 0 0 -24.6,-2.23 c -23.15,0 -38.33,6.88 -38.33,18.58 0,11.3 12.58,16.3 29.82,22.67 12.9,4.72 17.36,7.37 17.36,11.87 0,5 -4.84,9 -16.5,9 -10.63,0 -24.27,-2.07 -30.74,-4.61 v 12 a 170.24,170.24 0 0 0 29,2.26 c 28.81,0 41.6,-8.22 41.6,-19.6 C 750,62.2 739.8,57.14 721.47,50.55 Z"
       fill="#20191a"
       id="path47" />
    <path
       d="m 654.85,26.34 c -6.79,-3.06 -19.61,-5 -30.84,-5 H 581.16 V 92.73 H 624 c 11.23,0 24,-1.94 30.84,-5 16.56,-7.47 21.9,-19.36 21.9,-30.68 0,-11.32 -5.39,-23.26 -21.89,-30.71 z M 618,82.83 H 604.33 V 31 H 618 c 21,0 34.32,9.22 34.32,26.06 0,16.84 -13.24,25.77 -34.32,25.77 z"
       fill="#20191a"
       id="path49" />
  </g>
  <metadata
     id="metadata873">
    <rdf:RDF>
      <cc:Work
         rdf:about="">
        <dc:title>logo</dc:title>
      </cc:Work>
    </rdf:RDF>
  </metadata>
</svg>
