<?xml version="1.0" encoding="UTF-8" standalone="no"?>
<svg
   viewBox="0 0 363.32516 114"
   version="1.1"
   id="svg169"
   sodipodi:docname="neogeo.svg"
   width="363.32516"
   height="114"
   inkscape:version="1.1 (c68e22c387, 2021-05-23)"
   xmlns:inkscape="http://www.inkscape.org/namespaces/inkscape"
   xmlns:sodipodi="http://sodipodi.sourceforge.net/DTD/sodipodi-0.dtd"
   xmlns="http://www.w3.org/2000/svg"
   xmlns:svg="http://www.w3.org/2000/svg"
   xmlns:rdf="http://www.w3.org/1999/02/22-rdf-syntax-ns#"
   xmlns:cc="http://creativecommons.org/ns#"
   xmlns:dc="http://purl.org/dc/elements/1.1/">
  <defs
     id="defs173" />
  <sodipodi:namedview
     id="namedview171"
     pagecolor="#ffffff"
     bordercolor="#666666"
     borderopacity="1.0"
     inkscape:pageshadow="2"
     inkscape:pageopacity="0.0"
     inkscape:pagecheckerboard="0"
     showgrid="false"
     fit-margin-top="0"
     fit-margin-left="0"
     fit-margin-right="0"
     fit-margin-bottom="0"
     inkscape:zoom="1.113"
     inkscape:cx="181.9407"
     inkscape:cy="56.603774"
     inkscape:window-width="1920"
     inkscape:window-height="1138"
     inkscape:window-x="-8"
     inkscape:window-y="-8"
     inkscape:window-maximized="1"
     inkscape:current-layer="svg169" />
  <title
     id="title2">logo</title>
  <g
     id="Layer_2"
     data-name="Layer 2"
     transform="translate(-318.33969)">
    <rect
       x="517.56384"
       y="36.169571"
       width="22.994619"
       height="20.83042"
       stroke-width="7"
       stroke="#ffffff"
       stroke-linecap="round"
       stroke-linejoin="round"
       fill="#ffffff"
       id="rect4" />
    <rect
       x="573.44678"
       y="34.001541"
       width="20.33927"
       height="22.998461"
       stroke-width="7"
       stroke="#ffffff"
       stroke-linecap="round"
       stroke-linejoin="round"
       fill="#ffffff"
       id="rect6" />
    <rect
       x="647.78607"
       y="35.069801"
       width="15.33333"
       height="22.888889"
       stroke-width="7"
       stroke="#ffffff"
       stroke-linecap="round"
       stroke-linejoin="round"
       fill="#ffffff"
       id="rect8" />
    <rect
       x="539.78607"
       y="49.069801"
       width="34.444439"
       height="24.431419"
       stroke-width="7"
       stroke="#ffffff"
       stroke-linecap="round"
       stroke-linejoin="round"
       fill="#ffffff"
       id="rect10" />
    <rect
       x="443.56384"
       y="49.069801"
       width="95.111107"
       height="28.217051"
       stroke-width="7"
       stroke="#ffffff"
       stroke-linecap="round"
       stroke-linejoin="round"
       fill="#ffffff"
       id="rect12" />
    <rect
       x="613.87366"
       y="50.10957"
       width="65.023468"
       height="31.510759"
       fill="#ffffff"
       id="rect14" />
    <rect
       x="409.48395"
       y="20.84757"
       width="25.12602"
       height="73.222221"
       fill="#ffffff"
       id="rect16" />
  </g>
  <g
     id="Layer_1"
     data-name="Layer 1"
     transform="translate(-318.33969)">
    <path
       d="m 530.36081,29.30159 a 8.98054,8.98054 0 0 1 4.98968,1.42091 10.30483,10.30483 0 0 1 3.53284,4.91633 c 0.9469,2.29451 1.42041,5.75451 1.42041,10.41639 a 26.46207,26.46207 0 0 1 -1.52966,9.39662 c -0.91059,2.44019 -1.96674,4.22532 -3.60571,5.318 a 8.57925,8.57925 0 0 1 -4.88038,1.38347 8.16389,8.16389 0 0 1 -6.73791,-2.95007 c -2.25812,-2.84084 -3.31427,-7.35705 -3.31427,-13.36651 0,-5.02609 0.72839,-8.92263 2.22168,-11.58135 1.78461,-3.2779 4.37048,-4.91734 7.8305,-4.95375 h 0.0728 m 0,-7 h -0.0728 l -0.0737,3.8e-4 a 15.559,15.559 0 0 0 -13.8833,8.567 c -2.08264,3.73089 -3.09521,8.62781 -3.09521,14.96772 0,7.8326 1.58136,13.62959 4.83453,17.72222 a 14.97661,14.97661 0 0 0 12.21765,5.59432 15.53773,15.53773 0 0 0 8.80079,-2.58421 c 3.597,-2.41579 5.2857,-6.103 6.24359,-8.67 a 33.4695,33.4695 0 0 0 1.97137,-11.84388 c 0,-5.58906 -0.62921,-9.84988 -1.9234,-13.02241 a 17.13557,17.13557 0 0 0 -6.04675,-8.06659 q -0.0832,-0.05763 -0.16822,-0.11283 a 15.87727,15.87727 0 0 0 -8.80456,-2.5518 z"
       fill="#ffffff"
       id="path19" />
    <path
       d="m 654.15591,29.30159 a 8.98153,8.98153 0 0 1 4.98963,1.42091 10.30755,10.30755 0 0 1 3.53235,4.91633 c 0.947,2.29451 1.421,5.75451 1.421,10.41639 a 26.46061,26.46061 0 0 1 -1.53022,9.39662 c -0.91,2.44019 -1.96618,4.22532 -3.60565,5.318 a 8.57772,8.57772 0 0 1 -4.87988,1.38347 8.16413,8.16413 0 0 1 -6.7384,-2.95007 c -2.25763,-2.84084 -3.31385,-7.35705 -3.31385,-13.36651 0,-5.02609 0.72791,-8.92263 2.22168,-11.58135 1.78467,-3.2779 4.37,-4.91734 7.83057,-4.95375 h 0.0728 m 0,-7 h -0.0728 l -0.0737,3.8e-4 a 15.55974,15.55974 0 0 0 -13.883,8.56632 c -2.08294,3.73027 -3.09558,8.62729 -3.09558,14.9684 0,7.83206 1.58112,13.62886 4.83362,17.72164 a 14.97713,14.97713 0 0 0 12.21863,5.59494 15.535,15.535 0 0 0 8.80005,-2.584 c 3.59894,-2.41635 5.28674,-6.104 6.24426,-8.67143 a 33.46729,33.46729 0 0 0 1.97144,-11.84259 c 0,-5.58838 -0.6294,-9.8493 -1.924,-13.02261 a 17.13966,17.13966 0 0 0 -6.04523,-8.06575 q -0.0838,-0.05793 -0.16907,-0.11341 a 15.87714,15.87714 0 0 0 -8.80463,-2.55186 z"
       fill="#ffffff"
       id="path21" />
    <path
       d="m 394.9614,45.2019 a 4.81762,4.81762 0 0 1 -1.0459,-0.11767 7.35759,7.35759 0 0 1 -3.40918,-1.96192 3.50019,3.50019 0 0 1 -0.82325,-3.56347 l 0.334,-0.999 a 3.50058,3.50058 0 0 1 1.38672,-1.80859 l 1.00586,-0.666 a 3.50248,3.50248 0 0 1 1.93261,-0.58155 q 0.145,0 0.29,0.01221 a 6.01781,6.01781 0 0 1 3.14356,1.022 5.51548,5.51548 0 0 1 1.90918,3.10149 3.49965,3.49965 0 0 1 -1.02051,3.64649 l -0.4375,0.38867 a 4.13506,4.13506 0 0 1 -3.26562,1.52734 z"
       id="path23" />
    <path
       d="m 394.342,39.0039 a 3.74558,3.74558 0 0 1 1.33191,0.333 3.8667,3.8667 0 0 1 0.66608,1.332 l -0.74921,0.666 a 0.6219,0.6219 0 0 1 -0.62933,0.3669 1.32436,1.32436 0 0 1 -0.2865,-0.03392 4.02178,4.02178 0 0 1 -1.67206,-0.999 l 0.33313,-0.999 1.006,-0.66595 m -1.2e-4,-7 a 6.99979,6.99979 0 0 0 -3.86389,1.16312 l -1.006,0.666 a 6.9996,6.9996 0 0 0 -2.77648,3.62254 l -0.33313,0.999 a 6.99994,6.99994 0 0 0 1.64886,7.12186 10.82707,10.82707 0 0 0 5.15485,2.927 8.3194,8.3194 0 0 0 1.79535,0.19847 7.70526,7.70526 0 0 0 5.8092,-2.60562 l 0.22015,-0.19567 a 7,7 0 0 0 2.03974,-7.28988 9.17836,9.17836 0 0 0 -3.15821,-4.87495 9.40719,9.40719 0 0 0 -4.95111,-1.70777 q -0.29,-0.02408 -0.57934,-0.024 z"
       fill="#ffffff"
       id="path25" />
    <path
       d="m 405.07468,58.55493 a 10.1629,10.1629 0 0 1 -4.16895,-0.77734 8.24592,8.24592 0 0 1 -3.667,-3.48487 3.49987,3.49987 0 0 1 4.97949,-4.57959 2.37291,2.37291 0 0 0 1.12988,0.14844 l 0.44141,-0.0034 a 3.22374,3.22374 0 0 0 2.44043,-0.84472 5.97928,5.97928 0 0 0 0.71973,-1.7793 c 0.1416,-0.481 0.29589,-1.00049 0.50976,-1.6001 a 9.90016,9.90016 0 0 1 1.35357,-2.60103 3.49985,3.49985 0 0 1 6.16015,1.2373 15.779,15.779 0 0 1 0.44825,4.06739 10.0836,10.0836 0 0 1 -1.43262,5.16015 c -1.70117,2.773 -3.67285,4.38233 -5.85742,4.78076 a 17.89545,17.89545 0 0 1 -3.05668,0.27633 z"
       id="path27" />
    <path
       d="m 411.589,45.16446 a 12.28686,12.28686 0 0 1 0.33319,3.08709 6.65265,6.65265 0 0 1 -0.91583,3.41364 c -1.3321,2.17138 -2.58771,3.00372 -3.50336,3.1704 a 14.31788,14.31788 0 0 1 -2.42889,0.21911 6.88785,6.88785 0 0 1 -2.73316,-0.4688 4.79208,4.79208 0 0 1 -2.0047,-1.92178 5.303,5.303 0 0 0 3.014,0.6976 c 0.16126,0 0.32239,-0.0019 0.48261,-0.0038 a 6.66333,6.66333 0 0 0 5.16821,-2.19242 c 1.08941,-1.58158 1.11743,-2.567 1.75537,-4.35666 a 6.54128,6.54128 0 0 1 0.83252,-1.64435 m -5.5e-4,-7.00023 a 7.00054,7.00054 0 0 0 -5.55261,2.73847 13.35382,13.35382 0 0 0 -1.87061,3.54908 c -0.257,0.72092 -0.43225,1.31562 -0.57306,1.79347 l -0.0339,0.11472 -0.17566,0.0015 a 7.0002,7.0002 0 0 0 -9.2417,9.56119 11.74355,11.74355 0 0 0 5.3158,5.04144 13.62057,13.62057 0 0 0 5.61737,1.09062 21.28013,21.28013 0 0 0 3.6792,-0.33168 c 2.20751,-0.40184 5.42224,-1.83733 8.21972,-6.39741 a 13.455,13.455 0 0 0 1.947,-6.89967 19.28218,19.28218 0 0 0 -0.56408,-5.05291 7.0016,7.0016 0 0 0 -6.76746,-5.2088 z"
       fill="#ffffff"
       id="path29" />
    <path
       d="m 394.00241,95.83325 a 3.50078,3.50078 0 0 1 -3.12988,-1.93262 l -0.0322,-0.06445 h -1.167 a 3.49986,3.49986 0 0 1 -3.29,-2.30566 l -1.332,-3.67188 a 3.49745,3.49745 0 0 1 0.28906,-2.99414 l 0.999,-1.665 a 3.49546,3.49546 0 0 1 1.58004,-1.3975 l 2.9961,-1.33105 a 3.49823,3.49823 0 0 1 4.17968,1.04492 l 1.21,1.5498 1.80371,-0.67675 a 3.49628,3.49628 0 0 1 4.40625,1.81054 l 1.998,4.3291 a 3.50022,3.50022 0 0 1 -1.69433,4.63672 l -4.99512,2.33789 a 3.491,3.491 0 0 1 -1.4834,0.33008 z"
       id="path31" />
    <path
       d="m 392.33688,83.66872 2.338,2.997 h 1.998 l 2.66413,-0.9991 1.998,4.32919 -4.99517,2.33785 h -2.33783 l -0.99927,-1.99783 h -3.3299 l -1.33209,-3.67011 0.99909,-1.665 2.99694,-1.33193 m -0.003,-7.00048 a 6.98343,6.98343 0 0 0 -2.84027,0.60376 l -2.99689,1.33184 a 7.00046,7.00046 0 0 0 -3.15949,2.79511 l -0.99908,1.665 a 7.00018,7.00018 0 0 0 -0.57764,5.98986 l 1.3321,3.67012 a 7.00041,7.00041 0 0 0 5.98669,4.58671 6.99951,6.99951 0 0 0 4.92249,2.02288 h 2.33783 a 6.99987,6.99987 0 0 0 2.96722,-0.66 l 4.99518,-2.33784 a 7,7 0 0 0 3.38849,-9.27335 l -1.998,-4.3292 a 6.99429,6.99429 0 0 0 -8.21491,-3.81559 7.00192,7.00192 0 0 0 -5.14361,-2.24939 z"
       fill="#ffffff"
       id="path33" />
    <path
       d="m 407.3364,83.8313 a 3.496,3.496 0 0 1 -1.80079,-0.499 l -1.665,-0.999 a 3.49968,3.49968 0 0 1 -1.69921,-3.001 v -1.665 a 3.50126,3.50126 0 0 1 2.07515,-3.1973 6.08913,6.08913 0 0 1 2.624,-0.68359 3.748,3.748 0 0 1 1.55567,0.332 c 0.167,0.02344 0.373,0.04687 0.542,0.06152 a 3.50345,3.50345 0 0 1 3.2002,3.48731 v 1.665 a 3.49887,3.49887 0 0 1 -1.40039,2.7998 l -1.332,0.999 a 3.49425,3.49425 0 0 1 -2.09963,0.70026 z"
       id="path35" />
    <path
       d="m 406.87033,77.28685 c 0.0663,0 0.11383,0.01408 0.13287,0.04764 0.11786,0.20109 1.665,0.33314 1.665,0.33314 v 1.665 l -1.332,0.99894 -1.665,-0.99894 v -1.665 a 4.87918,4.87918 0 0 1 1.19916,-0.38078 m 0,-7 a 9.55974,9.55974 0 0 0 -4.04958,0.98741 7.00006,7.00006 0 0 0 -4.14958,6.39337 v 1.665 a 6.99994,6.99994 0 0 0 3.39875,6.00258 l 1.665,0.99894 a 6.99993,6.99993 0 0 0 7.801,-0.4024 l 1.332,-0.99894 a 7.00005,7.00005 0 0 0 2.80023,-5.60018 v -1.665 a 7,7 0 0 0 -6.40472,-6.97464 l -0.007,-5.9e-4 a 7.21605,7.21605 0 0 0 -2.3866,-0.40555 z"
       fill="#ffffff"
       id="path37" />
    <path
       d="m 398.67038,79.5022 a 3.49886,3.49886 0 0 1 -2.91406,-1.56348 l -1.332,-2.00488 a 3.49938,3.49938 0 0 1 -0.21582,-3.502 l 1.332,-2.66406 a 3.49963,3.49963 0 0 1 2.7832,-1.917 l 3.33691,-0.333 q 0.17579,-0.01758 0.34864,-0.01758 a 3.502,3.502 0 0 1 3.12988,1.93457 l 0.999,1.99805 a 3.50134,3.50134 0 0 1 0.14746,2.792 l -0.999,2.6709 a 3.499,3.499 0 0 1 -2.93066,2.25586 l -3.33692,0.333 a 3.47223,3.47223 0 0 1 -0.34863,0.01762 z"
       id="path39" />
    <path
       d="m 402.00809,71.00023 0.99926,1.9982 -0.99926,2.671 -3.33679,0.33279 -1.3324,-2.00469 1.3324,-2.66416 3.33679,-0.33315 m 0.002,-7.00016 q -0.34708,0 -0.69782,0.03479 l -3.33679,0.33315 a 7,7 0 0 0 -5.56525,3.83427 l -1.33239,2.66416 a 7,7 0 0 0 0.4309,7.00582 l 1.3324,2.00469 a 7.00027,7.00027 0 0 0 5.82837,3.12538 q 0.34653,0 0.69611,-0.03466 l 3.33679,-0.33279 a 7,7 0 0 0 5.86151,-4.51265 l 0.99927,-2.671 a 7.00006,7.00006 0 0 0 -0.29541,-5.58371 l -0.99927,-1.9982 a 7.00063,7.00063 0 0 0 -6.25842,-3.86924 z"
       fill="#ffffff"
       id="path41" />
    <path
       d="m 401.36765,41.7522 a 3.50055,3.50055 0 0 1 -2.97559,-1.89112 l -1.165,-2.25488 a 3.49883,3.49883 0 0 1 0.20215,-3.55469 l 1.33887,-1.998 a 3.49934,3.49934 0 0 1 2.90722,-1.55176 h 1.665 a 3.50081,3.50081 0 0 1 2.89453,1.53223 c 1.71485,2.52246 2.02051,3.3413 2.02051,4.38232 0,0.93652 -0.26172,1.79541 -1.68945,3.89209 a 3.49989,3.49989 0 0 1 -2.89258,1.5293 c -0.0439,-4e-5 -2.30566,-0.08549 -2.30566,-0.08549 z"
       id="path43" />
    <path
       d="m 403.34036,34.00154 a 15.4322,15.4322 0 0 1 1.41516,2.41463 9.8546,9.8546 0 0 1 -1.08239,1.92143 l -2.17163,-0.083 -1.16529,-2.25475 1.33875,-1.99828 h 1.6654 m 0,-7 H 401.675 a 6.99989,6.99989 0 0 0 -5.81549,3.10388 l -1.33881,1.99828 a 7.00015,7.00015 0 0 0 -0.40308,7.11 l 1.16529,2.25475 a 7,7 0 0 0 5.95117,3.781 l 2.17163,0.083 q 0.13431,0.0051 0.26819,0.0051 a 6.99986,6.99986 0 0 0 5.78393,-3.05826 c 1.45527,-2.1356 2.29773,-3.77962 2.29773,-5.86319 0,-2.12852 -0.81024,-3.67937 -2.62652,-6.35057 A 7.00006,7.00006 0 0 0 403.3404,27.0015 Z"
       fill="#ffffff"
       id="path45" />
    <path
       d="m 375.33932,110.50024 a 53.5,53.5 0 1 1 53.5,-53.5 53.56059,53.56059 0 0 1 -53.5,53.5 z M 345.56393,86.59888 a 13.38738,13.38738 0 0 0 1.94727,1.85254 c 0.0977,0.07129 4.34473,3.20312 7.40625,5.05859 0.82324,0.5 1.84766,1.06836 2.90527,1.63086 l -0.72656,-4.61914 -0.0107,0.01074 a 3.49838,3.49838 0 0 1 -3.46192,0.80371 24.344,24.344 0 0 1 -8.05957,-4.7373 z m 44.02247,8.30078 6.86328,-1.44531 13.8125,-12.11719 0.69531,-11.83887 h -12.59668 l -11.22363,14.09671 -0.252,9.10938 z m -20.77735,-10.041 -3.24316,-6.24414 a 3.52206,3.52206 0 0 1 -0.3125,-0.86328 l -0.8877,1.21484 z m -15.917,-8.02051 a 3.49571,3.49571 0 0 1 2.20605,0.96875 l -0.25683,-1.63769 -2.17871,0.6543 z m 25.77441,-2.93261 -4.66307,-7.77154 c -0.041,-0.06738 -0.0781,-0.13574 -0.11426,-0.2041 l -5.542,7.58594 q 0.16113,-0.01466 0.32519,-0.01465 c 0.0469,3e-5 9.99415,0.40433 9.99415,0.40433 z m -29.9248,-13.40528 a 16.49813,16.49813 0 0 1 6.12207,1.499 l -0.50781,-1.11133 a 9.74064,9.74064 0 0 0 -5.11817,-1.34863 c -0.13769,0 -0.27832,0.0029 -0.4209,0.0078 a 7.15122,7.15122 0 0 0 -5.23339,2.31738 9.9807,9.9807 0 0 1 5.04492,-1.36426 z m 29.58984,-0.65039 a 3.499,3.499 0 0 1 0.83106,0.18164 l 5.2998,1.86036 -4.79883,-3.8667 z m 28.8584,-0.61914 7.14453,-8.62011 -1.01465,-7.61719 -8.76756,-12.27053 -10.06348,-2.69678 -5.47559,7.9834 4.66407,10.15186 9.10644,11.53808 z m -39.07129,-5.65283 8.10645,-5.7793 -5.46,0.67286 a 3.497,3.497 0 0 1 -2.69629,-0.8086 z m -25.4414,-14.41113 a 3.499,3.499 0 0 1 2.13281,0.7251 l 13.00488,9.99755 -0.208,-18.75976 -1.48144,8.78906 a 3.49969,3.49969 0 0 1 -5.54,2.22608 l -10.3418,-7.69288 -0.44824,0.53907 -0.22754,6.06836 a 3.502,3.502 0 0 1 3.10938,-1.89258 z m 25.31543,-0.43067 a 3.61532,3.61532 0 0 1 0.31542,-0.25341 l 7.43555,-5.28955 -5.20508,0.2998 c -0.0674,0.0039 -0.13476,0.0059 -0.20117,0.0059 a 3.50089,3.50089 0 0 1 -2.39746,-0.94971 z m -0.10059,-11.90771 a 3.4731,3.4731 0 0 1 0.68164,-0.51953 l 8.43164,-4.917 a 3.44917,3.44917 0 0 1 -0.16211,-0.9336 l -8.98437,2.52246 z"
       id="path47" />
    <path
       d="M 375.33951,7 A 50,50 0 1 1 325.33963,57.00018 50.003,50.003 0 0 1 375.33951,7 m -10.663,53.33028 19.16163,-13.6604 h -3.16352 l 1.83148,-1.1169 c 0,0 -0.44171,-0.0084 -0.99585,-0.0084 a 12.49381,12.49381 0 0 0 -2.124,0.10677 c 0.48224,-0.25884 4.00818,-2.263 4.00818,-2.263 l -13.05707,1.6094 V 41.3349 L 387.6749,28.99946 370.33743,29.9988 v -0.66638 l 15.99835,-9.33092 -5.99426,0.333 5.32831,-3.33027 c 0,0 -2.66418,-0.33307 -2.99695,-0.33307 a 46.73513,46.73513 0 0 1 4.225,-2.67075 l -22.56148,6.33406 0.34014,39.99581 M 352.674,39.33686 l -13.001,-9.67138 -3.33026,4.003 -0.999,26.6613 v 0 c 0.0134,-0.1981 7.333,-17.663 7.333,-17.663 l 18.7182,14.389 -0.38849,-35.0564 -2.3313,3.00407 -0.33295,-2.67109 -1.67181,3.00409 -0.666,-5.75135 -3.33039,19.75176 m 55.66107,23.9974 9.67121,-11.66906 -1.332,-9.99732 -10.004,-14.00042 -13.66742,-3.663 -7.999,11.66229 5.668,12.33508 9.99714,12.66845 7.66613,2.664 m -32.9956,35.99958 -2.24768,-4.1973 2.81683,2.44916 -1.56818,-3.92 3.33039,0.66612 -8.99842,-17.33016 16.33143,0.66594 -7.99915,-13.33444 0.999,-0.99892 12.33515,4.32882 -1.998,-2.664 3.663,1.33226 a 47.58524,47.58524 0 0 1 -2.66394,-3.99606 0.16678,0.16678 0 0 1 0.0439,-0.0043 14.82766,14.82766 0 0 1 1.62091,0.33733 l -12.002,-9.67114 -18.99539,26.0024 15.33209,20.3343 m -13.0011,1.9982 -4.66229,-29.66586 -10.00412,2.9973 2.00506,0.33314 -3.337,2.671 2.997,0.33282 -1.99793,1.9982 5.335,0.333 1.99805,7.666 a 20.649,20.649 0 0 1 -7.48584,-4.67574 c -2.80249,-2.789 -5.05725,-7.33352 -5.18225,-10.98954 -0.11786,-3.65584 1.59558,-8.26976 6.667,-8.3321 l 0.0705,-4.3e-4 c 5.09027,4e-4 13.92981,6.66767 13.92981,6.66767 l -5.50843,-12.05786 a 12.40639,12.40639 0 0 0 -7.92511,-2.56972 q -0.26852,0 -0.54583,0.0098 c -1.19336,0.04164 -11.05176,0.11788 -11.68323,15.2837 -0.56207,13.5632 8.478,19.9737 8.478,19.9737 0,0 4.37768,3.2329 7.61749,5.19638 3.23987,1.97 9.23413,4.82858 9.23413,4.82858 m 26.33558,-2.6642 9.39337,-1.97724 15.60289,-13.68786 0.99914,-17.00458 H 396.6729 l -13.00128,16.3314 -0.33282,12.00222 5.33516,4.33606 M 375.33951,0 A 57,57 0 1 0 432.33969,57.00018 57.06461,57.06461 0 0 0 375.33951,0 Z m 17.6828,36.35186 2.952,-4.304 6.4596,1.73123 7.53186,10.5406 0.69757,5.23558 -4.61847,5.57251 -1.14722,-0.39866 -8.21365,-10.40843 -3.66168,-7.96883 z m 7.02533,36.64636 h 7.19842 l -0.39209,6.67243 -12.02374,10.548 -4.33173,0.91179 -0.0667,-0.05424 0.17237,-6.21571 z"
       fill="#ffffff"
       id="path49" />
    <path
       d="m 408.33444,66.83423 a 3.48835,3.48835 0 0 1 -1.14746,-0.19434 l -7.666,-2.66406 a 3.48977,3.48977 0 0 1 -1.59864,-1.1377 l -9.998,-12.668 a 3.51251,3.51251 0 0 1 -0.4336,-0.70752 l -5.667,-12.335 a 3.50041,3.50041 0 0 1 0.294,-3.44043 l 7.998,-11.66211 a 3.50166,3.50166 0 0 1 3.793,-1.40137 l 13.668,3.6626 a 3.50088,3.50088 0 0 1 1.94141,1.34619 l 10.0039,14.00049 a 3.50227,3.50227 0 0 1 0.62207,1.57226 l 1.332,9.99756 a 3.49934,3.49934 0 0 1 -0.77539,2.6958 l -9.6709,11.66895 a 3.49826,3.49826 0 0 1 -2.69539,1.26668 z"
       fill="#f7b210"
       id="path51" />
    <path
       d="m 393.00284,24.00449 13.66742,3.663 10.004,14.00041 1.332,9.99732 -9.67121,11.669 -7.66613,-2.664 -9.99714,-12.66841 -5.668,-12.3351 7.999,-11.66228 m 10.67029,14.3331 a 9.85437,9.85437 0 0 0 1.08239,-1.92141 15.43155,15.43155 0 0 0 -1.41516,-2.41465 h -1.6653 l -1.33875,1.99829 1.16529,2.25475 2.17163,0.083 m -8.71177,3.36429 a 0.62206,0.62206 0 0 0 0.62933,-0.3669 l 0.74921,-0.666 a 3.86678,3.86678 0 0 0 -0.66608,-1.332 3.7458,3.7458 0 0 0 -1.33191,-0.333 l -1.006,0.66595 -0.33313,0.999 a 4.02189,4.02189 0 0 0 1.67206,0.999 1.32332,1.32332 0 0 0 0.2865,0.03392 m 8.38879,11.65992 a 5.30341,5.30341 0 0 1 -3.014,-0.6976 4.79208,4.79208 0 0 0 2.0047,1.92178 6.88694,6.88694 0 0 0 2.73316,0.4688 14.31959,14.31959 0 0 0 2.42889,-0.21911 c 0.91565,-0.16668 2.17126,-0.999 3.50336,-3.17039 a 6.65271,6.65271 0 0 0 0.91583,-3.41365 12.28707,12.28707 0 0 0 -0.33319,-3.0871 6.54148,6.54148 0 0 0 -0.83252,1.64436 c -0.63794,1.78962 -0.666,2.77508 -1.75537,4.35667 a 6.66335,6.66335 0 0 1 -5.16821,2.19241 c -0.16041,0.0019 -0.32123,0.0038 -0.48267,0.0038 M 393.00278,17.004 a 7.00059,7.00059 0 0 0 -5.77259,3.04108 l -7.999,11.66229 a 7.00014,7.00014 0 0 0 -0.588,6.88208 l 5.668,12.33509 a 6.99883,6.99883 0 0 0 0.8656,1.41366 l 9.99713,12.66841 a 6.99987,6.99987 0 0 0 3.19733,2.27578 l 7.66613,2.664 a 6.998,6.998 0 0 0 7.68732,-2.14533 L 423.3959,56.132 a 7.00011,7.00011 0 0 0 1.54908,-5.39133 l -1.332,-9.99732 a 7.00037,7.00037 0 0 0 -1.24323,-3.14516 l -10.004,-14.00042 a 7,7 0 0 0 -3.8833,-2.69169 l -13.66742,-3.663 A 6.99805,6.99805 0 0 0 393.00284,17.004 Z"
       fill="#ffffff"
       id="path53" />
    <path
       d="m 335.16061,63.82544 a 3.49956,3.49956 0 0 1 -3.31347,-3.626 l 0.998,-26.66162 a 3.498,3.498 0 0 1 0.80664,-2.10791 l 3.33106,-4.00342 a 3.49976,3.49976 0 0 1 4.7793,-0.56933 l 8.41211,6.25732 2.3789,-14.11133 a 3.49994,3.49994 0 0 1 3.4502,-2.918 c 0.0303,0 0.0605,4.8e-4 0.0918,0.001 a 3.50019,3.50019 0 0 1 3.33594,2.78711 3.50094,3.50094 0 0 1 5.0752,3.0874 l 0.38867,35.05664 a 3.4995,3.4995 0 0 1 -5.63281,2.813 L 344.14987,48.21313 c -2.39453,5.72706 -5.10644,12.23536 -5.47363,13.19141 a 3.50247,3.50247 0 0 1 -3.3291,2.42578 c -0.0615,0 -0.12403,-0.002 -0.18653,-0.0049 z"
       fill="#f7b210"
       id="path55" />
    <path
       d="m 356.00443,19.58514 0.666,5.75133 1.67181,-3.00407 0.33295,2.67109 2.3313,-3.00407 0.38849,35.0564 -18.7182,-14.389 c 0,0 -7.31958,17.46488 -7.333,17.66349 l 0.999,-26.66181 3.33026,-4.003 13.001,9.67137 3.33039,-19.75172 m -20.66071,40.74462 v 5.1e-4 M 356.002,12.58511 a 7,7 0 0 0 -6.9002,5.83617 l -1.42835,8.4713 -3.82245,-2.84352 a 6.99929,6.99929 0 0 0 -9.5592,1.13955 l -3.33026,4.003 a 7.00028,7.00028 0 0 0 -1.61389,4.21477 l -0.999,26.6618 a 7,7 0 0 0 6.628,7.25247 c 0.12476,0.0066 0.24939,0.0098 0.37287,0.0098 a 7.00381,7.00381 0 0 0 6.62445,-4.74977 c 0.35437,-0.90019 1.91638,-4.66163 3.65063,-8.81861 l 11.50421,8.8435 a 7,7 0 0 0 11.26575,-5.62731 L 368.006,21.92184 a 7.00183,7.00183 0 0 0 -6.7077,-6.91677 6.99135,6.99135 0 0 0 -5.11273,-2.41758 c -0.0612,-0.0016 -0.12256,-0.0024 -0.18354,-0.0024 z"
       fill="#ffffff"
       id="path57" />
    <path
       d="m 364.67624,63.83032 a 3.49992,3.49992 0 0 1 -3.5,-3.4707 L 360.8364,20.364 a 3.49982,3.49982 0 0 1 2.55371,-3.39941 l 22.56152,-6.334 a 3.5002,3.5002 0 0 1 3.20215,6.04589 3.47686,3.47686 0 0 1 -0.0811,1.14405 3.49944,3.49944 0 0 1 -0.97363,5.20459 l -4.65039,2.71191 4.02539,-0.23193 c 0.0674,-0.0039 0.13574,-0.0059 0.20215,-0.0059 a 3.50031,3.50031 0 0 1 2.02832,6.35205 l -12.29688,8.74853 5.5586,-0.68506 a 3.453,3.453 0 0 1 0.42969,-0.02636 3.49978,3.49978 0 0 1 3.27636,4.727 3.499,3.499 0 0 1 -0.80273,4.9043 l -19.16211,13.66023 a 3.49737,3.49737 0 0 1 -2.03125,0.65039 z"
       fill="#f7b210"
       id="path59" />
    <path
       d="m 386.89786,14.00038 a 46.73513,46.73513 0 0 0 -4.225,2.67075 c 0.33277,0 2.99695,0.33307 2.99695,0.33307 l -5.32831,3.33027 5.99426,-0.333 -15.99835,9.33091 v 0.66639 l 17.33747,-0.99935 -17.33745,12.33549 v 3.66289 l 13.05707,-1.60941 c 0,0 -3.52594,2.00413 -4.00818,2.263 a 12.49307,12.49307 0 0 1 2.12378,-0.10676 c 0.55414,0 0.996,0.0084 0.996,0.0084 l -1.83148,1.11689 h 3.16352 l -19.16163,13.6604 -0.34014,-39.99581 22.56146,-6.33409 m -3.05969,32.6695 h 0.005 m 3.05615,-39.67061 a 6.9987,6.9987 0 0 0 -1.89355,0.26167 L 362.44431,13.595 a 7,7 0 0 0 -5.10767,6.799 l 0.34015,39.9958 A 7,7 0 0 0 368.74,66.03014 L 387.80026,52.442 a 7.00778,7.00778 0 0 0 2.55762,-8.33266 7.00276,7.00276 0 0 0 -2.8606,-6.39256 L 391.733,34.70313 A 7.00028,7.00028 0 0 0 392.26846,23.71734 6.9965,6.9965 0 0 0 393.04,17.9881 q -0.0606,-0.20169 -0.13233,-0.39737 A 7.00171,7.00171 0 0 0 386.89931,6.99927 Z"
       fill="#ffffff"
       id="path61" />
    <path
       d="m 362.33835,104.83228 a 3.49883,3.49883 0 0 1 -1.50684,-0.34082 c -0.251,-0.12012 -6.19238,-2.958 -9.5459,-4.99805 -3.333,-2.01953 -7.69433,-5.23535 -7.87793,-5.3711 -0.37793,-0.2666 -10.52929,-7.64648 -9.8955,-22.93457 0.70214,-16.86718 11.66308,-18.52734 15.00586,-18.63427 0.27539,-0.0098 0.499,-0.01368 0.71972,-0.01368 a 15.774,15.774 0 0 1 10.26953,3.47168 3.49488,3.49488 0 0 1 0.83887,1.14356 l 5.50879,12.0581 a 3.50123,3.50123 0 0 1 -4.26953,4.78125 l 4.21094,26.79493 a 3.50005,3.50005 0 0 1 -3.458,4.043 z m -13.59668,-37.332 a 2.636,2.636 0 0 0 -2.05762,0.76758 5.57237,5.57237 0 0 0 -1.18555,3.65137 3.50236,3.50236 0 0 1 1.16895,-0.6084 l 7.07031,-2.11816 a 13.08566,13.08566 0 0 0 -4.99609,-1.69243 z"
       fill="#1082ce"
       id="path63" />
    <path
       d="m 349.23782,56.03986 a 12.41056,12.41056 0 0 1 7.92511,2.56972 l 5.50843,12.05786 c 0,0 -8.83973,-6.66766 -13.92981,-6.66766 l -0.0705,4.3e-4 c -5.07147,0.06232 -6.78491,4.67625 -6.667,8.3321 0.125,3.656 2.37976,8.20056 5.18225,10.98954 a 20.649,20.649 0 0 0 7.48584,4.67572 l -1.99805,-7.666 -5.335,-0.333 1.99793,-1.9982 -2.997,-0.33281 3.337,-2.671 -2.00506,-0.33313 10.00409,-2.9973 4.66229,29.66588 c 0,0 -5.99426,-2.85855 -9.23413,-4.82859 -3.23981,-1.96349 -7.61749,-5.19638 -7.61749,-5.19638 0,0 -9.0401,-6.41051 -8.478,-19.9737 0.63147,-15.16582 10.48987,-15.24206 11.68323,-15.2837 q 0.27731,-0.0099 0.54583,-0.0098 m 4.9e-4,-7 h -2.4e-4 c -0.262,0 -0.52722,0.0046 -0.79724,0.01434 -8.49311,0.26991 -17.76813,6.18709 -18.426,21.988 -0.68335,16.49026 10.02857,24.94306 11.31378,25.89559 l -1.8e-4,2.7e-4 c 0.18921,0.13975 4.67462,3.44693 8.14783,5.55184 3.49414,2.12465 9.59124,5.03755 9.84912,5.1605 a 7,7 0 0 0 9.92816,-7.40511 l -3.6494,-23.22104 a 7.003,7.003 0 0 0 3.43432,-9.26544 L 363.53,55.7009 a 7.00038,7.00038 0 0 0 -1.67816,-2.28885 19.18328,19.18328 0 0 0 -12.61377,-4.37219 z"
       fill="#ffffff"
       id="path65" />
    <path
       d="m 375.34225,102.83423 a 3.49643,3.49643 0 0 1 -2.79785,-1.39258 l -15.332,-20.335 a 3.49986,3.49986 0 0 1 -0.0312,-4.17188 l 18.99512,-26.00195 a 3.49978,3.49978 0 0 1 5.02246,-0.66064 l 12.002,9.67041 a 3.49861,3.49861 0 0 1 1.1709,3.67871 c 0.16211,0.22949 0.32324,0.45508 0.47852,0.67285 a 3.50094,3.50094 0 0 1 -1.59571,5.30664 c -0.0293,0.04395 -0.0605,0.08789 -0.0918,0.13086 a 3.50078,3.50078 0 0 1 -3.98242,1.23437 l -5.21192,-1.8291 4.03711,6.7295 a 3.5,3.5 0 0 1 -3,5.30078 c -0.0479,0 -10.44531,-0.42286 -10.44531,-0.42286 L 380.7778,92.719 a 3.49989,3.49989 0 0 1 -1.375,4.65528 3.51149,3.51149 0 0 1 -0.56738,2.13086 3.50032,3.50032 0 0 1 -3.49317,3.3291 z"
       fill="#1082ce"
       id="path67" />
    <path
       d="m 379.00278,52.99718 12.002,9.67113 a 14.83273,14.83273 0 0 0 -1.621,-0.33732 0.16681,0.16681 0 0 0 -0.0439,0.0043 47.59013,47.59013 0 0 0 2.66394,3.99606 l -3.663,-1.33227 1.998,2.664 -12.33515,-4.32882 -0.999,0.99892 7.99915,13.33445 -16.33143,-0.66594 8.99842,17.33015 -3.33039,-0.66613 1.56818,3.92 -2.81683,-2.44916 2.24768,4.19731 -15.33205,-20.33437 18.99536,-26.00235 m 1.8e-4,-7 a 7.00064,7.00064 0 0 0 -5.65259,2.87083 L 354.355,74.87032 a 7,7 0 0 0 0.0632,8.34352 l 15.33209,20.33431 a 7.00006,7.00006 0 0 0 12.47223,-2.93945 7.01713,7.01713 0 0 0 0.5036,-1.43468 7.00163,7.00163 0 0 0 1.15723,-8.06791 l -3.43652,-6.61849 4.27185,0.17419 q 0.14337,0.0058 0.28619,0.0058 a 7.00011,7.00011 0 0 0 6.29,-10.06993 6.999,6.999 0 0 0 4.19763,-2.19723 7.00149,7.00149 0 0 0 2.5116,-9.67443 6.99622,6.99622 0 0 0 -2.60724,-5.5084 l -12.002,-9.67114 a 7.00058,7.00058 0 0 0 -4.39191,-1.54938 z"
       fill="#ffffff"
       id="path69" />
    <path
       d="m 388.67429,102.16821 a 3.4972,3.4972 0 0 1 -2.207,-0.78418 l -5.33593,-4.33593 a 3.49749,3.49749 0 0 1 -1.292,-2.8125 l 0.333,-12.00293 a 3.5,3.5 0 0 1 0.76074,-2.083 L 393.935,63.8186 a 3.50039,3.50039 0 0 1 2.73828,-1.32031 h 17.99612 a 3.49925,3.49925 0 0 1 3.49414,3.70508 l -0.999,17.00488 A 3.50122,3.50122 0 0 1 415.979,85.634 l -15.60254,13.6875 a 3.50337,3.50337 0 0 1 -1.58789,0.794 l -9.39357,1.9775 a 3.46788,3.46788 0 0 1 -0.72071,0.0752 z"
       fill="#1082ce"
       id="path71" />
    <path
       d="m 414.6694,65.99823 h 0.005 m -0.005,0 -0.99914,17.00456 -15.60291,13.68787 -9.39335,1.97724 -5.33514,-4.33606 0.33282,-12.00221 13.00128,-16.3314 h 17.99644 m -15.9981,10.004 3.33679,-0.33279 0.99926,-2.671 -0.99926,-1.9982 -3.33679,0.33315 -1.3324,2.66416 1.3324,2.00469 m 8.66491,4.32939 1.332,-0.999 v -1.665 c 0,0 -1.54718,-0.13205 -1.665,-0.33315 -0.019,-0.03355 -0.0665,-0.04763 -0.13287,-0.04763 a 4.87918,4.87918 0 0 0 -1.19916,0.38078 v 1.665 l 1.665,0.999 M 389.67294,90.3358 h 3.3299 l 0.99927,1.99783 h 2.33783 l 4.99517,-2.33785 -1.998,-4.3292 -2.66413,0.9991 h -1.998 l -2.338,-2.99695 -2.99694,1.33191 -0.99909,1.665 1.33209,3.67012 m 25.00147,-31.33757 h -18.00157 a 7,7 0 0 0 -5.4765,2.6402 l -13.00128,16.3314 a 7,7 0 0 0 -1.52081,4.16577 l -0.33283,12.00221 a 7,7 0 0 0 2.5824,5.6262 l 5.33514,4.33605 a 6.99919,6.99919 0 0 0 5.85675,1.41774 l 9.39338,-1.97724 a 7,7 0 0 0 3.17443,-1.58777 l 15.60291,-13.68786 a 6.99983,6.99983 0 0 0 2.37164,-4.85155 l 0.98737,-16.80368 q 0.0262,-0.30221 0.0264,-0.61147 a 6.99789,6.99789 0 0 0 -6.9975,-7 z m -0.005,14 z"
       fill="#ffffff"
       id="path73" />
    <path
       d="m 603.02,90.56567 a 22.44725,22.44725 0 0 1 -3.35059,-0.21484 19.6491,19.6491 0 0 1 -2.9248,-0.59082 9.13053,9.13053 0 0 1 -3.793,-1.96387 c -0.0322,-0.02734 -0.0635,-0.05468 -0.0947,-0.084 a 5.23429,5.23429 0 0 1 -1.78615,-3.85156 V 79.053 a 3.49635,3.49635 0 0 1 0.124,-0.92188 6.03534,6.03534 0 0 1 2.12012,-3.12988 9.21584,9.21584 0 0 1 3.0625,-1.499 20.71794,20.71794 0 0 1 3.2334,-0.62305 33.30153,33.30153 0 0 1 3.62793,-0.20312 h 27.46191 a 3.50048,3.50048 0 0 1 3.5,3.5 v 1.45605 a 3.48856,3.48856 0 0 1 -0.36914,1.56738 3.4925,3.4925 0 0 1 0.332,1.40723 l 0.0361,1.49316 a 3.50488,3.50488 0 0 1 -0.43555,1.77832 3.4845,3.4845 0 0 1 0.43652,1.69434 v 1.49316 a 3.50048,3.50048 0 0 1 -3.5,3.5 z m -4.49317,-8.90527"
       fill="#231f20"
       id="path75" />
    <path
       d="m 630.70053,76.17555 v 1.45684 h -27.46142 a 26.36354,26.36354 0 0 0 -3.09583,0.14568 18.6398,18.6398 0 0 0 -2.54944,0.50939 c -1.09259,0.32831 -1.31116,0.72893 -1.52966,1.27525 l -0.0364,1.12854 h 34.63635 l 0.0364,1.49376 h -34.63635 v 1.56611 c 0,0.40064 0.29138,0.80125 1.74768,1.20188 a 19.72657,19.72657 0 0 0 2.44073,0.43756 17.26851,17.26851 0 0 0 2.73157,0.18159 h 27.71637 v 1.49327 h -27.68048 a 18.783,18.783 0 0 1 -2.87677,-0.1821 16.11638,16.11638 0 0 1 -2.513,-0.50989 5.69031,5.69031 0 0 1 -2.40381,-1.23782 1.75589,1.75589 0 0 1 -0.65558,-1.27524 v -4.80756 a 2.52386,2.52386 0 0 1 0.87415,-1.27474 5.73014,5.73014 0 0 1 1.89386,-0.91052 17.24519,17.24519 0 0 1 2.65875,-0.50989 29.9535,29.9535 0 0 1 3.24146,-0.18211 h 27.46142 m 0,-7 h -27.46142 a 36.60006,36.60006 0 0 0 -3.98719,0.22194 24.23762,24.23762 0 0 0 -3.75476,0.7167 l -0.0814,0.0227 a 12.73508,12.73508 0 0 0 -4.2417,2.09509 9.47637,9.47637 0 0 0 -3.35656,4.97909 6.9996,6.9996 0 0 0 -0.24665,1.84174 v 4.80756 a 8.68985,8.68985 0 0 0 2.92206,6.43217 q 0.0892,0.08178 0.181,0.16045 a 12.58991,12.58991 0 0 0 5.18011,2.69253 23.23436,23.23436 0 0 0 3.34186,0.674 25.93216,25.93216 0 0 0 3.82416,0.24588 h 27.68048 a 7,7 0 0 0 7,-7 v -1.49325 a 7.01731,7.01731 0 0 0 -0.20709,-1.69694 6.99669,6.99669 0 0 0 0.205,-1.86094 l -0.0364,-1.49376 a 7.03851,7.03851 0 0 0 -0.148,-1.2763 7.01975,7.01975 0 0 0 0.18646,-1.61182 v -1.45684 a 7,7 0 0 0 -7,-7 z"
       fill="#ffffff"
       id="path77" />
    <path
       d="m 571.22507,90.56567 a 3.50048,3.50048 0 0 1 -3.5,-3.5 v -5.86035 h -13.90918 a 3.50048,3.50048 0 0 1 -3.5,-3.5 V 76.176 a 3.50048,3.50048 0 0 1 3.5,-3.5 h 36.38476 a 3.50048,3.50048 0 0 1 3.5,3.5 v 1.52929 a 3.50048,3.50048 0 0 1 -3.5,3.5 h -13.94531 v 5.86035 a 3.50048,3.50048 0 0 1 -3.5,3.5 z"
       fill="#231f20"
       id="path79" />
    <path
       d="m 590.20065,76.1756 v 1.52969 H 572.755 v 9.36019 h -1.53015 V 77.70529 H 553.81564 V 76.1756 h 36.385 m 0,-7 h -36.385 a 7,7 0 0 0 -7,7 v 1.52969 a 7,7 0 0 0 7,7 h 10.40918 v 2.36019 a 7,7 0 0 0 7,7 h 1.53018 a 7,7 0 0 0 7,-7 v -2.36019 h 10.44568 a 7,7 0 0 0 7,-7 V 76.1756 a 7,7 0 0 0 -7,-7 z"
       fill="#ffffff"
       id="path81" />
    <path
       d="m 491.57272,90.56567 a 3.50049,3.50049 0 0 1 -3.5,-3.5 v -1.0166 h -9.53906 c -7.13574,0 -7.90625,-4.66406 -7.90625,-6.66894 v -3.20508 a 3.50048,3.50048 0 0 1 3.5,-3.5 h 1.60159 a 3.50048,3.50048 0 0 1 3.5,3.5 v 1.30762 h 26.58008 v -1.30762 a 3.50048,3.50048 0 0 1 3.5,-3.5 h 1.53027 a 3.50048,3.50048 0 0 1 3.5,3.5 v 3.20508 c 0,2.00488 -0.7705,6.66894 -7.90722,6.66894 H 496.602 v 1.0166 a 3.50048,3.50048 0 0 1 -3.5,3.5 z"
       fill="#231f20"
       id="path83" />
    <path
       d="m 510.839,76.17519 v 3.20505 c 0,2.91368 -2.44019,3.16913 -4.40692,3.16913 H 493.102 v 4.5162 h -1.5297 v -4.5162 h -13.0387 c -1.96674,0 -4.40643,-0.25545 -4.40643,-3.16913 v -3.205 h 1.602 v 3.05988 c 0,1.62328 1.31341,1.75231 2.446,1.75231 0.21423,0 0.42218,-0.0046 0.61334,-0.0046 h 27.425 c 0.197,0 0.40967,0.0046 0.62811,0.0046 1.15418,0 2.46766,-0.12916 2.46766,-1.75231 v -3.05993 h 1.52972 m 0,-7 h -1.5297 a 7.00283,7.00283 0 0 0 -6.64978,4.80757 h -20.28058 a 7.00285,7.00285 0 0 0 -6.64978,-4.80757 h -1.602 a 7,7 0 0 0 -7,7 v 3.20505 c 0,4.69109 2.9873,10.16913 11.40643,10.16913 h 6.49213 a 7.00283,7.00283 0 0 0 6.54657,4.5162 h 1.52971 a 7.00285,7.00285 0 0 0 6.54657,-4.5162 h 6.78343 c 8.41949,0 11.40692,-5.478 11.40692,-10.16913 v -3.205 a 7,7 0 0 0 -7,-7 z"
       fill="#ffffff"
       id="path85" />
    <path
       d="m 435.04733,90.56567 a 3.50049,3.50049 0 0 1 -3.5,-3.5 v -1.5664 a 3.49243,3.49243 0 0 1 1.05274,-2.50293 5.40964,5.40964 0 0 1 -1.49024,-3.68848 c 0,-2.44238 1.56934,-4.49609 4.30469,-5.63476 a 15.8399,15.8399 0 0 1 5.6416,-0.99805 h 29.13672 a 3.50048,3.50048 0 0 1 3.5,3.5 v 1.56641 a 3.492,3.492 0 0 1 -1.26269,2.6914 5.42065,5.42065 0 0 1 1.2998,3.5 c 0,2.41895 -1.6084,4.51172 -4.30273,5.63477 a 15.88368,15.88368 0 0 1 -5.64454,0.998 z"
       fill="#231f20"
       id="path87" />
    <path
       d="m 470.19321,76.17525 v 1.56611 h -29.13672 a 9.83664,9.83664 0 0 0 -3.715,0.65608 c -0.72839,0.29135 -1.16546,0.61914 -1.16546,0.91052 0,0.29138 0.43707,0.61865 1.16546,0.91 a 10.65957,10.65957 0 0 0 3.715,0.61966 h 22.72668 a 12.81617,12.81617 0 0 1 3.023,0.32728 10.429,10.429 0 0 1 1.27472,0.40114 9.28419,9.28419 0 0 1 1.05621,0.54631 2.30641,2.30641 0 0 1 1.09259,1.82054 v 0.03694 c 0,0.98335 -0.83764,1.82053 -2.1488,2.36686 a 12.30223,12.30223 0 0 1 -4.29767,0.7289 H 435.047 V 85.499 h 28.73614 a 10.68453,10.68453 0 0 0 3.71491,-0.61866 c 0.692,-0.32778 1.16546,-0.65606 1.16546,-0.91051 v -0.03694 c 0,-0.14518 -0.18206,-0.32728 -0.437,-0.5099 -0.21856,-0.14566 -0.47351,-0.25443 -0.72845,-0.40062 -0.32776,-0.10875 -0.65558,-0.218 -1.05622,-0.32728 a 11.64436,11.64436 0 0 0 -2.65869,-0.29137 h -22.72666 a 11.5058,11.5058 0 0 1 -4.29767,-0.72893 c -1.31116,-0.5458 -2.14887,-1.3835 -2.14887,-2.36685 0,-1.02029 0.83771,-1.85747 2.14887,-2.40378 a 12.28993,12.28993 0 0 1 4.29767,-0.72893 h 29.13672 m 0,-7 h -29.13672 a 19.36685,19.36685 0 0 0 -6.82721,1.20195 q -0.0818,0.03171 -0.16272,0.06543 C 430.02365,72.12715 427.61,75.44129 427.61,79.308 a 8.73435,8.73435 0 0 0 0.85682,3.79789 6.98841,6.98841 0 0 0 -0.41982,2.39311 v 1.56659 a 7,7 0 0 0 7,7 h 28.73614 a 19.38015,19.38015 0 0 0 6.82453,-1.20089 q 0.0831,-0.03219 0.16546,-0.06649 c 4.04285,-1.68454 6.45648,-4.98487 6.45648,-8.82839 a 8.85148,8.85148 0 0 0 -0.65527,-3.34673 6.97368,6.97368 0 0 0 0.61884,-2.88176 v -1.56608 a 7,7 0 0 0 -7,-7 z"
       fill="#ffffff"
       id="path89" />
    <path
       d="m 515.0278,90.56567 a 3.50048,3.50048 0 0 1 -3.5,-3.5 v -1.5664 a 3.49243,3.49243 0 0 1 1.05274,-2.50293 5.4096,5.4096 0 0 1 -1.49024,-3.68848 c 0,-1.16992 0.42285,-4.0625 4.335,-5.64746 a 15.83445,15.83445 0 0 1 5.61231,-0.98535 h 29.09961 a 3.50049,3.50049 0 0 1 3.5,3.5 v 1.56641 a 3.49016,3.49016 0 0 1 -1.26856,2.69628 5.35943,5.35943 0 0 1 1.30469,3.49512 c 0,2.418 -1.60742,4.51074 -4.30078,5.63477 a 15.55534,15.55534 0 0 1 -5.60938,0.998 z"
       fill="#231f20"
       id="path91" />
    <path
       d="m 550.137,76.17525 v 1.56611 h -29.09986 a 9.836,9.836 0 0 0 -3.7149,0.65608 c -0.72846,0.29135 -1.16553,0.61914 -1.16553,0.91052 0,0.29138 0.43707,0.61865 1.16553,0.91 a 10.65885,10.65885 0 0 0 3.7149,0.61966 h 22.7262 a 12.28809,12.28809 0 0 1 2.987,0.32728 10.41778,10.41778 0 0 1 1.27423,0.40114 9.2952,9.2952 0 0 1 1.0567,0.54631 h -0.0364 a 2.26076,2.26076 0 0 1 1.12854,1.82054 v 0.03694 c 0,0.98335 -0.83771,1.82053 -2.14886,2.36686 a 12.08255,12.08255 0 0 1 -4.26123,0.7289 H 515.02768 V 85.499 h 28.73566 a 10.09961,10.09961 0 0 0 3.64257,-0.61866 c 0.72791,-0.32778 1.20191,-0.65606 1.20191,-0.91051 v -0.03694 c 0,-0.14518 -0.18213,-0.32728 -0.43707,-0.5099 -0.21851,-0.14566 -0.47345,-0.25443 -0.7284,-0.40062 -0.32782,-0.10875 -0.65558,-0.218 -1.01977,-0.32728 a 11.64586,11.64586 0 0 0 -2.65924,-0.29137 h -22.7262 a 11.50624,11.50624 0 0 1 -4.29767,-0.72893 c -1.31116,-0.5458 -2.1488,-1.3835 -2.1488,-2.36685 0,-1.02029 0.80121,-1.85747 2.1488,-2.40378 a 12.29043,12.29043 0 0 1 4.29767,-0.72893 H 550.137 m 0,-7 h -29.09986 a 19.36758,19.36758 0 0 0 -6.82709,1.20191 q -0.0504,0.01951 -0.10046,0.03982 c -4.08191,1.6548 -6.51892,4.97854 -6.51892,8.891 a 8.73415,8.73415 0 0 0 0.85681,3.79784 6.98729,6.98729 0 0 0 -0.4198,2.39322 v 1.56659 a 7,7 0 0 0 7,7 h 28.73566 a 18.99543,18.99543 0 0 0 6.78912,-1.2013 q 0.0827,-0.032 0.16443,-0.06609 c 4.04291,-1.68455 6.45654,-4.98488 6.45654,-8.82838 a 8.832,8.832 0 0 0 -0.65478,-3.34783 6.97374,6.97374 0 0 0 0.61834,-2.88066 v -1.5661 a 7,7 0 0 0 -7,-7 z"
       fill="#ffffff"
       id="path93" />
    <path
       d="m 670.87253,90.56567 a 3.50048,3.50048 0 0 1 -3.5,-3.5 V 83.9729 l -11.459,5.78027 a 3.4001,3.4001 0 0 1 -0.46093,0.19239 l -0.13186,0.04394 a 5.82815,5.82815 0 0 1 -2.165,0.459 5.3282,5.3282 0 0 1 -2.28125,-0.54981 c -0.0498,-0.02148 -0.36621,-0.17871 -0.36621,-0.17871 l -11.31836,-5.75976 v 3.10546 a 3.50048,3.50048 0 0 1 -3.5,3.5 h -1.56642 a 3.50049,3.50049 0 0 1 -3.5,-3.5 V 76.90356 a 4.30512,4.30512 0 0 1 6.45118,-3.65527 l 16.19043,8.33692 14.23242,-7.25293 1.998,-1.084 a 4.193,4.193 0 0 1 2.06934,-0.57324 4.28809,4.28809 0 0 1 4.30078,4.26562 v 10.125 a 3.50048,3.50048 0 0 1 -3.5,3.5 z"
       fill="#231f20"
       id="path95" />
    <path
       d="m 671.56491,76.17541 a 0.77641,0.77641 0 0 1 0.80127,0.76484 v 10.125 h -1.49329 v -8.77743 l -16.53509,8.34041 -0.21851,0.07333 a 2.6603,2.6603 0 0 1 -0.96325,0.2464 2.06983,2.06983 0 0 1 -0.85834,-0.2464 l -0.218,-0.10976 -16.38989,-8.33989 v 8.81337 h -1.56616 V 76.90383 a 0.7365,0.7365 0 0 1 0.76489,-0.72842 0.83756,0.83756 0 0 1 0.51038,0.14569 l 17.04449,8.778 a 2.12515,2.12515 0 0 0 0.80951,0.28188 1.76513,1.76513 0 0 0 0.75714,-0.24546 l 15.07776,-7.68482 2.14935,-1.16547 a 0.68547,0.68547 0 0 1 0.32776,-0.10977 m 0,-7 a 7.66408,7.66408 0 0 0 -3.78339,1.0207 l -1.952,1.05847 -12.55475,6.39887 -14.54569,-7.49111 a 7.8063,7.8063 0 0 0 -11.60547,6.74144 v 10.16145 a 7,7 0 0 0 7,7 h 1.56616 a 7.00306,7.00306 0 0 0 6.58148,-4.61031 l 6.63385,3.37559 0.24481,0.12333 q 0.15153,0.07629 0.30664,0.14516 a 8.89113,8.89113 0 0 0 3.69947,0.84891 9.32684,9.32684 0 0 0 3.34985,-0.66365 l 0.059,-0.01981 a 7.00025,7.00025 0 0 0 0.92542,-0.38634 l 6.79882,-3.42939 a 7.00292,7.00292 0 0 0 6.58374,4.61651 h 1.49329 a 7,7 0 0 0 7,-7 v -10.125 a 7.79193,7.79193 0 0 0 -7.80127,-7.76484 z"
       fill="#ffffff"
       id="path97" />
    <path
       d="m 581.67819,68.384 a 23.13788,23.13788 0 0 1 -9.34863,-1.46582 24.107,24.107 0 0 1 -7.06156,-3.92868 22.5182,22.5182 0 0 1 -4.96778,-6.26758 22.4,22.4 0 0 1 -2.2998,-10.04785 22.365,22.365 0 0 1 6.91308,-16.51953 23.444,23.444 0 0 1 17.12891,-6.72021 24.721,24.721 0 0 1 8.8457,1.86425 c 0.5,0.19336 0.90235,0.34327 1.22461,0.4585 a 3.49988,3.49988 0 0 1 3.2959,-2.32275 h 1.01953 a 3.50017,3.50017 0 0 1 3.5,3.5 v 13.00244 a 3.50128,3.50128 0 0 1 -2.94433,3.456 h 4.07031 a 3.50017,3.50017 0 0 1 3.5,3.5 v 0.9834 a 3.50036,3.50036 0 0 1 -3.2168,3.48877 c -0.48633,0.03906 -0.834,0.0835 -1.07812,0.123 -0.0147,0.24023 -0.0293,0.564 -0.04,0.99609 l -0.0723,9.04248 a 3.50129,3.50129 0 0 1 -2.09765,3.17871 39.29187,39.29187 0 0 1 -7.69922,2.65528 44.24411,44.24411 0 0 1 -8.67188,1.0235 z m 1.5293,-35.8374 a 6.83479,6.83479 0 0 0 -4.59473,1.51074 9.1024,9.1024 0 0 0 -2.77539,4.73535 28.47927,28.47927 0 0 0 -1.00293,7.59034 27.76024,27.76024 0 0 0 1.07715,8.2373 5.73375,5.73375 0 0 0 2.64648,3.49268 6.03926,6.03926 0 0 0 3.957,1.269 10.59866,10.59866 0 0 0 1.89062,-0.15723 v -6.832 c 0,-0.4209 -0.01,-0.749 -0.0244,-1.00049 a 2.559,2.559 0 0 0 -0.29981,-0.01611 h -0.94726 a 3.50017,3.50017 0 0 1 -3.5,-3.5 v -0.9834 a 3.50017,3.50017 0 0 1 3.5,-3.5 H 594.855 a 3.50216,3.50216 0 0 1 -2.76367,-2.33886 12.82792,12.82792 0 0 0 -4.23828,-6.397 c -2.22369,-1.71722 -2.90826,-2.11029 -4.64556,-2.11029 z"
       fill="#231f20"
       id="path99" />
    <path
       d="M 596.42838,26.93436 V 39.93665 H 595.4086 A 16.15591,16.15591 0 0 0 589.946,31.8517 c -2.40429,-1.858 -3.86114,-2.80492 -6.7384,-2.80492 a 10.32648,10.32648 0 0 0 -6.84711,2.33094 12.5248,12.5248 0 0 0 -3.897,6.48294 31.83506,31.83506 0 0 0 -1.12854,8.5225 31.02664,31.02664 0 0 0 1.23779,9.28785 9.15891,9.15891 0 0 0 4.04273,5.35388 9.43508,9.43508 0 0 0 5.9002,1.857 13.9084,13.9084 0 0 0 2.73157,-0.25444 20.27185,20.27185 0 0 0 2.6582,-0.83819 v -9.3966 a 8.94486,8.94486 0 0 0 -0.29089,-2.84084 2.9181,2.9181 0 0 0 -1.23828,-1.12906 4.45992,4.45992 0 0 0 -2.29449,-0.54629 h -0.947 V 46.8931 h 17.91912 v 0.98337 a 8.03667,8.03667 0 0 0 -2.84137,0.58273 2.59359,2.59359 0 0 0 -1.23779,1.384 9.76415,9.76415 0 0 0 -0.25494,2.54947 l -0.0729,9.10524 a 35.66789,35.66789 0 0 1 -7.02923,2.4402 40.47135,40.47135 0 0 1 -7.93976,0.94644 c -3.4964,0 -5.71808,-0.25443 -8.01264,-1.20137 a 21.11374,21.11374 0 0 1 -6.1192,-3.35124 18.83382,18.83382 0 0 1 -4.15149,-5.24411 18.68218,18.68218 0 0 1 -1.89392,-8.41375 18.889,18.889 0 0 1 5.86379,-14.02108 20.01313,20.01313 0 0 1 14.67767,-5.71861 21.14358,21.14358 0 0 1 7.61194,1.63895 15.183,15.183 0 0 0 3.16864,1.01979 2.08523,2.08523 0 0 0 1.384,-0.54632 4.78787,4.78787 0 0 0 1.2019,-2.11242 h 1.01978 m 0,-7 h -1.0198 a 6.99427,6.99427 0 0 0 -4.50745,1.64431 26.4857,26.4857 0 0 0 -8.859,-1.64431 26.83725,26.83725 0 0 0 -19.60424,7.74582 25.7273,25.7273 0 0 0 -7.93727,18.99379 25.79656,25.79656 0 0 0 2.61481,11.50772 q 0.0435,0.08821 0.0894,0.17518 a 25.89442,25.89442 0 0 0 5.67133,7.18959 q 0.0566,0.05067 0.11426,0.1001 a 27.51622,27.51622 0 0 0 8.03961,4.52154 26.18652,26.18652 0 0 0 10.64783,1.71634 47.262,47.262 0 0 0 9.31256,-1.08238 q 0.0471,-0.0094 0.0939,-0.01943 a 42.36414,42.36414 0 0 0 8.3678,-2.87153 7,7 0 0 0 4.19452,-6.35728 l 0.0576,-7.19711 a 7.002,7.002 0 0 0 4.34961,-6.48034 v -0.98337 a 7.00319,7.00319 0 0 0 -4.63488,-6.59037 q 0.009,-0.18174 0.009,-0.366 v -13.0023 a 7,7 0 0 0 -7,-7 z m -17.611,21.44825 q 0.16773,-0.84139 0.39313,-1.65748 a 5.42833,5.42833 0 0 1 1.66223,-2.99587 3.35535,3.35535 0 0 1 2.33478,-0.68248 c 0.65112,0 0.71918,0 2.45813,1.34381 q 0.0466,0.036 0.0939,0.07129 a 7.54179,7.54179 0 0 1 2.029,2.43118 h -4.65386 a 6.97092,6.97092 0 0 0 -4.31733,1.48955 z m 2.08795,14.08168 c -0.11981,-0.07424 -0.2539,-0.16166 -0.4082,-0.26451 a 2.267,2.267 0 0 1 -1.19458,-1.46453 6.97159,6.97159 0 0 0 1.60278,0.77869 z"
       fill="#ffffff"
       id="path101" />
    <path
       d="m 530.25143,68.45728 c -8.03808,0 -14.3955,-2.65137 -18.8955,-7.88086 a 21.91125,21.91125 0 0 1 -5.40039,-14.73975 20.86875,20.86875 0 0 1 7.04687,-16.06689 22.81842,22.81842 0 0 1 15.915,-6.02588 q 0.5127,0 1.03418,0.01855 h 0.33594 c 0.17968,-0.0054 0.4414,-0.0088 0.70215,-0.0088 6.585,0 12.11035,2.01856 16.42285,5.99951 a 21.1448,21.1448 0 0 1 6.916,16.04688 22.27666,22.27666 0 0 1 -5.11914,14.41211 c -4.52832,5.47754 -10.88965,8.24512 -18.92187,8.24512 z m 0.0732,-35.65577 c -2.17871,0.023 -3.61231,0.958 -4.793,3.127 -0.83106,1.481 -1.7959,4.36279 -1.7959,9.9082 0,5.21729 0.88379,9.08643 2.55469,11.189 0.55468,0.69385 1.582,1.62793 3.99707,1.62793 a 5.19281,5.19281 0 0 0 2.90136,-0.77 c 0.87891,-0.58691 1.57911,-1.70605 2.30567,-3.65478 a 23.12652,23.12652 0 0 0 1.30957,-8.17334 c 0,-5.19092 -0.62891,-7.80371 -1.15625,-9.081 a 7.20434,7.20434 0 0 0 -2.25,-3.34571 5.48366,5.48366 0 0 0 -3.03711,-0.82715 l -0.0732,-3.5 z"
       fill="#231f20"
       id="path103" />
    <path
       d="m 528.91641,27.24387 c 0.32044,0 0.64466,0.0062 0.97095,0.01865 h 0.40063 c 0.23621,-0.0057 0.46991,-0.0086 0.70282,-0.0086 5.69336,0 10.40876,1.71162 14.04767,5.07108 a 17.66194,17.66194 0 0 1 5.79041,13.47527 18.73473,18.73473 0 0 1 -4.33362,12.201 q -5.73624,6.939 -16.20728,6.9564 h -0.0364 q -10.48929,0 -16.24378,-6.66453 a 18.43986,18.43986 0 0 1 -4.55261,-12.45648 17.4562,17.4562 0 0 1 5.90021,-13.47525 19.35,19.35 0 0 1 13.561,-5.11757 m 1.37162,34.90942 a 8.57926,8.57926 0 0 0 4.88038,-1.38348 c 1.639,-1.09264 2.69512,-2.87776 3.60571,-5.318 a 26.462,26.462 0 0 0 1.52966,-9.39662 c 0,-4.66188 -0.47351,-8.12188 -1.42041,-10.41639 a 10.30479,10.30479 0 0 0 -3.53284,-4.91633 8.9807,8.9807 0 0 0 -4.98968,-1.42091 h -0.0728 c -3.46,0.03641 -6.04589,1.67586 -7.8305,4.95375 -1.49329,2.65871 -2.22168,6.55526 -2.22168,11.58135 0,6.00946 1.05615,10.52566 3.31427,13.36651 a 8.16386,8.16386 0 0 0 6.73791,2.95008 m -1.37127,-41.90941 h -6e-5 a 26.22486,26.22486 0 0 0 -18.29167,6.95786 24.53052,24.53052 0 0 0 -8.1698,18.635 25.32839,25.32839 0 0 0 6.257,17.03432 c 5.186,6.0256 12.43622,9.08669 21.53937,9.08669 9.16162,0 16.42974,-3.195 21.63891,-9.49635 l 0.032,-0.03907 a 25.69016,25.69016 0 0 0 5.90637,-16.622 24.50657,24.50657 0 0 0 -8.01282,-18.59136 c -5.00854,-4.62414 -11.33246,-6.955 -18.82526,-6.955 -0.25976,0 -0.52032,0.0028 -0.7832,0.0086 h -0.195 q -0.55206,-0.01864 -1.09588,-0.01864 z m 1.40881,16.05772 h 0.0353 a 2.133,2.133 0 0 1 1.059,0.22083 4.86584,4.86584 0 0 1 0.94336,1.66334 q 0.0242,0.06195 0.0496,0.12341 c 0.26788,0.6492 0.891,2.70357 0.891,7.746 a 19.691,19.691 0 0 1 -1.0758,6.91705 6.78826,6.78826 0 0 1 -0.98023,1.99852 l -0.0365,0.02485 a 2.08683,2.08683 0 0 1 -0.92322,0.15764 c -1.01348,0 -1.20117,-0.23466 -1.27185,-0.323 -0.52569,-0.66141 -1.78033,-2.89789 -1.78033,-8.99359 0,-5.22989 0.92651,-7.44416 1.32489,-8.15342 l 0.0447,-0.0808 c 0.68951,-1.2664 1.08435,-1.29376 1.72015,-1.30088 z"
       fill="#ffffff"
       id="path105" />
    <path
       d="m 474.92819,68.13013 a 3.50049,3.50049 0 0 1 -3.5,-3.5 V 63.6106 a 3.50048,3.50048 0 0 1 3.5,-3.5 h 1.34766 a 5.14071,5.14071 0 0 0 0.71,-0.04395 c 0.0264,-0.34473 0.0508,-0.89355 0.0508,-1.7373 V 34.07251 c 0,-0.83154 -0.0107,-1.37207 -0.0234,-1.72314 a 4.0994,4.0994 0 0 0 -0.7373,-0.05713 h -1.34766 a 3.50017,3.50017 0 0 1 -3.5,-3.5 v -1.02 a 3.50017,3.50017 0 0 1 3.5,-3.5 H 508.144 a 3.50017,3.50017 0 0 1 3.5,3.5 v 10.88914 a 3.50017,3.50017 0 0 1 -3.5,3.5 h -1.09277 a 3.50033,3.50033 0 0 1 -3.41895,-2.75049 11.53014,11.53014 0 0 0 -1.35254,-3.82227 c 0.003,0.05323 0.004,0.10645 0.004,0.15967 v 19.30322 a 3.48343,3.48343 0 0 1 -0.51758,1.83252 7.91029,7.91029 0 0 0 2.80664,-4.36816 3.5,3.5 0 0 1 3.35254,-2.49414 h 1.09275 a 3.50013,3.50013 0 0 1 3.459,4.0332 l -1.71191,11.1084 a 3.49913,3.49913 0 0 1 -3.459,2.9668 z m 21.30567,-9.03907 a 5.73057,5.73057 0 0 0 3.24511,-0.60839 3.54223,3.54223 0 0 1 -0.69531,0.06933 h -1.12891 a 3.5006,3.5006 0 0 1 -3.48144,-3.14013 12.31436,12.31436 0 0 0 -0.59375,-2.81641 v 4.71435 c 0,0.794 0.0176,1.36915 0.0391,1.77832 0.0752,0.002 2.61524,0.0029 2.61524,0.0029 z m -2.6543,-20.69482 a 14.04644,14.04644 0 0 0 0.59277,-3 3.48775,3.48775 0 0 1 0.86426,-1.97021 c -0.27539,-0.0034 -1.457,-0.0049 -1.457,-0.0049 z"
       fill="#231f20"
       id="path107" />
    <path
       d="m 508.14389,27.7722 v 10.88937 h -1.09265 c -0.5827,-2.65873 -1.3476,-4.55262 -2.40381,-5.7171 a 8.77226,8.77226 0 0 0 -4.334,-2.55 25.42627,25.42627 0 0 0 -6.15516,-0.47347 h -4.07916 v 14.532 h 0.80127 a 4.84718,4.84718 0 0 0 4.62549,-2.22168 12.5824,12.5824 0 0 0 2.1488,-6.48293 h 1.129 V 55.0515 h -1.129 a 13.816,13.816 0 0 0 -1.45685,-5.17176 6.04629,6.04629 0 0 0 -2.62231,-2.69517 6.53822,6.53822 0 0 0 -3.4964,-0.692 v 10.817 a 13.62133,13.62133 0 0 0 0.29138,3.71493 2.1772,2.1772 0 0 0 1.01978,1.129 5.17357,5.17357 0 0 0 2.47662,0.43706 h 2.36737 c 3.67853,0 4.73474,-0.80126 6.95642,-2.40377 a 11.47,11.47 0 0 0 4.73468,-6.665 h 1.09264 l -1.71179,11.10788 H 474.928 v -1.01925 h 1.34759 a 6.03433,6.03433 0 0 0 2.768,-0.54629 2.44864,2.44864 0 0 0 1.16541,-1.31113 10.22144,10.22144 0 0 0 0.32776,-3.42359 V 34.07253 a 16.94632,16.94632 0 0 0 -0.14569,-3.05885 2.461,2.461 0 0 0 -1.09259,-1.45736 5.22969,5.22969 0 0 0 -3.023,-0.76433 H 474.928 V 27.7722 h 33.21594 m 0.87408,25.74963 h 0.005 M 508.14393,20.7722 H 474.928 a 7,7 0 0 0 -7,7 v 1.0198 a 7.0026,7.0026 0 0 0 5.60882,6.86177 v 21.0949 a 7.00258,7.00258 0 0 0 -5.60882,6.86176 v 1.01929 a 7,7 0 0 0 7,7 h 32.37823 a 7,7 0 0 0 6.91834,-5.93383 l 1.67743,-10.8852 a 7.00591,7.00591 0 0 0 -6.879,-8.28886 h -1.09766 a 6.992,6.992 0 0 0 -2.14166,0.3351 v -1.31047 a 7.0182,7.0182 0 0 0 1.26758,0.11511 h 1.09265 a 7,7 0 0 0 7,-7 V 27.7722 a 7,7 0 0 0 -7,-7 z"
       fill="#ffffff"
       id="path109" />
    <path
       d="m 468.69968,68.967 a 3.50187,3.50187 0 0 1 -2.583,-1.13769 L 444.15573,43.8147 V 58.22 a 3.617,3.617 0 0 0 0.20606,1.46875 3.127,3.127 0 0 0 1.68457,0.42188 h 0.98339 a 3.50048,3.50048 0 0 1 3.5,3.5 v 1.01953 a 3.50049,3.50049 0 0 1 -3.5,3.5 h -14.71386 a 3.50049,3.50049 0 0 1 -3.5,-3.5 V 63.6106 a 3.50048,3.50048 0 0 1 3.5,-3.5 5.89154,5.89154 0 0 0 2.39746,-0.33692 4.09139,4.09139 0 0 0 0.2207,-1.55371 V 33.58569 a 5.81468,5.81468 0 0 0 -1.23535,-1.13427 q -0.21827,-0.10108 -0.417,-0.21729 a 3.50017,3.50017 0 0 1 -2.86328,-3.44189 v -1.02 a 3.50017,3.50017 0 0 1 3.5,-3.5 h 13.11132 a 3.49888,3.49888 0 0 1 2.61036,1.16845 L 463.9614,41.4729 V 34.801 a 7.53883,7.53883 0 0 0 -0.21778,-2.19483 c -0.2041,-0.18066 -0.52441,-0.31592 -1.585,-0.31592 0,0 -0.21484,0.002 -0.2334,0.002 a 3.49979,3.49979 0 0 1 -3.5,-3.5 v -1.02 a 3.50017,3.50017 0 0 1 3.5,-3.5 h 12.34668 a 3.50017,3.50017 0 0 1 3.5,3.5 v 1.02 a 3.5,3.5 0 0 1 -3.13867,3.48144 4.58516,4.58516 0 0 0 -0.918,0.15039 c -0.0566,0.0249 -0.10449,0.05469 -0.1543,0.08155 -0.0498,0.02686 -0.10058,0.05419 -0.15136,0.081 l -0.0166,0.03369 0.001,-10e-4 a 9.19056,9.19056 0 0 0 -0.17383,2.18165 V 65.467 a 3.50048,3.50048 0 0 1 -3.5,3.5 z"
       fill="#231f20"
       id="path111" />
    <path
       d="M 474.27237,27.77221 V 28.792 a 5.35688,5.35688 0 0 0 -2.62232,0.76432 3.16323,3.16323 0 0 0 -1.42041,1.56661 9.48048,9.48048 0 0 0 -0.50988,3.678 V 65.46738 H 468.7 L 440.65585,34.80093 v 23.41869 c 0,2.11241 0.54633,3.53332 1.63892,4.29766 a 6.57519,6.57519 0 0 0 3.75134,1.09314 h 0.9834 v 1.01928 h -14.71405 v -1.01928 c 2.29449,0 3.8606,-0.437 4.77112,-1.2383 0.87408,-0.80127 1.34759,-2.18526 1.34759,-4.1525 V 32.21505 l -0.91052,-0.98286 a 8.19594,8.19594 0 0 0 -2.29455,-1.93082 c -0.692,-0.29138 -0.0728,-0.473 -1.3111,-0.50937 v -1.01979 h 13.11151 l 20.43213,22.87236 V 34.80093 c 0,-2.22117 -0.32776,-3.71441 -1.05615,-4.47976 -0.95026,-1.02014 -2.07019,-1.531 -4.24774,-1.531 -0.0759,0 -0.15351,6.2e-4 -0.23206,0.0019 v -1.01983 h 12.34668 m 0,-7 h -12.34668 a 7.00243,7.00243 0 0 0 -6.84106,5.50985 l -2.83472,-3.17329 a 7,7 0 0 0 -5.2204,-2.33656 H 433.918 a 7,7 0 0 0 -7,7 V 28.792 a 7.00306,7.00306 0 0 0 4.51617,6.54633 v 21.327 a 7.00129,7.00129 0 0 0 -6.11871,6.945 v 1.01937 a 7,7 0 0 0 7,7 h 14.71405 a 7,7 0 0 0 7,-7 v -1.01928 a 7.001,7.001 0 0 0 -6.37366,-6.97236 v -3.80993 l 15.87848,17.36321 a 6.99982,6.99982 0 0 0 5.16565,2.276 h 1.01978 a 7,7 0 0 0 7,-7 V 35.35147 a 7.00211,7.00211 0 0 0 4.55261,-6.55947 v -1.01979 a 7,7 0 0 0 -7,-7 z"
       fill="#ffffff"
       id="path113" />
    <path
       d="m 654.04636,68.45728 c -8.03809,0 -14.39649,-2.65137 -18.89649,-7.88086 a 21.91661,21.91661 0 0 1 -5.40039,-14.73975 20.86421,20.86421 0 0 1 7.04883,-16.06738 22.81612,22.81612 0 0 1 15.91406,-6.02539 c 0.34082,0 0.68653,0.0063 1.03418,0.01855 h 0.33692 c 0.17968,-0.0054 0.4414,-0.0088 0.70214,-0.0088 6.585,0 12.10938,2.01856 16.42188,5.99951 a 21.04643,21.04643 0 0 1 6.95312,16.04688 22.27725,22.27725 0 0 1 -5.12011,14.41113 c -4.57618,5.48242 -10.94532,8.2461 -18.957,8.2461 z m 0.0742,-35.65577 c -2.17871,0.023 -3.61328,0.9585 -4.79492,3.12745 -0.83008,1.48046 -1.79492,4.3623 -1.79492,9.90771 0,5.21729 0.88281,9.08643 2.55371,11.18945 0.55469,0.69336 1.582,1.62744 3.999,1.62744 a 5.18943,5.18943 0 0 0 2.90039,-0.77 c 0.8789,-0.58691 1.5791,-1.70605 2.30566,-3.65478 a 23.14546,23.14546 0 0 0 1.30957,-8.17334 c 0,-5.189 -0.62891,-7.80273 -1.15625,-9.082 a 7.22423,7.22423 0 0 0 -2.249,-3.34522 5.493,5.493 0 0 0 -3.03809,-0.82666 l -0.0723,-3.5 z"
       fill="#231f20"
       id="path115" />
    <path
       d="m 652.71146,27.24387 c 0.32043,0 0.64465,0.0062 0.971,0.01865 h 0.40064 c 0.23621,-0.0057 0.46991,-0.0086 0.70282,-0.0086 5.6933,1.8e-4 10.4082,1.71162 14.04712,5.07108 a 17.56922,17.56922 0 0 1 5.82733,13.47527 18.73544,18.73544 0 0 1 -4.334,12.201 c -3.86065,4.626 -9.251,6.9564 -16.24322,6.9564 h -0.037 q -10.4892,0 -16.24371,-6.66453 a 18.44232,18.44232 0 0 1 -4.55267,-12.45648 17.45639,17.45639 0 0 1 5.9002,-13.47525 19.35123,19.35123 0 0 1 13.56153,-5.11757 m 1.37164,34.90941 A 8.57772,8.57772 0 0 0 658.963,60.7698 c 1.63947,-1.09264 2.69562,-2.87776 3.60565,-5.318 a 26.46053,26.46053 0 0 0 1.53022,-9.39662 c 0,-4.66188 -0.474,-8.12188 -1.421,-10.41639 a 10.3075,10.3075 0 0 0 -3.53235,-4.91633 8.98169,8.98169 0 0 0 -4.98963,-1.42091 h -0.0728 c -3.46057,0.03641 -6.0459,1.67586 -7.83057,4.95375 -1.49377,2.65871 -2.22168,6.55526 -2.22168,11.58135 0,6.00946 1.05622,10.52566 3.31385,13.36651 a 8.16411,8.16411 0 0 0 6.7384,2.95008 m -1.37164,-41.90941 a 26.2268,26.2268 0 0 0 -18.29193,6.95777 24.531,24.531 0 0 0 -8.1698,18.635 25.33042,25.33042 0 0 0 6.25671,17.0339 c 5.18634,6.026 12.43652,9.08711 21.53967,9.08711 9.13642,0 16.40961,-3.18658 21.65454,-9.4712 l 0.053,-0.06429 a 25.69064,25.69064 0 0 0 5.90674,-16.62192 24.41825,24.41825 0 0 0 -8.07373,-18.61369 c -4.98431,-4.60158 -11.308,-6.93242 -18.80054,-6.93266 -0.25976,0 -0.52038,0.0028 -0.78338,0.0086 h -0.19507 q -0.55225,-0.01864 -1.09619,-0.01864 z m 1.40918,16.05772 h 0.0353 a 2.13363,2.13363 0 0 1 1.05829,0.22048 4.87156,4.87156 0 0 1 0.94348,1.66369 q 0.0242,0.062 0.0496,0.12354 c 0.26806,0.64953 0.89154,2.70453 0.89154,7.74592 a 19.68925,19.68925 0 0 1 -1.07636,6.91705 6.78923,6.78923 0 0 1 -0.97937,1.998 l -0.0383,0.02609 a 2.09257,2.09257 0 0 1 -0.92169,0.15693 c -1.014,0 -1.20166,-0.23459 -1.27228,-0.32289 -0.52533,-0.66109 -1.78,-2.898 -1.78,-8.9937 0,-5.23057 0.92621,-7.44381 1.32441,-8.15257 q 0.0229,-0.04062 0.0451,-0.08154 c 0.68958,-1.26651 1.08441,-1.29387 1.72028,-1.301 z"
       fill="#ffffff"
       id="path117" />
    <path
       d="m 598.72311,68.13013 a 3.5005,3.5005 0 0 1 -3.5,-3.5 V 63.6106 a 3.50049,3.50049 0 0 1 3.5,-3.5 h 1.34764 a 5.1407,5.1407 0 0 0 0.71,-0.04395 c 0.0264,-0.34473 0.0508,-0.89355 0.0508,-1.7373 V 34.07251 c 0,-0.83154 -0.0108,-1.37207 -0.0234,-1.72314 a 4.09949,4.09949 0 0 0 -0.73732,-0.05713 h -1.34764 a 3.50018,3.50018 0 0 1 -3.5,-3.5 v -1.02 a 3.50017,3.50017 0 0 1 3.5,-3.5 h 33.21582 a 3.50017,3.50017 0 0 1 3.5,3.5 v 10.88914 a 3.50017,3.50017 0 0 1 -3.5,3.5 h -1.09277 a 3.50031,3.50031 0 0 1 -3.41894,-2.75049 11.53038,11.53038 0 0 0 -1.35254,-3.82227 c 0.003,0.05323 0.004,0.10645 0.004,0.15967 v 19.30322 a 3.48953,3.48953 0 0 1 -0.5166,1.83155 7.90321,7.90321 0 0 0 2.80567,-4.36719 3.5,3.5 0 0 1 3.35253,-2.49414 h 1.0928 a 3.50013,3.50013 0 0 1 3.459,4.0332 l -1.712,11.1084 a 3.49913,3.49913 0 0 1 -3.459,2.9668 z m 21.30567,-9.03907 a 5.727,5.727 0 0 0 3.24414,-0.60839 3.53238,3.53238 0 0 1 -0.69434,0.06933 h -1.1289 a 3.5006,3.5006 0 0 1 -3.48145,-3.14013 12.28141,12.28141 0 0 0 -0.59473,-2.81934 v 4.71728 c 0,0.794 0.0176,1.36915 0.04,1.77832 0.0752,0.002 2.61528,0.0029 2.61528,0.0029 z M 617.3735,38.39771 a 13.99737,13.99737 0 0 0 0.59375,-3.00293 3.48486,3.48486 0 0 1 0.86426,-1.96875 c -0.27539,-0.0034 -1.458,-0.0049 -1.458,-0.0049 z"
       fill="#231f20"
       id="path119" />
    <path
       d="m 631.93893,27.7722 v 10.88937 h -1.09259 c -0.58325,-2.65873 -1.34759,-4.55262 -2.4038,-5.7171 a 8.77229,8.77229 0 0 0 -4.33405,-2.55 25.43156,25.43156 0 0 0 -6.15515,-0.47347 h -4.07965 v 14.532 h 0.80176 a 4.847,4.847 0 0 0 4.62542,-2.22168 12.59136,12.59136 0 0 0 2.14887,-6.48293 h 1.129 V 55.0515 h -1.129 a 13.82768,13.82768 0 0 0 -1.45685,-5.17176 6.0463,6.0463 0 0 0 -2.62232,-2.69517 6.54028,6.54028 0 0 0 -3.49688,-0.692 v 10.817 a 13.6126,13.6126 0 0 0 0.29187,3.71493 2.177,2.177 0 0 0 1.01977,1.129 5.17359,5.17359 0 0 0 2.47663,0.43706 h 2.36688 c 3.679,0 4.73523,-0.80126 6.95636,-2.40377 a 11.471,11.471 0 0 0 4.73523,-6.665 h 1.09265 l -1.71179,11.10788 H 598.723 v -1.01925 h 1.3476 a 6.03522,6.03522 0 0 0 2.76794,-0.54629 2.45281,2.45281 0 0 0 1.16553,-1.31116 10.237,10.237 0 0 0 0.32776,-3.42359 V 34.07253 a 16.94732,16.94732 0 0 0 -0.14569,-3.05885 2.46107,2.46107 0 0 0 -1.09259,-1.45736 5.23077,5.23077 0 0 0 -3.023,-0.76433 H 598.723 V 27.7722 h 33.21588 m 0.87415,25.74963 h 0.005 M 631.93888,20.7722 H 598.723 a 7,7 0 0 0 -7,7 v 1.0198 a 7.00267,7.00267 0 0 0 5.60883,6.86177 v 21.0949 a 7.00265,7.00265 0 0 0 -5.60883,6.86176 v 1.01929 a 7,7 0 0 0 7,7 h 32.37824 a 7,7 0 0 0 6.91833,-5.93383 l 1.67749,-10.88519 a 7.00591,7.00591 0 0 0 -6.879,-8.28886 h -1.09765 a 6.99022,6.99022 0 0 0 -2.14166,0.3351 v -1.31048 a 7.01456,7.01456 0 0 0 1.26757,0.11511 h 1.09259 a 7,7 0 0 0 7,-7 V 27.7722 a 7,7 0 0 0 -7,-7 z"
       fill="#ffffff"
       id="path121" />
    <path
       d="m 555.92819,53.052 a 7.08925,7.08925 0 1 1 0,-14.1748 h 0.21875 a 7.08927,7.08927 0 1 1 0,14.1748 z"
       fill="#231f20"
       id="path123" />
    <path
       d="m 556.14713,42.37706 a 3.591,3.591 0 1 1 0,7.17493 h -0.21906 a 3.591,3.591 0 1 1 0,-7.17493 h 0.21906 m 0,-7 h -0.21906 a 10.58871,10.58871 0 1 0 0,21.17493 h 0.21906 a 10.58871,10.58871 0 1 0 0,-21.17493 z"
       fill="#ffffff"
       id="path125" />
    <circle
       cx="375.3396"
       cy="57.00008"
       r="50.000149"
       transform="rotate(-37.95055,375.33957,57.000079)"
       id="circle127" />
    <path
       d="m 393.00285,24.00448 -7.999,11.66228 5.66795,12.3351 9.9972,12.66841 7.66615,2.664 9.67121,-11.66907 -1.33208,-9.99731 -10.004,-14.00041 z m 7.33335,28.65964 a 5.95067,5.95067 0 0 0 3.49667,0.69377 6.66344,6.66344 0 0 0 5.16823,-2.19243 c 1.08942,-1.58159 1.11743,-2.567 1.75537,-4.35667 a 6.542,6.542 0 0 1 0.83252,-1.64434 12.285,12.285 0 0 1 0.33316,3.08709 6.65241,6.65241 0 0 1 -0.91582,3.41364 c -1.33207,2.17139 -2.58772,3.00373 -3.50335,3.1704 -0.916,0.1663 -3.49667,0.49936 -5.16207,-0.24969 a 4.79208,4.79208 0 0 1 -2.00471,-1.92177 z m 0,-16.66431 1.33877,-1.99828 h 1.6654 a 15.43185,15.43185 0 0 1 1.41517,2.41464 9.85448,9.85448 0 0 1 -1.08239,1.92142 l -2.17162,-0.083 z m -5.66127,5.66806 a 4.02187,4.02187 0 0 1 -1.67208,-0.999 l 0.33314,-0.999 1.006,-0.666 a 3.74549,3.74549 0 0 1 1.33191,0.333 3.8668,3.8668 0 0 1 0.66611,1.332 l -0.74923,0.666 c 0,0 -0.16662,0.4993 -0.91585,0.333 z"
       fill="#f7b210"
       id="path129" />
    <path
       d="m 335.34373,60.33027 0.999,-26.6618 3.33028,-4.003 13.001,9.67139 3.33037,-19.75173 0.666,5.75133 1.67182,-3.00407 0.333,2.6711 2.33127,-3.00408 0.38853,35.0564 -18.71822,-14.389 c 0,0 -7.33305,17.49688 -7.33305,17.66346 z"
       fill="#f7b210"
       id="path131" />
    <path
       d="m 364.33643,20.33446 22.56142,-6.33408 a 46.73022,46.73022 0 0 0 -4.22495,2.67074 c 0.33279,0 2.99694,0.33306 2.99694,0.33306 l -5.32828,3.33028 5.99422,-0.333 -15.99834,9.33092 v 0.66639 L 387.6749,28.99941 370.33744,41.3349 v 3.66288 l 13.05706,-1.6094 c 0,0 -4.30842,2.44888 -4.052,2.28258 a 20.32669,20.32669 0 0 1 3.16368,-0.118 l -1.83144,1.11689 h 3.16351 l -19.16167,13.6604 z"
       fill="#f7b210"
       id="path133" />
    <path
       d="M 362.67138,70.66743 357.163,58.60957 a 12.549,12.549 0 0 0 -8.47094,-2.5599 c -1.19341,0.04165 -11.0518,0.11789 -11.68325,15.28371 -0.562,13.56319 8.478,19.97369 8.478,19.97369 0,0 4.3777,3.23289 7.61755,5.19639 3.23985,1.97 9.23409,4.82858 9.23409,4.82858 l -4.66226,-29.66588 -10.0041,2.99731 2.00507,0.33314 -3.337,2.671 2.99695,0.33281 -1.99794,1.9982 5.335,0.333 1.998,7.666 a 20.64917,20.64917 0 0 1 -7.48585,-4.67573 c -2.80246,-2.789 -5.05721,-7.33353 -5.18223,-10.98955 -0.11789,-3.65585 1.59557,-8.26976 6.66705,-8.33209 5.07853,-0.06238 14.00024,6.66718 14.00024,6.66718 z"
       fill="#1082ce"
       id="path135" />
    <path
       d="m 360.00742,78.99953 18.99537,-26.00237 12.002,9.67115 a 11.88046,11.88046 0 0 0 -1.66486,-0.333 47.58469,47.58469 0 0 0 2.664,3.99605 l -3.66307,-1.33226 1.998,2.664 -12.33519,-4.32883 -0.99891,0.99892 7.99912,13.33445 -16.3314,-0.66594 8.99841,17.33015 -3.33037,-0.66613 1.56812,3.92 -2.81682,-2.44916 2.24771,4.19731 z"
       fill="#1082ce"
       id="path137" />
    <path
       d="m 383.67165,82.32962 -0.3328,12.00221 5.33516,4.33606 9.39336,-1.97724 15.60293,-13.68787 0.9991,-17.00456 H 396.673 Z m 14.99968,-6.3274 -1.33242,-2.00469 1.33242,-2.66415 3.33678,-0.33316 0.99928,1.9982 -0.99928,2.671 z m 6.99984,1.6654 c 0,0 1.2141,-0.54127 1.33208,-0.33314 0.11781,0.20108 1.665,0.33314 1.665,0.33314 v 1.665 l -1.33207,0.99893 -1.66505,-0.99893 z m -17.33032,8.99806 0.9991,-1.665 2.99694,-1.33191 2.338,2.99695 h 1.998 l 2.66414,-0.9991 1.998,4.3292 -4.99503,2.33781 h -2.33785 l -0.99927,-1.99783 h -3.32993 z"
       fill="#1082ce"
       id="path139" />
    <g
       id="g16">
      <g
         id="g22">
        <path
           id="path24"
           d="m 630.70051,87.06542 h -27.68043 a 18.78373,18.78373 0 0 1 -2.87675,-0.18211 16.11589,16.11589 0 0 1 -2.51305,-0.50989 5.69007,5.69007 0 0 1 -2.40378,-1.23781 1.75577,1.75577 0 0 1 -0.65558,-1.27524 V 79.0528 a 2.524,2.524 0 0 1 0.8741,-1.27473 5.73008,5.73008 0 0 1 1.8939,-0.91052 17.24533,17.24533 0 0 1 2.65873,-0.5099 29.9536,29.9536 0 0 1 3.24146,-0.1821 h 27.4614 v 1.45684 h -27.4614 a 26.35982,26.35982 0 0 0 -3.09578,0.14568 18.63572,18.63572 0 0 0 -2.54947,0.50939 c -1.09263,0.32829 -1.31115,0.72892 -1.52968,1.27524 l -0.0364,1.12854 h 34.63633 l 0.0364,1.49377 h -34.63633 v 1.5661 c 0,0.40063 0.29137,0.80126 1.7477,1.20189 a 19.72587,19.72587 0 0 0 2.44071,0.43756 17.26955,17.26955 0 0 0 2.73157,0.1816 h 27.71635 z"
           fill="#231f20" />
      </g>
      <g
         id="g30">
        <path
           id="path32"
           d="M 590.20067,77.70528 H 572.755 v 9.36019 h -1.53018 V 77.70528 H 553.81563 V 76.1756 h 36.385 z"
           fill="#231f20" />
      </g>
      <g
         id="g34">
        <path
           id="path36"
           d="M 503.19059,82.54937 H 493.102 v 4.5162 h -1.52968 v -4.5162 h -13.0387 c -1.96674,0 -4.40644,-0.25545 -4.40644,-3.16913 v -3.205 h 1.602 v 3.05987 c 0,1.93031 1.85747,1.7477 3.05936,1.7477 h 27.425 c 1.23831,0 3.09578,0.18261 3.09578,-1.7477 v -3.05992 h 1.52968 v 3.20505 c 0,2.91368 -2.4402,3.16913 -4.40693,3.16913 z"
           fill="#231f20" />
      </g>
      <g
         id="g38">
        <path
           id="path40"
           d="m 470.19326,77.74135 h -29.13677 a 9.83667,9.83667 0 0 0 -3.71494,0.65608 c -0.72842,0.29137 -1.16547,0.61916 -1.16547,0.91052 0,0.29136 0.437,0.61865 1.16547,0.91 a 10.65938,10.65938 0 0 0 3.71494,0.61966 h 22.72668 a 12.81511,12.81511 0 0 1 3.02294,0.32729 10.42636,10.42636 0 0 1 1.27473,0.40113 9.28089,9.28089 0 0 1 1.05621,0.54632 2.30636,2.30636 0 0 1 1.09263,1.82054 v 0.03693 c 0,0.98336 -0.83768,1.82054 -2.14884,2.36685 a 12.30147,12.30147 0 0 1 -4.29767,0.72893 H 435.047 V 85.499 h 28.73614 a 10.68473,10.68473 0 0 0 3.71494,-0.61865 c 0.692,-0.32779 1.16547,-0.65608 1.16547,-0.91052 V 83.9329 c 0,-0.14518 -0.18211,-0.32728 -0.43706,-0.50989 -0.21852,-0.14569 -0.47347,-0.25444 -0.72841,-0.40063 -0.32779,-0.10876 -0.65558,-0.218 -1.05621,-0.32729 a 11.64525,11.64525 0 0 0 -2.65873,-0.29136 H 441.05649 A 11.50622,11.50622 0 0 1 436.75882,81.6748 C 435.44766,81.129 434.61,80.29132 434.61,79.308 c 0,-1.02029 0.83768,-1.85746 2.14884,-2.40378 a 12.28992,12.28992 0 0 1 4.29767,-0.72892 h 29.13677 z"
           fill="#231f20" />
      </g>
      <g
         id="g42">
        <path
           id="path44"
           d="m 550.137,77.74135 h -29.09983 a 9.83667,9.83667 0 0 0 -3.71494,0.65608 c -0.72842,0.29137 -1.16547,0.61916 -1.16547,0.91052 0,0.29136 0.437,0.61865 1.16547,0.91 a 10.65938,10.65938 0 0 0 3.71494,0.61966 h 22.72617 a 12.28806,12.28806 0 0 1 2.987,0.32729 10.41755,10.41755 0 0 1 1.27422,0.40113 9.29146,9.29146 0 0 1 1.05672,0.54632 h -0.0364 a 2.26069,2.26069 0 0 1 1.12854,1.82054 v 0.03693 c 0,0.98336 -0.83768,1.82054 -2.14884,2.36685 a 12.08222,12.08222 0 0 1 -4.26125,0.72893 h -28.7356 V 85.499 h 28.73563 a 10.09972,10.09972 0 0 0 3.6426,-0.61865 c 0.72792,-0.32779 1.20189,-0.65608 1.20189,-0.91052 V 83.9329 c 0,-0.14518 -0.1821,-0.32728 -0.437,-0.50989 -0.21852,-0.14569 -0.47347,-0.25444 -0.72842,-0.40063 -0.32778,-0.10876 -0.65557,-0.218 -1.01978,-0.32729 a 11.64658,11.64658 0 0 0 -2.65924,-0.29136 h -22.72622 a 11.50624,11.50624 0 0 1 -4.29768,-0.72893 c -1.31115,-0.54581 -2.14883,-1.38349 -2.14883,-2.36686 0,-1.02029 0.80126,-1.85746 2.14883,-2.40378 a 12.29,12.29 0 0 1 4.29768,-0.72892 H 550.137 Z"
           fill="#231f20" />
      </g>
      <g
         id="g46">
        <path
           id="path48"
           d="m 671.56493,76.1754 a 0.77641,0.77641 0 0 1 0.80126,0.76484 v 10.125 h -1.49326 v -8.77743 l -16.53511,8.3404 -0.21853,0.07335 a 1.7952,1.7952 0 0 1 -1.82155,0 l -0.218,-0.10977 -16.38996,-8.33989 v 8.81337 h -1.5661 V 76.90382 a 0.7365,0.7365 0 0 1 0.76484,-0.72842 0.83772,0.83772 0 0 1 0.5104,0.14568 l 17.0445,8.778 c 0.65558,0.29137 0.76535,0.43655 1.56661,0.03642 l 15.07777,-7.68482 2.14934,-1.16547 a 0.68565,0.68565 0 0 1 0.32779,-0.10977"
           fill="#231f20" />
      </g>
      <g
         id="g50">
        <path
           id="path52"
           d="m 596.4284,26.93436 v 13.00228 h -1.01979 A 16.15585,16.15585 0 0 0 589.946,31.8517 c -2.40429,-1.858 -3.86112,-2.80492 -6.73838,-2.80492 a 10.32651,10.32651 0 0 0 -6.84714,2.33094 12.52482,12.52482 0 0 0 -3.897,6.48293 31.83719,31.83719 0 0 0 -1.12855,8.5225 31.02588,31.02588 0 0 0 1.23781,9.28785 9.15911,9.15911 0 0 0 4.04273,5.35388 9.43512,9.43512 0 0 0 5.90019,1.857 13.908,13.908 0 0 0 2.73157,-0.25444 20.2777,20.2777 0 0 0 2.65823,-0.83819 v -9.39664 a 8.94591,8.94591 0 0 0 -0.29086,-2.84083 2.91816,2.91816 0 0 0 -1.23832,-1.129 4.45989,4.45989 0 0 0 -2.29452,-0.54632 h -0.94694 V 46.8931 h 17.91911 v 0.98336 a 8.03637,8.03637 0 0 0 -2.84134,0.58274 2.59327,2.59327 0 0 0 -1.23781,1.384 9.7656,9.7656 0 0 0 -0.25494,2.54947 l -0.0729,9.10524 a 35.66956,35.66956 0 0 1 -7.02924,2.44021 40.47257,40.47257 0 0 1 -7.93977,0.94644 c -3.49641,0 -5.71809,-0.25444 -8.01261,-1.20139 a 21.11272,21.11272 0 0 1 -6.11923,-3.35123 18.83422,18.83422 0 0 1 -4.15148,-5.24412 18.68167,18.68167 0 0 1 -1.89396,-8.41382 18.88884,18.88884 0 0 1 5.86377,-14.021 20.01307,20.01307 0 0 1 14.67765,-5.7186 21.14344,21.14344 0 0 1 7.612,1.63895 15.18425,15.18425 0 0 0 3.16862,1.01978 2.08541,2.08541 0 0 0 1.384,-0.54631 4.78828,4.78828 0 0 0 1.20189,-2.11242 z"
           fill="#231f20" />
      </g>
      <g
         id="g54">
        <path
           id="path56"
           d="m 530.288,29.30157 c -3.46,0.03643 -6.04587,1.67587 -7.8305,4.95376 -1.49326,2.65873 -2.22168,6.55527 -2.22168,11.58136 0,6.00946 1.05621,10.52566 3.31431,13.36649 a 8.16381,8.16381 0 0 0 6.73787,2.9501 v 2.80441 h -0.0364 q -10.48923,0 -16.24374,-6.66453 a 18.43991,18.43991 0 0 1 -4.55262,-12.45647 17.45618,17.45618 0 0 1 5.90019,-13.47525 19.54962,19.54962 0 0 1 14.532,-5.09893 h 0.40063 z m 0.0729,0 h -0.0729 v -2.03906 c 6.00946,-0.14569 10.96271,1.56559 14.75049,5.06251 a 17.66184,17.66184 0 0 1 5.79043,13.47525 18.735,18.735 0 0 1 -4.33359,12.201 q -5.7363,6.939 -16.20733,6.9564 v -2.80439 a 8.57926,8.57926 0 0 0 4.88041,-1.38349 c 1.63895,-1.09263 2.69515,-2.87776 3.60568,-5.318 a 26.46184,26.46184 0 0 0 1.52968,-9.39661 c 0,-4.66188 -0.47348,-8.12187 -1.42042,-10.41639 a 10.30479,10.30479 0 0 0 -3.53283,-4.91632 8.98055,8.98055 0 0 0 -4.98967,-1.42093"
           fill="#231f20" />
      </g>
      <g
         id="g58">
        <path
           id="path60"
           d="m 490.0791,29.921 v 14.532 h 0.80126 a 4.84711,4.84711 0 0 0 4.62546,-2.22168 12.58212,12.58212 0 0 0 2.14884,-6.48293 h 1.12905 v 19.3031 h -1.12905 a 13.81743,13.81743 0 0 0 -1.45684,-5.17177 6.04653,6.04653 0 0 0 -2.62231,-2.69515 6.53829,6.53829 0 0 0 -3.49641,-0.692 v 10.817 a 13.623,13.623 0 0 0 0.29136,3.71494 2.17719,2.17719 0 0 0 1.01979,1.129 5.17361,5.17361 0 0 0 2.47663,0.437 h 2.36736 c 3.67851,0 4.73472,-0.80126 6.9564,-2.40378 a 11.47013,11.47013 0 0 0 4.73473,-6.665 H 509.018 L 507.30621,64.6297 H 474.928 v -1.01928 h 1.34757 a 6.03383,6.03383 0 0 0 2.768,-0.54631 2.44851,2.44851 0 0 0 1.16543,-1.31111 10.22041,10.22041 0 0 0 0.32779,-3.42357 V 34.07252 a 16.94693,16.94693 0 0 0 -0.14568,-3.05886 2.461,2.461 0 0 0 -1.09263,-1.45734 5.22947,5.22947 0 0 0 -3.02294,-0.76434 H 474.928 V 27.7722 h 33.21591 v 10.88936 h -1.09263 c -0.58273,-2.65873 -1.34757,-4.55262 -2.40378,-5.71708 a 8.77213,8.77213 0 0 0 -4.33409,-2.55 25.42485,25.42485 0 0 0 -6.15515,-0.47348 z"
           fill="#231f20" />
      </g>
      <g
         id="g62">
        <path
           id="path64"
           d="m 447.02953,27.77219 20.43215,22.87237 V 34.80093 c 0,-2.22117 -0.32779,-3.71443 -1.05621,-4.47977 -0.98336,-1.05571 -2.14883,-1.56611 -4.47977,-1.52918 v -1.01979 h 12.3467 V 28.792 a 5.35651,5.35651 0 0 0 -2.62231,0.76434 3.163,3.163 0 0 0 -1.42041,1.5666 9.4797,9.4797 0 0 0 -0.5099,3.678 V 65.46738 H 468.7 L 440.65586,34.80093 v 23.41868 c 0,2.11241 0.54631,3.53334 1.63894,4.29767 a 6.57526,6.57526 0 0 0 3.75136,1.09314 h 0.98337 v 1.01928 h -14.71407 v -1.01928 c 2.29452,0 3.86062,-0.437 4.77115,-1.23832 0.8741,-0.80126 1.34757,-2.18525 1.34757,-4.15249 V 32.21505 l -0.91052,-0.98286 a 8.196,8.196 0 0 0 -2.29452,-1.93082 c -0.692,-0.29137 -0.0728,-0.473 -1.31116,-0.50939 v -1.01979 z"
           fill="#231f20" />
      </g>
      <g
         id="g66">
        <path
           id="path68"
           d="m 654.08307,29.30157 c -3.46049,0.03643 -6.04587,1.67587 -7.8305,4.95376 -1.49377,2.65873 -2.22168,6.55527 -2.22168,11.58136 0,6.00946 1.05621,10.52566 3.3138,13.36649 a 8.16416,8.16416 0 0 0 6.73839,2.9501 v 2.80441 h -0.0369 q -10.48925,0 -16.24375,-6.66453 A 18.44241,18.44241 0 0 1 633.24978,45.83669 17.45616,17.45616 0 0 1 639.15,32.36144 19.55006,19.55006 0 0 1 653.68247,27.26251 h 0.40062 z m 0.0729,0 h -0.0729 v -2.03906 c 6.00946,-0.14569 10.96221,1.56559 14.75,5.06251 a 17.56916,17.56916 0 0 1 5.82735,13.47525 18.73543,18.73543 0 0 1 -4.33409,12.201 c -3.86063,4.626 -9.25093,6.9564 -16.24325,6.9564 v -2.80439 a 8.57761,8.57761 0 0 0 4.87991,-1.38349 c 1.63945,-1.09263 2.69565,-2.87776 3.60567,-5.318 a 26.46049,26.46049 0 0 0 1.53019,-9.39661 c 0,-4.66188 -0.474,-8.12187 -1.42093,-10.41639 a 10.30748,10.30748 0 0 0 -3.53232,-4.91632 8.98174,8.98174 0 0 0 -4.98967,-1.42093"
           fill="#231f20" />
      </g>
      <g
         id="g70">
        <path
           id="path72"
           d="m 613.87368,29.921 v 14.532 h 0.80177 a 4.8471,4.8471 0 0 0 4.62546,-2.22168 12.59128,12.59128 0 0 0 2.14884,-6.48293 h 1.12905 v 19.3031 h -1.12905 a 13.82674,13.82674 0 0 0 -1.45684,-5.17177 6.04648,6.04648 0 0 0 -2.62231,-2.69515 6.54033,6.54033 0 0 0 -3.49692,-0.692 v 10.817 a 13.61328,13.61328 0 0 0 0.29188,3.71494 2.17711,2.17711 0 0 0 1.01979,1.129 5.17356,5.17356 0 0 0 2.47662,0.437 h 2.36686 c 3.679,0 4.73523,-0.80126 6.9564,-2.40378 a 11.47075,11.47075 0 0 0 4.73523,-6.665 h 1.09263 L 631.1013,64.6297 h -32.37823 v -1.01928 h 1.34758 a 6.03531,6.03531 0 0 0 2.768,-0.54631 2.45249,2.45249 0 0 0 1.16547,-1.31116 10.23483,10.23483 0 0 0 0.32779,-3.42357 V 34.07252 a 16.94554,16.94554 0 0 0 -0.14569,-3.05886 2.461,2.461 0 0 0 -1.09263,-1.45734 5.23054,5.23054 0 0 0 -3.02293,-0.76434 h -1.34758 V 27.7722 H 631.939 v 10.88936 h -1.09262 c -0.58324,-2.65873 -1.34758,-4.55262 -2.40379,-5.71708 a 8.77208,8.77208 0 0 0 -4.33409,-2.55 25.43036,25.43036 0 0 0 -6.15514,-0.47348 z"
           fill="#231f20" />
      </g>
      <g
         id="g74">
        <path
           id="path76"
           d="m 555.92809,42.377 h 0.219 a 3.591,3.591 0 1 1 0,7.17493 h -0.219 a 3.591,3.591 0 1 1 0,-7.17493"
           fill="#231f20" />
      </g>
    </g>
  </g>
  <metadata
     id="metadata990">
    <rdf:RDF>
      <cc:Work
         rdf:about="">
        <dc:title>logo</dc:title>
      </cc:Work>
    </rdf:RDF>
  </metadata>
</svg>
