<?xml version="1.0" encoding="UTF-8" standalone="no"?>
<svg
   viewBox="0 0 351.01645 113.99997"
   version="1.1"
   id="svg107"
   sodipodi:docname="ngp.svg"
   width="351.01645"
   height="113.99997"
   inkscape:version="1.1 (c68e22c387, 2021-05-23)"
   xmlns:inkscape="http://www.inkscape.org/namespaces/inkscape"
   xmlns:sodipodi="http://sodipodi.sourceforge.net/DTD/sodipodi-0.dtd"
   xmlns="http://www.w3.org/2000/svg"
   xmlns:svg="http://www.w3.org/2000/svg"
   xmlns:rdf="http://www.w3.org/1999/02/22-rdf-syntax-ns#"
   xmlns:cc="http://creativecommons.org/ns#"
   xmlns:dc="http://purl.org/dc/elements/1.1/">
  <defs
     id="defs111" />
  <sodipodi:namedview
     id="namedview109"
     pagecolor="#ffffff"
     bordercolor="#666666"
     borderopacity="1.0"
     inkscape:pageshadow="2"
     inkscape:pageopacity="0.0"
     inkscape:pagecheckerboard="0"
     showgrid="false"
     fit-margin-top="0"
     fit-margin-left="0"
     fit-margin-right="0"
     fit-margin-bottom="0"
     inkscape:zoom="1.113"
     inkscape:cx="175.65139"
     inkscape:cy="56.603774"
     inkscape:window-width="1920"
     inkscape:window-height="1138"
     inkscape:window-x="-8"
     inkscape:window-y="-8"
     inkscape:window-maximized="1"
     inkscape:current-layer="svg107" />
  <title
     id="title2">logo</title>
  <g
     id="Layer_2"
     data-name="Layer 2"
     transform="translate(-324.48941)">
    <rect
       x="386.00528"
       y="81.304321"
       width="15.11111"
       height="15.11111"
       stroke-width="7"
       stroke="#ffffff"
       stroke-linecap="round"
       stroke-linejoin="round"
       fill="#ffffff"
       id="rect4" />
    <rect
       x="471.78308"
       y="83.748756"
       width="13.55556"
       height="11.55556"
       stroke-width="7"
       stroke="#ffffff"
       stroke-linecap="round"
       stroke-linejoin="round"
       fill="#ffffff"
       id="rect6" />
    <rect
       x="468.67197"
       y="80.859871"
       width="20.634489"
       height="20.634489"
       stroke-width="7"
       stroke="#ffffff"
       stroke-linecap="round"
       stroke-linejoin="round"
       fill="#ffffff"
       id="rect8" />
    <rect
       x="543.24219"
       y="80.859871"
       width="12.31869"
       height="15.55556"
       stroke-width="7"
       stroke="#ffffff"
       stroke-linecap="round"
       stroke-linejoin="round"
       fill="#ffffff"
       id="rect10" />
    <rect
       x="574.44977"
       y="81.304321"
       width="16"
       height="18.222219"
       stroke-width="7"
       stroke="#ffffff"
       stroke-linecap="round"
       stroke-linejoin="round"
       fill="#ffffff"
       id="rect12" />
    <rect
       x="518.44977"
       y="81.304321"
       width="19.33333"
       height="19.33333"
       stroke-width="7"
       stroke="#ffffff"
       stroke-linecap="round"
       stroke-linejoin="round"
       fill="#ffffff"
       id="rect14" />
    <rect
       x="533.8125"
       y="99.526543"
       width="11.09816"
       height="5.9265099"
       stroke-width="7"
       stroke="#ffffff"
       stroke-linecap="round"
       stroke-linejoin="round"
       fill="#ffffff"
       id="rect16" />
    <rect
       x="644.69977"
       y="90.415428"
       width="8.5972204"
       height="8.5972204"
       fill="#ffffff"
       id="rect18" />
  </g>
  <g
     id="Calque_1"
     data-name="Calque 1"
     transform="translate(-324.48941)">
    <path
       d="m 392.71485,75.74405 a 10.73617,10.73617 0 0 1 9.02472,4.7749 15.39643,15.39643 0 0 1 2.33069,9.0199 15.16779,15.16779 0 0 1 -2.15356,8.486 10.74853,10.74853 0 0 1 -9.2208,5.17313 10.285,10.285 0 0 1 -9.08328,-5.28611 16.56484,16.56484 0 0 1 0.0461,-17.03094 10.25552,10.25552 0 0 1 9.05609,-5.13684 m 0,-7 a 17.15321,17.15321 0 0 0 -15.14419,8.68213 23.51952,23.51952 0 0 0 -0.0603,23.91525 17.20309,17.20309 0 0 0 15.18556,8.85651 17.69371,17.69371 0 0 0 15.19046,-8.51758 22.02663,22.02663 0 0 0 3.18506,-12.17593 22.1081,22.1081 0 0 0 -3.48708,-12.83759 17.72861,17.72861 0 0 0 -14.86949,-7.92279 z"
       fill="#ffffff"
       id="path21" />
    <path
       d="m 478.046,75.82837 a 10.46583,10.46583 0 0 1 9.88153,6.42319 17.645,17.645 0 0 1 1.37836,7.25134 15.03753,15.03753 0 0 1 -2.86457,9.523 10.72429,10.72429 0 0 1 -17.1336,-0.28235 c -3.57556,-4.98224 -3.4242,-13.80188 0.1001,-18.81488 a 10.58288,10.58288 0 0 1 8.63818,-4.10025 m 0,-7 a 17.41666,17.41666 0 0 0 -14.36337,7.0726 c -5.28974,7.52423 -5.317,19.60144 -0.0619,26.92392 a 17.706,17.706 0 0 0 14.3688,7.33506 17.50891,17.50891 0 0 0 14.00559,-6.87329 21.72116,21.72116 0 0 0 4.31079,-13.76733 24.40785,24.40785 0 0 0 -1.95511,-10.05017 17.50317,17.50317 0 0 0 -16.30484,-10.64087 z"
       fill="#ffffff"
       id="path23" />
    <path
       d="m 548.12538,75.7785 a 10.72438,10.72438 0 0 1 9.02935,4.76871 15.51948,15.51948 0 0 1 2.305,8.92743 15.1578,15.1578 0 0 1 -2.30762,8.79657 10.715,10.715 0 0 1 -17.79846,0.28748 c -3.39075,-4.91291 -3.34711,-13.48615 0.0925,-18.37854 a 10.49994,10.49994 0 0 1 8.67926,-4.40165 m 0,-7 a 17.57363,17.57363 0 0 0 -14.40686,7.37744 c -5.10029,7.25455 -5.15735,19.08884 -0.126,26.37891 a 17.715,17.715 0 0 0 29.44812,-0.47876 22.10055,22.10055 0 0 0 3.419,-12.66522 22.19593,22.19593 0 0 0 -3.45564,-12.68894 17.71161,17.71161 0 0 0 -14.87863,-7.92346 z"
       fill="#ffffff"
       id="path25" />
    <path
       d="m 657.55293,108.44418 a 7.6093,7.6093 0 0 1 -2.25684,-0.33984 3.94608,3.94608 0 0 1 -2.68555,-4.46289 l 10e-4,-0.004 10e-4,0.0215 q -0.0103,-5.20752 -0.006,-10.41016 v -2.61914 q 0,-1.71972 -0.008,-3.43848 c -0.008,-2.31054 -0.0156,-4.68066 0.009,-7.05078 0,0 -2.39843,-0.01367 -2.86718,-0.01367 -0.6377,0 -1.27539,0.0068 -1.91309,0.0293 -0.041,0.001 -0.18164,0.0039 -0.22266,0.0039 a 4.26559,4.26559 0 0 1 -4.44726,-4.543 l -0.004,-0.15527 a 4.65455,4.65455 0 0 1 1.1543,-3.56543 4.50839,4.50839 0 0 1 3.4082,-1.34765 c 3.36328,0.0205 6.68067,0.0332 9.999,0.0332 q 4.87061,0 9.74218,-0.03809 a 4.264,4.264 0 0 1 4.52637,4.749 l -0.002,0.24218 a 4.45654,4.45654 0 0 1 -1.17285,3.36328 4.32947,4.32947 0 0 1 -3.20508,1.2627 c 0,0 -0.166,-0.0029 -0.2041,-0.0039 -0.74805,-0.02441 -1.4961,-0.03125 -2.24414,-0.03125 l -2.65039,0.0098 c 0.0225,8.125 0.0127,16.207 0,23.25391 a 4.05621,4.05621 0 0 1 -2.73731,4.72363 7.49666,7.49666 0 0 1 -2.2148,0.33111 z"
       fill="#5e5f5f"
       id="path27" />
    <path
       d="m 667.50947,74.04364 c 1.09012,0 0.98557,0.5972 0.971,1.29337 -0.0137,0.65023 0.17535,1.32321 -0.8776,1.32321 -0.0285,0 -0.058,-4.9e-4 -0.0884,-0.0015 -0.78424,-0.02588 -1.56894,-0.033 -2.354,-0.033 -0.97137,0 -1.94312,0.011 -2.91455,0.011 -0.67969,0 -1.35935,-0.0054 -2.03851,-0.02359 q -0.052,-0.0014 -0.10117,-0.0014 c -0.90024,0 -1.11209,0.3544 -1.1088,1.25312 q 0.0472,12.82169 0.007,25.64361 c -7.9e-4,0.43347 0.26611,1.09436 -0.27533,1.26215 a 3.98382,3.98382 0 0 1 -1.17517,0.174 4.12141,4.12141 0 0 1 -1.22016,-0.18335 c -0.40026,-0.1247 -0.22039,-0.68579 -0.22119,-1.05328 q -0.0135,-6.53907 -0.006,-13.07825 c 0,-4.18848 -0.0525,-8.37805 0.0323,-12.56482 0.0235,-1.15817 -0.33081,-1.45877 -1.30932,-1.45877 q -0.0981,0 -0.20459,0.0039 c -0.67768,0.02405 -1.35559,0.03107 -2.03412,0.03107 -0.95252,0 -1.90564,-0.01385 -2.85819,-0.01385 -0.67685,0 -1.35373,0.007 -2.02975,0.03094 -0.034,0.0012 -0.0666,0.0018 -0.0984,0.0018 -1.074,0 -0.9173,-0.67889 -0.95636,-1.38986 -0.0444,-0.81036 0.106,-1.2218 1.06976,-1.22174 l 0.0214,6e-5 q 4.9947,0.03117 9.98916,0.03278 4.87794,0 9.75614,-0.03736 l 0.0243,-9e-5 m 0,-7 -0.0774,3.1e-4 c -3.09668,0.02465 -6.36038,0.03714 -9.70313,0.03714 q -4.973,0 -9.94546,-0.03266 l -0.0651,-1.8e-4 a 7.93024,7.93024 0 0 0 -5.95175,2.44162 8.01537,8.01537 0 0 0 -2.10953,6.12521 l 10e-4,0.06476 a 7.71863,7.71863 0 0 0 7.94659,7.98 c 0.11212,0 0.22739,-0.002 0.34723,-0.0062 0.34558,-0.01224 0.71673,-0.02005 1.13885,-0.02384 -1.5e-4,1.19394 0.004,2.37912 0.008,3.54883 q 0.006,1.72554 0.008,3.451 l -2.8e-4,2.714 q -7.4e-4,5.06648 0.006,10.13263 a 7.45446,7.45446 0 0 0 5.13977,7.96817 11.093,11.093 0 0 0 3.302,0.50012 10.95656,10.95656 0 0 0 3.24765,-0.48782 7.508,7.508 0 0 0 5.20343,-8.272 c 0.0104,-5.99511 0.0194,-12.72452 0.008,-19.5553 0.46948,0.0044 0.88452,0.01279 1.27093,0.02555 q 0.1647,0.0054 0.31909,0.0053 a 7.69017,7.69017 0 0 0 7.878,-8.20859 l -4.5e-4,-0.021 8.5e-4,-0.0296 a 7.744,7.744 0 0 0 -7.9718,-8.35739 z"
       fill="#ffffff"
       id="path29" />
    <path
       d="m 644.215,108.39828 q -4.38429,-0.0454 -8.76368,-0.0439 -4.50293,0 -9.0039,0.0391 h -10e-4 a 4.73447,4.73447 0 0 1 -3.53418,-1.30273 4.82245,4.82245 0 0 1 -1.2666,-3.544 c 0.0361,-3.4248 0.0303,-6.85058 0.0244,-10.27734 l -0.004,-3.79492 0.003,-3.78907 c 0.004,-3.47461 0.008,-6.94824 -0.0186,-10.42285 a 4.67318,4.67318 0 0 1 1.249,-3.43457 4.52357,4.52357 0 0 1 3.34863,-1.27734 c 3.00195,0.01953 5.94824,0.03125 8.89551,0.03125 q 4.27442,0 8.5498,-0.03613 h 10e-4 c 1.11523,0 4.54492,0.34277 4.65527,4.72851 a 4.74147,4.74147 0 0 1 -1.22851,3.57715 4.54466,4.54466 0 0 1 -3.39161,1.30664 c -2.03125,-0.02246 -3.9746,-0.02637 -5.91894,-0.02637 l -3.38086,0.002 q -1.44434,0 -2.88965,-0.0049 c 0.0146,1.32618 0.0156,2.67871 10e-4,4.04981 0.6875,-0.002 5.4414,-10e-4 5.4414,-10e-4 1.77051,0 3.541,-0.0049 5.31055,-0.03027 h 0.10938 a 4.66289,4.66289 0 0 1 3.46191,1.30469 4.80239,4.80239 0 0 1 1.26465,3.53906 4.43371,4.43371 0 0 1 -4.69336,4.77539 l -0.126,-0.001 c -1.62695,-0.02441 -3.25879,-0.02929 -4.89062,-0.02929 l -3.73633,0.0029 q -1.07373,0 -2.14844,-0.0039 0.0264,2.56494 10e-4,5.07617 c 1.30859,-0.0068 2.61035,-0.0078 3.91211,-0.0078 l 2.78906,0.001 c 1.9668,0 3.93555,-0.0029 5.90234,-0.02148 h 0.0352 a 4.78377,4.78377 0 0 1 3.59375,1.35059 4.65529,4.65529 0 0 1 1.2041,3.56543 c -0.17578,4.35937 -3.62988,4.69921 -4.68554,4.69921 z"
       fill="#5e5f5f"
       id="path31" />
    <path
       d="m 643.756,74.04523 c 1.06693,6e-5 1.07477,0.51638 1.09512,1.32724 0.0201,0.87222 -0.12384,1.28622 -1.124,1.28622 l -0.0466,-2.7e-4 c -1.965,-0.02213 -3.92969,-0.0261 -5.89532,-0.0261 q -1.64631,0 -3.29285,0.0013 c -1.72586,0 -3.45245,-0.0031 -5.17847,-0.0188 l -0.0583,-3.1e-4 c -0.94123,0 -1.281,0.25232 -1.25586,1.28119 0.0718,2.862 0.0667,5.72919 0.003,8.59119 -0.0228,0.98172 0.32172,1.2066 1.21143,1.2066 l 0.0463,-1.8e-4 c 1.45468,-0.01456 2.90857,-0.0177 4.36325,-0.0177 q 1.65258,0 3.30566,0.0018 c 1.80469,0 3.60962,-0.0048 5.41434,-0.03031 l 0.0598,-3.9e-4 c 0.98968,0 1.23877,0.32013 1.22613,1.29922 -0.0125,0.93357 -0.177,1.31995 -1.192,1.31995 l -0.0708,-6.1e-4 c -1.64526,-0.0242 -3.29028,-0.02942 -4.93551,-0.02942 q -1.86736,0 -3.73484,0.003 c -1.47088,0 -2.94192,-0.0042 -4.41284,-0.02234 l -0.0667,-5.2e-4 c -0.98141,0 -1.23169,0.34058 -1.21408,1.31473 q 0.0885,4.74353 0,9.48962 c -0.0203,0.99265 0.25525,1.30677 1.24,1.30677 l 0.0485,-2.5e-4 c 2.02158,-0.0199 4.04346,-0.0231 6.06556,-0.0231 q 1.47093,0 2.9418,7.6e-4 c 1.95761,0 3.9154,-0.003 5.87253,-0.0213 l 0.0589,-3e-4 c 0.94119,0 1.28781,0.24975 1.24511,1.26831 -0.0356,0.88855 -0.10373,1.34775 -1.19055,1.34775 l -0.0364,-1.6e-4 q -4.40331,-0.0457 -8.808,-0.044 -4.51094,0 -9.02127,0.0388 l -0.0359,1.2e-4 c -1.01413,0 -1.2474,-0.32739 -1.23727,-1.30921 0.0488,-4.70245 0.0205,-9.40747 0.0205,-14.10992 0,-4.74609 0.0206,-9.49213 -0.0154,-14.23822 -0.008,-0.85031 0.1879,-1.18607 1.09812,-1.186 l 0.0313,1.3e-4 q 4.42263,0.0293 8.84531,0.03112 4.29862,0 8.5989,-0.03625 l 0.0318,-1.5e-4 m 1.5e-4,-7 v 0 l -0.0997,4.6e-4 c -2.73776,0.02413 -5.5303,0.03591 -8.53094,0.03591 q -4.40008,0 -8.799,-0.031 l -0.0776,-2.8e-4 a 7.83915,7.83915 0 0 0 -8.0977,8.24916 c 0.026,3.43881 0.0219,6.96094 0.018,10.3671 l -0.003,3.808 q 0,1.89908 0.004,3.79858 c 0.005,3.363 0.011,6.84052 -0.0242,10.23874 a 7.9217,7.9217 0 0 0 8.23691,8.38181 l 0.084,-3.1e-4 c 3.17514,-0.026 6.10723,-0.0387 8.9732,-0.0387 3.00916,0 5.94812,0.0147 8.73529,0.0436 l 0.109,5.5e-4 c 3.91321,0 7.96167,-2.49454 8.185,-8.06748 a 8.07333,8.07333 0 0 0 -2.17542,-6.12118 7.68159,7.68159 0 0 0 -2.974,-1.91828 8.82157,8.82157 0 0 0 1.03609,-12.79915 c -0.12711,-0.12876 -0.26636,-0.26053 -0.41806,-0.39264 a 7.67165,7.67165 0 0 0 1.6871,-1.30283 8.0941,8.0941 0 0 0 2.22427,-6.08633 c -0.14163,-5.64862 -4.16662,-8.16568 -8.09311,-8.16574 z"
       fill="#ffffff"
       id="path33" />
    <path
       d="m 599.925,108.3934 a 4.14621,4.14621 0 0 1 -3.02539,-1.207 4.49118,4.49118 0 0 1 -1.25,-3.32129 c 0.041,-9.26172 0.042,-18.96191 0.002,-28.83008 a 4.46956,4.46956 0 0 1 1.24512,-3.29 4.13557,4.13557 0 0 1 3.01367,-1.2041 c 0.21484,0 0.43945,0.01563 0.665,0.03614 h 0.0713 c 0.22558,-0.02051 0.45117,-0.03614 0.666,-0.03614 a 4.12851,4.12851 0 0 1 3.02539,1.2168 4.45642,4.45642 0 0 1 1.22461,3.30566 c -0.0283,2.38672 -0.0342,4.80371 -0.0312,7.207 3.293,-3.00684 6.665,-6.10254 9.86524,-9.23633 a 8.4569,8.4569 0 0 1 6.34082,-2.44825 c 0.56445,0 1.16211,0.03223 1.80273,0.0752 a 3.49967,3.49967 0 0 1 2.12305,6.08105 c -2.875,2.61622 -5.49707,5 -8.11914,7.37989 -0.43457,0.39551 -0.86914,0.7959 -1.30371,1.19629 -0.62891,0.58105 -1.27051,1.17187 -1.92676,1.75976 3.13476,3.91211 6.22461,7.80664 9.31641,11.70215 l 2.11914,2.669 c 0.19824,0.251 0.38574,0.51074 0.624,0.8457 l 0.36133,0.50293 a 3.50013,3.50013 0 0 1 -2.83106,5.55762 l -2.11816,0.009 c -0.46973,0 -0.9209,-0.005 -1.37207,-0.0186 a 4.49509,4.49509 0 0 1 -3.75977,-2.32422 l -0.0566,-0.0879 -1.3798,-1.80672 c -2.6377,-3.457 -5.35059,-7.01269 -8.02246,-10.56348 -0.50781,0.458 -1.05664,0.93555 -1.66309,1.4502 0.009,1.15527 0.006,2.28809 0.002,3.4209 -0.005,1.748 -0.0108,3.55566 0.0361,5.30566 a 4.51787,4.51787 0 0 1 -1.2168,3.39356 4.25065,4.25065 0 0 1 -3.14551,1.25781 c -0.208,0 -0.42968,-0.0127 -0.65527,-0.0293 l -0.0322,0.004 c -0.20122,0.0156 -0.40239,0.0273 -0.59477,0.0273 z"
       fill="#5e5f5f"
       id="path35" />
    <path
       d="m 601.31242,74.041 c 0.41788,0 0.76178,0.14584 0.75015,0.97467 -0.0539,4.53045 -0.0282,9.06347 -0.0103,13.59655 0.003,0.38758 -0.25672,0.94458 0.24133,1.13709 a 0.3882,0.3882 0 0 0 0.14011,0.02725 c 0.30929,0 0.525,-0.40747 0.75827,-0.62277 4.90777,-4.51764 9.89251,-8.95569 14.654,-13.61963 a 5.019,5.019 0 0 1 3.89084,-1.44852 c 0.49185,0 1.01281,0.03037 1.57138,0.0676 -2.87488,2.6156 -5.49561,4.99762 -8.11634,7.37707 -1.58117,1.43744 -3.129,2.91846 -4.764,4.28919 -0.79316,0.66479 -0.72132,1.11145 -0.12323,1.85583 4.25842,5.29792 8.4757,10.62665 12.7033,15.95032 0.25409,0.32086 0.48511,0.6648 0.89582,1.22949 -0.77957,0 -1.46762,0.008 -2.11847,0.008 -0.43353,0 -0.85056,-0.004 -1.26715,-0.016 -0.60584,-0.018 -0.80347,-0.593 -1.1012,-0.98565 -3.65521,-4.7923 -7.31805,-9.57947 -10.92706,-14.40509 -0.35105,-0.46994 -0.635,-0.71732 -0.94821,-0.71732 a 1.40573,1.40573 0 0 0 -0.90244,0.5325 c -1.20642,1.209 -2.495,2.33838 -3.80408,3.437 a 2.18574,2.18574 0 0 0 -0.80853,1.89179 c 0.0359,3.07763 -0.0386,6.15783 0.0436,9.23291 0.0233,0.90249 -0.35983,1.058 -0.86215,1.058 -0.162,0 -0.33649,-0.0162 -0.51364,-0.0287 -0.0386,-0.003 -0.0777,-0.004 -0.11746,-0.004 -0.214,0 -0.44214,0.0343 -0.65183,0.0343 -0.428,0 -0.77923,-0.14316 -0.776,-1.01343 q 0.0655,-14.43072 0.003,-28.85895 c -0.003,-0.8334 0.34015,-0.97943 0.759,-0.9794 0.22357,0 0.46866,0.04163 0.69375,0.04251 h 0.007 c 0.22544,0 0.474,-0.043 0.70081,-0.04293 m 6.4e-4,-7 h -2.8e-4 c -0.27316,0 -0.51254,0.0126 -0.70379,0.02664 -0.18964,-0.0138 -0.42691,-0.02622 -0.69748,-0.02625 a 7.68117,7.68117 0 0 0 -5.49518,2.23438 7.89738,7.89738 0 0 0 -2.2644,5.77337 c 0.0398,9.95414 0.0389,19.64359 -0.003,28.79886 a 7.94127,7.94127 0 0 0 2.27133,5.80948 7.6953,7.6953 0 0 0 5.50461,2.23569 c 0.2507,0 0.47034,-0.0106 0.64328,-0.0219 0.18076,0.0109 0.39731,0.0202 0.63965,0.0202 a 7.78245,7.78245 0 0 0 5.6517,-2.3154 7.93742,7.93742 0 0 0 2.2081,-5.92337 c -0.0165,-0.6189 -0.0264,-1.23743 -0.0319,-1.86063 q 1.75039,2.3 3.47672,4.56055 l 1.22409,1.60449 a 7.869,7.869 0 0 0 6.57345,3.88721 c 0.48545,0.0144 0.97064,0.0191 1.475,0.0191 0.32419,0 0.65723,-0.002 1.00528,-0.004 0.35193,-0.002 0.72052,-0.004 1.11319,-0.004 a 7,7 0 0 0 5.661,-11.11737 c -0.13324,-0.18323 -0.24542,-0.34067 -0.34522,-0.48062 -0.27688,-0.38824 -0.49514,-0.68832 -0.7239,-0.97717 l -2.28006,-2.87238 c -2.335,-2.94217 -4.72434,-5.95282 -7.1232,-8.95761 q 0.40324,-0.3712 0.80822,-0.74008 c 2.61918,-2.37805 5.24164,-4.76163 8.11841,-7.379 a 7,7 0 0 0 -4.245,-12.16217 c -0.603,-0.04025 -1.30747,-0.08313 -2.03717,-0.08313 a 12.03235,12.03235 0 0 0 -8.78818,3.4469 c -1.27829,1.25211 -2.588,2.50107 -3.91058,3.742 a 7.75548,7.75548 0 0 0 -2.20691,-4.97358 7.67264,7.67264 0 0 0 -5.51819,-2.25991 z"
       fill="#ffffff"
       id="path37" />
    <path
       d="m 580.635,108.88364 c -7.99512,-0.006 -13.73242,-4.1377 -16.15528,-11.63379 -2.57128,-7.96875 -1.51953,-15.09668 3.124,-21.18848 2.83691,-3.72266 7.90137,-6.03516 13.21484,-6.03516 a 15.60236,15.60236 0 0 1 15.03809,10.124 4.32735,4.32735 0 0 1 0.005,4.07324 3.94046,3.94046 0 0 1 -2.71094,1.88379 5.14022,5.14022 0 0 1 -2.34277,0.626 4.38657,4.38657 0 0 1 -4.07324,-2.95606 c -1.36328,-3.35351 -2.98047,-4.0459 -4.38282,-4.28027 a 10.31868,10.31868 0 0 0 -1.68359,-0.14746 6.24916,6.24916 0 0 0 -5.35351,2.75879 c -1.84766,2.48242 -2.46387,5.53222 -1.999,9.89062 a 8.80944,8.80944 0 0 0 2.19727,5.47559 6.91378,6.91378 0 0 0 4.98144,2.18652 6.70518,6.70518 0 0 0 6.05563,-3.86425 7.48664,7.48664 0 0 0 0.55273,-1.30371 4.25325,4.25325 0 0 1 4.20606,-3.46 5.60192,5.60192 0 0 1 1.52636,0.22754 4.36865,4.36865 0 0 1 3.35352,6.6582 c -2.74024,7.17969 -8.11328,10.96485 -15.542,10.96485 z"
       fill="#5e5f5f"
       id="path39" />
    <path
       d="m 580.81806,73.5257 a 12.173,12.173 0 0 1 11.77994,7.90194 c 0.19251,0.4928 0.65454,1.1756 -0.27209,1.268 -0.46964,0.04455 -1.01914,0.53729 -1.51825,0.53729 -0.30567,0 -0.59253,-0.18494 -0.83039,-0.77087 -1.32452,-3.25989 -3.36261,-5.80109 -7.04858,-6.41712 a 13.7445,13.7445 0 0 0 -2.26148,-0.19568 9.7228,9.7228 0 0 0 -8.15985,4.16913 c -2.75164,3.69629 -3.14184,7.947 -2.67205,12.35163 a 12.23211,12.23211 0 0 0 3.16485,7.54138 10.37967,10.37967 0 0 0 7.494,3.24908 10.87722,10.87722 0 0 0 10.00421,-7.818 c 0.14874,-0.60224 0.41266,-0.809 0.81009,-0.809 a 2.283,2.283 0 0 1 0.5914,0.10055 c 1.62732,0.4466 1.63245,0.421 1.01129,2.056 q -3.31371,8.68245 -12.26672,8.69385 h -0.008 c -6.43762,-0.005 -10.83459,-3.04681 -12.82647,-9.20978 -2.05347,-6.36322 -1.64533,-12.45172 2.57708,-17.991 2.20725,-2.89594 6.28659,-4.65787 10.431,-4.65744 m 7.4e-4,-7 h -0.002 c -6.38144,0 -12.511,2.84094 -15.99662,7.41415 -5.3042,6.9584 -6.57388,15.39038 -3.67154,24.384 2.88584,8.92884 9.98661,14.05243 19.48261,14.06 8.89288,0 15.57187,-4.68707 18.82007,-13.19784 a 8.32357,8.32357 0 0 0 0.0374,-7.14231 7.37006,7.37006 0 0 0 -3.40137,-3.32712 7.30717,7.30717 0 0 0 2.80091,-2.73492 7.57976,7.57976 0 0 0 0.20151,-7.17511 l -0.004,-0.01007 A 19.23479,19.23479 0 0 0 580.8188,66.5257 Z m -0.32471,29.63479 a 3.377,3.377 0 0 1 -2.46362,-1.11688 c -0.45771,-0.4722 -1.00739,-1.28265 -1.23459,-3.41519 -0.36936,-3.46317 0.0273,-5.685 1.32641,-7.43006 a 2.78113,2.78113 0 0 1 2.54489,-1.34909 6.80718,6.80718 0 0 1 1.10938,0.10022 c 0.359,0.06 0.90439,0.15116 1.71555,2.14756 a 8.34729,8.34729 0 0 0 3.21728,3.94781 8.12676,8.12676 0 0 0 -2.98721,4.54111 c -0.0404,0.1069 -0.14328,0.32644 -0.30616,0.65347 a 3.21419,3.21419 0 0 1 -2.92193,1.921 z"
       fill="#ffffff"
       id="path41" />
    <path
       d="m 548.66133,108.953 a 22.512,22.512 0 0 1 -6.05274,-0.88379 c -4.2666,-1.19531 -9.76074,-4.47265 -11.709,-13.29394 a 24.3347,24.3347 0 0 1 0.26464,-11.70508 c 2.20118,-8.14844 8.43848,-13.01367 16.68458,-13.01367 A 22.09453,22.09453 0 0 1 550.34,70.201 c 9.26953,1.05957 14.96484,7.5 15.625,17.66894 0.0283,0.416 0.0254,0.83692 0.0176,1.25782 l -0.004,0.37793 c -0.0439,4.06933 -0.65235,9.96386 -5.41992,14.59472 a 16.57015,16.57015 0 0 1 -11.89746,4.85254 z m -0.53516,-29.6748 a 6.97331,6.97331 0 0 0 -5.81543,2.91406 c -2.59473,3.68945 -2.63086,10.67676 -0.0762,14.37793 a 7.2144,7.2144 0 0 0 11.97363,-0.19141 11.67922,11.67922 0 0 0 1.75293,-6.82031 12.25431,12.25431 0 0 0 -1.73145,-7.08887 7.23978,7.23978 0 0 0 -6.10351,-3.19143 z"
       fill="#5e5f5f"
       id="path43" />
    <path
       d="m 547.84916,73.55609 a 18.40167,18.40167 0 0 1 2.09268,0.12222 c 7.61072,0.87018 11.98719,6.04749 12.53131,14.418 0.0308,0.46973 0.005,0.93946 0.005,1.40918 -0.0488,4.5279 -0.97284,8.79651 -4.35852,12.08466 a 13.127,13.127 0 0 1 -9.45788,3.86291 18.97914,18.97914 0 0 1 -5.10889,-0.75445 c -5.31336,-1.48877 -8.08807,-5.48279 -9.23547,-10.678 a 20.85061,20.85061 0 0 1 0.22583,-10.03638 c 1.80246,-6.67245 6.74353,-10.42807 13.30575,-10.42807 m 0.30725,29.60855 a 10.61063,10.61063 0 0 0 8.9957,-4.89343 15.1578,15.1578 0 0 0 2.30762,-8.79657 15.51948,15.51948 0 0 0 -2.305,-8.92743 10.72281,10.72281 0 0 0 -9.02935,-4.76874 10.50175,10.50175 0 0 0 -8.67926,4.40168 c -3.43958,4.89239 -3.48322,13.46563 -0.0925,18.37854 a 10.61527,10.61527 0 0 0 8.80276,4.606 m -0.30725,-36.60852 c -9.77588,0 -17.46374,5.97855 -20.06354,15.60254 a 27.78467,27.78467 0 0 0 -0.30392,13.36874 c 1.8125,8.20691 6.84918,13.85679 14.18274,15.9116 a 26.01474,26.01474 0 0 0 6.9975,1.014 20.219,20.219 0 0 0 14.33291,-5.83954 c 4.28443,-4.161 6.40448,-9.73187 6.48306,-17.03265 l 4.3e-4,-0.07538 c 0,-0.1069 0.002,-0.21383 0.004,-0.32074 0.007,-0.39468 0.016,-0.93524 -0.0242,-1.54681 -0.76981,-11.842 -7.76846,-19.662 -18.72113,-20.91431 a 25.48345,25.48345 0 0 0 -2.88785,-0.16748 z m 0.30728,29.60852 a 3.61105,3.61105 0 0 1 -3.04248,-1.58322 c -1.74158,-2.52341 -1.71185,-7.85709 0.0586,-10.37533 a 3.58568,3.58568 0 0 1 2.95333,-1.42762 3.76372,3.76372 0 0 1 3.18079,1.61579 c 0.53622,0.81573 1.15308,2.13211 1.15308,5.08038 q 0,0.08543 0.002,0.17084 a 8.1866,8.1866 0 0 1 -1.19671,4.83844 3.64893,3.64893 0 0 1 -3.10868,1.68072 z"
       fill="#ffffff"
       id="path45" />
    <path
       d="M 548.29316,46.48618 A 4.26237,4.26237 0 0 1 544.552,44.1893 c -0.47461,-0.77783 -1.00488,-1.54834 -1.56738,-2.36426 -0.24414,-0.355 -0.48926,-0.71045 -0.73047,-1.06738 a 4.32272,4.32272 0 0 1 0.74316,-5.88867 c 4.46387,-3.9043 9.04,-7.95459 13.60157,-12.03613 a 4.38478,4.38478 0 0 1 2.93261,-1.22608 4.07116,4.07116 0 0 1 3.584,2.23731 c 1.2666,2.11474 2.59961,4.2749 4.07617,6.60351 a 4.06162,4.06162 0 0 1 -1.56055,6.02881 c -0.21777,0.11621 -0.49316,0.3042 -0.78515,0.50342 -0.17969,0.12256 -0.35938,0.24512 -0.541,0.36328 l -3.39746,2.09717 c -3.35449,2.06787 -6.71,4.13574 -10.04492,6.23486 a 4.74964,4.74964 0 0 1 -2.56934,0.811 z"
       fill="#dd2427"
       id="path47" />
    <path
       d="m 559.53169,25.10654 c 0.21011,0 0.3728,0.18753 0.58075,0.53491 q 2.01581,3.36768 4.12268,6.68048 c 0.32464,0.512 0.28686,0.77972 -0.25153,1.06641 -0.55475,0.29541 -1.06256,0.679 -1.59076,1.02386 -4.46863,2.76062 -8.949,5.503 -13.39453,8.30084 a 1.4097,1.4097 0 0 1 -0.70514,0.27341 c -0.28735,0 -0.50143,-0.20532 -0.7522,-0.61722 -0.74359,-1.22119 -1.5849,-2.38281 -2.38531,-3.56939 a 0.83082,0.83082 0 0 1 0.144,-1.29529 q 6.85154,-5.992 13.63324,-12.06366 a 1.01627,1.01627 0 0 1 0.59882,-0.33435 m 0,-7 a 7.74534,7.74534 0 0 0 -5.26676,2.118 c -4.58929,4.10653 -9.15616,8.14761 -13.57351,12.01083 a 7.74738,7.74738 0 0 0 -1.39777,10.39032 q 0.0291,0.0446 0.0589,0.08872 c 0.249,0.36917 0.50171,0.73611 0.75448,1.103 0.53153,0.77146 1.03357,1.50009 1.45514,2.19245 a 7.80156,7.80156 0 0 0 6.731,3.97662 8.2517,8.2517 0 0 0 4.43408,-1.34933 c 3.31125,-2.084 6.71234,-4.18024 10.00141,-6.20749 l 3.3432,-2.06217 q 0.0745,-0.04605 0.14782,-0.0939 c 0.20188,-0.13181 0.40168,-0.2677 0.60117,-0.404 0.16342,-0.11164 0.38724,-0.26459 0.46869,-0.31125 a 7.55182,7.55182 0 0 0 2.85724,-10.985 c -1.45935,-2.30182 -2.77707,-4.437 -4.02811,-6.527 a 7.59849,7.59849 0 0 0 -6.587,-3.93972 z"
       fill="#ffffff"
       id="path49" />
    <path
       d="m 527.56758,31.64194 a 4.52378,4.52378 0 0 1 -0.94239,-0.10157 q -1.957,-0.41748 -3.91211,-0.80322 a 3.97787,3.97787 0 0 1 -3.25879,-4.6958 q 0.898,-5.82788 1.7627,-11.6543 c 0.19726,-1.32128 0.38574,-2.64453 0.57422,-3.96728 0,0 0.27051,-1.88281 0.27832,-1.92529 l 0.0615,-0.34082 c 0.0147,-0.07862 0.0322,-0.15772 0.0518,-0.23584 a 3.70915,3.70915 0 0 1 0.042,-0.40088 l 0.0605,-0.375 a 4.15293,4.15293 0 0 1 4.12012,-3.64209 4.66946,4.66946 0 0 1 1.03808,0.1206 c 0.01,0 0.15039,10e-4 0.18653,0.002 a 3.61171,3.61171 0 0 1 0.39062,0.03418 l 0.36719,0.05322 c 0.084,0.01221 0.167,0.02734 0.25,0.04541 a 3.48721,3.48721 0 0 1 0.53613,0.0542 l 0.54,0.09619 c 0.083,0.01465 0.165,0.03271 0.24609,0.05322 a 3.46756,3.46756 0 0 1 0.5127,0.041 l 0.36914,0.05713 q 0.14941,0.02343 0.2959,0.05908 a 3.494,3.494 0 0 1 0.46679,0.05371 l 0.35743,0.06592 c 0.11035,0.02051 0.2207,0.04638 0.33007,0.07715 0.0205,-4.9e-4 0.042,-4.9e-4 0.0635,-4.9e-4 a 3.51333,3.51333 0 0 1 0.57129,0.04687 l 0.37695,0.06348 q 0.123,0.02051 0.24317,0.0498 a 3.53191,3.53191 0 0 1 0.49023,0.05664 l 0.36328,0.06739 c 0.0625,0.01172 0.19336,0.04 0.19727,0.04 a 3.485,3.485 0 0 1 0.624,0.05615 l 0.35742,0.06445 a 3.50214,3.50214 0 0 1 1.75,0.86182 4.05934,4.05934 0 0 1 0.93946,4.72754 c -0.28028,0.77392 -0.56836,1.55127 -0.85645,2.3291 L 531.55781,28.558 a 4.14878,4.14878 0 0 1 -3.99023,3.084 z"
       fill="#dd2427"
       id="path51" />
    <path
       d="m 526.4054,7 a 1.43865,1.43865 0 0 1 0.462,0.09122 0.86184,0.86184 0 0 0 0.28229,0.03839 c 0.10681,0 0.2168,-0.00931 0.32361,-0.00931 l 0.0482,7e-4 0.36707,0.0531 a 0.68828,0.68828 0 0 0 0.39859,0.13123 0.77494,0.77494 0 0 0 0.26871,-0.051 l 0.5404,0.09613 a 0.917,0.917 0 0 0 0.51566,0.15369 1.2852,1.2852 0 0 0 0.326,-0.04529 l 0.36889,0.05713 a 0.67408,0.67408 0 0 0 0.40961,0.14145 0.799,0.799 0 0 0 0.25665,-0.04507 l 0.37287,0.06878 a 1.19206,1.19206 0 0 0 0.63513,0.17041 1.96441,1.96441 0 0 0 0.37463,-0.03949 l 0.36432,0.06128 a 0.65469,0.65469 0 0 0 0.40613,0.139 0.89655,0.89655 0 0 0 0.26453,-0.04327 l 0.3681,0.06817 a 0.92965,0.92965 0 0 0 0.50632,0.14273 1.41574,1.41574 0 0 0 0.333,-0.04336 l 0.37049,0.06683 c 0.34314,0.31281 0.12042,0.63953 0.009,0.94989 -0.39947,1.108 -0.81287,2.21094 -1.22027,3.316 q -2.74238,7.43931 -5.48346,14.87915 c -0.141,0.38275 -0.24152,0.79306 -0.70569,0.79306 a 1.03487,1.03487 0 0 1 -0.215,-0.02481 q -1.97991,-0.42223 -3.96625,-0.81415 c -0.43725,-0.08569 -0.5379,-0.30438 -0.472,-0.73169 q 0.89841,-5.83154 1.76459,-11.668 c 0.28741,-1.92621 0.5567,-3.85511 0.8341,-5.78278 l 0.0669,-0.36969 a 0.686,0.686 0 0 0 0.0992,-0.66693 l 0.0601,-0.37476 C 525.82411,7.21677 526.05,7 526.4054,7 m 0,-7 a 7.64108,7.64108 0 0 0 -7.56451,6.5213 l -0.0131,0.079 -0.0177,0.1102 -0.0421,0.26236 q -0.0333,0.20709 -0.054,0.41513 -0.0116,0.05837 -0.0222,0.11707 l -0.0663,0.36642 q -0.0228,0.12547 -0.0409,0.25168 l -0.25711,1.7977 c -0.18774,1.31677 -0.37543,2.63354 -0.57174,3.9491 q -0.86829,5.81936 -1.75962,11.63516 a 7.51911,7.51911 0 0 0 6.0441,8.66684 c 1.20291,0.2359 2.46332,0.49463 3.85266,0.79092 a 8.051,8.051 0 0 0 1.6749,0.17874 7.64146,7.64146 0 0 0 7.26184,-5.33874 l 4.9038,-13.30788 0.5914,-1.60437 0.3649,-0.98652 c 0.2814,-0.75946 0.56271,-1.519 0.838,-2.2807 a 7.5324,7.5324 0 0 0 -1.84329,-8.593 7,7 0 0 0 -3.4726,-1.71554 l -0.21216,-0.0383 -0.15854,-0.0286 A 7.0055,7.0055 0 0 0 535.00067,1.14833 L 534.85028,1.12047 534.66437,1.08605 Q 534.3555,1.02887 534.04376,0.99971 533.964,0.98433 533.884,0.97083 L 533.65756,0.93274 533.51742,0.90918 A 7.00146,7.00146 0 0 0 532.7485,0.82312 Q 532.68337,0.8098 532.61789,0.7977 L 532.241,0.72818 Q 531.94213,0.67311 531.64075,0.64429 531.5101,0.61893 531.37836,0.59854 l -0.11661,-0.01807 -0.253,-0.03921 q -0.29842,-0.04618 -0.599,-0.06647 l -0.0875,-0.01611 -0.27038,-0.0481 -0.27,-0.048 a 7.0032,7.0032 0 0 0 -0.72464,-0.09021 q -0.0828,-0.014 -0.16608,-0.02606 L 528.5236,0.19311 Q 528.1773,0.14304 527.82731,0.12772 A 8.07445,8.07445 0 0 0 526.40537,0 Z"
       fill="#ffffff"
       id="path53" />
    <path
       d="m 540.07441,36.61948 a 4.49737,4.49737 0 0 1 -2.43652,-0.75391 c -0.82813,-0.52783 -1.67383,-1.03174 -2.51953,-1.53564 l -1.083,-0.64844 a 3.49927,3.49927 0 0 1 -1.48535,-1.811 4.33854,4.33854 0 0 1 0.54785,-3.94287 l 3.5664,-6.082 q 2.94288,-5.01562 5.876,-10.03711 a 4.04382,4.04382 0 0 1 3.59474,-2.24665 4.36989,4.36989 0 0 1 2.56933,0.88721 c 1.99805,1.43115 4.05664,2.83154 5.8086,4.0122 a 3.98869,3.98869 0 0 1 0.79883,6.24659 c -0.30469,0.33642 -0.61329,0.73388 -0.94043,1.15527 -0.16114,0.207 -0.32227,0.41406 -0.48536,0.61914 -0.0488,0.061 -0.10058,0.1206 -0.15332,0.17871 l -0.24414,0.26318 c -0.11718,0.125 -0.23535,0.249 -0.3457,0.38037 l -1.624,1.93995 q -4.05175,4.83692 -8.083,9.688 a 4.27487,4.27487 0 0 1 -3.36133,1.687 z"
       fill="#dd2427"
       id="path55" />
    <path
       d="m 546.13511,13.06213 a 0.97726,0.97726 0 0 1 0.53024,0.23124 c 1.93964,1.39019 3.91205,2.73553 5.89093,4.06982 0.46454,0.31323 0.57,0.54413 0.16053,0.996 -0.557,0.61469 -1.04743,1.28974 -1.56635,1.93884 -0.23126,0.2533 -0.47247,0.49836 -0.6925,0.76111 q -4.86685,5.81442 -9.71833,11.6416 a 0.89743,0.89743 0 0 1 -0.665,0.41867 1.06532,1.06532 0 0 1 -0.55526,-0.2051 c -1.20868,-0.76978 -2.44916,-1.48975 -3.67676,-2.22992 -0.14972,-0.41761 0.12134,-0.72181 0.30389,-1.03376 q 4.70655,-8.0407 9.41736,-16.07885 c 0.18955,-0.325 0.34662,-0.50962 0.57126,-0.50962 m 0,-7 a 7.56776,7.56776 0 0 0 -6.61789,3.98285 q -2.93729,5.0376 -5.8912,10.0633 -1.74546,2.97564 -3.48914,5.95236 a 7.76982,7.76982 0 0 0 -0.88354,6.98617 6.99988,6.99988 0 0 0 2.97485,3.63221 q 0.54584,0.32913 1.09387,0.65481 c 0.85562,0.51029 1.66379,0.99225 2.437,1.48474 a 7.93958,7.93958 0 0 0 4.31559,1.30084 7.77108,7.77108 0 0 0 6.05694,-2.95474 c 2.65845,-3.21078 5.38623,-6.46808 8.02423,-9.61813 l 1.66989,-1.99439 c 0.0665,-0.07782 0.14118,-0.15417 0.21411,-0.23217 l 0.28019,-0.30222 q 0.15468,-0.16941 0.298,-0.34872 c 0.176,-0.2201 0.34918,-0.44269 0.52225,-0.66544 0.28378,-0.36523 0.55182,-0.71024 0.76367,-0.944 a 7.4811,7.4811 0 0 0 -1.4343,-11.50027 c -1.73349,-1.16883 -3.76947,-2.55286 -5.72641,-3.95545 a 7.79834,7.79834 0 0 0 -4.60815,-1.54172 z"
       fill="#ffffff"
       id="path57" />
    <path
       d="m 515.93867,110.49985 a 4.26215,4.26215 0 0 1 -3.85059,-2.82617 l -5.26269,-10.72852 q -8.80884,-17.95459 -17.62061,-35.90625 -1.72632,-3.52 -3.47851,-7.0249 l -1.37793,-2.77246 a 3.48522,3.48522 0 0 1 -0.24512,-0.647 l -0.006,-0.0249 c -1.36865,-3.126 -0.56738,-5.10547 2.61475,-6.61914 l 5.99609,-2.84619 q 7.47731,-3.54713 14.94483,-7.1167 c 0.59082,-0.28369 1.17187,-0.5874 1.7539,-0.89111 a 29.06438,29.06438 0 0 1 5.16016,-2.26612 25.51265,25.51265 0 0 1 7.332,-1.0791 c 12.38086,0 22.94434,8.999 24.57031,20.93213 a 28.46129,28.46129 0 0 1 -4.4554,19.64458 l -0.0352,0.05469 a 3.48461,3.48461 0 0 1 -0.57031,0.75684 c -0.0703,0.07226 -0.14551,0.1416 -0.22266,0.207 a 34.74641,34.74641 0 0 1 -14.26758,10.29883 5.14591,5.14591 0 0 1 -2.01172,0.42382 4.82739,4.82739 0 0 1 -3.28222,-1.32226 c -0.63379,-0.56641 -1.29786,-1.10645 -1.96192,-1.64844 0,0 -6.93164,-5.72852 -8.96289,-7.40625 q 0.58594,1.18506 1.17774,2.36719 l 0.40527,0.80761 q 6.67968,13.30518 13.39458,26.58887 a 4.46832,4.46832 0 0 1 0.27441,3.97852 4.26633,4.26633 0 0 1 -2.80859,2.333 l -0.36133,0.19726 -0.11816,0.0732 a 3.49067,3.49067 0 0 1 -0.86914,0.37793 c -0.0156,0.005 -0.0312,0.009 -0.0478,0.0137 l -3.58008,1.50782 a 5.43531,5.43531 0 0 1 -2.22759,0.56251 z m 3.45312,-49.75391 q 1.99806,1.40478 3.98536,2.81836 l 2.73046,1.93359 a 60.65444,60.65444 0 0 0 4.50489,-5.77636 c 0.0322,-0.05371 0.0654,-0.10645 0.10058,-0.15821 0.0537,-0.08007 0.11035,-0.15918 0.167,-0.2373 a 9.40008,9.40008 0 0 0 0.5,-7.36524 c -10e-4,1.127 -0.002,2.13575 -0.005,2.6167 a 3.50046,3.50046 0 0 1 -3.36426,3.47559 l -0.91015,0.041 c -0.7041,0.03369 -1.4082,0.06689 -2.11328,0.07177 q -1.43994,0.0095 -2.87891,0.0083 l -1.95605,-0.0015 -0.126,0.48633 a 3.543,3.543 0 0 1 -0.19434,0.55664 c -0.0976,0.30469 -0.248,0.84863 -0.40136,1.39258 -0.0137,0.04591 -0.0263,0.09177 -0.039,0.13771 z m -0.44921,-0.32324 -14.876,-2.03418 c 0.3623,-1.01416 0.70312,-1.998 1.01367,-2.8999 0.25391,-0.73682 0.52246,-1.46826 0.791,-2.19971 0.30761,-0.8374 0.60449,-1.64648 0.873,-2.44629 -1.7207,0.87744 -3.44336,1.75928 -5.15429,2.64356 z"
       fill="#dd2427"
       id="path59" />
    <path
       d="m 521.89832,33.25146 c 10.25354,0 19.644,7.20023 21.10322,17.90464 a 24.84845,24.84845 0 0 1 -4.07941,17.5209 l -0.002,0.0018 a 1.49208,1.49208 0 0 0 -0.259,0.21576 31.19125,31.19125 0 0 1 -13.09278,9.52094 1.73049,1.73049 0 0 1 -0.66259,0.1535 1.3918,1.3918 0 0 1 -0.94635,-0.428 c -0.92188,-0.82349 -1.89209,-1.59 -2.8451,-2.3772 q -7.2041,-5.95862 -14.42028,-11.9068 a 1.05486,1.05486 0 0 1 -0.40058,-1.388 c 0.73718,-1.93176 1.42255,-3.88427 2.09583,-5.84027 0.73889,-2.14245 1.60553,-4.24 2.2149,-6.42724 0.0259,-0.04834 1.18952,-3.14545 1.18952,-3.14545 0.0638,-0.04834 0.126,-0.09839 0.18817,-0.14679 3.14587,0 11.97751,-0.08789 14.494,-0.08789 0.19159,0 0.34665,4.9e-4 0.45974,0.0016 l 0.0413,3e-4 c 0.0804,0 0.16105,-0.003 0.24042,-0.003 a 0.72793,0.72793 0 0 1 0.65915,0.26859 c 0.002,0.17779 0.007,6.06817 -0.002,7.46655 -0.97027,0.038 -1.94043,0.10358 -2.91241,0.11047 q -1.45167,0.01 -2.90393,0.0086 c -1.29078,0 -2.58176,-0.0034 -3.87207,-0.0034 -0.0543,0 -0.10865,-9.2e-4 -0.1623,-9.2e-4 -0.31649,0 -0.60791,0.03159 -0.71124,0.46705 -0.21063,0.88732 -0.45056,1.76953 -0.67676,2.65344 -0.11218,0.09668 -0.86316,2.99695 -1.09277,3.61328 a 0.91459,0.91459 0 0 0 0.43335,1.22223 c 2.80359,1.9577 5.58307,3.94647 8.37457,5.91626 0.96317,0.67978 1.46222,1.03232 1.93024,1.03232 0.49,0 0.946,-0.38678 1.86432,-1.18943 A 54.15529,54.15529 0 0 0 533.617,61.516 v -0.0017 a 4.19827,4.19827 0 0 0 0.32972,-0.49029 c 2.41693,-4.88562 1.70221,-9.53992 -1.098,-14.00775 A 11.58563,11.58563 0 0 0 522.43534,41.295 l -0.0553,9e-5 a 20.1583,20.1583 0 0 0 -9.11353,2.31684 c -4.851,2.45312 -9.70215,4.9046 -14.52734,7.40954 -2.31507,1.19983 -2.01294,0.51276 -0.89252,2.92963 0.0225,0.05005 0.0777,0.08118 0.11914,0.12256 l 5.68835,11.26459 0.005,0.05865 c 0.0569,0.095 0.11218,0.18817 0.16919,0.28314 l 0.002,0.06214 c 0.057,0.095 0.11395,0.18817 0.1709,0.28314 l 0.003,0.06213 a 0.52631,0.52631 0 0 0 0.22272,0.473 c 0.0414,0.08636 0.0846,0.17089 0.126,0.25378 l -0.019,0.06042 0.0621,0.02588 0.114,0.22272 a 0.76016,0.76016 0 0 0 0.35217,0.63184 c 1.2948,2.62585 2.574,5.25854 3.88605,7.874 q 6.88567,13.71432 13.80749,27.40954 c 0.40051,0.79242 0.36255,1.17048 -0.51617,1.40351 a 5.16763,5.16763 0 0 0 -0.92707,0.442 c -0.0898,0.0535 -0.1795,0.10877 -0.26928,0.164 -0.076,0.0207 -0.152,0.0414 -0.22791,0.0604 q -1.90594,0.80283 -3.81012,1.60382 a 2.7857,2.7857 0 0 1 -0.86706,0.28769 c -0.28141,0 -0.40366,-0.24719 -0.709,-0.86948 Q 503.7889,82.81165 492.34654,59.49626 c -1.60723,-3.27668 -3.24035,-6.5412 -4.86315,-9.811 a 1.8662,1.8662 0 0 0 -0.0932,-0.32623 c -0.71644,-1.51233 -0.71821,-1.514 0.82519,-2.24774 6.98486,-3.31983 13.97839,-6.62238 20.95117,-9.96808 a 44.96807,44.96807 0 0 1 6.40656,-2.9607 21.99449,21.99449 0 0 1 6.32531,-0.931 m 0,-7 a 29.00165,29.00165 0 0 0 -8.33624,1.226 32.28683,32.28683 0 0 0 -5.77633,2.51651 c -0.58005,0.30267 -1.1279,0.58859 -1.64875,0.83862 -4.95288,2.3765 -10.0076,4.77454 -14.89593,7.0936 L 485.2104,40.789 a 8.49589,8.49589 0 0 0 -4.826,4.74079 8.023,8.023 0 0 0 0.43722,6.30535 7.00185,7.00185 0 0 0 0.39142,0.962 l 1.41013,2.83691 q 1.72586,3.46953 3.4386,6.94483 8.57254,17.45712 17.13285,34.91312 l 5.75049,11.72172 c 1.94144,3.956 4.87463,4.78625 6.99344,4.78625 a 8.78471,8.78471 0 0 0 3.588,-0.83817 l 2.20389,-0.92785 1.19278,-0.502 a 7.00013,7.00013 0 0 0 1.58822,-0.72181 l 0.0417,-0.0255 a 7.72112,7.72112 0 0 0 4.59152,-4.117 7.85218,7.85218 0 0 0 -0.34124,-6.98679 c -2.56723,-5.0607 -5.14643,-10.17548 -7.70234,-15.25674 a 8.144,8.144 0 0 0 3.80494,0.94476 8.69736,8.69736 0 0 0 3.352,-0.69074 38.25481,38.25481 0 0 0 15.48452,-11.12536 q 0.103,-0.09788 0.202,-0.19992 a 7.00864,7.00864 0 0 0 1.00827,-1.32285 31.96331,31.96331 0 0 0 4.9845,-22.0195 c -1.862,-13.65893 -13.9162,-23.95911 -28.039,-23.95911 z"
       fill="#ffffff"
       id="path61" />
    <path
       d="m 478.08857,108.88168 c -0.75586,0 -1.53369,-0.04 -2.312,-0.11816 -8.61328,-0.87012 -14.69141,-7.48438 -15.48535,-16.84961 a 16.67184,16.67184 0 0 1 -0.0303,-1.8623 c 0.004,-0.18165 0.009,-0.36231 0.0103,-0.543 a 20.84182,20.84182 0 0 1 1.1167,-7.793 c 2.602,-7.40821 8.6206,-11.65723 16.51269,-11.65723 0.71973,0 1.46045,0.03613 2.20215,0.10742 8.97266,0.86524 14.97266,7.49414 15.65918,17.30078 a 24.91681,24.91681 0 0 1 -0.84766,8.84864 c -2.30126,7.86914 -8.5913,12.5664 -16.8247,12.5664 z m -0.043,-29.55371 a 7.13985,7.13985 0 0 0 -5.7749,2.61426 c -2.7251,3.875 -2.7832,11.0498 -0.11914,14.76074 a 7.22419,7.22419 0 0 0 11.51269,0.19239 11.51753,11.51753 0 0 0 2.14161,-7.38477 14.20281,14.20281 0 0 0 -1.08983,-5.86719 7.0259,7.0259 0 0 0 -6.6704,-4.3154 z"
       fill="#5e5f5f"
       id="path63" />
    <path
       d="m 477.90113,73.55887 q 0.91842,0 1.8664,0.09125 c 7.80572,0.75207 11.98712,6.69171 12.503,14.06109 a 21.60808,21.60808 0 0 1 -0.71613,7.62354 c -1.962,6.70947 -7.06933,10.04724 -13.46481,10.04724 a 19.55242,19.55242 0 0 1 -1.96182,-0.10077 c -7.7519,-0.7829 -11.769,-6.82263 -12.34912,-13.66327 -0.0616,-0.72125 -0.008,-1.45282 -0.008,-2.17926 a 17.32259,17.32259 0 0 1 0.91894,-6.56335 c 2.24905,-6.40268 7.23679,-9.31647 13.21118,-9.31647 m 0.0884,29.60113 a 10.57956,10.57956 0 0 0 8.45175,-4.13415 15.03753,15.03753 0 0 0 2.86457,-9.523 17.645,17.645 0 0 0 -1.37836,-7.25134 10.46475,10.46475 0 0 0 -9.88153,-6.42319 10.5842,10.5842 0 0 0 -8.63818,4.10025 c -3.5243,5.013 -3.67566,13.83264 -0.1001,18.81488 a 10.61813,10.61813 0 0 0 8.68185,4.4165 m -0.0884,-36.60113 a 20.24321,20.24321 0 0 0 -19.81553,13.99655 24.30559,24.30559 0 0 0 -1.3153,9.00836 c -0.002,0.13474 -0.005,0.26962 -0.008,0.40454 a 19.88865,19.88865 0 0 0 0.042,2.24518 c 0.94309,11.12045 8.25215,18.98517 18.62038,20.03229 a 26.64944,26.64944 0 0 0 2.66519,0.13623 c 9.87659,0 17.42178,-5.63837 20.18347,-15.08261 a 28.35,28.35 0 0 0 0.98047,-10.076 c -0.80194,-11.45462 -8.18713,-19.517 -18.8147,-20.541 -0.85409,-0.082 -1.70721,-0.1235 -2.53778,-0.1235 z m 0.0885,29.60118 a 3.66211,3.66211 0 0 1 -2.99463,-1.49762 c -1.779,-2.479 -1.706,-8.083 0.13935,-10.70791 a 3.80637,3.80637 0 0 1 2.9118,-1.12613 3.4744,3.4744 0 0 1 3.45828,2.20575 10.744,10.744 0 0 1 0.8017,4.41852 q -2.3e-4,0.033 -1.5e-4,0.06594 a 8.14,8.14 0 0 1 -1.42029,5.24894 3.58479,3.58479 0 0 1 -2.89606,1.39251 z"
       fill="#ffffff"
       id="path65" />
    <path
       d="m 461.60908,108.3934 q -4.36669,-0.0381 -8.74463,-0.0361 -4.51538,0 -9.03076,0.0342 h -0.0239 a 4.38779,4.38779 0 0 1 -4.71875,-4.75488 c 0.0337,-3.48438 0.0288,-6.97266 0.0239,-10.46192 l -10e-4,-7.40137 c 0.003,-3.47851 0.007,-6.957 -0.0181,-10.43457 a 4.73617,4.73617 0 0 1 1.25048,-3.51367 4.56113,4.56113 0 0 1 3.376,-1.28222 c 2.98438,0.02734 5.8999,0.041 8.81494,0.041 q 4.25683,0 8.51367,-0.041 h 0.001 a 4.39451,4.39451 0 0 1 4.6958,4.74707 4.81683,4.81683 0 0 1 -1.26025,3.57519 4.61193,4.61193 0 0 1 -3.41846,1.29883 h -0.103 c -1.999,-0.02832 -3.99853,-0.03418 -5.99756,-0.03418 0,0 -5.19238,0.001 -5.96728,-10e-4 0.0147,1.37891 0.0112,2.7334 -10e-4,4.05078 0.35987,-10e-4 5.127,0.002 5.127,0.002 1.86377,0 3.728,-0.0059 5.59082,-0.03711 h 0.11718 a 4.47226,4.47226 0 0 1 4.66448,4.8086 4.77124,4.77124 0 0 1 -1.24707,3.51758 4.55637,4.55637 0 0 1 -3.38232,1.292 h -0.11475 c -1.61621,-0.02246 -3.23877,-0.02734 -4.86132,-0.02734 l -3.56153,0.0029 q -1.16674,0 -2.33349,-0.0049 c 0.0195,1.60644 0.0186,3.28906 -0.001,5.07714 1.24121,-0.0059 2.47315,-0.0078 3.70508,-0.0078 l 3.27978,0.001 c 1.86866,0 3.7378,-0.0029 5.606,-0.02246 h 0.0361 a 4.45273,4.45273 0 0 1 4.8003,4.83984 4.45837,4.45837 0 0 1 -4.73389,4.77246 z"
       fill="#5e5f5f"
       id="path67" />
    <path
       d="m 443.72025,74.04263 0.0385,1.9e-4 q 4.38231,0.04087 8.76362,0.04138 4.28079,0 8.56255,-0.04138 l 0.0371,-1.9e-4 c 1.02264,0 1.1181,0.42371 1.1257,1.27851 0.0101,0.90817 -0.12112,1.3428 -1.176,1.3428 l -0.0561,-4e-4 c -2.00537,-0.02816 -4.01037,-0.03344 -6.01573,-0.03344 q -1.81073,0 -3.62137,0.0019 c -1.53611,0 -3.07267,-0.0031 -4.60881,-0.01721 l -0.0651,-3.7e-4 c -0.92892,0 -1.2742,0.22455 -1.24658,1.26331 0.0795,2.90564 0.0565,5.8164 0.0102,8.72467 -0.0126,0.83453 0.24115,1.0885 1.05382,1.0885 l 0.0371,-1.9e-4 q 1.79571,-0.01464 3.59143,-0.01232 1.99016,0 3.98067,0.0031 c 1.8816,0 3.76342,-0.0064 5.6445,-0.037 l 0.0605,-4.9e-4 c 1.07416,6e-5 1.15128,0.47632 1.16388,1.35834 0.0126,0.88815 -0.16211,1.26077 -1.131,1.26077 l -0.06,-4.6e-4 c -1.63345,-0.0223 -3.26689,-0.027 -4.90078,-0.027 q -1.78938,0 -3.57859,0.0025 c -1.49437,0 -2.98921,-0.0039 -4.48317,-0.0217 l -0.0842,-5.5e-4 c -0.95433,0 -1.33188,0.22467 -1.30443,1.31732 0.0795,3.16236 0.0667,6.32984 0.005,9.49475 -0.02,0.97922 0.22144,1.30176 1.21618,1.30176 l 0.0596,-3.6e-4 c 2.00463,-0.0228 4.00993,-0.0268 6.01576,-0.0268 q 1.595,0 3.18953,10e-4 c 1.89305,0 3.787,-0.004 5.67976,-0.0231 l 0.0516,-2.8e-4 c 0.97729,0 1.26236,0.295 1.24975,1.29654 -0.0152,0.96164 -0.21731,1.317 -1.23669,1.317 l -0.0442,-2.1e-4 q -4.3987,-0.038 -8.79826,-0.0369 -4.51944,0 -9.03864,0.0343 l -0.0395,1.6e-4 c -0.93533,0 -1.18735,-0.27509 -1.17723,-1.21683 0.0462,-4.74866 0.0205,-9.49732 0.0205,-14.246 0,-4.705 0.018,-9.41 -0.0154,-14.115 -0.008,-0.86942 0.11744,-1.27079 1.12423,-1.27076 m 17.402,-7 h -1.5e-4 l -0.107,5.5e-4 c -2.786,0.02722 -5.64379,0.041 -8.49267,0.041 -2.85076,0 -5.77728,-0.01383 -8.69828,-0.04108 l -0.10387,-4.9e-4 a 7.99651,7.99651 0 0 0 -5.8593,2.318 8.10316,8.10316 0 0 0 -2.26469,6.01385 c 0.0244,3.44629 0.021,6.97623 0.0176,10.38995 l -0.002,3.664 q 0,1.87857 0.004,3.75711 c 0.005,3.42184 0.01,6.96017 -0.0238,10.42074 a 7.86557,7.86557 0 0 0 8.17689,8.285 l 0.0943,-4e-4 q 4.4876,-0.033 8.98376,-0.0341 c 2.98177,0 5.92163,0.0123 8.73785,0.0366 l 0.10462,4.9e-4 a 7.95057,7.95057 0 0 0 8.23581,-8.20657 8.17946,8.17946 0 0 0 -2.27744,-6.05835 7.70423,7.70423 0 0 0 -2.90725,-1.84378 7.662,7.662 0 0 0 1.0054,-0.85718 8.91463,8.91463 0 0 0 -0.44681,-12.31909 7.68084,7.68084 0 0 0 1.67767,-1.28305 8.17657,8.17657 0 0 0 2.27124,-6.08258 7.86888,7.86888 0 0 0 -8.12509,-8.20063 z"
       fill="#ffffff"
       id="path69" />
    <path
       d="m 426.27314,108.94614 a 21.95323,21.95323 0 0 1 -7.585,-1.38379 c -6.79687,-2.499 -10.85693,-7.99707 -11.43262,-15.48047 a 24.61686,24.61686 0 0 1 1.002,-9.73535 c 2.5708,-7.80567 8.97168,-12.28321 17.56054,-12.28321 0.80078,0 1.62549,0.041 2.4502,0.1211 6.53125,0.63379 11.082,4.02051 13.16064,9.793 a 4.42575,4.42575 0 0 1 -0.27246,4.125 3.98907,3.98907 0 0 1 -2.69287,1.71484 c -0.082,0.043 -0.17432,0.08984 -0.27588,0.1377 a 4.37489,4.37489 0 0 1 3.00244,1.26757 4.67031,4.67031 0 0 1 1.24073,3.457 c -0.0352,2.51563 -0.0264,5.03711 -0.0176,7.5586 l 0.005,1.74121 a 4.7905,4.7905 0 0 1 -2.08106,4.24316 25.09015,25.09015 0 0 1 -14.063,4.72364 z m -0.48,-29.59473 c -0.17236,0 -0.34766,0.0029 -0.52441,0.01074 a 7.43152,7.43152 0 0 0 -7.09424,4.668 c -1.896,4.02832 -1.22217,10.23926 1.41406,13.03125 a 7.76538,7.76538 0 0 0 6.10205,2.53809 16.46333,16.46333 0 0 0 3.21,-0.34961 11.92969,11.92969 0 0 0 3.687,-1.46094 c -0.0117,-0.80176 -0.0166,-1.5498 -0.0151,-2.25781 l -2.355,-0.0068 c -0.89356,0 -1.78662,0.0068 -2.6792,0.03613 l -0.21924,0.0039 a 4.46862,4.46862 0 0 1 -3.29541,-1.27734 4.73852,4.73852 0 0 1 -1.24121,-3.56934 c 0.0566,-4.54785 3.73291,-4.77734 4.46924,-4.77734 q 0.16332,0 0.34277,0.0088 c 0.648,0.03515 1.2959,0.04492 1.94434,0.04492 0.50732,0 1.01513,-0.0059 1.52295,-0.01172 0.53466,-0.0068 1.06982,-0.0127 1.604,-0.0127 0.51855,0 1.55762,0.0088 1.55762,0.0088 a 4.58512,4.58512 0 0 1 -2.04834,-2.36914 c -1.21581,-2.98636 -3.12353,-4.25784 -6.38183,-4.25784 z"
       fill="#5e5f5f"
       id="path71" />
    <path
       d="m 425.81816,73.56369 q 1.04013,0 2.11184,0.10437 c 4.86926,0.47229 8.4834,2.71057 10.20575,7.49518 0.19507,0.539 0.43121,1.18329 -0.45178,1.22436 -0.48717,0.02155 -1.0492,0.564 -1.5425,0.564 -0.27084,0 -0.521,-0.16358 -0.72662,-0.66666 -1.80418,-4.431 -5.07445,-6.43377 -9.61972,-6.43377 q -0.33074,0 -0.67067,0.01409 a 10.94448,10.94448 0 0 0 -10.116,6.67377 c -2.53083,5.375 -1.57855,13.09857 2.03559,16.92572 a 11.30725,11.30725 0 0 0 8.64732,3.63431 20.10109,20.10109 0 0 0 3.889,-0.4155 16.51388,16.51388 0 0 0 5.73689,-2.46411 1.54124,1.54124 0 0 0 0.788,-1.47595 c -0.0385,-1.87891 -0.0513,-3.763 0.005,-5.64191 0.0225,-0.84485 -0.28836,-1.08111 -1.056,-1.08111 l -0.0632,4.9e-4 c -0.571,0.0093 -1.14221,0.01226 -1.71341,0.01226 -1.02052,0 -2.04092,-0.0095 -3.06085,-0.0095 -0.93156,0 -1.86276,0.0079 -2.79274,0.03824 -0.0371,0.0012 -0.0729,0.0018 -0.1076,0.0018 -0.98012,0 -1.04459,-0.48761 -1.03463,-1.30316 0.01,-0.779 0.017,-1.32111 0.97046,-1.321 q 0.073,0 0.15375,0.0043 c 0.71056,0.0386 1.42273,0.05005 2.13567,0.05005 1.04091,0 2.08329,-0.02442 3.12378,-0.02442 1.01515,0 2.031,0.01721 3.04635,0.01721 0.69452,0 1.38887,-0.008 2.0822,-0.03515 q 0.0662,-0.0026 0.12769,-0.0026 c 0.81736,0 1.02166,0.34473 1.00946,1.1782 -0.0436,3.11871 -0.0206,6.24 -0.0128,9.3612 a 1.36461,1.36461 0 0 1 -0.54161,1.33478 21.62159,21.62159 0 0 1 -12.10418,4.12354 18.3645,18.3645 0 0 1 -6.37706,-1.16907 c -5.65989,-2.08173 -8.68619,-6.42737 -9.1507,-12.4646 a 21.27405,21.27405 0 0 1 0.83678,-8.37042 c 2.24038,-6.80252 7.73929,-9.879 14.2363,-9.87891 m 9e-5,-7 h -9e-5 c -10.04815,-1.2e-4 -17.85566,5.49115 -20.885,14.68921 A 28.02125,28.02125 0 0 0 403.76577,92.351 c 0.68689,8.92728 5.55718,15.4964 13.71361,18.4964 a 25.437,25.437 0 0 0 8.79346,1.59934 28.51234,28.51234 0 0 0 16.01834,-5.32013 8.171,8.171 0 0 0 3.62738,-7.17215 l -0.005,-1.7396 c -0.008,-2.46536 -0.017,-5.01465 0.0176,-7.48971 a 8.23745,8.23745 0 0 0 -1.56594,-5.16315 7.85035,7.85035 0 0 0 0.355,-6.7756 c -2.53029,-7.029 -8.2538,-11.32322 -16.11406,-12.08561 -0.93579,-0.09088 -1.87409,-0.13705 -2.78755,-0.13705 z m -3.6516,17.6221 a 3.50537,3.50537 0 0 1 2.08594,-1.19366 7.74338,7.74338 0 0 0 -2.08594,1.19366 z"
       fill="#ffffff"
       id="path73" />
    <path
       d="m 393.26875,108.952 a 22.57107,22.57107 0 0 1 -6.01563,-0.8711 c -4.27148,-1.18554 -9.7749,-4.45019 -11.73633,-13.26953 a 24.33784,24.33784 0 0 1 0.2461,-11.70508 c 2.187,-8.16992 8.42431,-13.04785 16.68457,-13.04785 a 21.81423,21.81423 0 0 1 2.62207,0.16113 c 9.17529,1.11231 14.82617,7.53125 15.5039,17.61133 0.0254,0.35938 0.0396,0.73242 0.0513,1.05762 l 0.0122,0.3125 c 0.003,0.07715 0.004,0.15332 0.002,0.23047 -0.0879,4.09082 -0.74853,10.05957 -5.44775,14.6416 a 16.55,16.55 0 0 1 -11.92285,4.87891 z m -0.5542,-29.708 a 6.77385,6.77385 0 0 0 -6.01172,3.36426 13.04019,13.04019 0 0 0 -0.0391,13.58886 6.73961,6.73961 0 0 0 6.03222,3.501 7.26481,7.26481 0 0 0 6.23584,-3.501 11.7444,11.7444 0 0 0 1.64014,-6.56445 c -0.001,-0.05078 -0.002,-0.10059 -0.001,-0.15039 a 11.8982,11.8982 0 0 0 -1.7539,-7.03613 7.253,7.253 0 0 0 -6.10252,-3.20215 z"
       fill="#5e5f5f"
       id="path75" />
    <path
       d="m 392.44784,73.55759 a 18.25379,18.25379 0 0 1 2.19955,0.13617 c 7.5568,0.91632 11.87423,6.04742 12.43372,14.3717 0.0334,0.46973 0.0437,0.93945 0.0591,1.29114 -0.1001,4.64593 -1.01392,8.91717 -4.39192,12.21039 a 13.113,13.113 0 0 1 -9.47977,3.885 19.04028,19.04028 0 0 1 -5.0793,-0.7432 c -5.31593,-1.476 -8.10089,-5.46478 -9.256,-10.65753 a 20.8606,20.8606 0 0 1 0.2105,-10.03888 c 1.78673,-6.6749 6.75078,-10.45483 13.30409,-10.45483 m 0.24806,29.64035 a 10.7497,10.7497 0 0 0 9.2208,-5.17313 15.168,15.168 0 0 0 2.15358,-8.486 15.3966,15.3966 0 0 0 -2.33071,-9.0199 10.735,10.735 0 0 0 -9.0247,-4.7749 10.25667,10.25667 0 0 0 -9.05611,5.13684 16.56484,16.56484 0 0 0 -0.0461,17.03094 10.28384,10.28384 0 0 0 9.08328,5.28611 m -0.248,-36.64035 c -9.79408,0 -17.48294,5.99475 -20.066,15.6448 a 27.79778,27.79778 0 0 0 -0.28086,13.37189 c 1.82406,8.2002 6.87281,13.8407 14.21557,15.87939 a 26.07679,26.07679 0 0 0 6.952,0.99836 20.20461,20.20461 0 0 0 14.36893,-5.87543 c 5.61525,-5.47434 6.39975,-12.36365 6.50111,-17.06925 q 0.005,-0.22883 -0.005,-0.4577 l -0.0106,-0.27826 c -0.0132,-0.36541 -0.0296,-0.78384 -0.0593,-1.2023 -0.78733,-11.71484 -7.73137,-19.50973 -18.57346,-20.82443 a 25.3421,25.3421 0 0 0 -3.04218,-0.18707 z m 0.248,29.64035 a 3.30091,3.30091 0 0 1 -2.98121,-1.7161 9.62057,9.62057 0 0 1 0.0316,-10.14523 3.34052,3.34052 0 0 1 2.96861,-1.59256 3.7689,3.7689 0 0 1 3.18223,1.63052 8.50166,8.50166 0 0 1 1.17408,5.04965 q -0.002,0.15135 0.002,0.30265 a 8.19588,8.19588 0 0 1 -1.12494,4.64108 3.75879,3.75879 0 0 1 -3.252,1.83 z"
       fill="#ffffff"
       id="path77" />
    <path
       d="m 359.90449,108.39828 a 4.71265,4.71265 0 0 1 -3.49365,-1.31347 4.873,4.873 0 0 1 -1.27784,-3.61914 c 0.0357,-3.42578 0.0303,-6.85156 0.0244,-10.27735 l -0.004,-3.793 0.004,-3.80665 c 0.005,-3.42285 0.01,-6.8457 -0.022,-10.26855 a 4.739,4.739 0 0 1 1.2539,-3.48438 4.60407,4.60407 0 0 1 3.41455,-1.29 c 3.03614,0.02343 6.00928,0.03906 8.98291,0.03906 q 4.16163,0 8.32373,-0.04688 h 0.003 a 4.41137,4.41137 0 0 1 4.71778,4.62891 l 0.004,0.10059 a 4.7,4.7 0 0 1 -1.187,3.55957 4.57655,4.57655 0 0 1 -3.45215,1.334 c -1.93848,-0.02246 -3.78906,-0.02637 -5.63965,-0.02637 l -3.355,0.002 q -1.5813,0 -3.16308,-0.0068 c 0.0156,1.42676 0.0156,2.76953 0,4.04785 0.59814,-0.002 5.64892,10e-4 5.64892,10e-4 1.69873,0 3.39746,-0.0068 5.09571,-0.03516 0.02,-0.001 0.10791,-0.0019 0.12793,-0.0019 2.207,0 4.59277,1.249 4.67089,4.75488 a 4.77635,4.77635 0 0 1 -1.24072,3.55274 4.6417,4.6417 0 0 1 -3.46435,1.31738 l -0.125,-0.001 c -1.71045,-0.02441 -3.42334,-0.02929 -5.13672,-0.02929 0,0 -4.81836,10e-4 -5.58252,-0.002 0.0166,1.77149 0.0166,3.45313 -4.9e-4,5.07617 1.02344,-0.0039 6.51416,-0.0029 6.51416,-0.0029 1.99609,0 3.99267,-0.0039 5.98877,-0.02636 l 0.11474,-10e-4 a 4.48044,4.48044 0 0 1 4.80127,4.88477 4.44117,4.44117 0 0 1 -4.75048,4.72851 v 0 c -3.02442,-0.0244 -5.96387,-0.0381 -8.90381,-0.0381 q -4.40625,0 -8.813,0.043 z"
       fill="#5e5f5f"
       id="path79" />
    <path
       d="m 377.20072,74.03738 c 1.13414,0 1.10222,0.54084 1.13765,1.37873 0.038,0.91015 -0.17318,1.24511 -1.14354,1.24511 l -0.0449,-2.4e-4 c -1.85858,-0.02191 -3.71711,-0.026 -5.57569,-0.026 q -1.68385,0 -3.36764,0.0015 c -1.806,0 -3.61209,-0.0039 -5.41808,-0.02423 l -0.0591,-3.6e-4 c -0.97848,0 -1.24963,0.3201 -1.227,1.29663 0.059,2.821 0.0719,5.64447 -0.008,8.46289 -0.03,1.089 0.35307,1.32242 1.315,1.32242 l 0.0813,-5.2e-4 c 1.3176,-0.01489 2.63506,-0.01853 3.95337,-0.01853 1.26642,0 2.53316,0.0034 3.79984,0.0034 1.73294,0 3.46647,-0.0063 5.19906,-0.03616 l 0.0658,-5.5e-4 c 1.0475,0 1.154,0.42981 1.17405,1.3327 0.0226,0.97281 -0.229,1.29169 -1.207,1.29169 l -0.0712,-5.5e-4 c -1.715,-0.0242 -3.42979,-0.029 -5.14462,-0.029 q -1.67478,0 -3.34905,0.002 c -1.52906,0 -3.05839,-0.0038 -4.587,-0.02179 l -0.0482,-2.7e-4 c -0.9309,0 -1.1888,0.29855 -1.17362,1.23239 0.0539,3.20593 0.0616,6.41449 -0.005,9.61792 -0.0227,1.0415 0.35082,1.258 1.27681,1.258 l 0.0502,-2.1e-4 c 1.7725,-0.0157 3.545,-0.0188 5.318,-0.0188 q 1.68846,0 3.37683,0.001 c 2.01813,0 4.03665,-0.004 6.05429,-0.0261 l 0.0729,-4.6e-4 c 0.99277,0 1.32053,0.26749 1.30545,1.33518 -0.0152,0.996 -0.28029,1.27859 -1.25313,1.27859 l -0.0534,-2.7e-4 q -4.424,-0.0366 -8.8479,-0.0379 -4.42392,0 -8.84784,0.043 l -0.0427,1.9e-4 c -1.08924,0 -1.28429,-0.393 -1.2741,-1.39655 0.0488,-4.70245 0.0205,-9.40491 0.0205,-14.1073 0,-4.70239 0.0256,-9.40491 -0.018,-14.10736 -0.0101,-0.92334 0.20767,-1.24252 1.169,-1.24252 l 0.0348,1.5e-4 q 4.47193,0.03579 8.94479,0.03952 4.1844,0 8.36853,-0.04721 l 0.0482,-3.1e-4 m 0,-7 c -0.0298,0 -0.10784,4.9e-4 -0.13762,8.6e-4 -2.61058,0.0314 -5.32044,0.04669 -8.27913,0.04669 -2.67757,0 -5.5851,-0.01288 -8.88873,-0.03934 l -0.0909,-3.6e-4 a 7.87438,7.87438 0 0 0 -8.16856,8.31927 c 0.0313,3.38233 0.0262,6.85248 0.0213,10.20835 q -0.003,1.9111 -0.004,3.82226 0,1.89849 0.004,3.797 c 0.005,3.3623 0.011,6.83908 -0.0242,10.23767 a 8.23111,8.23111 0 0 0 2.29121,6.11792 8.14663,8.14663 0 0 0 5.98252,2.35123 l 0.10354,-4.6e-4 c 2.83513,-0.0284 5.78842,-0.0427 8.787,-0.0427 2.81518,0 5.77255,0.0126 8.79,0.0376 l 0.1113,4.9e-4 a 7.93882,7.93882 0 0 0 8.2523,-8.17184 8.20587,8.20587 0 0 0 -2.28158,-6.08161 7.62823,7.62823 0 0 0 -2.88021,-1.84607 7.64208,7.64208 0 0 0 1.05616,-0.9003 8.89253,8.89253 0 0 0 -0.44983,-12.26837 7.63072,7.63072 0 0 0 1.77855,-1.37555 8.065,8.065 0 0 0 2.15817,-6.12561 l -0.004,-0.09427 a 7.842,7.842 0 0 0 -8.12779,-7.99292 z"
       fill="#ffffff"
       id="path81" />
    <path
       d="m 332.85615,108.42563 a 4.73109,4.73109 0 0 1 -3.49414,-1.32031 5.04339,5.04339 0 0 1 -1.29736,-3.7959 q 0.019,-6.873 0.0166,-13.76367 0.002,-6.89209 0.0161,-13.78418 l -0.002,-0.01172 a 4.43939,4.43939 0 0 1 0.79345,-3.626 4.04159,4.04159 0 0 1 2.96973,-1.48047 c 0.0718,-0.0068 0.16406,-0.02441 0.25781,-0.03906 a 8.36448,8.36448 0 0 1 1.35743,-0.12891 5.00271,5.00271 0 0 1 4.30029,2.32227 c 1.042,1.584 2.11035,3.15039 3.17871,4.71777 0,0 6.85205,10.10254 7.895,11.64063 -0.0366,-4.55469 -0.0776,-9.24219 -0.17578,-13.84668 a 4.35833,4.35833 0 0 1 4.66943,-4.749 l 0.13574,3.5 v -3.5 l 0.51319,-0.0068 a 4.51353,4.51353 0 0 1 3.31494,1.25683 4.63352,4.63352 0 0 1 1.27148,3.43457 c -0.0591,9.8877 -0.0391,19.8711 -0.0156,28.45313 a 4.36934,4.36934 0 0 1 -4.45606,4.708 c -0.14306,0.006 -0.27539,0.009 -0.40478,0.009 a 6.42553,6.42553 0 0 1 -5.6836,-3.10352 c -3.36767,-5.06836 -6.83545,-10.18359 -10.23535,-15.18359 q 0.0461,6.602 0.124,13.2041 c 0.0351,3.11914 -1.78711,5.02051 -4.87452,5.0918 -0.0268,9.7e-4 -0.1479,0.002 -0.17475,0.002 z"
       fill="#5e5f5f"
       id="path83" />
    <path
       d="m 333.47405,73.97543 a 1.51729,1.51729 0 0 1 1.37593,0.74506 c 1.50422,2.28705 3.06226,4.53815 4.59723,6.80469 q 5.97563,8.81323 11.95374,17.6239 c 0.22589,0.33111 0.3465,0.788 0.98823,0.93426 0,-2.20233 0.0154,-4.35333 -0.005,-6.50689 -0.0539,-6.1142 -0.0821,-12.2284 -0.213,-18.34259 -0.0264,-1.138 0.5002,-1.17368 1.17036,-1.17368 l 0.13622,1.8e-4 c 0.0682,0 0.13766,-3.6e-4 0.20782,-0.0021 0.10648,-0.0026 0.20829,-0.0051 0.305,-0.0051 0.67029,0 1.093,0.12064 1.08624,1.17044 -0.0564,9.49469 -0.0411,18.98944 -0.0154,28.48413 0.002,0.85218 -0.172,1.16022 -1.10889,1.2013 q -0.12866,0.005 -0.25125,0.005 a 2.9758,2.9758 0 0 1 -2.76993,-1.54035 c -5.08746,-7.65686 -10.28271,-15.24444 -15.4472,-22.85 a 3.923,3.923 0 0 0 -1.01392,-1.28082 c -0.40556,0.172 -0.25671,0.50567 -0.25415,0.7854 0.0514,7.78265 0.0899,15.5653 0.18994,23.348 0.0129,1.132 -0.22841,1.51959 -1.45532,1.54779 -0.0328,7.3e-4 -0.0647,0.001 -0.096,0.001 -1.25354,0 -1.29508,-0.601 -1.29009,-1.59769 0.0256,-9.238 0.008,-18.47607 0.0333,-27.71667 0.003,-0.50824 -0.41321,-1.42463 0.45691,-1.47339 0.44951,-0.02622 0.94322,-0.16236 1.41935,-0.16236 m 5.8e-4,-7 h -2.7e-4 a 11.78444,11.78444 0 0 0 -1.90526,0.17176 l -0.0867,0.01339 a 7.4797,7.4797 0 0 0 -5.31787,2.76606 7.71175,7.71175 0 0 0 -1.56788,6.08145 q -0.0177,6.74542 -0.0156,13.45932 -0.003,6.92083 -0.0166,13.841 a 8.42626,8.42626 0 0 0 2.31715,6.26569 8.16474,8.16474 0 0 0 5.97291,2.35141 c 0.0834,0 0.1685,-0.001 0.256,-0.003 5.01913,-0.11533 8.35228,-3.58167 8.29491,-8.62558 q -0.0103,-0.80091 -0.0198,-1.60358 1.87019,2.7799 3.71519,5.5545 a 9.9468,9.9468 0 0 0 8.60027,4.66648 q 0.26472,0 0.54177,-0.0114 a 7.88682,7.88682 0 0 0 7.81835,-8.21583 c -0.0233,-8.59454 -0.0432,-18.589 0.0153,-28.422 a 8.06822,8.06822 0 0 0 -2.28815,-5.92154 7.92357,7.92357 0 0 0 -5.798,-2.29053 c -0.14863,0 -0.30493,0.003 -0.46824,0.007 l -0.10073,1.5e-4 -0.0801,-1.2e-4 a 7.96307,7.96307 0 0 0 -5.9344,2.33759 8.04741,8.04741 0 0 0 -2.23406,5.99865 q 0.0231,1.07749 0.0421,2.162 -0.681,-1.00535 -1.37,-2.014 c -1.045,-1.533 -2.12566,-3.11825 -3.1466,-4.67056 a 8.5135,8.5135 0 0 0 -7.2238,-3.8985 z"
       fill="#ffffff"
       id="path85" />
    <g
       id="Neogeo_Pocket_Logo"
       data-name="Neogeo Pocket Logo">
      <path
         id="T"
         d="m 656.1071,90.62962 c 0,-4.18848 -0.0525,-8.378 0.0323,-12.56479 0.025,-1.23556 -0.37992,-1.49514 -1.51391,-1.45491 -2.305,0.08182 -4.617,-0.03344 -6.92205,0.04815 -1.18212,0.04184 -1.01464,-0.65609 -1.05481,-1.38809 -0.0447,-0.81628 0.10838,-1.22777 1.09118,-1.22164 q 9.87244,0.06156 19.74531,-0.0046 c 1.11619,-0.0089 1.01,0.59191 0.99524,1.29327 -0.014,0.66786 0.18562,1.35972 -0.966,1.32173 -2.43348,-0.08028 -4.87269,0.01966 -7.30708,-0.0457 -0.98572,-0.02645 -1.21342,0.32029 -1.21,1.25172 q 0.0473,12.8217 0.007,25.64365 c -7.9e-4,0.43345 0.26611,1.09435 -0.2753,1.26211 a 4.10482,4.10482 0 0 1 -2.39535,-0.009 c -0.40028,-0.12466 -0.2204,-0.68578 -0.22115,-1.05324 q -0.0134,-6.53913 -0.006,-13.07828 z"
         fill="#5e5f5f" />
      <path
         id="E"
         d="m 645.47485,103.55119 c -0.036,0.89839 -0.10528,1.35786 -1.227,1.34758 q -8.9133,-0.0924 -17.82923,-0.005 c -1.04472,0.008 -1.28341,-0.31573 -1.27314,-1.30909 0.0488,-4.70245 0.0205,-9.40745 0.0205,-14.10989 0,-4.74608 0.0205,-9.49217 -0.0154,-14.23825 -0.008,-0.85988 0.19252,-1.19357 1.12939,-1.18587 q 8.72078,0.05777 17.4442,-0.0051 c 1.09861,-0.01026 1.10632,0.50824 1.12688,1.32706 0.0205,0.88556 -0.12835,1.29882 -1.1705,1.286 -4.78718,-0.05391 -9.57687,0 -14.36663,-0.04365 -0.98562,-0.01026 -1.33982,0.231 -1.31419,1.28085 0.0719,2.862 0.0667,5.72918 0.003,8.59121 -0.0231,0.9985 0.3337,1.21411 1.25773,1.20641 4.36111,-0.04364 8.7221,0.0154 13.08321,-0.0462 1.03952,-0.01284 1.29877,0.30032 1.28593,1.29882 -0.0128,0.95486 -0.18481,1.33731 -1.26287,1.31934 -4.36105,-0.06417 -8.7221,0.0051 -13.08315,-0.04877 -1.037,-0.0154 -1.29883,0.3183 -1.28085,1.31424 q 0.0885,4.74348 0,9.48958 c -0.0205,1.00876 0.26439,1.31679 1.28856,1.30653 4.95914,-0.0488 9.92079,0.003 14.87994,-0.0436 0.98572,-0.0103 1.34763,0.22844 1.30401,1.26801 z"
         fill="#5e5f5f" />
      <path
         id="K"
         d="m 623.90381,104.85514 c -1.29883,0 -2.34355,0.0231 -3.38564,-0.008 -0.6058,-0.0179 -0.80345,-0.59293 -1.10118,-0.98565 -3.65517,-4.79228 -7.31805,-9.57943 -10.927,-14.40508 -0.64428,-0.86245 -1.06264,-0.9754 -1.85068,-0.18482 -1.2064,1.209 -2.495,2.3384 -3.80406,3.437 a 2.18551,2.18551 0 0 0 -0.80853,1.89176 c 0.0359,3.07763 -0.0385,6.15784 0.0436,9.23292 0.0308,1.19357 -0.64941,1.08062 -1.37578,1.02928 -0.67,-0.0488 -1.55038,0.39274 -1.54524,-0.98308 q 0.0654,-14.43076 0.003,-28.85893 c -0.005,-1.2783 0.806,-0.93947 1.45281,-0.9369 0.64171,0.0026 1.47593,-0.35166 1.45795,0.93176 -0.0539,4.53047 -0.0282,9.06349 -0.0103,13.59652 0.003,0.38759 -0.25668,0.94461 0.24133,1.13712 0.38759,0.14887 0.63143,-0.3491 0.89839,-0.59551 4.90776,-4.51764 9.89253,-8.95569 14.654,-13.61963 1.6017,-1.56834 3.22909,-1.52983 5.46223,-1.381 -2.87484,2.6156 -5.49557,4.99762 -8.1163,7.37708 -1.58121,1.43742 -3.129,2.91849 -4.76406,4.28919 -0.79318,0.6648 -0.7213,1.11143 -0.12321,1.85581 4.25841,5.298 8.4757,10.62669 12.70327,15.95032 0.2541,0.3209 0.48509,0.66485 0.89581,1.22955 z"
         fill="#5e5f5f" />
      <path
         id="C"
         d="m 592.91109,96.69 q -3.31511,8.68617 -12.27462,8.69387 c -6.43758,-0.005 -10.83461,-3.04683 -12.82647,-9.20981 -2.05347,-6.36318 -1.64532,-12.45172 2.57711,-17.99094 4.73837,-6.21688 18.11161,-7.20768 22.21084,3.24447 0.19251,0.49284 0.65455,1.17561 -0.2721,1.268 -0.75721,0.07188 -1.72234,1.30909 -2.34863,-0.23358 -1.32453,-3.25988 -3.36258,-5.80106 -7.04859,-6.41709 -4.21472,-0.70331 -7.80572,0.45946 -10.42131,3.97346 -2.75164,3.69625 -3.14181,7.94693 -2.67205,12.35161 a 12.23209,12.23209 0 0 0 3.16486,7.54136 10.51888,10.51888 0 0 0 17.49816,-4.569 c 0.213,-0.86245 0.6622,-0.91379 1.40148,-0.70845 1.62734,0.44673 1.63248,0.4211 1.01132,2.0561 z"
         fill="#5e5f5f" />
      <path
         id="O"
         d="m 562.47318,88.09628 c -0.54417,-8.37046 -4.9206,-13.54777 -12.53131,-14.41793 -7.59522,-0.87014 -13.40914,2.9416 -15.39844,10.30585 a 20.85012,20.85012 0 0 0 -0.22585,10.03632 c 1.14737,5.19528 3.92213,9.18929 9.23547,10.678 5.30306,1.48619 10.39568,0.93945 14.56679,-3.10845 3.38564,-3.28812 4.30973,-7.55675 4.35848,-12.08465 0,-0.46969 0.0257,-0.93942 -0.005,-1.40914 z m -5.321,10.17492 a 10.71493,10.71493 0 0 1 -17.79846,0.28749 c -3.39078,-4.91291 -3.34714,-13.48615 0.0924,-18.37854 a 10.8483,10.8483 0 0 1 17.7086,0.36706 15.51952,15.51952 0 0 1 2.305,8.92746 15.15775,15.15775 0 0 1 -2.30761,8.79653 z"
         fill="#5e5f5f" />
      <path
         d="m 545.15563,38.79985 a 0.83083,0.83083 0 0 1 0.144,-1.2953 q 6.85159,-5.992 13.63324,-12.06364 c 0.58861,-0.5267 0.81425,-0.40977 1.17956,0.20053 q 2.01588,3.36768 4.12273,6.68048 c 0.32462,0.512 0.28682,0.77972 -0.25158,1.06642 -0.55474,0.29541 -1.06256,0.679 -1.59075,1.02387 -4.46862,2.76064 -8.949,5.503 -13.39449,8.30086 -0.72341,0.45529 -1.03939,0.34269 -1.45736,-0.3438 -0.74359,-1.22119 -1.58492,-2.38286 -2.38535,-3.56942 z"
         fill="#dd2427"
         id="path92" />
      <path
         d="m 529.93794,7.45892 0.36887,0.05712 a 0.68666,0.68666 0 0 0 0.6663,0.09637 l 0.37283,0.06876 a 1.3626,1.3626 0 0 0 1.0098,0.131 l 0.36432,0.06125 a 0.70243,0.70243 0 0 0 0.67061,0.09576 l 0.36812,0.06821 a 1.045,1.045 0 0 0 0.83928,0.09935 l 0.37048,0.06684 c 0.34317,0.31277 0.12046,0.63949 0.009,0.94988 -0.39943,1.108 -0.81286,2.21093 -1.22026,3.316 q -2.74239,7.43934 -5.48347,14.87915 c -0.1605,0.43578 -0.26861,0.90728 -0.92067,0.76823 q -1.97991,-0.4222 -3.9662,-0.81411 c -0.4373,-0.08574 -0.53791,-0.30443 -0.47207,-0.73172 q 0.89838,-5.8315 1.76461,-11.66794 c 0.28741,-1.9262 0.55665,-3.8551 0.8341,-5.78278 l 0.0669,-0.36968 a 0.68608,0.68608 0 0 0 0.0992,-0.667 l 0.0601,-0.37475 c 0.117,-0.67958 0.50329,-0.83413 1.128,-0.61768 a 2.28972,2.28972 0 0 0 0.65411,0.02981 l 0.36711,0.05308 a 0.68962,0.68962 0 0 0 0.66726,0.08028 l 0.54043,0.09614 a 0.99882,0.99882 0 0 0 0.84163,0.10843 z"
         fill="#dd2427"
         id="path94" />
      <path
         d="m 535.84261,30.68437 c -0.14975,-0.41761 0.1213,-0.72182 0.30388,-1.03375 q 4.70659,-8.04067 9.41738,-16.07885 c 0.309,-0.52988 0.53182,-0.68666 1.10147,-0.27841 1.93967,1.3902 3.91206,2.73553 5.89093,4.06985 0.46455,0.31325 0.57,0.5441 0.16056,0.99594 -0.557,0.6147 -1.04747,1.28974 -1.56635,1.9389 -0.23127,0.25328 -0.4725,0.49829 -0.69251,0.76111 q -4.86692,5.81433 -9.71833,11.64157 c -0.39535,0.47748 -0.70216,0.54355 -1.22026,0.21359 -1.20873,-0.76979 -2.44918,-1.48978 -3.67677,-2.22995 z"
         fill="#dd2427"
         id="path96" />
      <path
         id="P"
         d="m 503.65418,65.33822 0.005,0.0587 c 0.057,0.095 0.1122,0.18817 0.16918,0.28313 l 0.002,0.06214 c 0.057,0.095 0.11392,0.18817 0.17091,0.28313 l 0.003,0.06215 a 0.52641,0.52641 0 0 0 0.22271,0.473 c 0.0414,0.08632 0.0846,0.17091 0.126,0.25377 l -0.019,0.06043 0.0622,0.02589 0.11393,0.22271 a 0.76018,0.76018 0 0 0 0.35218,0.63184 c 1.29478,2.62581 2.574,5.25852 3.88606,7.874 q 6.88563,13.71425 13.80747,27.40951 c 0.40053,0.79241 0.36256,1.17048 -0.51618,1.40354 a 5.16816,5.16816 0 0 0 -0.92706,0.442 c -0.0898,0.0535 -0.17953,0.10876 -0.2693,0.164 -0.076,0.0207 -0.15194,0.0414 -0.22789,0.0604 q -1.90592,0.80277 -3.81011,1.60381 c -1.06688,0.45058 -1.06861,0.4523 -1.57615,-0.58179 q -11.44064,-23.31891 -22.883,-46.63434 c -1.60726,-3.27665 -3.2404,-6.54121 -4.86317,-9.81094 a 1.86332,1.86332 0 0 0 -0.0932,-0.32629 c -0.71644,-1.5123 -0.71817,-1.514 0.82521,-2.24772 6.98487,-3.31981 13.97839,-6.62235 20.95116,-9.968 a 44.96722,44.96722 0 0 1 6.40657,-2.96071 c 12.416,-3.72378 25.67142,4.0846 27.42851,16.97363 a 24.84851,24.84851 0 0 1 -4.0794,17.5209 l -0.002,0.0017 a 1.49446,1.49446 0 0 0 -0.259,0.2158 31.191,31.191 0 0 1 -13.09278,9.52091 1.33338,1.33338 0 0 1 -1.609,-0.27449 c -0.92187,-0.82348 -1.89209,-1.59 -2.84505,-2.37721 Q 513.91054,69.8052 506.69433,63.857 a 1.05487,1.05487 0 0 1 -0.40053,-1.388 c 0.73716,-1.93181 1.42252,-3.88433 2.09579,-5.8403 0.73889,-2.14242 1.60553,-4.24 2.21494,-6.42726 0.0259,-0.04833 1.18947,-3.14544 1.18947,-3.14544 0.0639,-0.04834 0.126,-0.0984 0.18817,-0.14674 3.38542,0 13.35519,-0.10185 14.9538,-0.08632 0.34355,0.0052 0.69571,-0.06388 0.94087,0.26586 0.002,0.17781 0.007,6.06818 -0.002,7.46654 -0.97024,0.038 -1.94044,0.10358 -2.9124,0.11048 -2.25806,0.01554 -4.51789,0.0052 -6.776,0.0052 -0.37461,0 -0.75267,-0.04316 -0.87353,0.46612 -0.21061,0.88735 -0.45058,1.76953 -0.67675,2.65343 -0.11219,0.09668 -0.86318,2.997 -1.09278,3.61328 a 0.91462,0.91462 0 0 0 0.43332,1.22227 c 2.80362,1.9577 5.58307,3.94648 8.37461,5.91625 1.97152,1.39146 1.99912,1.41217 3.79455,-0.15709 a 54.152,54.152 0 0 0 5.47086,-6.86921 v -0.0017 a 4.19917,4.19917 0 0 0 0.32973,-0.49029 c 2.41691,-4.88561 1.70221,-9.5399 -1.09795,-14.00774 a 11.59361,11.59361 0 0 0 -10.46871,-5.72117 20.158,20.158 0 0 0 -9.1135,2.31678 c -4.85106,2.45317 -9.70217,4.9046 -14.52735,7.40956 -2.31507,1.19983 -2.01295,0.51274 -0.89252,2.92965 0.0224,0.05006 0.0777,0.08114 0.11911,0.12257 z"
         fill="#dd2427" />
      <path
         id="O-2"
         data-name="O"
         d="m 492.27059,87.71125 c -0.51594,-7.36939 -4.69732,-13.30905 -12.50305,-14.06113 -6.78926,-0.652 -12.598,2.16641 -15.07758,9.22521 a 17.32316,17.32316 0 0 0 -0.91895,6.5634 c 0,0.72642 -0.0539,1.458 0.008,2.17924 0.5801,6.84062 4.59721,12.88038 12.34907,13.66326 7.30006,0.73668 13.268,-2.56427 15.42664,-9.94649 a 21.6082,21.6082 0 0 0 0.71616,-7.62349 z m -5.82927,11.3146 a 10.72446,10.72446 0 0 1 -17.13363,-0.28234 c -3.57558,-4.98224 -3.42418,-13.80188 0.10011,-18.8149 3.9221,-5.57518 14.88251,-6.07315 18.51972,2.323 a 17.64589,17.64589 0 0 1 1.37836,7.25131 15.03773,15.03773 0 0 1 -2.86456,9.52293 z"
         fill="#5e5f5f" />
      <path
         id="E-2"
         data-name="E"
         d="m 462.92536,103.57686 c -0.0154,0.9754 -0.22329,1.327 -1.28085,1.31679 q -8.91716,-0.077 -17.83694,-0.003 c -0.9677,0.008 -1.22695,-0.26182 -1.21668,-1.21668 0.0462,-4.74864 0.0206,-9.49729 0.0206,-14.24593 0,-4.705 0.0179,-9.41 -0.0154,-14.11505 -0.008,-0.88042 0.12064,-1.28084 1.16279,-1.27057 q 8.66307,0.08085 17.32614,0 c 1.05753,-0.01027 1.15507,0.41326 1.16278,1.27828 0.0103,0.92406 -0.12577,1.35785 -1.23209,1.34245 -4.74865,-0.06674 -9.4973,-0.0051 -14.24594,-0.04877 -0.978,-0.01026 -1.33988,0.20022 -1.31165,1.2629 0.0796,2.90564 0.0565,5.81644 0.0102,8.72467 -0.0128,0.84705 0.249,1.096 1.0909,1.08833 4.40473,-0.03594 8.812,0.02567 13.21663,-0.0462 1.132,-0.018 1.21157,0.45946 1.22439,1.35785 0.0129,0.9061 -0.16939,1.27573 -1.191,1.26033 -4.32,-0.05905 -8.64255,0.0051 -12.96252,-0.04622 -1.01646,-0.01283 -1.4169,0.19251 -1.38867,1.31679 0.0796,3.16234 0.0667,6.32982 0.005,9.49474 -0.0205,0.99848 0.231,1.31422 1.27574,1.30137 4.95911,-0.0565 9.92339,0.003 14.88507,-0.0488 1.01904,-0.0103 1.31424,0.27722 1.3014,1.29626 z"
         fill="#5e5f5f" />
      <path
         id="G"
         d="m 438.91863,99.98842 a 1.36459,1.36459 0 0 1 -0.54163,1.33475 c -5.70864,3.85026 -11.87418,5.38267 -18.48122,2.95443 -5.65985,-2.0817 -8.68616,-6.42735 -9.15074,-12.46455 a 21.27573,21.27573 0 0 1 0.83679,-8.37045 c 2.47954,-7.52853 8.95052,-10.49322 16.34816,-9.77451 4.86928,0.4723 8.48341,2.71058 10.20574,7.49516 0.19508,0.539 0.43121,1.18331 -0.45176,1.22437 -0.75464,0.03337 -1.689,1.31679 -2.26911,-0.10266 -1.89172,-4.646 -5.39546,-6.62243 -10.2904,-6.41966 a 10.94432,10.94432 0 0 0 -10.11594,6.67377 c -2.53087,5.375 -1.57858,13.09857 2.03555,16.92572 3.50113,3.70651 7.85447,4.14544 12.53638,3.2188 a 16.51348,16.51348 0 0 0 5.7369,-2.46415 1.5412,1.5412 0 0 0 0.788,-1.47593 c -0.0385,-1.87893 -0.0513,-3.763 0.005,-5.6419 0.0231,-0.86759 -0.30547,-1.09348 -1.11914,-1.08065 -2.52322,0.04107 -5.04895,-0.04106 -7.567,0.04107 -1.08319,0.03594 -1.1525,-0.45689 -1.14223,-1.30138 0.0102,-0.81882 0.018,-1.37583 1.12425,-1.31678 1.748,0.095 3.5063,0.02566 5.25944,0.02566 1.70952,0 3.42161,0.04877 5.12853,-0.018 0.92409,-0.03594 1.14994,0.30031 1.13713,1.17561 -0.0437,3.11873 -0.0206,6.24001 -0.0128,9.36128 z"
         fill="#5e5f5f" />
      <path
         id="O-3"
         data-name="O"
         d="m 407.08115,88.06548 c -0.55955,-8.32426 -4.877,-13.45537 -12.43374,-14.37173 -7.63119,-0.92662 -13.5221,2.91594 -15.50369,10.31868 a 20.86052,20.86052 0 0 0 -0.21047,10.03889 c 1.15508,5.19272 3.94006,9.18158 9.256,10.65751 5.30823,1.47336 10.39825,0.91893 14.55908,-3.1418 3.378,-3.29326 4.29177,-7.56448 4.39185,-12.21044 -0.0154,-0.35166 -0.0257,-0.82139 -0.059,-1.29111 z m -5.16447,9.95932 c -4.225,6.89965 -14.34348,6.933 -18.30409,-0.11294 a 16.565,16.565 0 0 1 0.0462,-17.031 c 3.822,-6.73537 13.807,-6.838 18.08078,-0.36192 a 15.39615,15.39615 0 0 1 2.33071,9.01987 15.16738,15.16738 0 0 1 -2.15358,8.48599 z"
         fill="#5e5f5f" />
      <path
         id="E-3"
         data-name="E"
         d="m 378.95186,103.61536 c -0.0154,1.0139 -0.29006,1.28855 -1.30651,1.27829 q -8.84793,-0.0731 -17.69578,0.005 c -1.12682,0.0103 -1.327,-0.37988 -1.31676,-1.39636 0.0487,-4.70244 0.0205,-9.40487 0.0205,-14.10731 0,-4.70244 0.0257,-9.40489 -0.0179,-14.10734 -0.0103,-0.93433 0.213,-1.25 1.20383,-1.24235 5.77024,0.04621 11.543,0.06161 17.31329,-0.0077 1.18334,-0.01541 1.14994,0.52876 1.18588,1.37838 0.0385,0.92406 -0.17967,1.25519 -1.18845,1.24491 -4.78712,-0.05646 -9.57431,0.0051 -14.36143,-0.04877 -1.02673,-0.01283 -1.30911,0.30033 -1.286,1.29627 0.059,2.82095 0.0719,5.64447 -0.008,8.46285 -0.0308,1.11913 0.37474,1.33475 1.39634,1.32192 4.31487,-0.04877 8.63487,0.0231 12.95227,-0.05134 1.10886,-0.018 1.21925,0.41069 1.23977,1.33219 0.0231,0.99594 -0.24126,1.30651 -1.27828,1.29111 -4.36105,-0.0616 -8.7221,0.0026 -13.08058,-0.04877 -0.97027,-0.01026 -1.23723,0.28236 -1.22182,1.2321 0.0539,3.206 0.0616,6.41451 -0.005,9.61792 -0.0231,1.0601 0.36447,1.26545 1.327,1.25776 4.91553,-0.0436 9.83356,0.0103 14.74906,-0.0436 1.04986,-0.0128 1.39384,0.24128 1.37843,1.33476 z"
         fill="#5e5f5f" />
      <path
         id="N"
         d="m 355.06127,103.70776 c 0.003,0.85219 -0.172,1.16021 -1.10886,1.20129 a 3.0268,3.0268 0 0 1 -3.02117,-1.535 c -5.08749,-7.65686 -10.28276,-15.24442 -15.44723,-22.85 a 3.923,3.923 0 0 0 -1.01392,-1.28086 c -0.40555,0.172 -0.25668,0.50567 -0.25412,0.78545 0.0514,7.78265 0.0899,15.5653 0.18995,23.34794 0.0128,1.132 -0.22842,1.51956 -1.45538,1.54781 -1.34759,0.0308 -1.3912,-0.575 -1.38609,-1.59658 0.0257,-9.238 0.008,-18.47608 0.0334,-27.71668 0.003,-0.50823 -0.41326,-1.42459 0.4569,-1.47336 0.92405,-0.05391 2.03548,-0.57242 2.79526,0.58266 1.50419,2.28706 3.06228,4.53816 4.59724,6.80468 q 5.97559,8.81323 11.95374,17.6239 c 0.22588,0.33112 0.34651,0.788 0.98822,0.93432 0,-2.20234 0.0154,-4.35335 -0.005,-6.50692 -0.0539,-6.11421 -0.0821,-12.22841 -0.213,-18.34262 -0.0308,-1.327 0.69049,-1.15507 1.51444,-1.1756 0.8445,-0.02053 1.39891,-0.03594 1.3912,1.16534 -0.0565,9.49478 -0.0411,18.98947 -0.0154,28.48423 z"
         fill="#5e5f5f" />
    </g>
  </g>
  <metadata
     id="metadata928">
    <rdf:RDF>
      <cc:Work
         rdf:about="">
        <dc:title>logo</dc:title>
      </cc:Work>
    </rdf:RDF>
  </metadata>
</svg>
