<?xml version="1.0" encoding="UTF-8" standalone="no"?>
<svg
   id="Layer_1"
   data-name="Layer 1"
   viewBox="0 0 204.16632 114.02859"
   version="1.1"
   sodipodi:docname="openbor.svg"
   width="204.16632"
   height="114.02859"
   inkscape:version="1.1 (c68e22c387, 2021-05-23)"
   xmlns:inkscape="http://www.inkscape.org/namespaces/inkscape"
   xmlns:sodipodi="http://sodipodi.sourceforge.net/DTD/sodipodi-0.dtd"
   xmlns:xlink="http://www.w3.org/1999/xlink"
   xmlns="http://www.w3.org/2000/svg"
   xmlns:svg="http://www.w3.org/2000/svg">
  <sodipodi:namedview
     id="namedview274"
     pagecolor="#ffffff"
     bordercolor="#666666"
     borderopacity="1.0"
     inkscape:pageshadow="2"
     inkscape:pageopacity="0.0"
     inkscape:pagecheckerboard="0"
     showgrid="false"
     fit-margin-top="0"
     fit-margin-left="0"
     fit-margin-right="0"
     fit-margin-bottom="0"
     inkscape:zoom="1.113"
     inkscape:cx="101.97664"
     inkscape:cy="56.603774"
     inkscape:window-width="1920"
     inkscape:window-height="1138"
     inkscape:window-x="-8"
     inkscape:window-y="-8"
     inkscape:window-maximized="1"
     inkscape:current-layer="Layer_1" />
  <defs
     id="defs145">
    <linearGradient
       id="linear-gradient"
       x1="580.70001"
       y1="34.98"
       x2="598.52002"
       y2="34.98"
       gradientUnits="userSpaceOnUse">
      <stop
         offset="0"
         stop-color="#30678c"
         id="stop2" />
      <stop
         offset="1"
         stop-color="#1f668e"
         id="stop4" />
    </linearGradient>
    <linearGradient
       id="linear-gradient-2"
       x1="509.47"
       y1="57"
       x2="593.32001"
       y2="57"
       xlink:href="#linear-gradient" />
    <linearGradient
       id="linear-gradient-3"
       x1="416.26999"
       y1="61.07"
       x2="509.26001"
       y2="61.07"
       xlink:href="#linear-gradient" />
    <linearGradient
       id="linear-gradient-4"
       x1="404.97"
       y1="54.380001"
       x2="432.87"
       y2="54.380001"
       xlink:href="#linear-gradient" />
    <linearGradient
       id="linear-gradient-5"
       x1="401.47"
       y1="26.18"
       x2="429.87"
       y2="26.18"
       xlink:href="#linear-gradient" />
    <linearGradient
       id="linear-gradient-6"
       x1="437.07999"
       y1="25.870001"
       x2="457.26999"
       y2="25.870001"
       xlink:href="#linear-gradient" />
    <linearGradient
       id="linear-gradient-7"
       x1="584.78003"
       y1="221.49001"
       x2="592.02002"
       y2="217.31"
       gradientTransform="matrix(1,0,0,-1,0,254)"
       gradientUnits="userSpaceOnUse">
      <stop
         offset="0"
         stop-color="#535758"
         id="stop12" />
      <stop
         offset="0.19"
         stop-color="#515455"
         id="stop14" />
      <stop
         offset="0.39"
         stop-color="#4b4d4d"
         id="stop16" />
      <stop
         offset="0.59"
         stop-color="#424241"
         id="stop18" />
      <stop
         offset="0.8"
         stop-color="#353433"
         id="stop20" />
      <stop
         offset="1"
         stop-color="#222"
         id="stop22" />
    </linearGradient>
    <linearGradient
       id="linear-gradient-8"
       x1="533.90002"
       y1="204.37"
       x2="575.78003"
       y2="180.19"
       gradientTransform="matrix(1,0,0,-1,0,254)"
       gradientUnits="userSpaceOnUse">
      <stop
         offset="0"
         stop-color="#898c90"
         id="stop25" />
      <stop
         offset="0.15"
         stop-color="#87898d"
         id="stop27" />
      <stop
         offset="0.31"
         stop-color="#7c7e82"
         id="stop29" />
      <stop
         offset="0.48"
         stop-color="#6c6e71"
         id="stop31" />
      <stop
         offset="0.65"
         stop-color="#57585a"
         id="stop33" />
      <stop
         offset="0.82"
         stop-color="#40403f"
         id="stop35" />
      <stop
         offset="0.99"
         stop-color="#252424"
         id="stop37" />
      <stop
         offset="1"
         stop-color="#222"
         id="stop39" />
    </linearGradient>
    <linearGradient
       id="linear-gradient-9"
       x1="583.51001"
       y1="205.2"
       x2="589.67999"
       y2="201.64"
       xlink:href="#linear-gradient-7" />
    <linearGradient
       id="linear-gradient-10"
       x1="417.5"
       y1="217.77"
       x2="508.70999"
       y2="175.24001"
       gradientTransform="matrix(1,0,0,-1,0,254)"
       gradientUnits="userSpaceOnUse">
      <stop
         offset="0"
         stop-color="#c77538"
         id="stop43" />
      <stop
         offset="0.6"
         stop-color="#d2c14e"
         id="stop45" />
      <stop
         offset="0.72"
         stop-color="#e2d78c"
         id="stop47" />
      <stop
         offset="0.86"
         stop-color="#f3eecc"
         id="stop49" />
      <stop
         offset="0.95"
         stop-color="#fdfcf3"
         id="stop51" />
      <stop
         offset="1"
         stop-color="#fff"
         id="stop53" />
    </linearGradient>
    <linearGradient
       id="linear-gradient-11"
       x1="419.29999"
       y1="180.53999"
       x2="433.88"
       y2="173.74001"
       gradientTransform="matrix(1,0,0,-1,0,254)"
       gradientUnits="userSpaceOnUse">
      <stop
         offset="0"
         stop-color="#cb8c3e"
         id="stop56" />
      <stop
         offset="1"
         stop-color="#ca9b41"
         id="stop58" />
    </linearGradient>
    <linearGradient
       id="linear-gradient-12"
       x1="406.10001"
       y1="202.78999"
       x2="428.48001"
       y2="192.35001"
       gradientTransform="matrix(1,0,0,-1,0,254)"
       gradientUnits="userSpaceOnUse">
      <stop
         offset="0"
         stop-color="#c77539"
         id="stop61" />
      <stop
         offset="1"
         stop-color="#ca8e3f"
         id="stop63" />
    </linearGradient>
    <linearGradient
       id="linear-gradient-13"
       x1="406.51001"
       y1="233.39999"
       x2="426.17999"
       y2="224.23"
       gradientTransform="matrix(1,0,0,-1,0,254)"
       gradientUnits="userSpaceOnUse">
      <stop
         offset="0"
         stop-color="#c36738"
         id="stop66" />
      <stop
         offset="1"
         stop-color="#ca7d3a"
         id="stop68" />
    </linearGradient>
    <linearGradient
       id="linear-gradient-14"
       x1="439.59"
       y1="231.37"
       x2="451.64001"
       y2="225.75"
       gradientTransform="matrix(1,0,0,-1,0,254)"
       gradientUnits="userSpaceOnUse">
      <stop
         offset="0"
         stop-color="#cb883d"
         id="stop71" />
      <stop
         offset="1"
         stop-color="#cb9641"
         id="stop73" />
    </linearGradient>
    <linearGradient
       id="linear-gradient-15"
       x1="450.22"
       y1="189.53999"
       x2="456.89999"
       y2="189.53999"
       gradientTransform="matrix(1,0,0,-1,0,254)"
       gradientUnits="userSpaceOnUse">
      <stop
         offset="0"
         stop-color="#1b6192"
         id="stop76" />
      <stop
         offset="1"
         stop-color="#2f668f"
         id="stop78" />
    </linearGradient>
    <radialGradient
       id="radial-gradient"
       cx="543.53998"
       cy="122.37"
       r="8.8199997"
       gradientTransform="matrix(0.42,0,0,-0.38,235.85,110.42)"
       gradientUnits="userSpaceOnUse">
      <stop
         offset="0"
         stop-color="#5e7188"
         id="stop81" />
      <stop
         offset="1"
         stop-color="#31678e"
         id="stop83" />
    </radialGradient>
    <radialGradient
       id="radial-gradient-2"
       cx="561.96002"
       cy="122.26"
       r="11.04"
       gradientTransform="matrix(0.42,0,0,-0.38,235.85,110.43)"
       gradientUnits="userSpaceOnUse">
      <stop
         offset="0.2"
         stop-color="#5e7188"
         id="stop86" />
      <stop
         offset="1"
         stop-color="#31678e"
         id="stop88" />
    </radialGradient>
    <radialGradient
       id="radial-gradient-3"
       cx="553.25"
       cy="51.41"
       r="9.6400003"
       gradientTransform="matrix(0.42,0,0,-0.84,235.85,107.4)"
       gradientUnits="userSpaceOnUse">
      <stop
         offset="0"
         stop-color="#787b84"
         id="stop91" />
      <stop
         offset="1"
         stop-color="#3e6da5"
         id="stop93" />
    </radialGradient>
    <linearGradient
       id="linear-gradient-16"
       x1="475.37"
       y1="189.53999"
       x2="482.34"
       y2="189.53999"
       gradientTransform="matrix(1,0,0,-1,0,254)"
       gradientUnits="userSpaceOnUse">
      <stop
         offset="0"
         stop-color="#2c668f"
         id="stop96" />
      <stop
         offset="1"
         stop-color="#1b6192"
         id="stop98" />
    </linearGradient>
    <linearGradient
       id="linear-gradient-17"
       x1="467.26001"
       y1="184.84"
       x2="474.22"
       y2="184.84"
       gradientTransform="matrix(1,0,0,-1,0,254)"
       gradientUnits="userSpaceOnUse">
      <stop
         offset="0"
         stop-color="#808387"
         id="stop101" />
      <stop
         offset="1"
         stop-color="#7e98ac"
         id="stop103" />
    </linearGradient>
    <linearGradient
       id="linear-gradient-18"
       x1="474.45001"
       y1="184.84"
       x2="478.60999"
       y2="184.84"
       gradientTransform="matrix(1,0,0,-1,0,254)"
       gradientUnits="userSpaceOnUse">
      <stop
         offset="0"
         stop-color="#7e98ac"
         id="stop106" />
      <stop
         offset="1"
         stop-color="#97b6d9"
         id="stop108" />
    </linearGradient>
    <linearGradient
       id="linear-gradient-19"
       x1="450.23999"
       y1="199.77"
       x2="457.73999"
       y2="199.77"
       gradientTransform="matrix(1,0,0,-1,0,254)"
       gradientUnits="userSpaceOnUse">
      <stop
         offset="0"
         stop-color="#7f8387"
         id="stop111" />
      <stop
         offset="1"
         stop-color="#7f8b96"
         id="stop113" />
    </linearGradient>
    <linearGradient
       id="linear-gradient-20"
       x1="459.51001"
       y1="199.77"
       x2="466.48999"
       y2="199.77"
       gradientTransform="matrix(1,0,0,-1,0,254)"
       gradientUnits="userSpaceOnUse">
      <stop
         offset="0"
         stop-color="#7d8c98"
         id="stop116" />
      <stop
         offset="1"
         stop-color="#7f94a6"
         id="stop118" />
    </linearGradient>
    <linearGradient
       id="linear-gradient-21"
       x1="467.98999"
       y1="199.77"
       x2="473.60999"
       y2="199.77"
       xlink:href="#linear-gradient-20" />
    <linearGradient
       id="linear-gradient-22"
       x1="475.10999"
       y1="199.77"
       x2="482.34"
       y2="199.77"
       gradientTransform="matrix(1,0,0,-1,0,254)"
       gradientUnits="userSpaceOnUse">
      <stop
         offset="0"
         stop-color="#7e9eb6"
         id="stop122" />
      <stop
         offset="1"
         stop-color="#80a6c3"
         id="stop124" />
    </linearGradient>
    <radialGradient
       id="radial-gradient-4"
       cx="548.01001"
       cy="84.760002"
       r="15.35"
       gradientTransform="matrix(0.42,0,0,-0.42,235.85,110.15)"
       gradientUnits="userSpaceOnUse">
      <stop
         offset="0"
         stop-color="#7b7e84"
         id="stop127" />
      <stop
         offset="0.24"
         stop-color="#757c88"
         id="stop129" />
      <stop
         offset="0.62"
         stop-color="#637792"
         id="stop131" />
      <stop
         offset="1"
         stop-color="#48709e"
         id="stop133" />
    </radialGradient>
    <linearGradient
       id="linear-gradient-23"
       x1="450.23999"
       y1="179.46001"
       x2="457.41"
       y2="179.46001"
       gradientTransform="matrix(1,0,0,-1,0,254)"
       gradientUnits="userSpaceOnUse">
      <stop
         offset="0"
         stop-color="#1f668e"
         id="stop136" />
      <stop
         offset="0.55"
         stop-color="#32688d"
         id="stop138" />
      <stop
         offset="1"
         stop-color="#426b8b"
         id="stop140" />
    </linearGradient>
    <radialGradient
       id="radial-gradient-5"
       cx="557.5"
       cy="85.510002"
       r="13.71"
       xlink:href="#radial-gradient-4" />
    <linearGradient
       id="linear-gradient-24"
       x1="476.76999"
       y1="179.46001"
       x2="482.34"
       y2="179.46001"
       gradientTransform="matrix(1,0,0,-1,0,254)"
       xlink:href="#linear-gradient" />
    <linearGradient
       inkscape:collect="always"
       xlink:href="#linear-gradient"
       id="linearGradient1236"
       gradientUnits="userSpaceOnUse"
       x1="580.70001"
       y1="34.98"
       x2="598.52002"
       y2="34.98" />
    <linearGradient
       inkscape:collect="always"
       xlink:href="#linear-gradient-7"
       id="linearGradient1238"
       gradientUnits="userSpaceOnUse"
       gradientTransform="matrix(1,0,0,-1,0,254)"
       x1="584.78003"
       y1="221.49001"
       x2="592.02002"
       y2="217.31" />
    <linearGradient
       inkscape:collect="always"
       xlink:href="#linear-gradient-20"
       id="linearGradient1240"
       gradientUnits="userSpaceOnUse"
       gradientTransform="matrix(1,0,0,-1,0,254)"
       x1="459.51001"
       y1="199.77"
       x2="466.48999"
       y2="199.77" />
    <radialGradient
       inkscape:collect="always"
       xlink:href="#radial-gradient-4"
       id="radialGradient1242"
       gradientUnits="userSpaceOnUse"
       gradientTransform="matrix(0.42,0,0,-0.42,235.85,110.15)"
       cx="548.01001"
       cy="84.760002"
       r="15.35" />
  </defs>
  <g
     id="g1234"
     transform="translate(-397.94017)">
    <path
       d="m 585.23,44.33 a 4.26,4.26 0 0 1 -4.3,-2.75 4.09,4.09 0 0 1 0.73,-4 c 0,-0.19 0.09,-0.43 0.13,-0.65 a 28.44,28.44 0 0 0 -0.09,-3 v -0.16 c -0.08,-1.53 -0.22,-4.09 2.16,-5.51 a 4.19,4.19 0 0 1 2.15,-0.57 7.51,7.51 0 0 1 1.73,0.24 l 0.63,0.15 0.35,-0.32 a 6.32,6.32 0 0 1 4.28,-2.13 4.57,4.57 0 0 1 0.83,0.07 5.27,5.27 0 0 1 3,1.84 c 1.82,2 2.11,4.49 0.76,6.27 a 4.15,4.15 0 0 1 -2.61,1.59 c -0.16,0.1 -0.41,0.29 -0.61,0.43 a 9,9 0 0 1 -2.37,5.24 9.4,9.4 0 0 1 -6.69,3.26 z"
       fill="url(#linear-gradient)"
       id="path147"
       style="fill:url(#linearGradient1236)" />
    <path
       d="m 593,29.13 h 0.22 a 1.82,1.82 0 0 1 1.06,0.74 c 0.11,0.12 1,1.19 0.57,1.81 a 0.76,0.76 0 0 1 -0.55,0.27 4.46,4.46 0 0 0 -2,1.08 3.15,3.15 0 0 0 -1.24,1.35 2.21,2.21 0 0 0 -0.12,0.82 c 0,0.1 0,0.21 0,0.33 a 5.45,5.45 0 0 1 -1.57,3.2 6,6 0 0 1 -4.1,2.08 h -0.07 c -0.23,0 -0.85,0 -1,-0.43 -0.15,-0.43 0.18,-0.67 0.32,-0.82 0.37,-0.37 0.47,-0.91 0.68,-2 a 17.33,17.33 0 0 0 0,-3.86 v -0.16 c -0.07,-1.28 -0.11,-2 0.44,-2.3 a 0.72,0.72 0 0 1 0.37,-0.09 4.92,4.92 0 0 1 1,0.15 c 0.45,0.1 0.74,0.19 1,0.26 a 2.28,2.28 0 0 0 0.77,0.15 2.72,2.72 0 0 0 0.94,-0.18 2,2 0 0 0 0.77,-0.6 c 0.16,-0.16 0.36,-0.37 0.64,-0.62 0.77,-0.7 1.33,-1.2 2,-1.2 m 0,-7 a 9,9 0 0 0 -5.67,2.14 9.91,9.91 0 0 0 -1.37,-0.1 7.63,7.63 0 0 0 -3.92,1 c -4.23,2.51 -4,7 -3.88,8.72 v 0.17 c 0.06,1.14 0.08,1.81 0.09,2.19 a 7.45,7.45 0 0 0 -0.66,6.47 7.74,7.74 0 0 0 7.59,5.06 h 0.11 a 13.61,13.61 0 0 0 12.23,-9.58 7.54,7.54 0 0 0 2.9,-2.33 c 2.38,-3.13 2,-7.43 -0.93,-10.71 a 8.73,8.73 0 0 0 -5,-2.95 7.82,7.82 0 0 0 -1.45,-0.13 z"
       fill="#ffffff"
       id="path149" />
    <path
       d="m 523,110.5 a 4,4 0 0 1 -3.25,-1.69 c -1.2,-1.7 -5.25,-7.45 -6.83,-9.92 -0.13,-0.2 -0.39,-0.5 -0.65,-0.83 -1.61,-2 -3,-3.77 -2.72,-5.93 a 3.89,3.89 0 0 1 3.87,-3.4 4,4 0 0 1 0.78,0.08 8.77,8.77 0 0 1 0.78,-0.77 41.74,41.74 0 0 0 8,-11.22 9.12,9.12 0 0 1 0.46,-4.16 c 0,0 0,-0.1 0.05,-0.17 a 10.12,10.12 0 0 1 0.26,-3.85 c 0.2,-0.93 0.37,-1.75 0.51,-2.48 0.77,-3.76 1.55,-7.64 5.68,-7.64 h 0.21 a 3.45,3.45 0 0 1 0.72,0.07 51.94,51.94 0 0 1 3.83,-4.3 68.18,68.18 0 0 1 1.27,-7.6 c 1.06,-5.4 2.26,-11.5 5.74,-17.51 2.12,-3.66 4.8,-6.31 9.65,-11.12 0.3,-0.31 5.35,-4.57 8.29,-7 9,-7.53 9.26,-7.53 10.75,-7.53 h 0.14 a 3.52,3.52 0 0 1 2.21,0.79 l 0.19,0.15 c 1.32,1.15 2.37,3.27 -0.18,6.84 -1,1.4 -2.7,3.43 -5.68,6.94 -2.98,3.51 -6.49,7.63 -8.22,10.26 A 33.4,33.4 0 0 0 555,36.25 l 0.53,-0.15 0.11,-0.07 c 0.26,-0.16 0.49,-0.34 0.7,-0.49 a 7.69,7.69 0 0 1 2.66,-1.38 7.08,7.08 0 0 1 2.7,-3.57 6.49,6.49 0 0 1 3.3,-1.13 h 0.38 a 8.77,8.77 0 0 1 2.58,-3.6 9.13,9.13 0 0 1 10.25,-0.17 8,8 0 0 1 3.45,-1 c 2.21,0 4.63,0.28 5.78,2.39 a 4,4 0 0 1 -0.18,4.08 4.26,4.26 0 0 1 -0.85,1 13.16,13.16 0 0 1 0.82,5.8 c 0,0.15 0,0.29 0,0.43 a 3.52,3.52 0 0 1 2,1.65 c 0,0 0.18,0.34 0.2,0.39 a 6.46,6.46 0 0 1 0.51,2.86 4,4 0 0 1 2.62,6.4 v 0.22 a 12.29,12.29 0 0 1 -0.12,3.8 6.45,6.45 0 0 1 -2.1,3.92 5.9,5.9 0 0 1 -2.95,1.27 4.68,4.68 0 0 1 0,0.53 c -0.21,4.18 -4.22,5.86 -6.37,6.77 a 65.12,65.12 0 0 1 -6.18,2.17 l -1.14,0.33 a 7,7 0 0 1 -0.72,1.61 8.24,8.24 0 0 1 -5,3.52 33,33 0 0 0 -5.76,2.53 c -1,0.54 -2.1,1.08 -3.21,1.6 0.13,1 0.17,1.63 0.2,2.29 a 29.59,29.59 0 0 0 0.3,3.09 v 0 c 2,0.53 4.09,1.08 4.93,3.16 l 0.06,0.15 a 3.5,3.5 0 0 1 0,2.64 l -0.07,0.18 c 0,0.08 -0.07,0.15 -0.1,0.23 -0.38,0.76 -1,2 -6,3.46 -0.35,0.09 -1.35,0.45 -2.1,0.76 a 4,4 0 0 0 -1,0.64 l -0.62,0.48 -0.28,0.2 c -0.9,0.66 -2.07,1.45 -3.32,2.29 -3.2,2.17 -5.21,3.62 -6.46,4.59 a 4.53,4.53 0 0 1 2.16,2 3.91,3.91 0 0 1 0.27,3 c -0.91,2.86 -3.88,2.86 -4.85,2.86 -0.97,0 -2,-0.06 -2.82,-0.11 h -1 c -0.25,0 -0.55,0 -0.93,0 -2.14,-0.16 -5,-0.38 -6.66,-2.62 l -0.42,-0.09 a 4.5,4.5 0 0 1 -1.26,1 l -0.2,0.11 a 3.6,3.6 0 0 1 -1.65,0.41 3.12,3.12 0 0 1 -0.86,-0.11 5.09,5.09 0 0 1 -0.31,0.45 4,4 0 0 1 -3.02,1.48 z m 6,-13.89 c 0,0.19 0.09,0.42 0.14,0.61 a 3.42,3.42 0 0 1 0.16,-0.33 c 1.14,-2.23 3.57,-2.41 5.19,-2.45 0.94,-1 2,-2 3.16,-3 0.48,-0.44 1.59,-1.45 2.44,-2.31 -0.51,0.24 -0.88,0.44 -1,0.51 A 45,45 0 0 0 529,96.61 Z"
       fill="url(#linear-gradient-2)"
       id="path151"
       style="fill:url(#linear-gradient-2)" />
    <path
       d="m 570.49,7 0.1,0.09 c 0.69,0.59 -0.56,2.21 -6.22,8.86 a 132.51,132.51 0 0 0 -8.48,10.61 36.84,36.84 0 0 0 -6.15,19.05 l 0.58,-0.28 a 2.63,2.63 0 0 0 1.25,-0.86 v -0.07 0 a 4.14,4.14 0 0 1 0.51,-1.38 7.94,7.94 0 0 1 2.46,-2.65 5.33,5.33 0 0 1 1.77,-0.82 3.69,3.69 0 0 0 1.1,-0.48 c 0.36,-0.22 0.67,-0.45 1,-0.66 a 3.21,3.21 0 0 1 1.91,-0.87 1.86,1.86 0 0 1 1,0.3 1.76,1.76 0 0 1 0.49,0.49 v 0 a 4.71,4.71 0 0 1 0.25,-2.28 4.06,4.06 0 0 1 1.56,-2.48 3,3 0 0 1 1.55,-0.53 h 0.11 a 2.86,2.86 0 0 1 1.4,0.39 l 0.25,0.12 a 1,1 0 0 0 0.31,0 1,1 0 0 0 0.34,0 1,1 0 0 0 0.62,-0.49 0.93,0.93 0 0 1 0,-0.13 c 0,-0.15 0,-0.32 0,-0.54 a 5.92,5.92 0 0 1 1.95,-3.73 4.51,4.51 0 0 1 2.88,-0.87 c 0,0 2.58,0 3,0.78 0.19,0.37 -0.13,0.66 -0.41,0.92 a 2.08,2.08 0 0 0 -0.67,0.9 c -0.05,0.17 -0.39,2.07 -0.44,2.57 0,0.11 0,0.25 0,0.42 -0.05,0.6 -0.11,1.41 -0.21,1.9 -0.26,1.31 -0.8,4 -3,4.85 a 5,5 0 0 0 1.51,0.26 h 0.28 a 4.07,4.07 0 0 0 0.86,-0.17 9.09,9.09 0 0 1 0.2,-3.71 12.11,12.11 0 0 1 1.6,-4.12 c 1.15,-1.86 4.37,-4.07 5.94,-4.07 0.9,0 2.43,0.07 2.7,0.57 a 0.46,0.46 0 0 1 0,0.49 2.72,2.72 0 0 1 -1.28,0.76 3.13,3.13 0 0 0 -0.78,0.38 1.78,1.78 0 0 0 -0.08,0.84 2.29,2.29 0 0 0 0.34,0.92 c 0.05,0.1 0.11,0.2 0.16,0.31 l 0.11,0.2 L 583,33 a 9.57,9.57 0 0 1 0.76,4.63 8.48,8.48 0 0 1 -2.58,5.68 h 0.4 a 9.07,9.07 0 0 1 1,0.09 14.17,14.17 0 0 0 1.44,0.11 c 0.21,-0.05 0.79,-0.79 1,-1.11 0.42,-0.53 0.56,-0.71 0.81,-0.71 h 0.22 l 0.12,0.22 c 0.53,1.13 -0.26,4.42 -0.63,5 l -0.21,0.34 c -0.76,1.22 -1.71,2.75 -3.46,3.24 a 5.94,5.94 0 0 1 -1.09,0.19 1,1 0 0 0 -0.57,0.14 1.8,1.8 0 0 0 -0.51,0.44 7.62,7.62 0 0 0 -1.7,3.37 v 0 c 0.07,0 0.27,-0.17 0.77,-0.88 a 2.15,2.15 0 0 1 1.72,-1.17 h 0.32 l 0.33,0.14 a 1.27,1.27 0 0 1 0.22,0.13 0.6,0.6 0 0 1 0,-0.27 c 0.06,-0.36 0.38,-0.46 0.7,-0.56 a 5.28,5.28 0 0 0 0.75,-0.28 7.08,7.08 0 0 0 2,-1.67 c 0.66,-0.68 1,-1.1 1.26,-1.4 a 4.41,4.41 0 0 1 1,-0.94 5.26,5.26 0 0 1 2.26,-1 0.54,0.54 0 0 1 0.46,0.2 c 0.21,0.29 0,0.58 -0.19,0.84 a 3.82,3.82 0 0 0 -0.28,0.42 3.06,3.06 0 0 0 -0.23,2.06 8.73,8.73 0 0 1 -0.09,2.75 2.91,2.91 0 0 1 -0.9,1.89 2.55,2.55 0 0 1 -1.65,0.54 v 0 a 3.48,3.48 0 0 1 -0.45,0 3.23,3.23 0 0 1 -1.29,-0.55 h -0.07 a 20.26,20.26 0 0 0 -2.11,-1.16 c -0.25,-0.13 -0.45,-0.23 -0.62,-0.34 a 2.06,2.06 0 0 1 0.27,1.25 v 0.06 a 6.37,6.37 0 0 0 1,2.6 c 0.2,0.41 0.32,0.62 0.4,0.75 a 2.09,2.09 0 0 1 0.35,1.25 c -0.08,1.67 -1.55,2.59 -4.23,3.72 a 56.89,56.89 0 0 1 -5.82,2 l -0.79,0.23 a 9.5,9.5 0 0 0 -2.51,0.92 1.31,1.31 0 0 0 0,0.37 3.67,3.67 0 0 1 -0.52,2 4.76,4.76 0 0 1 -2.92,2 36,36 0 0 0 -6.42,2.79 c -1.16,0.6 -2.36,1.22 -3.59,1.76 -0.73,0.33 -1.57,0.71 -1.77,1.28 0,0.09 0,0.12 0.08,0.83 0,0.18 0.07,0.39 0.11,0.62 a 20.75,20.75 0 0 1 0.28,2.7 33.4,33.4 0 0 0 0.37,3.72 c 0.19,1.25 0.26,1.42 0.33,1.5 a 7.63,7.63 0 0 0 2.18,1.06 c 2.06,0.54 2.51,0.8 2.63,1.09 l 0.06,0.15 -0.08,0.18 c -0.29,0.6 -3.79,1.64 -3.82,1.65 -0.56,0.15 -1.74,0.59 -2.5,0.9 a 6.56,6.56 0 0 0 -1.8,1.13 l -0.52,0.4 -0.27,0.2 c -0.86,0.62 -2,1.41 -3.25,2.24 -2.52,1.7 -9.2,6.22 -9.47,7.5 a 1.55,1.55 0 0 1 0,0.21 1.93,1.93 0 0 0 0.22,1.29 c 0,0.08 0.1,0.16 0.14,0.24 0.04,0.08 0.16,0.3 0.21,0.37 0.05,0.07 0.56,0.19 0.93,0.3 1.68,0.51 2.41,0.78 2.6,1.15 a 0.45,0.45 0 0 1 0,0.36 c -0.1,0.32 -0.46,0.42 -1.52,0.42 -0.79,0 -1.8,-0.06 -2.62,-0.11 h -1.14 -0.67 c -2.2,-0.17 -3.79,-0.29 -4.43,-1.76 a 2.28,2.28 0 0 1 -0.18,-0.68 h -0.26 -0.71 l -4.25,-0.9 a 0.43,0.43 0 0 1 -0.28,-0.21 c 0.39,1 0.54,1.88 -0.15,2.25 l -0.2,0.11 -0.19,-0.14 c -0.06,0 -1.59,-1.2 -1.91,-1.46 l -0.66,-0.57 c -0.54,-0.48 -1.29,-1.13 -1.81,-1.55 a 43.76,43.76 0 0 0 0.74,5 0.44,0.44 0 0 1 -0.09,0.41 0.49,0.49 0 0 1 -0.39,0.19 v 0 a 0.47,0.47 0 0 1 -0.39,-0.21 c -1.2,-1.69 -5.21,-7.38 -6.74,-9.79 -0.17,-0.25 -0.51,-0.68 -0.87,-1.14 -1.25,-1.57 -2.06,-2.64 -2,-3.29 a 0.39,0.39 0 0 1 0.4,-0.34 5.53,5.53 0 0 1 1.34,0.43 l 0.94,0.33 a 5.61,5.61 0 0 1 1.61,-2.35 c 4,-3.61 9.48,-12.17 9.19,-13.85 a 5.76,5.76 0 0 1 0.28,-3.11 3.27,3.27 0 0 1 0.47,-1 c -0.61,-0.85 -0.34,-2.14 -0.09,-3.3 0.21,-0.94 0.38,-1.78 0.52,-2.51 0.7,-3.43 1,-4.84 2.25,-4.84 h 0.21 l 0.1,0.18 c 0.09,0.15 0.63,1.15 1,1.89 a 44.12,44.12 0 0 1 7,-8.35 v 0 c -0.25,-1.09 0.11,-3 1.16,-8.35 1.05,-5.35 2.14,-10.92 5.33,-16.42 1.89,-3.26 4.29,-5.65 9.08,-10.4 C 553.91,20.4 569.63,7 570.35,7 h 0.14 m -9.28,36.26 a 6.76,6.76 0 0 0 0.51,-0.62 c 0.84,-1.17 1.17,-2.23 1,-2.57 a 1.24,1.24 0 0 0 -0.15,-0.21 5.66,5.66 0 0 1 -0.42,-0.63 c 0,0.09 0,0.18 0,0.24 a 3.65,3.65 0 0 1 -0.41,2 8.45,8.45 0 0 0 -0.55,1.8 M 532,75.31 l 1.59,-1.73 c 0.77,-0.83 1.19,-1.22 1.45,-1.46 a 0.86,0.86 0 0 0 0.14,-0.14 1.18,1.18 0 0 0 0.16,-0.69 5.58,5.58 0 0 1 0.4,-1.93 c 0.09,-0.21 0.21,-0.52 0.38,-0.86 a 10.73,10.73 0 0 0 -1.59,1.73 c -0.24,0.32 -0.42,0.6 -0.56,0.81 a 3.26,3.26 0 0 1 -1.62,1.52 4.07,4.07 0 0 1 -1.25,0.28 2,2 0 0 1 0.47,0.37 2.12,2.12 0 0 1 0.46,1.92 v 0.18 m -4.42,27.36 a 0.23,0.23 0 0 1 0,-0.12 0.43,0.43 0 0 1 0.36,-0.41 c 3.09,-0.47 4.68,-0.77 4.88,-0.85 a 1.33,1.33 0 0 0 0.64,-0.92 v -0.09 l -0.35,-0.27 c -0.49,-0.38 -1.11,-0.85 -0.76,-1.52 0.24,-0.48 1.18,-0.53 2.46,-0.56 a 4.3,4.3 0 0 0 0.58,0 5.42,5.42 0 0 0 0.79,-0.19 3.15,3.15 0 0 0 0.35,-0.37 l 0.06,-0.07 A 40.6,40.6 0 0 1 540,94 c 1.57,-1.42 4.19,-3.81 4.36,-4.78 A 2.71,2.71 0 0 1 545.77,87 H 546 c -0.63,-0.6 -1.2,-1.24 -1.75,-1.87 -0.55,-0.63 -1.07,-1.21 -1.63,-1.74 -0.07,-0.07 -0.18,-0.18 -0.31,-0.33 a 6.25,6.25 0 0 1 -2.2,2.25 2.42,2.42 0 0 1 -0.49,0.22 l -0.64,0.26 c -0.79,0.36 -1.38,0.67 -1.6,0.79 -4.79,2.57 -9.21,5.72 -11.26,8 a 2.54,2.54 0 0 0 -0.51,0.76 4.4,4.4 0 0 0 0.1,2.74 16.6,16.6 0 0 0 0.77,2.35 8.12,8.12 0 0 0 0.37,0.75 c 0.25,0.47 0.52,1 0.74,1.52 M 570.49,0 h -0.14 c -3,0 -4.13,1 -13,8.34 -1.53,1.28 -8,6.7 -8.51,7.23 -5.07,5 -7.86,7.79 -10.22,11.86 -3.77,6.51 -5,12.92 -6.14,18.58 -0.58,3 -1,5.06 -1.21,6.72 -0.64,0.68 -1.35,1.46 -2.08,2.32 a 8.35,8.35 0 0 0 -7.13,5.47 27.47,27.47 0 0 0 -1.29,4.94 c -0.14,0.72 -0.3,1.53 -0.5,2.44 a 14.28,14.28 0 0 0 -0.4,4.3 12,12 0 0 0 -0.51,4 41.33,41.33 0 0 1 -6.58,9 7.41,7.41 0 0 0 -6.78,6.5 c -0.45,3.62 1.62,6.22 3.45,8.51 0.2,0.26 0.38,0.48 0.5,0.65 1.61,2.5 5.33,7.79 6.87,10 a 7.49,7.49 0 0 0 11.09,1.28 7.14,7.14 0 0 0 2.4,-0.68 14.76,14.76 0 0 0 6.86,1.86 c 0.43,0 0.8,0 1.14,0 h 0.76 c 0.93,0.05 2.06,0.12 3.06,0.12 5.66,0 7.56,-3.32 8.19,-5.3 a 7.54,7.54 0 0 0 -0.45,-5.63 c 0.86,-0.6 1.87,-1.3 3.07,-2.11 1.2,-0.81 2.49,-1.69 3.45,-2.38 l 0.28,-0.21 0.72,-0.56 0.24,-0.19 c 0.6,-0.24 1.37,-0.52 1.61,-0.59 5.71,-1.59 7.32,-3.48 8.21,-5.28 a 4.28,4.28 0 0 0 0.2,-0.44 l 0.08,-0.19 a 7,7 0 0 0 0,-5.28 l -0.06,-0.15 a 8.06,8.06 0 0 0 -5,-4.53 v -0.58 0 l 1.11,-0.57 a 30.22,30.22 0 0 1 5.22,-2.26 11.51,11.51 0 0 0 7,-5.06 c 0.11,-0.18 0.21,-0.36 0.31,-0.54 a 63.47,63.47 0 0 0 6.1,-2.17 c 2.18,-0.91 7,-2.92 8.21,-7.85 a 9.13,9.13 0 0 0 2,-1.24 9.76,9.76 0 0 0 3.33,-5.94 15.46,15.46 0 0 0 0.24,-3.93 7.46,7.46 0 0 0 -2.94,-9.68 8.83,8.83 0 0 0 -0.61,-1.84 3.65,3.65 0 0 0 -0.18,-0.34 l -0.11,-0.22 a 7,7 0 0 0 -1.46,-1.86 16.49,16.49 0 0 0 -0.47,-3.6 7.45,7.45 0 0 0 0.21,-7.46 c -2.3,-4.24 -7.24,-4.24 -8.86,-4.24 a 10,10 0 0 0 -3.11,0.54 13.2,13.2 0 0 0 -5.49,-1.06 12.26,12.26 0 0 0 -4.11,0.67 l 0.74,-0.88 c 3.12,-3.66 4.79,-5.67 5.87,-7.17 4.7,-6.58 0.51,-10.75 -0.38,-11.52 L 575,1.67 574.89,1.58 A 7,7 0 0 0 570.49,0 Z"
       fill="#ffffff"
       id="path153" />
    <path
       d="m 485.2,108.06 a 8.78,8.78 0 0 1 -2.1,-0.27 c -4,-0.94 -6.47,-4.54 -7.53,-6.07 -1.63,-2.38 -3.19,-4.88 -4.61,-7.45 a 4.81,4.81 0 0 1 3.44,-7.08 h -0.07 a 14,14 0 0 0 -2.42,-0.16 55.45,55.45 0 0 0 -7.14,0.58 c -1.44,0.2 -3,0.45 -4.67,0.71 a 99.82,99.82 0 0 1 -14.49,1.6 23.18,23.18 0 0 1 -4.77,-0.43 c -3.61,-0.74 -6,-2.49 -6.9,-4.88 -1.41,0.37 -3,0.74 -3.88,0.91 a 22.08,22.08 0 0 1 -4.19,0.49 9.75,9.75 0 0 1 -4.18,-0.9 9,9 0 0 1 -5.24,-6.43 33,33 0 0 1 0.34,-9 c 0.7,-5.11 4.4,-5.37 5.14,-5.37 a 4.73,4.73 0 0 1 3.75,1.84 11.26,11.26 0 0 1 0.86,1.3 75.14,75.14 0 0 1 -0.29,-8.36 c 0,-0.86 0,-1.57 0,-2.18 a 12.25,12.25 0 0 0 -0.18,-3.35 9.39,9.39 0 0 0 -1.88,-4.56 15.23,15.23 0 0 0 -2.72,-2.13 c -1.19,-0.79 -4.83,-3.21 -3.06,-7.09 a 4.91,4.91 0 0 1 3,-2.65 33.32,33.32 0 0 1 6.59,-1.61 c -0.21,-0.26 -0.43,-0.51 -0.67,-0.78 a 20.94,20.94 0 0 1 -4.08,-6.33 c -1.11,-2.52 -4.47,-10.17 0.26,-13.4 a 5.33,5.33 0 0 1 3,-0.93 8.31,8.31 0 0 1 4.49,1.63 32.74,32.74 0 0 0 3.82,2.06 15.67,15.67 0 0 0 3,1.08 12.36,12.36 0 0 1 3.68,1.54 c 4.09,2.52 6,6 7.83,9.34 a 7.73,7.73 0 0 1 0.37,0.69 c 0.1,-0.23 0.2,-0.46 0.31,-0.69 1.81,-3.81 4.44,-5.91 7.41,-5.91 h 0.35 a 6.71,6.71 0 0 1 5.12,3.24 l 0.14,0.2 a 6.46,6.46 0 0 1 1.94,-0.9 5.28,5.28 0 0 1 1.45,-0.2 4.86,4.86 0 0 1 1.14,0.13 5.49,5.49 0 0 1 4,3.84 c 1.73,-3.51 4.82,-7.19 8.8,-7.19 a 6,6 0 0 1 1.47,0.18 6.87,6.87 0 0 1 5,6.1 6.28,6.28 0 0 1 -1,3.81 c 0.13,0.25 0.28,0.53 0.38,0.7 0.77,1.38 1.56,2.73 2.33,4 a 94.78,94.78 0 0 1 4.46,8.57 18.56,18.56 0 0 1 1.69,5.51 13.47,13.47 0 0 1 3.54,3.32 c 2.6,3.49 4.16,9.1 1.46,13.18 a 7.19,7.19 0 0 1 -0.91,1.11 c -0.06,0.06 -0.13,0.13 -0.25,0.27 a 8.08,8.08 0 0 0 -1.06,1.58 c 3.5,2.18 6.73,5.12 6.4,9.22 0,0.12 0,0.28 -0.05,0.49 a 7.35,7.35 0 0 0 -0.06,1.84 l 0.47,0.18 0.57,0.2 a 5.64,5.64 0 0 1 4.33,4.27 5.36,5.36 0 0 1 -1.61,4.85 c -7.05,7.16 -11.27,8.74 -12.05,9 -1,0.3 -1.71,0.47 -2.26,0.59 a 3,3 0 0 0 -1.15,0.39 7.7,7.7 0 0 0 -1.13,0.8 5.4,5.4 0 0 1 -1.26,3 5.82,5.82 0 0 1 -4.47,1.96 z"
       fill="url(#linear-gradient-3)"
       id="path155"
       style="fill:url(#linear-gradient-3)" />
    <path
       d="m 426.51,17.58 a 5.41,5.41 0 0 1 2.64,1.13 38.8,38.8 0 0 0 4.18,2.29 20.59,20.59 0 0 0 3.52,1.28 8.69,8.69 0 0 1 2.74,1.14 c 3.31,2 4.91,4.94 6.61,8 a 26.7,26.7 0 0 1 1.89,4.25 26.44,26.44 0 0 0 1.84,4.19 36.68,36.68 0 0 0 2.9,4.61 l -0.12,-1 a 56.81,56.81 0 0 1 -0.51,-8.38 9.34,9.34 0 0 1 0.9,-3.84 c 0.69,-1.46 2.17,-3.92 4.25,-3.92 h 0.14 a 3.34,3.34 0 0 1 2.51,1.79 7,7 0 0 0 2.48,2.34 3.35,3.35 0 0 0 1,0.44 3.35,3.35 0 0 0 0.4,-0.51 3.56,3.56 0 0 1 2,-1.65 2,2 0 0 1 0.52,-0.07 1.39,1.39 0 0 1 0.35,0 c 1.75,0.4 1.95,3.31 1.54,5.14 a 7.38,7.38 0 0 1 -1.29,2.68 12.55,12.55 0 0 1 -2,2.33 21.5,21.5 0 0 0 -1.95,2 6.28,6.28 0 0 0 -0.95,1.34 1.86,1.86 0 0 0 0.61,1.11 3,3 0 0 0 1.87,1 h 0.22 a 1.12,1.12 0 0 0 0.35,-0.23 l 0.06,-0.05 a 17.46,17.46 0 0 1 6.26,-3 10.45,10.45 0 0 1 2.43,-0.39 v 0 c -0.05,-0.12 -0.1,-0.25 -0.14,-0.37 a 11.24,11.24 0 0 1 0,-7.28 c 1.09,-3.6 4,-7.46 6.55,-7.46 a 3.18,3.18 0 0 1 0.62,0.07 3.39,3.39 0 0 1 2.33,2.95 3.17,3.17 0 0 1 -0.7,2.08 3,3 0 0 0 -0.37,0.64 c -0.38,1 0.39,2.36 0.89,3.26 0.78,1.4 1.59,2.77 2.37,4.1 a 87.44,87.44 0 0 1 4.46,8.2 c 0.77,1.7 1.78,4.38 1.35,6.15 a 10,10 0 0 1 4.27,3.32 c 1.94,2.62 3,6.6 1.34,9.16 a 3.44,3.44 0 0 1 -0.48,0.57 c -0.09,0.1 -0.21,0.22 -0.42,0.46 a 11.83,11.83 0 0 0 -2.14,3.71 v 2 c 4.72,2.58 6.83,4.84 6.65,7.07 0,0.08 0,0.2 0,0.34 a 11.26,11.26 0 0 0 0,3.17 2.78,2.78 0 0 0 0.27,1.09 4.62,4.62 0 0 0 2.39,1.47 c 0.27,0.11 0.53,0.19 0.75,0.26 0.82,0.26 1.74,0.55 1.93,1.57 a 2,2 0 0 1 -0.66,1.76 c -6.72,6.81 -10.46,8 -10.61,8.1 -0.83,0.26 -1.47,0.4 -2,0.52 a 6.15,6.15 0 0 0 -2.18,0.8 c -1.95,1.17 -2.8,2.29 -2.8,2.88 v 0.06 a 2.09,2.09 0 0 1 -2.31,2.33 v 0 a 5.9,5.9 0 0 1 -1.29,-0.17 c -2.68,-0.64 -4.56,-3.35 -5.46,-4.66 -1.57,-2.28 -3.06,-4.69 -4.43,-7.16 a 1.31,1.31 0 0 1 0,-1.3 1.34,1.34 0 0 1 1.13,-0.64 1.25,1.25 0 0 1 0.43,0.07 23.59,23.59 0 0 0 6.35,0.93 8.53,8.53 0 0 0 2.27,-0.25 c 0.7,-0.25 2.38,-1.3 2.54,-1.83 a 2.92,2.92 0 0 0 -1.39,-1.34 c -5.77,-2.6 -9.59,-4.32 -10.22,-4.46 a 17.72,17.72 0 0 0 -3.23,-0.24 57.62,57.62 0 0 0 -7.62,0.62 c -1.47,0.2 -3.08,0.45 -4.78,0.72 a 95.94,95.94 0 0 1 -13.9,1.55 19.79,19.79 0 0 1 -4.06,-0.36 c -1.24,-0.25 -4.17,-1.07 -4.43,-3.09 a 3.11,3.11 0 0 1 0,-0.81 8.39,8.39 0 0 0 0.05,-1.27 h -0.15 -0.24 v 0 a 2.47,2.47 0 0 1 -1.39,-0.5 1.23,1.23 0 0 1 -0.37,0.21 56.15,56.15 0 0 1 -5.64,1.44 19.57,19.57 0 0 1 -3.53,0.43 6.39,6.39 0 0 1 -2.81,-0.62 5.62,5.62 0 0 1 -3.15,-3.71 30.15,30.15 0 0 1 0.35,-8 c 0.21,-1.56 0.77,-2.35 1.67,-2.35 a 1.25,1.25 0 0 1 1,0.49 14.81,14.81 0 0 1 0.89,1.4 19.61,19.61 0 0 0 5.29,6.32 11.27,11.27 0 0 0 4.32,2.2 25.63,25.63 0 0 1 -3.17,-9.2 58.87,58.87 0 0 1 -0.54,-10 c 0,-0.84 0,-1.53 0,-2.13 a 15.33,15.33 0 0 0 -0.26,-4.15 12.57,12.57 0 0 0 -2.75,-6.13 17.9,17.9 0 0 0 -3.33,-2.59 c -1.26,-0.84 -2.34,-1.56 -1.81,-2.72 a 1.34,1.34 0 0 1 0.89,-0.76 c 3.12,-1 4.94,-1.5 6.27,-1.5 a 3,3 0 0 1 1.82,0.52 4.65,4.65 0 0 1 1.64,2.66 c 1,3.4 1.78,5.92 2.33,8.09 0.68,-2.55 0.33,-9 -2.1,-14.13 A 13.94,13.94 0 0 0 429.92,32.45 17.65,17.65 0 0 1 426.43,27 c -1.5,-3.42 -2.89,-7.78 -1,-9.1 a 1.88,1.88 0 0 1 1.05,-0.32 m 11.82,42.89 v 0 a 2.81,2.81 0 0 0 1.22,-0.3 8.86,8.86 0 0 1 1.94,-0.62 l 0.71,-0.11 a 4,4 0 0 0 -2.36,-1.09 h -0.27 -0.87 -1 a 6.46,6.46 0 0 1 -1.74,-0.26 2.89,2.89 0 0 0 1,2 3,3 0 0 0 1.41,0.33 M 426.51,10.58 a 8.78,8.78 0 0 0 -5,1.54 c -4.74,3.23 -5.24,9.19 -1.5,17.7 a 27.63,27.63 0 0 0 1.84,3.53 l -1.42,0.44 a 8.43,8.43 0 0 0 -5.21,4.54 8.21,8.21 0 0 0 1.25,8.9 13.42,13.42 0 0 0 3.06,2.56 12.93,12.93 0 0 1 2.06,1.57 6.49,6.49 0 0 1 1.07,2.89 8.48,8.48 0 0 1 0.11,2.52 c 0,0.64 0,1.37 0,2.25 v 1.78 c -0.27,0 -0.55,0 -0.82,0 -3.44,0 -7.76,2.2 -8.6,8.4 a 36.26,36.26 0 0 0 -0.35,10 12.55,12.55 0 0 0 7.33,9.16 13.34,13.34 0 0 0 5.56,1.18 25.69,25.69 0 0 0 4.85,-0.55 l 1.53,-0.33 c 1.44,1.76 3.85,3.46 7.88,4.29 a 27.3,27.3 0 0 0 5.48,0.5 102,102 0 0 0 15,-1.63 c 1.67,-0.27 3.24,-0.52 4.64,-0.71 l 1.69,-0.21 a 8.32,8.32 0 0 0 1,5.13 c 1.48,2.66 3.09,5.26 4.79,7.72 1.29,1.87 4.3,6.24 9.61,7.5 a 12.86,12.86 0 0 0 2.9,0.36 9.26,9.26 0 0 0 7.16,-3.19 8.94,8.94 0 0 0 1.7,-3.06 c 0.58,-0.13 1.43,-0.33 2.51,-0.67 1.28,-0.4 6,-2.31 13.49,-9.86 a 8.91,8.91 0 0 0 2.55,-8 8.59,8.59 0 0 0 -5.19,-6.38 c 0.22,-4.38 -2.26,-7.64 -5,-9.93 l 0.19,-0.26 c 3.65,-5.53 1.84,-12.63 -1.57,-17.21 a 17.22,17.22 0 0 0 -3.14,-3.24 25.06,25.06 0 0 0 -1.72,-4.95 94.66,94.66 0 0 0 -4.81,-8.86 c -0.6,-1 -1.2,-2 -1.8,-3.08 a 9.48,9.48 0 0 0 0.55,-3.93 10.3,10.3 0 0 0 -7.6,-9.25 9.66,9.66 0 0 0 -2.33,-0.29 c -3.59,0 -6.7,1.95 -9.06,4.71 A 8.55,8.55 0 0 0 468.3,22.89 8.64,8.64 0 0 0 466.35,22.67 8.91,8.91 0 0 0 464,23 v 0 a 9.34,9.34 0 0 0 -6,-2.66 h -0.55 a 10.35,10.35 0 0 0 -7.58,3.42 21.45,21.45 0 0 0 -6.51,-6.33 15.56,15.56 0 0 0 -4.6,-1.93 13.45,13.45 0 0 1 -2.43,-0.89 31.15,31.15 0 0 1 -3.45,-1.87 11.64,11.64 0 0 0 -6.27,-2.14 z m 66.78,95.14 z"
       fill="#ffffff"
       id="path157" />
    <path
       d="m 416.88,69.42 c -3.49,0 -6.27,-3.54 -8,-6.52 -1,-1.72 -2.25,-4.37 -3.17,-9.65 -1.1,-6.07 -1,-10.09 0.34,-11.92 a 4.78,4.78 0 0 1 3.18,-1.94 h 0.11 a 3.25,3.25 0 0 1 0.44,0 h 0.13 c 3.45,0 4.54,2.93 5.33,5.06 0.43,1.15 0.77,2 1,2.56 a 8,8 0 0 1 3.06,-0.58 11.12,11.12 0 0 1 4,0.8 c 2.23,0.87 3.92,2.45 5.66,5.28 4.53,7.35 5.09,12.41 1.66,15.05 a 6.06,6.06 0 0 1 -3.72,1.19 14.64,14.64 0 0 1 -5.77,-1.57 5,5 0 0 1 -2.13,1.82 5.17,5.17 0 0 1 -2.12,0.42 z"
       fill="url(#linear-gradient-4)"
       id="path159"
       style="fill:url(#linear-gradient-4)" />
    <path
       d="m 409.92,42.84 c 1,0 1.32,0.82 2.06,2.78 0.56,1.53 1.9,5.11 3,5.48 a 2.78,2.78 0 0 0 0.89,0.16 H 416 a 1.56,1.56 0 0 0 0.47,-0.32 c 0.15,-0.13 0.32,-0.27 0.53,-0.42 a 4.21,4.21 0 0 1 2.33,-0.64 7.64,7.64 0 0 1 2.72,0.56 c 1.48,0.58 2.62,1.7 4,3.86 1.21,2 5,8.53 2.49,10.43 a 2.52,2.52 0 0 1 -1.58,0.47 13.47,13.47 0 0 1 -5.52,-1.88 h -0.06 a 2.72,2.72 0 0 0 -1.27,-0.47 0.82,0.82 0 0 0 -0.22,0 1.57,1.57 0 0 0 -0.71,0.43 2,2 0 0 0 -0.55,1.05 2,2 0 0 1 -1.05,1.47 1.56,1.56 0 0 1 -0.68,0.14 c -2.1,0 -4.5,-4 -5,-4.77 a 24.18,24.18 0 0 1 -2.75,-8.5 c 0,-0.07 -1.33,-7.82 -0.28,-9.27 a 1.27,1.27 0 0 1 0.85,-0.52 h 0.18 m 0,-7 h -0.15 a 5.82,5.82 0 0 0 -0.93,0.07 h -0.08 a 8.18,8.18 0 0 0 -5.53,3.34 c -0.93,1.28 -2.84,3.92 -1,14.6 a 31,31 0 0 0 3.58,10.78 c 2.18,3.78 5.87,8.27 11,8.27 a 8.54,8.54 0 0 0 3.53,-0.75 8.66,8.66 0 0 0 1.6,-0.92 15.15,15.15 0 0 0 4.93,1 9.47,9.47 0 0 0 5.85,-1.92 c 2.12,-1.62 5.25,-5.5 2.44,-13.16 a 38.93,38.93 0 0 0 -3.14,-6.56 15.25,15.25 0 0 0 -7.36,-6.71 14.53,14.53 0 0 0 -5.27,-1 c -0.31,0 -0.61,0 -0.91,0 a 15.86,15.86 0 0 0 -1.53,-3.25 8.24,8.24 0 0 0 -7,-3.82 z"
       fill="#ffffff"
       id="path161" />
    <path
       d="m 420.55,38.39 a 15.06,15.06 0 0 1 -2.29,-0.16 7.73,7.73 0 0 1 -6.18,-4.7 10.78,10.78 0 0 0 -1.15,-1.85 13.11,13.11 0 0 0 -3.65,-2.63 A 18.22,18.22 0 0 1 402.94,26 5.19,5.19 0 0 1 402,20.12 c 1.36,-2.72 5.31,-4.46 8.63,-5 a 7.59,7.59 0 0 1 1.22,-0.09 16.74,16.74 0 0 1 3.26,0.39 5.07,5.07 0 0 1 1.33,-0.92 5.38,5.38 0 0 1 2.35,-0.52 6.41,6.41 0 0 1 4.57,2 6.92,6.92 0 0 1 1.79,5 c 0,1.45 -0.09,2.57 -0.15,3.56 a 10.52,10.52 0 0 0 0,2.75 c 0,0.09 0.06,0.29 0.1,0.43 l 0.1,0.08 a 5,5 0 0 1 1.48,9.62 18.53,18.53 0 0 1 -6.13,0.97 z"
       fill="url(#linear-gradient-5)"
       id="path163"
       style="fill:url(#linear-gradient-5)" />
    <path
       d="m 418.79,17.47 a 2.91,2.91 0 0 1 2,0.94 3.51,3.51 0 0 1 0.84,2.54 c 0,1.36 -0.08,2.43 -0.15,3.37 a 13.45,13.45 0 0 0 0.07,3.69 4,4 0 0 0 0.69,1.81 4.27,4.27 0 0 0 2.33,1.48 h 0.19 a 1.49,1.49 0 0 1 0.55,2.9 15.28,15.28 0 0 1 -4.78,0.7 12.3,12.3 0 0 1 -1.79,-0.12 c -2.23,-0.32 -2.89,-1.56 -3.59,-2.88 A 13.38,13.38 0 0 0 413.65,29.52 15.48,15.48 0 0 0 409,26 a 15.48,15.48 0 0 1 -3.54,-2.46 1.67,1.67 0 0 1 -0.34,-1.9 c 0.64,-1.29 3.35,-2.67 6,-3.08 a 4.65,4.65 0 0 1 0.69,-0.05 14.73,14.73 0 0 1 4.5,0.87 3.21,3.21 0 0 0 0.7,-0.81 l 0.15,-0.22 a 1.67,1.67 0 0 1 0.75,-0.71 2,2 0 0 1 0.84,-0.18 m 0,-7 a 9,9 0 0 0 -3.86,0.86 l -0.69,0.37 a 19,19 0 0 0 -2.39,-0.18 11,11 0 0 0 -1.76,0.13 c -3.9,0.6 -9.17,2.76 -11.22,6.87 a 8.71,8.71 0 0 0 1.53,9.86 21.2,21.2 0 0 0 5.14,3.71 12.14,12.14 0 0 1 2.65,1.77 8.58,8.58 0 0 1 0.8,1.3 11.19,11.19 0 0 0 8.78,6.54 20.35,20.35 0 0 0 2.78,0.19 21.89,21.89 0 0 0 7.49,-1.23 8.49,8.49 0 0 0 4.7,-11.13 8.32,8.32 0 0 0 -4.26,-4.43 c 0,-0.1 0,-0.21 0,-0.31 0.06,-1 0.14,-2.2 0.16,-3.76 a 10.35,10.35 0 0 0 -2.73,-7.4 9.86,9.86 0 0 0 -7.13,-3.15 z"
       fill="#ffffff"
       id="path165" />
    <path
       d="m 449.84,37.62 c -3.6,0 -5.85,-4.17 -7.1,-7.67 a 17.25,17.25 0 0 1 -1,-4 c 0,-0.12 0,-0.22 0,-0.31 a 13.41,13.41 0 0 0 -2,-2.09 c -1.25,-1.13 -2.67,-2.4 -2.63,-4.72 a 4.77,4.77 0 0 1 4.81,-4.67 c 1.37,0 10.89,1.94 14.1,6.74 0.73,1.09 2.34,5 0.23,8.28 a 6.22,6.22 0 0 1 -1.25,1.33 2.22,2.22 0 0 0 -0.23,0.22 c -0.21,0.2 -0.37,0.37 -0.48,0.49 a 4.8,4.8 0 0 1 -2.55,6 l -0.23,0.1 a 3.59,3.59 0 0 1 -1.37,0.3 z"
       fill="url(#linear-gradient-6)"
       id="path167"
       style="fill:url(#linear-gradient-6)" />
    <path
       d="m 441.89,17.62 c 1.17,0 9,1.93 11.19,5.18 0.25,0.39 1.31,2.7 0.19,4.46 a 2.78,2.78 0 0 1 -0.56,0.63 4.87,4.87 0 0 0 -0.37,0.35 6.86,6.86 0 0 0 -1.54,2 2.83,2.83 0 0 0 0.12,1.84 c 0.31,1 0.12,1.62 -0.57,1.93 l -0.23,0.1 h -0.28 c -1.84,0 -3.78,-5.29 -3.8,-5.35 a 13.33,13.33 0 0 1 -0.79,-3.3 3.51,3.51 0 0 0 -0.56,-1.76 15.07,15.07 0 0 0 -2.64,-2.81 c -1,-0.91 -1.48,-1.33 -1.47,-2 a 1.26,1.26 0 0 1 0.45,-0.94 1.28,1.28 0 0 1 0.86,-0.29 m 0,-7 a 8.27,8.27 0 0 0 -8.31,8.11 c -0.07,3.92 2.35,6.08 3.8,7.38 0.25,0.23 0.68,0.61 1,0.95 a 20.9,20.9 0 0 0 1.06,4.1 c 1.63,4.53 4.76,10 10.38,10 h 0.38 a 6.85,6.85 0 0 0 2.8,-0.7 l 0.23,-0.1 a 8.09,8.09 0 0 0 4.85,-7.94 10.06,10.06 0 0 0 1.09,-1.46 c 3,-4.75 1.14,-10 -0.27,-12.12 -4.11,-6.13 -15,-8.29 -17,-8.29 z"
       fill="#ffffff"
       id="path169" />
    <text
       transform="translate(586.83,34.81)"
       font-size="0.42px"
       fill="#c33a34"
       font-family="ArialMT, Arial"
       style="isolation:isolate"
       id="text171">I don’t like bugs!</text>
    <path
       d="m 585.23,40.83 c -0.23,0 -0.85,0 -1,-0.43 -0.15,-0.43 0.18,-0.67 0.32,-0.82 0.37,-0.37 0.47,-0.91 0.68,-2 a 17.33,17.33 0 0 0 0,-3.86 v -0.16 c -0.07,-1.28 -0.11,-2 0.44,-2.3 a 0.64,0.64 0 0 1 0.37,-0.09 4.92,4.92 0 0 1 1,0.15 c 0.45,0.1 0.74,0.19 1,0.26 a 2.28,2.28 0 0 0 0.77,0.15 2.72,2.72 0 0 0 0.94,-0.18 2,2 0 0 0 0.77,-0.6 c 0.16,-0.16 0.36,-0.37 0.64,-0.62 0.77,-0.7 1.33,-1.2 2,-1.2 h 0.22 a 1.82,1.82 0 0 1 1.06,0.74 c 0.11,0.12 1,1.19 0.57,1.81 a 0.76,0.76 0 0 1 -0.55,0.27 4.46,4.46 0 0 0 -2,1.08 3.15,3.15 0 0 0 -1.24,1.35 2.21,2.21 0 0 0 -0.12,0.82 c 0,0.1 0,0.21 0,0.33 a 5.45,5.45 0 0 1 -1.57,3.2 6,6 0 0 1 -4.1,2.08 z"
       fill="url(#linear-gradient-7)"
       id="path173"
       style="fill:url(#linearGradient1238)" />
    <path
       d="m 589.78,31.87 a 2.83,2.83 0 0 1 -1.07,0.21 9.12,9.12 0 0 1 -1.83,-0.41 c -0.88,-0.2 -1,-0.14 -1.07,-0.11 -0.38,0.23 -0.33,0.91 -0.26,2.14 a 18.61,18.61 0 0 1 0,3.94 c -0.22,1.17 -0.33,1.75 -0.75,2.17 -0.09,0.1 -0.33,0.31 -0.27,0.47 0.06,0.16 0.56,0.2 0.73,0.2 a 5.62,5.62 0 0 0 3.84,-2 5.19,5.19 0 0 0 1.49,-3 3.29,3.29 0 0 1 0.15,-1.25 3.53,3.53 0 0 1 1.36,-1.52 4.85,4.85 0 0 1 2.17,-1.15 0.4,0.4 0 0 0 0.31,-0.13 c 0.21,-0.28 -0.2,-1 -0.55,-1.35 a 1.53,1.53 0 0 0 -0.86,-0.63 c -0.57,-0.1 -1.08,0.35 -1.9,1.1 -0.82,0.75 -0.87,1.07 -1.49,1.32 z"
       fill="#38669e"
       id="path175" />
    <path
       d="m 523,107 a 0.47,0.47 0 0 1 -0.39,-0.21 c -1.2,-1.69 -5.21,-7.38 -6.74,-9.79 -0.17,-0.25 -0.51,-0.68 -0.87,-1.14 -1.25,-1.57 -2.06,-2.64 -2,-3.29 a 0.39,0.39 0 0 1 0.4,-0.34 5.53,5.53 0 0 1 1.34,0.43 l 0.94,0.33 a 5.61,5.61 0 0 1 1.61,-2.35 c 4,-3.61 9.48,-12.17 9.19,-13.85 a 5.76,5.76 0 0 1 0.28,-3.11 3.27,3.27 0 0 1 0.47,-1 c -0.61,-0.85 -0.34,-2.14 -0.09,-3.3 0.21,-0.94 0.38,-1.78 0.52,-2.51 0.7,-3.43 1,-4.84 2.25,-4.84 h 0.21 l 0.1,0.18 c 0.09,0.15 0.63,1.15 1,1.89 a 44.12,44.12 0 0 1 7,-8.35 v 0 c -0.25,-1.09 0.11,-3 1.16,-8.35 1.05,-5.35 2.14,-10.92 5.33,-16.42 1.89,-3.26 4.29,-5.65 9.08,-10.4 C 553.91,20.4 569.63,7 570.35,7 h 0.14 l 0.1,0.09 c 0.69,0.59 -0.56,2.21 -6.22,8.86 a 132.51,132.51 0 0 0 -8.48,10.61 36.84,36.84 0 0 0 -6.15,19.05 l 0.58,-0.28 a 2.63,2.63 0 0 0 1.25,-0.86 v -0.07 0 a 4.14,4.14 0 0 1 0.51,-1.38 7.94,7.94 0 0 1 2.46,-2.65 5.33,5.33 0 0 1 1.77,-0.82 3.69,3.69 0 0 0 1.1,-0.48 c 0.36,-0.22 0.67,-0.45 1,-0.66 a 3.21,3.21 0 0 1 1.91,-0.87 1.86,1.86 0 0 1 1,0.3 1.76,1.76 0 0 1 0.49,0.49 v 0 a 4.71,4.71 0 0 1 0.25,-2.28 4.06,4.06 0 0 1 1.56,-2.48 3,3 0 0 1 1.55,-0.53 h 0.11 a 2.86,2.86 0 0 1 1.4,0.39 l 0.25,0.12 a 1,1 0 0 0 0.31,0 1,1 0 0 0 0.34,0 1,1 0 0 0 0.62,-0.49 0.93,0.93 0 0 1 0,-0.13 c 0,-0.15 0,-0.32 0,-0.54 a 5.92,5.92 0 0 1 1.95,-3.73 4.51,4.51 0 0 1 2.88,-0.87 c 0,0 2.58,0 3,0.78 0.19,0.37 -0.13,0.66 -0.41,0.92 a 2.08,2.08 0 0 0 -0.67,0.9 c -0.05,0.17 -0.39,2.07 -0.44,2.57 0,0.11 0,0.25 0,0.42 -0.05,0.6 -0.11,1.41 -0.21,1.9 -0.26,1.31 -0.8,4 -3,4.85 a 5,5 0 0 0 1.51,0.26 h 0.28 a 4.07,4.07 0 0 0 0.86,-0.17 9.09,9.09 0 0 1 0.2,-3.71 12.11,12.11 0 0 1 1.6,-4.12 c 1.15,-1.86 4.37,-4.07 5.94,-4.07 0.9,0 2.43,0.07 2.7,0.57 a 0.46,0.46 0 0 1 0,0.49 2.72,2.72 0 0 1 -1.28,0.76 3.13,3.13 0 0 0 -0.78,0.38 1.78,1.78 0 0 0 -0.08,0.84 2.29,2.29 0 0 0 0.34,0.92 c 0.05,0.1 0.11,0.2 0.16,0.31 l 0.11,0.2 L 583,33 a 9.57,9.57 0 0 1 0.76,4.63 8.48,8.48 0 0 1 -2.58,5.68 h 0.4 a 9.07,9.07 0 0 1 1,0.09 14.17,14.17 0 0 0 1.44,0.11 c 0.21,-0.05 0.79,-0.79 1,-1.11 0.42,-0.53 0.56,-0.71 0.81,-0.71 h 0.22 l 0.12,0.22 c 0.53,1.13 -0.26,4.42 -0.63,5 l -0.21,0.34 c -0.76,1.22 -1.71,2.75 -3.46,3.24 a 5.94,5.94 0 0 1 -1.09,0.19 1,1 0 0 0 -0.57,0.14 1.8,1.8 0 0 0 -0.51,0.44 7.62,7.62 0 0 0 -1.7,3.37 v 0 c 0.07,0 0.27,-0.17 0.77,-0.88 a 2.15,2.15 0 0 1 1.72,-1.17 h 0.32 l 0.33,0.14 a 1.74,1.74 0 0 1 1,1.86 v 0.06 a 6.37,6.37 0 0 0 1,2.6 c 0.2,0.41 0.32,0.62 0.4,0.75 a 2.09,2.09 0 0 1 0.35,1.25 c -0.08,1.67 -1.55,2.59 -4.23,3.72 a 56.89,56.89 0 0 1 -5.82,2 l -0.79,0.23 a 9.5,9.5 0 0 0 -2.51,0.92 1.31,1.31 0 0 0 0,0.37 3.67,3.67 0 0 1 -0.52,2 4.76,4.76 0 0 1 -2.92,2 36,36 0 0 0 -6.42,2.79 c -1.16,0.6 -2.36,1.22 -3.59,1.77 -0.73,0.32 -1.57,0.7 -1.77,1.27 0,0.09 0,0.12 0.08,0.83 0,0.18 0.07,0.39 0.11,0.62 a 20.75,20.75 0 0 1 0.28,2.7 33.4,33.4 0 0 0 0.37,3.72 c 0.19,1.25 0.26,1.42 0.33,1.5 a 7.63,7.63 0 0 0 2.18,1.06 c 2.06,0.54 2.51,0.8 2.63,1.09 l 0.06,0.15 -0.08,0.18 c -0.29,0.6 -3.79,1.64 -3.82,1.65 -0.56,0.15 -1.74,0.59 -2.5,0.9 a 6.56,6.56 0 0 0 -1.8,1.13 l -0.52,0.4 -0.27,0.2 c -0.86,0.62 -2,1.41 -3.25,2.24 -2.52,1.7 -9.2,6.22 -9.47,7.5 a 1.55,1.55 0 0 1 0,0.21 1.93,1.93 0 0 0 0.22,1.29 c 0,0.08 0.1,0.16 0.14,0.24 0.04,0.08 0.16,0.3 0.21,0.37 0.05,0.07 0.56,0.19 0.93,0.3 1.68,0.51 2.41,0.78 2.6,1.15 a 0.45,0.45 0 0 1 0,0.36 c -0.1,0.32 -0.46,0.42 -1.52,0.42 -0.79,0 -1.8,-0.06 -2.62,-0.11 h -1.14 -0.67 c -2.2,-0.17 -3.79,-0.29 -4.43,-1.76 a 2.28,2.28 0 0 1 -0.18,-0.68 h -0.26 -0.71 l -4.25,-0.9 a 0.43,0.43 0 0 1 -0.28,-0.21 c 0.39,1 0.54,1.88 -0.15,2.25 l -0.2,0.11 -0.19,-0.14 c -0.06,0 -1.59,-1.2 -1.91,-1.46 l -0.65,-0.57 c -0.55,-0.48 -1.3,-1.13 -1.82,-1.55 a 43.76,43.76 0 0 0 0.74,5 0.44,0.44 0 0 1 -0.09,0.41 0.49,0.49 0 0 1 -0.39,0.19 z m 19.33,-24 a 6.25,6.25 0 0 1 -2.2,2.25 2.42,2.42 0 0 1 -0.49,0.22 L 539,85.73 c -0.79,0.36 -1.38,0.67 -1.6,0.79 -4.79,2.57 -9.21,5.72 -11.26,8 a 2.54,2.54 0 0 0 -0.51,0.76 4.4,4.4 0 0 0 0.1,2.74 16.6,16.6 0 0 0 0.77,2.35 8.12,8.12 0 0 0 0.37,0.75 c 0.25,0.47 0.52,1 0.74,1.52 a 0.23,0.23 0 0 1 0,-0.12 0.43,0.43 0 0 1 0.36,-0.41 c 3.09,-0.47 4.68,-0.77 4.88,-0.85 a 1.33,1.33 0 0 0 0.64,-0.92 v -0.09 l -0.35,-0.27 c -0.49,-0.38 -1.11,-0.85 -0.76,-1.52 0.24,-0.48 1.18,-0.53 2.46,-0.56 a 4.3,4.3 0 0 0 0.58,0 5.42,5.42 0 0 0 0.79,-0.19 3.15,3.15 0 0 0 0.35,-0.37 l 0.06,-0.07 A 40.6,40.6 0 0 1 540,94 c 1.57,-1.42 4.19,-3.81 4.36,-4.78 A 2.71,2.71 0 0 1 545.77,87 H 546 c -0.63,-0.6 -1.2,-1.24 -1.75,-1.87 -0.55,-0.63 -1.07,-1.21 -1.63,-1.74 -0.07,-0.07 -0.18,-0.18 -0.31,-0.33 z m -11.2,-10.17 a 2,2 0 0 1 0.47,0.37 2.12,2.12 0 0 1 0.46,1.92 v 0.18 l 1.59,-1.73 c 0.77,-0.83 1.19,-1.22 1.45,-1.46 a 0.86,0.86 0 0 0 0.14,-0.14 1.18,1.18 0 0 0 0.16,-0.69 5.58,5.58 0 0 1 0.4,-1.93 c 0.09,-0.21 0.21,-0.52 0.38,-0.86 a 10.73,10.73 0 0 0 -1.59,1.73 c -0.24,0.32 -0.42,0.6 -0.56,0.81 a 3.26,3.26 0 0 1 -1.62,1.52 4.07,4.07 0 0 1 -1.25,0.28 z m 31,-33.61 c 0,0.09 0,0.18 0,0.24 a 3.65,3.65 0 0 1 -0.41,2 8.45,8.45 0 0 0 -0.55,1.8 6.76,6.76 0 0 0 0.51,-0.62 c 0.84,-1.17 1.17,-2.23 1,-2.57 a 1.24,1.24 0 0 0 -0.15,-0.21 5.66,5.66 0 0 1 -0.39,-0.63 z"
       fill="url(#linear-gradient-8)"
       id="path177"
       style="fill:url(#linear-gradient-8)" />
    <path
       d="m 538.4,106 h -0.65 c -2.15,-0.16 -3.57,-0.27 -4.13,-1.54 a 2.06,2.06 0 0 1 -0.14,-1 1.3,1.3 0 0 1 -0.62,0.16 h -0.67 l -4.22,-0.89 a 0.08,0.08 0 0 1 0,-0.15 c 1.22,-0.19 4.71,-0.73 5,-0.89 0.85,-0.48 0.77,-1.24 0.93,-1.41 -0.57,-0.57 -1.51,-1 -1.22,-1.54 0.29,-0.54 2.38,-0.32 2.78,-0.39 a 6.43,6.43 0 0 0 0.89,-0.22 2.61,2.61 0 0 0 0.52,-0.53 40.37,40.37 0 0 1 3.34,-3.26 c 1.8,-1.64 4.27,-3.89 4.46,-5 a 2.44,2.44 0 0 1 1.25,-1.91 1.74,1.74 0 0 1 0.7,-0.16 h 0.19 a 23.19,23.19 0 0 1 -2.3,-2.36 c -0.53,-0.6 -1.08,-1.23 -1.65,-1.77 a 2.45,2.45 0 0 1 -0.59,-0.77 6,6 0 0 1 -2.36,2.63 1.89,1.89 0 0 1 -0.43,0.19 c -0.09,0 -0.25,0.09 -0.66,0.28 -0.81,0.36 -1.41,0.68 -1.63,0.8 -4.83,2.59 -9.28,5.77 -11.36,8.09 a 3.06,3.06 0 0 0 -0.57,0.86 4.77,4.77 0 0 0 0.08,3 17.24,17.24 0 0 0 0.79,2.4 c 0.31,0.79 2.17,3.66 1.17,4.19 0,0 -1.59,-1.19 -1.9,-1.45 -0.56,-0.48 -2.41,-2.12 -3,-2.51 a 0.07,0.07 0 0 0 -0.12,0.06 38.28,38.28 0 0 0 0.78,5.66 0.14,0.14 0 0 1 -0.24,0.11 c -1.28,-1.8 -5.21,-7.39 -6.73,-9.78 -0.57,-0.89 -2.9,-3.41 -2.8,-4.2 0,-0.19 2.54,1 2.59,0.77 A 5,5 0 0 1 517.47,91 c 3.9,-3.5 9.63,-12.24 9.3,-14.18 a 5.37,5.37 0 0 1 0.27,-3 2.65,2.65 0 0 1 0.61,-1.11 c -0.76,-0.69 -0.48,-2 -0.22,-3.22 1.09,-5.06 1.22,-7.08 2.42,-7.08 0,0 1.07,1.94 1.25,2.49 a 42.15,42.15 0 0 1 7.43,-9 0.7,0.7 0 0 0 0,-0.27 c -0.24,-1 0.16,-3.13 1.16,-8.2 1,-5.34 2.13,-10.87 5.28,-16.31 1.87,-3.22 4.26,-5.6 9,-10.33 0.1,-0.1 16.08,-13.66 16.34,-13.43 0.92,0.79 -10.76,12.9 -14.77,19 a 36.79,36.79 0 0 0 -4.44,9.23 37.55,37.55 0 0 0 -1.78,10.63 9.22,9.22 0 0 1 1.11,-0.58 2.87,2.87 0 0 0 1.39,-1 0.42,0.42 0 0 0 0.09,-0.24 3.86,3.86 0 0 1 0.47,-1.27 7.57,7.57 0 0 1 2.35,-2.52 4.94,4.94 0 0 1 1.67,-0.78 3.84,3.84 0 0 0 1.19,-0.52 c 0.36,-0.22 0.69,-0.46 1,-0.67 a 3,3 0 0 1 1.7,-0.8 1.4,1.4 0 0 1 0.8,0.24 1.73,1.73 0 0 1 0.69,1.42 3.24,3.24 0 0 1 -0.37,1.79 10.61,10.61 0 0 0 -0.75,3 7.5,7.5 0 0 0 1.31,-1.4 c 0.74,-1 1.34,-2.33 1,-2.94 a 1.52,1.52 0 0 0 -0.19,-0.27 3.14,3.14 0 0 1 -0.69,-1.45 4.29,4.29 0 0 1 0.24,-2.12 3.76,3.76 0 0 1 1.41,-2.28 2.69,2.69 0 0 1 1.37,-0.48 h 0.1 a 2.48,2.48 0 0 1 1.24,0.35 2.38,2.38 0 0 0 0.29,0.13 1.21,1.21 0 0 0 0.43,0.07 2.15,2.15 0 0 0 0.43,0 1.38,1.38 0 0 0 0.86,-0.71 0.52,0.52 0 0 0 0,-0.25 c 0,-0.14 0,-0.3 0,-0.51 a 5.51,5.51 0 0 1 1.81,-3.49 4.2,4.2 0 0 1 2.66,-0.8 c 0.9,0 2.46,0.23 2.65,0.59 0.19,0.36 -0.87,0.72 -1.11,1.56 -0.06,0.22 -0.4,2.14 -0.45,2.64 -0.05,0.5 -0.12,1.67 -0.24,2.29 -0.27,1.38 -0.82,3.91 -2.89,4.63 a 3.32,3.32 0 0 1 -0.95,0.17 6.26,6.26 0 0 0 2.71,0.72 h 0.31 a 3.73,3.73 0 0 0 1.26,-0.31 8,8 0 0 1 0.12,-3.86 11.81,11.81 0 0 1 1.55,-4 c 1.06,-1.73 4.18,-3.91 5.64,-3.91 0.32,0 2.67,0.06 2.38,0.51 -0.29,0.45 -1.84,0.73 -2.08,1.18 a 2,2 0 0 0 -0.11,1 3.61,3.61 0 0 0 0.53,1.36 c 0.08,0.15 0.2,0.35 0.28,0.52 a 9.25,9.25 0 0 1 0.73,4.45 8.09,8.09 0 0 1 -2.56,5.53 7.11,7.11 0 0 1 -0.9,0.65 6,6 0 0 1 1.63,-0.12 c 0.53,0 1.58,0.2 2.44,0.21 0.57,0 1.78,-2 1.88,-1.81 0.47,1 -0.3,4.16 -0.61,4.65 -0.78,1.24 -1.69,2.93 -3.47,3.43 a 4.76,4.76 0 0 1 -1,0.17 1.38,1.38 0 0 0 -0.72,0.19 2,2 0 0 0 -0.6,0.53 c -1.27,1.48 -2,3.5 -1.77,3.83 A 0.51,0.51 0 0 0 578,55 h 0.05 c 0.33,-0.05 0.79,-0.71 1,-1 0.21,-0.29 0.71,-1 1.43,-1 h 0.25 l 0.26,0.11 a 1.39,1.39 0 0 1 0.76,1.51 v 0.06 c 0,0.65 0.28,1.32 1,2.77 0.21,0.43 0.33,0.64 0.42,0.79 a 1.75,1.75 0 0 1 0.3,1.05 c -0.08,1.47 -1.47,2.33 -4,3.4 a 58,58 0 0 1 -5.79,2 l -0.79,0.23 c -1.87,0.55 -2.59,0.79 -2.73,1.13 a 1.23,1.23 0 0 0 -0.07,0.5 3.23,3.23 0 0 1 -0.46,1.77 4.44,4.44 0 0 1 -2.72,1.82 36.11,36.11 0 0 0 -6.48,2.82 c -1.16,0.59 -2.35,1.21 -3.57,1.75 -0.8,0.36 -1.71,0.76 -2,1.48 -0.06,0.19 -0.06,0.27 0.07,1 0,0.19 0.07,0.39 0.11,0.62 a 19.81,19.81 0 0 1 0.27,2.66 c 0,0.85 0.1,1.82 0.38,3.76 0.21,1.37 0.29,1.53 0.41,1.68 a 7.63,7.63 0 0 0 2.36,1.16 c 0.53,0.14 2.27,0.59 2.39,0.89 0.12,0.3 -2.59,1.22 -3.61,1.49 -0.58,0.16 -1.77,0.61 -2.54,0.93 a 10,10 0 0 0 -2.4,1.56 l -0.27,0.2 c -0.85,0.62 -2,1.41 -3.24,2.24 -3,2 -9.31,6.3 -9.61,7.72 a 1.7,1.7 0 0 1 0,0.22 2.25,2.25 0 0 0 0.27,1.52 3.17,3.17 0 0 0 0.45,0.74 c 0.44,0.23 3.57,1 3.43,1.4 -0.14,0.4 -4.12,0 -4.94,0 z M 529.83,72.93 H 530 a 1.85,1.85 0 0 1 1.35,0.55 1.76,1.76 0 0 1 0.37,1.62 6.52,6.52 0 0 0 -0.08,0.67 c 0,0.17 0,0.41 0,0.61 0.37,-0.47 1,-1.19 2.28,-2.54 0.76,-0.82 1.18,-1.21 1.43,-1.44 0.25,-0.23 0.19,-0.17 0.23,-0.27 a 1.57,1.57 0 0 0 0.19,-0.8 5.11,5.11 0 0 1 0.37,-1.82 6.38,6.38 0 0 1 2.4,-3.17 6.69,6.69 0 0 1 0.66,-0.36 1.51,1.51 0 0 0 0.3,-0.17 0.11,0.11 0 0 0 0,-0.08 h -0.05 c -0.43,0 -1,0.35 -2.08,1.27 a 17.14,17.14 0 0 0 -3.09,3 c -0.25,0.33 -0.43,0.61 -0.57,0.83 a 3,3 0 0 1 -1.46,1.38 3.86,3.86 0 0 1 -1.49,0.27 2.15,2.15 0 0 0 -1.05,0.21 l 0.14,0.16 v 0 z"
       fill="#3b5e88"
       id="path179" />
    <path
       d="m 538.4,105.27 h -0.59 c -2,-0.16 -3.15,-0.24 -3.54,-1.12 a 2.56,2.56 0 0 1 0,-1.43 c 0.05,-0.24 0.11,-0.45 0.16,-0.61 -0.37,0.15 -0.83,0.4 -1,0.5 -0.35,0.19 -0.43,0.23 -0.57,0.23 h -0.27 l -0.24,-0.4 v -0.2 c 0.05,-0.2 0.17,-0.27 0.46,-0.43 1.66,-1 1.87,-1.46 1.85,-1.67 a 1,1 0 0 0 -0.31,-0.43 c -0.17,-0.17 -0.5,-0.5 -0.29,-0.9 a 0.63,0.63 0 0 1 0.61,-0.33 3.65,3.65 0 0 1 0.51,0.06 4.89,4.89 0 0 0 0.81,0.09 1.8,1.8 0 0 0 0.79,-0.16 1.77,1.77 0 0 0 0.57,-0.48 40.59,40.59 0 0 1 3.28,-3.19 c 2.08,-1.9 4.44,-4 4.68,-5.38 a 1.79,1.79 0 0 1 0.85,-1.4 0.93,0.93 0 0 1 0.4,-0.09 1,1 0 0 1 0.24,0 h 0.26 c 0.44,-0.08 0.77,-0.52 0.75,-0.7 -0.02,-0.18 -0.14,-0.19 -0.2,-0.24 A 20.35,20.35 0 0 1 545,84.38 c -0.54,-0.62 -1.1,-1.25 -1.69,-1.81 a 1.57,1.57 0 0 1 -0.49,-0.72 1.6,1.6 0 0 1 0.12,-1.2 c 0,-0.12 0.11,-0.25 0.09,-0.3 a 1,1 0 0 0 -0.79,-0.35 0.59,0.59 0 0 0 -0.19,0 0.49,0.49 0 0 1 0,0.14 5.36,5.36 0 0 1 -2.53,4.16 1.5,1.5 0 0 1 -0.32,0.15 5.88,5.88 0 0 0 -0.71,0.29 c -0.83,0.37 -1.45,0.7 -1.68,0.82 -4.89,2.63 -9.42,5.87 -11.55,8.25 a 3.74,3.74 0 0 0 -0.69,1 5.31,5.31 0 0 0 0,3.41 17.64,17.64 0 0 0 0.82,2.49 c 0.29,0.77 0.46,1.19 0,1.43 h -0.1 -0.14 a 0.86,0.86 0 0 1 -0.61,-0.38 c -0.88,-1 -1.86,-2.05 -2.76,-2.14 h -0.15 a 0.6,0.6 0 0 0 -0.3,0 c 0,0 0,0.12 0.07,0.46 a 10,10 0 0 0 0.26,1 0.63,0.63 0 0 1 -0.11,0.77 l -0.13,0.09 h -0.19 c -0.7,0 -3.29,-2.49 -4.44,-5.75 a 4.53,4.53 0 0 1 -0.27,-2.81 4.3,4.3 0 0 1 1.48,-1.94 c 3.56,-3.19 10,-12.32 9.53,-14.83 a 4.68,4.68 0 0 1 0.25,-2.62 c 0.09,-0.29 0.3,-1 0.87,-1 v 0 a 0.74,0.74 0 0 1 0.62,0.34 0.76,0.76 0 0 0 0.67,0.3 1,1 0 0 1 1.06,1.37 6.63,6.63 0 0 0 -0.09,0.72 c 0,0.83 -0.07,1.31 0.16,1.57 a 0.76,0.76 0 0 0 0.51,0.24 h 0.1 c 0.07,0 0.12,-0.15 0.14,-0.2 a 19.53,19.53 0 0 1 2.57,-3 19.49,19.49 0 0 1 1.39,-1.4 1.41,1.41 0 0 0 0.39,-0.48 2.32,2.32 0 0 0 0.26,-1.09 4.16,4.16 0 0 1 0.32,-1.59 5.77,5.77 0 0 1 2.12,-2.83 6.35,6.35 0 0 1 0.6,-0.33 c 0.35,-0.17 0.5,-0.25 0.62,-0.48 a 0.92,0.92 0 0 0 0,-0.91 0.79,0.79 0 0 0 -0.56,-0.2 h -0.1 c -0.63,0 -1.29,0.37 -2.54,1.43 a 18.06,18.06 0 0 0 -3.2,3.16 c -0.26,0.36 -0.45,0.65 -0.6,0.88 a 2.38,2.38 0 0 1 -1.13,1.11 3.37,3.37 0 0 1 -1.24,0.21 2.75,2.75 0 0 0 -1.4,0.31 h -0.08 a 1.17,1.17 0 0 1 -0.57,0.19 0.82,0.82 0 0 1 -0.31,-0.07 c -0.67,-0.34 -0.42,-1.47 -0.17,-2.67 1,-4.54 1.08,-5 1.71,-5 h 0.06 c 0.6,0.06 0.66,0.8 0.77,2.14 0,0.15 0,0.34 0,0.53 1.69,-4.32 7.36,-10.16 8.25,-10.79 a 0.48,0.48 0 0 0 0.17,-0.16 1.06,1.06 0 0 0 0.07,-0.84 c -0.2,-0.88 0.24,-3.18 1.16,-7.9 1,-5.29 2.11,-10.75 5.21,-16.09 1.82,-3.13 4.19,-5.49 8.91,-10.17 4.72,-4.68 10.81,-10 11.78,-10 a 0.51,0.51 0 0 1 0.39,0.16 c 0.4,0.42 0.15,0.68 -1.44,2.39 a 89.45,89.45 0 0 0 -10.07,12.6 35.3,35.3 0 0 0 -4.71,8.9 36.63,36.63 0 0 0 -1.78,12.31 6.23,6.23 0 0 1 2.09,-1.39 3.45,3.45 0 0 0 1.71,-1.26 1,1 0 0 0 0.19,-0.5 3,3 0 0 1 0.39,-1.05 7,7 0 0 1 2.13,-2.28 4.56,4.56 0 0 1 1.46,-0.68 5,5 0 0 0 1.37,-0.59 c 0.39,-0.24 0.73,-0.49 1,-0.71 0.54,-0.4 0.9,-0.67 1.28,-0.67 a 0.74,0.74 0 0 1 0.41,0.13 1.09,1.09 0 0 1 0.38,0.89 2.6,2.6 0 0 1 -0.3,1.4 c -0.53,1 -1.1,3.93 -0.79,4.46 a 5.74,5.74 0 0 0 2.56,-2.17 c 0.41,-0.56 1.68,-2.5 1.08,-3.68 a 2.33,2.33 0 0 0 -0.26,-0.38 2.42,2.42 0 0 1 -0.55,-1.14 3.64,3.64 0 0 1 0.22,-1.79 3.06,3.06 0 0 1 1.13,-1.89 1.86,1.86 0 0 1 1,-0.36 h 0.07 a 1.88,1.88 0 0 1 0.9,0.26 2,2 0 0 0 0.39,0.18 2,2 0 0 0 0.66,0.11 2.44,2.44 0 0 0 0.62,-0.08 2.11,2.11 0 0 0 1.33,-1.12 1.29,1.29 0 0 0 0.08,-0.49 c 0,-0.13 0,-0.28 0,-0.46 a 5,5 0 0 1 1.52,-3.13 3.73,3.73 0 0 1 2.24,-0.83 1.43,1.43 0 0 1 1.13,0.43 c 0.39,0.45 0.24,1 0,1.73 -0.06,0.21 -0.13,0.47 -0.2,0.76 a 8.71,8.71 0 0 0 -0.3,2 5.89,5.89 0 0 1 -0.23,1.56 c -0.34,1.24 -1,3.53 -2.69,4.12 a 2.63,2.63 0 0 1 -0.86,0.14 c -0.23,0 -0.46,0 -0.68,0 a 5.12,5.12 0 0 0 -0.7,-0.05 3.41,3.41 0 0 0 -0.89,0.12 2.34,2.34 0 0 1 0.41,0.27 8.61,8.61 0 0 0 4.71,1.85 h 0.36 c 1,-0.07 1.9,-0.44 2,-0.79 a 0.49,0.49 0 0 0 0,-0.26 7,7 0 0 1 0.09,-3.69 11.24,11.24 0 0 1 1.45,-3.75 c 1.2,-1.94 3.23,-3.78 4.19,-3.78 a 0.71,0.71 0 0 1 0.43,0.13 c 0.35,0.26 0.27,0.66 0.21,1 a 3.75,3.75 0 0 0 -0.09,1.16 4.14,4.14 0 0 0 0.51,1.59 l 0.22,0.45 a 8.35,8.35 0 0 1 0.59,4.17 7.38,7.38 0 0 1 -2.32,5 7.2,7.2 0 0 1 -1.33,0.88 3.81,3.81 0 0 0 -1.55,1.25 c -0.22,0.31 -0.8,1.11 -0.59,1.52 a 1.09,1.09 0 0 0 0.85,0.43 0.24,0.24 0 0 0 0.13,0 4.32,4.32 0 0 1 2.18,-2.16 4.08,4.08 0 0 1 1.51,-0.12 h 2.07 c 0.5,0 1.12,0 1.42,0.51 0.3,0.51 0,1.11 -0.39,1.7 -0.75,1.19 -1.53,2.43 -3,2.86 a 4.22,4.22 0 0 1 -0.9,0.14 2.11,2.11 0 0 0 -1,0.28 2.75,2.75 0 0 0 -0.79,0.68 c -1,1.22 -2.53,3.85 -1.77,4.75 a 1.14,1.14 0 0 0 0.88,0.37 h 0.16 c 0.62,-0.09 1.14,-0.83 1.49,-1.32 0.35,-0.49 0.49,-0.71 0.84,-0.71 h 0.11 l 0.13,0.05 c 0.36,0.17 0.34,0.59 0.32,0.81 v 0.06 c -0.05,0.84 0.3,1.56 1.06,3.13 0.22,0.45 0.36,0.69 0.45,0.84 a 1.07,1.07 0 0 1 0.2,0.65 c 0,1 -1,1.68 -3.58,2.79 a 57.94,57.94 0 0 1 -5.71,2 l -0.8,0.23 c -2.2,0.64 -2.91,0.88 -3.18,1.53 a 2,2 0 0 0 -0.12,0.76 2.59,2.59 0 0 1 -0.36,1.42 3.68,3.68 0 0 1 -2.3,1.5 37.45,37.45 0 0 0 -6.62,2.88 c -1.14,0.59 -2.33,1.2 -3.53,1.73 -0.89,0.4 -2,0.89 -2.35,1.89 a 2.49,2.49 0 0 0 0,1.38 c 0,0.18 0.07,0.38 0.11,0.61 a 19.76,19.76 0 0 1 0.26,2.58 37.13,37.13 0 0 0 0.39,3.82 c 0.21,1.44 0.31,1.73 0.57,2 a 3.23,3.23 0 0 0 1.76,0.91 c 0.48,0.13 1,0.26 1,0.77 0,0.51 -0.57,0.73 -1.53,1 a 17.62,17.62 0 0 0 -2.16,0.7 12.52,12.52 0 0 0 -2.74,1.63 l -0.27,0.2 c -0.84,0.61 -2,1.39 -3.22,2.22 -3.8,2.57 -9.55,6.46 -9.9,8.17 a 2.52,2.52 0 0 0 0,1.07 2.27,2.27 0 0 0 0.52,0.83 c 0.22,0.26 0.5,0.58 0.32,1 -0.18,0.42 -0.74,0.44 -1,0.44 z"
       fill="#465d76"
       id="path181" />
    <path
       d="m 521.35,101.64 c 0.06,0 -0.12,-0.31 -0.32,-1.29 -0.1,-0.48 -0.11,-0.67 0,-0.82 0.22,-0.31 0.79,-0.26 0.89,-0.25 1.08,0.11 2.11,1.25 3.05,2.29 0.1,0.11 0.23,0.26 0.29,0.23 0.06,-0.03 -0.62,-1.47 -1.07,-3.4 a 5.69,5.69 0 0 1 0,-3.69 4.06,4.06 0 0 1 0.77,-1.19 c 2.08,-2.33 6.54,-5.59 11.68,-8.34 0.3,-0.17 0.9,-0.48 1.71,-0.84 0.81,-0.36 0.75,-0.28 1,-0.42 a 4.93,4.93 0 0 0 2.29,-3.73 0.67,0.67 0 0 1 0.14,-0.5 1.34,1.34 0 0 1 1.75,0.5 c 0.17,0.47 -0.42,0.87 -0.21,1.51 a 1.17,1.17 0 0 0 0.36,0.52 c 1.49,1.41 2.67,3.15 4.29,4.41 a 0.89,0.89 0 0 1 0.38,0.55 c 0.06,0.49 -0.51,1.11 -1.13,1.23 -0.38,0.07 -0.53,-0.1 -0.8,0 -0.45,0.21 -0.54,0.88 -0.57,1 -0.42,2.3 -5.75,6.11 -8.05,8.78 a 2.15,2.15 0 0 1 -0.75,0.61 c -1.11,0.54 -2.35,-0.16 -2.5,0.14 -0.15,0.3 0.59,0.51 0.65,1.07 0.11,1.08 -2.35,2.21 -2.32,2.27 0.03,0.06 1.9,-1.14 2.19,-0.81 0.12,0.14 -0.14,0.44 -0.29,1.25 a 2.09,2.09 0 0 0 0,1.15 c 0.27,0.62 1.26,0.69 3.13,0.83 0.69,0.06 1,0 1.1,-0.13 0.1,-0.13 -0.6,-0.63 -0.86,-1.48 a 2.74,2.74 0 0 1 0,-1.31 c 0.51,-2.46 9.67,-8 13.31,-10.68 a 14,14 0 0 1 3.1,-1.87 c 1.83,-0.77 3.4,-0.88 3.4,-1.26 0,-0.38 -1.67,-0.23 -2.64,-1.38 -0.36,-0.42 -0.47,-0.84 -0.68,-2.27 -0.55,-3.74 -0.25,-4 -0.65,-6.4 -0.19,-1.19 -0.34,-1.58 -0.12,-2.21 a 4.27,4.27 0 0 1 2.6,-2.17 C 559.8,72.09 563,70 566.58,69 a 3.33,3.33 0 0 0 2.06,-1.31 c 0.49,-0.8 0.13,-1.35 0.44,-2.11 0.42,-1 1.54,-1.22 4.28,-2 a 55.33,55.33 0 0 0 5.67,-2 c 2.43,-1 3.25,-1.65 3.29,-2.38 0,-0.26 -0.1,-0.21 -0.6,-1.25 -0.78,-1.6 -1.17,-2.4 -1.11,-3.37 0,-0.17 0,-0.37 -0.05,-0.41 -0.29,-0.14 -1,1.83 -2.3,2 a 1.71,1.71 0 0 1 -1.48,-0.53 c -1.07,-1.28 0.88,-4.31 1.78,-5.36 a 3.55,3.55 0 0 1 0.91,-0.78 c 0.79,-0.45 1.22,-0.24 2,-0.47 1.34,-0.38 2.07,-1.52 2.78,-2.65 0.47,-0.73 0.49,-1 0.38,-1.21 -0.11,-0.21 -0.57,-0.27 -1,-0.28 a 21.52,21.52 0 0 0 -3.37,0.06 4,4 0 0 0 -1.94,1.86 0.47,0.47 0 0 1 -0.14,0.24 c -0.37,0.31 -1.4,0 -1.7,-0.56 -0.3,-0.56 0.32,-1.59 0.63,-2 1,-1.33 1.84,-1.25 2.95,-2.22 a 7.13,7.13 0 0 0 2.16,-4.73 8,8 0 0 0 -0.55,-3.93 6,6 0 0 1 -0.77,-2.19 c -0.09,-1.11 0.3,-1.65 0.07,-1.81 -0.45,-0.34 -2.59,1.33 -3.93,3.51 a 10.59,10.59 0 0 0 -1.39,3.58 6.55,6.55 0 0 0 -0.12,3.43 0.94,0.94 0 0 1 0.06,0.56 c -0.18,0.74 -1.53,1.08 -2.4,1.15 -2.6,0.2 -5.12,-1.7 -5.4,-1.93 a 1.68,1.68 0 0 0 -0.34,-0.23 c -0.6,-0.28 -1.17,-0.06 -1.2,-0.17 -0.03,-0.11 0.31,-0.34 0.9,-0.57 1.63,-0.63 2.43,0.08 3.5,-0.29 1.48,-0.51 2.06,-2.61 2.38,-3.79 0.39,-1.4 0,-1.52 0.53,-3.57 0.3,-1.22 0.56,-1.73 0.28,-2.07 -0.44,-0.51 -1.86,-0.25 -2.72,0.45 a 4.6,4.6 0 0 0 -1.35,2.82 2.94,2.94 0 0 1 -0.15,1.08 2.51,2.51 0 0 1 -1.62,1.37 2.62,2.62 0 0 1 -1.57,0 c -0.5,-0.17 -0.7,-0.44 -1.18,-0.42 a 1.59,1.59 0 0 0 -0.77,0.28 2.72,2.72 0 0 0 -0.94,1.64 3.2,3.2 0 0 0 -0.2,1.56 c 0.12,0.7 0.51,0.91 0.76,1.39 0.79,1.54 -0.85,3.82 -1.11,4.18 -1,1.31 -2.63,2.68 -3.2,2.3 -0.76,-0.5 0.12,-4.11 0.62,-5.08 a 2.21,2.21 0 0 0 0.25,-1.15 c 0,-0.24 0,-0.45 -0.18,-0.54 -0.34,-0.23 -1.05,0.56 -2.21,1.26 -1.42,0.86 -1.61,0.45 -2.8,1.26 a 6.27,6.27 0 0 0 -2,2.12 c -0.5,0.9 -0.19,0.93 -0.6,1.57 -1,1.59 -2.77,1.26 -4.15,3.11 -0.13,0.17 -0.17,0.25 -0.24,0.24 -0.55,-0.09 -0.53,-7.15 1.54,-13.41 1.14,-3.45 2.58,-5.68 4.77,-9 6,-9.15 11.84,-14.1 11.55,-14.41 -0.29,-0.31 -5.77,4.16 -11.48,9.83 -4.71,4.66 -7.06,7 -8.84,10.08 -3.06,5.27 -4.1,10.58 -5.15,15.94 -0.79,4 -1.36,6.89 -1.18,7.69 a 1.57,1.57 0 0 1 -0.13,1.23 1.13,1.13 0 0 1 -0.28,0.28 c -0.83,0.58 -6.8,6.71 -8.23,11 0,0.16 -0.25,0.75 -0.44,0.74 -0.46,0 -0.3,-3.46 -0.73,-3.5 -0.25,0 -0.58,1.53 -1.25,4.64 -0.2,0.93 -0.42,2 -0.08,2.14 0.14,0.08 0.31,0 0.52,-0.15 1.12,-0.59 1.83,-0.19 2.68,-0.54 0.64,-0.27 0.68,-0.68 1.53,-1.83 a 18.53,18.53 0 0 1 3.27,-3.24 c 1.33,-1.13 2.12,-1.6 3,-1.54 a 1.22,1.22 0 0 1 0.89,0.36 1.36,1.36 0 0 1 0.06,1.44 c -0.29,0.55 -0.76,0.59 -1.39,1 a 5.21,5.21 0 0 0 -1.93,2.61 c -0.53,1.33 0,1.62 -0.6,2.71 -0.28,0.56 -0.32,0.33 -1.85,2 a 23.48,23.48 0 0 0 -2.48,2.84 0.81,0.81 0 0 1 -0.39,0.45 1.08,1.08 0 0 1 -1.15,-0.34 c -0.38,-0.41 -0.34,-1 -0.28,-1.91 0.06,-0.91 0.23,-1.18 0,-1.41 -0.23,-0.23 -0.85,0 -1.35,-0.42 -0.23,-0.2 -0.28,-0.4 -0.44,-0.39 -0.16,0.01 -0.36,0.41 -0.44,0.68 a 4.19,4.19 0 0 0 -0.24,2.4 c 0.5,2.87 -6.29,12.23 -9.65,15.24 a 4,4 0 0 0 -1.26,1.91 4.16,4.16 0 0 0 0.26,2.53 c 1.18,3.34 3.82,5.59 4,5.43 z"
       fill="#3e72b2"
       id="path183" />
    <path
       d="m 586.42,55.46 a 3.48,3.48 0 0 1 -0.45,0 3.23,3.23 0 0 1 -1.29,-0.55 h -0.07 a 20.26,20.26 0 0 0 -2.11,-1.16 c -0.78,-0.39 -1.21,-0.61 -1.13,-1.09 0.08,-0.48 0.38,-0.46 0.7,-0.56 a 5.28,5.28 0 0 0 0.75,-0.28 7.08,7.08 0 0 0 2,-1.67 c 0.66,-0.68 1,-1.1 1.26,-1.4 a 4.41,4.41 0 0 1 1,-0.94 5.26,5.26 0 0 1 2.26,-1 0.54,0.54 0 0 1 0.46,0.2 c 0.21,0.29 0,0.58 -0.19,0.84 a 3.82,3.82 0 0 0 -0.28,0.42 3.12,3.12 0 0 0 -0.24,2.06 8.39,8.39 0 0 1 -0.09,2.67 2.91,2.91 0 0 1 -0.9,1.89 2.55,2.55 0 0 1 -1.65,0.54 z"
       fill="url(#linear-gradient-9)"
       id="path185"
       style="fill:url(#linear-gradient-9)" />
    <path
       d="m 581.72,52.65 c -0.07,0.39 1,0.6 3.08,1.89 a 3.08,3.08 0 0 0 1.22,0.54 2.45,2.45 0 0 0 1.83,-0.43 2.67,2.67 0 0 0 0.77,-1.69 c 0.47,-2.39 -0.47,-3.5 0.34,-4.93 0.27,-0.46 0.59,-0.74 0.49,-0.87 -0.1,-0.13 -1.31,0.23 -2.23,0.87 -0.92,0.64 -0.68,0.75 -2.19,2.3 a 7.68,7.68 0 0 1 -2,1.74 c -0.77,0.37 -1.22,0.33 -1.26,0.58 z"
       fill="#38669e"
       id="path187" />
    <path
       d="m 586.86,32.55 c -0.71,0.48 0.72,2.46 0.13,5.15 -0.1,0.46 -0.24,0.84 -0.08,1 0.34,0.25 1.84,-0.65 2.51,-2 0.45,-0.94 0.13,-1.31 0.78,-2.64 0.26,-0.53 0.46,-0.8 0.34,-1 -0.12,-0.2 -0.9,0 -2.27,-0.21 -1.06,-0.22 -1.18,-0.45 -1.41,-0.3 z"
       fill="#3e72b2"
       id="path189" />
    <path
       d="m 586.42,53.92 h -0.21 a 1.8,1.8 0 0 1 -0.71,-0.33 h -0.08 c -0.49,-0.31 -0.93,-0.56 -1.31,-0.76 a 14.6,14.6 0 0 0 1.77,-1.62 c 0.7,-0.72 1.07,-1.16 1.34,-1.48 a 3.21,3.21 0 0 1 0.22,-0.25 c 0,0.34 0,0.67 0.06,1 a 7.24,7.24 0 0 1 0,2.31 2.12,2.12 0 0 1 -0.37,1 1.1,1.1 0 0 1 -0.67,0.18 z"
       fill="#3e72b2"
       id="path191" />
    <path
       d="m 485.2,104.56 a 5.9,5.9 0 0 1 -1.29,-0.17 c -2.68,-0.64 -4.56,-3.35 -5.46,-4.66 -1.57,-2.28 -3.06,-4.69 -4.43,-7.16 a 1.31,1.31 0 0 1 0,-1.3 1.34,1.34 0 0 1 1.13,-0.64 1.25,1.25 0 0 1 0.43,0.07 23.59,23.59 0 0 0 6.35,0.93 8.53,8.53 0 0 0 2.27,-0.25 c 0.7,-0.25 2.38,-1.3 2.54,-1.83 a 2.92,2.92 0 0 0 -1.39,-1.34 c -5.77,-2.6 -9.59,-4.32 -10.22,-4.46 a 17.72,17.72 0 0 0 -3.23,-0.24 57.62,57.62 0 0 0 -7.62,0.62 c -1.47,0.2 -3.08,0.45 -4.78,0.72 a 95.94,95.94 0 0 1 -13.9,1.55 19.79,19.79 0 0 1 -4.06,-0.36 c -1.24,-0.25 -4.17,-1.07 -4.43,-3.09 a 3.11,3.11 0 0 1 0,-0.81 8.39,8.39 0 0 0 0.05,-1.27 h -0.15 -0.24 c -2.53,0 -5.45,-5.35 -6.51,-11.91 a 58.87,58.87 0 0 1 -0.54,-10 c 0,-0.84 0,-1.53 0,-2.13 a 15.33,15.33 0 0 0 -0.26,-4.15 12.57,12.57 0 0 0 -2.75,-6.13 17.9,17.9 0 0 0 -3.3,-2.55 c -1.26,-0.84 -2.34,-1.56 -1.81,-2.72 a 1.34,1.34 0 0 1 0.89,-0.76 c 3.12,-1 4.94,-1.5 6.27,-1.5 a 3,3 0 0 1 1.82,0.52 4.65,4.65 0 0 1 1.64,2.66 c 1,3.4 1.78,5.92 2.33,8.09 0.68,-2.55 0.33,-9 -2.1,-14.13 A 13.94,13.94 0 0 0 429.92,32.45 17.65,17.65 0 0 1 426.43,27 c -1.5,-3.42 -2.89,-7.78 -1,-9.1 a 1.88,1.88 0 0 1 1.05,-0.32 5.41,5.41 0 0 1 2.64,1.13 38.8,38.8 0 0 0 4.21,2.29 20.59,20.59 0 0 0 3.52,1.28 8.69,8.69 0 0 1 2.74,1.14 c 3.31,2 4.91,4.94 6.61,8 a 26.7,26.7 0 0 1 1.89,4.25 26.44,26.44 0 0 0 1.84,4.19 36.68,36.68 0 0 0 2.9,4.61 l -0.12,-1 a 56.81,56.81 0 0 1 -0.51,-8.38 9.34,9.34 0 0 1 0.9,-3.84 c 0.69,-1.46 2.17,-3.92 4.25,-3.92 h 0.14 a 3.34,3.34 0 0 1 2.51,1.79 7,7 0 0 0 2.48,2.34 3.35,3.35 0 0 0 1,0.44 3.35,3.35 0 0 0 0.4,-0.51 3.56,3.56 0 0 1 2,-1.65 2,2 0 0 1 0.52,-0.07 1.39,1.39 0 0 1 0.35,0 c 1.75,0.4 1.95,3.31 1.54,5.14 a 7.38,7.38 0 0 1 -1.29,2.68 12.55,12.55 0 0 1 -2,2.33 21.5,21.5 0 0 0 -1.95,2 6.28,6.28 0 0 0 -0.95,1.34 1.86,1.86 0 0 0 0.61,1.11 3,3 0 0 0 1.87,1 h 0.22 a 1.12,1.12 0 0 0 0.35,-0.23 l 0.06,-0.05 a 17.46,17.46 0 0 1 6.26,-3 10.45,10.45 0 0 1 2.43,-0.39 v 0 c -0.05,-0.12 -0.1,-0.25 -0.14,-0.37 a 11.24,11.24 0 0 1 0,-7.28 c 1.09,-3.6 4,-7.46 6.55,-7.46 a 3.18,3.18 0 0 1 0.62,0.07 3.39,3.39 0 0 1 2.33,2.95 3.17,3.17 0 0 1 -0.7,2.08 3,3 0 0 0 -0.37,0.64 c -0.38,1 0.39,2.36 0.89,3.26 0.78,1.4 1.59,2.77 2.37,4.1 a 87.44,87.44 0 0 1 4.46,8.2 c 0.77,1.7 1.78,4.38 1.35,6.15 a 10,10 0 0 1 4.27,3.32 c 1.94,2.62 3,6.6 1.34,9.16 a 3.44,3.44 0 0 1 -0.48,0.57 c -0.09,0.1 -0.21,0.22 -0.42,0.46 a 11.83,11.83 0 0 0 -2.14,3.71 v 2 c 4.72,2.58 6.83,4.84 6.65,7.07 0,0.08 0,0.2 0,0.34 a 11.26,11.26 0 0 0 0,3.17 2.78,2.78 0 0 0 0.27,1.09 4.62,4.62 0 0 0 2.39,1.47 c 0.27,0.11 0.53,0.19 0.75,0.26 0.82,0.26 1.74,0.55 1.93,1.57 a 2,2 0 0 1 -0.66,1.76 c -6.72,6.81 -10.46,8 -10.61,8.1 -0.83,0.26 -1.47,0.4 -2,0.52 a 6.15,6.15 0 0 0 -2.18,0.8 c -1.95,1.17 -2.8,2.29 -2.8,2.88 v 0.06 a 2.09,2.09 0 0 1 -2.31,2.33 z M 435.9,58.09 a 2.89,2.89 0 0 0 1,2 3,3 0 0 0 1.41,0.33 v 0 a 2.81,2.81 0 0 0 1.22,-0.3 8.86,8.86 0 0 1 1.94,-0.62 l 0.71,-0.11 a 4,4 0 0 0 -2.36,-1.09 h -0.27 -0.87 -1 a 6.46,6.46 0 0 1 -1.78,-0.21 z"
       fill="#bb8135"
       id="path193" />
    <path
       d="m 425.87,82.49 a 6.39,6.39 0 0 1 -2.81,-0.62 5.62,5.62 0 0 1 -3.15,-3.71 30.15,30.15 0 0 1 0.35,-8 c 0.21,-1.56 0.78,-2.35 1.67,-2.35 a 1.25,1.25 0 0 1 1,0.49 14.81,14.81 0 0 1 0.89,1.4 19.61,19.61 0 0 0 5.32,6.3 c 2,1.47 3.75,2.28 5,2.28 a 1.62,1.62 0 0 0 0.31,0 h 0.15 a 1.22,1.22 0 0 1 0.42,2.36 56.15,56.15 0 0 1 -5.64,1.44 19.57,19.57 0 0 1 -3.53,0.43 z"
       fill="#bb8135"
       id="path195" />
    <path
       d="m 416.88,65.92 c -2.1,0 -4.5,-4 -5,-4.77 a 24.18,24.18 0 0 1 -2.75,-8.5 c 0,-0.07 -1.33,-7.82 -0.28,-9.27 a 1.27,1.27 0 0 1 0.85,-0.52 h 0.18 c 1,0 1.32,0.82 2.06,2.78 0.56,1.53 1.9,5.11 3,5.48 a 2.78,2.78 0 0 0 0.89,0.16 H 416 a 1.56,1.56 0 0 0 0.47,-0.32 c 0.15,-0.13 0.32,-0.27 0.53,-0.42 a 4.21,4.21 0 0 1 2.33,-0.64 7.64,7.64 0 0 1 2.72,0.56 c 1.48,0.58 2.62,1.7 4,3.86 1.21,2 5,8.53 2.49,10.43 a 2.52,2.52 0 0 1 -1.58,0.47 13.47,13.47 0 0 1 -5.52,-1.88 h -0.06 a 2.72,2.72 0 0 0 -1.27,-0.47 0.82,0.82 0 0 0 -0.22,0 1.57,1.57 0 0 0 -0.71,0.43 2,2 0 0 0 -0.55,1.05 2,2 0 0 1 -1.05,1.47 1.56,1.56 0 0 1 -0.7,0.1 z"
       fill="#bb8135"
       id="path197" />
    <path
       d="m 420.55,34.89 a 12.3,12.3 0 0 1 -1.79,-0.12 c -2.23,-0.32 -2.89,-1.56 -3.59,-2.88 A 13.38,13.38 0 0 0 413.67,29.51 15.48,15.48 0 0 0 409,26 a 15.48,15.48 0 0 1 -3.54,-2.46 1.67,1.67 0 0 1 -0.34,-1.9 c 0.64,-1.29 3.35,-2.67 6,-3.08 a 4.65,4.65 0 0 1 0.69,-0.05 14.73,14.73 0 0 1 4.5,0.87 3.21,3.21 0 0 0 0.7,-0.81 l 0.15,-0.22 a 1.67,1.67 0 0 1 0.75,-0.71 2,2 0 0 1 0.84,-0.18 2.91,2.91 0 0 1 2,0.94 3.51,3.51 0 0 1 0.84,2.54 c 0,1.36 -0.08,2.43 -0.15,3.37 a 13.45,13.45 0 0 0 0.07,3.69 4,4 0 0 0 0.69,1.81 4.27,4.27 0 0 0 2.33,1.48 h 0.19 a 1.49,1.49 0 0 1 0.55,2.9 15.28,15.28 0 0 1 -4.72,0.7 z"
       fill="#bb8135"
       id="path199" />
    <path
       d="m 449.84,34.12 c -1.84,0 -3.78,-5.29 -3.8,-5.35 a 13.33,13.33 0 0 1 -0.79,-3.3 3.51,3.51 0 0 0 -0.56,-1.76 15.07,15.07 0 0 0 -2.64,-2.81 c -1,-0.91 -1.48,-1.33 -1.47,-2 a 1.26,1.26 0 0 1 0.45,-0.94 1.28,1.28 0 0 1 0.86,-0.29 c 1.17,0 9,1.93 11.19,5.18 0.25,0.39 1.31,2.7 0.19,4.46 a 2.78,2.78 0 0 1 -0.56,0.63 4.87,4.87 0 0 0 -0.37,0.35 6.86,6.86 0 0 0 -1.54,2 2.83,2.83 0 0 0 0.12,1.84 c 0.31,1 0.12,1.62 -0.57,1.93 l -0.23,0.1 z"
       fill="#bb8135"
       id="path201" />
    <path
       d="m 474.76,92.23 a 0.23,0.23 0 0 1 0.27,-0.33 c 1.94,0.6 6.66,1.33 9.09,0.62 0.39,-0.11 3.64,-1.67 3.39,-3.13 a 3.82,3.82 0 0 0 -2.08,-2.26 c -6.54,-2.95 -9.81,-4.42 -10.49,-4.54 -1,-0.18 -3.91,-0.64 -11.22,0.36 -6.92,1 -16.86,3.07 -22.35,1.93 -0.19,0 -3.32,-0.71 -3.49,-2.08 -0.05,-0.37 0.11,-0.78 0.07,-2 0,-0.63 -0.07,-0.92 -0.28,-1.09 -0.36,-0.29 -0.92,0 -1.2,0 -1.41,0.18 -4.32,-4 -5.43,-10.91 a 57.36,57.36 0 0 1 -0.52,-9.76 c 0,-3.3 0.2,-4.36 -0.27,-6.53 a 13.52,13.52 0 0 0 -3,-6.68 c -2.12,-2.32 -5.21,-3.59 -5,-4.11 a 0.26,0.26 0 0 1 0.17,-0.12 c 4.05,-1.24 6.09,-1.85 7.05,-1.15 a 3.57,3.57 0 0 1 1.2,2 c 1.95,6.55 2.93,9.83 3.33,13.55 0.25,2.2 0.39,4.29 1.85,5.18 a 4.51,4.51 0 0 0 2,0.51 c 1.31,0 1.67,-0.6 3.39,-0.94 1.72,-0.34 2.24,0 2.4,-0.32 0.33,-0.73 -2.08,-3.27 -4.33,-3.23 a 18.48,18.48 0 0 1 -2,0 3.5,3.5 0 0 1 -1.67,-0.32 c -0.25,-0.18 -0.77,-0.69 -0.73,-3.08 a 10.43,10.43 0 0 1 0.37,-3.18 c 0.79,-2.92 0.35,-9.7 -2.17,-15 -2.06,-4.34 -3.71,-3.86 -6,-9.09 -0.14,-0.31 -2.88,-6.63 -1.39,-7.64 0.86,-0.59 2.27,1.13 6.71,3.15 3.76,1.72 4.09,1.1 6.13,2.35 3,1.87 4.54,4.6 6.19,7.6 2,3.62 1.62,4.49 3.73,8.43 1.7,3.16 4.22,6.84 5,6.5 0.78,-0.34 -0.66,-5.44 -0.5,-11.8 a 8.15,8.15 0 0 1 0.79,-3.37 c 0.16,-0.33 1.58,-3.33 3.26,-3.23 1.45,0.08 1.56,2.41 4.46,4 0.72,0.39 1.38,0.74 2,0.5 0.9,-0.37 1.08,-1.79 2.27,-2.12 a 0.47,0.47 0 0 1 0.28,0 c 0.71,0.16 1,2.16 0.66,3.73 a 6.3,6.3 0 0 1 -1.07,2.24 c -1.18,1.78 -2.1,2.09 -3.92,4.28 -1.17,1.42 -1.22,1.81 -1.23,2 0,1.76 2.54,3.7 4.21,3.24 a 2.22,2.22 0 0 0 0.83,-0.5 16.3,16.3 0 0 1 5.8,-2.79 5.13,5.13 0 0 1 3.6,0 c 0.42,0.21 0.47,0.49 1.8,1.61 0.3,0.25 2,1.66 2.17,1.47 0.17,-0.19 -3.18,-2 -4.44,-5.38 a 10.21,10.21 0 0 1 0,-6.52 c 1.05,-3.5 3.95,-7 5.74,-6.58 a 2.22,2.22 0 0 1 1.44,1.88 c 0.06,0.9 -0.65,1.32 -1,2.22 -0.55,1.48 0.32,3.09 1,4.26 2.41,4.3 4.95,8.18 6.79,12.21 0,0 2.29,5 0.88,6 -0.13,0.1 -0.69,0.38 -0.65,0.47 0.04,0.09 0.32,0 0.37,0 0.65,-0.11 3.29,0.73 5.14,3.21 1.62,2.18 2.7,5.7 1.3,7.81 a 9.29,9.29 0 0 1 -0.81,0.91 12.94,12.94 0 0 0 -1.84,2.85 5.94,5.94 0 0 0 -0.58,2.59 v 0.75 a 1.74,1.74 0 0 0 0.88,1.5 c 4.85,2.7 5.87,4.55 5.77,5.78 a 13.43,13.43 0 0 0 0,3.78 3.67,3.67 0 0 0 0.43,1.53 5.55,5.55 0 0 0 3,2 c 1.08,0.41 1.84,0.49 1.93,0.94 0.05,0.3 -0.22,0.58 -0.34,0.71 -6.59,6.68 -10.13,7.8 -10.13,7.8 -2.13,0.67 -2.84,0.49 -4.41,1.44 -0.49,0.29 -3.4,2 -3.37,3.91 a 1.18,1.18 0 0 1 -0.18,0.86 c -0.46,0.54 -1.59,0.27 -2,0.19 -2.17,-0.52 -3.85,-2.87 -4.75,-4.18 -1.26,-1.82 -2.74,-4.12 -4.3,-6.89 z"
       fill="url(#linear-gradient-10)"
       id="path203"
       style="fill:url(#linear-gradient-10)" />
    <path
       d="m 434.22,79.5 c 0,0 0,-0.07 0,-0.06 -1.83,0.23 -4.16,-1 -6.19,-2.49 -4,-3 -5.52,-6.79 -6.44,-8 -0.12,-0.16 -0.41,0.24 -0.55,1.29 a 29,29 0 0 0 -0.35,7.72 4.5,4.5 0 0 0 2.43,2.79 c 1.19,0.5 2,0.82 5.66,0.12 a 55.93,55.93 0 0 0 5.46,-1.4 z"
       fill="url(#linear-gradient-11)"
       id="path205"
       style="fill:url(#linear-gradient-11)" />
    <path
       d="m 416.67,64.7 c 0.51,-0.23 0.23,-1.31 1.25,-2.3 a 2.82,2.82 0 0 1 1.29,-0.73 3.4,3.4 0 0 1 2.4,0.63 c 1.57,0.93 4.79,2.25 5.77,1.5 1.35,-1 -1.17,-6.27 -2.78,-8.88 -1.34,-2.17 -2.31,-3 -3.38,-3.37 -0.37,-0.15 -2.52,-1 -4,0 -0.47,0.31 -0.71,0.71 -1.4,0.91 a 3.49,3.49 0 0 1 -1.68,-0.2 c -2.49,-0.85 -4.12,-8.27 -4.68,-8.19 -0.4,0.06 -0.38,3.88 0.41,8.42 a 23.45,23.45 0 0 0 2.61,8.11 c 1.46,2.52 3.37,4.49 4.15,4.14 z"
       fill="url(#linear-gradient-12)"
       id="path207"
       style="fill:url(#linear-gradient-12)" />
    <path
       d="m 405.91,22.73 a 0.52,0.52 0 0 1 -0.14,-0.56 c 0.37,-0.73 2.6,-2 5.15,-2.43 a 12.14,12.14 0 0 1 4.6,0.76 0.93,0.93 0 0 0 0.43,0.1 c 0.72,0 1.34,-0.89 1.65,-1.33 0.31,-0.44 0.26,-0.47 0.44,-0.55 a 1.48,1.48 0 0 1 1.49,0.5 2.45,2.45 0 0 1 0.52,1.72 c 0,3.57 -0.48,5.22 -0.05,7.31 a 5,5 0 0 0 0.91,2.29 4.88,4.88 0 0 0 3.42,1.93 c 0.07,0 0.36,0 0.41,0.15 0.12,0.28 -0.2,0.45 -0.28,0.48 a 15.34,15.34 0 0 1 -5.95,0.5 c -2.55,-0.37 -2.11,-2 -4.33,-4.83 -2.37,-2.98 -6.4,-4.07 -8.27,-6.04 z"
       fill="url(#linear-gradient-13)"
       id="path209"
       style="fill:url(#linear-gradient-13)" />
    <path
       d="m 445.27,23.08 c 1.08,1.72 0.35,2.24 1.46,5.29 1,2.76 2.45,4.67 2.72,4.56 0.27,-0.11 -0.76,-1.54 -0.18,-3.1 a 7.85,7.85 0 0 1 1.81,-2.43 c 0.48,-0.47 0.6,-0.5 0.77,-0.77 0.76,-1.19 -0.05,-3 -0.18,-3.17 -1.94,-2.91 -10,-4.86 -10.3,-4.64 -0.3,0.22 2.57,2.18 3.9,4.26 z"
       fill="url(#linear-gradient-14)"
       id="path211"
       style="fill:url(#linear-gradient-14)" />
    <path
       d="m 449.89,69.3 v -9.69 h 3.2 a 9.6,9.6 0 0 1 2.13,0.18 2.4,2.4 0 0 1 1.3,0.81 3,3 0 0 1 0.51,1.92 1.91,1.91 0 0 1 -0.4,1.36 1.46,1.46 0 0 1 -0.3,0.22 1.61,1.61 0 0 1 0.47,0.37 2.36,2.36 0 0 1 0.44,1.54 v 0.83 a 3,3 0 0 1 -0.31,1.53 1.65,1.65 0 0 1 -1,0.76 10.17,10.17 0 0 1 -2.38,0.17 z m 3.54,-2.3 a 0.53,0.53 0 0 0 0.23,-0.06 1.26,1.26 0 0 0 0,-0.4 v -0.83 a 1.38,1.38 0 0 0 0,-0.43 h -0.23 z m 0,-3.89 h 0.22 a 4.11,4.11 0 0 0 0.05,-0.75 1,1 0 0 0 -0.05,-0.41 c 0,-0.05 0,-0.05 0,-0.05 h -0.17 z"
       fill="#1e3e63"
       id="path213" />
    <path
       d="m 457.45,69.3 v -9.69 h 5.8 v 2.51 h -2 v 1 h 1.91 v 2.42 h -1.91 v 1.26 h 2.24 v 2.5 z"
       fill="#1e3e63"
       id="path215" />
    <path
       d="m 470.86,69.3 v -7.18 h -1.38 v -2.51 h 5.63 v 2.51 h -1.38 v 7.18 z"
       fill="#1e3e63"
       id="path217" />
    <path
       d="m 450.22,60 h 2.87 a 8.85,8.85 0 0 1 2.05,0.17 2,2 0 0 1 1.13,0.69 2.66,2.66 0 0 1 0.43,1.69 1.57,1.57 0 0 1 -0.3,1.1 2.31,2.31 0 0 1 -1.2,0.48 2.3,2.3 0 0 1 1.35,0.6 2,2 0 0 1 0.35,1.27 v 0.83 a 2.79,2.79 0 0 1 -0.25,1.35 1.33,1.33 0 0 1 -0.82,0.6 10.64,10.64 0 0 1 -2.29,0.16 h -3.32 z m 2.87,1.53 v 2 h 0.29 c 0.28,0 0.46,-0.05 0.54,-0.16 a 2.51,2.51 0 0 0 0.11,-1 1.36,1.36 0 0 0 -0.09,-0.59 0.44,0.44 0 0 0 -0.25,-0.22 3.11,3.11 0 0 0 -0.6,-0.06 z m 0,3.4 v 2.51 a 1.48,1.48 0 0 0 0.78,-0.15 c 0.11,-0.1 0.16,-0.32 0.16,-0.69 v -0.83 c 0,-0.39 0,-0.62 -0.15,-0.7 a 1.58,1.58 0 0 0 -0.79,-0.14 z"
       fill="url(#linear-gradient-15)"
       id="path219"
       style="fill:url(#linear-gradient-15)" />
    <path
       d="m 457.8,60 h 5.09 v 1.79 h -2 v 1.71 h 1.9 v 1.71 h -1.9 v 2 h 2.24 V 69 h -5.3 v -9 z"
       fill="url(#radial-gradient)"
       id="path221"
       style="fill:url(#radial-gradient)" />
    <path
       d="m 474.84,60 v 1.79 h -1.39 V 69 h -2.32 v -7.24 h -1.38 V 60 Z"
       fill="url(#radial-gradient-2)"
       id="path223"
       style="fill:url(#radial-gradient-2)" />
    <path
       d="m 467.27,69.3 -0.15,-1.61 h -0.41 l -0.17,1.61 H 463 l 1.53,-9.69 h 4.54 l 1.72,9.69 z m -0.3,-3.91 c 0,-0.28 -0.08,-0.58 -0.11,-0.89 -0.05,0.33 -0.09,0.63 -0.11,0.89 z"
       fill="#1e3e63"
       id="path225" />
    <path
       d="m 468.81,60 1.58,9 h -2.83 l -0.15,-1.62 h -1 L 466.25,69 h -2.86 l 1.41,-9 z m -1.47,5.77 c -0.14,-1 -0.28,-2.27 -0.42,-3.77 -0.29,1.72 -0.46,3 -0.54,3.77 z"
       fill="url(#radial-gradient-3)"
       id="path227"
       style="fill:url(#radial-gradient-3)" />
    <path
       d="M 479,69.49 A 5.92,5.92 0 0 1 476.78,69.11 2.38,2.38 0 0 1 475.41,68 3.84,3.84 0 0 1 475.1,66.29 v -0.95 h 2.51 v 0 a 12.81,12.81 0 0 1 -1.55,-0.86 2.34,2.34 0 0 1 -0.73,-0.85 3.57,3.57 0 0 1 0.13,-3 2.62,2.62 0 0 1 1.29,-0.88 6,6 0 0 1 2,-0.29 6.43,6.43 0 0 1 2.14,0.32 2.28,2.28 0 0 1 1.3,0.89 3.45,3.45 0 0 1 0.32,1.7 V 63 h -2.81 a 8,8 0 0 1 2.37,1.46 3.12,3.12 0 0 1 0.62,2.15 2.94,2.94 0 0 1 -0.35,1.61 2.49,2.49 0 0 1 -1.31,0.9 6,6 0 0 1 -2.08,0.33 z m -0.25,-2.24 h 0.14 c 0.09,0 0.15,0 0.17,-0.05 0.02,-0.05 0.07,-0.11 0.07,-0.32 0,-0.6 -0.13,-0.75 -0.16,-0.77 a 2,2 0 0 0 -0.27,-0.19 v 0.89 a 1.47,1.47 0 0 0 0,0.43 z m 0.08,-5.6 c -0.11,0 -0.13,0 -0.14,0.05 -0.01,0.05 -0.06,0.09 -0.06,0.29 a 1,1 0 0 0 0.09,0.48 0.72,0.72 0 0 0 0.23,0.17 V 62 a 1.59,1.59 0 0 0 0,-0.36 z"
       fill="#1e3e63"
       id="path229" />
    <path
       d="m 482.08,62.68 h -2.83 V 62 a 1,1 0 0 0 -0.11,-0.59 0.43,0.43 0 0 0 -0.36,-0.13 0.54,0.54 0 0 0 -0.42,0.17 0.83,0.83 0 0 0 -0.14,0.52 1.16,1.16 0 0 0 0.16,0.68 2.34,2.34 0 0 0 0.86,0.55 8.66,8.66 0 0 1 2.57,1.52 2.83,2.83 0 0 1 0.53,1.91 2.66,2.66 0 0 1 -0.3,1.42 2.21,2.21 0 0 1 -1.13,0.76 5.8,5.8 0 0 1 -2,0.31 5.47,5.47 0 0 1 -2.09,-0.36 2.06,2.06 0 0 1 -1.13,-0.9 3.64,3.64 0 0 1 -0.27,-1.56 v -0.59 h 2.83 v 1.09 a 1.12,1.12 0 0 0 0.12,0.65 0.52,0.52 0 0 0 0.43,0.15 0.53,0.53 0 0 0 0.45,-0.19 0.83,0.83 0 0 0 0.15,-0.54 1.39,1.39 0 0 0 -0.28,-1 9.88,9.88 0 0 0 -1.43,-0.81 16.86,16.86 0 0 1 -1.51,-0.84 2.07,2.07 0 0 1 -0.61,-0.72 2.55,2.55 0 0 1 -0.24,-1.18 2.61,2.61 0 0 1 0.34,-1.51 2.22,2.22 0 0 1 1.11,-0.74 5.62,5.62 0 0 1 1.86,-0.27 6.25,6.25 0 0 1 2,0.29 2,2 0 0 1 1.11,0.74 3.12,3.12 0 0 1 0.28,1.52 v 0.35 z"
       fill="url(#linear-gradient-16)"
       id="path231"
       style="fill:url(#linear-gradient-16)" />
    <path
       d="m 470.74,74.2 a 5.84,5.84 0 0 1 -1.78,-0.26 3,3 0 0 1 -1.34,-0.8 2.23,2.23 0 0 1 -0.63,-1.21 15,15 0 0 1 -0.09,-2 v -1.54 a 14.63,14.63 0 0 1 0.09,-2 2.24,2.24 0 0 1 0.6,-1.22 3,3 0 0 1 1.32,-0.81 5.64,5.64 0 0 1 1.83,-0.27 5.73,5.73 0 0 1 1.77,0.25 3.24,3.24 0 0 1 1.34,0.8 2.22,2.22 0 0 1 0.63,1.22 14.93,14.93 0 0 1 0.09,2 v 1.53 a 15.28,15.28 0 0 1 -0.08,2 2.25,2.25 0 0 1 -0.61,1.22 3.25,3.25 0 0 1 -1.31,0.81 5.68,5.68 0 0 1 -1.83,0.27 z M 470.67,72 h 0.15 c 0,0 0,-0.16 0,-0.85 V 67 a 2.29,2.29 0 0 0 -0.05,-0.62 h -0.06 a 0.15,0.15 0 0 0 -0.09,0 v 0 a 3.73,3.73 0 0 0 0,0.6 v 4.19 a 3.55,3.55 0 0 0 0.05,0.79 z"
       fill="#4874ab"
       id="path233" />
    <path
       d="m 474.69,74 v -6 h -0.6 v -1.89 h 0.6 a 3.51,3.51 0 0 1 0.07,-0.7 1.24,1.24 0 0 1 0.45,-0.63 2,2 0 0 1 0.85,-0.35 7,7 0 0 1 1.5,-0.11 H 479 V 68 h -0.69 v 6 z"
       fill="#4874ab"
       id="path235" />
    <path
       d="m 474.22,69.93 a 16.5,16.5 0 0 1 -0.08,1.92 2,2 0 0 1 -0.52,1 2.73,2.73 0 0 1 -1.17,0.71 5.22,5.22 0 0 1 -1.71,0.25 5.71,5.71 0 0 1 -1.67,-0.23 2.87,2.87 0 0 1 -1.19,-0.71 2,2 0 0 1 -0.54,-1 16.42,16.42 0 0 1 -0.08,-1.94 v -1.54 a 16.18,16.18 0 0 1 0.08,-1.91 1.9,1.9 0 0 1 0.51,-1 2.84,2.84 0 0 1 1.17,-0.72 5.57,5.57 0 0 1 1.72,-0.25 5.43,5.43 0 0 1 1.67,0.24 2.77,2.77 0 0 1 1.19,0.71 1.81,1.81 0 0 1 0.53,1 14.08,14.08 0 0 1 0.09,1.94 v 1.54 z m -3,-3 a 2.13,2.13 0 0 0 -0.09,-0.8 0.37,0.37 0 0 0 -0.37,-0.18 0.46,0.46 0 0 0 -0.36,0.15 1.63,1.63 0 0 0 -0.12,0.83 v 4.19 a 3.07,3.07 0 0 0 0.08,1 c 0,0.12 0.18,0.18 0.38,0.18 a 0.38,0.38 0 0 0 0.4,-0.21 3.82,3.82 0 0 0 0.08,-1 V 67 Z"
       fill="url(#linear-gradient-17)"
       id="path237"
       style="fill:url(#linear-gradient-17)" />
    <path
       d="m 478.61,64.67 v 1.14 a 4.86,4.86 0 0 0 -1.05,0.06 c -0.11,0 -0.16,0.17 -0.16,0.37 v 0.23 h 1.21 v 1.17 h -0.68 v 6 H 475 v -6 h -0.59 V 66.47 H 475 a 4.08,4.08 0 0 1 0.07,-1 0.8,0.8 0 0 1 0.31,-0.44 2.05,2.05 0 0 1 0.71,-0.29 8,8 0 0 1 1.43,-0.1 z"
       fill="url(#linear-gradient-18)"
       id="path239"
       style="fill:url(#linear-gradient-18)" />
    <path
       d="M 454,59.27 A 6.86,6.86 0 0 1 452.1,59 3.36,3.36 0 0 1 450.67,58.2 2.12,2.12 0 0 1 450,57 13.08,13.08 0 0 1 449.9,55 v -1.54 a 14.81,14.81 0 0 1 0.09,-2 2.15,2.15 0 0 1 0.66,-1.22 3.48,3.48 0 0 1 1.4,-0.81 6.77,6.77 0 0 1 1.95,-0.23 6.57,6.57 0 0 1 1.9,0.25 3.48,3.48 0 0 1 1.43,0.79 2.3,2.3 0 0 1 0.68,1.23 14.93,14.93 0 0 1 0.09,2 V 55 a 14.71,14.71 0 0 1 -0.09,2 2.25,2.25 0 0 1 -0.65,1.23 3.35,3.35 0 0 1 -1.4,0.8 6.49,6.49 0 0 1 -1.96,0.24 z m -0.1,-2.24 h 0.1 a 0.24,0.24 0 0 0 0.12,0 6.43,6.43 0 0 0 0,-0.84 v -4.14 a 3.06,3.06 0 0 0 0,-0.62 H 454 c 0,0 -0.11,0 -0.13,0 v 0 a 3.65,3.65 0 0 0 0,0.59 v 4.19 a 3.55,3.55 0 0 0 0.05,0.79 z"
       fill="#3970b2"
       id="path241" />
    <path
       d="m 459.16,59.08 v -9.69 h 3.62 a 10.49,10.49 0 0 1 2.11,0.16 2.78,2.78 0 0 1 1.21,0.5 1.67,1.67 0 0 1 0.6,0.85 4.63,4.63 0 0 1 0.15,1.36 V 53 a 2.74,2.74 0 0 1 -0.3,1.44 1.92,1.92 0 0 1 -1.1,0.75 5.87,5.87 0 0 1 -1.83,0.23 h -0.51 v 3.62 z m 3.95,-5.87 a 0.48,0.48 0 0 0 0.26,-0.06 0.75,0.75 0 0 0 0.06,-0.39 V 52 c 0,-0.25 -0.05,-0.31 -0.05,-0.31 a 0.67,0.67 0 0 0 -0.27,-0.06 z"
       fill="#3970b2"
       id="path243" />
    <path
       d="m 467.64,59.08 v -9.69 h 6.11 v 2.51 h -2.16 v 1 h 2 v 2.42 h -2 v 1.26 H 474 v 2.51 z"
       fill="#3970b2"
       id="path245" />
    <path
       d="m 479.26,59.08 -1.09,-2.65 v 2.65 h -3.42 V 49.39 H 478 l 1.24,2.74 v -2.74 h 3.41 v 9.69 z"
       fill="#3970b2"
       id="path247" />
    <path
       d="m 457.65,51.52 a 1.84,1.84 0 0 0 -0.58,-1 3,3 0 0 0 -1.28,-0.71 6.23,6.23 0 0 0 -1.8,-0.24 6.3,6.3 0 0 0 -1.84,0.25 3.07,3.07 0 0 0 -1.26,0.72 1.86,1.86 0 0 0 -0.56,1 13.83,13.83 0 0 0 -0.09,1.92 V 55 a 13.54,13.54 0 0 0 0.1,1.94 1.84,1.84 0 0 0 0.57,1 3.16,3.16 0 0 0 1.28,0.71 6.66,6.66 0 0 0 1.8,0.23 6.09,6.09 0 0 0 1.85,-0.25 3,3 0 0 0 1.26,-0.63 1.87,1.87 0 0 0 0.55,-1 14,14 0 0 0 0.09,-1.92 v -1.61 a 14.15,14.15 0 0 0 -0.09,-1.95 z m -3.15,4.66 a 3.28,3.28 0 0 1 -0.09,1 c -0.06,0.14 -0.21,0.21 -0.43,0.21 -0.22,0 -0.35,-0.06 -0.41,-0.18 a 3,3 0 0 1 -0.09,-1 v -4.16 a 1.45,1.45 0 0 1 0.14,-0.83 0.5,0.5 0 0 1 0.39,-0.15 0.39,0.39 0 0 1 0.39,0.18 1.91,1.91 0 0 1 0.1,0.8 z"
       fill="url(#linear-gradient-19)"
       id="path249"
       style="fill:url(#linear-gradient-19)" />
    <path
       d="m 466.37,51 a 1.38,1.38 0 0 0 -0.49,-0.68 2.55,2.55 0 0 0 -1.07,-0.44 10.42,10.42 0 0 0 -2,-0.15 h -3.27 v 9 h 3.24 v -3.62 h 0.87 a 5.79,5.79 0 0 0 1.72,-0.21 1.63,1.63 0 0 0 0.91,-0.61 2.48,2.48 0 0 0 0.24,-1.25 V 52.26 A 4.73,4.73 0 0 0 466.37,51 Z m -2.59,1.74 c 0,0.34 0,0.56 -0.17,0.66 a 0.89,0.89 0 0 1 -0.62,0.16 h -0.24 v -2.28 a 1.65,1.65 0 0 1 0.83,0.14 c 0.14,0.09 0.2,0.29 0.2,0.6 z"
       fill="url(#linear-gradient-20)"
       id="path251"
       style="fill:url(#linearGradient1240)" />
    <path
       d="m 468,49.74 h 5.4 v 1.8 h -2.16 v 1.7 h 2 V 55 h -2 v 2 h 2.38 v 1.79 H 468 Z"
       fill="url(#linear-gradient-21)"
       id="path253"
       style="fill:url(#linear-gradient-21)" />
    <path
       d="m 482.34,49.74 v 9 h -2.84 l -1.69,-4.08 v 4.08 h -2.7 v -9 h 2.7 l 1.82,4 v -4 z"
       fill="url(#linear-gradient-22)"
       id="path255"
       style="fill:url(#linear-gradient-22)" />
    <path
       d="M 454.07,79.39 V 76.05 A 1.55,1.55 0 0 0 454,75.39 v 0 h -0.19 v 4 h -3.92 V 69.7 h 2.63 a 23.71,23.71 0 0 1 3.13,0.13 2.6,2.6 0 0 1 1.51,0.76 2.68,2.68 0 0 1 0.6,1.92 2.29,2.29 0 0 1 -0.46,1.65 1,1 0 0 1 -0.33,0.24 l 0.19,0.14 a 1.68,1.68 0 0 1 0.51,0.69 5.76,5.76 0 0 1 0.09,1.44 v 2.72 z m -0.26,-6.17 a 1,1 0 0 0 0.22,0 1.32,1.32 0 0 0 0,-0.39 v -0.5 c 0,-0.21 0,-0.26 0,-0.26 a 0.63,0.63 0 0 0 -0.22,0 v 1.25 z"
       fill="#213e5f"
       id="path257" />
    <path
       d="m 463,79.39 -0.17,-1.61 h -0.51 l -0.19,1.61 H 458 l 1.76,-9.69 H 465 l 2,9.69 z m -0.35,-3.92 c 0,-0.31 -0.09,-0.65 -0.14,-1 -0.06,0.38 -0.11,0.71 -0.15,1 z"
       fill="#213e5f"
       id="path259" />
    <path
       d="m 470.68,79.58 a 4.56,4.56 0 0 1 -1.65,-0.31 3,3 0 0 1 -1.2,-0.81 2.17,2.17 0 0 1 -0.54,-1 7.55,7.55 0 0 1 -0.1,-1.45 v -2.72 a 6.79,6.79 0 0 1 0.21,-2 2.4,2.4 0 0 1 1.26,-1.29 5.33,5.33 0 0 1 2.51,-0.53 6,6 0 0 1 2.48,0.45 2.73,2.73 0 0 1 1.35,1.21 4.31,4.31 0 0 1 0.32,1.84 v 0.75 h -3.92 v -1.18 a 3,3 0 0 0 -0.06,-0.8 h -0.11 c -0.08,0 -0.11,0 -0.12,0 a 4.14,4.14 0 0 0 0,0.65 v 1.45 h 4.25 v 5.53 h -2.6 l -0.18,-0.39 a 2.59,2.59 0 0 1 -0.58,0.34 3.38,3.38 0 0 1 -1.32,0.24 z m 0.5,-2.24 h 0.11 a 0.25,0.25 0 0 0 0.17,0 1.55,1.55 0 0 0 0.08,-0.67 v -0.71 h -0.43 v 0.79 a 1.89,1.89 0 0 0 0.06,0.62 z"
       fill="#213e5f"
       id="path261" />
    <path
       d="M 476.42,79.39 V 69.7 h 6.06 v 2.51 h -2.14 v 1 h 2 v 2.42 h -2 v 1.26 h 2.35 v 2.51 z"
       fill="#213e5f"
       id="path263" />
    <path
       d="m 464.73,70.05 1.83,9 h -3.28 l -0.17,-1.61 H 462 L 461.77,79 h -3.32 l 1.64,-9 z M 463,75.83 c -0.16,-1 -0.33,-2.28 -0.49,-3.77 -0.33,1.72 -0.53,3 -0.62,3.77 z"
       fill="url(#radial-gradient-4)"
       id="path265"
       style="fill:url(#radialGradient1242)" />
    <path
       d="m 450.25,70.05 h 2.27 a 24.48,24.48 0 0 1 3.07,0.13 2.27,2.27 0 0 1 1.31,0.65 2.35,2.35 0 0 1 0.51,1.68 2,2 0 0 1 -0.36,1.4 2.2,2.2 0 0 1 -1.41,0.44 2.76,2.76 0 0 1 1.28,0.46 1.29,1.29 0 0 1 0.41,0.53 6.34,6.34 0 0 1 0.08,1.33 V 79 h -3 v -3 a 1.48,1.48 0 0 0 -0.16,-0.89 c -0.1,-0.12 -0.37,-0.17 -0.82,-0.17 v 4 h -3.21 v -9 z m 3.2,1.54 v 2 a 1.89,1.89 0 0 0 0.76,-0.11 c 0.15,-0.07 0.22,-0.31 0.22,-0.7 v -0.5 a 0.63,0.63 0 0 0 -0.21,-0.56 1.56,1.56 0 0 0 -0.77,-0.13 z"
       fill="url(#linear-gradient-23)"
       id="path267"
       style="fill:url(#linear-gradient-23)" />
    <path
       d="m 475,73.36 h -3.21 v -0.82 a 3,3 0 0 0 -0.09,-1 c -0.06,-0.13 -0.2,-0.19 -0.43,-0.19 a 0.45,0.45 0 0 0 -0.41,0.16 2.1,2.1 0 0 0 -0.1,0.86 v 4.31 a 2,2 0 0 0 0.1,0.79 0.45,0.45 0 0 0 0.43,0.19 0.53,0.53 0 0 0 0.48,-0.21 2,2 0 0 0 0.12,-0.85 v -1.02 h -0.65 V 74.21 H 475 V 79 h -2 l -0.3,-0.64 a 2,2 0 0 1 -0.83,0.62 3,3 0 0 1 -1.18,0.21 4,4 0 0 1 -1.51,-0.28 2.74,2.74 0 0 1 -1.07,-0.71 1.86,1.86 0 0 1 -0.46,-0.89 7.76,7.76 0 0 1 -0.09,-1.38 v -2.64 a 6.48,6.48 0 0 1 0.19,-1.87 2,2 0 0 1 1.09,-1.07 5,5 0 0 1 2.34,-0.49 5.53,5.53 0 0 1 2.34,0.43 2.32,2.32 0 0 1 1.21,1 A 3.89,3.89 0 0 1 475,73 v 0.39 z"
       fill="url(#radial-gradient-5)"
       id="path269"
       style="fill:url(#radial-gradient-5)" />
    <path
       d="m 476.77,70.05 h 5.36 v 1.8 H 480 v 1.7 h 2 v 1.71 h -2 v 2 h 2.36 V 79 h -5.56 v -9 z"
       fill="url(#linear-gradient-24)"
       id="path271"
       style="fill:url(#linear-gradient-24)" />
  </g>
</svg>
