<?xml version="1.0" encoding="UTF-8" standalone="no"?>
<!-- Designed by Vexels.com - 2017 All Rights Reserved - https://vexels.com/terms-and-conditions/  -->

<svg
   version="1.1"
   id="Layer_1"
   x="0px"
   y="0px"
   width="1159.4899"
   height="558.08801"
   viewBox="0 0 1159.4899 558.08801"
   enable-background="new 0 0 1200 1200"
   xml:space="preserve"
   sodipodi:docname="logo.svg"
   inkscape:version="1.1 (c68e22c387, 2021-05-23)"
   xmlns:inkscape="http://www.inkscape.org/namespaces/inkscape"
   xmlns:sodipodi="http://sodipodi.sourceforge.net/DTD/sodipodi-0.dtd"
   xmlns="http://www.w3.org/2000/svg"
   xmlns:svg="http://www.w3.org/2000/svg"><defs
   id="defs23" /><sodipodi:namedview
   id="namedview21"
   pagecolor="#ffffff"
   bordercolor="#666666"
   borderopacity="1.0"
   inkscape:pageshadow="2"
   inkscape:pageopacity="0.0"
   inkscape:pagecheckerboard="0"
   showgrid="false"
   fit-margin-top="0"
   fit-margin-left="0"
   fit-margin-right="0"
   fit-margin-bottom="0"
   inkscape:zoom="0.44370951"
   inkscape:cx="582.58838"
   inkscape:cy="313.26802"
   inkscape:window-width="1920"
   inkscape:window-height="1138"
   inkscape:window-x="-8"
   inkscape:window-y="-8"
   inkscape:window-maximized="1"
   inkscape:current-layer="Layer_1" />
<ellipse
   style="fill:#ffffff;fill-rule:evenodd;stroke:#ffffff;stroke-width:60;stroke-linecap:round;stroke-linejoin:round;stroke-miterlimit:4;stroke-dasharray:none;stroke-opacity:1;paint-order:stroke markers fill"
   id="path1381"
   cx="317.88058"
   cy="327.51123"
   rx="33.963459"
   ry="30.931929" /><ellipse
   style="fill:#ffffff;fill-rule:evenodd;stroke:#ffffff;stroke-width:60;stroke-linecap:round;stroke-linejoin:round;stroke-miterlimit:4;stroke-dasharray:none;stroke-opacity:1;paint-order:stroke markers fill"
   id="path1270"
   cx="979.50696"
   cy="385.6015"
   rx="39.44022"
   ry="48.455128" /><ellipse
   style="fill:#ffffff;fill-rule:evenodd;stroke:#ffffff;stroke-width:60;stroke-linecap:round;stroke-linejoin:round;stroke-miterlimit:4;stroke-dasharray:none;stroke-opacity:1;paint-order:stroke markers fill"
   id="path1272"
   cx="797.82556"
   cy="319.07355"
   rx="74.116577"
   ry="85.598602" /><ellipse
   style="fill:#ffffff;fill-rule:evenodd;stroke:#ffffff;stroke-width:60;stroke-linecap:round;stroke-linejoin:round;stroke-miterlimit:4;stroke-dasharray:none;stroke-opacity:1;paint-order:stroke markers fill"
   id="path1274"
   cx="473.54529"
   cy="267.28082"
   rx="6.7611804"
   ry="166.77579" /><ellipse
   style="fill:#ffffff;fill-rule:evenodd;stroke:#ffffff;stroke-width:60;stroke-linecap:round;stroke-linejoin:round;stroke-miterlimit:4;stroke-dasharray:none;stroke-opacity:1;paint-order:stroke markers fill"
   id="path1166"
   cx="307.50967"
   cy="221.11157"
   rx="26.304554"
   ry="28.139441" /><g
   id="g18"
   transform="translate(-20.020879,-320.94183)"
   style="stroke:#ffffff;stroke-width:60;stroke-linecap:round;stroke-linejoin:round;stroke-miterlimit:4;stroke-dasharray:none;stroke-opacity:1;paint-order:stroke markers fill">
	<polygon
   fill="#838384"
   points="205.612,702.941 56.087,666.064 56.087,574.912 303.938,574.912 303.938,631.24 117.529,631.24 303.938,679.385 303.938,728.541 116.511,773.608 302.92,773.608 303.938,834.032 56.087,834.032 56.087,737.757 "
   id="polygon2"
   style="stroke:#ffffff;stroke-width:60;stroke-linecap:round;stroke-linejoin:round;stroke-miterlimit:4;stroke-dasharray:none;stroke-opacity:1;paint-order:stroke markers fill" />
	<path
   fill="#838384"
   d="m 221.545,566.153 v -68.598 c 0,0 40.098,-1.585 38.521,-40.098 0,0 0,-30.076 -27.439,-30.076 0,0 -18.468,-1.585 -26.387,29.016 0,0 -12.134,63.849 -41.685,87.592 0,0 -42.736,32.713 -86.54,-3.688 0,0 -32.713,-25.854 -27.439,-82.318 0,0 -4.748,-90.754 73.872,-92.34 v 67.539 c 0,0 -29.542,3.162 -27.439,35.884 0,0 1.06,23.741 19.536,22.691 0,0 14.245,-1.06 18.468,-22.691 0,0 13.186,-60.687 26.371,-77.569 0,0 17.417,-34.299 65.436,-32.713 0,0 60.686,0.525 78.094,64.901 0,0 9.505,50.656 -3.688,90.229 -10e-4,-0.003 -12.67,43.794 -79.681,52.239 z"
   id="path4"
   style="stroke:#ffffff;stroke-width:60;stroke-linecap:round;stroke-linejoin:round;stroke-miterlimit:4;stroke-dasharray:none;stroke-opacity:1;paint-order:stroke markers fill" />
	<path
   fill="#bd2223"
   d="m 547.584,461.161 c 0,0 20.562,-43.999 59.779,-77.001 0,0 5.749,-5.265 -3.34,-7.657 0,0 -38.259,-12.43 -69.836,-11.955 l -180.304,4.308 v 463.438 l 182.221,6.699 c 0,0 89.915,-5.257 140.13,-52.615 0,0 51.672,-45.907 67.928,-117.651 0,0 26.719,-118.965 -28.244,-202.41 0,0 -53.997,18.654 -64.799,79.519 0,0 -10.794,86.387 -9.819,103.075 0,0 -3.917,69.691 -61.831,97.181 0,0 -80.502,8.836 -129.581,-2.942 L 448.9,462.391 Z"
   id="path6"
   style="stroke:#ffffff;stroke-width:60;stroke-linecap:round;stroke-linejoin:round;stroke-miterlimit:4;stroke-dasharray:none;stroke-opacity:1;paint-order:stroke markers fill" />
	<path
   fill="#8f2877"
   d="m 769.903,440.794 c 0,0 28.465,-55.955 65.773,-75.585 0,0 -94.239,-37.308 -187.495,8.836 0,0 -95.223,51.046 -113.877,165.899 0,0 -19.639,110.926 22.572,192.404 0,0 31.424,4.91 54.98,-39.267 0,0 7.852,-8.836 11.778,-42.211 0,0 10.794,-121.72 20.613,-132.523 0.001,0 24.539,-80.495 125.656,-77.553 z"
   id="path8"
   style="stroke:#ffffff;stroke-width:60;stroke-linecap:round;stroke-linejoin:round;stroke-miterlimit:4;stroke-dasharray:none;stroke-opacity:1;paint-order:stroke markers fill" />
	<path
   fill="#8e2877"
   d="m 658.493,829.046 c 0,0 49.078,-40.743 68.708,-75.594 l 37.301,1.475 c 0,0 5.409,35.825 77.552,83.928 -10e-4,10e-4 -76.569,28.467 -183.561,-9.809 z"
   id="path10"
   style="stroke:#ffffff;stroke-width:60;stroke-linecap:round;stroke-linejoin:round;stroke-miterlimit:4;stroke-dasharray:none;stroke-opacity:1;paint-order:stroke markers fill" />
	<path
   fill="#fcbf02"
   d="m 1041.105,508.629 94.002,-0.712 c 0,0 -0.696,-156.91 -192.252,-153.374 0,0 -91.187,-1.416 -140.655,58.669 0,0 -50.181,56.54 -17.671,143.479 0,0 16.958,45.941 101.073,69.971 0,0 10.6,-42.405 0.713,-72.092 0,0 -12.024,-40.285 -17.671,-50.181 0,0 -9.192,-19.791 7.055,-36.758 0,0 24.743,-26.853 65.74,-27.566 0,0 37.462,-4.24 66.436,15.551 0,0 28.279,19.79 33.23,53.013 z"
   id="path12"
   style="stroke:#ffffff;stroke-width:60;stroke-linecap:round;stroke-linejoin:round;stroke-miterlimit:4;stroke-dasharray:none;stroke-opacity:1;paint-order:stroke markers fill" />
	<path
   fill="#8f2877"
   d="m 970.413,459.152 c 0,0 84.124,115.2 -0.695,286.957 0,0 -47.357,6.359 -77.755,-20.495 0,0 -13.431,-9.895 -4.935,-31.102 0,0 41.701,-85.522 -1.407,-187.3 0,0 -14.143,-25.446 16.246,-39.589 0,0 22.589,-11.294 68.546,-8.471 z"
   id="path14"
   style="stroke:#ffffff;stroke-width:60;stroke-linecap:round;stroke-linejoin:round;stroke-miterlimit:4;stroke-dasharray:none;stroke-opacity:1;paint-order:stroke markers fill" />
	<path
   fill="#fcc000"
   d="m 1017.067,661.29 4.248,-92.594 c 0,0 77.044,12.015 113.097,67.148 0,0 41.702,77.043 -11.311,147.718 0,0 -44.533,60.788 -156.91,62.908 0,0 -202.156,12.015 -200.739,-160.446 l 94.001,0.703 c 0,0 3.544,70.684 86.947,73.507 0,0 50.181,2.832 79.866,-10.599 0,0 26.863,-12.727 28.982,-39.581 10e-4,0.002 0.714,-35.332 -38.181,-48.764 z"
   id="path16"
   style="stroke:#ffffff;stroke-width:60;stroke-linecap:round;stroke-linejoin:round;stroke-miterlimit:4;stroke-dasharray:none;stroke-opacity:1;paint-order:stroke markers fill" />
</g>
<g
   id="g980"
   transform="translate(-20.020879,-320.94183)">
	<polygon
   fill="#838384"
   points="56.087,666.064 56.087,574.912 303.938,574.912 303.938,631.24 117.529,631.24 303.938,679.385 303.938,728.541 116.511,773.608 302.92,773.608 303.938,834.032 56.087,834.032 56.087,737.757 205.612,702.941 "
   id="polygon964" />
	<path
   fill="#838384"
   d="m 221.545,566.153 v -68.598 c 0,0 40.098,-1.585 38.521,-40.098 0,0 0,-30.076 -27.439,-30.076 0,0 -18.468,-1.585 -26.387,29.016 0,0 -12.134,63.849 -41.685,87.592 0,0 -42.736,32.713 -86.54,-3.688 0,0 -32.713,-25.854 -27.439,-82.318 0,0 -4.748,-90.754 73.872,-92.34 v 67.539 c 0,0 -29.542,3.162 -27.439,35.884 0,0 1.06,23.741 19.536,22.691 0,0 14.245,-1.06 18.468,-22.691 0,0 13.186,-60.687 26.371,-77.569 0,0 17.417,-34.299 65.436,-32.713 0,0 60.686,0.525 78.094,64.901 0,0 9.505,50.656 -3.688,90.229 -10e-4,-0.003 -12.67,43.794 -79.681,52.239 z"
   id="path966" />
	<path
   fill="#bd2223"
   d="m 547.584,461.161 c 0,0 20.562,-43.999 59.779,-77.001 0,0 5.749,-5.265 -3.34,-7.657 0,0 -38.259,-12.43 -69.836,-11.955 l -180.304,4.308 v 463.438 l 182.221,6.699 c 0,0 89.915,-5.257 140.13,-52.615 0,0 51.672,-45.907 67.928,-117.651 0,0 26.719,-118.965 -28.244,-202.41 0,0 -53.997,18.654 -64.799,79.519 0,0 -10.794,86.387 -9.819,103.075 0,0 -3.917,69.691 -61.831,97.181 0,0 -80.502,8.836 -129.581,-2.942 L 448.9,462.391 Z"
   id="path968" />
	<path
   fill="#8f2877"
   d="m 769.903,440.794 c 0,0 28.465,-55.955 65.773,-75.585 0,0 -94.239,-37.308 -187.495,8.836 0,0 -95.223,51.046 -113.877,165.899 0,0 -19.639,110.926 22.572,192.404 0,0 31.424,4.91 54.98,-39.267 0,0 7.852,-8.836 11.778,-42.211 0,0 10.794,-121.72 20.613,-132.523 0.001,0 24.539,-80.495 125.656,-77.553 z"
   id="path970" />
	<path
   fill="#8e2877"
   d="m 658.493,829.046 c 0,0 49.078,-40.743 68.708,-75.594 l 37.301,1.475 c 0,0 5.409,35.825 77.552,83.928 -10e-4,10e-4 -76.569,28.467 -183.561,-9.809 z"
   id="path972" />
	<path
   fill="#fcbf02"
   d="m 1041.105,508.629 94.002,-0.712 c 0,0 -0.696,-156.91 -192.252,-153.374 0,0 -91.187,-1.416 -140.655,58.669 0,0 -50.181,56.54 -17.671,143.479 0,0 16.958,45.941 101.073,69.971 0,0 10.6,-42.405 0.713,-72.092 0,0 -12.024,-40.285 -17.671,-50.181 0,0 -9.192,-19.791 7.055,-36.758 0,0 24.743,-26.853 65.74,-27.566 0,0 37.462,-4.24 66.436,15.551 0,0 28.279,19.79 33.23,53.013 z"
   id="path974" />
	<path
   fill="#8f2877"
   d="m 970.413,459.152 c 0,0 84.124,115.2 -0.695,286.957 0,0 -47.357,6.359 -77.755,-20.495 0,0 -13.431,-9.895 -4.935,-31.102 0,0 41.701,-85.522 -1.407,-187.3 0,0 -14.143,-25.446 16.246,-39.589 0,0 22.589,-11.294 68.546,-8.471 z"
   id="path976" />
	<path
   fill="#fcc000"
   d="m 1017.067,661.29 4.248,-92.594 c 0,0 77.044,12.015 113.097,67.148 0,0 41.702,77.043 -11.311,147.718 0,0 -44.533,60.788 -156.91,62.908 0,0 -202.156,12.015 -200.739,-160.446 l 94.001,0.703 c 0,0 3.544,70.684 86.947,73.507 0,0 50.181,2.832 79.866,-10.599 0,0 26.863,-12.727 28.982,-39.581 10e-4,0.002 0.714,-35.332 -38.181,-48.764 z"
   id="path978" />
</g></svg>
