<?xml version="1.0" encoding="UTF-8" standalone="no"?>
<svg
   viewBox="0 0 439.05118 114.04099"
   version="1.1"
   id="svg80"
   sodipodi:docname="pc88.svg"
   width="439.05118"
   height="114.04099"
   inkscape:version="1.1 (c68e22c387, 2021-05-23)"
   xmlns:inkscape="http://www.inkscape.org/namespaces/inkscape"
   xmlns:sodipodi="http://sodipodi.sourceforge.net/DTD/sodipodi-0.dtd"
   xmlns="http://www.w3.org/2000/svg"
   xmlns:svg="http://www.w3.org/2000/svg"
   xmlns:rdf="http://www.w3.org/1999/02/22-rdf-syntax-ns#"
   xmlns:cc="http://creativecommons.org/ns#"
   xmlns:dc="http://purl.org/dc/elements/1.1/">
  <defs
     id="defs84" />
  <sodipodi:namedview
     id="namedview82"
     pagecolor="#ffffff"
     bordercolor="#666666"
     borderopacity="1.0"
     inkscape:pageshadow="2"
     inkscape:pageopacity="0.0"
     inkscape:pagecheckerboard="0"
     showgrid="false"
     fit-margin-top="0"
     fit-margin-left="0"
     fit-margin-right="0"
     fit-margin-bottom="0"
     inkscape:zoom="1.113"
     inkscape:cx="219.67655"
     inkscape:cy="56.603774"
     inkscape:window-width="1920"
     inkscape:window-height="1138"
     inkscape:window-x="-8"
     inkscape:window-y="-8"
     inkscape:window-maximized="1"
     inkscape:current-layer="svg80" />
  <title
     id="title2">logo_right</title>
  <g
     id="g942"
     transform="translate(-280.47881)">
    <g
       id="Layer_2"
       data-name="Layer 2">
      <rect
         x="378.54001"
         y="46.639999"
         width="49.330002"
         height="22.33"
         fill="#ffffff"
         id="rect4" />
      <rect
         x="448.38"
         y="26.99"
         width="33.830002"
         height="23.58"
         fill="#ffffff"
         id="rect6" />
      <rect
         x="578.95001"
         y="24.67"
         width="30.41"
         height="27.120001"
         fill="#ffffff"
         id="rect8" />
      <rect
         x="650.53998"
         y="50.57"
         width="29"
         height="38.73"
         fill="#ffffff"
         id="rect10" />
      <rect
         x="581.51001"
         y="66.809998"
         width="18.030001"
         height="14.83"
         fill="#ffffff"
         id="rect12" />
    </g>
    <g
       id="Layer_1"
       data-name="Layer 1">
      <text
         transform="translate(516.97,72.32)"
         font-size="2.08px"
         fill="#ff0000"
         stroke="#ffffff"
         stroke-linecap="round"
         stroke-linejoin="round"
         stroke-width="7"
         font-family="ArialMT, Arial"
         style="isolation:isolate"
         id="text15">I don’t like bugs!</text>
      <path
         d="m 511.55,35.72 a 11.81,11.81 0 0 1 -5.23,-1.17 10.78,10.78 0 0 1 -3.85,-3.3 v 0.05 a 11.93,11.93 0 0 1 -8.88,4.24 h -0.38 a 13,13 0 0 1 -9,-3.51 12.11,12.11 0 0 1 -8.23,3.51 h -0.38 a 12.76,12.76 0 0 1 -9.71,-4.25 10.61,10.61 0 0 1 -2.24,-8.77 8.63,8.63 0 0 1 1.23,-3 l 0.12,-0.2 a 3.57,3.57 0 0 1 0.32,-0.49 10.37,10.37 0 0 1 -1.06,-2.93 10.63,10.63 0 0 1 1.95,-8 11,11 0 0 1 7.5,-4.11 12.75,12.75 0 0 1 1.63,-0.11 11.58,11.58 0 0 1 8.78,3.87 11.13,11.13 0 0 1 7.22,-3.76 12.78,12.78 0 0 1 1.64,-0.11 11.53,11.53 0 0 1 9.26,4.47 l 0.07,0.09 a 11.41,11.41 0 0 1 8.24,-4.47 q 0.66,-0.06 1.29,-0.06 a 11.84,11.84 0 0 1 8.07,3.06 10,10 0 0 1 1.46,1.76 11.45,11.45 0 0 1 8.58,-4.93 c 0.44,0 0.87,-0.06 1.3,-0.06 a 11.87,11.87 0 0 1 8.06,3.05 c 3.38,3.24 4.47,9.29 4.37,13.87 -0.07,3.14 -0.77,8.92 -4.64,12.3 a 12.46,12.46 0 0 1 -8,2.77 11.81,11.81 0 0 1 -5.23,-1.17 10.87,10.87 0 0 1 -4.16,-3.73 11.07,11.07 0 0 1 -2,2.3 12.46,12.46 0 0 1 -8.1,2.79 z m 0.19,-17.39 a 17.58,17.58 0 0 0 0,2.81 16.48,16.48 0 0 0 0,-2.81 z m 19.4,-0.17 a 17.58,17.58 0 0 0 0,2.81 16.48,16.48 0 0 0 0,-2.81 z m -82.56,17.43 c -9.66,0 -14.72,-8 -14.72,-15.89 0,-7.89 5.2,-16.17 15.14,-16.17 a 20.34,20.34 0 0 1 4.49,0.53 3.5,3.5 0 0 1 2.72,3.41 v 4.86 a 3.48,3.48 0 0 1 -1.37,2.78 3.51,3.51 0 0 1 -3,0.6 7.43,7.43 0 0 0 -1.93,-0.28 3.22,3.22 0 0 0 -2.66,1.11 4.73,4.73 0 0 0 -1,3 c 0,0.68 0.17,4.07 3.51,4.07 a 7.26,7.26 0 0 0 1.86,-0.27 3.2,3.2 0 0 1 0.92,-0.13 3.49,3.49 0 0 1 3.5,3.5 v 4.86 a 3.5,3.5 0 0 1 -2.65,3.4 19.87,19.87 0 0 1 -4.81,0.62 z"
         id="path17" />
      <path
         d="m 449,7 a 16.77,16.77 0 0 1 3.71,0.44 v 4.86 a 10.83,10.83 0 0 0 -2.84,-0.4 c -9.52,0 -9.46,15.18 -0.12,15.18 a 10.3,10.3 0 0 0 2.78,-0.4 v 4.86 a 16.37,16.37 0 0 1 -3.94,0.52 C 433.59,32.06 433.59,7 449,7 m 82.2,0 a 8.32,8.32 0 0 1 5.64,2.08 c 4.09,3.91 4.75,16.73 -0.15,21 a 9.13,9.13 0 0 1 -5.73,1.9 8.23,8.23 0 0 1 -3.68,-0.81 c -3.06,-1.51 -4.86,-5.53 -5.17,-10.18 -0.49,-7.29 1.61,-13.29 8.15,-13.95 a 7.5,7.5 0 0 1 0.94,-0.05 m -0.05,20.11 h 0.05 c 4.7,-0.11 4.71,-15.14 -0.13,-15.14 a 2.48,2.48 0 0 0 -0.65,0.09 c -3.89,1 -3.83,15.05 0.73,15.05 m -38.22,-20 c 5,0 9,4.11 7.43,9.32 a 13.84,13.84 0 0 1 -1.78,2.76 c 0,0 2.31,2.14 2.56,3.51 1.05,5.75 -3.28,9.13 -7.68,9.25 h -0.28 c -4.58,0 -9.48,-3.14 -8.5,-8.93 a 6.35,6.35 0 0 1 0.95,-2 16.5,16.5 0 0 1 1.55,-1.79 16.68,16.68 0 0 1 -1.87,-3.85 c -0.59,-4.18 1.91,-7.57 6.43,-8.15 a 7.93,7.93 0 0 1 1.19,-0.08 m 0,9.24 a 2.1,2.1 0 0 0 2.24,-2.11 2.29,2.29 0 0 0 -2.33,-2.43 2.15,2.15 0 0 0 -2.22,2.28 2.19,2.19 0 0 0 2.31,2.26 m 0,10.9 c 3.56,0 3.57,-5.33 -0.06,-5.33 -3.63,0 -3.55,5.33 0.06,5.33 M 475.28,7.2 c 5,0 9,4.11 7.43,9.32 a 13.47,13.47 0 0 1 -1.77,2.76 c 0,0 2.31,2.14 2.56,3.51 1.05,5.75 -3.29,9.13 -7.68,9.25 h -0.28 c -4.58,0 -9.49,-3.14 -8.5,-8.93 a 6.57,6.57 0 0 1 0.94,-2 16.34,16.34 0 0 1 1.56,-1.79 16.68,16.68 0 0 1 -1.87,-3.85 c -0.59,-4.18 1.9,-7.57 6.42,-8.15 a 8,8 0 0 1 1.19,-0.08 m 0,9.24 a 2.09,2.09 0 0 0 2.24,-2.11 2.29,2.29 0 0 0 -2.32,-2.43 2.15,2.15 0 0 0 -2.2,2.24 2.18,2.18 0 0 0 2.3,2.26 m 0.05,10.9 c 3.55,0 3.57,-5.33 -0.07,-5.33 -3.64,0 -3.55,5.33 0.07,5.33 M 511.78,7.23 a 8.33,8.33 0 0 1 5.65,2.08 c 4.09,3.91 4.75,16.73 -0.15,21 a 9.13,9.13 0 0 1 -5.73,1.9 8.23,8.23 0 0 1 -3.68,-0.81 c -3.06,-1.51 -4.86,-5.53 -5.17,-10.18 -0.49,-7.29 1.61,-13.29 8.15,-13.95 a 7.44,7.44 0 0 1 0.93,0 m 0,20.11 h 0.05 c 4.7,-0.1 4.71,-15.13 -0.13,-15.13 a 2.46,2.46 0 0 0 -0.65,0.08 c -3.89,1 -3.83,15.05 0.73,15.05 M 449,0 c -10.62,0 -18.63,8.46 -18.63,19.67 a 20.6,20.6 0 0 0 4.36,12.92 17.44,17.44 0 0 0 13.86,6.47 23.35,23.35 0 0 0 5.64,-0.73 7,7 0 0 0 5.3,-6.79 v -4.83 a 7,7 0 0 0 -7,-7 6.85,6.85 0 0 0 -1.84,0.25 3.66,3.66 0 0 1 -0.88,0.15 2.15,2.15 0 0 1 0,-1.18 v 0 a 3.84,3.84 0 0 1 1,0.16 7,7 0 0 0 8.81,-6.76 V 7.47 A 7,7 0 0 0 454.26,0.65 23.79,23.79 0 0 0 449,0 Z m 82.2,0 c -0.55,0 -1.1,0 -1.65,0.08 a 15.5,15.5 0 0 0 -8.21,3.3 15.45,15.45 0 0 0 -9.55,-3.15 c -0.55,0 -1.1,0 -1.65,0.08 a 15.59,15.59 0 0 0 -7.86,3 15.34,15.34 0 0 0 -9.36,-3.11 18.18,18.18 0 0 0 -2.09,0.13 15.38,15.38 0 0 0 -6.83,2.56 15.48,15.48 0 0 0 -8.72,-2.69 18.15,18.15 0 0 0 -2.08,0.13 14.51,14.51 0 0 0 -9.83,5.47 14.05,14.05 0 0 0 -2.63,10.6 8.9,8.9 0 0 0 0.58,2.2 11,11 0 0 0 -1.18,3.32 14.05,14.05 0 0 0 3,11.63 16.27,16.27 0 0 0 12.4,5.45 H 476 a 15.7,15.7 0 0 0 8.18,-2.54 17,17 0 0 0 9,2.54 h 0.48 a 15.6,15.6 0 0 0 8.7,-2.9 13,13 0 0 0 2.43,1.55 15.32,15.32 0 0 0 6.77,1.53 16.19,16.19 0 0 0 10,-3.38 13.27,13.27 0 0 0 2.6,1.68 15.32,15.32 0 0 0 6.84,1.57 16.1,16.1 0 0 0 10.33,-3.63 c 4.88,-4.26 5.75,-11.14 5.84,-14.86 0.06,-2.58 -0.16,-11.41 -5.45,-16.47 a 15.21,15.21 0 0 0 -10.48,-4 z"
         fill="#ffffff"
         id="path19" />
      <path
         d="M 421.45,35.54 A 3.5,3.5 0 0 1 418,32 V 7 a 3.5,3.5 0 0 1 3.5,-3.49 h 4.94 c 9.49,0 14.1,3.64 14.1,11 0,6.22 -3.87,10.18 -10.49,10.91 V 32 a 3.52,3.52 0 0 1 -3.5,3.5 z M 621,35.36 a 3.51,3.51 0 0 1 -3.41,-2.69 9.85,9.85 0 0 0 -1.09,-2.23 l -2.72,2.81 c -2.11,2.11 -5,2.11 -7.38,2.11 h -1.63 a 3.5,3.5 0 0 1 -3.5,-3.5 v -4.42 a 3.5,3.5 0 0 1 1,-2.48 3.45,3.45 0 0 1 2.47,-1 h 1.11 a 6.35,6.35 0 0 0 0.69,0 l 6.69,-7 h -8.49 a 3.5,3.5 0 0 1 -3.5,-3.5 V 8.84 a 3.5,3.5 0 0 1 3.5,-3.5 h 12.95 a 10,10 0 0 1 9.47,6 c 1.39,3.22 1,6.83 -1.08,9 l -1.31,1.37 1.31,2.09 c 2.87,4.65 3.41,6.45 3.55,7.6 a 3.48,3.48 0 0 1 -3.47,3.93 z m -54.31,-12 a 3.5,3.5 0 0 1 -3.5,-3.5 v -11 a 3.5,3.5 0 0 1 3.5,-3.5 h 5 a 3.5,3.5 0 0 1 3.5,3.5 v 11 a 3.5,3.5 0 0 1 -3.5,3.5 z m -23.52,-6.27 a 3.5,3.5 0 0 1 -3.5,-3.5 V 8.83 a 3.52,3.52 0 0 1 3.5,-3.5 h 11 a 3.51,3.51 0 0 1 3.5,3.5 v 4.71 a 3.5,3.5 0 0 1 -3.5,3.5 z"
         id="path21" />
      <path
         d="m 426.45,7 c 9.49,0 10.6,3.84 10.6,7.52 0,5.3 -3.7,7.53 -9.29,7.53 V 17.2 c 2.36,0 3.76,-0.81 3.76,-2.52 0,-1.41 -0.23,-2.8 -5,-2.8 v 20.16 h -5.12 l 0.06,-25 h 4.94 m 145.26,1.79 v 11 h -5 v -11 h 5 m -28.52,0 h 11 v 4.71 h -11 V 8.83 m 74.55,0 c 6.27,0 8.12,6.7 5.83,9.13 l -3.25,3.4 c 0,0 5.57,8 5.88,10.49 H 621 c -0.59,-2.48 -4,-6.95 -4,-6.95 l -5.71,5.9 c -1,1 -2.93,1.05 -4.87,1.05 h -1.63 v -4.41 h 1.1 a 4,4 0 0 0 3.12,-1 l 10,-10.51 c 1.06,-1.07 0.49,-2.58 -1.34,-2.58 H 604.8 V 8.84 h 13 M 426.45,0 h -4.94 a 7,7 0 0 0 -7,7 l -0.06,25 a 7,7 0 0 0 7,7 h 5.12 a 7,7 0 0 0 7,-7 v -3.7 c 6.52,-1.81 10.49,-6.82 10.49,-13.78 0,-5.4 -2.28,-14.47 -17.57,-14.52 z m 116.69,1.83 a 7,7 0 0 0 -7,7 v 4.72 a 7,7 0 0 0 7,7 h 11 a 7,7 0 0 0 5.54,-2.72 v 2 a 7,7 0 0 0 7,7 h 5 a 7,7 0 0 0 7,-7 v -11 a 7,7 0 0 0 -7,-7 h -5 a 7,7 0 0 0 -6.28,3.89 7,7 0 0 0 -6.26,-3.88 z m 74.55,0 h -13 a 7,7 0 0 0 -7,7 v 4.54 a 7,7 0 0 0 7,7 h 0.32 v 0.06 h -0.27 a 7,7 0 0 0 -7,7 v 4.42 a 7,7 0 0 0 7,7 h 1.63 c 2.5,0 6.2,0 9.2,-2.53 a 7,7 0 0 0 5.4,2.53 h 5.19 a 7,7 0 0 0 7,-7.87 c -0.2,-1.58 -0.82,-3.75 -4,-8.83 A 11.92,11.92 0 0 0 630.36,10 13.54,13.54 0 0 0 617.69,1.86 Z"
         fill="#ffffff"
         id="path23" />
      <path
         d="m 566.65,35.07 a 3.5,3.5 0 0 1 -3.47,-3 12.31,12.31 0 0 1 -7.8,3 h -12.24 a 3.5,3.5 0 0 1 -3.5,-3.5 v -5 a 3.5,3.5 0 0 1 3.49,-3.5 h 12.35 V 10.12 A 3.5,3.5 0 0 1 559,6.6 h 4.92 a 3.5,3.5 0 0 1 3.5,3.5 v 13.27 h 8 0.26 a 3.53,3.53 0 0 0 0,-0.39 c 0,-2.63 0,-14.12 0,-14.12 a 3.5,3.5 0 0 1 3.5,-3.5 h 5 a 3.5,3.5 0 0 1 3.5,3.5 v 14.3 A 11.66,11.66 0 0 1 576.07,35.1 Z"
         id="path25" />
      <path
         d="m 584.2,8.83 v 14.3 a 8.17,8.17 0 0 1 -8.11,8.44 h -9.44 v -4.7 h 8.77 c 2.43,0 3.78,-1.29 3.78,-3.9 0,-2.61 0,-14.12 0,-14.12 h 5 M 559,10.1 h 4.92 v 13 a 8.81,8.81 0 0 1 -8.54,8.5 h -12.24 v -5 h 12.2 c 2.08,0 3.64,-1.13 3.64,-3.41 v -13 m 25.2,-8.27 h -5 a 7,7 0 0 0 -7,7 c 0,0 0,6.7 0,11 h -1.29 V 10.1 a 7,7 0 0 0 -7,-7 H 559 a 7,7 0 0 0 -7,7 v 9.46 h -8.86 a 7,7 0 0 0 -7,7 v 5 a 7,7 0 0 0 7,7 h 12.24 a 15.37,15.37 0 0 0 6.76,-1.64 7,7 0 0 0 4.51,1.64 h 9.44 A 15.12,15.12 0 0 0 591.2,23.13 V 8.83 a 7,7 0 0 0 -7,-7 z"
         fill="#ffffff"
         id="path27" />
      <path
         d="m 586.24,26.14 a 3.5,3.5 0 0 1 -3.5,-3.5 v -4.55 a 3.5,3.5 0 0 1 3.5,-3.5 h 19.59 a 3.5,3.5 0 0 1 3.5,3.5 v 4.55 a 3.5,3.5 0 0 1 -3.5,3.5 z M 452.86,25.19 a 3.5,3.5 0 0 1 -3.5,-3.5 v -3.76 a 3.5,3.5 0 0 1 3.5,-3.5 h 12.22 a 3.5,3.5 0 0 1 3.5,3.5 v 3.76 a 3.49,3.49 0 0 1 -3.5,3.5 z m 90.27,-0.93 a 3.5,3.5 0 0 1 -3.5,-3.5 v -4.68 a 3.5,3.5 0 0 1 3.5,-3.5 h 11 a 3.52,3.52 0 0 1 3.5,3.5 v 4.69 a 3.5,3.5 0 0 1 -3.5,3.5 z"
         id="path29" />
      <path
         d="m 554.11,16.07 v 4.69 h -11 v -4.68 h 11 m -89,1.86 v 3.76 h -12.25 v -3.77 h 12.22 m 140.75,0.16 v 4.55 h -19.59 v -4.55 h 19.59 m -51.72,-9 h -11 a 7,7 0 0 0 -7,7 v 4.68 a 7,7 0 0 0 7,7 h 11 a 7,7 0 0 0 7,-7 v -4.7 a 7,7 0 0 0 -7,-7 z m -89,1.86 h -12.25 a 7,7 0 0 0 -7,7 v 3.76 a 7,7 0 0 0 7,7 h 12.22 a 7,7 0 0 0 7,-7 v -3.78 a 7,7 0 0 0 -7,-7 z m 140.75,0.16 h -19.62 a 7,7 0 0 0 -7,7 v 4.55 a 7,7 0 0 0 7,7 h 19.59 a 7,7 0 0 0 7,-7 v -4.57 a 7,7 0 0 0 -7,-7 z"
         fill="#ffffff"
         id="path31" />
      <path
         d="m 627.85,16.32 a 5.54,5.54 0 1 1 5.54,-5.54 5.54,5.54 0 0 1 -5.54,5.54 z"
         fill="#060606"
         id="path33" />
      <path
         d="m 627.85,8.74 a 2,2 0 1 1 -2,2 2,2 0 0 1 2,-2 m 0,-7 a 9,9 0 1 0 9,9 9,9 0 0 0 -9,-9 z"
         fill="#ffffff"
         id="path35" />
      <path
         d="m 633,16.32 a 5.54,5.54 0 1 1 5.54,-5.54 5.54,5.54 0 0 1 -5.54,5.54 z"
         fill="#060606"
         id="path37" />
      <path
         d="m 633,8.74 a 2,2 0 1 1 -2,2 2,2 0 0 1 2,-2 m 0,-7 a 9,9 0 1 0 9,9 9,9 0 0 0 -9,-9 z"
         fill="#ffffff"
         id="path39" />
      <path
         d="m 502.18,110.5 c -23,0 -35.08,-19.31 -35.08,-38.38 C 467.1,52.67 479.54,33 503.32,33 a 51,51 0 0 1 11.23,1.33 3.51,3.51 0 0 1 2.73,3.42 v 13.63 a 3.51,3.51 0 0 1 -1.37,2.78 3.51,3.51 0 0 1 -3,0.6 27.73,27.73 0 0 0 -7.1,-1 15.46,15.46 0 0 0 -12.37,5.44 19.71,19.71 0 0 0 -4.2,12.48 c 0,8.59 5.08,17.82 16.24,17.82 a 26.16,26.16 0 0 0 6.91,-1 3.57,3.57 0 0 1 0.92,-0.12 3.49,3.49 0 0 1 3.5,3.5 v 13.67 a 3.5,3.5 0 0 1 -2.65,3.4 49.1,49.1 0 0 1 -11.98,1.55 z m 164.41,-0.09 a 27.08,27.08 0 0 1 -11.89,-2.63 c -6.29,-3.1 -11.15,-9.5 -14,-18 a 23.28,23.28 0 0 1 -4.87,10.82 27.22,27.22 0 0 1 -20.25,9.6 h -0.89 c -8.93,0 -17.32,-3.63 -22.46,-9.72 a 22.3,22.3 0 0 1 -3.92,-6.73 23.1,23.1 0 0 1 -3.85,6.84 27.2,27.2 0 0 1 -20.24,9.6 h -0.89 c -8.93,0 -17.33,-3.63 -22.46,-9.72 C 536.44,95.18 534.74,88.43 536,81 a 18.26,18.26 0 0 1 2.64,-6.17 c 0.15,-0.25 0.3,-0.49 0.42,-0.71 a 26.64,26.64 0 0 1 3,-3.77 c -1.66,-2.85 -4,-7.17 -4.35,-9.89 A 23.63,23.63 0 0 1 542,42.65 c 3.85,-5 9.67,-8.2 16.86,-9.13 a 28.38,28.38 0 0 1 3.79,-0.25 c 8.46,0 16.31,3.75 21,10 4.37,5.87 5.54,13.23 3.29,20.72 a 26.3,26.3 0 0 1 -3.7,6.46 29.78,29.78 0 0 1 5.21,7.19 31.07,31.07 0 0 1 1.55,-2.85 c 0.16,-0.25 0.3,-0.49 0.42,-0.71 a 26.8,26.8 0 0 1 3.05,-3.77 c -1.67,-2.85 -4,-7.17 -4.35,-9.89 a 23.54,23.54 0 0 1 4.25,-17.77 c 3.84,-5 9.67,-8.2 16.85,-9.13 a 28.49,28.49 0 0 1 3.79,-0.25 26,26 0 0 1 21,10 22.13,22.13 0 0 1 4.4,13.73 c 3.2,-14 11.79,-22.4 24.87,-23.73 a 29.93,29.93 0 0 1 3,-0.15 c 7,0 13.84,2.55 18.32,6.84 6.61,6.32 10.67,19.79 10.33,34.3 -0.3,13.28 -4.28,24.2 -10.9,30 -4.41,3.74 -11.47,6.15 -18.44,6.15 z M 614,82 c -3.79,0 -4.08,3 -4.08,3.88 a 4,4 0 0 0 4.29,4.12 3.75,3.75 0 0 0 4,-4 3.84,3.84 0 0 0 -4.21,-4 z m -51.37,0 c -3.78,0 -4.08,3 -4.08,3.88 a 4,4 0 0 0 4.29,4.12 3.76,3.76 0 0 0 4,-4 3.85,3.85 0 0 0 -4.18,-4 z M 666.92,54.07 a 3.85,3.85 0 0 0 -1,0.14 c -3.36,0.86 -6.34,12 -4.91,23.32 0.9,7.15 3.42,12.14 6.11,12.14 3.67,-0.08 6.63,-8.42 6.52,-18.21 -0.07,-9.59 -3.1,-17.39 -6.72,-17.39 z m -32.33,16.41 a 38.88,38.88 0 0 1 3.53,4.3 A 73.17,73.17 0 0 1 638.3,64 v 0 a 26.36,26.36 0 0 1 -3.71,6.48 z m -20.75,-17 a 2.59,2.59 0 0 0 -2.75,2.91 2.74,2.74 0 0 0 3,2.88 v 0 a 3.27,3.27 0 0 0 2.08,-0.68 2.08,2.08 0 0 0 0.72,-1.77 3,3 0 0 0 -3.05,-3.32 z m -51.36,0 a 2.58,2.58 0 0 0 -2.75,2.91 2.74,2.74 0 0 0 3,2.88 v 0 a 3.23,3.23 0 0 0 2.08,-0.68 2.08,2.08 0 0 0 0.72,-1.77 C 565.52,53.67 563,53.5 562.48,53.5 Z"
         id="path41" />
      <path
         d="m 503.32,36.48 a 47,47 0 0 1 10.46,1.24 v 13.66 a 31.29,31.29 0 0 0 -8,-1.13 C 479,50.25 479.14,93 505.44,93 a 29.79,29.79 0 0 0 7.83,-1.12 v 13.67 A 45.43,45.43 0 0 1 502.18,107 c -42.35,0 -42.23,-70.52 1.14,-70.52 m 164,0.09 a 23.36,23.36 0 0 1 15.9,5.87 c 11.49,11 13.36,47.07 -0.45,59.11 -3.63,3.17 -9.8,5.36 -16.13,5.36 a 23.34,23.34 0 0 1 -10.34,-2.27 c -8.62,-4.25 -13.68,-15.58 -14.56,-28.68 -1.37,-20.5 4.54,-37.38 22.94,-39.26 0.9,-0.09 1.78,-0.13 2.64,-0.13 m -0.12,56.6 h 0.13 c 13.24,-0.28 13.26,-42.6 -0.36,-42.6 a 7.13,7.13 0 0 0 -1.84,0.25 c -10.93,2.81 -10.78,42.35 2.07,42.35 M 614,36.77 c 14,0 25.33,11.56 20.92,26.25 -0.74,2.48 -5,7.77 -5,7.77 0,0 6.48,6 7.19,9.88 3,16.16 -9.24,25.68 -21.62,26 h -0.79 c -12.89,0 -26.7,-8.85 -23.91,-25.16 0.38,-2.25 1.88,-4.4 2.64,-5.74 a 46.62,46.62 0 0 1 4.39,-5 c 0,0 -4.81,-7.64 -5.27,-10.86 C 590.93,48.17 598,38.64 610.68,37 a 25.31,25.31 0 0 1 3.34,-0.22 m 0.06,26 c 3.17,0 6.31,-2 6.31,-5.95 a 6.44,6.44 0 0 0 -6.55,-6.83 6.07,6.07 0 0 0 -6.25,6.41 6.17,6.17 0 0 0 6.49,6.38 m 0.13,30.67 c 10,0 10.06,-15 -0.18,-15 -10.24,0 -10,15 0.18,15 M 562.66,36.77 c 14,0 25.32,11.56 20.92,26.25 -0.74,2.48 -5,7.77 -5,7.77 0,0 6.49,6 7.2,9.88 3,16.16 -9.24,25.68 -21.62,26 h -0.79 c -12.9,0 -26.7,-8.85 -23.92,-25.16 0.39,-2.25 1.89,-4.4 2.65,-5.74 a 46.78,46.78 0 0 1 4.38,-5 c 0,0 -4.81,-7.64 -5.26,-10.86 -1.66,-11.76 5.35,-21.29 18.09,-22.94 a 25.2,25.2 0 0 1 3.34,-0.22 m 0.06,26 c 3.17,0 6.3,-2 6.3,-5.95 a 6.43,6.43 0 0 0 -6.53,-6.8 6.07,6.07 0 0 0 -6.25,6.41 6.17,6.17 0 0 0 6.49,6.38 m 0.12,30.67 c 10,0 10.06,-15 -0.17,-15 -10.23,0 -10,15 0.17,15 m -59.52,-64 c -26.07,0 -39.72,21.45 -39.72,42.64 0,20.81 13.25,41.88 38.58,41.88 a 53,53 0 0 0 12.82,-1.64 7,7 0 0 0 5.3,-6.8 V 91.87 a 7,7 0 0 0 -7,-7 6.85,6.85 0 0 0 -1.84,0.25 23.05,23.05 0 0 1 -6,0.87 c -10.05,0 -12.74,-9 -12.74,-14.32 a 16.24,16.24 0 0 1 3.39,-10.25 c 2.3,-2.77 5.56,-4.17 9.67,-4.17 a 24.21,24.21 0 0 1 6.2,0.89 7,7 0 0 0 8.82,-6.76 V 37.72 a 7,7 0 0 0 -5.45,-6.83 54.31,54.31 0 0 0 -12,-1.41 z m 164,0.09 v 0 a 31.32,31.32 0 0 0 -3.35,0.17 c -10.57,1.07 -18.76,6.33 -23.77,15.24 a 25.62,25.62 0 0 0 -2.34,-3.77 C 632.53,34.03 623.64,29.75 614.07,29.75 v 0 a 31.89,31.89 0 0 0 -4.24,0.28 c -8,1 -14.83,4.76 -19.18,10.48 a 24.67,24.67 0 0 0 -2.28,3.58 25.54,25.54 0 0 0 -1.87,-2.9 C 581.17,34.03 572.27,29.75 562.71,29.75 v 0 a 31.78,31.78 0 0 0 -4.24,0.28 c -8,1 -14.83,4.76 -19.19,10.48 a 27,27 0 0 0 -4.93,20.38 c 0.36,2.57 1.91,6 3.54,9 A 18.32,18.32 0 0 0 536,72.35 c -0.11,0.2 -0.24,0.41 -0.38,0.64 a 21.12,21.12 0 0 0 -3.09,7.39 c -1.45,8.51 0.52,16.24 5.69,22.37 5.79,6.86 15.18,11 25.13,11 h 1 a 30.69,30.69 0 0 0 22.86,-10.88 c 0.4,-0.49 0.79,-1 1.19,-1.58 0.37,0.52 0.77,1 1.19,1.52 5.79,6.86 15.18,11 25.13,11 h 1 a 30.73,30.73 0 0 0 22.87,-10.88 28.71,28.71 0 0 0 2.51,-3.68 29.08,29.08 0 0 0 12,11.79 30.46,30.46 0 0 0 13.43,3 c 7.78,0 15.73,-2.71 20.74,-7.08 7.35,-6.42 11.76,-18.28 12.09,-32.54 0.27,-11.73 -2.56,-28.44 -11.42,-36.91 -5.11,-4.89 -12.86,-7.81 -20.72,-7.81 z m -0.11,56.21 c -1,-1.39 -2.63,-5.27 -2.94,-12 -0.38,-8 1.38,-14 2.72,-15.93 1.21,1.37 3.09,6.07 3.22,13.43 0.13,7.81 -1.78,12.87 -3,14.53 z M 587.67,70.2 c 0.32,-0.49 0.63,-1 0.92,-1.49 0.2,0.39 0.4,0.78 0.61,1.16 -0.33,0.39 -0.63,0.77 -0.89,1.11 z m 25.83,15.31 a 2.53,2.53 0 0 1 0.54,-0.05 1.88,1.88 0 0 1 0.58,0.07 1.24,1.24 0 0 1 0,0.89 2.4,2.4 0 0 1 -0.42,0 1.57,1.57 0 0 1 -0.62,-0.09 1.17,1.17 0 0 1 -0.09,-0.86 z m -51.36,0 a 2.49,2.49 0 0 1 0.53,-0.05 2,2 0 0 1 0.59,0.07 1.24,1.24 0 0 1 0,0.89 2.44,2.44 0 0 1 -0.43,0 1.62,1.62 0 0 1 -0.62,-0.09 1.17,1.17 0 0 1 -0.08,-0.86 z"
         fill="#ffffff"
         id="path43" />
      <path
         d="M 421.45,110.48 A 3.52,3.52 0 0 1 418,107 l 0.17,-70.48 a 3.5,3.5 0 0 1 3.5,-3.5 h 13.9 c 29.55,0.1 33.34,13.24 33.34,24.67 0,15.89 -10.49,24.65 -29.53,24.68 V 107 a 3.5,3.5 0 0 1 -3.5,3.5 z m 17.86,-48.77 c 7,0 7,-2.71 7,-3.6 0,-1.84 -0.2,-2.31 -0.69,-2.7 -0.49,-0.39 -2.25,-1.28 -6.36,-1.57 z m 259.11,48.7 a 3.5,3.5 0 0 1 -3.5,-3.5 V 36.47 a 3.5,3.5 0 0 1 3.5,-3.5 h 14.11 a 3.5,3.5 0 0 1 3.5,3.5 v 70.44 a 3.5,3.5 0 0 1 -3.5,3.5 z M 516.16,80.53 a 3.5,3.5 0 0 1 -3.5,-3.5 V 66.45 a 3.5,3.5 0 0 1 3.5,-3.5 h 16.65 a 3.5,3.5 0 0 1 3.5,3.5 V 77 a 3.5,3.5 0 0 1 -3.5,3.5 z"
         id="path45" />
      <path
         d="m 712.53,36.47 v 70.44 H 698.42 V 36.47 h 14.11 m -290.91,0 h 13.9 c 26.69,0.09 29.84,10.8 29.84,21.17 0,14.9 -10.43,21.18 -26.14,21.18 V 65.18 c 6.63,0 10.59,-2.29 10.59,-7.1 0,-4 -0.65,-7.88 -14.05,-7.88 l 0.05,56.75 h -14.4 l 0.17,-70.49 M 532.81,66.44 V 77 H 516.16 V 66.44 h 16.65 m 179.72,-37 h -14.11 a 7,7 0 0 0 -7,7 v 70.44 a 7,7 0 0 0 7,7 h 14.11 a 7,7 0 0 0 7,-7 V 36.47 a 7,7 0 0 0 -7,-7 z m -290.91,0 a 7,7 0 0 0 -7,7 L 414.45,107 a 7,7 0 0 0 7,7 h 14.4 a 7,7 0 0 0 7,-7 V 85.78 c 8.05,-0.48 14.62,-2.59 19.56,-6.31 4.54,-3.41 10,-10 10,-21.77 0,-5.43 -0.73,-13.37 -7.05,-19.47 -6,-5.81 -15.74,-8.66 -29.77,-8.7 z m 111.19,30 h -16.65 a 7,7 0 0 0 -7,7 V 77 a 7,7 0 0 0 7,7 h 16.65 a 7,7 0 0 0 7,-7 V 66.44 a 7,7 0 0 0 -7,-7 z"
         fill="#ffffff"
         id="path47" />
      <path
         d="M 394,87.54 A 22.56,22.56 0 0 1 372,71.4 L 370.2,83 a 3.49,3.49 0 0 1 -3.45,3 H 329.26 A 3.52,3.52 0 0 1 326.62,84.79 3.47,3.47 0 0 1 325.8,82 c 0.49,-3.39 3.72,-4.47 5.65,-5.12 l 0.26,-0.09 2.19,-12 a 4.42,4.42 0 0 1 -3,-2.44 3.51,3.51 0 0 1 -0.11,-2.68 5.06,5.06 0 0 1 4.6,-3.12 l 2.32,-12.8 c -1.49,-0.78 -3.9,-2.2 -3.9,-5.07 a 3.5,3.5 0 0 1 3.5,-3.5 h 37.09 a 3.5,3.5 0 0 1 3.45,4.1 l -1.45,8.27 a 28.54,28.54 0 0 1 2.37,-2.82 c 6.58,-6.92 16.64,-10.88 27.61,-10.88 h 1 a 3.5,3.5 0 0 1 3.07,2 80.55,80.55 0 0 1 4.33,11.37 3.51,3.51 0 0 1 -2.07,4.31 c -2.15,0.83 -5.2,2.21 -5.24,2.23 A 3.46,3.46 0 0 1 406,54 3.5,3.5 0 0 1 403.16,52.55 l -4.81,-6.68 c -4.12,1.15 -9.69,7.6 -10.09,11.28 a 10.42,10.42 0 0 0 2.16,7.66 7,7 0 0 0 4.84,2.65 c 0.24,0 0.49,0 0.73,0 4.56,0 10.38,-3.38 12.23,-4.68 a 3.55,3.55 0 0 1 2,-0.63 3.5,3.5 0 0 1 3.19,4.94 l -7.64,16.82 a 3.54,3.54 0 0 1 -2,1.85 29,29 0 0 1 -9.77,1.78 z M 352.33,75.76 c 4.92,0 5.17,-0.19 6.41,-1 l 0.22,-0.13 a 6.18,6.18 0 0 0 1,-0.82 3.51,3.51 0 0 1 -2.66,-2.55 c 0,0 -1,-3.5 -3.21,-5.11 z m 15.52,-25.13 a 3.58,3.58 0 0 1 -0.05,0.92 l -3.19,16.85 a 17.43,17.43 0 0 0 1.14,-1.68 3.49,3.49 0 0 1 3.93,-2.25 3.59,3.59 0 0 1 1.39,0.59 29.74,29.74 0 0 1 1.07,-8.87 h -0.25 a 3.5,3.5 0 0 1 -3.41,-3 17.94,17.94 0 0 0 -0.63,-2.56 z m -11.4,3.18 a 22.48,22.48 0 0 0 5.08,-5 3.53,3.53 0 0 1 2.83,-1.44 3.57,3.57 0 0 1 1.39,0.29 3.43,3.43 0 0 1 1.43,1.14 9.41,9.41 0 0 0 -2.46,-3.58 c -1.05,-0.16 -4,-0.17 -6.79,-0.17 z"
         id="path49" />
      <path
         d="m 406.38,37.28 h 0.89 a 80.47,80.47 0 0 1 4.14,10.88 c -2.27,0.88 -5.41,2.31 -5.41,2.31 l -6,-8.29 h -0.48 c -6.16,0 -14.15,8.94 -14.77,14.58 -0.75,6.84 3.51,13.6 10.18,14.18 0.34,0 0.68,0 1,0 6.72,0 14.25,-5.32 14.25,-5.32 L 402.6,82.47 A 25.66,25.66 0 0 1 394,84 19.13,19.13 0 0 1 374.59,65.61 c -0.9,-18.2 15.26,-28.37 31.79,-28.37 m -32,1.33 -2.44,14.13 c 0,0 -1.09,-7.64 -5.65,-10.63 -1,-0.46 -3.35,-0.49 -8.81,-0.49 H 355 l -2.85,16.8 a 5.84,5.84 0 0 0 1.25,0.14 c 5.44,0 11,-7.62 11,-7.62 l -3.7,19.54 c 0,0 -2.19,-8.56 -9,-8.56 h -0.34 l -3.16,17.37 c 10.35,0 10.15,-0.07 12.65,-1.6 2.5,-1.53 8.05,-8.73 8.26,-9.75 l -2.29,14.57 h -37.56 c 0.28,-1.94 3.93,-2.15 5.57,-3.26 l 3.06,-16.91 c -0.24,-1.51 -3.21,-0.21 -3.81,-1.5 0.51,-1.39 3.49,-0.48 4.36,-1.48 l 3.11,-17.15 c -0.56,-1.3 -4.23,-1.94 -4.23,-3.57 h 37.08 m -10,12.29 v 0 m 45.87,14.75 v 0 M 369,67.91 v 0 m 37.33,-37.63 v 0 a 43.36,43.36 0 0 0 -25,7.55 7,7 0 0 0 -7,-6.22 h -37.01 a 7,7 0 0 0 -7,7 8.32,8.32 0 0 0 3.53,6.76 l -1.49,8.26 a 7.7,7.7 0 0 0 -4.85,4.76 7,7 0 0 0 0.22,5.36 7.77,7.77 0 0 0 2.27,2.88 l -1.37,7.54 c -2.41,1 -5.67,3 -6.3,7.31 a 7,7 0 0 0 6.93,8 h 37.49 a 7,7 0 0 0 6.91,-5.91 l 0.25,-1.55 A 26.27,26.27 0 0 0 394,91 a 32.71,32.71 0 0 0 10.95,-2 7,7 0 0 0 4,-3.7 l 7.55,-16.62 a 7,7 0 0 0 -6.26,-10.1 h -0.2 a 7,7 0 0 0 -3.9,1.3 c -2.24,1.56 -7,4 -10.17,4 h -0.42 a 3.55,3.55 0 0 1 -2.45,-1.39 6.9,6.9 0 0 1 -1.38,-5.07 12.29,12.29 0 0 1 3.28,-5.04 15.79,15.79 0 0 1 2.32,-2 l 3.05,4.23 a 7,7 0 0 0 5.63,2.87 6.88,6.88 0 0 0 2.89,-0.63 c 0,0 3,-1.35 5.05,-2.15 a 7,7 0 0 0 4.15,-8.62 84.2,84.2 0 0 0 -4.52,-11.84 7,7 0 0 0 -6.14,-4 z"
         fill="#ffffff"
         id="path51" />
      <path
         d="M 287.47,87.32 A 3.51,3.51 0 0 1 284,83.09 L 290,55 c 0.16,-1.07 0.18,-1.73 -2.57,-2.67 a 3.5,3.5 0 0 1 -1.52,-5.6 l 10.5,-12.1 a 3.47,3.47 0 0 1 2.62,-1.2 v 0 a 3.49,3.49 0 0 1 2.61,1.16 l 17.5,19.55 3.95,-18.39 a 3.49,3.49 0 0 1 5.25,-2.25 l 10.25,6.3 a 3.5,3.5 0 0 1 -0.05,6 l -6.86,4 -7.11,34.69 a 3.51,3.51 0 0 1 -6.05,1.62 l -19.28,-21.66 -1.52,7.73 4.22,3.48 a 3.5,3.5 0 0 1 -0.8,5.89 L 288.89,87 a 3.4,3.4 0 0 1 -1.42,0.32 z"
         id="path53" />
      <path
         d="m 326.5,36.47 10.25,6.3 -8.19,4.83 -7.43,36.21 -24,-27 -3.28,16.7 5.83,4.81 -12.25,5.46 5.95,-28.2 c 0.65,-4.26 -2.3,-5.73 -4.89,-6.61 L 299,36.92 l 22.09,24.67 5.39,-25.12 m 0,-7 A 7,7 0 0 0 319.66,35 L 317.15,46.66 304.24,32.25 A 7,7 0 0 0 299,29.92 v 0 a 7,7 0 0 0 -5.23,2.41 l -10.5,12.09 a 7,7 0 0 0 3,11.21 l -5.64,26.74 a 7,7 0 0 0 9.7,7.84 l 12.25,-5.46 a 7,7 0 0 0 4.08,-5.45 6.56,6.56 0 0 0 0.06,-1.17 l 9.19,10.33 a 7,7 0 0 0 5.23,2.35 6.62,6.62 0 0 0 1.81,-0.24 7,7 0 0 0 5.05,-5.35 l 6.8,-33.16 5.52,-3.26 a 7,7 0 0 0 0.1,-12 l -10.25,-6.3 a 6.93,6.93 0 0 0 -3.66,-1 z"
         fill="#ffffff"
         id="path55" />
      <text
         transform="translate(516.97,72.32)"
         font-size="2.08px"
         fill="#ff0000"
         font-family="ArialMT, Arial"
         style="isolation:isolate"
         id="text57">I don’t like bugs!</text>
      <path
         d="m 491.73,7.28 c 5.51,-0.72 10.3,3.62 8.62,9.24 a 13.84,13.84 0 0 1 -1.78,2.76 c 0,0 2.31,2.14 2.56,3.51 1.05,5.75 -3.28,9.13 -7.68,9.25 -4.66,0.13 -9.78,-3 -8.78,-8.93 a 6.35,6.35 0 0 1 0.95,-2 16.5,16.5 0 0 1 1.55,-1.79 16.68,16.68 0 0 1 -1.87,-3.85 c -0.59,-4.22 1.91,-7.61 6.43,-8.19 z m -1.1,6.9 c 0,3 4.55,3 4.55,0.15 0,-3.19 -4.55,-3.23 -4.55,-0.15 z M 493,27.34 c 3.56,0 3.57,-5.33 -0.06,-5.33 -3.63,0 -3.57,5.33 0.06,5.33 z M 474.09,7.28 c 5.52,-0.72 10.31,3.62 8.62,9.24 a 13.47,13.47 0 0 1 -1.77,2.76 c 0,0 2.31,2.14 2.56,3.51 1.05,5.75 -3.29,9.13 -7.68,9.25 -4.66,0.13 -9.79,-3 -8.78,-8.93 a 6.57,6.57 0 0 1 0.94,-2 16.34,16.34 0 0 1 1.56,-1.79 16.68,16.68 0 0 1 -1.87,-3.85 c -0.59,-4.22 1.9,-7.61 6.42,-8.19 z m -1.09,6.9 c 0,3 4.54,3 4.54,0.15 0,-3.19 -4.54,-3.23 -4.54,-0.15 z m 2.35,13.16 c 3.55,0 3.57,-5.33 -0.07,-5.33 -3.64,0 -3.55,5.33 0.07,5.33 z m 35.5,-20.06 a 8.45,8.45 0 0 1 6.58,2 c 4.09,3.91 4.75,16.73 -0.15,21 a 9.33,9.33 0 0 1 -9.41,1.09 c -3.06,-1.51 -4.86,-5.53 -5.17,-10.18 -0.49,-7.25 1.61,-13.25 8.15,-13.91 z m 0.94,20.06 c 4.9,-0.11 4.7,-16.46 -0.78,-15 -3.9,0.96 -3.83,15.1 0.78,15 z M 530.25,7.11 a 8.45,8.45 0 0 1 6.58,2 c 4.09,3.91 4.75,16.73 -0.15,21 a 9.33,9.33 0 0 1 -9.41,1.09 c -3.06,-1.51 -4.86,-5.53 -5.17,-10.18 -0.49,-7.25 1.61,-13.25 8.15,-13.91 z m 0.94,20.06 c 4.9,-0.11 4.7,-16.46 -0.78,-15.05 -3.9,1 -3.83,15.15 0.78,15.05 z M 452.7,7.47 v 4.86 c -13.31,-3.58 -13.22,18 -0.18,14.38 v 4.86 C 432.33,36.63 432.24,2.82 452.7,7.47 Z"
         id="path59" />
      <path
         d="M 427.76,22.05 V 17.2 c 2.36,0 3.76,-0.81 3.76,-2.52 0,-1.41 -0.23,-2.8 -5,-2.8 v 20.16 h -5.12 l 0.06,-25 h 4.94 c 9.49,0 10.6,3.84 10.6,7.52 0.05,5.26 -3.65,7.49 -9.24,7.49 z M 554.11,8.84 v 4.71 h -11 V 8.83 Z m 72,23 H 621 c -0.59,-2.48 -4,-6.95 -4,-6.95 l -5.71,5.9 c -1,1 -2.93,1.05 -4.87,1.05 h -1.63 v -4.4 h 1.1 a 4,4 0 0 0 3.12,-1 l 10,-10.51 c 1.06,-1.07 0.49,-2.58 -1.34,-2.58 H 604.8 V 8.84 h 13 c 6.27,0 8.12,6.7 5.83,9.13 l -3.25,3.4 c 0,0 5.46,7.99 5.77,10.49 z m -54.49,-23 v 11 h -5 v -11 z"
         id="path61" />
      <path
         d="m 584.2,8.83 v 14.3 a 8.17,8.17 0 0 1 -8.11,8.44 h -9.44 v -4.7 h 8.77 c 2.43,0 3.78,-1.29 3.78,-3.9 0,-2.61 0,-14.12 0,-14.12 z m -20.28,1.27 v 13 a 8.81,8.81 0 0 1 -8.54,8.5 h -12.24 v -5 h 12.2 c 2.08,0 3.64,-1.13 3.64,-3.41 v -13 z"
         id="path63" />
      <path
         d="m 554.11,20.76 h -11 v -4.68 h 11 z M 452.86,17.93 h 12.22 v 3.76 h -12.22 z m 153,0.16 v 4.55 h -19.62 v -4.55 z"
         id="path65" />
      <circle
         cx="627.84998"
         cy="10.78"
         r="2.04"
         fill="#060606"
         id="circle67" />
      <circle
         cx="633"
         cy="10.78"
         r="2.04"
         fill="#060606"
         id="circle69" />
      <path
         d="m 610.68,37 c 15.51,-2 29,10.19 24.26,26 -0.74,2.48 -5,7.77 -5,7.77 0,0 6.48,6 7.19,9.88 3,16.16 -9.24,25.68 -21.62,26 -13.11,0.37 -27.54,-8.51 -24.7,-25.15 0.38,-2.25 1.88,-4.4 2.64,-5.74 a 46.62,46.62 0 0 1 4.39,-5 c 0,0 -4.81,-7.64 -5.27,-10.86 C 590.93,48.17 598,38.64 610.68,37 Z m -3.09,19.42 c 0,8.49 12.8,8.38 12.8,0.43 0,-9 -12.8,-9.11 -12.8,-0.44 z m 6.62,37.05 c 10,0 10.06,-15 -0.18,-15 -10.24,0 -10.03,14.99 0.18,14.99 z M 559.32,37 c 15.51,-2 29,10.19 24.26,26 -0.74,2.48 -5,7.77 -5,7.77 0,0 6.49,6 7.2,9.88 3,16.16 -9.24,25.68 -21.62,26 -13.11,0.37 -27.54,-8.51 -24.71,-25.15 0.39,-2.25 1.89,-4.4 2.65,-5.74 a 46.78,46.78 0 0 1 4.38,-5 c 0,0 -4.81,-7.64 -5.26,-10.86 -1.65,-11.73 5.36,-21.26 18.1,-22.9 z m -3.09,19.42 c 0,8.49 12.79,8.38 12.79,0.43 -0.02,-9 -12.79,-9.11 -12.79,-0.44 z m 6.61,37.05 c 10,0 10.06,-15 -0.17,-15 -10.23,0 -9.99,14.99 0.17,14.99 z M 664.63,36.7 c 7.84,-0.8 14.7,2.07 18.54,5.74 11.49,11 13.36,47.07 -0.45,59.11 -5.66,5 -17.51,7.51 -26.47,3.09 -8.62,-4.25 -13.68,-15.58 -14.56,-28.68 -1.37,-20.5 4.54,-37.38 22.94,-39.26 z m 2.65,56.47 c 13.81,-0.3 13.24,-46.33 -2.2,-42.35 -10.97,2.82 -10.78,42.63 2.2,42.35 z M 513.78,37.72 v 13.66 c -37.48,-10.07 -37.23,50.53 -0.51,40.49 v 13.67 c -56.85,14.24 -57.1,-80.92 0.51,-67.82 z"
         id="path71" />
      <path
         d="M 439.22,78.85 V 65.21 c 6.63,0 10.59,-2.29 10.59,-7.1 0,-4 -0.65,-7.88 -14.05,-7.88 l 0.05,56.75 h -14.4 l 0.17,-70.49 h 13.9 c 26.69,0.09 29.84,10.8 29.84,21.17 0.04,14.91 -10.39,21.19 -26.1,21.19 z M 712.53,36.47 v 70.44 H 698.42 V 36.47 Z m -196.37,30 h 16.65 V 77 h -16.65 z"
         id="path73" />
      <path
         d="m 337.32,38.61 h 37.08 l -2.46,14.09 c 0,0 -1.09,-7.64 -5.65,-10.63 -1.14,-0.53 -4,-0.49 -11.31,-0.49 l -2.85,16.8 c 5.8,1.36 12.23,-7.48 12.23,-7.48 l -3.7,19.54 c 0,0 -2.27,-8.85 -9.37,-8.55 l -3.16,17.37 c 10.35,0 10.15,-0.07 12.65,-1.6 2.5,-1.53 8.05,-8.73 8.26,-9.75 l -2.29,14.57 h -37.49 c 0.28,-1.94 3.93,-2.15 5.57,-3.26 l 3.06,-16.91 c -0.24,-1.51 -3.21,-0.21 -3.81,-1.5 0.51,-1.39 3.49,-0.48 4.36,-1.48 l 3.11,-17.15 c -0.55,-1.3 -4.23,-1.94 -4.23,-3.57 z m 69.95,-1.32 a 80.47,80.47 0 0 1 4.14,10.88 c -2.27,0.88 -5.41,2.31 -5.41,2.31 l -6,-8.29 c -6.22,-0.49 -14.62,8.77 -15.25,14.56 -0.75,6.84 3.51,13.6 10.18,14.18 7,0.6 15.28,-5.28 15.28,-5.28 l -7.61,16.82 c -15.76,5.61 -27.41,-4.68 -28,-16.82 -0.92,-18.52 15.84,-28.73 32.67,-28.36 z"
         id="path75" />
      <path
         d="m 321.11,61.59 5.39,-25.12 10.25,6.3 -8.19,4.83 -7.43,36.21 -24,-27 -3.28,16.7 5.83,4.81 -12.25,5.46 5.95,-28.2 c 0.65,-4.26 -2.3,-5.73 -4.89,-6.61 L 299,36.92 Z"
         id="path77" />
    </g>
  </g>
  <metadata
     id="metadata901">
    <rdf:RDF>
      <cc:Work
         rdf:about="">
        <dc:title>logo_right</dc:title>
      </cc:Work>
    </rdf:RDF>
  </metadata>
</svg>
