<?xml version="1.0" encoding="UTF-8" standalone="no"?>
<svg
   viewBox="0 0 414.39999 114.00053"
   version="1.1"
   id="svg184"
   sodipodi:docname="pc98.svg"
   width="414.39999"
   height="114.00053"
   inkscape:version="1.1 (c68e22c387, 2021-05-23)"
   xmlns:inkscape="http://www.inkscape.org/namespaces/inkscape"
   xmlns:sodipodi="http://sodipodi.sourceforge.net/DTD/sodipodi-0.dtd"
   xmlns="http://www.w3.org/2000/svg"
   xmlns:svg="http://www.w3.org/2000/svg"
   xmlns:rdf="http://www.w3.org/1999/02/22-rdf-syntax-ns#"
   xmlns:cc="http://creativecommons.org/ns#"
   xmlns:dc="http://purl.org/dc/elements/1.1/">
  <defs
     id="defs188" />
  <sodipodi:namedview
     id="namedview186"
     pagecolor="#ffffff"
     bordercolor="#666666"
     borderopacity="1.0"
     inkscape:pageshadow="2"
     inkscape:pageopacity="0.0"
     inkscape:pagecheckerboard="0"
     showgrid="false"
     fit-margin-top="0"
     fit-margin-left="0"
     fit-margin-right="0"
     fit-margin-bottom="0"
     inkscape:zoom="1.113"
     inkscape:cx="207.09793"
     inkscape:cy="56.603774"
     inkscape:window-width="1920"
     inkscape:window-height="1138"
     inkscape:window-x="-8"
     inkscape:window-y="-8"
     inkscape:window-maximized="1"
     inkscape:current-layer="svg184" />
  <title
     id="title2">logo</title>
  <g
     id="g1099"
     transform="translate(-292.8,4.3073428e-4)">
    <g
       id="Layer_2"
       data-name="Layer 2">
      <rect
         x="515.23999"
         y="63.240002"
         width="17.23"
         height="33.43"
         fill="#ffffff"
         id="rect4" />
      <rect
         x="560.73999"
         y="63.240002"
         width="18.49"
         height="28.5"
         fill="#ffffff"
         id="rect6" />
      <rect
         x="310.35001"
         y="63.240002"
         width="13.85"
         height="7.5900002"
         fill="#ffffff"
         id="rect8" />
      <rect
         x="310.35001"
         y="63.240002"
         width="13.85"
         height="7.5900002"
         fill="#ffffff"
         id="rect10" />
      <rect
         x="357.35001"
         y="57"
         width="17.780001"
         height="38.459999"
         fill="#ffffff"
         id="rect12" />
      <rect
         x="433.35001"
         y="58.130001"
         width="14.11"
         height="15.32"
         fill="#ffffff"
         id="rect14" />
      <rect
         x="354.45999"
         y="53.34"
         width="26.780001"
         height="44.330002"
         fill="#ffffff"
         id="rect16" />
    </g>
    <g
       id="svg3336">
      <path
         d="m 388.11,17.94 a 7.57,7.57 0 0 1 -3.47,-0.85 7.32,7.32 0 0 1 -3.81,-7.66 7.54,7.54 0 0 1 7.43,-5.93 7.17,7.17 0 0 1 5.74,11.64 7.57,7.57 0 0 1 -5.85,2.8 z"
         id="path19" />
      <path
         d="m 388.26,7 a 3.64,3.64 0 0 1 3.74,2.89 3.82,3.82 0 0 1 -3.84,4.55 4.12,4.12 0 0 1 -1.86,-0.46 3.85,3.85 0 0 1 -2,-3.8 4,4 0 0 1 4,-3.18 m -0.3,4.69 h 0.18 c 0.54,-0.07 0.69,-0.3 0.69,-1 0,-0.7 -0.14,-0.92 -0.58,-0.92 a 1.14,1.14 0 0 0 -1,1.52 0.72,0.72 0 0 0 0.72,0.44 M 388.26,0 A 11,11 0 0 0 377.41,8.68 10.81,10.81 0 0 0 383,20.2 11,11 0 0 0 396.65,17.34 10.67,10.67 0 0 0 388.26,0 Z"
         fill="#ffffff"
         id="path21" />
      <path
         d="m 404.76,24.71 c -2.25,0 -5.79,-0.05 -11.14,-0.17 l -4.39,-0.09 a 3.5,3.5 0 0 1 -3.43,-3.64 l 0.18,-4.73 a 3.49,3.49 0 0 1 2.8,-3.29 l 1,-0.2 a 26.65,26.65 0 0 1 4.83,-0.17 c 1.57,0 3.45,0 5.4,0.06 l 8.5,0.14 a 3.5,3.5 0 0 1 3.44,3.5 v 2.39 c 0,1.91 0,4.8 -2.73,5.84 -0.76,0.28 -1.43,0.36 -4.46,0.36 z"
         id="path23" />
      <path
         d="m 394.57,15.92 c 1.55,0 3.41,0 5.33,0.05 l 8.51,0.15 v 2.39 c 0,1.89 -0.1,2.43 -0.48,2.57 a 17.35,17.35 0 0 1 -3.17,0.13 c -2.27,0 -5.85,-0.06 -11.06,-0.17 l -4.4,-0.04 0.09,-2.37 0.09,-2.36 1,-0.2 c 0.31,-0.06 1.91,-0.1 4.13,-0.1 m 0,-7 c -4.36,0 -4.9,0.11 -5.53,0.24 l -1,0.2 a 7,7 0 0 0 -5.6,6.59 l -0.08,2.37 -0.09,2.36 a 7,7 0 0 0 1.9,5.07 7,7 0 0 0 4.94,2.2 l 4.4,0.09 c 5.37,0.12 8.93,0.17 11.21,0.17 3,0 4.27,-0.05 5.67,-0.59 5,-1.91 5,-7 5,-9.11 v -2.44 a 7,7 0 0 0 -6.88,-7 L 400,9 c -1.91,0 -3.8,-0.06 -5.46,-0.06 z"
         fill="#ffffff"
         id="path25" />
      <path
         d="m 433.35,33.48 a 3.5,3.5 0 0 1 -3.5,-3.5 V 25 a 3.49,3.49 0 0 1 3.5,-3.5 h 1.85 a 8.49,8.49 0 0 0 1.36,-0.13 c 0,-0.51 0.06,-1.33 0.06,-2.45 v -0.28 h -0.52 c -4.9,0 -5.79,-0.47 -6.27,-0.73 -2.44,-1.31 -2.44,-3.74 -2.44,-5.51 v -0.23 a 5.53,5.53 0 0 1 1.34,-4.25 c 1.5,-1.5 3.2,-1.5 6.92,-1.5 h 1.78 a 3.5,3.5 0 0 1 3.16,-2 h 4.87 a 3.51,3.51 0 0 1 3.27,2.24 l 6.15,0.23 a 3.49,3.49 0 0 1 3.37,3.49 V 15 a 3.5,3.5 0 0 1 -3.5,3.5 h -5.4 c 0,0.32 0,0.67 0,1.05 -0.16,5.15 -0.73,7.49 -3.59,10.35 -2.65,2.65 -5,3.22 -9,3.43 l -3.15,0.18 z"
         id="path27" />
      <path
         d="m 445.45,7.88 0.37,1.12 0.36,1.08 4.28,0.15 4.28,0.15 V 15 h -4.2 a 26.65,26.65 0 0 0 -4.41,0.2 26.27,26.27 0 0 0 -0.32,4.25 c -0.15,4.68 -0.57,6 -2.57,8 -1.76,1.75 -3.05,2.22 -6.74,2.42 l -3.15,0.17 v -2.57 0 V 25 h 1.86 a 9.56,9.56 0 0 0 2.88,-0.43 c 1.79,-0.75 2,-1.41 2,-5.65 v -3.81 h -4 a 22,22 0 0 1 -4.62,-0.31 c -0.5,-0.27 -0.59,-0.66 -0.59,-2.43 0,-2.56 -0.18,-2.48 5.24,-2.48 H 440 l 0.3,-1 0.29,-1 h 4.87 m 0,-7 h -4.87 a 7,7 0 0 0 -4.9,2 v 0 c -4,0 -6.88,0 -9.39,2.52 a 8.86,8.86 0 0 0 -2.37,6.74 v 0.22 c 0,1.82 0,6 3.88,8.37 A 7,7 0 0 0 426.35,25 v 5 a 7,7 0 0 0 7,7 h 0.38 l 3.15,-0.17 c 4.7,-0.25 7.89,-1 11.31,-4.46 3.16,-3.16 4.15,-6.06 4.49,-10.38 h 2.06 a 7,7 0 0 0 7,-7 v -4.65 a 7,7 0 0 0 -6.75,-7 l -4.28,-0.16 h -0.06 a 7,7 0 0 0 -5.2,-2.31 z"
         fill="#ffffff"
         id="path29" />
      <path
         d="M 300.43,34 A 4,4 0 0 1 297,32.09 c -0.76,-1.22 -0.89,-1.44 0.76,-9.5 0.55,-2.65 1,-4.75 1.16,-5.93 l -1,-1 a 3.52,3.52 0 0 1 -0.3,-4.53 l 0.6,-0.8 c 0.75,-1 4.64,-6.07 7.42,-6.07 2,0 2,0 8.91,7.72 1.07,-4.87 1.61,-6.64 3.63,-7.41 a 3.89,3.89 0 0 1 1.45,-0.26 c 2.3,0 6.26,2.34 7.42,4 a 3.83,3.83 0 0 1 0.47,3.56 c -0.2,0.52 -0.67,1.73 -3.48,3.05 l -0.35,0.17 c -0.33,1.29 -0.9,3.72 -1.55,6.81 l -0.25,1.2 c -0.89,3.9 -1.29,5.81 -1.6,6.9 -0.67,2.44 -2,3.67 -4.07,3.67 h -0.17 c -1.92,0 -2.84,-0.68 -7,-5.3 -0.3,2.67 -2.87,3.75 -4.41,4.39 A 11.47,11.47 0 0 1 300.43,34 Z"
         id="path31" />
      <path
         d="m 305.58,7.73 c 0.44,0 0.54,0.11 6.31,6.56 a 37.48,37.48 0 0 0 4.5,4.59 v 0 c 0.11,-0.12 0.73,-2.63 1.36,-5.56 0.76,-3.49 1.31,-5.4 1.6,-5.51 a 0.56,0.56 0 0 1 0.2,0 c 1.17,0 4.86,2.19 4.62,2.82 a 4.56,4.56 0 0 1 -1.69,1.14 8.41,8.41 0 0 0 -1.85,1.09 c -0.17,0.21 -1.07,4 -2,8.34 -1.84,8.67 -1.89,9 -2.44,9 h -0.17 c -0.63,0 -1.69,-1.08 -7.37,-7.49 a 26.5,26.5 0 0 0 -4,-4 c 0,0 0,0 0,0 a 44.48,44.48 0 0 0 -1.54,6.69 c 0,0.22 0.55,0.77 1.23,1.22 1.86,1.24 1.66,1.8 -1.06,2.93 a 9.53,9.53 0 0 1 -2.87,0.93 0.52,0.52 0 0 1 -0.5,-0.23 61.36,61.36 0 0 1 1.21,-6.95 c 0.75,-3.68 1.37,-7 1.37,-7.3 a 3.72,3.72 0 0 0 -1.07,-1.71 l -1.07,-1.1 0.6,-0.81 c 1.13,-1.53 4.23,-4.65 4.61,-4.65 m 0,-7 c -3.21,0 -5.22,2 -7,3.83 a 38.2,38.2 0 0 0 -3.23,3.65 l -0.6,0.81 a 7,7 0 0 0 0.35,8.77 c -0.21,1.07 -0.48,2.46 -0.82,4.1 -1.6,7.79 -1.93,9.42 -0.31,12 a 7.51,7.51 0 0 0 6.46,3.55 14,14 0 0 0 5.59,-1.44 14.42,14.42 0 0 0 3.55,-2 9.21,9.21 0 0 0 6.45,3.2 h 0.25 c 1.72,0 5.89,-0.61 7.44,-6.24 0.34,-1.23 0.73,-3.08 1.59,-7.14 l 0.25,-1.2 c 0.46,-2.14 0.85,-3.89 1.15,-5.15 a 8.34,8.34 0 0 0 4.08,-4.36 7.37,7.37 0 0 0 -0.86,-6.79 C 328.17,3.81 323.2,0.78 319.6,0.78 v 0 A 7.52,7.52 0 0 0 316.89,1.27 7,7 0 0 0 312.91,5 c -0.46,-0.51 -0.83,-0.9 -1.13,-1.21 a 8.23,8.23 0 0 0 -6.2,-3 z"
         fill="#ffffff"
         id="path33" />
      <path
         d="m 353,33.93 a 11.63,11.63 0 0 1 -3.67,-0.4 14.19,14.19 0 0 1 -7,-5.44 C 339.8,24.29 339.42,19.93 341.2,15.15 343.36,9.3 351.78,4 358.86,4 h 0.7 l 1.78,0.1 a 3.49,3.49 0 0 1 3,2 l 1,2 c 1.35,2.81 2.89,6 -0.64,8.31 a 9.07,9.07 0 0 1 -3.43,1.21 8.44,8.44 0 0 1 -1.11,0.09 c -2.36,0 -3.47,-1.45 -4.57,-3.06 A 8.06,8.06 0 0 0 354,15.88 c -1.46,1.63 -1.23,2.37 -0.66,3.4 a 1.35,1.35 0 0 0 1.39,0.82 7.77,7.77 0 0 0 3.19,-0.91 c 1.92,-0.9 2.9,-1.28 4,-1.28 a 3.86,3.86 0 0 1 3.31,1.82 c 1.12,1.83 0.47,3.79 -1.42,7.51 -2.26,4.45 -3.31,5.14 -3.81,5.46 -1.63,1.07 -5.09,1.23 -7,1.23 z"
         id="path35" />
      <path
         d="m 358.86,7.47 h 0.52 l 1.78,0.09 1,2 c 1.45,3 1.49,3.27 0.59,3.86 a 5.63,5.63 0 0 1 -2,0.67 4.22,4.22 0 0 1 -0.64,0.06 c -0.62,0 -0.86,-0.33 -1.84,-1.78 -0.85,-1.25 -1.49,-1.88 -1.9,-1.88 -1.13,0 -3.57,1.49 -5,3 -2.21,2.47 -2.56,4.81 -1.11,7.43 a 4.8,4.8 0 0 0 4.45,2.63 11.24,11.24 0 0 0 4.68,-1.24 8.36,8.36 0 0 1 2.49,-0.95 0.34,0.34 0 0 1 0.33,0.17 c 0.38,0.6 -3.15,7.53 -4.17,8.2 -0.61,0.4 -3,0.65 -5.08,0.65 a 10.39,10.39 0 0 1 -2.64,-0.24 10.92,10.92 0 0 1 -5.12,-4 c -1.91,-2.88 -2.16,-6 -0.76,-9.78 1.68,-4.51 8.87,-8.9 14.4,-8.9 m 0,-7 c -8.5,0 -18.29,6.29 -21,13.46 -2.19,5.89 -1.69,11.31 1.5,16.1 a 17.78,17.78 0 0 0 8.87,6.85 15.35,15.35 0 0 0 4.71,0.55 c 6.17,0 8.24,-1.35 8.92,-1.8 1.12,-0.73 2.53,-1.93 5,-6.81 1.61,-3.16 3.61,-7.1 1.3,-10.89 a 7.81,7.81 0 0 0 2,-6.59 17,17 0 0 0 -1.8,-4.81 l -1,-2 a 7,7 0 0 0 -5.82,-3.94 l -1.78,-0.09 c -0.29,0 -0.58,0 -0.88,0 z"
         fill="#ffffff"
         id="path37" />
      <path
         d="m 365.23,33.69 a 4.75,4.75 0 0 1 -3.42,-1.22 c -1.84,-1.84 -1.29,-7.35 -0.43,-8.68 a 6.18,6.18 0 0 1 2.93,-2.14 l 0.19,-0.14 c 0.08,-0.89 0.08,-3.37 0.08,-5.77 0,-7.7 0.34,-8.33 0.74,-9.07 1.3,-2.44 3.76,-2.44 5.23,-2.44 3,0 4,0.61 4.32,0.83 2.07,1.31 2.13,2.77 2.13,10.88 v 7.63 a 3.46,3.46 0 0 1 -0.36,1.55 l -0.86,1.77 A 12.41,12.41 0 0 1 369,33 a 11.63,11.63 0 0 1 -3.77,0.69 z"
         id="path39" />
      <path
         d="m 370.55,7.73 h 0.08 A 7,7 0 0 1 373,8 c 0.37,0.24 0.45,1.57 0.46,7.92 v 7.64 l -0.87,1.77 a 8.86,8.86 0 0 1 -4.81,4.38 8.34,8.34 0 0 1 -2.56,0.47 1.45,1.45 0 0 1 -0.94,-0.21 v 0 a 10.93,10.93 0 0 1 0,-4.3 4,4 0 0 1 1.33,-0.81 4.77,4.77 0 0 0 1.77,-1.39 c 0.63,-0.88 0.66,-1.26 0.66,-7.75 a 45,45 0 0 1 0.32,-7.42 c 0.26,-0.48 0.64,-0.59 2.15,-0.59 m 0,-7 c -1.66,0 -6,0 -8.31,4.29 -0.77,1.45 -1.15,2.51 -1.15,10.72 0,1.2 0,2.57 0,3.65 a 8.14,8.14 0 0 0 -2.63,2.51 c -1,1.48 -1.33,3.1 -1.35,6 0,2.44 0.14,5 2.25,7.09 a 8,8 0 0 0 5.89,2.26 15.28,15.28 0 0 0 4.89,-0.87 16,16 0 0 0 8.77,-7.9 l 0.86,-1.76 a 7,7 0 0 0 0.72,-3.1 v -7.67 c 0,-3.62 0,-5.42 -0.11,-6.65 -0.09,-1.52 -0.29,-5.08 -3.61,-7.18 -0.65,-0.4 -2.16,-1.36 -6.09,-1.37 h -0.11 z"
         fill="#ffffff"
         id="path41" />
      <path
         d="M 386.31,33.7 A 11.32,11.32 0 0 1 381.83,32.64 13,13 0 0 1 378,29.71 c -2.85,-3.33 -3,-5.55 -3.15,-13.5 -0.14,-7.38 0.05,-8.42 0.64,-9.5 a 4.72,4.72 0 0 1 4.61,-2.45 h 1.32 l 2.37,0.09 a 3.5,3.5 0 0 1 3.37,3.43 l 0.17,7.9 a 48.44,48.44 0 0 0 0.28,5.74 c 0.27,0.15 0.72,0.35 1.11,0.53 l 0.25,0.12 c 3.65,1.68 2.42,8.18 2.41,8.24 -0.85,3.36 -4,3.36 -5,3.36 z"
         id="path43" />
      <path
         d="m 380.07,7.76 h 1.19 l 2.37,0.09 0.15,7.29 c 0.19,8.7 0.09,8.45 3.7,10.11 0.49,0.23 0.8,2.92 0.47,4.21 -0.15,0.61 -0.36,0.71 -1.58,0.71 h -0.05 a 7.94,7.94 0 0 1 -3,-0.73 v 0 a 9.53,9.53 0 0 1 -2.68,-2 c -2,-2.28 -2.16,-3.28 -2.31,-11.28 -0.09,-5 0,-7.32 0.22,-7.79 0.22,-0.47 0.45,-0.6 1.53,-0.6 m 0,-7 c -3.58,0 -6.18,1.45 -7.7,4.3 -1,1.93 -1.19,3.61 -1.05,11.22 0.14,7.61 0.21,11.29 4,15.71 a 16.37,16.37 0 0 0 5,3.82 14.76,14.76 0 0 0 5.95,1.39 h 0.07 c 6.2,0 7.92,-4.2 8.37,-6 0,-0.09 1.93,-8.86 -3.85,-12 0,-1 -0.07,-2.22 -0.09,-3.52 V 15.07 L 390.63,7.78 A 7,7 0 0 0 383.9,0.89 L 381.53,0.8 c -0.6,0 -1.08,0 -1.46,0 z"
         fill="#ffffff"
         id="path45" />
      <path
         d="m 548,33.68 c -7.76,0 -8.14,-0.18 -8.77,-0.44 A 3.84,3.84 0 0 1 537,30.77 c -0.27,-0.84 -0.85,-4.66 0.42,-6.67 a 3.72,3.72 0 0 1 1.81,-1.48 5.55,5.55 0 0 1 -1,-4 c 0.27,-3.85 2,-5.49 5.83,-5.49 h 0.37 c 3.71,0 6.72,0.26 8.85,2.64 1.69,1.89 1.76,3.22 1.76,6.05 v 0.29 a 4.51,4.51 0 0 1 3.58,2.37 c 0.87,1.63 1.29,5.82 -0.66,7.77 -1.27,1.27 -2.6,1.38 -8.82,1.38 z"
         id="path47" />
      <path
         d="m 544.08,16.67 h 0.34 c 3.82,0 5.3,0.39 6.27,1.47 0.82,0.92 0.87,1.14 0.87,3.72 0,3.67 0,3.71 2,3.71 1.32,0 1.72,0.12 2,0.6 0.44,0.81 0.41,3.2 0,3.65 -0.24,0.25 -2,0.35 -6.34,0.35 H 548 c -3.91,0 -7.27,-0.1 -7.48,-0.18 v 0 c -0.43,-0.18 -0.54,-3.39 -0.14,-4 0.15,-0.23 1.26,-0.41 3,-0.46 l 2.76,-0.09 0.1,-1.61 c 0.13,-2.39 -0.23,-2.86 -2.22,-2.86 -1.99,0 -2.42,-0.41 -2.31,-2.06 0.14,-2 0.34,-2.23 2.34,-2.23 m 0,-7 c -5.62,0 -8.93,3.11 -9.32,8.75 a 10.42,10.42 0 0 0 0.22,3.15 c -0.16,0.2 -0.32,0.42 -0.47,0.65 -2.14,3.38 -1.18,8.45 -0.8,9.62 a 7.28,7.28 0 0 0 4.23,4.65 c 1.25,0.5 1.63,0.66 10.07,0.69 h 1.15 c 6.29,0 8.89,0 11.29,-2.4 3.21,-3.21 2.79,-9.08 1.27,-11.91 a 7.58,7.58 0 0 0 -3.21,-3.24 9.39,9.39 0 0 0 -2.6,-6.14 c -3.07,-3.44 -7.15,-3.77 -11.42,-3.81 z"
         fill="#ffffff"
         id="path49" />
      <path
         d="m 482.39,33.66 c -5.56,0 -6.41,0 -7.58,-1.18 -2.27,-2.26 -0.83,-8.15 -0.81,-8.2 a 3.65,3.65 0 0 1 3.06,-2.53 c 0.5,-0.05 5.05,-0.19 7,-0.25 l 2.91,-0.09 v -4.88 l -9.81,-0.22 A 3.51,3.51 0 0 1 473.72,13 l -0.09,-2.13 c -0.12,-2.71 0.19,-4 1.18,-5 0.99,-1 1.25,-1.26 10.72,-1.32 h 3.26 c 5.65,0 7.71,0.17 9.74,3.43 1.12,1.8 1.16,3.3 1.33,10.55 0.22,8.93 0.28,11.33 -3.18,13.69 -2,1.36 -2.52,1.37 -11.09,1.47 z"
         id="path51" />
      <path
         d="m 488.79,8 c 5.6,0 5.81,0.23 6.77,1.79 0.56,0.88 0.63,1.72 0.8,8.78 0.22,8.84 0.11,9.5 -1.65,10.71 -1.12,0.76 -1.17,0.77 -9.17,0.86 h -3.14 a 41.88,41.88 0 0 1 -5.11,-0.15 v 0 c -0.41,-0.4 -0.27,-4.73 0.16,-4.78 0.21,0 3.22,-0.13 6.69,-0.23 l 6.31,-0.19 V 13.11 l -6.61,-0.11 -6.62,-0.15 -0.1,-2.13 a 6.58,6.58 0 0 1 0.16,-2.37 76.13,76.13 0 0 1 8.27,-0.3 h 3.24 m 0,-7 h -3.28 c -9.24,0.06 -10.9,0.07 -13.18,2.35 -2.28,2.28 -2.33,5.07 -2.2,7.6 l 0.09,2.13 a 7,7 0 0 0 3.88,6 7.27,7.27 0 0 0 -3.4,4 c 0,0.07 -2.34,7.87 1.64,11.84 2.19,2.2 4,2.2 10.06,2.2 h 3.23 c 9,-0.11 10.14,-0.12 13,-2.08 5,-3.43 4.94,-7.3 4.71,-16.66 C 503.15,10.58 503.11,8.72 501.49,6.11 498.34,1 494.33,1 488.79,1 Z"
         fill="#ffffff"
         id="path53" />
      <path
         d="m 501.77,33.67 c -4.41,0 -5.46,0 -6.63,-1.17 -1,-1 -1.26,-2.15 -1.26,-4.93 V 25.36 A 3.5,3.5 0 0 1 497,21.88 l 1.89,-0.2 c 1.3,-0.13 4.42,-0.21 6.67,-0.21 h 3 l 0.12,-5 c 0.16,-6.89 0.2,-8.53 2.24,-9.82 0.47,-0.29 1.32,-0.83 4.46,-0.83 2.08,0 4,0.14 5.15,1.93 0.54,0.88 0.69,1.12 0.75,9 0,6.43 0,7.7 -0.88,9.73 a 11.78,11.78 0 0 1 -5.94,6.09 c -2.21,1 -3.34,1 -9.77,1.14 z"
         id="path55" />
      <path
         d="m 515.36,9.28 a 4.92,4.92 0 0 1 2.17,0.27 c 0.1,0.15 0.2,3.38 0.23,7.16 0,6.31 0,7 -0.58,8.27 A 8.26,8.26 0 0 1 513,29.31 c -1.52,0.68 -2.06,0.73 -8.4,0.83 h -2.84 a 28.08,28.08 0 0 1 -4.16,-0.15 v 0 a 7.81,7.81 0 0 1 -0.23,-2.44 v -2.19 l 1.89,-0.2 c 1,-0.11 3.88,-0.19 6.31,-0.19 H 510 l 1,-0.9 1,-0.9 0.16,-6.66 c 0.12,-5.46 0.23,-6.7 0.61,-6.94 a 7.54,7.54 0 0 1 2.59,-0.29 m 0,-7 c -3,0 -4.78,0.39 -6.32,1.37 -3.22,2 -3.53,5.5 -3.64,6.81 -0.1,1.14 -0.17,2.74 -0.24,5.89 v 1.62 c -2.31,0 -5.19,0.09 -6.57,0.23 l -1.9,0.2 a 7,7 0 0 0 -6.27,7 v 2.22 c 0,2.58 0.18,5.28 2.28,7.39 2.1,2.11 4.37,2.2 9.11,2.2 h 3 c 6.48,-0.1 8.22,-0.13 11.15,-1.45 a 15.18,15.18 0 0 0 7.7,-7.85 c 1.25,-2.79 1.23,-4.57 1.19,-11.19 -0.07,-8.09 -0.17,-9 -1.28,-10.78 -2.22,-3.59 -6.2,-3.59 -8.12,-3.59 z"
         fill="#ffffff"
         id="path57" />
      <path
         d="m 501,16.72 c -2.77,0 -4.54,-0.07 -5.86,-1.38 -1.32,-1.31 -1.44,-3.21 -1.42,-4.91 0,-2 0.08,-4.63 3.63,-5.55 0.31,-0.08 1.13,-0.29 5,-0.29 H 504 l 4.7,0.09 a 3.5,3.5 0 0 1 3.44,3.5 v 4.92 a 3.51,3.51 0 0 1 -3.45,3.5 l -5.28,0.09 z"
         id="path59" />
      <path
         d="m 502.38,8.09 h 1.54 l 4.7,0.09 v 4.92 l -5.28,0.09 h -2.32 c -2.32,0 -3.13,-0.1 -3.39,-0.36 a 4.06,4.06 0 0 1 -0.39,-2.38 c 0,-1.93 0.05,-2 1,-2.21 a 29.53,29.53 0 0 1 4.13,-0.18 m 0,-7 c -4.32,0 -5.34,0.26 -5.89,0.4 -6.13,1.59 -6.22,6.89 -6.25,8.88 0,2.29 0.21,5.21 2.44,7.44 2.41,2.41 5.43,2.41 8.34,2.41 h 2.43 l 5.28,-0.09 a 7,7 0 0 0 6.89,-7 V 8.19 a 7,7 0 0 0 -6.88,-7 L 504.04,1.1 Z"
         fill="#ffffff"
         id="path61" />
      <path
         d="m 531.09,33.68 c -6.1,0 -7.82,-0.14 -9.19,-0.74 a 10,10 0 0 1 -5.22,-4.6 c -1.07,-2.05 -1.08,-2.92 -1.09,-11.31 0,-9.13 0,-10.31 2,-11.64 0.6,-0.38 1.45,-0.79 4.08,-0.79 h 0.71 l 2.31,0.08 A 3.49,3.49 0 0 1 528.12,8 l 0.06,1.15 h 9.25 a 3.5,3.5 0 0 1 3.49,3.64 l -0.18,4.47 a 3.48,3.48 0 0 1 -3.39,3.35 l -6.16,0.18 -2.86,0.09 c 0,0 0,0.67 0,0.77 0.79,0.05 1.86,0.08 2.91,0.1 l 7.31,0.18 a 3.5,3.5 0 0 1 3.45,3.35 l 0.09,2.12 c 0.06,1.56 0.18,4.16 -1.94,5.49 -0.82,0.53 -1.24,0.79 -8.85,0.79 z"
         id="path63" />
      <path
         d="m 521.71,8.1 h 0.61 l 2.31,0.08 0.08,1.54 c 0.14,2.73 -0.3,2.93 3.9,2.93 h 8.82 l -0.09,2.23 -0.09,2.24 -6.16,0.17 c -3.39,0.1 -6.2,0.2 -6.26,0.23 a 25.18,25.18 0 0 0 0,3.28 c 0.15,4.53 -0.26,4.28 7.42,4.47 l 6.23,0.16 0.09,2.13 c 0.07,1.49 0,2.2 -0.31,2.38 a 56.58,56.58 0 0 1 -7,0.24 h -0.2 c -5.21,0 -7,-0.11 -7.79,-0.45 a 6.63,6.63 0 0 1 -3.52,-3 c -0.65,-1.23 -0.68,-1.64 -0.69,-9.68 0,-7.14 0.06,-8.45 0.46,-8.7 a 6.43,6.43 0 0 1 2.16,-0.23 m 0,-7 c -2.75,0 -4.48,0.39 -6,1.35 -3.3,2.13 -3.49,5.74 -3.57,7.28 -0.07,1.31 -0.09,3.22 -0.09,7.31 0,8.77 0,10.12 1.5,12.93 a 13.47,13.47 0 0 0 6.92,6.18 c 2.06,0.9 4.1,1 10.57,1 h 0.21 c 7.87,0 9,-0.23 10.72,-1.33 3.82,-2.43 3.63,-6.75 3.55,-8.6 l -0.09,-2.13 a 7,7 0 0 0 -2.07,-4.67 6.85,6.85 0 0 0 0.84,-3.05 l 0.09,-2.23 0.09,-2.23 a 7,7 0 0 0 -7,-7.29 h -6.28 a 7,7 0 0 0 -6.29,-4.46 l -2.3,-0.08 z"
         fill="#ffffff"
         id="path65" />
      <path
         d="m 604.1,54 c -0.84,0 -5.09,0 -6.78,-0.19 L 596.2,53.7 a 3.51,3.51 0 0 1 -3.14,-3.55 l 0.05,-2.74 c 0,-2.31 0.09,-5.17 2.68,-6.09 0.61,-0.22 0.81,-0.3 6.26,-0.3 h 7.56 a 3.52,3.52 0 0 1 2.51,1.09 3.46,3.46 0 0 1 1,2.55 L 613,47.43 c -0.14,3.5 -0.34,4 -0.74,4.65 -1.14,1.92 -2.35,1.92 -8.1,1.92 z"
         id="path67" />
      <path
         d="m 602,44.49 h 1.41 6.16 l -0.11,2.77 a 19.74,19.74 0 0 1 -0.25,3 38.84,38.84 0 0 1 -5.14,0.17 c -2.56,0 -5.34,-0.05 -6.4,-0.17 l -1.13,-0.11 0.05,-2.75 a 7.55,7.55 0 0 1 0.36,-2.86 c 0.14,0 2.3,-0.08 5,-0.08 m 0,-7 c -5.85,0 -6.21,0.07 -7.4,0.49 -4.87,1.73 -5,6.86 -5,9.32 v 2.75 a 7,7 0 0 0 6.26,7.09 l 1.12,0.12 c 1.76,0.18 5.58,0.2 7.14,0.2 1.56,0 2.77,0 3.75,-0.05 2,-0.06 5.39,-0.16 7.4,-3.54 0.91,-1.52 1.09,-2.84 1.23,-6.3 l 0.12,-2.77 a 7,7 0 0 0 -7,-7.29 h -6.16 z"
         fill="#ffffff"
         id="path69" />
      <path
         d="m 541.37,18.24 a 7.64,7.64 0 0 1 -3.16,-0.68 6.77,6.77 0 0 1 -3.87,-7.32 7.3,7.3 0 0 1 6.43,-6.24 7.69,7.69 0 0 1 1,-0.06 7.1,7.1 0 0 1 5.44,2.38 7,7 0 0 1 1.57,5.68 7.4,7.4 0 0 1 -7.41,6.26 z"
         id="path71" />
      <path
         d="m 541.72,7.47 a 3.44,3.44 0 0 1 3.59,4.05 3.9,3.9 0 0 1 -3.95,3.22 4,4 0 0 1 -1.71,-0.37 c -3.21,-1.45 -2.11,-6.46 1.51,-6.87 h 0.56 m -0.09,4.5 a 0.9,0.9 0 0 0 0.94,-0.74 1.28,1.28 0 0 0 -0.38,-1 1,1 0 0 0 -0.64,-0.24 1,1 0 0 0 -0.75,1.63 1.06,1.06 0 0 0 0.83,0.39 m 0.09,-11.57 a 11.9,11.9 0 0 0 -1.34,0.08 10.9,10.9 0 0 0 -9.5,9.14 10.24,10.24 0 0 0 5.89,11.06 11,11 0 0 0 4.59,1 10.91,10.91 0 0 0 10.89,-9.29 A 10.63,10.63 0 0 0 549.8,4 10.7,10.7 0 0 0 541.72,0.47 Z"
         fill="#ffffff"
         id="path73" />
      <path
         d="m 552.81,25.08 a 3.5,3.5 0 0 1 -3.4,-2.65 l -0.2,-0.78 c 0,0 -0.85,-5.3 1.24,-7.4 1.12,-1.12 1.39,-1.39 16.14,-1.39 4.52,0 4.94,0.11 5.39,0.22 3.4,0.86 3.4,3.74 3.4,5.85 v 2.26 a 3.51,3.51 0 0 1 -2.81,3.44 l -1,0.19 c -1.18,0.23 -7.54,0.26 -10.22,0.26 z"
         id="path75" />
      <path
         d="m 566.6,16.36 a 45,45 0 0 1 4.53,0.12 c 0.71,0.18 0.75,0.31 0.75,2.45 v 2.26 l -1,0.2 c -0.53,0.1 -4.82,0.19 -9.54,0.19 h -8.54 l -0.19,-0.79 a 9.23,9.23 0 0 1 0.32,-4.07 c 0.19,-0.19 8.32,-0.36 13.67,-0.36 m 0,-7 c -2.71,0 -6.14,0.05 -8.94,0.11 -5.81,0.15 -7.57,0.19 -9.68,2.31 -3.59,3.59 -2.18,10.65 -2.16,10.72 l 0.2,0.78 a 7,7 0 0 0 6.78,5.3 h 8.58 c 9.27,0 10.42,-0.23 10.91,-0.33 l 1,-0.19 a 7,7 0 0 0 5.63,-6.87 v -2.26 c 0,-2.11 0,-7.72 -6,-9.24 -0.84,-0.21 -1.51,-0.33 -6.23,-0.33 z"
         fill="#ffffff"
         id="path77" />
      <path
         d="m 468.66,33.38 c -2,0 -3.61,-0.13 -5.25,-1.89 l -0.75,-0.79 a 3.53,3.53 0 0 1 -1,-2.37 l -0.09,-10 C 461.47,6.48 461.46,6.25 464,4.89 c 0.63,-0.34 1.55,-0.65 3.95,-0.65 2.65,0 3.93,0.34 4.89,1.3 1.13,1.13 1.17,1.39 1.24,9.21 0,2.39 0.07,4.52 0.12,5.95 l 1.8,-0.2 a 3.87,3.87 0 0 1 0.48,0 3.5,3.5 0 0 1 3.52,3.5 v 2.31 c 0,2 -0.13,4.06 -1.69,5.35 -2,1.64 -8.15,1.75 -9.36,1.75 z"
         id="path79" />
      <path
         d="m 468,7.78 a 6.45,6.45 0 0 1 2.42,0.28 c 0.08,0.08 0.17,3.12 0.21,6.76 0.04,3.64 0.14,7.3 0.24,8.14 0.14,1.14 0.19,1.54 1.21,1.54 a 23.47,23.47 0 0 0 2.6,-0.28 l 1.77,-0.25 v 2.31 c 0,1.57 -0.14,2.42 -0.42,2.65 -0.53,0.44 -4.28,0.94 -7.15,0.95 h -0.23 c -1.74,0 -2,-0.1 -2.69,-0.78 v 0 l -0.75,-0.8 -0.09,-10 c -0.09,-10 -0.09,-10 0.58,-10.32 A 7.36,7.36 0 0 1 468,7.74 m 0,-7 a 11.23,11.23 0 0 0 -5.6,1.07 8.28,8.28 0 0 0 -4.26,7.34 c -0.09,1.52 -0.07,3.93 0,9.21 l 0.09,10 a 7,7 0 0 0 1.9,4.73 l 0.75,0.79 c 2.59,2.76 5.27,3 7.79,3 h 0.26 c 5.67,0 9.57,-0.88 11.59,-2.56 2.95,-2.45 2.95,-6.09 2.95,-8 V 24 a 7,7 0 0 0 -5.79,-6.89 c 0,-0.73 0,-1.5 0,-2.32 0,-1.81 -0.05,-3.54 -0.09,-4.87 C 477.5,7.26 477.44,5.16 475.42,3.14 473.4,1.12 470.44,0.78 468,0.78 Z"
         fill="#ffffff"
         id="path81" />
      <path
         d="m 626.27,61.09 c -3.47,0 -4.45,-0.59 -4.82,-0.8 -2.32,-1.35 -2.27,-2.92 -2.07,-9.51 0.2,-6.59 0.38,-8 2.07,-9.09 0.87,-0.59 1.82,-0.77 4.06,-0.77 h 1 l 2.61,0.08 a 3.5,3.5 0 0 1 3.4,3.46 l 0.06,5.85 a 58.69,58.69 0 0 1 -0.16,7.29 c -0.73,3.47 -3.82,3.47 -5.67,3.47 z"
         id="path83" />
      <path
         d="m 625.52,44.42 h 0.85 l 2.62,0.07 0.06,5.85 c 0,3.22 0,6.16 -0.08,6.55 -0.13,0.6 -0.28,0.68 -2.25,0.68 h -0.43 a 10.83,10.83 0 0 1 -3.07,-0.32 c -0.48,-0.28 -0.51,-0.84 -0.34,-6.38 0.12,-4 0.3,-6.15 0.53,-6.3 a 7.7,7.7 0 0 1 2.11,-0.17 m 0,-7 c -2.59,0 -4.32,0.22 -6,1.36 -3.33,2.24 -3.42,5.26 -3.62,11.9 -0.1,3.14 -0.13,4.63 -0.07,5.75 a 7.92,7.92 0 0 0 3.89,6.89 c 0.7,0.4 2.15,1.25 6.56,1.27 h 0.46 a 12.37,12.37 0 0 0 3.93,-0.44 7.57,7.57 0 0 0 5.17,-5.81 c 0.12,-0.58 0.3,-1.44 0.23,-8.05 L 636,44.44 a 7,7 0 0 0 -6.79,-6.92 l -2.62,-0.08 h -1.06 z"
         fill="#ffffff"
         id="path85" />
      <path
         d="m 644.84,63.88 a 3.51,3.51 0 0 1 -3.5,-3.38 v -0.7 c -0.21,-6 0.69,-6.89 1.28,-7.49 1.2,-1.21 1.23,-1.24 13.68,-1.38 3,0 5.18,-0.06 6.79,-0.06 4.27,0 6.4,0 7.62,2.28 0.21,0.38 0.7,1.29 0.63,4.67 l -0.05,2.46 a 3.48,3.48 0 0 1 -3.47,3.43 z"
         id="path87" />
      <path
         d="m 663.08,54.37 c 3.74,0 4.36,0.12 4.52,0.43 a 10.47,10.47 0 0 1 0.22,3 l -0.05,2.46 -11.46,0.09 -11.47,0.08 v -0.7 a 21.87,21.87 0 0 1 0.27,-4.91 c 0.12,-0.12 5.17,-0.27 11.23,-0.34 3,0 5.15,-0.06 6.76,-0.06 m 0,-7 c -1.7,0 -4,0 -6.84,0.06 -2.84,0.06 -5.81,0.09 -8,0.16 -4.19,0.12 -6.1,0.18 -8.15,2.26 -1.4,1.41 -2.54,3.14 -2.3,10.07 v 0.7 a 7,7 0 0 0 7,6.76 v 0 l 11.47,-0.08 11.46,-0.09 a 7,7 0 0 0 6.95,-6.86 l 0.05,-2.46 c 0.08,-4.29 -0.65,-5.66 -1,-6.4 -2.21,-4.12 -6.14,-4.12 -10.7,-4.12 z"
         fill="#ffffff"
         id="path89" />
      <path
         d="m 578.54,33.93 c -1.54,0 -3.85,0 -5.12,-2.37 -0.46,-0.86 -1.93,-6.53 1.16,-8.45 a 3.25,3.25 0 0 1 1.38,-0.5 h -0.31 c -5.25,0 -6.35,-2.48 -6.35,-4.55 0,-1.75 2.26,-9.49 3.18,-10.9 a 6.57,6.57 0 0 1 2.91,-2.39 c 0.42,-0.16 1.29,-0.49 8.34,-0.58 1,0 1.95,0 2.74,0 4.74,0 6.87,0.28 9,3.11 1.32,1.78 1.33,2.9 1.43,10.19 0.1,8 0.13,10.67 -3.36,13.66 -2.64,2.25 -4.91,2.51 -11.27,2.71 -1.71,0 -2.88,0.09 -3.7,0.09 z"
         id="path91" />
      <path
         d="m 586.47,7.67 c 4.52,0 5.12,0.29 6.16,1.69 0.6,0.82 0.65,1.33 0.74,8.15 0.11,8.34 -0.06,9.18 -2.13,11 -1.66,1.41 -2.94,1.68 -9.11,1.87 -1.65,0.05 -2.79,0.09 -3.59,0.09 -1.63,0 -1.83,-0.14 -2,-0.52 v 0 c -0.37,-0.69 -0.43,-3.61 -0.09,-3.82 0.13,-0.08 2.51,-0.25 5.3,-0.37 4.71,-0.21 5.1,-0.28 5.77,-0.94 0.67,-0.66 1,-3 0.36,-3.38 a 15.91,15.91 0 0 0 -3.12,-0.17 h -2.08 c -3,0 -3.14,-0.31 -3,-2.49 l 0.09,-1.64 3.89,-0.19 a 27,27 0 0 0 4.23,-0.41 c 0.43,-0.26 0.45,-2.78 0,-3.58 -0.29,-0.54 -0.68,-0.6 -4.31,-0.6 h -0.49 c -4.12,0 -4.06,0.07 -4.88,3.39 -0.82,3.32 -0.86,3.38 -2.43,3.38 h -0.11 c -2.16,0 -2.86,-0.26 -2.86,-1.05 a 49.79,49.79 0 0 1 2.61,-9 3.14,3.14 0 0 1 1.22,-1 57.86,57.86 0 0 1 7.14,-0.35 c 1,0 1.93,0 2.7,0 m 0,-7 c -0.8,0 -1.72,0 -2.78,0 -7.67,0.09 -8.67,0.47 -9.55,0.81 a 9.9,9.9 0 0 0 -4.58,3.74 c -1.4,2.14 -3.76,10.56 -3.76,12.82 a 7.77,7.77 0 0 0 3.7,6.65 12.46,12.46 0 0 0 -0.3,3.27 10.94,10.94 0 0 0 1.14,5.24 c 2.25,4.21 6.57,4.21 8.2,4.21 0.86,0 2,0 3.81,-0.09 6.33,-0.2 9.81,-0.45 13.44,-3.56 4.74,-4.05 4.69,-7.91 4.58,-16.36 C 600.28,9.75 600.26,7.92 598.27,5.24 595.13,1 591.56,0.67 586.47,0.67 Z"
         fill="#ffffff"
         id="path93" />
      <path
         d="M 603.64,62.26 A 64.77,64.77 0 0 1 597,62 l -1.23,-0.19 a 3.5,3.5 0 0 1 -2.95,-3.6 l 0.1,-2.62 c 0.12,-3.14 0.39,-4.2 1.3,-5.13 0.91,-0.93 1.43,-1.25 8.82,-1.35 l 6.2,-0.08 a 3.5,3.5 0 0 1 3.5,3.39 l 0.09,2.89 c 0.08,2.41 0.15,4.9 -2,6.2 -0.81,0.5 -1.18,0.73 -7.28,0.73 z"
         id="path95" />
      <path
         d="m 609.28,52.55 0.09,2.88 c 0.06,2 0,3 -0.28,3.12 a 37.71,37.71 0 0 1 -5.45,0.21 c -2.55,0 -5.2,-0.07 -6,-0.2 l -1.24,-0.19 0.11,-2.62 a 12,12 0 0 1 0.3,-2.83 55.44,55.44 0 0 1 6.37,-0.29 l 6.15,-0.08 m 0,-7 h -0.1 l -6.16,0.08 c -7.12,0.1 -9,0.12 -11.27,2.4 -1.94,2 -2.18,4.34 -2.3,7.45 l -0.1,2.61 a 7,7 0 0 0 5.91,7.19 l 1.23,0.2 a 63.37,63.37 0 0 0 7.14,0.28 c 6.1,0 7.38,-0.18 9.13,-1.26 3.81,-2.36 3.68,-6.52 3.6,-9.28 l -0.09,-2.88 a 7,7 0 0 0 -7,-6.79 z"
         fill="#ffffff"
         id="path97" />
      <path
         d="m 602.93,74.31 c -6,0 -6.63,-0.2 -7.18,-0.39 C 593,73 593,70 593,67.76 c 0,-2.39 0,-5.11 2.73,-6.16 0.57,-0.22 1.1,-0.42 8.42,-0.42 h 2 a 29.49,29.49 0 0 0 4.14,-0.18 41.18,41.18 0 0 0 0.4,-6.09 v -1.17 c 0.24,-8.25 0.34,-9.65 2.17,-10.85 0.75,-0.49 1.58,-0.74 4,-0.74 h 1 l 2.61,0.08 a 3.5,3.5 0 0 1 3.4,3.5 v 8.93 c 0,8.24 -0.07,9.84 -0.85,11.48 A 13.33,13.33 0 0 1 612.86,74 c -1.86,0.3 -9.11,0.31 -9.93,0.31 z"
         id="path99" />
      <path
         d="m 616.9,45.65 h 0.85 l 2.62,0.08 v 8.92 c 0,7.63 -0.08,9.09 -0.52,10 a 9.79,9.79 0 0 1 -7.58,5.84 c -1,0.18 -5.48,0.29 -9.32,0.29 a 50.67,50.67 0 0 1 -6.05,-0.2 v 0 c -0.27,-0.09 -0.38,-1 -0.38,-2.85 0,-2.19 0.09,-2.74 0.48,-2.89 0.39,-0.15 3.5,-0.19 7.17,-0.19 h 2 c 8.08,0 7.77,-0.36 8.07,-10.84 0.16,-5.34 0.34,-7.86 0.59,-8 a 7.79,7.79 0 0 1 2.12,-0.17 m 0,-7 c -2.56,0 -4.27,0.21 -6,1.31 -3.08,2 -3.32,5.27 -3.47,7.42 -0.1,1.41 -0.19,3.46 -0.27,6.26 v 1.17 c 0,1 0,2 -0.09,2.87 h -2.91 c -8,0 -8.54,0.22 -9.67,0.65 -5,1.91 -5,7 -5,9.43 0,2.43 0,7.7 5.1,9.47 1,0.33 1.68,0.58 8.33,0.58 a 100.47,100.47 0 0 0 10.52,-0.39 16.72,16.72 0 0 0 12.72,-9.77 c 1.17,-2.49 1.17,-4.71 1.18,-13 v -8.89 a 7,7 0 0 0 -6.79,-7 L 618,38.67 h -1.06 z"
         fill="#ffffff"
         id="path101" />
      <path
         d="m 684.35,74.34 a 3.51,3.51 0 0 1 -3.22,-2.12 l -0.79,-1.83 a 19.67,19.67 0 0 0 -1.1,-2.12 c -0.08,0.08 -0.16,0.17 -0.25,0.25 -4,4.1 -6.49,5.82 -11.58,5.82 h -2.58 a 3.5,3.5 0 0 1 -3.5,-3.61 l 0.18,-5.7 a 3.48,3.48 0 0 1 3.16,-3.37 l 1.85,-0.18 a 9.38,9.38 0 0 0 1.09,-0.17 c 1.31,-1.18 5.06,-4.91 8.08,-8 l -9.8,-0.1 a 3.5,3.5 0 0 1 -3.46,-3.37 l -0.09,-2.56 c -0.11,-3.24 0.32,-4.44 1,-5.33 1.31,-1.58 3.23,-1.58 6.42,-1.58 1.28,0 3,0 5.2,0.06 6,0.11 9.51,0.31 10.47,0.61 a 9.21,9.21 0 0 1 5.57,5.34 11.08,11.08 0 0 1 -0.14,9.18 19.11,19.11 0 0 1 -2.65,3.44 c 2.21,3.15 5.38,8.86 5.38,11.39 0,3.94 -4.14,3.94 -6.37,3.94 z"
         id="path103" />
      <path
         d="m 669.81,43.88 c 1.27,0 2.94,0 5.14,0.06 4.69,0.09 9,0.29 9.49,0.45 3.33,1 5.08,6.09 3.32,9.6 a 18.22,18.22 0 0 1 -2.38,2.91 l -1.88,1.92 0.8,0.85 c 2,2.07 5.79,9.19 5.79,10.73 0,0.34 -0.59,0.44 -2.87,0.44 h -2.87 L 683.56,69 c -1,-2.3 -3.32,-5.87 -3.83,-5.87 a 19.51,19.51 0 0 0 -3.24,2.94 c -3.78,3.88 -5.46,4.76 -9.08,4.76 h -2.58 l 0.09,-2.85 v 0 l 0.08,-2.85 1.85,-0.18 a 9.3,9.3 0 0 0 2.46,-0.51 c 0.83,-0.46 13.4,-13.12 13.39,-13.49 0,-1 -0.49,-1.07 -8.64,-1.15 l -8.13,-0.09 -0.09,-2.55 a 7.14,7.14 0 0 1 0.25,-3 c 0.18,-0.22 1,-0.32 3.72,-0.32 m 0,-7 c -3.62,0 -6.75,0 -9.11,2.85 -1.69,2 -2,4.55 -1.86,7.68 l 0.09,2.56 a 7,7 0 0 0 6.93,6.75 h 1.47 L 666,58 664.31,58.16 A 7,7 0 0 0 658,64.92 l -0.09,2.85 -0.09,2.85 a 7,7 0 0 0 7,7.22 h 2.58 a 15.6,15.6 0 0 0 10.74,-3.75 7,7 0 0 0 6.2,3.75 h 2.87 a 22.64,22.64 0 0 0 3.34,-0.17 7.37,7.37 0 0 0 6.53,-7.27 c 0,-3 -2.33,-7.58 -4.51,-11.1 A 13.14,13.14 0 0 0 694,57.12 14.59,14.59 0 0 0 694.25,45 12.67,12.67 0 0 0 686.51,37.71 c -0.72,-0.22 -1.92,-0.6 -11.44,-0.77 -2.39,0 -4,-0.06 -5.26,-0.06 z"
         fill="#ffffff"
         id="path105" />
      <circle
         cx="697.76001"
         cy="46.209999"
         r="5.9400001"
         id="circle107" />
      <path
         d="m 697.76,43.77 a 2.44,2.44 0 1 1 -2.44,2.44 2.44,2.44 0 0 1 2.44,-2.44 m 0,-7 a 9.44,9.44 0 1 0 9.44,9.44 9.45,9.45 0 0 0 -9.44,-9.44 z"
         fill="#ffffff"
         id="path109" />
      <circle
         cx="691.92999"
         cy="46.209999"
         r="5.9400001"
         id="circle111" />
      <path
         d="m 691.93,43.77 a 2.44,2.44 0 1 1 -2.44,2.44 2.44,2.44 0 0 1 2.44,-2.44 m 0,-7 a 9.44,9.44 0 1 0 9.44,9.44 9.44,9.44 0 0 0 -9.44,-9.44 z"
         fill="#ffffff"
         id="path113" />
      <path
         d="m 628.31,74.31 c -4.89,0 -5.75,-0.34 -6.26,-0.55 -3,-1.19 -2.9,-3.7 -2.81,-6.34 l 0.09,-2.7 a 3.51,3.51 0 0 1 3.4,-3.39 l 5.38,-0.15 a 41,41 0 0 0 4.66,-0.32 c 0.37,-2.83 0.89,-13 0.74,-14.83 a 4,4 0 0 1 2.48,-4.8 21.66,21.66 0 0 1 5.45,-0.47 c 1.72,0 3.68,0 4.74,1.91 a 3.73,3.73 0 0 1 0.2,0.4 4.21,4.21 0 0 1 0.49,1.2 4,4 0 0 1 -0.08,2 c -0.06,1 -0.14,4.08 -0.14,8.27 0,8.87 0,9.6 -1.07,11.73 a 13.65,13.65 0 0 1 -9.44,7.57 49.53,49.53 0 0 1 -7.83,0.49 z"
         id="path115" />
      <path
         d="m 641.44,44.26 a 4.52,4.52 0 0 1 1.69,0.13 0.34,0.34 0 0 0 0.17,0.43 0.39,0.39 0 0 1 0.08,0.56 c -0.13,0.2 -0.23,4.31 -0.23,9.14 0,8.49 0,8.82 -0.7,10.17 a 10.12,10.12 0 0 1 -7.11,5.73 46.56,46.56 0 0 1 -7,0.39 23.55,23.55 0 0 1 -4.94,-0.3 c -0.67,-0.27 -0.71,-0.41 -0.62,-3 l 0.09,-2.7 5.39,-0.16 c 6,-0.17 6.95,-0.46 7.82,-2.29 0.47,-1 1.25,-15.7 0.9,-17 -0.11,-0.42 0,-0.73 0.25,-0.83 a 25.19,25.19 0 0 1 4.25,-0.26 m 0,-7 c -4.75,0 -6.07,0.48 -6.64,0.68 a 7.57,7.57 0 0 0 -4.84,8.5 c 0.08,1.71 -0.18,7.43 -0.46,11.17 l -1.55,0.06 -5.39,0.16 a 7,7 0 0 0 -6.79,6.76 l -0.09,2.7 a 16.43,16.43 0 0 0 0.17,4 7.71,7.71 0 0 0 4.86,5.7 c 1.09,0.44 2.41,0.8 7.55,0.8 a 48.31,48.31 0 0 0 8.65,-0.58 17,17 0 0 0 11.77,-9.42 c 1.43,-2.87 1.43,-4.06 1.43,-13.29 0,-3.84 0.06,-6.62 0.12,-7.73 a 7.61,7.61 0 0 0 0,-3.29 7.5,7.5 0 0 0 -0.75,-2 5.07,5.07 0 0 0 -0.29,-0.57 c -2.07,-3.71 -5.8,-3.71 -7.8,-3.71 z m 7.66,10.79 z"
         fill="#ffffff"
         id="path117" />
      <path
         d="m 412.59,22.31 c -2.2,0 -5.22,0 -6.11,-3 A 69.41,69.41 0 0 1 405.3,8.37 c 0.44,-3.88 3.56,-4 5.83,-4.08 h 1.1 c 1.07,0 3.89,0 4.86,2.62 a 100.73,100.73 0 0 1 1.59,11 v 0.91 a 3.5,3.5 0 0 1 -3.5,3.5 z"
         id="path119" />
      <path
         d="m 412.23,7.77 c 1,0 1.49,0.1 1.57,0.33 0.23,0.63 1.39,8.8 1.39,9.8 v 0.91 h -2.6 c -2.21,0 -2.62,-0.08 -2.76,-0.54 a 79.32,79.32 0 0 1 -1.06,-9.5 c 0.1,-0.89 0.11,-0.89 2.49,-1 h 1 m 0,-7 L 411,0.8 A 12.5,12.5 0 0 0 406.61,1.46 7.53,7.53 0 0 0 401.82,8 c -0.25,2.15 0.86,10.77 1.3,12.28 1.64,5.56 7.12,5.56 9.47,5.56 h 2.6 a 7,7 0 0 0 7,-7 V 17.9 c 0,-1.27 -1.15,-10.39 -1.82,-12.22 -0.67,-1.83 -2.63,-4.91 -8.14,-4.91 z"
         fill="#ffffff"
         id="path121" />
      <path
         d="m 324.14,33.55 a 25.13,25.13 0 0 1 -3.25,-0.09 c -3.24,-0.45 -3.84,-2.56 -3.95,-3.45 -0.16,-1.31 0.25,-3.1 3,-4.32 0.18,-0.7 0.4,-1.9 0.54,-2.61 0,-0.13 0.13,-0.67 0.25,-1.29 a 3.58,3.58 0 0 1 -1,-2.43 4,4 0 0 1 2.27,-3.71 c 0.12,-0.49 0.26,-1.15 0.35,-1.58 0.15,-0.68 0.39,-1.77 0.51,-2.51 a 4.3,4.3 0 0 1 -1.33,-2.8 3.67,3.67 0 0 1 1,-2.78 c 1.1,-1.1 1.27,-1.28 11.91,-1.4 h 5.2 c 4,0 6.48,0 7.5,2.66 0.22,0.57 0.55,1.44 -0.22,5.15 -0.47,2.22 -1.05,5 -3.87,5.53 a 4.11,4.11 0 0 1 -0.78,0.07 3.39,3.39 0 0 1 -0.64,-0.05 c 0,0.08 -0.21,1 -0.32,1.47 a 4,4 0 0 1 2.73,1.89 c 0.69,1.1 0.78,2.12 0,5.94 -0.54,2.54 -1.1,5.17 -3.64,5.88 -1.48,0.38 -16.11,0.43 -16.26,0.43 z"
         id="path123" />
      <path
         d="m 339.71,8 c 3.47,0 4.12,0.11 4.23,0.41 a 12,12 0 0 1 -0.38,3.18 c -0.43,2.06 -0.69,2.73 -1.11,2.81 h -0.11 a 0.63,0.63 0 0 1 -0.6,-0.47 c -1.09,-3.39 -1.9,-4.09 -4.83,-4.09 v 0 a 8.72,8.72 0 0 0 -2.62,0.27 c -0.5,0.32 -1.92,7.13 -1.56,7.52 a 0.28,0.28 0 0 0 0.24,0.08 7.48,7.48 0 0 0 3.58,-2 c 0.64,-0.68 1.14,-1 1.47,-1 0.54,0 0.65,0.89 0.26,2.61 -0.16,0.71 -0.52,2.37 -0.79,3.68 -0.33,1.59 -0.63,2.36 -1.07,2.36 -0.44,0 -0.82,-0.46 -1.42,-1.36 a 3.77,3.77 0 0 0 -2.46,-2 0.63,0.63 0 0 0 -0.46,0.18 c -0.35,0.36 -1.87,7.26 -1.66,7.6 a 5.36,5.36 0 0 0 2.13,0.23 11.71,11.71 0 0 0 3,-0.27 12.93,12.93 0 0 0 4.06,-4 c 0.33,-0.64 0.75,-1 1.11,-1 a 0.53,0.53 0 0 1 0.45,0.28 14.34,14.34 0 0 1 -0.48,3.38 c -0.47,2.21 -0.8,3.14 -1.16,3.24 -0.55,0.15 -10.35,0.34 -15.33,0.34 -1.47,0 -2.52,0 -2.79,-0.06 -1.34,-0.18 -1.26,-0.61 0.21,-1.21 1.47,-0.6 1.53,-0.87 2.33,-5.05 0.27,-1.43 0.57,-2.85 0.65,-3.15 0.08,-0.3 -0.08,-0.63 -0.63,-0.84 -1,-0.39 -1,-0.68 0.2,-1.24 0.93,-0.44 1,-0.63 1.68,-3.69 0.9,-4.22 0.89,-4.61 -0.13,-5.43 -0.47,-0.37 -0.73,-0.79 -0.59,-0.93 a 89.9,89.9 0 0 1 9.46,-0.37 h 5.16 m 0,-7 v 0 c -1.31,0 -3,0 -5.24,0 -10.47,0.12 -12.08,0.14 -14.35,2.44 a 7.12,7.12 0 0 0 -2.1,5.55 7.6,7.6 0 0 0 1.09,3.46 c -0.07,0.36 -0.14,0.7 -0.19,0.91 v 0.22 a 7.15,7.15 0 0 0 -2.71,5.93 7.3,7.3 0 0 0 0.81,3.07 c -0.05,0.23 -0.11,0.54 -0.17,0.85 a 7.31,7.31 0 0 0 -3.37,7 c 0.33,2.71 2.32,5.84 6.93,6.48 a 24.82,24.82 0 0 0 3.76,0.13 c 3.53,0 15.22,0 17.21,-0.6 4.58,-1.27 5.55,-5.81 6.12,-8.52 0.75,-3.51 1.11,-5.86 -0.25,-8.26 2.19,-1.93 2.82,-4.92 3.17,-6.6 0.83,-4 0.65,-5.6 0.07,-7.12 C 348.6,1 343.88,1 339.71,1 Z"
         fill="#ffffff"
         id="path125" />
      <path
         d="m 454.21,33.68 a 4.29,4.29 0 0 1 -4.3,-2.64 c -0.13,-0.36 -0.42,-1.1 -0.29,-3.92 0.09,-2.13 0.19,-4.34 3.12,-5.48 0.1,-1.12 0.14,-3.22 0.19,-5.73 l 0.16,-7.79 a 3.5,3.5 0 0 1 3,-3.4 l 2.56,-0.35 a 12.65,12.65 0 0 1 1.72,-0.16 c 4.88,0 4.92,4.29 5,10.23 v 1.26 c 0.06,6.21 0,8.29 -0.54,10.17 a 10.82,10.82 0 0 1 -7.16,7.2 12.38,12.38 0 0 1 -3.5,0.61 z"
         id="path127" />
      <path
         d="m 460.41,7.71 c 1.52,0 1.42,1.23 1.5,8 0.06,6.08 0,7.8 -0.4,9.15 a 7.34,7.34 0 0 1 -4.79,4.83 9.4,9.4 0 0 1 -2.51,0.46 c -0.57,0 -0.93,-0.13 -1,-0.4 a 11.74,11.74 0 0 1 -0.07,-2.51 c 0.09,-2.06 0.11,-2.1 1.08,-2.43 2.09,-0.71 2.08,-0.64 2.25,-9 l 0.15,-7.61 2.11,-0.29 c 0.73,-0.09 1.28,-0.19 1.71,-0.19 m 0,-7 a 14.26,14.26 0 0 0 -2.21,0.2 l -0.43,0.06 -2.11,0.28 a 7,7 0 0 0 -6.07,6.8 l -0.15,7.61 v 0.18 c 0,1.35 -0.05,2.66 -0.08,3.7 -3,2.23 -3.15,5.62 -3.23,7.42 -0.16,3.56 0.27,4.67 0.52,5.33 a 7.8,7.8 0 0 0 7.57,4.89 16.1,16.1 0 0 0 4.5,-0.75 14.42,14.42 0 0 0 9.52,-9.58 c 0.67,-2.33 0.75,-4.48 0.68,-11.18 V 14.41 A 41.07,41.07 0 0 0 468.6,7.65 8.1,8.1 0 0 0 460.41,0.71 Z"
         fill="#ffffff"
         id="path129" />
      <path
         d="m 414,33.36 c -3.59,0 -4.8,0 -6,-1.19 -0.85,-0.86 -1.38,-2.09 -1.22,-5.28 0.1,-2.06 0.41,-3.54 1.63,-4.56 0.74,-0.61 1.32,-1.1 7.06,-1.22 1.14,0 2.51,-0.06 3.2,-0.12 0.3,-0.47 0.59,-1.72 1.25,-6.69 1,-7.49 1.38,-8 2.64,-8.9 0.54,-0.38 1.22,-0.85 4.7,-0.86 h 2.39 a 3.5,3.5 0 0 1 3.5,3.5 V 8.9 c 0,1.09 -0.48,4.7 -0.5,4.85 -0.26,1.93 -0.67,5.13 -0.92,7.11 a 30.33,30.33 0 0 1 -1.07,5.39 12.84,12.84 0 0 1 -5.54,5.9 c -2.09,1 -3.3,1.08 -8.63,1.19 -0.9,0.02 -1.75,0.02 -2.49,0.02 z"
         id="path131" />
      <path
         d="m 429.65,8 v 0.9 c 0,0.48 -0.21,2.45 -0.47,4.39 -0.26,1.94 -0.67,5.14 -0.92,7.13 a 28.8,28.8 0 0 1 -0.82,4.46 9.37,9.37 0 0 1 -3.86,4.12 c -1.34,0.66 -1.95,0.73 -7.16,0.83 -0.87,0 -1.7,0 -2.45,0 a 20.49,20.49 0 0 1 -3.48,-0.14 v 0 c -0.4,-0.41 -0.27,-4.34 0.16,-4.69 a 21.66,21.66 0 0 1 4.9,-0.42 c 4.32,-0.1 4.55,-0.14 5.35,-0.88 1.3,-1.2 1.59,-2.25 2.49,-9 a 41,41 0 0 1 1.17,-6.5 10.42,10.42 0 0 1 2.71,-0.2 h 2.38 m 0,-7 h -2.4 c -3.38,0 -5.13,0.4 -6.7,1.49 -2.84,2 -3.18,4.53 -4.1,11.31 -0.11,0.87 -0.33,2.46 -0.54,3.76 h -0.52 c -5.58,0.12 -7.39,0.52 -9.21,2 -2.65,2.2 -2.82,5.49 -2.9,7.07 -0.14,2.79 0,5.69 2.22,7.91 2.22,2.22 4.56,2.24 8.47,2.24 0.79,0 1.67,0 2.58,0 5.27,-0.11 7.25,-0.14 10.1,-1.54 a 16.16,16.16 0 0 0 7.22,-7.67 26.78,26.78 0 0 0 1.33,-6.34 c 0.25,-2 0.66,-5.15 0.92,-7.07 0.16,-1.2 0.53,-4.12 0.53,-5.32 V 8 a 7,7 0 0 0 -7,-7 z"
         fill="#ffffff"
         id="path133" />
      <path
         d="m 299.8,109.79 a 3.5,3.5 0 0 1 -3.5,-3.5 V 46.15 a 3.5,3.5 0 0 1 3.5,-3.5 h 16.9 a 47.25,47.25 0 0 1 10.45,1 22.55,22.55 0 0 1 8.29,3.69 17.35,17.35 0 0 1 5.7,7.36 26.8,26.8 0 0 1 1.86,10.48 22.54,22.54 0 0 1 -1.9,9.32 20.65,20.65 0 0 1 -5.33,7.17 23.72,23.72 0 0 1 -7.89,4.46 28.49,28.49 0 0 1 -9.31,1.53 h -1.37 v 18.59 a 3.51,3.51 0 0 1 -3.48,3.5 z m 17.9,-41.74 a 6.13,6.13 0 0 0 3.69,-0.88 c 0.22,-0.19 0.75,-0.61 0.75,-2.08 0,-1.47 -0.5,-1.77 -0.74,-2 a 6.05,6.05 0 0 0 -3.7,-0.88 h -0.49 V 68 Z"
         id="path135" />
      <path
         d="m 316.71,46.15 a 43,43 0 0 1 9.64,0.94 18.9,18.9 0 0 1 7,3.1 13.8,13.8 0 0 1 4.55,5.91 23.22,23.22 0 0 1 1.59,9.07 18.9,18.9 0 0 1 -1.59,7.88 17.15,17.15 0 0 1 -4.43,6 20.32,20.32 0 0 1 -6.74,3.79 25.08,25.08 0 0 1 -8.17,1.34 h -3 V 71.55 h 2.16 a 9.19,9.19 0 0 0 5.88,-1.66 5.8,5.8 0 0 0 2.06,-4.8 5.64,5.64 0 0 0 -2.06,-4.69 9.25,9.25 0 0 0 -5.88,-1.64 h -4 v 47.49 h -13.91 v -60.1 h 16.91 m 0,-7 H 299.8 a 7,7 0 0 0 -7,7 v 60.14 a 7,7 0 0 0 7,7 v 0 h 13.92 a 7,7 0 0 0 7,-7 v -15.2 a 32,32 0 0 0 8.28,-1.65 27.29,27.29 0 0 0 9,-5.12 24.08,24.08 0 0 0 6.22,-8.38 25.78,25.78 0 0 0 2.22,-10.77 30.14,30.14 0 0 0 -2.15,-11.81 20.84,20.84 0 0 0 -6.85,-8.82 26.16,26.16 0 0 0 -9.57,-4.27 50.71,50.71 0 0 0 -11.23,-1.12 z"
         fill="#ffffff"
         id="path137" />
      <rect
         x="373.23999"
         y="66.660004"
         width="38.73"
         height="15.53"
         rx="3.5"
         id="rect139" />
      <path
         d="m 408.47,70.16 v 8.53 h -31.73 v -8.53 h 31.73 m 0,-7 h -31.73 a 7,7 0 0 0 -7,7 v 8.53 a 7,7 0 0 0 7,7 h 31.73 a 7,7 0 0 0 7,-7 v -8.53 a 7,7 0 0 0 -7,-7 z"
         fill="#ffffff"
         id="path141" />
      <path
         d="m 421,109 a 3.5,3.5 0 0 1 -2.48,-5.94 c 5.24,-5.36 9.18,-9.49 11.71,-12.26 0.7,-0.77 1.38,-1.54 2,-2.32 a 18.7,18.7 0 0 1 -8.2,-3 20.38,20.38 0 0 1 -7.17,-8.34 25.64,25.64 0 0 1 -2.43,-11.12 27.28,27.28 0 0 1 2.93,-12.77 21.47,21.47 0 0 1 8.55,-8.93 24.53,24.53 0 0 1 12.28,-3.09 25.63,25.63 0 0 1 12.65,3.14 22.38,22.38 0 0 1 8.89,9.07 27.66,27.66 0 0 1 3.09,13.25 39.57,39.57 0 0 1 -6.36,21.39 119.92,119.92 0 0 1 -16.43,20 3.5,3.5 0 0 1 -2.48,1 z m 17.53,-47.65 a 3.4,3.4 0 0 0 -2.68,1.22 4.58,4.58 0 0 0 -1.23,3.29 5.54,5.54 0 0 0 0.59,2.51 3.87,3.87 0 0 0 1.36,1.63 3.43,3.43 0 0 0 1.91,0.54 3.72,3.72 0 0 0 2.91,-1.28 4.68,4.68 0 0 0 1.29,-3.39 4.43,4.43 0 0 0 -0.58,-2.27 4.53,4.53 0 0 0 -1.6,-1.68 3.68,3.68 0 0 0 -2.02,-0.54 z"
         id="path143" />
      <path
         d="m 438.17,44.77 a 22.1,22.1 0 0 1 10.94,2.7 18.77,18.77 0 0 1 7.52,7.67 24.1,24.1 0 0 1 2.67,11.59 36,36 0 0 1 -5.82,19.53 116.32,116.32 0 0 1 -16,19.4 L 421,105.53 q 7.93,-8.13 11.78,-12.34 a 65.31,65.31 0 0 0 6.72,-8.65 l -0.16,-0.17 a 11.08,11.08 0 0 1 -4.42,0.8 15.86,15.86 0 0 1 -9,-2.56 16.92,16.92 0 0 1 -5.92,-6.94 22.07,22.07 0 0 1 -2.09,-9.62 23.73,23.73 0 0 1 2.53,-11.14 18,18 0 0 1 7.18,-7.5 20.94,20.94 0 0 1 10.55,-2.64 m 0.31,29.29 a 7.21,7.21 0 0 0 5.52,-2.39 8.15,8.15 0 0 0 2.23,-5.78 7.93,7.93 0 0 0 -1,-4 8.06,8.06 0 0 0 -2.88,-2.89 7.25,7.25 0 0 0 -3.87,-1.09 6.9,6.9 0 0 0 -5.26,2.35 8.09,8.09 0 0 0 -2.15,5.66 9.1,9.1 0 0 0 0.93,4.08 7.35,7.35 0 0 0 2.68,3 6.86,6.86 0 0 0 3.78,1.09 M 438.15,37.8 a 28,28 0 0 0 -14,3.55 25,25 0 0 0 -9.93,10.35 30.9,30.9 0 0 0 -3.32,14.38 29,29 0 0 0 2.78,12.64 23.76,23.76 0 0 0 8.38,9.75 21.42,21.42 0 0 0 3.72,2 c -2.44,2.61 -5.73,6 -9.82,10.22 a 7,7 0 0 0 5,11.89 l 16.54,0.13 h 0.06 a 7,7 0 0 0 5,-2.06 A 123.79,123.79 0 0 0 459.4,90 43,43 0 0 0 466.3,66.74 31.09,31.09 0 0 0 462.79,51.83 25.67,25.67 0 0 0 452.52,41.37 29,29 0 0 0 438.17,37.78 Z m 0.29,27.11 v 0 c 0.12,0 0.13,0 0.18,0 a 1.05,1.05 0 0 1 0.4,0.43 0.94,0.94 0 0 1 0.12,0.54 1.19,1.19 0 0 1 -0.35,1 0.9,0.9 0 0 1 -0.17,0.16 h -0.21 a 0.58,0.58 0 0 1 -0.16,-0.22 2.13,2.13 0 0 1 -0.22,-1 1.13,1.13 0 0 1 0.31,-0.93 l 0.08,-0.08 z"
         fill="#ffffff"
         id="path145" />
      <path
         d="m 524.77,110.5 a 20.71,20.71 0 0 1 -12,-3.45 22.87,22.87 0 0 1 -7.55,-8.88 40.47,40.47 0 0 1 -3.53,-10.87 67.65,67.65 0 0 1 0,-22.83 39.78,39.78 0 0 1 3.54,-10.9 22.91,22.91 0 0 1 7.54,-8.85 20.71,20.71 0 0 1 12,-3.45 21.06,21.06 0 0 1 12.23,3.46 22.9,22.9 0 0 1 7.59,8.76 39.29,39.29 0 0 1 3.55,10.87 66.48,66.48 0 0 1 1,11.54 62.83,62.83 0 0 1 -1.9,15.43 29.07,29.07 0 0 1 -7.34,13.39 c -3.81,3.83 -8.9,5.78 -15.13,5.78 z m 0,-48.87 a 1.71,1.71 0 0 0 -1.6,0.79 11.6,11.6 0 0 0 -1.69,4.71 53.29,53.29 0 0 0 -0.62,8.77 53.4,53.4 0 0 0 0.61,8.75 11.08,11.08 0 0 0 1.68,4.69 1.77,1.77 0 0 0 1.62,0.83 c 2.63,0 4.2,-5.33 4.2,-14.27 0,-8.94 -1.57,-14.27 -4.2,-14.27 z"
         id="path147" />
      <path
         d="m 524.77,44.77 a 17.59,17.59 0 0 1 10.23,2.85 19.31,19.31 0 0 1 6.44,7.43 35.86,35.86 0 0 1 3.21,9.95 62.33,62.33 0 0 1 0.94,10.93 58.74,58.74 0 0 1 -1.8,14.57 25.26,25.26 0 0 1 -6.44,11.79 Q 532.71,107 524.77,107 a 17.13,17.13 0 0 1 -10,-2.83 19.25,19.25 0 0 1 -6.4,-7.54 36.79,36.79 0 0 1 -3.23,-9.93 61.48,61.48 0 0 1 -0.92,-10.8 62.15,62.15 0 0 1 0.92,-10.83 36.26,36.26 0 0 1 3.23,-9.95 19.36,19.36 0 0 1 6.4,-7.53 17.2,17.2 0 0 1 10,-2.82 m 0,48.9 q 7.69,0 7.7,-17.77 0.01,-17.77 -7.7,-17.77 a 5.17,5.17 0 0 0 -4.44,2.25 14.68,14.68 0 0 0 -2.33,6.16 54.87,54.87 0 0 0 -0.68,9.36 57,57 0 0 0 0.66,9.33 14.4,14.4 0 0 0 2.31,6.18 5.21,5.21 0 0 0 4.44,2.26 m 0,-55.9 a 24.14,24.14 0 0 0 -14,4.07 26.33,26.33 0 0 0 -8.66,10.16 43.76,43.76 0 0 0 -3.85,11.85 71.33,71.33 0 0 0 0,24 44.21,44.21 0 0 0 3.84,11.8 26.49,26.49 0 0 0 8.7,10.22 24.14,24.14 0 0 0 14,4.07 c 7.22,0 13.13,-2.3 17.58,-6.83 a 32.47,32.47 0 0 0 8.23,-15 66.38,66.38 0 0 0 2,-16.29 70.57,70.57 0 0 0 -1,-12.15 42.83,42.83 0 0 0 -3.87,-11.82 26.29,26.29 0 0 0 -8.7,-10 24.51,24.51 0 0 0 -14.18,-4.08 z m 0.1,46 a 52.15,52.15 0 0 1 -0.51,-7.89 50.11,50.11 0 0 1 0.52,-7.85 43.26,43.26 0 0 1 0.59,7.85 42.41,42.41 0 0 1 -0.6,7.89 z"
         fill="#ffffff"
         id="path149" />
      <path
         d="m 568.16,110.5 a 20.68,20.68 0 0 1 -12,-3.45 22.87,22.87 0 0 1 -7.55,-8.88 40.84,40.84 0 0 1 -3.54,-10.87 66.34,66.34 0 0 1 -1,-11.4 67,67 0 0 1 1,-11.43 40.47,40.47 0 0 1 3.54,-10.9 22.92,22.92 0 0 1 7.55,-8.85 20.68,20.68 0 0 1 12,-3.45 21.1,21.1 0 0 1 12.19,3.46 22.9,22.9 0 0 1 7.59,8.76 39.72,39.72 0 0 1 3.54,10.87 66.48,66.48 0 0 1 1,11.54 62.83,62.83 0 0 1 -1.9,15.43 29,29 0 0 1 -7.33,13.39 c -3.78,3.83 -8.85,5.78 -15.09,5.78 z m 0,-48.87 a 1.71,1.71 0 0 0 -1.61,0.79 11.6,11.6 0 0 0 -1.68,4.71 52.27,52.27 0 0 0 -0.63,8.77 54.53,54.53 0 0 0 0.61,8.75 11.07,11.07 0 0 0 1.69,4.69 1.75,1.75 0 0 0 1.62,0.83 c 2.63,0 4.19,-5.33 4.19,-14.27 0,-8.94 -1.56,-14.27 -4.19,-14.27 z"
         id="path151" />
      <path
         d="m 568.16,44.77 a 17.61,17.61 0 0 1 10.21,2.85 19.39,19.39 0 0 1 6.44,7.43 36.19,36.19 0 0 1 3.19,9.95 63.31,63.31 0 0 1 1,10.9 58.74,58.74 0 0 1 -1.79,14.57 25.34,25.34 0 0 1 -6.44,11.79 Q 576.09,107 568.16,107 a 17.16,17.16 0 0 1 -10,-2.83 19.33,19.33 0 0 1 -6.4,-7.54 37.14,37.14 0 0 1 -3.23,-9.93 62.45,62.45 0 0 1 -0.92,-10.8 63.14,63.14 0 0 1 0.92,-10.83 36.6,36.6 0 0 1 3.23,-9.95 19.44,19.44 0 0 1 6.4,-7.53 17.23,17.23 0 0 1 10,-2.82 m 0,48.9 q 7.7,0 7.69,-17.77 -0.01,-17.77 -7.69,-17.77 a 5.18,5.18 0 0 0 -4.45,2.25 14.82,14.82 0 0 0 -2.29,6.16 55.91,55.91 0 0 0 -0.68,9.36 57,57 0 0 0 0.66,9.33 14.53,14.53 0 0 0 2.31,6.18 5.24,5.24 0 0 0 4.45,2.26 m 0,-55.9 a 24.12,24.12 0 0 0 -14,4.07 26.35,26.35 0 0 0 -8.71,10.16 44.11,44.11 0 0 0 -3.85,11.85 70.93,70.93 0 0 0 -1,12 69.42,69.42 0 0 0 1,12 43.86,43.86 0 0 0 3.84,11.8 26.32,26.32 0 0 0 8.7,10.22 24.12,24.12 0 0 0 14,4.07 c 7.21,0 13.13,-2.3 17.58,-6.83 a 32.45,32.45 0 0 0 8.22,-15 65.9,65.9 0 0 0 2,-16.29 70.57,70.57 0 0 0 -1,-12.15 43.15,43.15 0 0 0 -3.86,-11.82 26.4,26.4 0 0 0 -8.74,-10.08 24.5,24.5 0 0 0 -14.17,-4.08 z m 0.1,46 a 52,52 0 0 1 -0.52,-7.89 51.36,51.36 0 0 1 0.52,-7.85 42.35,42.35 0 0 1 0.59,7.85 43.52,43.52 0 0 1 -0.59,7.89 z"
         fill="#ffffff"
         id="path153" />
      <path
         d="m 481.63,110.5 a 27.52,27.52 0 0 1 -11.37,-2.43 21.4,21.4 0 0 1 -9,-7.42 19.88,19.88 0 0 1 -3.48,-11.59 19.56,19.56 0 0 1 2.66,-9.83 22.42,22.42 0 0 1 3.42,-4.54 17.92,17.92 0 0 1 -4.6,-12.32 22.87,22.87 0 0 1 1.74,-9.24 18,18 0 0 1 5.25,-6.84 21.47,21.47 0 0 1 7.46,-3.86 30.38,30.38 0 0 1 8.48,-1.16 22.12,22.12 0 0 1 15.25,5.52 c 4.21,3.76 6.35,9 6.35,15.49 a 18.86,18.86 0 0 1 -4.27,11.86 21.08,21.08 0 0 1 3.75,4.72 20.38,20.38 0 0 1 2.39,10.2 20,20 0 0 1 -2.14,9.24 20.68,20.68 0 0 1 -5.69,6.86 24.63,24.63 0 0 1 -7.74,4 28.34,28.34 0 0 1 -8.46,1.34 z M 482,84 a 3.7,3.7 0 1 0 3.33,3.68 A 3.53,3.53 0 0 0 482,84 Z m 0,-23.65 a 2.88,2.88 0 1 0 2.56,2.86 2.72,2.72 0 0 0 -2.56,-2.83 z"
         id="path155" />
      <path
         d="m 482.23,44.77 a 18.68,18.68 0 0 1 12.92,4.63 q 5.18,4.62 5.18,12.88 a 15.14,15.14 0 0 1 -1.67,6.88 12.88,12.88 0 0 1 -4.3,5 0.11,0.11 0 0 0 0,0.18 20.28,20.28 0 0 1 5.91,6.24 16.86,16.86 0 0 1 1.93,8.46 16.34,16.34 0 0 1 -1.75,7.63 17.06,17.06 0 0 1 -4.72,5.7 21.14,21.14 0 0 1 -6.64,3.46 24.75,24.75 0 0 1 -7.46,1.15 24,24 0 0 1 -9.93,-2.12 17.94,17.94 0 0 1 -7.56,-6.22 16.43,16.43 0 0 1 -2.85,-9.6 15.93,15.93 0 0 1 2.2,-8.09 18.37,18.37 0 0 1 5.51,-6.05 0.11,0.11 0 0 0 0,-0.18 14.94,14.94 0 0 1 -6.26,-12.35 19.24,19.24 0 0 1 1.47,-7.82 14.6,14.6 0 0 1 4.26,-5.55 18,18 0 0 1 6.26,-3.23 26.76,26.76 0 0 1 7.5,-1 M 482,69.61 a 6.37,6.37 0 1 0 -6.06,-6.37 6.22,6.22 0 0 0 6.06,6.37 m 0,25.28 a 7.19,7.19 0 1 0 -6.84,-7.18 7,7 0 0 0 6.84,7.18 m 0.24,-57.12 a 33.94,33.94 0 0 0 -9.46,1.3 25,25 0 0 0 -8.67,4.48 21.52,21.52 0 0 0 -6.26,8.17 26.24,26.24 0 0 0 -2.07,10.65 21.65,21.65 0 0 0 3.6,12.18 25.83,25.83 0 0 0 -1.95,2.94 22.88,22.88 0 0 0 -3.13,11.57 23.35,23.35 0 0 0 4.1,13.59 24.93,24.93 0 0 0 10.44,8.62 31,31 0 0 0 12.8,2.73 32.09,32.09 0 0 0 9.55,-1.47 28.26,28.26 0 0 0 8.84,-4.61 24.24,24.24 0 0 0 6.65,-8 23.44,23.44 0 0 0 2.53,-10.85 23.75,23.75 0 0 0 -2.85,-11.93 22.64,22.64 0 0 0 -2.29,-3.29 c 0.3,-0.49 0.58,-1 0.84,-1.52 a 22.09,22.09 0 0 0 2.43,-10 c 0,-7.45 -2.6,-13.71 -7.52,-18.1 a 25.52,25.52 0 0 0 -17.58,-6.41 z"
         fill="#ffffff"
         id="path157" />
      <path
         d="m 369.42,110.42 a 28.85,28.85 0 0 1 -15.86,-4.71 33.35,33.35 0 0 1 -11.39,-12.57 38.07,38.07 0 0 1 0,-34.57 33.79,33.79 0 0 1 11.4,-12.63 28.81,28.81 0 0 1 15.87,-4.72 29.57,29.57 0 0 1 5.51,0.52 3.48,3.48 0 0 1 2.84,3.43 v 14.11 a 3.5,3.5 0 0 1 -3.5,3.5 3.38,3.38 0 0 1 -1.36,-0.28 8.84,8.84 0 0 0 -3.49,-0.7 9.23,9.23 0 0 0 -5.44,1.82 14.08,14.08 0 0 0 -4.36,5.26 15.64,15.64 0 0 0 -1.62,7 15.23,15.23 0 0 0 1.66,7 13.51,13.51 0 0 0 4.32,5.21 8.91,8.91 0 0 0 5.43,1.83 8.68,8.68 0 0 0 3.47,-0.7 3.49,3.49 0 0 1 4.88,3.21 v 14 a 3.5,3.5 0 0 1 -2.84,3.44 29.57,29.57 0 0 1 -5.52,0.55 z"
         id="path159" />
      <path
         d="m 369.42,44.72 a 25.89,25.89 0 0 1 4.85,0.45 v 14.11 a 12.36,12.36 0 0 0 -4.85,-1 12.73,12.73 0 0 0 -7.5,2.47 17.71,17.71 0 0 0 -5.46,6.54 19.35,19.35 0 0 0 -2,8.55 18.81,18.81 0 0 0 2,8.55 17.25,17.25 0 0 0 5.54,6.61 12.37,12.37 0 0 0 7.46,2.47 12.16,12.16 0 0 0 4.85,-1 v 14 a 25.61,25.61 0 0 1 -18.81,-3.69 29.76,29.76 0 0 1 -10.2,-11.28 34.53,34.53 0 0 1 0,-31.3 30.11,30.11 0 0 1 10.2,-11.32 25.29,25.29 0 0 1 14,-4.15 m 0,-7 a 32.29,32.29 0 0 0 -17.84,5.27 37.29,37.29 0 0 0 -12.58,13.9 41.57,41.57 0 0 0 0,37.84 36.94,36.94 0 0 0 12.61,13.91 32.29,32.29 0 0 0 17.76,5.27 33.06,33.06 0 0 0 6.16,-0.58 7,7 0 0 0 5.69,-6.88 v -14 h -7 L 371.52,86 a 5.47,5.47 0 0 1 -5.43,-0.71 l -0.08,-0.05 a 10.24,10.24 0 0 1 -3.24,-3.93 11.94,11.94 0 0 1 -1.3,-5.45 12.23,12.23 0 0 1 1.27,-5.45 10.65,10.65 0 0 1 3.28,-4 5.64,5.64 0 0 1 3.4,-1.15 5.29,5.29 0 0 1 2.12,0.43 7,7 0 0 0 9.73,-6.45 V 45.17 a 7,7 0 0 0 -5.69,-6.87 33.06,33.06 0 0 0 -6.16,-0.58 z"
         fill="#ffffff"
         id="path161" />
      <path
         id="path3346"
         d="m 596.89,70.61 c -0.27,-0.09 -0.38,-1 -0.38,-2.85 0,-2.19 0.09,-2.74 0.48,-2.89 0.39,-0.15 3.5,-0.19 7.17,-0.19 10.1,0 9.71,0.42 10,-10.84 0.16,-5.34 0.34,-7.86 0.59,-8 a 11,11 0 0 1 3,-0.15 l 2.62,0.08 v 8.92 c 0,7.63 -0.08,9.09 -0.52,10 a 9.79,9.79 0 0 1 -7.58,5.84 c -1.87,0.33 -14.47,0.4 -15.37,0.09 z m 26.47,-0.1 c -0.67,-0.27 -0.71,-0.41 -0.62,-3 l 0.09,-2.7 5.39,-0.16 c 6,-0.17 6.95,-0.46 7.82,-2.29 0.47,-1 1.25,-15.7 0.9,-17 -0.11,-0.42 0,-0.73 0.25,-0.83 0.71,-0.26 6.09,-0.37 5.94,-0.13 a 0.34,0.34 0 0 0 0.17,0.43 0.39,0.39 0 0 1 0.08,0.56 c -0.13,0.2 -0.23,4.31 -0.23,9.14 0,8.49 0,8.82 -0.7,10.17 a 10.12,10.12 0 0 1 -7.11,5.73 c -1.99,0.46 -10.88,0.57 -11.98,0.08 z M 664.92,68 665,65.15 l 1.85,-0.18 a 9.3,9.3 0 0 0 2.46,-0.51 c 0.83,-0.46 13.4,-13.12 13.39,-13.49 0,-1 -0.49,-1.07 -8.64,-1.15 l -8.13,-0.09 -0.09,-2.55 a 7.14,7.14 0 0 1 0.25,-3 c 0.27,-0.33 2,-0.38 8.86,-0.26 4.69,0.09 9,0.29 9.49,0.45 3.33,1 5.08,6.09 3.32,9.6 a 18.22,18.22 0 0 1 -2.38,2.91 l -1.88,1.92 0.8,0.85 c 2,2.07 5.79,9.19 5.79,10.73 0,0.34 -0.59,0.44 -2.87,0.44 h -2.87 L 683.56,69 c -1,-2.3 -3.32,-5.87 -3.83,-5.87 a 19.51,19.51 0 0 0 -3.24,2.94 c -3.78,3.88 -5.46,4.76 -9.08,4.76 h -2.58 l 0.09,-2.85 z m -20.1,-8.31 a 21.87,21.87 0 0 1 0.27,-4.91 c 0.12,-0.12 5.17,-0.27 11.23,-0.34 9.88,-0.11 11,-0.08 11.28,0.37 a 10.47,10.47 0 0 1 0.22,3 l -0.05,2.46 -11.46,0.09 -11.47,0.08 v -0.7 z m -47.23,-1.12 -1.24,-0.19 0.11,-2.62 a 12,12 0 0 1 0.3,-2.83 55.44,55.44 0 0 1 6.37,-0.29 l 6.15,-0.08 0.09,2.88 c 0.06,2 0,3 -0.28,3.12 -0.45,0.27 -9.76,0.28 -11.5,0 z m 25.63,-1.29 c -0.48,-0.28 -0.51,-0.84 -0.34,-6.38 0.12,-4 0.3,-6.15 0.53,-6.3 a 10.92,10.92 0 0 1 3,-0.15 l 2.62,0.07 0.06,5.85 c 0,3.22 0,6.16 -0.08,6.55 -0.14,0.65 -0.3,0.69 -2.68,0.68 a 10.83,10.83 0 0 1 -3.07,-0.32 z m -25.53,-7 -1.13,-0.11 0.05,-2.75 a 7.55,7.55 0 0 1 0.36,-2.86 c 0.17,-0.06 3.08,-0.1 6.46,-0.08 h 6.16 l -0.11,2.77 a 19.74,19.74 0 0 1 -0.25,3 c -0.14,0.23 -9.39,0.23 -11.54,0 z m -297.76,-20 a 61.36,61.36 0 0 1 1.21,-6.95 c 0.75,-3.68 1.37,-7 1.37,-7.3 a 3.72,3.72 0 0 0 -1.07,-1.71 l -1.07,-1.1 0.6,-0.81 c 1.13,-1.53 4.23,-4.65 4.61,-4.65 0.38,0 0.54,0.11 6.31,6.56 2.37,2.65 4.4,4.71 4.52,4.59 0.12,-0.12 0.73,-2.63 1.36,-5.57 0.76,-3.48 1.31,-5.39 1.6,-5.5 0.86,-0.33 5.08,2.12 4.82,2.79 a 4.56,4.56 0 0 1 -1.69,1.14 8.41,8.41 0 0 0 -1.85,1.09 c -0.17,0.21 -1.07,4 -2,8.34 -2,9.47 -1.88,9 -2.61,9 -0.73,0 -1.69,-1.08 -7.37,-7.49 -2.08,-2.34 -3.88,-4.14 -4,-4 a 44.48,44.48 0 0 0 -1.54,6.69 c 0,0.22 0.55,0.77 1.23,1.22 1.86,1.24 1.66,1.8 -1.06,2.93 -2.36,0.99 -3.1,1.14 -3.37,0.7 z m 50.41,-0.06 a 10.92,10.92 0 0 1 -5.12,-4 c -1.91,-2.88 -2.16,-6 -0.76,-9.78 1.73,-4.65 9.33,-9.18 14.92,-8.89 l 1.78,0.09 1,2 c 1.45,3 1.49,3.27 0.59,3.86 a 5.63,5.63 0 0 1 -2,0.67 c -1.19,0.16 -1.22,0.13 -2.48,-1.72 -0.85,-1.25 -1.49,-1.88 -1.9,-1.88 -1.13,0 -3.57,1.49 -5,3 -2.21,2.47 -2.56,4.81 -1.11,7.43 1.63,2.94 4.8,3.43 9.13,1.39 2.06,-1 2.61,-1.12 2.82,-0.78 0.38,0.6 -3.15,7.53 -4.17,8.2 -1.02,0.67 -6.15,0.86 -7.7,0.38 z m 226.17,-0.28 c -0.37,-0.69 -0.43,-3.61 -0.09,-3.82 0.13,-0.08 2.51,-0.25 5.3,-0.37 4.71,-0.21 5.1,-0.28 5.77,-0.94 0.67,-0.66 1,-3 0.36,-3.38 a 21.85,21.85 0 0 0 -4,-0.16 c -4.24,0.06 -4.39,0 -4.25,-2.48 l 0.09,-1.64 3.89,-0.19 a 27,27 0 0 0 4.23,-0.41 c 0.43,-0.26 0.45,-2.78 0,-3.58 -0.29,-0.54 -0.68,-0.6 -4.31,-0.6 -4.62,0 -4.51,-0.06 -5.37,3.39 -0.86,3.45 -0.86,3.39 -2.54,3.38 -2.16,0 -2.86,-0.26 -2.86,-1.05 a 49.79,49.79 0 0 1 2.61,-9 3.14,3.14 0 0 1 1.22,-1 57.86,57.86 0 0 1 7.14,-0.35 c 7,-0.09 7.64,0 8.86,1.67 0.6,0.82 0.65,1.33 0.74,8.15 0.11,8.34 -0.06,9.18 -2.13,11 -1.66,1.41 -2.94,1.68 -9.11,1.87 -5,0.16 -5.32,0.14 -5.62,-0.43 z M 321.37,30 c -1.34,-0.18 -1.26,-0.61 0.21,-1.21 1.47,-0.6 1.53,-0.87 2.33,-5.05 0.27,-1.43 0.57,-2.85 0.65,-3.15 0.08,-0.3 -0.08,-0.63 -0.63,-0.84 -1,-0.39 -1,-0.68 0.2,-1.24 0.93,-0.44 1,-0.63 1.68,-3.69 0.9,-4.22 0.89,-4.61 -0.13,-5.43 -0.47,-0.37 -0.73,-0.79 -0.59,-0.93 a 89.9,89.9 0 0 1 9.46,-0.37 c 8.08,-0.09 9.24,0 9.39,0.37 a 12,12 0 0 1 -0.38,3.18 c -0.43,2.06 -0.69,2.73 -1.11,2.81 a 0.62,0.62 0 0 1 -0.71,-0.46 c -1.09,-3.41 -1.91,-4.1 -4.87,-4.09 a 8.72,8.72 0 0 0 -2.62,0.27 c -0.5,0.32 -1.92,7.13 -1.56,7.52 0.36,0.39 2.8,-0.82 3.82,-1.91 1.69,-1.8 2.36,-1.18 1.73,1.59 -0.16,0.71 -0.52,2.37 -0.79,3.68 -0.6,2.87 -1.09,3.05 -2.46,0.91 -0.94,-1.46 -2.35,-2.3 -2.91,-1.74 a 36.6,36.6 0 0 0 -1.66,7.6 c 0.2,0.33 4.21,0.3 5.09,0 a 12.93,12.93 0 0 0 4.06,-4 c 0.5,-1 1.21,-1.29 1.56,-0.72 a 14.34,14.34 0 0 1 -0.48,3.38 c -0.47,2.21 -0.8,3.14 -1.16,3.24 -0.71,0.19 -16.92,0.45 -18.12,0.28 z m 42.92,0 a 10.93,10.93 0 0 1 0,-4.3 4,4 0 0 1 1.33,-0.81 4.77,4.77 0 0 0 1.77,-1.39 c 0.63,-0.88 0.66,-1.26 0.66,-7.75 a 45,45 0 0 1 0.32,-7.42 c 0.27,-0.49 0.66,-0.59 2.23,-0.59 A 7,7 0 0 1 373,8 c 0.37,0.24 0.45,1.57 0.46,7.92 v 7.64 l -0.87,1.77 a 8.86,8.86 0 0 1 -4.81,4.38 c -1.37,0.49 -3.15,0.62 -3.5,0.26 z m 19,-0.52 a 9.53,9.53 0 0 1 -2.68,-2 c -2,-2.28 -2.16,-3.28 -2.31,-11.28 -0.09,-5 0,-7.32 0.22,-7.79 0.22,-0.47 0.57,-0.65 2.72,-0.57 l 2.37,0.09 0.15,7.29 c 0.19,8.7 0.09,8.45 3.7,10.11 0.49,0.23 0.8,2.92 0.47,4.21 -0.15,0.62 -0.37,0.71 -1.63,0.71 a 7.94,7.94 0 0 1 -3,-0.73 z m 69.87,0.31 a 11.74,11.74 0 0 1 -0.07,-2.51 c 0.09,-2.06 0.11,-2.1 1.08,-2.43 2.09,-0.71 2.08,-0.64 2.25,-9 l 0.15,-7.61 2.11,-0.29 c 3.29,-0.44 3.11,-0.88 3.21,7.84 0.06,6.08 0,7.8 -0.4,9.15 a 7.34,7.34 0 0 1 -4.79,4.83 c -2,0.59 -3.33,0.61 -3.54,0.06 z m 24.11,0.23 c -0.41,-0.4 -0.27,-4.73 0.16,-4.78 0.21,0 3.22,-0.13 6.69,-0.23 l 6.31,-0.19 V 13.11 l -6.59,-0.11 -6.62,-0.15 -0.1,-2.13 a 6.58,6.58 0 0 1 0.16,-2.37 76.13,76.13 0 0 1 8.27,-0.3 c 8.79,0 8.89,0 10,1.78 0.56,0.88 0.63,1.72 0.8,8.78 0.22,8.84 0.11,9.5 -1.65,10.71 -1.12,0.76 -1.17,0.77 -9.17,0.86 a 77.7,77.7 0 0 1 -8.25,-0.13 z m 20.32,0 a 7.81,7.81 0 0 1 -0.23,-2.44 v -2.22 l 1.89,-0.2 c 1,-0.11 3.88,-0.19 6.31,-0.19 H 510 l 1,-0.9 1,-0.9 0.16,-6.66 c 0.12,-5.46 0.23,-6.7 0.61,-6.94 0.6,-0.38 4.53,-0.39 4.76,0 0.1,0.15 0.2,3.38 0.23,7.16 0,6.31 0,7 -0.58,8.27 A 8.26,8.26 0 0 1 513,29.31 c -1.52,0.68 -2.06,0.73 -8.4,0.83 a 55.44,55.44 0 0 1 -7,-0.12 z m 25.69,-0.29 a 6.63,6.63 0 0 1 -3.52,-3 c -0.65,-1.23 -0.68,-1.64 -0.69,-9.68 0,-7.14 0.06,-8.45 0.46,-8.7 a 8.29,8.29 0 0 1 2.77,-0.22 l 2.31,0.08 0.08,1.54 c 0.16,3.2 -0.46,2.92 6.55,2.92 h 6.17 l -0.09,2.23 -0.09,2.24 -6.16,0.17 c -3.39,0.1 -6.2,0.2 -6.26,0.23 a 25.18,25.18 0 0 0 0,3.28 c 0.15,4.53 -0.26,4.28 7.42,4.47 l 6.23,0.16 0.09,2.13 c 0.07,1.49 0,2.2 -0.31,2.38 a 55.75,55.75 0 0 1 -7.17,0.24 c -5.19,-0.02 -6.99,-0.13 -7.77,-0.47 z M 540.54,30 c -0.43,-0.18 -0.54,-3.39 -0.14,-4 0.15,-0.23 1.26,-0.41 3,-0.46 l 2.76,-0.09 0.1,-1.61 c 0.13,-2.39 -0.23,-2.86 -2.22,-2.86 -1.99,0 -2.42,-0.41 -2.31,-2.06 0.14,-2.07 0.36,-2.25 2.68,-2.22 3.82,0 5.3,0.39 6.27,1.47 0.82,0.92 0.87,1.14 0.87,3.72 0,3.67 0,3.71 2,3.71 1.32,0 1.72,0.12 2,0.6 0.44,0.81 0.41,3.2 0,3.65 -0.27,0.27 -2.33,0.36 -7.46,0.35 -3.91,0 -7.27,-0.1 -7.48,-0.18 z M 410.47,29.72 c -0.4,-0.41 -0.27,-4.34 0.16,-4.69 a 21.66,21.66 0 0 1 4.9,-0.42 c 4.32,-0.1 4.55,-0.14 5.35,-0.88 1.3,-1.2 1.59,-2.25 2.49,-9 a 41,41 0 0 1 1.17,-6.5 10.42,10.42 0 0 1 2.73,-0.23 h 2.38 v 0.9 c 0,0.48 -0.21,2.45 -0.47,4.39 -0.26,1.94 -0.67,5.14 -0.92,7.13 a 28.8,28.8 0 0 1 -0.82,4.46 9.37,9.37 0 0 1 -3.86,4.12 c -1.34,0.66 -1.95,0.73 -7.16,0.83 a 40.06,40.06 0 0 1 -5.93,-0.12 z m 22.86,-2.25 V 25 h 1.86 a 9.56,9.56 0 0 0 2.88,-0.43 c 1.79,-0.75 2,-1.41 2,-5.65 v -3.81 h -4 a 22,22 0 0 1 -4.62,-0.31 c -0.5,-0.27 -0.59,-0.66 -0.59,-2.43 0,-2.56 -0.18,-2.48 5.24,-2.48 h 3.9 l 0.3,-1 0.29,-1 h 4.87 l 0.36,1.11 0.36,1.08 4.28,0.15 4.28,0.15 V 15 h -4.2 a 26.65,26.65 0 0 0 -4.41,0.2 26.27,26.27 0 0 0 -0.32,4.25 c -0.15,4.68 -0.57,6 -2.57,8 -1.76,1.75 -3.05,2.22 -6.74,2.42 l -3.15,0.17 v -2.57 z m 32.67,1.63 -0.75,-0.8 -0.09,-10 c -0.09,-10 -0.09,-10 0.58,-10.32 0.67,-0.32 4.37,-0.31 4.72,0 0.08,0.08 0.17,3.12 0.21,6.76 0.04,3.64 0.14,7.3 0.24,8.14 0.21,1.75 0.23,1.75 3.81,1.26 l 1.77,-0.25 v 2.31 c 0,1.57 -0.14,2.42 -0.42,2.65 -0.53,0.44 -4.28,0.94 -7.15,0.95 -1.95,0 -2.26,-0.07 -2.92,-0.78 z m 86.65,-8.31 a 9.23,9.23 0 0 1 0.32,-4.07 c 0.27,-0.27 17.17,-0.5 18.2,-0.24 0.71,0.18 0.75,0.31 0.75,2.45 v 2.26 l -1,0.2 c -0.53,0.1 -4.82,0.19 -9.54,0.19 H 552.8 Z M 393.7,21 h -4.4 l 0.09,-2.37 0.09,-2.36 1,-0.2 c 0.53,-0.11 4.78,-0.13 9.46,0 l 8.51,0.15 v 2.39 c 0,1.89 -0.1,2.43 -0.48,2.57 -0.38,0.14 -4.55,0.07 -14.27,-0.18 z m 16.13,-2.77 a 79.32,79.32 0 0 1 -1.06,-9.5 c 0.1,-0.89 0.11,-0.89 2.49,-1 1.74,-0.07 2.43,0 2.54,0.31 0.23,0.63 1.39,8.8 1.39,9.8 v 0.91 h -2.6 c -2.21,0 -2.62,-0.08 -2.76,-0.54 z m 129.82,-3.9 c -3.21,-1.45 -2.11,-6.46 1.51,-6.87 a 3.5,3.5 0 0 1 4.15,4 4,4 0 0 1 -5.66,2.91 z m 2.92,-3.13 a 1.28,1.28 0 0 0 -0.38,-1 1,1 0 0 0 -1.39,1.39 1,1 0 0 0 1.77,-0.35 z M 386.25,14 a 3.85,3.85 0 0 1 -2,-3.8 c 0.89,-4.08 6.81,-4.3 7.7,-0.29 a 3.89,3.89 0 0 1 -5.7,4.09 z m 2.61,-3.33 c 0,-0.7 -0.14,-0.92 -0.58,-0.92 a 1.14,1.14 0 0 0 -1,1.52 0.77,0.77 0 0 0 0.9,0.42 c 0.54,-0.07 0.69,-0.3 0.69,-1 z m 108.77,2.21 a 4.06,4.06 0 0 1 -0.39,-2.38 c 0,-1.93 0.05,-2 1,-2.21 a 41.25,41.25 0 0 1 5.67,-0.17 l 4.7,0.09 v 4.92 l -5.28,0.09 c -4.14,0.04 -5.33,-0.03 -5.7,-0.36 z M 700.2,46.21 a 2.44,2.44 0 1 1 -2.44,-2.44 2.44,2.44 0 0 1 2.44,2.44 z m -5.83,0 a 2.44,2.44 0 1 1 -2.44,-2.44 2.44,2.44 0 0 1 2.44,2.44 z" />
      <path
         d="M 315.54,84.16 V 71.55 h 2.16 a 9.19,9.19 0 0 0 5.88,-1.66 5.8,5.8 0 0 0 2.06,-4.8 5.64,5.64 0 0 0 -2.06,-4.69 9.25,9.25 0 0 0 -5.88,-1.64 h -4 v 47.49 h -13.91 v -60.1 h 16.91 a 43,43 0 0 1 9.64,0.94 18.9,18.9 0 0 1 7,3.1 13.8,13.8 0 0 1 4.55,5.91 23.22,23.22 0 0 1 1.59,9.07 18.9,18.9 0 0 1 -1.59,7.88 17.15,17.15 0 0 1 -4.43,6 20.32,20.32 0 0 1 -6.74,3.79 25.08,25.08 0 0 1 -8.17,1.34 z"
         id="path164" />
      <path
         d="m 376.74,78.69 v -8.53 h 31.73 v 8.53 z"
         id="path166" />
      <path
         d="M 437.53,105.66 421,105.53 q 7.93,-8.13 11.78,-12.34 a 65.31,65.31 0 0 0 6.72,-8.65 l -0.16,-0.17 a 11.08,11.08 0 0 1 -4.42,0.8 15.86,15.86 0 0 1 -9,-2.56 16.92,16.92 0 0 1 -5.92,-6.94 22.07,22.07 0 0 1 -2.09,-9.62 23.73,23.73 0 0 1 2.53,-11.14 18,18 0 0 1 7.18,-7.5 20.94,20.94 0 0 1 10.55,-2.64 22.1,22.1 0 0 1 10.94,2.7 18.77,18.77 0 0 1 7.52,7.67 24.1,24.1 0 0 1 2.67,11.59 36,36 0 0 1 -5.82,19.53 116.32,116.32 0 0 1 -15.95,19.4 z m 8.65,-39.77 a 7.93,7.93 0 0 0 -1,-4 8.06,8.06 0 0 0 -2.83,-2.89 7.25,7.25 0 0 0 -3.87,-1.09 6.9,6.9 0 0 0 -5.26,2.35 8.09,8.09 0 0 0 -2.15,5.66 9.1,9.1 0 0 0 0.93,4.08 7.35,7.35 0 0 0 2.68,3 6.86,6.86 0 0 0 3.78,1.09 7.21,7.21 0 0 0 5.54,-2.42 8.15,8.15 0 0 0 2.18,-5.78 z"
         id="path168" />
      <path
         d="m 524.77,44.77 a 17.59,17.59 0 0 1 10.23,2.85 19.31,19.31 0 0 1 6.44,7.43 35.86,35.86 0 0 1 3.21,9.95 62.33,62.33 0 0 1 0.94,10.93 58.74,58.74 0 0 1 -1.8,14.57 25.26,25.26 0 0 1 -6.44,11.79 Q 532.71,107 524.77,107 a 17.13,17.13 0 0 1 -10,-2.83 19.25,19.25 0 0 1 -6.4,-7.54 36.79,36.79 0 0 1 -3.23,-9.93 61.48,61.48 0 0 1 -0.92,-10.8 62.15,62.15 0 0 1 0.92,-10.83 36.26,36.26 0 0 1 3.23,-9.95 19.36,19.36 0 0 1 6.4,-7.53 17.2,17.2 0 0 1 10,-2.82 z m 0,13.36 a 5.17,5.17 0 0 0 -4.44,2.25 14.68,14.68 0 0 0 -2.33,6.16 54.87,54.87 0 0 0 -0.68,9.36 57,57 0 0 0 0.66,9.33 14.4,14.4 0 0 0 2.31,6.18 5.21,5.21 0 0 0 4.44,2.26 q 7.69,0 7.7,-17.77 0.01,-17.77 -7.66,-17.77 z"
         id="path170" />
      <path
         d="m 568.16,44.77 a 17.61,17.61 0 0 1 10.21,2.85 19.39,19.39 0 0 1 6.44,7.43 36.19,36.19 0 0 1 3.19,9.95 63.31,63.31 0 0 1 1,10.9 58.74,58.74 0 0 1 -1.79,14.57 25.34,25.34 0 0 1 -6.44,11.79 Q 576.09,107 568.16,107 a 17.16,17.16 0 0 1 -10,-2.83 19.33,19.33 0 0 1 -6.4,-7.54 37.14,37.14 0 0 1 -3.23,-9.93 62.45,62.45 0 0 1 -0.92,-10.8 63.14,63.14 0 0 1 0.92,-10.83 36.6,36.6 0 0 1 3.23,-9.95 19.44,19.44 0 0 1 6.4,-7.53 17.23,17.23 0 0 1 10,-2.82 z m 0,13.36 a 5.18,5.18 0 0 0 -4.45,2.25 14.82,14.82 0 0 0 -2.29,6.16 55.91,55.91 0 0 0 -0.68,9.36 57,57 0 0 0 0.66,9.33 14.53,14.53 0 0 0 2.31,6.18 5.24,5.24 0 0 0 4.45,2.26 q 7.7,0 7.69,-17.77 -0.01,-17.77 -7.69,-17.77 z"
         id="path172" />
      <path
         d="m 462.77,62.37 a 19.24,19.24 0 0 1 1.47,-7.82 14.6,14.6 0 0 1 4.23,-5.55 18,18 0 0 1 6.26,-3.23 26.76,26.76 0 0 1 7.5,-1 18.68,18.68 0 0 1 12.92,4.63 q 5.18,4.62 5.18,12.88 a 15.14,15.14 0 0 1 -1.67,6.88 12.88,12.88 0 0 1 -4.3,5 0.11,0.11 0 0 0 0,0.18 20.28,20.28 0 0 1 5.91,6.24 16.86,16.86 0 0 1 1.93,8.46 16.34,16.34 0 0 1 -1.75,7.63 17.06,17.06 0 0 1 -4.72,5.7 21.14,21.14 0 0 1 -6.64,3.46 24.75,24.75 0 0 1 -7.46,1.15 24,24 0 0 1 -9.93,-2.12 17.94,17.94 0 0 1 -7.56,-6.22 16.43,16.43 0 0 1 -2.85,-9.6 15.93,15.93 0 0 1 2.2,-8.09 18.37,18.37 0 0 1 5.51,-6.05 0.11,0.11 0 0 0 0,-0.18 14.94,14.94 0 0 1 -6.23,-12.35 z M 482,56.88 a 6.37,6.37 0 1 0 6.06,6.36 6.22,6.22 0 0 0 -6.06,-6.36 z m 0,23.65 a 7.19,7.19 0 1 0 6.83,7.18 7,7 0 0 0 -6.83,-7.18 z"
         id="path174" />
      <path
         d="m 374.27,59.28 a 12.36,12.36 0 0 0 -4.85,-1 12.73,12.73 0 0 0 -7.5,2.47 17.71,17.71 0 0 0 -5.46,6.54 19.35,19.35 0 0 0 -2,8.55 18.81,18.81 0 0 0 2,8.55 17.25,17.25 0 0 0 5.54,6.61 12.37,12.37 0 0 0 7.46,2.47 12.16,12.16 0 0 0 4.85,-1 v 14 a 25.61,25.61 0 0 1 -18.81,-3.69 29.76,29.76 0 0 1 -10.2,-11.28 34.53,34.53 0 0 1 0,-31.3 30.11,30.11 0 0 1 10.2,-11.32 25.29,25.29 0 0 1 14,-4.15 25.89,25.89 0 0 1 4.85,0.45 z"
         id="path176" />
    </g>
    <g
       id="Layer_3"
       data-name="Layer 3">
      <rect
         x="367.57001"
         y="83.900002"
         width="11.17"
         height="8.5"
         fill="#ffffff"
         id="rect179" />
      <rect
         x="374.45001"
         y="88.150002"
         width="4.96"
         height="9.0299997"
         fill="#ffffff"
         id="rect181" />
    </g>
  </g>
  <metadata
     id="metadata1005">
    <rdf:RDF>
      <cc:Work
         rdf:about="">
        <dc:title>logo</dc:title>
      </cc:Work>
    </rdf:RDF>
  </metadata>
</svg>
