<?xml version="1.0" encoding="UTF-8" standalone="no"?>
<svg
   viewBox="0 0 319.29086 113.99999"
   version="1.1"
   id="svg288"
   sodipodi:docname="pcfx.svg"
   width="319.29086"
   height="113.99999"
   inkscape:version="1.1 (c68e22c387, 2021-05-23)"
   xmlns:inkscape="http://www.inkscape.org/namespaces/inkscape"
   xmlns:sodipodi="http://sodipodi.sourceforge.net/DTD/sodipodi-0.dtd"
   xmlns="http://www.w3.org/2000/svg"
   xmlns:svg="http://www.w3.org/2000/svg"
   xmlns:rdf="http://www.w3.org/1999/02/22-rdf-syntax-ns#"
   xmlns:cc="http://creativecommons.org/ns#"
   xmlns:dc="http://purl.org/dc/elements/1.1/">
  <defs
     id="defs292" />
  <sodipodi:namedview
     id="namedview290"
     pagecolor="#ffffff"
     bordercolor="#666666"
     borderopacity="1.0"
     inkscape:pageshadow="2"
     inkscape:pageopacity="0.0"
     inkscape:pagecheckerboard="0"
     showgrid="false"
     fit-margin-top="0"
     fit-margin-left="0"
     fit-margin-right="0"
     fit-margin-bottom="0"
     inkscape:zoom="1.113"
     inkscape:cx="159.47889"
     inkscape:cy="56.603774"
     inkscape:window-width="1920"
     inkscape:window-height="1138"
     inkscape:window-x="-8"
     inkscape:window-y="-8"
     inkscape:window-maximized="1"
     inkscape:current-layer="svg288" />
  <title
     id="title2">logo</title>
  <g
     id="g1254"
     transform="translate(-340.35457)">
    <g
       id="Layer_2"
       data-name="Layer 2">
      <rect
         x="368.3873"
         y="50.545792"
         width="29.994631"
         height="37.649681"
         fill="#ffffff"
         id="rect4" />
      <rect
         x="419.47473"
         y="34.416611"
         width="11.80146"
         height="31.96034"
         fill="#ffffff"
         id="rect6" />
      <rect
         x="542.19525"
         y="66.376953"
         width="19.171709"
         height="20.646481"
         fill="#ffffff"
         id="rect8" />
      <rect
         x="548.57739"
         y="60.355171"
         width="10.87137"
         height="13.48108"
         fill="#ffffff"
         id="rect10" />
      <rect
         x="613.56561"
         y="68.126038"
         width="17.72146"
         height="17.72146"
         fill="#ffffff"
         id="rect12" />
      <rect
         x="587.90881"
         y="25.96385"
         width="25.656799"
         height="27.58144"
         fill="#ffffff"
         id="rect14" />
      <rect
         x="572.1651"
         y="41.668522"
         width="35.646648"
         height="44.543171"
         fill="#ffffff"
         id="rect16" />
      <rect
         x="443.08759"
         y="19.40946"
         width="25.52194"
         height="28.42795"
         fill="#ffffff"
         id="rect18" />
      <rect
         x="445.82025"
         y="56.216969"
         width="44.36385"
         height="29.63055"
         fill="#ffffff"
         id="rect20" />
      <rect
         x="479.07086"
         y="15.2632"
         width="73.760887"
         height="59.70182"
         fill="#ffffff"
         id="rect22" />
    </g>
    <g
       id="Capa_1"
       data-name="Capa 1">
      <path
         d="m 386.25361,110.50006 a 3.50135,3.50135 0 0 1 -1.73144,-0.458 L 345.67744,87.9317 a 3.50056,3.50056 0 0 1 -1.76855,-3.042 v -0.17432 a 3.36526,3.36526 0 0 1 -0.0542,-0.60156 V 39.90826 a 3.50059,3.50059 0 0 1 1.83935,-3.081 l 1.32129,-0.7124 a 3.50013,3.50013 0 0 1 1.83838,-2.98975 l 31.04785,-16.73535 a 6.63827,6.63827 0 0 1 3.17774,-7.73736 6.63009,6.63009 0 0 1 11.269,-2.23291 5.5146,5.5146 0 0 1 3.80273,-0.28418 c 9.8003,1.54 17.85352,4.83838 23.937,9.80469 5.418,4.50537 8.36914,10.28125 8.13769,15.88623 0.0937,5.25391 -1.96973,10.4751 -6.13525,15.52491 a 34.083,34.083 0 0 1 -4.59473,6.16406 22.45751,22.45751 0 0 1 -4.0498,6.41113 19.34166,19.34166 0 0 1 -2.93506,4.28027 c -0.24756,0.54248 -0.51563,1.103 -0.83155,1.66358 l 14.79493,-8.42139 a 3.50008,3.50008 0 0 1 5.23144,3.042 v 19.93505 a 3.50055,3.50055 0 0 1 -1.76855,3.042 l -1.33789,0.76123 v 0.66065 a 3.50057,3.50057 0 0 1 -1.76856,3.042 l -38.8457,22.11035 a 3.50139,3.50139 0 0 1 -1.73139,0.45799 z m 6.61426,-84.30664 c 8.57764,0.92871 15.37939,3.3667 20.7207,7.41553 a 17.40535,17.40535 0 0 1 2.51172,2.24756 7.0479,7.0479 0 0 0 -0.66748,-2.84473 c -2.2583,-3.91162 -6.61914,-7.01025 -13.32715,-9.47217 q -0.0857,-0.03148 -0.16992,-0.06738 a 25.38649,25.38649 0 0 0 -5.14306,-1.34522 c -1.28614,-0.24609 -2.59913,-0.49755 -3.92481,-0.86572 z"
         fill="#010101"
         id="path25" />
      <path
         d="m 389.36013,7.65388 a 3.13293,3.13293 0 0 1 0,6.26585 c -0.0103,0 -0.0197,-0.0028 -0.0299,-0.003 a 2.80723,2.80723 0 0 1 -0.0748,1.40708 l 0.11246,-0.06067 V 29.41 c 7.74965,0.47626 15.79524,2.20423 22.10656,6.98785 2.46662,1.79955 4.142,4.38253 5.72444,6.94226 l 0.13959,-0.13965 c 0.21715,-0.20908 0.42835,-0.42967 0.63783,-0.65281 1.74729,-3.51648 2.32171,-7.58436 0.55365,-11.17066 -3.21133,-5.66241 -9.3003,-8.95123 -15.21865,-11.12311 -3.68445,-1.57459 -7.81871,-1.52809 -11.50315,-3.04059 a 2.09763,2.09763 0 0 1 1.72067,-3.3255 2.057,2.057 0 0 1 0.71492,0.1297 c 8.04371,1.23333 16.14941,3.89386 22.52541,9.09862 a 20.12139,20.12139 0 0 1 5.9063,7.75209 10.46082,10.46082 0 0 0 -1.03974,-3.95679 c -3.21129,-5.66236 -9.3003,-8.95118 -15.21862,-11.12307 -3.68444,-1.57385 -7.81873,-1.52726 -11.50317,-3.03984 a 2.09762,2.09762 0 0 1 1.72067,-3.3255 2.05676,2.05676 0 0 1 0.71494,0.12972 c 8.04368,1.2333 16.14941,3.89385 22.52538,9.09858 3.87059,3.21907 7.11291,7.88854 6.84918,13.13207 0.12677,5.14638 -2.29161,9.72176 -5.52736,13.57332 a 30.76808,30.76808 0 0 1 -4.65635,6.19353 19.21927,19.21927 0 0 1 -3.96534,6.30126 16.06412,16.06412 0 0 1 -3.00536,4.36329 11.87307,11.87307 0 0 1 -2.121,3.55841 c -0.43612,0.4721 -0.77553,0.80042 -1.04644,1.04271 a 11.458,11.458 0 0 1 -2.05936,3.422 c -0.13785,0.14931 -0.26443,0.28174 -0.384,0.40417 a 13.85332,13.85332 0 0 1 -2.1585,2.47605 c -0.0998,0.27408 -0.21559,0.61387 -0.36627,1.068 a 13.08806,13.08806 0 0 1 -2.02447,2.69515 l 28.79589,-16.39032 v 19.9347 l -3.10651,1.76818 v 2.69574 L 386.25354,107 347.40884,84.88953 v -0.80512 l -0.0543,0.0295 V 39.90849 l 3.16,-1.70335 v -1.99891 l 34.79894,-18.75768 a 3.12421,3.12421 0 0 1 0.94,-6.10638 c 0.0103,0 0.0197,0.0029 0.0299,0.003 a 3.10248,3.10248 0 0 1 3.07668,-3.69126 m 24.15456,39.22549 c 0.0485,-0.03485 0.0987,-0.06738 0.14715,-0.10235 a 11.76785,11.76785 0 0 0 -3.42071,-6.12 c -5.58674,-5.1302 -13.48121,-6.88647 -20.87324,-7.01044 v 0.49171 c 6.75489,0.72952 13.52941,2.57794 19.0008,6.72508 a 21.078,21.078 0 0 1 5.146,6.016 m -6.35657,3.66637 c 0.73641,0 1.524,-0.69087 2.222,-0.88325 0.18385,-0.117 0.36462,-0.23955 0.54791,-0.35759 a 10.16151,10.16151 0 0 0 -2.79271,-4.1839 c -4.80976,-4.41668 -11.32991,-6.32892 -17.76747,-6.85571 v 6.36658 c 5.9626,0.39165 12.1048,1.76142 16.91736,5.48053 a 1.11883,1.11883 0 0 0 0.87287,0.43334 m -5.8399,2.74573 c 0.12311,-0.03607 0.23633,-0.071 0.32618,-0.1035 1.487,-0.45221 0.913,-0.69118 0.41343,-1.07436 -3.78308,-2.36438 -8.30973,-3.04729 -12.68994,-3.30376 v 0.59668 a 29.95937,29.95937 0 0 1 11.95033,3.88494 m -10.48678,1.512 c 1.07172,0 3.11446,-0.12857 3.11446,-0.12857 0.18788,-0.0262 0.38015,-0.05379 0.575,-0.08241 a 29.33133,29.33133 0 0 0 -5.153,-1.04723 v 1.1875 c 0.57027,0.03621 0.98,0.05841 1.12471,0.0647 0.0955,0.0042 0.2101,0.006 0.33884,0.006 m 5.42616,7.61581 c 0.38777,-0.05556 0.77564,-0.10994 1.16177,-0.1754 A 2.40709,2.40709 0 0 0 397.149,61.92748 c -0.44368,0.1191 -0.88741,0.24086 -1.33076,0.35907 0.14747,0.04063 0.29353,0.08632 0.43926,0.13275 m -10.6695,4.98275 c 1.79441,0 3.593,-0.07808 5.3814,-0.25158 q -1.03656,0.0465 -2.07379,0.04654 a 45.72708,45.72708 0 0 1 -8.63488,-0.82 l -1.09594,0.59073 c 0.688,0.09468 1.37364,0.159 1.98564,0.28389 1.47134,0.097 2.953,0.15046 4.43757,0.15046 m 0.263,6.43418 a 31.069,31.069 0 0 0 4.10255,-0.36388 q -0.50507,0.01257 -1.01467,0.0128 c -3.94725,0 -8.04933,-0.59848 -11.33056,-2.54971 q -1.50282,-0.27358 -2.989,-0.644 c 2.84674,3.02516 7.33783,3.35866 11.23169,3.5448 M 370.7889,72.03082 c -0.0761,-0.10412 -0.16059,-0.19682 -0.23409,-0.30438 -0.0156,-0.03491 -0.0248,-0.0628 -0.0396,-0.09692 l -0.2215,0.11944 0.49518,0.28186 m 15.09171,5.92145 a 30.68259,30.68259 0 0 1 -5.49363,-0.45836 l 8.97315,5.10741 1.706,-0.971 a 1.58252,1.58252 0 0 1 -1.51518,-1.17761 c -0.21067,-0.93 3.03539,-3.032 1.94782,-3.03177 a 5.58651,5.58651 0 0 0 -1.38161,0.32474 c -1.35837,0.12573 -2.78635,0.2066 -4.23652,0.2066 m 3.47949,-77.2984 a 10.1447,10.1447 0 0 0 -9.08274,5.64276 10.126,10.126 0 0 0 -4.15673,8.155 L 347.19319,30.0444 a 6.99923,6.99923 0 0 0 -3.25088,3.75211 6.99994,6.99994 0 0 0 -3.58774,6.112 v 44.2054 a 8.52749,8.52749 0 0 0 3.5915,6.85914 l 38.84471,22.11048 a 7,7 0 0 0 6.92547,0 l 38.84553,-22.11048 a 7.00019,7.00019 0 0 0 3.38513,-4.63118 7.00024,7.00024 0 0 0 3.25867,-5.91629 V 60.49091 a 7,7 0 0 0 -10.46271,-6.08356 l -2.44887,1.39386 q 0.0787,-0.1656 0.15555,-0.33079 a 37.412,37.412 0 0 0 4.52856,-6.12134 c 4.5609,-5.61078 6.8299,-11.48842 6.74869,-17.48361 0.23694,-6.67023 -3.16857,-13.43365 -9.37593,-18.59609 l -0.0494,-0.04074 C 417.76959,7.89664 409.22028,4.35818 398.8832,2.70758 a 9.00942,9.00942 0 0 0 -2.24865,-0.28456 8.90783,8.90783 0 0 0 -1.40093,0.11109 10.0775,10.0775 0 0 0 -5.87349,-1.88023 z"
         fill="#ffffff"
         id="path27" />
      <path
         d="m 542.75508,107.39948 q -54.81592,0 -109.64063,-0.01 a 3.50008,3.50008 0 0 1 -3.499,-3.50879 q 0.0117,-4.64576 0,-9.28271 a 3.50008,3.50008 0 0 1 3.5,-3.50879 h 219.52976 a 3.49954,3.49954 0 0 1 3.5,3.5 v 9.3081 a 3.50017,3.50017 0 0 1 -3.5,3.5 z"
         fill="#010101"
         id="path29" />
      <path
         d="m 606.1461,94.58707 q 23.2473,0 46.49933,0.0022 v 9.308 q -54.96291,0 -109.92565,0.002 -54.80207,0 -109.60418,-0.01 0.0116,-4.65408 0,-9.30028 23.14682,0.0025 46.28471,0.0022 63.37072,0 126.74579,-0.0045 m 0,-7 -63.37328,0.0022 -63.37249,0.0022 -46.284,-0.0022 a 7.00008,7.00008 0 0 0 -7.00073,7.01759 q 0.0116,4.62486 0,9.26514 a 7.00008,7.00008 0 0 0 6.9985,7.01755 q 54.80275,0.0116 109.60568,0.01 l 54.963,-0.001 54.96265,-10e-4 a 7,7 0 0 0 7,-7 v -9.308 a 7,7 0 0 0 -6.9993,-7 l -46.5,-0.0022 z"
         fill="#ffffff"
         id="path31" />
      <path
         d="m 433.44893,81.27252 a 3.49985,3.49985 0 0 1 -3.5,-3.5 v -53.626 a 3.41083,3.41083 0 0 1 0,-1.08252 V 8.607 a 3.49924,3.49924 0 0 1 3.5,-3.5 l 17.53955,0.00733 c 0.13867,-0.0044 0.36621,-0.00733 0.59375,-0.00733 a 27.83537,27.83537 0 0 1 22.46877,11.30126 29.55964,29.55964 0 0 1 5.70947,15.936 c 0.38769,12.2041 -7.335,23.76074 -18.36622,27.59033 a 35.21884,35.21884 0 0 1 -12.70849,1.85254 h -4.60058 v 15.98539 a 3.49986,3.49986 0 0 1 -3.5,3.5 z m 13.21191,-33.13769 c 1.90185,0 3.79443,-0.0068 5.70508,-0.03272 a 14.06037,14.06037 0 0 0 10.812,-5.62939 c 0.021,-0.02783 0.042,-0.05567 0.0635,-0.083 a 15.17336,15.17336 0 0 0 0.998,-16.51074 14.87077,14.87077 0 0 0 -11.90918,-7.2959 c -1.65039,-0.07568 -3.49316,-0.11133 -5.90478,-0.11133 q -1.20191,0 -2.40332,0.0083 l 0.0562,29.65186 z"
         fill="#010101"
         id="path33" />
      <path
         d="m 451.58094,8.60675 a 24.28076,24.28076 0 0 1 19.64327,9.86614 25.90615,25.90615 0 0 1 5.04187,14.07064 c 0.32573,10.28539 -6.2054,20.70262 -16.06416,24.1 a 31.99565,31.99565 0 0 1 -11.51708,1.64368 h -8.09956 v 19.48556 h -7.13619 v -54.1463 l -0.0465,0.0038 0.0465,-0.204 V 8.60718 l 17.53794,0.00695 q 0.29688,-0.00738 0.59391,-0.00738 m -4.8847,43.02814 c 1.906,0 3.80261,-0.0068 5.718,-0.03316 a 17.53455,17.53455 0 0 0 13.5742,-7.04308 18.61009,18.61009 0 0 0 1.27208,-20.44665 18.2759,18.2759 0 0 0 -14.69892,-9.021 c -2.046,-0.095 -4.0936,-0.11928 -6.1426,-0.11928 -1.96713,0 -3.93554,0.02241 -5.90356,0.0262 l 0.0698,36.62939 c 2.07,0 4.09579,0.0076 6.111,0.0076 m 4.8847,-50.02813 q -0.337,0 -0.67407,0.00734 l -17.455,-0.00692 h -0.003 a 7,7 0 0 0 -7,7 v 14.21718 a 6.998,6.998 0 0 0 0,1.61176 v 53.33665 a 7,7 0 0 0 7,7 h 7.13619 a 7,7 0 0 0 7,-7 V 65.28723 h 1.09956 a 39.02144,39.02144 0 0 0 13.90306,-2.06218 c 12.41643,-4.33471 21.10509,-17.3118 20.67467,-30.9031 q -0.003,-0.0882 -0.008,-0.17632 A 33.10012,33.10012 0 0 0 476.87724,14.34344 31.392,31.392 0 0 0 451.58094,1.60676 Z m -4.009,43.02759 -0.0432,-22.65986 c 1.79718,0.0094 3.26094,0.043 4.63295,0.10552 a 11.25845,11.25845 0 0 1 8.97251,5.41851 q 0.0411,0.07429 0.0839,0.14758 a 11.55464,11.55464 0 0 1 -0.72334,12.57432 q -0.0649,0.08214 -0.12729,0.16624 a 10.49615,10.49615 0 0 1 -8.066,4.216 c -1.4004,0.01926 -2.8894,0.02937 -4.72952,0.03172 z"
         fill="#ffffff"
         id="path35" />
      <path
         d="m 543.9167,51.88873 a 3.5004,3.5004 0 0 1 -3.43994,-4.14648 25.84855,25.84855 0 0 0 -0.51807,-11.84619 3.49982,3.49982 0 0 1 3.36914,-4.44776 h 10.499 a 3.49986,3.49986 0 0 1 3.5,3.5 v 13.43994 a 3.50027,3.50027 0 0 1 -3.5,3.50049 z"
         fill="#010101"
         id="path37" />
      <path
         d="m 553.82673,34.94812 v 13.4408 h -9.91 a 29.34989,29.34989 0 0 0 -0.58875,-13.4408 h 10.49872 m 0,-7 H 543.328 a 7,7 0 0 0 -6.73867,8.89478 22.35044,22.35044 0 0 1 0.44772,10.25384 7,7 0 0 0 6.8797,8.29218 h 9.91 a 7,7 0 0 0 7,-7 v -13.4408 a 7,7 0 0 0 -7,-7 z"
         fill="#ffffff"
         id="path39" />
      <path
         d="m 514.9958,82.35016 a 39.42505,39.42505 0 1 1 35.49365,-56.57516 3.49975,3.49975 0 0 1 -3.15039,5.02442 h -7.40137 a 3.50066,3.50066 0 0 1 -2.96435,-1.63916 25.93193,25.93193 0 1 0 1.24466,25.31441 3.50015,3.50015 0 0 1 3.13232,-1.93848 h 7.08887 a 3.50011,3.50011 0 0 1 3.2583,4.77784 39.19994,39.19994 0 0 1 -36.70169,25.03613 z"
         fill="#010101"
         id="path41" />
      <path
         d="m 514.996,7 a 35.91334,35.91334 0 0 1 32.343,20.29926 h -7.40143 a 29.43184,29.43184 0 1 0 1.41254,28.73693 h 7.08881 A 35.9234,35.9234 0 1 1 514.996,7 m 0,-7 a 42.92559,42.92559 0 1 0 39.95961,58.59221 7,7 0 0 0 -6.51666,-9.556 h -7.08881 a 7,7 0 0 0 -6.26492,3.87736 22.43868,22.43868 0 1 1 -1.07608,-21.89229 7,7 0 0 0 5.92846,3.278 h 7.4014 A 7,7 0 0 0 553.64,24.25013 43.1838,43.1838 0 0 0 514.996,0 Z"
         fill="#ffffff"
         id="path43" />
      <path
         d="m 633.33076,81.296 a 3.49941,3.49941 0 0 1 -3.03808,-1.7627 l -9.6084,-16.80566 -9.60938,16.80562 a 3.49943,3.49943 0 0 1 -3.03808,1.7627 H 592.2209 a 3.50023,3.50023 0 0 1 -3.03858,-5.23731 l 19.5625,-34.21337 -11.19336,-19.57666 v 0.05175 a 3.49985,3.49985 0 0 1 -3.5,3.5 h -17.96289 v 5.62793 h 16.97461 a 3.49986,3.49986 0 0 1 3.5,3.5 v 13.43994 a 3.49985,3.49985 0 0 1 -3.5,3.5 H 576.08857 V 77.796 a 3.49986,3.49986 0 0 1 -3.5,3.5 h -13.13964 a 3.49986,3.49986 0 0 1 -3.5,-3.5 V 8.607 a 3.49986,3.49986 0 0 1 3.5,-3.5 h 50.13867 a 3.49943,3.49943 0 0 1 3.03808,1.7627 l 8.0586,14.09326 8.05761,-14.09326 A 3.49946,3.49946 0 0 1 631.78,5.107 h 15.81543 a 3.49982,3.49982 0 0 1 3.03809,5.23731 l -18.01075,31.501 19.5625,34.21337 a 3.4998,3.4998 0 0 1 -3.03808,5.23731 z"
         fill="#010101"
         id="path45" />
      <path
         d="m 647.59578,8.60719 -19.00391,33.23813 20.55524,35.95076 H 633.33119 L 620.68391,55.67632 608.03663,77.79608 H 592.22078 L 612.776,41.84532 594.05134,9.09557 v 13.22467 h -21.46277 v 12.62789 h 20.47455 v 13.44 h -20.47455 v 29.408 H 559.44874 V 8.60719 H 609.588 L 620.684,28.0144 631.78,8.60719 h 15.81592 m 0,-7 H 631.77986 A 7,7 0 0 0 625.703,5.13277 l -5.01907,8.77855 -5.0191,-8.77855 A 6.99991,6.99991 0 0 0 609.588,1.60719 h -50.13926 a 7,7 0 0 0 -7,7 v 69.18889 a 7,7 0 0 0 7,7 h 13.13983 a 7,7 0 0 0 7,-7 v -22.408 h 13.47455 a 6.98321,6.98321 0 0 0 5.28211,-2.40643 L 586.144,74.32158 a 7,7 0 0 0 6.07682,10.4745 h 15.81585 a 7,7 0 0 0 6.07685,-3.52551 l 6.57039,-11.49157 6.57047,11.49153 a 7,7 0 0 0 6.07681,3.52551 h 15.81592 a 7,7 0 0 0 6.07684,-10.4745 l -18.5687,-32.4763 17.0174,-29.76365 A 7,7 0 0 0 647.59578,1.60715 Z m 0,14 z m -51.06258,13.26028 q 0.31146,-0.11814 0.608,-0.26441 l 0.70639,1.23548 a 7.01946,7.01946 0 0 0 -1.31439,-0.97107 z m 3.17245,21.73462 a 6.99354,6.99354 0 0 0 0.35733,-2.214 v -13.44 a 7.02357,7.02357 0 0 0 -0.167,-1.527 l 4.81647,8.42412 -5.00678,8.7568 z"
         fill="#ffffff"
         id="path47" />
      <path
         d="m 440.70332,94.98639 a 3.50292,3.50292 0 0 0 -3.02051,0 H 436.988 a 3.50637,3.50637 0 0 0 -3.00977,0 h -0.80469 a 3.49987,3.49987 0 0 1 -3.5,-3.5 v -8.0293 a 3.49987,3.49987 0 0 1 3.5,-3.5 h 1.25 a 3.49948,3.49948 0 0 1 2.917,1.56592 3.501,3.501 0 0 1 2.91748,-1.56592 h 1.24951 a 3.49987,3.49987 0 0 1 3.5,3.5 v 8.0293 a 3.49987,3.49987 0 0 1 -3.5,3.5 z"
         fill="#010101"
         id="path49" />
      <path
         d="m 441.50752,83.45691 v 8.02972 h -0.80432 v -7.14935 l -3.02045,7.14935 h -0.695 l -3.00964,-7.14935 v 7.14935 h -0.80432 v -8.02972 h 1.24957 l 2.92273,6.83441 2.91187,-6.83441 h 1.24957 m 0,-7 H 440.258 a 6.9889,6.9889 0 0 0 -2.9173,0.63673 6.9892,6.9892 0 0 0 -2.9173,-0.63673 h -1.24957 a 7,7 0 0 0 -7,7 v 8.02972 a 7,7 0 0 0 7,7 h 0.80432 a 7.03829,7.03829 0 0 1 3.00964,0 h 0.695 a 7.03809,7.03809 0 0 1 3.02045,0 h 0.80432 a 7,7 0 0 0 7,-7 v -8.02972 a 7,7 0 0 0 -7,-7 z"
         fill="#ffffff"
         id="path51" />
      <path
         d="m 445.81465,95.128 c -3.72461,0 -6.227,-2.67725 -6.227,-6.66162 v -5.00929 a 3.49986,3.49986 0 0 1 3.5,-3.5 h 0.8042 a 3.503,3.503 0 0 0 3.85693,0 h 0.8042 a 3.49987,3.49987 0 0 1 3.5,3.5 v 5.00928 c -5e-5,3.98437 -2.50689,6.66163 -6.23833,6.66163 z m 1.58691,-6.478"
         fill="#010101"
         id="path53" />
      <path
         d="m 448.55293,83.45691 v 5.00929 c 0,2.18344 -1.1084,3.16161 -2.7381,3.16161 -1.61883,0 -2.72723,-0.97817 -2.72723,-3.16161 v -5.00929 h 0.80438 v 5.00929 c 0,1.64049 0.674,2.42314 1.93372,2.42314 1.2387,0 1.92285,-0.78186 1.92285,-2.42314 v -5.00929 h 0.80438 m 0,-7 h -0.80438 a 7.04707,7.04707 0 0 1 -3.85657,0 h -0.80438 a 7,7 0 0 0 -7,7 v 5.00929 c 0,5.888 4.09088,10.16161 9.72723,10.16161 5.64264,0 9.7381,-4.27358 9.7381,-10.16161 v -5.00929 a 7,7 0 0 0 -7,-7 z"
         fill="#ffffff"
         id="path55" />
      <path
         d="m 450.13545,94.98639 a 3.49986,3.49986 0 0 1 -3.5,-3.5 v -8.0293 a 3.49986,3.49986 0 0 1 3.5,-3.5 h 0.8042 a 3.49987,3.49987 0 0 1 3.5,3.5 v 3.80567 a 3.50016,3.50016 0 0 1 3.3247,3.4956 v 0.728 a 3.49986,3.49986 0 0 1 -3.5,3.5 z"
         fill="#010101"
         id="path57" />
      <path
         d="m 450.93971,83.45691 v 7.30133 h 3.32446 v 0.72839 h -4.12884 v -8.02972 h 0.80438 m 0,-7 h -0.80438 a 7,7 0 0 0 -7,7 v 8.02972 a 7,7 0 0 0 7,7 h 4.12884 a 7,7 0 0 0 7,-7 v -0.72839 a 6.99513,6.99513 0 0 0 -3.32446,-5.95853 v -1.3428 a 7,7 0 0 0 -7,-7 z"
         fill="#ffffff"
         id="path59" />
      <path
         d="m 455.68525,94.98639 a 3.49987,3.49987 0 0 1 -3.5,-3.5 V 87.2652 a 3.50029,3.50029 0 0 1 -1.83593,-3.08008 v -0.72754 a 3.49986,3.49986 0 0 1 3.5,-3.5 h 4.47607 a 3.49986,3.49986 0 0 1 3.5,3.5 v 0.72754 a 3.5003,3.5003 0 0 1 -1.83594,3.08008 v 4.22119 a 3.49986,3.49986 0 0 1 -3.5,3.5 z"
         fill="#010101"
         id="path61" />
      <path
         d="m 458.32556,83.45764 v 0.7276 h -1.836 v 7.30139 h -0.80441 v -7.30139 h -1.836 v -0.7276 h 4.47635 m 0,-7 h -4.47635 a 7,7 0 0 0 -7,7 v 0.7276 a 6.97414,6.97414 0 0 0 1.836,4.72585 v 2.57554 a 7,7 0 0 0 7,7 h 0.80441 a 7,7 0 0 0 7,-7 v -2.57554 a 6.97419,6.97419 0 0 0 1.836,-4.72585 v -0.7276 a 7,7 0 0 0 -7,-7 z"
         fill="#ffffff"
         id="path63" />
      <rect
         x="455.65936"
         y="79.957092"
         width="7.8042002"
         height="15.0293"
         rx="3.5"
         fill="#010101"
         id="rect65" />
      <path
         d="m 459.96383,83.45691 v 8.02972 h -0.80441 v -8.02972 h 0.80441 m 0,-7 h -0.80441 a 7,7 0 0 0 -7,7 v 8.02972 a 7,7 0 0 0 7,7 h 0.80441 a 7,7 0 0 0 7,-7 v -8.02972 a 7,7 0 0 0 -7,-7 z"
         fill="#ffffff"
         id="path67" />
      <path
         d="m 469.07881,94.98639 a 3.50509,3.50509 0 0 0 -3.02149,0 h -0.69482 a 3.50637,3.50637 0 0 0 -3.00977,0 h -0.8042 a 3.49987,3.49987 0 0 1 -3.5,-3.5 v -8.0293 a 3.49987,3.49987 0 0 1 3.5,-3.5 h 1.24952 a 3.49947,3.49947 0 0 1 2.917,1.56592 3.501,3.501 0 0 1 2.91748,-1.56592 h 1.25 a 3.49987,3.49987 0 0 1 3.5,3.5 v 8.0293 a 3.49987,3.49987 0 0 1 -3.5,3.5 z"
         fill="#010101"
         id="path69" />
      <path
         d="m 469.88229,83.45691 v 8.02972 h -0.8036 v -7.14935 l -3.02124,7.14935 h -0.695 l -3.00961,-7.14935 v 7.14935 h -0.80438 v -8.02972 h 1.24965 l 2.92271,6.83441 2.91188,-6.83441 h 1.24959 m 0,-7 h -1.24959 a 6.989,6.989 0 0 0 -2.9173,0.63673 6.98919,6.98919 0 0 0 -2.91729,-0.63673 h -1.24965 a 7,7 0 0 0 -7,7 v 8.02972 a 7,7 0 0 0 7,7 h 0.80438 a 7.039,7.039 0 0 1 3.00961,0 h 0.695 a 7.03879,7.03879 0 0 1 3.02124,0 h 0.8036 a 7,7 0 0 0 7,-7 v -8.02972 a 7,7 0 0 0 -7,-7 z"
         fill="#ffffff"
         id="path71" />
      <path
         d="m 471.46309,94.98639 a 3.49986,3.49986 0 0 1 -3.5,-3.5 v -8.0293 a 3.49986,3.49986 0 0 1 3.5,-3.5 h 4.38964 a 3.49986,3.49986 0 0 1 3.5,3.5 v 0.72754 a 3.48508,3.48508 0 0 1 -0.37255,1.57276 3.48944,3.48944 0 0 1 0.25195,1.30615 v 0.72754 a 3.483,3.483 0 0 1 -0.272,1.35449 3.48262,3.48262 0 0 1 0.39257,1.61182 v 0.729 a 3.49986,3.49986 0 0 1 -3.5,3.5 z"
         fill="#010101"
         id="path73" />
      <path
         d="m 475.85261,83.45691 v 0.72754 h -3.58594 v 2.87935 h 3.4657 v 0.72752 h -3.4657 v 2.96617 h 3.58594 v 0.72914 h -4.38952 v -8.02972 h 4.38952 m 0,-7 h -4.38952 a 7,7 0 0 0 -7,7 v 8.02972 a 7,7 0 0 0 7,7 h 4.38952 a 7,7 0 0 0 7,-7 v -0.72914 a 7.01452,7.01452 0 0 0 -0.22351,-1.7615 7.04332,7.04332 0 0 0 0.10327,-1.20467 V 87.0638 a 7.05187,7.05187 0 0 0 -0.0944,-1.15241 7.01221,7.01221 0 0 0 0.21464,-1.72694 v -0.72754 a 7,7 0 0 0 -7,-7 z"
         fill="#ffffff"
         id="path75" />
      <path
         d="m 477.21846,94.98639 a 3.49986,3.49986 0 0 1 -3.5,-3.5 v -8.0293 a 3.49986,3.49986 0 0 1 3.5,-3.5 h 1.89111 a 8.96545,8.96545 0 0 1 4.86719,1.13086 7.23543,7.23543 0 0 1 3.522,6.41113 c 0,4.47852 -3.26221,7.48731 -8.11768,7.48731 z"
         fill="#010101"
         id="path77" />
      <path
         d="m 479.10963,83.45691 a 5.55285,5.55285 0 0 1 3.0639,0.6306 3.7473,3.7473 0 0 1 1.82512,3.41139 c 0,2.31458 -1.47764,3.98773 -4.61754,3.98773 h -2.16252 v -8.02972 h 1.891 M 478.023,90.759 h 1.11924 a 4.34726,4.34726 0 0 0 2.89016,-0.71673 3.24,3.24 0 0 0 1.15185,-2.5752 3.11657,3.11657 0 0 0 -1.456,-2.76062 4.8,4.8 0 0 0 -2.58606,-0.52124 H 478.023 V 90.759 m 1.08665,-14.30212 h -1.891 a 7,7 0 0 0 -7,7 v 8.02972 a 7,7 0 0 0 7,7 h 2.16252 c 6.73166,0 11.61754,-4.621 11.61754,-10.98773 a 10.66986,10.66986 0 0 0 -5.24261,-9.4252 12.508,12.508 0 0 0 -6.64641,-1.61679 z"
         fill="#ffffff"
         id="path79" />
      <rect
         x="481.7326"
         y="79.957092"
         width="7.8046899"
         height="15.0293"
         rx="3.5"
         fill="#010101"
         id="rect81" />
      <path
         d="m 486.03714,83.45691 v 8.02972 h -0.80442 v -8.02972 h 0.80442 m 0,-7 h -0.80442 a 7,7 0 0 0 -7,7 v 8.02972 a 7,7 0 0 0 7,7 h 0.80442 a 7,7 0 0 0 7,-7 v -8.02972 a 7,7 0 0 0 -7,-7 z"
         fill="#ffffff"
         id="path83" />
      <path
         d="M 493.83662,94.98639 A 3.49975,3.49975 0 0 1 490.8,93.22662 a 3.50173,3.50173 0 0 1 -3.03711,1.75977 h -0.84717 a 3.49967,3.49967 0 0 1 -3.21631,-4.87988 l 3.44434,-8.0293 a 3.49962,3.49962 0 0 1 3.21631,-2.12012 h 0.90185 a 3.49931,3.49931 0 0 1 3.21485,2.1167 l 3.45508,8.0293 a 3.49967,3.49967 0 0 1 -3.21485,4.8833 z"
         fill="#010101"
         id="path85" />
      <path
         d="m 491.262,83.45691 3.45483,8.02972 h -0.88039 l -1.1627,-2.70556 h -3.738 l -1.17274,2.70556 h -0.847 l 3.44395,-8.02972 h 0.90212 m -2.02137,4.59662 h 3.11817 l -1.54279,-3.68366 -1.57538,3.68366 m 2.0213,-11.59662 h -0.90212 a 7,7 0 0 0 -6.43323,4.24077 l -3.444,8.02971 a 7,7 0 0 0 6.43325,9.75924 h 0.847 a 6.98922,6.98922 0 0 0 3.03675,-0.6929 6.99013,6.99013 0 0 0 3.03672,0.6929 h 0.88039 a 7,7 0 0 0 6.4301,-9.76658 l -3.45485,-8.02971 a 7,7 0 0 0 -6.43008,-4.23343 z"
         fill="#ffffff"
         id="path87" />
      <path
         d="m 498.53535,94.98639 a 3.49987,3.49987 0 0 1 -3.5,-3.5 v -8.0293 a 3.49987,3.49987 0 0 1 3.5,-3.5 h 4.38965 a 3.49987,3.49987 0 0 1 3.5,3.5 v 0.72754 a 3.48907,3.48907 0 0 1 -0.37207,1.57227 3.48993,3.48993 0 0 1 0.252,1.30664 v 0.72754 a 3.4854,3.4854 0 0 1 -0.272,1.355 3.48618,3.48618 0 0 1 0.39209,1.61133 v 0.729 a 3.49987,3.49987 0 0 1 -3.5,3.5 z"
         fill="#010101"
         id="path89" />
      <path
         d="m 502.925,83.45691 v 0.72754 h -3.58594 v 2.87935 h 3.4657 v 0.72752 h -3.4657 v 2.96617 h 3.58594 v 0.72914 h -4.38953 v -8.02972 h 4.38953 m 0,-7 h -4.38953 a 7,7 0 0 0 -7,7 v 8.02972 a 7,7 0 0 0 7,7 h 4.38953 a 7,7 0 0 0 7,-7 v -0.72914 a 7.01452,7.01452 0 0 0 -0.22351,-1.7615 7.04332,7.04332 0 0 0 0.10327,-1.20467 V 87.0638 a 7.05076,7.05076 0 0 0 -0.0944,-1.15241 7.01173,7.01173 0 0 0 0.21465,-1.72694 v -0.72754 a 7,7 0 0 0 -7,-7 z"
         fill="#ffffff"
         id="path91" />
      <path
         d="m 509.87568,94.98639 a 3.49947,3.49947 0 0 0 -4.78125,0 h -0.8042 a 3.49987,3.49987 0 0 1 -3.5,-3.5 v -8.0293 a 3.49987,3.49987 0 0 1 3.5,-3.5 h 1.08643 a 3.50024,3.50024 0 0 0 4.49853,0 h 0.8042 a 3.49986,3.49986 0 0 1 3.5,3.5 v 8.0293 a 3.49986,3.49986 0 0 1 -3.5,3.5 z"
         fill="#010101"
         id="path93" />
      <path
         d="m 510.67933,83.45691 v 8.02972 h -0.80357 l -4.78121,-7.0625 v 7.0625 h -0.80438 v -8.02972 h 1.08673 l 4.49811,6.65985 v -6.65985 h 0.80432 m 0,-7 H 509.875 a 7.0183,7.0183 0 0 1 -4.49811,0 h -1.08673 a 7,7 0 0 0 -7,7 v 8.02972 a 7,7 0 0 0 7,7 h 0.80438 a 7.01622,7.01622 0 0 1 4.78121,0 h 0.80357 a 7,7 0 0 0 7,-7 v -8.02972 a 7,7 0 0 0 -7,-7 z"
         fill="#ffffff"
         id="path95" />
      <path
         d="m 513.34785,94.98639 a 3.49987,3.49987 0 0 1 -3.5,-3.5 V 87.2652 a 3.49863,3.49863 0 0 1 -1.83642,-3.08008 v -0.72754 a 3.49986,3.49986 0 0 1 3.5,-3.5 h 4.47657 a 3.49987,3.49987 0 0 1 3.5,3.5 v 0.72754 a 3.5003,3.5003 0 0 1 -1.83594,3.08008 v 4.22119 a 3.49986,3.49986 0 0 1 -3.5,3.5 z"
         fill="#010101"
         id="path97" />
      <path
         d="m 515.988,83.45764 v 0.7276 h -1.836 v 7.30139 h -0.80442 v -7.30139 h -1.836 v -0.7276 h 4.47642 m 0,-7 h -4.47635 a 7,7 0 0 0 -7,7 v 0.7276 a 6.97419,6.97419 0 0 0 1.836,4.72585 v 2.57554 a 7,7 0 0 0 7,7 h 0.80442 a 7,7 0 0 0 7,-7 v -2.57554 a 6.97418,6.97418 0 0 0 1.836,-4.72585 v -0.7276 a 7,7 0 0 0 -7,-7 z"
         fill="#ffffff"
         id="path99" />
      <path
         d="m 516.822,94.98639 a 3.49987,3.49987 0 0 1 -3.5,-3.5 v -8.0293 a 3.49987,3.49987 0 0 1 3.5,-3.5 h 4.38965 a 3.49986,3.49986 0 0 1 3.5,3.5 v 0.72754 a 3.48509,3.48509 0 0 1 -0.37256,1.57276 3.48925,3.48925 0 0 1 0.25195,1.30615 v 0.72754 a 3.48278,3.48278 0 0 1 -0.272,1.35449 3.48251,3.48251 0 0 1 0.39258,1.61182 v 0.729 a 3.49986,3.49986 0 0 1 -3.5,3.5 z"
         fill="#010101"
         id="path101" />
      <path
         d="m 521.21138,83.45691 v 0.72754 h -3.58588 v 2.87935 h 3.46564 v 0.72752 h -3.46564 v 2.96617 h 3.58588 v 0.72914 h -4.38947 v -8.02972 h 4.38947 m 0,-7 h -4.38947 a 7,7 0 0 0 -7,7 v 8.02972 a 7,7 0 0 0 7,7 h 4.38947 a 7,7 0 0 0 7,-7 v -0.72914 a 7.015,7.015 0 0 0 -0.22351,-1.7615 7.04332,7.04332 0 0 0 0.10327,-1.20467 V 87.0638 a 7.053,7.053 0 0 0 -0.0944,-1.15241 7.01269,7.01269 0 0 0 0.21465,-1.72694 v -0.72754 a 7,7 0 0 0 -7,-7 z"
         fill="#ffffff"
         id="path103" />
      <path
         d="m 526.90156,94.98639 a 3.50156,3.50156 0 0 0 -3.52051,0 h -0.80468 a 3.49986,3.49986 0 0 1 -3.5,-3.5 v -8.0293 a 3.49986,3.49986 0 0 1 3.5,-3.5 h 1.98828 c 5.12842,0 6.95556,3.14405 6.95556,6.08594 a 6.03927,6.03927 0 0 1 -0.88574,3.25391 l 0.0674,0.08984 a 3.5,3.5 0 0 1 -2.80029,5.59961 z"
         fill="#010101"
         id="path105" />
      <path
         d="m 524.56457,83.45691 c 2.52095,0 3.45564,0.913 3.45564,2.58606 a 2.31513,2.31513 0 0 1 -2.36735,2.4449 l 2.24864,2.99876 h -0.99982 l -2.7055,-3.63946 c 2.24866,0 3.00958,-0.39093 3.00958,-1.836 0,-1.33649 -0.8253,-1.82593 -2.6947,-1.82593 h -1.13014 v 7.30139 h -0.80437 v -8.02972 h 1.988 m 0,-7 h -1.988 a 7,7 0 0 0 -7,7 v 8.02972 a 7,7 0 0 0 7,7 h 0.80437 a 7.02743,7.02743 0 0 1 3.52076,0 h 0.99982 a 7.00026,7.00026 0 0 0 6.61334,-9.2949 9.82118,9.82118 0 0 0 0.50537,-3.15268 c 0,-4.76757 -3.233,-9.58214 -10.45564,-9.58214 z m 0.0548,4.37869 h -8e-5 z"
         fill="#ffffff"
         id="path107" />
      <path
         d="m 530.19062,94.98639 a 3.49987,3.49987 0 0 1 -3.5,-3.5 V 87.2652 a 3.50029,3.50029 0 0 1 -1.83593,-3.08008 v -0.72754 a 3.49986,3.49986 0 0 1 3.5,-3.5 h 4.47607 a 3.49986,3.49986 0 0 1 3.5,3.5 v 0.72754 a 3.50028,3.50028 0 0 1 -1.83594,3.08008 v 4.22119 a 3.49986,3.49986 0 0 1 -3.5,3.5 z"
         fill="#010101"
         id="path109" />
      <path
         d="m 532.83087,83.45764 v 0.7276 h -1.836 v 7.30139 h -0.80441 v -7.30139 h -1.836 v -0.7276 h 4.47635 m 0,-7 h -4.47635 a 7,7 0 0 0 -7,7 v 0.7276 a 6.97414,6.97414 0 0 0 1.836,4.72585 v 2.57554 a 7,7 0 0 0 7,7 h 0.80441 a 7,7 0 0 0 7,-7 v -2.57554 a 6.97419,6.97419 0 0 0 1.836,-4.72585 v -0.7276 a 7,7 0 0 0 -7,-7 z"
         fill="#ffffff"
         id="path111" />
      <path
         d="M 539.33711,94.98639 A 3.501,3.501 0 0 1 536.3,93.22614 a 3.5,3.5 0 0 1 -3.03711,1.76025 h -0.84717 a 3.49967,3.49967 0 0 1 -3.21631,-4.87988 l 3.44434,-8.0293 a 3.49962,3.49962 0 0 1 3.21631,-2.12012 h 0.90185 a 3.49931,3.49931 0 0 1 3.21485,2.1167 l 3.45508,8.0293 a 3.49967,3.49967 0 0 1 -3.21485,4.8833 z"
         fill="#010101"
         id="path113" />
      <path
         d="m 536.762,83.45691 3.45484,8.02972 h -0.87958 l -1.16273,-2.70556 h -3.738 l -1.17353,2.70556 h -0.84705 l 3.444,-8.02972 h 0.90211 m -2.02136,4.59662 h 3.11817 l -1.54287,-3.68366 -1.57538,3.68366 M 536.762,76.45691 h -0.90211 a 7,7 0 0 0 -6.43323,4.24077 l -3.444,8.02971 a 7,7 0 0 0 6.43324,9.75924 h 0.84705 a 6.99,6.99 0 0 0 3.03714,-0.69308 6.99024,6.99024 0 0 0 3.03714,0.69308 h 0.87958 a 7,7 0 0 0 6.4301,-9.76658 l -3.45485,-8.02971 a 7,7 0 0 0 -6.43009,-4.23343 z"
         fill="#ffffff"
         id="path115" />
      <rect
         x="537.59247"
         y="79.957092"
         width="7.8046899"
         height="15.0293"
         rx="3.5"
         fill="#010101"
         id="rect117" />
      <path
         d="m 541.89694,83.45691 v 8.02972 h -0.80441 v -8.02972 h 0.80441 m 0,-7 h -0.80441 a 7,7 0 0 0 -7,7 v 8.02972 a 7,7 0 0 0 7,7 h 0.80441 a 7,7 0 0 0 7,-7 v -8.02972 a 7,7 0 0 0 -7,-7 z"
         fill="#ffffff"
         id="path119" />
      <path
         d="m 549.0666,94.98639 a 3.49947,3.49947 0 0 0 -4.78125,0 h -0.80469 a 3.49987,3.49987 0 0 1 -3.5,-3.5 v -8.0293 a 3.49987,3.49987 0 0 1 3.5,-3.5 h 1.08692 a 3.49956,3.49956 0 0 0 4.498,0 h 0.8042 a 3.49986,3.49986 0 0 1 3.5,3.5 v 8.0293 a 3.49986,3.49986 0 0 1 -3.5,3.5 z"
         fill="#010101"
         id="path121" />
      <path
         d="m 549.87007,83.45691 v 8.02972 h -0.80365 l -4.78121,-7.0625 v 7.0625 h -0.80436 v -8.02972 h 1.08673 l 4.49811,6.65985 v -6.65985 h 0.80438 m 0,-7 h -0.80438 a 7.0183,7.0183 0 0 1 -4.49811,0 h -1.08673 a 7,7 0 0 0 -7,7 v 8.02972 a 7,7 0 0 0 7,7 h 0.80436 a 7.01622,7.01622 0 0 1 4.78121,0 h 0.80365 a 7,7 0 0 0 7,-7 v -8.02972 a 7,7 0 0 0 -7,-7 z"
         fill="#ffffff"
         id="path123" />
      <path
         d="m 558.98164,94.98639 a 3.50637,3.50637 0 0 0 -3.02,0 h -0.69531 a 3.50637,3.50637 0 0 0 -3.00977,0 h -0.8042 a 3.49986,3.49986 0 0 1 -3.5,-3.5 v -8.0293 a 3.49986,3.49986 0 0 1 3.5,-3.5 h 1.24951 a 3.50024,3.50024 0 0 1 2.91749,1.56641 3.49956,3.49956 0 0 1 2.91748,-1.56641 h 1.24951 a 3.49987,3.49987 0 0 1 3.5,3.5 v 8.0293 a 3.49987,3.49987 0 0 1 -3.5,3.5 z"
         fill="#010101"
         id="path125" />
      <path
         d="m 559.78621,83.45691 v 8.02972 h -0.80439 v -7.14935 l -3.02044,7.14935 h -0.695 l -3.00958,-7.14935 v 7.14935 h -0.80439 v -8.02972 h 1.24959 l 2.92273,6.83441 2.91186,-6.83441 h 1.24964 m 0,-7 h -1.24964 a 6.989,6.989 0 0 0 -2.9173,0.63673 6.98916,6.98916 0 0 0 -2.91729,-0.63673 h -1.2496 a 7,7 0 0 0 -7,7 v 8.02972 a 7,7 0 0 0 7,7 h 0.80439 a 7.03886,7.03886 0 0 1 3.00958,0 h 0.695 a 7.038,7.038 0 0 1 3.02044,0 h 0.80439 a 7,7 0 0 0 7,-7 v -8.02972 a 7,7 0 0 0 -7,-7 z"
         fill="#ffffff"
         id="path127" />
      <path
         d="m 561.36689,94.98639 a 3.49987,3.49987 0 0 1 -3.5,-3.5 v -8.0293 a 3.49987,3.49987 0 0 1 3.5,-3.5 h 4.38965 a 3.49986,3.49986 0 0 1 3.5,3.5 v 0.72754 a 3.48907,3.48907 0 0 1 -0.37207,1.57227 3.48994,3.48994 0 0 1 0.252,1.30664 v 0.72754 a 3.48522,3.48522 0 0 1 -0.272,1.355 3.48618,3.48618 0 0 1 0.39209,1.61133 v 0.729 a 3.49986,3.49986 0 0 1 -3.5,3.5 z"
         fill="#010101"
         id="path129" />
      <path
         d="m 565.75648,83.45691 v 0.72754 h -3.58588 v 2.87935 h 3.4657 v 0.72752 h -3.4657 v 2.96617 h 3.58588 v 0.72914 H 561.367 v -8.02972 h 4.38946 m 0,-7 H 561.367 a 7,7 0 0 0 -7,7 v 8.02972 a 7,7 0 0 0 7,7 h 4.38946 a 7,7 0 0 0 7,-7 v -0.72914 a 7.0131,7.0131 0 0 0 -0.22348,-1.76138 7.04463,7.04463 0 0 0 0.1033,-1.20479 V 87.0638 a 7.04514,7.04514 0 0 0 -0.0944,-1.15253 7.01225,7.01225 0 0 0 0.2146,-1.72682 v -0.72754 a 7,7 0 0 0 -7,-7 z"
         fill="#ffffff"
         id="path131" />
      <path
         d="m 572.70723,94.98639 a 3.49947,3.49947 0 0 0 -4.78125,0 h -0.8042 a 3.49986,3.49986 0 0 1 -3.5,-3.5 v -8.0293 a 3.49986,3.49986 0 0 1 3.5,-3.5 h 1.08642 a 3.50025,3.50025 0 0 0 4.49854,0 H 573.51 a 3.49986,3.49986 0 0 1 3.5,3.5 v 8.0293 a 3.49986,3.49986 0 0 1 -3.5,3.5 z"
         fill="#010101"
         id="path133" />
      <path
         d="m 573.51008,83.45691 v 8.02972 h -0.80279 l -4.78125,-7.0625 v 7.0625 h -0.80439 v -8.02972 h 1.08674 l 4.4981,6.65985 v -6.65985 h 0.80359 m 0,-7 h -0.80359 a 7.01827,7.01827 0 0 1 -4.4981,0 h -1.08674 a 7,7 0 0 0 -7,7 v 8.02972 a 7,7 0 0 0 7,7 h 0.80439 a 7.01618,7.01618 0 0 1 4.78125,0 h 0.80279 a 7,7 0 0 0 7,-7 v -8.02972 a 7,7 0 0 0 -7,-7 z"
         fill="#ffffff"
         id="path135" />
      <path
         d="m 576.17939,94.98639 a 3.49987,3.49987 0 0 1 -3.5,-3.5 V 87.2652 a 3.49863,3.49863 0 0 1 -1.83642,-3.08008 v -0.72754 a 3.49986,3.49986 0 0 1 3.5,-3.5 h 4.47656 a 3.49986,3.49986 0 0 1 3.5,3.5 v 0.72754 a 3.5003,3.5003 0 0 1 -1.83594,3.08008 v 4.22119 a 3.49986,3.49986 0 0 1 -3.5,3.5 z"
         fill="#010101"
         id="path137" />
      <path
         d="m 578.81953,83.45764 v 0.7276 h -1.836 v 7.30139 h -0.80438 v -7.30139 h -1.836 v -0.7276 h 4.47638 m 0,-7 h -4.47638 a 7,7 0 0 0 -7,7 v 0.7276 a 6.97412,6.97412 0 0 0 1.836,4.72585 v 2.57554 a 7,7 0 0 0 7,7 h 0.80438 a 7,7 0 0 0 7,-7 v -2.57554 a 6.97412,6.97412 0 0 0 1.836,-4.72585 v -0.7276 a 7,7 0 0 0 -7,-7 z"
         fill="#ffffff"
         id="path139" />
      <path
         d="m 582.59639,94.98639 a 3.49986,3.49986 0 0 1 -3.5,-3.5 v -8.0293 a 3.49986,3.49986 0 0 1 3.5,-3.5 h 2.21582 c 4.86377,0 6.59668,3.06494 6.59668,5.9336 a 5.52876,5.52876 0 0 1 -1.90186,4.41552 5.84218,5.84218 0 0 1 -2.60693,1.24121 3.49987,3.49987 0 0 1 -3.49951,3.439 z m 2.58789,-10.99024"
         fill="#010101"
         id="path141" />
      <path
         d="m 584.81233,83.45691 c 2.206,0 3.09649,0.74927 3.09649,2.434 8e-4,1.52112 -0.78186,2.34717 -2.96539,2.34717 h -1.54278 v 3.24853 h -0.80439 v -8.0297 h 2.21607 m -1.41248,4.05286 h 1.48853 c 1.59711,0 2.206,-0.45612 2.206,-1.61884 0,-1.6297 -1.02081,-1.70569 -2.55347,-1.70569 h -1.141 v 3.32453 m 1.41248,-11.05286 h -2.21607 a 7,7 0 0 0 -7,7 v 8.02972 a 7,7 0 0 0 7,7 h 0.80439 a 7.00223,7.00223 0 0 0 6.44662,-4.2675 8.92435,8.92435 0 0 0 1.92105,-1.24176 9.0844,9.0844 0 0 0 3.1405,-7.09 c 0,-4.69222 -3.12191,-9.43042 -10.09649,-9.43042 z"
         fill="#ffffff"
         id="path143" />
      <path
         d="m 588.95967,94.98639 a 3.49986,3.49986 0 0 1 -3.5,-3.5 v -8.0293 a 3.49986,3.49986 0 0 1 3.5,-3.5 h 0.80468 a 3.49986,3.49986 0 0 1 3.5,3.5 v 3.80567 a 3.49992,3.49992 0 0 1 3.3252,3.4956 v 0.728 a 3.49986,3.49986 0 0 1 -3.5,3.5 z"
         fill="#010101"
         id="path145" />
      <path
         d="m 589.76423,83.45691 v 7.30133 h 3.32526 v 0.72839 h -4.12964 v -8.02972 h 0.80438 m 0,-7 h -0.80438 a 7,7 0 0 0 -7,7 v 8.02972 a 7,7 0 0 0 7,7 h 4.12964 a 7,7 0 0 0 7,-7 v -0.72839 a 6.99554,6.99554 0 0 0 -3.32526,-5.959 v -1.34233 a 7,7 0 0 0 -7,-7 z"
         fill="#ffffff"
         id="path147" />
      <path
         d="m 600.50654,94.98639 a 3.50035,3.50035 0 0 1 -3.03662,-1.75977 3.50173,3.50173 0 0 1 -3.03711,1.75977 h -0.84668 a 3.5,3.5 0 0 1 -3.21679,-4.8794 l 3.44384,-8.02978 a 3.5003,3.5003 0 0 1 3.2168,-2.12012 h 0.90186 a 3.50051,3.50051 0 0 1 3.21533,2.1167 l 3.4541,8.0293 a 3.50016,3.50016 0 0 1 -3.21484,4.8833 z"
         fill="#010101"
         id="path149" />
      <path
         d="m 597.932,83.45691 3.45483,8.02972 h -0.88037 l -1.16278,-2.70556 h -3.73791 l -1.1728,2.70556 h -0.847 l 3.444,-8.02972 h 0.9021 m -2.02143,4.59662 h 3.11823 l -1.54287,-3.68366 -1.57544,3.68366 M 597.932,76.45691 h -0.9021 a 7,7 0 0 0 -6.43326,4.24077 l -3.44394,8.02971 a 7,7 0 0 0 6.43323,9.75924 h 0.847 a 6.98916,6.98916 0 0 0 3.03675,-0.6929 6.99061,6.99061 0 0 0 3.03674,0.6929 h 0.88037 a 7,7 0 0 0 6.43009,-9.76658 l -3.45484,-8.02971 a 7,7 0 0 0 -6.43008,-4.23343 z"
         fill="#ffffff"
         id="path151" />
      <path
         d="m 603.42549,94.98639 a 3.50017,3.50017 0 0 1 -3.5,-3.5 v -1.82764 l -2.38623,-4.58642 a 3.49987,3.49987 0 0 1 3.105,-5.11524 h 0.89063 a 3.5006,3.5006 0 0 0 4.61719,0 h 0.88086 a 3.49937,3.49937 0 0 1 3.09961,5.125 l -2.40234,4.58252 v 1.82178 a 3.50018,3.50018 0 0 1 -3.5,3.5 z"
         fill="#010101"
         id="path153" />
      <path
         d="m 607.033,83.45691 h 0.005 m -0.005,0 -2.80328,5.34589 v 2.68383 h -0.80439 V 88.8028 l -2.78155,-5.34589 h 0.89123 l 2.28125,4.49812 2.33631,-4.49812 h 0.88043 m 0.005,-7 h -0.88544 a 7.00282,7.00282 0 0 1 -4.61756,0 h -0.89123 A 7,7 0 0 0 594.434,86.688 l 1.99127,3.827 v 0.97166 a 7,7 0 0 0 7,7 h 0.80439 a 7,7 0 0 0 7,-7 v -0.95982 l 1.90918,-3.64078 A 7.0012,7.0012 0 0 0 607.038,76.45691 Z m -0.005,14 z"
         fill="#ffffff"
         id="path155" />
      <path
         d="m 607.81221,94.98639 a 3.50017,3.50017 0 0 1 -3.5,-3.5 v -8.0293 a 3.50017,3.50017 0 0 1 3.5,-3.5 h 4.38867 a 3.50017,3.50017 0 0 1 3.5,3.5 v 0.72754 a 3.48268,3.48268 0 0 1 -0.37207,1.57227 3.49961,3.49961 0 0 1 0.252,1.30664 v 0.72754 a 3.47684,3.47684 0 0 1 -0.27246,1.355 3.48051,3.48051 0 0 1 0.39258,1.61133 v 0.729 a 3.50017,3.50017 0 0 1 -3.5,3.5 z"
         fill="#010101"
         id="path157" />
      <path
         d="m 612.20118,83.45691 v 0.72754 h -3.58587 v 2.87935 h 3.4657 v 0.72752 h -3.4657 v 2.96617 h 3.58587 v 0.72914 h -4.38946 v -8.02972 h 4.38946 m 0,-7 h -4.38946 a 7,7 0 0 0 -7,7 v 8.02972 a 7,7 0 0 0 7,7 h 4.38946 a 7,7 0 0 0 7,-7 v -0.72914 a 7.01264,7.01264 0 0 0 -0.22348,-1.76138 7.04463,7.04463 0 0 0 0.10331,-1.20479 V 87.0638 a 7.04514,7.04514 0 0 0 -0.0944,-1.15253 7.01225,7.01225 0 0 0 0.2146,-1.72682 v -0.72754 a 7,7 0 0 0 -7,-7 z"
         fill="#ffffff"
         id="path159" />
      <path
         d="m 617.89033,94.98639 a 3.50156,3.50156 0 0 0 -3.52051,0 h -0.80371 a 3.50018,3.50018 0 0 1 -3.5,-3.5 v -8.0293 a 3.50018,3.50018 0 0 1 3.5,-3.5 h 1.98731 c 5.1289,0 6.95605,3.14405 6.95605,6.08594 a 6.03927,6.03927 0 0 1 -0.88574,3.25391 l 0.0674,0.08984 a 3.50073,3.50073 0 0 1 -2.80078,5.59961 z"
         fill="#010101"
         id="path161" />
      <path
         d="m 615.55366,83.45691 c 2.52088,0 3.45557,0.913 3.45557,2.58606 a 2.3142,2.3142 0 0 1 -2.36731,2.4449 l 2.24866,2.99876 h -0.99982 l -2.70557,-3.63946 c 2.24866,0 3.00958,-0.39093 3.00958,-1.836 0,-1.33649 -0.82531,-1.82593 -2.69464,-1.82593 H 614.37 v 7.30139 h -0.80433 v -8.02972 h 1.988 m 0,-7 h -1.988 a 7,7 0 0 0 -7,7 v 8.02972 a 7,7 0 0 0 7,7 H 614.37 a 7.02762,7.02762 0 0 1 3.52081,0 h 0.99982 a 7.00029,7.00029 0 0 0 6.61361,-9.29416 9.82092,9.82092 0 0 0 0.505,-3.15737 c 0,-4.76362 -3.23294,-9.57819 -10.45557,-9.57819 z m 0.0548,4.37869 h -9e-5 z"
         fill="#ffffff"
         id="path163" />
      <path
         d="m 623.03584,94.98639 a 3.50017,3.50017 0 0 1 -3.5,-3.5 v -8.0293 a 3.50017,3.50017 0 0 1 3.5,-3.5 h 2.2168 c 4.86328,0 6.59668,3.06494 6.59668,5.9336 a 5.471,5.471 0 0 1 -4.50879,5.65136 3.501,3.501 0 0 1 -3.5,3.44434 z m 2.58887,-10.99024"
         fill="#010101"
         id="path165" />
      <path
         d="m 625.25264,83.45691 c 2.2052,0 3.09643,0.74927 3.09643,2.434 0,1.52112 -0.78186,2.34717 -2.96612,2.34717 h -1.54285 v 3.24853 h -0.80432 v -8.0297 h 2.21686 m -1.41254,4.05286 h 1.48852 c 1.59711,0 2.206,-0.45612 2.206,-1.61884 0,-1.6297 -1.02155,-1.70569 -2.55347,-1.70569 h -1.141 v 3.32453 m 1.41254,-11.05286 h -2.21686 a 7,7 0 0 0 -7,7 v 8.02972 a 7,7 0 0 0 7,7 h 0.80432 a 7.0024,7.0024 0 0 0 6.45416,-4.28535 9.08647,9.08647 0 0 0 5.05481,-8.31035 c 0,-4.69582 -3.12189,-9.434 -10.09643,-9.434 z"
         fill="#ffffff"
         id="path167" />
      <path
         d="m 633.26728,95.128 a 7.65637,7.65637 0 1 1 -0.0537,-15.3125 7.38677,7.38677 0 0 1 6.88672,4.29541 3.50037,3.50037 0 0 1 -0.249,3.32568 c 0.0322,0.04834 0.0635,0.09766 0.0928,0.14795 a 3.49826,3.49826 0 0 1 0.0762,3.45459 7.40525,7.40525 0 0 1 -6.75295,4.08887 z"
         fill="#010101"
         id="path169" />
      <path
         d="m 633.21333,83.31573 a 3.92456,3.92456 0 0 1 3.69372,2.22773 H 636.005 a 3.044,3.044 0 0 0 -2.75983,-1.48853 3.33585,3.33585 0 0 0 -3.37885,3.41139 3.42221,3.42221 0 0 0 3.38971,3.42223 3.27438,3.27438 0 0 0 2.79236,-1.51019 h 0.8905 a 3.94884,3.94884 0 0 1 -3.67126,2.24945 4.15626,4.15626 0 1 1 -0.0543,-8.31208 m 0,-7 a 11.15612,11.15612 0 1 0 0.0543,22.31208 10.90318,10.90318 0 0 0 9.83429,-5.93027 7.00082,7.00082 0 0 0 0.55322,-5.29256 7.00055,7.00055 0 0 0 -0.3612,-4.72653 10.84572,10.84572 0 0 0 -10.08057,-6.36272 z"
         fill="#ffffff"
         id="path171" />
      <path
         d="m 641.10615,94.98639 a 3.50017,3.50017 0 0 1 -3.5,-3.5 v -8.0293 a 3.50017,3.50017 0 0 1 3.5,-3.5 h 4.07422 a 3.50017,3.50017 0 0 1 3.5,3.5 v 0.72754 a 3.48052,3.48052 0 0 1 -0.377,1.58106 3.49179,3.49179 0 0 1 0.25781,1.32031 v 0.728 a 3.50014,3.50014 0 0 1 -3.15137,3.48291 v 0.18945 a 3.50017,3.50017 0 0 1 -3.5,3.5 z"
         fill="#010101"
         id="path173" />
      <path
         d="m 645.18031,83.45691 v 0.72754 h -3.2702 v 2.90179 h 3.15155 v 0.7276 h -3.15155 v 3.67279 h -0.80432 v -8.02972 h 4.07452 m 0,-7 h -4.07452 a 7,7 0 0 0 -7,7 v 8.02972 a 7,7 0 0 0 7,7 h 0.80432 a 7.00264,7.00264 0 0 0 6.56247,-4.55859 6.99762,6.99762 0 0 0 3.58908,-6.1142 v -0.7276 a 7.05028,7.05028 0 0 0 -0.0973,-1.16974 7.014,7.014 0 0 0 0.21594,-1.73205 v -0.72754 a 7,7 0 0 0 -7,-7 z"
         fill="#ffffff"
         id="path175" />
      <path
         d="m 651.06611,94.98639 a 3.50028,3.50028 0 0 0 -4.55273,0 H 645.569 a 3.50074,3.50074 0 0 1 -2.916,-5.43652 l 1.44922,-2.18164 -1.30662,-1.99023 a 3.49987,3.49987 0 0 1 2.92579,-5.4209 h 0.94531 a 3.49969,3.49969 0 0 0 4.24805,0 h 0.93457 a 3.49987,3.49987 0 0 1 2.92578,5.4209 l -1.30469,1.98633 1.4541,2.18066 a 3.49992,3.49992 0 0 1 -2.91211,5.44141 z"
         fill="#010101"
         id="path177" />
      <path
         d="m 651.8495,83.45691 -2.5752,3.92255 2.7381,4.10717 h -0.94629 l -2.27038,-3.4331 -2.28205,3.4331 h -0.9447 l 2.72724,-4.10717 -2.57522,-3.92255 h 0.94556 l 2.13,3.21588 2.11835,-3.21588 h 0.93463 m 0,-7 h -0.93463 a 7.00154,7.00154 0 0 1 -4.24835,0 H 645.721 a 7,7 0 0 0 -5.85159,10.84174 l 0.0387,0.05894 -0.17056,0.25684 a 7,7 0 0 0 5.83148,10.8722 h 0.9447 a 7.00121,7.00121 0 0 1 4.55243,0 h 0.94629 a 7,7 0 0 0 5.82437,-10.8829 l -0.16928,-0.25391 0.0336,-0.05125 a 7,7 0 0 0 -5.85162,-10.84166 z"
         fill="#ffffff"
         id="path179" />
      <path
         d="m 638.75654,91.69537 a 4.08594,4.08594 0 1 1 4.08594,-4.08642 4.09075,4.09075 0 0 1 -4.08594,4.08642 z"
         fill="#010101"
         id="path181" />
      <path
         d="m 638.75624,87.02344 a 0.586,0.586 0 1 1 0,1.172 0.586,0.586 0 0 1 0,-1.172 m 0,-7 a 7.586,7.586 0 1 0 7.58642,7.5872 7.59423,7.59423 0 0 0 -7.58642,-7.5872 z"
         fill="#ffffff"
         id="path183" />
      <circle
         cx="386.25357"
         cy="14.47513"
         r="3.13293"
         fill="#6f706a"
         id="circle185" />
      <path
         d="m 386.25356,87.06532 -21.583,-12.285 5.84467,-3.15076 c 0.0147,0.03413 0.024,0.062 0.0396,0.097 4.22739,6.18984 12.77526,6.64748 19.56236,6.01919 4.02573,-1.28373 -0.82221,1.57693 -0.56623,2.70708 0.72912,2.0943 3.13913,0.84393 4.25221,0.51815 2.92427,-1.67545 5.81752,-3.53938 7.631,-6.78478 0.99829,-3.008 0.56158,-1.40707 2.90876,-3.94815 2.1486,-2.21841 2.327,-5.68565 4.84017,-7.63258 2.69157,-2.42009 3.89385,-5.8563 5.32884,-9.052 4.84018,-4.48337 9.277,-10.37845 9.10635,-17.30517 0.26373,-5.24352 -2.97856,-9.913 -6.84915,-13.13207 -6.376,-5.20474 -14.48174,-7.86528 -22.52542,-9.0986 a 2.10386,2.10386 0 0 0 -2.4356,3.19576 c 3.68442,1.51255 7.81874,1.466 11.50317,3.04062 5.91835,2.17187 12.00734,5.46071 15.21862,11.12309 2.73811,5.55379 -0.12411,12.27108 -4.29721,16.289 l -0.13962,0.13963 c -1.58236,-2.55971 -3.2578,-5.14269 -5.72443,-6.94224 -6.32635,-4.79518 -14.39486,-6.52027 -22.16086,-6.99188 v -14.906 l -38.85321,20.94292 v 44.20536 l 0.0543,-0.02948 v 0.80515 L 386.25356,107 425.09905,84.88957 V 64.95488 Z m -0.0458,-33.792 h 0.0465 c 4.38253,0.256 8.91244,0.93855 12.6977,3.30435 0.49953,0.38318 1.07275,0.62208 -0.41343,1.0743 a 60.24307,60.24307 0 0 1 -7.69851,1.487 c 0,0 -2.56281,0.16134 -3.45328,0.12255 -0.15048,-0.0062 -0.57166,-0.0287 -1.179,-0.06748 z m -2.75207,11.38138 a 21.59074,21.59074 0 0 1 7.026,0.41731 c 1.33414,0.38008 2.97856,0.38008 3.8318,1.63666 a 56.65759,56.65759 0 0 1 -13.1631,0.543 c -0.612,-0.12489 -1.2977,-0.18927 -1.98571,-0.28389 z m 2.39527,9.1816 c -3.89386,-0.18616 -8.385,-0.5197 -11.23169,-3.54481 a 45.06869,45.06869 0 0 0 23.67341,-0.38783 c -3.35864,2.98634 -8.09022,3.83179 -12.44171,3.93263 z m 13.89223,-9.16841 a 7.32367,7.32367 0 0 0 -3.92489,-2.3813 c 2.327,-0.62054 4.66178,-1.24883 6.97326,-1.93141 1.30312,2.40455 -0.98897,3.7387 -3.04837,4.3127 z M 407.13534,45.121 a 11.76769,11.76769 0 0 1 3.4207,6.12 c -1.39621,1.00837 -2.83119,1.96244 -4.28169,2.88549 -0.98509,0.27148 -2.1486,1.53583 -3.09491,0.44989 -4.827,-3.73019 -10.992,-5.09925 -16.97164,-5.4863 V 38.109 c 7.40763,0.11633 15.3272,1.86934 20.92754,7.012 z"
         fill="#6f706a"
         id="path187" />
      <path
         d="m 652.64537,103.89733 q -109.76488,0 -219.52977,-0.008 0.0116,-4.654 0,-9.30026 109.76489,0.01164 219.52977,0 z"
         fill="#010101"
         id="path189" />
      <path
         d="m 394.9139,12.74849 a 2.10386,2.10386 0 0 1 2.4356,-3.19576 c 8.04368,1.23332 16.14942,3.89386 22.52542,9.0986 3.87058,3.219 7.11288,7.88855 6.84916,13.13207 0.17064,6.92672 -4.26618,12.8218 -9.10635,17.30517 -1.435,3.19575 -2.63728,6.632 -5.32885,9.05205 -2.51317,1.94693 -2.69157,5.41417 -4.84017,7.63258 -2.34718,2.54109 -1.91047,0.94088 -2.90876,3.94815 -1.81351,3.24617 -4.70676,5.10933 -7.631,6.78478 -1.11308,0.32578 -3.52386,1.57693 -4.25221,-0.51815 -0.256,-1.13015 4.59195,-3.99081 0.56624,-2.70708 -6.78711,0.62829 -15.335,0.17065 -19.56237,-6.01919 a 6.68138,6.68138 0 0 1 -0.70586,-3.537 c -3.06389,-2.21066 -5.228,-5.60033 -4.96428,-9.5097 -3.39743,-2.358 -6.62421,-5.71668 -6.77159,-10.09921 -0.58175,-4.2972 2.75362,-7.7722 6.1433,-9.83548 6.53888,-3.91713 14.38865,-4.89447 21.88161,-4.879 7.78772,0.4654 15.8857,2.18739 22.23067,6.99654 2.46662,1.79955 4.14206,4.38253 5.72443,6.94223 l 0.13962,-0.13962 c 4.17309,-4.018 7.03531,-10.73525 4.2972,-16.289 -3.21126,-5.66238 -9.30026,-8.95122 -15.21862,-11.12309 C 402.73264,14.2145 398.59832,14.261 394.9139,12.74849 Z M 367.176,39.54785 c -3.86283,3.09492 -1.00836,9.40886 2.97857,10.64217 5.32109,-4.3515 12.38743,-5.60808 19.08145,-5.5693 6.00368,0.38008 12.20127,1.74526 17.0492,5.49174 0.94632,1.08594 2.10982,-0.17841 3.09492,-0.44989 1.4505,-0.92305 2.88548,-1.87712 4.28168,-2.88549 a 11.76762,11.76762 0 0 0 -3.4207,-6.12 c -5.60033,-5.14268 -13.5199,-6.89569 -20.92754,-7.012 -7.65586,-0.17072 -16.04858,0.84541 -22.13758,5.90277 z m 26.76988,15.12709 a 60.10362,60.10362 0 0 0 7.69852,-1.487 c 1.48695,-0.45221 0.913,-0.69112 0.41343,-1.0743 -3.78526,-2.36579 -8.31517,-3.04838 -12.6977,-3.30435 -4.79364,-0.01551 -9.82772,0.48868 -14.07063,2.88549 -0.43438,0.26528 -1.82825,0.52358 0.008,1.04715 4.12346,1.43965 14.30566,2.01674 15.19535,2.05553 0.89046,0.03882 3.45326,-0.12252 3.45326,-0.12252 z m -21.90643,1.542 a 6.6256,6.6256 0 0 0 2.7513,3.41294 c 0.6663,-0.44291 1.68552,-0.95019 2.53876,-1.40008 0.55383,-0.22417 1.14566,-0.61821 1.71423,-0.81756 -0.27769,-0.01939 -0.69423,-0.06825 -1.51411,-0.10394 a 45.8266,45.8266 0 0 1 -5.4902,-1.0913 z m 26.88468,1.60563 a 7.32645,7.32645 0 0 1 3.92488,2.3813 c 2.0594,-0.574 4.3515,-1.90814 3.04838,-4.31271 -2.31151,0.68261 -4.64627,1.31091 -6.97328,1.93144 z M 379.748,61.76921 c 1.30856,0.77489 3.10423,0.73067 4.50819,1.01767 a 56.65759,56.65759 0 0 0 13.1631,-0.543 c -0.85323,-1.25659 -2.49765,-1.25659 -3.8318,-1.63666 A 24.483,24.483 0 0 0 379.748,61.76921 Z m -2.02294,4.05829 c 2.8467,3.02511 7.33783,3.35865 11.23168,3.54481 4.3515,-0.10084 9.08309,-0.94632 12.44174,-3.93264 a 45.06873,45.06873 0 0 1 -23.6734,0.38783 z"
         fill="#21254e"
         id="path191" />
      <path
         d="m 448.68481,58.28723 a 31.99583,31.99583 0 0 0 11.51713,-1.64365 c 9.85876,-3.39743 16.38989,-13.81466 16.0641,-24.1 A 25.90527,25.90527 0 0 0 471.22419,18.47295 24.30679,24.30679 0 0 0 450.987,8.61417 l -17.53787,-0.007 v 14.81917 l -0.0465,0.204 0.0465,-0.0039 V 77.7728 h 7.13615 V 58.28723 m -0.0698,-43.2893 c 4.01795,-0.0078 8.03592,-0.09308 12.04613,0.09308 a 18.27591,18.27591 0 0 1 14.69892,9.021 18.61011,18.61011 0 0 1 -1.27209,20.44663 17.53463,17.53463 0 0 1 -13.57421,7.04307 c -3.9404,0.0543 -7.8009,0.0256 -11.829,0.0256 z"
         fill="#010101"
         id="path193" />
      <circle
         cx="389.36011"
         cy="10.78682"
         r="3.13293"
         fill="#21254e"
         id="circle195" />
      <polygon
         points="389.36,82.601 389.36,102.536 350.515,80.426 350.515,60.491 "
         fill="#21254e"
         id="polygon197" />
      <polygon
         points="389.36,82.601 389.36,102.536 428.206,80.426 428.206,60.491 "
         fill="#e51929"
         id="polygon199" />
      <path
         d="m 553.82671,48.38814 v -13.44 H 543.328 a 29.35038,29.35038 0 0 1 0.58874,13.44079 h 9.90994 z"
         fill="#010101"
         id="path201" />
      <path
         d="m 541.35009,56.03623 a 29.43866,29.43866 0 1 1 -1.41251,-28.737 h 7.40142 a 35.92338,35.92338 0 1 0 1.09989,28.737 h -7.08881 z"
         fill="#010101"
         id="path203" />
      <polygon
         points="350.515,36.206 350.515,80.412 389.368,59.469 389.368,15.263 "
         fill="#c1942e"
         id="polygon205" />
      <path
         d="m 394.9139,12.74849 a 2.10386,2.10386 0 0 1 2.4356,-3.19576 c 8.04368,1.23332 16.14942,3.89386 22.52542,9.0986 3.87058,3.219 7.11288,7.88855 6.84916,13.13207 0.17064,6.92672 -4.26618,12.8218 -9.10635,17.30517 -1.435,3.19575 -2.63728,6.632 -5.32885,9.05205 -2.51317,1.94693 -2.69157,5.41417 -4.84017,7.63258 -2.34718,2.54109 -1.91047,0.94088 -2.90876,3.94815 -1.81351,3.24617 -4.70676,5.10933 -7.631,6.78478 -1.11308,0.32578 -3.52386,1.57693 -4.25221,-0.51815 -0.256,-1.13015 4.59195,-3.99081 0.56624,-2.70708 -6.78711,0.62829 -15.335,0.17065 -19.56237,-6.01919 a 6.68138,6.68138 0 0 1 -0.70586,-3.537 c -3.06389,-2.21066 -5.228,-5.60033 -4.96428,-9.5097 -3.39743,-2.358 -6.62421,-5.71668 -6.77159,-10.09921 -0.58175,-4.2972 2.75362,-7.7722 6.1433,-9.83548 6.53888,-3.91713 14.38865,-4.89447 21.88161,-4.879 7.78772,0.4654 15.8857,2.18739 22.23067,6.99654 2.46662,1.79955 4.14206,4.38253 5.72443,6.94223 l 0.13962,-0.13962 c 4.17309,-4.018 7.03531,-10.73525 4.2972,-16.289 -3.21126,-5.66238 -9.30026,-8.95122 -15.21862,-11.12309 C 402.73264,14.2145 398.59832,14.261 394.9139,12.74849 Z M 367.176,39.54785 c -3.86283,3.09492 -1.00836,9.40886 2.97857,10.64217 5.32109,-4.3515 12.38743,-5.60808 19.08145,-5.5693 6.00368,0.38008 12.20127,1.74526 17.0492,5.49174 0.94632,1.08594 2.10982,-0.17841 3.09492,-0.44989 1.4505,-0.92305 2.88548,-1.87712 4.28168,-2.88549 a 11.76762,11.76762 0 0 0 -3.4207,-6.12 c -5.60033,-5.14268 -13.5199,-6.89569 -20.92754,-7.012 -7.65586,-0.17072 -16.04858,0.84541 -22.13758,5.90277 z m 26.76988,15.12709 a 60.10362,60.10362 0 0 0 7.69852,-1.487 c 1.48695,-0.45221 0.913,-0.69112 0.41343,-1.0743 -3.78526,-2.36579 -8.31517,-3.04838 -12.6977,-3.30435 -4.79364,-0.01551 -9.82772,0.48868 -14.07063,2.88549 -0.43438,0.26528 -1.82825,0.52358 0.008,1.04715 4.12346,1.43965 14.30566,2.01674 15.19535,2.05553 0.89046,0.03882 3.45326,-0.12252 3.45326,-0.12252 z m -21.90643,1.542 a 6.6256,6.6256 0 0 0 2.7513,3.41294 c 0.6663,-0.44291 1.68552,-0.95019 2.53876,-1.40008 0.55383,-0.22417 1.14566,-0.61821 1.71423,-0.81756 -0.27769,-0.01939 -0.69423,-0.06825 -1.51411,-0.10394 a 45.8266,45.8266 0 0 1 -5.4902,-1.0913 z m 26.88468,1.60563 a 7.32645,7.32645 0 0 1 3.92488,2.3813 c 2.0594,-0.574 4.3515,-1.90814 3.04838,-4.31271 -2.31151,0.68261 -4.64627,1.31091 -6.97328,1.93144 z M 379.748,61.76921 c 1.30856,0.77489 3.10423,0.73067 4.50819,1.01767 a 56.65759,56.65759 0 0 0 13.1631,-0.543 c -0.85323,-1.25659 -2.49765,-1.25659 -3.8318,-1.63666 A 24.483,24.483 0 0 0 379.748,61.76921 Z m -2.02294,4.05829 c 2.8467,3.02511 7.33783,3.35865 11.23168,3.54481 4.3515,-0.10084 9.08309,-0.94632 12.44174,-3.93264 a 45.06873,45.06873 0 0 1 -23.6734,0.38783 z"
         fill="#271e47"
         id="path207" />
      <circle
         cx="389.36011"
         cy="10.78682"
         r="3.13293"
         fill="#21254e"
         id="circle209" />
      <polygon
         points="389.36,82.601 389.36,102.536 350.515,80.426 350.515,60.491 "
         fill="#342257"
         id="polygon211" />
      <polygon
         points="389.36,82.601 389.36,102.536 428.206,80.426 428.206,60.491 "
         fill="#a4284c"
         id="polygon213" />
      <polygon
         points="572.589,48.388 593.063,48.388 593.063,34.948 572.589,34.948 572.589,22.32 594.051,22.32 594.051,8.607 572.589,8.607 566.538,8.607 559.449,8.607 559.449,77.796 572.589,77.796 "
         fill="#010101"
         id="polygon215" />
      <polygon
         points="612.776,41.845 592.221,77.796 608.037,77.796 620.684,55.676 633.331,77.796 649.147,77.796 628.592,41.845 647.596,8.607 631.78,8.607 620.684,28.014 609.588,8.607 593.772,8.607 "
         fill="#010101"
         id="polygon217" />
      <path
         d="m 440.70318,91.48663 v -7.14934 l -3.02046,7.14934 h -0.695 l -3.00959,-7.14934 v 7.14934 h -0.80437 v -8.02972 h 1.2496 l 2.92272,6.83441 2.91186,-6.83441 h 1.2496 v 8.02972 z"
         fill="#010101"
         id="path219" />
      <path
         d="m 445.81484,91.6278 c -1.61883,0 -2.72726,-0.97812 -2.72726,-3.16163 v -5.00926 h 0.80437 v 5.00926 c 0,1.64054 0.67406,2.42319 1.93374,2.42319 1.23874,0 1.92288,-0.78187 1.92288,-2.42319 v -5.00926 h 0.80438 v 5.00926 c 5e-5,2.18351 -1.10844,3.16163 -2.73811,3.16163 z"
         fill="#010101"
         id="path221" />
      <path
         d="m 450.13532,91.48663 v -8.02972 h 0.80437 v 7.30137 h 3.32451 v 0.72835 z"
         fill="#010101"
         id="path223" />
      <path
         d="m 456.48958,84.18526 v 7.30137 h -0.80437 v -7.30137 h -1.836 v -0.72758 h 4.47638 v 0.72758 z"
         fill="#010101"
         id="path225" />
      <path
         d="m 459.15944,91.48663 v -8.02972 h 0.80437 v 8.02972 z"
         fill="#010101"
         id="path227" />
      <path
         d="m 469.0787,91.48663 v -7.14934 l -3.02124,7.14934 h -0.695 l -3.0096,-7.14934 v 7.14934 h -0.80437 v -8.02972 h 1.24959 l 2.92273,6.83441 2.91186,-6.83441 h 1.24959 v 8.02972 z"
         fill="#010101"
         id="path229" />
      <path
         d="m 471.46309,91.48663 v -8.02972 h 4.38951 v 0.72758 h -3.58592 v 2.87928 h 3.46569 v 0.72758 h -3.46569 v 2.96615 h 3.58592 v 0.72913 z"
         fill="#010101"
         id="path231" />
      <path
         d="m 479.38113,91.48663 h -2.16256 v -8.02972 h 1.89108 a 5.5531,5.5531 0 0 1 3.06389,0.63062 3.74733,3.74733 0 0 1 1.82515,3.41139 c 0,2.31459 -1.47769,3.98771 -4.61756,3.98771 z m 2.34717,-6.78012 a 4.7999,4.7999 0 0 0 -2.58608,-0.52125 h -1.11928 v 6.57379 h 1.11928 a 4.34728,4.34728 0 0 0 2.89014,-0.71672 3.23992,3.23992 0 0 0 1.15187,-2.57522 3.11663,3.11663 0 0 0 -1.45593,-2.7606 z"
         fill="#010101"
         id="path233" />
      <path
         d="m 485.23277,91.48663 v -8.02972 h 0.80437 v 8.02972 z"
         fill="#010101"
         id="path235" />
      <path
         d="m 493.83649,91.48663 -1.16272,-2.70554 h -3.738 l -1.17277,2.70554 h -0.847 l 3.444,-8.02972 h 0.9021 l 3.45482,8.02972 z m -3.02049,-7.11677 -1.57539,3.68365 h 3.11819 z"
         fill="#010101"
         id="path237" />
      <path
         d="m 498.53549,91.48663 v -8.02972 h 4.38951 v 0.72758 h -3.58592 v 2.87928 h 3.46569 v 0.72758 h -3.46569 v 2.96615 h 3.58592 v 0.72913 z"
         fill="#010101"
         id="path239" />
      <path
         d="m 509.87577,91.48663 -4.78123,-7.06246 v 7.06246 h -0.80437 v -8.02972 h 1.08671 l 4.4981,6.65989 v -6.65989 h 0.80437 v 8.02972 z"
         fill="#010101"
         id="path241" />
      <path
         d="m 514.152,84.18526 v 7.30137 h -0.80437 v -7.30137 h -1.836 v -0.72758 h 4.47637 v 0.72758 z"
         fill="#010101"
         id="path243" />
      <path
         d="m 516.82188,91.48663 v -8.02972 h 4.38951 v 0.72758 h -3.58592 v 2.87928 h 3.46569 v 0.72758 h -3.46569 v 2.96615 h 3.58592 v 0.72913 z"
         fill="#010101"
         id="path245" />
      <path
         d="m 525.65287,88.48789 2.24866,2.99874 h -0.99984 l -2.70554,-3.63944 c 2.24867,0 3.0096,-0.39094 3.0096,-1.836 0,-1.33647 -0.8253,-1.82592 -2.69467,-1.82592 h -1.13015 v 7.30137 h -0.80437 v -8.02973 h 1.988 c 2.52093,0 3.45561,0.913 3.45561,2.58608 a 2.31514,2.31514 0 0 1 -2.3673,2.4449 z"
         fill="#010101"
         id="path247" />
      <path
         d="m 530.9949,84.18526 v 7.30137 h -0.80437 v -7.30137 h -1.836 v -0.72758 h 4.47638 v 0.72758 z"
         fill="#010101"
         id="path249" />
      <path
         d="m 539.33722,91.48663 -1.16272,-2.70554 h -3.73795 l -1.1736,2.70554 h -0.847 l 3.444,-8.02972 h 0.9021 l 3.45483,8.02972 z m -3.02122,-7.11677 -1.57539,3.68365 h 3.11819 z"
         fill="#010101"
         id="path251" />
      <path
         d="m 541.09256,91.48663 v -8.02972 h 0.80436 v 8.02972 z"
         fill="#010101"
         id="path253" />
      <path
         d="m 549.06644,91.48663 -4.78123,-7.06246 v 7.06246 h -0.80436 v -8.02972 h 1.08672 l 4.49811,6.65989 V 83.45691 H 549.87 v 8.02972 z"
         fill="#010101"
         id="path255" />
      <path
         d="m 558.9818,91.48663 v -7.14934 l -3.02044,7.14934 h -0.695 l -3.0096,-7.14934 v 7.14934 h -0.80436 v -8.02972 h 1.2496 l 2.92272,6.83441 2.91186,-6.83441 h 1.24959 v 8.02972 z"
         fill="#010101"
         id="path257" />
      <path
         d="m 561.367,91.48663 v -8.02972 h 4.38951 v 0.72758 h -3.58591 v 2.87928 h 3.46568 v 0.72758 h -3.46568 v 2.96615 h 3.58591 v 0.72913 z"
         fill="#010101"
         id="path259" />
      <path
         d="M 572.70727,91.48663 567.926,84.42417 v 7.06246 h -0.80436 v -8.02972 h 1.08672 l 4.49811,6.65989 v -6.65989 h 0.8036 v 8.02972 z"
         fill="#010101"
         id="path261" />
      <path
         d="m 576.98353,84.18526 v 7.30137 h -0.80436 v -7.30137 h -1.836 v -0.72758 h 4.47638 v 0.72758 z"
         fill="#010101"
         id="path263" />
      <path
         d="m 584.94344,88.23812 h -1.54282 v 3.24851 h -0.80436 v -8.02972 h 2.21608 c 2.206,0 3.09648,0.74929 3.09648,2.434 7.8e-4,1.52109 -0.78182,2.34721 -2.96538,2.34721 z m -0.40256,-4.05286 h -1.141 v 3.32451 h 1.48852 c 1.59709,0 2.206,-0.45609 2.206,-1.61882 -3e-5,-1.62968 -1.02081,-1.70569 -2.55352,-1.70569 z"
         fill="#010101"
         id="path265" />
      <path
         d="m 588.95986,91.48663 v -8.02972 h 0.80436 v 7.30137 h 3.32528 v 0.72835 z"
         fill="#010101"
         id="path267" />
      <path
         d="m 600.50645,91.48663 -1.16272,-2.70554 h -3.738 l -1.1728,2.70554 h -0.847 l 3.444,-8.02972 h 0.9021 l 3.45483,8.02972 z m -3.02045,-7.11677 -1.57539,3.68365 h 3.11818 z"
         fill="#010101"
         id="path269" />
      <path
         d="m 604.22968,88.80281 v 2.68382 h -0.80436 v -2.68382 l -2.78155,-5.3459 h 0.89123 l 2.28125,4.4981 2.33631,-4.4981 h 0.88039 z"
         fill="#010101"
         id="path271" />
      <path
         d="m 607.8117,91.48663 v -8.02972 h 4.38951 v 0.72758 h -3.58591 v 2.87928 h 3.4657 v 0.72758 h -3.4657 v 2.96615 h 3.58591 v 0.72913 z"
         fill="#010101"
         id="path273" />
      <path
         d="m 616.64191,88.48789 2.24866,2.99874 h -0.99984 l -2.70554,-3.63944 c 2.24866,0 3.0096,-0.39094 3.0096,-1.836 0,-1.33647 -0.82531,-1.82592 -2.69467,-1.82592 H 614.37 v 7.30137 h -0.80436 v -8.02973 h 1.988 c 2.52092,0 3.45559,0.913 3.45559,2.58608 a 2.31419,2.31419 0 0 1 -2.36732,2.4449 z"
         fill="#010101"
         id="path275" />
      <path
         d="m 625.38294,88.23812 h -1.54282 v 3.24851 h -0.80436 v -8.02972 h 2.21686 c 2.20522,0 3.09648,0.74929 3.09648,2.434 0,1.52109 -0.7819,2.34721 -2.96616,2.34721 z m -0.4018,-4.05286 h -1.141 v 3.32451 h 1.48851 c 1.5971,0 2.206,-0.45609 2.206,-1.61882 -2e-5,-1.62968 -1.02156,-1.70569 -2.55351,-1.70569 z"
         fill="#010101"
         id="path277" />
      <path
         d="m 633.26762,91.6278 a 4.15625,4.15625 0 1 1 -0.0543,-8.31207 3.92455,3.92455 0 0 1 3.69373,2.22773 h -0.9021 a 3.044,3.044 0 0 0 -2.75984,-1.48846 3.33582,3.33582 0 0 0 -3.3788,3.41139 3.42219,3.42219 0 0 0 3.3897,3.42221 3.27458,3.27458 0 0 0 2.79241,-1.51023 h 0.89048 a 3.94879,3.94879 0 0 1 -3.67127,2.24943 z"
         fill="#010101"
         id="path279" />
      <path
         d="m 641.91012,84.18526 v 2.901 h 3.15153 v 0.72758 h -3.15153 v 3.6728 h -0.80436 v -8.02973 h 4.07458 v 0.72758 h -3.27022 z"
         fill="#010101"
         id="path281" />
      <path
         d="m 651.0661,91.48663 -2.27039,-3.43312 -2.282,3.43312 H 645.569 l 2.72725,-4.10717 -2.57525,-3.92255 h 0.94554 l 2.13,3.21592 2.11834,-3.21592 h 0.93467 l -2.57523,3.92256 2.73811,4.10716 z"
         fill="#010101"
         id="path283" />
      <path
         d="m 638.75624,88.19547 a 0.586,0.586 0 0 1 0,-1.172 0.586,0.586 0 1 1 0,1.172 z"
         fill="#010101"
         id="path285" />
    </g>
  </g>
  <metadata
     id="metadata1109">
    <rdf:RDF>
      <cc:Work
         rdf:about="">
        <dc:title>logo</dc:title>
      </cc:Work>
    </rdf:RDF>
  </metadata>
</svg>
