<?xml version="1.0" encoding="UTF-8" standalone="no"?>
<svg
   id="Layer_1"
   data-name="Layer 1"
   viewBox="0 0 514.08356 95.125"
   version="1.1"
   sodipodi:docname="pcv2.svg"
   width="514.08356"
   height="95.125"
   inkscape:version="1.1 (c68e22c387, 2021-05-23)"
   xmlns:inkscape="http://www.inkscape.org/namespaces/inkscape"
   xmlns:sodipodi="http://sodipodi.sourceforge.net/DTD/sodipodi-0.dtd"
   xmlns="http://www.w3.org/2000/svg"
   xmlns:svg="http://www.w3.org/2000/svg">
  <defs
     id="defs67" />
  <sodipodi:namedview
     id="namedview65"
     pagecolor="#ffffff"
     bordercolor="#666666"
     borderopacity="1.0"
     inkscape:pageshadow="2"
     inkscape:pageopacity="0.0"
     inkscape:pagecheckerboard="0"
     showgrid="false"
     fit-margin-top="0"
     fit-margin-left="0"
     fit-margin-right="0"
     fit-margin-bottom="0"
     inkscape:zoom="1.113"
     inkscape:cx="257.4124"
     inkscape:cy="46.720575"
     inkscape:window-width="1920"
     inkscape:window-height="1138"
     inkscape:window-x="-8"
     inkscape:window-y="-8"
     inkscape:window-maximized="1"
     inkscape:current-layer="Layer_1" />
  <g
     id="g915"
     transform="translate(-242.99166,-9.439999)">
    <path
       d="M 285.81,48.41 C 279.86,48.4 273.89,43 271,35 a 23.94,23.94 0 0 1 -1.25,-12.61 c 0.88,-4.38 3.33,-7.61 6.73,-8.85 a 9.38,9.38 0 0 1 3.16,-0.55 c 5.95,0 11.92,5.41 14.85,13.45 C 298,36 295.55,45.45 289,47.85 a 9.15,9.15 0 0 1 -3.16,0.56 z"
       fill="#ffffff"
       id="path2" />
    <path
       d="m 279.6,16.44 c 4.29,0 9.14,4.52 11.56,11.15 2.8,7.67 1.28,15.27 -3.39,17 a 5.75,5.75 0 0 1 -2,0.35 c -4.29,0 -9.15,-4.52 -11.56,-11.16 -2.8,-7.67 -1.28,-15.27 3.39,-17 a 5.69,5.69 0 0 1 2,-0.34 m 0,-7 a 12.8,12.8 0 0 0 -4.35,0.76 c -4.58,1.67 -7.85,5.84 -9,11.46 a 27.38,27.38 0 0 0 1.39,14.49 c 3.43,9.42 10.72,15.76 18.14,15.76 a 12.57,12.57 0 0 0 4.35,-0.77 C 298.73,48 302,36.86 297.74,25.19 294.31,15.77 287,9.44 279.6,9.44 Z"
       fill="#ffffff"
       id="path4" />
    <path
       d="m 326.53,85.52 a 3.56,3.56 0 0 1 -0.91,-0.12 l -4.78,-1.28 c -21.62,-5.79 -35.91,-9.62 -55.59,-22.43 -8.37,-5.46 -14.24,-12.31 -17,-19.84 -1,-2.73 -3.63,-10 0.28,-15.6 a 12.11,12.11 0 0 1 4.24,-3.75 21,21 0 0 1 9.64,-2 50.33,50.33 0 0 1 9.25,1 l 0.52,0.09 a 3.5107869,3.5107869 0 0 1 -0.55,7 3.4,3.4 0 0 1 -0.45,0 21.65,21.65 0 0 0 -2.68,-0.18 c -2.74,0 -4.12,0.67 -4.49,1.29 -0.62,1 0.11,3.94 3.19,7.86 3.58,4.57 9.24,9.28 15.93,13.27 8.26,4.93 17.08,8 23,8.09 a 3.5,3.5 0 0 1 3.47,3.55 c 0,1.52 1.07,4.93 8.72,10.66 a 61.92,61.92 0 0 0 9.73,5.8 3.5,3.5 0 0 1 -1.57,6.63 z"
       fill="#ffffff"
       id="path6" />
    <path
       d="m 262.44,24 a 50.48,50.48 0 0 1 9.21,1 24.76,24.76 0 0 0 -3.12,-0.21 c -3.61,0 -6.29,1 -7.5,3 -3.35,5.62 5.75,17.23 20.33,25.93 9.22,5.5 18.42,8.52 24.79,8.58 -0.08,4.72 4.86,9.56 10.12,13.51 A 66.94,66.94 0 0 0 326.53,82 c -23.85,-6.43 -38.75,-9.83 -59.37,-23.27 -2.79,-1.81 -11.91,-8 -15.59,-18.09 -0.83,-2.3 -3,-8.3 -0.14,-12.41 a 8.65,8.65 0 0 1 3,-2.64 17.8,17.8 0 0 1 8,-1.57 m 0,-7 a 24.45,24.45 0 0 0 -11.25,2.35 15.8,15.8 0 0 0 -5.5,4.86 c -4.95,7.08 -1.75,15.9 -0.7,18.8 3,8.24 9.34,15.7 18.35,21.57 20.14,13.12 35.44,17.21 56.6,22.88 l 4.77,1.28 a 7.17,7.17 0 0 0 1.82,0.24 7,7 0 0 0 3.13,-13.26 60.52,60.52 0 0 1 -9.2,-5.47 c -7,-5.23 -7.31,-7.79 -7.31,-7.82 a 7,7 0 0 0 -6.94,-7.09 c -4.19,0 -12,-2.06 -21.26,-7.59 -10.44,-6.24 -15.76,-12.79 -17.2,-15.9 h 0.78 a 18.42,18.42 0 0 1 2.24,0.15 6.77,6.77 0 0 0 0.89,0.06 7,7 0 0 0 1.1,-13.91 l -0.43,-0.08 A 53.25,53.25 0 0 0 262.44,17 Z"
       fill="#ffffff"
       id="path8" />
    <path
       d="m 307.46,54.32 a 148.2,148.2 0 0 1 -18.22,-1.4 3.5069075,3.5069075 0 0 1 0.44,-7 H 290 c 10.23,0 13,-1.54 13.62,-2 -0.12,-1.35 -2.16,-5 -10.71,-7.55 l 2,-6.71 c 27.07,8 29.35,14 28.32,18.33 -1.34,5.61 -9.13,6.33 -15.77,6.33 z"
       fill="#ffffff"
       id="path10" />
    <path
       d="m 293.91,33.06 c 15.07,4.44 26.93,9.83 25.9,14.18 -0.61,2.55 -5.3,3.58 -12.35,3.58 A 145.46,145.46 0 0 1 289.68,49.45 H 290 c 11.57,0 16.58,-1.87 17.07,-4.65 0.33,-1.87 -0.75,-8.08 -13.18,-11.74 m 2,-6.71 -2,6.71 -2,6.72 a 24.29,24.29 0 0 1 5.55,2.29 60.81,60.81 0 0 1 -7.47,0.38 h -0.34 a 7,7 0 0 0 -0.89,13.94 151.5,151.5 0 0 0 18.67,1.43 c 4.66,0 17,0 19.16,-9 2,-8.41 -7.41,-13.28 -10.5,-14.88 -6.15,-3.19 -14.4,-5.91 -20.23,-7.62 z"
       fill="#ffffff"
       id="path12" />
    <path
       d="m 515.78,101.06 a 3.5,3.5 0 0 1 -3.43,-4.2 L 514,88.51 h -76.77 a 3.5,3.5 0 0 1 -3.41,-2.71 l -1,-4.36 h -1.1 l -2.67,5.18 a 3.5,3.5 0 0 1 -3.11,1.89 h -27.09 a 3.5,3.5 0 0 1 -2.72,-1.29 3.54,3.54 0 0 1 -0.71,-2.93 L 396,81.53 h -1.84 l -0.88,4.2 a 3.5,3.5 0 0 1 -3.43,2.78 h -33 A 11.46,11.46 0 0 1 345.53,75.15 L 350,47.68 h -15.2 a 3.5,3.5 0 0 1 -2.44,-6 l 12.79,-12.45 a 3.54,3.54 0 0 1 2.44,-1 h 4.65 l -4.95,-7.34 a 3.51,3.51 0 0 1 2.91,-5.46 H 415 a 11.56,11.56 0 0 1 6.53,2 12.14,12.14 0 0 1 6.75,-2 h 124 a 3.5,3.5 0 0 1 2.72,5.78 l -10.6,12.3 a 3.49,3.49 0 0 1 -2.65,1.22 h -6.47 l -2.13,12 a 3.5,3.5 0 0 1 -0.73,1.6 h 4 a 3.51,3.51 0 0 1 2.81,1.4 l 3.21,4.27 1.34,-9.45 a 3.5,3.5 0 0 1 2,-2.66 l 15.32,-7.37 a 3.5,3.5 0 0 1 5,3.64 l -1.4,10.13 h 48.76 l 6.82,-30 a 3.5,3.5 0 0 1 3.41,-2.72 h 25.43 a 3.49,3.49 0 0 1 3.21,4.89 l -19.6,44.94 h 1.41 l 17.4,-13.08 21.29,-29.13 a 3.47,3.47 0 0 1 1.56,-1.2 l 16,-6.18 a 3.6,3.6 0 0 1 1.26,-0.23 H 750 a 3.5,3.5 0 0 1 2,6.42 l -26.86,18.13 a 3.47,3.47 0 0 1 -2,0.61 h -15.33 a 14.6,14.6 0 0 1 2.3,2.07 13.6,13.6 0 0 1 3.53,7.38 14.53,14.53 0 0 1 -2.55,9.81 17.14,17.14 0 0 1 -4.05,4.4 h 1.15 a 3.51,3.51 0 0 1 3.19,5 l -7.74,17.1 a 3.52,3.52 0 0 1 -3.19,2.06 H 583.64 a 3.38,3.38 0 0 1 -1.51,-0.35 13.35,13.35 0 0 1 -3.06,0.35 h -17.71 a 11.66,11.66 0 0 1 -3.48,-0.54 3.49,3.49 0 0 1 -1.86,0.54 H 542 a 3.51,3.51 0 0 1 -2.77,-1.37 l -2,-2.56 -1,5.12 a 3.5,3.5 0 0 1 -1.88,2.49 l -17.11,8.49 a 3.4,3.4 0 0 1 -1.46,0.33 z"
       fill="#ffffff"
       id="path14" />
    <path
       d="m 552.3,18.93 -10.6,12.3 h -9.4 l -2.64,14.88 -10.76,5.71 h 17.52 l 8.29,11.12 2.54,-17.87 15.31,-7.36 -2.11,15.29 v 0 a 8.64,8.64 0 0 1 4.4,-1.18 h 51.33 l 7.44,-32.74 h 25.43 l -21,48.28 0.85,1.54 h 6.39 l 18.76,-14.09 21.6,-29.56 16,-6.17 H 750 L 723.18,37.24 H 702.1 L 695,40.7 c 5.67,0 9.88,1.53 12.5,4.45 a 10.15,10.15 0 0 1 2.65,5.5 11,11 0 0 1 -2,7.47 c -1.76,2.77 -4,4.17 -6.6,5.79 A 33.92,33.92 0 0 1 697.69,66 c -2.27,1 -5.94,2.86 -11.12,5.52 h 10.53 c 1.61,0 2.81,-1.57 3.38,-2.32 l 0.2,-0.26 0.81,-1 h 6.7 L 700.45,85 H 583.64 l 0.13,-1.21 A 9.41,9.41 0 0 1 579.08,85 h -17.72 a 8,8 0 0 1 -5.09,-1.84 v 0 L 556,85 h -14 l -6.75,-8.75 -2.4,12.79 -17.1,8.5 2.57,-12.54 h -81.09 l -1.63,-7.07 h -6 L 425.94,85 h -27.09 l 1.47,-7 h -9 l -1.47,7 h -33 A 8,8 0 0 1 349,75.73 l 5.11,-31.55 H 334.8 l 12.79,-12.45 h 9.07 l 0.43,-2.57 -6.89,-10.23 H 415 a 8,8 0 0 1 6.16,2.89 c 0.11,0.12 0.3,0.39 0.3,0.39 a 8.68,8.68 0 0 1 6.82,-3.28 h 124 M 750,19.08 v 0 M 552.3,11.93 h -124 a 15.7,15.7 0 0 0 -6.73,1.5 15,15 0 0 0 -6.55,-1.5 H 350.2 a 7,7 0 0 0 -5.81,10.91 l 1.43,2.16 a 7,7 0 0 0 -3.11,1.75 l -12.79,12.41 a 7,7 0 0 0 4.88,12 h 11.06 l -3.79,23.43 A 15,15 0 0 0 356.85,92 h 33 a 7,7 0 0 0 4.5,-1.63 7,7 0 0 0 4.5,1.63 h 27.09 a 7,7 0 0 0 5.64,-2.86 7,7 0 0 0 5.65,2.86 h 72.53 l -0.84,4.16 a 7,7 0 0 0 10,7.66 L 536,95.33 A 7,7 0 0 0 539.44,91.52 7.06,7.06 0 0 0 542,92 h 14 a 6.74,6.74 0 0 0 2.16,-0.35 14.69,14.69 0 0 0 3.18,0.35 h 17.72 a 17.1,17.1 0 0 0 2.78,-0.23 7.06,7.06 0 0 0 1.78,0.23 h 116.83 a 7,7 0 0 0 6.38,-4.12 l 7.74,-17.1 a 7,7 0 0 0 -0.49,-6.68 7.25,7.25 0 0 0 -0.84,-1.06 c 0.27,-0.37 0.54,-0.76 0.8,-1.17 a 18,18 0 0 0 3.07,-12.15 16.46,16.46 0 0 0 -1.75,-5.5 h 7.82 A 7,7 0 0 0 727.1,43 L 753.81,25 A 7,7 0 0 0 750,12.08 h -58.37 a 7,7 0 0 0 -2.53,0.47 l -16,6.17 a 7.13,7.13 0 0 0 -3.13,2.4 L 649,49.84 l -8.48,6.37 14.93,-34.34 a 7,7 0 0 0 -6.42,-9.79 h -25.41 a 7,7 0 0 0 -6.82,5.45 l -6.21,27.29 h -41.94 l 0.85,-6.15 a 7,7 0 0 0 -10,-7.27 l -15.32,7.36 a 7,7 0 0 0 -3.89,5.33 l -0.25,1.75 a 7.09,7.09 0 0 0 -3.08,-1 l 1.18,-6.61 h 3.53 A 7,7 0 0 0 547,35.8 l 10.6,-12.3 a 7,7 0 0 0 -5.3,-11.57 z m 0,14 z"
       fill="#ffffff"
       id="path16" />
    <ellipse
       cx="282.70001"
       cy="30.67"
       rx="9"
       ry="14.79"
       transform="rotate(-20.02,282.74076,30.685507)"
       fill="#40256c"
       id="ellipse18" />
    <path
       d="m 306.15,62.38 c -0.08,4.72 4.86,9.56 10.12,13.51 A 66.94,66.94 0 0 0 326.53,82 c -23.85,-6.43 -38.75,-9.83 -59.37,-23.27 -2.79,-1.81 -11.91,-8 -15.59,-18.09 -0.83,-2.3 -3,-8.3 -0.14,-12.41 a 8.65,8.65 0 0 1 3,-2.64 c 5.88,-3 15.71,-0.78 17.24,-0.53 -5.18,-0.66 -9.08,0.21 -10.62,2.79 -3.35,5.62 5.75,17.23 20.33,25.93 9.2,5.52 18.4,8.54 24.77,8.6 z"
       fill="#c12a2b"
       id="path20" />
    <path
       d="m 293.91,33.06 c 12.43,3.66 13.51,9.87 13.18,11.74 -0.5,2.8 -5.59,4.69 -17.41,4.65 16.17,2.07 29.1,2.13 30.13,-2.21 C 320.84,42.9 309,37.5 293.91,33.06 Z"
       fill="#c12a2b"
       id="path22" />
    <text
       transform="translate(683.36,57)"
       font-size="1.18px"
       fill="#c12e3a"
       font-family="ArialMT, Arial"
       style="isolation:isolate"
       id="text24">I hate bugs!</text>
    <path
       d="m 694.83,40.79 7.27,-3.55 h 21.08 L 750,19.08 h -58.37 l -16,6.17 -21.6,29.56 -18.73,14.09 h -6.39 l -0.85,-1.54 21,-48.28 h -25.44 l -7.44,32.74 H 564.85 A 8.72,8.72 0 0 0 560.44,53 v 0 l 2.11,-15.29 -15.31,7.36 -2.54,17.87 -8.29,-11.12 H 518.9 l 10.76,-5.71 2.64,-14.88 h 9.4 l 10.6,-12.3 h -124 a 8.68,8.68 0 0 0 -6.82,3.28 c 0,0 -0.19,-0.27 -0.3,-0.39 A 8,8 0 0 0 415,18.93 h -64.8 l 6.89,10.23 -0.43,2.57 h -9.07 L 334.8,44.18 h 19.29 L 349,75.73 a 8,8 0 0 0 7.85,9.27 h 33 l 1.47,-7 h 9 l -1.47,7 h 27.09 l 3.65,-7.07 h 6 l 1.64,7.07 h 81.09 l -2.54,12.55 17.1,-8.5 2.4,-12.79 L 542,85 h 14 l 0.25,-1.84 a 8,8 0 0 0 5.11,1.84 h 17.72 a 9.41,9.41 0 0 0 4.69,-1.21 L 583.64,85 h 116.81 l 7.74,-17.11 h -6.7 l -0.81,1 -0.2,0.26 c -0.57,0.75 -1.77,2.32 -3.38,2.32 h -10.53 c 5.18,-2.66 8.85,-4.48 11.12,-5.52 a 33.92,33.92 0 0 0 3.85,-2.08 c 2.6,-1.62 4.84,-3 6.6,-5.79 a 11,11 0 0 0 2,-7.47 10.08,10.08 0 0 0 -2.65,-5.5 c -2.65,-3 -6.94,-4.45 -12.73,-4.45"
       fill="#40256c"
       id="path26" />
    <path
       d="m 386.53,21.61 h -31.3 l 4.68,6.94 -1,5.86 h -10.23 l -7.28,7.09 h 15.9 l -2.36,13 10.78,-5 1.13,-8 h 17.22 a 4.31,4.31 0 0 0 4.25,-3.6 l 2,-11.86 a 3.81,3.81 0 0 0 -3.79,-4.43 z m -3.53,8.49 -0.3,2.13 a 2.64,2.64 0 0 1 -2.62,2.28 h -12.39 l 1,-5.91 h 13.05 a 1.32,1.32 0 0 1 1.26,1.5 z"
       fill="#ffffff"
       id="path28" />
    <path
       d="m 458.73,28.57 h -24.67 a 3.45,3.45 0 0 0 -3.53,2.52 l -1.64,8.31 c -0.32,1.62 1.16,3.09 3.1,3.09 h 9.51 l 3.7,7 h -20.41 a 5.31,5.31 0 0 1 -5.23,-6.17 l 2.77,-16.63 a 6,6 0 0 1 5.95,-5 h 36 z"
       fill="#ffffff"
       id="path30" />
    <path
       d="M 420.26,27.92 A 5.34,5.34 0 0 0 415,21.61 h -23.46 a 3.62,3.62 0 0 1 0.57,1 3.86,3.86 0 0 1 0.2,1.88 c -0.65,5.33 -3,18.63 -3,18.63 a 5.35,5.35 0 0 0 5.26,6.31 H 418 a 3.62,3.62 0 0 1 -0.57,-1 3.86,3.86 0 0 1 -0.2,-1.88 c 0.65,-5.34 3,-18.63 3,-18.63 z m -7.49,3.36 -1.53,9.26 A 2.33,2.33 0 0 1 409,42.47 h -10 a 2.31,2.31 0 0 1 -2.28,-2.69 l 1.53,-9.26 a 2.32,2.32 0 0 1 2.28,-1.93 h 9.92 a 2.31,2.31 0 0 1 2.28,2.69 z"
       fill="#ffffff"
       id="path32" />
    <path
       d="m 392.15,61.46 h -26 A 3.45,3.45 0 0 0 362.59,64 L 361,72.29 c -0.32,1.62 1.16,3.09 3.1,3.09 h 9.51 l 3.7,7 h -20.46 a 5.31,5.31 0 0 1 -5.23,-6.17 l 2.77,-16.63 a 6,6 0 0 1 5.95,-5 h 37.38 z"
       fill="#ffffff"
       id="path34" />
    <path
       d="m 456.17,49.45 h -9.08 L 449.3,31 h 9.09 z"
       fill="#ffffff"
       id="path36" />
    <path
       d="m 459.31,35.53 9,13.92 h 11.67 l -9,-13.92 11.86,-13.92 h -11.67 z"
       fill="#ffffff"
       id="path38" />
    <path
       d="m 490.92,42.43 h 17.72 l 3.89,7 h -30.82 l 3,-27.84 h 27.23 l -4.31,6.92 H 492.42 L 492,32.24 h 14.22 l -3.2,6 h -11.65 z"
       fill="#ffffff"
       id="path40" />
    <path
       d="m 503.86,75.32 h 12.61 l 3.89,7 h -25.7 l 3,-27.85 h 27.22 l -4.3,6.92 H 505.37 L 505,65.13 h 14.21 l -3.2,6 h -11.69 z"
       fill="#ffffff"
       id="path42" />
    <path
       d="m 595.83,75.32 h 16.81 l 3.89,7 h -29.91 l 3,-27.85 h 31.44 l -4.31,6.92 h -19.42 l -0.4,3.72 h 14.21 l -3.2,6 h -11.66 z"
       fill="#ffffff"
       id="path44" />
    <path
       d="m 509.45,28.55 4.21,-6.94 h 32.79 l -6,6.94 h -10.4 l -2.8,15.8 -9.6,5.1 3.76,-20.9 z"
       fill="#ffffff"
       id="path46" />
    <path
       d="m 390.83,67.32 0.76,-3.62 h -8.94 l -3.91,18.64 h 8.94 l 1.46,-7 h 14.48 l -1.47,7 h 8.94 l 5.84,-27.85 H 408 l -2.7,12.83 z"
       fill="#ffffff"
       id="path48" />
    <path
       d="M 442.47,54.49 H 429.92 L 413.6,82.34 h 10.7 l 3.7,-7.08 h 9.78 l 1.63,7.08 h 10.71 z m -11.69,15.29 3.94,-7.63 1.76,7.63 z"
       fill="#ffffff"
       id="path50" />
    <path
       d="m 460.86,75.22 7.46,0.08 2.75,7 h -19.29 l 4.43,-27.85 h 8 z"
       fill="#ffffff"
       id="path52" />
    <path
       d="m 482.27,75.22 7.46,0.08 2.76,7 h -19.3 l 4.43,-27.85 h 7.95 z"
       fill="#ffffff"
       id="path54" />
    <path
       d="m 527.25,54.49 -7.76,38.23 11,-5.46 3.25,-17.36 9.6,12.44 h 10.33 l 5.54,-40.05 -9.52,4.57 -3.25,22.9 -11.36,-15.27 z"
       fill="#ffffff"
       id="path56" />
    <path
       d="m 578.07,71.53 a 3.86,3.86 0 0 1 -3.85,3.85 h -5.66 c -1.94,0 -3.42,-1.47 -3.1,-3.09 L 567.1,64 a 3.45,3.45 0 0 1 3.53,-2.52 h 24.67 l 5.57,-7 h -36 a 6,6 0 0 0 -6,5 l -2.77,16.63 a 5.3,5.3 0 0 0 5.23,6.17 h 17.71 c 4.36,0 6.86,-3.52 7.16,-7.89 l 0.73,-10 h -11.19 l -4.19,5.37 h 6.52 v 1.67 z"
       fill="#ffffff"
       id="path58" />
    <path
       d="m 664.53,59.05 h 17.13 a 4,4 0 0 1 -1.1,-3.47 4.07,4.07 0 0 1 2.1,-2.44 6.55,6.55 0 0 1 2.25,-0.74 14.57,14.57 0 0 1 4.69,-0.13 c 2,0.25 2.47,0.67 2.65,0.84 a 2.83,2.83 0 0 1 0.93,1.84 c 0,0.3 0,1.47 -1.75,3 -4.92,4.21 -24.24,11.67 -26.63,12.6 a 51.43,51.43 0 0 0 -5.8,2.9 c -3.25,1.85 -4.24,2.83 -4.91,3.69 a 11.57,11.57 0 0 0 -2.06,5.2 h 46.74 L 704,70.59 h -1.26 c -0.59,0.76 -2.48,3.6 -5.68,3.6 h -21.45 c 11.32,-5.94 17.71,-9.15 21,-10.64 a 30.92,30.92 0 0 0 3.55,-1.92 c 2.43,-1.51 4.32,-2.7 5.76,-4.94 a 8.54,8.54 0 0 0 1.59,-5.69 7.52,7.52 0 0 0 -2,-4.06 c -5.82,-6.47 -21.14,-2.24 -22.75,-1.77 a 31.1,31.1 0 0 0 -7.16,2.8 c -5.35,3 -9.44,8.66 -11.08,11.08 z"
       fill="#ffffff"
       id="path60" />
    <path
       d="m 660,61.86 h 10.56 l -3.56,4.5 c -3.68,1.19 -16.51,5.73 -17.83,14.48 a 8.15,8.15 0 0 0 -0.11,1.5 h -28 L 614.44,71.58 625.76,21.76 H 645 l -19.93,45.75 2.27,4.07 h 8.86 L 656,56.71 677.37,27.47 692.13,21.76 h 49.14 l -18.91,12.8 h -20.88 l -13.69,6.69 c -3,0.23 -14.87,1.45 -22.67,11.08 A 33.7,33.7 0 0 0 660,61.86 Z"
       fill="#ffffff"
       id="path62" />
  </g>
</svg>
