<?xml version="1.0" encoding="UTF-8" standalone="no"?>
<svg
   viewBox="0 0 367.92999 114"
   version="1.1"
   id="svg142"
   sodipodi:docname="pico8.svg"
   width="367.92999"
   height="114"
   inkscape:version="1.1 (c68e22c387, 2021-05-23)"
   xmlns:inkscape="http://www.inkscape.org/namespaces/inkscape"
   xmlns:sodipodi="http://sodipodi.sourceforge.net/DTD/sodipodi-0.dtd"
   xmlns="http://www.w3.org/2000/svg"
   xmlns:svg="http://www.w3.org/2000/svg">
  <defs
     id="defs146" />
  <sodipodi:namedview
     id="namedview144"
     pagecolor="#ffffff"
     bordercolor="#666666"
     borderopacity="1.0"
     inkscape:pageshadow="2"
     inkscape:pageopacity="0.0"
     inkscape:pagecheckerboard="0"
     showgrid="false"
     fit-margin-top="0"
     fit-margin-left="0"
     fit-margin-right="0"
     fit-margin-bottom="0"
     inkscape:zoom="1.113"
     inkscape:cx="183.73765"
     inkscape:cy="56.603774"
     inkscape:window-width="1920"
     inkscape:window-height="1138"
     inkscape:window-x="-8"
     inkscape:window-y="-8"
     inkscape:window-maximized="1"
     inkscape:current-layer="svg142" />
  <g
     id="g1034"
     transform="translate(-316.07)">
    <g
       id="Layer_2"
       data-name="Layer 2">
      <rect
         x="457.85001"
         y="70.300003"
         width="36.52"
         height="22.549999"
         fill="#ffffff"
         id="rect2" />
    </g>
    <g
       id="Layer_1"
       data-name="Layer 1">
      <text
         transform="translate(607.28,94.64)"
         font-size="2.49px"
         fill="#e62246"
         stroke="#ffffff"
         stroke-linecap="round"
         stroke-linejoin="round"
         stroke-width="7"
         font-family="ArialMT, Arial"
         style="isolation:isolate"
         id="text5">I hate bugs!</text>
      <path
         d="m 332.92,110.25 a 3.5,3.5 0 0 1 -3.5,-3.5 V 67.1 a 3.5,3.5 0 0 1 3.5,-3.5 h 6.35 v -6.72 a 3.49,3.49 0 0 1 3.5,-3.5 h 39.77 a 3.49,3.49 0 0 1 3.5,3.5 v 30 a 3.49,3.49 0 0 1 -3.5,3.5 h -26.42 v 16.33 a 3.5,3.5 0 0 1 -3.5,3.5 z"
         fill="#1e2c52"
         id="path7" />
      <path
         d="m 382.54,56.88 v 30.05 h -29.92 v 19.82 h -19.7 V 67.1 h 9.85 V 56.88 h 39.77 m 0,-7 h -39.77 a 7,7 0 0 0 -7,7 v 3.22 h -2.85 a 7,7 0 0 0 -7,7 v 39.65 a 7,7 0 0 0 7,7 h 19.7 a 7,7 0 0 0 7,-7 V 93.93 h 22.92 a 7,7 0 0 0 7,-7 V 56.88 a 7,7 0 0 0 -7,-7 z"
         fill="#ffffff"
         id="path9" />
      <path
         d="m 392.77,110.5 a 3.5,3.5 0 0 1 -3.5,-3.5 V 96.65 a 3.5,3.5 0 0 1 3.5,-3.5 H 399 V 70.6 h -6.22 a 3.5,3.5 0 0 1 -3.5,-3.5 V 56.88 a 3.49,3.49 0 0 1 3.5,-3.5 h 39.4 a 3.5,3.5 0 0 1 3.5,3.5 V 67.1 a 3.5,3.5 0 0 1 -3.5,3.5 h -6.23 v 22.55 h 6.23 a 3.5,3.5 0 0 1 3.5,3.5 V 107 a 3.5,3.5 0 0 1 -3.5,3.5 z"
         fill="#1e2c52"
         id="path11" />
      <path
         d="M 432.17,56.88 V 67.1 h -9.73 v 29.55 h 9.73 V 107 h -39.4 V 96.65 h 9.72 V 67.1 h -9.72 V 56.88 h 39.4 m 0,-7 h -39.4 a 7,7 0 0 0 -7,7 V 67.1 a 7,7 0 0 0 7,7 h 2.72 v 15.55 h -2.72 a 7,7 0 0 0 -7,7 V 107 a 7,7 0 0 0 7,7 h 39.4 a 7,7 0 0 0 7,-7 V 96.65 a 7,7 0 0 0 -7,-7 h -2.73 V 74.1 h 2.73 a 7,7 0 0 0 7,-7 V 56.88 a 7,7 0 0 0 -7,-7 z"
         fill="#ffffff"
         id="path13" />
      <path
         d="m 442.64,110.25 a 3.5,3.5 0 0 1 -3.5,-3.5 V 67.1 a 3.5,3.5 0 0 1 3.5,-3.5 h 6.48 v -6.72 a 3.5,3.5 0 0 1 3.5,-3.5 h 29.92 a 3.49,3.49 0 0 1 3.5,3.5 V 67.1 a 3.5,3.5 0 0 1 -3.5,3.5 h -16.45 v 22.55 h 16.45 a 3.5,3.5 0 0 1 3.5,3.5 v 10.1 a 3.5,3.5 0 0 1 -3.5,3.5 z"
         fill="#1e2c52"
         id="path15" />
      <path
         d="M 482.54,56.88 V 67.1 h -20 v 29.55 h 20 v 10.1 h -39.9 V 67.1 h 10 V 56.88 h 29.92 m 0,-7 h -29.94 a 7,7 0 0 0 -7,7 v 3.22 h -3 a 7,7 0 0 0 -7,7 v 39.65 a 7,7 0 0 0 7,7 h 39.9 a 7,7 0 0 0 7,-7 v -10.1 a 7,7 0 0 0 -7,-7 h -13 V 74.1 h 13 a 7,7 0 0 0 7,-7 V 56.88 a 7,7 0 0 0 -7,-7 z"
         fill="#ffffff"
         id="path17" />
      <path
         d="m 492.52,110.25 a 3.5,3.5 0 0 1 -3.5,-3.5 V 67.1 a 3.5,3.5 0 0 1 3.5,-3.5 H 499 v -6.72 a 3.5,3.5 0 0 1 3.5,-3.5 h 39.9 a 3.49,3.49 0 0 1 3.5,3.5 v 39.77 a 3.5,3.5 0 0 1 -3.5,3.5 h -6.72 v 6.6 a 3.5,3.5 0 0 1 -3.5,3.5 z"
         fill="#1e2c52"
         id="path19" />
      <path
         d="m 542.39,56.88 v 39.77 h -10.22 v 10.1 H 492.52 V 67.1 h 10 V 56.88 h 39.9 m 0,-7 h -39.9 a 7,7 0 0 0 -7,7 v 3.22 h -3 a 7,7 0 0 0 -7,7 v 39.65 a 7,7 0 0 0 7,7 h 39.65 a 7,7 0 0 0 7,-7 v -3.1 h 3.22 a 7,7 0 0 0 7,-7 V 56.88 a 7,7 0 0 0 -7,-7 z"
         fill="#ffffff"
         id="path21" />
      <rect
         x="548.98999"
         y="73.449997"
         width="26.700001"
         height="16.85"
         rx="3.5"
         fill="#1e2c52"
         id="rect23" />
      <path
         d="m 572.19,77 v 9.8 h -19.7 V 77 h 19.7 m 0,-7 h -19.7 a 7,7 0 0 0 -7,7 v 9.8 a 7,7 0 0 0 7,7 h 19.7 a 7,7 0 0 0 7,-7 V 77 a 7,7 0 0 0 -7,-7 z"
         fill="#ffffff"
         id="path25" />
      <path
         d="m 582.29,110.25 a 3.5,3.5 0 0 1 -3.5,-3.5 V 77 a 3.5,3.5 0 0 1 3.5,-3.5 h 6.48 V 56.88 a 3.5,3.5 0 0 1 3.5,-3.5 H 632 a 3.49,3.49 0 0 1 3.5,3.5 v 49.87 a 3.5,3.5 0 0 1 -3.5,3.5 z"
         fill="#1e2c52"
         id="path27" />
      <path
         d="m 632,56.88 v 49.87 H 582.29 V 77 h 10 V 56.88 H 632 m 0,-7 h -39.73 a 7,7 0 0 0 -7,7 V 70 h -3 a 7,7 0 0 0 -7,7 v 29.8 a 7,7 0 0 0 7,7 H 632 a 7,7 0 0 0 7,-7 V 56.88 a 7,7 0 0 0 -7,-7 z"
         fill="#ffffff"
         id="path29" />
      <path
         d="m 647.13,65.36 a 3.5,3.5 0 0 1 -3.5,-3.5 v -10 a 3.5,3.5 0 0 1 1,-2.48 l 19.82,-19.82 a 3.5,3.5 0 0 1 2.48,-1 h 10 a 3.5,3.5 0 0 1 3.5,3.5 V 42 a 3.5,3.5 0 0 1 -3.5,3.5 h -6.47 v 6.35 a 3.5,3.5 0 0 1 -3.5,3.5 h -6.48 v 6.47 a 3.5,3.5 0 0 1 -3.5,3.5 z"
         fill="#1e2c52"
         id="path31" />
      <path
         d="M 676.93,32.06 V 42 H 667 v 9.85 h -10 v 10 h -9.85 v -10 L 667,32.06 h 10 m 0,-7 h -10 a 7,7 0 0 0 -5,2.05 l -19.82,19.83 a 7,7 0 0 0 -2,5 v 10 a 7,7 0 0 0 7,7 H 657 a 7,7 0 0 0 7,-7 v -3 h 3 a 7,7 0 0 0 7,-7 V 49 h 3 a 7,7 0 0 0 7,-7 V 32 a 7,7 0 0 0 -7,-7 z"
         fill="#ffffff"
         id="path33" />
      <path
         d="m 323.07,100.15 a 3.5,3.5 0 0 1 -3.5,-3.5 V 57 a 3.5,3.5 0 0 1 3.5,-3.5 h 6.35 v -6.72 a 3.49,3.49 0 0 1 3.5,-3.5 h 39.77 a 3.49,3.49 0 0 1 3.5,3.5 v 30.05 a 3.5,3.5 0 0 1 -3.5,3.5 h -26.42 v 16.32 a 3.5,3.5 0 0 1 -3.5,3.5 z m 26.3,-36.68 v -3.09 h -3.1 v 3.09 z"
         fill="#fef1e8"
         id="path35" />
      <path
         d="m 372.69,46.78 v 30.05 h -29.92 v 19.82 h -19.7 V 57 h 9.85 V 46.78 h 39.77 M 342.77,67 h 10.1 V 56.88 h -10.1 V 67 m 29.92,-27.2 h -39.77 a 7,7 0 0 0 -7,7 V 50 h -2.85 a 7,7 0 0 0 -7,7 v 39.65 a 7,7 0 0 0 7,7 h 19.7 a 7,7 0 0 0 7,-7 V 83.83 h 22.92 a 7,7 0 0 0 7,-7 v -30 a 7,7 0 0 0 -7,-7 z"
         fill="#ffffff"
         id="path37" />
      <path
         d="m 383,100.28 a 3.5,3.5 0 0 1 -3.5,-3.5 V 86.55 a 3.5,3.5 0 0 1 3.5,-3.5 h 6.23 V 60.5 H 383 A 3.5,3.5 0 0 1 379.5,57 V 46.78 a 3.5,3.5 0 0 1 3.5,-3.5 h 39.4 a 3.49,3.49 0 0 1 3.5,3.5 V 57 a 3.5,3.5 0 0 1 -3.5,3.5 h -6.22 v 22.55 h 6.22 a 3.5,3.5 0 0 1 3.5,3.5 v 10.23 a 3.5,3.5 0 0 1 -3.5,3.5 z"
         fill="#fef1e8"
         id="path39" />
      <path
         d="M 422.44,46.78 V 57 h -9.72 v 29.55 h 9.72 V 96.78 H 383 V 86.55 h 9.73 V 57 H 383 V 46.78 h 39.4 m 0,-7 H 383 a 7,7 0 0 0 -7,7 V 57 a 7,7 0 0 0 7,7 h 2.73 V 79.55 H 383 a 7,7 0 0 0 -7,7 v 10.23 a 7,7 0 0 0 7,7 h 39.4 a 7,7 0 0 0 7,-7 V 86.55 a 7,7 0 0 0 -7,-7 h -2.72 V 64 h 2.72 a 7,7 0 0 0 7,-7 V 46.78 a 7,7 0 0 0 -7,-7 z"
         fill="#ffffff"
         id="path41" />
      <path
         d="m 432.79,100 a 3.5,3.5 0 0 1 -3.5,-3.5 V 57 a 3.5,3.5 0 0 1 3.5,-3.5 h 6.48 v -6.72 a 3.49,3.49 0 0 1 3.5,-3.5 h 29.8 a 3.5,3.5 0 0 1 3.5,3.5 V 57 a 3.5,3.5 0 0 1 -3.5,3.5 h -16.33 v 22.55 h 16.33 a 3.5,3.5 0 0 1 3.5,3.5 v 10 a 3.5,3.5 0 0 1 -3.5,3.5 z"
         fill="#fef1e8"
         id="path43" />
      <path
         d="M 472.57,46.78 V 57 h -19.83 v 29.55 h 19.83 v 10 H 432.79 V 57 h 10 V 46.78 h 29.8 m 0,-7 h -29.8 a 7,7 0 0 0 -7,7 V 50 h -3 a 7,7 0 0 0 -7,7 v 39.53 a 7,7 0 0 0 7,7 h 39.78 a 7,7 0 0 0 7,-7 v -10 a 7,7 0 0 0 -7,-7 H 459.74 V 64 h 12.83 a 7,7 0 0 0 7,-7 V 46.78 a 7,7 0 0 0 -7,-7 z"
         fill="#ffffff"
         id="path45" />
      <path
         d="m 482.67,100.15 a 3.5,3.5 0 0 1 -3.5,-3.5 V 57 a 3.5,3.5 0 0 1 3.5,-3.5 h 6.47 v -6.72 a 3.5,3.5 0 0 1 3.5,-3.5 h 39.9 a 3.49,3.49 0 0 1 3.5,3.5 v 39.9 a 3.5,3.5 0 0 1 -3.5,3.5 h -6.72 v 6.47 a 3.5,3.5 0 0 1 -3.5,3.5 z M 509.09,82.93 V 60.38 H 506 v 22.55 z"
         fill="#fef1e8"
         id="path47" />
      <path
         d="m 532.54,46.78 v 39.9 h -10.22 v 10 H 482.67 V 57 h 10 V 46.78 h 39.9 m -30,39.65 h 10.1 V 56.88 h -10.1 v 29.55 m 30,-46.65 h -39.9 a 7,7 0 0 0 -7,7 V 50 h -3 a 7,7 0 0 0 -7,7 v 39.65 a 7,7 0 0 0 7,7 h 39.65 a 7,7 0 0 0 7,-7 v -3 h 3.22 a 7,7 0 0 0 7,-7 V 46.78 a 7,7 0 0 0 -7,-7 z"
         fill="#ffffff"
         id="path49" />
      <rect
         x="539.02002"
         y="63.349998"
         width="26.700001"
         height="16.85"
         rx="3.5"
         fill="#fef1e8"
         id="rect51" />
      <path
         d="m 562.22,66.85 v 9.85 h -19.7 v -9.85 h 19.7 m 0,-7 h -19.7 a 7,7 0 0 0 -7,7 v 9.85 a 7,7 0 0 0 7,7 h 19.7 a 7,7 0 0 0 7,-7 v -9.85 a 7,7 0 0 0 -7,-7 z"
         fill="#ffffff"
         id="path53" />
      <path
         d="m 572.44,100.15 a 3.5,3.5 0 0 1 -3.5,-3.5 v -29.8 a 3.5,3.5 0 0 1 3.5,-3.5 h 6.48 V 46.78 a 3.5,3.5 0 0 1 3.5,-3.5 h 39.77 a 3.49,3.49 0 0 1 3.5,3.5 v 49.87 a 3.5,3.5 0 0 1 -3.5,3.5 z m 36.15,-17.1 v -3 h -12.7 v 3 z m 0,-19.82 v -3 h -12.7 v 3 z"
         fill="#fef1e8"
         id="path55" />
      <path
         d="m 622.19,46.78 v 49.87 h -49.75 v -29.8 h 10 V 46.78 h 39.77 m -29.8,20 h 19.7 v -10 h -19.7 v 10 m 0,19.82 h 19.7 v -10 h -19.7 v 10 m 29.8,-46.77 h -39.79 a 7,7 0 0 0 -7,7 v 13.02 h -3 a 7,7 0 0 0 -7,7 v 29.8 a 7,7 0 0 0 7,7 h 49.75 a 7,7 0 0 0 7,-7 V 46.78 a 7,7 0 0 0 -7,-7 z"
         fill="#ffffff"
         id="path57" />
      <path
         d="m 642.14,60.13 a 3.5,3.5 0 0 1 -3.5,-3.5 v -6.35 h -6.35 a 3.5,3.5 0 0 1 -3.5,-3.5 V 40.3 h -6.47 a 3.5,3.5 0 0 1 -3.5,-3.5 v -10 a 3.5,3.5 0 0 1 3.5,-3.5 h 6.47 V 17 a 3.5,3.5 0 0 1 3.5,-3.5 h 6.35 V 7 a 3.5,3.5 0 0 1 3.5,-3.5 h 10 a 3.5,3.5 0 0 1 3.5,3.5 v 6.48 h 6.47 a 3.49,3.49 0 0 1 3.5,3.5 v 6.35 h 6.48 a 3.5,3.5 0 0 1 3.5,3.5 v 10 a 3.5,3.5 0 0 1 -3.5,3.5 h -6.48 v 6.48 a 3.5,3.5 0 0 1 -3.5,3.5 h -6.47 v 6.35 a 3.5,3.5 0 0 1 -3.5,3.5 z"
         fill="#fef1e8"
         id="path59" />
      <path
         d="m 652.12,7 v 10 h 10 v 9.85 h 10 v 10 h -10 v 10 h -10 v 9.85 h -10 v -9.92 h -9.85 v -10 h -10 v -10 h 10 V 17 h 9.85 V 7 h 10 m 0,-7 h -10 a 7,7 0 0 0 -7,7 v 3 h -2.85 a 7,7 0 0 0 -7,7 v 2.85 h -3 a 7,7 0 0 0 -7,7 v 10 a 7,7 0 0 0 7,7 h 3 v 3 a 7,7 0 0 0 7,7 h 2.85 v 2.85 a 7,7 0 0 0 7,7 h 10 a 7,7 0 0 0 7,-7 v -2.92 h 3 a 7,7 0 0 0 7,-7 v -3 h 3 a 7,7 0 0 0 7,-7 v -10 a 7,7 0 0 0 -7,-7 h -3 V 17 a 7,7 0 0 0 -7,-7 h -3 V 7 a 7,7 0 0 0 -7,-7 z"
         fill="#ffffff"
         id="path61" />
      <rect
         x="638.64001"
         y="3.5"
         width="16.98"
         height="16.98"
         rx="3.5"
         fill="#e62052"
         id="rect63" />
      <path
         d="m 652.12,7 v 10 h -10 V 7 h 10 m 0,-7 h -10 a 7,7 0 0 0 -7,7 v 10 a 7,7 0 0 0 7,7 h 10 a 7,7 0 0 0 7,-7 V 7 a 7,7 0 0 0 -7,-7 z"
         fill="#ffffff"
         id="path65" />
      <rect
         x="648.62"
         y="13.48"
         width="16.969999"
         height="16.98"
         rx="3.5"
         fill="#fbccab"
         id="rect67" />
      <path
         d="m 662.09,17 v 10 h -10 V 17 h 10 m 0,-7 h -10 a 7,7 0 0 0 -7,7 v 10 a 7,7 0 0 0 7,7 h 10 a 7,7 0 0 0 7,-7 V 17 a 7,7 0 0 0 -7,-7 z"
         fill="#ffffff"
         id="path69" />
      <rect
         x="658.59003"
         y="23.33"
         width="16.98"
         height="16.98"
         rx="3.5"
         fill="#ee77a6"
         id="rect71" />
      <path
         d="m 672.07,26.83 v 10 h -10 v -10 h 10 m 0,-7 h -10 a 7,7 0 0 0 -7,7 v 10 a 7,7 0 0 0 7,7 h 10 a 7,7 0 0 0 7,-7 v -10 a 7,7 0 0 0 -7,-7 z"
         fill="#ffffff"
         id="path73" />
      <rect
         x="648.62"
         y="33.299999"
         width="16.969999"
         height="16.98"
         rx="3.5"
         fill="#83779c"
         id="rect75" />
      <path
         d="m 662.09,36.8 v 10 h -10 v -10 h 10 m 0,-7 h -10 a 7,7 0 0 0 -7,7 v 10 a 7,7 0 0 0 7,7 h 10 a 7,7 0 0 0 7,-7 v -10 a 7,7 0 0 0 -7,-7 z"
         fill="#ffffff"
         id="path77" />
      <rect
         x="638.64001"
         y="43.279999"
         width="16.98"
         height="16.98"
         rx="3.5"
         fill="#4fa5dc"
         id="rect79" />
      <path
         d="m 652.12,46.78 v 10 h -10 v -10 h 10 m 0,-7 h -10 a 7,7 0 0 0 -7,7 v 10 a 7,7 0 0 0 7,7 h 10 a 7,7 0 0 0 7,-7 v -10 a 7,7 0 0 0 -7,-7 z"
         fill="#ffffff"
         id="path81" />
      <rect
         x="628.78998"
         y="33.299999"
         width="16.98"
         height="16.98"
         rx="3.5"
         fill="#5cb130"
         id="rect83" />
      <path
         d="m 642.27,36.8 v 10 h -10 v -10 h 10 m 0,-7 h -10 a 7,7 0 0 0 -7,7 v 10 a 7,7 0 0 0 7,7 h 10 a 7,7 0 0 0 7,-7 v -10 a 7,7 0 0 0 -7,-7 z"
         fill="#ffffff"
         id="path85" />
      <rect
         x="618.82001"
         y="23.33"
         width="16.969999"
         height="16.98"
         rx="3.5"
         fill="#feec2d"
         id="rect87" />
      <path
         d="m 632.29,26.83 v 10 h -10 v -10 h 10 m 0,-7 h -10 a 7,7 0 0 0 -7,7 v 10 a 7,7 0 0 0 7,7 h 10 a 7,7 0 0 0 7,-7 v -10 a 7,7 0 0 0 -7,-7 z"
         fill="#ffffff"
         id="path89" />
      <rect
         x="628.78998"
         y="13.48"
         width="16.98"
         height="16.98"
         rx="3.5"
         fill="#f6a117"
         id="rect91" />
      <path
         d="m 642.27,17 v 10 h -10 V 17 h 10 m 0,-7 h -10 a 7,7 0 0 0 -7,7 v 10 a 7,7 0 0 0 7,7 h 10 a 7,7 0 0 0 7,-7 V 17 a 7,7 0 0 0 -7,-7 z"
         fill="#ffffff"
         id="path93" />
      <text
         transform="translate(607.28,94.64)"
         font-size="2.49px"
         fill="#e62246"
         font-family="ArialMT, Arial"
         style="isolation:isolate"
         id="text95">I hate bugs!</text>
      <polygon
         points="382.54,56.88 342.77,56.88 342.77,67.1 332.92,67.1 332.92,106.75 352.62,106.75 352.62,86.92 382.54,86.92 "
         fill="#1e2c52"
         id="polygon97" />
      <polygon
         points="422.44,67.1 432.17,67.1 432.17,56.88 392.77,56.88 392.77,67.1 402.49,67.1 402.49,96.65 392.77,96.65 392.77,107 432.17,107 432.17,96.65 422.44,96.65 "
         fill="#1e2c52"
         id="polygon99" />
      <polygon
         points="482.54,67.1 462.59,67.1 462.59,96.65 482.54,96.65 482.54,106.75 442.64,106.75 442.64,67.1 452.62,67.1 452.62,56.88 482.54,56.88 "
         fill="#1e2c52"
         id="polygon101" />
      <polygon
         points="542.39,96.65 542.39,56.88 502.49,56.88 502.49,67.1 492.52,67.1 492.52,106.75 532.17,106.75 532.17,106.63 532.17,96.65 "
         fill="#1e2c52"
         id="polygon103" />
      <rect
         x="552.48999"
         y="76.949997"
         width="19.700001"
         height="9.8500004"
         fill="#1e2c52"
         id="rect105" />
      <polygon
         points="592.27,56.88 592.27,67.1 592.27,76.95 582.29,76.95 582.29,106.75 632.04,106.75 632.04,56.88 "
         fill="#1e2c52"
         id="polygon107" />
      <polygon
         points="676.93,42.04 676.93,32.06 666.96,32.06 647.13,51.89 647.13,61.86 656.98,61.86 656.98,51.89 666.96,51.89 666.96,42.04 "
         fill="#1e2c52"
         id="polygon109" />
      <path
         d="M 332.92,46.78 V 57 h -9.85 v 39.65 h 19.7 V 76.83 h 29.92 v -30 z M 352.87,67 h -10.1 V 56.88 h 10.1 z"
         fill="#fef1e8"
         id="path111" />
      <polygon
         points="412.72,57 422.44,57 422.44,46.78 383.04,46.78 383.04,57 392.77,57 392.77,86.55 383.04,86.55 383.04,96.78 422.44,96.78 422.44,86.55 412.72,86.55 "
         fill="#fef1e8"
         id="polygon113" />
      <polygon
         points="472.57,57 452.74,57 452.74,86.55 472.57,86.55 472.57,96.53 432.79,96.53 432.79,57 442.77,57 442.77,46.78 472.57,46.78 "
         fill="#fef1e8"
         id="polygon115" />
      <path
         d="M 492.64,46.78 V 57 h -10 v 39.65 h 39.65 v -10 h 10.22 V 46.78 Z m 20,39.65 h -10.1 V 56.88 h 10.1 z"
         fill="#fef1e8"
         id="path117" />
      <rect
         x="542.52002"
         y="66.849998"
         width="19.700001"
         height="9.8500004"
         fill="#fef1e8"
         id="rect119" />
      <path
         d="m 582.42,46.78 v 20.07 h -10 v 29.8 h 49.75 V 46.78 Z m 29.67,39.77 h -19.7 v -10 h 19.7 z m 0,-19.82 h -19.7 v -10 h 19.7 z"
         fill="#fef1e8"
         id="path121" />
      <polygon
         points="662.1,36.8 662.1,46.78 652.12,46.78 652.12,56.63 642.14,56.63 642.14,46.78 632.29,46.78 632.29,36.8 622.32,36.8 622.32,26.82 632.29,26.82 632.29,16.98 642.14,16.98 642.14,7 652.12,7 652.12,16.98 662.1,16.98 662.1,26.82 672.07,26.82 672.07,36.8 "
         fill="#fef1e8"
         id="polygon123" />
      <rect
         x="642.14001"
         y="7"
         width="9.9799995"
         height="9.9799995"
         fill="#e62052"
         id="rect125" />
      <rect
         x="652.12"
         y="16.98"
         width="9.9799995"
         height="9.9799995"
         fill="#fbccab"
         id="rect127" />
      <rect
         x="662.09003"
         y="26.83"
         width="9.9799995"
         height="9.9799995"
         fill="#ee77a6"
         id="rect129" />
      <rect
         x="652.12"
         y="36.799999"
         width="9.9799995"
         height="9.9799995"
         fill="#83779c"
         id="rect131" />
      <rect
         x="642.14001"
         y="46.779999"
         width="9.9799995"
         height="9.9799995"
         fill="#4fa5dc"
         id="rect133" />
      <rect
         x="632.28998"
         y="36.799999"
         width="9.9799995"
         height="9.9799995"
         fill="#5cb130"
         id="rect135" />
      <rect
         x="622.32001"
         y="26.83"
         width="9.9799995"
         height="9.9799995"
         fill="#feec2d"
         id="rect137" />
      <rect
         x="632.28998"
         y="16.98"
         width="9.9799995"
         height="9.9799995"
         fill="#f6a117"
         id="rect139" />
    </g>
  </g>
</svg>
