<?xml version="1.0" encoding="UTF-8" standalone="no"?>
<svg
   id="Pokémon_mini"
   data-name="Pokémon mini"
   viewBox="0 0 513.99878 99.81002"
   version="1.1"
   sodipodi:docname="pokemini.svg"
   width="513.99878"
   height="99.81002"
   inkscape:version="1.1 (c68e22c387, 2021-05-23)"
   xmlns:inkscape="http://www.inkscape.org/namespaces/inkscape"
   xmlns:sodipodi="http://sodipodi.sourceforge.net/DTD/sodipodi-0.dtd"
   xmlns="http://www.w3.org/2000/svg"
   xmlns:svg="http://www.w3.org/2000/svg"
   xmlns:rdf="http://www.w3.org/1999/02/22-rdf-syntax-ns#"
   xmlns:cc="http://creativecommons.org/ns#"
   xmlns:dc="http://purl.org/dc/elements/1.1/">
  <defs
     id="defs53" />
  <sodipodi:namedview
     id="namedview51"
     pagecolor="#ffffff"
     bordercolor="#666666"
     borderopacity="1.0"
     inkscape:pageshadow="2"
     inkscape:pageopacity="0.0"
     inkscape:pagecheckerboard="0"
     showgrid="false"
     fit-margin-top="0"
     fit-margin-left="0"
     fit-margin-right="0"
     fit-margin-bottom="0"
     inkscape:zoom="1.113"
     inkscape:cx="257.4124"
     inkscape:cy="121.2938"
     inkscape:window-width="1920"
     inkscape:window-height="1138"
     inkscape:window-x="-8"
     inkscape:window-y="-8"
     inkscape:window-maximized="1"
     inkscape:current-layer="Pokémon_mini" />
  <title
     id="title2">logo</title>
  <g
     id="g902"
     transform="translate(-243,-7.09)">
    <path
       d="m 403.73,14.09 a 10.24,10.24 0 0 1 8,3.83 l 5.42,6.76 a 10.24,10.24 0 0 1 -1.65,14.39 9.71,9.71 0 0 1 -1.07,0.74 l -0.25,0.15 c 0.17,0.1 0.33,0.22 0.49,0.32 A 10.22,10.22 0 0 1 423,36 h 6.36 a 15.81,15.81 0 0 1 6.64,1.4 29.05,29.05 0 0 1 9,-1.4 h 1 a 26,26 0 0 1 10.14,2 27,27 0 0 1 10.31,-2 H 467 c 7.72,0 12.47,3.34 15.1,6.15 a 16.17,16.17 0 0 1 1.22,1.45 28.59,28.59 0 0 1 19.79,-7.6 h 1.16 a 30.3,30.3 0 0 1 16,5 10.2,10.2 0 0 1 8.73,-5 h 8.6 a 13.19,13.19 0 0 1 6.24,1.57 28.67,28.67 0 0 1 9.4,-1.58 h 0.88 a 20.25,20.25 0 0 1 14.27,5.87 c 6.19,6.22 6.46,14.71 6.45,16.31 V 89.65 A 10.25,10.25 0 0 1 564.63,99.9 h -11 a 10.16,10.16 0 0 1 -6.37,-2.25 10.21,10.21 0 0 1 -6.38,2.25 H 529 a 10.26,10.26 0 0 1 -8.86,-5.14 30.5,30.5 0 0 1 -15.79,5.1 8.49,8.49 0 0 1 -1.11,0 v 0 A 29.84,29.84 0 0 1 486.8,95 l -0.32,-0.23 a 10.22,10.22 0 0 1 -8.85,5.15 H 467 a 10.15,10.15 0 0 1 -5.65,-1.72 10.15,10.15 0 0 1 -5.65,1.72 h -10.28 a 10.15,10.15 0 0 1 -5.79,-1.81 10.15,10.15 0 0 1 -5.79,1.81 H 423 a 10.15,10.15 0 0 1 -6.61,-2.44 c -4.68,2.05 -10.76,2.44 -16.19,2.44 a 27.5,27.5 0 0 1 -13.28,-3.26 10.2,10.2 0 0 1 -7.48,3.26 H 366.3 a 10.45,10.45 0 0 1 -4.74,-1.17 10.25,10.25 0 0 1 -4.7,1.17 H 344.6 a 10.25,10.25 0 0 1 -8.81,-5 30.4,30.4 0 0 1 -15.62,5 6.35,6.35 0 0 1 -1.08,0.05 v 0 A 29.89,29.89 0 0 1 302.63,95 27.76,27.76 0 0 1 291.29,78.53 29,29 0 0 1 285.17,79.71 H 284 v 9.89 a 10.25,10.25 0 0 1 -10.18,10.3 h -13.6 A 10.25,10.25 0 0 1 250,89.66 V 32.51 a 10.24,10.24 0 0 1 10.24,-10.24 h 24.08 c 13.09,0 20,8.08 22.58,16.17 a 30.07,30.07 0 0 1 12,-2.47 h 1.17 a 30.42,30.42 0 0 1 14.25,4 V 29.16 A 10.24,10.24 0 0 1 344.6,18.93 h 12.26 A 10.24,10.24 0 0 1 367.1,29.16 V 36 h 9.63 A 10.23,10.23 0 0 1 381,26.72 c 0.32,-0.22 0.65,-0.43 1,-0.62 l 16.21,-10.38 a 10.14,10.14 0 0 1 5.52,-1.63 m 62.18,51 c 0,0 0,0 0,-0.06 0,-0.06 0,0.06 0,0.06 m -62.18,-58 v 0 a 17.22,17.22 0 0 0 -9.31,2.74 l -16,10.27 A 16.44,16.44 0 0 0 377,21 16.73,16.73 0 0 0 373.45,24.37 17.26,17.26 0 0 0 356.89,11.92 H 344.6 a 17.26,17.26 0 0 0 -17.24,17.22 v 0.68 a 37.33,37.33 0 0 0 -7.08,-0.85 h -1.34 a 38.34,38.34 0 0 0 -8.22,0.9 c -5.35,-9.26 -14.82,-14.6 -26.4,-14.6 H 260.24 A 17.25,17.25 0 0 0 243,32.51 v 57.15 a 17.26,17.26 0 0 0 17.24,17.24 h 13.62 a 17.28,17.28 0 0 0 16.8,-13.75 33.74,33.74 0 0 0 8.06,7.64 h 0.06 a 36.84,36.84 0 0 0 20.28,6.07 15.54,15.54 0 0 0 1.64,-0.06 36.78,36.78 0 0 0 13.74,-3.28 17.27,17.27 0 0 0 10.16,3.34 h 12.26 a 17.46,17.46 0 0 0 4.71,-0.67 17.46,17.46 0 0 0 4.71,0.67 h 13.15 a 17.36,17.36 0 0 0 8.2,-2.07 l 0.19,-0.11 a 35,35 0 0 0 12.38,2.18 56.92,56.92 0 0 0 15.33,-1.71 17.29,17.29 0 0 0 7.47,1.75 h 10.84 a 17.15,17.15 0 0 0 5.79,-1 17.11,17.11 0 0 0 5.79,1 h 10.24 a 17.24,17.24 0 0 0 5.68,-1 17.11,17.11 0 0 0 5.65,1 h 10.64 a 17.29,17.29 0 0 0 10.19,-3.37 36.82,36.82 0 0 0 15.4,3.37 c 0.53,0 1,0 1.59,-0.05 a 36.86,36.86 0 0 0 14,-3.34 17.27,17.27 0 0 0 10.19,3.39 h 11.82 a 17.23,17.23 0 0 0 6.4,-1.24 17.08,17.08 0 0 0 6.37,1.24 h 11 a 17.27,17.27 0 0 0 17.28,-17.26 v -31.5 c 0,-2.94 -0.55,-13.27 -8.48,-21.25 v 0 A 27.14,27.14 0 0 0 554.14,29 h -0.88 a 36.1,36.1 0 0 0 -9,1.14 A 20.18,20.18 0 0 0 537.62,29 H 529 A 17.19,17.19 0 0 0 518.9,32.3 37.46,37.46 0 0 0 504.43,29 h -1.32 A 36.23,36.23 0 0 0 483.88,34.36 27.31,27.31 0 0 0 467.06,29 h -0.58 A 34.08,34.08 0 0 0 456.19,30.59 32.9,32.9 0 0 0 446,29 h -1 a 35.88,35.88 0 0 0 -8.73,1 22.67,22.67 0 0 0 -6.91,-1 h -3.13 a 17.06,17.06 0 0 0 -3.61,-8.65 l -5.45,-6.78 A 17.12,17.12 0 0 0 403.73,7.12 Z"
       fill="#ffffff"
       id="path4" />
    <path
       d="m 643.55,36 a 15,15 0 0 1 11.28,4.83 12.68,12.68 0 0 1 7.72,-2.63 h 5.06 a 12.44,12.44 0 0 1 9,3.82 15.72,15.72 0 0 1 10.14,-3.82 h 24.09 a 14.45,14.45 0 0 1 11.43,5.18 12.59,12.59 0 0 1 10.12,-5.18 h 5.16 A 12.47,12.47 0 0 1 750,50.57 v 7.27 a 12.7,12.7 0 0 1 -1.44,6.36 12.36,12.36 0 0 1 1.44,5.68 v 17.26 c 0,0.34 0,0.67 0,1 A 12.72,12.72 0 0 1 737.47,99.9 h -5.24 a 12.65,12.65 0 0 1 -9.36,-4.44 12.51,12.51 0 0 1 -8.93,4.44 h -5.71 a 12.57,12.57 0 0 1 -8.39,-3.22 13.36,13.36 0 0 1 -7.89,3.2 h -7.65 a 12.67,12.67 0 0 1 -8.44,-3.26 12.68,12.68 0 0 1 -8.27,3.28 h -5.26 a 12.64,12.64 0 0 1 -8,-3.06 12.45,12.45 0 0 1 -8.15,3.06 h -7.78 a 13.12,13.12 0 0 1 -8.29,-3.31 12.16,12.16 0 0 1 -8.34,3.32 h -7.14 a 13.27,13.27 0 0 1 -6.43,-1.66 11.39,11.39 0 0 1 -2.11,-1.47 12.31,12.31 0 0 1 -8.21,3.13 h -8.31 A 12.63,12.63 0 0 1 577.86,87.19 V 50.58 A 14.92,14.92 0 0 1 591.94,36 h 51.61 m 0,-7 h -52 a 22,22 0 0 0 -20.69,21.45 v 36.7 a 19.67,19.67 0 0 0 18.21,19.73 h 0.14 0.74 7.93 a 19.2,19.2 0 0 0 8.27,-1.86 20.27,20.27 0 0 0 8.48,1.86 h 7.14 a 19.1,19.1 0 0 0 8.42,-2 20,20 0 0 0 8,1.93 h 8 a 19.41,19.41 0 0 0 8.17,-1.81 19.8,19.8 0 0 0 7.82,1.81 h 5.54 a 19.87,19.87 0 0 0 8.15,-1.94 19.58,19.58 0 0 0 8.41,1.92 h 8.1 a 20.39,20.39 0 0 0 7.39,-1.9 19.49,19.49 0 0 0 8.46,1.93 h 6.07 a 19.58,19.58 0 0 0 8.59,-2.51 19.59,19.59 0 0 0 9.19,2.52 h 5.5 A 19.63,19.63 0 0 0 756.91,88.7 c 0.05,-0.54 0.08,-1.09 0.08,-1.63 V 69.81 a 19.52,19.52 0 0 0 -0.89,-5.62 19.7,19.7 0 0 0 0.89,-6.47 V 50.51 A 19.52,19.52 0 0 0 737.52,31.19 h -5.19 a 19.53,19.53 0 0 0 -10.26,3 22.12,22.12 0 0 0 -11.26,-3 h -24.15 a 22.73,22.73 0 0 0 -9.83,2.32 19.23,19.23 0 0 0 -9.22,-2.32 h -5.06 A 19.67,19.67 0 0 0 655.67,32.44 22.36,22.36 0 0 0 643.55,29 Z"
       fill="#ffffff"
       id="path6" />
    <path
       d="M 260.24,99.9 A 10.25,10.25 0 0 1 250,89.66 V 32.51 a 10.24,10.24 0 0 1 10.24,-10.24 h 24.08 c 17.4,0 23.8,14.27 23.86,23.87 V 57.3 c 0,14.06 -11.93,21.46 -23,22.39 H 284 v 9.91 a 10.25,10.25 0 0 1 -10.18,10.3 h -13.6 z"
       id="path8" />
    <path
       d="M 319.09,99.9 A 30,30 0 0 1 302.63,95 C 296.86,91.1 290,83.24 290,67.81 c 0,-22 14.53,-31.84 28.95,-31.84 h 1.17 c 14,0.35 29,10.45 29,31.82 0,23.11 -17.21,31.76 -29,32.06 a 6.35,6.35 0 0 1 -1.03,0.05 z"
       id="path10" />
    <path
       d="m 366.3,99.9 a 10.45,10.45 0 0 1 -4.74,-1.17 10.25,10.25 0 0 1 -4.7,1.17 H 344.6 A 10.25,10.25 0 0 1 334.36,89.66 V 29.16 A 10.24,10.24 0 0 1 344.6,18.93 h 12.26 A 10.24,10.24 0 0 1 367.1,29.16 V 36 h 12.33 a 10.24,10.24 0 0 1 8.46,16 l -9.57,14 10.13,18.8 a 10.25,10.25 0 0 1 -9,15.11 z"
       id="path12" />
    <path
       d="m 400.2,99.9 c -18.82,0 -29,-16.52 -29,-32.06 0,-19.93 10.46,-31.84 28,-31.84 11.29,0 20.08,5.36 24.72,15.09 a 33.94,33.94 0 0 1 3.2,13.61 v 8 a 10.18,10.18 0 0 1 -3.23,7.46 v 7 a 10.28,10.28 0 0 1 -0.91,4.23 C 419.59,98.89 409,99.9 400.2,99.9 Z"
       id="path14" />
    <path
       d="m 391.56,51.83 a 10.25,10.25 0 0 1 -8.37,-4.29 L 378.57,41 A 10.24,10.24 0 0 1 381,26.72 c 0.32,-0.22 0.65,-0.43 1,-0.62 l 16.21,-10.38 a 10.23,10.23 0 0 1 13.51,2.2 l 5.42,6.76 a 10.24,10.24 0 0 1 -1.65,14.39 9.71,9.71 0 0 1 -1.07,0.74 l -17.61,10.57 a 10.22,10.22 0 0 1 -5.25,1.45 z"
       id="path16" />
    <path
       d="m 467,99.9 a 10.17,10.17 0 0 1 -5.68,-1.72 10.17,10.17 0 0 1 -5.68,1.72 h -10.22 a 10.17,10.17 0 0 1 -5.79,-1.81 10.15,10.15 0 0 1 -5.79,1.81 H 423 A 10.25,10.25 0 0 1 412.76,89.66 V 46.21 A 10.24,10.24 0 0 1 423,36 h 6.24 a 15.89,15.89 0 0 1 6.76,1.4 28.77,28.77 0 0 1 9.4,-1.4 26,26 0 0 1 10.77,2 27,27 0 0 1 10.83,-2 c 7.72,0 12.47,3.34 15.1,6.15 5.64,6 5.83,13.86 5.75,16.22 V 89.65 A 10.25,10.25 0 0 1 477.63,99.9 Z m -1.11,-34.77 a 2.53,2.53 0 0 0 0,-0.55 v 0.49 c 0,0 -0.02,0.06 0.02,0.06 z"
       id="path18" />
    <path
       d="M 503.26,99.9 A 29.83,29.83 0 0 1 486.8,95 C 481,91.1 474.16,83.24 474.16,67.82 c 0,-22 14.54,-31.84 28.95,-31.84 h 1.16 c 14,0.34 29.05,10.43 29.05,31.83 0,23.11 -17.21,31.76 -29,32.05 a 8.49,8.49 0 0 1 -1.06,0.04 z"
       id="path20" />
    <path
       d="m 553.63,99.9 a 10.16,10.16 0 0 1 -6.39,-2.25 10.21,10.21 0 0 1 -6.4,2.25 H 529 A 10.24,10.24 0 0 1 518.77,89.66 V 46.21 A 10.23,10.23 0 0 1 529,36 h 8.51 a 13.05,13.05 0 0 1 6.33,1.57 28.5,28.5 0 0 1 9.79,-1.57 20.25,20.25 0 0 1 14.78,5.86 c 6.19,6.22 6.46,14.71 6.45,16.31 V 89.65 A 10.25,10.25 0 0 1 564.63,99.9 Z"
       id="path22" />
    <path
       d="m 614.63,99.9 a 13.27,13.27 0 0 1 -6.43,-1.66 11.39,11.39 0 0 1 -2.11,-1.47 12.34,12.34 0 0 1 -8.41,3.13 h -8.11 A 12.63,12.63 0 0 1 577.86,87.18 V 50.58 A 14.92,14.92 0 0 1 591.94,36 h 51.61 a 14.64,14.64 0 0 1 15.06,14.87 v 36.3 a 13.08,13.08 0 0 1 -3.5,9 12.44,12.44 0 0 1 -9.11,3.73 h -7.6 a 13.12,13.12 0 0 1 -8.29,-3.31 12.19,12.19 0 0 1 -8.48,3.32 z"
       id="path24" />
    <path
       d="M 662.33,99.9 A 12.69,12.69 0 0 1 649.91,87.16 V 69.69 a 12.57,12.57 0 0 1 12.75,-12.1 h 4.93 a 12.41,12.41 0 0 1 12.5,12.31 v 17.24 a 8.55,8.55 0 0 1 -0.06,1 12.72,12.72 0 0 1 -12.44,11.76 z"
       id="path26" />
    <path
       d="m 662.65,70.77 a 13.49,13.49 0 0 1 -5.94,-1.42 12.34,12.34 0 0 1 -6.8,-11.24 v -7.28 a 12.93,12.93 0 0 1 3.7,-9 12.72,12.72 0 0 1 9.09,-3.67 h 4.82 a 12.47,12.47 0 0 1 12.56,12.38 v 7.27 a 12.72,12.72 0 0 1 -3.2,8.92 12.36,12.36 0 0 1 -9.29,4 h -4.94 z"
       id="path28" />
    <path
       d="m 708.42,99.9 a 12.62,12.62 0 0 1 -8.58,-3.22 13.36,13.36 0 0 1 -7.89,3.2 h -7.65 a 12.72,12.72 0 0 1 -12.68,-12.43 9.63,9.63 0 0 1 0,-1.42 c 0.09,-2.9 0,-18 0,-25.39 v -7.35 c 0,-9.73 7.73,-15 15.05,-15.1 h 24.09 c 9.63,0 14.94,7.72 15.05,14.94 v 34 A 12.57,12.57 0 0 1 713.94,99.9 Z"
       id="path30" />
    <path
       d="M 732.23,99.9 A 12.68,12.68 0 0 1 719.82,87.16 V 69.69 a 12.56,12.56 0 0 1 12.75,-12.1 h 4.91 A 12.4,12.4 0 0 1 750,69.88 v 17.26 c 0,0.34 0,0.67 0,1 A 12.72,12.72 0 0 1 737.47,99.9 Z"
       id="path32" />
    <path
       d="m 732.57,70.77 a 13.47,13.47 0 0 1 -6,-1.42 12.34,12.34 0 0 1 -6.8,-11.24 v -7.28 a 12.59,12.59 0 0 1 12.54,-12.64 h 5.06 A 12.48,12.48 0 0 1 750,50.57 v 7.27 a 12.72,12.72 0 0 1 -3.19,8.93 12.37,12.37 0 0 1 -9.32,4 h -4.39 z"
       id="path34" />
    <path
       id="P"
       d="M 260.24,32.51 V 89.6 h 13.55 V 69.45 h 10.53 c 0,0 13.62,-1.13 13.62,-12.19 V 46.2 c 0,0 -0.09,-13.69 -13.62,-13.69 z m 13.55,11.05 H 281 a 4.68,4.68 0 0 1 3.32,4.9 v 4.81 A 4.71,4.71 0 0 1 281,58.09 h -7.21 z"
       fill="#ffffff" />
    <path
       id="o"
       d="m 318.94,46.2 c -3.76,0 -18.74,1.18 -18.74,21.59 0,23.33 19.56,21.81 19.56,21.81 0,0 19.12,-0.2 19.12,-21.82 0,-21.62 -18.88,-21.58 -19.12,-21.6 z m 0.85,11.06 c 0,0 7,-1.13 7,10.53 0,10.81 -7,9.63 -7,9.63 0,0 -7.29,0.09 -7.29,-9.63 0,-11.67 7.26,-10.39 7.26,-10.53 z"
       fill="#ffffff" />
    <path
       id="k"
       d="m 344.6,29.16 h 12.26 v 33 l 9.44,-16 h 13.13 l -13.09,19.2 13.09,24.29 H 366.34 L 356.86,69.42 V 89.65 H 344.6 Z"
       fill="#ffffff" />
    <path
       id="e"
       d="m 399.22,46.2 c -14.45,0 -17.75,11 -17.75,21.59 0,10.59 6.38,21.81 18.73,21.81 12.35,0 13.47,-2.48 13.47,-2.48 v -7.3 h -15.45 c -5.34,0 -4.29,-7.15 -4.29,-7.15 h 23 v -8 c 0,0 0.01,-18.47 -17.71,-18.47 z m 0.86,9.48 c 6.1,0 6.17,2.41 6.17,2.41 V 64.7 H 394 v -6.61 c 0,0 0,-2.41 6.09,-2.41 z"
       fill="#ffffff" />
    <path
       id="_"
       data-name=" "
       d="m 386.9,35.05 4.63,6.55 17.64,-10.54 -5.43,-6.76 -16.6,10.64 -0.21,0.11 z"
       fill="#ffffff" />
    <path
       id="m"
       d="m 423,89.65 h 10.84 v -25 c 0,0 0.45,-6.56 6,-6.56 5.55,0 5.57,6.56 5.57,6.56 v 25 h 10.24 v -25 c 0,0 0.23,-6.56 5.79,-6.56 5.56,0 5.56,6.61 5.56,6.61 v 25 h 10.61 V 58.11 c 0,0 0.76,-11.9 -10.61,-11.9 -11.37,0 -11.36,7.08 -11.36,7.08 0,0 1.35,-7.08 -10.24,-7.08 -11.59,0 -11.58,7.08 -11.58,7.08 0,0 1.65,-7.08 -4.6,-7.08 H 423 Z"
       fill="#ffffff" />
    <path
       id="o-2"
       d="m 503.14,46.22 c -3.74,0 -18.74,1.19 -18.74,21.6 0,23.32 19.6,21.82 19.6,21.82 0,0 19.11,-0.2 19.11,-21.82 C 523.11,46.2 504.2,46.24 504,46.22 Z M 504,57.29 c 0,0 7,-1.14 7,10.53 0,10.81 -7,9.63 -7,9.63 0,0 -7.3,0.09 -7.3,-9.63 0,-11.7 7.27,-10.4 7.27,-10.53 z"
       fill="#ffffff" />
    <path
       id="n"
       d="m 529,89.65 h 11.82 v -25 c 0,0 -0.3,-6.56 6.24,-6.56 6.54,0 6.55,6.56 6.55,6.56 v 25 h 11 V 58.11 c 0,0 0.08,-11.9 -11,-11.9 -11.08,0 -12.79,7.08 -12.79,7.08 0,0 1.05,-7.08 -3.32,-7.08 H 529 Z"
       fill="#ffffff" />
    <path
       id="m-2"
       d="m 592.74,46.21 h 50.7 c 0,0 4.89,-0.19 4.89,4.62 V 87.14 A 2.31,2.31 0 0 1 646,89.65 h -7.35 a 2.46,2.46 0 0 1 -2.44,-2.48 V 64.7 c 0,0 -0.22,-2.86 -2.35,-2.86 h -7.34 c 0,0 -2.44,-0.29 -2.44,2.86 v 22.44 c 0,0 -0.32,2.51 -2.45,2.51 h -6.92 a 2.44,2.44 0 0 1 -2.65,-2.2 c 0,-0.11 0,-0.21 0,-0.31 V 64.7 c 0,0 0.75,-2.86 -2.57,-2.86 h -6.91 c 0,0 -2.46,-0.29 -2.46,2.86 v 22.44 a 2.44,2.44 0 0 1 -2.37,2.51 h -7.41 A 2.44,2.44 0 0 1 588.1,87.14 V 50.83 a 4.83,4.83 0 0 1 4.64,-4.62 z"
       fill="#f1d941" />
    <path
       id="i"
       d="m 667.48,67.83 a 2.15,2.15 0 0 1 2.35,1.94 1.63,1.63 0 0 1 0,0.38 v 17 c 0,0 -0.25,2.51 -2.29,2.51 h -5 a 2.48,2.48 0 0 1 -2.44,-2.51 v 0 -17 a 2.43,2.43 0 0 1 2.52,-2.32 c 2.45,0 4.71,0.08 4.86,0 z"
       fill="#f1d941" />
    <path
       id="dot"
       d="m 662.67,60.53 a 2.4,2.4 0 0 1 -2.51,-2.29 0.53,0.53 0 0 1 0,-0.13 v -7.28 a 2.41,2.41 0 0 1 2.38,-2.41 h 5 a 2.26,2.26 0 0 1 2.33,2.19 1.48,1.48 0 0 1 0,0.21 v 7.28 a 2.14,2.14 0 0 1 -1.87,2.42 2,2 0 0 1 -0.42,0 c -2.58,0.01 -4.84,-0.01 -4.91,0.01 z"
       fill="#f1d941" />
    <path
       id="n-2"
       d="m 681.85,87.14 a 2.52,2.52 0 0 0 2.48,2.51 h 7.08 a 2.57,2.57 0 0 0 2.49,-2.51 V 64.7 c 0,0 0.07,-2.86 2.4,-2.86 h 7.23 c 0,0 2.47,-0.29 2.47,2.86 v 22.44 a 2.31,2.31 0 0 0 2.1,2.5 h 5.19 a 2.41,2.41 0 0 0 2.26,-2.51 V 53.29 c 0,0 -0.07,-4.9 -4.81,-4.9 h -24 c 0,0 -4.89,0 -4.89,4.86 0,4.86 0.23,34.16 0,33.89 z"
       fill="#f1d941" />
    <path
       id="i-2"
       d="m 737.39,67.83 a 2.15,2.15 0 0 1 2.35,1.94 2.41,2.41 0 0 1 0,0.38 v 17 c 0,0 -0.25,2.51 -2.27,2.51 h -5 a 2.47,2.47 0 0 1 -2.44,-2.51 v 0 -17 a 2.43,2.43 0 0 1 2.51,-2.32 c 2.46,0 4.7,0.08 4.85,0 z"
       fill="#f1d941" />
    <path
       id="dot-2"
       d="m 732.57,60.53 a 2.4,2.4 0 0 1 -2.51,-2.29 v -7.41 a 2.4,2.4 0 0 1 2.38,-2.41 h 5 a 2.24,2.24 0 0 1 2.32,2.19 v 7.49 a 2.16,2.16 0 0 1 -1.85,2.41 2,2 0 0 1 -0.43,0 c -2.54,0.02 -4.83,0 -4.91,0.02 z"
       fill="#f1d941" />
  </g>
  <metadata
     id="metadata870">
    <rdf:RDF>
      <cc:Work
         rdf:about="">
        <dc:title>logo</dc:title>
      </cc:Work>
    </rdf:RDF>
  </metadata>
</svg>
