<?xml version="1.0" encoding="UTF-8" standalone="no"?>
<svg
   id="Capa_1"
   data-name="Capa 1"
   viewBox="0 0 394.24289 113.97079"
   version="1.1"
   sodipodi:docname="ports.svg"
   width="394.24289"
   height="113.97079"
   inkscape:version="1.1 (c68e22c387, 2021-05-23)"
   xmlns:inkscape="http://www.inkscape.org/namespaces/inkscape"
   xmlns:sodipodi="http://sodipodi.sourceforge.net/DTD/sodipodi-0.dtd"
   xmlns="http://www.w3.org/2000/svg"
   xmlns:svg="http://www.w3.org/2000/svg"
   xmlns:rdf="http://www.w3.org/1999/02/22-rdf-syntax-ns#"
   xmlns:cc="http://creativecommons.org/ns#"
   xmlns:dc="http://purl.org/dc/elements/1.1/">
  <defs
     id="defs55" />
  <sodipodi:namedview
     id="namedview53"
     pagecolor="#ffffff"
     bordercolor="#666666"
     borderopacity="1.0"
     inkscape:pageshadow="2"
     inkscape:pageopacity="0.0"
     inkscape:pagecheckerboard="0"
     showgrid="false"
     fit-margin-top="0"
     fit-margin-left="0"
     fit-margin-right="0"
     fit-margin-bottom="0"
     inkscape:zoom="0.5565"
     inkscape:cx="196.7655"
     inkscape:cy="57.502246"
     inkscape:window-width="1920"
     inkscape:window-height="1138"
     inkscape:window-x="-8"
     inkscape:window-y="-8"
     inkscape:window-maximized="1"
     inkscape:current-layer="Capa_1" />
  <title
     id="title2">logo</title>
  <g
     id="g898"
     transform="translate(-302.86496)">
    <path
       d="m 385.58789,110.49968 a 33.51585,33.51585 0 0 1 -22.898,-9.02832 33.502,33.502 0 1 1 -32.50342,-56.61572 33.11732,33.11732 0 0 1 -0.94629,-7.85547 33.5,33.5 0 0 1 67,0 34.13358,34.13358 0 0 1 -0.89746,7.85449 33.5556,33.5556 0 0 1 -9.75488,65.645 z"
       id="path4" />
    <path
       d="M 362.74005,7 A 30.10925,30.10925 0 0 1 390.952,47.33112 35.14085,35.14085 0 0 0 385.58782,46.8675 30.03832,30.03832 0 0 0 362.773,57.36085 l 0.0303,0.03325 a 30.13892,30.13892 0 0 1 22.78444,-10.46032 28.37023,28.37023 0 0 1 5.36418,0.46357 30.29827,30.29827 0 0 1 -13.41484,15.80481 29.94078,29.94078 0 0 0 13.41492,-15.80481 30.0431,30.0431 0 1 1 -28.2119,49.07281 30.25711,30.25711 0 0 0 5.44576,-29.81941 c -0.0275,0.0053 -0.054,0.01294 -0.0815,0.01807 -0.006,-0.01832 -0.0142,-0.03607 -0.0207,-0.05432 a 36.48788,36.48788 0 0 1 -5.34357,0.45172 28.36624,28.36624 0 0 1 -5.36426,-0.46363 l 0.005,-0.01281 c -0.90473,-0.15931 -1.78951,-0.37206 -2.6635,-0.61047 0.87253,0.24175 1.75531,0.45959 2.65861,0.62328 -0.009,0.02413 -0.0163,0.04878 -0.0251,0.07294 a 28.42576,28.42576 0 0 0 5.32312,0.45691 36.77952,36.77952 0 0 0 5.43046,-0.46362 30.26724,30.26724 0 0 1 -5.43046,29.86755 l -0.0259,-0.03143 a 30.01176,30.01176 0 1 1 -28.11981,-49.10759 29.59728,29.59728 0 0 1 5.43047,-0.52979 29.94538,29.94538 0 0 1 6.62457,0.73828 30.76427,30.76427 0 0 0 -6.55835,-0.80456 29.5981,29.5981 0 0 0 -5.43047,0.52984 A 29.95539,29.95539 0 0 1 362.74005,7 m -6.55151,63.71064 q -0.0324,0.14982 -0.0631,0.30051 0.0309,-0.15045 0.0631,-0.30051 c 0.06,-0.27769 0.12416,-0.55328 0.19035,-0.82777 q -0.1012,0.41217 -0.19035,0.82777 m -0.29212,1.55517 q -0.0232,0.14254 -0.0445,0.286 -0.0634,0.42095 -0.1147,0.84506 c 0.0359,-0.28286 0.073,-0.56506 0.1147,-0.84506 q 0.0216,-0.14316 0.0445,-0.286 M 362.74005,0 a 37.0419,37.0419 0 0 0 -37,37 36.53431,36.53431 0 0 0 0.42536,5.55991 37.00208,37.00208 0 1 0 36.51106,63.50739 37.04121,37.04121 0 1 0 36.66459,-63.51453 38.365,38.365 0 0 0 0.39899,-5.55277 37.0419,37.0419 0 0 0 -37,-37 z"
       fill="#ffffff"
       id="path6" />
    <path
       d="m 438.90625,88.66667 c -0.71924,0 -2.77148,0.02735 -6.10937,0.082 h -0.0566 a 3.49947,3.49947 0 0 1 -3.48974,-3.76562 l 0.7456,-9.80957 1.02881,-21.63037 0.49561,-15.71387 c 0.0254,-1.36865 0.0396,-2.79541 0.0396,-4.23584 q 0,-1.59961 -0.041,-4.79834 a 3.49971,3.49971 0 0 1 3.49951,-3.54443 l 0.0552,4.8e-4 c 3.47607,0.05469 6.354,0.08252 8.55322,0.08252 1.72071,0 4.16895,-0.0415 7.27539,-0.123 3.16065,-0.083 5.71192,-0.12549 7.5835,-0.12549 a 33.77987,33.77987 0 0 1 9.43115,0.98291 17.05335,17.05335 0 0 1 6.3252,3.60449 16.24579,16.24579 0 0 1 4.1626,5.94776 20.93284,20.93284 0 0 1 1.50244,7.90722 21.77534,21.77534 0 0 1 -3.18311,11.53174 19.98708,19.98708 0 0 1 -8.92236,7.87793 28.52865,28.52865 0 0 1 -11.92434,2.46781 37.2088,37.2088 0 0 1 -6.62842,-0.63672 3.399,3.399 0 0 1 -0.458,-0.11621 l -0.127,4.06739 c -0.16308,5.54 -0.2456,9.65527 -0.2456,12.22558 q 0,1.47217 0.041,4.252 A 3.49907,3.49907 0 0 1 444.96,88.7487 c -0.0161,0 -6.05375,-0.08203 -6.05375,-0.08203 z m 10.35742,-38.69531 a 21.031,21.031 0 0 0 3.62061,0.3208 12.22948,12.22948 0 0 0 4.61571,-0.772 4.98807,4.98807 0 0 0 2.38087,-2.01319 6.147,6.147 0 0 0 0.94043,-3.40039 4.53884,4.53884 0 0 0 -0.33838,-1.8125 2.03723,2.03723 0 0 0 -0.65771,-0.87793 3.25947,3.25947 0 0 0 -1.26709,-0.57422 16.64833,16.64833 0 0 0 -3.32227,-0.23 c -1.498,0 -3.02686,0.02686 -4.543,0.08057 q -0.50463,0.01758 -0.98877,0.03174 c -0.17575,3.16069 -0.32321,6.25396 -0.4404,9.24712 z"
       id="path8" />
    <path
       d="m 458.48572,28.5852 a 31.02586,31.02586 0 0 1 8.40233,0.82783 13.48852,13.48852 0 0 1 5.00764,2.856 12.71059,12.71059 0 0 1 3.2699,4.67719 17.353,17.353 0 0 1 1.2417,6.58113 18.2419,18.2419 0 0 1 -2.66968,9.70609 16.46656,16.46656 0 0 1 -7.38824,6.519 24.93825,24.93825 0 0 1 -10.47187,2.15236 33.58322,33.58322 0 0 1 -6.00165,-0.57947 q -0.911,-4.30435 -2.06959,-8.07124 a 24.61323,24.61323 0 0 0 5.07815,0.5381 15.58468,15.58468 0 0 0 5.94542,-1.03474 8.45288,8.45288 0 0 0 4.00517,-3.37335 9.62825,9.62825 0 0 0 1.48615,-5.27735 8.03,8.03 0 0 0 -0.61957,-3.18707 5.50634,5.50634 0 0 0 -1.79657,-2.31786 6.75077,6.75077 0 0 0 -2.6012,-1.17965 20.304,20.304 0 0 0 -4.06793,-0.31042 q -2.31272,0 -4.66614,0.08276 -2.35345,0.08343 -4.17079,0.08279 -0.4937,8.11292 -0.73985,15.52152 l -0.49341,15.81123 q -0.24738,8.403 -0.24707,12.33446 0,1.49 0.0414,4.30464 l -6.00616,-0.08276 q -1.16025,0 -6.21381,0.08276 l 0.74567,-9.80964 1.03544,-21.7301 0.49735,-15.7699 q 0.0407,-2.15167 0.0414,-4.346 0,-1.61426 -0.0414,-4.84272 5.29767,0.0834 8.60864,0.08277 2.64833,0 7.36688,-0.12415 4.71855,-0.12415 7.49169,-0.12421 m 0,-7 c -1.89943,0 -4.48194,0.04259 -7.67578,0.12665 -3.06993,0.08075 -5.48658,0.12171 -7.18279,0.12171 -2.187,0 -5.04634,-0.02755 -8.49849,-0.08191 -0.0367,-5.7e-4 -0.0737,-8.6e-4 -0.1103,-8.6e-4 a 7.00007,7.00007 0 0 0 -6.99932,7.08827 q 0.04,3.16968 0.0408,4.75445 c 0,1.374 -0.0132,2.77643 -0.0393,4.169 l -0.49417,15.66984 -1.02809,21.5756 -0.73815,9.71065 a 7,7 0 0 0 6.97965,7.53058 q 0.0572,0 0.11447,-9.4e-4 c 3.25824,-0.0532 5.29411,-0.0807 6.05394,-0.0818 l 5.95532,0.08207 q 0.0483,6.6e-4 0.0966,6.6e-4 a 7,7 0 0 0 6.999,-7.10367 q -0.0407,-2.74646 -0.0406,-4.201 c 0,-2.54762 0.0821,-6.62824 0.24405,-12.12845 l 0.003,-0.10206 c 1.27234,0.12689 2.51272,0.19079 3.71162,0.19079 a 31.99265,31.99265 0 0 0 13.37733,-2.78378 23.41985,23.41985 0 0 0 10.45532,-9.23672 25.22371,25.22371 0 0 0 3.69721,-13.357 24.39749,24.39749 0 0 0 -1.75424,-9.21039 19.73986,19.73986 0 0 0 -5.06192,-7.23955 20.50678,20.50678 0 0 0 -7.57532,-4.33311 l -0.0704,-0.02205 a 36.45333,36.45333 0 0 0 -10.45971,-1.137 z m -5.457,22.54645 c 0.742,-0.01323 1.47963,-0.0199 2.20714,-0.0199 1.02533,0 1.68739,0.042 2.08443,0.08172 a 2.58572,2.58572 0 0 1 -0.39281,1.43544 1.477,1.477 0 0 1 -0.75682,0.65326 8.93438,8.93438 0 0 1 -3.26912,0.51 q 0.0599,-1.31956 0.12718,-2.66052 z"
       fill="#ffffff"
       id="path10" />
    <path
       d="m 512.666,89.74284 a 47.048,47.048 0 0 1 -13.75,-2.01562 30.98541,30.98541 0 0 1 -11.835,-6.584 26.43812,26.43812 0 0 1 -7.252,-10.51269 35.579,35.579 0 0 1 -2.1206,-12.36817 37.46134,37.46134 0 0 1 2.62646,-13.873 28.39188,28.39188 0 0 1 7.97852,-11.30762 35.29362,35.29362 0 0 1 11.9834,-6.62207 46.1671,46.1671 0 0 1 14.39648,-2.20215 44.755,44.755 0 0 1 12.84082,1.84375 30.41988,30.41988 0 0 1 11.35645,6.24121 28.794,28.794 0 0 1 7.52647,10.14988 32.93663,32.93663 0 0 1 2.53027,13.28664 39.10433,39.10433 0 0 1 -2.32127,13.38377 29.26033,29.26033 0 0 1 -7.4209,11.36132 31.17375,31.17375 0 0 1 -12.12793,7.02442 47.32194,47.32194 0 0 1 -14.41117,2.19433 z m 1.36523,-49.66894 a 16.65353,16.65353 0 0 0 -9.04,2.35058 14.53432,14.53432 0 0 0 -5.65088,6.376 21.72154,21.72154 0 0 0 -2.00732,9.29639 18.3172,18.3172 0 0 0 1.88867,8.353 11.71132,11.71132 0 0 0 5.38672,5.35352 18.33818,18.33818 0 0 0 8.51269,1.999 18.55055,18.55055 0 0 0 6.585,-1.18164 13.3832,13.3832 0 0 0 5.127,-3.41015 15.254,15.254 0 0 0 3.30762,-5.64942 22.9432,22.9432 0 0 0 1.18261,-7.32715 21.96682,21.96682 0 0 0 -1.05176,-6.78564 13.24537,13.24537 0 0 0 -2.999,-5.15039 12.169,12.169 0 0 0 -4.83105,-3.12744 18.87714,18.87714 0 0 0 -6.41028,-1.09666 z"
       id="path12" />
    <path
       d="m 514.69373,27.75745 a 41.07616,41.07616 0 0 1 11.8377,1.697 26.812,26.812 0 0 1 10.058,5.52562 25.19021,25.19021 0 0 1 6.62249,8.91968 29.3396,29.3396 0 0 1 2.23508,11.87917 35.44366,35.44366 0 0 1 -2.1109,12.18958 25.69292,25.69292 0 0 1 -6.53973,10.01655 27.59493,27.59493 0 0 1 -10.78229,6.22929 44.68479,44.68479 0 0 1 -26.07617,0.1656 27.40343,27.40343 0 0 1 -10.51325,-5.83612 22.87589,22.87589 0 0 1 -6.31213,-9.12665 31.93457,31.93457 0 0 1 -1.90393,-11.15477 33.81749,33.81749 0 0 1 2.37994,-12.58278 24.8172,24.8172 0 0 1 6.99506,-9.93378 31.65833,31.65833 0 0 1 10.803,-5.96025 42.48464,42.48464 0 0 1 13.30713,-2.02814 m -1.57288,49.54467 a 21.94594,21.94594 0 0 0 7.82288,-1.40728 16.9582,16.9582 0 0 0 6.43621,-4.284 18.61539,18.61539 0 0 0 4.077,-6.93292 26.27874,26.27874 0 0 0 1.36591,-8.44372 25.355,25.355 0 0 0 -1.22104,-7.8642 16.83628,16.83628 0 0 0 -3.78723,-6.47766 15.729,15.729 0 0 0 -6.18793,-4.0149 22.25312,22.25312 0 0 0 -7.59522,-1.30377 20.22218,20.22218 0 0 0 -10.88574,2.87665 18.09949,18.09949 0 0 0 -6.9743,7.8642 25.078,25.078 0 0 0 -2.33863,10.78227 21.92949,21.92949 0 0 0 2.2558,9.91311 15.21818,15.21818 0 0 0 6.933,6.91227 21.94327,21.94327 0 0 0 10.0993,2.38 m 1.57288,-56.54467 a 49.66044,49.66044 0 0 0 -15.487,2.37619 38.76619,38.76619 0 0 0 -13.16291,7.28393 31.856,31.856 0 0 0 -8.96237,12.68175 40.94344,40.94344 0 0 0 -2.87286,15.16308 39.05265,39.05265 0 0 0 2.33789,13.58109 29.90319,29.90319 0 0 0 8.19151,11.89978 34.47366,34.47366 0 0 0 13.15753,7.33205 51.68238,51.68238 0 0 0 30.24655,-0.1923 34.65741,34.65741 0 0 0 13.47165,-7.81933 32.748,32.748 0 0 0 8.3024,-12.70694 42.58433,42.58433 0 0 0 2.53087,-14.57788 36.38794,36.38794 0 0 0 -2.82556,-14.693 32.252,32.252 0 0 0 -8.42892,-11.3794 33.89007,33.89007 0 0 0 -12.65336,-6.9579 48.26378,48.26378 0 0 0 -13.84545,-1.99112 z m -1.57288,49.54467 a 14.90645,14.90645 0 0 1 -6.92389,-1.61827 8.2134,8.2134 0 0 1 -3.84149,-3.79263 14.895,14.895 0 0 1 -1.52271,-6.79443 18.00222,18.00222 0 0 1 1.67652,-7.81054 11.14206,11.14206 0 0 1 4.32773,-4.88831 13.27221,13.27221 0 0 1 7.19442,-1.82427 15.16838,15.16838 0 0 1 5.22455,0.89012 8.74381,8.74381 0 0 1 3.476,2.24185 9.83692,9.83692 0 0 1 2.21118,3.82376 18.483,18.483 0 0 1 0.87967,5.70485 19.41515,19.41515 0 0 1 -0.99984,6.2097 11.60314,11.60314 0 0 1 -2.53748,4.36617 9.9572,9.9572 0 0 1 -3.81466,2.536 14.86986,14.86986 0 0 1 -5.35,0.956 z"
       fill="#ffffff"
       id="path14" />
    <path
       d="m 584.31641,88.7487 a 3.50022,3.50022 0 0 1 -3.23047,-2.15429 l -4.55371,-10.93067 q -1.17921,-2.47851 -2.834,-5.83691 l -3.71582,-7.47559 -0.57715,22.98535 a 3.5,3.5 0 0 1 -3.498,3.41211 c -0.0156,0 -6.46778,-0.082 -6.46778,-0.082 -0.96679,0 -3.03222,0.02735 -6.15039,0.08106 -0.0205,0.001 -0.04,0.001 -0.0605,0.001 a 3.50048,3.50048 0 0 1 -3.48243,-3.85254 c 0.82129,-8.11035 1.44532,-17.57714 1.85743,-28.13574 0.41211,-10.58349 0.62109,-20.00732 0.62109,-28.00976 a 3.49977,3.49977 0 0 1 3.5,-3.5 l 0.0586,4.8e-4 c 3.25684,0.05469 6.03516,0.08252 8.25879,0.08252 2.34278,0 4.67383,-0.041 6.92969,-0.12158 2.333,-0.08447 4.833,-0.127 7.42871,-0.127 a 65.36772,65.36772 0 0 1 9.07813,0.57275 19.66876,19.66876 0 0 1 8.16406,3.03028 16.08768,16.08768 0 0 1 5.54394,6.03466 17.43465,17.43465 0 0 1 1.81641,8.05957 21.19359,21.19359 0 0 1 -0.64844,5.28028 19.34126,19.34126 0 0 1 -1.94531,4.7998 17.78676,17.78676 0 0 1 -3.12305,4.01758 18.07425,18.07425 0 0 1 -3.57324,2.71143 20.7301,20.7301 0 0 1 -3.90918,1.6748 c -0.27441,0.08789 -0.56641,0.17774 -0.876,0.27246 l 0.85547,1.66113 c 0.8916,1.7002 2.61426,4.81446 5.11035,9.23633 l 4.17286,7.3125 c 0.15527,0.27246 0.53711,0.97168 2.05273,3.88575 a 3.50019,3.50019 0 0 1 -3.10547,5.11425 h -0.0567 q -5.02148,-0.082 -6.626,-0.082 -1.97607,0 -6.957,0.082 z M 570.3877,50.55388 a 25.53819,25.53819 0 0 0 4.4375,0.44189 14.21069,14.21069 0 0 0 5.21972,-0.915 5.79547,5.79547 0 0 0 2.86328,-2.23242 6.00565,6.00565 0 0 0 1.00879,-3.36914 4.15517,4.15517 0 0 0 -0.36523,-1.771 2.55726,2.55726 0 0 0 -1.00391,-1.03663 5.85089,5.85089 0 0 0 -2.41015,-0.79931 31.52277,31.52277 0 0 0 -4.02051,-0.26026 q -1.2173,0 -3.32813,0.04053 -0.91552,0.01758 -2.01172,0.02783 l -0.42871,9.8667 z"
       id="path16" />
    <path
       d="m 578.40051,28.5852 a 61.56994,61.56994 0 0 1 8.58533,0.53809 16.11607,16.11607 0 0 1 6.72406,2.48346 12.57265,12.57265 0 0 1 4.36542,4.71857 13.91785,13.91785 0 0 1 1.428,6.45691 17.63218,17.63218 0 0 1 -0.53809,4.40814 15.78285,15.78285 0 0 1 -1.59351,3.93214 14.22166,14.22166 0 0 1 -2.50415,3.22845 14.61282,14.61282 0 0 1 -2.87664,2.19372 17.16857,17.16857 0 0 1 -3.24921,1.38659 q -1.82181,0.58008 -4.8841,1.40728 l 2.81458,5.46357 q 1.36587,2.60762 5.17383,9.35432 l 4.18048,7.32616 q 0.33078,0.58008 1.98675,3.76655 -5.06386,-0.0825 -6.682,-0.08276 -1.99255,0 -7.01447,0.08276 l -4.58661,-11.01 q -1.199,-2.52422 -2.89282,-5.96026 L 571.83746,58.221 q -0.744,-1.40661 -2.06628,-4.22186 a 28.89312,28.89312 0 0 0 5.05359,0.49669 17.58956,17.58956 0 0 0 6.50287,-1.15893 9.25362,9.25362 0 0 0 4.51544,-3.58033 9.49508,9.49508 0 0 0 1.57416,-5.27733 7.65458,7.65458 0 0 0 -0.683,-3.22846 5.969,5.969 0 0 0 -2.29718,-2.52483 9.24689,9.24689 0 0 0 -3.8493,-1.32448 34.81569,34.81569 0 0 0 -4.47022,-0.28973 q -1.24173,0 -3.394,0.04138 -2.15268,0.04169 -5.298,0.04138 l -0.7392,17.01159 -0.78,31.04305 -6.422,-0.08276 q -1.53278,0 -6.25586,0.08276 1.24759,-12.33383 1.87232,-28.35267 0.62375,-16.01814 0.62408,-28.14569 4.965,0.0834 8.317,0.08277 3.6,0 7.05517,-0.12415 3.45447,-0.12414 7.30353,-0.12421 m 0,-7 c -2.63617,0 -5.178,0.04331 -7.55493,0.12874 -2.20944,0.07938 -4.4986,0.11962 -6.80377,0.11962 -2.21011,0 -4.96878,-0.02753 -8.1994,-0.08179 -0.0392,-6.6e-4 -0.0785,-0.001 -0.11765,-0.001 a 7,7 0 0 0 -6.99991,7 c 0,7.95139 -0.20819,17.32931 -0.61877,27.87332 -0.409,10.48623 -1.02878,19.88023 -1.84207,27.92056 a 7,7 0 0 0 6.9642,7.70448 q 0.0612,0 0.1225,-0.0011 c 3.05624,-0.0534 5.10425,-0.08086 6.08917,-0.08167 l 6.37622,0.08217 0.092,5.9e-4 a 6.99992,6.99992 0 0 0 6.996,-6.82419 l 0.22049,-8.77565 q 0.10694,0.2238 0.20984,0.44007 l 4.52057,10.85163 a 7.00008,7.00008 0 0 0 6.46094,4.30812 c 0.0386,0 0.0771,-3.1e-4 0.11578,-10e-4 3.30426,-0.05429 5.62555,-0.08181 6.89945,-0.08181 1.02521,0 3.235,0.02752 6.568,0.08183 0.0381,6.2e-4 0.0765,9.4e-4 0.11444,9.4e-4 a 7,7 0 0 0 6.21106,-10.22763 c -1.51269,-2.91112 -1.91925,-3.65893 -2.11746,-4.0065 l -4.18143,-7.32788 c -1.7294,-3.0633 -3.08453,-5.49393 -4.0437,-7.25281 q 0.80818,-0.37482 1.55313,-0.79571 a 21.65388,21.65388 0 0 0 4.27274,-3.231 21.28135,21.28135 0 0 0 3.73736,-4.8051 22.85361,22.85361 0 0 0 2.29871,-5.66657 24.71791,24.71791 0 0 0 0.75922,-6.15373 20.89029,20.89029 0 0 0 -2.20447,-9.6613 19.53705,19.53705 0 0 0 -6.72293,-7.34976 23.1313,23.1313 0 0 0 -9.60453,-3.57816 68.82009,68.82009 0 0 0 -9.57086,-0.60781 z M 574.13071,44.13 q 1.18816,-0.01791 1.98684,-0.01822 a 27.95336,27.95336 0 0 1 3.5723,0.2319 3.46906,3.46906 0 0 1 0.72726,0.1627 2.51056,2.51056 0 0 1 -0.44354,1.436 2.27719,2.27719 0 0 1 -1.21087,0.88145 10.73582,10.73582 0 0 1 -3.93793,0.67207 q -0.40324,0 -0.8393,-0.0233 l 0.14524,-3.34257 z"
       fill="#ffffff"
       id="path18" />
    <path
       d="m 618.833,88.7487 a 3.50035,3.50035 0 0 1 -3.49024,-3.76172 l 0.90724,-12.08593 0.90138,-17.91895 0.457,-14.02783 -4.46973,0.0708 c 0,0 -9.56836,0.29053 -9.60351,0.29053 A 3.49873,3.49873 0 0 1 600.041,37.62126 c 0.21679,-3.90576 0.33984,-6.90625 0.36621,-8.917 a 3.50072,3.50072 0 0 1 3.499,-3.45361 h 0.0254 c 7.89844,0.05566 16.28516,0.08349 24.92578,0.08349 l 14.84375,-0.0415 c 0,0 7.94824,-0.042 7.9541,-0.042 a 3.49947,3.49947 0 0 1 3.49121,3.74463 c -0.26855,3.82812 -0.40429,6.79541 -0.40429,8.82031 a 3.50078,3.50078 0 0 1 -3.5,3.5 c -0.0576,0 -0.11621,-0.0015 -0.17383,-0.0044 -4.87695,-0.24267 -9.61914,-0.36621 -14.09668,-0.36816 l -0.2793,4.28906 -1.18453,29.00392 -0.0791,4.791 c -0.0273,1.98535 -0.041,4.06348 -0.041,6.22168 a 3.49907,3.49907 0 0 1 -3.5,3.5 c -0.0156,0 -6.34571,-0.082 -6.34571,-0.082 -0.63965,0 -2.875,0.02735 -6.65918,0.082 z"
       id="path20" />
    <path
       d="m 651.65564,28.7508 h 0.005 m -0.005,0 q -0.41427,5.89039 -0.41394,9.06458 -7.492,-0.37254 -14.36255,-0.37251 h -3.18707 l -0.49219,7.56152 -1.18933,29.0887 -0.0822,4.87566 q -0.0407,3.017 -0.0407,6.28039 l -6.29981,-0.08277 q -1.0361,0 -6.75513,0.08277 l 0.90741,-12.08612 0.90668,-18.00493 0.57752,-17.71522 h -2.89283 l -2.68646,0.04138 -2.563,0.04138 -9.547,0.28975 q 0.33078,-5.96029 0.3725,-9.06458 11.91569,0.0834 24.94959,0.08343 l 14.85406,-0.04138 7.94446,-0.042 m -47.74912,-7 a 7,7 0 0 0 -6.99838,6.90611 c -0.0263,1.96114 -0.14822,4.912 -0.36236,8.77059 a 7,7 0 0 0 6.989,7.38789 c 0.0709,0 0.14154,-0.0011 0.21262,-0.0032 l 9.49728,-0.28823 0.74554,-0.012 -0.33761,10.35617 -0.89923,17.85676 -0.90094,12.00024 a 7,7 0 0 0 6.98019,7.52407 c 0.0338,0 0.0673,-2.4e-4 0.10108,-7.3e-4 3.69335,-0.05326 5.91626,-0.08082 6.61047,-0.082 l 6.25159,0.08213 0.0921,6.1e-4 a 7.00007,7.00007 0 0 0 6.99988,-7 c 0,-2.13579 0.0135,-4.217 0.0401,-6.18584 l 0.0804,-4.76748 1.18249,-28.92167 0.0591,-0.90852 c 3.43194,0.04565 6.99874,0.15984 10.64428,0.3411 q 0.17422,0.0087 0.34793,0.0087 a 7,7 0 0 0 6.99973,-7 c 0,-1.91132 0.12872,-4.72734 0.38266,-8.3726 q 0.0335,-0.34159 0.0338,-0.692 a 6.99786,6.99786 0 0 0 -6.9975,-7 h -0.005 l -0.0371,10e-5 -7.94446,0.042 -14.83651,0.0413 c -8.60953,0 -16.98731,-0.028 -24.88111,-0.08328 l -0.05,-1.8e-4 z m 47.74912,14 z"
       fill="#ffffff"
       id="path22" />
    <path
       d="m 669.61914,89.74284 a 52.3831,52.3831 0 0 1 -6.61621,-0.48535 c -2.44336,-0.3164 -5.668,-0.91894 -9.584,-1.793 a 3.49993,3.49993 0 0 1 -2.7334,-3.23144 c -0.21582,-4.08692 -0.5,-7.44531 -0.84278,-9.98047 a 3.49983,3.49983 0 0 1 4.916,-3.65527 32.851,32.851 0 0 0 13.28711,3.37011 11.41857,11.41857 0 0 0 3.78613,-0.6084 3.73608,3.73608 0 0 0 1.75,-1.06835 1.865,1.865 0 0 0 0.40137,-1.19727 2.50418,2.50418 0 0 0 -0.16895,-0.97852 8.50119,8.50119 0 0 0 -1.834,-2.1289 c -0.0303,-0.02735 -0.0596,-0.05469 -0.0889,-0.082 -1.51758,-1.46094 -4.30859,-3.93653 -8.29492,-7.3584 -2.01855,-1.75879 -3.374,-2.98145 -4.165,-3.75488 a 32.4863,32.4863 0 0 1 -4.22363,-4.73145 17.0757,17.0757 0 0 1 -2.38281,-4.71777 17.05073,17.05073 0 0 1 1.98242,-14.19873 17.82464,17.82464 0 0 1 8.02832,-6.65821 30.44861,30.44861 0 0 1 12.33008,-2.227 73.96448,73.96448 0 0 1 13.999,1.51367 3.5002,3.5002 0 0 1 2.82422,3.26709 c 0.13281,2.77735 0.40625,6.01709 0.81054,9.6294 a 3.49985,3.49985 0 0 1 -4.7373,3.65527 30.00942,30.00942 0 0 0 -10.63867,-2.249 7.83474,7.83474 0 0 0 -4.59766,1.19092 c -0.73926,0.52783 -1.11426,1.01025 -1.11426,1.43457 a 2.26333,2.26333 0 0 0 0.0762,0.541 2.75169,2.75169 0 0 0 0.23828,0.61914 7.89966,7.89966 0 0 0 0.86718,1.16162 17.78027,17.78027 0 0 0 2.251,2.12012 c 1.12695,0.93213 2.08789,1.68506 2.85645,2.23926 a 3.512,3.512 0 0 1 0.30468,0.24756 l 5.05079,4.58545 c 1.34765,1.12256 2.57519,2.2373 3.64941,3.31347 a 35.82967,35.82967 0 0 1 2.91016,3.2627 18.88426,18.88426 0 0 1 2.10351,3.3164 15.738,15.738 0 0 1 1.58789,6.98731 17.474,17.474 0 0 1 -2.01367,8.18359 17.00847,17.00847 0 0 1 -5.81348,6.37207 22.82712,22.82712 0 0 1 -7.8164,3.252 40.31936,40.31936 0 0 1 -8.34471,0.84169 z"
       id="path24" />
    <path
       d="m 675.16559,27.75745 a 70.17307,70.17307 0 0 1 13.32776,1.44867 q 0.20672,4.30526 0.82782,9.851 a 33.30131,33.30131 0 0 0 -11.89722,-2.4834 11.15061,11.15061 0 0 0 -6.63025,1.84185 5.24725,5.24725 0 0 0 -2.58179,4.28395 5.72991,5.72991 0 0 0 0.17981,1.3866 6.24623,6.24623 0 0 0 0.54,1.40728 10.9682,10.9682 0 0 0 1.28241,1.7798 21.42972,21.42972 0 0 0 2.70075,2.5662 q 1.77721,1.4697 3.03772,2.38 l 5.10724,4.63572 q 1.94109,1.61427 3.47033,3.1457 a 32.17065,32.17065 0 0 1 2.62317,2.93873 15.28613,15.28613 0 0 1 1.71448,2.69042 12.48953,12.48953 0 0 1 0.93,2.62831 12.61594,12.61594 0 0 1 0.30975,2.83524 13.94284,13.94284 0 0 1 -1.61425,6.56043 13.48993,13.48993 0 0 1 -4.63575,5.07037 19.21559,19.21559 0 0 1 -6.62249,2.75251 36.56863,36.56863 0 0 1 -7.61591,0.76569 48.84425,48.84425 0 0 1 -6.16723,-0.45527 q -3.51847,-0.45592 -9.27149,-1.7384 -0.33178,-6.291 -0.8692,-10.26488 8.11194,3.68435 14.73505,3.68378 a 14.8196,14.8196 0 0 0 4.94622,-0.80713 6.96618,6.96618 0 0 0 3.394,-2.2765 5.3678,5.3678 0 0 0 1.09686,-3.2906 5.84318,5.84318 0 0 0 -0.52777,-2.52482 11.67137,11.67137 0 0 0 -2.63733,-3.18708 q -2.36609,-2.27583 -8.44244,-7.4917 -2.89573,-2.5242 -3.99677,-3.601 a 29.58244,29.58244 0 0 1 -3.808,-4.24255 13.5202,13.5202 0 0 1 -1.90393,-3.74585 13.54672,13.54672 0 0 1 1.5935,-11.279 14.33792,14.33792 0 0 1 6.49835,-5.33942 26.90573,26.90573 0 0 1 10.9065,-1.92462 m 0,-7 a 33.86351,33.86351 0 0 0 -13.7526,2.52932 21.26428,21.26428 0 0 0 -9.55789,7.9766 20.54525,20.54525 0 0 0 -2.37115,17.1188 20.5429,20.5429 0 0 0 2.86273,5.6928 35.94062,35.94062 0 0 0 4.67648,5.25588 c 0.8414,0.81976 2.23361,2.07531 4.25309,3.83569 l 0.0408,0.0353 c 3.87393,3.32473 6.59469,5.73556 8.08935,7.16781 a 8.95707,8.95707 0 0 1 -1.3601,0.09807 29.46419,29.46419 0 0 1 -11.84034,-3.0572 7,7 0 0 0 -9.83154,7.3117 c 0.33109,2.448 0.60556,5.71 0.81577,9.69528 a 7,7 0 0 0 5.46606,6.46337 c 4.07239,0.90852 7.30945,1.51312 9.89615,1.8483 a 56.00432,56.00432 0 0 0 7.06677,0.51332 43.7407,43.7407 0 0 0 9.07126,-0.91865 26.27674,26.27674 0 0 0 9.01279,-3.75052 20.47151,20.47151 0 0 0 6.99204,-7.67335 20.93483,20.93483 0 0 0 2.41241,-9.80648 19.21777,19.21777 0 0 0 -1.93646,-8.508 22.3235,22.3235 0 0 0 -2.49114,-3.94215 39.3082,39.3082 0 0 0 -3.19528,-3.5876 c -1.13687,-1.1383 -2.42413,-2.30909 -3.82938,-3.48307 l -4.998,-4.53655 a 7.001,7.001 0 0 0 -0.60666,-0.49183 c -0.71228,-0.51433 -1.61218,-1.22067 -2.67484,-2.0994 -0.38632,-0.3191 -0.69784,-0.59079 -0.94732,-0.81812 a 8.75015,8.75015 0 0 1 0.99542,-0.05313 26.58212,26.58212 0 0 1 9.38013,2.0152 7,7 0 0 0 9.47363,-7.3105 c -0.39587,-3.53647 -0.66248,-6.70178 -0.79242,-9.408 a 7,7 0 0 0 -5.649,-6.53423 77.44839,77.44839 0 0 0 -14.67065,-1.57869 z m -0.48337,23.49694 z"
       fill="#ffffff"
       id="path26" />
    <path
       d="m 362.74006,57.39732 a 30.04,30.04 0 0 1 22.84769,-10.5298 35.14214,35.14214 0 0 1 5.36424,0.46358 30.03318,30.03318 0 1 0 -56.35762,0 29.5971,29.5971 0 0 1 5.43046,-0.52981 30.486,30.486 0 0 1 22.71523,10.59603 z"
       fill="#ff0000"
       id="path28" />
    <path
       d="M 390.952,47.39732 A 30.00966,30.00966 0 0 1 368.17054,66.60262 30.26751,30.26751 0 0 1 362.74007,96.47017 30.03231,30.03231 0 1 0 390.952,47.39732 Z"
       fill="#0000ff"
       id="path30" />
    <path
       d="M 357.37582,66.60262 A 30.10566,30.10566 0 0 1 334.52814,47.39732 30.01158,30.01158 0 1 0 362.74006,96.404 29.8141,29.8141 0 0 1 357.37582,66.60267 Z"
       fill="#00ff00"
       id="path32" />
    <path
       d="m 357.37582,66.60262 a 28.37115,28.37115 0 0 0 5.36424,0.46358 36.78,36.78 0 0 0 5.43046,-0.46358 31.97321,31.97321 0 0 0 -5.36424,-9.2053 28.18675,28.18675 0 0 0 -5.43046,9.2053 z"
       fill="#ffffff"
       id="path34" />
    <path
       d="m 390.952,47.39732 a 28.372,28.372 0 0 0 -5.36424,-0.46357 30.14473,30.14473 0 0 0 -22.84769,10.5298 29.21336,29.21336 0 0 1 5.36424,9.2053 30.31152,30.31152 0 0 0 22.84769,-19.27153"
       fill="#ff00ff"
       id="path36" />
    <path
       d="m 357.3096,66.66885 a 28.37184,28.37184 0 0 0 5.36424,0.46357 36.78134,36.78134 0 0 0 5.43046,-0.46357 A 30.26751,30.26751 0 0 1 362.67383,96.5364 29.81983,29.81983 0 0 1 355.45529,77 a 32.50662,32.50662 0 0 1 1.8543,-10.33113"
       fill="#00ffff"
       id="path38" />
    <path
       d="m 334.52814,47.39732 a 29.598,29.598 0 0 1 5.43047,-0.5298 30.14476,30.14476 0 0 1 22.84768,10.5298 29.21367,29.21367 0 0 0 -5.36424,9.2053 29.86851,29.86851 0 0 1 -22.91391,-19.2053"
       fill="#ffff00"
       id="path40" />
    <path
       d="m 432.74006,85.24914 0.74568,-9.8096 1.03542,-21.73013 0.49733,-15.76987 q 0.0408,-2.15167 0.0414,-4.346 0,-1.61424 -0.0414,-4.84271 5.2977,0.08343 8.60863,0.08278 2.64836,0 7.3669,-0.12417 4.71854,-0.12417 7.49173,-0.12418 a 31.02531,31.02531 0 0 1 8.40231,0.82782 13.488,13.488 0 0 1 5.00763,2.856 12.70964,12.70964 0 0 1 3.26987,4.67715 17.35218,17.35218 0 0 1 1.24172,6.58113 18.24208,18.24208 0 0 1 -2.6697,9.70612 16.46654,16.46654 0 0 1 -7.38824,6.519 24.93824,24.93824 0 0 1 -10.47186,2.15232 33.58105,33.58105 0 0 1 -6.00165,-0.57947 q -0.91092,-4.30431 -2.06954,-8.07119 a 24.6138,24.6138 0 0 0 5.07813,0.53808 15.58452,15.58452 0 0 0 5.94539,-1.03477 8.45269,8.45269 0 0 0 4.0052,-3.37334 9.6281,9.6281 0 0 0 1.48618,-5.27732 8.0309,8.0309 0 0 0 -0.61957,-3.18709 5.507,5.507 0 0 0 -1.79661,-2.31788 6.75126,6.75126 0 0 0 -2.60115,-1.17963 20.30486,20.30486 0 0 0 -4.06793,-0.31044 q -2.31271,0 -4.66616,0.08279 -2.35345,0.08343 -4.17076,0.08278 -0.49379,8.1129 -0.73986,15.52152 l -0.49346,15.81126 q -0.24738,8.403 -0.24705,12.33444 0,1.49006 0.0414,4.30463 l -6.00618,-0.08278 q -1.16023,-3e-5 -6.21379,0.08275 z"
       id="path42" />
    <path
       d="m 514.69371,27.75742 a 41.078,41.078 0 0 1 11.83775,1.697 26.8122,26.8122 0 0 1 10.05794,5.52568 25.19,25.19 0 0 1 6.62252,8.9197 29.33938,29.33938 0 0 1 2.2351,11.87914 35.44392,35.44392 0 0 1 -2.11093,12.18957 25.69258,25.69258 0 0 1 -6.53973,10.01656 27.59544,27.59544 0 0 1 -10.78229,6.22931 44.68453,44.68453 0 0 1 -26.07616,0.16556 27.4047,27.4047 0 0 1 -10.51324,-5.83609 22.87613,22.87613 0 0 1 -6.31209,-9.12666 31.93349,31.93349 0 0 1 -1.904,-11.1548 33.81656,33.81656 0 0 1 2.38,-12.58278 24.81714,24.81714 0 0 1 6.995,-9.93378 31.659,31.659 0 0 1 10.803,-5.96026 42.48581,42.48581 0 0 1 13.30713,-2.02815 z m -0.66225,8.81623 a 20.22221,20.22221 0 0 0 -10.88577,2.87665 18.09967,18.09967 0 0 0 -6.97433,7.86424 25.078,25.078 0 0 0 -2.33858,10.78228 21.92922,21.92922 0 0 0 2.2558,9.91308 15.218,15.218 0 0 0 6.93294,6.91226 22.54392,22.54392 0 0 0 17.92218,0.97268 16.95851,16.95851 0 0 0 6.4363,-4.28394 18.61563,18.61563 0 0 0 4.077,-6.933 26.27844,26.27844 0 0 0 1.3659,-8.44371 25.35521,25.35521 0 0 0 -1.221,-7.86424 16.83635,16.83635 0 0 0 -3.78726,-6.47765 15.72867,15.72867 0 0 0 -6.1879,-4.0149 22.25312,22.25312 0 0 0 -7.59528,-1.30375 z"
       id="path44" />
    <path
       d="m 553.22847,85.24914 q 1.24755,-12.33378 1.87229,-28.35265 0.62378,-16.0182 0.6241,-28.14569 4.96494,0.08343 8.317,0.08278 3.6,0 7.05518,-0.12417 3.4545,-0.12417 7.30352,-0.12418 a 61.57009,61.57009 0 0 1 8.58534,0.53808 16.1155,16.1155 0 0 1 6.72406,2.48345 12.57289,12.57289 0 0 1 4.36542,4.71854 13.91836,13.91836 0 0 1 1.428,6.45695 17.63428,17.63428 0 0 1 -0.53808,4.40812 15.78324,15.78324 0 0 1 -1.59354,3.93212 14.22005,14.22005 0 0 1 -2.50415,3.22847 14.61313,14.61313 0 0 1 -2.87664,2.19371 17.16807,17.16807 0 0 1 -3.24918,1.38659 q -1.82184,0.58013 -4.88411,1.40729 l 2.81457,5.46357 q 1.3659,2.60762 5.17385,9.35431 l 4.18046,7.32616 q 0.33081,0.58011 1.98675,3.76655 -5.06388,-0.08245 -6.682,-0.08278 -1.99257,0 -7.01443,0.08278 l -4.58661,-11.00993 q -1.199,-2.52419 -2.89283,-5.96027 L 571.83749,58.221 q -0.74406,-1.40664 -2.0663,-4.22186 a 28.89209,28.89209 0 0 0 5.05355,0.49669 17.58922,17.58922 0 0 0 6.50287,-1.15894 9.25365,9.25365 0 0 0 4.51547,-3.5803 9.49515,9.49515 0 0 0 1.57413,-5.27732 7.65492,7.65492 0 0 0 -0.68294,-3.22847 5.96921,5.96921 0 0 0 -2.29719,-2.52484 9.24689,9.24689 0 0 0 -3.84933,-1.3245 34.81469,34.81469 0 0 0 -4.4702,-0.28974 q -1.24171,0 -3.394,0.0414 -2.15264,0.04171 -5.298,0.04139 l -0.73921,17.01159 -0.78,31.043 -6.422,-0.08278 q -1.53278,4e-5 -6.25587,0.08282 z"
       id="path46" />
    <path
       d="m 618.83278,85.24914 0.90737,-12.08609 0.90671,-18.005 0.57753,-17.71523 h -2.89282 l -2.68652,0.04139 -2.563,0.04139 -9.547,0.28974 q 0.33079,-5.96027 0.37252,-9.06457 11.91567,0.08343 24.94955,0.08343 l 14.8541,-0.0414 7.94442,-0.042 q -0.41421,5.89041 -0.4139,9.06457 -7.492,-0.37253 -14.36258,-0.37252 h -3.18709 l -0.49216,7.56157 -1.18933,29.08863 -0.0821,4.8757 q -0.0407,3.017 -0.0407,6.28039 l -6.2998,-0.08278 q -1.03609,0 -6.75512,0.08278 z"
       id="path48" />
    <path
       d="m 654.18047,84.04881 q -0.33177,-6.29106 -0.86922,-10.2649 8.112,3.68442 14.7351,3.68378 a 14.81969,14.81969 0 0 0 4.9462,-0.80712 6.966,6.966 0 0 0 3.394,-2.27649 5.36739,5.36739 0 0 0 1.09685,-3.29057 5.84378,5.84378 0 0 0 -0.52772,-2.52483 11.672,11.672 0 0 0 -2.63737,-3.18709 q -2.36605,-2.27585 -8.44241,-7.49172 -2.89573,-2.52419 -3.9968,-3.601 a 29.58223,29.58223 0 0 1 -3.80794,-4.24255 13.52006,13.52006 0 0 1 -1.904,-3.74586 13.54655,13.54655 0 0 1 1.59355,-11.279 14.33734,14.33734 0 0 1 6.49834,-5.3394 26.905,26.905 0 0 1 10.90645,-1.92467 70.17347,70.17347 0 0 1 13.32781,1.44868 q 0.20665,4.30527 0.82782,9.851 a 33.30018,33.30018 0 0 0 -11.89713,-2.48342 11.15067,11.15067 0 0 0 -6.63028,1.84188 5.24724,5.24724 0 0 0 -2.58175,4.28394 5.72943,5.72943 0 0 0 0.1798,1.38659 6.247,6.247 0 0 0 0.54,1.40729 10.96818,10.96818 0 0 0 1.28246,1.7798 21.42615,21.42615 0 0 0 2.70075,2.56622 q 1.77721,1.4697 3.03769,2.38 l 5.10723,4.63576 q 1.94115,1.61424 3.47035,3.1457 a 32.16259,32.16259 0 0 1 2.62314,2.93874 15.28428,15.28428 0 0 1 1.71448,2.6904 12.49016,12.49016 0 0 1 0.93,2.62831 12.61572,12.61572 0 0 1 0.30978,2.83526 13.943,13.943 0 0 1 -1.61425,6.56043 13.49028,13.49028 0 0 1 -4.63576,5.07037 19.21657,19.21657 0 0 1 -6.62252,2.75248 36.56791,36.56791 0 0 1 -7.61589,0.76573 48.8404,48.8404 0 0 1 -6.16721,-0.4553 q -3.51856,-0.45597 -9.27155,-1.73844 z"
       id="path50" />
  </g>
  <metadata
     id="metadata872">
    <rdf:RDF>
      <cc:Work
         rdf:about="">
        <dc:title>logo</dc:title>
      </cc:Work>
    </rdf:RDF>
  </metadata>
</svg>
