<?xml version="1.0" encoding="UTF-8" standalone="no"?>
<svg
   id="Layer_1"
   data-name="Layer 1"
   viewBox="0 0 330.16 114.04001"
   version="1.1"
   sodipodi:docname="ps2.svg"
   width="330.16"
   height="114.04001"
   inkscape:version="1.1 (c68e22c387, 2021-05-23)"
   xmlns:inkscape="http://www.inkscape.org/namespaces/inkscape"
   xmlns:sodipodi="http://sodipodi.sourceforge.net/DTD/sodipodi-0.dtd"
   xmlns:xlink="http://www.w3.org/1999/xlink"
   xmlns="http://www.w3.org/2000/svg"
   xmlns:svg="http://www.w3.org/2000/svg"
   xmlns:rdf="http://www.w3.org/1999/02/22-rdf-syntax-ns#"
   xmlns:cc="http://creativecommons.org/ns#"
   xmlns:dc="http://purl.org/dc/elements/1.1/">
  <sodipodi:namedview
     id="namedview41"
     pagecolor="#ffffff"
     bordercolor="#666666"
     borderopacity="1.0"
     inkscape:pageshadow="2"
     inkscape:pageopacity="0.0"
     inkscape:pagecheckerboard="0"
     showgrid="false"
     fit-margin-top="0"
     fit-margin-left="0"
     fit-margin-right="0"
     fit-margin-bottom="0"
     inkscape:zoom="1.113"
     inkscape:cx="164.86972"
     inkscape:cy="56.603774"
     inkscape:window-width="1920"
     inkscape:window-height="1138"
     inkscape:window-x="-8"
     inkscape:window-y="-8"
     inkscape:window-maximized="1"
     inkscape:current-layer="Layer_1" />
  <defs
     id="defs12">
    <linearGradient
       id="linear-gradient"
       x1="608.91998"
       y1="1005.66"
       x2="608.91998"
       y2="1067.1801"
       gradientTransform="translate(-0.09,-1002.16)"
       gradientUnits="userSpaceOnUse">
      <stop
         offset="0"
         stop-color="#33438a"
         id="stop2" />
      <stop
         offset="1"
         stop-color="#0098df"
         id="stop4" />
    </linearGradient>
    <linearGradient
       id="linear-gradient-2"
       x1="492.79001"
       y1="1005.66"
       x2="492.79001"
       y2="1067.1801"
       xlink:href="#linear-gradient"
       gradientTransform="translate(-334.92)" />
    <linearGradient
       id="linear-gradient-3"
       x1="391.26001"
       y1="1005.66"
       x2="391.26001"
       y2="1067.1801"
       xlink:href="#linear-gradient"
       gradientTransform="translate(-334.92)" />
    <linearGradient
       id="linear-gradient-4"
       x1="608.91998"
       y1="1009.16"
       x2="608.91998"
       y2="1063.6801"
       xlink:href="#linear-gradient"
       gradientTransform="translate(-334.92)" />
    <linearGradient
       id="linear-gradient-5"
       x1="492.79001"
       y1="1009.16"
       x2="492.79001"
       y2="1063.6801"
       xlink:href="#linear-gradient"
       gradientTransform="translate(-334.92)" />
    <linearGradient
       id="linear-gradient-6"
       x1="391.26001"
       y1="1009.16"
       x2="391.26001"
       y2="1063.6801"
       xlink:href="#linear-gradient"
       gradientTransform="translate(-334.92)" />
    <linearGradient
       inkscape:collect="always"
       xlink:href="#linear-gradient"
       id="linearGradient860"
       gradientUnits="userSpaceOnUse"
       gradientTransform="translate(-335.01,-1002.16)"
       x1="608.91998"
       y1="1005.66"
       x2="608.91998"
       y2="1067.1801" />
  </defs>
  <title
     id="title14">logo</title>
  <path
     d="m 224.66,65 a 3.5,3.5 0 0 1 -3.5,-3.5 V 32.31 a 3.5,3.5 0 0 1 3.5,-3.5 h 91.1 V 14.4 h -91.1 a 3.5,3.5 0 0 1 -3.5,-3.5 V 7 a 3.5,3.5 0 0 1 3.5,-3.5 h 98.5 a 3.5,3.5 0 0 1 3.5,3.5 v 29.21 a 3.5,3.5 0 0 1 -3.5,3.5 h -91.08 v 14.41 h 91.1 a 3.5,3.5 0 0 1 3.5,3.5 v 3.9 a 3.5,3.5 0 0 1 -3.5,3.5 z"
     fill="url(#linear-gradient)"
     id="path16"
     style="fill:url(#linearGradient860)" />
  <path
     d="m 323.16,7 v 29.21 h -94.6 v 21.41 h 94.6 v 3.9 h -98.5 V 32.31 h 94.6 V 10.9 h -94.6 V 7 h 98.5 m 0,-7 h -98.5 a 7,7 0 0 0 -7,7 v 3.9 a 7,7 0 0 0 7,7 h 87.6 v 7.41 h -87.6 a 7,7 0 0 0 -7,7 v 29.21 a 7,7 0 0 0 7,7 h 98.5 a 7,7 0 0 0 7,-7 v -3.9 a 7,7 0 0 0 -7,-7 h -87.6 v -7.41 h 87.6 a 7,7 0 0 0 7,-7 V 7 a 7,7 0 0 0 -7,-7 z"
     fill="#ffffff"
     id="path18" />
  <path
     d="M 105.5,65 A 3.5,3.5 0 0 1 102,61.5 v -3.9 a 3.5,3.5 0 0 1 3.5,-3.5 h 46.74 V 7 a 3.5,3.5 0 0 1 3.5,-3.5 h 54.34 a 3.5,3.5 0 0 1 3.5,3.5 v 3.9 a 3.5,3.5 0 0 1 -3.5,3.5 h -46.76 v 47.12 a 3.5,3.5 0 0 1 -3.5,3.5 z"
     fill="url(#linear-gradient-2)"
     id="path20"
     style="fill:url(#linear-gradient-2)" />
  <path
     d="m 210.08,7 v 3.9 H 159.82 V 61.52 H 105.5 v -3.9 h 50.24 V 7 h 54.34 m 0,-7 h -54.34 a 7,7 0 0 0 -7,7 V 50.62 H 105.5 a 7,7 0 0 0 -7,7 v 3.9 a 7,7 0 0 0 7,7 h 54.32 a 7,7 0 0 0 7,-7 V 17.9 h 43.26 a 7,7 0 0 0 7,-7 V 7 a 7,7 0 0 0 -7,-7 z"
     fill="#ffffff"
     id="path22" />
  <path
     d="M 7,65 A 3.5,3.5 0 0 1 3.5,61.5 V 32.31 A 3.5,3.5 0 0 1 7,28.81 H 98.08 V 14.39 L 6.98,14.33 a 3.5,3.5 0 0 1 -3.5,-3.5 V 7 a 3.5,3.5 0 0 1 3.5,-3.5 h 98.5 a 3.5,3.5 0 0 1 3.5,3.5 v 29.21 a 3.5,3.5 0 0 1 -3.5,3.5 h -91.1 v 21.81 a 3.5,3.5 0 0 1 -3.5,3.5 z"
     fill="url(#linear-gradient-3)"
     id="path24"
     style="fill:url(#linear-gradient-3)" />
  <path
     d="M 105.5,7 V 36.21 H 10.9 V 61.52 H 7 V 32.31 h 94.6 V 10.9 L 7,10.83 V 7 h 98.5 m 0,-7 H 7 A 7,7 0 0 0 0,7 v 3.83 a 7,7 0 0 0 7,7 l 87.6,0.06 v 7.42 H 7 a 7,7 0 0 0 -7,7 v 29.21 a 7,7 0 0 0 7,7 h 3.9 a 7,7 0 0 0 7,-7 V 43.21 h 87.6 a 7,7 0 0 0 7,-7 V 7 a 7,7 0 0 0 -7,-7 z"
     fill="#ffffff"
     id="path26" />
  <path
     d="m 126.65,110.5 a 3.49,3.49 0 0 1 -3.24,-4.82 l 1.2,-2.93 a 3.6,3.6 0 0 1 -1.23,0.25 l -5.83,0.12 a 15.73,15.73 0 0 1 -5.21,-0.78 l -0.38,-0.17 a 3.5,3.5 0 0 1 -2.44,1 h -3 a 3.5,3.5 0 0 1 -3.5,-3.5 v -4.45 a 10.33,10.33 0 0 1 -3.08,0.45 h -1.13 v 4 a 3.5,3.5 0 0 1 -3.5,3.5 h -3 a 3.5,3.5 0 0 1 -3.5,-3.5 V 80.48 a 3.5,3.5 0 0 1 3.5,-3.5 h 6.53 a 13.45,13.45 0 0 1 5.05,0.92 l 0.19,0.1 a 3.49,3.49 0 0 1 2.45,-1 h 3 a 3.5,3.5 0 0 1 3.5,3.5 v 1.14 a 3.57,3.57 0 0 1 0.47,0 l 5,-0.13 a 10.38,10.38 0 0 1 3.78,0.67 3.5,3.5 0 0 1 2.06,-0.67 h 3.48 a 3.5,3.5 0 0 1 3.26,2.31 l 0.48,1.39 0.54,-1.47 a 3.48,3.48 0 0 1 3.28,-2.29 h 1 a 6.92,6.92 0 0 1 1.44,-2.23 7.57,7.57 0 0 1 4.12,-2 18.81,18.81 0 0 1 2.69,-0.2 l 4.33,0.12 a 3.52,3.52 0 0 1 3,1.91 3.52,3.52 0 0 1 1.22,-0.22 h 3 a 3.53,3.53 0 0 1 3.39,2.63 3.25,3.25 0 0 0 2.69,0.13 l 5,-0.13 a 10.24,10.24 0 0 1 4.25,0.87 v 0 a 3.5,3.5 0 0 1 3.5,-3.5 h 3 a 3.44,3.44 0 0 1 2,0.66 3.51,3.51 0 0 1 3.36,-2.5 h 3 a 3.5,3.5 0 0 1 3.5,3.5 v 2 a 12.25,12.25 0 0 1 5.4,-1.11 11.17,11.17 0 0 1 6.29,1.62 3.49,3.49 0 0 1 2.71,-1.37 l 6.92,-0.14 a 9.15,9.15 0 0 1 5.53,1.67 7.1,7.1 0 0 1 2.53,4 c 0.16,-0.23 0.34,-0.46 0.53,-0.69 a 9.4,9.4 0 0 1 6.56,-3 h 0.17 c 0.33,0 0.82,0 1.45,0 h 0.67 1.6 v -0.11 c 0,-0.13 0,-0.26 0,-0.37 h -0.41 c -3.68,0 -7.76,0.09 -7.8,0.09 h -0.08 a 3.5,3.5 0 0 1 -3.5,-3.5 v -2.31 a 3.5,3.5 0 0 1 3.35,-3.5 c 0,0 4.56,-0.19 9.1,-0.26 h 0.3 c 3.53,0 6.13,1 7.71,3.11 a 9.51,9.51 0 0 1 1.89,6.28 c 0,2.34 0,4.45 -1.4,6.49 -1.53,2.26 -4.13,3.41 -7.73,3.41 l -3.43,-0.1 a 2.62,2.62 0 0 0 0,0.27 v 1.4 h 8.58 a 3.5,3.5 0 0 1 3.5,3.5 v 2.43 a 3.5,3.5 0 0 1 -3.5,3.5 h -13.88 a 5.22,5.22 0 0 1 -4.15,-2 3.5,3.5 0 0 1 -2.76,1.35 h -3 a 3.48,3.48 0 0 1 -2.85,-1.47 3.51,3.51 0 0 1 -2.86,1.47 h -3 a 3.49,3.49 0 0 1 -2.83,-1.44 13,13 0 0 1 -12.32,0.08 3.49,3.49 0 0 1 -2.79,1.39 h -3 a 3.27,3.27 0 0 0 -2.62,-0.07 l -3.18,0.07 a 6.48,6.48 0 0 1 -3.38,-0.9 3.48,3.48 0 0 1 -2.07,0.74 l -5.82,0.12 a 15.82,15.82 0 0 1 -5.22,-0.78 v 0 a 3.52,3.52 0 0 1 -2.1,0.76 l -3.18,0.07 a 6.14,6.14 0 0 1 -4.71,-2 7.61,7.61 0 0 1 -3.91,1.81 17.62,17.62 0 0 1 -2.71,0.2 l -4.68,-0.13 a 3.5,3.5 0 0 1 -3.41,-3.5 v -1 l -4,9.77 a 3.51,3.51 0 0 1 -3.24,2.17 z m 11.26,-15.67 a 3.52,3.52 0 0 1 2,-0.6 h 1.18 a 7.43,7.43 0 0 1 -2.43,-1.19 z m 11.81,-9 v 0 h -0.05 z"
     id="path28" />
  <path
     d="m 231.18,77 c 2.67,0 4.16,0.73 4.93,1.74 0.77,1.01 1.13,2.1 1.17,4.21 v 0 c 0,2.21 -0.07,3.37 -0.81,4.48 -0.74,1.11 -1.95,1.86 -4.82,1.86 l -3.57,-0.1 a 4.31,4.31 0 0 0 -2.7,0.91 c -0.59,0.64 -0.63,1.11 -0.69,2.8 v 5 h 12.08 v 2.43 h -13.82 a 1.73,1.73 0 0 1 -1.78,-1.83 v -3.7 c 0.06,-4.32 0.37,-4.94 1.31,-6.07 a 5.86,5.86 0 0 1 4,-1.76 c 0.28,0 0.77,0 1.44,0 h 0.57 c 0.7,0 1.41,0.06 1.71,0.06 h 0.13 c 1.55,0 2.13,-0.3 2.57,-0.87 a 4.15,4.15 0 0 0 0.79,-2.73 4.8,4.8 0 0 0 -0.71,-2.87 2.93,2.93 0 0 0 -2.63,-1 h -0.57 c -3.77,0 -7.89,0.09 -7.89,0.09 v -2.38 c 0,0 4.45,-0.19 9,-0.26 h 0.25 M 98.85,80.48 a 10.89,10.89 0 0 1 3.58,0.59 c 1.54,0.71 2.29,2.81 2.29,4.89 0,2.29 -0.31,4 -1.56,5.27 -0.85,0.86 -2.64,0.94 -3.22,0.94 h -2.81 v -1.7 h 1.83 a 2.25,2.25 0 0 0 2.12,-1 8.42,8.42 0 0 0 0.4,-3.12 5.63,5.63 0 0 0 -0.69,-3.09 c -0.68,-0.89 -2.63,-0.9 -2.7,-0.9 h -2.78 v 17.3 h -3 V 80.48 h 6.53 m 87.55,0 v 2.67 h -3 v -2.67 h 3 m -76.88,0 v 19.18 h -3 V 80.48 h 3 m 35.17,0 4.19,0.12 v 1.81 c 0,0 -3.06,-0.12 -3.71,-0.12 a 2.69,2.69 0 0 0 -2.45,0.9 3.54,3.54 0 0 0 -0.58,1.88 6.94,6.94 0 0 0 0.29,2.15 1.77,1.77 0 0 0 1.49,1 c 0.54,0 1.39,0.15 2.37,0.19 a 3.83,3.83 0 0 1 2.8,1.35 c 0.44,0.52 1,1.62 1,4 0,2.38 -0.63,4.1 -1.25,4.72 a 4.12,4.12 0 0 1 -2.22,1 15,15 0 0 1 -2.12,0.15 L 139.9,99.5 v -1.8 c 0,0 3.17,0.12 3.82,0.12 a 3.33,3.33 0 0 0 2.74,-0.9 5.92,5.92 0 0 0 0.62,-2.47 7.6,7.6 0 0 0 -0.32,-2.25 1.77,1.77 0 0 0 -1.5,-1 c -0.55,0 -1.39,-0.15 -2.38,-0.2 a 3.82,3.82 0 0 1 -2.73,-1.3 c -0.44,-0.53 -1,-1.3 -1,-3.7 0,-2.4 0.62,-3.73 1.23,-4.35 a 4.18,4.18 0 0 1 2.23,-1 14.87,14.87 0 0 1 2.12,-0.15 m 33.33,1.81 v 0 m 0,0 V 85 h 3.36 v 1.8 h -3.36 V 95 c 0,0 0,1 0.1,1.9 0.1,0.9 0.73,0.91 1.24,0.91 0.51,0 1.35,-0.07 1.35,-0.07 v 1.81 l -3.1,0.07 a 2.29,2.29 0 0 1 -2.45,-1.54 c -0.07,-0.45 -0.14,-1.73 -0.14,-1.73 V 82.32 h 3 m -21.81,0 v 0 m 0,0 V 85 h 3.37 v 1.8 h -3.37 V 95 a 17.77,17.77 0 0 0 0.11,1.9 c 0.1,0.87 0.73,0.91 1.24,0.91 0.51,0 1.35,-0.07 1.35,-0.07 v 1.81 l -3.1,0.07 a 2.29,2.29 0 0 1 -2.45,-1.54 c -0.07,-0.45 -0.14,-1.73 -0.14,-1.73 V 82.32 h 3 m 39.09,2.51 a 7.34,7.34 0 0 1 4.41,1.17 c 0.86,0.69 1.91,2.14 1.91,6.33 0,4.19 -1.05,5.64 -1.91,6.34 a 7.38,7.38 0 0 1 -4.46,1.14 7.46,7.46 0 0 1 -4.47,-1.14 c -0.85,-0.7 -1.9,-2.14 -1.9,-6.34 0,-4.2 1,-5.64 1.9,-6.33 a 7.44,7.44 0 0 1 4.47,-1.14 m 0.09,13 a 2.72,2.72 0 0 0 2.15,-0.84 c 0.41,-0.51 0.92,-1.57 0.92,-4.66 0,-3.09 -0.51,-4.15 -0.92,-4.65 a 3.16,3.16 0 0 0 -4.29,0 c -0.41,0.5 -0.91,1.57 -0.91,4.65 0,3.08 0.5,4.15 0.91,4.66 a 2.71,2.71 0 0 0 2.14,0.84 M 211.19,85 a 6,6 0 0 1 3.36,0.91 4.35,4.35 0 0 1 1.47,3.71 v 10.01 h -3 V 89.8 a 3.25,3.25 0 0 0 -0.67,-2.15 2.74,2.74 0 0 0 -2.1,-0.76 l -2.94,0.13 v 12.61 h -3 V 85.07 L 211.08,85 h 0.14 m -43.92,0 a 6,6 0 0 1 3.36,0.91 4.36,4.36 0 0 1 1.46,3.7 v 9.89 l -5.73,0.12 v 0 A 13.39,13.39 0 0 1 162.5,99.1 c -1.28,-0.52 -2,-1.94 -2,-3.92 a 4.39,4.39 0 0 1 1.46,-3.71 6,6 0 0 1 3.34,-0.9 h 2 v 1.7 h -1 a 2.47,2.47 0 0 0 -2,0.69 2.77,2.77 0 0 0 -0.64,2 c 0,1.32 0.27,1.91 0.88,2.36 a 4.85,4.85 0 0 0 2.63,0.48 l 2,-0.12 v -7.87 0 a 3.21,3.21 0 0 0 -0.67,-2.15 2.74,2.74 0 0 0 -2.11,-0.76 l -4.01,0.1 v -1.92 l 4.7,-0.08 h 0.15 m -48.75,0 a 5.93,5.93 0 0 1 3.36,0.91 4.33,4.33 0 0 1 1.46,3.7 v 9.89 l -5.73,0.12 v 0 a 13.39,13.39 0 0 1 -3.89,-0.52 c -1.27,-0.52 -2,-1.94 -2,-3.92 a 4.39,4.39 0 0 1 1.46,-3.71 6,6 0 0 1 3.34,-0.9 h 2 v 1.7 h -1 a 2.49,2.49 0 0 0 -2,0.69 2.76,2.76 0 0 0 -0.63,2 c 0,1.32 0.26,1.91 0.88,2.36 a 4.79,4.79 0 0 0 2.62,0.48 l 2,-0.12 v -7.87 a 3.21,3.21 0 0 0 -0.67,-2.15 2.73,2.73 0 0 0 -2.11,-0.76 l -3.94,0.12 v -1.94 l 4.75,-0.13 h 0.14 m 67.92,0 v 14.71 h -3 V 85 h 3 m -48.26,0 -9.05,22 h -2.48 l 3.14,-7.7 -5.47,-14.3 h 3.48 l 3.67,10.75 3.94,-10.75 h 2.77 m 93,-15 h -0.37 c -4.57,0.07 -9,0.25 -9.18,0.26 a 7,7 0 0 0 -6.7,7 v 1.15 a 14.81,14.81 0 0 0 -3.74,-0.48 h -0.34 l -6.64,0.13 a 6.85,6.85 0 0 0 -3,0.75 16.32,16.32 0 0 0 -5.88,-1 17.93,17.93 0 0 0 -2.36,0.14 7,7 0 0 0 -6.54,-4.49 h -3 a 7,7 0 0 0 -4.76,1.87 h -0.63 -3 a 7,7 0 0 0 -5.59,2.79 14.14,14.14 0 0 0 -2.16,-0.16 h -0.38 l -4.7,0.13 h -0.39 a 7,7 0 0 0 -5.59,-2.78 h -2.77 a 7,7 0 0 0 -4.38,-1.68 l -4.19,-0.12 h -0.26 a 21.11,21.11 0 0 0 -3.29,0.25 11,11 0 0 0 -6,3 8.77,8.77 0 0 0 -1.03,1.24 7,7 0 0 0 -2.71,1 7,7 0 0 0 -3.8,-1.12 h -3.48 a 7,7 0 0 0 -2.37,0.41 15,15 0 0 0 -3.47,-0.29 h -0.4 -2 a 7,7 0 0 0 -6.55,-4.53 h -3 a 7,7 0 0 0 -2.87,0.61 18.91,18.91 0 0 0 -4.8,-0.61 h -6.53 a 7,7 0 0 0 -7,7 v 19.19 a 7,7 0 0 0 7,7 h 3 a 7,7 0 0 0 5.61,-2.8 7,7 0 0 0 5.6,2.8 h 3 a 6.92,6.92 0 0 0 2.88,-0.62 21.78,21.78 0 0 0 5.15,0.58 h 0.17 1.94 a 7,7 0 0 0 7,7.42 h 2.48 a 7,7 0 0 0 6.48,-4.34 l 1.44,-3.7 a 6.88,6.88 0 0 0 2.57,0.56 l 4.59,0.13 h 0.19 a 21.72,21.72 0 0 0 3.33,-0.25 12.49,12.49 0 0 0 3.12,-1 9.92,9.92 0 0 0 4.89,1.23 h 0.15 l 3.1,-0.06 a 7.13,7.13 0 0 0 2.41,-0.48 22.31,22.31 0 0 0 4.87,0.51 h 0.17 l 5.73,-0.12 a 7.42,7.42 0 0 0 2.07,-0.36 10.43,10.43 0 0 0 3.3,0.52 h 0.15 l 3.1,-0.06 a 6.78,6.78 0 0 0 1,-0.1 7,7 0 0 0 1.53,0.17 h 3 a 6.94,6.94 0 0 0 3.24,-0.8 17.85,17.85 0 0 0 11.43,0 7,7 0 0 0 3.27,0.81 h 3 a 7,7 0 0 0 2.86,-0.6 6.93,6.93 0 0 0 2.85,0.6 h 3 a 7,7 0 0 0 2.55,-0.48 8.79,8.79 0 0 0 4.38,1.14 h 13.84 a 7,7 0 0 0 7,-7 v -2.49 a 7,7 0 0 0 -2.45,-5.32 10.54,10.54 0 0 0 0.93,-1.2 c 1.94,-2.88 2.06,-5.78 2,-8.51 a 13.09,13.09 0 0 0 -2.64,-8.39 C 240.08,72.44 237.01,70 231.18,70 Z"
     fill="#ffffff"
     id="path30" />
  <path
     d="m 319.26,10.9 v 21.41 h -94.6 v 29.21 h 98.5 v -3.9 h -94.6 V 36.21 h 94.6 V 7 h -98.5 v 3.9 z"
     fill="url(#linear-gradient-4)"
     id="path32"
     style="fill:url(#linear-gradient-4)" />
  <path
     d="m 210.08,7 v 3.9 H 159.82 V 61.52 H 105.5 v -3.9 h 50.24 V 7 Z"
     fill="url(#linear-gradient-5)"
     id="path34"
     style="fill:url(#linear-gradient-5)" />
  <path
     d="M 10.9,61.52 V 36.21 h 94.6 V 7 H 7 v 3.83 l 94.6,0.07 V 32.31 H 7 v 29.21 z"
     fill="url(#linear-gradient-6)"
     id="path36"
     style="fill:url(#linear-gradient-6)" />
  <path
     d="m 92.32,80.48 v 19.18 h 3 V 82.32 h 2.76 c 0,0 2,0 2.7,0.9 a 5.63,5.63 0 0 1 0.69,3.09 8.42,8.42 0 0 1 -0.4,3.12 2.25,2.25 0 0 1 -2.12,1 h -1.83 v 1.7 h 2.63 c 0,0 2.37,0.11 3.4,-0.93 1.25,-1.28 1.56,-3 1.56,-5.27 0,-2.08 -0.75,-4.18 -2.29,-4.89 a 10.89,10.89 0 0 0 -3.58,-0.59 z m 14.2,19.18 h 3 V 80.48 h -3 z m 17.8,-14.66 5.47,14.35 -3.14,7.7 h 2.48 l 9.05,-22 h -2.77 L 131.47,95.7 127.8,85 Z m 15.56,14.53 v -1.8 c 0,0 3.17,0.12 3.82,0.12 a 3.33,3.33 0 0 0 2.74,-0.9 5.92,5.92 0 0 0 0.62,-2.47 7.6,7.6 0 0 0 -0.32,-2.25 1.77,1.77 0 0 0 -1.5,-1 c -0.55,0 -1.39,-0.15 -2.38,-0.2 a 3.82,3.82 0 0 1 -2.73,-1.3 c -0.44,-0.53 -1,-1.3 -1,-3.7 0,-2.4 0.62,-3.73 1.23,-4.35 a 4.18,4.18 0 0 1 2.23,-1 14.87,14.87 0 0 1 2.12,-0.15 l 4.19,0.12 v 1.81 c 0,0 -3.06,-0.12 -3.71,-0.12 a 2.69,2.69 0 0 0 -2.45,0.9 3.54,3.54 0 0 0 -0.58,1.88 6.94,6.94 0 0 0 0.29,2.15 1.77,1.77 0 0 0 1.49,1 c 0.54,0 1.39,0.15 2.37,0.19 a 3.83,3.83 0 0 1 2.77,1.3 c 0.44,0.52 1,1.62 1,4 0,2.38 -0.63,4.1 -1.25,4.72 a 4.12,4.12 0 0 1 -2.22,1 15,15 0 0 1 -2.12,0.15 L 139.9,99.5 Z m 16.33,-17.21 h -3 v 14.07 c 0,0 0.07,1.28 0.14,1.73 a 2.29,2.29 0 0 0 2.45,1.54 l 3.1,-0.07 v -1.81 c 0,0 -0.85,0.07 -1.35,0.07 -0.5,0 -1.14,0 -1.24,-0.91 a 17.77,17.77 0 0 1 -0.11,-1.9 v -8.29 h 3.37 V 85 h -3.37 v -2.68 z m 27.2,17.34 h 3 V 85 h -3 z m 0,-16.51 h 3 v -2.67 h -3 z m 11.89,1.68 a 7.34,7.34 0 0 1 4.46,1.17 c 0.86,0.69 1.91,2.14 1.91,6.33 0,4.19 -1.05,5.64 -1.91,6.34 a 7.38,7.38 0 0 1 -4.46,1.14 7.46,7.46 0 0 1 -4.47,-1.14 c -0.85,-0.7 -1.9,-2.14 -1.9,-6.34 0,-4.2 1,-5.64 1.9,-6.33 a 7.44,7.44 0 0 1 4.47,-1.17 z m -2.05,2.82 c -0.41,0.5 -0.91,1.57 -0.91,4.65 0,3.08 0.5,4.15 0.91,4.66 a 3.16,3.16 0 0 0 4.29,0 c 0.41,-0.51 0.92,-1.57 0.92,-4.66 0,-3.09 -0.51,-4.15 -0.92,-4.65 a 3.16,3.16 0 0 0 -4.29,0 z m 14.06,-0.65 2.94,-0.13 a 2.74,2.74 0 0 1 2.1,0.76 3.25,3.25 0 0 1 0.67,2.15 v 9.83 h 3 V 89.56 A 4.35,4.35 0 0 0 214.55,85.85 6.27,6.27 0 0 0 211.08,85 l -6.71,0.12 v 14.51 h 3 V 87 Z m -29.29,-4.7 h -3 v 14.09 c 0,0 0.07,1.28 0.14,1.73 a 2.29,2.29 0 0 0 2.45,1.54 l 3.1,-0.07 v -1.81 c 0,0 -0.84,0.07 -1.35,0.07 -0.51,0 -1.13,0 -1.24,-0.91 -0.11,-0.91 -0.1,-1.9 -0.1,-1.9 v -8.29 h 3.36 V 85 h -3.36 v -2.68 z m -57.71,7.49 a 3.21,3.21 0 0 0 -0.67,-2.15 2.73,2.73 0 0 0 -2.11,-0.76 L 113.59,87 v -1.92 l 4.75,-0.13 a 6.21,6.21 0 0 1 3.5,0.91 4.33,4.33 0 0 1 1.46,3.7 v 9.94 l -5.73,0.12 a 13.79,13.79 0 0 1 -3.91,-0.52 c -1.27,-0.52 -2,-1.94 -2,-3.92 a 4.39,4.39 0 0 1 1.46,-3.71 6.27,6.27 0 0 1 3.5,-0.9 h 1.84 v 1.7 h -1 a 2.49,2.49 0 0 0 -2,0.69 2.76,2.76 0 0 0 -0.63,2 c 0,1.32 0.26,1.91 0.88,2.36 a 4.79,4.79 0 0 0 2.62,0.48 l 2,-0.12 v -7.87 z m 48.79,0 a 3.21,3.21 0 0 0 -0.67,-2.15 2.74,2.74 0 0 0 -2.11,-0.76 L 162.38,87 v -1.92 l 4.7,-0.08 a 6.25,6.25 0 0 1 3.51,0.91 4.36,4.36 0 0 1 1.46,3.7 v 9.89 l -5.73,0.12 a 13.79,13.79 0 0 1 -3.91,-0.52 c -1.28,-0.52 -2,-1.94 -2,-3.92 a 4.39,4.39 0 0 1 1.46,-3.71 6.25,6.25 0 0 1 3.5,-0.9 h 1.83 v 1.7 h -1 a 2.47,2.47 0 0 0 -2,0.69 2.77,2.77 0 0 0 -0.64,2 c 0,1.32 0.27,1.91 0.88,2.36 a 4.85,4.85 0 0 0 2.63,0.48 l 2,-0.12 V 89.81 Z M 237.28,83 c 0,2.21 -0.07,3.37 -0.81,4.48 -0.74,1.11 -1.95,1.86 -4.82,1.86 l -3.57,-0.15 a 4.31,4.31 0 0 0 -2.7,0.91 c -0.59,0.64 -0.63,1.11 -0.69,2.8 v 5 h 12.08 v 2.43 h -13.82 a 1.73,1.73 0 0 1 -1.78,-1.83 v -3.7 c 0.06,-4.32 0.37,-4.94 1.31,-6.07 a 5.86,5.86 0 0 1 4,-1.76 c 0.36,0 1,-0.06 2,0 0.7,0 1.41,0.06 1.71,0.06 1.65,0 2.25,-0.28 2.7,-0.87 a 4.15,4.15 0 0 0 0.79,-2.73 4.8,4.8 0 0 0 -0.71,-2.87 2.93,2.93 0 0 0 -2.63,-1 c -3.9,0 -8.46,0.09 -8.46,0.09 v -2.38 c 0,0 4.45,-0.19 9,-0.26 2.83,-0.05 4.39,0.7 5.18,1.74 0.79,1.04 1.13,2.1 1.17,4.21 z"
     id="path38" />
  <metadata
     id="metadata858">
    <rdf:RDF>
      <cc:Work
         rdf:about="">
        <dc:title>logo</dc:title>
      </cc:Work>
    </rdf:RDF>
  </metadata>
</svg>
