<?xml version="1.0" encoding="UTF-8" standalone="no"?>
<svg
   id="Layer_1"
   data-name="Layer 1"
   viewBox="0 0 320.35199 114"
   version="1.1"
   sodipodi:docname="psp.svg"
   width="320.35199"
   height="114"
   inkscape:version="1.1 (c68e22c387, 2021-05-23)"
   xmlns:inkscape="http://www.inkscape.org/namespaces/inkscape"
   xmlns:sodipodi="http://sodipodi.sourceforge.net/DTD/sodipodi-0.dtd"
   xmlns="http://www.w3.org/2000/svg"
   xmlns:svg="http://www.w3.org/2000/svg"
   xmlns:rdf="http://www.w3.org/1999/02/22-rdf-syntax-ns#"
   xmlns:cc="http://creativecommons.org/ns#"
   xmlns:dc="http://purl.org/dc/elements/1.1/">
  <defs
     id="defs101" />
  <sodipodi:namedview
     id="namedview99"
     pagecolor="#ffffff"
     bordercolor="#666666"
     borderopacity="1.0"
     inkscape:pageshadow="2"
     inkscape:pageopacity="0.0"
     inkscape:pagecheckerboard="0"
     showgrid="false"
     fit-margin-top="0"
     fit-margin-left="0"
     fit-margin-right="0"
     fit-margin-bottom="0"
     inkscape:zoom="1.113"
     inkscape:cx="160.37736"
     inkscape:cy="56.603774"
     inkscape:window-width="1920"
     inkscape:window-height="1138"
     inkscape:window-x="-8"
     inkscape:window-y="-8"
     inkscape:window-maximized="1"
     inkscape:current-layer="Layer_1" />
  <title
     id="title2">logo</title>
  <g
     id="g967"
     transform="translate(-339.824)">
    <path
       d="m 444.73242,106.33577 c -5.63428,0 -9.41993,-3.52246 -9.41993,-8.76465 a 3.499,3.499 0 0 1 1.73243,-3.02148 7.30238,7.30238 0 0 1 -1.313,-4.42285 c 0,-3.89747 3.0918,-7.84375 9.00049,-7.84375 a 8.9516,8.9516 0 0 1 6.6416,2.5498 8.05218,8.05218 0 0 1 2.25342,5.86133 3.49227,3.49227 0 0 1 -1.13135,2.50781 7.24,7.24 0 0 1 1.65576,4.9082 c 1e-5,4.91993 -3.78514,8.22559 -9.41942,8.22559 z"
       id="path4" />
    <path
       d="m 444.73219,85.78341 c 3.61449,0 5.448,2.20038 5.39555,4.84118 h -1.41412 c 0,-2.47864 -1.93829,-3.5362 -3.98143,-3.5362 -3.14339,0 -4.24361,1.91188 -3.98152,3.57782 0.68091,4.1803 9.90123,1.16774 9.90123,7.44362 0,2.97638 -2.20035,4.72606 -5.91971,4.72606 -3.40547,0 -5.9198,-1.74968 -5.9198,-5.26482 l 1.51952,-5.6e-4 c 0.26208,2.9018 2.14855,3.95984 4.66235,3.95984 2.88122,0 4.08624,-1.5703 4.08624,-3.35242 0,-5.01842 -9.84875,-1.68652 -9.84875,-8.051 0,-2.25336 1.83343,-4.3435 5.50044,-4.3435 m 0,-7 c -8.11934,0 -12.50044,5.84444 -12.50044,11.3435 a 11.929,11.929 0 0 0 0.587,3.826 6.967,6.967 0 0 0 -1.00638,3.61816 c 0,7.22134 5.31282,12.26482 12.9198,12.26482 7.60698,0 12.91973,-4.82191 12.91973,-11.72608 a 11.514,11.514 0 0 0 -1.00769,-4.92392 6.98462,6.98462 0 0 0 0.48216,-2.4224 11.52248,11.52248 0 0 0 -3.25279,-8.38052 12.61825,12.61825 0 0 0 -9.14139,-3.59958 z"
       fill="#ffffff"
       id="path6" />
    <path
       d="m 475.53613,106.22542 c -3.36719,0 -5.543,-2.28418 -5.543,-5.82031 v -5.57227 a 3.49808,3.49808 0 0 1 -1.62451,-2.95605 v -1.1211 a 3.49808,3.49808 0 0 1 1.62451,-2.95605 V 87.5135 a 3.50017,3.50017 0 0 1 3.5,-3.5 h 1.36187 a 3.50018,3.50018 0 0 1 3.5,3.5 v 0.0127 a 3.50128,3.50128 0 0 1 2.14795,3.22949 v 1.1211 a 3.50128,3.50128 0 0 1 -2.14795,3.22949 v 2.97656 a 3.50013,3.50013 0 0 1 2.25293,3.27051 v 1.09965 a 3.49955,3.49955 0 0 1 -2.75635,3.41992 l -0.0967,0.0264 a 8.48169,8.48169 0 0 1 -2.21877,0.32613 z"
       id="path8" />
    <path
       d="m 474.85518,87.51314 v 3.2428 h 2.148 v 1.12072 h -2.148 V 99.866 c 0,1.1526 0,1.64436 1.15209,1.64436 a 4.71717,4.71717 0 0 0 1.10076,-0.15674 v 1.09966 h -5.4e-4 a 6.41452,6.41452 0 0 1 -1.57142,0.27234 c -1.30933,0 -2.04317,-0.58686 -2.04317,-2.32038 v -8.52858 h -1.62431 v -1.12072 h 1.62431 v -3.2428 h 1.36228 m 0,-7 h -1.36228 a 7.00248,7.00248 0 0 0 -6.859,5.59533 6.97334,6.97334 0 0 0 -1.76529,4.64747 v 1.12072 a 6.97119,6.97119 0 0 0 1.62431,4.48381 v 4.04481 c 0,5.4877 3.71869,9.32038 9.04317,9.32038 a 11.81063,11.81063 0 0 0 3.1065,-0.44124 l 0.0428,-0.0112 a 7,7 0 0 0 5.42215,-6.81643 l 5.4e-4,-1.09966 a 7.00051,7.00051 0 0 0 -1.90059,-4.79894 6.97464,6.97464 0 0 0 1.79573,-4.6815 v -1.12072 a 6.98459,6.98459 0 0 0 -2.46533,-5.3328 7.003,7.003 0 0 0 -6.68266,-4.91 z"
       fill="#ffffff"
       id="path10" />
    <path
       d="m 429.06884,110.49983 a 8.70893,8.70893 0 0 1 -2.08056,-0.25488 3.49879,3.49879 0 0 1 -2.67676,-3.40137 v -1.26367 a 3.50253,3.50253 0 0 1 3.002,-3.46484 l -3.917,-10.09473 a 3.49962,3.49962 0 0 1 3.26318,-4.76563 h 1.51905 a 3.50087,3.50087 0 0 1 3.27539,2.26661 l 0.47314,1.25683 0.46094,-1.24121 a 3.49973,3.49973 0 0 1 3.28125,-2.28223 h 1.46728 a 3.50069,3.50069 0 0 1 3.27393,4.73829 l -4.34868,11.499 c -1.1748,3.11916 -2.63915,7.00783 -6.99316,7.00783 z"
       id="path12" />
    <path
       d="m 437.13671,90.75485 h 0.005 m -0.005,0 -4.3484,11.49852 C 431.68762,105.17623 430.95485,107 429.069,107 a 5.27978,5.27978 0 0 1 -1.25743,-0.15672 v -1.26338 h 5.6e-4 a 6.07641,6.07641 0 0 0 1.10013,0.1416 c 1.572,0 1.78108,-2.21014 2.30471,-3.22174 l -4.55744,-11.74492 h 1.51947 l 3.77179,10.01628 3.71887,-10.01628 h 1.4671 m 0.005,-7 h -1.47211 a 6.99008,6.99008 0 0 0 -3.74531,1.08624 6.99145,6.99145 0 0 0 -3.74535,-1.08624 h -1.51947 a 7,7 0 0 0 -6.52592,9.53229 l 2.81606,7.25723 a 7.00049,7.00049 0 0 0 -2.13754,5.03245 l -5.6e-4,1.26338 a 7,7 0 0 0 5.34722,6.80518 A 12.17448,12.17448 0 0 0 429.069,114 c 6.77568,0 9.049,-6.0366 10.27025,-9.27968 L 443.60286,93.446 a 7.00322,7.00322 0 0 0 -6.46114,-9.69112 z"
       fill="#ffffff"
       id="path14" />
    <path
       d="m 592.93261,106.22542 c -5.29,0 -8.84375,-3.85645 -8.84375,-9.59668 0,-5.61621 3.71973,-9.69238 8.84375,-9.69238 5.24512,0 8.63379,3.91113 8.63379,9.96386 a 3.49165,3.49165 0 0 1 -0.19433,1.15039 3.49938,3.49938 0 0 1 -0.0674,1.81836 c -1.26855,4.09864 -4.24219,6.35645 -8.37207,6.35645 z"
       id="path16" />
    <path
       d="m 592.93267,90.436 c 3.19574,0 5.1341,2.2793 5.1341,6.46394 l -9.06311,-5.6e-4 c 0,2.5149 1.36224,4.61048 3.929,4.61048 a 3.38235,3.38235 0 0 0 3.50916,-2.67646 h 1.51953 c -0.68085,2.19928 -2.0426,3.89228 -5.02869,3.89228 -3.72045,0 -5.34423,-2.65594 -5.34423,-6.0965 0,-3.40058 1.99127,-6.19318 5.34423,-6.19318 m -3.92852,5.33239 h 7.59552 c 0,-2.26849 -1.257,-4.11223 -3.66645,-4.11223 -2.41009,0 -3.66748,1.91186 -3.92907,4.11223 M 592.93267,83.436 c -7.03738,0 -12.34423,5.67184 -12.34423,13.19318 0,7.711 5.07614,13.0965 12.34423,13.0965 a 11.86092,11.86092 0 0 0 11.71558,-8.82218 6.99488,6.99488 0 0 0 0.28827,-2.65942 6.99859,6.99859 0 0 0 0.13025,-1.34414 c 0,-7.92737 -4.98972,-13.46394 -12.1341,-13.46394 z"
       fill="#ffffff"
       id="path18" />
    <path
       d="m 463.48681,106.22542 c -4.30468,0 -7.4292,-2.88184 -7.4292,-6.85254 a 6.914,6.914 0 0 1 0.95948,-3.49414 3.50189,3.50189 0 0 1 -0.373,-1.8584 c 0.32764,-4.30371 3.56836,-7.085 8.25635,-7.085 4.7041,0 7.74365,2.79687 7.74365,7.125 V 98.494 a 3.50037,3.50037 0 0 1 1.415,2.81153 v 1.05859 a 3.50131,3.50131 0 0 1 -2.43018,3.333 6.85243,6.85243 0 0 1 -2.11719,0.3916 6.4641,6.4641 0 0 1 -1.27832,-0.127 4.82146,4.82146 0 0 1 -1.25927,-0.40625 9.29517,9.29517 0 0 1 -3.48732,0.66995 z"
       id="path20" />
    <path
       d="m 464.90043,90.43551 c 2.35823,0 4.24355,0.92724 4.24355,3.62482 v 6.34448 c 0,0.74089 0.12889,1.08391 0.60248,1.08391 a 2.63058,2.63058 0 0 0 0.81274,-0.18365 v 1.05854 a 3.84016,3.84016 0 0 1 -1.04773,0.22478 2.867,2.867 0 0 1 -0.629,-0.0675 c -0.8905,-0.1308 -1.04773,-0.92188 -1.04773,-1.73462 a 5.78206,5.78206 0 0 1 -4.34784,1.93884 c -2.04315,0 -3.92907,-1.10558 -3.92907,-3.35248 0,-1.954 1.3623,-3.14818 4.0863,-3.5097 l 1.88538,-0.24694 v 6e-5 a 7.21384,7.21384 0 0 0 1.78155,-0.388 c 0.41937,-0.1994 0.47125,-0.80628 0.47125,-1.20936 0,-1.37256 -0.7857,-2.36248 -2.88128,-2.36248 -1.88538,0 -3.14283,0.60736 -3.40485,2.62994 h -1.36232 c 0.20912,-2.7456 2.25227,-3.85064 4.7666,-3.85064 m -1.36064,11.07434 c 2.14746,0 4.24249,-1.03754 4.24249,-3.4 v -1.8232 h -5.5e-4 a 11.07454,11.07454 0 0 1 -3.45733,0.65546 c -2.0426,0.1562 -3.3,0.90028 -3.3,2.47218 a 2.23646,2.23646 0 0 0 2.51536,2.09558 m 1.36064,-18.07434 c -6.55577,0 -11.27627,4.1469 -11.74637,10.319 a 6.99685,6.99685 0 0 0 0.11016,1.87645 10.34981,10.34981 0 0 0 -0.70642,3.74165 c 0,5.90188 4.69848,10.35248 10.92907,10.35248 a 12.91892,12.91892 0 0 0 3.46221,-0.46754 q 0.306,0.0816 0.61412,0.13878 a 9.92459,9.92459 0 0 0 1.94827,0.192 10.17521,10.17521 0 0 0 3.18984,-0.56056 7.02484,7.02484 0 0 0 4.85789,-6.66422 v -1.05854 a 6.99945,6.99945 0 0 0 -1.41522,-4.22033 v -3.02437 c 0,-6.25574 -4.62352,-10.62482 -11.24355,-10.62482 z"
       fill="#ffffff"
       id="path22" />
    <path
       d="m 456.10058,106.22542 c -3.36767,0 -5.54345,-2.28418 -5.54345,-5.82031 v -5.54 a 3.49955,3.49955 0 0 1 -1.67676,-2.98828 v -1.1211 a 3.49953,3.49953 0 0 1 1.67676,-2.98828 V 87.5135 a 3.50017,3.50017 0 0 1 3.5,-3.5 h 1.3623 a 3.50017,3.50017 0 0 1 3.5,3.5 v 0.0127 a 3.50128,3.50128 0 0 1 2.148,3.22949 v 1.1211 a 3.50128,3.50128 0 0 1 -2.148,3.22949 v 2.97656 a 3.50306,3.50306 0 0 1 2.25293,3.27051 v 1.09965 a 3.49955,3.49955 0 0 1 -2.75635,3.41992 l -0.0962,0.0264 a 8.479,8.479 0 0 1 -2.21924,0.32613 z"
       id="path24" />
    <path
       d="m 455.41961,87.51314 v 3.2428 h 2.148 v 1.12072 h -2.148 V 99.866 c 0,1.1526 0,1.64436 1.1521,1.64436 a 4.72122,4.72122 0 0 0 1.10077,-0.15674 v 1.09966 h -6e-5 a 6.41443,6.41443 0 0 1 -1.572,0.27234 c -1.30989,0 -2.04314,-0.58686 -2.04314,-2.32032 v -8.52864 h -1.67677 v -1.12072 h 1.67677 v -3.2428 h 1.36229 m 0,-7 h -1.36229 a 7.00283,7.00283 0 0 0 -6.84315,5.51955 6.97516,6.97516 0 0 0 -1.83362,4.72325 v 1.12072 a 6.97308,6.97308 0 0 0 1.67677,4.54587 v 3.98281 c 0,5.48766 3.71868,9.32032 9.04314,9.32032 a 11.80636,11.80636 0 0 0 3.10609,-0.441 l 0.0423,-0.0111 a 6.99974,6.99974 0 0 0 5.4236,-6.81982 l 6e-5,-1.09966 a 7.00029,7.00029 0 0 0 -1.90062,-4.79592 6.97451,6.97451 0 0 0 1.7957,-4.68146 v -1.12076 a 6.98438,6.98438 0 0 0 -2.46525,-5.33273 7.00311,7.00311 0 0 0 -6.6827,-4.91007 z"
       fill="#ffffff"
       id="path26" />
    <path
       d="m 397.58593,105.911 a 3.50006,3.50006 0 0 1 -3.5,-3.5 V 86.20784 a 3.50017,3.50017 0 0 1 3.5,-3.5 h 5.91993 c 5.50488,0 8.791,3.001 8.791,8.02637 0,3.87011 -2.54687,8.0039 -9.69189,8.0205 V 102.41 a 3.5,3.5 0 0 1 -3.49756,3.5 z"
       id="path28" />
    <path
       d="m 403.5056,86.20814 c 4.19062,0 5.29132,2.095 5.29132,4.52564 0,3.61994 -3.24816,4.52074 -6.23424,4.52074 h -3.45782 v 7.15558 l -1.519,5.6e-4 V 86.20814 h 5.91972 m -4.40074,7.743 h 3.5097 c 2.88129,0 4.60992,-0.58734 4.60992,-3.32654 0,-2.02746 -1.25744,-3.112 -4.13818,-3.112 h -3.98144 v 6.43854 m 4.40074,-14.743 h -5.91972 a 7,7 0 0 0 -7,7 v 16.20252 a 7,7 0 0 0 7,7 h 0.003 l 1.519,-5.6e-4 a 7,7 0 0 0 6.99742,-7 v -0.47917 c 6.66406,-1.29417 9.69206,-6.26488 9.69206,-11.19715 0,-6.89384 -4.93949,-11.52564 -12.29132,-11.52564 z"
       fill="#ffffff"
       id="path30" />
    <path
       d="m 346.82421,63.33675 a 3.50018,3.50018 0 0 1 -3.5,-3.5 V 31.53206 a 3.49986,3.49986 0 0 1 3.5,-3.5 H 434.999 V 14.27132 h -88.17479 a 3.49987,3.49987 0 0 1 -3.5,-3.5 V 6.99983 a 3.49987,3.49987 0 0 1 3.5,-3.5 H 442.271 a 3.49986,3.49986 0 0 1 3.5,3.5 v 28.30469 a 3.49985,3.49985 0 0 1 -3.5,3.5 h -88.17579 v 21.03223 a 3.50017,3.50017 0 0 1 -3.5,3.5 z"
       id="path32" />
    <path
       d="m 442.27081,7 v 28.30465 h -91.6756 V 59.83694 H 346.824 V 31.5323 h 91.675 V 10.7713 H 346.824 V 7 h 95.44683 m 0,-7 H 346.824 a 7,7 0 0 0 -7,7 v 3.77126 a 7,7 0 0 0 7,7 h 84.675 v 6.761 h -84.675 a 7,7 0 0 0 -7,7 v 28.30468 a 7,7 0 0 0 7,7 h 3.77123 a 7,7 0 0 0 7,-7 V 42.30465 h 84.6756 a 7,7 0 0 0 7,-7 V 7 a 7,7 0 0 0 -7,-7 z"
       fill="#ffffff"
       id="path34" />
    <path
       d="m 560.13867,106.22542 c -4.30469,0 -7.42871,-2.88184 -7.42871,-6.85254 a 6.91734,6.91734 0 0 1 0.959,-3.49414 3.50664,3.50664 0 0 1 -0.37305,-1.8584 c 0.32813,-4.30371 3.56934,-7.085 8.25782,-7.085 4.7041,0 7.74316,2.79687 7.74316,7.125 V 98.494 a 3.50174,3.50174 0 0 1 1.415,2.81153 v 1.05859 a 3.49974,3.49974 0 0 1 -2.43457,3.334 6.85757,6.85757 0 0 1 -2.11328,0.39063 6.39671,6.39671 0 0 1 -1.28027,-0.12793 4.79573,4.79573 0 0 1 -1.25586,-0.40527 9.30705,9.30705 0 0 1 -3.48924,0.66987 z"
       id="path36" />
    <path
       d="m 561.55334,90.43544 c 2.35761,0 4.24353,0.92732 4.24353,3.62482 v 6.34454 c 0,0.7409 0.1283,1.0839 0.60178,1.0839 a 2.63249,2.63249 0 0 0 0.81289,-0.18368 v 1.05858 a 3.84,3.84 0 0 1 -1.04724,0.2248 2.85807,2.85807 0 0 1 -0.629,-0.0675 c -0.88995,-0.1308 -1.04724,-0.92194 -1.04724,-1.73462 a 5.78272,5.78272 0 0 1 -4.34942,1.93884 c -2.04206,0 -3.929,-1.1056 -3.929,-3.35248 0,-1.954 1.36224,-3.1482 4.0863,-3.5097 l 1.88587,-0.247 h 6e-5 a 7.22159,7.22159 0 0 0 1.781,-0.38794 c 0.41992,-0.1994 0.47174,-0.80626 0.47174,-1.2094 0,-1.3725 -0.7862,-2.3625 -2.88123,-2.3625 -1.88538,0 -3.14337,0.60742 -3.40491,2.63 h -1.3623 c 0.20917,-2.74562 2.25287,-3.85072 4.76721,-3.85072 m -1.3623,11.0744 c 2.14856,0 4.24408,-1.03754 4.24408,-3.4 v -1.82314 l -4.9e-4,-6e-5 a 11.07889,11.07889 0 0 1 -3.45734,0.65552 c -2.04364,0.15612 -3.30005,0.90026 -3.30005,2.47216 a 2.23591,2.23591 0 0 0 2.5138,2.09558 m 1.3623,-18.0744 c -6.55606,0 -11.27679,4.14688 -11.747,10.319 a 6.99682,6.99682 0 0 0 0.11,1.87567 10.35041,10.35041 0 0 0 -0.70674,3.74253 c 0,5.90188 4.69846,10.35248 10.929,10.35248 a 12.9271,12.9271 0 0 0 3.46344,-0.46752 q 0.305,0.0813 0.612,0.1384 a 9.91609,9.91609 0 0 0 1.95022,0.1924 10.1735,10.1735 0 0 0 3.18927,-0.56056 7.025,7.025 0 0 0 4.858,-6.66424 v -1.0586 a 6.99933,6.99933 0 0 0 -1.41467,-4.21943 v -3.02531 c 0,-6.25574 -4.6235,-10.62482 -11.24353,-10.62482 z"
       fill="#ffffff"
       id="path38" />
    <rect
       x="407.33887"
       y="82.70784"
       width="8.3100595"
       height="23.203131"
       rx="3.5"
       id="rect40" />
    <path
       d="m 412.14886,86.20814 v 16.20252 H 410.839 V 86.20814 h 1.30987 m 0,-7 H 410.839 a 7,7 0 0 0 -7,7 v 16.20252 a 7,7 0 0 0 7,7 h 1.30987 a 7,7 0 0 0 7,-7 V 86.20814 a 7,7 0 0 0 -7,-7 z"
       fill="#ffffff"
       id="path42" />
    <path
       d="m 557.72949,63.33675 a 3.50049,3.50049 0 0 1 -3.5,-3.5 V 31.53206 a 3.50017,3.50017 0 0 1 3.5,-3.5 h 88.17383 V 14.27132 h -88.17383 a 3.50017,3.50017 0 0 1 -3.5,-3.5 V 6.99983 a 3.50017,3.50017 0 0 1 3.5,-3.5 h 95.44629 a 3.50018,3.50018 0 0 1 3.5,3.5 v 28.30469 a 3.50017,3.50017 0 0 1 -3.5,3.5 H 565.002 v 21.03223 a 3.50049,3.50049 0 0 1 -3.5,3.5 z"
       id="path44" />
    <path
       d="m 653.176,7 v 28.30465 h -91.6745 v 24.53229 h -3.77179 V 31.5323 h 91.674 v -20.761 h -91.674 V 7 H 653.176 m 0,-7 h -95.44627 a 7,7 0 0 0 -7,7 v 3.77126 a 7,7 0 0 0 7,7 h 84.674 v 6.761 h -84.674 a 7,7 0 0 0 -7,7 v 28.30468 a 7,7 0 0 0 7,7 h 3.77179 a 7,7 0 0 0 7,-7 V 42.30465 H 653.176 a 7,7 0 0 0 7,-7 V 7 a 7,7 0 0 0 -7,-7 z"
       fill="#ffffff"
       id="path46" />
    <path
       d="m 418.80175,106.22542 c -4.27441,0 -7.377,-2.88184 -7.377,-6.85254 a 6.922,6.922 0 0 1 0.93164,-3.44727 3.49987,3.49987 0 0 1 -0.39746,-1.90625 c 0.3291,-4.30371 3.59082,-7.084 8.30957,-7.084 4.67188,0 7.69092,2.79687 7.69092,7.125 v 4.47168 a 3.5002,3.5002 0 0 1 1.41455,2.77344 v 1.05859 a 3.50031,3.50031 0 0 1 -2.125,3.21875 6.57353,6.57353 0 0 1 -2.42236,0.50586 5.8242,5.8242 0 0 1 -1.22022,-0.126 4.90855,4.90855 0 0 1 -1.2959,-0.41211 9.42079,9.42079 0 0 1 -3.50874,0.67485 z"
       id="path48" />
    <path
       d="m 420.2685,90.43551 c 2.3571,0 4.1911,0.92724 4.1911,3.62482 v 6.34448 c 0,0.74089 0.15408,1.08391 0.62474,1.08391 a 2.43455,2.43455 0 0 0 0.78944,-0.18365 v 1.05854 a 3.0827,3.0827 0 0 1 -1.04725,0.22478 2.40437,2.40437 0 0 1 -0.57605,-0.0675 c -0.94292,-0.1308 -1.1007,-0.92188 -1.1007,-1.73462 a 5.70209,5.70209 0 0 1 -4.34784,1.93884 c -2.04316,0 -3.8772,-1.10558 -3.8772,-3.35248 0,-1.954 1.3623,-3.14818 4.0863,-3.5097 l 1.83406,-0.24694 v 6e-5 a 6.30709,6.30709 0 0 0 1.78106,-0.388 c 0.47174,-0.1994 0.52362,-0.80622 0.52362,-1.20936 0,-1.37256 -0.83815,-2.36248 -2.93316,-2.36248 -1.83351,0 -3.14282,0.60736 -3.40541,2.62994 h -1.36229 c 0.20964,-2.7456 2.25226,-3.85064 4.81958,-3.85064 m -1.4131,11.07434 c 2.14746,0 4.29541,-1.03748 4.29541,-3.4 l -10e-4,-1.8232 a 11.39627,11.39627 0 0 1 -3.50922,0.65546 c -2.04364,0.1562 -3.3,0.90028 -3.3,2.47224 a 2.23631,2.23631 0 0 0 2.51488,2.09552 m 1.4131,-18.07434 c -6.5863,0 -11.32806,4.14636 -11.79927,10.3177 a 6.99714,6.99714 0 0 0 0.12775,1.96517 10.36049,10.36049 0 0 0 -0.67224,3.65425 c 0,5.90188 4.67618,10.35248 10.8772,10.35248 a 12.95267,12.95267 0 0 0 3.47961,-0.47464 q 0.32711,0.0875 0.65711,0.14777 a 9.30548,9.30548 0 0 0 1.88787,0.19015 10.04935,10.04935 0 0 0 3.82863,-0.80108 7,7 0 0 0 4.21862,-6.4237 v -1.05854 a 6.99952,6.99952 0 0 0 -1.41419,-4.219 v -3.02576 c 0,-6.25574 -4.60194,-10.62482 -11.19109,-10.62482 z"
       fill="#ffffff"
       id="path50" />
    <path
       d="m 575.27832,106.22444 a 8.18314,8.18314 0 0 1 -2.87891,-0.52734 3.478,3.478 0 0 1 -1.20605,0.21386 h -1.36329 a 3.50049,3.50049 0 0 1 -3.5,-3.5 V 86.20784 a 3.50049,3.50049 0 0 1 3.5,-3.5 h 1.36133 a 3.50048,3.50048 0 0 1 3.5,3.5 v 0.75 q 0.31788,-0.02345 0.63965,-0.02344 c 5.11426,0 8.68652,3.97754 8.68652,9.67188 0,5.84277 -3.43066,9.61816 -8.73925,9.61816 z m -0.15723,-8.21484 c 0.12695,0 0.46289,0 0.4834,-1.13086 a 2.86334,2.86334 0 0 0 -0.31153,-1.71387 l -0.005,0.001 c -0.0166,0 -0.0732,-0.0098 -0.167,-0.0098 a 0.25262,0.25262 0 0 0 -0.0537,0.0039 2.06482,2.06482 0 0 0 -0.375,1.374 2.53442,2.53442 0 0 0 0.32324,1.47266 h 0.008 c 0.0166,0 0.0508,0.0029 0.0977,0.0029 z"
       id="path52" />
    <path
       d="m 571.19189,86.20815 v 6.41148 a 4.8169,4.8169 0 0 1 4.13928,-2.18474 c 3.561,0 5.18592,2.90722 5.18592,6.17108 0,3.43622 -1.46656,6.11858 -5.23835,6.11858 a 4.766,4.766 0 0 1 -4.0852,-2.36248 v 2.04852 h -1.36389 V 86.20815 h 1.36224 m 3.92963,15.30114 c 2.2528,0 3.929,-1.64434 3.982,-4.56726 0.10376,-2.9234 -1.205,-5.2859 -3.982,-5.2859 -2.46247,0 -3.92908,2.2469 -3.92908,4.87738 -5.5e-4,2.81752 1.3623,4.97578 3.92908,4.97578 m -3.92963,-22.30114 h -1.36224 a 7,7 0 0 0 -7,7 v 16.20244 a 7,7 0 0 0 7,7 h 1.36224 a 7.05776,7.05776 0 0 0 1.08942,-0.0843 11.56608,11.56608 0 0 0 2.99743,0.39822 c 7.32013,0 12.23835,-5.272 12.23835,-13.11858 0,-6.744 -4.00232,-11.854 -9.8057,-12.95169 a 7.0022,7.0022 0 0 0 -6.5195,-4.44613 z"
       fill="#ffffff"
       id="path54" />
    <rect
       x="476.33105"
       y="87.255692"
       width="8.3105497"
       height="18.65527"
       rx="3.5"
       id="rect56" />
    <path
       d="m 481.14135,90.75538 v 11.65528 h -1.31042 V 90.75538 h 1.31042 m 0,-7 h -1.31042 a 7,7 0 0 0 -7,7 v 11.65528 a 7,7 0 0 0 7,7 h 1.31042 a 7,7 0 0 0 7,-7 V 90.75538 a 7,7 0 0 0 -7,-7 z"
       fill="#ffffff"
       id="path58" />
    <path
       d="m 542.01367,105.911 a 3.50048,3.50048 0 0 1 -3.5,-3.5 V 90.75569 a 3.50048,3.50048 0 0 1 3.5,-3.5 h 1.3623 a 3.50266,3.50266 0 0 1 0.95508,0.13184 8.61979,8.61979 0 0 1 2.86914,-0.45117 3.50048,3.50048 0 0 1 3.5,3.5 v 1.46679 a 3.49869,3.49869 0 0 1 -3.5,3.5 c -0.0264,0 -0.16113,0 -0.19238,0.001 a 4.97606,4.97606 0 0 0 -0.13086,1.28711 v 5.71974 a 3.50048,3.50048 0 0 1 -3.5,3.5 z"
       id="path60" />
    <path
       d="m 547.20056,90.43605 v 1.4671 c -0.0451,-10e-4 -0.0894,-0.0015 -0.13347,-0.0015 -2.92842,0 -3.6902,2.21952 -3.6902,4.7897 v 5.71931 h -1.36328 V 90.7554 h 1.36223 v 2.18474 h 0.0529 a 3.48633,3.48633 0 0 1 3.77179,-2.50409 m 0,-7 a 12.62636,12.62636 0 0 0 -3.06313,0.3603 7.0717,7.0717 0 0 0 -0.76159,-0.041 h -1.36223 a 7,7 0 0 0 -7,7 v 11.65526 a 7,7 0 0 0 7,7 h 1.36223 a 7.00088,7.00088 0 0 0 7.001,-7 v -4.261 a 6.98081,6.98081 0 0 0 3.82367,-6.24646 v -1.4671 a 7,7 0 0 0 -7,-7 z"
       fill="#ffffff"
       id="path62" />
    <path
       d="m 517.39257,105.911 a 3.5009,3.5009 0 0 1 -3.5,-3.5 V 86.20784 a 3.50049,3.50049 0 0 1 3.5,-3.5 h 5.91992 c 5.50391,0 8.79,3.001 8.79,8.02637 0,3.87011 -2.54688,8.0039 -9.69141,8.0205 V 102.41 a 3.50007,3.50007 0 0 1 -3.498,3.5 z"
       id="path64" />
    <path
       d="m 523.313,86.20814 c 4.19054,0 5.28969,2.095 5.28969,4.52564 0,3.61994 -3.19574,4.52074 -6.23323,4.52074 h -3.45831 v 7.15558 l -1.51851,5.6e-4 V 86.20814 h 5.92036 m -4.4024,7.743 h 3.51025 c 2.88123,0 4.6623,-0.58734 4.6623,-3.32648 0,-2.02752 -1.30933,-3.11206 -4.19057,-3.11206 h -3.982 v 6.43854 m 4.4024,-14.743 h -5.92036 a 7,7 0 0 0 -7,7 v 16.20252 a 7,7 0 0 0 7,7 h 0.003 l 1.51851,-5.6e-4 a 7,7 0 0 0 6.99742,-7 v -0.4791 c 6.66453,-1.29374 9.69154,-6.26457 9.69154,-11.19719 0,-6.89384 -4.93884,-11.52564 -12.28969,-11.52564 z m -0.15434,15.31576 z"
       fill="#ffffff"
       id="path66" />
    <path
       d="m 553.22363,106.22542 c -3.39844,0 -5.59473,-2.28418 -5.59473,-5.82031 v -5.57325 a 3.496,3.496 0 0 1 -1.624,-2.95507 v -1.1211 a 3.496,3.496 0 0 1 1.624,-2.95508 V 87.5135 a 3.5005,3.5005 0 0 1 3.5,-3.5 h 1.36231 a 3.50009,3.50009 0 0 1 3.5,3.49219 3.49951,3.49951 0 0 1 2.19922,3.25 v 1.1211 a 3.49951,3.49951 0 0 1 -2.19922,3.25 v 2.96679 a 3.45743,3.45743 0 0 1 0.86133,0.47949 3.50423,3.50423 0 0 1 1.39062,2.78028 v 1.09965 a 3.50051,3.50051 0 0 1 -2.75391,3.41992 l -0.10156,0.0273 a 8.25772,8.25772 0 0 1 -2.16406,0.32516 z"
       id="path68" />
    <path
       d="m 552.49078,87.51314 v 3.2428 h 2.19989 v 1.12072 h -2.19989 V 99.866 c 0,1.1526 0.0529,1.64436 1.1521,1.64436 a 4.33617,4.33617 0 0 0 1.10072,-0.15674 v 1.09966 h 5.4e-4 a 6.39988,6.39988 0 0 1 -1.52008,0.27234 c -1.36121,0 -2.09552,-0.58686 -2.09552,-2.32032 v -8.52864 h -1.62384 v -1.12072 h 1.62384 v -3.2428 h 1.36224 m 0,-7 h -1.36224 a 7.00252,7.00252 0 0 0 -6.85917,5.596 6.9742,6.9742 0 0 0 -1.76467,4.64677 v 1.12072 a 6.97086,6.97086 0 0 0 1.62384,4.48323 v 4.04545 c 0,5.48766 3.74022,9.32032 9.09552,9.32032 a 11.58886,11.58886 0 0 0 3.05362,-0.44072 l 0.0456,-0.012 a 7,7 0 0 0 5.42087,-6.823 l -5.5e-4,-1.09966 a 7.00066,7.00066 0 0 0 -1.87418,-4.76385 6.97494,6.97494 0 0 0 1.82126,-4.70971 v -1.12075 a 6.98535,6.98535 0 0 0 -2.53607,-5.39223 7.0032,7.0032 0 0 0 -6.66382,-4.85057 z"
       fill="#ffffff"
       id="path70" />
    <path
       d="m 534.57324,106.22444 c -5.20606,-0.0801 -8.8418,-4.0459 -8.8418,-9.64453 0,-5.67871 3.6582,-9.64453 8.89551,-9.64453 5.32129,0 8.89648,3.876 8.89648,9.64453 0,5.58887 -3.74121,9.64453 -8.89648,9.64453 z m -0.12207,-8.22558 a 1.66084,1.66084 0 0 0 0.17578,0.01074 0.67258,0.67258 0 0 0 0.19434,-0.01953 2.81483,2.81483 0 0 0 0.2871,-1.41016 3.33,3.33 0 0 0 -0.25195,-1.4082 1.44576,1.44576 0 0 0 -0.22949,-0.01563 0.68243,0.68243 0 0 0 -0.20215,0.02051 2.88072,2.88072 0 0 0 -0.27832,1.40332 2.43622,2.43622 0 0 0 0.30176,1.41895 z"
       id="path72" />
    <path
       d="m 534.62671,90.435 c 3.66748,0 5.39666,2.72346 5.39666,6.14454 0,3.69452 -2.1485,6.14514 -5.39666,6.14514 -2.98552,-0.0465 -5.39509,-2.0691 -5.39509,-6.14514 0,-3.394 1.78107,-6.14454 5.39509,-6.14454 m 0,11.07434 c 2.83,0 3.982,-2.43054 3.982,-4.92926 -0.0524,-2.74506 -1.10022,-4.92382 -3.982,-4.92382 -2.82831,0 -3.98035,2.4041 -3.98035,4.92382 0,2.90234 1.41357,4.92926 3.98035,4.92926 m 0,-18.07434 c -7.18221,0 -12.39509,5.52808 -12.39509,13.14454 0,7.5054 5.167,13.03336 12.286,13.1443 q 0.0545,8.4e-4 0.10907,8.4e-4 c 7.18312,0 12.39666,-5.52832 12.39666,-13.14514 0,-7.61646 -5.21354,-13.14454 -12.39666,-13.14454 z m -3.04337,12.933 z"
       fill="#ffffff"
       id="path74" />
    <path
       d="m 489.04882,106.22444 c -5.20556,-0.082 -8.84082,-4.04785 -8.84082,-9.64453 0,-5.67871 3.65821,-9.64453 8.89551,-9.64453 5.26856,0 8.94824,3.96582 8.94824,9.64453 0,5.67871 -3.67968,9.64453 -8.94824,9.64453 z m 0.0547,-8.21484 a 0.6642,0.6642 0 0 0 0.19336,-0.01953 2.80365,2.80365 0 0 0 0.28809,-1.41016 3.34221,3.34221 0 0 0 -0.22608,-1.4043 1.35832,1.35832 0 0 0 -0.25537,-0.01953 0.69251,0.69251 0 0 0 -0.1914,0.01856 3.64355,3.64355 0 0 0 -0.23731,1.40527 2.69152,2.69152 0 0 0 0.28027,1.42578 l 0.0108,-0.001 c 0.0225,2e-5 0.0693,0.0049 0.13769,0.0049 z"
       id="path76" />
    <path
       d="m 489.10369,90.435 c 3.66643,0 5.44806,2.72346 5.44806,6.14454 0,3.69452 -2.148,6.14514 -5.44806,6.14514 -2.93363,-0.0465 -5.39562,-2.0691 -5.39562,-6.14514 0,-3.394 1.83351,-6.14454 5.39562,-6.14454 m 0,11.07434 c 2.82831,0 3.98147,-2.43054 3.98147,-4.92926 0,-2.74506 -1.10016,-4.92382 -3.98147,-4.92382 -2.82887,0 -3.929,2.4041 -3.929,4.92382 0,2.90234 1.36232,4.92926 3.929,4.92926 m 0,-18.07434 c -7.18251,0 -12.39562,5.52808 -12.39562,13.14454 0,7.50342 5.16644,13.03138 12.28463,13.14426 q 0.0555,8.7e-4 0.111,8.8e-4 c 7.2129,0 12.44806,-5.52832 12.44806,-13.14514 0,-7.61646 -5.23516,-13.14454 -12.44806,-13.14454 z"
       fill="#ffffff"
       id="path78" />
    <rect
       x="580.00391"
       y="82.70784"
       width="8.36133"
       height="23.203131"
       rx="3.5"
       id="rect80" />
    <path
       d="m 584.86493,86.20815 v 16.20244 h -1.36121 V 86.20815 h 1.36121 m 0,-7 h -1.36121 a 7,7 0 0 0 -7,7 v 16.20244 a 7,7 0 0 0 7,7 h 1.36121 a 7,7 0 0 0 7,-7 V 86.20815 a 7,7 0 0 0 -7,-7 z"
       fill="#ffffff"
       id="path82" />
    <rect
       x="476.22607"
       y="82.70784"
       width="8.5195303"
       height="9"
       rx="3.5"
       id="rect84" />
    <path
       d="m 481.24559,86.20815 v 1.99993 h -1.51944 v -1.99993 h 1.51944 m 0,-7 h -1.51944 a 7,7 0 0 0 -7,7 v 1.99993 a 7,7 0 0 0 7,7 h 1.51944 a 7,7 0 0 0 7,-7 v -1.99993 a 7,7 0 0 0 -7,-7 z"
       fill="#ffffff"
       id="path86" />
    <path
       d="m 442.2705,63.33675 a 3.50018,3.50018 0 0 1 -3.5,-3.5 v -3.772 a 3.49987,3.49987 0 0 1 3.5,-3.5 H 487.437 V 6.99983 a 3.49986,3.49986 0 0 1 3.5,-3.5 h 52.64892 a 3.50017,3.50017 0 0 1 3.5,3.5 v 3.77149 a 3.50017,3.50017 0 0 1 -3.5,3.5 H 498.418 v 45.56543 a 3.50017,3.50017 0 0 1 -3.5,3.5 z"
       id="path88" />
    <path
       d="m 543.58551,7 v 3.77126 H 494.9181 v 49.06568 h -52.64735 v -3.77229 h 48.66638 V 7 h 52.64838 m 0,-7 h -52.64832 a 7,7 0 0 0 -7,7 l -6e-5,42.06465 h -41.66638 a 7,7 0 0 0 -7,7 v 3.77229 a 7,7 0 0 0 7,7 h 52.64735 a 7,7 0 0 0 7,-7 V 17.77126 h 41.66741 a 7,7 0 0 0 7,-7 V 7 a 7,7 0 0 0 -7,-7 z"
       fill="#ffffff"
       id="path90" />
    <path
       d="m 496.43749,105.911 a 3.50017,3.50017 0 0 1 -3.5,-3.5 V 90.75569 a 3.50017,3.50017 0 0 1 3.5,-3.5 h 1.36231 a 3.48926,3.48926 0 0 1 1.03565,0.15625 7.58339,7.58339 0 0 1 2.68408,-0.47656 7.406,7.406 0 0 1 6.44336,3.17969 7.78105,7.78105 0 0 1 1.24711,4.66308 V 102.41 a 3.50049,3.50049 0 0 1 -3.5,3.5 h -1.36231 a 3.50177,3.50177 0 0 1 -3.27441,-2.26074 3.50029,3.50029 0 0 1 -3.27442,2.26171 z m 5.15137,-10.73535"
       id="path92" />
    <path
       d="m 501.51928,90.4355 a 4.02545,4.02545 0 0 1 3.56215,1.666 4.38754,4.38754 0 0 1 0.62839,2.67644 v 7.63222 h -1.36223 v -7.60632 c 0,-2.0896 -0.89,-3.14818 -3.0385,-3.14818 a 3.39254,3.39254 0 0 0 -3.24768,2.26794 6.19986,6.19986 0 0 0 -0.26259,2.21118 v 6.27588 h -1.36119 V 90.75538 h 1.36229 v 1.61842 a 4.89058,4.89058 0 0 1 3.71936,-1.9383 m 0,-7 a 11.0742,11.0742 0 0 0 -2.86958,0.37094 7.07082,7.07082 0 0 0 -0.84978,-0.05106 h -1.36229 a 7,7 0 0 0 -7,7 v 11.65528 a 7,7 0 0 0 7,7 h 1.36119 a 6.96963,6.96963 0 0 0 3.27489,-0.81173 6.97029,6.97029 0 0 0 3.27388,0.81119 h 1.36223 a 7,7 0 0 0 7,-7 V 94.7779 a 11.25627,11.25627 0 0 0 -1.85777,-6.63876 10.9524,10.9524 0 0 0 -9.33277,-4.70364 z"
       fill="#ffffff"
       id="path94" />
    <path
       d="m 402.61457,93.95114 c 2.88126,0 4.6099,-0.58739 4.6099,-3.32653 0,-2.02747 -1.25744,-3.112 -4.13816,-3.112 h -3.98145 v 6.43853 z m -5.0287,8.45951 V 86.20816 h 5.91977 c 4.19058,0 5.29131,2.095 5.29131,4.5256 0,3.62 -3.24817,4.52075 -6.23427,4.52075 h -3.45783 v 7.1556 l -1.519,5.4e-4 m 13.25314,0 h 1.30986 V 86.20816 H 410.839 Z m 12.31074,-6.124 a 11.3951,11.3951 0 0 1 -3.50917,0.65547 c -2.04369,0.15617 -3.3,0.90026 -3.3,2.4722 a 2.23632,2.23632 0 0 0 2.51489,2.09556 c 2.14743,0 4.2954,-1.03751 4.2954,-3.4 z m -2.30468,-0.6706 a 6.304,6.304 0 0 0 1.78106,-0.388 c 0.47174,-0.1994 0.52362,-0.80623 0.52362,-1.20935 0,-1.37254 -0.83812,-2.3625 -2.93314,-2.3625 -1.83348,0 -3.1428,0.60738 -3.40542,2.63 h -1.36227 c 0.20966,-2.74562 2.25226,-3.85069 4.81957,-3.85069 2.3571,0 4.19111,0.92729 4.19111,3.62482 v 6.34449 c 0,1.05751 0.314,1.30446 1.41416,0.90027 v 1.05858 a 3.0826,3.0826 0 0 1 -1.04725,0.22479 2.4027,2.4027 0 0 1 -0.576,-0.0675 c -0.94294,-0.13078 -1.10073,-0.92187 -1.10073,-1.73459 a 5.70191,5.70191 0 0 1 -4.34783,1.93885 c -2.04314,0 -3.87716,-1.1056 -3.87716,-3.35247 0,-1.954 1.36228,-3.1482 4.08628,-3.5097 l 1.834,-0.24695 m 6.967,9.9639 a 6.0799,6.0799 0 0 0 1.1002,0.14158 c 1.57194,0 1.78106,-2.21012 2.30468,-3.2217 l -4.55749,-11.745 h 1.51956 l 3.77179,10.01632 3.71884,-10.01632 h 1.46711 l -4.34838,11.49856 C 431.6876,105.17625 430.95485,107 429.069,107 a 5.27964,5.27964 0 0 1 -1.25745,-0.15671 v -1.26339 m 12.52041,-8.00938 c 0.26208,2.9018 2.14852,3.95984 4.66233,3.95984 2.88126,0 4.08628,-1.57032 4.08628,-3.35246 0,-5.01843 -9.84881,-1.6865 -9.84881,-8.051 0,-2.25335 1.83348,-4.3435 5.50044,-4.3435 3.61454,0 5.448,2.20039 5.3956,4.84118 h -1.41415 c 0,-2.47868 -1.93831,-3.53619 -3.98146,-3.53619 -3.14334,0 -4.24354,1.91184 -3.98145,3.57781 0.68086,4.18031 9.90122,1.16773 9.90122,7.44361 0,2.97637 -2.20039,4.72609 -5.91977,4.72609 -3.40542,0 -5.91977,-1.74972 -5.91977,-5.26484 l 1.51952,-5.4e-4 m 17.34051,4.88279 a 6.41453,6.41453 0 0 1 -1.57194,0.27235 c -1.30986,0 -2.04313,-0.58684 -2.04313,-2.32035 v -8.52866 h -1.67678 v -1.12073 h 1.67678 v -3.24277 h 1.36227 v 3.24277 h 2.148 v 1.12073 H 455.4197 V 99.866 c 0,1.15261 0,1.64435 1.15208,1.64435 a 4.72076,4.72076 0 0 0 1.10073,-0.15671 v 1.09965 m 10.10927,-6.16672 a 11.07358,11.07358 0 0 1 -3.45729,0.65548 c -2.04261,0.15617 -3.3,0.90026 -3.3,2.4722 a 2.23652,2.23652 0 0 0 2.51543,2.09555 c 2.14744,0 4.24246,-1.03751 4.24246,-3.4 v -1.82318 z m -2.25227,-0.67059 a 7.211,7.211 0 0 0 1.7816,-0.388 c 0.41933,-0.1994 0.47121,-0.80624 0.47121,-1.20936 0,-1.37254 -0.7857,-2.36249 -2.88126,-2.36249 -1.88536,0 -3.1428,0.60737 -3.40487,2.63 h -1.36228 c 0.20912,-2.74563 2.25227,-3.85069 4.76661,-3.85069 2.35818,0 4.24353,0.92729 4.24353,3.62482 v 6.34449 c 0,1.05751 0.26262,1.30446 1.41524,0.90027 v 1.05858 a 3.841,3.841 0 0 1 -1.04778,0.22479 2.865,2.865 0 0 1 -0.629,-0.0675 c -0.89054,-0.13078 -1.04778,-0.92187 -1.04778,-1.73459 a 5.78185,5.78185 0 0 1 -4.34782,1.93885 c -2.04313,0 -3.929,-1.1056 -3.929,-3.35247 0,-1.954 1.36227,-3.1482 4.08628,-3.5097 l 1.88536,-0.24695 m 11.578,6.83731 a 6.41442,6.41442 0 0 1 -1.5714,0.27234 c -1.30932,0 -2.04314,-0.58683 -2.04314,-2.32034 v -8.52865 h -1.62435 v -1.12073 h 1.62435 v -3.24277 h 1.36228 v 3.24277 h 2.148 v 1.12073 h -2.148 V 99.866 c 0,1.15262 0,1.64436 1.15208,1.64436 a 4.71688,4.71688 0 0 0 1.10074,-0.15671 v 1.09965 m 4.03333,-0.0427 h -1.3104 V 90.75538 h 1.3104 z M 479.7261,88.20807 v -1.99991 h 1.51953 v 1.99991 h -1.51953 m 9.37761,3.44812 c -2.82885,0 -3.929,2.4041 -3.929,4.92386 0,2.90233 1.36228,4.92926 3.929,4.92926 2.82831,0 3.98145,-2.43059 3.98145,-4.92926 0,-2.74505 -1.10016,-4.92386 -3.98145,-4.92386 z m -5.39561,4.92331 c 0,-3.39406 1.83348,-6.14456 5.39561,-6.14456 3.66641,0 5.448,2.72347 5.448,6.14456 0,3.69453 -2.148,6.14511 -5.448,6.14511 -2.93367,-0.0465 -5.39561,-2.06908 -5.39561,-6.14511 m 14.0918,5.83116 h -1.36228 V 90.75538 h 1.36228 v 1.61841 a 4.89078,4.89078 0 0 1 3.71938,-1.93831 4.0253,4.0253 0 0 1 3.56212,1.666 4.38771,4.38771 0 0 1 0.62845,2.67646 v 7.6322 h -1.36229 v -7.60629 c 0,-2.08962 -0.89,-3.1482 -3.03851,-3.1482 a 3.39253,3.39253 0 0 0 -3.24763,2.26794 6.1993,6.1993 0 0 0 -0.26262,2.21119 v 6.27588 m 24.622,-8.45952 c 2.88126,0 4.66233,-0.58738 4.66233,-3.32652 0,-2.02748 -1.30933,-3.112 -4.19059,-3.112 h -3.982 v 6.43852 z m -5.02815,8.45952 v -16.2025 h 5.9203 c 4.19058,0 5.2897,2.095 5.2897,4.52561 0,3.61995 -3.19575,4.52075 -6.23319,4.52075 h -3.45836 v 7.15559 l -1.51844,5.5e-4 m 17.23405,-10.75447 c -2.8283,0 -3.98037,2.4041 -3.98037,4.92386 0,2.90233 1.41362,4.92926 3.98037,4.92926 2.82993,0 3.982,-2.43059 3.982,-4.92926 -0.0524,-2.74505 -1.1002,-4.92386 -3.982,-4.92386 z m -5.39506,4.92331 c 0,-3.39406 1.78106,-6.14456 5.39506,-6.14456 3.6675,0 5.39669,2.72347 5.39669,6.14456 0,3.69453 -2.14851,6.14511 -5.39669,6.14511 -2.98555,-0.0465 -5.39506,-2.06908 -5.39506,-6.14511 m 14.14422,5.83116 h -1.36229 V 90.75538 h 1.36229 v 2.18473 h 0.0529 a 3.48633,3.48633 0 0 1 3.77179,-2.50408 v 1.4671 c -3.039,-0.06808 -3.82367,2.17933 -3.82367,4.78823 v 5.7193 m 11.36725,0.0427 a 6.39989,6.39989 0 0 1 -1.52008,0.27235 c -1.36121,0 -2.09556,-0.58684 -2.09556,-2.32035 v -8.52868 h -1.6238 v -1.12073 h 1.6238 v -3.24277 h 1.36229 v 3.24277 h 2.19984 v 1.12073 H 552.4908 V 99.866 c 0,1.15262 0.0529,1.64436 1.15207,1.64436 a 4.33591,4.33591 0 0 0 1.10071,-0.15671 v 1.09965 m 9.691,-6.16672 a 11.07937,11.07937 0 0 1 -3.45731,0.65547 c -2.04367,0.15617 -3.30005,0.90027 -3.30005,2.4722 a 2.23591,2.23591 0 0 0 2.51381,2.09556 c 2.14852,0 4.24408,-1.03751 4.24408,-3.4 v -1.8232 z m -2.25282,-0.67059 a 7.22284,7.22284 0 0 0 1.78106,-0.388 c 0.41987,-0.1994 0.47173,-0.80624 0.47173,-1.20936 0,-1.37254 -0.78624,-2.36249 -2.88126,-2.36249 -1.88536,0 -3.14334,0.60737 -3.40488,2.63 h -1.36228 c 0.20911,-2.74562 2.25281,-3.85068 4.76716,-3.85068 2.35764,0 4.24352,0.92728 4.24352,3.62482 v 6.34449 c 0,1.05751 0.26155,1.30446 1.41469,0.90027 v 1.05858 a 3.8418,3.8418 0 0 1 -1.04724,0.22479 2.85432,2.85432 0 0 1 -0.629,-0.0675 c -0.89,-0.13078 -1.04724,-0.92188 -1.04724,-1.7346 a 5.78276,5.78276 0 0 1 -4.34945,1.93886 c -2.04206,0 -3.929,-1.1056 -3.929,-3.35247 0,-1.954 1.36229,-3.1482 4.0863,-3.50971 l 1.8859,-0.24695 m 12.93973,5.89329 c 2.25281,0 3.929,-1.64435 3.982,-4.56722 0.10375,-2.92342 -1.205,-5.28591 -3.982,-5.28591 -2.46247,0 -3.929,2.24686 -3.929,4.87738 -5.8e-4,2.81747 1.36222,4.97574 3.929,4.97575 z m -3.92958,0.90134 h -1.36226 V 86.20813 h 1.36226 v 6.4115 a 4.81669,4.81669 0 0 1 4.13925,-2.18472 c 3.561,0 5.18594,2.9072 5.18594,6.171 0,3.43622 -1.46657,6.11862 -5.23836,6.11862 a 4.766,4.766 0 0 1 -4.08522,-2.3625 v 2.04855 m 12.3102,0 h 1.36121 V 86.20813 h -1.36121 z m 13.09591,-6.64225 c 0,-2.26847 -1.25692,-4.11222 -3.66642,-4.11222 -2.41007,0 -3.6675,1.91183 -3.929,4.11222 z m -7.596,1.131 c 0,2.51489 1.36228,4.61045 3.929,4.61045 a 3.3824,3.3824 0 0 0 3.50917,-2.67646 h 1.51951 c -0.68087,2.19931 -2.0426,3.89229 -5.02868,3.89229 -3.72046,0 -5.34427,-2.65592 -5.34427,-6.09647 0,-3.40056 1.99127,-6.1932 5.34427,-6.1932 3.19574,0 5.13407,2.27928 5.13407,6.46392 l -9.06311,-5.4e-4 M 346.82394,7 h 95.44684 V 35.30465 H 350.59519 V 59.837 h -3.77125 V 31.53232 H 438.499 V 10.77126 H 346.82394 V 7 M 561.50153,35.30465 V 59.837 h -3.77179 V 31.53232 h 91.674 V 10.77126 h -91.674 V 7 h 95.44631 V 35.30465 H 561.50153 M 490.93715,7 V 56.06463 H 442.27078 V 59.837 h 52.64729 V 10.77126 h 48.66745 V 7 h -52.64835"
       id="path96" />
  </g>
  <metadata
     id="metadata918">
    <rdf:RDF>
      <cc:Work
         rdf:about="">
        <dc:title>logo</dc:title>
      </cc:Work>
    </rdf:RDF>
  </metadata>
</svg>
