<?xml version="1.0" encoding="UTF-8" standalone="no"?>
<!-- Created with Inkscape (http://www.inkscape.org/) -->

<svg
   width="265.08322mm"
   height="58.749989mm"
   viewBox="0 0 265.08322 58.749989"
   version="1.1"
   id="svg5"
   inkscape:version="1.1 (c68e22c387, 2021-05-23)"
   sodipodi:docname="pspminis.svg"
   xmlns:inkscape="http://www.inkscape.org/namespaces/inkscape"
   xmlns:sodipodi="http://sodipodi.sourceforge.net/DTD/sodipodi-0.dtd"
   xmlns="http://www.w3.org/2000/svg"
   xmlns:svg="http://www.w3.org/2000/svg">
  <sodipodi:namedview
     id="namedview7"
     pagecolor="#ffffff"
     bordercolor="#666666"
     borderopacity="1.0"
     inkscape:pageshadow="2"
     inkscape:pageopacity="0.0"
     inkscape:pagecheckerboard="0"
     inkscape:document-units="mm"
     showgrid="false"
     fit-margin-top="0"
     fit-margin-left="0"
     fit-margin-right="0"
     fit-margin-bottom="0"
     inkscape:zoom="0.67081229"
     inkscape:cx="473.30677"
     inkscape:cy="107.33256"
     inkscape:window-width="1920"
     inkscape:window-height="1138"
     inkscape:window-x="-8"
     inkscape:window-y="-8"
     inkscape:window-maximized="1"
     inkscape:current-layer="layer1" />
  <defs
     id="defs2" />
  <g
     inkscape:label="Calque 1"
     inkscape:groupmode="layer"
     id="layer1"
     transform="translate(20.119051,-119.72288)">
    <g
       id="g879">
      <path
         style="display:inline;fill:#ab37c8;stroke:#ffffff;stroke-width:7.9375;stroke-linecap:round;stroke-linejoin:round;stroke-miterlimit:4;stroke-dasharray:none;stroke-opacity:1;paint-order:stroke markers fill"
         d="m -15.90363,174.10847 c -0.239998,-0.28917 -0.291728,-2.99849 -0.210914,-11.04635 0.114888,-11.44109 0.135487,-11.63431 1.636685,-15.3509 1.988115,-4.92207 6.7580064,-9.8245 11.6743688,-11.99875 3.28155712,-1.45126 5.5562481,-1.79932 11.7593091,-1.79932 4.9077881,0 5.9972121,0.0769 7.9375001,0.55992 4.10551,1.02213 6.911101,2.56215 10.033132,5.50732 l 1.883508,1.77681 1.648452,-1.57348 c 2.930588,-2.79729 6.167575,-4.6138 10.115116,-5.67631 1.852107,-0.49851 2.844208,-0.57183 7.937501,-0.58658 6.328992,-0.0183 7.637468,0.15369 11.018425,1.44853 5.064818,1.93972 9.36969,6.03312 11.739954,11.16324 1.739572,3.76508 1.786697,4.16938 1.909644,16.38351 0.107381,10.66788 0.09418,11.04635 -0.385395,11.04635 -0.273121,0 -0.618776,0.12219 -0.768122,0.27154 -0.169326,0.16933 -1.857421,0.24402 -4.484688,0.19844 l -4.213151,-0.0731 -0.145357,-10.98021 c -0.137784,-10.40823 -0.175813,-11.07186 -0.730057,-12.73967 -1.110353,-3.34123 -3.568962,-6.25419 -6.552975,-7.76397 -2.32029,-1.17395 -3.877355,-1.45023 -8.192585,-1.45364 -4.410036,-0.004 -6.243154,0.33057 -8.281602,1.50915 -1.63453,0.94505 -3.969689,3.34659 -4.862155,5.00038 -1.449721,2.68641 -1.530062,3.48657 -1.530062,15.23876 0,10.50655 -0.0136,10.79232 -0.513551,10.79232 -0.282453,0 -0.587137,0.11907 -0.677074,0.26459 -0.244996,0.39641 -7.880922,0.34762 -8.281459,-0.0529 -0.236267,-0.23627 -0.318304,-3.02866 -0.32064,-10.91406 -0.0034,-11.63039 -0.047,-12.03776 -1.598261,-14.94822 -1.658612,-3.11187 -4.819284,-5.5732 -8.331467,-6.48801 -2.373831,-0.6183 -9.0995541,-0.56062 -11.2097331,0.0961 -4.0025091,1.24572 -7.0558181,4.4501 -8.3289335,8.74103 -0.362054,1.22027 -0.426383,3.08642 -0.426383,12.36927 0,10.64499 -0.01349,10.93218 -0.513551,10.93218 -0.282454,0 -0.587137,0.11907 -0.677074,0.26459 -0.0967,0.15645 -1.71174,0.26458 -3.9519684,0.26458 -2.984438,0 -3.855933,-0.0813 -4.106437,-0.38316 z m 99.383757,0.20677 c -0.09702,-0.097 -0.17639,-5.92971 -0.17639,-12.96156 0,-11.71545 0.03813,-12.8297 0.455676,-13.31736 0.423902,-0.49508 0.774436,-0.53219 5.027084,-0.53219 h 4.571407 v 13.22917 c 0,12.91869 -0.01204,13.22916 -0.513551,13.22916 -0.282453,0 -0.587137,0.11907 -0.677074,0.26459 -0.182004,0.29449 -8.397452,0.37789 -8.687152,0.0882 z m 20.737083,-0.20677 c -0.24,-0.28917 -0.29173,-2.99849 -0.21092,-11.04635 0.11489,-11.44109 0.13549,-11.63431 1.6367,-15.3509 1.98811,-4.92207 6.75801,-9.8245 11.67437,-11.99875 3.28156,-1.45126 5.55624,-1.79932 11.75931,-1.79932 4.90779,0 5.99721,0.0769 7.9375,0.55992 4.37547,1.08934 7.82658,3.09042 10.72055,6.21618 2.20797,2.38481 3.5636,4.66643 4.67791,7.87321 l 0.87341,2.51355 0.0749,11.37708 0.0749,11.37708 -0.72297,0.33073 c -0.98318,0.44977 -8.58355,0.4609 -9.03122,0.0132 -0.23627,-0.23627 -0.31831,-3.02866 -0.32064,-10.91406 -0.003,-11.63039 -0.047,-12.03776 -1.59826,-14.94822 -1.65861,-3.11187 -4.81929,-5.5732 -8.33147,-6.48801 -2.37383,-0.6183 -9.09956,-0.56062 -11.20973,0.0961 -4.00252,1.24572 -7.05582,4.4501 -8.32894,8.74103 -0.36205,1.22027 -0.42638,3.08642 -0.42638,12.36927 0,10.64499 -0.0135,10.93218 -0.51355,10.93218 -0.28246,0 -0.58714,0.11907 -0.67708,0.26459 -0.0967,0.15645 -1.71174,0.26458 -3.95197,0.26458 -2.98444,0 -3.85593,-0.0813 -4.10644,-0.38316 z m 59.69627,0.20677 c -0.29718,-0.29718 -0.21,-26.01736 0.0882,-26.01736 0.14552,0 0.26458,-0.18134 0.26458,-0.40298 0,-0.3485 0.63496,-0.39321 4.69636,-0.33073 l 4.69635,0.0722 0.0686,13.16302 c 0.0672,12.89832 0.0582,13.16302 -0.44741,13.16302 -0.28381,0 -0.5896,0.11907 -0.67954,0.26459 -0.18201,0.29449 -8.39745,0.37789 -8.68715,0.0882 z m 20.13038,0.0249 c -0.34689,-0.35188 -0.21651,-6.54953 0.14786,-7.0283 0.28189,-0.37039 1.16906,-0.45129 6.14314,-0.56014 6.31204,-0.13814 7.68451,-0.36846 10.57619,-1.77486 2.91364,-1.41709 4.44791,-3.12768 5.76516,-6.42771 0.50025,-1.25323 0.57261,-2.15694 0.74673,-9.32521 0.20179,-8.30796 0.38624,-9.75759 1.61023,-12.65561 1.66041,-3.93134 5.61873,-8.21929 9.36822,-10.14838 4.56518,-2.34875 6.73973,-2.7283 15.63117,-2.7283 h 6.96286 l -0.002,3.50573 -0.002,3.50573 -0.71215,0.33073 c -0.49792,0.23124 -2.37182,0.33073 -6.22955,0.33073 -6.36385,0 -8.27367,0.31054 -10.69042,1.73829 -2.62235,1.5492 -4.66123,4.21472 -5.65257,7.38984 -0.21508,0.68886 -0.39428,3.96789 -0.51333,9.3927 -0.1747,7.96094 -0.21302,8.42527 -0.85527,10.36285 -2.23962,6.75663 -7.62616,11.57367 -15.07827,13.48411 -1.91224,0.49023 -3.17203,0.58025 -9.60911,0.68665 -4.07458,0.0673 -7.49763,0.0319 -7.60677,-0.0788 z M 83.480127,141.24232 c -0.09702,-0.097 -0.17639,-1.59027 -0.17639,-3.31835 0,-4.40059 -0.250465,-4.2113 5.449756,-4.11861 l 4.47212,0.0727 0.07344,3.44994 0.07343,3.44994 -0.88597,0.32038 c -0.937594,0.33903 -8.687438,0.46293 -9.006388,0.14398 z m 80.433353,0 c -0.097,-0.097 -0.17639,-1.59027 -0.17639,-3.31835 0,-4.40059 -0.25047,-4.2113 5.44975,-4.11861 l 4.47212,0.0727 0.0734,3.44994 0.0734,3.44994 -0.88597,0.32038 c -0.93759,0.33903 -8.68743,0.46293 -9.00638,0.14398 z"
         id="path884" />
      <path
         style="display:inline;fill:#ab37c8;stroke-width:0.264583"
         d="m -15.903629,174.10847 c -0.239998,-0.28917 -0.291728,-2.99849 -0.210914,-11.04635 0.114888,-11.44109 0.135487,-11.63431 1.636685,-15.3509 1.988115,-4.92207 6.7580063,-9.8245 11.6743686,-11.99875 3.2815574,-1.45126 5.5562484,-1.79932 11.7593094,-1.79932 4.907787,0 5.997212,0.0769 7.9375,0.55992 4.10551,1.02213 6.911101,2.56215 10.033132,5.50732 l 1.883508,1.77681 1.648452,-1.57348 c 2.930588,-2.79729 6.167575,-4.6138 10.115116,-5.67631 1.852107,-0.49851 2.844208,-0.57183 7.937501,-0.58658 6.328992,-0.0183 7.637468,0.15369 11.018425,1.44853 5.064818,1.93972 9.36969,6.03312 11.739954,11.16324 1.739572,3.76508 1.786697,4.16938 1.909644,16.38351 0.107381,10.66788 0.09418,11.04635 -0.385395,11.04635 -0.273121,0 -0.618776,0.12219 -0.768122,0.27154 -0.169326,0.16933 -1.857421,0.24402 -4.484688,0.19844 l -4.213151,-0.0731 -0.145357,-10.98021 c -0.137784,-10.40823 -0.175813,-11.07186 -0.730057,-12.73967 -1.110353,-3.34123 -3.568962,-6.25419 -6.552975,-7.76397 -2.32029,-1.17395 -3.877355,-1.45023 -8.192585,-1.45364 -4.410036,-0.004 -6.243154,0.33057 -8.281602,1.50915 -1.63453,0.94505 -3.969689,3.34659 -4.862155,5.00038 -1.449721,2.68641 -1.530062,3.48657 -1.530062,15.23876 0,10.50655 -0.0136,10.79232 -0.513551,10.79232 -0.282453,0 -0.587137,0.11907 -0.677074,0.26459 -0.244996,0.39641 -7.880922,0.34762 -8.281459,-0.0529 -0.236267,-0.23627 -0.318304,-3.02866 -0.32064,-10.91406 -0.0034,-11.63039 -0.047,-12.03776 -1.598261,-14.94822 -1.658612,-3.11187 -4.819284,-5.5732 -8.331468,-6.48801 -2.373831,-0.6183 -9.099553,-0.56062 -11.209732,0.0961 -4.0025094,1.24572 -7.0558184,4.4501 -8.3289338,8.74103 -0.362054,1.22027 -0.426383,3.08642 -0.426383,12.36927 0,10.64499 -0.01349,10.93218 -0.5135509,10.93218 -0.282454,0 -0.587137,0.11907 -0.677074,0.26459 -0.0967,0.15645 -1.71174,0.26458 -3.9519683,0.26458 -2.984438,0 -3.855933,-0.0813 -4.106437,-0.38316 z m 99.383757,0.20677 c -0.09702,-0.097 -0.17639,-5.92971 -0.17639,-12.96156 0,-11.71545 0.03813,-12.8297 0.455676,-13.31736 0.423902,-0.49508 0.774436,-0.53219 5.027084,-0.53219 h 4.571406 v 13.22917 c 0,12.91869 -0.012,13.22916 -0.51355,13.22916 -0.28245,0 -0.58714,0.11907 -0.67707,0.26459 -0.18201,0.29449 -8.397456,0.37789 -8.687156,0.0882 z m 20.737082,-0.20677 c -0.24,-0.28917 -0.29173,-2.99849 -0.21091,-11.04635 0.11488,-11.44109 0.13548,-11.63431 1.63669,-15.3509 1.98811,-4.92207 6.75801,-9.8245 11.67437,-11.99875 3.28156,-1.45126 5.55624,-1.79932 11.75931,-1.79932 4.90779,0 5.99721,0.0769 7.9375,0.55992 4.37547,1.08934 7.82658,3.09042 10.72055,6.21618 2.20797,2.38481 3.5636,4.66643 4.67791,7.87321 l 0.87341,2.51355 0.0749,11.37708 0.0749,11.37708 -0.72297,0.33073 c -0.98318,0.44977 -8.58355,0.4609 -9.03122,0.0132 -0.23627,-0.23627 -0.31831,-3.02866 -0.32064,-10.91406 -0.003,-11.63039 -0.047,-12.03776 -1.59826,-14.94822 -1.65861,-3.11187 -4.81929,-5.5732 -8.33147,-6.48801 -2.37383,-0.6183 -9.09956,-0.56062 -11.20973,0.0961 -4.00252,1.24572 -7.05582,4.4501 -8.32894,8.74103 -0.36205,1.22027 -0.42638,3.08642 -0.42638,12.36927 0,10.64499 -0.0135,10.93218 -0.51355,10.93218 -0.28246,0 -0.58714,0.11907 -0.67708,0.26459 -0.0967,0.15645 -1.71174,0.26458 -3.95197,0.26458 -2.98444,0 -3.85593,-0.0813 -4.10644,-0.38316 z m 59.69627,0.20677 c -0.29718,-0.29718 -0.21,-26.01736 0.0882,-26.01736 0.14552,0 0.26458,-0.18134 0.26458,-0.40298 0,-0.3485 0.63496,-0.39321 4.69636,-0.33073 l 4.69635,0.0722 0.0686,13.16302 c 0.0672,12.89832 0.0582,13.16302 -0.44741,13.16302 -0.28381,0 -0.5896,0.11907 -0.67954,0.26459 -0.18201,0.29449 -8.39745,0.37789 -8.68715,0.0882 z m 20.13038,0.0249 c -0.34689,-0.35188 -0.21651,-6.54953 0.14786,-7.0283 0.28189,-0.37039 1.16906,-0.45129 6.14314,-0.56014 6.31204,-0.13814 7.68451,-0.36846 10.57619,-1.77486 2.91364,-1.41709 4.44791,-3.12768 5.76516,-6.42771 0.50025,-1.25323 0.57261,-2.15694 0.74673,-9.32521 0.20179,-8.30796 0.38624,-9.75759 1.61023,-12.65561 1.66041,-3.93134 5.61873,-8.21929 9.36822,-10.14838 4.56518,-2.34875 6.73973,-2.7283 15.63117,-2.7283 h 6.96286 l -0.002,3.50573 -0.002,3.50573 -0.71215,0.33073 c -0.49792,0.23124 -2.37182,0.33073 -6.22955,0.33073 -6.36385,0 -8.27367,0.31054 -10.69042,1.73829 -2.62235,1.5492 -4.66123,4.21472 -5.65257,7.38984 -0.21508,0.68886 -0.39428,3.96789 -0.51333,9.3927 -0.1747,7.96094 -0.21302,8.42527 -0.85527,10.36285 -2.23962,6.75663 -7.62616,11.57367 -15.07827,13.48411 -1.91224,0.49023 -3.17203,0.58025 -9.60911,0.68665 -4.07458,0.0673 -7.49763,0.0319 -7.60677,-0.0788 z M 83.480128,141.24232 c -0.09702,-0.097 -0.17639,-1.59027 -0.17639,-3.31835 0,-4.40059 -0.250465,-4.2113 5.449756,-4.11861 l 4.47212,0.0727 0.0734,3.44994 0.0734,3.44994 -0.88597,0.32038 c -0.93759,0.33903 -8.687436,0.46293 -9.006386,0.14398 z m 80.433352,0 c -0.097,-0.097 -0.17639,-1.59027 -0.17639,-3.31835 0,-4.40059 -0.25047,-4.2113 5.44975,-4.11861 l 4.47212,0.0727 0.0734,3.44994 0.0734,3.44994 -0.88597,0.32038 c -0.93759,0.33903 -8.68743,0.46293 -9.00638,0.14398 z"
         id="path1056" />
    </g>
  </g>
</svg>
