<?xml version="1.0" encoding="UTF-8" standalone="no"?>
<svg
   viewBox="0 0 211.64581 114"
   version="1.1"
   id="svg120"
   sodipodi:docname="psx.svg"
   width="211.64581"
   height="114"
   inkscape:version="1.1 (c68e22c387, 2021-05-23)"
   xmlns:inkscape="http://www.inkscape.org/namespaces/inkscape"
   xmlns:sodipodi="http://sodipodi.sourceforge.net/DTD/sodipodi-0.dtd"
   xmlns="http://www.w3.org/2000/svg"
   xmlns:svg="http://www.w3.org/2000/svg"
   xmlns:rdf="http://www.w3.org/1999/02/22-rdf-syntax-ns#"
   xmlns:cc="http://creativecommons.org/ns#"
   xmlns:dc="http://purl.org/dc/elements/1.1/">
  <defs
     id="defs124" />
  <sodipodi:namedview
     id="namedview122"
     pagecolor="#ffffff"
     bordercolor="#666666"
     borderopacity="1.0"
     inkscape:pageshadow="2"
     inkscape:pageopacity="0.0"
     inkscape:pagecheckerboard="0"
     showgrid="false"
     fit-margin-top="0"
     fit-margin-left="0"
     fit-margin-right="0"
     fit-margin-bottom="0"
     inkscape:zoom="1.113"
     inkscape:cx="105.57053"
     inkscape:cy="56.603774"
     inkscape:window-width="1920"
     inkscape:window-height="1138"
     inkscape:window-x="-8"
     inkscape:window-y="-8"
     inkscape:window-maximized="1"
     inkscape:current-layer="svg120" />
  <title
     id="title2">logo</title>
  <g
     id="Layer_2"
     data-name="Layer 2"
     transform="translate(-394.1771)">
    <rect
       x="522.31421"
       y="60.95422"
       width="10.16827"
       height="9.3898897"
       fill="#ffffff"
       id="rect4" />
  </g>
  <g
     id="svg2"
     transform="translate(-394.1771)">
    <path
       d="m 484.60055,53.19818 5.7879,1.84161 v 0.03552 l -5.7879,-1.87713 m -0.002,-7.00186 a 7.00113,7.00113 0 0 0 -2.15779,13.66042 l 5.78789,1.87713 a 7.01688,7.01688 0 1 0 4.28195,-13.36455 l -5.7876,-1.84161 a 6.99594,6.99594 0 0 0 -2.12414,-0.33139 z"
       fill="#ffffff"
       id="path7" />
    <path
       d="m 566.35433,75.94879 a 4.19963,4.19963 0 0 1 3.28552,1.28844 c 0.64423,0.773 1.4173,2.38354 1.4173,7.15076 0,4.76722 -0.77307,6.37774 -1.4173,7.15082 a 4.83334,4.83334 0 0 1 -6.571,0 c -0.64423,-0.773 -1.4173,-2.38354 -1.4173,-7.15082 0,-4.76728 0.77307,-6.37768 1.4173,-7.15076 a 4.1996,4.1996 0 0 1 3.28546,-1.28844 m 0,-7 a 11.14873,11.14873 0 0 0 -8.66293,3.80706 c -2.13077,2.55694 -3.03983,6.03566 -3.03983,11.63214 0,5.59672 0.90912,9.07552 3.03986,11.63226 a 11.76,11.76 0 0 0 17.3259,-6e-5 c 2.13076,-2.55694 3.03982,-6.03568 3.03982,-11.6322 0,-5.59652 -0.90912,-9.07546 -3.03985,-11.6322 a 11.14883,11.14883 0 0 0 -8.663,-3.807 z"
       fill="#ffffff"
       id="path9" />
    <path
       d="m 490.38845,46.621 v 4.63032 l -5.7879,1.94684 -5.9458,1.99944 a 5.77312,5.77312 0 0 1 -1.86983,0.31819 c -2.89372,0 -4.68184,-2.32934 -1.70811,-3.42261 l 2.89392,-0.9997 -0.028,-0.0089 12.44572,-4.46362 m -5.5e-4,-7 a 6.99519,6.99519 0 0 0 -2.36259,0.411 l -12.44574,4.4636 q -0.196,0.07028 -0.38567,0.15125 l -2.40269,0.83 q -0.0651,0.0225 -0.12981,0.04628 c -4.97908,1.83048 -6.59662,6.08342 -5.99092,9.48626 0.77418,4.3495 5.02792,7.5064 10.11444,7.5064 a 12.74819,12.74819 0 0 0 4.1378,-0.69578 l 5.909,-1.98694 5.78842,-1.947 a 7,7 0 0 0 4.76833,-6.63472 V 46.621 a 7.00008,7.00008 0 0 0 -7.00055,-7 z"
       fill="#ffffff"
       id="path11" />
    <path
       d="m 503.01638,69.95812 a 3.49211,3.49211 0 0 1 -1.08154,-0.17187 l -12.62842,-4.10449 a 3.49808,3.49808 0 0 1 -2.418,-3.32813 V 58.6339 a 3.51485,3.51485 0 0 1 0.0527,-0.60644 v -2.35938 a 3.367,3.367 0 0 1 -0.0527,-0.59277 V 7.00011 a 3.49934,3.49934 0 0 1 4.39551,-3.3833 L 507.385,7.87853 c 12.814,3.46533 19.24317,10.52783 19.12647,20.99658 -0.14063,14.65918 -8.34717,16.84864 -13.22608,16.84864 a 22.98558,22.98558 0 0 1 -6.35351,-1.00391 3.45687,3.45687 0 0 1 -0.39063,-0.13867 l -0.003,2.41894 a 3.45957,3.45957 0 0 1 -0.0215,0.38379 v 6.61328 c 0.009,0.10059 0.0132,0.20313 0.0132,0.30567 l -0.005,4.79492 c 0,0.07715 -0.003,0.15332 -0.008,0.23047 v 7.12988 a 3.49922,3.49922 0 0 1 -3.50049,3.5 z"
       fill="#de1528"
       id="path13" />
    <path
       d="m 490.38845,7.00006 16.101,4.262 c 10.31305,2.78871 16.62714,8.15571 16.52191,17.5742 -0.0842,8.79955 -3.33465,13.38759 -9.72555,13.38759 a 19.43235,19.43235 0 0 1 -5.3757,-0.86464 V 19.68083 c 0.0276,-1.35018 -1.30118,-2.03653 -2.57337,-2.03653 -1.1571,0 -2.26745,0.568 -2.26745,1.72086 l -0.0309,27.63084 -0.0217,-0.0067 v 7.31385 l 0.0136,-0.0046 -0.005,4.79548 -0.008,-0.0026 v 7.15595 l 2.5e-4,4.8e-4 -2.5e-4,0.21 -12.62817,-4.10417 v -3.71925 c 0.0174,-0.006 0.0353,-0.01049 0.0526,-0.01654 v -3.52538 l -0.0526,-0.0171 V 7.00006 M 490.38876,0 a 7.00009,7.00009 0 0 0 -7.00031,7.00006 v 48.03972 a 7.04713,7.04713 0 0 0 0.0526,0.85979 v 1.876 a 7.02373,7.02373 0 0 0 -0.0526,0.85872 v 3.71931 a 7,7 0 0 0 4.8364,6.65722 L 500.853,73.115 a 7,7 0 0 0 9.1636,-6.6489 l 2.5e-4,-0.21 -2.5e-4,-6.82286 q 0.008,-0.16519 0.008,-0.33142 l 0.005,-4.79547 q 2.7e-4,-0.22348 -0.0136,-0.44485 v -4.8848 a 22.74252,22.74252 0 0 0 3.26914,0.24716 c 3.87793,0 16.54471,-1.46538 16.72525,-20.32055 0.0941,-8.4228 -3.59317,-19.50387 -21.69443,-24.39855 L 492.1797,0.23314 A 6.99679,6.99679 0 0 0 490.38876,0 Z"
       fill="#ffffff"
       id="path15" />
    <path
       d="m 480.47292,63.797 a 36.751,36.751 0 0 1 -6.082,-0.51758 l -1.63965,-0.25 c -7.37939,-1.11328 -15.00976,-2.26465 -15.37451,-8.19531 -0.28222,-4.58008 3.01953,-8.5918 8.61621,-10.4707 a 3.5041,3.5041 0 0 1 2.167,-0.01954 l 10.52247,3.32129 c 0.10009,0.02051 0.19921,0.04688 0.29736,0.07715 a 3.52482,3.52482 0 0 1 2.439,2.833 l 2.06641,-0.69434 a 3.49608,3.49608 0 0 1 2.19482,-0.01171 l 5.78809,1.877 a 3.57046,3.57046 0 0 1 2.47314,3.34668 v 3.52539 a 3.50072,3.50072 0 0 1 -2.39257,3.32031 c -0.0254,0.0088 -0.0557,0.01758 -0.0869,0.02734 A 33.70154,33.70154 0 0 1 480.47341,63.797 Z"
       fill="#f4cb0e"
       id="path17" />
    <path
       d="m 467.1069,47.68218 10.81121,3.41131 0.0246,-0.0089 0.028,0.0089 -2.89393,0.99971 c -2.974,1.09335 -1.186,3.42261 1.70811,3.42261 a 5.77507,5.77507 0 0 0 1.86984,-0.31819 l 5.94579,-1.99944 5.7879,1.87713 0.0526,0.01708 v 3.5254 c -0.0173,0.006 -0.0353,0.01056 -0.0526,0.01654 a 30.106,30.106 0 0 1 -9.91441,1.66293 33.1274,33.1274 0 0 1 -5.50251,-0.46926 c -6.051,-0.94715 -13.891,-1.789 -14.10147,-5.20911 -0.20994,-3.41163 2.93087,-5.82787 6.23684,-6.93671 m 0,-7 a 6.99937,6.99937 0 0 0 -2.226,0.36335 c -7.05864,2.36748 -11.37547,7.86412 -10.99766,14.00333 0.19281,3.13313 1.914,7.336 9.01857,9.5654 a 64.72653,64.72653 0 0 0 9.32847,1.87627 c 0.54982,0.08293 1.09246,0.16476 1.62127,0.24739 a 40.29211,40.29211 0 0 0 6.62246,0.55934 37.21138,37.21138 0 0 0 12.10678,-2.01447 q 0.0826,-0.02661 0.1642,-0.055 a 7,7 0 0 0 4.696,-6.61 v -3.5254 a 7,7 0 0 0 -4.83865,-6.658 l -0.0526,-0.01708 -5.78973,-1.87771 a 6.99993,6.99993 0 0 0 -3.6362,-0.18391 6.98652,6.98652 0 0 0 -3.044,-1.93692 q -0.22654,-0.0716 -0.45721,-0.12766 L 469.21319,41.0066 a 6.9995,6.9995 0 0 0 -2.10637,-0.32443 z"
       fill="#ffffff"
       id="path19" />
    <path
       d="m 503.12234,69.9591 a 3.50131,3.50131 0 0 1 -3.13086,-1.93555 l -0.105,-0.21 a 3.50086,3.50086 0 0 1 -0.36963,-1.56543 v -7.15719 a 3.50033,3.50033 0 0 1 4.60742,-3.32031 l 11.10205,3.50879 a 3.49964,3.49964 0 0 1 0.0947,6.64258 l -11.04981,3.8418 a 3.49208,3.49208 0 0 1 -1.1489,0.19531 z"
       fill="#f4cb0e"
       id="path21" />
    <path
       d="m 503.01662,59.09137 0.008,0.0026 11.14667,3.52276 -11.04962,3.84106 -0.105,-0.21 -2.5e-4,-4.8e-4 v -7.15596 m 0.006,-6.99776 a 7.00421,7.00421 0 0 0 -7.00583,6.99776 v 7.15594 a 7,7 0 0 0 0.7396,3.13168 l 0.1053,0.2105 a 6.99514,6.99514 0 0 0 8.55882,3.48022 L 516.47,69.22865 a 7,7 0 0 0 -0.189,-13.2865 l -11.1467,-3.52276 a 7.00584,7.00584 0 0 0 -2.11182,-0.32578 z"
       fill="#ffffff"
       id="path23" />
    <path
       d="m 490.38845,46.54308 a 3.4887,3.4887 0 0 1 -1.022,-0.15234 l -4.99854,-1.52637 a 3.50051,3.50051 0 0 1 -0.0952,-6.665 l 4.99853,-1.68359 a 3.50032,3.50032 0 0 1 4.61719,3.31738 v 3.21 a 3.49908,3.49908 0 0 1 -3.5,3.5 z"
       fill="#4177b3"
       id="path25" />
    <path
       d="M 490.38845,39.83336 V 43.043 l -4.99866,-1.52589 4.99866,-1.68378 m -5.3e-4,-7.00005 a 6.99539,6.99539 0 0 0 -2.234,0.36628 l -4.99865,1.68379 a 7,7 0 0 0 0.19082,13.32878 l 4.99866,1.52589 a 7,7 0 0 0 9.04373,-6.695 v -3.20966 a 7.00011,7.00011 0 0 0 -7.00053,-7.00005 z"
       fill="#ffffff"
       id="path27" />
    <path
       d="m 532.48269,59.64465 a 3.51552,3.51552 0 0 1 -1.05762,-0.16309 l -11.78613,-3.73535 a 3.50325,3.50325 0 0 1 -2.37158,-2.63184 l -1.82325,0.61231 a 3.49782,3.49782 0 0 1 -2.146,0.02734 l -11.26026,-3.47266 a 3.5,3.5 0 0 1 -0.17822,-6.6289 l 1,-0.36817 c 6.94678,-2.33691 12.61475,-3.40918 17.93262,-3.40918 0.918,0 1.83838,0.03321 2.73535,0.09766 7.375,0.55762 17.35059,2.10352 18.94434,9.0791 0.373,1.56641 0.87793,7.03906 -8.62989,10.34571 -0.0976,0.03418 -0.19629,0.06347 -0.29687,0.08886 l -0.21,0.05274 a 3.5025,3.5025 0 0 1 -0.85249,0.10547 z"
       fill="#4177b3"
       id="path29" />
    <path
       d="m 520.79214,43.37506 q 1.23839,0 2.48224,0.08892 c 9.05017,0.684 14.94336,2.68348 15.78521,6.3667 0.52619,2.20991 -1.52588,4.57769 -6.3667,6.26148 l -0.21045,0.0526 -11.78631,-3.73582 3.26227,-1.105 c 5.26208,-1.68385 4.56366,-3.46853 0.54385,-3.46853 a 20.28735,20.28735 0 0 0 -3.59567,0.36411 l -6.57715,2.21 -11.26019,-3.47282 0.99975,-0.36828 a 52.76249,52.76249 0 0 1 16.72315,-3.19336 m 0,-7 c -5.70911,0 -11.73172,1.13063 -18.95349,3.55817 q -0.0952,0.032 -0.18937,0.06668 l -0.99974,0.36828 a 7,7 0 0 0 0.35671,13.25759 l 11.26016,3.47278 a 6.99991,6.99991 0 0 0 3.40247,0.18156 6.98556,6.98556 0 0 0 2.91223,1.80163 l 11.78628,3.73583 a 7.00023,7.00023 0 0 0 3.81263,0.11822 l 0.21048,-0.05261 q 0.3049,-0.07625 0.60208,-0.17957 c 9.73086,-3.38469 12.00366,-9.67968 10.88537,-14.45728 -2.12457,-9.20685 -13.61468,-11.12293 -22.076,-11.76246 -1.00168,-0.07273 -2.00726,-0.10882 -3.00979,-0.10882 z m 4.14206,18.48032 z"
       fill="#ffffff"
       id="path31" />
    <path
       d="m 490.388,58.54015 a 3.5066,3.5066 0 0 1 -1.061,-0.165 l -5.78809,-1.84179 a 3.49993,3.49993 0 0 1 -0.0547,-6.65235 l 5.78809,-1.94726 a 3.50065,3.50065 0 0 1 4.61621,3.31738 v 3.78906 a 3.50008,3.50008 0 0 1 -3.50049,3.5 z"
       fill="#1ba0a5"
       id="path33" />
    <path
       d="m 490.38845,51.25134 v 3.78844 l -5.7879,-1.8416 5.7879,-1.94684 m -5.2e-4,-7.00005 a 6.99467,6.99467 0 0 0 -2.23115,0.36533 l -5.78791,1.94683 a 7,7 0 0 0 0.10927,13.3052 l 5.78789,1.8416 a 7,7 0 0 0 9.12242,-6.67047 v -3.78844 a 7.00008,7.00008 0 0 0 -7.00052,-7.00005 z"
       fill="#ffffff"
       id="path35" />
    <path
       d="m 514.17165,66.11633 a 3.50241,3.50241 0 0 1 -1.05908,-0.16407 L 502.01,62.42687 a 3.49994,3.49994 0 0 1 -2.44092,-3.33594 v -0.63085 a 3.50025,3.50025 0 0 1 2.3667,-3.31153 l 17.522,-5.998 a 3.50409,3.50409 0 0 1 2.16845,-0.03223 l 11.89161,3.68262 a 3.50018,3.50018 0 0 1 0.13085,6.64355 l -18.31054,6.47168 a 3.49039,3.49039 0 0 1 -1.1665,0.20016 z"
       fill="#1ba0a5"
       id="path37" />
    <path
       d="m 520.5909,52.46154 11.89154,3.68323 -18.31091,6.472 -11.10229,-3.5254 V 58.46 l 17.52166,-5.99842 m 0,-7 a 6.99983,6.99983 0 0 0 -2.26727,0.37733 L 500.802,51.83729 A 7,7 0 0 0 496.06924,58.46 v 0.63139 a 7,7 0 0 0 4.88148,6.67173 l 11.10228,3.5254 a 7.00014,7.00014 0 0 0 4.45126,-0.07185 l 18.31092,-6.472 A 7,7 0 0 0 534.55352,49.45819 L 522.662,45.77494 a 6.99924,6.99924 0 0 0 -2.07105,-0.3134 z"
       fill="#ffffff"
       id="path39" />
    <path
       d="m 503.02615,57.79894 a 3.5063,3.5063 0 0 1 -3.50928,-3.49609 v -7.31348 a 3.49993,3.49993 0 0 1 4.562,-3.335 l 11.229,3.46289 a 3.5,3.5 0 0 1 0.0986,6.65723 c 0,0 -11.33594,3.86621 -11.38086,3.87988 a 3.50035,3.50035 0 0 1 -0.9995,0.14457 z"
       fill="#1ba0a5"
       id="path41" />
    <path
       d="m 503.01662,46.98931 0.0217,0.0067 11.23847,3.46606 -11.24658,3.83642 -0.0136,0.0046 v -7.31384 m 0.0149,-6.99414 a 7.01117,7.01117 0 0 0 -7.01487,6.99414 v 7.31384 a 6.99984,6.99984 0 0 0 9.25733,6.626 l 11.26282,-3.842 a 7,7 0 0 0 -0.197,-13.31424 l -11.23849,-3.466 a 7.02215,7.02215 0 0 0 -2.06985,-0.31176 z"
       fill="#ffffff"
       id="path43" />
    <path
       d="m 477.909,54.59 a 3.46521,3.46521 0 0 1 -1.04395,-0.1582 l -10.81152,-3.41211 a 3.50457,3.50457 0 0 1 0.37891,-6.78614 l 17.83642,-6.03222 a 3.50044,3.50044 0 0 1 2.14307,-0.03223 l 4.99853,1.52637 a 3.50125,3.50125 0 0 1 2.478,3.34765 v 3.57813 a 3.50069,3.50069 0 0 1 -2.31836,3.29492 L 479.12429,54.38 a 3.62536,3.62536 0 0 1 -1.21529,0.21 z"
       fill="#1ba0a5"
       id="path45" />
    <path
       d="m 485.38979,41.51714 4.99866,1.52588 v 3.578 l -12.44574,4.46362 -0.0246,0.0089 -10.81121,-3.41132 -0.028,-0.0088 a 2.27661,2.27661 0 0 0 0.26306,-0.05268 l 18.04779,-6.10358 m 0,-7 a 6.99892,6.99892 0 0 0 -2.24257,0.36894 L 465.51237,40.85 a 7.00064,7.00064 0 0 0 -0.53061,13.50185 l 10.83,3.4172 a 7,7 0 0 0 4.47836,-0.08968 l 12.4615,-4.46932 a 7,7 0 0 0 4.63686,-6.589 V 43.043 a 7,7 0 0 0 -4.9563,-6.695 l -4.99866,-1.52588 a 7.00015,7.00015 0 0 0 -2.04368,-0.305 z"
       fill="#ffffff"
       id="path47" />
    <path
       d="m 401.177,99.16222 a 3.50017,3.50017 0 0 1 -3.5,-3.5 v -29.4414 a 3.50017,3.50017 0 0 1 3.5,-3.5 h 9.98536 a 19.06373,19.06373 0 0 1 6.95654,1.23144 c 3.42334,1.57227 5.5625,5.67871 5.5625,10.708 0,3.73145 -0.41309,7.59668 -3.4082,10.5918 -2.12793,2.12695 -5.603,2.44531 -7.48487,2.44531 l -3.53711,-0.0029 v 7.96777 a 3.50017,3.50017 0 0 1 -3.5,3.5 z m 10.17872,-21.10839 c 0.0679,0 0.126,-0.002 0.17578,-0.0039 a 18.51544,18.51544 0 0 0 0.18945,-2.874 8.23109,8.23109 0 0 0 -0.28711,-2.41895 6.283,6.283 0 0 0 -1.44873,-0.20117 h -0.73389 v 5.49805 z"
       id="path49" />
    <path
       d="m 411.16242,66.22105 a 16.58125,16.58125 0 0 1 5.47591,0.90192 c 2.3836,1.09523 3.54314,4.31629 3.54314,7.53735 0,3.54323 -0.45092,6.18453 -2.38361,8.11713 -1.32526,1.32532 -4.21253,1.41994 -5.01024,1.41994 -0.1329,0 -0.20789,-0.0026 -0.20789,-0.0026 h -4.05853 v -2.64131 h 2.83454 a 3.37769,3.37769 0 0 0 3.22107,-1.61052 c 0.51538,-0.83752 0.64422,-3.22108 0.64422,-4.76721 0,-1.48175 -0.19322,-3.6076 -1.09514,-4.76723 -1.03077,-1.35283 -4.123,-1.35283 -4.123,-1.35283 h -4.25183 V 95.6618 h -4.574 V 66.22105 h 9.98532 m 0,-7 h -9.98528 a 7,7 0 0 0 -7,7 V 95.6618 a 7,7 0 0 0 7,7 h 4.574 a 7,7 0 0 0 7,-7 v -4.46445 h 0.0366 c 2.96066,0 7.09195,-0.60207 9.96008,-3.47027 3.907,-3.90682 4.43377,-8.79773 4.43377,-13.0668 0,-6.41281 -2.92,-11.73822 -7.62052,-13.898 a 22.18966,22.18966 0 0 0 -8.39853,-1.54123 z"
       fill="#ffffff"
       id="path51" />
    <rect
       x="420.35379"
       y="62.720821"
       width="11.57373"
       height="36.44141"
       rx="3.5"
       id="rect53" />
    <path
       d="M 428.4275,66.22105 V 95.6618 h -4.574 V 66.22105 h 4.574 m 0,-7 h -4.574 a 7,7 0 0 0 -7,7 V 95.6618 a 7,7 0 0 0 7,7 h 4.574 a 7,7 0 0 0 7,-7 V 66.22105 a 7,7 0 0 0 -7,-7 z"
       fill="#ffffff"
       id="path55" />
    <path
       d="m 456.5154,110.50011 a 3.49975,3.49975 0 0 1 -3.24121,-4.82128 l 4.30957,-10.57227 -7.94482,-20.74023 a 3.50011,3.50011 0 0 1 3.26855,-4.752 h 5.41162 a 3.49949,3.49949 0 0 1 3.314,2.374 l 2.41846,7.11621 2.64209,-7.19629 a 3.50024,3.50024 0 0 1 3.28564,-2.294 h 4.252 a 3.49972,3.49972 0 0 1 3.2378,4.8291 l -13.915,33.88575 a 3.50043,3.50043 0 0 1 -3.2378,2.17089 z"
       id="path57" />
    <path
       d="m 474.23135,73.11426 h 0.005 m -0.005,0 L 460.31623,107 h -3.80089 L 461.347,95.14641 452.90775,73.11426 h 5.41144 l 5.60467,16.49194 6.0556,-16.49194 h 4.2519 m 0.005,-7 h -4.2569 a 7.00112,7.00112 0 0 0 -5.8301,3.125 7.00067,7.00067 0 0 0 -5.83017,-3.125 h -5.41144 a 7,7 0 0 0 -6.53685,9.50389 l 7.44952,19.44829 -3.78726,9.29141 A 7,7 0 0 0 456.51534,114 h 3.80089 a 7,7 0 0 0 6.4753,-4.34093 l 13.82953,-33.67739 a 7.0027,7.0027 0 0 0 -6.38471,-9.86746 z m -0.005,14 z"
       fill="#ffffff"
       id="path59" />
    <path
       d="m 477.51785,98.96691 a 3.501,3.501 0 0 1 -3.37208,-3.498 v -2.7705 a 3.5009,3.5009 0 0 1 3.5,-3.5 c 0.0464,0 0.0933,0.001 0.14014,0.0029 1.91406,0.07617 5.01758,0.19043 5.72217,0.19043 a 6.67082,6.67082 0 0 0 1.38184,-0.11914 9.81724,9.81724 0 0 0 0.27246,-1.55567 12.33974,12.33974 0 0 0 -0.147,-1.56445 c -0.17529,-0.01758 -0.3623,-0.03809 -0.56,-0.05957 -0.72071,-0.07813 -1.5376,-0.167 -2.44629,-0.20508 a 9.55671,9.55671 0 0 1 -6.73047,-3.25488 c -1.16455,-1.39453 -2.35694,-3.42774 -2.35694,-7.90821 0,-5.13769 1.60791,-7.82519 2.957,-9.1748 a 9.52519,9.52519 0 0 1 5.28174,-2.51758 29.26275,29.26275 0 0 1 3.8291,-0.24707 c 0.0352,0 6.54737,0.19531 6.54737,0.19531 a 3.4994,3.4994 0 0 1 3.395,3.498 v 2.77051 a 3.49994,3.49994 0 0 1 -3.5,3.5 q -0.0718,0 -0.14356,-0.0029 c -1.86181,-0.07617 -4.88672,-0.19043 -5.58984,-0.19043 a 5.89978,5.89978 0 0 0 -0.998,0.06152 3.046,3.046 0 0 0 -0.14062,0.69336 12.51743,12.51743 0 0 0 0.10058,1.4541 c 0.16309,0.01758 0.34717,0.03711 0.54151,0.0586 0.7207,0.07812 1.53808,0.167 2.44629,0.20507 a 9.5643,9.5643 0 0 1 6.73046,3.25391 c 1.564,1.87793 2.35694,4.69043 2.35694,8.36035 0,4.25684 -1.106,7.90332 -2.9585,9.75489 a 9.5142,9.5142 0 0 1 -5.27929,2.51757 36.06708,36.06708 0 0 1 -3.71729,0.3086 c -0.0376,0.001 -0.0752,0.002 -0.11279,0.002 -0.0425,-5e-5 -7.14993,-0.25884 -7.14993,-0.25884 z"
       id="path61" />
    <path
       d="m 484.98975,66.28552 6.44216,0.19323 v 2.77014 c 0,0 -4.70276,-0.19329 -5.73352,-0.19329 -2.25475,0 -2.899,0.451 -3.73644,1.35284 a 5.16226,5.16226 0 0 0 -0.90191,2.899 11.67783,11.67783 0 0 0 0.451,3.35 2.789,2.789 0 0 0 2.31915,1.54609 c 0.83748,0.06445 2.12592,0.25775 3.67206,0.32214 a 5.95289,5.95289 0 0 1 4.18738,1.99709 c 0.64422,0.77306 1.54614,2.51243 1.54614,6.12 0,3.67206 -0.96631,6.31329 -1.93266,7.2796 a 6.31565,6.31565 0 0 1 -3.41432,1.54615 c -1.22406,0.19323 -3.22112,0.25769 -3.22112,0.25769 l -7.022,-0.25763 v -2.77016 c 0,0 4.83167,0.19325 5.86243,0.19325 2.25476,0 3.34991,-0.45093 4.18736,-1.35279 0.5154,-0.51537 0.96633,-2.96337 0.96633,-3.80089 a 12.62665,12.62665 0 0 0 -0.51538,-3.47884 2.88784,2.88784 0 0 0 -2.31916,-1.54614 c -0.83748,-0.06438 -2.12591,-0.25769 -3.67206,-0.32209 a 5.953,5.953 0 0 1 -4.18737,-1.99706 c -0.64423,-0.77306 -1.54615,-1.99706 -1.54615,-5.66906 0,-3.672 0.96631,-5.73358 1.93267,-6.6999 a 6.31571,6.31571 0 0 1 3.41432,-1.54614 26.66605,26.66605 0 0 1 3.22111,-0.19323 m 0,-7 a 31.53857,31.53857 0 0 0 -4.31262,0.27885 q -0.0627,0.0099 -0.1253,0.02094 a 13.05591,13.05591 0 0 0 -7.14725,3.48983 c -1.81694,1.81686 -3.98293,5.31288 -3.98293,11.64965 0,5.62656 1.69338,8.3801 3.16863,10.1504 a 12.12865,12.12865 0 0 0 1.7159,1.67112 7.00041,7.00041 0 0 0 -3.66053,6.1521 v 2.77015 a 7,7 0 0 0 6.74337,6.99529 l 7.022,0.25763 q 0.12828,0.005 0.25665,0.005 0.11293,0 0.2258,-0.004 a 38.77854,38.77854 0 0 0 4.08682,-0.33967 q 0.0627,-0.01 0.12519,-0.0209 a 13.05571,13.05571 0 0 0 7.14737,-3.48986 c 2.53117,-2.53106 3.98292,-6.98852 3.98292,-12.22935 0,-4.51154 -1.06609,-8.07836 -3.16862,-10.60138 a 11.85756,11.85756 0 0 0 -1.28417,-1.309 q 0.257,-0.20393 0.496,-0.43313 a 7,7 0 0 0 2.153,-5.05036 V 66.4787 a 7,7 0 0 0 -6.79013,-6.99686 l -6.44214,-0.19322 q -0.10493,-0.0032 -0.20989,-0.0032 z"
       fill="#ffffff"
       id="path63" />
    <path
       d="m 502.0613,99.09777 c -4.09277,0 -6.71,-2.6123 -7.17969,-5.19238 q -0.0249,-0.13917 -0.0391,-0.27832 c -0.0679,-0.67481 -0.20361,-2.76465 -0.20361,-2.76465 -0.005,-0.07617 -0.007,-0.14941 -0.007,-0.22559 V 69.05578 a 3.50017,3.50017 0 0 1 3.5,-3.5 h 4.57422 a 3.49976,3.49976 0 0 1 3.49952,3.55664 l -0.007,0.4375 h 1.66113 a 3.50017,3.50017 0 0 1 3.5,3.5 v 2.76953 a 3.50017,3.50017 0 0 1 -3.5,3.5 h -1.71826 v 9.25586 c 0,0.0049 0.001,0.2959 0.0176,0.71484 0.28564,-0.01269 0.48877,-0.02246 0.49512,-0.02343 0.0586,-0.0029 0.11669,-0.0039 0.1748,-0.0039 a 3.49992,3.49992 0 0 1 3.5,3.5 v 2.77051 a 3.50075,3.50075 0 0 1 -3.45264,3.5 c 0,0 -4.79931,0.06445 -4.81494,0.06445 z"
       id="path65" />
    <path
       d="m 502.70571,69.05567 h 0.005 m -0.005,0 -0.0645,3.99412 h 5.2182 v 2.77015 h -5.2182 v 12.7555 a 23.99412,23.99412 0 0 0 0.1933,2.899 c 0.19323,1.28839 1.1596,1.35279 1.93267,1.35279 0.77307,0 2.06147,-0.0644 2.06147,-0.0644 V 95.533 l -4.76721,0.06437 c -2.6413,0 -3.60761,-1.61052 -3.73644,-2.31914 C 498.26058,92.634 498.1318,90.637 498.1318,90.637 V 69.05567 h 4.57391 m 0.005,-7 h -4.57891 a 7,7 0 0 0 -7,7 V 90.637 q 0,0.22543 0.0145,0.45052 c 0.0228,0.35406 0.14044,2.15735 0.2135,2.8876 q 0.028,0.27911 0.0781,0.55523 c 0.72884,4.00879 4.612,8.067 10.62356,8.067 q 0.0472,0 0.0945,-6.4e-4 l 4.76721,-0.0644 A 7,7 0 0 0 513.8287,95.533 v -2.77019 a 7.00038,7.00038 0 0 0 -4.18747,-6.40984 v -3.76182 a 7.00262,7.00262 0 0 0 5.21823,-6.77121 v -2.77015 a 7.002,7.002 0 0 0 -5.77768,-6.89364 6.99744,6.99744 0 0 0 -6.37106,-4.10048 z"
       fill="#ffffff"
       id="path67" />
    <rect
       x="543.59204"
       y="69.614372"
       width="11.57422"
       height="29.54785"
       rx="3.5"
       id="rect69" />
    <path
       d="m 551.66622,73.11419 v 22.5476 h -4.574 v -22.5476 h 4.574 m 0,-7 h -4.574 a 7,7 0 0 0 -7,7 v 22.5476 a 7,7 0 0 0 7,7 h 4.574 a 7,7 0 0 0 7,-7 v -22.5476 a 7,7 0 0 0 -7,-7 z"
       fill="#ffffff"
       id="path71" />
    <rect
       x="543.59204"
       y="62.720821"
       width="11.57422"
       height="11.12305"
       rx="3.5"
       id="rect73" />
    <path
       d="m 551.66622,66.22106 v 4.12305 h -4.574 v -4.12305 h 4.574 m 0,-7 h -4.574 a 7,7 0 0 0 -7,7 v 4.12305 a 7,7 0 0 0 7,7 h 4.574 a 7,7 0 0 0 7,-7 v -4.12305 a 7,7 0 0 0 -7,-7 z"
       fill="#ffffff"
       id="path75" />
    <path
       d="m 566.22585,99.35461 c -3.73633,0 -6.93847,-0.87207 -9.01562,-2.45606 -2.9375,-2.34863 -4.27637,-6.30762 -4.27637,-12.51074 0,-6.2002 1.33789,-10.16016 4.21094,-12.46 2.02148,-1.63574 5.167,-2.50684 9.08105,-2.50684 3.793,0 6.99414,0.88965 9.01465,2.50586 2.87793,2.30274 4.27735,6.37891 4.27735,12.46094 0,6.28027 -1.37989,10.25684 -4.34375,12.5127 -1.9521,1.56353 -5.15333,2.45414 -8.94825,2.45414 z m -0.5039,-10.1211 a 2.1826,2.1826 0 0 0 1.26562,0 c 0.12891,-0.26172 0.56934,-1.40429 0.56934,-4.8457 0,-3.43555 -0.43946,-4.58105 -0.57031,-4.8457 a 2.17933,2.17933 0 0 0 -1.26465,0 c -0.12989,0.26172 -0.57032,1.40625 -0.57032,4.8457 0,3.43066 0.4375,4.57619 0.57037,4.8457 z"
       id="path77" />
    <path
       d="m 566.22549,72.921 c 3.15667,0 5.54028,0.70862 6.82873,1.73938 1.28845,1.03076 2.96338,3.28552 2.96338,9.72766 0,6.44214 -1.61053,8.697 -2.96338,9.72766 -1.28845,1.03076 -3.73645,1.73938 -6.82873,1.73938 -3.15662,0 -5.54023,-0.70862 -6.89313,-1.73938 -1.28839,-1.0307 -2.89893,-3.28546 -2.89893,-9.72766 0,-6.4422 1.61054,-8.6969 2.89893,-9.72766 1.3529,-1.09516 3.73651,-1.73938 6.89313,-1.73938 m 0.12884,19.90624 a 4.1996,4.1996 0 0 0 3.28552,-1.28838 c 0.64423,-0.77308 1.4173,-2.3836 1.4173,-7.15082 0,-4.76722 -0.77307,-6.37774 -1.4173,-7.15076 a 4.83318,4.83318 0 0 0 -6.571,0 c -0.64423,0.77308 -1.4173,2.3836 -1.4173,7.15076 0,4.76716 0.77307,6.3778 1.4173,7.15082 a 4.19957,4.19957 0 0 0 3.28546,1.28838 M 566.22549,65.921 c -4.79254,0 -8.59351,1.1098 -11.29743,3.29858 -3.68707,2.9497 -5.49463,7.91956 -5.49463,15.16846 0,7.24906 1.80762,12.219 5.52607,15.19374 q 0.0647,0.05178 0.13061,0.102 c 2.72308,2.0747 6.57364,3.17132 11.13538,3.17132 4.54492,0 8.49347,-1.14217 11.13208,-3.21816 3.80841,-2.93936 5.66,-7.92854 5.66,-15.24888 0,-7.21438 -1.82867,-12.1843 -5.59054,-15.19376 -2.6767,-2.14138 -6.55018,-3.27328 -11.20157,-3.27328 z"
       fill="#ffffff"
       id="path79" />
    <path
       d="m 580.84889,99.16222 a 3.50049,3.50049 0 0 1 -3.5,-3.5 V 73.30773 a 3.49948,3.49948 0 0 1 3.43458,-3.499 l 10.25684,-0.19238 c 0.0918,-0.0039 0.26171,-0.0098 0.49414,-0.0098 1.70312,0 4.90722,0.27637 7.21972,2.12793 2.34571,1.78516 3.56836,4.62988 3.56836,8.40137 v 15.46189 a 3.50048,3.50048 0 0 1 -3.5,3.5 h -4.57324 a 3.50048,3.50048 0 0 1 -3.5,-3.5 V 80.52258 a 2.34582,2.34582 0 0 0 -0.11523,-0.874 2.76959,2.76959 0 0 0 -0.57618,-0.07031 l -1.08105,0.0459 -0.0537,16.0498 a 3.49988,3.49988 0 0 1 -3.5,3.48828 z"
       id="path81" />
    <path
       d="m 591.53411,73.10651 c 0.95261,0 3.48807,0.12378 5.034,1.36057 1.3529,1.03079 2.25476,2.77016 2.25476,5.66914 V 95.5974 H 594.249 V 80.52271 a 4.76845,4.76845 0 0 0 -1.03077,-3.28547 4.23206,4.23206 0 0 0 -3.22107,-1.15962 l -4.50952,0.1933 -0.0644,19.39094 h -4.574 V 73.30749 l 10.30749,-0.19325 c 0,0 0.1391,-0.0077 0.37735,-0.0077 m 0,-7 c -0.26773,0 -0.47378,0.0057 -0.60446,0.01076 l -10.21158,0.19144 a 7,7 0 0 0 -6.8688,6.99879 v 22.35436 a 7,7 0 0 0 7,7 h 4.574 a 6.97237,6.97237 0 0 0 4.45252,-1.59834 6.97067,6.97067 0 0 0 4.37323,1.53388 h 4.57391 a 7,7 0 0 0 7,-7 V 80.13622 c 0,-6.075 -2.67624,-9.43321 -4.94968,-11.189 -3.13888,-2.47025 -7.19259,-2.84073 -9.33911,-2.84073 z"
       fill="#ffffff"
       id="path83" />
    <path
       d="m 537.30007,99.09777 c -4.09277,0 -6.71,-2.6123 -7.17969,-5.19238 -0.0166,-0.09278 -0.0303,-0.18555 -0.0391,-0.27832 -0.0674,-0.67481 -0.2041,-2.76465 -0.2041,-2.76465 -0.005,-0.07617 -0.007,-0.14941 -0.007,-0.22559 V 69.05578 a 3.50049,3.50049 0 0 1 3.5,-3.5 h 4.50977 a 3.50048,3.50048 0 0 1 3.5,3.5 v 0.49414 h 1.65332 a 3.50048,3.50048 0 0 1 3.5,3.5 v 2.76953 a 3.50048,3.50048 0 0 1 -3.5,3.5 h -1.65332 v 9.25586 c 0,0.0049 10e-4,0.2959 0.0176,0.71484 0.29,-0.01269 0.49512,-0.02343 0.49512,-0.02343 0.0596,-0.0029 0.11914,-0.0039 0.17773,-0.0039 a 3.49657,3.49657 0 0 1 3.49707,3.5 v 2.77051 a 3.50085,3.50085 0 0 1 -3.45313,3.5 c 0,0 -4.79882,0.06445 -4.81445,0.06445 z"
       id="path85" />
    <path
       d="m 537.88,69.05567 v 3.99412 h 5.15368 v 2.77015 H 537.88 v 12.7555 a 24.0027,24.0027 0 0 0 0.19323,2.899 c 0.19324,1.28839 1.15955,1.35279 1.93262,1.35279 0.77307,0 2.06152,-0.0644 2.06152,-0.0644 V 95.533 l -4.76721,0.06437 c -2.64123,0 -3.6076,-1.61052 -3.73645,-2.31914 C 533.49932,92.634 533.37048,90.637 533.37048,90.637 V 69.05567 H 537.88 m 0,-7 h -4.50952 a 7,7 0 0 0 -7,7 V 90.637 q 0,0.22553 0.0145,0.45073 c 0.0229,0.354 0.14047,2.15679 0.21338,2.88652 q 0.028,0.27958 0.0783,0.55629 c 0.72894,4.00871 4.61212,8.06683 10.62353,8.06683 q 0.0472,0 0.0945,-6.4e-4 l 4.76721,-0.0644 a 7,7 0 0 0 6.90548,-6.99935 v -2.77019 a 7.00034,7.00034 0 0 0 -4.1874,-6.4098 v -3.77913 a 7.0028,7.0028 0 0 0 5.15368,-6.75394 V 73.04979 A 7.00172,7.00172 0 0 0 544.25283,66.1556 7.00126,7.00126 0 0 0 537.88,62.05567 Z"
       fill="#ffffff"
       id="path87" />
    <path
       d="m 441.69851,99.03332 a 24.2323,24.2323 0 0 1 -7.25537,-1.00977 c -3.30957,-1.32422 -5.26367,-4.77832 -5.26367,-9.25488 0,-3.77246 1.22265,-6.61621 3.63379,-8.45313 a 7.64242,7.64242 0 0 1 1.33251,-0.85156 3.50169,3.50169 0 0 1 -2.06738,-3.19336 v -3.02734 a 3.5006,3.5006 0 0 1 3.40723,-3.499 l 7.273,-0.19336 c -0.004,0 0.11474,-0.0039 0.312,-0.0039 1.72461,0 4.96973,0.26953 7.32812,2.07812 2.43018,1.96582 3.62549,4.78907 3.62549,8.44629 V 95.34 a 3.49984,3.49984 0 0 1 -3.42334,3.499 c 0,0 -8.877,0.19432 -8.90238,0.19432 z m -0.58838,-9.81543 a 9.23784,9.23784 0 0 0 1.36914,0.10449 l -0.0161,-1.499 h -0.8291 a 4.19791,4.19791 0 0 0 -0.52539,0.02734 4.183,4.183 0 0 0 -0.0332,0.5957 7.14037,7.14037 0 0 0 0.0347,0.77147 z"
       id="path89" />
    <path
       d="m 443.07064,73.047 c 0.78426,0 3.55246,0.09357 5.19873,1.35567 1.35283,1.09522 2.25476,2.77016 2.25476,5.66914 v 15.2679 l -8.8258,0.19324 a 22.32082,22.32082 0 0 1 -5.99123,-0.77308 c -1.93259,-0.77306 -3.02782,-2.96338 -3.02782,-5.9912 0,-2.899 0.90193,-4.63836 2.25476,-5.66906 1.54613,-1.23691 4.08167,-1.3606 5.03411,-1.36059 0.23813,0 0.37733,0.0077 0.37733,0.0077 h 2.83458 v 2.57684 h -1.54613 a 3.76933,3.76933 0 0 0 -3.09222,1.09522 4.06664,4.06664 0 0 0 -0.96637,3.02778 c 0,1.99706 0.38652,2.96344 1.35291,3.6076 0.83746,0.64422 2.31916,0.77308 4.05854,0.77308 L 446.01461,92.634 445.88577,80.52266 A 4.76826,4.76826 0 0 0 444.855,77.2372 4.232,4.232 0 0 0 441.63393,76.0776 l -6.05566,0.1933 v -3.02784 l 7.27966,-0.1933 c 0,0 0.0763,-0.0028 0.21271,-0.0028 m 0,-7 c -0.22313,0 -0.37363,0.0041 -0.43719,0.0063 l -7.241,0.19227 a 7,7 0 0 0 -6.81419,6.99754 v 3.02784 a 6.99836,6.99836 0 0 0 0.53978,2.69547 13.92456,13.92456 0 0 0 -3.43877,9.80227 c 0,5.96064 2.77684,10.63 7.428,12.49052 l 0.0728,0.0286 a 26.521,26.521 0 0 0 8.51822,1.24512 q 0.0766,0 0.15322,-0.002 l 8.8258,-0.19324 a 7,7 0 0 0 6.84678,-6.99832 V 80.07177 c 0,-4.76638 -1.63185,-8.50424 -4.85022,-11.10972 q -0.072,-0.05832 -0.14558,-0.11472 c -3.17821,-2.43654 -7.28972,-2.80036 -9.45769,-2.80036 z"
       fill="#ffffff"
       id="path91" />
    <path
       d="m 519.13308,99.03332 a 24.2323,24.2323 0 0 1 -7.25537,-1.00977 c -3.30957,-1.32422 -5.26367,-4.77832 -5.26367,-9.25488 0,-3.77344 1.22265,-6.61719 3.63427,-8.45313 a 7.74186,7.74186 0 0 1 1.3628,-0.86718 3.5004,3.5004 0 0 1 -2.03369,-3.17774 v -3.02734 a 3.5006,3.5006 0 0 1 3.40722,-3.499 l 7.27344,-0.19336 c -0.004,0 0.11475,-0.0039 0.312,-0.0039 1.73438,0 4.99072,0.27441 7.30908,2.11328 2.38477,1.93164 3.58008,4.75391 3.58008,8.41113 V 95.34 a 3.49984,3.49984 0 0 1 -3.42334,3.499 c 0,0 -8.87743,0.19432 -8.90282,0.19432 z m -0.65332,-9.82129 a 9.21835,9.21835 0 0 0 1.40527,0.11035 v -1.499 h -0.88086 a 4.198,4.198 0 0 0 -0.52539,0.02734 4.17261,4.17261 0 0 0 -0.0332,0.5957 7.21367,7.21367 0 0 0 0.0342,0.76558 z"
       id="path93" />
    <path
       d="m 520.56976,73.047 c 0.78305,0 3.54312,0.09357 5.13449,1.35567 1.35284,1.09522 2.25476,2.77016 2.25476,5.66914 v 15.2679 l -8.82575,0.19324 a 22.32063,22.32063 0 0 1 -5.99121,-0.77308 c -1.93268,-0.77306 -3.02783,-2.96338 -3.02783,-5.9912 0,-2.899 0.90192,-4.63836 2.25476,-5.66906 1.54605,-1.23691 4.08163,-1.3606 5.03409,-1.36059 0.23813,0 0.37735,0.0077 0.37735,0.0077 h 2.83458 v 2.57684 h -1.61053 a 3.76954,3.76954 0 0 0 -3.09229,1.09522 4.06667,4.06667 0 0 0 -0.96631,3.02778 c 0,1.99706 0.38654,2.96344 1.35285,3.6076 0.83752,0.64422 2.3836,0.77308 4.05859,0.77308 L 523.38514,92.634 V 80.52269 a 4.76826,4.76826 0 0 0 -1.03076,-3.28546 4.3258,4.3258 0 0 0 -3.22107,-1.1596 l -6.05566,0.1933 v -3.02784 l 7.27966,-0.1933 c 0,0 0.0763,-0.0028 0.2125,-0.0028 m 0,-7 c -0.22287,0 -0.37336,0.0041 -0.43692,0.0063 l -7.241,0.19227 a 7,7 0 0 0 -6.81421,6.99754 v 3.02784 a 6.9975,6.9975 0 0 0 0.5199,2.64729 13.90338,13.90338 0 0 0 -3.48328,9.85045 c 0,5.9607 2.77689,10.63008 7.42813,12.49056 l 0.0727,0.0286 a 26.52048,26.52048 0 0 0 8.51822,1.24514 q 0.0766,0 0.1532,-0.002 l 8.82578,-0.19324 a 7,7 0 0 0 6.84677,-6.99832 V 80.07177 c 0,-4.76638 -1.63184,-8.50424 -4.85022,-11.10972 l -0.0548,-0.044 c -3.14987,-2.49812 -7.29416,-2.87112 -9.48419,-2.87112 z"
       fill="#ffffff"
       id="path95" />
    <g
       id="g4209">
      <g
         id="g4783">
        <path
           id="path97"
           d="m 503.06927,19.36516 -0.0526,47.09263 -12.62819,-4.10415 V 7.00006 l 16.10094,4.262 c 10.313,2.78872 16.62712,8.1557 16.52189,17.57423 -0.10524,10.997 -5.15652,15.41691 -15.10122,12.52295 V 19.68086 c 0.0526,-2.57824 -4.8408,-2.7361 -4.8408,-0.3157 z"
           fill="#de1528" />
        <path
           id="path99"
           d="m 484.60054,53.19819 -5.94578,1.99945 c -3.84107,1.31544 -7.156,-1.789 -3.578,-3.10442 l 2.894,-0.99973 -10.8392,-3.42014 c -3.3149,1.105 -6.47195,3.52538 -6.26148,6.94551 0.21047,3.42013 8.05047,4.262 14.10148,5.20913 a 30.80935,30.80935 0 0 0 15.46953,-1.2102 v -3.52537 l -5.84053,-1.89423 z m 18.52134,13.2596 11.04967,-3.84106 -11.1549,-3.52538 v 7.156 l 0.10523,0.21046 z"
           fill="#f4cb0e" />
        <path
           id="path16"
           d="m 532.48243,56.14477 0.21047,-0.05262 c 4.84081,-1.68377 6.89289,-4.05155 6.36671,-6.26148 -0.84188,-3.68322 -6.735,-5.68268 -15.78524,-6.36671 -6.52456,-0.47356 -12.94389,0.99972 -19.20537,3.10442 l -0.99973,0.36833 11.26013,3.47276 6.57719,-2.20994 c 6.89288,-1.26282 9.629,0.99973 3.05181,3.10442 l -3.26228,1.105 11.78631,3.73585 z m -42.094,-16.31142 -4.99866,1.68377 4.99866,1.5259 z"
           fill="#4177b3" />
        <path
           id="path102"
           d="M 514.17155,62.61673 532.48243,56.14478 520.59088,52.46156 503.06926,58.46 v 0.63141 l 11.10229,3.52537 z m -23.78309,-11.36538 -5.78792,1.94685 5.78792,1.84161 z m 12.62819,3.05181 v -7.31383 l 11.26014,3.47276 z M 477.91812,51.09349 490.38846,46.621 v -3.578 l -4.99866,-1.5259 -18.0478,6.10365 a 2.27875,2.27875 0 0 1 -0.26309,0.05262 l 10.8392,3.42012 z"
           fill="#1ba0a5" />
      </g>
    </g>
    <g
       id="g4781">
      <path
         id="path3003"
         d="m 401.1771,66.22109 v 29.44073 h 4.5739 V 69.05566 h 4.25183 c 0,0 3.09225,0 4.123,1.35284 0.9019,1.15958 1.09516,3.28549 1.09516,4.76722 0,1.54614 -0.12884,3.92971 -0.64421,4.76722 a 3.37772,3.37772 0 0 1 -3.22109,1.61054 h -2.83456 v 2.64128 h 4.05857 c 0,0 3.672,0.12885 5.21816,-1.41729 1.93265,-1.93265 2.3836,-4.57392 2.3836,-8.11712 0,-3.22108 -1.15959,-6.44217 -3.54319,-7.53734 a 16.58094,16.58094 0 0 0 -5.47585,-0.90192 h -9.98532" />
      <path
         id="path3005"
         d="m 423.85355,95.66182 h 4.57394 V 66.22109 h -4.57394 z" />
      <path
         id="path3007"
         d="m 452.90773,73.11422 8.43927,22.03223 -4.83163,11.85361 h 3.80088 l 13.91509,-33.8858 h -4.25184 l -6.05565,16.49194 -5.60469,-16.49194 h -5.41143" />
      <path
         id="path3009"
         d="m 477.64567,95.46856 v -2.77013 c 0,0 4.83163,0.19326 5.86238,0.19326 2.25476,0 3.34993,-0.451 4.18741,-1.35284 0.51538,-0.51537 0.96633,-2.96338 0.96633,-3.8009 a 12.62724,12.62724 0 0 0 -0.51538,-3.47878 2.88788,2.88788 0 0 0 -2.31918,-1.54614 c -0.83749,-0.06441 -2.12592,-0.2577 -3.672,-0.32211 a 5.95312,5.95312 0 0 1 -4.18741,-1.99706 c -0.64422,-0.77307 -1.54612,-1.99705 -1.54612,-5.6691 0,-3.67205 0.96633,-5.73355 1.93266,-6.69987 a 6.31555,6.31555 0 0 1 3.41435,-1.54614 26.6611,26.6611 0 0 1 3.22108,-0.19326 l 6.44217,0.19326 v 2.77013 c 0,0 -4.70278,-0.19326 -5.73352,-0.19326 -2.25476,0 -2.899,0.451 -3.73646,1.35284 a 5.16224,5.16224 0 0 0 -0.9019,2.899 11.67868,11.67868 0 0 0 0.45095,3.34993 2.7891,2.7891 0 0 0 2.31918,1.54614 c 0.83748,0.0644 2.12592,0.2577 3.672,0.32211 a 5.95318,5.95318 0 0 1 4.18741,1.99705 c 0.64421,0.77307 1.54611,2.51247 1.54611,6.12007 0,3.672 -0.96632,6.31332 -1.93265,7.27964 a 6.31555,6.31555 0 0 1 -3.41435,1.54614 c -1.224,0.19326 -3.22109,0.2577 -3.22109,0.2577 l -7.022,-0.25766" />
      <path
         id="path3011"
         d="m 502.70571,69.05566 h -4.57394 v 21.58127 c 0,0 0.12884,1.99706 0.19327,2.64127 0.12884,0.70863 1.09516,2.31917 3.73646,2.31917 l 4.7672,-0.06441 v -2.77012 c 0,0 -1.28844,0.0644 -2.06149,0.0644 -0.77305,0 -1.73939,-0.0644 -1.93266,-1.35284 a 23.99891,23.99891 0 0 1 -0.19326,-2.899 V 75.81994 h 5.21816 v -2.77013 h -5.21816 l 0.0644,-3.99415" />
      <path
         id="path3013"
         d="m 547.09228,95.66182 h 4.57394 v -22.5476 h -4.57394 z" />
      <path
         id="path3015"
         d="m 547.09228,70.34409 h 4.57394 v -4.123 h -4.57394 z" />
      <path
         id="path3017"
         d="m 566.22551,72.921 c 3.15666,0 5.54027,0.70862 6.82871,1.73939 1.28844,1.03077 2.9634,3.2855 2.9634,9.72767 0,6.44217 -1.61054,8.69693 -2.9634,9.72766 -1.28844,1.03073 -3.73646,1.73939 -6.82871,1.73939 -3.15666,0 -5.54027,-0.70862 -6.89313,-1.73939 -1.28843,-1.03073 -2.899,-3.28549 -2.899,-9.72766 0,-6.44217 1.61055,-8.69693 2.899,-9.72767 1.35288,-1.09521 3.73647,-1.73939 6.89313,-1.73939 z m -3.15666,4.31626 c -0.64422,0.77307 -1.41728,2.38361 -1.41728,7.1508 0,4.76719 0.77306,6.37776 1.41728,7.15079 a 4.83326,4.83326 0 0 0 6.571,0 c 0.64422,-0.77307 1.41729,-2.38361 1.41729,-7.15079 0,-4.76718 -0.77307,-6.37777 -1.41729,-7.1508 a 4.83326,4.83326 0 0 0 -6.571,0" />
      <path
         id="path3019"
         d="m 585.48762,76.2709 4.50952,-0.19326 a 4.232,4.232 0 0 1 3.22108,1.15958 4.76858,4.76858 0 0 1 1.03075,3.28549 v 15.0747 h 4.57395 V 80.1362 c 0,-2.899 -0.9019,-4.63837 -2.25476,-5.6691 -1.93265,-1.54614 -5.41142,-1.35284 -5.41142,-1.35284 l -10.30747,0.19325 v 22.35434 h 4.57394 l 0.0644,-19.391" />
      <path
         id="path3021"
         d="m 537.94439,69.05566 h -4.57395 v 21.58127 c 0,0 0.12885,1.99706 0.19326,2.64127 0.12885,0.70863 1.09517,2.31917 3.73645,2.31917 l 4.7672,-0.06441 v -2.77012 c 0,0 -1.28843,0.0644 -2.0615,0.0644 -0.77307,0 -1.7394,-0.0644 -1.93265,-1.35284 a 23.99891,23.99891 0 0 1 -0.19326,-2.899 V 75.81994 h 5.15374 v -2.77013 h -5.15374 v -3.99415" />
      <path
         id="path3023"
         d="m 445.88577,80.52271 a 4.76848,4.76848 0 0 0 -1.03075,-3.28549 4.232,4.232 0 0 0 -3.22109,-1.15958 l -6.05564,0.19326 v -3.02783 l 7.27965,-0.19326 c 0,0 3.47877,-0.12885 5.41142,1.35284 1.35286,1.09518 2.25476,2.77013 2.25476,5.6691 v 15.268 l -8.82577,0.19325 a 22.32123,22.32123 0 0 1 -5.99122,-0.77306 c -1.93265,-0.77307 -3.02782,-2.96339 -3.02782,-5.99122 0,-2.899 0.9019,-4.63837 2.25476,-5.6691 1.93265,-1.54613 5.41142,-1.35284 5.41142,-1.35284 h 2.83456 v 2.57687 h -1.54612 a 3.76957,3.76957 0 0 0 -3.09224,1.09518 4.06679,4.06679 0 0 0 -0.96633,3.02783 c 0,1.99705 0.38653,2.96338 1.35286,3.6076 0.83748,0.64421 2.31918,0.77306 4.05856,0.77306 l 3.02782,-0.19325 -0.12883,-12.11132" />
      <path
         id="path3025"
         d="m 523.38508,80.52271 a 4.76843,4.76843 0 0 0 -1.03076,-3.28549 4.32565,4.32565 0 0 0 -3.22108,-1.15958 l -6.05564,0.19326 v -3.02783 l 7.27966,-0.19326 c 0,0 3.47878,-0.12885 5.347,1.35284 1.35286,1.09518 2.25476,2.77013 2.25476,5.6691 v 15.268 l -8.82577,0.19325 a 22.32123,22.32123 0 0 1 -5.99122,-0.77306 c -1.93265,-0.77307 -3.02782,-2.96339 -3.02782,-5.99122 0,-2.899 0.9019,-4.63837 2.25476,-5.6691 1.93265,-1.54613 5.41142,-1.35284 5.41142,-1.35284 h 2.83455 v 2.57687 h -1.61054 a 3.76959,3.76959 0 0 0 -3.09225,1.09518 4.06683,4.06683 0 0 0 -0.96632,3.02783 c 0,1.99705 0.38653,2.96338 1.35286,3.6076 0.83748,0.64421 2.3836,0.77306 4.05857,0.77306 l 3.02782,-0.19325 V 80.52271" />
    </g>
  </g>
  <metadata
     id="metadata941">
    <rdf:RDF>
      <cc:Work
         rdf:about="">
        <dc:title>logo</dc:title>
      </cc:Work>
    </rdf:RDF>
  </metadata>
</svg>
