<?xml version="1.0" encoding="UTF-8" standalone="no"?>
<svg
   viewBox="0 0 434.01001 114.05"
   version="1.1"
   id="svg34"
   sodipodi:docname="samcoupe.svg"
   width="434.01001"
   height="114.05"
   inkscape:version="1.1 (c68e22c387, 2021-05-23)"
   xmlns:inkscape="http://www.inkscape.org/namespaces/inkscape"
   xmlns:sodipodi="http://sodipodi.sourceforge.net/DTD/sodipodi-0.dtd"
   xmlns="http://www.w3.org/2000/svg"
   xmlns:svg="http://www.w3.org/2000/svg"
   xmlns:rdf="http://www.w3.org/1999/02/22-rdf-syntax-ns#"
   xmlns:cc="http://creativecommons.org/ns#"
   xmlns:dc="http://purl.org/dc/elements/1.1/">
  <defs
     id="defs38" />
  <sodipodi:namedview
     id="namedview36"
     pagecolor="#ffffff"
     bordercolor="#666666"
     borderopacity="1.0"
     inkscape:pageshadow="2"
     inkscape:pageopacity="0.0"
     inkscape:pagecheckerboard="0"
     showgrid="false"
     fit-margin-top="0"
     fit-margin-left="0"
     fit-margin-right="0"
     fit-margin-bottom="0"
     inkscape:zoom="1.113"
     inkscape:cx="216.98113"
     inkscape:cy="56.603774"
     inkscape:window-width="1920"
     inkscape:window-height="1138"
     inkscape:window-x="-8"
     inkscape:window-y="-8"
     inkscape:window-maximized="1"
     inkscape:current-layer="svg34" />
  <title
     id="title2">logo</title>
  <g
     id="g873">
    <g
       id="Layer_2"
       data-name="Layer 2"
       transform="translate(-283)">
      <rect
         x="328.45001"
         y="38.740002"
         width="24"
         height="19.08"
         fill="#ffffff"
         id="rect4" />
      <rect
         x="312.45001"
         y="76.339996"
         width="18.219999"
         height="7.5599999"
         fill="#ffffff"
         id="rect6" />
      <rect
         x="312.45001"
         y="26.18"
         width="13.56"
         height="19.17"
         fill="#ffffff"
         id="rect8" />
      <rect
         x="309.01001"
         y="66.269997"
         width="21.67"
         height="27.74"
         fill="#ffffff"
         id="rect10" />
    </g>
    <g
       id="Layer_1"
       data-name="Layer 1"
       transform="translate(-283)">
      <path
         d="m 317.55,9.14 c 9,0 17.94,3.92 22.35,9.79 6.6,8.81 4.4,19.81 4.4,19.81 h -17.61 c 0,-5.87 -2.94,-9.54 -8.08,-9.54 -5.14,0 -6.6,3.67 -6.6,8.08 0,4.41 3.67,8.07 17.61,14.68 13.94,6.61 16.88,15.41 16.88,26.42 0,11.01 -8.8,28.62 -28.62,28.62 C 298.06,107 290,94.52 290,76.17 h 17.62 c 0,7.34 3.66,11 9.54,11 5.88,0 8.07,-4.4 8.07,-8.07 0,-3.67 0.59,-5.58 -20.55,-16.15 -13.21,-6.6 -13.95,-21.28 -13.95,-25.68 0,-4.4 2.21,-18.35 13.95,-25 a 26.24,26.24 0 0 1 12.88,-3.18 m 0,-7 a 33.25,33.25 0 0 0 -16.31,4.08 c -13.86,7.83 -17.53,23.77 -17.53,31.11 0,6.91 1.73,23.84 17.72,31.89 H 290 a 7,7 0 0 0 -7,7 c 0,24 12.72,37.83 34.89,37.83 24.3,0 35.62,-21.26 35.62,-35.62 0,-10.6 -2.35,-23.87 -20.64,-32.64 h 11.43 a 7,7 0 0 0 6.87,-5.62 C 351.28,39.54 353.89,25.91 345.5,14.73 339.76,7.08 328.8,2.14 317.55,2.14 Z M 319,37.27 a 9.15,9.15 0 0 1 0.05,-1 h 0.16 a 3.9,3.9 0 0 1 0.45,1.81 3.12,3.12 0 0 1 -0.66,-0.81 z m -1.86,42.91 c -1.41,0 -2.52,0 -2.54,-3.9 a 23.93,23.93 0 0 1 3.61,2.56 v 0.27 a 1.81,1.81 0 0 1 -0.24,1 v 0 a 2.28,2.28 0 0 1 -0.83,0.11 z"
         fill="#ffffff"
         id="path13" />
      <path
         d="M 429.44,9.39 463.93,63 V 10.12 h 21.29 l 61.65,96.15 h -28.63 l -30.82,-47 V 107 H 463.2 L 432.37,59.29 v 47 h -27.15 l -8.81,-14 H 375.13 V 107 h -24.22 l -0.74,-96.88 h 22 l 36,55.05 V 9.39 h 21.29 m -54.33,63.85 h 9.54 L 375.13,59.29 V 73.24 M 429.44,2.39 h -21.29 a 7,7 0 0 0 -7,7 V 41.65 L 378.05,6.29 a 7,7 0 0 0 -5.86,-3.17 h -22 a 7,7 0 0 0 -7,7.05 l 0.74,96.88 a 7,7 0 0 0 7,7 h 24.22 a 7,7 0 0 0 7,-7 v -7.73 h 10.42 L 399.3,110 a 7,7 0 0 0 5.92,3.27 h 27.15 a 7,7 0 0 0 7,-7 V 83 l 17.95,27.77 a 7,7 0 0 0 5.88,3.2 h 24.22 a 7,7 0 0 0 7,-7 V 82.72 l 18,27.39 a 7,7 0 0 0 5.85,3.16 h 28.63 a 7,7 0 0 0 5.89,-10.78 L 491.11,6.34 a 7,7 0 0 0 -5.89,-3.22 h -21.29 a 7,7 0 0 0 -7,7 v 29 L 435.32,5.6 a 7,7 0 0 0 -5.88,-3.21 z"
         fill="#ffffff"
         id="path15" />
      <path
         d="M 612.92,10.12 584.3,55.63 a 5.87,5.87 0 0 0 -2.83,-0.62 c -3,0 -8.09,1.72 -14.05,10.89 -9.54,14.68 -5.14,20.55 -4.41,22.75 -2.93,5.14 -11.74,16.88 -11.74,16.88 L 490.35,10.12 h 122.57 m 0,-7 H 490.35 a 7,7 0 0 0 -5.9,10.77 l 60.92,95.41 a 7,7 0 0 0 5.64,3.23 h 0.26 a 7,7 0 0 0 5.6,-2.8 c 0.93,-1.24 9.16,-12.24 12.22,-17.61 a 7,7 0 0 0 0.56,-5.68 c -0.17,-0.52 -0.37,-1 -0.54,-1.39 -0.7,-1.6 -2.32,-5.35 4.18,-15.33 3.9,-6 7,-7.66 8.13,-7.71 a 7,7 0 0 0 8.8,-2.66 l 28.63,-45.5 A 7,7 0 0 0 612.92,3.12 Z m 0,14 z"
         fill="#ffffff"
         id="path17" />
      <path
         d="m 701,27.35 c 2.35,0 3.83,1.45 3.26,4.75 -1,5.62 -3.79,9.66 -14.43,16.75 0.61,3.58 3.09,5.11 5.57,5.11 a 6.33,6.33 0 0 0 2.87,-0.7 c 3.05,-1.59 7.58,-5.87 11.74,-12.48 -0.61,2.81 -4.41,14.07 -11.62,18.1 a 13.65,13.65 0 0 1 -6.5,2 c -3.54,0 -6,-2.35 -7.69,-6.44 -3.43,4.53 -6.24,8.93 -11,12.35 a 10.78,10.78 0 0 1 -6.39,2.34 20.85,20.85 0 0 1 -2.42,-0.26 c -0.85,0 -1.83,0.37 -6.48,1.72 -0.61,9.66 -2.57,20.54 -4.77,20.54 -2.2,0 -3.3,-7.58 -2.69,-12.72 0.61,-5.14 3.3,-11.37 7,-29.11 -7.95,14.56 -15.16,27.77 -19.81,27.89 h -0.17 c -4.47,0 -4.11,-4.85 -4.11,-11.25 -2.33,5 -6.12,12.35 -9.06,13 a 3,3 0 0 1 -0.68,0.07 c -3,0 -7.14,-3.42 -7,-7 -1.81,3.49 -5.87,7.22 -8.79,7.22 h -0.14 c -2,4.4 -6.85,8.19 -9.91,8.19 -3.06,0 -7.22,-2.32 -8.68,-7.83 -3.9,7.27 -8.89,14.08 -14.18,14.08 -2,0 -4.07,-1 -6.13,-3.31 -7.46,-8.44 -1.59,-18 1.84,-22.87 3.13,-4.48 8.2,-7.93 10.64,-7.93 a 1.66,1.66 0 0 1 0.61,0.1 c 2.08,0.73 2.57,2.81 1.71,7 -0.86,4.19 -3.18,6.85 -3.91,6.85 h -0.28 a 2.3,2.3 0 0 1 -2.41,-1.71 c -2.08,1 -6.36,5.5 -6.61,8.8 -0.25,3.3 1.72,6.36 5.14,6.36 3.42,0 9.91,-5.74 12.48,-10.27 0.73,-14.8 12.35,-21.41 15.16,-21.89 a 5.9,5.9 0 0 1 1.06,-0.1 c 2.11,0 3.11,1.35 2.37,3.89 a 2.77,2.77 0 0 1 1.23,-0.33 c 3.8,0 2.59,11.44 1.58,16.35 2.82,-1 5.14,-3.43 7,-7.22 1.95,-13.25 7.28,-17.43 10.33,-17.43 a 2.61,2.61 0 0 1 1,0.19 c 2.69,1.1 0.12,5.13 -1.1,7.09 -1.22,1.96 -3.79,5.87 -4.77,9.66 -0.66,2.57 0.24,3.56 1.27,3.56 a 2.09,2.09 0 0 0 1.42,-0.62 62.92,62.92 0 0 0 7.22,-10.15 c 2.69,-4.65 8.19,-15.17 9.9,-16.27 a 1,1 0 0 1 0.53,-0.17 c 1.47,0 2.56,3.88 1.8,6.29 -0.86,2.69 -4.77,7.58 -5,13.69 -0.13,3.41 0.83,4.61 2,4.61 A 4.43,4.43 0 0 0 644,66 91.92,91.92 0 0 0 656.47,44.71 c 4,-10 7.1,-15.53 9.42,-16.14 a 3.23,3.23 0 0 1 0.8,-0.12 c 1.48,0 1.31,1.63 0.67,3.54 -0.73,2.21 -4.53,10.28 -5.5,19.33 6.56,-9.93 10.73,-13.32 13.05,-13.32 1.2,0 1.9,0.9 2.2,2.28 0.85,4 -0.37,9.54 -6.49,20.92 H 671 c 5.18,0 8.53,-5.38 11.76,-10 0.25,-10.4 7.22,-18.6 12.36,-21.78 a 12,12 0 0 1 5.91,-2 m -11.54,18 c 1.34,-0.49 6.48,-5.26 8.81,-8.57 1.79,-2.54 1.62,-4.8 0.38,-4.8 a 2.25,2.25 0 0 0 -1.36,0.65 c -2.33,1.95 -7.22,6.23 -7.83,12.72 M 661,62.06 c 3.06,-0.73 5.51,-1 7,-3.91 1.49,-2.91 4.77,-11 2.2,-11 -2.57,0 -7.89,7.85 -9.2,14.91 m -62.87,19.7 c 1.47,0 4.77,-1.35 5,-6.12 a 0.68,0.68 0 0 1 -0.34,0.11 c -0.8,0 -1.32,-2 -0.89,-6.1 0.43,-4.1 1.81,-7.57 1.16,-7.57 -0.12,0 -0.29,0.11 -0.55,0.35 -4.4,4.28 -8.56,9.79 -8.56,14.43 0,4.64 2.69,4.9 4.16,4.9 M 710,40.78 v 0 m -9,-20.43 v 0 a 19,19 0 0 0 -9.6,3.1 33.66,33.66 0 0 0 -10.14,10.18 8.75,8.75 0 0 0 -6.35,-2.63 h -0.2 a 8.75,8.75 0 0 0 -1.47,-6.28 8,8 0 0 0 -6.59,-3.3 10.25,10.25 0 0 0 -2.58,0.35 c -5,1.3 -8.51,6.38 -14,20.06 a 11.4,11.4 0 0 0 -1.21,-2.14 8.26,8.26 0 0 0 -6.67,-3.52 7.93,7.93 0 0 0 -4.31,1.28 c -1.69,1.08 -3.1,2.83 -5.67,7.14 a 9.28,9.28 0 0 0 -1.84,-1 9.69,9.69 0 0 0 -3.68,-0.71 c -4.58,0 -9.79,2.88 -13.44,10.24 a 2.42,2.42 0 0 0 -0.36,-0.27 9,9 0 0 0 -0.92,-1.55 9.41,9.41 0 0 0 -7.78,-3.68 12.81,12.81 0 0 0 -2.26,0.2 c -3.43,0.6 -8.67,3.5 -13,8.57 a 9.82,9.82 0 0 0 -4.7,-3.38 8.77,8.77 0 0 0 -2.94,-0.5 c -5.74,0 -12.58,5.49 -16.38,10.91 a 37.62,37.62 0 0 0 -6.07,12.5 20.47,20.47 0 0 0 4.73,19 c 4.15,4.7 8.47,5.68 11.37,5.68 6.07,0 10.91,-4 14.69,-8.82 a 15.09,15.09 0 0 0 8.17,2.57 c 5.45,0 11.11,-4.27 14.44,-9.07 a 16.59,16.59 0 0 0 3.6,-2 13.75,13.75 0 0 0 7.74,2.72 10.49,10.49 0 0 0 2.11,-0.21 11.16,11.16 0 0 0 5.69,-3.32 10.61,10.61 0 0 0 6,1.75 h 0.35 a 10.57,10.57 0 0 0 5.53,-1.79 c 0.07,4 0.76,9.63 3.66,12.89 a 8.18,8.18 0 0 0 6.16,2.84 c 7.22,0 9,-8.53 9.83,-12.18 a 96.35,96.35 0 0 0 1.51,-10 15.84,15.84 0 0 0 2.33,0.17 17.84,17.84 0 0 0 10.47,-3.65 38,38 0 0 0 7.14,-6.77 13.77,13.77 0 0 0 7.48,2.17 20.12,20.12 0 0 0 9.96,-2.9 c 10,-5.6 14.13,-19.24 14.91,-22.17 a 7.19,7.19 0 0 0 0.3,-2 7,7 0 0 0 -6,-6.92 c 0,-0.19 0.07,-0.38 0.11,-0.56 0.81,-4.7 -0.72,-7.71 -2.15,-9.41 a 10.23,10.23 0 0 0 -8,-3.54 z m -8.28,12.08 z"
         fill="#ffffff"
         id="path19" />
      <path
         d="m 703.72,7 c 1.62,0 2.38,1.79 2.38,4.55 0,2.93 0,3.91 -2.08,5.5 -2.08,1.59 -8.93,6.48 -10,7.59 -0.78,0.78 -2.86,2.91 -4,2.91 -0.45,0 -0.74,-0.36 -0.7,-1.32 a 18.71,18.71 0 0 1 4.52,-10.52 c 2.82,-3.31 7.71,-8.44 9.54,-8.69 h 0.32 m 0,-7 a 10.32,10.32 0 0 0 -1.24,0.08 c -1.65,0.22 -5.08,0.68 -14,11.09 a 25.82,25.82 0 0 0 -6.12,14.81 8.31,8.31 0 0 0 2.22,6.28 7.57,7.57 0 0 0 5.44,2.27 c 3.64,0 6.34,-2.4 8.78,-4.85 v -0.05 c 0.82,-0.72 4.31,-3.28 6.2,-4.67 1.33,-1 2.48,-1.82 3.2,-2.37 4.83,-3.69 4.83,-7.61 4.83,-11.06 C 713.1,2.43 707.2,0 703.72,0 Z"
         fill="#ffffff"
         id="path21" />
      <path
         d="m 326.69,38.74 c 0,-5.87 -2.94,-9.54 -8.08,-9.54 -5.14,0 -6.6,3.67 -6.6,8.08 0,4.41 3.67,8.07 17.61,14.68 13.94,6.61 16.88,15.41 16.88,26.42 0,11.01 -8.8,28.62 -28.62,28.62 C 298.06,107 290,94.52 290,76.17 h 17.62 c 0,7.34 3.66,11 9.54,11 5.88,0 8.07,-4.4 8.07,-8.07 0,-3.67 0.59,-5.58 -20.55,-16.15 -13.21,-6.6 -13.95,-21.28 -13.95,-25.68 0,-4.4 2.21,-18.35 13.95,-25 11.74,-6.65 28.62,-2.2 35.23,6.61 6.61,8.81 4.4,19.81 4.4,19.81 z"
         fill="#0849ff"
         id="path23" />
      <path
         d="M 485.22,10.12 H 463.93 V 63 L 429.44,9.39 h -21.29 v 55.78 l -36,-55 h -22 l 0.74,96.88 h 24.22 V 92.32 h 21.28 l 8.81,14 h 27.15 v -47 L 463.2,107 h 24.22 V 59.29 l 30.82,47 h 28.63 z M 375.13,73.24 V 59.29 l 9.54,13.95 z"
         fill="#0849ff"
         id="path25" />
      <path
         d="M 551.27,105.53 490.35,10.12 H 612.92 L 584.3,55.63 c 0,0 -7.3,-4.41 -16.88,10.27 -9.58,14.68 -5.14,20.55 -4.42,22.75 -2.92,5.14 -11.73,16.88 -11.73,16.88 z"
         fill="#0849ff"
         id="path27" />
      <path
         d="m 698.27,53.26 c -3.06,1.59 -7.59,0.61 -8.44,-4.41 10.64,-7.09 13.45,-11.13 14.43,-16.75 0.98,-5.62 -4,-5.88 -9.17,-2.7 -5.17,3.18 -12.09,11.38 -12.36,21.78 -3.3,4.77 -6.73,10.27 -12.11,10 6.12,-11.38 7.34,-16.88 6.49,-20.92 -0.85,-4.04 -5.26,-4 -15.29,11 1,-9 4.77,-17.12 5.5,-19.33 0.73,-2.21 0.86,-4 -1.47,-3.42 -2.33,0.58 -5.38,6.11 -9.42,16.14 A 91.92,91.92 0 0 1 644,66 c -2,2.32 -5.26,3.3 -5,-2.82 0.26,-6.12 4.16,-11 5,-13.69 0.84,-2.69 -0.61,-7.22 -2.33,-6.12 -1.72,1.1 -7.21,11.62 -9.9,16.27 a 62.92,62.92 0 0 1 -7.22,10.15 c -1.22,1.22 -3.67,0.86 -2.69,-2.94 0.98,-3.8 3.54,-7.7 4.77,-9.66 1.23,-1.96 3.79,-6 1.1,-7.09 -2.69,-1.09 -9.17,2.32 -11.37,17.24 -1.84,3.79 -4.16,6.24 -7,7.22 1.1,-5.38 2.45,-18.59 -2.81,-16 0.86,-2.94 -0.61,-4.28 -3.43,-3.79 -2.82,0.49 -14.43,7.09 -15.16,21.89 -2.57,4.53 -9.06,10.27 -12.48,10.27 -3.42,0 -5.38,-3 -5.14,-6.36 0.24,-3.36 4.53,-7.82 6.61,-8.8 a 2.39,2.39 0 0 0 2.69,1.71 c 0.73,0 3.06,-2.69 3.91,-6.85 0.85,-4.16 0.37,-6.24 -1.71,-7 -2.08,-0.76 -7.83,2.93 -11.25,7.83 -3.42,4.9 -9.3,14.43 -1.84,22.87 7.46,8.44 14.92,-0.74 20.31,-10.77 1.46,5.51 5.62,7.83 8.68,7.83 3.06,0 7.95,-3.79 9.91,-8.19 2.93,0.12 7.09,-3.67 8.93,-7.22 -0.12,3.91 4.77,7.58 7.7,7 2.93,-0.58 6.73,-8 9.06,-13 0,6.48 -0.37,11.37 4.28,11.25 4.65,-0.12 11.86,-13.33 19.81,-27.89 -3.67,17.74 -6.36,24 -7,29.11 -0.64,5.11 0.49,12.72 2.69,12.72 2.2,0 4.16,-10.88 4.77,-20.54 4.65,-1.35 5.63,-1.72 6.48,-1.72 0.85,0 4,1.35 8.81,-2.08 4.81,-3.43 7.58,-7.82 11,-12.35 2.57,6.24 7,8.44 14.19,4.4 7.19,-4.04 11,-15.29 11.62,-18.1 -4.14,6.61 -8.67,10.89 -11.72,12.48 z m -95.16,22.38 c -0.25,4.77 -3.55,6.12 -5,6.12 -1.45,0 -4.16,-0.25 -4.16,-4.9 0,-4.65 4.16,-10.15 8.56,-14.43 1.72,-1.59 -0.12,2.57 -0.61,7.22 -0.49,4.65 0.23,6.6 1.21,5.99 z M 661,62.06 c 1.35,-7.09 6.61,-14.92 9.17,-14.92 2.56,0 -0.73,8.07 -2.2,11 -1.47,2.93 -3.97,3.19 -6.97,3.92 z m 36.33,-29.47 c 2.32,-2 3.3,0.85 1,4.15 -2.3,3.3 -7.47,8.08 -8.81,8.57 0.55,-6.49 5.48,-10.77 7.77,-12.72 z"
         fill="#c60000"
         id="path29" />
      <path
         d="m 689.34,26.23 a 18.71,18.71 0 0 1 4.52,-10.52 c 2.82,-3.31 7.71,-8.44 9.54,-8.69 1.83,-0.25 2.7,1.59 2.7,4.53 0,2.94 0,3.91 -2.08,5.5 -2.08,1.59 -8.93,6.48 -10,7.59 -1.07,1.11 -4.8,4.89 -4.68,1.59 z"
         fill="#c60000"
         id="path31" />
    </g>
  </g>
  <metadata
     id="metadata855">
    <rdf:RDF>
      <cc:Work
         rdf:about="">
        <dc:title>logo</dc:title>
      </cc:Work>
    </rdf:RDF>
  </metadata>
</svg>
