<?xml version="1.0" encoding="UTF-8" standalone="no"?>
<svg
   viewBox="0 0 513.98059 93.059998"
   version="1.1"
   id="svg214"
   sodipodi:docname="satellaview.svg"
   width="513.98059"
   height="93.059998"
   inkscape:version="1.1 (c68e22c387, 2021-05-23)"
   xmlns:inkscape="http://www.inkscape.org/namespaces/inkscape"
   xmlns:sodipodi="http://sodipodi.sourceforge.net/DTD/sodipodi-0.dtd"
   xmlns="http://www.w3.org/2000/svg"
   xmlns:svg="http://www.w3.org/2000/svg"
   xmlns:rdf="http://www.w3.org/1999/02/22-rdf-syntax-ns#"
   xmlns:cc="http://creativecommons.org/ns#"
   xmlns:dc="http://purl.org/dc/elements/1.1/">
  <defs
     id="defs218" />
  <sodipodi:namedview
     id="namedview216"
     pagecolor="#ffffff"
     bordercolor="#666666"
     borderopacity="1.0"
     inkscape:pageshadow="2"
     inkscape:pageopacity="0.0"
     inkscape:pagecheckerboard="0"
     showgrid="false"
     fit-margin-top="0"
     fit-margin-left="0"
     fit-margin-right="0"
     fit-margin-bottom="0"
     inkscape:zoom="0.78700985"
     inkscape:cx="257.30301"
     inkscape:cy="-96.568042"
     inkscape:window-width="1920"
     inkscape:window-height="1138"
     inkscape:window-x="-8"
     inkscape:window-y="-8"
     inkscape:window-maximized="1"
     inkscape:current-layer="svg214" />
  <title
     id="title2">logo</title>
  <g
     id="g1224"
     transform="translate(-243.04491,-10.47)"
     inkscape:export-filename="C:\Users\BUCH\Desktop\Retrogaming\Recalbox\travail thèmes\NEW THEME!!!\background NEW!!!!\SYSTEM!!!!!!\satellaview\g1224.png"
     inkscape:export-xdpi="186.77748"
     inkscape:export-ydpi="186.77748">
    <g
       id="Layer_2"
       data-name="Layer 2">
      <rect
         x="311.82999"
         y="25.92"
         width="28.57"
         height="36.220001"
         fill="#ffffff"
         id="rect4" />
      <rect
         x="373.48999"
         y="29.049999"
         width="246.61"
         height="50.52"
         fill="#ffffff"
         id="rect6" />
    </g>
    <g
       id="Layer_1"
       data-name="Layer 1">
      <path
         d="M 441.12,100 A 42.67,42.67 0 0 1 433.18,99.4 7.47,7.47 0 0 1 427,92 126.66,126.66 0 0 1 426.51,77.62 c 0,-0.67 0,-1.35 0,-2 h -0.42 a 3.49,3.49 0 0 1 -3.49,-3.3 c -0.16,-2.75 -0.34,-5.51 -0.52,-8.26 a 3.51,3.51 0 0 1 3.46,-3.73 h 0.64 C 426.1,56.49 426,53.15 426,50 a 3.45,3.45 0 0 1 1,-2.49 3.49,3.49 0 0 1 2.47,-1.06 c 3.55,0 7.11,-0.1 10.66,-0.18 h 0.08 a 3.5,3.5 0 0 1 3.5,3.48 c 0,2.65 0,5.31 0.07,8 0,0.8 0,1.6 0,2.41 h 4.68 a 3.52,3.52 0 0 1 3.49,3.54 c 0,2.8 -0.07,5.62 -0.09,8.42 a 3.5,3.5 0 0 1 -3.5,3.47 v 0 h -4.33 c 0,1.51 0.08,7.65 0.1,9.2 h 3 a 3.5,3.5 0 0 1 3.46,3.42 q 0.08,4.11 0.18,8.21 a 3.5,3.5 0 0 1 -3.5,3.58 h -0.09 -1.65 -2.14 z"
         fill="#1b1b1b"
         id="path9" />
      <path
         d="m 440.18,49.78 c 0,4.62 0.09,9.24 0.12,13.87 h 8.14 q -0.06,4.22 -0.09,8.43 -3.94,0 -7.89,-0.09 c 0.05,5.41 0.12,10.81 0.17,16.21 l 6.4,0.08 q 0.08,4.1 0.18,8.21 h -1.73 c -1.46,0 -2.91,0 -4.37,0 a 38.06,38.06 0 0 1 -7.38,-0.56 4,4 0 0 1 -3.21,-4.14 c -0.74,-6.53 -0.4,-13.14 -0.49,-19.71 h -3.91 c -0.15,-2.76 -0.33,-5.53 -0.51,-8.29 l 4.2,-0.05 c -0.14,-4.61 -0.27,-9.22 -0.33,-13.83 3.57,0 7.13,-0.1 10.7,-0.18 m 0,-7 H 440 c -3.52,0.08 -7.09,0.14 -10.62,0.18 a 7,7 0 0 0 -6.92,7.1 c 0,2.33 0.08,4.77 0.15,7.44 a 6.92,6.92 0 0 0 -2.15,1.58 7,7 0 0 0 -1.86,5.21 c 0.18,2.71 0.36,5.5 0.51,8.24 a 7,7 0 0 0 3.9,5.89 123.06,123.06 0 0 0 0.5,13.87 11,11 0 0 0 9.07,10.55 45.36,45.36 0 0 0 8.51,0.65 h 2.26 2.11 1.56 0.17 a 7,7 0 0 0 7,-7.16 q -0.09,-4.09 -0.17,-8.2 a 7,7 0 0 0 -6.47,-6.83 c 0,-0.42 0,-0.84 0,-1.27 0,-0.43 0,-0.64 0,-1 h 0.82 a 7,7 0 0 0 7,-6.95 c 0,-2.79 0,-5.6 0.09,-8.39 a 7,7 0 0 0 -7,-7.09 h -1.23 c 0,-2.3 -0.05,-4.6 -0.06,-6.9 a 7,7 0 0 0 -7,-7 z"
         fill="#ffffff"
         id="path11" />
      <path
         d="M 504.27,100 H 494 a 3.48,3.48 0 0 1 -3.5,-3.56 c 0.25,-13.46 0.28,-27.18 0.31,-40.44 v -6.27 a 3.51,3.51 0 0 1 3.44,-3.49 l 3.09,-0.06 c 2.59,0 5.18,-0.1 7.78,-0.12 v 0 a 3.5,3.5 0 0 1 3.5,3.57 c -0.33,15.53 -0.51,31.31 -0.54,46.89 a 3.48,3.48 0 0 1 -3.5,3.49 z"
         fill="#1b1b1b"
         id="path13" />
      <path
         d="m 505.18,49.54 v 0 m 0,0 Q 504.67,73 504.64,96.49 H 494 c 0.29,-15.58 0.29,-31.17 0.33,-46.76 3.61,-0.06 7.22,-0.16 10.84,-0.18 m 0,-7 h -0.05 c -2.63,0 -5.28,0.07 -7.83,0.12 l -3.09,0.06 a 7,7 0 0 0 -6.87,7 v 6.24 c 0,13.26 -0.07,27 -0.32,40.41 a 7,7 0 0 0 7,7.13 h 10.6 a 7,7 0 0 0 7,-7 c 0,-15.47 0.2,-31.16 0.53,-46.62 0,-0.11 0,-0.23 0,-0.34 a 7,7 0 0 0 -7,-7 z m 0,14 z"
         fill="#ffffff"
         id="path15" />
      <path
         d="m 509,100 a 3.5,3.5 0 0 1 -3.5,-3.55 q 0.12,-7.47 0.27,-14.92 c 0.19,-10.48 0.4,-21.3 0.44,-31.94 a 3.56,3.56 0 0 1 1,-2.48 3.5,3.5 0 0 1 2.46,-1 v 0 q 5.43,0 10.86,0.15 a 3.45,3.45 0 0 1 2.47,1.09 3.52,3.52 0 0 1 1,2.52 c -0.51,15.42 -0.78,31.06 -0.79,46.49 a 3.51,3.51 0 0 1 -3.44,3.5 l -5.39,0.08 -5.35,0.07 z"
         fill="#1b1b1b"
         id="path17" />
      <path
         d="m 509.75,49.59 c 3.61,0 7.21,0.08 10.82,0.15 q -0.77,23.28 -0.79,46.6 c -3.58,0.06 -7.16,0.09 -10.74,0.15 0.25,-15.63 0.65,-31.26 0.71,-46.9 m 0,-7 a 7,7 0 0 0 -7,7 c 0,10.62 -0.25,21.43 -0.44,31.89 q -0.15,7.47 -0.27,14.93 a 7,7 0 0 0 7,7.11 h 0.13 l 5.32,-0.08 5.42,-0.07 a 7,7 0 0 0 6.87,-7 c 0,-15.39 0.28,-31 0.79,-46.37 a 7,7 0 0 0 -6.86,-7.23 c -3.62,-0.07 -7.29,-0.12 -10.9,-0.15 z"
         fill="#ffffff"
         id="path19" />
      <path
         d="m 621.35,59.71 a 10,10 0 0 1 -8.11,-4.09 3.92,3.92 0 0 1 -0.43,-0.81 c -1.75,-4.6 0.18,-9.94 4.32,-12 a 8.9,8.9 0 0 1 4.54,-1.2 9.28,9.28 0 0 1 6.8,2.88 8.68,8.68 0 0 1 2.22,6.63 9.2,9.2 0 0 1 -9.33,8.6 z"
         fill="#1b1b1b"
         id="path21" />
      <path
         d="m 621.67,45.1 a 5.28,5.28 0 0 1 5.53,5.75 5.68,5.68 0 0 1 -5.85,5.36 6.49,6.49 0 0 1 -5.27,-2.64 c -1.14,-3 0.16,-6.49 2.72,-7.69 a 5.41,5.41 0 0 1 2.87,-0.78 m 0,-7 a 12.42,12.42 0 0 0 -6.22,1.63 c -5.62,2.89 -8.27,10.11 -5.91,16.33 a 7.16,7.16 0 0 0 0.87,1.61 13.49,13.49 0 0 0 10.94,5.54 12.73,12.73 0 0 0 12.81,-11.65 1.11,1.11 0 0 0 0,-0.19 12.09,12.09 0 0 0 -3.16,-9.27 12.78,12.78 0 0 0 -9.36,-4 z"
         fill="#ffffff"
         id="path23" />
      <path
         d="m 330.69,100 a 3.5,3.5 0 0 1 -3.49,-3.21 l -0.27,-3.38 c -0.13,-1.78 -0.27,-3.55 -0.42,-5.33 a 3.45,3.45 0 0 1 0.9,-2.65 3.49,3.49 0 0 1 2.59,-1.15 l 9.24,-0.08 c 7.52,-0.07 15.29,-0.13 22.93,-0.26 l 0.81,-0.06 c 2.79,-0.2 3.31,-0.45 3.55,-1.15 0.06,-0.16 0.12,-0.3 0.19,-0.45 a 3.18,3.18 0 0 0 -1.09,-1.17 40.55,40.55 0 0 0 -7,-0.52 c -1.8,0 -3.67,0.07 -5.48,0.14 -1.81,0.07 -3.8,0.14 -5.73,0.14 a 40.92,40.92 0 0 1 -11.26,-1.31 c -7.66,-2 -12.73,-10.91 -11.06,-19.46 1.35,-8.57 9.07,-13.21 16,-13.36 6.4,-0.24 12.93,-0.27 19.24,-0.29 5,0 10.25,-0.05 15.36,-0.17 h 0.09 a 3.5,3.5 0 0 1 3.49,3.43 l 0.12,4.46 c 0,1.51 0.08,3 0.11,4.56 a 3.53,3.53 0 0 1 -1,2.55 3.5,3.5 0 0 1 -2.48,1 h -0.07 c -2.25,0 -4.67,-0.06 -7.41,-0.06 q -4.49,0 -8.95,0.05 c -3,0 -6,0 -9,0 h -2.5 c -0.49,0 -1.05,0.07 -1.65,0.09 -1.06,0 -4.28,0.17 -4.79,0.82 a 1.45,1.45 0 0 0 -0.06,1.4 36.55,36.55 0 0 0 7.31,0.54 c 1.38,0 2.82,0 4.3,0 1.48,0 3.25,-0.05 4.92,-0.05 5.41,0 11.69,0.26 17.23,2.19 4.36,1.37 7.65,5.22 9,10.57 1.65,6.37 0.21,13.1 -3.67,17.14 a 2,2 0 0 1 -0.21,0.2 c -4.62,4.07 -10.65,4.29 -14.63,4.44 -3.98,0.15 -8,0 -11.94,0 -7.57,0 -15.4,0 -23.07,0.33 z"
         fill="#1b1b1b"
         id="path25" />
      <path
         d="m 375.78,49.78 c 0.06,3 0.15,6 0.22,9 -2.49,0 -5,-0.07 -7.48,-0.07 -6,0 -12,0.1 -18,0.1 h -2.62 c -2.5,0.24 -7.42,-0.16 -9.19,2.44 a 5,5 0 0 0 0.84,6.45 c 2.36,0.79 5.61,1 9.31,1 2.87,0 6,-0.1 9.22,-0.1 5.54,0 11.28,0.31 16.13,2 7.82,2.41 9.71,16 4,22 -3.54,3.11 -8.2,3.41 -12.45,3.57 -11.67,0.13 -23.34,-0.1 -35,0.38 -0.24,-2.91 -0.45,-5.82 -0.7,-8.71 10.78,-0.11 21.55,-0.16 32.32,-0.34 2.65,-0.24 6.3,-0.1 7.49,-3.57 1.41,-2.56 -1.19,-5.31 -3.09,-6.11 a 42.49,42.49 0 0 0 -8.11,-0.67 c -3.73,0 -7.48,0.28 -11.21,0.28 a 38.43,38.43 0 0 1 -10.33,-1.18 c -5.79,-1.51 -9.93,-8.56 -8.54,-15.49 1,-6.84 7.22,-10.35 12.65,-10.46 11.53,-0.43 23.07,-0.18 34.61,-0.46 m 0,-7 h -0.18 c -5.07,0.12 -10.26,0.15 -15.28,0.17 -6.32,0 -12.87,0 -19.36,0.29 -8.38,0.21 -17.67,5.84 -19.34,16.25 a 21.11,21.11 0 0 0 8.76,21.28 H 330 a 7,7 0 0 0 -7,7.54 c 0.15,1.74 0.28,3.49 0.42,5.24 l 0.27,3.45 a 7,7 0 0 0 7,6.43 h 0.3 c 7.59,-0.32 15.39,-0.32 22.92,-0.33 3.89,0 7.92,0 11.89,0 h 0.2 c 4.21,-0.16 11.25,-0.42 16.81,-5.31 0.15,-0.13 0.29,-0.27 0.43,-0.41 4.7,-4.9 6.47,-12.92 4.53,-20.44 -1.41,-5.42 -4.49,-9.6 -8.65,-11.87 a 7.21,7.21 0 0 0 1.88,-1.39 7,7 0 0 0 2,-5.1 l -0.12,-4.58 c 0,-1.48 -0.07,-3 -0.11,-4.44 a 7,7 0 0 0 -7,-6.84 z"
         fill="#ffffff"
         id="path27" />
      <path
         d="m 542.19,100 c -1.54,0 -3.09,0 -4.64,0 h -3 -0.17 c -3.56,-0.2 -8.94,-0.5 -12.16,-5.2 a 2.38,2.38 0 0 1 -0.18,-0.3 14.24,14.24 0 0 1 -1.15,-10.9 8.52,8.52 0 0 1 4.66,-5.23 54.11,54.11 0 0 1 8.32,-2.77 c -1.12,0 -2.24,0 -3.36,0 -1.12,0 -2.5,0 -3.75,0 a 3.51,3.51 0 0 1 -2.46,-1.08 3.47,3.47 0 0 1 -1,-2.52 l 0.23,-8.61 a 3.54,3.54 0 0 1 1.11,-2.46 3.49,3.49 0 0 1 2.39,-0.94 h 0.14 c 1.45,0.06 3,0.09 4.78,0.09 2,0 4,0 6,-0.07 2,-0.07 4.1,-0.07 6.14,-0.07 3.53,0 6.42,0.1 9.1,0.34 h 0.17 c 7.29,1 11.6,4.22 12.82,9.57 a 0.75,0.75 0 0 1 0,0.16 c 1.1,6 0.63,12.26 0,17.53 -0.64,7.16 -6.9,10.8 -12.06,11.71 a 74.49,74.49 0 0 1 -12.08,0.82 z"
         fill="#1b1b1b"
         id="path29" />
      <path
         d="m 544.19,63.34 c 2.93,0 5.86,0.07 8.79,0.32 3.82,0.53 8.73,1.86 9.88,6.89 1,5.41 0.62,11.08 0,16.51 -0.62,5.43 -5.19,8 -9.19,8.67 a 70,70 0 0 1 -11.47,0.76 c -2.52,0 -5.05,-0.06 -7.57,-0.08 -3.31,-0.18 -7.23,-0.41 -9.47,-3.68 -1.95,-3.55 -2.07,-9.52 1.85,-11.25 8.49,-3.71 17.77,-4 26.36,-7.33 -2,-1 -4.1,-2.14 -6.34,-2.14 v 0 c -1.69,-0.05 -3.37,-0.06 -5.06,-0.06 -3.79,0 -7.58,0.08 -11.37,0.08 -1.23,0 -2.46,0 -3.68,0 q 0.12,-4.31 0.23,-8.61 c 1.65,0.06 3.29,0.09 4.93,0.09 4.05,0 8.11,-0.14 12.16,-0.14 m -2,25.3 a 64.47,64.47 0 0 0 7.08,-0.39 c 2.75,0 3,-4 4.22,-6.07 -6.84,1.75 -14,2.29 -20.43,5.81 a 65,65 0 0 0 9.13,0.65 m 2,-32.3 c -2.09,0 -4.18,0 -6.2,0.07 -2.02,0.07 -4,0.07 -6,0.07 -1.72,0 -3.25,0 -4.65,-0.09 h -0.28 a 7,7 0 0 0 -7,6.81 l -0.18,6.41 -0.06,2.2 a 7,7 0 0 0 1.74,4.81 12.47,12.47 0 0 0 -4,5.77 17.63,17.63 0 0 0 1.39,13.68 c 0.11,0.2 0.23,0.39 0.36,0.58 4.2,6.13 11.14,6.51 14.86,6.72 h 0.33 2.94 c 1.53,0 3.11,0 4.69,0 a 78.14,78.14 0 0 0 12.61,-0.85 h 0.08 c 8.36,-1.48 14.21,-7.3 14.93,-14.83 0.64,-5.51 1.12,-12 -0.06,-18.49 l -0.06,-0.31 c -1.09,-4.75 -4.71,-10.74 -15.76,-12.26 h -0.35 c -2.78,-0.24 -5.76,-0.35 -9.39,-0.35 z"
         fill="#ffffff"
         id="path31" />
      <path
         d="m 586.19,100 c -6.74,0 -10,-3.42 -11.6,-6.29 -3.2,-5.53 -6.11,-11.44 -8.92,-17.15 -2,-4 -4,-8.15 -6.13,-12.11 a 3.5,3.5 0 0 1 3,-5.15 c 3.85,-0.07 7.75,-0.1 11.6,-0.11 v 0 a 3.51,3.51 0 0 1 3.15,2 c 2.11,4.34 4.34,8.73 6.49,13 q 1.68,3.3 3.38,6.69 c 1.55,-2.69 3.14,-5.34 4.69,-7.94 C 594.2,69 596.6,65 598.81,61 a 3.51,3.51 0 0 1 3.07,-1.82 c 3.88,0 7.78,0 11.67,0 v 0 a 3.51,3.51 0 0 1 3,5.32 c -5,8.19 -9.84,16.45 -14.8,24.88 0,0 -0.48,0.78 -0.69,1.12 -2.21,3.56 -5,8 -9.92,9 a 25.35,25.35 0 0 1 -4.95,0.5 z"
         fill="#1b1b1b"
         id="path33" />
      <path
         d="m 613.58,62.64 v 0 m 0,0 c -5,8.26 -9.92,16.59 -14.82,24.93 -2.17,3.43 -4.42,7.67 -8.3,8.46 a 21.9,21.9 0 0 1 -4.27,0.46 c -3.32,0 -6.63,-1 -8.53,-4.46 -5.45,-9.41 -9.88,-19.59 -15,-29.23 3.85,-0.07 7.69,-0.1 11.54,-0.11 4.18,8.62 8.64,17 12.83,25.65 4.71,-8.75 10.09,-17 14.88,-25.65 q 5.83,0 11.7,0 m 0,-7 h -0.06 c -3.82,0 -7.77,0 -11.64,0 a 7,7 0 0 0 -6.13,3.63 c -2.19,4 -4.57,7.94 -6.87,11.79 -0.48,0.8 -1,1.61 -1.45,2.43 l -0.5,-1 c -2.15,-4.22 -4.36,-8.6 -6.46,-12.91 a 7,7 0 0 0 -6.3,-4 v 0 c -3.86,0 -7.78,0 -11.65,0.11 a 7,7 0 0 0 -6,10.3 c 2.08,3.91 4.11,8 6.07,12 2.83,5.74 5.75,11.68 9,17.37 2.87,5.17 8.06,8 14.62,8 a 28.76,28.76 0 0 0 5.63,-0.59 c 6.49,-1.32 9.81,-6.68 12.23,-10.6 l 0.63,-1 0.11,-0.19 c 4.94,-8.41 9.78,-16.62 14.68,-24.69 a 7,7 0 0 0 -5.89,-10.79 z m 0,14 z"
         fill="#ffffff"
         id="path35" />
      <path
         d="m 624.11,100 q -5.16,-0.1 -10.31,-0.17 a 3.49,3.49 0 0 1 -3.46,-3.7 c 0.28,-4.77 0.52,-9.63 0.75,-14.33 0.29,-6.09 0.6,-12.37 1,-18.57 A 3.5,3.5 0 0 1 615.45,60 c 3.6,-0.15 7.2,-0.28 10.8,-0.41 h 0.12 a 3.47,3.47 0 0 1 2.5,1.05 3.51,3.51 0 0 1 1,2.64 q -0.51,9.06 -1,18.13 -0.39,7.65 -0.8,15.31 a 3.5,3.5 0 0 1 -3.49,3.31 z"
         fill="#1b1b1b"
         id="path37" />
      <path
         d="m 626.37,63.05 v 0 m 0,0 c -0.61,11.14 -1.15,22.29 -1.75,33.44 -3.6,-0.06 -7.19,-0.13 -10.79,-0.17 0.65,-10.95 1,-21.92 1.76,-32.86 3.59,-0.15 7.19,-0.28 10.78,-0.41 m 0,-7 h -0.28 l -10.78,0.41 a 7,7 0 0 0 -6.7,6.53 c -0.42,6.24 -0.72,12.55 -1,18.66 -0.23,4.68 -0.46,9.52 -0.74,14.26 a 7,7 0 0 0 6.91,7.41 c 3.53,0 7.14,0.11 10.63,0.17 h 0.23 a 7,7 0 0 0 7,-6.62 q 0.42,-7.7 0.8,-15.4 c 0.3,-5.85 0.61,-11.89 0.94,-17.84 a 5.49,5.49 0 0 0 0,-0.58 7,7 0 0 0 -7,-7 z m 0,14 z"
         fill="#ffffff"
         id="path39" />
      <path
         d="m 652.59,100 a 141.06,141.06 0 0 1 -14.3,-0.59 c -7.18,-0.9 -11.86,-5.3 -12,-11.21 v -0.26 c -0.1,-6.35 -0.22,-13.55 2.13,-20 a 2.85,2.85 0 0 1 0.33,-0.68 c 4.59,-7.25 12.67,-7.44 18.56,-7.58 h 1.5 0.19 c 0.71,0 1.49,0.07 2.39,0.07 0.9,0 1.83,0 2.75,0 0.92,0 2,-0.05 2.93,-0.05 a 24.12,24.12 0 0 1 11.62,2.3 c 2.62,1.45 5.48,4.84 4.56,13 a 0.5,0.5 0 0 1 0,0.12 c -0.56,3.78 -3.2,6.46 -7.83,8 -1.47,0.44 -2.93,0.83 -4.38,1.18 1.29,0 2.6,0 3.9,0 1,0 1.94,0 2.91,0 a 3.5,3.5 0 0 1 2.49,1.12 3.46,3.46 0 0 1 0.92,2.58 c -0.17,2.91 -0.32,5.83 -0.48,8.75 a 3.51,3.51 0 0 1 -3.49,3.32 h -0.08 c -1.52,0 -3,0 -4.57,0 h -5 z"
         fill="#1b1b1b"
         id="path41" />
      <path
         d="m 657.09,63.12 c 3.42,0 6.82,0.3 10,2 3.18,1.7 3.1,6.14 2.72,9.48 -0.46,3.07 -3.2,4.43 -5.46,5.16 -8.19,2.47 -16.68,3.24 -24.85,5.85 2.07,1.31 4.28,2.46 6.67,2.46 h 2 c 5.6,0 11.2,-0.35 16.8,-0.35 0.94,0 1.88,0 2.82,0 q -0.25,4.38 -0.48,8.77 c -1.55,0 -3.09,0 -4.64,0 -3.34,0 -6.69,0 -10,0 a 135.34,135.34 0 0 1 -14,-0.57 c -3.75,-0.47 -8.73,-2.54 -8.87,-7.82 -0.1,-6.32 -0.23,-13.06 1.92,-19 v 0 c 3.89,-6.15 11.25,-5.8 17.1,-6 0.87,0.06 1.74,0.08 2.62,0.08 1.88,0 3.78,-0.09 5.68,-0.09 m -17.37,14.57 c 6.9,-1.4 13.88,-2.6 20.56,-5.19 A 43.41,43.41 0 0 0 644.47,71.6 c -2.82,0 -3.4,3.87 -4.72,6.06 m 17.34,-21.54 c -1,0 -2,0 -3,0.05 -1,0.05 -1.8,0 -2.66,0 -0.86,0 -1.53,0 -2.15,-0.06 h -0.47 -0.22 -1.36 c -6.31,0.15 -15.85,0.38 -21.44,9.21 a 7,7 0 0 0 -0.66,1.35 c -2.57,7.06 -2.45,14.6 -2.34,21.26 v 0.29 c 0.19,7.73 6.08,13.46 15,14.58 h 0.16 a 143.25,143.25 0 0 0 14.66,0.61 h 5.08 5 c 1.68,0 3.15,0 4.49,0 h 0.15 a 7,7 0 0 0 7,-6.64 q 0.22,-4.36 0.48,-8.73 A 7,7 0 0 0 672.9,83 l -0.09,-0.09 a 12.13,12.13 0 0 0 3.89,-7.28 v -0.25 c 1.14,-10 -2.79,-14.46 -6.28,-16.39 l -0.12,-0.07 a 27.43,27.43 0 0 0 -13.24,-2.77 z"
         fill="#ffffff"
         id="path43" />
      <path
         d="m 721.09,100 a 13.49,13.49 0 0 1 -9.25,-3.56 3.91,3.91 0 0 1 -0.56,-0.66 29.06,29.06 0 0 1 -3.69,-8.92 c -0.54,1.29 -1.11,2.59 -1.7,3.87 a 14.18,14.18 0 0 1 -13.36,9.15 14,14 0 0 1 -12.94,-8.26 c -2.21,-4.24 -4.18,-8.67 -6.08,-13 -2.21,-5 -4.5,-10.15 -7.13,-14.88 a 3.5,3.5 0 0 1 3.06,-5.2 v 0 c 3,0 6,0 9,0 h 3 a 3.5,3.5 0 0 1 3.22,2.13 c 2.09,4.94 4.35,9.9 6.53,14.69 l 1.7,3.73 c 2.8,-6.55 5.4,-12.49 8.12,-18.42 a 3.48,3.48 0 0 1 3.18,-2 h 0.08 c 2.7,0.06 5.45,0.09 8.16,0.09 h 2.75 a 3.49,3.49 0 0 1 3.39,2.61 c 1.57,6 3.1,11.87 4.57,17.75 L 726.45,74 c 2.8,-4.48 5.71,-9.12 8.7,-13.58 a 3.51,3.51 0 0 1 2.91,-1.56 h 3.05 q 4.44,0 8.88,0 a 3.51,3.51 0 0 1 3.1,1.87 3.46,3.46 0 0 1 -0.21,3.6 c -3,4.39 -5.93,9 -8.78,13.44 -3.1,4.85 -6.3,9.86 -9.63,14.68 A 16.27,16.27 0 0 1 721.09,100 Z"
         fill="#1b1b1b"
         id="path45" />
      <path
         d="m 669.44,62.07 c 3,0 6,0 9.07,0 h 3 c 3.68,8.7 7.75,17.17 11.53,25.82 3.65,-8.64 7.33,-17.25 11.22,-25.73 q 4.11,0.09 8.24,0.09 h 2.76 c 2.22,8.5 4.44,17 6.48,25.6 5.55,-8.41 10.71,-17.15 16.3,-25.5 4,0 8,0.07 11.93,0.07 -6.3,9.23 -12.08,19 -18.43,28.14 a 12.75,12.75 0 0 1 -10.48,5.91 10,10 0 0 1 -6.88,-2.65 c -3.51,-5.33 -4,-12.44 -5.56,-18.71 -2,4.72 -3.81,9.59 -6,14.22 a 10.79,10.79 0 0 1 -19.92,0.73 c -4.77,-9.13 -8.31,-19 -13.3,-28 m 0,-7 a 7,7 0 0 0 -6.12,10.4 c 2.55,4.59 4.71,9.45 7,14.6 1.91,4.31 3.89,8.76 6.14,13.08 a 17.8,17.8 0 0 0 30.73,2.57 c 0.36,0.67 0.75,1.33 1.18,2 a 6.42,6.42 0 0 0 1.15,1.29 17.14,17.14 0 0 0 11.6,4.48 19.79,19.79 0 0 0 16.29,-9 c 3.36,-4.86 6.57,-9.88 9.68,-14.75 2.83,-4.42 5.75,-9 8.72,-13.34 a 7,7 0 0 0 -5.78,-11 c -3,0 -6,0 -8.93,0 h -2.95 -0.05 a 7,7 0 0 0 -5.82,3.11 c -2.62,3.91 -5.16,7.93 -7.63,11.87 q -1.26,-4.91 -2.56,-9.85 a 7,7 0 0 0 -6.77,-5.23 h -2.76 c -2.69,0 -5.41,0 -8.09,-0.09 h -0.15 a 7,7 0 0 0 -6.36,4.08 c -1.7,3.7 -3.35,7.4 -5,11.24 -1.67,-3.68 -3.34,-7.42 -4.91,-11.14 a 7,7 0 0 0 -6.45,-4.27 h -3 q -4.51,0 -9,0 z"
         fill="#ffffff"
         id="path47" />
      <path
         d="m 472.49,100 c -4.2,0 -7.46,-0.08 -10.54,-0.24 -7.71,-0.52 -12.85,-4.21 -14.16,-10.12 0,-0.1 0,-0.21 -0.05,-0.31 a 71.28,71.28 0 0 1 0,-18.4 3.67,3.67 0 0 1 0.09,-0.43 c 1.09,-4.16 4.58,-9.28 15,-10 h 0.11 l 3.84,-0.18 c 2.57,-0.12 5.24,-0.26 7.9,-0.26 A 50.48,50.48 0 0 1 485,61 c 4.29,0.62 7.76,4.78 8.45,10.19 0.66,5.1 -1.51,9.43 -5.54,11 a 59.16,59.16 0 0 1 -8.05,2.49 c 2.77,0 5.61,-0.08 8.41,-0.08 h 0.61 a 3.5,3.5 0 0 1 3.49,3.54 c 0,2.77 -0.06,5.55 -0.08,8.32 a 3.48,3.48 0 0 1 -3.5,3.47 h -0.05 q -2.19,0 -4.38,0 h -5.91 c -1.99,0.07 -3.97,0.07 -5.96,0.07 z"
         fill="#1b1b1b"
         id="path49" />
      <path
         d="m 474.68,63.57 a 47.49,47.49 0 0 1 9.73,0.88 c 5.7,0.7 8.19,12.14 2.21,14.51 -8.46,3.38 -17.56,3.74 -26.07,7 2,1.26 4.15,2.38 6.46,2.38 h 1.58 c 6.57,0 13.13,-0.2 19.7,-0.2 h 0.58 q 0,4.17 -0.08,8.33 -2.22,0 -4.44,0 c -4,0 -7.91,0.06 -11.86,0.06 -3.45,0 -6.91,0 -10.36,-0.22 -4.25,-0.29 -9.69,-1.83 -10.92,-7.39 a 67.37,67.37 0 0 1 0,-17.49 v 0 c 1.52,-5.79 7.37,-7.08 11.84,-7.38 3.85,-0.15 7.74,-0.44 11.61,-0.44 m -14.22,14.6 c 6.78,-1.59 13.66,-2.8 20.25,-5.33 a 28.09,28.09 0 0 0 -9.2,-1.44 45.49,45.49 0 0 0 -8.39,0.86 c -1.45,1.52 -1.83,3.93 -2.66,5.91 m 14.22,-21.6 c -2.75,0 -5.46,0.14 -8.08,0.27 l -3.79,0.17 h -0.22 c -13.13,0.89 -17,8.28 -18.13,12.6 a 8.52,8.52 0 0 0 -0.17,0.85 74.74,74.74 0 0 0 0,19.31 6,6 0 0 0 0.11,0.61 c 1.66,7.54 8,12.23 17.27,12.86 h 0.11 c 3.16,0.16 6.46,0.23 10.73,0.23 q 3,0 6,0 h 5.88 c 1.59,0 3,0 4.33,0 h 0.11 a 7,7 0 0 0 7,-6.95 q 0,-4.14 0.08,-8.3 a 7,7 0 0 0 -2,-5 c -0.17,-0.16 -0.34,-0.32 -0.52,-0.47 2.84,-2.88 4.2,-7.19 3.58,-12 -0.89,-6.92 -5.51,-12.29 -11.31,-13.19 a 54.44,54.44 0 0 0 -10.93,-1 z"
         fill="#ffffff"
         id="path51" />
      <path
         d="m 400.2,100 a 50.53,50.53 0 0 1 -10.32,-0.92 c -4.29,-0.62 -7.76,-4.78 -8.45,-10.19 -0.66,-5.11 1.51,-9.43 5.53,-11 A 59.73,59.73 0 0 1 395,75.36 c -2.77,0 -5.61,0.08 -8.41,0.08 H 386 a 3.5,3.5 0 0 1 -3.49,-3.54 q 0,-4.17 0.08,-8.32 a 3.5,3.5 0 0 1 3.5,-3.48 h 0.05 c 1.47,0 2.94,0 4.41,0 2,0 3.93,0 5.9,0 1.97,0 4,0 5.95,0 4.2,0 7.45,0.07 10.53,0.23 7.71,0.53 12.85,4.22 14.16,10.13 a 2.87,2.87 0 0 1 0.05,0.31 71.2,71.2 0 0 1 0,18.39 3,3 0 0 1 -0.09,0.43 c -1.09,4.17 -4.58,9.29 -15,10 h -0.11 l -3.84,0.17 c -2.58,0.13 -5.24,0.26 -7.9,0.26 z"
         fill="#1b1b1b"
         id="path53" />
      <path
         d="m 402.39,63.57 c 3.45,0 6.91,0 10.36,0.23 4.25,0.29 9.69,1.83 10.92,7.39 a 67.73,67.73 0 0 1 0,17.48 c -1.53,5.8 -7.38,7.09 -11.84,7.39 -3.85,0.14 -7.74,0.43 -11.61,0.43 a 46.8,46.8 0 0 1 -9.73,-0.88 c -5.7,-0.69 -8.19,-12.14 -2.21,-14.51 8.46,-3.37 17.56,-3.74 26.07,-7 -2,-1.26 -4.15,-2.38 -6.47,-2.38 h -1.57 c -6.57,0 -13.14,0.2 -19.71,0.2 H 386 q 0,-4.17 0.08,-8.34 c 1.48,0 3,0 4.44,0 4,0 7.91,-0.07 11.86,-0.07 m 1,25.1 a 45.49,45.49 0 0 0 8.39,-0.86 c 1.45,-1.52 1.83,-3.93 2.66,-5.92 -6.78,1.6 -13.66,2.81 -20.25,5.34 a 28.09,28.09 0 0 0 9.2,1.44 m -1,-32.1 c -2,0 -4,0 -6,0 -2,0 -3.91,0 -5.87,0 -1.59,0 -3,0 -4.33,0 h -0.11 a 7,7 0 0 0 -7,7 c 0,2.76 0,5.53 -0.08,8.29 a 7,7 0 0 0 2,5 5.66,5.66 0 0 0 0.52,0.47 14.24,14.24 0 0 0 -3.58,12 c 0.89,6.92 5.51,12.29 11.31,13.18 a 53.72,53.72 0 0 0 10.93,1 c 2.75,0 5.46,-0.13 8.08,-0.26 1.27,-0.06 2.53,-0.13 3.79,-0.17 h 0.22 c 13.13,-0.9 17,-8.28 18.13,-12.6 a 8.17,8.17 0 0 0 0.17,-0.86 74.66,74.66 0 0 0 0,-19.3 c 0,-0.21 -0.06,-0.41 -0.11,-0.62 -1.67,-7.53 -8,-12.22 -17.27,-12.85 h -0.12 c -3.15,-0.16 -6.46,-0.24 -10.72,-0.24 z"
         fill="#ffffff"
         id="path55" />
      <path
         d="m 314.54,67.93 a 3.51,3.51 0 0 1 -3.3,-2.31 72.58,72.58 0 0 0 -46.11,-44.79 3.5,3.5 0 0 1 1.08,-6.83 h 14.29 a 3.46,3.46 0 0 1 1.88,0.54 C 299.07,25.15 312,44.48 318,57.81 a 3.61,3.61 0 0 1 0.3,1.59 l -0.3,5.19 a 3.49,3.49 0 0 1 -3,3.3 3.12,3.12 0 0 1 -0.46,0.04 z"
         fill="#1b1b1b"
         id="path57" />
      <path
         d="m 280.5,17.51 c 15,9.54 27.82,27.36 34.27,41.73 l -0.23,5.19 A 76.53,76.53 0 0 0 266.21,17.51 h 14.29 m 0,-7 h -14.29 a 7,7 0 0 0 -2.21,13.65 69.12,69.12 0 0 1 44,42.64 7,7 0 0 0 6.58,4.63 6.19,6.19 0 0 0 1.05,-0.08 7,7 0 0 0 5.95,-6.6 l 0.24,-5.19 a 7,7 0 0 0 -0.61,-3.18 C 315,42.6 301.6,22.61 284.26,11.6 a 7,7 0 0 0 -3.76,-1.09 z"
         fill="#ffffff"
         id="path59" />
      <path
         d="m 314.77,43.05 a 3.51,3.51 0 0 1 -3.29,-2.31 c -3.36,-9.33 -7,-16.13 -11.17,-20.79 a 3.5,3.5 0 0 1 2.58,-5.83 L 314.77,14 a 3.48,3.48 0 0 1 3.5,3.5 v 22 a 3.51,3.51 0 0 1 -2.89,3.5 4.3,4.3 0 0 1 -0.61,0.05 z"
         fill="#1b1b1b"
         id="path61" />
      <path
         d="m 314.77,17.51 v 22 c -2.82,-7.82 -6.53,-16 -11.85,-21.93 l 11.85,-0.11 m 0,-7 h -0.06 l -11.86,0.11 a 7,7 0 0 0 -5.15,11.66 c 3.85,4.36 7.3,10.76 10.49,19.68 a 7,7 0 0 0 6.58,4.63 6.26,6.26 0 0 0 1.21,-0.11 7,7 0 0 0 5.79,-6.89 v -22 a 7,7 0 0 0 -7,-7 z"
         fill="#ffffff"
         id="path63" />
      <path
         d="m 314.66,56.12 a 3.5,3.5 0 0 1 -3.12,-1.92 c -5.94,-11.69 -13.32,-26.24 -22.6,-34 a 3.5,3.5 0 0 1 2.25,-6.2 h 6.62 a 3.5,3.5 0 0 1 2.84,1.45 C 306,22.9 313.35,34 317.88,44.78 a 3.52,3.52 0 0 1 0.28,1.36 v 6.48 a 3.5,3.5 0 0 1 -2.69,3.4 3.74,3.74 0 0 1 -0.81,0.1 z"
         fill="#1b1b1b"
         id="path65" />
      <path
         d="m 297.81,17.51 c 6.18,8.57 12.79,19 16.85,28.63 v 6.48 C 308.54,40.56 301,25.69 291.19,17.51 h 6.62 m 0,-7 h -6.62 a 7,7 0 0 0 -4.5,12.36 c 8.73,7.32 15.94,21.51 21.73,32.91 a 7,7 0 0 0 13.24,-3.16 v -6.48 a 7,7 0 0 0 -0.55,-2.72 C 316.45,32.36 309,21 303.49,13.41 a 7,7 0 0 0 -5.68,-2.9 z"
         fill="#ffffff"
         id="path67" />
      <path
         d="M 251.68,99.88 A 3.5,3.5 0 0 1 250.79,93 c 2.58,-0.69 4.2,-1.66 4.81,-2.87 1.16,-2.32 -0.67,-6.88 -2.28,-10.9 -0.48,-1.21 -1,-2.46 -1.43,-3.7 a 3.5,3.5 0 0 1 6.05,-3.34 c 7.56,9.73 17.5,17.6 26.59,21 a 3.5,3.5 0 0 1 -1.24,6.77 z"
         fill="#1b1b1b"
         id="path69" />
      <path
         d="m 255.18,74.34 c 7,9 17.29,18.07 28.11,22.15 l -31.6,-0.11 c 12.81,-3.42 6.66,-13.27 3.49,-22 m 0,-7 a 7,7 0 0 0 -6.58,9.38 c 0.47,1.29 1,2.57 1.48,3.81 0.93,2.32 2.64,6.59 2.39,8 a 7,7 0 0 1 -2.58,1.09 7,7 0 0 0 1.79,13.76 l 31.6,0.11 v 0 A 7,7 0 0 0 285.77,90 C 277.25,86.78 267.89,79.34 260.71,70.1 a 7,7 0 0 0 -5.54,-2.71 z"
         fill="#ffffff"
         id="path71" />
      <path
         d="m 295.73,99.73 c -10.75,0 -23.06,-6.11 -32.92,-16.33 -16.63,-17.24 -21.31,-40.09 -10.66,-52 4,-4.48 9.68,-6.84 16.43,-6.84 10.76,0 23.07,6.1 32.93,16.33 16.63,17.24 21.31,40.08 10.66,52 -4,4.48 -9.68,6.85 -16.44,6.85 z"
         fill="#1b1b1b"
         id="path73" />
      <path
         d="m 268.58,28.06 c 9.46,0 20.86,5.36 30.41,15.26 15.13,15.68 19.87,36.84 10.57,47.23 -3.43,3.84 -8.29,5.68 -13.83,5.68 -9.45,0 -20.86,-5.36 -30.4,-15.26 -15.13,-15.69 -19.87,-36.84 -10.57,-47.24 3.43,-3.84 8.29,-5.67 13.82,-5.67 m 0,-7 c -7.77,0 -14.36,2.77 -19,8 -11.87,13.27 -7.15,38.2 10.75,56.76 10.51,10.89 23.76,17.4 35.44,17.4 7.78,0 14.37,-2.77 19,-8 C 326.65,82 321.93,57 304,38.46 293.49,27.56 280.24,21.06 268.55,21.06 Z"
         fill="#ffffff"
         id="path75" />
      <path
         d="m 541.39,45.09 a 3.49,3.49 0 0 1 -3.17,-2 3.51,3.51 0 0 1 -3.18,2 h -6.15 a 3.47,3.47 0 0 1 -2.73,-1.32 3.48,3.48 0 0 1 -2.74,1.32 h -6.22 a 3.5,3.5 0 0 1 -3.5,-3.5 V 18.05 a 3.5,3.5 0 0 1 3.5,-3.5 h 22.91 c 5.92,0 10.5,4.72 10.65,11 v 16.04 a 3.49,3.49 0 0 1 -3.5,3.5 z"
         fill="#1b1b1b"
         id="path77" />
      <path
         d="m 540.11,18.05 c 3.95,0 7,3.14 7.15,7.57 v 16 h -5.87 V 27 c 0,-2.18 -1.14,-3.69 -3.07,-3.89 -0.61,0 -1.22,-0.05 -1.84,-0.05 -0.62,0 -1,0 -1.44,0 v 18.53 h -6.15 V 22.92 h -5.47 V 41.59 H 517.2 V 18.05 h 22.91 m 0,-7 H 517.2 a 7,7 0 0 0 -7,7 v 23.54 a 7,7 0 0 0 7,7 h 6.22 a 7.17,7.17 0 0 0 2.74,-0.55 6.9,6.9 0 0 0 2.73,0.55 H 535 a 7,7 0 0 0 3.18,-0.76 6.9,6.9 0 0 0 3.17,0.76 h 5.87 a 7,7 0 0 0 7,-7 V 25.45 c -0.2,-8.21 -6.28,-14.4 -14.15,-14.4 z"
         fill="#ffffff"
         id="path79" />
      <path
         d="m 636,45.09 a 3.51,3.51 0 0 1 -3.18,-2 3.51,3.51 0 0 1 -3.17,2 h -6.15 a 3.49,3.49 0 0 0 -5.47,0 h -6.22 a 3.5,3.5 0 0 1 -3.5,-3.5 V 18.05 a 3.49,3.49 0 0 1 3.5,-3.5 h 22.9 c 5.92,0 10.51,4.72 10.66,11 v 16.04 a 3.5,3.5 0 0 1 -3.5,3.5 z"
         fill="#1b1b1b"
         id="path81" />
      <path
         d="m 634.69,18.05 c 4,0 7,3.14 7.16,7.57 v 16 H 636 V 27 c 0,-2.18 -1.15,-3.69 -3.08,-3.89 -0.61,0 -1.22,-0.05 -1.83,-0.05 -0.61,0 -1,0 -1.44,0 V 41.59 H 623.5 V 22.92 H 618 v 18.67 h -6.22 V 18.05 h 22.9 m 0,-7 h -22.9 a 7,7 0 0 0 -7,7 v 23.54 a 7,7 0 0 0 7,7 H 618 a 7.08,7.08 0 0 1 5.47,0 h 6.15 a 7,7 0 0 1 6.35,0 h 5.87 a 7,7 0 0 0 7,-7 V 25.45 c -0.2,-8.21 -6.29,-14.4 -14.16,-14.4 z"
         fill="#ffffff"
         id="path83" />
      <path
         d="m 447.22,45.09 a 3.51,3.51 0 0 1 -3,-1.67 l -4.32,-7.06 h -0.49 v 5.23 a 3.5,3.5 0 0 1 -3.5,3.5 h -6.13 a 3.5,3.5 0 0 1 -3.5,-3.5 V 18.05 a 3.5,3.5 0 0 1 3.5,-3.5 h 17 a 10,10 0 0 1 7.65,3.65 11.7,11.7 0 0 1 2.42,9.57 9.79,9.79 0 0 1 -3.59,6.23 l 3.84,5.67 a 3.49,3.49 0 0 1 -2.9,5.46 z"
         fill="#1b1b1b"
         id="path85" />
      <path
         d="m 446.75,18.05 c 4.36,0 7.49,4.4 6.61,9.15 a 6.29,6.29 0 0 1 -4.21,5.07 c -0.31,0.12 -0.62,0.21 -1,0.34 2,2.94 4.05,6 6.08,9 h -7 l -5.35,-8.73 h -5.95 v 8.73 H 429.8 V 18.05 h 17 M 435.93,28.64 H 444 a 3.33,3.33 0 0 0 1.27,-0.41 2.38,2.38 0 0 0 1.52,-2.23 2.63,2.63 0 0 0 -1.49,-2.71 5.31,5.31 0 0 0 -1.92,-0.43 h -7.45 v 5.83 M 446.75,11.1 h -17 a 7,7 0 0 0 -7,7 v 23.49 a 7,7 0 0 0 7,7 h 6.13 a 7,7 0 0 0 5.65,-2.87 7,7 0 0 0 5.65,2.87 h 7 A 7,7 0 0 0 460,37.67 l -2.26,-3.33 a 13.41,13.41 0 0 0 2.53,-6 A 15.16,15.16 0 0 0 457.09,16 13.45,13.45 0 0 0 446.75,11.09 Z"
         fill="#ffffff"
         id="path87" />
      <path
         d="m 498.1,45.08 a 14.51,14.51 0 0 1 -4.64,-0.84 c -4.28,-1.5 -6.79,-5.46 -6.54,-10.33 a 10.83,10.83 0 0 1 3.93,-8.08 3.49,3.49 0 0 1 -2.25,-3.27 v -4.51 a 3.49,3.49 0 0 1 3.5,-3.5 h 12.74 c 6.86,0 12.18,5.57 12.38,13 v 14.03 a 3.5,3.5 0 0 1 -3.5,3.5 z"
         fill="#1b1b1b"
         id="path89" />
      <path
         d="m 504.84,18.05 c 4.9,0 8.73,4.09 8.88,9.56 v 14 H 498.1 a 10.86,10.86 0 0 1 -3.47,-0.64 c -2.88,-1 -4.38,-3.56 -4.21,-6.85 0.17,-3.29 2.07,-6 4.92,-6.63 a 8.75,8.75 0 0 1 2,-0.24 h 10 A 4.54,4.54 0 0 0 503,22.56 h -10.9 v -4.51 h 12.74 M 499.62,37 h 7.92 v -5.35 h -7.79 a 2.61,2.61 0 0 0 -2.6,2.46 v 0.25 a 2.48,2.48 0 0 0 2.32,2.64 h 0.15 m 5.22,-25.92 H 492.1 a 7,7 0 0 0 -7,7 v 4.51 a 6.89,6.89 0 0 0 0.9,3.41 15,15 0 0 0 -2.56,7.77 c -0.33,6.48 3.08,11.77 8.89,13.82 a 18.08,18.08 0 0 0 5.62,1 h 15.79 a 7,7 0 0 0 7,-7 V 27.42 c -0.25,-9.18 -7.23,-16.37 -15.88,-16.37 z"
         fill="#ffffff"
         id="path91" />
      <path
         d="m 329.56,45.08 a 3.5,3.5 0 0 1 -3.5,-3.5 V 37 a 3.49,3.49 0 0 1 2.44,-3.34 10.6,10.6 0 0 1 -3.72,-7.84 c -0.34,-4.5 2.56,-10.06 7.43,-11.15 a 3.22,3.22 0 0 1 0.76,-0.08 h 18.1 a 3.5,3.5 0 0 1 3.5,3.5 v 4.74 a 3.49,3.49 0 0 1 -2.29,3.28 8.65,8.65 0 0 1 2.6,3.34 12.15,12.15 0 0 1 -0.48,11.28 9.42,9.42 0 0 1 -8.09,4.39 h -16.75 z"
         fill="#1b1b1b"
         id="path93" />
      <path
         d="m 351.07,18.05 v 4.74 h -13 a 5.35,5.35 0 0 0 -1.13,0.12 2.23,2.23 0 0 0 -1.83,1.87 2.77,2.77 0 0 0 1,2.59 1.48,1.48 0 0 0 0.89,0.29 h 9.17 c 2.26,0.07 4.39,0.72 5.55,3.21 2,4.36 0.46,10.61 -5.46,10.71 h -16.7 V 37 h 13.76 a 2.23,2.23 0 0 0 2.31,-2.11 2.29,2.29 0 0 0 -1.48,-2.54 4.4,4.4 0 0 0 -1.6,-0.33 h -8.49 c -3.46,-0.06 -5.48,-2.36 -5.79,-6.46 -0.24,-3.19 1.86,-6.84 4.7,-7.47 h 18.1 m 0,-7 H 333 a 7.16,7.16 0 0 0 -1.53,0.16 c -6.11,1.37 -10.67,8 -10.15,14.84 a 15.64,15.64 0 0 0 2.28,7.28 7,7 0 0 0 -1,3.63 v 4.62 a 7,7 0 0 0 7,7 h 16.8 a 13,13 0 0 0 11,-6 15.49,15.49 0 0 0 0.7,-14.61 12.44,12.44 0 0 0 -0.92,-1.66 7,7 0 0 0 0.93,-3.49 v -4.81 a 7,7 0 0 0 -7,-7 z"
         fill="#ffffff"
         id="path95" />
      <path
         d="M 595.7,46.27 A 19,19 0 0 1 586,43.62 c -3.84,-2.16 -6.07,-6 -6.59,-11.37 a 18.67,18.67 0 0 1 0.48,-6.88 13.83,13.83 0 0 1 10.41,-10 20.31,20.31 0 0 1 5.53,-0.8 H 596 a 19.28,19.28 0 0 1 8.15,1.82 13.76,13.76 0 0 1 7.78,10.17 c 1.06,6.19 -0.39,11.47 -4.21,15.28 l -0.09,0.09 a 15.84,15.84 0 0 1 -8.46,4 19.42,19.42 0 0 1 -3.47,0.34 z m 0.1,-20.44 a 5.39,5.39 0 0 0 -1.38,0.18 2.23,2.23 0 0 0 -1.77,1.76 c 0,0.06 0,0.12 0,0.18 a 11.07,11.07 0 0 0 -0.16,4.51 c 0,0.11 0,0.21 0,0.31 a 1.61,1.61 0 0 0 1.13,1.42 8.34,8.34 0 0 0 2.26,0.32 h 0.28 c 1.13,0 3.17,-0.08 3.09,-4.07 0,0 0,-0.89 -0.06,-1.18 0,-0.8 -0.32,-2.75 -2,-3.24 a 5.73,5.73 0 0 0 -1.39,-0.19 z"
         fill="#1b1b1b"
         id="path97" />
      <path
         d="m 596,18.05 a 15.67,15.67 0 0 1 6.66,1.48 10.31,10.31 0 0 1 5.82,7.61 c 0.79,4.6 0.07,8.91 -3.23,12.2 a 12.32,12.32 0 0 1 -6.66,3.15 14.92,14.92 0 0 1 -2.9,0.28 15.43,15.43 0 0 1 -7.87,-2.16 c -3.2,-1.8 -4.53,-4.92 -4.9,-8.7 a 15.37,15.37 0 0 1 0.39,-5.65 10.25,10.25 0 0 1 7.94,-7.53 17,17 0 0 1 4.64,-0.68 H 596 m -0.13,20 h 0.41 c 4.22,-0.11 6.56,-2.94 6.45,-7.65 0,-0.42 0,-0.85 0,-1.28 -0.18,-3.22 -1.87,-5.64 -4.49,-6.41 a 8.91,8.91 0 0 0 -2.4,-0.33 9,9 0 0 0 -2.25,0.29 5.7,5.7 0 0 0 -4.34,4.5 14.46,14.46 0 0 0 -0.21,5.93 5.14,5.14 0 0 0 3.57,4.48 11.57,11.57 0 0 0 3.31,0.48 m 0.13,-27 h -0.16 a 23.68,23.68 0 0 0 -6.43,0.92 17.12,17.12 0 0 0 -12.83,12.36 c 0,0.05 0,0.1 0,0.16 a 22,22 0 0 0 -0.58,8.17 c 0.8,8.08 5,12.08 8.35,14 a 22.42,22.42 0 0 0 11.38,3.1 22,22 0 0 0 4,-0.37 19.17,19.17 0 0 0 10.22,-4.92 1.7,1.7 0 0 0 0.19,-0.19 c 3.25,-3.24 6.79,-9 5.19,-18.34 A 17.28,17.28 0 0 0 605.59,13.18 22.69,22.69 0 0 0 596,11.05 Z"
         fill="#ffffff"
         id="path99" />
      <path
         d="m 414.57,45.07 h -0.18 c -7.64,-0.39 -12.8,-6.37 -12.57,-14.54 a 23.18,23.18 0 0 1 1,-6.87 v -0.13 c 1.95,-5.54 6.54,-9 12,-9 h 11.64 a 3.5,3.5 0 0 1 3.5,3.5 v 4.76 a 3.48,3.48 0 0 1 -0.9,2.34 3.48,3.48 0 0 1 0.9,2.34 V 32 a 3.48,3.48 0 0 1 -1,2.48 3.48,3.48 0 0 1 0.92,2.36 v 4.77 a 3.5,3.5 0 0 1 -3.5,3.5 z"
         fill="#1b1b1b"
         id="path101" />
      <path
         d="m 426.48,18.05 v 4.76 h -8.77 -1.12 c -2.34,0 -4.29,2 -4.6,4.7 h 14.49 V 32 h -14.6 c 0,2.83 1.82,4.84 4.23,4.84 h 10.26 v 4.77 h -11.8 c -5.87,-0.3 -9.44,-4.94 -9.25,-11 a 19.44,19.44 0 0 1 0.85,-5.87 c 1.45,-4.09 4.76,-6.63 8.67,-6.63 h 11.64 m 0,-7 h -11.64 c -6.85,0 -12.85,4.43 -15.27,11.3 l -0.09,0.27 a 26.53,26.53 0 0 0 -1.16,7.86 c -0.25,10 6.41,17.59 15.89,18.08 h 12.16 a 7,7 0 0 0 7,-7 V 36.8 a 7,7 0 0 0 -0.38,-2.27 6.84,6.84 0 0 0 0.49,-2.57 v -4.47 a 7,7 0 0 0 -0.4,-2.34 7.1,7.1 0 0 0 0.4,-2.34 v -4.76 a 7,7 0 0 0 -7,-7 z"
         fill="#ffffff"
         id="path103" />
      <path
         d="m 361.11,45.09 a 9.07,9.07 0 0 1 -7.49,-3.93 12,12 0 0 1 -2.5,-7.59 c 0.12,-4.6 0,-15.39 0,-15.5 a 3.48,3.48 0 0 1 3.5,-3.52 h 6 a 3.54,3.54 0 0 1 2.48,1 3.45,3.45 0 0 1 1,2.48 c 0,0 0,15.17 0,15.23 h 3.33 V 18.05 a 3.5,3.5 0 0 1 3.5,-3.5 h 6 a 3.5,3.5 0 0 1 3.5,3.5 v 23.53 a 3.5,3.5 0 0 1 -3.5,3.5 z"
         fill="#1b1b1b"
         id="path105" />
      <path
         d="m 377,18.05 v 23.53 h -15.88 a 5.6,5.6 0 0 1 -4.67,-2.49 8.49,8.49 0 0 1 -1.83,-5.45 c 0.12,-4.7 0,-15.6 0,-15.6 h 6 v 15 c 0,2.21 1.05,3.5 2.88,3.69 H 371 V 18.05 h 6 m -16.31,0 v 0 m 16.3,-7 h -6 a 7,7 0 0 0 -5.15,2.25 7,7 0 0 0 -5.15,-2.25 h -6 a 7,7 0 0 0 -7,7.05 c 0,0.1 0.08,10.84 0,15.38 a 15.5,15.5 0 0 0 3.16,9.75 12.61,12.61 0 0 0 10.33,5.36 H 377 a 7,7 0 0 0 7,-7 V 18.05 a 7,7 0 0 0 -7,-7 z"
         fill="#ffffff"
         id="path107" />
      <path
         d="m 380.57,45.09 a 3.5,3.5 0 0 1 -3.5,-3.5 V 18.05 a 3.5,3.5 0 0 1 3.5,-3.5 h 16.12 c 4.48,0 8.58,3.55 9.76,8.45 a 11.86,11.86 0 0 1 -2.05,10.18 10.21,10.21 0 0 1 -8,4 h -6.42 v 4.45 a 3.5,3.5 0 0 1 -3.5,3.5 z"
         fill="#1b1b1b"
         id="path109" />
      <path
         d="m 396.69,18.05 c 2.78,0 5.53,2.33 6.36,5.77 1.22,5.11 -2,9.79 -6.72,9.81 h -9.9 v 8 h -5.86 V 18.05 h 16.12 m -10.07,11 h 8.1 a 1.85,1.85 0 0 0 1,-0.45 4,4 0 0 0 1.21,-3.49 2.73,2.73 0 0 0 -2.8,-2.32 h -7.48 v 6.26 m 10.07,-18 h -16.15 a 7,7 0 0 0 -7,7 v 23.54 a 7,7 0 0 0 7,7 h 5.86 a 7,7 0 0 0 7,-7 v -1 h 2.93 a 13.69,13.69 0 0 0 10.79,-5.29 15.32,15.32 0 0 0 2.7,-13.15 C 408.3,15.69 402.77,11.01 396.69,11.01 Z"
         fill="#ffffff"
         id="path111" />
      <path
         d="m 467.52,45.09 a 3.5,3.5 0 0 1 -3.5,-3.5 V 27.68 c 0,-7.14 5,-12.9 11.3,-13.13 h 13.45 a 3.5,3.5 0 0 1 2.48,1 3.54,3.54 0 0 1 1,2.48 v 4.51 a 3.48,3.48 0 0 1 -1.07,2.52 3.48,3.48 0 0 1 0.81,2.25 v 5 a 3.5,3.5 0 0 1 -3.5,3.5 h -11.4 v 5.78 a 3.5,3.5 0 0 1 -3.5,3.5 z"
         fill="#1b1b1b"
         id="path113" />
      <path
         d="m 488.77,18.05 v 4.51 h -10.26 a 5.19,5.19 0 0 0 -4.26,2.58 4.46,4.46 0 0 0 -0.61,2.19 h 14.87 v 5 h -14.92 v 9.28 h -6.06 V 27.68 c 0,-5 3.41,-9.47 7.91,-9.63 h 13.33 m 0,-7 h -13.58 c -8.22,0.3 -14.66,7.6 -14.66,16.63 v 13.91 a 7,7 0 0 0 7,7 h 6.06 a 7,7 0 0 0 7,-7 v -2.28 h 7.92 a 7,7 0 0 0 7,-7 v -5 a 6.78,6.78 0 0 0 -0.3,-2 7,7 0 0 0 0.56,-2.74 v -4.52 a 7,7 0 0 0 -7,-7 z"
         fill="#ffffff"
         id="path115" />
      <polygon
         points=""
         fill="#1b1b1b"
         id="polygon117" />
      <polyline
         points="581.07 36.97 581.07 36.97 581.07 36.97 581.07 36.97"
         fill="#ffffff"
         id="polyline119" />
      <path
         d="m 570,45.09 c -6.21,0 -11.17,-4.23 -12.63,-10.77 a 18.8,18.8 0 0 1 1.84,-13.68 11.3,11.3 0 0 1 10,-6.1 h 12 a 3.49,3.49 0 0 1 3.5,3.5 v 4.66 a 3.49,3.49 0 0 1 -3.5,3.5 h -10.07 a 1.07,1.07 0 0 0 -0.3,0 4.71,4.71 0 0 0 -0.25,0.63 9.92,9.92 0 0 0 -0.15,5.66 c 0.28,0.95 0.64,0.95 1,0.95 h 9.61 a 3.5,3.5 0 0 1 3.5,3.5 v 4.62 a 3.5,3.5 0 0 1 -3.5,3.5 z"
         fill="#1b1b1b"
         id="path121" />
      <path
         d="m 569.24,18 h 12 v 4.7 h -10.1 c -2,0 -3.24,1 -3.89,3.11 a 13.36,13.36 0 0 0 -0.18,7.62 4.38,4.38 0 0 0 4.39,3.57 h 9.61 v 4.62 H 570 c -4.6,0 -8.1,-3 -9.21,-8 a 15.48,15.48 0 0 1 1.5,-11.27 7.85,7.85 0 0 1 7,-4.25 m 0,-7 A 14.77,14.77 0 0 0 556.11,19 22.37,22.37 0 0 0 554,35.17 c 1.86,8.15 8.14,13.42 16,13.42 h 11.09 a 7,7 0 0 0 7,-7 V 37 a 7,7 0 0 0 -7,-7 h -7.49 v -0.3 h 7.59 a 7,7 0 0 0 7,-7 v -4.65 a 7,7 0 0 0 -7,-7 h -12 z"
         fill="#ffffff"
         id="path123" />
      <rect
         x="547.5"
         y="14.55"
         width="13.49"
         height="30.559999"
         rx="3.5"
         fill="#1b1b1b"
         id="rect125" />
      <path
         d="M 557.49,18.05 V 41.61 H 551 V 18.05 h 6.49 m 0,-7 H 551 a 7,7 0 0 0 -7,7 v 23.56 a 7,7 0 0 0 7,7 h 6.49 a 7,7 0 0 0 7,-7 V 18.05 a 7,7 0 0 0 -7,-7 z"
         fill="#ffffff"
         id="path127" />
      <g
         id="Capa_1"
         data-name="Capa 1">
        <g
           id="_29211eff"
           data-name=" 29211eff">
          <path
             d="m 429.48,50 c 3.57,0 7.13,-0.1 10.7,-0.18 0,4.62 0.09,9.24 0.12,13.87 2.71,0 5.42,0 8.14,0 q -0.06,4.22 -0.09,8.43 -3.94,0 -7.89,-0.09 c 0.05,5.41 0.12,10.81 0.17,16.21 l 6.4,0.08 q 0.08,4.1 0.18,8.21 c -4.49,-0.1 -9,0.32 -13.48,-0.55 a 4,4 0 0 1 -3.21,-4.14 c -0.74,-6.53 -0.4,-13.14 -0.49,-19.71 h -3.91 c -0.15,-2.76 -0.33,-5.53 -0.51,-8.29 l 4.2,-0.05 C 429.67,59.18 429.54,54.57 429.48,50 Z"
             fill="#1b1b1b"
             id="path129" />
          <path
             d="m 494.34,49.72 c 3.61,-0.06 7.22,-0.16 10.84,-0.18 Q 504.67,73 504.64,96.49 c -3.54,0 -7.09,0 -10.63,0 0.29,-15.59 0.29,-31.18 0.33,-46.77 z"
             fill="#1b1b1b"
             id="path131" />
          <path
             d="m 509.75,49.59 c 3.61,0 7.21,0.08 10.82,0.15 q -0.77,23.28 -0.79,46.6 c -3.58,0.06 -7.16,0.09 -10.74,0.15 0.25,-15.63 0.65,-31.26 0.71,-46.9 z"
             fill="#1b1b1b"
             id="path133" />
          <path
             d="m 618.8,45.88 c 3.22,-2 8.78,-0.08 8.4,5 -0.64,6.18 -8.1,6.91 -11.12,2.72 -1.14,-3.03 0.16,-6.52 2.72,-7.72 z"
             fill="#1b1b1b"
             id="path135" />
          <path
             d="m 328.52,60.7 c 1,-6.84 7.22,-10.35 12.65,-10.46 11.53,-0.43 23.07,-0.18 34.61,-0.46 0.06,3 0.15,6 0.22,9 -9.36,-0.19 -18.72,0.07 -28.1,0 -2.5,0.24 -7.42,-0.16 -9.19,2.44 a 5,5 0 0 0 0.84,6.45 c 7.38,2.46 23.39,-1.08 34.66,2.87 7.82,2.41 9.71,16 4,22 -3.54,3.11 -8.2,3.41 -12.45,3.57 -11.67,0.13 -23.34,-0.1 -35,0.38 -0.24,-2.91 -0.45,-5.82 -0.7,-8.71 10.78,-0.11 21.55,-0.16 32.32,-0.34 2.65,-0.24 6.3,-0.1 7.49,-3.57 1.41,-2.56 -1.19,-5.31 -3.09,-6.11 -9.79,-1.89 -19.93,1.12 -29.65,-1.57 -5.86,-1.51 -10,-8.56 -8.61,-15.49 z"
             fill="#1b1b1b"
             id="path137" />
          <path
             d="m 527.1,63.39 c 8.63,0.34 17.27,-0.48 25.88,0.27 3.82,0.53 8.73,1.86 9.88,6.89 1,5.41 0.62,11.08 0,16.51 -0.62,5.43 -5.19,8 -9.19,8.67 -6.31,1 -12.7,0.74 -19,0.68 -3.31,-0.18 -7.23,-0.41 -9.47,-3.68 -1.95,-3.55 -2.07,-9.52 1.85,-11.25 8.49,-3.71 17.77,-4 26.36,-7.33 -2,-1 -4.12,-2.15 -6.38,-2.14 -6.7,-0.19 -13.41,0.12 -20.11,0 l 0.23,-8.61 M 533,88 a 64.2,64.2 0 0 0 16.21,0.26 c 2.75,0 3,-4 4.22,-6.07 -6.81,1.74 -13.98,2.28 -20.43,5.81 z"
             fill="#1b1b1b"
             id="path139" />
          <path
             d="m 562.63,62.8 c 3.85,-0.07 7.69,-0.1 11.54,-0.11 4.18,8.62 8.64,17 12.83,25.65 4.71,-8.75 10.09,-17 14.88,-25.65 q 5.83,0 11.7,0 c -5,8.26 -9.92,16.59 -14.82,24.93 -2.17,3.43 -4.42,7.67 -8.3,8.46 -4.4,0.87 -10.07,1 -12.8,-4 -5.45,-9.46 -9.88,-19.64 -15.03,-29.28 z"
             fill="#1b1b1b"
             id="path141" />
          <path
             d="m 615.59,63.46 c 3.59,-0.15 7.19,-0.28 10.78,-0.41 -0.61,11.14 -1.15,22.29 -1.75,33.44 -3.6,-0.06 -7.19,-0.13 -10.79,-0.17 0.65,-10.95 1.03,-21.92 1.76,-32.86 z"
             fill="#1b1b1b"
             id="path143" />
          <path
             d="m 631.69,69.12 c 3.89,-6.15 11.25,-5.8 17.1,-6 6.06,0.41 12.56,-1.06 18.26,1.95 3,1.67 3.1,6.14 2.72,9.48 -0.46,3.07 -3.2,4.43 -5.46,5.16 -8.19,2.47 -16.68,3.24 -24.85,5.85 2.18,1.44 4.54,2.59 7.06,2.44 7.07,0.09 14.15,-0.47 21.23,-0.3 q -0.25,4.38 -0.48,8.77 c -9.54,-0.2 -19.12,0.4 -28.63,-0.57 -3.75,-0.47 -8.73,-2.54 -8.87,-7.82 -0.1,-6.32 -0.23,-13.06 1.92,-19 m 8.06,8.54 c 6.9,-1.4 13.88,-2.6 20.56,-5.19 a 43.54,43.54 0 0 0 -15.84,-0.87 c -2.82,0 -3.4,3.87 -4.72,6.06 z"
             fill="#1b1b1b"
             id="path145" />
          <path
             d="m 669.44,62.07 q 6,0 12.09,0 c 3.68,8.7 7.75,17.17 11.53,25.82 3.65,-8.64 7.33,-17.25 11.22,-25.73 3.66,0.08 7.32,0.1 11,0.08 2.22,8.5 4.44,17 6.48,25.6 5.55,-8.4 10.71,-17.15 16.3,-25.5 4,0 8,0.07 11.93,0.07 -6.3,9.23 -12.08,19 -18.43,28.14 -3.91,6 -12.16,8 -17.36,3.26 -3.51,-5.33 -4,-12.44 -5.56,-18.71 -2,4.72 -3.81,9.59 -6,14.22 a 10.8,10.8 0 0 1 -19.92,0.73 C 678,81 674.43,71 669.44,62.07 Z"
             fill="#1b1b1b"
             id="path147" />
          <path
             d="m 451.23,71.39 c 1.52,-5.79 7.37,-7.08 11.84,-7.38 7.1,-0.27 14.31,-1 21.34,0.44 5.7,0.7 8.19,12.14 2.21,14.51 -8.46,3.38 -17.56,3.74 -26.07,7 2.14,1.34 4.43,2.53 6.91,2.37 7.14,0 14.28,-0.21 21.41,-0.2 q 0,4.17 -0.08,8.33 c -8.89,-0.14 -17.78,0.27 -26.66,-0.19 -4.25,-0.29 -9.69,-1.83 -10.92,-7.39 a 67.37,67.37 0 0 1 0,-17.49 m 11.89,0.87 c -1.45,1.52 -1.83,3.93 -2.66,5.91 6.78,-1.59 13.66,-2.8 20.25,-5.33 -5.7,-2 -11.79,-1.68 -17.59,-0.58 z"
             fill="#1b1b1b"
             id="path149" />
          <path
             d="m 423.65,88.67 c -1.53,5.8 -7.38,7.09 -11.84,7.39 -7.1,0.26 -14.32,1 -21.34,-0.45 -5.7,-0.69 -8.19,-12.14 -2.21,-14.51 8.46,-3.37 17.56,-3.74 26.07,-7 -2.14,-1.34 -4.43,-2.53 -6.91,-2.37 -7.14,0 -14.28,0.21 -21.41,0.2 q 0,-4.17 0.08,-8.34 c 8.89,0.15 17.78,-0.26 26.66,0.2 4.25,0.29 9.69,1.83 10.92,7.39 a 67.73,67.73 0 0 1 0,17.48 M 411.78,87.8 c 1.45,-1.52 1.83,-3.93 2.66,-5.92 -6.78,1.6 -13.66,2.81 -20.25,5.34 5.68,1.97 11.81,1.69 17.57,0.59 z"
             fill="#1b1b1b"
             id="path151" />
        </g>
        <path
           d="M 314.54,64.43 A 76.53,76.53 0 0 0 266.21,17.51 h 14.29 c 15,9.54 27.82,27.36 34.27,41.73 z"
           fill="#1b1b1b"
           id="path154" />
        <path
           d="m 302.92,17.62 c 5.32,6 9,14.11 11.85,21.93 v -22 z"
           fill="#1b1b1b"
           id="path156" />
        <path
           d="m 291.19,17.51 h 6.62 c 6.18,8.57 12.79,19 16.85,28.63 v 6.48 C 308.54,40.56 301,25.69 291.19,17.51 Z"
           fill="#1b1b1b"
           id="path158" />
        <path
           d="m 251.69,96.38 c 12.81,-3.42 6.66,-13.27 3.49,-22 7,9 17.29,18.07 28.11,22.15 z"
           fill="#1b1b1b"
           id="path160" />
        <path
           d="m 299,43.32 c 15.12,15.68 19.86,36.84 10.56,47.23 -9.3,10.39 -29.1,6.11 -44.23,-9.58 -15.13,-15.69 -19.87,-36.84 -10.57,-47.24 9.3,-10.4 29.09,-6.1 44.24,9.59 z"
           fill="#1b1b1b"
           id="path162" />
        <path
           d="m 307.17,64.14 c -1.43,4.28 -7.16,5.14 -12.8,1.9 -5.64,-3.24 -9.05,-9.33 -7.62,-13.61 1.43,-4.28 7.16,-5.13 12.8,-1.9 5.64,3.23 9.05,9.32 7.62,13.61"
           fill="#e4262a"
           id="path164" />
        <path
           d="m 306.54,63.94 c -0.76,2.23 -2.75,3.4 -5.51,3.42 a 13,13 0 0 1 -6.33,-1.88 c -4.6,-2.62 -7.64,-7.29 -7.62,-11 a 6.07,6.07 0 0 1 0.3,-1.89 c 0.75,-2.22 2.75,-3.39 5.5,-3.41 a 13,13 0 0 1 6.33,1.87 c 4.61,2.62 7.64,7.29 7.62,11 a 6.06,6.06 0 0 1 -0.29,1.89 l 1.26,0.4 a 7.45,7.45 0 0 0 0.36,-2.29 c 0,-4.33 -3.34,-9.23 -8.28,-12.08 a 14.28,14.28 0 0 0 -7,-2 c -3.13,0 -5.83,1.48 -6.76,4.31 a 6.86,6.86 0 0 0 -0.36,2.29 c 0,4.33 3.33,9.23 8.27,12.08 a 14.21,14.21 0 0 0 7,2.05 c 3.14,0 5.84,-1.47 6.77,-4.31 l -1.26,-0.4 z"
           fill="#e4262a"
           id="path166" />
        <path
           d="m 300.39,69.21 c 0,4.53 -5,8.21 -11.17,8.21 -6.17,0 -11.17,-3.67 -11.17,-8.21 0,-4.54 5,-8.2 11.17,-8.2 6.17,0 11.17,3.67 11.17,8.2"
           fill="#1b1b1b"
           id="path168" />
        <path
           d="m 299.79,69.21 a 6.7,6.7 0 0 1 -3,5.33 13.55,13.55 0 0 1 -15.07,0 6.2,6.2 0 0 1 0,-10.66 13.55,13.55 0 0 1 15.07,0 6.7,6.7 0 0 1 3,5.33 H 301 c 0,-5 -5.38,-8.78 -11.77,-8.79 -6.39,-0.01 -11.73,3.79 -11.77,8.79 -0.04,5 5.38,8.79 11.76,8.79 6.38,0 11.78,-3.79 11.78,-8.79 z"
           fill="#1b1b1b"
           id="path170" />
        <path
           d="m 306.67,75.72 c 0,3.91 -4.55,7.07 -10.16,7.07 -5.61,0 -10.17,-3.16 -10.17,-7.06 0,-3.9 4.55,-7.08 10.16,-7.08 5.61,0 10.17,3.16 10.17,7.07"
           fill="#f7e82a"
           id="path172" />
        <path
           d="m 306.14,75.72 a 5.67,5.67 0 0 1 -2.75,4.57 13,13 0 0 1 -13.76,0 5.18,5.18 0 0 1 0,-9.15 13,13 0 0 1 13.76,0 5.67,5.67 0 0 1 2.75,4.57 h 1.07 c 0,-4.34 -4.92,-7.58 -10.71,-7.59 -5.79,-0.01 -10.65,3.25 -10.69,7.6 -0.04,4.35 4.91,7.58 10.7,7.58 5.79,0 10.65,-3.25 10.7,-7.59 z"
           fill="#f7e82a"
           id="path174" />
        <path
           d="m 284.16,59.69 c -1.44,4.31 -7.24,5.17 -12.94,1.91 -5.7,-3.26 -9.16,-9.4 -7.71,-13.71 1.45,-4.31 7.24,-5.18 12.94,-1.92 5.7,3.26 9.16,9.4 7.71,13.72"
           fill="#33a8e0"
           id="path176" />
        <path
           d="m 283.53,59.48 c -0.77,2.25 -2.78,3.42 -5.57,3.45 A 13.21,13.21 0 0 1 271.55,61 c -4.65,-2.64 -7.73,-7.35 -7.7,-11 a 5.89,5.89 0 0 1 0.29,-1.9 c 0.77,-2.24 2.79,-3.42 5.57,-3.44 a 13.31,13.31 0 0 1 6.41,1.88 c 4.65,2.64 7.73,7.35 7.7,11 a 5.84,5.84 0 0 1 -0.29,1.9 l 1.27,0.41 a 7.29,7.29 0 0 0 0.36,-2.31 c 0,-4.37 -3.38,-9.31 -8.37,-12.18 a 14.59,14.59 0 0 0 -7.08,-2.06 c -3.17,0 -5.9,1.49 -6.84,4.35 a 7.18,7.18 0 0 0 -0.36,2.3 c 0,4.37 3.37,9.31 8.37,12.18 a 14.5,14.5 0 0 0 7.12,2.11 c 3.17,0 5.89,-1.49 6.84,-4.35 l -1.27,-0.41 z"
           fill="#33a8e0"
           id="path178" />
        <path
           d="m 279.38,64.84 c 0,4.53 -5,8.2 -11.17,8.2 -6.17,0 -11.21,-3.67 -11.21,-8.2 0,-4.53 5,-8.21 11.17,-8.21 6.17,0 11.17,3.67 11.17,8.2"
           fill="#1b1b1b"
           id="path180" />
        <path
           d="m 278.78,64.84 a 6.72,6.72 0 0 1 -3,5.33 13.55,13.55 0 0 1 -15.07,0 6.21,6.21 0 0 1 0,-10.67 13.59,13.59 0 0 1 15.07,0 6.7,6.7 0 0 1 3,5.33 H 280 c 0,-5 -5.4,-8.78 -11.78,-8.79 -6.38,-0.01 -11.73,3.79 -11.77,8.8 -0.04,5.01 5.39,8.78 11.77,8.79 6.38,0.01 11.78,-3.8 11.78,-8.79 z"
           fill="#1b1b1b"
           id="path182" />
        <path
           d="m 284.36,71.5 c 0,3.9 -4.55,7.07 -10.17,7.07 -5.62,0 -10.19,-3.16 -10.19,-7.07 0,-3.91 4.55,-7.06 10.17,-7.07 5.62,-0.01 10.16,3.17 10.17,7.07"
           fill="#8fc047"
           id="path184" />
        <path
           d="m 283.82,71.5 a 5.67,5.67 0 0 1 -2.75,4.57 13,13 0 0 1 -13.76,0 5.18,5.18 0 0 1 0,-9.15 13,13 0 0 1 13.76,0 5.69,5.69 0 0 1 2.75,4.57 h 1.07 c -0.05,-4.34 -4.92,-7.59 -10.7,-7.59 -5.78,0 -10.66,3.25 -10.7,7.59 -0.04,4.34 4.91,7.59 10.7,7.59 5.79,0 10.65,-3.25 10.7,-7.59 z"
           fill="#8fc047"
           id="path186" />
        <path
           d="M 523.42,41.59 H 517.2 V 18.05 h 22.91 c 3.95,0 7,3.14 7.15,7.57 v 16 h -5.87 V 27 c 0,-2.18 -1.14,-3.69 -3.07,-3.89 a 32.62,32.62 0 0 0 -3.28,0 v 18.48 h -6.15 V 22.92 h -5.47 z"
           fill="#1b1b1b"
           id="path188" />
        <path
           d="m 618,41.59 h -6.22 V 18.05 h 22.9 c 4,0 7,3.14 7.16,7.57 v 16 H 636 V 27 c 0,-2.18 -1.15,-3.69 -3.08,-3.89 a 32.43,32.43 0 0 0 -3.27,0 V 41.59 H 623.5 V 22.92 H 618 Z"
           fill="#1b1b1b"
           id="path190" />
        <path
           d="m 448.12,32.61 6.08,9 h -7 l -5.35,-8.73 h -5.95 v 8.73 h -6.13 V 18.05 h 17 c 4.36,0 7.49,4.4 6.61,9.15 a 6.29,6.29 0 0 1 -4.21,5.07 c -0.33,0.12 -0.64,0.21 -1.05,0.34 z m -12.19,-4 H 444 a 3.5,3.5 0 0 0 1.27,-0.4 2.4,2.4 0 0 0 1.52,-2.21 2.63,2.63 0 0 0 -1.49,-2.71 5.31,5.31 0 0 0 -1.92,-0.43 h -7.45 z"
           fill="#1b1b1b"
           id="path192" />
        <path
           d="M 513.72,41.58 H 498.1 a 10.86,10.86 0 0 1 -3.47,-0.64 c -2.88,-1 -4.38,-3.56 -4.21,-6.85 0.17,-3.29 2.07,-6 4.92,-6.63 a 8.75,8.75 0 0 1 2,-0.24 h 10 A 4.54,4.54 0 0 0 503,22.56 h -10.9 v -4.51 h 12.74 c 4.9,0 8.73,4.09 8.88,9.56 v 14 z m -6.18,-9.93 h -7.64 a 2.61,2.61 0 0 0 -2.75,2.45 v 0.25 a 2.48,2.48 0 0 0 2.32,2.65 1.53,1.53 0 0 0 0.37,0 h 7.7 z"
           fill="#1b1b1b"
           id="path194" />
        <path
           d="M 329.56,41.58 V 37 h 13.76 a 2.23,2.23 0 0 0 2.31,-2.11 2.29,2.29 0 0 0 -1.48,-2.54 4.4,4.4 0 0 0 -1.6,-0.33 h -8.49 c -3.46,-0.06 -5.48,-2.36 -5.79,-6.46 -0.24,-3.19 1.86,-6.84 4.7,-7.47 h 18.1 v 4.74 h -13 a 5.52,5.52 0 0 0 -1.14,0.12 2.23,2.23 0 0 0 -1.83,1.87 2.77,2.77 0 0 0 1,2.59 1.54,1.54 0 0 0 0.91,0.29 h 9.15 c 2.26,0.07 4.39,0.72 5.55,3.21 2,4.36 0.46,10.61 -5.46,10.71 z"
           fill="#1b1b1b"
           id="path196" />
        <path
           d="m 595.9,18.05 a 15.68,15.68 0 0 1 6.77,1.48 10.31,10.31 0 0 1 5.82,7.61 c 0.79,4.6 0.07,8.91 -3.23,12.2 a 12.32,12.32 0 0 1 -6.66,3.15 15.42,15.42 0 0 1 -10.77,-1.88 c -3.2,-1.8 -4.53,-4.92 -4.9,-8.7 a 15.37,15.37 0 0 1 0.39,-5.65 10.25,10.25 0 0 1 7.94,-7.53 17,17 0 0 1 4.64,-0.68 z m 6.84,12.3 c 0,-0.42 0,-0.85 0,-1.28 -0.18,-3.22 -1.87,-5.64 -4.49,-6.41 a 8.94,8.94 0 0 0 -4.65,0 5.7,5.7 0 0 0 -4.34,4.5 14.46,14.46 0 0 0 -0.21,5.93 5.14,5.14 0 0 0 3.57,4.48 12,12 0 0 0 3.72,0.47 c 4.17,-0.15 6.51,-2.98 6.4,-7.69 z"
           fill="#1b1b1b"
           id="path198" />
        <path
           d="M 426.48,27.49 V 32 h -14.6 c 0,2.83 1.82,4.84 4.23,4.84 h 10.26 v 4.77 h -11.8 c -5.87,-0.3 -9.44,-4.94 -9.25,-11 a 19.44,19.44 0 0 1 0.85,-5.87 c 1.45,-4.09 4.76,-6.63 8.67,-6.63 h 11.64 v 4.76 c 0,0 -8,0 -9.89,0 -2.34,0 -4.29,2 -4.6,4.7 z"
           fill="#1b1b1b"
           id="path200" />
        <path
           d="M 371,36.78 V 18.05 h 6 v 23.53 h -15.81 a 5.59,5.59 0 0 1 -4.74,-2.49 8.49,8.49 0 0 1 -1.83,-5.45 c 0.12,-4.7 0,-15.6 0,-15.6 h 6 v 15 c 0,2.21 1.05,3.5 2.88,3.69 z"
           fill="#1b1b1b"
           id="path202" />
        <path
           d="m 386.43,33.63 v 8 h -5.86 V 18.05 h 16 c 2.83,-0.09 5.67,2.27 6.51,5.77 1.22,5.11 -2,9.79 -6.72,9.81 -3,0 -6,0 -9.07,0 z m 0.19,-4.58 h 8.1 a 1.85,1.85 0 0 0 1,-0.45 4,4 0 0 0 1.21,-3.49 2.73,2.73 0 0 0 -2.8,-2.32 h -7.48 z"
           fill="#1b1b1b"
           id="path204" />
        <path
           d="m 488.77,18.05 v 4.51 h -10.26 a 5.19,5.19 0 0 0 -4.26,2.58 4.46,4.46 0 0 0 -0.61,2.19 h 14.87 v 5 h -14.92 v 9.28 h -6.06 V 27.68 c 0,-5 3.41,-9.47 7.91,-9.63 z"
           fill="#1b1b1b"
           id="path206" />
        <path
           d="m 581.07,37 v 4.62 H 570 c -4.6,0 -8.1,-3 -9.21,-8 a 15.48,15.48 0 0 1 1.5,-11.27 7.84,7.84 0 0 1 7.09,-4.24 h 11.83 v 4.59 h -10.07 c -2,0 -3.24,1 -3.89,3.11 a 13.36,13.36 0 0 0 -0.18,7.62 4.38,4.38 0 0 0 4.39,3.57 z"
           fill="#1b1b1b"
           id="path208" />
        <rect
           x="551"
           y="18.049999"
           width="6.4899998"
           height="23.559999"
           fill="#1b1b1b"
           id="rect210" />
      </g>
    </g>
  </g>
  <metadata
     id="metadata1035">
    <rdf:RDF>
      <cc:Work
         rdf:about="">
        <dc:title>logo</dc:title>
      </cc:Work>
    </rdf:RDF>
  </metadata>
</svg>
