<?xml version="1.0" encoding="UTF-8" standalone="no"?>
<svg
   id="Layer_1"
   data-name="Layer 1"
   viewBox="0 0 513.99274 70.517448"
   version="1.1"
   sodipodi:docname="saturn.svg"
   width="513.99274"
   height="70.517448"
   inkscape:version="1.1 (c68e22c387, 2021-05-23)"
   xmlns:inkscape="http://www.inkscape.org/namespaces/inkscape"
   xmlns:sodipodi="http://sodipodi.sourceforge.net/DTD/sodipodi-0.dtd"
   xmlns:xlink="http://www.w3.org/1999/xlink"
   xmlns="http://www.w3.org/2000/svg"
   xmlns:svg="http://www.w3.org/2000/svg"
   xmlns:rdf="http://www.w3.org/1999/02/22-rdf-syntax-ns#"
   xmlns:cc="http://creativecommons.org/ns#"
   xmlns:dc="http://purl.org/dc/elements/1.1/">
  <sodipodi:namedview
     id="namedview115"
     pagecolor="#ffffff"
     bordercolor="#666666"
     borderopacity="1.0"
     inkscape:pageshadow="2"
     inkscape:pageopacity="0.0"
     inkscape:pagecheckerboard="0"
     showgrid="false"
     fit-margin-top="0"
     fit-margin-left="0"
     fit-margin-right="0"
     fit-margin-bottom="0"
     inkscape:zoom="1.113"
     inkscape:cx="257.4124"
     inkscape:cy="35.040431"
     inkscape:window-width="1920"
     inkscape:window-height="1138"
     inkscape:window-x="-8"
     inkscape:window-y="-8"
     inkscape:window-maximized="1"
     inkscape:current-layer="Layer_1" />
  <defs
     id="defs29">
    <radialGradient
       id="radial-gradient"
       cx="267.19"
       cy="-557.26001"
       r="97.720001"
       gradientTransform="matrix(1,0,0,-1,-0.04,-526.13)"
       gradientUnits="userSpaceOnUse">
      <stop
         offset="0"
         stop-color="#fff"
         id="stop2" />
      <stop
         offset="1"
         id="stop4" />
    </radialGradient>
    <radialGradient
       id="radial-gradient-2"
       cx="298.75"
       cy="1490.4399"
       r="24.940001"
       gradientTransform="translate(-0.18,-1445.24)"
       gradientUnits="userSpaceOnUse">
      <stop
         offset="0.04"
         stop-color="#fff"
         id="stop7" />
      <stop
         offset="0.23"
         stop-color="#6e93e1"
         id="stop9" />
      <stop
         offset="1"
         stop-color="#363499"
         id="stop11" />
    </radialGradient>
    <radialGradient
       id="radial-gradient-3"
       cx="223.56"
       cy="1176.83"
       r="216.06"
       gradientTransform="translate(-0.09,-1049.76)"
       xlink:href="#radial-gradient" />
    <linearGradient
       id="linear-gradient"
       x1="351.95999"
       y1="-998.25"
       x2="387.79001"
       y2="-962.41998"
       gradientTransform="matrix(1,0,0,-1,-0.13,-921.61)"
       gradientUnits="userSpaceOnUse">
      <stop
         offset="0"
         stop-color="#999"
         id="stop15" />
      <stop
         offset="0.98"
         stop-color="#f3f3f3"
         id="stop17" />
    </linearGradient>
    <linearGradient
       id="linear-gradient-2"
       x1="390.03"
       y1="-995.21997"
       x2="424.91"
       y2="-960.34003"
       xlink:href="#linear-gradient" />
    <linearGradient
       id="linear-gradient-3"
       x1="423.19"
       y1="-998.90997"
       x2="461.57999"
       y2="-960.51001"
       xlink:href="#linear-gradient" />
    <linearGradient
       id="linear-gradient-4"
       x1="467.41"
       y1="-1000.4"
       x2="505"
       y2="-962.81"
       xlink:href="#linear-gradient" />
    <linearGradient
       id="linear-gradient-5"
       x1="520.10999"
       y1="-998.90002"
       x2="556.92999"
       y2="-962.09003"
       xlink:href="#linear-gradient" />
    <linearGradient
       id="linear-gradient-6"
       x1="562.52002"
       y1="-1003.4"
       x2="602.33002"
       y2="-963.59003"
       xlink:href="#linear-gradient" />
    <linearGradient
       id="linear-gradient-7"
       x1="589.82001"
       y1="-994.44"
       x2="627.03998"
       y2="-957.21997"
       xlink:href="#linear-gradient" />
    <linearGradient
       id="linear-gradient-8"
       x1="628.72998"
       y1="-997.90002"
       x2="666.35999"
       y2="-960.27002"
       xlink:href="#linear-gradient" />
    <linearGradient
       id="linear-gradient-9"
       x1="671.56"
       y1="-999.54999"
       x2="709.46002"
       y2="-961.65002"
       xlink:href="#linear-gradient" />
    <linearGradient
       id="linear-gradient-10"
       x1="712.96002"
       y1="-999.22998"
       x2="749.77002"
       y2="-962.41998"
       xlink:href="#linear-gradient" />
    <radialGradient
       inkscape:collect="always"
       xlink:href="#radial-gradient"
       id="radialGradient979"
       gradientUnits="userSpaceOnUse"
       gradientTransform="matrix(1,0,0,-1,-0.04,-526.13)"
       cx="267.19"
       cy="-557.26001"
       r="97.720001" />
    <linearGradient
       inkscape:collect="always"
       xlink:href="#linear-gradient"
       id="linearGradient981"
       gradientUnits="userSpaceOnUse"
       gradientTransform="matrix(1,0,0,-1,-0.13,-921.61)"
       x1="351.95999"
       y1="-998.25"
       x2="387.79001"
       y2="-962.41998" />
  </defs>
  <title
     id="title31">logo</title>
  <g
     id="g977"
     transform="translate(-243.00729,-21.699903)">
    <path
       d="m 294.07,28.7 a 28.21,28.21 0 0 1 14.63,4.07 c 2.07,-0.26 4.15,-0.47 6.24,-0.61 2.09,-0.14 3.8,-0.19 5.38,-0.19 h 0.14 a 51.83,51.83 0 0 1 5.57,0.3 4.79,4.79 0 0 1 3,1.32 3.42,3.42 0 0 1 0.78,2.66 3.66,3.66 0 0 1 -1.31,2.41 5.94,5.94 0 0 1 -3.23,0.8 h -0.46 c -0.72,-0.06 -2.92,-0.2 -5.46,-0.2 q -1.73,0 -3.18,0.09 a 28.37,28.37 0 0 1 3.62,5.86 q 2.74,-0.54 5.54,-0.83 c 0.51,0 1.56,-0.15 2.78,-0.15 3.39,0 5.91,0.75 7.49,2.23 2.7,2.53 1.65,7.66 -0.71,11.21 -2.36,3.55 -6,7.64 -15.53,12 a 28.26,28.26 0 0 1 -39.54,11.77 c -0.49,0.08 -1,0.16 -1.53,0.23 a 79.8,79.8 0 0 1 -9.77,0.7 c -2.3,0 -4.26,-0.12 -6.16,-0.24 h -0.84 c -4.8,-0.3 -4.7,-2.83 -4.66,-3.67 0,-1.13 1,-3.33 4.48,-3.55 0.3,0 0.6,0 0.9,0 h 0.23 c 0.68,0 1.58,0 2.62,0.05 1.4,0 3.13,0.08 4.91,0.08 h 0.57 c 0.54,0 1.08,0 1.61,0 A 28.55,28.55 0 0 1 268.05,68.24 43.6,43.6 0 0 1 260,69 19.94,19.94 0 0 1 255.83,68.6 h -0.1 c -0.39,-0.09 -0.75,-0.19 -1.1,-0.3 l -0.23,-0.07 c -0.31,-0.11 -0.6,-0.24 -0.88,-0.37 l -0.31,-0.14 c -0.25,-0.13 -0.47,-0.27 -0.69,-0.41 l -0.34,-0.23 a 5.11,5.11 0 0 1 -0.55,-0.48 4.11,4.11 0 0 1 -0.3,-0.29 5.26,5.26 0 0 1 -0.66,-0.89 c -1.2,-2.05 -0.75,-5.38 1.13,-8.28 a 22.64,22.64 0 0 1 5.73,-6.19 46.22,46.22 0 0 1 8.47,-5.36 c 0.76,-0.38 1.74,-0.86 2.85,-1.37 A 28.29,28.29 0 0 1 294.07,28.7 m 28.14,31.21 c 5.14,-3.41 7.08,-6.68 7.42,-8.55 a 11.34,11.34 0 0 0 -1.3,-0.08 v 0 a 32.56,32.56 0 0 0 -6.36,0.85 27.31,27.31 0 0 1 0.27,7.78 m -62.6,2.16 h 0.18 a 32.67,32.67 0 0 0 6.3,-0.83 28.21,28.21 0 0 1 -0.32,-4.24 29.93,29.93 0 0 1 0.18,-3.15 49,49 0 0 0 -4.1,2.76 C 260,58 258.07,60.2 258,61.91 a 8.41,8.41 0 0 0 1.66,0.16 M 294.07,21.7 a 35.15,35.15 0 0 0 -30.28,17.16 l -0.93,0.46 a 53.36,53.36 0 0 0 -9.69,6.13 0.39,0.39 0 0 0 -0.1,0.08 29.56,29.56 0 0 0 -7.15,7.77 c -3.34,5.14 -3.85,11.27 -1.31,15.63 a 12.44,12.44 0 0 0 1.51,2 c 0.3,0.33 0.57,0.58 0.7,0.7 a 14.09,14.09 0 0 0 1.13,1 c 0.24,0.18 0.46,0.33 0.69,0.47 a 13.11,13.11 0 0 0 1.34,0.8 l 0.56,0.26 0.26,0.12 a 10,10 0 0 0 -0.94,3.86 c -0.19,4.68 2.63,10.37 11.22,10.9 h 0.86 0.06 c 1.89,0.12 4,0.25 6.53,0.25 h 0.07 a 89.72,89.72 0 0 0 10,-0.67 A 35.26,35.26 0 0 0 324.41,75 c 9.62,-4.79 13.64,-9.48 16.3,-13.48 3.93,-5.9 5.5,-14.73 -0.32,-20.19 a 14.25,14.25 0 0 0 -4,-2.58 11.08,11.08 0 0 0 0.33,-1.66 10.51,10.51 0 0 0 -2.37,-8 c -0.17,-0.19 -0.34,-0.37 -0.52,-0.55 a 11.79,11.79 0 0 0 -7.21,-3.23 58.39,58.39 0 0 0 -6.2,-0.33 h -0.15 c -1.7,0 -3.6,0.06 -5.8,0.2 h -0.06 c -1.43,0.1 -2.88,0.23 -4.33,0.39 a 35.27,35.27 0 0 0 -16.05,-3.86 z"
       fill="#ffffff"
       id="path33" />
    <path
       d="m 367.58,38.37 a 66.3,66.3 0 0 1 17.28,2.86 4.45,4.45 0 0 1 2.51,2 4.14,4.14 0 0 1 -1.68,5.7 3.63,3.63 0 0 1 -1.94,0.57 v 0 a 5.67,5.67 0 0 1 -1.16,-0.15 55.11,55.11 0 0 0 -14.47,-2.52 c -3.51,0 -6,0.74 -7.57,2.2 a 3.73,3.73 0 0 0 -1.07,1.85 0.57,0.57 0 0 0 0.05,0.46 0.66,0.66 0 0 1 0.12,0.27 4.6,4.6 0 0 0 0.88,1 5.94,5.94 0 0 0 1.36,0.84 c 0.57,0.11 2.41,0.16 3.22,0.19 0.64,0 1.83,0 3.48,0 h 2 c 0.8,0 1.48,0 2,0.07 a 55,55 0 0 1 7.79,0.73 h 0.13 c 3.94,0.84 6.23,2.27 7.27,4.46 l 0.17,0.38 a 15.28,15.28 0 0 1 1.12,2.72 8.57,8.57 0 0 1 0.43,2.88 v 0.74 a 9.81,9.81 0 0 1 -0.7,3.63 0.64,0.64 0 0 1 -0.06,0.18 14.84,14.84 0 0 1 -2.08,3.23 1.54,1.54 0 0 1 -0.19,0.17 c -1.23,1.53 -3.37,2.69 -6.37,3.43 a 39.61,39.61 0 0 1 -7.74,1 h -1.39 v 0 a 66.1,66.1 0 0 1 -6.89,-0.36 38,38 0 0 1 -7.47,-1.5 4.41,4.41 0 0 1 -2.44,-2 4.3,4.3 0 0 1 -0.28,-3.26 4.23,4.23 0 0 1 5.27,-2.71 37.93,37.93 0 0 0 5.9,1.13 51.32,51.32 0 0 0 5.55,0.3 h 1.52 a 29,29 0 0 0 5.94,-0.71 5.85,5.85 0 0 0 2.19,-0.94 l 0.15,-0.11 0.3,-0.24 c 0.15,-0.12 0.19,-0.15 0.26,-0.6 a 3.78,3.78 0 0 0 0.05,-0.75 0.18,0.18 0 0 1 -0.05,-0.07 0.81,0.81 0 0 1 -0.12,-0.29 l -0.05,-0.31 a 5.29,5.29 0 0 0 -2.1,-2.07 34.3,34.3 0 0 0 -6.23,-0.57 h -0.17 c -0.56,0 -1.18,0 -1.88,-0.06 l -1.93,-0.07 c -1.79,0 -3,0 -3.66,-0.06 -3.22,-0.06 -5.3,-0.34 -6.31,-0.88 A 15.1,15.1 0 0 1 355.18,59.07 0.82,0.82 0 0 1 355,59 a 12.08,12.08 0 0 1 -3,-3.81 0.68,0.68 0 0 1 -0.07,-0.28 8.87,8.87 0 0 1 -0.67,-5.51 12,12 0 0 1 3,-5.91 c 2.61,-3.36 7.13,-5.09 13.39,-5.09 m 0,-7 c -10.5,0 -16,4.14 -18.82,7.67 a 18.72,18.72 0 0 0 -4.48,9.11 16,16 0 0 0 0.92,9 c 0.1,0.32 0.22,0.63 0.35,0.94 l 0.13,0.25 a 18.93,18.93 0 0 0 4.1,5.41 11.2,11.2 0 0 0 -2.62,4.22 l -0.05,0.12 a 11.28,11.28 0 0 0 0.76,8.58 l 0.12,0.22 a 11.41,11.41 0 0 0 6.33,5.19 h 0.14 a 46.11,46.11 0 0 0 8.85,1.77 73.09,73.09 0 0 0 7.57,0.39 h 0.11 1.38 0.11 a 46.64,46.64 0 0 0 9.11,-1.15 h 0.13 c 4.23,-1.06 7.48,-2.84 9.7,-5.33 0.18,-0.18 0.36,-0.37 0.53,-0.57 a 22.37,22.37 0 0 0 3,-4.7 c 0.05,-0.1 0.09,-0.21 0.14,-0.32 a 6.93,6.93 0 0 0 0.26,-0.72 16.6,16.6 0 0 0 1,-5.79 V 65 a 15.53,15.53 0 0 0 -0.77,-5.11 22.46,22.46 0 0 0 -1.49,-3.59 l -0.08,-0.17 a 1,1 0 0 0 -0.07,-0.15 13,13 0 0 0 -2.01,-3.16 11.25,11.25 0 0 0 1.41,-13.16 11.33,11.33 0 0 0 -6.47,-5.11 l -0.17,-0.06 A 73.09,73.09 0 0 0 367.6,31.37 Z"
       fill="#ffffff"
       id="path35" />
    <path
       d="m 417.66,39 a 4.1,4.1 0 0 1 4.09,4 v 0.22 a 4,4 0 0 1 -1.2,2.94 4.14,4.14 0 0 1 -2.95,1.23 h -18.48 v 5.71 h 13.44 a 4.11,4.11 0 0 1 4.1,4 v 0.2 a 4.2,4.2 0 0 1 -4.19,4.19 h -13.35 v 5.71 h 18.55 a 4.09,4.09 0 0 1 4.08,4 0.74,0.74 0 0 1 0,0.21 4.06,4.06 0 0 1 -1.2,2.94 4.14,4.14 0 0 1 -3,1.25 h -22.71 a 4,4 0 0 1 -2.92,-1.28 3.91,3.91 0 0 1 -1.23,-2.92 V 43.21 a 4.1,4.1 0 0 1 1.26,-3 4.17,4.17 0 0 1 2.91,-1.21 h 22.8 m 0,-7 h -22.8 a 11.2,11.2 0 0 0 -11.17,11.23 v 28.09 a 11.28,11.28 0 0 0 11.15,11.24 h 22.75 a 11.18,11.18 0 0 0 11.16,-11.15 3.38,3.38 0 0 0 0,-0.45 11,11 0 0 0 -5.89,-9.5 11.12,11.12 0 0 0 0.8,-4.09 V 56.9 a 11.15,11.15 0 0 0 -0.79,-3.85 11.11,11.11 0 0 0 5.88,-9.82 V 42.79 A 11,11 0 0 0 417.66,32 Z"
       fill="#ffffff"
       id="path37" />
    <path
       d="m 443.4,37 a 25,25 0 0 1 14.7,4.78 4.37,4.37 0 0 1 1.74,2.83 4.59,4.59 0 0 1 -0.61,3.35 4.23,4.23 0 0 1 -2.63,1.93 4.14,4.14 0 0 1 -0.87,0.1 4.09,4.09 0 0 1 -2.34,-0.77 16.45,16.45 0 0 0 -9.87,-3.52 15.31,15.31 0 0 0 -3.76,0.47 h -0.14 l -0.77,0.19 a 18.44,18.44 0 0 0 -4,1.37 6.88,6.88 0 0 0 -2.39,2.13 0.83,0.83 0 0 1 -0.08,0.12 5.23,5.23 0 0 0 -1.18,2.23 16.05,16.05 0 0 0 -0.64,4.41 14.51,14.51 0 0 0 0.69,5.15 10.22,10.22 0 0 0 2.2,3.8 9.25,9.25 0 0 0 3.5,2.49 0.82,0.82 0 0 1 0.2,0.12 13.7,13.7 0 0 0 4.94,0.92 h 0.08 c 4.49,0 7.79,-0.88 9.8,-2.62 a 6.41,6.41 0 0 0 1.66,-3.08 h -10.36 a 3.89,3.89 0 0 1 -3,-1.39 4.34,4.34 0 0 1 -1.21,-3.09 4.47,4.47 0 0 1 1.24,-3.18 4,4 0 0 1 3,-1.3 H 458 a 4.14,4.14 0 0 1 2.84,1.13 4.5,4.5 0 0 1 1.34,2.95 c 0.57,6.53 -1,11.5 -4.74,14.77 -3.16,3.2 -8.31,4.82 -15.28,4.82 H 442 a 20.94,20.94 0 0 1 -8.15,-1.65 16.92,16.92 0 0 1 -6.28,-4.46 0.62,0.62 0 0 1 -0.18,-0.14 19,19 0 0 1 -4.08,-7 23.49,23.49 0 0 1 -1.16,-8.49 V 55.9 a 16,16 0 0 1 1.05,-6.27 c 0.94,-2.48 1.7,-4.34 3.15,-5.9 a 16.17,16.17 0 0 1 5,-4.19 16.71,16.71 0 0 1 4.94,-1.69 l 1.51,-0.33 a 31.19,31.19 0 0 1 5.37,-0.5 h 0.19 m 0,-7 h -0.24 a 38.33,38.33 0 0 0 -6.57,0.61 l -0.35,0.07 -1.22,0.27 a 23.58,23.58 0 0 0 -6.92,2.39 22.87,22.87 0 0 0 -7.06,5.8 23.76,23.76 0 0 0 -4.39,8 23,23 0 0 0 -1.5,8.5 v 0.59 a 30.45,30.45 0 0 0 1.55,10.75 25.8,25.8 0 0 0 5.56,9.58 3.07,3.07 0 0 0 0.25,0.26 l 0.31,0.3 a 24.06,24.06 0 0 0 8.42,5.78 27.79,27.79 0 0 0 10.8,2.18 h 0.18 c 8.76,0 15.52,-2.26 20,-6.72 C 466,75 470.08,68.82 469.16,58 a 11.45,11.45 0 0 0 -3.4,-7.39 11.5,11.5 0 0 0 1,-7.24 11.32,11.32 0 0 0 -4.49,-7.22 A 31.9,31.9 0 0 0 443.4,30 Z"
       fill="#ffffff"
       id="path39" />
    <path
       d="m 482.57,36.68 h 0.71 0.6 c 9.46,0 15.81,11.49 19.4,35.12 a 4.27,4.27 0 0 1 -0.82,3.13 4,4 0 0 1 -2.78,1.62 3.68,3.68 0 0 1 -0.66,0.06 3.84,3.84 0 0 1 -2.39,-0.84 4.08,4.08 0 0 1 -1.67,-2.7 c -0.44,-3 -0.93,-5.74 -1.45,-8.28 h -20.64 c -0.45,2.22 -0.88,4.62 -1.26,7.14 a 4.24,4.24 0 0 1 -1.7,2.71 4,4 0 0 1 -2.46,0.85 3.51,3.51 0 0 1 -0.72,-0.07 3.85,3.85 0 0 1 -2.73,-1.67 4,4 0 0 1 -0.78,-3.06 c 3.43,-22.58 9.91,-34 19.34,-34 M 475,56.43 h 16.4 c -2.27,-7.1 -5.06,-11 -8.13,-11.31 -3.22,0.3 -6,4.11 -8.28,11.31 m 7.58,-26.75 v 0 c -5.08,0 -12.33,2.09 -18,12.08 -3.69,6.5 -6.39,15.62 -8.25,27.88 a 11.05,11.05 0 0 0 2,8.17 11.28,11.28 0 0 0 9.14,4.7 11.34,11.34 0 0 0 11.06,-9.36 0.88,0.88 0 0 0 0,-0.16 c 0.06,-0.4 0.12,-0.79 0.19,-1.18 h 9 c 0.12,0.75 0.24,1.53 0.36,2.32 a 11.17,11.17 0 0 0 4.38,7.26 11,11 0 0 0 6.55,2.24 v 0 a 10.56,10.56 0 0 0 1.68,-0.13 11,11 0 0 0 7.37,-4.39 11.14,11.14 0 0 0 2.13,-8.24 c 0,0 0,-0.07 0,-0.11 C 508.26,58 505.55,48.6 501.91,42 496.29,31.83 489,29.69 483.91,29.69 h -0.41 -0.9 z"
       fill="#ffffff"
       id="path41" />
    <path
       d="m 536.51,38.06 a 67.07,67.07 0 0 1 17.42,2.88 4.48,4.48 0 0 1 2.54,2 3.92,3.92 0 0 1 0.35,3.24 3.87,3.87 0 0 1 -2,2.51 3.73,3.73 0 0 1 -2,0.57 v 0 A 4.69,4.69 0 0 1 551.65,49.11 56,56 0 0 0 537,46.59 c -3.53,0 -6.09,0.74 -7.62,2.22 a 3.82,3.82 0 0 0 -1.08,1.86 0.56,0.56 0 0 0 0.05,0.49 0.83,0.83 0 0 1 0.12,0.27 4.39,4.39 0 0 0 0.89,1 5.74,5.74 0 0 0 1.37,0.86 c 0.6,0.11 2.51,0.16 3.24,0.18 0.73,0.02 1.85,0.06 3.52,0.06 0.8,0 1.49,0 2.11,0.06 0.62,0.06 1.4,0 1.93,0.06 a 55.76,55.76 0 0 1 7.86,0.74 h 0.14 c 4,0.84 6.29,2.26 7.32,4.49 l 0.18,0.39 a 16.33,16.33 0 0 1 1.15,2.73 8.6,8.6 0 0 1 0.44,2.89 v 0.57 a 0.43,0.43 0 0 1 0,0.16 10,10 0 0 1 -0.7,3.67 1.05,1.05 0 0 1 0,0.19 15.1,15.1 0 0 1 -2.11,3.25 0.61,0.61 0 0 1 -0.19,0.17 c -1.24,1.54 -3.4,2.71 -6.42,3.46 a 40.34,40.34 0 0 1 -7.82,1 h -1.36 c -2.31,0 -4.59,-0.12 -7,-0.35 a 39.68,39.68 0 0 1 -7.54,-1.52 4.41,4.41 0 0 1 -2.45,-2 4.33,4.33 0 0 1 -0.29,-3.27 3.9,3.9 0 0 1 2.14,-2.47 4,4 0 0 1 1.9,-0.48 4,4 0 0 1 1.28,0.21 36.52,36.52 0 0 0 6,1.13 51,51 0 0 0 5.53,0.3 h 1.59 a 30.27,30.27 0 0 0 6,-0.72 6.58,6.58 0 0 0 2.21,-1 l 0.14,-0.1 0.31,-0.26 c 0.09,-0.06 0.19,-0.14 0.26,-0.6 a 3.12,3.12 0 0 0 0,-0.75 0.87,0.87 0 0 1 -0.17,-0.38 v -0.31 a 5.37,5.37 0 0 0 -2.12,-2.08 34.74,34.74 0 0 0 -6.27,-0.57 h -0.18 c -0.6,0 -1.22,0 -1.94,-0.06 -0.72,-0.06 -1.2,0 -1.9,-0.06 -1.81,0 -3,0 -3.7,0 -3.24,-0.06 -5.34,-0.35 -6.36,-0.89 A 16.16,16.16 0 0 1 524,59 0.82,0.82 0 0 1 523.8,58.88 12.12,12.12 0 0 1 520.72,55 a 1,1 0 0 1 -0.08,-0.29 8.94,8.94 0 0 1 -0.67,-5.56 12.16,12.16 0 0 1 3,-6 c 2.64,-3.39 7.19,-5.13 13.51,-5.13 m 0,-7 c -10.57,0 -16.12,4.16 -18.93,7.71 a 18.85,18.85 0 0 0 -4.51,9.16 15.84,15.84 0 0 0 0.96,9.11 7.19,7.19 0 0 0 0.4,1 l 0.06,0.13 a 19.12,19.12 0 0 0 4.16,5.49 11.1,11.1 0 0 0 -2.62,4.48 11.21,11.21 0 0 0 0.79,8.55 l 0.12,0.23 a 11.42,11.42 0 0 0 6.37,5.19 h 0.11 a 45.74,45.74 0 0 0 8.9,1.79 c 2.63,0.26 5.13,0.39 7.62,0.39 h 1.31 0.31 a 46.62,46.62 0 0 0 9.19,-1.17 h 0.12 a 18.79,18.79 0 0 0 9.71,-5.31 6.56,6.56 0 0 0 0.62,-0.67 21.9,21.9 0 0 0 3,-4.67 c 0.06,-0.13 0.12,-0.26 0.17,-0.39 0.05,-0.13 0.17,-0.44 0.24,-0.67 a 16.74,16.74 0 0 0 1,-5.69 2.67,2.67 0 0 0 0,-0.4 v -0.41 a 15.55,15.55 0 0 0 -0.79,-5.11 23.85,23.85 0 0 0 -1.51,-3.62 l -0.11,-0.23 a 12.81,12.81 0 0 0 -2.17,-3.27 10.76,10.76 0 0 0 2.51,-4.47 10.92,10.92 0 0 0 -1,-8.77 11.4,11.4 0 0 0 -6.5,-5.15 h -0.18 a 73.91,73.91 0 0 0 -19.3,-3.14 z"
       fill="#ffffff"
       id="path43" />
    <path
       d="m 578.26,38.85 h 0.75 0.6 c 9.55,0 16,11.58 19.57,35.41 a 4.22,4.22 0 0 1 -0.83,3.16 4.06,4.06 0 0 1 -2.77,1.63 3.57,3.57 0 0 1 -0.65,0.06 v 0 a 3.93,3.93 0 0 1 -2.42,-0.86 4,4 0 0 1 -1.7,-2.71 c -0.45,-3 -0.95,-5.84 -1.46,-8.36 H 568.5 c -0.45,2.23 -0.87,4.65 -1.26,7.2 a 4.35,4.35 0 0 1 -1.7,2.74 4.14,4.14 0 0 1 -2.46,0.85 3.81,3.81 0 0 1 -0.75,-0.07 3.91,3.91 0 0 1 -2.76,-1.7 3.82,3.82 0 0 1 -0.76,-3.13 c 3.55,-23 9.93,-34.24 19.45,-34.24 m -7.62,19.9 h 16.55 c -2.3,-7.27 -5.06,-11.1 -8.21,-11.4 -3.23,0.3 -6,4.13 -8.34,11.39 v 0 m 7.62,-26.9 v 0 c -20.1,0 -24.8,30 -26.35,40.07 a 11.23,11.23 0 0 0 9.38,12.92 10.37,10.37 0 0 0 1.76,0.15 h 0.12 a 11.35,11.35 0 0 0 11,-9.38 v -0.15 c 0.06,-0.43 0.13,-0.84 0.19,-1.26 h 9.12 c 0.13,0.79 0.25,1.58 0.37,2.39 v 0.06 a 11.18,11.18 0 0 0 4.43,7.24 11,11 0 0 0 6.58,2.24 h 0.07 a 10.73,10.73 0 0 0 1.7,-0.14 11.09,11.09 0 0 0 7.37,-4.34 11.34,11.34 0 0 0 2.16,-8.3 c 0,0 0,-0.06 0,-0.09 -2,-12.86 -4.68,-22.34 -8.35,-29 -5.6,-10.12 -12.83,-12.33 -18,-12.38 h -0.7 -0.82 z"
       fill="#ffffff"
       id="path45" />
    <path
       d="m 625.33,40.59 a 4.12,4.12 0 0 1 4.12,4 1.55,1.55 0 0 1 0,0.22 4.23,4.23 0 0 1 -4.22,4.23 h -10.61 v 25.29 a 4.23,4.23 0 0 1 -4.24,4.23 v 0 a 4.32,4.32 0 0 1 -4.2,-4.23 V 49 h -10.7 a 4.34,4.34 0 0 1 -4.2,-4.24 4.16,4.16 0 0 1 1.27,-3 4.24,4.24 0 0 1 2.94,-1.19 h 29.84 m 0,-7 H 595.49 A 11.21,11.21 0 0 0 584.28,44.76 11.34,11.34 0 0 0 595.48,56 h 3.65 v 18.29 a 11.32,11.32 0 0 0 11.2,11.27 h 0.07 A 11.25,11.25 0 0 0 621.62,74.34 V 56.05 h 3.65 a 11.23,11.23 0 0 0 11.19,-11.16 c 0,-0.16 0,-0.32 0,-0.48 A 11.07,11.07 0 0 0 625.34,33.59 Z"
       fill="#ffffff"
       id="path47" />
    <path
       d="m 665.11,39.84 h 0.1 a 4.24,4.24 0 0 1 4.23,4.22 v 0 16.87 a 17.08,17.08 0 0 1 -1.32,6.73 0.69,0.69 0 0 1 -0.1,0.19 18.49,18.49 0 0 1 -3.6,5.23 18.25,18.25 0 0 1 -5.3,3.61 l -0.17,0.11 a 17.57,17.57 0 0 1 -6.64,1.3 h -5.43 a 17,17 0 0 1 -6.49,-1.29 18,18 0 0 1 -5.49,-3.69 17,17 0 0 1 -3.58,-5.28 0.63,0.63 0 0 1 -0.16,-0.23 18.13,18.13 0 0 1 -1.31,-6.67 V 44.07 A 4.32,4.32 0 0 1 634,39.84 h 0.09 a 4.23,4.23 0 0 1 4.26,4.16 v 16.9 a 9,9 0 0 0 0.67,3.39 1.21,1.21 0 0 1 0.05,0.14 9.48,9.48 0 0 0 1.85,2.66 8.86,8.86 0 0 0 6.08,2.56 h 5.32 a 8.21,8.21 0 0 0 3.24,-0.67 8.57,8.57 0 0 0 2.83,-1.89 8.46,8.46 0 0 0 1.86,-2.76 8.27,8.27 0 0 0 0.68,-3.4 V 44.07 a 4.32,4.32 0 0 1 4.17,-4.23 m 0,-7 A 11.34,11.34 0 0 0 653.93,44.11 V 61 a 1.24,1.24 0 0 1 -0.1,0.5 0.3,0.3 0 0 0 0,0.1 1.58,1.58 0 0 1 -0.33,0.48 1.67,1.67 0 0 1 -0.56,0.39 h -0.1 a 1.18,1.18 0 0 1 -0.48,0.1 H 647 a 1.47,1.47 0 0 1 -0.56,-0.11 l -0.15,-0.07 a 1.36,1.36 0 0 1 -0.41,-0.26 2.9,2.9 0 0 1 -0.39,-0.53 v 0 a 2.13,2.13 0 0 1 -0.15,-0.79 V 44 A 11.26,11.26 0 0 0 634.11,32.87 H 634 a 11.32,11.32 0 0 0 -11.18,11.27 v 16.8 a 25.06,25.06 0 0 0 1.82,9.28 8,8 0 0 0 0.52,1.06 24.1,24.1 0 0 0 4.75,6.79 l 0.07,0.06 a 24.93,24.93 0 0 0 7.61,5.1 h 0.08 a 23.69,23.69 0 0 0 9.18,1.83 h 5.43 a 24.23,24.23 0 0 0 9.29,-1.83 l 0.15,-0.06 c 0.22,-0.09 0.43,-0.2 0.64,-0.31 a 25.42,25.42 0 0 0 6.91,-4.8 1.14,1.14 0 0 0 0.11,-0.11 25.21,25.21 0 0 0 4.79,-6.83 6.81,6.81 0 0 0 0.39,-0.82 23.9,23.9 0 0 0 1.85,-9.44 V 44.06 A 11.26,11.26 0 0 0 665.18,32.84 Z"
       fill="#ffffff"
       id="path49" />
    <path
       d="m 684.55,39.35 c 6,0 10.91,0.56 14.54,1.7 7.33,2.14 10.91,6.17 10.65,12 A 10.93,10.93 0 0 1 703,63.5 a 16.67,16.67 0 0 1 -2.06,0.82 l 8.18,5.54 a 4.28,4.28 0 0 1 1.81,2.76 4.18,4.18 0 0 1 -0.82,3.13 4.26,4.26 0 0 1 -3,1.7 5.78,5.78 0 0 1 -0.71,0 4.32,4.32 0 0 1 -2.53,-0.82 l -18.2,-12.4 a 4.11,4.11 0 0 1 -1.7,-2.17 4.17,4.17 0 0 1 2,-4.81 4.55,4.55 0 0 1 2.3,-0.63 h 0.46 a 38.4,38.4 0 0 0 4.22,0.25 16.23,16.23 0 0 0 6.14,-1 2.82,2.82 0 0 0 1.7,-2.94 c -0.15,-1.8 -1.6,-3.11 -4.45,-4 a 44.41,44.41 0 0 0 -11.8,-1.27 c -1.62,0 -3.35,0 -5.17,0.14 v 25.49 a 3.9,3.9 0 0 1 -1.39,3 4.2,4.2 0 0 1 -3,1.21 h -0.19 a 4.56,4.56 0 0 1 -3.13,-1.24 4,4 0 0 1 -1.29,-3 V 44 a 4,4 0 0 1 1.2,-2.83 4.42,4.42 0 0 1 2.91,-1.38 q 5.43,-0.42 10,-0.42 m 0,-7 c -3.2,0 -6.73,0.15 -10.51,0.44 a 11.35,11.35 0 0 0 -7.37,3.46 11,11 0 0 0 -3.14,7.73 v 29.29 a 11.05,11.05 0 0 0 3.54,8.12 11.52,11.52 0 0 0 7.83,3.09 h 0.24 a 11.14,11.14 0 0 0 7.68,-3 10.86,10.86 0 0 0 3.66,-8.21 v 0 l 13.47,9.16 a 11.14,11.14 0 0 0 6.53,2.09 12.2,12.2 0 0 0 1.61,-0.11 11.3,11.3 0 0 0 9.86,-12.74 l -0.06,-0.35 a 11.24,11.24 0 0 0 -4.64,-7.15 18.45,18.45 0 0 0 3.56,-10.91 c 0.16,-4.34 -1.08,-14.62 -15.62,-18.89 -4.35,-1.35 -9.77,-2 -16.57,-2 z"
       fill="#ffffff"
       id="path51" />
    <path
       d="m 717.33,40 a 4.74,4.74 0 0 1 0.75,0.06 5.07,5.07 0 0 1 2.18,1.16 l 21.24,22 v -19 a 4.14,4.14 0 0 1 1.27,-3 4.23,4.23 0 0 1 2.93,-1.22 h 0.16 a 4.14,4.14 0 0 1 4.14,4 v 29.76 a 3.93,3.93 0 0 1 -0.72,2.35 4.26,4.26 0 0 1 -1.88,1.58 5,5 0 0 1 -1.67,0.3 h -0.1 a 5.81,5.81 0 0 1 -0.72,0 4.53,4.53 0 0 1 -2.21,-1.25 l -21.25,-22 v 19 A 4.23,4.23 0 0 1 717.22,78 h -0.07 A 4,4 0 0 1 714.2,76.71 3.94,3.94 0 0 1 713,73.76 V 44.23 a 4.07,4.07 0 0 1 0.78,-2.4 3.71,3.71 0 0 1 1.93,-1.49 4.31,4.31 0 0 1 1.66,-0.33 m 0,-7 v 0 a 11.13,11.13 0 0 0 -4.12,0.78 10.68,10.68 0 0 0 -5.25,4.05 11.07,11.07 0 0 0 -2,6.41 V 73.71 A 11.32,11.32 0 0 0 717.15,85 h 0.06 A 11.25,11.25 0 0 0 728.45,73.78 V 72 l 9.2,9.52 h 0.05 a 11.56,11.56 0 0 0 5.59,3.14 l 0.6,0.12 a 12.47,12.47 0 0 0 1.73,0.12 h 0.21 a 12.1,12.1 0 0 0 3.95,-0.72 l 0.37,-0.14 a 11.24,11.24 0 0 0 4.92,-4.1 10.92,10.92 0 0 0 1.93,-6.22 V 43.86 A 11.09,11.09 0 0 0 745.86,33 h -0.18 A 11.21,11.21 0 0 0 734.5,44.26 v 1.66 L 725.3,36.37 725,36 a 12.19,12.19 0 0 0 -5.19,-2.75 l -0.45,-0.1 a 11.94,11.94 0 0 0 -2,-0.17 z"
       fill="#ffffff"
       id="path53" />
    <g
       id="Capa_1"
       data-name="Capa 1">
      <g
         id="Ebene_1"
         data-name="Ebene 1">
        <path
           d="m 261.6,56.35 a 50,50 0 0 1 7.51,-4.65 92.44,92.44 0 0 1 10.18,-4.52 v 0 c 3.73,-1.41 7.67,-2.7 11.78,-3.83 a 114.44,114.44 0 0 1 12.41,-2.87 88.64,88.64 0 0 1 11.93,-1.48 69.15,69.15 0 0 1 9.44,0.06 5.88,5.88 0 0 0 3.4,-0.7 3.29,3.29 0 0 0 1.19,-2.16 3.07,3.07 0 0 0 -0.71,-2.38 4.47,4.47 0 0 0 -2.73,-1.18 61.46,61.46 0 0 0 -11,-0.1 115.51,115.51 0 0 0 -12.69,1.61 c -4.27,0.76 -8.58,1.79 -12.91,3 -4.33,1.21 -8.42,2.54 -12.31,4 -4.05,1.57 -8.42,3.55 -10.91,4.8 a 46.63,46.63 0 0 0 -8.38,5.3 22.38,22.38 0 0 0 -5.66,6.1 c -1.81,2.81 -2.22,6 -1.13,7.9 2.87,4.9 13.1,3.29 17,2.54 3.13,-0.65 7,-1.53 11.55,-2.83 3.35,-1 7.62,-2.38 12.8,-4.1 l 12.87,-4.21 q 7.06,-2.34 11.51,-3.56 c 3.62,-1.09 10,-2.62 13.36,-2 -0.17,2.08 -2.75,7.62 -14.23,12.76 a 145.23,145.23 0 0 1 -14.25,5.46 h -0.06 c -4.05,1.29 -8.2,2.43 -12.45,3.45 -4.25,1.02 -8.11,1.65 -11.84,2.24 h 0.06 c -5.86,0.82 -14.29,0.09 -15.95,0.31 -3.3,0.21 -4.1,2.26 -4.13,3.18 -0.03,0.92 -0.08,3 4.31,3.28 a 77.62,77.62 0 0 0 16.69,-0.34 c 5.09,-0.76 8,-1.35 12.26,-2.32 h 0.05 c 4.43,-1.09 8.75,-2.27 13,-3.63 a 127.85,127.85 0 0 0 15,-5.72 c 10.07,-4.53 13.7,-8.64 16.06,-12.2 2.36,-3.56 3.22,-8.43 0.77,-10.72 -2.83,-2.62 -8.14,-2.15 -10,-2 a 61.33,61.33 0 0 0 -10.49,2 c -3,0.87 -6.91,2.06 -11.77,3.68 l -12.86,4.18 c -5.12,1.69 -9.28,3 -12.58,4 -4.37,1.3 -8,2.27 -11,2.87 -6.9,1.59 -9.12,0.7 -9.12,0.7 -0.11,-2.01 2.18,-4.52 4.03,-5.92 z"
           fill="url(#radial-gradient)"
           id="path55"
           style="fill:url(#radialGradient979)" />
        <path
           d="m 268.52,82.37 c -2.3,0 -4.26,-0.12 -6.16,-0.24 h -0.84 c -4.8,-0.3 -4.7,-2.83 -4.66,-3.67 0,-1.13 1,-3.33 4.48,-3.55 a 8.48,8.48 0 0 1 1.13,0 c 0.68,0 1.58,0 2.62,0.05 1.4,0 3.13,0.08 4.91,0.08 a 55.32,55.32 0 0 0 7.28,-0.39 0.25,0.25 0 0 1 0.17,0 c 4.35,-0.7 8,-1.41 11.52,-2.23 4.52,-1.09 8.58,-2.22 12.45,-3.45 h 0.1 a 139.81,139.81 0 0 0 14.15,-5.42 c 10.16,-4.53 13.5,-9.58 14,-12.1 a 11.73,11.73 0 0 0 -1.33,-0.08 c -3.21,0 -8,1.14 -11.5,2.14 -2.93,0.8 -6.79,2 -11.48,3.56 l -12.87,4.21 c -4.47,1.49 -8.79,2.87 -12.81,4.11 -4.02,1.24 -7.67,2 -11.59,2.83 A 43.6,43.6 0 0 1 260,69 c -4.79,0 -7.92,-1.21 -9.33,-3.6 -1.2,-2.05 -0.75,-5.38 1.13,-8.28 a 22.64,22.64 0 0 1 5.73,-6.19 46.22,46.22 0 0 1 8.47,-5.34 c 2.36,-1.2 6.79,-3.22 10.94,-4.82 a 129.36,129.36 0 0 1 12.35,-4 c 4.72,-1.3 9,-2.26 12.94,-3 a 113.57,113.57 0 0 1 12.73,-1.62 c 2,-0.13 3.8,-0.19 5.38,-0.19 a 49.53,49.53 0 0 1 5.71,0.3 4.79,4.79 0 0 1 3,1.32 3.42,3.42 0 0 1 0.78,2.66 3.66,3.66 0 0 1 -1.31,2.41 6.32,6.32 0 0 1 -3.69,0.78 c -0.72,0 -2.92,-0.19 -5.46,-0.19 -1.44,0 -2.76,0 -3.92,0.14 a 88.24,88.24 0 0 0 -11.89,1.51 112.88,112.88 0 0 0 -12.33,2.83 c -4,1.1 -7.93,2.38 -11.75,3.82 a 0.31,0.31 0 0 1 -0.19,0 90.67,90.67 0 0 0 -10,4.45 48.37,48.37 0 0 0 -7.45,4.61 C 260,58 258.07,60.2 258,61.91 a 8.69,8.69 0 0 0 1.84,0.16 31.82,31.82 0 0 0 6.79,-0.94 c 2.83,-0.56 6.18,-1.43 11,-2.86 3.28,-1 7.46,-2.32 12.58,-4 L 303,50.07 c 4.3,-1.43 8.26,-2.67 11.79,-3.68 a 61.09,61.09 0 0 1 10.54,-2 c 0.51,0 1.56,-0.15 2.78,-0.15 3.39,0 5.91,0.75 7.49,2.23 2.7,2.53 1.65,7.66 -0.71,11.21 -2.49,3.74 -6.18,7.83 -16.22,12.33 a 129.24,129.24 0 0 1 -15.06,5.74 c -4,1.3 -8.28,2.48 -13,3.63 h -0.09 c -4.41,1 -7.23,1.58 -12.24,2.31 a 79.8,79.8 0 0 1 -9.76,0.68 z m -6.07,-6.79 a 9,9 0 0 0 -1,0 c -2.94,0.19 -3.77,1.93 -3.8,2.83 -0.03,0.9 -0.1,2.63 4,2.88 l 0.84,0.06 c 1.89,0.11 3.83,0.24 6.11,0.24 a 80.11,80.11 0 0 0 9.67,-0.64 c 5,-0.74 7.8,-1.31 12.22,-2.32 h 0.08 c 4.67,-1.13 8.89,-2.31 12.9,-3.59 a 129.64,129.64 0 0 0 15,-5.73 c 9.88,-4.43 13.48,-8.39 15.91,-12.07 2.22,-3.34 3.13,-8.08 0.83,-10.24 -1.44,-1.34 -3.79,-2 -7,-2 -1.18,0 -2.21,0.11 -2.71,0.15 a 60.23,60.23 0 0 0 -10.4,2 c -3.51,1 -7.47,2.27 -11.76,3.67 L 290.39,55 c -5.13,1.69 -9.31,3 -12.59,4 -4.83,1.43 -8.24,2.31 -11.05,2.87 a 32.31,32.31 0 0 1 -7,1 7,7 0 0 1 -2.36,-0.27 0.39,0.39 0 0 1 -0.24,-0.33 c -0.11,-2.31 2.59,-5 4.2,-6.23 a 50.39,50.39 0 0 1 7.65,-4.67 90.9,90.9 0 0 1 10.25,-4.53 0.34,0.34 0 0 1 0.2,0 c 3.78,-1.42 7.69,-2.69 11.6,-3.77 a 116.84,116.84 0 0 1 12.41,-2.87 89,89 0 0 1 11.95,-1.56 c 1.17,-0.1 2.51,-0.15 4,-0.15 2.56,0 4.78,0.15 5.51,0.2 h 0.41 a 5.16,5.16 0 0 0 2.75,-0.63 2.83,2.83 0 0 0 0.92,-1.91 2.7,2.7 0 0 0 -0.62,-2.09 4,4 0 0 0 -2.45,-1.06 60,60 0 0 0 -11,-0.11 112,112 0 0 0 -12.62,1.63 c -4,0.7 -8.17,1.67 -12.87,3 -4.1,1.13 -8.23,2.46 -12.28,4 a 115.86,115.86 0 0 0 -10.88,4.8 45.51,45.51 0 0 0 -8.28,5.17 21.91,21.91 0 0 0 -5.58,6 c -1.7,2.63 -2.15,5.71 -1.13,7.5 1.25,2.14 4.17,3.22 8.68,3.22 a 43.15,43.15 0 0 0 7.93,-0.86 c 3.89,-0.81 7.66,-1.7 11.52,-2.83 3.86,-1.13 8.32,-2.61 12.78,-4.1 l 12.86,-4.22 c 4.7,-1.56 8.57,-2.76 11.52,-3.56 1.69,-0.51 7.56,-2.16 11.71,-2.16 a 10,10 0 0 1 1.81,0.14 0.38,0.38 0 0 1 0.31,0.4 c -0.06,0.7 -0.94,7 -14.45,13.07 a 140.91,140.91 0 0 1 -14.28,5.47 0.24,0.24 0 0 1 -0.12,0 c -3.86,1.23 -7.92,2.36 -12.45,3.45 -3.59,0.83 -7.36,1.56 -11.8,2.26 a 0.34,0.34 0 0 1 -0.2,0 54.91,54.91 0 0 1 -7.14,0.37 c -1.78,0 -3.53,0 -4.93,-0.08 -1,0 -1.9,0 -2.58,0 z"
           fill="#333333"
           id="path57" />
        <g
           id="Ebene_2"
           data-name="Ebene 2">
          <circle
             cx="294.07001"
             cy="57"
             r="27.540001"
             fill="url(#radial-gradient-2)"
             id="circle59"
             style="fill:url(#radial-gradient-2)" />
          <path
             d="m 294.07,85.3 a 28.3,28.3 0 1 1 28.3,-28.3 28.3,28.3 0 0 1 -28.3,28.3 z m 0,-55.09 A 26.8,26.8 0 1 0 320.86,57 v 0 A 26.82,26.82 0 0 0 294.07,30.21 Z"
             fill="#33317a"
             id="path61" />
        </g>
        <g
           id="Ebene_4"
           data-name="Ebene 4">
          <path
             d="m 268,67.75 c 3.13,-0.64 7,-1.53 11.55,-2.83 3.35,-1 12.8,-4.1 12.8,-4.1 l 12.84,-4.2 q 7.06,-2.34 11.51,-3.56 a 43.86,43.86 0 0 1 5.2,-1.31 22.56,22.56 0 0 0 -1.9,-6.18 c -1.62,0.32 -3.36,0.72 -5.09,1.22 -3,0.87 -6.91,2.06 -11.77,3.67 l -12.86,4.21 c -5.13,1.7 -9.29,3 -12.58,4 a 107.94,107.94 0 0 1 -11.57,3 21.12,21.12 0 0 0 1.87,6.08 z"
             fill="url(#radial-gradient-3)"
             id="path64"
             style="fill:url(#radial-gradient-3)" />
        </g>
        <g
           id="Ebene_3"
           data-name="Ebene 3">
          <path
             d="m 259.78,62.86 a 7.3,7.3 0 0 1 -2.37,-0.27 0.38160844,0.38160844 0 0 1 0.28,-0.71 v 0 c 0,0 2.26,0.81 8.9,-0.71 2.83,-0.57 6.18,-1.43 11,-2.86 3.27,-1 7.45,-2.32 12.57,-4 L 303,50.11 c 4.3,-1.43 8.26,-2.67 11.79,-3.68 a 61.09,61.09 0 0 1 10.54,-2 0.39,0.39 0 0 1 0.39,0.37 0.39,0.39 0 0 1 -0.32,0.38 60.23,60.23 0 0 0 -10.4,2 c -3.51,1 -7.47,2.27 -11.76,3.67 L 290.39,55 c -5.13,1.69 -9.31,3 -12.59,4 -4.83,1.43 -8.24,2.31 -11.05,2.87 a 32.14,32.14 0 0 1 -6.97,0.99 z"
             fill="#333333"
             id="path67" />
          <path
             d="m 260,69 c -4,0 -7.75,-0.82 -9.37,-3.59 a 0.37,0.37 0 0 1 0.13,-0.51 v 0 a 0.4,0.4 0 0 1 0.52,0.13 c 2.55,4.37 11.49,3.36 16.59,2.36 3.9,-0.8 7.66,-1.69 11.52,-2.82 3.3,-1 12.7,-4.07 12.79,-4.1 l 12.85,-4.2 c 4.7,-1.56 8.58,-2.77 11.52,-3.57 0,0 1.82,-0.51 5.22,-1.3 a 23.18,23.18 0 0 1 7.58,-0.81 0.39,0.39 0 0 1 0.38,0.39 0.37,0.37 0 0 1 -0.38,0.37 h -0.09 a 21.42,21.42 0 0 0 -7.32,0.79 c -3.39,0.79 -5.17,1.3 -5.18,1.3 -2.94,0.8 -6.79,2 -11.49,3.56 l -12.85,4.21 c -0.1,0 -9.5,3.09 -12.81,4.11 -3.89,1.09 -7.67,2 -11.59,2.83 A 44.12,44.12 0 0 1 260,69 Z"
             fill="#333333"
             id="path69" />
        </g>
        <path
           d="m 386.67,43.64 a 3.65,3.65 0 0 0 -2,-1.63 c -15.45,-4.33 -25.42,-3.69 -29.83,2 a 11.25,11.25 0 0 0 -2.84,5.49 8.17,8.17 0 0 0 0.73,5.3 v 0 a 11,11 0 0 0 2.82,3.54 h 0.06 a 14.86,14.86 0 0 0 3.34,2.09 c 0.85,0.45 2.83,0.73 6,0.78 0.62,0.06 1.81,0.06 3.62,0.06 1.59,0.06 2.83,0.06 3.74,0.11 h 0.05 a 34.78,34.78 0 0 1 6.63,0.62 5.48,5.48 0 0 1 2.65,2.71 v 0 a 2.33,2.33 0 0 1 0.19,1.7 c -0.17,1.13 -0.52,0.93 -1,1.5 v -0.07 a 6.68,6.68 0 0 1 -2.59,1.16 30,30 0 0 1 -6.12,0.74 52.14,52.14 0 0 1 -7.18,-0.29 37.73,37.73 0 0 1 -6.06,-1.18 3.39,3.39 0 0 0 -4,4.79 3.58,3.58 0 0 0 2,1.63 38.7,38.7 0 0 0 7.3,1.46 64.35,64.35 0 0 0 8.21,0.34 39.5,39.5 0 0 0 7.58,-0.95 c 2.95,-0.74 5,-1.87 6.06,-3.33 H 386 a 14.29,14.29 0 0 0 2,-3.05 v 0 a 9.19,9.19 0 0 0 0.67,-3.43 V 65.61 A 10.3,10.3 0 0 0 388.24,62.35 18.43,18.43 0 0 0 387,59.34 c -0.91,-2 -3,-3.21 -6.69,-4 h -0.06 a 52.92,52.92 0 0 0 -7.75,-0.72 c -1,0 -2.26,0 -4,-0.12 -1.74,-0.12 -2.89,0 -3.51,0 a 24.78,24.78 0 0 1 -3.45,-0.22 6.45,6.45 0 0 1 -1.64,-1 4.89,4.89 0 0 1 -1.14,-1.34 V 51.8 a 1.29,1.29 0 0 1 -0.17,-1.13 4.71,4.71 0 0 1 1.41,-2.26 c 3.39,-3.26 11,-3.26 22.8,0.11 a 3.49,3.49 0 0 0 4.2,-2.36 3.09,3.09 0 0 0 -0.33,-2.52 z"
           fill="url(#linear-gradient)"
           id="path72"
           style="fill:url(#linearGradient981)" />
        <path
           d="m 420,40.79 a 3.47,3.47 0 0 0 -2.43,-0.95 H 394.9 a 3.36,3.36 0 0 0 -2.38,0.95 3.25,3.25 0 0 0 -1,2.42 v 28.15 a 3.48,3.48 0 0 0 3.39,3.4 h 22.64 a 3.44,3.44 0 0 0 2.45,-5.82 3.53,3.53 0 0 0 -2.43,-1 H 398.3 v -7.27 h 14.15 a 3.3,3.3 0 0 0 2.43,-1 3.35,3.35 0 0 0 1,-2.36 3.31,3.31 0 0 0 -3.2,-3.4 H 398.3 v -7.3 h 19.24 a 3.31,3.31 0 0 0 2.43,-1 3.17,3.17 0 0 0 1,-2.36 3.42,3.42 0 0 0 -0.97,-2.46 z"
           fill="url(#linear-gradient-2)"
           id="path74"
           style="fill:url(#linear-gradient-2)" />
        <path
           d="m 459.05,44.78 a 3.6,3.6 0 0 0 -1.4,-2.32 c -6.23,-4.47 -13,-5.31 -19.61,-4.16 a 21.71,21.71 0 0 0 -6.27,2 15.47,15.47 0 0 0 -4.8,4 16.49,16.49 0 0 0 -3,5.66 c -0.9,2.4 -0.9,3.56 -1,6.49 a 23,23 0 0 0 1.13,8.19 18.25,18.25 0 0 0 3.9,6.67 v -0.07 a 16.06,16.06 0 0 0 6.23,4.44 19.93,19.93 0 0 0 8,1.59 q 10.18,0 14.74,-4.59 c 3.56,-3.11 5,-7.81 4.47,-14.11 A 3.68,3.68 0 0 0 460.36,56.19 3.3,3.3 0 0 0 458,55.3 h -14.71 a 3.2,3.2 0 0 0 -2.37,1 3.65,3.65 0 0 0 -1,2.62 3.56,3.56 0 0 0 1,2.57 3.07,3.07 0 0 0 2.37,1.1 h 11.32 a 7.68,7.68 0 0 1 -2.09,4.53 c -2.2,1.89 -5.66,2.83 -10.34,2.83 a 14.45,14.45 0 0 1 -5.47,-1 l -0.06,-0.06 a 10.16,10.16 0 0 1 -3.79,-2.69 11.11,11.11 0 0 1 -2.39,-4.11 15.4,15.4 0 0 1 -0.74,-5.44 16.74,16.74 0 0 1 0.68,-4.6 6,6 0 0 1 1.36,-2.57 7.78,7.78 0 0 1 2.71,-2.42 22.49,22.49 0 0 1 5,-1.64 h 0.05 c 5,-1.23 9.72,-0.19 14.3,3.17 a 3.2,3.2 0 0 0 2.54,0.57 3.44,3.44 0 0 0 2.15,-1.59 3.8,3.8 0 0 0 0.53,-2.79 z"
           fill="url(#linear-gradient-3)"
           id="path76"
           style="fill:url(#linear-gradient-3)" />
        <path
           d="m 501.82,74.48 a 3.41,3.41 0 0 0 0.68,-2.54 Q 497.16,36.72 483.26,37.54 C 474,37 467.53,48.07 464.07,70.81 a 3.23,3.23 0 0 0 0.63,2.48 3.15,3.15 0 0 0 2.2,1.36 3.32,3.32 0 0 0 2.55,-0.63 3.46,3.46 0 0 0 1.36,-2.2 c 0.42,-2.83 0.89,-5.43 1.39,-7.83 h 22 q 0.85,4.07 1.59,8.95 a 3.31,3.31 0 0 0 1.36,2.2 3,3 0 0 0 2.49,0.62 3.2,3.2 0 0 0 2.18,-1.28 z M 473.89,57.25 c 2.47,-8.34 5.61,-12.65 9.36,-13 3.65,0.3 6.75,4.62 9.23,13 z"
           fill="url(#linear-gradient-4)"
           id="path78"
           style="fill:url(#linear-gradient-4)" />
        <path
           d="m 371,77.3 a 66.63,66.63 0 0 1 -6.91,-0.36 38,38 0 0 1 -7.47,-1.5 4.41,4.41 0 0 1 -2.44,-2 4.3,4.3 0 0 1 -0.28,-3.26 4.23,4.23 0 0 1 5.27,-2.71 37.93,37.93 0 0 0 5.9,1.13 52.12,52.12 0 0 0 7.07,0.27 29,29 0 0 0 5.94,-0.71 5.85,5.85 0 0 0 2.19,-0.94 l 0.15,-0.11 0.3,-0.24 c 0.15,-0.12 0.19,-0.15 0.26,-0.6 a 3.78,3.78 0 0 0 0.05,-0.75 0.18,0.18 0 0 1 -0.05,-0.07 v 0 a 0.81,0.81 0 0 1 -0.12,-0.29 l -0.05,-0.31 v 0 a 5.29,5.29 0 0 0 -2.1,-2.07 34.31,34.31 0 0 0 -6.4,-0.57 c -0.56,0 -1.18,0 -1.88,-0.06 l -1.93,-0.07 c -1.79,0 -3,0 -3.66,-0.06 -3.22,-0.06 -5.3,-0.34 -6.31,-0.88 A 15.1,15.1 0 0 1 355.19,59.08 0.82,0.82 0 0 1 355,59 a 12.08,12.08 0 0 1 -3,-3.81 0.68,0.68 0 0 1 -0.07,-0.28 8.87,8.87 0 0 1 -0.67,-5.51 12,12 0 0 1 3,-5.91 c 2.61,-3.36 7.13,-5.09 13.39,-5.09 a 66.3,66.3 0 0 1 17.28,2.86 4.45,4.45 0 0 1 2.51,2 4.14,4.14 0 0 1 -1.68,5.7 3.7,3.7 0 0 1 -2,0.57 v 0 a 5.67,5.67 0 0 1 -1.16,-0.15 c -11.38,-3.26 -18.9,-3.35 -22,-0.32 a 3.73,3.73 0 0 0 -1.07,1.85 0.57,0.57 0 0 0 0.05,0.46 0.66,0.66 0 0 1 0.12,0.27 4.6,4.6 0 0 0 0.88,1 5.94,5.94 0 0 0 1.36,0.84 c 0.57,0.11 2.41,0.16 3.22,0.19 0.64,0 1.83,0 3.48,0 h 2 c 0.8,0 1.48,0 2,0.07 a 55,55 0 0 1 7.79,0.73 h 0.13 c 3.94,0.84 6.23,2.27 7.27,4.46 l 0.17,0.38 a 15.28,15.28 0 0 1 1.07,2.69 8.57,8.57 0 0 1 0.43,2.88 v 0.74 a 9.81,9.81 0 0 1 -0.7,3.63 0.64,0.64 0 0 1 -0.06,0.18 14.84,14.84 0 0 1 -2.08,3.23 1.54,1.54 0 0 1 -0.19,0.17 c -1.23,1.53 -3.37,2.69 -6.37,3.43 a 39.61,39.61 0 0 1 -7.74,1 z m -13.13,-8.42 a 2.28,2.28 0 0 0 -1.13,0.3 2.35,2.35 0 0 0 -1.32,1.5 2.52,2.52 0 0 0 1.58,3.18 h 0.07 a 37.78,37.78 0 0 0 7.14,1.42 66.26,66.26 0 0 0 8.09,0.34 38.54,38.54 0 0 0 7.41,-0.94 c 2.74,-0.68 4.63,-1.69 5.59,-3 a 1.1,1.1 0 0 1 0.22,-0.21 13.87,13.87 0 0 0 1.7,-2.58 0.74,0.74 0 0 1 0,-0.14 8.15,8.15 0 0 0 0.62,-3.12 V 65 a 7.27,7.27 0 0 0 -0.37,-2.41 14.81,14.81 0 0 0 -1,-2.5 l -0.18,-0.38 c -0.78,-1.7 -2.7,-2.83 -6.05,-3.53 h -0.11 a 52.67,52.67 0 0 0 -7.63,-0.71 c -0.57,0 -1.22,0 -2,-0.06 l -2,-0.08 c -1.73,0 -2.89,0 -3.56,-0.06 a 22.47,22.47 0 0 1 -3.57,-0.24 h -0.14 a 7.52,7.52 0 0 1 -1.84,-1.13 5.68,5.68 0 0 1 -1.33,-1.6 0.88,0.88 0 0 1 -0.05,-0.15 2.07,2.07 0 0 1 -0.17,-1.63 5.45,5.45 0 0 1 1.51,-2.6 c 3.66,-3.53 11.53,-3.54 23.6,-0.09 A 2.68,2.68 0 0 0 386.19,46 2.31,2.31 0 0 0 386,44 2.76,2.76 0 0 0 384.42,42.76 65.07,65.07 0 0 0 367.58,40 c -5.73,0 -9.81,1.51 -12.12,4.49 a 10.34,10.34 0 0 0 -2.67,5.14 7.34,7.34 0 0 0 0.65,4.81 0.65,0.65 0 0 1 0.08,0.27 10.37,10.37 0 0 0 2.37,2.9 l 0.18,0.11 a 13.34,13.34 0 0 0 3.15,2 c 0.48,0.25 1.78,0.65 5.66,0.71 0.64,0.06 1.82,0.06 3.61,0.06 l 1.92,0.05 c 0.73,0 1.35,0 1.87,0.06 a 35.85,35.85 0 0 1 6.87,0.65 6.48,6.48 0 0 1 3.19,3.25 l 0.05,0.11 a 3.07,3.07 0 0 1 0.16,2 2.16,2.16 0 0 1 -0.89,1.66 1.09,1.09 0 0 0 -0.25,0.23 0.71,0.71 0 0 1 -0.38,0.26 8.39,8.39 0 0 1 -2.58,1.09 32,32 0 0 1 -6.32,0.76 h -1.63 a 46.3,46.3 0 0 1 -5.65,-0.31 37.33,37.33 0 0 1 -6.2,-1.21 2.77,2.77 0 0 0 -0.81,-0.21 z"
           fill="#484848"
           id="path80" />
        <path
           d="M 417.54,75.56 H 394.9 a 4,4 0 0 1 -3,-1.28 3.91,3.91 0 0 1 -1.23,-2.92 V 43.21 a 4.1,4.1 0 0 1 1.26,-3 4.18,4.18 0 0 1 2.97,-1.21 h 22.64 a 4.09,4.09 0 0 1 4.21,4 v 0.22 a 4,4 0 0 1 -1.2,2.94 4.15,4.15 0 0 1 -3,1.23 h -18.43 v 5.71 h 13.33 a 4.11,4.11 0 0 1 4.21,4 v 0.2 a 4.2,4.2 0 0 1 -4.19,4.19 h -13.35 v 5.71 h 18.42 a 4.08,4.08 0 0 1 4.21,4 0.74,0.74 0 0 1 0,0.21 4.06,4.06 0 0 1 -1.2,2.94 4.12,4.12 0 0 1 -3.01,1.21 z M 394.9,40.65 a 2.52,2.52 0 0 0 -1.8,0.72 2.43,2.43 0 0 0 -0.77,1.84 v 28.15 a 2.34,2.34 0 0 0 0.75,1.77 2.39,2.39 0 0 0 1.83,0.8 h 22.63 a 2.56,2.56 0 0 0 2.58,-2.56 v 0 a 2.45,2.45 0 0 0 -2.36,-2.56 H 398.3 a 0.82,0.82 0 0 1 -0.82,-0.82 v -7.32 a 0.82,0.82 0 0 1 0.81,-0.84 h 14.16 A 2.55,2.55 0 0 0 415,57.31 v 0 a 2.68,2.68 0 0 0 -0.75,-1.88 2.6,2.6 0 0 0 -1.84,-0.65 h -14.12 a 0.82,0.82 0 0 1 -0.82,-0.81 v 0 -7.38 a 0.82,0.82 0 0 1 0.82,-0.82 h 19.24 a 2.51,2.51 0 0 0 1.86,-0.78 2.38,2.38 0 0 0 0.72,-1.78 2.46,2.46 0 0 0 -2.36,-2.56 z"
           fill="#484848"
           id="path82" />
        <path
           d="m 442.16,78.1 a 20.86,20.86 0 0 1 -8.28,-1.65 16.92,16.92 0 0 1 -6.31,-4.45 0.62,0.62 0 0 1 -0.18,-0.14 19,19 0 0 1 -4.08,-7 23.49,23.49 0 0 1 -1.16,-8.49 V 55.9 a 16,16 0 0 1 1.05,-6.27 c 0.94,-2.48 1.7,-4.34 3.15,-5.9 a 16.17,16.17 0 0 1 5,-4.19 16.71,16.71 0 0 1 4.94,-1.69 l 1.51,-0.33 a 31.19,31.19 0 0 1 5.37,-0.5 25,25 0 0 1 14.89,4.78 4.37,4.37 0 0 1 1.74,2.83 4.59,4.59 0 0 1 -0.61,3.35 4.23,4.23 0 0 1 -2.63,1.93 4.14,4.14 0 0 1 -0.87,0.1 v 0 a 4.09,4.09 0 0 1 -2.34,-0.77 q -6.54,-4.82 -13.63,-3.05 h -0.14 l -0.77,0.19 a 18.44,18.44 0 0 0 -4,1.37 6.88,6.88 0 0 0 -2.39,2.13 0.83,0.83 0 0 1 -0.08,0.12 5.23,5.23 0 0 0 -1.18,2.23 16.05,16.05 0 0 0 -0.64,4.41 14.51,14.51 0 0 0 0.69,5.15 10.22,10.22 0 0 0 2.2,3.8 9.25,9.25 0 0 0 3.5,2.49 0.82,0.82 0 0 1 0.2,0.12 13.66,13.66 0 0 0 5,0.92 c 4.49,0 7.79,-0.88 9.8,-2.62 a 6.41,6.41 0 0 0 1.66,-3.08 h -10.28 a 3.89,3.89 0 0 1 -3,-1.39 4.34,4.34 0 0 1 -1.21,-3.09 4.47,4.47 0 0 1 1.24,-3.18 4,4 0 0 1 3,-1.3 H 458 a 4.12,4.12 0 0 1 2.87,1.13 4.5,4.5 0 0 1 1.34,2.95 c 0.57,6.53 -1,11.5 -4.74,14.77 -3.19,3.17 -8.34,4.79 -15.31,4.79 z m -13.77,-7.56 a 0.68,0.68 0 0 1 0.21,0.17 15.39,15.39 0 0 0 5.91,4.23 19.15,19.15 0 0 0 7.65,1.53 c 6.52,0 11.29,-1.46 14.15,-4.34 3.4,-3 4.77,-7.36 4.23,-13.47 a 2.89,2.89 0 0 0 -0.86,-1.89 2.4,2.4 0 0 0 -1.71,-0.66 h -14.68 a 2.41,2.41 0 0 0 -1.78,0.77 2.9,2.9 0 0 0 -0.8,2.07 2.78,2.78 0 0 0 0.78,2 2.29,2.29 0 0 0 1.8,0.86 h 11.32 a 0.82,0.82 0 0 1 0.81,0.92 8.46,8.46 0 0 1 -2.32,5 c -2.4,2.07 -6,3.05 -10.92,3.05 a 15.07,15.07 0 0 1 -5.78,-1.13 0.72,0.72 0 0 1 -0.21,-0.12 10.84,10.84 0 0 1 -4,-2.83 11.72,11.72 0 0 1 -2.55,-4.38 16.38,16.38 0 0 1 -0.78,-5.73 17.37,17.37 0 0 1 0.71,-4.8 6.92,6.92 0 0 1 1.53,-2.79 8.58,8.58 0 0 1 3,-2.65 20,20 0 0 1 4.33,-1.49 l 0.85,-0.22 h 0.17 c 5.16,-1.24 10.18,-0.12 14.87,3.33 a 2.35,2.35 0 0 0 1.4,0.46 v 0 a 2.37,2.37 0 0 0 2.11,-1.26 3,3 0 0 0 0.4,-2.2 2.79,2.79 0 0 0 -1.09,-1.79 c -5.39,-3.95 -11.84,-5.31 -19,-4 l -1.5,0.32 a 15.5,15.5 0 0 0 -4.5,1.5 14.82,14.82 0 0 0 -4.53,3.76 16,16 0 0 0 -2.87,5.44 14.75,14.75 0 0 0 -0.95,5.75 v 0.48 a 22.17,22.17 0 0 0 1.09,7.92 17.45,17.45 0 0 0 3.51,6.19 z"
           fill="#484848"
           id="path84" />
        <path
           d="m 499,76.63 v 0 a 3.84,3.84 0 0 1 -2.39,-0.84 4.08,4.08 0 0 1 -1.67,-2.7 c -0.44,-3 -0.93,-5.74 -1.45,-8.28 h -20.62 c -0.45,2.22 -0.88,4.62 -1.26,7.14 a 4.24,4.24 0 0 1 -1.7,2.71 4,4 0 0 1 -3.18,0.78 3.85,3.85 0 0 1 -2.73,-1.69 4,4 0 0 1 -0.78,-3.06 c 3.52,-23.15 10.24,-34.58 20,-34 h 0.6 c 9.46,0 15.81,11.49 19.4,35.12 a 4.27,4.27 0 0 1 -0.82,3.13 4,4 0 0 1 -2.78,1.62 3.68,3.68 0 0 1 -0.62,0.07 z M 472.2,63.18 h 22 a 0.81,0.81 0 0 1 0.8,0.65 c 0.57,2.73 1.13,5.76 1.6,9 a 2.43,2.43 0 0 0 1,1.66 2.29,2.29 0 0 0 1.87,0.48 2.37,2.37 0 0 0 1.69,-1 2.54,2.54 0 0 0 0.52,-1.93 C 498.19,49.16 492,37.8 483.29,38.35 h -0.72 c -8.49,0 -14.43,11 -17.71,32.6 a 2.38,2.38 0 0 0 0.46,1.86 2.34,2.34 0 0 0 1.71,1 3.57,3.57 0 0 0 0.47,0 2.55,2.55 0 0 0 1.5,-0.52 2.7,2.7 0 0 0 1,-1.7 c 0.42,-2.77 0.89,-5.42 1.4,-7.85 a 0.81,0.81 0 0 1 0.8,-0.56 z m 20.28,-5.09 h -18.59 a 0.82,0.82 0 0 1 -0.83,-0.81 0.86,0.86 0 0 1 0,-0.28 c 2.61,-8.77 5.91,-13.2 10.09,-13.53 h 0.13 c 4.08,0.33 7.36,4.76 9.95,13.53 a 0.81,0.81 0 0 1 -0.77,1.06 z M 475,56.43 h 16.4 c -2.27,-7.1 -5.06,-11 -8.13,-11.31 -3.22,0.3 -6,4.11 -8.27,11.31 z"
           fill="#484848"
           id="path86" />
        <path
           d="m 555.78,43.34 a 3.67,3.67 0 0 0 -2,-1.62 c -15.58,-4.37 -25.63,-3.75 -30.08,2 a 11.06,11.06 0 0 0 -2.83,5.57 8.19,8.19 0 0 0 0.74,5.33 h -0.06 a 11.31,11.31 0 0 0 2.83,3.58 h 0.06 a 14.8,14.8 0 0 0 3.36,2.1 c 0.86,0.45 2.83,0.74 6,0.79 0.63,0.06 1.83,0.06 3.65,0.06 1.6,0 2.83,0 3.77,0.12 h 0.06 a 35.77,35.77 0 0 1 6.68,0.61 5.64,5.64 0 0 1 2.68,2.74 v 0 a 2.31,2.31 0 0 1 0.17,1.69 c -0.16,1.14 -0.52,1 -1,1.52 v -0.07 a 6.9,6.9 0 0 1 -2.57,1.13 30.44,30.44 0 0 1 -6.17,0.75 51.46,51.46 0 0 1 -7.24,-0.29 38.36,38.36 0 0 1 -6.11,-1.19 3.17,3.17 0 0 0 -2.57,0.23 3.07,3.07 0 0 0 -1.69,2 3.48,3.48 0 0 0 0.22,2.61 3.63,3.63 0 0 0 2,1.65 37.64,37.64 0 0 0 7.36,1.47 65.21,65.21 0 0 0 8.27,0.34 39.35,39.35 0 0 0 7.65,-1 c 3,-0.74 5,-1.87 6.11,-3.35 v 0 a 14.33,14.33 0 0 0 2,-3.07 V 69 a 8.9,8.9 0 0 0 0.69,-3.46 v -0.11 a 10.45,10.45 0 0 0 -0.44,-3.29 19.67,19.67 0 0 0 -1.26,-3 c -0.92,-2 -3,-3.24 -6.75,-4 h -0.06 a 53.75,53.75 0 0 0 -7.81,-0.73 c -1,-0.06 -2.27,-0.06 -4,-0.12 -1.73,-0.06 -2.91,0 -3.54,-0.06 a 25.21,25.21 0 0 1 -3.4,-0.23 7.27,7.27 0 0 1 -1.66,-1 5,5 0 0 1 -1.13,-1.37 v 0 a 1.37,1.37 0 0 1 -0.17,-1.13 4.71,4.71 0 0 1 1.32,-2.27 c 3.39,-3.29 11.07,-3.29 23,0.12 a 3.43,3.43 0 0 0 3.93,-4.95 z"
           fill="url(#linear-gradient-5)"
           id="path88"
           style="fill:url(#linear-gradient-5)" />
        <path
           d="m 565.05,76.48 a 3.43,3.43 0 0 0 1.37,-2.21 c 0.44,-2.83 0.91,-5.48 1.41,-7.89 H 590 q 0.87,4.09 1.6,9.06 a 3.33,3.33 0 0 0 1.4,2.21 3.09,3.09 0 0 0 2.52,0.62 3.25,3.25 0 0 0 2.18,-1.27 3.51,3.51 0 0 0 0.69,-2.56 Q 593,38.89 579,39.7 565,38.84 559.65,73.25 a 3,3 0 0 0 0.63,2.5 3.09,3.09 0 0 0 2.23,1.36 3.18,3.18 0 0 0 2.54,-0.63 z m 4.48,-16.92 Q 573.28,47 579,46.51 q 5.57,0.45 9.31,13.05 z"
           fill="url(#linear-gradient-6)"
           id="path90"
           style="fill:url(#linear-gradient-6)" />
        <path
           d="m 627.66,42.37 a 3.45,3.45 0 0 0 -2.45,-1 h -29.68 a 3.38,3.38 0 0 0 -2.4,1 3.28,3.28 0 0 0 -1,2.43 3.5,3.5 0 0 0 3.42,3.4 h 11.42 v 26.13 a 3.16,3.16 0 0 0 1,2.39 3.24,3.24 0 0 0 2.4,1 3.38,3.38 0 0 0 3.42,-3.37 V 48.21 h 11.41 a 3.47,3.47 0 0 0 2.46,-5.84 z"
           fill="url(#linear-gradient-7)"
           id="path92"
           style="fill:url(#linear-gradient-7)" />
        <path
           d="m 667.65,41.69 a 3.34,3.34 0 0 0 -2.45,-1 3.21,3.21 0 0 0 -2.4,1 3.12,3.12 0 0 0 -1,2.38 v 16.86 a 8.82,8.82 0 0 1 -0.74,3.69 9.53,9.53 0 0 1 -5.13,5.1 9.1,9.1 0 0 1 -3.71,0.73 h -5.12 a 9.07,9.07 0 0 1 -3.71,-0.73 9.55,9.55 0 0 1 -3.08,-2 10.88,10.88 0 0 1 -2.06,-3 v 0 a 10,10 0 0 1 -0.74,-3.7 V 44.07 a 3.4,3.4 0 0 0 -3.39,-3.4 v 0 a 3.21,3.21 0 0 0 -2.37,1 3.14,3.14 0 0 0 -1,2.38 v 16.88 a 17.33,17.33 0 0 0 1.26,6.36 H 632 a 16.13,16.13 0 0 0 3.48,5.22 17.23,17.23 0 0 0 5.25,3.49 15.94,15.94 0 0 0 6.39,1.25 h 5.1 A 16.43,16.43 0 0 0 658.67,76 h -0.06 a 16.35,16.35 0 0 0 8.76,-8.74 v 0.06 a 16.3,16.3 0 0 0 1.26,-6.42 V 44.07 a 3.37,3.37 0 0 0 -0.98,-2.38 z"
           fill="url(#linear-gradient-8)"
           id="path94"
           style="fill:url(#linear-gradient-8)" />
        <path
           d="m 672.25,41.72 a 3.13,3.13 0 0 0 -1,2.26 v 29.31 a 3.27,3.27 0 0 0 1,2.39 3.81,3.81 0 0 0 2.61,1 3.45,3.45 0 0 0 2.55,-1 3.06,3.06 0 0 0 1.09,-2.38 V 47.13 c 7.83,-0.45 13.84,-0.06 18,1.13 3.15,1 4.85,2.54 5,4.74 a 3.65,3.65 0 0 1 -2.18,3.72 c -2.43,1 -6,1.3 -10.76,0.79 a 3.64,3.64 0 0 0 -2.3,0.51 3.2,3.2 0 0 0 -1.52,1.7 3.15,3.15 0 0 0 -0.12,2.14 3.34,3.34 0 0 0 1.4,1.74 L 704.35,76 a 3.52,3.52 0 0 0 2.67,0.62 3.45,3.45 0 0 0 3.1,-3.77 v -0.07 a 3.48,3.48 0 0 0 -1.46,-2.26 L 699,64 a 17.57,17.57 0 0 0 3.64,-1.24 10.15,10.15 0 0 0 6.28,-9.76 c 0.24,-5.41 -3.16,-9.14 -10.08,-11.17 -5.4,-1.7 -13.47,-2.09 -24.22,-1.24 a 3.61,3.61 0 0 0 -2.37,1.13 z"
           fill="url(#linear-gradient-9)"
           id="path96"
           style="fill:url(#linear-gradient-9)" />
        <path
           d="m 714.41,42.29 a 3.29,3.29 0 0 0 -0.64,1.94 v 29.53 a 3.48,3.48 0 0 0 3.43,3.4 3.39,3.39 0 0 0 3.39,-3.39 V 52.7 l 22.64,23.39 a 3.72,3.72 0 0 0 1.77,1 4.12,4.12 0 0 0 2,-0.17 3.49,3.49 0 0 0 1.54,-1.3 3.15,3.15 0 0 0 0.56,-1.88 V 44.23 a 3.3,3.3 0 0 0 -3.42,-3.4 3.4,3.4 0 0 0 -2.4,1 3.27,3.27 0 0 0 -1,2.44 V 65.3 L 719.72,41.85 a 4.14,4.14 0 0 0 -1.77,-1 3.43,3.43 0 0 0 -2,0.22 3,3 0 0 0 -1.54,1.22 z"
           fill="url(#linear-gradient-10)"
           id="path98"
           style="fill:url(#linear-gradient-10)" />
        <path
           d="m 540,77.28 c -2.31,0 -4.59,-0.12 -7,-0.35 a 39.68,39.68 0 0 1 -7.54,-1.52 4.41,4.41 0 0 1 -2.45,-2 4.33,4.33 0 0 1 -0.29,-3.27 3.9,3.9 0 0 1 2.14,-2.47 4,4 0 0 1 3.14,-0.27 36.52,36.52 0 0 0 6,1.13 51.27,51.27 0 0 0 7.12,0.28 30.27,30.27 0 0 0 6,-0.72 6.58,6.58 0 0 0 2.21,-1 l 0.14,-0.1 0.31,-0.26 c 0.09,-0.06 0.19,-0.14 0.26,-0.6 a 3.12,3.12 0 0 0 0,-0.75 0.87,0.87 0 0 1 -0.17,-0.38 v -0.31 0 a 5.37,5.37 0 0 0 -2.12,-2.08 34.92,34.92 0 0 0 -6.45,-0.57 c -0.6,0 -1.22,0 -1.94,-0.06 -0.72,-0.06 -1.2,0 -1.9,-0.06 -1.81,0 -3,0 -3.7,0 -3.24,-0.06 -5.34,-0.35 -6.36,-0.89 A 16.16,16.16 0 0 1 524,59 0.82,0.82 0 0 1 523.8,58.88 12.12,12.12 0 0 1 520.72,55 a 1,1 0 0 1 -0.08,-0.29 8.94,8.94 0 0 1 -0.67,-5.56 12.16,12.16 0 0 1 3,-6 c 2.64,-3.39 7.19,-5.13 13.51,-5.13 a 67.07,67.07 0 0 1 17.42,2.88 4.48,4.48 0 0 1 2.54,2 3.92,3.92 0 0 1 0.35,3.24 3.87,3.87 0 0 1 -2,2.51 3.71,3.71 0 0 1 -2,0.57 v 0 a 4.64,4.64 0 0 1 -1.17,-0.15 c -11.48,-3.28 -19.06,-3.39 -22.23,-0.32 a 3.82,3.82 0 0 0 -1.08,1.86 0.56,0.56 0 0 0 0.05,0.49 0.83,0.83 0 0 1 0.12,0.27 4.39,4.39 0 0 0 0.89,1 5.74,5.74 0 0 0 1.37,0.86 c 0.6,0.11 2.51,0.16 3.24,0.18 0.73,0.02 1.85,0.06 3.52,0.06 0.8,0 1.49,0 2.11,0.06 0.62,0.06 1.4,0 1.93,0.06 a 55.76,55.76 0 0 1 7.86,0.74 0.33,0.33 0 0 1 0.14,0 c 4,0.84 6.29,2.26 7.32,4.49 l 0.18,0.39 a 16.33,16.33 0 0 1 1.14,2.79 8.6,8.6 0 0 1 0.44,2.89 v 0.57 a 0.43,0.43 0 0 1 0,0.16 10,10 0 0 1 -0.7,3.67 1.05,1.05 0 0 1 0,0.19 15.1,15.1 0 0 1 -2.11,3.25 0.61,0.61 0 0 1 -0.19,0.17 c -1.24,1.54 -3.4,2.71 -6.42,3.46 a 40.34,40.34 0 0 1 -7.82,1 z m -13.26,-8.49 a 2.22,2.22 0 0 0 -1.13,0.3 2.35,2.35 0 0 0 -1.33,1.51 2.55,2.55 0 0 0 1.62,3.21 h 0.08 a 36.89,36.89 0 0 0 7.2,1.44 67.33,67.33 0 0 0 8.16,0.34 38.38,38.38 0 0 0 7.47,-1 c 2.77,-0.69 4.67,-1.7 5.66,-3 a 1.1,1.1 0 0 1 0.22,-0.21 13.07,13.07 0 0 0 1.7,-2.6 0.74,0.74 0 0 1 0,-0.14 8.24,8.24 0 0 0 0.61,-3.14 v -0.67 a 7.23,7.23 0 0 0 -0.37,-2.44 14.39,14.39 0 0 0 -1,-2.5 l -0.17,-0.39 c -0.8,-1.7 -2.74,-2.83 -6.12,-3.56 h -0.1 a 51.06,51.06 0 0 0 -7.7,-0.73 c -0.56,0 -1.16,0 -1.89,-0.06 -0.73,-0.06 -1.32,0 -2.1,-0.06 -1.74,0 -2.92,0 -3.59,-0.06 a 24.1,24.1 0 0 1 -3.6,-0.24 h -0.15 A 7.69,7.69 0 0 1 528.36,53.65 5.58,5.58 0 0 1 527,52 a 0.75,0.75 0 0 1 -0.05,-0.16 2.09,2.09 0 0 1 -0.17,-1.64 5.48,5.48 0 0 1 1.52,-2.62 q 5.55,-5.34 23.81,-0.09 a 2.41,2.41 0 0 0 1.89,-0.25 2.55,2.55 0 0 0 1.15,-3.42 v -0.1 a 2.82,2.82 0 0 0 -1.59,-1.25 65,65 0 0 0 -16.94,-2.83 c -5.78,0 -9.9,1.53 -12.23,4.52 a 10.61,10.61 0 0 0 -2.69,5.19 7.44,7.44 0 0 0 0.66,4.84 0.92,0.92 0 0 1 0.08,0.27 10.49,10.49 0 0 0 2.38,2.92 0.54,0.54 0 0 1 0.18,0.11 13.56,13.56 0 0 0 3.18,2 c 0.48,0.26 1.8,0.66 5.73,0.73 0.65,0 1.84,0 3.63,0 l 1.91,0.05 c 0.74,0 1.38,0 1.92,0.07 1,0 6.45,0.51 6.92,0.65 a 6.4,6.4 0 0 1 3.22,3.28 v 0.11 a 3.1,3.1 0 0 1 0.16,2 2.15,2.15 0 0 1 -0.89,1.7 1.48,1.48 0 0 0 -0.26,0.24 0.84,0.84 0 0 1 -0.38,0.26 8.7,8.7 0 0 1 -2.61,1.09 31.7,31.7 0 0 1 -6.37,0.77 h -1.7 a 48.39,48.39 0 0 1 -5.65,-0.31 39.89,39.89 0 0 1 -6.25,-1.13 2.7,2.7 0 0 0 -0.85,-0.14 z"
           fill="#484848"
           id="path100" />
        <path
           d="m 594.89,79.13 a 3.93,3.93 0 0 1 -2.42,-0.86 4,4 0 0 1 -1.7,-2.71 c -0.45,-3 -0.95,-5.84 -1.46,-8.36 H 568.5 c -0.45,2.23 -0.87,4.65 -1.26,7.2 a 4.35,4.35 0 0 1 -1.7,2.74 4.14,4.14 0 0 1 -2.46,0.85 v 0 a 3.81,3.81 0 0 1 -0.75,-0.07 3.91,3.91 0 0 1 -2.76,-1.7 3.82,3.82 0 0 1 -0.76,-3.13 c 3.64,-23.61 10.27,-34.82 20.2,-34.22 h 0.6 c 9.55,0 16,11.58 19.57,35.41 a 4.22,4.22 0 0 1 -0.83,3.16 4.06,4.06 0 0 1 -2.77,1.63 4,4 0 0 1 -0.69,0.06 z M 567.83,65.55 H 590 a 0.83,0.83 0 0 1 0.81,0.65 c 0.57,2.7 1.13,5.75 1.61,9 a 2.39,2.39 0 0 0 1,1.66 2.25,2.25 0 0 0 1.88,0.5 2.51,2.51 0 0 0 1.7,-1 2.61,2.61 0 0 0 0.52,-2 c -3.51,-23.07 -9.71,-34.52 -18.54,-34 h -0.72 c -8.49,0 -14.49,11.06 -17.86,32.88 a 2.28,2.28 0 0 0 0.46,1.87 2.37,2.37 0 0 0 1.7,1.05 4.4,4.4 0 0 0 0.51,0 v 0 a 2.47,2.47 0 0 0 1.48,-0.53 2.73,2.73 0 0 0 1,-1.7 c 0.42,-2.83 0.9,-5.47 1.41,-7.93 a 0.83,0.83 0 0 1 0.81,-0.62 z M 588.3,60.4 h -18.77 a 0.82,0.82 0 0 1 -0.82,-0.82 0.93,0.93 0 0 1 0,-0.24 c 2.63,-8.84 6,-13.3 10.19,-13.64 h 0.13 c 4.14,0.33 7.42,4.79 10,13.64 a 0.81,0.81 0 0 1 -0.53,1 0.82,0.82 0 0 1 -0.2,0.06 z m -17.66,-1.65 h 16.55 c -2.3,-7.27 -5.06,-11.1 -8.21,-11.4 -3.23,0.3 -6,4.13 -8.34,11.39 z"
           fill="#484848"
           id="path102" />
        <path
           d="m 610.37,78.56 a 4.32,4.32 0 0 1 -4.24,-4.23 V 49 h -10.6 a 4.34,4.34 0 0 1 -4.25,-4.24 4.16,4.16 0 0 1 1.27,-3 4.25,4.25 0 0 1 3,-1.19 h 29.68 a 4.12,4.12 0 0 1 4.24,4 1.55,1.55 0 0 1 0,0.22 4.23,4.23 0 0 1 -4.22,4.23 h -10.63 v 25.31 a 4.23,4.23 0 0 1 -4.24,4.23 z M 595.53,42.22 a 2.54,2.54 0 0 0 -1.82,0.73 2.49,2.49 0 0 0 -0.78,1.85 2.37,2.37 0 0 0 0.76,1.79 2.42,2.42 0 0 0 1.84,0.79 h 11.41 a 0.83,0.83 0 0 1 0.83,0.83 v 0 26.12 a 2.35,2.35 0 0 0 0.74,1.78 2.44,2.44 0 0 0 1.84,0.81 2.6,2.6 0 0 0 2.65,-2.59 v 0 -26.12 a 0.82,0.82 0 0 1 0.81,-0.83 h 11.44 a 2.58,2.58 0 0 0 2.6,-2.59 2.49,2.49 0 0 0 -2.37,-2.58 h -29.95 z"
           fill="#484848"
           id="path104" />
        <path
           d="m 652.19,78.1 h -5.09 a 17,17 0 0 1 -6.71,-1.29 18,18 0 0 1 -5.49,-3.69 17,17 0 0 1 -3.58,-5.28 0.63,0.63 0 0 1 -0.16,-0.23 18.13,18.13 0 0 1 -1.31,-6.67 V 44.07 a 4.32,4.32 0 0 1 4.25,-4.23 4.23,4.23 0 0 1 4.25,4.16 v 16.9 a 9,9 0 0 0 0.67,3.39 1.21,1.21 0 0 1 0.05,0.14 9.48,9.48 0 0 0 1.85,2.66 8.85,8.85 0 0 0 6.16,2.53 h 5.1 a 8.24,8.24 0 0 0 3.39,-0.67 8.57,8.57 0 0 0 2.83,-1.89 8.46,8.46 0 0 0 1.86,-2.76 8.27,8.27 0 0 0 0.68,-3.4 V 44.07 a 4.32,4.32 0 0 1 4.25,-4.23 4.23,4.23 0 0 1 4.25,4.22 v 0 16.87 a 17.08,17.08 0 0 1 -1.32,6.73 0.69,0.69 0 0 1 -0.1,0.19 18.49,18.49 0 0 1 -3.6,5.23 18.25,18.25 0 0 1 -5.3,3.61 l -0.17,0.11 a 17.42,17.42 0 0 1 -6.76,1.3 z M 632.61,66.78 a 0.68,0.68 0 0 1 0.14,0.23 15.31,15.31 0 0 0 3.31,4.99 16.44,16.44 0 0 0 5,3.34 15.07,15.07 0 0 0 6.07,1.18 h 5.1 a 15.81,15.81 0 0 0 5.92,-1.09 0.38,0.38 0 0 1 0.15,-0.09 16.77,16.77 0 0 0 5,-3.36 16.44,16.44 0 0 0 3.35,-5 1.09,1.09 0 0 1 0.08,-0.15 15.39,15.39 0 0 0 1.1,-5.88 V 44.07 a 2.59,2.59 0 0 0 -2.6,-2.59 v 0 a 2.68,2.68 0 0 0 -2.62,2.59 v 16.86 a 10.29,10.29 0 0 1 -3,7.32 10.33,10.33 0 0 1 -3.39,2.26 9.66,9.66 0 0 1 -4,0.8 h -5.1 a 10.46,10.46 0 0 1 -7.35,-3 11.75,11.75 0 0 1 -2.31,-3.31 0.83,0.83 0 0 1 -0.06,-0.21 10.71,10.71 0 0 1 -0.75,-3.88 V 44.07 a 2.59,2.59 0 0 0 -2.58,-2.59 v 0 a 2.69,2.69 0 0 0 -2.59,2.59 v 16.86 a 16.15,16.15 0 0 0 1.16,5.83 z"
           fill="#484848"
           id="path106" />
        <path
           d="m 674.92,77.5 a 4.57,4.57 0 0 1 -3.17,-1.24 4,4 0 0 1 -1.29,-3 V 44 a 4,4 0 0 1 1.2,-2.83 4.42,4.42 0 0 1 2.91,-1.38 c 10.83,-0.85 19.06,-0.43 24.52,1.28 7.33,2.14 10.91,6.17 10.65,12 A 10.93,10.93 0 0 1 703,63.5 a 16.67,16.67 0 0 1 -2.06,0.82 l 8.18,5.54 a 4.28,4.28 0 0 1 1.81,2.76 4.18,4.18 0 0 1 -0.82,3.13 4.26,4.26 0 0 1 -3,1.7 5.78,5.78 0 0 1 -0.71,0 4.32,4.32 0 0 1 -2.53,-0.82 l -18.2,-12.4 a 4.11,4.11 0 0 1 -1.7,-2.17 4.17,4.17 0 0 1 2,-4.81 4.59,4.59 0 0 1 2.76,-0.61 c 4.6,0.5 8.05,0.25 10.36,-0.72 a 2.82,2.82 0 0 0 1.7,-2.94 c -0.15,-1.8 -1.6,-3.11 -4.45,-4 -4,-1.13 -9.68,-1.51 -17,-1.13 v 25.44 a 3.9,3.9 0 0 1 -1.39,3 4.23,4.23 0 0 1 -3.03,1.21 z m 9.7,-36.5 c -3,0 -6.33,0.14 -9.93,0.43 a 2.78,2.78 0 0 0 -1.85,0.89 2.3,2.3 0 0 0 -0.74,1.68 v 29.29 a 2.41,2.41 0 0 0 0.77,1.77 3,3 0 0 0 2,0.79 2.63,2.63 0 0 0 2,-0.74 2.25,2.25 0 0 0 0.85,-1.79 V 47.13 a 0.83,0.83 0 0 1 0.78,-0.83 c 7.82,-0.44 14,0 18.29,1.14 3.53,1.07 5.42,2.9 5.66,5.46 a 4.52,4.52 0 0 1 -2.65,4.52 c -2.65,1.14 -6.38,1.39 -11.19,0.87 h -0.3 a 2.72,2.72 0 0 0 -1.49,0.4 2.46,2.46 0 0 0 -1.18,1.3 2.41,2.41 0 0 0 -0.09,1.63 2.5,2.5 0 0 0 1,1.29 l 18.21,12.41 a 2.68,2.68 0 0 0 2.07,0.49 2.63,2.63 0 0 0 1.91,-1 2.48,2.48 0 0 0 0.51,-1.87 2.61,2.61 0 0 0 -1.13,-1.7 l -9.62,-6.53 a 0.82,0.82 0 0 1 -0.21,-1.15 0.86,0.86 0 0 1 0.48,-0.33 17.2,17.2 0 0 0 3.54,-1.23 9.32,9.32 0 0 0 5.79,-9 c 0.22,-5 -2.88,-8.43 -9.48,-10.37 a 49.75,49.75 0 0 0 -14,-1.63 z"
           fill="#484848"
           id="path108" />
        <path
           d="m 745.72,78 a 3.76,3.76 0 0 1 -3,-1.3 L 721.45,54.74 v 19 A 4.23,4.23 0 0 1 717.21,78 v 0 a 4,4 0 0 1 -3,-1.29 A 3.94,3.94 0 0 1 713,73.76 V 44.23 a 4.07,4.07 0 0 1 0.78,-2.4 3.71,3.71 0 0 1 1.93,-1.49 4.32,4.32 0 0 1 2.41,-0.27 5.07,5.07 0 0 1 2.18,1.16 l 21.24,22 v -19 a 4.14,4.14 0 0 1 1.27,-3 4.22,4.22 0 0 1 3,-1.19 A 4.14,4.14 0 0 1 750,44 v 29.76 a 3.93,3.93 0 0 1 -0.72,2.35 4.26,4.26 0 0 1 -1.88,1.58 5,5 0 0 1 -1.68,0.31 z M 720.63,51.91 a 0.77,0.77 0 0 1 0.57,0.25 l 22.63,23.39 a 3,3 0 0 0 1.37,0.79 3.68,3.68 0 0 0 1.55,-0.15 2.69,2.69 0 0 0 1.14,-1 2.36,2.36 0 0 0 0.43,-1.43 V 44.23 a 2.64,2.64 0 0 0 -0.75,-1.88 2.69,2.69 0 0 0 -1.85,-0.7 2.56,2.56 0 0 0 -1.82,0.73 2.47,2.47 0 0 0 -0.78,1.86 V 65.3 a 0.8,0.8 0 0 1 -1.39,0.56 l -22.6,-23.44 a 3.35,3.35 0 0 0 -1.38,-0.73 3.4,3.4 0 0 0 -0.45,0 2.17,2.17 0 0 0 -1,0.21 2.2,2.2 0 0 0 -1.19,0.86 2.49,2.49 0 0 0 -0.5,1.51 v 29.49 a 2.32,2.32 0 0 0 0.75,1.77 2.38,2.38 0 0 0 1.85,0.81 2.58,2.58 0 0 0 2.6,-2.57 v 0 -21.07 a 0.83,0.83 0 0 1 0.51,-0.77 1.08,1.08 0 0 1 0.31,-0.02 z"
           fill="#484848"
           id="path110" />
      </g>
    </g>
  </g>
  <metadata
     id="metadata932">
    <rdf:RDF>
      <cc:Work
         rdf:about="">
        <dc:title>logo</dc:title>
      </cc:Work>
    </rdf:RDF>
  </metadata>
</svg>
