<?xml version="1.0" encoding="UTF-8" standalone="no"?>
<svg
   id="Layer_1"
   data-name="Layer 1"
   viewBox="0 0 377.57898 114.04005"
   version="1.1"
   sodipodi:docname="scummvm.svg"
   width="377.57898"
   height="114.04005"
   inkscape:version="1.1 (c68e22c387, 2021-05-23)"
   xmlns:inkscape="http://www.inkscape.org/namespaces/inkscape"
   xmlns:sodipodi="http://sodipodi.sourceforge.net/DTD/sodipodi-0.dtd"
   xmlns="http://www.w3.org/2000/svg"
   xmlns:svg="http://www.w3.org/2000/svg">
  <sodipodi:namedview
     id="namedview597"
     pagecolor="#ffffff"
     bordercolor="#666666"
     borderopacity="1.0"
     inkscape:pageshadow="2"
     inkscape:pageopacity="0.0"
     inkscape:pagecheckerboard="0"
     showgrid="false"
     fit-margin-top="0"
     fit-margin-left="0"
     fit-margin-right="0"
     fit-margin-bottom="0"
     inkscape:zoom="1.113"
     inkscape:cx="189.12848"
     inkscape:cy="56.603774"
     inkscape:window-width="1920"
     inkscape:window-height="1138"
     inkscape:window-x="-8"
     inkscape:window-y="-8"
     inkscape:window-maximized="1"
     inkscape:current-layer="Layer_1" />
  <defs
     id="defs164">
    <clipPath
       id="clip-path">
      <path
         d="m 519.35,72.59 v 2.84 c 0,-1 0,-2 -0.11,-2.87 A 11.07,11.07 0 0 0 518.8,70.11 5.05,5.05 0 0 0 518,68.4 1.66,1.66 0 0 0 516.63,67.76 c -1.25,0 -2.05,0.35 -2.39,1 a 4.67,4.67 0 0 0 -0.5,2 V 68 a 4.67,4.67 0 0 1 0.5,-2 c 0.34,-0.69 1.14,-1 2.39,-1 a 1.63,1.63 0 0 1 1.37,0.64 5.05,5.05 0 0 1 0.83,1.71 11.07,11.07 0 0 1 0.44,2.45 c 0.07,0.92 0.11,1.88 0.11,2.87 z"
         fill="none"
         id="path2" />
    </clipPath>
    <clipPath
       id="clip-path-2">
      <path
         d="m 500.46,74.63 v 2.84 c 0,-1.44 0,-2.84 0,-4.2 0,-2.73 -0.07,-5.41 -0.14,-8.06 -0.07,-2.65 -0.18,-5.55 -0.32,-8.32 v -2.84 q 0.21,4.34 0.32,8.31 c 0.07,2.66 0.12,5.34 0.14,8.07 0,1.36 0,2.76 0,4.2 z"
         fill="none"
         id="path5" />
    </clipPath>
    <clipPath
       id="clip-path-3">
      <path
         d="m 538.57,70.32 v 2.84 A 7.74,7.74 0 0 0 537.74,69 2.67,2.67 0 0 0 535.39,67.76 c -1.63,0 -2.65,1.11 -3,3.34 a 64.4,64.4 0 0 0 -0.58,10.16 v -2.84 a 64.4,64.4 0 0 1 0.58,-10.16 c 0.38,-2.23 1.4,-3.34 3,-3.34 a 2.67,2.67 0 0 1 2.35,1.24 7.74,7.74 0 0 1 0.83,4.16 z"
         fill="none"
         id="path8" />
    </clipPath>
    <clipPath
       id="clip-path-5">
      <path
         d="m 536,89.59 v -2.84 a 1.21,1.21 0 0 0 1.1,1.21 V 90.8 A 1.22,1.22 0 0 1 536,89.59 Z"
         fill="none"
         id="path11" />
    </clipPath>
    <clipPath
       id="clip-path-6">
      <path
         d="m 513.3,87.49 v 2.84 a 1.44,1.44 0 0 1 -1.42,1.39 v -2.84 a 1.44,1.44 0 0 0 1.42,-1.39 z"
         fill="none"
         id="path14" />
    </clipPath>
    <clipPath
       id="clip-path-7">
      <path
         d="m 501.8,89.05 v 2.84 a 1.37,1.37 0 0 1 -1.39,-1.35 V 87.7 a 1.37,1.37 0 0 0 1.39,1.35 z"
         fill="none"
         id="path17" />
    </clipPath>
    <clipPath
       id="clip-path-8">
      <path
         d="m 550.86,72.88 v 2.84 a 61.62,61.62 0 0 1 -0.54,8 c -0.1,0.79 -0.21,1.57 -0.32,2.36 -0.11,0.79 -0.26,1.85 -0.34,2.79 0,0.62 -0.11,1.23 -0.22,1.84 -0.07,0.4 -0.05,1 -0.35,1.32 a 0.64,0.64 0 0 1 -0.5,0.2 c -0.23,0 -0.47,-0.07 -0.69,-0.09 -0.62,-0.07 -1.24,-0.21 -1.87,-0.28 l -3.11,-0.36 -4.88,-0.6 v -2.82 l 4.88,0.6 L 546,89 c 0.63,0.07 1.25,0.21 1.87,0.27 a 5.21,5.21 0 0 0 0.69,0.1 0.64,0.64 0 0 0 0.5,-0.2 c 0.3,-0.32 0.28,-0.92 0.35,-1.32 0.11,-0.61 0.17,-1.23 0.22,-1.84 0.08,-0.94 0.2,-1.86 0.34,-2.79 0.14,-0.93 0.22,-1.57 0.32,-2.36 a 61.62,61.62 0 0 0 0.54,-8 z"
         fill="none"
         id="path20" />
    </clipPath>
    <clipPath
       id="clip-path-9">
      <path
         d="m 519.11,91 v -2.82 a 1.37,1.37 0 0 0 1.36,1.35 v 2.84 A 1.37,1.37 0 0 1 519.11,91 Z"
         fill="none"
         id="path23" />
    </clipPath>
    <clipPath
       id="clip-path-11">
      <path
         d="m 532.22,89.23 v 2.85 a 0.44,0.44 0 0 1 -0.39,0.5 3,3 0 0 1 -0.61,0.06 c -0.41,0 -0.84,-0.06 -1.23,-0.07 l -2.86,-0.06 -3,-0.06 v -2.84 l 3,0.06 2.86,0.06 c 0.39,0 0.82,0.07 1.23,0.07 a 3,3 0 0 0 0.61,-0.06 0.45,0.45 0 0 0 0.39,-0.51 z"
         fill="none"
         id="path26" />
    </clipPath>
    <clipPath
       id="clip-path-12">
      <path
         d="m 464.77,72.59 v 2.84 c 0,-1 0,-2 -0.11,-2.87 a 11.1,11.1 0 0 0 -0.43,-2.45 5.45,5.45 0 0 0 -0.83,-1.71 1.69,1.69 0 0 0 -1.38,-0.64 c -1.25,0 -2,0.35 -2.38,1 a 4.55,4.55 0 0 0 -0.51,2 V 68 a 4.55,4.55 0 0 1 0.51,-2 c 0.34,-0.69 1.13,-1 2.38,-1 a 1.66,1.66 0 0 1 1.38,0.64 5.45,5.45 0 0 1 0.83,1.71 11.1,11.1 0 0 1 0.43,2.45 c 0.07,0.92 0.11,1.88 0.11,2.87 z"
         fill="none"
         id="path29" />
    </clipPath>
    <clipPath
       id="clip-path-14">
      <path
         d="m 445.89,74.63 v 2.84 c 0,-1.44 0,-2.84 0,-4.2 0,-2.73 -0.07,-5.41 -0.14,-8.06 -0.07,-2.65 -0.19,-5.42 -0.33,-8.31 v -2.84 q 0.21,4.32 0.33,8.3 c 0.07,2.66 0.11,5.34 0.14,8.07 -0.01,1.36 0,2.76 0,4.2 z"
         fill="none"
         id="path32" />
    </clipPath>
    <clipPath
       id="clip-path-15">
      <path
         d="m 484,70.32 v 2.84 A 7.84,7.84 0 0 0 483.17,69 2.69,2.69 0 0 0 480.82,67.76 c -1.64,0 -2.65,1.12 -3,3.34 a 65.65,65.65 0 0 0 -0.58,10.16 v -2.84 a 65.65,65.65 0 0 1 0.58,-10.16 c 0.39,-2.22 1.4,-3.34 3,-3.34 a 2.69,2.69 0 0 1 2.35,1.24 7.84,7.84 0 0 1 0.83,4.16 z"
         fill="none"
         id="path35" />
    </clipPath>
    <clipPath
       id="clip-path-17">
      <path
         d="m 481.38,89.59 v -2.84 a 1.21,1.21 0 0 0 1.11,1.25 v 2.8 a 1.21,1.21 0 0 1 -1.11,-1.21 z"
         fill="none"
         id="path38" />
    </clipPath>
    <clipPath
       id="clip-path-18">
      <path
         d="m 458.73,87.49 v 2.84 a 1.45,1.45 0 0 1 -1.42,1.39 v -2.84 a 1.45,1.45 0 0 0 1.42,-1.39 z"
         fill="none"
         id="path41" />
    </clipPath>
    <clipPath
       id="clip-path-19">
      <path
         d="m 447.22,89.05 v 2.84 a 1.37,1.37 0 0 1 -1.39,-1.35 V 87.7 a 1.37,1.37 0 0 0 1.39,1.35 z"
         fill="none"
         id="path44" />
    </clipPath>
    <clipPath
       id="clip-path-20">
      <path
         d="m 496.29,72.88 v 2.84 a 60.22,60.22 0 0 1 -0.55,8 c -0.37,2.85 -0.82,5.69 -1.33,8.52 v -2.81 c 0.51,-2.83 1,-5.67 1.33,-8.53 a 60,60 0 0 0 0.55,-8.02 z"
         fill="none"
         id="path47" />
    </clipPath>
    <clipPath
       id="clip-path-21">
      <path
         d="m 464.53,91 v -2.82 a 1.37,1.37 0 0 0 1.34,1.35 v 2.84 A 1.37,1.37 0 0 1 464.53,91 Z"
         fill="none"
         id="path50" />
    </clipPath>
    <clipPath
       id="clip-path-22">
      <path
         d="m 427.65,73.61 v 2.84 q 0,-3.27 0,-5.7 c 0,-1.56 -0.08,-3.13 -0.15,-4.7 -0.07,-1.57 -0.17,-3.18 -0.29,-4.77 -0.12,-1.59 -0.25,-3.64 -0.4,-5.91 v -2.85 c 0.15,2.28 0.28,4.26 0.4,5.92 0.12,1.66 0.22,3.25 0.29,4.77 0.07,1.52 0.12,3.09 0.15,4.7 0.03,1.61 0,3.52 0,5.7 z"
         fill="none"
         id="path53" />
    </clipPath>
    <clipPath
       id="clip-path-23">
      <path
         d="m 419,54.87 v 2.85 a 1.49,1.49 0 0 1 0,0.21 c 0,0.15 -0.5,2.92 -0.79,5.2 -0.29,2.28 -0.5,4.37 -0.72,6.56 a 66.45,66.45 0 0 0 -0.36,7.19 V 74 a 68.55,68.55 0 0 1 0.36,-7.19 c 0.24,-2.38 0.48,-4.56 0.72,-6.56 0.29,-2.28 0.76,-5 0.79,-5.2 a 1.5,1.5 0 0 0 0,-0.18 z"
         fill="none"
         id="path56" />
    </clipPath>
    <clipPath
       id="clip-path-24">
      <path
         d="m 428.75,87.75 v 2.84 c 0,-0.37 -0.07,-0.69 -0.33,-0.78 a 0.3,0.3 0 0 0 -0.13,0 c -0.41,0 -0.87,0.6 -1.15,0.8 a 13.31,13.31 0 0 1 -2.21,1.32 13.05,13.05 0 0 1 -2.5,0.89 10.84,10.84 0 0 1 -2.54,0.32 20.78,20.78 0 0 1 -7.36,-1.14 12.84,12.84 0 0 1 -5,-3.32 13.56,13.56 0 0 1 -2.9,-5.25 23.57,23.57 0 0 1 -0.94,-6.93 v -2.89 a 23.61,23.61 0 0 0 0.94,6.93 13.63,13.63 0 0 0 2.9,5.25 12.84,12.84 0 0 0 5,3.32 20.78,20.78 0 0 0 7.36,1.17 10.84,10.84 0 0 0 2.54,-0.32 13.05,13.05 0 0 0 2.5,-0.89 13.31,13.31 0 0 0 2.21,-1.32 c 0.28,-0.2 0.74,-0.8 1.15,-0.8 a 0.3,0.3 0 0 1 0.13,0 c 0.26,0.09 0.33,0.41 0.33,0.78 z"
         fill="none"
         id="path59" />
    </clipPath>
    <clipPath
       id="clip-path-27">
      <path
         d="M 430.06,90.18 V 93 a 1.37,1.37 0 0 1 -1.4,-1.35 v -2.82 a 1.37,1.37 0 0 0 1.4,1.35 z"
         fill="none"
         id="path62" />
    </clipPath>
    <clipPath
       id="clip-path-29">
      <path
         d="m 392.29,67.72 v 2.84 a 2.2,2.2 0 0 1 -0.36,0 1.74,1.74 0 0 1 -1.55,-1 7.13,7.13 0 0 0 -1.43,-2 6.14,6.14 0 0 0 -4.52,-1.49 5,5 0 0 0 -2.06,0.46 5.73,5.73 0 0 0 -1.88,1.35 V 65.1 a 5.73,5.73 0 0 1 1.88,-1.35 5,5 0 0 1 2.06,-0.46 6.14,6.14 0 0 1 4.57,1.49 7.13,7.13 0 0 1 1.43,2 1.74,1.74 0 0 0 1.55,1 2.2,2.2 0 0 0 0.36,0 z"
         fill="none"
         id="path65" />
    </clipPath>
    <clipPath
       id="clip-path-31">
      <path
         d="m 380.49,65.1 v 2.84 a 7.14,7.14 0 0 0 -1.37,2.24 8.37,8.37 0 0 0 -0.55,3.2 v -2.85 a 8.35,8.35 0 0 1 0.55,-3.19 7.14,7.14 0 0 1 1.37,-2.24 z"
         fill="none"
         id="path68" />
    </clipPath>
    <clipPath
       id="clip-path-32">
      <path
         d="m 400.56,76.85 v 2.84 a 1.06,1.06 0 0 1 -0.06,0.39 23.61,23.61 0 0 1 -2,4.73 16.56,16.56 0 0 1 -3.8,4.23 15.29,15.29 0 0 1 -4.77,2.48 17.94,17.94 0 0 1 -5.35,0.82 20.88,20.88 0 0 1 -8.31,-1.5 15.73,15.73 0 0 1 -9.12,-9.84 22.68,22.68 0 0 1 -1.08,-7 v -2.9 a 22.68,22.68 0 0 0 1.08,7 15.73,15.73 0 0 0 9.11,9.9 20.88,20.88 0 0 0 8.31,1.5 17.94,17.94 0 0 0 5.35,-0.82 15.1,15.1 0 0 0 4.77,-2.49 16.34,16.34 0 0 0 3.8,-4.22 23.61,23.61 0 0 0 2,-4.73 1.06,1.06 0 0 0 0.07,-0.39 z"
         fill="none"
         id="path71" />
    </clipPath>
    <clipPath
       id="clip-path-35">
      <path
         d="m 358.49,54.62 v 2.84 a 1.19,1.19 0 0 1 -1,0.56 1.23,1.23 0 0 1 -0.81,-0.31 23,23 0 0 0 -2.21,-1.63 33.63,33.63 0 0 0 -3.41,-1.89 19,19 0 0 0 -3.12,-1.19 10,10 0 0 0 -2.54,-0.39 2.54,2.54 0 0 0 -1.92,0.64 2.27,2.27 0 0 0 -0.62,1.64 v -2.82 a 2.26,2.26 0 0 1 0.62,-1.64 2.55,2.55 0 0 1 1.92,-0.65 10,10 0 0 1 2.54,0.4 19,19 0 0 1 3.12,1.17 33.63,33.63 0 0 1 3.41,1.89 23,23 0 0 1 2.21,1.63 1.23,1.23 0 0 0 0.81,0.31 1.19,1.19 0 0 0 1,-0.56 z"
         fill="none"
         id="path74" />
    </clipPath>
    <clipPath
       id="clip-path-38">
      <path
         d="m 347.36,76.24 v 2.84 a 3.38,3.38 0 0 0 -1.49,-2.57 30.48,30.48 0 0 0 -3.7,-2.53 l -4.79,-2.85 a 28.44,28.44 0 0 1 -4.79,-3.6 19.55,19.55 0 0 1 -3.7,-4.74 12.52,12.52 0 0 1 -1.48,-6.17 v -2.84 a 12.52,12.52 0 0 0 1.48,6.22 19.55,19.55 0 0 0 3.7,4.74 28.44,28.44 0 0 0 4.79,3.6 l 4.79,2.85 a 30.48,30.48 0 0 1 3.7,2.53 3.38,3.38 0 0 1 1.49,2.52 z"
         fill="none"
         id="path77" />
    </clipPath>
    <clipPath
       id="clip-path-39">
      <path
         d="m 363,74.74 v 2.84 a 13.09,13.09 0 0 1 -1.63,6.66 14.34,14.34 0 0 1 -4.25,4.64 18.79,18.79 0 0 1 -5.91,2.71 25.58,25.58 0 0 1 -6.64,0.89 23.62,23.62 0 0 1 -11.21,-2.42 24.85,24.85 0 0 1 -8.16,-7.35 v -2.84 a 24.85,24.85 0 0 0 8.16,7.35 23.62,23.62 0 0 0 11.21,2.42 25.58,25.58 0 0 0 6.64,-0.89 19,19 0 0 0 5.87,-2.75 14.34,14.34 0 0 0 4.25,-4.64 13.09,13.09 0 0 0 1.67,-6.62 z"
         fill="none"
         id="path80" />
    </clipPath>
    <clipPath
       id="clip-path-42">
      <path
         d="m 517.71,71 v 2.8 c 0,-1 0,-2 -0.11,-2.88 a 11.21,11.21 0 0 0 -0.43,-2.45 5.28,5.28 0 0 0 -0.83,-1.7 1.66,1.66 0 0 0 -1.38,-0.64 c -1.25,0 -2,0.34 -2.38,1 a 4.51,4.51 0 0 0 -0.51,2 v -2.79 a 4.51,4.51 0 0 1 0.51,-2 c 0.34,-0.69 1.13,-1 2.38,-1 a 1.68,1.68 0 0 1 1.38,0.63 5.45,5.45 0 0 1 0.83,1.71 11.21,11.21 0 0 1 0.43,2.45 c 0.07,0.92 0.11,1.88 0.11,2.88 z"
         fill="none"
         id="path83" />
    </clipPath>
    <clipPath
       id="clip-path-43">
      <path
         d="m 498.83,73 v 2.84 c 0,-1.44 0,-2.84 0,-4.2 0,-2.72 -0.07,-5.41 -0.15,-8.06 -0.08,-2.65 -0.18,-5.54 -0.32,-8.31 v -2.85 q 0.21,4.34 0.32,8.31 c 0.08,2.65 0.12,5.34 0.15,8.06 -0.01,1.36 0,2.76 0,4.21 z"
         fill="none"
         id="path86" />
    </clipPath>
    <clipPath
       id="clip-path-44">
      <path
         d="m 536.94,68.68 v 2.84 a 7.8,7.8 0 0 0 -0.83,-4.15 2.67,2.67 0 0 0 -2.35,-1.24 q -2.46,0 -3,3.34 a 64.25,64.25 0 0 0 -0.58,10.15 v -2.84 a 64.48,64.48 0 0 1 0.58,-10.16 q 0.59,-3.33 3,-3.33 a 2.67,2.67 0 0 1 2.35,1.24 7.8,7.8 0 0 1 0.83,4.15 z"
         fill="none"
         id="path89" />
    </clipPath>
    <clipPath
       id="clip-path-45">
      <path
         d="m 534.32,88 v -2.89 a 1.21,1.21 0 0 0 1.11,1.21 v 2.85 A 1.22,1.22 0 0 1 534.32,88 Z"
         fill="none"
         id="path92" />
    </clipPath>
    <clipPath
       id="clip-path-46">
      <path
         d="m 511.67,85.85 v 2.84 a 1.45,1.45 0 0 1 -1.42,1.39 v -2.84 a 1.45,1.45 0 0 0 1.42,-1.39 z"
         fill="none"
         id="path95" />
    </clipPath>
    <clipPath
       id="clip-path-47">
      <path
         d="m 500.16,87.41 v 2.84 a 1.35,1.35 0 0 1 -1.38,-1.35 v -2.84 a 1.35,1.35 0 0 0 1.38,1.35 z"
         fill="none"
         id="path98" />
    </clipPath>
    <clipPath
       id="clip-path-48">
      <path
         d="m 549.23,71.24 v 2.84 a 61.82,61.82 0 0 1 -0.55,8 c -0.1,0.78 -0.21,1.57 -0.32,2.35 -0.14,0.94 -0.26,1.85 -0.34,2.8 0,0.61 -0.11,1.22 -0.21,1.83 -0.07,0.4 0,1 -0.35,1.33 a 0.65,0.65 0 0 1 -0.5,0.19 c -0.23,0 -0.48,-0.07 -0.69,-0.09 -0.63,-0.07 -1.25,-0.21 -1.88,-0.28 l -3.1,-0.35 -4.89,-0.6 v -2.81 l 4.89,0.6 3.1,0.35 c 0.63,0.07 1.25,0.21 1.88,0.28 0.21,0 0.46,0.09 0.69,0.09 a 0.62,0.62 0 0 0 0.5,-0.2 c 0.3,-0.32 0.28,-0.92 0.35,-1.32 0.1,-0.61 0.16,-1.22 0.21,-1.83 0.08,-1 0.2,-1.87 0.34,-2.8 0.14,-0.93 0.22,-1.57 0.32,-2.35 a 61.82,61.82 0 0 0 0.55,-8.03 z"
         fill="none"
         id="path101" />
    </clipPath>
    <clipPath
       id="clip-path-49">
      <path
         d="m 517.47,89.39 v -2.84 a 1.36,1.36 0 0 0 1.36,1.34 v 2.84 a 1.36,1.36 0 0 1 -1.36,-1.34 z"
         fill="none"
         id="path104" />
    </clipPath>
    <clipPath
       id="clip-path-50">
      <path
         d="m 530.58,87.6 v 2.84 a 0.44,0.44 0 0 1 -0.38,0.5 2.48,2.48 0 0 1 -0.61,0.06 c -0.42,0 -0.85,-0.06 -1.24,-0.07 l -2.86,-0.06 -3,-0.06 V 88 l 3,0.06 2.86,0.06 c 0.39,0 0.82,0.07 1.24,0.07 a 2.48,2.48 0 0 0 0.61,-0.06 0.44,0.44 0 0 0 0.38,-0.53 z"
         fill="none"
         id="path107" />
    </clipPath>
    <clipPath
       id="clip-path-51">
      <path
         d="m 463.13,71 v 2.8 c 0,-1 0,-2 -0.11,-2.88 a 11.21,11.21 0 0 0 -0.43,-2.45 5.09,5.09 0 0 0 -0.83,-1.7 1.64,1.64 0 0 0 -1.37,-0.64 c -1.26,0 -2.05,0.34 -2.39,1 a 4.49,4.49 0 0 0 -0.5,2 v -2.79 a 4.49,4.49 0 0 1 0.5,-2 c 0.34,-0.69 1.13,-1 2.39,-1 a 1.66,1.66 0 0 1 1.37,0.63 5.24,5.24 0 0 1 0.83,1.71 11.21,11.21 0 0 1 0.43,2.45 c 0.08,0.92 0.11,1.88 0.11,2.88 z"
         fill="none"
         id="path110" />
    </clipPath>
    <clipPath
       id="clip-path-52">
      <path
         d="m 444.25,73 v 2.84 c 0,-1.44 0,-2.84 0,-4.2 q 0,-4.08 -0.14,-8.06 -0.14,-3.98 -0.33,-8.31 v -2.85 q 0.23,4.34 0.33,8.31 0.1,3.97 0.14,8.06 c 0,1.36 0,2.76 0,4.21 z"
         fill="none"
         id="path113" />
    </clipPath>
    <clipPath
       id="clip-path-53">
      <path
         d="m 482.36,68.68 v 2.84 a 7.8,7.8 0 0 0 -0.83,-4.15 2.66,2.66 0 0 0 -2.35,-1.24 q -2.46,0 -3,3.34 a 64.25,64.25 0 0 0 -0.58,10.15 v -2.84 a 64.48,64.48 0 0 1 0.58,-10.16 q 0.57,-3.33 3,-3.33 a 2.66,2.66 0 0 1 2.35,1.24 7.8,7.8 0 0 1 0.83,4.15 z"
         fill="none"
         id="path116" />
    </clipPath>
    <clipPath
       id="clip-path-54">
      <path
         d="m 479.75,88 v -2.88 a 1.22,1.22 0 0 0 1.1,1.21 v 2.84 A 1.22,1.22 0 0 1 479.75,88 Z"
         fill="none"
         id="path119" />
    </clipPath>
    <clipPath
       id="clip-path-55">
      <path
         d="m 457.09,85.85 v 2.84 a 1.43,1.43 0 0 1 -1.42,1.39 v -2.84 a 1.43,1.43 0 0 0 1.42,-1.39 z"
         fill="none"
         id="path122" />
    </clipPath>
    <clipPath
       id="clip-path-56">
      <path
         d="m 445.59,87.41 v 2.84 A 1.36,1.36 0 0 1 444.2,88.9 v -2.84 a 1.36,1.36 0 0 0 1.39,1.35 z"
         fill="none"
         id="path125" />
    </clipPath>
    <clipPath
       id="clip-path-57">
      <path
         d="m 494.65,71.24 v 2.84 a 61.78,61.78 0 0 1 -0.54,8 c -0.38,2.85 -0.82,5.69 -1.34,8.52 v -2.81 c 0.52,-2.83 1,-5.67 1.34,-8.52 a 61.78,61.78 0 0 0 0.54,-8.03 z"
         fill="none"
         id="path128" />
    </clipPath>
    <clipPath
       id="clip-path-58">
      <path
         d="m 462.9,89.39 v -2.84 a 1.36,1.36 0 0 0 1.33,1.34 v 2.84 a 1.36,1.36 0 0 1 -1.33,-1.34 z"
         fill="none"
         id="path131" />
    </clipPath>
    <clipPath
       id="clip-path-59">
      <path
         d="m 426,72 v 2.84 q 0,-3.28 0,-5.7 c 0,-1.57 -0.07,-3.14 -0.15,-4.7 -0.08,-1.56 -0.17,-3.19 -0.29,-4.78 -0.12,-1.59 -0.25,-3.63 -0.39,-5.91 v -2.86 q 0.21,3.42 0.39,5.91 c 0.12,1.66 0.22,3.26 0.29,4.78 0.07,1.52 0.12,3.08 0.15,4.7 0.03,1.62 0,3.51 0,5.72 z"
         fill="none"
         id="path134" />
    </clipPath>
    <clipPath
       id="clip-path-60">
      <path
         d="m 417.32,53.24 v 2.84 a 0.86,0.86 0 0 1 0,0.22 c 0,0.14 -0.49,2.92 -0.78,5.2 -0.29,2.28 -0.51,4.36 -0.73,6.55 a 72,72 0 0 0 -0.36,7.19 V 72.4 a 71.37,71.37 0 0 1 0.36,-7.19 c 0.24,-2.38 0.49,-4.56 0.73,-6.55 0.29,-2.28 0.76,-5.06 0.78,-5.2 a 0.86,0.86 0 0 0 0,-0.22 z"
         fill="none"
         id="path137" />
    </clipPath>
    <clipPath
       id="clip-path-61">
      <path
         d="M 427.12,86.11 V 89 c 0,-0.36 -0.07,-0.69 -0.34,-0.78 h -0.12 c -0.41,0 -0.88,0.6 -1.16,0.81 a 14.35,14.35 0 0 1 -2.2,1.31 13.15,13.15 0 0 1 -2.51,0.89 10.26,10.26 0 0 1 -2.53,0.32 20.94,20.94 0 0 1 -7.36,-1.16 12.86,12.86 0 0 1 -5,-3.33 13.72,13.72 0 0 1 -2.9,-5.24 23.66,23.66 0 0 1 -0.94,-6.93 V 72 a 23.66,23.66 0 0 0 0.94,6.93 13.72,13.72 0 0 0 2.9,5.24 12.86,12.86 0 0 0 5,3.33 20.94,20.94 0 0 0 7.36,1.16 10.26,10.26 0 0 0 2.53,-0.32 13.15,13.15 0 0 0 2.51,-0.89 14.35,14.35 0 0 0 2.2,-1.31 c 0.28,-0.21 0.75,-0.81 1.16,-0.81 h 0.12 c 0.27,0.09 0.34,0.42 0.34,0.78 z"
         fill="none"
         id="path140" />
    </clipPath>
    <clipPath
       id="clip-path-62">
      <path
         d="m 428.42,88.54 v 2.84 A 1.35,1.35 0 0 1 427,90 v -2.8 a 1.35,1.35 0 0 0 1.39,1.34 z"
         fill="none"
         id="path143" />
    </clipPath>
    <clipPath
       id="clip-path-63">
      <path
         d="m 390.65,66.08 v 2.84 a 1.47,1.47 0 0 1 -0.36,0 1.69,1.69 0 0 1 -1.54,-1 7.18,7.18 0 0 0 -1.44,-2 6.1,6.1 0 0 0 -4.52,-1.5 5.08,5.08 0 0 0 -2.06,0.47 5.52,5.52 0 0 0 -1.87,1.34 v -2.77 a 5.69,5.69 0 0 1 1.87,-1.35 5.24,5.24 0 0 1 2.06,-0.46 6.14,6.14 0 0 1 4.52,1.49 7.57,7.57 0 0 1 1.44,2 1.71,1.71 0 0 0 1.54,1 1.47,1.47 0 0 0 0.36,0 z"
         fill="none"
         id="path146" />
    </clipPath>
    <clipPath
       id="clip-path-64">
      <path
         d="m 378.86,63.46 v 2.84 a 7.09,7.09 0 0 0 -1.38,2.24 8.61,8.61 0 0 0 -0.54,3.2 V 68.9 a 8.61,8.61 0 0 1 0.54,-3.2 7,7 0 0 1 1.38,-2.24 z"
         fill="none"
         id="path149" />
    </clipPath>
    <clipPath
       id="clip-path-65">
      <path
         d="m 398.93,75.21 v 2.84 a 1.39,1.39 0 0 1 -0.06,0.4 23.63,23.63 0 0 1 -2,4.72 16.2,16.2 0 0 1 -3.79,4.23 15.4,15.4 0 0 1 -4.77,2.48 17.67,17.67 0 0 1 -5.35,0.82 21.11,21.11 0 0 1 -8.32,-1.49 16.36,16.36 0 0 1 -5.74,-4 16,16 0 0 1 -3.36,-5.86 22.45,22.45 0 0 1 -1.09,-7 v -2.89 a 22.45,22.45 0 0 0 1.09,7 16.06,16.06 0 0 0 3.36,5.86 16.36,16.36 0 0 0 5.74,4 21.11,21.11 0 0 0 8.32,1.49 17.67,17.67 0 0 0 5.35,-0.82 15.4,15.4 0 0 0 4.77,-2.48 16.36,16.36 0 0 0 3.79,-4.23 23.63,23.63 0 0 0 2,-4.72 1.39,1.39 0 0 0 0.06,-0.35 z"
         fill="none"
         id="path152" />
    </clipPath>
    <clipPath
       id="clip-path-66">
      <path
         d="m 356.86,53 v 2.84 a 1.22,1.22 0 0 1 -1,0.57 1.25,1.25 0 0 1 -0.81,-0.31 21.22,21.22 0 0 0 -2.21,-1.63 29.29,29.29 0 0 0 -3.41,-1.89 19.14,19.14 0 0 0 -3.12,-1.18 9.89,9.89 0 0 0 -2.54,-0.39 2.54,2.54 0 0 0 -1.92,0.64 2.27,2.27 0 0 0 -0.62,1.64 v -2.86 a 2.27,2.27 0 0 1 0.62,-1.64 2.54,2.54 0 0 1 1.92,-0.64 9.89,9.89 0 0 1 2.54,0.39 19.14,19.14 0 0 1 3.12,1.18 29.29,29.29 0 0 1 3.41,1.89 19.72,19.72 0 0 1 2.16,1.63 1.25,1.25 0 0 0 0.81,0.31 1.22,1.22 0 0 0 1.05,-0.55 z"
         fill="none"
         id="path155" />
    </clipPath>
    <clipPath
       id="clip-path-67">
      <path
         d="m 345.72,74.6 v 2.84 a 3.38,3.38 0 0 0 -1.48,-2.57 32.75,32.75 0 0 0 -3.71,-2.53 c -1.47,-0.88 -3.07,-1.82 -4.78,-2.85 a 27.53,27.53 0 0 1 -4.79,-3.6 19.31,19.31 0 0 1 -3.7,-4.74 12.49,12.49 0 0 1 -1.49,-6.15 v -2.86 a 12.49,12.49 0 0 0 1.49,6.17 19.31,19.31 0 0 0 3.7,4.74 27.53,27.53 0 0 0 4.79,3.6 l 4.78,2.85 a 32.75,32.75 0 0 1 3.71,2.5 3.38,3.38 0 0 1 1.48,2.6 z"
         fill="none"
         id="path158" />
    </clipPath>
    <clipPath
       id="clip-path-68">
      <path
         d="m 361.32,73.1 v 2.84 a 13.06,13.06 0 0 1 -1.63,6.67 14.19,14.19 0 0 1 -4.25,4.63 18.79,18.79 0 0 1 -5.91,2.76 25.1,25.1 0 0 1 -6.64,0.89 23.53,23.53 0 0 1 -11.21,-2.42 24.81,24.81 0 0 1 -8.16,-7.34 v -2.89 a 24.81,24.81 0 0 0 8.16,7.34 23.65,23.65 0 0 0 11.21,2.42 25.1,25.1 0 0 0 6.64,-0.89 18.79,18.79 0 0 0 5.91,-2.71 14.19,14.19 0 0 0 4.25,-4.63 13.06,13.06 0 0 0 1.63,-6.67 z"
         fill="none"
         id="path161" />
    </clipPath>
  </defs>
  <g
     id="g1629"
     transform="translate(-311.20009,5.4236909e-5)">
    <path
       d="m 668.07,110.5 a 10.28,10.28 0 0 1 -1.1,-0.06 l -12.27,-1.27 a 10.6,10.6 0 0 1 -7.18,-3.93 10.66,10.66 0 0 1 -4,-8.07 l -2.29,4 a 11.7,11.7 0 0 1 -10,5.73 11.07,11.07 0 0 1 -1.15,-0.06 l -6.83,-0.73 a 11.47,11.47 0 0 1 -7.61,-4.19 11.41,11.41 0 0 1 -3.74,-5.58 l -1.08,-3.69 -0.24,1.76 a 10.71,10.71 0 0 1 -10.57,9.2 c -0.31,0 -0.62,0 -0.93,0 l -10.24,-0.89 a 10.62,10.62 0 0 1 -5.46,-2.11 8.86,8.86 0 0 1 -4.36,2.16 l -10,1.9 a 9.16,9.16 0 0 1 -1.66,0.16 8.92,8.92 0 0 1 -7.08,-3.48 8.85,8.85 0 0 1 -2.28,-2.63 l -1.54,-2.59 a 9.21,9.21 0 0 1 -6.67,4.2 13.59,13.59 0 0 1 -1.85,0.12 30.79,30.79 0 0 1 -4.27,-0.39 c -0.47,-0.07 -0.93,-0.14 -1.39,-0.19 -0.8,-0.1 -1.58,-0.26 -2.33,-0.42 a 14.63,14.63 0 0 0 -2.61,-0.39 h -0.24 c -0.13,0.06 -0.36,0.2 -0.54,0.31 a 9.13,9.13 0 0 1 -2.14,1 16.83,16.83 0 0 1 -4.75,0.56 c -0.77,0 -1.57,0 -2.39,0 -0.82,0 -1.63,0 -2.48,0 h -0.95 a 28.77,28.77 0 0 1 -5.53,-0.38 10.84,10.84 0 0 1 -2.16,-0.74 c -0.22,-0.1 -0.54,-0.24 -0.72,-0.3 l -0.63,0.17 a 11.93,11.93 0 0 1 -2,0.44 68.06,68.06 0 0 1 -6.89,0.34 c -1.68,0 -3.23,-0.06 -4.62,-0.18 a 12.07,12.07 0 0 1 -2.43,-0.53 c -0.25,-0.07 -0.6,-0.18 -0.8,-0.22 l -0.63,0.22 a 10,10 0 0 1 -2.53,0.68 14.85,14.85 0 0 1 -1.66,0.09 30.24,30.24 0 0 1 -6,-0.78 22.61,22.61 0 0 0 -4.05,-0.58 5,5 0 0 0 -0.55,0 8.06,8.06 0 0 0 -1.3,0.53 13.08,13.08 0 0 1 -4.45,1.31 c -1.1,0.1 -2.46,0.16 -3.91,0.16 a 53.36,53.36 0 0 1 -8.82,-0.67 12.79,12.79 0 0 1 -2.3,-0.72 8.76,8.76 0 0 0 -0.9,-0.33 c -0.18,0 -0.55,0.13 -0.8,0.19 a 12.52,12.52 0 0 1 -2.12,0.43 c -1.86,0.17 -4.08,0.26 -6.41,0.26 -1.41,0 -2.8,0 -4.13,-0.1 a 12.51,12.51 0 0 1 -1.64,-0.21 c -0.24,0 -0.56,-0.1 -0.68,-0.1 a 6.91,6.91 0 0 0 -1.16,0.41 11.62,11.62 0 0 1 -2.85,0.83 59.4,59.4 0 0 1 -6.87,0.4 50.46,50.46 0 0 1 -5.05,-0.24 12.71,12.71 0 0 1 -2.26,-0.49 5.91,5.91 0 0 0 -1.19,-0.28 v 0 a 7.94,7.94 0 0 0 -1.93,0.39 14.53,14.53 0 0 1 -2.6,0.54 c -0.76,0.07 -1.53,0.1 -2.29,0.1 a 25.85,25.85 0 0 1 -17.53,-7 l -0.15,0.14 a 20.72,20.72 0 0 1 -2.42,2 25.22,25.22 0 0 1 -14.1,3.85 c -6.88,0 -13.72,-2.14 -18.28,-5.73 A 10.56,10.56 0 0 1 365,93.24 l -0.06,0.06 a 14.87,14.87 0 0 1 -1.54,1.47 30.91,30.91 0 0 1 -16.82,6.06 c -0.8,0 -1.61,0.08 -2.4,0.08 a 31.89,31.89 0 0 1 -21.9,-8.4 c -0.64,-0.6 -1.2,-1.15 -1.7,-1.7 -2,-1.87 -7.76,-7.35 -5.25,-14.49 0.92,-2.6 2.95,-4.91 4.75,-6.94 l 1.07,-1.23 0.4,-0.45 c -0.21,-0.27 -0.43,-0.53 -0.59,-0.73 a 14.41,14.41 0 0 1 -1.28,-1.72 25.29,25.29 0 0 1 -1.1,-21.54 c 3.69,-8.31 12.7,-13.47 23.5,-13.47 0.84,0 1.7,0 2.56,0.09 a 33.28,33.28 0 0 1 13.91,4.23 l 0.49,0.28 c 2.72,1.56 5.52,3.16 7.62,5.59 a 13.74,13.74 0 0 1 3.67,4.8 30.82,30.82 0 0 1 12.08,-2.31 c 5.78,0 11.08,1.35 14.92,3.82 0.24,0.15 0.47,0.32 0.69,0.49 a 8.58,8.58 0 0 1 2.65,-2 c 2.46,-1 7.26,-1.25 10.85,-1.25 2,0 3.92,0.07 5.3,0.21 a 11.07,11.07 0 0 1 3,0.8 l 0.51,0.19 0.73,-0.45 a 8.75,8.75 0 0 1 2.27,-1.19 42,42 0 0 1 10.12,-1 28.85,28.85 0 0 1 7.11,0.7 8.82,8.82 0 0 1 2.44,1.16 c 0.18,0.12 0.43,0.29 0.6,0.38 0.17,0.09 0.7,-0.1 1.05,-0.17 a 15.19,15.19 0 0 1 2.19,-0.31 h 0.91 c 1.57,-0.08 3.2,-0.16 4.79,-0.16 0.64,0 1.25,0 1.85,0 a 12.75,12.75 0 0 1 3.35,0.72 7.47,7.47 0 0 0 1.39,0.38 v 0 a 8.75,8.75 0 0 0 1.44,-0.24 14.16,14.16 0 0 1 3,-0.4 19.82,19.82 0 0 1 4.84,0.74 12,12 0 0 1 1.95,0.72 l 0.58,0.24 c 0.27,-0.08 0.79,-0.32 1.16,-0.48 a 12.25,12.25 0 0 1 2.1,-0.79 25.54,25.54 0 0 1 6.44,-0.81 27.17,27.17 0 0 1 9.46,1.7 10.79,10.79 0 0 1 2.2,1.22 l 0.32,0.21 0.17,-0.15 a 8.85,8.85 0 0 1 2.68,-1.89 25.17,25.17 0 0 1 9,-1.28 c 1.5,0 3,0.06 4.15,0.1 a 12.73,12.73 0 0 1 3.48,0.73 6.61,6.61 0 0 0 1.44,0.37 v 0 A 7.12,7.12 0 0 0 515,45 a 13.86,13.86 0 0 1 2.77,-0.4 h 0.18 a 18.64,18.64 0 0 1 4.67,0.74 16.48,16.48 0 0 1 2,0.68 l 0.67,0.25 c 0.18,-0.08 0.44,-0.2 0.62,-0.3 l 0.64,-0.31 -9.57,-16.12 a 9,9 0 0 1 5.91,-13.37 l 16.73,-3.46 a 9.26,9.26 0 0 1 1.81,-0.18 8.93,8.93 0 0 1 7.04,3.47 8.9,8.9 0 0 1 2.38,2.73 l 11.2,19.92 3.36,-24.41 a 9,9 0 0 1 7.12,-7.57 l 15,-3 A 8.79,8.79 0 0 1 589.3,3.49 9,9 0 0 1 595.5,6 l 0.29,0.29 a 10.71,10.71 0 0 1 3.57,-0.61 9.76,9.76 0 0 1 1.08,0 L 613.14,7 a 11.4,11.4 0 0 1 7.63,4.17 11.33,11.33 0 0 1 3.79,5.83 l 9.06,33.56 17.8,-32.56 a 11.65,11.65 0 0 1 10.1,-5.95 c 0.31,0 0.62,0 0.93,0 l 11.52,1 a 10.55,10.55 0 0 1 7.2,3.75 l 0.15,0.19 a 10.17,10.17 0 0 1 1.48,1.45 10.48,10.48 0 0 1 2.43,7.74 l -6.65,74.61 a 10.5,10.5 0 0 1 -3.8,7.22 10.61,10.61 0 0 1 -6.71,2.49 z"
       fill="#ffffff"
       id="path166" />
    <path
       d="m 589.25,7 a 5.41,5.41 0 0 1 4.61,2.53 5.24,5.24 0 0 1 0.84,0.65 v 0 c 0.14,0.14 0.27,0.29 0.4,0.44 a 7.14,7.14 0 0 1 4.26,-1.41 h 0.73 l 12.7,1.28 a 7.93,7.93 0 0 1 5.48,3.18 7.86,7.86 0 0 1 2.92,4.2 c 0,0 7.14,26.51 11.31,42 l 22,-40.15 a 8.19,8.19 0 0 1 7,-4.13 q 0.32,0 0.63,0 l 11.52,1 a 7,7 0 0 1 4.81,2.51 v 0 a 4.46,4.46 0 0 1 0.33,0.43 7.08,7.08 0 0 1 1.31,1.2 v 0 a 7,7 0 0 1 1.63,5.18 l -6.65,74.62 a 7.07,7.07 0 0 1 -7,6.44 6.23,6.23 0 0 1 -0.74,0 l -12.27,-1.27 a 7.1,7.1 0 0 1 -5,-2.94 A 7.14,7.14 0 0 1 647,97 c 0,-0.2 0,-0.4 0,-0.6 l 1.25,-14.48 -10.1,17.5 a 8.18,8.18 0 0 1 -7,4 6.81,6.81 0 0 1 -0.78,-0.05 l -6.83,-0.72 a 8,8 0 0 1 -5.48,-3.2 8,8 0 0 1 -2.89,-4.07 l -5.64,-19.4 c -1.3,9.33 -2.5,18 -2.5,18 a 7.17,7.17 0 0 1 -7.1,6.18 h -0.63 l -10.24,-0.9 a 7.06,7.06 0 0 1 -4.89,-2.63 l -0.2,-0.28 a 6.61,6.61 0 0 1 -1.23,-1.35 5.46,5.46 0 0 1 -4.33,4.26 l -10,1.9 a 5.67,5.67 0 0 1 -1,0.1 5.47,5.47 0 0 1 -4.58,-2.5 5.51,5.51 0 0 1 -1.83,-1.82 l -5.44,-9.17 c -0.66,4.49 -2,8.49 -6.27,9.09 a 8.76,8.76 0 0 1 -1.37,0.09 44.26,44.26 0 0 1 -5.22,-0.56 46.44,46.44 0 0 0 -5.37,-0.83 6.33,6.33 0 0 0 -0.76,0 c -1.17,0.14 -2.07,1.1 -3.14,1.41 a 13.62,13.62 0 0 1 -3.77,0.42 c -1.51,0 -3.15,-0.1 -4.87,-0.1 h -1 A 26,26 0 0 1 519,97 c -1.06,-0.21 -2.15,-1 -3.3,-1.1 h -0.2 c -1,0 -2,0.52 -3.1,0.64 -1.92,0.2 -4.24,0.32 -6.51,0.32 -1.5,0 -3,-0.05 -4.32,-0.16 -1.32,-0.11 -2.5,-0.79 -3.58,-0.79 v 0 c -1.07,0 -2.27,0.81 -3.45,0.94 a 11,11 0 0 1 -1.28,0.07 c -3.46,0 -7,-1.36 -10.07,-1.36 a 8.77,8.77 0 0 0 -0.9,0 c -1.7,0.17 -3.41,1.67 -5.66,1.88 -1,0.1 -2.27,0.15 -3.59,0.15 A 50.18,50.18 0 0 1 464.8,97 c -1.21,-0.22 -2.45,-1 -3.62,-1.1 H 461 c -1,0 -2.15,0.53 -3.27,0.63 -1.85,0.17 -4,0.25 -6.09,0.25 -1.36,0 -2.71,0 -4,-0.09 -0.85,0 -1.7,-0.32 -2.48,-0.32 H 445 c -1.45,0.09 -2.88,1.1 -4.24,1.26 a 54.94,54.94 0 0 1 -6.46,0.38 c -1.62,0 -3.22,-0.07 -4.7,-0.22 -1.22,-0.13 -2.46,-0.77 -3.77,-0.79 h -0.06 c -1.74,0 -3.35,0.82 -4.8,0.94 -0.68,0.06 -1.34,0.09 -2,0.09 -7.43,0 -13.12,-3.72 -17.06,-8 l -0.12,-0.12 c -1.89,0.91 -3.11,2.59 -4.86,3.76 A 22,22 0 0 1 384.79,97 c -6,0 -12.12,-1.84 -16.11,-5 a 12.56,12.56 0 0 1 -1.32,-1.41 l -0.32,-0.23 a 10.12,10.12 0 0 1 -1.12,-1.18 1.57,1.57 0 0 0 -0.84,-0.32 v 0 c -1,0 -2.83,2.42 -3.77,3.14 a 27.21,27.21 0 0 1 -14.92,5.34 c -0.73,0 -1.45,0.07 -2.16,0.07 A 28.41,28.41 0 0 1 324.7,90 c -0.51,-0.47 -1.07,-1 -1.62,-1.61 v 0 C 320.58,86 317,82.2 318.67,77.48 c 0.85,-2.43 3.35,-4.91 5.18,-7.07 0.67,-0.79 1.68,-1.57 1.73,-2.35 0.08,-1.41 -2.24,-3.52 -2.83,-4.56 a 22,22 0 0 1 -0.94,-18.37 c 2.9,-6.54 10.25,-11.39 20.3,-11.39 0.76,0 1.53,0 2.31,0.08 a 29.66,29.66 0 0 1 12.41,3.77 c 2.75,1.58 5.55,3.11 7.38,5.32 a 9.23,9.23 0 0 1 3.67,7.89 c 1.21,-0.69 2.23,-1.61 3.56,-2.22 a 26.92,26.92 0 0 1 11,-2.16 c 4.78,0 9.6,1.06 13,3.26 0.79,0.51 2,1.72 2.67,1.73 v 0 c 1.25,0 2.77,-2.5 3.91,-3 1.69,-0.71 5.82,-1 9.49,-1 1.92,0 3.71,0.07 5,0.19 1.42,0.14 2.87,1.1 4,1.1 h 0.11 c 1.23,-0.07 2.81,-1.59 3.77,-1.88 a 38.86,38.86 0 0 1 9.09,-0.88 25.56,25.56 0 0 1 6.14,0.56 c 1.08,0.31 2.24,1.58 3.46,1.73 h 0.39 c 1.09,0 2.41,-0.44 3.53,-0.49 1.78,-0.08 3.73,-0.2 5.55,-0.2 0.58,0 1.14,0 1.68,0 1.63,0.08 3.17,1 4.71,1.1 h 0.24 c 1.37,0 3,-0.64 4.43,-0.64 v 0 a 17,17 0 0 1 3.93,0.63 c 1.16,0.3 2.32,1.1 3.28,1.1 v 0 c 1.44,0 3,-1.09 4.24,-1.41 a 22.49,22.49 0 0 1 5.57,-0.7 24,24 0 0 1 8.26,1.48 c 1,0.37 2.84,2 3.92,2 v 0 c 1.28,0 2.77,-2.22 3.93,-2.67 a 22.66,22.66 0 0 1 7.76,-1 c 1.38,0 2.75,0.05 4,0.1 1.72,0.07 3.26,1 4.87,1.1 h 0.21 c 1.37,0 2.81,-0.61 4.18,-0.63 H 518 a 15.1,15.1 0 0 1 3.79,0.63 c 1.24,0.32 2.55,1.09 3.46,1.1 v 0 c 1.2,0 2.39,-1 3.42,-1.26 a 23,23 0 0 1 3.26,-0.66 l -12,-20.15 a 5.49,5.49 0 0 1 3.61,-8.16 l 16.73,-3.46 a 5.2,5.2 0 0 1 1.1,-0.11 5.47,5.47 0 0 1 4.59,2.5 5.39,5.39 0 0 1 1.83,1.93 l 16.3,29 4.78,-34.72 a 5.46,5.46 0 0 1 4.34,-4.62 l 14.95,-3 A 5.65,5.65 0 0 1 589.25,7 m 66.63,50.79 v 0 m -67.61,34.3 v 0 m -22.15,1.63 v 0 m 56.06,1.7 v 0 M 589.25,0 v 0 a 12,12 0 0 0 -2.46,0.25 l -14.95,3 a 12.48,12.48 0 0 0 -9.9,10.53 L 560,27.89 553.9,17 A 12.34,12.34 0 0 0 551,13.52 12.43,12.43 0 0 0 541.38,9 12.59,12.59 0 0 0 538.86,9.25 l -16.73,3.46 a 12.49,12.49 0 0 0 -9.7,14.74 12.65,12.65 0 0 0 1.5,3.85 l 5.86,9.88 a 15.55,15.55 0 0 0 -1.84,-0.11 h -0.25 a 17,17 0 0 0 -3.46,0.48 l -0.49,0.11 -0.52,-0.16 a 15.83,15.83 0 0 0 -4.42,-0.89 c -1.14,0 -2.71,-0.11 -4.28,-0.11 a 28.16,28.16 0 0 0 -10.3,1.52 9.22,9.22 0 0 0 -1.9,1 9.14,9.14 0 0 0 -1,-0.44 30.94,30.94 0 0 0 -10.67,-1.91 29.09,29.09 0 0 0 -7.3,0.92 14.64,14.64 0 0 0 -2.4,0.86 13.84,13.84 0 0 0 -1.65,-0.55 23.33,23.33 0 0 0 -5.63,-0.85 h -0.09 a 17.7,17.7 0 0 0 -3.74,0.48 l -0.55,0.11 -0.49,-0.15 a 15.27,15.27 0 0 0 -4.27,-0.9 c -0.62,0 -1.28,0 -2,0 -1.68,0 -3.42,0.09 -5,0.16 h -0.91 a 17.5,17.5 0 0 0 -2.33,0.3 11.13,11.13 0 0 0 -2.8,-1.29 30.74,30.74 0 0 0 -8.07,-0.83 c -1.22,0 -7.48,0.06 -11.14,1.18 a 10.94,10.94 0 0 0 -2.4,1.11 12.69,12.69 0 0 0 -2.74,-0.6 c -1.51,-0.14 -3.51,-0.22 -5.63,-0.22 -8.58,0 -11.31,1.15 -12.21,1.53 a 8.58,8.58 0 0 0 -1.64,0.91 32.72,32.72 0 0 0 -15.26,-3.47 36.28,36.28 0 0 0 -10.54,1.52 18.12,18.12 0 0 0 -2.73,-3 32,32 0 0 0 -8.36,-6.15 l -0.49,-0.28 a 36.64,36.64 0 0 0 -15.4,-4.68 c -0.94,-0.07 -1.88,-0.1 -2.81,-0.1 -12.2,0 -22.43,5.95 -26.7,15.54 a 29,29 0 0 0 1.3,24.78 5.8,5.8 0 0 0 0.36,0.59 24.17,24.17 0 0 0 -5,7.59 c -2.17,6.17 -0.13,12.27 6.06,18.12 0.54,0.58 1.13,1.17 1.8,1.79 a 35.43,35.43 0 0 0 24.29,9.34 c 0.87,0 1.75,0 2.63,-0.09 A 34.54,34.54 0 0 0 365,98 c 5.14,3.77 12.48,6 19.81,6 a 28.66,28.66 0 0 0 16,-4.44 l 0.65,-0.45 a 28.74,28.74 0 0 0 17.5,6 c 0.86,0 1.73,0 2.59,-0.11 a 17.68,17.68 0 0 0 3.24,-0.66 c 0.27,-0.07 0.61,-0.17 0.85,-0.22 l 0.36,0.1 a 15.79,15.79 0 0 0 2.88,0.61 c 1.7,0.17 3.51,0.26 5.4,0.26 a 62.2,62.2 0 0 0 7.29,-0.43 14.64,14.64 0 0 0 3.72,-1 l 0.17,-0.07 a 16.73,16.73 0 0 0 1.83,0.22 c 1.41,0.07 2.86,0.1 4.32,0.1 2.44,0 4.77,-0.1 6.74,-0.28 a 14.61,14.61 0 0 0 2.39,-0.45 14.19,14.19 0 0 0 2.77,0.84 57.6,57.6 0 0 0 9.44,0.73 c 1.59,0 3,-0.06 4.25,-0.18 a 16.15,16.15 0 0 0 5.52,-1.67 l 0.5,-0.22 a 22.92,22.92 0 0 1 3.24,0.51 33.18,33.18 0 0 0 6.71,0.85 19.51,19.51 0 0 0 2.05,-0.11 12.66,12.66 0 0 0 2.9,-0.71 14.18,14.18 0 0 0 2.79,0.57 c 1.5,0.13 3.15,0.19 4.93,0.19 a 69.26,69.26 0 0 0 7.25,-0.36 15.59,15.59 0 0 0 2.08,-0.39 12.49,12.49 0 0 0 2.43,0.77 32.13,32.13 0 0 0 6.2,0.45 h 1 c 0.78,0 1.55,0 2.37,0 0.82,0 1.66,0 2.5,0 a 20.32,20.32 0 0 0 5.74,-0.7 11.25,11.25 0 0 0 2.52,-1.11 l 1.31,0.25 c 0.79,0.16 1.67,0.35 2.62,0.46 l 1.31,0.18 a 33.64,33.64 0 0 0 4.76,0.43 17.63,17.63 0 0 0 2.35,-0.15 13,13 0 0 0 5.54,-2.07 12.27,12.27 0 0 0 2,2 12.44,12.44 0 0 0 9.57,4.49 12.82,12.82 0 0 0 2.31,-0.22 l 10,-1.9 a 12.4,12.4 0 0 0 3.86,-1.41 13.93,13.93 0 0 0 5,1.4 l 10.24,0.9 c 0.41,0 0.83,0 1.24,0 a 14.19,14.19 0 0 0 10.88,-5 15.2,15.2 0 0 0 2.27,2.41 14.94,14.94 0 0 0 9.72,5.19 l 6.83,0.73 c 0.5,0 1,0.08 1.52,0.08 a 15.31,15.31 0 0 0 11.4,-5.23 14.53,14.53 0 0 0 2.37,2.59 14.12,14.12 0 0 0 9.31,4.92 l 12.27,1.27 a 14.44,14.44 0 0 0 1.46,0.08 14.05,14.05 0 0 0 14,-12.82 l 6.65,-74.61 a 14,14 0 0 0 -3.23,-10.3 15.58,15.58 0 0 0 -1.67,-1.68 14,14 0 0 0 -9.54,-4.94 l -11.53,-1 c -0.4,0 -0.82,-0.06 -1.23,-0.06 A 15.18,15.18 0 0 0 648.35,16.4 L 634.73,41.23 627.94,16.08 A 14.84,14.84 0 0 0 623.25,8.72 14.84,14.84 0 0 0 613.49,3.56 L 600.79,2.28 A 13.69,13.69 0 0 0 599.36,2.21 14,14 0 0 0 596.69,2.46 12.37,12.37 0 0 0 589.25,0 Z"
       fill="#ffffff"
       id="path168" />
    <g
       opacity="0.3"
       id="g370">
      <path
         d="m 680.12,20.76 a 7,7 0 0 0 -4.81,-2.5 l -11.53,-1 a 8.17,8.17 0 0 0 -7.65,4.1 L 633.34,63 621.19,17.9 a 8,8 0 0 0 -6.77,-5.74 l -12.7,-1.28 a 7.14,7.14 0 0 0 -7.8,6.07 l -11.06,74.21 a 7,7 0 0 0 6.31,8 l 10.24,0.9 a 7.18,7.18 0 0 0 7.73,-6.16 c 0,0 1.44,-10.38 2.87,-20.66 L 616.92,97 a 8.07,8.07 0 0 0 6.73,5.63 l 6.83,0.72 a 8.15,8.15 0 0 0 7.73,-3.93 L 650.4,78.27 648.7,98 c 0,0.21 0,0.41 0,0.61 a 7.16,7.16 0 0 0 6.39,7.08 l 12.24,1.31 a 7.07,7.07 0 0 0 7.77,-6.4 l 6.65,-74.62 a 7,7 0 0 0 -1.63,-5.18 z m -12.23,80.75 -5.89,-0.61 -1,-0.1 -5.38,-0.56 a 1.64,1.64 0 0 1 -1.46,-1.77 l 2.17,-25.29 0.08,-1 1.42,-16.43 c 0.07,-0.88 -0.23,-1 -0.67,-0.21 l -23.69,41.11 a 2.71,2.71 0 0 1 -2.41,1.23 l -6.83,-0.73 a 2.59,2.59 0 0 1 -2.05,-1.72 l -4.92,-16.89 -0.28,-1 -8.42,-28.9 c -0.25,-0.85 -0.55,-0.83 -0.67,0 l -3.6,25.88 -0.13,1 -0.93,6.7 -0.14,0.95 -1.38,9.93 a 1.71,1.71 0 0 1 -1.82,1.46 L 589.65,93.67 A 1.5,1.5 0 0 1 588.28,92 l 1.54,-10.34 0.14,-0.95 1,-6.42 0.14,-1 5,-33.69 0.14,-1 3.11,-20.89 a 1.71,1.71 0 0 1 1.84,-1.43 l 12.7,1.28 a 2.52,2.52 0 0 1 2,1.71 l 3.5,13 0.26,1 7.06,26.16 0.26,1 4.21,15.57 c 0.23,0.85 0.77,0.92 1.19,0.14 l 22.16,-40.46 0.53,-1 5.87,-10.68 a 2.7,2.7 0 0 1 2.38,-1.27 l 3.79,0.33 1,0.09 6.74,0.58 a 1.61,1.61 0 0 1 1.46,1.75 l -1.87,20.92 -0.09,1 -3.73,41.83 -0.09,1 -0.88,9.92 a 1.6,1.6 0 0 1 -1.72,1.45 z"
         id="path170" />
      <path
         d="m 669.64,100.07 0.88,-9.92 0.09,-1 3.73,-41.83 0.09,-1 1.86,-20.94 a 1.61,1.61 0 0 0 -1.46,-1.75 l -6.74,-0.58 -1,-0.09 -3.79,-0.33 A 2.7,2.7 0 0 0 660.93,24 l -5.87,10.73 -0.53,1 -22.16,40.41 c -0.42,0.78 -1,0.71 -1.19,-0.14 L 627,60.42 l -0.26,-1 -7.06,-26.16 -0.26,-1 -3.5,-13 a 2.52,2.52 0 0 0 -2,-1.71 l -12.7,-1.28 a 1.71,1.71 0 0 0 -1.84,1.43 l -3.11,20.89 -0.14,1 -5,33.69 -0.14,1 -1,6.42 -0.14,0.95 -1.57,10.35 a 1.5,1.5 0 0 0 1.37,1.74 l 10.24,0.89 a 1.71,1.71 0 0 0 1.82,-1.46 l 1.38,-9.93 0.14,-0.95 0.93,-6.7 0.13,-1 3.6,-25.88 c 0.12,-0.88 0.42,-0.9 0.67,0 l 8.44,28.86 0.28,1 4.92,16.89 a 2.59,2.59 0 0 0 2.05,1.72 l 6.83,0.73 a 2.71,2.71 0 0 0 2.41,-1.23 L 657.18,55.6 c 0.44,-0.77 0.74,-0.67 0.67,0.21 l -1.42,16.43 -0.08,1 -2.17,25.29 a 1.64,1.64 0 0 0 1.46,1.77 l 5.38,0.56 1,0.1 5.93,0.61 v 0 a 1.6,1.6 0 0 0 1.72,-1.45 z"
         id="path172" />
      <path
         d="m 666.18,89.19 -0.13,0.27 -0.8,1.62 -3.25,0.42 h -0.39 v 0.4 l -0.61,8.9 1,0.1 0.6,-8.49 3.07,-0.41 h 0.26 l 0.11,-0.23 0.78,-1.59 h 3.74 l 0.09,-1 z m -76.36,-7.56 13.27,1.58 0.14,-0.95 L 590,80.68 Z m 30.5,-21.21 H 627 l -0.26,-1 h -7.36 V 77.57 H 617 l 0.28,1 h 3.06 z M 664,35.34 l 4.07,-12.21 -1,-0.09 -3.89,11.67 h -8.15 l -0.53,1 h 9.38 z m 1.51,11 -0.1,0.36 -2.85,10.4 v 0.06 0.07 15 h -6.09 l -0.08,1 h 7.14 V 72.7 57.29 l 2.76,-10 h 8.07 l 0.09,-1 h -8.53 z m -62.4,-7.08 1.9,-6 h 14.63 l -0.26,-1 h -15.06 l -0.11,0.34 -1.9,6 h -6.09 l -0.14,1 H 603 Z m -7.7,34.1 -0.11,-0.06 h -0.12 -4.14 l -0.14,1 h 4.15 l 2.23,1.21 0.11,0.06 h 6.75 l 0.13,-1 h -6.63 z m -0.73,-63.2 a 5.52,5.52 0 0 0 -4.89,-1.44 l -14.95,3 a 5.47,5.47 0 0 0 -4.35,4.62 L 565.57,52.08 547.8,20.47 a 5.47,5.47 0 0 0 -5.88,-2.68 l -16.74,3.45 a 5.48,5.48 0 0 0 -4.25,6.48 5.38,5.38 0 0 0 0.65,1.68 l 41.06,69.17 a 5.46,5.46 0 0 0 5.72,2.59 l 10,-1.9 a 5.46,5.46 0 0 0 4.38,-4.46 L 596.29,15 a 5.5,5.5 0 0 0 -1.59,-4.85 z m -17,82.11 a 2.48,2.48 0 0 1 -1.86,1.89 l -6.87,1.3 a 2.47,2.47 0 0 1 -2.41,-1.09 l -4.86,-8.19 -0.5,-0.84 -10.71,-18 -0.5,-0.85 -16.69,-28.11 -0.58,-1 -5.59,-9.38 a 1.08,1.08 0 0 1 0.76,-1.71 l 13.58,-2.8 a 2.34,2.34 0 0 1 2.36,1.07 l 2.85,5.07 0.54,1 14.61,26 0.48,0.86 5.71,10.11 c 0.43,0.77 0.89,0.69 1,-0.19 l 4.52,-32.88 0.14,-1 2,-14.84 a 2.42,2.42 0 0 1 1.8,-1.91 l 4.47,-0.9 1,-0.2 6.35,-1.28 a 1,1 0 0 1 1.31,1.27 l -5.19,30.68 -0.17,1 -2.23,13.37 -0.17,1 -1.76,10.42 -0.24,1.42 -3.17,18.76 z"
         id="path174" />
      <path
         d="m 581.07,72.11 1.76,-10.42 0.17,-1 2.26,-13.37 0.17,-1 5.19,-30.68 a 1,1 0 0 0 -1.31,-1.27 l -6.31,1.34 -1,0.2 -4.47,0.9 a 2.42,2.42 0 0 0 -1.8,1.91 l -2,14.84 -0.14,1 -4.59,32.85 c -0.12,0.88 -0.58,1 -1,0.19 l -5.72,-10.17 -0.48,-0.86 -14.61,-26 -0.54,-1 -2.85,-5.07 a 2.33,2.33 0 0 0 -2.36,-1.07 l -13.58,2.8 a 1.08,1.08 0 0 0 -0.76,1.71 l 5.59,9.43 0.58,1 16.73,28.09 0.5,0.85 10.71,18 0.5,0.84 4.86,8.19 a 2.49,2.49 0 0 0 2.41,1.09 l 6.87,-1.3 a 2.48,2.48 0 0 0 1.86,-1.89 l 3.17,-18.76 0.24,-1.42 z"
         id="path176" />
      <path
         d="M 538.38,38.38 V 32 h 4.56 l 0.14,-0.2 0.86,-1.16 h 3.26 l -0.54,-1 h -3.21 l -0.15,0.2 -0.85,1.16 h -5 v 6.44 h -4.75 l 0.58,1 h 5.1 z m 40,-4 1.81,-1.51 0.17,-0.15 v -7.79 l 1.15,-1.24 0.13,-0.13 V 20.9 l 1.12,-1 0.17,-0.14 v -4.05 l -1,0.2 v 3.42 l -1.12,1 -0.16,0.14 v 2.71 l -1.15,1.24 -0.14,0.14 v 7.74 l -1.5,1.26 h -4.24 l -0.14,1 h 4.73 z m 1.14,15 -1.27,1.25 -0.14,0.14 V 51 61.19 61.67 h 4.73 l 0.17,-1 h -3.93 v -9.5 l 1.29,-1.17 0.15,-0.14 v -2.51 h 4.74 l 0.17,-1 h -5.88 z M 574,75 h -0.17 l -0.13,0.11 -2.7,2.05 -0.19,0.14 v 4.51 l -9.6,3.55 0.5,0.84 9.75,-3.6 0.32,-0.11 v -4.71 l 2.42,-1.85 h 3.42 0.17 l 0.13,-0.1 3,-2.32 0.24,-1.42 -3.75,2.91 z M 561.81,56.57 550,66.46 l 0.5,0.85 11.84,-9.88 z"
         id="path178" />
      <path
         d="m 545.52,51 c 9.69,3.87 12.24,16.56 10.68,30.94 -0.67,6.24 -0.81,14.07 -6.91,14.92 -2.07,0.3 -4.42,-0.2 -6.59,-0.47 -2,-0.24 -4.2,-1 -6.13,-0.78 -1.17,0.14 -2.07,1.1 -3.14,1.41 -2.39,0.7 -5.35,0.32 -8.64,0.32 A 31.11,31.11 0 0 1 519,97 c -1.06,-0.21 -2.15,-1 -3.3,-1.1 -1.15,-0.1 -2.11,0.5 -3.3,0.63 a 62,62 0 0 1 -10.83,0.16 c -1.2,-0.11 -2.53,-0.8 -3.62,-0.79 -1.09,0.01 -2.27,0.81 -3.45,0.94 -4.2,0.47 -8.61,-1.62 -12.25,-1.25 -1.7,0.17 -3.41,1.67 -5.66,1.88 A 51.55,51.55 0 0 1 464.8,97 c -1.21,-0.22 -2.45,-1 -3.62,-1.1 -1.17,-0.1 -2.26,0.52 -3.45,0.63 a 76.29,76.29 0 0 1 -10.05,0.16 c -0.92,0 -1.84,-0.37 -2.67,-0.32 -1.45,0.09 -2.88,1.1 -4.24,1.26 a 53.57,53.57 0 0 1 -11.16,0.16 c -1.22,-0.13 -2.46,-0.77 -3.77,-0.79 -1.76,0 -3.4,0.82 -4.86,0.94 -8.49,0.74 -14.88,-3.33 -19.17,-8 -1.89,0.91 -3.1,2.6 -4.86,3.77 -7.88,5.29 -21.31,3.77 -28.27,-1.71 -1,-0.78 -2.4,-3.16 -3.62,-3.14 -1,0 -2.83,2.42 -3.77,3.14 A 27.21,27.21 0 0 1 346.37,97.34 28.64,28.64 0 0 1 324.7,90 c -2.48,-2.31 -6.06,-6.11 -4.4,-10.83 0.86,-2.43 3.36,-4.91 5.18,-7.07 0.68,-0.8 1.69,-1.57 1.73,-2.36 0.08,-1.41 -2.23,-3.51 -2.82,-4.55 a 22,22 0 0 1 -0.95,-18.38 c 3.13,-7 11.38,-12.11 22.62,-11.3 a 29.42,29.42 0 0 1 12.41,3.77 c 5.32,3.05 10.84,5.88 9.11,14 2.24,-0.48 3.53,-2.07 5.49,-3 6.83,-3.15 17.75,-2.93 24,1.1 0.79,0.51 2,1.72 2.67,1.73 1.25,0 2.79,-2.51 3.93,-3 2.56,-1.08 10.78,-1.14 14.45,-0.78 1.46,0.14 3,1.16 4.08,1.1 1.08,-0.06 2.82,-1.6 3.77,-1.89 2.93,-0.9 11.94,-1.26 15.24,-0.31 1.08,0.31 2.23,1.58 3.45,1.72 1.22,0.14 2.67,-0.41 3.93,-0.47 2.34,-0.1 5,-0.26 7.22,-0.15 1.63,0.08 3.17,1 4.71,1.1 1.54,0.1 3.15,-0.65 4.72,-0.63 a 17,17 0 0 1 3.92,0.63 c 1.17,0.3 2.34,1.1 3.3,1.09 1.43,0 3,-1.08 4.24,-1.41 a 23.43,23.43 0 0 1 13.82,0.79 c 1,0.37 2.86,2 3.93,2 1.27,0 2.77,-2.22 3.92,-2.67 3.22,-1.25 8,-1.09 11.78,-0.94 1.73,0.06 3.27,1 4.87,1.09 1.43,0.08 3,-0.6 4.4,-0.62 a 14.82,14.82 0 0 1 3.93,0.62 c 1.24,0.33 2.54,1.09 3.45,1.1 1.22,0 2.42,-0.95 3.46,-1.25 a 24.17,24.17 0 0 1 15.23,0.78 z"
         id="path180" />
      <g
         clip-path="url(#clip-path)"
         id="g184">
        <path
           d="m 519.35,72.59 v 2.84 c 0,-1 0,-2 -0.11,-2.87 A 11.07,11.07 0 0 0 518.8,70.11 5.05,5.05 0 0 0 518,68.4 1.62,1.62 0 0 0 517.43,67.93 v -2.84 a 1.62,1.62 0 0 1 0.57,0.47 5.05,5.05 0 0 1 0.83,1.71 11.07,11.07 0 0 1 0.44,2.45 c 0.07,0.92 0.11,1.88 0.11,2.87 m -2,-7.5 v 2.84 a 1.88,1.88 0 0 0 -0.8,-0.17 3,3 0 0 0 -2,0.57 v -2.84 a 3,3 0 0 1 2,-0.57 1.88,1.88 0 0 1 0.8,0.17 m -2.83,0.4 v 2.84 a 1.6,1.6 0 0 0 -0.36,0.46 4.67,4.67 0 0 0 -0.5,2 V 68 a 4.67,4.67 0 0 1 0.5,-2 1.47,1.47 0 0 1 0.36,-0.46"
           id="path182" />
      </g>
      <g
         clip-path="url(#clip-path-2)"
         id="g188">
        <path
           d="m 500.46,74.63 v 2.84 c 0,-1.44 0,-2.84 0,-4.2 0,-2.73 -0.07,-5.41 -0.14,-8.06 -0.07,-2.65 -0.18,-5.55 -0.32,-8.32 v -2.84 q 0.21,4.34 0.32,8.31 c 0.07,2.66 0.12,5.34 0.14,8.07 0,1.36 0,2.76 0,4.2"
           id="path186" />
      </g>
      <g
         clip-path="url(#clip-path-3)"
         id="g192">
        <path
           d="m 538.57,70.32 v 2.84 A 7.74,7.74 0 0 0 537.74,69 2.73,2.73 0 0 0 536.65,68 v -2.81 a 2.73,2.73 0 0 1 1.09,1 7.74,7.74 0 0 1 0.83,4.16 m -1.92,-5.13 V 68 a 2.84,2.84 0 0 0 -1.26,-0.27 2.6,2.6 0 0 0 -1.78,0.63 v -2.81 a 2.6,2.6 0 0 1 1.78,-0.63 2.84,2.84 0 0 1 1.26,0.27"
           id="path190" />
      </g>
      <g
         clip-path="url(#clip-path-3)"
         id="g196">
        <path
           d="m 533.61,65.55 v 2.84 a 4.5,4.5 0 0 0 -1.25,2.71 64.4,64.4 0 0 0 -0.58,10.16 v -2.84 a 64.4,64.4 0 0 1 0.58,-10.16 4.5,4.5 0 0 1 1.25,-2.71"
           id="path194" />
      </g>
      <path
         d="m 513.71,68 v 2.84 l -0.41,19.51 v -2.86 z"
         id="path198" />
      <g
         clip-path="url(#clip-path-5)"
         id="g202">
        <path
           d="m 537.06,88 v 2.8 a 1.66,1.66 0 0 1 -0.42,-0.12 v -2.84 a 1.45,1.45 0 0 0 0.42,0.12 m -0.42,-0.12 v 2.84 a 1.18,1.18 0 0 1 -0.68,-1.09 v -2.84 a 1.2,1.2 0 0 0 0.68,1.09"
           id="path200" />
      </g>
      <path
         d="m 538,88.08 v 2.84 L 537,90.8 V 88 Z"
         id="path204" />
      <g
         clip-path="url(#clip-path-6)"
         id="g208">
        <path
           d="m 513.3,87.49 v 2.84 a 1.4,1.4 0 0 1 -0.48,1 v -2.82 a 1.36,1.36 0 0 0 0.48,-1 m -0.48,1 v 2.85 a 1.47,1.47 0 0 1 -0.94,0.36 v -2.84 a 1.48,1.48 0 0 0 0.94,-0.37"
           id="path206" />
      </g>
      <path
         d="m 511.88,88.88 v 2.84 l -10.08,0.17 v -2.84 z"
         id="path210" />
      <g
         clip-path="url(#clip-path-7)"
         id="g214">
        <path
           d="m 501.8,89.05 v 2.84 a 1.44,1.44 0 0 1 -0.62,-0.14 v -2.84 a 1.44,1.44 0 0 0 0.62,0.14 m -0.62,-0.14 v 2.84 a 1.34,1.34 0 0 1 -0.77,-1.21 V 87.7 a 1.34,1.34 0 0 0 0.77,1.21"
           id="path212" />
      </g>
      <g
         clip-path="url(#clip-path-8)"
         id="g218">
        <path
           d="m 550.86,72.88 v 2.84 a 61.62,61.62 0 0 1 -0.54,8 c -0.1,0.79 -0.21,1.57 -0.32,2.36 -0.11,0.79 -0.26,1.85 -0.34,2.79 0,0.62 -0.11,1.23 -0.22,1.84 -0.07,0.4 -0.05,1 -0.35,1.32 v 0 -2.77 -0.05 c 0.3,-0.32 0.28,-0.92 0.35,-1.32 0.11,-0.61 0.17,-1.23 0.22,-1.84 0.08,-0.94 0.2,-1.86 0.34,-2.79 0.14,-0.93 0.22,-1.57 0.32,-2.36 a 61.62,61.62 0 0 0 0.54,-8 m -1.81,16.38 v 2.82 a 0.69,0.69 0 0 1 -0.46,0.15 c -0.23,0 -0.47,-0.07 -0.69,-0.09 -0.62,-0.07 -1.24,-0.21 -1.87,-0.28 l -3.11,-0.36 -4.88,-0.6 v -2.84 l 4.88,0.6 L 546,89 c 0.63,0.07 1.25,0.21 1.87,0.28 0.22,0 0.46,0.09 0.69,0.09 a 0.69,0.69 0 0 0 0.46,-0.15"
           id="path216" />
      </g>
      <g
         clip-path="url(#clip-path-9)"
         id="g222">
        <path
           d="m 520.47,89.53 v 2.84 a 1.51,1.51 0 0 1 -0.59,-0.15 v -2.84 a 1.51,1.51 0 0 0 0.59,0.15"
           id="path220" />
      </g>
      <g
         clip-path="url(#clip-path-9)"
         id="g226">
        <path
           d="m 519.88,89.38 v 2.84 a 1.32,1.32 0 0 1 -0.77,-1.2 v -2.84 a 1.32,1.32 0 0 0 0.77,1.2"
           id="path224" />
      </g>
      <path
         d="m 521.62,89.55 v 2.84 h -1.15 v -2.86 z m 2.47,0.06 v 2.84 l -2.47,-0.06 v -2.84 z"
         id="path228" />
      <g
         clip-path="url(#clip-path-11)"
         id="g232">
        <path
           d="m 532.22,89.23 v 2.85 a 0.46,0.46 0 0 1 -0.14,0.38 v -2.84 a 0.47,0.47 0 0 0 0.14,-0.39 m -0.14,0.39 v 2.84 a 0.65,0.65 0 0 1 -0.25,0.12 3,3 0 0 1 -0.61,0.06 c -0.41,0 -0.84,-0.06 -1.23,-0.07 l -2.86,-0.06 -3,-0.06 v -2.84 l 3,0.06 2.86,0.06 c 0.39,0 0.82,0.07 1.23,0.07 a 3,3 0 0 0 0.61,-0.06 0.65,0.65 0 0 0 0.25,-0.12"
           id="path230" />
      </g>
      <path
         d="m 550.25,65.17 a 44.9,44.9 0 0 1 0.61,7.71 61.62,61.62 0 0 1 -0.54,8 c -0.1,0.79 -0.21,1.57 -0.32,2.36 -0.11,0.79 -0.26,1.85 -0.34,2.79 0,0.61 -0.11,1.23 -0.22,1.84 -0.07,0.4 -0.05,1 -0.35,1.32 a 0.63,0.63 0 0 1 -0.5,0.2 5.21,5.21 0 0 1 -0.69,-0.1 c -0.62,-0.06 -1.24,-0.2 -1.87,-0.27 l -3.11,-0.36 -4.88,-0.6 -1,-0.12 a 1.21,1.21 0 0 1 -1.07,-1.5 c 0.07,-0.32 1.44,-6.21 1.9,-9.07 a 46.17,46.17 0 0 0 0.68,-7.07 7.74,7.74 0 0 0 -0.83,-4.16 2.67,2.67 0 0 0 -2.35,-1.24 c -1.63,0 -2.65,1.11 -3,3.34 a 64.4,64.4 0 0 0 -0.58,10.16 c 0,0.61 0,1.42 0,2.41 0,0.99 0.06,2 0.08,3.13 0.02,1.13 0.07,2.15 0.14,3.19 0,0.58 0.15,1.14 0.17,1.72 0,0.38 0.12,0.76 -0.37,0.87 a 3,3 0 0 1 -0.61,0.06 c -0.41,0 -0.84,-0.06 -1.23,-0.07 l -2.86,-0.06 -3,-0.06 -2.47,-0.06 h -1.15 a 1.37,1.37 0 0 1 -1.36,-1.4 c 0,-0.06 0,-1.13 0.09,-2.15 0.09,-1.02 0.09,-2.18 0.11,-3.27 0.02,-1.09 0,-2.52 0,-4.08 v -6 c 0,-1 0,-2 -0.11,-2.87 a 11.07,11.07 0 0 0 -0.44,-2.45 5.05,5.05 0 0 0 -0.83,-1.71 1.63,1.63 0 0 0 -1.37,-0.64 c -1.25,0 -2.05,0.35 -2.39,1 a 4.67,4.67 0 0 0 -0.5,2 l -0.41,19.51 a 1.44,1.44 0 0 1 -1.42,1.39 l -10.08,0.17 a 1.37,1.37 0 0 1 -1.39,-1.35 c 0,-0.28 0,-5.61 0,-8.64 0,-3.03 0,-5.91 0,-8.63 0,-2.72 -0.07,-5.41 -0.14,-8.06 -0.07,-2.65 -0.18,-5.55 -0.32,-8.32 l 10.39,-0.25 a 1.55,1.55 0 0 1 1.53,1.33 l 0.12,1.12 a 4.94,4.94 0 0 0 0.11,0.86 c 0,0.17 0.15,0.44 0.33,0.48 a 0.61,0.61 0 0 0 0.43,-0.21 2.31,2.31 0 0 0 0.2,-0.24 8,8 0 0 1 1.59,-1.42 9.5,9.5 0 0 1 2.21,-1.1 8,8 0 0 1 2.6,-0.42 7.82,7.82 0 0 1 4.56,1.26 7.06,7.06 0 0 1 1.73,1.56 1.85,1.85 0 0 0 0.78,0.69 c 0.52,0 0.84,-0.52 1.1,-0.76 a 12.84,12.84 0 0 1 1.08,-0.87 c 0.41,-0.29 0.82,-0.56 1.25,-0.82 a 11.41,11.41 0 0 1 6,-1.49 17.09,17.09 0 0 1 7.52,1.42 11.36,11.36 0 0 1 4.54,3.96 15.78,15.78 0 0 1 2.28,6 z"
         id="path234" />
      <g
         clip-path="url(#clip-path-12)"
         id="g238">
        <path
           d="m 464.77,72.59 v 2.84 c 0,-1 0,-2 -0.11,-2.87 a 11.1,11.1 0 0 0 -0.43,-2.45 5.45,5.45 0 0 0 -0.83,-1.71 1.74,1.74 0 0 0 -0.58,-0.47 v -2.84 a 1.65,1.65 0 0 1 0.58,0.47 5.45,5.45 0 0 1 0.83,1.71 11.1,11.1 0 0 1 0.43,2.45 c 0.07,0.92 0.11,1.88 0.11,2.87 m -1.95,-7.5 v 2.84 a 1.85,1.85 0 0 0 -0.8,-0.17 3,3 0 0 0 -2,0.57 v -2.85 a 3,3 0 0 1 2,-0.56 1.85,1.85 0 0 1 0.8,0.17"
           id="path236" />
      </g>
      <g
         clip-path="url(#clip-path-12)"
         id="g242">
        <path
           d="m 460,65.48 v 2.85 a 1.47,1.47 0 0 0 -0.36,0.46 4.55,4.55 0 0 0 -0.51,2 V 68 a 4.55,4.55 0 0 1 0.51,-2 1.64,1.64 0 0 1 0.36,-0.47"
           id="path240" />
      </g>
      <g
         clip-path="url(#clip-path-14)"
         id="g246">
        <path
           d="m 445.89,74.63 v 2.84 c 0,-1.44 0,-2.84 0,-4.2 0,-2.73 -0.07,-5.41 -0.14,-8.06 -0.07,-2.65 -0.19,-5.42 -0.33,-8.31 v -2.84 q 0.21,4.32 0.33,8.3 c 0.07,2.66 0.11,5.34 0.14,8.07 0,1.36 0,2.76 0,4.2"
           id="path244" />
      </g>
      <g
         clip-path="url(#clip-path-15)"
         id="g250">
        <path
           d="m 484,70.32 v 2.84 A 7.84,7.84 0 0 0 483.17,69 2.79,2.79 0 0 0 482.08,68 v -2.81 a 2.79,2.79 0 0 1 1.09,1 7.84,7.84 0 0 1 0.83,4.16 m -1.92,-5.13 V 68 a 2.84,2.84 0 0 0 -1.26,-0.27 2.58,2.58 0 0 0 -1.78,0.63 v -2.81 a 2.58,2.58 0 0 1 1.78,-0.63 2.84,2.84 0 0 1 1.26,0.27"
           id="path248" />
      </g>
      <g
         clip-path="url(#clip-path-15)"
         id="g254">
        <path
           d="m 479,65.55 v 2.84 a 4.56,4.56 0 0 0 -1.26,2.71 65.65,65.65 0 0 0 -0.58,10.16 v -2.84 a 65.65,65.65 0 0 1 0.58,-10.16 4.56,4.56 0 0 1 1.26,-2.71"
           id="path252" />
      </g>
      <path
         d="m 459.13,68 v 2.84 l -0.4,19.51 v -2.86 z"
         id="path256" />
      <g
         clip-path="url(#clip-path-17)"
         id="g260">
        <path
           d="m 482.49,88 v 2.8 a 1,1 0 0 1 -0.42,-0.12 v -2.84 a 1.2,1.2 0 0 0 0.42,0.12 m -0.42,-0.12 v 2.84 a 1.2,1.2 0 0 1 -0.69,-1.09 v -2.84 a 1.2,1.2 0 0 0 0.69,1.09"
           id="path258" />
      </g>
      <g
         clip-path="url(#clip-path-18)"
         id="g264">
        <path
           d="m 458.73,87.49 v 2.84 a 1.44,1.44 0 0 1 -0.49,1 v -2.82 a 1.4,1.4 0 0 0 0.49,-1 m -0.49,1 v 2.85 a 1.46,1.46 0 0 1 -0.93,0.36 v -2.84 a 1.47,1.47 0 0 0 0.93,-0.37"
           id="path262" />
      </g>
      <g
         clip-path="url(#clip-path-19)"
         id="g268">
        <path
           d="m 447.22,89.05 v 2.84 a 1.51,1.51 0 0 1 -0.62,-0.14 v -2.84 a 1.51,1.51 0 0 0 0.62,0.14 m -0.62,-0.14 v 2.84 a 1.34,1.34 0 0 1 -0.77,-1.21 V 87.7 a 1.34,1.34 0 0 0 0.77,1.21"
           id="path266" />
      </g>
      <path
         d="m 457.31,88.88 v 2.84 l -10.09,0.17 v -2.84 z"
         id="path270" />
      <g
         clip-path="url(#clip-path-20)"
         id="g274">
        <path
           d="m 496.29,72.88 v 2.84 a 60.22,60.22 0 0 1 -0.55,8 c -0.37,2.85 -0.82,5.69 -1.33,8.52 v -2.81 c 0.51,-2.83 1,-5.67 1.33,-8.53 a 60,60 0 0 0 0.55,-8"
           id="path272" />
      </g>
      <path
         d="m 494.41,89.43 v 2.84 L 482.49,90.8 V 88 Z"
         id="path276" />
      <g
         clip-path="url(#clip-path-21)"
         id="g280">
        <path
           d="m 465.87,89.53 v 2.84 a 1.59,1.59 0 0 1 -0.57,-0.14 v -2.84 a 1.54,1.54 0 0 0 0.57,0.14 m -0.57,-0.14 v 2.84 a 1.34,1.34 0 0 1 -0.77,-1.21 v -2.84 a 1.34,1.34 0 0 0 0.77,1.21"
           id="path278" />
      </g>
      <path
         d="m 493.4,59.13 a 15.94,15.94 0 0 1 2.27,6 44.85,44.85 0 0 1 0.62,7.71 60,60 0 0 1 -0.55,8 c -0.37,2.86 -0.82,5.7 -1.33,8.53 L 482.49,88 a 1.21,1.21 0 0 1 -1.07,-1.5 c 0.07,-0.31 1.43,-6.21 1.89,-9.07 a 46.37,46.37 0 0 0 0.69,-7.07 7.84,7.84 0 0 0 -0.83,-4.16 2.69,2.69 0 0 0 -2.35,-1.24 c -1.64,0 -2.65,1.12 -3,3.34 a 65.65,65.65 0 0 0 -0.58,10.16 c 0,0.61 0,1.42 0,2.41 0,0.99 0.05,2 0.07,3.13 0.02,1.13 0.08,2.15 0.15,3.19 0.07,1.04 0.15,1.92 0.25,2.63 l -11.84,-0.25 a 1.36,1.36 0 0 1 -1.34,-1.4 c 0,-0.06 0.05,-1.13 0.1,-2.15 0.05,-1.02 0.08,-2.18 0.1,-3.27 0.02,-1.09 0,-2.52 0,-4.08 v -6 c 0,-1 0,-2 -0.11,-2.87 a 11.1,11.1 0 0 0 -0.43,-2.45 5.45,5.45 0 0 0 -0.83,-1.71 1.66,1.66 0 0 0 -1.37,-0.64 c -1.26,0 -2,0.34 -2.39,1 a 4.55,4.55 0 0 0 -0.51,2 l -0.4,19.51 a 1.45,1.45 0 0 1 -1.42,1.39 l -10.09,0.17 a 1.37,1.37 0 0 1 -1.39,-1.35 c 0,-0.28 0,-5.61 0,-8.64 0,-3.03 0,-5.91 0,-8.63 0,-2.72 -0.07,-5.41 -0.14,-8.07 -0.07,-2.66 -0.19,-5.42 -0.33,-8.3 l 10.39,-0.26 a 1.54,1.54 0 0 1 1.54,1.33 l 0.07,0.66 0.09,0.89 c 0,0.25 0,0.72 0.35,0.74 0.35,0.02 0.47,-0.26 0.72,-0.45 0.52,-0.41 1,-0.87 1.55,-1.25 a 9.24,9.24 0 0 1 2.2,-1.1 8,8 0 0 1 2.6,-0.42 7.84,7.84 0 0 1 4.56,1.24 7.09,7.09 0 0 1 1.8,1.74 c 0.17,0.25 0.26,0.47 0.6,0.5 a 1.85,1.85 0 0 0 0.29,0 c 0.36,-0.06 0.58,-0.42 0.83,-0.66 a 11.51,11.51 0 0 1 1.08,-0.88 c 0.42,-0.3 0.85,-0.58 1.29,-0.85 a 11.45,11.45 0 0 1 6,-1.49 17,17 0 0 1 7.51,1.42 11.32,11.32 0 0 1 4.56,3.94 z m -15.69,30.65 v 2.84 l -11.84,-0.25 v -2.84 z"
         id="path282" />
      <g
         clip-path="url(#clip-path-22)"
         id="g286">
        <path
           d="m 427.65,73.61 v 2.84 q 0,-3.27 0,-5.7 c 0,-1.56 -0.08,-3.13 -0.15,-4.7 -0.07,-1.57 -0.17,-3.18 -0.29,-4.77 -0.12,-1.59 -0.25,-3.64 -0.4,-5.91 v -2.85 c 0.15,2.28 0.28,4.26 0.4,5.92 0.12,1.66 0.22,3.25 0.29,4.77 0.07,1.52 0.12,3.09 0.15,4.7 0.03,1.61 0,3.52 0,5.7"
           id="path284" />
      </g>
      <g
         clip-path="url(#clip-path-23)"
         id="g290">
        <path
           d="m 419,54.87 v 2.85 a 1.49,1.49 0 0 1 0,0.21 c 0,0.15 -0.5,2.92 -0.79,5.2 -0.29,2.28 -0.5,4.37 -0.72,6.56 a 66.45,66.45 0 0 0 -0.36,7.19 V 74 a 68.55,68.55 0 0 1 0.36,-7.19 c 0.24,-2.38 0.48,-4.56 0.72,-6.56 0.29,-2.28 0.76,-5 0.79,-5.2 a 1.5,1.5 0 0 0 0,-0.22"
           id="path288" />
      </g>
      <g
         clip-path="url(#clip-path-24)"
         id="g294">
        <path
           d="m 428.75,87.75 v 2.84 c 0,-0.35 -0.06,-0.66 -0.29,-0.77 V 87 c 0.23,0.11 0.29,0.42 0.29,0.77 M 428.46,87 v 2.84 a 0.47,0.47 0 0 0 -0.17,0 1.09,1.09 0 0 0 -0.64,0.34 v -2.89 a 1.09,1.09 0 0 1 0.64,-0.34 0.47,0.47 0 0 1 0.17,0"
           id="path292" />
      </g>
      <g
         clip-path="url(#clip-path-24)"
         id="g298">
        <path
           d="m 427.65,87.29 v 2.84 c -0.16,0.13 -0.3,0.28 -0.41,0.38 v -2.84 c 0.11,-0.1 0.25,-0.25 0.41,-0.38 m -0.41,0.38 v 2.84 l -0.1,0.08 a 13.31,13.31 0 0 1 -2.21,1.32 13.05,13.05 0 0 1 -2.5,0.89 10.84,10.84 0 0 1 -2.54,0.32 20.78,20.78 0 0 1 -7.36,-1.12 c -0.4,-0.15 -0.81,-0.32 -1.2,-0.51 V 88.6 c 0.39,0.19 0.8,0.36 1.2,0.51 a 20.78,20.78 0 0 0 7.36,1.17 10.84,10.84 0 0 0 2.54,-0.32 13.05,13.05 0 0 0 2.5,-0.89 13.31,13.31 0 0 0 2.21,-1.32 l 0.1,-0.08"
           id="path296" />
      </g>
      <g
         clip-path="url(#clip-path-24)"
         id="g302">
        <path
           d="m 411.33,88.6 v 2.84 a 12.47,12.47 0 0 1 -3.83,-2.81 13.56,13.56 0 0 1 -2.9,-5.25 23.57,23.57 0 0 1 -0.94,-6.93 v -2.84 a 23.61,23.61 0 0 0 0.94,6.93 13.63,13.63 0 0 0 2.9,5.25 12.47,12.47 0 0 0 3.83,2.81"
           id="path300" />
      </g>
      <g
         clip-path="url(#clip-path-27)"
         id="g306">
        <path
           d="M 430.06,90.18 V 93 a 1.52,1.52 0 0 1 -0.63,-0.14 V 90 a 1.52,1.52 0 0 0 0.63,0.14"
           id="path304" />
      </g>
      <g
         clip-path="url(#clip-path-27)"
         id="g310">
        <path
           d="m 429.43,90 v 2.84 a 1.34,1.34 0 0 1 -0.77,-1.21 v -2.8 a 1.35,1.35 0 0 0 0.77,1.21"
           id="path308" />
      </g>
      <path
         d="m 441.42,89.92 v 2.84 L 430.06,93 v -2.82 z m -0.69,-18.8 c 0.12,2.94 0.25,5.94 0.37,9 0.12,3.06 0.23,6.32 0.32,9.81 l -11.36,0.26 a 1.37,1.37 0 0 1 -1.4,-1.35 c 0,-0.41 0.32,-1.67 -0.24,-1.86 a 0.3,0.3 0 0 0 -0.13,0 c -0.41,0 -0.87,0.6 -1.15,0.8 a 13.31,13.31 0 0 1 -2.21,1.32 13.05,13.05 0 0 1 -2.5,0.89 10.84,10.84 0 0 1 -2.54,0.32 20.78,20.78 0 0 1 -7.36,-1.17 12.84,12.84 0 0 1 -5,-3.32 13.5,13.5 0 0 1 -2.9,-5.25 23.61,23.61 0 0 1 -0.94,-6.93 c 0,-1.8 0.08,-3.85 0.25,-6.12 0.17,-2.27 0.36,-4.33 0.61,-6.49 q 0.38,-3.57 0.88,-7.12 l 12.37,-0.13 a 1.12,1.12 0 0 1 1.17,1.34 c 0,0.15 -0.5,2.92 -0.79,5.2 -0.29,2.28 -0.5,4.37 -0.72,6.56 a 66.32,66.32 0 0 0 -0.36,7.19 5.26,5.26 0 0 0 1.23,3.52 4.55,4.55 0 0 0 3.67,1.41 5.82,5.82 0 0 0 4,-1.47 5,5 0 0 0 1.67,-4 c 0,-2.18 0,-4.08 0,-5.7 0,-1.62 -0.07,-3.13 -0.14,-4.7 -0.07,-1.57 -0.17,-3.18 -0.29,-4.77 -0.12,-1.59 -0.25,-3.64 -0.4,-5.92 l 11.87,-0.25 a 1.41,1.41 0 0 1 1.44,1.35 c 0,0.27 0.16,5.42 0.28,8.49 0.12,3.07 0.24,6.06 0.36,9 z m -39.67,-5.56 v 2.84 l -8.77,2.16 v -2.84 z"
         id="path312" />
      <g
         clip-path="url(#clip-path-29)"
         id="g316">
        <path
           d="m 392.29,67.72 v 2.84 a 2.2,2.2 0 0 1 -0.36,0 1.63,1.63 0 0 1 -0.75,-0.18 v -2.8 a 1.63,1.63 0 0 0 0.75,0.18 2.2,2.2 0 0 0 0.36,0 m -1.11,-0.14 v 2.84 a 1.62,1.62 0 0 1 -0.8,-0.79 7.13,7.13 0 0 0 -1.43,-2 4.52,4.52 0 0 0 -1.23,-0.86 v -2.89 a 4.52,4.52 0 0 1 1.23,0.86 7.13,7.13 0 0 1 1.43,2 1.62,1.62 0 0 0 0.8,0.79 m -3.46,-3.66 v 2.84 a 7.57,7.57 0 0 0 -3.29,-0.63 5,5 0 0 0 -2.06,0.46 5.52,5.52 0 0 0 -1.45,0.93 v -2.83 a 5.52,5.52 0 0 1 1.45,-0.93 5,5 0 0 1 2.06,-0.46 7.57,7.57 0 0 1 3.29,0.63"
           id="path314" />
      </g>
      <g
         clip-path="url(#clip-path-29)"
         id="g320">
        <path
           d="m 380.92,64.68 v 2.84 a 5.66,5.66 0 0 0 -0.43,0.42 V 65.1 a 5.66,5.66 0 0 1 0.43,-0.42"
           id="path318" />
      </g>
      <g
         clip-path="url(#clip-path-31)"
         id="g324">
        <path
           d="m 380.49,65.1 v 2.84 a 7.14,7.14 0 0 0 -1.37,2.24 8.37,8.37 0 0 0 -0.55,3.2 v -2.85 a 8.35,8.35 0 0 1 0.55,-3.19 7.14,7.14 0 0 1 1.37,-2.24"
           id="path322" />
      </g>
      <g
         clip-path="url(#clip-path-32)"
         id="g328">
        <path
           d="m 400.56,76.85 v 2.84 a 1.06,1.06 0 0 1 -0.06,0.39 23.61,23.61 0 0 1 -2,4.73 16.84,16.84 0 0 1 -3,3.6 v -2.84 a 16.84,16.84 0 0 0 3,-3.6 23.61,23.61 0 0 0 2,-4.73 1.06,1.06 0 0 0 0.06,-0.39"
           id="path326" />
      </g>
      <g
         clip-path="url(#clip-path-32)"
         id="g332">
        <path
           d="m 395.45,85.57 v 2.84 c -0.24,0.22 -0.5,0.43 -0.76,0.63 a 15.29,15.29 0 0 1 -4.77,2.48 17.94,17.94 0 0 1 -5.35,0.82 20.88,20.88 0 0 1 -8.31,-1.5 c -0.25,-0.1 -0.5,-0.22 -0.74,-0.33 v -2.84 c 0.24,0.11 0.49,0.23 0.74,0.33 a 20.88,20.88 0 0 0 8.31,1.5 17.94,17.94 0 0 0 5.35,-0.82 15.1,15.1 0 0 0 4.77,-2.49 c 0.26,-0.2 0.52,-0.4 0.76,-0.62"
           id="path330" />
      </g>
      <g
         clip-path="url(#clip-path-32)"
         id="g336">
        <path
           d="m 375.52,87.67 v 2.84 A 15.68,15.68 0 0 1 367.15,81 22.63,22.63 0 0 1 366.07,74 v -2.9 a 22.68,22.68 0 0 0 1.08,7 15.68,15.68 0 0 0 8.37,9.54"
           id="path334" />
      </g>
      <path
         d="m 380.49,65.1 a 7.14,7.14 0 0 0 -1.37,2.24 8.35,8.35 0 0 0 -0.55,3.19 8.54,8.54 0 0 0 1.77,5.62 5.74,5.74 0 0 0 4.6,2.12 4.72,4.72 0 0 0 1.73,-0.38 9.14,9.14 0 0 0 1.84,-1.07 8.82,8.82 0 0 0 1.63,-1.6 4.78,4.78 0 0 0 0.94,-2.06 l 8.49,2.39 a 1.34,1.34 0 0 1 0.93,1.69 23.61,23.61 0 0 1 -2,4.73 16.56,16.56 0 0 1 -3.8,4.23 15.29,15.29 0 0 1 -4.77,2.48 17.94,17.94 0 0 1 -5.35,0.82 20.88,20.88 0 0 1 -8.31,-1.5 15.73,15.73 0 0 1 -9.11,-9.87 22.68,22.68 0 0 1 -1.08,-7 23.63,23.63 0 0 1 1.19,-7.71 16.13,16.13 0 0 1 3.51,-5.89 15.36,15.36 0 0 1 5.71,-3.77 21.41,21.41 0 0 1 7.73,-1.31 q 7.08,0 11.28,3.62 a 17.5,17.5 0 0 1 5.57,9.52 l -8.77,2.15 a 1.49,1.49 0 0 1 -0.36,0.05 1.74,1.74 0 0 1 -1.55,-1 7,7 0 0 0 -1.43,-2 6.14,6.14 0 0 0 -4.52,-1.49 5,5 0 0 0 -2.06,0.46 5.73,5.73 0 0 0 -1.88,1.35 z M 362.67,48.29 v 2.84 l -4.18,6.33 v -2.84 z"
         id="path338" />
      <g
         clip-path="url(#clip-path-35)"
         id="g342">
        <path
           d="m 358.49,54.62 v 2.84 a 1.12,1.12 0 0 1 -0.22,0.26 v -2.84 a 1.12,1.12 0 0 0 0.22,-0.26 m -0.22,0.26 v 2.84 a 1.19,1.19 0 0 1 -1.31,0.18 v -2.84 a 1.19,1.19 0 0 0 1.31,-0.18 m -1.31,0.18 v 2.84 a 1.07,1.07 0 0 1 -0.28,-0.19 24.54,24.54 0 0 0 -2.21,-1.63 34.3,34.3 0 0 0 -3.23,-1.8 v -2.84 a 34.3,34.3 0 0 1 3.23,1.8 24.54,24.54 0 0 1 2.21,1.63 1.07,1.07 0 0 0 0.28,0.19"
           id="path340" />
      </g>
      <g
         clip-path="url(#clip-path-35)"
         id="g346">
        <path
           d="m 351.24,51.44 v 2.84 l -0.18,-0.09 a 19,19 0 0 0 -3.12,-1.19 10,10 0 0 0 -2.54,-0.39 2.69,2.69 0 0 0 -1.82,0.54 v -2.82 a 2.69,2.69 0 0 1 1.82,-0.55 10,10 0 0 1 2.54,0.4 19,19 0 0 1 3.12,1.17 l 0.18,0.09"
           id="path344" />
      </g>
      <g
         clip-path="url(#clip-path-35)"
         id="g350">
        <path
           d="m 343.58,50.33 v 2.84 a 0.47,0.47 0 0 0 -0.1,0.1 2.26,2.26 0 0 0 -0.62,1.64 v -2.84 a 2.3,2.3 0 0 1 0.62,-1.65 l 0.1,-0.09"
           id="path348" />
      </g>
      <g
         clip-path="url(#clip-path-38)"
         id="g354">
        <path
           d="m 347.36,76.24 v 2.84 a 3.38,3.38 0 0 0 -1.49,-2.57 30.48,30.48 0 0 0 -3.7,-2.53 l -4.79,-2.85 a 28.44,28.44 0 0 1 -4.79,-3.6 19.55,19.55 0 0 1 -3.7,-4.74 12.52,12.52 0 0 1 -1.48,-6.17 v -2.84 a 12.52,12.52 0 0 0 1.48,6.22 19.55,19.55 0 0 0 3.7,4.74 28.44,28.44 0 0 0 4.79,3.6 l 4.79,2.85 a 30.48,30.48 0 0 1 3.7,2.53 3.38,3.38 0 0 1 1.49,2.57"
           id="path352" />
      </g>
      <g
         clip-path="url(#clip-path-39)"
         id="g358">
        <path
           d="m 363,74.74 v 2.84 a 13.09,13.09 0 0 1 -1.63,6.66 14.4,14.4 0 0 1 -2.94,3.61 V 85 a 14.4,14.4 0 0 0 2.94,-3.61 13.09,13.09 0 0 0 1.63,-6.65"
           id="path356" />
      </g>
      <g
         clip-path="url(#clip-path-39)"
         id="g362">
        <path
           d="m 358.39,85 v 2.84 a 13.2,13.2 0 0 1 -1.31,1 18.79,18.79 0 0 1 -5.91,2.71 25.58,25.58 0 0 1 -6.64,0.89 A 24.28,24.28 0 0 1 334,90.39 v -2.84 a 24.28,24.28 0 0 0 10.56,2.09 25.58,25.58 0 0 0 6.64,-0.89 19,19 0 0 0 5.88,-2.75 13.2,13.2 0 0 0 1.31,-1"
           id="path360" />
      </g>
      <g
         clip-path="url(#clip-path-39)"
         id="g366">
        <path
           d="m 334,87.55 v 2.84 l -0.65,-0.33 a 24.85,24.85 0 0 1 -8.16,-7.35 v -2.84 a 24.85,24.85 0 0 0 8.16,7.35 l 0.65,0.33"
           id="path364" />
      </g>
      <path
         d="m 357.73,62.9 a 17.56,17.56 0 0 1 3.74,5 14.86,14.86 0 0 1 1.53,6.84 13.09,13.09 0 0 1 -1.63,6.66 14.34,14.34 0 0 1 -4.29,4.6 19,19 0 0 1 -5.91,2.71 25.58,25.58 0 0 1 -6.64,0.89 23.62,23.62 0 0 1 -11.21,-2.42 24.85,24.85 0 0 1 -8.16,-7.35 l 5.15,-6.4 a 1.18,1.18 0 0 1 0.92,-0.47 1.2,1.2 0 0 1 0.88,0.41 13.55,13.55 0 0 0 1.61,1.44 20.47,20.47 0 0 0 3.3,2.06 23.78,23.78 0 0 0 3.63,1.47 11.71,11.71 0 0 0 3.44,0.57 4.33,4.33 0 0 0 2.44,-0.57 2.45,2.45 0 0 0 0.83,-2.15 3.38,3.38 0 0 0 -1.49,-2.56 30.48,30.48 0 0 0 -3.7,-2.53 l -4.79,-2.85 a 29,29 0 0 1 -4.79,-3.6 19.55,19.55 0 0 1 -3.7,-4.74 12.52,12.52 0 0 1 -1.48,-6.17 13,13 0 0 1 1.3,-6 12.85,12.85 0 0 1 3.52,-4.31 15.36,15.36 0 0 1 5.12,-2.64 20.67,20.67 0 0 1 6.16,-0.89 24.82,24.82 0 0 1 10.41,2.1 30,30 0 0 1 8.75,6.24 l -4.18,6.33 a 1.19,1.19 0 0 1 -1,0.56 1.23,1.23 0 0 1 -0.81,-0.31 23,23 0 0 0 -2.21,-1.63 33.63,33.63 0 0 0 -3.41,-1.89 19,19 0 0 0 -3.12,-1.17 10,10 0 0 0 -2.54,-0.4 2.58,2.58 0 0 0 -1.92,0.64 2.3,2.3 0 0 0 -0.62,1.65 3,3 0 0 0 1.49,2.38 29,29 0 0 0 3.73,2.29 q 2.44,1.27 4.83,2.63 a 26.18,26.18 0 0 1 4.82,3.53 z"
         id="path368" />
    </g>
    <path
       d="m 678.48,19.13 a 7,7 0 0 0 -4.81,-2.51 l -11.52,-1 a 8.15,8.15 0 0 0 -7.66,4.1 L 631.7,61.33 c -4,-14.67 -12.15,-45.07 -12.15,-45.07 a 8,8 0 0 0 -6.76,-5.74 l -12.7,-1.28 a 7.17,7.17 0 0 0 -7.81,6.08 l -11.06,74.21 a 7,7 0 0 0 6.31,8 l 10.25,0.89 a 7.16,7.16 0 0 0 7.72,-6.16 c 0,0 1.5,-10.38 2.88,-20.66 l 6.9,23.73 A 8.07,8.07 0 0 0 622,101 l 6.83,0.73 a 8.17,8.17 0 0 0 7.73,-3.94 c 0,0 6.09,-10.57 12.18,-21.12 l -1.7,19.74 c 0,0.2 0,0.4 0,0.6 a 7.14,7.14 0 0 0 6.38,7.08 l 12.28,1.28 a 7.07,7.07 0 0 0 7.76,-6.41 l 6.65,-74.61 a 7,7 0 0 0 -1.63,-5.18 z m -12.22,80.75 -5.94,-0.62 -1,-0.1 -5.32,-0.55 a 1.64,1.64 0 0 1 -1.46,-1.77 l 2.18,-25.3 0.08,-1 1.41,-16.44 c 0.08,-0.88 -0.22,-1 -0.66,-0.21 L 631.83,95 a 2.66,2.66 0 0 1 -2.4,1.22 L 622.6,95.5 a 2.63,2.63 0 0 1 -2.06,-1.72 l -4.92,-16.9 -0.28,-1 L 606.93,47 c -0.25,-0.85 -0.55,-0.83 -0.68,0.05 l -3.59,25.95 -0.14,1 -0.93,6.69 -0.13,1 -1.38,9.93 A 1.71,1.71 0 0 1 598.25,93 L 588,92.07 a 1.51,1.51 0 0 1 -1.37,-1.73 l 1.55,-10.34 0.14,-1 1,-6.41 0.15,-1 5,-33.68 0.15,-1 3.11,-20.89 a 1.71,1.71 0 0 1 1.84,-1.43 L 612.24,16 a 2.52,2.52 0 0 1 2,1.72 l 3.51,13 0.26,1 7.05,26.15 0.26,1 4.2,15.58 c 0.23,0.85 0.77,0.92 1.2,0.14 L 652.89,34 l 0.53,-1 5.87,-10.72 A 2.71,2.71 0 0 1 661.67,21 l 3.8,0.33 1,0.09 6.74,0.59 a 1.62,1.62 0 0 1 1.46,1.74 l -1.87,20.94 -0.09,1 -3.71,41.86 -0.08,1 -0.92,9.89 a 1.58,1.58 0 0 1 -1.72,1.44 z"
       fill="#333333"
       id="path372" />
    <path
       d="m 668,98.44 0.89,-9.92 0.08,-1 3.73,-41.82 0.09,-1 1.87,-20.94 a 1.62,1.62 0 0 0 -1.46,-1.74 l -6.74,-0.59 -1,-0.09 -3.8,-0.33 a 2.71,2.71 0 0 0 -2.38,1.28 l -5.87,10.72 -0.53,1 -22.14,40.49 c -0.43,0.78 -1,0.71 -1.2,-0.14 l -4.2,-15.58 -0.26,-1 -7.08,-26.12 -0.26,-1 -3.51,-13 a 2.52,2.52 0 0 0 -2,-1.72 l -12.7,-1.28 a 1.71,1.71 0 0 0 -1.84,1.43 l -3.1,20.91 -0.15,1 -5,33.68 -0.15,1 -1,6.41 -0.14,1 -1.54,10.34 a 1.51,1.51 0 0 0 1.39,1.64 l 10.24,0.89 a 1.71,1.71 0 0 0 1.83,-1.45 l 1.38,-9.93 0.13,-1 0.93,-6.69 0.14,-1 3.59,-25.87 c 0.13,-0.88 0.43,-0.9 0.68,-0.05 l 8.41,28.9 0.28,1 4.92,16.9 a 2.63,2.63 0 0 0 2.06,1.72 l 6.83,0.72 a 2.66,2.66 0 0 0 2.4,-1.22 l 23.7,-41.09 c 0.44,-0.77 0.74,-0.67 0.66,0.21 l -1.41,16.44 -0.08,1 -2.18,25.3 a 1.64,1.64 0 0 0 1.49,1.76 l 5.38,0.55 1,0.1 5.94,0.62 v 0 A 1.58,1.58 0 0 0 668,98.44 Z"
       fill="#b5b5b5"
       id="path374" />
    <path
       d="m 664.54,87.55 -0.13,0.27 -0.8,1.62 -3.21,0.42 -0.39,0.06 v 0.39 l -0.63,8.85 1,0.1 0.6,-8.49 3.07,-0.4 h 0.26 l 0.11,-0.23 0.78,-1.58 h 3.75 l 0.08,-1 z M 588.18,80 l 13.28,1.58 0.13,-1 L 588.32,79 Z m 30.51,-21.22 h 6.65 l -0.26,-1 h -7.36 v 18.16 h -2.38 l 0.28,1 h 3.07 z m 43.69,-25.07 4.08,-12.22 -1,-0.09 -3.89,11.67 h -8.16 l -0.53,1 h 9.38 z m 1.52,11 -0.1,0.35 -2.87,10.38 v 0.07 0.06 15 h -6.09 l -0.08,1 h 7.13 v -0.48 -15.4 l 2.75,-10 h 8.07 l 0.09,-1 h -8.52 z m -62.41,-7.09 1.9,-6 H 618 l -0.26,-1 h -15.05 l -0.11,0.34 -1.9,6 h -6.09 l -0.15,1 h 6.94 z m -7.7,34.11 -0.11,-0.06 h -0.12 -4.13 l -0.15,1 h 4.16 l 2.23,1.22 0.11,0.06 h 6.74 l 0.14,-1 H 596 Z"
       fill="#333333"
       id="path376" />
    <path
       d="m 593.06,8.54 a 5.47,5.47 0 0 0 -4.89,-1.43 l -14.95,3 a 5.46,5.46 0 0 0 -4.34,4.62 c 0,0 -2.82,20.44 -4.88,35.76 L 546.2,18.83 a 5.47,5.47 0 0 0 -5.88,-2.68 l -16.73,3.46 a 5.49,5.49 0 0 0 -3.61,8.16 L 561,96.94 a 5.48,5.48 0 0 0 5.73,2.58 l 10,-1.89 a 5.48,5.48 0 0 0 4.38,-4.47 l 13.5,-79.77 A 5.48,5.48 0 0 0 593.02,8.54 Z M 576,90.66 a 2.51,2.51 0 0 1 -1.85,1.89 l -6.88,1.29 a 2.45,2.45 0 0 1 -2.4,-1.08 l -4.87,-8.19 -0.51,-0.85 -10.71,-18 -0.5,-0.84 -16.64,-28.13 -0.57,-1 -5.59,-9.42 a 1.07,1.07 0 0 1 0.75,-1.71 l 13.58,-2.81 a 2.36,2.36 0 0 1 2.37,1.08 L 545,28 l 0.55,1 14.6,26 0.48,0.86 5.74,10.14 c 0.43,0.78 0.89,0.69 1,-0.19 l 4.53,-32.88 0.13,-1 2,-14.83 a 2.44,2.44 0 0 1 1.8,-1.92 l 4.48,-0.9 1,-0.2 6.35,-1.27 a 1,1 0 0 1 1.34,1.26 l -5.19,30.68 -0.16,1 -2.27,13.38 -0.16,1 -1.76,10.41 -0.24,1.42 z"
       fill="#333333"
       id="path378" />
    <path
       d="m 579.44,70.47 1.76,-10.41 0.16,-1 2.27,-13.38 0.16,-1 5.21,-30.61 a 1,1 0 0 0 -1.31,-1.27 l -6.35,1.27 -1,0.2 -4.48,0.9 a 2.44,2.44 0 0 0 -1.8,1.92 l -2,14.83 -0.13,1 -4.53,32.88 c -0.12,0.88 -0.58,1 -1,0.19 L 560.68,55.82 560.2,54.96 545.6,28.96 545,28 542.16,22.94 a 2.36,2.36 0 0 0 -2.37,-1.08 l -13.58,2.81 a 1.07,1.07 0 0 0 -0.75,1.71 l 5.59,9.42 0.57,1 16.67,28.08 0.5,0.84 10.71,18 0.51,0.85 4.86,8.19 a 2.45,2.45 0 0 0 2.4,1.08 l 6.88,-1.29 A 2.51,2.51 0 0 0 576,90.66 l 3.18,-18.77 0.24,-1.42 z"
       fill="#b5b5b5"
       id="path380" />
    <path
       d="m 536.74,36.75 v -6.44 h 4.56 l 0.15,-0.19 0.85,-1.12 h 3.27 L 545,28 h -3.21 l -0.14,0.2 -0.86,1.17 h -5 v 6.43 h -4.7 l 0.57,1 h 5.1 z m 40,-4 1.81,-1.52 0.17,-0.14 v -7.8 l 1.16,-1.23 0.13,-0.14 v -2.66 l 1.12,-1 0.16,-0.15 v -4.04 l -1,0.2 v 3.42 l -1.13,1 -0.16,0.15 v 2.71 l -1.15,1.23 -0.13,0.14 v 7.75 l -1.5,1.26 H 572 l -0.13,1 h 4.73 z m 1.14,15 -1.24,1.25 -0.14,0.14 v 0.2 10.19 0.49 h 4.73 l 0.16,-1 h -3.92 v -9.5 l 1.28,-1.25 0.14,-0.14 v -2.42 h 4.75 l 0.16,-1 h -5.88 z m -5.56,25.52 h -0.16 l -0.13,0.1 -2.75,2.1 -0.19,0.15 v 4.51 l -9.6,3.54 0.51,0.85 9.74,-3.6 0.32,-0.12 v -4.66 l 2.42,-1.85 h 3.42 0.17 l 0.14,-0.11 3,-2.32 0.24,-1.42 -3.67,2.88 z m -12.15,-18.34 -11.86,9.9 0.5,0.84 11.84,-9.88 z"
       fill="#333333"
       id="path382" />
    <path
       d="m 543.89,49.37 c 9.68,3.87 12.23,16.56 10.68,30.94 -0.68,6.23 -0.81,14.06 -6.91,14.92 -2.08,0.29 -4.42,-0.21 -6.6,-0.47 -2,-0.24 -4.2,-1 -6.13,-0.79 -1.17,0.15 -2.06,1.1 -3.14,1.42 -2.38,0.7 -5.35,0.31 -8.63,0.31 a 32.18,32.18 0 0 1 -5.82,-0.31 c -1.06,-0.21 -2.15,-1 -3.29,-1.1 -1.14,-0.1 -2.11,0.5 -3.3,0.62 a 62.09,62.09 0 0 1 -10.84,0.16 c -1.2,-0.1 -2.53,-0.8 -3.61,-0.78 -1.08,0.02 -2.27,0.81 -3.46,0.94 -4.2,0.46 -8.61,-1.62 -12.25,-1.26 -1.69,0.17 -3.41,1.68 -5.65,1.89 a 52.81,52.81 0 0 1 -11.78,-0.47 c -1.21,-0.22 -2.45,-1 -3.61,-1.1 -1.16,-0.1 -2.26,0.51 -3.46,0.62 a 74.58,74.58 0 0 1 -10,0.16 c -0.92,0 -1.84,-0.36 -2.67,-0.31 -1.45,0.09 -2.88,1.09 -4.24,1.25 a 52.81,52.81 0 0 1 -11.15,0.16 c -1.23,-0.12 -2.47,-0.77 -3.77,-0.78 -1.77,0 -3.4,0.81 -4.87,0.94 -8.49,0.74 -14.88,-3.34 -19.16,-8 -1.9,0.91 -3.11,2.59 -4.87,3.77 -7.92,5.26 -21.36,3.74 -28.36,-1.74 -1,-0.78 -2.4,-3.16 -3.61,-3.14 -1,0 -2.84,2.42 -3.77,3.14 A 27.24,27.24 0 0 1 344.7,95.7 28.65,28.65 0 0 1 323.02,88.32 C 320.58,86 317,82.2 318.67,77.48 c 0.85,-2.43 3.35,-4.91 5.18,-7.07 0.67,-0.79 1.68,-1.57 1.73,-2.35 0.08,-1.41 -2.24,-3.52 -2.83,-4.56 a 22,22 0 0 1 -0.94,-18.37 c 3.12,-7 11.38,-12.12 22.61,-11.31 a 29.66,29.66 0 0 1 12.41,3.77 c 5.32,3.06 10.85,5.89 9.11,14 2.24,-0.48 3.53,-2.08 5.5,-3 6.82,-3.15 17.74,-2.93 24,1.1 0.79,0.51 2,1.72 2.67,1.73 1.25,0 2.78,-2.5 3.92,-3 2.56,-1.08 10.79,-1.14 14.45,-0.79 1.46,0.14 3,1.16 4.09,1.1 1.09,-0.06 2.81,-1.59 3.77,-1.88 2.92,-0.9 11.94,-1.27 15.23,-0.32 1.08,0.31 2.24,1.58 3.46,1.73 1.22,0.15 2.66,-0.42 3.92,-0.47 2.34,-0.11 5,-0.27 7.23,-0.16 1.63,0.08 3.17,1 4.71,1.1 1.54,0.1 3.14,-0.64 4.71,-0.63 a 17,17 0 0 1 3.93,0.63 c 1.16,0.3 2.33,1.11 3.29,1.1 1.44,0 3,-1.09 4.24,-1.41 a 23.54,23.54 0 0 1 13.83,0.78 c 1,0.37 2.85,2 3.92,2 1.28,0 2.77,-2.22 3.93,-2.67 3.21,-1.25 8,-1.09 11.78,-0.94 1.72,0.07 3.26,1 4.87,1.1 1.42,0.07 3,-0.61 4.39,-0.63 a 14.75,14.75 0 0 1 3.93,0.63 c 1.24,0.32 2.55,1.09 3.46,1.1 1.21,0 2.41,-1 3.45,-1.26 a 24.21,24.21 0 0 1 15.24,0.79 z"
       fill="#333333"
       id="path384" />
    <g
       clip-path="url(#clip-path-42)"
       id="g392">
      <path
         d="m 517.71,71 v 2.8 c 0,-1 0,-2 -0.11,-2.88 a 11.21,11.21 0 0 0 -0.43,-2.45 5.28,5.28 0 0 0 -0.83,-1.7 1.65,1.65 0 0 0 -0.58,-0.47 v -2.85 a 1.91,1.91 0 0 1 0.58,0.47 5.45,5.45 0 0 1 0.83,1.71 11.21,11.21 0 0 1 0.43,2.45 c 0.07,0.92 0.11,1.88 0.11,2.88"
         fill="#006a1b"
         id="path386" />
      <path
         d="m 515.76,63.45 v 2.85 a 1.71,1.71 0 0 0 -0.8,-0.17 3,3 0 0 0 -2,0.56 v -2.84 a 3,3 0 0 1 2,-0.56 1.84,1.84 0 0 1 0.8,0.16"
         fill="#006e1c"
         id="path388" />
      <path
         d="m 512.93,63.85 v 2.84 a 1.48,1.48 0 0 0 -0.35,0.47 4.51,4.51 0 0 0 -0.51,2 v -2.82 a 4.51,4.51 0 0 1 0.51,-2 1.48,1.48 0 0 1 0.35,-0.47"
         fill="#006a1b"
         id="path390" />
    </g>
    <g
       clip-path="url(#clip-path-43)"
       id="g396">
      <path
         d="m 498.83,73 v 2.84 c 0,-1.44 0,-2.84 0,-4.2 0,-2.72 -0.07,-5.41 -0.15,-8.06 -0.08,-2.65 -0.18,-5.54 -0.32,-8.31 v -2.85 q 0.21,4.34 0.32,8.31 c 0.08,2.65 0.12,5.34 0.15,8.06 0,1.36 0,2.76 0,4.2"
         fill="#006a1b"
         id="path394" />
    </g>
    <g
       clip-path="url(#clip-path-44)"
       id="g404">
      <path
         d="m 536.94,68.68 v 2.84 a 7.8,7.8 0 0 0 -0.83,-4.15 2.82,2.82 0 0 0 -1.09,-1 v -2.82 a 2.75,2.75 0 0 1 1.09,1 7.8,7.8 0 0 1 0.83,4.15"
         fill="#006a1b"
         id="path398" />
      <path
         d="m 535,63.55 v 2.84 a 3,3 0 0 0 -1.26,-0.26 2.57,2.57 0 0 0 -1.78,0.63 v -2.84 a 2.57,2.57 0 0 1 1.78,-0.63 3,3 0 0 1 1.26,0.26"
         fill="#006e1c"
         id="path400" />
      <path
         d="m 532,63.92 v 2.84 a 4.53,4.53 0 0 0 -1.26,2.71 64.25,64.25 0 0 0 -0.58,10.15 v -2.84 a 64.48,64.48 0 0 1 0.58,-10.16 4.5,4.5 0 0 1 1.26,-2.7"
         fill="#006a1b"
         id="path402" />
    </g>
    <path
       d="m 512.07,66.34 v 2.84 l -0.4,19.51 v -2.84 z"
       fill="#00661a"
       id="path406" />
    <g
       clip-path="url(#clip-path-45)"
       id="g412">
      <path
         d="m 535.43,86.32 v 2.85 A 1.21,1.21 0 0 1 535,89 v -2.8 a 1.09,1.09 0 0 0 0.42,0.12"
         fill="#006e1c"
         id="path408" />
      <path
         d="M 535,86.2 V 89 a 1.19,1.19 0 0 1 -0.69,-1.09 v -2.8 A 1.19,1.19 0 0 0 535,86.2"
         fill="#006a1b"
         id="path410" />
    </g>
    <path
       d="m 536.4,86.45 v 2.84 l -1,-0.12 v -2.85 z"
       fill="#00701c"
       id="path414" />
    <g
       clip-path="url(#clip-path-46)"
       id="g420">
      <path
         d="m 511.67,85.85 v 2.84 a 1.43,1.43 0 0 1 -0.49,1 v -2.81 a 1.43,1.43 0 0 0 0.49,-1"
         fill="#006a1b"
         id="path416" />
      <path
         d="m 511.18,86.88 v 2.84 a 1.41,1.41 0 0 1 -0.93,0.36 v -2.84 a 1.41,1.41 0 0 0 0.93,-0.36"
         fill="#006e1c"
         id="path418" />
    </g>
    <path
       d="m 510.25,87.24 v 2.85 l -10.09,0.16 v -2.84 z"
       fill="#00701c"
       id="path422" />
    <g
       clip-path="url(#clip-path-47)"
       id="g428">
      <path
         d="m 500.16,87.41 v 2.84 a 1.51,1.51 0 0 1 -0.62,-0.14 v -2.84 a 1.51,1.51 0 0 0 0.62,0.14"
         fill="#006e1c"
         id="path424" />
      <path
         d="m 499.54,87.27 v 2.84 a 1.34,1.34 0 0 1 -0.77,-1.21 v -2.84 a 1.34,1.34 0 0 0 0.77,1.21"
         fill="#006a1b"
         id="path426" />
    </g>
    <g
       clip-path="url(#clip-path-48)"
       id="g434">
      <path
         d="m 549.23,71.24 v 2.84 a 61.82,61.82 0 0 1 -0.55,8 c -0.1,0.78 -0.21,1.57 -0.32,2.35 -0.14,0.94 -0.26,1.85 -0.34,2.8 0,0.61 -0.11,1.22 -0.21,1.83 -0.07,0.4 0,1 -0.35,1.33 h -0.05 v -2.77 l 0.05,-0.05 c 0.3,-0.32 0.28,-0.92 0.35,-1.32 0.1,-0.61 0.16,-1.22 0.21,-1.83 0.08,-1 0.2,-1.87 0.34,-2.8 0.14,-0.93 0.22,-1.57 0.32,-2.35 a 61.82,61.82 0 0 0 0.55,-8"
         fill="#006a1b"
         id="path430" />
      <path
         d="m 547.41,87.62 v 2.84 a 0.63,0.63 0 0 1 -0.45,0.15 c -0.23,0 -0.48,-0.07 -0.69,-0.09 -0.63,-0.07 -1.25,-0.21 -1.88,-0.28 -1,-0.12 -2.07,-0.22 -3.1,-0.35 l -4.89,-0.6 v -2.84 l 4.89,0.6 3.1,0.35 c 0.63,0.07 1.25,0.21 1.88,0.28 0.21,0 0.46,0.09 0.69,0.09 a 0.63,0.63 0 0 0 0.45,-0.15"
         fill="#006e1c"
         id="path432" />
    </g>
    <g
       clip-path="url(#clip-path-49)"
       id="g440">
      <path
         d="m 518.83,87.89 v 2.84 a 1.38,1.38 0 0 1 -0.59,-0.14 v -2.84 a 1.54,1.54 0 0 0 0.59,0.14"
         fill="#006e1c"
         id="path436" />
      <path
         d="m 518.24,87.75 v 2.84 a 1.35,1.35 0 0 1 -0.77,-1.2 v -2.84 a 1.35,1.35 0 0 0 0.77,1.2"
         fill="#006a1b"
         id="path438" />
    </g>
    <path
       d="m 520,87.92 v 2.84 h -1.15 v -2.87 z"
       fill="#00701c"
       id="path442" />
    <path
       d="m 522.46,88 v 2.84 h -2.48 v -2.92 z"
       fill="#00701c"
       id="path444" />
    <g
       clip-path="url(#clip-path-50)"
       id="g450">
      <path
         d="m 530.58,87.6 v 2.84 a 0.5,0.5 0 0 1 -0.14,0.39 V 88 a 0.5,0.5 0 0 0 0.14,-0.39"
         fill="#006a1b"
         id="path446" />
      <path
         d="m 530.44,88 v 2.84 a 0.45,0.45 0 0 1 -0.24,0.11 2.48,2.48 0 0 1 -0.61,0.06 c -0.42,0 -0.85,-0.06 -1.24,-0.07 l -2.86,-0.06 -3,-0.06 V 88 l 3,0.06 2.86,0.06 c 0.39,0 0.82,0.07 1.24,0.07 a 2.48,2.48 0 0 0 0.61,-0.06 0.45,0.45 0 0 0 0.24,-0.11"
         fill="#006e1c"
         id="path448" />
    </g>
    <path
       d="m 548.61,63.53 a 44.94,44.94 0 0 1 0.62,7.71 61.82,61.82 0 0 1 -0.55,8 c -0.1,0.78 -0.21,1.57 -0.32,2.35 -0.11,0.78 -0.26,1.85 -0.34,2.8 0,0.61 -0.11,1.22 -0.21,1.83 -0.07,0.4 0,1 -0.35,1.32 a 0.62,0.62 0 0 1 -0.5,0.2 c -0.23,0 -0.48,-0.07 -0.69,-0.09 -0.63,-0.07 -1.25,-0.21 -1.88,-0.28 l -3.1,-0.35 -4.89,-0.6 -1,-0.13 a 1.22,1.22 0 0 1 -1.08,-1.5 c 0.08,-0.31 1.44,-6.2 1.9,-9.07 a 46.25,46.25 0 0 0 0.69,-7.07 7.8,7.8 0 0 0 -0.83,-4.15 2.67,2.67 0 0 0 -2.35,-1.24 q -2.46,0 -3,3.33 a 64.48,64.48 0 0 0 -0.58,10.16 c 0,0.62 0,1.42 0,2.42 0,1 0.05,2 0.07,3.12 0.02,1.12 0.07,2.16 0.15,3.2 0,0.57 0.14,1.14 0.16,1.71 0,0.39 0.12,0.76 -0.36,0.87 a 2.48,2.48 0 0 1 -0.61,0.06 c -0.42,0 -0.85,-0.06 -1.24,-0.07 l -2.83,-0.06 -3,-0.06 h -2.48 -1.14 a 1.37,1.37 0 0 1 -1.37,-1.4 c 0,0 0,-1.13 0.1,-2.15 0.1,-1.02 0.08,-2.17 0.1,-3.26 0.02,-1.09 0,-2.52 0,-4.09 V 71 c 0,-1 0,-2 -0.11,-2.88 a 11.21,11.21 0 0 0 -0.43,-2.45 5.45,5.45 0 0 0 -0.83,-1.71 1.68,1.68 0 0 0 -1.38,-0.63 c -1.25,0 -2,0.34 -2.38,1 a 4.51,4.51 0 0 0 -0.51,2 l -0.4,19.51 a 1.46,1.46 0 0 1 -1.42,1.4 l -10.09,0.16 a 1.35,1.35 0 0 1 -1.38,-1.35 c 0,-0.28 0,-5.61 0,-8.64 0,-3.03 0,-5.91 0,-8.63 0,-2.72 -0.07,-5.41 -0.15,-8.06 -0.08,-2.65 -0.18,-5.54 -0.32,-8.31 l 10.39,-0.25 a 1.55,1.55 0 0 1 1.54,1.33 c 0,0.37 0.08,0.74 0.11,1.12 a 6.32,6.32 0 0 0 0.11,0.86 c 0,0.16 0.15,0.43 0.34,0.47 a 0.57,0.57 0 0 0 0.42,-0.21 2.29,2.29 0 0 0 0.21,-0.23 7.7,7.7 0 0 1 1.59,-1.42 8.88,8.88 0 0 1 2.2,-1.1 7.75,7.75 0 0 1 2.6,-0.43 7.93,7.93 0 0 1 4.56,1.24 7,7 0 0 1 1.68,1.58 1.82,1.82 0 0 0 0.79,0.69 c 0.51,0 0.83,-0.51 1.09,-0.75 a 11.34,11.34 0 0 1 1.09,-0.88 14.66,14.66 0 0 1 1.24,-0.81 11.34,11.34 0 0 1 6,-1.49 17.21,17.21 0 0 1 7.52,1.41 11.32,11.32 0 0 1 4.55,4 15.74,15.74 0 0 1 2.28,6 z"
       fill="#00c832"
       id="path452" />
    <g
       clip-path="url(#clip-path-51)"
       id="g460">
      <path
         d="m 463.13,71 v 2.8 c 0,-1 0,-2 -0.11,-2.88 a 11.21,11.21 0 0 0 -0.43,-2.45 5.09,5.09 0 0 0 -0.83,-1.7 1.7,1.7 0 0 0 -0.58,-0.48 v -2.84 a 1.67,1.67 0 0 1 0.58,0.47 5.24,5.24 0 0 1 0.83,1.71 11.21,11.21 0 0 1 0.43,2.45 c 0.08,0.92 0.11,1.88 0.11,2.88"
         fill="#006a1b"
         id="path454" />
      <path
         d="m 461.18,63.45 v 2.84 a 1.8,1.8 0 0 0 -0.79,-0.16 3,3 0 0 0 -2,0.56 v -2.84 a 3,3 0 0 1 2,-0.56 1.8,1.8 0 0 1 0.79,0.16"
         fill="#006e1c"
         id="path456" />
      <path
         d="m 458.36,63.85 v 2.84 a 1.51,1.51 0 0 0 -0.36,0.47 4.63,4.63 0 0 0 -0.5,2 v -2.82 a 4.63,4.63 0 0 1 0.5,-2 1.51,1.51 0 0 1 0.36,-0.47"
         fill="#006a1b"
         id="path458" />
    </g>
    <g
       clip-path="url(#clip-path-52)"
       id="g464">
      <path
         d="m 444.25,73 v 2.84 c 0,-1.44 0,-2.84 0,-4.2 q 0,-4.08 -0.14,-8.06 -0.14,-3.98 -0.33,-8.31 v -2.85 q 0.23,4.34 0.33,8.31 0.1,3.97 0.14,8.06 c 0,1.36 0,2.76 0,4.2"
         fill="#006a1b"
         id="path462" />
    </g>
    <g
       clip-path="url(#clip-path-53)"
       id="g472">
      <path
         d="m 482.36,68.68 v 2.84 a 7.8,7.8 0 0 0 -0.83,-4.15 2.82,2.82 0 0 0 -1.09,-1 v -2.82 a 2.75,2.75 0 0 1 1.09,1 7.8,7.8 0 0 1 0.83,4.15"
         fill="#006a1b"
         id="path466" />
      <path
         d="m 480.44,63.55 v 2.84 a 3,3 0 0 0 -1.26,-0.26 2.6,2.6 0 0 0 -1.78,0.63 v -2.84 a 2.6,2.6 0 0 1 1.78,-0.63 3,3 0 0 1 1.26,0.26"
         fill="#006e1c"
         id="path468" />
      <path
         d="m 477.4,63.92 v 2.84 a 4.53,4.53 0 0 0 -1.25,2.71 64.25,64.25 0 0 0 -0.58,10.15 v -2.84 a 64.48,64.48 0 0 1 0.58,-10.16 4.53,4.53 0 0 1 1.25,-2.7"
         fill="#006a1b"
         id="path470" />
    </g>
    <path
       d="m 457.5,66.34 v 2.84 l -0.41,19.51 v -2.84 z"
       fill="#00661a"
       id="path474" />
    <g
       clip-path="url(#clip-path-54)"
       id="g480">
      <path
         d="m 480.85,86.33 v 2.84 a 1.48,1.48 0 0 1 -0.41,-0.12 v -2.84 a 1.31,1.31 0 0 0 0.41,0.12"
         fill="#006e1c"
         id="path476" />
      <path
         d="m 480.44,86.21 v 2.84 a 1.2,1.2 0 0 1 -0.69,-1.09 v -2.84 a 1.2,1.2 0 0 0 0.69,1.09"
         fill="#006a1b"
         id="path478" />
    </g>
    <g
       clip-path="url(#clip-path-55)"
       id="g486">
      <path
         d="m 457.09,85.85 v 2.84 a 1.42,1.42 0 0 1 -0.48,1 v -2.81 a 1.42,1.42 0 0 0 0.48,-1"
         fill="#006a1b"
         id="path482" />
      <path
         d="m 456.61,86.88 v 2.84 a 1.41,1.41 0 0 1 -0.94,0.36 v -2.84 a 1.41,1.41 0 0 0 0.94,-0.36"
         fill="#006e1c"
         id="path484" />
    </g>
    <g
       clip-path="url(#clip-path-56)"
       id="g492">
      <path
         d="m 445.59,87.41 v 2.84 a 1.44,1.44 0 0 1 -0.62,-0.14 v -2.84 a 1.44,1.44 0 0 0 0.62,0.14"
         fill="#006e1c"
         id="path488" />
      <path
         d="m 445,87.27 v 2.84 a 1.34,1.34 0 0 1 -0.77,-1.21 v -2.84 a 1.34,1.34 0 0 0 0.77,1.21"
         fill="#006a1b"
         id="path490" />
    </g>
    <path
       d="m 455.67,87.24 v 2.85 l -10.08,0.16 v -2.84 z"
       fill="#00701c"
       id="path494" />
    <g
       clip-path="url(#clip-path-57)"
       id="g498">
      <path
         d="m 494.65,71.24 v 2.84 a 61.78,61.78 0 0 1 -0.54,8 c -0.38,2.85 -0.82,5.69 -1.34,8.52 v -2.81 c 0.52,-2.83 1,-5.67 1.34,-8.52 a 61.78,61.78 0 0 0 0.54,-8"
         fill="#006a1b"
         id="path496" />
    </g>
    <path
       d="m 492.77,87.79 v 2.84 l -11.92,-1.46 v -2.84 z"
       fill="#00701c"
       id="path500" />
    <g
       clip-path="url(#clip-path-58)"
       id="g506">
      <path
         d="m 464.24,87.89 v 2.84 a 1.23,1.23 0 0 1 -0.57,-0.14 v -2.84 a 1.49,1.49 0 0 0 0.57,0.14"
         fill="#006e1c"
         id="path502" />
      <path
         d="m 463.67,87.75 v 2.84 a 1.34,1.34 0 0 1 -0.77,-1.2 v -2.84 a 1.34,1.34 0 0 0 0.77,1.2"
         fill="#006a1b"
         id="path504" />
    </g>
    <path
       d="m 491.76,57.5 a 15.72,15.72 0 0 1 2.28,6 44.78,44.78 0 0 1 0.61,7.7 61.78,61.78 0 0 1 -0.54,8 c -0.38,2.85 -0.82,5.69 -1.34,8.52 l -11.92,-1.46 a 1.22,1.22 0 0 1 -1.07,-1.51 c 0.07,-0.31 1.44,-6.2 1.89,-9.07 a 46.25,46.25 0 0 0 0.69,-7.07 7.8,7.8 0 0 0 -0.83,-4.15 2.66,2.66 0 0 0 -2.35,-1.24 q -2.46,0 -3,3.33 a 64.48,64.48 0 0 0 -0.58,10.16 c 0,0.62 0,1.42 0,2.42 0,1 0,2 0.07,3.12 0.07,1.12 0.07,2.16 0.14,3.2 0.07,1.04 0.16,1.92 0.25,2.63 l -11.83,-0.26 a 1.36,1.36 0 0 1 -1.34,-1.4 c 0,0 0,-1.13 0.09,-2.14 0.09,-1.01 0.08,-2.18 0.11,-3.27 0.03,-1.09 0,-2.52 0,-4.09 V 71 c 0,-1 0,-2 -0.11,-2.88 a 11.1,11.1 0 0 0 -0.43,-2.45 5.24,5.24 0 0 0 -0.83,-1.71 1.66,1.66 0 0 0 -1.37,-0.63 c -1.26,0 -2.05,0.34 -2.39,1 a 4.63,4.63 0 0 0 -0.5,2 l -0.41,19.51 a 1.43,1.43 0 0 1 -1.42,1.39 l -10.08,0.17 a 1.36,1.36 0 0 1 -1.39,-1.35 c 0,-0.28 0,-5.61 0,-8.64 0,-3.03 0,-5.91 0,-8.63 0,-2.72 -0.07,-5.41 -0.14,-8.06 -0.07,-2.65 -0.18,-5.42 -0.33,-8.31 l 10.4,-0.25 a 1.54,1.54 0 0 1 1.53,1.33 l 0.07,0.65 0.09,0.89 c 0,0.25 0,0.72 0.35,0.75 0.35,0.03 0.48,-0.26 0.72,-0.46 0.53,-0.4 1,-0.86 1.55,-1.24 a 9,9 0 0 1 2.21,-1.1 7.71,7.71 0 0 1 2.6,-0.43 7.9,7.9 0 0 1 4.55,1.24 7,7 0 0 1 1.8,1.75 c 0.17,0.24 0.27,0.46 0.6,0.49 a 1.12,1.12 0 0 0 0.29,0 c 0.36,-0.06 0.59,-0.42 0.84,-0.65 a 11.1,11.1 0 0 1 1.07,-0.88 15.09,15.09 0 0 1 1.29,-0.85 11.38,11.38 0 0 1 6,-1.49 17.17,17.17 0 0 1 7.51,1.41 11.34,11.34 0 0 1 4.56,4 z"
       fill="#00c832"
       id="path508" />
    <path
       d="M 476.07,88.15 V 91 l -11.83,-0.26 v -2.85 z"
       fill="#00701c"
       id="path510" />
    <g
       clip-path="url(#clip-path-59)"
       id="g514">
      <path
         d="m 426,72 v 2.84 q 0,-3.28 0,-5.7 c 0,-1.57 -0.07,-3.14 -0.15,-4.7 -0.08,-1.56 -0.17,-3.19 -0.29,-4.78 -0.12,-1.59 -0.25,-3.63 -0.39,-5.91 v -2.86 q 0.21,3.42 0.39,5.91 c 0.12,1.66 0.22,3.26 0.29,4.78 0.07,1.52 0.12,3.08 0.15,4.7 0.03,1.62 0,3.51 0,5.7"
         fill="#006a1b"
         id="path512" />
    </g>
    <g
       clip-path="url(#clip-path-60)"
       id="g518">
      <path
         d="m 417.32,53.24 v 2.84 a 0.86,0.86 0 0 1 0,0.22 c 0,0.14 -0.49,2.92 -0.78,5.2 -0.29,2.28 -0.51,4.36 -0.73,6.55 a 72,72 0 0 0 -0.36,7.19 V 72.4 a 71.37,71.37 0 0 1 0.36,-7.19 c 0.24,-2.38 0.49,-4.56 0.73,-6.55 0.29,-2.28 0.76,-5.06 0.78,-5.2 a 0.86,0.86 0 0 0 0,-0.22"
         fill="#006a1b"
         id="path516" />
    </g>
    <g
       clip-path="url(#clip-path-61)"
       id="g530">
      <path
         d="M 427.12,86.11 V 89 c 0,-0.34 -0.07,-0.65 -0.3,-0.76 v -2.89 c 0.23,0.11 0.3,0.42 0.3,0.76"
         fill="#006a1b"
         id="path520" />
      <path
         d="m 426.82,85.35 v 2.84 a 0.32,0.32 0 0 0 -0.16,0 1.08,1.08 0 0 0 -0.65,0.35 v -2.89 a 1.12,1.12 0 0 1 0.65,-0.34 0.32,0.32 0 0 1 0.16,0"
         fill="#006e1c"
         id="path522" />
      <path
         d="m 426,85.65 v 2.85 l -0.41,0.38 V 86 L 426,85.61"
         fill="#006a1b"
         id="path524" />
      <path
         d="m 425.6,86 v 2.84 l -0.1,0.08 a 14.35,14.35 0 0 1 -2.2,1.31 13.15,13.15 0 0 1 -2.51,0.89 10.26,10.26 0 0 1 -2.53,0.32 20.94,20.94 0 0 1 -7.36,-1.16 c -0.41,-0.16 -0.81,-0.33 -1.21,-0.52 V 87 c 0.4,0.19 0.8,0.36 1.21,0.52 a 20.94,20.94 0 0 0 7.36,1.16 10.26,10.26 0 0 0 2.53,-0.32 13.15,13.15 0 0 0 2.51,-0.89 14.35,14.35 0 0 0 2.2,-1.31 l 0.1,-0.08"
         fill="#006e1c"
         id="path526" />
      <path
         d="m 409.69,87 v 2.8 a 12.31,12.31 0 0 1 -3.83,-2.8 13.72,13.72 0 0 1 -2.9,-5.24 23.66,23.66 0 0 1 -0.94,-6.93 V 72 a 23.66,23.66 0 0 0 0.94,6.93 13.72,13.72 0 0 0 2.9,5.24 12.31,12.31 0 0 0 3.83,2.83"
         fill="#006a1b"
         id="path528" />
    </g>
    <g
       clip-path="url(#clip-path-62)"
       id="g536">
      <path
         d="m 428.42,88.54 v 2.84 a 1.52,1.52 0 0 1 -0.63,-0.14 V 88.4 a 1.52,1.52 0 0 0 0.63,0.14"
         fill="#006e1c"
         id="path532" />
      <path
         d="m 427.79,88.4 v 2.84 A 1.33,1.33 0 0 1 427,90 v -2.8 a 1.33,1.33 0 0 0 0.76,1.2"
         fill="#006a1b"
         id="path534" />
    </g>
    <path
       d="m 439.79,88.29 v 2.84 l -11.37,0.25 v -2.84 z"
       fill="#00701c"
       id="path538" />
    <path
       d="m 439.1,69.48 c 0.12,3 0.24,5.94 0.36,9 0.12,3.06 0.23,6.33 0.33,9.82 l -11.37,0.25 A 1.35,1.35 0 0 1 427,87.2 c 0,-0.42 0.32,-1.68 -0.25,-1.87 h -0.12 c -0.41,0 -0.88,0.6 -1.16,0.81 a 14.35,14.35 0 0 1 -2.2,1.31 13.39,13.39 0 0 1 -2.51,0.89 10.26,10.26 0 0 1 -2.53,0.32 20.94,20.94 0 0 1 -7.36,-1.16 12.86,12.86 0 0 1 -5,-3.33 13.72,13.72 0 0 1 -2.9,-5.24 A 23.66,23.66 0 0 1 402,72 q 0,-2.72 0.25,-6.13 c 0.16,-2.16 0.37,-4.33 0.62,-6.48 q 0.36,-3.57 0.87,-7.13 l 12.38,-0.12 a 1.12,1.12 0 0 1 1.16,1.34 c 0,0.14 -0.49,2.92 -0.78,5.2 -0.29,2.28 -0.51,4.36 -0.73,6.55 a 72,72 0 0 0 -0.36,7.19 5.31,5.31 0 0 0 1.23,3.53 4.59,4.59 0 0 0 3.7,1.46 5.88,5.88 0 0 0 4,-1.46 A 5,5 0 0 0 426,72 q 0,-3.28 0,-5.7 c 0,-1.57 -0.07,-3.14 -0.15,-4.7 -0.08,-1.56 -0.17,-3.19 -0.29,-4.78 -0.12,-1.59 -0.25,-3.63 -0.39,-5.91 L 437,50.64 a 1.4,1.4 0 0 1 1.45,1.36 c 0,0.27 0.16,5.43 0.29,8.49 0.13,3.06 0.24,6.07 0.36,9 z"
       fill="#00c832"
       id="path540" />
    <path
       d="m 399.42,63.92 v 2.85 l -8.77,2.15 v -2.84 z"
       fill="#00701c"
       id="path542" />
    <g
       clip-path="url(#clip-path-63)"
       id="g552">
      <path
         d="m 390.65,66.08 v 2.84 a 1.47,1.47 0 0 1 -0.36,0 1.79,1.79 0 0 1 -0.75,-0.17 V 66 a 1.75,1.75 0 0 0 0.75,0.17 1.47,1.47 0 0 0 0.36,0"
         fill="#006e1c"
         id="path544" />
      <path
         d="m 389.54,66 v 2.84 a 1.64,1.64 0 0 1 -0.79,-0.79 7,7 0 0 0 -1.44,-2 4.13,4.13 0 0 0 -1.22,-0.86 v -2.91 a 4.54,4.54 0 0 1 1.22,0.86 7.57,7.57 0 0 1 1.44,2 1.62,1.62 0 0 0 0.79,0.8"
         fill="#006a1b"
         id="path546" />
      <path
         d="m 386.09,62.28 v 2.84 a 7.65,7.65 0 0 0 -3.3,-0.63 5.08,5.08 0 0 0 -2.06,0.47 5.59,5.59 0 0 0 -1.45,0.93 v -2.84 a 5.91,5.91 0 0 1 1.45,-0.94 5.24,5.24 0 0 1 2.06,-0.46 7.65,7.65 0 0 1 3.3,0.63"
         fill="#006e1c"
         id="path548" />
      <path
         d="m 379.28,63.05 v 2.84 c -0.14,0.13 -0.29,0.27 -0.42,0.41 v -2.84 c 0.13,-0.14 0.28,-0.28 0.42,-0.41"
         fill="#006a1b"
         id="path550" />
    </g>
    <g
       clip-path="url(#clip-path-64)"
       id="g556">
      <path
         d="m 378.86,63.46 v 2.84 a 7.09,7.09 0 0 0 -1.38,2.24 8.61,8.61 0 0 0 -0.54,3.2 V 68.9 a 8.61,8.61 0 0 1 0.54,-3.2 7,7 0 0 1 1.38,-2.24"
         fill="#006a1b"
         id="path554" />
    </g>
    <g
       clip-path="url(#clip-path-65)"
       id="g564">
      <path
         d="m 398.93,75.21 v 2.84 a 1.39,1.39 0 0 1 -0.06,0.4 23.63,23.63 0 0 1 -2,4.72 16.55,16.55 0 0 1 -3,3.6 v -2.84 a 16.55,16.55 0 0 0 3,-3.6 23.63,23.63 0 0 0 2,-4.72 1.39,1.39 0 0 0 0.06,-0.4"
         fill="#006a1b"
         id="path558" />
      <path
         d="m 393.82,83.93 v 2.84 c -0.25,0.22 -0.5,0.43 -0.76,0.63 a 15.4,15.4 0 0 1 -4.77,2.48 17.67,17.67 0 0 1 -5.35,0.82 21.11,21.11 0 0 1 -8.32,-1.49 l -0.74,-0.34 V 86 l 0.74,0.34 a 21.11,21.11 0 0 0 8.32,1.49 17.67,17.67 0 0 0 5.35,-0.82 15.4,15.4 0 0 0 4.77,-2.48 c 0.26,-0.2 0.51,-0.41 0.76,-0.63"
         fill="#006e1c"
         id="path560" />
      <path
         d="m 373.88,86 v 2.84 a 15.65,15.65 0 0 1 -8.36,-9.53 22.45,22.45 0 0 1 -1.08,-7 v -2.85 a 22.45,22.45 0 0 0 1.08,7 15.65,15.65 0 0 0 8.36,9.54"
         fill="#006a1b"
         id="path562" />
    </g>
    <path
       d="m 378.86,63.46 a 7.09,7.09 0 0 0 -1.38,2.24 8.61,8.61 0 0 0 -0.54,3.2 8.49,8.49 0 0 0 1.77,5.61 5.69,5.69 0 0 0 4.59,2.13 4.51,4.51 0 0 0 1.73,-0.39 8.75,8.75 0 0 0 1.85,-1.07 8.46,8.46 0 0 0 1.62,-1.6 4.63,4.63 0 0 0 0.94,-2 l 8.5,2.39 a 1.35,1.35 0 0 1 0.93,1.69 23.63,23.63 0 0 1 -2,4.72 16.2,16.2 0 0 1 -3.79,4.23 15.4,15.4 0 0 1 -4.79,2.39 17.67,17.67 0 0 1 -5.35,0.82 21.11,21.11 0 0 1 -8.32,-1.49 16.36,16.36 0 0 1 -5.74,-4 16,16 0 0 1 -3.36,-5.86 22.45,22.45 0 0 1 -1.09,-7 23.3,23.3 0 0 1 1.2,-7.7 16.16,16.16 0 0 1 3.5,-5.9 15.3,15.3 0 0 1 5.71,-3.76 21.29,21.29 0 0 1 7.74,-1.32 q 7.08,0 11.27,3.63 a 17.38,17.38 0 0 1 5.57,9.51 l -8.77,2.16 a 1.47,1.47 0 0 1 -0.36,0 1.71,1.71 0 0 1 -1.54,-1 7.3,7.3 0 0 0 -1.44,-2 6.14,6.14 0 0 0 -4.52,-1.49 5.24,5.24 0 0 0 -2.06,0.46 5.69,5.69 0 0 0 -1.87,1.35 z"
       fill="#00c832"
       id="path566" />
    <path
       d="m 361,46.65 v 2.84 l -4.17,6.33 V 53 Z"
       fill="#006a1b"
       id="path568" />
    <g
       clip-path="url(#clip-path-66)"
       id="g580">
      <path
         d="m 356.86,53 v 2.84 a 2,2 0 0 1 -0.23,0.27 v -2.86 a 2,2 0 0 0 0.23,-0.27"
         fill="#006a1b"
         id="path570" />
      <path
         d="m 356.63,53.25 v 2.84 a 1.17,1.17 0 0 1 -1.3,0.18 v -2.84 a 1.17,1.17 0 0 0 1.3,-0.18"
         fill="#006e1c"
         id="path572" />
      <path
         d="m 355.33,53.43 v 2.84 a 1.45,1.45 0 0 1 -0.29,-0.19 21.22,21.22 0 0 0 -2.21,-1.63 31.26,31.26 0 0 0 -3.23,-1.81 V 49.8 a 33.09,33.09 0 0 1 3.23,1.8 20.57,20.57 0 0 1 2.17,1.64 1.45,1.45 0 0 0 0.29,0.19"
         fill="#006a1b"
         id="path574" />
      <path
         d="m 349.6,49.8 v 2.84 l -0.18,-0.08 a 19.14,19.14 0 0 0 -3.12,-1.18 10,10 0 0 0 -2.54,-0.39 2.69,2.69 0 0 0 -1.82,0.54 v -2.84 a 2.69,2.69 0 0 1 1.82,-0.54 10,10 0 0 1 2.54,0.39 18.26,18.26 0 0 1 3.12,1.18 l 0.18,0.08"
         fill="#006e1c"
         id="path576" />
      <path
         d="m 341.94,48.69 v 2.84 l -0.1,0.1 a 2.27,2.27 0 0 0 -0.62,1.64 v -2.84 a 2.27,2.27 0 0 1 0.62,-1.64 l 0.1,-0.1"
         fill="#006a1b"
         id="path578" />
    </g>
    <g
       clip-path="url(#clip-path-67)"
       id="g584">
      <path
         d="m 345.72,74.6 v 2.84 a 3.38,3.38 0 0 0 -1.48,-2.57 32.75,32.75 0 0 0 -3.71,-2.53 c -1.47,-0.88 -3.07,-1.82 -4.78,-2.85 a 27.53,27.53 0 0 1 -4.79,-3.6 19.31,19.31 0 0 1 -3.7,-4.74 12.49,12.49 0 0 1 -1.49,-6.15 v -2.86 a 12.49,12.49 0 0 0 1.49,6.17 19.31,19.31 0 0 0 3.7,4.74 27.53,27.53 0 0 0 4.79,3.6 l 4.78,2.85 a 32.75,32.75 0 0 1 3.71,2.5 3.38,3.38 0 0 1 1.48,2.57"
         fill="#006a1b"
         id="path582" />
    </g>
    <g
       clip-path="url(#clip-path-68)"
       id="g592">
      <path
         d="m 361.32,73.1 v 2.84 a 13.06,13.06 0 0 1 -1.63,6.67 14.49,14.49 0 0 1 -2.93,3.6 v -2.84 a 14.49,14.49 0 0 0 2.93,-3.6 13.06,13.06 0 0 0 1.63,-6.67"
         fill="#006a1b"
         id="path586" />
      <path
         d="m 356.76,83.37 v 2.84 a 13,13 0 0 1 -1.32,1 18.79,18.79 0 0 1 -5.91,2.79 25.1,25.1 0 0 1 -6.64,0.89 24.19,24.19 0 0 1 -10.56,-2.09 v -2.89 a 24.34,24.34 0 0 0 10.56,2.09 25.1,25.1 0 0 0 6.64,-0.89 18.79,18.79 0 0 0 5.91,-2.71 14.61,14.61 0 0 0 1.32,-1"
         fill="#006e1c"
         id="path588" />
      <path
         d="m 332.33,85.91 v 2.84 c -0.22,-0.1 -0.43,-0.21 -0.65,-0.33 a 24.81,24.81 0 0 1 -8.16,-7.34 v -2.84 a 24.81,24.81 0 0 0 8.16,7.34 l 0.65,0.33"
         fill="#006a1b"
         id="path590" />
    </g>
    <path
       d="m 356.1,61.27 a 17.84,17.84 0 0 1 3.74,4.95 15,15 0 0 1 1.48,6.88 13.06,13.06 0 0 1 -1.63,6.67 14.19,14.19 0 0 1 -4.25,4.63 18.79,18.79 0 0 1 -5.91,2.71 25.1,25.1 0 0 1 -6.64,0.89 23.65,23.65 0 0 1 -11.21,-2.42 24.81,24.81 0 0 1 -8.16,-7.34 l 5.16,-6.41 a 1.15,1.15 0 0 1 0.92,-0.46 1.2,1.2 0 0 1 0.88,0.4 11.26,11.26 0 0 0 1.6,1.44 20.53,20.53 0 0 0 3.3,2.07 24.79,24.79 0 0 0 3.62,1.46 11.78,11.78 0 0 0 3.45,0.57 4.32,4.32 0 0 0 2.43,-0.57 2.43,2.43 0 0 0 0.83,-2.14 3.38,3.38 0 0 0 -1.47,-2.6 32.75,32.75 0 0 0 -3.71,-2.53 l -4.78,-2.85 a 27.53,27.53 0 0 1 -4.79,-3.6 19.31,19.31 0 0 1 -3.7,-4.74 12.49,12.49 0 0 1 -1.49,-6.17 13.05,13.05 0 0 1 1.31,-6 12.83,12.83 0 0 1 3.52,-4.31 15.69,15.69 0 0 1 5.11,-2.64 21,21 0 0 1 6.17,-0.89 24.82,24.82 0 0 1 10.41,2.1 30.45,30.45 0 0 1 8.71,6.28 L 356.86,53 a 1.22,1.22 0 0 1 -1,0.57 1.3,1.3 0 0 1 -0.81,-0.31 20.57,20.57 0 0 0 -2.21,-1.64 30.72,30.72 0 0 0 -3.41,-1.88 18.26,18.26 0 0 0 -3.12,-1.18 9.89,9.89 0 0 0 -2.54,-0.39 2.54,2.54 0 0 0 -1.92,0.64 2.27,2.27 0 0 0 -0.62,1.64 3.06,3.06 0 0 0 1.49,2.39 27.52,27.52 0 0 0 3.74,2.28 q 2.43,1.27 4.82,2.64 a 26.13,26.13 0 0 1 4.83,3.53 z"
       fill="#00c832"
       id="path594" />
  </g>
</svg>
