<?xml version="1.0" encoding="UTF-8" standalone="no"?>
<svg
   viewBox="0 0 339.0607 114.03111"
   version="1.1"
   id="svg191"
   sodipodi:docname="scv.svg"
   width="339.0607"
   height="114.03111"
   inkscape:version="1.1 (c68e22c387, 2021-05-23)"
   xmlns:inkscape="http://www.inkscape.org/namespaces/inkscape"
   xmlns:sodipodi="http://sodipodi.sourceforge.net/DTD/sodipodi-0.dtd"
   xmlns="http://www.w3.org/2000/svg"
   xmlns:svg="http://www.w3.org/2000/svg">
  <defs
     id="defs195" />
  <sodipodi:namedview
     id="namedview193"
     pagecolor="#ffffff"
     bordercolor="#666666"
     borderopacity="1.0"
     inkscape:pageshadow="2"
     inkscape:pageopacity="0.0"
     inkscape:pagecheckerboard="0"
     showgrid="false"
     fit-margin-top="0"
     fit-margin-left="0"
     fit-margin-right="0"
     fit-margin-bottom="0"
     inkscape:zoom="1.113"
     inkscape:cx="169.36208"
     inkscape:cy="56.603774"
     inkscape:window-width="1920"
     inkscape:window-height="1138"
     inkscape:window-x="-8"
     inkscape:window-y="-8"
     inkscape:window-maximized="1"
     inkscape:current-layer="svg191" />
  <g
     id="g1108"
     transform="translate(-330.49065)">
    <g
       id="Layer_3"
       data-name="Layer 3">
      <rect
         x="361.67999"
         y="81.610001"
         width="28.84"
         height="18.469999"
         fill="#ffffff"
         id="rect2" />
      <rect
         x="599.08002"
         y="76.639999"
         width="28.91"
         height="23.450001"
         fill="#ffffff"
         id="rect4" />
      <rect
         x="441.04999"
         y="29.67"
         width="31.76"
         height="51.02"
         fill="#ffffff"
         id="rect6" />
    </g>
    <g
       id="Calque_1"
       data-name="Calque 1">
      <path
         d="m 433.3,72.13 a 12.51,12.51 0 0 1 -3.75,-0.67 L 428.14,71 a 3.51,3.51 0 0 1 -2.39,-3.87 l 0.22,-1.45 0.9,-5.08 a 19.79,19.79 0 0 1 -8.52,1.94 17.75,17.75 0 0 1 -8.09,-1.89 13.9,13.9 0 0 1 -4.68,-3.89 c -0.44,0.3 -0.9,0.59 -1.37,0.87 a 19.68,19.68 0 0 1 -11,4.57 h -0.53 c -0.83,0 -1.6,0.09 -2.36,0.09 A 15.78,15.78 0 0 1 374.07,50 c -0.34,-1.62 -1.06,-4.94 1.17,-7.64 a 6.52,6.52 0 0 1 2,-1.65 6.49,6.49 0 0 1 0.82,-1.26 c 2.06,-2.6 5.42,-2.72 7.23,-2.78 h 1 a 3.5,3.5 0 0 1 2.8,1.4 l 0.39,0.52 a 5.74,5.74 0 0 1 1.38,2.8 c 0.65,4 1.84,4.13 2.79,4.28 h 0.25 a 5.9,5.9 0 0 0 2.94,-1.06 v 0 c 1.3,-2.52 0.94,-4.08 -1.38,-5.94 a 17.65,17.65 0 0 0 -3.91,-2.07 c -7.69,-3.24 -11.26,-9.39 -9.82,-16.88 a 16.09,16.09 0 0 1 5.67,-9.47 16.62,16.62 0 0 1 13,-6.75 h 0.45 c 7.38,0 12,3.15 13.83,9.36 v 0.12 a 5.53,5.53 0 0 1 0.17,1.71 c 0,0.16 0,0.31 0,0.45 0,0.14 0,0.44 0,0.64 V 17 a 3.48,3.48 0 0 1 -1.51,2.88 l -0.72,0.51 c -0.41,0.27 -0.89,0.59 -1.44,0.88 l -0.18,0.2 a 3.5,3.5 0 0 1 1.64,-0.41 h 7.73 a 3.48,3.48 0 0 1 2.63,1.2 3.52,3.52 0 0 1 0.82,2.5 3.85,3.85 0 0 1 0,0.48 3.23,3.23 0 0 1 0,0.82 l -0.33,2 c -0.28,1.5 -0.56,3 -0.77,4.46 l -1.36,7.86 c -0.06,0.35 -0.13,0.74 -0.21,1.12 -0.08,0.38 -0.13,0.63 -0.18,0.93 a 0.43,0.43 0 0 1 0,0.11 c -0.13,0.65 -0.29,1.49 -0.39,2.25 a 1.65,1.65 0 0 0 0.59,0.66 0.69,0.69 0 0 0 0.46,0.18 1.92,1.92 0 0 0 0.73,-0.24 l 0.23,-0.13 a 4.1,4.1 0 0 0 0.18,-0.71 c 0.39,-2.25 0.8,-4.54 1.21,-6.82 0.29,-1.62 0.58,-3.24 0.86,-4.82 0.13,-0.7 0.24,-1.36 0.35,-2 0.15,-0.83 0.29,-1.65 0.44,-2.47 l 0.17,-0.88 a 3.5,3.5 0 0 1 2.06,-2.57 l 0.71,-0.3 v -0.15 a 3.49,3.49 0 0 1 2.06,-2.57 l 0.78,-0.34 a 10.17,10.17 0 0 1 4,-0.78 13.94,13.94 0 0 1 3.07,0.36 h 0.31 l 1.49,-0.05 c 0,0 0.07,0 0.16,0 h 0.07 a 10,10 0 0 1 2.18,-0.23 8.53,8.53 0 0 1 2.34,0.31 23.76,23.76 0 0 1 11.09,-2.67 4.46,4.46 0 0 1 0.85,0.07 c 5.76,0.17 10.54,2.24 13.82,6 a 17,17 0 0 1 1.27,1.66 24.23,24.23 0 0 1 23.16,-7.25 17.32,17.32 0 0 1 6.1,2.78 3.55,3.55 0 0 1 2.16,-0.74 h 5.59 a 3.52,3.52 0 0 1 1.71,0.45 12.74,12.74 0 0 1 5.12,-1.12 9.55,9.55 0 0 1 2.86,0.4 l 1.13,0.24 a 3.5,3.5 0 0 1 2.75,3.27 l 0.06,1.29 c 0,0.3 0,0.56 0,0.82 v 0.48 a 8.13,8.13 0 0 1 -5,8.17 9.13,9.13 0 0 1 -3.25,2.19 l -0.46,0.21 a 9.07,9.07 0 0 0 -2.2,4.74 l -0.68,3.84 c -0.34,1.9 -0.67,3.79 -1,5.62 l -0.68,3.64 -0.16,1 a 3.5,3.5 0 0 1 -2.51,2.8 l -0.65,0.18 A 3.5,3.5 0 0 1 504,61 l -1,0.28 a 12.11,12.11 0 0 1 -3.46,0.47 16.26,16.26 0 0 1 -1.81,-0.07 3.89,3.89 0 0 1 -0.47,0 H 497 l -1.9,-0.11 a 3.48,3.48 0 0 1 -2.54,-1.34 l -0.06,-0.06 a 24.8,24.8 0 0 1 -10.91,2.58 19,19 0 0 1 -11.22,-3.35 16.68,16.68 0 0 1 -4,-4.17 24,24 0 0 1 -2.08,1.51 24.42,24.42 0 0 1 -16,6.12 21.83,21.83 0 0 1 -4.36,-0.46 c -0.49,4.45 -2.83,6.33 -4.68,7.12 a 7.35,7.35 0 0 1 -5.95,2.61 z m 14.07,-30.64 a 5,5 0 0 0 1.13,3 3.93,3.93 0 0 0 3,1.28 6.06,6.06 0 0 0 1.86,-0.32 11.63,11.63 0 0 0 2.76,-1.36 11.31,11.31 0 0 0 1.14,-2.63 5,5 0 0 0 -0.71,-4.51 4.26,4.26 0 0 0 -3.43,-1.7 h -0.34 a 6.55,6.55 0 0 0 -2.74,0.86 8.92,8.92 0 0 0 -2.63,5 2.25,2.25 0 0 0 -0.04,0.38 z M 406.64,24 c 0.38,0.25 0.76,0.51 1.12,0.78 a 3.54,3.54 0 0 1 1.4,-0.62 v -0.14 a 3.42,3.42 0 0 1 0.92,-1.87 l -0.29,0.2 A 12.5,12.5 0 0 1 406.64,24 Z"
         fill="#a50000"
         id="path9" />
      <path
         d="m 400.83,7 c 5.82,0 9.12,2.18 10.47,6.83 a 2.87,2.87 0 0 1 0.06,0.84 c 0,0.19 0,0.35 0,0.5 0,0.15 0,0.48 0,0.67 V 17 l -0.72,0.51 a 9.44,9.44 0 0 1 -2.07,1.12 v 0.33 l -0.73,0.51 a 6.55,6.55 0 0 1 -3.53,1.4 c -1.62,0 -3,-1 -4,-3 a 2,2 0 0 0 -2,-1.23 4.45,4.45 0 0 0 -1.51,0.32 5.68,5.68 0 0 0 -1.39,3.22 c 0.17,1.2 1.09,2.25 3.07,3.51 a 15,15 0 0 0 2.57,1.29 l 0.45,0.23 a 18.08,18.08 0 0 1 7.75,6.06 c 0.13,-0.75 0.25,-1.5 0.37,-2.26 l 0.22,-1.4 h 2.31 c 0.09,-0.54 0.19,-1.08 0.27,-1.62 l 0.22,-1.4 h 7.73 l -0.07,0.39 h 0.07 l -0.1,0.56 h 0.1 l -0.34,2 c -0.28,1.51 -0.56,3 -0.78,4.53 -0.45,2.58 -0.9,5.21 -1.35,7.78 -0.11,0.68 -0.28,1.4 -0.39,2.08 -0.11,0.68 -0.34,1.73 -0.45,2.57 a 4.23,4.23 0 0 0 -0.05,0.5 4.71,4.71 0 0 0 2,3.31 4.27,4.27 0 0 0 2.58,0.89 5.23,5.23 0 0 0 2.29,-0.61 11.69,11.69 0 0 0 1.44,-0.87 8.52,8.52 0 0 0 0.86,-2.49 c 0.67,-3.86 1.4,-7.84 2.07,-11.64 0.28,-1.52 0.5,-3 0.78,-4.43 l 0.17,-0.89 0.78,-0.34 a 6.05,6.05 0 0 1 1.61,-0.42 c 0.08,-0.46 0.15,-0.92 0.24,-1.37 l 0.17,-0.89 0.78,-0.34 a 6.63,6.63 0 0 1 2.63,-0.5 10.2,10.2 0 0 1 2.3,0.28 l 0.22,0.05 1,0.12 v -0.12 l 1.34,-0.05 a 5.32,5.32 0 0 0 0.9,-0.12 6.66,6.66 0 0 1 1.51,-0.16 4.33,4.33 0 0 1 2.52,0.72 20.5,20.5 0 0 1 10.91,-3.08 c 0.17,0 0.28,0 0.34,0.06 5,0.06 9,1.74 11.7,4.81 a 13.13,13.13 0 0 1 2.85,5.55 21.81,21.81 0 0 1 2.42,-2.47 20.74,20.74 0 0 1 21.05,-7.64 12.67,12.67 0 0 1 7.63,5.09 h 0.9 l 0.27,-1.57 0.23,-1.4 h 5.59 l 0.39,0.23 a 2.42,2.42 0 0 1 0.84,0.89 10.94,10.94 0 0 1 5.6,-1.79 6.23,6.23 0 0 1 2,0.28 l 1.29,0.28 0.05,1.29 c 0,0.22 0,0.44 0,0.67 v 0.48 c 0,1.85 -0.22,3.87 -3.2,5.12 -0.15,0.06 -0.29,0.14 -0.44,0.21 a 5.22,5.22 0 0 1 -2.41,1.8 c -0.42,0.18 -0.81,0.38 -1.2,0.58 a 12.41,12.41 0 0 0 -3.56,7 c -0.56,3.13 -1.12,6.38 -1.68,9.46 -0.22,1.23 -0.45,2.41 -0.67,3.64 l -0.17,1 -1,0.28 a 8.13,8.13 0 0 1 -1.59,0.3 c 0,0.14 -0.06,0.28 -0.08,0.43 l -0.17,1 -1,0.28 a 9,9 0 0 1 -2.52,0.34 13.31,13.31 0 0 1 -1.57,-0.06 c -0.22,0 -0.5,-0.06 -0.78,-0.06 l -1.9,-0.11 0.33,-1.85 0.47,-2.64 c -0.34,0.24 -0.7,0.47 -1.07,0.69 a 20.45,20.45 0 0 1 -13.45,5 15.6,15.6 0 0 1 -9.18,-2.69 13.84,13.84 0 0 1 -5.07,-7.29 21.29,21.29 0 0 1 -5.2,4.67 21.11,21.11 0 0 1 -13.91,5.42 18.84,18.84 0 0 1 -5.59,-0.9 12,12 0 0 1 -1.62,-0.67 c -0.25,1.41 -0.48,2.79 -0.62,4.14 -0.33,3.24 -1.91,4.35 -3.44,4.63 a 3.84,3.84 0 0 1 -3.61,2.15 9.12,9.12 0 0 1 -2.69,-0.51 l -1.4,-0.45 0.22,-1.45 2.28,-13.27 a 15.46,15.46 0 0 1 -2.57,1.86 16,16 0 0 1 -10.85,4.21 14.18,14.18 0 0 1 -6.49,-1.51 9.42,9.42 0 0 1 -5.11,-6.42 18,18 0 0 1 -4.54,3.63 16.35,16.35 0 0 1 -9.27,4 c -1,0.06 -1.85,0.11 -2.63,0.11 a 12.3,12.3 0 0 1 -12.82,-9.57 c -0.34,-1.57 -0.62,-3.36 0.45,-4.65 a 3.72,3.72 0 0 1 2.06,-1.29 3.35,3.35 0 0 1 0.71,-1.67 c 1.06,-1.34 3,-1.45 4.64,-1.51 h 0.84 l 0.51,0.67 a 2.29,2.29 0 0 1 0.61,1.18 c 1,5.71 3.53,6.77 5.71,7.11 a 3.79,3.79 0 0 0 0.78,0.05 9.65,9.65 0 0 0 5.55,-2.12 c 0.18,-0.28 0.35,-0.56 0.5,-0.84 2.07,-4 1.34,-7.39 -2.3,-10.3 a 20.52,20.52 0 0 0 -4.75,-2.58 c -7.84,-3.3 -8.51,-8.9 -7.73,-13 a 12.68,12.68 0 0 1 4.81,-7.7 A 13.08,13.08 0 0 1 400.44,7 h 0.39 m 76.52,34.93 c 3.81,-3.2 7.65,-6.47 11.37,-9.72 a 6.85,6.85 0 0 0 -2.47,-0.47 9.57,9.57 0 0 0 -4.83,1.48 11.94,11.94 0 0 0 -4.12,7.92 7,7 0 0 0 0.05,0.79 m -25.86,7.33 a 9.53,9.53 0 0 0 3,-0.5 14.47,14.47 0 0 0 4.24,-2.23 14.34,14.34 0 0 0 1.92,-4.1 8.5,8.5 0 0 0 -1.29,-7.61 7.76,7.76 0 0 0 -6.21,-3.08 h -0.34 a 10.24,10.24 0 0 0 -4.84,1.52 12.52,12.52 0 0 0 -4,7.38 c 0,0.29 -0.05,0.57 -0.07,0.86 a 8.58,8.58 0 0 0 2,5.24 7.46,7.46 0 0 0 5.66,2.52 m 33.52,0 a 9.59,9.59 0 0 0 3.19,-0.56 13.39,13.39 0 0 0 3.64,-2.07 c 1.4,-1.06 2.41,-1.85 3.81,-1.85 a 4.78,4.78 0 0 1 1.89,0.45 c 0.67,-3.92 1.37,-7.84 2,-11.76 L 495.95,36.61 482,48.5 a 6.37,6.37 0 0 0 3.06,0.76 M 400.83,0 h -0.52 a 20.1,20.1 0 0 0 -15.52,7.82 19.68,19.68 0 0 0 -6.57,11.26 17.39,17.39 0 0 0 3.33,14.51 10.7,10.7 0 0 0 -6.26,3.71 10.88,10.88 0 0 0 -0.68,1 9.69,9.69 0 0 0 -2.11,2 c -3.25,4 -2.24,8.73 -1.85,10.52 v 0.05 a 19.66,19.66 0 0 0 4.53,8.74 l 0.07,0.09 c 3.73,4.13 8.8,6.22 15.05,6.22 0.86,0 1.69,0 2.58,-0.1 h 0.44 0.13 a 22.8,22.8 0 0 0 11.65,-4.34 18.23,18.23 0 0 0 3.51,2.39 21.35,21.35 0 0 0 9.73,2.3 23.18,23.18 0 0 0 4.08,-0.36 l -0.14,0.92 a 7,7 0 0 0 4.79,7.73 l 1.4,0.45 a 15.78,15.78 0 0 0 4.82,0.84 10.92,10.92 0 0 0 7.94,-3.29 10.87,10.87 0 0 0 5.25,-6.12 c 0.57,0 1.13,0.06 1.69,0.06 a 27.79,27.79 0 0 0 17.54,-6.4 20.46,20.46 0 0 0 2.55,2.19 22.51,22.51 0 0 0 13.28,4 28,28 0 0 0 10.42,-2 6.84,6.84 0 0 0 2.89,0.82 l 1.9,0.11 h 0.14 l 0.57,0.05 c 0.77,0.07 1.45,0.07 2.05,0.07 a 16,16 0 0 0 4.41,-0.6 l 1,-0.28 a 6.94,6.94 0 0 0 3.46,-2.21 7,7 0 0 0 4.43,-5.39 l 0.16,-1 c 0.1,-0.59 0.21,-1.17 0.32,-1.75 0.11,-0.58 0.23,-1.22 0.34,-1.84 0.34,-1.86 0.67,-3.78 1,-5.7 0.23,-1.26 0.45,-2.53 0.67,-3.78 a 6.37,6.37 0 0 1 1,-2.5 12.79,12.79 0 0 0 3.6,-2.37 c 3.18,-1.66 6.44,-4.86 6.37,-11 v -0.49 c 0,-0.29 0,-0.59 0,-0.88 v -0.1 l -0.06,-1.28 a 7,7 0 0 0 -5.51,-6.54 l -1,-0.22 a 13.58,13.58 0 0 0 -3.74,-0.5 15.64,15.64 0 0 0 -5.16,0.88 6.65,6.65 0 0 0 -1.67,-0.21 h -5.59 a 7.08,7.08 0 0 0 -1.86,0.25 21.24,21.24 0 0 0 -5.46,-2.16 L 496,15.5 a 28.45,28.45 0 0 0 -6.11,-0.67 27.89,27.89 0 0 0 -17.49,6.26 22.13,22.13 0 0 0 -15.15,-6.09 7.87,7.87 0 0 0 -1.12,-0.08 27.5,27.5 0 0 0 -11.53,2.5 11.8,11.8 0 0 0 -1.9,-0.14 13.46,13.46 0 0 0 -2.83,0.29 h -1.14 a 17.35,17.35 0 0 0 -3.31,-0.33 13.61,13.61 0 0 0 -5.42,1.13 l -0.78,0.33 a 7.07,7.07 0 0 0 -2.83,2.3 7.76,7.76 0 0 0 -0.67,-0.95 7,7 0 0 0 -5.35,-2.49 h -2 a 5.15,5.15 0 0 0 0,-0.56 v -1.09 c 0,-0.19 0,-0.46 0,-0.78 0,-0.13 0,-0.27 0,-0.43 a 9.17,9.17 0 0 0 -0.27,-2.57 c 0,-0.08 0,-0.16 -0.07,-0.25 C 416.74,7.45 412.8,0 400.83,0 Z m 52,38.74 h 0.27 a 0.77,0.77 0 0 1 0.67,0.35 1.58,1.58 0 0 1 0.11,1.38 7.42,7.42 0 0 1 -0.42,1.12 8.38,8.38 0 0 1 -1.25,0.53 2.25,2.25 0 0 1 -0.73,0.14 0.44,0.44 0 0 1 -0.37,-0.12 1.47,1.47 0 0 1 -0.24,-0.66 5.2,5.2 0 0 1 1.27,-2.48 3.46,3.46 0 0 1 0.7,-0.23 z"
         fill="#ffffff"
         id="path11" />
      <path
         d="m 540.21,109.12 c -9.58,-0.13 -11.13,-1.73 -11.06,-11.36 0,-3.16 0,-6.35 0,-9.54 0,-6.31 0,-12.83 0,-19.22 0,-1.88 0,-6.92 5.84,-6.92 0.48,0 1,0 1.76,0.09 6,0.49 7.45,2.1 7.29,8.23 -0.09,5 -0.23,10 -0.36,14.94 1.61,-2.57 3.2,-5.18 4.75,-7.72 q 2,-3.24 4,-6.47 c 4,-6.39 9.52,-9.63 16.47,-9.63 a 26.8,26.8 0 0 1 4.51,0.41 6,6 0 0 1 4.17,2.31 4.71,4.71 0 0 1 0.69,3.55 l -0.06,0.49 c -0.13,1.37 -0.46,4.57 -4,5.87 a 13,13 0 0 1 -4.7,0.75 c -0.52,0 -1,0 -1.54,0 v 0 c -0.37,0 -0.43,0 -0.73,0.49 -2.62,4.08 -5.26,8.12 -7.9,12.16 -3.75,5.75 -7.63,11.69 -11.36,17.57 a 7.85,7.85 0 0 1 -7.19,4 z"
         fill="#a50000"
         id="path13" />
      <path
         d="m 568.87,65 a 22.66,22.66 0 0 1 3.91,0.36 c 1,0.17 2.29,0.45 2,1.79 -0.29,1.34 0,3 -1.85,3.7 a 9.92,9.92 0 0 1 -3.51,0.53 c -0.48,0 -1,0 -1.42,0 h -0.19 a 4,4 0 0 0 -3.67,2.13 c -6.38,9.9 -12.93,19.75 -19.25,29.72 a 4.45,4.45 0 0 1 -4.24,2.41 h -0.24 c -7.84,-0.11 -7.84,-0.05 -7.78,-7.83 0,-9.57 -0.06,-19.2 0,-28.77 0,-2.74 0.34,-3.44 2.34,-3.44 0.41,0 0.9,0 1.46,0.08 4.15,0.34 4.2,0.34 4.09,4.65 -0.11,6 -0.28,12.09 -0.45,18.13 a 35.19,35.19 0 0 0 0.67,7.39 29,29 0 0 0 4.26,-6 c 3.52,-5.54 6.88,-11.19 10.35,-16.79 3.36,-5.38 7.75,-8 13.5,-8 m 0,-7 v 0 c -8.23,0 -14.77,3.79 -19.44,11.27 l -1.93,3.14 c 0,-0.66 0,-1.31 0,-2 0.07,-2.93 0.15,-6 -2.21,-8.61 -2.36,-2.61 -5.39,-2.93 -8.3,-3.17 -0.82,-0.07 -1.46,-0.1 -2,-0.1 -4.35,0 -6.64,2.11 -7.79,3.88 A 11.55,11.55 0 0 0 525.65,69 c 0,6.37 0,12.89 0,19.2 0,3.19 0,6.37 0,9.54 0,5 -0.06,8.65 2.89,11.68 2.95,3.03 6.79,3.11 11.62,3.18 h 0.51 a 11.38,11.38 0 0 0 10.17,-5.7 c 3.7,-5.82 7.57,-11.76 11.32,-17.51 2.35,-3.6 4.78,-7.33 7.17,-11 h 0.11 a 16.8,16.8 0 0 0 5.95,-1 c 3.71,-1.37 5.82,-4.33 6.28,-8.8 a 2.66,2.66 0 0 1 0,-0.28 8.21,8.21 0 0 0 -1.25,-6.07 9.46,9.46 0 0 0 -6.42,-3.75 30,30 0 0 0 -5.13,-0.47 z"
         fill="#ffffff"
         id="path15" />
      <path
         d="m 374.88,110.25 c -9.36,0 -18,-6.22 -20,-14.48 -2,-8.26 3,-18.33 11.66,-22.56 a 23.19,23.19 0 0 1 10,-2.32 c 8.79,0 16.36,5.3 18.85,13.2 a 19.06,19.06 0 0 1 0.17,10.69 c -0.31,1.35 -0.7,2.76 -1.08,4.11 -0.5,1.78 -1,3.46 -1.29,5.11 -1,5.08 -4.81,5.62 -6.38,5.62 v 0 a 8.25,8.25 0 0 1 -1.2,-0.08 5.53,5.53 0 0 0 -0.61,0 c -0.4,0 -0.81,0 -1.21,0 -0.24,0 -0.41,0 -0.58,0 a 5.74,5.74 0 0 1 -3.05,-0.77 8,8 0 0 1 -4.66,1.43 z m 1.29,-25.67 a 7,7 0 0 0 -2.84,0.67 6.23,6.23 0 0 0 -3.52,7.59 c 0.89,2.81 3.79,3.12 5,3.12 a 9.45,9.45 0 0 0 1.87,-0.2 h 0.1 l 0.36,-0.08 a 7.81,7.81 0 0 1 1.78,-0.24 5.54,5.54 0 0 1 1.15,0.12 c 0.36,-1.51 0.74,-3.05 1.17,-4.57 0.64,-2.26 0.21,-3.71 -1.48,-5 a 5.62,5.62 0 0 0 -3.59,-1.41 z"
         fill="#a50000"
         id="path17" />
      <path
         d="m 376.53,74.39 c 7,0 13.39,4 15.51,10.75 a 15.74,15.74 0 0 1 0.12,8.79 c -0.73,3.13 -1.8,6.27 -2.41,9.4 -0.39,1.91 -1.3,2.79 -2.95,2.79 A 5,5 0 0 1 386.05,106.07 9.42,9.42 0 0 0 385,106 c -0.49,0 -1,0 -1.45,0.06 h -0.34 c -1.72,0 -2,-0.84 -1.51,-2.58 1.06,-3.86 1.85,-7.78 2.91,-11.59 1,-3.53 0.17,-6.49 -2.69,-8.73 a 9.07,9.07 0 0 0 -5.74,-2.1 10.48,10.48 0 0 0 -4.28,1 9.74,9.74 0 0 0 -5.43,11.81 c 1.12,3.52 4.34,5.59 8.34,5.59 a 13,13 0 0 0 2.58,-0.27 9.14,9.14 0 0 1 1.53,-0.27 1.73,1.73 0 0 1 1.1,0.38 c -0.39,1.73 -0.73,3.53 -1.18,5.32 -0.45,1.79 -1.84,2.07 -3.47,2.12 h -0.48 c -7.61,0 -14.94,-5.13 -16.59,-11.82 -1.65,-6.69 2.69,-15.11 9.8,-18.58 a 19.51,19.51 0 0 1 8.44,-2 m 0,-7 A 26.71,26.71 0 0 0 365.06,70 C 354.91,75 349,86.66 351.5,96.63 c 2.41,9.76 12.46,17.12 23.38,17.12 h 0.68 a 12.66,12.66 0 0 0 4.82,-1 10,10 0 0 0 2.82,0.38 c 0.23,0 0.47,0 0.72,0 H 384 c 0.38,0 0.74,0 1,0 h 0.15 a 11.77,11.77 0 0 0 1.66,0.11 c 3.91,0 8.54,-2.2 9.81,-8.38 v -0.06 c 0.3,-1.53 0.75,-3.14 1.22,-4.85 0.38,-1.37 0.78,-2.8 1.12,-4.27 A 22.36,22.36 0 0 0 398.71,83 C 395.77,73.68 386.85,67.39 376.53,67.39 Z m -1.74,25.12 c -0.54,0 -1.47,-0.09 -1.66,-0.7 a 2.72,2.72 0 0 1 1.6,-3.31 3.73,3.73 0 0 1 1.43,-0.37 2.12,2.12 0 0 1 1.38,0.58 v 0 a 1.94,1.94 0 0 1 0.42,0.41 v 0 a 2.73,2.73 0 0 1 -0.14,0.89 c -0.2,0.69 -0.38,1.38 -0.56,2.06 -0.39,0.07 -0.71,0.14 -1,0.2 h -0.2 -0.19 a 5.29,5.29 0 0 1 -1.16,0.13 z"
         fill="#ffffff"
         id="path19" />
      <path
         d="m 505.78,109 c -8.78,0 -16.37,-5 -18.88,-12.46 -2.65,-8 0.19,-16.59 7.23,-22 a 22.89,22.89 0 0 1 14,-4.89 19.9,19.9 0 0 1 17.57,10.2 c 0.83,1.48 2.09,3.72 1.32,6.1 -0.77,2.38 -3.12,3.49 -4.68,4.22 l -8.87,4.15 -0.24,0.12 a 2.91,2.91 0 0 1 0.35,0.18 3.53,3.53 0 0 1 1.64,2.32 c 0.76,3.75 0.24,6.76 -1.53,8.93 -1.77,2.17 -4.39,3.13 -7.91,3.13 z"
         fill="#a50000"
         id="path21" />
      <path
         d="m 508.11,73.14 a 16.41,16.41 0 0 1 14.52,8.42 c 1.79,3.19 1.57,3.86 -1.79,5.43 -6,2.79 -11.93,5.59 -17.91,8.39 a 4.59,4.59 0 0 0 -2.13,1.62 7.86,7.86 0 0 0 5.11,1.83 20.28,20.28 0 0 0 5.86,-1.21 c 1.06,5.26 -1,7.89 -6,7.89 -7.28,0 -13.55,-4.08 -15.56,-10.07 -2.18,-6.55 0.17,-13.6 6,-18.14 a 19.54,19.54 0 0 1 11.85,-4.16 m -10.23,17.93 a 162.37,162.37 0 0 0 15.79,-7.44 8.7,8.7 0 0 0 -6.57,-2.94 9.57,9.57 0 0 0 -4.07,0.92 9.06,9.06 0 0 0 -5.15,9.46 m 10.28,-24.93 a 26.4,26.4 0 0 0 -16.1,5.6 c -8.26,6.37 -11.56,16.53 -8.43,25.91 3,8.9 11.91,14.86 22.2,14.86 5.76,0 8.94,-2.41 10.6,-4.43 1.66,-2.02 3.47,-5.82 2.25,-11.85 0,-0.14 -0.06,-0.29 -0.1,-0.43 l 5.27,-2.47 c 1.85,-0.87 5.29,-2.47 6.53,-6.32 1.24,-3.85 -0.61,-7.12 -1.6,-8.88 a 23.36,23.36 0 0 0 -20.62,-12 z"
         fill="#ffffff"
         id="path23" />
      <path
         d="m 439.82,109.5 a 21,21 0 0 1 -15.49,-6.62 17.93,17.93 0 0 1 -4.71,-13.79 c 0.9,-10.29 11,-19 22,-19 a 20.46,20.46 0 0 1 3.32,0.27 19.76,19.76 0 0 1 15.55,11.78 6.38,6.38 0 0 1 0.4,5 6.27,6.27 0 0 1 -3.68,3.3 c -3.11,1.3 -6.24,2.64 -9.35,4 a 1.67,1.67 0 0 1 0.28,0.18 3.5,3.5 0 0 1 1.42,2.81 22.37,22.37 0 0 1 -1.51,7.49 l -0.29,0.87 a 5.29,5.29 0 0 1 -4.6,3.44 22.48,22.48 0 0 1 -3.34,0.27 z"
         fill="#a50000"
         id="path25" />
      <path
         d="m 441.62,73.61 a 17.12,17.12 0 0 1 2.76,0.22 16.25,16.25 0 0 1 12.93,9.8 c 0.84,1.84 0.56,2.8 -1.4,3.58 -6.16,2.57 -12.26,5.26 -18.36,8 -0.78,0.5 -1.85,0.78 -2.41,1.84 a 7.14,7.14 0 0 0 4.79,1.75 22,22 0 0 0 6.13,-1.3 22.35,22.35 0 0 1 -1.63,7.28 c -0.28,0.84 -1.12,1 -1.84,1.06 a 18.55,18.55 0 0 1 -2.77,0.21 c -9.33,0 -17.53,-7.07 -16.71,-16.61 0.76,-8.74 9.42,-15.78 18.51,-15.78 M 431.73,91 c 3.13,-0.62 14.1,-5.37 16.45,-7.16 a 8.42,8.42 0 0 0 -6.8,-3.2 10,10 0 0 0 -3.72,0.73 9.44,9.44 0 0 0 -5.93,9.63 m 9.89,-24.35 c -13,0 -24.42,10 -25.49,22.17 a 21.39,21.39 0 0 0 5.62,16.46 24.51,24.51 0 0 0 18.07,7.72 25.62,25.62 0 0 0 3.81,-0.29 h 0.06 c 4.76,-0.72 6.64,-3.53 7.38,-5.76 v 0 l 0.28,-0.84 a 25.74,25.74 0 0 0 1.69,-8.6 7,7 0 0 0 -0.14,-1.37 c 1.88,-0.81 3.77,-1.61 5.65,-2.39 a 9.07,9.07 0 0 0 5.11,-13 23.36,23.36 0 0 0 -18.16,-13.8 24.33,24.33 0 0 0 -3.9,-0.32 z"
         fill="#ffffff"
         id="path27" />
      <path
         d="m 614.4,109.78 c -3.76,0 -8.64,-0.44 -12.92,-3.89 -8.77,-7 -9.87,-17.32 -2.78,-26.23 a 21.68,21.68 0 0 1 29.92,-4.57 c 4.43,3.15 7.38,7.84 7.55,12 0.19,11.61 -8.95,22.17 -19.56,22.68 -0.77,0 -1.49,0 -2.21,0 z m 1,-24.67 c -3.39,0.07 -6.71,3.42 -6.67,6.76 0,2.69 2.45,4.71 5.62,4.71 3.61,0 7,-3.06 7,-6.29 0,-2.66 -2.87,-5.18 -5.91,-5.18 z"
         fill="#a50000"
         id="path29" />
      <path
         d="M 616,74.54 A 18.74,18.74 0 0 1 626.63,78 c 3.86,2.75 5.93,6.55 6,9.24 0.17,10.3 -8.06,18.64 -16.23,19 -0.69,0 -1.37,0 -2,0 -3.88,0 -7.53,-0.54 -10.72,-3.12 C 596.4,97.3 595.56,89.18 601.44,81.8 A 18.52,18.52 0 0 1 616,74.54 m -1.65,25.54 c 5.54,0 10.52,-4.64 10.52,-9.79 0,-4.62 -4.41,-8.68 -9.41,-8.68 h -0.1 c -5.37,0.11 -10.19,5 -10.13,10.3 0,4.59 4,8.17 9.12,8.17 M 616,67.54 a 25.64,25.64 0 0 0 -20,9.93 c -8.28,10.42 -6.94,22.93 3.34,31.16 5.12,4.12 10.76,4.65 15.1,4.65 0.69,0 1.44,0 2.29,0 h 0.08 a 23.52,23.52 0 0 0 16.13,-8.13 26.33,26.33 0 0 0 6.77,-18 v -0.18 c -0.22,-5.26 -3.67,-10.87 -9,-14.65 h -0.07 A 25.72,25.72 0 0 0 616,67.54 Z m -1.65,25.54 c -1.16,0 -2.11,-0.56 -2.12,-1.25 a 3.78,3.78 0 0 1 3.23,-3.22 2.58,2.58 0 0 1 2.41,1.68 c 0,1 -1.64,2.79 -3.52,2.79 z"
         fill="#ffffff"
         id="path31" />
      <path
         d="m 634.38,109.22 a 7.15,7.15 0 0 1 -4.2,-1.22 c -1.71,-1.14 -2.28,-3 -1.64,-5.6 l 0.05,-0.19 c 1.45,-6.54 3.32,-13 5.12,-19.31 q 0.88,-3.08 1.75,-6.15 A 6.13,6.13 0 0 1 641.72,72 h 0.3 c 1.38,0 2.78,0 4.18,0 h 4.25 c 1.44,0 2.88,0 4.33,0 4.19,0 7.26,1.23 9.16,3.53 1.9,2.3 2.44,5.35 1.73,9.22 a 188.76,188.76 0 0 1 -5.13,20.13 5.9,5.9 0 0 1 -6.11,4.32 v 0 c -0.32,0 -0.66,0 -1,0 h -0.15 c -3.21,-0.21 -5.33,-0.35 -6.73,-2.34 -1.4,-1.99 -0.78,-4.12 0.06,-7.06 l 0.06,-0.2 c 0.84,-3 1.65,-6 2.43,-9 q 0.52,-2.06 1.08,-4.11 c 0,-0.19 0.12,-0.51 0.2,-0.87 h -0.81 c -0.48,0 -1,0 -1.42,0 -0.11,0.41 -0.23,0.91 -0.34,1.39 l -0.09,0.33 c -1.25,5 -2.71,9.9 -4.12,14.67 l -0.84,2.85 c -1,3.56 -3.25,4.31 -5,4.31 a 5.49,5.49 0 0 1 -0.68,0 h -0.28 c -0.31,0 -0.63,0 -1,0.06 -0.41,-0.05 -0.92,-0.01 -1.42,-0.01 z"
         fill="#a50000"
         id="path33" />
      <path
         d="m 641.72,75.51 h 0.19 c 1.43,0 2.86,0 4.29,0 2.86,0 5.71,0 8.58,0 6,0.06 8.51,2.8 7.45,8.62 a 191.37,191.37 0 0 1 -5,19.76 2.47,2.47 0 0 1 -2.76,1.82 h -0.77 c -5.09,-0.34 -5,-0.28 -3.64,-5.15 1.23,-4.36 2.35,-8.79 3.53,-13.21 1.16,-4.74 1,-5.27 -3.18,-5.27 h -0.85 c -4.25,0.06 -4.14,0.06 -5.21,4.42 -1.45,5.77 -3.19,11.48 -4.87,17.19 -0.26,0.89 -0.47,2 -1.64,2 a 1.18,1.18 0 0 1 -0.26,0 c -0.23,0 -0.46,0 -0.7,0 -0.81,0 -1.65,0.14 -2.46,0.14 a 3.7,3.7 0 0 1 -2.21,-0.6 c -0.67,-0.45 -0.34,-1.4 -0.17,-2.13 1.9,-8.56 4.48,-16.9 6.83,-25.3 a 2.66,2.66 0 0 1 2.89,-2.18 m 0,-7 v 0 a 9.6,9.6 0 0 0 -9.6,7.2 v 0.1 c -0.58,2 -1.16,4.09 -1.75,6.14 -1.81,6.31 -3.68,12.83 -5.16,19.48 v 0.13 c -1.37,5.55 1.63,8.35 3.07,9.34 a 10.68,10.68 0 0 0 6.17,1.82 c 0.69,0 1.3,0 1.8,-0.09 h 0.62 c 0.35,0 0.68,0 1,0 a 8.13,8.13 0 0 0 6.46,-3.07 c 2.35,2.66 5.61,2.88 8.78,3.08 h 0.16 c 0.45,0 0.84,0 1.23,0 a 9.41,9.41 0 0 0 9.44,-6.73 v -0.08 a 196.79,196.79 0 0 0 5.22,-20.5 c 0.9,-5 0.07,-9 -2.48,-12.09 -2.55,-3.09 -6.55,-4.75 -11.78,-4.8 h -0.07 c -1.46,0 -2.91,0 -4.36,0 h -4.22 c -1.54,0 -2.88,0 -4.11,0 z"
         fill="#ffffff"
         id="path35" />
      <path
         d="m 354.77,110.5 c -1.54,0 -3.31,-0.54 -6.06,-1.43 A 21.14,21.14 0 0 1 334.08,87.78 c -0.53,-13.69 10.34,-23 21.41,-25.22 a 52.15,52.15 0 0 1 10.13,-0.9 6.07,6.07 0 0 1 5,1.91 6,6 0 0 1 0.87,5.12 l -0.05,0.26 c -1.32,6.09 -2.86,7.32 -9.13,7.32 -4.27,0 -7.25,0.91 -9.66,3 -3.36,2.86 -4.41,6.3 -3.29,10.82 0.72,2.84 2.73,4.3 7.2,5.19 a 6.06,6.06 0 0 1 4.25,2.48 5.77,5.77 0 0 1 0.33,4.71 c -0.18,0.63 -0.33,1.22 -0.46,1.74 -0.69,2.67 -1.63,6.32 -5.87,6.32 z"
         fill="#a50000"
         id="path37" />
      <path
         d="m 365.62,65.16 c 2,0 2.91,0.44 2.41,2.79 -1,4.65 -0.95,4.82 -5.76,4.82 -4.43,0 -8.51,0.89 -11.93,3.8 -4.47,3.81 -5.82,8.68 -4.42,14.33 1.29,5.1 5.43,6.89 9.91,7.78 2,0.4 2.46,0.84 1.9,2.8 -1.09,3.93 -1.12,5.52 -3,5.52 a 20.5,20.5 0 0 1 -5,-1.26 17.55,17.55 0 0 1 -12.2,-17.91 c -0.56,-12.1 9.18,-20 18.58,-21.83 a 48.45,48.45 0 0 1 9.46,-0.84 m 0,-7 a 55,55 0 0 0 -10.8,1 c -12.49,2.45 -24.75,13.05 -24.25,28.62 a 24.63,24.63 0 0 0 17,24.63 c 3.12,1 5.11,1.62 7.19,1.62 a 8.58,8.58 0 0 0 7.62,-4.38 17.57,17.57 0 0 0 1.63,-4.57 c 0.12,-0.49 0.27,-1 0.44,-1.67 a 9.21,9.21 0 0 0 -0.72,-7.48 9.41,9.41 0 0 0 -6.59,-4.09 c -4,-0.8 -4.25,-1.81 -4.45,-2.62 -0.79,-3.18 -0.16,-5.3 2.17,-7.28 1.74,-1.48 4,-2.14 7.39,-2.14 3,0 6,0 8.71,-2.22 2.71,-2.22 3.2,-4.92 3.84,-7.86 l 0.05,-0.25 a 9.19,9.19 0 0 0 -1.57,-8.07 c -2.59,-3.21 -6.42,-3.21 -7.68,-3.21 z"
         fill="#ffffff"
         id="path39" />
      <path
         d="m 463.57,108.68 a 6.69,6.69 0 0 1 -1.25,-0.12 11,11 0 0 1 -8.72,-8.1 13.27,13.27 0 0 1 0,-6.74 c 2.16,-9.07 4.43,-18.29 6.62,-27.21 v -0.17 c 1.16,-4.66 4.62,-5.16 6,-5.16 0.28,0 0.57,0 0.88,0 a 14.8,14.8 0 0 0 1.63,0.07 h 1.3 1.54 a 3.5,3.5 0 0 1 3.43,2.43 11.3,11.3 0 0 1 -0.35,7.23 4.82,4.82 0 0 1 4.16,5 10.29,10.29 0 0 1 -2.46,7.35 5.37,5.37 0 0 1 -3.83,1.74 v 0 c -0.21,0 -0.43,0 -0.64,0 a 5.43,5.43 0 0 0 -0.63,0 h -0.16 a 6.19,6.19 0 0 0 -0.3,1.32 71.73,71.73 0 0 1 -1.65,7.35 c -0.15,0.57 -0.49,1.91 -0.52,2 a 3.5,3.5 0 0 1 2.9,5.17 c -0.23,0.42 -0.4,0.77 -0.54,1.06 a 8,8 0 0 1 -1.19,1.92 6.88,6.88 0 0 0 -0.45,0.79 c -0.72,1.26 -2.21,4.07 -5.77,4.07 z M 474,73.19 Z"
         fill="#a50000"
         id="path41" />
      <path
         d="m 466.34,64.68 a 3.87,3.87 0 0 1 0.48,0 19.57,19.57 0 0 0 2,0.09 c 0.91,0 1.85,0 2.84,0 0.84,2.58 -0.39,4.82 -0.95,7.06 -0.5,1.9 -0.22,2.57 1.74,2.57 0.39,0 0.82,0 1.23,0 0.85,0 1.58,0.23 1.62,1.67 0.05,2.86 -1.13,5.45 -2.81,5.45 h -0.21 a 8.18,8.18 0 0 0 -1.06,-0.07 c -2.64,0 -3.52,1.59 -3.92,4.33 -0.45,2.91 -1.29,5.82 -2,8.67 -0.59,2.39 -1.19,4.71 2.72,4.71 h 0.42 a 18.75,18.75 0 0 1 -1.29,2.35 c -1.13,1.28 -1.46,3.75 -3.59,3.75 a 3.4,3.4 0 0 1 -0.61,-0.06 7.49,7.49 0 0 1 -6,-5.6 10,10 0 0 1 0.06,-5 c 2.18,-9.12 4.42,-18.25 6.66,-27.37 0.36,-1.43 1,-2.49 2.65,-2.49 m 0,-7 v 0 c -3.62,0 -8,2 -9.44,7.79 v 0.07 c -2.2,9 -4.48,18.24 -6.66,27.37 a 16.9,16.9 0 0 0 0,8.48 14.44,14.44 0 0 0 11.34,10.55 h 0.11 a 10.35,10.35 0 0 0 1.9,0.18 c 5.67,0 8.07,-4.53 8.86,-6 a 3.9,3.9 0 0 1 0.19,-0.35 12.49,12.49 0 0 0 1.5,-2.46 c 0.12,-0.25 0.27,-0.56 0.47,-0.92 a 7,7 0 0 0 -0.19,-7 7.2,7.2 0 0 0 -1.64,-1.83 c 0.44,-1.69 0.87,-3.43 1.21,-5.23 a 9,9 0 0 0 4.9,-2.6 13.72,13.72 0 0 0 3.46,-9.85 v 0 a 8.51,8.51 0 0 0 -3.55,-7 13.1,13.1 0 0 0 -0.43,-6.26 7,7 0 0 0 -6.66,-4.83 h -1.61 -1.23 c -0.54,0 -1,0 -1.28,0 a 9.65,9.65 0 0 0 -1.22,-0.07 z m 8,28.42 z"
         fill="#ffffff"
         id="path43" />
      <path
         d="m 479.37,108.46 c -3.25,0 -6.28,-2 -8.31,-5.58 a 11.48,11.48 0 0 1 -1.24,-8.33 c 1.71,-8.62 4.05,-17.17 6.31,-25.44 l 0.92,-3.36 a 5.71,5.71 0 0 1 5.73,-4.55 h 0.45 c 0.54,0 1.07,0 1.61,0 h 3.76 a 3.5,3.5 0 0 1 3.5,3.5 20,20 0 0 1 -0.94,5.54 c -0.1,0.32 -0.18,0.64 -0.26,0.94 a 6,6 0 0 1 3.75,2.82 c 1.35,2.46 0.36,5.19 -0.78,7.54 a 5.82,5.82 0 0 1 -5.66,3.34 v 0 h -0.72 c -0.45,2.31 -1,4.59 -1.6,6.79 -0.3,1.18 -0.6,2.37 -0.89,3.55 0,0.18 -0.07,0.34 -0.1,0.47 h 0.1 a 3.5,3.5 0 0 1 2.78,5 c -0.21,0.43 -0.39,0.86 -0.57,1.3 -1,2.28 -2.41,5.72 -6.43,6.41 a 8.71,8.71 0 0 1 -1.41,0.06 z"
         fill="#a50000"
         id="path45" />
      <path
         d="m 482.78,64.7 h 0.28 c 0.59,0 1.18,0 1.78,0 h 3.76 c 0,3.41 -1.74,6.1 -1.51,9 0.22,0.17 0.39,0.39 0.5,0.39 4.48,0.51 5.15,1.74 3.13,5.88 a 2.42,2.42 0 0 1 -2.51,1.37 c -0.28,0 -0.56,0 -0.84,0 h -0.43 c -1.58,0 -2.46,0.62 -2.82,2.53 -0.67,3.53 -1.68,7 -2.52,10.52 -0.56,2.3 -0.56,4.37 3,4.76 -1.18,2.46 -1.79,5.32 -4.43,5.77 a 5,5 0 0 1 -0.77,0.06 c -2.22,0 -4.06,-1.7 -5.27,-3.81 a 8.18,8.18 0 0 1 -0.84,-5.94 c 1.9,-9.62 4.59,-19.08 7.16,-28.54 a 2.29,2.29 0 0 1 2.36,-2 m 0,-7 v 0 a 9.28,9.28 0 0 0 -9.12,7.15 l -0.91,3.34 c -2.28,8.33 -4.63,16.94 -6.36,25.67 a 15.17,15.17 0 0 0 1.67,10.83 c 2.67,4.63 6.79,7.27 11.31,7.27 a 10.85,10.85 0 0 0 2,-0.17 c 5.89,-1 8,-6.06 9,-8.49 0.18,-0.43 0.35,-0.83 0.5,-1.15 A 7,7 0 0 0 489,93.7 l 0.3,-1.2 c 0.37,-1.41 0.73,-2.86 1.08,-4.34 A 9.27,9.27 0 0 0 497,83 c 0.92,-1.89 3.09,-6.36 0.69,-10.73 a 8.71,8.71 0 0 0 -2.7,-3 20.13,20.13 0 0 0 0.58,-4.61 7,7 0 0 0 -7,-7 h -3.76 c -0.49,0 -1,0 -1.46,0 z m 5.54,38.72 z"
         fill="#ffffff"
         id="path47" />
      <path
         d="m 405.52,109.43 a 15.53,15.53 0 0 1 -1.8,-0.11 3.48,3.48 0 0 1 -3.05,-3.95 c 0.06,-0.47 0.11,-0.94 0.16,-1.4 0.3,-2.86 0.72,-6.78 4.78,-9.49 0.48,-0.32 0.77,-1.75 1,-3 0.12,-0.58 0.24,-1.16 0.38,-1.71 l 0.27,-1.16 c 1,-4.24 2.12,-9.06 6.08,-12.83 3.1,-2.93 6.31,-4.45 9.83,-4.65 h 0.52 a 5.14,5.14 0 0 1 4.33,2 5.26,5.26 0 0 1 0.67,4.87 c -0.11,0.38 -0.21,0.77 -0.31,1.16 -0.58,2.35 -1.38,5.53 -4.68,7.54 -0.09,0.26 -0.18,0.65 -0.24,0.91 l -0.05,0.19 c -0.3,1.22 -0.58,2.38 -0.86,3.54 -0.46,1.89 -0.93,3.84 -1.46,5.77 -2.09,7.3 -8.5,12.38 -15.59,12.38 z"
         fill="#a50000"
         id="path49" />
      <path
         d="m 423.71,74.6 c 1.46,0 2.11,0.75 1.64,2.37 -0.73,2.52 -1,5.31 -3.7,6.83 -1.06,0.55 -1.34,2 -1.62,3.13 -0.78,3.08 -1.46,6.16 -2.3,9.18 -1.65,5.79 -6.61,9.82 -12.21,9.82 a 13.1,13.1 0 0 1 -1.39,-0.08 c 0.45,-3.25 0.23,-6.33 3.42,-8.45 2.12,-1.46 2.24,-4.37 2.85,-6.78 1.07,-4.42 1.85,-9 5.38,-12.31 a 11.83,11.83 0 0 1 7.61,-3.69 h 0.32 m 0,-7 h -0.75 c -4.37,0.25 -8.29,2.08 -12,5.6 -4.73,4.5 -6,10.09 -7.08,14.57 l -0.27,1.14 c -0.17,0.65 -0.3,1.28 -0.41,1.84 -0.08,0.4 -0.19,0.94 -0.29,1.33 -4.72,3.58 -5.24,8.49 -5.56,11.49 -0.05,0.42 -0.09,0.86 -0.15,1.29 a 7,7 0 0 0 6.11,7.91 18.2,18.2 0 0 0 2.21,0.13 c 8.65,0 16.44,-6.13 19,-14.9 v 0 c 0.55,-2 1,-4 1.49,-5.89 0.27,-1.11 0.53,-2.22 0.82,-3.33 3.49,-2.76 4.46,-6.61 5,-8.81 0.09,-0.35 0.17,-0.7 0.27,-1 A 8.74,8.74 0 0 0 430.84,71 8.58,8.58 0 0 0 423.71,67.63 Z"
         fill="#ffffff"
         id="path51" />
      <path
         d="m 392.92,109.64 a 5.09,5.09 0 0 1 -4,-1.77 A 4.58,4.58 0 0 1 388,104 c 0.09,-0.45 0.15,-0.89 0.21,-1.33 0.33,-2.21 0.82,-5.56 4.09,-7.81 0.69,-0.48 1,-1.55 1.33,-3.26 0.13,-0.58 0.26,-1.16 0.41,-1.72 0.15,-0.56 0.35,-1.43 0.52,-2.16 A 28.59,28.59 0 0 1 397.34,79.56 16.64,16.64 0 0 1 409,71 a 8.52,8.52 0 0 1 1.63,-0.17 4.89,4.89 0 0 1 4,1.78 5.32,5.32 0 0 1 0.83,4.72 c -0.07,0.33 -0.13,0.7 -0.2,1.07 -0.43,2.32 -1.07,5.79 -4.55,7.94 -0.07,0.21 -0.16,0.52 -0.22,0.75 v 0.15 c -0.41,1.6 -0.81,3.2 -1.22,4.8 -0.41,1.6 -0.81,3.24 -1.23,4.87 -1.78,7.09 -8.21,12.66 -14.66,12.7 z"
         fill="#a50000"
         id="path53" />
      <path
         d="m 410.67,74.35 c 1.21,0 1.78,0.63 1.41,2.22 -0.56,2.58 -0.61,5.38 -3.41,7 -1,0.55 -1.29,1.79 -1.57,2.85 -0.84,3.25 -1.62,6.44 -2.46,9.68 -1.39,5.57 -6.49,10.08 -11.33,10.08 h -0.39 c -0.9,0 -1.69,-0.46 -1.49,-1.47 0.5,-2.46 0.33,-5.2 2.85,-6.94 2.35,-1.62 2.46,-4.48 3.14,-6.94 0.84,-3.24 1.28,-6.55 3,-9.51 a 13.2,13.2 0 0 1 9.35,-6.83 4.78,4.78 0 0 1 0.94,-0.1 m 0,-7 a 12.18,12.18 0 0 0 -2.19,0.21 h -0.12 a 20.29,20.29 0 0 0 -14.08,10.27 32.3,32.3 0 0 0 -3.14,9.07 c -0.15,0.7 -0.31,1.39 -0.49,2.08 -0.18,0.69 -0.32,1.29 -0.44,1.84 -0.12,0.55 -0.23,1.07 -0.35,1.45 -4.12,3.1 -4.76,7.47 -5.11,9.86 -0.06,0.42 -0.12,0.82 -0.18,1.12 a 8.2,8.2 0 0 0 1.64,6.82 8.6,8.6 0 0 0 6.71,3 h 0.58 c 8.06,-0.1 15.73,-6.66 17.92,-15.35 0.42,-1.63 0.83,-3.24 1.24,-4.86 0.37,-1.47 0.74,-2.94 1.12,-4.43 3.75,-3 4.52,-7.09 5,-9.44 0.06,-0.32 0.12,-0.64 0.19,-1 a 8.7,8.7 0 0 0 -1.52,-7.64 8.34,8.34 0 0 0 -6.73,-3.1 z"
         fill="#ffffff"
         id="path55" />
      <path
         d="m 569.21,109.66 a 4.62,4.62 0 0 1 -3.8,-1.7 c -1.54,-1.91 -1,-4.42 -0.75,-5.49 l 0.07,-0.3 c 0.52,-2.35 1.23,-5.54 4.64,-7.65 a 10.13,10.13 0 0 0 0.38,-1.37 q 0.12,-0.57 0.27,-1.11 c 0.23,-0.83 0.44,-1.69 0.65,-2.55 0.86,-3.51 1.75,-7.14 3.9,-10.58 a 15.6,15.6 0 0 1 11,-7.52 2.73,2.73 0 0 1 0.5,0 h 0.37 c 1.05,0 3.85,0 5.38,2.21 1,1.43 1.09,3.24 0.29,5.37 a 24,24 0 0 1 -4.56,7.69 c -1.23,1.31 -1.63,3.38 -2.1,5.77 -0.21,1.1 -0.43,2.25 -0.75,3.39 -2.12,7.47 -6.35,11.9 -12.94,13.53 a 10.4,10.4 0 0 1 -2.51,0.36 z"
         fill="#a50000"
         id="path57" />
      <path
         d="m 586.4,74.84 c 2.5,0 3.2,0.7 2.39,2.85 a 20,20 0 0 1 -3.86,6.55 c -2.63,2.8 -2.63,7 -3.64,10.58 -1.57,5.54 -4.54,9.63 -10.41,11.08 a 7.19,7.19 0 0 1 -1.67,0.26 c -1.33,0 -1.59,-0.84 -1.13,-2.94 0.46,-2.1 0.89,-4.42 3.3,-5.82 1.4,-0.84 1.57,-2.8 2,-4.43 1.12,-4.14 1.79,-8.45 4.14,-12.2 a 12.13,12.13 0 0 1 8.56,-5.93 h 0.3 m 0,-7 H 586 a 8.42,8.42 0 0 0 -1,0.09 19.1,19.1 0 0 0 -13.38,9.19 c -2.43,3.89 -3.42,7.95 -4.3,11.54 q -0.3,1.25 -0.63,2.49 c -0.1,0.37 -0.2,0.78 -0.3,1.2 v 0 c -3.65,2.87 -4.52,6.8 -5,9 l -0.06,0.28 c -0.29,1.33 -1.16,5.26 1.43,8.48 a 8.15,8.15 0 0 0 6.53,3 13.44,13.44 0 0 0 3.33,-0.46 c 7.83,-1.93 13,-7.31 15.48,-16 0.37,-1.3 0.61,-2.57 0.83,-3.69 0.3,-1.54 0.67,-3.46 1.18,-4 l 0.06,-0.07 a 27.06,27.06 0 0 0 5.21,-8.7 c 0,0 0,-0.08 0,-0.12 1.53,-4.08 0.47,-6.92 -0.68,-8.59 -1.71,-2.47 -4.49,-3.72 -8.26,-3.72 z"
         fill="#ffffff"
         id="path59" />
      <path
         d="m 588.72,109.37 h -0.91 c -0.41,0 -0.79,-0.07 -1.18,-0.12 -0.39,-0.05 -0.7,-0.08 -1.06,-0.1 a 5.2,5.2 0 0 1 -4.11,-2 5.52,5.52 0 0 1 -0.52,-4.74 c 2.35,-9.18 4.41,-17.54 6.29,-25.5 A 6,6 0 0 1 592,72.22 h 0.18 a 6.4,6.4 0 0 1 2,-0.28 h 0.69 1.13 c 1.52,0 4.06,0 5.61,2 1.55,2 0.9,4.65 0.22,7.12 -2.05,7.45 -4.14,15.09 -6,22.69 a 6.84,6.84 0 0 1 -7.1,5.65 z"
         fill="#a50000"
         id="path61" />
      <path
         d="m 596,75.38 c 3.44,0 3.57,0.65 2.45,4.72 -2.07,7.56 -4.14,15.11 -6,22.78 -0.56,2.27 -1.79,3 -3.71,3 -0.21,0 -0.43,0 -0.66,0 -0.73,-0.06 -1.45,-0.17 -2.24,-0.23 -1.62,-0.11 -2,-0.72 -1.51,-2.35 2.18,-8.5 4.31,-17.07 6.33,-25.63 0.33,-1.57 1.45,-1.79 2.57,-2.13 a 3.17,3.17 0 0 1 1,-0.12 h 0.69 1.13 m 0,-7 h -1.18 -0.64 a 10.19,10.19 0 0 0 -3.05,0.43 h -0.13 c -4,1.17 -6.4,3.6 -7.21,7.23 -1.84,7.92 -3.94,16.22 -6.3,25.4 a 8.74,8.74 0 0 0 1.07,7.63 8.57,8.57 0 0 0 6.73,3.5 c 0.3,0 0.6,0.06 0.89,0.09 l 1.29,0.13 c 0.43,0 0.83,0 1.2,0 a 10.33,10.33 0 0 0 10.51,-8.33 c 1.87,-7.56 4,-15.2 6,-22.59 0.78,-2.82 1.84,-6.68 -0.81,-10.16 -2.65,-3.48 -6.65,-3.41 -8.39,-3.41 z"
         fill="#ffffff"
         id="path63" />
      <path
         d="m 560.83,109.27 a 10.63,10.63 0 0 1 -4.1,-0.74 c -1.51,-0.65 -3.75,-2.38 -2.36,-6.94 l 0.09,-0.32 c 1.61,-5.69 3,-11.54 4.36,-17.19 0.38,-1.6 0.77,-3.2 1.16,-4.8 0.65,-2.72 1.86,-7.8 8,-7.8 a 25.25,25.25 0 0 1 4.81,0.6 3.49,3.49 0 0 1 2.83,3.43 29.74,29.74 0 0 1 -1.52,8.49 c -0.35,1.21 -0.68,2.35 -0.92,3.47 -0.82,3.76 -1.83,7.48 -2.81,11.07 q -0.69,2.53 -1.37,5.1 c 0,0.15 -0.06,0.3 -0.09,0.45 -0.22,1.09 -0.86,4.4 -4.33,4.87 h -0.11 a 25.1,25.1 0 0 1 -3.64,0.33 z"
         fill="#a50000"
         id="path65" />
      <path
         d="m 568,75 a 22.5,22.5 0 0 1 4.14,0.53 v 0 c 0,3.86 -1.62,7.5 -2.4,11.2 -1.18,5.37 -2.75,10.63 -4.14,16 -0.28,1.07 -0.28,2.58 -1.52,2.75 a 23.37,23.37 0 0 1 -3.27,0.31 7.25,7.25 0 0 1 -2.77,-0.48 c -1.18,-0.51 -0.5,-2.07 -0.22,-3.08 2.07,-7.33 3.75,-14.72 5.54,-22.11 C 564.25,76.38 565.15,75 568,75 m 0,-7 c -8.94,0 -10.77,7.62 -11.45,10.49 -0.39,1.59 -0.77,3.19 -1.15,4.8 -1.35,5.62 -2.74,11.43 -4.32,17 0,0.1 -0.05,0.18 -0.08,0.26 -2.4,7.84 3.15,10.67 4.28,11.15 h 0.09 a 14.09,14.09 0 0 0 5.44,1 27.88,27.88 0 0 0 4.14,-0.37 h 0.12 c 2.18,-0.3 6.09,-1.7 7.25,-7.67 0,-0.09 0,-0.18 0,-0.26 0.44,-1.67 0.9,-3.36 1.35,-5 1,-3.64 2,-7.4 2.86,-11.23 0.22,-1 0.53,-2.12 0.86,-3.26 a 33,33 0 0 0 1.7,-9.43 7,7 0 0 0 -5.66,-6.87 A 28.68,28.68 0 0 0 568,68 Z"
         fill="#ffffff"
         id="path67" />
      <path
         d="m 596.58,75 a 10.09,10.09 0 0 1 -4.93,-1.17 3.5,3.5 0 0 1 -1.82,-3.35 c 0.4,-5 3.84,-8.53 8.37,-8.53 a 9.67,9.67 0 0 1 3.67,0.75 4.89,4.89 0 0 1 3,5.62 c 0,0.2 -0.05,0.37 -0.07,0.53 -0.18,1.37 -0.66,5 -4.55,5.78 h -0.12 a 23.1,23.1 0 0 1 -3.52,0.34 z"
         fill="#a50000"
         id="path69" />
      <path
         d="m 598.2,65.45 a 6.22,6.22 0 0 1 2.34,0.49 c 1,0.39 1,1.12 0.84,1.85 -0.22,1.34 -0.17,3.08 -1.84,3.41 a 18.45,18.45 0 0 1 -3,0.3 6.64,6.64 0 0 1 -3.26,-0.75 c 0.26,-3.31 2.26,-5.3 4.88,-5.3 m 0,-7 c -6.33,0 -11.32,4.94 -11.86,11.75 a 7,7 0 0 0 3.7,6.71 13.7,13.7 0 0 0 6.6,1.59 25.24,25.24 0 0 0 4.08,-0.39 h 0.25 c 2.9,-0.58 6.52,-2.57 7.33,-8.77 0,-0.12 0,-0.24 0,-0.36 v -0.09 a 8.3,8.3 0 0 0 -5.09,-9.38 13.16,13.16 0 0 0 -5,-1 z"
         fill="#ffffff"
         id="path71" />
    </g>
    <g
       id="Calque_1_copy"
       data-name="Calque 1 copy">
      <path
         d="m 436.09,65.1 a 9.22,9.22 0 0 1 -2.46,-0.45 l -0.67,-0.22 0.11,-0.73 c 2.18,-12.31 4.31,-24.74 6.55,-37.28 l 0.11,-0.67 0.67,-0.05 a 6.42,6.42 0 0 0 1,-0.12 12.23,12.23 0 0 1 1.4,-0.11 3.24,3.24 0 0 1 2.46,1 20,20 0 0 1 11,-3.3 h 0.34 c 4.76,0.11 8.56,1.68 11.08,4.53 2.52,2.85 3.47,6.83 2.91,11.42 -1.12,9.18 -9.9,16.63 -19.53,16.63 a 16.79,16.79 0 0 1 -5.32,-0.84 16.27,16.27 0 0 1 -4.59,-2.58 c -0.11,0.67 -0.28,1.35 -0.39,2 -0.45,2.35 -0.9,4.59 -1.12,6.83 -0.34,2.68 -1.51,4 -3.53,4 z m 19.48,-36.83 c -4.31,0 -11.47,4.65 -12.48,11.7 a 9.65,9.65 0 0 0 2.07,7.67 8.08,8.08 0 0 0 6.27,2.8 9.17,9.17 0 0 0 3.19,-0.56 14.29,14.29 0 0 0 9.52,-9.88 9.37,9.37 0 0 0 -1.46,-8.34 8.48,8.48 0 0 0 -6.88,-3.41 z"
         fill="#a50000"
         id="path74" />
      <path
         d="m 456.13,24 h 0.34 c 9.07,0.16 14.33,6 13.21,15.05 -1.12,9.05 -9.85,15.84 -18.75,15.84 a 17.72,17.72 0 0 1 -5.1,-0.78 17.51,17.51 0 0 1 -5.43,-3.3 c -0.61,3.69 -1.4,6.94 -1.73,10.24 -0.23,2.18 -1,3.19 -2.63,3.19 a 7.23,7.23 0 0 1 -2.19,-0.45 c 2.19,-12.31 4.31,-24.74 6.55,-37.28 0.79,-0.05 1.57,-0.22 2.35,-0.22 a 2.65,2.65 0 0 1 2.36,1.23 18.9,18.9 0 0 1 11,-3.52 m -4.64,27.25 a 9.63,9.63 0 0 0 3.47,-0.61 14.93,14.93 0 0 0 10,-10.41 c 1.9,-6.55 -2.63,-12.88 -9.13,-12.88 h -0.33 c -4.71,0 -12.26,4.93 -13.27,12.43 -0.84,6.44 3.47,11.47 9.24,11.47 m 4.64,-28.93 a 20.42,20.42 0 0 0 -10.91,3.08 4.27,4.27 0 0 0 -2.52,-0.73 6.13,6.13 0 0 0 -1.51,0.17 6.46,6.46 0 0 1 -0.9,0.11 L 439,25 l -0.23,1.29 c -2.18,12.54 -4.36,24.91 -6.54,37.28 L 432,65 l 1.4,0.45 A 9.12,9.12 0 0 0 436,66 c 1.73,0 3.92,-0.84 4.31,-4.71 0.22,-2.18 0.67,-4.42 1.12,-6.77 a 3.58,3.58 0 0 0 0.11,-0.73 14.14,14.14 0 0 0 3.75,2 18.86,18.86 0 0 0 5.6,0.9 c 10.07,0 19.25,-7.78 20.37,-17.35 0.62,-4.87 -0.5,-9.07 -3.13,-12.09 -2.63,-3.02 -6.72,-4.76 -11.7,-4.82 -0.06,-0.05 -0.17,-0.05 -0.34,-0.05 z m -4.6,27.28 a 7.46,7.46 0 0 1 -5.66,-2.52 8.92,8.92 0 0 1 -1.9,-7 c 0.9,-6.6 7.61,-11 11.64,-11 h 0.34 a 7.76,7.76 0 0 1 6.21,3.08 8.53,8.53 0 0 1 1.29,7.61 13.24,13.24 0 0 1 -9,9.29 9.26,9.26 0 0 1 -3,0.51 z"
         fill="#a50000"
         id="path76" />
      <path
         d="m 484.34,55.7 a 14.86,14.86 0 0 1 -8.67,-2.52 c -5.32,-3.86 -6.94,-11.64 -3.87,-18.47 a 20.07,20.07 0 0 1 18.08,-11.65 19.3,19.3 0 0 1 4.43,0.51 11.44,11.44 0 0 1 7.55,5.43 l 0.39,0.61 L 480,48.53 a 7.16,7.16 0 0 0 5,2 11.65,11.65 0 0 0 3.47,-0.61 13.81,13.81 0 0 0 3.92,-2.19 c 1.35,-1 2.24,-1.68 3.31,-1.68 0.89,0 1.79,0.45 3.41,1.29 l 0.84,0.45 -0.5,0.78 c -2.92,4.26 -9,7.17 -15.12,7.17 z m 4.76,-27.37 a 11.84,11.84 0 0 0 -7.05,2.79 c -4.48,3.42 -6.5,8.46 -5.21,12.77 4.76,-4 9.52,-8.12 14.28,-12.15 l 2.4,-2.07 a 8.12,8.12 0 0 0 -4.42,-1.34 z"
         fill="#a50000"
         id="path78" />
      <path
         d="m 489.88,23.85 a 18.26,18.26 0 0 1 4.2,0.5 10.71,10.71 0 0 1 7.05,5 c -7.5,6.38 -14.88,12.71 -22.33,19 a 8.06,8.06 0 0 0 6.2,2.92 11.71,11.71 0 0 0 3.75,-0.67 14.92,14.92 0 0 0 4.15,-2.29 c 1.34,-1 2,-1.51 2.8,-1.51 a 7.56,7.56 0 0 1 3,1.17 c -2.91,4.37 -8.85,6.89 -14.39,6.89 a 13.79,13.79 0 0 1 -8.17,-2.35 c -5,-3.64 -6.55,-10.92 -3.58,-17.47 A 19.09,19.09 0 0 1 489.85,23.85 M 476.34,45 a 5.54,5.54 0 0 0 1,-0.45 c 5.88,-5 11.7,-10 17.63,-15 a 9.57,9.57 0 0 0 -5.82,-2.13 12.62,12.62 0 0 0 -7.56,3 c -5.09,3.86 -7.22,9.74 -5.2,14.61 M 489.93,22.19 A 20.94,20.94 0 0 0 471,34.31 c -3.25,7.23 -1.51,15.45 4.14,19.54 a 15.67,15.67 0 0 0 9.18,2.69 c 6.44,0 12.76,-3.08 15.79,-7.62 l 1,-1.56 -1.67,-0.84 a 8.44,8.44 0 0 0 -3.81,-1.4 c -1.4,0 -2.41,0.78 -3.81,1.84 a 13.44,13.44 0 0 1 -3.62,2.04 9.59,9.59 0 0 1 -3.19,0.56 6.46,6.46 0 0 1 -3.69,-1.12 l 14.61,-12.43 6.27,-5.37 1.12,-0.95 -0.73,-1.24 a 12.67,12.67 0 0 0 -8.12,-5.82 21.65,21.65 0 0 0 -4.59,-0.46 z m -12.58,20.13 c -0.51,-3.7 1.4,-7.73 5.15,-10.58 a 11,11 0 0 1 6.5,-2.63 6.92,6.92 0 0 1 3,0.67 l -1.34,1.12 c -4.31,3.75 -8.85,7.61 -13.32,11.42 z m -84.3,13 c -2.8,0 -6.32,-0.39 -9.18,-3.64 a 11.25,11.25 0 0 1 -2.8,-5.26 c -0.33,-1.68 -0.45,-3 0.28,-3.92 0.73,-0.92 2.07,-1.17 4,-1.17 h 0.44 l 0.28,0.33 0.06,0.06 a 1.72,1.72 0 0 1 0.39,0.73 c 0.79,4.75 2.8,7.27 6.38,7.78 a 5.43,5.43 0 0 0 0.9,0 c 3.52,0 7.72,-2.8 9.57,-6.38 2.29,-4.42 1.45,-8.23 -2.52,-11.36 a 22.31,22.31 0 0 0 -4.92,-2.69 c -5.77,-2.35 -8.23,-6.43 -7.17,-11.92 A 12.11,12.11 0 0 1 400.5,8.23 h 0.33 c 5.43,0 8.4,1.9 9.57,6.16 a 3.69,3.69 0 0 1 0.06,0.78 v 0.73 l -0.39,0.22 A 6.11,6.11 0 0 1 407,17.36 c -1.29,0 -2.35,-0.84 -3.19,-2.58 a 3,3 0 0 0 -2.8,-1.73 5.08,5.08 0 0 0 -2.24,0.55 6.94,6.94 0 0 0 -4.37,5.71 c -0.28,2.3 1.24,3.75 3.47,5.21 a 20.43,20.43 0 0 0 2.69,1.34 l 0.45,0.23 c 7.22,3.24 10.41,8.5 9.23,15.11 -1.28,7.44 -7.61,13.43 -14.72,14 a 19.83,19.83 0 0 1 -2.47,0.16 z"
         fill="#a50000"
         id="path80" />
      <path
         d="m 400.83,9.07 c 5,0 7.73,1.68 8.79,5.54 a 4.68,4.68 0 0 1 0,0.84 5.26,5.26 0 0 1 -2.62,1.12 c -0.89,0 -1.68,-0.56 -2.46,-2.13 a 3.75,3.75 0 0 0 -3.53,-2.18 6.48,6.48 0 0 0 -2.57,0.62 7.78,7.78 0 0 0 -4.81,6.38 c -0.34,2.91 1.68,4.59 3.86,6 a 22.27,22.27 0 0 0 3.24,1.62 c 6.83,3.08 9.86,8 8.79,14.22 -1.23,7 -7.22,12.76 -13.93,13.26 -0.84,0.06 -1.68,0.12 -2.52,0.12 -3.19,0 -6.16,-0.62 -8.57,-3.36 A 10.37,10.37 0 0 1 382,46.24 c -0.73,-3.31 -0.06,-4 3.47,-4.09 0.11,0.17 0.28,0.28 0.28,0.45 0.84,5.15 3.13,7.89 7.11,8.51 a 6.7,6.7 0 0 0 1,0 c 3.81,0 8.29,-2.91 10.36,-6.83 2.46,-4.75 1.51,-9 -2.74,-12.37 a 21.91,21.91 0 0 0 -5.15,-2.79 c -5.49,-2.3 -7.73,-5.94 -6.72,-11 A 11.37,11.37 0 0 1 400.5,9.07 h 0.33 m 0,-1.68 h -0.39 A 13,13 0 0 0 387.9,17.8 c -0.78,4.09 -0.11,9.69 7.73,13 a 20.48,20.48 0 0 1 4.75,2.57 c 3.64,2.91 4.37,6.27 2.3,10.3 -1.74,3.3 -5.6,5.94 -8.85,5.94 a 3.17,3.17 0 0 1 -0.78,-0.06 c -2.18,-0.34 -4.76,-1.4 -5.71,-7.11 a 2.25,2.25 0 0 0 -0.61,-1.17 l -0.51,-0.68 h -0.84 c -1.68,0.06 -3.58,0.17 -4.64,1.52 -1.06,1.35 -0.79,3.07 -0.45,4.64 a 12.3,12.3 0 0 0 12.82,9.57 c 0.78,0 1.62,-0.05 2.63,-0.11 7.44,-0.56 14.1,-6.88 15.5,-14.66 1.23,-6.95 -2.24,-12.65 -9.74,-16 l -0.45,-0.23 A 15.79,15.79 0 0 1 398.48,24 c -2.46,-1.57 -3.3,-2.8 -3.08,-4.43 a 6.23,6.23 0 0 1 3.86,-5.09 5,5 0 0 1 1.85,-0.45 2,2 0 0 1 2,1.23 c 1,2 2.35,3 4,3 a 6.55,6.55 0 0 0 3.53,-1.4 l 0.72,-0.51 v -1.07 a 3.65,3.65 0 0 0 -0.05,-1.06 C 410,9.52 406.65,7.39 400.83,7.39 Z"
         fill="#a50000"
         id="path82" />
      <path
         d="m 421.21,55.53 a 13.15,13.15 0 0 1 -6.11,-1.46 8.46,8.46 0 0 1 -4.81,-8.9 c 0.56,-4.42 1.29,-8.9 2.07,-13.26 0.34,-1.85 0.62,-3.7 0.95,-5.54 l 0.11,-0.73 h 6.05 l -1,5.54 c -0.45,2.58 -0.9,5.15 -1.29,7.72 -0.11,0.68 -0.22,1.35 -0.39,2.08 -0.17,0.73 -0.34,1.73 -0.45,2.63 a 5.33,5.33 0 0 0 2.3,5.54 5,5 0 0 0 3.07,1.06 5.93,5.93 0 0 0 2.64,-0.67 9.32,9.32 0 0 0 5.54,-6.94 c 0.67,-3.86 1.34,-7.73 2.07,-11.64 l 0.89,-4.82 0.4,-0.17 a 5,5 0 0 1 2.29,-0.44 16.16,16.16 0 0 1 2.24,0.22 l 1.12,0.17 -0.17,0.89 c -0.5,2.36 -0.84,4.76 -1.17,7.06 a 72.27,72.27 0 0 1 -2.69,12.76 c -2,5.26 -7.56,8.9 -13.71,8.9 z"
         fill="#a50000"
         id="path84" />
      <path
         d="m 435.42,26.37 a 18.7,18.7 0 0 1 2.35,0.22 c -1.34,6.66 -1.68,13.43 -3.86,19.76 -1.79,5.15 -7.33,8.34 -12.76,8.34 A 12.9,12.9 0 0 1 415.38,53.35 7.6,7.6 0 0 1 411,45.29 c 0.78,-6.27 2,-12.49 3,-18.76 h 4.31 c -0.72,4.2 -1.39,8.23 -2.07,12.32 -0.28,1.57 -0.61,3.08 -0.84,4.64 a 6.3,6.3 0 0 0 2.6,6.39 6,6 0 0 0 3.59,1.23 6.7,6.7 0 0 0 3,-0.79 c 3.13,-1.56 5.37,-3.91 6,-7.55 0.89,-5.32 1.9,-10.64 2.85,-16 a 4.9,4.9 0 0 1 2,-0.39 m 0,-1.68 a 6.81,6.81 0 0 0 -2.63,0.5 l -0.78,0.34 -0.17,0.89 c -0.28,1.46 -0.5,2.91 -0.78,4.42 -0.68,3.81 -1.4,7.78 -2.07,11.65 -0.51,2.85 -2.13,4.87 -5.1,6.38 a 5.23,5.23 0 0 1 -2.29,0.61 4.27,4.27 0 0 1 -2.58,-0.89 4.63,4.63 0 0 1 -2,-4.76 c 0.11,-0.84 0.28,-1.73 0.45,-2.57 0.11,-0.68 0.28,-1.4 0.39,-2.08 0.45,-2.57 0.9,-5.2 1.35,-7.78 0.22,-1.51 0.5,-3 0.78,-4.53 l 0.34,-2 h -7.73 l -0.22,1.4 c -0.28,1.85 -0.62,3.69 -0.95,5.54 -0.73,4.37 -1.52,8.85 -2.08,13.27 a 9.35,9.35 0 0 0 5.27,9.79 14.15,14.15 0 0 0 6.49,1.51 c 6.49,0 12.43,-3.91 14.33,-9.51 A 69.11,69.11 0 0 0 438.22,34 c 0.34,-2.3 0.67,-4.7 1.18,-7 l 0.33,-1.73 -1.79,-0.27 -0.22,-0.05 a 10.2,10.2 0 0 0 -2.3,-0.28 z m 66.87,30.1 c -0.5,0 -1,0 -1.51,0 -0.28,0 -0.56,-0.06 -0.84,-0.06 l -0.95,-0.06 2.07,-11.58 c 1,-5.54 2,-11.09 2.91,-16.63 l 0.11,-0.67 h 4.7 l 0.23,0.11 a 1.57,1.57 0 0 1 0.78,1.46 c 1.85,-1.12 3.69,-2.24 6.1,-2.24 a 6.49,6.49 0 0 1 1.74,0.22 l 0.61,0.17 v 0.67 c 0.06,1.85 -0.11,3.42 -2.63,4.48 a 12.93,12.93 0 0 0 -8.11,10.24 c -0.62,3.14 -1.18,6.38 -1.68,9.46 -0.23,1.23 -0.73,4.15 -0.73,4.15 l -0.51,0.16 c -0.72,0.06 -1.45,0.17 -2.29,0.17 z"
         fill="#a50000"
         id="path86" />
      <path
         d="m 515.91,25.86 a 8,8 0 0 1 1.57,0.17 c 0,1.68 -0.06,2.8 -2.13,3.7 a 14,14 0 0 0 -8.67,10.85 c -0.84,4.37 -1.57,8.74 -2.35,13.1 a 6.16,6.16 0 0 1 -2,0.28 c -0.73,0 -1.46,-0.05 -2.29,-0.11 1.62,-9.24 3.19,-18.25 4.81,-27.32 h 3.75 c 0.78,0.45 -0.11,1.46 0.73,2 2,-1.17 4,-2.63 6.6,-2.63 m 0,-1.68 a 10.94,10.94 0 0 0 -5.6,1.79 2.42,2.42 0 0 0 -0.84,-0.89 L 509.1,24.9 h -5.59 l -0.23,1.39 c -0.95,5.55 -2,11.09 -2.91,16.63 l -1.9,10.69 -0.34,1.85 1.91,0.11 c 0.27,0 0.55,0 0.78,0 a 13.22,13.22 0 0 0 1.57,0.06 8.56,8.56 0 0 0 2.51,-0.34 l 1,-0.28 0.17,-1 c 0.22,-1.23 0.45,-2.41 0.67,-3.64 0.56,-3.08 1.12,-6.33 1.68,-9.46 A 12.06,12.06 0 0 1 516,31.35 c 3.08,-1.29 3.25,-3.42 3.19,-5.32 l -0.05,-1.29 -1.29,-0.28 a 6.23,6.23 0 0 0 -2,-0.28 z M 436.09,65.1 a 9.22,9.22 0 0 1 -2.46,-0.45 l -0.67,-0.22 0.11,-0.73 c 2.18,-12.31 4.31,-24.74 6.55,-37.28 l 0.11,-0.67 0.67,-0.05 a 6.42,6.42 0 0 0 1,-0.12 12.23,12.23 0 0 1 1.4,-0.11 3.24,3.24 0 0 1 2.46,1 20,20 0 0 1 11,-3.3 h 0.34 c 4.76,0.11 8.56,1.68 11.08,4.53 2.52,2.85 3.47,6.83 2.91,11.42 -1.12,9.18 -9.9,16.63 -19.53,16.63 a 16.79,16.79 0 0 1 -5.32,-0.84 16.27,16.27 0 0 1 -4.59,-2.58 c -0.11,0.67 -0.28,1.35 -0.39,2 -0.45,2.35 -0.9,4.59 -1.12,6.83 -0.34,2.68 -1.51,4 -3.53,4 z m 19.48,-36.83 c -4.31,0 -11.47,4.65 -12.48,11.7 a 9.65,9.65 0 0 0 2.07,7.67 8.08,8.08 0 0 0 6.27,2.8 9.17,9.17 0 0 0 3.19,-0.56 14.29,14.29 0 0 0 9.52,-9.88 9.37,9.37 0 0 0 -1.46,-8.34 8.48,8.48 0 0 0 -6.88,-3.41 z"
         fill="#a50000"
         id="path88" />
      <path
         d="m 456.13,24 h 0.34 c 9.07,0.16 14.33,6 13.21,15.05 -1.12,9.05 -9.85,15.84 -18.75,15.84 a 17.72,17.72 0 0 1 -5.1,-0.78 17.51,17.51 0 0 1 -5.43,-3.3 c -0.61,3.69 -1.4,6.94 -1.73,10.24 -0.23,2.18 -1,3.19 -2.63,3.19 a 7.23,7.23 0 0 1 -2.19,-0.45 c 2.19,-12.31 4.31,-24.74 6.55,-37.28 0.79,-0.05 1.57,-0.22 2.35,-0.22 a 2.65,2.65 0 0 1 2.36,1.23 18.9,18.9 0 0 1 11,-3.52 m -4.64,27.25 a 9.63,9.63 0 0 0 3.47,-0.61 14.93,14.93 0 0 0 10,-10.41 c 1.9,-6.55 -2.63,-12.88 -9.13,-12.88 h -0.33 c -4.71,0 -12.26,4.93 -13.27,12.43 -0.84,6.44 3.47,11.47 9.24,11.47 m 4.64,-28.93 a 20.42,20.42 0 0 0 -10.91,3.08 4.27,4.27 0 0 0 -2.52,-0.73 6.13,6.13 0 0 0 -1.51,0.17 6.46,6.46 0 0 1 -0.9,0.11 L 439,25 l -0.23,1.29 c -2.18,12.54 -4.36,24.91 -6.54,37.28 L 432,65 l 1.4,0.45 A 9.12,9.12 0 0 0 436,66 c 1.73,0 3.92,-0.84 4.31,-4.71 0.22,-2.18 0.67,-4.42 1.12,-6.77 a 3.58,3.58 0 0 0 0.11,-0.73 14.14,14.14 0 0 0 3.75,2 18.86,18.86 0 0 0 5.6,0.9 c 10.07,0 19.25,-7.78 20.37,-17.35 0.62,-4.87 -0.5,-9.07 -3.13,-12.09 -2.63,-3.02 -6.72,-4.76 -11.7,-4.82 -0.06,-0.05 -0.17,-0.05 -0.34,-0.05 z m -4.6,27.28 a 7.46,7.46 0 0 1 -5.66,-2.52 8.92,8.92 0 0 1 -1.9,-7 c 0.9,-6.6 7.61,-11 11.64,-11 h 0.34 a 7.76,7.76 0 0 1 6.21,3.08 8.53,8.53 0 0 1 1.29,7.61 13.24,13.24 0 0 1 -9,9.29 9.26,9.26 0 0 1 -3,0.51 z"
         fill="#a50000"
         id="path90" />
      <path
         d="m 484.34,55.7 a 14.86,14.86 0 0 1 -8.67,-2.52 c -5.32,-3.86 -6.94,-11.64 -3.87,-18.47 a 20.07,20.07 0 0 1 18.08,-11.65 19.3,19.3 0 0 1 4.43,0.51 11.44,11.44 0 0 1 7.55,5.43 l 0.39,0.61 L 480,48.53 a 7.16,7.16 0 0 0 5,2 11.65,11.65 0 0 0 3.47,-0.61 13.81,13.81 0 0 0 3.92,-2.19 c 1.35,-1 2.24,-1.68 3.31,-1.68 0.89,0 1.79,0.45 3.41,1.29 l 0.84,0.45 -0.5,0.78 c -2.92,4.26 -9,7.17 -15.12,7.17 z m 4.76,-27.37 a 11.84,11.84 0 0 0 -7.05,2.79 c -4.48,3.42 -6.5,8.46 -5.21,12.77 4.76,-4 9.52,-8.12 14.28,-12.15 l 2.4,-2.07 a 8.12,8.12 0 0 0 -4.42,-1.34 z"
         fill="#a50000"
         id="path92" />
      <path
         d="m 489.88,23.85 a 18.26,18.26 0 0 1 4.2,0.5 10.71,10.71 0 0 1 7.05,5 c -7.5,6.38 -14.88,12.71 -22.33,19 a 8.06,8.06 0 0 0 6.2,2.92 11.71,11.71 0 0 0 3.75,-0.67 14.92,14.92 0 0 0 4.15,-2.29 c 1.34,-1 2,-1.51 2.8,-1.51 a 7.56,7.56 0 0 1 3,1.17 c -2.91,4.37 -8.85,6.89 -14.39,6.89 a 13.79,13.79 0 0 1 -8.17,-2.35 c -5,-3.64 -6.55,-10.92 -3.58,-17.47 A 19.09,19.09 0 0 1 489.85,23.85 M 476.34,45 a 5.54,5.54 0 0 0 1,-0.45 c 5.88,-5 11.7,-10 17.63,-15 a 9.57,9.57 0 0 0 -5.82,-2.13 12.62,12.62 0 0 0 -7.56,3 c -5.09,3.86 -7.22,9.74 -5.2,14.61 M 489.93,22.19 A 20.94,20.94 0 0 0 471,34.31 c -3.25,7.23 -1.51,15.45 4.14,19.54 a 15.67,15.67 0 0 0 9.18,2.69 c 6.44,0 12.76,-3.08 15.79,-7.62 l 1,-1.56 -1.67,-0.84 a 8.44,8.44 0 0 0 -3.81,-1.4 c -1.4,0 -2.41,0.78 -3.81,1.84 a 13.44,13.44 0 0 1 -3.62,2.04 9.59,9.59 0 0 1 -3.19,0.56 6.46,6.46 0 0 1 -3.69,-1.12 l 14.61,-12.43 6.27,-5.37 1.12,-0.95 -0.73,-1.24 a 12.67,12.67 0 0 0 -8.12,-5.82 21.65,21.65 0 0 0 -4.59,-0.46 z m -12.58,20.13 c -0.51,-3.7 1.4,-7.73 5.15,-10.58 a 11,11 0 0 1 6.5,-2.63 6.92,6.92 0 0 1 3,0.67 l -1.34,1.12 c -4.31,3.75 -8.85,7.61 -13.32,11.42 z m -84.3,13 c -2.8,0 -6.32,-0.39 -9.18,-3.64 a 11.25,11.25 0 0 1 -2.8,-5.26 c -0.33,-1.68 -0.45,-3 0.28,-3.92 0.73,-0.92 2.07,-1.17 4,-1.17 h 0.44 l 0.28,0.33 0.06,0.06 a 1.72,1.72 0 0 1 0.39,0.73 c 0.79,4.75 2.8,7.27 6.38,7.78 a 5.43,5.43 0 0 0 0.9,0 c 3.52,0 7.72,-2.8 9.57,-6.38 2.29,-4.42 1.45,-8.23 -2.52,-11.36 a 22.31,22.31 0 0 0 -4.92,-2.69 c -5.77,-2.35 -8.23,-6.43 -7.17,-11.92 A 12.11,12.11 0 0 1 400.5,8.23 h 0.33 c 5.43,0 8.4,1.9 9.57,6.16 a 3.69,3.69 0 0 1 0.06,0.78 v 0.73 l -0.39,0.22 A 6.11,6.11 0 0 1 407,17.36 c -1.29,0 -2.35,-0.84 -3.19,-2.58 a 3,3 0 0 0 -2.8,-1.73 5.08,5.08 0 0 0 -2.24,0.55 6.94,6.94 0 0 0 -4.37,5.71 c -0.28,2.3 1.24,3.75 3.47,5.21 a 20.43,20.43 0 0 0 2.69,1.34 l 0.45,0.23 c 7.22,3.24 10.41,8.5 9.23,15.11 -1.28,7.44 -7.61,13.43 -14.72,14 a 19.83,19.83 0 0 1 -2.47,0.16 z"
         fill="#a50000"
         id="path94" />
      <path
         d="m 400.83,9.07 c 5,0 7.73,1.68 8.79,5.54 a 4.68,4.68 0 0 1 0,0.84 5.26,5.26 0 0 1 -2.62,1.12 c -0.89,0 -1.68,-0.56 -2.46,-2.13 a 3.75,3.75 0 0 0 -3.53,-2.18 6.48,6.48 0 0 0 -2.57,0.62 7.78,7.78 0 0 0 -4.81,6.38 c -0.34,2.91 1.68,4.59 3.86,6 a 22.27,22.27 0 0 0 3.24,1.62 c 6.83,3.08 9.86,8 8.79,14.22 -1.23,7 -7.22,12.76 -13.93,13.26 -0.84,0.06 -1.68,0.12 -2.52,0.12 -3.19,0 -6.16,-0.62 -8.57,-3.36 A 10.37,10.37 0 0 1 382,46.24 c -0.73,-3.31 -0.06,-4 3.47,-4.09 0.11,0.17 0.28,0.28 0.28,0.45 0.84,5.15 3.13,7.89 7.11,8.51 a 6.7,6.7 0 0 0 1,0 c 3.81,0 8.29,-2.91 10.36,-6.83 2.46,-4.75 1.51,-9 -2.74,-12.37 a 21.91,21.91 0 0 0 -5.15,-2.79 c -5.49,-2.3 -7.73,-5.94 -6.72,-11 A 11.37,11.37 0 0 1 400.5,9.07 h 0.33 m 0,-1.68 h -0.39 A 13,13 0 0 0 387.9,17.8 c -0.78,4.09 -0.11,9.69 7.73,13 a 20.48,20.48 0 0 1 4.75,2.57 c 3.64,2.91 4.37,6.27 2.3,10.3 -1.74,3.3 -5.6,5.94 -8.85,5.94 a 3.17,3.17 0 0 1 -0.78,-0.06 c -2.18,-0.34 -4.76,-1.4 -5.71,-7.11 a 2.25,2.25 0 0 0 -0.61,-1.17 l -0.51,-0.68 h -0.84 c -1.68,0.06 -3.58,0.17 -4.64,1.52 -1.06,1.35 -0.79,3.07 -0.45,4.64 a 12.3,12.3 0 0 0 12.82,9.57 c 0.78,0 1.62,-0.05 2.63,-0.11 7.44,-0.56 14.1,-6.88 15.5,-14.66 1.23,-6.95 -2.24,-12.65 -9.74,-16 l -0.45,-0.23 A 15.79,15.79 0 0 1 398.48,24 c -2.46,-1.57 -3.3,-2.8 -3.08,-4.43 a 6.23,6.23 0 0 1 3.86,-5.09 5,5 0 0 1 1.85,-0.45 2,2 0 0 1 2,1.23 c 1,2 2.35,3 4,3 a 6.55,6.55 0 0 0 3.53,-1.4 l 0.72,-0.51 v -1.07 a 3.65,3.65 0 0 0 -0.05,-1.06 C 410,9.52 406.65,7.39 400.83,7.39 Z"
         fill="#a50000"
         id="path96" />
      <path
         d="m 421.21,55.53 a 13.15,13.15 0 0 1 -6.11,-1.46 8.46,8.46 0 0 1 -4.81,-8.9 c 0.56,-4.42 1.29,-8.9 2.07,-13.26 0.34,-1.85 0.62,-3.7 0.95,-5.54 l 0.11,-0.73 h 6.05 l -1,5.54 c -0.45,2.58 -0.9,5.15 -1.29,7.72 -0.11,0.68 -0.22,1.35 -0.39,2.08 -0.17,0.73 -0.34,1.73 -0.45,2.63 a 5.33,5.33 0 0 0 2.3,5.54 5,5 0 0 0 3.07,1.06 5.93,5.93 0 0 0 2.64,-0.67 9.32,9.32 0 0 0 5.54,-6.94 c 0.67,-3.86 1.34,-7.73 2.07,-11.64 l 0.89,-4.82 0.4,-0.17 a 5,5 0 0 1 2.29,-0.44 16.16,16.16 0 0 1 2.24,0.22 l 1.12,0.17 -0.17,0.89 c -0.5,2.36 -0.84,4.76 -1.17,7.06 a 72.27,72.27 0 0 1 -2.69,12.76 c -2,5.26 -7.56,8.9 -13.71,8.9 z"
         fill="#a50000"
         id="path98" />
      <path
         d="m 435.42,26.37 a 18.7,18.7 0 0 1 2.35,0.22 c -1.34,6.66 -1.68,13.43 -3.86,19.76 -1.79,5.15 -7.33,8.34 -12.76,8.34 A 12.9,12.9 0 0 1 415.38,53.35 7.6,7.6 0 0 1 411,45.29 c 0.78,-6.27 2,-12.49 3,-18.76 h 4.31 c -0.72,4.2 -1.39,8.23 -2.07,12.32 -0.28,1.57 -0.61,3.08 -0.84,4.64 a 6.3,6.3 0 0 0 2.6,6.39 6,6 0 0 0 3.59,1.23 6.7,6.7 0 0 0 3,-0.79 c 3.13,-1.56 5.37,-3.91 6,-7.55 0.89,-5.32 1.9,-10.64 2.85,-16 a 4.9,4.9 0 0 1 2,-0.39 m 0,-1.68 a 6.81,6.81 0 0 0 -2.63,0.5 l -0.78,0.34 -0.17,0.89 c -0.28,1.46 -0.5,2.91 -0.78,4.42 -0.68,3.81 -1.4,7.78 -2.07,11.65 -0.51,2.85 -2.13,4.87 -5.1,6.38 a 5.23,5.23 0 0 1 -2.29,0.61 4.27,4.27 0 0 1 -2.58,-0.89 4.63,4.63 0 0 1 -2,-4.76 c 0.11,-0.84 0.28,-1.73 0.45,-2.57 0.11,-0.68 0.28,-1.4 0.39,-2.08 0.45,-2.57 0.9,-5.2 1.35,-7.78 0.22,-1.51 0.5,-3 0.78,-4.53 l 0.34,-2 h -7.73 l -0.22,1.4 c -0.28,1.85 -0.62,3.69 -0.95,5.54 -0.73,4.37 -1.52,8.85 -2.08,13.27 a 9.35,9.35 0 0 0 5.27,9.79 14.15,14.15 0 0 0 6.49,1.51 c 6.49,0 12.43,-3.91 14.33,-9.51 A 69.11,69.11 0 0 0 438.22,34 c 0.34,-2.3 0.67,-4.7 1.18,-7 l 0.33,-1.73 -1.79,-0.27 -0.22,-0.05 a 10.2,10.2 0 0 0 -2.3,-0.28 z m 66.87,30.1 c -0.5,0 -1,0 -1.51,0 -0.28,0 -0.56,-0.06 -0.84,-0.06 l -0.95,-0.06 2.07,-11.58 c 1,-5.54 2,-11.09 2.91,-16.63 l 0.11,-0.67 h 4.7 l 0.23,0.11 a 1.57,1.57 0 0 1 0.78,1.46 c 1.85,-1.12 3.69,-2.24 6.1,-2.24 a 6.49,6.49 0 0 1 1.74,0.22 l 0.61,0.17 v 0.67 c 0.06,1.85 -0.11,3.42 -2.63,4.48 a 12.93,12.93 0 0 0 -8.11,10.24 c -0.62,3.14 -1.18,6.38 -1.68,9.46 -0.23,1.23 -0.73,4.15 -0.73,4.15 l -0.51,0.16 c -0.72,0.06 -1.45,0.17 -2.29,0.17 z"
         fill="#a50000"
         id="path100" />
      <path
         d="m 515.91,25.86 a 8,8 0 0 1 1.57,0.17 c 0,1.68 -0.06,2.8 -2.13,3.7 a 14,14 0 0 0 -8.67,10.85 c -0.84,4.37 -1.57,8.74 -2.35,13.1 a 6.16,6.16 0 0 1 -2,0.28 c -0.73,0 -1.46,-0.05 -2.29,-0.11 1.62,-9.24 3.19,-18.25 4.81,-27.32 h 3.75 c 0.78,0.45 -0.11,1.46 0.73,2 2,-1.17 4,-2.63 6.6,-2.63 m 0,-1.68 a 10.94,10.94 0 0 0 -5.6,1.79 2.42,2.42 0 0 0 -0.84,-0.89 L 509.1,24.9 h -5.59 l -0.23,1.39 c -0.95,5.55 -2,11.09 -2.91,16.63 l -1.9,10.69 -0.34,1.85 1.91,0.11 c 0.27,0 0.55,0 0.78,0 a 13.22,13.22 0 0 0 1.57,0.06 8.56,8.56 0 0 0 2.51,-0.34 l 1,-0.28 0.17,-1 c 0.22,-1.23 0.45,-2.41 0.67,-3.64 0.56,-3.08 1.12,-6.33 1.68,-9.46 A 12.06,12.06 0 0 1 516,31.35 c 3.08,-1.29 3.25,-3.42 3.19,-5.32 l -0.05,-1.29 -1.29,-0.28 a 6.23,6.23 0 0 0 -2,-0.28 z"
         fill="#a50000"
         id="path102" />
      <path
         d="m 436.09,65.66 a 9.22,9.22 0 0 1 -2.46,-0.45 L 433,65 433.11,64.27 C 435.25,52 437.38,39.52 439.62,27 l 0.11,-0.67 0.67,-0.06 a 6.34,6.34 0 0 0 1,-0.11 12.23,12.23 0 0 1 1.4,-0.11 3.24,3.24 0 0 1 2.46,0.95 20,20 0 0 1 11,-3.3 h 0.34 c 4.76,0.11 8.56,1.68 11.08,4.53 2.52,2.85 3.47,6.83 2.91,11.42 -1.12,9.18 -9.9,16.63 -19.53,16.63 a 16.79,16.79 0 0 1 -5.32,-0.84 16.27,16.27 0 0 1 -4.59,-2.58 c -0.11,0.67 -0.28,1.35 -0.39,2 -0.45,2.35 -0.9,4.59 -1.12,6.83 -0.34,2.68 -1.51,4 -3.53,4 z m 19.48,-36.83 c -4.31,0 -11.47,4.65 -12.48,11.7 a 9.65,9.65 0 0 0 2.07,7.67 8.07,8.07 0 0 0 6.27,2.8 9.16,9.16 0 0 0 3.19,-0.55 14.29,14.29 0 0 0 9.52,-9.86 9.37,9.37 0 0 0 -1.46,-8.34 8.48,8.48 0 0 0 -6.88,-3.41 z"
         fill="#a50000"
         id="path104" />
      <path
         d="m 456.13,24.58 h 0.34 c 9.07,0.16 14.33,6 13.21,15.05 -1.12,9.05 -9.85,15.84 -18.75,15.84 a 17.72,17.72 0 0 1 -5.1,-0.78 17.51,17.51 0 0 1 -5.43,-3.3 c -0.61,3.69 -1.4,6.94 -1.73,10.24 -0.23,2.18 -1,3.19 -2.63,3.19 a 7.23,7.23 0 0 1 -2.19,-0.45 c 2.19,-12.31 4.31,-24.74 6.55,-37.28 0.79,-0.05 1.57,-0.22 2.35,-0.22 a 2.65,2.65 0 0 1 2.36,1.23 18.9,18.9 0 0 1 11,-3.52 m -4.64,27.25 a 9.63,9.63 0 0 0 3.47,-0.61 14.93,14.93 0 0 0 10,-10.41 c 1.9,-6.55 -2.63,-12.88 -9.13,-12.88 h -0.33 c -4.71,0 -12.26,4.93 -13.27,12.43 -0.84,6.44 3.47,11.47 9.24,11.47 m 4.64,-28.93 a 20.49,20.49 0 0 0 -10.87,3.1 4.33,4.33 0 0 0 -2.52,-0.72 6.13,6.13 0 0 0 -1.51,0.17 6.46,6.46 0 0 1 -0.9,0.11 h -1.34 l -0.23,1.29 c -2.18,12.54 -4.36,24.91 -6.54,37.28 l -0.18,1.47 1.4,0.45 a 9.12,9.12 0 0 0 2.69,0.51 c 1.73,0 3.92,-0.84 4.31,-4.71 0.22,-2.18 0.67,-4.42 1.12,-6.77 a 3.58,3.58 0 0 0 0.11,-0.73 14.14,14.14 0 0 0 3.75,2 18.86,18.86 0 0 0 5.6,0.9 c 10.07,0 19.25,-7.78 20.37,-17.35 0.62,-4.87 -0.5,-9.07 -3.13,-12.09 -2.63,-3.02 -6.77,-4.81 -11.75,-4.81 -0.06,-0.05 -0.17,-0.05 -0.34,-0.05 z m -4.64,27.26 a 7.46,7.46 0 0 1 -5.66,-2.52 8.92,8.92 0 0 1 -1.9,-7 c 0.9,-6.61 7.61,-11 11.64,-11 h 0.34 a 7.76,7.76 0 0 1 6.21,3.08 8.53,8.53 0 0 1 1.29,7.61 13.24,13.24 0 0 1 -9,9.29 9.26,9.26 0 0 1 -3,0.51 z"
         fill="#a50000"
         id="path106" />
      <path
         d="m 484.34,56.26 a 14.86,14.86 0 0 1 -8.67,-2.52 C 470.35,49.88 468.73,42.1 471.8,35.27 a 20.07,20.07 0 0 1 18.08,-11.65 19.3,19.3 0 0 1 4.43,0.51 11.44,11.44 0 0 1 7.55,5.43 l 0.39,0.61 L 480,49.09 a 7.16,7.16 0 0 0 5,2 11.65,11.65 0 0 0 3.47,-0.61 13.81,13.81 0 0 0 3.92,-2.19 c 1.35,-1 2.24,-1.68 3.31,-1.68 0.89,0 1.79,0.45 3.41,1.29 l 0.84,0.45 -0.5,0.78 c -2.92,4.26 -9,7.17 -15.12,7.17 z m 4.76,-27.37 a 11.84,11.84 0 0 0 -7.05,2.79 c -4.48,3.42 -6.5,8.46 -5.21,12.77 4.76,-4 9.52,-8.12 14.28,-12.15 l 2.4,-2.07 a 8.12,8.12 0 0 0 -4.42,-1.34 z"
         fill="#a50000"
         id="path108" />
      <path
         d="m 489.88,24.41 a 18.26,18.26 0 0 1 4.2,0.5 10.71,10.71 0 0 1 7.05,5 c -7.5,6.38 -14.88,12.7 -22.33,19 a 8.06,8.06 0 0 0 6.2,2.92 11.71,11.71 0 0 0 3.75,-0.67 14.92,14.92 0 0 0 4.15,-2.29 c 1.34,-1 2,-1.51 2.8,-1.51 a 7.56,7.56 0 0 1 3,1.17 c -2.91,4.37 -8.85,6.89 -14.39,6.89 a 13.79,13.79 0 0 1 -8.17,-2.35 c -5,-3.64 -6.55,-10.92 -3.58,-17.47 a 19.09,19.09 0 0 1 17.29,-11.19 m -13.51,21.16 a 5.54,5.54 0 0 0 1,-0.45 c 5.88,-5 11.7,-10 17.63,-15 A 9.57,9.57 0 0 0 489.1,28 a 12.62,12.62 0 0 0 -7.56,3 c -5.09,3.86 -7.22,9.74 -5.2,14.61 M 489.88,22.77 A 20.94,20.94 0 0 0 471,34.87 c -3.25,7.23 -1.51,15.45 4.14,19.54 a 15.67,15.67 0 0 0 9.18,2.69 c 6.44,0 12.76,-3.08 15.79,-7.62 l 1,-1.56 -1.67,-0.84 a 8.44,8.44 0 0 0 -3.81,-1.4 c -1.4,0 -2.41,0.78 -3.81,1.84 a 13.44,13.44 0 0 1 -3.64,2.08 9.59,9.59 0 0 1 -3.19,0.56 6.46,6.46 0 0 1 -3.67,-1.16 l 14.61,-12.43 6.27,-5.37 1.12,-1 -0.73,-1.23 a 12.67,12.67 0 0 0 -8.12,-5.82 21.65,21.65 0 0 0 -4.59,-0.42 z m -12.53,20.11 c -0.51,-3.7 1.4,-7.73 5.15,-10.58 a 11,11 0 0 1 6.5,-2.63 6.92,6.92 0 0 1 3,0.67 l -1.34,1.12 c -4.31,3.75 -8.85,7.61 -13.32,11.42 z m -84.3,13 c -2.8,0 -6.32,-0.39 -9.18,-3.64 a 11.25,11.25 0 0 1 -2.8,-5.26 c -0.33,-1.68 -0.45,-3 0.28,-3.92 0.73,-0.92 2.07,-1.17 4,-1.17 h 0.44 l 0.28,0.33 0.06,0.06 a 1.72,1.72 0 0 1 0.39,0.73 c 0.79,4.75 2.8,7.27 6.38,7.78 a 5.43,5.43 0 0 0 0.9,0.05 c 3.52,0 7.72,-2.8 9.57,-6.38 2.29,-4.42 1.45,-8.23 -2.52,-11.36 a 22.31,22.31 0 0 0 -4.92,-2.69 c -5.77,-2.35 -8.23,-6.43 -7.17,-11.92 a 12.11,12.11 0 0 1 11.74,-9.7 h 0.33 c 5.43,0 8.4,1.9 9.57,6.16 a 3.69,3.69 0 0 1 0.06,0.78 v 0.73 l -0.39,0.22 A 6.09,6.09 0 0 1 407,17.91 c -1.29,0 -2.35,-0.83 -3.19,-2.57 A 3,3 0 0 0 401,13.6 a 5.1,5.1 0 0 0 -2.24,0.56 6.94,6.94 0 0 0 -4.37,5.71 c -0.28,2.3 1.24,3.75 3.47,5.21 a 20.43,20.43 0 0 0 2.69,1.34 l 0.45,0.23 c 7.22,3.24 10.41,8.5 9.23,15.11 -1.28,7.44 -7.61,13.43 -14.72,14 a 19.83,19.83 0 0 1 -2.46,0.16 z"
         fill="#a50000"
         id="path110" />
      <path
         d="m 400.83,9.63 c 5,0 7.73,1.68 8.79,5.54 a 4.68,4.68 0 0 1 0,0.84 5.26,5.26 0 0 1 -2.62,1.12 c -0.89,0 -1.68,-0.56 -2.46,-2.13 a 3.75,3.75 0 0 0 -3.53,-2.18 6.48,6.48 0 0 0 -2.57,0.62 7.78,7.78 0 0 0 -4.81,6.38 c -0.34,2.91 1.68,4.59 3.86,6 a 22.27,22.27 0 0 0 3.24,1.62 c 6.83,3.08 9.86,8 8.79,14.22 -1.23,7.05 -7.22,12.76 -13.93,13.26 -0.84,0.06 -1.68,0.11 -2.52,0.11 -3.19,0 -6.16,-0.61 -8.57,-3.35 A 10.37,10.37 0 0 1 382,46.8 c -0.73,-3.31 -0.06,-4 3.47,-4.09 0.11,0.17 0.28,0.28 0.28,0.45 0.84,5.15 3.13,7.89 7.11,8.51 a 6.7,6.7 0 0 0 1,0 c 3.81,0 8.29,-2.91 10.36,-6.83 2.46,-4.75 1.51,-9 -2.74,-12.37 a 21.91,21.91 0 0 0 -5.15,-2.79 c -5.49,-2.3 -7.73,-5.94 -6.72,-11 A 11.37,11.37 0 0 1 400.5,9.63 h 0.33 m 0,-1.68 h -0.39 A 13,13 0 0 0 387.9,18.36 c -0.78,4.09 -0.11,9.69 7.73,13 a 20.48,20.48 0 0 1 4.75,2.57 c 3.64,2.91 4.37,6.27 2.3,10.3 -1.74,3.3 -5.6,5.94 -8.85,5.94 a 3.17,3.17 0 0 1 -0.78,-0.06 c -2.18,-0.34 -4.76,-1.4 -5.71,-7.11 a 2.2,2.2 0 0 0 -0.61,-1.17 l -0.51,-0.68 h -0.84 c -1.68,0.06 -3.58,0.17 -4.64,1.51 -1.06,1.34 -0.79,3.08 -0.45,4.65 a 12.3,12.3 0 0 0 12.82,9.57 c 0.78,0 1.62,0 2.63,-0.11 7.44,-0.56 14.1,-6.88 15.5,-14.66 1.23,-7 -2.24,-12.65 -9.74,-16 l -0.45,-0.23 a 15.79,15.79 0 0 1 -2.57,-1.28 c -2.46,-1.57 -3.3,-2.8 -3.08,-4.43 a 6.23,6.23 0 0 1 3.86,-5.09 5,5 0 0 1 1.85,-0.45 2,2 0 0 1 2,1.23 c 1,2 2.35,3 4,3 a 6.55,6.55 0 0 0 3.53,-1.4 l 0.72,-0.51 v -1.11 a 3.65,3.65 0 0 0 -0.05,-1.06 C 410,10.08 406.65,8 400.83,8 Z"
         fill="#a50000"
         id="path112" />
      <path
         d="m 421.21,56.09 a 13.15,13.15 0 0 1 -6.11,-1.46 8.46,8.46 0 0 1 -4.81,-8.9 c 0.56,-4.42 1.29,-8.9 2.07,-13.26 0.34,-1.85 0.62,-3.7 0.95,-5.54 l 0.11,-0.73 h 6.05 l -1,5.54 c -0.45,2.57 -0.9,5.15 -1.29,7.72 -0.11,0.68 -0.22,1.35 -0.39,2.08 -0.17,0.73 -0.34,1.73 -0.45,2.63 a 5.33,5.33 0 0 0 2.3,5.54 5,5 0 0 0 3.07,1.06 5.93,5.93 0 0 0 2.64,-0.67 9.32,9.32 0 0 0 5.54,-6.94 c 0.67,-3.86 1.34,-7.73 2.07,-11.64 l 0.89,-4.82 0.4,-0.17 a 5,5 0 0 1 2.29,-0.44 16.16,16.16 0 0 1 2.24,0.22 l 1.12,0.17 -0.17,0.89 c -0.5,2.36 -0.84,4.76 -1.17,7.06 a 72.27,72.27 0 0 1 -2.69,12.76 c -2,5.26 -7.56,8.9 -13.71,8.9 z"
         fill="#a50000"
         id="path114" />
      <path
         d="m 435.42,26.93 a 18.7,18.7 0 0 1 2.35,0.22 c -1.34,6.66 -1.68,13.43 -3.86,19.76 -1.79,5.15 -7.33,8.34 -12.76,8.34 A 12.9,12.9 0 0 1 415.38,53.91 7.6,7.6 0 0 1 411,45.85 c 0.78,-6.27 2,-12.49 3,-18.76 h 4.31 c -0.72,4.2 -1.39,8.23 -2.07,12.32 -0.28,1.57 -0.61,3.08 -0.84,4.64 a 6.31,6.31 0 0 0 2.6,6.39 6,6 0 0 0 3.59,1.23 6.7,6.7 0 0 0 3,-0.79 c 3.13,-1.56 5.37,-3.92 6,-7.55 0.89,-5.32 1.9,-10.64 2.85,-16 a 4.9,4.9 0 0 1 2,-0.39 m 0,-1.68 a 6.81,6.81 0 0 0 -2.63,0.5 l -0.78,0.34 -0.17,0.89 c -0.28,1.46 -0.5,2.91 -0.78,4.42 -0.68,3.81 -1.4,7.78 -2.07,11.65 -0.51,2.85 -2.13,4.87 -5.1,6.38 a 5.23,5.23 0 0 1 -2.29,0.61 4.27,4.27 0 0 1 -2.58,-0.89 4.63,4.63 0 0 1 -2,-4.76 c 0.11,-0.84 0.28,-1.74 0.45,-2.57 0.17,-0.83 0.28,-1.4 0.39,-2.08 0.45,-2.57 0.9,-5.2 1.35,-7.78 0.22,-1.51 0.5,-3 0.78,-4.53 l 0.34,-2 h -7.73 l -0.22,1.4 c -0.28,1.85 -0.62,3.69 -0.95,5.54 -0.73,4.37 -1.52,8.85 -2.08,13.27 a 9.35,9.35 0 0 0 5.27,9.79 14.15,14.15 0 0 0 6.51,1.56 c 6.49,0 12.43,-3.91 14.33,-9.51 a 69.11,69.11 0 0 0 2.74,-12.93 c 0.34,-2.3 0.67,-4.7 1.18,-7 l 0.33,-1.73 -1.79,-0.23 h -0.22 a 10.2,10.2 0 0 0 -2.3,-0.28 z"
         fill="#a50000"
         id="path116" />
      <path
         d="m 502.31,55.36 c -0.5,0 -1,-0.06 -1.51,-0.06 -0.28,0 -0.56,0 -0.84,0 l -0.95,-0.06 2.07,-11.58 c 1,-5.54 2,-11.09 2.91,-16.63 l 0.11,-0.67 h 4.7 l 0.23,0.11 a 1.57,1.57 0 0 1 0.78,1.46 c 1.85,-1.12 3.69,-2.24 6.1,-2.24 a 6.49,6.49 0 0 1 1.74,0.22 l 0.61,0.17 v 0.67 c 0.06,1.85 -0.11,3.42 -2.63,4.48 a 12.93,12.93 0 0 0 -8.11,10.24 c -0.62,3.14 -1.18,6.38 -1.68,9.46 -0.23,1.23 -0.73,4.14 -0.73,4.14 l -0.51,0.17 c -0.72,0.06 -1.45,0.17 -2.29,0.17 z"
         fill="#a50000"
         id="path118" />
      <path
         d="m 515.91,26.42 a 8,8 0 0 1 1.57,0.17 c 0,1.68 -0.06,2.8 -2.13,3.69 a 14,14 0 0 0 -8.67,10.86 c -0.84,4.37 -1.57,8.74 -2.35,13.1 a 6.16,6.16 0 0 1 -2,0.28 c -0.73,0 -1.46,-0.05 -2.29,-0.11 1.62,-9.24 3.19,-18.25 4.81,-27.32 h 3.75 c 0.78,0.45 -0.11,1.46 0.73,2 2,-1.17 4,-2.63 6.6,-2.63 m 0,-1.68 a 10.94,10.94 0 0 0 -5.6,1.79 2.42,2.42 0 0 0 -0.84,-0.89 l -0.39,-0.22 h -5.59 l -0.23,1.39 c -0.95,5.55 -2,11.09 -2.91,16.63 l -1.9,10.69 -0.36,1.83 1.91,0.11 c 0.27,0 0.55,0 0.78,0 a 13.22,13.22 0 0 0 1.57,0.06 8.56,8.56 0 0 0 2.51,-0.34 l 1,-0.28 0.17,-1 c 0.22,-1.23 0.45,-2.41 0.67,-3.64 0.56,-3.08 1.12,-6.33 1.68,-9.46 a 12.06,12.06 0 0 1 7.6,-9.54 c 3.08,-1.29 3.25,-3.42 3.19,-5.32 L 519.14,25.3 517.87,25 a 6.23,6.23 0 0 0 -2,-0.28 z"
         fill="#a50000"
         id="path120" />
      <path
         d="m 433.3,67.73 a 9.21,9.21 0 0 1 -2.47,-0.45 l -0.67,-0.22 0.11,-0.73 c 2.19,-12.31 4.31,-24.74 6.55,-37.28 l 0.11,-0.67 0.68,-0.05 a 6.44,6.44 0 0 0 1,-0.12 12.23,12.23 0 0 1 1.4,-0.11 3.24,3.24 0 0 1 2.46,0.95 20.05,20.05 0 0 1 11,-3.3 h 0.33 c 4.76,0.11 8.57,1.68 11.08,4.53 2.51,2.85 3.47,6.83 2.91,11.42 -1.11,9.18 -9.9,16.63 -19.53,16.63 a 16.79,16.79 0 0 1 -5.32,-0.84 16.27,16.27 0 0 1 -4.59,-2.58 c -0.11,0.67 -0.28,1.35 -0.39,2 -0.45,2.35 -0.89,4.59 -1.12,6.83 -0.33,2.63 -1.51,4 -3.52,4 z M 452.77,30.9 c -4.31,0 -11.47,4.65 -12.48,11.7 a 9.65,9.65 0 0 0 2.07,7.67 8.08,8.08 0 0 0 6.27,2.8 9.13,9.13 0 0 0 3.19,-0.56 14.29,14.29 0 0 0 9.52,-9.86 9.37,9.37 0 0 0 -1.46,-8.34 A 8.48,8.48 0 0 0 453,30.9 Z"
         fill="#a50000"
         id="path122" />
      <path
         d="m 453.39,26.65 h 0.34 c 9.06,0.16 14.32,6 13.21,15.05 -1.11,9.05 -9.86,15.84 -18.76,15.84 a 17.71,17.71 0 0 1 -5.09,-0.78 17.51,17.51 0 0 1 -5.43,-3.3 c -0.61,3.69 -1.4,6.94 -1.73,10.24 -0.23,2.18 -1,3.19 -2.63,3.19 a 7.23,7.23 0 0 1 -2.19,-0.45 c 2.19,-12.31 4.31,-24.74 6.55,-37.27 0.78,-0.06 1.57,-0.23 2.35,-0.23 a 2.65,2.65 0 0 1 2.35,1.23 18.68,18.68 0 0 1 11,-3.52 m -4.7,27.26 a 9.65,9.65 0 0 0 3.47,-0.62 14.91,14.91 0 0 0 10,-10.41 C 464.03,36.33 459.5,30 453,30 h -0.33 c -4.7,0 -12.26,4.93 -13.27,12.43 -0.84,6.44 3.47,11.48 9.24,11.48 M 453.39,25 a 20.47,20.47 0 0 0 -10.92,3.08 4.21,4.21 0 0 0 -2.51,-0.73 6.27,6.27 0 0 0 -1.52,0.17 6.16,6.16 0 0 1 -0.89,0.11 h -1.34 L 436,28.94 c -2.18,12.54 -4.36,24.91 -6.55,37.28 l -0.22,1.45 1.4,0.45 a 9.12,9.12 0 0 0 2.69,0.51 c 1.73,0 3.91,-0.84 4.31,-4.71 0.22,-2.18 0.67,-4.42 1.11,-6.77 a 3,3 0 0 0 0.12,-0.73 13.71,13.71 0 0 0 3.75,2 18.84,18.84 0 0 0 5.59,0.9 c 10.08,0 19.26,-7.78 20.38,-17.35 0.61,-4.87 -0.51,-9.07 -3.14,-12.09 -2.63,-3.02 -6.71,-4.76 -11.69,-4.82 A 0.83,0.83 0 0 0 453.39,25 Z m -4.7,27.26 a 7.46,7.46 0 0 1 -5.69,-2.55 9,9 0 0 1 -1.9,-7 c 0.9,-6.6 7.61,-11 11.64,-11 h 0.34 a 7.76,7.76 0 0 1 6.21,3.08 8.5,8.5 0 0 1 1.29,7.61 13.22,13.22 0 0 1 -9,9.29 9.26,9.26 0 0 1 -3,0.51 z"
         fill="#a50000"
         id="path124" />
      <path
         d="m 481.54,58.33 a 14.86,14.86 0 0 1 -8.67,-2.52 C 467.55,52 465.93,44.17 469,37.34 a 20,20 0 0 1 18.09,-11.64 19.27,19.27 0 0 1 4.42,0.5 11.41,11.41 0 0 1 7.55,5.43 l 0.4,0.61 -22.23,18.92 a 7.17,7.17 0 0 0 5,2 11.76,11.76 0 0 0 3.47,-0.61 13.91,13.91 0 0 0 3.91,-2.19 c 1.35,-1 2.24,-1.68 3.31,-1.68 0.89,0 1.79,0.45 3.41,1.29 l 0.84,0.45 -0.5,0.78 c -2.91,4.26 -9,7.17 -15.12,7.17 z M 486.3,30.9 a 11.81,11.81 0 0 0 -7.05,2.8 c -4.48,3.41 -6.49,8.45 -5.21,12.76 4.76,-4 9.52,-8.12 14.33,-12.2 l 2.41,-2 a 8.4,8.4 0 0 0 -4.48,-1.34 z"
         fill="#a50000"
         id="path126" />
      <path
         d="m 487.09,26.48 a 18.24,18.24 0 0 1 4.19,0.5 10.79,10.79 0 0 1 7.06,5 c -7.5,6.38 -14.89,12.71 -22.34,19 a 8.07,8.07 0 0 0 6.22,2.86 11.84,11.84 0 0 0 3.75,-0.68 15,15 0 0 0 4.14,-2.29 c 1.34,-1 2,-1.51 2.8,-1.51 a 7.56,7.56 0 0 1 3,1.17 c -2.91,4.37 -8.84,6.89 -14.39,6.89 a 13.79,13.79 0 0 1 -8.17,-2.35 c -5,-3.64 -6.55,-10.92 -3.58,-17.47 a 19.09,19.09 0 0 1 17.3,-11.19 M 473.6,47.64 a 5.54,5.54 0 0 0 0.95,-0.45 c 5.87,-5 11.7,-10 17.63,-15 a 9.59,9.59 0 0 0 -5.82,-2.13 12.59,12.59 0 0 0 -7.56,3 c -5.15,3.86 -7.28,9.68 -5.2,14.61 M 487.09,24.8 A 20.93,20.93 0 0 0 468.22,37 c -3.24,7.22 -1.51,15.44 4.14,19.53 a 15.6,15.6 0 0 0 9.18,2.69 c 6.44,0 12.77,-3.08 15.79,-7.67 l 1,-1.57 -1.68,-0.84 c -1.57,-0.84 -2.63,-1.4 -3.81,-1.4 -1.4,0 -2.41,0.79 -3.81,1.85 a 13.5,13.5 0 0 1 -3.63,2.07 9.67,9.67 0 0 1 -3.19,0.56 6.4,6.4 0 0 1 -3.7,-1.12 l 14.61,-12.43 6.27,-5.37 1.12,-1 -0.73,-1.23 a 12.64,12.64 0 0 0 -8.11,-5.82 25.14,25.14 0 0 0 -4.59,-0.45 z M 474.55,45 c -0.51,-3.69 1.4,-7.72 5.15,-10.58 a 11.08,11.08 0 0 1 6.55,-2.63 6.91,6.91 0 0 1 3,0.67 l -1.34,1.12 C 483.56,37.28 479,41.14 474.55,45 Z m -84.3,13 c -2.8,0 -6.32,-0.39 -9.18,-3.64 a 11.34,11.34 0 0 1 -2.8,-5.26 c -0.33,-1.68 -0.44,-3 0.28,-3.92 0.72,-0.92 2.07,-1.17 4,-1.17 H 383 l 0.28,0.33 0.05,0.06 a 1.72,1.72 0 0 1 0.39,0.73 c 0.79,4.76 2.8,7.27 6.38,7.78 a 5.43,5.43 0 0 0 0.9,0.05 c 3.53,0 7.72,-2.79 9.57,-6.38 2.3,-4.42 1.46,-8.23 -2.52,-11.36 a 22.09,22.09 0 0 0 -4.92,-2.69 c -5.77,-2.4 -8.23,-6.43 -7.17,-12 a 12.1,12.1 0 0 1 11.76,-9.74 H 398 c 5.43,0 8.4,1.9 9.57,6.15 a 3.73,3.73 0 0 1 0.06,0.79 v 0.72 l -0.39,0.23 a 6.15,6.15 0 0 1 -3.08,1.23 c -1.29,0 -2.35,-0.84 -3.19,-2.57 a 3,3 0 0 0 -2.8,-1.74 5.1,5.1 0 0 0 -2.24,0.56 6.9,6.9 0 0 0 -4.36,5.71 c -0.28,2.29 1.23,3.75 3.47,5.2 a 19.19,19.19 0 0 0 2.68,1.35 l 0.45,0.22 c 7.22,3.25 10.41,8.51 9.24,15.11 -1.29,7.45 -7.62,13.44 -14.73,14 A 12.29,12.29 0 0 1 390.25,58 Z"
         fill="#a50000"
         id="path128" />
      <path
         d="m 398,11.65 c 5,0 7.73,1.67 8.79,5.54 a 3.89,3.89 0 0 1 0,0.84 5.37,5.37 0 0 1 -2.57,1.12 c -0.9,0 -1.68,-0.56 -2.47,-2.13 a 3.75,3.75 0 0 0 -3.52,-2.18 6.46,6.46 0 0 0 -2.58,0.61 7.81,7.81 0 0 0 -4.81,6.38 c -0.34,2.91 1.68,4.59 3.86,6 a 23,23 0 0 0 3.3,1.62 c 6.82,3.07 9.85,8 8.78,14.21 -1.23,7.05 -7.22,12.76 -13.93,13.27 -0.84,0 -1.68,0.11 -2.52,0.11 -3.19,0 -6.16,-0.62 -8.57,-3.36 a 10.32,10.32 0 0 1 -2.57,-4.87 c -0.73,-3.3 -0.06,-4 3.47,-4.08 0.11,0.16 0.28,0.28 0.28,0.44 0.84,5.15 3.13,7.95 7.11,8.51 a 5.65,5.65 0 0 0 1,0.06 c 3.8,0 8.28,-2.91 10.35,-6.83 2.46,-4.76 1.51,-9 -2.74,-12.37 a 21.75,21.75 0 0 0 -5.15,-2.8 c -5.49,-2.29 -7.67,-6 -6.72,-11.08 a 11.37,11.37 0 0 1 10.92,-9.07 0.65,0.65 0 0 0 0.33,0.06 M 398,10 h -0.39 A 13,13 0 0 0 385.1,20.38 c -0.78,4.08 -0.11,9.68 7.73,13 a 20.52,20.52 0 0 1 4.75,2.58 c 3.64,2.91 4.37,6.27 2.3,10.3 -1.74,3.3 -5.6,5.93 -8.84,5.93 a 3.3,3.3 0 0 1 -0.79,-0.06 c -2.18,-0.33 -4.76,-1.45 -5.71,-7.1 a 2.29,2.29 0 0 0 -0.61,-1.18 l -0.51,-0.73 h -0.84 c -1.68,0.06 -3.58,0.17 -4.64,1.51 -1.06,1.34 -0.79,3.08 -0.45,4.65 a 12.3,12.3 0 0 0 12.82,9.57 c 0.78,0 1.62,0 2.63,-0.11 7.44,-0.56 14.1,-6.89 15.5,-14.67 1.23,-6.94 -2.24,-12.65 -9.74,-16 l -0.44,-0.23 a 14.79,14.79 0 0 1 -2.58,-1.29 c -2.46,-1.56 -3.3,-2.79 -3.08,-4.42 a 6.23,6.23 0 0 1 3.86,-5.13 5,5 0 0 1 1.85,-0.45 2,2 0 0 1 2,1.23 c 1,2 2.35,3 4,3 a 6.55,6.55 0 0 0 3.53,-1.4 l 0.73,-0.51 V 17.8 a 3.71,3.71 0 0 0 -0.06,-1.06 C 407.16,12.15 403.85,10 398,10 Z"
         fill="#a50000"
         id="path130" />
      <path
         d="m 418.41,58.16 a 13,13 0 0 1 -6.1,-1.46 8.46,8.46 0 0 1 -4.82,-8.9 c 0.56,-4.42 1.29,-8.9 2.07,-13.26 0.34,-1.85 0.62,-3.7 0.95,-5.54 l 0.12,-0.73 h 6 l -0.95,5.54 c -0.45,2.58 -0.84,5.15 -1.29,7.73 -0.11,0.67 -0.22,1.34 -0.39,2.07 -0.17,0.73 -0.34,1.73 -0.45,2.63 a 5.33,5.33 0 0 0 2.3,5.54 5,5 0 0 0 3.15,1.06 5.89,5.89 0 0 0 2.63,-0.67 9.32,9.32 0 0 0 5.54,-6.94 c 0.67,-3.86 1.34,-7.72 2.07,-11.64 l 0.89,-4.82 0.4,-0.16 a 4.89,4.89 0 0 1 2.29,-0.45 16.16,16.16 0 0 1 2.24,0.22 l 1.12,0.17 -0.17,0.9 c -0.5,2.35 -0.84,4.75 -1.17,7.05 a 72.27,72.27 0 0 1 -2.69,12.76 c -2.05,5.21 -7.59,8.9 -13.74,8.9 z"
         fill="#a50000"
         id="path132" />
      <path
         d="m 432.62,29 a 18.7,18.7 0 0 1 2.35,0.22 c -1.34,6.66 -1.67,13.43 -3.86,19.76 -1.79,5.15 -7.33,8.34 -12.76,8.34 A 12.89,12.89 0 0 1 412.59,56 7.59,7.59 0 0 1 408.22,47.94 c 0.78,-6.27 2,-12.49 3,-18.75 h 4.31 c -0.73,4.19 -1.4,8.22 -2.08,12.31 -0.28,1.57 -0.61,3.08 -0.83,4.65 a 6.26,6.26 0 0 0 2.63,6.38 5.9,5.9 0 0 0 3.58,1.23 6.67,6.67 0 0 0 3,-0.79 c 3.14,-1.56 5.37,-3.91 6,-7.55 0.9,-5.32 1.9,-10.64 2.85,-16 a 4.07,4.07 0 0 1 2,-0.39 m 0,-1.68 a 6.81,6.81 0 0 0 -2.63,0.5 l -0.78,0.34 -0.17,0.89 c -0.28,1.46 -0.5,2.91 -0.78,4.43 -0.67,3.8 -1.4,7.78 -2.07,11.64 -0.51,2.85 -2.13,4.87 -5.1,6.38 a 5.2,5.2 0 0 1 -2.29,0.61 4.27,4.27 0 0 1 -2.58,-0.89 4.63,4.63 0 0 1 -2,-4.76 c 0.12,-0.84 0.28,-1.73 0.45,-2.57 0.11,-0.68 0.28,-1.4 0.39,-2.07 0.45,-2.58 0.9,-5.21 1.35,-7.79 0.22,-1.51 0.5,-3 0.78,-4.53 l 0.34,-2 h -7.73 l -0.22,1.4 c -0.28,1.85 -0.62,3.7 -0.95,5.54 -0.73,4.37 -1.51,8.85 -2.07,13.27 a 9.34,9.34 0 0 0 5.26,9.79 14.18,14.18 0 0 0 6.49,1.51 c 6.49,0 12.43,-3.91 14.33,-9.51 a 69.11,69.11 0 0 0 2.74,-12.93 c 0.34,-2.3 0.67,-4.7 1.18,-7 l 0.33,-1.73 -1.79,-0.23 h -0.22 a 10.2,10.2 0 0 0 -2.3,-0.28 z"
         fill="#a50000"
         id="path134" />
      <path
         d="m 499.51,57.38 c -0.5,0 -1,-0.06 -1.51,-0.06 -0.28,0 -0.56,-0.06 -0.84,-0.06 h -1 l 2.07,-11.92 c 1,-5.49 1.9,-10.92 2.85,-16.35 l 0.12,-0.67 h 4.8 l 0.22,0.11 a 1.58,1.58 0 0 1 0.79,1.46 c 1.84,-1.12 3.69,-2.24 6.1,-2.24 a 6,6 0 0 1 1.73,0.22 l 0.62,0.17 v 0.67 c 0.05,1.85 -0.11,3.42 -2.63,4.48 a 13,13 0 0 0 -8.12,10.24 c -0.61,3.19 -1.17,6.38 -1.73,9.52 l -0.78,4.05 -0.51,0.17 a 12,12 0 0 1 -2.18,0.23 z"
         fill="#a50000"
         id="path136" />
      <path
         d="m 513.11,28.44 a 7.31,7.31 0 0 1 1.57,0.17 c 0.06,1.67 -0.06,2.79 -2.13,3.69 a 14,14 0 0 0 -8.67,10.86 c -0.84,4.36 -1.57,8.73 -2.35,13.1 a 6.44,6.44 0 0 1 -2,0.28 c -0.73,0 -1.45,-0.06 -2.29,-0.12 1.62,-9.23 3.19,-18.24 4.81,-27.31 h 3.75 c 0.78,0.45 -0.11,1.45 0.73,2 2.07,-1.18 4,-2.63 6.6,-2.63 m 0,-1.68 a 10.87,10.87 0 0 0 -5.59,1.79 2.53,2.53 0 0 0 -0.84,-0.9 l -0.4,-0.22 h -5.59 l -0.28,1.4 c -1,5.54 -2,11.08 -2.91,16.62 l -1.91,10.69 -0.35,1.82 1.9,0.11 c 0.28,0 0.56,0.06 0.78,0.06 a 13.31,13.31 0 0 0 1.57,0.06 9,9 0 0 0 2.52,-0.34 l 1,-0.28 0.17,-1 c 0.22,-1.23 0.44,-2.4 0.67,-3.64 0.56,-3.07 1.12,-6.32 1.68,-9.46 a 12.07,12.07 0 0 1 7.61,-9.57 c 3.08,-1.28 3.25,-3.41 3.19,-5.31 L 516.29,27.34 515,27 a 7.42,7.42 0 0 0 -1.91,-0.28 z"
         fill="#a50000"
         id="path138" />
      <path
         d="m 540.76,95.83 a 29,29 0 0 0 4.26,-6 c 3.52,-5.54 6.88,-11.19 10.35,-16.79 4.09,-6.55 9.69,-8.95 17.41,-7.61 1,0.17 2.29,0.45 2,1.79 -0.29,1.34 0,3 -1.85,3.7 a 12.59,12.59 0 0 1 -4.93,0.5 4,4 0 0 0 -3.86,2.13 c -6.38,9.9 -12.93,19.75 -19.25,29.72 a 4.49,4.49 0 0 1 -4.48,2.4 c -7.84,-0.11 -7.84,-0.05 -7.78,-7.83 0,-9.57 -0.06,-19.2 0,-28.77 0,-3.3 0.5,-3.64 3.8,-3.36 4.15,0.34 4.2,0.34 4.09,4.65 -0.11,6 -0.28,12.09 -0.45,18.13 a 35.19,35.19 0 0 0 0.67,7.39 z"
         fill="#a50000"
         id="path140" />
      <path
         d="m 380,99.3 c -0.39,1.73 -0.73,3.53 -1.18,5.32 -0.45,1.79 -1.84,2.07 -3.47,2.12 -7.78,0.23 -15.39,-5 -17.07,-11.81 -1.68,-6.81 2.69,-15.11 9.8,-18.58 9.79,-4.7 21,-0.62 24,8.79 a 15.74,15.74 0 0 1 0.12,8.79 c -0.73,3.13 -1.8,6.27 -2.41,9.4 -0.45,2.18 -1.57,3 -3.7,2.74 a 13.16,13.16 0 0 0 -2.51,0 c -2,0.11 -2.36,-0.73 -1.85,-2.57 1.06,-3.86 1.85,-7.78 2.91,-11.59 1,-3.53 0.17,-6.49 -2.69,-8.73 a 9.21,9.21 0 0 0 -10,-1.12 9.74,9.74 0 0 0 -5.43,11.81 c 1.35,4.25 5.77,6.38 10.92,5.32 0.95,-0.17 1.73,-0.56 2.63,0.11 z"
         fill="#a50000"
         id="path142" />
      <path
         d="m 500.8,97 c 3.64,2.92 7.33,1.74 11,0.62 1.06,5.26 -1,7.89 -6,7.89 -7.28,0 -13.55,-4.08 -15.56,-10.07 -2.18,-6.55 0.17,-13.6 6,-18.14 9.07,-6.94 21.16,-5 26.37,4.26 1.79,3.19 1.57,3.86 -1.79,5.43 -6,2.79 -11.93,5.59 -17.91,8.39 A 4.59,4.59 0 0 0 500.8,97 Z m -3,-5.93 a 162.37,162.37 0 0 0 15.79,-7.44 9,9 0 0 0 -10.64,-2 9.06,9.06 0 0 0 -5.15,9.46 z"
         fill="#a50000"
         id="path144" />
      <path
         d="m 435.14,97 c 3.42,2.86 7.05,1.63 10.92,0.45 a 22.35,22.35 0 0 1 -1.63,7.28 c -0.28,0.84 -1.12,1 -1.84,1.06 -10.41,1.57 -20.38,-5.93 -19.48,-16.4 0.84,-9.63 11.25,-17.18 21.27,-15.56 a 16.25,16.25 0 0 1 12.93,9.8 c 0.84,1.84 0.56,2.8 -1.4,3.58 -6.16,2.57 -12.26,5.26 -18.36,8 -0.78,0.5 -1.85,0.78 -2.41,1.84 z m -3.41,-6 c 3.13,-0.62 14.1,-5.37 16.45,-7.16 A 9,9 0 0 0 437.66,81.37 9.44,9.44 0 0 0 431.73,91 Z"
         fill="#a50000"
         id="path146" />
      <path
         d="m 632.67,87.21 c 0.17,10.3 -8.06,18.64 -16.23,19 -4.65,0.17 -9,-0.06 -12.76,-3.08 -7.28,-5.82 -8.12,-13.94 -2.24,-21.32 6.38,-8 16.85,-9.63 25.19,-3.87 3.86,2.75 5.93,6.55 6,9.24 z m -18.36,12.87 c 5.54,0 10.52,-4.64 10.52,-9.79 0,-4.65 -4.47,-8.73 -9.51,-8.68 -5.37,0.11 -10.19,5 -10.13,10.3 0,4.59 4,8.17 9.12,8.17 z"
         fill="#a50000"
         id="path148" />
      <path
         d="m 649.52,82.06 c -4.25,0.06 -4.14,0.06 -5.21,4.42 -1.45,5.77 -3.19,11.48 -4.87,17.19 -0.28,1 -0.5,2.12 -1.9,2 -1.79,-0.22 -3.75,0.62 -5.37,-0.5 -0.67,-0.45 -0.34,-1.4 -0.17,-2.13 1.9,-8.56 4.48,-16.9 6.83,-25.3 a 2.7,2.7 0 0 1 3.08,-2.18 c 4.31,0.11 8.56,0 12.87,0 6,0.06 8.51,2.8 7.45,8.62 a 191.37,191.37 0 0 1 -5,19.76 c -0.56,1.79 -1.91,1.9 -3.53,1.79 -5.09,-0.34 -5,-0.28 -3.64,-5.15 1.23,-4.36 2.35,-8.79 3.53,-13.21 1.19,-5.09 0.97,-5.37 -4.07,-5.31 z"
         fill="#a50000"
         id="path150" />
      <path
         d="m 337.58,87.83 c -0.56,-12.1 9.18,-20 18.58,-21.83 a 48.45,48.45 0 0 1 9.46,-0.84 c 2,0 2.91,0.44 2.41,2.79 -1,4.65 -0.95,4.82 -5.76,4.82 -4.43,0 -8.51,0.89 -11.93,3.8 -4.47,3.81 -5.82,8.68 -4.42,14.33 1.29,5.1 5.43,6.89 9.91,7.78 2,0.4 2.46,0.84 1.9,2.8 -1.68,6 -0.84,6.55 -8,4.26 A 17.55,17.55 0 0 1 337.58,87.83 Z"
         fill="#a50000"
         id="path152" />
      <path
         d="m 468.45,99.08 a 18.75,18.75 0 0 1 -1.29,2.35 c -1.23,1.4 -1.51,4.19 -4.2,3.69 a 7.49,7.49 0 0 1 -6,-5.6 10,10 0 0 1 0.06,-5 c 2.18,-9.12 4.42,-18.25 6.66,-27.37 0.39,-1.57 1.17,-2.69 3.13,-2.46 a 46.07,46.07 0 0 0 4.87,0.05 c 0.84,2.58 -0.39,4.82 -0.95,7.06 -0.5,1.9 -0.22,2.57 1.74,2.57 1.23,0 2.8,-0.5 2.85,1.62 0.06,3 -1.23,5.66 -3,5.43 -3.47,-0.44 -4.54,1.18 -5,4.26 -0.45,2.91 -1.29,5.82 -2,8.67 -0.61,2.47 -1.23,4.87 3.14,4.71 z"
         fill="#a50000"
         id="path154" />
      <path
         d="m 488.6,64.71 c 0,3.41 -1.74,6.1 -1.51,9 0.22,0.17 0.39,0.39 0.5,0.39 4.48,0.51 5.15,1.74 3.13,5.88 -0.72,1.51 -2.07,1.4 -3.35,1.34 -1.85,-0.11 -2.86,0.45 -3.25,2.52 -0.67,3.53 -1.68,7 -2.52,10.52 -0.56,2.3 -0.56,4.37 3,4.76 -1.18,2.46 -1.79,5.32 -4.43,5.77 -2.64,0.45 -4.7,-1.4 -6,-3.75 a 8.18,8.18 0 0 1 -0.84,-5.94 c 1.9,-9.62 4.59,-19.08 7.16,-28.54 a 2.31,2.31 0 0 1 2.64,-2 c 1.72,0.1 3.45,0.05 5.47,0.05 z"
         fill="#a50000"
         id="path156" />
      <path
         d="m 404.13,105.85 c 0.45,-3.25 0.23,-6.33 3.42,-8.45 2.12,-1.46 2.24,-4.37 2.85,-6.78 1.07,-4.42 1.85,-9 5.38,-12.31 a 11.83,11.83 0 0 1 7.61,-3.69 c 1.68,-0.12 2.46,0.61 2,2.35 -0.73,2.52 -1,5.31 -3.7,6.83 -1.06,0.55 -1.34,2 -1.62,3.13 -0.78,3.08 -1.46,6.16 -2.3,9.18 -1.79,6.27 -7.44,10.47 -13.6,9.74 z"
         fill="#a50000"
         id="path158" />
      <path
         d="m 393.22,106.13 c -1,0.11 -2,-0.34 -1.79,-1.46 0.5,-2.46 0.33,-5.2 2.85,-6.94 2.35,-1.62 2.46,-4.48 3.14,-6.94 0.84,-3.24 1.28,-6.55 3,-9.51 a 13.2,13.2 0 0 1 9.35,-6.83 c 1.85,-0.34 2.8,0.17 2.35,2.12 -0.56,2.58 -0.61,5.38 -3.41,7 -1,0.55 -1.29,1.79 -1.57,2.85 -0.84,3.25 -1.62,6.44 -2.46,9.68 -1.4,5.6 -6.55,10.13 -11.42,10.08 z"
         fill="#a50000"
         id="path160" />
      <path
         d="m 586.1,74.84 c 2.74,-0.06 3.53,0.62 2.69,2.85 a 20,20 0 0 1 -3.86,6.55 c -2.63,2.8 -2.63,7 -3.64,10.58 -1.57,5.54 -4.54,9.63 -10.41,11.08 -2.75,0.68 -3.42,0.12 -2.8,-2.68 0.5,-2.24 0.89,-4.42 3.3,-5.82 1.4,-0.84 1.57,-2.8 2,-4.43 1.12,-4.14 1.79,-8.45 4.14,-12.2 a 12.13,12.13 0 0 1 8.56,-5.93 z"
         fill="#a50000"
         id="path162" />
      <path
         d="m 588.06,105.85 c -0.73,-0.06 -1.45,-0.17 -2.24,-0.23 -1.62,-0.11 -2,-0.72 -1.51,-2.35 2.18,-8.5 4.31,-17.07 6.33,-25.63 0.33,-1.57 1.45,-1.79 2.57,-2.13 a 5.47,5.47 0 0 1 1.68,-0.11 c 4.53,-0.11 4.81,0.22 3.58,4.7 -2.07,7.56 -4.14,15.11 -6,22.78 -0.66,2.52 -2.11,3.12 -4.41,2.97 z"
         fill="#a50000"
         id="path164" />
      <path
         d="m 572.16,75.51 c 0,3.86 -1.62,7.5 -2.4,11.2 -1.18,5.37 -2.75,10.63 -4.14,16 -0.28,1.07 -0.28,2.58 -1.52,2.75 -2,0.28 -4.14,0.61 -6,-0.17 -1.18,-0.51 -0.5,-2.07 -0.22,-3.08 2.07,-7.33 3.75,-14.72 5.54,-22.11 1.23,-5.15 2.46,-5.82 8.78,-4.59 z"
         fill="#a50000"
         id="path166" />
      <path
         d="m 593.32,70.75 c 0.34,-4.25 3.53,-6.32 7.22,-4.81 1,0.39 1,1.12 0.84,1.85 -0.22,1.34 -0.17,3.08 -1.84,3.41 -2.08,0.34 -4.26,0.62 -6.22,-0.45 z"
         fill="#a50000"
         id="path168" />
      <path
         d="m 436.09,64.76 a 9.15,9.15 0 0 1 -2.46,-0.44 l -0.67,-0.23 0.11,-0.73 c 2.18,-12.31 4.31,-24.74 6.55,-37.27 l 0.11,-0.67 0.67,-0.06 a 7.76,7.76 0 0 0 1,-0.11 10.32,10.32 0 0 1 1.4,-0.11 3.24,3.24 0 0 1 2.46,0.95 20,20 0 0 1 11,-3.31 h 0.34 c 4.76,0.12 8.56,1.68 11.08,4.54 2.52,2.86 3.47,6.83 2.91,11.42 -1.12,9.18 -9.9,16.62 -19.53,16.62 A 16.79,16.79 0 0 1 445.74,54.52 16.24,16.24 0 0 1 441.13,52 c -0.11,0.67 -0.28,1.34 -0.39,2 -0.45,2.35 -0.9,4.59 -1.12,6.83 -0.34,2.63 -1.51,4 -3.53,4 z m 19.48,-36.83 c -4.31,0 -11.47,4.65 -12.48,11.7 a 9.64,9.64 0 0 0 2.07,7.67 8.24,8.24 0 0 0 6.27,2.8 9.17,9.17 0 0 0 3.19,-0.56 14.27,14.27 0 0 0 9.52,-9.85 9.36,9.36 0 0 0 -1.46,-8.34 8.49,8.49 0 0 0 -6.88,-3.42 z"
         fill="#fff200"
         id="path170" />
      <path
         d="m 456.13,23.62 h 0.34 c 9.07,0.17 14.33,6 13.21,15.06 -1.12,9.06 -9.85,15.84 -18.75,15.84 a 17.72,17.72 0 0 1 -5.1,-0.78 17.51,17.51 0 0 1 -5.43,-3.3 c -0.61,3.69 -1.4,6.94 -1.73,10.24 -0.23,2.18 -1,3.19 -2.63,3.19 a 7.23,7.23 0 0 1 -2.19,-0.45 c 2.19,-12.31 4.31,-24.74 6.55,-37.28 0.79,-0.05 1.57,-0.22 2.35,-0.22 a 2.65,2.65 0 0 1 2.36,1.23 19.27,19.27 0 0 1 11,-3.53 m -4.64,27.32 a 9.65,9.65 0 0 0 3.47,-0.62 14.89,14.89 0 0 0 10,-10.41 c 1.9,-6.55 -2.63,-12.87 -9.13,-12.87 h -0.33 c -4.71,0 -12.26,4.92 -13.27,12.42 -0.84,6.44 3.47,11.48 9.24,11.48 m 4.64,-29 a 20.5,20.5 0 0 0 -10.87,3.06 4.33,4.33 0 0 0 -2.52,-0.72 6.66,6.66 0 0 0 -1.51,0.16 5.32,5.32 0 0 1 -0.9,0.12 l -1.34,0.05 -0.23,1.29 c -2.18,12.54 -4.36,24.91 -6.54,37.28 l -0.18,1.47 1.4,0.45 a 9.06,9.06 0 0 0 2.69,0.5 c 1.73,0 3.92,-0.84 4.31,-4.7 0.22,-2.18 0.67,-4.42 1.12,-6.77 a 3.58,3.58 0 0 0 0.11,-0.73 14.14,14.14 0 0 0 3.75,2 18.86,18.86 0 0 0 5.6,0.9 c 10.07,0 19.25,-7.78 20.37,-17.36 0.62,-4.87 -0.5,-9.06 -3.13,-12.09 -2.63,-3.03 -6.72,-4.75 -11.7,-4.81 -0.06,-0.06 -0.17,-0.06 -0.34,-0.06 z m -4.64,27.32 a 7.46,7.46 0 0 1 -5.66,-2.52 8.92,8.92 0 0 1 -1.9,-7 c 0.9,-6.6 7.61,-11 11.64,-11 h 0.34 a 7.76,7.76 0 0 1 6.21,3.08 8.54,8.54 0 0 1 1.29,7.61 13.25,13.25 0 0 1 -9,9.3 9.53,9.53 0 0 1 -3,0.5 z"
         fill="#a50000"
         id="path172" />
      <path
         d="m 484.34,55.36 a 14.79,14.79 0 0 1 -8.67,-2.52 C 470.35,48.98 468.73,41.2 471.8,34.37 a 20.06,20.06 0 0 1 18.08,-11.64 19.86,19.86 0 0 1 4.43,0.5 11.5,11.5 0 0 1 7.55,5.43 l 0.39,0.62 L 480,48.2 a 7.21,7.21 0 0 0 5,2 11.68,11.68 0 0 0 3.47,-0.62 14,14 0 0 0 3.92,-2.18 c 1.35,-1 2.24,-1.68 3.31,-1.68 0.89,0 1.79,0.45 3.41,1.28 l 0.84,0.45 -0.5,0.79 c -2.92,4.19 -9,7.16 -15.12,7.16 z m 4.76,-27.43 a 11.85,11.85 0 0 0 -7.05,2.8 c -4.48,3.42 -6.5,8.45 -5.21,12.76 q 7.23,-6.12 14.44,-12.31 l 2.24,-1.9 a 8.14,8.14 0 0 0 -4.42,-1.35 z"
         fill="#fff200"
         id="path174" />
      <path
         d="m 489.88,23.51 a 17.74,17.74 0 0 1 4.2,0.51 10.73,10.73 0 0 1 7.05,5 c -7.5,6.38 -14.88,12.71 -22.33,19 a 8,8 0 0 0 6.2,2.92 12,12 0 0 0 3.75,-0.67 15.21,15.21 0 0 0 4.15,-2.3 c 1.34,-1 2,-1.51 2.8,-1.51 a 7.47,7.47 0 0 1 3,1.18 c -2.91,4.36 -8.85,6.88 -14.39,6.88 a 13.79,13.79 0 0 1 -8.17,-2.35 c -5,-3.64 -6.55,-10.91 -3.58,-17.46 a 19,19 0 0 1 17.29,-11.2 m -13.54,21.1 a 4.86,4.86 0 0 0 1,-0.44 c 5.88,-5 11.7,-10 17.63,-15 A 9.57,9.57 0 0 0 489.1,27 a 12.66,12.66 0 0 0 -7.56,3 c -5.09,3.92 -7.22,9.74 -5.2,14.61 M 489.88,21.83 A 20.93,20.93 0 0 0 471,34 c -3.25,7.22 -1.51,15.45 4.14,19.53 a 15.6,15.6 0 0 0 9.18,2.69 c 6.44,0 12.76,-3.08 15.79,-7.61 l 1,-1.57 -1.67,-0.84 a 8.44,8.44 0 0 0 -3.81,-1.4 c -1.4,0 -2.41,0.79 -3.81,1.85 a 13.39,13.39 0 0 1 -3.64,2.07 9.59,9.59 0 0 1 -3.19,0.56 6.39,6.39 0 0 1 -3.69,-1.12 l 14.61,-12.43 6.27,-5.37 1.12,-0.95 -0.73,-1.23 a 12.63,12.63 0 0 0 -8.12,-5.82 21,21 0 0 0 -4.57,-0.53 z m -12.53,20.1 c -0.51,-3.7 1.4,-7.73 5.15,-10.58 a 11,11 0 0 1 6.5,-2.63 6.92,6.92 0 0 1 3,0.67 l -1.34,1.12 c -4.31,3.8 -8.85,7.67 -13.32,11.42 z"
         fill="#a50000"
         id="path176" />
      <path
         d="m 393.05,55 c -2.8,0 -6.32,-0.39 -9.18,-3.64 a 11.25,11.25 0 0 1 -2.8,-5.26 c -0.33,-1.68 -0.45,-3 0.28,-3.92 0.73,-0.92 2.07,-1.17 4,-1.17 h 0.44 l 0.28,0.33 0.06,0.06 a 1.72,1.72 0 0 1 0.39,0.73 c 0.79,4.75 2.8,7.27 6.38,7.78 a 5.43,5.43 0 0 0 0.9,0 c 3.52,0 7.72,-2.8 9.57,-6.38 2.29,-4.42 1.45,-8.23 -2.52,-11.36 a 22.31,22.31 0 0 0 -4.92,-2.69 C 390.16,27.13 387.7,23.1 388.76,17.56 A 12.11,12.11 0 0 1 400.5,7.84 h 0.33 c 5.43,0 8.4,1.9 9.57,6.16 a 3.69,3.69 0 0 1 0.06,0.78 v 0.73 l -0.39,0.22 A 6.09,6.09 0 0 1 407,17 c -1.29,0 -2.35,-0.84 -3.19,-2.57 a 3,3 0 0 0 -2.8,-1.74 5.1,5.1 0 0 0 -2.24,0.56 6.92,6.92 0 0 0 -4.37,5.71 c -0.28,2.3 1.24,3.75 3.47,5.21 a 20.43,20.43 0 0 0 2.69,1.34 l 0.45,0.23 c 7.22,3.24 10.41,8.5 9.23,15.11 -1.28,7.44 -7.61,13.43 -14.72,14 A 12.52,12.52 0 0 1 393.05,55 Z"
         fill="#fff200"
         id="path178" />
      <path
         d="m 400.83,8.68 c 5,0 7.73,1.68 8.79,5.54 a 4.66,4.66 0 0 1 0,0.84 5.26,5.26 0 0 1 -2.62,1.12 c -0.89,0 -1.68,-0.56 -2.46,-2.13 a 3.75,3.75 0 0 0 -3.53,-2.18 6.31,6.31 0 0 0 -2.57,0.62 7.78,7.78 0 0 0 -4.81,6.38 c -0.34,2.91 1.68,4.59 3.86,6 a 23.32,23.32 0 0 0 3.24,1.62 c 6.83,3.08 9.86,8 8.79,14.22 -1.23,7 -7.22,12.76 -13.93,13.26 -0.84,0.06 -1.68,0.11 -2.52,0.11 -3.19,0 -6.16,-0.61 -8.57,-3.36 A 10.29,10.29 0 0 1 382,45.85 c -0.73,-3.31 -0.06,-4 3.47,-4.09 0.11,0.17 0.28,0.28 0.28,0.45 0.84,5.15 3.13,7.89 7.11,8.5 a 5.6,5.6 0 0 0 1,0.06 c 3.81,0 8.29,-2.91 10.36,-6.83 2.46,-4.76 1.51,-9 -2.74,-12.37 a 22.31,22.31 0 0 0 -5.15,-2.8 c -5.49,-2.29 -7.67,-6 -6.72,-11.08 a 11.38,11.38 0 0 1 10.89,-9.07 0.65,0.65 0 0 0 0.33,0.06 m 0,-1.68 h -0.39 A 13,13 0 0 0 387.9,17.41 c -0.78,4.09 -0.11,9.68 7.73,13 a 20.48,20.48 0 0 1 4.75,2.59 c 3.64,2.91 4.37,6.27 2.3,10.3 -1.74,3.3 -5.6,5.93 -8.85,5.93 a 3.79,3.79 0 0 1 -0.78,-0.05 c -2.18,-0.34 -4.76,-1.4 -5.71,-7.11 a 2.29,2.29 0 0 0 -0.61,-1.18 l -0.51,-0.67 h -0.84 c -1.68,0.06 -3.58,0.17 -4.64,1.51 -1.06,1.34 -0.79,3.08 -0.45,4.65 a 12.3,12.3 0 0 0 12.82,9.57 c 0.78,0 1.62,-0.06 2.63,-0.11 7.44,-0.56 14.1,-6.89 15.5,-14.67 1.23,-6.94 -2.24,-12.65 -9.74,-16 l -0.45,-0.23 a 15,15 0 0 1 -2.57,-1.29 c -2.46,-1.56 -3.3,-2.79 -3.08,-4.42 a 6.23,6.23 0 0 1 3.86,-5.09 5,5 0 0 1 1.85,-0.45 2,2 0 0 1 2,1.23 c 1,2 2.35,3 4,3 a 6.53,6.53 0 0 0 3.53,-1.39 l 0.72,-0.51 v -1.13 a 3.65,3.65 0 0 0 -0.05,-1.06 C 410,9.18 406.65,7 400.83,7 Z"
         fill="#a50000"
         id="path180" />
      <path
         d="m 421.21,55.19 a 13.14,13.14 0 0 1 -6.11,-1.45 8.48,8.48 0 0 1 -4.81,-8.9 c 0.56,-4.42 1.29,-8.9 2.07,-13.27 0.34,-1.84 0.62,-3.69 0.95,-5.54 l 0.11,-0.73 h 6.05 l -1,5.54 c -0.45,2.58 -0.84,5.15 -1.29,7.73 -0.11,0.67 -0.22,1.34 -0.39,2.07 -0.17,0.73 -0.34,1.73 -0.45,2.63 a 5.32,5.32 0 0 0 2.3,5.54 5,5 0 0 0 3.07,1.07 6,6 0 0 0 2.64,-0.68 9.3,9.3 0 0 0 5.54,-6.94 c 0.67,-3.86 1.34,-7.72 2.07,-11.64 l 0.89,-4.81 0.4,-0.17 a 4.86,4.86 0 0 1 2.29,-0.45 14.81,14.81 0 0 1 2.24,0.23 l 1.12,0.16 -0.17,0.9 c -0.5,2.35 -0.84,4.76 -1.17,7.05 a 72.08,72.08 0 0 1 -2.69,12.76 c -2,5.21 -7.56,8.9 -13.71,8.9 z"
         fill="#fff200"
         id="path182" />
      <path
         d="m 435.42,26 a 18.81,18.81 0 0 1 2.35,0.23 c -1.34,6.66 -1.68,13.43 -3.86,19.76 -1.79,5.15 -7.33,8.34 -12.76,8.34 A 12.78,12.78 0 0 1 415.38,53 7.6,7.6 0 0 1 411,44.89 c 0.78,-6.27 2,-12.48 3,-18.75 h 4.31 c -0.72,4.2 -1.39,8.23 -2.07,12.32 -0.28,1.56 -0.61,3.08 -0.84,4.64 a 6.28,6.28 0 0 0 2.6,6.38 5.93,5.93 0 0 0 3.59,1.23 6.69,6.69 0 0 0 3,-0.78 c 3.13,-1.57 5.37,-3.92 6,-7.56 0.89,-5.31 1.9,-10.63 2.85,-16 a 4.91,4.91 0 0 1 2,-0.4 m 0,-1.67 a 6.63,6.63 0 0 0 -2.63,0.5 l -0.78,0.34 -0.17,0.89 c -0.28,1.46 -0.5,2.91 -0.78,4.42 -0.68,3.81 -1.4,7.78 -2.07,11.65 -0.51,2.85 -2.13,4.86 -5.1,6.38 a 5.23,5.23 0 0 1 -2.29,0.61 4.27,4.27 0 0 1 -2.62,-0.89 4.64,4.64 0 0 1 -2,-4.76 c 0.11,-0.84 0.28,-1.74 0.45,-2.58 0.11,-0.67 0.28,-1.4 0.39,-2.07 0.45,-2.57 0.9,-5.2 1.35,-7.78 0.22,-1.51 0.5,-3 0.78,-4.53 l 0.34,-2 h -7.73 l -0.22,1.4 c -0.28,1.85 -0.62,3.69 -0.95,5.54 -0.73,4.37 -1.52,8.84 -2.08,13.27 a 9.36,9.36 0 0 0 5.27,9.79 14.15,14.15 0 0 0 6.55,1.52 c 6.49,0 12.43,-3.92 14.33,-9.51 a 69.11,69.11 0 0 0 2.74,-12.93 c 0.34,-2.3 0.67,-4.7 1.18,-7 l 0.33,-1.73 -1.79,-0.23 -0.22,-0.05 a 10.2,10.2 0 0 0 -2.3,-0.28 z"
         fill="#a50000"
         id="path184" />
      <path
         d="m 502.31,54.41 c -0.5,0 -1,-0.06 -1.51,-0.06 -0.28,0 -0.56,-0.05 -0.84,-0.05 l -0.95,-0.06 2.07,-11.92 C 502,36.83 503,31.46 503.93,26 l 0.12,-0.67 h 4.7 l 0.22,0.12 a 1.56,1.56 0 0 1 0.78,1.45 c 1.85,-1.12 3.7,-2.24 6.11,-2.24 a 6.06,6.06 0 0 1 1.73,0.23 l 0.62,0.16 v 0.68 c 0,1.84 -0.12,3.41 -2.63,4.47 a 13,13 0 0 0 -8.12,10.25 c -0.62,3.13 -1.18,6.38 -1.74,9.51 L 505,54 l -0.51,0.17 a 12,12 0 0 1 -2.18,0.24 z"
         fill="#fff200"
         id="path186" />
      <path
         d="m 515.91,25.47 a 8,8 0 0 1 1.57,0.17 c 0,1.68 -0.06,2.8 -2.13,3.69 a 14,14 0 0 0 -8.67,10.86 c -0.84,4.37 -1.57,8.73 -2.35,13.1 a 6.44,6.44 0 0 1 -2,0.28 c -0.73,0 -1.46,-0.06 -2.29,-0.11 1.62,-9.24 3.19,-18.25 4.81,-27.32 h 3.75 c 0.78,0.45 -0.11,1.46 0.73,2 2,-1.17 4,-2.63 6.6,-2.63 m 0,-1.68 a 10.94,10.94 0 0 0 -5.6,1.79 2.42,2.42 0 0 0 -0.84,-0.89 L 509.1,24.5 h -5.59 l -0.23,1.4 c -0.95,5.54 -2,11.09 -2.91,16.63 l -1.9,10.69 -0.36,1.78 1.91,0.12 c 0.27,0 0.55,0 0.78,0 a 13.22,13.22 0 0 0 1.57,0.06 8.56,8.56 0 0 0 2.51,-0.34 l 1,-0.28 0.17,-1 c 0.22,-1.24 0.45,-2.41 0.67,-3.64 0.56,-3.08 1.12,-6.33 1.68,-9.46 A 12.06,12.06 0 0 1 516,31 c 3.08,-1.29 3.25,-3.42 3.19,-5.32 l -0.05,-1.29 -1.29,-0.28 a 6.23,6.23 0 0 0 -2,-0.28 z"
         fill="#a50000"
         id="path188" />
    </g>
  </g>
</svg>
