<?xml version="1.0" encoding="UTF-8" standalone="no"?>
<svg
   id="Ebene_2"
   data-name="Ebene 2"
   viewBox="0 0 514 84.639999"
   version="1.1"
   sodipodi:docname="segacd.svg"
   width="514"
   height="84.639999"
   inkscape:version="1.1 (c68e22c387, 2021-05-23)"
   xmlns:inkscape="http://www.inkscape.org/namespaces/inkscape"
   xmlns:sodipodi="http://sodipodi.sourceforge.net/DTD/sodipodi-0.dtd"
   xmlns="http://www.w3.org/2000/svg"
   xmlns:svg="http://www.w3.org/2000/svg"
   xmlns:rdf="http://www.w3.org/1999/02/22-rdf-syntax-ns#"
   xmlns:cc="http://creativecommons.org/ns#"
   xmlns:dc="http://purl.org/dc/elements/1.1/">
  <defs
     id="defs23" />
  <sodipodi:namedview
     id="namedview21"
     pagecolor="#ffffff"
     bordercolor="#666666"
     borderopacity="1.0"
     inkscape:pageshadow="2"
     inkscape:pageopacity="0.0"
     inkscape:pagecheckerboard="0"
     showgrid="false"
     fit-margin-top="0"
     fit-margin-left="0"
     fit-margin-right="0"
     fit-margin-bottom="0"
     inkscape:zoom="1.113"
     inkscape:cx="257.4124"
     inkscape:cy="42.228212"
     inkscape:window-width="1920"
     inkscape:window-height="1138"
     inkscape:window-x="-8"
     inkscape:window-y="-8"
     inkscape:window-maximized="1"
     inkscape:current-layer="Ebene_2" />
  <title
     id="title2">logo</title>
  <g
     id="g850"
     transform="translate(-243,-14.68)">
    <path
       d="M 750,21.68 V 92.32 H 250 V 21.68 h 500 m 0,-7 H 250 a 7,7 0 0 0 -7,7 v 70.64 a 7,7 0 0 0 7,7 h 500 a 7,7 0 0 0 7,-7 V 21.68 a 7,7 0 0 0 -7,-7 z"
       fill="#ffffff"
       id="path4" />
    <rect
       x="254.5"
       y="26.18"
       width="491"
       height="61.639999"
       id="rect6" />
    <path
       d="m 320,46 -1.41,-0.66 a 3.89,3.89 0 0 0 0.17,-1 c 0,-1 -8.35,-6.07 -22.83,-6.07 -13.86,0 -19.81,3.53 -19.81,8 0,12 52.33,-5.56 52.33,20.91 0,9.65 -11.38,17.1 -34.12,17.1 -21.67,0 -27.89,-5.7 -29.94,-5.7 -0.53,0 -0.79,0.37 -1.24,0.59 L 262,79 l 7.38,-12.43 1.41,0.58 a 11.82,11.82 0 0 0 -0.18,1.17 c 0,4.32 11.47,7.39 22.83,7.39 16.17,0 21.68,-3.8 21.68,-7.83 0,-14.32 -51.61,3.44 -51.61,-20.83 0,-12.28 15.72,-17.4 33,-17.4 15.45,0 26.29,5.56 27.36,5.56 a 2,2 0 0 0 1.6,-0.52 l 1.41,0.37 z"
       fill="#b2ae85"
       id="path8" />
    <path
       d="m 335.3,82.59 c 2,0 2.31,-0.59 2.31,-2.2 V 33.61 c 0,-1.61 -0.35,-2.2 -2.31,-2.2 v -1 H 393 c 2.12,0 3,-0.58 3,-1.6 h 1.24 V 40.92 H 396 c 0,-1.32 -0.89,-1.9 -3,-1.9 h -42.8 v 13 h 27.9 c 2.12,0 3,-0.58 3,-1.9 h 1.24 v 12.29 h -1.22 a 1.31,1.31 0 0 0 -0.7,-1.31 4.42,4.42 0 0 0 -2.31,-0.45 H 350.2 V 75 h 43.54 c 2.12,0 3,-0.58 3,-1.75 H 398 v 12 h -1.24 c 0,-1 -0.89,-1.6 -3,-1.6 H 335.3 Z"
       fill="#b2ae85"
       id="path10" />
    <path
       d="m 476.81,55.54 v 1 c -0.89,0.15 -1.69,0.71 -1.69,2.34 V 73.3 c 0,1.18 0.45,1.61 1.61,1.83 v 1 c -5.61,2.62 -19.29,8.18 -34.62,8.18 -20.43,0 -38.37,-8.33 -38.37,-27.34 0,-19.01 21,-27.34 39.44,-27.34 a 78.05,78.05 0 0 1 19.28,2.7 c 4.7,1.68 8.17,3 8.79,3 a 2.68,2.68 0 0 0 2,-0.81 l 1.24,0.44 -8.62,12 -1.24,-0.66 a 4.33,4.33 0 0 0 0.18,-1.24 c 0,-2.27 -9.6,-6.8 -21.41,-6.8 -14.93,0 -27,6.06 -27,18.42 0,12.94 12.08,19 25.76,19 11.2,0 17.77,-3.15 20.43,-4.75 V 64.9 h -15.36 c -1.77,0 -2.83,0.7 -2.83,1.75 h -1.24 V 53.79 h 1.24 c 0,1 1.07,1.75 2.83,1.75 z"
       fill="#b2ae85"
       id="path12" />
    <path
       d="m 481.25,83.62 v -1 c 1.6,-0.07 2.12,-0.44 3.37,-2.77 l 24.26,-44.9 a 5.16,5.16 0 0 0 1,-2.19 c 0,-0.81 -0.7,-1.17 -1.86,-1.32 v -1 h 19.37 v 1 c -1.34,0.15 -1.87,0.59 -1.87,1.1 a 4.11,4.11 0 0 0 0.79,1.89 l 25.77,45.42 c 1.24,2.26 1.6,2.77 3.46,2.77 v 1 h -17.69 v -1 c 1.16,0 1.61,-0.37 1.61,-0.71 0,-0.79 -0.8,-1.82 -6.76,-12.28 h -30.49 c -5.15,9.48 -6.5,10.94 -6.5,11.9 0,0.65 0.54,1 1.34,1.09 v 1 z M 527.53,61.24 516.9,42.09 506.39,61.24 Z"
       fill="#b2ae85"
       id="path14" />
    <path
       d="M 750,92.32 H 250 V 21.68 h 500 z m -495.5,-4.5 h 491 V 26.18 h -491 z"
       fill="#b2ae85"
       id="path16" />
    <path
       d="M 570.92,30.38 V 83.62 H 741.86 V 30.38 Z m 7.25,37.37 c -1.42,-9.48 30.05,-22.11 71.06,-28.76 l -2.72,0.7 -5.14,1.31 c -20.92,5.07 -35.58,14.28 -34.37,22.44 1.25,8.37 18.73,12.89 41,11.34 1.23,-0.09 5.65,-0.3 6.57,-0.34 -41.19,5.64 -74.99,2.79 -76.4,-6.69 z m 102.51,2 c -9.09,2.06 -20.49,3.81 -20.49,3.81 V 49.87 l 5.86,19.32 c 0,0 14,-2.26 24.62,-6.68 9.18,-3.84 14.93,-8.66 14.55,-13.8 -0.63,-8.34 -18.37,-12.79 -40.27,-11.37 -1.46,0.09 -6.3,0.33 -7.26,0.38 41.16,-5.65 74.95,-2.83 76.37,6.67 1.22,8.06 -21.38,18.4 -53.38,25.41 z"
       fill="#b2ae85"
       id="path18" />
  </g>
  <metadata
     id="metadata840">
    <rdf:RDF>
      <cc:Work
         rdf:about="">
        <dc:title>logo</dc:title>
      </cc:Work>
    </rdf:RDF>
  </metadata>
</svg>
