<?xml version="1.0" encoding="UTF-8" standalone="no"?>
<svg
   viewBox="0 0 319.54816 114.00127"
   version="1.1"
   id="svg86"
   sodipodi:docname="sg1000.svg"
   width="319.54816"
   height="114.00127"
   inkscape:version="1.1 (c68e22c387, 2021-05-23)"
   xmlns:inkscape="http://www.inkscape.org/namespaces/inkscape"
   xmlns:sodipodi="http://sodipodi.sourceforge.net/DTD/sodipodi-0.dtd"
   xmlns="http://www.w3.org/2000/svg"
   xmlns:svg="http://www.w3.org/2000/svg"
   xmlns:rdf="http://www.w3.org/1999/02/22-rdf-syntax-ns#"
   xmlns:cc="http://creativecommons.org/ns#"
   xmlns:dc="http://purl.org/dc/elements/1.1/">
  <defs
     id="defs90" />
  <sodipodi:namedview
     id="namedview88"
     pagecolor="#ffffff"
     bordercolor="#666666"
     borderopacity="1.0"
     inkscape:pageshadow="2"
     inkscape:pageopacity="0.0"
     inkscape:pagecheckerboard="0"
     showgrid="false"
     fit-margin-top="0"
     fit-margin-left="0"
     fit-margin-right="0"
     fit-margin-bottom="0"
     inkscape:zoom="1.113"
     inkscape:cx="159.47889"
     inkscape:cy="56.603774"
     inkscape:window-width="1920"
     inkscape:window-height="1138"
     inkscape:window-x="-8"
     inkscape:window-y="-8"
     inkscape:window-maximized="1"
     inkscape:current-layer="svg86" />
  <title
     id="title2">logo</title>
  <g
     id="g951"
     transform="translate(-340.22332,0.00127622)">
    <g
       id="Layer_2"
       data-name="Layer 2">
      <rect
         x="438.55554"
         y="52.812569"
         width="34.266842"
         height="39.8209"
         fill="#ffffff"
         id="rect4" />
      <rect
         x="485.44443"
         y="58.640308"
         width="17.83609"
         height="33.99316"
         fill="#ffffff"
         id="rect6" />
      <rect
         x="497"
         y="78.210442"
         width="146.44444"
         height="17.935471"
         fill="#ffffff"
         id="rect8" />
      <rect
         x="540.77777"
         y="58.583759"
         width="21.72224"
         height="14.13926"
         fill="#ffffff"
         id="rect10" />
    </g>
    <g
       id="Layer_1"
       data-name="Layer 1">
      <path
         d="m 411.25586,62.14037 a 3.50017,3.50017 0 0 1 -3.5,-3.5 v -7.18359 a 3.49985,3.49985 0 0 1 3.5,-3.5 h 22.51123 a 6.03059,6.03059 0 1 0 0,-12.061 h -5.88233 a 11.41859,11.41859 0 0 1 0,-22.83691 H 450.396 a 3.50019,3.50019 0 0 1 3.5,3.52832 l -0.0566,7.01367 a 3.50019,3.50019 0 0 1 -3.5,3.47168 h -2.99463 A 20.14788,20.14788 0 0 1 433.7671,62.14041 Z"
         fill="#ffffff"
         id="path13" />
      <path
         d="m 450.39589,16.55882 -0.0565,7.01361 h -22.45476 a 0.88267,0.88267 0 0 0 -0.84839,0.905 0.86989,0.86989 0 0 0 0.84839,0.84839 h 5.88241 a 16.65728,16.65728 0 1 1 0,33.31452 H 411.2556 V 51.457 h 22.5113 a 9.53058,9.53058 0 1 0 0,-19.06108 h -5.88231 a 7.91876,7.91876 0 0 1 0,-15.83712 h 22.5113 m 0,-7 h -22.5113 a 14.91867,14.91867 0 0 0 0,29.83712 h 5.88231 a 2.5931,2.5931 0 0 1 2.55884,2.55883 2.53388,2.53388 0 0 1 -2.55884,2.50225 h -22.5113 a 7,7 0 0 0 -7,7 v 7.1833 a 7,7 0 0 0 7,7 h 22.5114 a 23.71238,23.71238 0 0 0 23.68555,-23.68555 23.44658,23.44658 0 0 0 -3.51565,-12.37632 6.99627,6.99627 0 0 0 3.40226,-5.9496 l 0.0565,-7.01362 A 7,7 0 0 0 450.39593,9.5588 Z m 0,14 z"
         fill="#ffffff"
         id="path15" />
      <path
         d="m 411.25586,53.31664 a 3.49985,3.49985 0 0 1 -3.5,-3.5 v -7.06982 a 3.49985,3.49985 0 0 1 3.5,-3.5 h 3.02783 A 20.15963,20.15963 0 0 1 427.88476,4.2351 h 22.45459 a 3.5003,3.5003 0 0 1 3.5,3.47217 l 0.0566,7.127 a 3.50017,3.50017 0 0 1 -3.5,3.52783 h -22.51123 a 6.0591,6.0591 0 0 0 0,12.11768 h 5.88233 a 11.41846,11.41846 0 0 1 0,22.83691 z"
         fill="#ffffff"
         id="path17" />
      <path
         d="m 450.33941,7.73535 0.0565,7.1267 h -22.51136 a 9.48663,9.48663 0 0 0 -9.50224,9.50225 9.58364,9.58364 0 0 0 9.50224,9.61537 h 5.88243 a 7.91855,7.91855 0 0 1 0,15.83709 h -22.5113 v -7.07012 h 22.45479 a 0.84842,0.84842 0 0 0 0,-1.69684 h -5.82581 a 16.65725,16.65725 0 0 1 0,-33.31445 h 22.45477 m 0,-7 h -22.45481 a 23.66471,23.66471 0 0 0 -20.17519,35.97474 6.99629,6.99629 0 0 0 -3.45379,6.03655 v 7.07012 a 7,7 0 0 0 7,7 H 433.767 a 14.91855,14.91855 0 0 0 0,-29.83709 h -5.88239 a 2.595,2.595 0 0 1 -2.50224,-2.61537 2.47562,2.47562 0 0 1 2.50224,-2.50225 h 22.51136 a 7,7 0 0 0 6.99979,-7.05552 l -0.0565,-7.12671 a 7,7 0 0 0 -6.99981,-6.94447 z"
         fill="#ffffff"
         id="path19" />
      <path
         d="M 467.873,62.08373 A 17.66042,17.66042 0 0 1 450.23291,44.4436 V 21.93237 A 17.66052,17.66052 0 0 1 467.873,4.29174 h 24.03858 a 3.49986,3.49986 0 0 1 3.5,3.5 v 7.07031 a 3.49986,3.49986 0 0 1 -3.5,3.5 H 467.873 a 3.5618,3.5618 0 0 0 -3.56982,3.457 V 44.4436 a 3.53162,3.53162 0 0 0 3.56982,3.56982 h 23.92578 a 3.49985,3.49985 0 0 1 3.5,3.5 v 7.07031 a 3.50017,3.50017 0 0 1 -3.5,3.5 z"
         fill="#ffffff"
         id="path21" />
      <path
         d="m 491.91174,7.79192 v 7.07013 h -24.03845 a 7.04963,7.04963 0 0 0 -7.07012,6.957 v 22.62442 a 7.03672,7.03672 0 0 0 7.07012,7.07014 h 23.92535 v 7.07012 H 467.87329 A 14.14538,14.14538 0 0 1 453.733,44.44347 V 21.93218 A 14.14539,14.14539 0 0 1 467.87329,7.79192 h 24.03845 m 0,-7 H 467.87329 A 21.16419,21.16419 0 0 0 446.733,21.93218 v 22.51129 a 21.16419,21.16419 0 0 0 21.14026,21.14026 h 23.92535 a 7,7 0 0 0 7,-7 v -7.07012 a 7,7 0 0 0 -7,-7 h -23.92532 c -0.0547,0 -0.0619,-0.01162 -0.065,-0.01659 a 0.19659,0.19659 0 0 1 -0.005,-0.05355 V 21.88994 a 0.10464,0.10464 0 0 1 0.0701,-0.02789 h 24.03845 a 7,7 0 0 0 7,-7 V 7.79192 a 7,7 0 0 0 -7,-7 z"
         fill="#ffffff"
         id="path23" />
      <path
         d="m 462.61328,35.783 a 3.50022,3.50022 0 0 1 -3.5,-3.481 l -0.0566,-10.35058 a 8.91589,8.91589 0 0 1 8.873,-8.94922 h 24.03858 a 3.49986,3.49986 0 0 1 3.5,3.5 v 7.0703 a 3.49986,3.49986 0 0 1 -3.5,3.5 h -1.53369 v 5.2105 a 3.49986,3.49986 0 0 1 -3.5,3.5 z"
         fill="#ffffff"
         id="path25" />
      <path
         d="m 491.96832,16.50225 v 7.07012 H 471.267 a 1.60647,1.60647 0 0 0 -1.64027,1.64028 h 17.30769 v 7.07018 h -24.32133 l -0.0565,-10.35071 a 5.41928,5.41928 0 0 1 5.37329,-5.42987 h 24.03845 m 0,-7 h -24.03845 a 12.41573,12.41573 0 0 0 -12.37329,12.42987 l 0.0566,10.38894 a 7,7 0 0 0 6.99989,6.96177 h 24.32129 a 7,7 0 0 0 7,-7 V 30.2925 a 7.00325,7.00325 0 0 0 5.03394,-6.72013 v -7.07012 a 7,7 0 0 0 -7,-7 z"
         fill="#ffffff"
         id="path27" />
      <path
         d="M 467.873,53.31664 A 8.88314,8.88314 0 0 1 459,44.4436 V 34.03637 a 3.49985,3.49985 0 0 1 3.5,-3.5 h 24.32129 a 3.49986,3.49986 0 0 1 3.5,3.5 v 5.21045 h 1.42089 a 3.49985,3.49985 0 0 1 3.5,3.5 V 49.76 a 3.5,3.5 0 0 1 -3.4917,3.5 z"
         fill="#ffffff"
         id="path29" />
      <path
         d="m 486.82129,34.03619 v 7.07018 h -17.30774 a 1.60649,1.60649 0 0 0 1.64032,1.64027 h 20.58821 v 7.01355 l -23.86881,0.05657 A 5.4075,5.4075 0 0 1 462.5,44.44347 V 34.03619 h 24.32131 m 0,-7 H 462.5 a 7,7 0 0 0 -7,7 v 10.40728 a 12.38732,12.38732 0 0 0 12.37329,12.37329 l 23.88541,-0.0566 a 7,7 0 0 0 6.9834,-7 v -7.01352 a 7.00287,7.00287 0 0 0 -4.92079,-6.686 v -2.02445 a 7,7 0 0 0 -7,-7 z"
         fill="#ffffff"
         id="path31" />
      <path
         d="m 539.53613,62.08373 a 3.4992,3.4992 0 0 1 -3.3125,-4.62988 c 0,0 14.38965,-42.20557 14.40237,-42.23877 a 5.798,5.798 0 0 1 5.42578,-3.853 5.68777,5.68777 0 0 1 5.48438,4.01856 l 11.23828,33.43408 a 3.49989,3.49989 0 0 1 -3.31738,4.61523 h -16.15921 l -2.13285,6.27976 a 3.50142,3.50142 0 0 1 -3.31446,2.374 z"
         fill="#ffffff"
         id="path33" />
      <path
         d="m 556.05206,14.862 a 2.19,2.19 0 0 1 2.14929,1.58368 L 569.457,49.92986 h -16.51584 v -6.33477 l -5.09046,14.98863 h -8.31449 l 14.3665,-42.138 a 2.31242,2.31242 0 0 1 2.14935,-1.58368 m -2.59222,27.20586 h 5.02435 l -2.48871,-7.46607 -2.53564,7.46607 M 556.05206,7.862 a 9.26836,9.26836 0 0 0 -8.70368,6.12584 q -0.0371,0.09892 -0.0712,0.19895 l -14.3665,42.13805 a 7,7 0 0 0 6.62551,9.25888 h 8.31449 a 7,7 0 0 0 6.62818,-4.74893 l 1.3262,-3.90493 h 13.652 a 7,7 0 0 0 6.63516,-9.2304 L 564.86534,14.30088 A 9.16235,9.16235 0 0 0 556.05206,7.862 Z"
         fill="#ffffff"
         id="path35" />
      <path
         d="M 508.7666,53.37328 A 8.93982,8.93982 0 0 1 499.83691,44.4436 L 499.78027,22.054 A 8.9417,8.9417 0 0 1 508.71,13.11547 h 23.30371 a 3.50017,3.50017 0 0 1 3.5,3.5 v 7.06983 a 3.50017,3.50017 0 0 1 -3.5,3.5 h -18.10649 v 3.35107 h 9.39551 a 3.50017,3.50017 0 0 1 3.5,3.5 v 15.83691 a 3.50017,3.50017 0 0 1 -3.5,3.5 z"
         fill="#ffffff"
         id="path37" />
      <path
         d="m 532.01355,16.61536 v 7.07011 h -19.96607 a 1.6065,1.6065 0 0 0 -1.64026,1.64033 v 15.8371 a 1.679,1.679 0 0 0 1.64026,1.64026 H 516.233 V 41.1629 h -4.18555 v -7.12671 h 11.25568 V 49.87328 H 508.767 a 5.46783,5.46783 0 0 1 -5.42987,-5.42981 h -1.3e-4 l -0.0565,-22.39824 a 5.46792,5.46792 0 0 1 5.42987,-5.42987 h 23.30317 m 0,-7 H 508.7104 a 12.444,12.444 0 0 0 -12.42987,12.42987 l 0.0565,22.41591 A 12.44033,12.44033 0 0 0 508.767,56.87328 h 14.5362 a 7,7 0 0 0 7,-7 V 34.03619 a 6.96943,6.96943 0 0 0 -0.85254,-3.35072 h 2.56293 a 7,7 0 0 0 7,-7 v -7.07011 a 7,7 0 0 0 -7,-7 z"
         fill="#ffffff"
         id="path39" />
      <path
         d="m 552.998,62.08373 a 3.50049,3.50049 0 0 1 -3.5,-3.5 v -7.07031 a 3.50017,3.50017 0 0 1 3.5,-3.5 h 13.96 L 556.4707,16.94506 a 0.3652,0.3652 0 0 0 -0.36231,-0.22314 0.4634,0.4634 0 0 0 -0.43066,0.25781 l -14.4668,42.72607 a 3.50044,3.50044 0 0 1 -3.31543,2.37793 H 508.7666 A 17.68841,17.68841 0 0 1 491.07031,44.4436 V 21.93237 A 17.66011,17.66011 0 0 1 508.71,4.29174 h 23.36035 a 3.50017,3.50017 0 0 1 3.5,3.5 v 7.07031 a 3.50017,3.50017 0 0 1 -3.5,3.5 H 508.7666 a 3.57406,3.57406 0 0 0 -3.56934,3.57032 V 44.4436 a 3.60262,3.60262 0 0 0 3.626,3.56982 H 521.5 V 35.83959 h -9.45215 a 3.50017,3.50017 0 0 1 -3.5,-3.5 v -7.07031 a 3.50017,3.50017 0 0 1 3.5,-3.5 h 20.02246 a 3.50017,3.50017 0 0 1 3.5,3.5 v 7.06641 l 6.46094,-18.94581 a 14.88358,14.88358 0 0 1 28.04394,0.0059 l 14.8584,44.06983 a 3.49958,3.49958 0 0 1 -3.31641,4.61816 z"
         fill="#ffffff"
         id="path41" />
      <path
         d="m 556.05206,7 a 11.00953,11.00953 0 0 1 10.69,7.46606 l 14.87561,44.11766 h -28.61993 v -7.07011 h 18.83484 L 559.72851,15.65386 a 3.88008,3.88008 0 0 0 -3.61993,-2.43213 3.986,3.986 0 0 0 -3.67645,2.43213 l -14.5362,42.92986 H 508.767 A 14.19383,14.19383 0 0 1 494.57018,44.44347 V 21.93211 A 14.1454,14.1454 0 0 1 508.71037,7.79186 h 23.35976 V 14.862 H 508.767 a 7.07269,7.07269 0 0 0 -7.0701,7.07011 v 22.51136 a 7.12119,7.12119 0 0 0 7.12669,7.07014 H 525 V 32.33933 h -12.95252 v -7.0701 h 20.02265 V 53.44214 L 545.362,14.46606 A 11.00958,11.00958 0 0 1 556.05206,7 m 0,-7 A 18.17047,18.17047 0 0 0 539.07013,11.25509 V 7.79186 a 7,7 0 0 0 -7,-7 H 508.71037 A 21.16419,21.16419 0 0 0 487.57013,21.93211 V 44.44347 A 21.19256,21.19256 0 0 0 508.767,65.58372 h 29.129 a 7,7 0 0 0 6.63022,-4.755 l 1.47159,-4.346 v 2.101 a 7,7 0 0 0 7,7 h 28.61993 a 7,7 0 0 0 6.63309,-9.23655 L 573.40545,12.31935 A 18.08059,18.08059 0 0 0 556.05206,0 Z m -6.265,45.29173 6.28858,-18.57213 6.00616,17.794 h -9.084 a 6.969,6.969 0 0 0 -3.2107,0.77812 z m -40.9635,-0.77812 a 0.17059,0.17059 0 0 1 -0.13006,-0.08128 l 9e-4,-5.94685 a 6.96964,6.96964 0 0 0 3.3531,0.85385 H 518 v 5.17428 z"
         fill="#ffffff"
         id="path43" />
      <path
         d="m 562.5,110.44311 c -7.43653,0 -11.70118,-4.26465 -11.70118,-11.70117 V 78.21069 c 0,-7.43653 4.26465,-11.70118 11.70118,-11.70118 h 30.76953 c 7.43652,0 11.70117,4.26465 11.70117,11.70118 v 20.53125 c 0,7.43652 -4.26465,11.70117 -11.70117,11.70117 z M 589.76953,95.24194 V 81.71069 H 566 v 13.53125 z"
         fill="#ffffff"
         id="path45" />
      <path
         d="m 593.26922,70.00909 c 5.48645,0 8.20136,2.71491 8.20136,8.20134 v 20.53168 c 0,5.48639 -2.71491,8.2013 -8.20136,8.2013 H 562.5 c -5.48639,0 -8.20137,-2.71491 -8.20137,-8.2013 V 78.21043 c 0,-5.48643 2.715,-8.20134 8.20137,-8.20134 h 30.76922 M 562.5,98.74211 h 30.76922 V 78.21043 H 562.5 v 20.53168 m 30.76922,-35.733 H 562.5 c -9.37654,0 -15.20137,5.82482 -15.20137,15.20134 v 20.53166 c 0,9.3765 5.82483,15.2013 15.20137,15.2013 h 30.76922 c 9.37656,0 15.20136,-5.8248 15.20136,-15.2013 V 78.21043 c 0,-9.37652 -5.8248,-15.20134 -15.20136,-15.20134 z M 569.5,85.21043 h 16.76922 v 6.53168 H 569.5 Z"
         fill="#ffffff"
         id="path47" />
      <path
         d="m 613.80078,110.44311 c -7.43653,0 -11.70117,-4.26465 -11.70117,-11.70117 V 78.21069 c 0,-7.43653 4.26464,-11.70118 11.70117,-11.70118 h 30.76953 c 7.43652,0 11.70117,4.26465 11.70117,11.70118 v 20.53125 c 0,7.43652 -4.26465,11.70117 -11.70117,11.70117 z M 641.07031,95.24194 V 81.71069 h -23.76953 v 13.53125 z"
         fill="#ffffff"
         id="path49" />
      <path
         d="m 644.57019,70.00909 c 5.48639,0 8.20129,2.71491 8.20129,8.20134 v 20.53168 c 0,5.48639 -2.7149,8.2013 -8.20129,8.2013 H 613.8009 c -5.48639,0 -8.20136,-2.71491 -8.20136,-8.2013 V 78.21043 c 0,-5.48643 2.715,-8.20134 8.20136,-8.20134 h 30.76929 m -30.76929,28.733 h 30.76929 V 78.21043 H 613.8009 v 20.53168 m 30.76929,-35.733 H 613.8009 c -9.37656,0 -15.20136,5.82482 -15.20136,15.20134 v 20.53166 c 0,9.3765 5.8248,15.2013 15.20136,15.2013 h 30.76929 c 9.37649,0 15.20129,-5.8248 15.20129,-15.2013 V 78.21043 c 0,-9.37652 -5.8248,-15.20134 -15.20129,-15.20134 z M 620.8009,85.21043 h 16.76929 v 6.53168 H 620.8009 Z"
         fill="#ffffff"
         id="path51" />
      <path
         d="m 347.22851,110.49975 a 3.50017,3.50017 0 0 1 -3.5,-3.5 v -8.20117 a 3.50017,3.50017 0 0 1 3.5,-3.5 h 3.18164 c -4.25927,-1.59668 -6.68164,-5.41309 -6.68164,-10.86621 v -6.165 c 0,-7.43653 4.26514,-11.70215 11.70117,-11.70215 h 36.93457 a 3.50017,3.50017 0 0 1 3.5,3.5 v 8.20215 a 3.50017,3.50017 0 0 1 -3.5,3.5 h -3.09179 c 4.24609,1.58007 6.59179,5.35058 6.59179,10.86621 v 6.165 c 0,7.43652 -4.26513,11.70117 -11.70117,11.70117 z"
         fill="#ffffff"
         id="path53" />
      <path
         d="M 392.36425,70.06559 V 78.267 h -36.93439 v 6.16516 h 28.733 c 5.48639,0 8.20134,2.715 8.20134,8.20136 v 6.16516 c 0,5.48645 -2.715,8.20136 -8.20134,8.20136 h -36.93434 v -8.2014 h 36.93439 v -6.16516 h -28.733 c -5.42986,0 -8.20134,-2.7715 -8.20134,-8.20136 V 78.267 c 0,-5.48639 2.71489,-8.20137 8.20134,-8.20137 h 36.93439 m 0,-7 h -36.93444 c -9.37652,0 -15.20134,5.82482 -15.20134,15.20137 v 6.16516 a 16.19019,16.19019 0 0 0 2.47646,9.02426 6.98511,6.98511 0 0 0 -2.47646,5.34226 V 107 a 7,7 0 0 0 7,7 h 36.93439 c 9.37651,0 15.20134,-5.82481 15.20134,-15.20136 v -6.16516 a 16.40728,16.40728 0 0 0 -2.42569,-9.06773 6.98453,6.98453 0 0 0 2.42569,-5.29879 v -8.20137 a 7,7 0 0 0 -7,-7 z"
         fill="#ffffff"
         id="path55" />
      <path
         d="m 464.14013,110.44311 a 3.50018,3.50018 0 0 1 -3.5,-3.5 v -8.20117 a 3.50017,3.50017 0 0 1 3.5,-3.5 h 8.83057 V 81.71069 h -8.83057 a 3.50018,3.50018 0 0 1 -3.5,-3.5 v -8.20118 a 3.50018,3.50018 0 0 1 3.5,-3.5 H 486.708 a 3.50017,3.50017 0 0 1 3.5,3.5 v 25.23243 h 8.83057 a 3.49975,3.49975 0 0 1 3.49951,3.5 v 8.20117 a 3.49976,3.49976 0 0 1 -3.49951,3.5 z"
         fill="#ffffff"
         id="path57" />
      <path
         d="m 486.70814,70.00908 v 28.733 h 12.33029 v 8.2013 h -34.89816 v -8.2013 h 12.33029 V 78.21045 h -12.33029 v -8.20137 h 22.56787 m 0,-7 h -22.56787 a 7,7 0 0 0 -7,7 v 8.20137 a 7,7 0 0 0 7,7 h 5.33029 v 6.53167 h -5.33029 a 7,7 0 0 0 -7,7 v 8.2013 a 7,7 0 0 0 7,7 h 34.89816 a 7,7 0 0 0 7,-7 v -8.2013 a 7,7 0 0 0 -7,-7 h -5.33029 v -21.733 a 7,7 0 0 0 -7,-7 z"
         fill="#ffffff"
         id="path59" />
      <rect
         x="442.14453"
         y="80.932373"
         width="21.366699"
         height="15.20117"
         rx="3.5"
         fill="#ffffff"
         id="rect61" />
      <path
         d="m 460.01129,84.43212 v 8.20136 h -14.36652 v -8.20136 h 14.36652 m 0,-7 h -14.36652 a 7,7 0 0 0 -7,7 v 8.20136 a 7,7 0 0 0 7,7 h 14.36652 a 7,7 0 0 0 7,-7 v -8.20136 a 7,7 0 0 0 -7,-7 z"
         fill="#ffffff"
         id="path63" />
      <path
         d="m 404.63818,110.44311 c -7.43652,0 -11.70166,-4.26465 -11.70166,-11.70117 V 78.21069 c 0,-7.43653 4.26514,-11.70118 11.70166,-11.70118 h 36.93408 a 3.50017,3.50017 0 0 1 3.5,3.5 v 8.20118 a 3.49743,3.49743 0 0 1 -1.84082,3.082 3.5001,3.5001 0 0 1 1.84082,3.083 v 22.56739 a 3.50017,3.50017 0 0 1 -3.5,3.5 z m 10.061,-15.20117 a 3.49121,3.49121 0 0 1 -1.231,-2.665 v -8.20122 a 3.49117,3.49117 0 0 1 1.231,-2.665 h -6.561 v 13.53122 z"
         fill="#ffffff"
         id="path65" />
      <path
         d="m 441.57238,70.00908 v 8.20136 H 404.638 v 20.53168 h 28.733 V 92.577 h -16.40269 v -8.2014 h 24.60407 v 22.56789 H 404.638 c -5.42986,0 -8.20134,-2.71492 -8.20134,-8.20137 V 78.21044 c 0,-5.48646 2.71489,-8.20136 8.20134,-8.20136 h 36.93439 m 0,-7 H 404.638 c -9.37652,0 -15.20134,5.82481 -15.20134,15.20136 v 20.53168 c 0,9.37655 5.82482,15.20136 15.20134,15.20136 h 36.93439 a 7,7 0 0 0 7,-7 V 84.3756 a 6.972,6.972 0 0 0 -0.71353,-3.08258 6.972,6.972 0 0 0 0.71353,-3.08258 v -8.20136 a 7,7 0 0 0 -7,-7 z"
         fill="#ffffff"
         id="path67" />
      <path
         d="m 511.25586,110.44311 c -7.43653,0 -11.70118,-4.26465 -11.70118,-11.70117 V 78.21069 c 0,-7.43653 4.26465,-11.70118 11.70118,-11.70118 h 30.76953 c 7.43652,0 11.70117,4.26465 11.70117,11.70118 v 20.53125 c 0,7.43652 -4.26465,11.70117 -11.70117,11.70117 z M 538.52539,95.24194 V 81.71069 h -23.76953 v 13.53125 z"
         fill="#ffffff"
         id="path69" />
      <path
         d="m 542.0249,70.00909 c 5.48639,0 8.20137,2.71491 8.20137,8.20134 v 20.53168 c 0,5.48639 -2.715,8.2013 -8.20137,8.2013 h -30.76923 c -5.48645,0 -8.20137,-2.71491 -8.20137,-8.2013 V 78.21043 c 0,-5.48643 2.71492,-8.20134 8.20137,-8.20134 h 30.76923 m -30.76923,28.733 H 542.0249 V 78.21043 h -30.76923 v 20.53168 m 30.76923,-35.733 h -30.76923 c -9.37654,0 -15.20137,5.82482 -15.20137,15.20134 v 20.53166 c 0,9.3765 5.82483,15.2013 15.20137,15.2013 h 30.76923 c 9.37654,0 15.20135,-5.8248 15.20135,-15.2013 V 78.21043 c 0,-9.37652 -5.82481,-15.20134 -15.20135,-15.20134 z m -23.76923,22.20132 h 16.76923 v 6.53168 h -16.76923 z"
         fill="#ffffff"
         id="path71" />
      <path
         d="M 411.25564,58.64029 H 433.767 a 16.65726,16.65726 0 1 0 0,-33.31447 h -5.8824 a 0.8699,0.8699 0 0 1 -0.84842,-0.84841 0.88267,0.88267 0 0 1 0.84842,-0.905 h 22.45475 l 0.0565,-7.01359 h -22.51132 a 7.91876,7.91876 0 0 0 0,15.83711 h 5.88236 a 9.53059,9.53059 0 1 1 0,19.0611 H 411.2556 v 7.18326 z"
         fill="#17569b"
         id="path73" />
      <path
         d="M 411.25564,49.81677 H 433.767 a 7.91855,7.91855 0 1 0 0,-15.83709 h -5.8824 a 9.58364,9.58364 0 0 1 -9.50226,-9.61538 9.48665,9.48665 0 0 1 9.50226,-9.5023 h 22.51131 l -0.0565,-7.12669 h -22.45475 a 16.65726,16.65726 0 0 0 0,33.31448 h 5.82579 a 0.84841,0.84841 0 1 1 0,1.69681 H 411.2557 v 7.07014 z m 56.61765,1.69683 a 7.03673,7.03673 0 0 1 -7.07013,-7.07013 V 21.819 a 7.04964,7.04964 0 0 1 7.07013,-6.957 h 24.03847 V 7.7919 H 467.87329 A 14.14543,14.14543 0 0 0 453.733,21.93217 v 22.51132 a 14.14543,14.14543 0 0 0 14.14027,14.14027 h 23.92535 v -7.07013 h -23.92533 z"
         fill="#17569b"
         id="path75" />
      <path
         d="m 462.55655,21.93214 a 5.41928,5.41928 0 0 1 5.37331,-5.42987 h 24.03847 V 23.5724 H 471.267 a 1.60645,1.60645 0 0 0 -1.64027,1.64026 h 17.30769 v 7.07014 h -24.32131 l -0.0565,-10.35068 z m 5.31674,27.88463 a 5.4075,5.4075 0 0 1 -5.3733,-5.3733 V 34.03621 h 24.32127 v 7.07014 h -17.30769 a 1.60646,1.60646 0 0 0 1.64027,1.64028 h 20.58823 v 7.01358 l -23.86878,0.05653 z m 40.95023,1.69683 a 7.12123,7.12123 0 0 1 -7.1267,-7.07013 V 21.93214 A 7.07271,7.07271 0 0 1 508.767,14.862 h 23.30317 V 7.79187 H 508.71039 A 14.14543,14.14543 0 0 0 494.57012,21.93214 V 44.44347 A 14.19385,14.19385 0 0 0 508.767,58.58374 h 23.30317 V 25.26924 H 512.0475 v 7.07014 H 525 v 19.1742 h -16.17648 z"
         fill="#17569b"
         id="path77" />
      <path
         d="m 503.33709,44.44345 a 5.46786,5.46786 0 0 0 5.42991,5.42985 h 14.53619 V 34.03619 H 512.0475 v 7.12669 h 4.1855 v 1.64026 h -4.1855 a 1.679,1.679 0 0 1 -1.64027,-1.64026 V 25.32577 a 1.60645,1.60645 0 0 1 1.64027,-1.64026 h 19.96606 v -7.07014 h -23.30317 a 5.46788,5.46788 0 0 0 -5.42986,5.42988 l 0.0565,22.3982 z m 50.56562,-27.99776 a 2.31246,2.31246 0 0 1 2.14929,-1.58369 2.19,2.19 0 0 1 2.14932,1.58371 L 569.457,49.92987 h -16.51583 v -7.862 h 5.543 l -2.48869,-7.46607 -8.14479,23.9819 h -8.31449 z"
         fill="#17569b"
         id="path79" />
      <path
         d="m 571.83259,51.51358 h -18.83485 v 7.07013 h 28.61992 L 566.74209,14.46607 a 11.38613,11.38613 0 0 0 -21.3801,0 l -15.04525,44.11767 h 7.57919 l 14.53619,-42.92988 a 3.98591,3.98591 0 0 1 3.67648,-2.43211 3.88005,3.88005 0 0 1 3.6199,2.43211 l 12.10407,35.85974 z"
         fill="#17569b"
         id="path81" />
      <path
         d="M 347.22848,84.43214 V 78.267 c 0,-5.48643 2.71493,-8.20135 8.20136,-8.20135 h 36.9344 V 78.267 h -36.9344 v 6.16515 h 28.733 c 5.48642,0 8.20136,2.71492 8.20136,8.20135 v 6.16515 c 0,5.48643 -2.71494,8.20135 -8.20136,8.20135 h -36.9344 v -8.20136 h 36.9344 v -6.16515 h -28.733 c -5.42984,0 -8.20136,-2.77149 -8.20136,-8.20135 z m 49.20815,14.31 V 78.21041 c 0,-5.48643 2.71494,-8.20135 8.20136,-8.20135 h 36.9344 v 8.20135 H 404.638 v 20.53168 h 28.733 v -6.16515 h -16.40269 v -8.20135 h 24.60408 v 22.56788 H 404.638 c -5.42986,0 -8.20136,-2.71493 -8.20136,-8.20136 z m 49.20816,-6.1086 v -8.2014 h 14.36651 v 8.20135 z m 18.49547,14.31 v -8.20145 h 12.33032 V 78.21041 h -12.33031 v -8.20135 h 22.56787 v 28.733 h 12.33032 v 8.20135 z m 86.086,-8.20135 c 0,5.48643 -2.71492,8.20135 -8.20135,8.20135 h -30.76925 c -5.48643,0 -8.20135,-2.71492 -8.20135,-8.20135 V 78.21041 c 0,-5.48643 2.71493,-8.20135 8.20135,-8.20135 h 30.76923 c 5.48643,0 8.20135,2.71492 8.20135,8.20135 z m -8.20135,0 V 78.21041 h -30.76925 v 20.53168 z m 59.44571,0 c 0,5.48643 -2.71493,8.20135 -8.20135,8.20135 H 562.5 c -5.48643,0 -8.20137,-2.71492 -8.20137,-8.20135 V 78.21041 c 0,-5.48643 2.71494,-8.20135 8.20137,-8.20135 h 30.76923 c 5.48642,0 8.20135,2.71492 8.20135,8.20135 z m -8.20135,0 V 78.21041 H 562.5 v 20.53168 z m 59.50226,0 c 0,5.48643 -2.71493,8.20135 -8.20135,8.20135 h -30.76925 c -5.48643,0 -8.20136,-2.71492 -8.20136,-8.20135 V 78.21041 c 0,-5.48643 2.71493,-8.20135 8.20136,-8.20135 h 30.76923 c 5.48642,0 8.20135,2.71492 8.20135,8.20135 z m -8.20135,0 V 78.21041 h -30.76925 v 20.53168 z"
         fill="#ff0000"
         id="path83" />
    </g>
  </g>
  <metadata
     id="metadata907">
    <rdf:RDF>
      <cc:Work
         rdf:about="">
        <dc:title>logo</dc:title>
      </cc:Work>
    </rdf:RDF>
  </metadata>
</svg>
