<?xml version="1.0" encoding="UTF-8" standalone="no"?>
<svg
   id="Layer_1"
   data-name="Layer 1"
   viewBox="0 0 392.00494 114.01244"
   version="1.1"
   sodipodi:docname="solarus.svg"
   width="392.00494"
   height="114.01244"
   inkscape:version="1.1 (c68e22c387, 2021-05-23)"
   xmlns:inkscape="http://www.inkscape.org/namespaces/inkscape"
   xmlns:sodipodi="http://sodipodi.sourceforge.net/DTD/sodipodi-0.dtd"
   xmlns="http://www.w3.org/2000/svg"
   xmlns:svg="http://www.w3.org/2000/svg"
   xmlns:rdf="http://www.w3.org/1999/02/22-rdf-syntax-ns#"
   xmlns:cc="http://creativecommons.org/ns#"
   xmlns:dc="http://purl.org/dc/elements/1.1/">
  <defs
     id="defs23" />
  <sodipodi:namedview
     id="namedview21"
     pagecolor="#ffffff"
     bordercolor="#666666"
     borderopacity="1.0"
     inkscape:pageshadow="2"
     inkscape:pageopacity="0.0"
     inkscape:pagecheckerboard="0"
     showgrid="false"
     fit-margin-top="0"
     fit-margin-left="0"
     fit-margin-right="0"
     fit-margin-bottom="0"
     inkscape:zoom="1.113"
     inkscape:cx="196.31626"
     inkscape:cy="56.603774"
     inkscape:window-width="1920"
     inkscape:window-height="1138"
     inkscape:window-x="-8"
     inkscape:window-y="-8"
     inkscape:window-maximized="1"
     inkscape:current-layer="Layer_1" />
  <title
     id="title2">logo</title>
  <g
     id="g850"
     transform="translate(-303.99578)">
    <path
       d="m 480.14,110.5 c -5.9,0 -10.78,-1.67 -14.49,-5 a 16.38,16.38 0 0 1 -2.09,-2.19 v 1.3 a 3.5,3.5 0 0 1 -2.47,3.34 l -3.27,1 a 38.36,38.36 0 0 1 -4.17,1 31.94,31.94 0 0 1 -5.72,0.52 c -5.9,0 -10.78,-1.67 -14.49,-4.95 a 17.06,17.06 0 0 1 -2.21,-2.36 v 3.45 a 3.5,3.5 0 0 1 -3.5,3.5 h -40.4 a 3.51,3.51 0 0 1 -2.78,-1.38 3.52,3.52 0 0 1 -2.79,1.38 h -49.91 a 3.51,3.51 0 0 1 -2.78,-1.38 3.51,3.51 0 0 1 -2.78,1.38 h -15.15 a 3.5,3.5 0 0 1 -3.26,-4.77 l 8.94,-23.09 c -0.57,-0.15 -1.12,-0.3 -1.64,-0.46 l -4.87,-1.43 a 3.52,3.52 0 0 1 -2.5,-3.68 l 2.52,-27.33 a 3.47,3.47 0 0 1 1.13,-2.26 24.92,24.92 0 0 1 -4,-14.29 c 0,-8.66 3.5,-15.83 10.1,-20.72 C 323.4,7.82 331,5.65 340.31,5.65 a 55.08,55.08 0 0 1 9.49,0.81 49,49 0 0 1 7.91,2 l 4.52,1.54 a 3.49,3.49 0 0 1 2.32,3.62 l -0.84,9.22 A 49.34,49.34 0 0 1 440,20.24 v -10.1 a 3.5,3.5 0 0 1 3.5,-3.5 h 26 a 3.5,3.5 0 0 1 3.5,3.5 v 44.09 h 6.66 L 497.13,8.88 a 3.5,3.5 0 0 1 3.27,-2.24 h 24.43 a 3.5,3.5 0 0 1 3.25,2.22 l 5.67,14.35 V 10.14 a 3.5,3.5 0 0 1 3.5,-3.5 h 28.31 a 43.38,43.38 0 0 1 14.68,2.23 3.5,3.5 0 0 1 3.26,-2.23 h 26 a 3.5,3.5 0 0 1 3.5,3.5 v 40 a 12.56,12.56 0 0 0 0.7,4.86 5.31,5.31 0 0 0 0.72,0.05 5.13,5.13 0 0 0 0.66,0 13.45,13.45 0 0 0 0.78,-5.37 V 10.14 a 3.5,3.5 0 0 1 3.5,-3.5 h 26 a 3.5,3.5 0 0 1 3.23,2.15 42.48,42.48 0 0 1 16.93,-3.14 h 0.1 a 54.73,54.73 0 0 1 9.4,0.81 48.57,48.57 0 0 1 7.91,2 l 4.53,1.6 a 3.5,3.5 0 0 1 2.32,3.62 l -2.25,24.24 A 3.48,3.48 0 0 1 686.59,40 l 0.32,0.36 c 3.78,4.38 5.7,10.13 5.7,17.09 a 25.7,25.7 0 0 1 -4.44,14.94 h 0.17 a 3.5,3.5 0 0 1 3.5,3.5 v 30.76 a 3.5,3.5 0 0 1 -3.5,3.5 H 632 a 3.58,3.58 0 0 1 -1.19,-0.21 h -0.22 a 32.2,32.2 0 0 1 -5.72,0.52 24.5,24.5 0 0 1 -8.7,-1.48 3.48,3.48 0 0 1 -2.56,1.12 h -46.29 a 3.52,3.52 0 0 1 -1.76,-0.48 3.47,3.47 0 0 1 -1.78,0.49 h -59.92 a 3.51,3.51 0 0 1 -2.78,-1.38 3.51,3.51 0 0 1 -2.78,1.38 h -13.45 a 32.13,32.13 0 0 1 -4.7,0.36 z m -110,-22.57 2.17,-5.61 h -2.17 z"
       fill="#e5b131"
       id="path4" />
    <path
       d="m 402.93,7 a 45.87,45.87 0 0 1 40.52,24.43 V 10.14 h 26 V 57.72 H 482 l 18.4,-47.58 h 24.43 l 12.42,31.48 V 10.14 h 28.32 c 7.49,0 13.37,1.36 17.93,4.12 v -4.12 h 26 v 40 c 0,3.3 0.54,5.85 1.52,7.18 0.29,0.4 0.9,1.23 3.4,1.23 2.5,0 3.09,-0.82 3.36,-1.22 0.59,-0.84 1.58,-3 1.58,-7.69 v -39.5 h 26 v 4.44 c 5.13,-3.6 11.91,-5.43 20.16,-5.43 h 0.11 a 50.93,50.93 0 0 1 8.8,0.76 45.11,45.11 0 0 1 7.33,1.84 l 4.53,1.6 -0.44,4.78 -1,10.78 -0.8,8.68 L 676,34 a 24.09,24.09 0 0 0 -4.79,-1.53 24.81,24.81 0 0 0 -5.39,-0.64 c -0.84,0 -1.27,0.48 -0.77,0.68 q 2.29,0.91 4.64,1.71 c 6.71,2.2 11.44,5 14.45,8.45 3.22,3.74 4.85,8.72 4.85,14.81 0,7.51 -3,13.73 -8.75,18 l -0.65,0.46 h 8.63 V 106.7 H 632 v -0.53 c -0.68,0.15 -1.36,0.29 -2,0.42 a 28.82,28.82 0 0 1 -5.08,0.46 18.25,18.25 0 0 1 -11.26,-3.35 v 3 H 567.32 V 75.88 h 1.85 l -6,-16.45 v 16.45 h 0.57 v 30.76 h -59.88 l -1.73,-4.72 h -2.07 l -1.76,4.72 h -13.72 a 27.51,27.51 0 0 1 -4.44,0.36 c -5,0 -9.12,-1.37 -12.17,-4.08 -2.21,-1.94 -4.85,-5.55 -4.85,-11.65 a 15,15 0 0 1 4.14,-10.93 h -7.2 v 24.3 l -3.27,1 a 32.81,32.81 0 0 1 -3.77,0.88 29.2,29.2 0 0 1 -5.09,0.46 c -5,0 -9.12,-1.37 -12.17,-4.07 a 13.79,13.79 0 0 1 -3.76,-5.5 13.55,13.55 0 0 1 -4.25,1.21 v 8 h -40.4 l -1.73,-4.72 h -2.08 l -1.76,4.72 h -15.17 l 10.75,-27.79 v 0 h -10.77 v 27.81 h -34.74 l -1.72,-4.72 h -2.08 l -1.76,4.72 h -15.15 l 10.4,-26.84 c -2.08,-0.44 -3.85,-0.88 -5.37,-1.33 L 311.3,77 313.82,49.67 c 0,0 8.18,6.16 11.27,7.33 a 26.29,26.29 0 0 0 8.74,1.65 c 1.25,0 2.45,-0.18 2.58,-0.5 0.13,-0.32 -1.76,-1.15 -4.92,-2.2 -6.38,-2.07 -11.12,-4.6 -14.5,-7.73 -4,-3.7 -6,-8.87 -6,-15.39 0,-7.51 3,-13.7 8.68,-17.91 5.19,-3.82 12.13,-5.76 20.64,-5.76 h 0.1 a 50.82,50.82 0 0 1 8.79,0.76 45.11,45.11 0 0 1 7.33,1.84 l 4.54,1.59 -2.23,24.23 -7.92,-3.58 a 23.41,23.41 0 0 0 -4.81,-1.53 24.75,24.75 0 0 0 -5.4,-0.64 c -0.84,0 -1.08,0.26 -1.08,0.26 0,0 -0.2,0.21 0.27,0.41 1.55,0.61 3.11,1.19 4.69,1.72 6.26,2.06 10.79,4.6 13.82,7.77 A 45.9,45.9 0 0 1 402.93,7 m 0,-7 a 52.9,52.9 0 0 0 -32.85,11.49 q -1,0.81 -2,1.68 A 7,7 0 0 0 363.4,6.73 L 358.86,5.14 A 52.31,52.31 0 0 0 350.44,3 a 58.49,58.49 0 0 0 -10,-0.87 h -0.12 c -10,0 -18.35,2.4 -24.77,7.13 C 308.08,14.78 304,23.14 304,32.82 a 29.65,29.65 0 0 0 3.34,14.18 7,7 0 0 0 -0.49,2 l -2.52,27.33 a 7,7 0 0 0 5,7.35 l 2.85,0.85 -7.56,19.52 a 7,7 0 0 0 6.53,9.53 h 15.15 a 7,7 0 0 0 2.78,-0.58 7,7 0 0 0 2.78,0.58 h 49.91 a 7.11,7.11 0 0 0 2.79,-0.58 7,7 0 0 0 2.78,0.58 h 40.4 a 7,7 0 0 0 6,-3.46 25.55,25.55 0 0 0 14.19,3.88 34.91,34.91 0 0 0 6.33,-0.58 38.52,38.52 0 0 0 4.6,-1.07 l 3.26,-1 a 6.92,6.92 0 0 0 2.93,-1.78 25.23,25.23 0 0 0 15.09,4.43 35.79,35.79 0 0 0 5,-0.36 h 13.16 a 7,7 0 0 0 2.78,-0.58 7,7 0 0 0 2.78,0.58 h 59.92 a 7,7 0 0 0 1.79,-0.23 7.23,7.23 0 0 0 1.75,0.22 h 46.28 a 7,7 0 0 0 3.13,-0.74 29,29 0 0 0 8.13,1.1 35.19,35.19 0 0 0 5.8,-0.48 7.31,7.31 0 0 0 1.33,0.13 h 56.25 a 7,7 0 0 0 7,-7 V 75.88 A 7,7 0 0 0 693,70.77 30.19,30.19 0 0 0 696,57.44 c 0,-7.06 -1.8,-13.07 -5.35,-17.87 a 7.45,7.45 0 0 0 0.26,-1.33 l 0.8,-8.68 1,-10.78 0.44,-4.79 A 7,7 0 0 0 688.51,6.75 L 684,5.15 A 52.37,52.37 0 0 0 675.56,3 a 58.49,58.49 0 0 0 -10,-0.87 h -0.12 a 47.72,47.72 0 0 0 -15.85,2.47 7,7 0 0 0 -4.3,-1.48 h -26 a 7,7 0 0 0 -4.93,2 7,7 0 0 0 -4.93,-2 h -26 A 7,7 0 0 0 579,4.8 49.51,49.51 0 0 0 565.59,3.14 H 537.25 A 7,7 0 0 0 531,6.91 7,7 0 0 0 524.8,3.14 h -24.4 a 7,7 0 0 0 -6.53,4.48 l -16.7,43.1 h -0.76 V 10.14 a 7,7 0 0 0 -7,-7 h -26 a 7,7 0 0 0 -7,7 V 12 A 52.69,52.69 0 0 0 402.93,0 Z m -70.41,63.8 z"
       fill="#ffffff"
       id="path6" />
    <text
       transform="translate(673.57,104.63)"
       font-size="1.16px"
       fill="#c23334"
       font-family="ArialMT, Arial"
       style="isolation:isolate"
       id="text8">I don’t like bugs!</text>
    <path
       d="m 679.61,75.88 0.65,-0.46 C 686,71.17 689,65 689,57.44 c 0,-6.09 -1.63,-11.07 -4.85,-14.81 -3,-3.49 -7.74,-6.25 -14.45,-8.45 q -2.34,-0.8 -4.64,-1.71 c -0.5,-0.2 -0.07,-0.68 0.77,-0.68 a 24.81,24.81 0 0 1 5.39,0.64 A 24.09,24.09 0 0 1 676,34 l 8,3.59 0.8,-8.68 1,-10.78 0.44,-4.78 -4.53,-1.6 a 45.11,45.11 0 0 0 -7.33,-1.84 52.12,52.12 0 0 0 -8.91,-0.76 c -8.25,0 -15,1.83 -20.16,5.43 v -4.44 h -26 v 39.51 c 0,4.74 -1,6.85 -1.58,7.69 -0.27,0.4 -0.85,1.22 -3.36,1.22 -2.51,0 -3.11,-0.83 -3.4,-1.23 -1,-1.33 -1.52,-3.88 -1.52,-7.18 v -40 h -26 v 4.12 c -4.56,-2.76 -10.44,-4.12 -17.93,-4.12 H 537.25 V 41.62 L 524.83,10.14 H 500.4 L 482,57.72 H 469.41 V 10.14 h -26 v 21.29 a 45.83,45.83 0 0 0 -85,10.52 c -3,-3.17 -7.56,-5.71 -13.82,-7.77 -1.58,-0.53 -3.14,-1.11 -4.69,-1.72 -0.47,-0.2 -0.27,-0.41 -0.27,-0.41 0,0 0.24,-0.26 1.08,-0.26 a 24.75,24.75 0 0 1 5.4,0.64 23.41,23.41 0 0 1 4.81,1.57 l 7.92,3.61 2.23,-24.23 -4.54,-1.59 A 45.11,45.11 0 0 0 349.2,9.95 51.88,51.88 0 0 0 340.31,9.19 c -8.51,0 -15.45,1.94 -20.64,5.76 C 314,19.12 311,25.31 311,32.82 c 0,6.52 2,11.69 6,15.39 3.38,3.13 8.12,5.66 14.5,7.73 3.16,1.05 5.05,1.89 4.92,2.2 -0.13,0.31 -1.33,0.5 -2.58,0.5 A 26.29,26.29 0 0 1 325.09,57 c -3.13,-1.16 -11.27,-7.3 -11.27,-7.3 l -2.52,27.3 4.87,1.44 c 1.52,0.45 3.29,0.89 5.37,1.33 l -10.4,26.84 h 15.15 l 1.76,-4.72 h 2.08 l 1.72,4.72 h 34.74 V 78.82 h 10.78 v 0 l -10.75,27.79 h 15.15 l 1.76,-4.72 h 2.08 l 1.73,4.72 h 40.4 v -8 a 13.55,13.55 0 0 0 4.26,-1.2 13.79,13.79 0 0 0 3.78,5.51 c 3.05,2.7 7.14,4.07 12.17,4.07 a 29.2,29.2 0 0 0 5.09,-0.46 32.81,32.81 0 0 0 3.77,-0.88 l 3.27,-1 v -24.3 h 7.2 a 15,15 0 0 0 -4.14,10.93 c 0,6.1 2.64,9.71 4.85,11.65 3,2.71 7.14,4.08 12.17,4.08 a 27.51,27.51 0 0 0 4.44,-0.36 h 13.7 l 1.76,-4.72 h 2.07 l 1.73,4.72 h 59.92 V 75.88 h -0.57 V 59.43 l 6,16.45 h -1.85 v 30.75 h 46.24 v -3 a 18.25,18.25 0 0 0 11.26,3.37 28.82,28.82 0 0 0 5.08,-0.46 c 0.69,-0.13 1.37,-0.27 2,-0.42 v 0.53 h 56.25 V 75.88 Z"
       fill="#3c2d6e"
       id="path10" />
    <path
       d="m 583.47,58 -0.34,-0.75 q -1.3,-3.59 -2.94,-7 a 8.07,8.07 0 0 0 -5.34,-4.65 q 6,-1.24 8.86,-5.13 a 14.47,14.47 0 0 0 2.82,-8.63 q 0,-7.87 -5.38,-11.65 -5.38,-3.78 -15.58,-3.77 H 543.43 V 74.11 H 557 V 50.65 h 4.14 a 6.47,6.47 0 0 1 5.22,2.12 15.67,15.67 0 0 1 2.9,5.35 l 5.8,16 h 14.58 z M 570,38.91 a 12.83,12.83 0 0 1 -7.29,1.79 H 557 V 26.27 h 5.31 c 3.42,0 6,0.57 7.74,1.69 a 6.12,6.12 0 0 1 2.62,5.52 6.08,6.08 0 0 1 -2.67,5.43 z m -215.65,7.76 c -2.24,-2.61 -6.16,-4.81 -11.73,-6.64 q -7.55,-2.56 -9.5,-4.14 a 4.74,4.74 0 0 1 -1.94,-3.82 5.32,5.32 0 0 1 2.57,-4.84 12.94,12.94 0 0 1 7,-1.62 31.34,31.34 0 0 1 6.77,0.7 30.32,30.32 0 0 1 6,2 l 1,-10.78 A 40.43,40.43 0 0 0 348.14,16 44.74,44.74 0 0 0 340.31,15.34 q -10.8,0 -17,4.56 -6.2,4.56 -6.17,12.93 0,7.13 4,10.86 4,3.73 12.23,6.38 c 4.14,1.39 6.9,2.72 8.28,4 a 5.77,5.77 0 0 1 2.08,4.27 5.35,5.35 0 0 1 -2.73,4.73 13.36,13.36 0 0 1 -7.17,1.74 28.75,28.75 0 0 1 -8.95,-1.45 25.21,25.21 0 0 1 -5.88,-2.45 l -1.08,11.61 c 1.87,0.55 4.31,1.12 7.3,1.7 a 48.93,48.93 0 0 0 9.37,0.88 q 10.6,0 16.86,-4.65 6.26,-4.65 6.26,-13 c 0,-4.6 -1.12,-8.18 -3.36,-10.78 z m 325.12,0 c -2.23,-2.61 -6.15,-4.81 -11.73,-6.64 q -7.54,-2.56 -9.5,-4.14 a 4.77,4.77 0 0 1 -1.94,-3.82 5.32,5.32 0 0 1 2.57,-4.84 13,13 0 0 1 7,-1.62 31.25,31.25 0 0 1 6.76,0.7 30.19,30.19 0 0 1 6,2 l 1,-10.78 A 40.58,40.58 0 0 0 673.27,16 44.74,44.74 0 0 0 665.44,15.34 q -10.8,0 -17,4.56 -6.2,4.56 -6.17,12.93 0,7.13 4,10.86 4,3.73 12.24,6.38 c 4.14,1.39 6.9,2.72 8.28,4 a 5.8,5.8 0 0 1 2.08,4.27 5.35,5.35 0 0 1 -2.78,4.72 13.37,13.37 0 0 1 -7.09,1.75 28.84,28.84 0 0 1 -9,-1.45 25.62,25.62 0 0 1 -5.89,-2.45 l -1.07,11.61 q 2.81,0.83 7.29,1.7 a 49,49 0 0 0 9.38,0.88 q 10.59,0 16.86,-4.65 6.27,-4.65 6.25,-13 c 0,-4.6 -1.1,-8.18 -3.35,-10.78 z"
       fill="#ffffff"
       id="path12" />
    <path
       d="m 520.62,16.33 h -16 L 486.2,63.91 h -23 V 16.33 h -13.6 v 57.78 h 46.53 l 4.72,-12.68 h 23 l 4.64,12.68 h 14.92 z m -16.16,35.06 8.12,-23.46 7.8,23.46 z m 121,-35.06 v 33.33 q 0,7.38 -2.68,11.23 c -1.8,2.57 -4.6,3.86 -8.43,3.86 -3.83,0 -6.51,-1.25 -8.35,-3.75 -1.84,-2.5 -2.73,-6.11 -2.73,-10.85 V 16.33 h -13.6 v 36.4 c 0,7.35 2.14,12.92 6.38,16.7 4.24,3.78 10.39,5.67 18.41,5.67 q 12.27,0 18.45,-5.88 6.18,-5.88 6.17,-17.74 V 16.33 Z"
       fill="#ffffff"
       id="path14" />
    <path
       d="m 431.26,82.15 c -1.52,-1.09 -3.72,-1.64 -6.62,-1.64 H 418 V 102 h 5 v -7.87 h 2.28 a 9.08,9.08 0 0 0 6,-1.8 6.31,6.31 0 0 0 2.17,-5.13 5.84,5.84 0 0 0 -2.19,-5.05 z m -3.78,7.45 a 4,4 0 0 1 -2.66,0.83 l -1.72,-0.06 v -6.16 h 1.72 a 4.19,4.19 0 0 1 2.66,0.79 2.76,2.76 0 0 1 1,2.26 2.87,2.87 0 0 1 -1,2.34 z m -45.8,-9.09 -8.31,21.49 h 5.17 l 1.75,-4.72 h 8.55 l 1.72,4.72 h 5.55 l -8.48,-21.48 z m -0.06,13 3,-8.72 2.9,8.72 z m -55.4,-13 -8.32,21.49 h 5.17 l 1.76,-4.72 h 8.55 l 1.72,4.72 h 5.54 l -8.48,-21.48 z m -0.06,13 3,-8.72 2.9,8.72 z m 86.89,2.16 c -0.33,-0.88 -0.69,-1.76 -1.1,-2.61 a 2.94,2.94 0 0 0 -2,-1.73 5.18,5.18 0 0 0 3.31,-1.92 5.36,5.36 0 0 0 1,-3.19 4.9,4.9 0 0 0 -2,-4.33 10.11,10.11 0 0 0 -5.8,-1.41 h -8.23 V 102 h 5.05 v -8.74 h 1.54 a 2.43,2.43 0 0 1 1.94,0.8 5.84,5.84 0 0 1 1.08,2 l 2.16,5.95 h 5.42 l -2.3,-6 z m -4.88,-6.79 a 4.73,4.73 0 0 1 -2.71,0.66 h -2.12 v -5.33 h 2 a 5.42,5.42 0 0 1 2.9,0.64 2.28,2.28 0 0 1 1,2.05 2.25,2.25 0 0 1 -1.07,2.01 z m -50.95,6.91 -7.86,-15.31 h -6.28 V 102 h 4.74 V 86.8 l 7.83,14.85 0.18,0.34 H 362 V 80.51 h -4.74 z m 89.45,-2.46 h 3.89 v 4.77 a 5.42,5.42 0 0 1 -1,0.28 8.28,8.28 0 0 1 -6.77,-1.85 7,7 0 0 1 -2,-5.25 6.88,6.88 0 0 1 2.19,-5.35 8.68,8.68 0 0 1 5.95,-2 13.84,13.84 0 0 1 3,0.32 10.61,10.61 0 0 1 2.66,1 l 0.34,-3.94 V 81.1 a 13.8,13.8 0 0 0 -2.83,-0.73 23.73,23.73 0 0 0 -3.77,-0.25 q -6,0 -9.32,2.91 c -2.25,1.94 -3.38,4.67 -3.38,8.21 0,3.54 1.1,6.24 3.28,8.17 2.18,1.93 5.23,2.92 9.11,2.92 a 24,24 0 0 0 4.25,-0.39 29.68,29.68 0 0 0 3.25,-0.75 V 89.64 h -8.75 v 3.72 z m 176.92,0 h 3.89 v 4.77 a 5.42,5.42 0 0 1 -1,0.28 8.26,8.26 0 0 1 -6.76,-1.85 7,7 0 0 1 -2,-5.25 6.85,6.85 0 0 1 2.19,-5.35 8.64,8.64 0 0 1 5.94,-2 13.84,13.84 0 0 1 3,0.32 10.47,10.47 0 0 1 2.66,1 l 0.33,-3.94 V 81.1 a 13.59,13.59 0 0 0 -2.81,-0.73 23.87,23.87 0 0 0 -3.78,-0.25 q -5.94,0 -9.32,2.91 c -2.25,1.94 -3.37,4.67 -3.37,8.21 0,3.54 1.09,6.24 3.28,8.17 2.19,1.93 5.23,2.92 9.11,2.92 a 23.69,23.69 0 0 0 4.23,-0.39 29.4,29.4 0 0 0 3.26,-0.75 V 89.64 h -8.84 v 3.72 z m 13,-12.85 h 5.06 V 102 h -5.06 z M 478.87,93.36 h 3.87 v 4.74 a 5.14,5.14 0 0 1 -1,0.28 8.28,8.28 0 0 1 -6.74,-1.85 7,7 0 0 1 -2,-5.25 6.88,6.88 0 0 1 2.18,-5.35 8.68,8.68 0 0 1 5.95,-2 13.91,13.91 0 0 1 3,0.32 10.43,10.43 0 0 1 2.65,1 l 0.34,-3.94 V 81.1 a 13.7,13.7 0 0 0 -2.82,-0.73 23.73,23.73 0 0 0 -3.77,-0.25 q -6,0 -9.32,2.91 c -2.25,1.94 -3.38,4.67 -3.38,8.21 0,3.54 1.09,6.24 3.28,8.17 2.19,1.93 5.23,2.92 9.11,2.92 a 23.69,23.69 0 0 0 4.23,-0.39 29.4,29.4 0 0 0 3.26,-0.75 V 89.64 h -8.75 v 3.72 z m 125.35,2.46 -7.86,-15.31 h -6.29 V 102 h 4.74 V 86.8 l 7.83,14.85 0.2,0.34 H 609 V 80.51 h -4.74 v 15.31 z m 56,0 -7.86,-15.31 h -6.28 V 102 h 4.74 V 86.8 l 7.83,14.85 0.19,0.34 H 665 V 80.51 h -4.74 v 15.31 z m 14.19,2.44 v -5.45 h 8.34 v -3.7 h -8.34 v -4.9 h 9 v -3.7 H 669.36 V 102 h 14.23 v -3.75 h -9.17 z m -146.55,-2.77 -5,-15 H 515 V 102 h 4.9 l -0.07,-17.06 5.65,16.72 H 530 l 5.78,-16.66 -0.06,17 h 4.86 V 80.51 H 533 l -5.11,15 z m -29.65,-15 -8.31,21.51 h 5.17 l 1.76,-4.72 h 8.54 l 1.73,4.72 h 5.54 l -8.48,-21.48 z m 0,13 3,-8.72 2.89,8.72 z m 51.8,-0.73 h 8.34 v -3.7 H 550 v -4.9 h 9 v -3.7 H 544.9 V 102 h 14.24 V 98.25 H 550 v -5.44 z m 27,0 h 8.35 v -3.7 H 577 v -4.9 h 9 v -3.7 H 572 V 102 h 14.23 V 98.25 H 577 v -5.44 z"
       fill="#ffffff"
       id="path16" />
    <path
       d="m 402.93,11.63 a 41.22,41.22 0 0 0 -41.22,41.22 40.63,40.63 0 0 0 6,21.26 h 2.37 c 8,-8 26.3,-26.22 31.26,-31.2 2.87,2.87 6.79,-1 7.93,-2.24 -0.62,-0.61 -1.28,-1.28 -2,-2 -2.72,-2.71 -5.06,1.44 -5.06,1.44 l -5.95,-6 c 0,0 9.29,-4.24 14.34,0.81 l 3.79,3.79 6.92,-6.93 a 5.13,5.13 0 0 1 8.43,-5.4 v 0 a 5.11,5.11 0 0 1 0,7.23 v 0 a 5.1,5.1 0 0 1 -5.34,1.19 l -6.94,6.93 3.76,3.77 c 5.06,5.06 0.81,14.35 0.81,14.35 l -5.95,-6 c 0,0 4.14,-2.34 1.43,-5 l -2,-2 c -1.25,1.14 -5.11,5.07 -2.24,7.92 -3.12,3.12 -11.49,11.41 -19.27,19.2 h 44 a 40.65,40.65 0 0 0 6,-21.26 41.16,41.16 0 0 0 -41.07,-41.08 z"
       fill="#e5b131"
       id="path18" />
  </g>
  <metadata
     id="metadata840">
    <rdf:RDF>
      <cc:Work
         rdf:about="">
        <dc:title>logo</dc:title>
      </cc:Work>
    </rdf:RDF>
  </metadata>
</svg>
