<?xml version="1.0" encoding="UTF-8" standalone="no"?>
<svg
   viewBox="0 0 513.99268 102.56003"
   version="1.1"
   id="svg67"
   sodipodi:docname="spectravideo.svg"
   width="513.99268"
   height="102.56003"
   inkscape:version="1.1 (c68e22c387, 2021-05-23)"
   xmlns:inkscape="http://www.inkscape.org/namespaces/inkscape"
   xmlns:sodipodi="http://sodipodi.sourceforge.net/DTD/sodipodi-0.dtd"
   xmlns="http://www.w3.org/2000/svg"
   xmlns:svg="http://www.w3.org/2000/svg"
   xmlns:rdf="http://www.w3.org/1999/02/22-rdf-syntax-ns#"
   xmlns:cc="http://creativecommons.org/ns#"
   xmlns:dc="http://purl.org/dc/elements/1.1/">
  <defs
     id="defs71" />
  <sodipodi:namedview
     id="namedview69"
     pagecolor="#ffffff"
     bordercolor="#666666"
     borderopacity="1.0"
     inkscape:pageshadow="2"
     inkscape:pageopacity="0.0"
     inkscape:pagecheckerboard="0"
     showgrid="false"
     fit-margin-top="0"
     fit-margin-left="0"
     fit-margin-right="0"
     fit-margin-bottom="0"
     inkscape:zoom="0.5565"
     inkscape:cx="257.86164"
     inkscape:cy="50.314465"
     inkscape:window-width="1920"
     inkscape:window-height="1138"
     inkscape:window-x="-8"
     inkscape:window-y="-8"
     inkscape:window-maximized="1"
     inkscape:current-layer="svg67" />
  <title
     id="title2">logo</title>
  <g
     id="g923"
     transform="translate(-242.98147,-5.7199733)">
    <g
       id="Layer_2"
       data-name="Layer 2">
      <polygon
         points="729.44,57.01 729.44,23.56 699.27,23.56 699.27,17.56 289.33,17.56 289.33,69.56 699.27,69.56 699.27,57.01 "
         fill="#ffffff"
         id="polygon4" />
    </g>
    <g
       id="Layer_1"
       data-name="Layer 1">
      <path
         d="m 694.57,94.36 v 0 m 0,0 -6.26,6.92 -376,-0.06 -5.72,-6.86 h 388 m 0,-7 h -388 a 7,7 0 0 0 -5.38,11.49 l 5.72,6.85 a 7,7 0 0 0 5.38,2.52 l 376,0.06 a 7,7 0 0 0 5.19,-2.3 l 6.18,-6.83 a 7,7 0 0 0 -5.1,-11.79 z m 0,14 z"
         fill="#ffffff"
         id="path7" />
      <path
         d="m 703.63,83.57 v 0 m 0,0 -6.63,8 H 304.21 l -6.64,-8 h 406.06 m 0,-7 H 297.57 a 7,7 0 0 0 -5.38,11.48 l 6.64,8 a 7,7 0 0 0 5.38,2.52 H 697 A 7,7 0 0 0 702.38,96 l 6.55,-7.87 a 7,7 0 0 0 -5.29,-11.58 z m 0,14 z"
         fill="#ffffff"
         id="path9" />
      <path
         d="m 712.57,72.77 v 0 m 0,0 -6.57,7.89 H 295.17 l -6.57,-7.89 h 424 m 0,-7 h -424 a 7,7 0 0 0 -5.38,11.49 l 6.57,7.88 a 7,7 0 0 0 5.38,2.52 H 706 a 7,7 0 0 0 5.37,-2.52 l 6.49,-7.78 a 7,7 0 0 0 -5.29,-11.59 z m 0,14 z"
         fill="#ffffff"
         id="path11" />
      <path
         d="m 270.24,13.52 c 9.66,0 19.45,0.16 19.45,0.16 l 5.25,9.86 h -30.46 l 6.52,8.79 h 18.71 c 8,0 12.73,3 17.41,9.9 v 0 c 0.05,0 5.92,9.79 5.92,9.79 v 0 c 1.68,2.79 1.48,11.84 -6.13,11.84 -0.1,0.1 -25.68,0.1 -25.68,0.1 l -9.91,-11.9 H 301 l -6.36,-9.87 h -18.2 c -9.53,-0.25 -12.4,-1.55 -16.48,-6 0,0 -9.32,-12.68 -9.25,-12.75 a 6.78,6.78 0 0 1 6.06,-9.8 h 0.33 c 3.52,-0.12 8.31,-0.16 13.14,-0.16 m 0,-7 v 0 c -5.54,0 -10,0.05 -13.14,0.15 h -0.33 A 13.78,13.78 0 0 0 244.45,26.6 v 0 a 9.48,9.48 0 0 0 0.86,1.47 l 1.09,1.53 c 0.87,1.21 2,2.82 3.21,4.42 2.33,3.19 4.67,6.37 4.67,6.37 a 7.11,7.11 0 0 0 0.49,0.6 c 3.4,3.69 6.51,5.82 10.87,7 a 7.24,7.24 0 0 0 -0.64,1.11 7,7 0 0 0 1,7.45 l 9.92,11.9 a 7,7 0 0 0 5.34,2.55 h 12.82 8.85 3 1.16 a 13.31,13.31 0 0 0 11.82,-6.78 c 2.65,-4.7 2.73,-11.44 0.17,-15.68 l -0.09,-0.15 -2.85,-4.75 -2.05,-3.39 -0.73,-1.25 c -0.14,-0.23 -0.29,-0.45 -0.44,-0.66 v 0 c -3.63,-5.33 -7.51,-8.87 -12.15,-10.89 l 0.17,-0.25 a 7,7 0 0 0 0.17,-6.9 l -5.25,-9.86 A 7,7 0 0 0 289.8,6.73 c -0.1,0 -10,-0.16 -19.57,-0.16 z"
         fill="#ffffff"
         id="path13" />
      <path
         d="m 328.37,13.66 c 11.1,0.54 12.72,2.49 16.41,9.86 l 4,8.86 c 2.38,7.12 -0.42,9.64 -8.23,9.64 h -0.82 c -2.57,0.17 -6.5,0.21 -9.62,0.21 -2.78,0 -4.92,0 -4.92,0 L 336.7,63.86 H 325.14 L 296.57,13.68 h 31.8 m -9,18.67 h 16.39 l -3.88,-8.78 h -16.51 l 4,8.78 m 9,-25.67 v 0 h -31.81 a 7,7 0 0 0 -6.08,10.46 l 28.58,50.18 a 7,7 0 0 0 6.08,3.54 h 11.56 a 7,7 0 0 0 6.18,-10.3 l -6.09,-11.42 c 1.16,0 2.18,-0.07 3,-0.12 h 0.66 c 4.3,0 10.41,-0.56 13.9,-5.41 3.73,-5.18 1.65,-11.4 1,-13.45 -0.07,-0.21 -0.16,-0.43 -0.25,-0.63 l -3.95,-8.86 c 0,-0.09 -0.08,-0.19 -0.13,-0.28 -4.87,-9.72 -8.77,-13.06 -22.33,-13.72 z"
         fill="#ffffff"
         id="path15" />
      <path
         d="m 382.71,13.62 2.69,10 h -22.33 l 4,8.86 h 21.6 l 2.71,9.74 h -20.84 c 0,0 2.93,7.46 4,9.86 1.48,0 3.27,0 5.18,0 7,0 15.6,0.13 15.6,0.13 l 3.54,11.7 v 0 c 0,0 -4.88,0.26 -10.51,0.26 a 101.43,101.43 0 0 1 -11.26,-0.51 c -7.11,-0.88 -10.81,-4 -14.7,-11.39 l -12.47,-28.6 c -1.13,-3.74 2.39,-9.94 8.44,-9.94 l 24.38,-0.08 m 0,-7 v 0 L 358.3,6.7 a 15.53,15.53 0 0 0 -12.51,6.4 14.39,14.39 0 0 0 -2.6,12.57 7.08,7.08 0 0 0 0.28,0.77 L 355.94,55 c 0.07,0.15 0.14,0.3 0.22,0.45 5,9.58 10.82,13.95 20,15.09 a 105.75,105.75 0 0 0 12.11,0.56 c 5.74,0 10.66,-0.25 10.87,-0.26 a 7,7 0 0 0 6.31,-9.12 L 402,50.13 a 7,7 0 0 0 -4.45,-4.6 7,7 0 0 0 0.59,-5.21 l -2.71,-9.74 a 7,7 0 0 0 -3.53,-4.34 7,7 0 0 0 0.28,-4.45 l -2.69,-10 a 7,7 0 0 0 -6.76,-5.18 z"
         fill="#ffffff"
         id="path17" />
      <path
         d="m 409.18,13.64 c 3.27,0 5.77,0 5.77,0 l 1.92,9.88 h -15.06 l 8.4,28.52 h 13.71 l 2.19,11.8 -13,-0.09 H 413 c -7.22,0 -12.43,-5.57 -15,-11.83 v 0 c 0,0 -8.19,-28.34 -8.21,-28.34 v 0 c -1,-5.17 3.15,-9.71 9.24,-9.82 3.1,-0.12 7,-0.16 10.17,-0.16 m 0,-7 c -4.23,0 -7.72,0.06 -10.39,0.16 a 16.9,16.9 0 0 0 -12.83,6 14.82,14.82 0 0 0 -3.07,12.12 7.38,7.38 0 0 0 0.22,0.84 c 0.3,1 2.72,9.41 4.68,16.18 l 2.41,8.34 0.77,2.64 0.22,0.75 a 7.32,7.32 0 0 0 0.33,0.93 v 0 c 4.07,10 12.3,16.19 21.47,16.19 h 0.16 l 12.93,0.09 h 0.05 A 7,7 0 0 0 433,62.59 L 430.8,50.8 a 7,7 0 0 0 -6.88,-5.72 h -8.47 l -4.28,-14.52 h 5.7 a 7,7 0 0 0 6.87,-8.34 l -1.92,-9.88 A 7,7 0 0 0 415,6.68 c -0.1,0 -2.57,0 -5.86,0 z"
         fill="#ffffff"
         id="path19" />
      <path
         d="m 417.44,13.68 28.74,0.05 1.29,9.81 h -7.39 l 6.51,40.32 h -9.67 l -8.09,-40.32 h -9.47 l -1.92,-9.86 m 0,-7 A 7,7 0 0 0 410.57,15 l 1.92,9.86 a 7,7 0 0 0 6.87,5.66 h 3.73 l 7,34.69 a 7,7 0 0 0 6.87,5.63 h 9.67 a 7,7 0 0 0 6.91,-8.12 l -5.21,-32.25 a 7,7 0 0 0 6.12,-7.86 L 453.16,12.8 A 7,7 0 0 0 446.23,6.71 L 417.5,6.66 Z"
         fill="#ffffff"
         id="path21" />
      <path
         d="m 506.29,12.72 c 4.16,0 10.36,0 14.14,0.15 11.09,0.81 19,8.71 18.75,19.56 0.07,12.32 -3.69,31.54 -3.69,31.54 h -10 L 526,52.05 H 510.85 V 64 l -9.06,-0.08 v 0 h -13.24 c 0,0 -10.81,-14 -15.87,-21.86 -2.89,-4.76 -2.29,-9.74 4.43,-9.74 h 4.73 l -0.1,-8.78 H 463 l 4.19,40.31 h -10.82 l -6.54,-50.18 c 0,0 9.24,0.1 18.46,0.1 4.61,0 9.21,0 12.65,-0.1 5.06,0.1 11.79,3.5 12.75,9.84 0.35,2.95 0.32,6.23 0.55,9.28 0.05,4.17 -5.2,9.39 -9.69,9.39 h -0.05 c 5.45,7.22 12.18,15.51 15.42,19.45 L 502,12.73 h 4.29 m 21.12,28.44 -0.18,-8.85 v 0 c -0.34,-6.38 -4.55,-8.78 -15.57,-8.78 l 0.34,17.53 15.43,0.09 M 506.29,5.72 H 502 a 7,7 0 0 0 -7,6.48 21.92,21.92 0 0 0 -13.93,-5.52 h -0.3 c -3,0.06 -7.2,0.1 -12.5,0.1 -9.07,0 -18.29,-0.1 -18.38,-0.1 h -0.08 a 7,7 0 0 0 -6.94,7.9 l 6.54,50.18 a 7,7 0 0 0 6.94,6.1 h 10.81 a 7,7 0 0 0 7,-7.73 l -0.81,-7.86 c 4.65,6.42 9.36,12.55 9.65,12.93 a 7,7 0 0 0 5.54,2.73 h 13.28 a 7,7 0 0 0 0.8,-0.05 l 8.16,0.08 h 0.06 a 7,7 0 0 0 7,-7 v -4.91 h 0.81 l -0.21,4.62 a 7,7 0 0 0 7,7.3 h 10 a 7,7 0 0 0 6.87,-5.65 c 0.16,-0.81 3.87,-19.95 3.82,-32.82 C 546.51,18.16 535.91,7 520.94,5.89 h -0.27 C 516.85,5.76 510.74,5.73 506.29,5.73 Z m 12.56,28.39 -0.05,-2.91 a 4.17,4.17 0 0 1 1.28,0.5 3.48,3.48 0 0 1 0.15,0.94 v 1.48 z"
         fill="#ffffff"
         id="path23" />
      <path
         d="m 589.27,13.68 c 0,0 -5.38,11.67 -16,34.13 -4.21,8.89 -8.13,13.73 -14.38,15.19 -3.6,0.85 -11.21,1 -15.29,1 -1.64,0 -2.7,0 -2.7,-0.05 0,-2.53 7.92,-50.28 7.92,-50.28 h 11.83 c 0,0 -4.75,24.93 -6.88,38.38 h 0.75 a 6.88,6.88 0 0 0 6.17,-3.24 l 16.65,-35.17 h 11.94 m -28.63,0 v 0 m 28.63,-7 h -11.95 a 7,7 0 0 0 -6.33,4 l -4.45,9.4 c 0.47,-2.51 0.81,-4.27 0.92,-4.87 a 7,7 0 0 0 -6.83,-8.53 h -11.83 a 7,7 0 0 0 -6.91,5.85 c -5.32,32.07 -8,49.37 -8,51.43 a 7,7 0 0 0 6.89,7 h 0.71 2.1 c 4.41,0 12.46,-0.15 16.89,-1.2 10,-2.33 15.08,-10.51 19.11,-19 10.52,-22.24 16,-34.08 16,-34.2 a 7,7 0 0 0 -6.36,-9.93 z m 0,14 z"
         fill="#ffffff"
         id="path25" />
      <path
         d="m 606.55,13.68 v 0 m 0,0 -15.29,50.22 -12.81,0.1 14.49,-50.23 13.61,-0.05 m 0,-7 v 0 l -13.61,0.05 a 7,7 0 0 0 -6.7,5.06 L 571.73,62 a 7,7 0 0 0 6.72,9 v 0 l 12.81,-0.06 a 7,7 0 0 0 6.66,-5 l 15.22,-50 a 7,7 0 0 0 -6.62,-9.26 z m 0,14 z"
         fill="#ffffff"
         id="path27" />
      <path
         d="m 613.53,13.73 v 0 m 0,0 v 0 c 0,0 4.65,0 10.74,0 7,0 15.79,0 21.69,0.1 h 0.56 c 7.36,0 12,2.61 8.93,9.52 L 641.67,51.9 c 0,0 -9.49,12.1 -17.39,12.1 H 597.6 l 15.93,-50.23 m 1.08,38.33 c 1.74,0 4.06,0 6.38,0 4.64,0 9.28,0 9.28,0 L 641.38,23.58 H 623.55 L 614.61,52.1 M 613.54,6.73 v 0 a 7,7 0 0 0 -5.23,2.35 7.52,7.52 0 0 0 -0.81,1.11 7.69,7.69 0 0 0 -0.68,1.58 l -15.9,50.08 A 7,7 0 0 0 597.6,71 h 26.68 c 10.76,0 21,-12.28 22.89,-14.74 a 7.41,7.41 0 0 0 0.8,-1.28 L 661.76,26.4 c 0,-0.07 0.07,-0.14 0.1,-0.22 2.74,-6.21 1.34,-10.54 -0.31,-13.07 -2.71,-4.16 -7.77,-6.27 -15,-6.27 H 646 c -6.05,-0.08 -15.12,-0.1 -21.68,-0.1 h -10 -0.69 z m 0,14 z m 15.16,9.81 h 2.45 L 625.5,45 h -1.35 l 4.54,-14.48 z"
         fill="#ffffff"
         id="path29" />
      <path
         d="m 693.48,13.55 c 6.07,0 10.91,0.1 10.91,0.1 l -5,9.89 h -24.82 l -4.64,8.78 h 23.14 l -4.76,9.87 h -23.46 l -4.77,9.87 h 21.73 l -5.92,11.81 c 0,0 -3,0 -7,0 -4.92,0 -11.37,0 -15.68,-0.16 -4.31,-0.16 -9.1,-4 -5.42,-11.61 l 13.29,-28.51 c 2,-4.6 7.57,-8.91 15.63,-9.66 4.8,-0.32 11.29,-0.4 16.77,-0.4 m 0,-7 c -7.26,0 -13.06,0.14 -17.24,0.42 h -0.19 c -9.9,0.93 -18.07,6.2 -21.36,13.77 l -13.22,28.4 c -3.54,7.36 -1.54,12.6 0,15.08 A 14,14 0 0 0 653,70.72 c 4.45,0.14 11.08,0.17 15.87,0.17 4,0 7.05,0 7.05,0 A 7,7 0 0 0 682.15,67 l 5.92,-11.81 a 7,7 0 0 0 0.13,-6 h 0.11 a 7,7 0 0 0 6.3,-4 l 4.76,-9.87 a 7,7 0 0 0 0.47,-4.83 7,7 0 0 0 5.77,-3.82 l 5,-9.89 a 7,7 0 0 0 -6.1,-10.17 c -0.2,0 -5,-0.1 -11,-0.1 z"
         fill="#ffffff"
         id="path31" />
      <path
         d="m 730,13.76 c 5.26,0 11.22,0.05 11.22,0.05 h 0.23 c 5.36,0 10.53,5.91 7.74,9.74 L 728.55,52 c -4,4.79 -7.38,8.5 -9,9.38 -3.05,1.8 -4.39,2.31 -10.77,2.45 -0.1,0.07 -3.59,0.11 -7.1,0.11 -3.51,0 -7,0 -7.15,-0.11 -5.67,-0.25 -12.84,-1.86 -7.79,-11.6 0,0 12.12,-21.23 17.82,-28.82 4.32,-5.73 9,-9.07 17.56,-9.46 v 0 c 0.13,-0.11 3.81,-0.14 7.91,-0.14 m -30.76,38.3 h 17.25 L 736.71,23.59 H 717.94 L 699.27,52.06 M 730,6.76 c -2.34,0 -4.2,0 -5.54,0 a 25.61,25.61 0 0 0 -3.38,0.18 c -9.48,0.6 -16.12,4.28 -22.1,12.21 -5.98,7.93 -17.8,28.68 -18.31,29.57 l -0.13,0.24 c -3,5.79 -3.31,10.81 -0.93,14.93 3.57,6.16 11.31,6.72 14.29,6.86 1.42,0.14 3.63,0.14 7.79,0.14 1.87,0 3.62,0 4.94,0 1,0 1.79,0 2.54,-0.09 6.87,-0.16 9.52,-0.81 13.89,-3.38 1.72,-1 4.26,-3 10.84,-11 l 0.28,-0.36 20.67,-28.43 a 11.49,11.49 0 0 0 0.72,-12.16 16.44,16.44 0 0 0 -14.12,-8.7 h -0.29 c -0.88,0 -6.34,0 -11.16,0 z m -8.3,23.78 h 1.45 L 712.9,45.06 h -0.68 l 9.51,-14.52 z"
         fill="#ffffff"
         id="path33" />
      <g
         id="Capa_1"
         data-name="Capa 1">
        <path
           d="m 694.57,94.36 h -388 l 5.72,6.86 376,0.06 z"
           fill="#ece413"
           id="path35" />
        <path
           d="m 703.6,83.57 h -406 l 6.64,8 H 697 l 6.63,-8 z"
           fill="#eb782a"
           id="path37" />
        <path
           d="m 712.57,72.78 h -424 l 6.57,7.88 H 706 Z"
           fill="#e13132"
           id="path39" />
        <path
           d="m 313.06,52 c 0,0 -5.89,-9.83 -5.92,-9.79 -4.68,-6.88 -9.42,-9.9 -17.41,-9.9 H 271 l -6.54,-8.79 h 30.46 l -5.25,-9.86 c 0,0 -22,-0.36 -32.59,0 a 6.78,6.78 0 0 0 -6.39,9.79 c -0.07,0.07 9.25,12.75 9.25,12.75 4.08,4.43 7,5.73 16.48,6 h 18.18 l 6.4,9.87 H 271.35 L 281.26,64 c 0,0 25.58,0 25.68,-0.1 7.61,0 7.81,-9 6.13,-11.84 z"
           fill="#a1a1a2"
           id="path41" />
        <path
           d="m 296.57,13.68 28.57,50.18 H 336.7 L 325.14,42.19 c 0,0 9.68,0.14 14.54,-0.18 8.43,0.18 11.51,-2.26 9.05,-9.63 l -4,-8.86 c -3.69,-7.37 -5.31,-9.32 -16.41,-9.86 z m 18.8,9.87 h 16.54 l 3.88,8.78 H 319.4 Z"
           fill="#a1a1a2"
           id="path43" />
        <path
           d="m 398.82,63.86 -3.54,-11.7 c 0,0 -13.82,-0.21 -20.78,-0.1 -1,-2.4 -4,-9.86 -4,-9.86 h 20.83 l -2.71,-9.74 h -21.6 l -4,-8.86 h 22.38 l -2.69,-10 -24.38,0.08 c -6.05,0 -9.57,6.2 -8.44,9.94 l 12.47,28.6 c 3.89,7.44 7.59,10.51 14.7,11.39 8,1 21.77,0.25 21.77,0.25 z"
           fill="#a1a1a2"
           id="path45" />
        <path
           d="m 415,13.68 c 0,0 -9.64,-0.14 -15.94,0.12 -6.09,0.11 -10.21,4.65 -9.24,9.82 0,-0.07 8.23,28.44 8.21,28.34 2.58,6.31 7.85,11.92 15.16,11.83 l 13,0.09 -2.19,-11.8 h -13.79 l -8.4,-28.52 h 15.06 z"
           fill="#a1a1a2"
           id="path47" />
        <path
           d="m 419.36,23.54 h 9.47 l 8.09,40.32 h 9.67 l -6.51,-40.32 h 7.39 l -1.29,-9.81 -28.74,-0.05 z"
           fill="#a1a1a2"
           id="path49" />
        <path
           d="m 484.55,42.19 c 4.49,0 9.74,-5.22 9.69,-9.39 -0.23,-3 -0.2,-6.33 -0.55,-9.28 -1,-6.34 -7.69,-9.74 -12.75,-9.84 -10.32,0.22 -31.11,0 -31.11,0 l 6.54,50.18 h 10.81 L 463,23.55 h 18.75 l 0.1,8.78 h -4.73 c -6.72,0 -7.32,5 -4.43,9.74 5.06,7.84 15.87,21.86 15.87,21.86 h 13.28 c 0,0 -9.84,-11.93 -17.34,-21.78 z"
           fill="#a1a1a2"
           id="path51" />
        <path
           d="m 502,12.73 -2.18,51.13 11,0.1 V 52.05 H 526 L 525.45,64 h 10 c 0,0 3.76,-19.22 3.69,-31.54 C 539.43,21.61 531.48,13.71 520.39,12.9 514.34,12.67 502,12.73 502,12.73 Z m 25.23,19.58 0.18,8.85 L 512,41.07 511.68,23.56 c 11,0 15.23,2.4 15.57,8.78 z"
           fill="#a1a1a2"
           id="path53" />
        <path
           d="m 558.88,63 c 6.25,-1.46 10.17,-6.3 14.38,-15.19 10.63,-22.46 16,-34.13 16,-34.13 h -11.93 l -16.65,35.17 a 7,7 0 0 1 -6.92,3.21 c 2.13,-13.45 6.88,-38.38 6.88,-38.38 h -11.83 c 0,0 -7.92,47.75 -7.92,50.32 0,0 12.94,0.19 17.99,-1 z"
           fill="#a1a1a2"
           id="path55" />
        <path
           d="M 606.55,13.68 592.94,13.73 578.45,64 591.26,63.94 Z"
           fill="#a1a1a2"
           id="path57" />
        <path
           d="M 613.53,13.73 597.6,64 h 26.68 c 7.9,0 17.39,-12.06 17.39,-12.06 L 655.45,23.4 c 3.13,-7.09 -1.81,-9.65 -9.49,-9.51 -11.06,-0.15 -32.43,-0.08 -32.43,-0.08 z m 27.85,9.81 -11.11,28.52 c 0,0 -10.44,-0.1 -15.66,0 l 8.94,-28.52 z"
           fill="#a1a1a2"
           id="path59" />
        <path
           d="m 681.81,52.06 h -21.73 l 4.77,-9.87 h 23.46 l 4.76,-9.87 h -23.14 l 4.64,-8.78 h 24.79 l 5,-9.89 c 0,0 -17.56,-0.37 -27.68,0.3 -8.06,0.75 -13.67,5.06 -15.63,9.66 l -13.26,28.51 c -3.68,7.6 1.18,11.51 5.42,11.61 7.82,0.23 22.68,0.14 22.68,0.14 z"
           fill="#a1a1a2"
           id="path61" />
        <path
           d="m 722.16,13.93 c -8.57,0.39 -13.24,3.73 -17.56,9.46 -5.7,7.59 -17.82,28.82 -17.82,28.82 -5,9.74 2.12,11.35 7.79,11.6 0.27,0.15 14.06,0.15 14.25,0 6.38,-0.14 7.72,-0.65 10.77,-2.45 1.58,-0.88 5,-4.59 9,-9.38 l 20.67,-28.43 c 2.83,-3.89 -2.53,-9.92 -8,-9.74 0,0 -18.83,-0.16 -19.13,0.09 z m -4.22,9.61 h 18.77 l -20.19,28.52 h -17.25 z"
           fill="#a1a1a2"
           id="path63" />
      </g>
    </g>
  </g>
  <metadata
     id="metadata888">
    <rdf:RDF>
      <cc:Work
         rdf:about="">
        <dc:title>logo</dc:title>
      </cc:Work>
    </rdf:RDF>
  </metadata>
</svg>
