<?xml version="1.0" encoding="UTF-8" standalone="no"?>
<svg
   id="Capa_1"
   data-name="Capa 1"
   viewBox="0 0 451.76923 114"
   version="1.1"
   sodipodi:docname="sufami.svg"
   width="451.76923"
   height="114"
   inkscape:version="1.1 (c68e22c387, 2021-05-23)"
   xmlns:inkscape="http://www.inkscape.org/namespaces/inkscape"
   xmlns:sodipodi="http://sodipodi.sourceforge.net/DTD/sodipodi-0.dtd"
   xmlns="http://www.w3.org/2000/svg"
   xmlns:svg="http://www.w3.org/2000/svg"
   xmlns:rdf="http://www.w3.org/1999/02/22-rdf-syntax-ns#"
   xmlns:cc="http://creativecommons.org/ns#"
   xmlns:dc="http://purl.org/dc/elements/1.1/">
  <defs
     id="defs208" />
  <sodipodi:namedview
     id="namedview206"
     pagecolor="#ffffff"
     bordercolor="#666666"
     borderopacity="1.0"
     inkscape:pageshadow="2"
     inkscape:pageopacity="0.0"
     inkscape:pagecheckerboard="0"
     showgrid="false"
     fit-margin-top="0"
     fit-margin-left="0"
     fit-margin-right="0"
     fit-margin-bottom="0"
     inkscape:zoom="1.113"
     inkscape:cx="225.96586"
     inkscape:cy="56.603774"
     inkscape:window-width="1920"
     inkscape:window-height="1138"
     inkscape:window-x="-8"
     inkscape:window-y="-8"
     inkscape:window-maximized="1"
     inkscape:current-layer="Capa_1" />
  <title
     id="title2">logo</title>
  <g
     id="g1128"
     transform="translate(-274.11544)">
    <g
       id="Layer_2"
       data-name="Layer 2">
      <rect
         x="417.46579"
         y="61.76152"
         width="14.44444"
         height="12.05553"
         stroke-width="7"
         stroke="#ffffff"
         stroke-linecap="round"
         stroke-linejoin="round"
         fill="#ffffff"
         id="rect4" />
      <rect
         x="478.13245"
         y="42.5429"
         width="17.9867"
         height="14.4571"
         stroke-width="7"
         stroke="#ffffff"
         stroke-linecap="round"
         stroke-linejoin="round"
         fill="#ffffff"
         id="rect6" />
      <rect
         x="504.5769"
         y="47.094849"
         width="10.66667"
         height="14.66667"
         stroke-width="7"
         stroke="#ffffff"
         stroke-linecap="round"
         stroke-linejoin="round"
         fill="#ffffff"
         id="rect8" />
      <rect
         x="527.82892"
         y="46.205971"
         width="10.78946"
         height="13.85449"
         stroke-width="7"
         stroke="#ffffff"
         stroke-linecap="round"
         stroke-linejoin="round"
         fill="#ffffff"
         id="rect10" />
      <rect
         x="608.10596"
         y="39.351749"
         width="24.11063"
         height="18.944031"
         stroke-width="7"
         stroke="#ffffff"
         stroke-linecap="round"
         stroke-linejoin="round"
         fill="#ffffff"
         id="rect12" />
      <rect
         x="690.5769"
         y="64.423073"
         width="20.621849"
         height="23.52562"
         stroke-width="7"
         stroke="#ffffff"
         stroke-linecap="round"
         stroke-linejoin="round"
         fill="#ffffff"
         id="rect14" />
    </g>
    <path
       d="m 467.51083,47.45607 a 3.50153,3.50153 0 0 1 -2.53613,-1.08789 c 0,0 -1.415,-1.48925 -1.498,-1.5791 l -2.04492,1.06446 a 3.21649,3.21649 0 0 1 -0.33887,0.15429 c 0,0 -0.94141,0.36914 -0.97363,0.37989 l -1.06446,0.38281 c -0.99609,0.68554 -2.82324,0.68554 -8.49414,0.68554 h -6.37011 a 3.50058,3.50058 0 0 1 -3.34278,-2.46093 3.4895,3.4895 0 0 1 -1.00293,-2.45215 v -6.37891 a 3.50018,3.50018 0 0 1 3.5,-3.5 h 5.84278 c 1.56836,0 4.4082,0 5.22461,-0.07568 l 0.76757,-0.25781 c 0.0937,-0.03174 0.18848,-0.05909 0.28516,-0.08252 0.12891,-0.05469 0.35645,-0.15772 0.62012,-0.29541 a 3.67757,3.67757 0 0 0 0.44824,-0.30616 l -1.92871,-0.0093 C 443.88,31.584 443.88,31.584 442.62313,29.878 a 3.75485,3.75485 0 0 1 -0.55273,-1.0625 3.72,3.72 0 0 1 -0.293,-0.352 c -0.81543,-1.09131 -0.89746,-2.32422 -0.89746,-5.08057 0,-2.69238 0,-4.17529 1.30957,-5.47021 1.2666,-1.28321 1.2666,-1.28321 14.0791,-1.28321 13.002,0 13.002,0 14.25586,1.52686 a 3.56721,3.56721 0 0 1 0.65918,1.20312 c 0.0586,0.061 0.11621,0.125 0.17187,0.19239 1.02833,1.23047 1.01563,2.2959 0.958,7.416 -0.0488,4.42871 -0.0625,5.68311 -0.70508,6.8584 l -0.24121,0.61328 a 24.04049,24.04049 0 0 1 3.33985,4.061 l 0.1914,0.18457 a 3.49947,3.49947 0 0 1 0.91309,1.47949 3.50491,3.50491 0 0 1 0.90723,1.63623 l 0.21777,0.90625 a 3.50015,3.50015 0 0 1 -0.22266,2.27832 l -0.19824,0.43164 a 3.50183,3.50183 0 0 1 -3.18066,2.03906 z"
       fill="#ffffff"
       id="path17" />
    <path
       d="m 456.26864,20.12952 c 9.65277,0 11.37579,0.035 11.55072,0.2478 a 3.45592,3.45592 0 0 1 0.14587,1.27063 c 0.46088,0.03522 0.64942,0.08136 0.69983,0.14276 0.15161,0.18079 0.18952,1.53351 0.14869,5.1369 -0.0466,4.3089 -0.0903,4.94446 -0.35566,5.34967 l -0.30609,0.76679 -0.43152,1.17193 -0.36969,1.0232 c 0.16175,0.18762 0.33673,0.3836 0.521,0.58087 2.59473,2.78418 3.74921,4.131 3.74921,4.3847 l 0.21569,0.39063 0.63269,0.60931 0.179,0.74243 0.0341,0.06165 0.63263,0.60931 0.21869,0.90668 -0.19831,0.43146 H 467.5106 L 466.2745,42.656 a 12.01845,12.01845 0 0 1 -1.42273,-1.71131 0.71872,0.71872 0 0 0 -0.6369,-0.48962 0.86946,0.86946 0 0 0 -0.56128,0.24475 l -0.554,0.32648 -0.45477,0.25073 -2.82794,1.47229 -0.88043,0.344 -1.24774,0.449 -0.66474,0.26239 c -0.0525,0.08453 -2.94745,0.15155 -6.46338,0.15155 h -6.37 v -1.41335 h -0.84577 v -6.37885 h 5.84241 c 4.84827,0 5.92694,-0.04376 6.33508,-0.25653 l 0.77259,-0.25952 a 6.20051,6.20051 0 0 0 1.40814,-0.5918 c 1.41687,-0.73761 4.43426,-3.685 4.43426,-4.32928 l 0.35279,-1.309 a 4.20661,4.20661 0 0 0 0.27307,-1.24072 l -8.14142,-0.03974 c -8.18341,-0.04077 -8.98517,-0.07 -9.18048,-0.33526 a 3.08137,3.08137 0 0 1 -0.18433,-1.21747 c -0.455,-0.04517 -0.596,-0.10712 -0.66138,-0.19587 a 9.229,9.229 0 0 1 -0.21575,-3.00579 c 0,-2.23609 0.0466,-2.76081 0.27111,-2.98236 0.23908,-0.242 1.53058,-0.27118 11.61774,-0.27118 m 0,-7 c -5.07788,0 -7.96686,0.0072 -9.66467,0.04673 -2.22339,0.05172 -4.74225,0.11045 -6.90308,2.27494 -2.32123,2.3163 -2.3211,5.04432 -2.3211,7.93187 0,2.69937 0,5.03064 1.59631,7.17978 q 0.0307,0.04161 0.0618,0.08264 a 6.98748,6.98748 0 0 0 -2.69306,5.51858 v 6.37885 a 6.97045,6.97045 0 0 0 1.454,4.27167 7.00143,7.00143 0 0 0 6.39173,4.14166 h 6.37 c 1.75733,0 3.42432,-0.01633 4.69391,-0.046 a 13.2948,13.2948 0 0 0 4.33746,-0.59976 l 0.002,0.0053 0.56513,-0.22309 1.14727,-0.41284 q 0.0891,-0.032 0.17725,-0.0665 l 0.88049,-0.344 q 0.2016,-0.07878 0.39795,-0.16986 a 7.00042,7.00042 0 0 0 4.74835,1.85669 h 5.82489 a 7.00007,7.00007 0 0 0 6.36048,-4.07685 L 479.894,46.4479 a 7.00011,7.00011 0 0 0 0.44446,-4.56449 l -0.21869,-0.90667 a 7.00007,7.00007 0 0 0 -1.26264,-2.63459 7.00014,7.00014 0 0 0 -1.37841,-2.0267 21.105,21.105 0 0 0 -2.0774,-2.64648 32.95538,32.95538 0 0 0 0.41181,-6.66562 c 0.0612,-5.3985 0.0833,-7.344 -1.59424,-9.47638 a 7.08078,7.08078 0 0 0 -1.00726,-1.613 c -2.17139,-2.62613 -4.983,-2.68591 -7.46448,-2.73878 -1.79376,-0.03821 -4.8338,-0.0457 -9.4787,-0.0457 z"
       fill="#ffffff"
       id="path19" />
    <path
       d="m 503.66024,47.45607 c -3.41894,0 -5.3623,-0.0068 -6.49511,-0.04687 -1.25293,-0.04395 -3.585,-0.126 -4.49122,-2.45606 -0.0225,-0.06152 -0.0449,-0.123 -0.0654,-0.18457 a 3.59369,3.59369 0 0 1 -0.7832,-1.23828 c -0.20312,-0.52929 -1.09375,-8.166 0.89356,-10.15332 1.25586,-1.23193 1.874,-1.23193 9.44238,-1.23193 1.8418,0 5.15625,0 6.14258,-0.07959 0.7539,-0.31055 1.71679,-0.61328 1.84668,-0.65381 a 5.87941,5.87941 0 0 0 0.7207,-0.26953 L 494.255,31.07473 a 3.49967,3.49967 0 0 1 -3.25977,-2.26416 l -0.0781,-0.20606 a 3.49658,3.49658 0 0 1 -0.76856,-1.20849 l -0.166,-0.44043 c -0.12012,-0.311 -0.39453,-1.01953 -0.39453,-3.90479 0,-2.22461 0,-3.69433 1.38672,-5.06543 1.35351,-1.356 1.35351,-1.356 15.81054,-1.356 14.45508,0 14.45508,0 15.751,1.29639 a 3.9289,3.9289 0 0 1 0.92187,1.49121 c 1.2168,1.26074 1.2168,2.05274 1.2168,8.52783 0,5.562 0,6.417 -0.53906,8.08887 a 26.33946,26.33946 0 0 1 -1.52637,3.771 18.38613,18.38613 0 0 1 -4.58691,4.7207 10.08311,10.08311 0 0 1 -4.65235,2.27441 l -0.10351,0.041 c -0.93561,0.61529 -2.46686,0.61529 -9.60651,0.61529 z"
       fill="#ffffff"
       id="path21" />
    <path
       d="m 506.78481,20.12952 c 11.5915,0 13.03461,0.02917 13.27655,0.27118 0.11744,0.11889 0.18458,0.38122 0.22242,1.26171 0.406,0.03779 0.55883,0.087 0.62341,0.15162 0.23328,0.23614 0.26819,1.032 0.26819,6.131 0,5.5246 -0.0204,5.92694 -0.37024,7.01434 a 22.61294,22.61294 0 0 1 -1.32361,3.274 15.69791,15.69791 0 0 1 -3.54224,3.481 l -0.27978,0.16033 c 0,0.35566 -1.77832,1.19532 -3.36145,1.58594 l -0.85413,0.33527 c -0.0962,0.09625 -3.24487,0.16034 -7.78405,0.16034 -6.78992,0 -7.62958,-0.02912 -7.72284,-0.27112 a 6.04765,6.04765 0 0 1 -0.10248,-1.21814 c -0.55585,-0.04059 -0.70734,-0.102 -0.74329,-0.19525 a 31.94532,31.94532 0 0 1 0.10205,-6.41962 c 0.15454,-0.15161 1.93872,-0.207 6.96772,-0.207 5.51007,0 6.85406,-0.04376 7.25054,-0.24493 a 16.79046,16.79046 0 0 1 1.78138,-0.64716 5.84363,5.84363 0 0 0 3.408,-2.30609 l 0.56274,-0.85126 -0.0437,-2.6734 -0.0222,-1.2633 -10.00354,-0.04047 -10.82477,-0.0437 -0.16613,-0.44025 a 4.86243,4.86243 0 0 1 -0.11982,-0.97088 l -0.55975,-0.0023 -0.1662,-0.44025 A 14.26263,14.26263 0 0 1 493.0885,23.0507 c 0,-2.00287 0.035,-2.26813 0.34693,-2.57715 0.33813,-0.33819 0.57428,-0.344 13.34942,-0.344 m 0,-7 c -6.708,0 -9.74829,0.0019 -11.51879,0.04753 -1.92066,0.04945 -4.55109,0.1172 -6.7807,2.34707 -2.39686,2.37435 -2.39686,5.11156 -2.39686,7.5266 0,3.53525 0.39936,4.57074 0.638,5.18942 l 0.14844,0.39371 a 6.99335,6.99335 0 0 0 1.007,1.80472 6.98469,6.98469 0 0 0 1.24652,1.88748 c -1.07013,1.81421 -1.1029,3.87167 -1.14483,6.50412 -0.0584,3.66241 0.12939,4.79538 0.57244,5.94968 a 7.21685,7.21685 0 0 0 0.98945,1.76245 c 1.21527,2.76764 3.73413,4.23294 7.49646,4.36484 1.19085,0.04174 3.08282,0.0491 6.61792,0.0491 2.27856,0 4.25018,-0.01575 5.70184,-0.04556 a 12.58488,12.58488 0 0 0 5.01361,-0.74546 l 0.0859,-0.03375 a 14.068,14.068 0 0 0 5.60363,-2.71164 17.04,17.04 0 0 0 2.55481,-2.18057 13.96825,13.96825 0 0 0 3.11792,-3.86572 29.74112,29.74112 0 0 0 1.734,-4.27939 c 0.70374,-2.1872 0.70374,-3.38645 0.70374,-9.14908 0,-6.23679 0,-8.34168 -1.70166,-10.405 a 7.28164,7.28164 0 0 0 -1.43213,-2.05852 c -2.20264,-2.20341 -4.75317,-2.25543 -7.2196,-2.30577 -1.91785,-0.03912 -5.22168,-0.04629 -11.03718,-0.04629 z"
       fill="#ffffff"
       id="path23" />
    <path
       d="m 529.26571,47.45607 c -4.64453,0 -5.89355,0 -7.1416,-1.5 a 3.63434,3.63434 0 0 1 -0.67676,-1.22265 c -0.0547,-0.05762 -0.10742,-0.11719 -0.16015,-0.17969 -0.94434,-1.13086 -1.02051,-2.39941 -0.96973,-5.02588 l 0.0498,-2.47265 a 3.49659,3.49659 0 0 1 1.15332,-2.52735 3.50306,3.50306 0 0 1 -1.17089,-1.70654 3.49615,3.49615 0 0 1 -1.00391,-2.45313 V 25.40627 A 3.50049,3.50049 0 0 1 521.5704,22.147 c 0.74805,-0.293 0.88281,-0.3457 12.87793,-0.3457 12.78222,0 12.78222,0 14.01367,1.23242 a 3.52946,3.52946 0 0 1 0.88965,1.4585 c 2.17676,2.31054 0.85351,11.35156 0.83105,11.43408 a 8.69659,8.69659 0 0 1 -4.68945,5.79834 l -1.02051,0.54785 a 3.50514,3.50514 0 0 1 -1.57715,0.416 l -3.49023,0.0791 a 7.26708,7.26708 0 0 1 -3.6377,3.96875 c -1.4082,0.71973 -2.38574,0.71973 -6.50195,0.71973 z"
       fill="#ffffff"
       id="path25" />
    <path
       d="m 534.44882,25.30139 c 8.58276,0 11.38159,0.04956 11.53906,0.207 a 4.23386,4.23386 0 0 1 0.1626,1.31354 1.9102,1.9102 0 0 1 0.6831,0.09985 c 0.28858,0.28864 0.271,7.00568 -0.0234,8.06977 a 5.24445,5.24445 0 0 1 -2.96777,3.64709 l -1.02624,0.551 -3.233,0.07287 -3.23315,0.07 V 40.21 a 3.69042,3.69042 0 0 1 -2.16626,3.40515 c -0.60925,0.312 -1.02612,0.34107 -4.91821,0.34107 -3.41675,0 -4.29139,-0.04663 -4.45166,-0.239 a 3.11767,3.11767 0 0 1 -0.15454,-1.2434 c -0.43445,-0.03675 -0.62525,-0.09089 -0.69117,-0.17 a 8.16107,8.16107 0 0 1 -0.15161,-2.70837 l 0.0496,-2.4693 0.4314,-0.11957 a 32.70509,32.70509 0 0 1 3.4314,-0.137 l 3.0028,-0.01746 0.57434,-0.64435 c 0.53052,-0.59472 0.57727,-0.74047 0.57727,-1.77832 0,-1.77551 -0.21,-1.69384 4.50721,-1.75213 3.79858,-0.04377 4.10473,-0.07294 4.46045,-0.39362 l 0.1394,-0.34833 c -1.17859,-0.04467 -3.4541,-0.0487 -7.91443,-0.0487 -5.01147,0 -9.23584,-0.04669 -9.38452,-0.105 v -1.37188 a 7.89675,7.89675 0 0 1 -0.84583,-0.0415 v -4.96192 c 0.14869,-0.05835 5.37012,-0.105 11.60328,-0.105 m 0,-7 c -12.6604,0 -12.6886,0.011 -14.16089,0.589 a 7,7 0 0 0 -4.44239,6.516 v 4.96192 a 6.9942,6.9942 0 0 0 1.45765,4.27575 l 0.009,0.02079 a 6.99073,6.99073 0 0 0 -0.44506,2.32086 l -0.0496,2.4693 c -0.0465,2.4187 -0.0945,4.91137 1.58912,7.10092 a 7.15516,7.15516 0 0 0 1.04052,1.65607 c 2.28614,2.74426 4.96143,2.74426 9.818,2.74426 4.44311,0 5.93994,0 8.10839,-1.11029 a 10.986,10.986 0 0 0 4.15992,-3.62564 l 1.44006,-0.03244 a 7.00031,7.00031 0 0 0 3.15369,-0.831 l 1.02624,-0.551 a 12.20486,12.20486 0 0 0 6.40308,-7.94831 c 0.15283,-0.55233 0.47119,-1.70306 0.48364,-6.1723 0.009,-3.37713 0.0164,-5.90747 -1.6604,-8.04236 a 6.97035,6.97035 0 0 0 -1.44043,-2.08227 c -2.11938,-2.1185 -4.46582,-2.16049 -7.43664,-2.21363 -1.76172,-0.03152 -4.55408,-0.04559 -9.0542,-0.04559 z"
       fill="#ffffff"
       id="path27" />
    <path
       d="m 576.74813,32.88234 c -0.10156,0 -0.20312,-0.0044 -0.30566,-0.01318 l -26.50684,-2.3208 a 3.49647,3.49647 0 0 1 -2.27832,-1.12647 l -0.82812,-0.90673 a 3.488,3.488 0 0 1 -0.75586,-1.31446 l -0.0899,-0.09863 a 3.4966,3.4966 0 0 1 -0.916,-2.36035 v -3.88916 a 3.50189,3.50189 0 0 1 1.127,-2.57275 l 0.82813,-0.76368 a 3.5006,3.5006 0 0 1 2.373,-0.92724 q 0.15236,0 0.30469,0.01318 l 26.50684,2.31738 a 3.50265,3.50265 0 0 1 2.27929,1.126 l 0.83106,0.90967 a 3.50529,3.50529 0 0 1 0.75683,1.31592 l 0.0889,0.09765 a 3.5025,3.5025 0 0 1 0.916,2.36084 v 3.88916 a 3.49841,3.49841 0 0 1 -1.13184,2.57715 l -0.83105,0.76367 a 3.50179,3.50179 0 0 1 -2.36817,0.92283 z"
       fill="#ffffff"
       id="path29" />
    <path
       d="m 549.39584,20.08875 26.50659,2.31768 0.83081,0.90961 v 0.5025 l 0.0149,0.0013 0.83081,0.90961 v 3.8891 l -0.83081,0.76379 -26.50659,-2.32061 -0.82788,-0.90668 V 25.6499 l -0.0178,-0.0016 -0.82788,-0.90668 v -3.8891 l 0.82788,-0.76379 m -3.7e-4,-7 a 7.00011,7.00011 0 0 0 -4.74621,1.85512 l -0.82789,0.76378 a 7.00013,7.00013 0 0 0 -2.25341,5.14493 v 3.8891 a 7.00054,7.00054 0 0 0 1.45776,4.276 7.00051,7.00051 0 0 0 1.21863,1.85745 l 0.82788,0.90665 a 7.00018,7.00018 0 0 0 4.55884,2.25329 l 26.50659,2.32062 c 0.20386,0.01785 0.40784,0.0267 0.61084,0.0267 a 6.99982,6.99982 0 0 0 4.73718,-1.8468 l 0.83081,-0.76379 a 6.99992,6.99992 0 0 0 2.26245,-5.15323 v -3.8891 a 6.99972,6.99972 0 0 0 -1.45776,-4.276 6.99946,6.99946 0 0 0 -1.21936,-1.85822 l -0.83081,-0.9096 A 7.0003,7.0003 0 0 0 576.5122,15.43305 L 550.00561,13.11536 Q 549.7,13.08865 549.3955,13.08873 Z"
       fill="#ffffff"
       id="path31" />
    <path
       d="m 576.74813,40.19094 c -0.10156,0 -0.20312,-0.0044 -0.30566,-0.01319 l -26.50684,-2.32031 a 3.49646,3.49646 0 0 1 -2.27832,-1.12646 l -0.82812,-0.90674 a 3.50348,3.50348 0 0 1 -0.75684,-1.31543 l -0.0889,-0.09815 a 3.49658,3.49658 0 0 1 -0.916,-2.36035 v -3.89209 a 3.50308,3.50308 0 0 1 1.13183,-2.57763 l 0.82813,-0.76075 a 3.50136,3.50136 0 0 1 2.36816,-0.92236 q 0.15236,0 0.30469,0.01318 l 26.50684,2.31788 a 3.50264,3.50264 0 0 1 2.27929,1.126 l 0.83106,0.90967 a 3.5011,3.5011 0 0 1 0.75586,1.31543 l 0.0898,0.09766 a 3.50248,3.50248 0 0 1 0.916,2.36084 v 3.88916 a 3.49837,3.49837 0 0 1 -1.13184,2.57714 l -0.83105,0.76368 a 3.50184,3.50184 0 0 1 -2.36816,0.92282 z"
       fill="#ffffff"
       id="path33" />
    <path
       d="m 549.39584,27.39752 26.50659,2.31775 0.83081,0.90961 v 0.5025 l 0.0149,0.0013 0.83081,0.90961 v 3.8891 l -0.83081,0.76379 -26.50659,-2.32062 -0.82788,-0.90667 v -0.50513 l -0.0178,-0.0016 -0.82788,-0.90667 v -3.892 l 0.82788,-0.76093 m -3.7e-4,-7 a 6.99988,6.99988 0 0 0 -4.73645,1.84619 l -0.828,0.76093 a 7.00008,7.00008 0 0 0 -2.26306,5.15384 v 3.892 a 6.99972,6.99972 0 0 0 1.45776,4.276 7.00085,7.00085 0 0 0 1.21863,1.85739 l 0.82788,0.90668 a 6.9997,6.9997 0 0 0 4.55884,2.25335 l 26.50659,2.32062 c 0.20386,0.01785 0.40784,0.0267 0.61084,0.0267 a 7,7 0 0 0 4.73718,-1.8468 l 0.83081,-0.76379 a 6.99992,6.99992 0 0 0 2.26245,-5.15323 v -3.8891 a 7.0005,7.0005 0 0 0 -1.45776,-4.276 6.99866,6.99866 0 0 0 -1.21936,-1.85819 l -0.83081,-0.9096 A 7.0002,7.0002 0 0 0 576.5122,22.74198 L 550.00561,20.42423 Q 549.7,20.3975 549.3955,20.39759 Z"
       fill="#ffffff"
       id="path35" />
    <path
       d="m 576.74813,47.5 c -0.10156,0 -0.20312,-0.0049 -0.30566,-0.01367 L 549.93563,45.166 a 3.49711,3.49711 0 0 1 -2.27929,-1.127 l -0.82813,-0.90722 a 3.49869,3.49869 0 0 1 -0.75488,-1.31348 l -0.0899,-0.09863 a 3.4957,3.4957 0 0 1 -0.916,-2.36036 v -3.892 a 3.50193,3.50193 0 0 1 1.127,-2.57276 l 0.82813,-0.76367 a 3.50061,3.50061 0 0 1 2.373,-0.92725 c 0.10157,0 0.20313,0.0044 0.30567,0.01319 l 26.50683,2.32031 a 3.50249,3.50249 0 0 1 2.27832,1.126 l 0.83106,0.90966 a 3.50537,3.50537 0 0 1 0.75683,1.31592 l 0.0889,0.09766 a 3.50248,3.50248 0 0 1 0.916,2.36084 v 3.88916 a 3.49921,3.49921 0 0 1 -1.13184,2.57715 l -0.83105,0.76367 A 3.50184,3.50184 0 0 1 576.74813,47.5 Z"
       fill="#ffffff"
       id="path37" />
    <path
       d="m 549.39584,34.70349 26.50659,2.32062 0.83081,0.90961 v 0.5025 l 0.0149,0.0013 0.83081,0.90955 v 3.8891 L 576.74813,44 550.24154,41.67938 549.41366,40.77271 v -0.50513 l -0.0178,-0.0016 -0.82788,-0.90668 v -3.892 l 0.82788,-0.7638 m -3.7e-4,-7 a 7.00025,7.00025 0 0 0 -4.74621,1.85513 l -0.82789,0.76377 a 7.00011,7.00011 0 0 0 -2.25341,5.14493 v 3.892 a 6.99968,6.99968 0 0 0 1.45776,4.276 7.00042,7.00042 0 0 0 1.21863,1.8574 l 0.82788,0.9067 a 6.99986,6.99986 0 0 0 4.55884,2.25333 l 26.50659,2.32062 c 0.20386,0.01785 0.40784,0.0267 0.61084,0.0267 a 7.00025,7.00025 0 0 0 4.73743,-1.847 l 0.83081,-0.76386 a 6.99991,6.99991 0 0 0 2.2622,-5.153 v -3.8891 a 7.00013,7.00013 0 0 0 -1.45788,-4.2761 6.99838,6.99838 0 0 0 -1.21924,-1.858 l -0.83081,-0.90964 a 6.99985,6.99985 0 0 0 -4.55811,-2.25253 l -26.50659,-2.32062 q -0.306,-0.02678 -0.61084,-0.0267 z"
       fill="#ffffff"
       id="path39" />
    <path
       d="m 589.0245,48.01564 c -5.94434,0 -5.94434,0 -6.78613,-0.39843 a 3.4965,3.4965 0 0 1 -1.84375,-2.123 3.49746,3.49746 0 0 1 -1.00391,-2.42676 l -0.0439,-5.92431 a 3.45639,3.45639 0 0 1 0.0146,-0.34864 c -0.0273,-0.02539 -0.0547,-0.05127 -0.0811,-0.07714 a 3.48768,3.48768 0 0 1 -0.89356,-1.46143 3.50024,3.50024 0 0 1 -1.0039,-2.45313 v -6.3706 a 3.49949,3.49949 0 0 1 2.09375,-3.20508 2.76342,2.76342 0 0 0 0.86133,-0.75635 4.92768,4.92768 0 0 0 0.74121,-1.5 3.49959,3.49959 0 0 1 3.49707,-3.35595 h 20.01855 c 0,0 3.94336,-0.05567 3.96,-0.05567 a 3.53837,3.53837 0 0 1 3.33985,2.40332 c 1.23242,0.998 1.22461,2.09815 1.166,9.7583 l -0.0156,2.54492 c -0.0215,4.14258 -0.0234,4.48145 -0.49121,5.91846 q -0.0469,0.14428 -0.10547,0.28418 a 14.95521,14.95521 0 0 1 -3.05762,4.90576 11.74363,11.74363 0 0 1 -3.73144,2.89746 l -0.51563,0.26172 c -2.81641,1.43946 -3.415,1.44141 -10.74805,1.4668 -3e-5,-7e-5 -4.28421,0.01557 -5.37112,0.01557 z"
       fill="#ffffff"
       id="path41" />
    <path
       d="m 608.55453,21.05927 c 0.0847,0.05822 0.13513,0.41467 0.15967,1.423 l 0.686,-0.0096 c 0.17407,0.1195 0.204,1.47515 0.1604,7.22137 -0.0461,6.44879 0.019,6.3205 -0.33447,7.408 a 11.598,11.598 0 0 1 -2.38477,3.87451 8.28391,8.28391 0 0 1 -2.749,2.16614 c -2.85522,1.4314 -1.93872,1.32355 -11.55127,1.36438 -1.244,0.0061 -2.43481,0.009 -3.51636,0.009 -3.0321,0 -5.20605,-0.02282 -5.28833,-0.06152 l -0.0101,-1.37842 a 7.8803,7.8803 0 0 1 -0.83557,-0.035 l -0.0435,-5.924 c 0.13318,-0.22449 1.22364,-0.26532 7.8938,-0.309 6.13452,-0.03791 7.70532,0.02307 9.04419,-0.35871 a 4.52688,4.52688 0 0 0 3.04029,-1.62982 2.65831,2.65831 0 0 0 0.26025,-0.3421 c -1.91126,-0.16028 -5.72754,-0.19641 -8.77869,-0.19641 -2.50195,0 -4.48938,0.02429 -4.48938,0.02429 l 0.008,-1.42182 c -0.53515,0.0046 -0.854,0.0085 -0.854,0.0085 l 0.0184,-3.175 a 7.6609,7.6609 0 0 1 -0.77344,1.2785 8.63827,8.63827 0 0 1 -6.48791,3.22059 V 32.733 a 7.75116,7.75116 0 0 1 -0.84583,0.06976 v -6.37045 a 6.11537,6.11537 0 0 0 2.306,-1.93243 6.90447,6.90447 0 0 0 1.38685,-3.38519 h 20.0192 l 3.95923,-0.05542 m -16.05774,7.81588 c 4.54248,0 11.89734,-0.13217 11.90222,-0.98782 0.002,-0.44977 0.003,-0.9975 0.003,-1.67951 0,-0.15271 4.9e-4,-0.28631 6.1e-4,-0.431 H 589.839 a 8.6152,8.6152 0 0 1 -0.48291,3.07746 c 0.55408,0.0078 1.70728,0.0209 3.14075,0.0209 m 16.05774,-14.81587 c -0.0327,0 -0.0652,2.3e-4 -0.0979,6.9e-4 l -3.91016,0.05472 h -19.97038 a 7,7 0 0 0 -6.939,6.07754 l -0.0282,0.053 a 7.00011,7.00011 0 0 0 -3.72571,6.1871 v 6.37042 a 6.99958,6.99958 0 0 0 1.45813,4.27643 7.00154,7.00154 0 0 0 0.51233,0.94226 l 0.0372,5.07108 a 6.99637,6.99637 0 0 0 1.45728,4.22427 6.99789,6.99789 0 0 0 3.40881,3.472 c 1.54615,0.72726 1.79859,0.72726 8.2677,0.72726 1.09217,0 2.29456,-0.0029 3.55079,-0.0091 l 1.82348,-0.0068 c 7.43482,-0.0256 8.77454,-0.03021 12.33582,-1.84881 l 0.49463,-0.251 a 15.08994,15.08994 0 0 0 4.70837,-3.62525 18.50049,18.50049 0 0 0 3.7322,-5.93879 q 0.119,-0.28034 0.21325,-0.57016 c 0.63526,-1.95413 0.63929,-2.71859 0.66175,-6.96109 l 0.0154,-2.56094 c 0.0242,-3.17432 0.0242,-4.83667 -1.2e-4,-5.92606 a 9.03729,9.03729 0 0 0 -1.62415,-5.65545 6.851,6.851 0 0 0 -2.41724,-2.87253 7.00034,7.00034 0 0 0 -3.96435,-1.23079 z"
       fill="#ffffff"
       id="path43" />
    <path
       d="m 479.70028,38.94338 c -7.35937,0 -7.69043,-0.05078 -7.98242,-0.09619 a 3.86254,3.86254 0 0 1 -3.17383,-2.47754 c -1.334,-1.33106 -1.29,-3.63086 -1.24707,-5.87549 l 0.0498,-2.58691 a 3.49975,3.49975 0 0 1 3.48339,-3.43262 l 10.23829,-0.04639 c 1.53515,-0.0068 2.877,-0.01025 4.042,-0.01025 6.94531,0 7.51269,0 8.67773,0.96387 a 3.70848,3.70848 0 0 1 1.17382,1.71484 c 1.17871,1.21436 1.17871,2.84717 1.17871,5.22119 0,2.66406 0,4.272 -1.54883,5.55859 -1.24707,1.044 -1.24707,1.044 -12.18847,1.064 z"
       fill="#ffffff"
       id="path45" />
    <path
       d="m 485.10647,27.91815 a 47.27986,47.27986 0 0 1 6.4527,0.16162 c 0.12457,0.10248 0.18872,0.46411 0.2171,1.32856 a 2.00206,2.00206 0 0 1 0.62866,0.08477 c 0.18073,0.14868 0.23615,0.81635 0.23615,2.825 0,2.23608 -0.0438,2.66467 -0.28571,2.86578 -0.23321,0.19537 -2.03491,0.242 -9.95892,0.25659 -0.92725,0.002 -1.83106,0.003 -2.69373,0.003 -4.08465,0 -7.23511,-0.02176 -7.45172,-0.05548 -0.44665,-0.07062 -0.59509,-0.21228 -0.62286,-1.40149 -0.11334,-0.0038 -0.196,-0.0077 -0.2229,-0.0119 -0.62677,-0.09912 -0.66761,-0.32654 -0.60932,-3.41388 l 0.0496,-2.58594 10.23877,-0.04663 c 1.528,-0.0066 2.86292,-0.01 4.02222,-0.01 m 0,-7 c -1.168,0 -2.51306,0.0034 -4.05255,0.01007 l -10.2403,0.04663 a 6.99994,6.99994 0 0 0 -6.96685,6.86579 l -0.0496,2.58593 a 21.55437,21.55437 0 0 0 0.15546,4.19208 7.87714,7.87714 0 0 0 1.49329,3.44113 7.5059,7.5059 0 0 0 5.71185,4.24231 c 0.61017,0.095 0.90814,0.14139 8.54492,0.14139 0.86762,0 1.77655,-9.4e-4 2.70911,-0.003 4.33313,-0.008 6.58484,-0.02557 8.02856,-0.0628 2.14466,-0.0553 4.36243,-0.11246 6.41,-1.82767 2.79071,-2.3198 2.79071,-5.32532 2.79071,-8.23187 0,-2.46122 1.8e-4,-4.99286 -1.67249,-7.10193 a 7.10241,7.10241 0 0 0 -1.96252,-2.54245 c -2.12073,-1.75559 -3.29029,-1.75559 -10.8996,-1.75559 z"
       fill="#ffffff"
       id="path47" />
    <path
       d="m 622.419,38.94631 c -7.53808,0 -7.77539,-0.04688 -8.168,-0.125 a 3.49981,3.49981 0 0 1 -1.71484,-0.88233 l -0.57422,-0.53955 a 3.4946,3.4946 0 0 1 -0.94531,-1.51123 3.50023,3.50023 0 0 1 -1.00391,-2.50244 l 0.0752,-5.332 a 3.50453,3.50453 0 0 1 0.57715,-1.87646 c 1.17968,-1.79 1.17968,-1.79 13.30468,-1.79 5.082,0 7.58692,0.002 8.98926,0.04687 1.36523,0.04395 3.42871,0.11035 4.51563,2.12988 a 3.47663,3.47663 0 0 1 0.248,0.58155 3.88757,3.88757 0 0 1 0.59571,0.82763 3.51082,3.51082 0 0 1 0.41992,1.70606 l -0.0674,5.45215 a 3.49991,3.49991 0 0 1 -0.6748,2.02246 c -1.29,1.76465 -1.29,1.76465 -12.86133,1.78955 z"
       fill="#ffffff"
       id="path49" />
    <path
       d="m 623.96981,27.88733 c 9.9502,0 10.24756,0.0087 10.42249,0.33527 l -0.0143,1.15679 c 0.69287,0.04889 0.791,0.12775 0.8601,0.2566 l -0.0671,5.45172 c -0.23608,0.32361 -0.55688,0.33526 -10.04345,0.35571 -0.9303,0.002 -1.83631,0.003 -2.70056,0.003 -4.141,0 -7.31348,-0.02225 -7.49451,-0.05841 l -0.57422,-0.53937 0.0122,-0.85852 c -0.15894,-0.0048 -0.25611,-0.01 -0.28369,-0.0155 l -0.57435,-0.53931 0.0758,-5.33221 c 0.11084,-0.16913 2.37891,-0.21576 10.38159,-0.21576 m 0,-7 c -4.26135,0 -6.74219,0.01373 -8.29541,0.046 -2.6001,0.05392 -5.83594,0.12106 -7.94079,3.3327 a 6.99986,6.99986 0 0 0 -1.14466,3.73758 l -0.0758,5.33221 a 6.99932,6.99932 0 0 0 1.45752,4.37613 6.9987,6.9987 0 0 0 1.595,2.23874 l 0.57422,0.53937 a 6.99924,6.99924 0 0 0 3.42114,1.7623 c 0.78479,0.15683 0.97131,0.19409 8.866,0.19409 0.86914,0 1.78027,-0.001 2.71582,-0.003 4.75024,-0.01022 7.29553,-0.01791 8.72338,-0.06851 a 8.30357,8.30357 0 0 0 6.96,-3.16175 7.00057,7.00057 0 0 0 1.34436,-4.03924 l 0.0671,-5.45169 a 7.00072,7.00072 0 0 0 -0.83068,-3.39469 7.50645,7.50645 0 0 0 -0.64026,-0.99746 q -0.095,-0.20934 -0.204,-0.41281 c -2.03882,-3.80613 -5.85974,-3.92875 -7.49146,-3.98114 -1.45569,-0.0467 -3.98132,-0.04877 -9.10144,-0.04877 z"
       fill="#ffffff"
       id="path51" />
    <path
       d="m 649.544,48.70314 a 4.13633,4.13633 0 0 1 -3.89648,-2.76269 4.11489,4.11489 0 0 1 -1.07715,-2.7793 v -9.75586 h -6.36231 a 4.10139,4.10139 0 0 1 -3.86621,-2.74658 4.07931,4.07931 0 0 1 -1.07324,-2.76025 v -4.1836 a 4.09857,4.09857 0 0 1 4.09375,-4.09326 h 7.23926 A 4.13371,4.13371 0 0 1 648.69833,16 h 6.2998 q 0.15381,0 0.30469,0.01123 a 4.48331,4.48331 0 0 1 2.76074,-0.94775 h 2.86719 a 4.50491,4.50491 0 0 0 3.00977,0 h 2.86718 a 4.50918,4.50918 0 0 1 4.22657,2.95117 4.45328,4.45328 0 0 1 1.12109,2.96387 v 1.49365 a 4.46448,4.46448 0 0 1 -0.5918,2.22851 4.12521,4.12521 0 0 1 0.0225,0.42774 V 29.312 a 4.09856,4.09856 0 0 1 -4.09375,4.09326 h -7.5205 v 11.16996 a 4.13232,4.13232 0 0 1 -4.12793,4.12792 z"
       fill="#ffffff"
       id="path53" />
    <path
       d="m 666.808,18.5636 a 1.00438,1.00438 0 0 1 1.00146,1.0014 v 0.44361 a 0.99172,0.99172 0 0 1 0.8457,0.96978 v 1.4939 a 1.00438,1.00438 0 0 1 -1.00146,1.0014 h -0.46777 a 0.58442,0.58442 0 0 1 0.0542,0.24134 v 0.82013 h 0.25256 a 0.59489,0.59489 0 0 1 0.59314,0.5932 V 29.312 a 0.59484,0.59484 0 0 1 -0.59314,0.59314 H 656.47177 V 44.575 a 0.63008,0.63008 0 0 1 -0.62818,0.62818 h -6.29907 A 0.63007,0.63007 0 0 1 648.91635,44.575 v -0.78522 h -0.21753 a 0.63,0.63 0 0 1 -0.62818,-0.62817 V 29.90515 l -9.86291,-6e-5 a 0.59483,0.59483 0 0 1 -0.59314,-0.59314 V 28.49176 H 637.362 a 0.59489,0.59489 0 0 1 -0.59314,-0.5932 V 23.715 a 0.59485,0.59485 0 0 1 0.59314,-0.5932 h 10.70862 v -2.99338 a 0.63,0.63 0 0 1 0.62818,-0.62818 h 6.29907 a 0.63,0.63 0 0 1 0.62817,0.62818 v 0.78515 h 0.21753 a 0.63009,0.63009 0 0 1 0.62818,0.62824 v 1.58 h 1.6914 a 0.98672,0.98672 0 0 1 -0.25525,-0.64954 v -0.4436 a 0.99173,0.99173 0 0 1 -0.84582,-0.96979 V 19.565 a 1.00438,1.00438 0 0 1 1.00146,-1.0014 h 2.86768 a 1.00428,1.00428 0 0 1 1.00134,1.0014 v 0.44367 a 0.99155,0.99155 0 0 1 0.8457,0.96972 v 1.4939 a 0.98667,0.98667 0 0 1 -0.25525,0.64954 h 1.51685 a 0.98721,0.98721 0 0 1 -0.25513,-0.64954 v -0.44366 a 0.99157,0.99157 0 0 1 -0.8457,-0.96973 V 19.565 a 1.00428,1.00428 0 0 1 1.00134,-1.0014 h 2.86763 m 0,-7 h -2.86756 a 8.04918,8.04918 0 0 1 -3.00915,0 h -2.86768 a 7.95291,7.95291 0 0 0 -3.75427,0.93664 h -5.61047 a 7.63013,7.63013 0 0 0 -6.489,3.62159 H 637.362 a 7.60175,7.60175 0 0 0 -7.59314,7.5932 v 4.18353 a 7.55351,7.55351 0 0 0 1.53406,4.57156 7.60345,7.60345 0 0 0 6.90479,4.435 h 2.86291 v 6.2565 a 7.59035,7.59035 0 0 0 1.5387,4.58948 7.6385,7.6385 0 0 0 6.93518,4.45209 h 6.29907 a 7.63682,7.63682 0 0 0 7.62818,-7.62818 v -7.66992 h 4.02087 a 7.60172,7.60172 0 0 0 7.59314,-7.59314 V 25.4371 a 7.95841,7.95841 0 0 0 0.56933,-2.96481 v -1.4939 A 7.94919,7.94919 0 0 0 674.05951,16.18417 8.01225,8.01225 0 0 0 666.808,11.5636 Z"
       fill="#ffffff"
       id="path55" />
    <path
       d="m 636.59677,48.61916 a 3.50871,3.50871 0 0 1 -3.3418,-2.46 3.49109,3.49109 0 0 1 -0.8916,-1.5752 23.00417,23.00417 0 0 1 -0.68457,-7.748 3.50033,3.50033 0 0 1 3.457,-2.97754 c 0.11621,0 0.23242,0.0054 0.35058,0.01709 0.0244,0.002 0.17969,0.01269 0.39356,0.01269 0.21484,0 0.39551,-0.01074 0.54394,-0.02539 a 15.03973,15.03973 0 0 0 0.11719,-3.31836 3.4992,3.4992 0 0 1 3.48828,-3.78515 c 0.0215,0 0.044,0 0.0654,4.9e-4 0.008,4.8e-4 2.15918,0.04052 3.59278,0.04052 0.31738,0 0.59179,-4.9e-4 0.77929,-0.0054 a 3.48284,3.48284 0 0 1 0.49707,-0.03564 c 0.0478,0 0.0967,0.0015 0.14551,0.0034 a 3.50128,3.50128 0 0 1 3.19922,2.458 3.49128,3.49128 0 0 1 1.00293,2.49951 l -0.0937,6.91065 c 3e-5,5.58012 -5.54392,9.98828 -12.62106,9.98828 z"
       fill="#ffffff"
       id="path57" />
    <path
       d="m 644.96627,30.25909 v 0 m -4.93664,0 c 0,0 2.1958,0.04136 3.65857,0.04136 a 8.25723,8.25723 0 0 0 1.27807,-0.04108 l -0.0198,1.45285 a 4.594,4.594 0 0 0 0.8656,-0.03946 l -0.0941,6.91092 c 0,3.43207 -3.7926,6.53509 -9.12085,6.53509 0,0 -0.14953,-0.57983 -0.3103,-1.4328 -0.1781,0.0072 -0.35364,0.01947 -0.53552,0.01947 a 20.11544,20.11544 0 0 1 -0.61109,-6.347 c 0,0 0.2992,0.02975 0.74048,0.02975 a 4.96518,4.96518 0 0 0 3.052,-0.7977 c 1.50513,-1.33758 1.09693,-6.33136 1.09693,-6.33136 m 5.78247,1.4134 v 0 m -5.7826,-8.4134 a 7.00015,7.00015 0 0 0 -6.99121,7.34812 6.93618,6.93618 0 0 0 -4.8197,5.70636 25.58742,25.58742 0 0 0 0.757,9.1495 6.98215,6.98215 0 0 0 1.23352,2.51908 7.00116,7.00116 0 0 0 6.38806,4.13662 c 9.0166,0 16.08447,-5.91436 16.12073,-13.47625 l 0.0936,-6.87445 a 6.97153,6.97153 0 0 0 -1.45386,-4.36731 7.00068,7.00068 0 0 0 -6.13037,-4.13654 c -0.0886,-0.0033 -0.17749,-0.0049 -0.26538,-0.005 a 7.03575,7.03575 0 0 0 -0.74121,0.03906 c -0.14856,0.002 -0.33094,0.0021 -0.53247,0.0021 -1.37854,0 -3.50562,-0.03971 -3.52686,-0.0401 -0.0439,-8.3e-4 -0.088,-0.0013 -0.13184,-0.0013 z m 4.93677,14.00028 z m 0,0 z"
       fill="#ffffff"
       id="path59" />
    <path
       d="m 669.086,48.61916 c -5.36816,0 -9.92871,-2.5 -11.78515,-6.41016 a 8.60243,8.60243 0 0 1 -1.68067,-5.03857 l -0.0947,-6.86279 a 3.5003,3.5003 0 0 1 3.35644,-3.54492 c 0.0488,-0.002 0.0977,-0.0034 0.14551,-0.0034 a 3.48274,3.48274 0 0 1 0.49707,0.03564 c 0.1875,0.0049 0.46191,0.0054 0.7793,0.0054 1.43652,0 3.59277,-0.04052 3.59277,-0.04052 0.0215,-4.9e-4 0.0439,-4.9e-4 0.0654,-4.9e-4 a 3.49946,3.49946 0 0 1 3.3418,2.458 c 0.0186,0.019 0.0371,0.03857 0.0547,0.0581 a 3.49425,3.49425 0 0 1 0.93848,2.67822 16.83886,16.83886 0 0 0 -0.0215,1.93164 c 0.13086,-0.0029 0.22168,-0.0093 0.25488,-0.0122 0.10156,-0.0083 0.20215,-0.0127 0.30273,-0.0127 a 3.52674,3.52674 0 0 1 3.36329,2.46875 3.46363,3.46363 0 0 1 0.96191,1.91992 23.01141,23.01141 0 0 1 -0.68457,7.749 3.50009,3.50009 0 0 1 -3.3877,2.62113 z m -6.57617,-18.69287"
       fill="#ffffff"
       id="path61" />
    <path
       d="m 663.96249,30.25909 c 0,0 -0.0471,0.59766 -0.0492,1.42835 0.52759,-0.0081 0.895,-0.01495 0.895,-0.01495 a 16.65057,16.65057 0 0 0 0.3595,5.00073 5.24344,5.24344 0 0 0 2.95728,0.714 c 0.43359,0 0.72692,-0.02878 0.72692,-0.02878 a 9.08934,9.08934 0 0 1 0.0847,1.44226 h 0.0178 c 0.4408,0 0.74317,-0.02893 0.74317,-0.02893 a 20.11,20.11 0 0 1 -0.61121,6.347 c -4.35046,0 -7.6748,-2.06921 -8.74927,-4.69659 A 5.22539,5.22539 0 0 1 659.12,37.17035 l -0.094,-6.911 a 8.24546,8.24546 0 0 0 1.27808,0.04111 c 1.46265,0 3.65845,-0.04136 3.65845,-0.04136 m -4.93653,0 v 0 m 4.93494,-7 c -0.0435,0 -0.0867,4e-4 -0.13013,0.0012 -0.0214,3.9e-4 -2.14831,0.0401 -3.52673,0.0401 -0.20166,0 -0.384,-1.9e-4 -0.53259,-0.0021 a 7.02214,7.02214 0 0 0 -0.74134,-0.03906 c -0.0822,0 -0.16418,0.0014 -0.24682,0.0043 a 7,7 0 0 0 -6.75672,7.091 l 0.0935,6.87494 a 12.02342,12.02342 0 0 0 2.16052,6.76758 c 2.51343,4.96576 8.20386,8.1217 14.80591,8.1217 a 7,7 0 0 0 6.77564,-5.24194 25.58219,25.58219 0 0 0 0.75708,-9.15021 7.2176,7.2176 0 0 0 -1.40491,-3.33227 6.85559,6.85559 0 0 0 -3.45252,-3.48844 7.03093,7.03093 0 0 0 -1.41528,-3.50006 7.01675,7.01675 0 0 0 -6.38562,-4.14673 z m 0.002,14 z"
       fill="#ffffff"
       id="path63" />
    <path
       d="m 436.419,98.93654 c -4.292,0 -7.55664,-1.3789 -9.70215,-4.09863 -2.874,-3.64258 -3.35156,-9.25781 -1.46,-17.167 L 431.378,52.084 a 3.50023,3.50023 0 0 1 3.40429,-2.68554 h 5.13086 a 3.50005,3.50005 0 0 1 3.4043,4.31445 l -5.77832,24.15723 c -1.4541,6.07519 -0.43457,7.5957 -0.31348,7.749 0.1709,0.2168 0.72071,0.249 1.03321,0.249 3.34667,0 5.24414,-4.99707 6.24707,-9.18945 l 5.8838,-24.59469 a 3.50025,3.50025 0 0 1 3.4043,-2.68554 h 5.12891 a 3.50005,3.50005 0 0 1 3.40429,4.31445 l -5.96,24.916 c -4.01558,16.7842 -13.06441,20.30763 -19.94823,20.30763 z"
       fill="#ffffff"
       id="path65" />
    <path
       d="m 458.92343,52.89825 h 0.005 m -0.005,0 -5.96043,24.9159 q -4.21573,17.62262 -16.54413,17.62256 -11.812,0 -7.75787,-16.95118 l 6.121,-25.58728 h 5.13141 l -5.77893,24.15729 q -2.94516,12.31166 4.1242,12.31232 6.80906,0 9.65155,-11.87457 l 5.88361,-24.595 h 5.12958 m 0.005,-7 h -5.13458 a 7,7 0 0 0 -6.80792,5.3714 l -0.14661,0.61286 a 7.00011,7.00011 0 0 0 -6.9259,-5.98426 H 434.782 a 7,7 0 0 0 -6.80793,5.3714 l -6.121,25.58728 c -2.15753,9.019 -1.46533,15.60993 2.11621,20.14927 1.95459,2.47738 5.70111,5.43051 12.44959,5.43051 8.14368,0 18.80566,-3.98923 23.35205,-22.994 l 5.90533,-24.6857 a 7.00534,7.00534 0 0 0 -6.74786,-8.8588 z m -0.005,14 z"
       fill="#ffffff"
       id="path67" />
    <path
       d="m 456.17782,98.23537 a 3.50005,3.50005 0 0 1 -3.4043,-4.31445 L 462.78134,52.084 a 3.50128,3.50128 0 0 1 3.40429,-2.68554 h 16.68457 a 3.50005,3.50005 0 0 1 3.4043,4.31445 l -1.41016,5.89453 a 3.50023,3.50023 0 0 1 -3.40429,2.68555 h -8.791 l -1.334,5.57324 h 6.21195 a 3.50005,3.50005 0 0 1 3.4043,4.31445 l -1.40332,5.86426 a 3.50025,3.50025 0 0 1 -3.4043,2.68555 h -7.88476 L 464.713,95.54982 a 3.50025,3.50025 0 0 1 -3.4043,2.68555 z"
       fill="#ffffff"
       id="path69" />
    <path
       d="m 482.8699,52.89825 -1.41,5.89429 h -11.55247 l -3.008,12.57416 h 10.64715 l -1.40271,5.8634 h -10.64708 l -4.18774,17.50574 h -5.13141 l 10.00842,-41.83759 h 16.68384 m -5.32331,18.46845 h 0.005 m 5.3183,-25.46845 h -16.68383 a 7,7 0 0 0 -6.80792,5.3714 l -10.00843,41.83759 a 7,7 0 0 0 6.80793,8.6286 h 5.13141 a 7,7 0 0 0 6.80792,-5.3714 l 2.90277,-12.13434 h 5.12414 a 7,7 0 0 0 6.80787,-5.37134 l 1.34759,-5.633 a 7.01193,7.01193 0 0 0 -2.52313,-7.44028 7.00035,7.00035 0 0 0 6.49158,-5.36429 l 1.41,-5.89431 a 7,7 0 0 0 -6.80792,-8.62861 z m 0,14 z"
       fill="#ffffff"
       id="path71" />
    <path
       d="m 496.35653,98.23537 a 3.49929,3.49929 0 0 1 -3.499,-3.42383 l -0.15821,-7.22461 h -6.5498 l -4.25977,8.68848 a 3.49831,3.49831 0 0 1 -3.14257,1.96 h -5.60547 a 3.49937,3.49937 0 0 1 -3.11035,-5.10449 l 21.583,-41.83691 a 3.50024,3.50024 0 0 1 3.11036,-1.89551 h 5.77828 a 3.49976,3.49976 0 0 1 3.498,3.376 l 1.48047,41.83692 a 3.5,3.5 0 0 1 -3.49805,3.624 z m -3.7998,-23.30859 -0.01,-0.52344 -0.25781,0.52344 z"
       fill="#ffffff"
       id="path73" />
    <path
       d="m 500.50283,52.89825 1.48029,41.83759 h -5.62683 L 496.12393,84.0871 H 483.9667 l -5.2197,10.64874 h -5.605 l 21.58271,-41.83759 h 5.77807 m -13.845,25.5282 h 9.46131 l -0.2959,-16.68805 a 25.20607,25.20607 0 0 1 0.21808,-2.62494 h -0.0874 A 27.3873,27.3873 0 0 1 494.896,61.7384 l -8.23822,16.68805 m 13.845,-32.5282 h -5.77807 a 7,7 0 0 0 -6.221,3.79078 l -21.5827,41.83758 a 7,7 0 0 0 6.221,10.20923 h 5.605 a 7,7 0 0 0 6.28553,-3.919 l 3.2987,-6.7297 h 0.94373 l 0.0829,3.80145 a 7,7 0 0 0 6.99836,6.84729 h 5.62683 a 7,7 0 0 0 6.9956,-7.24753 l -1.48028,-41.83758 a 7,7 0 0 0 -6.99561,-6.75248 z"
       fill="#ffffff"
       id="path75" />
    <path
       d="m 534.336,98.23537 a 3.50005,3.50005 0 0 1 -3.40429,-4.31445 l 1.6582,-6.92871 -5.01758,9.39258 a 3.50018,3.50018 0 0 1 -3.08691,1.85058 h -3.53612 a 3.50029,3.50029 0 0 1 -3.49414,-3.29492 l -0.57714,-9.85254 -2.50293,10.46191 a 3.50025,3.50025 0 0 1 -3.4043,2.68555 h -4.74316 a 3.50005,3.50005 0 0 1 -3.4043,-4.31445 L 512.83114,52.084 a 3.50129,3.50129 0 0 1 3.4043,-2.68554 h 7.2207 a 3.5,3.5 0 0 1 3.49512,3.3164 l 1.03613,19.73145 11.39746,-21.20508 a 3.50129,3.50129 0 0 1 3.083,-1.84277 h 6.96289 a 3.50005,3.50005 0 0 1 3.4043,4.31445 l -10.00878,41.83691 a 3.50025,3.50025 0 0 1 -3.4043,2.68555 z"
       fill="#ffffff"
       id="path77" />
    <path
       d="m 549.43051,52.89825 h 0.005 m -0.005,0 -10.00843,41.83759 h -5.08581 l 6.4768,-27.07495 q 0.79542,-3.32511 2.24756,-8.13928 h -0.0854 q -1.13176,2.7431 -1.78369,3.93811 l -16.70642,31.27612 h -3.53564 L 519.129,63.6933 a 35.80307,35.80307 0 0 1 0.17835,-4.17169 h -0.0856 q -0.4283,2.50945 -1.78821,8.19836 l -6.46277,27.01587 h -4.74341 L 516.2358,52.89825 h 7.22083 l 1.4624,27.8631 a 47.16784,47.16784 0 0 1 0.0615,4.78394 h 0.10743 q 1.58641,-3.297 2.46569,-4.90076 l 14.91468,-27.74628 h 6.96216 m 0.005,-7 h -6.96716 a 6.99991,6.99991 0 0 0 -6.16565,3.6857 l -5.4757,10.18665 -0.38,-7.23923 a 7,7 0 0 0 -6.99036,-6.63312 h -7.22084 a 7,7 0 0 0 -6.80792,5.3714 l -10.00842,41.83759 a 7,7 0 0 0 6.80792,8.6286 h 4.74341 a 6.99419,6.99419 0 0 0 4.98938,-2.09 6.98335,6.98335 0 0 0 4.98926,2.09 h 3.53564 a 7,7 0 0 0 4.92566,-2.02606 7.00048,7.00048 0 0 0 4.92554,2.02606 h 5.08581 a 6.99984,6.99984 0 0 0 6.80786,-5.3714 l 9.95337,-41.60739 a 7.005,7.005 0 0 0 -6.7478,-8.8588 z m -0.005,14 z"
       fill="#ffffff"
       id="path79" />
    <path
       d="m 547.01083,98.23537 a 3.50005,3.50005 0 0 1 -3.4043,-4.31445 L 553.61434,52.084 a 3.5013,3.5013 0 0 1 3.4043,-2.68554 h 5.2832 a 3.50005,3.50005 0 0 1 3.4043,4.31445 l -10.00879,41.83691 a 3.50023,3.50023 0 0 1 -3.4043,2.68555 z"
       fill="#ffffff"
       id="path81" />
    <path
       d="m 562.30172,52.89825 h 0.005 m -0.005,0 -10.00842,41.83759 h -5.28247 l 10.0083,-41.83759 h 5.28259 m 0.005,-7 h -5.2876 a 6.99988,6.99988 0 0 0 -6.80786,5.37143 L 540.203,93.10727 a 6.99989,6.99989 0 0 0 6.80786,8.62857 h 5.28247 a 6.99985,6.99985 0 0 0 6.80786,-5.3714 l 9.95337,-41.60739 a 7.00537,7.00537 0 0 0 -6.7478,-8.8588 z m -0.005,14 z"
       fill="#ffffff"
       id="path83" />
    <path
       d="m 581.128,98.23537 a 3.4991,3.4991 0 0 1 -3.40332,-4.31543 L 585.29989,62.293 h -4.43359 a 3.4988,3.4988 0 0 1 -3.40332,-4.31445 l 1.41015,-5.89454 a 3.50025,3.50025 0 0 1 3.4043,-2.68554 h 22.89648 a 3.50005,3.50005 0 0 1 3.4043,4.31445 l -1.41211,5.89453 a 3.49913,3.49913 0 0 1 -3.40332,2.68555 h -6.1289 l -7.9668,33.25781 a 3.49931,3.49931 0 0 1 -3.40332,2.68457 z"
       fill="#ffffff"
       id="path85" />
    <path
       d="m 605.1744,52.89825 h 0.005 m -0.005,0 -1.41186,5.89429 h -8.88929 l -8.609,35.9433 h -5.136 l 8.60913,-35.9433 h -8.87108 l 1.41162,-5.89429 h 22.89648 m 0.005,-7 h -22.90148 a 7,7 0 0 0 -6.8075,5.36969 l -1.41162,5.89429 a 7,7 0 0 0 6.804,8.63031 l -6.542,27.31278 a 7,7 0 0 0 6.8075,8.63052 h 5.136 a 7.00008,7.00008 0 0 0 6.80749,-5.36951 l 7.32288,-30.57379 h 3.36792 a 6.99982,6.99982 0 0 0 6.80737,-5.36941 l 1.35681,-5.66413 a 7.00552,7.00552 0 0 0 -6.74731,-8.86075 z m -0.005,14 z"
       fill="#ffffff"
       id="path87" />
    <path
       d="m 610.97665,98.93654 c -4.29785,0 -7.56641,-1.37988 -9.71289,-4.10156 -2.874,-3.64355 -3.34961,-9.25781 -1.45606,-17.165 L 605.93661,52.083 a 3.49931,3.49931 0 0 1 3.40332,-2.68457 h 5.13574 a 3.4991,3.4991 0 0 1 3.40332,4.31543 l -5.78613,24.15722 c -1.4541,6.07129 -0.43359,7.59278 -0.3125,7.74707 0.17187,0.21778 0.72363,0.25 1.03711,0.25 3.35547,0 5.25683,-4.998 6.26172,-9.19043 L 624.96981,52.083 a 3.49932,3.49932 0 0 1 3.40332,-2.68457 h 5.13575 a 3.49911,3.49911 0 0 1 3.40332,4.31543 l -5.96778,24.916 c -4.01953,16.78325 -13.07715,20.30668 -19.96777,20.30668 z"
       fill="#ffffff"
       id="path89" />
    <path
       d="m 633.50936,52.89825 h 0.005 m -0.005,0 -5.96777,24.9159 q -4.221,17.62262 -16.56445,17.62256 -11.82934,0 -7.76563,-16.95118 l 6.12842,-25.58728 h 5.136 l -5.78614,24.15729 q -2.94873,12.31166 4.12744,12.31232 6.82307,0 9.66529,-11.87457 l 5.891,-24.595 h 5.13586 m 0.005,-7 h -5.14088 a 7.0001,7.0001 0 0 0 -6.8075,5.36948 l -0.15783,0.65906 a 6.99992,6.99992 0 0 0 -6.93225,-6.02854 h -5.136 a 7.00012,7.00012 0 0 0 -6.8075,5.36954 L 596.404,76.85507 c -2.15979,9.01727 -1.469,15.60755 2.11169,20.14731 1.95544,2.4791 5.70471,5.43433 12.46143,5.43433 8.1499,0 18.82031,-3.98893 23.37194,-22.992 l 5.9126,-24.68579 a 7.005,7.005 0 0 0 -6.74731,-8.86063 z m -0.005,14 z"
       fill="#ffffff"
       id="path91" />
    <path
       d="m 648.67587,98.23537 a 3.49983,3.49983 0 0 1 -3.43067,-2.80762 l -2.25976,-11.20312 a 17.43792,17.43792 0 0 0 -0.50293,-2.0459 l -3.20313,13.37207 a 3.49931,3.49931 0 0 1 -3.40332,2.68457 h -5.11426 a 3.49911,3.49911 0 0 1 -3.40332,-4.31543 L 637.379,52.083 a 3.49932,3.49932 0 0 1 3.40332,-2.68457 h 10.18848 a 13.35822,13.35822 0 0 1 5.20117,0.97363 9.714,9.714 0 0 1 4.167,3.28906 10.97856,10.97856 0 0 1 1.91993,5.15723 17.59216,17.59216 0 0 1 -0.48926,6.18652 22.44768,22.44768 0 0 1 -1.73242,4.81934 19.6352,19.6352 0 0 1 -2.6504,4.01562 17.48435,17.48435 0 0 1 -3.44042,3.08008 c -0.0625,0.042 -0.124,0.084 -0.18653,0.125 0.0371,0.0791 0.0732,0.1582 0.10938,0.23828 a 17.70926,17.70926 0 0 1 0.834,2.29785 c 0.21582,0.749 0.44434,1.59473 0.68262,2.55957 L 658.088,93.9551 a 3.49969,3.49969 0 0 1 -3.41211,4.28027 z m -2.94629,-29.61621 a 2.16747,2.16747 0 0 0 0.72656,-0.19043 3.568,3.568 0 0 0 1.05762,-0.73535 6.10624,6.10624 0 0 0 1.05566,-1.44434 8.72268,8.72268 0 0 0 0.80274,-2.14648 4.18949,4.18949 0 0 0 0.14257,-2.00977 2.66232,2.66232 0 0 0 -0.64746,-0.06347 h -1.55859 z"
       fill="#ffffff"
       id="path93" />
    <path
       d="m 650.97079,52.89825 a 9.84755,9.84755 0 0 1 3.84448,0.70087 6.22175,6.22175 0 0 1 2.68884,2.11469 7.5101,7.5101 0 0 1 1.28113,3.5299 14.12567,14.12567 0 0 1 -0.41846,4.94507 18.95606,18.95606 0 0 1 -1.4602,4.07092 16.08068,16.08068 0 0 1 -2.17188,3.2963 13.91887,13.91887 0 0 1 -2.74987,2.46515 12.63786,12.63786 0 0 1 -3.21546,1.57629 l -0.028,0.11682 a 6.03958,6.03958 0 0 1 1.13135,1.41382 q 0.43853,0.77345 0.80444,1.59107 a 14.41213,14.41213 0 0 1 0.66907,1.85156 c 0.19922,0.69147 0.41565,1.493 0.6416,2.40741 l 2.68823,11.75775 h -6.00037 l -2.25927,-11.20325 a 20.07167,20.07167 0 0 0 -0.67322,-2.641 7.20334,7.20334 0 0 0 -0.86536,-1.79376 2.92872,2.92872 0 0 0 -1.18908,-1.02045 3.97782,3.97782 0 0 0 -1.67408,-0.32092 H 639.943 l -4.0669,16.97943 h -5.114 l 10.0207,-41.83767 h 10.188 m -9.6792,19.22706 h 4.27515 a 5.62992,5.62992 0 0 0 2.30761,-0.49683 7.046,7.046 0 0 0 2.082,-1.42859 9.51945,9.51945 0 0 0 1.68677,-2.27582 12.167,12.167 0 0 0 1.132,-3.00488 6.317,6.317 0 0 0 -0.27917,-4.698 3.85276,3.85276 0 0 0 -3.629,-1.69177 h -4.31885 l -3.25647,13.59589 m 9.6792,-26.22706 h -10.188 a 7.00009,7.00009 0 0 0 -6.80749,5.36951 l -10.0208,41.83759 a 7,7 0 0 0 6.8075,8.63049 h 5.114 a 7.001,7.001 0 0 0 6.39978,-4.16254 7.00165,7.00165 0 0 0 6.3999,4.16254 h 6.00037 A 6.99993,6.99993 0 0 0 661.5,93.17566 l -2.68823,-11.75775 q -0.0136,-0.0597 -0.0283,-0.11911 c -0.22925,-0.9281 -0.46851,-1.82511 -0.71081,-2.66617 q -0.0595,-0.20243 -0.11988,-0.39713 a 21.51047,21.51047 0 0 0 2.08679,-2.11233 23.16572,23.16572 0 0 0 3.12256,-4.722 26.07661,26.07661 0 0 0 2.01233,-5.58255 20.784,20.784 0 0 0 0.55908,-7.42489 14.44134,14.44134 0 0 0 -2.54577,-6.76605 13.17106,13.17106 0 0 0 -5.66406,-4.48343 16.81615,16.81615 0 0 0 -6.55286,-1.246 z"
       fill="#ffffff"
       id="path95" />
    <path
       d="m 658.27645,98.23537 a 3.49911,3.49911 0 0 1 -3.40332,-4.31543 L 664.89364,52.083 a 3.49931,3.49931 0 0 1 3.40332,-2.68457 h 9.81934 c 5.15429,0 7.88965,2.20508 9.27734,4.05566 1.97363,2.63867 2.501,5.94434 1.57031,9.8291 a 18.99254,18.99254 0 0 1 -3.65136,7.56641 17.11552,17.11552 0 0 1 -1.38379,1.52148 9.6289,9.6289 0 0 1 1.12207,1.83892 c 1.18457,2.53223 1.33984,5.666 0.46386,9.32129 a 19.40939,19.40939 0 0 1 -6.35351,10.5498 16.60337,16.60337 0 0 1 -10.95606,4.1543 z m 10.87891,-12.543 a 3.534,3.534 0 0 0 2.4668,-0.89551 5.94888,5.94888 0 0 0 1.6875,-3.15917 3.69709,3.69709 0 0 0 0.13672,-1.92579 h -0.002 a 4.49631,4.49631 0 0 0 -1.84082,-0.26562 h -0.95215 z M 673.70223,66.708 a 3.15526,3.15526 0 0 0 1.13575,-0.66211 5.64589,5.64589 0 0 0 1.59179,-3.02246 5.08353,5.08353 0 0 0 0.15332,-0.9961 4.58251,4.58251 0 0 0 -0.77148,-0.05566 H 674.837 Z"
       fill="#ffffff"
       id="path97" />
    <path
       d="m 678.11654,52.89825 q 4.4923,0 6.47693,2.65577 1.985,2.65447 0.9668,6.91345 a 15.43494,15.43494 0 0 1 -2.97351,6.18567 11.81656,11.81656 0 0 1 -5.01612,3.73394 l -0.0281,0.11683 a 5.46274,5.46274 0 0 1 4.3413,3.19555 q 1.26325,2.6988 0.22718,7.01679 A 15.9094,15.9094 0 0 1 676.899,91.41 a 13.14064,13.14064 0 0 1 -8.69372,3.32581 h -9.929 L 668.2972,52.89825 h 9.81934 m -8.89123,17.4762 h 3.32669 a 6.71631,6.71631 0 0 0 4.60363,-1.70654 9.04808,9.04808 0 0 0 2.67749,-4.82825 q 1.286,-5.3693 -4.02173,-5.368 h -3.7351 l -2.851,11.90277 M 664.71823,89.192 h 4.38085 a 7.01045,7.01045 0 0 0 4.86512,-1.79383 9.37907,9.37907 0 0 0 2.74926,-4.94507 q 1.55823,-6.50518 -5.10937,-6.50653 h -3.71338 L 664.71823,89.192 m 13.39831,-43.29371 h -9.81934 a 7.00009,7.00009 0 0 0 -6.80749,5.36948 l -10.02087,41.83755 a 7,7 0 0 0 6.80749,8.63052 h 9.929 a 20.01306,20.01306 0 0 0 13.21765,-4.98413 22.83908,22.83908 0 0 0 7.4956,-12.40494 c 1.0597,-4.424 0.83362,-8.31491 -0.67175,-11.56543 a 22.5018,22.5018 0 0 0 4.121,-8.68332 c 1.47473,-6.15786 -0.36523,-10.32483 -2.16846,-12.73614 -1.87219,-2.49655 -5.48254,-5.46363 -12.08276,-5.46363 z"
       fill="#ffffff"
       id="path99" />
    <path
       d="m 697.56161,98.93654 c -5.86133,0 -10.18652,-2.74414 -12.50781,-7.93554 -2.05957,-4.61719 -2.25293,-10.50489 -0.57617,-17.50293 1.74414,-7.28418 4.70019,-13.22559 8.78613,-17.66114 4.36523,-4.7373 9.46191,-7.13867 15.15039,-7.13867 5.75781,0 10.01074,2.73926 12.30078,7.9209 2.0332,4.58594 2.21289,10.4707 0.53125,17.48828 -1.76855,7.38379 -4.72656,13.35645 -8.79,17.75293 -4.34477,4.69531 -9.35551,7.07617 -14.89457,7.07617 z m 9.13281,-37.14062 c -1.78125,0 -3.51172,1.00488 -5.291,3.07129 a 23.18382,23.18382 0 0 0 -4.62012,9.82422 c -0.94336,3.94043 -1.01758,7.03808 -0.21875,9.20605 0.60937,1.65723 1.33887,1.9707 2.47266,1.9707 1.91992,0 3.66894,-0.93554 5.34863,-2.85839 1.97363,-2.26172 3.49414,-5.58008 4.51953,-9.86133 1.27832,-5.34082 0.92383,-8.1416 0.40137,-9.55078 a 2.34149,2.34149 0 0 0 -2.61232,-1.80176 z"
       fill="#ffffff"
       id="path101" />
    <path
       d="m 708.4139,52.19873 a 9.1818,9.1818 0 0 1 9.10035,5.83521 q 2.58563,5.83456 0.32861,15.25811 -2.45286,10.24119 -7.95654,16.19263 -5.50708,5.95139 -12.32471,5.952 -6.69177,0 -9.31213,-5.86481 -2.61676,-5.86478 -0.36878,-15.25806 2.41773,-10.09423 7.9574,-16.10534 5.53765,-6.00979 12.5758,-6.00977 m -9.37683,37.16913 q 4.44269,0 7.986,-4.05621 3.53724,-4.05423 5.286,-11.34827 1.79607,-7.49808 0.27941,-11.58319 a 5.77381,5.77381 0 0 0 -5.894,-4.08441 q -4.25135,0 -7.94311,4.28851 a 26.46322,26.46322 0 0 0 -5.37085,11.29181 q -1.67011,6.97247 -0.10035,11.23144 1.56739,4.2617 5.757,4.26032 M 708.414,45.1987 c -6.70629,0 -12.66943,2.78122 -17.72363,8.26636 -4.4956,4.8789 -7.7312,11.34485 -9.61706,19.21823 -1.86,7.76495 -1.5962,14.4068 0.78369,19.74084 2.88769,6.45841 8.46423,10.01255 15.70471,10.01255 6.55371,0 12.42895,-2.75815 17.46252,-8.19779 4.47827,-4.84418 7.71631,-11.34234 9.62622,-19.3164 1.86353,-7.78074 1.61573,-14.41709 -0.73645,-19.72467 a 16.09429,16.09429 0 0 0 -15.5,-9.99912 z m -8.69431,37.0643 c -0.25952,-1.03952 -0.41248,-3.0798 0.46826,-6.75632 a 19.76124,19.76124 0 0 1 3.869,-8.3562 6.4799,6.4799 0 0 1 2.11841,-1.74652 c 0.17175,0.97324 0.25622,3.04642 -0.67371,6.92877 -0.8927,3.7273 -2.15552,6.54563 -3.75329,8.37693 a 4.886,4.886 0 0 1 -2.02869,1.55334 z"
       fill="#ffffff"
       id="path103" />
    <path
       d="m 403.99423,98.93654 a 20.43445,20.43445 0 0 1 -7.6377,-1.418 15.691,15.691 0 0 1 -2.63476,-1.32519 8.10962,8.10962 0 0 1 -1.9961,-1.71191 4.78482,4.78482 0 0 1 -0.88867,-4.02044 8.60791,8.60791 0 0 1 0.24219,-0.94434 c 0.0957,-0.31152 0.22558,-0.65918 0.377,-1.03613 0.14844,-0.3584 0.2832,-0.67578 0.42774,-0.98731 a 8.05745,8.05745 0 0 1 0.71582,-1.25293 6.35076,6.35076 0 0 1 1.04,-1.17968 4.36091,4.36091 0 0 1 2.834,-1.0752 5.3751,5.3751 0 0 1 3.30273,1.23926 13.16459,13.16459 0 0 0 1.30957,0.85937 11.18091,11.18091 0 0 0 1.84864,0.81641 7.2006,7.2006 0 0 0 2.35547,0.31055 9.08688,9.08688 0 0 0 2.918,-0.43848 7.27176,7.27176 0 0 0 2.19336,-1.14062 5.97512,5.97512 0 0 0 1.43457,-1.58594 5.25676,5.25676 0 0 0 0.71387,-1.8457 1.58455,1.58455 0 0 0 0.0264,-0.65625 2.21894,2.21894 0 0 0 -0.4834,-0.752 7.3337,7.3337 0 0 0 -1.32324,-1.07031 c -0.7793,-0.5 -1.58106,-1.0332 -2.3877,-1.58984 -0.85351,-0.58789 -1.69726,-1.22657 -2.50195,-1.89649 a 12.50878,12.50878 0 0 1 -2.57227,-2.93359 11.87573,11.87573 0 0 1 -1.54882,-3.87793 12.8221,12.8221 0 0 1 0.0176,-4.98047 16.90293,16.90293 0 0 1 2.31055,-5.959 18.68581,18.68581 0 0 1 4.25586,-4.75 20.17654,20.17654 0 0 1 5.82707,-3.18065 21.16654,21.16654 0 0 1 7.03125,-1.15527 18.35835,18.35835 0 0 1 3.49707,0.32031 19.66674,19.66674 0 0 1 2.86035,0.75977 12.55379,12.55379 0 0 1 2.39355,1.10937 6.77067,6.77067 0 0 1 1.85352,1.52539 4.95657,4.95657 0 0 1 0.97363,1.98438 5.24845,5.24845 0 0 1 0.0274,2.14746 c -0.0488,0.2666 -0.11524,0.54785 -0.19825,0.86621 a 11.30141,11.30141 0 0 1 -0.36621,1.09375 c -0.125,0.31347 -0.2539,0.62109 -0.39941,0.9414 a 8.47885,8.47885 0 0 1 -0.70508,1.24512 5.83248,5.83248 0 0 1 -1.15137,1.24121 4.24923,4.24923 0 0 1 -2.666,0.9502 4.87516,4.87516 0 0 1 -3.01856,-1.13965 6.61962,6.61962 0 0 0 -0.92089,-0.5625 10.68356,10.68356 0 0 0 -1.582,-0.64649 6,6 0 0 0 -1.87011,-0.2373 6.25733,6.25733 0 0 0 -2.22657,0.36133 5.36988,5.36988 0 0 0 -1.65722,0.96387 5.13066,5.13066 0 0 0 -1.12793,1.36621 4.86837,4.86837 0 0 0 -0.57129,1.54785 1.336,1.336 0 0 0 -0.0264,0.54492 2.40129,2.40129 0 0 0 0.51758,0.77637 9.05681,9.05681 0 0 0 1.418,1.168 l 2.31055,1.56152 c 0.86914,0.59277 1.71777,1.22363 2.53613,1.88184 a 12.599,12.599 0 0 1 2.64062,2.9375 11.65256,11.65256 0 0 1 1.585,3.9082 12.784,12.784 0 0 1 -0.0117,4.95117 17.489,17.489 0 0 1 -2.52539,6.36523 19.69611,19.69611 0 0 1 -4.72071,5.05274 22.64765,22.64765 0 0 1 -6.376,3.32812 23.81975,23.81975 0 0 1 -7.6993,1.22458 z"
       fill="#ffffff"
       id="path105" />
    <path
       d="m 421.20168,52.89825 a 14.8347,14.8347 0 0 1 2.82911,0.25629 16.24515,16.24515 0 0 1 2.35687,0.62146 9.33824,9.33824 0 0 1 1.7395,0.79871 3.84268,3.84268 0 0 1 0.94049,0.7185 1.502,1.502 0 0 1 0.302,0.59162 1.87375,1.87375 0 0 1 -0.01,0.74975 c -0.0306,0.1695 -0.0784,0.36634 -0.13763,0.59027 -0.0631,0.22406 -0.14337,0.45832 -0.239,0.703 -0.0975,0.24475 -0.20453,0.501 -0.325,0.76635 a 4.97582,4.97582 0 0 1 -0.39569,0.70173 2.37677,2.37677 0 0 1 -0.45306,0.49578 0.77389,0.77389 0 0 1 -0.48932,0.19165 1.61006,1.61006 0 0 1 -0.88507,-0.41418 10.10859,10.10859 0 0 0 -1.4126,-0.87915 14.02721,14.02721 0 0 0 -2.12182,-0.87775 9.46913,9.46913 0 0 0 -2.97242,-0.41559 9.69361,9.69361 0 0 0 -3.47137,0.59028 8.91235,8.91235 0 0 0 -2.71246,1.59765 8.61168,8.61168 0 0 0 -1.87519,2.28235 8.41106,8.41106 0 0 0 -0.96917,2.65143 4.41917,4.41917 0 0 0 0.16821,2.45978 5.87908,5.87908 0 0 0 1.25586,1.916 12.46574,12.46574 0 0 0 1.967,1.6286 q 1.13544,0.7651 2.313,1.56391 1.1727,0.80007 2.30145,1.70886 a 9.03083,9.03083 0 0 1 1.89624,2.109 8.15778,8.15778 0 0 1 1.103,2.74579 9.29329,9.29329 0 0 1 -0.0344,3.59265 13.92825,13.92825 0 0 1 -2.02435,5.09424 16.11809,16.11809 0 0 1 -3.88422,4.15185 19.0723,19.0723 0 0 1 -5.3963,2.80939 20.251,20.251 0 0 1 -6.57184,1.03821 16.97422,16.97422 0 0 1 -6.331,-1.1651 12.37143,12.37143 0 0 1 -2.0473,-1.02143 4.91355,4.91355 0 0 1 -1.14691,-0.94256 1.45223,1.45223 0 0 1 -0.18921,-1.2143 4.89151,4.89151 0 0 1 0.14337,-0.54126 c 0.0726,-0.23559 0.1701,-0.49054 0.28094,-0.76764 0.11475,-0.27575 0.22943,-0.54766 0.35364,-0.81433 a 4.655,4.655 0 0 1 0.41675,-0.73394 2.92622,2.92622 0 0 1 0.47217,-0.54377 0.80674,0.80674 0 0 1 0.52752,-0.20715 2.01135,2.01135 0 0 1 1.16419,0.51007 16.2094,16.2094 0 0 0 1.67065,1.103 14.49673,14.49673 0 0 0 2.45828,1.10173 10.64772,10.64772 0 0 0 3.52295,0.51141 12.52893,12.52893 0 0 0 4.04291,-0.624 10.79008,10.79008 0 0 0 3.2171,-1.69208 9.50314,9.50314 0 0 0 2.26136,-2.50628 8.79912,8.79912 0 0 0 1.18322,-3.067 4.68728,4.68728 0 0 0 -0.14141,-2.50647 5.69244,5.69244 0 0 0 -1.2215,-1.93274 10.74423,10.74423 0 0 0 -1.9574,-1.59765 q -1.1412,-0.73206 -2.3034,-1.53278 c -0.77039,-0.53088 -1.5235,-1.10052 -2.25184,-1.70758 a 8.95574,8.95574 0 0 1 -1.85034,-2.109 8.36933,8.36933 0 0 1 -1.08764,-2.74591 9.3554,9.3554 0 0 1 0.0401,-3.62488 13.346,13.346 0 0 1 1.83319,-4.72534 15.14948,15.14948 0 0 1 3.46753,-3.86572 16.58241,16.58241 0 0 1 4.81323,-2.619 17.54906,17.54906 0 0 1 5.86651,-0.95667 m 0,-7 a 24.61484,24.61484 0 0 0 -8.18933,1.35328 23.65165,23.65165 0 0 0 -6.83368,3.73275 22.22636,22.22636 0 0 0 -5.06665,5.65564 20.3613,20.3613 0 0 0 -2.77783,7.17258 16.30677,16.30677 0 0 0 0.006,6.36063 15.35471,15.35471 0 0 0 2.0138,5.00613 15.963,15.963 0 0 0 3.28167,3.74121 c 0.88123,0.73447 1.81037,1.43912 2.76337,2.09586 0.74823,0.51544 1.49914,1.017 2.23675,1.49386 a 2.741,2.741 0 0 1 -0.38745,0.36292 3.849,3.849 0 0 1 -1.14746,0.57968 5.65316,5.65316 0 0 1 -1.81067,0.25857 4.29855,4.29855 0 0 1 -1.19488,-0.11291 7.58774,7.58774 0 0 1 -1.25946,-0.54672 9.17847,9.17847 0 0 1 -0.91211,-0.59137 8.803,8.803 0 0 0 -5.44959,-1.97513 7.83423,7.83423 0 0 0 -5.04644,1.86118 q -0.0417,0.03523 -0.0828,0.0711 a 9.92126,9.92126 0 0 0 -1.629,1.83881 11.69658,11.69658 0 0 0 -1.01886,1.791 c -0.15918,0.34354 -0.3081,0.693 -0.45581,1.04795 q -0.0185,0.04453 -0.0364,0.08938 c -0.14795,0.36981 -0.31965,0.81409 -0.471,1.30521 a 11.26038,11.26038 0 0 0 -0.34223,1.35736 8.34147,8.34147 0 0 0 1.61469,6.83752 11.417,11.417 0 0 0 2.79889,2.4372 19.12112,19.12112 0 0 0 3.23852,1.641 23.97112,23.97112 0 0 0 8.9505,1.67371 27.313,27.313 0 0 0 8.83,-1.41245 26.12271,26.12271 0 0 0 7.35944,-3.85116 23.15913,23.15913 0 0 0 5.54589,-5.94227 20.96711,20.96711 0 0 0 3.02881,-7.63742 16.25026,16.25026 0 0 0 -0.009,-6.312 15.162,15.162 0 0 0 -2.07068,-5.08047 16.04469,16.04469 0 0 0 -3.352,-3.73288 q -1.36761,-1.10307 -2.777,-2.06372 c -0.74658,-0.50574 -1.46673,-0.99344 -2.17273,-1.46952 a 2.13383,2.13383 0 0 1 0.56989,-0.30542 2.96257,2.96257 0 0 1 0.98193,-0.13266 3.35863,3.35863 0 0 1 0.78009,0.06318 7.13934,7.13934 0 0 1 1.052,0.42358 4.36225,4.36225 0 0 1 0.42535,0.24789 8.33625,8.33625 0 0 0 5.13446,1.852 7.71814,7.71814 0 0 0 4.85822,-1.72238 9.372,9.372 0 0 0 1.80432,-1.9303 l 0.0387,-0.05529 a 11.85121,11.85121 0 0 0 0.96442,-1.68756 q 0.0236,-0.05 0.0465,-0.10035 c 0.16809,-0.37039 0.318,-0.72793 0.454,-1.06958 a 14.70989,14.70989 0 0 0 0.47357,-1.39523 q 0.015,-0.05319 0.0292,-0.10669 c 0.11743,-0.44375 0.19751,-0.795 0.25952,-1.13907 a 8.80385,8.80385 0 0 0 -0.0673,-3.60318 8.43868,8.43868 0 0 0 -1.642,-3.346 10.07527,10.07527 0 0 0 -2.77173,-2.33176 16.09337,16.09337 0 0 0 -3.041,-1.41757 23.3253,23.3253 0 0 0 -3.37555,-0.89823 21.8653,21.8653 0 0 0 -4.14978,-0.382 z"
       fill="#ffffff"
       id="path107" />
    <path
       d="M 289.31161,3.5 H 372.919 a 11.69629,11.69629 0 0 1 11.69629,11.69629 v 83.6084 A 11.69531,11.69531 0 0 1 372.92,110.5 H 289.31063 A 11.69531,11.69531 0 0 1 277.61532,98.80469 V 15.19631 A 11.69629,11.69629 0 0 1 289.31161,3.5 Z"
       fill="#ffffff"
       id="path109" />
    <path
       d="m 372.91964,7 a 8.1956,8.1956 0 0 1 8.1958,8.19664 V 98.8042 A 8.1954,8.1954 0 0 1 372.91964,107 h -83.6084 a 8.19544,8.19544 0 0 1 -8.1958,-8.1958 V 15.19664 A 8.19564,8.19564 0 0 1 289.31124,7 h 83.6084 m 0,-7 h -83.6084 a 15.2134,15.2134 0 0 0 -15.1958,15.19664 V 98.8042 A 15.213,15.213 0 0 0 289.31124,114 h 83.6084 a 15.213,15.213 0 0 0 15.1958,-15.1958 V 15.19664 A 15.2134,15.2134 0 0 0 372.91964,0 Z"
       fill="#ffffff"
       id="path111" />
    <path
       d="m 444.19057,40.76687 v -3.18941 h 5.8424 c 4.84825,0 5.92694,-0.04373 6.33509,-0.25656 l 0.77257,-0.25946 a 6.2018,6.2018 0 0 0 1.40813,-0.59182 c 1.41686,-0.73759 4.43427,-3.685 4.43427,-4.32933 l 0.35276,-1.309 a 4.10382,4.10382 0 0 0 0.3032,-1.77254 l -0.0525,-0.87753 -8.96476,-0.04373 c -8.18343,-0.04081 -8.98516,-0.07 -9.18049,-0.33526 a 9.22932,9.22932 0 0 1 -0.21574,-3.00575 c 0,-2.23609 0.0466,-2.76085 0.27113,-2.98242 0.23906,-0.242 1.53057,-0.27113 11.61774,-0.27113 9.65279,0 11.37577,0.035 11.55069,0.24781 0.1516,0.18075 0.1895,1.53348 0.14869,5.13688 -0.0466,4.30891 -0.0904,4.94446 -0.35568,5.3497 l -0.30611,0.76674 -0.43148,1.172 -0.42564,1.1778 a 7.65654,7.65654 0 0 0 1.4227,1.8396 c 2.59468,2.78418 3.74916,4.13108 3.74916,4.38472 l 0.21574,0.39066 0.63263,0.60931 0.21866,0.90668 -0.19825,0.43147 h -5.8249 l -1.23612,-1.3003 a 12.02074,12.02074 0 0 1 -1.4227,-1.71132 0.69551,0.69551 0 0 0 -1.19821,-0.2449 l -0.55392,0.32653 -0.4548,0.25072 -2.82791,1.47226 -0.88044,0.344 -1.24778,0.449 -0.6647,0.26238 c -0.0525,0.08455 -2.94744,0.1516 -6.46337,0.1516 h -6.37008 z"
       fill="#2930b4"
       id="path113" />
    <path
       d="m 472.251,35.388 c -0.62681,-0.09912 -0.66762,-0.32652 -0.60932,-3.41389 l 0.0496,-2.58593 10.23876,-0.04664 c 7.41961,-0.03207 10.30582,0.01166 10.47492,0.1516 0.18075,0.14868 0.23614,0.8163 0.23614,2.825 0,2.23609 -0.0437,2.66465 -0.28571,2.86581 -0.23323,0.19533 -2.03492,0.242 -9.95889,0.25655 -5.31762,0.01165 -9.88309,-0.01167 -10.14546,-0.0525 z"
       fill="#2930b4"
       id="path115" />
    <path
       d="m 614.93251,35.388 -0.57433,-0.53934 0.0758,-5.33221 c 0.11079,-0.16909 2.37894,-0.21573 10.38163,-0.21573 9.95015,0 10.24752,0.0087 10.42244,0.33526 l -0.0671,5.45174 c -0.23614,0.32361 -0.55683,0.33527 -10.04344,0.35568 -5.38755,0.01167 -9.97639,-0.01166 -10.19504,-0.0554 z"
       fill="#2930b4"
       id="path117" />
    <path
       d="m 495.937,43.68515 a 31.94189,31.94189 0 0 1 0.102,-6.41964 c 0.15452,-0.1516 1.93872,-0.207 6.96773,-0.207 5.51,0 6.854,-0.04373 7.25052,-0.24489 a 16.79415,16.79415 0 0 1 1.78129,-0.64721 5.84366,5.84366 0 0 0 3.40807,-2.30606 l 0.56266,-0.85129 -0.0437,-2.67339 -0.0466,-2.67339 -10.82476,-0.04373 -10.82476,-0.04373 -0.16618,-0.44022 a 14.2655,14.2655 0 0 1 -0.16909,-2.67048 c 0,-2.00286 0.035,-2.26816 0.34693,-2.57719 0.33818,-0.33818 0.57432,-0.344 13.34947,-0.344 11.5915,0 13.03461,0.02915 13.27658,0.27113 0.23323,0.23615 0.26822,1.032 0.26822,6.131 0,5.52462 -0.0204,5.92694 -0.37025,7.01438 a 22.61536,22.61536 0 0 1 -1.32358,3.27395 15.70178,15.70178 0 0 1 -3.54217,3.481 l -0.27988,0.16035 c 0,0.35567 -1.77837,1.1953 -3.36142,1.586 l -0.8542,0.33527 c -0.0962,0.0962 -3.24481,0.16034 -7.784,0.16034 -6.78981,-7e-5 -7.62948,-0.02922 -7.72281,-0.2712 z"
       fill="#2930b4"
       id="path119" />
    <path
       d="m 524.81376,43.71722 a 8.17109,8.17109 0 0 1 -0.1516,-2.70838 l 0.0496,-2.46931 0.43147,-0.11953 a 32.71162,32.71162 0 0 1 3.43139,-0.137 l 3.00283,-0.01749 0.57433,-0.64429 c 0.53059,-0.59474 0.57724,-0.74051 0.57724,-1.77838 0,-1.77546 -0.20991,-1.69383 4.50716,-1.75213 3.79872,-0.04374 4.10484,-0.07289 4.46051,-0.39358 l 0.59474,-1.48684 c -0.0991,-0.309 -0.46938,-0.3236 -9.21548,-0.3236 -5.01152,0 -9.23589,-0.04665 -9.38457,-0.105 v -4.962 c 0.14868,-0.05831 5.37011,-0.105 11.60316,-0.105 8.58285,0 11.3816,0.04957 11.539,0.207 0.28862,0.28862 0.27113,7.00562 -0.0233,8.06973 a 5.24479,5.24479 0 0 1 -2.96785,3.64713 l -1.02621,0.551 -3.23314,0.07289 -3.23314,0.07 V 40.21 a 3.69035,3.69035 0 0 1 -2.16612,3.40515 c -0.60931,0.31195 -1.02621,0.3411 -4.91823,0.3411 -3.41678,3e-5 -4.29139,-0.04661 -4.45173,-0.23903 z"
       fill="#2930b4"
       id="path121" />
    <polygon
       points="550.242,21.502 576.748,23.82 577.579,24.729 577.579,28.619 576.748,29.382 550.242,27.062 549.414,26.155 549.414,22.266 "
       fill="#2930b4"
       id="polygon123" />
    <polygon
       points="550.242,28.811 576.748,31.129 577.579,32.038 577.579,35.927 576.748,36.691 550.242,34.371 549.414,33.464 549.414,29.572 "
       fill="#2930b4"
       id="polygon125" />
    <polygon
       points="550.242,36.117 576.748,38.437 577.579,39.347 577.579,43.236 576.748,44 550.242,41.679 549.414,40.773 549.414,36.881 "
       fill="#2930b4"
       id="polygon127" />
    <path
       d="m 605.44109,22.52806 h -20.01923 a 6.90376,6.90376 0 0 1 -1.3869,3.38524 6.11461,6.11461 0 0 1 -2.306,1.93238 v 6.37046 a 8.6381,8.6381 0 0 0 6.488,-3.2206 8.27478,8.27478 0 0 0 1.622,-5.21871 h 15.41524 c -0.004,0.53612 -0.006,1.1485 -0.006,1.84437 0,0.682 -8.5e-4,1.22976 -0.003,1.67952 -0.007,1.238 -15.40348,0.96142 -15.40348,0.96142 l -0.0235,4.04325 c 0,0 14.139,-0.17329 14.47578,0.40247 0.17706,0.30274 -0.27372,1.14808 -0.62218,1.52512 a 4.52752,4.52752 0 0 1 -3.04027,1.62984 c -1.33893,0.38172 -2.90978,0.32076 -9.0443,0.35866 -6.6702,0.04373 -7.7606,0.08454 -7.89385,0.309 l 0.0435,5.924 c 0.11149,0.05247 4.07337,0.0758 8.80478,0.05247 9.61238,-0.04081 8.696,0.06706 11.55118,-1.36439 a 8.28516,8.28516 0 0 0 2.74911,-2.16612 11.59906,11.59906 0 0 0 2.38474,-3.87452 c 0.3535,-1.08744 0.28824,-0.95916 0.33446,-7.40795 0.0435,-5.74619 0.0136,-7.10184 -0.16043,-7.22137 z"
       fill="#2930b4"
       id="path129" />
    <path
       d="m 656.47174,29.90514 h 11.02087 a 0.59493,0.59493 0 0 0 0.59319,-0.59319 v -4.18356 a 0.59493,0.59493 0 0 0 -0.59319,-0.59319 h -11.02088 v -2.99338 a 0.63006,0.63006 0 0 0 -0.62821,-0.6282 h -6.299 a 0.63006,0.63006 0 0 0 -0.62821,0.6282 v 2.99338 h -10.70858 a 0.59494,0.59494 0 0 0 -0.59319,0.59319 V 29.312 a 0.59494,0.59494 0 0 0 0.59319,0.59319 h 10.70865 V 44.575 a 0.63006,0.63006 0 0 0 0.62821,0.62821 h 6.299 A 0.63006,0.63006 0 0 0 656.4718,44.575 Z"
       fill="#2930b4"
       id="path131" />
    <path
       d="m 640.87538,31.67251 c 0,0 4.94058,0.093 4.93663,0 l -0.094,6.91121 c 0,3.43205 -3.79255,6.53509 -9.12086,6.53509 a 20.11276,20.11276 0 0 1 -0.61117,-6.347 c 0,0 2.63379,0.26189 3.79248,-0.7679 1.50502,-1.33765 1.09692,-6.3314 1.09692,-6.3314 z"
       fill="#2930b4"
       id="path133" />
    <path
       d="m 664.80831,31.67251 c 0,0 -4.94058,0.093 -4.93663,0 l 0.094,6.91121 c 0,3.43205 3.79256,6.53509 9.12086,6.53509 a 20.11244,20.11244 0 0 0 0.61117,-6.347 c 0,0 -2.63378,0.26189 -3.79248,-0.7679 -1.50502,-1.33765 -1.09692,-6.3314 -1.09692,-6.3314 z"
       fill="#2930b4"
       id="path135" />
    <rect
       x="657.9079"
       y="19.976999"
       width="4.87041"
       height="3.4967"
       rx="1.00141"
       fill="#2930b4"
       id="rect137" />
    <rect
       x="663.78473"
       y="19.976999"
       width="4.87041"
       height="3.4967"
       rx="1.00141"
       fill="#2930b4"
       id="rect139" />
    <path
       d="m 443.34483,39.35349 v -3.18941 h 5.8424 c 4.84825,0 5.92694,-0.04373 6.33509,-0.25656 l 0.77257,-0.25946 a 6.2018,6.2018 0 0 0 1.40813,-0.59182 c 1.41686,-0.73759 4.43427,-3.685 4.43427,-4.32933 l 0.35276,-1.309 a 4.10382,4.10382 0 0 0 0.3032,-1.77254 l -0.0525,-0.87753 -8.96476,-0.04373 c -8.18343,-0.04081 -8.98516,-0.07 -9.18049,-0.33526 a 9.22932,9.22932 0 0 1 -0.21574,-3.00575 c 0,-2.23609 0.0466,-2.76085 0.27113,-2.98242 0.23906,-0.242 1.53057,-0.27113 11.61774,-0.27113 9.65279,0 11.37577,0.035 11.55069,0.24781 0.1516,0.18075 0.1895,1.53348 0.14869,5.13688 -0.0466,4.30891 -0.0904,4.94446 -0.35568,5.3497 l -0.30611,0.76674 -0.43148,1.172 -0.42564,1.17781 a 7.65678,7.65678 0 0 0 1.4227,1.83959 c 2.59468,2.78418 3.74916,4.13108 3.74916,4.38472 l 0.21574,0.39066 0.63263,0.60931 0.21866,0.90668 -0.19825,0.43147 h -5.8249 l -1.23612,-1.30025 a 12.02074,12.02074 0 0 1 -1.4227,-1.71132 0.69551,0.69551 0 0 0 -1.19822,-0.24489 l -0.55392,0.32652 -0.45479,0.25072 -2.82791,1.47226 -0.88044,0.344 -1.24778,0.449 -0.6647,0.26238 c -0.0525,0.08455 -2.94744,0.1516 -6.46337,0.1516 h -6.37008 z"
       fill="#cb4414"
       id="path141" />
    <path
       d="m 471.40525,33.97463 c -0.62681,-0.09912 -0.66762,-0.32652 -0.60932,-3.41389 l 0.0496,-2.58593 10.23878,-0.04665 c 7.41961,-0.03207 10.30582,0.01166 10.47491,0.1516 0.18076,0.14868 0.23615,0.8163 0.23615,2.825 0,2.23609 -0.0437,2.66465 -0.28571,2.86581 -0.23323,0.19533 -2.03492,0.242 -9.95889,0.25655 -5.31764,0.01165 -9.8831,-0.01167 -10.14548,-0.05249 z"
       fill="#cb4414"
       id="path143" />
    <path
       d="m 614.08677,33.97463 -0.57433,-0.53934 0.0758,-5.33221 c 0.11078,-0.16909 2.37894,-0.21573 10.38163,-0.21573 9.95015,0 10.24752,0.0087 10.42244,0.33526 l -0.0671,5.45174 c -0.23614,0.32361 -0.55683,0.33527 -10.04344,0.35568 -5.3876,0.01166 -9.97639,-0.01167 -10.19504,-0.0554 z"
       fill="#cb4414"
       id="path145" />
    <path
       d="m 495.0913,42.27177 a 31.94189,31.94189 0 0 1 0.102,-6.41964 c 0.15452,-0.1516 1.93872,-0.207 6.96773,-0.207 5.51,0 6.854,-0.04373 7.25052,-0.24489 a 16.79415,16.79415 0 0 1 1.78129,-0.64721 5.84366,5.84366 0 0 0 3.40807,-2.30606 l 0.56266,-0.85129 -0.0437,-2.67339 -0.0466,-2.67339 -10.82476,-0.04373 -10.82477,-0.04373 -0.16617,-0.44022 a 14.2655,14.2655 0 0 1 -0.16909,-2.67048 c 0,-2.00286 0.035,-2.26816 0.34693,-2.57719 0.33818,-0.33818 0.57432,-0.344 13.34947,-0.344 11.5915,0 13.03461,0.02916 13.27658,0.27113 0.23323,0.23615 0.26822,1.032 0.26822,6.131 0,5.52462 -0.0204,5.92694 -0.37026,7.01438 a 22.61421,22.61421 0 0 1 -1.32354,3.27394 15.70178,15.70178 0 0 1 -3.54217,3.481 l -0.27988,0.16035 c 0,0.35567 -1.77837,1.1953 -3.36142,1.586 l -0.8542,0.33527 c -0.0962,0.0962 -3.24481,0.16034 -7.784,0.16034 -6.78993,-6e-5 -7.62955,-0.02921 -7.72284,-0.27119 z"
       fill="#cb4414"
       id="path147" />
    <path
       d="m 523.968,42.30384 a 8.17109,8.17109 0 0 1 -0.1516,-2.70838 l 0.0496,-2.46931 0.43147,-0.11953 a 32.71162,32.71162 0 0 1 3.43139,-0.137 l 3.00283,-0.01749 0.57433,-0.64429 c 0.53059,-0.59474 0.57724,-0.74051 0.57724,-1.77838 0,-1.77546 -0.20991,-1.69383 4.50716,-1.75213 3.79872,-0.04373 4.10484,-0.07289 4.46051,-0.39358 l 0.59474,-1.48684 c -0.0991,-0.309 -0.46938,-0.3236 -9.21548,-0.3236 -5.01152,0 -9.23589,-0.04665 -9.38457,-0.105 v -4.962 c 0.14868,-0.05831 5.37011,-0.105 11.60316,-0.105 8.58285,0 11.3816,0.04957 11.539,0.207 0.28862,0.28862 0.27113,7.00563 -0.0233,8.06973 a 5.24479,5.24479 0 0 1 -2.96785,3.64713 l -1.02621,0.551 -3.23314,0.07289 -3.23314,0.07 v 0.87752 A 3.69035,3.69035 0 0 1 533.338,42.2018 c -0.60931,0.312 -1.02621,0.3411 -4.91823,0.3411 -3.41677,0 -4.29141,-0.04664 -4.45177,-0.23906 z"
       fill="#cb4414"
       id="path149" />
    <polygon
       points="549.396,20.089 575.902,22.406 576.733,23.316 576.733,27.205 575.902,27.969 549.396,25.648 548.568,24.742 548.568,20.853 "
       fill="#cb4414"
       id="polygon151" />
    <polygon
       points="549.396,27.398 575.902,29.715 576.733,30.625 576.733,34.514 575.902,35.278 549.396,32.957 548.568,32.05 548.568,28.158 "
       fill="#cb4414"
       id="polygon153" />
    <polygon
       points="549.396,34.703 575.902,37.024 576.733,37.934 576.733,41.823 575.902,42.587 549.396,40.266 548.568,39.359 548.568,35.467 "
       fill="#cb4414"
       id="polygon155" />
    <path
       d="m 604.59535,21.11468 h -20.01923 a 6.90367,6.90367 0 0 1 -1.38691,3.38524 6.11453,6.11453 0 0 1 -2.306,1.93238 v 6.37046 a 8.6381,8.6381 0 0 0 6.488,-3.2206 8.27478,8.27478 0 0 0 1.622,-5.21871 h 15.41517 c -0.004,0.53612 -0.006,1.1485 -0.006,1.84437 0,0.682 -8.5e-4,1.22976 -0.003,1.67952 -0.007,1.238 -15.40348,0.96142 -15.40348,0.96142 L 588.972,32.892 c 0,0 14.139,-0.17329 14.47578,0.40247 0.17706,0.30274 -0.27372,1.14808 -0.62218,1.52512 a 4.52752,4.52752 0 0 1 -3.04027,1.62984 c -1.33893,0.38172 -2.90978,0.32076 -9.0443,0.35866 -6.6702,0.04373 -7.7606,0.08454 -7.89385,0.309 l 0.0435,5.924 c 0.11149,0.05247 4.07337,0.0758 8.80478,0.05247 9.61238,-0.04081 8.696,0.06706 11.55117,-1.36439 a 8.28518,8.28518 0 0 0 2.74912,-2.16612 11.59906,11.59906 0 0 0 2.38474,-3.87452 c 0.3535,-1.08743 0.28824,-0.95916 0.33446,-7.40795 0.0435,-5.74619 0.0136,-7.10184 -0.16043,-7.22137 z"
       fill="#cb4414"
       id="path157" />
    <path
       d="m 655.626,28.49176 h 11.02087 a 0.59493,0.59493 0 0 0 0.59319,-0.59319 V 23.715 a 0.59493,0.59493 0 0 0 -0.59319,-0.59319 H 655.626 v -2.99338 a 0.63006,0.63006 0 0 0 -0.62821,-0.6282 h -6.299 a 0.63006,0.63006 0 0 0 -0.62821,0.6282 v 2.99338 H 637.362 a 0.59494,0.59494 0 0 0 -0.59319,0.59319 v 4.18356 a 0.59494,0.59494 0 0 0 0.59319,0.59319 h 10.70865 v 14.66987 a 0.63006,0.63006 0 0 0 0.62821,0.62821 h 6.299 a 0.63006,0.63006 0 0 0 0.62821,-0.62821 z"
       fill="#cb4414"
       id="path159" />
    <path
       d="m 640.02964,30.25913 c 0,0 4.94058,0.093 4.93663,0 l -0.094,6.91121 c 0,3.432 -3.79255,6.53509 -9.12086,6.53509 a 20.11276,20.11276 0 0 1 -0.61117,-6.347 c 0,0 2.63379,0.26189 3.79248,-0.7679 1.50502,-1.33765 1.09692,-6.3314 1.09692,-6.3314 z"
       fill="#cb4414"
       id="path161" />
    <path
       d="m 663.96257,30.25913 c 0,0 -4.94058,0.093 -4.93663,0 l 0.094,6.91121 c 0,3.432 3.79256,6.53509 9.12086,6.53509 a 20.11244,20.11244 0 0 0 0.61117,-6.347 c 0,0 -2.63378,0.26189 -3.79248,-0.7679 -1.50502,-1.33765 -1.09692,-6.3314 -1.09692,-6.3314 z"
       fill="#cb4414"
       id="path163" />
    <rect
       x="657.06213"
       y="18.56362"
       width="4.87041"
       height="3.4967"
       rx="1.00141"
       fill="#cb4414"
       id="rect165" />
    <rect
       x="662.93896"
       y="18.56362"
       width="4.87041"
       height="3.4967"
       rx="1.00141"
       fill="#cb4414"
       id="rect167" />
    <path
       d="m 452.963,77.81419 q -4.21566,17.62254 -16.54412,17.62254 -11.812,0 -7.75788,-16.95121 l 6.121,-25.58726 h 5.13139 l -5.77892,24.15732 q -2.94518,12.31161 4.12421,12.31228 6.80907,0 9.65153,-11.87457 l 5.88362,-24.595 h 5.12957 z"
       fill="#1e2881"
       id="path169" />
    <path
       d="m 481.45987,58.79258 h -11.55246 l -3.008,12.5741 h 10.64713 l -1.40265,5.86344 h -10.64712 l -4.18772,17.50573 h -5.13139 l 10.0084,-41.83759 h 16.68385 z"
       fill="#1e2881"
       id="path171" />
    <path
       d="m 501.98312,94.73585 h -5.62686 L 496.12391,84.08714 H 483.96668 L 478.747,94.73585 h -5.605 l 21.58272,-41.83759 h 5.77805 z m -5.86395,-16.30941 -0.29589,-16.688 a 25.19873,25.19873 0 0 1 0.21808,-2.62492 h -0.0874 a 27.376,27.376 0 0 1 -1.05783,2.62492 l -8.23822,16.688 z"
       fill="#1e2881"
       id="path173" />
    <path
       d="m 539.42206,94.73585 h -5.08585 l 6.47687,-27.07493 q 0.79544,-3.32513 2.24764,-8.13927 h -0.0856 q -1.13163,2.74308 -1.78363,3.938 l -16.70637,31.2762 h -3.53569 l -1.82034,-31.04252 a 35.7744,35.7744 0 0 1 0.17824,-4.17168 h -0.0856 q -0.42818,2.50945 -1.78816,8.19834 l -6.46274,27.01586 h -4.7434 l 10.0084,-41.83759 h 7.22074 l 1.46246,27.86309 a 47.1373,47.1373 0 0 1 0.0615,4.78393 h 0.10748 q 1.58653,-3.29693 2.46568,-4.90075 l 14.91473,-27.74627 h 6.96208 z"
       fill="#1e2881"
       id="path175" />
    <path
       d="m 552.29335,94.73585 h -5.28259 l 10.0084,-41.83759 h 5.28256 z"
       fill="#1e2881"
       id="path177" />
    <path
       d="m 603.76258,58.79258 h -8.88935 l -8.609,35.94327 h -5.1359 l 8.609,-35.94327 h -8.87111 l 1.41179,-5.89432 h 22.89636 z"
       fill="#1e2881"
       id="path179" />
    <path
       d="m 627.54163,77.81419 q -4.22088,17.62254 -16.56456,17.62254 -11.82936,0 -7.76563,-16.95121 L 609.34,52.89826 h 5.1359 l -5.78605,24.15732 q -2.94884,12.31161 4.12747,12.31228 6.82295,0 9.66527,-11.87457 l 5.8909,-24.595 h 5.1359 z"
       fill="#1e2881"
       id="path181" />
    <path
       d="m 654.67612,94.73585 h -6.0004 l -2.25923,-11.20323 a 20.05348,20.05348 0 0 0 -0.6733,-2.641 7.203,7.203 0 0 0 -0.86527,-1.7938 2.92873,2.92873 0 0 0 -1.18912,-1.02043 3.978,3.978 0 0 0 -1.674,-0.3209 h -2.07187 l -4.06683,16.9794 h -5.114 L 640.78286,52.8983 h 10.18791 a 9.847,9.847 0 0 1 3.84456,0.70087 6.22209,6.22209 0 0 1 2.68884,2.11471 7.51091,7.51091 0 0 1 1.28113,3.52988 14.12729,14.12729 0 0 1 -0.41841,4.94505 18.97081,18.97081 0 0 1 -1.4602,4.071 16.09068,16.09068 0 0 1 -2.172,3.29625 13.91963,13.91963 0 0 1 -2.74986,2.46514 12.63653,12.63653 0 0 1 -3.21542,1.5763 l -0.028,0.11681 a 6.04095,6.04095 0 0 1 1.13137,1.41383 q 0.43851,0.77339 0.80441,1.59106 a 14.4113,14.4113 0 0 1 0.66906,1.85155 c 0.19915,0.69147 0.41569,1.493 0.6417,2.4074 z m -10.128,-36.20643 -3.25642,13.59587 h 4.27506 a 5.62965,5.62965 0 0 0 2.30758,-0.49678 7.04645,7.04645 0 0 0 2.08211,-1.42861 9.52029,9.52029 0 0 0 1.68681,-2.27582 12.17041,12.17041 0 0 0 1.13191,-3.0049 6.31782,6.31782 0 0 0 -0.27911,-4.698 3.853,3.853 0 0 0 -3.62911,-1.69176 z"
       fill="#1e2881"
       id="path183" />
    <path
       d="m 658.27636,94.73585 10.02076,-41.83759 h 9.8195 q 4.49208,0 6.47683,2.6558 1.98506,2.65446 0.9668,6.91341 a 15.43582,15.43582 0 0 1 -2.97346,6.18568 11.817,11.817 0 0 1 -5.0162,3.734 l -0.028,0.11682 a 5.46282,5.46282 0 0 1 4.34134,3.19555 q 1.26315,2.69877 0.22709,7.01679 a 15.90979,15.90979 0 0 1 -5.212,8.69379 13.14065,13.14065 0 0 1 -8.69376,3.32579 z m 13.79985,-36.26417 -2.8509,11.90277 h 3.32669 a 6.71577,6.71577 0 0 0 4.60355,-1.70653 9.04656,9.04656 0 0 0 2.67751,-4.82824 q 1.286,-5.36934 -4.02162,-5.368 z m -4.1855,17.47485 -3.17249,13.24547 h 4.38084 a 7.0107,7.0107 0 0 0 4.8652,-1.79381 9.38,9.38 0 0 0 2.74927,-4.94505 q 1.55809,-6.50523 -5.1095,-6.50658 z"
       fill="#1e2881"
       id="path185" />
    <path
       d="m 697.56158,95.43673 q -6.69164,0 -9.31212,-5.86478 -2.61684,-5.86479 -0.36882,-15.25811 2.41773,-10.09419 7.95745,-16.10532 5.5376,-6.00979 12.57575,-6.00979 a 9.18163,9.18163 0 0 1 9.10033,5.83524 q 2.58577,5.83458 0.32869,15.2581 -2.45293,10.24122 -7.95646,16.1926 -5.50719,5.95139 -12.32482,5.95206 z m 9.13293,-37.14094 q -4.25135,0 -7.94312,4.28849 a 26.46277,26.46277 0 0 0 -5.371,11.29185 q -1.67,6.97249 -0.10026,11.23144 1.56727,4.26164 5.75694,4.26029 4.44285,0 7.986,-4.05621 3.53717,-4.05418 5.286,-11.34824 1.79592,-7.49814 0.27936,-11.58321 a 5.77371,5.77371 0 0 0 -5.89392,-4.08441 z"
       fill="#1e2881"
       id="path187" />
    <path
       d="m 429.36012,56.63458 c -0.0306,0.16951 -0.0784,0.36638 -0.13763,0.59027 -0.0631,0.224 -0.14336,0.45835 -0.23894,0.703 -0.0975,0.2447 -0.20453,0.501 -0.325,0.76633 a 4.97286,4.97286 0 0 1 -0.39569,0.70171 2.37643,2.37643 0 0 1 -0.453,0.49578 0.77415,0.77415 0 0 1 -0.48936,0.19167 1.60978,1.60978 0 0 1 -0.885,-0.41421 10.106,10.106 0 0 0 -1.41262,-0.87912 14.02152,14.02152 0 0 0 -2.12181,-0.87777 9.46942,9.46942 0 0 0 -2.97244,-0.41555 9.69324,9.69324 0 0 0 -3.47135,0.59027 8.912,8.912 0 0 0 -2.71247,1.59761 8.6122,8.6122 0 0 0 -1.87521,2.28237 8.41129,8.41129 0 0 0 -0.96915,2.65144 4.41915,4.41915 0 0 0 0.16821,2.45977 5.87859,5.87859 0 0 0 1.25588,1.916 12.46906,12.46906 0 0 0 1.967,1.62866 q 1.13546,0.76506 2.313,1.56387 1.17273,0.80007 2.30149,1.70888 a 9.03174,9.03174 0 0 1 1.89625,2.109 8.15785,8.15785 0 0 1 1.10295,2.74576 9.29339,9.29339 0 0 1 -0.0344,3.59265 13.92777,13.92777 0 0 1 -2.02431,5.09426 16.11843,16.11843 0 0 1 -3.88424,4.15187 19.07337,19.07337 0 0 1 -5.39627,2.80937 20.2518,20.2518 0 0 1 -6.57186,1.03822 16.97444,16.97444 0 0 1 -6.331,-1.1651 12.37126,12.37126 0 0 1 -2.04726,-1.02144 4.91274,4.91274 0 0 1 -1.14692,-0.94256 1.45224,1.45224 0 0 1 -0.18924,-1.21427 4.90124,4.90124 0 0 1 0.14336,-0.54127 c 0.0726,-0.23563 0.17013,-0.49057 0.281,-0.76767 0.11469,-0.27575 0.22938,-0.54764 0.35363,-0.81433 a 4.65906,4.65906 0 0 1 0.41672,-0.73393 2.9283,2.9283 0 0 1 0.47215,-0.54378 0.807,0.807 0 0 1 0.52758,-0.20711 2.0111,2.0111 0 0 1 1.16413,0.51 16.20872,16.20872 0 0 0 1.67068,1.103 14.49872,14.49872 0 0 0 2.45813,1.10177 10.64912,10.64912 0 0 0 3.523,0.51139 12.52986,12.52986 0 0 0 4.0429,-0.624 10.79016,10.79016 0 0 0 3.21711,-1.6921 9.503,9.503 0 0 0 2.26135,-2.50626 8.798,8.798 0 0 0 1.18324,-3.067 4.68669,4.68669 0 0 0 -0.14145,-2.50643 5.69182,5.69182 0 0 0 -1.22147,-1.93277 10.74165,10.74165 0 0 0 -1.95742,-1.59761 q -1.14119,-0.73209 -2.3034,-1.53283 c -0.77035,-0.53086 -1.52349,-1.10048 -2.25179,-1.70754 a 8.95763,8.95763 0 0 1 -1.85037,-2.109 8.36973,8.36973 0 0 1 -1.08766,-2.74593 9.35562,9.35562 0 0 1 0.0401,-3.62487 13.34643,13.34643 0 0 1 1.83317,-4.72536 15.14815,15.14815 0 0 1 3.46752,-3.86571 16.58366,16.58366 0 0 1 4.81325,-2.61905 17.54939,17.54939 0 0 1 5.86651,-0.95665 14.83835,14.83835 0 0 1 2.82907,0.25628 16.24427,16.24427 0 0 1 2.35693,0.62149 9.33741,9.33741 0 0 1 1.73949,0.79872 3.84184,3.84184 0 0 1 0.94048,0.7185 1.503,1.503 0 0 1 0.302,0.59161 1.87369,1.87369 0 0 1 -0.01,0.7497 z"
       fill="#1e2881"
       id="path189" />
    <path
       d="m 289.31211,7 h 83.60755 a 8.1958,8.1958 0 0 1 8.1958,8.1958 V 98.8042 A 8.1958,8.1958 0 0 1 372.91966,107 h -83.6084 a 8.1958,8.1958 0 0 1 -8.1958,-8.1958 V 15.19668 A 8.19665,8.19665 0 0 1 289.31211,7 Z"
       fill="#ff0000"
       id="path191" />
    <path
       d="M 291.06056,23.33877 V 54.596 h 16.28419 c 7.98438,0 9.71493,-10.714 5.68267,-15.95683 l 0.35463,-0.30007 a 10.187,10.187 0 0 0 1.77658,-5.9299 10.04178,10.04178 0 0 0 -1.7493,-5.92818 7.54958,7.54958 0 0 0 -6.06458,-3.14227 h -16.28419 z m 5.68267,5.68267 h 9.78143 c 3.54975,0 3.58385,7.23931 0,7.23931 h -5.3826 v 4.583 h 5.3826 c 3.54975,0 3.48837,8.06963 0,8.06963 h -9.78143 z"
       fill="#ffffff"
       id="path193" />
    <polygon
       points="323.815,49.259 330.186,33.066 338.657,54.596 344.776,54.596 332.536,23.311 328,23.311 315.65,54.596 332.3,54.596 332.3,49.259 "
       fill="#ffffff"
       id="polygon195" />
    <polygon
       points="323.569,85.995 329.941,69.801 338.411,91.331 344.53,91.331 332.29,60.047 327.755,60.047 315.404,91.331 332.055,91.331 332.055,85.995 "
       fill="#ffffff"
       id="polygon197" />
    <rect
       x="346.63412"
       y="60.060452"
       width="5.6826701"
       height="31.25725"
       fill="#ffffff"
       id="rect199" />
    <polygon
       points="370.678,54.596 364.995,54.596 352.317,35.633 352.317,54.596 346.634,54.596 346.634,23.339 352.317,23.339 364.995,41.309 364.995,23.339 370.678,23.339 "
       fill="#ffffff"
       id="polygon201" />
    <path
       d="M 291.30608,60.06045 V 91.345 h 13.49655 c 16.57915,0 16.51436,-31.28453 0,-31.28453 h -13.49655 z m 5.68267,5.68268 h 7.81388 c 8.8812,0 9.00055,19.91918 0,19.91918 h -7.81388 z"
       fill="#ffffff"
       id="path203" />
  </g>
  <metadata
     id="metadata1025">
    <rdf:RDF>
      <cc:Work
         rdf:about="">
        <dc:title>logo</dc:title>
      </cc:Work>
    </rdf:RDF>
  </metadata>
</svg>
