<?xml version="1.0" encoding="UTF-8" standalone="no"?>
<svg
   viewBox="0 0 514.0105 78.57"
   version="1.1"
   id="svg84"
   sodipodi:docname="supervision.svg"
   width="514.0105"
   height="78.57"
   inkscape:version="1.1 (c68e22c387, 2021-05-23)"
   xmlns:inkscape="http://www.inkscape.org/namespaces/inkscape"
   xmlns:sodipodi="http://sodipodi.sourceforge.net/DTD/sodipodi-0.dtd"
   xmlns="http://www.w3.org/2000/svg"
   xmlns:svg="http://www.w3.org/2000/svg">
  <defs
     id="defs88" />
  <sodipodi:namedview
     id="namedview86"
     pagecolor="#ffffff"
     bordercolor="#666666"
     borderopacity="1.0"
     inkscape:pageshadow="2"
     inkscape:pageopacity="0.0"
     inkscape:pagecheckerboard="0"
     showgrid="false"
     fit-margin-top="0"
     fit-margin-left="0"
     fit-margin-right="0"
     fit-margin-bottom="0"
     inkscape:zoom="0.78700985"
     inkscape:cx="257.30301"
     inkscape:cy="39.389596"
     inkscape:window-width="1920"
     inkscape:window-height="1138"
     inkscape:window-x="-8"
     inkscape:window-y="-8"
     inkscape:window-maximized="1"
     inkscape:current-layer="svg84" />
  <g
     id="g947"
     transform="translate(-242.98952,-17.69)">
    <g
       id="Layer_2"
       data-name="Layer 2">
      <rect
         x="260.91"
         y="35.68"
         width="37.889999"
         height="41.049999"
         fill="#ffffff"
         stroke="#ffffff"
         stroke-linecap="round"
         stroke-linejoin="round"
         stroke-width="7"
         id="rect2" />
      <rect
         x="406.48001"
         y="56.200001"
         width="31.969999"
         height="23.85"
         fill="#ffffff"
         stroke="#ffffff"
         stroke-linecap="round"
         stroke-linejoin="round"
         stroke-width="7"
         id="rect4" />
      <rect
         x="547.73999"
         y="32.310001"
         width="59.48"
         height="47.740002"
         fill="#ffffff"
         stroke="#ffffff"
         stroke-linecap="round"
         stroke-linejoin="round"
         stroke-width="7"
         id="rect6" />
    </g>
    <g
       id="Layer_1"
       data-name="Layer 1">
      <path
         d="m 740.19,92.75 a 3.49,3.49 0 0 1 -2.73,-1.31 L 709.93,57.05 v 32.2 a 3.5,3.5 0 0 1 -3.5,3.5 h -13.08 a 3.5,3.5 0 0 1 -3.5,-3.5 v -64.5 a 3.5,3.5 0 0 1 3.5,-3.5 h 9.81 a 3.5,3.5 0 0 1 2.76,1.34 l 27.51,35.24 V 24.75 a 3.5,3.5 0 0 1 3.5,-3.5 H 750 a 3.5,3.5 0 0 1 3.5,3.5 v 64.5 a 3.5,3.5 0 0 1 -3.5,3.5 z"
         fill="#ffffff"
         id="path9" />
      <path
         d="m 750,24.75 v 64.5 h -9.81 L 706.43,47.07 v 42.18 h -13.08 v -64.5 h 9.81 L 736.93,68 V 24.75 H 750 m 0,-7 h -13.07 a 7,7 0 0 0 -7,7 V 47.66 L 708.68,20.44 a 7,7 0 0 0 -5.52,-2.69 h -9.81 a 7,7 0 0 0 -7,7 v 64.5 a 7,7 0 0 0 7,7 h 13.08 a 7,7 0 0 0 7,-7 V 67 l 21.29,26.61 a 7,7 0 0 0 5.47,2.62 H 750 a 7,7 0 0 0 7,-7 V 24.75 a 7,7 0 0 0 -7,-7 z"
         fill="#ffffff"
         id="path11" />
      <path
         d="m 633.15,92.47 a 3.51,3.51 0 0 1 -3.1,-5.13 l 23.44,-44.81 a 3.5,3.5 0 0 1 6.2,0 l 23.44,44.81 a 3.5,3.5 0 0 1 -3.1,5.13 z"
         fill="#ffffff"
         id="path13" />
      <path
         d="M 656.59,44.15 680,89 h -46.85 l 23.44,-44.82 m 0,-7 v 0 a 7,7 0 0 0 -6.2,3.76 L 627,85.72 A 7,7 0 0 0 633.15,96 H 680 a 7,7 0 0 0 6.2,-10.25 L 662.79,40.91 a 7,7 0 0 0 -6.2,-3.76 z"
         fill="#ffffff"
         id="path15" />
      <path
         d="m 631.42,85.35 a 3.47,3.47 0 0 1 -2.79,-1.4 40.49,40.49 0 0 1 -8,-24.22 c 0,-21.22 16,-38.48 35.64,-38.48 a 34.15,34.15 0 0 1 25.3,11.37 39.89,39.89 0 0 1 10.43,27.11 40.07,40.07 0 0 1 -7.59,23.75 3.49,3.49 0 0 1 -2.83,1.44 h -0.25 A 3.51,3.51 0 0 1 678.43,83 l -8.27,-15.82 a 3.52,3.52 0 0 1 -0.25,-2.66 19.8,19.8 0 0 0 0.88,-5.93 c 0,-9.52 -6.49,-17.27 -14.47,-17.27 -7.98,0 -14.48,7.75 -14.48,17.27 a 20,20 0 0 0 1.06,6.48 3.54,3.54 0 0 1 -0.21,2.76 l -8.16,15.6 a 3.5,3.5 0 0 1 -2.82,1.87 z"
         fill="#ffffff"
         id="path17" />
      <path
         d="m 656.32,24.75 c 17.74,0 32.13,15.66 32.13,35 a 36.85,36.85 0 0 1 -6.92,21.69 L 673.26,65.6 a 23.74,23.74 0 0 0 1,-7 c 0,-11.47 -8,-20.77 -18,-20.77 -10,0 -18,9.3 -18,20.77 a 23.4,23.4 0 0 0 1.25,7.61 l -8.17,15.61 A 36.83,36.83 0 0 1 624.1,59.69 v 0 c 0,-19.31 14.39,-35 32.14,-35 m 0,-7 c -21.58,0 -39.14,18.83 -39.14,42 a 44,44 0 0 0 8.65,26.33 7,7 0 0 0 5.59,2.8 h 0.57 a 7,7 0 0 0 5.64,-3.74 l 8.16,-15.6 a 7,7 0 0 0 0.42,-5.51 16.71,16.71 0 0 1 -0.87,-5.35 c 0,-7.59 4.93,-13.77 11,-13.77 6.07,0 11,6.18 11,13.77 a 16.55,16.55 0 0 1 -0.72,4.9 7,7 0 0 0 0.48,5.31 l 8.28,15.82 a 7,7 0 0 0 5.7,3.75 h 0.51 a 7,7 0 0 0 5.67,-2.89 43.55,43.55 0 0 0 8.25,-25.8 A 43.33,43.33 0 0 0 684.17,30.24 37.57,37.57 0 0 0 656.3,17.73 Z"
         fill="#ffffff"
         id="path19" />
      <rect
         x="601.62"
         y="21.25"
         width="20.07"
         height="71.489998"
         rx="3.5"
         fill="#ffffff"
         id="rect21" />
      <path
         d="M 618.19,24.75 V 89.24 H 605.12 V 24.75 h 13.07 m 0,-7 h -13.07 a 7,7 0 0 0 -7,7 v 64.49 a 7,7 0 0 0 7,7 h 13.07 a 7,7 0 0 0 7,-7 V 24.75 a 7,7 0 0 0 -7,-7 z"
         fill="#ffffff"
         id="path23" />
      <path
         d="m 271.61,92.74 c -9.31,0 -18.44,-4.83 -24.42,-12.92 a 3.49,3.49 0 0 1 0.31,-4.53 l 7.63,-7.76 a 3.46,3.46 0 0 1 2.49,-1 H 258 a 3.52,3.52 0 0 1 2.59,1.58 c 3,4.58 7.52,6.63 10.69,6.63 3.66,0 4.09,-2.42 4.09,-4.24 0,-2.38 -2.79,-3.76 -8.72,-6.13 -7.79,-3.13 -18.45,-7.4 -18.45,-20.87 0,-13.19 8.35,-21.48 22.35,-22.19 h 1.06 a 28.86,28.86 0 0 1 18.82,7.64 3.5,3.5 0 0 1 0.32,4.78 l -6.42,7.85 a 3.51,3.51 0 0 1 -2.44,1.28 h -0.27 a 3.51,3.51 0 0 1 -2.34,-0.9 c -3.1,-2.78 -5.67,-3.36 -7.29,-3.36 -2.34,0 -3.82,1.23 -4,2.39 -0.29,1.62 1.69,3.49 5.05,4.75 9,3.39 21.34,8 21.34,23.74 0,7.1 -2.38,13.1 -6.88,17.34 a 22.87,22.87 0 0 1 -15.83,6 z"
         fill="#ffffff"
         id="path25" />
      <path
         d="m 271.58,24.75 a 25.54,25.54 0 0 1 16.42,6.7 l -6.42,7.86 c -3.41,-3.06 -6.78,-4.26 -9.63,-4.26 -8,0 -11.85,9.54 -0.22,13.91 10.72,4 19.08,8.1 19.08,20.47 0,13 -9,19.81 -19.21,19.81 -7.6,0 -15.88,-3.76 -21.61,-11.5 L 257.62,70 c 3.49,5.34 9.07,8.22 13.63,8.22 4.23,0 7.59,-2.47 7.59,-7.74 0,-11.54 -27.17,-7.38 -27.17,-27 0,-11.91 7.58,-18.11 19,-18.69 0.29,0 0.58,0 0.88,0 m 0,-7 v 0 q -0.61,0 -1.23,0 c -15.84,0.79 -25.68,10.64 -25.68,25.68 0,10.27 5.43,16.06 11.36,19.7 a 7.05,7.05 0 0 0 -3.4,1.91 l -7.6,7.75 a 7,7 0 0 0 -0.64,9.07 c 6.65,9 16.83,14.34 27.24,14.34 a 26.32,26.32 0 0 0 18.23,-6.93 c 5.22,-4.91 8,-11.79 8,-19.88 0,-12.94 -7.23,-19.37 -14.79,-23.27 a 7,7 0 0 0 4,-2.42 l 6.42,-7.86 a 7,7 0 0 0 -0.65,-9.55 32.43,32.43 0 0 0 -21.2,-8.58 z m -0.33,53.45 c -2,0 -4.93,-1.4 -7.07,-4.08 l 1.14,0.45 c 2.23,0.9 5.53,2.22 6.51,3.15 a 3,3 0 0 1 -0.05,0.43 2.3,2.3 0 0 1 -0.53,0 z"
         fill="#ffffff"
         id="path27" />
      <rect
         x="535.16998"
         y="21.25"
         width="20.07"
         height="71.489998"
         rx="3.5"
         fill="#ffffff"
         id="rect29" />
      <path
         d="M 551.74,24.75 V 89.24 H 538.67 V 24.75 h 13.07 m 0,-7 h -13.07 a 7,7 0 0 0 -7,7 v 64.49 a 7,7 0 0 0 7,7 h 13.07 a 7,7 0 0 0 7,-7 V 24.75 a 7,7 0 0 0 -7,-7 z"
         fill="#ffffff"
         id="path31" />
      <path
         d="m 503.81,92.74 a 3.5,3.5 0 0 1 -3.26,-2.23 L 475.5,26 a 3.49,3.49 0 0 1 3.26,-4.76 h 14.16 a 3.49,3.49 0 0 1 3.3,2.33 L 507.62,55.72 519,23.58 a 3.5,3.5 0 0 1 3.3,-2.33 h 14.16 a 3.49,3.49 0 0 1 3.29,4.75 l -25,64.5 a 3.5,3.5 0 0 1 -3.26,2.23 z"
         fill="#ffffff"
         id="path33" />
      <path
         d="m 536.49,24.75 v 0 m 0,0 -25.05,64.49 h -7.63 L 478.76,24.75 h 14.16 l 14.7,41.45 14.71,-41.45 h 14.16 m 0,-7 h -14.16 a 7,7 0 0 0 -6.6,4.66 l -8.1,22.85 -8.11,-22.85 a 7,7 0 0 0 -6.6,-4.66 h -14.16 a 7,7 0 0 0 -6.52,9.53 l 25.05,64.49 a 7,7 0 0 0 6.52,4.47 h 7.63 A 7,7 0 0 0 518,91.77 l 25,-64.28 a 7,7 0 0 0 -6.43,-9.74 z m 0,14 z"
         fill="#ffffff"
         id="path35" />
      <path
         d="m 466.78,92.74 a 3.5,3.5 0 0 1 -3,-1.74 L 455,76 v 13.24 a 3.5,3.5 0 0 1 -3.5,3.5 h -13.05 a 3.5,3.5 0 0 1 -3.5,-3.5 V 24.75 a 3.5,3.5 0 0 1 3.5,-3.5 h 21.32 c 9.41,0 19,7.77 21,17 a 38.75,38.75 0 0 1 0.85,6.76 39,39 0 0 1 -0.82,6.77 21.91,21.91 0 0 1 -10,14 L 486,87.22 a 3.5,3.5 0 0 1 -2.86,5.52 z m -10.9,-42 a 6.32,6.32 0 0 0 6.3,-6.34 c 0,-3.87 -3.39,-5.24 -6.3,-5.24 H 455 v 11.6 z"
         fill="#ffffff"
         id="path37" />
      <path
         d="m 459.77,24.75 c 7.68,0 16,6.63 17.6,14.2 a 33.26,33.26 0 0 1 0.78,6 37.24,37.24 0 0 1 -0.75,6.09 18.55,18.55 0 0 1 -11.87,13.33 l 17.59,24.85 h -16.34 l -14,-24 h -1.25 v 24 H 438.45 V 24.75 h 21.32 m -8.25,29.51 h 4.36 a 9.82,9.82 0 0 0 9.8,-9.84 c 0,-5.43 -4.38,-8.74 -9.8,-8.74 h -4.36 v 18.58 m 8.25,-36.51 h -21.32 a 7,7 0 0 0 -7,7 v 64.49 a 7,7 0 0 0 7,7 h 13.07 a 7,7 0 0 0 7,-7 V 89 l 2.21,3.78 a 7,7 0 0 0 6,3.48 h 16.34 a 7,7 0 0 0 5.71,-11 l -13.14,-18.7 a 25.14,25.14 0 0 0 8.62,-14.14 41.77,41.77 0 0 0 0.89,-7.45 40.5,40.5 0 0 0 -0.94,-7.51 c -2.3,-10.68 -13.5,-19.71 -24.44,-19.71 z m -1.25,27.62 v -1.66 a 1.43,1.43 0 0 1 0.16,0.71 2.71,2.71 0 0 1 -0.16,0.95 z"
         fill="#ffffff"
         id="path39" />
      <path
         d="m 397.06,92.74 a 3.5,3.5 0 0 1 -3.5,-3.5 V 24.75 a 3.49,3.49 0 0 1 3.5,-3.5 h 32.68 a 3.5,3.5 0 0 1 3.5,3.5 v 10.93 a 3.5,3.5 0 0 1 -3.5,3.5 h -16.11 v 7.21 h 16.11 a 3.5,3.5 0 0 1 3.5,3.5 v 10.93 a 3.5,3.5 0 0 1 -3.5,3.5 h -16.11 v 10.49 h 17.2 a 3.5,3.5 0 0 1 3.5,3.5 v 10.93 a 3.5,3.5 0 0 1 -3.5,3.5 z"
         fill="#ffffff"
         id="path41" />
      <path
         d="m 429.74,24.75 v 10.93 h -19.61 v 14.21 h 19.61 v 10.93 h -19.61 v 17.49 h 20.7 V 89.24 H 397.06 V 24.75 h 32.68 m 0,-7 h -32.68 a 7,7 0 0 0 -7,7 v 64.49 a 7,7 0 0 0 7,7 h 33.77 a 7,7 0 0 0 7,-7 V 78.31 a 7,7 0 0 0 -7,-7 h -13.7 v -3.49 h 12.61 a 7,7 0 0 0 7,-7 V 49.89 a 7,7 0 0 0 -7,-7 h -12.61 v -0.21 h 12.61 a 7,7 0 0 0 7,-7 V 24.75 a 7,7 0 0 0 -7,-7 z"
         fill="#ffffff"
         id="path43" />
      <path
         d="m 352.4,92.74 a 3.5,3.5 0 0 1 -3.5,-3.5 V 24.75 a 3.49,3.49 0 0 1 3.5,-3.5 h 21.31 c 9.42,0 19.05,7.77 21,17 a 37.28,37.28 0 0 1 0.89,6.75 39.84,39.84 0 0 1 -0.83,6.78 c -1.84,9.33 -10.8,16.94 -20,16.94 H 369 v 20.52 a 3.5,3.5 0 0 1 -3.5,3.5 z m 17.42,-42 a 6.33,6.33 0 0 0 6.31,-6.34 c 0,-3.87 -3.4,-5.24 -6.31,-5.24 H 369 v 11.6 z"
         fill="#ffffff"
         id="path45" />
      <path
         d="m 373.71,24.75 c 7.69,0 16,6.63 17.61,14.2 a 34.19,34.19 0 0 1 0.78,6 37,37 0 0 1 -0.76,6.09 c -1.49,7.54 -8.88,14.13 -16.54,14.13 h -9.33 v 24 H 352.4 V 24.75 h 21.31 m -8.24,29.51 h 4.35 a 9.83,9.83 0 0 0 9.81,-9.84 c 0,-5.43 -4.39,-8.74 -9.81,-8.74 h -4.35 v 18.58 m 8.24,-36.51 H 352.4 a 7,7 0 0 0 -7,7 v 64.49 a 7,7 0 0 0 7,7 h 13.07 a 7,7 0 0 0 7,-7 v -17 h 2.33 c 10.76,0 21.26,-8.87 23.41,-19.78 A 42,42 0 0 0 399.1,45 40.5,40.5 0 0 0 398.16,37.49 c -2.3,-10.68 -13.5,-19.71 -24.45,-19.71 z m -1.24,27.62 v -1.66 a 1.55,1.55 0 0 1 0.16,0.71 3,3 0 0 1 -0.16,0.95 z"
         fill="#ffffff"
         id="path47" />
      <path
         d="m 579.74,92.74 c -9.31,0 -18.44,-4.83 -24.42,-12.92 a 3.48,3.48 0 0 1 0.31,-4.53 l 7.62,-7.76 a 3.5,3.5 0 0 1 2.5,-1 h 0.35 a 3.52,3.52 0 0 1 2.58,1.58 c 3,4.58 7.53,6.63 10.7,6.63 3.66,0 4.09,-2.42 4.09,-4.24 0,-2.38 -2.8,-3.76 -8.72,-6.13 -7.79,-3.13 -18.46,-7.4 -18.46,-20.87 0,-13.19 8.36,-21.48 22.36,-22.19 0.35,0 0.7,0 1.06,0 a 28.83,28.83 0 0 1 18.82,7.64 3.49,3.49 0 0 1 0.32,4.77 l -6.42,7.86 A 3.55,3.55 0 0 1 590,42.8 h -0.27 a 3.49,3.49 0 0 1 -2.34,-0.9 c -3.1,-2.78 -5.68,-3.37 -7.29,-3.37 -2.34,0 -3.82,1.24 -4,2.4 -0.3,1.62 1.68,3.49 5,4.75 9,3.39 21.35,8 21.35,23.74 0,7.1 -2.38,13.1 -6.88,17.34 a 22.87,22.87 0 0 1 -15.83,6 z"
         fill="#ffffff"
         id="path49" />
      <path
         d="m 579.71,24.75 a 25.59,25.59 0 0 1 16.43,6.7 l -6.42,7.86 c -3.41,-3.06 -6.79,-4.27 -9.63,-4.27 -8,0 -11.85,9.55 -0.22,13.92 10.72,4.04 19.13,8.1 19.13,20.47 0,13 -9,19.81 -19.21,19.81 -7.61,0 -15.88,-3.76 -21.61,-11.5 L 565.75,70 c 3.49,5.34 9.07,8.22 13.63,8.22 4.23,0 7.59,-2.47 7.59,-7.74 0,-11.54 -27.18,-7.38 -27.18,-27 0,-11.91 7.59,-18.12 19,-18.69 0.29,0 0.58,0 0.88,0 m 0,-7 v 0 q -0.62,0 -1.23,0 c -15.84,0.79 -25.69,10.64 -25.69,25.68 0,10.27 5.44,16.06 11.37,19.7 a 7.05,7.05 0 0 0 -3.4,1.91 l -7.63,7.76 a 7,7 0 0 0 -0.63,9.07 c 6.65,9 16.83,14.34 27.24,14.34 A 26.34,26.34 0 0 0 598,89.31 c 5.22,-4.91 8,-11.79 8,-19.88 0,-12.94 -7.23,-19.37 -14.79,-23.27 a 7.07,7.07 0 0 0 4,-2.42 l 6.42,-7.86 a 7,7 0 0 0 -0.65,-9.56 32.47,32.47 0 0 0 -21.2,-8.57 z m -0.33,53.45 c -2,0 -4.93,-1.4 -7.07,-4.08 l 1.14,0.45 c 2.22,0.9 5.52,2.22 6.51,3.15 a 3,3 0 0 1 -0.05,0.43 2.3,2.3 0 0 1 -0.53,0 z"
         fill="#ffffff"
         id="path51" />
      <path
         d="m 320.05,92.74 a 27.83,27.83 0 0 1 -27.8,-27.8 V 24.75 a 3.5,3.5 0 0 1 3.5,-3.5 h 13.07 a 3.49,3.49 0 0 1 3.5,3.5 v 41.69 a 7.72,7.72 0 1 0 15.44,0 V 24.75 a 3.5,3.5 0 0 1 3.5,-3.5 h 13.09 a 3.5,3.5 0 0 1 3.5,3.5 v 40.19 a 27.83,27.83 0 0 1 -27.8,27.8 z"
         fill="#ffffff"
         id="path53" />
      <path
         d="m 344.35,24.75 v 40.19 a 24.3,24.3 0 0 1 -48.6,0 V 24.75 h 13.07 v 41.69 a 11.22,11.22 0 1 0 22.44,0 V 24.75 h 13.09 m 0,-7 h -13.09 a 7,7 0 0 0 -7,7 v 41.69 a 4.22,4.22 0 1 1 -8.44,0 V 24.75 a 7,7 0 0 0 -7,-7 h -13.07 a 7,7 0 0 0 -7,7 v 40.19 a 31.3,31.3 0 0 0 62.6,0 V 24.75 a 7,7 0 0 0 -7,-7 z"
         fill="#ffffff"
         id="path55" />
      <path
         d="m 693.35,89.25 h 13.08 V 47.07 l 33.76,42.18 H 750 V 24.75 H 736.93 V 68 L 703.16,24.75 h -9.81 z"
         fill="#010101"
         id="path57" />
      <text
         transform="translate(647.97,83.37)"
         font-size="1.86px"
         fill="#ed1c24"
         font-family="ArialMT, Arial"
         style="isolation:isolate"
         id="text59">I don’t like bugs!</text>
      <path
         d="M 656.59,44.15 680,89 h -46.85 z"
         fill="#ed2224"
         id="path61" />
      <path
         d="m 624.18,59.73 a 36.82,36.82 0 0 0 7.24,22.12 l 8.17,-15.61 a 23.4,23.4 0 0 1 -1.25,-7.61 c 0,-11.47 8,-20.77 18,-20.77 10,0 18,9.3 18,20.77 a 23.74,23.74 0 0 1 -1,7 l 8.27,15.82 a 36.85,36.85 0 0 0 6.92,-21.69 c 0,-19.32 -14.39,-35 -32.13,-35 -17.74,0 -32.14,15.66 -32.14,35 z"
         fill="#010101"
         id="path63" />
      <path
         d="m 605.12,24.75 h 13.07 v 64.49 h -13.07 z"
         fill="#010101"
         id="path65" />
      <path
         d="M 257.62,70 250,77.74 c 13.43,18.13 40.82,14.42 40.82,-8.31 0,-12.37 -8.36,-16.44 -19.08,-20.47 C 256,43 268.58,27.62 281.59,39.31 L 288,31.45 c -4.36,-4.06 -11.19,-7 -17.31,-6.68 -11.45,0.57 -19,6.78 -19,18.69 0,19.62 27.17,15.46 27.17,27 -0.02,10.94 -14.52,9.82 -21.24,-0.46 z"
         fill="#010101"
         id="path67" />
      <path
         d="m 538.67,24.75 h 13.07 v 64.49 h -13.07 z"
         fill="#010101"
         id="path69" />
      <path
         d="M 536.49,24.75 H 522.33 L 507.62,66.2 492.92,24.75 h -14.16 l 25.05,64.49 h 7.63 z"
         fill="#010101"
         id="path71" />
      <path
         d="m 465.53,64.39 a 18.55,18.55 0 0 0 11.87,-13.33 37.24,37.24 0 0 0 0.75,-6.09 33.26,33.26 0 0 0 -0.78,-6 c -1.63,-7.57 -9.92,-14.2 -17.6,-14.2 h -21.32 v 64.47 h 13.07 v -24 h 1.25 l 14,24 h 16.34 z m -9.65,-10.13 h -4.36 V 35.68 h 4.36 c 5.42,0 9.8,3.31 9.8,8.74 a 9.82,9.82 0 0 1 -9.8,9.84 z"
         fill="#010101"
         id="path73" />
      <path
         d="m 397.06,24.75 v 64.49 h 33.77 V 78.31 h -20.7 V 60.82 h 19.61 V 49.89 H 410.13 V 35.68 h 19.61 V 24.75 Z"
         fill="#010101"
         id="path75" />
      <path
         d="m 352.4,24.75 v 64.49 h 13.07 v -24 h 9.33 c 7.66,0 15.05,-6.59 16.54,-14.13 A 37,37 0 0 0 392.1,45 34.19,34.19 0 0 0 391.32,39 C 389.69,31.43 381.4,24.8 373.71,24.8 Z m 13.07,29.51 V 35.68 h 4.35 c 5.42,0 9.81,3.31 9.81,8.74 a 9.83,9.83 0 0 1 -9.81,9.84 z"
         fill="#010101"
         id="path77" />
      <path
         d="m 565.75,70 -7.62,7.76 C 571.55,95.87 599,92.16 599,69.43 599,57.06 590.59,53 579.87,49 c -15.76,-5.92 -3.16,-21.34 9.85,-9.65 l 6.42,-7.86 c -4.37,-4.07 -11.19,-7 -17.31,-6.68 -11.45,0.57 -19,6.78 -19,18.69 0,19.62 27.18,15.46 27.18,27 C 587,81.4 572.47,80.28 565.75,70 Z"
         fill="#010101"
         id="path79" />
      <path
         d="m 331.26,24.75 v 41.69 a 11.22,11.22 0 1 1 -22.44,0 V 24.75 h -13.07 v 40.19 a 24.3,24.3 0 0 0 48.6,0 V 24.75 Z"
         fill="#010101"
         id="path81" />
    </g>
  </g>
</svg>
