<?xml version="1.0" encoding="UTF-8" standalone="no"?>
<svg
   viewBox="0 0 273.76633 114.00117"
   version="1.1"
   id="svg156"
   sodipodi:docname="supergrafx.svg"
   width="273.76633"
   height="114.00117"
   inkscape:version="1.1 (c68e22c387, 2021-05-23)"
   xmlns:inkscape="http://www.inkscape.org/namespaces/inkscape"
   xmlns:sodipodi="http://sodipodi.sourceforge.net/DTD/sodipodi-0.dtd"
   xmlns="http://www.w3.org/2000/svg"
   xmlns:svg="http://www.w3.org/2000/svg"
   xmlns:rdf="http://www.w3.org/1999/02/22-rdf-syntax-ns#"
   xmlns:cc="http://creativecommons.org/ns#"
   xmlns:dc="http://purl.org/dc/elements/1.1/">
  <defs
     id="defs160" />
  <sodipodi:namedview
     id="namedview158"
     pagecolor="#ffffff"
     bordercolor="#666666"
     borderopacity="1.0"
     inkscape:pageshadow="2"
     inkscape:pageopacity="0.0"
     inkscape:pagecheckerboard="0"
     showgrid="false"
     fit-margin-top="0"
     fit-margin-left="0"
     fit-margin-right="0"
     fit-margin-bottom="0"
     inkscape:zoom="1.113"
     inkscape:cx="137.01707"
     inkscape:cy="56.603774"
     inkscape:window-width="1920"
     inkscape:window-height="1138"
     inkscape:window-x="-8"
     inkscape:window-y="-8"
     inkscape:window-maximized="1"
     inkscape:current-layer="svg156" />
  <title
     id="title2">logo</title>
  <g
     id="g1056"
     transform="translate(-363.11672)">
    <g
       id="Layer_2"
       data-name="Layer 2">
      <rect
         x="459.6832"
         y="65.811401"
         width="22.16667"
         height="18.79641"
         fill="#ffffff"
         id="rect4" />
      <rect
         x="532.68323"
         y="45.420139"
         width="24.03912"
         height="43.687672"
         fill="#ffffff"
         id="rect6" />
      <rect
         x="573.09247"
         y="50.941139"
         width="16.99831"
         height="16.99831"
         fill="#ffffff"
         id="rect8" />
    </g>
    <g
       id="Calque_1"
       data-name="Calque 1">
      <path
         d="m 435.5328,52.22369 a 4.06087,4.06087 0 0 1 -3.00537,-1.374 c -0.0508,-0.04687 -0.10009,-0.0957 -0.14795,-0.14551 -1.21289,-1.26269 -2.43945,-2.51562 -3.666,-3.76953 -1.79443,-1.833 -3.6499,-3.72851 -5.4458,-5.6416 a 3.49866,3.49866 0 0 1 -0.94873,-2.36133 c -0.04,-4.13769 -0.0425,-8.27539 -0.0449,-12.415 q -0.002,-4.262 -0.0171,-8.52539 a 3.49779,3.49779 0 0 1 0.87109,-2.32763 l 9.36035,-10.64991 a 3.50083,3.50083 0 0 1 2.6211,-1.18945 l 19.17578,-0.04395 a 3.50027,3.50027 0 0 1 2.60547,1.16309 l 9.19531,10.252 a 3.5004,3.5004 0 0 1 0.89453,2.34473 q -0.007,3.238 0.004,6.4751 0.007,2.93115 0.006,5.86181 a 3.50018,3.50018 0 0 1 -3.49463,3.49512 l -1.30713,0.002 q -5.90625,0.0088 -11.8125,0.0254 h -0.0117 a 3.50089,3.50089 0 0 1 -3.5,-3.49219 c 0,0 -0.008,-4.77637 -0.009,-5.38574 0,0 -2.55713,0.0049 -3.3877,0.0063 q 0.002,3.82325 0.0132,7.646 a 3.5,3.5 0 0 1 3.1289,3.48047 q 0,2.54149 0.008,5.083 c 0.006,2.665 0.0122,5.33007 0.003,7.99414 a 3.50083,3.50083 0 0 1 -3.5,3.48828 c -0.008,0 -1.18359,-0.0059 -1.76318,-0.0059 l -4.80762,0.01172 z"
         fill="#0093ae"
         id="path11" />
      <path
         d="m 454.28505,7.28033 9.19551,10.25208 c -0.01,4.11371 0.016,8.22754 0.0102,12.33929 q -6.5623,0.01126 -13.12621,0.0282 c -0.007,-2.9649 -0.006,-5.92438 -0.017,-8.88385 -3.28807,0.0023 -6.57556,0.01438 -9.86038,0.01438 l -0.51968,-10e-5 c 10e-4,4.86921 0.002,9.73108 0.0288,14.60029 l 0.12363,-1e-4 c 0.99533,0 1.99116,0.02057 2.99022,0.02408 0,4.35462 0.0259,8.71106 0.0114,13.06549 q -0.8896,-0.0062 -1.779,-0.0057 c -1.607,0 -3.21432,0.01117 -4.823,0.01117 q -0.48357,0 -0.9675,-0.0015 l -0.0186,4.3e-4 c -0.27194,0 -0.43823,-0.28284 -0.62906,-0.44428 -3.01268,-3.138 -6.10783,-6.21148 -9.08555,-9.38269 -0.0671,-6.97027 -0.0278,-13.946 -0.0618,-20.92346 l 9.36008,-10.6499 19.16788,-0.04383 m 7e-5,-7 h -0.0161 l -19.1679,0.04383 a 7.00013,7.00013 0 0 0 -5.24188,2.37887 l -9.36007,10.64988 a 6.99992,6.99992 0 0 0 -1.742,4.65524 q 0.0207,4.25387 0.0171,8.50662 c 0.002,4.0762 0.005,8.2912 0.0449,12.45014 a 7.00019,7.00019 0 0 0 1.89672,4.72424 c 1.81867,1.9368 3.68489,3.84326 5.48968,5.68692 1.221,1.24734 2.44191,2.49438 3.64931,3.752 q 0.10429,0.10863 0.21316,0.21268 a 7.50067,7.50067 0 0 0 5.46546,2.3837 l 0.0684,-3.7e-4 0.91771,0.0015 q 1.21895,0 2.437,-0.0056 1.19326,-0.0042 2.38594,-0.0055 0.86514,0 1.72992,0.0055 l 0.0492,1.8e-4 a 7,7 0 0 0 6.99983,-6.97659 c 0.009,-2.66791 0.003,-5.33664 -0.003,-8.00522 q -0.004,-1.92156 -0.007,-3.843 0.12648,0.0046 0.25364,0.0046 l 0.0238,-6e-5 q 5.54086,-0.01872 11.08367,-0.02475 l 2.03084,-0.0034 a 7,7 0 0 0 6.988,-6.9902 q 0.004,-2.92071 -0.006,-5.84259 -0.007,-3.24491 -0.004,-6.4903 a 7,7 0 0 0 -1.789,-4.69012 L 459.496,2.60638 a 7.00045,7.00045 0 0 0 -5.21091,-2.326 z"
         fill="#ffffff"
         id="path13" />
      <path
         d="m 479.23593,83.09088 a 4.21358,4.21358 0 0 1 -3.11426,-1.40527 L 466.002,71.50494 a 3.50271,3.50271 0 0 1 -1.01757,-2.459 q -0.0469,-19.35645 -0.0728,-38.71 l -0.039,-23.07324 a 3.49925,3.49925 0 0 1 3.49414,-3.50684 L 482.45614,3.732 a 3.5,3.5 0 0 1 3.5,3.49317 l 0.0356,21.1333 q 0.0271,17.15333 0.0645,34.30859 c 0.1709,0.0029 0.34229,0.0059 0.51319,0.0098 a 3.50048,3.50048 0 0 1 3.42187,3.502 q -0.005,6.68262 0.0229,13.35645 a 3.49958,3.49958 0 0 1 -3.42432,3.51074 c -1.35254,0.0293 -2.70556,0.0332 -4.05859,0.0332 0,0 -2.51123,0 -3.05762,0.0029 -0.0859,0.0058 -0.16894,0.0087 -0.23779,0.0087 z"
         fill="#0093ae"
         id="path15" />
      <path
         d="m 482.45633,7.23187 q 0.0563,29.469 0.10864,58.94159 c 0.76373,-0.0056 1.52741,-0.01367 2.29108,-0.01367 0.5451,0 1.09021,0.0041 1.63531,0.01617 q -0.005,6.68913 0.023,13.37055 c -1.33768,0.029 -2.67538,0.03284 -4.01312,0.03284 q -0.71233,0 -1.42456,-4.9e-4 -0.871,0 -1.74207,0.0039 a 0.62963,0.62963 0 0 1 -0.0982,0.0079 0.77629,0.77629 0 0 1 -0.57505,-0.31369 L 468.4844,69.0376 Q 468.409,38.14312 468.37259,7.2561 475.41464,7.24403 482.45633,7.23187 m 2.1e-4,-7 h -0.0124 l -14.0836,0.02423 a 7,7 0 0 0 -6.988,7.01331 q 0.022,11.58379 0.0393,23.16782 0.0308,19.30746 0.0725,38.61746 a 7.00009,7.00009 0 0 0 2.03511,4.91751 L 473.6,84.11453 a 7.66021,7.66021 0 0 0 5.63629,2.47608 q 0.18493,0 0.3706,-0.0091 0.73485,-0.0032 1.46967,-0.0026 l 0.70883,2.4e-4 0.71576,2.5e-4 c 1.24609,0 2.69836,-0.0027 4.165,-0.03452 a 6.99993,6.99993 0 0 0 6.84808,-7.02179 q -0.0224,-6.66879 -0.0229,-13.3417 a 7.00127,7.00127 0 0 0 -3.94195,-6.30378 q -0.0365,-15.739 -0.0574,-31.47741 -0.0167,-10.59109 -0.0357,-21.18164 a 7.00023,7.00023 0 0 0 -6.99974,-6.98664 z"
         fill="#ffffff"
         id="path17" />
      <path
         d="m 490.11337,83.03815 a 3.50019,3.50019 0 0 1 -3.5,-3.49121 l 3.5,-0.0088 -3.5,-0.0039 q -0.0168,-6.665 -0.0195,-13.335 a 3.50076,3.50076 0 0 1 3.46094,-3.498 c 0.0752,-10e-4 0.15039,-10e-4 0.2251,-0.002 -0.0176,-11.75488 -0.0962,-55.481 -0.0962,-55.481 a 3.50009,3.50009 0 0 1 3.49414,-3.50586 l 14.0879,-0.02392 a 3.50008,3.50008 0 0 1 3.5,3.49609 q 0.0125,11.55249 0.041,23.10547 0.041,19.3667 0.0449,38.73047 a 3.49785,3.49785 0 0 1 -0.95654,2.40137 c -2.00879,2.125 -4.08594,4.22851 -6.09424,6.26171 -1.40234,1.41993 -2.8042,2.83887 -4.19043,4.27247 a 3.50218,3.50218 0 0 1 -2.49951,1.06738 q -2.71,0.01319 -5.41357,0.01172 z"
         fill="#0093ae"
         id="path19" />
      <path
         d="m 507.76565,7.18842 c 0.0226,20.60913 0.10212,41.22387 0.0861,61.82934 -3.36145,3.55536 -6.85711,6.9895 -10.2572,10.50617 -2.49621,0.01159 -4.98492,0.01043 -7.4812,0.01471 q -0.017,-6.66716 -0.0193,-13.33765 c 0.73456,-0.0078 1.47028,-0.0097 2.20664,-0.0097 q 0.74195,0 1.48446,0.0015 -0.0425,-29.491 -0.10138,-58.98016 l 14.08191,-0.02417 m 0,-7 h -0.012 l -12.43383,0.02133 -1.64807,0.00284 a 7,7 0 0 0 -6.988,7.01205 l 0.0349,19.55692 q 0.0301,16.62675 0.0573,33.2543 a 6.999,6.999 0 0 0 -3.68189,6.16 q -0.005,6.68124 0.0194,13.36063 a 7.00032,7.00032 0 0 0 6.99976,6.98212 h 0.0122 l 2.22507,-0.0028 q 2.63805,-0.0028 5.2767,-0.012 a 7,7 0 0 0 4.99991,-2.13427 c 1.37976,-1.4271 2.77558,-2.8403 4.17148,-4.25379 2.01917,-2.04468 4.10709,-4.15893 6.1398,-6.30893 a 7,7 0 0 0 1.91348,-4.80362 c 0.01,-12.92825 -0.0179,-26.07138 -0.045,-38.78173 q -0.0245,-11.5308 -0.0411,-23.06076 a 7.00007,7.00007 0 0 0 -7,-6.99231 z"
         fill="#ffffff"
         id="path21" />
      <path
         d="m 512.46152,83.00006 a 3.49954,3.49954 0 0 1 -3.5,-3.49414 L 508.837,7.18658 a 3.50008,3.50008 0 0 1 3.49366,-3.50585 l 14.08691,-0.02442 a 3.50008,3.50008 0 0 1 3.5,3.49414 l 0.124,72.31934 a 3.50029,3.50029 0 0 1 -3.49316,3.50586 z"
         fill="#0093ae"
         id="path23" />
      <path
         d="m 526.41727,7.15637 q 0.0622,36.16352 0.12426,72.31964 -7.04178,0.01209 -14.08014,0.02423 -0.0622,-36.1635 -0.12432,-72.3197 l 14.0802,-0.02417 m 0,-7 h -0.012 l -14.0802,0.02417 a 7,7 0 0 0 -6.988,7.012 l 0.0621,36.09494 0.0623,36.22476 a 7,7 0 0 0 7,6.988 h 0.012 l 5.03973,-0.0087 9.04035,-0.01557 a 7,7 0 0 0 6.988,-7.012 l -0.0621,-36.15982 -0.0621,-36.15982 a 7,7 0 0 0 -7,-6.988 z"
         fill="#ffffff"
         id="path25" />
      <path
         d="m 530.30429,58.419 a 3.5009,3.5009 0 0 1 -3.5,-3.49414 l 3.5,-0.0059 -3.5,-0.06055 -0.0234,-13.63867 a 3.50092,3.50092 0 0 1 3.49512,-3.50586 l 2.59472,-0.0049 -0.0234,-13.36036 -2.60157,0.0044 a 3.49956,3.49956 0 0 1 -3.5,-3.49414 L 526.72226,7.15581 A 3.50007,3.50007 0 0 1 530.21738,3.65 L 540.2789,3.63633 a 3.50167,3.50167 0 0 1 2.46679,1.0166 q 2.37452,2.35987 4.77149,4.70166 2.76415,2.71143 5.51074,5.43555 a 3.5048,3.5048 0 0 1 1.02832,2.47266 l 0.0479,27.46191 a 3.5,3.5 0 0 1 -1.0205,2.47656 q -2.75391,2.76417 -5.54,5.501 -2.35841,2.33057 -4.708,4.66992 a 3.50459,3.50459 0 0 1 -2.46094,1.02442 c -2.17095,0.0077 -10.06743,0.02239 -10.07036,0.02239 z"
         fill="#0093ae"
         id="path27" />
      <path
         d="m 540.27872,7.13611 c 3.4118,3.38934 6.87335,6.738 10.27777,10.13257 l 0.0472,27.46185 c -3.39276,3.40637 -6.83905,6.76514 -10.24292,10.166 -3.351,0.01312 -6.7038,0.01507 -10.05646,0.0227 q -0.0118,-6.85172 -0.0236,-13.7052 3.04953,-0.0052 6.09528,-0.0105 -0.0175,-10.17938 -0.035,-20.36084 l -6.09533,0.01044 q -0.0117,-6.85455 -0.0235,-13.70337 L 540.2787,7.13609 m 0,-7 h -0.009 l -10.05646,0.01369 a 7,7 0 0 0 -6.99051,7.01193 l 0.0131,7.63556 0.0104,6.06787 a 7.002,7.002 0 0 0 6.10724,6.93164 l 0.0111,6.47751 a 7.00006,7.00006 0 0 0 -6.08334,6.95172 l 0.0236,13.70533 a 7.00006,7.00006 0 0 0 7,6.98791 h 0.016 l 3.38883,-0.0064 q 3.34015,-0.0057 6.67907,-0.0163 a 7,7 0 0 0 4.9202,-2.048 q 2.31093,-2.309 4.63919,-4.60025 2.81629,-2.78215 5.61578,-5.57785 a 7.00023,7.00023 0 0 0 2.04035,-4.95187 l -0.0472,-27.46186 a 7,7 0 0 0 -2.05744,-4.94485 Q 552.75952,9.58012 549.98722,6.87457 547.59432,4.52674 545.2121,2.17 a 7.00012,7.00012 0 0 0 -4.93341,-2.03389 z"
         fill="#ffffff"
         id="path29" />
      <path
         d="m 555.28085,82.92682 a 3.49987,3.49987 0 0 1 -3.5,-3.49414 l -0.124,-72.31983 A 3.50019,3.50019 0 0 1 555.151,3.607 l 31.02441,-0.05322 a 3.49955,3.49955 0 0 1 3.5,3.49414 l 0.0234,13.70313 a 3.50019,3.50019 0 0 1 -3.49414,3.50586 l -13.43652,0.02343 0.0654,37.91309 L 586.276,62.17 a 3.49924,3.49924 0 0 1 3.5,3.49414 l 0.0234,13.70313 a 3.49925,3.49925 0 0 1 -3.49414,3.50586 z"
         fill="#0093ae"
         id="path31" />
      <path
         d="m 586.1752,7.05365 q 0.0117,6.85144 0.0235,13.70337 l -16.93665,0.02911 q 0.0385,22.45176 0.0771,44.913 L 586.27591,65.67 q 0.0118,6.85428 0.0236,13.70337 l -31.01856,0.05329 Q 555.21875,43.26314 555.15658,7.10695 L 586.1752,7.05367 m 0,-7 h -0.012 l -20.0296,0.0344 -10.989,0.01886 a 7.00005,7.00005 0 0 0 -6.988,7.012 l 0.0621,36.09494 0.0623,36.22476 a 7.00031,7.00031 0 0 0 6.99976,6.988 h 0.0123 l 11.25491,-0.01935 19.76364,-0.03394 a 7,7 0 0 0 6.988,-7.01205 l -0.0121,-7.05435 -0.0114,-6.649 A 7.00042,7.00042 0 0 0 586.27612,58.67 h -0.0123 l -9.80255,0.01688 -0.13412,2.1e-4 -0.0184,-10.69269 -0.0347,-20.22027 5.45584,-0.0094 4.48083,-0.0077 a 7,7 0 0 0 6.988,-7.012 l -0.0104,-6.05079 -0.0131,-7.65255 a 7,7 0 0 0 -7,-6.98807 z"
         fill="#ffffff"
         id="path33" />
      <path
         d="m 591.05624,82.8653 a 3.49987,3.49987 0 0 1 -3.5,-3.49415 l -0.124,-72.31982 a 3.50018,3.50018 0 0 1 3.49414,-3.50586 l 14.0918,-0.02441 a 3.50006,3.50006 0 0 1 3.5,3.49414 l 0.124,72.31982 a 3.49925,3.49925 0 0 1 -3.49414,3.50586 z"
         fill="#0093ae"
         id="path35" />
      <path
         d="m 605.01785,7.02124 q 0.0621,36.16352 0.12427,72.3197 -7.04462,0.01209 -14.08563,0.02423 -0.0622,-36.16352 -0.12433,-72.3197 7.04745,-0.01209 14.08569,-0.02423 m 0,-7 h -0.0121 L 590.9202,0.04547 a 7.0001,7.0001 0 0 0 -6.988,7.012 l 0.0623,36.21948 0.0621,36.10022 a 7,7 0 0 0 7,6.988 h 0.0121 l 14.08554,-0.02423 a 7.00009,7.00009 0 0 0 6.988,-7.012 l -0.12427,-72.3197 a 7,7 0 0 0 -7,-6.988 z"
         fill="#ffffff"
         id="path37" />
      <path
         d="m 615.61191,82.8233 a 3.4992,3.4992 0 0 1 -3.5,-3.49414 l -0.0439,-25.42676 -3.54785,0.0059 a 3.49924,3.49924 0 0 1 -3.5,-3.49414 L 604.99667,36.711 a 3.49925,3.49925 0 0 1 3.49414,-3.50586 l 3.542,-0.0068 -0.0156,-8.98584 -3.54785,0.0064 a 3.49955,3.49955 0 0 1 -3.5,-3.49414 L 604.9459,7.02106 A 3.50009,3.50009 0 0 1 608.441,3.5152 l 11.00781,-0.01514 a 3.49985,3.49985 0 0 1 2.48926,1.03955 l 10.32617,10.44873 a 3.49955,3.49955 0 0 1 1.01074,2.44824 q 0.0147,4.42383 0.0176,8.84864 0.006,4.05029 0.0156,8.10058 a 3.49493,3.49493 0 0 1 -0.96094,2.41895 l -6.17285,6.50781 q 0.6167,0.6123 1.23242,1.22168 c 1.626,1.61035 3.30762,3.27539 4.93066,4.96875 a 3.49943,3.49943 0 0 1 0.97364,2.39258 c 0.0469,5.59863 0.0508,11.19726 0.0547,16.7959 q 0.003,5.29688 0.0176,10.59375 a 3.5009,3.5009 0 0 1 -3.49316,3.51269 z"
         fill="#0093ae"
         id="path39" />
      <path
         d="m 619.44906,7 10.3263,10.44879 c 0.0188,5.64862 0.0157,11.299 0.0327,16.94757 l -8.51342,8.97547 c 2.8153,2.87017 5.73553,5.65161 8.51611,8.553 0.0763,9.12451 0.0387,18.25085 0.0726,27.37353 l -14.27124,0.02454 q -0.0249,-14.46159 -0.0497,-28.92682 l -7.04187,0.01208 q -0.0117,-6.85172 -0.0236,-13.7033 3.51828,-0.006 7.04193,-0.01215 -0.0138,-7.99291 -0.0275,-15.98615 -3.52634,0.0061 -7.04187,0.01215 -0.0117,-6.85464 -0.0236,-13.70337 L 619.44906,7 m -6e-5,-7 h -0.01 L 608.43616,0.01538 A 7,7 0 0 0 601.446,7.02744 l 10e-4,0.61236 0.0225,13.09094 a 7,7 0 0 0 7,6.988 h 0.012 l 0.0419,-6e-5 0.003,1.98611 -0.0419,10e-5 a 7,7 0 0 0 -6.988,7.012 l 9e-5,0.05853 0.0235,13.64469 a 7,7 0 0 0 7,6.988 h 0.012 l 0.0419,-6e-5 0.0129,7.45233 0.0249,14.47452 a 7.00029,7.00029 0 0 0 6.99979,6.988 h 0.0123 l 14.2712,-0.02454 A 7,7 0 0 0 636.883,79.2723 q -0.0196,-5.26932 -0.0179,-10.53989 c -0.004,-5.52368 -0.008,-11.23541 -0.0549,-16.86612 a 6.99992,6.99992 0 0 0 -1.94589,-4.78485 c -1.25448,-1.309 -2.53351,-2.59176 -3.79431,-3.84418 l 3.8165,-4.02362 a 7,7 0 0 0 1.92123,-4.83844 q -0.0122,-4.05276 -0.0152,-8.10632 -0.006,-4.422 -0.0175,-8.84341 a 7.00013,7.00013 0 0 0 -2.02115,-4.89719 L 624.42789,2.07953 A 7.00021,7.00021 0 0 0 619.449,0 Z"
         fill="#ffffff"
         id="path41" />
      <path
         d="m 573.11581,51.68658 a 3.49922,3.49922 0 0 1 -3.5,-3.49414 l -0.0234,-13.70507 a 3.49986,3.49986 0 0 1 3.49414,-3.50586 l 10.2832,-0.01856 a 3.49987,3.49987 0 0 1 3.5,3.49414 l 0.0234,13.70508 A 3.49925,3.49925 0 0 1 583.399,51.668 Z"
         fill="#0093ae"
         id="path43" />
      <path
         d="m 583.36935,34.46338 q 0.0117,6.85437 0.0236,13.705 -5.13941,0.0089 -10.27691,0.0177 -0.0118,-6.85437 -0.0236,-13.70508 5.13941,-0.0088 10.27691,-0.01764 m 2.8e-4,-7 h -0.0123 l -5.13852,0.0088 -5.1384,0.0088 a 6.99987,6.99987 0 0 0 -6.988,7.012 l 0.0118,6.85248 0.0118,6.8526 a 7,7 0 0 0 6.9999,6.98792 h 0.0122 l 5.13843,-0.0088 5.13852,-0.0089 a 6.99993,6.99993 0 0 0 6.98785,-7.01206 l -0.0236,-13.70492 a 7.00021,7.00021 0 0 0 -6.99969,-6.988 z"
         fill="#ffffff"
         id="path45" />
      <path
         d="m 435.006,83.13385 a 3.49838,3.49838 0 0 1 -2.605,-1.16309 l -9.19727,-10.251 a 3.49748,3.49748 0 0 1 -0.895,-2.34375 q 0.006,-3.08057 -0.005,-6.15918 -0.007,-3.09229 -0.005,-6.1875 a 3.50062,3.50062 0 0 1 3.49707,-3.49317 q 6.55884,-0.0059 13.11719,-0.02246 h 0.0103 a 3.49989,3.49989 0 0 1 3.5,3.48535 c 0.006,1.48438 0.0122,5.08008 0.0127,5.39356 0,0 2.273,-0.0049 3.38134,-0.0068 l -0.02,-10.29687 a 3.50307,3.50307 0 0 1 -2.35743,-3.30567 l -0.008,-4.1123 c -0.007,-2.98731 -0.0151,-5.97559 -0.005,-8.96484 a 3.49917,3.49917 0 0 1 3.5,-3.48829 c 0.007,0 1.48291,0.0039 1.48291,0.0039 l 3.83789,-0.0068 c 0,0 1.48535,0.001 1.52295,0.001 a 3.95885,3.95885 0 0 1 2.84033,1.22852 c 0.0654,0.05761 0.12842,0.11816 0.18945,0.18066 q 2.57667,2.65869 5.16114,5.30567 l 3.80371,3.90722 a 4.08773,4.08773 0 0 1 1.22607,3.18653 c 0,0 0.0283,17.78417 0.0396,22.90722 a 3.49968,3.49968 0 0 1 -0.87109,2.31836 l -9.35791,10.64746 a 3.50124,3.50124 0 0 1 -2.62012,1.18946 z"
         fill="#0093ae"
         id="path47" />
      <path
         d="m 452.23091,35.71481 q 0.74931,0 1.49843,0.0044 a 0.338,0.338 0 0 1 0.0414,-0.0026 c 0.22,0 0.36,0.21909 0.51615,0.34528 q 4.4966,4.63815 9.00611,9.25427 a 0.61443,0.61443 0 0 1 0.19769,0.56586 q 0.0198,11.5307 0.0396,23.05756 l -9.358,10.64782 -19.1662,0.046 -9.19739,-10.25024 c 0.008,-4.11743 -0.0179,-8.22937 -0.0101,-12.3468 q 6.56206,-0.006 13.12413,-0.02259 c 0.0125,2.963 0.0102,5.92438 0.0227,8.88556 2.83541,-0.0034 5.67292,-0.01413 8.51026,-0.01413 q 0.93381,0 1.8679,0.0017 L 449.2905,48.807 q -0.1626,2.7e-4 -0.32537,3e-4 c -0.67532,0 -1.35237,-0.0048 -2.02559,-0.02746 -0.006,-4.35273 -0.0278,-8.70539 -0.0132,-13.06171 q 0.73971,0.0047 1.47927,0.0042 c 1.2753,0 2.5506,-0.0075 3.82533,-0.0075 m 0,-7 q -0.96627,0 -1.93287,0.0038 -0.94613,0.0028 -1.89244,0.0037 -0.71762,0 -1.43506,-0.0041 l -0.0443,-1.5e-4 a 7,7 0 0 0 -6.99988,6.97665 c -0.0101,3.01651 -0.003,6.03131 0.005,9.04557 l 0.008,4.04852 a 7.03447,7.03447 0 0 0 0.12569,1.31769 7.03951,7.03951 0 0 0 -1.142,-0.09278 h -0.0212 q -6.55193,0.0195 -13.10963,0.02256 a 7,7 0 0 0 -6.99367,6.98669 q -0.006,3.11073 0.005,6.21872 0.007,3.06354 0.005,6.12842 a 6.99987,6.99987 0 0 0 1.78989,4.68789 l 9.19733,10.25023 a 7.00009,7.00009 0 0 0 5.21009,2.32507 h 0.0168 l 19.1662,-0.046 a 7,7 0 0 0 5.24118,-2.37893 l 9.358,-10.64783 a 6.99977,6.99977 0 0 0 1.742,-4.63632 q -0.0168,-7.70778 -0.0273,-15.41947 l -0.0119,-7.41687 a 7.66075,7.66075 0 0 0 -2.23275,-5.70651 q -1.88332,-1.93785 -3.77009,-3.8721 -2.58934,-2.657 -5.17548,-5.31989 -0.1514,-0.15618 -0.31218,-0.30261 a 7.41685,7.41685 0 0 0 -5.22982,-2.17023 c -0.0492,0 -0.0995,6.1e-4 -0.15075,0.0018 q -0.69439,-0.0039 -1.3891,-0.0036 z"
         fill="#ffffff"
         id="path49" />
      <path
         d="m 458.38583,110.50006 a 8.93123,8.93123 0 0 1 -6.25683,-2.4043 6.86805,6.86805 0 0 1 -2.12793,-5.12011 l -0.008,-4.65918 q -0.009,-4.03858 -0.007,-8.07617 a 7.25472,7.25472 0 0 1 4.69775,-6.5703 10.14783,10.14783 0 0 1 4.11133,-0.7334 l 0.44727,0.0049 c 3.88769,-0.0039 20.6831,-0.03321 20.68457,-0.03321 a 3.49987,3.49987 0 0 1 3.5,3.49414 l 0.006,3.80469 a 3.50085,3.50085 0 0 1 -0.84472,2.28711 3.48424,3.48424 0 0 1 0.85254,2.2832 l 0.021,12.17969 a 3.50007,3.50007 0 0 1 -3.49414,3.50586 z m 3.3667,-10.81445 1.92383,-0.0039 a 3.49137,3.49137 0 0 1 -0.16895,-1.06738 l -0.006,-3.80274 a 3.5105,3.5105 0 0 1 0.16455,-1.07031 l -1.92334,0.0039 z"
         fill="#0093ae"
         id="path51" />
      <path
         d="m 479.92715,86.40869 c 0.002,1.26471 0.004,2.5365 0.007,3.805 q -10.84945,0.01859 -21.69726,0.0373 0.0111,6.46829 0.0222,12.94043 l 16.94024,-0.0291 q -0.004,-2.283 -0.008,-4.56781 -4.09167,0.007 -8.18346,0.014 -0.003,-1.90521 -0.007,-3.8031 6.46828,-0.01109 12.94043,-0.02222 l 0.0209,12.17951 q -10.753,0.0185 -21.50976,0.0369 l -0.0694,3.7e-4 a 5.51765,5.51765 0 0 1 -3.82636,-1.42548 3.39438,3.39438 0 0 1 -1.05578,-2.54956 c -0.004,-4.26086 -0.022,-8.51983 -0.0147,-12.77881 a 3.78788,3.78788 0 0 1 2.55115,-3.34783 6.71641,6.71641 0 0 1 2.75981,-0.4614 q 0.19269,0 0.38447,0.0036 10.37272,-0.0093 20.74524,-0.03186 m 1.9e-4,-7 h -0.008 q -4.706,0.0055 -9.41382,0.01492 -5.63451,0.01012 -11.26942,0.01688 -0.21845,-0.0033 -0.43823,-0.0035 a 13.686,13.686 0 0 0 -5.46495,1.00452 10.78064,10.78064 0 0 0 -6.846,9.81131 q -0.007,4.05207 0.007,8.1047 0.005,2.2892 0.008,4.57889 a 10.38,10.38 0 0 0 3.21677,7.69611 12.398,12.398 0 0 0 8.66541,3.36755 l 0.0814,-4.6e-4 v 9e-5 l 7.80264,-0.0134 13.70716,-0.0235 a 7,7 0 0 0 6.98794,-7.01206 l -0.0209,-12.17947 a 6.98975,6.98975 0 0 0 -0.3863,-2.2869 6.9972,6.9972 0 0 0 0.37848,-2.28277 l -0.007,-3.80469 a 7.00007,7.00007 0 0 0 -6.99981,-6.98813 z"
         fill="#ffffff"
         id="path53" />
      <path
         d="m 484.53036,110.45514 a 3.50007,3.50007 0 0 1 -3.5,-3.49414 l -0.0356,-20.55469 a 3.50009,3.50009 0 0 1 3.49414,-3.50586 l 20.75635,-0.03515 a 8.52754,8.52754 0 0 1 7.58838,4.05273 7.53106,7.53106 0 0 1 0.8623,4.085 c -10e-4,0.14551 0,0.5127 -10e-4,0.55176 -0.007,0.42676 -0.002,0.85351 0.003,1.28125 0.01,0.78906 0.0186,1.60547 -0.0342,2.46973 -0.003,0.04785 -0.007,0.0957 -0.0117,0.14257 a 7.13282,7.13282 0 0 1 -3.74073,5.42871 l 3.29932,3.69141 a 3.4997,3.4997 0 0 1 -2.59717,5.832 c 0,0 -5.89746,0.0215 -5.90185,0.0215 a 3.49793,3.49793 0 0 1 -2.606,-1.16407 l -1.12354,-1.25293 q -2.66382,-2.96923 -5.31933,-5.94531 l -2.88379,0.005 0.008,4.876 a 3.50007,3.50007 0 0 1 -3.49365,3.50586 z"
         fill="#0093ae"
         id="path55" />
      <path
         d="m 505.3248,86.36472 a 5.04894,5.04894 0 0 1 4.47235,2.29385 5.55285,5.55285 0 0 1 0.39825,2.83758 c -0.02,1.1966 0.0482,2.39869 -0.025,3.59534 a 3.91685,3.91685 0 0 1 -2.64728,3.04859 6.97463,6.97463 0 0 1 -2.70178,0.40951 c -0.397,0 -0.7948,-0.0099 -1.18964,-0.0099 -0.16632,0 -0.33233,0.0018 -0.49731,0.0068 l 7.46625,8.35437 -5.88935,0.0212 q -3.74625,-4.179 -7.47925,-8.36548 l -7.9591,0.01367 0.0144,8.37641 -4.757,0.008 -0.0353,-20.554 q 10.3754,-0.01776 20.75446,-0.03565 l 0.0754,-4.5e-4 m -16.05841,8.40243 q 8.087,-0.01383 16.17755,-0.02777 c -0.003,-1.522 -0.005,-3.04944 -0.008,-4.56958 l -16.17762,0.02783 c 0.003,1.52008 0.005,3.04755 0.008,4.56952 M 505.325,79.36472 h -1.5e-4 l -0.0874,5.1e-4 v -6e-5 l -20.75439,0.03565 a 7,7 0 0 0 -6.988,7.012 l 0.0353,20.55405 a 7,7 0 0 0 7,6.98794 h 0.0121 l 4.757,-0.008 a 7.00184,7.00184 0 0 0 6.91879,-6.01209 q 1.11992,1.25048 2.2409,2.50015 l 1.03992,1.15985 a 7.00038,7.00038 0 0 0 5.21222,2.32749 h 0.0253 l 5.88937,-0.0213 a 7,7 0 0 0 5.19408,-11.6645 l -0.93238,-1.04328 a 10.20337,10.20337 0 0 0 2.24634,-5.38858 q 0.0146,-0.14255 0.0234,-0.28561 c 0.0606,-0.99112 0.0499,-1.91153 0.0406,-2.7236 -0.005,-0.39444 -0.01,-0.78873 -0.003,-1.18232 q 0.002,-0.1181 -6e-5,-0.23626 c -0.002,-0.11185 1.5e-4,-0.22528 10e-4,-0.33933 a 10.89075,10.89075 0 0 0 -1.32632,-5.8614 11.98387,11.98387 0 0 0 -10.54462,-5.81131 z"
         fill="#ffffff"
         id="path57" />
      <path
         d="m 512.6998,110.40436 a 3.49978,3.49978 0 0 1 -3.14209,-5.041 q 1.86621,-3.80567 3.73877,-7.60644 3.18311,-6.46875 6.35058,-12.94532 a 3.4979,3.4979 0 0 1 3.13965,-1.96582 l 9.42774,-0.01562 a 3.50241,3.50241 0 0 1 3.14062,1.9541 q 3.05127,6.19922 6.12891,12.38184 2.02,4.0664 4.03418,8.13574 a 3.499,3.499 0 0 1 -3.12891,5.05176 l -5.52148,0.0117 a 3.49991,3.49991 0 0 1 -3.13672,-1.94727 l -2.65332,-5.34961 q -1.77979,-3.58447 -3.55469,-7.17187 -1.74609,3.56542 -3.50293,7.12695 l -2.66406,5.415 a 3.49874,3.49874 0 0 1 -3.13672,1.958 z"
         fill="#0093ae"
         id="path59" />
      <path
         d="m 532.21481,86.32977 c 3.37195,6.85047 6.78058,13.6789 10.16706,20.52375 l -5.51441,0.0113 c -2.7594,-5.574 -5.53717,-11.13513 -8.27454,-16.71826 l -2.16156,0.0037 c -2.7146,5.59253 -5.47705,11.16309 -8.21722,16.74664 l -5.51446,0.008 c 3.36315,-6.85644 6.74639,-13.69653 10.093,-20.55859 l 9.42218,-0.01618 m 6e-5,-7 h -0.0121 l -9.42218,0.01618 a 7.00006,7.00006 0 0 0 -6.27967,3.93164 q -3.1479,6.45474 -6.32513,12.893 -1.88163,3.82416 -3.7608,7.65122 a 7,7 0 0 0 6.28463,10.0827 h 0.01 l 5.51449,-0.008 a 7,7 0 0 0 6.27445,-3.91607 q 1.34793,-2.74659 2.70056,-5.49021 l 0.33725,-0.68487 0.36087,0.72686 q 1.34949,2.718 2.6972,5.43778 a 7.00011,7.00011 0 0 0 6.27329,3.89441 h 0.0145 l 5.51443,-0.0114 a 7,7 0 0 0 6.2597,-10.10407 q -1.978,-3.998 -3.96255,-7.99069 -3.1062,-6.25657 -6.19824,-12.5203 a 7.00017,7.00017 0 0 0 -6.28034,-3.90866 z"
         fill="#ffffff"
         id="path61" />
      <path
         d="m 544.66855,110.35162 a 3.4992,3.4992 0 0 1 -3.5,-3.49414 l -0.0352,-20.55371 a 3.50029,3.50029 0 0 1 3.49316,-3.50586 l 24.17774,-0.042 a 3.50007,3.50007 0 0 1 3.5,3.49219 l 0.007,3.80664 a 3.5007,3.5007 0 0 1 -2.668,3.40625 3.52169,3.52169 0 0 1 0.20214,1.168 l 0.006,3.80273 a 3.49986,3.49986 0 0 1 -3.49414,3.50586 l -13.43945,0.0234 0.008,4.78906 a 3.57567,3.57567 0 0 1 -3.49316,3.59277 z"
         fill="#0093ae"
         id="path63" />
      <path
         d="m 568.80478,86.25592 q 0.003,1.9053 0.007,3.805 -9.70533,0.01666 -19.41443,0.03339 c 0.003,1.52008 0.005,3.04755 0.008,4.56952 l 16.94025,-0.02912 0.007,3.80311 -16.94031,0.02911 q 0.007,4.18816 0.0144,8.3764 -2.37672,0.004 -4.757,0.008 -0.0177,-10.27881 -0.0353,-20.554 l 24.17151,-0.04157 m 2.7e-4,-7 h -0.0123 L 556.511,79.277 544.62126,79.29748 a 6.99993,6.99993 0 0 0 -6.98791,7.012 l 0.0176,10.277 0.0177,10.277 a 6.99993,6.99993 0 0 0 6.99991,6.98794 h 0.0122 l 4.75672,-0.008 a 7,7 0 0 0 6.98813,-7.01205 l -0.002,-1.37641 4.25488,-0.007 5.68542,-0.01 a 7,7 0 0 0 6.98795,-7.01212 l -0.002,-0.92114 -0.004,-2.11109 a 6.98416,6.98416 0 0 0 2.46506,-5.34436 l -0.006,-3.44134 -6.4e-4,-0.364 a 7.00019,7.00019 0 0 0 -6.9997,-6.98788 z"
         fill="#ffffff"
         id="path65" />
      <path
         d="m 570.59042,110.294 a 3.50007,3.50007 0 0 1 -2.501,-5.94825 l 8.25293,-8.43164 q -1.00342,-0.98437 -2.01075,-1.96582 c -1.7705,-1.72949 -3.542,-3.459 -5.29687,-5.20605 a 3.50044,3.50044 0 0 1 2.46191,-5.98047 l 7.01758,-0.0166 a 3.49982,3.49982 0 0 1 2.44531,0.99609 l 4.02735,3.93262 c 0.11132,-0.11035 0.22168,-0.2207 0.333,-0.33106 1.21778,-1.21093 2.47657,-2.46289 3.77637,-3.66992 a 3.50144,3.50144 0 0 1 2.3711,-0.93554 l 6.98632,-0.02149 a 3.50018,3.50018 0 0 1 2.4834,5.9668 c -1.56738,1.57715 -3.15527,3.13769 -4.74219,4.69726 q -1.3125,1.28907 -2.62011,2.58106 l 8.33984,8.30273 a 3.50006,3.50006 0 0 1 -2.46973,5.98047 l -6.98437,-0.001 a 3.50449,3.50449 0 0 1 -2.38574,-0.93848 c -1.52246,-1.418 -3.0127,-2.8877 -4.45411,-4.30957 q -0.30468,-0.3003 -0.60839,-0.60059 -0.30615,0.30322 -0.61035,0.60645 c -1.43555,1.4248 -2.91993,2.89941 -4.43653,4.32129 a 3.50163,3.50163 0 0 1 -2.38183,0.94726 z"
         fill="#0093ae"
         id="path67" />
      <path
         d="m 598.45383,86.21588 h 0.005 m -0.005,0 c -3.25141,3.27393 -6.59144,6.46881 -9.83551,9.74988 l 10.82668,10.77881 -6.98493,-10e-4 c -2.5332,-2.35937 -4.95654,-4.84766 -7.457,-7.244 -2.49188,2.40491 -4.90668,4.90155 -7.432,7.26966 l -6.981,0.025 10.69555,-10.92584 c -3.246,-3.215 -6.54181,-6.3819 -9.7807,-9.60608 l 7.00891,-0.01752 6.47736,6.325 c 2.18378,-2.08819 4.27368,-4.27728 6.48706,-6.33252 l 6.97559,-0.02124 m 0.005,-7 h -0.005 l -0.0333,9e-5 -6.96362,0.02121 a 7,7 0 0 0 -4.74176,1.87033 q -0.88913,0.82563 -1.7428,1.66 l -1.568,-1.53113 a 7.00051,7.00051 0 0 0 -4.89045,-1.9917 h -0.0175 l -7.00891,0.01752 a 7,7 0 0 0 -4.921,11.961 c 1.60333,1.596 3.23492,3.19241 4.825,4.74563 l -5.80356,5.9285 a 7,7 0 0 0 5.002,11.89676 h 0.0252 l 6.981,-0.025 a 7,7 0 0 0 4.76321,-1.89382 c 0.90406,-0.84775 1.7909,-1.70752 2.66074,-2.5626 0.87268,0.852 1.76236,1.70865 2.66913,2.5532 a 7,7 0 0 0 4.76983,1.87762 l 6.98493,0.001 a 7,7 0 0 0 4.93982,-11.96073 l -5.83545,-5.80963 0.095,-0.09338 c 1.5416,-1.51453 3.13492,-3.07987 4.69849,-4.653 a 6.99913,6.99913 0 0 0 -4.883,-12.01193 z m -0.005,14 z"
         fill="#ffffff"
         id="path69" />
      <path
         d="m 403.29892,41.10358 a 3.92385,3.92385 0 0 1 -3.86865,-3.36133 c -2.31934,-14.58789 -6.76368,-19.46582 -8.55079,-19.53272 h -4.8e-4 c -0.95313,0 -3.14649,1.34522 -5.57569,6.38282 a 3.91654,3.91654 0 0 1 -7.44331,-1.69873 3.85039,3.85039 0 0 1 0.40821,-1.73536 c 4.311,-8.90722 9.21,-10.77734 12.563,-10.77734 0.11426,0 0.229,0.002 0.34278,0.0063 2.90527,0.10986 7.126,1.68506 10.73926,8.56445 2.30468,4.39307 4.12158,10.48779 5.2539,17.62647 a 3.91107,3.91107 0 0 1 -3.2622,4.47754 4.33834,4.33834 0 0 1 -0.60603,0.04785 z"
         fill="#0093ae"
         id="path71" />
      <path
         d="m 390.83053,13.88107 c 0.0705,0 0.14129,0.0014 0.21187,0.004 2.84014,0.10712 5.52954,2.42407 7.772,6.69385 2.1283,4.05694 3.82178,9.778 4.896,16.54773 a 0.41252,0.41252 0 0 1 -0.34479,0.47119 0.4067,0.4067 0 0 1 -0.46947,-0.3429 c -2.1797,-13.71246 -6.73477,-22.34948 -11.88545,-22.54278 -0.0568,-0.0021 -0.11325,-0.0032 -0.17012,-0.0032 -2.99826,0 -6.08368,2.95826 -8.69,8.36359 a 0.41668,0.41668 0 0 1 -0.79088,-0.17877 0.388,0.388 0 0 1 0.0439,-0.18018 c 2.79349,-5.78473 6.05,-8.83255 9.42688,-8.83255 m 0,-7 c -4.35269,0 -10.60823,2.21189 -15.70858,12.74347 a 7.40484,7.40484 0 0 0 3.41533,9.93677 l 0.0771,0.03683 a 7.46971,7.46971 0 0 0 3.161,0.707 7.377,7.377 0 0 0 6.64159,-4.11292 l 0.0389,-0.07941 a 17.56191,17.56191 0 0 1 2.315,-3.74682 c 1.37042,1.818 3.70457,6.521 5.20837,15.9646 a 7.41218,7.41218 0 1 0 14.64246,-2.31485 c -1.1919,-7.50437 -3.13118,-13.96649 -5.60852,-18.68875 -4.39334,-8.36515 -9.87871,-10.29258 -13.707,-10.437 -0.1586,-0.006 -0.31749,-0.009 -0.47568,-0.009 z"
         fill="#ffffff"
         id="path73" />
      <path
         d="m 403.06405,78.20221 a 4.38177,4.38177 0 0 1 -0.59814,-0.0459 3.91765,3.91765 0 0 1 -3.30908,-3.86621 4.4151,4.4151 0 0 1 0.0449,-0.63184 116.89745,116.89745 0 0 0 1.35791,-13.27539 3.88171,3.88171 0 0 1 3.91406,-3.73437 c 0.0352,0 0.0825,0.001 0.11719,0.002 a 3.94757,3.94757 0 0 1 3.7876,4.06934 124.5237,124.5237 0 0 1 -1.44727,14.19433 3.90115,3.90115 0 0 1 -3.8667,3.28809 z"
         fill="#0093ae"
         id="path75" />
      <path
         d="m 404.47389,60.148 0.0131,1.8e-4 a 0.42092,0.42092 0 0 1 0.394,0.43488 120.91665,120.91665 0 0 1 -1.40439,13.7702 0.41707,0.41707 0 0 1 -0.41295,0.34943 0.42645,0.42645 0 0 1 -0.0644,-0.0049 0.41532,0.41532 0 0 1 -0.34272,-0.40747 l -1.2e-4,-0.06988 a 120.51013,120.51013 0 0 0 1.39929,-13.67456 0.41347,0.41347 0 0 1 0.41814,-0.39789"
         fill="#ffffff"
         id="path77" />
      <path
         d="m 388.29111,105.45123 c -5.55127,-0.16113 -9.979,-5.07519 -13.15479,-14.60547 -2.54053,-7.62011 -3.894,-17.83007 -3.91406,-29.52441 l -0.001,-0.335 a 3.50021,3.50021 0 0 1 3.48535,-3.51465 h 0.0151 a 3.49561,3.49561 0 0 1 2.86035,1.48242 3.61426,3.61426 0 0 1 0.88086,2.34473 c 0.0405,23.666 6.49316,36.22949 9.94043,36.33105 h 4.9e-4 c 0.9331,0 2.65088,-1.12793 4.52392,-4.30468 2.19873,-3.72168 4.07813,-9.08887 5.437,-15.52442 a 3.91933,3.91933 0 0 1 3.84033,-3.10742 4.33239,4.33239 0 0 1 0.80176,0.083 3.92033,3.92033 0 0 1 3.04052,4.61328 c -1.54,7.3291 -3.72363,13.51562 -6.31787,17.91113 -3.981,6.74024 -8.26806,8.15528 -11.16357,8.15528 z"
         fill="#0093ae"
         id="path79" />
      <path
         d="m 374.72153,60.97125 c 1.8e-4,0.114 0.24115,0.22937 0.24133,0.34345 0.038,22.13849 5.94275,39.59607 13.338,39.81317 0.0449,0.001 0.0895,0.002 0.13449,0.002 2.54826,0 5.18054,-2.08053 7.50746,-6.02756 2.36611,-4.00384 4.40206,-9.73693 5.84621,-16.57916 a 0.42312,0.42312 0 0 1 0.82924,0.16779 c -1.4568,6.93219 -3.49617,12.7536 -5.90279,16.83093 -2.48788,4.21225 -5.30087,6.43381 -8.15024,6.43381 -0.0557,0 -0.11161,-8.6e-4 -0.16732,-0.003 -3.93377,-0.11462 -7.35468,-4.45227 -9.94147,-12.214 -2.5016,-7.50439 -3.71564,-17.5863 -3.73433,-28.42395 l -5.3e-4,-0.34387 m 2.1e-4,-7 h -0.0113 a 7,7 0 0 0 -6.989,7.011 l 3.5e-4,0.22149 1.8e-4,0.1225 c 0.0208,12.06513 1.43634,22.65528 4.09357,30.62659 3.68911,11.06927 9.19966,16.78812 16.37837,16.99728 0.11674,0.004 0.24425,0.006 0.37118,0.006 3.80726,0 9.35741,-1.71305 14.17748,-9.874 2.78731,-4.72232 5.11276,-11.27493 6.72591,-18.9512 a 7.476,7.476 0 0 0 -1.1,-5.65021 7.42523,7.42523 0 0 0 -13.42887,2.59815 c -1.26249,5.98117 -3.04648,11.11746 -5.02326,14.46255 a 13.01413,13.01413 0 0 1 -1.39282,1.97553 c -0.93854,-1.219 -2.40717,-3.86258 -3.76248,-8.753 a 91.934,91.934 0 0 1 -2.79825,-23.46079 7.15114,7.15114 0 0 0 -1.613,-4.49408 6.99049,6.99049 0 0 0 -5.62813,-2.83734 z"
         fill="#ffffff"
         id="path81" />
      <path
         d="m 374.72128,64.46588 a 3.49987,3.49987 0 0 1 -3.5,-3.49414 l -4.9e-4,-0.40723 a 3.50008,3.50008 0 0 1 3.49073,-3.50878 h 0.009 a 3.50018,3.50018 0 0 1 3.5,3.49121 l 4.9e-4,0.41894 a 3.50017,3.50017 0 0 1 -3.5,3.5 z"
         fill="#0093ae"
         id="path83" />
      <path
         d="m 374.72079,60.55579 7.4e-4,0.41186 v 0.0019 l -7.4e-4,-0.41375 m 2.8e-4,-7 h -0.0119 a 7,7 0 0 0 -6.98839,7.01153 l 7.3e-4,0.41513 a 7.001,7.001 0 0 0 6.99986,6.98792 h 0.007 a 6.99931,6.99931 0 0 0 6.99353,-6.99915 l -7.5e-4,-0.42712 a 7.00005,7.00005 0 0 0 -6.99971,-6.98834 z"
         fill="#ffffff"
         id="path85" />
      <path
         d="m 404.27255,83.17291 a 3.49773,3.49773 0 0 1 -2.78125,-1.373 l -6.98584,-9.12793 -3.01465,0.67089 a 3.49958,3.49958 0 0 1 -3.18847,-5.93652 l 2.04882,-1.97363 -4.26464,-10.627 a 3.49981,3.49981 0 0 1 6.02734,-3.43067 l 6.98584,9.12795 3.01465,-0.6709 a 3.49954,3.49954 0 0 1 3.19043,5.93457 l -2.04978,1.97753 4.26367,10.625 a 3.49955,3.49955 0 0 1 -3.24609,4.80371 z"
         fill="#0093ae"
         id="path87" />
      <path
         d="m 389.33475,53.50177 8.34375,10.9024 5.19628,-1.156 -3.74554,3.61283 5.14142,12.81214 -8.34381,-10.90235 -5.19623,1.156 3.74719,-3.60926 -5.14306,-12.81573 m 13.54,9.7464 h 0.005 M 389.33056,46.50125 a 7.00093,7.00093 0 0 0 -6.49221,9.60758 l 3.38655,8.43878 -0.35036,0.33749 a 6.99927,6.99927 0 0 0 6.37611,11.87464 l 0.83361,-0.18543 5.62755,7.35315 a 7,7 0 0 0 12.05529,-6.8613 l -3.38635,-8.4386 0.27677,-0.26693 a 6.99943,6.99943 0 0 0 -4.31164,-12.09717 q -0.23366,-0.0158 -0.46954,-0.01584 -0.28191,0 -0.56554,0.023 a 6.99248,6.99248 0 0 0 -1.1034,0.1774 l -0.6863,0.15268 -5.62749,-7.35315 a 6.9967,6.9967 0 0 0 -5.56305,-2.74625 z"
         fill="#ffffff"
         id="path89" />
      <path
         d="m 392.95419,92.001 a 4.3394,4.3394 0 0 1 -0.792,-0.07422 4.58438,4.58438 0 0 1 -3.668,-3.71973 l -0.7666,-4.76465 a 3.49986,3.49986 0 0 1 3.45557,-4.05566 3.45558,3.45558 0 0 1 0.6621,0.06348 l 0.29395,0.05664 a 5.28046,5.28046 0 0 1 4.168,4.18359 L 396.9,87.38971 a 3.95513,3.95513 0 0 1 -3.9458,4.61133 z"
         fill="#0093ae"
         id="path91" />
      <path
         d="m 391.183,82.88666 0.29408,0.05652 a 1.85564,1.85564 0 0 1 1.37726,1.3175 l 0.0781,0.49432 0.3158,1.957 0.19526,1.2276 a 0.459,0.459 0 0 1 -0.49,0.561 0.80754,0.80754 0 0 1 -0.147,-0.014 1.09578,1.09578 0 0 1 -0.85426,-0.8183 L 391.183,82.88663 m -1.4e-4,-7.00009 a 7.00013,7.00013 0 0 0 -6.911,8.11187 l 0.76923,4.78168 a 8.02715,8.02715 0 0 0 6.48738,6.58887 7.83052,7.83052 0 0 0 1.425,0.13168 7.45484,7.45484 0 0 0 7.401,-8.67364 l -0.19317,-1.21457 -0.31831,-1.9726 -0.0744,-0.47125 a 8.79654,8.79654 0 0 0 -6.99666,-7.10468 l -0.26761,-0.05142 a 7.00065,7.00065 0 0 0 -1.3215,-0.12594 z"
         fill="#ffffff"
         id="path93" />
      <path
         d="m 394.57187,96.99323 a 8.14136,8.14136 0 0 1 -1.3335,-0.11329 c -0.0347,-0.0059 -0.98584,-0.19336 -0.98584,-0.19336 a 7.21078,7.21078 0 0 1 -1.626,-0.51367 3.54461,3.54461 0 0 1 -0.61181,0.05371 A 3.50023,3.50023 0 0 1 389.38,96.169 l -5.58789,-1.0293 a 3.49967,3.49967 0 0 1 -2.82129,-2.8877 l -1.78564,-11.123 a 6.81156,6.81156 0 0 1 -0.0835,-1.02832 3.48308,3.48308 0 0 1 -0.19336,-0.71387 l -1.03271,-6.43164 a 3.4958,3.4958 0 0 1 -0.0415,-0.70117 3.54241,3.54241 0 0 1 -0.18017,-0.67871 l -1.07959,-6.7334 c -5.48584,-1.9375 -8.73438,-6.50684 -9.44971,-13.35742 l -0.46338,-2.88965 a 3.50011,3.50011 0 0 1 4.08838,-3.99707 l 2.65674,0.48828 -0.24658,-1.53613 a 3.50549,3.50549 0 0 1 -0.0415,-0.70215 3.54241,3.54241 0 0 1 -0.18017,-0.67871 l -2.86524,-17.86182 a 4.45147,4.45147 0 0 1 4.46,-5.2373 5.11261,5.11261 0 0 1 0.90381,0.082 l 18.84131,3.46972 a 5.78929,5.78929 0 0 1 4.56836,4.60938 l 1.11035,6.91455 9.23242,1.69922 a 3.50178,3.50178 0 0 1 2.82276,2.88867 l 1.62939,10.168 a 6.84664,6.84664 0 0 1 -1.501,5.54492 7.05553,7.05553 0 0 1 -5.40381,2.41992 8.03616,8.03616 0 0 1 -1.46582,-0.13574 l -3.75635,-0.68848 a 11.53821,11.53821 0 0 1 -6.67529,-4.32519 8.95759,8.95759 0 0 1 0.64209,2.12207 l 0.28955,1.6914 a 3.49826,3.49826 0 0 1 -1.13819,3.21875 l 2.32325,6.39747 a 3.50088,3.50088 0 0 1 0.0586,2.21289 3.498,3.498 0 0 1 1.04688,1.98437 l 1.14062,7.10547 a 6.58564,6.58564 0 0 1 -0.27148,2.999 8.37283,8.37283 0 0 1 1.25732,3.15528 l 1.0249,6.39453 a 7.41671,7.41671 0 0 1 -1.63574,5.73633 6.45593,6.45593 0 0 1 -5.00492,2.25878 z m -7.05762,-38.82715 a 3.5103,3.5103 0 0 1 0.75488,-1.56641 l -0.52881,-0.68555 a 3.48857,3.48857 0 0 1 -0.88623,-1.01074 l -2.98779,-0.54883 c 0,0 0.51465,3.20606 0.51856,3.23438 z"
         fill="#0093ae"
         id="path95" />
      <path
         d="m 374.53241,22.56992 a 1.597,1.597 0 0 1 0.28313,0.02627 l 18.82855,3.46747 a 2.27467,2.27467 0 0 1 1.74553,1.71759 l 1.50305,9.359 11.663,2.14722 1.62964,10.1676 a 3.315,3.315 0 0 1 -3.44894,3.912 4.5619,4.5619 0 0 1 -0.82924,-0.07767 l -3.76192,-0.69019 c -2.61848,-0.48449 -5.40967,-3.21667 -5.80733,-5.69568 l -0.7451,-4.65094 -5.58795,-1.029 1.02379,6.37476 a 3.72873,3.72873 0 0 1 -1.23168,3.0719 6.46689,6.46689 0 0 1 2.22687,3.71643 l 0.297,1.73474 -2.28809,-2.96478 -0.15251,-0.01251 a 3.23171,3.23171 0 0 0 -2.29506,-1.665 l -5.71295,-1.05085 a 2.82174,2.82174 0 0 0 -0.51529,-0.05056 c -1.01712,0 -1.56818,0.66467 -1.39149,1.76144 l 0.95129,5.919 L 379.6,57.81042 a 6.14149,6.14149 0 0 1 -4.41751,-4.62445 l -0.366,-2.27124 -2.42534,-0.44812 0.47762,2.98255 a 9.02555,9.02555 0 0 0 6.50938,6.777 l 12.14476,2.23651 -0.007,-0.057 -0.56852,-3.55219 2.71864,7.48768 -2.44871,2.08484 -8.89934,-1.64086 0.40137,2.52679 7.77411,1.43146 0.70795,4.40478 c 0.10463,0.65375 -0.0545,0.93955 -0.56623,0.93955 a 2.2445,2.2445 0 0 1 -0.40107,-0.0427 l -6.62671,-1.222 0.368,2.29889 c 0,0 8.75421,1.62835 8.94725,1.69787 a 1.3366,1.3366 0 0 0 0.94926,-1.71484 l -1.02383,-6.4079 1.75774,-0.79883 1.1408,7.106 a 3.75318,3.75318 0 0 1 -1.02992,2.8822 5.95849,5.95849 0 0 1 2.01651,3.2796 l 1.02379,6.38568 c 0.20488,1.27451 -0.51509,3.94178 -3.18506,3.94178 a 4.59628,4.59628 0 0 1 -0.75647,-0.06568 l -0.88277,-0.17505 a 5.60616,5.60616 0 0 1 -2.40446,-1.25134 l -0.51356,0.72522 -5.5879,-1.029 -1.78543,-11.12328 a 2.96784,2.96784 0 0 1 0.19385,-1.65655 l -0.47072,-0.08558 -1.03308,-6.43158 7.11205,1.30927 c 0.314,0.0578 0.48837,0.11032 0.577,0.11032 0.146,0 0.0595,-0.14258 -0.0191,-0.63888 l -0.1189,-0.72956 -7.77224,-1.43127 -1.43627,-8.95667 c -4.53441,-0.88928 -8.34039,-3.6839 -9.07733,-11.03534 l -0.47951,-2.988 6.56064,1.20556 0.36418,2.275 c 0.31963,1.9956 0.5681,3.30578 1.55921,3.488 l -0.78607,-4.96533 a 2.42731,2.42731 0 0 1 0.0468,-0.57721 l -0.21332,-0.0365 -1.033,-6.43536 7.11213,1.30762 c 0.31607,0.05887 0.491,0.11267 0.57932,0.11267 0.14395,0 0.0581,-0.14285 -0.0214,-0.63935 l -0.1153,-0.72955 -7.77582,-1.43146 -2.86502,-17.86184 a 0.957,0.957 0 0 1 1.00345,-1.18283 m 5.40846,13.23562 -1.28941,-8.04333 5.10064,0.94159 0.80993,5.0534 2.431,0.44812 -0.81209,-5.05548 5.10256,0.94159 0.99205,6.202 2.431,0.44439 -1.39735,-8.73071 -17.7327,-3.2616 1.69278,10.56824 2.67163,0.49176 m 10.68666,1.9668 -0.95512,-5.97412 -1.21706,-0.22229 0.77471,4.82574 -6.316,-1.16559 -0.77661,-4.8219 -1.21178,-0.224 0.95873,5.97412 8.74316,1.608 m -4.70882,8.90988 a 2.21258,2.21258 0 0 1 -0.40074,-0.04318 l -6.62671,-1.22016 0.40509,2.52869 7.95618,1.46594 a 2.83745,2.83745 0 0 0 0.51048,0.04929 c 1.02088,0 1.57116,-0.66489 1.39274,-1.762 l -1.34156,-8.38337 -0.0112,-0.0606 -10.2011,-1.87751 0.40508,2.5268 7.7741,1.43127 0.70424,4.405 c 0.10466,0.65088 -0.0546,0.93985 -0.56656,0.93985 m 18.98763,1.05689 c 0.327,0 0.49213,-0.21109 0.4352,-0.57151 l -0.52034,-3.214 -4.61512,-0.85247 0.51661,3.21966 a 1.00932,1.00932 0 0 0 0.83961,0.82013 l 3.16068,0.579 a 0.95715,0.95715 0 0 0 0.18336,0.01914 m -12.68481,19.086 -0.39386,-2.46789 -0.0113,-0.0589 -10.20128,-1.87561 0.40511,2.5249 10.20128,1.8775 m -3.74664,23.2959 -1.10182,-6.85821 a 0.76336,0.76336 0 0 1 0.8116,-0.89432 1.13251,1.13251 0 0 1 0.20709,0.01956 l 0.55146,0.08545 0.98671,6.13769 a 3.26752,3.26752 0 0 0 2.40817,2.30274 l 1.517,0.28784 a 2.0828,2.0828 0 0 0 0.38371,0.03555 c 0.94931,0 1.79865,-0.64529 1.65769,-1.5206 l -0.9475,-5.91 a 4.43124,4.43124 0 0 0 -3.17837,-3.24426 l -4.7199,-0.867 a 2.43489,2.43489 0 0 0 -0.43992,-0.04116 1.87252,1.87252 0 0 0 -1.86484,2.273 l 1.23561,7.73468 2.49328,0.459 M 374.53267,15.57 h -2.8e-4 a 7.94961,7.94961 0 0 0 -7.91346,9.30157 l 2.60284,16.22638 a 7.00014,7.00014 0 0 0 -6.01663,8.05176 l 0.449,2.7977 c 0.79236,7.34195 4.20358,12.64483 9.77221,15.36847 l 0.77179,4.813 q 0.0558,0.34825 0.14495,0.68426 a 7.00592,7.00592 0 0 0 0.0765,0.69769 l 1.03306,6.43158 a 7.02308,7.02308 0 0 0 0.16874,0.77112 q 0.0301,0.47357 0.10446,0.94779 l 1.789,11.14556 a 7,7 0 0 0 5.64374,5.77482 l 5.58791,1.029 a 7.00315,7.00315 0 0 0 1.26872,0.116 c 0.0343,0 0.0685,-2.5e-4 0.10277,-7.4e-4 a 10.48125,10.48125 0 0 0 1.49013,0.40036 l 0.84535,0.16764 q 0.1041,0.0206 0.20871,0.0381 a 11.63363,11.63363 0 0 0 1.90936,0.16126 9.9042,9.9042 0 0 0 7.66893,-3.489 10.89405,10.89405 0 0 0 2.42742,-8.56375 l -1.02335,-6.3829 a 11.43575,11.43575 0 0 0 -1.00362,-3.12686 9.626,9.626 0 0 0 0.0193,-3.02075 l -1.14332,-7.12162 a 6.9966,6.9966 0 0 0 -0.85124,-2.39377 6.9879,6.9879 0 0 0 -0.42039,-2.44259 l -1.68854,-4.65058 q 0.10337,-0.2026 0.19348,-0.41174 a 12.58788,12.58788 0 0 0 2.12139,0.59259 l 3.77233,0.69211 a 11.56707,11.56707 0 0 0 2.09243,0.19257 10.5491,10.5491 0 0 0 8.06733,-3.64994 10.341,10.341 0 0 0 2.293,-8.37243 l -1.62921,-10.165 a 7,7 0 0 0 -5.64436,-5.77652 l -6.8026,-1.25238 -0.71941,-4.47953 A 9.261,9.261 0 0 0 394.93,19.18277 L 376.08333,15.712 a 8.68547,8.68547 0 0 0 -1.55066,-0.142 z"
         fill="#ffffff"
         id="path97" />
      <path
         d="m 388.68905,62.98639 a 3.47651,3.47651 0 0 1 -0.6333,-0.05762 l -5.34375,-0.9834 a 3.50019,3.50019 0 0 1 -2.82226,-2.88672 l -0.74463,-4.63085 a 4.2852,4.2852 0 0 1 0.88672,-3.60254 4.04609,4.04609 0 0 1 3.14209,-1.39746 5.67129,5.67129 0 0 1 1.02637,0.09863 l 3.05419,0.56152 a 4.889,4.889 0 0 1 4.14649,4.2207 l 0.74365,4.62208 a 3.49958,3.49958 0 0 1 -3.45557,4.05566 z"
         fill="#0093ae"
         id="path99" />
      <path
         d="m 383.17413,52.92767 a 2.265,2.265 0 0 1 0.39906,0.04175 l 3.04854,0.56091 a 1.39946,1.39946 0 0 1 1.32209,1.32306 l 0.745,4.63263 -5.34332,-0.98352 -0.74506,-4.63073 c -0.1049,-0.657 0.0565,-0.9441 0.57364,-0.9441 m 3.24037,4.134 -0.117,-0.72767 c -0.12446,-0.78094 -0.0146,-1.0697 -0.78509,-1.2229 a 1.62113,1.62113 0 0 0 -0.25975,-0.02587 c -0.44829,0 -0.27809,0.34829 -0.17055,1.02478 l 0.11511,0.72583 1.21727,0.22583 m -3.24037,-11.134 a 7.59466,7.59466 0 0 0 -5.80487,2.62571 7.77986,7.77986 0 0 0 -1.68123,6.422 l 0.74639,4.63907 a 7,7 0 0 0 5.644,5.77237 l 5.34332,0.98352 a 6.99994,6.99994 0 0 0 8.17836,-7.99585 l -0.74506,-4.63263 a 8.31374,8.31374 0 0 0 -6.95114,-7.09314 l -3.064,-0.56375 a 9.182,9.182 0 0 0 -1.66576,-0.15732 z"
         fill="#ffffff"
         id="path101" />
      <path
         d="m 409.16611,72.75006 a 8.41665,8.41665 0 0 1 -1.52247,-0.14062 l -1.08349,-0.19629 a 3.50154,3.50154 0 0 1 -2.832,-2.89063 l -0.627,-3.91211 a 3.48861,3.48861 0 0 1 -1.4541,0.76563 l -2.70459,0.68457 a 3.49682,3.49682 0 0 1 -3.63134,-1.25684 L 391.295,60.59088 a 3.492,3.492 0 0 1 -0.68164,-1.57226 l -0.27881,-1.708 a 6.9216,6.9216 0 0 1 1.52051,-5.6875 7.14829,7.14829 0 0 1 5.4751,-2.43555 8.39078,8.39078 0 0 1 1.52783,0.14258 l 7.64893,1.40625 c 4.21826,0.77539 8.18359,4.71582 8.83984,8.78223 l 0.8208,5.11523 a 6.9187,6.9187 0 0 1 -1.52344,5.67969 7.15171,7.15171 0 0 1 -5.47754,2.43652 z"
         fill="#0093ae"
         id="path103" />
      <path
         d="m 397.33023,52.68762 a 4.91754,4.91754 0 0 1 0.89259,0.0838 l 7.651,1.40778 c 2.7561,0.5061 5.59729,3.2934 6.01715,5.89734 l 0.82118,5.1123 a 3.40319,3.40319 0 0 1 -3.54556,4.06131 4.90061,4.90061 0 0 1 -0.88861,-0.08328 l -1.09392,-0.19836 -0.85657,-5.344 0.91376,0.16937 a 0.94583,0.94583 0 0 0 0.16963,0.01618 0.47659,0.47659 0 0 0 0.49846,-0.61646 l -0.42372,-2.64251 a 1.1283,1.1283 0 0 0 -0.90764,-0.89179 l -7.16914,-1.3203 a 0.95015,0.95015 0 0 0 -0.17228,-0.01666 0.47871,0.47871 0 0 0 -0.49776,0.61883 l 0.4256,2.64252 a 1.1284,1.1284 0 0 0 0.90954,0.89178 l 0.66747,0.122 0.0466,0.38593 -2.70454,0.68475 -4.0161,-5.21338 -0.2787,-1.70709 a 3.39917,3.39917 0 0 1 3.54158,-4.06 m 0,-7 a 10.64213,10.64213 0 0 0 -8.13661,3.66232 10.50309,10.50309 0 0 0 -2.31821,8.49621 l 0.2834,1.73636 a 7.00033,7.00033 0 0 0 1.36316,3.144 l 4.0161,5.21338 a 6.99772,6.99772 0 0 0 7.26349,2.514 l 0.51488,-0.13037 a 7,7 0 0 0 5.61868,5.53259 l 1.09392,0.19837 a 11.87606,11.87606 0 0 0 2.13754,0.19558 10.64684,10.64684 0 0 0 8.13982,-3.66473 10.50219,10.50219 0 0 0 2.319,-8.49524 l -0.823,-5.12381 c -0.88823,-5.50885 -6.01147,-10.634 -11.66421,-11.67206 L 399.48953,45.887 a 11.93682,11.93682 0 0 0 -2.15932,-0.19937 z"
         fill="#ffffff"
         id="path105" />
      <path
         d="m 401.59823,71.43951 a 3.55221,3.55221 0 0 1 -0.64013,-0.05859 l -0.97119,-0.18066 a 6.23744,6.23744 0 0 1 -1.29541,-0.39161 l -0.168,-0.0664 a 3.50012,3.50012 0 0 1 -1.35791,-5.67871 l 1.53564,-1.64258 a 3.49981,3.49981 0 0 1 6.0127,1.83789 l 0.34033,2.12793 a 3.50015,3.50015 0 0 1 -3.45606,4.05273 z"
         fill="#0093ae"
         id="path107" />
      <path
         d="m 401.258,65.8114 0.34,2.128 -0.97093,-0.18036 a 4.71225,4.71225 0 0 1 -0.9048,-0.30542 l 1.5357,-1.64227 m 7.1e-4,-7.00021 a 7,7 0 0 0 -5.11356,2.21911 l -1.53571,1.64228 a 7,7 0 0 0 2.70676,11.35458 l 0.0494,0.02048 a 9.61539,9.61539 0 0 0 1.965,0.59033 l 0.98915,0.18378 a 7,7 0 0 0 8.19064,-7.98682 l -0.34,-2.128 a 7.00106,7.00106 0 0 0 -6.9116,-5.89572 z"
         fill="#ffffff"
         id="path109" />
      <path
         d="m 454.285,7.28033 9.19551,10.2521 c -0.009,4.11369 0.016,8.2275 0.0103,12.33931 q -6.56238,0.01126 -13.12625,0.0282 c -0.007,-2.96492 -0.006,-5.92439 -0.017,-8.88385 -3.46128,0.0024 -6.92254,0.01567 -10.38006,0.01427 0.001,4.86921 0.002,9.73108 0.0289,14.60024 1.03655,-0.0018 2.07334,0.02034 3.11386,0.024 -5e-5,4.3546 0.0259,8.711 0.0113,13.06548 -2.52188,-0.01769 -5.04387,0.01244 -7.5695,0.004 -0.28306,0.01328 -0.45259,-0.27874 -0.64769,-0.44386 -3.01268,-3.138 -6.10787,-6.21149 -9.08559,-9.38268 -0.0671,-6.97025 -0.0277,-13.946 -0.0618,-20.92343 l 9.36,-10.64991 z"
         fill="#0093ae"
         id="path111" />
      <path
         d="M 468.4844,69.03763 Q 468.409,38.14315 468.37257,7.25612 l 14.08376,-0.02421 q 0.0563,29.469 0.10864,58.94157 c 1.3089,-0.0096 2.61761,-0.02652 3.92639,0.0025 q -0.005,6.68916 0.023,13.37056 c -2.3932,0.05192 -4.78654,0.0231 -7.17981,0.03625 a 0.73346,0.73346 0 0 1 -0.67324,-0.30584 z"
         fill="#0093ae"
         id="path113" />
      <path
         d="m 493.68377,7.21262 14.08188,-0.0242 c 0.0226,20.60917 0.10209,41.22389 0.0861,61.82936 -3.36143,3.55534 -6.8571,6.9895 -10.25718,10.50613 -2.49623,0.01163 -4.985,0.01045 -7.4812,0.01474 q -0.0171,-6.66711 -0.0193,-13.33764 c 1.228,-0.013 2.45952,-0.0097 3.69109,-0.0082 q -0.0425,-29.49104 -0.10137,-58.98016 z"
         fill="#0093ae"
         id="path115" />
      <path
         d="m 512.33707,7.18056 14.08019,-0.0242 0.12429,72.31968 -14.08018,0.0242 z"
         fill="#0093ae"
         id="path117" />
      <path
         d="m 540.27873,7.13611 c 3.41177,3.38935 6.87335,6.738 10.27779,10.1326 l 0.0472,27.46186 c -3.39275,3.40632 -6.839,6.76512 -10.2429,10.166 q -5.02644,0.01965 -10.05648,0.02275 l -0.0236,-13.70524 6.0953,-0.01048 -0.035,-20.36087 -6.0953,0.01048 -0.0236,-13.70337 z"
         fill="#0093ae"
         id="path119" />
      <path
         d="m 555.1566,7.107 31.01857,-0.05331 0.0236,13.70336 -16.93669,0.02911 0.0772,44.913 16.93669,-0.02916 0.0236,13.70336 -31.01856,0.05331 z"
         fill="#0093ae"
         id="path121" />
      <path
         d="m 590.93219,7.04548 14.08564,-0.02421 0.12429,72.31969 -14.08564,0.0242 z"
         fill="#0093ae"
         id="path123" />
      <path
         d="m 621.29463,43.37187 c 2.81533,2.87012 5.73554,5.6516 8.5161,8.553 0.0763,9.12449 0.0387,18.25087 0.0726,27.37354 l -14.27123,0.02453 -0.0497,-28.92682 -7.04188,0.0121 -0.0236,-13.70333 7.04188,-0.01211 -0.0275,-15.98613 -7.04188,0.0121 -0.0235,-13.70337 11.00309,-0.01533 10.32633,10.44873 c 0.0187,5.64862 0.0156,11.299 0.0327,16.9476 z"
         fill="#0093ae"
         id="path125" />
      <path
         d="m 573.09244,34.48105 10.2769,-0.01766 0.0236,13.70505 -10.2769,0.01766 z"
         fill="#0093ae"
         id="path127" />
      <path
         d="m 454.17234,79.58743 -19.1662,0.04593 -9.19738,-10.25021 c 0.008,-4.11744 -0.0179,-8.22939 -0.0101,-12.34684 q 6.56211,-0.0059 13.12419,-0.02255 c 0.0124,2.963 0.0102,5.92438 0.0226,8.88553 3.45752,-0.0041 6.91877,-0.01923 10.37819,-0.01238 L 449.29051,48.807 c -0.783,0.0013 -1.56962,-8.8e-4 -2.351,-0.0272 -0.006,-4.35271 -0.0278,-8.7054 -0.0132,-13.06172 2.26834,0.01438 4.5366,-0.01344 6.803,0.0011 0.24426,-0.02978 0.39187,0.20882 0.55755,0.34274 q 4.49658,4.63815 9.00613,9.25426 a 0.61444,0.61444 0 0 1 0.19767,0.56585 q 0.0198,11.53067 0.0396,23.05758 z"
         fill="#0093ae"
         id="path129" />
      <path
         d="m 479.96245,106.9627 -21.5098,0.037 a 5.5349,5.5349 0 0 1 -3.89571,-1.42514 3.39452,3.39452 0 0 1 -1.05581,-2.54958 c -0.004,-4.26086 -0.022,-8.51981 -0.0146,-12.77881 a 3.78792,3.78792 0 0 1 2.55111,-3.34784 7.3476,7.3476 0 0 1 3.14428,-0.45771 q 10.37282,-0.0093 20.74524,-0.03189 l 0.007,3.805 -21.69728,0.03729 0.0222,12.94048 16.94026,-0.0291 -0.008,-4.56785 -8.18346,0.01407 -0.007,-3.80309 12.94048,-0.02224 z"
         fill="#0093ae"
         id="path131" />
      <path
         d="m 484.495,86.40085 20.75446,-0.03567 a 5.07021,5.07021 0 0 1 4.54771,2.29343 5.55305,5.55305 0 0 1 0.39827,2.83758 c -0.02,1.19658 0.0482,2.39866 -0.0251,3.59534 a 3.91672,3.91672 0 0 1 -2.64724,3.04855 c -1.39414,0.574 -2.92384,0.3617 -4.38872,0.40638 l 7.46621,8.35436 -5.88936,0.0212 q -3.74619,-4.17894 -7.47922,-8.36545 l -7.9591,0.01368 0.0144,8.3764 -4.757,0.008 z m 4.76355,3.7968 0.008,4.56954 16.17757,-0.0278 -0.008,-4.56954 z"
         fill="#0093ae"
         id="path133" />
      <path
         d="m 536.86744,106.8649 c -2.75937,-5.57408 -5.53716,-11.13514 -8.27453,-16.71829 l -2.16157,0.0037 c -2.71458,5.59252 -5.477,11.1631 -8.2172,16.74663 l -5.51444,0.008 c 3.36311,-6.85645 6.74638,-13.69655 10.09291,-20.5586 l 9.42217,-0.01619 c 3.372,6.8505 6.78063,13.67893 10.16709,20.52377 z"
         fill="#0093ae"
         id="path135" />
      <path
         d="m 544.6333,86.2975 24.1715,-0.04155 0.007,3.805 -19.41448,0.03337 0.008,4.56954 16.94027,-0.02911 0.007,3.80309 -16.94026,0.02911 0.0144,8.3764 -4.757,0.008 z"
         fill="#0093ae"
         id="path137" />
      <path
         d="m 599.44495,106.74455 -6.98487,-0.001 c -2.53325,-2.35938 -4.9566,-4.8477 -7.457,-7.244 -2.49193,2.4049 -4.90671,4.90153 -7.432,7.26961 l -6.98106,0.025 10.69559,-10.92588 c -3.246,-3.215 -6.54183,-6.38184 -9.78072,-9.606 l 7.00894,-0.01752 6.47736,6.32493 c 2.18378,-2.08817 4.27366,-4.27725 6.487,-6.33253 l 6.9756,-0.02119 c -3.25143,3.27392 -6.59146,6.46877 -9.83554,9.74985 z"
         fill="#0093ae"
         id="path139" />
      <path
         d="m 381.35973,22.89382 a 0.38778,0.38778 0 0 1 0.0439,-0.18021 c 2.85182,-5.9054 6.18645,-8.95869 9.63874,-8.82854 2.84013,0.10711 5.52953,2.42407 7.772,6.69388 2.12827,4.05693 3.82179,9.778 4.896,16.54773 a 0.41245,0.41245 0 0 1 -0.34478,0.47116 0.40649,0.40649 0 0 1 -0.46946,-0.3429 c -2.17969,-13.71245 -6.73473,-22.34945 -11.88548,-22.54275 -3.05152,-0.11428 -6.20429,2.85249 -8.8601,8.3604 a 0.41667,0.41667 0 0 1 -0.79085,-0.17877 z"
         fill="#0093ae"
         id="path141" />
      <path
         d="m 402.65658,74.29027 -1.2e-4,-0.06983 a 120.51515,120.51515 0 0 0 1.3993,-13.67456 0.4138,0.4138 0 0 1 0.43129,-0.39771 0.42085,0.42085 0 0 1 0.39395,0.43488 120.92425,120.92425 0 0 1 -1.4044,13.77018 0.41235,0.41235 0 0 1 -0.82,-0.063 z"
         fill="#0093ae"
         id="path143" />
      <path
         d="m 374.7221,61.31513 -6e-4,-0.34746 -7e-4,-0.41184 7.1e-4,0.41372 v 0.0017 c 2e-4,0.11407 0.24114,0.22941 0.24133,0.34348 0.038,22.13848 5.94277,39.59605 13.338,39.81317 2.59012,0.0746 5.274,-2.00895 7.642,-6.02563 2.36608,-4.00387 4.40205,-9.737 5.84621,-16.57918 a 0.42422,0.42422 0 0 1 0.503,-0.32066 0.41824,0.41824 0 0 1 0.32628,0.48845 c -1.45681,6.93222 -3.49621,12.75359 -5.90282,16.83093 -2.53649,4.29459 -5.4112,6.52 -8.31756,6.4313 -3.93374,-0.11466 -7.35467,-4.45227 -9.94143,-12.214 -2.50173,-7.50442 -3.71579,-17.58634 -3.73442,-28.42397 z"
         fill="#0093ae"
         id="path145" />
      <polygon
         points="390.731,69.927 395.927,68.771 404.271,79.673 399.129,66.861 402.875,63.248 397.679,64.404 389.335,53.502 394.478,66.318 "
         fill="#0093ae"
         id="polygon147" />
      <path
         d="m 385.5124,55.11111 c 0.77048,0.15321 0.66067,0.442 0.78512,1.22287 l 0.117,0.72767 -1.21727,-0.22585 -0.11513,-0.72579 c -0.12443,-0.7828 -0.33282,-1.12613 0.43028,-0.9989 z m 1.10932,-1.58074 -3.04853,-0.56094 c -0.83109,-0.15123 -1.101,0.0992 -0.97271,0.90233 l 0.745,4.63076 5.34335,0.98352 -0.745,-4.63265 a 1.39941,1.39941 0 0 0 -1.32211,-1.32302 z m 4.85539,29.41284 -0.29411,-0.05651 0.76921,4.78166 a 1.09588,1.09588 0 0 0 0.85426,0.81826 c 0.412,0.07646 0.69822,-0.16665 0.637,-0.54695 l -0.19527,-1.22767 -0.31582,-1.957 -0.078,-0.49434 a 1.85565,1.85565 0 0 0 -1.37727,-1.31745 z m -13.82895,-33.51316 0.21332,0.03652 a 2.42784,2.42784 0 0 0 -0.0468,0.57718 l 0.78609,4.96537 c -0.99113,-0.1822 -1.23958,-1.49239 -1.55923,-3.488 l -0.36418,-2.275 -6.56061,-1.20561 0.47947,2.988 c 0.73693,7.35141 4.543,10.146 9.07733,11.03532 l 1.43631,8.9567 7.77223,1.43128 0.11889,0.72954 c 0.12635,0.79768 0.27316,0.68148 -0.55793,0.52856 l -7.1121,-1.3093 1.03312,6.43158 0.47071,0.08559 a 2.96742,2.96742 0 0 0 -0.19385,1.65653 l 1.78543,11.12314 5.58793,1.029 0.51355,-0.72518 a 5.60616,5.60616 0 0 0 2.40447,1.25133 l 0.88271,0.175 a 3.334,3.334 0 0 0 3.94156,-3.87613 l -1.02382,-6.38568 a 5.95838,5.95838 0 0 0 -2.01645,-3.27956 3.75339,3.75339 0 0 0 1.02991,-2.88219 l -1.14081,-7.106 -1.75779,0.79884 1.02386,6.40789 a 1.33659,1.33659 0 0 1 -0.94929,1.71486 c -0.19305,-0.0695 -8.94722,-1.69785 -8.94722,-1.69785 l -0.368,-2.29891 6.62671,1.222 c 0.82751,0.15292 1.0955,-0.09562 0.96726,-0.89686 l -0.708,-4.40477 -7.77412,-1.43146 -0.40131,-2.52681 8.89931,1.64091 2.44862,-2.08485 -2.71861,-7.48766 0.56852,3.55216 0.007,0.057 -12.14478,-2.23652 a 9.02558,9.02558 0 0 1 -6.50938,-6.777 l -0.47758,-2.98255 2.42531,0.44814 0.366,2.27125 A 6.1415,6.1415 0 0 0 379.6,57.81047 l 1.31669,0.24769 -0.9513,-5.919 c -0.20453,-1.26979 0.56639,-1.9604 1.9068,-1.71086 l 5.71295,1.05083 a 3.23172,3.23172 0 0 1 2.29507,1.66506 l 0.15249,0.01253 2.28808,2.96477 -0.297,-1.73475 a 6.4669,6.4669 0 0 0 -2.22689,-3.71645 3.72868,3.72868 0 0 0 1.23174,-3.07188 l -1.02379,-6.37477 5.58793,1.029 0.74508,4.65091 c 0.39766,2.479 3.18884,5.21119 5.80733,5.69572 l 3.76194,0.69014 c 2.62018,0.48451 4.67582,-1.35912 4.27818,-3.83436 l -1.62963,-10.16759 -11.663,-2.14719 -1.50306,-9.359 a 2.2746,2.2746 0 0 0 -1.74555,-1.71757 l -18.82853,-3.46751 c -0.83674,-0.151 -1.41483,0.36458 -1.28661,1.1566 l 2.86519,17.86183 7.77581,1.43146 0.11532,0.72955 c 0.12824,0.80125 0.27316,0.68148 -0.55794,0.52668 l -7.1121,-1.30761 z m 4.23618,-13.2657 -0.95873,-5.97416 1.2118,0.224 0.77663,4.822 6.316,1.16555 -0.77475,-4.82571 1.21708,0.22227 0.95516,5.97415 z m -1.94348,-0.35882 -2.67158,-0.49176 -1.69281,-10.56822 17.73271,3.26159 1.39733,8.73071 -2.43094,-0.44437 -0.99207,-6.202 -5.10254,-0.94158 0.812,5.05548 -2.43095,-0.44813 -0.81,-5.05341 -5.10066,-0.94158 z m -0.64451,12.142 -0.40508,-2.52867 6.62671,1.22016 c 0.82751,0.155 1.09549,-0.09919 0.96725,-0.89667 l -0.70419,-4.405 -7.77411,-1.43127 -0.40508,-2.5268 10.20115,1.8776 0.0112,0.06059 1.34159,8.38333 c 0.20621,1.2681 -0.56094,1.9587 -1.90322,1.71274 z m 12.53129,16.40967 0.39387,2.4679 -10.2013,-1.87751 -0.40507,-2.52493 10.20129,1.87566 z m -4.77679,15.33825 4.71994,0.867 a 4.43105,4.43105 0 0 1 3.17831,3.24426 l 0.94752,5.91 c 0.15981,0.99224 -0.95291,1.6889 -2.04139,1.48505 l -1.517,-0.28784 A 3.26763,3.26763 0 0 1 389.93,88.61109 l -0.98669,-6.13767 -0.55146,-0.08544 a 0.79066,0.79066 0 0 0 -1.01868,0.87474 l 1.10183,6.85818 -2.49328,-0.45894 -1.23563,-7.73471 a 1.89023,1.89023 0 0 1 2.30476,-2.2318 z m 13.15526,-36.5943 4.61507,0.85245 0.52032,3.214 c 0.0668,0.42264 -0.17169,0.6399 -0.6185,0.55238 l -3.16074,-0.579 a 1.00939,1.00939 0 0 1 -0.83958,-0.82016 z"
         fill="#0093ae"
         id="path149" />
      <path
         d="m 398.08345,63.66808 2.70457,-0.6847 -0.0466,-0.386 -0.66747,-0.12195 a 1.12832,1.12832 0 0 1 -0.90953,-0.89175 l -0.42561,-2.64253 c -0.0687,-0.43732 0.20662,-0.68774 0.67,-0.60215 l 7.16916,1.32031 a 1.12832,1.12832 0 0 1 0.90765,0.89176 l 0.42372,2.64253 c 0.0725,0.43543 -0.20832,0.68418 -0.66811,0.60027 l -0.91375,-0.16934 0.85657,5.344 1.09393,0.19839 c 2.75631,0.50818 4.8486,-1.37032 4.43417,-3.978 l -0.82117,-5.11231 c -0.41989,-2.60394 -3.26106,-5.3912 -6.01717,-5.89731 l -7.651,-1.40776 c -2.76177,-0.51 -4.8486,1.36845 -4.43416,3.97617 l 0.27868,1.7071 z"
         fill="#0093ae"
         id="path151" />
      <path
         d="m 399.72225,67.45369 a 4.71474,4.71474 0 0 0 0.90476,0.30544 l 0.971,0.18034 -0.34,-2.12806 z"
         fill="#0093ae"
         id="path153" />
    </g>
  </g>
  <metadata
     id="metadata977">
    <rdf:RDF>
      <cc:Work
         rdf:about="">
        <dc:title>logo</dc:title>
      </cc:Work>
    </rdf:RDF>
  </metadata>
</svg>
