<?xml version="1.0" encoding="UTF-8" standalone="no"?>
<svg
   width="351.12018"
   height="112.51338"
   viewBox="0 0 351.12018 112.51338"
   version="1.1"
   id="svg74"
   sodipodi:docname="ti994a.svg"
   inkscape:version="1.1 (c68e22c387, 2021-05-23)"
   xmlns:inkscape="http://www.inkscape.org/namespaces/inkscape"
   xmlns:sodipodi="http://sodipodi.sourceforge.net/DTD/sodipodi-0.dtd"
   xmlns="http://www.w3.org/2000/svg"
   xmlns:svg="http://www.w3.org/2000/svg">
  <defs
     id="defs78" />
  <sodipodi:namedview
     id="namedview76"
     pagecolor="#ffffff"
     bordercolor="#666666"
     borderopacity="1.0"
     inkscape:pageshadow="2"
     inkscape:pageopacity="0.0"
     inkscape:pagecheckerboard="0"
     showgrid="false"
     fit-margin-top="0"
     fit-margin-left="0"
     fit-margin-right="0"
     fit-margin-bottom="0"
     inkscape:zoom="1.113"
     inkscape:cx="175.65139"
     inkscape:cy="55.705301"
     inkscape:window-width="1920"
     inkscape:window-height="1138"
     inkscape:window-x="-8"
     inkscape:window-y="-8"
     inkscape:window-maximized="1"
     inkscape:current-layer="svg74" />
  <g
     id="Layer_3"
     data-name="Layer 3"
     transform="translate(-324.43965,-0.73662489)">
    <rect
       x="440.79001"
       y="19.969999"
       width="69.260002"
       height="16.76"
       fill="#ffffff"
       id="rect2" />
    <rect
       x="452.51001"
       y="53.880001"
       width="73.720001"
       height="32.91"
       fill="#ffffff"
       id="rect4" />
    <path
       d="M 660.84,53.56 V 40.13 h -5.61 V 27.61 h -5.74 V 11.12 h -26.61 v 16.49 h -6 v 12.52 h -28.3 v -10 h 2.21 V 12.48 h -19.17 v 8.85 h -5.74 v 4.45 h -3.14 v 4.51 h -4.82 v 6.6 h -4.21 v 3.24 H 547 V 57 h 31.91 v 9.62 h 42.57 V 57 h 27.39 v 5.47 h 14.74 V 53.56 Z M 566.4,38.46 h 1.16 V 32 h 3 v -3.65 h 1 v 1.83 h 2.48 v 10 h -7.7 z"
       fill="#ffffff"
       id="path6" />
  </g>
  <path
     d="M 55.81035,7.3733751 V 21.913375 h -16.62 v 42.7 h -16.22 v -42.7 h -16 l 0.13,-14.5399999 h 48.68 m 0,-6.99999999 h -48.65 A 7,7 0 0 0 0.13035001,7.3133751 L 3.5000884e-4,21.843375 A 7,7 0 0 0 7.00035,28.913375 h 9 v 35.7 a 7,7 0 0 0 7,7 h 16.22 a 7,7 0 0 0 7,-7 v -35.7 h 9.62 a 7,7 0 0 0 7,-7 V 7.3733751 a 7,7 0 0 0 -7,-6.99999999 z"
     fill="#ffffff"
     id="path9" />
  <path
     d="M 76.32035,7.3733751 V 64.743375 h -16.23 l 0.26,-57.3699999 h 16 m 0,-6.99999999 h -16 a 7,7 0 0 0 -7,6.99999999 l -0.26,57.3699999 a 7,7 0 0 0 7,7 h 16.23 a 7,7 0 0 0 7,-7 V 7.3733751 a 7,7 0 0 0 -7,-6.99999999 z"
     fill="#ffffff"
     id="path11" />
  <path
     d="m 95.66035,28.403375 v 11.29 h -14.41 v -11.29 h 14.41 m 0,-7 h -14.41 a 7,7 0 0 0 -7,7 v 11.29 a 7,7 0 0 0 7,7 h 14.41 a 7,7 0 0 0 7,-7 v -11.29 a 7,7 0 0 0 -7,-7 z"
     fill="#ffffff"
     id="path13" />
  <path
     d="m 121.44035,7.0133751 c 6.1,0 11,1 14.67,2.93 a 21.18,21.18 0 0 1 8.83,9.3199999 q 3.3,6.39 3.3,16.86 0,15.4 -6.94,22.57 -6.94,7.17 -19.23,7.16 a 33.64,33.64 0 0 1 -11.51,-1.59 17.79,17.79 0 0 1 -7,-4.6 20.58,20.58 0 0 1 -4.28,-7.57 l 16.83,-2 a 8.12,8.12 0 0 0 2.24,4.66 5.74,5.74 0 0 0 3.86,1.36 7.07,7.07 0 0 0 6.42,-3.85 q 1.67,-2.84 2.49,-12 a 20.79,20.79 0 0 1 -6.23,4.27 18.7,18.7 0 0 1 -7.39,1.36 19.16,19.16 0 0 1 -13.82,-5.43 18.29,18.29 0 0 1 -5.63,-13.74 19.29,19.29 0 0 1 2.87,-10.32 18.29,18.29 0 0 1 7.89,-6.9999999 29.5,29.5 0 0 1 12.63,-2.38 m 0.75,29.1399999 a 7.93,7.93 0 0 0 5.94,-2.44 q 2.37,-2.45 2.37,-7 a 10.09,10.09 0 0 0 -2.49,-7.24 8.08,8.08 0 0 0 -6.07,-2.61 7.35,7.35 0 0 0 -5.59,2.39 q -2.22,2.37 -2.22,7.1 0,4.73 2.31,7.3 a 7.46,7.46 0 0 0 5.75,2.52 m -0.75,-36.16999989 a 36.42,36.42 0 0 0 -15.63,3.05999999 25.19,25.19 0 0 0 -10.85,9.6999999 26.31,26.31 0 0 0 -3.91,14 25.13,25.13 0 0 0 7.39,18.4 7,7 0 0 0 -5.75,9.09 27.49,27.49 0 0 0 5.78,10.12 24.78,24.78 0 0 0 9.68,6.41 c 3.62,1.36 8.17,2 13.92,2 10.12,0 18.29,-3.13 24.26,-9.29 5.97,-6.16 8.91,-15.33 8.91,-27.44 0,-8.19 -1.34,-14.76 -4.09,-20.07 a 28,28 0 0 0 -11.76,-12.2399999 c -4.76,-2.49 -10.63,-3.73999999 -17.95,-3.73999999 z m 0.75,29.13999989 c -0.36,0 -0.4,0 -0.58,-0.24 0,0 -0.48,-0.54 -0.48,-2.58 a 5,5 0 0 1 0.36,-2.34 0.58,0.58 0 0 1 0.1,-0.09 1.39,1.39 0 0 1 0.35,0 1.14,1.14 0 0 1 1,0.44 4.07,4.07 0 0 1 0.56,2.41 3.68,3.68 0 0 1 -0.4,2.12 c -0.17,0.18 -0.3,0.31 -0.91,0.31 z"
     fill="#ffffff"
     id="path15" />
  <path
     d="m 173.94035,7.0133751 q 9.14,0 14.66,2.93 a 21.07,21.07 0 0 1 8.83,9.3199999 q 3.3,6.39 3.3,16.86 0,15.4 -6.93,22.57 -6.93,7.17 -19.24,7.15 a 33.64,33.64 0 0 1 -11.47,-1.58 17.75,17.75 0 0 1 -7,-4.6 20.3,20.3 0 0 1 -4.28,-7.57 l 16.82,-2 a 8.12,8.12 0 0 0 2.24,4.66 5.78,5.78 0 0 0 3.87,1.36 7.06,7.06 0 0 0 6.38,-3.85 q 1.67,-2.84 2.5,-12 a 20.79,20.79 0 0 1 -6.23,4.27 18.75,18.75 0 0 1 -7.4,1.36 19.12,19.12 0 0 1 -13.81,-5.43 18.25,18.25 0 0 1 -5.62,-13.7 19.2,19.2 0 0 1 2.87,-10.32 18.29,18.29 0 0 1 7.89,-6.9999999 29.43,29.43 0 0 1 12.63,-2.38 m 0.75,29.1399999 a 7.93,7.93 0 0 0 5.94,-2.44 q 2.35,-2.45 2.36,-7 a 10.09,10.09 0 0 0 -2.49,-7.24 8.06,8.06 0 0 0 -6.06,-2.61 7.32,7.32 0 0 0 -5.6,2.35 q -2.22,2.37 -2.22,7.1 c 0,3.19 0.76,5.62 2.3,7.3 a 7.49,7.49 0 0 0 5.76,2.52 m -0.75,-36.16999989 a 36.42,36.42 0 0 0 -15.63,3.05999999 25.27,25.27 0 0 0 -10.86,9.6999999 26.3,26.3 0 0 0 -3.9,14 25.09,25.09 0 0 0 7.39,18.4 7,7 0 0 0 -5.75,9.09 27.47,27.47 0 0 0 5.77,10.12 24.86,24.86 0 0 0 9.68,6.41 c 3.62,1.36 8.18,2 13.92,2 10.13,0 18.29,-3.13 24.26,-9.29 5.97,-6.16 8.91,-15.33 8.91,-27.44 0,-8.19 -1.33,-14.76 -4.08,-20.07 a 28.1,28.1 0 0 0 -11.77,-12.2399999 c -4.75,-2.49 -10.62,-3.73999999 -17.94,-3.73999999 z m 0.75,29.13999989 c -0.37,0 -0.4,0 -0.59,-0.24 0,0 -0.47,-0.54 -0.47,-2.58 a 5.08,5.08 0 0 1 0.35,-2.34 l 0.11,-0.09 a 1.29,1.29 0 0 1 0.35,0 1.12,1.12 0 0 1 1,0.44 4.07,4.07 0 0 1 0.56,2.41 3.82,3.82 0 0 1 -0.39,2.12 c -0.18,0.18 -0.31,0.31 -0.91,0.31 z"
     fill="#ffffff"
     id="path17" />
  <path
     d="m 229.56035,7.2633751 -26,58.9999999 h -7 l 25,-58.9999999 h 8 m 0,-6.99999999 h -8 a 7,7 0 0 0 -6.45,4.25999999 l -25,59.0699999 a 7,7 0 0 0 6.45,9.67 h 7 a 7,7 0 0 0 6.4,-4.18 l 26,-59.07 a 7,7 0 0 0 -6.4,-9.74999989 z m 0,13.99999989 z"
     fill="#ffffff"
     id="path19" />
  <path
     d="m 250.56035,67.263375 v -10.63 h -30.84 v -15.69 l 31.91,-35.4299999 h 17.56 V 40.513375 h 7.64 v 16.12 h -7.64 v 10.63 z m 3.89,-14.53 v 0 10.64 h 10.86 v -10.63 h 7.64 v -8.37 h -7.64 V 9.3733751 h -11.95 l -29.74,32.9999999 v 10.37 m 30.82,-8.37 h -22.64 l 22.64,-24.88 m -13.83,21 h 9.95 v -10.94 l -9.94,10.93 z"
     fill="none"
     stroke="#ffffff"
     stroke-linecap="round"
     stroke-linejoin="round"
     stroke-width="7"
     id="path21" />
  <path
     d="m 323.61035,67.263375 -3,-9.39 h -18.57 l -3,9.39 h -23.48 l 24.45,-60.7799999 h 23.16 l 24.45,60.7799999 z m -0.21,-13.29 3,9.39 h 15.4 l -21.24,-52.98 h -17.9 l -21.32,53 h 14.9 l 3,-9.39 h 22.79 v 2 l -1.85,0.6 1.85,-0.6 v -2 z m -2.63,-8.41 h -18.75 l 9.33,-28.66 m -4,24.77 h 8 l -4,-12.24 z"
     fill="none"
     stroke="#ffffff"
     stroke-linecap="round"
     stroke-linejoin="round"
     stroke-width="7"
     id="path23" />
  <path
     d="m 35.56035,79.493375 a 12.18,12.18 0 0 1 6.4,1.52 6.87,6.87 0 0 1 3.19,4.33 l -4,0.48 a 5,5 0 0 0 -2,-2.81 6.2,6.2 0 0 0 -3.48,-0.94 7.25,7.25 0 0 0 -5,1.7 q -1.92,1.69 -1.92,5.37 0,3.68 1.86,5.43 a 6.93,6.93 0 0 0 4.88,1.69 6.73,6.73 0 0 0 4,-1.14 5.18,5.18 0 0 0 2,-3.48 l 4,0.4 a 7.62,7.62 0 0 1 -3.36,5 11.7,11.7 0 0 1 -6.57,1.8 12,12 0 0 1 -8,-2.49 8.74,8.74 0 0 1 -3,-7.12 10.31,10.31 0 0 1 1.29,-5.24 7.94,7.94 0 0 1 3.92,-3.38 14.47,14.47 0 0 1 5.79,-1.12 m 0,-7 a 21.69,21.69 0 0 0 -8.49,1.68 14.86,14.86 0 0 0 -7.25,6.33 17.32,17.32 0 0 0 -2.21,8.76 c 0,6.55 3,10.42 5.53,12.510005 a 18.84,18.84 0 0 0 12.39,4.1 18.62,18.62 0 0 0 10.53,-3 14.63,14.63 0 0 0 6.33,-9.400005 7,7 0 0 0 -0.91,-5.11 7.07,7.07 0 0 0 0.46,-4.69 13.83,13.83 0 0 0 -6.32,-8.6 19,19 0 0 0 -10.06,-2.58 z"
     fill="#ffffff"
     id="path25" />
  <path
     d="m 58.77035,79.493375 a 12.61,12.61 0 0 1 8.1,2.5 8.36,8.36 0 0 1 3.14,6.91 9.86,9.86 0 0 1 -1.39,5.62 9,9 0 0 1 -4.06,3.18 14.57,14.57 0 0 1 -5.8,1.14 12.6,12.6 0 0 1 -8.16,-2.5 8.66,8.66 0 0 1 -3.11,-7.18 c 0,-3.43 1.24,-6 3.71,-7.61 a 13.32,13.32 0 0 1 7.56,-2.06 m 0,16.77 a 7.35,7.35 0 0 0 5,-1.78 6.87,6.87 0 0 0 2,-5.42 6.56,6.56 0 0 0 -2,-5.21 8.12,8.12 0 0 0 -10.1,0 6.68,6.68 0 0 0 -2,5.31 6.73,6.73 0 0 0 2,5.33 7.39,7.39 0 0 0 5.11,1.77 m 0,-23.77 a 20.27,20.27 0 0 0 -11.43,3.22 15.56,15.56 0 0 0 -6.84,13.45 15.52,15.52 0 0 0 5.73,12.650005 19.54,19.54 0 0 0 12.54,4 21.52,21.52 0 0 0 8.54,-1.7 15.91,15.91 0 0 0 7.1,-5.680005 16.68,16.68 0 0 0 2.6,-9.56 15.26,15.26 0 0 0 -5.79,-12.39 19.43,19.43 0 0 0 -12.45,-4 z m -0.08,16.6 h 0.14 a 1,1 0 0 0 0,0.17 h -0.13 v -0.17 z"
     fill="#ffffff"
     id="path27" />
  <path
     d="m 99.92035,79.493375 a 8.74,8.74 0 0 1 5.5,1.52 5.65,5.65 0 0 1 1.92,4.7 v 12.71 h -4 v -11.66 a 6.6,6.6 0 0 0 -0.4,-2.71 2.89,2.89 0 0 0 -1.43,-1.34 5.67,5.67 0 0 0 -2.45,-0.5 6.6,6.6 0 0 0 -4.2,1.3 4.91,4.91 0 0 0 -1.68,4.15 v 10.76 h -4.12 v -12 a 3.66,3.66 0 0 0 -4.25,-4.16 7.33,7.33 0 0 0 -3.18,0.69 4.39,4.39 0 0 0 -2.12,2 9.06,9.06 0 0 0 -0.65,3.87 v 9.61 h -4.08 v -18.52 h 3.65 v 2.59 a 8,8 0 0 1 3,-2.18 10.33,10.33 0 0 1 4.27,-0.83 9.79,9.79 0 0 1 4.38,0.85 5,5 0 0 1 2.41,2.39 9.41,9.41 0 0 1 7.42,-3.24 m 0,-7 a 17.16,17.16 0 0 0 -7,1.43 17,17 0 0 0 -7.18,-1.43 18,18 0 0 0 -5.21,0.73 7.1,7.1 0 0 0 -2.07,-0.31 h -3.65 a 7,7 0 0 0 -7,7 v 18.51 a 7,7 0 0 0 7,7.000005 h 4.08 a 7,7 0 0 0 5.1,-2.21 7,7 0 0 0 5.1,2.21 h 4.07 a 7,7 0 0 0 5.08,-2.19 7,7 0 0 0 5.08,2.19 h 4 a 7,7 0 0 0 7,-7.000005 v -12.71 a 12.38,12.38 0 0 0 -4.57,-10.18 15.44,15.44 0 0 0 -9.85,-3 z"
     fill="#ffffff"
     id="path29" />
  <path
     d="m 124.06035,79.493375 a 11.68,11.68 0 0 1 5.43,1.22 8.25,8.25 0 0 1 3.55,3.44 10.1,10.1 0 0 1 1.2,4.87 9.92,9.92 0 0 1 -1.33,5.12 8.62,8.62 0 0 1 -3.84,3.48 12.08,12.08 0 0 1 -5.31,1.22 9.61,9.61 0 0 1 -3.65,-0.67 8.23,8.23 0 0 1 -2.66,-1.67 v 9.000005 h -4.07 V 79.913375 h 3.71 v 2.4 a 8.66,8.66 0 0 1 3,-2.12 10.21,10.21 0 0 1 4,-0.7 m -0.6,16.77 a 6.65,6.65 0 0 0 4.65,-1.77 q 1.94,-1.77 1.93,-5.48 a 6.93,6.93 0 0 0 -1.88,-5.3 6.38,6.38 0 0 0 -4.52,-1.76 6.52,6.52 0 0 0 -4.6,1.87 7.08,7.08 0 0 0 -2,5.45 q 0,3.57 1.87,5.28 a 6.53,6.53 0 0 0 4.55,1.71 m 0.57,-23.77 a 18.27,18.27 0 0 0 -5.09,0.67 7.29,7.29 0 0 0 -1.88,-0.25 h -3.71 a 7,7 0 0 0 -7,7 v 25.600005 a 7,7 0 0 0 7,7 h 4.07 a 7,7 0 0 0 7,-6.69 19,19 0 0 0 7.66,-1.89 15.52,15.52 0 0 0 6.86,-6.270005 17.49,17.49 0 0 0 0.24,-16.83 15.16,15.16 0 0 0 -6.49,-6.34 18.62,18.62 0 0 0 -8.65,-2 z"
     fill="#ffffff"
     id="path31" />
  <path
     d="m 158.56035,79.913375 v 18.51 h -3.64 v -2.72 a 9.71,9.71 0 0 1 -7.62,3.14 12.19,12.19 0 0 1 -4,-0.63 6.74,6.74 0 0 1 -2.74,-1.58 5.33,5.33 0 0 1 -1.26,-2.37 12.72,12.72 0 0 1 -0.24,-2.92 v -11.43 h 4.07 v 10.26 a 13.85,13.85 0 0 0 0.25,3.31 3.31,3.31 0 0 0 1.63,2 6.12,6.12 0 0 0 3.07,0.7 8.32,8.32 0 0 0 3.44,-0.72 4.56,4.56 0 0 0 2.27,-2 7.78,7.78 0 0 0 0.67,-3.62 v -9.93 h 4.1 m 0,-7 h -4.1 a 7,7 0 0 0 -5.67,2.89 7,7 0 0 0 -5.66,-2.89 h -4.07 a 7,7 0 0 0 -7,7 v 11.47 a 18.06,18.06 0 0 0 0.49,4.75 12.12,12.12 0 0 0 2.91,5.300005 13.55,13.55 0 0 0 5.58,3.41 19.41,19.41 0 0 0 6.23,1 18.75,18.75 0 0 0 5.43,-0.77 6.93,6.93 0 0 0 2.19,0.35 h 3.67 a 7,7 0 0 0 7,-7.000005 v -18.51 a 7,7 0 0 0 -7,-7 z"
     fill="#ffffff"
     id="path33" />
  <path
     d="m 169.71035,73.443375 v 6.47 h 4.09 v 2.44 h -4.09 v 10.82 a 4.4,4.4 0 0 0 0.21,1.73 1.54,1.54 0 0 0 0.71,0.61 3.38,3.38 0 0 0 1.39,0.22 17.16,17.16 0 0 0 1.78,-0.12 l 0.59,2.77 a 18.88,18.88 0 0 1 -3.07,0.28 8.73,8.73 0 0 1 -3.44,-0.54 3.46,3.46 0 0 1 -1.72,-1.42 8.83,8.83 0 0 1 -0.5,-3.7 v -10.65 h -3 v -2.44 h 3 v -4.59 l 4,-1.88 m 0,-7 a 7.11,7.11 0 0 0 -2.95,0.65 l -4.05,1.88 a 7,7 0 0 0 -3.94,5.13 7,7 0 0 0 -3.1,5.81 v 2.44 a 7,7 0 0 0 3,5.73 v 4.92 c 0,3.27 0.42,5.41 1.41,7.150005 a 10.34,10.34 0 0 0 5,4.37 15.24,15.24 0 0 0 6.27,1.14 25.86,25.86 0 0 0 4.26,-0.4 7,7 0 0 0 5.73,-8.360005 l -0.59,-2.77 a 7,7 0 0 0 -3.99,-4.87 v -0.52 a 7,7 0 0 0 4.09,-6.37 v -2.46 a 7,7 0 0 0 -4.09,-6.37 v -0.1 a 7,7 0 0 0 -7,-7 z"
     fill="#ffffff"
     id="path35" />
  <path
     d="m 187.65035,79.493375 a 11.9,11.9 0 0 1 7.91,2.53 8.69,8.69 0 0 1 3,7.11 c 0,0.18 0,0.46 0,0.83 h -17.92 a 6.28,6.28 0 0 0 2.24,4.68 7.74,7.74 0 0 0 5,1.62 7.6,7.6 0 0 0 3.82,-0.91 6.21,6.21 0 0 0 2.51,-2.89 l 4.21,0.4 a 8.06,8.06 0 0 1 -3.67,4.4 13.54,13.54 0 0 1 -6.87,1.57 c -3.52,0 -6.3,-0.84 -8.36,-2.51 a 8.5,8.5 0 0 1 -3.09,-7 8.89,8.89 0 0 1 3.13,-7.25 12.29,12.29 0 0 1 8.1,-2.58 m -6.79,7.89 h 13.42 a 5.47,5.47 0 0 0 -1.54,-3.5 7.1,7.1 0 0 0 -5,-1.81 7.6,7.6 0 0 0 -4.72,1.44 5.21,5.21 0 0 0 -2.12,3.87 m 6.79,-14.89 a 19.19,19.19 0 0 0 -12.56,4.18 15.76,15.76 0 0 0 -5.66,12.65 15.42,15.42 0 0 0 5.68,12.450005 c 3.33,2.7 7.62,4.07 12.77,4.07 a 20.43,20.43 0 0 0 10.4,-2.52 15.16,15.16 0 0 0 6.77,-8.150005 7,7 0 0 0 0.29,-3.49 6.76,6.76 0 0 0 0.17,-1.42 c 0,-0.5 0,-0.87 0,-1.12 a 15.59,15.59 0 0 0 -5.59,-12.51 18.82,18.82 0 0 0 -12.34,-4.13 z"
     fill="#ffffff"
     id="path37" />
  <path
     d="m 212.38035,79.493375 a 9.75,9.75 0 0 1 4.18,1 l -1.4,2.91 a 7.22,7.22 0 0 0 -3,-0.68 4.65,4.65 0 0 0 -2.39,0.62 3.44,3.44 0 0 0 -1.52,1.72 9.66,9.66 0 0 0 -0.68,3.66 v 9.69 h -4.01 v -18.5 h 3.66 v 2.8 a 8.34,8.34 0 0 1 2.59,-2.59 5.54,5.54 0 0 1 2.62,-0.63 m 0,-7 a 12.81,12.81 0 0 0 -3.78,0.56 7.46,7.46 0 0 0 -1.43,-0.14 h -3.66 a 7,7 0 0 0 -7,7 v 18.51 a 7,7 0 0 0 7,7.000005 h 4 a 7,7 0 0 0 7,-7.000005 v -8 h 0.58 a 7,7 0 0 0 6.31,-4 l 1.4,-2.91 a 7,7 0 0 0 -3.3,-9.36 16.7,16.7 0 0 0 -7.19,-1.69 z"
     fill="#ffffff"
     id="path39" />
  <polygon
     points="347.41,22.65 331.44,22.65 331.57,8.11 380.25,8.11 380.25,22.65 363.63,22.65 363.63,65.35 347.41,65.35 "
     fill="#919191"
     id="polygon41"
     style="fill:#aa0000"
     transform="translate(-324.43965,-0.73662489)" />
  <polygon
     points="400.76,65.48 384.53,65.48 384.79,8.11 400.76,8.11 "
     fill="#919191"
     id="polygon43"
     style="fill:#aa0000;fill-opacity:1"
     transform="translate(-324.43965,-0.73662489)" />
  <rect
     x="81.250351"
     y="28.403374"
     width="14.41"
     height="11.29"
     fill="#919191"
     id="rect45"
     style="fill:#aa0000;fill-opacity:1" />
  <path
     d="m 99.34035,52.103375 16.83,-2 a 8.12,8.12 0 0 0 2.24,4.66 5.74,5.74 0 0 0 3.86,1.36 7.07,7.07 0 0 0 6.36,-3.86 q 1.67,-2.84 2.49,-12 a 20.79,20.79 0 0 1 -6.23,4.27 18.7,18.7 0 0 1 -7.39,1.36 19.16,19.16 0 0 1 -13.82,-5.43 18.29,18.29 0 0 1 -5.63,-13.74 19.29,19.29 0 0 1 2.87,-10.32 18.29,18.29 0 0 1 7.89,-6.9999999 29.5,29.5 0 0 1 12.63,-2.38 c 6.1,0 11,1 14.67,2.93 a 21.18,21.18 0 0 1 8.83,9.3099999 q 3.3,6.39 3.3,16.86 0,15.4 -6.94,22.57 -6.94,7.17 -19.23,7.16 a 33.64,33.64 0 0 1 -11.51,-1.59 17.79,17.79 0 0 1 -7,-4.6 20.58,20.58 0 0 1 -4.22,-7.56 z m 31.16,-25.38 a 10.09,10.09 0 0 0 -2.49,-7.24 8.08,8.08 0 0 0 -6.07,-2.61 7.35,7.35 0 0 0 -5.59,2.39 q -2.22,2.37 -2.22,7.1 0,4.73 2.31,7.3 a 7.46,7.46 0 0 0 5.75,2.52 7.93,7.93 0 0 0 5.94,-2.44 q 2.37,-2.48 2.37,-7.02 z"
     fill="#919191"
     id="path47"
     style="fill:#aa0000;fill-opacity:1" />
  <path
     d="m 151.84035,52.103375 16.82,-2 a 8.12,8.12 0 0 0 2.24,4.66 5.78,5.78 0 0 0 3.87,1.36 7.06,7.06 0 0 0 6.35,-3.86 q 1.67,-2.84 2.5,-12 a 20.79,20.79 0 0 1 -6.23,4.27 18.75,18.75 0 0 1 -7.4,1.36 19.12,19.12 0 0 1 -13.81,-5.43 18.25,18.25 0 0 1 -5.62,-13.7 19.2,19.2 0 0 1 2.87,-10.32 18.29,18.29 0 0 1 7.89,-6.9999999 29.43,29.43 0 0 1 12.63,-2.38 q 9.14,0 14.66,2.93 a 21.07,21.07 0 0 1 8.82,9.2699999 q 3.3,6.39 3.3,16.86 0,15.4 -6.93,22.57 -6.93,7.17 -19.24,7.15 a 33.64,33.64 0 0 1 -11.47,-1.58 17.75,17.75 0 0 1 -7,-4.6 20.3,20.3 0 0 1 -4.25,-7.56 z m 31.15,-25.38 a 10.09,10.09 0 0 0 -2.49,-7.24 8.06,8.06 0 0 0 -6.06,-2.61 7.32,7.32 0 0 0 -5.59,2.39 q -2.22,2.37 -2.22,7.1 c 0,3.19 0.76,5.62 2.3,7.3 a 7.49,7.49 0 0 0 5.76,2.52 7.93,7.93 0 0 0 5.94,-2.44 q 2.35,-2.48 2.36,-7.02 z"
     fill="#919191"
     id="path49"
     style="fill:#aa0000;fill-opacity:1" />
  <polygon
     points="527.99,67.04 520.96,67.04 546.01,7.98 553.95,7.98 "
     fill="#919191"
     id="polygon51"
     style="fill:#1a1a1a"
     transform="translate(-324.43965,-0.73662489)" />
  <path
     d="m 250.56035,67.263375 v -10.63 h -30.84 v -15.69 l 31.91,-35.4299999 h 17.56 V 40.513375 h 7.64 v 16.12 h -7.64 v 10.63 z m 3.89,-14.53 v 0 10.64 h 10.86 v -10.63 h 7.64 v -8.37 h -7.64 V 9.3733751 h -11.95 l -29.74,32.9999999 v 10.37 m 30.82,-8.37 h -22.64 l 22.64,-24.88 m -13.83,21 h 9.95 v -10.94 l -9.94,10.93 z"
     fill="#919191"
     id="path53"
     style="fill:#1a1a1a" />
  <path
     d="m 323.61035,67.263375 -3,-9.39 h -18.57 l -3,9.39 h -23.48 l 24.45,-60.7799999 h 23.16 l 24.45,60.7799999 z m -0.21,-13.29 3,9.39 h 15.4 l -21.24,-52.98 h -17.9 l -21.32,53 h 14.9 l 3,-9.39 h 22.79 v 2 l -1.85,0.6 1.85,-0.6 v -2 z m -2.63,-8.41 h -18.75 l 9.33,-28.66 m -4,24.77 h 8 l -4,-12.24 z"
     fill="#919191"
     id="path55"
     style="fill:#1a1a1a" />
  <path
     d="m 41.56035,91.643375 4,0.4 a 7.62,7.62 0 0 1 -3.36,5 11.7,11.7 0 0 1 -6.64,1.8 12,12 0 0 1 -8,-2.49 8.74,8.74 0 0 1 -3,-7.12 10.31,10.31 0 0 1 1.29,-5.24 7.94,7.94 0 0 1 3.92,-3.38 14.47,14.47 0 0 1 5.79,-1.12 12.18,12.18 0 0 1 6.4,1.52 6.87,6.87 0 0 1 3.19,4.33 l -4,0.48 a 5,5 0 0 0 -2,-2.81 6.2,6.2 0 0 0 -3.48,-0.94 7.25,7.25 0 0 0 -5,1.7 q -1.92,1.69 -1.92,5.37 0,3.68 1.86,5.43 a 6.93,6.93 0 0 0 4.88,1.69 6.73,6.73 0 0 0 4,-1.14 5.18,5.18 0 0 0 2.07,-3.48 z"
     fill="#919191"
     id="path57"
     style="fill:#1a1a1a" />
  <path
     d="m 47.50035,89.163375 c 0,-3.43 1.24,-6 3.71,-7.61 a 13.32,13.32 0 0 1 7.56,-2.06 12.61,12.61 0 0 1 8.1,2.5 8.36,8.36 0 0 1 3.14,6.91 9.86,9.86 0 0 1 -1.39,5.62 9,9 0 0 1 -4.06,3.18 14.57,14.57 0 0 1 -5.8,1.14 12.6,12.6 0 0 1 -8.16,-2.5 8.66,8.66 0 0 1 -3.1,-7.18 z m 4.19,0 a 6.73,6.73 0 0 0 2,5.33 8.09,8.09 0 0 0 10.11,0 6.87,6.87 0 0 0 2,-5.42 6.56,6.56 0 0 0 -2,-5.21 8.12,8.12 0 0 0 -10.1,0 6.68,6.68 0 0 0 -2.01,5.3 z"
     fill="#919191"
     id="path59"
     style="fill:#1a1a1a" />
  <path
     d="m 74.78035,98.423375 v -18.51 h 3.65 v 2.59 a 8,8 0 0 1 3,-2.18 10.33,10.33 0 0 1 4.27,-0.83 9.79,9.79 0 0 1 4.38,0.85 5,5 0 0 1 2.41,2.39 9.41,9.41 0 0 1 7.42,-3.24 8.74,8.74 0 0 1 5.5,1.52 5.65,5.65 0 0 1 1.92,4.7 v 12.71 h -4 v -11.66 a 6.6,6.6 0 0 0 -0.4,-2.71 2.89,2.89 0 0 0 -1.43,-1.34 5.67,5.67 0 0 0 -2.45,-0.5 6.6,6.6 0 0 0 -4.2,1.3 4.91,4.91 0 0 0 -1.68,4.15 v 10.76 h -4.11 v -12 a 3.66,3.66 0 0 0 -4.25,-4.16 7.33,7.33 0 0 0 -3.18,0.69 4.39,4.39 0 0 0 -2.12,2 9.06,9.06 0 0 0 -0.65,3.87 v 9.61 z"
     fill="#919191"
     id="path61"
     style="fill:#1a1a1a" />
  <path
     d="M 113.38035,105.51338 V 79.913375 h 3.71 v 2.4 a 8.66,8.66 0 0 1 3,-2.12 10.21,10.21 0 0 1 4,-0.7 11.68,11.68 0 0 1 5.43,1.22 8.25,8.25 0 0 1 3.55,3.44 10.1,10.1 0 0 1 1.2,4.87 9.92,9.92 0 0 1 -1.33,5.12 8.62,8.62 0 0 1 -3.84,3.48 12.08,12.08 0 0 1 -5.31,1.22 9.61,9.61 0 0 1 -3.65,-0.67 8.23,8.23 0 0 1 -2.66,-1.67 v 9.000005 z m 3.69,-16.250005 q 0,3.57 1.87,5.28 a 6.53,6.53 0 0 0 4.55,1.72 6.65,6.65 0 0 0 4.65,-1.77 q 1.94,-1.77 1.93,-5.48 a 6.93,6.93 0 0 0 -1.88,-5.3 6.38,6.38 0 0 0 -4.52,-1.76 6.52,6.52 0 0 0 -4.6,1.87 7.08,7.08 0 0 0 -2,5.44 z"
     fill="#919191"
     id="path63"
     style="fill:#1a1a1a" />
  <path
     d="m 154.89035,98.423375 v -2.72 a 9.71,9.71 0 0 1 -7.62,3.14 12.19,12.19 0 0 1 -4,-0.63 6.74,6.74 0 0 1 -2.71,-1.58 5.33,5.33 0 0 1 -1.26,-2.37 12.72,12.72 0 0 1 -0.24,-2.92 v -11.43 h 4.07 v 10.26 a 13.85,13.85 0 0 0 0.25,3.31 3.31,3.31 0 0 0 1.63,2 6.12,6.12 0 0 0 3.07,0.7 8.32,8.32 0 0 0 3.44,-0.72 4.56,4.56 0 0 0 2.27,-2 7.78,7.78 0 0 0 0.67,-3.62 v -9.93 h 4.1 v 18.51 z"
     fill="#919191"
     id="path65"
     style="fill:#1a1a1a" />
  <path
     d="m 173.80035,95.613375 0.59,2.77 a 18.88,18.88 0 0 1 -3.07,0.28 8.73,8.73 0 0 1 -3.44,-0.54 3.46,3.46 0 0 1 -1.72,-1.42 8.83,8.83 0 0 1 -0.5,-3.7 v -10.65 h -3 v -2.44 h 3 v -4.59 l 4,-1.88 v 6.47 h 4.09 v 2.44 h -4.09 v 10.82 a 4.4,4.4 0 0 0 0.21,1.73 1.54,1.54 0 0 0 0.71,0.61 3.38,3.38 0 0 0 1.39,0.22 17.16,17.16 0 0 0 1.83,-0.12 z"
     fill="#919191"
     id="path67"
     style="fill:#1a1a1a" />
  <path
     d="m 194.23035,92.463375 4.21,0.4 a 8.06,8.06 0 0 1 -3.69,4.4 13.54,13.54 0 0 1 -6.87,1.57 c -3.52,0 -6.3,-0.84 -8.36,-2.51 a 8.5,8.5 0 0 1 -3.09,-7 8.89,8.89 0 0 1 3.13,-7.25 12.29,12.29 0 0 1 8.1,-2.58 11.9,11.9 0 0 1 7.9,2.53 8.69,8.69 0 0 1 3,7.11 c 0,0.18 0,0.46 0,0.83 h -17.92 a 6.28,6.28 0 0 0 2.24,4.68 7.74,7.74 0 0 0 5,1.62 7.6,7.6 0 0 0 3.82,-0.91 6.21,6.21 0 0 0 2.53,-2.89 z m -13.37,-5.08 h 13.42 a 5.47,5.47 0 0 0 -1.54,-3.5 7.1,7.1 0 0 0 -5,-1.81 7.6,7.6 0 0 0 -4.72,1.44 5.21,5.21 0 0 0 -2.16,3.87 z"
     fill="#919191"
     id="path69"
     style="fill:#1a1a1a" />
  <path
     d="m 203.56035,98.423375 v -18.51 h 3.66 v 2.8 a 8.34,8.34 0 0 1 2.59,-2.59 5.54,5.54 0 0 1 2.62,-0.63 9.75,9.75 0 0 1 4.18,1 l -1.4,2.91 a 7.22,7.22 0 0 0 -3,-0.68 4.65,4.65 0 0 0 -2.39,0.62 3.44,3.44 0 0 0 -1.52,1.72 9.66,9.66 0 0 0 -0.68,3.66 v 9.69 z"
     fill="#919191"
     id="path71"
     style="fill:#1a1a1a" />
</svg>
