<?xml version="1.0" encoding="UTF-8" standalone="no"?>
<svg
   id="Layer_1"
   data-name="Layer 1"
   viewBox="0 0 514.01001 99.740028"
   version="1.1"
   sodipodi:docname="tic80.svg"
   width="514.01001"
   height="99.740028"
   inkscape:version="1.1 (c68e22c387, 2021-05-23)"
   xmlns:inkscape="http://www.inkscape.org/namespaces/inkscape"
   xmlns:sodipodi="http://sodipodi.sourceforge.net/DTD/sodipodi-0.dtd"
   xmlns="http://www.w3.org/2000/svg"
   xmlns:svg="http://www.w3.org/2000/svg"
   xmlns:rdf="http://www.w3.org/1999/02/22-rdf-syntax-ns#"
   xmlns:cc="http://creativecommons.org/ns#"
   xmlns:dc="http://purl.org/dc/elements/1.1/">
  <defs
     id="defs82" />
  <sodipodi:namedview
     id="namedview80"
     pagecolor="#ffffff"
     bordercolor="#666666"
     borderopacity="1.0"
     inkscape:pageshadow="2"
     inkscape:pageopacity="0.0"
     inkscape:pagecheckerboard="0"
     showgrid="false"
     fit-margin-top="0"
     fit-margin-left="0"
     fit-margin-right="0"
     fit-margin-bottom="0"
     inkscape:zoom="1.113"
     inkscape:cx="257.4124"
     inkscape:cy="49.415993"
     inkscape:window-width="1920"
     inkscape:window-height="1138"
     inkscape:window-x="-8"
     inkscape:window-y="-8"
     inkscape:window-maximized="1"
     inkscape:current-layer="Layer_1" />
  <title
     id="title2">logo</title>
  <g
     id="g939"
     transform="translate(-242.98997,-7.13)">
    <g
       id="Layer_3"
       data-name="Layer 3">
      <polygon
         points="492.68,43.51 498.5,43.51 498.5,17.68 495.33,17.68 495.33,12.68 492.68,12.68 492.68,10.84 468.33,10.84 468.33,12.68 391,12.68 391,22.68 395.5,22.68 395.5,51.01 414.83,51.01 414.83,22.68 434.83,22.68 434.83,39.01 429.33,39.01 429.33,48.01 461.02,48.01 461.02,43.51 468.33,43.51 468.33,50.01 492.68,50.01 "
         fill="#ffffff"
         id="polygon4" />
      <rect
         x="507.17999"
         y="25.18"
         width="26.67"
         height="10.17"
         fill="#ffffff"
         id="rect6" />
      <polygon
         points="615.17,44.34 615.17,33.63 616.17,33.63 616.17,19.26 610.39,19.26 610.39,10.84 585.5,10.84 585.5,19.26 571.42,19.26 571.42,12.68 545.17,12.68 545.17,19.26 539.84,19.26 539.84,32.51 537.5,32.51 537.5,44.34 547.5,44.34 547.5,50.01 570.67,50.01 570.67,44.34 585.5,44.34 585.5,51.01 610.39,51.01 610.39,44.34 "
         fill="#ffffff"
         id="polygon8" />
      <polygon
         points="318,70.23 318,59.68 300.14,59.68 300.14,70.23 291.33,70.23 291.33,72.98 286.68,72.98 286.68,66.9 274,66.9 274,58.68 253.18,58.68 253.18,66.9 248.18,66.9 248.18,74.84 251.84,74.84 251.84,84.84 254.68,84.84 254.68,91.45 262.83,91.45 262.83,95.51 286,95.51 286,84.84 291.33,84.84 291.33,96.84 335.33,96.84 335.33,95.51 371,95.51 371,103.68 395.5,103.68 395.5,95.51 403.68,95.51 403.68,78.91 402.83,78.91 402.83,65.5 359.18,65.5 359.18,64.16 326.5,64.16 326.5,65.5 319.68,65.5 319.68,70.23 "
         fill="#ffffff"
         id="polygon10" />
      <polygon
         points="444.89,74.84 442.68,74.84 442.68,83.64 442,83.64 442,91.45 448.18,91.45 448.18,95.51 519.49,95.51 519.49,96.84 557.84,96.84 557.84,102.34 563.84,102.34 568.18,102.34 578.67,102.34 578.67,96.84 590.9,96.84 590.9,89.18 604.11,89.18 604.11,95.51 636.17,95.51 636.17,89.18 648.17,89.18 648.17,95.51 732.5,95.51 732.5,89.18 734.67,89.18 734.67,77.14 739.17,77.14 739.17,82.01 752.5,82.01 752.5,70.23 748.34,70.23 748.34,65.51 662.67,65.51 662.67,58.18 644.5,58.18 644.5,65.51 444.89,65.51 "
         fill="#ffffff"
         id="polygon12" />
    </g>
    <rect
       x="279.04001"
       y="72.980003"
       width="21.110001"
       height="16.219999"
       fill="#ffffff"
       id="rect15" />
    <path
       d="m 490.27,14.15 v 6.5 h -13 v 19.48 h 13 v 6.5 h -19.49 v -6.5 H 464.3 V 20.65 h 6.48 v -6.5 h 19.49 m 0,-7 h -19.49 a 7,7 0 0 0 -7,6.52 7,7 0 0 0 -6.5,7 v 19.46 a 7,7 0 0 0 6.5,7 7,7 0 0 0 7,6.52 h 19.49 a 7,7 0 0 0 7,-7 v -6.5 a 7,7 0 0 0 -7,-7 h -6 v -5.5 h 6 a 7,7 0 0 0 7,-7 v -6.5 a 7,7 0 0 0 -7,-7 z"
       fill="#ffffff"
       id="path17" />
    <path
       d="m 574.68,20.65 v 6.5 h -6.49 v -6.5 h 6.49 m 0,-7 h -6.49 a 7,7 0 0 0 -7,7 v 6.5 a 7,7 0 0 0 7,7 h 6.49 a 7,7 0 0 0 7,-7 v -6.5 a 7,7 0 0 0 -7,-7 z"
       fill="#ffffff"
       id="path19" />
    <path
       d="m 613.65,20.65 v 19.48 h -6.5 V 20.65 h 6.5 m 0,-7 h -6.5 a 7,7 0 0 0 -7,7 v 19.48 a 7,7 0 0 0 7,7 h 6.5 a 7,7 0 0 0 7,-7 V 20.65 a 7,7 0 0 0 -7,-7 z"
       fill="#ffffff"
       id="path21" />
    <path
       d="m 314.94,73.9 v 13 h 6.5 v 6.5 h -26 v -6.5 h 6.49 v -6.51 h -6.49 V 73.9 h 19.47 m 0,-7 h -19.45 a 7,7 0 0 0 -7,7 v 6.49 a 6.83,6.83 0 0 0 0.8,3.25 6.79,6.79 0 0 0 -0.8,3.24 v 6.5 a 7,7 0 0 0 7,7 h 26 a 7,7 0 0 0 7,-7 v 0 -6.5 a 7,7 0 0 0 -6.5,-7 v -6 a 7,7 0 0 0 -7,-7 z"
       fill="#ffffff"
       id="path23" />
    <path
       d="m 269.48,60.91 v 6.49 h 13 v 6.5 h -13 v 13 h 13 v 6.5 H 263 v -6.5 h -6.49 v -13 H 250 v -6.5 h 6.49 v -6.49 h 13 m 0,-7 h -13 a 7,7 0 0 0 -7,6.51 7,7 0 0 0 -6.5,7 v 6.5 a 7,7 0 0 0 6.48,7 v 6 a 7,7 0 0 0 6.52,7 7,7 0 0 0 7,6.51 h 19.47 a 7,7 0 0 0 7,-7 v 0 -6.5 a 7,7 0 0 0 -4.37,-6.49 7,7 0 0 0 4.38,-6.44 v -6.5 a 7,7 0 0 0 -7,-7 h -6 a 7,7 0 0 0 -7,-6.49 z"
       fill="#ffffff"
       id="path25" />
    <path
       d="m 314.94,60.91 v 6.49 h -13 v -6.49 h 13 m 0,-7 h -13 a 7,7 0 0 0 -7,7 v 6.49 a 7,7 0 0 0 7,7 h 13 a 7,7 0 0 0 7,-7 v -6.49 a 7,7 0 0 0 -7,-7 z"
       fill="#ffffff"
       id="path27" />
    <path
       d="m 496.76,33.63 v 6.5 h -6.49 v -6.5 h 6.49 m 0,-7 h -6.49 a 7,7 0 0 0 -7,7 v 6.5 a 7,7 0 0 0 7,7 h 6.49 a 7,7 0 0 0 7,-7 v -6.5 a 7,7 0 0 0 -7,-7 z"
       fill="#ffffff"
       id="path29" />
    <path
       d="m 496.76,20.65 v 6.5 h -6.49 v -6.5 h 6.49 m 0,-7 h -6.49 a 7,7 0 0 0 -7,7 v 6.5 a 7,7 0 0 0 7,7 h 6.49 a 7,7 0 0 0 7,-7 v -6.5 a 7,7 0 0 0 -7,-7 z"
       fill="#ffffff"
       id="path31" />
    <path
       d="m 574.68,33.63 v 6.5 h -6.49 v -6.5 h 6.49 m 0,-7 h -6.49 a 7,7 0 0 0 -7,7 v 6.5 a 7,7 0 0 0 7,7 h 6.49 a 7,7 0 0 0 7,-7 v -6.5 a 7,7 0 0 0 -7,-7 z"
       fill="#ffffff"
       id="path33" />
    <path
       d="m 360.4,73.9 v 19.48 h -6.5 V 73.9 h 6.5 m 0,-7 h -6.5 a 7,7 0 0 0 -7,7 v 19.48 a 7,7 0 0 0 7,7 h 6.5 a 7,7 0 0 0 7,-7 v 0 -19.48 a 7,7 0 0 0 -7,-7 z"
       fill="#ffffff"
       id="path35" />
    <path
       d="m 607.15,14.15 v 6.5 h -13 v 19.48 h 13 v 6.5 h -19.49 v -6.5 h -6.48 V 20.65 h 6.48 v -6.5 h 19.48 m 0,-7 h -19.48 a 7,7 0 0 0 -7,6.52 7,7 0 0 0 -6.51,7 v 19.46 a 7,7 0 0 0 6.51,7 7,7 0 0 0 7,6.52 h 19.48 a 7,7 0 0 0 7,-7 v -6.5 a 7,7 0 0 0 -7,-7 h -6 v -5.5 h 6 a 7,7 0 0 0 7,-7 v -6.5 a 7,7 0 0 0 -7,-7 z"
       fill="#ffffff"
       id="path37" />
    <path
       d="m 529.22,27.15 v 6.48 h -19.47 v -6.48 h 19.47 m 0,-7 h -19.47 a 7,7 0 0 0 -7,7 v 6.48 a 7,7 0 0 0 7,7 h 19.47 a 7,7 0 0 0 7,-7 v -6.48 a 7,7 0 0 0 -7,-7 z"
       fill="#ffffff"
       id="path39" />
    <path
       d="m 568.19,14.15 v 6.5 h -13 v 6.5 h 13 v 6.48 h -13 v 6.5 h 13 v 6.5 h -19.48 v -6.5 h -6.49 v -6.5 h 6.49 v -6.48 h -6.49 v -6.5 h 6.49 v -6.5 h 19.48 m 0,-7 h -19.48 a 7,7 0 0 0 -7,6.52 7,7 0 0 0 -6.5,7 v 6.5 a 6.79,6.79 0 0 0 0.8,3.24 6.79,6.79 0 0 0 -0.8,3.24 v 6.5 a 7,7 0 0 0 6.5,7 7,7 0 0 0 7,6.52 h 19.48 a 7,7 0 0 0 7,-7 v -6.5 a 7.07,7.07 0 0 0 -0.8,-3.25 7.07,7.07 0 0 0 0.8,-3.25 v -6.52 a 7.07,7.07 0 0 0 -0.8,-3.25 7.07,7.07 0 0 0 0.8,-3.25 v -6.5 a 7,7 0 0 0 -7,-7 z"
       fill="#ffffff"
       id="path41" />
    <path
       d="m 509.75,67.4 v 6.5 h -13 v 13 h 13 v 6.5 h -19.48 v -6.5 h -6.49 v -13 h 6.49 v -6.5 h 19.48 m 0,-7 h -19.48 a 7,7 0 0 0 -7,6.52 7,7 0 0 0 -6.5,7 v 13 a 7,7 0 0 0 6.5,7 7,7 0 0 0 7,6.51 h 19.48 a 7,7 0 0 0 7,-7 v 0 -6.5 a 7,7 0 0 0 -4.38,-6.49 7,7 0 0 0 4.38,-6.44 v -6.5 a 7,7 0 0 0 -7,-7 z"
       fill="#ffffff"
       id="path43" />
    <path
       d="m 633.13,67.4 v 26 h -26 v -6.5 h 13 V 67.4 h 13 m 0,-7 h -13 a 7,7 0 0 0 -7,7 v 12.48 h -6 a 7,7 0 0 0 -7,7 v 6.5 a 7,7 0 0 0 7,7 h 26 a 7,7 0 0 0 7,-7 v 0 -26 a 7,7 0 0 0 -7,-7 z"
       fill="#ffffff"
       id="path45" />
    <path
       d="m 607.15,67.4 v 19.48 h -6.49 V 67.4 h 6.49 m 0,-7 h -6.49 a 7,7 0 0 0 -7,7 v 19.48 a 7,7 0 0 0 7,7 h 6.49 a 7,7 0 0 0 7,-7 V 67.4 a 7,7 0 0 0 -7,-7 z"
       fill="#ffffff"
       id="path47" />
    <path
       d="m 659.1,60.91 v 6.49 h 13 v 6.5 h -13 v 13 h 13 v 6.5 h -19.5 v -6.5 h -6.5 v -13 h -6.48 v -6.5 h 6.48 v -6.49 h 13 m 0,-7 h -13 a 7,7 0 0 0 -7,6.51 7,7 0 0 0 -6.51,7 v 6.5 a 7,7 0 0 0 6.49,7 v 6 a 7,7 0 0 0 6.51,7 7,7 0 0 0 7,6.51 h 19.48 a 7,7 0 0 0 7,-7 v 0 -6.5 a 7,7 0 0 0 -4.38,-6.49 7,7 0 0 0 4.39,-6.44 v -6.5 a 7,7 0 0 0 -7,-7 h -6 a 7,7 0 0 0 -7,-6.49 z"
       fill="#ffffff"
       id="path49" />
    <path
       d="m 594.16,73.9 v 13 h -6.49 v -13 h 6.49 m 0,-7 h -6.49 a 7,7 0 0 0 -7,7 v 13 a 7,7 0 0 0 7,7 h 6.49 a 7,7 0 0 0 7,-7 v 0 -13 a 7,7 0 0 0 -7,-7 z"
       fill="#ffffff"
       id="path51" />
    <path
       d="m 587.66,67.4 v 6.5 h -13 v 13 h 13 v 6.5 h -13 v 6.49 h -13 V 67.4 h 26 m 0,-7 h -26 a 7,7 0 0 0 -7,7 v 32.47 a 7,7 0 0 0 7,7 h 13 a 7,7 0 0 0 7,-6.49 h 6 a 7,7 0 0 0 7,-7 v -6.5 a 7,7 0 0 0 -4.38,-6.49 7,7 0 0 0 4.38,-6.49 v -6.5 a 7,7 0 0 0 -7,-7 z"
       fill="#ffffff"
       id="path53" />
    <path
       d="m 750,73.9 v 6.49 h -6.5 V 73.9 h 6.5 m 0,-7 h -6.5 a 7,7 0 0 0 -7,7 v 6.49 a 7,7 0 0 0 7,7 h 6.5 a 7,7 0 0 0 7,-7 V 73.9 a 7,7 0 0 0 -7,-7 z"
       fill="#ffffff"
       id="path55" />
    <path
       d="m 743.51,67.4 v 6.5 h -13 v 19.48 h -13 v -26 h 26 m 0,-7 h -26 a 7,7 0 0 0 -7,7 v 26 a 7,7 0 0 0 7,7 h 13 a 7,7 0 0 0 7,-7 v 0 -12.48 h 6 a 7,7 0 0 0 7,-7 v -6.5 a 7,7 0 0 0 -7,-7 z"
       fill="#ffffff"
       id="path57" />
    <path
       d="m 704.54,67.4 v 6.5 H 711 v 6.49 H 698 V 73.9 h -6.49 v 6.49 H 698 v 6.49 h 6.49 v 6.5 h -19.42 v -6.5 h -6.49 v -13 h 6.49 v -6.5 h 19.47 m 0,-7 h -19.47 a 7,7 0 0 0 -7,6.52 7,7 0 0 0 -6.51,7 v 13 a 7,7 0 0 0 6.51,7 7,7 0 0 0 7,6.51 h 19.47 a 7,7 0 0 0 7,-7 v -6 a 7,7 0 0 0 6.5,-7 V 73.9 a 7,7 0 0 0 -6.51,-7 7,7 0 0 0 -7,-6.52 z"
       fill="#ffffff"
       id="path59" />
    <path
       d="m 373.38,67.4 v 13 h -6.49 v -13 h 6.49 m 0,-7 h -6.49 a 7,7 0 0 0 -7,7 v 13 a 7,7 0 0 0 7,7 h 6.49 a 7,7 0 0 0 7,-7 v -13 a 7,7 0 0 0 -7,-7 z"
       fill="#ffffff"
       id="path61" />
    <path
       d="m 399.35,67.4 v 26 h -6.5 v 6.49 h -19.47 v -6.51 h 13 v -6.5 h -13 v -6.49 h 13 v -13 h 13 m 0,-7 h -13 a 7,7 0 0 0 -7,7 v 6 h -6 a 7,7 0 0 0 -7,7 v 6.49 a 6.83,6.83 0 0 0 0.8,3.25 6.83,6.83 0 0 0 -0.8,3.25 v 6.49 a 7,7 0 0 0 7,7 h 19.47 a 7,7 0 0 0 7,-6.51 7,7 0 0 0 6.53,-7 v -26 a 7,7 0 0 0 -7,-7 z"
       fill="#ffffff"
       id="path63" />
    <path
       d="m 418.84,14.15 v 6.5 h -6.5 v 26 h -13 v -26 h -6.5 v -6.5 h 26 m 0,-7 h -26 a 7,7 0 0 0 -7,7 v 6.5 a 7,7 0 0 0 6.5,7 v 19 a 7,7 0 0 0 7,7 h 13 a 7,7 0 0 0 7,-7 v -19 a 7,7 0 0 0 6.5,-7 v -6.5 a 7,7 0 0 0 -7,-7 z"
       fill="#ffffff"
       id="path65" />
    <path
       d="m 353.9,67.4 v 6.5 h -13 v 19.48 h -13 v -26 h 26 m 0,-7 h -26 a 7,7 0 0 0 -7,7 v 26 a 7,7 0 0 0 7,7 h 13 a 7,7 0 0 0 7,-7 v 0 -12.48 h 6 a 7,7 0 0 0 7,-7 v -6.5 a 7,7 0 0 0 -7,-7 z"
       fill="#ffffff"
       id="path67" />
    <path
       d="m 548.71,67.4 v 6.5 h 6.49 v 19.48 h -6.49 v -13 h -6.49 v 13 h -6.5 v -13 h -6.49 v 13 h -6.49 v -26 h 13 v 6.5 h 6.5 v -6.5 h 6.49 m 0,-7 h -6.49 a 7,7 0 0 1 -6.5,0 h -13 a 7,7 0 0 0 -7,7 v 26 a 7,7 0 0 0 7,7 h 6.49 a 7,7 0 0 1 6.49,0 h 6.5 a 7,7 0 0 1 6.49,0 h 6.49 a 7,7 0 0 0 7,-7 v 0 -19.48 a 7,7 0 0 0 -6.51,-7 7,7 0 0 0 -7,-6.52 z"
       fill="#ffffff"
       id="path69" />
    <path
       d="m 516.23,73.9 v 13 h -6.48 v -13 h 6.48 m 0,-7 h -6.48 a 7,7 0 0 0 -7,7 v 13 a 7,7 0 0 0 7,7 h 6.48 a 7,7 0 0 0 7,-7 v 0 -13 a 7,7 0 0 0 -7,-7 z"
       fill="#ffffff"
       id="path71" />
    <path
       d="m 457.79,14.15 v 6.5 h -6.5 v 19.48 h 6.5 v 6.5 h -26 v -6.5 h 6.5 V 20.65 h -6.5 v -6.5 h 26 m 0,-7 h -26 a 7,7 0 0 0 -7,7 v 6.5 a 7,7 0 0 0 6.5,7 v 5.52 a 7,7 0 0 0 -6.5,7 v 6.5 a 7,7 0 0 0 7,7 h 26 a 7,7 0 0 0 7,-7 v -6.5 a 7,7 0 0 0 -6.5,-7 v -5.54 a 7,7 0 0 0 6.5,-7 v -6.5 a 7,7 0 0 0 -7,-7 z"
       fill="#ffffff"
       id="path73" />
    <path
       d="m 477.28,67.4 v 6.5 h -13 v 13 h 13 v 6.5 h -26 v -6.5 h -6.48 v -13 h 6.48 v -6.5 h 26 m 0,-7 h -26 a 7,7 0 0 0 -7,6.52 7,7 0 0 0 -6.5,7 v 13 a 7,7 0 0 0 6.5,7 7,7 0 0 0 7,6.51 h 26 a 7,7 0 0 0 7,-7 v 0 -6.5 A 7,7 0 0 0 479.9,80.44 7,7 0 0 0 484.28,74 v -6.5 a 7,7 0 0 0 -7,-7 z"
       fill="#ffffff"
       id="path75" />
    <path
       d="m 399.35,46.63 v -26 h -6.5 v -6.5 h 26 v 6.5 h -6.5 v 26 z m 32.47,0 v -6.5 h 6.5 V 20.65 h -6.5 v -6.5 h 26 v 6.5 h -6.5 v 19.48 h 6.5 v 6.5 z m 39,0 v -6.5 h -6.48 V 20.65 h 6.48 v -6.5 h 19.49 v 6.5 h -13 v 19.48 h 13 v 6.5 z m 19.49,-19.48 v -6.5 h 6.48 v 6.5 z m 0,13 v -6.5 h 6.48 v 6.5 z m 19.47,-6.5 v -6.5 h 19.48 v 6.48 z m 39,13 v -6.5 h -6.49 v -6.5 h 6.49 v -6.5 h -6.49 v -6.5 h 6.49 v -6.5 h 19.48 v 6.5 h -13 v 6.5 h 13 v 6.48 h -13 v 6.5 h 13 v 6.5 z m 19.48,-19.48 v -6.5 h 6.49 v 6.5 z m 0,13 v -6.5 h 6.49 v 6.5 z m 19.48,6.5 v -6.5 h -6.49 V 20.65 h 6.49 v -6.5 h 19.48 v 6.5 h -13 v 19.48 h 13 v 6.5 z m 19.48,-6.5 V 20.65 h 6.5 V 40.13 Z M 263,93.38 v -6.5 h -6.49 v -13 H 250 v -6.5 h 6.49 v -6.47 h 13 v 6.49 h 13 v 6.5 h -13 v 13 h 13 v 6.5 z m 32.46,0 v -6.5 H 302 v -6.49 h -6.49 V 73.9 H 315 v 13 h 6.5 v 6.5 z m 6.49,-26 v -6.47 h 13 v 6.49 z m 26,26 v -26 h 26 v 6.5 H 341 v 19.5 z m 26,0 V 73.9 h 6.5 v 19.48 z m 13,-13 v -13 h 6.49 v 13 z m 6.49,19.48 v -6.48 h 13 v -6.5 h -13 v -6.49 h 13 v -13 h 13 v 26 H 393 v 6.49 z m 77.92,-6.49 v -6.5 h -6.48 v -13 h 6.48 v -6.5 h 26 v 6.5 h -13 v 13 h 13 v 6.5 z m 39,0 v -6.5 h -6.49 v -13 h 6.49 v -6.5 h 19.48 v 6.5 h -13 v 13 h 13 v 6.5 z m 19.48,-6.5 v -13 h 6.49 v 13 z m 13,6.5 v -26 h 13 v 6.5 h 6.5 v -6.5 h 6.49 v 6.5 h 6.49 v 19.51 h -6.62 v -13 h -6.49 v 13 h -6.5 v -13 h -6.49 v 13 z m 39,6.49 V 67.4 h 26 v 6.5 h -13 v 13 h 13 v 6.5 h -13 v 6.49 z m 26,-13 v -13 h 6.49 v 13 z m 13,0 V 67.4 h 6.49 v 19.48 z m 6.49,6.5 v -6.5 h 13 V 67.4 h 13 v 26 z m 45.46,0 v -6.5 h -6.5 v -13 h -6.49 v -6.5 h 6.49 v -6.45 h 13 v 6.49 h 13 v 6.5 h -13 v 13 h 13 v 6.5 z m 32.46,0 v -6.5 h -6.49 v -13 h 6.49 v -6.5 h 19.48 v 6.5 H 711 v 6.49 H 698 V 73.9 h -6.49 v 6.49 H 698 v 6.49 h 6.49 v 6.5 z m 32.48,0 v -26 h 26 v 6.5 h -13 v 19.52 z m 26,-13 V 73.9 H 750 v 6.49 z"
       fill="#30346d"
       id="path77" />
  </g>
  <metadata
     id="metadata899">
    <rdf:RDF>
      <cc:Work
         rdf:about="">
        <dc:title>logo</dc:title>
      </cc:Work>
    </rdf:RDF>
  </metadata>
</svg>
