<?xml version="1.0" encoding="UTF-8" standalone="no"?>
<svg
   viewBox="0 0 514.03998 65.270027"
   version="1.1"
   id="svg44"
   sodipodi:docname="to8.svg"
   width="514.03998"
   height="65.270027"
   inkscape:version="1.1 (c68e22c387, 2021-05-23)"
   xmlns:inkscape="http://www.inkscape.org/namespaces/inkscape"
   xmlns:sodipodi="http://sodipodi.sourceforge.net/DTD/sodipodi-0.dtd"
   xmlns="http://www.w3.org/2000/svg"
   xmlns:svg="http://www.w3.org/2000/svg"
   xmlns:rdf="http://www.w3.org/1999/02/22-rdf-syntax-ns#"
   xmlns:cc="http://creativecommons.org/ns#"
   xmlns:dc="http://purl.org/dc/elements/1.1/">
  <defs
     id="defs48" />
  <sodipodi:namedview
     id="namedview46"
     pagecolor="#ffffff"
     bordercolor="#666666"
     borderopacity="1.0"
     inkscape:pageshadow="2"
     inkscape:pageopacity="0.0"
     inkscape:pagecheckerboard="0"
     showgrid="false"
     fit-margin-top="0"
     fit-margin-left="0"
     fit-margin-right="0"
     fit-margin-bottom="0"
     inkscape:zoom="1.113"
     inkscape:cx="257.4124"
     inkscape:cy="32.345013"
     inkscape:window-width="1920"
     inkscape:window-height="1138"
     inkscape:window-x="-8"
     inkscape:window-y="-8"
     inkscape:window-maximized="1"
     inkscape:current-layer="svg44" />
  <title
     id="title2">logo</title>
  <g
     id="g888"
     transform="translate(-243,-24.369971)">
    <g
       id="Layer_2"
       data-name="Layer 2">
      <rect
         x="376.82001"
         y="45.630001"
         width="41.130001"
         height="22.889999"
         fill="#ffffff"
         id="rect4" />
      <rect
         x="557.60999"
         y="42.860001"
         width="45.330002"
         height="23.48"
         fill="#ffffff"
         id="rect6" />
      <rect
         x="707.95001"
         y="45.630001"
         width="30"
         height="22.889999"
         fill="#ffffff"
         id="rect8" />
    </g>
    <g
       id="Layer_1"
       data-name="Layer 1">
      <path
         d="m 493.65,32.69 v 48 H 480.24 V 51.24 L 479.5,51 c -4.89,9.89 -9.77,19.79 -14.72,29.81 H 452 l -15.22,-29.73 -0.79,0.29 v 29.38 h -13.57 v -48 h 21.32 c 4.73,9.08 9.57,18.35 14.64,28.09 L 472.5,32.69 h 21.15 m 0,-7 H 472.5 a 7,7 0 0 0 -6.26,3.87 c -2.65,5.28 -5.3,10.56 -8,15.92 l -1.42,-2.72 c -2.33,-4.48 -4.63,-8.87 -6.89,-13.23 a 7,7 0 0 0 -6.21,-3.76 h -21.3 a 7,7 0 0 0 -7,7 v 48 a 7,7 0 0 0 7,7 H 436 a 7,7 0 0 0 7,-7 v -2.13 l 2.73,5.36 a 7,7 0 0 0 6.27,3.82 h 12.82 a 7,7 0 0 0 6.28,-3.9 l 1.9,-3.86 0.28,-0.56 v 1.23 a 7,7 0 0 0 7,7 h 13.41 a 7,7 0 0 0 7,-7 v -48 a 7,7 0 0 0 -7,-7 z"
         fill="#ffffff"
         id="path11" />
      <path
         d="m 669.8,32.78 v 48 H 647.3 L 625.14,49 l -0.6,0.14 V 80.72 H 610.88 V 32.86 h 22.52 c 7.39,10.38 15.09,21.1 22.72,31.83 l 0.75,-0.24 V 32.78 h 12.93 m 0,-7 h -12.93 a 7,7 0 0 0 -7,7 v 11.1 L 649.48,43.33 639.1,28.8 a 7,7 0 0 0 -5.7,-2.94 h -22.52 a 7,7 0 0 0 -7,7 v 47.86 a 7,7 0 0 0 7,7 h 13.66 a 7,7 0 0 0 7,-7 V 70.45 l 10,14.36 a 7,7 0 0 0 5.75,3 h 22.5 a 7,7 0 0 0 7,-7 v -48 a 7,7 0 0 0 -7,-7 z"
         fill="#ffffff"
         id="path13" />
      <path
         d="m 361.37,32.26 v 49.05 h -16 V 64.22 H 319.56 V 81.33 H 303 v -49 h 16.4 v 15.35 h 25.94 V 32.26 h 16 m 0,-7 h -16 a 7,7 0 0 0 -7,7 v 8.42 H 326.4 V 32.3 a 7,7 0 0 0 -7,-7 H 303 a 7,7 0 0 0 -7,7 v 49 a 7,7 0 0 0 7,7 h 16.6 a 7,7 0 0 0 7,-7 V 71.22 h 11.81 v 10.09 a 7,7 0 0 0 7,7 h 16 a 7,7 0 0 0 7,-7 V 32.26 a 7,7 0 0 0 -7,-7 z"
         fill="#ffffff"
         id="path15" />
      <path
         d="m 579.77,32.45 a 144,144 0 0 1 17.23,1 c 6.5,0.79 10.32,4.72 11.36,11.15 1.38,8.63 1.65,17.31 -0.28,25.9 -1.49,6.62 -4.86,9.63 -11.67,10.32 -5.61,0.57 -11.26,0.66 -16.5,1 -5.51,-0.28 -10.63,-0.32 -15.69,-0.83 -7.9,-0.79 -11.2,-3.59 -12.63,-11.2 a 69.52,69.52 0 0 1 0.11,-25.88 c 1.15,-6.11 4.82,-9.67 10.85,-10.41 a 143.79,143.79 0 0 1 17.22,-1 m 2.15,36.15 c 2.64,0 5.27,0 7.9,-0.14 3.51,-0.13 4.88,-2 5,-5.57 0.12,-3.89 0.11,-7.8 0,-11.68 -0.13,-4.21 -1.8,-5.92 -6,-6.13 -1.17,-0.06 -2.34,-0.07 -3.51,-0.07 -1.86,0 -3.73,0 -5.59,0 -1.86,0 -3.83,0 -5.75,0 -1.22,0 -2.45,0 -3.67,0.09 -3.64,0.19 -5.36,1.53 -5.59,5 a 134.84,134.84 0 0 0 0,13.93 4.16,4.16 0 0 0 4.34,4.36 c 4.27,0.09 8.56,0.19 12.84,0.19 m -2.15,-43.15 a 149.4,149.4 0 0 0 -18.06,1.1 c -9,1.1 -15.17,7 -16.89,16.05 a 76.45,76.45 0 0 0 -0.12,28.45 c 2,10.59 7.79,15.79 18.82,16.89 3.67,0.37 7.22,0.5 11,0.65 1.65,0.06 3.34,0.12 5.06,0.21 h 0.73 c 1.55,-0.09 3.14,-0.15 4.75,-0.22 3.91,-0.17 8,-0.34 12.07,-0.75 9.82,-1 15.64,-6.15 17.8,-15.76 1.94,-8.62 2.06,-17.95 0.36,-28.54 -1.55,-9.64 -7.91,-15.83 -17.43,-17 a 149.44,149.44 0 0 0 -18.07,-1.1 z M 571.66,52 c 0.7,0 1.47,0 2.34,0 0.87,0 1.86,0 2.79,0 h 3 2.88 2.71 c 0.94,0 1.75,0 2.49,0 0.09,3.24 0.09,6.42 0,9.48 -1.84,0 -3.8,0.08 -5.93,0.08 -3.41,0 -6.89,-0.07 -10.29,-0.14 -0.11,-3.13 -0.1,-6.29 0,-9.42 z"
         fill="#ffffff"
         id="path17" />
      <path
         d="m 391.68,32.45 a 131.12,131.12 0 0 1 18.32,1.3 c 5.32,0.76 8.56,4 9.64,9.23 a 70.47,70.47 0 0 1 0.08,28.09 c -1.17,6 -5.15,9.18 -11,9.77 -5.61,0.57 -11.25,0.68 -16.37,1 -5.61,-0.28 -10.71,-0.31 -15.77,-0.82 -8.21,-0.84 -11.4,-3.65 -12.82,-11.74 A 69.19,69.19 0 0 1 364,43.71 c 1.13,-5.73 4.5,-9.34 10.36,-10.1 a 130.13,130.13 0 0 1 17.3,-1.16 m -0.28,36.08 q 5.6,0 11.18,-0.12 c 2.83,-0.06 4.32,-2.09 4.42,-4.74 0.16,-4.45 0.19,-8.92 -0.05,-13.35 -0.16,-3.1 -1.78,-4.48 -4.85,-4.61 -1.27,-0.06 -2.55,-0.07 -3.83,-0.07 -2,0 -3.94,0 -5.91,0 -2.13,0 -4.25,0 -6.37,0 -1.35,0 -2.7,0 -4.05,0.08 -3.22,0.13 -4.71,1.3 -4.92,4.47 -0.31,4.53 -0.2,9.1 -0.06,13.64 0.09,2.76 1.75,4.57 4.53,4.61 q 5,0.1 9.91,0.1 m 0.28,-43.08 a 137.27,137.27 0 0 0 -18.23,1.22 c -8.6,1.11 -14.55,6.83 -16.29,15.69 a 75.75,75.75 0 0 0 -0.29,28.12 c 1.94,11.09 7.63,16.32 19,17.47 3.66,0.37 7.21,0.5 11,0.64 1.68,0.06 3.41,0.12 5.16,0.21 h 0.35 0.39 l 4.71,-0.22 c 3.87,-0.17 7.87,-0.35 12,-0.76 9.2,-0.93 15.47,-6.54 17.2,-15.4 A 77,77 0 0 0 426.57,41.59 C 424.81,33.36 419.16,28 411,26.82 a 137.57,137.57 0 0 0 -19.34,-1.37 z m -7.79,27.2 h 2.1 3.11 c 1.09,0 2.17,0 3.26,0 h 3 2.89 1.78 c 0.1,2.7 0.1,5.57 0,8.81 -2.89,0 -5.79,0.07 -8.67,0.07 -2.48,0 -5,0 -7.5,-0.06 -0.08,-3 -0.12,-5.93 0,-8.82 z"
         fill="#ffffff"
         id="path19" />
      <path
         d="m 523.07,32.47 a 145,145 0 0 1 15.7,0.9 c 5.17,0.56 7.38,3 8.26,8.17 a 61,61 0 0 1 0.52,6.79 l -12.91,-0.69 c -0.42,-3.9 -3.19,-4.54 -6.31,-4.54 h -0.48 c -4.66,0.09 -9.32,0.2 -14,0.46 -2.11,0.11 -3.85,1 -3.65,3.59 0.2,2.59 1.93,3.52 4.21,3.59 1.16,0 2.32,0 3.47,0 h 3.48 c 1.16,0 2.32,0 3.47,0 4.9,0.17 9.78,0.23 14.64,0.68 6.52,0.61 9.3,3.46 9.68,10 a 49.64,49.64 0 0 1 -0.48,10 c -0.79,5.47 -3.38,8.09 -9,8.65 -5.62,0.56 -11.48,0.67 -17.22,0.72 -1.13,0 -2.25,0 -3.37,0 q -6,0 -11.92,-0.53 c -7.66,-0.81 -9.89,-3.31 -10.68,-11 -0.13,-1.41 0,-2.8 0,-4.48 h 12.67 c 0.84,4.37 4.32,4.64 7.91,4.64 h 12.06 c 0.54,0 1.08,0 1.63,0 3.65,-0.28 5.24,-1.36 5.33,-3.59 0.09,-2.23 -1.66,-3.83 -5.31,-4 -6.62,-0.26 -13.25,-0.3 -19.87,-0.51 a 37.28,37.28 0 0 1 -6.15,-0.63 c -5.22,-1.05 -7.55,-3.15 -8.06,-8.35 a 43.87,43.87 0 0 1 0.51,-11.61 c 0.74,-4.21 4.07,-6.33 8.07,-7 A 108,108 0 0 1 523,32.32 m 0,-7 v 0 A 113.56,113.56 0 0 0 504.19,27 c -7.48,1.27 -12.63,6 -13.81,12.71 a 50.89,50.89 0 0 0 -0.59,13.45 v 0.06 a 18.05,18.05 0 0 0 1.88,6.72 7,7 0 0 0 -2.13,5 c 0,0.51 0,1 0,1.47 a 31.78,31.78 0 0 0 0.05,3.62 0.41,0.41 0 0 1 0,0.11 c 1.15,11.07 6.05,16.06 16.91,17.21 h 0.12 c 4.15,0.37 8.37,0.56 12.54,0.56 1.15,0 2.33,0 3.48,0 5.69,0 11.75,-0.16 17.8,-0.76 8.68,-0.86 13.93,-5.91 15.19,-14.61 a 56.51,56.51 0 0 0 0.54,-11.42 20,20 0 0 0 -2.57,-9.24 7,7 0 0 0 0.94,-4 c 0,-0.73 -0.08,-1.43 -0.11,-2.1 a 37.68,37.68 0 0 0 -0.5,-5.44 C 552.5,32 547.66,27.34 539.54,26.43 a 152.32,152.32 0 0 0 -16.46,-0.94 z"
         fill="#ffffff"
         id="path21" />
      <path
         d="m 720.31,31.38 a 4.94,4.94 0 0 1 1.78,0.34 c 9.26,3.38 18.48,6.83 27.91,10.36 v 11.85 l -5.68,-2 v 9.74 L 750,59.89 v 11.8 c -8.3,3.26 -16.72,6.41 -25,9.9 a 11.9,11.9 0 0 1 -4.63,1 11.36,11.36 0 0 1 -4.55,-1 c -8,-3.5 -16.24,-6.6 -24.36,-9.85 V 60 L 697,61.72 V 52 l -5.43,1.9 V 42 c 9.05,-3.45 18.23,-7 27.47,-10.39 a 4.73,4.73 0 0 1 1.29,-0.18 m 28,20.07 v -7.93 l -24.43,-9.3 v 7.87 l 24.43,9.31 m -28,19.83 10.54,-4.17 V 47.19 L 720.33,43 l -9.89,4.1 v 20.08 l 9.9,4.1 M 717.92,80 V 72.16 L 693.5,62.93 v 7.8 L 717.92,80 m 2.39,-55.63 v 0 a 11.49,11.49 0 0 0 -3.14,0.43 4.75,4.75 0 0 0 -0.57,0.18 c -7.47,2.75 -15,5.61 -22.21,8.38 l -5.33,2 A 7,7 0 0 0 684.55,42 v 11.88 a 7,7 0 0 0 0.64,2.92 7.09,7.09 0 0 0 -0.75,3.15 v 11.79 a 7,7 0 0 0 4.4,6.5 l 7,2.79 c 5.66,2.23 11.5,4.54 17.12,7 a 18.24,18.24 0 0 0 7.34,1.61 18.78,18.78 0 0 0 7.38,-1.64 c 5.8,-2.44 11.78,-4.76 17.57,-7 l 7.27,-2.83 A 7,7 0 0 0 757,71.69 v -11.8 a 6.93,6.93 0 0 0 -0.65,-2.93 7,7 0 0 0 0.69,-3 V 42.08 a 7,7 0 0 0 -4.55,-6.55 C 743.4,32.12 734,28.6 724.6,25.17 a 11.86,11.86 0 0 0 -4.25,-0.79 z m -2.87,27.43 3,-1.22 3.44,1.42 v 10.4 l -3.48,1.38 -3,-1.23 V 51.8 Z"
         fill="#ffffff"
         id="path23" />
      <path
         d="m 301.3,32.25 v 14.09 h -17.08 v 35 H 268 V 46.6 H 250 V 32.25 h 51.3 m 0,-7 H 250 a 7,7 0 0 0 -7,7 V 46.6 a 7,7 0 0 0 7,7 h 11 v 27.71 a 7,7 0 0 0 7,7 h 16.21 a 7,7 0 0 0 7,-7 v -28 h 10.09 a 7,7 0 0 0 7,-7 V 32.25 a 7,7 0 0 0 -7,-7 z"
         fill="#ffffff"
         id="path25" />
      <path
         d="m 458.38,60.86 c -5.07,-9.74 -9.91,-19 -14.64,-28.09 h -21.32 v 48 H 436 v -29.4 l 0.79,-0.29 15.21,29.74 h 12.82 c 5,-10 9.83,-19.92 14.72,-29.81 l 0.74,0.23 v 29.49 h 13.41 v -48 H 472.5 Z"
         id="path27" />
      <path
         d="m 656.87,64.45 -0.75,0.24 C 648.49,54 640.79,43.24 633.4,32.86 h -22.52 v 47.86 h 13.66 V 49.16 l 0.6,-0.14 22.16,31.79 h 22.5 v -48 h -12.93 z"
         id="path29" />
      <path
         d="M 345.34,47.68 H 319.4 V 32.3 H 303 v 49 h 16.6 V 64.22 h 25.81 v 17.09 h 16 V 32.26 h -16 z"
         id="path31" />
      <path
         d="m 597,33.49 a 142.82,142.82 0 0 0 -34.45,0 c -6,0.74 -9.7,4.3 -10.85,10.41 a 69.52,69.52 0 0 0 -0.11,25.88 c 1.43,7.61 4.73,10.41 12.63,11.2 5.06,0.51 10.18,0.55 15.69,0.83 5.24,-0.29 10.89,-0.38 16.5,-1 6.81,-0.69 10.18,-3.7 11.67,-10.32 1.93,-8.59 1.66,-17.27 0.28,-25.9 C 607.32,38.21 603.5,34.28 597,33.49 Z m -2.19,29.4 c -0.11,3.59 -1.48,5.44 -5,5.57 -6.9,0.27 -13.85,0.09 -20.74,0 a 4.16,4.16 0 0 1 -4.34,-4.36 134.84,134.84 0 0 1 0,-13.93 c 0.23,-3.5 2,-4.84 5.59,-5 3.13,-0.17 6.28,0 9.42,0 v 0 c 3,0 6.08,-0.12 9.1,0 4.16,0.21 5.83,1.92 6,6.13 0.08,3.79 0.09,7.7 -0.03,11.59 z"
         id="path33" />
      <path
         d="m 410,33.75 a 130.17,130.17 0 0 0 -35.65,-0.14 c -5.86,0.76 -9.23,4.37 -10.36,10.1 a 69.19,69.19 0 0 0 -0.26,25.54 c 1.42,8.09 4.61,10.9 12.82,11.74 5.06,0.51 10.16,0.54 15.77,0.82 5.12,-0.29 10.76,-0.4 16.37,-1 5.88,-0.59 9.86,-3.74 11,-9.77 A 70.47,70.47 0 0 0 419.67,43 c -1.08,-5.2 -4.32,-8.49 -9.67,-9.25 z m -3,29.92 c -0.1,2.65 -1.59,4.68 -4.42,4.74 q -10.53,0.23 -21.09,0 c -2.78,0 -4.44,-1.85 -4.53,-4.61 -0.14,-4.54 -0.25,-9.11 0.06,-13.64 0.21,-3.17 1.7,-4.34 4.92,-4.47 3.47,-0.15 6.95,0 10.42,0 v 0 c 3.25,0 6.51,-0.11 9.74,0 3.07,0.13 4.69,1.51 4.85,4.61 0.24,4.45 0.21,8.92 0.05,13.37 z"
         id="path35" />
      <path
         d="m 539.49,51.5 c -4.86,-0.45 -9.74,-0.51 -14.64,-0.68 -3.47,-0.1 -7,0 -10.42,-0.07 -2.28,-0.07 -4,-1 -4.21,-3.59 -0.21,-2.59 1.54,-3.48 3.65,-3.59 4.66,-0.26 9.32,-0.37 14,-0.46 3.31,-0.06 6.34,0.43 6.79,4.53 l 12.91,0.69 a 61,61 0 0 0 -0.52,-6.79 c -0.88,-5.19 -3.09,-7.61 -8.26,-8.17 a 122.72,122.72 0 0 0 -33.43,0.51 c -4,0.68 -7.33,2.8 -8.07,7 a 43.87,43.87 0 0 0 -0.51,11.61 c 0.51,5.2 2.84,7.3 8.06,8.35 a 37.28,37.28 0 0 0 6.15,0.63 c 6.62,0.21 13.25,0.25 19.87,0.51 3.65,0.14 5.4,1.59 5.31,4 -0.09,2.41 -1.68,3.31 -5.33,3.59 -0.55,0 -1.09,0 -1.63,0 h -12.08 c -3.59,0 -7.07,-0.27 -7.91,-4.64 h -12.67 c 0,1.68 -0.13,3.07 0,4.48 0.79,7.66 3,10.16 10.68,11 a 134.53,134.53 0 0 0 15.29,0.49 c 5.74,0 11.51,-0.16 17.22,-0.72 5.71,-0.56 8.16,-3.18 9,-8.65 a 49.64,49.64 0 0 0 0.48,-10 C 548.79,55 546,52.11 539.49,51.5 Z"
         id="path37" />
      <path
         d="M 750,53.93 V 42.08 c -9.43,-3.53 -18.65,-7 -27.91,-10.36 a 4.82,4.82 0 0 0 -3.07,-0.16 C 709.78,35 700.6,38.5 691.55,42 V 53.88 L 697,52 v 9.74 L 691.44,60 v 11.74 c 8.12,3.25 16.32,6.35 24.36,9.85 a 10.73,10.73 0 0 0 9.18,0 c 8.27,-3.49 16.68,-6.64 25,-9.9 v -11.8 l -5.64,1.83 V 52 Z M 717.92,80 693.5,70.73 v -7.8 l 24.42,9.23 z m 13,-12.9 -10.54,4.17 -9.9,-4.1 V 47.13 l 9.89,-4.1 10.55,4.16 z m -7,-25 v -7.83 l 24.43,9.3 v 7.88 z"
         id="path39" />
      <path
         d="m 250,46.6 h 18 v 34.71 h 16.21 v -35 H 301.3 V 32.25 H 250 Z"
         id="path41" />
    </g>
  </g>
  <metadata
     id="metadata865">
    <rdf:RDF>
      <cc:Work
         rdf:about="">
        <dc:title>logo</dc:title>
      </cc:Work>
    </rdf:RDF>
  </metadata>
</svg>
