<?xml version="1.0" encoding="UTF-8" standalone="no"?>
<svg
   viewBox="0 0 334.44022 114.00005"
   version="1.1"
   id="svg54"
   sodipodi:docname="uzebox.svg"
   width="334.44022"
   height="114.00005"
   inkscape:version="1.1 (c68e22c387, 2021-05-23)"
   xmlns:inkscape="http://www.inkscape.org/namespaces/inkscape"
   xmlns:sodipodi="http://sodipodi.sourceforge.net/DTD/sodipodi-0.dtd"
   xmlns:xlink="http://www.w3.org/1999/xlink"
   xmlns="http://www.w3.org/2000/svg"
   xmlns:svg="http://www.w3.org/2000/svg"
   xmlns:rdf="http://www.w3.org/1999/02/22-rdf-syntax-ns#"
   xmlns:cc="http://creativecommons.org/ns#"
   xmlns:dc="http://purl.org/dc/elements/1.1/">
  <sodipodi:namedview
     id="namedview56"
     pagecolor="#ffffff"
     bordercolor="#666666"
     borderopacity="1.0"
     inkscape:pageshadow="2"
     inkscape:pageopacity="0.0"
     inkscape:pagecheckerboard="0"
     showgrid="false"
     fit-margin-top="0"
     fit-margin-left="0"
     fit-margin-right="0"
     fit-margin-bottom="0"
     inkscape:zoom="0.78700985"
     inkscape:cx="167.08813"
     inkscape:cy="57.178446"
     inkscape:window-width="1920"
     inkscape:window-height="1138"
     inkscape:window-x="-8"
     inkscape:window-y="-8"
     inkscape:window-maximized="1"
     inkscape:current-layer="svg54" />
  <defs
     id="defs28">
    <linearGradient
       id="linear-gradient"
       x1="581.71997"
       y1="39.799999"
       x2="581.71997"
       y2="83.5"
       gradientTransform="matrix(1,0,0,-1,0,115.41)"
       gradientUnits="userSpaceOnUse">
      <stop
         offset="0"
         stop-color="#d9d9d9"
         id="stop2" />
      <stop
         offset="0.1"
         stop-color="#bfbfbf"
         id="stop4" />
      <stop
         offset="0.2"
         stop-color="#d9d9d9"
         id="stop6" />
      <stop
         offset="0.3"
         stop-color="#bfbfbf"
         id="stop8" />
      <stop
         offset="0.4"
         stop-color="#d9d9d9"
         id="stop10" />
      <stop
         offset="0.5"
         stop-color="#bfbfbf"
         id="stop12" />
      <stop
         offset="0.6"
         stop-color="#d9d9d9"
         id="stop14" />
      <stop
         offset="0.7"
         stop-color="#bfbfbf"
         id="stop16" />
      <stop
         offset="0.8"
         stop-color="#d9d9d9"
         id="stop18" />
      <stop
         offset="0.9"
         stop-color="#bfbfbf"
         id="stop20" />
      <stop
         offset="1"
         stop-color="#d9d9d9"
         id="stop22" />
    </linearGradient>
    <linearGradient
       id="linear-gradient-2"
       x1="530.04999"
       y1="39.799999"
       x2="530.04999"
       y2="83.5"
       xlink:href="#linear-gradient" />
    <linearGradient
       id="linear-gradient-3"
       x1="422.78"
       y1="10.37"
       x2="422.78"
       y2="108.41"
       xlink:href="#linear-gradient" />
    <linearGradient
       id="linear-gradient-4"
       x1="632.07001"
       y1="39.799999"
       x2="632.07001"
       y2="83.5"
       xlink:href="#linear-gradient" />
    <linearGradient
       inkscape:collect="always"
       xlink:href="#linear-gradient"
       id="linearGradient889"
       gradientUnits="userSpaceOnUse"
       gradientTransform="matrix(1,0,0,-1,0,115.41)"
       x1="581.71997"
       y1="39.799999"
       x2="581.71997"
       y2="83.5" />
  </defs>
  <title
     id="title30">logo</title>
  <g
     id="g887"
     transform="translate(-332.76986,4.9907848e-5)"
     inkscape:export-filename="C:\Users\BUCH\Desktop\Retrogaming\Recalbox\travail thèmes\NEW THEME!!!\background NEW!!!!\SYSTEM!!!!!!\uzebox\g887.png"
     inkscape:export-xdpi="287.04681"
     inkscape:export-ydpi="287.04681">
    <g
       id="Layer_2"
       data-name="Layer 2">
      <rect
         x="475.95001"
         y="40.700001"
         width="125.09"
         height="26.620001"
         fill="#ffffff"
         id="rect32" />
    </g>
    <g
       id="Layer_1"
       data-name="Layer 1">
      <path
         d="m 473.9,7 a 0.27,0.27 0 0 1 0.21,0.44 l -2.31,3 L 475,9 h 0.12 a 0.27,0.27 0 0 1 0.21,0.44 L 430.19,68.22 456.58,56.1 a 0.29,0.29 0 0 0 0.15,-0.19 l 5,-23.79 A 0.28,0.28 0 0 1 462,31.91 h 43.48 a 0.28,0.28 0 0 1 0.28,0.27 c 0,0 0,0 0,0.06 l -0.34,1.62 h 1.31 a 0.28,0.28 0 0 1 0.28,0.27 c 0,0 0,0 0,0.06 l -2,9.69 a 0.28,0.28 0 0 1 -0.27,0.21 h -30.69 a 0.28,0.28 0 0 0 -0.27,0.22 l -0.93,4.38 h 18.48 a 0.27,0.27 0 0 1 0.27,0.27 V 49 l -0.34,1.62 h 1.31 a 0.27,0.27 0 0 1 0.27,0.27 V 51 l -2,9.59 a 0.28,0.28 0 0 1 -0.27,0.22 h -20 a 0.28,0.28 0 0 0 -0.27,0.21 l -0.92,4.39 h 29.11 a 0.27,0.27 0 0 1 0.27,0.27 v 0.06 l -0.34,1.61 h 1.31 a 0.28,0.28 0 0 1 0.27,0.28 v 0.06 l -2.06,9.68 a 0.26,0.26 0 0 1 -0.26,0.22 h -43.55 a 0.27,0.27 0 0 1 -0.27,-0.27 0.13,0.13 0 0 1 0,-0.06 l 0.34,-1.62 h -1.32 a 0.27,0.27 0 0 1 -0.27,-0.27 0.13,0.13 0 0 1 0,-0.06 L 453.8,69.67 372.57,107 a 0.27,0.27 0 0 1 -0.12,0 0.27,0.27 0 0 1 -0.21,-0.44 l 2.32,-3 -3.21,1.44 h -0.12 a 0.28,0.28 0 0 1 -0.21,-0.45 l 45.15,-58.82 -26.26,12.1 a 0.26,0.26 0 0 0 -0.15,0.2 l -4.1,19.31 a 0.26,0.26 0 0 1 -0.26,0.22 h -44.12 a 0.27,0.27 0 0 1 -0.27,-0.28 v 0 l 0.35,-1.62 H 340 a 0.27,0.27 0 0 1 -0.27,-0.27 v -0.06 l 9.15,-43.16 a 0.27,0.27 0 0 1 0.27,-0.21 h 12.55 a 0.28,0.28 0 0 1 0.28,0.27 0.13,0.13 0 0 1 0,0.06 l -0.34,1.62 h 1.31 a 0.28,0.28 0 0 1 0.28,0.27 c 0,0 0,0 0,0.06 l -6.63,31.13 h 16.65 a 0.28,0.28 0 0 0 0.27,-0.22 l 7,-33 a 0.26,0.26 0 0 1 0.26,-0.22 h 12.52 a 0.27,0.27 0 0 1 0.27,0.27 v 0.06 l -0.34,1.62 h 1.31 a 0.27,0.27 0 0 1 0.27,0.27 v 0.06 L 392.66,44.3 473.78,7 h 0.12 m 0,-7 v 0 a 7.22,7.22 0 0 0 -3,0.66 L 401.62,32.48 A 7.19,7.19 0 0 0 400,29.33 7.3,7.3 0 0 0 393.3,24.91 h -12.52 a 7.3,7.3 0 0 0 -7.11,5.76 l -5.87,27.7 h -2.56 l 4.82,-22.73 a 7.65,7.65 0 0 0 0.16,-1.54 7.27,7.27 0 0 0 -1.84,-4.8 7.28,7.28 0 0 0 -6.68,-4.39 h -12.52 a 7.3,7.3 0 0 0 -7.11,5.76 l -9.14,43.16 a 6.79,6.79 0 0 0 -0.16,1.51 7.28,7.28 0 0 0 1.82,4.81 7.3,7.3 0 0 0 6.69,4.41 h 36.29 l -12.11,15.77 a 7.22,7.22 0 0 0 0.29,9.2 2.87,2.87 0 0 0 0.18,0.4 7.31,7.31 0 0 0 6.52,4.07 7.09,7.09 0 0 0 3,-0.67 l 72,-33.08 a 7.29,7.29 0 0 0 6.64,4.31 h 43.49 a 7.3,7.3 0 0 0 7.11,-5.77 l 2.06,-9.68 a 7.51,7.51 0 0 0 0.15,-1.51 7.22,7.22 0 0 0 -1.83,-4.82 7.27,7.27 0 0 0 -6.68,-4.4 v 0 l 1.27,-6 a 7.32,7.32 0 0 0 0.15,-1.33 h 4.87 a 7.29,7.29 0 0 0 7.11,-5.77 l 2.06,-9.68 a 7.69,7.69 0 0 0 0.16,-1.52 7.27,7.27 0 0 0 -1.84,-4.81 7.27,7.27 0 0 0 -6.68,-4.4 h -33.22 l 8.64,-11.26 A 7.24,7.24 0 0 0 481.66,6 7,7 0 0 0 480.57,4.38 2.41,2.41 0 0 0 480.42,4.05 7.23,7.23 0 0 0 473.9,0 Z"
         fill="#ffffff"
         id="path35" />
      <path
         d="m 658.71,31.91 a 0.28,0.28 0 0 1 0.28,0.28 v 0.06 l -0.34,1.61 H 660 a 0.28,0.28 0 0 1 0.28,0.28 v 0.06 l -1.17,5.5 a 0.28,0.28 0 0 1 -0.08,0.15 l -16.43,15.7 a 0.28,0.28 0 0 0 0,0.35 l 9.75,15.55 a 0.28,0.28 0 0 1 0,0.2 l -1.21,5.68 a 0.28,0.28 0 0 1 -0.27,0.23 h -12.78 a 0.31,0.31 0 0 1 -0.24,-0.13 l -1.2,-1.92 v 0 l -5.45,-8.69 a 0.29,0.29 0 0 0 -0.22,-0.11 0.23,0.23 0 0 0 -0.14,0 L 619.5,77.48 a 0.3,0.3 0 0 1 -0.2,0.08 h -12.64 a 0.29,0.29 0 0 1 -0.28,-0.28 c 0,0 0,0 0,-0.06 v 0 l 0.34,-1.61 h -1.3 a 0.28,0.28 0 0 1 -0.28,-0.28 v -0.06 l 1.19,-5.59 a 0.25,0.25 0 0 1 0.08,-0.14 l 16.41,-15.62 a 0.29,0.29 0 0 0 0,-0.36 l -9.73,-15.63 a 0.28,0.28 0 0 1 0,-0.2 l 1.18,-5.6 a 0.29,0.29 0 0 1 0.28,-0.22 h 12.71 a 0.28,0.28 0 0 1 0.24,0.13 l 1.2,1.91 c 0,0 0,0 0,0 l 5.45,8.69 a 0.3,0.3 0 0 0 0.22,0.1 0.25,0.25 0 0 0 0.14,0 v 0 L 645.88,32 a 0.27,0.27 0 0 1 0.19,-0.08 h 12.64 m 0,-7 h -12.64 a 7.3,7.3 0 0 0 -5,2 l -5.3,5 -1.06,-1.69 c -0.07,-0.12 -0.16,-0.24 -0.24,-0.36 l -1,-1.59 a 7.26,7.26 0 0 0 -6.16,-3.41 h -12.74 a 7.33,7.33 0 0 0 -7.12,5.75 l -1.19,5.61 a 7.3,7.3 0 0 0 0.94,5.37 l 6.84,11 -12.45,11.86 a 7.27,7.27 0 0 0 -2.1,3.78 l -1.19,5.58 a 7.89,7.89 0 0 0 -0.15,1.51 7.26,7.26 0 0 0 1.85,4.81 7.3,7.3 0 0 0 6.69,4.42 h 12.61 a 7.26,7.26 0 0 0 5,-2 l 5.31,-5 1.06,1.7 0.23,0.34 1,1.6 a 7.26,7.26 0 0 0 6.17,3.42 h 12.72 a 7.35,7.35 0 0 0 7.12,-5.75 l 1.2,-5.7 A 7.26,7.26 0 0 0 658.17,67.8 L 651.32,56.88 663.8,44.97 a 7.34,7.34 0 0 0 2.09,-3.76 l 1.16,-5.5 a 7,7 0 0 0 0.16,-1.51 7.2,7.2 0 0 0 -1.83,-4.83 7.29,7.29 0 0 0 -6.66,-4.4 z"
         fill="#ffffff"
         id="path37" />
      <path
         d="m 608.21,31.91 v 0 a 0.28,0.28 0 0 1 0.22,0.33 l -0.35,1.62 h 1.37 a 0.27,0.27 0 0 1 0.21,0.33 l -9.14,43.15 a 0.28,0.28 0 0 1 -0.27,0.22 h -43.83 a 0.27,0.27 0 0 1 -0.21,-0.32 l 0.34,-1.62 h -1.37 a 0.27,0.27 0 0 1 -0.21,-0.32 l 9.14,-43.15 a 0.28,0.28 0 0 1 0.27,-0.22 h 43.83 m -36.54,33.44 h 16.62 a 0.26,0.26 0 0 0 0.26,-0.21 v 0 L 593,44.09 h -16.6 a 0.28,0.28 0 0 0 -0.27,0.22 l -4.46,21.06 m 36.54,-40.46 h -43.83 a 7.32,7.32 0 0 0 -7.12,5.76 l -9.14,43.15 a 7.27,7.27 0 0 0 1,5.47 7.1,7.1 0 0 0 0.66,0.87 7.48,7.48 0 0 0 0.58,1.08 7.27,7.27 0 0 0 4.64,3.16 7.07,7.07 0 0 0 1.52,0.16 h 43.78 a 7.33,7.33 0 0 0 7.12,-5.77 l 9.14,-43.15 a 7.19,7.19 0 0 0 -1,-5.47 8,8 0 0 0 -0.66,-0.87 7.05,7.05 0 0 0 -0.58,-1.08 7.21,7.21 0 0 0 -4.59,-3.15 7,7 0 0 0 -1.51,-0.16 z m -27.9,33.46 1.54,-7.28 h 2.53 l -1.55,7.28 z"
         fill="#ffffff"
         id="path39" />
      <path
         d="m 551,31.91 a 0.32,0.32 0 0 1 0.2,0.08 l 4.95,4.8 v 0 a 0.29,0.29 0 0 1 0.08,0.26 l -0.1,0.47 1.26,1.22 a 0.29,0.29 0 0 1 0.08,0.26 l -2.15,10.17 a 0.36,0.36 0 0 1 -0.12,0.18 l -7.28,5.19 3.71,3.6 a 0.29,0.29 0 0 1 0.08,0.26 l -0.1,0.47 1.26,1.22 a 0.29,0.29 0 0 1 0.08,0.26 l -2.52,11.89 a 0.25,0.25 0 0 1 -0.11,0.17 l -7.16,5.1 a 0.28,0.28 0 0 1 -0.16,0 h -37.7 a 0.27,0.27 0 0 1 -0.21,-0.33 l 0.34,-1.61 h -1.37 a 0.27,0.27 0 0 1 -0.21,-0.33 L 513,32.13 a 0.28,0.28 0 0 1 0.27,-0.22 H 551 m -27.46,16.78 h 17 a 0.28,0.28 0 0 0 0.27,-0.22 l 0.93,-4.38 h -17 a 0.28,0.28 0 0 0 -0.28,0.22 l -0.93,4.38 M 520,65.37 h 17 a 0.29,0.29 0 0 0 0.28,-0.22 l 0.92,-4.37 H 521.21 A 0.27,0.27 0 0 0 520.94,61 L 520,65.37 m 31,-40.46 h -37.73 a 7.3,7.3 0 0 0 -7.12,5.79 L 497,73.82 a 7.28,7.28 0 0 0 1,5.47 7.1,7.1 0 0 0 0.66,0.87 8,8 0 0 0 0.58,1.08 7.27,7.27 0 0 0 4.59,3.16 7.14,7.14 0 0 0 1.52,0.16 H 543 a 7.21,7.21 0 0 0 4.23,-1.36 l 7.15,-5.09 a 7.27,7.27 0 0 0 2.9,-4.43 L 559.8,61.8 a 7.22,7.22 0 0 0 -1.47,-6.09 l 0.94,-0.66 a 7.27,7.27 0 0 0 2.9,-4.43 l 2.15,-10.17 A 7.27,7.27 0 0 0 562.66,34.12 7.31,7.31 0 0 0 561,31.74 L 556.08,27 A 7.25,7.25 0 0 0 551,24.91 Z"
         fill="#ffffff"
         id="path41" />
      <path
         d="m 609.44,33.86 h -43.82 a 0.28,0.28 0 0 0 -0.27,0.22 l -9.14,43.15 a 0.27,0.27 0 0 0 0.21,0.32 h 43.88 a 0.28,0.28 0 0 0 0.27,-0.22 l 9.14,-43.15 a 0.27,0.27 0 0 0 -0.21,-0.33 z m -19.65,33.25 a 0.28,0.28 0 0 1 -0.26,0.21 h -17.94 a 0.27,0.27 0 0 1 -0.27,-0.27 v 0 l 4.81,-22.69 a 0.28,0.28 0 0 1 0.27,-0.22 h 17.93 a 0.27,0.27 0 0 1 0.27,0.33 z m -32.39,-28.37 -5,-4.8 a 0.24,0.24 0 0 0 -0.19,-0.08 h -37.7 a 0.27,0.27 0 0 0 -0.27,0.22 l -9.14,43.14 a 0.27,0.27 0 0 0 0.21,0.33 H 543 a 0.28,0.28 0 0 0 0.16,0 l 7.16,-5.1 a 0.25,0.25 0 0 0 0.11,-0.17 L 553,60.35 a 0.29,0.29 0 0 0 -0.08,-0.26 l -5.16,-5 a 0.28,0.28 0 0 1 0,-0.4 v 0 l 7.46,-5.31 a 0.42,0.42 0 0 0 0.11,-0.18 L 557.48,39 A 0.29,0.29 0 0 0 557.4,38.74 Z M 538.47,67.1 a 0.27,0.27 0 0 1 -0.27,0.22 h -18.26 a 0.27,0.27 0 0 1 -0.28,-0.28 V 67 l 1.28,-6 a 0.27,0.27 0 0 1 0.27,-0.22 h 18.25 a 0.28,0.28 0 0 1 0.28,0.33 z M 542,50.42 a 0.28,0.28 0 0 1 -0.27,0.22 h -18.26 a 0.29,0.29 0 0 1 -0.28,-0.28 c 0,0 0,0 0,-0.06 l 1.27,-6 a 0.28,0.28 0 0 1 0.28,-0.22 H 543 a 0.29,0.29 0 0 1 0.28,0.34 z M 389.76,58 l -4.1,19.31 a 0.26,0.26 0 0 1 -0.26,0.22 h -44.12 a 0.27,0.27 0 0 1 -0.27,-0.28 v 0 l 9.15,-43.16 a 0.27,0.27 0 0 1 0.26,-0.21 h 12.52 a 0.28,0.28 0 0 1 0.28,0.27 c 0,0 0,0 0,0.06 L 356.26,67 a 0.27,0.27 0 0 0 0.21,0.32 h 18 a 0.26,0.26 0 0 0 0.26,-0.22 l 7,-33 A 0.28,0.28 0 0 1 382,33.89 h 12.52 a 0.27,0.27 0 0 1 0.27,0.27 v 0.06 l -2.63,12.37 a 0.28,0.28 0 0 0 0.21,0.33 0.37,0.37 0 0 0 0.18,0 L 475,9 a 0.27,0.27 0 0 1 0.33,0.41 l -47.45,61.83 a 0.27,0.27 0 0 0 0.33,0.41 l 29.61,-13.6 a 0.29,0.29 0 0 0 0.15,-0.19 l 5,-23.79 a 0.28,0.28 0 0 1 0.27,-0.21 h 43.48 a 0.28,0.28 0 0 1 0.28,0.27 c 0,0 0,0 0,0.06 l -2,9.69 a 0.28,0.28 0 0 1 -0.27,0.21 h -30.68 a 0.28,0.28 0 0 0 -0.27,0.22 l -1.27,6 a 0.27,0.27 0 0 0 0.21,0.32 h 19.85 a 0.27,0.27 0 0 1 0.27,0.27 V 51 l -2,9.59 a 0.28,0.28 0 0 1 -0.27,0.22 h -20 a 0.28,0.28 0 0 0 -0.27,0.21 L 469,67 a 0.28,0.28 0 0 0 0.21,0.33 h 30.49 a 0.28,0.28 0 0 1 0.27,0.28 v 0.06 l -2.06,9.68 a 0.26,0.26 0 0 1 -0.26,0.22 h -43.52 a 0.27,0.27 0 0 1 -0.27,-0.27 0.13,0.13 0 0 1 0,-0.06 l 1.67,-7.9 a 0.27,0.27 0 0 0 -0.21,-0.32 0.2,0.2 0 0 0 -0.17,0 L 372.57,107 a 0.27,0.27 0 0 1 -0.33,-0.41 L 419.72,44.7 a 0.27,0.27 0 0 0 -0.33,-0.41 L 389.91,57.83 A 0.26,0.26 0 0 0 389.76,58 Z m 216.63,19.22 1.18,-5.59 a 0.29,0.29 0 0 1 0.09,-0.15 l 16.41,-15.61 a 0.29,0.29 0 0 0 0,-0.36 l -9.73,-15.63 a 0.25,0.25 0 0 1 0,-0.21 l 1.18,-5.59 a 0.28,0.28 0 0 1 0.28,-0.22 h 12.71 a 0.28,0.28 0 0 1 0.24,0.13 l 6.66,10.61 a 0.27,0.27 0 0 0 0.39,0.09 v 0 l 11.27,-10.72 a 0.27,0.27 0 0 1 0.19,-0.08 H 660 a 0.28,0.28 0 0 1 0.28,0.28 v 0.06 l -1.17,5.5 a 0.28,0.28 0 0 1 -0.08,0.15 l -16.43,15.7 a 0.28,0.28 0 0 0 0,0.35 l 9.75,15.55 a 0.28,0.28 0 0 1 0,0.2 l -1.21,5.68 a 0.28,0.28 0 0 1 -0.27,0.23 h -12.78 a 0.31,0.31 0 0 1 -0.24,-0.13 L 631.2,66.81 a 0.29,0.29 0 0 0 -0.39,-0.09 L 619.5,77.48 a 0.3,0.3 0 0 1 -0.2,0.08 h -12.64 a 0.29,0.29 0 0 1 -0.28,-0.28 c 0,0 0,0 0,-0.06 z"
         fill="#040006"
         id="path43" />
      <path
         d="m 608.21,31.91 h -43.83 a 0.28,0.28 0 0 0 -0.27,0.22 L 555,75.28 a 0.27,0.27 0 0 0 0.21,0.32 h 43.88 a 0.27,0.27 0 0 0 0.27,-0.22 l 9.15,-43.15 a 0.28,0.28 0 0 0 -0.22,-0.33 z m -19.66,33.25 a 0.26,0.26 0 0 1 -0.26,0.21 h -17.94 a 0.27,0.27 0 0 1 -0.27,-0.27 v 0 l 4.81,-22.69 a 0.28,0.28 0 0 1 0.27,-0.22 h 17.93 a 0.27,0.27 0 0 1 0.27,0.33 l -4.81,22.69 z"
         fill="url(#linear-gradient)"
         id="path45"
         style="fill:url(#linearGradient889)" />
      <path
         d="M 556.16,36.79 551.21,32 a 0.32,0.32 0 0 0 -0.2,-0.08 H 513.27 A 0.28,0.28 0 0 0 513,32.14 l -9.14,43.14 a 0.27,0.27 0 0 0 0.21,0.33 h 37.7 a 0.34,0.34 0 0 0 0.17,0 l 7.15,-5.1 a 0.25,0.25 0 0 0 0.11,-0.17 l 2.52,-11.89 a 0.29,0.29 0 0 0 -0.08,-0.26 l -5.16,-5 a 0.28,0.28 0 0 1 0,-0.4 v 0 L 554,47.4 a 0.39,0.39 0 0 0 0.11,-0.17 l 2.15,-10.18 a 0.29,0.29 0 0 0 -0.08,-0.26 z m -18.92,28.36 a 0.29,0.29 0 0 1 -0.28,0.22 H 518.7 a 0.27,0.27 0 0 1 -0.28,-0.28 V 65 l 1.28,-6 a 0.28,0.28 0 0 1 0.27,-0.22 h 18.26 a 0.28,0.28 0 0 1 0.27,0.34 z m 3.53,-16.68 a 0.28,0.28 0 0 1 -0.27,0.22 h -18.26 a 0.29,0.29 0 0 1 -0.29,-0.28 c 0,0 0,0 0,-0.06 l 1.27,-6 a 0.29,0.29 0 0 1 0.28,-0.22 h 18.25 a 0.29,0.29 0 0 1 0.28,0.34 z"
         fill="url(#linear-gradient-2)"
         id="path47"
         style="fill:url(#linear-gradient-2)" />
      <path
         d="m 388.52,56.08 -4.09,19.31 a 0.28,0.28 0 0 1 -0.27,0.22 H 340 a 0.27,0.27 0 0 1 -0.27,-0.27 v -0.06 l 9.15,-43.16 a 0.27,0.27 0 0 1 0.27,-0.21 h 12.55 a 0.28,0.28 0 0 1 0.28,0.27 0.13,0.13 0 0 1 0,0.06 L 355,65 a 0.27,0.27 0 0 0 0.21,0.32 h 18 a 0.28,0.28 0 0 0 0.27,-0.22 l 7,-33 a 0.26,0.26 0 0 1 0.26,-0.22 h 12.56 a 0.27,0.27 0 0 1 0.27,0.27 v 0.06 L 391,44.61 a 0.27,0.27 0 0 0 0.21,0.33 0.35,0.35 0 0 0 0.17,0 L 473.78,7 a 0.27,0.27 0 0 1 0.33,0.41 l -47.47,61.88 a 0.28,0.28 0 0 0 0.33,0.42 L 456.58,56.1 a 0.29,0.29 0 0 0 0.15,-0.19 l 5,-23.79 A 0.28,0.28 0 0 1 462,31.91 h 43.48 a 0.28,0.28 0 0 1 0.28,0.27 c 0,0 0,0 0,0.06 l -2.05,9.69 a 0.28,0.28 0 0 1 -0.27,0.21 h -30.63 a 0.28,0.28 0 0 0 -0.27,0.22 l -1.27,6 a 0.27,0.27 0 0 0 0.21,0.32 h 19.85 a 0.27,0.27 0 0 1 0.27,0.27 V 49 l -2,9.59 a 0.28,0.28 0 0 1 -0.27,0.22 h -20 A 0.26,0.26 0 0 0 469,59 l -1.28,6 a 0.28,0.28 0 0 0 0.21,0.33 h 30.49 a 0.27,0.27 0 0 1 0.27,0.27 v 0.06 l -2.05,9.68 a 0.28,0.28 0 0 1 -0.27,0.22 h -43.48 a 0.27,0.27 0 0 1 -0.27,-0.27 0.13,0.13 0 0 1 0,-0.06 l 1.67,-7.9 a 0.27,0.27 0 0 0 -0.21,-0.32 0.2,0.2 0 0 0 -0.17,0 L 371.35,105 a 0.27,0.27 0 0 1 -0.33,-0.42 l 47.46,-61.83 a 0.28,0.28 0 0 0 -0.33,-0.42 l -29.48,13.55 a 0.28,0.28 0 0 0 -0.15,0.2 z"
         fill="url(#linear-gradient-3)"
         id="path49"
         style="fill:url(#linear-gradient-3)" />
      <path
         d="m 605.15,75.27 1.19,-5.59 a 0.25,0.25 0 0 1 0.08,-0.14 l 16.41,-15.62 a 0.29,0.29 0 0 0 0,-0.36 L 613.1,37.93 a 0.28,0.28 0 0 1 0,-0.2 l 1.18,-5.6 a 0.29,0.29 0 0 1 0.28,-0.22 h 12.71 a 0.28,0.28 0 0 1 0.24,0.13 l 6.66,10.61 a 0.27,0.27 0 0 0 0.39,0.09 v 0 L 645.88,32 a 0.27,0.27 0 0 1 0.19,-0.08 h 12.64 a 0.28,0.28 0 0 1 0.28,0.28 v 0.06 l -1.17,5.5 a 0.28,0.28 0 0 1 -0.08,0.15 L 641.31,53.6 a 0.26,0.26 0 0 0 0,0.35 L 651,69.5 a 0.26,0.26 0 0 1 0,0.21 l -1.2,5.68 a 0.29,0.29 0 0 1 -0.28,0.22 h -12.66 a 0.28,0.28 0 0 1 -0.24,-0.13 L 630,64.86 a 0.29,0.29 0 0 0 -0.39,-0.09 v 0 l -11.35,10.76 a 0.27,0.27 0 0 1 -0.19,0.08 h -12.64 a 0.28,0.28 0 0 1 -0.28,-0.28 z"
         fill="url(#linear-gradient-4)"
         id="path51"
         style="fill:url(#linear-gradient-4)" />
    </g>
  </g>
  <metadata
     id="metadata873">
    <rdf:RDF>
      <cc:Work
         rdf:about="">
        <dc:title>logo</dc:title>
      </cc:Work>
    </rdf:RDF>
  </metadata>
</svg>
