<?xml version="1.0" encoding="UTF-8" standalone="no"?>
<svg
   id="Layer_1"
   data-name="Layer 1"
   viewBox="0 0 514.00848 102.8896"
   version="1.1"
   sodipodi:docname="vectrex.svg"
   width="514.00848"
   height="102.8896"
   inkscape:version="1.1 (c68e22c387, 2021-05-23)"
   xmlns:inkscape="http://www.inkscape.org/namespaces/inkscape"
   xmlns:sodipodi="http://sodipodi.sourceforge.net/DTD/sodipodi-0.dtd"
   xmlns="http://www.w3.org/2000/svg"
   xmlns:svg="http://www.w3.org/2000/svg"
   xmlns:rdf="http://www.w3.org/1999/02/22-rdf-syntax-ns#"
   xmlns:cc="http://creativecommons.org/ns#"
   xmlns:dc="http://purl.org/dc/elements/1.1/">
  <defs
     id="defs25" />
  <sodipodi:namedview
     id="namedview23"
     pagecolor="#ffffff"
     bordercolor="#666666"
     borderopacity="1.0"
     inkscape:pageshadow="2"
     inkscape:pageopacity="0.0"
     inkscape:pagecheckerboard="0"
     showgrid="false"
     fit-margin-top="0"
     fit-margin-left="0"
     fit-margin-right="0"
     fit-margin-bottom="0"
     inkscape:zoom="1.113"
     inkscape:cx="257.4124"
     inkscape:cy="51.212938"
     inkscape:window-width="1920"
     inkscape:window-height="1138"
     inkscape:window-x="-8"
     inkscape:window-y="-8"
     inkscape:window-maximized="1"
     inkscape:current-layer="Layer_1" />
  <title
     id="title2">logo</title>
  <g
     id="g871"
     transform="translate(-242.98245,-5.55)">
    <path
       d="m 441.41,12.56 a 44.22,44.22 0 0 1 23.15,6.54 11.33,11.33 0 0 1 9.73,-5.55 h 48.4 a 11.22,11.22 0 0 1 6.17,1.88 11.16,11.16 0 0 1 6,-1.78 h 41 a 31.26,31.26 0 0 1 17.63,5.45 11.26,11.26 0 0 1 9.77,-5.66 h 49.06 a 11,11 0 0 1 3.38,0.52 10.83,10.83 0 0 1 2.47,-0.29 v 0 l 27.75,0.15 a 11.29,11.29 0 0 1 8.72,4.18 l 3.78,4.61 3.77,-4.6 a 11.31,11.31 0 0 1 8.67,-4.15 l 27.76,-0.15 h 0.06 a 11.3,11.3 0 0 1 8.75,18.43 l -20.57,25.14 20.58,25.14 a 11.3,11.3 0 0 1 -8.74,18.46 h -0.06 l -27.78,-0.16 a 11.3,11.3 0 0 1 -8.7,-4.14 l -3.74,-4.58 -3.77,4.58 a 11.27,11.27 0 0 1 -8.68,4.14 l -27.78,0.17 h -0.06 a 11.1,11.1 0 0 1 -3,-0.42 12,12 0 0 1 -2.85,0.4 h -49 a 11.68,11.68 0 0 1 -1.78,-0.19 9.88,9.88 0 0 1 -1.54,0.11 h -27.18 a 11.32,11.32 0 0 1 -7.39,-2.74 11.3,11.3 0 0 1 -7.28,2.66 h -23.19 l -25,0.13 h -22.76 a 11.3,11.3 0 0 1 -11.3,-11.3 v -4.71 c -0.16,0.22 -0.28,0.45 -0.46,0.67 -0.66,0.78 -1.34,1.54 -2,2.28 a 44.33,44.33 0 0 1 -62.7,1.32 l -1.32,3.9 a 11.3,11.3 0 0 1 -10.75,7.83 H 349.09 A 11.3,11.3 0 0 1 337.81,89.53 V 57.8 l -24,38.3 a 11.27,11.27 0 0 1 -9.46,5.33 h -0.11 a 11.29,11.29 0 0 1 -9.45,-5.15 L 251.85,30.8 a 11.33,11.33 0 0 1 -0.47,-11.61 11.12,11.12 0 0 1 9.81,-5.89 h 0.21 l 25.23,0.22 a 11.31,11.31 0 0 1 9.3,5.05 l 8,12.17 7.5,-11.74 a 11.19,11.19 0 0 1 9.49,-5.26 h 0.15 l 23.91,0.22 c 0.28,0 0.54,0.06 0.81,0.06 a 10.91,10.91 0 0 1 3.3,-0.54 h 49.57 a 11.3,11.3 0 0 1 10.76,7.83 l 1.2,3.72 A 44.3,44.3 0 0 1 441.41,12.6 M 475.9,71.65 V 58.77 h -5.83 a 11.31,11.31 0 0 1 -7.28,-2.67 l -1,0.89 13,13.33 a 12.19,12.19 0 0 1 1,1.33 M 441.41,5.56 v 0 a 51.11,51.11 0 0 0 -28,8.3 18.24,18.24 0 0 0 -14.73,-7.42 H 349 a 17.73,17.73 0 0 0 -3.91,0.48 v 0 L 321.13,6.7 h -0.21 a 18.09,18.09 0 0 0 -15.43,8.56 l -1.64,2.59 -2.08,-3.13 A 18.27,18.27 0 0 0 286.7,6.53 L 261.49,6.3 h -0.3 a 18.07,18.07 0 0 0 -16,9.56 18.3,18.3 0 0 0 0.81,18.78 l 42.93,65.48 a 18.21,18.21 0 0 0 15.29,8.31 h 0.21 a 18.21,18.21 0 0 0 15.33,-8.64 l 11.05,-17.64 v 7.41 a 18.33,18.33 0 0 0 18.27,18.3 h 49.55 a 18.27,18.27 0 0 0 14.87,-7.62 51.4,51.4 0 0 0 57.86,-1.47 18.31,18.31 0 0 0 15.8,9.07 h 22.73 l 25.06,-0.13 h 23.14 a 18.35,18.35 0 0 0 7.26,-1.49 18.31,18.31 0 0 0 7.43,1.57 h 27.12 c 0.49,0 1,0 1.44,-0.05 a 17.15,17.15 0 0 0 1.75,0.12 h 49.24 a 20.66,20.66 0 0 0 2.72,-0.24 18.53,18.53 0 0 0 3.07,0.26 h 0.07 l 27.83,-0.17 a 18.22,18.22 0 0 0 12.39,-4.93 18.19,18.19 0 0 0 12.43,4.93 l 27.76,0.16 h 0.11 A 18.3,18.3 0 0 0 752.85,78 L 735.91,57.3 752.85,36.55 A 18.29,18.29 0 0 0 738.69,6.67 h -0.07 l -27.8,0.15 A 18.22,18.22 0 0 0 698.42,11.77 18.22,18.22 0 0 0 686,6.82 L 658.23,6.67 v 0 a 16.15,16.15 0 0 0 -2.2,0.14 17.87,17.87 0 0 0 -3.65,-0.37 H 603.31 A 18.25,18.25 0 0 0 592.13,10.26 38,38 0 0 0 575.9,6.65 h -41 a 18.14,18.14 0 0 0 -6,1 18.38,18.38 0 0 0 -6.21,-1.11 h -48.4 a 18.45,18.45 0 0 0 -11.18,3.83 51.36,51.36 0 0 0 -21.7,-4.82 z"
       fill="#ffffff"
       id="path4" />
    <path
       d="M 726.86,57.28 747.43,32.1 a 11.3,11.3 0 0 0 -8.75,-18.43 h -0.06 l -27.76,0.15 A 11.31,11.31 0 0 0 702.19,18 l -3.77,4.6 -3.78,-4.6 A 11.29,11.29 0 0 0 686,13.82 l -27.75,-0.15 a 10.44,10.44 0 0 0 -2.48,0.29 11,11 0 0 0 -3.46,-0.52 h -49 a 11.24,11.24 0 0 0 -9.78,5.66 31.18,31.18 0 0 0 -17.66,-5.45 h -40.94 a 11.07,11.07 0 0 0 -6.07,1.78 11.22,11.22 0 0 0 -6.17,-1.88 h -48.4 a 11.33,11.33 0 0 0 -9.73,5.55 44.33,44.33 0 0 0 -53.94,5.9 l -1.2,-3.72 a 11.3,11.3 0 0 0 -10.76,-7.83 h -49.57 a 10.91,10.91 0 0 0 -3.3,0.54 c -0.27,0 -0.53,-0.06 -0.81,-0.06 L 321.07,13.71 A 11.19,11.19 0 0 0 311.43,19 L 304,30.74 296,18.57 a 11.31,11.31 0 0 0 -9.3,-5.05 L 261.4,13.3 a 11.12,11.12 0 0 0 -10,5.89 11.33,11.33 0 0 0 0.47,11.61 l 42.94,65.48 a 11.29,11.29 0 0 0 9.45,5.15 h 0.11 a 11.27,11.27 0 0 0 9.46,-5.33 l 24,-38.3 v 31.76 a 11.3,11.3 0 0 0 11.28,11.3 h 49.54 A 11.3,11.3 0 0 0 409.38,93 l 1.27,-3.93 a 44.34,44.34 0 0 0 62.7,-1.32 c 0.71,-0.74 1.39,-1.5 2,-2.28 0.18,-0.22 0.3,-0.45 0.46,-0.67 v 4.71 a 11.3,11.3 0 0 0 11.3,11.3 h 22.73 l 25,-0.13 h 23.17 a 11.27,11.27 0 0 0 7.3,-2.66 11.26,11.26 0 0 0 7.39,2.74 h 27.2 a 9.26,9.26 0 0 0 1.58,-0.11 11.68,11.68 0 0 0 1.78,0.19 h 49 a 12,12 0 0 0 2.85,-0.4 11.1,11.1 0 0 0 3,0.42 h 0.06 l 27.78,-0.17 a 11.27,11.27 0 0 0 8.68,-4.14 l 3.79,-4.55 3.74,4.58 a 11.3,11.3 0 0 0 8.7,4.14 l 27.78,0.16 h 0.06 a 11.3,11.3 0 0 0 8.74,-18.46 z m -252,13 -13.03,-13.28 1,-0.89 a 11.31,11.31 0 0 0 7.28,2.67 h 5.83 v 12.87 a 12.19,12.19 0 0 0 -1.08,-1.33 z"
       fill="#0072bc"
       id="path6"
       style="fill:#1a1a1a" />
    <path
       d="M 741.08,23.82 710.4,24 698.4,38.63 686.44,24 l -30.69,-0.18 27.4,33.46 -27.4,33.49 30.71,-0.17 12,-14.65 12,14.6 30.71,0.22 -27.47,-33.49 z m -4.8,64.62 -24.83,-0.14 -13,-15.92 -13,15.92 -24.89,0.14 25.44,-31.11 -25.45,-31.22 24.81,0.13 13.06,16 13.06,-15.95 24.81,-0.13 -25.52,31.12 z"
       fill="#ffffff"
       id="path8" />
    <path
       d="M 406.21,44.4 399.48,23.58 H 348 v 67.11 h 51.48 l 6.73,-20.83 H 368.82 V 65.29 H 387.6 V 48.4 h -18.78 v -4 z m -20.86,6.23 V 63 h -18.79 v 9.1 h 36.55 l -5.27,16.31 H 350.25 V 25.88 h 47.59 l 5.27,16.31 h -36.55 v 8.52 z"
       fill="#ffffff"
       id="path10" />
    <path
       d="m 622.78,69.86 v -4.57 h 18.57 V 48.4 h -18.57 v -4 h 37 l -6.66,-20.82 h -50.96 v 67.11 h 50.93 l 6.64,-20.83 z m 28.67,18.57 h -47 V 25.88 h 47 l 5.19,16.27 h -36.11 v 8.51 h 18.56 V 63 h -18.56 v 9.1 h 36.11 z"
       fill="#ffffff"
       id="path12" />
    <path
       d="m 593.47,56.66 c 3.34,-4.56 2,-14.8 1.91,-15.17 C 593.92,24 576.71,23.79 575.9,23.79 h -42.1 v 66.76 h 25.42 v -47 h 8.7 c 2.15,1.5 2.05,3.21 2.05,3.27 v 0.32 c 0.4,2.24 0.13,3.94 -0.79,5 -1.21,1.45 -3.44,1.66 -4.65,1.66 a 8.76,8.76 0 0 1 -1.45,-0.09 l -1.33,-0.23 v 20.63 l 10.45,16.51 h 29.67 l -15.4,-27.41 a 25.11,25.11 0 0 0 7,-6.55 z M 598,88.36 H 573.41 L 564,73.46 V 56.1 c 1.9,0.07 5,-0.23 6.89,-2.45 1.35,-1.61 1.78,-3.89 1.3,-6.77 0,-0.73 -0.17,-3.36 -3.35,-5.39 l -0.28,-0.18 H 557 v 47 H 536.1 V 26.06 h 39.88 c 1.63,0 15.92,0.43 17.19,15.69 0.37,2.66 0.89,10.41 -1.5,13.61 a 22.57,22.57 0 0 1 -7.2,6.41 l -1.07,0.53 z"
       fill="#ffffff"
       id="path14" />
    <path
       d="m 473.35,23.72 -4.64,24.89 h 17.36 V 90.67 H 511 v -42.1 h 17.3 l -4.64,-24.89 z m 35.31,22.6 V 88.41 H 488.32 V 46.32 H 471.43 L 475.23,26 h 46.52 l 3.8,20.33 z"
       fill="#ffffff"
       id="path16" />
    <path
       d="m 441.34,43.92 a 13,13 0 0 1 11.09,6.14 l 0.74,1.19 15.43,-15.06 -0.65,-0.8 A 34.27,34.27 0 1 0 467.63,79 l 0.66,-0.79 -15.11,-15.53 -0.77,1.22 a 13.08,13.08 0 1 1 -11.09,-20 z M 426,57 a 15.34,15.34 0 0 0 27.56,9.3 l 11.68,12 a 32,32 0 1 1 -2.56,-45.18 32.39,32.39 0 0 1 2.85,2.88 l -12,11.69 A 15.34,15.34 0 0 0 426,57 Z"
       fill="#ffffff"
       id="path18" />
    <path
       d="M 304.22,49.4 287.13,23.7 259.2,23.45 304.26,92.18 346.93,24.08 320.37,23.84 Z M 342.88,26.29 304.22,88 263.41,25.76 l 22.51,0.21 18.34,27.61 17.37,-27.45 z"
       fill="#ffffff"
       id="path20" />
  </g>
  <metadata
     id="metadata842">
    <rdf:RDF>
      <cc:Work
         rdf:about="">
        <dc:title>logo</dc:title>
      </cc:Work>
    </rdf:RDF>
  </metadata>
</svg>
