<?xml version="1.0" encoding="UTF-8" standalone="no"?>
<svg
   id="Calque_1"
   data-name="Calque 1"
   width="267.93393"
   height="109.48882"
   viewBox="0 0 267.93392 109.48882"
   version="1.1"
   sodipodi:docname="vg5000.svg"
   inkscape:version="1.1 (c68e22c387, 2021-05-23)"
   xmlns:inkscape="http://www.inkscape.org/namespaces/inkscape"
   xmlns:sodipodi="http://sodipodi.sourceforge.net/DTD/sodipodi-0.dtd"
   xmlns="http://www.w3.org/2000/svg"
   xmlns:svg="http://www.w3.org/2000/svg">
  <sodipodi:namedview
     id="namedview34"
     pagecolor="#ffffff"
     bordercolor="#666666"
     borderopacity="1.0"
     inkscape:pageshadow="2"
     inkscape:pageopacity="0.0"
     inkscape:pagecheckerboard="true"
     showgrid="false"
     inkscape:zoom="1.9493469"
     inkscape:cx="56.685651"
     inkscape:cy="60.020102"
     inkscape:window-width="1920"
     inkscape:window-height="1138"
     inkscape:window-x="-8"
     inkscape:window-y="-8"
     inkscape:window-maximized="1"
     inkscape:current-layer="Calque_1"
     fit-margin-top="0"
     fit-margin-left="0"
     fit-margin-right="0"
     fit-margin-bottom="0"
     inkscape:snap-global="false" />
  <defs
     id="defs4">
    <style
       id="style2">.cls-1{stroke:#ffc000;stroke-width:6px;}.cls-1,.cls-3{stroke-miterlimit:10;}.cls-2{fill:#191919;}.cls-3{fill:none;stroke:#191919;stroke-width:4px;}</style>
  </defs>
  <g
     id="g943">
    <rect
       style="fill:#ffffff;fill-rule:evenodd;stroke-width:13.8671;stroke-linecap:round;stroke-linejoin:round;paint-order:stroke fill markers"
       id="rect850"
       width="15.053724"
       height="15.597836"
       x="13.240023"
       y="13.058652" />
    <rect
       style="fill:#ffffff;fill-rule:evenodd;stroke-width:13.8671;stroke-linecap:round;stroke-linejoin:round;paint-order:stroke fill markers"
       id="rect932"
       width="15.053724"
       height="15.597836"
       x="131.13063"
       y="12.877282" />
    <g
       id="g852"
       transform="scale(0.33260999)">
      <rect
         style="fill:#ffffff;fill-rule:evenodd;stroke:#ffffff;stroke-width:47.4222;stroke-linecap:round;stroke-linejoin:round;stroke-miterlimit:4;stroke-dasharray:none;paint-order:stroke fill markers"
         id="rect1115"
         width="65.773033"
         height="64.322067"
         x="412.92075"
         y="132.12851"
         inkscape:export-filename="C:\Users\BUCH\Desktop\Retrogaming\Recalbox\travail thèmes\BlueBox\vg5000\rect1115.png"
         inkscape:export-xdpi="178.75989"
         inkscape:export-ydpi="178.75989" />
      <rect
         style="fill:#ffffff;fill-rule:evenodd;stroke:#ffffff;stroke-width:79.7574;stroke-linecap:round;stroke-linejoin:round;stroke-miterlimit:4;stroke-dasharray:none;paint-order:stroke fill markers"
         id="rect1197"
         width="238.7489"
         height="50.123917"
         x="501.63641"
         y="196.17784"
         inkscape:export-filename="C:\Users\BUCH\Desktop\Retrogaming\Recalbox\travail thèmes\BlueBox\vg5000\rect1115.png"
         inkscape:export-xdpi="178.75989"
         inkscape:export-ydpi="178.75989" />
      <rect
         style="fill:#ffffff;fill-rule:evenodd;stroke:#ffffff;stroke-width:57.6729;stroke-linecap:round;stroke-linejoin:round;stroke-miterlimit:4;stroke-dasharray:none;paint-order:stroke fill markers"
         id="rect907"
         width="15.620865"
         height="127.34488"
         x="75.619202"
         y="93.725029"
         inkscape:export-filename="C:\Users\BUCH\Desktop\Retrogaming\Recalbox\travail thèmes\BlueBox\vg5000\rect1115.png"
         inkscape:export-xdpi="178.75989"
         inkscape:export-ydpi="178.75989" />
      <rect
         style="fill:#ffffff;fill-rule:evenodd;stroke:#ffffff;stroke-width:36.0277;stroke-linecap:round;stroke-linejoin:round;stroke-miterlimit:4;stroke-dasharray:none;paint-order:stroke fill markers"
         id="rect1011"
         width="82.245819"
         height="111.99052"
         x="169.99135"
         y="169.23468"
         inkscape:export-filename="C:\Users\BUCH\Desktop\Retrogaming\Recalbox\travail thèmes\BlueBox\vg5000\rect1115.png"
         inkscape:export-xdpi="178.75989"
         inkscape:export-ydpi="178.75989" />
      <path
         id="path8"
         style="stroke:#ffffff;stroke-width:45;stroke-linejoin:round;stroke-miterlimit:4;stroke-dasharray:none;paint-order:stroke fill markers"
         class="cls-2"
         d="m 505.06747,22.503079 c -19.06031,0.158438 -35.04539,6.772422 -37.58789,31.357422 -0.52,10.48 4.25844,22.248984 16.64844,26.708984 44.18,11.060001 20.67031,27.770625 -14.67969,17.640626 v 24.259759 c 16.85,4.06 64.46055,7.43015 65.06055,-29.839838 0.32,-20.1 -20.76969,-29.170703 -37.67969,-33.720703 v -0.06836 c -9.81,-3.77 0.79945,-23.891484 27.93945,-10.771485 V 24.069486 c -6.6525,-0.955 -13.34773,-1.619219 -19.70117,-1.566407 z M 47.542076,24.073392 c -6.934212,0.05232 -14.124141,0.265625 -21.322265,0.265625 v 18.75 2.929687 76.451166 l 25.539062,0.0117 -0.0078,-20.81835 c 35.82968,0.29906 51.058577,-14.707968 51.058577,-38.722641 0,-36.294375 -25.219325,-39.091941 -55.267574,-38.865234 z m 353.472654,0 c -6.93477,0.05232 -14.12804,0.265625 -21.32617,0.265625 v 18.75 2.929687 76.451166 l 25.54102,0.0117 -0.008,-20.81054 c 35.83907,0.39292 51.0664,-13.668539 51.0664,-38.730471 0,-36.294375 -25.22271,-39.091941 -55.27344,-38.865234 z M 113.40926,24.440579 V 122.4894 h 25.51954 l 0.01,-39.359368 h 27.45117 V 122.4894 h 25.48829 V 24.440579 h -25.5 l 0.0117,36.46875 h -27.45117 l -0.01,-36.46875 z m 102.49024,0 v 98.058591 h 25.51953 V 24.440579 Z m 49.5293,0 V 122.4894 h 51.83008 V 100.22964 H 290.94833 V 24.440579 Z m 64.48047,0 V 122.49917 H 355.4288 V 24.440579 Z M 58.794029,45.376126 C 84.29041,45.661223 83.13851,84.289104 51.743248,79.268704 l -0.01172,-33.089843 h 0.0078 c 2.541407,-0.576564 4.893888,-0.826897 7.054688,-0.802735 z m 353.468751,0 c 25.49691,0.285103 24.34638,38.914888 -7.05078,33.892578 l -0.0117,-33.089843 h 0.01 c 2.5414,-0.576564 4.89193,-0.826897 7.05273,-0.802735 z M 22.499107,144.10073 77.848716,306.68081 h 7.990235 L 142.10849,144.10073 H 130.12802 L 81.758873,283.14956 34.348716,144.10073 Z m 491.669923,1.35938 c -13.93,0 -26.85062,8.67015 -36.39062,24.41015 -9.13,15 -14.12891,34.93 -14.12891,56 0,21.07 5.01891,41 14.12891,56 9.54,15.73 22.46062,24.40039 36.39062,24.40039 13.9,0 26.90063,-8.67039 36.39063,-24.40039 9.13,-15 14.1289,-34.92 14.1289,-56 0,-21.08 -5.0189,-41 -14.1289,-56 -9.54,-15.74 -22.46063,-24.41015 -36.39063,-24.41015 z m 109,0 c -13.93,0 -26.85062,8.67015 -36.39062,24.41015 -9.14,15 -14.13868,34.93 -14.13868,56 0,21.07 5.01868,41 14.13868,56 9.54,15.73 22.46062,24.40039 36.39062,24.40039 13.9,0 26.90063,-8.67039 36.39063,-24.40039 9.13,-15 14.1289,-34.92 14.1289,-56 0,-21.08 -5.0189,-41 -14.1289,-56 -9.54,-15.74 -22.46063,-24.41015 -36.39063,-24.41015 z m 109.35938,0 c -13.93,0 -26.84868,8.67015 -36.38868,24.41015 -9.12999,15 -14.13085,34.93 -14.13085,56 0,21.07 5.02085,41 14.13085,56 9.54,15.73 22.45868,24.40039 36.38868,24.40039 13.93,0 26.85062,-8.67039 36.39062,-24.40039 9.13,-15 14.13086,-34.92 14.13086,-56 0,-21.08 -5.02086,-41 -14.13086,-56 -9.54,-15.74 -22.46062,-24.41015 -36.39062,-24.41015 z m -342.53907,0.18945 -20.15039,59 c -1.09,3.35 1.74969,5.16 2.67969,5.75 l 2,1.25977 2.16016,-0.88868 1.4707,-0.64062 c 3.1,-1.4 7.37961,-3.31055 21.09961,-3.31055 h 0.0898 c 23.1,0.02 48.23008,14.23016 48.83008,45.41016 a 41.11,41.11 0 0 1 -12,30.14062 c -9.41,9.59 -23.14015,15.09961 -37.66015,15.09961 -23.85,0 -36.45993,-10.32937 -37.91993,-15.85937 l -8.69922,2.28906 c 2.88001,10.94 20.19915,22.57031 46.61915,22.57031 16.92,0 32.98984,-6.48953 44.08984,-17.76953 a 50.51,50.51 0 0 0 14.59961,-36.60937 c -0.71,-37.24 -30.4686,-54.24024 -57.8086,-54.24024 h -0.0898 c -8.79,0 -14.31062,0.70899 -18.14062,1.70899 l 15.33007,-44.91016 h 57.5 v -9 z m -182.62695,0.0703 a 80.43,80.43 0 0 0 4.19727,160.75 l 0.0293,-0.0391 a 80.42,80.42 0 0 0 80.19922,-74.35156 l 0.3711,-4.83985 h -74.08985 v 9 h 64.18946 A 71.44,71.44 0 1 1 270.7999,186.06943 l 7.44922,-5 A 80.43,80.43 0 0 0 207.3624,145.71982 Z m 306.80664,8.71094 c 10.66,0 20.89946,7.12836 28.68946,20.06836 8.28,13.65 12.83007,31.88156 12.83007,51.35156 0,19.47 -4.55008,37.69961 -12.83007,51.34961 -7.84001,12.94 -17.99946,20.07031 -28.68946,20.07031 -10.69,0 -20.84945,-7.13031 -28.68945,-20.07031 -8.28,-13.65 -12.83008,-31.87961 -12.83008,-51.34961 0,-19.47 4.55008,-37.70156 12.83008,-51.35156 7.84,-12.94 18.02945,-20.06836 28.68945,-20.06836 z m 109,0 c 10.65,0 20.83945,7.12836 28.68946,20.06836 8.27,13.65 12.83007,31.88156 12.83007,51.35156 0,19.47 -4.56008,37.69961 -12.83007,51.34961 -7.85001,12.94 -17.98946,20.07031 -28.68946,20.07031 -10.7,0 -20.84922,-7.13031 -28.69922,-20.07031 -8.27,-13.65 -12.83008,-31.87961 -12.83008,-51.34961 0,-19.47 4.56008,-37.70156 12.83008,-51.35156 7.85,-12.94 18.03922,-20.06836 28.69922,-20.06836 z m 109.35938,0 c 10.66,0 20.8514,7.12836 28.6914,20.06836 8.28,13.65 12.83008,31.88156 12.83008,51.35156 0,19.47 -4.55008,37.69961 -12.83008,51.34961 -7.84,12.94 -18.0014,20.07031 -28.6914,20.07031 -10.69,0 -20.84946,-7.13031 -28.68946,-20.07031 -8.27,-13.65 -12.83007,-31.87961 -12.83007,-51.34961 0,-19.47 4.56007,-37.70156 12.83007,-51.35156 7.84,-12.94 18.02946,-20.06836 28.68946,-20.06836 z"
         inkscape:export-filename="C:\Users\BUCH\Desktop\Retrogaming\Recalbox\travail thèmes\BlueBox\vg5000\rect1115.png"
         inkscape:export-xdpi="178.75989"
         inkscape:export-ydpi="178.75989" />
      <path
         id="path826"
         style="stroke:none;stroke-width:45;stroke-linejoin:round;stroke-miterlimit:4;stroke-dasharray:none;paint-order:stroke fill markers"
         class="cls-2"
         d="m 505.06747,22.503086 c -19.06031,0.15844 -35.04539,6.77242 -37.58789,31.357416 -0.52,10.48 4.25844,22.24899 16.64844,26.70899 44.18,11.06 20.67031,27.770618 -14.67969,17.64062 v 24.259758 c 16.85,4.06 64.46055,7.43015 65.06055,-29.839838 0.32,-20.1 -20.76969,-29.1707 -37.67969,-33.7207 v -0.0684 c -9.81,-3.77 0.79945,-23.891476 27.93945,-10.77148 V 24.069456 c -6.6525,-0.955 -13.34773,-1.61922 -19.70117,-1.56641 z m -457.525394,1.57031 c -6.934212,0.0523 -14.124141,0.26563 -21.322265,0.26563 v 18.749996 2.92969 76.451158 l 25.539062,0.0117 -0.0078,-20.81835 c 35.829681,0.29906 51.058577,-14.707968 51.058577,-38.722638 0,-36.294366 -25.219324,-39.091936 -55.267574,-38.865226 z m 353.472654,0 c -6.93477,0.0523 -14.12804,0.26563 -21.32617,0.26563 v 18.749996 2.92969 76.451158 l 25.54102,0.0117 -0.008,-20.81054 c 35.83907,0.39292 51.0664,-13.668538 51.0664,-38.730468 0,-36.294366 -25.22271,-39.091936 -55.27344,-38.865226 z m -287.60547,0.36719 V 122.4894 h 25.51954 l 0.01,-39.359368 h 27.45117 V 122.4894 h 25.48829 V 24.440586 h -25.5 l 0.0117,36.468746 h -27.45117 l -0.01,-36.468746 z m 102.49024,0 v 98.058584 h 25.51953 V 24.440586 Z m 49.5293,0 V 122.4894 h 51.83008 V 100.22964 H 290.94833 V 24.440586 Z m 64.48047,0 V 122.49917 H 355.4288 V 24.440586 Z M 58.794029,45.376132 c 25.496382,0.2851 24.344482,38.91298 -7.050781,33.89258 l -0.01172,-33.08985 h 0.0078 c 2.541407,-0.57656 4.893888,-0.82689 7.054688,-0.80273 z m 353.468751,0 c 25.49691,0.2851 24.34638,38.91489 -7.05078,33.89258 l -0.0117,-33.08985 h 0.01 c 2.5414,-0.57656 4.89193,-0.82689 7.05273,-0.80273 z M 22.499107,144.10073 77.848717,306.68082 h 7.990235 L 142.10849,144.10073 H 130.12802 L 81.758874,283.14957 34.348716,144.10073 Z m 491.669923,1.35938 c -13.93,0 -26.85062,8.67015 -36.39062,24.41015 -9.13,15 -14.12891,34.93 -14.12891,56 0,21.07001 5.01891,41.00001 14.12891,56.00001 9.54,15.73 22.46062,24.40039 36.39062,24.40039 13.9,0 26.90063,-8.67039 36.39063,-24.40039 9.13,-15 14.1289,-34.92 14.1289,-56.00001 0,-21.08 -5.0189,-41 -14.1289,-56 -9.54,-15.74 -22.46063,-24.41015 -36.39063,-24.41015 z m 109,0 c -13.93,0 -26.85062,8.67015 -36.39062,24.41015 -9.14,15 -14.13868,34.93 -14.13868,56 0,21.07001 5.01868,41.00001 14.13868,56.00001 9.54,15.73 22.46062,24.40039 36.39062,24.40039 13.9,0 26.90063,-8.67039 36.39063,-24.40039 9.13,-15 14.1289,-34.92 14.1289,-56.00001 0,-21.08 -5.0189,-41 -14.1289,-56 -9.54,-15.74 -22.46063,-24.41015 -36.39063,-24.41015 z m 109.35938,0 c -13.93,0 -26.84868,8.67015 -36.38868,24.41015 -9.12999,15 -14.13085,34.93 -14.13085,56 0,21.07001 5.02085,41.00001 14.13085,56.00001 9.54,15.73 22.45868,24.40039 36.38868,24.40039 13.93,0 26.85062,-8.67039 36.39062,-24.40039 9.13,-15 14.13086,-34.92 14.13086,-56.00001 0,-21.08 -5.02086,-41 -14.13086,-56 -9.54,-15.74 -22.46062,-24.41015 -36.39062,-24.41015 z m -342.53907,0.18945 -20.15039,59 c -1.09,3.35 1.74969,5.16 2.67969,5.75 l 2,1.25977 2.16016,-0.88868 1.4707,-0.64062 c 3.1,-1.4 7.37961,-3.31055 21.09961,-3.31055 h 0.0898 c 23.1,0.02 48.23008,14.23016 48.83008,45.41017 a 41.11,41.11 0 0 1 -12,30.14062 c -9.41,9.59 -23.14015,15.09961 -37.66015,15.09961 -23.85,0 -36.45993,-10.32937 -37.91993,-15.85937 l -8.69922,2.28906 c 2.88001,10.94 20.19915,22.57031 46.61915,22.57031 16.92,0 32.98984,-6.48953 44.08984,-17.76953 a 50.51,50.51 0 0 0 14.59961,-36.60937 c -0.71,-37.24001 -30.4686,-54.24025 -57.8086,-54.24025 h -0.0898 c -8.79,0 -14.31062,0.70899 -18.14062,1.70899 l 15.33007,-44.91016 h 57.5 v -9 z m -182.62695,0.0703 a 80.43,80.43 0 0 0 4.19727,160.75001 l 0.0293,-0.0391 a 80.42,80.42 0 0 0 80.19922,-74.35157 l 0.3711,-4.83985 h -74.08985 v 9 h 64.18946 A 71.44,71.44 0 1 1 270.7999,186.06943 l 7.44922,-5 A 80.43,80.43 0 0 0 207.3624,145.71982 Z m 306.80664,8.71094 c 10.66,0 20.89946,7.12836 28.68946,20.06836 8.28,13.65 12.83007,31.88156 12.83007,51.35156 0,19.47001 -4.55008,37.69962 -12.83007,51.34962 -7.84001,12.94 -17.99946,20.07031 -28.68946,20.07031 -10.69,0 -20.84945,-7.13031 -28.68945,-20.07031 -8.28,-13.65 -12.83008,-31.87961 -12.83008,-51.34962 0,-19.47 4.55008,-37.70156 12.83008,-51.35156 7.84,-12.94 18.02945,-20.06836 28.68945,-20.06836 z m 109,0 c 10.65,0 20.83945,7.12836 28.68946,20.06836 8.27,13.65 12.83007,31.88156 12.83007,51.35156 0,19.47001 -4.56008,37.69962 -12.83007,51.34962 -7.85001,12.94 -17.98946,20.07031 -28.68946,20.07031 -10.7,0 -20.84922,-7.13031 -28.69922,-20.07031 -8.27,-13.65 -12.83008,-31.87961 -12.83008,-51.34962 0,-19.47 4.56008,-37.70156 12.83008,-51.35156 7.85,-12.94 18.03922,-20.06836 28.69922,-20.06836 z m 109.35938,0 c 10.66,0 20.8514,7.12836 28.6914,20.06836 8.28,13.65 12.83008,31.88156 12.83008,51.35156 0,19.47001 -4.55008,37.69962 -12.83008,51.34962 -7.84,12.94 -18.0014,20.07031 -28.6914,20.07031 -10.69,0 -20.84946,-7.13031 -28.68946,-20.07031 -8.27,-13.65 -12.83007,-31.87961 -12.83007,-51.34962 0,-19.47 4.56007,-37.70156 12.83007,-51.35156 7.84,-12.94 18.02946,-20.06836 28.68946,-20.06836 z"
         inkscape:export-filename="C:\Users\BUCH\Desktop\Retrogaming\Recalbox\travail thèmes\BlueBox\vg5000\rect1115.png"
         inkscape:export-xdpi="178.75989"
         inkscape:export-ydpi="178.75989" />
    </g>
  </g>
</svg>
