<?xml version="1.0" encoding="UTF-8" standalone="no"?>
<svg
   viewBox="0 0 514.00201 70.203239"
   version="1.1"
   id="svg284"
   sodipodi:docname="videopacplus.svg"
   width="514.00201"
   height="70.203239"
   inkscape:version="1.1 (c68e22c387, 2021-05-23)"
   xmlns:inkscape="http://www.inkscape.org/namespaces/inkscape"
   xmlns:sodipodi="http://sodipodi.sourceforge.net/DTD/sodipodi-0.dtd"
   xmlns="http://www.w3.org/2000/svg"
   xmlns:svg="http://www.w3.org/2000/svg">
  <defs
     id="defs288" />
  <sodipodi:namedview
     id="namedview286"
     pagecolor="#ffffff"
     bordercolor="#666666"
     borderopacity="1.0"
     inkscape:pageshadow="2"
     inkscape:pageopacity="0.0"
     inkscape:pagecheckerboard="0"
     showgrid="false"
     fit-margin-top="0"
     fit-margin-left="0"
     fit-margin-right="0"
     fit-margin-bottom="0"
     inkscape:zoom="0.78700985"
     inkscape:cx="439.0034"
     inkscape:cy="35.5777"
     inkscape:window-width="1920"
     inkscape:window-height="1138"
     inkscape:window-x="-8"
     inkscape:window-y="-8"
     inkscape:window-maximized="1"
     inkscape:current-layer="svg284" />
  <g
     id="g2517"
     transform="translate(-242.99797,-21.9)">
    <g
       id="Layer_2"
       data-name="Layer 2">
      <rect
         x="335.70999"
         y="40.41"
         width="40.169998"
         height="30.83"
         fill="#ffffff"
         id="rect2" />
      <rect
         x="445.28"
         y="43.830002"
         width="38.09"
         height="26.75"
         fill="#ffffff"
         id="rect4" />
      <rect
         x="619.41998"
         y="43.830002"
         width="42.380001"
         height="26.75"
         fill="#ffffff"
         id="rect6" />
    </g>
    <path
       d="m 279.68,88.6 a 3.51,3.51 0 0 1 -3.09,-1.85 L 246.91,31.35 A 3.51,3.51 0 0 1 250,26.19 h 15.83 a 3.48,3.48 0 0 1 3.08,1.81 l 21.77,40.64 a 3.53,3.53 0 0 1 0,3.31 l -7.92,14.76 a 3.49,3.49 0 0 1 -3.08,1.85 z"
       fill="#ef6f4e"
       id="path9" />
    <path
       d="M 265.83,29.69 287.59,70.34 279.68,85.1 250,29.69 h 15.83 m 0,-7 H 250 A 7,7 0 0 0 243.83,33 l 29.68,55.4 a 7,7 0 0 0 6.17,3.7 v 0 a 7,7 0 0 0 6.17,-3.7 l 7.91,-14.76 a 7,7 0 0 0 0,-6.61 L 272,26.39 a 7,7 0 0 0 -6.17,-3.7 z"
       fill="#ffffff"
       id="path11" />
    <path
       d="m 289.57,70.11 a 3.48,3.48 0 0 1 -3.08,-1.84 l -7.92,-14.76 a 3.53,3.53 0 0 1 0,-3.31 L 290.44,28 a 3.51,3.51 0 0 1 3.09,-1.85 h 15.83 a 3.5,3.5 0 0 1 3.08,5.16 l -19.78,36.96 a 3.52,3.52 0 0 1 -3.09,1.84 z"
       fill="#ef6f4e"
       id="path13" />
    <path
       d="m 309.36,29.69 v 0 m 0,0 -19.79,36.92 -7.91,-14.76 11.87,-22.16 h 15.83 m 0,-7 h -15.83 a 7,7 0 0 0 -6.17,3.7 l -11.87,22.16 a 7,7 0 0 0 0,6.61 l 7.91,14.76 a 7,7 0 0 0 6.17,3.69 v 0 a 7,7 0 0 0 6.17,-3.69 l 19.7,-36.75 a 7,7 0 0 0 -6.08,-10.48 z m 0,14 z"
       fill="#ffffff"
       id="path15" />
    <path
       d="m 313.4,88.6 a 3.5,3.5 0 0 1 -3.5,-3.5 V 29.69 a 3.5,3.5 0 0 1 3.5,-3.5 h 13.89 a 3.52,3.52 0 0 1 3.5,3.51 v 55.4 a 3.51,3.51 0 0 1 -3.5,3.5 z"
       fill="#ef6f4e"
       id="path17" />
    <path
       d="m 327.29,29.69 v 0 m 0,0 V 85.1 H 313.4 V 29.69 h 13.89 m 0,-7 H 313.4 a 7,7 0 0 0 -7,7 V 85.1 a 7,7 0 0 0 7,7 h 13.85 a 7,7 0 0 0 7,-7 v -55.21 -0.2 a 7,7 0 0 0 -7,-7 z m 0,14 z"
       fill="#ffffff"
       id="path19" />
    <path
       d="m 333.18,88.6 a 3.5,3.5 0 0 1 -3.5,-3.5 V 29.69 a 3.5,3.5 0 0 1 3.5,-3.5 h 13.89 a 3.5,3.5 0 0 1 3.5,3.51 v 55.4 a 3.5,3.5 0 0 1 -3.5,3.5 z"
       fill="#ef6f4e"
       id="path21" />
    <path
       d="m 347.07,29.69 v 0 m 0,0 V 85.1 H 333.18 V 29.69 h 13.89 m 0,-7 h -13.9 a 7,7 0 0 0 -7,7 V 85.1 a 7,7 0 0 0 7,7 H 347 a 7,7 0 0 0 7,-7 v -55.21 -0.2 a 7,7 0 0 0 -7,-7 z m 0,14 z"
       fill="#ffffff"
       id="path23" />
    <path
       d="m 351,88.6 a 3.5,3.5 0 0 1 -3.5,-3.5 V 71.25 a 3.5,3.5 0 0 1 3.5,-3.5 h 5.94 A 10.38,10.38 0 0 0 367.28,57.4 10.35,10.35 0 0 0 356.93,47.05 H 351 a 3.5,3.5 0 0 1 -3.5,-3.5 V 29.69 a 3.5,3.5 0 0 1 3.5,-3.5 h 5.94 A 30.21,30.21 0 0 1 379,35.33 30.21,30.21 0 0 1 388.14,57.4 30.21,30.21 0 0 1 379,79.46 30.21,30.21 0 0 1 356.94,88.6 Z"
       fill="#ef6f4e"
       id="path25" />
    <path
       d="m 356.93,29.69 a 26.7,26.7 0 0 1 19.59,8.12 26.66,26.66 0 0 1 8.11,19.59 27.69,27.69 0 0 1 -27.7,27.7 H 351 V 71.25 h 5.94 A 13.86,13.86 0 0 0 370.78,57.4 13.84,13.84 0 0 0 356.93,43.55 H 351 V 29.69 h 5.94 m 0,-7 H 351 a 7,7 0 0 0 -7,7 v 13.85 a 7,7 0 0 0 7,7 h 5.94 a 6.85,6.85 0 0 1 6.85,6.85 6.86,6.86 0 0 1 -6.85,6.85 H 351 a 7,7 0 0 0 -7,7 V 85.1 a 7,7 0 0 0 7,7 h 5.94 A 33.57,33.57 0 0 0 381.48,81.93 33.58,33.58 0 0 0 391.63,57.4 33.57,33.57 0 0 0 381.47,32.86 33.59,33.59 0 0 0 356.93,22.69 Z"
       fill="#ffffff"
       id="path27" />
    <path
       d="m 390.64,88.6 a 3.5,3.5 0 0 1 -3.5,-3.5 V 29.69 a 3.5,3.5 0 0 1 3.5,-3.5 h 13.89 A 3.5,3.5 0 0 1 408,29.7 v 55.4 a 3.5,3.5 0 0 1 -3.5,3.5 z"
       fill="#ef6f4e"
       id="path29" />
    <path
       d="m 404.53,29.69 v 0 m 0,0 V 85.1 H 390.64 V 29.69 h 13.89 m 0,-7 h -13.9 a 7,7 0 0 0 -7,7 V 85.1 a 7,7 0 0 0 7,7 h 13.85 a 7,7 0 0 0 7,-7 v -55.21 -0.2 a 7,7 0 0 0 -7,-7 z m 0,14 z"
       fill="#ffffff"
       id="path31" />
    <rect
       x="404.95001"
       y="26.190001"
       width="28.76"
       height="20.85"
       rx="3.5"
       fill="#ef6f4e"
       id="rect33" />
    <path
       d="M 430.22,29.69 V 43.54 H 408.45 V 29.69 h 21.77 m 0,-7 h -21.77 a 7,7 0 0 0 -7,7 v 13.85 a 7,7 0 0 0 7,7 h 21.77 a 7,7 0 0 0 7,-7 V 29.69 a 7,7 0 0 0 -7,-7 z"
       fill="#ffffff"
       id="path35" />
    <rect
       x="404.95001"
       y="67.75"
       width="28.76"
       height="20.85"
       rx="3.5"
       fill="#ef6f4e"
       id="rect37" />
    <path
       d="M 430.22,71.25 V 85.1 H 408.45 V 71.25 h 21.77 m 0,-7 h -21.77 a 7,7 0 0 0 -7,7 V 85.1 a 7,7 0 0 0 7,7 h 21.77 a 7,7 0 0 0 7,-7 V 71.25 a 7,7 0 0 0 -7,-7 z"
       fill="#ffffff"
       id="path39" />
    <rect
       x="404.95001"
       y="46.970001"
       width="28.76"
       height="20.85"
       rx="3.5"
       fill="#ef6f4e"
       id="rect41" />
    <path
       d="M 430.22,50.47 V 64.32 H 408.45 V 50.47 h 21.77 m 0,-7 h -21.77 a 7,7 0 0 0 -7,7 v 13.85 a 7,7 0 0 0 7,7 h 21.77 a 7,7 0 0 0 7,-7 V 50.47 a 7,7 0 0 0 -7,-7 z"
       fill="#ffffff"
       id="path43" />
    <path
       d="m 463.93,88.6 a 31.18,31.18 0 0 1 -31.11,-29 3.51,3.51 0 0 1 3.49,-3.72 h 13.93 a 3.5,3.5 0 0 1 3.47,3 10.39,10.39 0 0 0 10.22,8.83 9.88,9.88 0 0 0 7.34,-3 9.72,9.72 0 0 0 2.92,-5.78 3.51,3.51 0 0 1 3.47,-3 h 13.94 a 3.51,3.51 0 0 1 3.49,3.72 31.28,31.28 0 0 1 -31.16,29 z"
       fill="#ef6f4e"
       id="path45" />
    <path
       d="m 491.6,59.37 v 0 m 0,0 a 27.72,27.72 0 0 1 -55.29,0 h 13.93 a 13.85,13.85 0 0 0 27.42,0 h 13.94 m 0,-7 h -13.94 a 7,7 0 0 0 -6.93,6.08 6.35,6.35 0 0 1 -1.93,3.77 6.41,6.41 0 0 1 -4.87,2 6.9,6.9 0 0 1 -6.75,-5.79 7,7 0 0 0 -6.94,-6.08 h -13.93 a 7,7 0 0 0 -7,7.44 34.72,34.72 0 0 0 69.25,0.22 q 0,-0.33 0,-0.66 a 7,7 0 0 0 -7,-7 z m 0,14 z"
       fill="#ffffff"
       id="path47" />
    <path
       d="m 477.66,58.92 a 3.51,3.51 0 0 1 -3.47,-3 10.35,10.35 0 0 0 -20.48,0 3.5,3.5 0 0 1 -3.47,3 h -13.93 a 3.51,3.51 0 0 1 -3.49,-3.72 31.21,31.21 0 0 1 62.27,0 3.51,3.51 0 0 1 -3.49,3.72 z"
       fill="#ef6f4e"
       id="path49" />
    <path
       d="m 463.93,29.69 a 27.79,27.79 0 0 1 27.67,25.73 h -13.94 a 13.85,13.85 0 0 0 -27.42,0 h -13.93 a 27.69,27.69 0 0 1 27.62,-25.73 m 0,-7 A 33.57,33.57 0 0 0 439.39,32.86 33.44,33.44 0 0 0 429.32,55 a 7,7 0 0 0 7,7.44 h 13.93 a 7,7 0 0 0 6.94,-6.08 6.46,6.46 0 0 1 2,-3.84 6.33,6.33 0 0 1 4.79,-2 6.85,6.85 0 0 1 6.8,5.8 7,7 0 0 0 6.93,6.08 h 13.89 a 7,7 0 0 0 7,-7.44 34.75,34.75 0 0 0 -34.65,-32.29 z"
       fill="#ffffff"
       id="path51" />
    <rect
       x="494.14999"
       y="26.190001"
       width="20.85"
       height="62.400002"
       rx="3.5"
       fill="#ef6f4e"
       id="rect53" />
    <path
       d="M 511.5,29.69 V 85.1 H 497.65 V 29.69 h 13.85 m 0,-7 h -13.85 a 7,7 0 0 0 -7,7 V 85.1 a 7,7 0 0 0 7,7 h 13.85 a 7,7 0 0 0 7,-7 V 29.69 a 7,7 0 0 0 -7,-7 z"
       fill="#ffffff"
       id="path55" />
    <path
       d="m 515.46,67.82 a 3.5,3.5 0 0 1 -3.5,-3.5 V 50.47 a 3.48,3.48 0 0 1 3,-3.46 3.58,3.58 0 0 1 -2,-1 3.54,3.54 0 0 1 -1,-2.48 V 29.69 a 3.5,3.5 0 0 1 3.5,-3.5 h 7.44 A 20.79,20.79 0 0 1 543.69,47 20.79,20.79 0 0 1 522.9,67.82 Z"
       fill="#ef6f4e"
       id="path57" />
    <path
       d="M 522.9,29.69 A 17.29,17.29 0 0 1 540.19,47 17.29,17.29 0 0 1 522.9,64.32 h -7.44 V 50.47 h 7.44 a 3.32,3.32 0 0 0 2.43,-1 3.49,3.49 0 0 0 0,-4.91 3.32,3.32 0 0 0 -2.43,-1 h -7.44 V 29.69 h 7.44 m 0,-7 h -7.44 a 7,7 0 0 0 -7,7 v 13.85 a 7,7 0 0 0 0.91,3.46 7,7 0 0 0 -0.91,3.47 v 13.85 a 7,7 0 0 0 7,7 h 7.44 A 23.47,23.47 0 0 0 540.07,64.2 23.51,23.51 0 0 0 547.19,47 24.31,24.31 0 0 0 522.9,22.7 Z"
       fill="#ffffff"
       id="path59" />
    <path
       d="m 543.16,88.6 a 3.51,3.51 0 0 1 -3.09,-5.16 l 19.79,-36.92 a 3.5,3.5 0 0 1 6.17,0 l 7.91,14.76 a 3.47,3.47 0 0 1 0,3.31 L 562.07,86.75 A 3.49,3.49 0 0 1 559,88.6 Z"
       fill="#ef6f4e"
       id="path61" />
    <path
       d="M 563,48.17 570.91,62.93 559,85.1 H 543.16 L 563,48.17 m 0,-7 v 0 a 7,7 0 0 0 -6.16,3.7 L 537,81.79 a 7,7 0 0 0 6.17,10.31 H 559 a 7,7 0 0 0 6.17,-3.7 L 577,66.24 a 7,7 0 0 0 0,-6.61 l -7.92,-14.76 a 7,7 0 0 0 -6.16,-3.7 z"
       fill="#ffffff"
       id="path63" />
    <path
       d="m 586.69,88.6 a 3.49,3.49 0 0 1 -3.08,-1.85 L 582,83.65 h -16.4 a 3.5,3.5 0 0 1 -3.09,-5.15 l 7.4,-13.85 a 3.67,3.67 0 0 1 1.18,-1.29 l -9.25,-17.25 a 3.53,3.53 0 0 1 0,-3.31 L 569.75,28 a 3.51,3.51 0 0 1 3.09,-1.85 v 0 a 3.49,3.49 0 0 1 3.08,1.85 l 29.68,55.4 a 3.51,3.51 0 0 1 -3.08,5.16 z"
       fill="#ef6f4e"
       id="path65" />
    <path
       d="M 572.84,29.69 602.52,85.1 H 586.69 L 584,80.15 H 565.6 L 573,66.3 h 3.64 l -11.72,-21.85 7.92,-14.76 m 0,-7 a 7,7 0 0 0 -6.17,3.7 l -7.92,14.76 a 7,7 0 0 0 0,6.61 l 8.12,15.15 -0.06,0.09 -7.39,13.85 a 7,7 0 0 0 6.17,10.3 h 14.25 l 0.67,1.25 a 7,7 0 0 0 6.17,3.7 h 15.83 a 7,7 0 0 0 6.17,-10.31 L 579,26.39 a 7,7 0 0 0 -6.17,-3.7 z"
       fill="#ffffff"
       id="path67" />
    <path
       d="m 632.06,88.51 a 30.05,30.05 0 0 1 -19.87,-9.05 30.21,30.21 0 0 1 -9.14,-22.07 30.21,30.21 0 0 1 9.14,-22.06 30,30 0 0 1 19.87,-9 h 0.22 a 3.51,3.51 0 0 1 3.5,3.5 v 13.83 a 3.5,3.5 0 0 1 -3,3.47 9.78,9.78 0 0 0 -5.78,2.92 9.91,9.91 0 0 0 -3.05,7.34 10.48,10.48 0 0 0 8.83,10.27 3.5,3.5 0 0 1 3,3.47 V 85 a 3.51,3.51 0 0 1 -3.5,3.5 z"
       fill="#ef6f4e"
       id="path69" />
    <path
       d="m 632.28,29.77 v 13.89 a 13.89,13.89 0 0 0 -11.87,13.73 14,14 0 0 0 11.87,13.74 V 85 a 26.49,26.49 0 0 1 -17.61,-8 26.67,26.67 0 0 1 -8.12,-19.59 26.7,26.7 0 0 1 8.12,-19.59 26.48,26.48 0 0 1 17.61,-8 m 0,-7 h -0.44 A 33.44,33.44 0 0 0 609.72,32.89 33.59,33.59 0 0 0 599.55,57.43 33.56,33.56 0 0 0 609.72,81.97 33.39,33.39 0 0 0 631.84,92 h 0.44 a 7,7 0 0 0 7,-7 V 71.13 a 7,7 0 0 0 -6.08,-6.94 6.23,6.23 0 0 1 -3.74,-1.94 h -0.05 a 6.3,6.3 0 0 1 -2,-4.81 6.41,6.41 0 0 1 2,-4.86 6.29,6.29 0 0 1 3.77,-1.93 7,7 0 0 0 6.08,-6.94 V 29.77 a 7,7 0 0 0 -7,-7 z"
       fill="#ffffff"
       id="path71" />
    <path
       d="m 645.82,53.18 a 3.48,3.48 0 0 1 -2.9,-1.54 11.44,11.44 0 0 0 -1.33,-1.59 9.94,9.94 0 0 0 -5.81,-2.92 3.5,3.5 0 0 1 -3,-3.47 V 29.77 a 3.5,3.5 0 0 1 3.5,-3.5 h 0.21 a 30,30 0 0 1 19.87,9 32.42,32.42 0 0 1 3.9,4.7 3.5,3.5 0 0 1 -1,4.88 l -11.52,7.68 a 3.44,3.44 0 0 1 -1.92,0.65 z"
       fill="#ef6f4e"
       id="path73" />
    <path
       d="m 636.24,29.77 a 26.49,26.49 0 0 1 17.61,8 28.55,28.55 0 0 1 3.48,4.23 l -11.52,7.68 a 14.26,14.26 0 0 0 -1.74,-2.1 13.41,13.41 0 0 0 -7.83,-3.92 V 29.77 m 0,-7 a 7,7 0 0 0 -7,7 v 13.89 a 7,7 0 0 0 6.08,6.94 6.43,6.43 0 0 1 3.83,2 6.74,6.74 0 0 1 0.87,1 7,7 0 0 0 5.8,3.07 6.92,6.92 0 0 0 3.87,-1.18 l 11.52,-7.67 a 7,7 0 0 0 1.91,-9.76 36,36 0 0 0 -4.32,-5.21 33.37,33.37 0 0 0 -22.13,-10.07 h -0.43 z"
       fill="#ffffff"
       id="path75" />
    <path
       d="m 636.23,88.52 a 3.51,3.51 0 0 1 -3.5,-3.5 V 71.13 a 3.5,3.5 0 0 1 3,-3.47 9.87,9.87 0 0 0 5.82,-3 11.61,11.61 0 0 0 1.45,-1.56 3.49,3.49 0 0 1 4.8,-0.9 l 11.52,7.68 a 3.49,3.49 0 0 1 1.49,2.24 3.46,3.46 0 0 1 -0.54,2.63 32,32 0 0 1 -3.9,4.71 30.05,30.05 0 0 1 -19.87,9.05 z"
       fill="#ef6f4e"
       id="path77" />
    <path
       d="m 645.81,65.11 11.52,7.68 A 29.16,29.16 0 0 1 653.84,77 26.49,26.49 0 0 1 636.23,85 V 71.13 a 13.35,13.35 0 0 0 7.84,-4 15.71,15.71 0 0 0 1.74,-2.06 m 0,-7 a 7,7 0 0 0 -5.74,3 8.75,8.75 0 0 1 -1,1.13 6.37,6.37 0 0 1 -3.81,2 7,7 0 0 0 -6.08,6.94 V 85 a 7,7 0 0 0 7,7 h 0.44 a 33.37,33.37 0 0 0 22.12,-10.07 35.42,35.42 0 0 0 4.33,-5.21 7,7 0 0 0 -1.86,-9.72 l -11.52,-7.67 a 6.92,6.92 0 0 0 -3.87,-1.18 z"
       fill="#ffffff"
       id="path79" />
    <path
       d="m 686.11,88.52 a 3.5,3.5 0 0 1 -3.5,-3.5 V 68.09 h -16.93 a 3.5,3.5 0 0 1 -3.5,-3.5 V 49.33 a 3.5,3.5 0 0 1 3.5,-3.5 h 16.93 V 28.9 a 3.5,3.5 0 0 1 3.5,-3.5 h 43.46 a 3.5,3.5 0 0 1 3.5,3.5 V 45.83 H 750 a 3.5,3.5 0 0 1 3.5,3.5 v 15.26 a 3.5,3.5 0 0 1 -3.5,3.5 H 733.07 V 85 a 3.5,3.5 0 0 1 -3.5,3.5 z"
       fill="#ef6f4e"
       id="path81" />
    <path
       d="M 729.57,28.9 V 49.33 H 750 V 64.59 H 729.57 V 85 H 686.11 V 64.59 H 665.68 V 49.33 h 20.43 V 28.9 h 43.46 m 0,-7 h -43.46 a 7,7 0 0 0 -7,7 v 13.43 h -13.43 a 7,7 0 0 0 -7,7 v 15.26 a 7,7 0 0 0 7,7 h 13.43 V 85 a 7,7 0 0 0 7,7 h 43.46 a 7,7 0 0 0 7,-7 V 71.59 H 750 a 7,7 0 0 0 7,-7 V 49.33 a 7,7 0 0 0 -7,-7 H 736.57 V 28.9 a 7,7 0 0 0 -7,-7 z"
       fill="#ffffff"
       id="path83" />
    <path
       d="M 287.59,70.34 279.68,85.1 250,29.69 h 15.83 z"
       fill="#ffffff"
       stroke="#555554"
       stroke-miterlimit="10"
       stroke-width="0.46"
       id="path85"
       style="fill:#000000;stroke:#000000;stroke-opacity:1" />
    <path
       d="m 281.66,51.85 11.87,-22.16 h 15.83 l -19.79,36.92 z"
       fill="#ffffff"
       stroke="#555554"
       stroke-miterlimit="10"
       stroke-width="0.46"
       id="path87"
       style="fill:#000000;stroke:#000000;stroke-opacity:1" />
    <path
       d="m 313.4,29.69 h 13.89 V 85.1 H 313.4 Z"
       fill="#ffffff"
       stroke="#555554"
       stroke-miterlimit="10"
       stroke-width="0.46"
       id="path89"
       style="fill:#000000;stroke:#000000" />
    <path
       d="m 333.18,29.69 h 13.89 V 85.1 h -13.89 z"
       fill="#ffffff"
       stroke="#555554"
       stroke-miterlimit="10"
       stroke-width="0.46"
       id="path91"
       style="fill:#000000;stroke:#000000" />
    <path
       d="M 351,43.54 V 29.69 h 5.94 a 26.7,26.7 0 0 1 19.59,8.12 26.66,26.66 0 0 1 8.11,19.59 27.69,27.69 0 0 1 -27.7,27.7 H 351 V 71.25 h 5.94 A 13.86,13.86 0 0 0 370.78,57.4 13.84,13.84 0 0 0 356.93,43.55 H 351 Z"
       fill="#ffffff"
       stroke="#555554"
       stroke-miterlimit="10"
       stroke-width="0.46"
       id="path93"
       style="fill:#000000;stroke:#000000" />
    <path
       d="m 390.64,29.69 h 13.89 V 85.1 h -13.89 z"
       fill="#ffffff"
       stroke="#555554"
       stroke-miterlimit="10"
       stroke-width="0.46"
       id="path95"
       style="fill:#000000;stroke:#000000" />
    <path
       d="m 408.45,29.69 h 21.77 v 13.85 h -21.77 z"
       fill="#ffffff"
       stroke="#555554"
       stroke-miterlimit="10"
       stroke-width="0.46"
       id="path97"
       style="fill:#000000;stroke:#000000" />
    <path
       d="m 408.45,71.25 h 21.77 V 85.1 h -21.77 z"
       fill="#ffffff"
       stroke="#555554"
       stroke-miterlimit="10"
       stroke-width="0.46"
       id="path99"
       style="fill:#000000;stroke:#000000" />
    <path
       d="m 408.45,50.47 h 21.77 v 13.85 h -21.77 z"
       fill="#ffffff"
       stroke="#555554"
       stroke-miterlimit="10"
       stroke-width="0.46"
       id="path101"
       style="fill:#000000;stroke:#000000" />
    <path
       d="m 477.66,59.37 h 13.94 a 27.72,27.72 0 0 1 -55.29,0 h 13.93 a 13.85,13.85 0 0 0 27.42,0 z"
       fill="#ffffff"
       stroke="#555554"
       stroke-miterlimit="10"
       stroke-width="0.46"
       id="path103"
       style="fill:#000000;stroke:#000000" />
    <path
       d="m 450.24,55.42 h -13.93 a 27.72,27.72 0 0 1 55.29,0 h -13.94 a 13.85,13.85 0 0 0 -27.42,0 z"
       fill="#ffffff"
       stroke="#555554"
       stroke-miterlimit="10"
       stroke-width="0.46"
       id="path105"
       style="fill:#000000;stroke:#000000" />
    <path
       d="M 497.65,29.69 H 511.5 V 85.1 h -13.85 z"
       fill="#ffffff"
       stroke="#555554"
       stroke-miterlimit="10"
       stroke-width="0.46"
       id="path107"
       style="fill:#000000;stroke:#000000" />
    <path
       d="M 515.46,43.54 V 29.69 h 7.44 A 17.31,17.31 0 0 1 540.19,47 17.31,17.31 0 0 1 522.9,64.32 h -7.44 V 50.47 h 7.44 a 3.32,3.32 0 0 0 2.43,-1 3.49,3.49 0 0 0 0,-4.91 3.32,3.32 0 0 0 -2.43,-1 z"
       fill="#ffffff"
       stroke="#555554"
       stroke-miterlimit="10"
       stroke-width="0.46"
       id="path109"
       style="fill:#000000;stroke:#000000" />
    <path
       d="M 570.86,62.93 559,85.1 H 543.16 L 563,48.17 Z"
       fill="#ffffff"
       stroke="#555554"
       stroke-miterlimit="10"
       stroke-width="0.46"
       id="path111"
       style="fill:#000000;stroke:#000000" />
    <path
       d="M 576.64,66.3 564.92,44.45 572.84,29.69 602.52,85.1 H 586.69 L 584,80.15 H 565.6 L 573,66.3 Z"
       fill="#ffffff"
       stroke="#555554"
       stroke-miterlimit="10"
       stroke-width="0.46"
       id="path113"
       style="fill:#000000;stroke:#000000" />
    <path
       d="M 632.28,71.13 V 85 a 26.49,26.49 0 0 1 -17.61,-8 26.67,26.67 0 0 1 -8.12,-19.59 26.7,26.7 0 0 1 8.12,-19.59 26.48,26.48 0 0 1 17.61,-8 v 13.84 a 13.89,13.89 0 0 0 -11.87,13.73 14,14 0 0 0 11.87,13.74 z"
       fill="#ffffff"
       stroke="#555554"
       stroke-miterlimit="10"
       stroke-width="0.46"
       id="path115"
       style="fill:#000000;stroke:#000000" />
    <path
       d="m 645.81,49.68 a 14.26,14.26 0 0 0 -1.74,-2.1 13.41,13.41 0 0 0 -7.83,-3.92 V 29.77 a 26.49,26.49 0 0 1 17.61,8 28.55,28.55 0 0 1 3.48,4.23 z"
       fill="#ffffff"
       stroke="#555554"
       stroke-miterlimit="10"
       stroke-width="0.46"
       id="path117"
       style="fill:#000000;stroke:#000000" />
    <path
       d="M 657.33,72.79 A 29.16,29.16 0 0 1 653.84,77 26.49,26.49 0 0 1 636.23,85 V 71.13 a 13.35,13.35 0 0 0 7.84,-4 15.71,15.71 0 0 0 1.74,-2.06 z"
       fill="#ffffff"
       stroke="#555554"
       stroke-miterlimit="10"
       stroke-width="0.46"
       id="path119"
       style="fill:#000000;stroke:#000000" />
    <text
       font-size="0.92px"
       fill="#d02027"
       font-family="ArialMT, Arial"
       style="isolation:isolate"
       id="text121"
       x="733.15002"
       y="57.59">I hate bugs!</text>
    <path
       d="M 750,49.33 H 729.57 V 28.9 h -15.26 v 20.43 h -20.42 v 15.26 h 20.42 V 85 h 15.26 V 64.59 H 750 Z"
       fill="#e0286b"
       stroke="#555554"
       stroke-miterlimit="10"
       stroke-width="0.46"
       id="path123"
       style="stroke:#000000" />
    <path
       d="M 740.6,49.33 H 720.17 V 28.9 h -15.26 v 20.43 h -20.43 v 15.26 h 20.43 V 85 h 15.26 V 64.59 h 20.43 z"
       fill="#f6c514"
       stroke="#555554"
       stroke-miterlimit="10"
       stroke-width="0.46"
       id="path125"
       style="stroke:#000000" />
    <path
       d="M 731.2,49.33 H 710.77 V 28.9 h -15.26 v 20.43 h -20.43 v 15.26 h 20.43 V 85 h 15.26 V 64.59 h 20.43 z"
       fill="#f6c514"
       stroke="#555554"
       stroke-miterlimit="10"
       stroke-width="0.46"
       id="path127"
       style="stroke:#000000" />
    <path
       d="M 721.8,49.33 H 701.37 V 28.9 h -15.26 v 20.43 h -20.43 v 15.26 h 20.43 V 85 h 15.26 V 64.59 h 20.43 z"
       fill="#f7f6f4"
       stroke="#555554"
       stroke-miterlimit="10"
       stroke-width="0.46"
       id="path129"
       style="fill:#000000;stroke:#000000" />
    <path
       d="m 710.77,30.84 h 1.37 v 1.37 h -1.37 z"
       fill="#ec5c26"
       id="path131" />
    <path
       d="m 713.45,29.48 h 1.36 v 1.36 h -1.36 z"
       fill="#ec5c26"
       id="path133" />
    <path
       d="m 716.12,29.48 h 1.37 v 1.36 h -1.37 z"
       fill="#ec5c26"
       id="path135" />
    <path
       d="m 718.8,30.84 h 1.37 v 1.37 h -1.37 z"
       fill="#ef6f4e"
       id="path137" />
    <path
       d="m 710.77,33.58 h 1.37 v 1.36 h -1.37 z"
       fill="#ec5c26"
       id="path139" />
    <path
       d="m 713.45,32.21 h 1.36 v 1.37 h -1.36 z"
       fill="#ec5c26"
       id="path141" />
    <path
       d="m 716.12,32.21 h 1.37 v 1.37 h -1.37 z"
       fill="#ec5c26"
       id="path143" />
    <path
       d="m 718.8,33.58 h 1.37 v 1.36 h -1.37 z"
       fill="#ef6f4e"
       id="path145" />
    <path
       d="m 710.77,36.31 h 1.37 v 1.37 h -1.37 z"
       fill="#ec5c26"
       id="path147" />
    <path
       d="m 713.45,34.94 h 1.36 v 1.37 h -1.36 z"
       fill="#ec5c26"
       id="path149" />
    <path
       d="m 716.12,34.94 h 1.37 v 1.37 h -1.37 z"
       fill="#ec5c26"
       id="path151" />
    <path
       d="m 718.8,36.31 h 1.37 v 1.37 h -1.37 z"
       fill="#ef6f4e"
       id="path153" />
    <path
       d="m 710.77,39.05 h 1.37 v 1.36 h -1.37 z"
       fill="#ec5c26"
       id="path155" />
    <path
       d="m 713.45,37.68 h 1.36 v 1.37 h -1.36 z"
       fill="#ec5c26"
       id="path157" />
    <path
       d="m 716.12,37.68 h 1.37 v 1.37 h -1.37 z"
       fill="#ec5c26"
       id="path159" />
    <path
       d="m 718.8,39.05 h 1.37 v 1.36 h -1.37 z"
       fill="#ef6f4e"
       id="path161" />
    <path
       d="m 710.77,41.78 h 1.37 v 1.37 h -1.37 z"
       fill="#ec5c26"
       id="path163" />
    <path
       d="m 713.45,40.41 h 1.36 v 1.37 h -1.36 z"
       fill="#ec5c26"
       id="path165" />
    <path
       d="m 716.12,40.41 h 1.37 v 1.37 h -1.37 z"
       fill="#ec5c26"
       id="path167" />
    <path
       d="m 718.8,41.78 h 1.37 v 1.37 h -1.37 z"
       fill="#ef6f4e"
       id="path169" />
    <path
       d="m 710.77,44.51 h 1.37 v 1.37 h -1.37 z"
       fill="#ec5c26"
       id="path171" />
    <path
       d="m 713.45,43.15 h 1.36 v 1.36 h -1.36 z"
       fill="#ec5c26"
       id="path173" />
    <path
       d="m 716.12,43.15 h 1.37 v 1.36 h -1.37 z"
       fill="#ec5c26"
       id="path175" />
    <path
       d="m 718.8,44.51 h 1.37 v 1.37 h -1.37 z"
       fill="#ef6f4e"
       id="path177" />
    <path
       d="m 710.77,47.25 h 1.37 v 1.37 h -1.37 z"
       fill="#ec5c26"
       id="path179" />
    <path
       d="m 713.45,45.88 h 1.36 v 1.37 h -1.36 z"
       fill="#ec5c26"
       id="path181" />
    <path
       d="m 716.12,45.88 h 1.37 v 1.37 h -1.37 z"
       fill="#ec5c26"
       id="path183" />
    <path
       d="m 718.8,47.25 h 1.37 v 1.37 h -1.37 z"
       fill="#ef6f4e"
       id="path185" />
    <path
       d="m 731.2,51.44 h 1.36 v 1.37 h -1.36 z"
       fill="#ec5c26"
       id="path187" />
    <path
       d="m 733.88,50.07 h 1.36 v 1.37 h -1.36 z"
       fill="#ec5c26"
       id="path189" />
    <path
       d="m 736.55,50.07 h 1.37 v 1.37 h -1.37 z"
       fill="#ec5c26"
       id="path191" />
    <path
       d="m 739.23,51.44 h 1.37 v 1.37 h -1.37 z"
       fill="#ef6f4e"
       id="path193" />
    <path
       d="m 731.2,54.17 h 1.36 v 1.37 h -1.36 z"
       fill="#ec5c26"
       id="path195" />
    <path
       d="m 733.88,52.81 h 1.36 v 1.37 h -1.36 z"
       fill="#ec5c26"
       id="path197" />
    <path
       d="m 736.55,52.81 h 1.37 v 1.37 h -1.37 z"
       fill="#ec5c26"
       id="path199" />
    <path
       d="m 739.23,54.17 h 1.37 v 1.37 h -1.37 z"
       fill="#ef6f4e"
       id="path201" />
    <path
       d="m 731.2,56.91 h 1.36 v 1.37 h -1.36 z"
       fill="#ec5c26"
       id="path203" />
    <path
       d="m 733.88,55.54 h 1.36 v 1.37 h -1.36 z"
       fill="#ec5c26"
       id="path205" />
    <path
       d="m 736.55,55.54 h 1.37 v 1.37 h -1.37 z"
       fill="#ec5c26"
       id="path207" />
    <path
       d="m 739.23,56.91 h 1.37 v 1.37 h -1.37 z"
       fill="#ef6f4e"
       id="path209" />
    <path
       d="m 731.2,59.64 h 1.36 V 61 h -1.36 z"
       fill="#ec5c26"
       id="path211" />
    <path
       d="m 733.88,58.28 h 1.36 v 1.36 h -1.36 z"
       fill="#ec5c26"
       id="path213" />
    <path
       d="m 736.55,58.28 h 1.37 v 1.36 h -1.37 z"
       fill="#ec5c26"
       id="path215" />
    <path
       d="m 739.23,59.64 h 1.37 V 61 h -1.37 z"
       fill="#ef6f4e"
       id="path217" />
    <path
       d="m 731.2,62.38 h 1.36 v 1.36 h -1.36 z"
       fill="#ec5c26"
       id="path219" />
    <path
       d="m 733.88,61 h 1.36 v 1.37 h -1.36 z"
       fill="#ec5c26"
       id="path221" />
    <path
       d="m 736.55,61 h 1.37 v 1.37 h -1.37 z"
       fill="#ec5c26"
       id="path223" />
    <path
       d="m 739.23,62.38 h 1.37 v 1.36 h -1.37 z"
       fill="#ef6f4e"
       id="path225" />
    <path
       d="m 710.77,66.48 h 1.37 v 1.37 h -1.37 z"
       fill="#ec5c26"
       id="path227" />
    <path
       d="m 713.45,65.11 h 1.36 v 1.37 h -1.36 z"
       fill="#ec5c26"
       id="path229" />
    <path
       d="m 716.12,65.11 h 1.37 v 1.37 h -1.37 z"
       fill="#ec5c26"
       id="path231" />
    <path
       d="m 718.8,66.48 h 1.37 v 1.37 h -1.37 z"
       fill="#ef6f4e"
       id="path233" />
    <path
       d="m 710.77,69.21 h 1.37 v 1.37 h -1.37 z"
       fill="#ec5c26"
       id="path235" />
    <path
       d="m 713.45,67.85 h 1.36 v 1.36 h -1.36 z"
       fill="#ec5c26"
       id="path237" />
    <path
       d="m 716.12,67.85 h 1.37 v 1.36 h -1.37 z"
       fill="#ec5c26"
       id="path239" />
    <path
       d="m 718.8,69.21 h 1.37 v 1.37 h -1.37 z"
       fill="#ef6f4e"
       id="path241" />
    <path
       d="m 710.77,72 h 1.37 v 1.36 h -1.37 z"
       fill="#ec5c26"
       id="path243" />
    <path
       d="m 713.45,70.58 h 1.36 V 72 h -1.36 z"
       fill="#ec5c26"
       id="path245" />
    <path
       d="m 716.12,70.58 h 1.37 V 72 h -1.37 z"
       fill="#ec5c26"
       id="path247" />
    <path
       d="m 718.8,72 h 1.37 v 1.36 h -1.37 z"
       fill="#ef6f4e"
       id="path249" />
    <path
       d="m 710.77,74.68 h 1.37 v 1.37 h -1.37 z"
       fill="#ec5c26"
       id="path251" />
    <path
       d="m 713.45,73.31 h 1.36 v 1.37 h -1.36 z"
       fill="#ec5c26"
       id="path253" />
    <path
       d="m 716.12,73.31 h 1.37 v 1.37 h -1.37 z"
       fill="#ec5c26"
       id="path255" />
    <path
       d="m 718.8,74.68 h 1.37 v 1.37 h -1.37 z"
       fill="#ef6f4e"
       id="path257" />
    <path
       d="m 710.77,77.42 h 1.37 v 1.36 h -1.37 z"
       fill="#ec5c26"
       id="path259" />
    <path
       d="m 713.45,76.05 h 1.36 v 1.37 h -1.36 z"
       fill="#ec5c26"
       id="path261" />
    <path
       d="m 716.12,76.05 h 1.37 v 1.37 h -1.37 z"
       fill="#ec5c26"
       id="path263" />
    <path
       d="m 718.8,77.42 h 1.37 v 1.36 h -1.37 z"
       fill="#ef6f4e"
       id="path265" />
    <path
       d="m 710.77,80.15 h 1.37 v 1.37 h -1.37 z"
       fill="#ec5c26"
       id="path267" />
    <path
       d="m 713.45,78.78 h 1.36 v 1.37 h -1.36 z"
       fill="#ec5c26"
       id="path269" />
    <path
       d="m 716.12,78.78 h 1.37 v 1.37 h -1.37 z"
       fill="#ec5c26"
       id="path271" />
    <path
       d="m 718.8,80.15 h 1.37 v 1.37 h -1.37 z"
       fill="#ef6f4e"
       id="path273" />
    <path
       d="m 710.77,82.88 h 1.37 v 1.37 h -1.37 z"
       fill="#ec5c26"
       id="path275" />
    <path
       d="m 713.45,81.52 h 1.36 v 1.36 h -1.36 z"
       fill="#ec5c26"
       id="path277" />
    <path
       d="m 716.12,81.52 h 1.37 v 1.36 h -1.37 z"
       fill="#ec5c26"
       id="path279" />
    <path
       d="m 718.8,82.88 h 1.37 v 1.37 h -1.37 z"
       fill="#ef6f4e"
       id="path281" />
  </g>
</svg>
