<?xml version="1.0" encoding="UTF-8" standalone="no"?>
<svg
   viewBox="0 0 401.49893 114"
   version="1.1"
   id="svg70"
   sodipodi:docname="virtualboy.svg"
   width="401.49893"
   height="114"
   inkscape:version="1.1 (c68e22c387, 2021-05-23)"
   xmlns:inkscape="http://www.inkscape.org/namespaces/inkscape"
   xmlns:sodipodi="http://sodipodi.sourceforge.net/DTD/sodipodi-0.dtd"
   xmlns="http://www.w3.org/2000/svg"
   xmlns:svg="http://www.w3.org/2000/svg"
   xmlns:rdf="http://www.w3.org/1999/02/22-rdf-syntax-ns#"
   xmlns:cc="http://creativecommons.org/ns#"
   xmlns:dc="http://purl.org/dc/elements/1.1/">
  <defs
     id="defs74" />
  <sodipodi:namedview
     id="namedview72"
     pagecolor="#ffffff"
     bordercolor="#666666"
     borderopacity="1.0"
     inkscape:pageshadow="2"
     inkscape:pageopacity="0.0"
     inkscape:pagecheckerboard="0"
     showgrid="false"
     fit-margin-top="0"
     fit-margin-left="0"
     fit-margin-right="0"
     fit-margin-bottom="0"
     inkscape:zoom="1.113"
     inkscape:cx="200.80863"
     inkscape:cy="56.603774"
     inkscape:window-width="1920"
     inkscape:window-height="1138"
     inkscape:window-x="-8"
     inkscape:window-y="-8"
     inkscape:window-maximized="1"
     inkscape:current-layer="svg70" />
  <title
     id="title2">logo</title>
  <g
     id="g932"
     transform="translate(-299.25056)">
    <g
       id="Layer_2"
       data-name="Layer 2">
      <rect
         x="398.55942"
         y="17.407221"
         width="28"
         height="81"
         fill="#ffffff"
         id="rect4" />
    </g>
    <g
       id="Calque_1"
       data-name="Calque 1">
      <path
         d="M 637.60385,18.33757 V 96.81329 H 626.373 V 18.33757 h 11.23083 m 0,-7 H 626.373 a 7,7 0 0 0 -7,7 v 78.47572 a 7,7 0 0 0 7,7 h 11.23083 a 7,7 0 0 0 7,-7 V 18.33757 a 7,7 0 0 0 -7,-7 z"
         fill="#ffffff"
         id="path7" />
      <path
         d="M 595.06589,18.40832 V 51.92571 H 583.76535 V 18.40832 h 11.30054 m 0,-7 h -11.30054 a 7,7 0 0 0 -7,7 v 33.51739 a 7,7 0 0 0 7,7 h 11.30054 a 7,7 0 0 0 7,-7 V 18.40832 a 7,7 0 0 0 -7,-7 z"
         fill="#ffffff"
         id="path9" />
      <path
         d="m 506.62387,50.09961 5.12354,34.42931 H 500.657 l 5.96691,-34.42931 m -0.001,-7 a 6.99966,6.99966 0 0 0 -6.89606,5.80466 l -5.96692,34.4293 a 7,7 0 0 0 6.89716,8.19536 h 11.09045 a 7.00005,7.00005 0 0 0 6.92377,-8.03035 l -5.12354,-34.42931 a 7,7 0 0 0 -6.84021,-5.96915 z"
         fill="#ffffff"
         id="path11" />
      <path
         d="M 396.175,17.17969 V 51.92461 H 384.94419 V 17.17969 H 396.175 m 0,-7 h -11.23081 a 7,7 0 0 0 -7,7 v 34.74492 a 7,7 0 0 0 7,7 H 396.175 a 7,7 0 0 0 7,-7 V 17.17969 a 7,7 0 0 0 -7,-7 z"
         fill="#ffffff"
         id="path13" />
      <path
         d="M 595.067,62.06834 V 96.81439 H 583.73056 V 62.06834 H 595.067 m 0,-7 h -11.33644 a 7,7 0 0 0 -7,7 v 34.74605 a 7,7 0 0 0 7,7 H 595.067 a 7,7 0 0 0 7,-7 V 62.06834 a 7,7 0 0 0 -7,-7 z"
         fill="#ffffff"
         id="path15" />
      <path
         d="m 327.10093,110.4873 a 3.49965,3.49965 0 0 1 -3.42627,-2.78565 l -20.8501,-99.9751 a 3.49969,3.49969 0 0 1 3.42627,-4.21435 h 11.22607 a 3.49962,3.49962 0 0 1 3.44971,2.90918 l 6.15478,35.93408 6.08448,-35.92773 a 3.49968,3.49968 0 0 1 3.45068,-2.91553 h 11.22754 a 3.5003,3.5003 0 0 1 3.42725,4.21094 l -20.74317,99.97509 a 3.5,3.5 0 0 1 -3.42529,2.78907 z"
         fill="#fe0016"
         id="path17" />
      <path
         d="m 347.84415,7.01237 h 0.005 m -0.005,0 -20.74341,99.97494 L 306.25058,7.01237 H 317.477 l 9.62378,56.18915 9.51587,-56.18915 h 11.22754 m 0.005,-7 h -11.23258 a 7,7 0 0 0 -6.90173,5.83118 L 327.06183,21.5092 324.3765,5.83066 A 7,7 0 0 0 317.477,0.01237 H 306.25058 A 7,7 0 0 0 299.398,8.44149 l 20.85019,99.97495 a 7.00031,7.00031 0 0 0 6.85248,5.57087 h 0.004 a 7,7 0 0 0 6.85044,-5.57788 l 20.696,-99.74637 a 7.00561,7.00561 0 0 0 -6.8016,-8.65069 z m -0.005,14 z"
         fill="#ffffff"
         id="path19" />
      <rect
         x="348.94223"
         y="3.5122001"
         width="18.227539"
         height="106.9751"
         rx="3.5"
         fill="#fe0016"
         id="rect21" />
      <path
         d="m 363.66953,7.01237 v 99.97494 H 352.44205 V 7.01237 h 11.22748 m 0,-7 h -11.22748 a 7,7 0 0 0 -7,7 v 99.97494 a 7,7 0 0 0 7,7 h 11.22748 a 7,7 0 0 0 7,-7 V 7.01237 a 7,7 0 0 0 -7,-7 z"
         fill="#ffffff"
         id="path23" />
      <path
         d="m 400.56186,110.49072 a 3.49945,3.49945 0 0 1 -3.35009,-2.48731 l -8.76758,-29.002 v 27.98926 a 3.49987,3.49987 0 0 1 -3.5,3.5 h -11.231 a 3.49986,3.49986 0 0 1 -3.5,-3.5 V 7.001 a 3.49985,3.49985 0 0 1 3.5,-3.5 h 21.16361 a 3.52616,3.52616 0 0 1 0.4917,0.03467 c 0.40186,0.05713 9.90088,1.53222 15.229,13.36474 a 3.496,3.496 0 0 1 0.30859,1.437 V 50.0996 a 3.49192,3.49192 0 0 1 -0.22266,1.228 24.08915,24.08915 0 0 1 -8.23828,9.916 l 11.854,44.85254 a 3.50037,3.50037 0 0 1 -3.38379,4.39454 z M 392.67514,48.4248 V 20.67968 h -4.231 V 48.4248 Z"
         fill="#fe0016"
         id="path25" />
      <path
         d="m 394.87674,7.00114 c 0,0 7.93128,1.12532 12.52918,11.33644 v 31.762 c 0,0 -2.04291,5.45147 -8.98468,9.61582 l 12.49432,47.27524 H 400.5618 l -15.61761,-51.662 v 51.662 h -11.2309 V 7.00114 h 21.16345 m -9.93255,44.92347 H 396.175 V 17.17967 h -11.23081 v 34.74494 m 9.93255,-51.92347 h -21.16345 a 7,7 0 0 0 -7,7 v 99.98953 a 7,7 0 0 0 7,7 h 11.2309 a 7,7 0 0 0 7,-7 v -4.316 l 1.91708,6.3416 a 7,7 0 0 0 6.70053,4.97441 h 10.35376 a 7,7 0 0 0 6.76767,-8.78862 L 406.41547,62.56779 a 26.4607,26.4607 0 0 0 7.54532,-10.01179 7.00076,7.00076 0 0 0 0.44513,-2.45641 v -31.762 A 7.00025,7.00025 0 0 0 413.7887,15.46353 C 407.78147,2.12258 397.06253,0.24117 395.86011,0.07055 a 7.00179,7.00179 0 0 0 -0.98337,-0.06941 z"
         fill="#ffffff"
         id="path27" />
      <path
         d="m 422.04966,110.48827 a 3.49985,3.49985 0 0 1 -3.5,-3.5 V 20.67089 H 410.93 a 3.49985,3.49985 0 0 1 -3.5,-3.5 V 7.0122 a 3.49985,3.49985 0 0 1 3.5,-3.5 h 33.5747 a 3.50017,3.50017 0 0 1 3.5,3.5 v 10.15869 a 3.50017,3.50017 0 0 1 -3.5,3.5 h -7.72754 v 86.31738 a 3.50017,3.50017 0 0 1 -3.5,3.5 z"
         fill="#fe0016"
         id="path29" />
      <path
         d="m 444.50486,7.01239 v 10.15833 h -11.22754 v 89.81772 H 422.04984 V 17.17072 H 410.93015 V 7.01239 h 33.57471 m 0,-7 h -33.57471 a 7,7 0 0 0 -7,7 v 10.15833 a 7,7 0 0 0 7,7 h 4.11969 v 82.81772 a 7,7 0 0 0 7,7 h 11.22748 a 7,7 0 0 0 7,-7 V 24.17072 h 4.22754 a 7,7 0 0 0 7,-7 V 7.01239 a 7,7 0 0 0 -7,-7 z"
         fill="#ffffff"
         id="path31" />
      <path
         d="m 516.34653,110.49169 a 3.49961,3.49961 0 0 1 -3.45215,-2.9248 l -1.75879,-10.55225 h -9.78125 l -1.8457,10.57861 a 3.50045,3.50045 0 0 1 -3.44824,2.89844 h -11.126 a 3.50017,3.50017 0 0 1 -3.5,-3.5 v -0.10547 a 3.45591,3.45591 0 0 1 0.0801,-0.74267 L 503.204,6.25829 A 3.49942,3.49942 0 0 1 506.62387,3.501 h 0.0127 a 3.50018,3.50018 0 0 1 3.41309,2.78223 l 20.95312,99.99072 a 3.50027,3.50027 0 0 1 -3.42578,4.21777 z m -8.65918,-29.46289 -1.32617,-8.91553 -1.54492,8.91553 z"
         fill="#fe0016"
         id="path33" />
      <path
         d="m 506.62387,7.00116 20.95343,99.99065 h -11.23089 l -2.24616,-13.477 h -15.68841 l -2.35169,13.477 h -11.1253 v -0.10559 l 21.689,-99.88506 M 500.657,84.52892 h 11.09045 L 506.62387,50.0996 500.657,84.52892 m 5.96651,-84.52775 a 6.99972,6.99972 0 0 0 -6.84021,5.51464 l -21.689,99.885 a 6.99648,6.99648 0 0 0 -0.15942,1.48536 v 0.10559 a 7,7 0 0 0 7,7 h 11.1253 a 7,7 0 0 0 6.89582,-5.7967 l 1.34015,-7.68033 h 3.8742 l 1.2713,7.62782 a 7.00006,7.00006 0 0 0 6.90479,5.84921 h 11.23086 a 7,7 0 0 0 6.8512,-8.43571 L 513.47507,5.56545 a 7,7 0 0 0 -6.8258,-5.56423 h -0.0258 z"
         fill="#ffffff"
         id="path35" />
      <path
         d="m 532.076,110.48827 a 3.50017,3.50017 0 0 1 -3.5,-3.5 V 7.0122 a 3.50017,3.50017 0 0 1 3.5,-3.5 h 11.22754 a 3.50017,3.50017 0 0 1 3.5,3.5 v 86.31787 h 13.28711 a 3.50017,3.50017 0 0 1 3.5,3.5 v 10.1582 a 3.50017,3.50017 0 0 1 -3.5,3.5 z"
         fill="#fe0016"
         id="path37" />
      <path
         d="m 543.30393,7.01239 v 89.81773 h 16.78674 v 10.15832 H 532.07639 V 7.01239 h 11.22754 m 0,-7 h -11.22754 a 7,7 0 0 0 -7,7 v 99.97605 a 7,7 0 0 0 7,7 h 28.01428 a 7,7 0 0 0 7,-7 V 96.83012 a 7,7 0 0 0 -7,-7 h -9.78674 V 7.01239 a 7,7 0 0 0 -7,-7 z"
         fill="#ffffff"
         id="path39" />
      <path
         d="m 666.80161,110.48827 a 3.50017,3.50017 0 0 1 -3.5,-3.5 V 66.251 L 648.75669,7.8579 a 3.50008,3.50008 0 0 1 3.39648,-4.3457 h 10.26563 a 3.50126,3.50126 0 0 1 3.40136,2.67285 l 6.91309,28.43018 6.26175,-28.35791 a 3.50022,3.50022 0 0 1 3.418,-2.74512 h 11.334 a 3.49927,3.49927 0 0 1 3.38078,4.4038 l -15.59863,58.36524 v 40.707 a 3.50017,3.50017 0 0 1 -3.5,3.5 z"
         fill="#fe0016"
         id="path41" />
      <path
         d="m 693.747,7.01239 h 0.005 m -0.005,0 -15.71761,58.80933 v 41.16672 H 666.80185 V 65.82172 L 652.15348,7.01239 h 10.265 L 672.89688,50.103 682.41275,7.01244 H 693.747 m 0.005,-7 h -11.33925 a 7,7 0 0 0 -6.83532,5.49053 L 672.56858,19.1278 669.22031,5.35839 a 7.00005,7.00005 0 0 0 -6.80182,-5.346 h -10.265 A 7,7 0 0 0 645.361,8.70427 l 14.44085,57.97615 v 40.308 a 7,7 0 0 0 7,7 h 11.22754 a 7,7 0 0 0 7,-7 V 66.741 L 700.44834,9.04909 A 7.0049,7.0049 0 0 0 693.752,0.01239 Z m -0.005,14 z"
         fill="#ffffff"
         id="path43" />
      <path
         d="m 631.412,110.5 c -8.57422,0 -18.26172,-3.77295 -19.73633,-14.36181 a 3.47428,3.47428 0 0 1 -0.0332,-0.48291 l 0.005,-4.44678 c 0.0693,-57.40283 0.041,-71.27149 0.005,-72.61572 a 3.48886,3.48886 0 0 1 0.19922,-1.44727 c 0.20118,-0.55615 5.09864,-13.59668 20.09278,-13.6333 0.0703,-0.00195 0.18066,-0.00391 0.32715,-0.00391 6.85546,0 16.168,3.56836 19.85056,13.626 a 3.50847,3.50847 0 0 1 0.21291,1.20312 v 77.31785 a 13.8818,13.8818 0 0 1 -2.791,7.75244 c -2.39161,3.22168 -7.36036,7.06054 -17.457,7.08056 -0.12606,0.005 -0.35653,0.0117 -0.67485,0.0117 z m 2.69238,-17.18652 V 21.83739 h -4.23148 v 71.47608 z"
         fill="#fe0016"
         id="path45" />
      <path
         d="m 632.27115,7.00822 c 1.82532,0 12.58667,0.46807 16.5636,11.32937 v 77.31774 c 0,0 0.005,11.33311 -16.82837,11.33311 0,0 -0.21429,0.0116 -0.59509,0.0116 -2.822,0 -14.77789,-0.63669 -16.26917,-11.34464 0,-2.13835 0.10669,-77.15723 0,-77.31779 0,0 4.10267,-11.32521 16.86426,-11.32521 0,0 0.0926,-0.00416 0.26477,-0.00416 M 626.373,96.81329 h 11.23083 V 18.33759 H 626.373 v 78.4757 m 5.89813,-96.805 c -0.16131,0 -0.29065,0.002 -0.38568,0.0044 a 24.83569,24.83569 0 0 0 -23.32483,15.94077 6.99619,6.99619 0 0 0 -0.40674,2.78961 c 0.0351,1.68477 0.0612,15.84623 -0.007,72.4613 -0.003,2.56053 -0.005,4.16351 -0.005,4.45106 a 6.99945,6.99945 0 0 0 0.0669,0.96556 C 609.99552,109.44851 621.82444,114 631.41129,114 c 0.32965,0 0.58295,-0.006 0.74841,-0.0119 11.505,-0.0403 17.33039,-4.63611 20.194,-8.49422 a 17.35207,17.35207 0 0 0 3.481,-9.84142 v -77.3149 a 6.99929,6.99929 0 0 0 -0.42682,-2.40682 C 651.10471,4.1783 640.25479,0.00824 632.27115,0.00824 Z"
         fill="#ffffff"
         id="path47" />
      <path
         d="m 466.31626,110.4873 c -14.89063,0 -20.43262,-12.94141 -20.66114,-13.49219 a 3.4964,3.4964 0 0 1 -0.26757,-1.3418 V 7.0122 a 3.50017,3.50017 0 0 1 3.5,-3.5 h 11.335 a 3.50017,3.50017 0 0 1 3.5,3.5 v 85.14111 h 4.334 V 7.0122 a 3.50017,3.50017 0 0 1 3.5,-3.5 h 11.12012 a 3.50017,3.50017 0 0 1 3.5,3.5 v 88.64111 a 3.51209,3.51209 0 0 1 -0.167,1.06885 20.66261,20.66261 0 0 1 -19.69341,13.76514 z"
         fill="#fe0016"
         id="path49" />
      <path
         d="m 482.6763,7.01237 v 88.64077 c 0,0 -3.63543,11.33417 -16.36,11.33417 -12.72457,0 -17.42914,-11.33417 -17.42914,-11.33417 V 7.01237 h 11.33533 v 88.64077 h 11.33416 V 7.01237 h 11.11965 m 0,-7 h -11.11969 a 6.99049,6.99049 0 0 0 -5.667,2.89012 6.99061,6.99061 0 0 0 -5.66716,-2.89012 h -11.33423 a 7.00093,7.00093 0 0 0 -7.0011,7 v 88.64077 a 6.99966,6.99966 0 0 0 0.53482,2.68355 26.089,26.089 0 0 0 23.89432,15.65062 24.22074,24.22074 0 0 0 23.02557,-16.1962 7.00069,7.00069 0 0 0 0.33447,-2.138 V 7.01237 a 7,7 0 0 0 -7,-7 z"
         fill="#ffffff"
         id="path51" />
      <path
         d="m 572.49985,110.49072 a 3.50017,3.50017 0 0 1 -3.5,-3.5 V 7.001 a 3.50017,3.50017 0 0 1 3.5,-3.5 L 595.06626,3.5 a 3.49754,3.49754 0 0 1 1.12011,0.18408 c 0.46192,0.15577 11.332,3.93457 13.43067,13.9336 a 3.50027,3.50027 0 0 1 0.0742,0.727 c -0.0166,6.90381 0,33.57666 0,33.57666 a 3.45524,3.45524 0 0 1 -0.0176,0.34814 9.53679,9.53679 0 0 1 -2.47754,5.38623 9.19488,9.19488 0 0 1 2.42386,4.92485 3.481,3.481 0 0 1 0.0557,0.62109 c 0,6.90283 0.0166,33.60938 0.0166,33.60987 0,0.10205 -0.004,0.20459 -0.0137,0.30615 -0.0351,0.40478 -1.01074,9.94873 -13.72949,13.26025 a 3.51074,3.51074 0 0 1 -0.88184,0.1128 z m 19.06738,-17.17627 v -27.7461 h -4.33691 v 27.7461 z m -10e-4,-44.88868 V 21.9082 h -4.30078 v 26.51757 z"
         fill="#fe0016"
         id="path53" />
      <path
         d="m 595.06583,7 c 0,0 9.41376,3.1795 11.12531,11.33647 -0.0168,6.90582 0,33.58706 0,33.58706 0,0 -0.42676,4.29576 -4.38678,4.59788 -0.0135,0.95912 0,2.17653 0,2.17653 0,0 3.5849,0.146 4.371,4.50359 0,6.90362 0.0169,33.61176 0.0169,33.61176 0,0 -0.65026,7.45056 -11.1253,10.17736 H 572.49967 V 7 h 22.56616 m -11.30048,44.9257 h 11.30054 V 18.40832 H 583.76535 V 51.9257 m -0.0348,44.88868 H 595.067 v -34.746 h -11.33644 v 34.746 M 595.06583,0 h -22.56616 a 7,7 0 0 0 -7,7 v 99.99065 a 7,7 0 0 0 7,7 H 595.067 a 6.99988,6.99988 0 0 0 1.76343,-0.22577 c 12.04254,-3.13482 15.93432,-11.74788 16.33539,-16.343 q 0.0267,-0.30578 0.0265,-0.61306 c 0,-1.7e-4 -0.0169,-26.70465 -0.0169,-33.60732 a 6.99545,6.99545 0 0 0 -0.11121,-1.2428 13.52386,13.52386 0 0 0 -1.525,-4.29521 12.888,12.888 0 0 0 1.61761,-5.048 q 0.0345,-0.34711 0.0343,-0.69641 c -1.9e-4,-0.26671 -0.0167,-26.74942 -7e-5,-33.56556 a 6.99962,6.99962 0 0 0 -0.1491,-1.45456 C 610.58011,5.16621 598.6572,0.8245 597.30576,0.36806 A 6.99963,6.99963 0 0 0 595.06583,0 Z"
         fill="#ffffff"
         id="path55" />
      <line
         x1="684.81958"
         y1="96.830132"
         x2="684.81958"
         y2="96.830132"
         fill="none"
         stroke="#ffffff"
         stroke-linecap="round"
         stroke-linejoin="round"
         stroke-width="7"
         id="line57" />
      <path
         id="path2952"
         d="m 306.25061,7.01239 20.85011,99.97493 20.7434,-99.97493 H 336.61663 L 327.10072,63.20154 317.477,7.01239 Z"
         fill="#fe0016" />
      <path
         id="path3726"
         d="m 352.44205,7.01239 h 11.22749 v 99.97493 h -11.22749 z"
         fill="#fe0016" />
      <path
         id="path3728"
         d="m 373.7133,7.00116 v 99.98953 h 11.23087 V 55.3287 l 15.61765,51.662 h 10.35373 L 398.42121,59.71547 c 6.9418,-4.1644 8.98469,-9.61587 8.98469,-9.61587 V 18.3376 C 402.808,8.12649 394.87674,7.00116 394.87674,7.00116 Z m 11.23087,10.17853 H 396.175 v 34.74494 h -11.23083 z"
         fill="#fe0016" />
      <path
         id="path3733"
         d="m 410.93015,7.01239 h 33.57468 v 10.15832 h -11.22749 v 89.81773 H 422.04985 V 17.17071 H 410.93017 V 7.01239 Z"
         fill="#fe0016" />
      <path
         id="path3735"
         d="m 506.62389,7.00116 -21.68906,99.88509 v 0.10557 h 11.1253 l 2.35174,-13.477 h 15.68839 l 2.24617,13.477 h 11.23087 z m 0,43.09845 5.12353,34.42939 h -11.09048 z"
         fill="#fe0016" />
      <path
         id="path2882"
         d="m 532.0764,7.01239 h 11.22751 v 89.81774 h 16.78676 v 10.15831 H 532.0764 Z"
         fill="#fe0016" />
      <path
         id="path3660"
         d="m 652.15346,7.01239 h 10.265 L 672.89687,50.103 682.41278,7.01241 H 693.747 L 678.02939,65.8217 v 41.16674 H 666.80188 V 65.8217 Z"
         fill="#fe0016" />
      <path
         id="path3662"
         d="m 632.00641,7.01239 c -12.76164,0 -16.86426,11.3252 -16.86426,11.3252 0.10669,0.1606 0,75.17943 0,77.31779 1.69248,12.15292 16.86426,11.33306 16.86426,11.33306 v 0 c 16.83283,0 16.82834,-11.33307 16.82834,-11.33307 V 18.33759 C 644.48275,6.45197 632.00641,7.01239 632.00641,7.01239 Z m -5.63341,11.3252 h 11.23086 V 96.81328 H 626.373 Z"
         fill="#fe0016" />
      <path
         id="path3667"
         d="m 448.88824,7.01239 h 11.33419 v 88.64075 h 11.33418 V 7.01239 h 11.11967 v 88.64075 c 0,0 -3.63543,11.33419 -16.36,11.33419 -12.72457,0 -17.42918,-11.33419 -17.42918,-11.33419 V 7.01239 Z"
         fill="#fe0016" />
      <path
         id="path3669"
         d="m 572.49967,7.00116 v 99.98953 H 595.067 c 10.475,-2.72686 11.12531,-10.17741 11.12531,-10.17741 0,0 -0.0169,-26.70812 -0.0169,-33.61174 -0.78617,-4.35758 -4.37105,-4.50358 -4.37105,-4.50358 0,0 -0.0135,-1.21743 0,-2.17654 3.96,-0.30211 4.38678,-4.59792 4.38678,-4.59792 0,0 -0.0169,-26.68117 0,-33.587 C 604.47958,10.17949 595.06584,7 595.06584,7 h -22.56617 z m 11.26569,11.40719 h 11.30052 v 33.5174 h -11.30052 z m -0.0348,43.66 H 595.067 V 96.8144 h -11.33646 z"
         fill="#fe0016" />
    </g>
  </g>
  <metadata
     id="metadata891">
    <rdf:RDF>
      <cc:Work
         rdf:about="">
        <dc:title>logo</dc:title>
      </cc:Work>
    </rdf:RDF>
  </metadata>
</svg>
