<?xml version="1.0" encoding="UTF-8" standalone="no"?>
<svg
   id="svg1354"
   viewBox="0 0 216.69308 110.87999"
   version="1.1"
   sodipodi:docname="wii.svg"
   width="216.69308"
   height="110.87999"
   inkscape:version="1.1 (c68e22c387, 2021-05-23)"
   xmlns:inkscape="http://www.inkscape.org/namespaces/inkscape"
   xmlns:sodipodi="http://sodipodi.sourceforge.net/DTD/sodipodi-0.dtd"
   xmlns="http://www.w3.org/2000/svg"
   xmlns:svg="http://www.w3.org/2000/svg"
   xmlns:rdf="http://www.w3.org/1999/02/22-rdf-syntax-ns#"
   xmlns:cc="http://creativecommons.org/ns#"
   xmlns:dc="http://purl.org/dc/elements/1.1/">
  <defs
     id="defs28" />
  <sodipodi:namedview
     id="namedview26"
     pagecolor="#ffffff"
     bordercolor="#666666"
     borderopacity="1.0"
     inkscape:pageshadow="2"
     inkscape:pageopacity="0.0"
     inkscape:pagecheckerboard="0"
     showgrid="false"
     fit-margin-top="0"
     fit-margin-left="0"
     fit-margin-right="0"
     fit-margin-bottom="0"
     inkscape:zoom="1.113"
     inkscape:cx="108.26595"
     inkscape:cy="55.705301"
     inkscape:window-width="1920"
     inkscape:window-height="1138"
     inkscape:window-x="-8"
     inkscape:window-y="-8"
     inkscape:window-maximized="1"
     inkscape:current-layer="svg1354" />
  <title
     id="title2">logo</title>
  <path
     d="m 101.34279,107.37729 a 19.96326,19.96326 0 0 1 -4.542997,-0.4541 14.95017,14.95017 0 0 1 -7.54248,-4.49316 16.00479,16.00479 0 0 1 -3.72705,-5.112298 c -1.60743,-3.27247 -2.96534,-7.92969 -12.10694,-41.52833 -0.24072,-0.88379 -0.47461,-1.74267 -0.70019,-2.5708 q -0.63356,2.28077 -1.37549,4.98633 c -5.748,20.99072 -8.73584,31.68994 -9.688,34.689 -2.37744,7.490228 -6.99219,12.466788 -12.99414,14.014638 a 21.63568,21.63568 0 0 1 -4.77344,0.45313 19.9355,19.9355 0 0 1 -4.61621,-0.45313 c -5.251,-1.44238 -10.251,-6.14648 -12.44287,-11.704098 -1.27734,-3.23828 -5.38281,-17.67968 -20.9184595,-73.58056 l -2.28662,-8.22754 a 3.49937,3.49937 0 0 1 3.35156,-4.4370003 l 10.3168995,-0.06006 c 1.1665,-0.00684 2.29248,-0.00977 3.34717,-0.00977 8.57959,0 8.57959,0 9.73535,1.2641603 0.75146,0.81787 0.75146,0.81787 9.39209,34.72363 l 5.07324,19.90821 0.57471,-2.19922 c 9.7876,-37.46 11.19482,-42.55078 12.54687,-45.39111 a 15.65177,15.65177 0 0 1 10.07573,-8.5786203 20.93509,20.93509 0 0 1 4.71875,-0.46142 20.64153,20.64153 0 0 1 4.63867,0.45166 15.58374,15.58374 0 0 1 10.53955,9.6147403 c 1.05957,2.60791 3.01318,9.78174 11.00049,40.40039 0.57422,2.20069 1.111807,4.25733 1.605467,6.14112 1.291,-4.94873 2.99755,-11.56494 5.188,-20.144 l 8.459,-33.13818 a 3.49919,3.49919 0 0 1 3.39062,-2.6342803 l 10.67579,-0.00146 c 11.80224,0 11.80224,0 13.03027,1.7270503 a 3.57191,3.57191 0 0 1 0.49756,3.09277 c -0.16065,0.54639 -2.16748,7.74024 -4.93067,17.6919 -14.45605,52.05859 -17.43945,62.02832 -18.66015,64.68359 -2.54981,5.547848 -7.01221,9.511718 -12.24317,10.874998 a 20.23279,20.23279 0 0 1 -4.6084,0.46191 z"
     fill="#999999"
     id="path4" />
  <path
     d="m 72.760173,11.654862 a 16.9426,16.9426 0 0 1 3.75712,0.33923 12.13449,12.13449 0 0 1 8.17871,7.5448 c 0.97021,2.38776 3.05828,10.07489 10.85614,39.96644 2.62689,10.06964 4.851737,18.49053 4.944207,18.713 l 0.004,0.0038 c 0.16592,0 3.40921,-12.3127 8.62292,-32.73741 l 8.459,-33.13819 10.47955,-0.0015 h 0.21909 c 8.10168,0 10.23871,0.06134 10.16018,0.28827 -0.0551,0.15936 -2.28662,8.16351 -4.9588,17.787 -12.77032,45.98977 -17.21594,61.434 -18.46789,64.1585 -2.12665,4.62793 -5.70038,7.843758 -9.94556,8.949458 a 16.56439,16.56439 0 0 1 -3.72769,0.34905 16.26039,16.26039 0 0 1 -3.659237,-0.34084 11.463,11.463 0 0 1 -5.94949,-3.581068 12.72256,12.72256 0 0 1 -3.06055,-4.1808 c -1.46515,-2.98351 -2.87744,-7.8496 -11.87189,-40.90441 -2.11566,-7.77526 -3.90509,-14.29333 -3.97644,-14.48455 l -0.004,-0.0035 c -0.12164,0 -2.28287,7.53194 -4.84772,16.89836 -5.70758,20.84319 -8.71417,31.6108 -9.64843,34.55432 -2.01948,6.36248 -5.69135,10.435808 -10.5326,11.683998 a 18.02367,18.02367 0 0 1 -3.8988,0.34247 16.31853,16.31853 0 0 1 -3.69055,-0.328 c -4.21167,-1.15643 -8.31726,-5.058798 -10.11322,-9.612698 -1.20386,-3.05259 -5.55411,-18.3676 -20.8022495,-73.23387 l -2.2865,-8.22723 10.3171095,-0.0603 c 1.161,-0.0068 2.28082,-0.01 3.33008,-0.01 4.07925,0 7.07788,0.04873 7.14847,0.12585 0.0887,0.09692 3.95141,15.04889 8.58367,33.22662 l 8.42231,33.05034 4.00335,-15.32127 c 9.50669,-36.38361 11.1214,-42.25092 12.32123,-44.771 a 12.12666,12.12666 0 0 1 7.79773,-6.69647 17.30168,17.30168 0 0 1 3.83627,-0.34839 m 1.6e-4,-7.0000003 h -1.6e-4 a 23.81788,23.81788 0 0 0 -5.60092,0.57446 19.141,19.141 0 0 0 -12.35333,10.4614003 c -1.33792,2.81 -2.53027,6.89456 -9.918,35.09338 l -1.72546,-6.771 c -2.242,-8.79806 -4.37335,-17.114 -6.00138,-23.41591 -0.78112,-3.02365 -1.4197,-5.47995 -1.86853,-7.18643 -0.961,-3.6535303 -1.13415,-4.3118603 -2.33364,-5.6222203 -2.08472,-2.27774 -4.41532,-2.31784 -7.1139,-2.36426 -1.33248,-0.02295 -3.12991,-0.035 -5.19793,-0.035 -1.06217,0 -2.1958,0.00323 -3.371,0.01013 l -10.3169995,0.0603 A 6.99993,6.99993 0 0 0 0.25514348,14.333962 l 2.28650002,8.22723 c 16.7055295,60.1105 19.7714195,70.7243 21.0346595,73.92753 2.61649,6.634478 8.41471,12.049238 14.77164,13.794738 a 21.69838,21.69838 0 0 0 5.544,0.57787 24.38775,24.38775 0 0 0 5.64654,-0.56416 c 7.21225,-1.85952 12.70163,-7.66414 15.45682,-16.344608 0.848,-2.67149 3.25549,-11.24472 7.71234,-27.47281 6.92466,25.365 8.10688,29.176 9.68051,32.38048 a 19.558,19.558 0 0 0 4.39429,6.045168 18.294,18.294 0 0 0 9.13471,5.40513 22.917,22.917 0 0 0 5.423517,0.56684 23.19272,23.19272 0 0 0 5.492,-0.57505 c 6.25159,-1.62826 11.55185,-6.29393 14.54184,-12.800628 1.32791,-2.88977 4.241,-12.5894 18.85212,-65.20846 2.69741,-9.71451 4.69512,-16.87644 4.90991,-17.619 a 7.04889,7.04889 0 0 0 -0.9985,-6.1339403 c -2.13617,-2.9997 -5.26034,-3.0777 -7.77066,-3.14035 -1.54254,-0.03848 -3.9609,-0.05493 -8.08636,-0.05493 h -0.21912 l -10.48053,0.00146 a 7,7 0 0 0 -6.78152,5.2686803 l -8.459,33.13817 q -0.96985,3.79944 -1.81509,7.09335 c -6.977777,-26.68913 -8.344267,-31.48076 -9.344667,-33.94286 a 19.00313,19.00313 0 0 0 -12.89943,-11.6837303 23.49941,23.49941 0 0 0 -5.5213,-0.56522 z"
     fill="#ffffff"
     id="path6" />
  <rect
     x="145.25296"
     y="36.42226"
     width="26.69873"
     height="70.268547"
     rx="3.5"
     fill="#999999"
     id="rect8" />
  <path
     d="m 168.4521,39.922202 v 63.268548 h -19.699 V 39.922202 h 19.699 m 0,-7 h -19.699 a 7,7 0 0 0 -7,7 v 63.268548 a 7,7 0 0 0 7,7 h 19.699 a 7,7 0 0 0 7,-7 V 39.922202 a 7,7 0 0 0 -7,-7 z"
     fill="#ffffff"
     id="path10" />
  <rect
     x="184.88235"
     y="36.42226"
     width="26.699221"
     height="70.268547"
     rx="3.5"
     fill="#999999"
     id="rect12" />
  <path
     d="m 208.0818,39.922202 v 63.268548 h -19.699 V 39.922202 h 19.699 m 0,-7 h -19.699 a 7,7 0 0 0 -7,7 v 63.268548 a 7,7 0 0 0 7,7 h 19.699 a 7,7 0 0 0 7,-7 V 39.922202 a 7,7 0 0 0 -7,-7 z"
     fill="#ffffff"
     id="path14" />
  <path
     d="m 197.56886,32.704972 a 14.1926,14.1926 0 0 1 -2.8125,-0.269 c -7.57227,-1.53418 -12.92871,-9.1294 -11.69727,-16.58545 a 14.75692,14.75692 0 0 1 10.82325,-11.8691803 15.66238,15.66238 0 0 1 3.93945,-0.481 16.8711,16.8711 0 0 1 7.48828,1.69043 16.83459,16.83459 0 0 1 6.03906,5.7578103 14.49032,14.49032 0 0 1 -4.63379,19.18116 17.59592,17.59592 0 0 1 -9.14648,2.57523 z"
     fill="#999999"
     id="path16" />
  <path
     d="m 197.8221,7.0005017 a 13.44812,13.44812 0 0 1 5.90576,1.31244 13.59984,13.59984 0 0 1 4.58386,4.3751203 11.05366,11.05366 0 0 1 -3.48737,14.496 14.07764,14.07764 0 0 1 -7.25573,2.021 10.71694,10.71694 0 0 1 -2.11731,-0.19939 11.35524,11.35524 0 0 1 -8.93872,-12.5849 11.351,11.351 0 0 1 8.25152,-9.0522403 12.23334,12.23334 0 0 1 3.058,-0.36811 m 0,-6.99999999707 A 19.15119,19.15119 0 0 0 192.99972,0.5945717 18.2576,18.2576 0 0 0 179.60615,15.280292 a 18.277,18.277 0 0 0 14.45514,20.58607 17.71131,17.71131 0 0 0 3.50733,0.33878 20.93332,20.93332 0 0 0 11.03631,-3.12975 18.03074,18.03074 0 0 0 5.78259,-23.8636103 20.22147,20.22147 0 0 0 -7.49548,-7.14286 20.426,20.426 0 0 0 -9.06994,-2.06841999707 z"
     fill="#ffffff"
     id="path18" />
  <path
     d="m 157.93898,32.704972 a 14.20684,14.20684 0 0 1 -2.8125,-0.269 15.11226,15.11226 0 0 1 -11.67432,-12.06791 14.62875,14.62875 0 0 1 10.80029,-16.3867203 15.65119,15.65119 0 0 1 3.93946,-0.481 16.87717,16.87717 0 0 1 7.49414,1.69336 17.39063,17.39063 0 0 1 6.14453,5.9033203 14.63113,14.63113 0 0 1 -4.74609,19.03272 17.58989,17.58989 0 0 1 -9.14551,2.57523 z"
     fill="#999999"
     id="path20" />
  <path
     d="m 158.19218,7.0002917 a 13.45606,13.45606 0 0 1 5.91159,1.31552 14.02839,14.02839 0 0 1 4.653,4.4536103 11.07712,11.07712 0 0 1 -3.56211,14.41468 14.078,14.078 0 0 1 -7.25579,2.021 10.7189,10.7189 0 0 1 -2.11731,-0.19937 11.59822,11.59822 0 0 1 -8.91816,-9.22035 11.16879,11.16879 0 0 1 8.231,-12.4168103 12.2303,12.2303 0 0 1 3.05778,-0.36828 m 0,-6.99999999707 A 19.15191,19.15191 0 0 0 153.36995,0.5946217 18.15136,18.15136 0 0 0 140.0009,20.949622 a 18.67914,18.67914 0 0 0 14.4306,14.91673 17.71122,17.71122 0 0 0 3.50736,0.33878 20.93372,20.93372 0 0 0 11.03625,-3.12969 17.96555,17.96555 0 0 0 5.93005,-23.6523603 20.60061,20.60061 0 0 0 -7.63733,-7.35135 20.43926,20.43926 0 0 0 -9.07565,-2.07143999707 z"
     fill="#ffffff"
     id="path22" />
  <path
     id="path1363"
     d="m 40.201943,103.53329 c -4.21168,-1.1564 -8.31728,-5.058788 -10.11322,-9.612638 -1.20389,-3.05263 -5.55416,-18.36766 -20.8022795,-73.23389 l -2.28647,-8.22723 10.3171395,-0.06035 c 5.67442,-0.0332 10.38975,0.019 10.47851,0.11587 0.0888,0.09687 3.95141,15.0489 8.58368,33.2266 l 8.4223,33.05037 4.00332,-15.32128 c 9.50672,-36.38358 11.12144,-42.25091 12.32123,-44.771 a 12.12686,12.12686 0 0 1 7.79773,-6.69651 21.139,21.139 0 0 1 7.59341,-0.0092 12.13427,12.13427 0 0 1 8.17868,7.54479 c 0.97026,2.38781 3.05832,10.0749 10.85617,39.96646 2.62688,10.06966 4.851767,18.49053 4.944197,18.713 0.10462,0.25186 3.36063,-12.10246 8.627,-32.73366 l 8.459,-33.13821 10.47954,-0.0014 c 8.28308,-0.0011 10.45854,0.05928 10.37931,0.28826 -0.0551,0.15933 -2.28661,8.16349 -4.95884,17.787 -12.77029,45.98974 -17.2159,61.434 -18.46788,64.15852 -2.12666,4.62793 -5.70039,7.843718 -9.94554,8.949438 a 19.94718,19.94718 0 0 1 -7.386997,0.008 11.46292,11.46292 0 0 1 -5.94948,-3.581088 12.72189,12.72189 0 0 1 -3.06054,-4.1808 c -1.46518,-2.98352 -2.87747,-7.84956 -11.87186,-40.90437 -2.11571,-7.77531 -3.90511,-14.29336 -3.97646,-14.48455 -0.0713,-0.19119 -2.25444,7.41146 -4.8513,16.89479 -5.70759,20.84321 -8.71418,31.61082 -9.64846,34.55433 -2.01947,6.3625 -5.69134,10.435778 -10.53258,11.683998 a 21.649,21.649 0 0 1 -7.58931,0.0145 z M 148.75309,71.556482 v -31.63426 h 19.699 v 63.268518 h -19.699 z m 39.62973,0 v -31.63426 h 19.699 v 63.268518 h -19.699 z m -32.56127,-42.5507 a 11.59813,11.59813 0 0 1 -8.91814,-9.22034 11.16881,11.16881 0 0 1 8.231,-12.4168603 13.64305,13.64305 0 0 1 8.96936,0.94724 14.02874,14.02874 0 0 1 4.65305,4.4536003 11.07714,11.07714 0 0 1 -3.56216,14.41468 13.81214,13.81214 0 0 1 -9.37311,1.82168 z m 39.62973,0 a 11.35524,11.35524 0 0 1 -8.93862,-12.58492 11.351,11.351 0 0 1 8.25151,-9.0522803 13.646,13.646 0 0 1 8.96372,0.94438 13.59936,13.59936 0 0 1 4.58391,4.3751303 11.05368,11.05368 0 0 1 -3.48738,14.496 13.81214,13.81214 0 0 1 -9.37314,1.82169 z M 1.4998635,3.8773817"
     fill="#999999" />
  <metadata
     id="metadata845">
    <rdf:RDF>
      <cc:Work
         rdf:about="">
        <dc:title>logo</dc:title>
      </cc:Work>
    </rdf:RDF>
  </metadata>
</svg>
