<?xml version="1.0" encoding="UTF-8" standalone="no"?>
<svg
   viewBox="0 0 490.80783 114.04"
   version="1.1"
   id="svg119"
   sodipodi:docname="wonderswancolor.svg"
   width="490.80783"
   height="114.04"
   inkscape:version="1.1 (c68e22c387, 2021-05-23)"
   xmlns:inkscape="http://www.inkscape.org/namespaces/inkscape"
   xmlns:sodipodi="http://sodipodi.sourceforge.net/DTD/sodipodi-0.dtd"
   xmlns="http://www.w3.org/2000/svg"
   xmlns:svg="http://www.w3.org/2000/svg">
  <defs
     id="defs123" />
  <sodipodi:namedview
     id="namedview121"
     pagecolor="#ffffff"
     bordercolor="#666666"
     borderopacity="1.0"
     inkscape:pageshadow="2"
     inkscape:pageopacity="0.0"
     inkscape:pagecheckerboard="0"
     showgrid="false"
     fit-margin-top="0"
     fit-margin-left="0"
     fit-margin-right="0"
     fit-margin-bottom="0"
     inkscape:zoom="1.113"
     inkscape:cx="245.73226"
     inkscape:cy="56.603774"
     inkscape:window-width="1920"
     inkscape:window-height="1138"
     inkscape:window-x="-8"
     inkscape:window-y="-8"
     inkscape:window-maximized="1"
     inkscape:current-layer="svg119" />
  <g
     id="g999"
     transform="translate(-254.57968)">
    <g
       id="Layer_2"
       data-name="Layer 2">
      <rect
         x="294.73001"
         y="23.610001"
         width="53.900002"
         height="64.370003"
         fill="#ffffff"
         id="rect2" />
      <rect
         x="466.62"
         y="68.519997"
         width="37.970001"
         height="25.040001"
         fill="#ffffff"
         id="rect4" />
      <rect
         x="583.84998"
         y="76.300003"
         width="27.26"
         height="27.26"
         fill="#ffffff"
         id="rect6" />
      <rect
         x="515.15997"
         y="81.040001"
         width="25.969999"
         height="18.780001"
         fill="#ffffff"
         id="rect8" />
    </g>
    <path
       d="m 326.38,102.46 c -30.39,0 -68.05,-30.86 -68.3,-56 A 3.49,3.49 0 0 1 261.43,43 h 0.15 a 3.51,3.51 0 0 1 3.49,3.24 c 0.05,0.62 0.13,1.35 0.23,2.16 0.66,5.08 8.79,15.52 19.58,19.91 C 271.7,55 266.14,37.9 271.28,24.89 c 2.75,-8 11.51,-21.39 39.29,-21.39 30.39,0 68.05,30.85 68.3,56 a 3.5,3.5 0 0 1 -3.34,3.5 h -0.16 a 3.49,3.49 0 0 1 -3.48,-3.22 c -0.05,-0.62 -0.13,-1.35 -0.23,-2.16 -0.67,-5.09 -8.8,-15.53 -19.58,-19.92 13.17,13.24 18.73,30.37 13.59,43.37 -2.75,8.03 -11.5,21.39 -39.29,21.39 z m -14,-68.78 c -5,0 -9.05,1.64 -11.51,4.62 a 12.86,12.86 0 0 0 -2.56,9.7 c 0.65,6.79 5.08,14.17 11.86,19.74 a 39.51,39.51 0 0 0 7.51,4.88 C 311,65.32 309.41,55.91 314.3,50 a 13.93,13.93 0 0 1 11.07,-4.78 25.38,25.38 0 0 1 15.17,5.69 c 0.39,0.31 0.78,0.63 1.15,1 a 37.3,37.3 0 0 0 -9.35,-10.56 c -6.18,-4.91 -13.44,-7.67 -19.93,-7.67 z"
       fill="#686868"
       id="path11" />
    <path
       d="m 310.57,7 c 28.76,0 64.58,29.53 64.81,52.49 -0.06,-0.67 -0.14,-1.46 -0.26,-2.34 -1.09,-8.43 -15.73,-25 -32.81,-25 -0.79,0 -1.56,0 -2.33,0.08 A 62.74,62.74 0 0 1 345,36 c 15.73,12.93 22.45,31.1 17.36,43.84 C 359,90 348.61,99 326.38,99 c -28.75,0 -64.57,-29.53 -64.8,-52.5 0.05,0.68 0.14,1.47 0.25,2.35 1.1,8.43 15.73,25 32.82,25 0.78,0 1.56,0 2.32,-0.08 -1.71,-1.15 -3.4,-2.4 -5,-3.75 C 276.2,57 269.47,38.85 274.57,26.1 278,16 288.35,7 310.57,7 M 331,79.46 a 20.48,20.48 0 0 0 9.55,-2.17 12.73,12.73 0 0 1 -4.21,0.67 21.94,21.94 0 0 1 -13.54,-5.37 c -7.45,-6.19 -10,-15.27 -5.74,-20.42 a 10.49,10.49 0 0 1 8.36,-3.5 21.72,21.72 0 0 1 13,4.94 c 7,5.54 10.06,13.74 7.32,19.21 6.61,-9.09 1.66,-24.31 -11.21,-34.33 -7.07,-5.51 -15.09,-8.31 -22.08,-8.31 -5.83,0 -10.94,2 -14.21,5.88 -7.24,8.66 -2.95,23.94 9.76,34.35 7.23,6 15.67,9 23,9 M 310.57,0 C 280.7,0 271.08,14.75 268,23.68 a 33.44,33.44 0 0 0 -1.58,17.73 7,7 0 0 0 -4.83,-1.95 h -0.31 a 7,7 0 0 0 -6.7,7.06 c 0.13,12.9 9.21,27.93 24.28,40.22 14.76,12 32.52,19.21 47.52,19.21 29.88,0 39.5,-14.76 42.58,-23.69 a 33.42,33.42 0 0 0 1.57,-17.73 7,7 0 0 0 4.84,1.95 h 0.32 a 7,7 0 0 0 6.68,-7.07 C 382.25,46.52 373.17,31.49 358.09,19.2 343.34,7.18 325.57,0 310.57,0 Z m -2.42,60.89 c -3.65,-4.18 -5.94,-8.88 -6.36,-13.25 a 9.71,9.71 0 0 1 1.8,-7.11 c 2.42,-2.91 6.56,-3.35 8.82,-3.35 a 28.46,28.46 0 0 1 14.48,4.54 c -0.51,0 -1,0 -1.52,0 -5.68,0 -10.57,2.15 -13.77,6.06 a 16.82,16.82 0 0 0 -3.45,13.16 z"
       fill="#ffffff"
       id="path13" />
    <path
       d="m 567.27,109.7 a 25,25 0 0 1 -8.25,-1.54 l -0.26,-0.09 c -3,-1.06 -9.25,-3.25 -9,-10.26 0.25,-7.65 3,-17.45 5.51,-26.09 1,-3.62 2,-7 2.72,-10 a 3.39,3.39 0 0 1 0.21,-0.61 c 3.42,-7.68 7.07,-11.42 11.15,-11.42 a 5.87,5.87 0 0 1 1.56,0.21 c 3.33,0.67 5.69,2.13 7,4.32 2.23,3.75 0.84,8.17 -0.63,12.85 l -1.45,4.59 c -2.47,7.74 -6.55,20.58 -6.31,23.72 a 3.12,3.12 0 0 0 0.52,0 14.3,14.3 0 0 0 3.75,-0.71 6.76,6.76 0 0 1 2,-0.3 5.72,5.72 0 0 1 5.3,3.18 5.86,5.86 0 0 1 -1.08,6.3 16.17,16.17 0 0 1 -12.71,5.81 z"
       fill="#686868"
       id="path15" />
    <path
       d="m 569.34,53.19 a 2.85,2.85 0 0 1 0.76,0.11 c 7.4,1.44 5.75,6.59 3.8,12.79 -3.57,11.36 -8.74,26.62 -7.77,30.34 0.49,1.87 2,2.49 3.89,2.49 a 17.58,17.58 0 0 0 4.74,-0.86 3.57,3.57 0 0 1 1,-0.15 c 1.92,0 3.19,1.73 1.52,3.74 a 12.5,12.5 0 0 1 -10,4.55 21.52,21.52 0 0 1 -7.09,-1.34 c -2.87,-1 -7.09,-2.36 -6.94,-6.93 0.35,-10.31 5.72,-25.26 8.14,-35.39 2.48,-5.55 5.34,-9.35 8,-9.35 m 0,-7 v 0 c -5.6,0 -10.3,4.42 -14.35,13.49 a 6.87,6.87 0 0 0 -0.42,1.23 c -0.68,2.89 -1.65,6.27 -2.67,9.85 -2.52,8.84 -5.38,18.85 -5.65,26.93 a 12.37,12.37 0 0 0 4.92,10.48 22,22 0 0 0 6.43,3.2 l 0.25,0.09 a 28.53,28.53 0 0 0 9.42,1.74 19.6,19.6 0 0 0 15.41,-7.09 9.05,9.05 0 0 0 -6.92,-15.2 10.21,10.21 0 0 0 -2.06,0.21 c 1.2,-5.08 3.74,-13.06 5.44,-18.41 0.5,-1.55 1,-3.07 1.43,-4.52 v -0.07 c 1.56,-5 3.33,-10.6 0.3,-15.69 -1.82,-3.06 -4.92,-5.06 -9.22,-6 a 9.68,9.68 0 0 0 -2.34,-0.29 z"
       fill="#ffffff"
       id="path17" />
    <path
       d="m 521.08,110.5 c -6.81,0 -12,-1.9 -15.52,-5.64 -3.22,-3.44 -4.78,-8.39 -4.4,-13.92 0,-13.08 8,-21.75 21.51,-23.14 h 0.66 a 4.88,4.88 0 0 1 4.25,2.2 5.89,5.89 0 0 1 0.67,4.34 c 1.16,-1 5.62,-4.41 14,-4.72 h 0.66 c 5.12,0 7.94,2.33 9.39,4.29 4.69,6.27 1.72,16.88 1.37,18.06 -0.15,0.57 -4.6,16.18 -28.82,18.36 -1.28,0.11 -2.53,0.17 -3.72,0.17 z M 527,77.8 c -3.82,8.27 -5.19,15.11 -3.59,17.92 0.22,0.4 0.82,1.44 3.37,1.69 0.4,0 0.78,0 1.15,0 3,0 4.23,-1.21 4.9,-2.12 2.13,-2.86 2,-8.33 0.86,-12.25 -0.41,-1.38 -2.9,-2.34 -4,-2.56 A 3.53,3.53 0 0 1 527.04,78.03 2.86,2.86 0 0 1 527,77.8 Z"
       fill="#686868"
       id="path19" />
    <path
       d="m 523.33,71.26 c 1.79,0 2,1.87 0.77,4.51 -3.79,8.07 -9.68,24 2.37,25.12 0.52,0 1,0.07 1.48,0.07 10.59,0 11.25,-11.78 9.11,-18.88 -1.17,-3.91 -6.62,-5 -6.62,-5 0,0 3.72,-3.67 11.89,-4 h 0.53 c 12.72,0 7.41,17.86 7.41,17.86 0,0 -3.72,13.88 -25.78,15.86 -1.21,0.11 -2.34,0.16 -3.41,0.16 -18.41,0 -16.42,-15.32 -16.42,-16 0,-15.81 12.22,-19.06 18.37,-19.7 h 0.3 m 0,-7 v 0 a 9,9 0 0 0 -1,0.06 30.25,30.25 0 0 0 -15,5.52 c -4.39,3.29 -9.61,9.59 -9.68,20.92 -0.43,6.49 1.47,12.34 5.34,16.49 4.18,4.48 10.26,6.75 18.08,6.75 1.29,0 2.65,-0.06 4,-0.19 C 550.62,111.52 556.36,95 557,93 v 0 c 0.66,-2.22 3.67,-13.67 -1.91,-21.15 -1.94,-2.6 -5.63,-5.7 -12.2,-5.7 h -0.79 a 29.26,29.26 0 0 0 -11.23,2.51 l -0.3,-0.52 a 8.48,8.48 0 0 0 -7.21,-3.87 z m 3.07,29.53 c -0.29,-1 -0.3,-4.12 1.9,-10 0.24,0.07 0.49,0.12 0.75,0.17 a 5.71,5.71 0 0 1 1.44,0.59 c 0.89,3.33 0.71,7.15 -0.45,8.7 -0.18,0.25 -0.52,0.71 -2.09,0.71 a 7.88,7.88 0 0 1 -0.82,0 3,3 0 0 1 -0.73,-0.13 z"
       fill="#ffffff"
       id="path21" />
    <path
       d="m 594.45,110.5 c -6.81,0 -12,-1.9 -15.53,-5.64 -3.21,-3.44 -4.78,-8.39 -4.4,-13.92 0,-13.09 8.05,-21.75 21.52,-23.14 q 0.33,0 0.66,0 a 4.88,4.88 0 0 1 4.3,2.2 5.87,5.87 0 0 1 0.66,4.35 c 1.16,-1 5.63,-4.42 14,-4.73 h 0.66 c 5.12,0 7.93,2.33 9.39,4.29 4.59,6.27 1.63,16.88 1.29,18.09 -0.15,0.57 -4.6,16.18 -28.82,18.36 -1.29,0.11 -2.54,0.17 -3.72,0.17 z m 5.93,-32.69 c -3.81,8.27 -5.19,15.1 -3.59,17.91 0.23,0.4 0.83,1.44 3.38,1.69 0.39,0 0.78,0 1.15,0 3,0 4.22,-1.21 4.9,-2.12 2.12,-2.86 2,-8.33 0.86,-12.25 -0.44,-1.45 -3.05,-2.38 -4,-2.56 a 3.48,3.48 0 0 1 -2.68,-2.43 2.46,2.46 0 0 1 -0.02,-0.24 z"
       fill="#686868"
       id="path23" />
    <path
       d="m 596.7,71.26 c 1.79,0 2,1.87 0.77,4.51 -3.8,8.07 -9.68,24 2.37,25.12 0.51,0 1,0.07 1.48,0.07 10.58,0 11.25,-11.78 9.11,-18.88 -1.18,-3.91 -6.63,-5 -6.63,-5 0,0 3.73,-3.67 11.9,-4 h 0.53 c 12.71,0 7.4,17.86 7.4,17.86 0,0 -3.71,13.88 -25.78,15.86 -1.2,0.11 -2.34,0.16 -3.4,0.16 C 576,107 578,91.68 578,91 578,75.19 590.21,71.94 596.36,71.3 h 0.31 m 0,-7 v 0 a 8.89,8.89 0 0 0 -1,0.06 30.28,30.28 0 0 0 -15,5.52 c -4.38,3.29 -9.61,9.59 -9.67,20.92 -0.43,6.49 1.46,12.34 5.34,16.49 4.18,4.48 10.26,6.75 18.08,6.75 1.29,0 2.64,-0.06 4,-0.19 C 624,111.52 629.72,95 630.34,93 v 0 c 0.66,-2.22 3.67,-13.67 -1.91,-21.15 -1.94,-2.6 -5.63,-5.7 -12.2,-5.7 h -0.79 a 29.21,29.21 0 0 0 -11.23,2.51 c -0.1,-0.18 -0.2,-0.35 -0.31,-0.52 a 8.45,8.45 0 0 0 -7.2,-3.87 z m 3.06,29.53 c -0.29,-1 -0.29,-4.12 1.91,-10 0.24,0.07 0.49,0.12 0.74,0.17 a 5.79,5.79 0 0 1 1.45,0.59 c 0.88,3.33 0.7,7.15 -0.45,8.7 -0.19,0.25 -0.53,0.71 -2.09,0.71 a 7.75,7.75 0 0 1 -0.82,0 3.12,3.12 0 0 1 -0.74,-0.13 z"
       fill="#ffffff"
       id="path25" />
    <path
       d="m 478.09,110.35 c -13.42,0 -29.44,-7.1 -30.46,-27.13 -1.13,-22.35 28.56,-32 38.91,-32.78 1.47,-0.11 3,-0.17 4.65,-0.17 a 88.52,88.52 0 0 1 16.16,1.59 3.48,3.48 0 0 1 2.78,3.69 c -1.7,22.23 -7.23,22.84 -9.05,23 -0.2,0 -0.4,0 -0.6,0 -4.21,0 -5.72,-4.27 -6.93,-7.69 -1.5,-4.22 -2.5,-6.23 -4.16,-6.23 h -0.29 c -13.5,1.19 -18.49,16.43 -18.62,20.42 0,1.57 0.35,6.2 2.73,8.64 a 5.83,5.83 0 0 0 4.42,1.68 c 0.3,0 0.62,0 0.94,0 7,-0.63 9.78,-3.35 11.79,-5.35 a 10.2,10.2 0 0 1 3,-2.29 14,14 0 0 1 5.43,-1.54 5.22,5.22 0 0 1 4.03,1.81 6.6,6.6 0 0 1 1.35,5.38 c -1.49,13.21 -22.41,16.61 -24.79,17 a 1.53,1.53 0 0 1 -0.3,0 c 0,0 -0.36,-0.03 -0.99,-0.03 z"
       fill="#686868"
       id="path27" />
    <path
       d="m 491.19,53.77 a 86.54,86.54 0 0 1 15.45,1.51 c 0,0 -1.48,19.34 -5.95,19.83 h -0.21 c -4.11,0 -3.43,-13.92 -11.09,-13.92 H 488.8 C 473.36,62.59 467.17,79.42 467,85 c -0.07,2.61 0.69,13.93 10.65,13.93 0.4,0 0.82,0 1.25,0 11.16,-1 13.64,-7 15.87,-7.93 a 11.22,11.22 0 0 1 4,-1.24 c 1.28,0 2.21,0.75 1.93,3.22 -1.23,10.9 -21.81,13.88 -21.81,13.88 h -0.79 c -4.43,0 -25.82,-1.17 -27,-23.8 -1,-19.59 26.06,-28.37 35.69,-29.12 1.46,-0.11 2.93,-0.16 4.38,-0.16 m 0,-7 v 0 c -1.7,0 -3.36,0.06 -4.92,0.18 -6.2,0.48 -16.31,3.29 -24.9,8.48 -11.67,7 -17.79,17 -17.24,28 1.14,22.48 19,30.45 34,30.45 0.76,0 1.18,0 1.18,0 l 0.62,-0.06 c 2.65,-0.39 26,-4.21 27.76,-20 a 10,10 0 0 0 -2.22,-8.12 8.79,8.79 0 0 0 -6.67,-2.89 16.71,16.71 0 0 0 -6.78,1.73 h -0.07 a 13.28,13.28 0 0 0 -4,3 c -1.82,1.79 -3.88,3.83 -9.64,4.35 h -0.63 c -1.31,0 -1.7,-0.4 -1.91,-0.61 C 474.4,90 473.94,86.7 474,85.24 c 0.09,-2.7 4.21,-15.48 14.71,-16.95 a 29.81,29.81 0 0 1 1.56,3.81 c 1.32,3.75 3.55,10 10.23,10 a 8.22,8.22 0 0 0 1,-0.06 c 7.93,-0.88 9.83,-10.92 10.75,-15.75 a 105.28,105.28 0 0 0 1.4,-10.5 7,7 0 0 0 -5.56,-7.39 92.91,92.91 0 0 0 -16.87,-1.66 z"
       fill="#ffffff"
       id="path29" />
    <path
       d="m 633,108.37 c -3.86,0 -5.88,-1.69 -6.89,-3.11 -3,-4.27 -0.74,-10.89 1.28,-16.74 0.31,-0.9 0.61,-1.77 0.87,-2.58 0.43,-1.34 0.77,-2.76 1.1,-4.14 1.21,-5.15 2.88,-12.21 11.18,-12.21 0.4,0 0.82,0 1.26,0 4.2,0.35 6.1,2.45 7,4.15 a 7.5,7.5 0 0 1 0.54,1.43 c 5.11,-3.8 12,-7.62 18.76,-7.62 0.51,0 1,0 1.51,0.06 a 4,4 0 0 1 3.16,2 c 0.76,1.3 2.34,4 -6.22,22.77 a 3.5,3.5 0 0 1 -3.18,2 h -0.22 A 3.49,3.49 0 0 1 660,92 c -0.25,-0.75 -1.54,-3.63 -3.3,-3.63 a 2.86,2.86 0 0 0 -0.55,0.07 c -7.48,1.63 -9.61,6 -11.86,10.7 -1.91,3.95 -4.28,8.87 -10.51,9.2 -0.31,0.03 -0.57,0.03 -0.78,0.03 z"
       fill="#686868"
       id="path31" />
    <path
       d="m 668,71.1 c 0.41,0 0.81,0 1.22,0.05 3,0.24 -6,19.83 -6,19.83 0,0 -1.89,-6.09 -6.64,-6.09 a 5.91,5.91 0 0 0 -1.29,0.14 C 639,88.59 643,104.36 633.55,104.86 H 633 c -8.62,0 -3.59,-11.07 -1.41,-17.86 2.18,-6.79 1.86,-13.92 9,-13.92 0.31,0 0.63,0 1,0 8.94,0.74 2,11.9 2,11.9 0,0 12.57,-13.88 24.41,-13.88 m 0,-7 c -6.33,0 -12.5,2.76 -17.57,6 a 11.85,11.85 0 0 0 -8.4,-4 c -0.51,0 -1,-0.06 -1.54,-0.06 -11.07,0 -13.36,9.69 -14.59,14.9 -0.32,1.38 -0.63,2.67 -1,3.88 -0.25,0.78 -0.54,1.63 -0.85,2.51 -2.18,6.31 -4.9,14.17 -0.82,19.91 1.22,1.71 4.11,4.58 9.74,4.58 h 0.95 c 8.29,-0.44 11.41,-6.9 13.47,-11.18 2.06,-4.28 3.5,-7.25 8.7,-8.62 a 5.61,5.61 0 0 1 0.52,1 6.87,6.87 0 0 0 6.16,5 h 0.52 a 7.08,7.08 0 0 0 6.37,-4.2 c 0.08,-0.18 2.06,-4.52 3.88,-9.24 3.66,-9.44 4.16,-13.36 2.17,-16.75 a 7.56,7.56 0 0 0 -5.9,-3.72 c -0.58,0 -1.18,-0.07 -1.79,-0.07 z"
       fill="#ffffff"
       id="path33" />
    <path
       d="m 382.53,42.18 a 3.5,3.5 0 0 1 -3.41,-4.31 l 6,-25.31 a 3.53,3.53 0 0 1 1.23,-1.93 l 6.08,-4.82 a 3.44,3.44 0 0 1 2.17,-0.76 h 6 a 3.52,3.52 0 0 1 2.75,1.33 3.59,3.59 0 0 1 0.75,2.2 l 2.5,-2.51 a 3.54,3.54 0 0 1 2.48,-1 h 8.5 a 3.49,3.49 0 0 1 3.5,3.5 l 2.51,-2.49 a 3.52,3.52 0 0 1 2.47,-1 h 7.29 a 3.5,3.5 0 0 1 3.39,4.35 l -6.05,24.12 a 3.45,3.45 0 0 1 -1.17,1.84 l -7.27,6 a 3.47,3.47 0 0 1 -2.23,0.81 z"
       fill="#686868"
       id="path35" />
    <path
       d="m 433.43,8.55 v 0 m 0,0 -6.06,24.12 -7.27,6 h -37.57 l 6,-25.31 6.07,-4.82 h 6 l -6,25.3 6,-3.61 4.84,-18.06 3.64,-3.63 h 8.5 l -6.06,25.3 6.06,-4.8 3.61,-15.68 4.87,-4.82 h 7.29 m 0,-7 h -7.29 A 7,7 0 0 0 421.9,3 7,7 0 0 0 417.66,1.57 h -8.5 A 7,7 0 0 0 404.92,3 7,7 0 0 0 400.68,1.57 h -6 a 7,7 0 0 0 -4.35,1.51 l -6.08,4.83 a 7,7 0 0 0 -2.45,3.86 l -6,25.3 a 7,7 0 0 0 6.81,8.63 h 37.49 a 7,7 0 0 0 4.46,-1.61 l 7.27,-6 a 7,7 0 0 0 2.33,-3.69 l 6,-23.89 a 6.82,6.82 0 0 0 0.27,-1.93 7,7 0 0 0 -7,-7 z m 0,14 z"
       fill="#ffffff"
       id="path37" />
    <path
       d="M 628,42.18 A 3.5,3.5 0 0 1 624.53,38 l 3.08,-14.45 a 3.48,3.48 0 0 1 1,-1.79 l 5.48,-5.27 a 3.48,3.48 0 0 1 2.43,-1 h 7 a 3.52,3.52 0 0 1 3.48,2.66 l 1.65,-1.66 a 3.5,3.5 0 0 1 2.48,-1 h 8.45 a 3.5,3.5 0 0 1 3.5,3.54 l 2.54,-2.52 a 3.45,3.45 0 0 1 2.47,-1 h 6.3 a 3.5,3.5 0 0 1 2.76,1.35 3.55,3.55 0 0 1 0.63,3 l -3.53,13.7 a 3.45,3.45 0 0 1 -1.33,2 l -8.26,6 a 3.54,3.54 0 0 1 -2.06,0.67 z"
       fill="#686868"
       id="path39" />
    <path
       d="m 674.36,19 v 0 m 0,0 -3.53,13.7 -8.26,6 H 628 l 3,-14.47 5.52,-5.23 h 7 l -4.14,15.88 6.08,-3.62 1.54,-8.26 4.1,-4 h 8.45 l -4.14,15.88 5.73,-3.88 1.63,-6.78 5.29,-5.22 h 6.3 m 0,-7 h -6.3 a 7,7 0 0 0 -4.25,1.43 7,7 0 0 0 -4.26,-1.43 h -8.45 a 7,7 0 0 0 -3.77,1.1 7,7 0 0 0 -3.77,-1.1 h -7 a 7,7 0 0 0 -4.85,1.95 l -5.49,5.26 a 7,7 0 0 0 -2,3.59 l -3.12,14.42 a 7,7 0 0 0 6.9,8.46 h 34.62 a 7,7 0 0 0 4.12,-1.34 l 8.26,-6 a 6.93,6.93 0 0 0 2.66,-3.91 l 3.47,-13.47 a 7.16,7.16 0 0 0 0.28,-2 7,7 0 0 0 -7,-7 z m 0,14 z"
       fill="#ffffff"
       id="path41" />
    <polygon
       points=""
       fill="#686868"
       id="polygon43" />
    <path
       d="m 580.66,38.68 v 0 m 0,0 v 0 m 0,-7 v 0 a 7,7 0 1 0 7,7 7,7 0 0 0 -7,-7 z"
       fill="#ffffff"
       id="path45" />
    <path
       d="m 580.66,42.18 a 3.5,3.5 0 0 1 -2.46,-6 l 6.08,-6 a 3.5,3.5 0 0 1 2.46,-1 h 11.94 a 8.66,8.66 0 0 1 -2.55,-6.38 c -0.07,-10.35 7.18,-15.36 11,-16.57 a 3.39,3.39 0 0 1 1.05,-0.16 h 25.45 a 3.5,3.5 0 0 1 2.47,6 l -5.07,5 a 3.48,3.48 0 0 1 -2.46,1 H 627 a 9.67,9.67 0 0 1 3.73,3.17 10,10 0 0 1 1.27,7.95 c -2.35,11.05 -10.84,12.85 -11.2,12.92 a 4,4 0 0 1 -0.68,0.07 z"
       fill="#686868"
       id="path47" />
    <path
       d="m 633.65,9.56 -5.06,5 h -13.35 c 0,0 -4.25,1.21 -4.34,4.76 0,1.14 0.94,1.31 1.51,1.31 a 2.61,2.61 0 0 0 0.41,0 h 10.88 c 0,0 6.3,1.05 4.85,7.84 -1.9,8.92 -8.46,10.22 -8.46,10.22 h -39.43 l 6.08,-6 h 26.08 a 2.53,2.53 0 0 0 0.58,0.06 3.22,3.22 0 0 0 2.94,-2.24 c 1.17,-2.65 -1.1,-2.65 -1.1,-2.65 h -12.11 a 4.9,4.9 0 0 1 -3.5,-5.07 C 599.56,12.29 608.2,9.58 608.2,9.58 h 25.45 m 0,-7 H 608.2 a 7.08,7.08 0 0 0 -2.1,0.32 20.44,20.44 0 0 0 -13.47,19.94 13,13 0 0 0 0.31,2.85 h -6.2 a 7,7 0 0 0 -4.92,2 l -6.08,6 a 7,7 0 0 0 4.92,12 h 39.43 a 7,7 0 0 0 1.36,-0.14 c 4.11,-0.81 11.69,-5 13.94,-15.63 a 13.38,13.38 0 0 0 -1.71,-10.51 l 4.9,-4.87 a 7,7 0 0 0 -4.93,-12 z m 0,14 z"
       fill="#ffffff"
       id="path49" />
    <path
       d="m 560,42.18 a 3.51,3.51 0 0 1 -3.45,-4.12 c 2.6,-14.58 2.77,-14.73 3.89,-15.7 v 0 c 1.16,-1 4.6,-3.17 10.27,-6.41 a 3.51,3.51 0 0 1 1.74,-0.46 h 18.17 a 3.53,3.53 0 0 1 1.53,0.35 l 2.4,1.16 0.18,0.09 c 1.91,1.07 4.19,2.89 4.19,5.48 0,2 -1.2,3.69 -2.16,5 l -0.4,0.56 c -1.35,1.86 -4.21,3.11 -5.8,3.7 a 3.38,3.38 0 0 1 -1.22,0.22 H 583 a 5.12,5.12 0 0 1 -3.56,-1.84 4.37,4.37 0 0 1 -0.83,-3.47 v 0 a 13.89,13.89 0 0 0 -1.22,0.83 l -3.17,12 a 3.49,3.49 0 0 1 -3.38,2.61 z"
       fill="#686868"
       id="path51" />
    <path
       d="m 590.58,19 2.42,1.18 c 0,0 2.4,1.34 2.4,2.42 0,1.08 -1.08,2.36 -1.94,3.59 -0.86,1.23 -4.14,2.42 -4.14,2.42 h -6.08 c 0,0 -1.41,-0.11 -1.21,-1.21 0.2,-1.1 1.63,-2.51 0.9,-3.46 a 4.39,4.39 0 0 0 -2.11,-1.36 l -3.62,0.68 h 0.14 0.11 c 0.53,0 -3,1.56 -3.33,2.94 l -3.3,12.51 H 560 c 0,0 2.38,-13.37 2.73,-13.68 1,-1 9.72,-6 9.72,-6 h 18.17 m 0,-7 h -18.21 a 7,7 0 0 0 -3.48,0.92 c -8.61,4.93 -10.34,6.32 -11,7 -1.87,1.7 -2.14,3.1 -3.59,10.75 -0.63,3.38 -1.24,6.77 -1.24,6.8 a 7,7 0 0 0 6.9,8.18 h 10.88 a 7,7 0 0 0 6.77,-5.21 l 1.56,-5.93 a 9.19,9.19 0 0 0 3.54,1.05 h 0.55 6.08 a 7,7 0 0 0 2.44,-0.44 c 2.39,-0.88 5.61,-2.45 7.36,-4.86 l 0.09,-0.12 0.37,-0.52 c 1.12,-1.55 2.82,-3.91 2.82,-7.07 0,-4.51 -3.75,-7.28 -6,-8.53 l -0.36,-0.19 -2.44,-1.19 a 7.07,7.07 0 0 0 -3.06,-0.7 z"
       fill="#ffffff"
       id="path53" />
    <path
       d="m 433.8,42.18 a 3.54,3.54 0 0 1 -1.5,-0.34 c -2.06,-1 -4.72,-2.59 -5.67,-4.66 -1.38,-3.24 2.23,-13.12 3.51,-14.6 0.35,-0.4 1.1,-1.24 8.42,-6.41 v 0 a 3.53,3.53 0 0 1 2.11,-0.71 h 20.71 a 3.5,3.5 0 0 1 2.94,1.61 c 2.54,3.95 2.54,5.22 2.54,5.83 0,1.19 -2.38,10.44 -3.75,12.1 l -0.07,0.08 c -0.34,0.39 -1,1.11 -9.67,6.56 a 3.5,3.5 0 0 1 -1.86,0.54 z M 445.68,27.7 a 25.4,25.4 0 0 0 -0.62,3.32 9.89,9.89 0 0 0 2.2,-1.82 12.53,12.53 0 0 0 0.75,-2.79 h -0.46 a 15.45,15.45 0 0 0 -1.87,1.29 z"
       fill="#686868"
       id="path55" />
    <path
       d="m 461.38,19 c 0,0 2,3.09 2,3.94 0,0.85 -2.38,9.06 -2.97,9.83 -0.59,0.77 -8.9,5.91 -8.9,5.91 H 433.8 c 0,0 -3.37,-1.61 -4,-3 -0.63,-1.39 2.13,-9.89 3,-10.86 0.87,-0.97 7.88,-5.9 7.88,-5.91 h 20.71 m -18.47,16 c 1.16,0 2.69,-0.15 2.69,-0.15 a 16,16 0 0 0 4.45,-3.46 c 1.36,-1.85 2,-8.39 2,-8.39 h -5.46 c 0,0 -3.33,1.85 -3.94,2.95 -0.61,1.1 -1.1,4.95 -1.1,4.95 0,0 -0.38,3.55 0.13,3.95 a 3,3 0 0 0 1.23,0.15 M 461.38,12 h -20.71 a 7,7 0 0 0 -4.11,1.34 v 0 c -7.64,5.4 -8.45,6.31 -9,6.9 l -0.07,0.08 c -0.51,0.59 -1.7,2 -3.44,7.87 -1.53,5.2 -1.71,7.9 -0.67,10.32 0,0.06 0.05,0.11 0.07,0.16 1.11,2.43 3.58,4.56 7.34,6.36 a 7.12,7.12 0 0 0 3,0.68 h 17.71 a 7,7 0 0 0 3.72,-1.07 c 9.12,-5.72 9.79,-6.48 10.44,-7.22 l 0.14,-0.16 c 0.81,-1 1.46,-2 3,-7.39 1.54,-5.39 1.53,-6.21 1.53,-6.94 0,-1.41 -0.24,-3.28 -3.1,-7.72 A 7,7 0 0 0 461.38,12 Z"
       fill="#ffffff"
       id="path57" />
    <path
       d="m 499.83,42.18 a 3.45,3.45 0 0 1 -1.51,-0.35 c -2.05,-1 -4.69,-2.58 -5.63,-4.65 -1.48,-3.32 2.39,-13.34 3.48,-14.6 0.67,-0.74 2.12,-1.91 7.78,-5.95 l 0.61,-0.44 a 3.5,3.5 0 0 1 2.14,-0.73 h 10.06 l 4.36,-5.36 a 3.54,3.54 0 0 1 2.72,-1.29 h 10.7 a 3.5,3.5 0 0 1 2.75,5.67 c -2.19,2.77 -4.78,6.22 -5.48,7.39 -0.35,2.29 -1.52,7.49 -2.12,9.8 -1,3.82 -1.78,7.68 -1.79,7.72 a 3.49,3.49 0 0 1 -3.42,2.79 z M 511.7,27.71 a 24.41,24.41 0 0 0 -0.64,3.33 9.2,9.2 0 0 0 2.17,-1.8 11.42,11.42 0 0 0 0.79,-2.83 h -0.44 a 15.11,15.11 0 0 0 -1.88,1.3 z"
       fill="#686868"
       id="path59" />
    <path
       d="m 534.54,12.31 v 0 m 0,0 c 0,0 -6.12,7.73 -6.12,8.61 0,0.42 -1.15,6.15 -2.11,9.87 -1,4 -1.83,7.89 -1.83,7.89 h -24.65 c 0,0 -3.35,-1.61 -4,-3 -0.65,-1.39 2.11,-9.89 2.95,-10.86 0.84,-0.97 7.95,-5.82 7.92,-5.82 h 11.72 l 5.42,-6.65 h 10.7 m -25.6,22.6 c 1.17,0 2.7,-0.15 2.7,-0.15 a 15.36,15.36 0 0 0 4.42,-3.46 c 1.39,-1.85 2,-8.39 2,-8.39 h -5.42 c 0,0 -3.33,1.85 -3.94,2.95 -0.61,1.1 -1.13,4.95 -1.13,4.95 0,0 -0.33,3.55 0.13,3.95 a 3.19,3.19 0 0 0 1.25,0.15 m 25.61,-29.6 h -10.72 a 7,7 0 0 0 -5.43,2.58 L 515.1,12 h -8.4 a 7,7 0 0 0 -4.23,1.42 l -0.55,0.4 c -6.05,4.32 -7.44,5.46 -8.28,6.37 l -0.12,0.14 c -0.51,0.59 -1.71,2 -3.44,7.88 -1.52,5.17 -1.68,8 -0.61,10.4 v 0.07 c 1.11,2.42 3.57,4.56 7.3,6.35 a 7.07,7.07 0 0 0 3,0.69 h 24.65 a 7,7 0 0 0 6.85,-5.58 c 0,0 0.8,-3.82 1.76,-7.58 0.17,-0.65 1.47,-6 2,-9.35 0.91,-1.36 3,-4.15 4.81,-6.41 a 7,7 0 0 0 -5.4,-11.45 z m 0,14 z"
       fill="#ffffff"
       id="path61" />
    <path
       d="m 481.82,42.18 a 3.51,3.51 0 0 1 -3.45,-4.13 c 0.05,-0.26 1.18,-6.43 2.29,-11 a 5.81,5.81 0 0 0 0.12,-0.61 h -2 l -2.67,9.29 a 3.61,3.61 0 0 1 -0.71,1.32 c -2.32,2.7 -4.17,4.35 -5.5,4.89 a 3.45,3.45 0 0 1 -1.34,0.27 h -7.88 a 3.51,3.51 0 0 1 -3.37,-4.46 L 462.94,18 a 3.5,3.5 0 0 1 3.37,-2.54 h 24 c 0.82,0.09 5,0.67 6.82,3.78 1.64,2.61 1.31,6.29 1.23,7 a 3.58,3.58 0 0 1 -0.09,0.45 l -3.21,12.82 a 3.5,3.5 0 0 1 -3.4,2.65 z"
       fill="#686868"
       id="path63" />
    <path
       d="m 490,19 c 0,0 3.12,0.32 4.18,2.09 1.06,1.77 0.75,4.8 0.75,4.8 l -3.22,12.82 h -9.86 c 0,0 1.14,-6.28 2.24,-10.84 1.1,-4.56 -2,-4.93 -2,-4.93 h -5.9 l -3.39,11.82 c 0,0 -3,3.44 -4.19,4 h -7.88 L 466.31,19 H 490 m 0,-7 h -23.69 a 7,7 0 0 0 -6.73,5.08 L 454,36.77 a 7,7 0 0 0 6.74,8.91 h 7.88 a 7,7 0 0 0 2.67,-0.53 12.6,12.6 0 0 0 4.34,-3.15 7.43,7.43 0 0 0 0.81,1.2 7,7 0 0 0 5.38,2.52 h 9.86 a 7,7 0 0 0 6.79,-5.3 l 3.22,-12.82 a 6.63,6.63 0 0 0 0.16,-0.89 c 0.15,-1.28 0.46,-5.71 -1.73,-9.27 -2.66,-4.36 -7.88,-5.23 -9.42,-5.4 -0.24,0 -0.49,0 -0.73,0 z"
       fill="#ffffff"
       id="path65" />
    <path
       d="m 724.22,42.18 a 3.5,3.5 0 0 1 -3.31,-4.63 c 0,0 1.77,-5.21 2.86,-9.59 a 4,4 0 0 0 0.14,-1.55 h -1.62 l -2.59,9.27 a 3.43,3.43 0 0 1 -0.63,1.23 c -2.18,2.75 -4,4.43 -5.33,5 a 3.69,3.69 0 0 1 -1.35,0.27 h -8.92 a 3.51,3.51 0 0 1 -3.33,-4.57 l 6.27,-19.71 a 3.51,3.51 0 0 1 3.34,-2.43 h 24 c 0.81,0.09 4.9,0.67 6.81,3.72 1.67,2.67 1.34,6.35 1.26,7.06 a 4,4 0 0 1 -0.09,0.48 l -3.33,12.82 a 3.5,3.5 0 0 1 -3.4,2.63 z"
       fill="#686868"
       id="path67" />
    <path
       d="m 733.4,19 c 0,0 3.11,0.32 4.21,2.09 1.1,1.77 0.75,4.8 0.75,4.8 L 735,38.68 h -10.78 c 0,0 1.8,-5.29 2.95,-9.87 1.15,-4.58 -1.61,-5.9 -1.61,-5.9 h -5.92 l -3.31,11.82 c 0,0 -2.73,3.44 -3.94,4 h -8.92 L 709.75,19 h 23.65 m 0,-7 h -23.65 a 7,7 0 0 0 -6.67,4.87 l -6.28,19.68 a 7,7 0 0 0 6.67,9.13 h 8.92 a 6.93,6.93 0 0 0 2.7,-0.55 10.39,10.39 0 0 0 3.44,-2.38 7,7 0 0 0 5.69,2.93 H 735 a 7,7 0 0 0 6.78,-5.24 l 3.33,-12.82 a 6.1,6.1 0 0 0 0.17,-0.95 c 0.15,-1.29 0.47,-5.75 -1.76,-9.32 -2.7,-4.32 -7.88,-5.18 -9.41,-5.35 -0.24,0 -0.49,0 -0.74,0 z"
       fill="#ffffff"
       id="path69" />
    <path
       d="m 703.47,42.18 a 3.51,3.51 0 0 1 -2.1,-0.7 v 0 a 3.5,3.5 0 0 1 2.1,-6.3 3.44,3.44 0 0 1 2.1,0.7 3.5,3.5 0 0 1 -2.1,6.3 z"
       fill="#686868"
       id="path71" />
    <path
       d="m 703.47,38.68 v 0 m 0,0 v 0 m 0,-7 v 0 a 7,7 0 0 0 0,14 6.26,6.26 0 0 0 1.31,-0.13 7,7 0 0 0 -1.3,-13.87 z m 0,14 z"
       fill="#ffffff"
       id="path73" />
    <path
       d="m 532.34,42.18 a 3.45,3.45 0 0 1 -1.51,-0.35 c -2.06,-1 -4.71,-2.6 -5.63,-4.69 -1.4,-3.27 2.24,-13.14 3.53,-14.6 0.62,-0.69 1.95,-1.77 7.53,-5.76 l 0.78,-0.56 a 3.51,3.51 0 0 1 2.17,-0.76 h 20.7 a 3.52,3.52 0 0 1 2.26,0.83 9.36,9.36 0 0 1 3.23,6.62 c 0,3.9 -1.48,5.1 -5,8 l -0.21,0.17 q -0.76,0.63 -1.47,1.14 a 3.52,3.52 0 0 1 -0.53,5.41 c -2.63,1.75 -6.08,3.9 -6.22,4 a 3.5,3.5 0 0 1 -1.86,0.54 z"
       fill="#686868"
       id="path75" />
    <path
       d="m 559.91,19 a 5.87,5.87 0 0 1 2,3.95 c 0,2.29 -0.44,2.6 -4,5.48 -3.56,2.88 -5.81,3.39 -5.81,3.39 H 540 c 0,1.08 -0.2,2.91 0.22,2.95 0.42,0.04 2.18,0.05 4.55,0.05 4.74,0 11.44,-0.05 11.44,-0.05 -2.63,1.74 -6.15,4 -6.15,4 h -17.72 c 0,0 -3.35,-1.61 -3.94,-3 -0.59,-1.39 2.09,-9.89 3,-10.86 0.91,-0.97 7.91,-5.9 7.86,-5.91 h 20.7 m -18.63,8.88 h 6.63 c 4.34,-1.91 5.22,-4.93 5.22,-4.93 h -8 a 5.12,5.12 0 0 0 -2.09,1.1 c -0.88,0.75 -2.45,2.11 -1.81,3.83 M 559.91,12 h -20.7 a 7,7 0 0 0 -4.28,1.47 l -0.71,0.51 c -6,4.26 -7.27,5.34 -8.11,6.28 -0.57,0.65 -1.77,2 -3.5,8 -1.73,6 -1.51,8.28 -0.64,10.31 v 0.06 c 1.09,2.46 3.55,4.63 7.32,6.44 a 7.07,7.07 0 0 0 3,0.69 h 17.73 a 7,7 0 0 0 3.71,-1.07 c 0.15,-0.09 3.64,-2.27 6.31,-4 a 7,7 0 0 0 3,-7.33 c 3.41,-2.8 5.84,-5 5.84,-10.33 a 12.78,12.78 0 0 0 -4.47,-9.29 7,7 0 0 0 -4.5,-1.74 z"
       fill="#ffffff"
       id="path77" />
    <path
       d="m 690.66,42.18 a 3.66,3.66 0 0 1 -0.57,0 3.5,3.5 0 0 1 -2.94,-3.45 v 0 a 3.5,3.5 0 0 1 3.5,-3.5 3.45,3.45 0 0 1 1.54,0.36 3.5,3.5 0 0 1 -1.53,6.65 z"
       fill="#686868"
       id="path79" />
    <path
       d="m 690.65,38.67 v 0 m 0,0 v 0 m 0,-7 a 6.72,6.72 0 0 0 -1.35,0.14 6.92,6.92 0 0 0 -4.78,3.5 6.83,6.83 0 0 0 -0.76,2.14 7,7 0 1 0 7.67,-5.73 6.81,6.81 0 0 0 -0.78,0 z m 0,14 z"
       fill="#ffffff"
       id="path81" />
    <path
       d="m 678.78,42.18 c -4.51,0 -9.36,-3.26 -9.36,-10.4 0,-11.09 13,-15.91 13.52,-16.11 a 3.47,3.47 0 0 1 1.19,-0.21 h 23.68 a 3.51,3.51 0 0 1 3.33,4.54 l -6.3,19.71 a 3.49,3.49 0 0 1 -3.33,2.43 h -10.86 -0.48 a 3.91,3.91 0 0 1 -0.49,0 z m 12,-15.46 c -0.66,0.43 -1.53,1.45 -3,3.89 a 2.18,2.18 0 0 0 -0.4,1 3.19,3.19 0 0 0 1.52,1.08 z"
       fill="#686868"
       id="path83" />
    <path
       d="m 707.81,19 v 0 m 0,0 -6.3,19.71 h -10.86 c 0,-0.06 3.35,-10.6 4.41,-14 0.49,-1.72 -0.55,-1.78 -2.59,-1.78 H 692 c -2.34,0 -4,0.5 -7.27,5.9 -3.79,6.3 5.59,8 5.59,8 l -0.66,1.84 h -10.9 c -0.66,0 -5.86,-0.22 -5.86,-6.9 C 672.92,23 684.13,19 684.13,19 h 23.68 m 0,-7 h -23.68 a 6.9,6.9 0 0 0 -2.38,0.42 c -5.88,2.13 -15.83,8.61 -15.83,19.4 0,9.12 6.47,13.9 12.86,13.9 h 22.73 a 7,7 0 0 0 6.67,-4.87 l 6.22,-19.48 a 6.85,6.85 0 0 0 0.41,-2.36 7,7 0 0 0 -7,-7 z m 0,14 z"
       fill="#ffffff"
       id="path85" />
    <path
       d="m 340,32.26 c 0.77,0 1.54,-0.08 2.33,-0.08 17.08,0 31.72,16.54 32.81,25 0.12,0.88 0.2,1.67 0.26,2.34 C 375.15,36.53 339.33,7 310.57,7 c -22.22,0 -32.58,9 -36,19.1 -5.1,12.75 1.63,30.9 17.36,43.9 1.64,1.35 3.33,2.6 5,3.75 -0.76,0 -1.54,0.08 -2.32,0.08 -17.09,0 -31.72,-16.54 -32.82,-25 -0.11,-0.88 -0.2,-1.67 -0.25,-2.35 0.23,23 36.05,52.5 64.8,52.5 22.23,0 32.59,-9 36,-19.11 C 367.48,67.11 360.76,48.94 345,36 a 62.74,62.74 0 0 0 -5,-3.74 z M 308,70.41 C 295.29,60 291,44.72 298.2,36.06 c 7.2,-8.66 23.33,-7.66 36.29,2.43 12.96,10.09 17.82,25.24 11.21,34.33 2.74,-5.47 -0.28,-13.67 -7.32,-19.21 -7.64,-6 -17.14,-6.59 -21.37,-1.44 -4.23,5.15 -1.71,14.23 5.74,20.42 5.74,4.76 12.76,6.45 17.75,4.7 -8.5,4.49 -21.84,1.93 -32.5,-6.88 z"
       fill="#ff0000"
       id="path87" />
    <path
       d="m 570.1,53.3 c -2.82,-0.83 -6,3.16 -8.72,9.24 -2.42,10.13 -7.79,25.08 -8.14,35.39 -0.15,4.57 4.07,5.91 6.94,6.93 9.09,3.2 14.4,0.07 17.1,-3.21 2,-2.35 -0.11,-4.3 -2.52,-3.59 -3.49,1 -7.75,1.74 -8.63,-1.63 -1,-3.72 4.2,-19 7.77,-30.34 1.95,-6.2 3.6,-11.35 -3.8,-12.79 z"
       fill="#f0373f"
       id="path89" />
    <path
       d="m 523,71.28 c -6.15,0.64 -18.37,3.89 -18.37,19.7 0,0.74 -2.23,17.84 19.83,15.86 22.06,-1.98 25.81,-15.84 25.81,-15.84 0,0 5.45,-18.35 -7.94,-17.85 -8.17,0.3 -11.89,4 -11.89,4 0,0 5.45,1.07 6.62,5 2.24,7.42 1.42,19.94 -10.59,18.81 -12.01,-1.13 -6.16,-17 -2.37,-25.12 1.31,-2.84 0.99,-4.77 -1.1,-4.56 z"
       fill="#f5a023"
       id="path91" />
    <path
       d="M 596.39,71.28 C 590.24,71.92 578,75.17 578,91 c 0,0.74 -2.23,17.84 19.82,15.86 22.05,-1.98 25.81,-15.86 25.81,-15.86 0,0 5.46,-18.35 -7.93,-17.85 -8.17,0.3 -11.9,4 -11.9,4 0,0 5.45,1.07 6.63,5 2.24,7.42 1.41,19.94 -10.59,18.81 -12,-1.13 -6.17,-17 -2.37,-25.12 1.31,-2.84 0.99,-4.77 -1.08,-4.56 z"
       fill="#7487bf"
       id="path93" />
    <path
       d="m 451.12,83.05 c -1,-19.59 26.06,-28.37 35.69,-29.12 a 82,82 0 0 1 19.83,1.35 c 0,0 -1.48,19.34 -5.95,19.83 C 496.22,75.6 497.23,60.49 488.8,61.23 473.36,62.59 467.17,79.42 467,85 c -0.09,2.71 0.74,14.87 11.89,13.88 11.15,-0.99 13.64,-7 15.87,-7.93 2.23,-0.93 6.5,-3 5.94,2 -1.23,10.9 -21.81,13.88 -21.81,13.88 0,0 -26.48,1.47 -27.77,-23.78 z"
       fill="#019ee3"
       id="path95" />
    <path
       d="m 633.55,104.86 c -9.42,0.49 -4.22,-10.91 -2,-17.85 2.22,-6.94 1.83,-14.55 9.92,-13.88 8.94,0.74 2,11.9 2,11.9 0,0 13.59,-14.9 25.78,-13.88 3,0.24 -6,19.83 -6,19.83 0,0 -2.23,-7.19 -7.93,-6 C 639,88.59 643,104.36 633.55,104.86 Z"
       fill="#da72a3"
       id="path97" />
    <polygon
       points="394.64,33.85 400.68,30.24 405.52,12.18 409.16,8.55 417.66,8.55 411.6,33.85 417.66,29.05 421.27,13.37 426.14,8.55 433.43,8.55 427.37,32.66 420.1,38.68 382.53,38.68 388.56,13.37 394.64,8.55 400.68,8.55 "
       fill="#686868"
       id="polygon99" />
    <polygon
       points="639.42,34.84 645.5,31.23 647.04,23.02 651.1,18.96 659.55,18.96 655.41,34.84 661.14,31.01 662.77,24.23 668.06,18.96 674.36,18.96 670.83,32.66 662.57,38.68 627.95,38.68 631.03,24.23 636.52,18.96 643.56,18.96 "
       fill="#686868"
       id="polygon101" />
    <path
       d="m 580.66,38.68 6.08,-6 h 26.08 c 0,0 2.24,0.66 3.52,-2.19 1.17,-2.64 -1.1,-2.64 -1.1,-2.64 h -12.11 a 4.9,4.9 0 0 1 -3.5,-5.07 C 599.56,12.28 608.2,9.57 608.2,9.57 h 25.45 l -5.06,5 h -13.35 c 0,0 -4.25,1.21 -4.34,4.76 -0.06,1.61 1.92,1.28 1.92,1.28 h 10.88 c 0,0 6.3,1.05 4.85,7.84 -1.9,8.92 -8.46,10.22 -8.46,10.22 z"
       fill="#686868"
       id="path103" />
    <path
       d="m 560,38.68 h 10.88 l 3.3,-12.51 c 0.4,-1.46 4.23,-3.11 3.22,-2.93 -1.01,0.18 3.48,-0.66 3.48,-0.66 a 4.39,4.39 0 0 1 2.12,1.36 c 0.73,0.95 -0.7,2.36 -0.9,3.46 -0.2,1.1 1.21,1.21 1.21,1.21 h 6.08 c 0,0 3.26,-1.21 4.14,-2.42 0.88,-1.21 1.94,-2.51 1.94,-3.59 0,-1.08 -2.4,-2.42 -2.4,-2.42 L 590.58,19 h -18.17 c 0,0 -8.7,5 -9.72,6 -0.35,0.31 -2.69,13.68 -2.69,13.68 z"
       fill="#686868"
       id="path105" />
    <path
       d="m 432.79,24.87 c -0.84,1 -3.57,9.47 -3,10.86 0.57,1.39 4,3 4,3 h 17.71 c 0,0 8.26,-5.18 8.9,-5.91 0.64,-0.73 2.95,-9 2.95,-9.87 0,-0.87 -2,-3.94 -2,-3.94 h -20.68 c 0,0 -7.02,4.89 -7.88,5.86 z m 13.81,-2 h 5.4 c 0,0 -0.62,6.54 -2,8.39 a 16,16 0 0 1 -4.45,3.46 c 0,0 -3.44,0.35 -3.92,0 -0.48,-0.35 -0.13,-3.95 -0.13,-3.95 0,0 0.46,-3.83 1.1,-4.95 0.64,-1.12 4,-2.91 4,-2.91 z"
       fill="#686868"
       id="path107" />
    <path
       d="m 498.82,24.87 c -0.84,1 -3.57,9.47 -2.95,10.86 0.62,1.39 4,3 4,3 h 24.65 c 0,0 0.81,-3.92 1.83,-7.89 1,-3.72 2.11,-9.45 2.11,-9.87 0,-0.88 6.12,-8.61 6.12,-8.61 h -10.7 L 518.42,19 H 506.7 c 0,0 -7,4.9 -7.88,5.87 z m 13.81,-2 h 5.42 c 0,0 -0.6,6.54 -2,8.39 a 15.36,15.36 0 0 1 -4.42,3.46 c 0,0 -3.44,0.35 -3.95,0 -0.51,-0.35 -0.13,-3.95 -0.13,-3.95 0,0 0.46,-3.83 1.13,-4.95 0.67,-1.12 3.95,-2.91 3.95,-2.91 z"
       fill="#686868"
       id="path109" />
    <path
       d="M 460.72,38.68 466.31,19 H 490 c 0,0 3.12,0.32 4.18,2.09 1.06,1.77 0.75,4.8 0.75,4.8 l -3.22,12.82 h -9.86 c 0,0 1.14,-6.28 2.24,-10.84 1.1,-4.56 -2,-4.93 -2,-4.93 h -5.9 l -3.39,11.82 c 0,0 -3,3.44 -4.19,4 z"
       fill="#686868"
       id="path111" />
    <path
       d="M 703.47,38.68 709.75,19 h 23.65 c 0,0 3.11,0.32 4.21,2.09 1.1,1.77 0.75,4.8 0.75,4.8 L 735,38.68 h -10.78 c 0,0 1.8,-5.29 2.95,-9.87 1.15,-4.58 -1.61,-5.9 -1.61,-5.9 h -5.92 l -3.31,11.82 c 0,0 -2.73,3.44 -3.94,4 z"
       fill="#686868"
       id="path113" />
    <path
       d="m 531.35,24.87 c -0.86,1 -3.55,9.47 -3,10.86 0.55,1.39 3.94,3 3.94,3 h 17.73 c 0,0 3.52,-2.21 6.15,-4 0,0 -15.07,0.11 -16,0 -0.42,0 -0.27,-1.87 -0.22,-2.95 h 12.11 c 0,0 2.33,-0.5 5.81,-3.39 3.48,-2.89 4,-3.19 4,-5.48 a 5.87,5.87 0 0 0 -2,-3.95 h -20.7 c 0,0 -6.96,4.94 -7.82,5.91 z m 13.83,-2 h 8 c 0,0 -0.88,3 -5.22,4.93 h -6.63 c -0.64,-1.72 0.93,-3.08 1.81,-3.83 a 5.12,5.12 0 0 1 2.04,-1.06 z"
       fill="#686868"
       id="path115" />
    <path
       d="m 690.65,38.68 c 0,0 3.35,-10.6 4.41,-14 0.53,-1.85 -0.71,-1.78 -3,-1.78 -2.29,0 -4,0.5 -7.27,5.9 -3.79,6.3 5.59,8 5.59,8 l -0.66,1.84 h -10.87 c 0,0 -5.93,0.25 -5.93,-6.89 C 672.92,23 684.13,19 684.13,19 h 23.68 l -6.3,19.71 h -10.86 z"
       fill="#686868"
       id="path117" />
  </g>
</svg>
