<?xml version="1.0" encoding="UTF-8" standalone="no"?>
<svg
   viewBox="0 0 330.12799 114.02"
   version="1.1"
   id="svg50"
   sodipodi:docname="x1.svg"
   width="330.12799"
   height="114.02"
   inkscape:version="1.1 (c68e22c387, 2021-05-23)"
   xmlns:inkscape="http://www.inkscape.org/namespaces/inkscape"
   xmlns:sodipodi="http://sodipodi.sourceforge.net/DTD/sodipodi-0.dtd"
   xmlns="http://www.w3.org/2000/svg"
   xmlns:svg="http://www.w3.org/2000/svg"
   xmlns:rdf="http://www.w3.org/1999/02/22-rdf-syntax-ns#"
   xmlns:cc="http://creativecommons.org/ns#"
   xmlns:dc="http://purl.org/dc/elements/1.1/">
  <defs
     id="defs54" />
  <sodipodi:namedview
     id="namedview52"
     pagecolor="#ffffff"
     bordercolor="#666666"
     borderopacity="1.0"
     inkscape:pageshadow="2"
     inkscape:pageopacity="0.0"
     inkscape:pagecheckerboard="0"
     showgrid="false"
     fit-margin-top="0"
     fit-margin-left="0"
     fit-margin-right="0"
     fit-margin-bottom="0"
     inkscape:zoom="1.113"
     inkscape:cx="164.86972"
     inkscape:cy="56.603774"
     inkscape:window-width="1920"
     inkscape:window-height="1138"
     inkscape:window-x="-8"
     inkscape:window-y="-8"
     inkscape:window-maximized="1"
     inkscape:current-layer="svg50" />
  <title
     id="title2">logo</title>
  <g
     id="g897"
     transform="translate(-334.89898,0.02000007)">
    <g
       id="Layer_2"
       data-name="Layer 2">
      <polygon
         points="426.55,85.38 426.55,100.58 495.95,100.58 495.95,81.59 483.22,81.59 483.22,33.98 500.88,33.98 500.88,13.42 389.88,13.42 389.88,33.98 399.22,33.98 399.22,81.59 367.84,81.59 367.84,99.64 402.22,99.64 402.22,85.38 "
         fill="#ffffff"
         id="polygon4" />
      <polygon
         points="540.88,96.64 603.88,96.64 603.88,83.43 610.55,83.43 610.55,64.64 627.55,64.64 627.55,45.83 635.72,45.83 635.72,15.31 565.55,15.31 565.55,45.83 558.72,45.83 558.72,64.64 551.26,64.64 551.26,81.59 540.88,81.59 "
         fill="#ffffff"
         id="polygon6" />
    </g>
    <g
       id="Layer_1"
       data-name="Layer 1">
      <text
         transform="translate(551.26,104.74)"
         font-size="5.27px"
         fill="#ff0000"
         stroke="#ffffff"
         stroke-linecap="round"
         stroke-linejoin="round"
         stroke-width="7"
         font-family="ArialMT, Arial"
         style="isolation:isolate"
         id="text19">B<tspan
   x="3.52"
   y="0"
   letter-spacing="-0.07em"
   id="tspan9">A</tspan><tspan
   x="6.6399999"
   y="0"
   letter-spacing="-0.02em"
   id="tspan11">T</tspan><tspan
   x="9.7700005"
   y="0"
   letter-spacing="0em"
   id="tspan13">OCER</tspan><tspan
   x="25.01"
   y="0"
   letter-spacing="-0.06em"
   id="tspan15">A</tspan><tspan
   x="28.24"
   y="0"
   xml:space="preserve"
   id="tspan17"> SUCKS!</tspan></text>
      <path
         d="m 341.94,110.5 a 3.5,3.5 0 0 1 -2.45,-6 l 48,-47.13 a 3.48,3.48 0 0 1 2.45,-1 3.44,3.44 0 0 1 0.46,0 3.53,3.53 0 0 1 2.6,1.71 l 27.92,47.14 a 3.5,3.5 0 0 1 -3,5.28 z m 58.55,-13.42 -12.6,-21.27 -21.68,21.27 z"
         id="path21" />
      <path
         d="M 390,59.87 417.89,107 h -75.95 l 48,-47.13 m -32.32,40.71 h 49 l -18,-30.4 -31,30.4 M 390,52.87 a 7,7 0 0 0 -4.9,2 L 337,102 a 7,7 0 0 0 4.9,12 h 75.95 a 7,7 0 0 0 6,-10.57 L 396,56.3 a 7,7 0 0 0 -5.12,-3.37 6.84,6.84 0 0 0 -0.91,-0.06 z m -15.22,40.71 12.37,-12.15 7.2,12.15 z"
         fill="#ffffff"
         id="path23" />
      <path
         d="m 486.37,55.55 a 3.59,3.59 0 0 1 -0.47,0 3.52,3.52 0 0 1 -2.59,-1.76 l -25.26,-45 A 3.5,3.5 0 0 1 461.1,3.5 h 69.7 a 3.5,3.5 0 0 1 2.49,6 l -44.43,45 a 3.48,3.48 0 0 1 -2.49,1.05 z m 2.19,-19.86 18.52,-18.77 H 478 Z"
         id="path25" />
      <path
         d="m 530.8,7 v 0 m 0,0 L 486.37,52.05 461.1,7 h 69.7 m -43,34.46 27.66,-28 h -43.4 l 15.73,28 M 530.81,0 H 461.1 A 7,7 0 0 0 455,10.42 l 25.26,45.05 a 7,7 0 0 0 5.17,3.53 6,6 0 0 0 0.94,0.07 7,7 0 0 0 5,-2.09 l 44.36,-45 a 7,7 0 0 0 -4.9,-12 z m 0,14 z M 484,20.42 h 14.7 l -9.37,9.5 z"
         fill="#ffffff"
         id="path27" />
      <path
         d="m 429.67,110.5 a 3.49,3.49 0 0 1 -3,-1.74 l -58,-100 a 3.5,3.5 0 0 1 3,-5.26 h 77.06 a 3.5,3.5 0 0 1 3,1.75 l 52.82,91.83 h 21.33 l 35.66,-63.37 h -21 A 3.5,3.5 0 0 1 538,27.79 L 560.21,4.58 a 3.51,3.51 0 0 1 2.53,-1.08 h 95.32 a 3.5,3.5 0 0 1 3,5.25 l -57.52,100 a 3.5,3.5 0 0 1 -3,1.75 z M 594.8,97.08 640.91,16.92 H 567 l -3.22,3.37 h 14.73 a 3.5,3.5 0 0 1 3,5.22 l -40.24,71.57 z m -105.74,0 L 443,16.92 h -54.1 l 46.53,80.16 z"
         id="path29" />
      <path
         d="m 658.06,7 v 0 m 0,0 -57.52,100 H 429.67 l -58,-100 h 77.06 l 53.82,93.58 h 25.41 l 39.59,-70.37 h -27 L 562.74,7 h 95.32 M 555.57,23.79 h 22.92 l -43.21,76.79 h 61.55 L 647,13.42 h -81.51 l -9.92,10.37 m -122.2,76.79 h 61.74 L 445,13.42 h -62.2 l 50.6,87.16 v 0 M 658.06,0 h -95.32 a 7,7 0 0 0 -5.06,2.16 L 535.5,25.37 a 7,7 0 0 0 5.06,11.84 h 15 L 523.82,93.58 H 506.56 L 454.75,3.51 A 7,7 0 0 0 448.69,0 h -77.06 a 7,7 0 0 0 -6.06,10.51 l 58.05,100 a 7,7 0 0 0 6.05,3.49 h 170.87 a 7,7 0 0 0 6.07,-3.51 L 664,10.65 A 7,7 0 0 0 658,0 Z m 0,14 z m -73.43,6.42 h 50.23 l -42.08,73.16 h -45.53 l 37.34,-66.36 a 7,7 0 0 0 0,-6.8 z m -189.7,0 h 46 L 483,93.58 h -45.6 z m 183.56,10.37 z"
         fill="#ffffff"
         id="path31" />
      <text
         transform="translate(551.26,104.74)"
         font-size="5.27px"
         fill="#ff0000"
         font-family="ArialMT, Arial"
         style="isolation:isolate"
         id="text43">B<tspan
   x="3.52"
   y="0"
   letter-spacing="-0.07em"
   id="tspan33">A</tspan><tspan
   x="6.6399999"
   y="0"
   letter-spacing="-0.02em"
   id="tspan35">T</tspan><tspan
   x="9.7700005"
   y="0"
   letter-spacing="0em"
   id="tspan37">OCER</tspan><tspan
   x="25.01"
   y="0"
   letter-spacing="-0.06em"
   id="tspan39">A</tspan><tspan
   x="28.24"
   y="0"
   xml:space="preserve"
   id="tspan41"> SUCKS!</tspan></text>
      <path
         d="M 486.37,52.05 461.1,7 h 69.7 z m -14.31,-38.63 15.73,28 27.66,-28 z M 417.89,107 h -75.95 l 48,-47.13 z m -60.24,-6.42 h 49 l -18,-30.4 z"
         id="path45" />
      <path
         d="m 562.74,7 -22.18,23.21 h 27 l -39.59,70.37 H 502.51 L 448.69,7 h -77.06 l 58,100 H 600.54 L 658.06,7 Z M 433.37,100.58 382.77,13.42 H 445 l 50.14,87.16 z m 163.46,0 h -61.55 l 43.21,-76.79 h -22.92 l 9.92,-10.37 H 647 Z"
         id="path47" />
    </g>
  </g>
  <metadata
     id="metadata871">
    <rdf:RDF>
      <cc:Work
         rdf:about="">
        <dc:title>logo</dc:title>
      </cc:Work>
    </rdf:RDF>
  </metadata>
</svg>
