<?xml version="1.0" encoding="UTF-8" standalone="no"?>
<svg
   viewBox="0 0 375.19641 114.00239"
   version="1.1"
   id="svg100"
   sodipodi:docname="x68000.svg"
   width="375.19641"
   height="114.00239"
   inkscape:version="1.1 (c68e22c387, 2021-05-23)"
   xmlns:inkscape="http://www.inkscape.org/namespaces/inkscape"
   xmlns:sodipodi="http://sodipodi.sourceforge.net/DTD/sodipodi-0.dtd"
   xmlns="http://www.w3.org/2000/svg"
   xmlns:svg="http://www.w3.org/2000/svg"
   xmlns:rdf="http://www.w3.org/1999/02/22-rdf-syntax-ns#"
   xmlns:cc="http://creativecommons.org/ns#"
   xmlns:dc="http://purl.org/dc/elements/1.1/">
  <defs
     id="defs104" />
  <sodipodi:namedview
     id="namedview102"
     pagecolor="#ffffff"
     bordercolor="#666666"
     borderopacity="1.0"
     inkscape:pageshadow="2"
     inkscape:pageopacity="0.0"
     inkscape:pagecheckerboard="0"
     showgrid="false"
     fit-margin-top="0"
     fit-margin-left="0"
     fit-margin-right="0"
     fit-margin-bottom="0"
     inkscape:zoom="1.113"
     inkscape:cx="187.33154"
     inkscape:cy="56.603774"
     inkscape:window-width="1920"
     inkscape:window-height="1138"
     inkscape:window-x="-8"
     inkscape:window-y="-8"
     inkscape:window-maximized="1"
     inkscape:current-layer="svg100" />
  <title
     id="title2">logo</title>
  <g
     id="g972"
     transform="translate(-312.39889,0.00238928)">
    <g
       id="Layer_3"
       data-name="Layer 3">
      <rect
         x="351.17038"
         y="52.530788"
         width="47.119019"
         height="47.119019"
         fill="#ffffff"
         id="rect4" />
      <rect
         x="432.56458"
         y="28.19746"
         width="38.605782"
         height="24.33333"
         fill="#ffffff"
         id="rect6" />
      <rect
         x="455.70132"
         y="18.82394"
         width="97.802391"
         height="39.231049"
         fill="#ffffff"
         id="rect8" />
      <rect
         x="644.06354"
         y="60.91811"
         width="28.776859"
         height="38.731709"
         fill="#ffffff"
         id="rect10" />
      <rect
         x="592.99396"
         y="57.200951"
         width="24.4681"
         height="36.078178"
         fill="#ffffff"
         id="rect12" />
      <rect
         x="538.54523"
         y="55.996311"
         width="32.958462"
         height="37.282822"
         fill="#ffffff"
         id="rect14" />
      <rect
         x="490.83704"
         y="56.3652"
         width="32.674278"
         height="39.564602"
         fill="#ffffff"
         id="rect16" />
      <rect
         x="442.62607"
         y="71.415993"
         width="24.877621"
         height="21.86314"
         fill="#ffffff"
         id="rect18" />
    </g>
    <g
       id="Layer_2"
       data-name="Layer 2">
      <path
         d="m 370.23286,110.49954 a 3.50086,3.50086 0 0 1 -3.02343,-1.73633 l -35.584,-61.00048 a 3.50014,3.50014 0 0 1 3.02344,-5.26368 h 48.293 a 3.50089,3.50089 0 0 1 3.02344,1.73633 l 35.584,61.00049 a 3.50013,3.50013 0 0 1 -3.02344,5.26367 z m 33.19386,-12.083 -26.30811,-45.105 h -28.751 l 26.30712,45.105 z"
         fill="#ff0000"
         id="path21" />
      <path
         d="M 382.94167,45.99887 418.52566,107 h -48.29261 l -35.584,-61.00116 h 48.2926 m -10.27691,55.91791 h 36.855 L 379.129,49.81149 h -36.85463 l 30.39039,52.10529 m 10.27691,-62.91791 h -48.2926 A 7,7 0 0 0 328.60262,49.526 l 35.584,61.00116 A 6.99993,6.99993 0 0 0 370.23305,114 h 48.29261 a 7,7 0 0 0 6.04644,-10.527 l -35.584,-61.00118 a 6.99994,6.99994 0 0 0 -6.04645,-3.4729 z m -28.48089,17.81262 h 20.64733 l 22.22522,38.10529 h -20.64767 z"
         fill="#ffffff"
         id="path23" />
      <path
         d="m 319.39889,110.49954 a 3.49988,3.49988 0 0 1 -2.48926,-5.96 l 27.97168,-28.30176 a 3.49947,3.49947 0 0 1 5.51269,0.69629 l 16.5083,28.30176 a 3.50013,3.50013 0 0 1 -3.02343,5.26367 z m 30.52295,-10.81254 -4.66016,-7.417 -7.32227,7.417 z"
         fill="#ff0000"
         id="path25" />
      <path
         d="M 347.37069,78.69809 363.87881,107 h -44.47992 l 27.9718,-28.302 m -17.80487,24.48926 h 26.68792 L 345.875,86.66617 329.5658,103.18735 M 347.3702,71.698 a 6.99993,6.99993 0 0 0 -4.97821,2.07944 l -27.9718,28.30194 A 7,7 0 0 0 319.39889,114 h 44.47992 a 7,7 0 0 0 6.04657,-10.5269 L 353.41726,75.1712 A 7.00087,7.00087 0 0 0 347.3702,71.698 Z"
         fill="#ffffff"
         id="path27" />
      <path
         d="m 404.59322,77.77884 a 3.495,3.495 0 0 1 -3.02295,-1.73633 L 385.06148,47.74564 a 3.49972,3.49972 0 0 1 3.02295,-5.26368 h 44.48 a 3.50016,3.50016 0 0 1 2.48926,5.96045 l -27.97121,28.29737 a 3.50176,3.50176 0 0 1 -2.48926,1.03906 z m 2.1084,-17.06641 7.32324,-7.418 H 402.042 Z"
         fill="#ff0000"
         id="path29" />
      <path
         d="m 432.5646,45.98209 h 0.005 m -0.005,0 -27.9716,28.29724 -16.50838,-28.29724 h 44.48 m -26.47616,20.33337 16.30921,-16.52093 h -26.68793 l 10.37872,16.52093 M 432.5696,38.98209 h -44.485 a 7,7 0 0 0 -6.0463,10.52736 l 16.50838,28.29725 a 6.99991,6.99991 0 0 0 11.0246,1.39366 l 27.8949,-28.21962 A 6.99912,6.99912 0 0 0 432.5696,38.98209 Z m -0.005,14 z"
         fill="#ffffff"
         id="path31" />
      <path
         d="m 458.6401,106.82474 c -1.144,0 -2.397,-0.0322 -3.7041,-0.0654 -1.36377,-0.0352 -2.78956,-0.0723 -4.21094,-0.0723 l -3.83008,0.01 a 61.08875,61.08875 0 0 1 -6.79639,-0.27149 17.84139,17.84139 0 0 1 -8.31982,-2.96972 c -3.04932,-2.21778 -4.74658,-5.69239 -5.082,-10.35352 -0.005,-0.07519 -0.008,-0.15137 -0.009,-0.22754 a 38.11111,38.11111 0 0 1 0.67773,-6.99316 l 4.45117,-23.35547 c 0.752,-4.56152 2.31934,-10.334 7.67579,-13.75391 a 22.69243,22.69243 0 0 1 8.91894,-3.07031 104.03665,104.03665 0 0 1 12.55664,-0.66113 H 467.5 a 21.5878,21.5878 0 0 1 9.4458,1.77929 l 0.58643,0.22413 a 10.80549,10.80549 0 0 1 7.17236,10.187 62.50906,62.50906 0 0 1 -0.76172,9.46679 3.49979,3.49979 0 0 1 -3.45019,2.91114 H 477.896 a 7.68473,7.68473 0 0 1 0.8706,0.80761 c 1.82373,1.87012 2.86817,4.67579 3.03613,8.26954 a 44.56459,44.56459 0 0 1 -1.12353,9.63183 c -0.007,0.03516 -0.0142,0.07031 -0.022,0.10449 a 44.09559,44.09559 0 0 1 -1.69336,5.76563 20.23568,20.23568 0 0 1 -2.9502,5.29 c -0.24023,0.31152 -0.49414,0.69238 -0.76318,1.08984 a 12.72846,12.72846 0 0 1 -4.04736,4.30664 18.67163,18.67163 0 0 1 -7.25586,1.62305 c -0.6084,0.0488 -1.21437,0.0967 -1.80469,0.166 a 30.40942,30.40942 0 0 1 -3.502,0.16114 z M 443.36959,91.23587 c 0.42187,0.03027 0.9248,0.06641 1.54883,0.13574 0.60693,0.07032 3.34521,0.14356 7.24121,0.14356 3.791,0 6.38379,-0.06836 6.98535,-0.13477 a 8.76813,8.76813 0 0 0 2.97119,-0.59082 c 0.85156,-0.53515 1.92774,-1.21094 2.56445,-5.5918 0.007,-0.05371 0.0166,-0.10742 0.0269,-0.16015 0.11328,-0.58789 0.21289,-1.082 0.29883,-1.50684 a 8.416,8.416 0 0 0 0.31933,-2.25586 c -0.003,-0.06347 -0.008,-0.11133 -0.0132,-0.1455 a 1.46971,1.46971 0 0 0 -0.20508,-0.08594 6.72344,6.72344 0 0 0 -1.85449,-0.166 c -0.50781,0 -1.04248,0.01563 -1.59766,0.03028 -0.667,0.01855 -1.36035,0.0371 -2.07226,0.0371 h -5.23584 c -3.48975,0 -7.833,0 -8.74024,0.57129 -0.65722,0.44043 -1.24023,0.83008 -1.92089,4.794 a 3.54937,3.54937 0 0 1 -0.188,0.67773 c -0.042,0.24317 -0.11426,0.70118 -0.22461,1.52735 -0.17383,1.29492 -0.26026,2.14258 -0.30176,2.69531 0.11866,0.0087 0.24952,0.01458 0.39796,0.02532 z M 464.146,66.38919 a 37.20389,37.20389 0 0 1 4.91357,0.24316 3.48784,3.48784 0 0 1 -0.006,-1.00585 17.38833,17.38833 0 0 0 0.11621,-3.61524 l -0.006,-0.125 c -1.585,-0.17285 -4.34765,-0.17285 -5.69043,-0.17285 l -7.54834,0.0019 c -2.39746,0 -5.67138,0 -6.4458,0.39356 a 6.37325,6.37325 0 0 0 -2.04736,4.18652 c 0.65283,-0.02148 1.3667,-0.0332 2.14649,-0.0332 1.68554,0 3.4038,0.05176 4.78466,0.09277 0.93018,0.02832 1.72364,0.05274 2.27149,0.05274 0.78174,0.01269 1.48486,0.01757 2.16894,0.01757 1.00977,0 1.97657,-0.0098 2.89649,-0.01953 0.85689,-0.0088 1.67379,-0.0166 2.44629,-0.0166 z"
         fill="#ff0000"
         id="path33" />
      <path
         d="m 467.5,48.54074 a 18.982,18.982 0 0 1 8.79016,1.77509 q 4.67075,1.77246 4.91834,7.07849 a 60.76342,60.76342 0 0 1 -0.71582,8.71429 h -7.97248 a 21.182,21.182 0 0 0 0.14008,-4.37628 c -0.0551,-1.19488 -0.17841,-2.24133 -0.72052,-2.62659 -0.96164,-0.82876 -4.42825,-0.89207 -8.45853,-0.89207 -0.727,0 -1.47278,0.0021 -2.22513,0.0021 h -4.60479 l -0.72916,-8e-5 c -4.45416,0 -7.10675,0.02654 -8.51834,1.07222 a 9.86714,9.86714 0 0 0 -3.486,6.85858 l -1.29676,5.29 a 3.96085,3.96085 0 0 1 2.80426,-1.50305 40.72176,40.72176 0 0 1 4.15519,-0.17067 c 2.78424,0 5.66824,0.145 7.054,0.145 q 1.11594,0.01916 2.1742,0.01745 c 1.9458,0 3.73758,-0.0357 5.33786,-0.0357 a 31.13022,31.13022 0 0 1 4.76461,0.25964 c 2.79145,0.46185 5.829,1.06329 7.28162,2.63971 q 1.9258,1.97516 2.11389,6.061 a 42.14293,42.14293 0 0 1 -1.06323,8.79926 40.36833,40.36833 0 0 1 -1.55426,5.30316 16.67169,16.67169 0 0 1 -2.4447,4.38513 c -1.03784,1.34717 -2.27478,3.68146 -3.71064,4.46082 -2.26635,1.15619 -5.17242,1.08008 -7.79931,1.38916 a 27.44042,27.44042 0 0 1 -3.09427,0.13759 c -2.33478,0 -5.13376,-0.13759 -7.91525,-0.13759 -1.28638,0 -2.57926,0.0101 -3.83246,0.0101 a 57.85667,57.85667 0 0 1 -6.38092,-0.24733 14.35034,14.35034 0 0 1 -6.71009,-2.35113 q -3.22164,-2.34431 -3.61352,-7.74811 a 34.92726,34.92726 0 0 1 0.62244,-6.3501 l 4.44421,-23.32 c 0.84283,-5.10474 2.40576,-9.08661 6.12128,-11.45874 a 19.12158,19.12158 0 0 1 7.52356,-2.55445 99.67433,99.67433 0 0 1 12.06878,-0.62689 H 467.5 m -27.26389,37.17657 a 0.01432,0.01432 0 0 0 -0.0111,-0.0069 10.18737,10.18737 0 0 0 -0.42081,2.34122 c -0.22021,1.64367 -0.34326,2.86749 -0.3645,3.66418 0.22906,1.70294 0.80926,1.716 1.74945,2.57568 0.784,0.48279 1.45312,0.347 3.33826,0.5589 0.956,0.10967 4.31253,0.16468 7.63717,0.16468 3.231,0 6.43195,-0.052 7.36734,-0.15625 a 10.7476,10.7476 0 0 0 4.51166,-1.14728 c 2.01654,-1.26685 3.38495,-3.08893 4.10059,-8.01056 0.51245,-2.6565 0.73706,-3.33917 0.67779,-4.592 a 3.48788,3.48788 0 0 0 -2.56732,-3.37226 9.42285,9.42285 0 0 0 -3.00531,-0.35914 c -1.11887,0 -2.3605,0.06685 -3.6665,0.06685 h -5.23572 c -5.63025,0 -9.04016,0.02472 -10.72608,1.18975 -1.91894,1.28364 -2.68145,2.99079 -3.38494,7.0832 M 467.5,41.54074 h -6.53174 a 107.54988,107.54988 0 0 0 -13.0527,0.6964 26.1125,26.1125 0 0 0 -10.24085,3.54345 l -0.0656,0.04142 c -6.55694,4.18618 -8.42236,11.18966 -9.24634,16.13063 l -4.42856,23.23774 -0.0133,0.07172 a 41.47688,41.47688 0 0 0 -0.73273,7.637 q 0.002,0.22675 0.0178,0.453 c 0.51294,7.14563 3.80527,10.96293 6.47687,12.907 l 0.0724,0.052 a 21.28706,21.28706 0 0 0 9.93262,3.59041 64.06693,64.06693 0 0 0 7.20462,0.296 c 0.63165,0 1.27322,-0.003 1.919,-0.005 0.63559,-0.003 1.27536,-0.005 1.91352,-0.005 1.36151,0 2.7641,0.0361 4.12051,0.071 1.33109,0.0343 2.58838,0.0666 3.79474,0.0666 a 33.54152,33.54152 0 0 0 3.91376,-0.18572 c 0.50284,-0.0592 1.07248,-0.10488 1.67556,-0.15329 a 21.784,21.784 0 0 0 8.4853,-1.95226 q 0.0797,-0.0406 0.15826,-0.0833 a 15.73651,15.73651 0 0 0 5.27866,-5.42421 c 0.23992,-0.355 0.488,-0.72213 0.63793,-0.91677 a 23.72642,23.72642 0 0 0 3.45633,-6.20617 47.46784,47.46784 0 0 0 1.82425,-6.20692 q 0.0236,-0.104 0.044,-0.20866 a 46.894,46.894 0 0 0 1.18463,-10.46776 18.90113,18.90113 0 0 0 -1.31375,-6.34427 6.99562,6.99562 0 0 0 3.408,-4.89058 65.85713,65.85713 0 0 0 0.80687,-10.23506 14.29818,14.29818 0 0 0 -9.42633,-13.27875 l -0.577,-0.22009 A 24.98516,24.98516 0 0 0 467.5,41.54074 Z m -19.69084,42.55705 z m -0.18508,0.52088 c 1.48693,-0.1743 4.45581,-0.1743 6.72305,-0.1743 h 5.23572 c 0.57254,0 1.13379,-0.01123 1.67968,-0.02507 q -0.0255,0.13672 -0.0455,0.2744 a 9.76148,9.76148 0 0 1 -0.744,2.96417 c -0.26593,0.05726 -0.766,0.13991 -1.703,0.24254 -0.50555,0.04684 -2.90173,0.11464 -6.60538,0.11464 -2.27594,0 -4.07611,-0.02509 -5.278,-0.0561 l 0.0166,-0.10774 a 7.012,7.012 0 0 0 0.23175,-0.948 21.66266,21.66266 0 0 1 0.48917,-2.28456 z"
         fill="#ffffff"
         id="path35" />
      <path
         d="m 498.63228,106.687 a 91.51351,91.51351 0 0 1 -11.1499,-0.52344 12.96981,12.96981 0 0 1 -7.519,-3.791 c -2.11621,-1.84668 -3.84424,-5.77051 -4.14111,-9.48926 a 3.4968,3.4968 0 0 1 -0.006,-0.47461 19.95664,19.95664 0 0 1 0.376,-2.76172 c 0.10352,-0.55761 0.23047,-1.24414 0.38135,-2.20312 0.0117,-0.07324 0.0254,-0.14649 0.042,-0.21973 0.21729,-0.97168 0.35938,-1.8584 0.49707,-2.71582 a 20.50516,20.50516 0 0 1 0.67041,-3.16308 17.33786,17.33786 0 0 1 2.76221,-4.999 12.00492,12.00492 0 0 1 2.54785,-2.33984 10.94609,10.94609 0 0 1 -0.69629,-1.89844 17.64284,17.64284 0 0 1 -0.40674,-4.3584 l -0.0151,-0.39941 a 3.41156,3.41156 0 0 1 -0.002,-0.46875 c 0.51806,-8.3125 2.76953,-13.52735 7.52929,-17.436 l 0.34961,-0.30371 c 2.43457,-2.11133 4.29395,-3.41992 9.57471,-3.79541 2.6709,-0.21533 9.76953,-0.30566 12.96875,-0.30566 2.02051,0 8.83788,0.02344 11.76172,0.32324 0.0498,0.0054 0.10058,0.01172 0.15039,0.019 a 25.34767,25.34767 0 0 1 5.26269,1.30371 5.83592,5.83592 0 0 1 3.21973,2.94873 3.41343,3.41343 0 0 0 0.37305,0.59424 c 1.41113,1.78467 2.10547,4.16211 2.18066,7.33643 a 34.64494,34.64494 0 0 1 -0.35644,5.68262 25.02155,25.02155 0 0 1 -1.61035,5.9541 14.44928,14.44928 0 0 1 -3.3379,5.07226 3.92434,3.92434 0 0 0 -0.36718,0.50586 c 1.56151,2.43555 1.63183,5.50781 1.6875,7.97949 l 0.0146,0.50684 a 26.61432,26.61432 0 0 1 -0.0937,4.666 7.06212,7.06212 0 0 0 -0.0879,1.00879 6.5607,6.5607 0 0 1 -0.0947,1.042 l -0.21875,1.02441 a 20.966,20.966 0 0 1 -2.27442,6.8584 l -0.28418,0.50293 a 11.72563,11.72563 0 0 1 -4.87109,5.30566 22.03193,22.03193 0 0 1 -7.69922,2.40918 99.20146,99.20146 0 0 1 -11.84765,0.60254 z M 491.438,91.34036 a 7.301,7.301 0 0 0 2.78076,0.78418 c 0.0762,0.0039 0.15283,0.0088 0.22852,0.01758 1.314,0.14258 5.14941,0.23828 9.54443,0.23828 0.94434,0 1.84473,0.01367 2.70117,0.02735 0.74024,0.01171 1.44531,0.02246 2.11524,0.02246 a 14.03,14.03 0 0 0 3.97656,-0.38184 c 0.29492,-0.125 0.59472,-0.23437 0.89355,-0.34082 0.15332,-0.05566 0.34571,-0.124 0.48047,-0.17969 a 17.322,17.322 0 0 0 1.08594,-3.82226 15.16677,15.16677 0 0 0 0.52246,-3.5 9.01864,9.01864 0 0 0 -0.21777,-1.65918 9.88832,9.88832 0 0 0 -1.44043,-0.32032 69.56224,69.56224 0 0 0 -8.33008,-0.291 h -1.12305 c -2.36621,0 -5.606,0 -7.11767,0.16894 a 10.35107,10.35107 0 0 0 -3.3169,0.82911 c -0.0337,0.0166 -0.0679,0.03222 -0.10205,0.04785 -0.12207,0.05469 -0.49414,0.22265 -0.91406,1.03515 a 18.634,18.634 0 0 0 -1.4082,4.34571 26.176,26.176 0 0 0 -0.35206,2.88183 c -0.002,0.03222 -0.004,0.06542 -0.007,0.09667 z m 5.83056,-23.78808 a 86.97113,86.97113 0 0 0 10.06006,0.36328 c 3.23828,0 8.65723,0 10.416,-0.76172 0.0342,-0.01465 0.10351,-0.043 0.10351,-0.043 a 3.01611,3.01611 0 0 0 0.54883,-0.80371 10.72071,10.72071 0 0 0 1.20606,-3.62891 16.17782,16.17782 0 0 0 0.292,-2.68554 11.73576,11.73576 0 0 0 -1.81934,-0.28125 c -1.60839,-0.14258 -3.94726,-0.21582 -6.95117,-0.21582 -5.95215,0 -9.80078,0.30664 -10.85791,0.59179 -0.397,0.11035 -0.791,0.20313 -1.1543,0.28711 -0.16259,0.03809 -0.36083,0.084 -0.51855,0.125 a 6.53218,6.53218 0 0 0 -0.81982,2.28125 c -0.18653,1.1836 -0.35694,2.78223 -0.50684,4.76074 z"
         fill="#ff0000"
         id="path37" />
      <path
         d="m 512.3951,48.54074 c 4.77875,0 9.42542,0.10181 11.40387,0.30512 a 21.7732,21.7732 0 0 1 4.53272,1.11395 c 1.28875,0.49121 1.15661,1.32593 2.1391,2.50775 a 8.7011,8.7011 0 0 1 1.37329,5.18085 31.08167,31.08167 0 0 1 -0.32178,5.10425 21.42164,21.42164 0 0 1 -1.38587,5.12615 10.82688,10.82688 0 0 1 -2.60516,3.94855 c -1.33923,1.4574 -1.152,2.47766 -2.92352,3.058 a 1.14455,1.14455 0 0 1 -0.11664,0.02728 l 0.006,0.0021 c 3.28314,1.34716 3.28314,4.51593 3.3681,8.16326 a 33.53927,33.53927 0 0 1 -0.0336,4.24927 c -0.16949,0.95679 -0.11438,1.69458 -0.17322,2.00324 -0.72515,3.34662 -0.96191,4.82129 -2.09332,6.79876 -1.131,1.98316 -1.796,3.40223 -3.76971,4.46131 a 18.604,18.604 0 0 1 -6.54108,2.02936 95.47767,95.47767 0 0 1 -11.35254,0.56732 h -5.27 a 89.14821,89.14821 0 0 1 -10.70489,-0.49542 9.56157,9.56157 0 0 1 -5.60059,-2.90162 c -1.42724,-1.24585 -2.78259,-4.27032 -3.01587,-7.185 0.0762,-1.35975 0.31781,-2.05463 0.72034,-4.61719 0.52948,-2.368 0.65649,-4.27454 1.07587,-5.54511 a 13.77926,13.77926 0 0 1 2.18133,-3.92285 13.04978,13.04978 0 0 1 3.88922,-2.93152 c 0.99109,-0.56781 1.28766,-0.7835 0.27527,-1.631 a 4.98391,4.98391 0 0 1 -1.72424,-2.93152 c -0.16107,-0.35534 -0.24561,-3.81219 -0.26264,-3.92663 0.49146,-7.89191 2.55866,-11.91217 6.25714,-14.94965 2.17273,-1.86389 3.13019,-2.9696 7.951,-3.31256 2.47419,-0.19916 9.25574,-0.29651 12.721,-0.29651 M 507.32863,71.416 c 5.524,0 9.64631,-0.11438 11.80689,-1.05066 a 4.842,4.842 0 0 0 2.36322,-2.43561 14.10077,14.10077 0 0 0 1.53766,-4.57473 18.75219,18.75219 0 0 0 0.35675,-3.66882 2.73251,2.73251 0 0 0 -1.18274,-2.54608 10.14477,10.14477 0 0 0 -3.82483,-0.915 q -2.581,-0.22906 -7.26154,-0.22882 c -5.23925,0 -10.00958,0.23742 -11.76745,0.71142 -1.71582,0.47907 -2.79187,0.43659 -3.567,1.66486 a 10.18971,10.18971 0 0 0 -1.47394,3.86731 q -0.318,2.02148 -0.568,5.43158 a 3.85976,3.85976 0 0 0 1.30933,2.812 c 1.3551,0.8559 6.10376,0.9325 12.27172,0.9325 m 1.4795,24.51382 a 15.58439,15.58439 0 0 0 5.26513,-0.626 c 1.10907,-0.48755 2.33338,-0.62249 3.03711,-1.87671 a 17.3834,17.3834 0 0 0 1.55023,-4.96044 18.56061,18.56061 0 0 0 0.60566,-4.34589 c -0.029,-1.19495 -0.36377,-3.377 -1.01282,-3.99994 q -0.80548,-0.90774 -3.5918,-1.35089 a 68.7998,68.7998 0 0 0 -8.88281,-0.33478 c -0.37289,0 -0.74658,-1.5e-4 -1.11905,-1.5e-4 -2.99158,0 -5.89429,0.01 -7.51022,0.19064 a 13.65491,13.65491 0 0 0 -4.46942,1.165 5.4776,5.4776 0 0 0 -2.58387,2.61823 22.47632,22.47632 0 0 0 -1.73681,5.2868 34.15441,34.15441 0 0 0 -0.45343,3.90137 c 0.16107,1.38971 0.45343,2.20685 1.50378,2.66864 a 12.02818,12.02818 0 0 0 4.65979,1.356 c 1.59271,0.17279 5.7486,0.25824 9.92175,0.25824 1.76307,0 3.371,0.04977 4.81678,0.04977 m 3.587,-54.38907 c -2.90808,0 -10.26022,0.07974 -13.24838,0.31635 -6.31238,0.45407 -8.78473,2.20962 -11.587,4.63914 l -0.3504,0.3027 c -5.53586,4.5788 -8.14825,10.52674 -8.72983,19.86545 a 7.00977,7.00977 0 0 0 4.9e-4,0.87784 l 0.013,0.3365 a 22.595,22.595 0 0 0 0.47864,5.00078 13.62374,13.62374 0 0 0 -1.17069,1.29465 20.69111,20.69111 0 0 0 -3.33963,6.07033 23.32563,23.32563 0 0 0 -0.804,3.70863 c -0.12946,0.806 -0.26331,1.63937 -0.45743,2.50754 q -0.049,0.21919 -0.0839,0.44124 c -0.14441,0.91923 -0.26657,1.57652 -0.3656,2.11077 a 22.98753,22.98753 0 0 0 -0.42859,3.20115 6.99967,6.99967 0 0 0 0.0113,0.95 c 0.37268,4.65622 2.45355,9.285 5.31137,11.83042 a 16.53569,16.53569 0 0 0 9.389,4.64041 94.78866,94.78866 0 0 0 11.59869,0.55272 h 5.27 a 102.79179,102.79179 0 0 0 12.33936,-0.63722 25.64792,25.64792 0 0 0 8.93667,-2.8306 15.04531,15.04531 0 0 0 6.19254,-6.63562 l 0.27542,-0.48677 a 24.20189,24.20189 0 0 0 2.65283,-7.8488 L 534.5,90.813 q 0.0185,-0.0857 0.035,-0.17182 a 9.85956,9.85956 0 0 0 0.15534,-1.57945 4.44576,4.44576 0 0 1 0.0343,-0.51329 27.29127,27.29127 0 0 0 0.14636,-5.41162 L 534.863,82.9 534.858,82.68053 a 23.13411,23.13411 0 0 0 -1.05405,-7.33487 18.7897,18.7897 0 0 0 2.8176,-4.83267 28.50882,28.50882 0 0 0 1.83157,-6.781 38.22317,38.22317 0 0 0 0.3888,-6.24391 c -0.0925,-3.96486 -1.03425,-7.02584 -2.87937,-9.36066 l -0.0302,-0.038 c -0.0251,-0.04486 -0.0478,-0.08828 -0.0704,-0.12964 a 9.24529,9.24529 0 0 0 -5.03748,-4.541 28.87036,28.87036 0 0 0 -6.01242,-1.49922 q -0.1485,-0.02172 -0.29782,-0.03708 C 521.51237,41.57401 515.0387,41.5407 512.39475,41.5407 Z m -11.18487,21.9187 a 70.74264,70.74264 0 0 1 9.91381,-0.46313 c 1.89194,0 3.50055,0.02881 4.80829,0.0859 a 5.726,5.726 0 0 1 -0.34259,1.01871 74.932,74.932 0 0 1 -8.26111,0.31507 c -1.45245,0 -4.061,0 -6.23947,-0.07352 q 0.0594,-0.47672 0.12107,-0.883 z m -5.03533,22.4594 a 9.49581,9.49581 0 0 1 1.754,-0.33652 c 1.31607,-0.14711 4.57461,-0.14711 6.73083,-0.14711 l 0.55771,7e-5 0.56134,8e-5 c 1.67407,0 4.45258,0 6.33978,0.10994 -0.0626,0.35591 -0.1514,0.79836 -0.2771,1.34042 l -0.0131,0.05771 c -0.16385,0.73476 -0.30493,1.35886 -0.42947,1.854 a 16.68146,16.68146 0 0 1 -2.59079,0.13247 c -0.65265,0 -1.34009,-0.011 -2.06159,-0.02218 -0.87323,-0.01357 -1.792,-0.02757 -2.75519,-0.02757 -4.11523,0 -7.28534,-0.08374 -8.68032,-0.17708 a 17.10189,17.10189 0 0 1 0.86395,-2.78427 z"
         fill="#ffffff"
         id="path39" />
      <path
         d="m 551.46529,106.687 a 72.474,72.474 0 0 1 -13.32129,-0.97949 14.02515,14.02515 0 0 1 -8.03515,-4.334 c -2.03418,-2.28711 -2.13672,-5.14551 -2.23633,-7.91016 -0.0215,-0.59277 -0.043,-1.2207 -0.0859,-1.88477 -0.007,-0.11328 -0.009,-0.22754 -0.005,-0.34082 a 64.09379,64.09379 0 0 1 0.93359,-8.624 l 2.88871,-15.1816 a 46.54808,46.54808 0 0 1 2.76954,-9.50195 21.17966,21.17966 0 0 1 5.5166,-7.77637 15.69,15.69 0 0 1 5.72168,-3.35108 29.63753,29.63753 0 0 1 7.20507,-1.44921 c 2.47461,-0.20752 5.51172,-0.313 9.02735,-0.313 2.6914,0 5.15918,0.09375 7.333,0.27929 a 31.0341,31.0341 0 0 1 6.1875,1.104 14.38763,14.38763 0 0 1 5.26757,2.79639 c 0.0274,0.02343 0.0547,0.04736 0.0811,0.07128 2.71191,2.46241 4.14452,6.167 4.25684,11.01172 a 61.82779,61.82779 0 0 1 -0.73829,8.57715 c -0.009,0.06738 -0.0195,0.13379 -0.0322,0.2002 l -2.93555,15.18261 c -1.73828,9.44532 -4.00879,15.99707 -9.93555,19.373 a 22.59206,22.59206 0 0 1 -8.26757,2.53027 112.24236,112.24236 0 0 1 -11.59574,0.52054 z m -9.41211,-17.24316 a 4.91016,4.91016 0 0 0 0.25586,1.44043 0.831,0.831 0 0 0 0.29,0.21387 6.58609,6.58609 0 0 0 2.36719,0.56933 c 1.37988,0.12988 3.74512,0.19531 7.02832,0.19531 a 82.06477,82.06477 0 0 0 8.8584,-0.34668 5.50939,5.50939 0 0 0 2.751,-0.88086 c 1.05664,-0.97558 1.98731,-2.71582 3.07129,-7.86718 l 2.9795,-15.77149 0.17285,-1.19043 a 21.63217,21.63217 0 0 0 0.38379,-3.80273 c -0.009,-0.36328 -0.0244,-1.01953 -0.0635,-1.47168 a 5.91882,5.91882 0 0 0 -1.7168,-0.41016 c -1.49609,-0.16992 -4.17676,-0.25683 -7.96386,-0.25683 -3.51368,0 -6.02637,0.06445 -7.46778,0.19043 a 10.90834,10.90834 0 0 0 -3.04883,0.63281 3.86223,3.86223 0 0 0 -1.2041,0.79785 7.52435,7.52435 0 0 0 -1.26368,2.18945 c -0.16308,0.3711 -0.32323,0.708 -0.47948,1.03614 a 10.9423,10.9423 0 0 0 -1.07422,3.20214 l -3.23633,17.17383 c -0.13281,0.90625 -0.248,1.59571 -0.3457,2.18067 a 21.16347,21.16347 0 0 0 -0.29394,2.17582 z"
         fill="#ff0000"
         id="path41" />
      <path
         d="m 561.84432,48.54074 q 3.9147,0 7.036,0.2666 a 27.37206,27.37206 0 0 1 5.482,0.97016 10.87843,10.87843 0 0 1 3.99853,2.10547 q 2.97463,2.70079 3.10986,8.50177 a 59.56793,59.56793 0 0 1 -0.70739,8.032 L 577.828,83.59921 c -1.58856,8.62976 -3.48718,14.293 -8.23138,16.9961 a 19.00829,19.00829 0 0 1 -6.9599,2.09662 108.63282,108.63282 0 0 1 -11.17139,0.49542 70.98039,70.98039 0 0 1 -12.58575,-0.9021 10.62022,10.62022 0 0 1 -6.09558,-3.16876 c -1.575,-1.77118 -1.28363,-4.30018 -1.504,-7.76075 a 61.27232,61.27232 0 0 1 0.88531,-8.15484 l 2.87738,-15.11426 a 42.77374,42.77374 0 0 1 2.55744,-8.79877 17.60137,17.60137 0 0 1 4.656,-6.55346 12.11177,12.11177 0 0 1 4.50751,-2.62635 26.01785,26.01785 0 0 1 6.34589,-1.2666 q 3.55179,-0.29836 8.7348,-0.30072 m -9.84943,46.82239 a 84.468,84.468 0 0 0 9.27741,-0.37262 8.70729,8.70729 0 0 0 4.6261,-1.71137 c 1.94012,-1.745 3.058,-4.35479 4.20209,-9.7901 l 3.00714,-15.91516 a 33.18414,33.18414 0 0 0 0.60235,-5.64264 c -0.0508,-2.17315 -0.127,-3.30926 -1.07116,-3.97747 a 7.7036,7.7036 0 0 0 -3.80939,-1.30957 q -2.45224,-0.27879 -8.36218,-0.279 -5.43248,0 -7.77289,0.20313 a 14.26886,14.26886 0 0 0 -4.02887,0.86432 7.41115,7.41115 0 0 0 -2.33008,1.51617 10.64873,10.64873 0 0 0 -2.05457,3.31305 17.64144,17.64144 0 0 0 -1.78753,4.98615 l -3.25324,17.2622 c -0.37262,2.5542 -0.60559,3.35877 -0.69482,4.95624 a 7.56742,7.56742 0 0 0 0.72009,3.14307 4.13992,4.13992 0 0 0 1.70764,1.58856 10.01778,10.01778 0 0 0 3.66413,0.95349 q 2.23021,0.20947 7.35778,0.21155 m 9.84943,-53.82239 c -3.61542,0 -6.7514,0.10945 -9.3208,0.32529 a 33.08444,33.08444 0 0 0 -8.05469,1.62886 19.18844,19.18844 0 0 0 -6.941,4.07585 24.63483,24.63483 0 0 0 -6.381,9.005 49.96833,49.96833 0 0 0 -2.98684,10.23458 l -2.87121,15.08146 q -0.0127,0.06677 -0.0241,0.13378 a 67.52763,67.52763 0 0 0 -0.98071,9.09436 q -0.0115,0.34041 0.0102,0.68074 c 0.0401,0.6295 0.0606,1.22485 0.0807,1.78728 0.109,3.04457 0.24423,6.828 3.115,10.10849 a 17.44773,17.44773 0 0 0 9.91522,5.43176 c 4.56674,0.98279 11.91641,1.05916 14.06027,1.05916 a 115.64594,115.64594 0 0 0 12.01624,-0.5466 26.033,26.033 0 0 0 9.50616,-2.92169 l 0.0743,-0.0417 c 7.86182,-4.47946 10.06617,-13.2127 11.64453,-21.77952 l 2.92951,-15.15232 q 0.0384,-0.19909 0.0654,-0.4002 a 63.65268,63.65268 0 0 0 0.76709,-9.13236 c -0.13446,-5.83029 -1.95215,-10.38 -5.40228,-13.51254 q -0.08,-0.0726 -0.16224,-0.14276 a 17.863,17.863 0 0 0 -6.53546,-3.48648 33.99409,33.99409 0 0 0 -6.89312,-1.23848 c -2.26832,-0.1937 -4.83594,-0.29195 -7.63117,-0.29195 z m -10.56294,22.38542 a 7.65877,7.65877 0 0 1 2.00025,-0.38252 c 0.94519,-0.08235 2.93872,-0.17844 7.18561,-0.17844 2.99578,0 4.91943,0.05509 6.15277,0.12319 -0.0549,0.43728 -0.13721,1.0054 -0.2558,1.81479 l -0.16229,1.11618 -2.96607,15.69764 c -0.7666,3.62388 -1.38812,5.13051 -1.81952,5.729 a 5.7655,5.7655 0 0 1 -0.9978,0.19675 75.99636,75.99636 0 0 1 -8.42365,0.32036 c -3.37957,0 -5.241,-0.07205 -6.25811,-0.14456 0.0192,-0.116 0.04,-0.24041 0.0626,-0.37534 0.0983,-0.58771 0.2135,-1.27829 0.346,-2.17654 L 549.3722,68.5444 a 7.51124,7.51124 0 0 1 0.79078,-2.32857 c 0.17071,-0.35788 0.34552,-0.72644 0.52606,-1.137 a 8.79782,8.79782 0 0 1 0.58752,-1.15027 l 0.005,-0.0024 z"
         fill="#ffffff"
         id="path43" />
      <path
         d="m 601.02877,106.687 a 72.47844,72.47844 0 0 1 -13.32227,-0.97949 14.02318,14.02318 0 0 1 -8.03418,-4.335 c -2.03515,-2.28516 -2.13769,-5.14356 -2.23632,-7.9082 -0.0215,-0.59375 -0.043,-1.22168 -0.0859,-1.88575 -0.007,-0.11328 -0.009,-0.22754 -0.005,-0.34082 a 64.01144,64.01144 0 0 1 0.93359,-8.626 l 2.88867,-15.17969 a 46.48386,46.48386 0 0 1 2.76953,-9.50195 21.16271,21.16271 0 0 1 5.5166,-7.77637 15.68489,15.68489 0 0 1 5.72071,-3.35059 29.61388,29.61388 0 0 1 7.20507,-1.4497 c 2.47657,-0.20752 5.51368,-0.313 9.02833,-0.313 2.6914,0 5.15917,0.09375 7.333,0.27929 a 31.03655,31.03655 0 0 1 6.18653,1.104 14.39449,14.39449 0 0 1 5.26757,2.79541 c 0.0283,0.02392 0.0557,0.04785 0.082,0.07226 2.71191,2.46241 4.14453,6.167 4.25683,11.01172 a 61.82734,61.82734 0 0 1 -0.73828,8.57715 c -0.009,0.06738 -0.0195,0.13379 -0.0322,0.2002 l -2.9355,15.18274 c -1.73926,9.44629 -4.01075,15.998 -9.93457,19.373 a 22.61893,22.61893 0 0 1 -8.26953,2.53027 112.21042,112.21042 0 0 1 -11.59473,0.52052 z m -9.41211,-17.2441 a 4.9124,4.9124 0 0 0 0.25586,1.44141 0.83092,0.83092 0 0 0 0.29,0.21387 6.57971,6.57971 0 0 0 2.36719,0.56933 c 1.37988,0.12988 3.74511,0.19531 7.02832,0.19531 a 82.09814,82.09814 0 0 0 8.85937,-0.34668 5.50846,5.50846 0 0 0 2.75,-0.88086 c 1.05664,-0.97558 1.98731,-2.71582 3.07129,-7.86718 l 2.97949,-15.77149 0.17481,-1.20117 a 21.483,21.483 0 0 0 0.38086,-3.78809 c -0.009,-0.36621 -0.0244,-1.02441 -0.0635,-1.47558 a 5.92458,5.92458 0 0 0 -1.71582,-0.41016 c -1.49609,-0.16992 -4.17676,-0.25683 -7.96387,-0.25683 -3.51367,0 -6.02637,0.06445 -7.46875,0.19043 a 10.90839,10.90839 0 0 0 -3.04785,0.63281 3.86223,3.86223 0 0 0 -1.2041,0.79785 7.52394,7.52394 0 0 0 -1.26367,2.18945 c -0.16309,0.3711 -0.32325,0.708 -0.4795,1.03614 a 10.94233,10.94233 0 0 0 -1.07421,3.20214 l -3.23633,17.17481 c -0.13281,0.89941 -0.24707,1.58691 -0.34473,2.16894 a 21.45311,21.45311 0 0 0 -0.29488,2.18555 z"
         fill="#ff0000"
         id="path45" />
      <path
         d="m 611.40749,48.54074 q 3.91461,0 7.03644,0.2666 a 27.383,27.383 0 0 1 5.482,0.97016 10.87985,10.87985 0 0 1 3.99807,2.1055 q 2.97537,2.70079 3.11029,8.50177 a 59.5789,59.5789 0 0 1 -0.70782,8.032 l -2.9353,15.18243 c -1.58857,8.62976 -3.4867,14.293 -8.231,16.9961 a 19.01022,19.01022 0 0 1 -6.96039,2.09662 108.62727,108.62727 0 0 1 -11.17084,0.49542 70.98263,70.98263 0 0 1 -12.58624,-0.9021 10.62012,10.62012 0 0 1 -6.09509,-3.16876 c -1.5755,-1.77118 -1.28363,-4.30018 -1.50452,-7.76075 a 61.27191,61.27191 0 0 1 0.8858,-8.15484 l 2.8769,-15.11426 a 42.74243,42.74243 0 0 1 2.55792,-8.79877 17.59586,17.59586 0 0 1 4.656,-6.55346 12.10906,12.10906 0 0 1 4.507,-2.62635 26.01794,26.01794 0 0 1 6.34589,-1.2666 q 3.55252,-0.29836 8.7348,-0.30072 m -9.849,46.82239 a 84.47545,84.47545 0 0 0 9.27747,-0.37262 8.71013,8.71013 0 0 0 4.626,-1.71137 c 1.93969,-1.745 3.05761,-4.35479 4.20166,-9.7901 l 3.00763,-15.91516 a 33.17079,33.17079 0 0 0 0.60186,-5.64264 c -0.0508,-2.17315 -0.127,-3.30926 -1.07116,-3.97747 a 7.70181,7.70181 0 0 0 -3.80939,-1.30957 q -2.45151,-0.27879 -8.36169,-0.279 -5.43321,0 -7.77338,0.20313 a 14.26886,14.26886 0 0 0 -4.02887,0.86432 7.40349,7.40349 0 0 0 -2.32959,1.51617 10.65492,10.65492 0 0 0 -2.05505,3.31305 17.658,17.658 0 0 0 -1.78689,4.98614 l -3.25373,17.2622 c -0.37262,2.5542 -0.60565,3.35877 -0.69482,4.95624 a 7.55966,7.55966 0 0 0 0.72052,3.14307 4.13772,4.13772 0 0 0 1.70764,1.58856 10.01534,10.01534 0 0 0 3.6637,0.95349 q 2.23013,0.20947 7.35821,0.21155 m 9.849,-53.82239 c -3.61493,0 -6.75085,0.10945 -9.32068,0.32527 a 33.08579,33.08579 0 0 0 -8.05481,1.62888 19.1852,19.1852 0 0 0 -6.94085,4.07617 24.62631,24.62631 0 0 0 -6.381,9.00566 49.93127,49.93127 0 0 0 -2.98687,10.23363 L 574.85244,81.892 q -0.0126,0.066 -0.0239,0.13231 a 67.5024,67.5024 0 0 0 -0.98138,9.09437 q -0.0116,0.34153 0.0102,0.683 c 0.0402,0.63005 0.0608,1.22591 0.081,1.78876 0.10913,3.04381 0.24469,6.82646 3.11554,10.10649 a 17.44726,17.44726 0 0 0 9.91412,5.43123 c 4.567,0.98285 11.917,1.05922 14.061,1.05922 a 115.63752,115.63752 0 0 0 12.01569,-0.5466 26.0371,26.0371 0 0 0 9.5061,-2.92137 l 0.0748,-0.042 c 7.86139,-4.47915 10.0658,-13.21282 11.64423,-21.77982 l 2.92944,-15.152 q 0.0385,-0.19913 0.0654,-0.40023 a 63.67514,63.67514 0 0 0 0.76752,-9.13265 c -0.1344,-5.83038 -1.95246,-10.38034 -5.40332,-13.51279 q -0.0797,-0.07235 -0.16162,-0.14222 a 17.86443,17.86443 0 0 0 -6.53455,-3.48629 34.00671,34.00671 0 0 0 -6.89349,-1.23863 c -2.26831,-0.19371 -4.83612,-0.292 -7.63172,-0.292 z m -10.56271,22.38535 a 7.66136,7.66136 0 0 1 2,-0.38243 c 0.94519,-0.08235 2.93884,-0.17844 7.1861,-0.17844 2.99584,0 4.91943,0.05509 6.15252,0.12317 -0.0546,0.43534 -0.13653,1.00057 -0.25421,1.80478 l -0.16376,1.12665 -2.96637,15.69688 c -0.76641,3.623 -1.38794,5.13033 -1.81939,5.72931 a 5.76385,5.76385 0 0 1 -0.99768,0.19681 76.0186,76.0186 0 0 1 -8.42353,0.32033 c -3.37994,0 -5.24145,-0.07205 -6.25854,-0.14456 0.0192,-0.11592 0.04,-0.24028 0.0625,-0.37508 0.0983,-0.58772 0.21356,-1.27829 0.346,-2.17656 l 3.22741,-17.12233 a 7.51566,7.51566 0 0 1 0.79053,-2.32872 c 0.1709,-0.35841 0.34589,-0.72749 0.52655,-1.13873 a 8.76982,8.76982 0 0 1 0.58734,-1.14881 l 0.005,-0.0023 z"
         fill="#ffffff"
         id="path47" />
      <path
         d="m 650.59225,106.687 a 72.47836,72.47836 0 0 1 -13.32227,-0.97949 14.02545,14.02545 0 0 1 -8.03418,-4.334 c -2.03516,-2.28614 -2.1377,-5.14454 -2.23633,-7.90821 -0.0215,-0.59375 -0.043,-1.22265 -0.0859,-1.88672 -0.007,-0.11328 -0.009,-0.22754 -0.005,-0.34082 a 64.01156,64.01156 0 0 1 0.9336,-8.626 l 2.88867,-15.17969 a 46.39133,46.39133 0 0 1 2.77051,-9.50293 21.15354,21.15354 0 0 1 5.51562,-7.77539 15.68493,15.68493 0 0 1 5.7207,-3.35059 29.65081,29.65081 0 0 1 7.20606,-1.4497 c 2.47461,-0.20752 5.51172,-0.313 9.02734,-0.313 2.69141,0 5.15918,0.09375 7.333,0.27929 a 31.03645,31.03645 0 0 1 6.18652,1.104 14.39445,14.39445 0 0 1 5.26758,2.79541 c 0.0283,0.02392 0.0557,0.04785 0.082,0.07226 2.71289,2.4629 4.14453,6.168 4.25586,11.0127 a 61.53816,61.53816 0 0 1 -0.7373,8.57617 c -0.009,0.06738 -0.0195,0.13379 -0.0322,0.2002 l -2.93555,15.18261 c -1.73828,9.44532 -4.00879,15.9961 -9.93554,19.373 a 22.59621,22.59621 0 0 1 -8.26856,2.53027 112.23536,112.23536 0 0 1 -11.59468,0.52063 z m -9.41211,-17.2441 a 4.9124,4.9124 0 0 0 0.25586,1.44141 0.831,0.831 0 0 0 0.29,0.21387 6.57978,6.57978 0 0 0 2.36719,0.56933 c 1.37988,0.12988 3.74512,0.19531 7.02832,0.19531 a 82.06477,82.06477 0 0 0 8.8584,-0.34668 5.48556,5.48556 0 0 0 2.749,-0.88086 c 1.05762,-0.9746 1.98926,-2.71484 3.07325,-7.86718 l 2.97949,-15.77149 0.17285,-1.1875 a 21.71706,21.71706 0 0 0 0.38281,-3.80371 c -0.009,-0.36523 -0.0244,-1.02246 -0.0635,-1.47363 a 5.92458,5.92458 0 0 0 -1.7168,-0.41016 c -1.49512,-0.16992 -4.17578,-0.25683 -7.96289,-0.25683 -3.51367,0 -6.02637,0.06445 -7.46875,0.19043 a 10.90839,10.90839 0 0 0 -3.04785,0.63281 3.87323,3.87323 0 0 0 -1.2041,0.79785 7.52685,7.52685 0 0 0 -1.26565,2.19141 c -0.16111,0.36816 -0.32127,0.7041 -0.47752,1.03125 a 10.98444,10.98444 0 0 0 -1.07422,3.20507 l -3.23633,17.17481 c -0.13281,0.89941 -0.24707,1.58691 -0.34472,2.16894 a 21.45311,21.45311 0 0 0 -0.29487,2.18555 z"
         fill="#ff0000"
         id="path49" />
      <path
         d="m 660.97109,48.54074 q 3.91461,0 7.036,0.2666 a 27.37206,27.37206 0 0 1 5.482,0.97016 10.8852,10.8852 0 0 1 3.99853,2.10547 q 2.97474,2.70079 3.10986,8.50177 a 59.55771,59.55771 0 0 1 -0.70739,8.032 l -2.93524,15.18243 c -1.58857,8.62976 -3.48725,14.293 -8.23145,16.9961 a 19.00729,19.00729 0 0 1 -6.96039,2.09662 108.62727,108.62727 0 0 1 -11.17084,0.49542 70.97274,70.97274 0 0 1 -12.58575,-0.9021 10.62041,10.62041 0 0 1 -6.09564,-3.16876 c -1.57544,-1.77118 -1.28357,-4.30018 -1.504,-7.76075 a 61.27061,61.27061 0 0 1 0.88538,-8.15484 L 634.169,68.08664 a 42.76979,42.76979 0 0 1 2.55792,-8.79877 17.59993,17.59993 0 0 1 4.656,-6.55346 12.11137,12.11137 0 0 1 4.50744,-2.62635 26.01777,26.01777 0 0 1 6.346,-1.2666 q 3.55179,-0.29836 8.73474,-0.30072 m -9.84943,46.82239 a 84.46725,84.46725 0 0 0 9.27741,-0.37262 8.70729,8.70729 0 0 0 4.6261,-1.71137 c 1.94018,-1.745 3.058,-4.35479 4.20166,-9.7901 l 3.00757,-15.91516 a 33.17849,33.17849 0 0 0 0.60241,-5.64264 c -0.0514,-2.17315 -0.12707,-3.30926 -1.07165,-3.97747 a 7.69994,7.69994 0 0 0 -3.809,-1.30957 q -2.45216,-0.27879 -8.36212,-0.279 -5.43256,0 -7.77338,0.20313 a 14.26484,14.26484 0 0 0 -4.02838,0.86432 7.4002,7.4002 0 0 0 -2.33008,1.51617 10.65511,10.65511 0 0 0 -2.055,3.31305 17.65641,17.65641 0 0 0 -1.78705,4.98615 l -3.25372,17.2622 c -0.37262,2.5542 -0.60517,3.35877 -0.69434,4.95624 a 7.5685,7.5685 0 0 0 0.72,3.14307 4.14071,4.14071 0 0 0 1.70764,1.58856 10.01812,10.01812 0 0 0 3.66419,0.95349 q 2.22939,0.20947 7.35772,0.21155 m 9.84943,-53.82239 c -3.61542,0 -6.75134,0.10945 -9.32068,0.32529 a 33.08545,33.08545 0 0 0 -8.05481,1.62886 19.18833,19.18833 0 0 0 -6.941,4.0759 24.63259,24.63259 0 0 0 -6.381,9.00506 49.96485,49.96485 0 0 0 -2.98712,10.23358 L 624.41561,81.892 q -0.0127,0.06659 -0.024,0.13338 a 67.52281,67.52281 0 0 0 -0.98083,9.09439 q -0.0114,0.34055 0.0102,0.681 c 0.0401,0.62978 0.0606,1.22539 0.0807,1.788 0.10889,3.0441 0.24432,6.82727 3.11493,10.10756 a 17.4459,17.4459 0 0 0 9.91534,5.43181 c 4.56586,0.98279 11.9162,1.05916 14.06024,1.05916 a 115.636,115.636 0 0 0 12.01567,-0.5466 26.03184,26.03184 0 0 0 9.50673,-2.92173 l 0.0742,-0.0417 c 7.86139,-4.47923 10.066,-13.21226 11.64441,-21.77858 l 2.92963,-15.15329 q 0.0385,-0.19908 0.0654,-0.40017 a 63.64347,63.64347 0 0 0 0.76709,-9.1326 c -0.1344,-5.83 -1.95209,-10.37982 -5.40235,-13.51235 q -0.0805,-0.07308 -0.16314,-0.14358 a 17.86994,17.86994 0 0 0 -6.534,-3.48545 33.99482,33.99482 0 0 0 -6.89361,-1.23864 c -2.26819,-0.1937 -4.83588,-0.29195 -7.63117,-0.29195 z m -10.56347,22.38565 a 7.65289,7.65289 0 0 1 2.00037,-0.38275 c 0.94519,-0.08235 2.93884,-0.17844 7.1861,-0.17844 2.99579,0 4.91949,0.05509 6.15277,0.12319 -0.0549,0.43724 -0.13727,1.00552 -0.25586,1.81511 l -0.16236,1.116 -2.9663,15.69705 c -0.76636,3.6241 -1.38782,5.13095 -1.81922,5.72942 a 5.76422,5.76422 0 0 1 -0.9978,0.19676 75.99636,75.99636 0 0 1 -8.42365,0.32036 c -3.38055,0 -5.24169,-0.07207 -6.25836,-0.14456 0.0194,-0.11707 0.0403,-0.24272 0.0631,-0.379 0.0981,-0.58681 0.21308,-1.27629 0.34522,-2.17261 L 648.499,68.5446 a 7.51816,7.51816 0 0 1 0.79065,-2.329 c 0.1709,-0.35826 0.34577,-0.72722 0.52637,-1.1383 a 8.77742,8.77742 0 0 1 0.58734,-1.14884 l 0.004,-0.0021 z"
         fill="#ffffff"
         id="path51" />
      <path
         d="m 468.229,39.4805 a 3.49987,3.49987 0 0 1 -3.5,-3.5 v -7.55664 h -11.30082 v 7.55664 a 3.49986,3.49986 0 0 1 -3.5,3.5 h -9.53125 a 3.49987,3.49987 0 0 1 -3.5,-3.5 V 8.14847 a 3.49986,3.49986 0 0 1 3.5,-3.5 h 9.53125 a 3.49985,3.49985 0 0 1 3.5,3.5 v 7.17529 H 464.729 V 8.14847 a 3.49986,3.49986 0 0 1 3.5,-3.5 h 9.53125 a 3.49985,3.49985 0 0 1 3.5,3.5 v 27.832 a 3.49986,3.49986 0 0 1 -3.5,3.5 z"
         fill="#ff0000"
         id="path53" />
      <path
         d="m 477.76034,8.14847 v 27.832 H 468.229 V 24.924 H 449.92837 V 35.98044 H 440.397 V 8.14847 h 9.53138 V 18.82394 H 468.229 V 8.14847 h 9.53138 m 0,-7 H 468.229 a 7,7 0 0 0 -7,7 v 3.67547 h -4.30059 V 8.14847 a 7,7 0 0 0 -7,-7 H 440.397 a 7,7 0 0 0 -7,7 v 27.832 a 7,7 0 0 0 7,7 h 9.53138 a 7,7 0 0 0 7,-7 V 31.924 h 4.30062 v 4.05646 a 7,7 0 0 0 7,7 h 9.53138 a 7,7 0 0 0 7,-7 V 8.14847 a 7,7 0 0 0 -7,-7 z"
         fill="#ffffff"
         id="path55" />
      <path
         d="m 512.45455,39.4805 a 3.50188,3.50188 0 0 1 -2.99805,-1.69336 l -2.65527,-4.40674 h -14.999 l -2.65674,4.40723 a 3.50047,3.50047 0 0 1 -2.99756,1.69287 h -7.24365 a 3.5,3.5 0 0 1 -2.99756,-5.30664 l 16.7749,-27.832 a 3.49985,3.49985 0 0 1 2.99756,-1.69336 h 11.05662 a 3.50188,3.50188 0 0 1 2.99805,1.69336 l 16.77539,27.832 a 3.50006,3.50006 0 0 1 -2.998,5.30664 z"
         fill="#ff0000"
         id="path57" />
      <path
         d="m 506.73611,8.14847 16.7752,27.832 h -11.05645 l -3.67682,-6.1 h -18.95282 l -3.67725,6.1 h -7.24383 l 16.77526,-27.832 h 11.05671 m -13.46692,16.01294 h 12.05951 l -6.02741,-10.00556 -6.0321,10.00556 M 506.73611,1.14847 H 495.6794 A 7,7 0 0 0 489.68419,4.535 l -16.77526,27.832 a 7,7 0 0 0 5.99521,10.61351 h 7.24386 a 7,7 0 0 0 5.995,-3.38609 l 1.636,-2.71395 h 11.04508 l 1.63565,2.71364 a 7,7 0 0 0 5.99515,3.3864 h 11.05645 a 7,7 0 0 0 5.99521,-10.6135 L 512.73131,4.535 a 6.99992,6.99992 0 0 0 -5.9952,-3.3865 z"
         fill="#ffffff"
         id="path59" />
      <path
         d="m 564.687,39.4805 a 3.50017,3.50017 0 0 1 -3.5,-3.5 V 8.14847 A 3.50068,3.50068 0 0 1 564.31685,4.668 c 0.2002,-0.021 4.95118,-0.52393 9.31934,-0.77588 1.04395,-0.06006 1.89844,-0.11377 2.63965,-0.15967 2.35351,-0.147 3.64941,-0.22754 6.13965,-0.22754 9.11719,0 15.88769,1.98828 19.58105,5.75 a 10.79435,10.79435 0 0 1 3.1709,7.91748 c -0.12012,6.36182 -5.75976,13.15772 -21.22656,13.15772 a 60.27314,60.27314 0 0 1 -6.60352,-0.34766 v 5.998 a 3.50017,3.50017 0 0 1 -3.5,3.5 z m 12.65039,-21.28369 a 46.36269,46.36269 0 0 0 5.42871,0.43945 c 2.94336,0 4.71485,-0.7876 4.72852,-1.54932 a 0.40682,0.40682 0 0 0 -0.12988,-0.375 c -0.52539,-0.53418 -2.22461,-1.15771 -5.28418,-1.15771 l -1.07618,-0.002 c -0.68554,0 -1.28125,0.0068 -2.70019,0.09716 -0.31836,0.02051 -0.64453,0.04493 -0.9668,0.07129 z"
         fill="#ff0000"
         id="path61" />
      <path
         d="m 582.41537,7.00491 c 12.10668,0 19.37146,3.66443 19.25335,10.10321 -0.1018,5.36762 -5.62164,9.72217 -17.72827,9.72217 A 51.3506,51.3506 0 0 1 573.837,25.90244 v 10.078 h -9.14991 V 8.14847 c 0,0 4.81659,-0.51221 9.14991,-0.76227 4.33332,-0.25006 5.43481,-0.38129 8.57837,-0.38129 m 0.35113,15.13135 c 5.61743,0 8.18054,-2.23645 8.22675,-4.98987 0.0551,-3.30414 -3.29523,-5.092 -8.91315,-5.092 -0.41449,0 -0.75415,-0.002 -1.07446,-0.002 -0.80518,0 -1.48743,0.01292 -2.92353,0.10379 -2.01257,0.13122 -4.24511,0.39386 -4.24511,0.39386 v 8.3244 a 12.64009,12.64009 0 0 0 2.97729,0.78351 49.87577,49.87577 0 0 0 5.95221,0.47839 M 582.41537,0.00491 c -2.60047,0 -4.01557,0.08818 -6.36005,0.2343 -0.736,0.04587 -1.58527,0.09882 -2.62164,0.15862 -4.45087,0.25685 -9.28327,0.76823 -9.48682,0.78988 a 7,7 0 0 0 -6.25977,6.96076 v 27.832 a 7,7 0 0 0 7,7 h 9.14991 a 7,7 0 0 0 7,-7 v -2.21961 q 1.52325,0.06936 3.10345,0.06943 c 17.99921,0 24.57489,-8.56958 24.727,-16.58941 A 14.227,14.227 0 0 0 604.49429,6.80276 C 600.06551,2.292 592.63711,0.00491 582.41537,0.00491 Z"
         fill="#ffffff"
         id="path63" />
      <path
         d="m 549.05514,39.4805 a 3.499,3.499 0 0 1 -2.31739,-0.87744 l -9.43261,-8.33545 v 5.71289 a 3.50018,3.50018 0 0 1 -3.5,3.5 h -9.15039 a 3.50017,3.50017 0 0 1 -3.5,-3.5 V 8.14847 A 3.50067,3.50067 0 0 1 524.28463,4.668 c 0.20019,-0.021 4.95117,-0.52393 9.31933,-0.77588 l 1.86231,-0.10889 c 2.85351,-0.16845 4.15625,-0.24511 6.875,-0.27783 0.29785,-0.0039 0.58984,-0.00537 0.88086,-0.00537 9.21094,0 15.41992,1.7334 18.98144,5.29932 a 11.31587,11.31587 0 0 1 3.31446,8.313 c -0.004,3.46337 -2.13965,7.46386 -7.70313,9.97705 l 7.249,6.23828 a 3.50018,3.50018 0 0 1 -2.28321,6.15283 z m -11.75,-22.07617 a 3.52246,3.52246 0 0 1 0.42382,0.03271 38.83426,38.83426 0 0 0 5.00586,0.437 c 3.5752,0 4.80567,-0.66455 5.1045,-0.87451 a 0.298,0.298 0 0 0 -0.10547,-0.16455 c -0.582,-0.59082 -2.41992,-1.28076 -5.68555,-1.28076 l -1.07617,-0.002 c -0.68555,0 -1.28028,0.0068 -2.7002,0.09716 -0.31836,0.02051 -0.64453,0.04493 -0.96679,0.07129 z"
         fill="#ff0000"
         id="path65" />
      <path
         d="m 543.22213,7 c 11.93713,1.8e-4 18.80456,3.04562 18.7959,10.1081 -0.004,3.7237 -3.77021,7.17188 -11.35773,8.44275 l 12.12024,10.42957 h -13.7251 l -13.7251,-12.12811 c 0,0 1.81794,-2.9488 1.91806,-2.94866 h 6.4e-4 a 43.18337,43.18337 0 0 0 5.48572,0.47021 c 5.61743,0 8.5611,-1.47412 8.60828,-4.22754 0.0541,-3.30414 -3.67682,-5.092 -9.29468,-5.092 -0.41473,0 -0.75458,-0.002 -1.075,-0.002 -0.80518,0 -1.48724,0.01292 -2.92352,0.10379 -2.01215,0.13122 -4.24512,0.39386 -4.24512,0.39386 v 23.43047 h -9.1499 V 8.14847 c 0,0 4.81659,-0.51221 9.1499,-0.76227 4.33331,-0.25006 5.4353,-0.3432 8.57837,-0.38129 0.28277,-0.00326 0.56171,-0.00491 0.839,-0.00489 m 1.2e-4,-7 h -1.2e-4 c -0.30408,0 -0.60987,0.0018 -0.91992,0.00539 -2.80567,0.034 -4.13544,0.11238 -7.04908,0.28413 l -1.85162,0.10829 c -4.451,0.25687 -9.28332,0.76825 -9.48685,0.7899 a 7,7 0 0 0 -6.25979,6.96076 v 27.832 a 7,7 0 0 0 7,7 h 9.1499 a 7.003,7.003 0 0 0 6.75684,-5.16423 l 3.85864,3.40973 a 7.00012,7.00012 0 0 0 4.63519,1.7545 h 13.7251 a 7,7 0 0 0 4.56579,-12.306 L 563.733,27.56516 A 13.48068,13.48068 0 0 0 569.018,17.116 14.89067,14.89067 0 0 0 564.6798,6.32636 C 560.42824,2.06956 553.40945,1.8e-4 543.22225,0 Z"
         fill="#ffffff"
         id="path67" />
      <path
         d="m 420.2734,40.627 c -15.66358,0 -23.51416,-4.80127 -23.84082,-5.00537 a 3.49989,3.49989 0 0 1 -1.29492,-4.48828 l 3.30859,-6.854 a 3.50335,3.50335 0 0 1 0.44482,-0.69727 11.01117,11.01117 0 0 1 -1.94433,-2.11767 9.0219,9.0219 0 0 1 -1.58106,-6.55469 9.287,9.287 0 0 1 2.76807,-5.519 c 3.70605,-3.79688 10.47217,-5.77686 20.11084,-5.88575 l 0.82959,-0.00439 c 10.85742,0 19.76025,2.64551 21.26318,5.1167 1.19092,1.96191 0.63721,2.97851 -2.96728,9.59326 a 3.489,3.489 0 0 1 -0.64356,0.8457 c 3.0293,2.03418 5.66651,5.19483 5.415,9.6001 -0.48388,8.47852 -6.41553,11.8335 -21.15674,11.96777 z"
         fill="#ff0000"
         id="path69" />
      <path
         d="m 419.07442,7.00038 c 12.08805,0 18.13166,3.204 18.27265,3.43569 0.1441,0.23724 -3.05011,6.10028 -3.05011,6.10028 a 56.085,56.085 0 0 0 -10.65839,-3.22364 39.4235,39.4235 0 0 0 -7.17291,-0.77484 c -5.26114,0 -6.171,1.75591 -6.171,1.81244 -0.72443,2.20331 5.088,3.0968 10.66663,3.89765 4.8551,0.69439 9.52325,1.71954 9.52325,1.71954 0,0 8.51013,2.39776 8.163,8.48944 -0.27942,4.8927 -2.37634,8.52771 -17.69439,8.66705 q -0.34319,0.0031 -0.68061,0.0031 c -14.83877,0 -21.98315,-4.47206 -21.98315,-4.47206 l 3.30884,-6.85419 c 0,0 5.4519,4.27454 20.706,5.51148 0.42368,0.03467 0.97321,0.06891 1.56378,0.06891 1.85477,0 4.11356,-0.33773 4.14264,-2.06025 0.038,-2.2666 -6.60437,-3.82507 -15.92773,-4.77832 -15.19574,-1.55914 -13.2425,-9.15014 -13.2425,-9.15014 0,0 -0.106,-8.16718 19.44385,-8.38764 0.26642,-0.003 0.52936,-0.00453 0.79016,-0.00453 m 0,-7 q -0.43066,0 -0.87,0.005 C 407.60329,0.1249 400.00756,2.46012 395.62902,6.94616 a 12.78986,12.78986 0 0 0 -3.73065,7.47844 12.51689,12.51689 0 0 0 2.17654,9.04037 q 0.25443,0.36532 0.53281,0.71495 l -2.62226,5.432 a 7,7 0 0 0 2.58985,8.97662 c 0.90564,0.5669 9.321,5.53861 25.6972,5.53861 q 0.36956,0 0.74448,-0.0034 c 11.74881,-0.10688 23.86169,-2.00438 24.61914,-15.26767 a 13.28138,13.28138 0 0 0 -4.328,-10.57692 c 0.23984,-0.44984 0.50763,-0.95575 0.7734,-1.46492 1.89267,-3.62609 3.38761,-6.4902 1.24823,-10.01223 -0.64526,-1.06026 -1.84063,-3.02446 -8.79507,-4.9234 A 59.83254,59.83254 0 0 0 419.07442,3.8e-4 Z"
         fill="#ffffff"
         id="path71" />
      <path
         d="M 334.64905,45.99888 370.23307,107 h 48.2926 l -35.584,-61.00114 z m 7.62534,3.81264 H 379.129 l 30.39083,52.10524 h -36.85509 z"
         fill="#ff0000"
         id="path73" />
      <path
         d="M 347.3707,78.69812 319.39887,107 h 44.48 z m -1.49568,7.968 10.37871,16.52123 H 329.5658 Z"
         fill="#ff0000"
         id="path75" />
      <path
         d="m 404.593,74.27931 27.97159,-28.29722 h -44.48 z m 1.49544,-7.96382 -10.37871,-16.521 h 26.68793 z"
         fill="#ff0000"
         id="path77" />
      <path
         d="m 440.23612,85.71729 a 7.99886,7.99886 0 0 0 -0.43192,2.33432 c -0.22019,1.64367 -0.34322,2.86751 -0.36445,3.66417 0.229,1.703 0.80923,1.716 1.74944,2.5757 0.784,0.48279 1.45312,0.34695 3.33821,0.55892 1.88509,0.21622 13.10665,0.22 15.00456,0.0084 a 10.74737,10.74737 0 0 0 4.51166,-1.14729 c 2.01654,-1.26683 3.38493,-3.0889 4.10054,-8.01054 0.51249,-2.6565 0.73709,-3.33917 0.6778,-4.592 a 3.48785,3.48785 0 0 0 -2.56729,-3.37231 c -1.63482,-0.56781 -4.02,-0.29229 -6.67184,-0.29229 h -5.23568 c -5.63027,0 -9.04016,0.02472 -10.7261,1.1898 -1.91895,1.28357 -2.68146,2.99074 -3.38493,7.08311 z M 480.4927,66.10864 h -7.97248 a 21.17906,21.17906 0 0 0 0.14005,-4.3763 c -0.0551,-1.19492 -0.17835,-2.24137 -0.72049,-2.62662 -1.13514,-0.97826 -5.761,-0.89 -10.68363,-0.89 h -4.60481 c -4.89668,0 -7.76051,-0.02941 -9.24753,1.07212 a 9.86723,9.86723 0 0 0 -3.486,6.85861 l -1.29671,5.29006 a 3.96081,3.96081 0 0 1 2.80425,-1.50309 c 3.40645,-0.36843 9.07851,-0.02568 11.20918,-0.02568 5.19343,0.08917 9.48494,-0.21575 12.27662,0.24137 2.79144,0.46186 5.829,1.06328 7.28164,2.63972 q 1.92585,1.9752 2.11388,6.061 a 42.14294,42.14294 0 0 1 -1.06323,8.79927 40.36407,40.36407 0 0 1 -1.55425,5.30315 16.6727,16.6727 0 0 1 -2.44473,4.38514 c -1.0378,1.34717 -2.27474,3.68144 -3.71061,4.46079 -2.26637,1.15619 -5.17243,1.08007 -7.79928,1.3892 -2.62614,0.30955 -6.83709,0 -11.00955,0 a 100.18046,100.18046 0 0 1 -10.21336,-0.23722 14.35015,14.35015 0 0 1 -6.7101,-2.3511 q -3.22161,-2.34436 -3.61354,-7.74813 a 34.92458,34.92458 0 0 1 0.62247,-6.35009 l 4.44419,-23.32 c 0.84285,-5.10473 2.40576,-9.08664 6.12129,-11.45873 a 19.12053,19.12053 0 0 1 7.52354,-2.55447 99.68093,99.68093 0 0 1 12.06881,-0.62691 H 467.5 a 18.98208,18.98208 0 0 1 8.79012,1.77511 q 4.6708,1.77244 4.91839,7.07852 a 60.76544,60.76544 0 0 1 -0.71581,8.71428 z"
         fill="#ff0000"
         id="path79" />
      <path
         d="m 511.124,55.99631 c -5.23922,0 -10.00957,0.23745 -11.76742,0.7114 -1.71583,0.47911 -2.79192,0.4366 -3.56706,1.6649 a 10.1892,10.1892 0 0 0 -1.47393,3.8673 q -0.318,2.02146 -0.568,5.43159 a 3.85972,3.85972 0 0 0 1.30934,2.812 c 1.3551,0.8559 6.10374,0.9325 12.27174,0.9325 5.524,0 9.64627,-0.11442 11.80683,-1.05065 a 4.84215,4.84215 0 0 0 2.36326,-2.43565 14.101,14.101 0 0 0 1.53764,-4.5747 18.75317,18.75317 0 0 0 0.35676,-3.66886 2.73244,2.73244 0 0 0 -1.18278,-2.54605 10.14443,10.14443 0 0 0 -3.82478,-0.915 q -2.58112,-0.22899 -7.2616,-0.22878 z m 13.37347,18.91852 c 3.28313,1.34716 3.28313,4.51592 3.3681,8.16326 a 33.5273,33.5273 0 0 1 -0.0336,4.24925 c -0.16951,0.9568 -0.11438,1.6946 -0.17324,2.00325 -0.72518,3.34663 -0.96191,4.82127 -2.09333,6.79879 -1.13094,1.98316 -1.79591,3.40224 -3.7697,4.46126 a 18.603,18.603 0 0 1 -6.54107,2.0294 95.47272,95.47272 0 0 1 -11.35253,0.56734 h -5.27 a 89.1367,89.1367 0 0 1 -10.70487,-0.49547 9.5614,9.5614 0 0 1 -5.60062,-2.90161 c -1.42725,-1.24584 -2.78259,-4.27029 -3.01583,-7.185 0.0761,-1.35974 0.31778,-2.0546 0.72029,-4.61719 0.52951,-2.36794 0.65651,-4.2745 1.07586,-5.54506 a 13.77926,13.77926 0 0 1 2.18136,-3.92286 13.05068,13.05068 0 0 1 3.88924,-2.93154 c 0.99108,-0.56781 1.28763,-0.78351 0.27528,-1.631 a 4.98378,4.98378 0 0 1 -1.72424,-2.93155 c -0.16109,-0.35531 -0.24563,-3.81216 -0.26266,-3.92658 0.49145,-7.892 2.55868,-11.91217 6.25714,-14.94967 2.17275,-1.86386 3.13021,-2.9696 7.951,-3.31259 2.47419,-0.19915 9.25571,-0.2965 12.721,-0.2965 4.77876,0 9.4254,0.1018 11.40388,0.30516 a 21.7685,21.7685 0 0 1 4.5327,1.11392 c 1.28878,0.49121 1.15663,1.32593 2.13909,2.50775 a 8.70085,8.70085 0 0 1 1.37332,5.18084 31.08445,31.08445 0 0 1 -0.32175,5.10424 21.42315,21.42315 0 0 1 -1.3859,5.1262 10.82694,10.82694 0 0 1 -2.60515,3.94853 c -1.33922,1.45738 -1.152,2.47768 -2.92355,3.05806 -0.38057,0.12748 -0.58369,0.0383 -0.57575,-0.021 0.004,-0.04674 0.15694,-0.07663 0.46558,0.05037 z m -18.7187,3.52039 c -3.3681,0 -6.81208,-0.01262 -8.62923,0.1905 a 13.65418,13.65418 0 0 0 -4.46943,1.165 5.47761,5.47761 0 0 0 -2.58388,2.61821 22.47536,22.47536 0 0 0 -1.73682,5.2868 34.16745,34.16745 0 0 0 -0.45343,3.90139 c 0.16109,1.38967 0.45343,2.20685 1.5038,2.66865 a 12.02911,12.02911 0 0 0 4.65975,1.356 c 1.59275,0.17276 5.74861,0.25821 9.92179,0.25821 4.33331,0 7.73081,0.30076 10.08192,-0.57618 1.109,-0.48754 2.33336,-0.62247 3.03707,-1.87668 a 17.3827,17.3827 0 0 0 1.55028,-4.96046 18.56233,18.56233 0 0 0 0.60564,-4.34589 c -0.029,-1.19491 -0.36378,-3.377 -1.01284,-3.99993 q -0.80545,-0.90774 -3.59178,-1.3509 a 68.80329,68.80329 0 0 0 -8.8828,-0.33472 z"
         fill="#ff0000"
         id="path81" />
      <path
         d="m 551.46535,103.18738 a 70.97951,70.97951 0 0 1 -12.58574,-0.90215 10.6198,10.6198 0 0 1 -6.09557,-3.16875 c -1.57505,-1.77115 -1.28365,-4.30018 -1.504,-7.76075 a 61.2662,61.2662 0 0 1 0.88531,-8.15485 l 2.87736,-15.11425 a 42.77126,42.77126 0 0 1 2.55748,-8.79878 17.60082,17.60082 0 0 1 4.656,-6.55344 12.11152,12.11152 0 0 1 4.5075,-2.62634 26.01989,26.01989 0 0 1 6.34588,-1.26664 q 3.55183,-0.29837 8.73481,-0.30071 3.91469,0 7.036,0.26662 a 27.37371,27.37371 0 0 1 5.482,0.97013 10.87866,10.87866 0 0 1 3.99851,2.10548 q 2.97465,2.70083 3.10988,8.5018 a 59.56237,59.56237 0 0 1 -0.70743,8.032 L 577.828,83.59924 c -1.58859,8.6297 -3.48721,14.29291 -8.2314,16.99609 a 19.00752,19.00752 0 0 1 -6.95993,2.09658 108.619,108.619 0 0 1 -11.17132,0.49547 z m 9.00191,-46.82218 q -5.4325,0 -7.7729,0.20313 a 14.26783,14.26783 0 0 0 -4.02886,0.86431 7.41154,7.41154 0 0 0 -2.33007,1.5162 10.64837,10.64837 0 0 0 -2.0546,3.313 17.6415,17.6415 0 0 0 -1.7875,4.98614 l -3.25324,17.26224 c -0.37263,2.55422 -0.60564,3.35877 -0.69481,4.95625 a 7.56731,7.56731 0 0 0 0.72006,3.143 4.13983,4.13983 0 0 0 1.70764,1.58858 10.01851,10.01851 0 0 0 3.66413,0.9535 q 2.23019,0.20943 7.35776,0.21154 a 84.4595,84.4595 0 0 0 9.27742,-0.37263 8.70648,8.70648 0 0 0 4.62608,-1.71138 c 1.94018,-1.745 3.05807,-4.35478 4.2021,-9.7901 l 3.00714,-15.91512 A 33.18473,33.18473 0 0 0 573.71,61.93121 c -0.0509,-2.17318 -0.127,-3.30928 -1.07117,-3.97746 a 7.70341,7.70341 0 0 0 -3.8094,-1.30958 q -2.45223,-0.27875 -8.36217,-0.27897 z"
         fill="#ff0000"
         id="path83" />
      <path
         d="m 601.029,103.18738 a 70.98183,70.98183 0 0 1 -12.58623,-0.90215 10.61976,10.61976 0 0 1 -6.09508,-3.16875 c -1.57553,-1.77115 -1.28367,-4.30018 -1.50453,-7.76075 a 61.26746,61.26746 0 0 1 0.88579,-8.15485 l 2.87689,-15.11425 a 42.7412,42.7412 0 0 1 2.558,-8.79878 17.59555,17.59555 0 0 1 4.656,-6.55344 12.10906,12.10906 0 0 1 4.507,-2.62634 26.0197,26.0197 0 0 1 6.34588,-1.26664 q 3.55254,-0.29837 8.7348,-0.30071 3.91468,0 7.03648,0.26662 a 27.38478,27.38478 0 0 1 5.482,0.97013 10.88,10.88 0 0 1 3.998,2.10553 q 2.97538,2.70083 3.11032,8.5018 a 59.57554,59.57554 0 0 1 -0.70787,8.032 l -2.93526,15.18248 c -1.58859,8.6297 -3.48673,14.29291 -8.231,16.99609 a 19.0096,19.0096 0 0 1 -6.96036,2.09658 108.61574,108.61574 0 0 1 -11.17083,0.49543 z m 9.0019,-46.82218 q -5.43321,0 -7.77337,0.20313 a 14.26791,14.26791 0 0 0 -4.02887,0.86431 7.404,7.404 0 0 0 -2.32958,1.5162 10.65568,10.65568 0 0 0 -2.05508,3.313 17.65834,17.65834 0 0 0 -1.787,4.98614 l -3.25373,17.26224 c -0.37262,2.55422 -0.60563,3.35877 -0.69481,4.95625 a 7.55956,7.55956 0 0 0 0.72049,3.143 4.13748,4.13748 0 0 0 1.70765,1.58858 10.01629,10.01629 0 0 0 3.6637,0.9535 q 2.23017,0.20943 7.35823,0.21154 a 84.46627,84.46627 0 0 0 9.27743,-0.37263 8.70971,8.70971 0 0 0 4.62608,-1.71138 c 1.93969,-1.745 3.05758,-4.35478 4.20162,-9.7901 l 3.00762,-15.91512 a 33.16926,33.16926 0 0 0 0.6019,-5.64265 c -0.0509,-2.17318 -0.127,-3.30928 -1.07117,-3.97746 a 7.70154,7.70154 0 0 0 -3.80939,-1.30958 q -2.45155,-0.27875 -8.36172,-0.27897 z"
         fill="#ff0000"
         id="path85" />
      <path
         d="m 650.59216,103.18738 a 70.9723,70.9723 0 0 1 -12.58575,-0.90215 10.62,10.62 0 0 1 -6.09561,-3.16875 c -1.57548,-1.77115 -1.28361,-4.30018 -1.504,-7.76075 a 61.27611,61.27611 0 0 1 0.88536,-8.15485 L 634.169,68.08663 a 42.771,42.771 0 0 1 2.558,-8.79878 17.60071,17.60071 0 0 1 4.656,-6.55344 12.11112,12.11112 0 0 1 4.5075,-2.62634 26.019,26.019 0 0 1 6.34589,-1.26664 q 3.55182,-0.29837 8.73475,-0.30071 3.91468,0 7.036,0.26662 a 27.3737,27.3737 0 0 1 5.482,0.97013 10.88538,10.88538 0 0 1 3.9985,2.10548 q 2.97475,2.70083 3.1099,8.5018 a 59.55605,59.55605 0 0 1 -0.70744,8.032 l -2.93522,15.18248 c -1.58858,8.6297 -3.48721,14.29291 -8.23145,16.99609 a 19.00667,19.00667 0 0 1 -6.96036,2.09658 108.6156,108.6156 0 0 1 -11.17091,0.49548 z m 9.00191,-46.82218 q -5.43258,0 -7.77337,0.20313 a 14.26374,14.26374 0 0 0 -4.02838,0.86431 7.40048,7.40048 0 0 0 -2.33007,1.5162 10.65568,10.65568 0 0 0 -2.05508,3.313 17.65768,17.65768 0 0 0 -1.787,4.98614 l -3.25372,17.26224 c -0.37263,2.55422 -0.60516,3.35877 -0.69432,4.95625 a 7.56792,7.56792 0 0 0 0.72,3.143 4.14044,4.14044 0 0 0 1.70764,1.58858 10.01907,10.01907 0 0 0 3.66418,0.9535 q 2.22947,0.20943 7.35776,0.21154 a 84.45979,84.45979 0 0 0 9.27741,-0.37263 8.70648,8.70648 0 0 0 4.62609,-1.71138 c 1.94018,-1.745 3.05806,-4.35478 4.20163,-9.7901 l 3.00761,-15.91512 a 33.18608,33.18608 0 0 0 0.6024,-5.64265 c -0.0514,-2.17318 -0.12706,-3.30928 -1.07166,-3.97746 a 7.69974,7.69974 0 0 0 -3.809,-1.30958 Q 665.504,56.36542 659.59407,56.3652 Z"
         fill="#ff0000"
         id="path87" />
      <polygon
         points="477.76,8.148 468.229,8.148 468.229,18.824 449.928,18.824 449.928,8.148 440.397,8.148 440.397,35.98 449.928,35.98 449.928,24.924 468.229,24.924 468.229,35.98 477.76,35.98 "
         fill="#ff0000"
         id="polygon89" />
      <path
         d="m 499.30129,14.15583 6.02738,10.0056 h -12.05949 z m 9.47677,15.72457 3.6768,6.10006 h 11.05646 l -16.77523,-27.832 h -11.0567 l -16.77528,27.832 h 7.24389 l 3.67723,-6.10006 z"
         fill="#ff0000"
         id="path91" />
      <path
         d="m 564.6871,8.14849 v 27.832 h 9.1499 v -10.078 a 51.35182,51.35182 0 0 0 10.10343,0.92781 c 12.10664,0 17.6265,-4.35454 17.7283,-9.72215 0.1181,-6.43878 -7.1467,-10.1032 -19.25334,-10.1032 -3.14355,0 -4.24509,0.13121 -8.57839,0.38128 -4.3333,0.25007 -9.1499,0.76226 -9.1499,0.76226 z M 573.837,12.55 c 0,0 2.23252,-0.26266 4.24509,-0.39386 2.0074,-0.127 2.5416,-0.1018 3.998,-0.1018 5.61788,0 8.96824,1.78793 8.91316,5.0921 -0.0462,2.75338 -2.60931,4.98982 -8.22676,4.98982 a 49.87915,49.87915 0 0 1 -5.95221,-0.47835 12.63956,12.63956 0 0 1 -2.9773,-0.78356 z"
         fill="#ff0000"
         id="path93" />
      <path
         d="m 524.65487,8.14849 v 27.832 h 9.1499 V 12.55 c 0,0 2.233,-0.26266 4.24509,-0.39386 2.00788,-0.127 2.5416,-0.1018 3.9985,-0.1018 5.61788,0 9.34881,1.78793 9.29468,5.0921 -0.0472,2.75338 -2.99083,4.22754 -8.60828,4.22754 a 43.18769,43.18769 0 0 1 -5.48572,-0.47022 c -0.093,-0.01286 -1.91871,2.94856 -1.91871,2.94856 l 13.72511,12.12816 h 13.72511 L 550.66033,25.55087 c 7.58751,-1.27086 11.35348,-4.719 11.35769,-8.44275 0.009,-7.22655 -7.18036,-10.24722 -19.63485,-10.1032 -3.14308,0.03806 -4.24509,0.13121 -8.5784,0.38128 -4.33331,0.25007 -9.1499,0.76229 -9.1499,0.76229 z"
         fill="#ff0000"
         id="path95" />
      <path
         d="m 434.297,16.53634 c 0,0 3.19419,-5.863 3.05013,-6.10025 -0.14407,-0.23674 -6.44744,-3.57519 -19.06284,-3.43117 -19.54984,0.22043 -19.44383,8.38762 -19.44383,8.38762 0,0 -1.95327,7.591 13.2425,9.15018 9.32337,0.95325 15.96576,2.51171 15.92769,4.77828 -0.0383,2.271 -3.95226,2.13493 -5.70639,1.99134 -15.2541,-1.237 -20.706,-5.51145 -20.706,-5.51145 l -3.30881,6.85417 c 0,0 7.36245,4.60877 22.66375,4.469 15.31809,-0.13938 17.415,-3.77439 17.69439,-8.6671 0.34719,-6.09164 -8.163,-8.48942 -8.163,-8.48942 0,0 -4.66812,-1.02517 -9.52324,-1.71955 -5.57868,-0.80082 -11.39107,-1.69435 -10.66662,-3.89766 0,-0.07607 1.64812,-3.232 13.34387,-1.03755 a 56.086,56.086 0 0 1 10.6584,3.22356 z"
         fill="#ff0000"
         id="path97" />
    </g>
  </g>
  <metadata
     id="metadata921">
    <rdf:RDF>
      <cc:Work
         rdf:about="">
        <dc:title>logo</dc:title>
      </cc:Work>
    </rdf:RDF>
  </metadata>
</svg>
