<?xml version="1.0" encoding="UTF-8" standalone="no"?>
<svg
   id="Calque_1"
   data-name="Calque 1"
   width="83.312691"
   height="24.623749"
   viewBox="0 0 83.312694 24.623749"
   version="1.1"
   sodipodi:docname="zmachine.svg"
   inkscape:version="1.1 (c68e22c387, 2021-05-23)"
   xmlns:inkscape="http://www.inkscape.org/namespaces/inkscape"
   xmlns:sodipodi="http://sodipodi.sourceforge.net/DTD/sodipodi-0.dtd"
   xmlns="http://www.w3.org/2000/svg"
   xmlns:svg="http://www.w3.org/2000/svg">
  <defs
     id="defs34" />
  <sodipodi:namedview
     id="namedview32"
     pagecolor="#ffffff"
     bordercolor="#666666"
     borderopacity="1.0"
     inkscape:pageshadow="2"
     inkscape:pageopacity="0.0"
     inkscape:pagecheckerboard="true"
     showgrid="false"
     fit-margin-top="0"
     fit-margin-left="0"
     fit-margin-right="0"
     fit-margin-bottom="0"
     inkscape:zoom="2.2301034"
     inkscape:cx="80.041131"
     inkscape:cy="44.39256"
     inkscape:window-width="1920"
     inkscape:window-height="1138"
     inkscape:window-x="-8"
     inkscape:window-y="-8"
     inkscape:window-maximized="1"
     inkscape:current-layer="Calque_1"
     inkscape:snap-global="true" />
  <g
     id="g845"
     transform="scale(0.3210042)">
    <rect
       style="fill:#ffffff;fill-rule:evenodd;stroke:#ffffff;stroke-width:11.8246;stroke-linecap:round;stroke-linejoin:round;stroke-miterlimit:4;stroke-dasharray:none;paint-order:stroke fill markers"
       id="rect1054"
       width="122.15115"
       height="45.41935"
       x="114.45987"
       y="14.899907"
       inkscape:export-filename="C:\Users\BUCH\Desktop\Retrogaming\Recalbox\travail thèmes\BlueBox\zmachine\rect1054.png"
       inkscape:export-xdpi="572.47418"
       inkscape:export-ydpi="572.47418" />
    <path
       id="path2"
       style="stroke:#ffffff;stroke-width:10;stroke-linecap:round;stroke-linejoin:round;stroke-miterlimit:4;stroke-dasharray:none;paint-order:stroke fill markers"
       d="M 18.889295,4.9997877 6.1392953,22.999788 c 0,0 10.1401557,-5.220469 12.1601557,-6.730469 a 41.73,41.73 0 0 0 12.699219,4.458985 107.9,107.9 0 0 0 14.330078,1.601562 L 33.361951,35.749788 H 18.527967 c -1.2742,0 -2.298828,1.024628 -2.298828,2.298828 v 1.839844 c 0,1.2742 1.024628,2.300781 2.298828,2.300781 h 9.091797 L 4.9986703,67.558382 c 0,0 5.0493747,-2.098672 24.3593747,-1.388672 17.72,0.65 22.460937,5.539062 22.460937,5.539062 L 64.719373,53.769319 c 0,0 -8.451094,4.179688 -12.621094,6.179688 a 50.64,50.64 0 0 0 -11,-4 c -6.18,-1.68 -15.699218,-1.679688 -15.699218,-1.679688 0,0 6.349192,-7.127095 10.765625,-12.080078 h 18.654296 c 1.274201,0 2.298829,-1.026581 2.298829,-2.300781 v -1.839844 c 0,-1.2742 -1.024629,-2.298828 -2.298829,-2.298828 H 41.90492 C 52.225394,24.151542 63.241146,11.722322 65.459608,8.9880689 c -6.19,1.2700001 -11.12,1.6506251 -25.5,1.3906251 -14.380001,-0.26 -21.070313,-5.3789063 -21.070313,-5.3789063 z m 93.749995,4.3300781 a 3.24,3.24 0 0 0 -3,3.4082032 v 13.541016 a 3.24,3.24 0 0 0 3,3.410156 3.24,3.24 0 0 0 3,-3.410156 V 12.738069 a 3.24,3.24 0 0 0 -3,-3.4082032 z m 7.26954,0 a 2.76,2.76 0 0 0 -1.79102,0.6582031 2.92,2.92 0 0 0 -1.32031,2.4003911 2.74,2.74 0 0 0 0.0801,0.640625 v 13.25 a 3.06,3.06 0 1 0 6.07031,0 V 15.439241 h 7.81055 v 10.839844 a 3.06,3.06 0 1 0 6.07031,0 V 12.738069 a 3.23,3.23 0 0 0 -3,-3.4082032 2.22,2.22 0 0 0 -0.3711,0 h -13.2383 a 1.56,1.56 0 0 0 -0.31054,0 z m 21.08984,0 a 3.23,3.23 0 0 0 -3,3.4082032 v 13.541016 a 3.06,3.06 0 1 0 6.07031,0 v -3.160156 h 10.42969 a 3.24,3.24 0 0 0 3.37891,-3 3.24,3.24 0 0 0 -3.40821,-3 h -10.43164 v -1.679688 h 10.43164 a 3.24,3.24 0 0 0 3.40821,-3.050781 3.24,3.24 0 0 0 -3.40821,-3.0000004 h -13.12109 z m 25.08008,0 a 7.39,7.39 0 0 0 -7.41016,7.3984382 v 5.271484 a 7.39,7.39 0 0 0 7.41016,7.398438 h 5.39062 a 7.39,7.39 0 0 0 7.40821,-7.398438 v -5.271484 a 7.39,7.39 0 0 0 -7.40821,-7.3984382 z m 21.25976,0 a 7.38,7.38 0 0 0 -7.40039,7.3984382 v 5.271484 a 7.39,7.39 0 0 0 7.09961,7.398438 h 9.40039 a 3.24,3.24 0 0 0 3.41016,-3 3.24,3.24 0 0 0 -3.41016,-3 h -9.40039 a 2,2 0 0 1 -1.16015,-1.789063 v -4.240234 a 2,2 0 0 1 1.59179,-1.929688 h 9 a 3.24,3.24 0 0 0 3.40821,-3.050781 3.24,3.24 0 0 0 -3.40821,-3.0000004 h -7.11132 z m 20.50977,0 a 7.38,7.38 0 0 0 -7.40039,7.3984382 v 5.271484 a 7.38,7.38 0 0 0 7.40039,7.398438 h 5.40039 a 7.38,7.38 0 0 0 7.40039,-7.398438 v -5.271484 a 7.38,7.38 0 0 0 -7.40039,-7.3984382 z m 17.01953,0.019531 a 3.24,3.24 0 0 0 -3.41016,3.0000002 1.83,1.83 0 0 0 0,0.330078 3.4,3.4 0 0 0 0,0.449219 v 12.990235 a 3.06,3.06 0 1 0 6.08985,0 V 15.439241 h 1.5 v 10.679688 a 3.06,3.06 0 1 0 6.09179,0 V 15.439241 h 0.70899 l 4.07031,12.208985 a 3.07,3.07 0 1 0 5.7793,-1.929688 l -4.10938,-12.320313 c -0.14,-0.39 -0.21031,-0.63 -0.32031,-1 a 3.5,3.5 0 0 0 -3.41015,-2.9999998 z m -58.41016,6.2695312 h 4.30079 a 2,2 0 0 1 2,2 v 4.210937 a 2,2 0 0 1 -2,2 h -4.30079 a 2,2 0 0 1 -2,-2 v -4.25 a 2,2 0 0 1 2,-1.960937 z m 41.78125,0 h 4.25977 a 2,2 0 0 1 2,2 v 4.210937 a 2,2 0 0 1 -2,2 h -4.25977 a 2,2 0 0 1 -2,-2 v -4.25 a 2,2 0 0 1 2,-1.960937 z M 150.76039,34.47049 c -5.417,-0.05852 -10.42016,4.320859 -11.97266,10.279297 -2.78,8.82 0.0604,23.398359 11.15039,23.818359 5.69,-0.1 8.71063,-3.268828 10.64063,-9.048828 l -1.41016,-0.830078 c -1.24,5.13 -6.50976,9.398906 -11.50976,6.128906 -4.1,-2.91 -5.34961,-8.36914 -5.34961,-13.36914 0.01,-3.96 0.59007,-7.960625 2.33007,-11.140625 1.74001,-3.18 5.78946,-5.14 8.93946,-3 2.78,1.98 3.80898,6.260234 4.45898,9.490234 h 1.54102 L 159.40883,35.18924 h -1.5 l -0.78125,1.560548 c -2.06438,-1.5525 -4.24749,-2.256399 -6.36719,-2.279298 z m -26.08203,0.267578 c -2.48,7.78 -6.18977,19.57086 -8.75977,27.38086 -0.61,2.21 -2.09039,3.84 -4.40039,4 v 0.01563 c -1.59374,-0.22919 -3.26884,-1.053149 -3.03906,-2.935547 V 39.718538 a 4.24,4.24 0 0 1 0.21875,-1.400391 c 0.41,-1.23 2.32015,-1.298984 3.41016,-1.458984 v -1.630859 h -8.70899 c -0.05,2.54 -6.620156,21.551406 -7.410156,24.441406 L 88.348279,35.228304 H 79.24867 v 1.621093 a 4,4 0 0 1 3.910156,2.75 c 0.57,1 0.169297,17.44 0.279297,19 -0.02,4.29 0.150625,7.299532 -4.359375,7.519532 v 1.630859 h 10.769531 v -1.630859 c -1.91,-0.3 -4.089062,-0.999454 -4.289062,-3.439453 -0.59,-2.600001 -0.180781,-20.620235 -0.300781,-23.740235 h 0.25 l 8.669922,28.330078 h 0.939453 l 9.111329,-27.75 h 0.2793 v 23.638672 a 3.15,3.15 0 0 1 -0.2793,1.421875 c -0.49,1.4 -2.62086,1.479063 -3.88086,1.539063 v 1.669921 h 11.79101 v -0.03906 h 9.37891 v -1.630859 c -1.87,-0.1 -4.50976,-0.7 -3.75976,-3 a 53.63,53.63 0 0 1 1.75,-6.63086 h 9.36914 c 0.13,0.62 2.53132,7.880078 2.36132,8.330078 -0.32,1.09 -2.16015,1.130782 -3.41015,1.300782 v 1.669921 h 11.09961 v -1.669921 a 4.24,4.24 0 0 1 -3.19922,-1.839844 5.65,5.65 0 0 1 -0.64063,-1.449219 l -8.90039,-28.091797 z m 36.55078,0.490235 v 1.630859 c 1.69,0.17 3.78008,1.089844 3.58008,3.089844 v 23.470703 c 0.16,2.37 -1.74008,2.619219 -3.58008,2.699219 v 1.669921 h 11.08008 V 66.15799 c -1.06,-0.09 -2.91125,-0.469609 -3.28125,-1.599609 -0.43,-0.37 -0.13875,-11.899453 -0.21875,-12.689453 h 12.51953 c -0.11,0.83 0.27023,12.54 -0.25977,13 -0.45,1.19 -2.31054,1.12 -3.31054,1.25 v 1.669921 h 11.09961 l 1.71093,0.04102 v -0.04102 h 12.01953 0.72071 10.93945 V 66.15799 c -1.97,-0.33 -4.26094,-0.998828 -4.46094,-3.548828 -0.58,-2.67 -0.17906,-18.010625 -0.28906,-21.140625 l 16.16992,26.669922 h 1.64063 c 0.09,-2.88 -0.24149,-25.74 0.22851,-28 0.09,-2.5 2.20985,-2.989297 4.08985,-3.279297 h 0.14062 c 1.17,-0.02 3.26117,0.52 3.70117,1.75 a 4,4 0 0 1 0.20899,1.339844 v 23.36914 c 0.2,2.43 -1.93078,2.660782 -3.80078,2.800782 v 1.669921 h 22.16015 l 0.5,-9.589843 h -1.33984 c -2.72,7.93 -3.00984,8.079844 -11.33984,7.589843 -2.17,-0.289999 -2.16993,-2.160156 -2.16993,-4.160156 v -9.759765 c 5.15,-0.16 6.80039,-0.189219 7.40039,5.550781 h 1.41016 V 44.657991 h -1.41016 c -0.66,5.57 -2.40039,5.470313 -7.40039,5.320313 V 37.079866 a 70.09,70.09 0 0 1 7.42969,0.179688 c 1.79,0.31 3.67,4.159375 4,5.859375 h 1.41016 v -7.890625 h -20.63868 -0.12109 -10.98047 v 1.630859 c 1.89,0.33 4.21039,0.830078 4.40039,3.330078 0.59,2.68 0.19078,16.739375 0.30078,19.859375 l -15,-24.820312 h -7.63085 -12.28907 -12.78125 v 1.630859 c 1.12,0.17 2.84008,0.57 3.33008,1.75 0.48,0.55 0.15023,10.318984 0.24024,11.208984 h -12.54883 c 0.08,-0.88 -0.21125,-10.93 0.21875,-11.5 0.39,-1.19 2.21125,-1.308984 3.28125,-1.458984 v -1.630859 z m 29.33984,1.628906 c 1.35929,0.106162 3.303,0.614393 3.79883,1.710937 a 3.69,3.69 0 0 1 0.21094,1.339844 v 23.550781 c 0.22,2.48 -2.15071,2.660157 -4.2207,2.660157 v 0.08008 h -1.5 c -1.71001,-0.12 -3.75024,-0.94 -3.49024,-3 v -23.48047 a 4.51,4.51 0 0 1 0.21094,-1.400391 c 0.39,-1.2 2.21929,-1.298984 3.2793,-1.458984 h 0.83007 0.88086 z m 12.01953,0.002 h 0.16993 a 4.58,4.58 0 0 1 4.60937,3.470703 c 0.58,0.73 0.20078,16.858438 0.30078,18.148438 -0.07,4.59 0.23047,7.410625 -4.76953,7.640625 v 0.03906 h -0.31055 c -1.19,-0.13 -3.20046,-0.348359 -3.73046,-1.568359 a 3.18,3.18 0 0 1 -0.26954,-1.339888 V 39.679476 c -0.28,-2.32 2.25,-2.730313 4,-2.820313 z m -78.40039,4.980469 4,12.638672 h -8 z M 67.059217,53.519319 v 3.59961 h 11.208984 v -3.59961 z"
       inkscape:export-filename="C:\Users\BUCH\Desktop\Retrogaming\Recalbox\travail thèmes\BlueBox\zmachine\rect1054.png"
       inkscape:export-xdpi="572.47418"
       inkscape:export-ydpi="572.47418" />
    <path
       id="path822"
       style="stroke:none;stroke-width:10;stroke-linecap:round;stroke-linejoin:round;stroke-miterlimit:4;stroke-dasharray:none;paint-order:stroke fill markers"
       d="M 18.889294,4.999792 6.139295,22.999788 c 0,0 10.140155,-5.220469 12.160155,-6.730469 a 41.73,41.73 0 0 0 12.69922,4.458985 107.9,107.9 0 0 0 14.330078,1.601562 L 33.361951,35.749788 H 18.527966 c -1.2742,0 -2.298828,1.024628 -2.298828,2.298828 v 1.839844 c 0,1.2742 1.024628,2.300781 2.298828,2.300781 h 9.091798 L 4.99867,67.558382 c 0,0 5.049374,-2.098672 24.359375,-1.388672 17.72,0.65 22.460937,5.539062 22.460937,5.539062 L 64.719373,53.769319 c 0,0 -8.451094,4.179688 -12.621094,6.179688 a 50.64,50.64 0 0 0 -11,-4 c -6.18,-1.68 -15.699219,-1.679688 -15.699219,-1.679688 0,0 6.349193,-7.127095 10.765626,-12.080078 h 18.654296 c 1.274201,0 2.298829,-1.026581 2.298829,-2.300781 v -1.839844 c 0,-1.2742 -1.024629,-2.298828 -2.298829,-2.298828 H 41.90492 C 52.225394,24.151542 63.241146,11.722322 65.459608,8.988072 c -6.19,1.27 -11.12,1.65062 -25.5,1.39062 -14.380002,-0.26 -21.070314,-5.3789 -21.070314,-5.3789 z m 93.749996,4.33007 a 3.24,3.24 0 0 0 -3,3.40821 v 13.541013 a 3.24,3.24 0 0 0 3,3.410156 3.24,3.24 0 0 0 3,-3.410156 V 12.738072 a 3.24,3.24 0 0 0 -3,-3.40821 z m 7.26954,0 a 2.76,2.76 0 0 0 -1.79102,0.65821 2.92,2.92 0 0 0 -1.32031,2.40039 2.74,2.74 0 0 0 0.0801,0.64062 v 13.250003 a 3.06,3.06 0 1 0 6.07031,0 V 15.439242 h 7.81055 v 10.839843 a 3.06,3.06 0 1 0 6.07031,0 V 12.738072 a 3.23,3.23 0 0 0 -3,-3.40821 2.22,2.22 0 0 0 -0.3711,0 h -13.2383 a 1.56,1.56 0 0 0 -0.31054,0 z m 21.08984,0 a 3.23,3.23 0 0 0 -3,3.40821 v 13.541013 a 3.06,3.06 0 1 0 6.07031,0 v -3.160156 h 10.42969 a 3.24,3.24 0 0 0 3.37891,-3 3.24,3.24 0 0 0 -3.40821,-3 h -10.43164 v -1.679687 h 10.43164 a 3.24,3.24 0 0 0 3.40821,-3.05078 3.24,3.24 0 0 0 -3.40821,-3 h -13.12109 z m 25.08008,0 a 7.39,7.39 0 0 0 -7.41016,7.398442 v 5.271484 a 7.39,7.39 0 0 0 7.41016,7.398438 h 5.39062 a 7.39,7.39 0 0 0 7.40821,-7.398438 v -5.271484 a 7.39,7.39 0 0 0 -7.40821,-7.398442 z m 21.25976,0 a 7.38,7.38 0 0 0 -7.40039,7.398442 v 5.271484 a 7.39,7.39 0 0 0 7.09961,7.398438 h 9.40039 a 3.24,3.24 0 0 0 3.41016,-3 3.24,3.24 0 0 0 -3.41016,-3 h -9.40039 a 2,2 0 0 1 -1.16015,-1.789063 v -4.240234 a 2,2 0 0 1 1.59179,-1.929687 h 9 a 3.24,3.24 0 0 0 3.40821,-3.05078 3.24,3.24 0 0 0 -3.40821,-3 h -7.11132 z m 20.50977,0 a 7.38,7.38 0 0 0 -7.40039,7.398442 v 5.271484 a 7.38,7.38 0 0 0 7.40039,7.398438 h 5.40039 a 7.38,7.38 0 0 0 7.40039,-7.398438 v -5.271484 a 7.38,7.38 0 0 0 -7.40039,-7.398442 z m 17.01953,0.0195 a 3.24,3.24 0 0 0 -3.41016,3 1.83,1.83 0 0 0 0,0.33008 3.4,3.4 0 0 0 0,0.44922 v 12.990237 a 3.06,3.06 0 1 0 6.08985,0 V 15.439212 h 1.5 v 10.679687 a 3.06,3.06 0 1 0 6.09179,0 V 15.439212 h 0.70899 l 4.07031,12.208984 a 3.07,3.07 0 1 0 5.7793,-1.929688 l -4.10938,-12.320316 c -0.14,-0.39 -0.21031,-0.63 -0.32031,-1 a 3.5,3.5 0 0 0 -3.41015,-3 z m -58.41016,6.26954 h 4.30079 a 2,2 0 0 1 2,1.999996 v 4.210937 a 2,2 0 0 1 -2,2 h -4.30079 a 2,2 0 0 1 -2,-2 v -4.25 a 2,2 0 0 1 2,-1.960933 z m 41.78125,0 h 4.25977 a 2,2 0 0 1 2,1.999996 v 4.210937 a 2,2 0 0 1 -2,2 h -4.25977 a 2,2 0 0 1 -2,-2 v -4.25 a 2,2 0 0 1 2,-1.960933 z M 150.76039,34.47046 c -5.417,-0.05852 -10.42016,4.320859 -11.97266,10.279297 -2.78,8.82 0.0604,23.398359 11.15039,23.818359 5.69,-0.1 8.71063,-3.268828 10.64063,-9.048828 l -1.41016,-0.830078 c -1.24,5.13 -6.50976,9.398906 -11.50976,6.128906 -4.1,-2.91 -5.34961,-8.36914 -5.34961,-13.36914 0.01,-3.96 0.59007,-7.960625 2.33007,-11.140625 1.74001,-3.18 5.78946,-5.14 8.93946,-3 2.78,1.98 3.80898,6.260234 4.45898,9.490234 h 1.54102 L 159.40883,35.18921 h -1.5 l -0.78125,1.560548 c -2.06438,-1.5525 -4.24749,-2.256399 -6.36719,-2.279298 z m -26.08203,0.267578 c -2.48,7.78 -6.18977,19.57086 -8.75977,27.38086 -0.61,2.21 -2.09039,3.84 -4.40039,4 v 0.01563 c -1.59374,-0.22919 -3.26884,-1.053149 -3.03906,-2.935547 V 39.718508 a 4.24,4.24 0 0 1 0.21875,-1.400391 c 0.41,-1.23 2.32015,-1.298984 3.41016,-1.458984 v -1.630859 h -8.70899 c -0.05,2.54 -6.620156,21.551406 -7.410156,24.441406 L 88.348279,35.228274 H 79.24867 v 1.621093 a 4,4 0 0 1 3.910156,2.75 c 0.57,1 0.169297,17.44 0.279297,19 -0.02,4.29 0.150625,7.299532 -4.359375,7.519532 v 1.630859 h 10.769531 v -1.630859 c -1.91,-0.3 -4.089062,-0.999454 -4.289062,-3.439453 -0.59,-2.600001 -0.180781,-20.620235 -0.300781,-23.740235 h 0.25 l 8.669922,28.330078 h 0.939453 l 9.111329,-27.75 h 0.2793 v 23.638672 a 3.15,3.15 0 0 1 -0.2793,1.421875 c -0.49,1.4 -2.62086,1.479063 -3.88086,1.539063 v 1.669921 h 11.79101 v -0.03906 h 9.37891 v -1.630859 c -1.87,-0.1 -4.50976,-0.7 -3.75976,-3 a 53.63,53.63 0 0 1 1.75,-6.63086 h 9.36914 c 0.13,0.62 2.53132,7.880078 2.36132,8.330078 -0.32,1.09 -2.16015,1.130782 -3.41015,1.300782 v 1.669921 h 11.09961 v -1.669921 a 4.24,4.24 0 0 1 -3.19922,-1.839844 5.65,5.65 0 0 1 -0.64063,-1.449219 l -8.90039,-28.091797 z m 36.55078,0.490235 v 1.630859 c 1.69,0.17 3.78008,1.089844 3.58008,3.089844 v 23.470703 c 0.16,2.37 -1.74008,2.619219 -3.58008,2.699219 v 1.669921 h 11.08008 V 66.15796 c -1.06,-0.09 -2.91125,-0.469609 -3.28125,-1.599609 -0.43,-0.37 -0.13875,-11.899453 -0.21875,-12.689453 h 12.51953 c -0.11,0.83 0.27023,12.54 -0.25977,13 -0.45,1.19 -2.31054,1.12 -3.31054,1.25 v 1.669921 h 11.09961 l 1.71093,0.04102 v -0.04102 h 12.01953 0.72071 10.93945 V 66.15796 c -1.97,-0.33 -4.26094,-0.998828 -4.46094,-3.548828 -0.58,-2.67 -0.17906,-18.010625 -0.28906,-21.140625 l 16.16992,26.669922 h 1.64063 c 0.09,-2.88 -0.24149,-25.74 0.22851,-28 0.09,-2.5 2.20985,-2.989297 4.08985,-3.279297 h 0.14062 c 1.17,-0.02 3.26117,0.52 3.70117,1.75 a 4,4 0 0 1 0.20899,1.339844 v 23.36914 c 0.2,2.43 -1.93078,2.660782 -3.80078,2.800782 v 1.669921 h 22.16015 l 0.5,-9.589843 h -1.33984 c -2.72,7.93 -3.00984,8.079844 -11.33984,7.589843 -2.17,-0.289999 -2.16993,-2.160156 -2.16993,-4.160156 v -9.759765 c 5.15,-0.16 6.80039,-0.189219 7.40039,5.550781 h 1.41016 V 44.657961 h -1.41016 c -0.66,5.57 -2.40039,5.470313 -7.40039,5.320313 V 37.079836 a 70.09,70.09 0 0 1 7.42969,0.179688 c 1.79,0.31 3.67,4.159375 4,5.859375 h 1.41016 v -7.890625 h -20.63868 -0.12109 -10.98047 v 1.630859 c 1.89,0.33 4.21039,0.830078 4.40039,3.330078 0.59,2.68 0.19078,16.739375 0.30078,19.859375 l -15,-24.820312 h -7.63085 -12.28907 -12.78125 v 1.630859 c 1.12,0.17 2.84008,0.57 3.33008,1.75 0.48,0.55 0.15023,10.318984 0.24024,11.208984 h -12.54883 c 0.08,-0.88 -0.21125,-10.93 0.21875,-11.5 0.39,-1.19 2.21125,-1.308984 3.28125,-1.458984 v -1.630859 z m 29.33984,1.628906 c 1.35929,0.106162 3.303,0.614393 3.79883,1.710937 a 3.69,3.69 0 0 1 0.21094,1.339844 v 23.550781 c 0.22,2.48 -2.15071,2.660157 -4.2207,2.660157 v 0.08008 h -1.5 c -1.71001,-0.12 -3.75024,-0.94 -3.49024,-3 v -23.48047 a 4.51,4.51 0 0 1 0.21094,-1.400391 c 0.39,-1.2 2.21929,-1.298984 3.2793,-1.458984 h 0.83007 0.88086 z m 12.01953,0.002 h 0.16993 a 4.58,4.58 0 0 1 4.60937,3.470703 c 0.58,0.73 0.20078,16.858438 0.30078,18.148438 -0.07,4.59 0.23047,7.410625 -4.76953,7.640625 v 0.03906 h -0.31055 c -1.19,-0.13 -3.20046,-0.348359 -3.73046,-1.568359 a 3.18,3.18 0 0 1 -0.26954,-1.339888 V 39.679446 c -0.28,-2.32 2.25,-2.730313 4,-2.820313 z m -78.40039,4.980469 4,12.638672 h -8 z M 67.059217,53.519289 v 3.59961 h 11.208984 v -3.59961 z"
       inkscape:export-filename="C:\Users\BUCH\Desktop\Retrogaming\Recalbox\travail thèmes\BlueBox\zmachine\rect1054.png"
       inkscape:export-xdpi="572.47418"
       inkscape:export-ydpi="572.47418" />
  </g>
</svg>
