<?xml version="1.0" encoding="UTF-8" standalone="no"?>
<svg
   viewBox="0 0 451.45999 114.01004"
   version="1.1"
   id="svg93"
   sodipodi:docname="zx81.svg"
   width="451.45999"
   height="114.01004"
   inkscape:version="1.1 (c68e22c387, 2021-05-23)"
   xmlns:inkscape="http://www.inkscape.org/namespaces/inkscape"
   xmlns:sodipodi="http://sodipodi.sourceforge.net/DTD/sodipodi-0.dtd"
   xmlns="http://www.w3.org/2000/svg"
   xmlns:svg="http://www.w3.org/2000/svg">
  <defs
     id="defs97" />
  <sodipodi:namedview
     id="namedview95"
     pagecolor="#ffffff"
     bordercolor="#666666"
     borderopacity="1.0"
     inkscape:pageshadow="2"
     inkscape:pageopacity="0.0"
     inkscape:pagecheckerboard="0"
     showgrid="false"
     fit-margin-top="0"
     fit-margin-left="0"
     fit-margin-right="0"
     fit-margin-bottom="0"
     inkscape:zoom="1.113"
     inkscape:cx="225.96586"
     inkscape:cy="56.603774"
     inkscape:window-width="1920"
     inkscape:window-height="1138"
     inkscape:window-x="-8"
     inkscape:window-y="-8"
     inkscape:window-maximized="1"
     inkscape:current-layer="svg93" />
  <g
     id="Layer_2"
     data-name="Layer 2"
     transform="translate(-274.27)">
    <rect
       x="302.07999"
       y="62.73"
       width="75.389999"
       height="36.52"
       fill="#ffffff"
       id="rect2" />
    <rect
       x="468"
       y="29.6"
       width="85.57"
       height="20.870001"
       fill="#ffffff"
       id="rect4" />
  </g>
  <rect
     x="257.57004"
     y="3.5"
     width="21.110001"
     height="59.900002"
     rx="3.5"
     fill="#f9605b"
     id="rect7" />
  <path
     d="M 275.18,7 V 59.9 H 261.07 V 7 h 14.11 m 0,-7 h -14.11 a 7,7 0 0 0 -7,7 v 52.9 a 7,7 0 0 0 7,7 h 14.11 a 7,7 0 0 0 7,-7 V 7 a 7,7 0 0 0 -7,-7 z"
     fill="#ffffff"
     id="path9" />
  <path
     d="m 282.23,63.4 a 3.5,3.5 0 0 1 -3.5,-3.5 V 35.21 a 3.39,3.39 0 0 1 0.48,-1.76 3.43,3.43 0 0 1 -0.48,-1.77 V 21.11 a 3.5,3.5 0 0 1 3.5,-3.5 h 63.5 a 3.5,3.5 0 0 1 3.5,3.5 V 59.9 a 3.5,3.5 0 0 1 -3.5,3.5 z"
     fill="#f9605b"
     id="path11" />
  <path
     d="M 345.73,21.11 V 59.9 h -63.5 V 35.21 H 331.6 V 31.68 H 282.23 V 21.11 h 63.5 m -49.4,28.21 h 35.27 v -3.53 h -35.27 v 3.53 m 49.4,-35.21 h -63.5 a 7,7 0 0 0 -7,7 v 10.57 a 7.4,7.4 0 0 0 0.22,1.77 7.25,7.25 0 0 0 -0.22,1.76 V 59.9 a 7,7 0 0 0 7,7 h 63.5 a 7,7 0 0 0 7,-7 V 21.11 a 7,7 0 0 0 -7,-7 z"
     fill="#ffffff"
     id="path13" />
  <rect
     x="349.26999"
     y="17.610001"
     width="21.1"
     height="45.790001"
     rx="3.5"
     fill="#f9605b"
     id="rect15" />
  <path
     d="M 366.87,21.11 V 59.9 H 352.73 V 21.11 h 14.1 m 0,-7 h -14.1 a 7,7 0 0 0 -7,7 V 59.9 a 7,7 0 0 0 7,7 h 14.1 a 7,7 0 0 0 7,-7 V 21.11 a 7,7 0 0 0 -7,-7 z"
     fill="#ffffff"
     id="path17" />
  <rect
     x="349.26999"
     y="3.5"
     width="21.1"
     height="17.58"
     rx="3.5"
     fill="#f9605b"
     id="rect19" />
  <path
     d="M 366.87,7 V 17.58 H 352.73 V 7 h 14.1 m 0,-7 h -14.1 a 7,7 0 0 0 -7,7 v 10.58 a 7,7 0 0 0 7,7 h 14.1 a 7,7 0 0 0 7,-7 V 7 a 7,7 0 0 0 -7,-7 z"
     fill="#ffffff"
     id="path21" />
  <path
     d="m 373.92,63.4 a 3.5,3.5 0 0 1 -3.5,-3.5 V 21.11 a 3.5,3.5 0 0 1 3.5,-3.5 h 70.54 a 3.5,3.5 0 0 1 3.5,3.5 v 10.57 a 3.5,3.5 0 0 1 -3.5,3.5 H 391.53 V 59.9 a 3.5,3.5 0 0 1 -3.5,3.5 z"
     fill="#f9605b"
     id="path23" />
  <path
     d="M 444.46,21.11 V 31.68 H 388.03 V 59.9 H 373.92 V 21.11 h 70.54 m 0,-7 h -70.54 a 7,7 0 0 0 -7,7 V 59.9 a 7,7 0 0 0 7,7 h 14.11 a 7,7 0 0 0 7,-7 V 38.68 h 49.43 a 7,7 0 0 0 7,-7 V 21.11 a 7,7 0 0 0 -7,-7 z"
     fill="#ffffff"
     id="path25" />
  <path
     d="m 183.47,63.4 a 3.5,3.5 0 0 1 -3.5,-3.5 V 21.11 a 3.5,3.5 0 0 1 3.5,-3.5 h 70.54 a 3.5,3.5 0 0 1 3.5,3.5 v 10.57 a 3.5,3.5 0 0 1 -3.5,3.5 h -52.93 v 10.64 h 52.93 a 3.5,3.5 0 0 1 3.5,3.5 V 59.9 a 3.5,3.5 0 0 1 -3.5,3.5 z"
     fill="#f9605b"
     id="path27" />
  <path
     d="m 254.01,21.11 v 10.57 h -56.43 v 17.64 h 56.43 V 59.9 H 183.48 V 21.11 h 70.53 m 0,-7 h -70.53 a 7,7 0 0 0 -7,7 V 59.9 a 7,7 0 0 0 7,7 h 70.53 a 7,7 0 0 0 7,-7 V 49.32 a 7,7 0 0 0 -7,-7 h -49.43 v -3.64 h 49.43 a 7,7 0 0 0 7,-7 V 21.11 a 7,7 0 0 0 -7,-7 z"
     fill="#ffffff"
     id="path29" />
  <path
     d="m 162.31,63.4 a 3.5,3.5 0 0 1 -3.5,-3.5 V 35.18 H 123.49 V 59.9 a 3.5,3.5 0 0 1 -3.5,3.5 h -14.11 a 3.5,3.5 0 0 1 -3.5,-3.5 V 21.11 a 3.5,3.5 0 0 1 3.5,-3.5 h 70.54 a 3.5,3.5 0 0 1 3.5,3.5 V 59.9 a 3.5,3.5 0 0 1 -3.5,3.5 z"
     fill="#f9605b"
     id="path31" />
  <path
     d="M 176.42,21.11 V 59.9 H 162.31 V 31.68 H 119.99 V 59.9 H 105.88 V 21.11 h 70.54 m 0,-7 h -70.54 a 7,7 0 0 0 -7,7 V 59.9 a 7,7 0 0 0 7,7 h 14.11 a 7,7 0 0 0 7,-7 V 38.68 h 28.32 V 59.9 a 7,7 0 0 0 7,7 h 14.11 a 7,7 0 0 0 7,-7 V 21.11 a 7,7 0 0 0 -7,-7 z"
     fill="#ffffff"
     id="path33" />
  <rect
     x="81.219994"
     y="17.610001"
     width="21.110001"
     height="45.790001"
     rx="3.5"
     fill="#f9605b"
     id="rect35" />
  <path
     d="M 98.83,21.11 V 59.9 H 84.73 V 21.11 h 14.1 m 0,-7 h -14.1 a 7,7 0 0 0 -7,7 V 59.9 a 7,7 0 0 0 7,7 h 14.1 a 7,7 0 0 0 7,-7 V 21.11 a 7,7 0 0 0 -7,-7 z"
     fill="#ffffff"
     id="path37" />
  <rect
     x="81.219994"
     y="3.5"
     width="21.110001"
     height="17.58"
     rx="3.5"
     fill="#f9605b"
     id="rect39" />
  <path
     d="M 98.83,7 V 17.58 H 84.73 V 7 h 14.1 m 0,-7 h -14.1 a 7,7 0 0 0 -7,7 v 10.58 a 7,7 0 0 0 7,7 h 14.1 a 7,7 0 0 0 7,-7 V 7 a 7,7 0 0 0 -7,-7 z"
     fill="#ffffff"
     id="path41" />
  <path
     d="M 7.14,63.4 A 3.5,3.5 0 0 1 3.64,59.9 V 49.32 A 3.52,3.52 0 0 1 4.11,47.55 3.48,3.48 0 0 1 3.64,45.79 V 21.11 a 3.5,3.5 0 0 1 3.5,-3.5 h 70.53 a 3.5,3.5 0 0 1 3.5,3.5 v 10.57 a 3.52,3.52 0 0 1 -0.47,1.77 3.48,3.48 0 0 1 0.47,1.76 V 59.9 a 3.5,3.5 0 0 1 -3.5,3.5 z"
     fill="#f9605b"
     id="path43" />
  <path
     d="M 77.67,21.11 V 31.68 H 21.24 v 3.53 H 77.67 V 59.9 H 7.14 V 49.32 H 63.57 V 45.79 H 7.14 V 21.11 h 70.53 m 0,-7 H 7.14 a 7,7 0 0 0 -7,7 v 24.68 a 7.25,7.25 0 0 0 0.22,1.76 7.4,7.4 0 0 0 -0.22,1.77 V 59.9 a 7,7 0 0 0 7,7 h 70.53 a 7,7 0 0 0 7,-7 V 35.21 a 6.79,6.79 0 0 0 -0.22,-1.76 6.92,6.92 0 0 0 0.22,-1.77 V 21.11 a 7,7 0 0 0 -7,-7 z"
     fill="#ffffff"
     id="path45" />
  <path
     d="m 7,109.75 a 3.5,3.5 0 0 1 -3.5,-3.5 v -6.1 A 3.46,3.46 0 0 1 4.3,97.93 L 16.39,83.24 H 8.2 a 3.5,3.5 0 0 1 -3.5,-3.5 v -6.36 a 3.5,3.5 0 0 1 3.5,-3.5 h 25.27 a 3.5,3.5 0 0 1 3.5,3.5 v 5.92 a 3.48,3.48 0 0 1 -0.79,2.21 L 24.47,95.83 24.08,96.3 h 10 a 3.5,3.5 0 0 1 3.5,3.5 v 6.45 a 3.5,3.5 0 0 1 -3.5,3.5 z"
     fill="#f9605b"
     id="path47" />
  <path
     d="M 33.47,73.38 V 79.3 L 21.73,93.61 c -0.56,0.68 -1.18,1.39 -1.86,2.12 -0.68,0.73 -1.32,1.42 -1.94,2 l -2.17,2.16 v 0.13 c 0.89,0 1.77,-0.07 2.66,-0.13 l 2.4,-0.09 c 0.84,0 1.6,0 2.28,0 h 11 v 6.45 H 7 v -6.1 L 19.15,85.4 c 0.5,-0.59 1.06,-1.22 1.68,-1.88 0.62,-0.66 1.21,-1.29 1.77,-1.88 0.56,-0.59 1.31,-1.34 2,-2 v -0.13 c -0.86,0.06 -1.7,0.1 -2.52,0.13 l -2.26,0.07 H 17.66 8.21 v -6.33 h 25.27 m 0,-7 H 8.2 a 7,7 0 0 0 -7,7 v 6.36 a 7,7 0 0 0 7,7 h 0.78 l -7.38,9 A 7,7 0 0 0 0,100.19 v 6.1 a 7,7 0 0 0 7,7 h 27.09 a 7,7 0 0 0 7,-7 V 99.8 a 7,7 0 0 0 -7,-7 h -2.62 l 7.42,-9.07 a 7,7 0 0 0 1.58,-4.43 v -5.92 a 7,7 0 0 0 -7,-7 z"
     fill="#ffffff"
     id="path49" />
  <path
     d="m 58.43,109.75 a 3.49,3.49 0 0 1 -3,-1.76 l -3.61,-6.31 c -0.11,0.19 -0.21,0.38 -0.32,0.56 l -3.4,5.78 a 3.51,3.51 0 0 1 -3,1.73 h -8.57 a 3.5,3.5 0 0 1 -2.94,-5.39 L 43.41,89.07 34.52,75.28 a 3.5,3.5 0 0 1 2.94,-5.4 h 8.61 a 3.5,3.5 0 0 1 3,1.71 l 2.65,4.46 c 0.13,0.21 0.25,0.43 0.37,0.64 0.13,-0.21 0.25,-0.42 0.37,-0.63 l 2.71,-4.49 a 3.51,3.51 0 0 1 3,-1.69 h 8.22 a 3.49,3.49 0 0 1 2.95,5.38 l -8.8,13.74 9.77,15.35 a 3.51,3.51 0 0 1 -3,5.38 z"
     fill="#f9605b"
     id="path51" />
  <path
     d="m 66.34,73.38 v 0 m 0,0 L 56.4,89 67.35,106.23 h -8.92 l -3.32,-5.79 C 54.73,99.79 54.36,99.08 53.99,98.3 l -1,-2.19 -1.06,-2.38 h -0.09 c -0.35,0.79 -0.72,1.59 -1.1,2.38 -0.38,0.79 -0.69,1.41 -1.09,2.19 -0.4,0.78 -0.78,1.49 -1.17,2.14 l -3.4,5.79 H 36.51 L 47.56,89.04 37.4,73.38 h 8.61 l 2.65,4.46 c 0.39,0.65 0.77,1.35 1.15,2.1 0.38,0.75 0.74,1.46 1.06,2.14 0.32,0.68 0.73,1.56 1.11,2.39 h 0.09 c 0.35,-0.83 0.72,-1.62 1.1,-2.39 0.38,-0.77 0.69,-1.39 1.08,-2.14 0.39,-0.75 0.79,-1.45 1.17,-2.1 l 2.7,-4.46 h 8.22 m 0,-7 h -8.22 a 7,7 0 0 0 -6,3.38 l -0.06,0.1 V 69.8 a 7,7 0 0 0 -6,-3.42 h -8.61 a 7,7 0 0 0 -5.88,10.79 l 7.67,11.9 -8.61,13.39 a 7,7 0 0 0 5.89,10.79 h 8.57 a 7,7 0 0 0 6,-3.45 l 0.66,-1.14 0.61,1.07 a 7,7 0 0 0 6.08,3.52 h 8.92 a 7,7 0 0 0 5.91,-10.76 L 64.73,89 72.19,77.26 a 7,7 0 0 0 -5.81,-10.9 z m 0,14 z"
     fill="#ffffff"
     id="path53" />
  <path
     d="m 82.42,110.5 a 23.16,23.16 0 0 1 -6.15,-0.79 16.65,16.65 0 0 1 -5.24,-2.45 12.69,12.69 0 0 1 -3.75,-4.22 12,12 0 0 1 -1.39,-5.76 11.32,11.32 0 0 1 2.3,-7 10.72,10.72 0 0 1 1.1,-1.24 l -0.23,-0.3 a 9.86,9.86 0 0 1 -1.85,-5.91 11.21,11.21 0 0 1 1.2,-5.14 11.47,11.47 0 0 1 3.35,-4 14.83,14.83 0 0 1 4.84,-2.34 21,21 0 0 1 5.77,-0.75 21.53,21.53 0 0 1 5.74,0.72 14.59,14.59 0 0 1 4.78,2.26 11,11 0 0 1 4.56,9.09 9.88,9.88 0 0 1 -1.84,5.83 l -0.18,0.25 a 10.77,10.77 0 0 1 1.18,1.34 11.44,11.44 0 0 1 2.25,7 12.27,12.27 0 0 1 -5.1,10.14 16,16 0 0 1 -5.2,2.47 23,23 0 0 1 -6.14,0.8 z m 0,-15.11 a 3.15,3.15 0 0 0 -1.92,0.48 c -0.13,0.11 -0.32,0.28 -0.32,1 0,0.72 0.15,0.71 0.27,0.81 a 3.21,3.21 0 0 0 2,0.46 2.87,2.87 0 0 0 1.85,-0.48 c 0.15,-0.13 0.3,-0.25 0.3,-0.79 0,-0.72 -0.2,-0.9 -0.31,-1 A 3.06,3.06 0 0 0 82.42,95.39 Z M 82.33,82.62 a 2.21,2.21 0 0 0 -1.25,0.24 c 0,0 -0.07,0.11 -0.07,0.33 a 0.65,0.65 0 0 0 0,0.23 c 0,0 0.3,0.24 1.29,0.24 a 2.42,2.42 0 0 0 1.27,-0.21 c 0,0 0.05,-0.11 0.05,-0.26 a 1,1 0 0 0 0,-0.33 2.3,2.3 0 0 0 -1.29,-0.24 z"
     fill="#f9605b"
     id="path55" />
  <path
     d="m 82.37,74.13 a 17.81,17.81 0 0 1 4.8,0.6 10.85,10.85 0 0 1 3.64,1.7 7.56,7.56 0 0 1 2.32,2.69 7.64,7.64 0 0 1 0.82,3.58 6.45,6.45 0 0 1 -1.22,3.8 7.39,7.39 0 0 1 -3.67,2.56 v 0.14 a 8.47,8.47 0 0 1 4.71,3 8,8 0 0 1 1.56,4.9 8.78,8.78 0 0 1 -3.66,7.32 12.78,12.78 0 0 1 -4.09,1.92 20.81,20.81 0 0 1 -10.4,0 13.17,13.17 0 0 1 -4.14,-1.92 9.15,9.15 0 0 1 -2.71,-3 8.44,8.44 0 0 1 -1,-4.09 7.85,7.85 0 0 1 1.59,-4.88 8.81,8.81 0 0 1 4.64,-3 v -0.13 a 7.51,7.51 0 0 1 -3.72,-2.54 6.48,6.48 0 0 1 -1.11,-3.95 7.67,7.67 0 0 1 0.82,-3.55 7.84,7.84 0 0 1 2.34,-2.77 11.29,11.29 0 0 1 3.69,-1.76 17.57,17.57 0 0 1 4.81,-0.62 m 0,13 a 5.3,5.3 0 0 0 3.58,-1.08 3.67,3.67 0 0 0 1.24,-2.89 3.78,3.78 0 0 0 -1.24,-3 6.3,6.3 0 0 0 -7.14,0 3.73,3.73 0 0 0 -1.26,3 3.62,3.62 0 0 0 1.16,2.92 5.31,5.31 0 0 0 3.56,1.08 m 0.09,14.45 a 6.16,6.16 0 0 0 4.11,-1.3 4.32,4.32 0 0 0 1.54,-3.47 4.58,4.58 0 0 0 -1.5,-3.62 6,6 0 0 0 -4.15,-1.33 6.21,6.21 0 0 0 -4.2,1.33 4.51,4.51 0 0 0 -1.45,3.62 4.32,4.32 0 0 0 1.52,3.49 6.39,6.39 0 0 0 4.22,1.28 M 82.42,67.13 a 24.5,24.5 0 0 0 -6.73,0.89 18.19,18.19 0 0 0 -6,2.9 14.93,14.93 0 0 0 -4.38,5.19 14.77,14.77 0 0 0 -1.58,6.72 13.78,13.78 0 0 0 1.29,5.89 15,15 0 0 0 -2.61,8.56 15.36,15.36 0 0 0 1.82,7.43 15.94,15.94 0 0 0 4.77,5.38 19.69,19.69 0 0 0 6.35,3 27.74,27.74 0 0 0 14.17,0 19.77,19.77 0 0 0 6.32,-3 15.75,15.75 0 0 0 6.54,-13 15.21,15.21 0 0 0 -2.65,-8.67 13.57,13.57 0 0 0 1.25,-5.72 14.47,14.47 0 0 0 -6,-11.91 A 18.17,18.17 0 0 0 89.05,68 25.24,25.24 0 0 0 82.37,67.15 Z"
     fill="#ffffff"
     id="path57" />
  <rect
     x="95.930016"
     y="69.879997"
     width="14.56"
     height="39.869999"
     rx="3.5"
     fill="#f9605b"
     id="rect59" />
  <path
     d="m 106.98,73.38 v 32.87 H 99.43 V 73.38 h 7.55 m 0,-7 h -7.55 a 7,7 0 0 0 -7,7 v 32.87 a 7,7 0 0 0 7,7 h 7.55 a 7,7 0 0 0 7,-7 V 73.38 a 7,7 0 0 0 -7,-7 z"
     fill="#ffffff"
     id="path61" />
  <path
     d="m 261.07,7 h 14.11 v 52.9 h -14.11 z"
     fill="#f9605b"
     id="path63"
     style="fill:#1a1a1a" />
  <path
     d="m 282.23,21.11 v 10.57 h 49.37 v 3.53 H 282.23 V 59.9 h 63.5 V 21.11 Z m 14.1,24.68 h 35.27 v 3.53 h -35.27 z"
     fill="#f9605b"
     id="path65"
     style="fill:#1a1a1a" />
  <path
     d="m 352.73,21.11 h 14.1 V 59.9 h -14.1 z"
     fill="#f9605b"
     id="path67"
     style="fill:#1a1a1a" />
  <path
     d="m 352.73,7 h 14.1 v 10.58 h -14.1 z"
     fill="#f9605b"
     id="path69"
     style="fill:#1a1a1a" />
  <path
     d="M 373.92,21.11 V 59.9 h 14.11 V 31.68 h 56.43 V 21.11 Z"
     fill="#f9605b"
     id="path71"
     style="fill:#1a1a1a" />
  <path
     d="M 183.48,21.11 V 59.9 h 70.53 V 49.32 H 197.58 V 31.68 h 56.43 V 21.11 Z"
     fill="#f9605b"
     id="path73"
     style="fill:#1a1a1a" />
  <path
     d="M 105.88,21.11 V 59.9 h 14.11 V 31.68 h 42.32 V 59.9 h 14.11 V 21.11 Z"
     fill="#f9605b"
     id="path75"
     style="fill:#1a1a1a" />
  <path
     d="m 84.73,21.11 h 14.1 V 59.9 h -14.1 z"
     fill="#f9605b"
     id="path77"
     style="fill:#1a1a1a" />
  <path
     d="m 84.73,7 h 14.1 v 10.58 h -14.1 z"
     fill="#f9605b"
     id="path79"
     style="fill:#1a1a1a" />
  <path
     d="m 7.14,21.11 v 24.68 h 56.43 v 3.53 H 7.14 V 59.9 H 77.67 V 35.21 H 21.24 V 31.68 H 77.67 V 21.11 Z"
     fill="#f9605b"
     id="path81"
     style="fill:#1a1a1a" />
  <path
     d="M 7,106.25 H 34.09 V 99.8 h -11 c -0.68,0 -1.44,0 -2.28,0 l -2.4,0.09 c -0.89,0.06 -1.77,0.1 -2.66,0.13 v -0.13 l 2.17,-2.16 c 0.62,-0.62 1.27,-1.3 1.94,-2 0.67,-0.7 1.3,-1.44 1.86,-2.12 L 33.47,79.3 V 73.38 H 8.2 v 6.36 h 9.45 2.16 l 2.26,-0.07 c 0.82,0 1.66,-0.07 2.52,-0.13 v 0.13 c -0.68,0.65 -1.34,1.31 -2,2 -0.66,0.69 -1.15,1.21 -1.77,1.88 -0.62,0.67 -1.18,1.29 -1.68,1.88 L 6.99,100.18 Z"
     fill="#f9605b"
     id="path83"
     style="fill:#d40000" />
  <path
     d="m 36.47,106.25 h 8.57 l 3.4,-5.79 c 0.39,-0.65 0.78,-1.36 1.17,-2.14 0.39,-0.78 0.76,-1.51 1.09,-2.19 0.33,-0.68 0.75,-1.59 1.1,-2.38 h 0.09 l 1.06,2.38 1,2.19 c 0.37,0.78 0.74,1.49 1.12,2.14 l 3.32,5.79 h 8.92 L 56.4,89 66.34,73.36 h -8.22 l -2.7,4.46 q -0.57,1 -1.17,2.1 c -0.39,0.75 -0.76,1.46 -1.08,2.14 -0.32,0.68 -0.75,1.56 -1.1,2.39 H 51.98 C 51.6,83.62 51.23,82.83 50.87,82.06 50.51,81.29 50.2,80.67 49.81,79.92 49.42,79.17 49.05,78.47 48.66,77.82 L 46.01,73.36 H 37.4 l 10.12,15.68 z"
     fill="#f9605b"
     id="path85"
     style="fill:#d40000" />
  <path
     d="m 87.61,106.34 a 12.78,12.78 0 0 0 4.09,-1.92 8.78,8.78 0 0 0 3.66,-7.32 8,8 0 0 0 -1.56,-4.9 8.47,8.47 0 0 0 -4.71,-3 v -0.14 a 7.39,7.39 0 0 0 3.64,-2.56 6.45,6.45 0 0 0 1.19,-3.8 7.64,7.64 0 0 0 -0.82,-3.58 7.56,7.56 0 0 0 -2.32,-2.69 10.85,10.85 0 0 0 -3.64,-1.7 17.81,17.81 0 0 0 -4.8,-0.6 17.57,17.57 0 0 0 -4.81,0.62 11.29,11.29 0 0 0 -3.69,1.76 7.84,7.84 0 0 0 -2.34,2.77 7.67,7.67 0 0 0 -0.82,3.55 6.48,6.48 0 0 0 1.19,3.87 7.51,7.51 0 0 0 3.72,2.54 v 0.13 a 8.81,8.81 0 0 0 -4.64,3 7.85,7.85 0 0 0 -1.59,4.88 8.44,8.44 0 0 0 1,4.09 9.15,9.15 0 0 0 2.71,3 13.17,13.17 0 0 0 4.14,1.92 20.81,20.81 0 0 0 10.4,0 z M 78.73,86.08 a 3.62,3.62 0 0 1 -1.26,-2.89 3.73,3.73 0 0 1 1.26,-3 6.3,6.3 0 0 1 7.14,0 3.78,3.78 0 0 1 1.24,3 3.67,3.67 0 0 1 -1.24,2.89 6.44,6.44 0 0 1 -7.14,0 z m -0.57,14.25 a 4.32,4.32 0 0 1 -1.43,-3.49 4.51,4.51 0 0 1 1.54,-3.62 6.21,6.21 0 0 1 4.2,-1.33 6,6 0 0 1 4.15,1.33 4.58,4.58 0 0 1 1.5,3.62 4.32,4.32 0 0 1 -1.54,3.47 6.16,6.16 0 0 1 -4.11,1.3 6.39,6.39 0 0 1 -4.27,-1.28 z"
     fill="#f9605b"
     id="path87"
     style="fill:#d40000" />
  <path
     d="m 99.43,106.25 h 7.55 V 73.38 h -7.55 z"
     fill="#f9605b"
     id="path89"
     style="fill:#d40000" />
</svg>
