<?xml version="1.0" encoding="UTF-8" standalone="no"?>
<svg
   viewBox="0 0 514.01154 91.580002"
   version="1.1"
   id="svg68"
   sodipodi:docname="zxspectrum.svg"
   width="514.01154"
   height="91.580002"
   inkscape:version="1.1 (c68e22c387, 2021-05-23)"
   xmlns:inkscape="http://www.inkscape.org/namespaces/inkscape"
   xmlns:sodipodi="http://sodipodi.sourceforge.net/DTD/sodipodi-0.dtd"
   xmlns="http://www.w3.org/2000/svg"
   xmlns:svg="http://www.w3.org/2000/svg"
   xmlns:rdf="http://www.w3.org/1999/02/22-rdf-syntax-ns#"
   xmlns:cc="http://creativecommons.org/ns#"
   xmlns:dc="http://purl.org/dc/elements/1.1/">
  <defs
     id="defs72" />
  <sodipodi:namedview
     id="namedview70"
     pagecolor="#ffffff"
     bordercolor="#666666"
     borderopacity="1.0"
     inkscape:pageshadow="2"
     inkscape:pageopacity="0.0"
     inkscape:pagecheckerboard="0"
     showgrid="false"
     fit-margin-top="0"
     fit-margin-left="0"
     fit-margin-right="0"
     fit-margin-bottom="0"
     inkscape:zoom="1.113"
     inkscape:cx="257.4124"
     inkscape:cy="45.822102"
     inkscape:window-width="1920"
     inkscape:window-height="1138"
     inkscape:window-x="-8"
     inkscape:window-y="-8"
     inkscape:window-maximized="1"
     inkscape:current-layer="svg68" />
  <title
     id="title2">logo</title>
  <g
     id="g924"
     transform="translate(-242.99953,-11.21)">
    <g
       id="Layer_2"
       data-name="Layer 2">
      <rect
         x="393.34"
         y="38"
         width="77.559998"
         height="19"
         fill="#ffffff"
         id="rect4" />
      <rect
         x="287.34"
         y="66.889999"
         width="50.740002"
         height="20.99"
         fill="#ffffff"
         id="rect6" />
    </g>
    <g
       id="Layer_1"
       data-name="Layer 1">
      <path
         d="m 354.57,80 a 2.62,2.62 0 0 1 0.69,0.11 v 3 A 5.38,5.38 0 0 0 354.12,83 v 0 c -2.32,0 -3.1,1.67 -3.1,3.7 v 5.1 h -3.17 l -0.07,-11.53 h 3.11 v 2.15 A 4.07,4.07 0 0 1 354.57,80 m 0,-7 h -0.09 a 11,11 0 0 0 -2.69,0.36 6.69,6.69 0 0 0 -0.9,-0.06 h -3.11 a 7,7 0 0 0 -7,7 l 0.07,11.53 a 7,7 0 0 0 7,7 H 351 a 7,7 0 0 0 7,-7 v -2.37 a 7.45,7.45 0 0 0 1.66,-1 7,7 0 0 0 2.6,-5.46 v -3 a 7,7 0 0 0 -4.88,-6.67 9.66,9.66 0 0 0 -2.77,-0.44 z"
         fill="#ffffff"
         id="path9" />
      <path
         d="m 307,80 h 0.2 c 3.61,0 5.24,2.92 5.24,6.21 0,3.1 -1.7,6 -5.06,6 h -0.11 a 4.11,4.11 0 0 1 -3.38,-1.77 v 5.43 h -3.19 v -15.6 h 3 v 1.48 0 A 3.82,3.82 0 0 1 307,80 m -0.5,9.77 c 2.06,0 2.77,-1.86 2.77,-3.74 v 0.08 c 0,-1.83 -0.73,-3.72 -2.76,-3.72 -2.03,0 -2.75,1.85 -2.75,3.72 0,1.87 0.71,3.66 2.77,3.66 M 307,73 a 11.06,11.06 0 0 0 -2.71,0.34 5.44,5.44 0 0 0 -0.57,0 h -3 a 7,7 0 0 0 -7,7 v 15.45 a 7,7 0 0 0 7,7 h 3.19 a 7,7 0 0 0 6.32,-4 c 5.42,-1.3 9.23,-6.3 9.23,-12.63 0,-7.59 -5.07,-13.12 -12.07,-13.2 z"
         fill="#ffffff"
         id="path11" />
      <path
         d="m 332.66,80 c 2.73,0 5.22,1.43 5.43,4.38 h -3.11 a 2.16,2.16 0 0 0 -2.15,-2 h -0.18 c -2,0 -2.7,2 -2.7,3.74 0,1.74 0.65,3.64 2.64,3.64 h 0.08 a 2.44,2.44 0 0 0 2.44,-2.33 h 3.05 a 5.17,5.17 0 0 1 -5.56,4.74 h -0.23 a 5.6,5.6 0 0 1 -5.59,-5.37 v 0 -0.55 c 0,-3.59 2.15,-6.25 5.89,-6.25 m 5.5,7.43 v 0 M 332.66,73 c -7.46,0 -12.89,5.57 -12.89,13.25 v 0.55 c 0,0.09 0,0.19 0,0.29 v 0 a 12.57,12.57 0 0 0 12.59,12.08 h 0.37 a 12.1,12.1 0 0 0 12.32,-10.53 8,8 0 0 0 0.1,-1.21 7.07,7.07 0 0 0 -0.2,-1.67 7.38,7.38 0 0 0 0.12,-1.88 C 344.62,77.58 339.4,73 332.65,73 Z"
         fill="#ffffff"
         id="path13" />
      <path
         d="m 344,76.74 v 3.53 h 2.33 v 2.12 H 344 V 88 c 0,1.07 0.27,1.35 1.34,1.35 v 0 a 5.34,5.34 0 0 0 1,-0.1 v 2.48 a 12,12 0 0 1 -1.7,0.11 h -0.15 c -1.94,0 -3.64,-0.45 -3.64,-2.74 v -6.78 h -1.92 V 80.2 h 1.92 V 76.74 H 344 m 0,-7 h -3.17 a 7,7 0 0 0 -6.84,5.48 7,7 0 0 0 -2.08,5 v 2.12 a 7,7 0 0 0 1.92,4.82 v 2 c 0,4.85 3.29,9.74 10.64,9.74 h 0.15 a 19.85,19.85 0 0 0 2.67,-0.18 7,7 0 0 0 6,-6.93 v -2.51 a 7,7 0 0 0 -0.9,-3.43 7,7 0 0 0 0.91,-3.46 v -2.12 a 7,7 0 0 0 -2.59,-5.43 7,7 0 0 0 -6.74,-5.1 z"
         fill="#ffffff"
         id="path15" />
      <path
         d="m 292.06,75.46 c 3.32,0 6.38,1.45 6.38,5.13 h -3.39 c -0.11,-1.92 -1.47,-2.41 -3.15,-2.41 -1.11,0 -2.4,0.47 -2.4,1.81 0,1.34 0.77,1.38 4.75,2.41 1.16,0.29 4.73,1 4.73,4.66 0,2.91 -2.33,5.1 -6.63,5.1 -3.52,0 -6.83,-1.74 -6.78,-5.66 h 3.39 c 0,2.12 1.65,2.94 3.52,2.94 1.23,0 3.11,-0.35 3.11,-2 0,-1.65 -2.39,-2 -4.74,-2.63 -2.35,-0.63 -4.74,-1.56 -4.74,-4.54 0,-3.25 3.1,-4.81 5.95,-4.81 m 0,-7 c -7.39,0 -12.95,5.08 -12.95,11.81 a 12,12 0 0 0 0.33,2.85 7,7 0 0 0 -0.87,3.29 12.14,12.14 0 0 0 3.43,8.77 14.32,14.32 0 0 0 10.34,4 c 8.95,0 13.63,-6.09 13.63,-12.1 a 11.85,11.85 0 0 0 -0.85,-4.4 7.05,7.05 0 0 0 0.31,-2.07 c 0,-7.14 -5.5,-12.13 -13.38,-12.13 z"
         fill="#ffffff"
         id="path17" />
      <path
         d="m 319.61,80 c 3.93,0 5.82,3.3 5.61,6.85 h -8.29 c 0.09,2 1.07,2.92 2.83,2.92 h 0.14 a 2.6,2.6 0 0 0 2.36,-1.5 H 325 a 5.17,5.17 0 0 1 -5,3.9 h -0.42 c -3.63,0 -5.89,-2.5 -5.89,-6.06 A 5.72,5.72 0 0 1 319.61,80 m 2.47,4.84 c -0.29,-1.61 -1,-2.45 -2.52,-2.45 h -0.15 a 2.48,2.48 0 0 0 -2.48,2.33 v 0.11 h 5.15 M 319.61,73 a 12.7,12.7 0 0 0 -12.89,13.09 c 0,7.48 5.3,12.93 12.63,13.06 h 0.68 a 12.19,12.19 0 0 0 11.8,-9.15 7.42,7.42 0 0 0 0.21,-1.62 5.81,5.81 0 0 0 0.16,-1.12 14,14 0 0 0 -3.54,-10.46 12.24,12.24 0 0 0 -9.05,-3.8 z"
         fill="#ffffff"
         id="path19" />
      <path
         d="m 278.5,75.79 v 0 m 0,0 -5.09,7.59 5.59,8.32 h -4.13 l -3.48,-5.51 -3.59,5.51 h -4 l 5.58,-8.32 -5.12,-7.59 h 4.05 l 3.11,5.09 3.23,-5.09 h 3.84 m 0,-7 h -3.84 a 7,7 0 0 0 -3.17,0.76 7,7 0 0 0 -3.17,-0.76 h -4.05 a 7,7 0 0 0 -5.8,10.92 l 2.54,3.68 -3,4.41 a 7,7 0 0 0 5.81,10.9 h 4 a 7,7 0 0 0 3.51,-0.94 7,7 0 0 0 3.52,0.94 H 279 a 7,7 0 0 0 5.82,-10.88 l -2.95,-4.43 2.39,-3.56 a 7,7 0 0 0 -5.72,-11 z"
         fill="#ffffff"
         id="path21" />
      <path
         d="M 322.85,18.21 V 25 h -7.27 v -6.79 h 7.27 m 0,-7 h -7.27 a 7,7 0 0 0 -7,7 V 25 a 7,7 0 0 0 7,7 h 7.27 a 7,7 0 0 0 7,-7 v -6.79 a 7,7 0 0 0 -7,-7 z"
         fill="#ffffff"
         id="path23" />
      <path
         d="m 322.85,28.89 v 35.48 h -7.27 V 28.89 h 7.27 m 0,-7 h -7.27 a 7,7 0 0 0 -7,7 v 35.48 a 7,7 0 0 0 7,7 h 7.27 a 7,7 0 0 0 7,-7 V 28.89 a 7,7 0 0 0 -7,-7 z"
         fill="#ffffff"
         id="path25" />
      <path
         d="m 310.88,28.76 v 6.8 h -53.45 l 0.33,7.41 h 53.43 V 64.38 H 250.5 v -6.83 h 53.4 v -7.76 h -53.4 l -0.34,-21 h 60.72 m 0,-7 h -60.72 a 7,7 0 0 0 -7,7.11 l 0.34,21 a 6.94,6.94 0 0 0 1.17,3.77 7,7 0 0 0 -1.17,3.88 v 6.82 a 7,7 0 0 0 7,7 h 60.69 a 7,7 0 0 0 7,-7 V 43 a 7,7 0 0 0 -1.19,-4 7,7 0 0 0 0.91,-3.46 v -6.8 a 7,7 0 0 0 -7,-7 z"
         fill="#ffffff"
         id="path27" />
      <path
         d="m 263.19,75.78 v 2.77 l -8.54,10.26 h 8.77 v 2.94 H 250 V 89 l 8.53,-10.24 h -7.86 v -2.98 h 12.52 m 0,-7 h -12.52 a 7,7 0 0 0 -7,7 v 2.94 a 7,7 0 0 0 1.82,4.72 l -0.87,1 A 7,7 0 0 0 243,89 v 2.79 a 7,7 0 0 0 7,7 h 13.42 a 7,7 0 0 0 7,-7 V 88.81 A 7,7 0 0 0 268.1,83.6 l 0.47,-0.57 a 7,7 0 0 0 1.62,-4.48 v -2.77 a 7,7 0 0 0 -7,-7 z"
         fill="#ffffff"
         id="path29" />
      <path
         d="m 367.29,80.2 v 11.6 h -3 v -1.6 h -0.06 a 4.14,4.14 0 0 1 -3.5,1.92 v 0 c -3.37,0 -4.21,-1.9 -4.21,-4.75 V 80.2 h 3.16 v 6.51 c 0,1.9 0.56,2.84 2,2.84 1.72,0 2.46,-1 2.46,-3.31 v -6 h 3.17 m 0,-7 h -3.17 a 7.26,7.26 0 0 0 -2.25,0.36 7.15,7.15 0 0 0 -2.24,-0.36 h -3.16 a 7,7 0 0 0 -7,7 v 7.17 c 0,8.66 6,11.74 11.19,11.75 v 0 a 11.47,11.47 0 0 0 2.82,-0.35 c 0.24,0 0.49,0 0.74,0 h 3 a 7,7 0 0 0 7,-7 V 80.2 a 7,7 0 0 0 -7,-7 z"
         fill="#ffffff"
         id="path31" />
      <path
         d="M 464.17,18.21 V 64.38 H 456.9 V 18.21 h 7.27 m 0,-7 h -7.27 a 7,7 0 0 0 -7,7 v 46.16 a 7,7 0 0 0 7,7 h 7.27 a 7,7 0 0 0 7,-7 V 18.21 a 7,7 0 0 0 -7,-7 z"
         fill="#ffffff"
         id="path33" />
      <path
         d="m 540.42,28.89 v 35.48 h -7.31 V 28.89 h 7.31 m 0,-7 h -7.31 a 7,7 0 0 0 -7,7 v 35.48 a 7,7 0 0 0 7,7 h 7.31 a 7,7 0 0 0 7,-7 V 28.89 a 7,7 0 0 0 -7,-7 z"
         fill="#ffffff"
         id="path35" />
      <path
         d="M 528.78,28.89 V 64.4 h -60.73 v -21 h 53.41 v -7.7 h -53.41 v -6.81 h 60.73 m -53.43,28.66 h 46.11 v -7.76 h -46.1 v 7.76 m 53.43,-35.66 h -60.74 a 7,7 0 0 0 -7,7 v 6.81 a 7,7 0 0 0 1.17,3.87 7,7 0 0 0 -1.17,3.88 v 21 a 7,7 0 0 0 7,7 h 60.73 a 7,7 0 0 0 7,-7 V 28.89 a 7,7 0 0 0 -7,-7 z"
         fill="#ffffff"
         id="path37" />
      <path
         d="M 540.42,18.21 V 25 h -7.31 v -6.79 h 7.31 m 0,-7 h -7.31 a 7,7 0 0 0 -7,7 V 25 a 7,7 0 0 0 7,7 h 7.31 a 7,7 0 0 0 7,-7 v -6.79 a 7,7 0 0 0 -7,-7 z"
         fill="#ffffff"
         id="path39" />
      <path
         d="m 605.51,28.89 v 6.81 h -53.42 v 28.7 h -7.28 V 28.89 h 60.7 m 0,-7 h -60.7 a 7,7 0 0 0 -7,7 v 35.48 a 7,7 0 0 0 7,7 h 7.28 a 7,7 0 0 0 7,-7 V 42.7 h 46.42 a 7,7 0 0 0 7,-7 v -6.81 a 7,7 0 0 0 -7,-7 z"
         fill="#ffffff"
         id="path41" />
      <path
         d="m 387.45,28.89 v 35.48 h -7.28 V 35.66 H 334 v 28.71 h -7.27 V 28.89 h 60.7 m 0,-7 h -60.7 a 7,7 0 0 0 -7,7 v 35.48 a 7,7 0 0 0 7,7 H 334 a 7,7 0 0 0 7,-7 V 42.66 h 32.15 v 21.71 a 7,7 0 0 0 7,7 h 7.28 a 7,7 0 0 0 7,-7 V 28.89 a 7,7 0 0 0 -7,-7 z"
         fill="#ffffff"
         id="path43" />
      <path
         d="m 376.64,79.94 a 3.43,3.43 0 0 1 3.08,1.93 4.17,4.17 0 0 1 3.47,-1.87 c 2.46,0 4.22,1.14 4.22,4.13 v 7.67 h -3.17 v -6.54 c 0,-1.55 -0.13,-2.81 -1.94,-2.81 -1.81,0 -2.12,1.47 -2.12,2.92 V 91.8 H 377 v -6.47 c 0,-1.34 0.08,-2.88 -1.93,-2.88 -0.62,0 -2.14,0.4 -2.14,2.66 v 6.69 h -3.16 V 80.27 h 3 v 1.56 h 0.05 A 4.13,4.13 0 0 1 376.29,80 h 0.35 m 0,-7 h -0.54 a 11.5,11.5 0 0 0 -2.63,0.36 c -0.23,0 -0.46,0 -0.7,0 h -3 a 7,7 0 0 0 -7,7 V 91.8 a 7,7 0 0 0 7,7 H 373 a 7.24,7.24 0 0 0 2,-0.3 7.12,7.12 0 0 0 2,0.3 h 3.16 a 7.12,7.12 0 0 0 2,-0.3 7.17,7.17 0 0 0 2,0.3 h 3.17 a 7,7 0 0 0 7,-7 v -7.72 c 0,-6.56 -4.61,-11.13 -11.22,-11.13 h -0.06 a 11.38,11.38 0 0 0 -3.25,0.51 10.37,10.37 0 0 0 -3.24,-0.52 z"
         fill="#ffffff"
         id="path45" />
      <path
         d="m 452.08,28.89 v 6.81 h -53.44 v 21.85 h 53.44 v 6.83 H 391.32 V 28.89 h 60.76 m 0,-7 h -60.76 a 7,7 0 0 0 -7,7 v 35.48 a 7,7 0 0 0 7,7 h 60.76 a 7,7 0 0 0 7,-7 v -6.82 a 7,7 0 0 0 -7,-7 H 405.64 V 42.7 h 46.44 a 7,7 0 0 0 7,-7 v -6.81 a 7,7 0 0 0 -7,-7 z"
         fill="#ffffff"
         id="path47" />
      <path
         d="m 659.38,20.12 v 0 m 0,0 -53,53 h -30.17 l 53,-53 h 30.17 m 0,-7 h -30.17 a 7,7 0 0 0 -5,2.06 l -53,53 a 7,7 0 0 0 5,12 h 30.17 a 7,7 0 0 0 5,-2.06 l 52.93,-52.94 a 7,7 0 0 0 -4.87,-12 z m 0,14 z"
         fill="#ffffff"
         id="path49" />
      <path
         d="m 689.62,20.12 v 0 m 0,0 -53,53 h -30.15 l 53,-53 h 30.17 m 0,-7 h -30.19 a 7,7 0 0 0 -5,2.06 l -53,53 a 7,7 0 0 0 5,12 h 30.17 a 7,7 0 0 0 5,-2.06 L 694.5,25.15 a 7,7 0 0 0 -4.87,-12 z m 0,14 z"
         fill="#ffffff"
         id="path51" />
      <path
         d="m 719.83,20.12 v 0 m 0,0 -53,53 h -30.17 l 53,-53 h 30.17 m 0,-7 h -30.17 a 7,7 0 0 0 -4.95,2.06 l -53,53 a 7,7 0 0 0 4.95,12 h 30.16 a 7,7 0 0 0 4.95,-2.06 l 52.94,-52.94 a 7,7 0 0 0 -4.87,-12 z m 0,14 z"
         fill="#ffffff"
         id="path53" />
      <path
         d="m 750,20.12 v 0 m 0,0 -53,53 h -30.16 l 53,-53 H 750 m 0,-7 h -30.15 a 7,7 0 0 0 -5,2.06 l -53,53 a 7,7 0 0 0 5,12 H 697 a 7,7 0 0 0 5,-2.06 l 52.91,-52.94 a 7,7 0 0 0 -4.87,-12 z m 0,14 z"
         fill="#ffffff"
         id="path55" />
      <path
         d="m 250.5,64.37 v -6.82 h 53.4 v -7.76 h -53.4 l -0.34,-21 h 60.72 v 6.8 h -53.45 l 0.33,7.41 h 53.43 V 64.38 H 250.5 Z m 65.08,0 V 28.89 h 7.27 v 35.48 z m 11.17,0 V 28.89 h 60.7 v 35.48 h -7.28 V 35.66 H 334 v 28.71 z m 64.57,0 V 28.89 h 60.76 v 6.81 h -53.44 v 21.85 h 53.44 v 6.83 h -60.76 z m 65.58,0 V 18.21 h 7.27 v 46.17 h -7.27 z m 76.21,0 V 28.89 h 7.31 v 35.48 z m 11.7,0 V 28.89 h 60.7 v 6.81 h -53.42 v 28.7 h -7.28 z M 468.05,28.89 v 6.81 h 53.41 v 7.75 h -53.41 v 21 h 60.73 V 28.89 Z m 53.41,28.66 h -46.11 v -7.76 h 46.1 z M 315.58,25 v -6.79 h 7.27 V 25 Z m 217.53,0 v -6.79 h 7.31 V 25 Z M 250,89 258.53,78.76 h -7.86 v -2.98 h 12.52 v 2.77 l -8.54,10.26 h 8.77 v 2.94 H 250 Z m 19.39,-5.58 -5.12,-7.59 h 4.05 l 3.11,5.09 3.23,-5.09 h 3.84 l -5.09,7.59 5.59,8.28 h -4.13 l -3.48,-5.51 -3.59,5.51 h -4 z M 289,86.48 c 0,2.12 1.65,2.94 3.52,2.94 1.23,0 3.11,-0.35 3.11,-2 0,-1.65 -2.39,-2 -4.74,-2.63 -2.35,-0.63 -4.74,-1.56 -4.74,-4.54 0,-3.25 3.1,-4.81 5.95,-4.81 3.32,0 6.38,1.45 6.38,5.13 h -3.39 c -0.11,-1.92 -1.47,-2.41 -3.15,-2.41 -1.11,0 -2.4,0.47 -2.4,1.81 0,1.34 0.77,1.38 4.75,2.41 1.16,0.29 4.73,1 4.73,4.66 0,2.91 -2.33,5.1 -6.63,5.1 -3.52,0 -6.83,-1.74 -6.78,-5.66 z m 11.75,-6.21 h 3 v 1.48 0 A 3.84,3.84 0 0 1 307.21,80 c 3.61,0 5.24,2.92 5.24,6.21 0,3.1 -1.7,6 -5.06,6 a 4.1,4.1 0 0 1 -3.49,-1.77 v 0 5.43 h -3.19 z m 8.54,5.8 c 0,-1.83 -0.73,-3.72 -2.76,-3.72 -2.03,0 -2.75,1.85 -2.75,3.72 0,1.87 0.71,3.66 2.77,3.66 2.06,0 2.77,-1.86 2.77,-3.74 z m 7.68,0.78 c 0.09,2 1.07,2.92 2.83,2.92 a 2.61,2.61 0 0 0 2.5,-1.5 h 2.7 a 5.16,5.16 0 0 1 -5.43,3.88 c -3.63,0 -5.89,-2.5 -5.89,-6.06 A 5.72,5.72 0 0 1 319.61,80 c 3.93,0 5.82,3.3 5.61,6.85 z m 5.15,-2 c -0.29,-1.61 -1,-2.45 -2.52,-2.45 a 2.49,2.49 0 0 0 -2.63,2.32 v 0 0.11 z m 12.9,-0.47 a 2.16,2.16 0 0 0 -2.32,-2 v 0 c -2,0 -2.7,2 -2.7,3.74 0,1.74 0.65,3.64 2.64,3.64 a 2.44,2.44 0 0 0 2.52,-2.33 h 3.05 a 5.17,5.17 0 0 1 -5.56,4.74 5.6,5.6 0 0 1 -5.82,-5.37 v 0 -0.55 c 0,-3.59 2.15,-6.25 5.89,-6.25 2.73,0 5.22,1.43 5.43,4.38 z m 9,-4.1 h 2.33 V 82.4 H 344 V 88 c 0,1.07 0.27,1.35 1.34,1.35 a 5.34,5.34 0 0 0 1,-0.1 v 2.48 a 12.68,12.68 0 0 1 -1.85,0.11 c -1.94,0 -3.64,-0.45 -3.64,-2.74 v -6.78 h -1.92 V 80.2 h 1.92 V 76.74 H 344 Z m 3.83,0 h 3.11 v 2.15 0 a 4.07,4.07 0 0 1 3.61,-2.43 2.62,2.62 0 0 1 0.69,0.11 v 3 A 4.8,4.8 0 0 0 354.12,83 c -2.32,0 -3.1,1.67 -3.1,3.7 v 5.1 h -3.17 z m 19.44,11.52 h -3 v -1.6 h -0.06 a 4.14,4.14 0 0 1 -3.53,1.92 c -3.37,0 -4.21,-1.9 -4.21,-4.75 V 80.2 h 3.16 v 6.51 c 0,1.9 0.56,2.84 2,2.84 1.72,0 2.46,-1 2.46,-3.31 v -6 h 3.17 z m 2.5,-11.53 h 3 v 1.56 h 0.05 a 4.15,4.15 0 0 1 3.5,-1.83 3.43,3.43 0 0 1 3.38,1.92 4.17,4.17 0 0 1 3.47,-1.92 c 2.46,0 4.22,1.14 4.22,4.13 v 7.67 h -3.17 v -6.54 c 0,-1.55 -0.13,-2.81 -1.94,-2.81 -1.81,0 -2.12,1.47 -2.12,2.92 V 91.8 H 377 v -6.47 c 0,-1.34 0.08,-2.88 -1.93,-2.88 -0.62,0 -2.14,0.4 -2.14,2.66 v 6.69 h -3.16 z"
         id="path57" />
      <path
         d="m 629.21,20.12 -53,53 h 30.17 l 53,-53"
         fill="#ca2825"
         id="path59" />
      <path
         d="m 659.45,20.12 -53,53 h 30.17 l 53,-53"
         fill="#fdc601"
         id="path61" />
      <path
         d="m 689.66,20.12 -53,53 h 30.16 l 53,-53"
         fill="#009c37"
         id="path63" />
      <path
         d="m 719.85,20.12 -53,53 H 697 l 53,-53"
         fill="#02559c"
         id="path65" />
    </g>
  </g>
  <metadata
     id="metadata889">
    <rdf:RDF>
      <cc:Work
         rdf:about="">
        <dc:title>logo</dc:title>
      </cc:Work>
    </rdf:RDF>
  </metadata>
</svg>
